<svg xmlns="http://www.w3.org/2000/svg" xmlns:xlink="http://www.w3.org/1999/xlink" viewBox="0 0 746.51 822.18"><defs><radialGradient id="e0090db6-4eb0-4a6e-a206-2b5c716cee05" cx="121.61" cy="382.1" r="5.66" gradientTransform="matrix(1 0 0 .6 0 152.84)" xlink:href="#b4d1bfbc-b1b9-46d7-9232-feda445159b0"/><radialGradient id="b42e6732-1400-4fc1-8355-75578e61646f" cx="217.55" cy="416.02" r="5.66" xlink:href="#a582162b-9342-45a2-8400-65b3416f065f"/><radialGradient id="e43f4f1d-d208-4463-b33d-ee1270f325dd" cx="195.83" cy="370.99" r="11.47" xlink:href="#a582162b-9342-45a2-8400-65b3416f065f"/><radialGradient id="b4d1bfbc-b1b9-46d7-9232-feda445159b0" cx="92.36" cy="393.88" r="5.66" gradientTransform="matrix(1 0 0 .6 0 157.55)" gradientUnits="userSpaceOnUse"><stop offset="0" stop-color="#0000ef"/><stop offset=".15" stop-color="#0000e9"/><stop offset=".34" stop-color="#0101d9"/><stop offset=".56" stop-color="#0101be"/><stop offset=".79" stop-color="#02029a"/><stop offset="1" stop-color="#020282"/></radialGradient><radialGradient id="b1396927-e698-4257-858a-9246bb3252cb" cx="114.61" cy="393.88" r="5.66" xlink:href="#b4d1bfbc-b1b9-46d7-9232-feda445159b0"/><radialGradient id="bddc44be-52d3-4600-9337-776ad925de46" cx="133.17" cy="400.04" r="5.66" gradientTransform="matrix(1 0 0 .6 0 160.02)" xlink:href="#b4d1bfbc-b1b9-46d7-9232-feda445159b0"/><radialGradient id="a3fcf5df-033c-418a-84a1-9588a10f2a63" cx="139.21" cy="387.78" r="5.66" gradientTransform="matrix(1 0 0 .6 0 155.11)" xlink:href="#b4d1bfbc-b1b9-46d7-9232-feda445159b0"/><radialGradient id="a582162b-9342-45a2-8400-65b3416f065f" cx="65.88" cy="348.77" r="11.47" gradientUnits="userSpaceOnUse"><stop offset="0" stop-color="#fd6d66"/><stop offset=".78" stop-color="#b50a03"/></radialGradient><radialGradient id="ff0b99ca-42b7-433e-be7c-1a901e9140cf" cx="100.32" cy="382.53" r="5.66" gradientTransform="matrix(1 0 0 .6 0 153.01)" xlink:href="#b4d1bfbc-b1b9-46d7-9232-feda445159b0"/><radialGradient id="ee247ffd-353e-4224-97b1-5ae3bedd5125" cx="225.51" cy="404.67" r="5.66" xlink:href="#a582162b-9342-45a2-8400-65b3416f065f"/><radialGradient id="b7ec4228-7db2-46cd-8896-a937a840f29d" cx="246.79" cy="404.24" r="5.66" xlink:href="#a582162b-9342-45a2-8400-65b3416f065f"/><radialGradient id="b84c5b24-a801-4a2f-8be6-20fe83fc5b2d" cx="264.4" cy="409.93" r="5.66" xlink:href="#a582162b-9342-45a2-8400-65b3416f065f"/><radialGradient id="f48d9d82-7b0e-4ca4-bb39-e1b6f2ac19d2" cx="258.36" cy="422.19" r="5.66" xlink:href="#a582162b-9342-45a2-8400-65b3416f065f"/><radialGradient id="bba58eaa-38be-46ca-a30f-d3ed1b986ec1" cx="239.79" cy="416.02" r="5.66" xlink:href="#a582162b-9342-45a2-8400-65b3416f065f"/><style>.f8f07eac-d9c1-4b14-a70f-74a25b3e68b1{fill:#373735}.bf4218c1-c02e-479a-b5ad-ee01d53066d4{fill:#121211}.a75247fc-2a31-43c8-ab6a-a45ca5682929,.aa879a0b-fa3a-45e5-8442-e52797bf7507,.bf1ed64a-8162-4135-b1ae-1db0f83de2f8,.bf4218c1-c02e-479a-b5ad-ee01d53066d4,.bfae7d13-902c-431f-b6a6-f8b8b7e070dc{stroke:#b5b5b5}.a0cd4985-7a1f-4fa6-bda0-74dd00ec832d,.a23de7f9-c896-4ae8-b350-2a4487fd250e,.a75247fc-2a31-43c8-ab6a-a45ca5682929,.aa879a0b-fa3a-45e5-8442-e52797bf7507,.b8cd53cc-5d66-4ca9-a494-bc13c091a474,.bf1ed64a-8162-4135-b1ae-1db0f83de2f8,.bf4218c1-c02e-479a-b5ad-ee01d53066d4,.bfae7d13-902c-431f-b6a6-f8b8b7e070dc{stroke-miterlimit:10}.a23de7f9-c896-4ae8-b350-2a4487fd250e,.a75247fc-2a31-43c8-ab6a-a45ca5682929,.aa879a0b-fa3a-45e5-8442-e52797bf7507,.bf1ed64a-8162-4135-b1ae-1db0f83de2f8,.bf4218c1-c02e-479a-b5ad-ee01d53066d4,.bfae7d13-902c-431f-b6a6-f8b8b7e070dc{stroke-width:.5px}.b8cd53cc-5d66-4ca9-a494-bc13c091a474{fill:#443840}.a23de7f9-c896-4ae8-b350-2a4487fd250e,.b8cd53cc-5d66-4ca9-a494-bc13c091a474{stroke:#090000}.b8cd53cc-5d66-4ca9-a494-bc13c091a474{stroke-width:.75px}.a23de7f9-c896-4ae8-b350-2a4487fd250e{fill:#6b0c05}.e38eaa8e-9cd4-440a-8b97-bbdd7faa4308{fill:#86382f}.a0cd4985-7a1f-4fa6-bda0-74dd00ec832d{stroke:#373737}.a07a9c38-8ab0-4791-9ea2-415b3fb4d29a{fill:#93918f}.a75247fc-2a31-43c8-ab6a-a45ca5682929{fill:#dc6e05}.bf1ed64a-8162-4135-b1ae-1db0f83de2f8{fill:#12e600}.bfae7d13-902c-431f-b6a6-f8b8b7e070dc{fill:#0b47ce}.a18d41da-99cb-4a88-ab5d-f2f4bb3fdaa2,.aa879a0b-fa3a-45e5-8442-e52797bf7507{fill:#282826}.a95b7ba6-97b2-491e-8fa3-592187afc544{fill:#ae7a82}.ff76f4e7-5723-4a99-aff3-5c764288d5a8{fill:url(#a582162b-9342-45a2-8400-65b3416f065f)}.adb20e57-19ab-4e4a-849e-79a41f2816d9{fill:url(#e43f4f1d-d208-4463-b33d-ee1270f325dd)}.e2e512e3-d7d4-4df3-83bf-7886a0038dc8{fill:#0000ef}.f4be7fce-f356-4ef4-b1f0-03cb57c2362a{fill:#930303}.bf3b3ee0-6e66-4ca3-83c9-c1e9e4d9c69b{fill:#e7e7e7}.fb83a9d5-177a-4aa4-a7a1-d0b80244057c{fill:#2c2b29}.ed69b1ac-e996-48e0-bd89-eb4a4d7112b8{fill:#070707}.b2d353fd-e2d1-455a-bccd-f79fd7e9f98f{fill:#f5f5f5}.b864c0c6-b74a-4805-b11a-da4391ab90a4{fill:#fafafa}</style></defs><g id="e1a05104-55af-430c-a252-ad64dab80031" data-name="Calque 1"><path id="b38fbc27-6f5c-424a-94ad-3ca9dae962e6" data-name="ombre" style="opacity:.5;fill:#373735" d="m452.03 588.79 21.51-5.91H485.41l1.58 2.96 237.36 43.3h11.08l11.07 31.39-46.41 37.71-46.42 13.19-8.18-1.32.27-1.85-13.98-2.63-83.6 27.95-73.32 51.57-22.83 6.82-7.77-1.16v-2.63l-16.08-3.03-129.99 34.37 153.84-230.73z"/><g id="a64b2909-09ef-47a1-83b2-30906c1d84ea" data-name="bottom"><path class="f8f07eac-d9c1-4b14-a70f-74a25b3e68b1" d="m36 454.56 224.9 39.62v4.35l25.72 6.13-.4 311.34-248.24-47.27L36 454.56z"/><path class="bf4218c1-c02e-479a-b5ad-ee01d53066d4" d="m202 526.54-78.38-13.74c-3 .19-4.26 3.56-4.26 3.56l.2 85c.69 2.18 3.86 5 3.86 5l74.27 13.46c5.14.49 7.52-5.25 7.52-5.25v-82.69a7.12 7.12 0 0 0-3.21-5.34zm-49.9 22.55-18.69-3.46v-20l2.27-1.88 18.1 3.07-1.78 2.69zm31.45 6.13-18.69-3.46v-20l2.27-1.87 18.1 3.06-1.78 2.67z" transform="translate(-.98 -.52)"/><path class="b8cd53cc-5d66-4ca9-a494-bc13c091a474" d="m134.7 523.25-2.27 1.88v19.98l18.69 3.46-.1-19.58 1.78-2.67-18.1-3.07zM166.15 529.38l-2.27 1.88v19.98l18.69 3.46-.1-19.58 1.78-2.67-18.1-3.07z"/><path class="a23de7f9-c896-4ae8-b350-2a4487fd250e" d="M140.14 543.03v-12.85l8.01 1.78v12.56l-8.01-1.49zM171.2 548.87v-12.86l8.01 1.78v12.56l-8.01-1.48z"/><path d="M135.23 543.16v-15.23l2.05.4v15.16l-2.05-.33zM166.68 548.7v-15.23l2.04.4v15.16l-2.04-.33z"/><path class="e38eaa8e-9cd4-440a-8b97-bbdd7faa4308" d="M140.4 530.69v-.35l7.47 1.8.01.43-7.48-1.88zM171.46 536.62v-.29l7.47 1.64.01.35-7.48-1.7z"/><circle cx="192.4" cy="574.85" r="4.25" style="fill:#8b8b8b;stroke-width:.75px;stroke:#090000;stroke-miterlimit:10"/><path class="a0cd4985-7a1f-4fa6-bda0-74dd00ec832d" d="M136.29 598.71v-11.27l11.96 2.18v11.3l-11.96-2.21zM167.54 604.25v-11.27l11.96 2.17v10.88l-11.96-1.78z"/></g><g id="a83f65c4-6e22-4ab5-9ef0-26a90468aeeb" data-name="t molding"><path class="a07a9c38-8ab0-4791-9ea2-415b3fb4d29a" d="m11.46 450.59-.79-39.76L1 407.66v45.1l27.89 5.54c.59 103.55 1 207.6 1.58 311.15a6.18 6.18 0 0 0 3.53 2.19 12.58 12.58 0 0 0 5 0l-2-316.56zM272.36 497v-41.27l-10.28-1.19-.2 44.51 25.71 6.13s-1.51 313.85 0 315.69 8.77 1.32 8.77 1.32l.93-319.91z" transform="translate(-.98 -.52)"/><path class="a07a9c38-8ab0-4791-9ea2-415b3fb4d29a" d="m78.72 346.42-8.15-1.3 16.26-218.56 9.04 1.5-17.15 218.36zM329.24 388.85l9.1 1.28 18.49-224.31h-26.37l-.26-90.92-10.06-1.84v94.84l6.04 1.09h20.27l-17.21 219.86z"/><path class="a07a9c38-8ab0-4791-9ea2-415b3fb4d29a" d="M88.49 127.19s-28.17-.35-29.11-.85c0-31.21.06-62.83 0-94l9.36 2.64.48 89.02z" transform="translate(-.98 -.52)"/><g id="bc552821-afdc-4d6d-9fdb-e839da3c5710" data-name="clair"><path class="a07a9c38-8ab0-4791-9ea2-415b3fb4d29a" d="m0 407.14 9.69 3.17L78 346.25l-8.11-1.94L0 407.14zM261.1 454.02l10.28 1.19 66.96-65.87-8.62-1.6-68.62 66.28zM111.56 0 58.42 31.78l9.36 2.64L120.36 3.3l2.74-1.62-2.57-.36L111.56 0zM383.74 40.62l-11.21-.8-52.39 33.24 10.06 1.84 53.54-34.28z"/></g></g><g id="bb5e8b57-a634-4c14-8ff7-9ec25dacbaa1" data-name="side"><path class="bf4218c1-c02e-479a-b5ad-ee01d53066d4" d="m453.13 308.64.63-159.63-70.02-108.39L330.2 74.9l.26 90.92h26.37l-18.49 224.31-66.96 65.08v41.27l24.93 5.28-.93 319.91 8.25-6.32 149.65-543.7-.21 21.51-142.1 516.55-1.61 1.24 6.94-5.32 136.83-496.99zM324.06 799.15l-7.76 6.48 11.99-9.2 124.7-453.24.05-12.13-128.98 468.09zM335.43 790.95l-1.32 1.02 6.87-5.27 111.79-407.64v21.25l.22-57.12-.22 24-117.34 423.76zM343 785.15l108.58-83.28 1.18-299.85L347.4 781.78l-4.4 3.37z"/><path style="fill:#bf0000;stroke-width:.5px;stroke-miterlimit:10;stroke:#b5b5b5" d="m303.63 815.35 5.73-4.4-5.73 4.4z"/><path class="a07a9c38-8ab0-4791-9ea2-415b3fb4d29a" d="m453.07 293.16.21-21.51-149.65 543.7 5.73-4.4 1.61-1.24 142.1-516.55z"/><path class="a75247fc-2a31-43c8-ab6a-a45ca5682929" d="M453.13 330.74v-22.1l-.09 22.42.09-.32zM316.3 805.63z"/><path d="m453.04 331.06.09-22.42L316.3 805.63l7.76-6.48 128.98-468.09z"/><path class="bf1ed64a-8162-4135-b1ae-1db0f83de2f8" d="M452.99 343.19zM328.29 796.43l5.82-4.46-5.82 4.46z"/><path style="fill:#fff" d="m334.11 791.97 1.32-1.02 117.34-423.76.22-24-124.7 453.24 5.82-4.46z"/><path class="bfae7d13-902c-431f-b6a6-f8b8b7e070dc" d="m340.98 786.7 2.02-1.55-2.02 1.55zM452.77 402v-1.69l-.01 1.71.01-.02z"/><path style="fill:#fff100" d="m340.98 786.7 2.02-1.55 4.4-3.37 105.36-379.76.01-1.71v-21.25L340.98 786.7z"/></g><g id="a254b40c-3d03-4111-8b7f-39ca4bfae185" data-name="panel"><path class="aa879a0b-fa3a-45e5-8442-e52797bf7507" d="m10.48 450.07 250.42 44.11.2-40.16L9.69 410.31l.79 39.76z"/><path class="f8f07eac-d9c1-4b14-a70f-74a25b3e68b1" d="m79.37 345.21-69.68 65.1 251.41 43.71 68.62-66.28-250.35-42.53z"/></g><g id="ab918923-795a-4c5f-9776-ca636de19124" data-name="ecran"><path class="aa879a0b-fa3a-45e5-8442-e52797bf7507" d="M96.84 129.36 79.7 347.72l250.52 42.43L347.82 168zm224.28 67.76c0 .2-.29.32-.48.49l-10.43 144.83a35.43 35.43 0 0 1-4.3 3.78l1.4.29v10.7s-1.4 4.75-11.08 2.64c-11.19-2.44-178.55-31.91-178.55-31.91l8.72-6.78v-1.39s-2.46.52-6-7l-12.48 2.77h-4l11.34-158.77s4-6.85 10.81-6.59 191.16 30.59 191.16 30.59 6.17 1.07 3.89 16.35z" transform="translate(-.98 -.52)"/><path d="M317.28 180S133 149.66 126.12 149.4s-10.81 6.6-10.81 6.6l-11.74 160.08h4.35l12.29-2.68c-.1-.23-.74-1.57-.85-1.8L131 166.54s2.11-5.54 7.12-7.38l177.49 27.16a20.77 20.77 0 0 1 5.11 9.76l-.05.75c.19-.17.62.66.66.47 3.23-14.06-4.05-17.3-4.05-17.3z" transform="translate(-.98 -.52)" style="fill:#151312"/><path d="m125.32 320-8.56 8s164.63 29.3 178.61 32.24c10.36 2.17 14.43-3.58 14.43-3.58l.61-7.37.39-7.71-4.89 3.84a20.85 20.85 0 0 1-7.73 3.87z" transform="translate(-.98 -.52)" style="fill:#555353"/><path d="M319.5 197.81c.45-.36.83-.69 1.14-1l.66-.52a20.31 20.31 0 0 0-5.72-10l-177.49-27.13c-5 1.84-7.12 7.38-7.12 7.38L119.36 311.6l.32.66c3.54 7.52 6.28 8 6.28 8l.44.08 171.78 28.93a20.85 20.85 0 0 0 7.73-3.87c2.57-1.91 4.89-3.84 4.89-3.84l10.5-145.29c-.44.46-1.05.96-1.8 1.54zM143.83 302.35z" transform="translate(-.98 -.52)" style="fill:#008aa6"/></g><g id="b4d904e9-17ce-42de-a23c-dd04d2ba47b9" data-name="top"><path id="b3a25696-6005-477f-835c-b694240f4b82" data-name="marquee" class="aa879a0b-fa3a-45e5-8442-e52797bf7507" d="m68.24 123.5 251.47 39.03.43-89.47L67.78 34.42l.46 89.08z"/><path style="stroke-miterlimit:10;stroke:#b5b5b5;fill:#373735" d="m128.84 2.64-5.74-.96-55.32 32.74 252.36 38.64 52.39-33.24L128.84 2.64z"/></g><g id="ab322d45-b044-47cf-ae88-6383170e8b23" data-name="stickp1"><path class="a18d41da-99cb-4a88-ab5d-f2f4bb3fdaa2" d="M68.92 377.27v5.16H62.4v-5.16c-5.06.64-8.77 2.7-8.77 5.16 0 3 5.38 5.35 12 5.35s12-2.39 12-5.35c.06-2.43-3.63-4.52-8.71-5.16z" transform="translate(-.98 -.52)"/><path class="a95b7ba6-97b2-491e-8fa3-592187afc544" d="M68.92 377.27v-17.78a12.18 12.18 0 0 1-3 .39 12.4 12.4 0 0 1-3.48-.49v17.88a26.67 26.67 0 0 1 6.52 0z" transform="translate(-.98 -.52)"/><path class="a95b7ba6-97b2-491e-8fa3-592187afc544" d="M68.92 382.43v-5.16a26.67 26.67 0 0 0-6.52 0v5.16z" transform="translate(-.98 -.52)"/><path class="ff76f4e7-5723-4a99-aff3-5c764288d5a8" d="M68.92 358.89v.6a11.24 11.24 0 0 0 8.77-10.72c0-6.14-5.29-11.11-11.81-11.11s-11.82 5-11.82 11.11a11.22 11.22 0 0 0 8.34 10.62v-.5z" transform="translate(-.98 -.52)"/><path class="a95b7ba6-97b2-491e-8fa3-592187afc544" d="M68.92 359.49v-.6H62.4v.5a12.4 12.4 0 0 0 3.48.49 12.18 12.18 0 0 0 3.04-.39z" transform="translate(-.98 -.52)"/><path class="ff76f4e7-5723-4a99-aff3-5c764288d5a8" d="M68.92 359.49v-.6H62.4v.5a12.4 12.4 0 0 0 3.48.49 12.18 12.18 0 0 0 3.04-.39z" transform="translate(-.98 -.52)"/></g><g id="af74387f-8f99-4406-be4e-34ecd0eaee43" data-name="stickp2"><path class="a18d41da-99cb-4a88-ab5d-f2f4bb3fdaa2" d="M198.88 399.49v5.16h-6.53v-5.16c-5 .64-8.77 2.7-8.77 5.16 0 3 5.39 5.35 12 5.35s12-2.39 12-5.35c.07-2.46-3.64-4.52-8.7-5.16z" transform="translate(-.98 -.52)"/><path class="a95b7ba6-97b2-491e-8fa3-592187afc544" d="M198.88 399.49v-17.78a12.2 12.2 0 0 1-3 .39 12.83 12.83 0 0 1-3.48-.49v17.88a26.75 26.75 0 0 1 6.53 0z" transform="translate(-.98 -.52)"/><path class="a95b7ba6-97b2-491e-8fa3-592187afc544" d="M198.88 404.65v-5.16a26.75 26.75 0 0 0-6.53 0v5.16z" transform="translate(-.98 -.52)"/><path class="adb20e57-19ab-4e4a-849e-79a41f2816d9" d="M198.88 381.11v.6a11.24 11.24 0 0 0 8.77-10.71c0-6.14-5.29-11.11-11.82-11.11S184 364.85 184 371a11.22 11.22 0 0 0 8.34 10.62v-.5z" transform="translate(-.98 -.52)"/><path class="a95b7ba6-97b2-491e-8fa3-592187afc544" d="M198.88 381.71v-.6h-6.53v.5a12.83 12.83 0 0 0 3.48.49 12.2 12.2 0 0 0 3.05-.39z" transform="translate(-.98 -.52)"/><path class="adb20e57-19ab-4e4a-849e-79a41f2816d9" d="M198.88 381.71v-.6h-6.53v.5a12.83 12.83 0 0 0 3.48.49 12.2 12.2 0 0 0 3.05-.39z" transform="translate(-.98 -.52)"/></g><g id="f78809d7-9dc1-48c6-a5bc-9544edf9f5bf" data-name="boutons P1"><g id="b632891e-64b4-4bf9-a3ef-d2ae669ccdf1" data-name="4"><path class="e2e512e3-d7d4-4df3-83bf-7886a0038dc8" d="M92.54 389.14c-3.86 0-8.12 1.53-8.12 4.87 0 2.95 4.1 4.62 7.94 4.62 4.11 0 8-1.73 8-4.88-.04-2.35-3.88-4.61-7.82-4.61zm-.18 8.63c-3.86 0-7-1.74-7-3.89s3.13-3.89 7-3.89 7 1.74 7 3.89-3.14 3.89-7 3.89z" transform="translate(-.98 -.52)"/><path d="M92.36 390c-3.86 0-7 1.74-7 3.89s3.13 3.89 7 3.89 7-1.74 7-3.89-3.14-3.89-7-3.89z" transform="translate(-.98 -.52)" style="fill:url(#b4d1bfbc-b1b9-46d7-9232-feda445159b0)"/></g><g id="a83dc155-9f51-4c66-a1ec-c94dc89d6e5d" data-name="5"><path class="e2e512e3-d7d4-4df3-83bf-7886a0038dc8" d="M114.79 389.14c-3.86 0-8.12 1.53-8.12 4.87 0 2.95 4.1 4.62 7.94 4.62 4.11 0 8-1.73 8-4.88-.04-2.35-3.88-4.61-7.82-4.61zm-.18 8.63c-3.86 0-7-1.74-7-3.89s3.13-3.89 7-3.89 7 1.74 7 3.89-3.14 3.89-7 3.89z" transform="translate(-.98 -.52)"/><path d="M114.61 390c-3.86 0-7 1.74-7 3.89s3.13 3.89 7 3.89 7-1.74 7-3.89-3.14-3.89-7-3.89z" transform="translate(-.98 -.52)" style="fill:url(#b1396927-e698-4257-858a-9246bb3252cb)"/></g><g id="b84fb801-93d7-484f-9985-e924507f8f23" data-name="6"><path class="e2e512e3-d7d4-4df3-83bf-7886a0038dc8" d="M133.35 395.3c-3.86 0-8.13 1.53-8.13 4.87 0 3 4.11 4.62 7.95 4.62 4.1 0 8-1.73 8-4.88-.04-2.35-3.88-4.61-7.82-4.61zm-.18 8.63c-3.86 0-7-1.74-7-3.89s3.13-3.89 7-3.89 7 1.74 7 3.89-3.17 3.89-7 3.89z" transform="translate(-.98 -.52)"/><path d="M133.17 396.15c-3.86 0-7 1.74-7 3.89s3.13 3.89 7 3.89 7-1.74 7-3.89-3.17-3.89-7-3.89z" transform="translate(-.98 -.52)" style="fill:url(#bddc44be-52d3-4600-9337-776ad925de46)"/></g><g id="a4a1d2fb-f279-4aec-b4cd-c2910e49d578" data-name="3"><path class="e2e512e3-d7d4-4df3-83bf-7886a0038dc8" d="M139.39 383c-3.86 0-8.13 1.53-8.13 4.88 0 2.95 4.11 4.61 8 4.61 4.1 0 8-1.73 8-4.88-.09-2.31-3.93-4.61-7.87-4.61zm-.18 8.63c-3.86 0-7-1.74-7-3.89s3.13-3.89 7-3.89 7 1.75 7 3.89-3.14 3.93-7 3.93z" transform="translate(-.98 -.52)"/><path d="M139.21 383.89c-3.86 0-7 1.75-7 3.89s3.13 3.89 7 3.89 7-1.74 7-3.89-3.14-3.89-7-3.89z" transform="translate(-.98 -.52)" style="fill:url(#a3fcf5df-033c-418a-84a1-9588a10f2a63)"/></g><g id="bf5f955e-adc2-46d7-850d-b5a3fb3163df" data-name="2"><path class="e2e512e3-d7d4-4df3-83bf-7886a0038dc8" d="M121.79 377.35c-3.86 0-8.12 1.53-8.12 4.88 0 2.95 4.1 4.61 7.94 4.61 4.11 0 8-1.73 8-4.88-.04-2.34-3.88-4.61-7.82-4.61zm-.18 8.64c-3.86 0-7-1.74-7-3.89s3.13-3.89 7-3.89 7 1.74 7 3.89-3.14 3.9-7 3.9z" transform="translate(-.98 -.52)"/><path d="M121.61 378.21c-3.86 0-7 1.74-7 3.89s3.13 3.89 7 3.89 7-1.74 7-3.89-3.14-3.89-7-3.89z" transform="translate(-.98 -.52)" style="fill:url(#e0090db6-4eb0-4a6e-a206-2b5c716cee05)"/></g><g id="ad12f01b-d795-412a-9a99-30e06812d09f" data-name="1"><path class="e2e512e3-d7d4-4df3-83bf-7886a0038dc8" d="M100.5 377.78c-3.86 0-8.13 1.53-8.13 4.88 0 2.95 4.11 4.62 7.95 4.62 4.1 0 8-1.73 8-4.88-.04-2.35-3.88-4.62-7.82-4.62zm-.18 8.64c-3.86 0-7-1.74-7-3.89s3.13-3.89 7-3.89 7 1.74 7 3.89-3.14 3.89-7 3.89z" transform="translate(-.98 -.52)"/><path d="M100.32 378.64c-3.86 0-7 1.74-7 3.89s3.13 3.89 7 3.89 7-1.74 7-3.89-3.14-3.89-7-3.89z" transform="translate(-.98 -.52)" style="fill:url(#ff0b99ca-42b7-433e-be7c-1a901e9140cf)"/></g></g><g id="b6f30d84-c01c-45e6-b477-c0c3529dea9e" data-name="boutons P2"><g id="ae69ae99-2350-4473-9adb-6a5ca8da49f2" data-name="1"><path class="f4be7fce-f356-4ef4-b1f0-03cb57c2362a" d="M225.69 399.93c-3.86 0-8.13 1.53-8.13 4.87 0 2.95 4.11 4.62 7.95 4.62 4.1 0 8-1.73 8-4.88-.04-2.35-3.88-4.61-7.82-4.61zm-.18 8.63c-3.86 0-7-1.74-7-3.89s3.13-3.89 7-3.89 7 1.74 7 3.89-3.14 3.89-7 3.89z" transform="translate(-.98 -.52)"/><path d="M225.51 400.78c-3.86 0-7 1.74-7 3.89s3.13 3.89 7 3.89 7-1.74 7-3.89-3.14-3.89-7-3.89z" transform="translate(-.98 -.52)" style="fill:url(#ee247ffd-353e-4224-97b1-5ae3bedd5125)"/></g><g id="a99eefdd-7756-41b5-907d-8aa8f5ac9a4a" data-name="2"><path class="f4be7fce-f356-4ef4-b1f0-03cb57c2362a" d="M247 399.49c-3.86 0-8.13 1.54-8.13 4.88 0 2.95 4.11 4.62 7.95 4.62 4.1 0 8-1.73 8-4.88-.07-2.35-3.91-4.62-7.82-4.62zm-.18 8.64c-3.86 0-7-1.74-7-3.89s3.13-3.89 7-3.89 7 1.74 7 3.89-3.17 3.89-7.03 3.89z" transform="translate(-.98 -.52)"/><path d="M246.79 400.35c-3.86 0-7 1.74-7 3.89s3.13 3.89 7 3.89 7-1.74 7-3.89-3.14-3.89-7-3.89z" transform="translate(-.98 -.52)" style="fill:url(#b7ec4228-7db2-46cd-8896-a937a840f29d)"/></g><g id="e0eeb983-d134-4d2b-a6cd-2453c52e9c54" data-name="3"><path class="f4be7fce-f356-4ef4-b1f0-03cb57c2362a" d="M264.58 405.18c-3.86 0-8.12 1.53-8.12 4.88 0 2.95 4.1 4.61 7.94 4.61 4.1 0 8-1.73 8-4.88-.04-2.35-3.88-4.61-7.82-4.61zm-.18 8.64c-3.86 0-7-1.75-7-3.89s3.13-3.89 7-3.89 7 1.74 7 3.89-3.14 3.89-7 3.89z" transform="translate(-.98 -.52)"/><path d="M264.4 406c-3.86 0-7 1.74-7 3.89s3.13 3.89 7 3.89 7-1.75 7-3.89-3.14-3.89-7-3.89z" transform="translate(-.98 -.52)" style="fill:url(#b84c5b24-a801-4a2f-8be6-20fe83fc5b2d)"/></g><g id="b330f301-7b2b-49ba-be63-648823119660" data-name="4"><path class="f4be7fce-f356-4ef4-b1f0-03cb57c2362a" d="M258.54 417.44c-3.86 0-8.13 1.53-8.13 4.88 0 2.95 4.11 4.61 8 4.61 4.1 0 8-1.73 8-4.88-.09-2.35-3.93-4.61-7.87-4.61zm-.18 8.64c-3.86 0-7-1.75-7-3.89s3.13-3.89 7-3.89 7 1.74 7 3.89-3.14 3.89-7 3.89z" transform="translate(-.98 -.52)"/><path d="M258.36 418.3c-3.86 0-7 1.74-7 3.89s3.13 3.89 7 3.89 7-1.75 7-3.89-3.14-3.89-7-3.89z" transform="translate(-.98 -.52)" style="fill:url(#f48d9d82-7b0e-4ca4-bb39-e1b6f2ac19d2)"/></g><g id="f7eb1234-4772-4799-a44f-f380bdef7778" data-name="5"><path class="f4be7fce-f356-4ef4-b1f0-03cb57c2362a" d="M240 411.28c-3.86 0-8.13 1.53-8.13 4.88 0 2.95 4.11 4.61 7.95 4.61 4.1 0 8-1.73 8-4.88-.07-2.35-3.91-4.61-7.82-4.61zm-.18 8.63c-3.86 0-7-1.74-7-3.89s3.13-3.89 7-3.89 7 1.75 7 3.89-3.17 3.89-7.03 3.89z" transform="translate(-.98 -.52)"/><path d="M239.79 412.13c-3.86 0-7 1.75-7 3.89s3.13 3.89 7 3.89 7-1.74 7-3.89-3.14-3.89-7-3.89z" transform="translate(-.98 -.52)" style="fill:url(#bba58eaa-38be-46ca-a30f-d3ed1b986ec1)"/></g><g id="ae5dcfdc-dad0-4073-bda4-bdf346deb432" data-name="6"><path class="f4be7fce-f356-4ef4-b1f0-03cb57c2362a" d="M217.73 411.28c-3.86 0-8.13 1.53-8.13 4.88 0 2.95 4.11 4.61 8 4.61 4.1 0 8-1.73 8-4.88-.09-2.35-3.93-4.61-7.87-4.61zm-.18 8.63c-3.86 0-7-1.74-7-3.89s3.13-3.89 7-3.89 7 1.75 7 3.89-3.14 3.89-7 3.89z" transform="translate(-.98 -.52)"/><path d="M217.55 412.13c-3.86 0-7 1.75-7 3.89s3.13 3.89 7 3.89 7-1.74 7-3.89-3.14-3.89-7-3.89z" transform="translate(-.98 -.52)" style="fill:url(#b42e6732-1400-4fc1-8355-75578e61646f)"/></g></g><path class="bf3b3ee0-6e66-4ca3-83c9-c1e9e4d9c69b" d="M228.57 237.19v.07l-5.92-1v-.08zM236.56 238.53a.13.13 0 0 0 0 .06l-5.72-1v-.06z" transform="translate(-.98 -.52)"/><path class="fb83a9d5-177a-4aa4-a7a1-d0b80244057c" d="m210.17 273.38-65.56-11c-.87-.14-.87-.14-.74-.92.25-1.54.47-3.08.75-4.61.78-4.31 1.48-8.63 2.22-12.95.09-.48.22-1 .29-1.44 0-.18.12-.23.31-.19l.75.13 119.31 19.98a16.13 16.13 0 0 1 4.69 1.42 11.54 11.54 0 0 1 5.67 5.9 8.36 8.36 0 0 1 .63 3.88c0 .38-.08.76-.15 1.14l-1.56 9.36c-.07.39-.13.42-.54.36l-40.11-6.72zm14.68-7.7c-.4 2.35-.79 4.71-1.19 7.07 0 .23 0 .34.3.38 1 .15 1.95.32 2.93.49.51.09.51.09.59-.37q.69-4.22 1.4-8.43c0-.08 0-.21.12-.22s.13.1.17.17c1.69 3.14 3.43 6.26 5.06 9.42a2.38 2.38 0 0 0 3.55.6c.9-.94 1.91-1.79 2.87-2.68l4.89-4.53c.08-.07.15-.22.26-.17s0 .2 0 .31v.12c-.47 2.79-.93 5.58-1.4 8.37 0 .25 0 .35.31.4 1 .16 2 .32 3.06.51.34.07.45 0 .49-.32l2.32-13.83a1.32 1.32 0 0 0-.25-1 2.34 2.34 0 0 0-3.26-.37l-2.16 2-8.12 7.4c-.25.23-.28.22-.45-.08-2.2-4.06-4.42-8.11-6.61-12.17a2.14 2.14 0 0 0-1.43-1.06A1.74 1.74 0 0 0 226 259zm-4.51-.71c.38-2.31.76-4.61 1.16-6.92a1.32 1.32 0 0 0-.45-1.21 2.4 2.4 0 0 0-3.17 0c-2.39 2.24-4.82 4.43-7.24 6.63l-2.95 2.7c-.13.12-.23.25-.37 0l-3.44-6.31c-1.1-2-2.19-4-3.3-6a2.24 2.24 0 0 0-2.21-1 1.52 1.52 0 0 0-1.5 1.37q-1.16 6.86-2.3 13.71c0 .28.05.37.35.41 1 .15 2 .32 3 .5.44.07.45.08.51-.3.46-2.73.91-5.46 1.37-8.19 0-.13 0-.27.06-.4s0-.16.11-.17.1.08.13.14.18.34.28.51c1.63 3 3.29 6 4.88 9.07a2.34 2.34 0 0 0 3.35.6c.47-.47 1-.91 1.48-1.37l6.5-6c.06-.05.09-.14.19-.11s.07.14.06.22c-.14.81-.28 1.62-.41 2.44-.35 2.06-.69 4.13-1 6.2 0 .22 0 .32.29.36l3 .5c.44.07.45.07.52-.31q.51-3.6 1.1-7.04zm33.15 5.67c-.38 2.28-.76 4.57-1.15 6.85-.06.31.06.41.38.45 1 .16 2 .32 3 .5.33.07.45 0 .5-.31.16-1 .35-2.08.51-3.12 0-.23.12-.33.4-.28l12.77 2.14c.33.05.39.18.34.45-.18 1-.34 2.08-.53 3.12-.05.25 0 .35.32.4 1 .15 2 .32 3 .49.45.07.46.07.53-.34l1.22-7.32a6.88 6.88 0 0 0-2.51-6.52 12.61 12.61 0 0 0-6.36-3c-2.38-.41-4.76-.8-7.13-1.19-.72-.12-1.45-.26-2.17-.35a1.6 1.6 0 0 0-1.91 1.29c-.46 2.27-.83 4.5-1.21 6.74zm-62.24-10.42 1.14-6.79a1.24 1.24 0 0 0 0-.47 1.91 1.91 0 0 0-1.63-1.33c-1.55-.26-3.1-.53-4.65-.77-1.84-.3-3.66-.71-5.51-.87a11.55 11.55 0 0 0-7 1.39 6.55 6.55 0 0 0-3.37 4.67q-.63 3.74-1.25 7.47c-.07.4-.07.4.36.47 1 .17 2 .32 2.93.5.33.06.45 0 .5-.31.15-1 .34-2.06.5-3.09 0-.29.17-.35.48-.3l12.67 2.12c.34 0 .42.16.37.46-.19 1-.35 2.08-.54 3.11 0 .26 0 .36.32.4 1 .16 2 .32 3 .51.33.06.44 0 .49-.32.42-2.28.81-4.57 1.19-6.85zm-38.3 1 6.47 1.08a7.76 7.76 0 0 0 2.76 0 3.93 3.93 0 0 0 3.34-2.92c.64-3.78 1.26-7.55 1.9-11.33.05-.27 0-.37-.33-.42-1-.15-2-.32-3-.5-.36-.07-.46 0-.51.33q-.92 5.58-1.86 11.15a1.08 1.08 0 0 1-1.24.95 4.41 4.41 0 0 1-.73-.08c-1-.18-2-.37-3.06-.54l-7-1.15c-.28-.05-.35-.15-.31-.38.11-.59.19-1.18.31-1.76.06-.28 0-.4-.35-.45-.84-.13-1.68-.26-2.52-.42-.34-.07-.44 0-.49.32-.24 1.49-.49 3-.74 4.45-.07.42-.07.42.42.5zM230.83 237.63l5.72 1c.15.09.15.2.13.35-.37 2.17-.73 4.34-1.11 6.51 0 .29 0 .38.34.43 3.09.5 6.18 1 9.27 1.54.32.05.34.16.31.44-.06.67-.23 1.33-.32 2-.22 1.55-.54 3.09-.8 4.63-.1.59-.17 1.19-.26 1.78 0 .2-.12.31-.4.26L228.57 254c-.65-.11-.65-.11-.56-.68q1.29-7.69 2.57-15.38c.02-.15.02-.31.25-.31zm3.94 12.7c-.13.78-.25 1.56-.39 2.34-.05.27 0 .38.33.43 1.06.16 2.11.34 3.16.53.32.06.44 0 .49-.31.25-1.55.51-3.1.78-4.66 0-.24 0-.34-.31-.38q-1.62-.25-3.24-.54c-.28-.05-.39 0-.43.27-.16.78-.26 1.55-.39 2.32zM255.63 249.17c2.55.43 5.09.86 7.64 1.27.34.06.42.17.37.47q-.7 4.14-1.39 8.3c-.07.37-.1.4-.52.33L246.38 257c-.27-.05-.34-.16-.3-.39q.72-4.21 1.41-8.43c0-.28.18-.33.47-.28 2.55.44 5.11.86 7.67 1.29zm1.31 4.88c.14-.8.27-1.6.41-2.4 0-.23 0-.36-.3-.4l-3.44-.58c-.26 0-.38 0-.42.27l-.81 4.85c0 .25.05.36.33.41l3.37.56c.3.06.42 0 .46-.3.13-.8.27-1.6.4-2.41zM173.53 244.78l-7.64-1.27c-.31 0-.37-.15-.33-.42q.72-4.2 1.42-8.42c0-.25.13-.32.4-.27l15.36 2.6c.41.07.43.11.37.49-.26 1.55-.53 3.11-.78 4.66 0 .31-.17.37-.5.32-3.07-.53-6.15-1-9.22-1.55-.46-.08-.46-.08-.52.32s-.11.7-.19 1 0 .35.31.4c2.06.33 4.11.68 6.17 1l3.16.53c.32.05.42.17.37.44s-.14.74-.19 1.11-.18.38-.51.32zm.92-5.45c.56.1 1.13.18 1.69.29.25 0 .35 0 .38-.25 0-.39.12-.78.2-1.17 0-.21 0-.32-.26-.36l-3.41-.57c-.22 0-.33 0-.36.23q-.08.62-.18 1.23c0 .23.06.3.29.33.55.07 1.1.17 1.65.27zM211.28 241.75l7.64 1.28c.44.07.5.14.42.52-.43 2-.7 4-1.05 6-.14.74-.27 1.48-.37 2.23 0 .29-.15.37-.49.31-2.08-.36-4.17-.7-6.26-1l-9-1.51c-.42-.07-.43-.08-.37-.47.26-1.56.53-3.11.77-4.67 0-.32.18-.37.52-.31l9.16 1.54c.46.07.46.07.53-.33s.09-.67.17-1 0-.4-.36-.46c-2.34-.37-4.68-.77-7-1.16l-2.31-.38c-.24 0-.32-.12-.28-.34a10.85 10.85 0 0 0 .21-1.27c0-.27.16-.31.43-.26l5.37.9 2.27.38zm-1.15 7.25c.55.09 1.11.17 1.66.27.21 0 .33 0 .36-.21l.21-1.23c0-.19-.05-.29-.27-.33l-3.33-.56c-.24 0-.35 0-.38.24 0 .4-.11.79-.19 1.17-.05.23.05.33.29.37.52.07 1.1.17 1.65.28zM268.74 251.36c.87.15 1.74.31 2.62.44.31 0 .38.18.34.43-.08.4-.13.8-.21 1.2 0 .21 0 .3.27.34l3.36.56c.28 0 .38 0 .41-.27.06-.41.15-.82.2-1.23 0-.23.15-.27.37-.24l5.4.91c.21 0 .3.13.27.33-.08.43-.16.86-.22 1.29 0 .23-.16.29-.41.25-.44-.09-.89-.15-1.34-.24-.24 0-.33 0-.36.24-.05.4-.13.8-.19 1.2 0 .23-.15.3-.4.25-.47-.08-.94-.15-1.41-.24-.17 0-.24 0-.29.17-.13.44-.08.91-.25 1.34-.07.18.07.24.24.27l1.38.22c.28 0 .38.15.33.41s-.13.78-.21 1.17c0 .21.05.31.28.34l1.34.22c.25 0 .34.13.3.36-.09.42-.17.84-.22 1.27 0 .22-.15.27-.36.24l-.65-.11-4.62-.77c-.45-.08-.45-.08-.38-.49s.12-.76.19-1.14c.05-.21 0-.3-.27-.34l-3.44-.58c-.22 0-.29 0-.31.21-.06.4-.16.8-.19 1.21s-.19.37-.5.32l-4.72-.8c-1.16-.19-.93-.1-.8-1 0-.25.09-.49.12-.74s.16-.29.4-.25c.45.09.9.15 1.34.24.27.05.39 0 .42-.26s.14-.78.19-1.17.16-.31.41-.26c.46.09.92.15 1.37.24.21 0 .3 0 .32-.2.06-.43.13-.85.22-1.27 0-.21-.05-.28-.26-.31l-1.38-.23c-.24 0-.34-.12-.29-.36s.14-.78.21-1.17c0-.23 0-.35-.31-.38-.45-.06-.9-.15-1.35-.22-.25 0-.34-.14-.29-.37q.12-.63.21-1.26c0-.24.16-.29.4-.24zM222.64 236.28l5.92 1a.42.42 0 0 1 .05.36q-1.31 7.77-2.6 15.56c0 .28-.17.37-.48.31s-.88-.19-1.33-.26l-3.89-.62c-.46-.08-.45-.08-.39-.49q1.31-7.74 2.6-15.49c.02-.14 0-.28.12-.37zM191.71 247.82l-7.71-1.28c-.3 0-.4-.14-.35-.43q.72-4.2 1.41-8.4c0-.26.15-.32.42-.27l15.39 2.56c.31.05.42.18.36.45s-.11.72-.19 1.08-.13.41-.55.34l-4.16-.7-5.06-.85c-.28 0-.37 0-.41.25-.22 1.39-.46 2.78-.69 4.17a2.74 2.74 0 0 1 0 .28c-.11.6-.11.6.58.72l8.92 1.49c.42.07.45.11.39.5s-.15.72-.18 1.08-.19.35-.48.3c-.56-.11-1.12-.2-1.68-.29z" transform="translate(-.98 -.52)"/><path d="M291.07 282.1c-.25 1.47-.49 2.94-.74 4.41-.07.42-.07.42-.51.34l-4.27-.71c-.27 0-.37-.13-.3-.37s.07-.41.11-.62-.06-.27-.25-.29l-.49-.05c-.39-.06-.49 0-.51.37v.19c0 .43-.14.5-.63.42-1.39-.23-2.79-.47-4.19-.69-.32-.05-.4-.19-.36-.45.5-3 1-5.91 1.49-8.86.06-.36.14-.42.55-.33 2.95.58 5.92 1 8.87 1.52.52.09 1 .13 1.55.22s.47.1.4.52c-.24 1.46-.49 2.92-.73 4.38zm-8.37-.17 1.58.27c.22 0 .32 0 .35-.22.1-.59.2-1.19.31-1.79 0-.21-.06-.3-.29-.34l-3.13-.52c-.21 0-.31 0-.35.22-.08.59-.18 1.19-.29 1.79 0 .21 0 .31.27.34zm5.47-1.49c-.52-.08-1-.16-1.55-.26-.25-.05-.36 0-.39.24-.09.59-.19 1.19-.29 1.78-.05.23.05.29.28.33 1 .16 2 .33 3 .51.28.05.39 0 .43-.27.08-.56.17-1.13.28-1.69 0-.23 0-.35-.3-.39-.48-.08-.97-.17-1.46-.25z" transform="translate(-.98 -.52)" style="fill:#2785db"/><path d="M292.87 271.31c-.25 1.48-.5 3-.74 4.44-.07.38-.11.4-.52.34l-2.86-.48c-.41-.07-.49-.18-.43-.54.14-.85.28-1.71.43-2.56a.34.34 0 0 1 0-.1c.2-.63.12-.52.72-.43l1.48.25c.26 0 .4 0 .44-.25.09-.59.19-1.18.29-1.76 0-.21 0-.33-.3-.38l-8-1.34c-.26 0-.39.05-.42.28-.09.57-.19 1.14-.28 1.7 0 .23.05.36.31.41l3.06.52a.25.25 0 0 0 .33-.17 1.81 1.81 0 0 0 .12-.64c0-.19.11-.24.27-.29a.45.45 0 0 1 .2 0c.85.09.89.14.77.88-.21 1.26-.43 2.51-.63 3.77 0 .26-.17.34-.43.3l-5.43-.91c-.49-.08-.55-.15-.48-.58.49-3 1-5.91 1.48-8.87 0-.17.09-.23.28-.22s.55 0 .83.08l9.77 1.63c.55.09.55.1.47.6l-.72 4.32z" transform="translate(-.98 -.52)" style="fill:#44c047"/><path d="M289.84 254.78c1.75.29 3.49.59 5.24.87.3 0 .4.13.35.42-.51 3-1 5.95-1.49 8.92-.05.3-.16.38-.49.32-1.4-.25-2.8-.48-4.2-.71-.36-.06-.42-.15-.36-.47 0-.12.06-.23.08-.34.08-.47.08-.47-.46-.56h-.21c-.5-.08-.51-.08-.54.39 0 .18-.1.34-.11.52s-.18.19-.35.16l-4.44-.74c-.23 0-.32-.15-.29-.35.17-1 .35-2 .51-3.06 0-.28.23-.27.45-.23l1.83.3c.8.15 1.61.24 2.4.44.25.06.44 0 .48-.27.07-.57.17-1.14.28-1.7.05-.27 0-.38-.34-.43-1.42-.22-2.83-.47-4.24-.7-.29 0-.4-.12-.35-.4.18-1 .33-2 .48-3 0-.26.15-.33.44-.28 1.77.31 3.55.6 5.33.9zm1.49 6.43c.51.08 1 .16 1.54.26.22 0 .35 0 .39-.21.09-.61.19-1.22.3-1.82 0-.2 0-.32-.27-.35l-3.09-.52c-.22 0-.32 0-.35.21-.09.63-.2 1.25-.31 1.88 0 .18 0 .26.24.29z" transform="translate(-.98 -.52)" style="fill:#eb1416"/><path class="fb83a9d5-177a-4aa4-a7a1-d0b80244057c" d="m156.94 232.66 7.54 1.26c.53.09.53.09.45.57s-.13.7-.17 1-.16.33-.44.28l-9.3-1.57c-.33-.05-.41 0-.45.3-.35 2.17-.72 4.33-1.07 6.49-.05.31-.2.36-.51.31l-5.19-.87c-.3 0-.4-.14-.35-.42q.72-4.19 1.4-8.39c.05-.31.19-.34.48-.29z" transform="translate(-.98 -.52)"/><path class="bf3b3ee0-6e66-4ca3-83c9-c1e9e4d9c69b" d="M224.85 265.68 226 259a1.74 1.74 0 0 1 2.34-1.33 2.14 2.14 0 0 1 1.43 1.06c2.19 4.06 4.41 8.11 6.61 12.17.17.3.2.31.45.08l8.14-7.43 2.16-2a2.34 2.34 0 0 1 3.26.37 1.32 1.32 0 0 1 .25 1q-1.17 6.91-2.32 13.83c0 .29-.15.39-.49.32-1-.19-2-.35-3.06-.51-.3-.05-.36-.15-.31-.4.47-2.79.93-5.58 1.4-8.37v-.12c0-.04.11-.25 0-.31s-.18.1-.26.17l-4.89 4.53c-1 .89-2 1.74-2.87 2.68a2.38 2.38 0 0 1-3.55-.6c-1.63-3.16-3.37-6.28-5.06-9.42 0-.07-.06-.19-.17-.17s-.11.14-.12.22l-1.4 8.43c-.08.46-.08.46-.59.37-1-.17-1.95-.34-2.93-.49-.28 0-.34-.15-.3-.38.4-2.36.79-4.72 1.19-7.07zM220.34 265q-.59 3.46-1.16 6.95c-.07.38-.08.38-.52.31l-3-.5c-.27 0-.32-.14-.29-.36.36-2.07.7-4.14 1-6.2.13-.82.27-1.63.41-2.44 0-.08.06-.18-.06-.22s-.13.06-.19.11l-6.5 6c-.5.46-1 .9-1.48 1.37a2.34 2.34 0 0 1-3.35-.6c-1.59-3-3.25-6.05-4.88-9.07-.1-.17-.19-.34-.28-.51s-.05-.14-.13-.14-.1.1-.11.17 0 .27-.06.4c-.46 2.73-.91 5.46-1.37 8.19-.06.38-.07.37-.51.3-1-.18-2-.35-3-.5-.3 0-.4-.13-.35-.41q1.16-6.86 2.3-13.71a1.52 1.52 0 0 1 1.5-1.37 2.24 2.24 0 0 1 2.21 1c1.11 2 2.2 4 3.3 6l3.44 6.31c.14.27.24.14.37 0l2.95-2.7c2.42-2.2 4.85-4.39 7.24-6.63a2.4 2.4 0 0 1 3.17 0 1.32 1.32 0 0 1 .45 1.21c-.4 2.31-.78 4.61-1.16 6.92zM253.49 270.64c.38-2.24.75-4.47 1.13-6.7a1.6 1.6 0 0 1 1.91-1.29c.72.09 1.45.23 2.17.35 2.37.39 4.75.78 7.13 1.19a12.61 12.61 0 0 1 6.36 3 6.88 6.88 0 0 1 2.51 6.52q-.6 3.66-1.22 7.32c-.07.41-.08.41-.53.34-1-.17-2-.34-3-.49-.29 0-.37-.15-.32-.4.19-1 .35-2.08.53-3.12.05-.27 0-.4-.34-.45l-12.77-2.14c-.28-.05-.36 0-.4.28-.16 1-.35 2.08-.51 3.12-.05.3-.17.38-.5.31-1-.18-2-.34-3-.5-.32 0-.44-.14-.38-.45.39-2.28.77-4.57 1.15-6.85zM264 273l6.37 1.07c.3 0 .43 0 .46-.28s.08-.52.12-.78a4.27 4.27 0 0 0-1.54-4.2 8.48 8.48 0 0 0-4-1.85c-2.25-.43-4.52-.78-6.77-1.17-.34-.06-.36.12-.4.33q-.44 2.69-.9 5.37c0 .29 0 .4.36.46zM191.25 260.22c-.38 2.28-.77 4.57-1.14 6.85-.05.3-.16.38-.49.32-1-.19-2-.35-3-.51-.29 0-.36-.14-.32-.4.19-1 .35-2.08.54-3.11.05-.3 0-.41-.37-.46l-12.67-2.12c-.31-.05-.44 0-.48.3-.16 1-.35 2.05-.5 3.09 0 .3-.17.37-.5.31-1-.18-1.95-.33-2.93-.5-.43-.07-.43-.07-.36-.47q.62-3.74 1.25-7.47a6.55 6.55 0 0 1 3.37-4.67 11.55 11.55 0 0 1 7-1.39c1.85.16 3.67.57 5.51.87 1.55.24 3.1.51 4.65.77a1.91 1.91 0 0 1 1.59 1.37 1.24 1.24 0 0 1 0 .47l-1.14 6.79zm-10.67-1.14c2.11.35 4.22.7 6.33 1.07.32.05.44 0 .48-.29.3-1.81.6-3.63.91-5.44 0-.26 0-.37-.33-.42q-3-.48-6-1a11.11 11.11 0 0 0-3.77 0 4.85 4.85 0 0 0-3.81 2.54 7.49 7.49 0 0 0-.52 2c-.07.4-.07.41.4.48zM153 261.25l-7-1.17c-.49-.08-.49-.08-.42-.5.25-1.48.5-3 .74-4.45.05-.28.15-.39.49-.32.84.16 1.68.29 2.52.42.31.05.41.17.35.45-.12.58-.2 1.17-.31 1.76 0 .23 0 .33.31.38l7 1.15c1 .17 2 .36 3.06.54a4.41 4.41 0 0 0 .73.08 1.08 1.08 0 0 0 1.24-.95q.94-5.58 1.86-11.15c0-.3.15-.4.51-.33 1 .18 2 .35 3 .5.3.05.38.15.33.42-.64 3.78-1.26 7.55-1.9 11.33a3.93 3.93 0 0 1-3.34 2.92 7.76 7.76 0 0 1-2.76 0l-6.41-1.08z" transform="translate(-.98 -.52)"/><path class="fb83a9d5-177a-4aa4-a7a1-d0b80244057c" d="m264 273-6.33-1c-.34-.06-.41-.17-.36-.46q.47-2.68.9-5.37c0-.21.06-.39.4-.33 2.25.39 4.52.74 6.77 1.17a8.48 8.48 0 0 1 4 1.85 4.27 4.27 0 0 1 1.54 4.2c0 .26-.1.52-.12.78s-.16.33-.46.28zM180.58 259.08l-6.3-1.06c-.47-.07-.47-.08-.4-.48a7.49 7.49 0 0 1 .52-2 4.85 4.85 0 0 1 3.81-2.54 11.11 11.11 0 0 1 3.77 0q3 .51 6 1c.31.05.38.16.33.42-.31 1.81-.61 3.63-.91 5.44 0 .29-.16.34-.48.29-2.11-.37-4.22-.72-6.33-1.07z" transform="translate(-.98 -.52)"/></g><g id="a4cb6943-9840-4074-b74d-ed3e467dd8be" data-name="fd385c04-91a8-4ea1-a9f8-78ed2dbaf834"><path class="ed69b1ac-e996-48e0-bd89-eb4a4d7112b8" d="M81.83 81.26c.39-18.9 11.6-32.28 25.07-29.91 13.26 2.34 23.87 19.1 23.87 37.82-.07 16.41-9.05 33-24.82 30.4S81.48 97.62 81.83 81.26z" transform="translate(-.98 -.52)"/><path d="M130 89c-.13 18.49-10.92 31.78-24 29.65S82.42 99.9 82.58 81.53s10.83-31.6 23.89-29.61h.08c13 2 23.56 18.45 23.45 36.84z" transform="translate(-.98 -.52)" style="fill:#ff0"/><path d="m92.24 62.37 26.49 4.06 1.27-2.38v2.19l-.21 29.69c0 7.34-2.32 12.74-6.31 16.62-4.41 4.29-9.23 4.09-14.06-.6-5.63-5.47-9-12.53-8.79-22.24.26-10 .2-20 .28-30z" transform="translate(-.98 -.52)"/><path d="M105.57 75.72a5.94 5.94 0 0 1-1.31 4.76 1.73 1.73 0 0 0-.09 2.39 7.56 7.56 0 0 1 1.11 5.13c0 .61-.17 1.53.64 1.55.65 0 .51-.82.51-1.32a7.08 7.08 0 0 1 1.14-4.85c.64-.82.29-1.61-.11-2.52-1.84-4-1.57-9 .66-12a5.74 5.74 0 0 1 8.58-.87 7.1 7.1 0 0 1 2.3 4.16 23.17 23.17 0 0 1 0 10.74c-2 7.24-8.6 11.9-14.46 10.25C98.8 91.55 93 83.09 92.11 75.27c-.6-5.61 1.07-9.7 4.31-10.61 3.81-1.06 7.17 1.37 8.77 6.24a16.84 16.84 0 0 1 .38 4.82z" transform="translate(-.98 -.52)" style="fill:#fefefe"/><path d="m111.68 105.91-2.37 2.9-2.4-3.66z" transform="translate(-.98 -.52)" style="fill:#f4f4f4"/><path class="b2d353fd-e2d1-455a-bccd-f79fd7e9f98f" d="m103.21 100.34 4.75.75-2.33 3zm-3.51 3.53 4.66.74-2.27 2.92zM110 101.41l4.63.73-2.32 3z" transform="translate(-.98 -.52)"/><path d="m113.6 96.54 1.2.16 3.57.54-2.37 3.18z" transform="translate(-.98 -.52)" style="fill:#f1f1f1"/><path d="m108.3 109.93-2.3 2.77-2.47-3.5z" transform="translate(-.98 -.52)" style="fill:#ededed"/><path class="b864c0c6-b74a-4805-b11a-da4391ab90a4" d="m111.64 96.31-2.56 2.58-2.4-3.36z" transform="translate(-.98 -.52)"/><path d="m96.75 99.28 4.58.72-2.21 3z" transform="translate(-.98 -.52)" style="fill:#fcfcfc"/><path d="m93.4 93.34 1.13.14 3.57.52-2.32 3.2z" transform="translate(-.98 -.52)" style="fill:#fbfbfb"/><path class="b864c0c6-b74a-4805-b11a-da4391ab90a4" d="m100.3 94.53 4.65.73-2.27 2.88z" transform="translate(-.98 -.52)"/><path d="M118 77.25c-.13 3.92-2.51 6.63-5.31 6s-4.79-3.94-4.83-7.72c.14-3.91 2.51-6.61 5.31-6s4.83 3.94 4.83 7.72z" transform="translate(-.98 -.52)" style="fill:#080808"/><path class="ed69b1ac-e996-48e0-bd89-eb4a4d7112b8" d="M103.64 75.05c0 3.87-2.21 6.7-5 6.32h-.14c-2.78-.44-5-4-5-7.86s2.31-6.73 5.09-6.3 5.08 3.93 5.05 7.84z" transform="translate(-.98 -.52)"/><path d="M112.88 82.3c-2.31-.41-4.14-3.36-4.08-6.61s2-5.54 4.28-5.14 4.14 3.35 4.09 6.6v.09c-.17 3.17-2.01 5.4-4.29 5.06z" transform="translate(-.98 -.52)" style="fill:#f3f3f3"/><path class="b2d353fd-e2d1-455a-bccd-f79fd7e9f98f" d="M94.47 73.57c0-3.23 2-5.53 4.26-5.13s4.12 3.34 4.07 6.58-1.91 5.47-4.17 5.15-4.18-3.29-4.16-6.55z" transform="translate(-.98 -.52)"/><path d="M116.15 76.8c-.07 2.45-1.51 4.18-3.26 3.91s-3.09-2.7-3-5.14 1.46-4 3.12-3.76 3.15 2.53 3.14 4.99z" transform="translate(-.98 -.52)" style="fill:#010101"/><path d="M101.69 74.72c0 2.46-1.47 4.22-3.21 3.94s-3.14-2.5-3.11-5 1.46-4.21 3.21-3.93c1.71.26 3.09 2.44 3.08 4.86z" transform="translate(-.98 -.52)" style="fill:#020202"/><path d="m139.89 95.94.18-29 7.41 1.06c2.19 6.87 5.37 16.22 6.24 20h.1c-.22-3.06-.24-8.2-.21-12.84v-6.18l5.66.86-.12 29.16-7.1-1.11c-1.77-5.55-5.53-17.06-6.5-21h-.09c.19 2.76.17 8.38.14 13.5v6.53zm23-27.08 6 .92v5.75l-6-.93zm0 8.46 6 .92-.12 22.22-6-.95zm24.82 18.38c-.5 3.94-2.43 7.88-8 7s-8.2-6.42-8.17-12.74c0-6.66 3.1-11.36 8.5-10.53 6.13.94 7.65 6.83 7.74 9.53l-5.78-.89c-.16-1.59-.65-2.93-2-3.14-1.52-.23-2.3 1.61-2.32 5.68 0 4.58.81 6.39 2.23 6.62 1.23.19 1.77-1 2-2.45zm8.58-21.7v10.84a4.35 4.35 0 0 1 4.63-2.17c3.37.52 5.36 3.73 5.34 9.25l-.06 14.45-6.06-1 .06-13.47c0-2.23-.5-3.41-1.85-3.62-1.83-.28-2.08 1.62-2.1 4.35v12.12l-6.07-1 .04-30.75zm13.44 2 6.1.93v5.78l-6.1-.93zm0 8.51 6.1.94-.08 22.37-6.11-1zm9.61-7 6.12.93v10.52a4.17 4.17 0 0 1 4.51-1.83c4.09.63 6.6 5.49 6.57 12.33s-2.64 11.77-7.19 11.06a4.92 4.92 0 0 1-4-3 13.38 13.38 0 0 1-.16 1.8l-5.91-.93c0-2.3.05-4.79.06-7.16zm10.88 21.19c0-3.56-.69-5.8-2.51-6.08s-2.57 1.43-2.59 5.6c0 3.5.5 5.92 2.5 6.23 1.76.27 2.59-1.91 2.6-5.75zm25 8.12v7.19l-6.06-1c-.07-.8-.11-1.6-.12-2.39a3.91 3.91 0 0 1-4.59 2.21c-3.55-.56-5.43-3.78-5.41-9.09V89l6.14 1v13.35c0 2.05.42 3.55 1.81 3.76s2-.79 2-4.11V90.59l6.17 1zm2.62-14.89 2.42.37v-5.83l6.12.94v5.83l2.92.45v5.64l-2.92-.45v9.66c0 1.39.32 2 1.62 2.17a6.15 6.15 0 0 0 .87.09v5.2a10 10 0 0 1-3.62 0c-3.93-.62-5-3.39-5-7.64V98l-2.36-.37zm18.6 18.44A2.93 2.93 0 0 0 279 113c1.23.19 1.76-.23 1.77-1.27s-.74-1.62-2.94-2.61c-5.73-2.63-6.57-5.32-6.57-8.5s1.72-6.9 7.43-6a8.42 8.42 0 0 1 7.57 8.11l-5.58-.86a2.43 2.43 0 0 0-2.17-2.27c-1.12-.17-1.52.39-1.52 1.15s.55 1.35 3.26 2.59c5.33 2.44 6.48 5.13 6.47 8.67 0 4-2.19 7.17-7.92 6.27-5.45-.85-7.73-4.73-8.06-8.76zm29 4.27v7.24l-6.15-1c-.07-.56-.1-1.8-.12-2.41a4 4 0 0 1-4.65 2.22c-3.6-.56-5.51-3.81-5.51-9.16V96.69l6.23 1v13.46c0 2 .42 3.57 1.83 3.79s2.07-.8 2.08-4.15V98.28l6.25 1zm-166.79.12.08-13.37 3.64.58c1.08 3.17 2.63 7.46 3.06 9.2h.05c-.1-1.42-.12-3.77-.1-5.89v-2.82l2.78.44-.08 13.38-3.46-.55c-.86-2.55-2.71-7.86-3.19-9.7.09 1.28.08 3.86.07 6.21v3zm11.25-12.26 2.94.46v2.64l-3-.47zm0 3.88 3 .46-.13 10.16-3-.47zm7.6-2.69v4.94a2.11 2.11 0 0 1 2.25-1c1.64.26 2.61 1.74 2.59 4.26v6.59l-2.94-.47v-6.13c0-1-.24-1.56-.89-1.66-.9-.14-1 .72-1 2v5.53l-3-.47.08-14.06zM172.1 115c0 3.19-1.58 5.12-4.31 4.68s-4.21-3-4.19-6 1.49-5.14 4.34-4.69c2.63.42 4.18 2.91 4.16 6zm-5.48-.87c0 1.94.44 2.87 1.23 3s1.21-.67 1.22-2.57c0-2.12-.4-2.89-1.21-3s-1.22.51-1.24 2.62zm6.85-1.36v-2.64l2.9.45c0 .38.07.76.08 1.14a2 2 0 0 1 2.28-1c1.6.25 2.6 1.79 2.59 4.29v6.58l-3-.47v-6.14c0-1-.21-1.57-.9-1.68s-1 .26-1 1.69v5.82l-3-.48zM186.7 109l5.25.83a4 4 0 0 1 3.64 4.07 2.64 2.64 0 0 1-1.45 2.68 3.81 3.81 0 0 1 1.72 3.31c0 2.21-1.31 3.81-3.94 3.39l-5.28-.84zm4.69 5.93c.85.13 1.19-.37 1.2-1.1a1.33 1.33 0 0 0-1.21-1.43l-1.7-.27v2.52zm-1.75 5.34 1.59.25c1 .16 1.45-.34 1.45-1.29a1.49 1.49 0 0 0-1.38-1.64l-1.63-.26zm15.36 1.79v3.28l-2.94-.47c0-.36-.05-.73-.05-1.09a1.92 1.92 0 0 1-2.23 1c-1.72-.27-2.63-1.75-2.62-4.18v-6.73l3 .47v6.1c0 .93.2 1.62.88 1.72s1-.34 1-1.86v-5.68l3 .47zm3.94.74a1.38 1.38 0 0 0 1.21 1.21c.65.11.84-.1.84-.58s-.35-.76-1.41-1.22c-2.77-1.23-3.16-2.45-3.16-3.9s.84-3.13 3.6-2.69a4 4 0 0 1 3.64 3.74l-2.69-.43a1.13 1.13 0 0 0-1-1c-.54-.08-.73.17-.73.52s.26.61 1.56 1.19c2.56 1.12 3.12 2.37 3.11 4 0 1.83-1 3.25-3.81 2.81a4.27 4.27 0 0 1-3.89-4zm8.52 1.35a1.4 1.4 0 0 0 1.21 1.22c.65.1.85-.1.85-.58s-.35-.77-1.41-1.22c-2.78-1.23-3.18-2.46-3.17-3.92s.83-3.12 3.6-2.69a4 4 0 0 1 3.65 3.75l-2.69-.42a1.14 1.14 0 0 0-1.05-1.05c-.51-.09-.73.17-.73.51s.26.62 1.57 1.2c2.57 1.12 3.13 2.37 3.12 4 0 1.83-1.07 3.25-3.83 2.81a4.29 4.29 0 0 1-3.89-4zm13.74 2.31c0 1 0 2 .09 3.07l-2.78-.44a5.36 5.36 0 0 1-.12-1 2 2 0 0 1-2.29.83 3.46 3.46 0 0 1-2.79-3.72c0-2.42 1.56-3.22 4-2.83l1 .16V122c0-.66-.18-1.17-.9-1.29s-.86.27-.93.92l-2.78-.44c.11-1.7.92-3.26 3.79-2.8 2.66.42 3.73 1.91 3.72 4.39zm-2.9-2-.66-.11c-1-.16-1.39.24-1.39 1a1.18 1.18 0 0 0 .75 1.22.28.28 0 0 0 .13 0c1 .17 1.16-.7 1.17-1.81zm4.66-2.32v-2.64l2.94.46a11.35 11.35 0 0 1 .09 1.15 2.08 2.08 0 0 1 2.31-1c1.63.26 2.65 1.81 2.64 4.33v6.64l-3-.48v-6.19c0-1-.22-1.59-.92-1.7s-1 .26-1 1.7v5.88l-3-.48zm23.12 6.86c-.41 2.8-2 4.39-5 3.92-3.51-.56-5.17-3.82-5.16-7.75s1.69-6.88 5.36-6.3a5.67 5.67 0 0 1 4.78 5.42l-3.11-.49c-.11-1.2-.89-2.15-1.74-2.15-1.52-.24-2.05 1.51-2.06 3.88 0 2.14.43 4.36 2.06 4.62.85.22 1.61-.5 1.74-1.65zm9.73.84c0 3.22-1.6 5.18-4.41 4.73s-4.32-3.1-4.32-6.08 1.52-5.21 4.45-4.74c2.69.42 4.29 3 4.28 6.09zm-5.62-.9c0 2 .46 2.91 1.27 3s1.23-.67 1.24-2.6c0-2.15-.42-2.93-1.25-3.06s-1.26.51-1.27 2.65zm6.74 6.25v-4.09l3 .48v4.12zm3.81 2.68a23.78 23.78 0 0 0 1.1-6l2.81.45a13.58 13.58 0 0 1-1.72 5.92zm9.18-14.22 3.17.5v10.66l5.09.81-.36 2.9-7.91-1.26zm8.28 4.56 1.2.19v-2.69l3 .48v2.69l1.44.23v2.6l-1.44-.23V136c0 .64.16.91.8 1l.43.07v2.39a5.39 5.39 0 0 1-1.79-.05c-1.95-.31-2.49-1.59-2.49-3.56V131l-1.17-.19zm15-1.59V141l-3-.47c-.05-.34-.09-.67-.11-1a1.93 1.93 0 0 1-2.24.89c-2.17-.35-3.34-2.87-3.33-5.91s1.36-5.3 3.68-4.93a2.44 2.44 0 0 1 1.9 1.16v-4.58zm-5.5 8.27c0 1.81.42 2.82 1.28 3 1.16.18 1.26-1.13 1.26-2.55 0-1.75-.11-2.77-1.22-2.94-.86-.11-1.32.68-1.32 2.53zm7 6.33v-4.12l3.07.49v4.14z" transform="translate(-.98 -.52)"/></g></svg>