<svg id="be3f8aba-21bf-432f-a946-235d108a8897" data-name="fd385c04-91a8-4ea1-a9f8-78ed2dbaf834" xmlns="http://www.w3.org/2000/svg" viewBox="0 0 98.46 97.65"><defs><style>.bccec46a-00d6-4e1f-be71-52d5b4efc460{fill:#070707;}.f7cf3227-2928-4674-867f-1206fa808fbc{fill:#ff0;}.e82e089b-de4b-4590-a444-3c6e0adfd743{fill:#fefefe;}.f3b58620-3db5-469c-b21d-938bb1ceed46{fill:#f4f4f4;}.ebf63c13-3eed-46d4-b2b9-0eeaacb970bb{fill:#f5f5f5;}.e15f6266-f5d5-4063-b446-9d9d081b53bc{fill:#f1f1f1;}.f4e1916e-6d19-4986-9b65-bd1eb85a7a00{fill:#ededed;}.bf2936d1-5efb-4017-8a3d-8206ca5ddbd5{fill:#fafafa;}.a6181834-1292-4460-9f86-2fe7d63f5b3c{fill:#fcfcfc;}.b20964a9-72dd-4ec0-a5f4-76d1b7d61878{fill:#fbfbfb;}.b76aade1-19a1-4799-af06-18259d606060{fill:#080808;}.b94c9511-eb96-41fc-9e99-2a4ab1efd6ea{fill:#f3f3f3;}.a15d5de3-f355-4b0c-a69b-7b58ce6233d1{fill:#010101;}.a878795c-5d0e-48a8-bb26-e58282106a92{fill:#020202;}</style></defs><path class="bccec46a-00d6-4e1f-be71-52d5b4efc460" d="M0,49a49.23,49.23,0,0,1,98.45.4c.06,23.35-17.64,48.9-49.26,48.89S-.43,72.47,0,49Z" transform="translate(0 -0.59)"/><path class="f7cf3227-2928-4674-867f-1206fa808fbc" d="M96.91,49.23A47.69,47.69,0,1,1,49.25,1.51h.16A47.47,47.47,0,0,1,96.91,49Z" transform="translate(0 -0.59)"/><path d="M20.73,19.58H74.07l2.55-3.67L76.71,19V61.41c.06,10.46-4.47,18.66-12.41,25.09-8.78,7.12-18.45,7.94-28.22,2.36C24.65,82.33,17.66,73,18,59.07c.37-14.35.08-28.72.08-43.09Z" transform="translate(0 -0.59)"/><path class="e82e089b-de4b-4590-a444-3c6e0adfd743" d="M47.8,35.74a7.56,7.56,0,0,1-2.57,7.1c-1.15,1.08-1.52,2.2-.15,3.44,2.11,1.91,2.6,4.35,2.32,7.08-.08.88-.32,2.22,1.31,2.06,1.29-.12,1-1.28,1-2a8.61,8.61,0,0,1,2.22-7.18c1.27-1.31.55-2.36-.27-3.57a13.86,13.86,0,0,1,1.15-17.36c4.07-4.5,11.62-5.84,17.22-3.12a8.7,8.7,0,0,1,4.71,5.49,24,24,0,0,1,0,15.34C70.89,53.78,57.67,61.91,45.89,60.87c-11.47-1-23.38-11.78-25.21-22.79-1.31-7.9,2-14.13,8.53-16.14,7.66-2.36,14.45.39,17.74,7,.93,2,.78,4.06.85,6.8Z" transform="translate(0 -0.59)"/><path class="f3b58620-3db5-469c-b21d-938bb1ceed46" d="M60.5,77.46l-4.72,4.68-4.86-4.68Z" transform="translate(0 -0.59)"/><path class="ebf63c13-3eed-46d4-b2b9-0eeaacb970bb" d="M43.41,71.44H53l-4.62,4.82Zm-7,5.83h9.37L41.27,82Z" transform="translate(0 -0.59)"/><path class="ebf63c13-3eed-46d4-b2b9-0eeaacb970bb" d="M57.06,71.43h9.29l-4.59,4.83Z" transform="translate(0 -0.59)"/><path class="e15f6266-f5d5-4063-b446-9d9d081b53bc" d="M64.21,63.68l2.41,0,7.16,0L69,68.67Z" transform="translate(0 -0.59)"/><path class="f4e1916e-6d19-4986-9b65-bd1eb85a7a00" d="M53.78,84l-4.56,4.48-5-4.44Z" transform="translate(0 -0.59)"/><path class="bf2936d1-5efb-4017-8a3d-8206ca5ddbd5" d="M60.28,63.79l-5.1,4.26-4.86-4.26Z" transform="translate(0 -0.59)"/><path class="a6181834-1292-4460-9f86-2fe7d63f5b3c" d="M30.41,71.38h9.23l-4.41,4.83Z" transform="translate(0 -0.59)"/><path class="b20964a9-72dd-4ec0-a5f4-76d1b7d61878" d="M23.56,63.65l2.29-.06h7.2l-4.64,5Z" transform="translate(0 -0.59)"/><path class="bf2936d1-5efb-4017-8a3d-8206ca5ddbd5" d="M37.48,63.79h9.36l-4.53,4.62Z" transform="translate(0 -0.59)"/><path class="b76aade1-19a1-4799-af06-18259d606060" d="M72.85,35.18A10.19,10.19,0,0,1,52.48,35a10.19,10.19,0,0,1,20.37.16Z" transform="translate(0 -0.59)"/><path class="bccec46a-00d6-4e1f-be71-52d5b4efc460" d="M43.9,35.22A10,10,0,0,1,34,45.35h-.28A10.14,10.14,0,1,1,43.9,35.22Z" transform="translate(0 -0.59)"/><path class="b94c9511-eb96-41fc-9e99-2a4ab1efd6ea" d="M62.57,43.52a8.41,8.41,0,1,1,8.52-8.3v.13A8.55,8.55,0,0,1,62.57,43.52Z" transform="translate(0 -0.59)"/><path class="ebf63c13-3eed-46d4-b2b9-0eeaacb970bb" d="M25.41,35.13a8.48,8.48,0,1,1,0,.07Z" transform="translate(0 -0.59)"/><path class="a15d5de3-f355-4b0c-a69b-7b58ce6233d1" d="M69.05,35a6.51,6.51,0,0,1-6.49,6.31,6.38,6.38,0,0,1,.16-12.75A6.47,6.47,0,0,1,69.05,35Z" transform="translate(0 -0.59)"/><path class="a878795c-5d0e-48a8-bb26-e58282106a92" d="M40,35.18a6.37,6.37,0,1,1-6.34-6.4h.06A6.27,6.27,0,0,1,40,35Z" transform="translate(0 -0.59)"/></svg>