<svg xmlns="http://www.w3.org/2000/svg" xmlns:xlink="http://www.w3.org/1999/xlink" viewBox="0 0 470.58 67.66"><defs><style>.e9de1bb4-82a1-454c-8b7e-931899235588{stroke:#9def48;stroke-miterlimit:10;fill:url(#b77a97a9-fcc2-43cf-b49a-3505a35a768e);}.e1117de5-55ab-406c-8fbc-b629ee5ee801{fill:#9def48;}.b449eac1-aad9-46c0-9fb9-d3d2b0efb80e{fill:#fff;}</style><linearGradient id="b77a97a9-fcc2-43cf-b49a-3505a35a768e" x1="0.5" y1="33.83" x2="470.08" y2="33.83" gradientUnits="userSpaceOnUse"><stop offset="0" stop-color="#032c02"/><stop offset="1" stop-color="#207a09"/></linearGradient></defs><g id="b9872363-23ce-46d1-a719-0dc732520ee9" data-name="calque3"><polygon class="e9de1bb4-82a1-454c-8b7e-931899235588" points="0.5 6.04 102.57 6.04 108.7 0.5 150.44 0.5 158.35 6.04 461.77 6.24 470.08 16.13 470.08 59.84 50.94 59.84 42.83 67.16 8.02 67.16 0.5 59.84 0.5 6.04"/><path class="e1117de5-55ab-406c-8fbc-b629ee5ee801" d="M59.32,24.28A16.32,16.32,0,0,0,57,32.46a16.38,16.38,0,0,0,2.34,8.19H62v4.07H57.13a18.25,18.25,0,0,1-4.22-12.26,18.18,18.18,0,0,1,4.22-12.25H81.28A18.13,18.13,0,0,1,85.5,32.46a18.2,18.2,0,0,1-4.22,12.26H76.39V40.65h2.72a16.45,16.45,0,0,0,2.32-8.19,16.39,16.39,0,0,0-2.32-8.18Z"/><path class="e1117de5-55ab-406c-8fbc-b629ee5ee801" d="M94.7,44.72H90.63v-21l4.07-4.07Z"/><path class="e1117de5-55ab-406c-8fbc-b629ee5ee801" d="M127.49,37.42h4.38a17.13,17.13,0,0,1-3.68,7.3H104a18.25,18.25,0,0,1-4.22-12.26A18.22,18.22,0,0,1,104,20.21h24.15a17.13,17.13,0,0,1,3.68,7.3h-4.38A17.47,17.47,0,0,0,126,24.28H106.23a16.32,16.32,0,0,0-2.34,8.18,16.38,16.38,0,0,0,2.34,8.19H126A18.09,18.09,0,0,0,127.49,37.42Z"/><path class="e1117de5-55ab-406c-8fbc-b629ee5ee801" d="M139.49,34.48a17.46,17.46,0,0,0,2.2,6.17h2.7v4.07h-4.88a18.2,18.2,0,0,1-4.23-12.26,18.14,18.14,0,0,1,4.23-12.25h4.88v4.07h-2.7a17.3,17.3,0,0,0-2.2,6.15h24.18a17.47,17.47,0,0,0-2.19-6.15h-2.71V20.21h4.88a18.14,18.14,0,0,1,4.23,12.25,18.2,18.2,0,0,1-4.23,12.26h-4.88V40.65h2.71a17.63,17.63,0,0,0,2.19-6.17Z"/><path class="e1117de5-55ab-406c-8fbc-b629ee5ee801" d="M177.07,44.72H173v-21l4.07-4.07Z"/><path class="e1117de5-55ab-406c-8fbc-b629ee5ee801" d="M218.46,34.48a17.67,17.67,0,0,1-4.13,10.24H190.18A17.62,17.62,0,0,1,186,34.48H182.2v-4H186a17.51,17.51,0,0,1,4.14-10.22h24.15a17.59,17.59,0,0,1,4.13,10.24l-1.76,1v2.05Zm-28.3-4h24.18a17.44,17.44,0,0,0-2.18-6.15H192.37A17.33,17.33,0,0,0,190.16,30.43Zm0,4a17.49,17.49,0,0,0,2.21,6.17h19.79a17.6,17.6,0,0,0,2.18-6.17Z"/><path class="e1117de5-55ab-406c-8fbc-b629ee5ee801" d="M228.29,40.65h19.79a16.4,16.4,0,0,0,2.32-8.19,16.45,16.45,0,0,0-2.32-8.18h-2.72V20.21h4.89a18.22,18.22,0,0,1,4.22,12.25,18.19,18.19,0,0,1-4.22,12.26H226.1a18.19,18.19,0,0,1-4.22-12.26,18.22,18.22,0,0,1,4.22-12.25H231v4.07h-2.7A16.37,16.37,0,0,0,226,32.46,16.33,16.33,0,0,0,228.29,40.65Z"/><path class="e1117de5-55ab-406c-8fbc-b629ee5ee801" d="M274.4,41.25l-4.07,4.06v-21H257V20.21h30.66v4.07H274.4Z"/><path class="e1117de5-55ab-406c-8fbc-b629ee5ee801" d="M321,30.43l1.85,2a18.15,18.15,0,0,1-4.23,12.26H294.48a17.13,17.13,0,0,1-3.68-7.3h4.38a19,19,0,0,0,1.48,3.23h19.79a16.92,16.92,0,0,0,2.19-6.17H292.1l-1.84-2a18.17,18.17,0,0,1,4.22-12.25h24.14a17.13,17.13,0,0,1,3.68,7.3h-4.38a17.47,17.47,0,0,0-1.47-3.23H296.66a17.49,17.49,0,0,0-2.2,6.15Z"/><path class="e1117de5-55ab-406c-8fbc-b629ee5ee801" d="M332.67,40.65h19.79a16.41,16.41,0,0,0,2.33-8.19,16.46,16.46,0,0,0-2.33-8.18h-2.72V20.21h4.89a18.17,18.17,0,0,1,4.22,12.25,18.14,18.14,0,0,1-4.22,12.26H330.48a18.19,18.19,0,0,1-4.22-12.26,18.22,18.22,0,0,1,4.22-12.25h4.89v4.07h-2.7a16.37,16.37,0,0,0-2.34,8.18A16.33,16.33,0,0,0,332.67,40.65Z"/></g><g id="e15db81f-427a-4984-bcb1-0e086c8f8154" data-name="svg1"><g id="b42e19ce-bba5-417e-9fab-1b56a5741c1c" data-name="g1"><path id="b074ef61-5aea-4fdf-8c90-8373e4398aea" data-name="path85812" class="b449eac1-aad9-46c0-9fb9-d3d2b0efb80e" d="M31.53,59.86a6.34,6.34,0,1,1-9.13-6.72A6.38,6.38,0,0,1,31.53,59.86Zm-.24-2.54c-1.81-7-12.17-5.78-12.18,1.46v1.16l.29.82C22,68.06,33.22,64.81,31.29,57.32Zm-.53,2.12a4.84,4.84,0,0,1-2.38,2.88l-.66.33-3.49,0-3.48,0,.31-.27.32-.27V55.79l-.31-.33-.31-.32,3.53,0,3.53,0,.65.31A3.73,3.73,0,0,1,30.76,59.44Zm-.64-1c-.45-.4-.42-.42-.42.37s0,.78.45.36S30.55,58.83,30.12,58.46Zm-.77-.88c-.45-.39-.43-.41-.43.37s0,.77.42.37S29.76,58,29.35,57.58Zm-.06,1.85c-.41-.41-.42-.41-.38.22.05.82,0,.92-.41.55a1.47,1.47,0,0,0-.38-.31,4,4,0,0,0,0,1.38c.07.07.72-.5.72-.63a1.74,1.74,0,0,1,.38-.42C29.68,59.8,29.67,59.83,29.29,59.43Zm-.75-.9-.39-.3v1.41l.39-.38c.21-.21.38-.39.38-.4A4.23,4.23,0,0,0,28.54,58.53Zm0-1.74-.39-.3V57.9l.39-.38c.21-.21.38-.39.38-.4A4.23,4.23,0,0,0,28.54,56.79Zm-1,4.28c-.45-.4-.43-.43-.43.44v.74l.39-.38C27.94,61.42,27.94,61.45,27.51,61.07Zm0-1.73c-.43-.44-.47-.41-.47.36s0,.79.46.36S27.93,59.73,27.55,59.34Zm0-1.67c-.43-.4-.46-.38-.46.38s0,.79.44.32S27.92,58,27.54,57.67Zm0-1.82c-.43-.44-.47-.41-.47.36s0,.79.46.37.39-.34,0-.73Zm-1.12,1.51a4.07,4.07,0,0,0-1.74-1.79l-.51-.25-.87,0c-1.25.06-1.74.5-1.74,1.57a1.84,1.84,0,0,0,2.77,1.64l.33-.26.29.21a1.14,1.14,0,0,0,.67.21c.28,0,.39,0,.39.14s-.11.15-.39.15a1.07,1.07,0,0,0-.67.21l-.29.21-.33-.26c-1.26-1-3.08.42-2.68,2,.52,2.14,3.65,1.52,4.85-1l.3-.61,0-.84A3,3,0,0,0,26.43,57.36Zm-1.8,3.93a1.27,1.27,0,0,1-2.13.34,1.29,1.29,0,0,1,1-2.13A1.27,1.27,0,0,1,24.63,61.29ZM24.24,60a1.08,1.08,0,0,0-1.61,1.44,1,1,0,0,0,1.3.3A1.05,1.05,0,0,0,24.24,60Zm-.09,1.12a.81.81,0,0,1-1.52-.36,1.07,1.07,0,0,1,.81-.8A.84.84,0,0,1,24.15,61.15Zm.47-3.63a1.27,1.27,0,0,1-2.29.14,1.27,1.27,0,1,1,2.29-.14Zm-.21-1a1.11,1.11,0,0,0-2.07.63,1.11,1.11,0,1,0,2.07-.63Zm-.47,1.11a.77.77,0,0,1-1.31-.54.72.72,0,0,1,.48-.77A.79.79,0,0,1,23.94,57.62Zm6-40.16c-.49-.09-.51-.12-.51-.44v-.28l.41.17c.29.12.42.24.44.4l0,.22ZM28.58,50.7H27.27l0-.5,0-.49.84-.36c1.12-.48,1.13-.49,0-.49h-.95l0-.27,0-.26,1.28,0,1.29,0,0,.49,0,.5-.92.4-.92.41.95,0,.94,0v.58ZM29,47.79h-.87v-.58h1.74v.58Zm-.44-1.16h-1.3v-.58h1.07l-.16-.24c-.4-.61,0-1,1-1h.68v.58h-.56c-1.17,0-1.24.61-.08.66l.64,0v.57Zm1.08-2.54a.91.91,0,0,1-1.58-.48c-.14-.92.53-1.5,1.37-1.18.46.18.59,1.21.21,1.66Zm-.38-1a.71.71,0,0,0-.88.21c-.21.34.55.6,1,.35C29.68,43.49,29.61,43.23,29.28,43.07ZM29,41.91l-.87,0v-.32c0-.17,0-.31.1-.31s0-.1-.05-.22c-.43-.62,0-1,1-1h.73l0,.31,0,.31-.44,0c-.56,0-1,.11-1,.36s.18.3.88.3h.57v.57Zm.76-3.55a8.63,8.63,0,0,1-1.3,0l-1.15,0v-.68c0-.86.09-1.18.34-1.31a.51.51,0,0,1,.72.2c.08.25.17.24.29,0a.64.64,0,0,1,1-.08c.24.26.35,1.82.14,1.9ZM29.29,37c-.24-.23-.56,0-.56.48v.28h.68v-.32A.8.8,0,0,0,29.29,37Zm-1.24,0c-.21,0-.24,0-.27.37l0,.36h.6l0-.36C28.3,37.05,28.26,37,28.05,37Zm1.66-1.37c-.13.12-.36.16-.87.16h-.69v-.58h.52c.64,0,.83-.06.83-.28s-.21-.4-.79-.4h-.56V34h1.74v.29c0,.2-.05.29-.15.29h-.15l.15.22A.69.69,0,0,1,29.71,35.63Zm0-2.28a.47.47,0,0,1-.29.22c-.2,0-.18-.55,0-.66a.2.2,0,0,0,.1-.25c-.11-.29-.31-.16-.48.32-.24.68-.7.78-.95.19s0-1.25.41-1.25c.15,0,.08.51-.08.63a.26.26,0,0,0-.1.28c.1.24.23.19.36-.16.27-.75.28-.75.57-.75s.59.31.59.82a1.3,1.3,0,0,1-.15.61Zm0-1.91a.76.76,0,0,1-.29.19c-.16,0-.12-.65,0-.71a.2.2,0,0,0,0-.39c-.1,0-.18,0-.25.21-.24.61-.34.75-.59.78s-.56-.29-.56-.76.23-.77.44-.77.18.37,0,.59a.37.37,0,0,0-.1.33c.09.24.29,0,.43-.44s.36-.6.67-.52S30.05,31.08,29.7,31.44Zm0-2c-.43.42-1,0-1-.77,0-.15-.06-.24-.15-.24a.25.25,0,0,0-.17.41c.19.23.21.66,0,.63-.36-.07-.53-1-.25-1.41.14-.19.24-.21.92-.21h.77v.23c0,.13,0,.27-.1.3s-.06.12,0,.24a.75.75,0,0,1-.05.82Zm-.26-.9c-.22-.22-.48-.14-.44.15s.34.43.47.21S29.62,28.69,29.48,28.55Zm.35-1.24a4.09,4.09,0,0,1-.89.06h-.82l.05-.43a.89.89,0,0,0,0-.49c-.62-.38.26-1.07,1.27-1l.43,0,0,.31,0,.31-.71,0-.7,0v.49l.7,0,.7,0V27A.79.79,0,0,1,29.83,27.31Zm-.06-4.11a1.41,1.41,0,0,1-2.36,0c-.3-.6,0-1.73.51-1.73.18,0,.17.62,0,.77A.53.53,0,0,0,28,23c.79.42,1.93-.26,1.3-.78-.19-.15-.19-.77,0-.77.5,0,.83,1.13.52,1.73Zm0-2.55a.93.93,0,0,1-1.69-.2c-.19-.76.2-1.35.89-1.35A1,1,0,0,1,29.78,20.65Zm-.37-.82c-.44-.24-1.17,0-1,.32a.61.61,0,0,0,.32.26C29.26,20.63,29.92,20.1,29.41,19.83Zm-.82-4.75H27.28v-.67h2.13V13.23l.21,0,.22,0,0,.9,0,.89Zm1.2-2.49c-.08.13-.23.17-.69.17s-.59,0-.63.19-.32.27-.32,0c0-.08-.09-.17-.19-.2a.56.56,0,0,1-.28-.33l-.1-.28h.24c.17,0,.27-.06.3-.19s.11-.2.18-.2.14.09.14.2.06.19.49.19.5,0,.55-.19a.25.25,0,0,1,.23-.2C29.91,11.79,30,12.29,29.79,12.59Zm-.12-1.39a.9.9,0,0,1-1.47-1l.07-.18-.47,0-.47,0,0-.31,0-.31h2.62v.28c0,.16-.05.3-.11.32s-.08.09,0,.25A.71.71,0,0,1,29.67,11.2Zm-.41-1.07c-.36-.17-.77,0-.77.31s.07.26.26.33.75-.06.75-.33A.39.39,0,0,0,29.26,10.13ZM27.52,47.79c-.23,0-.25,0-.22-.31s.07-.32.22-.32.2.08.22.32S27.75,47.79,27.52,47.79Zm-1.2-6.63a2.15,2.15,0,0,1-2.69.92c-1.44-.55-1.42-3.44,0-3.73l.29-.06V39c0,.56,0,.68-.16.68a.53.53,0,0,0-.28.92,2.31,2.31,0,0,0,2.08,0,.56.56,0,0,0-.37-.91c-.13,0-.16-.11-.16-.72v-.71l.31.08A1.84,1.84,0,0,1,26.5,40.2,2.45,2.45,0,0,1,26.32,41.16Zm-.06-12.88c-.29.43-.29.45-.05.45h.2v1.35H21v-1.4l1,0c1.11,0,1.11,0,.82-.35a1.64,1.64,0,0,1,.54-2.29c1.81-.92,3.93.7,2.9,2.21Zm-.63-.61c-.31-.59-2.12-.49-2.28.12-.21.86,1.43,1.29,2.21.58A.54.54,0,0,0,25.63,27.67Zm.72-3.33c-.26.52-.6.61-2.26.61H22.63V23.6H24c1.46,0,1.66-.07,1.66-.59s-.31-.67-1.78-.67H22.63V21l1.89,0,1.89,0v1.4h-.52l.2.22A1.6,1.6,0,0,1,26.35,24.34Zm0-5.22c-.21.41-.55.51-1.8.51H23.5v.68h-.87v-.67l-.31,0-.3,0-.27-.65-.27-.65h1.15v-.87h.87v.87h.95c1.06,0,1.18-.06,1.18-.55v-.32H26c.25,0,.39.05.43.15a3.08,3.08,0,0,1-.09,1.56Zm0-2.91a1,1,0,0,1-.81.65l-.26.07V15.62l.29-.17c.4-.23.33-.85-.09-.85-.25,0-.38.18-.56.79-.34,1.16-.69,1.51-1.36,1.39-1.14-.22-1.35-2.85-.26-3.31.5-.2.52-.18.52.5,0,.46,0,.63-.13.63-.39,0-.57.69-.24.9s.44-.07.71-.95c.37-1.22.79-1.52,1.62-1.18s1,1.9.57,2.84Zm0-4.45c-.23.54-.59.65-2.25.69l-1.48,0V11.14l1.28,0c1.49,0,1.72-.13,1.72-.6s-.22-.69-1.7-.72l-1.3,0V8.41h3.78V9.76h-.52l.2.22a1.68,1.68,0,0,1,.27,1.78ZM23.7,50.7H21V48.51l1.86-.81c1-.45,1.9-.85,1.95-.89a9.26,9.26,0,0,0-1.86-.08H21V45.47h5.42v2.09l-2,.87c-1.09.47-2,.88-1.94.89s.9,0,2,0l1.95,0V50.7Zm.82-6.29H22.63V43.05h3.78v1.36Zm-.82-7H21V36.08h2.12l-.24-.35c-.93-1.37-.11-2.26,2.08-2.26h1.46v1.36H25.1c-1.65,0-2.14.33-1.46,1l.24.23h2.53v1.36Zm.82-5H22.63V31.05h3.78v1.36ZM21.47,44.5H21V43.05h1V44.5Zm0-12.09H21V31.05h1v1.36Z"/></g></g></svg>