<svg id="a9db862c-e156-48a6-b387-5542e7b915e5" data-name="Calque 1" xmlns="http://www.w3.org/2000/svg" viewBox="0 0 398.32 216.72"><defs><style>.b315550e-0138-4e13-ac7b-e1cd257b99d5{fill:#333;}.a6f82ba4-f603-4982-98d5-9ae5f37d56cb{fill:#404140;}.e64021c4-d4a7-4524-80a9-a1a14261552a{fill:#272727;}.a9e55403-36cc-4d20-84b4-67247030feb2{fill:#3a3b3b;}.e2c676f1-3339-4cb1-b2bf-4a22f1a183a1{fill:#242425;}.b33cc355-97ce-45d6-beed-3963df72f25f,.b60a6825-1d52-4543-9d16-144e99da9938{fill:#2c3691;}.a47b3f21-b9b3-4aa7-a2a0-69284b7d25e2{fill:#c3262e;}.a47b3f21-b9b3-4aa7-a2a0-69284b7d25e2,.b15f16bf-efd4-4c78-9599-c9e55d529f9c,.b5374249-62f5-491f-84e7-4ae883e7f656,.b60a6825-1d52-4543-9d16-144e99da9938{fill-rule:evenodd;}.b5374249-62f5-491f-84e7-4ae883e7f656{fill:#0d9347;}.b15f16bf-efd4-4c78-9599-c9e55d529f9c{fill:#cdcccc;}.a1fd91a8-1cff-40a7-866e-7742f91d1e73{fill:#3d3d3d;}.b0b9ca04-34ae-4e3a-86b0-27686befa23c{fill:#262727;}.b8cebb47-baaf-45d7-bbac-ef4a4f07649b{fill:#181819;}.ea1a910e-71ab-4db0-acee-39f5c6429277{fill:#2f2f2f;}</style></defs><path class="b315550e-0138-4e13-ac7b-e1cd257b99d5" d="M199.09,0h0Z" transform="translate(0 0)"/><path class="b315550e-0138-4e13-ac7b-e1cd257b99d5" d="M392.33,56.35c-5.39-31.9-4.42-43.64-22.79-46A1367,1367,0,0,0,199.16,0,1367,1367,0,0,0,28.78,10.36C10.41,12.71,11.38,24.45,6,56.35c-2.78,16.48-9.12,80.4-4.14,118.52s37.29,34.39,46.41,35.22,115.61,6.63,150.83,6.63h.14c35.22,0,141.72-5.8,150.83-6.63s41.44,2.9,46.41-35.22S395.11,72.83,392.33,56.35Zm-2.21,112c-4.83,37.09-35.47,35.87-44.34,36.67s-112.28,5.66-146.55,5.66h-.14c-34.27,0-137.68-4.85-146.55-5.66S13,205.4,8.2,168.31s.44-94.66,3.15-110.68c5.24-31.05,4-44.16,21.85-46.44C38.62,10.5,45.62,9.63,54,8.71l-.17-.54.17.54A1335.59,1335.59,0,0,1,199.16.83h0A1332.86,1332.86,0,0,1,346.73,9c0-.09.07-.2.09-.28,0,.08-.06.19-.09.28,7.33.82,13.5,1.58,18.39,2.21C383,13.47,381.73,26.58,387,57.62,389.68,73.65,395,131.22,390.12,168.31Z" transform="translate(0 0)"/><path class="a6f82ba4-f603-4982-98d5-9ae5f37d56cb" d="M365.12,11.19c-4.89-.63-11.06-1.39-18.39-2.21C343,20.59,309.83,115.9,306.6,123.53s-15.08,34.43-37,34.73-67.12,0-67.12,0h-3.39s-45.25.29-67.13,0-33.72-27-37-34.73S58.15,21.49,54,8.71c-8.39.92-15.39,1.79-20.81,2.48C15.33,13.47,16.59,26.58,11.35,57.63c-2.71,16-8,73.59-3.15,110.68S43.67,204.18,52.54,205s112.28,5.66,146.55,5.66h.14c34.27,0,137.68-4.85,146.55-5.66s39.51.42,44.34-36.67S389.68,73.65,387,57.62C381.73,26.58,383,13.47,365.12,11.19Z" transform="translate(0 0)"/><path class="a6f82ba4-f603-4982-98d5-9ae5f37d56cb" d="M199.09.83h0Z" transform="translate(0 0)"/><path class="a6f82ba4-f603-4982-98d5-9ae5f37d56cb" d="M132,158.26c21.88.29,67.13,0,67.13,0h3.39s45.24.29,67.12,0,33.72-27,37-34.73S343,20.59,346.73,9A1340.43,1340.43,0,0,0,54,8.71C58.15,21.49,91.82,116,95,123.53S110.1,158,132,158.26ZM81,18.65c6.63-2.49,23.49-6.36,46.14-8s41.44-1.94,72.1-1.94h3.16c30.67,0,49.45.28,72.1,1.94s39.51,5.52,46.14,8,11.6,11.6,8.56,21.27-26.52,73.48-29.56,80.66-14.09,27.91-34.53,28.18-62.71,0-62.71,0h-3.16s-42.27.28-62.71,0S105,127.77,102,120.58s-26.52-71-29.56-80.66S74.36,21.13,81,18.65Z" transform="translate(0 0)"/><path class="b315550e-0138-4e13-ac7b-e1cd257b99d5" d="M136.52,148.76c20.44.28,62.71,0,62.71,0h3.16s42.27.28,62.71,0,31.49-21,34.53-28.18,26.52-71,29.56-80.66-1.93-18.79-8.56-21.27-23.48-6.36-46.14-8S233.06,8.7,202.39,8.7h-3.16c-30.66,0-49.45.28-72.1,1.94s-39.51,5.52-46.14,8-11.6,11.6-8.56,21.27S99,113.4,102,120.58,116.08,148.49,136.52,148.76ZM84.77,22.62c6.42-2.41,22.74-6.16,44.68-7.76S169.59,13,199.28,13h3.06c29.7,0,47.89.27,69.83,1.88,1.14.08,2.27.17,3.38.27h.2a5.81,5.81,0,0,1,1.2.12c19.52,1.76,34,5.14,39.9,7.37,6.42,2.4,11.24,9.16,8.3,18.52s-25.69,71.17-28.63,78.13S282.87,148,263.07,148.21s-60.73,0-60.73,0h-3.06s-40.93.27-60.73,0-30.5-22-33.45-28.94S79.42,50.51,76.48,41.14,78.35,25,84.77,22.62Z" transform="translate(0 0)"/><path class="e64021c4-d4a7-4524-80a9-a1a14261552a" d="M138.55,148.21c19.8.27,60.73,0,60.73,0h3.06s40.94.27,60.73,0,30.5-22,33.45-28.94,25.68-68.76,28.63-78.13-1.88-16.12-8.3-18.52c-5.94-2.23-20.38-5.61-39.9-7.37A5.88,5.88,0,0,1,281.63,21V128.46a5.87,5.87,0,0,1-5.88,5.87H128.51a5.87,5.87,0,0,1-5.87-5.87V21a5.87,5.87,0,0,1,5.87-5.87h147c-1.11-.1-2.24-.19-3.38-.27C250.23,13.25,232,13,202.34,13h-3.06c-29.69,0-47.89.27-69.83,1.88s-38.26,5.35-44.68,7.76-11.24,9.16-8.29,18.52,25.68,71.17,28.62,78.13S118.75,148,138.55,148.21Z" transform="translate(0 0)"/><path class="a9e55403-36cc-4d20-84b4-67247030feb2" d="M275.75,15.13h-.2l1.4.12A5.81,5.81,0,0,0,275.75,15.13Z" transform="translate(0 0)"/><path class="a9e55403-36cc-4d20-84b4-67247030feb2" d="M122.64,21V128.46a5.87,5.87,0,0,0,5.87,5.87H275.75a5.87,5.87,0,0,0,5.88-5.87V21A5.88,5.88,0,0,0,277,15.25l-1.4-.12h-147A5.87,5.87,0,0,0,122.64,21Zm13.72,11.39a4.8,4.8,0,0,1,4.81-4.8H261.65a4.81,4.81,0,0,1,4.81,4.8v87.94a4.81,4.81,0,0,1-4.81,4.8H141.17a4.8,4.8,0,0,1-4.81-4.8Z" transform="translate(0 0)"/><path class="e2c676f1-3339-4cb1-b2bf-4a22f1a183a1" d="M40.69,157.79a2,2,0,1,1-2-2A2,2,0,0,1,40.69,157.79Z" transform="translate(0 0)"/><path class="e2c676f1-3339-4cb1-b2bf-4a22f1a183a1" d="M40.69,164.25a2,2,0,1,1-2-2A2,2,0,0,1,40.69,164.25Z" transform="translate(0 0)"/><path class="e2c676f1-3339-4cb1-b2bf-4a22f1a183a1" d="M40.69,170.71a2,2,0,1,1-2-2A2,2,0,0,1,40.69,170.71Z" transform="translate(0 0)"/><path class="e2c676f1-3339-4cb1-b2bf-4a22f1a183a1" d="M47,151.32a2,2,0,1,1-2-2A2,2,0,0,1,47,151.32Z" transform="translate(0 0)"/><path class="e2c676f1-3339-4cb1-b2bf-4a22f1a183a1" d="M47,157.79a2,2,0,1,1-2-2A2,2,0,0,1,47,157.79Z" transform="translate(0 0)"/><path class="e2c676f1-3339-4cb1-b2bf-4a22f1a183a1" d="M47,164.25a2,2,0,1,1-2-2A2,2,0,0,1,47,164.25Z" transform="translate(0 0)"/><path class="e2c676f1-3339-4cb1-b2bf-4a22f1a183a1" d="M47,170.71a2,2,0,1,1-2-2A2,2,0,0,1,47,170.71Z" transform="translate(0 0)"/><path class="e2c676f1-3339-4cb1-b2bf-4a22f1a183a1" d="M47,177.18a2,2,0,1,1-2-2A2,2,0,0,1,47,177.18Z" transform="translate(0 0)"/><path class="e2c676f1-3339-4cb1-b2bf-4a22f1a183a1" d="M53.26,151.32a2,2,0,1,1-2-2A2,2,0,0,1,53.26,151.32Z" transform="translate(0 0)"/><path class="e2c676f1-3339-4cb1-b2bf-4a22f1a183a1" d="M53.26,157.79a2,2,0,1,1-2-2A2,2,0,0,1,53.26,157.79Z" transform="translate(0 0)"/><path class="e2c676f1-3339-4cb1-b2bf-4a22f1a183a1" d="M53.26,164.25a2,2,0,1,1-2-2A2,2,0,0,1,53.26,164.25Z" transform="translate(0 0)"/><path class="e2c676f1-3339-4cb1-b2bf-4a22f1a183a1" d="M53.26,170.71a2,2,0,1,1-2-2A2,2,0,0,1,53.26,170.71Z" transform="translate(0 0)"/><path class="e2c676f1-3339-4cb1-b2bf-4a22f1a183a1" d="M53.26,177.18a2,2,0,1,1-2-2A2,2,0,0,1,53.26,177.18Z" transform="translate(0 0)"/><path class="e2c676f1-3339-4cb1-b2bf-4a22f1a183a1" d="M59.55,151.32a2,2,0,1,1-2-2A2,2,0,0,1,59.55,151.32Z" transform="translate(0 0)"/><path class="e2c676f1-3339-4cb1-b2bf-4a22f1a183a1" d="M59.55,157.79a2,2,0,1,1-2-2A2,2,0,0,1,59.55,157.79Z" transform="translate(0 0)"/><path class="e2c676f1-3339-4cb1-b2bf-4a22f1a183a1" d="M59.55,164.25a2,2,0,1,1-2-2A2,2,0,0,1,59.55,164.25Z" transform="translate(0 0)"/><path class="e2c676f1-3339-4cb1-b2bf-4a22f1a183a1" d="M59.55,170.71a2,2,0,1,1-2-2A2,2,0,0,1,59.55,170.71Z" transform="translate(0 0)"/><path class="e2c676f1-3339-4cb1-b2bf-4a22f1a183a1" d="M59.55,177.18a2,2,0,1,1-2-2A2,2,0,0,1,59.55,177.18Z" transform="translate(0 0)"/><path class="e2c676f1-3339-4cb1-b2bf-4a22f1a183a1" d="M65.83,151.32a2,2,0,1,1-2-2A2,2,0,0,1,65.83,151.32Z" transform="translate(0 0)"/><path class="e2c676f1-3339-4cb1-b2bf-4a22f1a183a1" d="M65.83,157.79a2,2,0,1,1-2-2A2,2,0,0,1,65.83,157.79Z" transform="translate(0 0)"/><path class="e2c676f1-3339-4cb1-b2bf-4a22f1a183a1" d="M65.83,164.25a2,2,0,1,1-2-2A2,2,0,0,1,65.83,164.25Z" transform="translate(0 0)"/><path class="e2c676f1-3339-4cb1-b2bf-4a22f1a183a1" d="M65.83,170.71a2,2,0,1,1-2-2A2,2,0,0,1,65.83,170.71Z" transform="translate(0 0)"/><path class="e2c676f1-3339-4cb1-b2bf-4a22f1a183a1" d="M65.83,177.18a2,2,0,1,1-2-2A2,2,0,0,1,65.83,177.18Z" transform="translate(0 0)"/><path class="e2c676f1-3339-4cb1-b2bf-4a22f1a183a1" d="M72.12,151.32a2,2,0,1,1-2-2A2,2,0,0,1,72.12,151.32Z" transform="translate(0 0)"/><path class="e2c676f1-3339-4cb1-b2bf-4a22f1a183a1" d="M72.12,157.79a2,2,0,1,1-2-2A2,2,0,0,1,72.12,157.79Z" transform="translate(0 0)"/><path class="e2c676f1-3339-4cb1-b2bf-4a22f1a183a1" d="M72.12,164.25a2,2,0,1,1-2-2A2,2,0,0,1,72.12,164.25Z" transform="translate(0 0)"/><path class="e2c676f1-3339-4cb1-b2bf-4a22f1a183a1" d="M72.12,170.71a2,2,0,1,1-2-2A2,2,0,0,1,72.12,170.71Z" transform="translate(0 0)"/><path class="e2c676f1-3339-4cb1-b2bf-4a22f1a183a1" d="M72.12,177.18a2,2,0,1,1-2-2A2,2,0,0,1,72.12,177.18Z" transform="translate(0 0)"/><path class="e2c676f1-3339-4cb1-b2bf-4a22f1a183a1" d="M78.4,151.32a2,2,0,1,1-2-2A2,2,0,0,1,78.4,151.32Z" transform="translate(0 0)"/><path class="e2c676f1-3339-4cb1-b2bf-4a22f1a183a1" d="M78.4,157.79a2,2,0,1,1-2-2A2,2,0,0,1,78.4,157.79Z" transform="translate(0 0)"/><path class="e2c676f1-3339-4cb1-b2bf-4a22f1a183a1" d="M78.4,164.25a2,2,0,1,1-2-2A2,2,0,0,1,78.4,164.25Z" transform="translate(0 0)"/><circle class="e2c676f1-3339-4cb1-b2bf-4a22f1a183a1" cx="76.4" cy="170.71" r="2"/><path class="e2c676f1-3339-4cb1-b2bf-4a22f1a183a1" d="M78.4,177.18a2,2,0,1,1-2-2A2,2,0,0,1,78.4,177.18Z" transform="translate(0 0)"/><path class="e2c676f1-3339-4cb1-b2bf-4a22f1a183a1" d="M84.69,157.79a2,2,0,1,1-2-2A2,2,0,0,1,84.69,157.79Z" transform="translate(0 0)"/><path class="e2c676f1-3339-4cb1-b2bf-4a22f1a183a1" d="M84.69,164.25a2,2,0,1,1-2-2A2,2,0,0,1,84.69,164.25Z" transform="translate(0 0)"/><path class="e2c676f1-3339-4cb1-b2bf-4a22f1a183a1" d="M84.69,170.71a2,2,0,1,1-2-2A2,2,0,0,1,84.69,170.71Z" transform="translate(0 0)"/><path class="b33cc355-97ce-45d6-beed-3963df72f25f" d="M350,41.28c.08-2.9-1.42-9.54-7.25-11.18-2.14-.61-2.44-.11-2.75.77L333.25,50s-1,2.69,1.61,2.74S349.67,53,350,41.28Z" transform="translate(0 0)"/><path class="a47b3f21-b9b3-4aa7-a2a0-69284b7d25e2" d="M95.93,20.91c.12,0,.24,0,.36.08a1.14,1.14,0,0,1,.77.9,3,3,0,0,1,0,1.22,7.62,7.62,0,0,1-.86,2.09,14,14,0,0,1-1.79,2.47,13.83,13.83,0,0,1-2.47,2.17,6.63,6.63,0,0,1-1.83.9,2.34,2.34,0,0,1-1.08.11,1.14,1.14,0,0,1-1-.93,2.91,2.91,0,0,1,0-1.14,7.29,7.29,0,0,1,.8-2.06,14.46,14.46,0,0,1,3.93-4.49,8.31,8.31,0,0,1,1.88-1.07,3.54,3.54,0,0,1,1-.24h.34Z" transform="translate(0 0)"/><path class="b5374249-62f5-491f-84e7-4ae883e7f656" d="M104.52,20.91c.12,0,.25,0,.36.08a1.14,1.14,0,0,1,.77.9,3,3,0,0,1-.05,1.22,7.62,7.62,0,0,1-.86,2.09A14,14,0,0,1,103,27.67a13.83,13.83,0,0,1-2.47,2.17,6.56,6.56,0,0,1-1.84.9,2.29,2.29,0,0,1-1.07.11,1.14,1.14,0,0,1-1-.93,2.91,2.91,0,0,1,0-1.14,7.29,7.29,0,0,1,.8-2.06,14.46,14.46,0,0,1,3.93-4.49,8.31,8.31,0,0,1,1.88-1.07,3.54,3.54,0,0,1,1-.24h.34Z" transform="translate(0 0)"/><path class="b60a6825-1d52-4543-9d16-144e99da9938" d="M113.11,20.91c.12,0,.25,0,.36.08a1.14,1.14,0,0,1,.77.9,3,3,0,0,1,0,1.22,7.62,7.62,0,0,1-.86,2.09,14,14,0,0,1-1.79,2.47,13.83,13.83,0,0,1-2.47,2.17,6.63,6.63,0,0,1-1.83.9,2.33,2.33,0,0,1-1.08.11,1.15,1.15,0,0,1-1-.93,2.91,2.91,0,0,1,0-1.14,7.29,7.29,0,0,1,.8-2.06,14.59,14.59,0,0,1,3.93-4.49,8.31,8.31,0,0,1,1.88-1.07,3.54,3.54,0,0,1,1-.24h.34Z" transform="translate(0 0)"/><path class="b15f16bf-efd4-4c78-9599-c9e55d529f9c" d="M95.43,48.65l-.33-.08a2.43,2.43,0,0,1-1.55-1.27A3.58,3.58,0,0,1,93.17,46a5.94,5.94,0,0,1,.16-2.14,4.41,4.41,0,0,1,1.07-2,2.81,2.81,0,0,1,2.15-.93A3.09,3.09,0,0,1,98,41.2a2.16,2.16,0,0,1,1.21,1.69c0,.24.06.5.09.75H97.78c0-.13,0-.26,0-.39a.87.87,0,0,0-.78-.8,1.54,1.54,0,0,0-1.32.31,2.2,2.2,0,0,0-.58.8,4.13,4.13,0,0,0-.34,2.3,1.88,1.88,0,0,0,.28.77,1,1,0,0,0,.76.49,1.63,1.63,0,0,0,1-.12,1.42,1.42,0,0,0,.54-.49,2.21,2.21,0,0,0,.36-.74H96.17l.07-.42c.05-.29.11-.59.15-.89,0-.06,0-.08.1-.08h2.69c0,.1,0,.19,0,.29-.08.39-.13.79-.22,1.18A4.28,4.28,0,0,1,98,47.62a2.68,2.68,0,0,1-1,.72l-.61.27-.12,0Z" transform="translate(0 0)"/><path class="b15f16bf-efd4-4c78-9599-c9e55d529f9c" d="M86.62,37.08l0-.31a4.84,4.84,0,0,1,1.15-2.84,2.86,2.86,0,0,1,2.06-1,3.15,3.15,0,0,1,1.51.25,2.18,2.18,0,0,1,1.34,1.74c0,.25.06.5.09.76H91.26c0-.14,0-.27-.05-.41a.86.86,0,0,0-.79-.78,1.52,1.52,0,0,0-1.3.3,2.09,2.09,0,0,0-.53.69,4.18,4.18,0,0,0-.42,2.2,2,2,0,0,0,.23.86,1.09,1.09,0,0,0,1,.64,1.41,1.41,0,0,0,1.17-.47,2.36,2.36,0,0,0,.38-.65l.09-.25H89.66c.08-.47.15-.92.23-1.38h2.77l-.06.35c-.06.37-.11.74-.2,1.1a4.16,4.16,0,0,1-.87,1.76,2.8,2.8,0,0,1-1,.74c-.15.07-.29.15-.44.21a1.79,1.79,0,0,1-.8.12A2.85,2.85,0,0,1,88,40.35a2.51,2.51,0,0,1-1.08-1.28,3.76,3.76,0,0,1-.27-1.28s0-.07,0-.11Z" transform="translate(0 0)"/><path class="b15f16bf-efd4-4c78-9599-c9e55d529f9c" d="M100,40.52c-.17-1.9-.34-3.79-.5-5.69h0c0,.18,0,.36-.07.53l-.24,1.7c-.07.56-.15,1.12-.23,1.68l-.24,1.73a.06.06,0,0,1,0,.05H97.31c.41-2.46.82-4.93,1.24-7.39h1.9l.42,5.17h0l0-.07c.69-1.68,1.37-3.36,2.06-5a.11.11,0,0,1,.12-.09l1.77,0h.06l-.09.53c-.13.75-.25,1.5-.38,2.25s-.25,1.51-.38,2.26-.25,1.5-.37,2.24c0,.16,0,.13-.15.13h-1.21c.35-1.9.69-3.8,1-5.69h0a2.44,2.44,0,0,1-.1.24l-2.17,5.37c0,.07-.06.08-.12.08h-1Z" transform="translate(0 0)"/><path class="b15f16bf-efd4-4c78-9599-c9e55d529f9c" d="M112.57,45.36l1.22,3.13h-1.56a.09.09,0,0,1-.1-.06c-.35-.9-.7-1.8-1-2.7,0,0,0-.07-.11-.07s-.38,0-.58,0l-.48,2.83H108.5l1.23-7.42h2.55a2,2,0,0,1,.83.17,1.36,1.36,0,0,1,.75.81,2.8,2.8,0,0,1,0,1.83,2.74,2.74,0,0,1-1.25,1.45Zm-2-1h.06c.25,0,.5,0,.74,0a1.7,1.7,0,0,0,.45-.08.9.9,0,0,0,.68-.66,1.34,1.34,0,0,0,0-.63.49.49,0,0,0-.38-.4,2,2,0,0,0-.35-.05H111s-.07,0-.08.07c0,.34-.12.68-.18,1s-.08.5-.13.75Z" transform="translate(0 0)"/><path class="b15f16bf-efd4-4c78-9599-c9e55d529f9c" d="M108.52,36c-.08.49-.16,1-.23,1.44H106.1c-.09.53-.18,1.05-.28,1.58h2.47c0,.15-.05.29-.07.43-.06.35-.11.7-.17,1,0,0,0,.05-.06.05h-3.83l1.23-7.41h3.84L109,34.63h-2.41c-.09.45-.17.89-.25,1.34Z" transform="translate(0 0)"/><path class="b15f16bf-efd4-4c78-9599-c9e55d529f9c" d="M98.9,48.49c.42-2.48.82-4.94,1.23-7.42H104l-.24,1.53h-2.42L101.08,44h2.18c-.07.48-.15,1-.22,1.44h-2.1c-.07,0-.09,0-.1.09-.09.48-.17,1-.26,1.44V47H103l-.24,1.53Z" transform="translate(0 0)"/><path class="b15f16bf-efd4-4c78-9599-c9e55d529f9c" d="M107.51,41.07l.84,7.42h-1.41l-.12-1.44H105a.1.1,0,0,0-.1.07c-.15.44-.32.87-.48,1.31,0,0,0,.06-.07.06h-1.41l.09-.21q1.42-3.57,2.87-7.14a.09.09,0,0,1,.1-.07h1.53Zm-2.13,4.7h1.33c-.08-1-.17-1.94-.25-2.91h0Z" transform="translate(0 0)"/><path class="b15f16bf-efd4-4c78-9599-c9e55d529f9c" d="M97.12,40.52H95.8c-.08,0-.09,0-.1-.09,0-.45-.07-.9-.11-1.35H93.77a.11.11,0,0,0-.12.08c-.15.44-.32.87-.48,1.31,0,0,0,.06-.07.06H91.7a.64.64,0,0,1,0-.07l2.94-7.29a.08.08,0,0,1,.09-.07h1.46c.05,0,.07,0,.08.08l.18,1.57c.06.52.12,1,.17,1.56l.18,1.57c.06.47.11.94.17,1.42s.09.79.13,1.19v0Zm-1.89-5.64h0c-.36,1-.71,1.95-1.07,2.92h1.33C95.4,36.82,95.32,35.85,95.23,34.88Z" transform="translate(0 0)"/><path class="b15f16bf-efd4-4c78-9599-c9e55d529f9c" d="M307.74,29.19v1.2h-4a1.23,1.23,0,0,0-1.19.92,2.89,2.89,0,0,0,0,.29v3.87a1.21,1.21,0,0,0,1,1.18.75.75,0,0,0,.21,0h2.69c.07,0,.07,0,.07-.07V33.45c0-.07,0-.07-.07-.07H304.4c-.06,0-.06,0-.06-.06V32.18h3.41V37h0s0,0,0-.05l.69-2c.3-.86.59-1.72.88-2.58l.71-2.09a1.73,1.73,0,0,1,1.08-1.08,1.93,1.93,0,0,1,2,.34,1.77,1.77,0,0,1,.54.83l1.44,4.29c.35,1.05.71,2.11,1.07,3.16,0,0,0,0,0,.06H311.4s-.06,0-.06-.06c0-.36,0-.72,0-1.08v-.06h3.21c0-.06,0-.11-.05-.16-.57-1.69-1.15-3.39-1.72-5.09l-.3-.86a.68.68,0,0,0-.63-.45.7.7,0,0,0-.64.45c-.34,1-.69,2-1,3.06l-1.29,3.82-.13.37s0,.06-.08.06h-4.9a2.43,2.43,0,0,1-2.31-1.65,2.34,2.34,0,0,1-.12-.74c0-1.3,0-2.59,0-3.89a2.4,2.4,0,0,1,1.91-2.34,2.92,2.92,0,0,1,.5-.05h4Z" transform="translate(0 0)"/><path class="b15f16bf-efd4-4c78-9599-c9e55d529f9c" d="M287.11,36.38v-1.2H291a.15.15,0,0,0,.11-.15.14.14,0,0,0-.12-.13h-1.12a2.84,2.84,0,0,1-2.1-4.64,2.71,2.71,0,0,1,1.64-1,3.29,3.29,0,0,1,.54-.05h3.85v1.2H290a1.61,1.61,0,0,0-1.6,1.27,1.58,1.58,0,0,0,.39,1.48,1.54,1.54,0,0,0,1,.51,3.39,3.39,0,0,0,.45,0H291a1.34,1.34,0,0,1,.19,2.67l-.25,0h-3.81Z" transform="translate(0 0)"/><path class="b15f16bf-efd4-4c78-9599-c9e55d529f9c" d="M287.11,36.66H291a1.64,1.64,0,0,0,.33-3.24,3.13,3.13,0,0,0-.61,0h-.73a1.34,1.34,0,0,1-.31-2.65,1.53,1.53,0,0,1,.3,0h3.85a0,0,0,0,0,0,0c0,.37,0,.73,0,1.1,0,.06,0,.06-.07.06h-3.78a.14.14,0,0,0-.13.14c0,.1.05.17.15.17h.52c.25,0,.5,0,.75,0a2.86,2.86,0,0,1,2.51,2.25,2.82,2.82,0,0,1-2.8,3.43h-3.75c-.07,0-.07,0-.07-.07V36.66Z" transform="translate(0 0)"/><path class="b15f16bf-efd4-4c78-9599-c9e55d529f9c" d="M300.88,29.19v1.2h-4.1a1.22,1.22,0,0,0-1.2,1,1.49,1.49,0,0,0,0,.21v3.85a1.21,1.21,0,0,0,1.06,1.21h4.18c.07,0,.07,0,.07.07V37.8c0,.05,0,.07-.06.07h-4.06a2.4,2.4,0,0,1-2.33-1.93,2.21,2.21,0,0,1-.05-.51V31.64A2.4,2.4,0,0,1,295,30a2.3,2.3,0,0,1,1.36-.76,2.42,2.42,0,0,1,.47,0h4.07Z" transform="translate(0 0)"/><path class="b15f16bf-efd4-4c78-9599-c9e55d529f9c" d="M311.35,35.27l-.82,2.42,0,.14s0,0-.05,0h-1.37l0-.06,1.26-3.72c.39-1.13.77-2.26,1.15-3.4a.39.39,0,0,1,.61-.2.39.39,0,0,1,.13.2c.33,1,.66,1.94,1,2.91l.93,2.74v.05h-2.8V35.27Zm.08-.22h.87c-.15-.43-.29-.85-.43-1.27h0a.08.08,0,0,0,0,0c-.13.39-.27.77-.4,1.16Z" transform="translate(0 0)"/><path class="b15f16bf-efd4-4c78-9599-c9e55d529f9c" d="M307.74,31.88h-3.42a.27.27,0,0,0-.27.29v2.71a.28.28,0,0,0,.27.28H305c.05,0,.06,0,.06-.06a.61.61,0,0,1,0-.19s0,0-.06,0h-.6c-.06,0-.06,0-.06-.07V33.68h1.91v2.63c0,.07,0,.07-.06.07H303.8a.93.93,0,0,1-.93-.72,1.36,1.36,0,0,1,0-.2V31.6a.92.92,0,0,1,.79-.9h4c.08,0,.07,0,.07.07v1.12Z" transform="translate(0 0)"/><path class="b15f16bf-efd4-4c78-9599-c9e55d529f9c" d="M297.07,32.18H300s0,0,0,.07v1h0c0,.12,0,.12-.11.12h-4V31.62a.92.92,0,0,1,.74-.92h4.28v1.13c0,.06,0,.06-.07.06H297.3a.25.25,0,0,0-.23.29Z" transform="translate(0 0)"/><path class="b15f16bf-efd4-4c78-9599-c9e55d529f9c" d="M297.07,34.88a.27.27,0,0,0,.28.3h3.45c.07,0,.07,0,.07.06V36.3c0,.06,0,.06-.06.06h-4a.9.9,0,0,1-.91-.79.62.62,0,0,1,0-.13V33.75c0-.07,0-.07.07-.07h4c.07,0,.06,0,.06.07v1.06c0,.06,0,.06-.07.06h-2.87Z" transform="translate(0 0)"/><path class="a47b3f21-b9b3-4aa7-a2a0-69284b7d25e2" d="M108.83,59.84a2,2,0,1,1-2-2A2,2,0,0,1,108.83,59.84Z" transform="translate(0 0)"/><path class="a1fd91a8-1cff-40a7-866e-7742f91d1e73" d="M17.25,127.84c1.94,9.89,9.67,24.24,23.45,14.5s28.69-27.28,29.42-51.45-9.85-38.47-29-38.47S13.24,69.72,13.24,79.93,15.66,119.76,17.25,127.84Z" transform="translate(0 0)"/><path class="b0b9ca04-34ae-4e3a-86b0-27686befa23c" d="M65,79.93A23.86,23.86,0,1,1,41.11,56.06,23.86,23.86,0,0,1,65,79.93Z" transform="translate(0 0)"/><path class="b8cebb47-baaf-45d7-bbac-ef4a4f07649b" d="M49.64,89V59.81L49,59.54a24,24,0,0,0-7.89-1.73,24,24,0,0,0-7.89,1.73l-.64.27V89" transform="translate(0 0)"/><path class="b8cebb47-baaf-45d7-bbac-ef4a4f07649b" d="M32.58,88.46V100l.64.27A24,24,0,0,0,41.11,102,24,24,0,0,0,49,100.31l.64-.27V88.46" transform="translate(0 0)"/><path class="b8cebb47-baaf-45d7-bbac-ef4a4f07649b" d="M32.58,71.39H21l-.27.64A24,24,0,0,0,19,79.93a23.94,23.94,0,0,0,1.74,7.89l.27.63H32.58" transform="translate(0 0)"/><path class="b8cebb47-baaf-45d7-bbac-ef4a4f07649b" d="M31.89,88.46H61.22l.27-.64a23.94,23.94,0,0,0,1.74-7.89A24,24,0,0,0,61.49,72l-.27-.63H31.89" transform="translate(0 0)"/><path class="b0b9ca04-34ae-4e3a-86b0-27686befa23c" d="M41.11,58.84a23,23,0,0,0-7.49,1.66V71.07l7.49,8,7.49-8V60.5A23,23,0,0,0,41.11,58.84Z" transform="translate(0 0)"/><path class="b0b9ca04-34ae-4e3a-86b0-27686befa23c" d="M41.11,101a23,23,0,0,0,7.49-1.66V88.78l-7.49-8-7.49,8V99.35A23,23,0,0,0,41.11,101Z" transform="translate(0 0)"/><path class="b0b9ca04-34ae-4e3a-86b0-27686befa23c" d="M62.19,79.93a23,23,0,0,0-1.66-7.5H49.14L42,79.93l7.18,7.49h11.4A23.44,23.44,0,0,0,62.19,79.93Z" transform="translate(0 0)"/><path class="b0b9ca04-34ae-4e3a-86b0-27686befa23c" d="M20,79.93a23,23,0,0,0,1.66,7.49H33.08l7.18-7.49-7.18-7.5H21.69A23,23,0,0,0,20,79.93Z" transform="translate(0 0)"/><path class="a1fd91a8-1cff-40a7-866e-7742f91d1e73" d="M345.28,94.46c-18.85,18.72-29.21,38.84-23.15,45s26.26-4.11,45.11-22.82c11-11,19.15-22.37,22.78-31.19-.45-5.52-.94-10.56-1.42-14.94-7.61-3.17-26,6.84-43.32,24Z" transform="translate(0 0)"/><path class="ea1a910e-71ab-4db0-acee-39f5c6429277" d="M353.78,96.34a11.73,11.73,0,1,1-11.73-11.73A11.73,11.73,0,0,1,353.78,96.34Z" transform="translate(0 0)"/><path class="ea1a910e-71ab-4db0-acee-39f5c6429277" d="M381.24,73.35a11.73,11.73,0,1,1-11.73-11.73A11.73,11.73,0,0,1,381.24,73.35Z" transform="translate(0 0)"/></svg>