<svg xmlns="http://www.w3.org/2000/svg" xmlns:xlink="http://www.w3.org/1999/xlink" viewBox="0 0 470.33 67.41"><defs><style>.ba42e63f-7550-4c29-8dbe-19716a979a2f{stroke:#9def48;stroke-miterlimit:10;stroke-width:0.75px;fill:url(#a52bc0af-8990-4b0a-8086-e816be2d878d);}.f24f9201-60ae-4e3e-a754-1d090f51d2a9{fill:#9def48;}.b1d5955f-5bc6-46bc-a6e8-3bbae7e3ac35{fill:#15579d;}</style><linearGradient id="a52bc0af-8990-4b0a-8086-e816be2d878d" x1="0.38" y1="33.7" x2="469.96" y2="33.7" gradientUnits="userSpaceOnUse"><stop offset="0" stop-color="#032c02"/><stop offset="1" stop-color="#207a09"/></linearGradient></defs><g id="b82d1f83-8d2b-4299-80c7-28196b766485" data-name="texte"><polygon class="ba42e63f-7550-4c29-8dbe-19716a979a2f" points="0.38 5.91 102.44 5.91 108.57 0.38 150.31 0.38 158.22 5.91 461.65 6.11 469.96 16 469.96 59.72 50.81 59.72 42.7 67.03 7.89 67.03 0.38 59.72 0.38 5.91"/><path class="f24f9201-60ae-4e3e-a754-1d090f51d2a9" d="M84.1,30.78c.06.66.08,1.34.08,2A18.2,18.2,0,0,1,80,45.07H55.81a18.25,18.25,0,0,1-4.22-12.26,18.17,18.17,0,0,1,4.22-12.25H80a17.13,17.13,0,0,1,3.68,7.3H79.26a17.18,17.18,0,0,0-1.47-3.23H58a16.32,16.32,0,0,0-2.34,8.18A16.41,16.41,0,0,0,58,41H77.79A17.83,17.83,0,0,0,80,34.83H65.21v-4Z" transform="translate(-0.13 -0.13)"/><path class="f24f9201-60ae-4e3e-a754-1d090f51d2a9" d="M94.4,38.25l-4.29,6.82H85l15.57-24.51h4.68l15.45,24.51h-5l-4.24-6.82Zm14.56-4-6-9.59L97,34.2Z" transform="translate(-0.13 -0.13)"/><path class="f24f9201-60ae-4e3e-a754-1d090f51d2a9" d="M135.86,24.63H128a16.32,16.32,0,0,0-2.34,8.18A16.41,16.41,0,0,0,128,41h2.7v4.07h-4.89a18.25,18.25,0,0,1-4.22-12.26,18.17,18.17,0,0,1,4.22-12.25h10.05V16.71h4v3.85H150a18.12,18.12,0,0,1,4.22,12.25A18.2,18.2,0,0,1,150,45.07h-4.88V41h2.71a16.5,16.5,0,0,0,2.33-8.19,16.41,16.41,0,0,0-2.33-8.18h-7.88V39.15h-4Z" transform="translate(-0.13 -0.13)"/><path class="f24f9201-60ae-4e3e-a754-1d090f51d2a9" d="M182.48,34.83H165.57a17.46,17.46,0,0,0,2.2,6.17H187.9l2.34,4.07H165.58a17.67,17.67,0,0,1-4.13-10.24H157.6v-4h3.85a17.56,17.56,0,0,1,4.13-10.22h24.66l-2.34,4.07H167.77a17.3,17.3,0,0,0-2.2,6.15h16.91Z" transform="translate(-0.13 -0.13)"/><path class="f24f9201-60ae-4e3e-a754-1d090f51d2a9" d="M236.42,30.78c.06.66.09,1.34.09,2a18.2,18.2,0,0,1-4.23,12.26H208.14a18.2,18.2,0,0,1-4.22-12.26,18.12,18.12,0,0,1,4.22-12.25h24.14a17.13,17.13,0,0,1,3.68,7.3h-4.38a17.18,17.18,0,0,0-1.47-3.23H210.32A16.32,16.32,0,0,0,208,32.81,16.41,16.41,0,0,0,210.32,41h19.79a17.43,17.43,0,0,0,2.19-6.17H217.54v-4Z" transform="translate(-0.13 -0.13)"/><path class="f24f9201-60ae-4e3e-a754-1d090f51d2a9" d="M264.81,34.83H247.89a17.46,17.46,0,0,0,2.2,6.17h20.13l2.35,4.07H247.9a17.67,17.67,0,0,1-4.13-10.24h-3.85v-4h3.85a17.56,17.56,0,0,1,4.13-10.22h24.67l-2.35,4.07H250.09a17.3,17.3,0,0,0-2.2,6.15h16.92Z" transform="translate(-0.13 -0.13)"/><path class="f24f9201-60ae-4e3e-a754-1d090f51d2a9" d="M284.49,38.25l-4.29,6.82h-5.07L290.7,20.56h4.68l15.45,24.51h-5l-4.24-6.82Zm14.57-4-6-9.59-6,9.59Z" transform="translate(-0.13 -0.13)"/><path class="f24f9201-60ae-4e3e-a754-1d090f51d2a9" d="M335.93,41h2.72a17.83,17.83,0,0,0,2.19-6.17H316.66a17.46,17.46,0,0,0,2.2,6.17h2.7v4.07h-4.89a17.67,17.67,0,0,1-4.13-10.24h-3.85v-4h3.85a17.56,17.56,0,0,1,4.13-10.22h24.15A17.54,17.54,0,0,1,345,30.8l-1.76,1v2.05l1.76,1a17.62,17.62,0,0,1-4.14,10.24h-4.89ZM316.66,30.78h24.18a17.67,17.67,0,0,0-2.19-6.15H318.86A17.3,17.3,0,0,0,316.66,30.78Z" transform="translate(-0.13 -0.13)"/></g><g id="e4b771b0-cbce-4ec0-98cc-4bfd1990c8f5" data-name="sega"><path class="b1d5955f-5bc6-46bc-a6e8-3bbae7e3ac35" d="M33.73,8.1l0,4.1s0,2.09,0,4.95v.45H32.57l-1.14,0c0-1.76,0-3.95,0-5.7,0-.18,0-.55,0-.55L24.83,13.6l-4.95,1.69a1.33,1.33,0,0,0-1,1.29,1.31,1.31,0,0,0,1,1.27q6.72,2.31,13.46,4.57c.45.15.5.32.5.71q0,4.62,0,9.24a4.71,4.71,0,0,1-4.31,4.48c-2.72,0-5.44.06-8.16,0a4.51,4.51,0,0,1-4.22-4.39c-.05-2.54,0-5.41,0-7.95h2.33v.41c0,2.33,0,4.67,0,7a2.5,2.5,0,0,0,2.66,2.65c2.31-.08,4.61,0,6.92,0a2.31,2.31,0,0,0,2.47-2.47c0-1.6,0-3.2,0-4.79,0-.37-.11-.45-.46-.44-1.79,0-3.59,0-5.38,0-.42,0-.49.12-.49.51,0,1.11,0,3.35,0,3.35v.4H22.84V24.52H31.9l0-.1-2.26-.79L19.23,20.07a3.62,3.62,0,0,1-2.3-2.6,6,6,0,0,1-.05-1.61A3.62,3.62,0,0,1,19.48,13c.75-.23,1.5-.5,2.25-.76l12-4.11Zm-2.26,53c0-1.11,0-2.23,0-3.35a3.16,3.16,0,0,0-3.12-3.24,3.2,3.2,0,0,0-3.17,3.26c0,.63,0,1.25,0,1.87a2.58,2.58,0,0,1-5.15.09c0-2.41,0-5.13,0-7.54h2.32s0,4.81,0,7v.29c0,.23,0,.44.31.44s.27-.22.27-.43c0-.56,0-1.12,0-1.67a5.45,5.45,0,0,1,5.64-5.62,5.32,5.32,0,0,1,4.81,3.2,5.07,5.07,0,0,1,.53,2.45c0,1.45,0,4.35,0,4.35l0,3H31.45S31.47,62.32,31.47,61.09Z" transform="translate(-0.13 -0.13)"/><path class="b1d5955f-5bc6-46bc-a6e8-3bbae7e3ac35" d="M17.08,56.26V52.18h2.34s0,5,0,7.33a3.14,3.14,0,1,0,6.28,0c0-.62,0-1.25,0-1.87a2.58,2.58,0,1,1,5.16.1c0,2.28,0,5.12,0,7.41H28.56s0-4.87,0-7.07c0-.25.12-.65-.25-.66s-.3.4-.31.66a11.84,11.84,0,0,1-.22,3.09,5.34,5.34,0,0,1-5.18,3.93,5.42,5.42,0,0,1-5.52-5.42c0-1.15,0-2.3,0-3.45ZM33.81,37.74v.51c0,2.46,0,4.92,0,7.38a4.78,4.78,0,0,1-4.56,4.74c-2.61,0-5.22,0-7.82,0A4.51,4.51,0,0,1,17.12,46c-.06-2.64,0-8.23,0-8.23l1.16,0h1.16v.45c0,2.44,0,4.89,0,7.33a2.47,2.47,0,0,0,2.52,2.55c2.34-.07,4.68,0,7,0a2.3,2.3,0,0,0,2.52-2.52c0-2.43,0-7.74,0-7.74h.5ZM29,17.64c.79.27,1.57.55,2.36.8a12.16,12.16,0,0,0,2.34.72c.13,0,.1.14.1.23V22L23.38,18.45c-1.11-.37-2.21-.76-3.33-1.13a.76.76,0,0,1-.63-.73c0-.44.25-.64.64-.77l10.43-3.55.41-.14c0,1.54,0,3.54,0,5.09v.35H29Zm-.34-.07a.48.48,0,0,1-.32-.54,9.19,9.19,0,0,0,0-1.05c0-.11,0-.26-.16-.2l-2.29.78c1,.4,1.92.59,2.77,1ZM25.44,34H22a1.8,1.8,0,0,1-2-2c0-2.35,0-4.7,0-7.05v-.45h2.31V25c0,2,0,3.93,0,5.89,0,.62.15.77.75.77h4.82c.55,0,.72-.17.73-.74,0-.29,0-.91,0-1.19H28v.34l0,1H25.7V29.85s0-1.41,0-2.11c0-.28.09-.35.35-.35h4.48c.26,0,.36.05.36.34,0,1.51,0,3,0,4.55A1.71,1.71,0,0,1,29.1,34c-1.22,0-2.44,0-3.67,0Z" transform="translate(-0.13 -0.13)"/><path class="b1d5955f-5bc6-46bc-a6e8-3bbae7e3ac35" d="M20,42c0-1.26,0-2.93,0-4.19h2.32v.43c0,2.08,0,4.15,0,6.23a.73.73,0,0,0,.09.5c.11.13.22.28.39.21s.08-.34.08-.34c0-1.54,0-5.32,0-5.32h2.33v8h-.29c-1.08,0-2.16,0-3.24,0A1.71,1.71,0,0,1,20,45.74C20,44.48,20,42,20,42Zm10.91,0v3.64a1.73,1.73,0,0,1-1.82,1.83c-1,0-2,0-3,0h-.38c0-2.43,0-5.22,0-7.65v-.38l2.31,0v.38c0,1.63,0,3.25,0,4.88,0,0,0,.45.11.41a.54.54,0,0,0,.43-.38,1.83,1.83,0,0,0,0-.47V37.79h2.31s0,3,0,4.22Z" transform="translate(-0.13 -0.13)"/></g></svg>