<svg id="a7f5675b-e88f-4212-a151-cdfdf8b665d4" data-name="texte" xmlns="http://www.w3.org/2000/svg" xmlns:xlink="http://www.w3.org/1999/xlink" viewBox="0 0 470.33 67.41"><defs><style>.a7cb7fcb-7992-43b5-a36a-b3e87c8ed250{stroke:#9def48;stroke-miterlimit:10;stroke-width:0.75px;fill:url(#a67f2368-dc26-4ed8-b7dd-7f9e46fd6c3e);}.ba35f248-6306-496d-987c-6dfd8a7388db{fill:#9def48;}</style><linearGradient id="a67f2368-dc26-4ed8-b7dd-7f9e46fd6c3e" x1="0.38" y1="33.7" x2="469.96" y2="33.7" gradientUnits="userSpaceOnUse"><stop offset="0" stop-color="#032c02"/><stop offset="1" stop-color="#207a09"/></linearGradient></defs><polygon class="a7cb7fcb-7992-43b5-a36a-b3e87c8ed250" points="0.38 5.91 102.44 5.91 108.57 0.38 150.31 0.38 158.22 5.91 461.65 6.11 469.96 16 469.96 59.72 50.81 59.72 42.7 67.03 7.89 67.03 0.38 59.72 0.38 5.91"/><path class="ba35f248-6306-496d-987c-6dfd8a7388db" d="M75.26,43.28H54.56a15.62,15.62,0,0,1-3.62-10.5,15.59,15.59,0,0,1,3.62-10.51h20.7a15.59,15.59,0,0,1,3.61,10.51A15.61,15.61,0,0,1,75.26,43.28ZM73.4,39.79a14.19,14.19,0,0,0,2-7,14.14,14.14,0,0,0-2-7h-17a14,14,0,0,0-2,7,14.1,14.1,0,0,0,2,7Z" transform="translate(-0.06 -0.03)"/><path class="ba35f248-6306-496d-987c-6dfd8a7388db" d="M105.52,37h3.75a14.73,14.73,0,0,1-3.15,6.26H85.42a15.62,15.62,0,0,1-3.62-10.5,15.63,15.63,0,0,1,3.62-10.51h20.7a14.73,14.73,0,0,1,3.15,6.26h-3.75a15.13,15.13,0,0,0-1.26-2.77h-17a14,14,0,0,0-2,7,14,14,0,0,0,2,7h17A15.77,15.77,0,0,0,105.52,37Z" transform="translate(-0.06 -0.03)"/><path class="ba35f248-6306-496d-987c-6dfd8a7388db" d="M135.92,37h3.75a14.73,14.73,0,0,1-3.15,6.26h-20.7a15.62,15.62,0,0,1-3.62-10.5,15.63,15.63,0,0,1,3.62-10.51h20.7a14.73,14.73,0,0,1,3.15,6.26h-3.75a16.61,16.61,0,0,0-1.26-2.77h-17a14,14,0,0,0-2,7,14.1,14.1,0,0,0,2,7h17A17.37,17.37,0,0,0,135.92,37Z" transform="translate(-0.06 -0.03)"/><path class="ba35f248-6306-496d-987c-6dfd8a7388db" d="M148.43,37.43l-3.68,5.85H140.4l13.34-21h4l13.24,21h-4.29l-3.64-5.85ZM160.91,34l-5.13-8.22L150.61,34Z" transform="translate(-0.06 -0.03)"/><path class="ba35f248-6306-496d-987c-6dfd8a7388db" d="M198.08,31l1.59,1.75a15.58,15.58,0,0,1-3.62,10.5h-20.7A14.73,14.73,0,0,1,172.2,37H176a16.67,16.67,0,0,0,1.27,2.77h17a14.7,14.7,0,0,0,1.87-5.29H173.31l-1.58-1.72a15.63,15.63,0,0,1,3.62-10.51h20.7a14.73,14.73,0,0,1,3.15,6.26h-3.75a16.61,16.61,0,0,0-1.26-2.77h-17A15.11,15.11,0,0,0,175.33,31Z" transform="translate(-0.06 -0.03)"/><path class="ba35f248-6306-496d-987c-6dfd8a7388db" d="M207.55,43.28h-3.49v-18l3.49-3.49Z" transform="translate(-0.06 -0.03)"/><path class="ba35f248-6306-496d-987c-6dfd8a7388db" d="M236.26,43.28h-20.7a15.62,15.62,0,0,1-3.62-10.5,15.59,15.59,0,0,1,3.62-10.51h20.7a15.59,15.59,0,0,1,3.62,10.51A15.62,15.62,0,0,1,236.26,43.28Zm-1.86-3.49a14.08,14.08,0,0,0,2-7,14,14,0,0,0-2-7h-17a14,14,0,0,0-2,7,14.1,14.1,0,0,0,2,7Z" transform="translate(-0.06 -0.03)"/><path class="ba35f248-6306-496d-987c-6dfd8a7388db" d="M248.3,25.76a14,14,0,0,0-2,7,14,14,0,0,0,2,7h2.31v3.49h-4.19a15.61,15.61,0,0,1-3.61-10.5,15.59,15.59,0,0,1,3.61-10.51h20.7a15.59,15.59,0,0,1,3.62,10.51,15.62,15.62,0,0,1-3.62,10.5h-4.19V39.79h2.33a14.08,14.08,0,0,0,2-7,14,14,0,0,0-2-7Z" transform="translate(-0.06 -0.03)"/><path class="ba35f248-6306-496d-987c-6dfd8a7388db" d="M279.16,25.76a14,14,0,0,0-2,7,14,14,0,0,0,2,7h2.32v3.49h-4.19a15.62,15.62,0,0,1-3.62-10.5,15.59,15.59,0,0,1,3.62-10.51H298a15.59,15.59,0,0,1,3.61,10.51A15.61,15.61,0,0,1,298,43.28H293.8V39.79h2.33a14.19,14.19,0,0,0,2-7,14.14,14.14,0,0,0-2-7Z" transform="translate(-0.06 -0.03)"/><path class="ba35f248-6306-496d-987c-6dfd8a7388db" d="M325.86,34.5h-14.5a14.88,14.88,0,0,0,1.89,5.29h17.26l2,3.49H311.37a15.1,15.1,0,0,1-3.54-8.78h-3.3V31h3.3a15,15,0,0,1,3.54-8.76h21.14l-2,3.49H313.25A14.72,14.72,0,0,0,311.36,31h14.5Z" transform="translate(-0.06 -0.03)"/><path class="ba35f248-6306-496d-987c-6dfd8a7388db" d="M339.66,39.79h15.79l2,3.49H336.17v-18l3.49-3.49Z" transform="translate(-0.06 -0.03)"/></svg>