<svg id="e3f69bee-100e-4a64-b3fd-c101617b6644" data-name="Calque 1" xmlns="http://www.w3.org/2000/svg" viewBox="0 0 530.65 232.52"><defs><style>.e520a916-5107-403e-8d83-510d8f489aef{fill:#dbdde2;}.a92cf00a-afc6-4735-8f17-4baedbc1306d,.e6554825-36ec-44a9-ad10-b8ea61ead26d{fill:none;stroke:#ec1c24;stroke-miterlimit:10;}.e6554825-36ec-44a9-ad10-b8ea61ead26d{stroke-width:0.36px;}.a92cf00a-afc6-4735-8f17-4baedbc1306d{stroke-width:0.35px;}.a3f0bf49-a4f3-4857-8fce-2d6cc8ebecf6{fill:#2d2d2d;}.a280c49d-0674-4ef4-9b6e-075c2ee26831{fill:#313131;}.b1e8fd59-f932-4ea4-8c6d-edb229eb13d6{fill:#0f0f12;}.ee32b34d-dd3d-4330-9014-67dbc295b350{fill:#232323;}.ebe55522-e949-4d8b-943c-9e8df5117a32{fill:#231f20;}.f43592ab-1e9a-4d22-9cea-cb6b62584fdf{fill:#d0d2d3;}.aed9bf5d-bbf0-4d8f-80fb-e56bda2aadf0{fill:#ba8d5e;}.ef9f75a6-54ac-428d-957a-93f982fb7cce{fill:#55bfa2;}.b8f3a5d4-f841-4e99-aa54-b11374f3e212{fill:#f6921e;}</style></defs><path class="e520a916-5107-403e-8d83-510d8f489aef" d="M95.75,0S81.05,15.72,76.36,19.64c-2.15,1.79-16.15.57-28.19,1.5H30c10.4-13,17.1-17.52,20.71-19.2A24.21,24.21,0,0,1,58.42,0Z"/><path class="e520a916-5107-403e-8d83-510d8f489aef" d="M435.32,0l13.39,14.81c5.34,5.81,5.34,5.81,13.06,6.09,4.9.17,11.38.15,17.15.23h21.82A143.47,143.47,0,0,0,487.23,6.91C481.16,1.09,472.44,0,472.44,0Z"/><path class="e520a916-5107-403e-8d83-510d8f489aef" d="M95.63,227.13s-6.7-7.35-12.29-12.39a11,11,0,0,0-7.22-2.84l-33.4-.28a10.88,10.88,0,0,1-1.4,0H31.19a110.71,110.71,0,0,0,16.44,15.87,22.53,22.53,0,0,0,11.52,4.89h41.73Zm-14.27-1.22c-3.94.12-20.85,0-22,0-1.29,0-1.88.2-5.27-2.1s-3.78-3.64-4.15-4.37a3,3,0,0,1,.32-2.77,4.11,4.11,0,0,1,2.55-1.17c1.32-.1,9.4,0,9.4,0H74.11a10.32,10.32,0,0,1,6.34,2.63c2.14,1.81,3.1,2.49,3.54,3.55C84.28,222.36,85.29,225.78,81.36,225.91Z"/><path class="e6554825-36ec-44a9-ad10-b8ea61ead26d" d="M42.72,211.62h-1.4"/><path class="e6554825-36ec-44a9-ad10-b8ea61ead26d" d="M100.89,232.4v0"/><path class="a92cf00a-afc6-4735-8f17-4baedbc1306d" d="M48.36,21.14h-.19"/><path class="a3f0bf49-a4f3-4857-8fce-2d6cc8ebecf6" d="M92.16,3.8l1.22-1.28Z"/><path class="a3f0bf49-a4f3-4857-8fce-2d6cc8ebecf6" d="M35.07,207.83C29.93,201.66,23.4,191,19.75,183.5,9.6,162.61,5.94,135.43,5.94,114.17s6-45.54,9.92-54.95c3.56-8.58,8.64-20.7,17.33-32.38a12.32,12.32,0,0,1,7.38-4.71,62.39,62.39,0,0,1,7.59-1H30l-.25.31C19.15,34.66,13.27,48.9,9.27,58.72S0,94,0,116.19s5.33,49.86,15.75,71.67a111.19,111.19,0,0,0,15.44,23.76H41.32C38.11,211.42,36.68,209.77,35.07,207.83Z"/><path class="a3f0bf49-a4f3-4857-8fce-2d6cc8ebecf6" d="M95.75,0,94.12,1.73,95.75,0Z"/><path class="a3f0bf49-a4f3-4857-8fce-2d6cc8ebecf6" d="M42,211.64l.73,0h0Z"/><path class="a3f0bf49-a4f3-4857-8fce-2d6cc8ebecf6" d="M530.37,106.29c-.72-8.48-1.21-27.87-11.39-53.81a116.9,116.9,0,0,0-18.24-31.34H478.92c4.44.05,8.46.16,11,.44a6.75,6.75,0,0,1,4.2,2.09c5.6,5.95,12.33,16.17,18.3,29.58A163.72,163.72,0,0,1,524,104.72c.71,8.12,1.58,29.13-8.57,63S496,206.16,496,206.16a5.2,5.2,0,0,1-1.74.38c-.95,0-36.56.23-36.56.23s-2.83-.5-4.6,1.19S435,227.13,435,227.13H95.63l5.25,5.25,335.62,0s16.3-16.48,18.12-18.24,4.73-1.24,4.73-1.24,36.51,0,37.48,0a5.26,5.26,0,0,0,1.79-.4s11.63-5.33,22.06-40.72S531.1,114.78,530.37,106.29Z"/><path class="a280c49d-0674-4ef4-9b6e-075c2ee26831" d="M93.38,2.52l.74-.79Z"/><path class="a280c49d-0674-4ef4-9b6e-075c2ee26831" d="M59.42,211.76Z"/><path class="a280c49d-0674-4ef4-9b6e-075c2ee26831" d="M42.72,211.62l16.7.14-16.7-.14Z"/><path class="a280c49d-0674-4ef4-9b6e-075c2ee26831" d="M76.36,19.64C79.58,17,87.5,8.71,92.16,3.8,87.5,8.71,79.58,17,76.36,19.63c-2.15,1.8-16.16.58-28.19,1.51h0C60.21,20.21,74.21,21.43,76.36,19.64Z"/><path class="a280c49d-0674-4ef4-9b6e-075c2ee26831" d="M41.32,211.62l.67,0-.67,0Z"/><path class="a280c49d-0674-4ef4-9b6e-075c2ee26831" d="M83.34,214.74a11,11,0,0,0-7.22-2.84l-16.7-.14,16.7.14a11,11,0,0,1,7.22,2.84c5.59,5,12.29,12.39,12.29,12.39h0S88.93,219.78,83.34,214.74Z"/><path class="a280c49d-0674-4ef4-9b6e-075c2ee26831" d="M453.05,208c1.77-1.69,4.6-1.19,4.6-1.19s35.61-.2,36.56-.23a5.2,5.2,0,0,0,1.74-.38s9.36-4.53,19.52-38.42,9.28-54.9,8.57-63a163.72,163.72,0,0,0-11.58-51.47c-6-13.41-12.7-23.63-18.3-29.58a6.75,6.75,0,0,0-4.2-2.09c-2.58-.28-6.6-.39-11-.44-5.77-.08-12.25-.06-17.15-.23-7.72-.28-7.72-.28-13.06-6.09L435.32,0,262.52,0H95.75L94.12,1.73l-.74.79L92.16,3.8C87.5,8.71,79.58,17,76.36,19.64c-2.15,1.79-16.15.57-28.19,1.5h0a62.39,62.39,0,0,0-7.59,1,12.32,12.32,0,0,0-7.38,4.71C24.5,38.52,19.42,50.64,15.86,59.22c-3.9,9.41-9.92,33.69-9.92,55S9.6,162.61,19.75,183.5c3.65,7.51,10.18,18.16,15.32,24.33,1.61,1.94,3,3.59,6.25,3.79h0l.67,0,.73,0h0l16.7.14h0l16.7.14a11,11,0,0,1,7.22,2.84c5.59,5,12.29,12.39,12.29,12.39H435S451.28,209.64,453.05,208Zm-43.39-20.8a1.56,1.56,0,0,1-1.55,1.55H124a1.56,1.56,0,0,1-1.55-1.55V30.52A1.55,1.55,0,0,1,124,29H408.11a1.55,1.55,0,0,1,1.55,1.55Z"/><path class="b1e8fd59-f932-4ea4-8c6d-edb229eb13d6" d="M469.77,71.81A34.18,34.18,0,1,0,504,106,34.18,34.18,0,0,0,469.77,71.81Zm0,67.27A33.09,33.09,0,1,1,502.86,106,33.1,33.1,0,0,1,469.77,139.08Z"/><circle class="b1e8fd59-f932-4ea4-8c6d-edb229eb13d6" cx="436.69" cy="104.72" r="15.76"/><circle class="ee32b34d-dd3d-4330-9014-67dbc295b350" cx="436.69" cy="104.72" r="14.79"/><circle class="b1e8fd59-f932-4ea4-8c6d-edb229eb13d6" cx="502.86" cy="104.72" r="15.76"/><circle class="ee32b34d-dd3d-4330-9014-67dbc295b350" cx="502.86" cy="104.72" r="14.67"/><circle class="b1e8fd59-f932-4ea4-8c6d-edb229eb13d6" cx="469.86" cy="71.7" r="15.76" transform="translate(239.1 487.22) rotate(-69.63)"/><circle class="ee32b34d-dd3d-4330-9014-67dbc295b350" cx="469.86" cy="71.7" r="14.57"/><circle class="b1e8fd59-f932-4ea4-8c6d-edb229eb13d6" cx="469.86" cy="138.17" r="15.76"/><circle class="ee32b34d-dd3d-4330-9014-67dbc295b350" cx="469.86" cy="138.17" r="14.57"/><path class="ebe55522-e949-4d8b-943c-9e8df5117a32" d="M364.34,207.63v.89c0,7,6.6,12.72,14.71,12.72s14.72-5.7,14.72-12.72v-.89Zm14.71,11.82c-6.73,0-12.33-4.44-12.87-10h25.75C391.39,215,385.79,219.45,379.05,219.45Z"/><path class="ee32b34d-dd3d-4330-9014-67dbc295b350" d="M391.93,209.42c-.54,5.59-6.14,10-12.88,10s-12.33-4.44-12.87-10Z"/><path class="ebe55522-e949-4d8b-943c-9e8df5117a32" d="M398.89,207.63v.89c0,7,6.59,12.72,14.71,12.72s14.71-5.7,14.71-12.72v-.89Zm14.71,11.82c-6.73,0-12.34-4.44-12.88-10h25.76C425.93,215,420.33,219.45,413.6,219.45Z"/><path class="ee32b34d-dd3d-4330-9014-67dbc295b350" d="M426.48,209.42c-.55,5.59-6.15,10-12.88,10s-12.34-4.44-12.88-10Z"/><path class="ebe55522-e949-4d8b-943c-9e8df5117a32" d="M105.46,207.63v.89c0,7,6.6,12.72,14.71,12.72s14.71-5.7,14.71-12.72v-.89Zm14.71,11.82c-6.73,0-12.34-4.44-12.88-10h25.76C132.51,215,126.9,219.45,120.17,219.45Z"/><path class="ee32b34d-dd3d-4330-9014-67dbc295b350" d="M133.05,209.42c-.54,5.59-6.15,10-12.88,10s-12.34-4.44-12.88-10Z"/><path class="ebe55522-e949-4d8b-943c-9e8df5117a32" d="M160.92,205.63H156a7.12,7.12,0,0,0-7.1,7.11v1.39a7.12,7.12,0,0,0,7.1,7.11h4.91a7.12,7.12,0,0,0,7.11-7.11v-1.39A7.12,7.12,0,0,0,160.92,205.63Zm5.32,8.5a5.32,5.32,0,0,1-5.32,5.32H156a5.32,5.32,0,0,1-5.31-5.32v-1.39a5.32,5.32,0,0,1,5.31-5.32h4.91a5.32,5.32,0,0,1,5.32,5.32Z"/><path class="ee32b34d-dd3d-4330-9014-67dbc295b350" d="M166.24,212.74v1.39a5.32,5.32,0,0,1-5.32,5.32H156a5.32,5.32,0,0,1-5.31-5.32v-1.39a5.32,5.32,0,0,1,5.31-5.32h4.91A5.32,5.32,0,0,1,166.24,212.74Z"/><path class="ebe55522-e949-4d8b-943c-9e8df5117a32" d="M195.44,205.63h-4.91a7.12,7.12,0,0,0-7.11,7.11v1.39a7.12,7.12,0,0,0,7.11,7.11h4.91a7.11,7.11,0,0,0,7.1-7.11v-1.39A7.11,7.11,0,0,0,195.44,205.63Zm5.31,8.5a5.32,5.32,0,0,1-5.31,5.32h-4.91a5.33,5.33,0,0,1-5.32-5.32v-1.39a5.33,5.33,0,0,1,5.32-5.32h4.91a5.32,5.32,0,0,1,5.31,5.32Z"/><path class="ee32b34d-dd3d-4330-9014-67dbc295b350" d="M200.75,212.74v1.39a5.32,5.32,0,0,1-5.31,5.32h-4.91a5.33,5.33,0,0,1-5.32-5.32v-1.39a5.32,5.32,0,0,1,5.32-5.32h4.91A5.32,5.32,0,0,1,200.75,212.74Z"/><path class="ebe55522-e949-4d8b-943c-9e8df5117a32" d="M326.32,206.63h-5.06a7,7,0,0,0-7,7v1.55a7,7,0,0,0,7,7h5.06a7,7,0,0,0,7-7v-1.55a7,7,0,0,0-7-7Zm5.24,8.58a5.25,5.25,0,0,1-5.24,5.24h-5.06a5.25,5.25,0,0,1-5.24-5.24v-1.55a5.25,5.25,0,0,1,5.24-5.24h5.06a5.25,5.25,0,0,1,5.24,5.24Z"/><path class="ee32b34d-dd3d-4330-9014-67dbc295b350" d="M331.56,213.66v1.55a5.25,5.25,0,0,1-5.24,5.24h-5.06a5.25,5.25,0,0,1-5.24-5.24v-1.55a5.25,5.25,0,0,1,5.24-5.24h5.06A5.25,5.25,0,0,1,331.56,213.66Z"/><path class="ebe55522-e949-4d8b-943c-9e8df5117a32" d="M348.56,206.63h-4.82a7.16,7.16,0,0,0-7.15,7.15v1.3a7.16,7.16,0,0,0,7.15,7.16h4.82a7.16,7.16,0,0,0,7.15-7.16v-1.3A7.16,7.16,0,0,0,348.56,206.63Zm5.36,8.45a5.37,5.37,0,0,1-5.36,5.37h-4.82a5.37,5.37,0,0,1-5.36-5.37v-1.3a5.37,5.37,0,0,1,5.36-5.36h4.82a5.37,5.37,0,0,1,5.36,5.36Z"/><path class="ee32b34d-dd3d-4330-9014-67dbc295b350" d="M353.92,213.78v1.31a5.37,5.37,0,0,1-5.36,5.36h-4.82a5.37,5.37,0,0,1-5.36-5.36v-1.31a5.37,5.37,0,0,1,5.36-5.36h4.82A5.37,5.37,0,0,1,353.92,213.78Z"/><path class="ebe55522-e949-4d8b-943c-9e8df5117a32" d="M348.56,221.51h-4.82a6.44,6.44,0,0,1-6.43-6.42v-1.31a6.44,6.44,0,0,1,6.43-6.43h4.82a6.44,6.44,0,0,1,6.43,6.43v1.31A6.44,6.44,0,0,1,348.56,221.51Zm-4.82-13.81a6.09,6.09,0,0,0-6.08,6.08v1.31a6.09,6.09,0,0,0,6.08,6.08h4.82a6.09,6.09,0,0,0,6.08-6.08v-1.31a6.09,6.09,0,0,0-6.08-6.08Z"/><path class="f43592ab-1e9a-4d22-9cea-cb6b62584fdf" d="M154.85,213h7v1.64h-7Z"/><path class="f43592ab-1e9a-4d22-9cea-cb6b62584fdf" d="M192.3,210.48v2.68h-2.64v1.46h2.64v2.54h1.32v-2.54h2.68v-1.37h-2.68v-2.77Z"/><path class="f43592ab-1e9a-4d22-9cea-cb6b62584fdf" d="M325.89,211.52H322.1a2.11,2.11,0,0,0-2.1,2.11v2.06a2.12,2.12,0,0,0,2.11,2.11h3.78a2.12,2.12,0,0,0,2.11-2.11v-2.06A2.12,2.12,0,0,0,325.89,211.52Zm1,3.89a1.54,1.54,0,0,1-1.53,1.53h-2.76a1.54,1.54,0,0,1-1.53-1.53v-1.5a1.54,1.54,0,0,1,1.53-1.53h2.76a1.54,1.54,0,0,1,1.53,1.53Z"/><path class="b1e8fd59-f932-4ea4-8c6d-edb229eb13d6" d="M440.91,201.71h-3.72a5.32,5.32,0,1,1,0-10.64h3.72a5.32,5.32,0,0,1,0,10.64Z"/><path class="b1e8fd59-f932-4ea4-8c6d-edb229eb13d6" d="M95.75,201.71H92a5.32,5.32,0,1,1,0-10.64h3.73a5.32,5.32,0,0,1,0,10.64Z"/><path class="aed9bf5d-bbf0-4d8f-80fb-e56bda2aadf0" d="M502.23,184.71a2.32,2.32,0,1,1,2.31,2.32A2.31,2.31,0,0,1,502.23,184.71Z"/><path class="ef9f75a6-54ac-428d-957a-93f982fb7cce" d="M510.63,160.35a2.32,2.32,0,1,1,2.32,2.32A2.32,2.32,0,0,1,510.63,160.35Z"/><path class="f43592ab-1e9a-4d22-9cea-cb6b62584fdf" d="M503.09,99.54a5.55,5.55,0,1,0,5.55,5.54A5.53,5.53,0,0,0,503.09,99.54Zm0,9.63a4.09,4.09,0,1,1,4.09-4.09A4.09,4.09,0,0,1,503.09,109.17Z"/><path class="f43592ab-1e9a-4d22-9cea-cb6b62584fdf" d="M469.77,64.22l-5.45,9.18H475Zm0,2.73,2.81,5H467Z"/><path class="f43592ab-1e9a-4d22-9cea-cb6b62584fdf" d="M432.26,100.38v9.06h8.79v-9.06Zm7.3,7.43h-5.88v-5.88h5.88Z"/><path class="f43592ab-1e9a-4d22-9cea-cb6b62584fdf" d="M469.77,137l3.28-3.28,1.09,1.1-3.35,3.34,3.14,3.14-1,1-3.14-3.14-3.18,3.18-1.05-1,3.22-3.22-3.24-3.24,1-1Z"/><path class="b1e8fd59-f932-4ea4-8c6d-edb229eb13d6" d="M65.36,159.71A16.64,16.64,0,1,0,82,176.35,16.64,16.64,0,0,0,65.36,159.71Zm0,31.64a15,15,0,1,1,15-15A15,15,0,0,1,65.36,191.35Z"/><circle class="ee32b34d-dd3d-4330-9014-67dbc295b350" cx="65.36" cy="176.34" r="15" transform="translate(-119.2 212.48) rotate(-80.74)"/><path class="ef9f75a6-54ac-428d-957a-93f982fb7cce" d="M25.32,184.8a2.59,2.59,0,1,1,2.59,2.59A2.59,2.59,0,0,1,25.32,184.8Z"/><circle class="b8f3a5d4-f841-4e99-aa54-b11374f3e212" cx="19.45" cy="160.35" r="2.54"/><path class="b1e8fd59-f932-4ea4-8c6d-edb229eb13d6" d="M63.39,64.72a41,41,0,1,0,41,41A41,41,0,0,0,63.39,64.72Zm-12,6.2a3.39,3.39,0,0,1,3.39-3.39H72.58A3.39,3.39,0,0,1,76,70.92V85a2.23,2.23,0,0,1-.65,1.56l-9.23,9.13a3.38,3.38,0,0,1-4.79,0l-9.21-9.16a2.29,2.29,0,0,1-.66-1.6v-14Zm-26,25.62a3.4,3.4,0,0,1,3.39-3.4H42.9a2.23,2.23,0,0,1,1.56.65L53.59,103a3.39,3.39,0,0,1,0,4.8L44.44,117a2.26,2.26,0,0,1-1.6.67h-14a3.4,3.4,0,0,1-3.4-3.4V96.54ZM72.58,143.3H54.82a3.39,3.39,0,0,1-3.39-3.39V125.85a2.2,2.2,0,0,1,.65-1.56l9.22-9.12a3.39,3.39,0,0,1,4.8,0l9.21,9.17a2.27,2.27,0,0,1,.66,1.6v14A3.39,3.39,0,0,1,72.58,143.3Zm3.3.07a3.67,3.67,0,0,0,1.06-2.58v-15.1a2.4,2.4,0,0,0-.72-1.72l-9.93-9.89a3.65,3.65,0,0,0-5.18,0l-10,9.85a2.39,2.39,0,0,0-.7,1.69v15.16a3.66,3.66,0,0,0,1.41,2.89,39.76,39.76,0,0,1-26.3-25.91,3.67,3.67,0,0,0,2.39.89h15.1a2.4,2.4,0,0,0,1.72-.72L54.67,108a3.65,3.65,0,0,0,0-5.18l-9.85-10a2.38,2.38,0,0,0-1.69-.71H28a3.66,3.66,0,0,0-2.15.7A39.76,39.76,0,0,1,51.13,67.93,3.58,3.58,0,0,0,50.46,70v15.1a2.44,2.44,0,0,0,.71,1.73l9.94,9.89a3.66,3.66,0,0,0,5.18,0l9.95-9.85a2.36,2.36,0,0,0,.7-1.69V70a3.66,3.66,0,0,0-.5-1.85A39.8,39.8,0,0,1,101,93a3.69,3.69,0,0,0-2.29-.81H83.61a2.42,2.42,0,0,0-1.72.72L72,102.82A3.68,3.68,0,0,0,72,108L81.86,118a2.4,2.4,0,0,0,1.69.71H98.71a3.63,3.63,0,0,0,2.54-1A39.76,39.76,0,0,1,75.88,143.37Zm25.34-46.83v17.75a3.4,3.4,0,0,1-3.39,3.4H83.77a2.25,2.25,0,0,1-1.56-.65l-9.13-9.23a3.39,3.39,0,0,1,0-4.8l9.17-9.2a2.24,2.24,0,0,1,1.6-.67h14A3.4,3.4,0,0,1,101.22,96.54Z"/><path class="ee32b34d-dd3d-4330-9014-67dbc295b350" d="M53.6,107.82,44.44,117a2.26,2.26,0,0,1-1.6.67h-14a3.4,3.4,0,0,1-3.4-3.4V96.54a3.4,3.4,0,0,1,3.4-3.4h14a2.23,2.23,0,0,1,1.56.65L53.59,103A3.39,3.39,0,0,1,53.6,107.82Z"/><path class="f43592ab-1e9a-4d22-9cea-cb6b62584fdf" d="M30.82,105.17v.46L36,110.81V100.17Zm4,2.85-2.34-2.53,2.34-2.34Z"/><path class="ee32b34d-dd3d-4330-9014-67dbc295b350" d="M101.22,96.54v17.75a3.4,3.4,0,0,1-3.39,3.4H83.77a2.25,2.25,0,0,1-1.56-.65l-9.13-9.23a3.39,3.39,0,0,1,0-4.8l9.17-9.2a2.24,2.24,0,0,1,1.6-.67h14A3.4,3.4,0,0,1,101.22,96.54Z"/><path class="f43592ab-1e9a-4d22-9cea-cb6b62584fdf" d="M95.86,105.66v-.46L90.68,100v10.64Zm-4-2.85,2.34,2.53-2.34,2.34Z"/><path class="ee32b34d-dd3d-4330-9014-67dbc295b350" d="M76,70.92V85a2.19,2.19,0,0,1-.65,1.56L66.1,95.67a3.39,3.39,0,0,1-4.8,0l-9.21-9.16a2.29,2.29,0,0,1-.66-1.6v-14a3.39,3.39,0,0,1,3.39-3.39H72.58A3.39,3.39,0,0,1,76,70.92Z"/><path class="f43592ab-1e9a-4d22-9cea-cb6b62584fdf" d="M63.94,72.89h-.45l-5.18,5.19H68.94Zm-2.84,4,2.53-2.34L66,76.9Z"/><path class="ee32b34d-dd3d-4330-9014-67dbc295b350" d="M76,125.92v14a3.39,3.39,0,0,1-3.39,3.39H54.82a3.39,3.39,0,0,1-3.39-3.39V125.85a2.19,2.19,0,0,1,.65-1.56l9.22-9.13a3.39,3.39,0,0,1,4.8,0l9.21,9.17A2.27,2.27,0,0,1,76,125.92Z"/><path class="f43592ab-1e9a-4d22-9cea-cb6b62584fdf" d="M63.46,137.94h.45l5.18-5.18H58.46Zm2.84-4-2.53,2.34-2.34-2.34Z"/><circle class="b1e8fd59-f932-4ea4-8c6d-edb229eb13d6" cx="91.39" cy="15.09" r="1.51"/><path class="b1e8fd59-f932-4ea4-8c6d-edb229eb13d6" d="M93.14,10.86a1.52,1.52,0,1,1,1.52,1.52A1.52,1.52,0,0,1,93.14,10.86Z"/><circle class="b1e8fd59-f932-4ea4-8c6d-edb229eb13d6" cx="99.57" cy="10.86" r="1.51"/><circle class="b1e8fd59-f932-4ea4-8c6d-edb229eb13d6" cx="104.6" cy="10.86" r="1.51"/><circle class="b1e8fd59-f932-4ea4-8c6d-edb229eb13d6" cx="109.35" cy="10.86" r="1.51"/><circle class="b1e8fd59-f932-4ea4-8c6d-edb229eb13d6" cx="114.11" cy="10.86" r="1.51"/><circle class="b1e8fd59-f932-4ea4-8c6d-edb229eb13d6" cx="118.9" cy="10.86" r="1.51"/><circle class="b1e8fd59-f932-4ea4-8c6d-edb229eb13d6" cx="123.81" cy="10.86" r="1.51"/><circle class="b1e8fd59-f932-4ea4-8c6d-edb229eb13d6" cx="128.35" cy="10.86" r="1.51"/><circle class="b1e8fd59-f932-4ea4-8c6d-edb229eb13d6" cx="133.31" cy="10.86" r="1.51"/><circle class="b1e8fd59-f932-4ea4-8c6d-edb229eb13d6" cx="137.9" cy="10.86" r="1.51"/><circle class="b1e8fd59-f932-4ea4-8c6d-edb229eb13d6" cx="142.9" cy="10.86" r="1.51"/><circle class="b1e8fd59-f932-4ea4-8c6d-edb229eb13d6" cx="147.8" cy="10.86" r="1.51"/><circle class="b1e8fd59-f932-4ea4-8c6d-edb229eb13d6" cx="152.62" cy="10.86" r="1.51"/><circle class="b1e8fd59-f932-4ea4-8c6d-edb229eb13d6" cx="157.21" cy="10.86" r="1.51"/><circle class="b1e8fd59-f932-4ea4-8c6d-edb229eb13d6" cx="162.3" cy="10.86" r="1.51"/><circle class="b1e8fd59-f932-4ea4-8c6d-edb229eb13d6" cx="166.89" cy="10.86" r="1.51"/><circle class="b1e8fd59-f932-4ea4-8c6d-edb229eb13d6" cx="171.68" cy="10.86" r="1.51"/><path class="b1e8fd59-f932-4ea4-8c6d-edb229eb13d6" d="M175.07,10.86a1.52,1.52,0,1,1,1.52,1.52A1.52,1.52,0,0,1,175.07,10.86Z"/><circle class="b1e8fd59-f932-4ea4-8c6d-edb229eb13d6" cx="181.13" cy="10.86" r="1.51"/><circle class="b1e8fd59-f932-4ea4-8c6d-edb229eb13d6" cx="186.16" cy="10.86" r="1.51"/><circle class="b1e8fd59-f932-4ea4-8c6d-edb229eb13d6" cx="191.13" cy="10.86" r="1.51"/><circle class="b1e8fd59-f932-4ea4-8c6d-edb229eb13d6" cx="195.66" cy="10.86" r="1.51"/><circle class="b1e8fd59-f932-4ea4-8c6d-edb229eb13d6" cx="200.48" cy="10.86" r="1.51"/><circle class="b1e8fd59-f932-4ea4-8c6d-edb229eb13d6" cx="205.34" cy="10.86" r="1.51"/><circle class="b1e8fd59-f932-4ea4-8c6d-edb229eb13d6" cx="209.98" cy="10.86" r="1.51"/><path class="b1e8fd59-f932-4ea4-8c6d-edb229eb13d6" d="M213.37,10.86a1.52,1.52,0,1,1,1.52,1.52A1.52,1.52,0,0,1,213.37,10.86Z"/><circle class="b1e8fd59-f932-4ea4-8c6d-edb229eb13d6" cx="219.71" cy="10.86" r="1.51"/><circle class="b1e8fd59-f932-4ea4-8c6d-edb229eb13d6" cx="224.52" cy="10.86" r="1.51"/><circle class="b1e8fd59-f932-4ea4-8c6d-edb229eb13d6" cx="229.34" cy="10.86" r="1.51"/><circle class="b1e8fd59-f932-4ea4-8c6d-edb229eb13d6" cx="233.98" cy="10.86" r="1.51"/><circle class="b1e8fd59-f932-4ea4-8c6d-edb229eb13d6" cx="238.84" cy="10.86" r="1.51"/><circle class="b1e8fd59-f932-4ea4-8c6d-edb229eb13d6" cx="243.79" cy="10.86" r="1.51"/><circle class="b1e8fd59-f932-4ea4-8c6d-edb229eb13d6" cx="248.43" cy="10.86" r="1.51"/><circle class="b1e8fd59-f932-4ea4-8c6d-edb229eb13d6" cx="253.11" cy="10.86" r="1.51"/><circle class="b1e8fd59-f932-4ea4-8c6d-edb229eb13d6" cx="258.11" cy="10.86" r="1.52"/><circle class="b1e8fd59-f932-4ea4-8c6d-edb229eb13d6" cx="431.33" cy="10.86" r="1.52"/><circle class="b1e8fd59-f932-4ea4-8c6d-edb229eb13d6" cx="435.84" cy="10.86" r="1.52"/><circle class="b1e8fd59-f932-4ea4-8c6d-edb229eb13d6" cx="426.42" cy="10.86" r="1.52"/><path class="b1e8fd59-f932-4ea4-8c6d-edb229eb13d6" d="M422.91,10.86a1.52,1.52,0,1,1-1.52-1.51A1.52,1.52,0,0,1,422.91,10.86Z"/><circle class="b1e8fd59-f932-4ea4-8c6d-edb229eb13d6" cx="416.64" cy="10.86" r="1.52"/><circle class="b1e8fd59-f932-4ea4-8c6d-edb229eb13d6" cx="411.88" cy="10.86" r="1.52"/><circle class="b1e8fd59-f932-4ea4-8c6d-edb229eb13d6" cx="407.09" cy="10.86" r="1.52"/><path class="b1e8fd59-f932-4ea4-8c6d-edb229eb13d6" d="M403.7,10.86a1.52,1.52,0,1,1-1.52-1.51A1.52,1.52,0,0,1,403.7,10.86Z"/><circle class="b1e8fd59-f932-4ea4-8c6d-edb229eb13d6" cx="397.64" cy="10.86" r="1.52"/><path class="b1e8fd59-f932-4ea4-8c6d-edb229eb13d6" d="M394.2,10.86a1.52,1.52,0,1,1-1.52-1.51A1.52,1.52,0,0,1,394.2,10.86Z"/><circle class="b1e8fd59-f932-4ea4-8c6d-edb229eb13d6" cx="388.09" cy="10.86" r="1.52"/><path class="b1e8fd59-f932-4ea4-8c6d-edb229eb13d6" d="M384.61,10.86a1.52,1.52,0,1,1-1.52-1.51A1.52,1.52,0,0,1,384.61,10.86Z"/><circle class="b1e8fd59-f932-4ea4-8c6d-edb229eb13d6" cx="378.18" cy="10.86" r="1.52"/><circle class="b1e8fd59-f932-4ea4-8c6d-edb229eb13d6" cx="373.37" cy="10.86" r="1.52"/><circle class="b1e8fd59-f932-4ea4-8c6d-edb229eb13d6" cx="368.78" cy="10.86" r="1.52"/><circle class="b1e8fd59-f932-4ea4-8c6d-edb229eb13d6" cx="363.68" cy="10.86" r="1.52"/><circle class="b1e8fd59-f932-4ea4-8c6d-edb229eb13d6" cx="359.1" cy="10.86" r="1.52"/><circle class="b1e8fd59-f932-4ea4-8c6d-edb229eb13d6" cx="354.31" cy="10.86" r="1.52"/><circle class="b1e8fd59-f932-4ea4-8c6d-edb229eb13d6" cx="349.4" cy="10.86" r="1.52"/><circle class="b1e8fd59-f932-4ea4-8c6d-edb229eb13d6" cx="344.85" cy="10.86" r="1.52"/><circle class="b1e8fd59-f932-4ea4-8c6d-edb229eb13d6" cx="339.82" cy="10.86" r="1.52"/><circle class="b1e8fd59-f932-4ea4-8c6d-edb229eb13d6" cx="334.85" cy="10.86" r="1.52"/><path class="b1e8fd59-f932-4ea4-8c6d-edb229eb13d6" d="M331.84,10.86a1.52,1.52,0,1,1-1.52-1.51A1.52,1.52,0,0,1,331.84,10.86Z"/><circle class="b1e8fd59-f932-4ea4-8c6d-edb229eb13d6" cx="325.51" cy="10.86" r="1.52"/><path class="b1e8fd59-f932-4ea4-8c6d-edb229eb13d6" d="M322.16,10.86a1.52,1.52,0,1,1-1.52-1.51A1.52,1.52,0,0,1,322.16,10.86Z"/><circle class="b1e8fd59-f932-4ea4-8c6d-edb229eb13d6" cx="316.01" cy="10.86" r="1.52"/><circle class="b1e8fd59-f932-4ea4-8c6d-edb229eb13d6" cx="311.1" cy="10.86" r="1.52"/><circle class="b1e8fd59-f932-4ea4-8c6d-edb229eb13d6" cx="306.28" cy="10.86" r="1.52"/><path class="b1e8fd59-f932-4ea4-8c6d-edb229eb13d6" d="M303,10.86a1.52,1.52,0,1,1-1.52-1.51A1.52,1.52,0,0,1,303,10.86Z"/><circle class="b1e8fd59-f932-4ea4-8c6d-edb229eb13d6" cx="296.65" cy="10.86" r="1.52"/><circle class="b1e8fd59-f932-4ea4-8c6d-edb229eb13d6" cx="292.01" cy="10.86" r="1.52"/><circle class="b1e8fd59-f932-4ea4-8c6d-edb229eb13d6" cx="287.15" cy="10.86" r="1.52"/><path class="b1e8fd59-f932-4ea4-8c6d-edb229eb13d6" d="M283.71,10.86a1.52,1.52,0,1,1-1.52-1.51A1.52,1.52,0,0,1,283.71,10.86Z"/><circle class="b1e8fd59-f932-4ea4-8c6d-edb229eb13d6" cx="277.56" cy="10.86" r="1.52"/><circle class="b1e8fd59-f932-4ea4-8c6d-edb229eb13d6" cx="272.88" cy="10.86" r="1.52"/><circle class="b1e8fd59-f932-4ea4-8c6d-edb229eb13d6" cx="267.88" cy="10.86" r="1.52"/><path class="b1e8fd59-f932-4ea4-8c6d-edb229eb13d6" d="M261.32,10.86a1.52,1.52,0,1,1,1.52,1.52A1.52,1.52,0,0,1,261.32,10.86Z"/><circle class="b1e8fd59-f932-4ea4-8c6d-edb229eb13d6" cx="244.05" cy="6.97" r="1.51"/><circle class="b1e8fd59-f932-4ea4-8c6d-edb229eb13d6" cx="248.69" cy="6.97" r="1.51"/><circle class="b1e8fd59-f932-4ea4-8c6d-edb229eb13d6" cx="253.37" cy="6.97" r="1.51"/><circle class="b1e8fd59-f932-4ea4-8c6d-edb229eb13d6" cx="258.37" cy="6.97" r="1.52"/><circle class="b1e8fd59-f932-4ea4-8c6d-edb229eb13d6" cx="429.04" cy="6.97" r="1.52"/><circle class="b1e8fd59-f932-4ea4-8c6d-edb229eb13d6" cx="433.55" cy="6.97" r="1.52"/><circle class="b1e8fd59-f932-4ea4-8c6d-edb229eb13d6" cx="424.13" cy="6.97" r="1.52"/><circle class="b1e8fd59-f932-4ea4-8c6d-edb229eb13d6" cx="419.1" cy="6.97" r="1.52"/><circle class="b1e8fd59-f932-4ea4-8c6d-edb229eb13d6" cx="414.35" cy="6.97" r="1.52"/><circle class="b1e8fd59-f932-4ea4-8c6d-edb229eb13d6" cx="409.95" cy="6.97" r="1.52"/><circle class="b1e8fd59-f932-4ea4-8c6d-edb229eb13d6" cx="405.17" cy="6.97" r="1.52"/><circle class="b1e8fd59-f932-4ea4-8c6d-edb229eb13d6" cx="400.26" cy="6.97" r="1.52"/><circle class="b1e8fd59-f932-4ea4-8c6d-edb229eb13d6" cx="395.71" cy="6.97" r="1.52"/><circle class="b1e8fd59-f932-4ea4-8c6d-edb229eb13d6" cx="390.76" cy="6.97" r="1.52"/><circle class="b1e8fd59-f932-4ea4-8c6d-edb229eb13d6" cx="386.17" cy="6.97" r="1.52"/><circle class="b1e8fd59-f932-4ea4-8c6d-edb229eb13d6" cx="381.53" cy="6.97" r="1.52"/><circle class="b1e8fd59-f932-4ea4-8c6d-edb229eb13d6" cx="376.62" cy="6.97" r="1.52"/><path class="b1e8fd59-f932-4ea4-8c6d-edb229eb13d6" d="M373.32,7a1.52,1.52,0,1,1-1.51-1.52A1.51,1.51,0,0,1,373.32,7Z"/><circle class="b1e8fd59-f932-4ea4-8c6d-edb229eb13d6" cx="367.21" cy="6.97" r="1.52"/><path class="b1e8fd59-f932-4ea4-8c6d-edb229eb13d6" d="M364,7a1.52,1.52,0,1,1-1.51-1.52A1.51,1.51,0,0,1,364,7Z"/><circle class="b1e8fd59-f932-4ea4-8c6d-edb229eb13d6" cx="357.9" cy="6.97" r="1.52"/><path class="b1e8fd59-f932-4ea4-8c6d-edb229eb13d6" d="M354.63,7a1.52,1.52,0,1,1-1.52-1.52A1.51,1.51,0,0,1,354.63,7Z"/><circle class="b1e8fd59-f932-4ea4-8c6d-edb229eb13d6" cx="348.2" cy="6.97" r="1.52"/><circle class="b1e8fd59-f932-4ea4-8c6d-edb229eb13d6" cx="343.66" cy="6.97" r="1.52"/><circle class="b1e8fd59-f932-4ea4-8c6d-edb229eb13d6" cx="338.99" cy="6.97" r="1.52"/><circle class="b1e8fd59-f932-4ea4-8c6d-edb229eb13d6" cx="334.02" cy="6.97" r="1.52"/><circle class="b1e8fd59-f932-4ea4-8c6d-edb229eb13d6" cx="329.49" cy="6.97" r="1.52"/><circle class="b1e8fd59-f932-4ea4-8c6d-edb229eb13d6" cx="324.67" cy="6.97" r="1.52"/><circle class="b1e8fd59-f932-4ea4-8c6d-edb229eb13d6" cx="319.81" cy="6.97" r="1.52"/><circle class="b1e8fd59-f932-4ea4-8c6d-edb229eb13d6" cx="315.17" cy="6.97" r="1.52"/><path class="b1e8fd59-f932-4ea4-8c6d-edb229eb13d6" d="M311.78,7a1.52,1.52,0,1,1-1.51-1.52A1.51,1.51,0,0,1,311.78,7Z"/><circle class="b1e8fd59-f932-4ea4-8c6d-edb229eb13d6" cx="305.81" cy="6.97" r="1.52"/><circle class="b1e8fd59-f932-4ea4-8c6d-edb229eb13d6" cx="300.99" cy="6.97" r="1.52"/><circle class="b1e8fd59-f932-4ea4-8c6d-edb229eb13d6" cx="296.18" cy="6.97" r="1.52"/><path class="b1e8fd59-f932-4ea4-8c6d-edb229eb13d6" d="M293.06,7a1.52,1.52,0,1,1-1.52-1.52A1.51,1.51,0,0,1,293.06,7Z"/><circle class="b1e8fd59-f932-4ea4-8c6d-edb229eb13d6" cx="286.68" cy="6.97" r="1.52"/><circle class="b1e8fd59-f932-4ea4-8c6d-edb229eb13d6" cx="282.09" cy="6.97" r="1.52"/><circle class="b1e8fd59-f932-4ea4-8c6d-edb229eb13d6" cx="277.09" cy="6.97" r="1.52"/><circle class="b1e8fd59-f932-4ea4-8c6d-edb229eb13d6" cx="272.6" cy="6.97" r="1.52"/><circle class="b1e8fd59-f932-4ea4-8c6d-edb229eb13d6" cx="267.77" cy="6.97" r="1.52"/><circle class="b1e8fd59-f932-4ea4-8c6d-edb229eb13d6" cx="263.1" cy="6.97" r="1.52"/><circle class="b1e8fd59-f932-4ea4-8c6d-edb229eb13d6" cx="101.91" cy="6.91" r="1.51"/><circle class="b1e8fd59-f932-4ea4-8c6d-edb229eb13d6" cx="97.4" cy="6.91" r="1.51"/><circle class="b1e8fd59-f932-4ea4-8c6d-edb229eb13d6" cx="106.82" cy="6.91" r="1.51"/><circle class="b1e8fd59-f932-4ea4-8c6d-edb229eb13d6" cx="111.85" cy="6.91" r="1.51"/><circle class="b1e8fd59-f932-4ea4-8c6d-edb229eb13d6" cx="116.61" cy="6.91" r="1.51"/><circle class="b1e8fd59-f932-4ea4-8c6d-edb229eb13d6" cx="121" cy="6.91" r="1.51"/><circle class="b1e8fd59-f932-4ea4-8c6d-edb229eb13d6" cx="125.79" cy="6.91" r="1.51"/><circle class="b1e8fd59-f932-4ea4-8c6d-edb229eb13d6" cx="130.7" cy="6.91" r="1.51"/><circle class="b1e8fd59-f932-4ea4-8c6d-edb229eb13d6" cx="135.24" cy="6.91" r="1.51"/><circle class="b1e8fd59-f932-4ea4-8c6d-edb229eb13d6" cx="140.2" cy="6.91" r="1.51"/><path class="b1e8fd59-f932-4ea4-8c6d-edb229eb13d6" d="M143.27,6.91a1.52,1.52,0,1,1,1.52,1.51A1.52,1.52,0,0,1,143.27,6.91Z"/><circle class="b1e8fd59-f932-4ea4-8c6d-edb229eb13d6" cx="149.42" cy="6.91" r="1.51"/><circle class="b1e8fd59-f932-4ea4-8c6d-edb229eb13d6" cx="154.33" cy="6.91" r="1.51"/><circle class="b1e8fd59-f932-4ea4-8c6d-edb229eb13d6" cx="159.15" cy="6.91" r="1.51"/><circle class="b1e8fd59-f932-4ea4-8c6d-edb229eb13d6" cx="163.74" cy="6.91" r="1.51"/><circle class="b1e8fd59-f932-4ea4-8c6d-edb229eb13d6" cx="168.46" cy="6.91" r="1.51"/><circle class="b1e8fd59-f932-4ea4-8c6d-edb229eb13d6" cx="173.06" cy="6.91" r="1.51"/><circle class="b1e8fd59-f932-4ea4-8c6d-edb229eb13d6" cx="177.84" cy="6.91" r="1.51"/><path class="b1e8fd59-f932-4ea4-8c6d-edb229eb13d6" d="M181.24,6.91a1.52,1.52,0,1,1,1.51,1.51A1.51,1.51,0,0,1,181.24,6.91Z"/><circle class="b1e8fd59-f932-4ea4-8c6d-edb229eb13d6" cx="187.3" cy="6.91" r="1.51"/><circle class="b1e8fd59-f932-4ea4-8c6d-edb229eb13d6" cx="191.96" cy="6.91" r="1.51"/><circle class="b1e8fd59-f932-4ea4-8c6d-edb229eb13d6" cx="196.93" cy="6.91" r="1.51"/><circle class="b1e8fd59-f932-4ea4-8c6d-edb229eb13d6" cx="201.46" cy="6.91" r="1.51"/><circle class="b1e8fd59-f932-4ea4-8c6d-edb229eb13d6" cx="206.28" cy="6.91" r="1.51"/><circle class="b1e8fd59-f932-4ea4-8c6d-edb229eb13d6" cx="211.14" cy="6.91" r="1.51"/><circle class="b1e8fd59-f932-4ea4-8c6d-edb229eb13d6" cx="215.78" cy="6.91" r="1.51"/><circle class="b1e8fd59-f932-4ea4-8c6d-edb229eb13d6" cx="220.69" cy="6.91" r="1.51"/><path class="b1e8fd59-f932-4ea4-8c6d-edb229eb13d6" d="M223.63,6.91a1.52,1.52,0,1,1,1.51,1.51A1.51,1.51,0,0,1,223.63,6.91Z"/><circle class="b1e8fd59-f932-4ea4-8c6d-edb229eb13d6" cx="229.96" cy="6.91" r="1.51"/><circle class="b1e8fd59-f932-4ea4-8c6d-edb229eb13d6" cx="234.78" cy="6.91" r="1.51"/><circle class="b1e8fd59-f932-4ea4-8c6d-edb229eb13d6" cx="239.41" cy="6.91" r="1.51"/><path class="b1e8fd59-f932-4ea4-8c6d-edb229eb13d6" d="M94.66,15.09a1.52,1.52,0,1,1,1.51,1.51A1.52,1.52,0,0,1,94.66,15.09Z"/><circle class="b1e8fd59-f932-4ea4-8c6d-edb229eb13d6" cx="101.08" cy="15.09" r="1.51"/><circle class="b1e8fd59-f932-4ea4-8c6d-edb229eb13d6" cx="106.11" cy="15.09" r="1.51"/><circle class="b1e8fd59-f932-4ea4-8c6d-edb229eb13d6" cx="111.08" cy="15.09" r="1.51"/><path class="b1e8fd59-f932-4ea4-8c6d-edb229eb13d6" d="M114.35,15.09a1.52,1.52,0,1,1,1.52,1.51A1.52,1.52,0,0,1,114.35,15.09Z"/><circle class="b1e8fd59-f932-4ea4-8c6d-edb229eb13d6" cx="120.78" cy="15.09" r="1.51"/><circle class="b1e8fd59-f932-4ea4-8c6d-edb229eb13d6" cx="125.81" cy="15.09" r="1.51"/><circle class="b1e8fd59-f932-4ea4-8c6d-edb229eb13d6" cx="130.53" cy="15.09" r="1.51"/><path class="b1e8fd59-f932-4ea4-8c6d-edb229eb13d6" d="M133.8,15.09a1.52,1.52,0,1,1,3,0,1.52,1.52,0,0,1-3,0Z"/><circle class="b1e8fd59-f932-4ea4-8c6d-edb229eb13d6" cx="140.23" cy="15.09" r="1.51"/><circle class="b1e8fd59-f932-4ea4-8c6d-edb229eb13d6" cx="145.26" cy="15.09" r="1.51"/><circle class="b1e8fd59-f932-4ea4-8c6d-edb229eb13d6" cx="150.23" cy="15.09" r="1.51"/><path class="b1e8fd59-f932-4ea4-8c6d-edb229eb13d6" d="M153.5,15.09A1.52,1.52,0,1,1,155,16.6,1.52,1.52,0,0,1,153.5,15.09Z"/><circle class="b1e8fd59-f932-4ea4-8c6d-edb229eb13d6" cx="159.92" cy="15.09" r="1.51"/><circle class="b1e8fd59-f932-4ea4-8c6d-edb229eb13d6" cx="164.95" cy="15.09" r="1.51"/><circle class="b1e8fd59-f932-4ea4-8c6d-edb229eb13d6" cx="169.92" cy="15.09" r="1.51"/><path class="b1e8fd59-f932-4ea4-8c6d-edb229eb13d6" d="M173.2,15.09a1.52,1.52,0,1,1,1.51,1.51A1.51,1.51,0,0,1,173.2,15.09Z"/><circle class="b1e8fd59-f932-4ea4-8c6d-edb229eb13d6" cx="179.62" cy="15.09" r="1.51"/><circle class="b1e8fd59-f932-4ea4-8c6d-edb229eb13d6" cx="184.65" cy="15.09" r="1.51"/><circle class="b1e8fd59-f932-4ea4-8c6d-edb229eb13d6" cx="189.62" cy="15.09" r="1.51"/><circle class="b1e8fd59-f932-4ea4-8c6d-edb229eb13d6" cx="194.41" cy="15.09" r="1.51"/><circle class="b1e8fd59-f932-4ea4-8c6d-edb229eb13d6" cx="199.31" cy="15.09" r="1.51"/><circle class="b1e8fd59-f932-4ea4-8c6d-edb229eb13d6" cx="204.34" cy="15.09" r="1.51"/><circle class="b1e8fd59-f932-4ea4-8c6d-edb229eb13d6" cx="209.07" cy="15.09" r="1.51"/><circle class="b1e8fd59-f932-4ea4-8c6d-edb229eb13d6" cx="213.86" cy="15.09" r="1.51"/><circle class="b1e8fd59-f932-4ea4-8c6d-edb229eb13d6" cx="218.77" cy="15.09" r="1.51"/><circle class="b1e8fd59-f932-4ea4-8c6d-edb229eb13d6" cx="223.8" cy="15.09" r="1.51"/><circle class="b1e8fd59-f932-4ea4-8c6d-edb229eb13d6" cx="228.77" cy="15.09" r="1.51"/><circle class="b1e8fd59-f932-4ea4-8c6d-edb229eb13d6" cx="233.55" cy="15.09" r="1.51"/><circle class="b1e8fd59-f932-4ea4-8c6d-edb229eb13d6" cx="238.46" cy="15.09" r="1.51"/><circle class="b1e8fd59-f932-4ea4-8c6d-edb229eb13d6" cx="243.49" cy="15.09" r="1.51"/><circle class="b1e8fd59-f932-4ea4-8c6d-edb229eb13d6" cx="248.11" cy="15.09" r="1.51"/><circle class="b1e8fd59-f932-4ea4-8c6d-edb229eb13d6" cx="252.9" cy="15.09" r="1.51"/><circle class="b1e8fd59-f932-4ea4-8c6d-edb229eb13d6" cx="257.81" cy="15.09" r="1.52"/><path class="b1e8fd59-f932-4ea4-8c6d-edb229eb13d6" d="M261.32,15.09a1.52,1.52,0,1,1,3,0,1.52,1.52,0,0,1-3,0Z"/><circle class="b1e8fd59-f932-4ea4-8c6d-edb229eb13d6" cx="267.81" cy="15.09" r="1.52"/><circle class="b1e8fd59-f932-4ea4-8c6d-edb229eb13d6" cx="272.6" cy="15.09" r="1.52"/><circle class="b1e8fd59-f932-4ea4-8c6d-edb229eb13d6" cx="277.5" cy="15.09" r="1.52"/><path class="b1e8fd59-f932-4ea4-8c6d-edb229eb13d6" d="M281,15.09a1.52,1.52,0,1,1,1.51,1.51A1.52,1.52,0,0,1,281,15.09Z"/><circle class="b1e8fd59-f932-4ea4-8c6d-edb229eb13d6" cx="287.37" cy="15.09" r="1.52"/><circle class="b1e8fd59-f932-4ea4-8c6d-edb229eb13d6" cx="292.15" cy="15.09" r="1.52"/><path class="b1e8fd59-f932-4ea4-8c6d-edb229eb13d6" d="M295.55,15.09a1.52,1.52,0,1,1,1.51,1.51A1.52,1.52,0,0,1,295.55,15.09Z"/><circle class="b1e8fd59-f932-4ea4-8c6d-edb229eb13d6" cx="302.09" cy="15.09" r="1.52"/><circle class="b1e8fd59-f932-4ea4-8c6d-edb229eb13d6" cx="307.06" cy="15.09" r="1.52"/><circle class="b1e8fd59-f932-4ea4-8c6d-edb229eb13d6" cx="311.85" cy="15.09" r="1.52"/><path class="b1e8fd59-f932-4ea4-8c6d-edb229eb13d6" d="M315.24,15.09a1.52,1.52,0,1,1,3,0,1.52,1.52,0,0,1-3,0Z"/><circle class="b1e8fd59-f932-4ea4-8c6d-edb229eb13d6" cx="321.79" cy="15.09" r="1.52"/><circle class="b1e8fd59-f932-4ea4-8c6d-edb229eb13d6" cx="326.64" cy="15.09" r="1.52"/><circle class="b1e8fd59-f932-4ea4-8c6d-edb229eb13d6" cx="331.42" cy="15.09" r="1.52"/><path class="b1e8fd59-f932-4ea4-8c6d-edb229eb13d6" d="M334.82,15.09a1.52,1.52,0,1,1,1.51,1.51A1.51,1.51,0,0,1,334.82,15.09Z"/><circle class="b1e8fd59-f932-4ea4-8c6d-edb229eb13d6" cx="341.36" cy="15.09" r="1.52"/><circle class="b1e8fd59-f932-4ea4-8c6d-edb229eb13d6" cx="346.33" cy="15.09" r="1.52"/><circle class="b1e8fd59-f932-4ea4-8c6d-edb229eb13d6" cx="351.12" cy="15.09" r="1.52"/><path class="b1e8fd59-f932-4ea4-8c6d-edb229eb13d6" d="M354.51,15.09A1.52,1.52,0,1,1,356,16.6,1.52,1.52,0,0,1,354.51,15.09Z"/><circle class="b1e8fd59-f932-4ea4-8c6d-edb229eb13d6" cx="361.06" cy="15.09" r="1.52"/><circle class="b1e8fd59-f932-4ea4-8c6d-edb229eb13d6" cx="365.84" cy="15.09" r="1.52"/><circle class="b1e8fd59-f932-4ea4-8c6d-edb229eb13d6" cx="370.63" cy="15.09" r="1.52"/><circle class="b1e8fd59-f932-4ea4-8c6d-edb229eb13d6" cx="375.54" cy="15.09" r="1.52"/><circle class="b1e8fd59-f932-4ea4-8c6d-edb229eb13d6" cx="380.57" cy="15.09" r="1.52"/><circle class="b1e8fd59-f932-4ea4-8c6d-edb229eb13d6" cx="385.54" cy="15.09" r="1.52"/><circle class="b1e8fd59-f932-4ea4-8c6d-edb229eb13d6" cx="390.33" cy="15.09" r="1.52"/><circle class="b1e8fd59-f932-4ea4-8c6d-edb229eb13d6" cx="395.23" cy="15.09" r="1.52"/><circle class="b1e8fd59-f932-4ea4-8c6d-edb229eb13d6" cx="400.27" cy="15.09" r="1.52"/><circle class="b1e8fd59-f932-4ea4-8c6d-edb229eb13d6" cx="404.81" cy="15.09" r="1.52"/><circle class="b1e8fd59-f932-4ea4-8c6d-edb229eb13d6" cx="409.6" cy="15.09" r="1.52"/><circle class="b1e8fd59-f932-4ea4-8c6d-edb229eb13d6" cx="414.51" cy="15.09" r="1.52"/><path class="b1e8fd59-f932-4ea4-8c6d-edb229eb13d6" d="M418,15.09a1.52,1.52,0,1,1,1.52,1.51A1.52,1.52,0,0,1,418,15.09Z"/><circle class="b1e8fd59-f932-4ea4-8c6d-edb229eb13d6" cx="424.51" cy="15.09" r="1.52"/><circle class="b1e8fd59-f932-4ea4-8c6d-edb229eb13d6" cx="429.29" cy="15.09" r="1.52"/><circle class="b1e8fd59-f932-4ea4-8c6d-edb229eb13d6" cx="434.2" cy="15.09" r="1.52"/><path class="b1e8fd59-f932-4ea4-8c6d-edb229eb13d6" d="M437.72,15.09a1.52,1.52,0,1,1,1.51,1.51A1.51,1.51,0,0,1,437.72,15.09Z"/><path class="f43592ab-1e9a-4d22-9cea-cb6b62584fdf" d="M115.46,215h-.86v-1.55H113V215h-.86v-3.82H113v1.53h1.59v-1.53h.86Z"/><path class="f43592ab-1e9a-4d22-9cea-cb6b62584fdf" d="M118,215a1.76,1.76,0,0,1-1.34-.54,1.89,1.89,0,0,1-.52-1.39,2,2,0,0,1,.53-1.46,1.79,1.79,0,0,1,1.39-.56,1.76,1.76,0,0,1,1.32.53,2,2,0,0,1,.5,1.41,2,2,0,0,1-.52,1.46A1.82,1.82,0,0,1,118,215Zm0-3.21a.86.86,0,0,0-.72.34,1.46,1.46,0,0,0-.26.9,1.41,1.41,0,0,0,.26.89.93.93,0,0,0,1.41,0,1.39,1.39,0,0,0,.26-.89,1.48,1.48,0,0,0-.25-.92A.83.83,0,0,0,118,211.83Z"/><path class="f43592ab-1e9a-4d22-9cea-cb6b62584fdf" d="M124.82,215H124v-2.28c0-.25,0-.52,0-.82h0a3.24,3.24,0,0,1-.12.51L123,215h-.7l-.91-2.57c0-.07-.06-.25-.12-.53h0c0,.37,0,.71,0,1V215h-.77v-3.82h1.26l.78,2.27a3.53,3.53,0,0,1,.13.54h0c0-.21.1-.39.15-.55l.78-2.26h1.23Z"/><path class="f43592ab-1e9a-4d22-9cea-cb6b62584fdf" d="M128,215h-2.29v-3.82h2.2v.7h-1.34v.85h1.25v.7h-1.25v.87H128Z"/><path class="f43592ab-1e9a-4d22-9cea-cb6b62584fdf" d="M174.12,212.34l-1.32,3.81h-1l-1.3-3.81h.93l.8,2.65a1.54,1.54,0,0,1,.07.38h0a2.46,2.46,0,0,1,.08-.39l.79-2.64Z"/><path class="f43592ab-1e9a-4d22-9cea-cb6b62584fdf" d="M176.19,216.22a1.79,1.79,0,0,1-1.34-.53,1.91,1.91,0,0,1-.52-1.4,2,2,0,0,1,.53-1.46,1.82,1.82,0,0,1,1.39-.56,1.73,1.73,0,0,1,1.32.54,1.93,1.93,0,0,1,.5,1.41,2,2,0,0,1-.52,1.45,1.78,1.78,0,0,1-1.36.55Zm0-3.21a.83.83,0,0,0-.71.34,1.42,1.42,0,0,0-.27.9,1.38,1.38,0,0,0,.27.9.84.84,0,0,0,.69.33.87.87,0,0,0,.71-.32,1.42,1.42,0,0,0,.26-.9,1.48,1.48,0,0,0-.25-.92A.83.83,0,0,0,176.22,213Z"/><path class="f43592ab-1e9a-4d22-9cea-cb6b62584fdf" d="M181,216.15h-2.27v-3.81h.86v3.12H181Z"/><path class="f43592ab-1e9a-4d22-9cea-cb6b62584fdf" d="M370.21,214.84v-.91a1.64,1.64,0,0,0,.54.31,1.7,1.7,0,0,0,.58.11,1.42,1.42,0,0,0,.31,0,.67.67,0,0,0,.21-.09.4.4,0,0,0,.13-.13.32.32,0,0,0,0-.16.43.43,0,0,0-.06-.22.79.79,0,0,0-.19-.17l-.28-.15-.35-.15a1.78,1.78,0,0,1-.71-.49,1,1,0,0,1-.23-.69,1.18,1.18,0,0,1,.12-.55,1,1,0,0,1,.35-.37,1.46,1.46,0,0,1,.51-.22,2.51,2.51,0,0,1,.62-.07,3.13,3.13,0,0,1,.56,0,2.12,2.12,0,0,1,.45.11v.85a1.55,1.55,0,0,0-.22-.12,1.06,1.06,0,0,0-.25-.09,1.11,1.11,0,0,0-.25-.05l-.24,0a1.29,1.29,0,0,0-.29,0,1,1,0,0,0-.21.08.44.44,0,0,0-.14.13.34.34,0,0,0,0,.17.28.28,0,0,0,.06.18.56.56,0,0,0,.15.16l.24.14.32.14a3,3,0,0,1,.44.22,1.8,1.8,0,0,1,.34.26,1,1,0,0,1,.21.33,1.14,1.14,0,0,1,.07.43,1.16,1.16,0,0,1-.13.58,1,1,0,0,1-.35.37,1.56,1.56,0,0,1-.51.21,3.18,3.18,0,0,1-.62.06,3.24,3.24,0,0,1-.64-.06,1.94,1.94,0,0,1-.53-.17Z"/><path class="f43592ab-1e9a-4d22-9cea-cb6b62584fdf" d="M376.1,215h-2.44v-4.08H376v.75h-1.43v.91h1.33v.74h-1.33v.93h1.52V215Z"/><path class="f43592ab-1e9a-4d22-9cea-cb6b62584fdf" d="M379.18,215h-2.42v-4.08h.92v3.33h1.5Z"/><path class="f43592ab-1e9a-4d22-9cea-cb6b62584fdf" d="M382.17,215h-2.44v-4.08h2.35v.75h-1.43v.91H382v.74h-1.33v.93h1.52Z"/><path class="f43592ab-1e9a-4d22-9cea-cb6b62584fdf" d="M385.75,214.85a2.63,2.63,0,0,1-1.17.22,2,2,0,0,1-1.47-.55,2,2,0,0,1-.54-1.47,2.11,2.11,0,0,1,.61-1.58,2.08,2.08,0,0,1,1.56-.61,3,3,0,0,1,1,.15v.88a1.79,1.79,0,0,0-.93-.24,1.24,1.24,0,0,0-.93.36,1.35,1.35,0,0,0-.35,1,1.33,1.33,0,0,0,.33.94,1.19,1.19,0,0,0,.9.35,2,2,0,0,0,1-.26v.83Z"/><path class="f43592ab-1e9a-4d22-9cea-cb6b62584fdf" d="M389.32,211.67h-1.16V215h-.92v-3.33h-1.16v-.74h3.24Z"/><path class="f43592ab-1e9a-4d22-9cea-cb6b62584fdf" d="M405.12,214.84v-.91a1.46,1.46,0,0,0,.54.31,1.66,1.66,0,0,0,.58.11,1.26,1.26,0,0,0,.3,0,.63.63,0,0,0,.22-.09.4.4,0,0,0,.13-.13.32.32,0,0,0,0-.16.36.36,0,0,0-.07-.22.74.74,0,0,0-.18-.17l-.28-.15-.35-.15a1.71,1.71,0,0,1-.71-.49,1,1,0,0,1-.24-.69,1.07,1.07,0,0,1,.13-.55,1,1,0,0,1,.35-.37,1.32,1.32,0,0,1,.51-.22,2.43,2.43,0,0,1,.61-.07,3.13,3.13,0,0,1,.56,0,2.07,2.07,0,0,1,.46.11v.85a1.67,1.67,0,0,0-.23-.12,1.17,1.17,0,0,0-.24-.09,1.19,1.19,0,0,0-.26-.05l-.24,0a1.2,1.2,0,0,0-.28,0,.93.93,0,0,0-.22.08.4.4,0,0,0-.13.13.26.26,0,0,0-.05.17.35.35,0,0,0,.05.18.75.75,0,0,0,.15.16,1.86,1.86,0,0,0,.25.14,3.37,3.37,0,0,0,.32.14,3.61,3.61,0,0,1,.44.22,1.46,1.46,0,0,1,.33.26.89.89,0,0,1,.21.33,1.14,1.14,0,0,1,.08.43,1.16,1.16,0,0,1-.13.58,1.12,1.12,0,0,1-.35.37,1.62,1.62,0,0,1-.52.21,3,3,0,0,1-.62.06,3.39,3.39,0,0,1-.64-.06,1.87,1.87,0,0,1-.52-.17Z"/><path class="f43592ab-1e9a-4d22-9cea-cb6b62584fdf" d="M411.43,211.67h-1.16V215h-.92v-3.33h-1.16v-.74h3.24Z"/><path class="f43592ab-1e9a-4d22-9cea-cb6b62584fdf" d="M415.56,215h-1l-.29-.91h-1.45l-.29.91h-1l1.48-4.08h1.09Zm-1.5-1.61-.44-1.37a2.73,2.73,0,0,1-.07-.37h0a1.53,1.53,0,0,1-.07.36l-.44,1.38Z"/><path class="f43592ab-1e9a-4d22-9cea-cb6b62584fdf" d="M419.48,215h-1.05L417.8,214l-.14-.21a.75.75,0,0,0-.13-.16.49.49,0,0,0-.14-.11.41.41,0,0,0-.16,0H417V215h-.92v-4.08h1.45c1,0,1.48.37,1.48,1.11a1.29,1.29,0,0,1-.06.4.94.94,0,0,1-.19.32,1.12,1.12,0,0,1-.28.25,1.63,1.63,0,0,1-.38.17h0a.76.76,0,0,1,.18.09,1.1,1.1,0,0,1,.16.15c.05.06.11.12.15.18l.14.19Zm-2.5-3.39v1.14h.4a.69.69,0,0,0,.48-.17.58.58,0,0,0,.18-.43c0-.36-.21-.54-.64-.54Z"/><path class="f43592ab-1e9a-4d22-9cea-cb6b62584fdf" d="M422.73,211.67h-1.17V215h-.92v-3.33h-1.15v-.74h3.24Z"/><path class="f43592ab-1e9a-4d22-9cea-cb6b62584fdf" d="M487,160.93v1.41h-.91v-4.08h1.43c1,0,1.54.44,1.54,1.3a1.25,1.25,0,0,1-.44,1,1.76,1.76,0,0,1-1.18.37Zm0-2v1.27h.36c.49,0,.74-.22.74-.64s-.25-.63-.74-.63Z"/><path class="f43592ab-1e9a-4d22-9cea-cb6b62584fdf" d="M491.38,162.41a1.88,1.88,0,0,1-1.42-.57,2.05,2.05,0,0,1-.56-1.49,2.21,2.21,0,0,1,.56-1.56,1.94,1.94,0,0,1,1.49-.59,1.85,1.85,0,0,1,1.41.57,2.09,2.09,0,0,1,.54,1.5,2.17,2.17,0,0,1-.56,1.55,1.94,1.94,0,0,1-1.46.59Zm0-3.42a.93.93,0,0,0-.77.36,1.56,1.56,0,0,0-.28,1,1.51,1.51,0,0,0,.28.95.91.91,0,0,0,.75.36.93.93,0,0,0,.75-.35,1.42,1.42,0,0,0,.28-1,1.57,1.57,0,0,0-.27-1,.87.87,0,0,0-.74-.35Z"/><path class="f43592ab-1e9a-4d22-9cea-cb6b62584fdf" d="M499.4,158.26l-1.08,4.08h-1l-.68-2.62a1.58,1.58,0,0,1-.06-.45h0a2.37,2.37,0,0,1-.07.45l-.69,2.62h-1.06l-1.07-4.08h1l.57,2.72a2.35,2.35,0,0,1,.06.46h0a2.48,2.48,0,0,1,.09-.48l.74-2.7h1l.67,2.74c0,.1,0,.25.06.44h0a3.87,3.87,0,0,1,.06-.46l.56-2.71h.93Z"/><path class="f43592ab-1e9a-4d22-9cea-cb6b62584fdf" d="M502.36,162.34h-2.44v-4.08h2.35V159h-1.44v.91h1.34v.74h-1.34v.93h1.53Z"/><path class="f43592ab-1e9a-4d22-9cea-cb6b62584fdf" d="M506.43,162.34h-1.05l-.64-1.05a1.93,1.93,0,0,0-.13-.21l-.13-.16a.67.67,0,0,0-.14-.11.41.41,0,0,0-.16,0h-.25v1.56H503v-4.08h1.46c1,0,1.48.37,1.48,1.11a1,1,0,0,1-.25.72,1,1,0,0,1-.29.25,1.4,1.4,0,0,1-.37.17h0a.56.56,0,0,1,.17.09.8.8,0,0,1,.17.15c.05.05.1.12.15.18l.13.19Zm-2.5-3.39v1.13h.4a.62.62,0,0,0,.47-.17.55.55,0,0,0,.19-.42c0-.36-.22-.54-.64-.54Z"/><path class="f43592ab-1e9a-4d22-9cea-cb6b62584fdf" d="M485.34,186.24h-.92v-1.65h-1.69v1.65h-.92v-4.07h.92v1.62h1.69v-1.62h.92Z"/><path class="f43592ab-1e9a-4d22-9cea-cb6b62584fdf" d="M488,186.32a1.85,1.85,0,0,1-1.42-.58,2,2,0,0,1-.55-1.48,2.17,2.17,0,0,1,.56-1.56,1.91,1.91,0,0,1,1.48-.6,1.85,1.85,0,0,1,1.41.57,2.13,2.13,0,0,1,.54,1.51,2.17,2.17,0,0,1-.56,1.55,1.93,1.93,0,0,1-1.46.59Zm0-3.43a.9.9,0,0,0-.76.36,1.52,1.52,0,0,0-.29,1,1.47,1.47,0,0,0,.29,1,1,1,0,0,0,1.49,0,1.44,1.44,0,0,0,.28-1,1.62,1.62,0,0,0-.27-1,.88.88,0,0,0-.74-.35Z"/><path class="f43592ab-1e9a-4d22-9cea-cb6b62584fdf" d="M493.11,186.24h-2.43v-4.07h.92v3.33h1.51Z"/><path class="f43592ab-1e9a-4d22-9cea-cb6b62584fdf" d="M493.66,186.24v-4.07h1.44c1.45,0,2.17.66,2.17,2a2,2,0,0,1-.59,1.52,2.23,2.23,0,0,1-1.58.56Zm.91-3.32v2.58H495a1.2,1.2,0,0,0,.93-.36,1.34,1.34,0,0,0,.34-1,1.25,1.25,0,0,0-.33-.92,1.31,1.31,0,0,0-1-.33Z"/><path class="f43592ab-1e9a-4d22-9cea-cb6b62584fdf" d="M300,207.89v-3.64H280.78v-1h20.65v6.1H282.58v5h-1.81v-6.46Z"/><path class="f43592ab-1e9a-4d22-9cea-cb6b62584fdf" d="M237.14,204.3v-1.09h20.31c0,.94,0,1.94,0,2.95v3.11H238.66a12.61,12.61,0,0,0-.09,2.52c0,.84,0,1.68,0,2.57h-1.37v-6.43h19.1V204.3Z"/><path class="f43592ab-1e9a-4d22-9cea-cb6b62584fdf" d="M257.14,214.36V213h9.78c0-3.29,0-6.53,0-9.82h11.61v1h-9.92l-.18.19a.43.43,0,0,0-.05.16v9.83Z"/><path class="f43592ab-1e9a-4d22-9cea-cb6b62584fdf" d="M47.55,45.28l-2.72-.87V32.6c.46.11.91.19,1.35.32.79.22,1.58.45,2.35.71a6,6,0,0,1,1.82.9,3,3,0,0,1,1,1.55,5,5,0,0,1,.16,1.59,2.75,2.75,0,0,1-.45,1.62,1.55,1.55,0,0,1-1.65.65c-.25,0-.48-.12-.72-.17s-.2-.12-.2-.28c0-1.33,0-2.67,0-4a.74.74,0,0,0-.46-.74c-.21-.09-.41,0-.5.37a.59.59,0,0,0,0,.19v10Z"/><path class="f43592ab-1e9a-4d22-9cea-cb6b62584fdf" d="M48,42.56C48,42,48,41.5,48,41a.19.19,0,0,1,.12-.13c.61-.14,1.21-.33,1.82-.41a14.42,14.42,0,0,1,1.86,0,5.45,5.45,0,0,1,1.65.29,3.89,3.89,0,0,1,1.35.59c.42.35.43.82-.12,1.22a6.27,6.27,0,0,1-1.63.73L48.7,44.83l-.72.26c0-.53,0-1,0-1.5,0-.06.09-.14.16-.16,1.07-.39,2.15-.76,3.23-1.14l1-.39a.36.36,0,0,0,.19-.15c0-.06,0-.19,0-.21a2,2,0,0,0-.47-.14,4.19,4.19,0,0,0-2,.42Z"/><path class="f43592ab-1e9a-4d22-9cea-cb6b62584fdf" d="M44.36,39.7c0,.53,0,1,0,1.51,0,0-.07.12-.13.14l-2.62.94a.89.89,0,0,0-.27.15s-.12.12-.11.17.09.11.15.14a1.84,1.84,0,0,0,1.18.06c.56-.17,1.11-.37,1.66-.55a.32.32,0,0,1,.14,0v1.47c-.76,0-1.51.1-2.25.06a9.18,9.18,0,0,1-1.8-.32A4.64,4.64,0,0,1,39.21,43a1,1,0,0,1-.43-.5c-.15-.43,0-.59.37-.83a5.2,5.2,0,0,1,1-.51c.82-.32,1.66-.61,2.5-.91.46-.17.92-.32,1.38-.48Z"/><path class="f43592ab-1e9a-4d22-9cea-cb6b62584fdf" d="M429.92,39.48c.17-1.45,1.21-2,2.44-2.31a8.45,8.45,0,0,1,4,0,5.59,5.59,0,0,1,1,.39c.51.25.55.24.66-.34h1.18v2.71h-1.09a3.1,3.1,0,0,0-2.06-1.71,4.83,4.83,0,0,0-3.14,0,2.13,2.13,0,0,0-.54.28c-.42.32-.4.79.09,1a6.89,6.89,0,0,0,1.45.4c1.26.24,2.54.42,3.81.67a3.74,3.74,0,0,1,1.14.5,1.86,1.86,0,0,1,.31,2.82,4,4,0,0,1-2.27,1.07.8.8,0,0,0-.2.07h-2.79l-.17-.07c-.63-.19-1.26-.35-1.88-.57-.44-.16-.46-.17-.61.27,0,.08-.1.19-.16.19-.37,0-.74,0-1.11,0V42h1a.31.31,0,0,1,.21.14,3.25,3.25,0,0,0,2.18,1.64,6.47,6.47,0,0,0,2.59.17,3.57,3.57,0,0,0,1.19-.36.79.79,0,0,0,.33-.6c0-.16-.22-.36-.38-.49a.89.89,0,0,0-.42-.15c-1.09-.2-2.19-.37-3.27-.59a23,23,0,0,1-2.31-.58,1.62,1.62,0,0,1-1-1c-.05-.15-.09-.32-.14-.48Z"/><path class="f43592ab-1e9a-4d22-9cea-cb6b62584fdf" d="M445.73,45c-.59-.14-1.18-.23-1.75-.41a4.07,4.07,0,0,1-2.38-1.78,3.66,3.66,0,0,1,1.45-5.07,7.86,7.86,0,0,1,3.9-.85,7.54,7.54,0,0,1,3.56.79,3.52,3.52,0,0,1,2,2.43,3.65,3.65,0,0,1-2.17,4.23,6.69,6.69,0,0,1-2.24.59,1.09,1.09,0,0,0-.24.07ZM450,41a3.27,3.27,0,0,0-.68-2.15c-1-1.22-3.29-1.22-4.42-.39a3,3,0,0,0-1.1,2.93,2.59,2.59,0,0,0,1.56,2.32,3.82,3.82,0,0,0,3.14,0A2.64,2.64,0,0,0,450,41Z"/><path class="f43592ab-1e9a-4d22-9cea-cb6b62584fdf" d="M453,38.2v-1h.72c1,0,2,0,2.94,0a.78.78,0,0,1,.57.23l4.46,4.19.11.08c0-.09,0-.15,0-.22,0-.9,0-1.79,0-2.69,0-.4-.08-.52-.49-.58s-.64,0-1,0v-.92h4.41v1c-.25,0-.51,0-.76,0-.48,0-.59.18-.59.67v6h-1.67a.54.54,0,0,1-.24-.14l-3.59-3.4L456,39.58a1.57,1.57,0,0,0,0,.25c0,1.14,0,2.29,0,3.43,0,.49.14.64.63.66h.93v.92H453v-.92h.79c.64,0,.77-.13.77-.78V38.87c0-.49-.11-.62-.6-.66-.31,0-.62,0-1,0Z"/><path class="f43592ab-1e9a-4d22-9cea-cb6b62584fdf" d="M473.9,43.85v.95h-5.55v-.95h.93c.57,0,.67-.13.67-.69a.15.15,0,0,1,0-.07,2.37,2.37,0,0,0-.86-2.25c-.75-.72-1.39-1.56-2.11-2.31a1.63,1.63,0,0,0-.77-.33,2.3,2.3,0,0,0-.59,0v-1h5v1a5.42,5.42,0,0,0-.57,0c-.3,0-.37.18-.18.4l1.44,1.57a.31.31,0,0,0,.51,0c.5-.53,1-1,1.48-1.58a.35.35,0,0,0,.1-.29c0-.06-.18-.09-.28-.1a3.08,3.08,0,0,0-.44,0v-1h4v1h-.53a1,1,0,0,0-.88.38c-.76.84-1.49,1.71-2.29,2.51a2.09,2.09,0,0,0-.69,1.76c.06,1,0,1,1,1Z"/><path class="f43592ab-1e9a-4d22-9cea-cb6b62584fdf" d="M347.11,212v5.47c0,.1,0,.21,0,.32a1.49,1.49,0,0,1-.26.65,2.39,2.39,0,0,1-.56.54,2.84,2.84,0,0,1-.92.42,1.48,1.48,0,0,1-.86,0,1,1,0,0,1-.38-.21.77.77,0,0,1-.28-.58,1.43,1.43,0,0,1,.35-1A2.54,2.54,0,0,1,345,217a2.1,2.1,0,0,1,.65-.23,1.42,1.42,0,0,1,.84.05l.22.1,0,0V209.5a.11.11,0,0,1,.1-.09H347c.06,0,.09,0,.1.1v.14a3.36,3.36,0,0,0,.2.94,6.1,6.1,0,0,0,.47,1c.21.34.42.68.62,1a8.31,8.31,0,0,1,.52,1,3.74,3.74,0,0,1,.24.87,3.25,3.25,0,0,1,0,.54,5.89,5.89,0,0,1-.4,1.85.25.25,0,0,1-.15.15.2.2,0,0,1-.23-.07.2.2,0,0,1,0-.22,6.41,6.41,0,0,0,.27-.81,4.8,4.8,0,0,0,.13-1,2.22,2.22,0,0,0-.2-1A4.81,4.81,0,0,0,348,213c-.27-.34-.56-.66-.86-1l0,0Z"/><path class="f43592ab-1e9a-4d22-9cea-cb6b62584fdf" d="M33.81,177.84l0-1a7.28,7.28,0,0,1,7.53,7.52l-1,0a6.12,6.12,0,0,0-1.84-4.63A6.22,6.22,0,0,0,33.81,177.84Z"/><path class="f43592ab-1e9a-4d22-9cea-cb6b62584fdf" d="M39.22,184.35l-1,0a4.18,4.18,0,0,0-4.37-4.37c0-.34,0-.69,0-1A5.2,5.2,0,0,1,39.22,184.35Z"/><path class="f43592ab-1e9a-4d22-9cea-cb6b62584fdf" d="M33.84,182l-.09-1a3.11,3.11,0,0,1,3.38,3.38l-1-.09A2.14,2.14,0,0,0,33.84,182Z"/><path class="f43592ab-1e9a-4d22-9cea-cb6b62584fdf" d="M34.76,183.36a1,1,0,1,1-1.46,0,1,1,0,0,1,1.46,0Z"/><path class="f43592ab-1e9a-4d22-9cea-cb6b62584fdf" d="M30.73,157.88c3.4,0,7.13-.21,7.13-.58a69.88,69.88,0,0,0-7.13-.15,69.88,69.88,0,0,0-7.13.15c0,.37,3.73.58,7.13.58"/><path class="f43592ab-1e9a-4d22-9cea-cb6b62584fdf" d="M30.73,159.05c1.63,0,5.32-.21,5.32-.51,0-.08-2.48-.1-5.32-.1s-5.31,0-5.31.1c0,.3,3.69.51,5.31.51"/><path class="f43592ab-1e9a-4d22-9cea-cb6b62584fdf" d="M30.73,160.06c1.8,0,3.84-.2,3.84-.43a31.93,31.93,0,0,0-3.84-.07,31.93,31.93,0,0,0-3.84.07c0,.23,2,.43,3.84.43"/><path class="f43592ab-1e9a-4d22-9cea-cb6b62584fdf" d="M30.73,156.49a3.4,3.4,0,0,0,.7-.05.44.44,0,0,0,.42-.42,4,4,0,0,0-.15-.93c-.09-.46.13-.68.71-.68s.87.34,1.19,1.19c.2.51.4.71,1.13.78a24.26,24.26,0,0,0,2.52.12c.84,0,.93-.25-.33-.45a2.42,2.42,0,0,1-1.56-.66c-.31-.36-.38-.59-.58-.84a1.3,1.3,0,0,0-.91-.44,24.64,24.64,0,0,0-3.14-.18,24.48,24.48,0,0,0-3.13.18,1.3,1.3,0,0,0-.91.44c-.2.25-.27.47-.58.84a2.42,2.42,0,0,1-1.56.66c-1.26.2-1.17.45-.33.45a23.91,23.91,0,0,0,2.51-.12c.74-.07.94-.27,1.13-.78.32-.85.48-1.19,1.19-1.19s.81.22.72.68a3.56,3.56,0,0,0-.15.93.44.44,0,0,0,.42.42,3.35,3.35,0,0,0,.69.05"/></svg>