<?xml version="1.0" encoding="utf-8"?>
<!-- Generator: Adobe Illustrator 24.1.2, SVG Export Plug-In . SVG Version: 6.00 Build 0)  -->
<svg version="1.1" id="Calque_1" xmlns="http://www.w3.org/2000/svg" xmlns:xlink="http://www.w3.org/1999/xlink" x="0px" y="0px"
	 viewBox="0 0 511 311.9" style="enable-background:new 0 0 511 311.9;" xml:space="preserve">
<style type="text/css">
	.st0{fill:#DBE0E1;}
	.st1{fill:#48484A;}
	.st2{fill:#8898A5;}
	.st3{fill:#C8C8C8;}
	.st4{fill:#97989A;}
	.st5{fill:#A69D93;}
	.st6{fill:#A78352;}
</style>
<g>
	<path class="st0" d="M510,74.6l-0.1-3.5l-0.2-4.7l-0.1-3.2l-0.2-5.5l-0.1-2.7l-0.2-6l-0.1-1.7l-0.2-6.3l-0.1-1.9l-0.2-6.4l-0.3-8.2
		c-5.1-15.6-18-24.2-38.3-24.2c-68.3-0.1-136.7,0-205,0V0H62.6C38.1,0,23.6,11.5,16.5,34.5C-4.4,101.9-2.4,170.4,5.9,239.2
		c4.2,34.9,24.2,50.1,58,49.3c31.1-0.7,62.2,0.9,93.2,0.8c17,0,33.7,2,50.3,5.2c63.8,12.2,127.8,23.1,193.2,13.8
		c27.8-4,55.1-9.6,81.1-20.5c16.3-6.8,27-18.9,27.9-36.9l0,0C512.5,192.2,510.1,133.4,510,74.6z M418.1,237.4
		c-1.5,13.9-5.9,17.4-20.4,18.5c-15.9,1.2-31.9,2.4-47.8,3.5c-22.4,1.6-44.8,2.9-67.2,4.6c-7.4,0.5-12.5-0.4-13.1-9.6
		c-0.3-5.9-5-8.9-11-9c-22.5,0-44.9-0.1-67.4,0c-6,0-10.1,2.6-10.2,9.3c-0.1,5.5-2.9,7.5-8.3,7.2c-5.8-0.3-11.7-0.5-17.5,0
		c-8.7,0.8-12.2-3.2-13.1-11.4c-3.3-31.9-4.1-63.8-5-95.8c-0.2-5.8,0-11.7,0-17.5c-0.1-33.6,0.6-67.1,7.3-100.1
		c3.8-19,7.4-22,26.8-21.3c77.2,2.7,154.2,7.5,231,15.2c10.5,1.1,13.3,4,15.5,15.9c3.3,18.5,4.5,37.3,5.1,56
		C424.1,147.8,423,192.7,418.1,237.4z"/>
	<path class="st1" d="M417.6,46.9c-2.1-11.9-5-14.9-15.5-15.9c-76.8-7.7-153.9-12.5-231-15.2c-19.3-0.7-22.9,2.3-26.8,21.3
		c-6.6,33-7.4,66.5-7.3,100.1c0,5.9-0.1,11.7,0,17.5c0.9,32,1.7,63.9,5,95.8c0.8,8.2,4.4,12.2,13.1,11.4c5.8-0.5,11.7-0.3,17.5,0
		c5.3,0.3,8.2-1.7,8.3-7.2c0.1-6.7,4.2-9.3,10.2-9.3c22.5-0.1,44.9-0.1,67.4,0c6,0,10.7,3,11,9c0.5,9.2,5.7,10.2,13.1,9.6
		c22.4-1.7,44.8-3.1,67.2-4.6c15.9-1.1,31.9-2.3,47.8-3.5c14.5-1.1,18.9-4.6,20.4-18.5c4.9-44.7,6.1-89.6,4.6-134.5
		C422.1,84.1,420.9,65.4,417.6,46.9z M391.8,217.6c-36.6-0.3-73.3-0.1-109.9-0.1c-36.3,0-72.6-0.2-109,0.2c-7.3,0.1-10-1.3-10-9.4
		c0.4-47.1,0.3-94.2,0-141.3c0-7.3,1.5-10.1,9.5-10.1c73.2,0.3,146.5,0.3,219.7,0c6.7,0,8.9,1.5,8.9,8.6c-0.3,47.7-0.4,95.4,0,143.1
		C401.3,216.3,398.7,217.6,391.8,217.6z"/>
</g>
<path class="st2" d="M493.5,206.1c0,3.8,0.7,15.4-9.3,16.7c-4.6,0.6-17.1-13.5-17.3-16.9c-0.3-4.1,12.6-17,17.1-16.4
	C493.9,190.8,493.5,202.3,493.5,206.1L493.5,206.1z"/>
<path class="st2" d="M467.3,235.7c-1.6,9.4-11.5,9.3-17,9.3s-15.4,0.5-16.8-9.2c-0.6-4.2,12.3-17.5,17.6-17.5
	C456.8,218.3,468,231.6,467.3,235.7z"/>
<path class="st3" d="M53.1,184.8l-4.1-5.9c0,0-0.8-2.4,0-2.2s0.8,0.3,0.8,0.3s2.6,1.4,3.3,2.2s11.2,10.1,12.8,11.5s7.7,7.1,11.2,7.1
	c3.8,0,6.7-2.6,8.8-4.1s19-14.7,19-14.7s1.9-1.2,2.8-0.4s-0.5,3-0.5,3s-20.5,20-21.4,22.1s-1.4,4.2,0.1,6.8c2.1,3.7,6.1,7,9.1,9.9
	c0,0,10.1,10.7,10.8,11.6s1.5,2.6,0.5,3.3s-8.8-5.8-8.8-5.8s-13.1-10.3-15-11.6s-6.1-3.9-11.2-0.4c-5.2,3.5-22.8,17.9-22.8,17.9
	s-2,0.7-2.5,0s20.3-21.8,20.3-21.8s3.1-3.2,3-6.7c-0.1-3.7-0.1-4.1-3-7.3S53.1,184.8,53.1,184.8L53.1,184.8z"/>
<path class="st3" d="M53.3,41.5l-4.1-5.9c0,0-0.8-2.4,0-2.2s0.8,0.3,0.8,0.3s2.6,1.4,3.3,2.2s11.2,10.1,12.8,11.5
	c1.6,1.4,7.7,7.1,11.2,7.2c3.8,0,6.7-2.6,8.8-4.1s19-14.7,19-14.7s1.9-1.2,2.8-0.4s-0.5,3-0.5,3S86.9,58.3,86,60.3s-1.4,4.2,0.1,6.8
	c2.1,3.7,6.1,7,9.1,9.9c0,0,10.1,10.7,10.8,11.6s1.5,2.6,0.5,3.3S97.8,86,97.8,86s-13.1-10.3-15-11.6s-6.1-3.9-11.2-0.4
	c-5.2,3.5-22.8,17.9-22.8,17.9s-2,0.7-2.5,0s20.3-21.8,20.3-21.8s3.1-3.2,3-6.7c-0.1-3.7-0.1-4.1-3-7.3
	C63.6,52.9,53.3,41.5,53.3,41.5L53.3,41.5z"/>
<path class="st4" d="M210.4,261.4h-16.3c-3.1,0-5.6-2.5-5.6-5.6c0-3.1,2.5-5.6,5.6-5.6h16.3c3.1,0,5.6,2.5,5.6,5.6
	C216,258.9,213.5,261.4,210.4,261.4z"/>
<path class="st4" d="M257.5,261.4h-16.3c-3.1,0-5.6-2.5-5.6-5.6c0-3.1,2.5-5.6,5.6-5.6h16.3c3.1,0,5.6,2.5,5.6,5.6
	C263.1,258.9,260.6,261.4,257.5,261.4z"/>
<path class="st2" d="M82.9,192.8c0,0,3.6-3.3,9.5-9.5c5-5.2,2.9-11.8-0.8-13.7c-3.4-1.8-4.3-2.2-13.2-2.2c-10.2,0-11.9,0.4-15.4,2.5
	c-3.9,2.3-5,8.5-1.4,12.6l10,10C74.5,195.5,79.7,195.6,82.9,192.8z"/>
<path class="st2" d="M63.6,200.3c0,0-3.3-3.6-9.5-9.5c-5.2-5-11.8-2.9-13.7,0.8c-1.8,3.4-2.2,4.3-2.2,13.2c0,10.2,0.4,11.9,2.5,15.4
	c2.3,3.9,8.5,5,12.6,1.4l10-10C66.3,208.7,66.4,203.5,63.6,200.3L63.6,200.3z"/>
<path class="st2" d="M71.3,220.2c0,0-3.6,3.3-9.5,9.5c-5,5.2-2.9,11.8,0.8,13.7c3.4,1.8,4.3,2.2,13.2,2.2c10.2,0,11.9-0.4,15.4-2.5
	c3.9-2.3,5-8.5,1.4-12.6l-10-10C79.7,217.4,74.5,217.3,71.3,220.2z"/>
<path class="st2" d="M90.7,212.7c0,0,3.3,3.6,9.5,9.5c5.2,5,11.8,2.9,13.7-0.8c1.8-3.4,2.2-4.3,2.2-13.2c0-10.2-0.4-11.9-2.5-15.4
	c-2.3-3.9-8.5-5-12.6-1.4l-10,10C87.9,204.3,87.8,209.5,90.7,212.7L90.7,212.7z"/>
<path class="st2" d="M83.2,49.2c0,0,3.6-3.3,9.5-9.5c5-5.2,2.9-11.8-0.8-13.7c-3.4-1.8-4.3-2.2-13.2-2.2c-10.2,0-11.9,0.4-15.4,2.5
	c-3.9,2.3-5,8.5-1.4,12.6l10,10C74.8,52,80,52.1,83.2,49.2z"/>
<path class="st2" d="M63.8,56.8c0,0-3.3-3.6-9.5-9.5c-5.2-5-11.8-2.9-13.7,0.8c-1.8,3.4-2.2,4.3-2.2,13.2c0,10.2,0.4,11.9,2.5,15.4
	c2.3,3.9,8.5,5,12.6,1.4l10-10C66.6,65.2,66.7,60,63.8,56.8z"/>
<path class="st2" d="M71.6,76.6c0,0-3.6,3.3-9.5,9.5c-5,5.2-2.9,11.8,0.8,13.7c3.4,1.8,4.3,2.2,13.2,2.2c10.2,0,11.9-0.4,15.4-2.5
	c3.9-2.3,5-8.5,1.4-12.6l-10-10C80,73.9,74.8,73.8,71.6,76.6L71.6,76.6z"/>
<path class="st2" d="M91,69.1c0,0,3.3,3.6,9.5,9.5c5.2,5,11.8,2.9,13.7-0.8c1.8-3.4,2.2-4.3,2.2-13.2c0-10.2-0.4-11.9-2.5-15.4
	c-2.3-3.9-8.5-5-12.6-1.4l-10,10C88.2,60.7,88.1,65.9,91,69.1z"/>
<g>
	<circle class="st3" cx="78.3" cy="18.2" r="2.2"/>
	<circle class="st3" cx="123.6" cy="60.1" r="2.2"/>
	<circle class="st3" cx="123.6" cy="66.4" r="2.2"/>
	<circle class="st3" cx="81.9" cy="107.8" r="2.2"/>
	<circle class="st3" cx="76" cy="107.8" r="2.2"/>
	<circle class="st3" cx="69.9" cy="107.8" r="2.2"/>
	<circle class="st3" cx="30.9" cy="70.8" r="2.2"/>
	<circle class="st3" cx="30.4" cy="65" r="2.2"/>
	<circle class="st3" cx="30.4" cy="59.2" r="2.2"/>
	<circle class="st3" cx="31.7" cy="53.1" r="2.2"/>
	<circle class="st3" cx="78.3" cy="160.9" r="2.2"/>
	<circle class="st3" cx="123.6" cy="202.9" r="2.2"/>
	<circle class="st3" cx="123.6" cy="209.2" r="2.2"/>
	<circle class="st3" cx="81.9" cy="250.6" r="2.2"/>
	<circle class="st3" cx="76" cy="250.6" r="2.2"/>
	<circle class="st3" cx="69.9" cy="250.6" r="2.2"/>
	<circle class="st3" cx="30.9" cy="213.6" r="2.2"/>
	<circle class="st3" cx="30.4" cy="207.8" r="2.2"/>
	<circle class="st3" cx="30.4" cy="202" r="2.2"/>
	<circle class="st3" cx="31.7" cy="195.9" r="2.2"/>
	<path class="st3" d="M508.7,39l-36.6-2.4c-1.1,0-2-0.9-2-2c0-0.5,0.2-1.1,0.6-1.4c0.4-0.4,0.9-0.6,1.4-0.6h36.4L508.7,39z"/>
	<path class="st3" d="M509,47.2c-0.1,0-0.2,0.1-0.3,0.1l-36.6-2.4c-1.1,0-2-0.9-2-2c0-0.5,0.2-1,0.6-1.4c0.4-0.4,0.9-0.6,1.4-0.6
		h36.6c0,0,0.1,0,0.1,0L509,47.2z"/>
	<path class="st3" d="M509.3,55c-0.2,0.2-0.4,0.3-0.6,0.3l-36.6-2.4c-1.1,0-2-0.9-2-2c0-0.5,0.2-1.1,0.6-1.4s0.9-0.6,1.4-0.6h36.6
		c0.1,0,0.3,0,0.4,0L509.3,55z"/>
	<path class="st3" d="M509.6,63.2c-0.3,0.4-0.6,0.7-0.9,0.7l-36.6-2.4c-1.1,0-2-0.9-2-2c0-0.5,0.2-1,0.6-1.4
		c0.4-0.4,0.9-0.6,1.4-0.6h36.6c0.3,0,0.5,0.1,0.8,0.1L509.6,63.2z"/>
	<path class="st3" d="M509.9,71.1c-0.3,0.8-0.7,1.3-1.2,1.3L472.1,70c-1.1,0-2-0.9-2-2c0-0.5,0.2-1,0.6-1.4c0.4-0.4,0.9-0.6,1.4-0.6
		h36.6c0.4,0,0.8,0.1,1.1,0.3L509.9,71.1z"/>
</g>
<path class="st5" d="M500.4,34h7.5v3.2h-7.5L500.4,34z"/>
<path class="st5" d="M500.4,42.5h7.5v3.2h-7.5L500.4,42.5z"/>
<path class="st5" d="M500.4,50.5h7.5v3.2h-7.5L500.4,50.5z"/>
<path class="st5" d="M500.4,59.1h7.5v3.2h-7.5L500.4,59.1z"/>
<path class="st5" d="M500.4,67.6h7.5v3.2h-7.5L500.4,67.6z"/>
<path class="st3" d="M463.4,114c0,0,9.3,16.5,20.6,26.3c11.3,9.8,14.7,19.8,14.7,29.4v41c0,0,0.3,30.7-25.2,39.9
	c-29.6,10.7-176.5,22.9-176.5,22.9s132.7-8.5,178-20.6c25.7-6.9,30.2-32.8,30.5-56.2c0.2-17.9-1.3-34.6-2.2-38.6
	c-1.5-7.2-13.1-16.5-19.3-21.9C477.8,130.7,467,120.1,463.4,114L463.4,114z"/>
<path class="st6" d="M282.1,45.3c0.9-0.6,1.5-1.9,2.8-1.8c0.5,0,1,0,1.5,0c-0.6,2.9-1.3,5.6-1.9,8.4c1.5-0.5,1.4-0.6,1.9-2.1
	c0.5-1.5,0.9-3.1,1.2-4.7c0.2-0.7,1.3-1.6,2-1.6c0.8,0,1.6-0.1,2.4,0.1c-0.6,2.8-1.2,5.5-1.9,8.4c1-0.6,1.7-1.2,1.9-2.3
	c0.2-1.3,0.5-2.6,0.8-3.9c0.2-0.9,1-1.3,1.5-2c0.3-0.4,0.7-0.2,1-0.2c0.6,0,1.2,0,1.8,0c-0.6,2.7-1.3,5.3-1.9,7.9
	c-0.1,0.6-0.1,0.5-0.8,1.3c-0.9,0.8,0,0-0.9,0.8c-0.5,0.5-1.1,0.8-1.9,0.8c-3.8,0-7.7,0-11.5,0C280.2,54,282.1,45.4,282.1,45.3
	L282.1,45.3z"/>
<path class="st6" d="M395.9,53.8c-1.2,0-2.5,0-3.8,0c0.3-1.1,0.5-2.1,0.8-3.2c0.4-1.4,0-1.8-1.3-1.8c-0.3,0-0.6,0-1,0
	c-0.3,1.1-0.6,2.3-0.9,3.4c-0.4,1.3-1.2,1.9-2.4,1.9c-0.7,0-1.4,0.2-2.1-0.1c0.3-1.5,1.7-6,1.9-6.6h5.7c0.7,0,1.4,0,2,0
	c0.8,0,1.4,0.3,1.9,0.9C396.7,48.8,396.1,52.6,395.9,53.8z"/>
<path class="st6" d="M339,49.5c0.9-0.9,1.8-1.3,2.7-1.9c0.4-0.3,0.8-0.3,1.2-0.3c1.6,0,3.2,0,4.8,0c0.5,0,1,0.1,1.4,0.4
	c0.8,0.5,1,1.1,0.5,1.9c-0.3,0.5-0.7,0.8-1.3,1c-1,0.3-2,0.3-3,0c0-0.2,0-0.3,0.1-0.3c0.1-0.4,0.6-0.7,0.2-1.2
	c-0.2-0.2-1.1-0.2-1.5,0c-0.9,0.4-1.2,1.3-1.4,2.2c-0.2,1-0.6,1.9-0.7,2.8c-1.3,0-2.6,0-3.9,0c0.3-1.4,0.6-2.8,0.9-4.3
	c-0.5,0.2-0.8,0.6-1,0.9c-1.2,1.2-2.6,1.5-4.1,1.3c-0.6-0.1-1.2,0-1.8,0c-0.2,0.3-0.1,0.5,0,0.8h5c-0.7,0.9-1.5,1.6-2.6,1.6
	c-1.5,0-3,0-4.5,0c-0.3,0-0.6,0-0.9-0.1c-1-0.5-1.4-0.8-1-2.2c0.3-1.1,0.4-2.2,1.3-3c0.6-0.5,1.2-1,1.8-1.5c0.3-0.2,0.5-0.1,0.8-0.1
	c1.9,0,3.8,0,5.8,0c1,0,1.3,0.2,1.3,1.4C339,48.9,339,49.1,339,49.5L339,49.5z M335.9,48.8c-2.8-0.1-3.3,0.2-3.5,1.4
	C334.5,50.5,334.6,50.4,335.9,48.8z"/>
<path class="st6" d="M345,54.2c0.7-0.7,1.3-1.4,2-2.1c0.2-0.3,0.5-0.2,0.8-0.2c2.7,0.1,5.3-0.1,8,0.1c0.6,0.1,0.8-0.3,1-1.4
	c-1.2,0-2.3-0.1-3.5,0c-1.3,0.1-2.2-0.7-2.1-2.3c0.1-1.8,0.9-3.1,2.2-4.1c0.2-0.2,0.5-0.3,0.9-0.3c2.7,0,5.5,0,8.4,0
	c-0.6,0.7-1.1,1.2-1.6,1.7c-0.3,0.3-0.5,0.2-0.8,0.2c-1.1,0-2.2,0-3.3,0c-1.1,0-1.5,0.4-1.8,1.8c1.2,0,2.4,0,3.6,0
	c0.8,0,1.5,0.3,1.9,1s0.4,1.5,0.2,2.2c-0.2,1.4-0.9,2.5-2.2,3.2c-0.3,0.2-0.6,0.3-1,0.3c-4.2,0-8.3,0-12.5,0
	C345.2,54.3,345.1,54.2,345,54.2L345,54.2z"/>
<path class="st6" d="M370,52.2c0.9-0.5,1.6-1.1,1.8-2.3c0.3-1.4,0.8-1.7,1.5-2.5c0.4-0.4,0.9-0.2,1.4-0.2c0.3,0,0.7,0,1,0
	c-0.1,1.6-0.7,3-0.9,4.5c-0.1,0.7-2.2,1.9-2.6,2.4c-0.2,0.2-0.4,0.2-0.6,0.2c-3.7,0-7.3,0-11,0c-0.1,0-0.1-0.1-0.2-0.1
	c0.2-1.6,0.6-3.1,0.9-4.6c0.2-0.9,1.1-1.4,1.7-2.1c0.4-0.4,0.8-0.1,1.3-0.2c0.4,0,0.7,0,1.2,0c-0.1,1.8-0.7,3.4-1,5.1
	c0.1,0.2,0.2,0,0.3,0c1.5-0.5,1.6-1.8,1.8-3.1c0.2-1,1.1-2,2.1-2c0.7,0,1.3,0,2,0c0.1,0,0.1,0,0.2,0.1C370.6,48.9,370,52.3,370,52.2
	L370,52.2z"/>
<path class="st6" d="M330.2,44.8c-0.6,0.8-1,1.6-1.5,2.2c-0.6,0.7-0.7,1.6-0.9,2.5c-0.3,1.5-0.7,3.1-1,4.7c-1.4,0-2.7,0-4.1,0
	c-1.2,0-2.3,0-3.5,0c-1.4,0-2.1-0.8-1.8-2.3c0.1-0.7,0.3-1.3,0.5-1.9c0.2-0.6,0.3-0.9,0.8-1.3c0.4-0.3,0,0,1.4-1
	c0.9-0.6,0.8-0.5,1.3-0.5c0.9,0,1.7,0,2.6,0c0.5,0,0.9-0.1,1.2-0.6c0.9-1.3,0.5-0.8,0.9-1.3c0.2-0.2,0.3-0.5,0.7-0.5
	C327.8,44.8,329,44.8,330.2,44.8z M324.7,48.9c-0.6-0.2-1-0.1-1.4-0.1c-0.7,0-1.5,0.4-1.7,1.4c-0.2,0.7-0.5,1.6-0.2,2.5
	c1.5,0.1,2.4-0.1,2.9-1.6C324.5,50.5,324.7,49.6,324.7,48.9z"/>
<path class="st6" d="M306.2,51.3c-0.1,0.6-0.4,1-0.9,1.3c-0.7,0.5-1.4,0.9-2.1,1.4c-0.3,0.2-0.6,0.2-0.9,0.2c-1.6,0-3.3,0.1-4.9,0
	c-1.5-0.1-2-1-1.7-2.3c0.1-0.5,0.2-1,0.4-1.4c0.2-0.6,0.5-1.3,1.1-1.8c1.2-1,0.8-0.7,1.2-1c0.4-0.3,0.9-0.5,1.5-0.5
	c1.8,0.1,3.5,0,5.3,0c1.3,0,1.9,0.8,1.5,2.2C306.6,49.7,306.3,51,306.2,51.3L306.2,51.3z M299.9,52.7c2.2,0,3-1.6,2.9-3.9
	C300.7,48.5,299.4,49.5,299.9,52.7z"/>
<path class="st6" d="M384.9,53.8c-2.7,0-5.4,0-8.1,0c-0.7,0-1.4-1-1.5-1.9c-0.2-1.9,0.7-3.1,2.2-4.1c0.7-0.5,1.4-0.7,2.3-0.6
	c2.3,0,4.7,0,7,0C386.7,47.9,385.3,52.4,384.9,53.8z M382.5,48.9c-0.9-0.3-1.7-0.4-2.4,0.5c-0.3,0.4-0.6,0.8-0.8,1.2
	c-0.2,0.4-0.4,0.9,0,1.4c0.4,0.5,0.9,0.8,1.5,0.9c0.4,0.1,0.6-0.1,0.7-0.6C381.8,51.2,382.1,50.1,382.5,48.9L382.5,48.9z"/>
<path class="st6" d="M307.4,47.9c0.2-0.5,0.4-0.7,0.8-0.7c2.4,0,4.9,0,7.3,0c1,0,1.6,0.6,1.6,1.7c0,1.4-0.5,2.6-0.8,4
	c-0.1,0.3,0,0.6-0.2,0.9c-1.1,0-2.2,0-3.5,0c0.2-1,0.3-2,0.5-2.9c0.1-0.4,0.1-0.7,0.1-1.1c0-0.7-0.3-1-0.9-1c-0.5,0-1,0-1.5,0
	c-0.3,1.1-0.5,2.2-0.8,3.3c-0.4,1.3-1.3,2-2.5,2c-1.8,0-1.8,0-1.4-1.8C306.5,51.6,307.1,48.7,307.4,47.9L307.4,47.9z"/>
<path class="st3" d="M438.4,216h-3.1l2.2-9.2h2.4c1.8,0,2.4,0.1,3,0.4c0.6,0.3,0.9,0.9,0.9,1.5c0,0.9-0.5,1.8-1.7,2.2
	c1.1,0.4,1.5,0.9,1.5,1.7C443.6,214.5,441.8,216,438.4,216L438.4,216z M439.4,212h-1l-0.6,2.3h1.1c1.8,0,2.5-0.6,2.5-1.4
	C441.4,212.3,440.8,212,439.4,212L439.4,212z M440.1,208.4h-0.9l-0.4,1.9h0.7c1.6,0,2.1-0.5,2.1-1.2
	C441.6,208.7,441.1,208.4,440.1,208.4z"/>
<path class="st3" d="M37.6,245.2l1.1-3.8l-3.9,0.3l-1.3-1.6l5.7-0.4l1.6-5.5l1.3,1.6l-1.2,3.8l4-0.3l1.3,1.6l-5.7,0.5l-1.6,5.5
	L37.6,245.2z"/>
<path class="st3" d="M41,97.7l-2.7,2.2l-1.1-1.4l2.7-2.2l2.7-6.2l1.2,1.5L41.7,96l4.7-1.1l1.2,1.5L41,97.7z"/>
<path class="st3" d="M467.3,194.4l-0.6-2.6h-3.5l-1.6,2.6h-2l6-9.9h1.5l2.3,9.9H467.3z M465.8,187.1l-1.6,3h2.1L465.8,187.1z"/>
<path class="st6" d="M215.1,228.8c-0.8-0.8-1-1.7-0.4-2.4l0.8,0.8c-0.2,0.3-0.2,0.6,0.2,1c0.3,0.3,0.7,0.4,1,0.2
	c0.1-0.1,0.2-0.3,0.1-0.5c-0.1-0.2-0.1-0.3-0.5-1c-0.4-0.7-0.4-1.4,0-1.8c0.5-0.5,1.5-0.3,2.1,0.4c0.7,0.7,0.9,1.6,0.4,2.2l-0.8-0.8
	c0.2-0.2,0.2-0.5-0.1-0.8c-0.3-0.3-0.6-0.3-0.8-0.1c-0.1,0.1-0.1,0.3-0.1,0.5c0,0.1,0,0.1,0.3,0.6c0.6,1.1,0.6,1.6,0.1,2.1
	C216.9,229.8,215.9,229.6,215.1,228.8L215.1,228.8z"/>
<path class="st6" d="M220.9,229.3l-2.6,2.6l-0.8-0.8l2.6-2.6l-0.8-0.8l0.6-0.6l2.4,2.4l-0.6,0.6L220.9,229.3z"/>
<path class="st6" d="M222.2,235.9l0.4-1.3l-1.5-1.5l-1.3,0.3l-0.9-0.9l5-1.4l0.6,0.6l-1.4,5L222.2,235.9z M223.4,232.3l-1.4,0.5
	l0.9,0.9L223.4,232.3z"/>
<path class="st6" d="M225.4,239.1l0.1-2.3l-1.2,1.2l-0.8-0.8l3.2-3.2l1.2,1.2c0.6,0.6,0.8,1,0.9,1.4c0.1,0.5,0,0.9-0.3,1.2
	c-0.5,0.5-1.2,0.5-2.1-0.1l0,2.3L225.4,239.1z M227.3,235.8l-0.4-0.4l-1,1l0.4,0.4c0.6,0.6,1,0.7,1.4,0.4
	C228,236.9,228.1,236.5,227.3,235.8L227.3,235.8z"/>
<path class="st6" d="M230.8,239.3l-2.6,2.6l-0.8-0.8l2.6-2.6l-0.8-0.8l0.6-0.6l2.4,2.4l-0.6,0.6L230.8,239.3z"/>
<path class="st6" d="M228.1,245.3L207.9,225l0.8-0.8l21.1,21.1L228.1,245.3z"/>
<path class="st6" d="M161.9,224.2l22.7,22.7l-1,1l-22.7-22.7L161.9,224.2z"/>
<path class="st6" d="M167.7,228.7c-0.7-0.7-0.8-1.6-0.1-2.3l0.7,0.7c-0.3,0.3-0.3,0.6,0.1,1c0.3,0.3,0.7,0.3,0.9,0.1
	c0.1-0.1,0.2-0.3,0.2-0.5s-0.1-0.2-0.4-0.9c-0.3-0.7-0.2-1.3,0.2-1.8c0.6-0.6,1.5-0.5,2.1,0.1s0.7,1.5,0.1,2.1l-0.7-0.7
	c0.2-0.3,0.2-0.5,0-0.8c-0.2-0.2-0.5-0.2-0.7,0c-0.1,0.1-0.2,0.3-0.1,0.5c0,0.1,0,0.1,0.3,0.6c0.5,1,0.4,1.6-0.1,2
	C169.4,229.3,168.4,229.3,167.7,228.7L167.7,228.7z"/>
<path class="st6" d="M171.2,232.1c-1.1-1.1-1.1-2.8-0.1-3.8c1.1-1,2.7-1,3.8,0.1c1.1,1.1,1.1,2.8,0.1,3.8
	C173.9,233.2,172.3,233.2,171.2,232.1z M174.3,229c-0.7-0.7-1.8-0.7-2.5,0c-0.7,0.7-0.7,1.8,0,2.5s1.8,0.7,2.4,0
	S174.9,229.7,174.3,229z"/>
<path class="st6" d="M174.9,235.8c-0.7-0.7-0.8-1.7,0.1-2.6l2.3-2.3l0.7,0.7l-2.3,2.3c-0.6,0.6-0.5,1-0.2,1.3
	c0.3,0.3,0.7,0.4,1.3-0.2l2.3-2.3l0.7,0.7l-2.3,2.3C176.6,236.6,175.6,236.6,174.9,235.8L174.9,235.8z"/>
<path class="st6" d="M179.2,240l1.1-4.2l-2.6,2.6l-0.7-0.7l3.6-3.6l0.8,0.8l-1.1,4.2l2.6-2.6l0.7,0.7l-3.6,3.6L179.2,240z"/>
<path class="st6" d="M182.9,243.4c-0.4-0.2-0.8-0.4-1.4-1l-0.9-0.9l3.6-3.6l0.9,0.9c0.6,0.6,0.9,1.1,1.1,1.6
	c0.2,0.8-0.1,1.7-0.7,2.4C184.7,243.4,183.8,243.7,182.9,243.4L182.9,243.4z M185.2,240.4c-0.1-0.3-0.3-0.6-0.7-1l-0.1-0.1l-2.3,2.3
	l0.2,0.2c0.4,0.4,0.7,0.7,1.1,0.8c0.5,0.2,1.1,0,1.5-0.4C185.2,241.5,185.4,240.9,185.2,240.4L185.2,240.4z"/>
</svg>
