<svg xmlns="http://www.w3.org/2000/svg" xmlns:xlink="http://www.w3.org/1999/xlink" viewBox="0 0 470.33 67.41"><defs><style>.a2af08db-5a9b-47cf-aa79-f295851c4b46{stroke:#9def48;stroke-miterlimit:10;stroke-width:0.75px;fill:url(#a8a13eee-f66c-460a-a787-7336b436145c);}.b6d8ea4d-e246-40e2-ac74-ff477763358d{fill:#9def48;}.fc090f86-ab53-4cf2-ba86-3a4a5d33d2d7{fill:#ed1c24;}.b042bf0a-1115-438f-a66e-0075e3d66fed{fill:#fff;}</style><linearGradient id="a8a13eee-f66c-460a-a787-7336b436145c" x1="0.38" y1="33.7" x2="469.96" y2="33.7" gradientUnits="userSpaceOnUse"><stop offset="0" stop-color="#032c02"/><stop offset="1" stop-color="#207a09"/></linearGradient></defs><g id="a36de656-6d6b-4ba0-a40d-09167073edf0" data-name="texte"><polygon class="a2af08db-5a9b-47cf-aa79-f295851c4b46" points="0.38 5.91 102.44 5.91 108.57 0.38 150.31 0.38 158.22 5.91 461.65 6.11 469.96 16 469.96 59.72 50.81 59.72 42.7 67.03 7.89 67.03 0.38 59.72 0.38 5.91"/><path class="b6d8ea4d-e246-40e2-ac74-ff477763358d" d="M66.46,40.69V26.58H70.4V40.69h7.65a15.87,15.87,0,0,0,2.26-7.95,15.93,15.93,0,0,0-2.26-8H75.41V20.84h4.75a17.67,17.67,0,0,1,4.1,11.9,17.64,17.64,0,0,1-4.1,11.9H70.4v3.74H66.46V44.64H56.7a17.64,17.64,0,0,1-4.1-11.9,17.67,17.67,0,0,1,4.1-11.9h4.75v3.95H58.83a15.86,15.86,0,0,0-2.28,8,15.8,15.8,0,0,0,2.28,7.95Z" transform="translate(-0.06 -0.03)"/><path class="b6d8ea4d-e246-40e2-ac74-ff477763358d" d="M115.14,44.64H91.68a17.69,17.69,0,0,1-4.1-11.9,17.64,17.64,0,0,1,4.1-11.9h23.46a17.64,17.64,0,0,1,4.1,11.9A17.69,17.69,0,0,1,115.14,44.64Zm-2.11-4a16.06,16.06,0,0,0,2.26-7.95,16,16,0,0,0-2.26-8H93.81a15.8,15.8,0,0,0-2.28,8,15.89,15.89,0,0,0,2.28,7.95Z" transform="translate(-0.06 -0.03)"/><path class="b6d8ea4d-e246-40e2-ac74-ff477763358d" d="M128.78,24.79a15.89,15.89,0,0,0-2.27,8,16,16,0,0,0,2.27,7.95h2.63v4h-4.75a17.69,17.69,0,0,1-4.1-11.9,17.64,17.64,0,0,1,4.1-11.9h23.46a17.64,17.64,0,0,1,4.1,11.9,17.69,17.69,0,0,1-4.1,11.9h-4.75v-4H148a16.06,16.06,0,0,0,2.26-7.95,16,16,0,0,0-2.26-8Z" transform="translate(-0.06 -0.03)"/><path class="b6d8ea4d-e246-40e2-ac74-ff477763358d" d="M158.37,20.84H184.6a17.64,17.64,0,0,1,4.1,11.9,17.69,17.69,0,0,1-4.1,11.9H158.37Zm3.95,19.85h20.17a16,16,0,0,0,2.26-7.95,15.87,15.87,0,0,0-2.26-8H162.32Z" transform="translate(-0.06 -0.03)"/><path class="b6d8ea4d-e246-40e2-ac74-ff477763358d" d="M216.19,34.7H199.76a16.85,16.85,0,0,0,2.14,6h19.55l2.28,4h-24a17.14,17.14,0,0,1-4-9.94H192V30.76h3.74a17.05,17.05,0,0,1,4-9.92h24l-2.28,3.95H201.9a16.69,16.69,0,0,0-2.14,6h16.43Z" transform="translate(-0.06 -0.03)"/><path class="b6d8ea4d-e246-40e2-ac74-ff477763358d" d="M249.36,40.69H252a17.22,17.22,0,0,0,2.13-6H230.64a16.85,16.85,0,0,0,2.14,6h2.62v4h-4.75a17.22,17.22,0,0,1-4-9.94H222.9V30.76h3.73a17.13,17.13,0,0,1,4-9.92h23.46a17,17,0,0,1,4,9.94l-1.71,1v2l1.71,1a17.09,17.09,0,0,1-4,9.94h-4.75Zm-18.72-9.93h23.49a17.06,17.06,0,0,0-2.13-6H232.78A16.69,16.69,0,0,0,230.64,30.76Z" transform="translate(-0.06 -0.03)"/><path class="b6d8ea4d-e246-40e2-ac74-ff477763358d" d="M291.31,30.76l1.8,2a17.64,17.64,0,0,1-4.1,11.9H265.55A16.6,16.6,0,0,1,262,37.55h4.25a18.33,18.33,0,0,0,1.44,3.14H286.9a16.48,16.48,0,0,0,2.12-6H263.24l-1.79-2a17.62,17.62,0,0,1,4.1-11.9H289a16.79,16.79,0,0,1,3.57,7.08h-4.25a18.53,18.53,0,0,0-1.43-3.13H267.67a16.89,16.89,0,0,0-2.14,6Z" transform="translate(-0.06 -0.03)"/><path class="b6d8ea4d-e246-40e2-ac74-ff477763358d" d="M310.29,40.69V26.58h3.93V40.69h7.66a16,16,0,0,0,2.26-7.95,16,16,0,0,0-2.26-8h-2.64V20.84H324a17.67,17.67,0,0,1,4.1,11.9,17.64,17.64,0,0,1-4.1,11.9h-9.77v3.74h-3.93V44.64h-9.76a17.59,17.59,0,0,1-4.1-11.9,17.62,17.62,0,0,1,4.1-11.9h4.75v3.95h-2.63a15.94,15.94,0,0,0-2.27,8,15.89,15.89,0,0,0,2.27,7.95Z" transform="translate(-0.06 -0.03)"/><path class="b6d8ea4d-e246-40e2-ac74-ff477763358d" d="M338,38l-4.16,6.62h-4.93L344,20.84h4.55l15,23.8h-4.87L354.62,38Zm14.15-3.94-5.81-9.31-5.86,9.31Z" transform="translate(-0.06 -0.03)"/><path class="b6d8ea4d-e246-40e2-ac74-ff477763358d" d="M370.65,24.79a15.89,15.89,0,0,0-2.27,8,16,16,0,0,0,2.27,7.95h2.63v4h-4.75a17.64,17.64,0,0,1-4.1-11.9,17.59,17.59,0,0,1,4.1-11.9H392a17.64,17.64,0,0,1,4.1,11.9,17.69,17.69,0,0,1-4.1,11.9h-4.75v-4h2.64a16.06,16.06,0,0,0,2.26-7.95,16,16,0,0,0-2.26-8Z" transform="translate(-0.06 -0.03)"/></g><g id="a2acc367-d146-4e2e-9a20-0c36dd35d26a" data-name="bandai"><rect class="fc090f86-ab53-4cf2-ba86-3a4a5d33d2d7" x="3.21" y="14.07" width="44.03" height="45.35" rx="3.31"/><path class="b042bf0a-1115-438f-a66e-0075e3d66fed" d="M21.38,49.19c0-.9-.33-2.06-1.46-2.06-1.32,0-1.49,1.23-1.49,2v1.49H15.72V49.29c0-1.2-.37-1.79-1.39-1.79s-1.39.73-1.39,1.79v2.48h8.44Zm-2.32-5.43a4.73,4.73,0,0,1,1.29-.14,3.87,3.87,0,0,1,1.82.43,4,4,0,0,1,1.66,1.56A4.29,4.29,0,0,1,24.29,47a12.28,12.28,0,0,1,.17,2v6.19H10.09V47.66a4.88,4.88,0,0,1,.4-1.88,3.53,3.53,0,0,1,1.09-1.3,4.18,4.18,0,0,1,2.15-.66,3.66,3.66,0,0,1,2,.53,2.93,2.93,0,0,1,.79.53,3.36,3.36,0,0,1,.47.9,2.39,2.39,0,0,1,.86-1.39,3,3,0,0,1,1.25-.67m-4-6.85L24.49,34V30.38l-14.37,5v3.51l14.34,5V35.75H21.35v3.5l-6.23-2-.63-.17Zm-5-18.54h14.4v3.51L17,26.24l-.56.27h8V30H10.09v-3.5L17.87,22l.46-.23H10.09Zm23.51,28c-3,0-4.24,1.42-4.24,4.14v1.26h8.28V49.52c0-1.23-.47-3.15-4-3.15m.1-3.47c5.06,0,7,3.64,7,6.29v6H26.38v-6c0-2.26,1.06-6.29,7.35-6.29m-2.35-6L40.71,34V30.38l-14.33,5v3.51l14.33,5V35.75H37.6v3.5l-6.22-2-.6-.17Zm9.33-10.36V30H26.38V26.54Z" transform="translate(-0.06 -0.03)"/></g></svg>