<svg id="b06580eb-60af-4d3f-a706-759e96c39d17" data-name="texte" xmlns="http://www.w3.org/2000/svg" xmlns:xlink="http://www.w3.org/1999/xlink" viewBox="0 0 470.33 67.41"><defs><style>.e2cb4dc7-de4e-453a-b60f-5198e02250f7{stroke:#9def48;stroke-miterlimit:10;stroke-width:0.75px;fill:url(#aa8d6136-0fcc-4ce0-af83-35e7ab32e9c9);}.b87ef573-13a6-4fc0-b02f-3d39ed74a669{fill:#9def48;}</style><linearGradient id="aa8d6136-0fcc-4ce0-af83-35e7ab32e9c9" x1="0.38" y1="33.7" x2="469.96" y2="33.7" gradientUnits="userSpaceOnUse"><stop offset="0" stop-color="#032c02"/><stop offset="1" stop-color="#207a09"/></linearGradient></defs><polygon class="e2cb4dc7-de4e-453a-b60f-5198e02250f7" points="0.38 5.91 102.44 5.91 108.57 0.38 150.31 0.38 158.22 5.91 461.65 6.11 469.96 16 469.96 59.72 50.81 59.72 42.7 67.03 7.89 67.03 0.38 59.72 0.38 5.91"/><path class="b87ef573-13a6-4fc0-b02f-3d39ed74a669" d="M64.64,26H57.9a14,14,0,0,0-2,7,14.08,14.08,0,0,0,2,7h2.31v3.48H56A15.6,15.6,0,0,1,52.4,33,15.57,15.57,0,0,1,56,22.48h8.62v-3.3h3.47v3.3h8.61A15.57,15.57,0,0,1,80.34,33a15.6,15.6,0,0,1-3.62,10.5H72.53V40h2.33a14.15,14.15,0,0,0,2-7,14.09,14.09,0,0,0-2-7H68.11V38.41H64.64Z" transform="translate(-0.06 -0.03)"/><path class="b87ef573-13a6-4fc0-b02f-3d39ed74a669" d="M107.59,43.48H86.89A15.55,15.55,0,0,1,83.27,33a15.52,15.52,0,0,1,3.62-10.5h20.7A15.56,15.56,0,0,1,111.2,33,15.6,15.6,0,0,1,107.59,43.48ZM105.72,40a14.16,14.16,0,0,0,2-7,14.11,14.11,0,0,0-2-7h-17a14,14,0,0,0-2,7,14.06,14.06,0,0,0,2,7Z" transform="translate(-0.06 -0.03)"/><path class="b87ef573-13a6-4fc0-b02f-3d39ed74a669" d="M145.22,34.71a15.15,15.15,0,0,1-3.55,8.77H121a15.07,15.07,0,0,1-3.54-8.77h-3.3V31.24h3.3A15,15,0,0,1,121,22.48h20.7a15.09,15.09,0,0,1,3.55,8.77l-1.51.85v1.76ZM121,31.24h20.73A15.13,15.13,0,0,0,139.81,26h-17A14.77,14.77,0,0,0,121,31.24Zm0,3.47A14.88,14.88,0,0,0,122.85,40h17a15.25,15.25,0,0,0,1.88-5.29Z" transform="translate(-0.06 -0.03)"/><path class="b87ef573-13a6-4fc0-b02f-3d39ed74a669" d="M154,37.64l-3.68,5.84H146l13.34-21h4l13.24,21h-4.29l-3.63-5.84Zm12.48-3.47L161.33,26l-5.17,8.22Z" transform="translate(-0.06 -0.03)"/></svg>