<svg id="accab6d9-7ad2-4c80-9829-4ba76ee6af9c" data-name="texte" xmlns="http://www.w3.org/2000/svg" xmlns:xlink="http://www.w3.org/1999/xlink" viewBox="0 0 470.33 67.41"><defs><style>.b8724de2-fa16-4d1b-9f9f-c3f002766aa4{stroke:#9def48;stroke-miterlimit:10;stroke-width:0.75px;fill:url(#b15529a9-e382-4cb3-b6a5-2d42bb01262c);}.b0a71a46-2d60-4c3e-841d-999fb04757d7{fill:#9def48;}</style><linearGradient id="b15529a9-e382-4cb3-b6a5-2d42bb01262c" x1="0.38" y1="33.7" x2="469.96" y2="33.7" gradientUnits="userSpaceOnUse"><stop offset="0" stop-color="#032c02"/><stop offset="1" stop-color="#207a09"/></linearGradient></defs><polygon class="b8724de2-fa16-4d1b-9f9f-c3f002766aa4" points="0.38 5.91 102.44 5.91 108.57 0.38 150.31 0.38 158.22 5.91 461.65 6.11 469.96 16 469.96 59.72 50.81 59.72 42.7 67.03 7.89 67.03 0.38 59.72 0.38 5.91"/><path class="b0a71a46-2d60-4c3e-841d-999fb04757d7" d="M63.17,27.15H56.43a14,14,0,0,0-2,7,14.1,14.1,0,0,0,2,7h2.32v3.49H54.56a15.6,15.6,0,0,1-3.62-10.5,15.61,15.61,0,0,1,3.62-10.51h8.61V20.37h3.47v3.29h8.62a15.6,15.6,0,0,1,3.61,10.51,15.6,15.6,0,0,1-3.61,10.5H71.07V41.18H73.4a14.19,14.19,0,0,0,2-7,14.14,14.14,0,0,0-2-7H66.64V39.6H63.17Z" transform="translate(-0.06 -0.03)"/><path class="b0a71a46-2d60-4c3e-841d-999fb04757d7" d="M94,27.15H87.3a14,14,0,0,0-2,7,14,14,0,0,0,2,7h2.31v3.49H85.42a15.6,15.6,0,0,1-3.62-10.5,15.61,15.61,0,0,1,3.62-10.51H94V20.37h3.47v3.29h8.61a15.61,15.61,0,0,1,3.62,10.51,15.6,15.6,0,0,1-3.62,10.5h-4.19V41.18h2.33a14.08,14.08,0,0,0,2-7,14,14,0,0,0-2-7H97.51V39.6H94Z" transform="translate(-0.06 -0.03)"/><path class="b0a71a46-2d60-4c3e-841d-999fb04757d7" d="M137,44.67h-20.7a15.55,15.55,0,0,1-3.62-10.5,15.56,15.56,0,0,1,3.62-10.51H137a15.6,15.6,0,0,1,3.61,10.51A15.6,15.6,0,0,1,137,44.67Zm-1.87-3.49a14.1,14.1,0,0,0,2-7,14,14,0,0,0-2-7h-17a14,14,0,0,0-2,7,14,14,0,0,0,2,7Z" transform="translate(-0.06 -0.03)"/><path class="b0a71a46-2d60-4c3e-841d-999fb04757d7" d="M175.67,41.18H178a15.21,15.21,0,0,0,1.88-5.28H159.15A14.84,14.84,0,0,0,161,41.18h2.31v3.49h-4.19a15.1,15.1,0,0,1-3.54-8.77h-3.3V32.42h3.3a15.07,15.07,0,0,1,3.54-8.76h20.7a15.15,15.15,0,0,1,3.55,8.78l-1.51.85v1.76l1.51.85a15.17,15.17,0,0,1-3.55,8.77h-4.19Zm-16.52-8.76h20.73A15.16,15.16,0,0,0,178,27.15H161A14.79,14.79,0,0,0,159.15,32.42Z" transform="translate(-0.06 -0.03)"/><path class="b0a71a46-2d60-4c3e-841d-999fb04757d7" d="M215.91,35.9H193.16a15.23,15.23,0,0,0,1.89,5.28h2.32v3.49h-4.19a15.11,15.11,0,0,1-3.55-8.77h-3.29V32.42h3.29a15.08,15.08,0,0,1,3.55-8.76h20.69a15.56,15.56,0,0,1,3.62,10.51Zm-22.75-3.48h20.73A15.16,15.16,0,0,0,212,27.15h-17A15.19,15.19,0,0,0,193.16,32.42Z" transform="translate(-0.06 -0.03)"/><path class="b0a71a46-2d60-4c3e-841d-999fb04757d7" d="M248.21,32.42c0,.57.07,1.15.07,1.75a15.6,15.6,0,0,1-3.61,10.5H224a15.55,15.55,0,0,1-3.62-10.5A15.56,15.56,0,0,1,224,23.66h20.7a14.66,14.66,0,0,1,3.14,6.26h-3.75a15.13,15.13,0,0,0-1.26-2.77h-17a14,14,0,0,0-2,7,14,14,0,0,0,2,7h17a15,15,0,0,0,1.88-5.28H232V32.42Z" transform="translate(-0.06 -0.03)"/></svg>