<svg id="b765cb8a-af11-4a36-b2f3-568226f573b8" data-name="texte" xmlns="http://www.w3.org/2000/svg" xmlns:xlink="http://www.w3.org/1999/xlink" viewBox="0 0 470.33 67.41"><defs><style>.fa978566-4de5-4839-a476-a2f8239c061c{stroke:#9def48;stroke-miterlimit:10;stroke-width:0.75px;fill:url(#f5e48d12-3319-41c7-abe8-54eaa7360904);}.b1cba6e0-17a6-4e09-94f5-dbf6c831dcf5{fill:#9def48;}</style><linearGradient id="f5e48d12-3319-41c7-abe8-54eaa7360904" x1="0.38" y1="33.7" x2="469.96" y2="33.7" gradientUnits="userSpaceOnUse"><stop offset="0" stop-color="#032c02"/><stop offset="1" stop-color="#207a09"/></linearGradient></defs><polygon class="fa978566-4de5-4839-a476-a2f8239c061c" points="0.38 5.91 102.44 5.91 108.57 0.38 150.31 0.38 158.22 5.91 461.65 6.11 469.96 16 469.96 59.72 50.81 59.72 42.7 67.03 7.89 67.03 0.38 59.72 0.38 5.91"/><path class="b1cba6e0-17a6-4e09-94f5-dbf6c831dcf5" d="M57.37,44.54H53.3v-21l4.07-4.07Z" transform="translate(-0.13 -0.13)"/><path class="b1cba6e0-17a6-4e09-94f5-dbf6c831dcf5" d="M68.91,24.1a16.33,16.33,0,0,0-2.35,8.18,16.4,16.4,0,0,0,2.35,8.19h2.7v4.07H66.72A18.18,18.18,0,0,1,62.5,32.28,18.13,18.13,0,0,1,66.72,20H90.87a18.18,18.18,0,0,1,4.22,12.25,18.23,18.23,0,0,1-4.22,12.26H86V40.47H88.7A16.45,16.45,0,0,0,91,32.28,16.39,16.39,0,0,0,88.7,24.1Z" transform="translate(-0.13 -0.13)"/><path class="b1cba6e0-17a6-4e09-94f5-dbf6c831dcf5" d="M115,41.07,111,45.14v-21H97.65V20h30.66V24.1H115Z" transform="translate(-0.13 -0.13)"/><path class="b1cba6e0-17a6-4e09-94f5-dbf6c831dcf5" d="M153.62,34.3H136.7a17.49,17.49,0,0,0,2.21,6.17H159l2.34,4.07H136.72a17.62,17.62,0,0,1-4.14-10.24h-3.84v-4h3.84A17.53,17.53,0,0,1,136.72,20h24.66L159,24.1H138.91a17.33,17.33,0,0,0-2.21,6.15h16.92Z" transform="translate(-0.13 -0.13)"/><path class="b1cba6e0-17a6-4e09-94f5-dbf6c831dcf5" d="M169.72,40.47h18.42l2.34,4.07H165.65v-21l4.07-4.07Z" transform="translate(-0.13 -0.13)"/><path class="b1cba6e0-17a6-4e09-94f5-dbf6c831dcf5" d="M198.82,40.47h18.43l2.34,4.07H194.76v-21l4.06-4.07Z" transform="translate(-0.13 -0.13)"/><path class="b1cba6e0-17a6-4e09-94f5-dbf6c831dcf5" d="M228.78,44.54h-4.07v-21l4.07-4.07Z" transform="translate(-0.13 -0.13)"/><path class="b1cba6e0-17a6-4e09-94f5-dbf6c831dcf5" d="M269.18,20,253.72,44.54H249L233.48,20h5.08l12.87,20.46L264.17,20Z" transform="translate(-0.13 -0.13)"/><path class="b1cba6e0-17a6-4e09-94f5-dbf6c831dcf5" d="M276.67,44.54H272.6v-21l4.07-4.07Z" transform="translate(-0.13 -0.13)"/><path class="b1cba6e0-17a6-4e09-94f5-dbf6c831dcf5" d="M312.54,30.25l1.84,2a18.14,18.14,0,0,1-4.22,12.26H286a17.13,17.13,0,0,1-3.68-7.3h4.38a19,19,0,0,0,1.48,3.23H308a16.92,16.92,0,0,0,2.19-6.17H283.64l-1.85-2A18.18,18.18,0,0,1,286,20h24.14a17.13,17.13,0,0,1,3.68,7.3h-4.38A17.47,17.47,0,0,0,308,24.1H288.2a17.3,17.3,0,0,0-2.2,6.15Z" transform="translate(-0.13 -0.13)"/><path class="b1cba6e0-17a6-4e09-94f5-dbf6c831dcf5" d="M323.58,44.54h-4.07v-21l4.07-4.07Z" transform="translate(-0.13 -0.13)"/><path class="b1cba6e0-17a6-4e09-94f5-dbf6c831dcf5" d="M357.08,44.54H332.93a18.18,18.18,0,0,1-4.22-12.26A18.13,18.13,0,0,1,332.93,20h24.15a18.18,18.18,0,0,1,4.22,12.25A18.23,18.23,0,0,1,357.08,44.54Zm-2.17-4.07a16.56,16.56,0,0,0,2.32-8.19,16.49,16.49,0,0,0-2.32-8.18h-19.8a16.32,16.32,0,0,0-2.34,8.18,16.38,16.38,0,0,0,2.34,8.19Z" transform="translate(-0.13 -0.13)"/><path class="b1cba6e0-17a6-4e09-94f5-dbf6c831dcf5" d="M371.12,24.1a16.32,16.32,0,0,0-2.34,8.18,16.38,16.38,0,0,0,2.34,8.19h2.7v4.07h-4.88a18.19,18.19,0,0,1-4.23-12.26A18.14,18.14,0,0,1,368.94,20h24.14a18.13,18.13,0,0,1,4.22,12.25,18.18,18.18,0,0,1-4.22,12.26H388.2V40.47h2.71a16.47,16.47,0,0,0,2.33-8.19,16.41,16.41,0,0,0-2.33-8.18Z" transform="translate(-0.13 -0.13)"/></svg>