<svg enable-background="new 0 0 30 30" viewBox="0 0 30 30" xmlns="http://www.w3.org/2000/svg"><g stroke="#000" stroke-width=".2362"><path d="m18.4 9.4h11.6l-1.5 2h-11.5z" fill="#fff" stroke-linejoin="round"/><path d="m23.5 17.8 5.1 5.1 1.5-2-5.1-5.1z" stroke-linejoin="round"/><path d="m24.9 15.8h-6.5l-1.5 2h6.5z" fill="#837d7f" stroke-linejoin="round"/><path d="m16.9 4.6v6l1.5-2v-6zm0 18.9v6.1l1.5-2v-6.1z" stroke-linejoin="round"/><path d="m18.4 2.6c-1.1-.3-2.2-.4-3.4-.4-4.7 0-9.4 2.6-11.8 6.7 2.6-2.9 6.4-4.7 10.3-4.7 1.1 0 2.3.1 3.4.4zm0 18.9c-1 .5-2.2.8-3.4.7-3.4-.1-7.3-3-7.5-7.2 0-1.1.3-2.1.7-3-1.3 1.3-2.1 3-2.2 5 .1 4.1 4.1 7.1 7.5 7.2 1.2 0 2.3-.2 3.4-.7z" fill="#fff" stroke-linejoin="round"/></g><path d="m16.9 29.6c-1.1.3-2.2.4-3.4.4-6.6-.2-12.6-5-13.4-11.6-.1-.5-.1-.9-.1-1.3.2-7.7 6.8-12.9 13.5-12.9 1.1 0 2.3.1 3.4.4v6c-1-.5-2.2-.8-3.4-.8-4 0-7.4 3.1-7.5 7.2.1 4.1 4.1 7.1 7.5 7.2 1.2 0 2.3-.2 3.4-.7z" fill="#294912"/><path d="m17 11.4h11.6l-5.1 5.1h-6.5z" fill="#372f8f" stroke="#000" stroke-linecap="round" stroke-linejoin="round" stroke-width=".2362"/><path d="m16.9 22.9h11.6l-5.1-5.1h-6.5z" fill="#e53c32" stroke="#000" stroke-linejoin="round" stroke-width=".2362"/><path d="m11.4 29.8c-5.8-1-10.6-5.5-11.3-11.4-.1-.5-.1-.9-.1-1.3.2-7.7 6.8-12.9 13.5-12.9 1.1 0 2.3.1 3.4.4v6c-1-.5-2.2-.8-3.4-.8-4 0-7.4 3.1-7.5 7.2.1 4.1 4.1 7.1 7.5 7.2 1.2 0 2.3-.2 3.4-.7v.7z" fill="#61a53c"/><path d="m3.7 25.7c-1.9-2-3.2-4.5-3.6-7.4-.1-.4-.1-.8-.1-1.2.2-7.7 6.8-12.9 13.5-12.9 1.1 0 2.3.1 3.4.4v6c-1-.5-2.2-.8-3.4-.8-4 0-7.4 3.1-7.5 7.2.1 1.7.8 3.2 1.8 4.4z" fill="#fcb61e"/><path d="m0 17.1c.2-7.4 6.2-12.4 12.7-12.9z" fill="#f05522"/><path d="m16.9 29.6c-1.1.3-2.2.4-3.4.4-6.6-.2-12.6-5-13.4-11.6-.1-.5-.1-.9-.1-1.3.2-7.7 6.8-12.9 13.5-12.9 1.1 0 2.3.1 3.4.4v6c-1-.5-2.2-.8-3.4-.8-4 0-7.4 3.1-7.5 7.2.1 4.1 4.1 7.1 7.5 7.2 1.2 0 2.3-.2 3.4-.7z" fill="none" stroke="#000" stroke-width=".2362"/></svg>