<svg enable-background="new 0 0 30 30" viewBox="0 0 30 30" xmlns="http://www.w3.org/2000/svg"><g stroke="#000" stroke-width=".2362"><path d="m18.413 9.362h11.587l-1.455 2.011h-11.587z" fill="#ddd" stroke-linejoin="round"/><path d="m23.463 17.773 5.073 5.088 1.455-2.011-5.073-5.088z" stroke-linejoin="round"/><path d="m24.919 15.762h-6.514l-1.454 2.011h6.514z" fill="#7f7f7f" stroke-linejoin="round"/><path d="m16.934 4.575-.005 6.048 1.451-2.01.008-6.049zm-.002 18.905-.008 6.062 1.454-1.965.008-6.107z" stroke-linejoin="round"/><path d="m18.389 2.564c-1.112-.259-2.249-.391-3.39-.394-4.737.033-9.363 2.581-11.792 6.725 2.587-2.942 6.424-4.687 10.338-4.714 1.13 0 2.26.134 3.39.394zm-.002 18.906c-1.039.489-2.17.761-3.389.735-3.358-.069-7.336-3.029-7.474-7.153.009-1.051.252-2.086.712-3.03-1.31 1.275-2.148 3.029-2.168 5.041.138 4.123 4.118 7.083 7.475 7.153 1.218.025 2.349-.246 3.389-.736z" fill="#d8d8d8" stroke-linejoin="round"/></g><path d="m16.925 29.587c-1.106.276-2.241.415-3.38.413-6.691-.173-12.69-5.036-13.46-11.627-.051-.435-.078-.872-.082-1.31.211-7.648 6.766-12.836 13.541-12.883 1.13 0 2.26.134 3.39.394l-.007 6.049c-1.03-.511-2.157-.772-3.383-.764-3.975.025-7.434 3.079-7.475 7.203.138 4.123 4.117 7.084 7.475 7.153 1.218.025 2.349-.247 3.389-.736z" fill="#393939"/><path d="m16.962 11.372h11.588l-5.073 5.088h-6.514z" fill="#3c3c3c" stroke="#000" stroke-linecap="round" stroke-linejoin="round" stroke-width=".2362"/><path d="m16.948 22.861h11.587l-5.073-5.088h-6.514z" fill="#6e6e6e" stroke="#000" stroke-linejoin="round" stroke-width=".2362"/><path d="m11.383 29.78c-5.779-1.035-10.614-5.535-11.3-11.406-.051-.435-.079-.873-.083-1.311.213-7.647 6.768-12.836 13.543-12.882 1.13 0 2.26.134 3.39.394l-.007 6.049c-1.03-.511-2.158-.772-3.383-.764-3.975.026-7.435 3.079-7.476 7.203.138 4.123 4.117 7.084 7.475 7.153 1.218.025 2.349-.247 3.389-.736l-.001.74z" fill="#858585"/><path d="m3.667 25.733c-1.931-1.967-3.249-4.501-3.583-7.36-.051-.435-.078-.873-.083-1.311.213-7.646 6.768-12.835 13.543-12.881 1.13 0 2.26.134 3.39.394l-.007 6.049c-1.03-.511-2.158-.772-3.383-.764-3.974.026-7.434 3.079-7.475 7.203.057 1.694.762 3.191 1.806 4.373z" fill="#bababa"/><path d="m.001 17.063c.204-7.326 6.228-12.395 12.689-12.849z" fill="#7e7e7e"/><path d="m16.925 29.587c-1.106.276-2.241.415-3.38.413-6.691-.173-12.69-5.036-13.46-11.627-.051-.435-.078-.872-.082-1.31.211-7.648 6.766-12.836 13.541-12.883 1.13 0 2.26.134 3.39.394l-.007 6.049c-1.03-.511-2.157-.772-3.383-.764-3.975.025-7.434 3.079-7.475 7.203.138 4.123 4.117 7.084 7.475 7.153 1.218.025 2.349-.247 3.389-.736z" fill="none" stroke="#000" stroke-width=".2362"/></svg>