<svg xmlns="http://www.w3.org/2000/svg" xmlns:xlink="http://www.w3.org/1999/xlink" viewBox="0 0 470.33 67.41"><defs><style>.a9948ae2-33f4-4242-8c31-07a4cbdf12b0{stroke:#9def48;stroke-miterlimit:10;stroke-width:0.75px;fill:url(#ebbb39cc-0bab-49a9-aacf-fddfa3fe7141);}.acae8bbc-ae85-4dec-acfb-bf4927e7c3ff{fill:#9def48;}.eee139cb-bf97-4b2b-9bc2-61be3c48d12d{fill:#f9f9f9;}</style><linearGradient id="ebbb39cc-0bab-49a9-aacf-fddfa3fe7141" x1="0.38" y1="33.7" x2="469.96" y2="33.7" gradientUnits="userSpaceOnUse"><stop offset="0" stop-color="#032c02"/><stop offset="1" stop-color="#207a09"/></linearGradient></defs><g id="eac59f15-c60e-4821-8776-531c0bf689e1" data-name="texte"><polygon class="a9948ae2-33f4-4242-8c31-07a4cbdf12b0" points="0.38 5.91 102.44 5.91 108.57 0.38 150.31 0.38 158.22 5.91 461.65 6.11 469.96 16 469.96 59.72 50.81 59.72 42.7 67.03 7.89 67.03 0.38 59.72 0.38 5.91"/><path class="acae8bbc-ae85-4dec-acfb-bf4927e7c3ff" d="M86.45,20.84l-15,23.8H66.88L51.77,20.84H56.7L69.2,40.71,81.59,20.84Z" transform="translate(-0.06 -0.03)"/><path class="acae8bbc-ae85-4dec-acfb-bf4927e7c3ff" d="M93.72,44.64h-4V24.21l4-4Z" transform="translate(-0.06 -0.03)"/><path class="acae8bbc-ae85-4dec-acfb-bf4927e7c3ff" d="M125.58,37.55h4.25a16.6,16.6,0,0,1-3.57,7.09H102.8a17.69,17.69,0,0,1-4.1-11.9,17.67,17.67,0,0,1,4.1-11.9h23.46a16.57,16.57,0,0,1,3.57,7.08h-4.25a17.08,17.08,0,0,0-1.43-3.13H104.93a15.8,15.8,0,0,0-2.28,8,15.89,15.89,0,0,0,2.28,7.95h19.22A17.8,17.8,0,0,0,125.58,37.55Z" transform="translate(-0.06 -0.03)"/><path class="acae8bbc-ae85-4dec-acfb-bf4927e7c3ff" d="M149,30.76V34.7H133.15V30.76Z" transform="translate(-0.06 -0.03)"/><path class="acae8bbc-ae85-4dec-acfb-bf4927e7c3ff" d="M154.14,30.76h25.78a16.89,16.89,0,0,0-2.14-6H158.55a17.78,17.78,0,0,0-1.43,3.13h-4.25a16.57,16.57,0,0,1,3.57-7.08H179.9a17.67,17.67,0,0,1,4.1,11.9l-1.79,2H156.43a16.48,16.48,0,0,0,2.12,6h23.91v4h-26a17.64,17.64,0,0,1-4.1-11.9Z" transform="translate(-0.06 -0.03)"/><path class="acae8bbc-ae85-4dec-acfb-bf4927e7c3ff" d="M214.88,44.64H191.42a17.69,17.69,0,0,1-4.1-11.9,17.64,17.64,0,0,1,4.1-11.9h23.46a17.64,17.64,0,0,1,4.1,11.9A17.69,17.69,0,0,1,214.88,44.64Zm-2.11-4A16,16,0,0,0,215,32.74a15.87,15.87,0,0,0-2.26-8H193.55a15.8,15.8,0,0,0-2.28,8,15.89,15.89,0,0,0,2.28,7.95Zm-11.59-5v-6h3.94v6Z" transform="translate(-0.06 -0.03)"/></g><g id="e6c375bf-e51d-49ed-af10-676fbf4716dd" data-name="commodore"><path class="eee139cb-bf97-4b2b-9bc2-61be3c48d12d" d="M20.74,60.53a4.54,4.54,0,1,0,8.86-1.39H27.33a2.57,2.57,0,0,1,.35,1.29,2.4,2.4,0,1,1-4.8,0,2.56,2.56,0,0,1,.34-1.29H21A4.92,4.92,0,0,0,20.74,60.53Z" transform="translate(-0.06 -0.03)"/><polygon class="eee139cb-bf97-4b2b-9bc2-61be3c48d12d" points="23.49 55.7 25.07 57.21 25.07 59.08 23.49 59.08 23.49 55.7"/><polygon class="eee139cb-bf97-4b2b-9bc2-61be3c48d12d" points="26.96 55.7 25.39 57.21 25.39 59.08 26.96 59.08 26.96 55.7"/><path class="eee139cb-bf97-4b2b-9bc2-61be3c48d12d" d="M28,48a2.48,2.48,0,0,0-.53-1.63A1.93,1.93,0,0,0,26,45.7a1.91,1.91,0,0,0-1.51.65,2.73,2.73,0,0,0,0,3.26,1.91,1.91,0,0,0,1.51.65,1.93,1.93,0,0,0,1.52-.65A2.49,2.49,0,0,0,28,48Zm-.95,0a.75.75,0,0,1-.33.67,1.52,1.52,0,0,1-1.54,0,.78.78,0,0,1-.33-.67.79.79,0,0,1,.33-.68,1.58,1.58,0,0,1,1.54,0A.77.77,0,0,1,27.07,48Z" transform="translate(-0.06 -0.03)"/><path class="eee139cb-bf97-4b2b-9bc2-61be3c48d12d" d="M27.93,45.15V43.79H26.28a1.78,1.78,0,0,1-.94-.2.64.64,0,0,1-.29-.57.44.44,0,0,1,.22-.41,1,1,0,0,1,.55-.13h2.11V41.12H26.28a1.78,1.78,0,0,1-.94-.2.63.63,0,0,1-.29-.57.44.44,0,0,1,.22-.41,1,1,0,0,1,.55-.13h2.11V38.45H25.62a2.23,2.23,0,0,0-1.25.27,1.25,1.25,0,0,0-.45,1.12,1.64,1.64,0,0,0,.18.79,1.57,1.57,0,0,0,.57.61,1.13,1.13,0,0,0-.57.48,1.47,1.47,0,0,0-.18.74,1.8,1.8,0,0,0,.19.85,1.37,1.37,0,0,0,.62.59H24v1.24Z" transform="translate(-0.06 -0.03)"/><path class="eee139cb-bf97-4b2b-9bc2-61be3c48d12d" d="M27.93,37.72V36.36H26.28a1.78,1.78,0,0,1-.94-.2.65.65,0,0,1-.29-.57.44.44,0,0,1,.22-.41,1,1,0,0,1,.55-.13h2.11V33.69H26.28a1.78,1.78,0,0,1-.94-.2.63.63,0,0,1-.29-.57.44.44,0,0,1,.22-.41,1,1,0,0,1,.55-.13h2.11V31H25.62a2.23,2.23,0,0,0-1.25.27,1.25,1.25,0,0,0-.45,1.12,1.64,1.64,0,0,0,.18.79,1.57,1.57,0,0,0,.57.61,1.13,1.13,0,0,0-.57.48,1.47,1.47,0,0,0-.18.74,1.8,1.8,0,0,0,.19.85,1.37,1.37,0,0,0,.62.59H24v1.24Z" transform="translate(-0.06 -0.03)"/><path class="eee139cb-bf97-4b2b-9bc2-61be3c48d12d" d="M28,28.19a2.49,2.49,0,0,0-.53-1.63A1.93,1.93,0,0,0,26,25.91a1.91,1.91,0,0,0-1.51.65,2.73,2.73,0,0,0,0,3.26,2,2,0,0,0,1.51.66,2,2,0,0,0,1.52-.66A2.48,2.48,0,0,0,28,28.19Zm-.95,0a.77.77,0,0,1-.33.68,1.58,1.58,0,0,1-1.54,0,.79.79,0,0,1-.33-.68.78.78,0,0,1,.33-.67,1.52,1.52,0,0,1,1.54,0A.75.75,0,0,1,27.07,28.19Z" transform="translate(-0.06 -0.03)"/><path class="eee139cb-bf97-4b2b-9bc2-61be3c48d12d" d="M22.28,21.14V22.5h2.23v0a1.41,1.41,0,0,0-.47.6,2,2,0,0,0-.12.75,1.53,1.53,0,0,0,.63,1.25,2.26,2.26,0,0,0,1.35.43,2.46,2.46,0,0,0,1.5-.46A1.61,1.61,0,0,0,28,23.75a1.58,1.58,0,0,0-.23-.84,1.17,1.17,0,0,0-.56-.5v0h.7V21.14Zm3.65,3a1.09,1.09,0,0,1-.68-.22.7.7,0,0,1-.29-.6.74.74,0,0,1,.29-.61A1.17,1.17,0,0,1,26,22.5a1.08,1.08,0,0,1,.72.24.76.76,0,0,1,.28.59.73.73,0,0,1-.29.6A1.32,1.32,0,0,1,25.93,24.15Z" transform="translate(-0.06 -0.03)"/><path class="eee139cb-bf97-4b2b-9bc2-61be3c48d12d" d="M28,18.34a2.46,2.46,0,0,0-.53-1.63A2,2,0,0,0,26,16.05a2,2,0,0,0-1.51.66,2.41,2.41,0,0,0-.54,1.63A2.4,2.4,0,0,0,24.46,20a1.88,1.88,0,0,0,1.51.66A1.9,1.9,0,0,0,27.49,20,2.45,2.45,0,0,0,28,18.34Zm-.95,0a.75.75,0,0,1-.33.67,1.52,1.52,0,0,1-1.54,0,.78.78,0,0,1-.33-.67.79.79,0,0,1,.33-.68,1.58,1.58,0,0,1,1.54,0A.77.77,0,0,1,27.07,18.34Z" transform="translate(-0.06 -0.03)"/><path class="eee139cb-bf97-4b2b-9bc2-61be3c48d12d" d="M24,12.63l0,.23a1.69,1.69,0,0,0,0,.23,1.12,1.12,0,0,0,.22.72,1.5,1.5,0,0,0,.59.44v0H24v1.24h3.92V14.15H26.28a1.45,1.45,0,0,1-.91-.26.88.88,0,0,1-.32-.73v-.23a1.85,1.85,0,0,1,0-.23Z" transform="translate(-0.06 -0.03)"/><path class="eee139cb-bf97-4b2b-9bc2-61be3c48d12d" d="M26.37,8.37h-.25a2.51,2.51,0,0,0-1.54.45,1.85,1.85,0,0,0-.66,1.54,2.13,2.13,0,0,0,.54,1.51,2,2,0,0,0,1.51.59,1.9,1.9,0,0,0,1.51-.66A2.4,2.4,0,0,0,28,10.18,3.68,3.68,0,0,0,28,9.43a3.88,3.88,0,0,0-.18-.69h-1a2.53,2.53,0,0,1,.23.61,2.41,2.41,0,0,1,.07.58,1.64,1.64,0,0,1-.17.8.76.76,0,0,1-.58.36ZM25.6,11.1a1,1,0,0,1-.58-.2.65.65,0,0,1-.24-.55A.67.67,0,0,1,25,9.77a.85.85,0,0,1,.58-.17Z" transform="translate(-0.06 -0.03)"/><path class="eee139cb-bf97-4b2b-9bc2-61be3c48d12d" d="M28,53.16a2.82,2.82,0,0,1-.83,1.42,2.51,2.51,0,0,1-1.45.66,2.82,2.82,0,0,1-3-1.44,4.68,4.68,0,0,1-.4-2,6.68,6.68,0,0,1,.15-1.24l1.17.13s0,.1-.08.36a2.86,2.86,0,0,0-.1.77,2.23,2.23,0,0,0,.38,1.31,1.93,1.93,0,0,0,2.76,0A2.5,2.5,0,0,0,26.86,51l-.09-.36L28,50.5a6.21,6.21,0,0,1,.14,1.3A4.38,4.38,0,0,1,28,53.16Z" transform="translate(-0.06 -0.03)"/></g></svg>