<svg xmlns="http://www.w3.org/2000/svg" xmlns:xlink="http://www.w3.org/1999/xlink" viewBox="0 0 470.33 67.41"><defs><style>.aad1c8aa-adfe-4043-9e52-3b5f28e25337{stroke:#9def48;stroke-miterlimit:10;stroke-width:0.75px;fill:url(#e7d9739c-f077-49e3-9bfb-413d3909bd2a);}.eb009da7-850e-4f11-b2cb-8a6b7302c27e{fill:#9def48;}.b22dd0d7-0ded-4e52-b6d2-3f7ef1cddfdf{fill:#fff;}</style><linearGradient id="e7d9739c-f077-49e3-9bfb-413d3909bd2a" x1="0.38" y1="33.7" x2="469.96" y2="33.7" gradientUnits="userSpaceOnUse"><stop offset="0" stop-color="#032c02"/><stop offset="1" stop-color="#207a09"/></linearGradient></defs><g id="ab80b661-8ce3-4f36-9e91-17b52d0850c4" data-name="texte"><polygon class="aad1c8aa-adfe-4043-9e52-3b5f28e25337" points="0.38 5.91 102.44 5.91 108.57 0.38 150.31 0.38 158.22 5.91 461.65 6.11 469.96 16 469.96 59.72 50.81 59.72 42.7 67.03 7.89 67.03 0.38 59.72 0.38 5.91"/><path class="eb009da7-850e-4f11-b2cb-8a6b7302c27e" d="M69.47,41.27l-4,3.95V24.79H52.6V20.84H82.38v3.95H69.47Z" transform="translate(-0.06 -0.03)"/><path class="eb009da7-850e-4f11-b2cb-8a6b7302c27e" d="M112.43,44.64H89a17.69,17.69,0,0,1-4.1-11.9A17.64,17.64,0,0,1,89,20.84h23.46a17.59,17.59,0,0,1,4.1,11.9A17.64,17.64,0,0,1,112.43,44.64Zm-2.11-4a15.93,15.93,0,0,0,2.26-7.95,15.87,15.87,0,0,0-2.26-8H91.1a15.79,15.79,0,0,0-2.27,8,15.84,15.84,0,0,0,2.27,7.95Z" transform="translate(-0.06 -0.03)"/><path class="eb009da7-850e-4f11-b2cb-8a6b7302c27e" d="M135.72,30.76V34.7H119.85V30.76Z" transform="translate(-0.06 -0.03)"/><path class="eb009da7-850e-4f11-b2cb-8a6b7302c27e" d="M143.06,44.64a17.22,17.22,0,0,1-4-9.94l1.71-1v-2l-1.71-1a17.16,17.16,0,0,1,4-9.94h23.46a17,17,0,0,1,4,9.94l-1.71,1v2l1.71,1a17.09,17.09,0,0,1-4,9.94Zm23.48-13.88a17.06,17.06,0,0,0-2.13-6H145.17a16.83,16.83,0,0,0-2.12,6Zm-2.13,9.93a17.22,17.22,0,0,0,2.13-6H143.05a17,17,0,0,0,2.12,6Z" transform="translate(-0.06 -0.03)"/></g><g id="bfb524ad-fe3e-4f0f-ad6f-b7698edb6d9e" data-name="thomson"><path class="b22dd0d7-0ded-4e52-b6d2-3f7ef1cddfdf" d="M24,42.91H21.58a10.93,10.93,0,0,1,0-1.85c.56,0,1.13,0,1.71,0h5.16v1.87H25.82V44.7h2.6v1.86a8.23,8.23,0,0,1-.86,0H23.22v1.6h5.21v1.89H23.22c0,.46,0,.9,0,1.36H21.56v-6.7a6.89,6.89,0,0,1,.79,0H24Z" transform="translate(-0.06 -0.03)"/><path class="b22dd0d7-0ded-4e52-b6d2-3f7ef1cddfdf" d="M25,31.87a3,3,0,0,0,.84.05h2.59v1.84H21.55V31.12l3-.93v-.05l-3-.93V26.56h6.87v1.85H25c.06.13.15.13.23.16l2.72.82.5.16v1.24C27.28,31.15,26.13,31.48,25,31.87Z" transform="translate(-0.06 -0.03)"/><path class="b22dd0d7-0ded-4e52-b6d2-3f7ef1cddfdf" d="M21.53,9.74V7.91c.19,0,6.47-.06,6.9,0v2.57l-1.68.65c-.56.21-1.11.42-1.66.68a1.75,1.75,0,0,0,.64.05H28.4a10.47,10.47,0,0,1,0,1.82c-.17.05-6.34.08-6.9,0,0-.8,0-1.61,0-2.42,1.22-.5,2.44-1,3.64-1.49a5.37,5.37,0,0,0-.89,0H21.53Z" transform="translate(-0.06 -0.03)"/><path class="b22dd0d7-0ded-4e52-b6d2-3f7ef1cddfdf" d="M25,40.53a6.07,6.07,0,0,1-1.75-.2,2.39,2.39,0,0,1-1.83-1.9,5.16,5.16,0,0,1-.1-.87,4,4,0,0,1,.17-1.37,2.27,2.27,0,0,1,1.27-1.45,4.49,4.49,0,0,1,1.58-.36,6.94,6.94,0,0,1,2.36.17,3.31,3.31,0,0,1,.53.18,2.24,2.24,0,0,1,1.29,1.46,4.48,4.48,0,0,1,0,2.54,2.2,2.2,0,0,1-1.25,1.41,4.59,4.59,0,0,1-1.75.38ZM25,36.21H24.7a3.6,3.6,0,0,0-1.07.19,1.12,1.12,0,0,0-.26,1.87,1.55,1.55,0,0,0,.52.24,4.83,4.83,0,0,0,1.61.1,4.11,4.11,0,0,0,.85-.16,1,1,0,0,0,.59-.47,1.11,1.11,0,0,0-.63-1.62A3.63,3.63,0,0,0,25,36.21Z" transform="translate(-0.06 -0.03)"/><path class="b22dd0d7-0ded-4e52-b6d2-3f7ef1cddfdf" d="M24.91,14.21a6.94,6.94,0,0,1,1.93.24,2.42,2.42,0,0,1,1.8,2.18,5,5,0,0,1-.1,1.84,2.28,2.28,0,0,1-1.39,1.58,4.13,4.13,0,0,1-1.29.31,7.68,7.68,0,0,1-2.44-.12l-.35-.1a2.31,2.31,0,0,1-1.65-1.81,4.55,4.55,0,0,1,0-2.26,2.3,2.3,0,0,1,1.31-1.48,4.28,4.28,0,0,1,1.31-.33C24.39,14.23,24.69,14.22,24.91,14.21ZM25,18.53c.39-.05.78-.08,1.15-.15a1.76,1.76,0,0,0,.57-.27,1.12,1.12,0,0,0-.22-1.8,1.54,1.54,0,0,0-.34-.12c-.26-.05-.52-.06-.77-.1a4.24,4.24,0,0,0-1.42.08,1.19,1.19,0,0,0-.75.4,1.12,1.12,0,0,0,.49,1.75A5.61,5.61,0,0,0,25,18.53Z" transform="translate(-0.06 -0.03)"/><path class="b22dd0d7-0ded-4e52-b6d2-3f7ef1cddfdf" d="M26.13,26v-1.7l.07,0a.82.82,0,0,0,.76-.75,2,2,0,0,0,0-.65c-.05-.25-.18-.35-.37-.36a.54.54,0,0,0-.56.3c-.15.35-.29.71-.43,1.06s-.22.56-.34.83A2,2,0,0,1,24,25.85a2.26,2.26,0,0,1-1.43,0,1.77,1.77,0,0,1-1.07-1.1,3.63,3.63,0,0,1-.22-1.46,3.46,3.46,0,0,1,.2-1.19A1.62,1.62,0,0,1,23.28,21l.1,0a.77.77,0,0,1,0,.15c0,.4,0,.81,0,1.21a.26.26,0,0,1-.13.24,1,1,0,0,0-.44,1,.46.46,0,0,0,.37.43.49.49,0,0,0,.51-.33c.21-.57.42-1.13.62-1.71A1.86,1.86,0,0,1,26,20.72a2.42,2.42,0,0,1,.89,0,1.84,1.84,0,0,1,1.35,1.09,3.55,3.55,0,0,1,.13,2.66A2.25,2.25,0,0,1,26.61,26l-.34,0A.65.65,0,0,1,26.13,26Z" transform="translate(-0.06 -0.03)"/><path class="b22dd0d7-0ded-4e52-b6d2-3f7ef1cddfdf" d="M27.48,64.54l-.25,0c-1.51,0-3,0-4.54,0a.39.39,0,0,1-.36-.18l-2.08-2.82-.14-.2s.05,0,.07,0a9.08,9.08,0,0,1,3.77.43,6.66,6.66,0,0,1,3.24,2.33,3.62,3.62,0,0,1,.22.32A.88.88,0,0,1,27.48,64.54Z" transform="translate(-0.06 -0.03)"/><path class="b22dd0d7-0ded-4e52-b6d2-3f7ef1cddfdf" d="M20.09,58.69l.15-.21c.7-1,1.41-1.91,2.11-2.86a.3.3,0,0,1,.27-.16h4.83c0,.1-.05.16-.1.23a6.33,6.33,0,0,1-2,1.9A7.51,7.51,0,0,1,22,58.68c-.48,0-1,0-1.45,0A3.89,3.89,0,0,1,20.09,58.69Z" transform="translate(-0.06 -0.03)"/><path class="b22dd0d7-0ded-4e52-b6d2-3f7ef1cddfdf" d="M28.7,57.13l1.78,2.78-1.84,3a.9.9,0,0,0-.12-.19c-.49-.53-1-1.06-1.48-1.58a1.82,1.82,0,0,1,0-2.5C27.62,58.18,28.15,57.66,28.7,57.13Z" transform="translate(-0.06 -0.03)"/></g></svg>