<svg xmlns="http://www.w3.org/2000/svg" xmlns:xlink="http://www.w3.org/1999/xlink" viewBox="0 0 746.51 822.18"><defs><radialGradient id="e024587e-dfe5-447d-9157-1ad60bf16f87" cx="121.61" cy="382.1" r="5.66" gradientTransform="matrix(1 0 0 .6 0 152.84)" xlink:href="#f3953d6d-8f4d-412a-bb94-b86b9d806c18"/><radialGradient id="acdbff4d-92fd-4bc8-a36b-f7d965f289e8" cx="217.55" cy="416.02" r="5.66" xlink:href="#ff3439c1-aee4-48ca-9c21-ef843471aa8c"/><radialGradient id="bc3216e5-f331-4d21-8c2a-94022e9b5819" cx="195.83" cy="370.99" r="11.47" xlink:href="#ff3439c1-aee4-48ca-9c21-ef843471aa8c"/><radialGradient id="f3953d6d-8f4d-412a-bb94-b86b9d806c18" cx="92.36" cy="393.88" r="5.66" gradientTransform="matrix(1 0 0 .6 0 157.55)" gradientUnits="userSpaceOnUse"><stop offset="0" stop-color="#0000ef"/><stop offset=".15" stop-color="#0000e9"/><stop offset=".34" stop-color="#0101d9"/><stop offset=".56" stop-color="#0101be"/><stop offset=".79" stop-color="#02029a"/><stop offset="1" stop-color="#020282"/></radialGradient><radialGradient id="a469b2cf-3443-4cd3-ba2f-5531b274c66e" cx="114.61" cy="393.88" r="5.66" xlink:href="#f3953d6d-8f4d-412a-bb94-b86b9d806c18"/><radialGradient id="a2a722ce-cd52-4a19-8651-703802048206" cx="133.17" cy="400.04" r="5.66" gradientTransform="matrix(1 0 0 .6 0 160.02)" xlink:href="#f3953d6d-8f4d-412a-bb94-b86b9d806c18"/><radialGradient id="b1fdc50e-3f7e-4d5a-b21b-881ead0a8876" cx="139.21" cy="387.78" r="5.66" gradientTransform="matrix(1 0 0 .6 0 155.11)" xlink:href="#f3953d6d-8f4d-412a-bb94-b86b9d806c18"/><radialGradient id="ff3439c1-aee4-48ca-9c21-ef843471aa8c" cx="65.88" cy="348.77" r="11.47" gradientUnits="userSpaceOnUse"><stop offset="0" stop-color="#fd6d66"/><stop offset=".78" stop-color="#b50a03"/></radialGradient><radialGradient id="a435d769-99dc-489b-9ffa-8abbf76008e3" cx="100.32" cy="382.53" r="5.66" gradientTransform="matrix(1 0 0 .6 0 153.01)" xlink:href="#f3953d6d-8f4d-412a-bb94-b86b9d806c18"/><radialGradient id="e660c3f2-d997-4264-90dd-171a5f35dd50" cx="225.51" cy="404.67" r="5.66" xlink:href="#ff3439c1-aee4-48ca-9c21-ef843471aa8c"/><radialGradient id="a611e967-ec71-4f1d-8d63-fe4993a2050a" cx="246.79" cy="404.24" r="5.66" xlink:href="#ff3439c1-aee4-48ca-9c21-ef843471aa8c"/><radialGradient id="eb013077-7df6-4bb9-8546-3cbe823cce20" cx="264.4" cy="409.93" r="5.66" xlink:href="#ff3439c1-aee4-48ca-9c21-ef843471aa8c"/><radialGradient id="bce0ec46-8cb1-4493-a73f-024ebaaa1dae" cx="258.36" cy="422.19" r="5.66" xlink:href="#ff3439c1-aee4-48ca-9c21-ef843471aa8c"/><radialGradient id="b2e84204-fa04-42ab-8931-856a8919d6b8" cx="239.79" cy="416.02" r="5.66" xlink:href="#ff3439c1-aee4-48ca-9c21-ef843471aa8c"/><style>.b6a6bfc3-668b-4535-8998-837d95297456{fill:#373735}.b4a23634-0224-4110-b59b-39dc1936ea83{fill:#121211}.a4034378-8032-42bd-b99c-665bd729843f,.a6c7de25-7ef3-4ef6-81bc-1e0da10ee5cd,.b4a23634-0224-4110-b59b-39dc1936ea83,.f4448ecf-8b3d-4206-afe9-0851143718bb,.f4cfbae9-53e7-4c89-af92-2e70df485491{stroke:#b5b5b5}.a1de0b95-d720-4a71-baf5-92ac650e5c6e,.a4034378-8032-42bd-b99c-665bd729843f,.a6c7de25-7ef3-4ef6-81bc-1e0da10ee5cd,.b4a23634-0224-4110-b59b-39dc1936ea83,.bd0a6690-6ea9-4c62-8f77-9f626f7b2efb,.e1f6552b-30f4-4163-b5d0-1c33a1338aa2,.f4448ecf-8b3d-4206-afe9-0851143718bb,.f4cfbae9-53e7-4c89-af92-2e70df485491{stroke-miterlimit:10}.a4034378-8032-42bd-b99c-665bd729843f,.a6c7de25-7ef3-4ef6-81bc-1e0da10ee5cd,.b4a23634-0224-4110-b59b-39dc1936ea83,.e1f6552b-30f4-4163-b5d0-1c33a1338aa2,.f4448ecf-8b3d-4206-afe9-0851143718bb,.f4cfbae9-53e7-4c89-af92-2e70df485491{stroke-width:.5px}.bd0a6690-6ea9-4c62-8f77-9f626f7b2efb{fill:#443840;stroke:#090000}.e1f6552b-30f4-4163-b5d0-1c33a1338aa2{stroke:#090000}.bd0a6690-6ea9-4c62-8f77-9f626f7b2efb{stroke-width:.75px}.e1f6552b-30f4-4163-b5d0-1c33a1338aa2{fill:#6b0c05}.e67e688f-8748-4542-9581-53c35979b31a{fill:#86382f}.a1de0b95-d720-4a71-baf5-92ac650e5c6e{stroke:#373737}.bb7c9fdc-2195-4a15-9dd9-720a5465bc0b{fill:#e50308}.f4cfbae9-53e7-4c89-af92-2e70df485491{fill:#dc6e05}.a6c7de25-7ef3-4ef6-81bc-1e0da10ee5cd{fill:#12e600}.f4448ecf-8b3d-4206-afe9-0851143718bb{fill:#0b47ce}.a4034378-8032-42bd-b99c-665bd729843f,.b3aff894-1d46-4c76-9617-2a338e7e5991{fill:#282826}.b38b7378-02dc-4fd9-8291-10475d8e4173{fill:#ae7a82}.f5c7f3ea-b339-4ac1-a4e6-31cc9e2ec80c{fill:url(#ff3439c1-aee4-48ca-9c21-ef843471aa8c)}.a8b4b57d-b7de-442e-af71-f1bdc6522d5c{fill:url(#bc3216e5-f331-4d21-8c2a-94022e9b5819)}.a3af6a32-f195-4288-b3bd-9ac93f43defb{fill:#0000ef}.b060cf13-89e8-4a38-a346-57a056abd6be{fill:#930303}.a47bce7d-3ad3-41a8-a9c2-6969e0f7a074{fill:#e7e7e7}.ad696c09-3c14-4294-a22a-ee0a74aceb64{fill:#2c2b29}.f08ec7df-5157-4858-b283-b85e60f08179{fill:#020202}</style></defs><g id="a235d176-7734-4ccc-9f28-9c7959d246f1" data-name="Calque 1"><path id="fb642f21-ec00-4f74-bb61-5fbb23884b47" data-name="ombre" style="opacity:.5;fill:#373735" d="m452.03 588.79 21.51-5.91H485.41l1.58 2.96 237.36 43.3h11.08l11.07 31.39-46.41 37.71-46.42 13.19-8.18-1.32.27-1.85-13.98-2.63-83.6 27.95-73.32 51.57-22.83 6.82-7.77-1.16v-2.63l-16.08-3.03-129.99 34.37 153.84-230.73z"/><g id="fe4b4fb3-d64e-42a2-b76a-da28f4379bc7" data-name="bottom"><path class="b6a6bfc3-668b-4535-8998-837d95297456" d="m36 454.56 224.9 39.62v4.35l25.72 6.13-.4 311.34-248.24-47.27L36 454.56z"/><path class="b4a23634-0224-4110-b59b-39dc1936ea83" d="m202 526.54-78.38-13.74c-3 .19-4.26 3.56-4.26 3.56l.2 85c.69 2.18 3.86 5 3.86 5l74.27 13.46c5.14.49 7.52-5.25 7.52-5.25v-82.69a7.12 7.12 0 0 0-3.21-5.34zm-49.9 22.55-18.69-3.46v-20l2.27-1.88 18.1 3.07-1.78 2.69zm31.45 6.13-18.69-3.46v-20l2.27-1.87 18.1 3.06-1.78 2.67z" transform="translate(-.98 -.52)"/><path class="bd0a6690-6ea9-4c62-8f77-9f626f7b2efb" d="m134.7 523.25-2.27 1.88v19.98l18.69 3.46-.1-19.58 1.78-2.67-18.1-3.07zM166.15 529.38l-2.27 1.88v19.98l18.69 3.46-.1-19.58 1.78-2.67-18.1-3.07z"/><path class="e1f6552b-30f4-4163-b5d0-1c33a1338aa2" d="M140.14 543.03v-12.85l8.01 1.78v12.56l-8.01-1.49zM171.2 548.87v-12.86l8.01 1.78v12.56l-8.01-1.48z"/><path d="M135.23 543.16v-15.23l2.05.4v15.16l-2.05-.33zM166.68 548.7v-15.23l2.04.4v15.16l-2.04-.33z"/><path class="e67e688f-8748-4542-9581-53c35979b31a" d="M140.4 530.69v-.35l7.47 1.8.01.43-7.48-1.88zM171.46 536.62v-.29l7.47 1.64.01.35-7.48-1.7z"/><circle cx="192.4" cy="574.85" r="4.25" style="fill:#8b8b8b;stroke-width:.75px;stroke:#090000;stroke-miterlimit:10"/><path class="a1de0b95-d720-4a71-baf5-92ac650e5c6e" d="M136.29 598.71v-11.27l11.96 2.18v11.3l-11.96-2.21zM167.54 604.25v-11.27l11.96 2.17v10.88l-11.96-1.78z"/></g><g id="edbf04bd-2909-453f-bed4-924c2bb48921" data-name="t molding"><path class="bb7c9fdc-2195-4a15-9dd9-720a5465bc0b" d="m11.46 450.59-.79-39.76L1 407.66v45.1l27.89 5.54c.59 103.55 1 207.6 1.58 311.15a6.18 6.18 0 0 0 3.53 2.19 12.58 12.58 0 0 0 5 0l-2-316.56zM272.36 497v-41.27l-10.28-1.19-.2 44.51 25.71 6.13s-1.51 313.85 0 315.69 8.77 1.32 8.77 1.32l.93-319.91z" transform="translate(-.98 -.52)"/><path class="bb7c9fdc-2195-4a15-9dd9-720a5465bc0b" d="m78.72 346.42-8.15-1.3 16.26-218.56 9.04 1.5-17.15 218.36zM329.24 388.85l9.1 1.28 18.49-224.31h-26.37l-.26-90.92-10.06-1.84v94.84l6.04 1.09h20.27l-17.21 219.86z"/><path class="bb7c9fdc-2195-4a15-9dd9-720a5465bc0b" d="M88.49 127.19s-28.17-.35-29.11-.85c0-31.21.06-62.83 0-94l9.36 2.64.48 89.02z" transform="translate(-.98 -.52)"/><g id="afc72aa0-da21-49e9-b96c-f71c6adeeab9" data-name="clair"><path class="bb7c9fdc-2195-4a15-9dd9-720a5465bc0b" d="m0 407.14 9.69 3.17L78 346.25l-8.11-1.94L0 407.14zM261.1 454.02l10.28 1.19 66.96-65.87-8.62-1.6-68.62 66.28zM111.56 0 58.42 31.78l9.36 2.64L120.36 3.3l2.74-1.62-2.57-.36L111.56 0zM383.74 40.62l-11.21-.8-52.39 33.24 10.06 1.84 53.54-34.28z"/></g></g><g id="acb43202-c89e-4a55-9ae6-746b99a62285" data-name="side"><path class="b4a23634-0224-4110-b59b-39dc1936ea83" d="m453.13 308.64.63-159.63-70.02-108.39L330.2 74.9l.26 90.92h26.37l-18.49 224.31-66.96 65.08v41.27l24.93 5.28-.93 319.91 8.25-6.32 149.65-543.7-.21 21.51-142.1 516.55-1.61 1.24 6.94-5.32 136.83-496.99zM324.06 799.15l-7.76 6.48 11.99-9.2 124.7-453.24.05-12.13-128.98 468.09zM335.43 790.95l-1.32 1.02 6.87-5.27 111.79-407.64v21.25l.22-57.12-.22 24-117.34 423.76zM343 785.15l108.58-83.28 1.18-299.85L347.4 781.78l-4.4 3.37z"/><path style="fill:#bf0000;stroke-width:.5px;stroke-miterlimit:10;stroke:#b5b5b5" d="m303.63 815.35 5.73-4.4-5.73 4.4z"/><path class="bb7c9fdc-2195-4a15-9dd9-720a5465bc0b" d="m453.07 293.16.21-21.51-149.65 543.7 5.73-4.4 1.61-1.24 142.1-516.55z"/><path class="f4cfbae9-53e7-4c89-af92-2e70df485491" d="M453.13 330.74v-22.1l-.09 22.42.09-.32zM316.3 805.63z"/><path style="fill:#fc363a" d="m453.04 331.06.09-22.42L316.3 805.63l7.76-6.48 128.98-468.09z"/><path class="a6c7de25-7ef3-4ef6-81bc-1e0da10ee5cd" d="M452.99 343.19zM328.29 796.43l5.82-4.46-5.82 4.46z"/><path d="m334.11 791.97 1.32-1.02 117.34-423.76.22-24-124.7 453.24 5.82-4.46z"/><path class="f4448ecf-8b3d-4206-afe9-0851143718bb" d="m340.98 786.7 2.02-1.55-2.02 1.55zM452.77 402v-1.69l-.01 1.71.01-.02z"/><path style="fill:#fff" d="m340.98 786.7 2.02-1.55 4.4-3.37 105.36-379.76.01-1.71v-21.25L340.98 786.7z"/></g><g id="fba000d5-ce54-42e2-b14d-8e45a6efe6cb" data-name="panel"><path class="a4034378-8032-42bd-b99c-665bd729843f" d="m10.48 450.07 250.42 44.11.2-40.16L9.69 410.31l.79 39.76z"/><path class="b6a6bfc3-668b-4535-8998-837d95297456" d="m79.37 345.21-69.68 65.1 251.41 43.71 68.62-66.28-250.35-42.53z"/></g><g id="b5c347a5-6a97-4f0e-a8db-3a93545f2154" data-name="ecran"><path class="a4034378-8032-42bd-b99c-665bd729843f" d="M96.84 129.36 79.7 347.72l250.52 42.43L347.82 168zm224.28 67.76c0 .2-.29.32-.48.49l-10.43 144.83a35.43 35.43 0 0 1-4.3 3.78l1.4.29v10.7s-1.4 4.75-11.08 2.64c-11.19-2.44-178.55-31.91-178.55-31.91l8.72-6.78v-1.39s-2.46.52-6-7l-12.48 2.77h-4l11.34-158.77s4-6.85 10.81-6.59 191.16 30.59 191.16 30.59 6.17 1.07 3.89 16.35z" transform="translate(-.98 -.52)"/><path d="M317.28 180S133 149.66 126.12 149.4s-10.81 6.6-10.81 6.6l-11.74 160.08h4.35l12.29-2.68c-.1-.23-.74-1.57-.85-1.8L131 166.54s2.11-5.54 7.12-7.38l177.49 27.16a20.77 20.77 0 0 1 5.11 9.76l-.05.75c.19-.17.62.66.66.47 3.23-14.06-4.05-17.3-4.05-17.3z" transform="translate(-.98 -.52)" style="fill:#151312"/><path d="m125.32 320-8.56 8s164.63 29.3 178.61 32.24c10.36 2.17 14.43-3.58 14.43-3.58l.61-7.37.39-7.71-4.89 3.84a20.85 20.85 0 0 1-7.73 3.87z" transform="translate(-.98 -.52)" style="fill:#555353"/><path d="M319.5 197.81c.45-.36.83-.69 1.14-1l.66-.52a20.31 20.31 0 0 0-5.72-10l-177.49-27.13c-5 1.84-7.12 7.38-7.12 7.38L119.36 311.6l.32.66c3.54 7.52 6.28 8 6.28 8l.44.08 171.78 28.93a20.85 20.85 0 0 0 7.73-3.87c2.57-1.91 4.89-3.84 4.89-3.84l10.5-145.29c-.44.46-1.05.96-1.8 1.54zM143.83 302.35z" transform="translate(-.98 -.52)" style="fill:#008aa6"/></g><g id="ada22f53-7fd6-4813-9b16-e0c05182211d" data-name="top"><path id="b25bbd73-ee98-41c4-851f-13eac9b33eab" data-name="marquee" class="a4034378-8032-42bd-b99c-665bd729843f" d="m68.24 123.5 251.47 39.03.43-89.47L67.78 34.42l.46 89.08z"/><path style="stroke-miterlimit:10;stroke:#b5b5b5;fill:#373735" d="m128.84 2.64-5.74-.96-55.32 32.74 252.36 38.64 52.39-33.24L128.84 2.64z"/></g><g id="ebb0acc4-f4df-4fe2-8a96-8b4449fd9954" data-name="stickp1"><path class="b3aff894-1d46-4c76-9617-2a338e7e5991" d="M68.92 377.27v5.16H62.4v-5.16c-5.06.64-8.77 2.7-8.77 5.16 0 3 5.38 5.35 12 5.35s12-2.39 12-5.35c.06-2.43-3.63-4.52-8.71-5.16z" transform="translate(-.98 -.52)"/><path class="b38b7378-02dc-4fd9-8291-10475d8e4173" d="M68.92 377.27v-17.78a12.18 12.18 0 0 1-3 .39 12.4 12.4 0 0 1-3.48-.49v17.88a26.67 26.67 0 0 1 6.52 0z" transform="translate(-.98 -.52)"/><path class="b38b7378-02dc-4fd9-8291-10475d8e4173" d="M68.92 382.43v-5.16a26.67 26.67 0 0 0-6.52 0v5.16z" transform="translate(-.98 -.52)"/><path class="f5c7f3ea-b339-4ac1-a4e6-31cc9e2ec80c" d="M68.92 358.89v.6a11.24 11.24 0 0 0 8.77-10.72c0-6.14-5.29-11.11-11.81-11.11s-11.82 5-11.82 11.11a11.22 11.22 0 0 0 8.34 10.62v-.5z" transform="translate(-.98 -.52)"/><path class="b38b7378-02dc-4fd9-8291-10475d8e4173" d="M68.92 359.49v-.6H62.4v.5a12.4 12.4 0 0 0 3.48.49 12.18 12.18 0 0 0 3.04-.39z" transform="translate(-.98 -.52)"/><path class="f5c7f3ea-b339-4ac1-a4e6-31cc9e2ec80c" d="M68.92 359.49v-.6H62.4v.5a12.4 12.4 0 0 0 3.48.49 12.18 12.18 0 0 0 3.04-.39z" transform="translate(-.98 -.52)"/></g><g id="a5eb497e-8aea-4457-a222-e74f45405b7c" data-name="stickp2"><path class="b3aff894-1d46-4c76-9617-2a338e7e5991" d="M198.88 399.49v5.16h-6.53v-5.16c-5 .64-8.77 2.7-8.77 5.16 0 3 5.39 5.35 12 5.35s12-2.39 12-5.35c.07-2.46-3.64-4.52-8.7-5.16z" transform="translate(-.98 -.52)"/><path class="b38b7378-02dc-4fd9-8291-10475d8e4173" d="M198.88 399.49v-17.78a12.2 12.2 0 0 1-3 .39 12.83 12.83 0 0 1-3.48-.49v17.88a26.75 26.75 0 0 1 6.53 0z" transform="translate(-.98 -.52)"/><path class="b38b7378-02dc-4fd9-8291-10475d8e4173" d="M198.88 404.65v-5.16a26.75 26.75 0 0 0-6.53 0v5.16z" transform="translate(-.98 -.52)"/><path class="a8b4b57d-b7de-442e-af71-f1bdc6522d5c" d="M198.88 381.11v.6a11.24 11.24 0 0 0 8.77-10.71c0-6.14-5.29-11.11-11.82-11.11S184 364.85 184 371a11.22 11.22 0 0 0 8.34 10.62v-.5z" transform="translate(-.98 -.52)"/><path class="b38b7378-02dc-4fd9-8291-10475d8e4173" d="M198.88 381.71v-.6h-6.53v.5a12.83 12.83 0 0 0 3.48.49 12.2 12.2 0 0 0 3.05-.39z" transform="translate(-.98 -.52)"/><path class="a8b4b57d-b7de-442e-af71-f1bdc6522d5c" d="M198.88 381.71v-.6h-6.53v.5a12.83 12.83 0 0 0 3.48.49 12.2 12.2 0 0 0 3.05-.39z" transform="translate(-.98 -.52)"/></g><g id="bf52a8e4-5889-4ca9-a68b-f654a4bd0509" data-name="boutons P1"><g id="a34b99cd-309c-4aba-878f-faae611f03ae" data-name="4"><path class="a3af6a32-f195-4288-b3bd-9ac93f43defb" d="M92.54 389.14c-3.86 0-8.12 1.53-8.12 4.87 0 2.95 4.1 4.62 7.94 4.62 4.11 0 8-1.73 8-4.88-.04-2.35-3.88-4.61-7.82-4.61zm-.18 8.63c-3.86 0-7-1.74-7-3.89s3.13-3.89 7-3.89 7 1.74 7 3.89-3.14 3.89-7 3.89z" transform="translate(-.98 -.52)"/><path d="M92.36 390c-3.86 0-7 1.74-7 3.89s3.13 3.89 7 3.89 7-1.74 7-3.89-3.14-3.89-7-3.89z" transform="translate(-.98 -.52)" style="fill:url(#f3953d6d-8f4d-412a-bb94-b86b9d806c18)"/></g><g id="b11562a4-e298-4634-a6fb-2d4f381a88a7" data-name="5"><path class="a3af6a32-f195-4288-b3bd-9ac93f43defb" d="M114.79 389.14c-3.86 0-8.12 1.53-8.12 4.87 0 2.95 4.1 4.62 7.94 4.62 4.11 0 8-1.73 8-4.88-.04-2.35-3.88-4.61-7.82-4.61zm-.18 8.63c-3.86 0-7-1.74-7-3.89s3.13-3.89 7-3.89 7 1.74 7 3.89-3.14 3.89-7 3.89z" transform="translate(-.98 -.52)"/><path d="M114.61 390c-3.86 0-7 1.74-7 3.89s3.13 3.89 7 3.89 7-1.74 7-3.89-3.14-3.89-7-3.89z" transform="translate(-.98 -.52)" style="fill:url(#a469b2cf-3443-4cd3-ba2f-5531b274c66e)"/></g><g id="b2fffa8a-69ac-48b8-9f44-aa8473634411" data-name="6"><path class="a3af6a32-f195-4288-b3bd-9ac93f43defb" d="M133.35 395.3c-3.86 0-8.13 1.53-8.13 4.87 0 3 4.11 4.62 7.95 4.62 4.1 0 8-1.73 8-4.88-.04-2.35-3.88-4.61-7.82-4.61zm-.18 8.63c-3.86 0-7-1.74-7-3.89s3.13-3.89 7-3.89 7 1.74 7 3.89-3.17 3.89-7 3.89z" transform="translate(-.98 -.52)"/><path d="M133.17 396.15c-3.86 0-7 1.74-7 3.89s3.13 3.89 7 3.89 7-1.74 7-3.89-3.17-3.89-7-3.89z" transform="translate(-.98 -.52)" style="fill:url(#a2a722ce-cd52-4a19-8651-703802048206)"/></g><g id="ad5c86e2-1d43-444c-84be-6ffaf2de6715" data-name="3"><path class="a3af6a32-f195-4288-b3bd-9ac93f43defb" d="M139.39 383c-3.86 0-8.13 1.53-8.13 4.88 0 2.95 4.11 4.61 8 4.61 4.1 0 8-1.73 8-4.88-.09-2.31-3.93-4.61-7.87-4.61zm-.18 8.63c-3.86 0-7-1.74-7-3.89s3.13-3.89 7-3.89 7 1.75 7 3.89-3.14 3.93-7 3.93z" transform="translate(-.98 -.52)"/><path d="M139.21 383.89c-3.86 0-7 1.75-7 3.89s3.13 3.89 7 3.89 7-1.74 7-3.89-3.14-3.89-7-3.89z" transform="translate(-.98 -.52)" style="fill:url(#b1fdc50e-3f7e-4d5a-b21b-881ead0a8876)"/></g><g id="a6dc9e92-ee24-4e37-af07-47aa838f07a4" data-name="2"><path class="a3af6a32-f195-4288-b3bd-9ac93f43defb" d="M121.79 377.35c-3.86 0-8.12 1.53-8.12 4.88 0 2.95 4.1 4.61 7.94 4.61 4.11 0 8-1.73 8-4.88-.04-2.34-3.88-4.61-7.82-4.61zm-.18 8.64c-3.86 0-7-1.74-7-3.89s3.13-3.89 7-3.89 7 1.74 7 3.89-3.14 3.9-7 3.9z" transform="translate(-.98 -.52)"/><path d="M121.61 378.21c-3.86 0-7 1.74-7 3.89s3.13 3.89 7 3.89 7-1.74 7-3.89-3.14-3.89-7-3.89z" transform="translate(-.98 -.52)" style="fill:url(#e024587e-dfe5-447d-9157-1ad60bf16f87)"/></g><g id="ef7344e6-a4ce-4176-a281-91d8d44037dd" data-name="1"><path class="a3af6a32-f195-4288-b3bd-9ac93f43defb" d="M100.5 377.78c-3.86 0-8.13 1.53-8.13 4.88 0 2.95 4.11 4.62 7.95 4.62 4.1 0 8-1.73 8-4.88-.04-2.35-3.88-4.62-7.82-4.62zm-.18 8.64c-3.86 0-7-1.74-7-3.89s3.13-3.89 7-3.89 7 1.74 7 3.89-3.14 3.89-7 3.89z" transform="translate(-.98 -.52)"/><path d="M100.32 378.64c-3.86 0-7 1.74-7 3.89s3.13 3.89 7 3.89 7-1.74 7-3.89-3.14-3.89-7-3.89z" transform="translate(-.98 -.52)" style="fill:url(#a435d769-99dc-489b-9ffa-8abbf76008e3)"/></g></g><g id="ae4ed6e1-205d-4894-856e-a91c49296ec2" data-name="boutons P2"><g id="b474089c-1c22-4406-b23f-869f3672e879" data-name="1"><path class="b060cf13-89e8-4a38-a346-57a056abd6be" d="M225.69 399.93c-3.86 0-8.13 1.53-8.13 4.87 0 2.95 4.11 4.62 7.95 4.62 4.1 0 8-1.73 8-4.88-.04-2.35-3.88-4.61-7.82-4.61zm-.18 8.63c-3.86 0-7-1.74-7-3.89s3.13-3.89 7-3.89 7 1.74 7 3.89-3.14 3.89-7 3.89z" transform="translate(-.98 -.52)"/><path d="M225.51 400.78c-3.86 0-7 1.74-7 3.89s3.13 3.89 7 3.89 7-1.74 7-3.89-3.14-3.89-7-3.89z" transform="translate(-.98 -.52)" style="fill:url(#e660c3f2-d997-4264-90dd-171a5f35dd50)"/></g><g id="a1e6253c-994d-4433-8a55-886aaa0321cc" data-name="2"><path class="b060cf13-89e8-4a38-a346-57a056abd6be" d="M247 399.49c-3.86 0-8.13 1.54-8.13 4.88 0 2.95 4.11 4.62 7.95 4.62 4.1 0 8-1.73 8-4.88-.07-2.35-3.91-4.62-7.82-4.62zm-.18 8.64c-3.86 0-7-1.74-7-3.89s3.13-3.89 7-3.89 7 1.74 7 3.89-3.17 3.89-7.03 3.89z" transform="translate(-.98 -.52)"/><path d="M246.79 400.35c-3.86 0-7 1.74-7 3.89s3.13 3.89 7 3.89 7-1.74 7-3.89-3.14-3.89-7-3.89z" transform="translate(-.98 -.52)" style="fill:url(#a611e967-ec71-4f1d-8d63-fe4993a2050a)"/></g><g id="f4492382-ed8f-4ccd-8c91-c289f2b09dc0" data-name="3"><path class="b060cf13-89e8-4a38-a346-57a056abd6be" d="M264.58 405.18c-3.86 0-8.12 1.53-8.12 4.88 0 2.95 4.1 4.61 7.94 4.61 4.1 0 8-1.73 8-4.88-.04-2.35-3.88-4.61-7.82-4.61zm-.18 8.64c-3.86 0-7-1.75-7-3.89s3.13-3.89 7-3.89 7 1.74 7 3.89-3.14 3.89-7 3.89z" transform="translate(-.98 -.52)"/><path d="M264.4 406c-3.86 0-7 1.74-7 3.89s3.13 3.89 7 3.89 7-1.75 7-3.89-3.14-3.89-7-3.89z" transform="translate(-.98 -.52)" style="fill:url(#eb013077-7df6-4bb9-8546-3cbe823cce20)"/></g><g id="a84646d1-3da0-4b09-8a87-d54f904e966d" data-name="4"><path class="b060cf13-89e8-4a38-a346-57a056abd6be" d="M258.54 417.44c-3.86 0-8.13 1.53-8.13 4.88 0 2.95 4.11 4.61 8 4.61 4.1 0 8-1.73 8-4.88-.09-2.35-3.93-4.61-7.87-4.61zm-.18 8.64c-3.86 0-7-1.75-7-3.89s3.13-3.89 7-3.89 7 1.74 7 3.89-3.14 3.89-7 3.89z" transform="translate(-.98 -.52)"/><path d="M258.36 418.3c-3.86 0-7 1.74-7 3.89s3.13 3.89 7 3.89 7-1.75 7-3.89-3.14-3.89-7-3.89z" transform="translate(-.98 -.52)" style="fill:url(#bce0ec46-8cb1-4493-a73f-024ebaaa1dae)"/></g><g id="a1fca2e2-302f-4d8b-a7ce-2d4f28b54a4d" data-name="5"><path class="b060cf13-89e8-4a38-a346-57a056abd6be" d="M240 411.28c-3.86 0-8.13 1.53-8.13 4.88 0 2.95 4.11 4.61 7.95 4.61 4.1 0 8-1.73 8-4.88-.07-2.35-3.91-4.61-7.82-4.61zm-.18 8.63c-3.86 0-7-1.74-7-3.89s3.13-3.89 7-3.89 7 1.75 7 3.89-3.17 3.89-7.03 3.89z" transform="translate(-.98 -.52)"/><path d="M239.79 412.13c-3.86 0-7 1.75-7 3.89s3.13 3.89 7 3.89 7-1.74 7-3.89-3.14-3.89-7-3.89z" transform="translate(-.98 -.52)" style="fill:url(#b2e84204-fa04-42ab-8931-856a8919d6b8)"/></g><g id="b0acb6bd-a3f7-4961-b6f7-c75a92ada5d8" data-name="6"><path class="b060cf13-89e8-4a38-a346-57a056abd6be" d="M217.73 411.28c-3.86 0-8.13 1.53-8.13 4.88 0 2.95 4.11 4.61 8 4.61 4.1 0 8-1.73 8-4.88-.09-2.35-3.93-4.61-7.87-4.61zm-.18 8.63c-3.86 0-7-1.74-7-3.89s3.13-3.89 7-3.89 7 1.75 7 3.89-3.14 3.89-7 3.89z" transform="translate(-.98 -.52)"/><path d="M217.55 412.13c-3.86 0-7 1.75-7 3.89s3.13 3.89 7 3.89 7-1.74 7-3.89-3.14-3.89-7-3.89z" transform="translate(-.98 -.52)" style="fill:url(#acdbff4d-92fd-4bc8-a36b-f7d965f289e8)"/></g></g><path class="a47bce7d-3ad3-41a8-a9c2-6969e0f7a074" d="M228.57 237.19v.07l-5.92-1v-.08zM236.56 238.53a.13.13 0 0 0 0 .06l-5.72-1v-.06z" transform="translate(-.98 -.52)"/><path class="ad696c09-3c14-4294-a22a-ee0a74aceb64" d="m210.17 273.38-65.56-11c-.87-.14-.87-.14-.74-.92.25-1.54.47-3.08.75-4.61.78-4.31 1.48-8.63 2.22-12.95.09-.48.22-1 .29-1.44 0-.18.12-.23.31-.19l.75.13 119.31 19.98a16.13 16.13 0 0 1 4.69 1.42 11.54 11.54 0 0 1 5.67 5.9 8.36 8.36 0 0 1 .63 3.88c0 .38-.08.76-.15 1.14l-1.56 9.36c-.07.39-.13.42-.54.36l-40.11-6.72zm14.68-7.7c-.4 2.35-.79 4.71-1.19 7.07 0 .23 0 .34.3.38 1 .15 1.95.32 2.93.49.51.09.51.09.59-.37q.69-4.22 1.4-8.43c0-.08 0-.21.12-.22s.13.1.17.17c1.69 3.14 3.43 6.26 5.06 9.42a2.38 2.38 0 0 0 3.55.6c.9-.94 1.91-1.79 2.87-2.68l4.89-4.53c.08-.07.15-.22.26-.17s0 .2 0 .31v.12c-.47 2.79-.93 5.58-1.4 8.37 0 .25 0 .35.31.4 1 .16 2 .32 3.06.51.34.07.45 0 .49-.32l2.32-13.83a1.32 1.32 0 0 0-.25-1 2.34 2.34 0 0 0-3.26-.37l-2.16 2-8.12 7.4c-.25.23-.28.22-.45-.08-2.2-4.06-4.42-8.11-6.61-12.17a2.14 2.14 0 0 0-1.43-1.06A1.74 1.74 0 0 0 226 259zm-4.51-.71c.38-2.31.76-4.61 1.16-6.92a1.32 1.32 0 0 0-.45-1.21 2.4 2.4 0 0 0-3.17 0c-2.39 2.24-4.82 4.43-7.24 6.63l-2.95 2.7c-.13.12-.23.25-.37 0l-3.44-6.31c-1.1-2-2.19-4-3.3-6a2.24 2.24 0 0 0-2.21-1 1.52 1.52 0 0 0-1.5 1.37q-1.16 6.86-2.3 13.71c0 .28.05.37.35.41 1 .15 2 .32 3 .5.44.07.45.08.51-.3.46-2.73.91-5.46 1.37-8.19 0-.13 0-.27.06-.4s0-.16.11-.17.1.08.13.14.18.34.28.51c1.63 3 3.29 6 4.88 9.07a2.34 2.34 0 0 0 3.35.6c.47-.47 1-.91 1.48-1.37l6.5-6c.06-.05.09-.14.19-.11s.07.14.06.22c-.14.81-.28 1.62-.41 2.44-.35 2.06-.69 4.13-1 6.2 0 .22 0 .32.29.36l3 .5c.44.07.45.07.52-.31q.51-3.6 1.1-7.04zm33.15 5.67c-.38 2.28-.76 4.57-1.15 6.85-.06.31.06.41.38.45 1 .16 2 .32 3 .5.33.07.45 0 .5-.31.16-1 .35-2.08.51-3.12 0-.23.12-.33.4-.28l12.77 2.14c.33.05.39.18.34.45-.18 1-.34 2.08-.53 3.12-.05.25 0 .35.32.4 1 .15 2 .32 3 .49.45.07.46.07.53-.34l1.22-7.32a6.88 6.88 0 0 0-2.51-6.52 12.61 12.61 0 0 0-6.36-3c-2.38-.41-4.76-.8-7.13-1.19-.72-.12-1.45-.26-2.17-.35a1.6 1.6 0 0 0-1.91 1.29c-.46 2.27-.83 4.5-1.21 6.74zm-62.24-10.42 1.14-6.79a1.24 1.24 0 0 0 0-.47 1.91 1.91 0 0 0-1.63-1.33c-1.55-.26-3.1-.53-4.65-.77-1.84-.3-3.66-.71-5.51-.87a11.55 11.55 0 0 0-7 1.39 6.55 6.55 0 0 0-3.37 4.67q-.63 3.74-1.25 7.47c-.07.4-.07.4.36.47 1 .17 2 .32 2.93.5.33.06.45 0 .5-.31.15-1 .34-2.06.5-3.09 0-.29.17-.35.48-.3l12.67 2.12c.34 0 .42.16.37.46-.19 1-.35 2.08-.54 3.11 0 .26 0 .36.32.4 1 .16 2 .32 3 .51.33.06.44 0 .49-.32.42-2.28.81-4.57 1.19-6.85zm-38.3 1 6.47 1.08a7.76 7.76 0 0 0 2.76 0 3.93 3.93 0 0 0 3.34-2.92c.64-3.78 1.26-7.55 1.9-11.33.05-.27 0-.37-.33-.42-1-.15-2-.32-3-.5-.36-.07-.46 0-.51.33q-.92 5.58-1.86 11.15a1.08 1.08 0 0 1-1.24.95 4.41 4.41 0 0 1-.73-.08c-1-.18-2-.37-3.06-.54l-7-1.15c-.28-.05-.35-.15-.31-.38.11-.59.19-1.18.31-1.76.06-.28 0-.4-.35-.45-.84-.13-1.68-.26-2.52-.42-.34-.07-.44 0-.49.32-.24 1.49-.49 3-.74 4.45-.07.42-.07.42.42.5zM230.83 237.63l5.72 1c.15.09.15.2.13.35-.37 2.17-.73 4.34-1.11 6.51 0 .29 0 .38.34.43 3.09.5 6.18 1 9.27 1.54.32.05.34.16.31.44-.06.67-.23 1.33-.32 2-.22 1.55-.54 3.09-.8 4.63-.1.59-.17 1.19-.26 1.78 0 .2-.12.31-.4.26L228.57 254c-.65-.11-.65-.11-.56-.68q1.29-7.69 2.57-15.38c.02-.15.02-.31.25-.31zm3.94 12.7c-.13.78-.25 1.56-.39 2.34-.05.27 0 .38.33.43 1.06.16 2.11.34 3.16.53.32.06.44 0 .49-.31.25-1.55.51-3.1.78-4.66 0-.24 0-.34-.31-.38q-1.62-.25-3.24-.54c-.28-.05-.39 0-.43.27-.16.78-.26 1.55-.39 2.32zM255.63 249.17c2.55.43 5.09.86 7.64 1.27.34.06.42.17.37.47q-.7 4.14-1.39 8.3c-.07.37-.1.4-.52.33L246.38 257c-.27-.05-.34-.16-.3-.39q.72-4.21 1.41-8.43c0-.28.18-.33.47-.28 2.55.44 5.11.86 7.67 1.29zm1.31 4.88c.14-.8.27-1.6.41-2.4 0-.23 0-.36-.3-.4l-3.44-.58c-.26 0-.38 0-.42.27l-.81 4.85c0 .25.05.36.33.41l3.37.56c.3.06.42 0 .46-.3.13-.8.27-1.6.4-2.41zM173.53 244.78l-7.64-1.27c-.31 0-.37-.15-.33-.42q.72-4.2 1.42-8.42c0-.25.13-.32.4-.27l15.36 2.6c.41.07.43.11.37.49-.26 1.55-.53 3.11-.78 4.66 0 .31-.17.37-.5.32-3.07-.53-6.15-1-9.22-1.55-.46-.08-.46-.08-.52.32s-.11.7-.19 1 0 .35.31.4c2.06.33 4.11.68 6.17 1l3.16.53c.32.05.42.17.37.44s-.14.74-.19 1.11-.18.38-.51.32zm.92-5.45c.56.1 1.13.18 1.69.29.25 0 .35 0 .38-.25 0-.39.12-.78.2-1.17 0-.21 0-.32-.26-.36l-3.41-.57c-.22 0-.33 0-.36.23q-.08.62-.18 1.23c0 .23.06.3.29.33.55.07 1.1.17 1.65.27zM211.28 241.75l7.64 1.28c.44.07.5.14.42.52-.43 2-.7 4-1.05 6-.14.74-.27 1.48-.37 2.23 0 .29-.15.37-.49.31-2.08-.36-4.17-.7-6.26-1l-9-1.51c-.42-.07-.43-.08-.37-.47.26-1.56.53-3.11.77-4.67 0-.32.18-.37.52-.31l9.16 1.54c.46.07.46.07.53-.33s.09-.67.17-1 0-.4-.36-.46c-2.34-.37-4.68-.77-7-1.16l-2.31-.38c-.24 0-.32-.12-.28-.34a10.85 10.85 0 0 0 .21-1.27c0-.27.16-.31.43-.26l5.37.9 2.27.38zm-1.15 7.25c.55.09 1.11.17 1.66.27.21 0 .33 0 .36-.21l.21-1.23c0-.19-.05-.29-.27-.33l-3.33-.56c-.24 0-.35 0-.38.24 0 .4-.11.79-.19 1.17-.05.23.05.33.29.37.52.07 1.1.17 1.65.28zM268.74 251.36c.87.15 1.74.31 2.62.44.31 0 .38.18.34.43-.08.4-.13.8-.21 1.2 0 .21 0 .3.27.34l3.36.56c.28 0 .38 0 .41-.27.06-.41.15-.82.2-1.23 0-.23.15-.27.37-.24l5.4.91c.21 0 .3.13.27.33-.08.43-.16.86-.22 1.29 0 .23-.16.29-.41.25-.44-.09-.89-.15-1.34-.24-.24 0-.33 0-.36.24-.05.4-.13.8-.19 1.2 0 .23-.15.3-.4.25-.47-.08-.94-.15-1.41-.24-.17 0-.24 0-.29.17-.13.44-.08.91-.25 1.34-.07.18.07.24.24.27l1.38.22c.28 0 .38.15.33.41s-.13.78-.21 1.17c0 .21.05.31.28.34l1.34.22c.25 0 .34.13.3.36-.09.42-.17.84-.22 1.27 0 .22-.15.27-.36.24l-.65-.11-4.62-.77c-.45-.08-.45-.08-.38-.49s.12-.76.19-1.14c.05-.21 0-.3-.27-.34l-3.44-.58c-.22 0-.29 0-.31.21-.06.4-.16.8-.19 1.21s-.19.37-.5.32l-4.72-.8c-1.16-.19-.93-.1-.8-1 0-.25.09-.49.12-.74s.16-.29.4-.25c.45.09.9.15 1.34.24.27.05.39 0 .42-.26s.14-.78.19-1.17.16-.31.41-.26c.46.09.92.15 1.37.24.21 0 .3 0 .32-.2.06-.43.13-.85.22-1.27 0-.21-.05-.28-.26-.31l-1.38-.23c-.24 0-.34-.12-.29-.36s.14-.78.21-1.17c0-.23 0-.35-.31-.38-.45-.06-.9-.15-1.35-.22-.25 0-.34-.14-.29-.37q.12-.63.21-1.26c0-.24.16-.29.4-.24zM222.64 236.28l5.92 1a.42.42 0 0 1 .05.36q-1.31 7.77-2.6 15.56c0 .28-.17.37-.48.31s-.88-.19-1.33-.26l-3.89-.62c-.46-.08-.45-.08-.39-.49q1.31-7.74 2.6-15.49c.02-.14 0-.28.12-.37zM191.71 247.82l-7.71-1.28c-.3 0-.4-.14-.35-.43q.72-4.2 1.41-8.4c0-.26.15-.32.42-.27l15.39 2.56c.31.05.42.18.36.45s-.11.72-.19 1.08-.13.41-.55.34l-4.16-.7-5.06-.85c-.28 0-.37 0-.41.25-.22 1.39-.46 2.78-.69 4.17a2.74 2.74 0 0 1 0 .28c-.11.6-.11.6.58.72l8.92 1.49c.42.07.45.11.39.5s-.15.72-.18 1.08-.19.35-.48.3c-.56-.11-1.12-.2-1.68-.29z" transform="translate(-.98 -.52)"/><path d="M291.07 282.1c-.25 1.47-.49 2.94-.74 4.41-.07.42-.07.42-.51.34l-4.27-.71c-.27 0-.37-.13-.3-.37s.07-.41.11-.62-.06-.27-.25-.29l-.49-.05c-.39-.06-.49 0-.51.37v.19c0 .43-.14.5-.63.42-1.39-.23-2.79-.47-4.19-.69-.32-.05-.4-.19-.36-.45.5-3 1-5.91 1.49-8.86.06-.36.14-.42.55-.33 2.95.58 5.92 1 8.87 1.52.52.09 1 .13 1.55.22s.47.1.4.52c-.24 1.46-.49 2.92-.73 4.38zm-8.37-.17 1.58.27c.22 0 .32 0 .35-.22.1-.59.2-1.19.31-1.79 0-.21-.06-.3-.29-.34l-3.13-.52c-.21 0-.31 0-.35.22-.08.59-.18 1.19-.29 1.79 0 .21 0 .31.27.34zm5.47-1.49c-.52-.08-1-.16-1.55-.26-.25-.05-.36 0-.39.24-.09.59-.19 1.19-.29 1.78-.05.23.05.29.28.33 1 .16 2 .33 3 .51.28.05.39 0 .43-.27.08-.56.17-1.13.28-1.69 0-.23 0-.35-.3-.39-.48-.08-.97-.17-1.46-.25z" transform="translate(-.98 -.52)" style="fill:#2785db"/><path d="M292.87 271.31c-.25 1.48-.5 3-.74 4.44-.07.38-.11.4-.52.34l-2.86-.48c-.41-.07-.49-.18-.43-.54.14-.85.28-1.71.43-2.56a.34.34 0 0 1 0-.1c.2-.63.12-.52.72-.43l1.48.25c.26 0 .4 0 .44-.25.09-.59.19-1.18.29-1.76 0-.21 0-.33-.3-.38l-8-1.34c-.26 0-.39.05-.42.28-.09.57-.19 1.14-.28 1.7 0 .23.05.36.31.41l3.06.52a.25.25 0 0 0 .33-.17 1.81 1.81 0 0 0 .12-.64c0-.19.11-.24.27-.29a.45.45 0 0 1 .2 0c.85.09.89.14.77.88-.21 1.26-.43 2.51-.63 3.77 0 .26-.17.34-.43.3l-5.43-.91c-.49-.08-.55-.15-.48-.58.49-3 1-5.91 1.48-8.87 0-.17.09-.23.28-.22s.55 0 .83.08l9.77 1.63c.55.09.55.1.47.6l-.72 4.32z" transform="translate(-.98 -.52)" style="fill:#44c047"/><path d="M289.84 254.78c1.75.29 3.49.59 5.24.87.3 0 .4.13.35.42-.51 3-1 5.95-1.49 8.92-.05.3-.16.38-.49.32-1.4-.25-2.8-.48-4.2-.71-.36-.06-.42-.15-.36-.47 0-.12.06-.23.08-.34.08-.47.08-.47-.46-.56h-.21c-.5-.08-.51-.08-.54.39 0 .18-.1.34-.11.52s-.18.19-.35.16l-4.44-.74c-.23 0-.32-.15-.29-.35.17-1 .35-2 .51-3.06 0-.28.23-.27.45-.23l1.83.3c.8.15 1.61.24 2.4.44.25.06.44 0 .48-.27.07-.57.17-1.14.28-1.7.05-.27 0-.38-.34-.43-1.42-.22-2.83-.47-4.24-.7-.29 0-.4-.12-.35-.4.18-1 .33-2 .48-3 0-.26.15-.33.44-.28 1.77.31 3.55.6 5.33.9zm1.49 6.43c.51.08 1 .16 1.54.26.22 0 .35 0 .39-.21.09-.61.19-1.22.3-1.82 0-.2 0-.32-.27-.35l-3.09-.52c-.22 0-.32 0-.35.21-.09.63-.2 1.25-.31 1.88 0 .18 0 .26.24.29z" transform="translate(-.98 -.52)" style="fill:#eb1416"/><path class="ad696c09-3c14-4294-a22a-ee0a74aceb64" d="m156.94 232.66 7.54 1.26c.53.09.53.09.45.57s-.13.7-.17 1-.16.33-.44.28l-9.3-1.57c-.33-.05-.41 0-.45.3-.35 2.17-.72 4.33-1.07 6.49-.05.31-.2.36-.51.31l-5.19-.87c-.3 0-.4-.14-.35-.42q.72-4.19 1.4-8.39c.05-.31.19-.34.48-.29z" transform="translate(-.98 -.52)"/><path class="a47bce7d-3ad3-41a8-a9c2-6969e0f7a074" d="M224.85 265.68 226 259a1.74 1.74 0 0 1 2.34-1.33 2.14 2.14 0 0 1 1.43 1.06c2.19 4.06 4.41 8.11 6.61 12.17.17.3.2.31.45.08l8.14-7.43 2.16-2a2.34 2.34 0 0 1 3.26.37 1.32 1.32 0 0 1 .25 1q-1.17 6.91-2.32 13.83c0 .29-.15.39-.49.32-1-.19-2-.35-3.06-.51-.3-.05-.36-.15-.31-.4.47-2.79.93-5.58 1.4-8.37v-.12c0-.04.11-.25 0-.31s-.18.1-.26.17l-4.89 4.53c-1 .89-2 1.74-2.87 2.68a2.38 2.38 0 0 1-3.55-.6c-1.63-3.16-3.37-6.28-5.06-9.42 0-.07-.06-.19-.17-.17s-.11.14-.12.22l-1.4 8.43c-.08.46-.08.46-.59.37-1-.17-1.95-.34-2.93-.49-.28 0-.34-.15-.3-.38.4-2.36.79-4.72 1.19-7.07zM220.34 265q-.59 3.46-1.16 6.95c-.07.38-.08.38-.52.31l-3-.5c-.27 0-.32-.14-.29-.36.36-2.07.7-4.14 1-6.2.13-.82.27-1.63.41-2.44 0-.08.06-.18-.06-.22s-.13.06-.19.11l-6.5 6c-.5.46-1 .9-1.48 1.37a2.34 2.34 0 0 1-3.35-.6c-1.59-3-3.25-6.05-4.88-9.07-.1-.17-.19-.34-.28-.51s-.05-.14-.13-.14-.1.1-.11.17 0 .27-.06.4c-.46 2.73-.91 5.46-1.37 8.19-.06.38-.07.37-.51.3-1-.18-2-.35-3-.5-.3 0-.4-.13-.35-.41q1.16-6.86 2.3-13.71a1.52 1.52 0 0 1 1.5-1.37 2.24 2.24 0 0 1 2.21 1c1.11 2 2.2 4 3.3 6l3.44 6.31c.14.27.24.14.37 0l2.95-2.7c2.42-2.2 4.85-4.39 7.24-6.63a2.4 2.4 0 0 1 3.17 0 1.32 1.32 0 0 1 .45 1.21c-.4 2.31-.78 4.61-1.16 6.92zM253.49 270.64c.38-2.24.75-4.47 1.13-6.7a1.6 1.6 0 0 1 1.91-1.29c.72.09 1.45.23 2.17.35 2.37.39 4.75.78 7.13 1.19a12.61 12.61 0 0 1 6.36 3 6.88 6.88 0 0 1 2.51 6.52q-.6 3.66-1.22 7.32c-.07.41-.08.41-.53.34-1-.17-2-.34-3-.49-.29 0-.37-.15-.32-.4.19-1 .35-2.08.53-3.12.05-.27 0-.4-.34-.45l-12.77-2.14c-.28-.05-.36 0-.4.28-.16 1-.35 2.08-.51 3.12-.05.3-.17.38-.5.31-1-.18-2-.34-3-.5-.32 0-.44-.14-.38-.45.39-2.28.77-4.57 1.15-6.85zM264 273l6.37 1.07c.3 0 .43 0 .46-.28s.08-.52.12-.78a4.27 4.27 0 0 0-1.54-4.2 8.48 8.48 0 0 0-4-1.85c-2.25-.43-4.52-.78-6.77-1.17-.34-.06-.36.12-.4.33q-.44 2.69-.9 5.37c0 .29 0 .4.36.46zM191.25 260.22c-.38 2.28-.77 4.57-1.14 6.85-.05.3-.16.38-.49.32-1-.19-2-.35-3-.51-.29 0-.36-.14-.32-.4.19-1 .35-2.08.54-3.11.05-.3 0-.41-.37-.46l-12.67-2.12c-.31-.05-.44 0-.48.3-.16 1-.35 2.05-.5 3.09 0 .3-.17.37-.5.31-1-.18-1.95-.33-2.93-.5-.43-.07-.43-.07-.36-.47q.62-3.74 1.25-7.47a6.55 6.55 0 0 1 3.37-4.67 11.55 11.55 0 0 1 7-1.39c1.85.16 3.67.57 5.51.87 1.55.24 3.1.51 4.65.77a1.91 1.91 0 0 1 1.59 1.37 1.24 1.24 0 0 1 0 .47l-1.14 6.79zm-10.67-1.14c2.11.35 4.22.7 6.33 1.07.32.05.44 0 .48-.29.3-1.81.6-3.63.91-5.44 0-.26 0-.37-.33-.42q-3-.48-6-1a11.11 11.11 0 0 0-3.77 0 4.85 4.85 0 0 0-3.81 2.54 7.49 7.49 0 0 0-.52 2c-.07.4-.07.41.4.48zM153 261.25l-7-1.17c-.49-.08-.49-.08-.42-.5.25-1.48.5-3 .74-4.45.05-.28.15-.39.49-.32.84.16 1.68.29 2.52.42.31.05.41.17.35.45-.12.58-.2 1.17-.31 1.76 0 .23 0 .33.31.38l7 1.15c1 .17 2 .36 3.06.54a4.41 4.41 0 0 0 .73.08 1.08 1.08 0 0 0 1.24-.95q.94-5.58 1.86-11.15c0-.3.15-.4.51-.33 1 .18 2 .35 3 .5.3.05.38.15.33.42-.64 3.78-1.26 7.55-1.9 11.33a3.93 3.93 0 0 1-3.34 2.92 7.76 7.76 0 0 1-2.76 0l-6.41-1.08z" transform="translate(-.98 -.52)"/><path class="ad696c09-3c14-4294-a22a-ee0a74aceb64" d="m264 273-6.33-1c-.34-.06-.41-.17-.36-.46q.47-2.68.9-5.37c0-.21.06-.39.4-.33 2.25.39 4.52.74 6.77 1.17a8.48 8.48 0 0 1 4 1.85 4.27 4.27 0 0 1 1.54 4.2c0 .26-.1.52-.12.78s-.16.33-.46.28zM180.58 259.08l-6.3-1.06c-.47-.07-.47-.08-.4-.48a7.49 7.49 0 0 1 .52-2 4.85 4.85 0 0 1 3.81-2.54 11.11 11.11 0 0 1 3.77 0q3 .51 6 1c.31.05.38.16.33.42-.31 1.81-.61 3.63-.91 5.44 0 .29-.16.34-.48.29-2.11-.37-4.22-.72-6.33-1.07z" transform="translate(-.98 -.52)"/></g><g id="f5fbdbd9-b646-400b-9d95-c11a1072db37" data-name="a8dbfb64-eba3-4b52-a7fb-68dcfc65d5f8"><path class="f08ec7df-5157-4858-b283-b85e60f08179" d="m105.41 88.41 60.3 9.39 27.58 4.2 100.55 15.55a17.88 17.88 0 0 1 7.29 2.43l.43.46a17.42 17.42 0 0 1 6.28 17.22c-1.33 6.33-6.24 10.27-11.92 9.56L94.21 116.33c-8-1.2-13.89-8.68-13.59-17.48.19-5.64 2.43-9.45 6.69-11.68a10.11 10.11 0 0 1 2.23-.62 19.55 19.55 0 0 1 5.59.3zm143 37.18v5.44a5.24 5.24 0 0 0 1 3.2c2.66 3.65 12.41 5.14 15.21 2.34 1.37-1.37 1.31-5.75 1.31-5.75l-3.27-.5c-.06 0-2.72-.39-2.51 2.23.2 2.41-1.56 2.2-3 2s-2.93-.45-2.88-2.95q.12-5.07.08-10.16c0-2.35 1.39-2.31 2.73-2.11s3.24.33 3.15 2.91l.06 1.64c.57 0 4.67.68 5.25.77l-.05-3.82a5.19 5.19 0 0 0-2.4-2.8 16.48 16.48 0 0 0-11.69-1.84c-2.2.51-2.94 1.91-3 4.73v4.71zm36.35-5.29a10.49 10.49 0 0 0-6 .16c-3 1.15-3.5 4.77-.95 7.61a24.34 24.34 0 0 0 3.24 2.81c1.61 1.27 3.3 2.39 4.9 3.69.89.74 1.76 1.79 1.28 3.09-.58 1.56-2 1.21-3.15 1-1-.23-2.47-.35-2.47-2.1v-1.8l-3.74-.58a2.06 2.06 0 0 0-1.68 2.83 4.63 4.63 0 0 0 1.77 2.51c4.36 2.78 8.81 3.59 13.15 2 2.57-1 2.83-4.35.79-7a20.08 20.08 0 0 0-4.57-3.86 23.43 23.43 0 0 1-4.33-3.42c-.81-.91-1.32-2-.65-3s2-.85 3.17-.53 2.13.64 2.15 2.29c0 1 1.21 1.34 1.21 1.34.77.07 2.3.32 2.3.32l2.19.34a12.63 12.63 0 0 0-.73-3.55 6.46 6.46 0 0 0-2.62-2.52 13.08 13.08 0 0 0-5.32-1.57z" transform="translate(-.98 -.52)"/><path d="m169.63 123.91-3.11-.45-2.51-.39-1.55-4.32-6.48-1-1.55 3.87-5.32-.82.2-.58c1.8-6.3 3.63-12.6 5.42-18.92l.19-.75 4.29.7 4.14.6 2.47 8.12s2.47 8.93 3.62 13.39zm-13.31-9 5.46.84c-.88-3.43-1.72-6.71-2.55-10h-.4zM96.42 102v-4.78c-.11-2.5.89-4 2.78-4.49a16.54 16.54 0 0 1 12.22 1.94 5.58 5.58 0 0 1 2.32 3.41 19 19 0 0 1 .33 3.17l-5.67-.83v-1.65c.06-2.59-1.77-2.71-3.22-2.94s-2.79-.24-2.74 2.13c.08 3.42.1 6.84.06 10.24 0 2.52 1.54 2.77 2.94 3s3.22.45 3-2v-2.67l5.82.84v.53c.14 1.76-.37 4.47-1.25 5.37-2.78 2.83-12.67 1.31-15.42-2.37a5.51 5.51 0 0 1-1.09-3.47c-.03-1.79-.07-3.61-.08-5.43zm152.18 23.65v-4.75c0-2.81.77-4.21 3-4.72a16.37 16.37 0 0 1 11.69 1.82 5 5 0 0 1 1.93 1.83 4.35 4.35 0 0 1 .47 1 5.12 5.12 0 0 1 .23 1.85 13.72 13.72 0 0 1-.17 1.94l-5.26-.77-.05-1.64c.09-2.57-1.72-2.69-3.15-2.91s-2.75-.23-2.73 2.12c0 3.39 0 6.77-.08 10.15 0 2.49 1.49 2.73 2.88 3s3.17.44 3-2v-2.65l2.69.46 3.08.47s.4 4.07-1.31 5.75c-2.82 2.76-12.54 1.3-15.2-2.34a5.12 5.12 0 0 1-1-3.2v-5.4zm-61.94 1.28a12.61 12.61 0 0 1-5.94-1.94 5.38 5.38 0 0 1-2.66-4.89v-1.36l5.6.91v1a2.25 2.25 0 0 0 1.31 2.55c1.43.61 2.89 1 4.05.07s.48-2.14-.36-3.13a20.83 20.83 0 0 0-4.36-3.49 21.65 21.65 0 0 1-4.65-3.85c-2.28-2.75-2-6.28.81-7.25a14.43 14.43 0 0 1 12.75 2 4.92 4.92 0 0 1 1.71 2 5.55 5.55 0 0 1 .6 2.89v.45l-5.82-.89v-1.4c-.19-1.85-1.64-1.94-2.75-2.13s-2.34-.43-2.74 1.08.55 2.51 1.55 3.27c1.46 1.17 3 2.25 4.47 3.32a18.46 18.46 0 0 1 3.77 3.23c2.27 2.78 1.91 6-.83 7.27-2 .9-4.2.72-6.51.28zm26.65 4.19a16.31 16.31 0 0 1-4.77-1.34 8.28 8.28 0 0 1-3.22-2.81 5.46 5.46 0 0 1-.73-3.52V123l5.74.78v1.56c-.09 1.8 1.26 2.1 2.3 2.35 1.24.31 2.73.75 3.38-.83.57-1.4-.42-2.49-1.39-3.24-2-1.6-4.11-3-6.14-4.62s-4-3.2-3.56-6.29 2.6-3.51 4.83-3.61a18.51 18.51 0 0 1 8.41 1.53 6 6 0 0 1 3.88 5 10.82 10.82 0 0 1 0 1.5l-5.73-.88v-1.53c-.21-1.8-1.67-1.86-2.79-2s-2.2-.34-2.62 1 .39 2.53 1.39 3.31c2 1.55 4 2.94 6 4.48s4.13 3.19 3.68 6.41-2.79 3.41-5 3.58a26.26 26.26 0 0 1-3.64-.23zM285 120.28a13.21 13.21 0 0 1 5.32 1.58 6.52 6.52 0 0 1 2.62 2.52 5.34 5.34 0 0 1 .72 3.55l-5.7-.79v-1.2c-.2-1.93-1.14-2-2.15-2.29s-2.42-.58-3.17.53-.17 2.14.65 3a25.1 25.1 0 0 0 4.33 3.43 20.47 20.47 0 0 1 4.57 3.85c2.05 2.61 1.8 6-.79 6.95-4.33 1.6-8.78.79-13.14-2a4.5 4.5 0 0 1-1.93-2.57 8.94 8.94 0 0 1-.11-1.71 8.58 8.58 0 0 1 .14-1.34l5.55.86v1.81c0 1.74 1.46 1.86 2.47 2.09 1.18.27 2.56.6 3.15-.95.48-1.3-.39-2.36-1.29-3.09-1.59-1.3-3.27-2.42-4.89-3.68a24.44 24.44 0 0 1-3.23-2.82c-2.54-2.81-2.1-6.47.94-7.61a10.46 10.46 0 0 1 5.95-.14zm-159.71-13.86V95.66l6.05.94.06 16.62v1.64l8.38 1.22 1.33.21v3.28l-15.71-2.41v-1.69zm112.81 17.4c0 2.93-.09 5.85-.06 8.78v1.86c0 .07-6-.92-6-.92 0-4.73.14-14.79.11-19.54v-1.85l6 .93z" transform="translate(-.98 -.52)" style="fill:#fefefe"/><path class="f08ec7df-5157-4858-b283-b85e60f08179" d="m156.32 114.91 2.5-9.18h.4c.84 3.28 1.67 6.56 2.55 10z" transform="translate(-.98 -.52)"/><path d="M77.86 48.45c10.49 1.64 21 3.21 31.46 4.92 4.35.68 7.57 5.17 7.62 10.24q.12 13.38.23 26.7l-5.2-.76-5.3-.85V63.06c-5.48-.85-13-2-18.44-2.92v1.84c.06 7.42 0 14.82.19 22.23v2.06l-10.26-1.58zm143.36 58.47-10.11-1.56c.07-8 .13-16.55.22-24.57v-1.58l-12.08-1.85v26.17l-9.88-1.53c0-8 .07-16.56.15-24.59v-1.36l-12.61-2v1.39C177 83.5 177 92 177 100l-10.1-1.56c0-11 .08-22.46 0-33.52v-2.44c15 2.43 32.19 5.08 47.16 7.42 4.26.67 7.29 4.72 7.27 9.73 0 8.92-.06 18.41-.1 27.29zm-59.45-9.26-1.93-.35q-15.5-2.39-31-4.75a13 13 0 0 1-3.06-1c-4.82-4.77-6.27-14.57-3-19.89a5.25 5.25 0 0 1 5.82-2.47c6.89 1.11 15.63 2.44 22.51 3.69v-4.75c-7.65-1.07-24.82-3.76-24.82-3.76l-1.45-.23v-7.87l4.52.64c8.2 1.29 16.39 2.8 24.57 3.74 4 .45 8.15 5.57 8 10.85-.22 7.92-.11 15.95-.14 23.91v2.24zm-20-18.07-9.32-1.48-.11 5v1.27l19.06 3V81c-2.64-.31-9.62-1.44-9.62-1.44zm160.44 41.18c-8.7-1.39-17.45-2.82-26.18-4.15a8.29 8.29 0 0 1-5.17-2.62 13.34 13.34 0 0 1-2.37-8.38c.2-6.16.14-12.37.21-18.57s3-9.14 8.13-8.33l26.12 4.08c4.67.73 7.76 4.92 7.7 10.41l-.23 18.53c-.08 6.46-2.75 9.38-8.21 9zm-12.67-10.64s7.78 1.16 11 1.7v-1.62c0-5.66.1-11.3.2-17v-1.69c-6.58-.91-15.65-2.44-22.23-3.46v1.7q0 8.52-.17 17v1.62zm-26.06 2.8c-.26.91-.91.74-1.55.63q-14.56-2.3-29.16-4.56a8.36 8.36 0 0 1-2.74-1.32 13.19 13.19 0 0 1-3.81-10.32c.28-5.62.1-11.36.15-17 0-4.47 3-7.68 6.78-7.16 9.66 1.46 19.31 3 29 4.48l1.54.24V87.2c-7.84-1.29-19.46-3.09-27.32-4.42v2.41s0 11-.09 15.41l1.71.27c7.77 1.12 15.54 2.41 23.3 3.48 1.84.25 2.26 1 2.12 3s0 3.75 0 5.64z" transform="translate(-.98 -.52)" style="fill:#ec1d25"/></g></svg>