<svg xmlns="http://www.w3.org/2000/svg" xmlns:xlink="http://www.w3.org/1999/xlink" viewBox="0 0 470.58 67.66"><defs><style>.b2db4151-f6cd-4cfa-b291-1970089fb8e1{stroke:#9def48;stroke-miterlimit:10;fill:url(#b78b21d8-9735-4a8b-91ac-8ded5f8a59f6);}.fe3ac668-d8d2-466d-80cc-06134c68ca10{fill:#9def48;}.f3321fe0-994a-4efd-b8d1-b3b0c100bdda{fill:#f91b20;}</style><linearGradient id="b78b21d8-9735-4a8b-91ac-8ded5f8a59f6" x1="0.5" y1="33.83" x2="470.08" y2="33.83" gradientUnits="userSpaceOnUse"><stop offset="0" stop-color="#032c02"/><stop offset="1" stop-color="#207a09"/></linearGradient></defs><g id="bc50d648-3cf2-4bd9-b1d9-95223d2a2747" data-name="calque3"><polygon class="b2db4151-f6cd-4cfa-b291-1970089fb8e1" points="0.5 6.04 102.57 6.04 108.7 0.5 150.44 0.5 158.35 6.04 461.77 6.24 470.08 16.13 470.08 59.84 50.94 59.84 42.83 67.16 8.02 67.16 0.5 59.84 0.5 6.04"/><path class="fe3ac668-d8d2-466d-80cc-06134c68ca10" d="M80.32,37.78h4.37A17.11,17.11,0,0,1,81,45.08H56.87a18.25,18.25,0,0,1-4.22-12.26,18.22,18.22,0,0,1,4.22-12.25H81a17.11,17.11,0,0,1,3.67,7.3H80.32a18.55,18.55,0,0,0-1.47-3.23H59.06a16.32,16.32,0,0,0-2.34,8.18A16.41,16.41,0,0,0,59.06,41H78.85A19.62,19.62,0,0,0,80.32,37.78Z"/><path class="fe3ac668-d8d2-466d-80cc-06134c68ca10" d="M93,41h18.43l2.34,4.07H89V24L93,20Z"/><path class="fe3ac668-d8d2-466d-80cc-06134c68ca10" d="M125.73,38.26l-4.29,6.82h-5.08l15.57-24.51h4.68l15.45,24.51h-5l-4.23-6.82Zm14.56-4-6-9.59-6,9.59Z"/><path class="fe3ac668-d8d2-466d-80cc-06134c68ca10" d="M183.66,30.79l1.85,2a18.17,18.17,0,0,1-4.23,12.26H157.14a17.13,17.13,0,0,1-3.68-7.3h4.38A19,19,0,0,0,159.32,41h19.79a16.92,16.92,0,0,0,2.19-6.17H154.76l-1.84-2a18.17,18.17,0,0,1,4.22-12.25h24.14a17.13,17.13,0,0,1,3.68,7.3h-4.38a17.18,17.18,0,0,0-1.47-3.23H159.32a17.49,17.49,0,0,0-2.2,6.15Z"/><path class="fe3ac668-d8d2-466d-80cc-06134c68ca10" d="M219.67,30.79l1.84,2a18.16,18.16,0,0,1-4.22,12.26H193.14a17.11,17.11,0,0,1-3.67-7.3h4.38A19,19,0,0,0,195.33,41h19.79a16.92,16.92,0,0,0,2.19-6.17H190.77l-1.85-2a18.22,18.22,0,0,1,4.22-12.25h24.15a17.13,17.13,0,0,1,3.68,7.3h-4.38a17.18,17.18,0,0,0-1.47-3.23H195.33a17.3,17.3,0,0,0-2.2,6.15Z"/><path class="fe3ac668-d8d2-466d-80cc-06134c68ca10" d="M230.71,45.08h-4.07V24L230.71,20Z"/><path class="fe3ac668-d8d2-466d-80cc-06134c68ca10" d="M263.5,37.78h4.38a17.13,17.13,0,0,1-3.68,7.3H240.06a18.2,18.2,0,0,1-4.23-12.26,18.18,18.18,0,0,1,4.23-12.25H264.2a17.13,17.13,0,0,1,3.68,7.3H263.5A17.18,17.18,0,0,0,262,24.64H242.24a16.32,16.32,0,0,0-2.34,8.18A16.41,16.41,0,0,0,242.24,41H262A18.09,18.09,0,0,0,263.5,37.78Z"/><path class="fe3ac668-d8d2-466d-80cc-06134c68ca10" d="M302,30.79l1.85,2a18.21,18.21,0,0,1-4.22,12.26H275.52a17.13,17.13,0,0,1-3.68-7.3h4.38A19,19,0,0,0,277.7,41h19.8a17.08,17.08,0,0,0,2.18-6.17H273.14l-1.84-2a18.17,18.17,0,0,1,4.22-12.25h24.15a17.11,17.11,0,0,1,3.67,7.3H299a17.78,17.78,0,0,0-1.46-3.23H277.7a17.49,17.49,0,0,0-2.2,6.15Z"/></g><g id="a6215206-73fb-4d41-a363-aa868f32aea9" data-name="namco"><path id="e4e068ec-3afe-4c95-8271-34113a23f542" data-name="rect4393" class="f3321fe0-994a-4efd-b8d1-b3b0c100bdda" d="M21.49,16.56a2,2,0,0,0,2,2h3.54a2,2,0,0,0,2-2V10.15a2,2,0,0,0-2-2H23.51a2,2,0,0,0-2,2Zm2.15-.46V10.65h3.28V16.1Z"/><path id="a49e4a63-5bbe-4b83-885d-01f3df31e26a" data-name="rect4348" class="f3321fe0-994a-4efd-b8d1-b3b0c100bdda" d="M21.64,64.82h7.44V62.33H23.79V57.65h5.29V55.21H23.66a2,2,0,0,0-2,2Z"/><path id="a7981a6f-5d21-498e-b2f6-d321465532d8" data-name="path4359" class="f3321fe0-994a-4efd-b8d1-b3b0c100bdda" d="M21.64,53.53h2V46.78h.53v5.27a2,2,0,0,0,2,2h.9a2,2,0,0,0,2-2v-7.7H23.66a2,2,0,0,0-2,2v7.16Zm4.47-2V46.79h1.06v4.75Z"/><path id="afe63b43-6489-4f75-9547-471a1ff444c7" data-name="path4384" class="f3321fe0-994a-4efd-b8d1-b3b0c100bdda" d="M21.64,42.82h7.44V40.33H23.79V37.78h5.29V35.29H23.79v-2.6h5.29V30.25H23.66a2,2,0,0,0-2,2Z"/><path id="fbffd064-ad47-4826-9752-72cfcb2d3ee0" data-name="rect4389" class="f3321fe0-994a-4efd-b8d1-b3b0c100bdda" d="M21.49,26.79a2,2,0,0,0,2,2h3.54a2,2,0,0,0,2-2V20H26.92v6.3H23.64V20H21.49Z"/></g></svg>