<svg id="b29e1959-6e85-4561-afe6-77515bbd239e" data-name="texte" xmlns="http://www.w3.org/2000/svg" xmlns:xlink="http://www.w3.org/1999/xlink" viewBox="0 0 470.33 67.41"><defs><style>.b6eac237-4546-4458-8e25-0bb58007a9f1{stroke:#9def48;stroke-miterlimit:10;stroke-width:0.75px;fill:url(#adbba5f6-f1a2-482d-80f1-56ad641e21f6);}.a218a793-6ca8-455b-8c5b-b91bba15c18d{fill:#9def48;}</style><linearGradient id="adbba5f6-f1a2-482d-80f1-56ad641e21f6" x1="0.38" y1="33.7" x2="469.96" y2="33.7" gradientUnits="userSpaceOnUse"><stop offset="0" stop-color="#032c02"/><stop offset="1" stop-color="#207a09"/></linearGradient></defs><polygon class="b6eac237-4546-4458-8e25-0bb58007a9f1" points="0.38 5.91 102.44 5.91 108.57 0.38 150.31 0.38 158.22 5.91 461.65 6.11 469.96 16 469.96 59.72 50.81 59.72 42.7 67.03 7.89 67.03 0.38 59.72 0.38 5.91"/><path class="a218a793-6ca8-455b-8c5b-b91bba15c18d" d="M74.65,41.26H77A15,15,0,0,0,78.85,36H58.12A15.21,15.21,0,0,0,60,41.26h2.32v3.49H58.14A15.11,15.11,0,0,1,54.59,36H51.3V32.5h3.29a15.08,15.08,0,0,1,3.55-8.76H78.83a15,15,0,0,1,3.55,8.78l-1.51.85v1.76l1.51.84a15,15,0,0,1-3.55,8.78H74.65ZM58.12,32.5H78.85A15,15,0,0,0,77,27.23H60A15.19,15.19,0,0,0,58.12,32.5Z" transform="translate(-0.06 -0.03)"/><path class="a218a793-6ca8-455b-8c5b-b91bba15c18d" d="M109.63,44.75H88.93a15.6,15.6,0,0,1-3.62-10.5,15.61,15.61,0,0,1,3.62-10.51h20.7a15.6,15.6,0,0,1,3.61,10.51A15.6,15.6,0,0,1,109.63,44.75Zm-1.86-3.49a14.19,14.19,0,0,0,2-7,14.14,14.14,0,0,0-2-7h-17a14,14,0,0,0-2,7,14,14,0,0,0,2,7Z" transform="translate(-0.06 -0.03)"/><path class="a218a793-6ca8-455b-8c5b-b91bba15c18d" d="M128.41,27.23h-6.74a14,14,0,0,0-2,7,14,14,0,0,0,2,7H124v3.49h-4.19a15.6,15.6,0,0,1-3.62-10.5,15.61,15.61,0,0,1,3.62-10.51h8.62V20.45h3.47v3.29h8.61a15.61,15.61,0,0,1,3.62,10.51,15.6,15.6,0,0,1-3.62,10.5H136.3V41.26h2.33a14.08,14.08,0,0,0,2-7,14,14,0,0,0-2-7h-6.75V39.68h-3.47Z" transform="translate(-0.06 -0.03)"/><path class="a218a793-6ca8-455b-8c5b-b91bba15c18d" d="M152.87,38.9l-3.68,5.85h-4.35l13.35-21h4l13.24,21h-4.29l-3.63-5.85Zm12.48-3.47-5.13-8.21-5.17,8.21Z" transform="translate(-0.06 -0.03)"/><path class="a218a793-6ca8-455b-8c5b-b91bba15c18d" d="M181.67,27.23a14,14,0,0,0-2,7,14,14,0,0,0,2,7H184v3.49h-4.19a15.6,15.6,0,0,1-3.62-10.5,15.61,15.61,0,0,1,3.62-10.51h20.7a15.61,15.61,0,0,1,3.62,10.51,15.6,15.6,0,0,1-3.62,10.5H196.3V41.26h2.33a14.08,14.08,0,0,0,2-7,14,14,0,0,0-2-7Z" transform="translate(-0.06 -0.03)"/><path class="a218a793-6ca8-455b-8c5b-b91bba15c18d" d="M245.7,23.74l-13.26,21h-4l-13.33-21h4.35l11,17.54L241.4,23.74Z" transform="translate(-0.06 -0.03)"/><path class="a218a793-6ca8-455b-8c5b-b91bba15c18d" d="M252.11,44.75h-3.49v-18l3.49-3.49Z" transform="translate(-0.06 -0.03)"/><path class="a218a793-6ca8-455b-8c5b-b91bba15c18d" d="M282.86,32.5l1.58,1.75a15.57,15.57,0,0,1-3.62,10.5h-20.7A14.73,14.73,0,0,1,257,38.49h3.75A16.37,16.37,0,0,0,262,41.26h17A14.66,14.66,0,0,0,280.84,36H258.09l-1.58-1.72a15.64,15.64,0,0,1,3.61-10.51h20.7A14.79,14.79,0,0,1,284,30h-3.75A15.13,15.13,0,0,0,279,27.23H262a14.79,14.79,0,0,0-1.89,5.27Z" transform="translate(-0.06 -0.03)"/><path class="a218a793-6ca8-455b-8c5b-b91bba15c18d" d="M292.86,41.26h17a14.13,14.13,0,0,0,2-7,14.19,14.19,0,0,0-2-7H307.5V23.74h4.19a15.65,15.65,0,0,1,3.62,10.51,15.57,15.57,0,0,1-3.62,10.5H291a15.57,15.57,0,0,1-3.62-10.5A15.65,15.65,0,0,1,291,23.74h4.19v3.49h-2.32a14.11,14.11,0,0,0-2,7A14,14,0,0,0,292.86,41.26Z" transform="translate(-0.06 -0.03)"/><path class="a218a793-6ca8-455b-8c5b-b91bba15c18d" d="M339.56,36h-14.5A14.81,14.81,0,0,0,327,41.26h17.26l2,3.49H325.07A15.1,15.1,0,0,1,321.53,36h-3.3V32.5h3.3a15.07,15.07,0,0,1,3.54-8.76h21.14l-2,3.49H327a14.79,14.79,0,0,0-1.89,5.27h14.5Z" transform="translate(-0.06 -0.03)"/><path class="a218a793-6ca8-455b-8c5b-b91bba15c18d" d="M353.36,41.26h15.79l2,3.49H349.87v-18l3.49-3.49Z" transform="translate(-0.06 -0.03)"/></svg>