<svg id="f96528e6-bd22-4989-a66b-30245c11a3a2" data-name="texte" xmlns="http://www.w3.org/2000/svg" xmlns:xlink="http://www.w3.org/1999/xlink" viewBox="0 0 470.33 67.41"><defs><style>.a253cedb-e09a-4b3a-b312-ff4304aeb551{stroke:#9def48;stroke-miterlimit:10;stroke-width:0.75px;fill:url(#e5ce2994-6b5d-4622-a2d1-3ab7725a2300);}.b556ce29-64e7-4161-b632-9cfd10475709{fill:#9def48;}</style><linearGradient id="e5ce2994-6b5d-4622-a2d1-3ab7725a2300" x1="0.38" y1="33.7" x2="469.96" y2="33.7" gradientUnits="userSpaceOnUse"><stop offset="0" stop-color="#032c02"/><stop offset="1" stop-color="#207a09"/></linearGradient></defs><polygon class="a253cedb-e09a-4b3a-b312-ff4304aeb551" points="0.38 5.91 102.44 5.91 108.57 0.38 150.31 0.38 158.22 5.91 461.65 6.11 469.96 16 469.96 59.72 50.81 59.72 42.7 67.03 7.89 67.03 0.38 59.72 0.38 5.91"/><path class="b556ce29-64e7-4161-b632-9cfd10475709" d="M59.41,37.33,55.85,43h-4.2l12.9-20.31h3.88L81.23,43H77.08l-3.51-5.65ZM71.47,34l-5-7.94-5,7.94Z" transform="translate(-0.06 -0.03)"/><path class="b556ce29-64e7-4161-b632-9cfd10475709" d="M102,39.61h2.25a14.61,14.61,0,0,0,1.81-5.11h-20a14.44,14.44,0,0,0,1.82,5.11h2.24V43H86.07a14.67,14.67,0,0,1-3.43-8.48H79.46V31.14h3.18a14.64,14.64,0,0,1,3.43-8.47h20a14.65,14.65,0,0,1,3.43,8.49l-1.46.82v1.7l1.46.82A14.67,14.67,0,0,1,106.08,43h-4Zm-16-8.47h20a14.5,14.5,0,0,0-1.81-5.1H87.88A14.33,14.33,0,0,0,86.06,31.14Z" transform="translate(-0.06 -0.03)"/><path class="b556ce29-64e7-4161-b632-9cfd10475709" d="M126,40.11l-3.37,3.37V26h-11V22.67H137V26H126Z" transform="translate(-0.06 -0.03)"/><path class="b556ce29-64e7-4161-b632-9cfd10475709" d="M144.65,43h-3.37V25.55l3.37-3.37Z" transform="translate(-0.06 -0.03)"/><path class="b556ce29-64e7-4161-b632-9cfd10475709" d="M153.69,39.61H169L170.89,43H150.32V25.55l3.37-3.37Z" transform="translate(-0.06 -0.03)"/><path class="b556ce29-64e7-4161-b632-9cfd10475709" d="M177.8,39.61h15.27L195,43H174.43V25.55l3.37-3.37Z" transform="translate(-0.06 -0.03)"/><path class="b556ce29-64e7-4161-b632-9cfd10475709" d="M214.21,34.5h-14A14.44,14.44,0,0,0,202,39.61H218.7L220.64,43H200.2a14.59,14.59,0,0,1-3.42-8.48h-3.19V31.14h3.19a14.57,14.57,0,0,1,3.42-8.47h20.44L218.7,26H202a14.33,14.33,0,0,0-1.82,5.1h14Z" transform="translate(-0.06 -0.03)"/><path class="b556ce29-64e7-4161-b632-9cfd10475709" d="M242.5,39.61h2.25a14.61,14.61,0,0,0,1.81-5.11h-20a14.44,14.44,0,0,0,1.82,5.11h2.24V43h-4.05a14.67,14.67,0,0,1-3.43-8.48h-3.18V31.14h3.18a14.64,14.64,0,0,1,3.43-8.47h20A14.57,14.57,0,0,1,250,31.16l-1.45.82v1.7l1.45.82A14.59,14.59,0,0,1,246.55,43H242.5Zm-16-8.47h20a14.5,14.5,0,0,0-1.81-5.1h-16.4A14.33,14.33,0,0,0,226.53,31.14Z" transform="translate(-0.06 -0.03)"/><path class="b556ce29-64e7-4161-b632-9cfd10475709" d="M257.59,43h-3.37V25.55l3.37-3.37Z" transform="translate(-0.06 -0.03)"/><path class="b556ce29-64e7-4161-b632-9cfd10475709" d="M282.46,34.5h-14a14.67,14.67,0,0,0,1.83,5.11H287L288.89,43H268.46A14.54,14.54,0,0,1,265,34.5h-3.19V31.14H265a14.51,14.51,0,0,1,3.43-8.47h20.43L287,26H270.27a14.55,14.55,0,0,0-1.83,5.1h14Z" transform="translate(-0.06 -0.03)"/></svg>