<svg id="af916d59-e85e-4c11-829a-4b0641cfaaa1" data-name="texte" xmlns="http://www.w3.org/2000/svg" xmlns:xlink="http://www.w3.org/1999/xlink" viewBox="0 0 470.33 67.41"><defs><style>.abe41705-a153-41f3-818c-28f653b921ec{stroke:#9def48;stroke-miterlimit:10;stroke-width:0.75px;fill:url(#f00e467a-8400-4ae4-a049-0750df1e7f36);}.b8867253-a380-4b28-904e-e1abea13ba79{fill:#9def48;}</style><linearGradient id="f00e467a-8400-4ae4-a049-0750df1e7f36" x1="0.38" y1="33.7" x2="469.96" y2="33.7" gradientUnits="userSpaceOnUse"><stop offset="0" stop-color="#032c02"/><stop offset="1" stop-color="#207a09"/></linearGradient></defs><polygon class="abe41705-a153-41f3-818c-28f653b921ec" points="0.38 5.91 102.44 5.91 108.57 0.38 150.31 0.38 158.22 5.91 461.65 6.11 469.96 16 469.96 59.72 50.81 59.72 42.7 67.03 7.89 67.03 0.38 59.72 0.38 5.91"/><path class="b8867253-a380-4b28-904e-e1abea13ba79" d="M80.52,34.5H57.77a14.88,14.88,0,0,0,1.89,5.29H62v3.49H57.78a15.1,15.1,0,0,1-3.54-8.78h-3.3V31h3.3a15,15,0,0,1,3.54-8.76h20.7a15.58,15.58,0,0,1,3.62,10.5ZM57.77,31H78.49a15.06,15.06,0,0,0-1.87-5.27h-17A14.72,14.72,0,0,0,57.77,31Z" transform="translate(-0.06 -0.03)"/><path class="b8867253-a380-4b28-904e-e1abea13ba79" d="M90.45,39.79h17a14,14,0,0,0,2-7,14.08,14.08,0,0,0-2-7h-2.33V22.27h4.19a15.62,15.62,0,0,1,3.62,10.5,15.59,15.59,0,0,1-3.62,10.51H88.57A15.59,15.59,0,0,1,85,32.77a15.62,15.62,0,0,1,3.62-10.5h4.19v3.49H90.45a14,14,0,0,0-2,7A14,14,0,0,0,90.45,39.79Z" transform="translate(-0.06 -0.03)"/><path class="b8867253-a380-4b28-904e-e1abea13ba79" d="M117.4,31h22.75a14.72,14.72,0,0,0-1.89-5.27h-17A15.13,15.13,0,0,0,120,28.53h-3.75a14.51,14.51,0,0,1,3.15-6.26h20.69a15.57,15.57,0,0,1,3.62,10.5l-1.58,1.73H119.42a14.72,14.72,0,0,0,1.88,5.29h17A15.9,15.9,0,0,0,139.53,37h3.75a14.51,14.51,0,0,1-3.15,6.26H119.44a15.54,15.54,0,0,1-3.62-10.51Z" transform="translate(-0.06 -0.03)"/><path class="b8867253-a380-4b28-904e-e1abea13ba79" d="M148.26,31H171a14.72,14.72,0,0,0-1.89-5.27h-17a15.13,15.13,0,0,0-1.26,2.77h-3.75a14.73,14.73,0,0,1,3.15-6.26H171a15.62,15.62,0,0,1,3.62,10.5L173,34.5H150.29a14.51,14.51,0,0,0,1.87,5.29h17A16,16,0,0,0,170.4,37h3.75A14.73,14.73,0,0,1,171,43.28H150.3a15.59,15.59,0,0,1-3.62-10.51Z" transform="translate(-0.06 -0.03)"/><path class="b8867253-a380-4b28-904e-e1abea13ba79" d="M181.77,39.79h15.79l2,3.49H178.28v-18l3.49-3.49Z" transform="translate(-0.06 -0.03)"/><path class="b8867253-a380-4b28-904e-e1abea13ba79" d="M219.43,34.5H204.92a15.28,15.28,0,0,0,1.89,5.29h17.26l2,3.49H204.94a15.18,15.18,0,0,1-3.55-8.78H198.1V31h3.29a15.09,15.09,0,0,1,3.55-8.76h21.14l-2,3.49H206.81A15.11,15.11,0,0,0,204.92,31h14.51Z" transform="translate(-0.06 -0.03)"/></svg>