<svg id="a75d1905-af62-4b20-9e7a-184a181a8391" data-name="texte" xmlns="http://www.w3.org/2000/svg" xmlns:xlink="http://www.w3.org/1999/xlink" viewBox="0 0 470.33 67.41"><defs><style>.a56b7d13-db40-4c72-b9f3-0bb44bceab3f{stroke:#9def48;stroke-miterlimit:10;stroke-width:0.75px;fill:url(#b6bc5c5b-b5a6-4ee1-bab1-8801b2101113);}.ae78c14d-e57c-477e-bc54-bcfa8c997d28{fill:#9def48;}</style><linearGradient id="b6bc5c5b-b5a6-4ee1-bab1-8801b2101113" x1="0.38" y1="33.7" x2="469.96" y2="33.7" gradientUnits="userSpaceOnUse"><stop offset="0" stop-color="#032c02"/><stop offset="1" stop-color="#207a09"/></linearGradient></defs><polygon class="a56b7d13-db40-4c72-b9f3-0bb44bceab3f" points="0.38 5.91 102.44 5.91 108.57 0.38 150.31 0.38 158.22 5.91 461.65 6.11 469.96 16 469.96 59.72 50.81 59.72 42.7 67.03 7.89 67.03 0.38 59.72 0.38 5.91"/><path class="ae78c14d-e57c-477e-bc54-bcfa8c997d28" d="M67.29,40.77,63.8,44.26v-18H52.41V22.74H78.68v3.49H67.29Z" transform="translate(-0.06 -0.03)"/><path class="ae78c14d-e57c-477e-bc54-bcfa8c997d28" d="M102.4,40.26h2.33A15,15,0,0,0,106.6,35H85.88a14.88,14.88,0,0,0,1.89,5.29h2.31v3.49H85.89A15.13,15.13,0,0,1,82.35,35h-3.3V31.5h3.3a15,15,0,0,1,3.54-8.76h20.7a15,15,0,0,1,3.54,8.78l-1.5.84v1.76l1.5.85a15.13,15.13,0,0,1-3.54,8.78H102.4ZM85.88,31.5H106.6a14.8,14.8,0,0,0-1.87-5.27h-17A14.66,14.66,0,0,0,85.88,31.5Z" transform="translate(-0.06 -0.03)"/><path class="ae78c14d-e57c-477e-bc54-bcfa8c997d28" d="M118,43.75h-3.49v-18L118,22.23Z" transform="translate(-0.06 -0.03)"/><path class="ae78c14d-e57c-477e-bc54-bcfa8c997d28" d="M152.64,22.74l-13.25,21h-4L122,22.74h4.35l11,17.53,10.93-17.53Z" transform="translate(-0.06 -0.03)"/><path class="ae78c14d-e57c-477e-bc54-bcfa8c997d28" d="M159.06,43.75h-3.49v-18l3.49-3.48Z" transform="translate(-0.06 -0.03)"/><path class="ae78c14d-e57c-477e-bc54-bcfa8c997d28" d="M170.75,37.9l-3.68,5.85h-4.35l13.35-21h4l13.24,21H189L185.4,37.9Zm12.48-3.47-5.13-8.22-5.17,8.22Z" transform="translate(-0.06 -0.03)"/></svg>