<svg xmlns="http://www.w3.org/2000/svg" xmlns:xlink="http://www.w3.org/1999/xlink" viewBox="0 0 746.51 822.18"><defs><radialGradient id="b2e12b2c-6909-44cd-bb7b-e09f3c34abd6" cx="121.61" cy="382.1" r="5.66" gradientTransform="matrix(1 0 0 .6 0 152.84)" xlink:href="#a9533f04-dece-4f37-87b2-4550d7fe3b33"/><radialGradient id="bf2ca7cc-e181-4c87-ac42-80e4936fde03" cx="217.55" cy="416.02" r="5.66" xlink:href="#f4ccdaac-750f-4e71-b732-b389600b71ff"/><radialGradient id="f4720a4c-9210-4550-bd31-ce8173bbd61c" cx="195.83" cy="370.99" r="11.47" xlink:href="#f4ccdaac-750f-4e71-b732-b389600b71ff"/><radialGradient id="a9533f04-dece-4f37-87b2-4550d7fe3b33" cx="92.36" cy="393.88" r="5.66" gradientTransform="matrix(1 0 0 .6 0 157.55)" gradientUnits="userSpaceOnUse"><stop offset="0" stop-color="#0000ef"/><stop offset=".15" stop-color="#0000e9"/><stop offset=".34" stop-color="#0101d9"/><stop offset=".56" stop-color="#0101be"/><stop offset=".79" stop-color="#02029a"/><stop offset="1" stop-color="#020282"/></radialGradient><radialGradient id="ffcbe3e4-d4db-433c-b04e-1d743741262c" cx="114.61" cy="393.88" r="5.66" xlink:href="#a9533f04-dece-4f37-87b2-4550d7fe3b33"/><radialGradient id="a22ce305-0fcc-4d4d-90e1-786a09542a7b" cx="133.17" cy="400.04" r="5.66" gradientTransform="matrix(1 0 0 .6 0 160.02)" xlink:href="#a9533f04-dece-4f37-87b2-4550d7fe3b33"/><radialGradient id="ae06c90f-5070-4ac3-ab72-7f3192068492" cx="139.21" cy="387.78" r="5.66" gradientTransform="matrix(1 0 0 .6 0 155.11)" xlink:href="#a9533f04-dece-4f37-87b2-4550d7fe3b33"/><radialGradient id="f4ccdaac-750f-4e71-b732-b389600b71ff" cx="65.88" cy="348.77" r="11.47" gradientUnits="userSpaceOnUse"><stop offset="0" stop-color="#fd6d66"/><stop offset=".78" stop-color="#b50a03"/></radialGradient><radialGradient id="e60f0842-2de2-4181-a4f4-4cdc8c480b8b" cx="100.32" cy="382.53" r="5.66" gradientTransform="matrix(1 0 0 .6 0 153.01)" xlink:href="#a9533f04-dece-4f37-87b2-4550d7fe3b33"/><radialGradient id="f954aea5-a0e0-4eb5-9b57-f056175b1ee9" cx="225.51" cy="404.67" r="5.66" xlink:href="#f4ccdaac-750f-4e71-b732-b389600b71ff"/><radialGradient id="bd34716e-d0de-4260-88d7-68a82bd954dd" cx="246.79" cy="404.24" r="5.66" xlink:href="#f4ccdaac-750f-4e71-b732-b389600b71ff"/><radialGradient id="a356c893-624d-4097-97d3-36aaa1aaf962" cx="264.4" cy="409.93" r="5.66" xlink:href="#f4ccdaac-750f-4e71-b732-b389600b71ff"/><radialGradient id="b4cf4e05-67fd-4291-886d-853b4fb4244f" cx="258.36" cy="422.19" r="5.66" xlink:href="#f4ccdaac-750f-4e71-b732-b389600b71ff"/><radialGradient id="b1dffe6e-8111-4f72-b9f3-ed6d24ff6ce9" cx="239.79" cy="416.02" r="5.66" xlink:href="#f4ccdaac-750f-4e71-b732-b389600b71ff"/><style>.fcf82263-dd43-4df4-9a11-b5ef474a348a{fill:#373735}.e4fe25b7-82ed-4deb-b4e7-e81bcf8dde08{fill:#121211}.a923616b-938d-475f-aaae-f3d7c9978eb0,.b7e9ace9-554d-430a-9340-c880712c3f01,.e4fe25b7-82ed-4deb-b4e7-e81bcf8dde08,.f8e7feaf-a0f3-41f4-a84e-eb5294119bc6,.fe6cc0e0-60dd-4031-a1e9-bba93ed47d54{stroke:#b5b5b5}.a2dabb9e-b78a-453d-a5ee-c96ffaf7684f,.a923616b-938d-475f-aaae-f3d7c9978eb0,.b2e99db3-a86d-4310-8d17-dca572c23df7,.b7e9ace9-554d-430a-9340-c880712c3f01,.bc38dc54-28b4-4724-85f4-e2a34dad7018,.e4fe25b7-82ed-4deb-b4e7-e81bcf8dde08,.f8e7feaf-a0f3-41f4-a84e-eb5294119bc6,.fe6cc0e0-60dd-4031-a1e9-bba93ed47d54{stroke-miterlimit:10}.a923616b-938d-475f-aaae-f3d7c9978eb0,.b7e9ace9-554d-430a-9340-c880712c3f01,.bc38dc54-28b4-4724-85f4-e2a34dad7018,.e4fe25b7-82ed-4deb-b4e7-e81bcf8dde08,.f8e7feaf-a0f3-41f4-a84e-eb5294119bc6,.fe6cc0e0-60dd-4031-a1e9-bba93ed47d54{stroke-width:.5px}.a2dabb9e-b78a-453d-a5ee-c96ffaf7684f{fill:#443840;stroke:#090000}.bc38dc54-28b4-4724-85f4-e2a34dad7018{stroke:#090000}.a2dabb9e-b78a-453d-a5ee-c96ffaf7684f{stroke-width:.75px}.bc38dc54-28b4-4724-85f4-e2a34dad7018{fill:#6b0c05}.a0cf40a2-fcbf-4a5a-9c94-eb343869e8c8{fill:#86382f}.b2e99db3-a86d-4310-8d17-dca572c23df7{stroke:#373737}.bbd63f51-25f9-4067-8047-f7e08ab4b374{fill:#94532c}.a923616b-938d-475f-aaae-f3d7c9978eb0{fill:#dc6e05}.fe6cc0e0-60dd-4031-a1e9-bba93ed47d54{fill:#12e600}.f8e7feaf-a0f3-41f4-a84e-eb5294119bc6{fill:#0b47ce}.b7e9ace9-554d-430a-9340-c880712c3f01,.fe8090e9-6e6c-431a-91f3-f272eb7186c1{fill:#282826}.b4ddaa9b-c5d4-4e95-bc20-08cb65322858{fill:#ae7a82}.b6c469ef-cd7d-4db9-8f3f-14342d33c6e0{fill:url(#f4ccdaac-750f-4e71-b732-b389600b71ff)}.aec1cc03-d00e-490a-a6c3-f0fbea8b5175{fill:url(#f4720a4c-9210-4550-bd31-ce8173bbd61c)}.f8b7e5b2-4fea-43cc-8226-33c9a70167ae{fill:#0000ef}.f5a670ea-2f25-4f57-91f8-e36956301d61{fill:#930303}.b3f456ab-0cc0-4f44-a419-2cede934ce7e{fill:#e7e7e7}.a59ff6b2-0699-4ff0-ba41-c715f2a6c3c6{fill:#2c2b29}.fbfb8e48-04e6-4bc9-8b8a-3a404bb440fb{fill:#efb987}.b0b9960e-fe9d-4012-a29a-80cd0d76e8d7{fill:#fcfcfc}.b49f3787-d447-47f5-ad62-03ce18dbd9b2{fill:#cf8868}.a539318d-d913-4db3-baf7-17abae79e7cd{fill:#5a3018}</style></defs><g id="a02e0961-b080-4145-b8f3-d21386b7469f" data-name="Calque 1"><path id="b71fa114-5b56-429f-932f-c44c5ddb7c64" data-name="ombre" style="opacity:.5;fill:#373735" d="m452.03 588.79 21.51-5.91H485.41l1.58 2.96 237.36 43.3h11.08l11.07 31.39-46.41 37.71-46.42 13.19-8.18-1.32.27-1.85-13.98-2.63-83.6 27.95-73.32 51.57-22.83 6.82-7.77-1.16v-2.63l-16.08-3.03-129.99 34.37 153.84-230.73z"/><g id="b6326ccb-25aa-4d35-9ad0-77b69195555b" data-name="bottom"><path class="fcf82263-dd43-4df4-9a11-b5ef474a348a" d="m36 454.56 224.9 39.62v4.35l25.72 6.13-.4 311.34-248.24-47.27L36 454.56z"/><path class="e4fe25b7-82ed-4deb-b4e7-e81bcf8dde08" d="m202 526.54-78.38-13.74c-3 .19-4.26 3.56-4.26 3.56l.2 85c.69 2.18 3.86 5 3.86 5l74.27 13.46c5.14.49 7.52-5.25 7.52-5.25v-82.69a7.12 7.12 0 0 0-3.21-5.34zm-49.9 22.55-18.69-3.46v-20l2.27-1.88 18.1 3.07-1.78 2.69zm31.45 6.13-18.69-3.46v-20l2.27-1.87 18.1 3.06-1.78 2.67z" transform="translate(-.98 -.52)"/><path class="a2dabb9e-b78a-453d-a5ee-c96ffaf7684f" d="m134.7 523.25-2.27 1.88v19.98l18.69 3.46-.1-19.58 1.78-2.67-18.1-3.07zM166.15 529.38l-2.27 1.88v19.98l18.69 3.46-.1-19.58 1.78-2.67-18.1-3.07z"/><path class="bc38dc54-28b4-4724-85f4-e2a34dad7018" d="M140.14 543.03v-12.85l8.01 1.78v12.56l-8.01-1.49zM171.2 548.87v-12.86l8.01 1.78v12.56l-8.01-1.48z"/><path d="M135.23 543.16v-15.23l2.05.4v15.16l-2.05-.33zM166.68 548.7v-15.23l2.04.4v15.16l-2.04-.33z"/><path class="a0cf40a2-fcbf-4a5a-9c94-eb343869e8c8" d="M140.4 530.69v-.35l7.47 1.8.01.43-7.48-1.88zM171.46 536.62v-.29l7.47 1.64.01.35-7.48-1.7z"/><circle cx="192.4" cy="574.85" r="4.25" style="fill:#8b8b8b;stroke-width:.75px;stroke:#090000;stroke-miterlimit:10"/><path class="b2e99db3-a86d-4310-8d17-dca572c23df7" d="M136.29 598.71v-11.27l11.96 2.18v11.3l-11.96-2.21zM167.54 604.25v-11.27l11.96 2.17v10.88l-11.96-1.78z"/></g><g id="bc266f02-79a3-4741-aa71-19d213cbb598" data-name="t molding"><path class="bbd63f51-25f9-4067-8047-f7e08ab4b374" d="m11.46 450.59-.79-39.76L1 407.66v45.1l27.89 5.54c.59 103.55 1 207.6 1.58 311.15a6.18 6.18 0 0 0 3.53 2.19 12.58 12.58 0 0 0 5 0l-2-316.56zM272.36 497v-41.27l-10.28-1.19-.2 44.51 25.71 6.13s-1.51 313.85 0 315.69 8.77 1.32 8.77 1.32l.93-319.91z" transform="translate(-.98 -.52)"/><path class="bbd63f51-25f9-4067-8047-f7e08ab4b374" d="m78.72 346.42-8.15-1.3 16.26-218.56 9.04 1.5-17.15 218.36zM329.24 388.85l9.1 1.28 18.49-224.31h-26.37l-.26-90.92-10.06-1.84v94.84l6.04 1.09h20.27l-17.21 219.86z"/><path class="bbd63f51-25f9-4067-8047-f7e08ab4b374" d="M88.49 127.19s-28.17-.35-29.11-.85c0-31.21.06-62.83 0-94l9.36 2.64.48 89.02z" transform="translate(-.98 -.52)"/><g id="f3a3af05-51c2-48ff-a466-b6878581b88f" data-name="clair"><path class="bbd63f51-25f9-4067-8047-f7e08ab4b374" d="m0 407.14 9.69 3.17L78 346.25l-8.11-1.94L0 407.14zM261.1 454.02l10.28 1.19 66.96-65.87-8.62-1.6-68.62 66.28zM111.56 0 58.42 31.78l9.36 2.64L120.36 3.3l2.74-1.62-2.57-.36L111.56 0zM383.74 40.62l-11.21-.8-52.39 33.24 10.06 1.84 53.54-34.28z"/></g></g><g id="a6fbb60a-0eeb-4453-85e1-95250952bfde" data-name="side"><path class="e4fe25b7-82ed-4deb-b4e7-e81bcf8dde08" d="m453.13 308.64.63-159.63-70.02-108.39L330.2 74.9l.26 90.92h26.37l-18.49 224.31-66.96 65.08v41.27l24.93 5.28-.93 319.91 8.25-6.32 149.65-543.7-.21 21.51-142.1 516.55-1.61 1.24 6.94-5.32 136.83-496.99zM324.06 799.15l-7.76 6.48 11.99-9.2 124.7-453.24.05-12.13-128.98 468.09zM335.43 790.95l-1.32 1.02 6.87-5.27 111.79-407.64v21.25l.22-57.12-.22 24-117.34 423.76zM343 785.15l108.58-83.28 1.18-299.85L347.4 781.78l-4.4 3.37z"/><path style="fill:#bf0000;stroke-width:.5px;stroke-miterlimit:10;stroke:#b5b5b5" d="m303.63 815.35 5.73-4.4-5.73 4.4z"/><path class="bbd63f51-25f9-4067-8047-f7e08ab4b374" d="m453.07 293.16.21-21.51-149.65 543.7 5.73-4.4 1.61-1.24 142.1-516.55z"/><path class="a923616b-938d-475f-aaae-f3d7c9978eb0" d="M453.13 330.74v-22.1l-.09 22.42.09-.32zM316.3 805.63z"/><path style="fill:#ebba87" d="m453.04 331.06.09-22.42L316.3 805.63l7.76-6.48 128.98-468.09z"/><path class="fe6cc0e0-60dd-4031-a1e9-bba93ed47d54" d="M452.99 343.19zM328.29 796.43l5.82-4.46-5.82 4.46z"/><path style="fill:#0369a6" d="m334.11 791.97 1.32-1.02 117.34-423.76.22-24-124.7 453.24 5.82-4.46z"/><path class="f8e7feaf-a0f3-41f4-a84e-eb5294119bc6" d="m340.98 786.7 2.02-1.55-2.02 1.55zM452.77 402v-1.69l-.01 1.71.01-.02z"/><path style="fill:#606060" d="m340.98 786.7 2.02-1.55 4.4-3.37 105.36-379.76.01-1.71v-21.25L340.98 786.7z"/></g><g id="fa56a731-cba0-4e8e-9118-412cfbe970b1" data-name="panel"><path class="b7e9ace9-554d-430a-9340-c880712c3f01" d="m10.48 450.07 250.42 44.11.2-40.16L9.69 410.31l.79 39.76z"/><path class="fcf82263-dd43-4df4-9a11-b5ef474a348a" d="m79.37 345.21-69.68 65.1 251.41 43.71 68.62-66.28-250.35-42.53z"/></g><g id="ec783c5d-631e-4cc1-9eaa-38928316473c" data-name="ecran"><path class="b7e9ace9-554d-430a-9340-c880712c3f01" d="M96.84 129.36 79.7 347.72l250.52 42.43L347.82 168zm224.28 67.76c0 .2-.29.32-.48.49l-10.43 144.83a35.43 35.43 0 0 1-4.3 3.78l1.4.29v10.7s-1.4 4.75-11.08 2.64c-11.19-2.44-178.55-31.91-178.55-31.91l8.72-6.78v-1.39s-2.46.52-6-7l-12.48 2.77h-4l11.34-158.77s4-6.85 10.81-6.59 191.16 30.59 191.16 30.59 6.17 1.07 3.89 16.35z" transform="translate(-.98 -.52)"/><path d="M317.28 180S133 149.66 126.12 149.4s-10.81 6.6-10.81 6.6l-11.74 160.08h4.35l12.29-2.68c-.1-.23-.74-1.57-.85-1.8L131 166.54s2.11-5.54 7.12-7.38l177.49 27.16a20.77 20.77 0 0 1 5.11 9.76l-.05.75c.19-.17.62.66.66.47 3.23-14.06-4.05-17.3-4.05-17.3z" transform="translate(-.98 -.52)" style="fill:#151312"/><path d="m125.32 320-8.56 8s164.63 29.3 178.61 32.24c10.36 2.17 14.43-3.58 14.43-3.58l.61-7.37.39-7.71-4.89 3.84a20.85 20.85 0 0 1-7.73 3.87z" transform="translate(-.98 -.52)" style="fill:#555353"/><path d="M319.5 197.81c.45-.36.83-.69 1.14-1l.66-.52a20.31 20.31 0 0 0-5.72-10l-177.49-27.13c-5 1.84-7.12 7.38-7.12 7.38L119.36 311.6l.32.66c3.54 7.52 6.28 8 6.28 8l.44.08 171.78 28.93a20.85 20.85 0 0 0 7.73-3.87c2.57-1.91 4.89-3.84 4.89-3.84l10.5-145.29c-.44.46-1.05.96-1.8 1.54zM143.83 302.35z" transform="translate(-.98 -.52)" style="fill:#008aa6"/></g><g id="a9ed8f69-fedb-444e-ab6d-f5ecb5fa9c91" data-name="top"><path id="ea5eaea3-9985-44fc-8a75-5a94a677e78d" data-name="marquee" class="b7e9ace9-554d-430a-9340-c880712c3f01" d="m68.24 123.5 251.47 39.03.43-89.47L67.78 34.42l.46 89.08z"/><path style="stroke-miterlimit:10;stroke:#b5b5b5;fill:#373735" d="m128.84 2.64-5.74-.96-55.32 32.74 252.36 38.64 52.39-33.24L128.84 2.64z"/></g><g id="e21632a0-1d9d-4471-9e4f-3899a281493d" data-name="stickp1"><path class="fe8090e9-6e6c-431a-91f3-f272eb7186c1" d="M68.92 377.27v5.16H62.4v-5.16c-5.06.64-8.77 2.7-8.77 5.16 0 3 5.38 5.35 12 5.35s12-2.39 12-5.35c.06-2.43-3.63-4.52-8.71-5.16z" transform="translate(-.98 -.52)"/><path class="b4ddaa9b-c5d4-4e95-bc20-08cb65322858" d="M68.92 377.27v-17.78a12.18 12.18 0 0 1-3 .39 12.4 12.4 0 0 1-3.48-.49v17.88a26.67 26.67 0 0 1 6.52 0z" transform="translate(-.98 -.52)"/><path class="b4ddaa9b-c5d4-4e95-bc20-08cb65322858" d="M68.92 382.43v-5.16a26.67 26.67 0 0 0-6.52 0v5.16z" transform="translate(-.98 -.52)"/><path class="b6c469ef-cd7d-4db9-8f3f-14342d33c6e0" d="M68.92 358.89v.6a11.24 11.24 0 0 0 8.77-10.72c0-6.14-5.29-11.11-11.81-11.11s-11.82 5-11.82 11.11a11.22 11.22 0 0 0 8.34 10.62v-.5z" transform="translate(-.98 -.52)"/><path class="b4ddaa9b-c5d4-4e95-bc20-08cb65322858" d="M68.92 359.49v-.6H62.4v.5a12.4 12.4 0 0 0 3.48.49 12.18 12.18 0 0 0 3.04-.39z" transform="translate(-.98 -.52)"/><path class="b6c469ef-cd7d-4db9-8f3f-14342d33c6e0" d="M68.92 359.49v-.6H62.4v.5a12.4 12.4 0 0 0 3.48.49 12.18 12.18 0 0 0 3.04-.39z" transform="translate(-.98 -.52)"/></g><g id="e1390184-324b-4f98-82e9-1cebc8d5f9ce" data-name="stickp2"><path class="fe8090e9-6e6c-431a-91f3-f272eb7186c1" d="M198.88 399.49v5.16h-6.53v-5.16c-5 .64-8.77 2.7-8.77 5.16 0 3 5.39 5.35 12 5.35s12-2.39 12-5.35c.07-2.46-3.64-4.52-8.7-5.16z" transform="translate(-.98 -.52)"/><path class="b4ddaa9b-c5d4-4e95-bc20-08cb65322858" d="M198.88 399.49v-17.78a12.2 12.2 0 0 1-3 .39 12.83 12.83 0 0 1-3.48-.49v17.88a26.75 26.75 0 0 1 6.53 0z" transform="translate(-.98 -.52)"/><path class="b4ddaa9b-c5d4-4e95-bc20-08cb65322858" d="M198.88 404.65v-5.16a26.75 26.75 0 0 0-6.53 0v5.16z" transform="translate(-.98 -.52)"/><path class="aec1cc03-d00e-490a-a6c3-f0fbea8b5175" d="M198.88 381.11v.6a11.24 11.24 0 0 0 8.77-10.71c0-6.14-5.29-11.11-11.82-11.11S184 364.85 184 371a11.22 11.22 0 0 0 8.34 10.62v-.5z" transform="translate(-.98 -.52)"/><path class="b4ddaa9b-c5d4-4e95-bc20-08cb65322858" d="M198.88 381.71v-.6h-6.53v.5a12.83 12.83 0 0 0 3.48.49 12.2 12.2 0 0 0 3.05-.39z" transform="translate(-.98 -.52)"/><path class="aec1cc03-d00e-490a-a6c3-f0fbea8b5175" d="M198.88 381.71v-.6h-6.53v.5a12.83 12.83 0 0 0 3.48.49 12.2 12.2 0 0 0 3.05-.39z" transform="translate(-.98 -.52)"/></g><g id="a3d9f491-ed3a-42d4-a054-0173da9ca8d4" data-name="boutons P1"><g id="b0bedbf4-523f-4c5c-acb5-fec52890ec62" data-name="4"><path class="f8b7e5b2-4fea-43cc-8226-33c9a70167ae" d="M92.54 389.14c-3.86 0-8.12 1.53-8.12 4.87 0 2.95 4.1 4.62 7.94 4.62 4.11 0 8-1.73 8-4.88-.04-2.35-3.88-4.61-7.82-4.61zm-.18 8.63c-3.86 0-7-1.74-7-3.89s3.13-3.89 7-3.89 7 1.74 7 3.89-3.14 3.89-7 3.89z" transform="translate(-.98 -.52)"/><path d="M92.36 390c-3.86 0-7 1.74-7 3.89s3.13 3.89 7 3.89 7-1.74 7-3.89-3.14-3.89-7-3.89z" transform="translate(-.98 -.52)" style="fill:url(#a9533f04-dece-4f37-87b2-4550d7fe3b33)"/></g><g id="e68dd9e5-7ee8-44b0-8156-2f8e91a34eff" data-name="5"><path class="f8b7e5b2-4fea-43cc-8226-33c9a70167ae" d="M114.79 389.14c-3.86 0-8.12 1.53-8.12 4.87 0 2.95 4.1 4.62 7.94 4.62 4.11 0 8-1.73 8-4.88-.04-2.35-3.88-4.61-7.82-4.61zm-.18 8.63c-3.86 0-7-1.74-7-3.89s3.13-3.89 7-3.89 7 1.74 7 3.89-3.14 3.89-7 3.89z" transform="translate(-.98 -.52)"/><path d="M114.61 390c-3.86 0-7 1.74-7 3.89s3.13 3.89 7 3.89 7-1.74 7-3.89-3.14-3.89-7-3.89z" transform="translate(-.98 -.52)" style="fill:url(#ffcbe3e4-d4db-433c-b04e-1d743741262c)"/></g><g id="a168e0c3-d761-45e9-a699-01190f8ad6e8" data-name="6"><path class="f8b7e5b2-4fea-43cc-8226-33c9a70167ae" d="M133.35 395.3c-3.86 0-8.13 1.53-8.13 4.87 0 3 4.11 4.62 7.95 4.62 4.1 0 8-1.73 8-4.88-.04-2.35-3.88-4.61-7.82-4.61zm-.18 8.63c-3.86 0-7-1.74-7-3.89s3.13-3.89 7-3.89 7 1.74 7 3.89-3.17 3.89-7 3.89z" transform="translate(-.98 -.52)"/><path d="M133.17 396.15c-3.86 0-7 1.74-7 3.89s3.13 3.89 7 3.89 7-1.74 7-3.89-3.17-3.89-7-3.89z" transform="translate(-.98 -.52)" style="fill:url(#a22ce305-0fcc-4d4d-90e1-786a09542a7b)"/></g><g id="e2a492a0-b91f-4861-a663-73aaf688c5c9" data-name="3"><path class="f8b7e5b2-4fea-43cc-8226-33c9a70167ae" d="M139.39 383c-3.86 0-8.13 1.53-8.13 4.88 0 2.95 4.11 4.61 8 4.61 4.1 0 8-1.73 8-4.88-.09-2.31-3.93-4.61-7.87-4.61zm-.18 8.63c-3.86 0-7-1.74-7-3.89s3.13-3.89 7-3.89 7 1.75 7 3.89-3.14 3.93-7 3.93z" transform="translate(-.98 -.52)"/><path d="M139.21 383.89c-3.86 0-7 1.75-7 3.89s3.13 3.89 7 3.89 7-1.74 7-3.89-3.14-3.89-7-3.89z" transform="translate(-.98 -.52)" style="fill:url(#ae06c90f-5070-4ac3-ab72-7f3192068492)"/></g><g id="ac0e3e36-b49d-4caf-b7a7-7a59265001db" data-name="2"><path class="f8b7e5b2-4fea-43cc-8226-33c9a70167ae" d="M121.79 377.35c-3.86 0-8.12 1.53-8.12 4.88 0 2.95 4.1 4.61 7.94 4.61 4.11 0 8-1.73 8-4.88-.04-2.34-3.88-4.61-7.82-4.61zm-.18 8.64c-3.86 0-7-1.74-7-3.89s3.13-3.89 7-3.89 7 1.74 7 3.89-3.14 3.9-7 3.9z" transform="translate(-.98 -.52)"/><path d="M121.61 378.21c-3.86 0-7 1.74-7 3.89s3.13 3.89 7 3.89 7-1.74 7-3.89-3.14-3.89-7-3.89z" transform="translate(-.98 -.52)" style="fill:url(#b2e12b2c-6909-44cd-bb7b-e09f3c34abd6)"/></g><g id="b3b51d95-8633-4c2f-9ada-52afacae34e5" data-name="1"><path class="f8b7e5b2-4fea-43cc-8226-33c9a70167ae" d="M100.5 377.78c-3.86 0-8.13 1.53-8.13 4.88 0 2.95 4.11 4.62 7.95 4.62 4.1 0 8-1.73 8-4.88-.04-2.35-3.88-4.62-7.82-4.62zm-.18 8.64c-3.86 0-7-1.74-7-3.89s3.13-3.89 7-3.89 7 1.74 7 3.89-3.14 3.89-7 3.89z" transform="translate(-.98 -.52)"/><path d="M100.32 378.64c-3.86 0-7 1.74-7 3.89s3.13 3.89 7 3.89 7-1.74 7-3.89-3.14-3.89-7-3.89z" transform="translate(-.98 -.52)" style="fill:url(#e60f0842-2de2-4181-a4f4-4cdc8c480b8b)"/></g></g><g id="bfad11c8-a3e7-492f-93fa-62ab0845ac12" data-name="boutons P2"><g id="abb7879c-f3f3-4524-b83c-aa634ca0c7da" data-name="1"><path class="f5a670ea-2f25-4f57-91f8-e36956301d61" d="M225.69 399.93c-3.86 0-8.13 1.53-8.13 4.87 0 2.95 4.11 4.62 7.95 4.62 4.1 0 8-1.73 8-4.88-.04-2.35-3.88-4.61-7.82-4.61zm-.18 8.63c-3.86 0-7-1.74-7-3.89s3.13-3.89 7-3.89 7 1.74 7 3.89-3.14 3.89-7 3.89z" transform="translate(-.98 -.52)"/><path d="M225.51 400.78c-3.86 0-7 1.74-7 3.89s3.13 3.89 7 3.89 7-1.74 7-3.89-3.14-3.89-7-3.89z" transform="translate(-.98 -.52)" style="fill:url(#f954aea5-a0e0-4eb5-9b57-f056175b1ee9)"/></g><g id="adaebe57-eb7d-420a-8acd-61086bb6fd99" data-name="2"><path class="f5a670ea-2f25-4f57-91f8-e36956301d61" d="M247 399.49c-3.86 0-8.13 1.54-8.13 4.88 0 2.95 4.11 4.62 7.95 4.62 4.1 0 8-1.73 8-4.88-.07-2.35-3.91-4.62-7.82-4.62zm-.18 8.64c-3.86 0-7-1.74-7-3.89s3.13-3.89 7-3.89 7 1.74 7 3.89-3.17 3.89-7.03 3.89z" transform="translate(-.98 -.52)"/><path d="M246.79 400.35c-3.86 0-7 1.74-7 3.89s3.13 3.89 7 3.89 7-1.74 7-3.89-3.14-3.89-7-3.89z" transform="translate(-.98 -.52)" style="fill:url(#bd34716e-d0de-4260-88d7-68a82bd954dd)"/></g><g id="bc695513-29c1-434a-94d3-27710bc1f2f2" data-name="3"><path class="f5a670ea-2f25-4f57-91f8-e36956301d61" d="M264.58 405.18c-3.86 0-8.12 1.53-8.12 4.88 0 2.95 4.1 4.61 7.94 4.61 4.1 0 8-1.73 8-4.88-.04-2.35-3.88-4.61-7.82-4.61zm-.18 8.64c-3.86 0-7-1.75-7-3.89s3.13-3.89 7-3.89 7 1.74 7 3.89-3.14 3.89-7 3.89z" transform="translate(-.98 -.52)"/><path d="M264.4 406c-3.86 0-7 1.74-7 3.89s3.13 3.89 7 3.89 7-1.75 7-3.89-3.14-3.89-7-3.89z" transform="translate(-.98 -.52)" style="fill:url(#a356c893-624d-4097-97d3-36aaa1aaf962)"/></g><g id="b97b033c-8fd9-4aca-a263-96bb8280a224" data-name="4"><path class="f5a670ea-2f25-4f57-91f8-e36956301d61" d="M258.54 417.44c-3.86 0-8.13 1.53-8.13 4.88 0 2.95 4.11 4.61 8 4.61 4.1 0 8-1.73 8-4.88-.09-2.35-3.93-4.61-7.87-4.61zm-.18 8.64c-3.86 0-7-1.75-7-3.89s3.13-3.89 7-3.89 7 1.74 7 3.89-3.14 3.89-7 3.89z" transform="translate(-.98 -.52)"/><path d="M258.36 418.3c-3.86 0-7 1.74-7 3.89s3.13 3.89 7 3.89 7-1.75 7-3.89-3.14-3.89-7-3.89z" transform="translate(-.98 -.52)" style="fill:url(#b4cf4e05-67fd-4291-886d-853b4fb4244f)"/></g><g id="f0de9df5-b34e-4bc4-b946-e04400783900" data-name="5"><path class="f5a670ea-2f25-4f57-91f8-e36956301d61" d="M240 411.28c-3.86 0-8.13 1.53-8.13 4.88 0 2.95 4.11 4.61 7.95 4.61 4.1 0 8-1.73 8-4.88-.07-2.35-3.91-4.61-7.82-4.61zm-.18 8.63c-3.86 0-7-1.74-7-3.89s3.13-3.89 7-3.89 7 1.75 7 3.89-3.17 3.89-7.03 3.89z" transform="translate(-.98 -.52)"/><path d="M239.79 412.13c-3.86 0-7 1.75-7 3.89s3.13 3.89 7 3.89 7-1.74 7-3.89-3.14-3.89-7-3.89z" transform="translate(-.98 -.52)" style="fill:url(#b1dffe6e-8111-4f72-b9f3-ed6d24ff6ce9)"/></g><g id="efdccd7b-1dc1-4b91-9c2c-cee104168f79" data-name="6"><path class="f5a670ea-2f25-4f57-91f8-e36956301d61" d="M217.73 411.28c-3.86 0-8.13 1.53-8.13 4.88 0 2.95 4.11 4.61 8 4.61 4.1 0 8-1.73 8-4.88-.09-2.35-3.93-4.61-7.87-4.61zm-.18 8.63c-3.86 0-7-1.74-7-3.89s3.13-3.89 7-3.89 7 1.75 7 3.89-3.14 3.89-7 3.89z" transform="translate(-.98 -.52)"/><path d="M217.55 412.13c-3.86 0-7 1.75-7 3.89s3.13 3.89 7 3.89 7-1.74 7-3.89-3.14-3.89-7-3.89z" transform="translate(-.98 -.52)" style="fill:url(#bf2ca7cc-e181-4c87-ac42-80e4936fde03)"/></g></g><path class="b3f456ab-0cc0-4f44-a419-2cede934ce7e" d="M228.57 237.19v.07l-5.92-1v-.08zM236.56 238.53a.13.13 0 0 0 0 .06l-5.72-1v-.06z" transform="translate(-.98 -.52)"/><path class="a59ff6b2-0699-4ff0-ba41-c715f2a6c3c6" d="m210.17 273.38-65.56-11c-.87-.14-.87-.14-.74-.92.25-1.54.47-3.08.75-4.61.78-4.31 1.48-8.63 2.22-12.95.09-.48.22-1 .29-1.44 0-.18.12-.23.31-.19l.75.13 119.31 19.98a16.13 16.13 0 0 1 4.69 1.42 11.54 11.54 0 0 1 5.67 5.9 8.36 8.36 0 0 1 .63 3.88c0 .38-.08.76-.15 1.14l-1.56 9.36c-.07.39-.13.42-.54.36l-40.11-6.72zm14.68-7.7c-.4 2.35-.79 4.71-1.19 7.07 0 .23 0 .34.3.38 1 .15 1.95.32 2.93.49.51.09.51.09.59-.37q.69-4.22 1.4-8.43c0-.08 0-.21.12-.22s.13.1.17.17c1.69 3.14 3.43 6.26 5.06 9.42a2.38 2.38 0 0 0 3.55.6c.9-.94 1.91-1.79 2.87-2.68l4.89-4.53c.08-.07.15-.22.26-.17s0 .2 0 .31v.12c-.47 2.79-.93 5.58-1.4 8.37 0 .25 0 .35.31.4 1 .16 2 .32 3.06.51.34.07.45 0 .49-.32l2.32-13.83a1.32 1.32 0 0 0-.25-1 2.34 2.34 0 0 0-3.26-.37l-2.16 2-8.12 7.4c-.25.23-.28.22-.45-.08-2.2-4.06-4.42-8.11-6.61-12.17a2.14 2.14 0 0 0-1.43-1.06A1.74 1.74 0 0 0 226 259zm-4.51-.71c.38-2.31.76-4.61 1.16-6.92a1.32 1.32 0 0 0-.45-1.21 2.4 2.4 0 0 0-3.17 0c-2.39 2.24-4.82 4.43-7.24 6.63l-2.95 2.7c-.13.12-.23.25-.37 0l-3.44-6.31c-1.1-2-2.19-4-3.3-6a2.24 2.24 0 0 0-2.21-1 1.52 1.52 0 0 0-1.5 1.37q-1.16 6.86-2.3 13.71c0 .28.05.37.35.41 1 .15 2 .32 3 .5.44.07.45.08.51-.3.46-2.73.91-5.46 1.37-8.19 0-.13 0-.27.06-.4s0-.16.11-.17.1.08.13.14.18.34.28.51c1.63 3 3.29 6 4.88 9.07a2.34 2.34 0 0 0 3.35.6c.47-.47 1-.91 1.48-1.37l6.5-6c.06-.05.09-.14.19-.11s.07.14.06.22c-.14.81-.28 1.62-.41 2.44-.35 2.06-.69 4.13-1 6.2 0 .22 0 .32.29.36l3 .5c.44.07.45.07.52-.31q.51-3.6 1.1-7.04zm33.15 5.67c-.38 2.28-.76 4.57-1.15 6.85-.06.31.06.41.38.45 1 .16 2 .32 3 .5.33.07.45 0 .5-.31.16-1 .35-2.08.51-3.12 0-.23.12-.33.4-.28l12.77 2.14c.33.05.39.18.34.45-.18 1-.34 2.08-.53 3.12-.05.25 0 .35.32.4 1 .15 2 .32 3 .49.45.07.46.07.53-.34l1.22-7.32a6.88 6.88 0 0 0-2.51-6.52 12.61 12.61 0 0 0-6.36-3c-2.38-.41-4.76-.8-7.13-1.19-.72-.12-1.45-.26-2.17-.35a1.6 1.6 0 0 0-1.91 1.29c-.46 2.27-.83 4.5-1.21 6.74zm-62.24-10.42 1.14-6.79a1.24 1.24 0 0 0 0-.47 1.91 1.91 0 0 0-1.63-1.33c-1.55-.26-3.1-.53-4.65-.77-1.84-.3-3.66-.71-5.51-.87a11.55 11.55 0 0 0-7 1.39 6.55 6.55 0 0 0-3.37 4.67q-.63 3.74-1.25 7.47c-.07.4-.07.4.36.47 1 .17 2 .32 2.93.5.33.06.45 0 .5-.31.15-1 .34-2.06.5-3.09 0-.29.17-.35.48-.3l12.67 2.12c.34 0 .42.16.37.46-.19 1-.35 2.08-.54 3.11 0 .26 0 .36.32.4 1 .16 2 .32 3 .51.33.06.44 0 .49-.32.42-2.28.81-4.57 1.19-6.85zm-38.3 1 6.47 1.08a7.76 7.76 0 0 0 2.76 0 3.93 3.93 0 0 0 3.34-2.92c.64-3.78 1.26-7.55 1.9-11.33.05-.27 0-.37-.33-.42-1-.15-2-.32-3-.5-.36-.07-.46 0-.51.33q-.92 5.58-1.86 11.15a1.08 1.08 0 0 1-1.24.95 4.41 4.41 0 0 1-.73-.08c-1-.18-2-.37-3.06-.54l-7-1.15c-.28-.05-.35-.15-.31-.38.11-.59.19-1.18.31-1.76.06-.28 0-.4-.35-.45-.84-.13-1.68-.26-2.52-.42-.34-.07-.44 0-.49.32-.24 1.49-.49 3-.74 4.45-.07.42-.07.42.42.5zM230.83 237.63l5.72 1c.15.09.15.2.13.35-.37 2.17-.73 4.34-1.11 6.51 0 .29 0 .38.34.43 3.09.5 6.18 1 9.27 1.54.32.05.34.16.31.44-.06.67-.23 1.33-.32 2-.22 1.55-.54 3.09-.8 4.63-.1.59-.17 1.19-.26 1.78 0 .2-.12.31-.4.26L228.57 254c-.65-.11-.65-.11-.56-.68q1.29-7.69 2.57-15.38c.02-.15.02-.31.25-.31zm3.94 12.7c-.13.78-.25 1.56-.39 2.34-.05.27 0 .38.33.43 1.06.16 2.11.34 3.16.53.32.06.44 0 .49-.31.25-1.55.51-3.1.78-4.66 0-.24 0-.34-.31-.38q-1.62-.25-3.24-.54c-.28-.05-.39 0-.43.27-.16.78-.26 1.55-.39 2.32zM255.63 249.17c2.55.43 5.09.86 7.64 1.27.34.06.42.17.37.47q-.7 4.14-1.39 8.3c-.07.37-.1.4-.52.33L246.38 257c-.27-.05-.34-.16-.3-.39q.72-4.21 1.41-8.43c0-.28.18-.33.47-.28 2.55.44 5.11.86 7.67 1.29zm1.31 4.88c.14-.8.27-1.6.41-2.4 0-.23 0-.36-.3-.4l-3.44-.58c-.26 0-.38 0-.42.27l-.81 4.85c0 .25.05.36.33.41l3.37.56c.3.06.42 0 .46-.3.13-.8.27-1.6.4-2.41zM173.53 244.78l-7.64-1.27c-.31 0-.37-.15-.33-.42q.72-4.2 1.42-8.42c0-.25.13-.32.4-.27l15.36 2.6c.41.07.43.11.37.49-.26 1.55-.53 3.11-.78 4.66 0 .31-.17.37-.5.32-3.07-.53-6.15-1-9.22-1.55-.46-.08-.46-.08-.52.32s-.11.7-.19 1 0 .35.31.4c2.06.33 4.11.68 6.17 1l3.16.53c.32.05.42.17.37.44s-.14.74-.19 1.11-.18.38-.51.32zm.92-5.45c.56.1 1.13.18 1.69.29.25 0 .35 0 .38-.25 0-.39.12-.78.2-1.17 0-.21 0-.32-.26-.36l-3.41-.57c-.22 0-.33 0-.36.23q-.08.62-.18 1.23c0 .23.06.3.29.33.55.07 1.1.17 1.65.27zM211.28 241.75l7.64 1.28c.44.07.5.14.42.52-.43 2-.7 4-1.05 6-.14.74-.27 1.48-.37 2.23 0 .29-.15.37-.49.31-2.08-.36-4.17-.7-6.26-1l-9-1.51c-.42-.07-.43-.08-.37-.47.26-1.56.53-3.11.77-4.67 0-.32.18-.37.52-.31l9.16 1.54c.46.07.46.07.53-.33s.09-.67.17-1 0-.4-.36-.46c-2.34-.37-4.68-.77-7-1.16l-2.31-.38c-.24 0-.32-.12-.28-.34a10.85 10.85 0 0 0 .21-1.27c0-.27.16-.31.43-.26l5.37.9 2.27.38zm-1.15 7.25c.55.09 1.11.17 1.66.27.21 0 .33 0 .36-.21l.21-1.23c0-.19-.05-.29-.27-.33l-3.33-.56c-.24 0-.35 0-.38.24 0 .4-.11.79-.19 1.17-.05.23.05.33.29.37.52.07 1.1.17 1.65.28zM268.74 251.36c.87.15 1.74.31 2.62.44.31 0 .38.18.34.43-.08.4-.13.8-.21 1.2 0 .21 0 .3.27.34l3.36.56c.28 0 .38 0 .41-.27.06-.41.15-.82.2-1.23 0-.23.15-.27.37-.24l5.4.91c.21 0 .3.13.27.33-.08.43-.16.86-.22 1.29 0 .23-.16.29-.41.25-.44-.09-.89-.15-1.34-.24-.24 0-.33 0-.36.24-.05.4-.13.8-.19 1.2 0 .23-.15.3-.4.25-.47-.08-.94-.15-1.41-.24-.17 0-.24 0-.29.17-.13.44-.08.91-.25 1.34-.07.18.07.24.24.27l1.38.22c.28 0 .38.15.33.41s-.13.78-.21 1.17c0 .21.05.31.28.34l1.34.22c.25 0 .34.13.3.36-.09.42-.17.84-.22 1.27 0 .22-.15.27-.36.24l-.65-.11-4.62-.77c-.45-.08-.45-.08-.38-.49s.12-.76.19-1.14c.05-.21 0-.3-.27-.34l-3.44-.58c-.22 0-.29 0-.31.21-.06.4-.16.8-.19 1.21s-.19.37-.5.32l-4.72-.8c-1.16-.19-.93-.1-.8-1 0-.25.09-.49.12-.74s.16-.29.4-.25c.45.09.9.15 1.34.24.27.05.39 0 .42-.26s.14-.78.19-1.17.16-.31.41-.26c.46.09.92.15 1.37.24.21 0 .3 0 .32-.2.06-.43.13-.85.22-1.27 0-.21-.05-.28-.26-.31l-1.38-.23c-.24 0-.34-.12-.29-.36s.14-.78.21-1.17c0-.23 0-.35-.31-.38-.45-.06-.9-.15-1.35-.22-.25 0-.34-.14-.29-.37q.12-.63.21-1.26c0-.24.16-.29.4-.24zM222.64 236.28l5.92 1a.42.42 0 0 1 .05.36q-1.31 7.77-2.6 15.56c0 .28-.17.37-.48.31s-.88-.19-1.33-.26l-3.89-.62c-.46-.08-.45-.08-.39-.49q1.31-7.74 2.6-15.49c.02-.14 0-.28.12-.37zM191.71 247.82l-7.71-1.28c-.3 0-.4-.14-.35-.43q.72-4.2 1.41-8.4c0-.26.15-.32.42-.27l15.39 2.56c.31.05.42.18.36.45s-.11.72-.19 1.08-.13.41-.55.34l-4.16-.7-5.06-.85c-.28 0-.37 0-.41.25-.22 1.39-.46 2.78-.69 4.17a2.74 2.74 0 0 1 0 .28c-.11.6-.11.6.58.72l8.92 1.49c.42.07.45.11.39.5s-.15.72-.18 1.08-.19.35-.48.3c-.56-.11-1.12-.2-1.68-.29z" transform="translate(-.98 -.52)"/><path d="M291.07 282.1c-.25 1.47-.49 2.94-.74 4.41-.07.42-.07.42-.51.34l-4.27-.71c-.27 0-.37-.13-.3-.37s.07-.41.11-.62-.06-.27-.25-.29l-.49-.05c-.39-.06-.49 0-.51.37v.19c0 .43-.14.5-.63.42-1.39-.23-2.79-.47-4.19-.69-.32-.05-.4-.19-.36-.45.5-3 1-5.91 1.49-8.86.06-.36.14-.42.55-.33 2.95.58 5.92 1 8.87 1.52.52.09 1 .13 1.55.22s.47.1.4.52c-.24 1.46-.49 2.92-.73 4.38zm-8.37-.17 1.58.27c.22 0 .32 0 .35-.22.1-.59.2-1.19.31-1.79 0-.21-.06-.3-.29-.34l-3.13-.52c-.21 0-.31 0-.35.22-.08.59-.18 1.19-.29 1.79 0 .21 0 .31.27.34zm5.47-1.49c-.52-.08-1-.16-1.55-.26-.25-.05-.36 0-.39.24-.09.59-.19 1.19-.29 1.78-.05.23.05.29.28.33 1 .16 2 .33 3 .51.28.05.39 0 .43-.27.08-.56.17-1.13.28-1.69 0-.23 0-.35-.3-.39-.48-.08-.97-.17-1.46-.25z" transform="translate(-.98 -.52)" style="fill:#2785db"/><path d="M292.87 271.31c-.25 1.48-.5 3-.74 4.44-.07.38-.11.4-.52.34l-2.86-.48c-.41-.07-.49-.18-.43-.54.14-.85.28-1.71.43-2.56a.34.34 0 0 1 0-.1c.2-.63.12-.52.72-.43l1.48.25c.26 0 .4 0 .44-.25.09-.59.19-1.18.29-1.76 0-.21 0-.33-.3-.38l-8-1.34c-.26 0-.39.05-.42.28-.09.57-.19 1.14-.28 1.7 0 .23.05.36.31.41l3.06.52a.25.25 0 0 0 .33-.17 1.81 1.81 0 0 0 .12-.64c0-.19.11-.24.27-.29a.45.45 0 0 1 .2 0c.85.09.89.14.77.88-.21 1.26-.43 2.51-.63 3.77 0 .26-.17.34-.43.3l-5.43-.91c-.49-.08-.55-.15-.48-.58.49-3 1-5.91 1.48-8.87 0-.17.09-.23.28-.22s.55 0 .83.08l9.77 1.63c.55.09.55.1.47.6l-.72 4.32z" transform="translate(-.98 -.52)" style="fill:#44c047"/><path d="M289.84 254.78c1.75.29 3.49.59 5.24.87.3 0 .4.13.35.42-.51 3-1 5.95-1.49 8.92-.05.3-.16.38-.49.32-1.4-.25-2.8-.48-4.2-.71-.36-.06-.42-.15-.36-.47 0-.12.06-.23.08-.34.08-.47.08-.47-.46-.56h-.21c-.5-.08-.51-.08-.54.39 0 .18-.1.34-.11.52s-.18.19-.35.16l-4.44-.74c-.23 0-.32-.15-.29-.35.17-1 .35-2 .51-3.06 0-.28.23-.27.45-.23l1.83.3c.8.15 1.61.24 2.4.44.25.06.44 0 .48-.27.07-.57.17-1.14.28-1.7.05-.27 0-.38-.34-.43-1.42-.22-2.83-.47-4.24-.7-.29 0-.4-.12-.35-.4.18-1 .33-2 .48-3 0-.26.15-.33.44-.28 1.77.31 3.55.6 5.33.9zm1.49 6.43c.51.08 1 .16 1.54.26.22 0 .35 0 .39-.21.09-.61.19-1.22.3-1.82 0-.2 0-.32-.27-.35l-3.09-.52c-.22 0-.32 0-.35.21-.09.63-.2 1.25-.31 1.88 0 .18 0 .26.24.29z" transform="translate(-.98 -.52)" style="fill:#eb1416"/><path class="a59ff6b2-0699-4ff0-ba41-c715f2a6c3c6" d="m156.94 232.66 7.54 1.26c.53.09.53.09.45.57s-.13.7-.17 1-.16.33-.44.28l-9.3-1.57c-.33-.05-.41 0-.45.3-.35 2.17-.72 4.33-1.07 6.49-.05.31-.2.36-.51.31l-5.19-.87c-.3 0-.4-.14-.35-.42q.72-4.19 1.4-8.39c.05-.31.19-.34.48-.29z" transform="translate(-.98 -.52)"/><path class="b3f456ab-0cc0-4f44-a419-2cede934ce7e" d="M224.85 265.68 226 259a1.74 1.74 0 0 1 2.34-1.33 2.14 2.14 0 0 1 1.43 1.06c2.19 4.06 4.41 8.11 6.61 12.17.17.3.2.31.45.08l8.14-7.43 2.16-2a2.34 2.34 0 0 1 3.26.37 1.32 1.32 0 0 1 .25 1q-1.17 6.91-2.32 13.83c0 .29-.15.39-.49.32-1-.19-2-.35-3.06-.51-.3-.05-.36-.15-.31-.4.47-2.79.93-5.58 1.4-8.37v-.12c0-.04.11-.25 0-.31s-.18.1-.26.17l-4.89 4.53c-1 .89-2 1.74-2.87 2.68a2.38 2.38 0 0 1-3.55-.6c-1.63-3.16-3.37-6.28-5.06-9.42 0-.07-.06-.19-.17-.17s-.11.14-.12.22l-1.4 8.43c-.08.46-.08.46-.59.37-1-.17-1.95-.34-2.93-.49-.28 0-.34-.15-.3-.38.4-2.36.79-4.72 1.19-7.07zM220.34 265q-.59 3.46-1.16 6.95c-.07.38-.08.38-.52.31l-3-.5c-.27 0-.32-.14-.29-.36.36-2.07.7-4.14 1-6.2.13-.82.27-1.63.41-2.44 0-.08.06-.18-.06-.22s-.13.06-.19.11l-6.5 6c-.5.46-1 .9-1.48 1.37a2.34 2.34 0 0 1-3.35-.6c-1.59-3-3.25-6.05-4.88-9.07-.1-.17-.19-.34-.28-.51s-.05-.14-.13-.14-.1.1-.11.17 0 .27-.06.4c-.46 2.73-.91 5.46-1.37 8.19-.06.38-.07.37-.51.3-1-.18-2-.35-3-.5-.3 0-.4-.13-.35-.41q1.16-6.86 2.3-13.71a1.52 1.52 0 0 1 1.5-1.37 2.24 2.24 0 0 1 2.21 1c1.11 2 2.2 4 3.3 6l3.44 6.31c.14.27.24.14.37 0l2.95-2.7c2.42-2.2 4.85-4.39 7.24-6.63a2.4 2.4 0 0 1 3.17 0 1.32 1.32 0 0 1 .45 1.21c-.4 2.31-.78 4.61-1.16 6.92zM253.49 270.64c.38-2.24.75-4.47 1.13-6.7a1.6 1.6 0 0 1 1.91-1.29c.72.09 1.45.23 2.17.35 2.37.39 4.75.78 7.13 1.19a12.61 12.61 0 0 1 6.36 3 6.88 6.88 0 0 1 2.51 6.52q-.6 3.66-1.22 7.32c-.07.41-.08.41-.53.34-1-.17-2-.34-3-.49-.29 0-.37-.15-.32-.4.19-1 .35-2.08.53-3.12.05-.27 0-.4-.34-.45l-12.77-2.14c-.28-.05-.36 0-.4.28-.16 1-.35 2.08-.51 3.12-.05.3-.17.38-.5.31-1-.18-2-.34-3-.5-.32 0-.44-.14-.38-.45.39-2.28.77-4.57 1.15-6.85zM264 273l6.37 1.07c.3 0 .43 0 .46-.28s.08-.52.12-.78a4.27 4.27 0 0 0-1.54-4.2 8.48 8.48 0 0 0-4-1.85c-2.25-.43-4.52-.78-6.77-1.17-.34-.06-.36.12-.4.33q-.44 2.69-.9 5.37c0 .29 0 .4.36.46zM191.25 260.22c-.38 2.28-.77 4.57-1.14 6.85-.05.3-.16.38-.49.32-1-.19-2-.35-3-.51-.29 0-.36-.14-.32-.4.19-1 .35-2.08.54-3.11.05-.3 0-.41-.37-.46l-12.67-2.12c-.31-.05-.44 0-.48.3-.16 1-.35 2.05-.5 3.09 0 .3-.17.37-.5.31-1-.18-1.95-.33-2.93-.5-.43-.07-.43-.07-.36-.47q.62-3.74 1.25-7.47a6.55 6.55 0 0 1 3.37-4.67 11.55 11.55 0 0 1 7-1.39c1.85.16 3.67.57 5.51.87 1.55.24 3.1.51 4.65.77a1.91 1.91 0 0 1 1.59 1.37 1.24 1.24 0 0 1 0 .47l-1.14 6.79zm-10.67-1.14c2.11.35 4.22.7 6.33 1.07.32.05.44 0 .48-.29.3-1.81.6-3.63.91-5.44 0-.26 0-.37-.33-.42q-3-.48-6-1a11.11 11.11 0 0 0-3.77 0 4.85 4.85 0 0 0-3.81 2.54 7.49 7.49 0 0 0-.52 2c-.07.4-.07.41.4.48zM153 261.25l-7-1.17c-.49-.08-.49-.08-.42-.5.25-1.48.5-3 .74-4.45.05-.28.15-.39.49-.32.84.16 1.68.29 2.52.42.31.05.41.17.35.45-.12.58-.2 1.17-.31 1.76 0 .23 0 .33.31.38l7 1.15c1 .17 2 .36 3.06.54a4.41 4.41 0 0 0 .73.08 1.08 1.08 0 0 0 1.24-.95q.94-5.58 1.86-11.15c0-.3.15-.4.51-.33 1 .18 2 .35 3 .5.3.05.38.15.33.42-.64 3.78-1.26 7.55-1.9 11.33a3.93 3.93 0 0 1-3.34 2.92 7.76 7.76 0 0 1-2.76 0l-6.41-1.08z" transform="translate(-.98 -.52)"/><path class="a59ff6b2-0699-4ff0-ba41-c715f2a6c3c6" d="m264 273-6.33-1c-.34-.06-.41-.17-.36-.46q.47-2.68.9-5.37c0-.21.06-.39.4-.33 2.25.39 4.52.74 6.77 1.17a8.48 8.48 0 0 1 4 1.85 4.27 4.27 0 0 1 1.54 4.2c0 .26-.1.52-.12.78s-.16.33-.46.28zM180.58 259.08l-6.3-1.06c-.47-.07-.47-.08-.4-.48a7.49 7.49 0 0 1 .52-2 4.85 4.85 0 0 1 3.81-2.54 11.11 11.11 0 0 1 3.77 0q3 .51 6 1c.31.05.38.16.33.42-.31 1.81-.61 3.63-.91 5.44 0 .29-.16.34-.48.29-2.11-.37-4.22-.72-6.33-1.07z" transform="translate(-.98 -.52)"/></g><g id="b92593dc-ea59-4e89-9bf7-48d58067ca6b" data-name="b9b69474-e810-420c-9878-8fbb6209f919"><g id="e02d1db0-0944-43ac-abeb-29c5ea67da61" data-name="f79917ed-8141-498c-803e-20fb05615862"><path d="M288.42 148.78c-.85 2.41-2.35 4.26-5.41 4a70.28 70.28 0 0 1-8.68-1.31c-.48-.09-1.2-1.08-1.32-1.67-.18-.9.48-1.4 1.5-1.25 2.27.33 4.53.7 6.8 1 2.46.39 3.68-.39 3.71-2.31s-1.42-3.3-3.76-3.7l-2.69-.41c-3.2-.5-4.47-1.51-5.63-4.49-1.4.74-2.49.25-3.64-1.09-2.11-2.45-5.12-2.76-7.18-.88-2.19 2.15-2.08 5.78.26 8.51 1.71 2 4.64 2.64 6.55 1.33l.09-.06c.24-.16.44-.35.67-.52a1.92 1.92 0 0 1 2.68.21c.88.84.35 1.57-.21 2.17-3.81 4.07-11.56 1.65-14.12-4.39-2.34-5.61.63-11.26 6.2-11.49 3.6-.15 6.46 1.6 8.72 4.81 1-2.94 3.33-3.33 6.35-2.7 1.42.3 2.85.47 4.27.66a1.72 1.72 0 0 1 1.7 1.78c0 1-.62 1.42-1.7 1.25l-5.4-.83c-1-.16-1.85 0-1.81 1.09s.84 1.37 1.78 1.5l1.9.29c5.05.78 6.61 2 8.38 6.62a2.45 2.45 0 0 1 0 1.79zm-22.08-60.6V91l-10.1-1.51v-2.81zm-80.49 45.89c-2.9 3-6.29 3.52-9.78 1.71a10.51 10.51 0 0 1-5.61-9.62c.34-4 2.9-6.72 6.64-7 3.12-.23 6.06 1.27 8.75 4.7v-1.76c0-1.06.38-1.76 1.66-1.56a1.83 1.83 0 0 1 1.64 2.1v12.71c3.74.58 7.3 1.16 10.86 1.65.34.05.78-.41 1-.76 1.95-3.68 3.81-7.41 5.83-11.05a2.75 2.75 0 0 1 1.88-1.33c1.22-.15 1.6 1 2 1.93 2.08 4.64 4.17 9.28 6.21 13.91.47 1.05 1.41 2.39-.29 2.8-1.5.36-2.09-.81-2.61-2-.86-2-1.82-4-2.66-6a1.8 1.8 0 0 0-1.76-1.32 6 6 0 0 1-1.55-.24 1.43 1.43 0 0 0-2 .85c-.86 1.85-1.88 3.63-2.78 5.45-.45.91-1.09 1.18-2.27 1-4.17-.71-8.29-1.29-12.43-1.93-2.52-.39-2.69-.57-2.71-3v-1.18zm0-8.73c-1.58.64-2.59 0-3.66-1.22-2-2.31-4.83-2.62-6.81-.92-2.13 1.94-2.27 5.29-.34 8s5 3.4 7.11 1.67c1.16-.93 2.24-1.05 3.7.18v-7.71zM271.62 104c.08 3.1-.49 5.76-2.84 7.78-3 2.63-7.5 2.26-11.36.5a10.53 10.53 0 0 1-6.11-9.5 32.28 32.28 0 0 0 0-3.68c-.5-4.62 4.84-8.65 9.64-7.63s8.31 3.14 9.82 7.22a26.38 26.38 0 0 1 .86 5.31zm-4.63-.57a7.78 7.78 0 0 0 0-2.21 12 12 0 0 0-1.45-3.31c-1.33-1.93-7.12-2.83-8.5-1.12a6 6 0 0 0-1.3 2.67 27.89 27.89 0 0 0-.05 4.39 5.46 5.46 0 0 0 4.21 4.83c4.44 1 7.67.38 7.11-5v-.29zm-36.12 5.27-4.16-.64v-8.41l-9.15-1.38v8.38l-4.24-.65V84.53l4.17.63v8.46l9.14 1.38v-8.47l4.26.64zm6-16.2v17.12l-4.17-.63V87.41c3.17.47 6.37.7 9.5 1.48 3.92 1 7.43 5.61 7.43 9.3v12.93a1.64 1.64 0 0 1-.1.38l-4.25-.65V98a5.08 5.08 0 0 0-3.74-4.78 39.59 39.59 0 0 0-4.68-.73zm-51.2-7.81v4.16l8.76 1.32v4.46l-8.57-1.29a1.75 1.75 0 0 0-.23.5c-.25 3.51-.19 3.58 3.56 4.15l5.92.9v4.43l-5.64-.86c-1.14-.17-2.28-.31-3.42-.52a6 6 0 0 1-4.64-4.85 9.37 9.37 0 0 1 0-1.18V79.75l13.75 2.06v4.29zm87.38 30.47v-4.47l5.56.84a6.94 6.94 0 0 0 1.57.13c1.38-.12 1.69-1.08.71-2.19q-2.91-3.24-5.92-6.4a6.18 6.18 0 0 1-1.62-6.36c.57-2 2.37-2.92 4.65-2.59 2.84.4 5.68.85 8.63 1.29v4.48l-4.89-.73a7.6 7.6 0 0 0-1.89-.2c-.55.08-1.27.32-1.43.71a2 2 0 0 0 .54 1.6c1.89 2.13 3.86 4.2 5.81 6.29a6.13 6.13 0 0 1 1.45 6.74 3.86 3.86 0 0 1-4.53 2.18c-2.84-.47-5.68-.87-8.63-1.32zm-61.69-13.81v4.37a73.34 73.34 0 0 1-8-1.27c-3.84-1-7.31-5.63-7.34-9.3v-4.68c.05-4.75 4.15-8 9.2-7.25l6.13.91v4.46l-5.69-.86c-3.62-.54-5.32.8-5.32 4.19v3.37a5.23 5.23 0 0 0 4.7 5.1c2.11.33 4.18.61 6.35.96zm-31.78-21.91v21.44l-4.2-.63v-17l-8.53-1.28v-4.43zm60.2 66.78c-1.15-.18-2.3-.39-3.45-.54s-2-.6-2-1.79.89-1.47 2.1-1.25c2.14.36 4.28.68 6.43 1s3.38-.52 3.45-2.27a3.79 3.79 0 0 0-3.36-3.67c-1.3-.26-2.61-.38-3.92-.64-2.74-.52-4.77-2.73-4.71-5.08s2.05-3.84 4.7-3.51c1.93.24 3.87.59 5.81.89 1.09.17 1.68.73 1.68 1.76s-.58 1.43-1.69 1.26l-5.17-.8c-1-.16-2-.15-2 1s.93 1.38 1.91 1.54a32.05 32.05 0 0 1 4.83 1c3.24 1.05 5.47 4.18 5.14 7.2-.38 3.2-2.89 4.92-6.45 4.41l-3.28-.53zm-16.19-2.52c-1.2-.19-2.4-.39-3.59-.56s-1.83-.6-1.87-1.76.76-1.45 1.91-1.27l6.56 1c2.18.34 3.39-.53 3.45-2.27a3.81 3.81 0 0 0-3.34-3.66c-1.31-.25-2.61-.38-3.91-.63a5.35 5.35 0 0 1-4.66-5.06c0-2.41 2-3.85 4.63-3.53 1.92.24 3.85.59 5.78.89 1.09.17 1.68.74 1.67 1.75s-.57 1.43-1.67 1.27l-5-.78c-1.07-.16-2.16-.24-2.14 1s1.05 1.39 2.06 1.57a28.46 28.46 0 0 1 4.82 1c3.21 1.08 5.39 4.26 5 7.24s-2.87 4.78-6.37 4.28zm28-4.56v-6.75c0-1.07.23-2 1.69-1.74s1.68 1.15 1.68 2.25v13.66c0 1.11-.26 2-1.69 1.74s-1.68-1.16-1.68-2.26q-.03-3.45-.04-6.9zm21.66-15.51c.5 3.51-3.12 5-5.95 3.13-2.22-1.46-2.53-3.11-2-6 .34-1.79 2.21-2.48 4.47-2s3.44 2.34 3.44 4.87zm-6.3-1c0 2 .48 2.7 2.19 3s2.31-.22 2.31-2.18-.49-2.66-2.26-2.92-2.23.24-2.24 2.1zm-53.66-8.07c0 2.18-.82 3.39-2.51 3.73a4.73 4.73 0 0 1-4.53-1.75c-1-1.25-1.33-4.25-.55-5.51s2.28-1.8 4.13-1.38c2.16.49 3.46 2.29 3.46 4.91zM207 113.5c0 2 .5 2.67 2.21 2.93s2.25-.21 2.25-2.2-.52-2.62-2.27-2.87-2.18.3-2.19 2.14zm-16.74-6.77 1.6.24v3.36l3.56.55v-3.31l1.71.14v8.58l-1.63-.25v-3.25l-3.64-.56v3.29l-1.61-.25zm84 12.74 3.29.5a2.25 2.25 0 0 1 2.19 2.18c.09 2.24 0 4.46 0 6.77l-1.77-.27v-3.5l-2.12-.32v3.56l-1.62-.25zm1.74 1.64v2.24l2-.82zm-33.59-4.72v-1.57c.12-.08.16-.13.2-.12 5.24.62 5.53.52 5.39 5.35v4.13c-1.38-.21-2.67-.31-3.94-.63s-1.85-1.32-1.74-3.07c.07-1.24.62-2 2.07-1.77l1.77.26v-2zm3.63 4-2 .65a5.69 5.69 0 0 0 1.21.89c1.07.35 1.21-.21.8-1.54zm-17-6v-1.79a19.54 19.54 0 0 1 3.88.67 3 3 0 0 1 1.6 1.85c.19 2.3.08 4.58.07 7-1.28-.19-2.46-.31-3.64-.55-1.46-.33-2-1.24-2-2.93s.66-2.13 2.16-2c.52.06 1 .16 1.68.26v-2zm3.64 3.94-1.95.76a4.92 4.92 0 0 0 1.14.8c1.06.39 1.22-.16.79-1.54zm-50-7.58-3.44-.52c.15 2.91 2.65 1.28 3.75 2.46v1.35a1.21 1.21 0 0 1-.34.08c-4.69-.56-5.34-.61-5.13-5.24.06-1.3 0-2.62 0-4.17l5.47.83.11 1.73-3.76-.57v1.7l3.31.51zm66.73 5a1.27 1.27 0 0 1 .28-.06c5 .32 6.89 1.9 6.49 6.68-.07.91 0 1.85 0 2.91l-1.79-.18V121c0-2.48-.48-2.94-3.37-3.16v6.76l-1.62-.25zM199.53 110v6.71l-1.54-.24v-8.58c1.19.18 2.38.29 3.54.54a4.47 4.47 0 0 1 3.1 3.52 9.35 9.35 0 0 1 0 1.18v4.31l-1.75-.26v-4.08c0-2.42-.51-2.91-3.38-3.1zm38 8.84v3.69l-1.68-.26v-8.6a32.12 32.12 0 0 1 3.85.62c1.53.42 1.71 1.61 1.67 2.81s-.42 2.07-1.83 2a17.41 17.41 0 0 1-2-.28zm.08-1.64a14.29 14.29 0 0 0 1.86-.11c.11 0 .12-.71 0-.76-.62-.27-1.25-.52-1.89-.73zm-18.41-6.09.07 1.65-3.27-.17-.17.41c.78.85 1.52 1.74 2.34 2.56a2.68 2.68 0 0 1 .91 3c-.46 1.13-1.59 1-2.72.8L214 119v-1.73l3.17.28.25-.4a36.75 36.75 0 0 1-2.5-2.8 4.57 4.57 0 0 1-.95-2.18 1.41 1.41 0 0 1 1.55-1.6h.22c1.14.12 2.28.33 3.5.51zm63.3 14.61v3.67l-1.64-.26v-8.63c1.17.18 2.27.31 3.35.51 1.58.3 2.18 1.09 2.19 2.79s-.59 2.33-2.12 2.19c-.52-.07-1.04-.17-1.77-.29zm.1-3.25v1.61a18.07 18.07 0 0 0 2-.17 1.08 1.08 0 0 0 0-.77 19.33 19.33 0 0 0-1.99-.69z" transform="translate(-.98 -.52)"/><path d="M189.43 113.58v1.53c-2 0-4-.13-5.33-2.13a5.05 5.05 0 0 1-.33-5.33c1.07-2.09 3.32-1.58 5.62-1V108a14.11 14.11 0 0 0-3.87.51c-.5.21-.49 1.53-.42 2.37.17 2.81 2.63 1.93 4.33 2.7zm75.09 4.49v1.34a17 17 0 0 0-4 .55c-.48.19-.43 1.45-.43 2.25 0 1.64.3 1.81 4.4 2.8v1.6c-2.07-.08-4.16-.18-5.48-2.33a5 5 0 0 1-.14-5.35c1.13-1.93 3.4-1.41 5.65-.86zm-87.81-4.9-1.66-.26v-6.74l-3.37-.52v-1.73l5 .76zm49.51-1 1.49.23a55.78 55.78 0 0 1 0 5.79c-.2 1.88-2.06 2.63-4.68 2.08v-1.68c.42 0 .84.11 1.26.12 1.13 0 1.77-.44 1.78-1.56 0-1.61.06-3.21.1-4.81 0 0 0-.08.09-.17zm-16.92-2.87-2-1.09a6.75 6.75 0 0 1 1.93-.26 9 9 0 0 1 2 .8zm75.7 20.51v-1.58l1.59.24v1.45z" transform="translate(-.98 -.52)"/></g><path d="M102.09 69.37a3.3 3.3 0 0 1 3.26-.94c1.65.29 3.31.5 4.75.71l.67 8.23c-2.79-2.49-6.42-4.15-8.7-7.43zm53.16 14.73c-1.7.62-3 2.21-5.33.84a3.66 3.66 0 0 1-1.27-1.2c-.54-.9-.86-1.89-1.36-2.8-.76-1.42-1.78-2-2.88-1.61s-1.44 1.34-.78 2.87c.1.23.21.46.33.72-2.31-.27-3.59-1-9.38-5.41v1.63l-1.81-.58c.75 3.89-1.19 6.78-2.21 10-.92 2.94-1.33 6.1-2.05 9.14a1.42 1.42 0 0 1-.92 1 16.81 16.81 0 0 1-7.91-.09 7.07 7.07 0 0 1-1.89-.83c-2-1.17-2.43-2.11-1.56-3.82s.65-2.89-1-4.49a33.37 33.37 0 0 1-3.68-5c-.6-.87-1.06-1.88 0-2.39s1.72.4 2.28 1.31a33.52 33.52 0 0 0 9.76 10.27 3.21 3.21 0 0 0 2.45.31c.47-.16.8-1.16.67-1.76a4 4 0 0 0-1.44-1.77c-4-3.1-7.43-6.66-9.28-11.16a29.51 29.51 0 0 1-1.67-7.23c-.16-1.14.08-2.46 2-2.1.37.06.85-.55 1.14-1 1.33-1.9 2.54-3.9 4-5.74a1.29 1.29 0 0 1 2.32.23 2.09 2.09 0 0 1-.37 1.86 22.23 22.23 0 0 0-5 10.32 2.44 2.44 0 0 0 1.59 3.14c1.24.42 2.16-.22 2.53-1.75 1.16-4.89 3.48-9 7.78-11.65a17.37 17.37 0 0 1 5.59-2c1.92-.38 2.8.34 3.29 2.3a2.18 2.18 0 0 0 2 1.83 50.91 50.91 0 0 1 5.41 1.76c.93.34 1.87.92 1.55 2s-1.31.87-2.27.47a28.83 28.83 0 0 0-11.06-2.48h-1.35c-1.23.09-1.93.74-1.69 2a2.43 2.43 0 0 0 2.51 2A29.46 29.46 0 0 1 148 76.93a17.91 17.91 0 0 1 6.91 6.38 7.61 7.61 0 0 1 .34.79zM127.49 62c1.11-3.44 2.09-6.55 3.12-9.63.41-1.17.72-2.74 2.37-2.52s2.06 1.94 2.5 3.28c.64 2.05 1.2 4.08 1.86 6.29-3.82-.44-6.81.76-9.85 2.58zm25.78 13.68c2.8.42 5.74.79 8.67 1.35a3 3 0 0 1 1.83 1.49 2 2 0 0 1-.77 1.87 31 31 0 0 1-3.74 2zm-39.18 23.87c2.66 2.4 5.54 3.18 9 3.48-1.34.82-2.33 1.46-3.37 2a1.19 1.19 0 0 1-1 .11 9.17 9.17 0 0 0-6.54-.62c.66-1.68 1.24-3.21 1.91-4.97z" transform="translate(-.98 -.52)" style="fill:#0068a5" id="b7c6e2e4-cda4-4777-9f1a-30010c4a9221" data-name="ab5bf380-5910-415c-ab07-a72d2e0e70eb"/><path id="fb82cca0-c770-49e7-a135-2094e342873f" data-name="a88ef3cc-916d-4d3d-9b05-465db9c1e366" d="M152 132.59c-2.12-1.23-4.49-2.2-6.28-3.78a13.34 13.34 0 0 0-6.72-3.22c-6.79-1.22-13.58-2.28-20.36-3.41-.23-.05-.47-.11-.7-.18l1.34-1.9a19.36 19.36 0 0 0-7.3-2.45 2.13 2.13 0 0 1-2.19-1.89c-.47-1.69-1-3.37-1.46-5.05-.73-2.6.37-5.87 2.37-7a6 6 0 0 1 9.21 3.28 26.18 26.18 0 0 1 .91 2.52l5.67-2.8c-.37-.68-.89-1.57-1.35-2.49-1.5-3-1-4.69 1.49-6.24a3.42 3.42 0 0 0 1.08-1.69c.2-.5.1-1.15.25-1.68 1-3.47 2-6.91 3-10.4.59-2.18 1-4.42 1.58-6.75l1.19.37v-1.68c.57.47 1 .83 1.43 1.23a20.24 20.24 0 0 0 8.39 4.53c3 .93 6 1.72 8.89 2.92 9.38 3.85 13.3 14.28 8.08 21.26a5.82 5.82 0 0 1-1.86 2c-2.18 1-2.24 3.09-2.53 5.07-.05.34.36.92.7 1.25a15.41 15.41 0 0 1 4.07 6.19c2.16 6.36-.21 10.89-6.42 12.39a3.73 3.73 0 0 1-2.46-.41z" transform="translate(-.98 -.52)" style="fill:#382718"/><path class="fbfb8e48-04e6-4bc9-8b8a-3a404bb440fb" d="M119.3 108a3.24 3.24 0 0 0-1.5-3.8 5.81 5.81 0 0 0-1.39-.64 8.08 8.08 0 0 0-3.33-.51c-2.71.5-3.27 2.54-4.26 4.57a8.06 8.06 0 0 0 0 3.49 6.53 6.53 0 0 0 .59 1.26c1.07 2.3 4.94 3.19 6.63 1.47a6.39 6.39 0 0 0 1.7-3.43c.11-.57.22-1.22 1.22-1a13.42 13.42 0 0 0-.72 2.61c-.06.31-.25.66-.12.69 1.32.28 1.92-.87 2.31-2 .28-.79.1-.86-.28-2-.16-.52-1-.33-.86-.75zm24.08 15.55c-.82-.65-2.2-1.43-2.62-2.29a10.4 10.4 0 0 0-.72-.76.19.19 0 0 0-.23 0c-1.82 1.52.77 5.63 3.26 6.25.71.18.78-.08.87-.9-.91-1.21-.33-2.1-.56-2.27z" transform="translate(-.98 -.52)"/><path class="fbfb8e48-04e6-4bc9-8b8a-3a404bb440fb" d="M161 122.14c-.06-.26-.09-.43-.15-.65-.19-.57-.41-1.17-.65-1.74a11.55 11.55 0 0 0-3.3-4.75 14.68 14.68 0 0 0-8.25-3.4c-3.88-.28-6.45.7-7.68 4.33a6.32 6.32 0 0 0 0 4.63c1 1.93 2.1 2.66 3.41 2.16v2c-.09 1.91 1.08 3.33 2.54 4.65a21.15 21.15 0 0 0 5 2.84 3.83 3.83 0 0 0 2.53.53c3.21-.93 5.9-2.31 6.67-5.69a10 10 0 0 0-.06-4.94zM152.88 110.7l.85.52.72.81.8.39.28-.32v-1.32l-.28-.64-.76-.69-1.12-.46h-1.17l-1 .31-1.57 1 1.85.19 1.39.21z" transform="translate(-.98 -.52)"/><g id="e61baa76-d721-4309-85eb-9150f69f9bbd" data-name="f47c3d87-4328-4429-8aa7-7190409c7e37"><path class="b0b9960e-fe9d-4012-a29a-80cd0d76e8d7" d="m131.16 113.69-.87-.6-.81-.93-.47-.73-.3-.68-.27-1.29 2.37 2.38.35.33zm.3.34.11-1.78 3.32.51 2 .77 1.16.43 1 .35.93.45-.62 1.06-2.53-.13-2.19-.34-3.18-1.35z" transform="translate(-.98 -.52)"/><path class="b0b9960e-fe9d-4012-a29a-80cd0d76e8d7" d="m130.25 115.84 1.34-1.22 1.38.73 6.46 1.07V119l-.7.6-.44.5v2.68l1.85 2.7-15.09-2.45.34-1 .4-1.1.4-1 .47-1.1.57-1 .74-.69 1.1-.81.41-.1 5.94.94.43-.2-5.78-.91zm.24-1.7h.3v.31l-1.3 1.18-.51-.08.1-.52 1.4-.94z" transform="translate(-.98 -.52)"/><path class="b0b9960e-fe9d-4012-a29a-80cd0d76e8d7" d="m127.92 115.83.75.07-.06.29-1.08.75-.49.67-.4.52-.39.78-.4.83-.26.61-.27.65-.3.91-.29.65-.2.42-.5-.08.2-.44.3-.58.37-.74.28-.82.36-.69.33-.74.34-.73.41-.77.35-.78.62-.45.33-.33zm-17.58-1.54v.79l.54 1.6 1.42-1.19zm10.25 3.89 1.26-2.29 1.21-2.43 1.22-2.25 1.16-1.72 2-1.9-.7-.1-1 .15-1.11.44-1.54 1-.89 1.11.14 1.85-.25.27-.51-1.26-.22.22-.74 1.14-1.33.9-1.16-.18-1.76 1.68-1.32.59-1.15.13-1.68 1.58.84.15 2.16.6 2.76 1.08 1.55.63 1.09-1.39z" transform="translate(-.98 -.52)"/><path class="b0b9960e-fe9d-4012-a29a-80cd0d76e8d7" d="m129.77 113.18-.62-.61-.79-1.07-.62-1.32v-2l-.6.32-.59.5-.71 1-.94 1.57-1 1.9-1.16 2.41-1.62 3.54-1.86 2.72 3.95.67.29-.43.7-1.25 1.13-2.69 1.11-2.12 1-.8L125 114l.54-.06 1.89 1.11.76.29 1.86-1.5-.29-.67z" transform="translate(-.98 -.52)"/></g><path d="m128.44 101.61-.65-.87-.89-.32-.71.25-1.08.27v.67l.48-.4a.13.13 0 0 1 .09 0l.49-.12h.11l1.28.2a.33.33 0 0 1 .23.15l.36.59a.28.28 0 0 1 0 .15v.6a.1.1 0 0 1 0 .09l-.25.56a.23.23 0 0 1-.07.1l-1.66 1.07-.17-.5a.23.23 0 0 1 .08-.26l1-.69.08-.17-.19-.47a.31.31 0 0 0-.15-.17l-.55-.32a.3.3 0 0 0-.16 0h-.53l-.44.06.25 1.26.82 1.57.49-.19 1.08-.61 1-.75v-1.21zm-2.79 1.82-.37-1a.15.15 0 0 1 .1-.21h.81a.22.22 0 0 1 .16.09l.25.34a.16.16 0 0 1 0 .22l-.62.62a.19.19 0 0 1-.26 0 .23.23 0 0 1-.07-.1z" transform="translate(-.98 -.52)" style="fill:#322010"/><path class="b49f3787-d447-47f5-ad62-03ce18dbd9b2" d="M125.59 101.92h.49a.23.23 0 0 1 .16 0l.55.31a.35.35 0 0 1 .15.17l.17.49-.08.17-1 .69a.21.21 0 0 0-.07.26l.16.51 1.68-1.09a.16.16 0 0 0 .07-.09l.25-.58a.09.09 0 0 0 0-.09v-.59a.28.28 0 0 0 0-.15l-.36-.59a.33.33 0 0 0-.23-.15l-1.28-.2h-.11l-.49.11a.19.19 0 0 0-.09.05l-.48.4v.45l.44-.06z" transform="translate(-.98 -.52)"/><path class="b49f3787-d447-47f5-ad62-03ce18dbd9b2" d="m126.6 102.69-.25-.34a.21.21 0 0 0-.17-.09h-.76a.15.15 0 0 0-.15.18l.37 1a.22.22 0 0 0 .24.14h.07l.64-.62a.18.18 0 0 0 .01-.27z" transform="translate(-.98 -.52)"/><path d="m152.05 100.1-1.14-1.53h1.14l-1.14-.84-1-1h1l-.48-.58-8.2-1.35-1-.33-1.14-.56-1.06-.37-.62.34-.46.65-.38.79-.06 1.38.36.13.06-.54.32.5.51.46 1.24.22.72.11.76-.12 1.77-.37 1.23-.07 2.66.46.57.29.83.9.56.91v2.86l-.21 1.1-.42 1.38-.54 1.39-.54-.08v-1.17l-.19-.47-.33-1-.41-.32-.35 1-.52.7-1 .74-.68.48h-.65l-.79-.69-1.35-.74-3.83-.67v-1l-.32-.85c.09-.14.18-.28.29-.42a3.38 3.38 0 0 1 .31-.41l.13-.62-.41-.73v-2.93l-.67-.84-.51-.93-.11-1.25-.54.48-.25-.14.06-1.4.46-.63 1.16-.46v-.33l-.41-.63-.62-.66-.89-1.42-1-2.3-.37-.06-3.11 2.65.48.15 1-.69.54-.1.76.24.32.44.55 1.25v3.12l.92 1.19-.19.51-1.28 2.14-.34 1.92.08.4-.3.42-1 .7-.27.28h-.35l-.25-.14-1-1.1-1.16-1.15v-1.27l.14-.39.15-.55.26-.64.16-.56.31-.56.43-.53.53-.2h.82l.27-.37-.57-1-.54-.09-.54.23-.48.41-.53.46-.44.63-.27.69-.26 1.19-.07 1v.26l-.19.3-.57.37-.78.56-.58.56-.62 1-.41.75.63-.1.68-.23.87.17.56.12.67.93v.39l-.14.75-.14.46-.73.66-1.36.74.38.67.65 1.15 1 1.44 1.57 1.65 1.64 1.42 1 .3 1.92.54 2.25.56 2 .7 1.71.52.11-.37.58-.79.77-.66 1-.8 1.19-.59.83-.16 1.08-.19.68-.06h1l-.27-.58-.68-.85h.51l1.09 1.14.27.44.27.09v-.45l-.19-.32-1.23-1.32.89-.68 1-.74.78-1 .39-1.64.28-2 1.07-.37.83-.18.22-.36zm-19.88 7.68a4.7 4.7 0 0 0-3.43-3.33V104s3.22.91 3.92 3.54z" transform="translate(-.98 -.52)" style="fill:#ecba89"/><path id="b868f553-5c1c-479d-8315-dda246c1fc7f" data-name="bf3f653e-10b9-4af2-862b-f655a3c08bee" d="m135.6 80.27-.46-1.53v-.81l1.47.87 1.86 1.2 2.42 1.16 2.27.78 2 .64 1.49.46 2.37.69 2.25 1 1.74.85 1.52.93 1.34.92 1.39 1.11 1.25 1.32 1.14 1.56 1.09 1.79.62 1.51.74 2.12.25 1.77v1.64l-.25 2-.57 1.65-.68 1.2-1 1.42-.76.94-1.72 1.15-1.06.78-.84-.09-1-.72-1.17-.25-1.25-.14-1.18.41-1.43.88-.77-.6.28-.62.9-1.07.87-1.5.32-1.21.17-1.52.35-.33 1.31-.75 1-.81.79-1.31.86-2v-2.35l-.34-1.64-1.43-1.34-1.85-.94-3.53-.74-2.88-.63-2.8-1.82-3-2.21-2.24-2.65-1.52-2.44z" transform="translate(-.98 -.52)" style="fill:#7c4326"/><g id="f63c38db-dfd4-49db-a8af-e514ecb3846c" data-name="b1c6516b-595b-42a8-a909-411ffbf42777"><path class="a539318d-d913-4db3-baf7-17abae79e7cd" d="m133.83 93.22-.19-.61v-1.5l-.11-.78-.47-.86-.37-.2-.63-.1-.55.17-.49.26-.57.62-.83 1.15-.16.91.16.55.86-.73.52-.1.75.39.39.6.28 1.13.32 1.19.71 1.63.33-.64.46-.81v-.95l-.23-.45-.14-.87zm14.29 6.39-.33-.69-.55-.57-.54-.41-1.12-.23-1.34-.14-1 .1-1 .16-1.11.16-.94.21-1.19-.12-.46-.5-.57-.08v.56l-.1.47-.13.82.23.69.42.33.77.31.81.15.9-.1 1-.16 1.37.13 1.33.21 1.39.44.6.47.65.8.4.63.34.87.23 1.07.3-.36v-3.07l-.06-1.37-.23-.78z" transform="translate(-.98 -.52)"/><path class="a539318d-d913-4db3-baf7-17abae79e7cd" d="m155.47 94.28-.5-1-.64-.83-1-.66-1-.31-1.1-.27-1.59-.38-2-.43-1.75-.4-1.14-.59-1.18-.67-1.45-.94-1.21-1-1.21-1.07-1-1.22s-1.36-1.52-1.36-1.56-1.45-2.06-1.45-2.06l-1.56-1.7-.88-.94-.15 1.41-.19 1.31-.36 1-.62 1.23-.71 1.35-.82 1.64-.2.9-.14 1 .33.1.41-.19 1.12-.81 1.44-.89.38-1.22.22-.2.08 1.35.53 1.3.71 1.66.93 1.27.91 1.07v.46l-.2.42-.47.12-.49.4v.41l.31.22v1.07l.27 1.18.41.41.13-.16.06-1.71.29-.35.77-.56.59-.41.64.07.31.32.83.34.77.25.62.4 1.1.4 7.74 1.08.7 1.07-.41.3 1.45 1.44-.87.35.87 1.22.79 1.24.46-.37.68-1 .61-1.13.35-1.23.18-1.31v-1.33z" transform="translate(-.98 -.52)"/></g><g id="b6a6c148-bcdd-4031-970d-3a0f936ab889" data-name="e99f70aa-9f01-487c-ab75-c1abbb6566c1"><path d="M130.43 96.45v.06l-.41.8v.15l.56-1.1.31-.39z" transform="translate(-.98 -.52)" style="fill:none"/><path class="a539318d-d913-4db3-baf7-17abae79e7cd" d="m133.31 98.08-.3-.94-.38-.9-.29-.48-.62-.1h-.15l-.63.21a.54.54 0 0 0-.16.1l-.31.4-.55 1.1-.16.45V98l-.14 1.33v.08l1.43 1.6.31.11h.34l.21-.15.32-.27.78-.57.36-.45-.07-.31.11-.8zm-1 2.24-.62.29h-.35l-.76-.79-.52-.52a.58.58 0 0 1-.17-.47l.08-.54h.33a.73.73 0 0 1 .31.14l.93.74.77.7zm.62-2.14v.07l-.22.32a.2.2 0 0 1-.18.09h-.45a.29.29 0 0 1-.27-.23v-.28a.18.18 0 0 1 .06-.13l.52-.53a.17.17 0 0 1 .18 0h.27a.28.28 0 0 1 .24.26zm12.67 4-.47-.35-1-.21-2-.23-.75.16-.78.76v2l.13.25.55.34 1.5 1 .54.33h.53l.21-.15.24-.17.41-.3.52-.38v-.25l.23-.63.1-.37.26-.64v-.64zm-1.84 4h-.27l-1-.94-.08-.06-.92-.59-.49-.32a.51.51 0 0 1-.25-.43v-.21a.38.38 0 0 1 .47-.37.57.57 0 0 1 .25.11l.83.63 1.13 1 .45.4.11.12.21.35zm1.79-2.92-.48.4H145l-.36.17a.48.48 0 0 1-.27 0l-.28-.05-.6-.6.14-.31.37-.47a.32.32 0 0 1 .23-.13l.32-.07h.35a.57.57 0 0 1 .36.2l.29.36z" transform="translate(-.98 -.52)"/><path d="m131.52 99.26-.91-.73a.63.63 0 0 0-.3-.14h-.34l-.08.54a.56.56 0 0 0 .17.46l.52.53.76.79h.35l.62-.29V100zm12.4 6-.45-.4-1.13-1-.82-.63a.85.85 0 0 0-.26-.11.38.38 0 0 0-.47.37v.2a.5.5 0 0 0 .25.42l.5.33.92.59.07.06 1 .94h.27l.51-.4-.22-.34a.34.34 0 0 0-.12-.12z" transform="translate(-.98 -.52)" style="fill:#794a2b"/><path class="b0b9960e-fe9d-4012-a29a-80cd0d76e8d7" d="m129.92 97.51.05-.15.41-.8v-.07l.32-.41.08-.11.85-.26.35-.1a.35.35 0 0 0 .24-.23l.08-.22-.38-.6-.38-.06H131.12a.35.35 0 0 0-.2.1l-.6.61-.06.08-.46.76-.32.83V97l-.24 1.52.41-.41a.26.26 0 0 0 .07-.11l.17-.48z" transform="translate(-.98 -.52)"/><path class="b0b9960e-fe9d-4012-a29a-80cd0d76e8d7" d="m129.92 97.51-.17.48zm1-1.6-.09.1a.54.54 0 0 1 .16-.1l.63-.21h.15zm1.9 1.54h-.27a.19.19 0 0 0-.18.06l-.5.52a.16.16 0 0 0-.06.13v.26a.29.29 0 0 0 .24.26h.45a.2.2 0 0 0 .18-.09l.22-.33a.16.16 0 0 0 0-.06l.09-.42a.28.28 0 0 0-.19-.3zm5.73 3.62a.38.38 0 0 0-.36.13l-.41.48a.35.35 0 0 0-.09.26v1.2a.52.52 0 0 0 .44.51l1.77.27a.37.37 0 0 0 .45-.38v-1.82l-.13-.39zm6.38 1.26h-.35l-.32.06a.33.33 0 0 0-.23.14l-.37.46-.14.31.6.61h.28a.48.48 0 0 0 .27 0l.36-.18h.07l.48-.39v-.39l-.29-.35a.59.59 0 0 0-.36-.18zm-5.75-11.59.55-1.59a.2.2 0 0 0 0-.11v-1.43l-.41-.06-1 1.45a.28.28 0 0 0-.06.18v2.67l.46.2zm-1.68-2.51a.46.46 0 0 0-.57-.19.32.32 0 0 0-.14.14l-.25.43a.34.34 0 0 0-.05.17v.48L137 91l.25-.28a.31.31 0 0 0 .09-.18l.21-2a.47.47 0 0 0-.08-.3zm2.09 3.14V92l.41-.15a.22.22 0 0 0 .13-.12l.22-.49.21-1.18-.93 1.21a.23.23 0 0 0-.09.1z" transform="translate(-.98 -.52)"/></g><path id="ef494676-e262-44fe-84d7-084ae597d184" data-name="a86badc9-a22d-4698-9bee-c785c9cc9f29" d="m133.67 104.26-1-.44a.69.69 0 0 1-.22-.16l-.41-.39a.64.64 0 0 1-.2-.32l-.09-.28a1.1 1.1 0 0 1 0-.18v-.24a.49.49 0 0 1 .19-.41h.05a.65.65 0 0 1 .58-.08l.31.1a1 1 0 0 1 .21.1l.91.64.15.08.87.36a.63.63 0 0 1 .28.2l.31.32a.71.71 0 0 1 .2.48v.11a.54.54 0 0 1-.65.52h-.06l-1.3-.3h-.14z" transform="translate(-.98 -.52)" style="fill:#d58d6c"/></g></svg>