<svg id="e0858480-220d-48a8-9669-98f1a49ee487" data-name="bae51f9f-9ab5-4723-91c1-5de94dc4635e" xmlns="http://www.w3.org/2000/svg" xmlns:xlink="http://www.w3.org/1999/xlink" viewBox="0 0 87.6 88.6"><defs><style>.a24e1ac9-fb9e-47af-b7d1-c72705689f62,.a767aefc-aa65-4876-8a9e-9f2f478a8f10{fill:#211c1d;}.b201c367-0646-4dd0-b351-5ba05c2c1890{opacity:0.1;}.ac96df14-bb5d-44c7-96b1-d12e1d806c80{fill:#808094;}.aaed9df8-5ea2-4196-a2c8-597e2b73399e{fill:#6d6e6f;}.b51c0457-216c-4c02-bb92-02630aff8ec8{fill:url(#aa0dc0fd-a277-453e-8b8c-68054090c31c);}.a24e1ac9-fb9e-47af-b7d1-c72705689f62{opacity:0.3;}.a24e1ac9-fb9e-47af-b7d1-c72705689f62,.a613c471-080d-43e9-94f8-07828796884f,.a720b2ee-79cf-49b3-9c3a-301aefe260f4{isolation:isolate;}.a613c471-080d-43e9-94f8-07828796884f{opacity:0.15;fill:url(#af0a62bd-de1b-45cb-995c-fb2e32b88d42);}.a720b2ee-79cf-49b3-9c3a-301aefe260f4{opacity:0.4;fill:url(#b6d3690c-10ea-4767-ba14-fc1f1b0ecbf1);}.a9f44c62-7f0e-4d3a-a85a-bd0667787be6{fill:#94532c;}</style><linearGradient id="aa0dc0fd-a277-453e-8b8c-68054090c31c" x1="-747.89" y1="2455.81" x2="-768.82" y2="2434.88" gradientTransform="translate(802.18 -2401.52)" gradientUnits="userSpaceOnUse"><stop offset="0" stop-color="#a4a5a9"/><stop offset="1" stop-color="#e6e6e7"/></linearGradient><linearGradient id="af0a62bd-de1b-45cb-995c-fb2e32b88d42" x1="-768.76" y1="2455.8" x2="-747.88" y2="2434.93" gradientTransform="translate(802.18 -2401.52)" gradientUnits="userSpaceOnUse"><stop offset="0" stop-color="#211c1d" stop-opacity="0"/><stop offset="0.04" stop-color="#211c1d" stop-opacity="0.09"/><stop offset="0.5" stop-color="#211c1d"/><stop offset="0.95" stop-color="#211c1d" stop-opacity="0.09"/><stop offset="1" stop-color="#211c1d" stop-opacity="0"/></linearGradient><linearGradient id="b6d3690c-10ea-4767-ba14-fc1f1b0ecbf1" x1="-5886.68" y1="-3866.42" x2="-5865.8" y2="-3887.31" gradientTransform="translate(-5832.48 -3833.03) rotate(180)" gradientUnits="userSpaceOnUse"><stop offset="0" stop-color="#fff" stop-opacity="0"/><stop offset="0.5" stop-color="#fff"/><stop offset="1" stop-color="#fff" stop-opacity="0"/></linearGradient></defs><circle class="a767aefc-aa65-4876-8a9e-9f2f478a8f10" cx="43.8" cy="43.8" r="43.8"/><g class="b201c367-0646-4dd0-b351-5ba05c2c1890"><path class="ac96df14-bb5d-44c7-96b1-d12e1d806c80" d="M84.4,43.8l-8.6-8.9v4.3H66v9.1h9.8v4.3ZM72.5,15.1l-12.4-.2L63.2,18l-7,7,6.4,6.4,7-7,3.1,3.1ZM43.8,3.2l-8.9,8.6h4.3v9.8h9.1V11.8h4.3ZM15.1,15.1l-.2,12.4L18,24.4l7,7L31.4,25l-7-7,3.1-3.1ZM3.2,43.8l8.6,8.9V48.4h9.8V39.3H11.8V35ZM15.1,72.5l12.4.2-3.1-3.1,7-7L25,56.2l-7,7-3.1-3.1ZM43.8,84.4l8.9-8.6H48.4V66H39.3v9.8H35ZM72.5,72.5l.2-12.4-3.1,3.1-7-7-6.4,6.4,7,7-3.1,3.1Z" transform="translate(0 0)"/></g><path class="aaed9df8-5ea2-4196-a2c8-597e2b73399e" d="M87.6,44.3A43.81,43.81,0,0,1,0,44.3v.5a43.8,43.8,0,0,0,87.6,0Z" transform="translate(0 0)"/><circle class="b51c0457-216c-4c02-bb92-02630aff8ec8" cx="43.8" cy="43.8" r="14.8"/><circle class="a24e1ac9-fb9e-47af-b7d1-c72705689f62" cx="43.8" cy="43.8" r="11.8"/><path class="a613c471-080d-43e9-94f8-07828796884f" d="M43.8,29.1A14.75,14.75,0,1,0,58.6,43.9,14.75,14.75,0,0,0,43.8,29.1Zm-.2,28.7A14.15,14.15,0,1,1,57.8,43.7,14.16,14.16,0,0,1,43.6,57.8Z" transform="translate(0 0)"/><path class="a720b2ee-79cf-49b3-9c3a-301aefe260f4" d="M43.8,58.6A14.75,14.75,0,1,0,29,43.9,14.75,14.75,0,0,0,43.8,58.6ZM44,29.9a14.1,14.1,0,0,1,0,28.2h0A14,14,0,0,1,29.9,44.2h0V44h0A14.08,14.08,0,0,1,44,29.9Z" transform="translate(0 0)"/><circle class="a9f44c62-7f0e-4d3a-a85a-bd0667787be6" cx="43.6" cy="32.8" r="20.5"/></svg>