<svg id="f2cfb92c-b7ba-445d-be32-47077dfe1af3" data-name="bae51f9f-9ab5-4723-91c1-5de94dc4635e" xmlns="http://www.w3.org/2000/svg" xmlns:xlink="http://www.w3.org/1999/xlink" viewBox="0 0 87.6 88.6"><defs><style>.b53b2f44-b15f-42f2-aa9c-61c30a81d948,.ed9ad0a3-cb90-44b8-80ad-47cf93289437{fill:#211c1d;}.a6fc90b6-00b8-488e-b00b-73b5d85bf353{opacity:0.1;}.b792910b-a5ab-4868-9745-863422b7dddf{fill:#808094;}.a83a1650-e844-4af8-ab4c-9135d44a2d02{fill:#6d6e6f;}.a37b6d0d-c560-4b6e-acd3-bac522a22c83{fill:url(#aed348b0-c2cd-4799-aa06-6201cb072752);}.ed9ad0a3-cb90-44b8-80ad-47cf93289437{opacity:0.3;}.e2587020-70d0-451c-93cf-6f8c7e638f78,.ecaba6f3-87a9-446b-9b4f-34845fcd6363,.ed9ad0a3-cb90-44b8-80ad-47cf93289437{isolation:isolate;}.ecaba6f3-87a9-446b-9b4f-34845fcd6363{opacity:0.15;fill:url(#a79597a7-b602-4786-a33f-3ee4673b2724);}.e2587020-70d0-451c-93cf-6f8c7e638f78{opacity:0.4;fill:url(#b9a3b25d-e598-49c0-9023-02717209dcb3);}.f0a156c9-3c9f-4e8b-815b-53ed72b76c18{fill:#ebba87;}</style><linearGradient id="aed348b0-c2cd-4799-aa06-6201cb072752" x1="-747.89" y1="2455.81" x2="-768.82" y2="2434.88" gradientTransform="translate(802.18 -2401.52)" gradientUnits="userSpaceOnUse"><stop offset="0" stop-color="#a4a5a9"/><stop offset="1" stop-color="#e6e6e7"/></linearGradient><linearGradient id="a79597a7-b602-4786-a33f-3ee4673b2724" x1="-768.76" y1="2455.8" x2="-747.88" y2="2434.93" gradientTransform="translate(802.18 -2401.52)" gradientUnits="userSpaceOnUse"><stop offset="0" stop-color="#211c1d" stop-opacity="0"/><stop offset="0.04" stop-color="#211c1d" stop-opacity="0.09"/><stop offset="0.5" stop-color="#211c1d"/><stop offset="0.95" stop-color="#211c1d" stop-opacity="0.09"/><stop offset="1" stop-color="#211c1d" stop-opacity="0"/></linearGradient><linearGradient id="b9a3b25d-e598-49c0-9023-02717209dcb3" x1="-5886.68" y1="-3866.42" x2="-5865.8" y2="-3887.31" gradientTransform="translate(-5832.48 -3833.03) rotate(180)" gradientUnits="userSpaceOnUse"><stop offset="0" stop-color="#fff" stop-opacity="0"/><stop offset="0.5" stop-color="#fff"/><stop offset="1" stop-color="#fff" stop-opacity="0"/></linearGradient></defs><circle class="b53b2f44-b15f-42f2-aa9c-61c30a81d948" cx="43.8" cy="43.8" r="43.8"/><g class="a6fc90b6-00b8-488e-b00b-73b5d85bf353"><path class="b792910b-a5ab-4868-9745-863422b7dddf" d="M84.4,43.8l-8.6-8.9v4.3H66v9.1h9.8v4.3ZM72.5,15.1l-12.4-.2L63.2,18l-7,7,6.4,6.4,7-7,3.1,3.1ZM43.8,3.2l-8.9,8.6h4.3v9.8h9.1V11.8h4.3ZM15.1,15.1l-.2,12.4L18,24.4l7,7L31.4,25l-7-7,3.1-3.1ZM3.2,43.8l8.6,8.9V48.4h9.8V39.3H11.8V35ZM15.1,72.5l12.4.2-3.1-3.1,7-7L25,56.2l-7,7-3.1-3.1ZM43.8,84.4l8.9-8.6H48.4V66H39.3v9.8H35ZM72.5,72.5l.2-12.4-3.1,3.1-7-7-6.4,6.4,7,7-3.1,3.1Z" transform="translate(0 0)"/></g><path class="a83a1650-e844-4af8-ab4c-9135d44a2d02" d="M87.6,44.3A43.81,43.81,0,0,1,0,44.3v.5a43.8,43.8,0,0,0,87.6,0Z" transform="translate(0 0)"/><circle class="a37b6d0d-c560-4b6e-acd3-bac522a22c83" cx="43.8" cy="43.8" r="14.8"/><circle class="ed9ad0a3-cb90-44b8-80ad-47cf93289437" cx="43.8" cy="43.8" r="11.8"/><path class="ecaba6f3-87a9-446b-9b4f-34845fcd6363" d="M43.8,29.1A14.75,14.75,0,1,0,58.6,43.9,14.75,14.75,0,0,0,43.8,29.1Zm-.2,28.7A14.15,14.15,0,1,1,57.8,43.7,14.16,14.16,0,0,1,43.6,57.8Z" transform="translate(0 0)"/><path class="e2587020-70d0-451c-93cf-6f8c7e638f78" d="M43.8,58.6A14.75,14.75,0,1,0,29,43.9,14.75,14.75,0,0,0,43.8,58.6ZM44,29.9a14.1,14.1,0,0,1,0,28.2h0A14,14,0,0,1,29.9,44.2h0V44h0A14.08,14.08,0,0,1,44,29.9Z" transform="translate(0 0)"/><circle class="f0a156c9-3c9f-4e8b-815b-53ed72b76c18" cx="43.6" cy="32.8" r="20.5"/></svg>