<svg xmlns="http://www.w3.org/2000/svg" xmlns:xlink="http://www.w3.org/1999/xlink" viewBox="0 0 470.58 67.66"><defs><style>.a2f3c41d-dc91-4371-b13c-68041de52ee2{stroke:#9def48;stroke-miterlimit:10;fill:url(#ec8b0669-b67d-4c7f-9de0-0256e361fe3f);}.f6babc9b-7cb3-414d-a355-2b65f6546491{fill:#9def48;}.a7065d5f-54a9-4912-b22b-b2dee41dd4ab{fill:#0068a5;}.b30d46a6-f6af-4e33-8f90-ec9d18b5ac90{fill:#382718;}.fcf7327e-2956-43d0-9d94-f141f7743c6e{fill:#efb987;}.e0de1d60-57c9-46ef-b514-34d883b13178{fill:#fcfcfc;}.a28ab9ff-f3dc-4e71-a811-8580d931ec01{fill:#322010;}.e881a437-e0e3-44ed-a5af-c3d5024a9ffd{fill:#cf8868;}.a331edc7-e115-4af1-ac06-1ad2b79fa7a6{fill:#ecba89;}.b4fd7d75-5888-4a4c-86f4-43c8ae4bd476{fill:#7c4326;}.b535d509-a1f5-4bbf-abea-0c6d18018c9b{fill:#5a3018;}.a16bd25c-198b-4581-8112-8070ca7b6be6{fill:none;}.a4e6ca36-9515-4320-83c5-632a1387fe68{fill:#794a2b;}.f9a162d0-1459-4493-8be3-9dbce737ce6d{fill:#d58d6c;}</style><linearGradient id="ec8b0669-b67d-4c7f-9de0-0256e361fe3f" x1="0.5" y1="33.83" x2="470.08" y2="33.83" gradientUnits="userSpaceOnUse"><stop offset="0" stop-color="#032c02"/><stop offset="1" stop-color="#207a09"/></linearGradient></defs><g id="e9403b98-b3d1-4fb9-a03a-53fba6e2421c" data-name="texte"><polygon class="a2f3c41d-dc91-4371-b13c-68041de52ee2" points="0.5 6.04 102.57 6.04 108.7 0.5 150.44 0.5 158.35 6.04 461.77 6.24 470.08 16.13 470.08 59.84 50.94 59.84 42.83 67.16 8.02 67.16 0.5 59.84 0.5 6.04"/><path class="f6babc9b-7cb3-414d-a355-2b65f6546491" d="M70,41.11,66,45.18v-21H52.65V20.07H83.31v4.07H70Z"/><path class="f6babc9b-7cb3-414d-a355-2b65f6546491" d="M108.62,34.34H91.7a17.66,17.66,0,0,0,2.2,6.17H114l2.34,4.07H91.72a17.62,17.62,0,0,1-4.14-10.24H83.74V30.29h3.84a17.53,17.53,0,0,1,4.14-10.22h24.66L114,24.14H93.9a17.49,17.49,0,0,0-2.2,6.15h16.92Z"/><path class="f6babc9b-7cb3-414d-a355-2b65f6546491" d="M145.75,37.28h4.38a17.11,17.11,0,0,1-3.67,7.3H122.31a18.18,18.18,0,0,1-4.22-12.26,18.17,18.17,0,0,1,4.22-12.25h24.15a17.11,17.11,0,0,1,3.67,7.3h-4.38a17.47,17.47,0,0,0-1.47-3.23H124.49a16.32,16.32,0,0,0-2.34,8.18,16.38,16.38,0,0,0,2.34,8.19h19.79A18.09,18.09,0,0,0,145.75,37.28Z"/><path class="f6babc9b-7cb3-414d-a355-2b65f6546491" d="M157.75,34.34A17.49,17.49,0,0,0,160,40.51h2.7v4.07h-4.89a18.18,18.18,0,0,1-4.22-12.26,18.13,18.13,0,0,1,4.22-12.25h4.89v4.07H160a17.33,17.33,0,0,0-2.21,6.15h24.18a17.44,17.44,0,0,0-2.18-6.15H177V20.07h4.89a18.18,18.18,0,0,1,4.22,12.25,18.23,18.23,0,0,1-4.22,12.26H177V40.51h2.72a17.6,17.6,0,0,0,2.18-6.17Z"/><path class="f6babc9b-7cb3-414d-a355-2b65f6546491" d="M196,24.14a16.32,16.32,0,0,0-2.34,8.18A16.38,16.38,0,0,0,196,40.51h2.7v4.07h-4.88a18.18,18.18,0,0,1-4.22-12.26,18.13,18.13,0,0,1,4.22-12.25h24.15a18.18,18.18,0,0,1,4.22,12.25,18.23,18.23,0,0,1-4.22,12.26H213V40.51h2.71a16.47,16.47,0,0,0,2.33-8.19,16.41,16.41,0,0,0-2.33-8.18Z"/><path class="f6babc9b-7cb3-414d-a355-2b65f6546491" d="M253.93,44.58H229.79a18.19,18.19,0,0,1-4.23-12.26,18.14,18.14,0,0,1,4.23-12.25h24.14a18.13,18.13,0,0,1,4.22,12.25A18.18,18.18,0,0,1,253.93,44.58Zm-2.17-4.07a16.47,16.47,0,0,0,2.33-8.19,16.41,16.41,0,0,0-2.33-8.18H232a16.32,16.32,0,0,0-2.34,8.18A16.38,16.38,0,0,0,232,40.51Z"/><path class="f6babc9b-7cb3-414d-a355-2b65f6546491" d="M292.32,30.29l1.84,2a18.19,18.19,0,0,1-4.22,12.26H265.79a17.11,17.11,0,0,1-3.67-7.3h4.37A19.83,19.83,0,0,0,268,40.51h19.79A17.3,17.3,0,0,0,290,34.34H263.42l-1.85-2a18.22,18.22,0,0,1,4.22-12.25h24.15a17.13,17.13,0,0,1,3.68,7.3h-4.38a17.47,17.47,0,0,0-1.47-3.23H268a17.3,17.3,0,0,0-2.2,6.15Z"/></g><g id="bbf6dee7-de5a-4179-9ab1-ae741ddffa7c" data-name="techno"><g id="b1eed570-9481-4f6f-9678-32b39373d844" data-name="ab5bf380-5910-415c-ab07-a72d2e0e70eb"><path class="a7065d5f-54a9-4912-b22b-b2dee41dd4ab" d="M4,25A2.56,2.56,0,0,1,6.3,24c1.14,0,2.29,0,3.29,0l.46,5.92C8.11,28.41,5.6,27.6,4,25.45Zm36.64,4.9c-1.17.63-2.08,1.94-3.66,1.19a2.12,2.12,0,0,1-.87-.73c-.37-.59-.59-1.27-.93-1.88-.52-.95-1.23-1.23-2-.85s-1,1.13-.53,2.16l.22.49c-1.58.05-2.47-.34-6.45-2.91V28.6l-1.25-.23c.52,2.74-.82,5.06-1.52,7.53-.64,2.24-.92,4.58-1.41,6.87a1.28,1.28,0,0,1-.64.8,11.46,11.46,0,0,1-5.46.81,3.86,3.86,0,0,1-1.3-.4c-1.36-.63-1.69-1.26-1.08-2.6a2.34,2.34,0,0,0-.67-3.16A19.56,19.56,0,0,1,10.6,35c-.41-.56-.73-1.25,0-1.74s1.19.1,1.58.7A18.93,18.93,0,0,0,19,40.37a2.06,2.06,0,0,0,1.7,0A1.52,1.52,0,0,0,21.11,39a2.27,2.27,0,0,0-1-1.13,16,16,0,0,1-6.41-7.1,20.09,20.09,0,0,1-1.15-5.07c-.11-.81.06-1.8,1.39-1.74.26,0,.6-.5.8-.83.92-1.53,1.75-3.11,2.73-4.6.5-.76,1.33-.77,1.6-.08a1.76,1.76,0,0,1-.26,1.39,19.52,19.52,0,0,0-3.48,8.05c-.21,1.15.2,1.89,1.06,2.06s1.49-.39,1.74-1.55a15.79,15.79,0,0,1,5.38-9.31A14,14,0,0,1,27.36,17c1.33-.49,1.93-.06,2.27,1.32A1.26,1.26,0,0,0,31,19.43a29.67,29.67,0,0,1,3.72.69c.64.15,1.28.47,1.06,1.28s-.9.78-1.55.59a17.66,17.66,0,0,0-7.61-.6c-.31.05-.62.1-.93.17a1.3,1.3,0,0,0-1.16,1.6,1.4,1.4,0,0,0,1.72,1.15,17.75,17.75,0,0,1,9.5,1.22,10,10,0,0,1,4.74,3.87A5,5,0,0,1,40.68,29.94Zm-19.08-13c.77-2.62,1.44-5,2.16-7.33.28-.89.49-2.06,1.63-2.08S26.8,8.7,27.1,9.62c.44,1.42.83,2.83,1.28,4.36-2.62.1-4.69,1.29-6.78,2.94Zm17.72,7.13c1.92,0,3.94-.05,5.94,0a1.67,1.67,0,0,1,1.26.88A1.75,1.75,0,0,1,46,26.41a27.07,27.07,0,0,1-2.56,1.83Zm-27,21.64a8.35,8.35,0,0,0,6.19,1.54c-.92.74-1.61,1.32-2.32,1.86a.93.93,0,0,1-.66.18,6,6,0,0,0-4.53.28C11.47,48.22,11.87,47.05,12.34,45.69Z"/></g><path id="ad4ce3f5-a6c9-4d69-9b15-e50c1252cfdd" data-name="a88ef3cc-916d-4d3d-9b05-465db9c1e366" class="b30d46a6-f6af-4e33-8f90-ec9d18b5ac90" d="M38.45,65.45a21.68,21.68,0,0,1-4.32-2,7.61,7.61,0,0,0-4.61-1.58c-4.68-.11-9.36-.12-14-.17A3.86,3.86,0,0,1,15,61.6l.93-1.53a11.59,11.59,0,0,0-5.05-1c-1,.1-1.3-.35-1.52-1.13-.32-1.17-.68-2.33-1-3.51A5.64,5.64,0,0,1,10,49.07a4.58,4.58,0,0,1,5.32-.34,4.08,4.08,0,0,1,1,1.7A13.24,13.24,0,0,1,17,52.16l3.92-2.67c-.26-.45-.61-1-.93-1.66-1-2-.72-3.29,1-4.7a3.06,3.06,0,0,0,.74-1.35c.14-.38.07-.85.18-1.25.67-2.63,1.41-5.24,2-7.88.41-1.65.72-3.32,1.09-5.07l.82.14v-1.2c.4.28.71.5,1,.74a11.3,11.3,0,0,0,5.77,2.37c2,.35,4.11.6,6.1,1.15a9.51,9.51,0,0,1,5.54,14.51A5.12,5.12,0,0,1,43,47c-1.49,1-1.53,2.49-1.73,4,0,.25.24.62.48.83a9,9,0,0,1,2.79,4c1.47,4.36-.14,7.92-4.4,9.7a2.35,2.35,0,0,1-1.69,0Z"/><path class="fcf7327e-2956-43d0-9d94-f141f7743c6e" d="M15.93,51.25a2.08,2.08,0,0,0-1-2.59,3,3,0,0,0-1-.31,5.08,5.08,0,0,0-2.3,0c-1.88.66-2.27,2.21-3,3.8a6,6,0,0,0,0,2.54,3.92,3.92,0,0,0,.41.85c.74,1.55,3.41,1.77,4.59.33a5.67,5.67,0,0,0,1.17-2.69c.08-.43.15-.91.85-.85a11.52,11.52,0,0,0-.51,2c0,.24-.17.52-.08.52.92.06,1.33-.85,1.6-1.68.19-.6.07-.63-.19-1.45-.11-.36-.66-.13-.6-.45Zm16.6,8.6c-.57-.37-1.52-.79-1.81-1.36a3.63,3.63,0,0,0-.49-.47.12.12,0,0,0-.16,0c-1.25,1.31.53,4,2.24,4.17.49.05.54-.14.6-.75-.63-.77-.22-1.49-.38-1.59Z"/><path class="fcf7327e-2956-43d0-9d94-f141f7743c6e" d="M44.64,56.86a3.11,3.11,0,0,0-.1-.46c-.13-.39-.28-.8-.44-1.18a6.67,6.67,0,0,0-2.29-3.08,8.41,8.41,0,0,0-5.66-1.55c-2.66.23-4.43,1.22-5.28,4a4.8,4.8,0,0,0,0,3.36c.67,1.29,1.44,1.7,2.34,1.19v1.48A3.64,3.64,0,0,0,35,63.71a11.81,11.81,0,0,0,3.43,1.5,2.36,2.36,0,0,0,1.73.1c2.21-1,4-2.34,4.58-4.88a7.56,7.56,0,0,0,0-3.57Z"/><path class="fcf7327e-2956-43d0-9d94-f141f7743c6e" d="M39.05,49.48l.59.28.49.5.55.2.19-.26v-1l-.19-.43-.52-.42-.77-.21-.8.1-.68.34-1.08.93,1.27-.07Z"/><g id="a5651dfa-0e05-4a57-8ebf-dd6ce8a10374" data-name="f47c3d87-4328-4429-8aa7-7190409c7e37"><path class="e0de1d60-57c9-46ef-b514-34d883b13178" d="M24.12,54.07l-.6-.34L23,53.15l-.32-.48-.21-.46-.19-.91,1.64,1.47.24.2Zm.21.21L24.4,53h2.29l1.38.33.8.19.71.13.65.23-.43.84-1.74.18H26.55l-2.22-.6Z"/><path class="e0de1d60-57c9-46ef-b514-34d883b13178" d="M23.49,55.73l.92-1,.95.38,4.45.05V57l-.48.52L29,58V59.9l1.27,1.75-10.4-.08.23-.73.28-.84.28-.76.32-.85.4-.82.51-.59.76-.71.28-.12,4.09,0,.3-.2h-4Zm.17-1.25h.21v.22l-.9,1h-.35l.07-.4,1-.83Z"/><path class="e0de1d60-57c9-46ef-b514-34d883b13178" d="M21.88,56l.52,0,0,.22-.75.66-.33.54L21,57.8l-.27.62-.28.64-.18.48-.18.5-.21.7-.2.5-.14.33H19.2l.13-.34.21-.46.26-.58.19-.62.25-.55.23-.57.23-.58.28-.6.25-.61.43-.39.22-.28Zm-12.15.85v.58l.38,1.1,1-1Zm7.09,1.68.88-1.81.83-1.9L19.37,53l.8-1.38,1.38-1.6h-.48l-.71.22-.76.45-1.07.89-.61.91L18,53.86l-.17.22-.35-.85-.15.18-.52.92-.91.8H15.1l-1.21,1.42-.91.57-.8.23L11,58.69l.59,0,1.49.19,1.9.48,1.08.28.75-1.14Z"/><path class="e0de1d60-57c9-46ef-b514-34d883b13178" d="M23.16,53.86l-.43-.37-.54-.69-.43-.9V50.47l-.41.3-.41.42-.49.77-.65,1.25-.67,1.49-.8,1.88-1.12,2.76-1.29,2.19,2.73,0,.2-.34.49-1,.78-2.09.76-1.66.67-.69L19.88,55l.37-.11,1.3.59.53.13,1.28-1.3-.2-.45Z"/></g><path class="a28ab9ff-f3dc-4e71-a811-8580d931ec01" d="M22.24,45.6,21.8,45l-.62-.13-.48.26-.75.32V46l.33-.35.06,0,.34-.14.07,0h.89a.22.22,0,0,1,.16.09l.24.39a.21.21,0,0,1,0,.1v.43a.14.14,0,0,1,0,.07l-.17.44a.22.22,0,0,1-.05.08l-1.15,1-.11-.35a.17.17,0,0,1,.05-.2l.66-.61.05-.13-.13-.32a.22.22,0,0,0-.1-.11l-.38-.17h-.11l-.34.06h0l-.3.1v0l.17.89.56,1L21,48l.75-.57.67-.65v-.88Zm-1.92,1.63-.26-.67a.13.13,0,0,1,.08-.16h0l.53-.07a.12.12,0,0,1,.12,0l.17.21a.12.12,0,0,1,0,.16l-.43.52a.12.12,0,0,1-.18,0s0,0-.05-.06Z"/><path class="e881a437-e0e3-44ed-a5af-c3d5024a9ffd" d="M20.28,46.14l.34-.06h.11l.38.17a.24.24,0,0,1,.1.1l.12.34,0,.13-.66.61a.16.16,0,0,0-.05.19l.11.35,1.16-1a.22.22,0,0,0,.05-.08l.17-.44a.19.19,0,0,0,0-.07V46a.18.18,0,0,0,0-.1l-.24-.39a.19.19,0,0,0-.16-.09h-.89l-.07,0-.34.14-.06,0-.33.34v.29l.3-.1Z"/><path class="e881a437-e0e3-44ed-a5af-c3d5024a9ffd" d="M21,46.58l-.17-.21a.11.11,0,0,0-.12,0l-.52.08a.12.12,0,0,0-.1.14v0l.25.66a.13.13,0,0,0,.17.07l.05,0,.43-.52A.12.12,0,0,0,21,46.58Z"/><path class="a331edc7-e115-4af1-ac06-1ad2b79fa7a6" d="M38.48,41.89l-.77-1,.77-.13-.77-.48-.72-.6.72-.11-.34-.37-5.63-.08L31.07,39l-.78-.28-.73-.15-.43.32-.31.52-.26.61,0,1,.24.06,0-.41L29,41l.36.28.85,0h.49l.53-.17,1.21-.46.85-.19,1.82,0,.4.15.56.56.39.6v2.07l-.15.82-.28,1.05-.37,1.07H35.3V46l-.13-.32L35,45l-.28-.18-.25.74-.35.57-.71.65-.47.43-.44.08-.54-.41-.94-.4-2.63,0v-.74l-.22-.59.2-.34.21-.33.09-.46-.28-.49V41.36l-.46-.54-.35-.61-.1-.9-.37.41-.17-.07,0-1,.32-.5.8-.47v-.24L27.77,37l-.43-.41-.62-.93-.66-1.56H25.8l-2.14,2.26.33,0,.71-.61.38-.13.52.09.22.28.37.85v2.26l.64.77-.13.39L25.81,42l-.23,1.43.06.28-.21.34-.71.62-.18.23-.25,0-.17-.07-.72-.69-.79-.71v-.91l.1-.3.1-.42.18-.49.11-.43.21-.44.3-.43.37-.21.56-.12.19-.3-.39-.65H24l-.37.23-.33.35-.37.39-.3.51-.19.53-.18.89,0,.74,0,.19-.13.24-.39.33-.54.49-.4.48-.43.76-.28.6.43-.15.47-.24.6,0,.38,0,.47.6v.28l-.1.57-.09.34-.51.57-.94.68.26.45.45.76.69.94,1.09,1,1.13.85.66.11,1.32.18,1.55.16,1.38.28,1.17.19.08-.28.39-.64.54-.57.67-.69.82-.56.56-.21.75-.26.47-.11.67-.07-.19-.39-.47-.55.36,0,.74.71.19.28.19,0v-.33L36,49.28l-.85-.82.61-.6.68-.64.53-.83.27-1.23.19-1.52.74-.38.57-.23.15-.28ZM24.82,49.67a2.71,2.71,0,0,0-2.37-2v-.32s2.22.3,2.7,2.13Z"/><path id="b9331a51-d07e-44c7-a1b1-7bb59d86df2c" data-name="bf3f653e-10b9-4af2-862b-f655a3c08bee" class="b4fd7d75-5888-4a4c-86f4-43c8ae4bd476" d="M27.19,29.31l-.32-1.07v-.58l1,.47,1.28.69,1.66.58,1.57.32,1.4.24,1,.17,1.62.24,1.55.46,1.19.43,1,.51.91.52.95.65.86.82.78,1,.75,1.17.43,1,.5,1.45.17,1.25v1.2l-.17,1.51L45,43.63l-.47.95-.67,1.13-.52.77-1.17,1-.73.68-.58,0-.67-.41-.8,0-.86,0-.81.43-1,.8-.53-.35.19-.48L37,47.3l.6-1.18.22-.91L38,44.09l.24-.28.9-.69.69-.7.54-1,.59-1.57,0-1.7L40.66,37l-1-.81-1.27-.48L36,35.53l-2-.14-1.92-1L30,33.11l-1.55-1.68-1-1.6Z"/><g id="a7137e97-2637-4e66-8157-74dc9cb0465a" data-name="b1c6516b-595b-42a8-a909-411ffbf42777"><path class="b535d509-a1f5-4bbf-abea-0c6d18018c9b" d="M26,38.9l-.13-.42V37.4l-.07-.56-.33-.57-.25-.11h-.44l-.37.18-.35.24-.39.52-.57.92L23,38.7l.11.38.59-.62.34-.12.51.19.27.4.2.79.21.83.49,1.1.23-.5.32-.64v-.69l-.16-.3L26,38.9ZM35.79,42l-.23-.47-.38-.35-.37-.24-.76,0-.93,0-.67.18-.67.23-.76.24-.65.26-.87,0-.32-.3h-.39V42l-.07.35-.09.6.16.48.29.2.53.14.56,0,.61-.17.66-.23.95,0h.91l1,.17.41.26.45.52.27.41.23.6.16.74.21-.29V43.49l0-1L35.79,42Z"/><path class="b535d509-a1f5-4bbf-abea-0c6d18018c9b" d="M40.83,37.29l-.35-.67-.43-.53-.67-.37-.69-.11-.76-.08-1.09-.1-1.39-.09-1.19-.12-.79-.31-.81-.36-1-.52-.82-.6L30,32.78,29.28,32s-.94-.95-.94-1-1-1.34-1-1.34l-1.07-1.07L25.67,28l-.1,1-.13,1-.25.74-.43,1-.49,1-.57,1.29-.14.67-.09.77.22,0,.29-.18.77-.71,1-.8.26-.94.15-.16.05,1,.36.88.49,1.13.64.82.63.68v.33l-.14.33-.32.14-.34.34v.3l.22.13v.77l.18.83.28.25.09-.13,0-1.25.2-.28.53-.5.41-.36.44,0,.21.2.57.16.53.09.43.22.75.17,5.34,0,.47.7-.28.26,1,.89-.6.35.6.78.54.82.31-.32.47-.78.42-.89.24-.93.12-1v-1Z"/></g><g id="ab869cea-9db6-4638-b28a-98b0b615241c" data-name="e99f70aa-9f01-487c-ab75-c1abbb6566c1"><path class="a16bd25c-198b-4581-8112-8070ca7b6be6" d="M23.62,41.62l0,.05-.28.63v0l0,.11.39-.86.21-.32v0Z"/><path class="b535d509-a1f5-4bbf-abea-0c6d18018c9b" d="M25.6,42.49l-.21-.65-.26-.61-.2-.32H24.5l-.09.05-.44.22a.31.31,0,0,0-.11.09l-.21.32-.39.86-.1.35v.05l-.1,1v.06l1,1,.21,0,.23,0,.15-.13.22-.23.53-.5.25-.37-.05-.22.08-.59Zm-.7,1.74-.43.28-.24.07-.52-.49-.36-.32a.37.37,0,0,1-.12-.33l.06-.39h.23a.39.39,0,0,1,.21.06l.64.44h0l.53.42Zm.42-1.62a.09.09,0,0,1,0,0l-.15.26A.22.22,0,0,1,25,43l-.31,0a.16.16,0,0,1-.18-.14v-.2a.17.17,0,0,1,0-.1l.36-.44a.14.14,0,0,1,.13-.06h.18a.17.17,0,0,1,.17.16,0,0,0,0,1,0,0Zm8.73,1.48-.33-.21-.65,0-1.37,0-.51.2-.54.64v1.46l.09.17.38.18,1,.58.37.18.37-.1.14-.13.16-.15.29-.26.36-.34v-.17l.15-.49.07-.28.18-.49v-.46ZM32.78,47.2h-.19l-.69-.57,0,0-.64-.33-.34-.18a.32.32,0,0,1-.17-.28v-.15a.32.32,0,0,1,.32-.33h0a.35.35,0,0,1,.18.05l.56.37h0l.77.56.31.24a.3.3,0,0,1,.08.08l.15.22ZM34,44.89l-.33.34,0,0-.25.17a.37.37,0,0,1-.18.05H33l-.41-.37.1-.24.25-.38a.4.4,0,0,1,.16-.13l.22-.08h.24a.33.33,0,0,1,.25.11l.2.23Z"/><path class="a4e6ca36-9515-4320-83c5-632a1387fe68" d="M24.37,43.55l-.63-.44a.37.37,0,0,0-.21-.06H23.3l-.05.4a.35.35,0,0,0,.11.32l.36.32.52.49.24-.06.43-.29V44Zm8.53,3-.31-.23-.77-.57h0l-.56-.36a.41.41,0,0,0-.18,0h0a.32.32,0,0,0-.32.32h0v.14a.3.3,0,0,0,.17.28l.34.18.63.33.06,0,.69.57h.19l.34-.35L33,46.63l-.09-.07Z"/><path class="e0de1d60-57c9-46ef-b514-34d883b13178" d="M23.26,42.45l0-.11v0l.28-.63,0-.05.22-.33,0,0,.06-.09.58-.28.24-.12a.29.29,0,0,0,.17-.19l.05-.17L24.69,40h-.26l-.11,0-.18.07a.31.31,0,0,0-.14.09l-.41.51,0,.06-.31.61a.05.05,0,0,0,0,0l-.23.63v.07l-.16,1.13.28-.34a.41.41,0,0,0,.05-.09l.11-.37Z"/><path class="e0de1d60-57c9-46ef-b514-34d883b13178" d="M23.26,42.45l-.11.37v0Zm.66-1.27-.06.09a.31.31,0,0,1,.11-.09l.44-.22.09-.05Zm1.31.92H25a.13.13,0,0,0-.12.06l-.35.43a.17.17,0,0,0,0,.1v.19a.16.16,0,0,0,.16.16h0L25,43a.22.22,0,0,0,.13-.08l.15-.26a.09.09,0,0,0,0,0l.07-.32a.16.16,0,0,0-.13-.19Zm3.94,2a.31.31,0,0,0-.25.13l-.28.4a.31.31,0,0,0-.06.19v.87a.32.32,0,0,0,.31.33H30.1a.32.32,0,0,0,.31-.33h0V44.5l0-.15-.09-.26Zm4.39.21h-.24l-.22.08a.31.31,0,0,0-.16.12l-.25.38-.1.24.41.37h.2a.29.29,0,0,0,.18-.05l.25-.17,0,0,.33-.34v-.28l-.2-.23a.33.33,0,0,0-.25-.08Zm-4-7.78L30,35.31V34.19h-.28L29,35.35a.33.33,0,0,0,0,.14v1.94l.32.09Zm-1.15-1.64a.3.3,0,0,0-.4-.07.29.29,0,0,0-.1.12l-.17.34a.28.28,0,0,0,0,.13v.34l.4,1.23.17-.24a.35.35,0,0,0,.06-.14l.15-1.45a.25.25,0,0,0-.06-.2Zm1.43,2v.47l.28-.16a.15.15,0,0,0,.09-.1l.15-.38v0l.15-.87-.64,1A.26.26,0,0,0,29.89,36.93Z"/></g><path id="b2ca299e-fa4b-4512-a92a-46601f700efc" data-name="a86badc9-a22d-4698-9bee-c785c9cc9f29" class="f9a162d0-1459-4493-8be3-9dbce737ce6d" d="M25.85,46.94l-.67-.22a.28.28,0,0,1-.15-.08l-.28-.24a.38.38,0,0,1-.14-.21l-.06-.2a.5.5,0,0,1,0-.12v-.18a.48.48,0,0,1,.13-.32l0,0a.45.45,0,0,1,.4-.12l.21,0a.34.34,0,0,1,.14,0l.64.36.1,0,.6.16A.39.39,0,0,1,27,46l.21.2a.45.45,0,0,1,.14.32v.08a.45.45,0,0,1-.45.45h0L26,47l-.1,0Z"/></g></svg>