<svg enable-background="new 0 0 664.9 498.9" viewBox="0 0 664.9 498.9" xmlns="http://www.w3.org/2000/svg"><path d="m658.9 498.9h-652.9c-3.3 0-6-2.7-6-6v-486.9c0-3.3 2.7-6 6-6h652.9c3.3 0 6 2.7 6 6v486.9c0 3.3-2.7 6-6 6z" fill="#cfcfce"/><path d="m19 11.6h625.7v2.3h-625.7z" fill="#ababab"/><path d="m124 11.6h16.8v2.3h-16.8z" fill="#666766"/><path d="m200.7 11.6h16.8v2.3h-16.8z" fill="#666766"/><path d="m175.3 11.6h16.8v2.3h-16.8z" fill="#666766"/><path d="m149.5 11.6h16.8v2.3h-16.8z" fill="#666766"/><path d="m98.2 11.6h16.8v2.3h-16.8z" fill="#666766"/><path d="m19 16.2h625.7v2.3h-625.7z" fill="#ababab"/><path d="m124 16.2h16.8v2.3h-16.8z" fill="#666766"/><path d="m200.7 16.2h16.8v2.3h-16.8z" fill="#666766"/><path d="m175.3 16.2h16.8v2.3h-16.8z" fill="#666766"/><path d="m149.5 16.2h16.8v2.3h-16.8z" fill="#666766"/><path d="m98.2 16.2h16.8v2.3h-16.8z" fill="#666766"/><path d="m19 20.9h625.7v2.3h-625.7z" fill="#ababab"/><path d="m124 20.9h16.8v2.3h-16.8z" fill="#666766"/><path d="m200.7 20.9h16.8v2.3h-16.8z" fill="#666766"/><path d="m175.3 20.9h16.8v2.3h-16.8z" fill="#666766"/><path d="m149.5 20.9h16.8v2.3h-16.8z" fill="#666766"/><path d="m98.2 20.9h16.8v2.3h-16.8z" fill="#666766"/><path d="m19 25.5h625.7v2.3h-625.7z" fill="#ababab"/><path d="m124 25.5h16.8v2.3h-16.8z" fill="#666766"/><path d="m200.7 25.5h16.8v2.3h-16.8z" fill="#666766"/><path d="m175.3 25.5h16.8v2.3h-16.8z" fill="#666766"/><path d="m149.5 25.5h16.8v2.3h-16.8z" fill="#666766"/><path d="m98.2 25.5h16.8v2.3h-16.8z" fill="#666766"/><path d="m19 30.1h625.7v2.3h-625.7z" fill="#ababab"/><path d="m124 30.1h16.8v2.3h-16.8z" fill="#666766"/><path d="m200.7 30.1h16.8v2.3h-16.8z" fill="#666766"/><path d="m175.3 30.1h16.8v2.3h-16.8z" fill="#666766"/><path d="m149.5 30.1h16.8v2.3h-16.8z" fill="#666766"/><path d="m98.2 30.1h16.8v2.3h-16.8z" fill="#666766"/><path d="m19 35.2h625.7v2.3h-625.7z" fill="#ababab"/><path d="m124 35.2h16.8v2.3h-16.8z" fill="#666766"/><path d="m200.7 35.2h16.8v2.3h-16.8z" fill="#666766"/><path d="m175.3 35.2h16.8v2.3h-16.8z" fill="#666766"/><path d="m149.5 35.2h16.8v2.3h-16.8z" fill="#666766"/><path d="m98.2 35.2h16.8v2.3h-16.8z" fill="#666766"/><path d="m19 39.8h625.7v2.3h-625.7z" fill="#ababab"/><path d="m124 39.8h16.8v2.3h-16.8z" fill="#666766"/><path d="m200.7 39.8h16.8v2.3h-16.8z" fill="#666766"/><path d="m175.3 39.8h16.8v2.3h-16.8z" fill="#666766"/><path d="m149.5 39.8h16.8v2.3h-16.8z" fill="#666766"/><path d="m98.2 39.8h16.8v2.3h-16.8z" fill="#666766"/><path d="m19 45h625.7v2.3h-625.7z" fill="#ababab"/><path d="m124 45h16.8v2.3h-16.8z" fill="#666766"/><path d="m200.7 45h16.8v2.3h-16.8z" fill="#666766"/><path d="m175.3 45h16.8v2.3h-16.8z" fill="#666766"/><path d="m149.5 45h16.8v2.3h-16.8z" fill="#666766"/><path d="m98.2 45h16.8v2.3h-16.8z" fill="#666766"/><path d="m639.7 261.1h-615.7c-2.8 0-5-2.3-5-5v-161.3c0-2.8 2.3-5 5-5h615.7c2.8 0 5 2.3 5 5v161.3c0 2.8-2.3 5-5 5z" fill="#0b0b0b"/><path d="m640.3 434.4h-615.7c-2.8 0-5-2.3-5-5v-161.3c0-2.8 2.3-5 5-5h615.7c2.8 0 5 2.3 5 5v161.3c0 2.7-2.3 5-5 5z" fill="#0b0b0b"/><path d="m640.3 488.1h-615.7c-2.8 0-5-2.3-5-5v-161.4c0-2.8 2.3-5 5-5h615.7c2.8 0 5 2.3 5 5v161.3c0 2.8-2.3 5.1-5 5.1z" fill="#282828"/><path d="m19 93.8h625.7v12.7h-625.7z" fill="#39b54a"/><path d="m47.3 133.8h322v2h-322z" fill="#ed1c24"/><path d="m47.3 144.4h322v100.7h-322z" fill="#787878"/><path d="m262.5 126.5c1-1 1.6-2.2 2.3-3.3 1.9-3 3.7-6 5.5-9.1 2.2-3.5 5.2-4.8 9.3-4.1.5.1 1.2.2 1.1 1-.1.7 0 1.6-1 2-.9.3-1.7.3-2.6.3s-1.6.3-2.1 1.1c-3.4 5.3-6.9 10.7-10.2 16-.6 1-1.3 1.3-2.4 1.3-4.2-.1-4.2 0-4.2-4.2 0-5.2 0-10.3 0-15.5 0-1.8.3-2 2-1.8 2.2.2 2.2.2 2.2 2.5-.1 3.3-.1 6.5-.2 9.8-.1 1.3.1 2.5.3 4z" fill="#fff"/><path d="m177 128.4c-.2.9-.4 1.9-.6 2.9s-1 1.1-1.8 1.1c-4.1.1-8.2-2.7-9.1-6.4s1.4-8.2 5.2-10c5.2-2.5 11.2-.3 12.8 4.7.5 1.6.4 3.2.1 4.8-.4 1.7-.9 3.4-1.3 5.1-.2 1.2-.8 1.6-2 1.5-.4-.1-.9 0-1.3 0-1.1.1-1.3-.4-1-1.4.6-2.1 1-4.2 1.6-6.3.5-1.9.1-3.5-1.4-4.7-1.6-1.3-3.5-1.4-5.3-.6-2.5 1.1-3.7 3.8-2.9 6.4.7 2.3 3.1 3.5 5.8 2.9.3-.2.7-.4 1.2 0z" fill="#fff"/><path d="m241.3 127.1c1.9 1.6 3.9.9 5.8.3.6 2.8-.5 4.3-3.2 4.3-3.9 0-7.2-2.2-8.3-5.4-1.2-3.5.1-7.3 3.2-9.8 4.8-3.7 11.3-2.7 14 2.3 1 1.7.8 2.1-.9 2.9-3.2 1.5-6.4 3-9.5 4.5-.4.2-.8.4-1.1.9zm-1.6-3.2c2.9-1.3 5.7-2.4 8.4-4-1.4-1.6-3.7-2-5.7-1.1-1.9.9-3 2.9-2.7 5.1z" fill="#fff"/><path d="m206.3 127.1c1.8 1.5 3.8.9 5.8.2 0 1.5-.5 2.7-.9 3.9-.1.4-.6.5-1 .6-5.5.9-10.8-3.2-10.4-8.8.4-5.2 6-9.3 11.3-8.4 3.2.5 5.5 2.3 6.9 5.3.5 1 .3 1.5-.7 1.9-3.3 1.4-6.5 2.8-9.8 4.3-.3.3-.9.4-1.2 1zm-1.8-3.3c1.7-.3 7.5-2.9 8.8-3.9-1.2-1.6-3.5-2.2-5.6-1.3s-3.4 3-3.2 5.2z" fill="#fff"/><path d="m311.5 121.8c.1 5.6-4.3 10.1-8.7 10.2-2.5.1-4.8 0-6.8-1.6-3.9-3.2-4.3-7.5-1.2-11.5 3.4-4.3 9-5.2 13.4-2.1 2.1 1.5 3.2 3.6 3.3 5zm-9.8 7c3 0 5.6-2.5 5.6-5.3 0-2.5-2.4-4.7-5.1-4.7-2.8.1-5.4 2.7-5.4 5.5.1 2.5 2.2 4.5 4.9 4.5z" fill="#fff"/><path d="m320.5 119c-2.3 0-2.2 0-2.8 2.4-.8 3.1-1.7 6.2-2.6 9.3-.1.5-.3 1.1-1 1.1-1-.1-2 .3-2.9-.3-.3-.2-.2-.7-.1-1.1 1-4.6 2.4-9.1 3.6-13.6.2-.8.7-1.2 1.6-1.2 2.3.1 4.6 0 6.8 0 3.2 0 4.5 1.5 4 4.7-.7 3.6-1.7 7.1-2.7 10.6-.3 1-1 1-1.9 1-2.7-.2-2.7-.1-1.9-2.8.7-2.4 1.3-4.7 1.9-7.1.8-2.8.6-3-2-3z" fill="#fff"/><path d="m154.4 122.2c-.3-6.5 4.9-10.8 9.9-11.8 1.7-.3 3.3-.4 5-.4 1.1 0 1.5.3 1.3 1.5-.5 2.5-.5 2.6-3.1 2.6-2.4 0-4.5.5-6.3 2.1-2.4 2.1-3.1 4.7-2.3 7.7.7 2.7 2.9 3.7 5.3 4.2 1.1.2 1.3.5 1 1.5-.9 3.3-.5 3.5-4.2 2.3-3.9-1.4-7-5-6.6-9.7z" fill="#fff"/><path d="m224.1 128.2c-.4.7-.5 1-.7 1.3-.7.8-.8 2.3-2.2 2-1.6-.3-2.7-1.4-3.2-3-.3-.9-.2-1.8 0-2.7 1.2-4.9 2.3-9.8 3.5-14.7.2-.8.6-1.4 1.7-1.3.8.1 1.7 0 2.6 0 .4 1.4-.2 2.6-.5 3.8-.3 1-.1 1.4.9 1.4.6 0 1.5-.3 1.5.9 0 1.6-.7 3.1-1.6 2.9-1.8-.2-2.4.6-2.6 2.3-.2 1.6-.7 3.1-1.1 4.7-.4 1.2-.7 2.5 1.7 2.4z" fill="#fff"/><path d="m234.8 109.7c0 1.8-.9 3.3-.8 4.9.1.1.2.2.3.2 2.4.3 2.7.9 1.7 3.2-.4.8-1.1.8-1.8.7-1-.1-1.5.2-1.7 1.4-.3 1.9-.9 3.8-1.4 5.7-.3 1.2-.3 2.4 1.6 2.6-.6 1.3-1 2.9-2.3 3.1-1.4.3-2.5-.8-3.2-2-.6-1-.6-2.1-.4-3.2 1-5.2 2.4-10.3 3.8-15.4.2-.7.6-1.1 1.4-1.1.8-.1 1.7-.1 2.8-.1z" fill="#fff"/><path d="m189.8 131.9c.2-1.7.1-3.4 1.8-4.6 1.1-.8 1.2-2.4 1.5-3.7.6-2.4 1-4.8 2.9-6.6 1.1-1.1 2.4-1.9 4-2 .9-.1 1.3.3 1 1.3-.4 1.4-.5 2.9-2 3.7-.6.3-.7 1.1-.9 1.7-.4 1.6-.8 3.3-1.2 5-.8 3.3-3.8 5.6-7.1 5.2z" fill="#fff"/><path d="m184 132c-.5.1-1.1-.2-.9-.8.3-1.3.2-2.8 1.5-3.7s1.3-2.4 1.7-3.7c.5-1.7.7-3.5 1.6-5.1 1.1-2 2.7-3.2 5-3.7 1-.2 1.5.1 1.2 1.2-.3 1.4-.3 2.9-1.8 3.7-.5.3-.7 1-.8 1.6-.4 1.7-.9 3.5-1.3 5.2-.9 2.9-3.6 5.3-6.2 5.3z" fill="#fff"/><path d="m286.7 115.1c1.5 0 1.9.3 1.4 1.5-.5 1.3-1.1 2.4-2.1 3.5-1.4 1.5-1.4 3.8-2 5.7-.8 3-2.4 5.2-5.5 6-1.5.4-1.8 0-1.5-1.4.3-1.2.5-2.4 1.8-3.1.8-.4.8-1.5 1.1-2.4.6-2.2 1-4.6 2.2-6.6 1.1-1.8 2.8-2.8 4.6-3.2z" fill="#fff"/><path d="m287.7 131.9c-.4 0-.8-.1-1.2-.1-.9-.1-1-.4-.8-1.3 1.2-4.6 2.3-9.2 3.4-13.8.2-.8.8-1 1.4-1.1.3-.1.6-.1.9-.1 2.4-.1 2.6.1 1.9 2.5-1.1 4.1-2.2 8.2-3.2 12.3-.4 1.3-1.2 1.7-2.4 1.6z" fill="#fff"/><path d="m279.3 115.5c0 2.1-.8 4-1.3 6-.6 2.9-1.5 5.7-2.2 8.6-.1.6-.1 1.4-.8 1.5-1.1.2-2.2.3-3.2-.1-.6-.3-.3-1.1-.1-1.7 1.1-3.9 2-7.9 2.9-11.9.6-2.7 1.3-3 4.7-2.4z" fill="#fff"/><path d="m290.1 114.2c.2-2.5 2.1-3.7 4.2-2.8.5.2.5.6.5 1.1-.1.8-.1 1.8-1.1 2-1.2.2-2.4.3-3.6-.3z" fill="#fff"/><path d="m112.3 129.2c-.3 1.4-.6 2.6-.8 3.8-.1 1.1-.8 1.4-2.2 1 1-4.6 2-9.2 3-13.8.8 0 1.5-.3 2.1.4 1.6-.9 3.3-1.3 5.2-1.3 4.1.1 6.5 2.2 6 5.6-.6 4-6.1 6.8-10.8 5.6-.8-.3-1.6-.8-2.5-1.3zm7-8.7c-2.1-.1-5.6 1.8-6.1 4.6s2.4 4.9 5.7 4c2.3-.6 3.9-1.9 4.6-3.9.8-2.4-1.3-4.7-4.2-4.7z" fill="#ed1c24"/><path d="m139 128.1c-2 2.5-7.4 3.4-10.3 1.7-2.3-1.4-3-4.1-1.6-6.5 1.7-3 5.8-4.7 9.8-4 1.3.3 2.4.8 3.2 1.9-3.4 2.4-6.8 4.7-10.1 7.1 1.1 1 2.7 1.3 4.5.8.7-.2 1.3-.5 1.9-.9 1.1-.7 1.2-.7 2.6-.1zm-10.1-1.1c.1-.1.3-.1.4-.2 2.7-1.8 5.3-3.7 8-5.6-1.8-1.1-3.9-1-6.1.3-2.3 1.5-3.3 3.7-2.3 5.5z" fill="#ed1c24"/><path d="m98.3 118.7c-.8.4-1.3.6-1.9-.3-.4-.7-1.4-.8-2.3-.5-1 .4-1.7 1-1.8 1.9s.6 1.4 1.4 1.8c.4.2.8.3 1.2.5 2.5.9 3.7 2.4 3.3 4.3-.5 2.1-2.7 3.9-5.2 4-1.5.1-3 .1-4.1-1-.5-.4-.8-.9-1-1.5-.3-1 0-1.2 1.3-1.2 0 0 .1.1.1.1.3 1.6 1.2 2.4 2.6 2.6 1.5.2 3.4-.7 4.2-2 .9-1.4.6-2.7-1-3.8-.6-.4-1.2-.6-1.9-.9-2-.7-2.9-1.8-2.5-3.4s2.1-2.7 4.1-2.8c2 0 3 .5 3.4 1.7.2.3.1.4.1.5z" fill="#ed1c24"/><path d="m100.5 120.2h2c-.3 1.5-.6 3.1-.9 4.6-.1.6-.3 1.2-.4 1.7-.2 1 .2 1.8 1.2 2.4.9.6 2 .6 3 .2 1.4-.6 2.4-1.5 2.7-2.8.4-2 .9-3.9 1.3-5.9.6-.2 1.2-.1 2-.1-.6 2.5-.8 5-1.8 7.3-1.1 2.6-5.4 3.9-8.4 2.6-1.5-.6-2.2-1.7-2-3 .3-2.4.8-4.7 1.3-7z" fill="#ed1c24"/><path d="m141.7 120.4h1.7c.4.2 0 .5.3.7 1.1-.5 2.2-1.2 3.7-.9 0 .6 0 1-1 1.4-2.2.7-3.5 2.1-3.9 4-.4 1.6-.7 3.2-1.1 4.9-.7.2-1.2.1-2 .1.8-3.5 1.6-6.8 2.3-10.2z" fill="#ed1c24"/><path d="m113.2 128.3c-.3 1.4-.6 2.6-.8 3.8-.1 1.1-.8 1.4-2.2 1 1-4.6 2-9.2 3-13.8.8 0 1.5-.3 2.1.4 1.6-.9 3.3-1.3 5.2-1.3 4.1.1 6.5 2.2 6 5.6-.6 4-6.1 6.8-10.8 5.6-.9-.3-1.6-.7-2.5-1.3zm6.9-8.6c-2.1-.1-5.6 1.8-6.1 4.6s2.4 4.9 5.7 4c2.3-.6 3.9-1.9 4.6-3.9.8-2.4-1.2-4.8-4.2-4.7z" fill="#fbc3b6"/><path d="m139.8 127.3c-2 2.5-7.4 3.4-10.3 1.7-2.3-1.4-3-4.1-1.6-6.5 1.7-3 5.8-4.7 9.8-4 1.3.3 2.4.8 3.2 1.9-3.4 2.4-6.8 4.7-10.1 7.1 1.1 1 2.7 1.3 4.5.8.7-.2 1.3-.5 1.9-.9 1.2-.7 1.2-.7 2.6-.1zm-10.1-1.1c.1-.1.3-.1.4-.2 2.7-1.8 5.3-3.7 8-5.6-1.8-1.1-3.9-1-6.1.3-2.3 1.5-3.2 3.6-2.3 5.5z" fill="#fbc3b6"/><path d="m99.2 117.8c-.8.4-1.3.6-1.9-.3-.4-.7-1.4-.8-2.3-.5-1 .4-1.7 1-1.8 1.9s.6 1.4 1.4 1.8c.4.2.8.3 1.2.5 2.5.9 3.7 2.4 3.3 4.3-.5 2.1-2.7 3.9-5.2 4-1.5.1-3 .1-4.1-1-.5-.4-.8-.9-1-1.5-.3-1 0-1.2 1.3-1.2 0 0 .1.1.1.1.3 1.6 1.2 2.4 2.6 2.6 1.5.2 3.4-.7 4.2-2 .9-1.4.6-2.7-1-3.8-.6-.4-1.2-.6-1.9-.9-2-.7-2.9-1.8-2.5-3.4s2.1-2.7 4.1-2.8c2 0 3 .5 3.4 1.7.1.3.1.4.1.5z" fill="#fbc3b6"/><path d="m101.3 119.3h2c-.3 1.5-.6 3.1-.9 4.6-.1.6-.3 1.2-.4 1.7-.2 1 .2 1.8 1.2 2.4.9.6 2 .6 3 .2 1.4-.6 2.4-1.5 2.7-2.8.4-2 .9-3.9 1.3-5.9.6-.2 1.2-.1 2-.1-.6 2.5-.8 5-1.8 7.3-1.1 2.6-5.4 3.9-8.4 2.6-1.5-.6-2.2-1.7-2-3 .3-2.4.8-4.7 1.3-7z" fill="#fbc3b6"/><path d="m142.5 119.5h1.7c.4.2 0 .5.3.7 1.1-.5 2.2-1.2 3.7-.9 0 .6 0 1-1 1.4-2.2.7-3.5 2.1-3.9 4-.4 1.6-.7 3.2-1.1 4.9-.7.2-1.2.1-2 .1.9-3.4 1.6-6.8 2.3-10.2z" fill="#fbc3b6"/><path d="m135.5 95.9h6.7v1.9h-4.2v1.4h3.9v1.8h-3.9v1.7h4.3v2h-6.8z"/><path d="m143.7 95.9h4.2c.9 0 1.6.2 2 .7.5.5.7 1.1.7 2s-.2 1.6-.7 2.1-1.2.7-2.2.7h-1.4v3.2h-2.5v-8.7zm2.5 3.7h.6c.5 0 .8-.1 1-.3s.3-.4.3-.7-.1-.5-.3-.7-.5-.3-1-.3h-.7v2z"/><path d="m151.6 100.3c0-1.4.4-2.5 1.1-3.3s1.8-1.2 3.1-1.2 2.4.4 3.1 1.2 1.1 1.9 1.1 3.3c0 1-.2 1.9-.5 2.5-.3.7-.8 1.2-1.4 1.5-.6.4-1.4.5-2.2.5-.9 0-1.7-.2-2.3-.5s-1.1-.8-1.5-1.5-.5-1.5-.5-2.5zm2.5 0c0 .9.2 1.5.5 1.9s.7.6 1.2.6 1-.2 1.2-.6c.3-.4.4-1.1.4-2 0-.8-.2-1.4-.5-1.8s-.7-.6-1.2-.6-.9.2-1.2.6c-.3.3-.4 1-.4 1.9z"/><path d="m166.7 101 2.2.7c-.1.7-.4 1.2-.7 1.7-.3.4-.7.8-1.2 1s-1.1.3-1.8.3c-.9 0-1.6-.1-2.2-.4s-1-.8-1.4-1.5-.6-1.6-.6-2.7c0-1.4.4-2.5 1.1-3.3s1.7-1.2 3-1.2c1 0 1.8.2 2.4.7.6.4 1 1.1 1.3 2l-2.2.5c-.1-.3-.2-.5-.2-.6-.1-.2-.3-.4-.5-.5s-.4-.2-.7-.2c-.6 0-1 .2-1.3.7-.2.4-.3.9-.3 1.7 0 1 .1 1.6.4 2s.7.5 1.1.5c.5 0 .8-.1 1.1-.4s.4-.4.5-1z"/><path d="m170.1 95.9h2.5v3h2.7v-3h2.5v8.7h-2.5v-3.5h-2.7v3.5h-2.5z"/><path d="m182.7 95.9h7.6v2.1h-2.5v6.6h-2.5v-6.6h-2.5v-2.1z"/><path d="m190.6 95.9h2.6l1.8 6.3 1.8-6.3h2.5l-3 8.7h-2.7z"/><path d="m208 101.4v-1.8h3.9v3.7c-.7.5-1.4.9-2 1.1s-1.2.3-2 .3c-1 0-1.7-.2-2.3-.5-.6-.4-1.1-.9-1.4-1.6s-.5-1.5-.5-2.4c0-1 .2-1.8.5-2.5.4-.7.9-1.2 1.6-1.6.5-.3 1.3-.4 2.2-.4s1.6.1 2 .3.8.4 1.1.8.5.8.7 1.4l-2.4.5c-.1-.3-.3-.6-.5-.8s-.5-.3-.9-.3c-.5 0-1 .2-1.3.6s-.5 1.1-.5 1.9c0 .9.2 1.6.5 2s.8.6 1.4.6c.3 0 .5 0 .8-.1s.5-.2.9-.4v-.8z"/><path d="m218.4 103.2h-2.8l-.4 1.4h-2.6l3-8.7h2.7l3 8.7h-2.6zm-.6-1.9-.9-3.1-.9 3.1z"/><path d="m222.1 95.9h3.3l1.3 5.3 1.3-5.3h3.3v8.7h-2v-6.6l-1.6 6.6h-1.9l-1.6-6.6v6.6h-2v-8.7z"/><path d="m232.8 95.9h6.7v1.9h-4.2v1.4h3.9v1.8h-3.9v1.7h4.3v2h-6.8z"/><path d="m244.3 101.7 2.4-.2c.1.4.2.7.3 1 .3.4.6.5 1.1.5.4 0 .6-.1.8-.3s.3-.4.3-.6-.1-.4-.3-.6-.6-.3-1.3-.5c-1.1-.3-1.9-.6-2.3-1.1-.5-.4-.7-1-.7-1.7 0-.4.1-.9.4-1.3.2-.4.6-.7 1.1-.9s1.1-.3 2-.3c1 0 1.8.2 2.4.6.5.4.9 1.1 1 2l-2.4.1c-.1-.4-.2-.7-.4-.9s-.5-.3-.8-.3-.5.1-.7.2c-.1.1-.2.3-.2.5 0 .1.1.3.2.4s.4.2.8.3c1.1.3 1.9.5 2.3.8s.8.6 1 1 .3.8.3 1.3c0 .6-.1 1.1-.4 1.5-.3.5-.7.8-1.2 1.1-.5.2-1.2.4-1.9.4-1.4 0-2.3-.3-2.9-.9-.5-.5-.8-1.2-.9-2.1z"/><path d="m252.1 95.9h2.8l1.6 2.9 1.6-2.9h2.8l-3.1 5.1v3.6h-2.5v-3.6z"/><path d="m260.8 101.7 2.4-.2c.1.4.2.7.3 1 .3.4.6.5 1.1.5.4 0 .6-.1.8-.3s.3-.4.3-.6-.1-.4-.3-.6-.6-.3-1.3-.5c-1.1-.3-1.9-.6-2.3-1.1-.5-.4-.7-1-.7-1.7 0-.4.1-.9.4-1.3.2-.4.6-.7 1.1-.9s1.1-.3 2-.3c1 0 1.8.2 2.4.6.5.4.9 1.1 1 2l-2.4.1c-.1-.4-.2-.7-.4-.9s-.5-.3-.8-.3-.5.1-.7.2c-.1.1-.2.3-.2.5 0 .1.1.3.2.4s.4.2.8.3c1.1.3 1.9.5 2.3.8s.8.6 1 1 .3.8.3 1.3c0 .6-.1 1.1-.4 1.5-.3.5-.7.8-1.2 1.1-.5.2-1.2.4-1.9.4-1.4 0-2.3-.3-2.9-.9-.5-.5-.8-1.2-.9-2.1z"/><path d="m268.8 95.9h7.6v2.1h-2.5v6.6h-2.5v-6.6h-2.5v-2.1z"/><path d="m277.5 95.9h6.7v1.9h-4.2v1.4h3.9v1.8h-3.9v1.7h4.3v2h-6.8z"/><path d="m285.7 95.9h3.3l1.3 5.3 1.3-5.3h3.3v8.7h-2v-6.6l-1.6 6.6h-1.9l-1.6-6.6v6.6h-2v-8.7z"/><path d="m494.7 111.1h119.3v138.4h-119.3z" fill="#cfcfce"/><path d="m392.7 118.4h66v29.4h-66z" fill="#999"/><path d="m392.7 171.8h66v26.7h-66z" fill="#999"/><path d="m392.7 213.1h66v26.7h-66z" fill="#999"/><path d="m540.3 102.4 1.8-.1c0 .3.1.6.2.7.2.3.5.4.8.4s.5-.1.6-.2.2-.3.2-.5-.1-.3-.2-.5c-.1-.1-.5-.3-1-.4-.8-.2-1.4-.5-1.8-.8s-.5-.8-.5-1.3c0-.3.1-.7.3-1s.5-.5.8-.7c.4-.2.9-.3 1.5-.3.8 0 1.4.2 1.8.5s.7.8.7 1.5l-1.8.1c0-.3-.1-.5-.3-.6s-.4-.2-.6-.2-.4.1-.5.2-.2.2-.2.4c0 .1 0 .2.1.3s.3.2.6.2c.8.2 1.4.4 1.8.6s.6.4.8.7.2.6.2 1-.1.8-.3 1.2-.5.6-.9.8-.9.3-1.5.3c-1 0-1.8-.2-2.2-.6-.1-.5-.4-1-.4-1.7z"/><path d="m546.8 98h5.1v1.4h-3.2v1h2.9v1.3h-2.9v1.3h3.3v1.5h-5.2z"/><path d="m553 98h1.9v5h3v1.6h-4.9z"/><path d="m558.7 98h5.1v1.4h-3.2v1h2.9v1.3h-2.9v1.3h3.3v1.5h-5.2z"/><path d="m569 101.9 1.7.5c-.1.5-.3.9-.5 1.3-.2.3-.5.6-.9.8s-.8.3-1.4.3c-.7 0-1.2-.1-1.6-.3s-.8-.6-1.1-1.1-.5-1.2-.5-2c0-1.1.3-1.9.8-2.5s1.3-.9 2.3-.9c.8 0 1.4.2 1.8.5s.8.9 1 1.5l-1.7.4c-.1-.2-.1-.3-.2-.4-.1-.2-.2-.3-.4-.4s-.3-.1-.5-.1c-.4 0-.8.2-1 .6-.2.3-.3.7-.3 1.3 0 .7.1 1.2.3 1.5s.5.4.9.4.6-.1.8-.3.4-.7.5-1.1z"/><path d="m571.1 98h5.8v1.6h-1.9v5h-1.9v-5h-1.9v-1.6z"/><path d="m455.7 121.4v23.4h-60v-23.4zm3-3h-66v29.4h66z" fill="#e6e7e8"/><path d="m455.7 174.8v20.7h-60v-20.7zm3-3h-66v26.7h66z" fill="#e6e7e8"/><path d="m455.7 216.1v20.7h-60v-20.7zm3-3h-66v26.7h66z" fill="#e6e7e8"/><path d="m611 114.1v132.4h-113.3v-132.4zm3-3h-119.3v138.4h119.3z" fill="#e6e7e8"/><path d="m511.3 127.4h21.3v17.3h-21.3z" fill="#545554"/><path d="m509.8 125.5h21.3v17.3h-21.3z" fill="#939598"/><path d="m546 118.4h15.3v2h-15.3z" fill="#545554"/><path d="m511.3 158.5h21.3v17.3h-21.3z" fill="#545554"/><path d="m509.8 156.6h21.3v17.3h-21.3z" fill="#939598"/><path d="m511.3 189.7h21.3v17.3h-21.3z" fill="#545554"/><path d="m509.8 187.8h21.3v17.3h-21.3z" fill="#939598"/><path d="m511.3 221h21.3v17.3h-21.3z" fill="#545554"/><path d="m509.8 219h21.3v17.3h-21.3z" fill="#939598"/><path d="m544.5 127.4h21.3v17.3h-21.3z" fill="#545554"/><path d="m543 125.5h21.3v17.3h-21.3z" fill="#939598"/><path d="m544.5 158.5h21.3v17.3h-21.3z" fill="#545554"/><path d="m543 156.6h21.3v17.3h-21.3z" fill="#939598"/><path d="m544.5 189.7h21.3v17.3h-21.3z" fill="#545554"/><path d="m543 187.8h21.3v17.3h-21.3z" fill="#939598"/><path d="m544.5 221h21.3v17.3h-21.3z" fill="#545554"/><path d="m543 219h21.3v17.3h-21.3z" fill="#939598"/><path d="m579.5 127.2h21.3v17.3h-21.3z" fill="#545554"/><path d="m578 125.3h21.3v17.3h-21.3z" fill="#939598"/><path d="m579.5 158.3h21.3v17.3h-21.3z" fill="#545554"/><path d="m578 156.4h21.3v17.3h-21.3z" fill="#939598"/><path d="m579.5 189.6h21.3v17.3h-21.3z" fill="#545554"/><path d="m578 187.7h21.3v17.3h-21.3z" fill="#939598"/><path d="m579.5 220.8h21.3v17.3h-21.3z" fill="#545554"/><path d="m578 218.9h21.3v17.3h-21.3z" fill="#939598"/><g fill="#fff"><path d="m516.6 131.2h7.5v1.3c-.7.4-1.2.9-1.6 1.4-.5.6-1 1.3-1.3 2-.2.6-.4 1.3-.5 2.1h-2.6c.2-1.1.5-2 1-2.8.4-.7 1.1-1.5 2.1-2.4h-4.6z"/><path d="m552.1 134.3c-.4-.2-.7-.3-.9-.5-.3-.3-.4-.6-.4-.9 0-.6.4-1 1.1-1.4.6-.3 1.3-.4 2.3-.4 1.2 0 2.2.2 2.8.5s.9.8.9 1.3c0 .3-.1.6-.4.8-.2.2-.5.4-.8.6.5.2.9.4 1.1.7s.4.6.4 1c0 .3-.1.7-.3.9s-.5.5-.8.7-.7.3-1.2.4-1 .1-1.5.1c-1 0-1.7-.1-2.3-.3-.5-.2-.9-.4-1.2-.7s-.4-.7-.4-1.1.1-.7.4-1c.3-.4.7-.6 1.2-.7zm1 1.6c0 .3.1.5.4.7s.5.3.9.3c.3 0 .6-.1.8-.3s.4-.4.4-.7-.1-.5-.4-.7c-.2-.2-.5-.3-.9-.3-.3 0-.6.1-.8.3s-.4.3-.4.7zm.1-2.9c0 .2.1.4.3.6.2.1.5.2.8.2s.5-.1.7-.2.3-.3.3-.5-.1-.4-.3-.6c-.2-.1-.5-.2-.8-.2s-.6.1-.8.2-.2.2-.2.5z"/><path d="m585.6 136.4 2.6-.2c.1.3.2.4.3.6.2.1.4.2.6.2.4 0 .7-.2 1-.5.2-.2.3-.7.4-1.4-.3.2-.6.4-1 .5-.3.1-.7.2-1.1.2-.8 0-1.5-.2-2.1-.6s-.9-1-.9-1.6c0-.4.1-.9.4-1.2.3-.4.7-.6 1.2-.8s1.2-.3 1.9-.3c.9 0 1.7.1 2.2.3s1 .6 1.3 1.1.5 1.2.5 2c0 1.2-.4 2.1-1.1 2.7s-1.7.8-2.9.8c-.7 0-1.3-.1-1.8-.2-.4-.1-.8-.3-1.1-.5 0-.5-.2-.8-.4-1.1zm4.8-3c0-.4-.1-.6-.4-.9s-.6-.3-.9-.3-.6.1-.9.3c-.2.2-.3.5-.3.8 0 .4.1.7.4.9.2.2.5.3.9.3s.7-.1.9-.3.3-.5.3-.8z"/><path d="m521 167.3h-4.7v-1.5l4.7-4h2.3v4.1h1.2v1.4h-1.2v1.3h-2.3zm0-1.4v-2.1l-2.5 2.1z"/><path d="m551.6 161.8h6.1v1.5h-4.2l-.2 1c.3-.1.6-.2.9-.2s.6-.1.8-.1c.9 0 1.7.2 2.3.6s.9.9.9 1.5c0 .4-.1.9-.4 1.3s-.7.7-1.3.9c-.5.2-1.2.3-2.1.3-.6 0-1.1 0-1.6-.1-.4-.1-.8-.2-1.1-.4s-.6-.4-.7-.6c-.2-.2-.3-.5-.5-.8l2.6-.2c.1.3.2.5.4.7s.5.2.8.2c.4 0 .7-.1.9-.3s.4-.5.4-.9-.1-.7-.4-.9c-.2-.2-.6-.3-.9-.3s-.5 0-.7.1-.4.2-.6.3l-2.2-.2z"/><path d="m593 163.3-2.6.2c-.1-.3-.2-.4-.3-.6-.2-.1-.4-.2-.6-.2-.4 0-.7.2-1 .5-.2.2-.3.7-.4 1.4.3-.2.6-.4 1-.5.3-.1.7-.2 1.1-.2.8 0 1.5.2 2.1.6s.9 1 .9 1.6c0 .4-.1.8-.4 1.2s-.7.6-1.2.8-1.2.3-1.9.3c-.9 0-1.7-.1-2.2-.3-.6-.2-1-.6-1.3-1.1s-.5-1.2-.5-2c0-1.2.4-2.1 1.1-2.7s1.7-.8 2.9-.8c.7 0 1.3.1 1.8.2.4.1.8.3 1.1.5 0 .5.3.8.4 1.1zm-4.7 3c0 .4.1.6.4.9s.6.3.9.3.6-.1.9-.3.3-.5.3-.8c0-.4-.1-.7-.4-.9-.2-.2-.5-.3-.9-.3s-.7.1-.9.3-.3.5-.3.8z"/><path d="m522.4 193.4v6.8h-2.6v-4.5c-.4.2-.8.4-1.2.6-.4.1-.9.3-1.5.4v-1.5c.9-.2 1.6-.5 2-.7s.9-.6 1.1-1.1z"/><path d="m558.1 200.2h-7.8c.1-.6.4-1.1.8-1.6.5-.5 1.3-1.1 2.5-1.7.8-.4 1.2-.7 1.5-.9.2-.2.3-.4.3-.6s-.1-.4-.3-.5-.5-.2-.8-.2-.6.1-.8.2-.3.4-.4.8l-2.6-.2c.1-.5.3-.9.6-1.2s.7-.5 1.1-.7c.5-.2 1.2-.2 2-.2.9 0 1.6.1 2.1.2s.9.4 1.2.7.4.7.4 1c0 .4-.2.8-.5 1.2s-.9.8-1.8 1.2c-.5.3-.9.4-1 .5s-.4.2-.6.4h4v1.6z"/><path d="m588 195.4-2.4-.3c.2-.6.6-1 1.2-1.3s1.4-.4 2.5-.4c1.2 0 2.1.2 2.6.5s.8.7.8 1.2c0 .3-.1.6-.3.8s-.6.4-1 .6c.4.1.6.1.8.2.3.1.5.3.7.5s.3.5.3.8c0 .4-.1.8-.4 1.1-.3.4-.7.6-1.2.8s-1.2.3-2.1.3c-.8 0-1.5-.1-2-.2s-.9-.4-1.2-.6c-.3-.3-.6-.6-.7-1l2.6-.2c.1.4.3.6.5.8.2.1.5.2.8.2s.6-.1.9-.3c.2-.2.3-.4.3-.7s-.1-.6-.3-.7-.5-.3-.9-.3c-.2 0-.5 0-.8.1l.1-1.3h.3c.3 0 .6-.1.8-.2.2-.2.3-.3.3-.6 0-.2-.1-.4-.3-.5s-.4-.2-.7-.2-.6.1-.7.2c-.3.2-.4.4-.5.7z"/><path d="m516.5 228.2c0-1.3.3-2.2 1-2.7s1.6-.8 2.9-.8c.6 0 1.1.1 1.5.2s.7.3 1 .4c.3.2.5.4.6.6s.3.4.4.7c.2.5.3 1 .3 1.6 0 1.2-.3 2.1-.9 2.7s-1.6.8-3 .8c-.8 0-1.4-.1-1.9-.3s-.9-.4-1.2-.8c-.2-.2-.4-.6-.5-1s-.2-.9-.2-1.4zm2.6 0c0 .9.1 1.4.3 1.8.2.3.5.5.9.5.3 0 .5-.1.7-.2s.3-.3.4-.6.1-.7.1-1.3c0-.9-.1-1.5-.3-1.8s-.5-.5-.9-.5-.7.2-.9.5c-.2.1-.3.7-.3 1.6z"/><path d="m551.7 228.6 2 .5c-.1.4-.3.8-.6 1.1s-.7.5-1.1.7-1 .2-1.6.2c-.8 0-1.5-.1-2-.3s-1-.5-1.3-1c-.4-.5-.6-1.1-.6-1.8 0-1 .3-1.7 1-2.2s1.6-.8 2.8-.8c.9 0 1.7.1 2.2.4s.9.8 1.2 1.4l-2 .4c-.1-.2-.1-.3-.2-.4s-.3-.2-.5-.3-.4-.1-.6-.1c-.5 0-.9.2-1.2.5-.2.2-.3.6-.3 1.1 0 .6.1 1.1.4 1.3s.6.4 1.1.4c.4 0 .8-.1 1-.3 0-.2.2-.5.3-.8z"/><path d="m554.8 225.1h2.3v4.4h3.6v1.4h-5.9z"/><path d="m582.7 225h5.3v1.3h-3.3v.9h3.1v1.2h-3.1v1.2h3.4v1.3h-5.4z"/><path d="m589.2 225h1.9l2.4 3.3v-3.3h1.9v5.9h-1.9l-2.4-3.2v3.2h-1.9z"/><path d="m396.5 152.3c0-.9.3-1.6.8-2.1s1.2-.8 2.1-.8 1.7.3 2.2.8.8 1.2.8 2.1c0 .7-.1 1.2-.3 1.6s-.5.7-1 1c-.4.2-.9.4-1.6.4-.6 0-1.2-.1-1.6-.3s-.8-.5-1-1-.4-1-.4-1.7zm1.8 0c0 .6.1 1 .3 1.2s.5.4.9.4.7-.1.9-.4c.2-.2.3-.7.3-1.3 0-.5-.1-.9-.3-1.2-.2-.2-.5-.4-.9-.4s-.6.1-.8.4c-.3.3-.4.7-.4 1.3z"/><path d="m403.3 149.5h4.3v1.2h-2.6v1h2.2v1.1h-2.2v2.3h-1.7z"/><path d="m408.6 149.5h4.3v1.2h-2.6v1h2.2v1.1h-2.2v2.3h-1.7z"/><path d="m442.4 152.3c0-.9.3-1.6.8-2.1s1.2-.8 2.1-.8 1.7.3 2.2.8.8 1.2.8 2.1c0 .7-.1 1.2-.3 1.6s-.5.7-1 1c-.4.2-.9.4-1.6.4-.6 0-1.2-.1-1.6-.3s-.8-.5-1-1c-.3-.5-.4-1-.4-1.7zm1.8 0c0 .6.1 1 .3 1.2s.5.4.9.4.7-.1.9-.4c.2-.2.3-.7.3-1.3 0-.5-.1-.9-.3-1.2-.2-.2-.5-.4-.9-.4s-.6.1-.8.4c-.3.3-.4.7-.4 1.3z"/><path d="m449.2 149.5h1.6l2.1 3.1v-3.1h1.6v5.6h-1.6l-2.1-3.1v3.1h-1.6z"/><path d="m412.9 169.8v-5.6h2.9c.5 0 .9 0 1.2.1s.5.3.7.5.3.6.3.9-.1.6-.2.8-.3.4-.5.6c-.1.1-.4.2-.6.2.2.1.4.1.5.2.1 0 .2.1.3.3s.2.3.2.3l.8 1.6h-2l-.9-1.7c-.1-.2-.2-.4-.3-.4-.1-.1-.3-.1-.4-.1h-.2v2.3zm1.8-3.4h.7c.1 0 .2 0 .5-.1.1 0 .2-.1.3-.2s.1-.2.1-.3c0-.2-.1-.3-.2-.4s-.3-.1-.6-.1h-.8z"/><path d="m419 164.1h4.7v1.2h-2.9v.9h2.7v1.1h-2.7v1.1h3v1.3h-4.8z"/><path d="m424.4 167.9 1.7-.1c0 .3.1.5.2.6.2.2.4.3.8.3.2 0 .4-.1.6-.2.1-.1.2-.3.2-.4s-.1-.3-.2-.4-.4-.2-.9-.3c-.8-.2-1.3-.4-1.6-.7s-.5-.6-.5-1.1c0-.3.1-.6.3-.8s.4-.5.8-.6c.3-.1.8-.2 1.4-.2.7 0 1.3.1 1.6.4.4.3.6.7.7 1.3l-1.6.1c0-.3-.1-.4-.3-.6s-.3-.2-.6-.2c-.2 0-.4 0-.5.1s-.2.2-.2.3 0 .2.1.2c.1.1.3.1.6.2.8.2 1.3.3 1.6.5s.6.4.7.6.2.5.2.8c0 .4-.1.7-.3 1s-.5.5-.8.7-.8.2-1.4.2c-1 0-1.6-.2-2-.6-.3 0-.5-.5-.6-1.1z"/><path d="m430.4 164.1h4.7v1.2h-2.9v.9h2.7v1.1h-2.7v1.1h3v1.3h-4.7v-5.6z"/><path d="m435.7 164.1h5.3v1.4h-1.8v4.2h-1.7v-4.2h-1.8z"/><path d="m411.9 204.8h2.9c.6 0 1.1.1 1.4.4s.5.7.5 1.3-.2 1-.5 1.3-.9.5-1.6.5h-1v2.1h-1.7zm1.7 2.4h.4c.3 0 .6-.1.7-.2s.2-.3.2-.4c0-.2-.1-.3-.2-.4s-.3-.2-.7-.2h-.5v1.2z"/><path d="m420.3 209.5h-2l-.3.9h-1.8l2.1-5.6h1.9l2.1 5.6h-1.8zm-.3-1.2-.6-2-.6 2z"/><path d="m426.4 204.8h1.7v3.4c0 .3-.1.6-.2.9s-.3.6-.5.8-.5.4-.7.5c-.3.1-.7.2-1.2.2-.3 0-.6 0-.9-.1-.3 0-.6-.1-.8-.2s-.4-.3-.6-.5-.3-.4-.4-.6c-.1-.4-.2-.7-.2-1v-3.4h1.7v3.4c0 .3.1.5.3.7s.4.3.7.3.5-.1.7-.3.3-.4.3-.7v-3.4z"/><path d="m429 208.6 1.7-.1c0 .3.1.5.2.6.2.2.4.3.8.3.2 0 .4-.1.6-.2.1-.1.2-.3.2-.4s-.1-.3-.2-.4-.4-.2-.9-.3c-.8-.2-1.3-.4-1.6-.7s-.5-.6-.5-1.1c0-.3.1-.6.3-.8s.4-.5.8-.6c.3-.1.8-.2 1.4-.2.7 0 1.3.1 1.6.4.4.3.6.7.7 1.3l-1.6.1c0-.3-.1-.4-.3-.6s-.3-.2-.6-.2c-.2 0-.4 0-.5.1s-.2.2-.2.3 0 .2.1.2c.1.1.3.1.6.2.8.2 1.3.3 1.6.5s.6.4.7.6.2.5.2.8c0 .4-.1.7-.3 1s-.5.5-.8.7-.8.2-1.4.2c-1 0-1.6-.2-2-.6-.4-.1-.6-.6-.6-1.1z"/><path d="m434.9 204.8h4.7v1.2h-2.9v.9h2.7v1.1h-2.7v1.1h3v1.3h-4.7v-5.6z"/><path d="m282.6 175.1 1.5.5c-.1.4-.3.8-.5 1.1s-.5.5-.8.6-.7.2-1.2.2c-.6 0-1.1-.1-1.5-.3s-.7-.5-1-.9-.4-1-.4-1.7c0-.9.2-1.6.7-2.1s1.2-.8 2.1-.8c.7 0 1.3.1 1.7.4s.7.7.9 1.3l-1.5.3c-.1-.2-.1-.3-.2-.4s-.2-.2-.4-.3-.3-.1-.5-.1c-.4 0-.7.2-.9.5-.2.2-.2.6-.2 1.1 0 .6.1 1.1.3 1.3s.5.3.8.3.6-.1.8-.3.3-.3.3-.7z"/><path d="m288.5 176.5h-2l-.3.9h-1.8l2.1-5.6h1.9l2.1 5.6h-1.8zm-.4-1.2-.6-2-.6 2z"/><path d="m290.8 175.6 1.7-.1c0 .3.1.5.2.6.2.2.4.3.8.3.2 0 .4-.1.6-.2.1-.1.2-.3.2-.4s-.1-.3-.2-.4-.4-.2-.9-.3c-.8-.2-1.3-.4-1.6-.7s-.5-.6-.5-1.1c0-.3.1-.6.3-.8s.4-.5.8-.6c.3-.1.8-.2 1.4-.2.7 0 1.3.1 1.6.4.4.3.6.7.7 1.3l-1.6.1c0-.3-.1-.4-.3-.6s-.3-.2-.6-.2c-.2 0-.4 0-.5.1s-.2.2-.2.3 0 .2.1.2c.1.1.3.1.6.2.8.2 1.3.3 1.6.5s.6.4.7.6.2.5.2.8c0 .4-.1.7-.3 1s-.5.5-.8.7-.8.2-1.4.2c-1 0-1.6-.2-2-.6-.3-.1-.5-.6-.6-1.1z"/><path d="m296.5 175.6 1.7-.1c0 .3.1.5.2.6.2.2.4.3.8.3.2 0 .4-.1.6-.2.1-.1.2-.3.2-.4s-.1-.3-.2-.4-.4-.2-.9-.3c-.8-.2-1.3-.4-1.6-.7s-.5-.6-.5-1.1c0-.3.1-.6.3-.8s.4-.5.8-.6c.3-.1.8-.2 1.4-.2.7 0 1.3.1 1.6.4.4.3.6.7.7 1.3l-1.6.1c0-.3-.1-.4-.3-.6s-.3-.2-.6-.2c-.2 0-.4 0-.5.1s-.2.2-.2.3 0 .2.1.2c.1.1.3.1.6.2.8.2 1.3.3 1.6.5s.6.4.7.6.2.5.2.8c0 .4-.1.7-.3 1s-.5.5-.8.7-.8.2-1.4.2c-1 0-1.6-.2-2-.6-.3-.1-.5-.6-.6-1.1z"/><path d="m302.5 171.8h4.7v1.2h-2.9v.9h2.7v1.1h-2.7v1.1h3v1.3h-4.7v-5.6z"/><path d="m307.8 171.8h5.3v1.4h-1.8v4.2h-1.7v-4.2h-1.8z"/><path d="m313.4 171.8h5.3v1.4h-1.7v4.2h-1.7v-4.2h-1.8v-1.4z"/><path d="m319.5 171.8h4.7v1.2h-2.9v.9h2.7v1.1h-2.7v1.1h3v1.3h-4.7v-5.6z"/><path d="m330.7 175.4v-1.2h2.7v2.4c-.5.4-1 .6-1.4.7s-.9.2-1.4.2c-.7 0-1.2-.1-1.6-.3s-.7-.6-1-1c-.2-.5-.3-1-.3-1.6s.1-1.1.4-1.6.6-.8 1.1-1c.4-.2.9-.3 1.5-.3s1.1.1 1.4.2.6.3.8.5.4.5.5.9l-1.7.3c-.1-.2-.2-.4-.4-.5s-.4-.2-.6-.2c-.4 0-.7.1-.9.4s-.3.7-.3 1.3.1 1 .3 1.3.5.4 1 .4c.2 0 .4 0 .6-.1s.4-.2.6-.3v-.5z"/><path d="m337.8 176.5h-2l-.3.9h-1.8l2.1-5.6h1.9l2.1 5.6h-1.8zm-.3-1.2-.6-2-.6 2z"/><path d="m340.5 171.8h2.3l.9 3.4.9-3.4h2.3v5.6h-1.4v-4.3l-1.1 4.3h-1.4l-1.1-4.3v4.3h-1.4z"/><path d="m347.9 171.8h4.7v1.2h-2.9v.9h2.7v1.1h-2.7v1.1h3v1.3h-4.7v-5.6z"/><path d="m297.9 181.3h2.3l.9 3.4.9-3.4h2.3v5.6h-1.4v-4.3l-1.1 4.3h-1.3l-1.1-4.3v4.3h-1.4v-5.6z"/><path d="m308.8 186h-2l-.3.9h-1.8l2.1-5.6h1.9l2.1 5.6h-1.8zm-.4-1.3-.6-2-.6 2z"/><path d="m311.1 185 1.7-.1c0 .3.1.5.2.6.2.2.4.3.8.3.2 0 .4-.1.6-.2.1-.1.2-.3.2-.4s-.1-.3-.2-.4-.4-.2-.9-.3c-.8-.2-1.3-.4-1.6-.7s-.5-.6-.5-1.1c0-.3.1-.6.3-.8s.4-.5.8-.6c.3-.1.8-.2 1.4-.2.7 0 1.3.1 1.6.4.4.3.6.7.7 1.3l-1.6.1c0-.3-.1-.4-.3-.6s-.3-.2-.6-.2c-.2 0-.4 0-.5.1s-.2.2-.2.3 0 .2.1.2c.1.1.3.1.6.2.8.2 1.3.3 1.6.5s.6.4.7.6.2.5.2.8c0 .4-.1.7-.3 1s-.5.5-.8.7-.8.2-1.4.2c-1 0-1.6-.2-2-.6-.3 0-.5-.5-.6-1.1z"/><path d="m316.7 181.3h5.3v1.4h-1.8v4.2h-1.7v-4.2h-1.8z"/><path d="m322.8 181.3h4.7v1.2h-2.9v.9h2.7v1.1h-2.7v1.1h3v1.3h-4.7v-5.6z"/><path d="m328.5 186.9v-5.6h2.9c.5 0 .9 0 1.2.1s.5.3.7.5.3.6.3.9-.1.6-.2.8-.3.4-.5.6c-.1.1-.4.2-.6.2.2.1.4.1.5.2.1 0 .2.1.3.3s.2.3.2.3l.8 1.6h-2l-.9-1.7c-.1-.2-.2-.4-.3-.4-.1-.1-.3-.1-.4-.1h-.2v2.3zm1.7-3.4h.7c.1 0 .2 0 .5-.1.1 0 .2-.1.3-.2s.1-.2.1-.3c0-.2-.1-.3-.2-.4s-.3-.1-.6-.1h-.8z"/><path d="m291.6 194 1.5.5c-.1.4-.3.8-.5 1.1s-.5.5-.8.6-.7.2-1.2.2c-.6 0-1.1-.1-1.5-.3s-.7-.5-1-.9-.4-1-.4-1.7c0-.9.2-1.6.7-2.1s1.2-.8 2.1-.8c.7 0 1.3.1 1.7.4s.7.7.9 1.3l-1.5.3c-.1-.2-.1-.3-.2-.4s-.2-.2-.4-.3-.3-.1-.5-.1c-.4 0-.7.2-.9.5-.2.2-.2.6-.2 1.1 0 .6.1 1.1.3 1.3s.5.3.8.3.6-.1.8-.3.2-.3.3-.7z"/><path d="m293.8 193.5c0-.9.3-1.6.8-2.1s1.2-.8 2.1-.8 1.7.3 2.2.8.8 1.2.8 2.1c0 .7-.1 1.2-.3 1.6s-.5.7-1 1c-.4.2-.9.4-1.6.4-.6 0-1.2-.1-1.6-.3s-.8-.5-1-1c-.3-.5-.4-1-.4-1.7zm1.7 0c0 .6.1 1 .3 1.2s.5.4.9.4.7-.1.9-.4c.2-.2.3-.7.3-1.3 0-.5-.1-.9-.3-1.2-.2-.2-.5-.4-.9-.4s-.6.1-.8.4c-.3.3-.4.7-.4 1.3z"/><path d="m300.5 190.7h2.3l.9 3.4.9-3.4h2.3v5.6h-1.4v-4.3l-1.1 4.3h-1.4l-1.1-4.3v4.3h-1.4z"/><path d="m307.9 190.7h2.9c.6 0 1.1.1 1.4.4s.5.7.5 1.3-.2 1-.5 1.3-.9.5-1.6.5h-1v2.1h-1.7zm1.8 2.4h.4c.3 0 .6-.1.7-.2s.2-.3.2-.4c0-.2-.1-.3-.2-.4s-.3-.2-.7-.2h-.5v1.2z"/><path d="m313.4 193.5c0-.9.3-1.6.8-2.1s1.2-.8 2.1-.8 1.7.3 2.2.8.8 1.2.8 2.1c0 .7-.1 1.2-.3 1.6s-.5.7-1 1c-.4.2-.9.4-1.6.4-.6 0-1.2-.1-1.6-.3s-.8-.5-1-1c-.3-.5-.4-1-.4-1.7zm1.7 0c0 .6.1 1 .3 1.2s.5.4.9.4.7-.1.9-.4c.2-.2.3-.7.3-1.3 0-.5-.1-.9-.3-1.2-.2-.2-.5-.4-.9-.4s-.6.1-.8.4c-.3.3-.4.7-.4 1.3z"/><path d="m320.2 190.7h1.6l2.1 3.1v-3.1h1.6v5.6h-1.6l-2.1-3.1v3.1h-1.6z"/><path d="m326.7 190.7h4.7v1.2h-2.9v.9h2.7v1.1h-2.7v1.1h3v1.3h-4.7v-5.6z"/><path d="m332.4 190.7h1.6l2.1 3.1v-3.1h1.6v5.6h-1.6l-2.1-3.1v3.1h-1.6z"/><path d="m338.6 190.7h5.3v1.4h-1.8v4.2h-1.7v-4.2h-1.8z"/></g><path d="m288 209.5h-2l-.3.9h-1.7l2.1-5.6h1.9l2.1 5.6h-1.8zm-.4-1.2-.6-2-.6 2z" fill="#ed1c24"/><path d="m290.7 204.8h1.6l2.1 3.1v-3.1h1.6v5.6h-1.6l-2.1-3.1v3.1h-1.6z" fill="#ed1c24"/><path d="m300.6 209.5h-2l-.3.9h-1.8l2.1-5.6h1.9l2.1 5.6h-1.8zm-.4-1.2-.6-2-.6 2z" fill="#ed1c24"/><path d="m303.2 204.8h1.7v4.2h2.7v1.4h-4.5v-5.6z" fill="#ed1c24"/><path d="m308.1 207.6c0-.9.3-1.6.8-2.1s1.2-.8 2.1-.8 1.7.3 2.2.8.8 1.2.8 2.1c0 .7-.1 1.2-.3 1.6s-.5.7-1 1c-.4.2-.9.4-1.6.4-.6 0-1.2-.1-1.6-.3s-.8-.5-1-1-.4-1-.4-1.7zm1.8 0c0 .6.1 1 .3 1.2s.5.4.9.4.7-.1.9-.4c.2-.2.3-.7.3-1.3 0-.5-.1-.9-.3-1.2-.2-.2-.5-.4-.9-.4s-.6.1-.8.4c-.3.4-.4.8-.4 1.3z" fill="#ed1c24"/><path d="m317.7 208.4v-1.2h2.7v2.4c-.5.4-1 .6-1.4.7s-.9.2-1.4.2c-.7 0-1.2-.1-1.6-.3s-.7-.6-1-1c-.2-.5-.3-1-.3-1.6s.1-1.1.4-1.6.6-.8 1.1-1c.4-.2.9-.3 1.5-.3s1.1.1 1.4.2.6.3.8.5.4.5.5.9l-1.7.3c-.1-.2-.2-.4-.4-.5s-.4-.2-.6-.2c-.4 0-.7.1-.9.4s-.3.7-.3 1.3.1 1 .3 1.3.5.4 1 .4c.2 0 .4 0 .6-.1s.4-.2.6-.3v-.5z" fill="#ed1c24"/><path d="m323.7 207.8h2.3v1.2h-2.3z" fill="#ed1c24"/><path d="m329.3 210.4v-5.6h2.9c.5 0 .9 0 1.2.1s.5.3.7.5.3.6.3.9-.1.6-.2.8-.3.4-.5.6c-.1.1-.4.2-.6.2.2.1.4.1.5.2.1 0 .2.1.3.3s.2.3.2.3l.8 1.6h-2l-.9-1.7c-.1-.2-.2-.4-.3-.4-.1-.1-.3-.1-.4-.1h-.2v2.3zm1.8-3.3h.7c.1 0 .2 0 .5-.1.1 0 .2-.1.3-.2s.1-.2.1-.3c0-.2-.1-.3-.2-.4s-.3-.1-.6-.1h-.8z" fill="#ed1c24"/><path d="m338.1 208.4v-1.2h2.7v2.4c-.5.4-1 .6-1.4.7s-.9.2-1.4.2c-.7 0-1.2-.1-1.6-.3s-.7-.6-1-1c-.2-.5-.3-1-.3-1.6s.1-1.1.4-1.6.6-.8 1.1-1c.4-.2.9-.3 1.5-.3s1.1.1 1.4.2.6.3.8.5.4.5.5.9l-1.7.3c-.1-.2-.2-.4-.4-.5s-.4-.2-.6-.2c-.4 0-.7.1-.9.4s-.3.7-.3 1.3.1 1 .3 1.3.5.4 1 .4c.2 0 .4 0 .6-.1l.6-.3v-.5z" fill="#ed1c24"/><path d="m341.8 204.8h3.3c.5 0 1 .1 1.3.4s.4.6.4 1c0 .3-.1.6-.3.9-.1.2-.3.3-.6.4.4.1.7.3.9.5s.3.5.3.9c0 .3-.1.6-.2.8s-.3.4-.6.6c-.1.1-.4.1-.7.2-.4.1-.7.1-.8.1h-3zm1.8 2.2h.8c.3 0 .5 0 .6-.1s.2-.2.2-.4-.1-.3-.2-.4-.3-.1-.6-.1h-.8zm0 2.2h.9c.3 0 .5-.1.6-.2s.2-.2.2-.4-.1-.3-.2-.4-.3-.2-.6-.2h-.9z" fill="#ed1c24"/><path d="m291.6 214.2v5.7h-1.6v-3.8c-.3.2-.5.4-.7.5s-.5.2-.9.3v-1.3c.5-.2.9-.4 1.2-.6s.5-.5.7-.9h1.3z" fill="#ed1c24"/><path d="m297.8 219.9h-4.7c.1-.5.2-.9.5-1.3s.8-.9 1.5-1.4c.5-.3.8-.6.9-.8s.2-.3.2-.5-.1-.3-.2-.4-.3-.2-.5-.2-.4.1-.5.2-.2.3-.3.7l-1.6-.1c.1-.4.2-.8.3-1 .2-.2.4-.4.7-.6s.7-.2 1.2-.2c.6 0 1 .1 1.3.2s.5.3.7.6.3.6.3.9-.1.7-.3 1-.6.7-1.1 1c-.3.2-.5.4-.6.5s-.2.2-.4.3h2.4v1.1z" fill="#ed1c24"/><path d="m299.5 216.9c-.2-.1-.4-.3-.5-.4-.2-.2-.2-.5-.2-.8 0-.5.2-.9.7-1.2.3-.2.8-.3 1.4-.3.8 0 1.3.1 1.7.4s.5.6.5 1.1c0 .3-.1.5-.2.7s-.3.3-.5.5c.3.1.5.3.7.6.1.2.2.5.2.8s-.1.5-.2.8c-.1.2-.3.4-.5.6-.2.1-.4.2-.7.3s-.6.1-.9.1c-.6 0-1.1-.1-1.4-.2s-.6-.3-.7-.6-.2-.6-.2-.9.1-.6.2-.8c0-.4.2-.6.6-.7zm.6 1.3c0 .2.1.5.2.6.2.2.3.2.5.2s.4-.1.5-.2c.1-.2.2-.4.2-.6s-.1-.5-.2-.6c-.2-.2-.3-.2-.5-.2s-.4.1-.5.2c-.2.1-.2.3-.2.6zm.1-2.5c0 .2.1.4.2.5s.3.2.5.2.3-.1.4-.2.2-.3.2-.5-.1-.4-.2-.5-.3-.2-.5-.2-.3.1-.5.2-.1.4-.1.5z" fill="#ed1c24"/><path d="m306.3 218 1.7-.1c0 .3.1.5.2.6.2.2.4.3.8.3.2 0 .4-.1.6-.2.1-.1.2-.3.2-.4s-.1-.3-.2-.4-.4-.2-.9-.3c-.8-.2-1.3-.4-1.6-.7s-.5-.6-.5-1.1c0-.3.1-.6.3-.8s.4-.5.8-.6c.3-.1.8-.2 1.4-.2.7 0 1.3.1 1.6.4.4.3.6.7.7 1.3l-1.6.1c0-.3-.1-.4-.3-.6s-.3-.2-.6-.2c-.2 0-.4 0-.5.1s-.2.2-.2.3 0 .2.1.2c.1.1.3.1.6.2.8.2 1.3.3 1.6.5s.6.4.7.6.2.5.2.8c0 .4-.1.7-.3 1s-.5.5-.8.7-.8.2-1.4.2c-1 0-1.6-.2-2-.6-.3 0-.5-.5-.6-1.1z" fill="#ed1c24"/><path d="m312.3 214.3h2.9c.6 0 1.1.1 1.4.4s.5.7.5 1.3-.2 1-.5 1.3-.9.5-1.6.5h-1v2.1h-1.7zm1.8 2.4h.4c.3 0 .6-.1.7-.2s.2-.3.2-.4c0-.2-.1-.3-.2-.4s-.3-.2-.7-.2h-.5v1.2z" fill="#ed1c24"/><path d="m318 219.9v-5.6h2.9c.5 0 .9 0 1.2.1s.5.3.7.5.3.6.3.9-.1.6-.2.8-.3.4-.5.6c-.1.1-.4.2-.6.2.2.1.4.1.5.2.1 0 .2.1.3.3s.2.3.2.3l.8 1.6h-2l-.9-1.7c-.1-.2-.2-.4-.3-.4-.1-.1-.3-.1-.4-.1h-.2v2.3zm1.8-3.4h.7c.1 0 .2 0 .5-.1.1 0 .2-.1.3-.2s.1-.2.1-.3c0-.2-.1-.3-.2-.4s-.3-.1-.6-.1h-.8z" fill="#ed1c24"/><path d="m324.2 214.3h1.7v5.6h-1.7z" fill="#ed1c24"/><path d="m326.8 214.3h5.3v1.4h-1.8v4.2h-1.7v-4.2h-1.8z" fill="#ed1c24"/><path d="m332.8 214.3h4.7v1.2h-2.9v.9h2.7v1.1h-2.7v1.1h3v1.3h-4.7v-5.6z" fill="#ed1c24"/><path d="m338.2 218 1.7-.1c0 .3.1.5.2.6.2.2.4.3.8.3.2 0 .4-.1.6-.2.1-.1.2-.3.2-.4s-.1-.3-.2-.4-.4-.2-.9-.3c-.8-.2-1.3-.4-1.6-.7s-.5-.6-.5-1.1c0-.3.1-.6.3-.8s.4-.5.8-.6c.3-.1.8-.2 1.4-.2.7 0 1.3.1 1.6.4.4.3.6.7.7 1.3l-1.6.1c0-.3-.1-.4-.3-.6s-.3-.2-.6-.2c-.2 0-.4 0-.5.1s-.2.2-.2.3 0 .2.1.2c.1.1.3.1.6.2.8.2 1.3.3 1.6.5s.6.4.7.6.2.5.2.8c0 .4-.1.7-.3 1s-.5.5-.8.7-.8.2-1.4.2c-1 0-1.6-.2-2-.6-.3 0-.5-.5-.6-1.1z" fill="#ed1c24"/><path d="m139.2 236.5 1.5.5c-.1.4-.3.8-.5 1.1s-.5.5-.8.6-.7.2-1.2.2c-.6 0-1.1-.1-1.5-.3s-.7-.5-1-.9-.4-1-.4-1.7c0-.9.2-1.6.7-2.1s1.2-.8 2.1-.8c.7 0 1.3.1 1.7.4s.7.7.9 1.3l-1.5.3c-.1-.2-.1-.3-.2-.4s-.2-.2-.4-.3-.3-.1-.5-.1c-.4 0-.7.2-.9.5-.2.2-.2.6-.2 1.1 0 .6.1 1.1.3 1.3s.5.3.8.3.6-.1.8-.3.2-.4.3-.7z" fill="#fff"/><path d="m145 237.8h-2l-.3.9h-1.7l2.1-5.6h1.9l2.1 5.6h-1.8zm-.3-1.2-.6-2-.6 2z" fill="#fff"/><path d="m147.4 236.9 1.7-.1c0 .3.1.5.2.6.2.2.4.3.8.3.2 0 .4-.1.6-.2.1-.1.2-.3.2-.4s-.1-.3-.2-.4-.4-.2-.9-.3c-.8-.2-1.3-.4-1.6-.7s-.5-.6-.5-1.1c0-.3.1-.6.3-.8s.4-.5.8-.6c.3-.1.8-.2 1.4-.2.7 0 1.3.1 1.6.4.4.3.6.7.7 1.3l-1.6.1c0-.3-.1-.4-.3-.6s-.3-.2-.6-.2c-.2 0-.4 0-.5.1s-.2.2-.2.3 0 .2.1.2c.1.1.3.1.6.2.8.2 1.3.3 1.6.5s.6.4.7.6.2.5.2.8c0 .4-.1.7-.3 1s-.5.5-.8.7-.8.2-1.4.2c-1 0-1.6-.2-2-.6-.4 0-.6-.5-.6-1.1z" fill="#fff"/><path d="m153.1 236.9 1.7-.1c0 .3.1.5.2.6.2.2.4.3.8.3.2 0 .4-.1.6-.2.1-.1.2-.3.2-.4s-.1-.3-.2-.4-.4-.2-.9-.3c-.8-.2-1.3-.4-1.6-.7s-.5-.6-.5-1.1c0-.3.1-.6.3-.8s.4-.5.8-.6c.3-.1.8-.2 1.4-.2.7 0 1.3.1 1.6.4.4.3.6.7.7 1.3l-1.6.1c0-.3-.1-.4-.3-.6s-.3-.2-.6-.2c-.2 0-.4 0-.5.1s-.2.2-.2.3 0 .2.1.2c.1.1.3.1.6.2.8.2 1.3.3 1.6.5s.6.4.7.6.2.5.2.8c0 .4-.1.7-.3 1s-.5.5-.8.7-.8.2-1.4.2c-1 0-1.6-.2-2-.6-.4 0-.6-.5-.6-1.1z" fill="#fff"/><path d="m159 233.1h4.7v1.2h-2.9v.9h2.7v1.1h-2.7v1.1h3v1.3h-4.8z" fill="#fff"/><path d="m164.3 233.1h5.3v1.4h-1.8v4.2h-1.7v-4.2h-1.8z" fill="#fff"/><path d="m170 233.1h5.3v1.4h-1.8v4.2h-1.7v-4.2h-1.8z" fill="#fff"/><path d="m176.1 233.1h4.7v1.2h-2.9v.9h2.7v1.1h-2.7v1.1h3v1.3h-4.7v-5.6z" fill="#fff"/><path d="m253.3 231.6h-192c-4 0-7.3-3.3-7.3-7.3v-58.5c0-4 3.3-7.3 7.3-7.3h192c4 0 7.3 3.3 7.3 7.3v58.5c.1 4-3.2 7.3-7.3 7.3z" fill="#e0e0e0"/><path d="m246 219h-177.3c-2.6 0-4.7-2.1-4.7-4.7v-39.9c0-2.6 2.1-4.7 4.7-4.7h177.3c2.6 0 4.7 2.1 4.7 4.7v39.9c0 2.6-2.1 4.7-4.7 4.7z" fill="#999"/><path d="m64 193.4h187v1h-187z" fill="#4c4c4d"/><path d="m191.3 174.8h-67.8c-2.4 0-7.5-2-7.5-4.4 0-2.4 2-4.4 4.4-4.4h73.9c2.4 0 4.4 2 4.4 4.4 0 2.4-5 4.4-7.4 4.4z" fill="#e0e0e0"/><path d="m414.5 123h14.3v20.1h-14.3z" fill="#c2c1c0"/><circle cx="-316" cy="-154.9" fill="#bcbec0" r="0"/><path d="m421.2 123h.9v20.1h-.9z" fill="#8c8c8c"/></svg>