<svg enable-background="new 0 0 414.2 352.8" viewBox="0 0 414.2 352.8" xmlns="http://www.w3.org/2000/svg" xmlns:xlink="http://www.w3.org/1999/xlink"><clipPath id="a"><path d="m3.3 19.9h35.2v35.2h-35.2z"/></clipPath><clipPath id="b"><path d="m3.3 19.9h35.2v35.2h-35.2z"/></clipPath><clipPath id="c"><path d="m3.3 19.9h35.2v35.2h-35.2z"/></clipPath><clipPath id="d"><path d="m3.3 19.9h35.2v35.2h-35.2z"/></clipPath><clipPath id="e"><path d="m334.8 16h36v36h-36z"/></clipPath><clipPath id="f"><path d="m334.8 16h36v36h-36z"/></clipPath><clipPath id="g"><path d="m334.8 16h36v36h-36z"/></clipPath><clipPath id="h"><path d="m334.8 16h36v36h-36z"/></clipPath><path d="m296 42.3v-29.7h-177.2v20.8h-19.5v80.2c0 5.9 5.3 10.7 11.7 10.7h193.2c6.4 0 11.7-4.8 11.7-10.7v-71.3z" fill="#b54028"/><path d="m317.1 22.1-9.6-9.6c-3.2-3.2-7.6-5-12.1-5-.1 0-.2 0-.4 0-.1 0-.1 0-.2 0h-4.1c-2.6 0-4.7 2.1-4.7 4.7v3.6c0 .4-.1.8-.1 1.2v70.3c0 5.2 4.2 9.4 9.4 9.4h16.7c5.2 0 9.4-4.2 9.4-9.4v-54.9c0-3.8-1.5-7.6-4.3-10.3z" fill="#f37425"/><path d="m124.3 7.4h-4.1c-.1 0-.1 0-.2 0s-.3 0-.4 0c-4.6 0-8.9 1.8-12.1 5l-9.6 9.6c-2.7 2.7-4.3 6.5-4.3 10.4v54.7c0 5.2 4.2 9.4 9.4 9.4h16.7c5.2 0 9.4-4.2 9.4-9.4v-64.3-6-4.7c-.1-2.6-2.2-4.7-4.8-4.7z" fill="#f37425"/><path d="m104.7 15.2-6.9 6.9c-2.7 2.7-4.3 6.5-4.3 10.4v54.7c0 5.2 4.2 9.4 9.4 9.4h1.8z" fill="#e46425"/><path d="m255.7 0h-15.4-15.7-.5c-1.3 0-2.3 1-2.3 2.3v8.3h-28.8v-8.3c0-1.3-1-2.3-2.3-2.3h-.5-15.7-15.4c-6.4 0-16.6 5.3-16.6 11.7v6.8c0 6.4 5.3 11.7 11.7 11.7h106.3c6.4 0 11.7-5.3 11.7-11.7v-6.8c.1-6.4-10-11.7-16.5-11.7z" fill="#bfbebe"/><path d="m193 2.3h28.8v8.3h-28.8z" fill="#919090"/><path d="m107.2 352.3c-6 0-10.9-4.9-10.9-10.9v-231.3c0-6 4.9-10.9 10.9-10.9h25.6c3.4 0 3.4-3.4 3.4-5.6v-84.6c0-.7.5-1.2 1.2-1.2h140.5c.7 0 1.2.5 1.2 1.2v84.7c0 3.1 4.4 5.5 7.3 5.5h21.3c6 0 10.9 4.9 10.9 10.9v231.3c0 6-4.9 10.9-10.9 10.9z" fill="#fff"/><path d="m277.9 8.3c.4 0 .7.3.7.7v8 5.4 71.2c0 3.4 4.8 6 7.8 6h21.3c5.8 0 10.4 4.7 10.4 10.4v231.3c0 5.8-4.7 10.4-10.4 10.4h-200.5c-5.8 0-10.4-4.7-10.4-10.4v-231.2c0-5.8 4.7-10.4 10.4-10.4h25.6c3.9 0 3.9-3.8 3.9-6.1v-71.2-5.4-8c0-.4.3-.7.7-.7h8.1 124.4zm0-1h-8.1-124.3-8.1c-.9 0-1.7.8-1.7 1.7v8 5.4 71.2c0 2.8-.2 5.1-2.9 5.1h-25.6c-6.3 0-11.4 5.2-11.4 11.4v231.3c0 6.3 5.2 11.4 11.4 11.4h200.5c6.3 0 11.4-5.2 11.4-11.4v-231.3c0-6.3-5.2-11.4-11.4-11.4h-21.3c-2.7 0-6.8-2.3-6.8-5v-71.2-5.5-8c0-1-.7-1.7-1.7-1.7z" fill="#d0d2d3"/><path d="m106.9 98.7h-4.6c-3.6 0-6.6 3-6.6 6.6v241c0 3.6 3 6.6 6.6 6.6h4.6z" fill="#d5d6d5"/><path d="m310.1 15.2 6.9 6.9c2.7 2.7 4.3 6.5 4.3 10.4v54.7c0 5.2-4.2 9.4-9.4 9.4h-1.8z" fill="#e46425"/><path d="m307.9 98.7h4.6c3.6 0 6.6 3 6.6 6.6v241c0 3.6-3 6.6-6.6 6.6h-4.6z" fill="#d5d6d5"/><path d="m308 346h-99.1-2.9-99.1c0 1.8-10.5 3.6-9.4 4.8 1.2 1.2 2.9 2 4.7 2h103.8 2.8 103.7c1.9 0 3.5-.8 4.7-2 1.3-1.2-9.2-3-9.2-4.8z" fill="#aaa"/><path d="m93.5 39.4h35.4v1.7h-35.4z" fill="#aa4925"/><path d="m93.5 49h35.4v1.7h-35.4z" fill="#aa4925"/><path d="m93.5 56.9h35.4v1.7h-35.4z" fill="#aa4925"/><path d="m93.5 64.8h35.4v1.7h-35.4z" fill="#aa4925"/><path d="m93.5 72.8h35.4v1.7h-35.4z" fill="#aa4925"/><g fill="#b9b9b9"><path d="m95.7 170.4h35.3v1.6h-35.3z"/><path d="m283.8 170.4h35.3v1.6h-35.3z"/><path d="m95.7 179.2h35.3v1.6h-35.3z"/><path d="m283.8 179.2h35.3v1.6h-35.3z"/><path d="m95.7 187.9h35.3v1.6h-35.3z"/><path d="m283.8 187.9h35.3v1.6h-35.3z"/><path d="m95.7 196.7h35.3v1.6h-35.3z"/><path d="m283.8 196.7h35.3v1.6h-35.3z"/><path d="m95.7 205.5h35.3v1.6h-35.3z"/><path d="m283.8 205.5h35.3v1.6h-35.3z"/><path d="m95.7 214.3h35.3v1.6h-35.3z"/><path d="m283.8 214.3h35.3v1.6h-35.3z"/><path d="m95.7 223.1h35.3v1.6h-35.3z"/><path d="m283.8 223.1h35.3v1.6h-35.3z"/><path d="m95.7 231.8h35.3v1.6h-35.3z"/><path d="m283.8 231.8h35.3v1.6h-35.3z"/><path d="m95.7 240.6h35.3v1.6h-35.3z"/><path d="m283.8 240.6h35.3v1.6h-35.3z"/><path d="m95.7 249.4h35.3v1.6h-35.3z"/><path d="m283.8 249.4h35.3v1.6h-35.3z"/><path d="m95.7 258.2h35.3v1.6h-35.3z"/><path d="m283.8 258.2h35.3v1.6h-35.3z"/><path d="m95.7 267h35.3v1.6h-35.3z"/><path d="m283.8 267h35.3v1.6h-35.3z"/><path d="m95.7 275.8h35.3v1.6h-35.3z"/><path d="m283.8 275.8h35.3v1.6h-35.3z"/><path d="m95.7 284.5h35.3v1.6h-35.3z"/><path d="m283.8 284.5h35.3v1.6h-35.3z"/><path d="m95.7 293.3h35.3v1.6h-35.3z"/><path d="m283.8 293.3h35.3v1.6h-35.3z"/><path d="m95.7 302.1h35.3v1.6h-35.3z"/><path d="m283.8 302.1h35.3v1.6h-35.3z"/></g><path d="m135.7 39.4h143.9v1.7h-143.9z" fill="#bbbdbf"/><path d="m135.7 49h143.9v1.7h-143.9z" fill="#bbbdbf"/><path d="m135.7 56.9h143.9v1.7h-143.9z" fill="#bbbdbf"/><path d="m135.7 64.8h143.9v1.7h-143.9z" fill="#bbbdbf"/><path d="m135.7 72.8h143.9v1.7h-143.9z" fill="#bbbdbf"/><path d="m286 39.4h35.4v1.7h-35.4z" fill="#aa4925"/><path d="m286 49h35.4v1.7h-35.4z" fill="#aa4925"/><path d="m286 56.9h35.4v1.7h-35.4z" fill="#aa4925"/><path d="m286 64.8h35.4v1.7h-35.4z" fill="#aa4925"/><path d="m286 72.8h35.4v1.7h-35.4z" fill="#aa4925"/><circle cx="208.8" cy="236.3" fill="none" r="57.1" stroke="#d5d6d5" stroke-miterlimit="10" stroke-width="2"/><path d="m208.8 282.3c-.5 0-1-.4-1-1v-89.1c0-.5.4-1 1-1 .5 0 1 .4 1 1v89.1c-.1.5-.5 1-1 1z" fill="#dbdbda"/><path d="m163.3 236.7c0-.5.4-1 1-1h89.1c.5 0 1 .4 1 1 0 .5-.4 1-1 1h-89.1c-.5 0-1-.4-1-1z" fill="#dbdbda"/><path d="m176.7 204.5c.4-.4 1-.4 1.4 0l63 63c.4.4.4 1 0 1.4-.4.4-1 .4-1.4 0l-63-63c-.4-.4-.4-1 0-1.4z" fill="#dbdbda"/><path d="m241 204.6c.4.4.4 1 0 1.4l-63 63c-.4.4-1 .4-1.4 0-.4-.4-.4-1 0-1.4l63-63c.4-.4 1-.4 1.4 0z" fill="#dbdbda"/><circle cx="208.8" cy="236.3" fill="#404041" r="30.3"/><circle cx="208.8" cy="236.3" fill="#231f20" r="22"/><path d="m282.8 129.1 15.5-23.1h-180.4c-.3 0-.6.1-.9.3l15.3 22.8z" fill="#58595b"/><path d="m283.9 131h-152.6l-15.1-22.6v45.2c0 1 .8 1.8 1.8 1.8h180.5c1 0 1.8-.8 1.8-1.8v-45.9c0-.3-.1-.6-.2-.8z" fill="#e04b26"/><path d="m157.1 114.1c-.1.1-.2.2-.3.3s-.1.3-.1.4v.4 5.2c0 .3 0 .5.1.6.1.2.1.3.2.4s.2.2.3.2.2.1.3.1h5.6c.3 0 .5.1.7.4.2.2.3.6.3.9 0 .4-.1.7-.3.9s-.4.4-.7.4h-5.6c-.3 0-.6-.1-.9-.2s-.6-.4-.9-.7-.5-.7-.7-1.2-.3-1.1-.3-1.8v-5.2c0-.4 0-.8.1-1.3s.3-.9.5-1.3.5-.7.9-1 .8-.4 1.3-.4h5.6c.3 0 .5.1.7.4.2.2.3.6.3.9 0 .4-.1.7-.3.9s-.4.4-.7.4h-5.6c-.2.2-.4.2-.5.3z" fill="#e04b26"/><path d="m172.7 111.6c.3.1.6.4.9.7s.5.7.7 1.2.3 1.1.3 1.8v5.2c0 .4 0 .8-.1 1.3-.1.4-.3.9-.5 1.3s-.5.7-.9 1-.8.4-1.3.4h-3.8c-.3 0-.6-.1-.9-.2s-.6-.4-.9-.7-.5-.7-.7-1.2-.3-1.1-.3-1.8v-5.2c0-.4 0-.8.1-1.3s.3-.9.5-1.3.5-.7.9-1 .8-.4 1.3-.4h3.8c.3 0 .6.1.9.2zm0 8.9v-5.2c0-.3 0-.5-.1-.6-.1-.2-.1-.3-.2-.4s-.2-.2-.3-.2-.2-.1-.3-.1h-3.8c-.2 0-.3 0-.5.1-.1.1-.2.2-.3.3s-.1.3-.1.4v.4 5.2c0 .3 0 .5.1.6.1.2.1.3.2.4s.2.2.3.2.2.1.3.1h3.8c.2 0 .3 0 .5-.1.1-.1.2-.2.3-.3s.1-.3.1-.4c0-.2 0-.3 0-.4z" fill="#e04b26"/><path d="m184.8 111.8c.2.2.3.6.3.9v10.3c0 .3-.1.5-.2.7s-.2.4-.4.5-.4.1-.5.1c-.2 0-.3-.2-.5-.4l-5.9-8.1v7.2c0 .4-.1.7-.3.9s-.4.4-.7.4-.5-.1-.7-.4-.3-.6-.3-.9v-10.3c0-.3.1-.5.2-.7s.2-.4.4-.5.4-.1.5-.1c.2 0 .3.2.5.4l5.9 8.1v-7.2c0-.4.1-.7.3-.9s.4-.4.7-.4.5.1.7.4z" fill="#e04b26"/><path d="m195.2 111.8c.2.2.3.6.3.9 0 .4-.1.7-.3.9s-.4.4-.7.4h-2.8v9c0 .4-.1.7-.3.9s-.4.4-.7.4-.5-.1-.7-.4c-.2-.2-.3-.6-.3-.9v-9h-2.8c-.3 0-.5-.1-.7-.4s-.3-.6-.3-.9c0-.4.1-.7.3-.9s.4-.4.7-.4h7.5c.4 0 .7.1.8.4z" fill="#e04b26"/><path d="m205.6 117.3c-.2.5-.5.9-.9 1.2.4.5.7 1.1.9 1.9.2.7.3 1.6.3 2.7 0 .4-.1.7-.3.9s-.4.4-.7.4-.5-.1-.7-.4c-.2-.2-.3-.6-.3-.9 0-.6-.1-1.1-.2-1.5s-.3-.8-.4-1.1c-.2-.3-.4-.5-.6-.7s-.4-.3-.6-.4-.4-.1-.6-.2c-.2 0-.3 0-.4 0h-2.8v3.9c0 .4-.1.7-.3.9s-.4.4-.7.4-.5-.1-.7-.4c-.2-.2-.3-.6-.3-.9v-10.3c0-.4.1-.7.3-.9s.4-.4.7-.4h5.6c.3 0 .6.1.9.2s.6.4.9.7.5.7.7 1.2.3 1.1.3 1.8c.3.7.1 1.4-.1 1.9zm-2.4-.7c.1 0 .2 0 .3-.1.1 0 .2-.1.3-.2s.2-.2.2-.4c.1-.2.1-.4.1-.6 0-.3 0-.5-.1-.6-.1-.2-.1-.3-.2-.4s-.2-.2-.3-.2-.2-.1-.3-.1h-4.7v2.6z" fill="#e04b26"/><path d="m214.5 111.6c.3.1.6.4.9.7s.5.7.7 1.2.3 1.1.3 1.8v5.2c0 .4 0 .8-.1 1.3-.1.4-.3.9-.5 1.3s-.5.7-.9 1-.8.4-1.3.4h-3.8c-.3 0-.6-.1-.9-.2s-.6-.4-.9-.7-.5-.7-.7-1.2-.3-1.1-.3-1.8v-5.2c0-.4 0-.8.1-1.3s.3-.9.5-1.3.5-.7.9-1 .8-.4 1.3-.4h3.8c.3 0 .6.1.9.2zm0 8.9v-5.2c0-.3 0-.5-.1-.6-.1-.2-.1-.3-.2-.4s-.2-.2-.3-.2-.2-.1-.3-.1h-3.8c-.2 0-.3 0-.5.1-.1.1-.2.2-.3.3s-.1.3-.1.4v.4 5.2c0 .3 0 .5.1.6.1.2.1.3.2.4s.2.2.3.2.2.1.3.1h3.8c.2 0 .3 0 .5-.1.1-.1.2-.2.3-.3s.1-.3.1-.4c0-.2 0-.3 0-.4z" fill="#e04b26"/><path d="m226.6 122.1c.2.2.3.6.3.9 0 .4-.1.7-.3.9s-.4.4-.7.4h-7.5c-.3 0-.5-.1-.7-.4-.2-.2-.3-.6-.3-.9v-10.3c0-.4.1-.7.3-.9s.4-.4.7-.4.5.1.7.4c.2.2.3.6.3.9v9h6.6c.2.1.4.2.6.4z" fill="#e04b26"/><path d="m237.1 122.1c.2.2.3.6.3.9 0 .4-.1.7-.3.9s-.4.4-.7.4h-7.5c-.3 0-.5-.1-.7-.4-.2-.2-.3-.6-.3-.9v-10.3c0-.4.1-.7.3-.9s.4-.4.7-.4.5.1.7.4c.2.2.3.6.3.9v9h6.6c.2.1.4.2.6.4z" fill="#e04b26"/><path d="m240.4 114.1c-.1.1-.2.2-.3.3s-.1.3-.1.4v.4 1.3h2.8c.3 0 .5.1.7.4.2.2.3.6.3.9 0 .4-.1.7-.3.9s-.4.4-.7.4h-2.8v1.3c0 .3 0 .5.1.6.1.2.1.3.2.4s.2.2.3.2.2.1.3.1h5.6c.3 0 .5.1.7.4.2.2.3.6.3.9 0 .4-.1.7-.3.9s-.4.4-.7.4h-5.6c-.3 0-.6-.1-.9-.2s-.6-.4-.9-.7-.5-.7-.7-1.2-.3-1.1-.3-1.8v-5.2c0-.4 0-.8.1-1.3s.3-.9.5-1.3.5-.7.9-1 .8-.4 1.3-.4h5.6c.3 0 .5.1.7.4.2.2.3.6.3.9 0 .4-.1.7-.3.9s-.4.4-.7.4h-5.6c-.2.2-.4.2-.5.3z" fill="#e04b26"/><path d="m257.5 117.3c-.2.5-.5.9-.9 1.2.4.5.7 1.1.9 1.9.2.7.3 1.6.3 2.7 0 .4-.1.7-.3.9s-.4.4-.7.4-.5-.1-.7-.4c-.2-.2-.3-.6-.3-.9 0-.6-.1-1.1-.2-1.5s-.3-.8-.4-1.1c-.2-.3-.4-.5-.6-.7s-.4-.3-.6-.4-.4-.1-.6-.2-.3 0-.4 0h-2.8v3.9c0 .4-.1.7-.3.9s-.4.4-.7.4-.5-.1-.7-.4c-.2-.2-.3-.6-.3-.9v-10.3c0-.4.1-.7.3-.9s.4-.4.7-.4h5.6c.3 0 .6.1.9.2s.6.4.9.7.5.7.7 1.2.3 1.1.3 1.8c.3.7.1 1.4-.1 1.9zm-2.5-.7c.1 0 .2 0 .3-.1.1 0 .2-.1.3-.2s.2-.2.2-.4c.1-.2.1-.4.1-.6 0-.3 0-.5-.1-.6-.1-.2-.1-.3-.2-.4s-.2-.2-.3-.2-.2-.1-.3-.1h-4.7v2.6z" fill="#e04b26"/><path d="m244.3 146.3c.6-.6 1-1.2 1.4-1.8 1.1-1.6 2.2-3.3 3.4-4.9 1.3-1.9 3.2-2.6 5.7-2.2.3 0 .7.1.7.5-.1.4 0 .9-.6 1.1-.5.2-1.1.2-1.6.1-.6 0-.9.2-1.3.6-2.1 2.9-4.2 5.7-6.3 8.6-.4.5-.8.7-1.5.7-2.5 0-2.5 0-2.5-2.3 0-2.8 0-5.6 0-8.4 0-1 .2-1.1 1.2-1 1.3.1 1.4.1 1.3 1.4 0 1.8-.1 3.5-.1 5.3-.1.8 0 1.5.2 2.3z" fill="#fff"/><path d="m192.1 147.3c-.1.5-.2 1-.4 1.5-.1.5-.6.6-1.1.6-2.5.1-5-1.4-5.6-3.4s.9-4.4 3.2-5.4c3.2-1.4 6.8-.2 7.8 2.6.3.9.3 1.7 0 2.6-.2.9-.6 1.8-.8 2.7-.1.6-.5.9-1.2.8-.3 0-.5 0-.8 0-.7 0-.8-.2-.6-.7.3-1.1.6-2.3 1-3.4.3-1 .1-1.9-.9-2.5-1-.7-2.1-.8-3.3-.3-1.5.6-2.2 2.1-1.8 3.4.4 1.2 1.9 1.9 3.6 1.5.3-.1.6-.2.9 0z" fill="#fff"/><path d="m231.3 146.6c1.2.8 2.4.5 3.6.2.4 1.5-.3 2.3-1.9 2.3-2.4 0-4.4-1.2-5.1-2.9-.7-1.9.1-3.9 2-5.3 2.9-2 6.9-1.4 8.6 1.2.6.9.5 1.1-.6 1.6-1.9.8-3.9 1.6-5.8 2.4-.3.2-.6.2-.8.5zm-.9-1.7c1.7-.7 3.5-1.3 5.1-2.2-.9-.9-2.2-1.1-3.5-.6-1.1.6-1.8 1.6-1.6 2.8z" fill="#fff"/><path d="m210 146.6c1.1.8 2.3.5 3.6.1 0 .8-.3 1.5-.5 2.1-.1.2-.4.3-.6.3-3.4.5-6.6-1.7-6.3-4.8.3-2.8 3.6-5 6.9-4.5 2 .3 3.4 1.2 4.2 2.8.3.5.2.8-.5 1-2 .7-4 1.5-6 2.3-.3.4-.6.4-.8.7zm-1.1-1.7c1-.2 4.6-1.6 5.3-2.1-.7-.9-2.2-1.2-3.4-.7-1.3.4-2.1 1.6-1.9 2.8z" fill="#fff"/><path d="m274.2 143.8c.1 3-2.6 5.4-5.3 5.5-1.5.1-2.9 0-4.2-.9-2.4-1.7-2.6-4-.7-6.2 2.1-2.3 5.5-2.8 8.2-1.1 1.2.8 1.9 1.9 2 2.7zm-6 3.7c1.8 0 3.4-1.3 3.4-2.8 0-1.4-1.5-2.5-3.1-2.5-1.7 0-3.3 1.5-3.3 3 0 1.3 1.3 2.3 3 2.3z" fill="#fff"/><path d="m279.6 142.3c-1.4 0-1.3 0-1.7 1.3-.5 1.7-1 3.3-1.6 5-.1.3-.2.6-.6.6-.6-.1-1.2.2-1.8-.1-.2-.1-.1-.4 0-.6.6-2.5 1.5-4.9 2.2-7.3.1-.4.4-.7 1-.6h4.2c1.9 0 2.8.8 2.4 2.5-.4 1.9-1 3.8-1.6 5.7-.2.5-.6.6-1.2.5-1.7-.1-1.6-.1-1.2-1.5.4-1.3.8-2.6 1.1-3.8.5-1.6.5-1.7-1.2-1.7z" fill="#fff"/><path d="m178.3 144c-.2-3.5 3-5.8 6-6.3 1-.2 2-.2 3.1-.2.7 0 .9.1.8.8-.3 1.3-.3 1.4-1.9 1.4-1.4 0-2.8.3-3.9 1.1-1.5 1.1-1.9 2.5-1.4 4.2.4 1.5 1.8 2 3.2 2.3.7.1.8.3.6.8-.5 1.7-.3 1.9-2.6 1.2-2.3-.8-4.1-2.8-3.9-5.3z" fill="#fff"/><path d="m150.1 148.5c-.2 1.1-.5 2-.6 3-.1.9-.6 1.1-1.6.8.7-3.6 1.4-7.2 2.1-10.8.5 0 1.1-.3 1.5.3 1.1-.7 2.3-1 3.7-1 3 0 4.7 1.7 4.3 4.4-.4 3.1-4.4 5.3-7.7 4.4-.5-.3-1.1-.6-1.7-1.1zm5-6.8c-1.5 0-4 1.4-4.4 3.6-.3 2.2 1.7 3.9 4.1 3.1 1.6-.5 2.8-1.5 3.3-3 .6-1.8-.9-3.7-3-3.7z" fill="#fff"/><path d="m168.7 147.7c-1.5 2-5.3 2.6-7.3 1.3-1.6-1.1-2.1-3.2-1.2-5.1 1.2-2.4 4.2-3.7 7-3.1.9.2 1.7.6 2.3 1.5-2.4 1.9-4.8 3.7-7.3 5.5.8.8 1.9 1 3.2.6.5-.2.9-.4 1.3-.7.9-.5.9-.5 2 0zm-7.3-.9c.1 0 .2-.1.3-.1 1.9-1.4 3.8-2.9 5.7-4.4-1.3-.9-2.8-.8-4.4.2-1.6 1.2-2.3 2.9-1.6 4.3z" fill="#fff"/><path d="m220.8 147.2c-.2.4-.3.5-.4.7-.4.4-.5 1.2-1.4 1.1-1-.2-1.7-.7-1.9-1.6-.2-.5-.1-1 0-1.4.7-2.6 1.4-5.3 2.2-7.9.1-.4.4-.8 1-.7h1.6c.3.8-.1 1.4-.3 2s-.1.8.6.8c.4 0 .9-.1.9.5 0 .9-.4 1.6-1 1.6-1.1-.1-1.5.3-1.6 1.2s-.4 1.7-.7 2.5c-.2.6-.4 1.3 1 1.2z" fill="#fff"/><path d="m227.3 137.3c0 1-.6 1.8-.5 2.6.1.1.1.1.2.1 1.5.1 1.7.5 1 1.7-.2.4-.7.4-1.1.4-.6 0-.9.1-1 .7-.2 1-.6 2-.8 3-.2.7-.2 1.3 1 1.4-.4.7-.6 1.5-1.4 1.7-.8.1-1.5-.4-2-1.1-.4-.5-.4-1.1-.3-1.7.6-2.8 1.5-5.5 2.3-8.3.1-.4.4-.6.9-.6.5.1 1.1.1 1.7.1z" fill="#fff"/><path d="m140.1 138.3c-.7.4-1.2.5-1.6-.3-.4-.7-1.2-.8-2-.5-.9.4-1.5 1-1.6 1.9-.1.8.5 1.3 1.3 1.7.3.2.7.3 1.1.5 2.2.9 3.2 2.3 2.8 4.1-.4 2-2.4 3.7-4.5 3.9-1.3.1-2.6 0-3.6-.9-.4-.4-.7-.9-.8-1.4-.2-1 0-1.2 1.1-1.2 0 0 .1.1.1.1.3 1.5 1 2.3 2.3 2.5s3-.7 3.7-2c.8-1.4.5-2.6-.9-3.6-.5-.4-1.1-.6-1.7-.8-1.8-.7-2.5-1.7-2.2-3.2s1.8-2.6 3.5-2.6 2.6.5 3 1.6z" fill="#fff"/><path d="m199.9 149.2c.1-.9.1-1.8 1.1-2.5.7-.4.7-1.3.9-2 .3-1.3.6-2.6 1.7-3.6.7-.6 1.5-1 2.5-1.1.6 0 .8.2.6.7-.2.7-.3 1.5-1.2 2-.3.2-.4.6-.5.9-.3.9-.5 1.8-.7 2.7-.6 1.9-2.4 3.1-4.4 2.9z" fill="#fff"/><path d="m196.4 149.3c-.3 0-.7-.1-.6-.4.2-.7.1-1.5.9-2s.8-1.3 1-2c.3-.9.4-1.9 1-2.8.7-1.1 1.7-1.7 3-2 .6-.1.9 0 .8.6-.2.7-.2 1.6-1.1 2-.3.2-.4.5-.5.8-.3.9-.5 1.9-.8 2.8-.5 1.7-2.2 3-3.7 3z" fill="#fff"/><path d="m141.1 141.5h1.4c-.2 1.2-.4 2.4-.7 3.6-.1.5-.2.9-.3 1.4-.1.8.2 1.4.8 1.8.7.4 1.4.5 2.1.1 1-.5 1.7-1.1 1.9-2.2.3-1.5.6-3.1.9-4.6.4-.2.9-.1 1.4 0-.4 1.9-.5 3.9-1.3 5.7-.8 2-3.9 3-6 2-1.1-.5-1.6-1.3-1.4-2.3.5-1.9.9-3.7 1.2-5.5z" fill="#fff"/><path d="m259 140.2c.9 0 1.1.2.9.8-.3.7-.7 1.3-1.3 1.9-.9.8-.9 2-1.2 3.1-.5 1.6-1.5 2.8-3.4 3.2-.9.2-1.1 0-.9-.8.2-.7.3-1.3 1.1-1.7.5-.2.5-.8.7-1.3.4-1.2.6-2.5 1.3-3.5s1.7-1.5 2.8-1.7z" fill="#fff"/><path d="m259.7 149.2c-.2 0-.5 0-.7-.1-.5 0-.6-.2-.5-.7.7-2.5 1.4-5 2-7.4.1-.4.5-.5.8-.6h.5c1.5 0 1.6.1 1.2 1.4-.7 2.2-1.3 4.4-2 6.6-.1.7-.6.9-1.3.8z" fill="#fff"/><path d="m254.5 140.4c0 1.1-.5 2.2-.8 3.3-.4 1.6-.9 3.1-1.3 4.6-.1.3-.1.7-.5.8-.6.1-1.4.2-2-.1-.4-.1-.2-.6-.1-.9.7-2.1 1.2-4.3 1.8-6.4.4-1.5.8-1.7 2.9-1.3z" fill="#fff"/><path d="m170.6 141.5h1.2c.3.1 0 .4.2.6.8-.4 1.6-.9 2.6-.7 0 .5 0 .8-.7 1.1-1.5.6-2.5 1.7-2.8 3.1-.3 1.3-.5 2.5-.8 3.8-.5.1-.9.1-1.4 0 .7-2.7 1.2-5.3 1.7-7.9z" fill="#fff"/><path d="m261.4 139c.1-1.2 1.1-1.8 2.3-1.4.3.1.3.3.3.5-.1.4-.1.9-.6 1-.7.2-1.4.2-2-.1z" fill="#fff"/><path d="m187.7 27.9c-.1 0-.2.1-.3.1-.1.1-.1.1-.2.3-.1.1-.1.2-.1.4s0 .3.1.4.1.2.2.3.2.1.3.1h.3 3.3c.2 0 .5 0 .8.1s.6.2.8.4.5.4.6.8c.2.3.2.7.2 1.1 0 .5-.1.8-.2 1.1-.2.3-.4.6-.6.8s-.5.3-.8.4-.6.1-.8.1h-4.9c-.2 0-.4-.1-.6-.2-.2-.2-.2-.4-.2-.6s.1-.4.2-.6c.2-.2.4-.2.6-.2h4.9.3c.1 0 .2-.1.3-.1.1-.1.1-.1.2-.3.1-.1.1-.2.1-.4s0-.3-.1-.4-.1-.2-.2-.3-.2-.1-.3-.1-.2 0-.3 0h-3.3c-.3 0-.5 0-.8-.1s-.6-.2-.8-.4-.5-.4-.6-.8c-.2-.3-.2-.7-.2-1.1s.1-.8.2-1.1c.2-.3.4-.6.6-.8s.5-.3.8-.4.6-.1.8-.1h4.9c.2 0 .4.1.6.2.2.2.2.4.2.6s-.1.4-.2.6c-.2.2-.4.2-.6.2h-4.9c-.1 0-.2 0-.3 0z" fill="#e5e5e4"/><path d="m202.6 26.5c.2.2.2.4.2.6s-.1.4-.2.6c-.2.2-.4.2-.6.2h-2.5v5.7c0 .2-.1.4-.2.6-.2.2-.4.2-.6.2s-.4-.1-.6-.2c-.2-.2-.2-.4-.2-.6v-5.7h-2.5c-.2 0-.4-.1-.6-.2-.2-.2-.2-.4-.2-.6s.1-.4.2-.6c.2-.2.4-.2.6-.2h6.6c.3-.1.4 0 .6.2z" fill="#e5e5e4"/><path d="m210 26.4c.3.1.6.2.8.4s.5.4.6.8c.2.3.2.7.2 1.1v4.9c0 .2-.1.4-.2.6-.2.2-.4.2-.6.2s-.4-.1-.6-.2c-.2-.2-.2-.4-.2-.6v-2.5h-4.9v2.5c0 .2-.1.4-.2.6-.2.2-.4.2-.6.2s-.4-.1-.6-.2c-.2-.2-.2-.4-.2-.6v-4.9c0-.2 0-.5.1-.8s.2-.6.4-.8.4-.5.8-.6.7-.2 1.1-.2h3.3c.2-.1.5 0 .8.1zm0 3.1v-.8c0-.2 0-.3-.1-.4s-.1-.2-.2-.3-.2-.1-.3-.1-.2 0-.3 0h-3.3c-.2 0-.3 0-.4.1s-.2.1-.3.2-.1.2-.1.3v.3.8h5z" fill="#e5e5e4"/><path d="m220.5 30c-.2.3-.5.6-.8.8.3.3.6.7.8 1.2s.3 1 .3 1.7c0 .2-.1.4-.2.6-.2.2-.4.2-.6.2s-.4-.1-.6-.2c-.2-.2-.2-.4-.2-.6 0-.4-.1-.7-.2-1s-.2-.5-.4-.7-.3-.3-.5-.4-.4-.2-.6-.2c-.2-.1-.3-.1-.5-.1-.1 0-.3 0-.3 0h-2.5v2.5c0 .2-.1.4-.2.6-.2.2-.4.2-.6.2s-.4-.1-.6-.2c-.2-.2-.2-.4-.2-.6v-6.6c0-.2.1-.4.2-.6.2-.2.4-.2.6-.2h4.9c.2 0 .5 0 .8.1s.6.2.8.4.5.4.6.8c.2.3.2.7.2 1.1.1.4 0 .8-.2 1.2zm-2.2-.5h.3c.1 0 .2-.1.3-.1.1-.1.1-.1.2-.3.1-.1.1-.2.1-.4s0-.3-.1-.4-.1-.2-.2-.3-.2-.1-.3-.1-.2 0-.3 0h-4.1v1.6z" fill="#e5e5e4"/><path d="m229.4 26.5c.2.2.2.4.2.6s-.1.4-.2.6c-.2.2-.4.2-.6.2h-2.5v5.7c0 .2-.1.4-.2.6-.2.2-.4.2-.6.2s-.4-.1-.6-.2c-.2-.2-.2-.4-.2-.6v-5.7h-2.5c-.2 0-.4-.1-.6-.2-.2-.2-.2-.4-.2-.6s.1-.4.2-.6c.2-.2.4-.2.6-.2h6.6c.2-.1.4 0 .6.2z" fill="#e5e5e4"/><path d="m144.2 34.2v-4.6-4.7l15.7 4.7z" fill="#e5e5e4"/><path d="m271.9 24.9v4.5 4.8l-15.7-4.8z" fill="#e5e5e4"/><path d="m72.6 17.1h-68c-2 0-3.6 1.6-3.6 3.6v33.2c0 2 1.6 3.6 3.6 3.6h68c2 0 3.6-1.6 3.6-3.6v-33.2c0-2-1.6-3.6-3.6-3.6" fill="#f5f4f4"/><path d="m4.6 17.1v1h68c1.5 0 2.7 1.2 2.7 2.7v33.2c0 1.5-1.2 2.7-2.7 2.7h-68c-1.5 0-2.7-1.2-2.7-2.7v-33.3c0-1.5 1.2-2.7 2.7-2.7l0-.9v-1c-2.5 0-4.6 2-4.6 4.6v33.2c0 2.5 2 4.6 4.6 4.6h68c2.5 0 4.6-2 4.6-4.6v-33.2c0-2.5-2-4.6-4.6-4.6h-68z" fill="#35485c"/><path d="m59 40.6h-6.2l-1.4 3.9h-2l5.6-14.9h1.7l5.7 14.8h-2zm-5.6-1.6h5l-2.5-7z" fill="#35485c"/><path clip-path="url(#a)" d="m32 41.7c-2.7 0-4.9-2.2-4.9-4.9s2.2-4.9 4.9-4.9 4.9 2.2 4.9 4.9-2.2 4.9-4.9 4.9m-10.2-8c-2.7 0-4.9-2.2-4.9-4.9s2.2-4.9 4.9-4.9 4.9 2.2 4.9 4.9-2.2 4.9-4.9 4.9m-1.7 17.4c-2.7 0-4.9-2.2-4.9-4.9s2.2-4.9 4.9-4.9 4.9 2.2 4.9 4.9c-.1 2.8-2.3 4.9-4.9 4.9m-10.2-8.2c-2.7 0-4.9-2.2-4.9-4.9s2.2-4.9 4.9-4.9 4.9 2.2 4.9 4.9c0 2.8-2.2 4.9-4.9 4.9m11.1-23c-9.7 0-17.6 7.9-17.6 17.6s7.9 17.6 17.6 17.6 17.6-7.9 17.6-17.6-7.9-17.6-17.6-17.6" fill="#35485c"/><path clip-path="url(#b)" d="m23.5 46.3c0 1.9-1.5 3.4-3.4 3.4s-3.4-1.5-3.4-3.4 1.5-3.4 3.4-3.4 3.4 1.5 3.4 3.4" fill="#35485c"/><path clip-path="url(#c)" d="m13.6 38.1c0 2-1.6 3.6-3.6 3.6s-3.6-1.6-3.6-3.6 1.6-3.6 3.6-3.6 3.6 1.6 3.6 3.6" fill="#35485c"/><path clip-path="url(#d)" d="m25.2 29c0 1.9-1.5 3.4-3.4 3.4s-3.4-1.5-3.4-3.4 1.5-3.4 3.4-3.4c1.9-.1 3.4 1.5 3.4 3.4" fill="#35485c"/><path d="m404.7 13.7h-68c-2 0-3.6 1.6-3.6 3.6v33.2c0 2 1.6 3.6 3.6 3.6h68c2 0 3.6-1.6 3.6-3.6v-33.2c0-2-1.6-3.6-3.6-3.6" fill="#f5f4f4"/><path d="m336.7 13.7v1h68c1.5 0 2.7 1.2 2.7 2.7v33.2c0 1.5-1.2 2.7-2.7 2.7h-68c-1.5 0-2.7-1.2-2.7-2.7v-33.3c0-1.5 1.2-2.7 2.7-2.7v-.9-1c-2.5 0-4.6 2-4.6 4.6v33.2c0 2.5 2 4.6 4.6 4.6h68c2.5 0 4.6-2 4.6-4.6v-33.2c0-2.5-2-4.6-4.6-4.6h-68z" fill="#35485c"/><path d="m382.9 41v-14.8h4.9c1.6 0 2.8.3 3.6 1s1.2 1.7 1.2 3c0 .7-.2 1.3-.6 1.8s-.9.9-1.6 1.2c.8.2 1.4.7 1.9 1.3s.7 1.4.7 2.2c0 1.3-.4 2.4-1.3 3.1-.9.8-2.1 1.1-3.7 1.1zm2-6.9v5.3h3.2c.9 0 1.6-.2 2.2-.7.5-.5.8-1.1.8-2 0-1.8-1-2.7-2.9-2.7zm0-1.6h3c.9 0 1.5-.2 2-.6s.8-1 .8-1.7c0-.8-.2-1.4-.7-1.8s-1.2-.6-2.2-.6h-2.9z" fill="#35485c"/><path clip-path="url(#e)" d="m364.2 38.3c-2.7 0-5-2.2-5-5 0-2.7 2.2-5 5-5 2.7 0 5 2.2 5 5-.1 2.7-2.3 5-5 5m-10.5-8.2c-2.7 0-5-2.2-5-5 0-2.7 2.2-5 5-5 2.7 0 5 2.2 5 5s-2.2 5-5 5m-1.8 17.8c-2.7 0-5-2.2-5-5 0-2.7 2.2-5 5-5 2.7 0 5 2.2 5 5s-2.2 5-5 5m-10.3-8.4c-2.7 0-5-2.2-5-5 0-2.7 2.2-5 5-5 2.7 0 5 2.2 5 5s-2.3 5-5 5m11.3-23.5c-9.9 0-18 8-18 18 0 9.9 8 18 18 18 9.9 0 18-8 18-18-.1-10-8.1-18-18-18" fill="#35485c"/><path clip-path="url(#f)" d="m367.7 33.3c0 2-1.6 3.5-3.5 3.5-2 0-3.5-1.6-3.5-3.5 0-2 1.6-3.5 3.5-3.5s3.5 1.5 3.5 3.5" fill="#35485c"/><path clip-path="url(#g)" d="m345.3 34.6c0 2-1.7 3.7-3.7 3.7s-3.7-1.7-3.7-3.7 1.7-3.7 3.7-3.7 3.7 1.6 3.7 3.7" fill="#35485c"/><path clip-path="url(#h)" d="m357.2 25.2c0 1.9-1.6 3.5-3.5 3.5s-3.5-1.6-3.5-3.5 1.6-3.5 3.5-3.5 3.5 1.6 3.5 3.5" fill="#35485c"/><path d="m410.2 216.7h-109.7c-2 0-3.6 1.6-3.6 3.6v33.1c0 2 1.6 3.6 3.6 3.6h109.7c2 0 3.6-1.6 3.6-3.6v-33.1c0-2-1.6-3.6-3.6-3.6" fill="#f5f4f4"/><path d="m300.5 216.7v.4h109.7c1.8 0 3.2 1.4 3.2 3.2v33.1c0 1.8-1.4 3.2-3.2 3.2h-109.7c-1.8 0-3.2-1.4-3.2-3.2v-33.1c0-1.8 1.4-3.2 3.2-3.2v-.4-.4c-2.2 0-4 1.8-4 4v33.1c0 2.2 1.8 4 4 4h109.7c2.2 0 4-1.8 4-4v-33.1c0-2.2-1.8-4-4-4h-109.7z" fill="#35485c"/><path d="m320.4 254.9h-6.9c-2.2 0-3-1.8-3-3v-8.5h-8.5c-2.2 0-3-1.8-3-3v-6.9c0-2.2 1.8-3 3-3h8.5v-8.5c0-2.2 1.8-3 3-3h6.9c2.2 0 3 1.8 3 3v8.5h8.5c1.2 0 2.1.5 2.6 1.4.2.4.4 1.1.4 1.6v6.9c0 2.2-1.8 3-3 3h-8.5v8.5c0 2.2-1.8 3-3 3zm-18.4-23c-.4 0-1.6.1-1.6 1.6v6.9c0 .4.1 1.6 1.6 1.6h9.9v9.9c0 .4.1 1.6 1.6 1.6h6.9c.4 0 1.6-.1 1.6-1.6v-9.9h9.9c.4 0 1.6-.1 1.6-1.6v-6.9c0-.3-.1-1.6-1.6-1.6h-9.9v-9.9c0-.4-.1-1.6-1.6-1.6h-6.9c-.4 0-1.6.1-1.6 1.6v9.9z" fill="#35485c"/><path d="m316.9 240.5c-2 0-3.5-1.6-3.5-3.5s1.6-3.5 3.5-3.5 3.5 1.6 3.5 3.5c.1 1.9-1.5 3.5-3.5 3.5zm0-5.7c-1.1 0-2.1.9-2.1 2.1s.9 2.1 2.1 2.1 2.1-.9 2.1-2.1c0-1.1-.9-2.1-2.1-2.1z" fill="#35485c"/><path d="m316.9 222-2.9 4.5h5.8z" fill="#35485c"/><path d="m319.9 227.3h-5.9c-.3 0-.5-.1-.6-.4-.1-.2-.1-.5 0-.7l2.9-4.5c.3-.4 1-.4 1.2 0l2.9 4.5c.1.2.2.5 0 .7 0 .3-.3.4-.5.4zm-4.5-1.4h3.2l-1.6-2.5z" fill="#35485c"/><path d="m302 236.9 4.5 2.9v-5.8z" fill="#35485c"/><path d="m306.5 240.6c-.1 0-.3 0-.4-.1l-4.5-2.9c-.2-.1-.3-.4-.3-.6s.1-.5.3-.6l4.5-2.9c.2-.1.5-.2.7 0 .2.1.4.4.4.6v5.8c0 .3-.1.5-.4.6 0 0-.1.1-.3.1zm-3.2-3.7 2.5 1.6v-3.2z" fill="#35485c"/><path d="m331.8 236.9-4.5-2.9v5.8z" fill="#35485c"/><path d="m327.3 240.6c-.1 0-.2 0-.3-.1-.2-.1-.4-.4-.4-.6v-5.9c0-.3.1-.5.4-.6.2-.1.5-.1.7 0l4.5 2.9c.2.1.3.4.3.6s-.1.5-.3.6l-4.5 2.9c-.1.1-.3.2-.4.2zm.7-5.3v3.2l2.5-1.6z" fill="#35485c"/><path d="m316.9 251.8 2.9-4.5h-5.8z" fill="#35485c"/><path d="m316.9 252.5c-.2 0-.5-.1-.6-.3l-2.9-4.5c-.1-.2-.2-.5 0-.7.1-.2.4-.4.6-.4h5.8c.3 0 .5.1.6.4.1.2.1.5 0 .7l-2.9 4.5c-.1.2-.3.3-.6.3zm-1.5-4.5 1.6 2.5 1.6-2.5z" fill="#35485c"/><path d="m346.7 244v-14.8h4.2c1.3 0 2.4.3 3.4.9s1.8 1.4 2.3 2.4c.5 1.1.8 2.3.8 3.6v.9c0 1.4-.3 2.6-.8 3.7s-1.3 1.9-2.3 2.4c-1 .6-2.2.9-3.5.9zm2-13.3v11.6h2.1c1.5 0 2.7-.5 3.5-1.4s1.3-2.3 1.3-4v-.9c0-1.7-.4-3-1.2-3.9s-1.9-1.4-3.4-1.4z" fill="#35485c"/><path d="m359.1 236.9h5v1.5h-5z" fill="#35485c"/><path d="m368.1 238.2v5.8h-2v-14.8h5.5c1.6 0 2.9.4 3.8 1.2s1.4 1.9 1.4 3.3-.5 2.6-1.4 3.3c-.9.8-2.2 1.2-3.9 1.2zm0-1.6h3.5c1 0 1.8-.2 2.4-.7s.8-1.2.8-2.1-.3-1.6-.8-2.1-1.3-.8-2.3-.8h-3.6z" fill="#35485c"/><path d="m386.1 240.1h-6.2l-1.4 3.9h-2l5.7-14.8h1.7l5.7 14.8h-2zm-5.6-1.6h5l-2.5-6.9z" fill="#35485c"/><path d="m391.6 244v-14.8h4.2c1.3 0 2.4.3 3.4.9s1.8 1.4 2.3 2.4c.5 1.1.8 2.3.8 3.6v.9c0 1.4-.3 2.6-.8 3.7s-1.3 1.9-2.3 2.4c-1 .6-2.2.9-3.5.9zm1.9-13.3v11.6h2.1c1.5 0 2.7-.5 3.5-1.4s1.3-2.3 1.3-4v-.9c0-1.7-.4-3-1.2-3.9s-1.9-1.4-3.4-1.4z" fill="#35485c"/><ellipse cx="208.4" cy="236" fill="#040006" rx="2.4" ry="2.3" stroke="#040006" stroke-width=".9583"/><ellipse cx="99" cy="35.1" fill="#040006" rx="2.3" ry="2.3" stroke="#040006" stroke-width=".9583"/><ellipse cx="315.9" cy="33.5" fill="#040006" rx="2.4" ry="2.3" stroke="#040006" stroke-width=".9583"/><path d="m296.8 235.6-87.2.1" fill="#040006" stroke="#040006" stroke-width="1.1806"/><path d="m332.8 33.4-17.6.1" fill="#040006" stroke="#040006" stroke-width=".5313"/><path d="m97 34.8-20.6.1" fill="#040006" stroke="#040006" stroke-width=".5738"/></svg>