<svg id="a9e0f7b2-bcd9-4eb9-8886-3c1a3d3e6cec" data-name="texte" xmlns="http://www.w3.org/2000/svg" xmlns:xlink="http://www.w3.org/1999/xlink" viewBox="0 0 470.33 67.41"><defs><style>.a8146567-fc8e-4140-82f1-841a965cfa7f{stroke:#9def48;stroke-miterlimit:10;stroke-width:0.75px;fill:url(#a266faae-8460-467d-a18d-6e1bac1d68fe);}.aeac883c-faf5-4131-acfc-c22ac2ffd85e{fill:#9def48;}</style><linearGradient id="a266faae-8460-467d-a18d-6e1bac1d68fe" x1="0.38" y1="33.7" x2="469.96" y2="33.7" gradientUnits="userSpaceOnUse"><stop offset="0" stop-color="#032c02"/><stop offset="1" stop-color="#207a09"/></linearGradient></defs><polygon class="a8146567-fc8e-4140-82f1-841a965cfa7f" points="0.38 5.91 102.44 5.91 108.57 0.38 150.31 0.38 158.22 5.91 461.65 6.11 469.96 16 469.96 59.72 50.81 59.72 42.7 67.03 7.89 67.03 0.38 59.72 0.38 5.91"/><path class="aeac883c-faf5-4131-acfc-c22ac2ffd85e" d="M81.35,30.66l1.79,2A17.68,17.68,0,0,1,79,44.54H55.58A16.6,16.6,0,0,1,52,37.45h4.25a19.52,19.52,0,0,0,1.44,3.14H76.93a16.53,16.53,0,0,0,2.12-6H53.27l-1.79-2a17.71,17.71,0,0,1,4.1-11.9H79a16.6,16.6,0,0,1,3.57,7.09H78.36a17.86,17.86,0,0,0-1.43-3.14H57.7a16.93,16.93,0,0,0-2.14,6Z" transform="translate(-0.06 -0.03)"/><path class="aeac883c-faf5-4131-acfc-c22ac2ffd85e" d="M113.34,37.45h4.25A16.6,16.6,0,0,1,114,44.54H90.56a17.72,17.72,0,0,1-4.1-11.91,17.71,17.71,0,0,1,4.1-11.9H114a16.6,16.6,0,0,1,3.57,7.09h-4.25a17.86,17.86,0,0,0-1.43-3.14H92.68a15.94,15.94,0,0,0-2.27,8,16,16,0,0,0,2.27,8h19.23A18.55,18.55,0,0,0,113.34,37.45Z" transform="translate(-0.06 -0.03)"/><path class="aeac883c-faf5-4131-acfc-c22ac2ffd85e" d="M153.1,20.73l-15,23.81h-4.55l-15.1-23.81h4.93l12.5,19.87,12.38-19.87Z" transform="translate(-0.06 -0.03)"/></svg>