<svg id="b30231bc-3212-481e-95aa-524d6280ce45" data-name="texte" xmlns="http://www.w3.org/2000/svg" xmlns:xlink="http://www.w3.org/1999/xlink" viewBox="0 0 470.33 67.41"><defs><style>.b2079977-0a0c-4cf4-a03a-4ec073f72387{stroke:#9def48;stroke-miterlimit:10;stroke-width:0.75px;fill:url(#aa242755-3de2-40f7-b733-089d6246612c);}.f0dbd35c-c0a0-496a-a64f-e28a4ac2688e{fill:#9def48;}</style><linearGradient id="aa242755-3de2-40f7-b733-089d6246612c" x1="0.38" y1="33.7" x2="469.96" y2="33.7" gradientUnits="userSpaceOnUse"><stop offset="0" stop-color="#032c02"/><stop offset="1" stop-color="#207a09"/></linearGradient></defs><polygon class="b2079977-0a0c-4cf4-a03a-4ec073f72387" points="0.38 5.91 102.44 5.91 108.57 0.38 150.31 0.38 158.22 5.91 461.65 6.11 469.96 16 469.96 59.72 50.81 59.72 42.7 67.03 7.89 67.03 0.38 59.72 0.38 5.91"/><path class="f0dbd35c-c0a0-496a-a64f-e28a4ac2688e" d="M52.45,20.56h27a18.17,18.17,0,0,1,4.22,12.25,18.25,18.25,0,0,1-4.22,12.26h-27ZM56.52,41H77.28a16.48,16.48,0,0,0,2.32-8.19,16.39,16.39,0,0,0-2.32-8.18H56.52Z" transform="translate(-0.13 -0.13)"/><path class="f0dbd35c-c0a0-496a-a64f-e28a4ac2688e" d="M114.33,41h2.72a17.83,17.83,0,0,0,2.19-6.17H95.05A17.49,17.49,0,0,0,97.26,41H100v4.07H95.07a17.68,17.68,0,0,1-4.14-10.24H87.09v-4h3.84a17.57,17.57,0,0,1,4.14-10.22h24.15a17.59,17.59,0,0,1,4.13,10.24l-1.76,1v2.05l1.76,1a17.67,17.67,0,0,1-4.13,10.24h-4.89ZM95.05,30.78h24.19a17.67,17.67,0,0,0-2.19-6.15H97.26A17.33,17.33,0,0,0,95.05,30.78Z" transform="translate(-0.13 -0.13)"/><path class="f0dbd35c-c0a0-496a-a64f-e28a4ac2688e" d="M133.57,38.25l-4.29,6.82h-5.07l15.57-24.51h4.68l15.45,24.51h-5l-4.24-6.82Zm14.56-4-6-9.59-6,9.59Z" transform="translate(-0.13 -0.13)"/><path class="f0dbd35c-c0a0-496a-a64f-e28a4ac2688e" d="M193.27,30.78c.06.66.08,1.34.08,2a18.2,18.2,0,0,1-4.22,12.26H165a18.25,18.25,0,0,1-4.22-12.26A18.17,18.17,0,0,1,165,20.56h24.15a17.13,17.13,0,0,1,3.68,7.3h-4.38A17.18,17.18,0,0,0,187,24.63H167.17a16.32,16.32,0,0,0-2.34,8.18A16.41,16.41,0,0,0,167.17,41H187a17.83,17.83,0,0,0,2.19-6.17H174.38v-4Z" transform="translate(-0.13 -0.13)"/><path class="f0dbd35c-c0a0-496a-a64f-e28a4ac2688e" d="M225.14,45.07H201a18.25,18.25,0,0,1-4.22-12.26A18.17,18.17,0,0,1,201,20.56h24.15a18.17,18.17,0,0,1,4.22,12.25A18.25,18.25,0,0,1,225.14,45.07ZM223,41a16.48,16.48,0,0,0,2.32-8.19A16.39,16.39,0,0,0,223,24.63H203.18a16.32,16.32,0,0,0-2.34,8.18A16.41,16.41,0,0,0,203.18,41Z" transform="translate(-0.13 -0.13)"/><path class="f0dbd35c-c0a0-496a-a64f-e28a4ac2688e" d="M239.19,24.63a16.32,16.32,0,0,0-2.34,8.18A16.41,16.41,0,0,0,239.19,41h2.7v4.07H237a18.25,18.25,0,0,1-4.22-12.26A18.17,18.17,0,0,1,237,20.56h24.15a18.17,18.17,0,0,1,4.22,12.25,18.25,18.25,0,0,1-4.22,12.26h-4.89V41H259a16.48,16.48,0,0,0,2.32-8.19A16.39,16.39,0,0,0,259,24.63Z" transform="translate(-0.13 -0.13)"/></svg>