<svg xmlns="http://www.w3.org/2000/svg" xmlns:xlink="http://www.w3.org/1999/xlink" viewBox="0 0 470.33 67.41"><defs><style>.bd5b6028-b487-491b-a3fa-37f9b005cf45{stroke:#9def48;stroke-miterlimit:10;stroke-width:0.75px;fill:url(#fd0a5e0a-547f-4037-a574-935740a671c4);}.fb262f2a-84a7-4fb2-bf74-5e27f1dc8a39{fill:#9def48;}.b2feb89c-292d-48ae-8117-7b8e560ab9c0{fill:#e60012;}.f2d51527-4f3e-4a83-9e37-591a7092afb2{fill:#fff;}</style><linearGradient id="fd0a5e0a-547f-4037-a574-935740a671c4" x1="0.38" y1="33.7" x2="469.96" y2="33.7" gradientUnits="userSpaceOnUse"><stop offset="0" stop-color="#032c02"/><stop offset="1" stop-color="#207a09"/></linearGradient></defs><g id="b479cb57-f66b-43bc-b3e1-392b9bcc7c66" data-name="texte"><polygon class="bd5b6028-b487-491b-a3fa-37f9b005cf45" points="0.38 5.91 102.44 5.91 108.57 0.38 150.31 0.38 158.22 5.91 461.65 6.11 469.96 16 469.96 59.72 50.81 59.72 42.7 67.03 7.89 67.03 0.38 59.72 0.38 5.91"/><path class="fb262f2a-84a7-4fb2-bf74-5e27f1dc8a39" d="M77.26,31.13c0,.53.06,1.07.06,1.63A14.55,14.55,0,0,1,74,42.56H54.63a14.56,14.56,0,0,1-3.38-9.8A14.57,14.57,0,0,1,54.63,23H74a13.75,13.75,0,0,1,2.94,5.84h-3.5a15.19,15.19,0,0,0-1.18-2.58H56.38a13,13,0,0,0-1.87,6.55,13.1,13.1,0,0,0,1.87,6.55H72.21A14.25,14.25,0,0,0,74,34.37H62.15V31.13Z" transform="translate(-0.13 -0.13)"/><path class="fb262f2a-84a7-4fb2-bf74-5e27f1dc8a39" d="M85.5,37.1l-3.43,5.46H78L90.46,23h3.75l12.36,19.61h-4L99.17,37.1Zm11.65-3.24-4.79-7.67-4.82,7.67Z" transform="translate(-0.13 -0.13)"/><path class="fb262f2a-84a7-4fb2-bf74-5e27f1dc8a39" d="M118.67,26.21h-6.29a13,13,0,0,0-1.87,6.55,13.1,13.1,0,0,0,1.87,6.55h2.16v3.25h-3.91a14.56,14.56,0,0,1-3.38-9.8A14.57,14.57,0,0,1,110.63,23h8V19.88h3.24V23h8a14.56,14.56,0,0,1,3.37,9.81,14.55,14.55,0,0,1-3.37,9.8H126V39.31h2.17a13.19,13.19,0,0,0,1.86-6.55,13.13,13.13,0,0,0-1.86-6.55h-6.3V37.83h-3.24Z" transform="translate(-0.13 -0.13)"/><path class="fb262f2a-84a7-4fb2-bf74-5e27f1dc8a39" d="M156,34.37H142.43a14.08,14.08,0,0,0,1.76,4.94H160.3l1.87,3.25H142.44a14.17,14.17,0,0,1-3.31-8.19h-3.07V31.13h3.07A14.14,14.14,0,0,1,142.44,23h19.73l-1.87,3.26H144.19a13.92,13.92,0,0,0-1.76,4.92H156Z" transform="translate(-0.13 -0.13)"/><path class="fb262f2a-84a7-4fb2-bf74-5e27f1dc8a39" d="M202.12,34.37a14.1,14.1,0,0,1-3.31,8.19H179.49a14.09,14.09,0,0,1-3.3-8.19h-3.08V31.13h3.08a14.06,14.06,0,0,1,3.3-8.18h19.32a14.1,14.1,0,0,1,3.31,8.19l-1.41.8v1.64Zm-22.64-3.24h19.35a14.09,14.09,0,0,0-1.75-4.92H181.24A13.92,13.92,0,0,0,179.48,31.13Zm0,3.24a14.08,14.08,0,0,0,1.76,4.94h15.84a14.25,14.25,0,0,0,1.75-4.94Z" transform="translate(-0.13 -0.13)"/><path class="fb262f2a-84a7-4fb2-bf74-5e27f1dc8a39" d="M227.55,42.56H208.23a14.55,14.55,0,0,1-3.37-9.8A14.56,14.56,0,0,1,208.23,23h19.32a14.57,14.57,0,0,1,3.38,9.81A14.56,14.56,0,0,1,227.55,42.56Zm-1.74-3.25a13.19,13.19,0,0,0,1.86-6.55,13.13,13.13,0,0,0-1.86-6.55H210a13,13,0,0,0-1.87,6.55A13.1,13.1,0,0,0,210,39.31Z" transform="translate(-0.13 -0.13)"/><path class="fb262f2a-84a7-4fb2-bf74-5e27f1dc8a39" d="M235.14,34.37l-1.48-1.61A14.6,14.6,0,0,1,237,23H241v3.26h-2.16A13.72,13.72,0,0,0,237,31.13h19.34a14.09,14.09,0,0,0-1.75-4.92h-2.17V23h3.91a14.6,14.6,0,0,1,3.37,9.81,14.53,14.53,0,0,1-3.37,9.8H237a13.7,13.7,0,0,1-2.94-5.84h3.5a15.34,15.34,0,0,0,1.19,2.59h15.83a13.72,13.72,0,0,0,1.75-4.94Z" transform="translate(-0.13 -0.13)"/><path class="fb262f2a-84a7-4fb2-bf74-5e27f1dc8a39" d="M292.81,36.72h3.5a13.7,13.7,0,0,1-2.94,5.84H274.05a14.56,14.56,0,0,1-3.38-9.8A14.6,14.6,0,0,1,274.05,23h19.32a13.75,13.75,0,0,1,2.94,5.84h-3.5a15.19,15.19,0,0,0-1.18-2.58H275.8a13,13,0,0,0-1.87,6.55,13.1,13.1,0,0,0,1.87,6.55h15.83A16,16,0,0,0,292.81,36.72Z" transform="translate(-0.13 -0.13)"/><path class="fb262f2a-84a7-4fb2-bf74-5e27f1dc8a39" d="M321.74,42.56H302.42a14.56,14.56,0,0,1-3.38-9.8A14.57,14.57,0,0,1,302.42,23h19.32a14.56,14.56,0,0,1,3.37,9.81A14.55,14.55,0,0,1,321.74,42.56ZM320,39.31a13.19,13.19,0,0,0,1.86-6.55A13.13,13.13,0,0,0,320,26.21H304.17a13.06,13.06,0,0,0-1.88,6.55,13.12,13.12,0,0,0,1.88,6.55Z" transform="translate(-0.13 -0.13)"/><path class="fb262f2a-84a7-4fb2-bf74-5e27f1dc8a39" d="M331.78,39.31h14.74l1.88,3.25H328.53V25.73l3.25-3.25Z" transform="translate(-0.13 -0.13)"/><path class="fb262f2a-84a7-4fb2-bf74-5e27f1dc8a39" d="M372.46,42.56H353.14a14.56,14.56,0,0,1-3.38-9.8A14.57,14.57,0,0,1,353.14,23h19.32a14.57,14.57,0,0,1,3.38,9.81A14.56,14.56,0,0,1,372.46,42.56Zm-1.74-3.25a13.19,13.19,0,0,0,1.86-6.55,13.13,13.13,0,0,0-1.86-6.55H354.89A13,13,0,0,0,353,32.76a13.1,13.1,0,0,0,1.87,6.55Z" transform="translate(-0.13 -0.13)"/><path class="fb262f2a-84a7-4fb2-bf74-5e27f1dc8a39" d="M400.36,39.31h2.18a14.25,14.25,0,0,0,1.75-4.94H384.94a14.28,14.28,0,0,0,1.76,4.94h2.17v3.25H385a14.09,14.09,0,0,1-3.3-8.19h-3.08V31.13h3.08A14.06,14.06,0,0,1,385,23h19.32a14,14,0,0,1,3.31,8.19l-1.41.8v1.64l1.41.79a14,14,0,0,1-3.31,8.19h-3.91Zm-15.42-8.18h19.35a14.09,14.09,0,0,0-1.75-4.92H386.7A14.12,14.12,0,0,0,384.94,31.13Z" transform="translate(-0.13 -0.13)"/></g><g id="eaa1e90f-a434-4856-99eb-97c53096aec3" data-name="nintendo"><path class="b2feb89c-292d-48ae-8117-7b8e560ab9c0" d="M25.59,23.22A2.08,2.08,0,0,0,27.48,21a2.08,2.08,0,0,0-1.89-2.22A2.08,2.08,0,0,0,23.7,21,2.08,2.08,0,0,0,25.59,23.22Zm-.72-2.83H26.3c.53,0,.75.32.75.62s-.22.62-.75.62H24.87c-.53,0-.75-.32-.75-.62S24.34,20.39,24.87,20.39Z" transform="translate(-0.13 -0.13)"/><path class="b2feb89c-292d-48ae-8117-7b8e560ab9c0" d="M23.8,26.07A1.82,1.82,0,0,0,25.56,28a1.77,1.77,0,0,0,1.66-1,1.84,1.84,0,0,0-.12-1.75h.19v-1.5H22.24v1.5H24.1A2,2,0,0,0,23.8,26.07ZM25,25.2h1.19a.6.6,0,1,1,0,1.19H25a.6.6,0,1,1,0-1.19Z" transform="translate(-0.13 -0.13)"/><polygon class="f2d51527-4f3e-4a83-9e37-591a7092afb2" points="39.05 19.13 39.05 19.13 39.05 19.13 39.05 19.13"/><polygon class="b2feb89c-292d-48ae-8117-7b8e560ab9c0" points="23.82 38.35 23.82 37.52 23.32 37.52 23.32 38.35 22.64 38.35 22.64 39.87 23.32 39.86 23.32 40.69 23.82 40.69 23.82 39.87 27.17 39.87 27.17 38.34 23.82 38.35"/><path class="b2feb89c-292d-48ae-8117-7b8e560ab9c0" d="M26.12,33.46V35h.2c.61,0,.75.41.75.63a.66.66,0,0,1-.75.64h-.69V33.37a2.27,2.27,0,0,0,0,4.48,2.08,2.08,0,0,0,1.88-2.24A2.21,2.21,0,0,0,26.12,33.46Zm-1,2.77a1.13,1.13,0,0,1-.65-.1.6.6,0,0,1-.31-.53h0a.6.6,0,0,1,.31-.53,1.22,1.22,0,0,1,.65-.1Z" transform="translate(-0.13 -0.13)"/><rect class="b2feb89c-292d-48ae-8117-7b8e560ab9c0" x="23.81" y="45.97" width="3.36" height="1.52"/><path class="b2feb89c-292d-48ae-8117-7b8e560ab9c0" d="M25.08,30h2.21V28.48H25.46a1.64,1.64,0,0,0-1.68,1.72h0a1.84,1.84,0,0,0,.5,1.21h-.35v1.5h3.36v-1.5H25.08a.7.7,0,0,1-.61-.72A.67.67,0,0,1,25.08,30Z" transform="translate(-0.13 -0.13)"/><path class="b2feb89c-292d-48ae-8117-7b8e560ab9c0" d="M24.78,14.57a5.39,5.39,0,0,0-5.37,5.69V52.42a5.37,5.37,0,1,0,10.73,0V20.26A5.38,5.38,0,0,0,24.78,14.57Zm4,37.83a4.06,4.06,0,1,1-8.09,0V20.27a4.06,4.06,0,1,1,8.09,0Z" transform="translate(-0.13 -0.13)"/><path class="b2feb89c-292d-48ae-8117-7b8e560ab9c0" d="M25.08,42.33h2.21V40.82H25.46a1.64,1.64,0,0,0-1.68,1.72h0a1.84,1.84,0,0,0,.5,1.21h-.35v1.5h3.36v-1.5H25.08a.7.7,0,0,1-.61-.72A.67.67,0,0,1,25.08,42.33Z" transform="translate(-0.13 -0.13)"/><rect class="b2feb89c-292d-48ae-8117-7b8e560ab9c0" x="22.12" y="45.97" width="1.03" height="1.52"/><polygon class="b2feb89c-292d-48ae-8117-7b8e560ab9c0" points="22.12 49.91 25.64 49.91 22.12 52.09 22.12 53.66 27.17 53.66 27.17 52.1 23.64 52.1 27.17 49.91 27.17 48.35 22.12 48.35 22.12 49.91"/></g></svg>