<svg id="f36ed242-d112-455a-94f3-c4fff1aeaf73" data-name="texte" xmlns="http://www.w3.org/2000/svg" xmlns:xlink="http://www.w3.org/1999/xlink" viewBox="0 0 470.33 67.41"><defs><style>.f2836a69-6072-4557-8f6b-d27dfe93eee6{stroke:#9def48;stroke-miterlimit:10;stroke-width:0.75px;fill:url(#afb1ecb3-79cc-4bd5-bf7e-e1ab155345ae);}.ab2579ed-aa39-49bf-891d-5944b7f32f26{fill:#9def48;}</style><linearGradient id="afb1ecb3-79cc-4bd5-bf7e-e1ab155345ae" x1="0.38" y1="33.7" x2="469.96" y2="33.7" gradientUnits="userSpaceOnUse"><stop offset="0" stop-color="#032c02"/><stop offset="1" stop-color="#207a09"/></linearGradient></defs><polygon class="f2836a69-6072-4557-8f6b-d27dfe93eee6" points="0.38 5.91 102.44 5.91 108.57 0.38 150.31 0.38 158.22 5.91 461.65 6.11 469.96 16 469.96 59.72 50.81 59.72 42.7 67.03 7.89 67.03 0.38 59.72 0.38 5.91"/><path class="ab2579ed-aa39-49bf-891d-5944b7f32f26" d="M62.31,43.15H58.12a15.07,15.07,0,0,1-3.54-8.77h-3.3V30.91h3.3a15,15,0,0,1,3.54-8.76H79.26l-2,3.48H60a14.77,14.77,0,0,0-1.89,5.28h14.5v3.47H58.11A14.88,14.88,0,0,0,60,39.67h2.31Z" transform="translate(-0.06 -0.03)"/><path class="ab2579ed-aa39-49bf-891d-5944b7f32f26" d="M108.1,34.38H85.35a15.28,15.28,0,0,0,1.89,5.29h2.32v3.48H85.37a15.15,15.15,0,0,1-3.55-8.77H78.53V30.91h3.29a15.09,15.09,0,0,1,3.55-8.76h20.7a15.57,15.57,0,0,1,3.62,10.5ZM85.35,30.91h20.73a15.11,15.11,0,0,0-1.87-5.28h-17A15.16,15.16,0,0,0,85.35,30.91Z" transform="translate(-0.06 -0.03)"/><path class="ab2579ed-aa39-49bf-891d-5944b7f32f26" d="M138.89,30.91l1.59,1.74a15.57,15.57,0,0,1-3.62,10.5h-20.7A14.7,14.7,0,0,1,113,36.9h3.75A16,16,0,0,0,118,39.67h17a14.7,14.7,0,0,0,1.87-5.29H114.12l-1.58-1.73a15.6,15.6,0,0,1,3.62-10.5h20.7A14.7,14.7,0,0,1,140,28.4h-3.75A15.13,15.13,0,0,0,135,25.63H118a14.77,14.77,0,0,0-1.89,5.28Z" transform="translate(-0.06 -0.03)"/></svg>