<svg xmlns="http://www.w3.org/2000/svg" xmlns:xlink="http://www.w3.org/1999/xlink" viewBox="0 0 746.51 822.18"><defs><style>.aa42fec4-2ba8-4133-a0d7-dde334451c21,.f5b865c5-9110-403a-a738-3377b59efdb8,.fb775fe2-7a75-41aa-9e2d-fbbdfae47d02{fill:#373735;}.aa42fec4-2ba8-4133-a0d7-dde334451c21{opacity:0.5;}.a206e5fd-3777-4f49-bc0d-761b0a13d204{fill:#121211;}.a206e5fd-3777-4f49-bc0d-761b0a13d204,.a232c400-017b-4391-85b0-f5b7672bc873,.ab8456bd-1e1b-4bb4-9388-5cc1464785c6,.bb9d37a5-17d5-4697-ac58-74074b66d67f,.e737abe0-0a5a-4133-a530-9866b4037f10,.fb775fe2-7a75-41aa-9e2d-fbbdfae47d02,.feb677ba-591c-4848-a28e-a79d2de64b86{stroke:#b5b5b5;}.a206e5fd-3777-4f49-bc0d-761b0a13d204,.a232c400-017b-4391-85b0-f5b7672bc873,.a73e8418-6507-4bc5-8334-bf5e03faf115,.ab6ba270-240f-4c65-b5c2-8d49536c0210,.ab8456bd-1e1b-4bb4-9388-5cc1464785c6,.b58067f2-b932-4f20-bfca-8c0743780217,.bb9d37a5-17d5-4697-ac58-74074b66d67f,.e12eb15a-adf4-4dff-8910-1e23b5b66ec8,.e737abe0-0a5a-4133-a530-9866b4037f10,.fb775fe2-7a75-41aa-9e2d-fbbdfae47d02,.feb677ba-591c-4848-a28e-a79d2de64b86{stroke-miterlimit:10;}.a206e5fd-3777-4f49-bc0d-761b0a13d204,.a232c400-017b-4391-85b0-f5b7672bc873,.ab6ba270-240f-4c65-b5c2-8d49536c0210,.ab8456bd-1e1b-4bb4-9388-5cc1464785c6,.bb9d37a5-17d5-4697-ac58-74074b66d67f,.e737abe0-0a5a-4133-a530-9866b4037f10,.feb677ba-591c-4848-a28e-a79d2de64b86{stroke-width:0.5px;}.b58067f2-b932-4f20-bfca-8c0743780217{fill:#443840;}.a73e8418-6507-4bc5-8334-bf5e03faf115,.ab6ba270-240f-4c65-b5c2-8d49536c0210,.b58067f2-b932-4f20-bfca-8c0743780217{stroke:#090000;}.a73e8418-6507-4bc5-8334-bf5e03faf115,.b58067f2-b932-4f20-bfca-8c0743780217{stroke-width:0.75px;}.ab6ba270-240f-4c65-b5c2-8d49536c0210{fill:#6b0c05;}.fd8b7ddc-f20a-4869-a811-cf97b2a1f155{fill:#86382f;}.a73e8418-6507-4bc5-8334-bf5e03faf115{fill:#8b8b8b;}.e12eb15a-adf4-4dff-8910-1e23b5b66ec8{stroke:#373737;}.a22890c1-66cc-4fd9-95a4-2d2bb0d7af6c{fill:#bc0224;}.feb677ba-591c-4848-a28e-a79d2de64b86{fill:#bf0000;}.bb9d37a5-17d5-4697-ac58-74074b66d67f{fill:#dc6e05;}.a232c400-017b-4391-85b0-f5b7672bc873{fill:#12e600;}.a31716da-f809-4d9f-bf68-f11e5e61c435{fill:#fcfefc;}.ab8456bd-1e1b-4bb4-9388-5cc1464785c6{fill:#0b47ce;}.bd9195b6-9a10-428c-ab16-2a5e7b3c9049{fill:#959595;}.bd9a10fb-28fc-4d28-8053-8a50ab82511e,.e737abe0-0a5a-4133-a530-9866b4037f10{fill:#282826;}.e74fa12c-d23d-4f94-9003-6bd4b841fd11{fill:#151312;}.a39aacc1-932b-49f6-8dad-d08ba3ee6c61{fill:#555353;}.adf3b272-1943-4cab-be01-635f867408c4{fill:#008aa6;}.ee6ac8a1-6018-4038-9138-1d0fb607a3fe{fill:#ae7a82;}.a67a05af-9e27-40e5-af9a-afe22a3339fd{fill:url(#eab08f5b-91b5-4496-9b57-4384a6739ade);}.a5135f48-aa2c-4e9c-b291-a9a189e5322c{fill:url(#f1c1a096-55e4-4bca-aa53-31e55d5a18a2);}.fb3c6a2c-ad72-4927-82a4-df457e4377a0{fill:#0000ef;}.a0684191-7139-4e8c-b0f2-b1220909b2d5{fill:url(#f4d77f6d-458d-47e4-b453-f80861b94afc);}.e17edec6-2894-46ca-812f-b11da1d178fa{fill:url(#b2a195e8-baf1-441b-ac72-d92c85c1599f);}.fc00cdf0-1cfe-45b3-9725-56fcb97783a8{fill:url(#bc74e2ac-71a7-4c78-955f-4e861642a06c);}.f6126b74-9f8b-414f-8bc4-3a7aceb97617{fill:url(#b9f94808-51fa-4cc9-bd2f-587505315752);}.fb2999bb-7feb-480d-a7e8-4d5d940ab22a{fill:url(#e91f74f8-3021-492d-86eb-aea734c0c70e);}.ae707fe4-65e4-43e6-97b5-cd18513ec236{fill:url(#a7ec6bd9-ee3c-47d7-bca1-a1f61342fd4e);}.fdd6b6d6-8bf8-4e51-8985-c2304c4a5b0c{fill:#930303;}.b5a9526f-45f6-44e9-b9c8-0dd969308f60{fill:url(#f18b1ce2-d483-4888-808f-21d93052c3d5);}.fdf833bc-1109-42da-a402-281843b52a1c{fill:url(#ee095330-13fc-4769-bb0d-2c0247599fcd);}.bf404422-62c7-4f60-966b-8733278eb8ad{fill:url(#a35b8590-6af5-49a9-86f9-c38d4da99ad9);}.b3fe8862-5005-4ff3-8c76-576468a97a0d{fill:url(#a6662f0a-bb08-42cb-84a2-fb684efd6c4c);}.aaa46ee6-c4b3-4791-9a2c-0a2741b2c8b0{fill:url(#f36017bc-2ac7-4291-bc31-14a3f41bdbd5);}.a411172c-4c02-428f-8e63-68ad5b63b0e0{fill:url(#faea148f-ede5-4c37-a518-0359358493fb);}.a2f2c4f7-f600-49bd-8ac2-ca1a3ca5a746{fill:#e7e7e7;}.bbe5c785-06d5-4cf8-8e9d-77c09ed0532e{fill:#2c2b29;}.b26675cc-3572-4030-95b9-3ae4c978231e{fill:#2785db;}.eb83ef9b-b53a-41f4-bde9-af2147299b27{fill:#44c047;}.bde84276-2908-4f1f-a7ca-17d9c1952ed7{fill:#eb1416;}.b2684378-7406-4ca3-8d17-52d38a6847f1{fill:#fff;fill-rule:evenodd;}</style><radialGradient id="eab08f5b-91b5-4496-9b57-4384a6739ade" cx="65.88" cy="348.77" r="11.47" gradientUnits="userSpaceOnUse"><stop offset="0" stop-color="#fd6d66"/><stop offset="0.78" stop-color="#b50a03"/></radialGradient><radialGradient id="f1c1a096-55e4-4bca-aa53-31e55d5a18a2" cx="195.83" cy="370.99" r="11.47" xlink:href="#eab08f5b-91b5-4496-9b57-4384a6739ade"/><radialGradient id="f4d77f6d-458d-47e4-b453-f80861b94afc" cx="92.36" cy="393.88" r="5.66" gradientTransform="translate(0 157.55) scale(1 0.6)" gradientUnits="userSpaceOnUse"><stop offset="0" stop-color="#0000ef"/><stop offset="0.15" stop-color="#0000e9"/><stop offset="0.34" stop-color="#0101d9"/><stop offset="0.56" stop-color="#0101be"/><stop offset="0.79" stop-color="#02029a"/><stop offset="1" stop-color="#020282"/></radialGradient><radialGradient id="b2a195e8-baf1-441b-ac72-d92c85c1599f" cx="114.61" cy="393.88" r="5.66" xlink:href="#f4d77f6d-458d-47e4-b453-f80861b94afc"/><radialGradient id="bc74e2ac-71a7-4c78-955f-4e861642a06c" cx="133.17" cy="400.04" r="5.66" gradientTransform="translate(0 160.02) scale(1 0.6)" xlink:href="#f4d77f6d-458d-47e4-b453-f80861b94afc"/><radialGradient id="b9f94808-51fa-4cc9-bd2f-587505315752" cx="139.21" cy="387.78" r="5.66" gradientTransform="translate(0 155.11) scale(1 0.6)" xlink:href="#f4d77f6d-458d-47e4-b453-f80861b94afc"/><radialGradient id="e91f74f8-3021-492d-86eb-aea734c0c70e" cx="121.61" cy="382.1" r="5.66" gradientTransform="translate(0 152.84) scale(1 0.6)" xlink:href="#f4d77f6d-458d-47e4-b453-f80861b94afc"/><radialGradient id="a7ec6bd9-ee3c-47d7-bca1-a1f61342fd4e" cx="100.32" cy="382.53" r="5.66" gradientTransform="translate(0 153.01) scale(1 0.6)" xlink:href="#f4d77f6d-458d-47e4-b453-f80861b94afc"/><radialGradient id="f18b1ce2-d483-4888-808f-21d93052c3d5" cx="225.51" cy="404.67" r="5.66" xlink:href="#eab08f5b-91b5-4496-9b57-4384a6739ade"/><radialGradient id="ee095330-13fc-4769-bb0d-2c0247599fcd" cx="246.79" cy="404.24" r="5.66" xlink:href="#eab08f5b-91b5-4496-9b57-4384a6739ade"/><radialGradient id="a35b8590-6af5-49a9-86f9-c38d4da99ad9" cx="264.4" cy="409.93" r="5.66" xlink:href="#eab08f5b-91b5-4496-9b57-4384a6739ade"/><radialGradient id="a6662f0a-bb08-42cb-84a2-fb684efd6c4c" cx="258.36" cy="422.19" r="5.66" xlink:href="#eab08f5b-91b5-4496-9b57-4384a6739ade"/><radialGradient id="f36017bc-2ac7-4291-bc31-14a3f41bdbd5" cx="239.79" cy="416.02" r="5.66" xlink:href="#eab08f5b-91b5-4496-9b57-4384a6739ade"/><radialGradient id="faea148f-ede5-4c37-a518-0359358493fb" cx="217.55" cy="416.02" r="5.66" xlink:href="#eab08f5b-91b5-4496-9b57-4384a6739ade"/></defs><g id="e20b70f8-9f87-44ea-8b39-36c3109f16f9" data-name="Calque 1"><polygon id="a2d915c5-6422-4b07-91d4-8b1a7a9ce75a" data-name="ombre" class="aa42fec4-2ba8-4133-a0d7-dde334451c21" points="452.03 588.79 473.54 582.88 481.45 582.88 485.41 582.88 486.99 585.84 724.35 629.14 735.43 629.14 746.5 660.53 700.09 698.24 653.67 711.43 645.49 710.11 645.76 708.26 631.78 705.63 548.18 733.58 474.86 785.15 452.03 791.97 444.26 790.81 444.26 788.18 428.18 785.15 298.19 819.52 452.03 588.79"/><g id="a7518657-6148-4ec1-b50e-1358d68d6284" data-name="bottom"><polygon class="f5b865c5-9110-403a-a738-3377b59efdb8" points="36 454.56 260.9 494.18 260.9 498.53 286.62 504.66 286.22 816 37.98 768.73 36 454.56"/><path class="a206e5fd-3777-4f49-bc0d-761b0a13d204" d="M202,526.54,123.62,512.8c-3,.19-4.26,3.56-4.26,3.56l.2,85c.69,2.18,3.86,5,3.86,5l74.27,13.46c5.14.49,7.52-5.25,7.52-5.25V531.88A7.12,7.12,0,0,0,202,526.54ZM152.1,549.09l-18.69-3.46v-20l2.27-1.88,18.1,3.07L152,529.51Zm31.45,6.13-18.69-3.46v-20l2.27-1.87,18.1,3.06-1.78,2.67Z" transform="translate(-0.98 -0.52)"/><polygon class="b58067f2-b932-4f20-bfca-8c0743780217" points="134.7 523.25 132.43 525.13 132.43 545.11 151.12 548.57 151.02 528.99 152.8 526.32 134.7 523.25"/><polygon class="b58067f2-b932-4f20-bfca-8c0743780217" points="166.15 529.38 163.88 531.26 163.88 551.24 182.57 554.7 182.47 535.12 184.25 532.45 166.15 529.38"/><polygon class="ab6ba270-240f-4c65-b5c2-8d49536c0210" points="140.14 543.03 140.14 530.18 148.15 531.96 148.15 544.52 140.14 543.03"/><polygon class="ab6ba270-240f-4c65-b5c2-8d49536c0210" points="171.2 548.87 171.2 536.01 179.21 537.79 179.21 550.35 171.2 548.87"/><polygon points="135.23 543.16 135.23 527.93 137.28 528.33 137.28 543.49 135.23 543.16"/><polygon points="166.68 548.7 166.68 533.47 168.72 533.87 168.72 549.03 166.68 548.7"/><polygon class="fd8b7ddc-f20a-4869-a811-cf97b2a1f155" points="140.4 530.69 140.4 530.34 147.87 532.14 147.88 532.57 140.4 530.69"/><polygon class="fd8b7ddc-f20a-4869-a811-cf97b2a1f155" points="171.46 536.62 171.46 536.33 178.93 537.97 178.94 538.32 171.46 536.62"/><circle class="a73e8418-6507-4bc5-8334-bf5e03faf115" cx="192.4" cy="574.85" r="4.25"/><polygon class="e12eb15a-adf4-4dff-8910-1e23b5b66ec8" points="136.29 598.71 136.29 587.44 148.25 589.62 148.25 600.92 136.29 598.71"/><polygon class="e12eb15a-adf4-4dff-8910-1e23b5b66ec8" points="167.54 604.25 167.54 592.98 179.5 595.15 179.5 606.03 167.54 604.25"/></g><g id="f069a938-aac3-4800-bcfe-108fb14da48a" data-name="t molding"><path class="a22890c1-66cc-4fd9-95a4-2d2bb0d7af6c" d="M11.46,450.59l-.79-39.76L1,407.66v45.1l27.89,5.54c.59,103.55,1,207.6,1.58,311.15A6.18,6.18,0,0,0,34,771.64a12.58,12.58,0,0,0,5,0L37,455.08Z" transform="translate(-0.98 -0.52)"/><path class="a22890c1-66cc-4fd9-95a4-2d2bb0d7af6c" d="M272.36,497V455.73l-10.28-1.19-.2,44.51,25.71,6.13s-1.51,313.85,0,315.69,8.77,1.32,8.77,1.32l.93-319.91Z" transform="translate(-0.98 -0.52)"/><polygon class="a22890c1-66cc-4fd9-95a4-2d2bb0d7af6c" points="78.72 346.42 70.57 345.12 86.83 126.56 95.87 128.06 78.72 346.42"/><polygon class="a22890c1-66cc-4fd9-95a4-2d2bb0d7af6c" points="329.24 388.85 338.34 390.13 356.83 165.82 330.46 165.82 330.2 74.9 320.14 73.06 320.14 167.9 326.18 168.99 346.45 168.99 329.24 388.85"/><path class="a22890c1-66cc-4fd9-95a4-2d2bb0d7af6c" d="M88.49,127.19s-28.17-.35-29.11-.85c0-31.21.06-62.83,0-94l9.36,2.64L69.22,124Z" transform="translate(-0.98 -0.52)"/><g id="ba507d1b-d852-4ac0-9519-f19c6fe0e9b3" data-name="clair"><polygon class="a22890c1-66cc-4fd9-95a4-2d2bb0d7af6c" points="0 407.14 9.69 410.31 78 346.25 69.89 344.31 0 407.14"/><polygon class="a22890c1-66cc-4fd9-95a4-2d2bb0d7af6c" points="261.1 454.02 271.38 455.21 338.34 389.34 329.72 387.74 261.1 454.02"/><polygon class="a22890c1-66cc-4fd9-95a4-2d2bb0d7af6c" points="111.56 0 58.42 31.78 67.78 34.42 120.36 3.3 123.1 1.68 120.53 1.32 111.56 0"/><polygon class="a22890c1-66cc-4fd9-95a4-2d2bb0d7af6c" points="383.74 40.62 372.53 39.82 320.14 73.06 330.2 74.9 383.74 40.62"/></g></g><g id="fc3e28f9-089d-4036-b60e-8dbbded58e0d" data-name="side"><polygon class="a206e5fd-3777-4f49-bc0d-761b0a13d204" points="453.13 308.64 453.76 149.01 383.74 40.62 330.2 74.9 330.46 165.82 356.83 165.82 338.34 390.13 271.38 455.21 271.38 496.48 296.31 501.76 295.38 821.67 303.63 815.35 453.28 271.65 453.07 293.16 310.97 809.71 309.36 810.95 316.3 805.63 453.13 308.64 453.13 308.64"/><polygon class="a206e5fd-3777-4f49-bc0d-761b0a13d204" points="324.06 799.15 316.3 805.63 328.29 796.43 452.99 343.19 453.04 331.06 324.06 799.15"/><polygon class="a206e5fd-3777-4f49-bc0d-761b0a13d204" points="335.43 790.95 334.11 791.97 340.98 786.7 452.77 379.06 452.77 400.31 452.99 343.19 452.77 367.19 335.43 790.95"/><polygon class="a206e5fd-3777-4f49-bc0d-761b0a13d204" points="343 785.15 451.58 701.87 452.76 402.02 347.4 781.78 343 785.15"/><polygon class="feb677ba-591c-4848-a28e-a79d2de64b86" points="303.63 815.35 309.36 810.95 303.63 815.35 303.63 815.35"/><polygon class="a22890c1-66cc-4fd9-95a4-2d2bb0d7af6c" points="453.07 293.16 453.28 271.65 303.63 815.35 309.36 810.95 310.97 809.71 453.07 293.16"/><polygon class="bb9d37a5-17d5-4697-ac58-74074b66d67f" points="453.13 330.74 453.13 308.64 453.04 331.06 453.13 330.74"/><polygon class="bb9d37a5-17d5-4697-ac58-74074b66d67f" points="316.3 805.63 316.3 805.63 316.3 805.63 316.3 805.63"/><polygon points="453.04 331.06 453.13 308.64 453.13 308.64 316.3 805.63 316.3 805.63 324.06 799.15 453.04 331.06"/><polygon class="a232c400-017b-4391-85b0-f5b7672bc873" points="452.99 343.19 452.99 343.19 452.99 343.19 452.99 343.19"/><polygon class="a232c400-017b-4391-85b0-f5b7672bc873" points="328.29 796.43 334.11 791.97 328.29 796.43 328.29 796.43"/><polygon class="a31716da-f809-4d9f-bf68-f11e5e61c435" points="334.11 791.97 335.43 790.95 452.77 367.19 452.99 343.19 452.99 343.19 328.29 796.43 334.11 791.97"/><polygon class="ab8456bd-1e1b-4bb4-9388-5cc1464785c6" points="340.98 786.7 343 785.15 340.98 786.7 340.98 786.7"/><polygon class="ab8456bd-1e1b-4bb4-9388-5cc1464785c6" points="452.77 402 452.77 400.31 452.76 402.02 452.77 402"/><polygon class="bd9195b6-9a10-428c-ab16-2a5e7b3c9049" points="340.98 786.7 343 785.15 347.4 781.78 452.76 402.02 452.77 400.31 452.77 379.06 340.98 786.7"/></g><g id="a8dcad92-926d-4c95-81a1-9e30df1f207d" data-name="panel"><polygon class="e737abe0-0a5a-4133-a530-9866b4037f10" points="10.48 450.07 260.9 494.18 261.1 454.02 9.69 410.31 10.48 450.07"/><polygon class="f5b865c5-9110-403a-a738-3377b59efdb8" points="79.37 345.21 9.69 410.31 261.1 454.02 329.72 387.74 79.37 345.21"/></g><g id="aee6fcba-f453-474f-be7c-5466d7066eae" data-name="ecran"><path class="e737abe0-0a5a-4133-a530-9866b4037f10" d="M96.84,129.36,79.7,347.72l250.52,42.43L347.82,168Zm224.28,67.76c0,.2-.29.32-.48.49L310.21,342.44a35.43,35.43,0,0,1-4.3,3.78l1.4.29v10.7s-1.4,4.75-11.08,2.64c-11.19-2.44-178.55-31.91-178.55-31.91l8.72-6.78v-1.39s-2.46.52-6-7l-12.48,2.77h-4l11.34-158.77s4-6.85,10.81-6.59,191.16,30.59,191.16,30.59S323.4,181.84,321.12,197.12Z" transform="translate(-0.98 -0.52)"/><path class="e74fa12c-d23d-4f94-9003-6bd4b841fd11" d="M317.28,180S133,149.66,126.12,149.4,115.31,156,115.31,156L103.57,316.08h4.35l12.29-2.68c-.1-.23-.74-1.57-.85-1.8L131,166.54s2.11-5.54,7.12-7.38l177.49,27.16a20.77,20.77,0,0,1,5.11,9.76l-.05.75c.19-.17.62.66.66.47C324.56,183.24,317.28,180,317.28,180Z" transform="translate(-0.98 -0.52)"/><path class="a39aacc1-932b-49f6-8dad-d08ba3ee6c61" d="M125.32,320l-8.56,8s164.63,29.3,178.61,32.24c10.36,2.17,14.43-3.58,14.43-3.58l.61-7.37.39-7.71-4.89,3.84a20.85,20.85,0,0,1-7.73,3.87Z" transform="translate(-0.98 -0.52)"/><path class="adf3b272-1943-4cab-be01-635f867408c4" d="M319.5,197.81c.45-.36.83-.69,1.14-1l.66-.52a20.31,20.31,0,0,0-5.72-10L138.09,159.16c-5,1.84-7.12,7.38-7.12,7.38L119.36,311.6l.32.66c3.54,7.52,6.28,8,6.28,8l.44.08,171.78,28.93a20.85,20.85,0,0,0,7.73-3.87c2.57-1.91,4.89-3.84,4.89-3.84l10.5-145.29C320.86,196.73,320.25,197.23,319.5,197.81ZM143.83,302.35l0,0Z" transform="translate(-0.98 -0.52)"/></g><g id="fe096187-f861-4686-9569-ac418b9771d6" data-name="top"><polygon id="e55bb6e8-9cf2-4101-904f-ec3f67913a3a" data-name="marquee" class="e737abe0-0a5a-4133-a530-9866b4037f10" points="68.24 123.5 319.71 162.53 320.14 73.06 67.78 34.42 68.24 123.5"/><polygon class="fb775fe2-7a75-41aa-9e2d-fbbdfae47d02" points="128.84 2.64 123.1 1.68 67.78 34.42 320.14 73.06 372.53 39.82 128.84 2.64"/></g><g id="a8d39ac9-ec96-486b-8709-789b1a3aa7b5" data-name="stickp1"><path class="bd9a10fb-28fc-4d28-8053-8a50ab82511e" d="M68.92,377.27v5.16H62.4v-5.16c-5.06.64-8.77,2.7-8.77,5.16,0,3,5.38,5.35,12,5.35s12-2.39,12-5.35C77.69,380,74,377.91,68.92,377.27Z" transform="translate(-0.98 -0.52)"/><path class="ee6ac8a1-6018-4038-9138-1d0fb607a3fe" d="M68.92,377.27V359.49a12.18,12.18,0,0,1-3,.39,12.4,12.4,0,0,1-3.48-.49v17.88a26.67,26.67,0,0,1,6.52,0Z" transform="translate(-0.98 -0.52)"/><path class="ee6ac8a1-6018-4038-9138-1d0fb607a3fe" d="M68.92,382.43v-5.16a26.67,26.67,0,0,0-6.52,0v5.16Z" transform="translate(-0.98 -0.52)"/><path class="a67a05af-9e27-40e5-af9a-afe22a3339fd" d="M68.92,358.89v.6a11.24,11.24,0,0,0,8.77-10.72c0-6.14-5.29-11.11-11.81-11.11s-11.82,5-11.82,11.11a11.22,11.22,0,0,0,8.34,10.62v-.5Z" transform="translate(-0.98 -0.52)"/><path class="ee6ac8a1-6018-4038-9138-1d0fb607a3fe" d="M68.92,359.49v-.6H62.4v.5a12.4,12.4,0,0,0,3.48.49A12.18,12.18,0,0,0,68.92,359.49Z" transform="translate(-0.98 -0.52)"/><path class="a67a05af-9e27-40e5-af9a-afe22a3339fd" d="M68.92,359.49v-.6H62.4v.5a12.4,12.4,0,0,0,3.48.49A12.18,12.18,0,0,0,68.92,359.49Z" transform="translate(-0.98 -0.52)"/></g><g id="e2bbc349-f866-4e56-8408-5a7938c7844a" data-name="stickp2"><path class="bd9a10fb-28fc-4d28-8053-8a50ab82511e" d="M198.88,399.49v5.16h-6.53v-5.16c-5,.64-8.77,2.7-8.77,5.16,0,3,5.39,5.35,12,5.35s12-2.39,12-5.35C207.65,402.19,203.94,400.13,198.88,399.49Z" transform="translate(-0.98 -0.52)"/><path class="ee6ac8a1-6018-4038-9138-1d0fb607a3fe" d="M198.88,399.49V381.71a12.2,12.2,0,0,1-3,.39,12.83,12.83,0,0,1-3.48-.49v17.88a26.75,26.75,0,0,1,6.53,0Z" transform="translate(-0.98 -0.52)"/><path class="ee6ac8a1-6018-4038-9138-1d0fb607a3fe" d="M198.88,404.65v-5.16a26.75,26.75,0,0,0-6.53,0v5.16Z" transform="translate(-0.98 -0.52)"/><path class="a5135f48-aa2c-4e9c-b291-a9a189e5322c" d="M198.88,381.11v.6A11.24,11.24,0,0,0,207.65,371c0-6.14-5.29-11.11-11.82-11.11S184,364.85,184,371a11.22,11.22,0,0,0,8.34,10.62v-.5Z" transform="translate(-0.98 -0.52)"/><path class="ee6ac8a1-6018-4038-9138-1d0fb607a3fe" d="M198.88,381.71v-.6h-6.53v.5a12.83,12.83,0,0,0,3.48.49A12.2,12.2,0,0,0,198.88,381.71Z" transform="translate(-0.98 -0.52)"/><path class="a5135f48-aa2c-4e9c-b291-a9a189e5322c" d="M198.88,381.71v-.6h-6.53v.5a12.83,12.83,0,0,0,3.48.49A12.2,12.2,0,0,0,198.88,381.71Z" transform="translate(-0.98 -0.52)"/></g><g id="abd2c4be-df15-4de2-b9b9-966ade2e900b" data-name="boutons P1"><g id="f105f9b7-a57a-49be-888b-033a9abc3583" data-name="4"><path class="fb3c6a2c-ad72-4927-82a4-df457e4377a0" d="M92.54,389.14c-3.86,0-8.12,1.53-8.12,4.87,0,2.95,4.1,4.62,7.94,4.62,4.11,0,8-1.73,8-4.88C100.32,391.4,96.48,389.14,92.54,389.14Zm-.18,8.63c-3.86,0-7-1.74-7-3.89s3.13-3.89,7-3.89,7,1.74,7,3.89S96.22,397.77,92.36,397.77Z" transform="translate(-0.98 -0.52)"/><path class="a0684191-7139-4e8c-b0f2-b1220909b2d5" d="M92.36,390c-3.86,0-7,1.74-7,3.89s3.13,3.89,7,3.89,7-1.74,7-3.89S96.22,390,92.36,390Z" transform="translate(-0.98 -0.52)"/></g><g id="bf74c042-8369-4cc5-aebd-91f00dbe0147" data-name="5"><path class="fb3c6a2c-ad72-4927-82a4-df457e4377a0" d="M114.79,389.14c-3.86,0-8.12,1.53-8.12,4.87,0,2.95,4.1,4.62,7.94,4.62,4.11,0,8-1.73,8-4.88C122.57,391.4,118.73,389.14,114.79,389.14Zm-.18,8.63c-3.86,0-7-1.74-7-3.89s3.13-3.89,7-3.89,7,1.74,7,3.89S118.47,397.77,114.61,397.77Z" transform="translate(-0.98 -0.52)"/><path class="e17edec6-2894-46ca-812f-b11da1d178fa" d="M114.61,390c-3.86,0-7,1.74-7,3.89s3.13,3.89,7,3.89,7-1.74,7-3.89S118.47,390,114.61,390Z" transform="translate(-0.98 -0.52)"/></g><g id="fad0be6e-f7ca-4810-ae30-9eb52f73dd2f" data-name="6"><path class="fb3c6a2c-ad72-4927-82a4-df457e4377a0" d="M133.35,395.3c-3.86,0-8.13,1.53-8.13,4.87,0,3,4.11,4.62,7.95,4.62,4.1,0,8-1.73,8-4.88C141.13,397.56,137.29,395.3,133.35,395.3Zm-.18,8.63c-3.86,0-7-1.74-7-3.89s3.13-3.89,7-3.89,7,1.74,7,3.89S137,403.93,133.17,403.93Z" transform="translate(-0.98 -0.52)"/><path class="fc00cdf0-1cfe-45b3-9725-56fcb97783a8" d="M133.17,396.15c-3.86,0-7,1.74-7,3.89s3.13,3.89,7,3.89,7-1.74,7-3.89S137,396.15,133.17,396.15Z" transform="translate(-0.98 -0.52)"/></g><g id="a86adecf-912c-4d68-8bd3-48c6f9901796" data-name="3"><path class="fb3c6a2c-ad72-4927-82a4-df457e4377a0" d="M139.39,383c-3.86,0-8.13,1.53-8.13,4.88,0,2.95,4.11,4.61,8,4.61,4.1,0,8-1.73,8-4.88C147.17,385.3,143.33,383,139.39,383Zm-.18,8.63c-3.86,0-7-1.74-7-3.89s3.13-3.89,7-3.89,7,1.75,7,3.89S143.07,391.67,139.21,391.67Z" transform="translate(-0.98 -0.52)"/><path class="f6126b74-9f8b-414f-8bc4-3a7aceb97617" d="M139.21,383.89c-3.86,0-7,1.75-7,3.89s3.13,3.89,7,3.89,7-1.74,7-3.89S143.07,383.89,139.21,383.89Z" transform="translate(-0.98 -0.52)"/></g><g id="e59fdbd2-370b-47cd-941f-0c74eab48705" data-name="2"><path class="fb3c6a2c-ad72-4927-82a4-df457e4377a0" d="M121.79,377.35c-3.86,0-8.12,1.53-8.12,4.88,0,2.95,4.1,4.61,7.94,4.61,4.11,0,8-1.73,8-4.88C129.57,379.62,125.73,377.35,121.79,377.35Zm-.18,8.64c-3.86,0-7-1.74-7-3.89s3.13-3.89,7-3.89,7,1.74,7,3.89S125.47,386,121.61,386Z" transform="translate(-0.98 -0.52)"/><path class="fb2999bb-7feb-480d-a7e8-4d5d940ab22a" d="M121.61,378.21c-3.86,0-7,1.74-7,3.89s3.13,3.89,7,3.89,7-1.74,7-3.89S125.47,378.21,121.61,378.21Z" transform="translate(-0.98 -0.52)"/></g><g id="a6f00b64-6802-4bbd-8fc2-acce6d780fca" data-name="1"><path class="fb3c6a2c-ad72-4927-82a4-df457e4377a0" d="M100.5,377.78c-3.86,0-8.13,1.53-8.13,4.88,0,2.95,4.11,4.62,7.95,4.62,4.1,0,8-1.73,8-4.88C108.28,380.05,104.44,377.78,100.5,377.78Zm-.18,8.64c-3.86,0-7-1.74-7-3.89s3.13-3.89,7-3.89,7,1.74,7,3.89S104.18,386.42,100.32,386.42Z" transform="translate(-0.98 -0.52)"/><path class="ae707fe4-65e4-43e6-97b5-cd18513ec236" d="M100.32,378.64c-3.86,0-7,1.74-7,3.89s3.13,3.89,7,3.89,7-1.74,7-3.89S104.18,378.64,100.32,378.64Z" transform="translate(-0.98 -0.52)"/></g></g><g id="b4052cbc-8bc0-4a0c-ba61-8f8a31ea4ce5" data-name="boutons P2"><g id="b7d32da7-8dfd-445e-bb2a-40f146c271b2" data-name="1"><path class="fdd6b6d6-8bf8-4e51-8985-c2304c4a5b0c" d="M225.69,399.93c-3.86,0-8.13,1.53-8.13,4.87,0,2.95,4.11,4.62,7.95,4.62,4.1,0,8-1.73,8-4.88C233.47,402.19,229.63,399.93,225.69,399.93Zm-.18,8.63c-3.86,0-7-1.74-7-3.89s3.13-3.89,7-3.89,7,1.74,7,3.89S229.37,408.56,225.51,408.56Z" transform="translate(-0.98 -0.52)"/><path class="b5a9526f-45f6-44e9-b9c8-0dd969308f60" d="M225.51,400.78c-3.86,0-7,1.74-7,3.89s3.13,3.89,7,3.89,7-1.74,7-3.89S229.37,400.78,225.51,400.78Z" transform="translate(-0.98 -0.52)"/></g><g id="b1a0c2ee-9443-44b6-9dc3-33b8b84be6d1" data-name="2"><path class="fdd6b6d6-8bf8-4e51-8985-c2304c4a5b0c" d="M247,399.49c-3.86,0-8.13,1.54-8.13,4.88,0,2.95,4.11,4.62,7.95,4.62,4.1,0,8-1.73,8-4.88C254.75,401.76,250.91,399.49,247,399.49Zm-.18,8.64c-3.86,0-7-1.74-7-3.89s3.13-3.89,7-3.89,7,1.74,7,3.89S250.65,408.13,246.79,408.13Z" transform="translate(-0.98 -0.52)"/><path class="fdf833bc-1109-42da-a402-281843b52a1c" d="M246.79,400.35c-3.86,0-7,1.74-7,3.89s3.13,3.89,7,3.89,7-1.74,7-3.89S250.65,400.35,246.79,400.35Z" transform="translate(-0.98 -0.52)"/></g><g id="b7abdda5-4c03-43a7-9bac-8e72ca357f89" data-name="3"><path class="fdd6b6d6-8bf8-4e51-8985-c2304c4a5b0c" d="M264.58,405.18c-3.86,0-8.12,1.53-8.12,4.88,0,2.95,4.1,4.61,7.94,4.61,4.1,0,8-1.73,8-4.88C272.36,407.44,268.52,405.18,264.58,405.18Zm-.18,8.64c-3.86,0-7-1.75-7-3.89s3.13-3.89,7-3.89,7,1.74,7,3.89S268.26,413.82,264.4,413.82Z" transform="translate(-0.98 -0.52)"/><path class="bf404422-62c7-4f60-966b-8733278eb8ad" d="M264.4,406c-3.86,0-7,1.74-7,3.89s3.13,3.89,7,3.89,7-1.75,7-3.89S268.26,406,264.4,406Z" transform="translate(-0.98 -0.52)"/></g><g id="afb96232-7a57-46dc-af6f-82b0b803f5d7" data-name="4"><path class="fdd6b6d6-8bf8-4e51-8985-c2304c4a5b0c" d="M258.54,417.44c-3.86,0-8.13,1.53-8.13,4.88,0,2.95,4.11,4.61,8,4.61,4.1,0,8-1.73,8-4.88C266.32,419.7,262.48,417.44,258.54,417.44Zm-.18,8.64c-3.86,0-7-1.75-7-3.89s3.13-3.89,7-3.89,7,1.74,7,3.89S262.22,426.08,258.36,426.08Z" transform="translate(-0.98 -0.52)"/><path class="b3fe8862-5005-4ff3-8c76-576468a97a0d" d="M258.36,418.3c-3.86,0-7,1.74-7,3.89s3.13,3.89,7,3.89,7-1.75,7-3.89S262.22,418.3,258.36,418.3Z" transform="translate(-0.98 -0.52)"/></g><g id="af995788-6e22-4c2a-beb0-797d580b3841" data-name="5"><path class="fdd6b6d6-8bf8-4e51-8985-c2304c4a5b0c" d="M240,411.28c-3.86,0-8.13,1.53-8.13,4.88,0,2.95,4.11,4.61,7.95,4.61,4.1,0,8-1.73,8-4.88C247.75,413.54,243.91,411.28,240,411.28Zm-.18,8.63c-3.86,0-7-1.74-7-3.89s3.13-3.89,7-3.89,7,1.75,7,3.89S243.65,419.91,239.79,419.91Z" transform="translate(-0.98 -0.52)"/><path class="aaa46ee6-c4b3-4791-9a2c-0a2741b2c8b0" d="M239.79,412.13c-3.86,0-7,1.75-7,3.89s3.13,3.89,7,3.89,7-1.74,7-3.89S243.65,412.13,239.79,412.13Z" transform="translate(-0.98 -0.52)"/></g><g id="b9a46c3c-f175-42e4-80ee-41a39cf74151" data-name="6"><path class="fdd6b6d6-8bf8-4e51-8985-c2304c4a5b0c" d="M217.73,411.28c-3.86,0-8.13,1.53-8.13,4.88,0,2.95,4.11,4.61,8,4.61,4.1,0,8-1.73,8-4.88C225.51,413.54,221.67,411.28,217.73,411.28Zm-.18,8.63c-3.86,0-7-1.74-7-3.89s3.13-3.89,7-3.89,7,1.75,7,3.89S221.41,419.91,217.55,419.91Z" transform="translate(-0.98 -0.52)"/><path class="a411172c-4c02-428f-8e63-68ad5b63b0e0" d="M217.55,412.13c-3.86,0-7,1.75-7,3.89s3.13,3.89,7,3.89,7-1.74,7-3.89S221.41,412.13,217.55,412.13Z" transform="translate(-0.98 -0.52)"/></g></g><path class="a2f2c4f7-f600-49bd-8ac2-ca1a3ca5a746" d="M228.57,237.19v.07l-5.92-1v-.08Z" transform="translate(-0.98 -0.52)"/><path class="a2f2c4f7-f600-49bd-8ac2-ca1a3ca5a746" d="M236.56,238.53a.13.13,0,0,0,0,.06l-5.72-1s0,0,0-.06Z" transform="translate(-0.98 -0.52)"/><path class="bbe5c785-06d5-4cf8-8e9d-77c09ed0532e" d="M210.17,273.38l-65.56-11c-.87-.14-.87-.14-.74-.92.25-1.54.47-3.08.75-4.61.78-4.31,1.48-8.63,2.22-12.95.09-.48.22-1,.29-1.44,0-.18.12-.23.31-.19l.75.13L267.5,262.38a16.13,16.13,0,0,1,4.69,1.42,11.54,11.54,0,0,1,5.67,5.9,8.36,8.36,0,0,1,.63,3.88c0,.38-.08.76-.15,1.14l-1.56,9.36c-.07.39-.13.42-.54.36l-40.11-6.72Zm14.68-7.7h0c-.4,2.35-.79,4.71-1.19,7.07,0,.23,0,.34.3.38,1,.15,1.95.32,2.93.49.51.09.51.09.59-.37q.69-4.22,1.4-8.43c0-.08,0-.21.12-.22s.13.1.17.17c1.69,3.14,3.43,6.26,5.06,9.42a2.38,2.38,0,0,0,3.55.6c.9-.94,1.91-1.79,2.87-2.68l4.89-4.53c.08-.07.15-.22.26-.17s0,.2,0,.31,0,.08,0,.12c-.47,2.79-.93,5.58-1.4,8.37,0,.25,0,.35.31.4,1,.16,2,.32,3.06.51.34.07.45,0,.49-.32q1.16-6.92,2.32-13.83a1.32,1.32,0,0,0-.25-1,2.34,2.34,0,0,0-3.26-.37l-2.16,2L236.79,271c-.25.23-.28.22-.45-.08-2.2-4.06-4.42-8.11-6.61-12.17a2.14,2.14,0,0,0-1.43-1.06A1.74,1.74,0,0,0,226,259Zm-4.51-.71h0c.38-2.31.76-4.61,1.16-6.92a1.32,1.32,0,0,0-.45-1.21,2.4,2.4,0,0,0-3.17,0c-2.39,2.24-4.82,4.43-7.24,6.63l-2.95,2.7c-.13.12-.23.25-.37,0l-3.44-6.31c-1.1-2-2.19-4-3.3-6a2.24,2.24,0,0,0-2.21-1,1.52,1.52,0,0,0-1.5,1.37q-1.16,6.86-2.3,13.71c0,.28.05.37.35.41,1,.15,2,.32,3,.5.44.07.45.08.51-.3.46-2.73.91-5.46,1.37-8.19,0-.13,0-.27.06-.4s0-.16.11-.17.1.08.13.14.18.34.28.51c1.63,3,3.29,6,4.88,9.07a2.34,2.34,0,0,0,3.35.6c.47-.47,1-.91,1.48-1.37l6.5-6c.06-.05.09-.14.19-.11s.07.14.06.22c-.14.81-.28,1.62-.41,2.44-.35,2.06-.69,4.13-1,6.2,0,.22,0,.32.29.36l3,.5c.44.07.45.07.52-.31Q219.75,268.44,220.34,265Zm33.15,5.67h0c-.38,2.28-.76,4.57-1.15,6.85-.06.31.06.41.38.45,1,.16,2,.32,3,.5.33.07.45,0,.5-.31.16-1,.35-2.08.51-3.12,0-.23.12-.33.4-.28l12.77,2.14c.33.05.39.18.34.45-.18,1-.34,2.08-.53,3.12-.05.25,0,.35.32.4,1,.15,2,.32,3,.49.45.07.46.07.53-.34q.61-3.66,1.22-7.32a6.88,6.88,0,0,0-2.51-6.52,12.61,12.61,0,0,0-6.36-3c-2.38-.41-4.76-.8-7.13-1.19-.72-.12-1.45-.26-2.17-.35a1.6,1.6,0,0,0-1.91,1.29C254.24,266.17,253.87,268.4,253.49,270.64Zm-62.24-10.42h0l1.14-6.79a1.24,1.24,0,0,0,0-.47,1.91,1.91,0,0,0-1.63-1.33c-1.55-.26-3.1-.53-4.65-.77-1.84-.3-3.66-.71-5.51-.87a11.55,11.55,0,0,0-7,1.39,6.55,6.55,0,0,0-3.37,4.67q-.63,3.74-1.25,7.47c-.07.4-.07.4.36.47,1,.17,2,.32,2.93.5.33.06.45,0,.5-.31.15-1,.34-2.06.5-3.09,0-.29.17-.35.48-.3l12.67,2.12c.34,0,.42.16.37.46-.19,1-.35,2.08-.54,3.11,0,.26,0,.36.32.4,1,.16,2,.32,3,.51.33.06.44,0,.49-.32C190.48,264.79,190.87,262.5,191.25,260.22Zm-38.3,1h0l6.47,1.08a7.76,7.76,0,0,0,2.76,0,3.93,3.93,0,0,0,3.34-2.92c.64-3.78,1.26-7.55,1.9-11.33.05-.27,0-.37-.33-.42-1-.15-2-.32-3-.5-.36-.07-.46,0-.51.33q-.92,5.58-1.86,11.15a1.08,1.08,0,0,1-1.24.95,4.41,4.41,0,0,1-.73-.08c-1-.18-2-.37-3.06-.54l-7-1.15c-.28-.05-.35-.15-.31-.38.11-.59.19-1.18.31-1.76.06-.28,0-.4-.35-.45-.84-.13-1.68-.26-2.52-.42-.34-.07-.44,0-.49.32-.24,1.49-.49,3-.74,4.45-.07.42-.07.42.42.5Z" transform="translate(-0.98 -0.52)"/><path class="bbe5c785-06d5-4cf8-8e9d-77c09ed0532e" d="M230.83,237.63l5.72,1c.15.09.15.2.13.35-.37,2.17-.73,4.34-1.11,6.51,0,.29,0,.38.34.43,3.09.5,6.18,1,9.27,1.54.32.05.34.16.31.44-.06.67-.23,1.33-.32,2-.22,1.55-.54,3.09-.8,4.63-.1.59-.17,1.19-.26,1.78,0,.2-.12.31-.4.26L228.57,254c-.65-.11-.65-.11-.56-.68q1.29-7.69,2.57-15.38C230.6,237.79,230.6,237.63,230.83,237.63Zm3.94,12.7h0c-.13.78-.25,1.56-.39,2.34-.05.27,0,.38.33.43,1.06.16,2.11.34,3.16.53.32.06.44,0,.49-.31.25-1.55.51-3.1.78-4.66,0-.24,0-.34-.31-.38q-1.62-.25-3.24-.54c-.28-.05-.39,0-.43.27C235,248.79,234.9,249.56,234.77,250.33Z" transform="translate(-0.98 -0.52)"/><path class="bbe5c785-06d5-4cf8-8e9d-77c09ed0532e" d="M255.63,249.17c2.55.43,5.09.86,7.64,1.27.34.06.42.17.37.47q-.7,4.14-1.39,8.3c-.07.37-.1.4-.52.33L246.38,257c-.27-.05-.34-.16-.3-.39q.72-4.21,1.41-8.43c0-.28.18-.33.47-.28,2.55.44,5.11.86,7.67,1.29Zm1.31,4.88h0c.14-.8.27-1.6.41-2.4,0-.23,0-.36-.3-.4l-3.44-.58c-.26,0-.38,0-.42.27l-.81,4.85c0,.25.05.36.33.41l3.37.56c.3.06.42,0,.46-.3C256.67,255.66,256.81,254.86,256.94,254.05Z" transform="translate(-0.98 -0.52)"/><path class="bbe5c785-06d5-4cf8-8e9d-77c09ed0532e" d="M173.53,244.78l-7.64-1.27c-.31,0-.37-.15-.33-.42q.72-4.2,1.42-8.42c0-.25.13-.32.4-.27L182.74,237c.41.07.43.11.37.49-.26,1.55-.53,3.11-.78,4.66,0,.31-.17.37-.5.32-3.07-.53-6.15-1-9.22-1.55-.46-.08-.46-.08-.52.32s-.11.7-.19,1,0,.35.31.4c2.06.33,4.11.68,6.17,1l3.16.53c.32.05.42.17.37.44s-.14.74-.19,1.11-.18.38-.51.32Zm.92-5.45h0c.56.1,1.13.18,1.69.29.25,0,.35,0,.38-.25,0-.39.12-.78.2-1.17,0-.21,0-.32-.26-.36l-3.41-.57c-.22,0-.33,0-.36.23q-.08.62-.18,1.23c0,.23.06.3.29.33C173.35,239.13,173.9,239.23,174.45,239.33Z" transform="translate(-0.98 -0.52)"/><path class="bbe5c785-06d5-4cf8-8e9d-77c09ed0532e" d="M211.28,241.75l7.64,1.28c.44.07.5.14.42.52-.43,2-.7,4-1.05,6-.14.74-.27,1.48-.37,2.23,0,.29-.15.37-.49.31-2.08-.36-4.17-.7-6.26-1l-9-1.51c-.42-.07-.43-.08-.37-.47.26-1.56.53-3.11.77-4.67,0-.32.18-.37.52-.31l9.16,1.54c.46.07.46.07.53-.33s.09-.67.17-1,0-.4-.36-.46c-2.34-.37-4.68-.77-7-1.16l-2.31-.38c-.24,0-.32-.12-.28-.34a10.85,10.85,0,0,0,.21-1.27c0-.27.16-.31.43-.26l5.37.9,2.27.38ZM210.13,249h0c.55.09,1.11.17,1.66.27.21,0,.33,0,.36-.21l.21-1.23c0-.19-.05-.29-.27-.33l-3.33-.56c-.24,0-.35,0-.38.24,0,.4-.11.79-.19,1.17-.05.23.05.33.29.37C209,248.79,209.58,248.89,210.13,249Z" transform="translate(-0.98 -0.52)"/><path class="bbe5c785-06d5-4cf8-8e9d-77c09ed0532e" d="M268.74,251.36c.87.15,1.74.31,2.62.44.31,0,.38.18.34.43-.08.4-.13.8-.21,1.2,0,.21,0,.3.27.34l3.36.56c.28,0,.38,0,.41-.27.06-.41.15-.82.2-1.23,0-.23.15-.27.37-.24l5.4.91c.21,0,.3.13.27.33-.08.43-.16.86-.22,1.29,0,.23-.16.29-.41.25-.44-.09-.89-.15-1.34-.24-.24,0-.33,0-.36.24-.05.4-.13.8-.19,1.2,0,.23-.15.3-.4.25-.47-.08-.94-.15-1.41-.24-.17,0-.24,0-.29.17-.13.44-.08.91-.25,1.34-.07.18.07.24.24.27l1.38.22c.28,0,.38.15.33.41s-.13.78-.21,1.17c0,.21.05.31.28.34l1.34.22c.25,0,.34.13.3.36-.09.42-.17.84-.22,1.27,0,.22-.15.27-.36.24l-.65-.11-4.62-.77c-.45-.08-.45-.08-.38-.49s.12-.76.19-1.14c.05-.21,0-.3-.27-.34l-3.44-.58c-.22,0-.29,0-.31.21-.06.4-.16.8-.19,1.21s-.19.37-.5.32l-4.72-.8c-1.16-.19-.93-.1-.8-1,0-.25.09-.49.12-.74s.16-.29.4-.25c.45.09.9.15,1.34.24.27.05.39,0,.42-.26s.14-.78.19-1.17.16-.31.41-.26c.46.09.92.15,1.37.24.21,0,.3,0,.32-.2.06-.43.13-.85.22-1.27,0-.21-.05-.28-.26-.31l-1.38-.23c-.24,0-.34-.12-.29-.36s.14-.78.21-1.17c0-.23,0-.35-.31-.38-.45-.06-.9-.15-1.35-.22-.25,0-.34-.14-.29-.37q.12-.63.21-1.26c0-.24.16-.29.4-.24Z" transform="translate(-0.98 -0.52)"/><path class="bbe5c785-06d5-4cf8-8e9d-77c09ed0532e" d="M222.64,236.28l5.92,1a.42.42,0,0,1,.05.36q-1.31,7.77-2.6,15.56c0,.28-.17.37-.48.31s-.88-.19-1.33-.26l-3.89-.62c-.46-.08-.45-.08-.39-.49q1.31-7.74,2.6-15.49C222.54,236.51,222.52,236.37,222.64,236.28Z" transform="translate(-0.98 -0.52)"/><path class="bbe5c785-06d5-4cf8-8e9d-77c09ed0532e" d="M191.71,247.82,184,246.54c-.3,0-.4-.14-.35-.43q.72-4.2,1.41-8.4c0-.26.15-.32.42-.27L200.87,240c.31.05.42.18.36.45s-.11.72-.19,1.08-.13.41-.55.34l-4.16-.7-5.06-.85c-.28,0-.37,0-.41.25-.22,1.39-.46,2.78-.69,4.17a2.74,2.74,0,0,1,0,.28c-.11.6-.11.6.58.72l8.92,1.49c.42.07.45.11.39.5s-.15.72-.18,1.08-.19.35-.48.3c-.56-.11-1.12-.2-1.68-.29Z" transform="translate(-0.98 -0.52)"/><path class="b26675cc-3572-4030-95b9-3ae4c978231e" d="M291.07,282.1c-.25,1.47-.49,2.94-.74,4.41-.07.42-.07.42-.51.34l-4.27-.71c-.27,0-.37-.13-.3-.37s.07-.41.11-.62-.06-.27-.25-.29l-.49-.05c-.39-.06-.49,0-.51.37,0,.06,0,.12,0,.19,0,.43-.14.5-.63.42-1.39-.23-2.79-.47-4.19-.69-.32-.05-.4-.19-.36-.45.5-3,1-5.91,1.49-8.86.06-.36.14-.42.55-.33,2.95.58,5.92,1,8.87,1.52.52.09,1,.13,1.55.22s.47.1.4.52c-.24,1.46-.49,2.92-.73,4.38Zm-8.37-.17h0l1.58.27c.22,0,.32,0,.35-.22.1-.59.2-1.19.31-1.79,0-.21-.06-.3-.29-.34l-3.13-.52c-.21,0-.31,0-.35.22-.08.59-.18,1.19-.29,1.79,0,.21,0,.31.27.34Zm5.47-1.49h0c-.52-.08-1-.16-1.55-.26-.25-.05-.36,0-.39.24-.09.59-.19,1.19-.29,1.78-.05.23.05.29.28.33,1,.16,2,.33,3,.51.28.05.39,0,.43-.27.08-.56.17-1.13.28-1.69,0-.23,0-.35-.3-.39C289.15,280.61,288.66,280.52,288.17,280.44Z" transform="translate(-0.98 -0.52)"/><path class="eb83ef9b-b53a-41f4-bde9-af2147299b27" d="M292.87,271.31c-.25,1.48-.5,3-.74,4.44-.07.38-.11.4-.52.34l-2.86-.48c-.41-.07-.49-.18-.43-.54.14-.85.28-1.71.43-2.56a.34.34,0,0,1,0-.1c.2-.63.12-.52.72-.43l1.48.25c.26,0,.4,0,.44-.25.09-.59.19-1.18.29-1.76,0-.21,0-.33-.3-.38l-8-1.34c-.26,0-.39.05-.42.28-.09.57-.19,1.14-.28,1.7,0,.23.05.36.31.41l3.06.52a.25.25,0,0,0,.33-.17,1.81,1.81,0,0,0,.12-.64c0-.19.11-.24.27-.29a.45.45,0,0,1,.2,0c.85.09.89.14.77.88-.21,1.26-.43,2.51-.63,3.77,0,.26-.17.34-.43.3l-5.43-.91c-.49-.08-.55-.15-.48-.58.49-3,1-5.91,1.48-8.87,0-.17.09-.23.28-.22s.55,0,.83.08l9.77,1.63c.55.09.55.1.47.6l-.72,4.32Z" transform="translate(-0.98 -0.52)"/><path class="bde84276-2908-4f1f-a7ca-17d9c1952ed7" d="M289.84,254.78c1.75.29,3.49.59,5.24.87.3,0,.4.13.35.42-.51,3-1,5.95-1.49,8.92-.05.3-.16.38-.49.32-1.4-.25-2.8-.48-4.2-.71-.36-.06-.42-.15-.36-.47,0-.12.06-.23.08-.34.08-.47.08-.47-.46-.56l-.21,0c-.5-.08-.51-.08-.54.39,0,.18-.1.34-.11.52s-.18.19-.35.16l-4.44-.74c-.23,0-.32-.15-.29-.35.17-1,.35-2,.51-3.06,0-.28.23-.27.45-.23l1.83.3c.8.15,1.61.24,2.4.44.25.06.44,0,.48-.27.07-.57.17-1.14.28-1.7.05-.27,0-.38-.34-.43-1.42-.22-2.83-.47-4.24-.7-.29,0-.4-.12-.35-.4.18-1,.33-2,.48-3,0-.26.15-.33.44-.28C286.28,254.19,288.06,254.48,289.84,254.78Zm1.49,6.43h0c.51.08,1,.16,1.54.26.22,0,.35,0,.39-.21.09-.61.19-1.22.3-1.82,0-.2,0-.32-.27-.35l-3.09-.52c-.22,0-.32,0-.35.21-.09.63-.2,1.25-.31,1.88,0,.18,0,.26.24.29Z" transform="translate(-0.98 -0.52)"/><path class="bbe5c785-06d5-4cf8-8e9d-77c09ed0532e" d="M156.94,232.66l7.54,1.26c.53.09.53.09.45.57s-.13.7-.17,1-.16.33-.44.28l-9.3-1.57c-.33-.05-.41,0-.45.3-.35,2.17-.72,4.33-1.07,6.49-.05.31-.2.36-.51.31l-5.19-.87c-.3,0-.4-.14-.35-.42q.72-4.19,1.4-8.39c.05-.31.19-.34.48-.29Z" transform="translate(-0.98 -0.52)"/><path class="a2f2c4f7-f600-49bd-8ac2-ca1a3ca5a746" d="M224.85,265.68,226,259a1.74,1.74,0,0,1,2.34-1.33,2.14,2.14,0,0,1,1.43,1.06c2.19,4.06,4.41,8.11,6.61,12.17.17.3.2.31.45.08l8.14-7.43,2.16-2a2.34,2.34,0,0,1,3.26.37,1.32,1.32,0,0,1,.25,1q-1.17,6.91-2.32,13.83c0,.29-.15.39-.49.32-1-.19-2-.35-3.06-.51-.3-.05-.36-.15-.31-.4.47-2.79.93-5.58,1.4-8.37,0,0,0-.08,0-.12s.11-.25,0-.31-.18.1-.26.17l-4.89,4.53c-1,.89-2,1.74-2.87,2.68a2.38,2.38,0,0,1-3.55-.6c-1.63-3.16-3.37-6.28-5.06-9.42,0-.07-.06-.19-.17-.17s-.11.14-.12.22q-.7,4.21-1.4,8.43c-.08.46-.08.46-.59.37-1-.17-1.95-.34-2.93-.49-.28,0-.34-.15-.3-.38.4-2.36.79-4.72,1.19-7.07Z" transform="translate(-0.98 -0.52)"/><path class="a2f2c4f7-f600-49bd-8ac2-ca1a3ca5a746" d="M220.34,265q-.59,3.46-1.16,6.95c-.07.38-.08.38-.52.31l-3-.5c-.27,0-.32-.14-.29-.36.36-2.07.7-4.14,1-6.2.13-.82.27-1.63.41-2.44,0-.08.06-.18-.06-.22s-.13.06-.19.11l-6.5,6c-.5.46-1,.9-1.48,1.37a2.34,2.34,0,0,1-3.35-.6c-1.59-3-3.25-6.05-4.88-9.07-.1-.17-.19-.34-.28-.51s-.05-.14-.13-.14-.1.1-.11.17,0,.27-.06.4c-.46,2.73-.91,5.46-1.37,8.19-.06.38-.07.37-.51.3-1-.18-2-.35-3-.5-.3,0-.4-.13-.35-.41q1.16-6.86,2.3-13.71a1.52,1.52,0,0,1,1.5-1.37,2.24,2.24,0,0,1,2.21,1c1.11,2,2.2,4,3.3,6l3.44,6.31c.14.27.24.14.37,0l2.95-2.7c2.42-2.2,4.85-4.39,7.24-6.63a2.4,2.4,0,0,1,3.17,0,1.32,1.32,0,0,1,.45,1.21c-.4,2.31-.78,4.61-1.16,6.92Z" transform="translate(-0.98 -0.52)"/><path class="a2f2c4f7-f600-49bd-8ac2-ca1a3ca5a746" d="M253.49,270.64c.38-2.24.75-4.47,1.13-6.7a1.6,1.6,0,0,1,1.91-1.29c.72.09,1.45.23,2.17.35,2.37.39,4.75.78,7.13,1.19a12.61,12.61,0,0,1,6.36,3,6.88,6.88,0,0,1,2.51,6.52q-.6,3.66-1.22,7.32c-.07.41-.08.41-.53.34-1-.17-2-.34-3-.49-.29,0-.37-.15-.32-.4.19-1,.35-2.08.53-3.12.05-.27,0-.4-.34-.45l-12.77-2.14c-.28-.05-.36,0-.4.28-.16,1-.35,2.08-.51,3.12-.05.3-.17.38-.5.31-1-.18-2-.34-3-.5-.32,0-.44-.14-.38-.45.39-2.28.77-4.57,1.15-6.85ZM264,273l6.37,1.07c.3,0,.43,0,.46-.28s.08-.52.12-.78a4.27,4.27,0,0,0-1.54-4.2,8.48,8.48,0,0,0-4-1.85c-2.25-.43-4.52-.78-6.77-1.17-.34-.06-.36.12-.4.33q-.44,2.69-.9,5.37c0,.29,0,.4.36.46Z" transform="translate(-0.98 -0.52)"/><path class="a2f2c4f7-f600-49bd-8ac2-ca1a3ca5a746" d="M191.25,260.22c-.38,2.28-.77,4.57-1.14,6.85-.05.3-.16.38-.49.32-1-.19-2-.35-3-.51-.29,0-.36-.14-.32-.4.19-1,.35-2.08.54-3.11.05-.3,0-.41-.37-.46l-12.67-2.12c-.31-.05-.44,0-.48.3-.16,1-.35,2.05-.5,3.09,0,.3-.17.37-.5.31-1-.18-1.95-.33-2.93-.5-.43-.07-.43-.07-.36-.47q.62-3.74,1.25-7.47a6.55,6.55,0,0,1,3.37-4.67,11.55,11.55,0,0,1,7-1.39c1.85.16,3.67.57,5.51.87,1.55.24,3.1.51,4.65.77A1.91,1.91,0,0,1,192.4,253a1.24,1.24,0,0,1,0,.47l-1.14,6.79Zm-10.67-1.14h0c2.11.35,4.22.7,6.33,1.07.32.05.44,0,.48-.29.3-1.81.6-3.63.91-5.44,0-.26,0-.37-.33-.42q-3-.48-6-1a11.11,11.11,0,0,0-3.77,0,4.85,4.85,0,0,0-3.81,2.54,7.49,7.49,0,0,0-.52,2c-.07.4-.07.41.4.48Z" transform="translate(-0.98 -0.52)"/><path class="a2f2c4f7-f600-49bd-8ac2-ca1a3ca5a746" d="M153,261.25l-7-1.17c-.49-.08-.49-.08-.42-.5.25-1.48.5-3,.74-4.45.05-.28.15-.39.49-.32.84.16,1.68.29,2.52.42.31.05.41.17.35.45-.12.58-.2,1.17-.31,1.76,0,.23,0,.33.31.38l7,1.15c1,.17,2,.36,3.06.54a4.41,4.41,0,0,0,.73.08,1.08,1.08,0,0,0,1.24-.95q.94-5.58,1.86-11.15c0-.3.15-.4.51-.33,1,.18,2,.35,3,.5.3.05.38.15.33.42-.64,3.78-1.26,7.55-1.9,11.33a3.93,3.93,0,0,1-3.34,2.92,7.76,7.76,0,0,1-2.76,0L153,261.25Z" transform="translate(-0.98 -0.52)"/><path class="bbe5c785-06d5-4cf8-8e9d-77c09ed0532e" d="M264,273l-6.33-1c-.34-.06-.41-.17-.36-.46q.47-2.68.9-5.37c0-.21.06-.39.4-.33,2.25.39,4.52.74,6.77,1.17a8.48,8.48,0,0,1,4,1.85,4.27,4.27,0,0,1,1.54,4.2c0,.26-.1.52-.12.78s-.16.33-.46.28Z" transform="translate(-0.98 -0.52)"/><path class="bbe5c785-06d5-4cf8-8e9d-77c09ed0532e" d="M180.58,259.08l-6.3-1.06c-.47-.07-.47-.08-.4-.48a7.49,7.49,0,0,1,.52-2,4.85,4.85,0,0,1,3.81-2.54,11.11,11.11,0,0,1,3.77,0q3,.51,6,1c.31.05.38.16.33.42-.31,1.81-.61,3.63-.91,5.44,0,.29-.16.34-.48.29-2.11-.37-4.22-.72-6.33-1.07Z" transform="translate(-0.98 -0.52)"/></g><g id="b85069f3-21b0-4bca-9e51-705e184dcf11" data-name="Calque 2"><g id="aa1bfe53-b16a-4b38-a551-d0ab0ec520cd" data-name="Calque 1-2"><g id="fbb296cb-a0d5-433c-9d45-3d7648dbfa9c" data-name="layer1"><g id="b68c17f3-22f7-4225-bca2-168669500932" data-name="g4193"><g id="abe5b991-6aed-4585-a99d-89521c60dd54" data-name="g5398"><path id="f4ccda9c-9e4b-4f27-8b84-a78f92459935" data-name="polygon9" class="b2684378-7406-4ca3-8d17-52d38a6847f1" d="M90.86,48.92,76,86.41l10.73,1.68L95.05,68l5.5,22.25,12.59,2L107.33,69.3,127,54.56l-12.87-2L95.86,66.25l5.89-15.62-10.88-1.7Z" transform="translate(-0.98 -0.52)"/><path id="bc9300e8-de41-4d98-9034-71fee7ce4a84" data-name="path11" class="b2684378-7406-4ca3-8d17-52d38a6847f1" d="M157,66a12.46,12.46,0,0,0-1.63-3.21,13.55,13.55,0,0,0-2.47-2.71,14.71,14.71,0,0,0-3.17-2,28,28,0,0,0-8-2.32,25.9,25.9,0,0,0-4.33-.21,22.18,22.18,0,0,0-5.21.74,15.53,15.53,0,0,0-4.81,2.27,18.38,18.38,0,0,0-3.59,3.4,21.51,21.51,0,0,0-2.07,3.12c-.56,1-1.1,2-1.59,3.05-1,2.06-1.82,4.07-2.51,6a21.2,21.2,0,0,0-.77,3,28,28,0,0,0-.36,2.89,15.27,15.27,0,0,0,0,1.89q0,.81.15,1.62a8.87,8.87,0,0,0,.46,2,15.9,15.9,0,0,0,1.54,3.33,13.13,13.13,0,0,0,2.7,3.1,14.68,14.68,0,0,0,3.61,2.19,31.16,31.16,0,0,0,9,2.21,24,24,0,0,0,4.72,0,19.66,19.66,0,0,0,5.15-1.18,14.52,14.52,0,0,0,4.49-2.78,18,18,0,0,0,3.31-4.17,45.42,45.42,0,0,0,2.52-5.14c.77-1.77,1.5-3.57,2-4.91a24.82,24.82,0,0,0,1-3.14,19.94,19.94,0,0,0,.46-2.8A15.3,15.3,0,0,0,157,66Zm-10.5,4.28c-.57,2.08-1.16,4.16-1.86,6.18s-1.53,4-2.36,5.94a15.1,15.1,0,0,1-2.51,3.84,6.14,6.14,0,0,1-2.26,1.62,6.73,6.73,0,0,1-2.84.48,8.56,8.56,0,0,1-4.1-1.2,7.47,7.47,0,0,1-1.81-1.59,4.85,4.85,0,0,1-1.1-2.85,9,9,0,0,1,.32-2.91,52.7,52.7,0,0,1,5.4-13.1,6.2,6.2,0,0,1,1.28-1.63,5.93,5.93,0,0,1,1.74-1.13,8.07,8.07,0,0,1,3.78-.59,7.77,7.77,0,0,1,4.92,2,5.83,5.83,0,0,1,1.06,1.5,5.39,5.39,0,0,1,.5,1.71,4.28,4.28,0,0,1-.15,1.68h0Z" transform="translate(-0.98 -0.52)"/><path id="ed3de06f-f355-419c-aae9-bc574c0327bd" data-name="polygon13" class="b2684378-7406-4ca3-8d17-52d38a6847f1" d="M167.25,60.85,152.67,98.39,162.83,100l11.3-29.38.26,31.19,15.47,2.41,14.86-37.5L194.6,65.12,184.38,93.89l-1.1-30.54Z" transform="translate(-0.98 -0.52)"/><path id="af9079b6-f768-4f63-8b12-aa2cc2598ee9" data-name="path15" class="b2684378-7406-4ca3-8d17-52d38a6847f1" d="M222.19,101.35l-.72,7.8,10.12,1.58L232.3,71l-14-2.18-26.15,35.75L203,106.26l5.41-7.05,13.83,2.15Zm1.41-24.47-1.13,16.49L213.65,92Z" transform="translate(-0.98 -0.52)"/><path id="ad18ff2e-6520-4ee9-bb61-115d573b14ef" data-name="polygon17" class="b2684378-7406-4ca3-8d17-52d38a6847f1" d="M248.35,73.52,233.48,111l10.13,1.58,11.72-29.39L253,114.09l10,1.56,20.31-28.06L271.5,117l9.9,1.55,15-37.49-18-2.81-16,25.59,3.79-27.5Z" transform="translate(-0.98 -0.52)"/><path id="aae2fa41-d5fb-4deb-b66c-467d9317e133" data-name="polygon19" class="b2684378-7406-4ca3-8d17-52d38a6847f1" d="M303.37,82.11l-14.94,37.51,10.32,1.61,15.08-37.48Z" transform="translate(-0.98 -0.52)"/></g></g></g><path class="a22890c1-66cc-4fd9-95a4-2d2bb0d7af6c" d="M263.94,129.66a4.92,4.92,0,0,0-3.49-2.5,3.82,3.82,0,0,0-3.54,1.07,5.46,5.46,0,0,0-1.37,4,6.84,6.84,0,0,0,1.31,4.22,4.93,4.93,0,0,0,3.33,2.1,3.83,3.83,0,0,0,2.29-.24,2.37,2.37,0,0,0,1.24-1.51l-4-.63v-5.93l13.65,2.14,0,.61c0,.2,0,.38,0,.5v.37a14,14,0,0,1-1.58,6.93,9,9,0,0,1-4.63,4.09,13.38,13.38,0,0,1-7.19.6,17.42,17.42,0,0,1-5.47-1.79,15.46,15.46,0,0,1-4.27-3.28,14.71,14.71,0,0,1-2.75-4.5,14.47,14.47,0,0,1-1-5.37,12.25,12.25,0,0,1,1-5.07,9.84,9.84,0,0,1,2.8-3.72,10.42,10.42,0,0,1,4.29-2,14.13,14.13,0,0,1,5.41-.13,16.23,16.23,0,0,1,9.82,5,17.11,17.11,0,0,1,2.26,3.35l-8.22,1.77Z" transform="translate(-0.98 -0.52)"/><path class="a22890c1-66cc-4fd9-95a4-2d2bb0d7af6c" d="M282.3,135.17l-7.73-12.7,10.12,1.58,2,4.14a7.39,7.39,0,0,1,.51,1.26,8.16,8.16,0,0,1,.21,1.51,10.45,10.45,0,0,1,.24-1.46,4.66,4.66,0,0,1,.48-1.1l1.95-3.52,10.14,1.59-7.73,10.28,8.65,14.61L291,149.78l-2.95-5.86a5.56,5.56,0,0,1-.52-1.33,7.11,7.11,0,0,1-.13-1.54,7,7,0,0,1-.13,1.53,3.62,3.62,0,0,1-.52,1.14l-3,4.93-10.14-1.59,8.66-11.9Z" transform="translate(-0.98 -0.52)"/></g></g></svg>