<svg id="a5db4810-3f6e-40bf-b04d-bc6c2d32e504" data-name="bae51f9f-9ab5-4723-91c1-5de94dc4635e" xmlns="http://www.w3.org/2000/svg" xmlns:xlink="http://www.w3.org/1999/xlink" viewBox="0 0 87.6 88.6"><defs><style>.b94bf7ea-22b4-4ab3-9d94-ee5fb59f3755,.f60c4a52-fb16-4f48-90e3-68ea8498c563{fill:#211c1d;}.bf56ef81-9e00-4f07-a1c2-80e4693d4b87{opacity:0.1;}.f83cefd1-91f4-4154-9b87-28a1ef4f1290{fill:#808094;}.a540be66-1047-49b0-b588-c78f6a3cdb1e{fill:#6d6e6f;}.ff89da76-956b-4683-a1c8-b3f485d8b27f{fill:url(#e5e5e094-7a60-4e8e-a9e6-a1e16abea62a);}.f60c4a52-fb16-4f48-90e3-68ea8498c563{opacity:0.3;}.b1a6c030-73ac-4065-bcd1-56104e415a56,.e78ddf5b-6529-4aa7-be24-2c8b661a201f,.f60c4a52-fb16-4f48-90e3-68ea8498c563{isolation:isolate;}.e78ddf5b-6529-4aa7-be24-2c8b661a201f{opacity:0.15;fill:url(#f1649f7d-ca08-497b-99c5-f999847480bc);}.b1a6c030-73ac-4065-bcd1-56104e415a56{opacity:0.4;fill:url(#b1c7d639-41b6-4f0a-98ee-57a269d06d02);}.b5443f45-4fa0-4222-a91f-8f6c6e8d6c3c{fill:#bc0224;}</style><linearGradient id="e5e5e094-7a60-4e8e-a9e6-a1e16abea62a" x1="-747.89" y1="2455.81" x2="-768.82" y2="2434.88" gradientTransform="translate(802.18 -2401.52)" gradientUnits="userSpaceOnUse"><stop offset="0" stop-color="#a4a5a9"/><stop offset="1" stop-color="#e6e6e7"/></linearGradient><linearGradient id="f1649f7d-ca08-497b-99c5-f999847480bc" x1="-768.76" y1="2455.8" x2="-747.88" y2="2434.93" gradientTransform="translate(802.18 -2401.52)" gradientUnits="userSpaceOnUse"><stop offset="0" stop-color="#211c1d" stop-opacity="0"/><stop offset="0.04" stop-color="#211c1d" stop-opacity="0.09"/><stop offset="0.5" stop-color="#211c1d"/><stop offset="0.95" stop-color="#211c1d" stop-opacity="0.09"/><stop offset="1" stop-color="#211c1d" stop-opacity="0"/></linearGradient><linearGradient id="b1c7d639-41b6-4f0a-98ee-57a269d06d02" x1="-5886.68" y1="-3866.42" x2="-5865.8" y2="-3887.31" gradientTransform="translate(-5832.48 -3833.03) rotate(180)" gradientUnits="userSpaceOnUse"><stop offset="0" stop-color="#fff" stop-opacity="0"/><stop offset="0.5" stop-color="#fff"/><stop offset="1" stop-color="#fff" stop-opacity="0"/></linearGradient></defs><circle class="b94bf7ea-22b4-4ab3-9d94-ee5fb59f3755" cx="43.8" cy="43.8" r="43.8"/><g class="bf56ef81-9e00-4f07-a1c2-80e4693d4b87"><path class="f83cefd1-91f4-4154-9b87-28a1ef4f1290" d="M84.4,43.8l-8.6-8.9v4.3H66v9.1h9.8v4.3ZM72.5,15.1l-12.4-.2L63.2,18l-7,7,6.4,6.4,7-7,3.1,3.1ZM43.8,3.2l-8.9,8.6h4.3v9.8h9.1V11.8h4.3ZM15.1,15.1l-.2,12.4L18,24.4l7,7L31.4,25l-7-7,3.1-3.1ZM3.2,43.8l8.6,8.9V48.4h9.8V39.3H11.8V35ZM15.1,72.5l12.4.2-3.1-3.1,7-7L25,56.2l-7,7-3.1-3.1ZM43.8,84.4l8.9-8.6H48.4V66H39.3v9.8H35ZM72.5,72.5l.2-12.4-3.1,3.1-7-7-6.4,6.4,7,7-3.1,3.1Z" transform="translate(0 0)"/></g><path class="a540be66-1047-49b0-b588-c78f6a3cdb1e" d="M87.6,44.3A43.81,43.81,0,0,1,0,44.3v.5a43.8,43.8,0,0,0,87.6,0Z" transform="translate(0 0)"/><circle class="ff89da76-956b-4683-a1c8-b3f485d8b27f" cx="43.8" cy="43.8" r="14.8"/><circle class="f60c4a52-fb16-4f48-90e3-68ea8498c563" cx="43.8" cy="43.8" r="11.8"/><path class="e78ddf5b-6529-4aa7-be24-2c8b661a201f" d="M43.8,29.1A14.75,14.75,0,1,0,58.6,43.9,14.75,14.75,0,0,0,43.8,29.1Zm-.2,28.7A14.15,14.15,0,1,1,57.8,43.7,14.16,14.16,0,0,1,43.6,57.8Z" transform="translate(0 0)"/><path class="b1a6c030-73ac-4065-bcd1-56104e415a56" d="M43.8,58.6A14.75,14.75,0,1,0,29,43.9,14.75,14.75,0,0,0,43.8,58.6ZM44,29.9a14.1,14.1,0,0,1,0,28.2h0A14,14,0,0,1,29.9,44.2h0V44h0A14.08,14.08,0,0,1,44,29.9Z" transform="translate(0 0)"/><circle class="b5443f45-4fa0-4222-a91f-8f6c6e8d6c3c" cx="43.6" cy="32.8" r="20.5"/></svg>