<svg xmlns="http://www.w3.org/2000/svg" xmlns:xlink="http://www.w3.org/1999/xlink" viewBox="0 0 470.58 67.66"><defs><style>.ae37c758-dd99-4038-a4bf-10eebbd518c3{stroke:#9def48;stroke-miterlimit:10;fill:url(#e3b8d016-b202-4a3a-8c3b-dd94394556d1);}.ecf5949e-13e2-4d71-a46f-ffd9c0989973{fill:#9def48;}.b472497e-1e8d-4d97-b390-5607bdd04533{fill:#e51e2b;}</style><linearGradient id="e3b8d016-b202-4a3a-8c3b-dd94394556d1" x1="0.5" y1="33.83" x2="470.08" y2="33.83" gradientUnits="userSpaceOnUse"><stop offset="0" stop-color="#032c02"/><stop offset="1" stop-color="#207a09"/></linearGradient></defs><g id="e03638e0-c7f8-4fda-afd4-5561f559e649" data-name="calque3"><polygon class="ae37c758-dd99-4038-a4bf-10eebbd518c3" points="0.5 6.04 102.57 6.04 108.7 0.5 150.44 0.5 158.35 6.04 461.77 6.24 470.08 16.13 470.08 59.84 50.94 59.84 42.83 67.16 8.02 67.16 0.5 59.84 0.5 6.04"/><path class="ecf5949e-13e2-4d71-a46f-ffd9c0989973" d="M85.15,30.15q.09,1,.09,2A18.22,18.22,0,0,1,81,44.44H56.87a18.22,18.22,0,0,1-4.22-12.25,18.19,18.19,0,0,1,4.22-12.26H81a17.11,17.11,0,0,1,3.67,7.3H80.32A18.89,18.89,0,0,0,78.85,24H59.06a16.33,16.33,0,0,0-2.34,8.19,16.37,16.37,0,0,0,2.34,8.18H78.85A17.83,17.83,0,0,0,81,34.2H66.27V30.15Z"/><path class="ecf5949e-13e2-4d71-a46f-ffd9c0989973" d="M116.27,44.44l-11.79-9.57L92.69,44.44h-6.6l15.09-12.25L86.09,19.93h6.6l11.79,9.57,11.79-9.57h6.6L107.78,32.19l15.09,12.25Z"/></g><g id="bf063734-c8a4-483b-9c0e-22c927dd414b" data-name="konami"><g id="e787db86-e67f-40b9-bee2-f3e13fc755c0" data-name="g2993"><g id="b12400ea-1d92-4532-a73c-68baf99fd97e" data-name="g2998"><g id="a7465f8f-05a9-4096-9472-8311c149fcce" data-name="g3065"><path id="a7dd1e99-2f76-4754-b844-e3b858abaa5a" data-name="path3067" class="b472497e-1e8d-4d97-b390-5607bdd04533" d="M29.73,54.9a3.88,3.88,0,0,1-1.19,2c-.73.72-3.75,3.27-3.75,3.27l-3.88-4.08v2.21L24.55,62a5,5,0,0,0,.37.35v0H21.63a.72.72,0,0,0-.72.72v1.93a.07.07,0,0,0,.13,0,.77.77,0,0,1,.82-.52h8V62.4h-4.4v0c.12-.08.26-.21.43-.35,0,0,2.67-2.27,2.92-2.51,1-1,1.36-2.31,1.14-4.62,0-.12-.14-.12-.17,0"/></g><g id="f13f99d2-5169-4839-8ee9-2469915e5415" data-name="g3069"><path id="bd8ba0ac-5a1a-4d77-aa6e-efa41f04dac3" data-name="path3071" class="b472497e-1e8d-4d97-b390-5607bdd04533" d="M29.23,50.7c0,1.79-1.75,2.81-3.75,2.81-2.31,0-4-1-4-2.81s1.75-2.81,3.75-2.81c2.36,0,4,1,4,2.81m-8.64,0a4.91,4.91,0,0,0,4.77,5.22c2.69,0,4.78-2,4.78-5.22a4.9,4.9,0,0,0-4.78-5.21c-2.68,0-4.77,2-4.77,5.21"/></g><g id="e6181b39-8ad2-4546-b1b2-e0105db3ad07" data-name="g3073"><path id="aba27cc7-a515-406e-a5f8-202eb81533a3" data-name="path3075" class="b472497e-1e8d-4d97-b390-5607bdd04533" d="M29.81,12.42l-8.12,1.33a.94.94,0,0,0-.78.91v1.25L26,18.09c.23.1.4.16.54.21h0c-.14.05-.31.11-.51.2l-4.52,1.92h0a1,1,0,0,0-.58.86v1.91a.07.07,0,0,0,.13,0c.12-.26.31-.44.81-.36l8,1.3V22.81l-5.61-.87c-.29-.05-.64-.1-.82-.11h0l.8-.32,5.63-2.4v-.71L24.08,16c-.34-.14-.58-.24-.76-.3h0l.89-.12,5.6-.9Z"/></g><g id="b2ad5038-a91a-46ad-a136-06384b6dc8c1" data-name="g3077"><path id="b9782047-17a7-47cf-837d-0c434c520fd7" data-name="path3079" class="b472497e-1e8d-4d97-b390-5607bdd04533" d="M20.91,9.15v2a.07.07,0,0,0,.13,0,.76.76,0,0,1,.82-.53h8V8.43H21.63a.72.72,0,0,0-.72.72"/></g><g id="bcea30f6-8bae-4d9a-98c9-ff23a2409643" data-name="g3081"><path id="bc0ca633-f7e2-4254-b768-4322c175ac79" data-name="path3083" class="b472497e-1e8d-4d97-b390-5607bdd04533" d="M20.91,36.86H26l.63,0v0c-.24.17-.49.36-.82.64l-4.42,3.83a1.22,1.22,0,0,0-.48,1.09v1.94a.07.07,0,0,0,.13,0,.76.76,0,0,1,.82-.53h8V42.42H24.09l-.8,0v0c.36-.27.84-.64,1.19-.94l5.33-4.59v-.76a.72.72,0,0,0-.72-.72H20.91Z"/></g><g id="a4582757-0f27-43c3-a44a-79303769e9a9" data-name="g3085"><path id="abb0fd75-5c93-4479-a81a-fcf2d78beaca" data-name="path3087" class="b472497e-1e8d-4d97-b390-5607bdd04533" d="M26.69,31.66l-3.07-1.39-.37-.15v0l.37-.15,3.07-1.36Zm3.12-4.46V24.75l-8.35,3.87a.94.94,0,0,0-.55.85v1.69a.07.07,0,0,0,.13,0,.61.61,0,0,1,.77-.2l8,3.74V33.08l-2-.93v-4l2-.91Z"/></g></g></g></g></svg>