<svg id="e55a642b-fd84-40e2-9a2c-6867fd26324f" data-name="bae51f9f-9ab5-4723-91c1-5de94dc4635e" xmlns="http://www.w3.org/2000/svg" xmlns:xlink="http://www.w3.org/1999/xlink" viewBox="0 0 87.6 88.6"><defs><style>.ac770a4b-ebe7-49ca-b018-ca65c11725c1,.b48a1f5b-22cb-4984-91e6-816e9c9d07a6{fill:#211c1d;}.e47461a5-e9d9-4a81-89ca-c0ca1ffb7e06{opacity:0.1;}.a8175107-7dc7-43ff-aab7-5bcd4f92d21d{fill:#808094;}.ab2caaa3-8cd8-488a-b2af-35d840502a8c{fill:#6d6e6f;}.ba54a195-35b3-47b4-8b4c-e50e2d6b37b9{fill:url(#afb2895c-e4ae-4834-be8f-e1eb3f09f5f6);}.b48a1f5b-22cb-4984-91e6-816e9c9d07a6{opacity:0.3;}.ac273f5f-dcd3-4c07-9cf8-a330ebe270c9,.b44e376c-15e7-40ce-97bf-72272c4449c4,.b48a1f5b-22cb-4984-91e6-816e9c9d07a6{isolation:isolate;}.b44e376c-15e7-40ce-97bf-72272c4449c4{opacity:0.15;fill:url(#fa59b8ab-9210-46bd-b98f-3fc7b3d48dd9);}.ac273f5f-dcd3-4c07-9cf8-a330ebe270c9{opacity:0.4;fill:url(#bb9716bb-042a-44eb-a284-da7cd28c1d0d);}.b6d391fc-91c8-45e8-8762-6ad8ad18514a{fill:#f70303;}</style><linearGradient id="afb2895c-e4ae-4834-be8f-e1eb3f09f5f6" x1="-747.89" y1="2455.81" x2="-768.82" y2="2434.88" gradientTransform="translate(802.18 -2401.52)" gradientUnits="userSpaceOnUse"><stop offset="0" stop-color="#a4a5a9"/><stop offset="1" stop-color="#e6e6e7"/></linearGradient><linearGradient id="fa59b8ab-9210-46bd-b98f-3fc7b3d48dd9" x1="-768.76" y1="2455.8" x2="-747.88" y2="2434.93" gradientTransform="translate(802.18 -2401.52)" gradientUnits="userSpaceOnUse"><stop offset="0" stop-color="#211c1d" stop-opacity="0"/><stop offset="0.04" stop-color="#211c1d" stop-opacity="0.09"/><stop offset="0.5" stop-color="#211c1d"/><stop offset="0.95" stop-color="#211c1d" stop-opacity="0.09"/><stop offset="1" stop-color="#211c1d" stop-opacity="0"/></linearGradient><linearGradient id="bb9716bb-042a-44eb-a284-da7cd28c1d0d" x1="-5886.68" y1="-3866.42" x2="-5865.8" y2="-3887.31" gradientTransform="translate(-5832.48 -3833.03) rotate(180)" gradientUnits="userSpaceOnUse"><stop offset="0" stop-color="#fff" stop-opacity="0"/><stop offset="0.5" stop-color="#fff"/><stop offset="1" stop-color="#fff" stop-opacity="0"/></linearGradient></defs><circle class="ac770a4b-ebe7-49ca-b018-ca65c11725c1" cx="43.8" cy="43.8" r="43.8"/><g class="e47461a5-e9d9-4a81-89ca-c0ca1ffb7e06"><path class="a8175107-7dc7-43ff-aab7-5bcd4f92d21d" d="M84.4,43.8l-8.6-8.9v4.3H66v9.1h9.8v4.3ZM72.5,15.1l-12.4-.2L63.2,18l-7,7,6.4,6.4,7-7,3.1,3.1ZM43.8,3.2l-8.9,8.6h4.3v9.8h9.1V11.8h4.3ZM15.1,15.1l-.2,12.4L18,24.4l7,7L31.4,25l-7-7,3.1-3.1ZM3.2,43.8l8.6,8.9V48.4h9.8V39.3H11.8V35ZM15.1,72.5l12.4.2-3.1-3.1,7-7L25,56.2l-7,7-3.1-3.1ZM43.8,84.4l8.9-8.6H48.4V66H39.3v9.8H35ZM72.5,72.5l.2-12.4-3.1,3.1-7-7-6.4,6.4,7,7-3.1,3.1Z" transform="translate(0 0)"/></g><path class="ab2caaa3-8cd8-488a-b2af-35d840502a8c" d="M87.6,44.3A43.81,43.81,0,0,1,0,44.3v.5a43.8,43.8,0,0,0,87.6,0Z" transform="translate(0 0)"/><circle class="ba54a195-35b3-47b4-8b4c-e50e2d6b37b9" cx="43.8" cy="43.8" r="14.8"/><circle class="b48a1f5b-22cb-4984-91e6-816e9c9d07a6" cx="43.8" cy="43.8" r="11.8"/><path class="b44e376c-15e7-40ce-97bf-72272c4449c4" d="M43.8,29.1A14.75,14.75,0,1,0,58.6,43.9,14.75,14.75,0,0,0,43.8,29.1Zm-.2,28.7A14.15,14.15,0,1,1,57.8,43.7,14.16,14.16,0,0,1,43.6,57.8Z" transform="translate(0 0)"/><path class="ac273f5f-dcd3-4c07-9cf8-a330ebe270c9" d="M43.8,58.6A14.75,14.75,0,1,0,29,43.9,14.75,14.75,0,0,0,43.8,58.6ZM44,29.9a14.1,14.1,0,0,1,0,28.2h0A14,14,0,0,1,29.9,44.2h0V44h0A14.08,14.08,0,0,1,44,29.9Z" transform="translate(0 0)"/><circle class="b6d391fc-91c8-45e8-8762-6ad8ad18514a" cx="43.6" cy="32.8" r="20.5"/></svg>