<svg id="ba79153c-646e-40b6-945b-1ded99cc3242" data-name="bae51f9f-9ab5-4723-91c1-5de94dc4635e" xmlns="http://www.w3.org/2000/svg" xmlns:xlink="http://www.w3.org/1999/xlink" viewBox="0 0 87.6 88.6"><defs><style>.fadf6e7b-430a-4b10-9b1f-f952894f55d0,.ffc57db5-bc05-4a88-b0d9-affac63d30d9{fill:#211c1d;}.fa94da7a-b85d-49fe-83ab-13883bf4f8e7{opacity:0.1;}.b05efbbe-dbf5-433d-8aed-f3845fb0b5d7{fill:#808094;}.a9cc172b-caf1-4135-863d-451f2ff3fe0b{fill:#6d6e6f;}.a8b5aa8e-3f7e-4cc3-a3f3-49826e1cba17{fill:url(#ac2c7d6a-2669-47de-9818-648c0593e2ce);}.fadf6e7b-430a-4b10-9b1f-f952894f55d0{opacity:0.3;}.b3af6da7-6172-48e3-ad9a-a48ae7575ab2,.ebf3e7e7-b001-4b09-8c6e-01a59d1438e7,.fadf6e7b-430a-4b10-9b1f-f952894f55d0{isolation:isolate;}.ebf3e7e7-b001-4b09-8c6e-01a59d1438e7{opacity:0.15;fill:url(#ef801534-d08e-4365-bfa4-977b04fb8002);}.b3af6da7-6172-48e3-ad9a-a48ae7575ab2{opacity:0.4;fill:url(#b8120d47-074f-454b-b47f-f63f279ec598);}.fe8dab9f-c5cd-4571-bbb7-b3bd24799e78{fill:#f9f7f7;}</style><linearGradient id="ac2c7d6a-2669-47de-9818-648c0593e2ce" x1="-747.89" y1="2455.81" x2="-768.82" y2="2434.88" gradientTransform="translate(802.18 -2401.52)" gradientUnits="userSpaceOnUse"><stop offset="0" stop-color="#a4a5a9"/><stop offset="1" stop-color="#e6e6e7"/></linearGradient><linearGradient id="ef801534-d08e-4365-bfa4-977b04fb8002" x1="-768.76" y1="2455.8" x2="-747.88" y2="2434.93" gradientTransform="translate(802.18 -2401.52)" gradientUnits="userSpaceOnUse"><stop offset="0" stop-color="#211c1d" stop-opacity="0"/><stop offset="0.04" stop-color="#211c1d" stop-opacity="0.09"/><stop offset="0.5" stop-color="#211c1d"/><stop offset="0.95" stop-color="#211c1d" stop-opacity="0.09"/><stop offset="1" stop-color="#211c1d" stop-opacity="0"/></linearGradient><linearGradient id="b8120d47-074f-454b-b47f-f63f279ec598" x1="-5886.68" y1="-3866.42" x2="-5865.8" y2="-3887.31" gradientTransform="translate(-5832.48 -3833.03) rotate(180)" gradientUnits="userSpaceOnUse"><stop offset="0" stop-color="#fff" stop-opacity="0"/><stop offset="0.5" stop-color="#fff"/><stop offset="1" stop-color="#fff" stop-opacity="0"/></linearGradient></defs><circle class="ffc57db5-bc05-4a88-b0d9-affac63d30d9" cx="43.8" cy="43.8" r="43.8"/><g class="fa94da7a-b85d-49fe-83ab-13883bf4f8e7"><path class="b05efbbe-dbf5-433d-8aed-f3845fb0b5d7" d="M84.4,43.8l-8.6-8.9v4.3H66v9.1h9.8v4.3ZM72.5,15.1l-12.4-.2L63.2,18l-7,7,6.4,6.4,7-7,3.1,3.1ZM43.8,3.2l-8.9,8.6h4.3v9.8h9.1V11.8h4.3ZM15.1,15.1l-.2,12.4L18,24.4l7,7L31.4,25l-7-7,3.1-3.1ZM3.2,43.8l8.6,8.9V48.4h9.8V39.3H11.8V35ZM15.1,72.5l12.4.2-3.1-3.1,7-7L25,56.2l-7,7-3.1-3.1ZM43.8,84.4l8.9-8.6H48.4V66H39.3v9.8H35ZM72.5,72.5l.2-12.4-3.1,3.1-7-7-6.4,6.4,7,7-3.1,3.1Z" transform="translate(0 0)"/></g><path class="a9cc172b-caf1-4135-863d-451f2ff3fe0b" d="M87.6,44.3A43.81,43.81,0,0,1,0,44.3v.5a43.8,43.8,0,0,0,87.6,0Z" transform="translate(0 0)"/><circle class="a8b5aa8e-3f7e-4cc3-a3f3-49826e1cba17" cx="43.8" cy="43.8" r="14.8"/><circle class="fadf6e7b-430a-4b10-9b1f-f952894f55d0" cx="43.8" cy="43.8" r="11.8"/><path class="ebf3e7e7-b001-4b09-8c6e-01a59d1438e7" d="M43.8,29.1A14.75,14.75,0,1,0,58.6,43.9,14.75,14.75,0,0,0,43.8,29.1Zm-.2,28.7A14.15,14.15,0,1,1,57.8,43.7,14.16,14.16,0,0,1,43.6,57.8Z" transform="translate(0 0)"/><path class="b3af6da7-6172-48e3-ad9a-a48ae7575ab2" d="M43.8,58.6A14.75,14.75,0,1,0,29,43.9,14.75,14.75,0,0,0,43.8,58.6ZM44,29.9a14.1,14.1,0,0,1,0,28.2h0A14,14,0,0,1,29.9,44.2h0V44h0A14.08,14.08,0,0,1,44,29.9Z" transform="translate(0 0)"/><circle class="fe8dab9f-c5cd-4571-bbb7-b3bd24799e78" cx="43.6" cy="32.8" r="20.5"/></svg>