<svg xmlns="http://www.w3.org/2000/svg" xmlns:xlink="http://www.w3.org/1999/xlink" viewBox="0 0 470.58 67.66"><defs><style>.a5275a74-3028-4ef0-959c-ede744e4ba16{stroke:#9def48;stroke-miterlimit:10;fill:url(#e9e94dff-8a67-41cd-82bf-35070f820802);}.a46a18a8-b9f9-42f0-a19e-bb6c9869151f{fill:#9def48;}.e3c8d821-d342-4b83-9ddb-e5c8d251dcd8{fill:#fff;}</style><linearGradient id="e9e94dff-8a67-41cd-82bf-35070f820802" x1="0.5" y1="33.83" x2="470.08" y2="33.83" gradientUnits="userSpaceOnUse"><stop offset="0" stop-color="#032c02"/><stop offset="1" stop-color="#207a09"/></linearGradient></defs><g id="a3164ec1-0630-4ec4-8306-47c8cbe040f1" data-name="calque3"><polygon class="a5275a74-3028-4ef0-959c-ede744e4ba16" points="0.5 6.04 102.57 6.04 108.7 0.5 150.44 0.5 158.35 6.04 461.77 6.24 470.08 16.13 470.08 59.84 50.94 59.84 42.83 67.16 8.02 67.16 0.5 59.84 0.5 6.04"/><path class="a46a18a8-b9f9-42f0-a19e-bb6c9869151f" d="M57.57,34.8V45H53.5V24l4.07-4.07V30.75h6.8L77,20.53h6.6L68.46,32.78,83.55,45H77L64.34,34.8Z"/><path class="a46a18a8-b9f9-42f0-a19e-bb6c9869151f" d="M94.62,38.22,90.33,45H85.26l15.57-24.51h4.68L121,45h-5l-4.24-6.82Zm14.56-4-6-9.59-6,9.59Z"/><path class="a46a18a8-b9f9-42f0-a19e-bb6c9869151f" d="M128.22,24.6a16.32,16.32,0,0,0-2.34,8.18A16.38,16.38,0,0,0,128.22,41h2.7V45H126a18.23,18.23,0,0,1-4.22-12.26A18.18,18.18,0,0,1,126,20.53h24.15a18.18,18.18,0,0,1,4.22,12.25A18.23,18.23,0,0,1,150.18,45h-4.89V41H148a16.45,16.45,0,0,0,2.32-8.19A16.39,16.39,0,0,0,148,24.6Z"/><path class="a46a18a8-b9f9-42f0-a19e-bb6c9869151f" d="M182.7,34.8H165.78A17.49,17.49,0,0,0,168,41h20.13L190.46,45H165.8a17.67,17.67,0,0,1-4.13-10.24h-3.85v-4h3.85a17.59,17.59,0,0,1,4.13-10.22h24.66l-2.34,4.07H168a17.33,17.33,0,0,0-2.21,6.15H182.7Z"/><path class="a46a18a8-b9f9-42f0-a19e-bb6c9869151f" d="M198.8,34.8V45h-4.07V24l4.07-4.07V30.75h6.8l12.58-10.22h6.6L209.69,32.78,224.78,45h-6.6L205.57,34.8Z"/><path class="a46a18a8-b9f9-42f0-a19e-bb6c9869151f" d="M254,45H229.85a18.23,18.23,0,0,1-4.22-12.26,18.18,18.18,0,0,1,4.22-12.25H254a18.13,18.13,0,0,1,4.22,12.25A18.18,18.18,0,0,1,254,45ZM251.83,41a16.47,16.47,0,0,0,2.33-8.19,16.41,16.41,0,0,0-2.33-8.18H232a16.32,16.32,0,0,0-2.34,8.18A16.38,16.38,0,0,0,232,41Z"/></g><g id="e017c348-c4ff-4b13-997a-966f0e0c8231" data-name="kaneko"><g id="a8936837-2711-4583-84f2-be53598ab15c" data-name="g1"><path id="fdfe1e38-db76-4100-8267-75f3285f934a" data-name="path1" class="e3c8d821-d342-4b83-9ddb-e5c8d251dcd8" d="M29.1,64.8l-2.19,0-.08-.27a1.72,1.72,0,0,0-3.25.07l-.06.25H19.28l0-28.32,0-28.32,6,0,6,0v56.7Zm.49-51.53a4.49,4.49,0,0,0-8.79,1.34A4.22,4.22,0,0,0,22,17.69a4.44,4.44,0,0,0,6.37.17,4.26,4.26,0,0,0,1.36-3.22A4.46,4.46,0,0,0,29.59,13.27Zm-2.14,2.36a2.51,2.51,0,0,1-3.78.73,2.4,2.4,0,0,1-.62-2.65,2.92,2.92,0,0,1,1.41-1.26,2.58,2.58,0,0,1,2.45.49,2.16,2.16,0,0,1,.54,2.69ZM25.29,59.38H21l0,1,0,1h8.61l0-1,0-1Zm4.24-6.47c-.05,0-1.48,1.33-4,3.7l-.48.46-2-1.89c-1.1-1-2-1.89-2.05-1.89a6.38,6.38,0,0,0-.06,1.2v1.2l1.68,1.68,1.68,1.68H26l1.77-1.77,1.78-1.77v-1.3A7.42,7.42,0,0,0,29.53,52.91Zm0-9.46s-2,.93-4.3,2.08L21,47.6v1.09a4.24,4.24,0,0,0,.07,1.09s1.53-.74,3.31-1.63l3.24-1.63V50l-1-.43L25,48.79l-.73-.33a4.53,4.53,0,0,0,0,.86l0,.86,2.26,1.17c1.85,1,2.35,1.18,2.68,1.18h.4V48C29.59,45.34,29.55,43.45,29.5,43.45Zm-3.28-2.84H22.86l0-1.22c0-1.36.12-1.57.75-1.94.3-.18.53-.19,3.14-.23l2.81,0,0-1,0-1H23.2l-.63.31a2.41,2.41,0,0,0-1.32,1.39c-.21.45-.22.6-.25,3.19l0,2.72h8.62V40.61Zm2.42-14.56H27.7v5.58H26.14V26.1l-.93,0-.92,0v7.76h5.3V26.05Zm.69-6.89c-.14.12-1,.95-2,1.83l-2,1.86-.29.27-2-1.84c-1.08-1-2-1.85-2.05-1.85A3.81,3.81,0,0,0,21,20.59v1.16l1.68,1.68,1.68,1.68h1.8l1.73-1.74,1.72-1.73V18.93Zm-7.4,6.89H21v7.76h1.89V26.05Z"/></g></g></svg>