<svg id="a6c98db2-9476-47bf-b3ae-e6e08b3607ed" data-name="texte" xmlns="http://www.w3.org/2000/svg" xmlns:xlink="http://www.w3.org/1999/xlink" viewBox="0 0 470.33 67.41"><defs><style>.fec4c6c6-99bb-4985-8a05-ac08beaf3594{stroke:#9def48;stroke-miterlimit:10;stroke-width:0.75px;fill:url(#bf936ff3-e09b-41ad-bad7-32d496e9a292);}.bd5871e6-6098-4421-b7b1-c0715072eb05{fill:#9def48;}</style><linearGradient id="bf936ff3-e09b-41ad-bad7-32d496e9a292" x1="0.38" y1="33.7" x2="469.96" y2="33.7" gradientUnits="userSpaceOnUse"><stop offset="0" stop-color="#032c02"/><stop offset="1" stop-color="#207a09"/></linearGradient></defs><polygon class="fec4c6c6-99bb-4985-8a05-ac08beaf3594" points="0.38 5.91 102.44 5.91 108.57 0.38 150.31 0.38 158.22 5.91 461.65 6.11 469.96 16 469.96 59.72 50.81 59.72 42.7 67.03 7.89 67.03 0.38 59.72 0.38 5.91"/><path class="bd5871e6-6098-4421-b7b1-c0715072eb05" d="M65.82,40.05l-3.48,3.48v-18H50.94V22H77.22V25.5H65.82Z" transform="translate(-0.06 -0.03)"/><path class="bd5871e6-6098-4421-b7b1-c0715072eb05" d="M80.85,37.18,77.18,43H72.82L86.17,22h4l13.25,21h-4.3L95.5,37.18Zm12.48-3.47-5.12-8.22L83,33.71Z" transform="translate(-0.06 -0.03)"/><path class="bd5871e6-6098-4421-b7b1-c0715072eb05" d="M127.87,36.77h3.75A14.53,14.53,0,0,1,128.47,43H107.78a15.55,15.55,0,0,1-3.62-10.5A15.55,15.55,0,0,1,107.78,22h20.69a14.47,14.47,0,0,1,3.15,6.25h-3.75a15.13,15.13,0,0,0-1.26-2.77h-17a14,14,0,0,0-2,7,14.08,14.08,0,0,0,2,7h17A16.1,16.1,0,0,0,127.87,36.77Z" transform="translate(-0.06 -0.03)"/><path class="bd5871e6-6098-4421-b7b1-c0715072eb05" d="M148.7,40.05l-3.48,3.48v-18h-11.4V22H160.1V25.5H148.7Z" transform="translate(-0.06 -0.03)"/><path class="bd5871e6-6098-4421-b7b1-c0715072eb05" d="M168,43h-3.49V25L168,21.5Z" transform="translate(-0.06 -0.03)"/><path class="bd5871e6-6098-4421-b7b1-c0715072eb05" d="M196.09,36.77h3.75A14.64,14.64,0,0,1,196.69,43H176a15.6,15.6,0,0,1-3.61-10.5A15.6,15.6,0,0,1,176,22h20.7a14.58,14.58,0,0,1,3.15,6.25h-3.75a15.13,15.13,0,0,0-1.26-2.77h-17a14,14,0,0,0-2,7,14.08,14.08,0,0,0,2,7h17A16.1,16.1,0,0,0,196.09,36.77Z" transform="translate(-0.06 -0.03)"/><path class="bd5871e6-6098-4421-b7b1-c0715072eb05" d="M208.6,37.18,204.92,43h-4.35l13.35-21h4l13.25,21h-4.3l-3.63-5.84Zm12.48-3.47L216,25.49l-5.17,8.22Z" transform="translate(-0.06 -0.03)"/><path class="bd5871e6-6098-4421-b7b1-c0715072eb05" d="M237.59,39.54h15.79l2,3.48H234.1V25l3.49-3.49Z" transform="translate(-0.06 -0.03)"/><path class="bd5871e6-6098-4421-b7b1-c0715072eb05" d="M290.46,39.54h2.33a15.23,15.23,0,0,0,1.87-5.29H273.93a15.28,15.28,0,0,0,1.89,5.29h2.32V43H274a15.17,15.17,0,0,1-3.55-8.77h-3.29V30.78h3.29A15.09,15.09,0,0,1,274,22h20.7a15,15,0,0,1,3.54,8.77l-1.51.85V33.4l1.51.85A15.1,15.1,0,0,1,294.65,43h-4.19Zm-16.53-8.76h20.73a15.11,15.11,0,0,0-1.87-5.28h-17A15.16,15.16,0,0,0,273.93,30.78Z" transform="translate(-0.06 -0.03)"/><path class="bd5871e6-6098-4421-b7b1-c0715072eb05" d="M330.7,34.25H308a14.88,14.88,0,0,0,1.89,5.29h2.31V43H308a15.1,15.1,0,0,1-3.54-8.77h-3.3V30.78h3.3A15,15,0,0,1,308,22h20.7a15.57,15.57,0,0,1,3.62,10.5ZM308,30.78h20.72a14.91,14.91,0,0,0-1.87-5.28h-17A14.77,14.77,0,0,0,308,30.78Z" transform="translate(-0.06 -0.03)"/><path class="bd5871e6-6098-4421-b7b1-c0715072eb05" d="M363,30.78c0,.56.07,1.14.07,1.74A15.6,15.6,0,0,1,359.45,43h-20.7a15.6,15.6,0,0,1-3.62-10.5A15.57,15.57,0,0,1,338.75,22h20.7a14.7,14.7,0,0,1,3.15,6.25h-3.75a15.13,15.13,0,0,0-1.26-2.77h-17a14,14,0,0,0-2,7,14.08,14.08,0,0,0,2,7h17a15.25,15.25,0,0,0,1.88-5.29H346.81V30.78Z" transform="translate(-0.06 -0.03)"/></svg>