<svg id="a239eaf1-8294-4681-a69a-fb3ec2beb79f" data-name="b6ddcd02-f928-4e67-9a53-31319260ed2a" xmlns="http://www.w3.org/2000/svg" xmlns:xlink="http://www.w3.org/1999/xlink" viewBox="0 0 87.6 88.6"><defs><style>.a5ba945f-07a9-472a-a357-6e0be24d6dd1,.e2f33208-1a25-4bc5-bee6-6c852b1b325e{fill:#211c1d;}.b79240d2-727d-4fb8-a5b7-bb61a78504ca{opacity:0.1;}.a7b03092-e857-4aa0-bad0-dc590a141891{fill:#808094;}.ae1abf8a-cea7-4558-86cb-4c2d43ee94b8{fill:#6d6e6f;}.ff85630c-23ae-41c4-b8d9-32409899a25f{fill:url(#f59a5f6d-25c5-4a1f-bb48-b5510e16100c);}.a5ba945f-07a9-472a-a357-6e0be24d6dd1{opacity:0.3;}.a5ba945f-07a9-472a-a357-6e0be24d6dd1,.a6ec595a-3629-4ca4-ba23-48f5adeca49d,.fa2f0e34-dcc0-4654-9981-fbcf9f1731c9{isolation:isolate;}.fa2f0e34-dcc0-4654-9981-fbcf9f1731c9{opacity:0.15;fill:url(#b8580dfe-19b0-4647-bd68-eb67d74cc451);}.a6ec595a-3629-4ca4-ba23-48f5adeca49d{opacity:0.4;fill:url(#a817e5f2-af19-4659-84e3-81cbbbad886d);}.be971426-2bc9-448b-880d-53cdaab65f82{fill:#bf0000;}</style><linearGradient id="f59a5f6d-25c5-4a1f-bb48-b5510e16100c" x1="-747.89" y1="-859.92" x2="-768.84" y2="-838.97" gradientTransform="matrix(1, 0, 0, -1, 802.18, -805.63)" gradientUnits="userSpaceOnUse"><stop offset="0" stop-color="#a4a5a9"/><stop offset="1" stop-color="#e6e6e7"/></linearGradient><linearGradient id="b8580dfe-19b0-4647-bd68-eb67d74cc451" x1="-768.8" y1="-859.91" x2="-747.92" y2="-839.04" gradientTransform="matrix(1, 0, 0, -1, 802.68, -806.13)" gradientUnits="userSpaceOnUse"><stop offset="0" stop-color="#211c1d" stop-opacity="0"/><stop offset="0.04" stop-color="#211c1d" stop-opacity="0.09"/><stop offset="0.5" stop-color="#211c1d"/><stop offset="0.95" stop-color="#211c1d" stop-opacity="0.09"/><stop offset="1" stop-color="#211c1d" stop-opacity="0"/></linearGradient><linearGradient id="a817e5f2-af19-4659-84e3-81cbbbad886d" x1="-4368.71" y1="3200.34" x2="-4347.83" y2="3221.23" gradientTransform="matrix(-1, 0, 0, 1, -4313.98, -3167.42)" gradientUnits="userSpaceOnUse"><stop offset="0" stop-color="#fff" stop-opacity="0"/><stop offset="0.5" stop-color="#fff"/><stop offset="1" stop-color="#fff" stop-opacity="0"/></linearGradient></defs><circle class="e2f33208-1a25-4bc5-bee6-6c852b1b325e" cx="43.8" cy="43.8" r="43.8"/><g class="b79240d2-727d-4fb8-a5b7-bb61a78504ca"><path class="a7b03092-e857-4aa0-bad0-dc590a141891" d="M84.9,43.3l-8.6-8.9v4.3H66.5v9.1h9.8v4.3ZM73,14.6l-12.4-.2,3.1,3.1-7,7,6.4,6.4,7-7L73.2,27ZM44.3,2.7l-8.9,8.6h4.3v9.8h9.1V11.3h4.3ZM15.6,14.6,15.4,27l3.1-3.1,7,7,6.4-6.4-7-7L28,14.4ZM3.7,43.3l8.6,8.9V47.9h9.8V38.8H12.3V34.5ZM15.6,72l12.4.2-3.1-3.1,7-7-6.4-6.4-7,7-3.1-3.1ZM44.3,83.9l8.9-8.6H48.9V65.5H39.8v9.8H35.5ZM73,72l.2-12.4-3.1,3.1-7-7-6.4,6.4,7,7-3.1,3.1Z" transform="translate(-0.5 0.5)"/></g><path class="ae1abf8a-cea7-4558-86cb-4c2d43ee94b8" d="M88.1,43.8a43.81,43.81,0,0,1-87.6,0v.5a43.8,43.8,0,0,0,87.6,0Z" transform="translate(-0.5 0.5)"/><circle class="ff85630c-23ae-41c4-b8d9-32409899a25f" cx="43.8" cy="43.8" r="14.8"/><circle class="a5ba945f-07a9-472a-a357-6e0be24d6dd1" cx="43.8" cy="43.8" r="11.8"/><path class="fa2f0e34-dcc0-4654-9981-fbcf9f1731c9" d="M44.3,28.6A14.75,14.75,0,1,0,59.1,43.4,14.77,14.77,0,0,0,44.3,28.6Zm-.2,28.7A14.15,14.15,0,1,1,58.3,43.2,14.17,14.17,0,0,1,44.1,57.3Z" transform="translate(-0.5 0.5)"/><path class="a6ec595a-3629-4ca4-ba23-48f5adeca49d" d="M44.3,58.1A14.75,14.75,0,1,0,29.5,43.4,14.75,14.75,0,0,0,44.3,58.1Zm.2-28.7a14.1,14.1,0,1,1,0,28.2A14,14,0,0,1,30.4,43.5h0A14.08,14.08,0,0,1,44.5,29.4Z" transform="translate(-0.5 0.5)"/><circle class="be971426-2bc9-448b-880d-53cdaab65f82" cx="43.6" cy="32.8" r="20.5"/></svg>