<svg xmlns="http://www.w3.org/2000/svg" xmlns:xlink="http://www.w3.org/1999/xlink" viewBox="0 0 470.58 67.66"><defs><style>.e1e49ba0-a25a-4277-a34c-68ed34c8b92f{stroke:#9def48;stroke-miterlimit:10;fill:url(#ab964d13-185d-4b92-92cc-150325d28a31);}.b6b7f930-9307-4af8-97a6-726e605732e0{fill:#9def48;}.bbeff2d9-ee2b-433c-b549-1ecc180cd908{fill:#fff;}</style><linearGradient id="ab964d13-185d-4b92-92cc-150325d28a31" x1="0.5" y1="33.83" x2="470.08" y2="33.83" gradientUnits="userSpaceOnUse"><stop offset="0" stop-color="#032c02"/><stop offset="1" stop-color="#207a09"/></linearGradient></defs><g id="fc65fbfd-5911-4ff2-9835-fd91a9b2f7c4" data-name="calque3"><polygon class="e1e49ba0-a25a-4277-a34c-68ed34c8b92f" points="0.5 6.04 102.57 6.04 108.7 0.5 150.44 0.5 158.35 6.04 461.77 6.24 470.08 16.13 470.08 59.84 50.94 59.84 42.83 67.16 8.02 67.16 0.5 59.84 0.5 6.04"/><path class="b6b7f930-9307-4af8-97a6-726e605732e0" d="M61.16,37.45l-4.29,6.81H51.79l15.57-24.5h4.69L87.5,44.26h-5l-4.24-6.81ZM75.72,33.4l-6-9.59-6,9.59Z"/><path class="b6b7f930-9307-4af8-97a6-726e605732e0" d="M99.73,40.79l-4.07,4.07v-21H82.37V19.76H113v4.06H99.73Z"/><path class="b6b7f930-9307-4af8-97a6-726e605732e0" d="M121.37,40.2h18.42l2.34,4.06H117.3v-21l4.07-4.07Z"/><path class="b6b7f930-9307-4af8-97a6-726e605732e0" d="M150.25,40.2H170A16.43,16.43,0,0,0,172.36,32,16.51,16.51,0,0,0,170,23.82h-2.72V19.76h4.89A18.2,18.2,0,0,1,176.43,32a18.17,18.17,0,0,1-4.22,12.25H148.06A18.17,18.17,0,0,1,143.84,32a18.2,18.2,0,0,1,4.22-12.25H153v4.06h-2.7A16.44,16.44,0,0,0,147.91,32,16.35,16.35,0,0,0,150.25,40.2Z"/><path class="b6b7f930-9307-4af8-97a6-726e605732e0" d="M210.59,30l1.85,2a18.17,18.17,0,0,1-4.22,12.25H184.07A17.08,17.08,0,0,1,180.4,37h4.37a19,19,0,0,0,1.49,3.23h19.79A17.3,17.3,0,0,0,208.24,34H181.69l-1.84-2a18.2,18.2,0,0,1,4.22-12.25h24.15a17.13,17.13,0,0,1,3.67,7.29h-4.37a19.25,19.25,0,0,0-1.47-3.23H186.26A17.44,17.44,0,0,0,184.05,30Z"/></g><g id="f992e9cc-cf68-4153-81df-1247f64c513b" data-name="svg1"><g id="b4c90de4-3692-4840-a158-3338d4a4ac6e" data-name="g1"><path id="a33454b8-2f79-475b-982c-66f72226ceaa" data-name="path1" class="bbeff2d9-ee2b-433c-b549-1ecc180cd908" d="M32.43,65.11c-.11-.06-1.73-1.12-3.6-2.35l-7-4.57c-2-1.29-3.63-2.4-3.71-2.48a25.86,25.86,0,0,1,4.23-.14h4.38v2.48L29.7,60l2.93,1.91v1.68C32.63,64.86,32.58,65.21,32.43,65.11ZM25.27,54.93H17.92V52.24H32.63v2.69Zm1.78-8.06H21.48L19.7,45.1l-1.78-1.76V39.91h2.83l.05,1.94,0,1.93,5.89,0,5.9,0v3ZM25.27,39H17.92V36H29.46V31.84h3.17V39ZM32.49,27a5.7,5.7,0,0,1-3,3.51l-.9.44L23.25,31l-5.33,0V28.2h5c4.88,0,5,0,5.48-.35a2.2,2.2,0,0,0,1.17-2.11,2,2,0,0,0-.36-1.33l-.35-.48h1.73c1.7,0,1.73,0,1.82.4A8.35,8.35,0,0,1,32.49,27ZM25.27,23.3H17.92V20.38l7.35,0,7.36,0V23.3Zm5.79-3.79h-1.6V16c0-3.54-.06-3.95-.62-4.38a1.71,1.71,0,0,0-1.69.08c-.56.45-.69.9-.69,2.37a5,5,0,0,1-1.1,3.71,3.92,3.92,0,0,1-3.48,1.36,4,4,0,0,1-2.58-.9l-1.38-.84V15.69c0-1.6,0-1.72.27-1.58s1,.58,1.94,1.11c1.66,1,2.13,1.1,2.7.8s.74-1,.82-2.76.3-2.6,1.15-3.55a4,4,0,0,1,3.41-1.24,3.57,3.57,0,0,1,1.9.48,4.94,4.94,0,0,1,2.07,2.25c.34.74.36,1,.42,4.55l0,3.76ZM19.34,51.3H17.92v-7l1.42,1.42,1.42,1.42v4.2Zm1.33-36.54a13.64,13.64,0,0,1-1.43-.8l-1.32-.8V10.8c0-1.3,0-2.37.06-2.37s.68.37,1.43.81l1.35.82v2.35A15.46,15.46,0,0,1,20.67,14.76Z"/></g></g></svg>