<svg id="f526d763-8f4e-40c4-9060-bcd993568fe3" data-name="texte" xmlns="http://www.w3.org/2000/svg" xmlns:xlink="http://www.w3.org/1999/xlink" viewBox="0 0 470.33 67.41"><defs><style>.ee228ae5-8270-4952-924b-1fa0b3836a9e{stroke:#9def48;stroke-miterlimit:10;stroke-width:0.75px;fill:url(#b169d15a-3c85-4623-9faf-7580bbfc736a);}.b4255807-0021-4f30-8a58-06748ff86572{fill:#9def48;}</style><linearGradient id="b169d15a-3c85-4623-9faf-7580bbfc736a" x1="0.38" y1="33.7" x2="469.96" y2="33.7" gradientUnits="userSpaceOnUse"><stop offset="0" stop-color="#032c02"/><stop offset="1" stop-color="#207a09"/></linearGradient></defs><polygon class="ee228ae5-8270-4952-924b-1fa0b3836a9e" points="0.38 5.91 102.44 5.91 108.57 0.38 150.31 0.38 158.22 5.91 461.65 6.11 469.96 16 469.96 59.72 50.81 59.72 42.7 67.03 7.89 67.03 0.38 59.72 0.38 5.91"/><path class="b4255807-0021-4f30-8a58-06748ff86572" d="M79.26,37.24h4.38A17.13,17.13,0,0,1,80,44.54H55.82a18.19,18.19,0,0,1-4.23-12.26A18.18,18.18,0,0,1,55.82,20H80a17.13,17.13,0,0,1,3.68,7.3H79.26a17.47,17.47,0,0,0-1.47-3.23H58a16.32,16.32,0,0,0-2.34,8.18A16.38,16.38,0,0,0,58,40.47H77.79A18.09,18.09,0,0,0,79.26,37.24Z" transform="translate(-0.13 -0.13)"/><path class="b4255807-0021-4f30-8a58-06748ff86572" d="M93.86,37.72l-4.29,6.82H84.49L100.06,20h4.68l15.45,24.51h-5L111,37.72Zm14.56-4-6-9.59-6,9.59Z" transform="translate(-0.13 -0.13)"/><path class="b4255807-0021-4f30-8a58-06748ff86572" d="M152.13,34.3H125.59a17.49,17.49,0,0,0,2.21,6.17h2.7v4.07h-4.89a17.68,17.68,0,0,1-4.14-10.24h-3.84v-4h3.84A17.6,17.6,0,0,1,125.61,20h24.15A18.18,18.18,0,0,1,154,32.28Zm-26.54-4h24.19a17.67,17.67,0,0,0-2.19-6.15H127.8A17.33,17.33,0,0,0,125.59,30.25Z" transform="translate(-0.13 -0.13)"/><path class="b4255807-0021-4f30-8a58-06748ff86572" d="M173.82,41.07l-4.07,4.07v-21H156.46V20h30.66V24.1h-13.3Z" transform="translate(-0.13 -0.13)"/><path class="b4255807-0021-4f30-8a58-06748ff86572" d="M196.09,40.47h19.79a16.4,16.4,0,0,0,2.32-8.19,16.45,16.45,0,0,0-2.32-8.18h-2.72V20h4.89a18.22,18.22,0,0,1,4.22,12.25,18.19,18.19,0,0,1-4.22,12.26H193.9a18.19,18.19,0,0,1-4.22-12.26A18.22,18.22,0,0,1,193.9,20h4.89V24.1h-2.7a16.37,16.37,0,0,0-2.34,8.18A16.33,16.33,0,0,0,196.09,40.47Z" transform="translate(-0.13 -0.13)"/><path class="b4255807-0021-4f30-8a58-06748ff86572" d="M252.93,40.47h2.72a17.6,17.6,0,0,0,2.18-6.17H233.65a17.49,17.49,0,0,0,2.21,6.17h2.7v4.07h-4.89a17.68,17.68,0,0,1-4.14-10.24h-3.84v-4h3.84A17.6,17.6,0,0,1,233.67,20h24.15A17.62,17.62,0,0,1,262,30.27l-1.76,1v2.05l1.76,1a17.67,17.67,0,0,1-4.13,10.24h-4.89ZM233.65,30.25h24.18a17.44,17.44,0,0,0-2.18-6.15H235.86A17.33,17.33,0,0,0,233.65,30.25Z" transform="translate(-0.13 -0.13)"/><path class="b4255807-0021-4f30-8a58-06748ff86572" d="M290.25,34.3H273.33a17.69,17.69,0,0,0,2.21,6.17h20.13L298,44.54H273.35a17.67,17.67,0,0,1-4.13-10.24h-3.85v-4h3.85A17.59,17.59,0,0,1,273.35,20H298l-2.34,4.07H275.54a17.52,17.52,0,0,0-2.21,6.15h16.92Z" transform="translate(-0.13 -0.13)"/><path class="b4255807-0021-4f30-8a58-06748ff86572" d="M330.47,30.25l1.84,2a18.19,18.19,0,0,1-4.22,12.26H303.94a17.11,17.11,0,0,1-3.67-7.3h4.37a19,19,0,0,0,1.49,3.23h19.79a17.3,17.3,0,0,0,2.19-6.17H301.57l-1.85-2A18.22,18.22,0,0,1,303.94,20h24.15a17,17,0,0,1,3.67,7.3h-4.37a17.47,17.47,0,0,0-1.47-3.23H306.13a17.3,17.3,0,0,0-2.2,6.15Z" transform="translate(-0.13 -0.13)"/></svg>