<svg xmlns="http://www.w3.org/2000/svg" xmlns:xlink="http://www.w3.org/1999/xlink" viewBox="0 0 746.51 822.18"><defs><radialGradient id="a49405b6-0346-418e-ae7c-b9ae281341b3" cx="121.61" cy="382.1" r="5.66" gradientTransform="matrix(1 0 0 .6 0 152.84)" xlink:href="#aab09d8f-bfe1-4247-a724-4ee9b6c3e1e9"/><radialGradient id="be0a9787-0c66-45d9-a49d-c4b99bc84f98" cx="217.55" cy="416.02" r="5.66" xlink:href="#af6da3b5-1af4-421f-86a1-f4021053bff1"/><radialGradient id="bba403a3-3bd6-46e0-aad7-836ea1b81916" cx="195.83" cy="370.99" r="11.47" xlink:href="#af6da3b5-1af4-421f-86a1-f4021053bff1"/><radialGradient id="aab09d8f-bfe1-4247-a724-4ee9b6c3e1e9" cx="92.36" cy="393.88" r="5.66" gradientTransform="matrix(1 0 0 .6 0 157.55)" gradientUnits="userSpaceOnUse"><stop offset="0" stop-color="#0000ef"/><stop offset=".15" stop-color="#0000e9"/><stop offset=".34" stop-color="#0101d9"/><stop offset=".56" stop-color="#0101be"/><stop offset=".79" stop-color="#02029a"/><stop offset="1" stop-color="#020282"/></radialGradient><radialGradient id="f0301d1a-7549-40db-81dd-8a6012b5049f" cx="114.61" cy="393.88" r="5.66" xlink:href="#aab09d8f-bfe1-4247-a724-4ee9b6c3e1e9"/><radialGradient id="e0d2da42-b41a-498b-a72e-d9a891be2a0c" cx="133.17" cy="400.04" r="5.66" gradientTransform="matrix(1 0 0 .6 0 160.02)" xlink:href="#aab09d8f-bfe1-4247-a724-4ee9b6c3e1e9"/><radialGradient id="f998864f-57ca-4ecd-b741-32206c92b430" cx="139.21" cy="387.78" r="5.66" gradientTransform="matrix(1 0 0 .6 0 155.11)" xlink:href="#aab09d8f-bfe1-4247-a724-4ee9b6c3e1e9"/><radialGradient id="af6da3b5-1af4-421f-86a1-f4021053bff1" cx="65.88" cy="348.77" r="11.47" gradientUnits="userSpaceOnUse"><stop offset="0" stop-color="#fd6d66"/><stop offset=".78" stop-color="#b50a03"/></radialGradient><radialGradient id="a1248cb8-39c6-4386-b766-fcf8ec1c6371" cx="100.32" cy="382.53" r="5.66" gradientTransform="matrix(1 0 0 .6 0 153.01)" xlink:href="#aab09d8f-bfe1-4247-a724-4ee9b6c3e1e9"/><radialGradient id="abce8378-87f6-48d5-adf4-59b73bb87d4f" cx="225.51" cy="404.67" r="5.66" xlink:href="#af6da3b5-1af4-421f-86a1-f4021053bff1"/><radialGradient id="a5bb3131-0ccd-4bd1-8e02-67c4d59329b9" cx="246.79" cy="404.24" r="5.66" xlink:href="#af6da3b5-1af4-421f-86a1-f4021053bff1"/><radialGradient id="e438d859-8f6b-47d0-9d75-5fb928b00158" cx="264.4" cy="409.93" r="5.66" xlink:href="#af6da3b5-1af4-421f-86a1-f4021053bff1"/><radialGradient id="bd1866f7-9ef7-46c7-9c0f-9cf6c6de1d74" cx="258.36" cy="422.19" r="5.66" xlink:href="#af6da3b5-1af4-421f-86a1-f4021053bff1"/><radialGradient id="a43df6d0-ac72-4de0-bfec-3333980fb3b7" cx="239.79" cy="416.02" r="5.66" xlink:href="#af6da3b5-1af4-421f-86a1-f4021053bff1"/><style>.af73e0ef-617c-4276-ae69-328d349166d5{fill:#373735}.fc2fb782-f4a1-4f83-85c2-88583a53598b{fill:#121211}.a8d14194-46f0-4740-9d60-d203dd117eec,.e1e82bf8-4f93-4e19-b7da-1bf84935b314,.e56da70c-cb43-4cc9-bc7a-20f482809e42,.fc2fb782-f4a1-4f83-85c2-88583a53598b,.fd4fd232-398d-4452-b18e-50dc0f159d82{stroke:#b5b5b5}.a8d14194-46f0-4740-9d60-d203dd117eec,.af65eab1-8788-469e-8d44-aad6773d75e5,.b520a47f-25bd-479e-b465-a37ca41ac9ef,.bb9effb5-3c2a-4b47-a546-5a729d682565,.e1e82bf8-4f93-4e19-b7da-1bf84935b314,.e56da70c-cb43-4cc9-bc7a-20f482809e42,.fc2fb782-f4a1-4f83-85c2-88583a53598b,.fd4fd232-398d-4452-b18e-50dc0f159d82{stroke-miterlimit:10}.a8d14194-46f0-4740-9d60-d203dd117eec,.af65eab1-8788-469e-8d44-aad6773d75e5,.e1e82bf8-4f93-4e19-b7da-1bf84935b314,.e56da70c-cb43-4cc9-bc7a-20f482809e42,.fc2fb782-f4a1-4f83-85c2-88583a53598b,.fd4fd232-398d-4452-b18e-50dc0f159d82{stroke-width:.5px}.bb9effb5-3c2a-4b47-a546-5a729d682565{fill:#443840}.af65eab1-8788-469e-8d44-aad6773d75e5,.bb9effb5-3c2a-4b47-a546-5a729d682565{stroke:#090000}.bb9effb5-3c2a-4b47-a546-5a729d682565{stroke-width:.75px}.af65eab1-8788-469e-8d44-aad6773d75e5{fill:#6b0c05}.ab90c126-e2e3-49ad-9cfa-b36bef8cfcda{fill:#86382f}.b520a47f-25bd-479e-b465-a37ca41ac9ef{stroke:#373737}.be3e3c3a-bdd0-49a5-a2f8-0670c299c419{fill:#bb171e}.e1e82bf8-4f93-4e19-b7da-1bf84935b314{fill:#dc6e05}.a8d14194-46f0-4740-9d60-d203dd117eec{fill:#12e600}.e56da70c-cb43-4cc9-bc7a-20f482809e42{fill:#0b47ce}.aaa6b188-2f79-4885-bbd6-04ea614329a1,.fd4fd232-398d-4452-b18e-50dc0f159d82{fill:#282826}.a1ddb9c6-2c97-47d6-a3cc-c955ff564f85{fill:#ae7a82}.e3d1cf5b-e145-412a-962d-d0d5f6a96f28{fill:url(#af6da3b5-1af4-421f-86a1-f4021053bff1)}.ee353669-1206-42e9-acaf-6b9aef29d4fc{fill:url(#bba403a3-3bd6-46e0-aad7-836ea1b81916)}.ab52c8b4-744f-4ca6-b18b-f2b831708bcd{fill:#0000ef}.f6cb6490-4724-47d8-956b-d03bf15af5ab{fill:#930303}.b5a09103-7c67-4470-bd2e-a403a25c836b{fill:#e7e7e7}.aea7967b-484e-4009-b6fe-f2130d358877{fill:#2c2b29}.f26b5ff0-d3d0-4864-8e07-a15645fa4478{fill:#020202}</style></defs><g id="af14432a-a5e0-47b9-9e5e-a990bc738c3b" data-name="Calque 1"><path id="b1eebedd-fe02-42ae-aeb2-d6c66ef290f5" data-name="ombre" style="opacity:.5;fill:#373735" d="m452.03 588.79 21.51-5.91H485.41l1.58 2.96 237.36 43.3h11.08l11.07 31.39-46.41 37.71-46.42 13.19-8.18-1.32.27-1.85-13.98-2.63-83.6 27.95-73.32 51.57-22.83 6.82-7.77-1.16v-2.63l-16.08-3.03-129.99 34.37 153.84-230.73z"/><g id="ae528719-746f-45ed-8cf9-ed08f22eabc1" data-name="bottom"><path class="af73e0ef-617c-4276-ae69-328d349166d5" d="m36 454.56 224.9 39.62v4.35l25.72 6.13-.4 311.34-248.24-47.27L36 454.56z"/><path class="fc2fb782-f4a1-4f83-85c2-88583a53598b" d="m202 526.54-78.38-13.74c-3 .19-4.26 3.56-4.26 3.56l.2 85c.69 2.18 3.86 5 3.86 5l74.27 13.46c5.14.49 7.52-5.25 7.52-5.25v-82.69a7.12 7.12 0 0 0-3.21-5.34zm-49.9 22.55-18.69-3.46v-20l2.27-1.88 18.1 3.07-1.78 2.69zm31.45 6.13-18.69-3.46v-20l2.27-1.87 18.1 3.06-1.78 2.67z" transform="translate(-.98 -.52)"/><path class="bb9effb5-3c2a-4b47-a546-5a729d682565" d="m134.7 523.25-2.27 1.88v19.98l18.69 3.46-.1-19.58 1.78-2.67-18.1-3.07zM166.15 529.38l-2.27 1.88v19.98l18.69 3.46-.1-19.58 1.78-2.67-18.1-3.07z"/><path class="af65eab1-8788-469e-8d44-aad6773d75e5" d="M140.14 543.03v-12.85l8.01 1.78v12.56l-8.01-1.49zM171.2 548.87v-12.86l8.01 1.78v12.56l-8.01-1.48z"/><path d="M135.23 543.16v-15.23l2.05.4v15.16l-2.05-.33zM166.68 548.7v-15.23l2.04.4v15.16l-2.04-.33z"/><path class="ab90c126-e2e3-49ad-9cfa-b36bef8cfcda" d="M140.4 530.69v-.35l7.47 1.8.01.43-7.48-1.88zM171.46 536.62v-.29l7.47 1.64.01.35-7.48-1.7z"/><circle cx="192.4" cy="574.85" r="4.25" style="fill:#8b8b8b;stroke-width:.75px;stroke:#090000;stroke-miterlimit:10"/><path class="b520a47f-25bd-479e-b465-a37ca41ac9ef" d="M136.29 598.71v-11.27l11.96 2.18v11.3l-11.96-2.21zM167.54 604.25v-11.27l11.96 2.17v10.88l-11.96-1.78z"/></g><g id="b3583dd2-2564-40fa-9f3f-8d3caa5a5148" data-name="t molding"><path class="be3e3c3a-bdd0-49a5-a2f8-0670c299c419" d="m11.46 450.59-.79-39.76L1 407.66v45.1l27.89 5.54c.59 103.55 1 207.6 1.58 311.15a6.18 6.18 0 0 0 3.53 2.19 12.58 12.58 0 0 0 5 0l-2-316.56zM272.36 497v-41.27l-10.28-1.19-.2 44.51 25.71 6.13s-1.51 313.85 0 315.69 8.77 1.32 8.77 1.32l.93-319.91z" transform="translate(-.98 -.52)"/><path class="be3e3c3a-bdd0-49a5-a2f8-0670c299c419" d="m78.72 346.42-8.15-1.3 16.26-218.56 9.04 1.5-17.15 218.36zM329.24 388.85l9.1 1.28 18.49-224.31h-26.37l-.26-90.92-10.06-1.84v94.84l6.04 1.09h20.27l-17.21 219.86z"/><path class="be3e3c3a-bdd0-49a5-a2f8-0670c299c419" d="M88.49 127.19s-28.17-.35-29.11-.85c0-31.21.06-62.83 0-94l9.36 2.64.48 89.02z" transform="translate(-.98 -.52)"/><g id="e388281f-5877-4fe6-82ef-5bbdb69d413b" data-name="clair"><path class="be3e3c3a-bdd0-49a5-a2f8-0670c299c419" d="m0 407.14 9.69 3.17L78 346.25l-8.11-1.94L0 407.14zM261.1 454.02l10.28 1.19 66.96-65.87-8.62-1.6-68.62 66.28zM111.56 0 58.42 31.78l9.36 2.64L120.36 3.3l2.74-1.62-2.57-.36L111.56 0zM383.74 40.62l-11.21-.8-52.39 33.24 10.06 1.84 53.54-34.28z"/></g></g><g id="ff4b7981-39ba-4aa3-b02a-e415d187159e" data-name="side"><path class="fc2fb782-f4a1-4f83-85c2-88583a53598b" d="m453.13 308.64.63-159.63-70.02-108.39L330.2 74.9l.26 90.92h26.37l-18.49 224.31-66.96 65.08v41.27l24.93 5.28-.93 319.91 8.25-6.32 149.65-543.7-.21 21.51-142.1 516.55-1.61 1.24 6.94-5.32 136.83-496.99zM324.06 799.15l-7.76 6.48 11.99-9.2 124.7-453.24.05-12.13-128.98 468.09zM335.43 790.95l-1.32 1.02 6.87-5.27 111.79-407.64v21.25l.22-57.12-.22 24-117.34 423.76zM343 785.15l108.58-83.28 1.18-299.85L347.4 781.78l-4.4 3.37z"/><path style="fill:#bf0000;stroke-width:.5px;stroke-miterlimit:10;stroke:#b5b5b5" d="m303.63 815.35 5.73-4.4-5.73 4.4z"/><path class="be3e3c3a-bdd0-49a5-a2f8-0670c299c419" d="m453.07 293.16.21-21.51-149.65 543.7 5.73-4.4 1.61-1.24 142.1-516.55z"/><path class="e1e82bf8-4f93-4e19-b7da-1bf84935b314" d="M453.13 330.74v-22.1l-.09 22.42.09-.32zM316.3 805.63z"/><path style="fill:#e3232e" d="m453.04 331.06.09-22.42L316.3 805.63l7.76-6.48 128.98-468.09z"/><path class="a8d14194-46f0-4740-9d60-d203dd117eec" d="M452.99 343.19zM328.29 796.43l5.82-4.46-5.82 4.46z"/><path d="m334.11 791.97 1.32-1.02 117.34-423.76.22-24-124.7 453.24 5.82-4.46z"/><path class="e56da70c-cb43-4cc9-bc7a-20f482809e42" d="m340.98 786.7 2.02-1.55-2.02 1.55zM452.77 402v-1.69l-.01 1.71.01-.02z"/><path style="fill:#fff" d="m340.98 786.7 2.02-1.55 4.4-3.37 105.36-379.76.01-1.71v-21.25L340.98 786.7z"/></g><g id="fff3b097-6eb8-407f-9d0b-929274c11a41" data-name="panel"><path class="fd4fd232-398d-4452-b18e-50dc0f159d82" d="m10.48 450.07 250.42 44.11.2-40.16L9.69 410.31l.79 39.76z"/><path class="af73e0ef-617c-4276-ae69-328d349166d5" d="m79.37 345.21-69.68 65.1 251.41 43.71 68.62-66.28-250.35-42.53z"/></g><g id="f45dd553-88c8-4a8e-99ae-4a4eaafd10f0" data-name="ecran"><path class="fd4fd232-398d-4452-b18e-50dc0f159d82" d="M96.84 129.36 79.7 347.72l250.52 42.43L347.82 168zm224.28 67.76c0 .2-.29.32-.48.49l-10.43 144.83a35.43 35.43 0 0 1-4.3 3.78l1.4.29v10.7s-1.4 4.75-11.08 2.64c-11.19-2.44-178.55-31.91-178.55-31.91l8.72-6.78v-1.39s-2.46.52-6-7l-12.48 2.77h-4l11.34-158.77s4-6.85 10.81-6.59 191.16 30.59 191.16 30.59 6.17 1.07 3.89 16.35z" transform="translate(-.98 -.52)"/><path d="M317.28 180S133 149.66 126.12 149.4s-10.81 6.6-10.81 6.6l-11.74 160.08h4.35l12.29-2.68c-.1-.23-.74-1.57-.85-1.8L131 166.54s2.11-5.54 7.12-7.38l177.49 27.16a20.77 20.77 0 0 1 5.11 9.76l-.05.75c.19-.17.62.66.66.47 3.23-14.06-4.05-17.3-4.05-17.3z" transform="translate(-.98 -.52)" style="fill:#151312"/><path d="m125.32 320-8.56 8s164.63 29.3 178.61 32.24c10.36 2.17 14.43-3.58 14.43-3.58l.61-7.37.39-7.71-4.89 3.84a20.85 20.85 0 0 1-7.73 3.87z" transform="translate(-.98 -.52)" style="fill:#555353"/><path d="M319.5 197.81c.45-.36.83-.69 1.14-1l.66-.52a20.31 20.31 0 0 0-5.72-10l-177.49-27.13c-5 1.84-7.12 7.38-7.12 7.38L119.36 311.6l.32.66c3.54 7.52 6.28 8 6.28 8l.44.08 171.78 28.93a20.85 20.85 0 0 0 7.73-3.87c2.57-1.91 4.89-3.84 4.89-3.84l10.5-145.29c-.44.46-1.05.96-1.8 1.54zM143.83 302.35z" transform="translate(-.98 -.52)" style="fill:#008aa6"/></g><g id="f715d71e-cc3a-4140-ac38-6857e03f31e1" data-name="top"><path id="ad8dcdef-5ddd-4819-835f-3015d5b2fa41" data-name="marquee" class="fd4fd232-398d-4452-b18e-50dc0f159d82" d="m68.24 123.5 251.47 39.03.43-89.47L67.78 34.42l.46 89.08z"/><path style="stroke-miterlimit:10;stroke:#b5b5b5;fill:#373735" d="m128.84 2.64-5.74-.96-55.32 32.74 252.36 38.64 52.39-33.24L128.84 2.64z"/></g><g id="bfc82485-3b57-4923-90d6-aa9390dc4959" data-name="stickp1"><path class="aaa6b188-2f79-4885-bbd6-04ea614329a1" d="M68.92 377.27v5.16H62.4v-5.16c-5.06.64-8.77 2.7-8.77 5.16 0 3 5.38 5.35 12 5.35s12-2.39 12-5.35c.06-2.43-3.63-4.52-8.71-5.16z" transform="translate(-.98 -.52)"/><path class="a1ddb9c6-2c97-47d6-a3cc-c955ff564f85" d="M68.92 377.27v-17.78a12.18 12.18 0 0 1-3 .39 12.4 12.4 0 0 1-3.48-.49v17.88a26.67 26.67 0 0 1 6.52 0z" transform="translate(-.98 -.52)"/><path class="a1ddb9c6-2c97-47d6-a3cc-c955ff564f85" d="M68.92 382.43v-5.16a26.67 26.67 0 0 0-6.52 0v5.16z" transform="translate(-.98 -.52)"/><path class="e3d1cf5b-e145-412a-962d-d0d5f6a96f28" d="M68.92 358.89v.6a11.24 11.24 0 0 0 8.77-10.72c0-6.14-5.29-11.11-11.81-11.11s-11.82 5-11.82 11.11a11.22 11.22 0 0 0 8.34 10.62v-.5z" transform="translate(-.98 -.52)"/><path class="a1ddb9c6-2c97-47d6-a3cc-c955ff564f85" d="M68.92 359.49v-.6H62.4v.5a12.4 12.4 0 0 0 3.48.49 12.18 12.18 0 0 0 3.04-.39z" transform="translate(-.98 -.52)"/><path class="e3d1cf5b-e145-412a-962d-d0d5f6a96f28" d="M68.92 359.49v-.6H62.4v.5a12.4 12.4 0 0 0 3.48.49 12.18 12.18 0 0 0 3.04-.39z" transform="translate(-.98 -.52)"/></g><g id="b3f9181c-f54c-4557-8546-69a6bd01aeda" data-name="stickp2"><path class="aaa6b188-2f79-4885-bbd6-04ea614329a1" d="M198.88 399.49v5.16h-6.53v-5.16c-5 .64-8.77 2.7-8.77 5.16 0 3 5.39 5.35 12 5.35s12-2.39 12-5.35c.07-2.46-3.64-4.52-8.7-5.16z" transform="translate(-.98 -.52)"/><path class="a1ddb9c6-2c97-47d6-a3cc-c955ff564f85" d="M198.88 399.49v-17.78a12.2 12.2 0 0 1-3 .39 12.83 12.83 0 0 1-3.48-.49v17.88a26.75 26.75 0 0 1 6.53 0z" transform="translate(-.98 -.52)"/><path class="a1ddb9c6-2c97-47d6-a3cc-c955ff564f85" d="M198.88 404.65v-5.16a26.75 26.75 0 0 0-6.53 0v5.16z" transform="translate(-.98 -.52)"/><path class="ee353669-1206-42e9-acaf-6b9aef29d4fc" d="M198.88 381.11v.6a11.24 11.24 0 0 0 8.77-10.71c0-6.14-5.29-11.11-11.82-11.11S184 364.85 184 371a11.22 11.22 0 0 0 8.34 10.62v-.5z" transform="translate(-.98 -.52)"/><path class="a1ddb9c6-2c97-47d6-a3cc-c955ff564f85" d="M198.88 381.71v-.6h-6.53v.5a12.83 12.83 0 0 0 3.48.49 12.2 12.2 0 0 0 3.05-.39z" transform="translate(-.98 -.52)"/><path class="ee353669-1206-42e9-acaf-6b9aef29d4fc" d="M198.88 381.71v-.6h-6.53v.5a12.83 12.83 0 0 0 3.48.49 12.2 12.2 0 0 0 3.05-.39z" transform="translate(-.98 -.52)"/></g><g id="a7f9793b-f827-4afd-80e0-15a04cc4601c" data-name="boutons P1"><g id="b3442da6-fce1-4568-9086-8ee2a6d5ae6a" data-name="4"><path class="ab52c8b4-744f-4ca6-b18b-f2b831708bcd" d="M92.54 389.14c-3.86 0-8.12 1.53-8.12 4.87 0 2.95 4.1 4.62 7.94 4.62 4.11 0 8-1.73 8-4.88-.04-2.35-3.88-4.61-7.82-4.61zm-.18 8.63c-3.86 0-7-1.74-7-3.89s3.13-3.89 7-3.89 7 1.74 7 3.89-3.14 3.89-7 3.89z" transform="translate(-.98 -.52)"/><path d="M92.36 390c-3.86 0-7 1.74-7 3.89s3.13 3.89 7 3.89 7-1.74 7-3.89-3.14-3.89-7-3.89z" transform="translate(-.98 -.52)" style="fill:url(#aab09d8f-bfe1-4247-a724-4ee9b6c3e1e9)"/></g><g id="b5bcc4be-8e7e-4c24-b902-2243a5ac3843" data-name="5"><path class="ab52c8b4-744f-4ca6-b18b-f2b831708bcd" d="M114.79 389.14c-3.86 0-8.12 1.53-8.12 4.87 0 2.95 4.1 4.62 7.94 4.62 4.11 0 8-1.73 8-4.88-.04-2.35-3.88-4.61-7.82-4.61zm-.18 8.63c-3.86 0-7-1.74-7-3.89s3.13-3.89 7-3.89 7 1.74 7 3.89-3.14 3.89-7 3.89z" transform="translate(-.98 -.52)"/><path d="M114.61 390c-3.86 0-7 1.74-7 3.89s3.13 3.89 7 3.89 7-1.74 7-3.89-3.14-3.89-7-3.89z" transform="translate(-.98 -.52)" style="fill:url(#f0301d1a-7549-40db-81dd-8a6012b5049f)"/></g><g id="eea6000b-5f14-45e8-9b0f-33f65d87b092" data-name="6"><path class="ab52c8b4-744f-4ca6-b18b-f2b831708bcd" d="M133.35 395.3c-3.86 0-8.13 1.53-8.13 4.87 0 3 4.11 4.62 7.95 4.62 4.1 0 8-1.73 8-4.88-.04-2.35-3.88-4.61-7.82-4.61zm-.18 8.63c-3.86 0-7-1.74-7-3.89s3.13-3.89 7-3.89 7 1.74 7 3.89-3.17 3.89-7 3.89z" transform="translate(-.98 -.52)"/><path d="M133.17 396.15c-3.86 0-7 1.74-7 3.89s3.13 3.89 7 3.89 7-1.74 7-3.89-3.17-3.89-7-3.89z" transform="translate(-.98 -.52)" style="fill:url(#e0d2da42-b41a-498b-a72e-d9a891be2a0c)"/></g><g id="ed32b8f5-8f73-4feb-903d-e4f232a67f4b" data-name="3"><path class="ab52c8b4-744f-4ca6-b18b-f2b831708bcd" d="M139.39 383c-3.86 0-8.13 1.53-8.13 4.88 0 2.95 4.11 4.61 8 4.61 4.1 0 8-1.73 8-4.88-.09-2.31-3.93-4.61-7.87-4.61zm-.18 8.63c-3.86 0-7-1.74-7-3.89s3.13-3.89 7-3.89 7 1.75 7 3.89-3.14 3.93-7 3.93z" transform="translate(-.98 -.52)"/><path d="M139.21 383.89c-3.86 0-7 1.75-7 3.89s3.13 3.89 7 3.89 7-1.74 7-3.89-3.14-3.89-7-3.89z" transform="translate(-.98 -.52)" style="fill:url(#f998864f-57ca-4ecd-b741-32206c92b430)"/></g><g id="b9ad6730-9e28-40d5-a0f1-ef70506d5d14" data-name="2"><path class="ab52c8b4-744f-4ca6-b18b-f2b831708bcd" d="M121.79 377.35c-3.86 0-8.12 1.53-8.12 4.88 0 2.95 4.1 4.61 7.94 4.61 4.11 0 8-1.73 8-4.88-.04-2.34-3.88-4.61-7.82-4.61zm-.18 8.64c-3.86 0-7-1.74-7-3.89s3.13-3.89 7-3.89 7 1.74 7 3.89-3.14 3.9-7 3.9z" transform="translate(-.98 -.52)"/><path d="M121.61 378.21c-3.86 0-7 1.74-7 3.89s3.13 3.89 7 3.89 7-1.74 7-3.89-3.14-3.89-7-3.89z" transform="translate(-.98 -.52)" style="fill:url(#a49405b6-0346-418e-ae7c-b9ae281341b3)"/></g><g id="a5c6c094-74cf-401c-91a8-2e1feb23ad47" data-name="1"><path class="ab52c8b4-744f-4ca6-b18b-f2b831708bcd" d="M100.5 377.78c-3.86 0-8.13 1.53-8.13 4.88 0 2.95 4.11 4.62 7.95 4.62 4.1 0 8-1.73 8-4.88-.04-2.35-3.88-4.62-7.82-4.62zm-.18 8.64c-3.86 0-7-1.74-7-3.89s3.13-3.89 7-3.89 7 1.74 7 3.89-3.14 3.89-7 3.89z" transform="translate(-.98 -.52)"/><path d="M100.32 378.64c-3.86 0-7 1.74-7 3.89s3.13 3.89 7 3.89 7-1.74 7-3.89-3.14-3.89-7-3.89z" transform="translate(-.98 -.52)" style="fill:url(#a1248cb8-39c6-4386-b766-fcf8ec1c6371)"/></g></g><g id="f44126a9-e12f-431e-9c76-8f959184dbcc" data-name="boutons P2"><g id="fc54191c-978c-4b1d-b2e0-e856b5851289" data-name="1"><path class="f6cb6490-4724-47d8-956b-d03bf15af5ab" d="M225.69 399.93c-3.86 0-8.13 1.53-8.13 4.87 0 2.95 4.11 4.62 7.95 4.62 4.1 0 8-1.73 8-4.88-.04-2.35-3.88-4.61-7.82-4.61zm-.18 8.63c-3.86 0-7-1.74-7-3.89s3.13-3.89 7-3.89 7 1.74 7 3.89-3.14 3.89-7 3.89z" transform="translate(-.98 -.52)"/><path d="M225.51 400.78c-3.86 0-7 1.74-7 3.89s3.13 3.89 7 3.89 7-1.74 7-3.89-3.14-3.89-7-3.89z" transform="translate(-.98 -.52)" style="fill:url(#abce8378-87f6-48d5-adf4-59b73bb87d4f)"/></g><g id="e50a8ac7-77ad-404b-8b38-721e960e1533" data-name="2"><path class="f6cb6490-4724-47d8-956b-d03bf15af5ab" d="M247 399.49c-3.86 0-8.13 1.54-8.13 4.88 0 2.95 4.11 4.62 7.95 4.62 4.1 0 8-1.73 8-4.88-.07-2.35-3.91-4.62-7.82-4.62zm-.18 8.64c-3.86 0-7-1.74-7-3.89s3.13-3.89 7-3.89 7 1.74 7 3.89-3.17 3.89-7.03 3.89z" transform="translate(-.98 -.52)"/><path d="M246.79 400.35c-3.86 0-7 1.74-7 3.89s3.13 3.89 7 3.89 7-1.74 7-3.89-3.14-3.89-7-3.89z" transform="translate(-.98 -.52)" style="fill:url(#a5bb3131-0ccd-4bd1-8e02-67c4d59329b9)"/></g><g id="bfa0da51-a1aa-4aed-825b-817da3452efe" data-name="3"><path class="f6cb6490-4724-47d8-956b-d03bf15af5ab" d="M264.58 405.18c-3.86 0-8.12 1.53-8.12 4.88 0 2.95 4.1 4.61 7.94 4.61 4.1 0 8-1.73 8-4.88-.04-2.35-3.88-4.61-7.82-4.61zm-.18 8.64c-3.86 0-7-1.75-7-3.89s3.13-3.89 7-3.89 7 1.74 7 3.89-3.14 3.89-7 3.89z" transform="translate(-.98 -.52)"/><path d="M264.4 406c-3.86 0-7 1.74-7 3.89s3.13 3.89 7 3.89 7-1.75 7-3.89-3.14-3.89-7-3.89z" transform="translate(-.98 -.52)" style="fill:url(#e438d859-8f6b-47d0-9d75-5fb928b00158)"/></g><g id="bff1ffe9-022f-4159-8ea0-886a04ac4797" data-name="4"><path class="f6cb6490-4724-47d8-956b-d03bf15af5ab" d="M258.54 417.44c-3.86 0-8.13 1.53-8.13 4.88 0 2.95 4.11 4.61 8 4.61 4.1 0 8-1.73 8-4.88-.09-2.35-3.93-4.61-7.87-4.61zm-.18 8.64c-3.86 0-7-1.75-7-3.89s3.13-3.89 7-3.89 7 1.74 7 3.89-3.14 3.89-7 3.89z" transform="translate(-.98 -.52)"/><path d="M258.36 418.3c-3.86 0-7 1.74-7 3.89s3.13 3.89 7 3.89 7-1.75 7-3.89-3.14-3.89-7-3.89z" transform="translate(-.98 -.52)" style="fill:url(#bd1866f7-9ef7-46c7-9c0f-9cf6c6de1d74)"/></g><g id="f0b5933f-0a1a-49e3-aee9-f4fbd0e65886" data-name="5"><path class="f6cb6490-4724-47d8-956b-d03bf15af5ab" d="M240 411.28c-3.86 0-8.13 1.53-8.13 4.88 0 2.95 4.11 4.61 7.95 4.61 4.1 0 8-1.73 8-4.88-.07-2.35-3.91-4.61-7.82-4.61zm-.18 8.63c-3.86 0-7-1.74-7-3.89s3.13-3.89 7-3.89 7 1.75 7 3.89-3.17 3.89-7.03 3.89z" transform="translate(-.98 -.52)"/><path d="M239.79 412.13c-3.86 0-7 1.75-7 3.89s3.13 3.89 7 3.89 7-1.74 7-3.89-3.14-3.89-7-3.89z" transform="translate(-.98 -.52)" style="fill:url(#a43df6d0-ac72-4de0-bfec-3333980fb3b7)"/></g><g id="a1dd2de7-c21e-4ae9-9615-7c3461948acc" data-name="6"><path class="f6cb6490-4724-47d8-956b-d03bf15af5ab" d="M217.73 411.28c-3.86 0-8.13 1.53-8.13 4.88 0 2.95 4.11 4.61 8 4.61 4.1 0 8-1.73 8-4.88-.09-2.35-3.93-4.61-7.87-4.61zm-.18 8.63c-3.86 0-7-1.74-7-3.89s3.13-3.89 7-3.89 7 1.75 7 3.89-3.14 3.89-7 3.89z" transform="translate(-.98 -.52)"/><path d="M217.55 412.13c-3.86 0-7 1.75-7 3.89s3.13 3.89 7 3.89 7-1.74 7-3.89-3.14-3.89-7-3.89z" transform="translate(-.98 -.52)" style="fill:url(#be0a9787-0c66-45d9-a49d-c4b99bc84f98)"/></g></g><path class="b5a09103-7c67-4470-bd2e-a403a25c836b" d="M228.57 237.19v.07l-5.92-1v-.08zM236.56 238.53a.13.13 0 0 0 0 .06l-5.72-1v-.06z" transform="translate(-.98 -.52)"/><path class="aea7967b-484e-4009-b6fe-f2130d358877" d="m210.17 273.38-65.56-11c-.87-.14-.87-.14-.74-.92.25-1.54.47-3.08.75-4.61.78-4.31 1.48-8.63 2.22-12.95.09-.48.22-1 .29-1.44 0-.18.12-.23.31-.19l.75.13 119.31 19.98a16.13 16.13 0 0 1 4.69 1.42 11.54 11.54 0 0 1 5.67 5.9 8.36 8.36 0 0 1 .63 3.88c0 .38-.08.76-.15 1.14l-1.56 9.36c-.07.39-.13.42-.54.36l-40.11-6.72zm14.68-7.7c-.4 2.35-.79 4.71-1.19 7.07 0 .23 0 .34.3.38 1 .15 1.95.32 2.93.49.51.09.51.09.59-.37q.69-4.22 1.4-8.43c0-.08 0-.21.12-.22s.13.1.17.17c1.69 3.14 3.43 6.26 5.06 9.42a2.38 2.38 0 0 0 3.55.6c.9-.94 1.91-1.79 2.87-2.68l4.89-4.53c.08-.07.15-.22.26-.17s0 .2 0 .31v.12c-.47 2.79-.93 5.58-1.4 8.37 0 .25 0 .35.31.4 1 .16 2 .32 3.06.51.34.07.45 0 .49-.32l2.32-13.83a1.32 1.32 0 0 0-.25-1 2.34 2.34 0 0 0-3.26-.37l-2.16 2-8.12 7.4c-.25.23-.28.22-.45-.08-2.2-4.06-4.42-8.11-6.61-12.17a2.14 2.14 0 0 0-1.43-1.06A1.74 1.74 0 0 0 226 259zm-4.51-.71c.38-2.31.76-4.61 1.16-6.92a1.32 1.32 0 0 0-.45-1.21 2.4 2.4 0 0 0-3.17 0c-2.39 2.24-4.82 4.43-7.24 6.63l-2.95 2.7c-.13.12-.23.25-.37 0l-3.44-6.31c-1.1-2-2.19-4-3.3-6a2.24 2.24 0 0 0-2.21-1 1.52 1.52 0 0 0-1.5 1.37q-1.16 6.86-2.3 13.71c0 .28.05.37.35.41 1 .15 2 .32 3 .5.44.07.45.08.51-.3.46-2.73.91-5.46 1.37-8.19 0-.13 0-.27.06-.4s0-.16.11-.17.1.08.13.14.18.34.28.51c1.63 3 3.29 6 4.88 9.07a2.34 2.34 0 0 0 3.35.6c.47-.47 1-.91 1.48-1.37l6.5-6c.06-.05.09-.14.19-.11s.07.14.06.22c-.14.81-.28 1.62-.41 2.44-.35 2.06-.69 4.13-1 6.2 0 .22 0 .32.29.36l3 .5c.44.07.45.07.52-.31q.51-3.6 1.1-7.04zm33.15 5.67c-.38 2.28-.76 4.57-1.15 6.85-.06.31.06.41.38.45 1 .16 2 .32 3 .5.33.07.45 0 .5-.31.16-1 .35-2.08.51-3.12 0-.23.12-.33.4-.28l12.77 2.14c.33.05.39.18.34.45-.18 1-.34 2.08-.53 3.12-.05.25 0 .35.32.4 1 .15 2 .32 3 .49.45.07.46.07.53-.34l1.22-7.32a6.88 6.88 0 0 0-2.51-6.52 12.61 12.61 0 0 0-6.36-3c-2.38-.41-4.76-.8-7.13-1.19-.72-.12-1.45-.26-2.17-.35a1.6 1.6 0 0 0-1.91 1.29c-.46 2.27-.83 4.5-1.21 6.74zm-62.24-10.42 1.14-6.79a1.24 1.24 0 0 0 0-.47 1.91 1.91 0 0 0-1.63-1.33c-1.55-.26-3.1-.53-4.65-.77-1.84-.3-3.66-.71-5.51-.87a11.55 11.55 0 0 0-7 1.39 6.55 6.55 0 0 0-3.37 4.67q-.63 3.74-1.25 7.47c-.07.4-.07.4.36.47 1 .17 2 .32 2.93.5.33.06.45 0 .5-.31.15-1 .34-2.06.5-3.09 0-.29.17-.35.48-.3l12.67 2.12c.34 0 .42.16.37.46-.19 1-.35 2.08-.54 3.11 0 .26 0 .36.32.4 1 .16 2 .32 3 .51.33.06.44 0 .49-.32.42-2.28.81-4.57 1.19-6.85zm-38.3 1 6.47 1.08a7.76 7.76 0 0 0 2.76 0 3.93 3.93 0 0 0 3.34-2.92c.64-3.78 1.26-7.55 1.9-11.33.05-.27 0-.37-.33-.42-1-.15-2-.32-3-.5-.36-.07-.46 0-.51.33q-.92 5.58-1.86 11.15a1.08 1.08 0 0 1-1.24.95 4.41 4.41 0 0 1-.73-.08c-1-.18-2-.37-3.06-.54l-7-1.15c-.28-.05-.35-.15-.31-.38.11-.59.19-1.18.31-1.76.06-.28 0-.4-.35-.45-.84-.13-1.68-.26-2.52-.42-.34-.07-.44 0-.49.32-.24 1.49-.49 3-.74 4.45-.07.42-.07.42.42.5zM230.83 237.63l5.72 1c.15.09.15.2.13.35-.37 2.17-.73 4.34-1.11 6.51 0 .29 0 .38.34.43 3.09.5 6.18 1 9.27 1.54.32.05.34.16.31.44-.06.67-.23 1.33-.32 2-.22 1.55-.54 3.09-.8 4.63-.1.59-.17 1.19-.26 1.78 0 .2-.12.31-.4.26L228.57 254c-.65-.11-.65-.11-.56-.68q1.29-7.69 2.57-15.38c.02-.15.02-.31.25-.31zm3.94 12.7c-.13.78-.25 1.56-.39 2.34-.05.27 0 .38.33.43 1.06.16 2.11.34 3.16.53.32.06.44 0 .49-.31.25-1.55.51-3.1.78-4.66 0-.24 0-.34-.31-.38q-1.62-.25-3.24-.54c-.28-.05-.39 0-.43.27-.16.78-.26 1.55-.39 2.32zM255.63 249.17c2.55.43 5.09.86 7.64 1.27.34.06.42.17.37.47q-.7 4.14-1.39 8.3c-.07.37-.1.4-.52.33L246.38 257c-.27-.05-.34-.16-.3-.39q.72-4.21 1.41-8.43c0-.28.18-.33.47-.28 2.55.44 5.11.86 7.67 1.29zm1.31 4.88c.14-.8.27-1.6.41-2.4 0-.23 0-.36-.3-.4l-3.44-.58c-.26 0-.38 0-.42.27l-.81 4.85c0 .25.05.36.33.41l3.37.56c.3.06.42 0 .46-.3.13-.8.27-1.6.4-2.41zM173.53 244.78l-7.64-1.27c-.31 0-.37-.15-.33-.42q.72-4.2 1.42-8.42c0-.25.13-.32.4-.27l15.36 2.6c.41.07.43.11.37.49-.26 1.55-.53 3.11-.78 4.66 0 .31-.17.37-.5.32-3.07-.53-6.15-1-9.22-1.55-.46-.08-.46-.08-.52.32s-.11.7-.19 1 0 .35.31.4c2.06.33 4.11.68 6.17 1l3.16.53c.32.05.42.17.37.44s-.14.74-.19 1.11-.18.38-.51.32zm.92-5.45c.56.1 1.13.18 1.69.29.25 0 .35 0 .38-.25 0-.39.12-.78.2-1.17 0-.21 0-.32-.26-.36l-3.41-.57c-.22 0-.33 0-.36.23q-.08.62-.18 1.23c0 .23.06.3.29.33.55.07 1.1.17 1.65.27zM211.28 241.75l7.64 1.28c.44.07.5.14.42.52-.43 2-.7 4-1.05 6-.14.74-.27 1.48-.37 2.23 0 .29-.15.37-.49.31-2.08-.36-4.17-.7-6.26-1l-9-1.51c-.42-.07-.43-.08-.37-.47.26-1.56.53-3.11.77-4.67 0-.32.18-.37.52-.31l9.16 1.54c.46.07.46.07.53-.33s.09-.67.17-1 0-.4-.36-.46c-2.34-.37-4.68-.77-7-1.16l-2.31-.38c-.24 0-.32-.12-.28-.34a10.85 10.85 0 0 0 .21-1.27c0-.27.16-.31.43-.26l5.37.9 2.27.38zm-1.15 7.25c.55.09 1.11.17 1.66.27.21 0 .33 0 .36-.21l.21-1.23c0-.19-.05-.29-.27-.33l-3.33-.56c-.24 0-.35 0-.38.24 0 .4-.11.79-.19 1.17-.05.23.05.33.29.37.52.07 1.1.17 1.65.28zM268.74 251.36c.87.15 1.74.31 2.62.44.31 0 .38.18.34.43-.08.4-.13.8-.21 1.2 0 .21 0 .3.27.34l3.36.56c.28 0 .38 0 .41-.27.06-.41.15-.82.2-1.23 0-.23.15-.27.37-.24l5.4.91c.21 0 .3.13.27.33-.08.43-.16.86-.22 1.29 0 .23-.16.29-.41.25-.44-.09-.89-.15-1.34-.24-.24 0-.33 0-.36.24-.05.4-.13.8-.19 1.2 0 .23-.15.3-.4.25-.47-.08-.94-.15-1.41-.24-.17 0-.24 0-.29.17-.13.44-.08.91-.25 1.34-.07.18.07.24.24.27l1.38.22c.28 0 .38.15.33.41s-.13.78-.21 1.17c0 .21.05.31.28.34l1.34.22c.25 0 .34.13.3.36-.09.42-.17.84-.22 1.27 0 .22-.15.27-.36.24l-.65-.11-4.62-.77c-.45-.08-.45-.08-.38-.49s.12-.76.19-1.14c.05-.21 0-.3-.27-.34l-3.44-.58c-.22 0-.29 0-.31.21-.06.4-.16.8-.19 1.21s-.19.37-.5.32l-4.72-.8c-1.16-.19-.93-.1-.8-1 0-.25.09-.49.12-.74s.16-.29.4-.25c.45.09.9.15 1.34.24.27.05.39 0 .42-.26s.14-.78.19-1.17.16-.31.41-.26c.46.09.92.15 1.37.24.21 0 .3 0 .32-.2.06-.43.13-.85.22-1.27 0-.21-.05-.28-.26-.31l-1.38-.23c-.24 0-.34-.12-.29-.36s.14-.78.21-1.17c0-.23 0-.35-.31-.38-.45-.06-.9-.15-1.35-.22-.25 0-.34-.14-.29-.37q.12-.63.21-1.26c0-.24.16-.29.4-.24zM222.64 236.28l5.92 1a.42.42 0 0 1 .05.36q-1.31 7.77-2.6 15.56c0 .28-.17.37-.48.31s-.88-.19-1.33-.26l-3.89-.62c-.46-.08-.45-.08-.39-.49q1.31-7.74 2.6-15.49c.02-.14 0-.28.12-.37zM191.71 247.82l-7.71-1.28c-.3 0-.4-.14-.35-.43q.72-4.2 1.41-8.4c0-.26.15-.32.42-.27l15.39 2.56c.31.05.42.18.36.45s-.11.72-.19 1.08-.13.41-.55.34l-4.16-.7-5.06-.85c-.28 0-.37 0-.41.25-.22 1.39-.46 2.78-.69 4.17a2.74 2.74 0 0 1 0 .28c-.11.6-.11.6.58.72l8.92 1.49c.42.07.45.11.39.5s-.15.72-.18 1.08-.19.35-.48.3c-.56-.11-1.12-.2-1.68-.29z" transform="translate(-.98 -.52)"/><path d="M291.07 282.1c-.25 1.47-.49 2.94-.74 4.41-.07.42-.07.42-.51.34l-4.27-.71c-.27 0-.37-.13-.3-.37s.07-.41.11-.62-.06-.27-.25-.29l-.49-.05c-.39-.06-.49 0-.51.37v.19c0 .43-.14.5-.63.42-1.39-.23-2.79-.47-4.19-.69-.32-.05-.4-.19-.36-.45.5-3 1-5.91 1.49-8.86.06-.36.14-.42.55-.33 2.95.58 5.92 1 8.87 1.52.52.09 1 .13 1.55.22s.47.1.4.52c-.24 1.46-.49 2.92-.73 4.38zm-8.37-.17 1.58.27c.22 0 .32 0 .35-.22.1-.59.2-1.19.31-1.79 0-.21-.06-.3-.29-.34l-3.13-.52c-.21 0-.31 0-.35.22-.08.59-.18 1.19-.29 1.79 0 .21 0 .31.27.34zm5.47-1.49c-.52-.08-1-.16-1.55-.26-.25-.05-.36 0-.39.24-.09.59-.19 1.19-.29 1.78-.05.23.05.29.28.33 1 .16 2 .33 3 .51.28.05.39 0 .43-.27.08-.56.17-1.13.28-1.69 0-.23 0-.35-.3-.39-.48-.08-.97-.17-1.46-.25z" transform="translate(-.98 -.52)" style="fill:#2785db"/><path d="M292.87 271.31c-.25 1.48-.5 3-.74 4.44-.07.38-.11.4-.52.34l-2.86-.48c-.41-.07-.49-.18-.43-.54.14-.85.28-1.71.43-2.56a.34.34 0 0 1 0-.1c.2-.63.12-.52.72-.43l1.48.25c.26 0 .4 0 .44-.25.09-.59.19-1.18.29-1.76 0-.21 0-.33-.3-.38l-8-1.34c-.26 0-.39.05-.42.28-.09.57-.19 1.14-.28 1.7 0 .23.05.36.31.41l3.06.52a.25.25 0 0 0 .33-.17 1.81 1.81 0 0 0 .12-.64c0-.19.11-.24.27-.29a.45.45 0 0 1 .2 0c.85.09.89.14.77.88-.21 1.26-.43 2.51-.63 3.77 0 .26-.17.34-.43.3l-5.43-.91c-.49-.08-.55-.15-.48-.58.49-3 1-5.91 1.48-8.87 0-.17.09-.23.28-.22s.55 0 .83.08l9.77 1.63c.55.09.55.1.47.6l-.72 4.32z" transform="translate(-.98 -.52)" style="fill:#44c047"/><path d="M289.84 254.78c1.75.29 3.49.59 5.24.87.3 0 .4.13.35.42-.51 3-1 5.95-1.49 8.92-.05.3-.16.38-.49.32-1.4-.25-2.8-.48-4.2-.71-.36-.06-.42-.15-.36-.47 0-.12.06-.23.08-.34.08-.47.08-.47-.46-.56h-.21c-.5-.08-.51-.08-.54.39 0 .18-.1.34-.11.52s-.18.19-.35.16l-4.44-.74c-.23 0-.32-.15-.29-.35.17-1 .35-2 .51-3.06 0-.28.23-.27.45-.23l1.83.3c.8.15 1.61.24 2.4.44.25.06.44 0 .48-.27.07-.57.17-1.14.28-1.7.05-.27 0-.38-.34-.43-1.42-.22-2.83-.47-4.24-.7-.29 0-.4-.12-.35-.4.18-1 .33-2 .48-3 0-.26.15-.33.44-.28 1.77.31 3.55.6 5.33.9zm1.49 6.43c.51.08 1 .16 1.54.26.22 0 .35 0 .39-.21.09-.61.19-1.22.3-1.82 0-.2 0-.32-.27-.35l-3.09-.52c-.22 0-.32 0-.35.21-.09.63-.2 1.25-.31 1.88 0 .18 0 .26.24.29z" transform="translate(-.98 -.52)" style="fill:#eb1416"/><path class="aea7967b-484e-4009-b6fe-f2130d358877" d="m156.94 232.66 7.54 1.26c.53.09.53.09.45.57s-.13.7-.17 1-.16.33-.44.28l-9.3-1.57c-.33-.05-.41 0-.45.3-.35 2.17-.72 4.33-1.07 6.49-.05.31-.2.36-.51.31l-5.19-.87c-.3 0-.4-.14-.35-.42q.72-4.19 1.4-8.39c.05-.31.19-.34.48-.29z" transform="translate(-.98 -.52)"/><path class="b5a09103-7c67-4470-bd2e-a403a25c836b" d="M224.85 265.68 226 259a1.74 1.74 0 0 1 2.34-1.33 2.14 2.14 0 0 1 1.43 1.06c2.19 4.06 4.41 8.11 6.61 12.17.17.3.2.31.45.08l8.14-7.43 2.16-2a2.34 2.34 0 0 1 3.26.37 1.32 1.32 0 0 1 .25 1q-1.17 6.91-2.32 13.83c0 .29-.15.39-.49.32-1-.19-2-.35-3.06-.51-.3-.05-.36-.15-.31-.4.47-2.79.93-5.58 1.4-8.37v-.12c0-.04.11-.25 0-.31s-.18.1-.26.17l-4.89 4.53c-1 .89-2 1.74-2.87 2.68a2.38 2.38 0 0 1-3.55-.6c-1.63-3.16-3.37-6.28-5.06-9.42 0-.07-.06-.19-.17-.17s-.11.14-.12.22l-1.4 8.43c-.08.46-.08.46-.59.37-1-.17-1.95-.34-2.93-.49-.28 0-.34-.15-.3-.38.4-2.36.79-4.72 1.19-7.07zM220.34 265q-.59 3.46-1.16 6.95c-.07.38-.08.38-.52.31l-3-.5c-.27 0-.32-.14-.29-.36.36-2.07.7-4.14 1-6.2.13-.82.27-1.63.41-2.44 0-.08.06-.18-.06-.22s-.13.06-.19.11l-6.5 6c-.5.46-1 .9-1.48 1.37a2.34 2.34 0 0 1-3.35-.6c-1.59-3-3.25-6.05-4.88-9.07-.1-.17-.19-.34-.28-.51s-.05-.14-.13-.14-.1.1-.11.17 0 .27-.06.4c-.46 2.73-.91 5.46-1.37 8.19-.06.38-.07.37-.51.3-1-.18-2-.35-3-.5-.3 0-.4-.13-.35-.41q1.16-6.86 2.3-13.71a1.52 1.52 0 0 1 1.5-1.37 2.24 2.24 0 0 1 2.21 1c1.11 2 2.2 4 3.3 6l3.44 6.31c.14.27.24.14.37 0l2.95-2.7c2.42-2.2 4.85-4.39 7.24-6.63a2.4 2.4 0 0 1 3.17 0 1.32 1.32 0 0 1 .45 1.21c-.4 2.31-.78 4.61-1.16 6.92zM253.49 270.64c.38-2.24.75-4.47 1.13-6.7a1.6 1.6 0 0 1 1.91-1.29c.72.09 1.45.23 2.17.35 2.37.39 4.75.78 7.13 1.19a12.61 12.61 0 0 1 6.36 3 6.88 6.88 0 0 1 2.51 6.52q-.6 3.66-1.22 7.32c-.07.41-.08.41-.53.34-1-.17-2-.34-3-.49-.29 0-.37-.15-.32-.4.19-1 .35-2.08.53-3.12.05-.27 0-.4-.34-.45l-12.77-2.14c-.28-.05-.36 0-.4.28-.16 1-.35 2.08-.51 3.12-.05.3-.17.38-.5.31-1-.18-2-.34-3-.5-.32 0-.44-.14-.38-.45.39-2.28.77-4.57 1.15-6.85zM264 273l6.37 1.07c.3 0 .43 0 .46-.28s.08-.52.12-.78a4.27 4.27 0 0 0-1.54-4.2 8.48 8.48 0 0 0-4-1.85c-2.25-.43-4.52-.78-6.77-1.17-.34-.06-.36.12-.4.33q-.44 2.69-.9 5.37c0 .29 0 .4.36.46zM191.25 260.22c-.38 2.28-.77 4.57-1.14 6.85-.05.3-.16.38-.49.32-1-.19-2-.35-3-.51-.29 0-.36-.14-.32-.4.19-1 .35-2.08.54-3.11.05-.3 0-.41-.37-.46l-12.67-2.12c-.31-.05-.44 0-.48.3-.16 1-.35 2.05-.5 3.09 0 .3-.17.37-.5.31-1-.18-1.95-.33-2.93-.5-.43-.07-.43-.07-.36-.47q.62-3.74 1.25-7.47a6.55 6.55 0 0 1 3.37-4.67 11.55 11.55 0 0 1 7-1.39c1.85.16 3.67.57 5.51.87 1.55.24 3.1.51 4.65.77a1.91 1.91 0 0 1 1.59 1.37 1.24 1.24 0 0 1 0 .47l-1.14 6.79zm-10.67-1.14c2.11.35 4.22.7 6.33 1.07.32.05.44 0 .48-.29.3-1.81.6-3.63.91-5.44 0-.26 0-.37-.33-.42q-3-.48-6-1a11.11 11.11 0 0 0-3.77 0 4.85 4.85 0 0 0-3.81 2.54 7.49 7.49 0 0 0-.52 2c-.07.4-.07.41.4.48zM153 261.25l-7-1.17c-.49-.08-.49-.08-.42-.5.25-1.48.5-3 .74-4.45.05-.28.15-.39.49-.32.84.16 1.68.29 2.52.42.31.05.41.17.35.45-.12.58-.2 1.17-.31 1.76 0 .23 0 .33.31.38l7 1.15c1 .17 2 .36 3.06.54a4.41 4.41 0 0 0 .73.08 1.08 1.08 0 0 0 1.24-.95q.94-5.58 1.86-11.15c0-.3.15-.4.51-.33 1 .18 2 .35 3 .5.3.05.38.15.33.42-.64 3.78-1.26 7.55-1.9 11.33a3.93 3.93 0 0 1-3.34 2.92 7.76 7.76 0 0 1-2.76 0l-6.41-1.08z" transform="translate(-.98 -.52)"/><path class="aea7967b-484e-4009-b6fe-f2130d358877" d="m264 273-6.33-1c-.34-.06-.41-.17-.36-.46q.47-2.68.9-5.37c0-.21.06-.39.4-.33 2.25.39 4.52.74 6.77 1.17a8.48 8.48 0 0 1 4 1.85 4.27 4.27 0 0 1 1.54 4.2c0 .26-.1.52-.12.78s-.16.33-.46.28zM180.58 259.08l-6.3-1.06c-.47-.07-.47-.08-.4-.48a7.49 7.49 0 0 1 .52-2 4.85 4.85 0 0 1 3.81-2.54 11.11 11.11 0 0 1 3.77 0q3 .51 6 1c.31.05.38.16.33.42-.31 1.81-.61 3.63-.91 5.44 0 .29-.16.34-.48.29-2.11-.37-4.22-.72-6.33-1.07z" transform="translate(-.98 -.52)"/></g><g id="ab1dfc2e-da44-443e-833e-c23e78ef473e" data-name="b309cc22-1066-46be-9abd-4cb2801bbdca"><path class="f26b5ff0-d3d0-4864-8e07-a15645fa4478" d="M110.08 94.46 165.5 103l25.5 3.87 94.12 14.4a18.36 18.36 0 0 1 6.89 2.18l.42.4a14.67 14.67 0 0 1 6.15 14.88 9.92 9.92 0 0 1-11.17 8.11l-188-29A14.27 14.27 0 0 1 87.26 103c.26-4.73 2.37-7.9 6.3-9.74a9.33 9.33 0 0 1 2-.48 19.6 19.6 0 0 1 5.11.3zm132.44 33.11v4.66a4.3 4.3 0 0 0 1 2.76c2.52 3.17 11.7 4.58 14.32 2.21 1.28-1.16 1.18-4.92 1.18-4.92l-3.07-.47c-.06 0-2.57-.37-2.35 1.88.21 2.07-1.45 1.85-2.78 1.64s-2.76-.42-2.72-2.57c0-2.89.06-5.79 0-8.7 0-2 1.29-2 2.55-1.77s3 .33 3 2.53l.07 1.4c.54 0 4.4.64 4.94.73l-.08-3.28a4.71 4.71 0 0 0-2.27-2.42 16.91 16.91 0 0 0-11-1.71c-2 .4-2.74 1.59-2.76 4v4zm34.13-4.08a10.76 10.76 0 0 0-5.61.07c-2.85.94-3.25 4-.82 6.51a24 24 0 0 0 3.07 2.46c1.54 1.1 3.14 2.09 4.66 3.23.85.65 1.68 1.56 1.24 2.68-.52 1.33-1.85 1-3 .77s-2.33-.36-2.36-1.83v-1.56l-3.52-.54s-2.33.31-1.56 2.41a4 4 0 0 0 1.69 2.18c4.13 2.46 8.35 3.22 12.43 1.89 2.42-.79 2.64-3.7.68-6a19.63 19.63 0 0 0-4.36-3.38 23.38 23.38 0 0 1-4.12-3c-.77-.79-1.26-1.75-.64-2.61s1.9-.72 3-.43 2 .59 2.06 2c0 .91 1.15 1.18 1.15 1.18.72.06 2.17.3 2.17.3l2.07.32a10.1 10.1 0 0 0-.72-3.06 6.28 6.28 0 0 0-2.5-2.2 13.72 13.72 0 0 0-5-1.38z" transform="translate(-.98 -.52)"/><path d="m169.16 125.19-2.87-.41-2.36-.37-1.41-3.71-6-.92-1.46 3.22-4.92-.75.19-.49c1.71-5.33 3.45-10.64 5.15-16l.18-.64 4 .64 3.83.56 2.23 6.83s2.25 7.61 3.29 11.42zm-12.28-7.79 5 .77c-.78-2.92-1.54-5.7-2.29-8.49l-.37-.05c-.74 2.56-1.52 5.1-2.34 7.77zm-55-11.59c0-1.35.08-2.68 0-4-.07-2.1.87-3.38 2.6-3.71a16.29 16.29 0 0 1 11.18 1.75 4.74 4.74 0 0 1 2.1 2.89 14.5 14.5 0 0 1 .26 2.69l-5.19-.8v-1.37c.09-2.19-1.59-2.31-2.92-2.51s-2.56-.23-2.54 1.76q0 4.32-.08 8.63c-.05 2.12 1.38 2.35 2.67 2.56s3 .42 2.77-1.64v-2.26l5.35.79v.41c.1 1.49-.4 3.77-1.22 4.52-2.6 2.36-11.67 1-14.15-2.18a4.41 4.41 0 0 1-.93-2.93v-4.6zm141 21.86v-4.06c0-2.4.71-3.59 2.76-4a16.86 16.86 0 0 1 11 1.72 4.8 4.8 0 0 1 1.83 1.59 3.74 3.74 0 0 1 .44.84 4.13 4.13 0 0 1 .23 1.58A11.52 11.52 0 0 1 259 127l-4.94-.73-.06-1.4c.07-2.2-1.64-2.32-3-2.53s-2.58-.23-2.54 1.77v8.7c0 2.14 1.42 2.36 2.72 2.57s3 .42 2.79-1.64v-2.28l2.53.43 2.89.44s.42 3.5-1.18 4.92c-2.64 2.35-11.79 1-14.32-2.2a4.3 4.3 0 0 1-1-2.74v-4.65zM185 128a12.67 12.67 0 0 1-5.51-1.72 4.56 4.56 0 0 1-2.46-4.2v-1.15l5.19.84v.86a1.9 1.9 0 0 0 1.22 2.19c1.33.54 2.68.88 3.77.11s.45-1.82-.33-2.67a19 19 0 0 0-4.05-3 20.19 20.19 0 0 1-4.3-3.32c-2.11-2.36-1.85-5.36.77-6.15a14.53 14.53 0 0 1 11.84 1.82 4.79 4.79 0 0 1 2.13 4.21v.38l-5.4-.87v-1.17c-.18-1.57-1.52-1.67-2.55-1.84s-2.18-.39-2.54.89.5 2.14 1.42 2.79c1.36 1 2.75 1.94 4.15 2.88a17.28 17.28 0 0 1 3.51 2.8c2.11 2.39 1.75 5.15-.8 6.17a10.51 10.51 0 0 1-6.06.15zm24.85 3.92a16.25 16.25 0 0 1-4.45-1.2 7.7 7.7 0 0 1-3-2.42 4.37 4.37 0 0 1-.69-3v-.41l5.35.73v1.34c-.09 1.54 1.17 1.8 2.14 2 1.16.28 2.55.68 3.16-.66s-.4-2.13-1.3-2.79c-1.88-1.39-3.84-2.62-5.73-4s-3.72-2.77-3.32-5.4 2.42-2.95 4.5-3a18.82 18.82 0 0 1 7.84 1.4 5.34 5.34 0 0 1 3.63 4.28 10.85 10.85 0 0 1 0 1.27l-5.35-.82v-1.3c-.2-1.53-1.57-1.61-2.6-1.77s-2.05-.32-2.45.78.37 2.16 1.29 2.84c1.84 1.34 3.75 2.55 5.59 3.89s3.84 2.76 3.45 5.52-2.6 2.87-4.68 3a24.46 24.46 0 0 1-3.4-.27zm67.15-8.41a13.57 13.57 0 0 1 5 1.41 6.13 6.13 0 0 1 2.5 2.2 4.36 4.36 0 0 1 .72 3l-5.39-.75v-1c-.22-1.66-1.1-1.72-2.06-2s-2.28-.53-3 .42-.13 1.83.64 2.61a22.47 22.47 0 0 0 4.13 3 20.29 20.29 0 0 1 4.35 3.38c2 2.27 1.76 5.19-.68 6-4.07 1.33-8.29.57-12.43-1.88a4.1 4.1 0 0 1-1.84-2.24 7.39 7.39 0 0 1-.12-1.48A7.23 7.23 0 0 1 269 135l5.24.81v1.55c0 1.5 1.4 1.63 2.35 1.84 1.11.23 2.42.55 3-.78.45-1.12-.39-2-1.24-2.67-1.51-1.14-3.11-2.13-4.65-3.24a23.9 23.9 0 0 1-3.08-2.46c-2.42-2.44-2-5.56.82-6.51a10.87 10.87 0 0 1 5.61-.06zm-148.7-13.65.08-9.07 5.58.85-.14 14v1.39l7.73 1.13 1.22.19v2.78l-14.48-2.23v-1.39zM233 126c0 2.51-.05 5 0 7.52v1.59c0 .06-5.65-.87-5.65-.87 0-4 .08-12.64 0-16.69v-1.58l5.67.87s0 7.62-.05 9.16z" transform="translate(-.98 -.52)" style="fill:#fefefe"/><path class="f26b5ff0-d3d0-4864-8e07-a15645fa4478" d="m156.88 117.4 2.38-7.75.37.06c.75 2.78 1.51 5.57 2.29 8.49z" transform="translate(-.98 -.52)"/><path d="M85.93 49.12c4.28.68 8.5 1.38 12.75 2 6.33 1 20.72 3.09 20.72 3.09V56s-.18 4.94-.07 7.43a14.43 14.43 0 0 0 0 1.74s-6.94-1-9.52-1.45c-.93-.14-1.21.1-1.21 1.11 0 9.8-.14 19.61-.22 29.43v1.15L95.7 93.49c.1-10 .23-20.56.35-30.56 0-.77-.09-1.39-1-1.51-3.07-.39-6.14-.82-9.2-1.23zm114.32 60.52-1.25-.19c-3.41-.59-10.23-1.61-10.23-1.61l-1.34-.14a83.17 83.17 0 0 0 .24-9c.07-7.41.14-14.82.13-22.24 0-3.88 1.47-6.67 4.48-8.16 6.94-3.46 14.24-3 21.74 1.57a2.65 2.65 0 0 0 2.45.4c6.58-1.91 13.21-.87 19.63 3.37a14.48 14.48 0 0 1 6.75 12.9c-.08 9.4 0 20.15 0 29.59l-1.26-.19s-8.29-1.41-11.76-1.91v-1.19q0-14.46.13-28.87a2.56 2.56 0 0 0-.85-2.12 6.58 6.58 0 0 0-6.19-1.36c-1.84.47-1.33 2.3-1.35 3.76-.05 2.57 0 5.12 0 7.68v20.77l-1.27-.14c-3.65-.59-8.45-1.25-12.09-1.75v-1.3q.1-14.43.19-28.83c0-1.72-1.09-2.68-3.45-3.22s-4.29.09-4.55 1.44a2.41 2.41 0 0 0 0 .38c-.06 9.66-.18 20.63-.18 30.31zm85.5 11.72a61.56 61.56 0 0 1-8.4.76c-5.8-.11-11.35-2-16.84-4.64a48 48 0 0 1-7.43-5.79c-10.13-10.24-10.15-23.74 0-31 10.92-7.69 29.73-4.76 40.57 6.49 9.77 10.11 9.7 23.41-.16 30.46a32.45 32.45 0 0 1-7.74 3.72zm-13.38-10.8c5.44.83 9.78-.18 12.65-2.58 4.07-3.41 4.12-9 .14-13.68-6-7.1-18-8.92-24-3.64-4 3.54-3.95 9.2.24 13.84a19.07 19.07 0 0 0 10.97 6.06zm-121.22-9.74v1.31c-5.26-.89-12-1.91-17.28-2.72a25.31 25.31 0 0 1-5.91-2.2c-1-.87-2.15-1.67-3.13-2.62a11 11 0 0 1-3.7-8.59q.23-10 .16-20.1a8.27 8.27 0 0 1 3.32-7 11.5 11.5 0 0 1 9-2.36c5.47.8 16.41 2.54 16.41 2.54l1.47.17-.07 10.47-1.51-.19c-4.52-.73-9.06-1.37-13.57-2-2.24-.35-2.42-.16-2.45 2.25 0 3.15 0 3.15 3 3.61l12.86 1.93 1.54.23-.06 8.63-.12 1.82s-11.05-1.64-15.64-2.43c-1.35-.2-1.86 0-1.85 1.58 0 3.47.2 3.8 3.38 4.28 4.23.65 8.46 1.33 12.7 1.92l1.43.18zm32.62 7-2.12-.45a66.31 66.31 0 0 1-12.78-3.88c-2.37-1.54-4.85-2.8-7-4.77-6.14-5.53-9.81-12.1-8.71-20.29.84-6.28 4.52-10.19 9.6-12.6 6.45-3.06 13.54-3 20.86-1.91l1.11.22-.05 10.42a9.24 9.24 0 0 1-1.27-.12 29.62 29.62 0 0 0-7.8-.21 13.4 13.4 0 0 0-6.24 2.28c-4.54 3.24-4.69 9.25-.3 14 3.27 3.52 7.25 5.11 11.44 6l3.24.68v10.64z" transform="translate(-.98 -.52)" style="fill:#e22530"/></g></svg>