<svg id="eecc80ae-6807-4c6f-8d0d-88a45ee0b5f6" data-name="bae51f9f-9ab5-4723-91c1-5de94dc4635e" xmlns="http://www.w3.org/2000/svg" xmlns:xlink="http://www.w3.org/1999/xlink" viewBox="0 0 87.6 88.6"><defs><style>.b1a361c1-0d5a-4cfa-a3e8-db836400d4ea,.e917c1f5-3166-4558-8694-722adfd92f01{fill:#211c1d;}.f2f4dcbf-1b18-417f-b31f-42ee23dcdcce{opacity:0.1;}.a7bcad76-b539-4413-8497-20a9fd3f7656{fill:#808094;}.bfffc4bc-d20d-40fa-ae36-fd14b8a56e86{fill:#6d6e6f;}.a0cd7399-62d4-4ede-b2e8-34955549e5be{fill:url(#b735d89f-3c5e-48a7-ab2e-6059040e9963);}.b1a361c1-0d5a-4cfa-a3e8-db836400d4ea{opacity:0.3;}.b1a361c1-0d5a-4cfa-a3e8-db836400d4ea,.b4545103-5248-4ab6-b2fa-bd9db7ec7fb8,.bd5280b9-e7e1-40ad-b539-98ad959b6af1{isolation:isolate;}.b4545103-5248-4ab6-b2fa-bd9db7ec7fb8{opacity:0.15;fill:url(#abe079d9-33d0-4ce6-acf2-9d06922aae64);}.bd5280b9-e7e1-40ad-b539-98ad959b6af1{opacity:0.4;fill:url(#b16584ad-4283-46e0-ab4c-04a8c31d9727);}.affe92ab-60f2-4701-87e6-dd68fe4935f2{fill:#bb171e;}</style><linearGradient id="b735d89f-3c5e-48a7-ab2e-6059040e9963" x1="-747.89" y1="2455.81" x2="-768.82" y2="2434.88" gradientTransform="translate(802.18 -2401.52)" gradientUnits="userSpaceOnUse"><stop offset="0" stop-color="#a4a5a9"/><stop offset="1" stop-color="#e6e6e7"/></linearGradient><linearGradient id="abe079d9-33d0-4ce6-acf2-9d06922aae64" x1="-768.76" y1="2455.8" x2="-747.88" y2="2434.93" gradientTransform="translate(802.18 -2401.52)" gradientUnits="userSpaceOnUse"><stop offset="0" stop-color="#211c1d" stop-opacity="0"/><stop offset="0.04" stop-color="#211c1d" stop-opacity="0.09"/><stop offset="0.5" stop-color="#211c1d"/><stop offset="0.95" stop-color="#211c1d" stop-opacity="0.09"/><stop offset="1" stop-color="#211c1d" stop-opacity="0"/></linearGradient><linearGradient id="b16584ad-4283-46e0-ab4c-04a8c31d9727" x1="-5886.68" y1="-3866.42" x2="-5865.8" y2="-3887.31" gradientTransform="translate(-5832.48 -3833.03) rotate(180)" gradientUnits="userSpaceOnUse"><stop offset="0" stop-color="#fff" stop-opacity="0"/><stop offset="0.5" stop-color="#fff"/><stop offset="1" stop-color="#fff" stop-opacity="0"/></linearGradient></defs><circle class="e917c1f5-3166-4558-8694-722adfd92f01" cx="43.8" cy="43.8" r="43.8"/><g class="f2f4dcbf-1b18-417f-b31f-42ee23dcdcce"><path class="a7bcad76-b539-4413-8497-20a9fd3f7656" d="M84.4,43.8l-8.6-8.9v4.3H66v9.1h9.8v4.3ZM72.5,15.1l-12.4-.2L63.2,18l-7,7,6.4,6.4,7-7,3.1,3.1ZM43.8,3.2l-8.9,8.6h4.3v9.8h9.1V11.8h4.3ZM15.1,15.1l-.2,12.4L18,24.4l7,7L31.4,25l-7-7,3.1-3.1ZM3.2,43.8l8.6,8.9V48.4h9.8V39.3H11.8V35ZM15.1,72.5l12.4.2-3.1-3.1,7-7L25,56.2l-7,7-3.1-3.1ZM43.8,84.4l8.9-8.6H48.4V66H39.3v9.8H35ZM72.5,72.5l.2-12.4-3.1,3.1-7-7-6.4,6.4,7,7-3.1,3.1Z" transform="translate(0 0)"/></g><path class="bfffc4bc-d20d-40fa-ae36-fd14b8a56e86" d="M87.6,44.3A43.81,43.81,0,0,1,0,44.3v.5a43.8,43.8,0,0,0,87.6,0Z" transform="translate(0 0)"/><circle class="a0cd7399-62d4-4ede-b2e8-34955549e5be" cx="43.8" cy="43.8" r="14.8"/><circle class="b1a361c1-0d5a-4cfa-a3e8-db836400d4ea" cx="43.8" cy="43.8" r="11.8"/><path class="b4545103-5248-4ab6-b2fa-bd9db7ec7fb8" d="M43.8,29.1A14.75,14.75,0,1,0,58.6,43.9,14.75,14.75,0,0,0,43.8,29.1Zm-.2,28.7A14.15,14.15,0,1,1,57.8,43.7,14.16,14.16,0,0,1,43.6,57.8Z" transform="translate(0 0)"/><path class="bd5280b9-e7e1-40ad-b539-98ad959b6af1" d="M43.8,58.6A14.75,14.75,0,1,0,29,43.9,14.75,14.75,0,0,0,43.8,58.6ZM44,29.9a14.1,14.1,0,0,1,0,28.2h0A14,14,0,0,1,29.9,44.2h0V44h0A14.08,14.08,0,0,1,44,29.9Z" transform="translate(0 0)"/><circle class="affe92ab-60f2-4701-87e6-dd68fe4935f2" cx="43.6" cy="32.8" r="20.5"/></svg>