<svg id="aec407d5-b81e-415b-9c22-618e2a21df8a" data-name="bae51f9f-9ab5-4723-91c1-5de94dc4635e" xmlns="http://www.w3.org/2000/svg" xmlns:xlink="http://www.w3.org/1999/xlink" viewBox="0 0 87.6 88.6"><defs><style>.afbb5fc1-f483-4b22-a01b-f934778f6bf4,.f6bbae9a-15ea-41a8-a553-769c8ac7ea1e{fill:#211c1d;}.bb96fec2-53da-445e-b60a-a4138ccd585c{opacity:0.1;}.f4e30f99-e16c-4456-9b4d-17cbf691f0ec{fill:#808094;}.f7b85a17-e6ad-4653-97a3-75dbb32fd0fb{fill:#6d6e6f;}.aea3068a-171a-4af0-90c2-073f51120715{fill:url(#b0f837ed-bc92-4bcd-87f3-3d8fa16db166);}.f6bbae9a-15ea-41a8-a553-769c8ac7ea1e{opacity:0.3;}.b42c2442-9a8e-4d86-b1ab-90e22c9b8350,.be2b4c56-f685-4447-a642-1a6768f5fbe9,.f6bbae9a-15ea-41a8-a553-769c8ac7ea1e{isolation:isolate;}.be2b4c56-f685-4447-a642-1a6768f5fbe9{opacity:0.15;fill:url(#a619237c-e69f-42c1-bcfa-1587a5331db8);}.b42c2442-9a8e-4d86-b1ab-90e22c9b8350{opacity:0.4;fill:url(#a1bb90cf-a86a-461a-b737-ed0c413c45e4);}</style><linearGradient id="b0f837ed-bc92-4bcd-87f3-3d8fa16db166" x1="-747.89" y1="2455.81" x2="-768.82" y2="2434.88" gradientTransform="translate(802.18 -2401.52)" gradientUnits="userSpaceOnUse"><stop offset="0" stop-color="#a4a5a9"/><stop offset="1" stop-color="#e6e6e7"/></linearGradient><linearGradient id="a619237c-e69f-42c1-bcfa-1587a5331db8" x1="-768.76" y1="2455.8" x2="-747.88" y2="2434.93" gradientTransform="translate(802.18 -2401.52)" gradientUnits="userSpaceOnUse"><stop offset="0" stop-color="#211c1d" stop-opacity="0"/><stop offset="0.04" stop-color="#211c1d" stop-opacity="0.09"/><stop offset="0.5" stop-color="#211c1d"/><stop offset="0.95" stop-color="#211c1d" stop-opacity="0.09"/><stop offset="1" stop-color="#211c1d" stop-opacity="0"/></linearGradient><linearGradient id="a1bb90cf-a86a-461a-b737-ed0c413c45e4" x1="-5886.68" y1="-3866.42" x2="-5865.8" y2="-3887.31" gradientTransform="translate(-5832.48 -3833.03) rotate(180)" gradientUnits="userSpaceOnUse"><stop offset="0" stop-color="#fff" stop-opacity="0"/><stop offset="0.5" stop-color="#fff"/><stop offset="1" stop-color="#fff" stop-opacity="0"/></linearGradient></defs><circle class="afbb5fc1-f483-4b22-a01b-f934778f6bf4" cx="43.8" cy="43.8" r="43.8"/><g class="bb96fec2-53da-445e-b60a-a4138ccd585c"><path class="f4e30f99-e16c-4456-9b4d-17cbf691f0ec" d="M84.4,43.8l-8.6-8.9v4.3H66v9.1h9.8v4.3ZM72.5,15.1l-12.4-.2L63.2,18l-7,7,6.4,6.4,7-7,3.1,3.1ZM43.8,3.2l-8.9,8.6h4.3v9.8h9.1V11.8h4.3ZM15.1,15.1l-.2,12.4L18,24.4l7,7L31.4,25l-7-7,3.1-3.1ZM3.2,43.8l8.6,8.9V48.4h9.8V39.3H11.8V35ZM15.1,72.5l12.4.2-3.1-3.1,7-7L25,56.2l-7,7-3.1-3.1ZM43.8,84.4l8.9-8.6H48.4V66H39.3v9.8H35ZM72.5,72.5l.2-12.4-3.1,3.1-7-7-6.4,6.4,7,7-3.1,3.1Z" transform="translate(0 0)"/></g><path class="f7b85a17-e6ad-4653-97a3-75dbb32fd0fb" d="M87.6,44.3A43.81,43.81,0,0,1,0,44.3v.5a43.8,43.8,0,0,0,87.6,0Z" transform="translate(0 0)"/><circle class="aea3068a-171a-4af0-90c2-073f51120715" cx="43.8" cy="43.8" r="14.8"/><circle class="f6bbae9a-15ea-41a8-a553-769c8ac7ea1e" cx="43.8" cy="43.8" r="11.8"/><path class="be2b4c56-f685-4447-a642-1a6768f5fbe9" d="M43.8,29.1A14.75,14.75,0,1,0,58.6,43.9,14.75,14.75,0,0,0,43.8,29.1Zm-.2,28.7A14.15,14.15,0,1,1,57.8,43.7,14.16,14.16,0,0,1,43.6,57.8Z" transform="translate(0 0)"/><path class="b42c2442-9a8e-4d86-b1ab-90e22c9b8350" d="M43.8,58.6A14.75,14.75,0,1,0,29,43.9,14.75,14.75,0,0,0,43.8,58.6ZM44,29.9a14.1,14.1,0,0,1,0,28.2h0A14,14,0,0,1,29.9,44.2h0V44h0A14.08,14.08,0,0,1,44,29.9Z" transform="translate(0 0)"/><circle cx="43.6" cy="32.8" r="20.5"/></svg>