<svg xmlns="http://www.w3.org/2000/svg" xmlns:xlink="http://www.w3.org/1999/xlink" viewBox="0 0 470.58 67.66"><defs><style>.b64fe47a-e5ea-4d7d-baf7-0fc983da3cfc{stroke:#9def48;stroke-miterlimit:10;fill:url(#b2c05fd7-603f-4c35-acde-8ce8358bffce);}.fd7914fd-d8e0-4b81-9963-29e465450e93{fill:#9def48;}.ac022949-2950-4313-b34b-a12b042e883d{fill:#e22530;}</style><linearGradient id="b2c05fd7-603f-4c35-acde-8ce8358bffce" x1="0.5" y1="33.83" x2="470.08" y2="33.83" gradientUnits="userSpaceOnUse"><stop offset="0" stop-color="#032c02"/><stop offset="1" stop-color="#207a09"/></linearGradient></defs><g id="fffdebb1-1333-4516-8a19-2a1fa3fd817e" data-name="texte"><polygon class="b64fe47a-e5ea-4d7d-baf7-0fc983da3cfc" points="0.5 6.04 102.57 6.04 108.7 0.5 150.44 0.5 158.35 6.04 461.77 6.24 470.08 16.13 470.08 59.84 50.94 59.84 42.83 67.16 8.02 67.16 0.5 59.84 0.5 6.04"/><path class="fd7914fd-d8e0-4b81-9963-29e465450e93" d="M70,41.11,66,45.18v-21H52.65V20.07H83.31v4.07H70Z"/><path class="fd7914fd-d8e0-4b81-9963-29e465450e93" d="M108.62,34.34H91.7a17.66,17.66,0,0,0,2.2,6.17H114l2.34,4.07H91.72a17.62,17.62,0,0,1-4.14-10.24H83.74V30.29h3.84a17.53,17.53,0,0,1,4.14-10.22h24.66L114,24.14H93.9a17.49,17.49,0,0,0-2.2,6.15h16.92Z"/><path class="fd7914fd-d8e0-4b81-9963-29e465450e93" d="M145.75,37.28h4.38a17,17,0,0,1-3.68,7.3H122.31a18.18,18.18,0,0,1-4.22-12.26,18.17,18.17,0,0,1,4.22-12.25h24.14a17,17,0,0,1,3.68,7.3h-4.38a17.47,17.47,0,0,0-1.47-3.23H124.49a16.32,16.32,0,0,0-2.34,8.18,16.38,16.38,0,0,0,2.34,8.19h19.79A18.09,18.09,0,0,0,145.75,37.28Z"/><path class="fd7914fd-d8e0-4b81-9963-29e465450e93" d="M167.82,24.14H160a16.32,16.32,0,0,0-2.34,8.18A16.38,16.38,0,0,0,160,40.51h2.7v4.07h-4.89a18.18,18.18,0,0,1-4.22-12.26,18.13,18.13,0,0,1,4.22-12.25h10V16.23h4.05v3.84h10a18.18,18.18,0,0,1,4.22,12.25,18.23,18.23,0,0,1-4.22,12.26H177V40.51h2.72a16.45,16.45,0,0,0,2.32-8.19,16.39,16.39,0,0,0-2.32-8.18h-7.88V38.67h-4.05Z"/><path class="fd7914fd-d8e0-4b81-9963-29e465450e93" d="M217.93,44.58H193.78a18.18,18.18,0,0,1-4.22-12.26,18.13,18.13,0,0,1,4.22-12.25h24.15a18.18,18.18,0,0,1,4.22,12.25A18.23,18.23,0,0,1,217.93,44.58Zm-2.17-4.07a16.56,16.56,0,0,0,2.32-8.19,16.49,16.49,0,0,0-2.32-8.18H196a16.32,16.32,0,0,0-2.34,8.18A16.38,16.38,0,0,0,196,40.51Z"/></g><g id="e4c9f0c4-7b6e-4dcc-a267-4f74f7626b5f" data-name="tecmo"><path class="ac022949-2950-4313-b34b-a12b042e883d" d="M19.81,65.67l0-3.49c0-1.73,0-5.66,0-5.66h.45s1.26,0,1.88,0h.44s0,1.89,0,2.6c0,.25.08.33.33.33,2.49,0,5,0,7.46,0h.29v3.45H22.93c-.2,0-.35,0-.35.28,0,.84,0,1.68.05,2.52Zm10.91-31.2v.34c0,.92,0,2.77,0,2.77v.36a18.9,18.9,0,0,0-2.26,0c-1.87,0-3.75,0-5.62,0a2.44,2.44,0,0,1-2.24-1.2,6.16,6.16,0,0,1-.43-5.9.7.7,0,0,0,0-.66,6.35,6.35,0,0,1,.1-5.31,3.07,3.07,0,0,1,3-1.83c2.38,0,5.08,0,7.45,0v.33s0,2.24,0,3.18H23.12a.57.57,0,0,0-.51.23,1.77,1.77,0,0,0-.1,1.67c.19.5.63.36,1,.37h1.94l5.23,0V29c0,1,0,2.29,0,3.27h-.33l-7.28,0c-.43,0-.63.29-.68.94s.19,1.16.54,1.22h.1c2.44,0,5.21,0,7.65,0Zm-.34-23.06a21.72,21.72,0,0,1,.51,2.26,10.69,10.69,0,0,1-.52,4.53,10.65,10.65,0,0,1-1.17,2,4.74,4.74,0,0,1-7.8,0,9.23,9.23,0,0,1,.08-11,4.7,4.7,0,0,1,7.66.05,11.31,11.31,0,0,1,1.24,2.08ZM28.18,15A4.89,4.89,0,0,0,27,11.61a2.22,2.22,0,0,0-3.44,0,5,5,0,0,0,0,6.45A2.22,2.22,0,0,0,27.07,18,4.57,4.57,0,0,0,28.18,15Zm2.21,32.78h.33c0,1.42,0,3.27,0,4.69a6.32,6.32,0,0,1-.33,1.61,9.45,9.45,0,0,1-.53.86,2.37,2.37,0,0,1-2,1c-1.69,0-3.39,0-5.09,0a2.36,2.36,0,0,1-1.91-.89,3.67,3.67,0,0,1-.94-2.44c0-1.49,0-4.48,0-4.48v-.4h2.66v.41c0,1.24,0,2.47,0,3.7,0,.61,0,.66.66.66.8,0,.8,0,.8-.81V47.81h2.67s0,3,0,4.26c0,.37.08.5.47.5.88,0,.95-.06.95-.93,0-1.15,0-2.3,0-3.45v-.39Zm.5-8.86,0,.58A17.48,17.48,0,0,1,30.38,43a12,12,0,0,1-.93,1.91,4.71,4.71,0,0,1-8.36-.18A10.81,10.81,0,0,1,19.81,39v-.31h2.64a2.06,2.06,0,0,1,0,.35,9,9,0,0,0,.25,2.12,4.48,4.48,0,0,0,.81,1.69,2.18,2.18,0,0,0,3.55,0,4.93,4.93,0,0,0,1.08-3.1l0-.88,2.68,0Z"/></g></svg>