<svg id="Calque_1" data-name="Calque 1" xmlns="http://www.w3.org/2000/svg" xmlns:xlink="http://www.w3.org/1999/xlink" width="1431.32" height="1470.77"><defs><radialGradient id="Dégradé_sans_nom_20-7" cx="888.56" cy="188.1" r="4.93" xlink:href="#Dégradé_sans_nom_20"/><radialGradient id="Dégradé_sans_nom_17-16" cx="554.2" cy="137.73" r="4.93" xlink:href="#Dégradé_sans_nom_17"/><radialGradient id="Dégradé_sans_nom_11-2" cx="766.79" cy="885.52" r="3.75" xlink:href="#Dégradé_sans_nom_11"/><radialGradient id="Dégradé_sans_nom_11-3" cx="779.61" cy="885.52" r="3.75" xlink:href="#Dégradé_sans_nom_11"/><radialGradient id="Dégradé_sans_nom_11-4" cx="792.43" cy="885.52" r="3.75" xlink:href="#Dégradé_sans_nom_11"/><radialGradient id="Dégradé_sans_nom_11-5" cx="805.25" cy="885.52" r="3.75" xlink:href="#Dégradé_sans_nom_11"/><radialGradient id="Dégradé_sans_nom_11-6" cx="830.88" cy="885.52" r="3.75" xlink:href="#Dégradé_sans_nom_11"/><radialGradient id="Dégradé_sans_nom_11-7" cx="842.68" cy="885.52" r="3.75" xlink:href="#Dégradé_sans_nom_11"/><radialGradient id="Dégradé_sans_nom_11-8" cx="854.47" cy="885.52" r="3.75" xlink:href="#Dégradé_sans_nom_11"/><radialGradient id="Dégradé_sans_nom_11-9" cx="895.12" cy="885.52" r="3.75" xlink:href="#Dégradé_sans_nom_11"/><radialGradient id="Dégradé_sans_nom_11-10" cx="933.7" cy="885.52" r="3.75" xlink:href="#Dégradé_sans_nom_11"/><radialGradient id="Dégradé_sans_nom_11-11" cx="752.61" cy="825.86" r="3.75" xlink:href="#Dégradé_sans_nom_11"/><radialGradient id="Dégradé_sans_nom_11-12" cx="765.42" cy="825.86" r="3.75" xlink:href="#Dégradé_sans_nom_11"/><radialGradient id="Dégradé_sans_nom_11-13" cx="778.24" cy="825.86" r="3.75" xlink:href="#Dégradé_sans_nom_11"/><radialGradient id="Dégradé_sans_nom_11-14" cx="791.06" cy="825.86" r="3.75" xlink:href="#Dégradé_sans_nom_11"/><radialGradient id="Dégradé_sans_nom_11-15" cx="803.88" cy="825.86" r="3.75" xlink:href="#Dégradé_sans_nom_11"/><radialGradient id="Dégradé_sans_nom_11-16" cx="816.7" cy="825.86" r="3.75" xlink:href="#Dégradé_sans_nom_11"/><radialGradient id="Dégradé_sans_nom_11-17" cx="829.52" cy="825.86" r="3.75" xlink:href="#Dégradé_sans_nom_11"/><radialGradient id="Dégradé_sans_nom_11-18" cx="842.33" cy="825.86" r="3.75" xlink:href="#Dégradé_sans_nom_11"/><radialGradient id="Dégradé_sans_nom_11-19" cx="855.15" cy="825.86" r="3.75" xlink:href="#Dégradé_sans_nom_11"/><radialGradient id="Dégradé_sans_nom_11-20" cx="1036.41" cy="826.77" r="3.75" xlink:href="#Dégradé_sans_nom_11"/><radialGradient id="Dégradé_sans_nom_11-21" cx="1231.8" cy="826.77" r="3.75" xlink:href="#Dégradé_sans_nom_11"/><radialGradient id="Dégradé_sans_nom_11-22" cx="1356.31" cy="826.77" r="3.75" xlink:href="#Dégradé_sans_nom_11"/><radialGradient id="Dégradé_sans_nom_11-23" cx="1356.31" cy="856.37" r="3.75" xlink:href="#Dégradé_sans_nom_11"/><radialGradient id="Dégradé_sans_nom_11-24" cx="1363.99" cy="894.17" r="3.75" gradientTransform="rotate(2.16 1580.495 688.429)" xlink:href="#Dégradé_sans_nom_11"/><radialGradient id="Dégradé_sans_nom_11-25" cx="1365.23" cy="927.13" r="3.75" gradientTransform="rotate(2.16 1580.495 688.429)" xlink:href="#Dégradé_sans_nom_11"/><radialGradient id="Dégradé_sans_nom_11-26" cx="1036.41" cy="856.37" r="3.75" xlink:href="#Dégradé_sans_nom_11"/><radialGradient id="Dégradé_sans_nom_17-15" cx="599.41" cy="188.1" r="4.93" xlink:href="#Dégradé_sans_nom_17"/><radialGradient id="Dégradé_sans_nom_67" cx="794.67" cy="111.47" r="4.93" gradientUnits="userSpaceOnUse"><stop offset=".01" stop-color="#f8b133"/><stop offset=".43" stop-color="#f8af33"/><stop offset=".59" stop-color="#f7a832"/><stop offset=".7" stop-color="#f59d32"/><stop offset=".78" stop-color="#f28c30"/><stop offset=".86" stop-color="#ef762f"/><stop offset=".93" stop-color="#eb5a2d"/><stop offset=".99" stop-color="#e63b2b"/><stop offset="1" stop-color="#e5332a"/></radialGradient><radialGradient id="Dégradé_sans_nom_68" cx="828.23" cy="111.47" r="4.93" xlink:href="#Dégradé_sans_nom_67"/><radialGradient id="Dégradé_sans_nom_20" cx="1015.49" cy="111.47" r="4.93" gradientUnits="userSpaceOnUse"><stop offset=".01" stop-color="#fcea0d"/><stop offset="1" stop-color="#e5332a"/></radialGradient><radialGradient id="Dégradé_sans_nom_20-2" cx="1135.49" cy="161.99" r="4.93" xlink:href="#Dégradé_sans_nom_20"/><radialGradient id="Dégradé_sans_nom_20-3" cx="966.15" cy="161.99" r="4.93" xlink:href="#Dégradé_sans_nom_20"/><radialGradient id="Dégradé_sans_nom_20-4" cx="1091.04" cy="188.1" r="4.93" xlink:href="#Dégradé_sans_nom_20"/><radialGradient id="Dégradé_sans_nom_20-5" cx="1061.26" cy="188.1" r="4.93" xlink:href="#Dégradé_sans_nom_20"/><radialGradient id="Dégradé_sans_nom_20-6" cx="935.86" cy="188.1" r="4.93" xlink:href="#Dégradé_sans_nom_20"/><radialGradient id="Dégradé_sans_nom_11" cx="739.79" cy="825.86" r="3.75" gradientUnits="userSpaceOnUse"><stop offset=".39" stop-color="#fff"/><stop offset=".77" stop-color="#fcea0d"/><stop offset="1" stop-color="#e5332a"/></radialGradient><radialGradient id="Dégradé_sans_nom_20-8" cx="980.11" cy="161.99" r="4.93" xlink:href="#Dégradé_sans_nom_20"/><radialGradient id="Dégradé_sans_nom_20-9" cx="1165.86" cy="169.82" r="4.93" gradientTransform="rotate(20.66 1185.869 158.146)" xlink:href="#Dégradé_sans_nom_20"/><radialGradient id="Dégradé_sans_nom_20-10" cx="1328.39" cy="111.47" r="4.93" xlink:href="#Dégradé_sans_nom_20"/><radialGradient id="Dégradé_sans_nom_66" cx="1344.69" cy="135.59" r="4.93" gradientUnits="userSpaceOnUse"><stop offset=".59" stop-color="#fcea0d"/><stop offset=".64" stop-color="#fbe50e"/><stop offset=".7" stop-color="#fad710"/><stop offset=".77" stop-color="#f7bf14"/><stop offset=".84" stop-color="#f29e19"/><stop offset=".91" stop-color="#ed7420"/><stop offset=".98" stop-color="#e74128"/><stop offset="1" stop-color="#e5332a"/></radialGradient><radialGradient id="Dégradé_sans_nom_20-11" cx="1365.73" cy="161.07" r="4.93" xlink:href="#Dégradé_sans_nom_20"/><radialGradient id="Dégradé_sans_nom_17" cx="1068.56" cy="111.47" r="4.93" gradientUnits="userSpaceOnUse"><stop offset=".48" stop-color="#fff"/><stop offset="1" stop-color="#e5332a"/></radialGradient><radialGradient id="Dégradé_sans_nom_17-2" cx="949.45" cy="161.99" r="4.93" xlink:href="#Dégradé_sans_nom_17"/><radialGradient id="Dégradé_sans_nom_17-3" cx="838.08" cy="188.1" r="4.93" xlink:href="#Dégradé_sans_nom_17"/><radialGradient id="Dégradé_sans_nom_17-4" cx="935.86" cy="161.99" r="4.93" xlink:href="#Dégradé_sans_nom_17"/><radialGradient id="Dégradé_sans_nom_17-5" cx="1251.2" cy="137.73" r="4.93" xlink:href="#Dégradé_sans_nom_17"/><radialGradient id="Dégradé_sans_nom_17-6" cx="1298.49" cy="188.1" r="4.93" xlink:href="#Dégradé_sans_nom_17"/><radialGradient id="Dégradé_sans_nom_17-7" cx="1310.93" cy="188.1" r="4.93" xlink:href="#Dégradé_sans_nom_17"/><radialGradient id="Dégradé_sans_nom_17-8" cx="1265.72" cy="137.73" r="4.93" xlink:href="#Dégradé_sans_nom_17"/><radialGradient id="Dégradé_sans_nom_67-2" cx="83.15" cy="111.47" r="4.93" xlink:href="#Dégradé_sans_nom_67"/><radialGradient id="Dégradé_sans_nom_68-2" cx="116.7" cy="111.47" r="4.93" xlink:href="#Dégradé_sans_nom_67"/><radialGradient id="Dégradé_sans_nom_20-12" cx="303.96" cy="111.47" r="4.93" xlink:href="#Dégradé_sans_nom_20"/><radialGradient id="Dégradé_sans_nom_20-13" cx="423.96" cy="161.99" r="4.93" xlink:href="#Dégradé_sans_nom_20"/><radialGradient id="Dégradé_sans_nom_20-14" cx="254.63" cy="161.99" r="4.93" xlink:href="#Dégradé_sans_nom_20"/><radialGradient id="Dégradé_sans_nom_20-15" cx="379.52" cy="188.1" r="4.93" xlink:href="#Dégradé_sans_nom_20"/><radialGradient id="Dégradé_sans_nom_20-16" cx="349.74" cy="188.1" r="4.93" xlink:href="#Dégradé_sans_nom_20"/><radialGradient id="Dégradé_sans_nom_20-17" cx="224.33" cy="188.1" r="4.93" xlink:href="#Dégradé_sans_nom_20"/><radialGradient id="Dégradé_sans_nom_20-18" cx="177.04" cy="188.1" r="4.93" xlink:href="#Dégradé_sans_nom_20"/><radialGradient id="Dégradé_sans_nom_20-19" cx="268.59" cy="161.99" r="4.93" xlink:href="#Dégradé_sans_nom_20"/><radialGradient id="Dégradé_sans_nom_20-20" cx="500.09" cy="420.85" r="4.93" gradientTransform="rotate(20.66 1185.869 158.146)" xlink:href="#Dégradé_sans_nom_20"/><radialGradient id="Dégradé_sans_nom_20-21" cx="616.87" cy="111.47" r="4.93" xlink:href="#Dégradé_sans_nom_20"/><radialGradient id="Dégradé_sans_nom_66-2" cx="633.17" cy="135.59" r="4.93" xlink:href="#Dégradé_sans_nom_66"/><radialGradient id="Dégradé_sans_nom_20-22" cx="654.2" cy="161.07" r="4.93" xlink:href="#Dégradé_sans_nom_20"/><radialGradient id="Dégradé_sans_nom_17-9" cx="357.04" cy="111.47" r="4.93" xlink:href="#Dégradé_sans_nom_17"/><radialGradient id="Dégradé_sans_nom_17-10" cx="237.93" cy="161.99" r="4.93" xlink:href="#Dégradé_sans_nom_17"/><radialGradient id="Dégradé_sans_nom_17-11" cx="126.56" cy="188.1" r="4.93" xlink:href="#Dégradé_sans_nom_17"/><radialGradient id="Dégradé_sans_nom_17-12" cx="224.33" cy="161.99" r="4.93" xlink:href="#Dégradé_sans_nom_17"/><radialGradient id="Dégradé_sans_nom_17-13" cx="539.68" cy="137.73" r="4.93" xlink:href="#Dégradé_sans_nom_17"/><radialGradient id="Dégradé_sans_nom_17-14" cx="586.96" cy="188.1" r="4.93" xlink:href="#Dégradé_sans_nom_17"/><clipPath id="clip-path" transform="translate(0 -8.34)"><rect x="1009.89" y="676.54" width="77.93" height="30" rx="1.1" style="fill:none"/></clipPath><style>.cls-39,.cls-4,.cls-42,.cls-5,.cls-51,.cls-58,.cls-59,.cls-63{fill:none}.cls-2{fill:#3a3a3a}.cls-3,.cls-50{fill:#488eaa}.cls-3{stroke:#adb8bc;stroke-width:4px}.cls-130,.cls-3,.cls-37,.cls-39,.cls-4,.cls-42,.cls-5,.cls-51,.cls-58,.cls-59,.cls-63,.cls-65,.cls-66,.cls-67,.cls-70,.cls-74,.cls-75{stroke-miterlimit:10}.cls-4,.cls-5{stroke:#d0eaf9;stroke-width:5px}.cls-5{stroke:#def0fa}.cls-6{fill:#eeeeef}.cls-8{fill:#848484}.cls-9{fill:#fff}.cls-10{fill:#828282}.cls-37{fill:#2e2e2e;stroke:#444;stroke-width:3px}.cls-38{fill:#4c4c4c}.cls-39{stroke:#c7c8c9;stroke-width:10px}.cls-40{fill:#2d2d2d}.cls-42,.cls-51,.cls-59,.cls-65,.cls-66,.cls-67,.cls-70,.cls-74,.cls-75{stroke:#fff}.cls-43{fill:#353535}.cls-44{fill:#6c6c6c}.cls-45{fill:#959495}.cls-46{fill:#606060}.cls-47{fill:#bfbebf}.cls-130,.cls-48{fill:#303031}.cls-51,.cls-75{stroke-width:.75px}.cls-52{fill:#81f2cc}.cls-53{fill:#80cef4}.cls-54{fill:#ed998e}.cls-55{fill:#ffba1f}.cls-56{fill:#e2e2e2}.cls-57{fill:#e5e5e5}.cls-58{stroke:#3f3f3f}.cls-58,.cls-59{stroke-width:2px}.cls-63{stroke:#1d1d1b}.cls-130,.cls-63,.cls-65,.cls-66,.cls-67,.cls-70,.cls-74{stroke-width:.5px}.cls-64{fill:#009ee2;opacity:.22}.cls-65{fill:#b5e6ea}.cls-66{fill:#acb766}.cls-67{fill:#50859a}.cls-69,.cls-75{fill:#80cde9}.cls-70{fill:#b2b2b2}.cls-72{fill:#7f7944}.cls-73,.cls-74{fill:#437b88}.cls-78{fill:#d1d1d1}.cls-79{fill:#919191}.cls-102{fill:#eef5f8}.cls-126{fill:#1e1e1e}.cls-128{fill:#4a494a}.cls-130{stroke:#a3a3a3}</style></defs><path class="cls-2" d="M682.07 2.5h728.41v1468.27H682.07z"/><path class="cls-3" d="M716.73 2.5h696.42v45.6H716.73z"/><path class="cls-4" d="M711.52 2.5h707.86"/><path class="cls-5" d="M711.52 48.1h707.86"/><path class="cls-6" d="M954.49 221.44h458.67v212.44H954.49zM716.73 221.44h231.09v413.28H716.73z"/><rect x="722.06" y="230.99" width="222.19" height="395.59" rx="14.84" style="fill:#3d3d3d"/><path class="cls-8" d="m1408.07 252.65 1 174.13c0 8.46-9.74 12.44-18.21 12.44H975.71a15.32 15.32 0 0 1-15.32-15.32l-1-174.13a15.33 15.33 0 0 1 15.32-15.33l418.06 2.88a15.33 15.33 0 0 1 15.3 15.33z" transform="translate(0 -8.34)"/><path class="cls-9" d="M716.73 640.53h696.42v147.89H716.73zM1431.32 1032.95h-730.5l15.91-240.75h696.67l17.92 240.75z"/><path class="cls-10" d="M1417 1038.74H715.35a7.49 7.49 0 0 1-7.5-7.65l12.67-219.52a7.48 7.48 0 0 1 7.5-7.27h673.31a7.48 7.48 0 0 1 7.5 7.27l15.67 219.52a7.47 7.47 0 0 1-7.5 7.65z" transform="translate(0 -8.34)"/><circle cx="739.79" cy="825.86" r="3.75" style="fill:url(#Dégradé_sans_nom_11)"/><circle cx="766.79" cy="885.52" r="3.75" style="fill:url(#Dégradé_sans_nom_11-2)"/><circle cx="779.61" cy="885.52" r="3.75" style="fill:url(#Dégradé_sans_nom_11-3)"/><circle cx="792.43" cy="885.52" r="3.75" style="fill:url(#Dégradé_sans_nom_11-4)"/><circle cx="805.25" cy="885.52" r="3.75" style="fill:url(#Dégradé_sans_nom_11-5)"/><circle cx="830.88" cy="885.52" r="3.75" style="fill:url(#Dégradé_sans_nom_11-6)"/><circle cx="842.68" cy="885.52" r="3.75" style="fill:url(#Dégradé_sans_nom_11-7)"/><circle cx="854.47" cy="885.52" r="3.75" style="fill:url(#Dégradé_sans_nom_11-8)"/><circle cx="895.12" cy="885.52" r="3.75" style="fill:url(#Dégradé_sans_nom_11-9)"/><circle cx="933.7" cy="885.52" r="3.75" style="fill:url(#Dégradé_sans_nom_11-10)"/><circle cx="752.61" cy="825.86" r="3.75" style="fill:url(#Dégradé_sans_nom_11-11)"/><circle cx="765.42" cy="825.86" r="3.75" style="fill:url(#Dégradé_sans_nom_11-12)"/><circle cx="778.24" cy="825.86" r="3.75" style="fill:url(#Dégradé_sans_nom_11-13)"/><circle cx="791.06" cy="825.86" r="3.75" style="fill:url(#Dégradé_sans_nom_11-14)"/><circle cx="803.88" cy="825.86" r="3.75" style="fill:url(#Dégradé_sans_nom_11-15)"/><circle cx="816.7" cy="825.86" r="3.75" style="fill:url(#Dégradé_sans_nom_11-16)"/><circle cx="829.52" cy="825.86" r="3.75" style="fill:url(#Dégradé_sans_nom_11-17)"/><circle cx="842.33" cy="825.86" r="3.75" style="fill:url(#Dégradé_sans_nom_11-18)"/><circle cx="855.15" cy="825.86" r="3.75" style="fill:url(#Dégradé_sans_nom_11-19)"/><circle cx="1036.41" cy="826.77" r="3.75" style="fill:url(#Dégradé_sans_nom_11-20)"/><circle cx="1231.8" cy="826.77" r="3.75" style="fill:url(#Dégradé_sans_nom_11-21)"/><circle cx="1356.31" cy="826.77" r="3.75" style="fill:url(#Dégradé_sans_nom_11-22)"/><circle cx="1356.31" cy="856.37" r="3.75" style="fill:url(#Dégradé_sans_nom_11-23)"/><circle cx="1356.31" cy="885.97" r="3.75" style="fill:url(#Dégradé_sans_nom_11-24)"/><circle cx="1356.31" cy="918.96" r="3.75" style="fill:url(#Dégradé_sans_nom_11-25)"/><circle cx="1036.41" cy="856.37" r="3.75" style="fill:url(#Dégradé_sans_nom_11-26)"/><rect class="cls-10" x="1085.56" y="114.64" width="195.48" height="445.66" rx="16.12" transform="rotate(-90 1179.13 333.3)"/><g id="BOBINES"><g id="etoile"><path class="cls-37" d="m1023 415.72-8.88-15.79a.41.41 0 0 0-.48-.18l-17.09 6a1.11 1.11 0 0 1-1.09-1.66l13.19-14.09a.4.4 0 0 0 0-.54l-11.89-13.55a1.11 1.11 0 0 1 1.24-1.55l15.08 8a.4.4 0 0 0 .44-.11l11.73-15.42a1.1 1.1 0 0 1 1.85.7l-2.21 18.05a.42.42 0 0 0 .26.41l17.49 5.15a1.1 1.1 0 0 1-.09 2l-18.6 3.21a.4.4 0 0 0-.33.42l1.29 18.44a1.11 1.11 0 0 1-1.91.51z" transform="translate(0 -8.34)"/><circle class="cls-38" cx="1017.5" cy="383.09" r="8.39"/><path class="cls-37" d="m1120.78 415.72-8.89-15.79a.4.4 0 0 0-.48-.18l-17.08 6a1.11 1.11 0 0 1-1.09-1.66l13.19-14.09a.41.41 0 0 0 0-.54l-11.9-13.55a1.11 1.11 0 0 1 1.24-1.55l15.09 8a.41.41 0 0 0 .44-.11l11.7-15.42a1.11 1.11 0 0 1 1.86.7l-2.21 18.05a.4.4 0 0 0 .26.41l17.49 5.15a1.11 1.11 0 0 1-.09 2l-18.6 3.21a.39.39 0 0 0-.33.42l1.28 18.44a1.1 1.1 0 0 1-1.88.51z" transform="translate(0 -8.34)"/><circle class="cls-38" cx="1115.28" cy="383.09" r="8.39"/></g><circle id="BOBINE" class="cls-39" cx="1115.4" cy="383.09" r="30"/><circle id="BOBINE_1" data-name="BOBINE 1" class="cls-39" cx="1016.98" cy="383.09" r="30"/><g id="bidule_bobine" data-name="bidule bobine"><path class="cls-40" d="M1046.78 292.48h40.63v47.67h-40.63z"/><path class="cls-2" d="m1078.24 299.25 9.17 1.57v47.67h43.12c0-30.06-16.91-53.39-49.84-55.46zM1046.78 301.67l8.9-2.45-2.1-6.19c-32.73 2.25-49.92 25.53-49.92 55.46h43.12z" transform="translate(0 -8.34)"/><path class="cls-2" d="m1076.82 293.75-9.5-5.11-9.51 5.11v38.21h19.01v-38.21z"/></g></g><g id="BOBINES-2" data-name="BOBINES"><g id="etoile-2" data-name="etoile"><path class="cls-37" d="m1255.3 415.72-8.89-15.79a.4.4 0 0 0-.48-.18l-17.08 6a1.11 1.11 0 0 1-1.09-1.66L1241 390a.41.41 0 0 0 0-.54l-11.9-13.55a1.11 1.11 0 0 1 1.24-1.55l15.08 8a.42.42 0 0 0 .45-.11l11.72-15.42a1.11 1.11 0 0 1 1.86.7l-2.21 18.05a.4.4 0 0 0 .26.41l17.49 5.15a1.11 1.11 0 0 1-.09 2l-18.6 3.21a.39.39 0 0 0-.33.42l1.28 18.44a1.1 1.1 0 0 1-1.95.51z" transform="translate(0 -8.34)"/><circle class="cls-38" cx="1249.8" cy="383.09" r="8.39"/><path class="cls-37" d="m1353.07 415.72-8.88-15.79a.4.4 0 0 0-.48-.18l-17.08 6a1.11 1.11 0 0 1-1.09-1.66l13.19-14.09a.41.41 0 0 0 0-.54l-11.9-13.55a1.11 1.11 0 0 1 1.24-1.55l15.08 8a.42.42 0 0 0 .45-.11l11.72-15.42a1.11 1.11 0 0 1 1.86.7l-2.18 18.05a.39.39 0 0 0 .26.41l17.49 5.15a1.11 1.11 0 0 1-.09 2l-18.66 3.19a.4.4 0 0 0-.33.42l1.29 18.44a1.11 1.11 0 0 1-1.89.53z" transform="translate(0 -8.34)"/><circle class="cls-38" cx="1347.57" cy="383.09" r="8.39"/></g><circle id="BOBINE-2" data-name="BOBINE" class="cls-39" cx="1347.69" cy="383.09" r="30"/><circle id="BOBINE_1-2" data-name="BOBINE 1" class="cls-39" cx="1249.28" cy="383.09" r="30"/><g id="bidule_bobine-2" data-name="bidule bobine"><path class="cls-40" d="M1278.08 292.48h40.63v47.67h-40.63z"/><path class="cls-2" d="m1309.54 299.25 9.17 1.57v47.67h43.12c0-30.06-16.91-53.39-49.85-55.46zM1278.08 301.67l8.89-2.45-2.1-6.19c-32.73 2.25-49.92 25.53-49.92 55.46h43.13z" transform="translate(0 -8.34)"/><path style="fill:#727272" d="m1308.12 293.75-9.51-5.11-9.5 5.11v38.21h19.01v-38.21z"/></g></g><g id="BTNs"><rect class="cls-42" x="985.04" y="237.77" width="169.45" height="40.44" rx="3.08"/><g id="BTN_1" data-name="BTN 1"><path class="cls-43" d="M1010.08 281.22h-6.21a1.29 1.29 0 0 1-1.28-1.15l-1.1-10.77v-16.74h11.11v16.74l-1.24 10.79a1.29 1.29 0 0 1-1.28 1.13z" transform="translate(0 -8.34)"/><path class="cls-44" d="M1002.19 260.62v-15.48h9.63v15.48"/><path class="cls-45" d="m1004.26 254.25-2.07-9.11h9.63l-2.07 9.11h-5.49z"/><path class="cls-46" d="M1002.19 269h9.63l-1.37-7.12a1.67 1.67 0 0 0-1.63-1.35h-3.44a1.66 1.66 0 0 0-1.62 1.31z" transform="translate(0 -8.34)"/><path class="cls-47" d="m1011.86 269.3-1 10a1.34 1.34 0 0 1-1.34 1.29h-5.05a1.34 1.34 0 0 1-1.34-1.29l-.95-10z" transform="translate(0 -8.34)"/></g><g id="BTN_1-2" data-name="BTN 1"><path class="cls-43" d="M1105.19 252.56h6.21a1.28 1.28 0 0 1 1.28 1.15l1.1 10.77v16.74h-11.11v-16.74l1.24-10.79a1.28 1.28 0 0 1 1.28-1.13z" transform="translate(0 -8.34)"/><path class="cls-44" d="M1113.08 256.47v15.48h-9.63v-15.48"/><path class="cls-46" d="m1111.01 262.84 2.07 9.11h-9.63l2.07-9.11h5.49z"/><path class="cls-47" d="M1113.08 264.81h-9.63l1.37 7.13a1.65 1.65 0 0 0 1.63 1.34h3.44a1.65 1.65 0 0 0 1.62-1.3z" transform="translate(0 -8.34)"/><path class="cls-8" d="m1103.41 264.48.95-10a1.34 1.34 0 0 1 1.34-1.29h5a1.34 1.34 0 0 1 1.34 1.29l1 10z" transform="translate(0 -8.34)"/></g><g id="BTN_1-3" data-name="BTN 1"><path class="cls-43" d="M1133.78 252.56h6.22a1.28 1.28 0 0 1 1.27 1.15l1.11 10.77v16.74h-11.12v-16.74l1.24-10.79a1.29 1.29 0 0 1 1.28-1.13z" transform="translate(0 -8.34)"/><path class="cls-44" d="M1141.67 256.47v15.48h-9.63v-15.48"/><path class="cls-46" d="m1139.6 262.84 2.07 9.11h-9.63l2.08-9.11h5.48z"/><path class="cls-47" d="M1141.67 264.81H1132l1.37 7.13a1.66 1.66 0 0 0 1.63 1.34h3.44a1.67 1.67 0 0 0 1.63-1.3z" transform="translate(0 -8.34)"/><path class="cls-8" d="m1132 264.48 1-10a1.33 1.33 0 0 1 1.33-1.29h5.06a1.33 1.33 0 0 1 1.33 1.29l1 10z" transform="translate(0 -8.34)"/></g><rect class="cls-48" x="1047.67" y="246.33" width="22.81" height="18.81" rx="3.48"/></g><g id="BTNs-2" data-name="BTNs"><rect class="cls-42" x="1218.69" y="237.77" width="169.45" height="40.44" rx="3.08"/><g id="BTN_1-4" data-name="BTN 1"><path class="cls-43" d="M1243.73 281.22h-6.21a1.29 1.29 0 0 1-1.28-1.15l-1.1-10.77v-16.74h11.11v16.74l-1.25 10.79a1.29 1.29 0 0 1-1.27 1.13z" transform="translate(0 -8.34)"/><path class="cls-44" d="M1235.84 260.62v-15.48h9.63v15.48"/><path class="cls-45" d="m1237.91 254.25-2.07-9.11h9.63l-2.08 9.11h-5.48z"/><path class="cls-46" d="M1235.84 269h9.63l-1.37-7.12a1.67 1.67 0 0 0-1.63-1.35H1239a1.66 1.66 0 0 0-1.62 1.31z" transform="translate(0 -8.34)"/><path class="cls-47" d="m1245.51 269.3-1 10a1.33 1.33 0 0 1-1.33 1.29h-5a1.34 1.34 0 0 1-1.34-1.29l-.95-10z" transform="translate(0 -8.34)"/></g><g id="BTN_1-5" data-name="BTN 1"><path class="cls-43" d="M1338.84 252.56h6.21a1.28 1.28 0 0 1 1.28 1.15l1.1 13.77-2 13.74h-7.11l-2-13.74 1.24-13.79a1.28 1.28 0 0 1 1.28-1.13z" transform="translate(0 -8.34)"/><path class="cls-47" d="M1346.73 268.41h-9.63l1.37 9.9c.15 1.3.83 2.25 1.63 2.25h3.44c.78 0 1.46-.91 1.62-2.19z" transform="translate(0 -8.34)"/><path class="cls-8" d="m1337.06 267.48 1-13a1.34 1.34 0 0 1 1.34-1.29h5.05a1.34 1.34 0 0 1 1.34 1.29l1 13z" transform="translate(0 -8.34)"/></g><g id="BTN_1-6" data-name="BTN 1"><path class="cls-43" d="M1367.43 252.56h6.21a1.28 1.28 0 0 1 1.28 1.15l1.1 10.77v16.74h-11.11v-16.74l1.24-10.79a1.29 1.29 0 0 1 1.28-1.13z" transform="translate(0 -8.34)"/><path class="cls-44" d="M1375.32 256.47v15.48h-9.63v-15.48"/><path class="cls-46" d="m1373.25 262.84 2.07 9.11h-9.63l2.08-9.11h5.48z"/><path class="cls-47" d="M1375.32 264.81h-9.63l1.37 7.13a1.66 1.66 0 0 0 1.63 1.34h3.44a1.65 1.65 0 0 0 1.62-1.3z" transform="translate(0 -8.34)"/><path class="cls-8" d="m1365.65 264.48 1-10a1.33 1.33 0 0 1 1.33-1.29h5.02a1.33 1.33 0 0 1 1.33 1.29l1 10z" transform="translate(0 -8.34)"/></g><rect class="cls-48" x="1281.32" y="246.33" width="22.81" height="18.81" rx="3.48"/></g><rect x="721.79" y="645.78" width="685.09" height="138.86" rx="11.64" style="fill:#707070"/><rect class="cls-50" x="721.79" y="1075.4" width="685.09" height="388.7" rx="1.64"/><g id="_Groupe_bleus_0" data-name="&lt;Groupe&gt;bleus 0"><path class="cls-52" d="M740.79 669.15h12.76v11.88h-12.76z" id="BTN_BLEU" data-name="BTN BLEU"/><path class="cls-53" d="M756.19 669.15h12.76v11.88h-12.76z" id="BTN_BLEU-2" data-name="BTN BLEU"/><path class="cls-52" d="M771.6 669.15h12.76v11.88H771.6z" id="BTN_BLEU-3" data-name="BTN BLEU"/><path class="cls-52" d="M787 669.15h12.76v11.88H787z" id="BTN_BLEU-4" data-name="BTN BLEU"/><path class="cls-53" d="M802.41 669.15h12.76v11.88h-12.76z" id="BTN_BLEU-5" data-name="BTN BLEU"/><path class="cls-52" d="M817.81 669.15h12.76v11.88h-12.76z" id="BTN_BLEU-6" data-name="BTN BLEU"/><path class="cls-52" d="M833.22 669.15h12.76v11.88h-12.76z" id="BTN_BLEU-7" data-name="BTN BLEU"/><path class="cls-53" d="M848.62 669.15h12.76v11.88h-12.76z" id="BTN_BLEU-8" data-name="BTN BLEU"/><path class="cls-53" d="M864.03 669.15h12.76v11.88h-12.76z" id="BTN_BLEU-9" data-name="BTN BLEU"/></g><g id="_Groupe_bleus_0-2" data-name="&lt;Groupe&gt;bleus 0"><path class="cls-53" d="M756.19 708.01h12.76v11.88h-12.76z" id="BTN_BLEU-10" data-name="BTN BLEU"/><path class="cls-53" d="M740.79 708.01h12.76v11.88h-12.76z" id="BTN_BLEU-11" data-name="BTN BLEU"/><path class="cls-52" d="M771.6 708.01h12.76v11.88H771.6z" id="BTN_BLEU-12" data-name="BTN BLEU"/><path class="cls-52" d="M787 708.01h12.76v11.88H787z" id="BTN_BLEU-13" data-name="BTN BLEU"/><path class="cls-53" d="M802.41 708.01h12.76v11.88h-12.76z" id="BTN_BLEU-14" data-name="BTN BLEU"/><path class="cls-53" d="M817.81 708.01h12.76v11.88h-12.76z" id="BTN_BLEU-15" data-name="BTN BLEU"/><path class="cls-52" d="M833.22 708.01h12.76v11.88h-12.76z" id="BTN_BLEU-16" data-name="BTN BLEU"/><path class="cls-53" d="M848.62 708.01h12.76v11.88h-12.76z" id="BTN_BLEU-17" data-name="BTN BLEU"/><path class="cls-53" d="M864.03 708.01h12.76v11.88h-12.76z" id="BTN_BLEU-18" data-name="BTN BLEU"/></g><g id="_Groupe_bleus_0-3" data-name="&lt;Groupe&gt;bleus 0"><path class="cls-54" d="M787.39 748.36h12.76v11.88h-12.76z" id="BTN_BLEU-19" data-name="BTN BLEU"/><path class="cls-53" d="M771.99 748.36h12.76v11.88h-12.76z" id="BTN_BLEU-20" data-name="BTN BLEU"/><path class="cls-52" d="M802.8 748.36h12.76v11.88H802.8z" id="BTN_BLEU-21" data-name="BTN BLEU"/><path class="cls-55" d="M818.21 748.36h12.76v11.88h-12.76z" id="BTN_BLEU-22" data-name="BTN BLEU"/><path class="cls-54" d="M1177.15 762.77h12.76v11.88h-12.76z" id="BTN_BLEU-23" data-name="BTN BLEU"/><path class="cls-53" d="M1161.75 762.77h12.76v11.88h-12.76z" id="BTN_BLEU-24" data-name="BTN BLEU"/><path class="cls-52" d="M1192.56 762.77h12.76v11.88h-12.76z" id="BTN_BLEU-25" data-name="BTN BLEU"/><path class="cls-55" d="M1207.96 762.77h12.76v11.88h-12.76z" id="BTN_BLEU-26" data-name="BTN BLEU"/><path class="cls-55" d="M833.61 748.36h12.76v11.88h-12.76z" id="BTN_BLEU-27" data-name="BTN BLEU"/><path class="cls-53" d="M849.02 748.36h12.76v11.88h-12.76z" id="BTN_BLEU-28" data-name="BTN BLEU"/><path class="cls-52" d="M864.42 748.36h12.76v11.88h-12.76z" id="BTN_BLEU-29" data-name="BTN BLEU"/></g><g id="_Groupe_bleus_0-4" data-name="&lt;Groupe&gt;bleus 0"><path class="cls-52" d="M993.26 950.18h12.76v11.88h-12.76z" id="BTN_BLEU-30" data-name="BTN BLEU"/><path class="cls-53" d="M1015.83 950.18h12.76v11.88h-12.76z" id="BTN_BLEU-31" data-name="BTN BLEU"/><path class="cls-52" d="M1038.4 950.18h12.76v11.88h-12.76z" id="BTN_BLEU-32" data-name="BTN BLEU"/><path class="cls-56" d="M1060.98 950.18h12.76v11.88h-12.76z" id="BTN_BLEU-33" data-name="BTN BLEU"/><path class="cls-56" d="M1083.55 950.18h12.76v11.88h-12.76z" id="BTN_BLEU-34" data-name="BTN BLEU"/><path class="cls-56" d="M1106.12 950.18h12.76v11.88h-12.76z" id="BTN_BLEU-35" data-name="BTN BLEU"/><path class="cls-53" d="M1128.7 950.18h12.76v11.88h-12.76z" id="BTN_BLEU-36" data-name="BTN BLEU"/><path class="cls-52" d="M1151.91 950.18h12.76v11.88h-12.76z" id="BTN_BLEU-37" data-name="BTN BLEU"/><path class="cls-52" d="M1175.78 950.18h12.76v11.88h-12.76z" id="BTN_BLEU-38" data-name="BTN BLEU"/><path class="cls-52" d="M1199.64 950.18h12.76v11.88h-12.76z" id="BTN_BLEU-39" data-name="BTN BLEU"/><path class="cls-52" d="M1247.37 950.18h12.76v11.88h-12.76z" id="BTN_BLEU-40" data-name="BTN BLEU"/><path class="cls-52" d="M1271.24 950.18H1284v11.88h-12.76z" id="BTN_BLEU-41" data-name="BTN BLEU"/><path class="cls-52" d="M1295.1 950.18h12.76v11.88h-12.76z" id="BTN_BLEU-42" data-name="BTN BLEU"/><path class="cls-52" d="M1318.97 950.18h12.76v11.88h-12.76z" id="BTN_BLEU-43" data-name="BTN BLEU"/><path class="cls-52" d="M1342.83 950.18h12.76v11.88h-12.76z" id="BTN_BLEU-44" data-name="BTN BLEU"/><path class="cls-57" d="M1224.11 950.18h12.76v11.88h-12.76z" id="BTN_BLEU-45" data-name="BTN BLEU"/></g><g id="_Groupe_bleus_0-5" data-name="&lt;Groupe&gt;bleus 0"><path class="cls-53" d="M732.33 978.65h12.76v11.88h-12.76z" id="BTN_BLEU-46" data-name="BTN BLEU"/><path class="cls-56" d="M754.9 978.65h12.76v11.88H754.9z" id="BTN_BLEU-47" data-name="BTN BLEU"/><path class="cls-56" d="M777.47 978.65h12.76v11.88h-12.76z" id="BTN_BLEU-48" data-name="BTN BLEU"/><path class="cls-56" d="M800.05 978.65h12.76v11.88h-12.76z" id="BTN_BLEU-49" data-name="BTN BLEU"/><path class="cls-52" d="M822.62 978.65h12.76v11.88h-12.76z" id="BTN_BLEU-50" data-name="BTN BLEU"/><path class="cls-53" d="M845.19 978.65h12.76v11.88h-12.76z" id="BTN_BLEU-51" data-name="BTN BLEU"/><path class="cls-53" d="M867.77 978.65h12.76v11.88h-12.76z" id="BTN_BLEU-52" data-name="BTN BLEU"/><path class="cls-52" d="M890.99 978.65h12.76v11.88h-12.76z" id="BTN_BLEU-53" data-name="BTN BLEU"/><path class="cls-52" d="M914.85 978.65h12.76v11.88h-12.76z" id="BTN_BLEU-54" data-name="BTN BLEU"/><path class="cls-53" d="M938.71 978.65h12.76v11.88h-12.76z" id="BTN_BLEU-55" data-name="BTN BLEU"/><path class="cls-56" d="M986.44 978.65h12.76v11.88h-12.76z" id="BTN_BLEU-56" data-name="BTN BLEU"/><path class="cls-56" d="M1010.31 978.65h12.76v11.88h-12.76z" id="BTN_BLEU-57" data-name="BTN BLEU"/><path class="cls-53" d="M1034.17 978.65h12.76v11.88h-12.76z" id="BTN_BLEU-58" data-name="BTN BLEU"/><path class="cls-52" d="M1058.04 978.65h12.76v11.88h-12.76z" id="BTN_BLEU-59" data-name="BTN BLEU"/><path class="cls-52" d="M1081.9 978.65h12.76v11.88h-12.76z" id="BTN_BLEU-60" data-name="BTN BLEU"/><path class="cls-54" d="M963.18 978.65h12.76v11.88h-12.76z" id="BTN_BLEU-61" data-name="BTN BLEU"/></g><g id="_Groupe_bleus_0-6" data-name="&lt;Groupe&gt;bleus 0"><path class="cls-53" d="M1106.2 978.65h12.76v11.88h-12.76z" id="BTN_BLEU-62" data-name="BTN BLEU"/><path class="cls-53" d="M1128.78 978.65h12.76v11.88h-12.76z" id="BTN_BLEU-63" data-name="BTN BLEU"/><path class="cls-52" d="M1151.35 978.65h12.76v11.88h-12.76z" id="BTN_BLEU-64" data-name="BTN BLEU"/><path class="cls-53" d="M1173.92 978.65h12.76v11.88h-12.76z" id="BTN_BLEU-65" data-name="BTN BLEU"/><path class="cls-56" d="M1196.5 978.65h12.76v11.88h-12.76z" id="BTN_BLEU-66" data-name="BTN BLEU"/><path class="cls-56" d="M1219.07 978.65h12.76v11.88h-12.76z" id="BTN_BLEU-67" data-name="BTN BLEU"/><path class="cls-53" d="M1241.64 978.65h12.76v11.88h-12.76z" id="BTN_BLEU-68" data-name="BTN BLEU"/><path class="cls-56" d="M1264.86 978.65h12.76v11.88h-12.76z" id="BTN_BLEU-69" data-name="BTN BLEU"/><path class="cls-56" d="M1288.72 978.65h12.76v11.88h-12.76z" id="BTN_BLEU-70" data-name="BTN BLEU"/><path class="cls-52" d="M1312.59 978.65h12.76v11.88h-12.76z" id="BTN_BLEU-71" data-name="BTN BLEU"/><path class="cls-57" d="M1337.05 978.65h12.76v11.88h-12.76z" id="BTN_BLEU-72" data-name="BTN BLEU"/></g><g id="_Groupe_bleus_0-7" data-name="&lt;Groupe&gt;bleus 0"><path class="cls-56" d="M907.12 1013.17h12.76v11.88h-12.76z" id="BTN_BLEU-73" data-name="BTN BLEU"/><path class="cls-56" d="M929.69 1013.17h12.76v11.88h-12.76z" id="BTN_BLEU-74" data-name="BTN BLEU"/><path class="cls-52" d="M952.26 1013.17h12.76v11.88h-12.76z" id="BTN_BLEU-75" data-name="BTN BLEU"/><path class="cls-56" d="M997.41 1013.17h12.76v11.88h-12.76z" id="BTN_BLEU-76" data-name="BTN BLEU"/><path class="cls-53" d="M1019.98 1013.17h12.76v11.88h-12.76z" id="BTN_BLEU-77" data-name="BTN BLEU"/><path class="cls-53" d="M1042.55 1013.17h12.76v11.88h-12.76z" id="BTN_BLEU-78" data-name="BTN BLEU"/><path class="cls-52" d="M1089.64 1013.17h12.76v11.88h-12.76z" id="BTN_BLEU-79" data-name="BTN BLEU"/><path class="cls-56" d="M1113.5 1013.17h12.76v11.88h-12.76z" id="BTN_BLEU-80" data-name="BTN BLEU"/><path class="cls-52" d="M1161.23 1013.17h12.76v11.88h-12.76z" id="BTN_BLEU-81" data-name="BTN BLEU"/><path class="cls-53" d="M1185.09 1013.17h12.76v11.88h-12.76z" id="BTN_BLEU-82" data-name="BTN BLEU"/><path class="cls-53" d="M1208.96 1013.17h12.76v11.88h-12.76z" id="BTN_BLEU-83" data-name="BTN BLEU"/><path class="cls-52" d="M1232.82 1013.17h12.76v11.88h-12.76z" id="BTN_BLEU-84" data-name="BTN BLEU"/><path class="cls-53" d="M1256.69 1013.17h12.76v11.88h-12.76z" id="BTN_BLEU-85" data-name="BTN BLEU"/><path class="cls-57" d="M1137.96 1013.17h12.76v11.88h-12.76z" id="BTN_BLEU-86" data-name="BTN BLEU"/></g><path class="cls-42" d="M888.26 655.98h49.33v118.67h-49.33zM947.82 655.98h204.89v118.67H947.82zM1230.49 655.98h154.54v118.67h-154.54zM1161.15 655.98h60.44v77.33h-60.44z"/><g id="potard"><circle class="cls-43" cx="984.04" cy="728.18" r="18.52"/><path class="cls-59" d="m971.6 714.47 6.59 7.06"/></g><g id="garduation"><path class="cls-42" d="M1114.11 707.83v-6.82M1095.91 719.5l-5.34-2.55M1132.63 719.5l5.35-2.55M1098.92 714.14l-4.21-3.9M1102.54 710.78l-3.2-4.8M1108.17 708.49l-1.76-5.92M1129.08 714.28l4.21-3.89M1125.46 710.92l3.2-4.8M1119.83 708.64l1.76-5.93"/></g><g id="potard-2" data-name="potard"><circle class="cls-43" cx="1114.11" cy="728.18" r="18.52"/><path class="cls-59" d="m1111.43 709.67 1.24 8.55"/></g><g id="garduation-2" data-name="garduation"><path class="cls-42" d="m1257.14 714.14-4.21-3.9M1266.39 708.49l-1.76-5.92M1287.3 714.28l4.21-3.89M1278.05 708.64l1.76-5.93"/></g><g id="potard-3" data-name="potard"><circle class="cls-43" cx="1272.34" cy="728.18" r="18.52"/><path class="cls-59" d="m1289.32 720.34-7.85 3.62"/></g><g id="garduation-3" data-name="garduation"><path class="cls-42" d="m1323.71 714.14-4.21-3.9M1332.95 708.49l-1.76-5.92M1353.86 714.28l4.21-3.89M1344.61 708.64l1.77-5.93"/></g><g id="potard-4" data-name="potard"><circle class="cls-43" cx="1338.9" cy="728.18" r="18.52"/><path class="cls-59" d="m1349.5 712.77-4.9 7.12"/></g><rect class="cls-9" x="1009.89" y="670.44" width="77.93" height="27.76" rx="1.06"/><path d="M1018.78 692.17s11.41-8.58 30.08-8.58 28.89 8.58 28.89 8.58" transform="translate(0 -8.34)" style="stroke:#1d1d1b;stroke-width:.75px;stroke-miterlimit:10;fill:none"/><g style="clip-path:url(#clip-path)"><path style="stroke:#1d1d1b;stroke-miterlimit:10;fill:none" d="m1023.38 677.64 23.77 26.23"/></g><path class="cls-63" d="M1048.86 672.53v5.11M1052.81 677.06l.22-3.33M1045.2 677.05l-.38-3.31M1041.54 677.36l-.38-3.31M1038.51 677.81l-.82-3.24M1035.51 678.57l-.98-3.19M1032.51 679.31l-1.24-3.09M1056.04 677.36l.38-3.31M1059.07 677.81l.82-3.24M1062.07 678.57l.99-3.19M1065.08 679.31l1.23-3.09"/><path class="cls-64" d="M1039.38 698.2h-11.56l22.44-27.78h11.12"/><g id="test_btn" data-name="test btn"><path class="cls-65" d="M754.02 654.09h14.33v5.61h-14.33zM785.49 659.7h45.78v5.61h-45.78zM816.01 654.09h29.58v5.61h-29.58z"/><path class="cls-51" d="M875.63 673.65v-8a3.21 3.21 0 0 0-3.21-3.2H743.84a3.21 3.21 0 0 0-3.21 3.2v8" transform="translate(0 -8.34)"/><path class="cls-51" d="M740.63 659.7h134.53"/></g><g id="test_btn-2" data-name="test btn"><path class="cls-66" d="M907.22 996.49h10.53v6.7h-11.82v-5.41a1.29 1.29 0 0 1 1.29-1.29zM953.19 996.49h13.24v6.7h-13.24z"/><path class="cls-67" d="M917.75 996.49h11.81v6.7h-11.81z"/><path class="cls-66" d="M930.47 999.84h10.91v3.35h-11.83v-2.44a.91.91 0 0 1 .92-.91z"/><path class="cls-67" d="M941.37 999.84h11.81v3.35h-11.81z"/><path class="cls-66" d="M929.56 996.49h23.62v3h-23.62z"/><path class="cls-51" d="M966.43 1009.89v-13.4h-60.5v13.4M905.93 1003.19h60.5"/></g><path d="M1076.49 678.76h10.27a1.06 1.06 0 0 1 1.06 1.06v25.66a1.05 1.05 0 0 1-1.06 1.06h-31.83" transform="translate(0 -8.34)" style="fill:#00e085;opacity:.22"/><path class="cls-64" d="M1020 706.54h-9a1.06 1.06 0 0 1-1.06-1.06v-25.66a1.07 1.07 0 0 1 1.06-1.06h32.65z" transform="translate(0 -8.34)"/><g id="test_btn-3" data-name="test btn"><path class="cls-66" d="M994.68 996.49h11.24v6.7h-12.57v-5.37a1.33 1.33 0 0 1 1.33-1.33zM1043.61 996.49h12.57v6.7h-12.57z"/><path class="cls-67" d="M1005.93 996.49h12.56v6.7h-12.56z"/><path class="cls-66" d="M1019.42 999.84H1031v3.35h-12.57v-2.41a.94.94 0 0 1 .99-.94z"/><path class="cls-67" d="M1031.05 999.84h12.56v3.35h-12.56z"/><path class="cls-66" d="M1018.49 996.49h25.12v3h-25.12z"/><path class="cls-51" d="M1056.18 1009.89v-13.4h-62.83v13.4M993.35 1003.19h62.83"/></g><g id="test_btn-4" data-name="test btn"><path class="cls-66" d="M1091.24 996.49h16.66v6.7h-18.26v-5.1a1.6 1.6 0 0 1 1.6-1.6zM1162.66 996.49h18.26v6.7h-18.26z"/><path class="cls-67" d="M1107.9 996.49h18.25v6.7h-18.25zM1181.46 996.49h18.25v6.7h-18.25z"/><path class="cls-66" d="M1199.44 996.49h18.26v6.7h-18.26z"/><path class="cls-67" d="M1218.24 996.49h18.25v6.7h-18.25z"/><path class="cls-66" d="M1237.14 996.49h18.26v6.7h-18.26z"/><path class="cls-67" d="M1255.94 996.49h18.25v6.7h-18.25z"/><path class="cls-66" d="M1127.27 999.84h17.13v3.35h-18.26V1001a1.13 1.13 0 0 1 1.13-1.16z"/><path class="cls-67" d="M1144.4 999.84h18.25v3.35h-18.25z"/><path class="cls-66" d="M1126.16 996.49h36.5v3h-36.5z"/><path class="cls-51" d="M1274.1 1009.89v-13.4h-184.46v13.4M1089.64 1003.19h184.56"/></g><g id="test_btn-5" data-name="test btn"><path class="cls-69" d="M1006.82 932.71h14.69v5.75h-14.69zM1039.06 938.46h46.9v5.75h-46.9z"/><path class="cls-69" d="M1070.33 932.71h292.37a3 3 0 0 1 3 3v2.77h-295.37v-5.77z"/><path class="cls-51" d="M1365.68 952.55v-8.22a3.28 3.28 0 0 0-3.28-3.28h-366a3.28 3.28 0 0 0-3.28 3.28v8.22" transform="translate(0 -8.34)"/><path class="cls-51" d="M993.11 938.46h372.1"/></g><g id="test_btn-6" data-name="test btn"><path class="cls-65" d="M754.02 695.31h14.33v5.61h-14.33zM785.49 700.92h45.78v5.61h-45.78zM816.01 695.31h29.58v5.61h-29.58z"/><path class="cls-51" d="M875.63 714.87v-8a3.21 3.21 0 0 0-3.21-3.21H743.84a3.21 3.21 0 0 0-3.21 3.21v8" transform="translate(0 -8.34)"/><path class="cls-51" d="M740.63 700.92h134.53"/></g><g id="test_btn-7" data-name="test btn"><path class="cls-65" d="M783.61 735.26h14.33v5.61h-14.33zM815.08 740.87h45.78v5.61h-45.78z"/><path class="cls-70" d="M845.6 735.26h27.26a2.32 2.32 0 0 1 2.32 2.32v3.3H845.6v-5.62z"/><path class="cls-51" d="M875.63 754.82v-8a3.21 3.21 0 0 0-3.21-3.2h-99a3.2 3.2 0 0 0-3.2 3.2v8" transform="translate(0 -8.34)"/><path class="cls-51" d="M770.23 740.87h104.93"/></g><g id="test_btn-8" data-name="test btn"><path class="cls-70" d="M1167.55 746.71h8.42v5.61h-8.42zM1186.04 752.32h26.89v5.61h-26.89zM1204 746.71h15.6a1.77 1.77 0 0 1 1.77 1.77v3.84H1204v-5.61z"/><path class="cls-51" d="M1221.61 766.27v-8c0-1.77-.84-3.2-1.88-3.2h-58.16c-1 0-1.88 1.43-1.88 3.2v8" transform="translate(0 -8.34)"/><path class="cls-51" d="M1159.69 752.32h61.65"/></g><path style="fill:#151515" d="M1167.55 682.04h47.37v12.61h-47.37z"/><g id="trait_btn_console" data-name="trait btn console"><path class="cls-9" d="M731.95 813.76h130.38v7.4H731.95z"/><path class="cls-72" d="M734.35 815.81h10.87v3.64h-10.87zM747.17 815.81h10.87v3.64h-10.87zM759.99 815.81h10.87v3.64h-10.87zM772.81 815.81h10.87v3.64h-10.87zM785.63 815.81h10.87v3.64h-10.87zM798.45 815.81h10.87v3.64h-10.87zM811.26 815.81h10.87v3.64h-10.87zM824.08 815.81h10.87v3.64h-10.87zM836.9 815.81h10.87v3.64H836.9zM849.72 815.81h10.87v3.64h-10.87z"/></g><g id="trait_btn_console-2" data-name="trait btn console"><path class="cls-9" d="M731.95 873.56h130.38v6.67H731.95z"/><path class="cls-69" d="M734.35 874.89h10.87v3.64h-10.87zM747.17 874.89h11.84v3.64h-11.84zM760.97 874.89h10.87v3.64h-10.87z"/><path class="cls-73" d="M773.78 874.89h24.66v3.64h-24.66z"/><path class="cls-69" d="M799.42 874.89h10.87v3.64h-10.87z"/><path class="cls-73" d="M811.78 874.89h10.87v3.64h-10.87zM824.08 874.89h10.87v3.64h-10.87z"/><path class="cls-69" d="M836.9 874.89h10.87v3.64H836.9zM849.72 874.89h10.87v3.64h-10.87z"/></g><g id="trait_btn_console-3" data-name="trait btn console"><path class="cls-9" d="M1258.97 873.56h105.07v6.67h-105.07z"/><path class="cls-69" d="M1261.38 874.89h10.87v3.64h-10.87zM1274.2 874.89h11.84v3.64h-11.84zM1287.99 874.89h10.87v3.64h-10.87z"/><path class="cls-73" d="M1300.81 874.89h24.66v3.64h-24.66z"/><path class="cls-69" d="M1326.44 874.89h10.87v3.64h-10.87z"/><path class="cls-73" d="M1338.81 874.89h10.87v3.64h-10.87zM1351.11 874.89h10.87v3.64h-10.87z"/></g><g id="trait_btn_console-4" data-name="trait btn console"><path class="cls-9" d="M859.32 873.56H989.7v6.67H859.32z"/><path class="cls-69" d="M861.73 874.89h10.87v3.64h-10.87zM874.55 874.89h11.84v3.64h-11.84zM888.34 874.89h10.87v3.64h-10.87z"/><path class="cls-73" d="M901.16 874.89h24.66v3.64h-24.66z"/><path class="cls-69" d="M926.8 874.89h10.87v3.64H926.8z"/><path class="cls-73" d="M939.16 874.89h10.87v3.64h-10.87zM951.46 874.89h10.87v3.64h-10.87z"/><path class="cls-69" d="M964.28 874.89h10.87v3.64h-10.87zM977.1 874.89h10.87v3.64H977.1z"/></g><g id="trait_btn_console-5" data-name="trait btn console"><path class="cls-9" d="M994.04 873.56h130.38v6.67H994.04z"/><path class="cls-69" d="M996.45 874.89h10.87v3.64h-10.87zM1009.26 874.89h11.84v3.64h-11.84z"/><path class="cls-73" d="M1023.06 874.89h10.87v3.64h-10.87z"/><path class="cls-74" d="M1027.91 938.65h10.87v5.37h-10.87zM1118.98 938.65h10.87v5.37h-10.87zM1129.85 938.65h26.81v5.37h-26.81z"/><path class="cls-74" d="M1156.65 938.65h10.87v5.37h-10.87z"/><path class="cls-75" d="M1086.17 938.46h10.87v5.37h-10.87zM1097.04 938.46h10.87v5.37h-10.87zM1107.91 938.46h10.87v5.37h-10.87z"/><path class="cls-74" d="M1223.94 938.65h10.87v5.37h-10.87z"/><path class="cls-74" d="M1234.8 938.65h26.81v5.37h-26.81zM1261.61 938.65h10.87v5.37h-10.87z"/><path class="cls-75" d="M1167.52 938.46h45.34v5.37h-45.34zM1212.86 938.46h10.87v5.37h-10.87zM1295.9 938.46h45.34v5.37h-45.34zM1341.24 938.46h10.87v5.37h-10.87z"/><path class="cls-74" d="M1017.05 938.65h10.87v5.37h-10.87z"/><path class="cls-74" d="M1006.18 938.65h10.87v5.37h-10.87z"/><path style="fill:#80cde9;stroke-width:.5px;stroke:#fff;stroke-miterlimit:10" d="M993.11 938.65h13.07v5.37h-13.07z"/><path class="cls-69" d="M1035.88 874.89h24.66v3.64h-24.66zM1061.51 874.89h10.87v3.64h-10.87z"/><path class="cls-73" d="M1073.87 874.89h10.87v3.64h-10.87zM1086.17 874.89h10.87v3.64h-10.87z"/><path class="cls-69" d="M1098.99 874.89h10.87v3.64h-10.87zM1111.81 874.89h10.87v3.64h-10.87z"/></g><g id="trait_btn_console-6" data-name="trait btn console"><path class="cls-9" d="M1121.42 873.56h130.38v6.67h-130.38z"/><path class="cls-73" d="M1123.82 874.89h10.87v3.64h-10.87z"/><path class="cls-69" d="M1136.64 874.89h11.84v3.64h-11.84zM1150.44 874.89h10.87v3.64h-10.87z"/><path class="cls-73" d="M1163.25 874.89h24.66v3.64h-24.66z"/><path class="cls-69" d="M1188.89 874.89h10.87v3.64h-10.87z"/><path class="cls-73" d="M1201.25 874.89h10.87v3.64h-10.87zM1213.55 874.89h10.87v3.64h-10.87z"/><path class="cls-69" d="M1226.37 874.89h10.87v3.64h-10.87zM1239.19 874.89h10.87v3.64h-10.87z"/></g><g id="trait_btn_console-7" data-name="trait btn console"><path class="cls-9" d="M1096.56 843.85h130.38v6.67h-130.38z"/><path class="cls-73" d="M1098.97 845.17h10.87v3.64h-10.87z"/><path class="cls-69" d="M1111.79 845.17h11.84v3.64h-11.84zM1125.58 845.17h10.87v3.64h-10.87z"/><path class="cls-73" d="M1138.4 845.17h24.66v3.64h-24.66z"/><path class="cls-69" d="M1164.04 845.17h10.87v3.64h-10.87z"/><path class="cls-73" d="M1176.4 845.17h10.87v3.64h-10.87zM1188.7 845.17h10.87v3.64h-10.87z"/><path class="cls-69" d="M1201.52 845.17h10.87v3.64h-10.87zM1214.34 845.17h10.87v3.64h-10.87z"/></g><g id="trait_btn_console-8" data-name="trait btn console"><path class="cls-9" d="M1233.2 843.85h130.38v6.67H1233.2z"/><path class="cls-73" d="M1235.61 845.17h10.87v3.64h-10.87z"/><path class="cls-69" d="M1248.43 845.17h11.84v3.64h-11.84zM1262.22 845.17h10.87v3.64h-10.87z"/><path class="cls-73" d="M1275.04 845.17h24.66v3.64h-24.66z"/><path class="cls-69" d="M1300.68 845.17h10.87v3.64h-10.87z"/><path class="cls-73" d="M1313.04 845.17h10.87v3.64h-10.87zM1325.34 845.17h10.87v3.64h-10.87z"/><path class="cls-69" d="M1338.16 845.17h10.87v3.64h-10.87zM1350.98 845.17h10.87v3.64h-10.87z"/></g><g id="trait_btn_console-9" data-name="trait btn console"><path class="cls-9" d="M731.95 905.94h130.38v6.67H731.95z"/><path class="cls-69" d="M734.35 907.26h10.87v3.64h-10.87zM747.17 907.26h11.84v3.64h-11.84zM760.97 907.26h10.87v3.64h-10.87z"/><path class="cls-73" d="M773.78 907.26h24.66v3.64h-24.66z"/><path class="cls-69" d="M799.42 907.26h10.87v3.64h-10.87z"/><path class="cls-73" d="M811.78 907.26h10.87v3.64h-10.87zM824.08 907.26h10.87v3.64h-10.87z"/><path class="cls-69" d="M836.9 907.26h10.87v3.64H836.9zM849.72 907.26h10.87v3.64h-10.87z"/></g><g id="trait_btn_console-10" data-name="trait btn console"><path class="cls-9" d="M1258.97 905.94h105.07v6.67h-105.07z"/><path class="cls-69" d="M1261.38 907.26h10.87v3.64h-10.87zM1274.2 907.26h11.84v3.64h-11.84zM1287.99 907.26h10.87v3.64h-10.87z"/><path class="cls-73" d="M1300.81 907.26h24.66v3.64h-24.66z"/><path class="cls-69" d="M1326.44 907.26h10.87v3.64h-10.87z"/><path class="cls-73" d="M1338.81 907.26h10.87v3.64h-10.87zM1351.11 907.26h10.87v3.64h-10.87z"/></g><g id="trait_btn_console-11" data-name="trait btn console"><path class="cls-9" d="M859.32 905.94H989.7v6.67H859.32z"/><path class="cls-69" d="M861.73 907.26h10.87v3.64h-10.87zM874.55 907.26h11.84v3.64h-11.84zM888.34 907.26h10.87v3.64h-10.87z"/><path class="cls-73" d="M901.16 907.26h24.66v3.64h-24.66z"/><path class="cls-69" d="M926.8 907.26h10.87v3.64H926.8z"/><path class="cls-73" d="M939.16 907.26h10.87v3.64h-10.87zM951.46 907.26h10.87v3.64h-10.87z"/><path class="cls-69" d="M964.28 907.26h10.87v3.64h-10.87zM977.1 907.26h10.87v3.64H977.1z"/></g><path class="cls-9" d="M994.04 905.94h130.38v6.67H994.04z"/><path class="cls-69" d="M996.45 907.26h10.87v3.64h-10.87zM1009.26 907.26h11.84v3.64h-11.84z"/><path class="cls-73" d="M1023.06 907.26h10.87v3.64h-10.87z"/><path class="cls-69" d="M1035.88 907.26h24.66v3.64h-24.66zM1061.51 907.26h10.87v3.64h-10.87z"/><path class="cls-73" d="M1073.87 907.26h10.87v3.64h-10.87zM1086.17 907.26h10.87v3.64h-10.87z"/><path class="cls-69" d="M1098.99 907.26h10.87v3.64h-10.87zM1111.81 907.26h10.87v3.64h-10.87z"/><g id="trait_btn_console-12" data-name="trait btn console"><path class="cls-9" d="M1121.42 905.94h130.38v6.67h-130.38z"/><path class="cls-73" d="M1123.82 907.26h10.87v3.64h-10.87z"/><path class="cls-69" d="M1136.64 907.26h11.84v3.64h-11.84zM1150.44 907.26h10.87v3.64h-10.87z"/><path class="cls-73" d="M1163.25 907.26h24.66v3.64h-24.66z"/><path class="cls-69" d="M1188.89 907.26h10.87v3.64h-10.87z"/><path class="cls-73" d="M1201.25 907.26h10.87v3.64h-10.87zM1213.55 907.26h10.87v3.64h-10.87z"/><path class="cls-69" d="M1226.37 907.26h10.87v3.64h-10.87zM1239.19 907.26h10.87v3.64h-10.87z"/></g><g id="trait_btn_console-13" data-name="trait btn console"><path class="cls-9" d="M731.95 966.01h130.38v6.67H731.95z"/><path class="cls-69" d="M734.35 967.33h10.87v3.64h-10.87zM747.17 967.33h11.84v3.64h-11.84zM760.97 967.33h10.87v3.64h-10.87z"/><path class="cls-73" d="M773.78 967.33h24.66v3.64h-24.66z"/><path class="cls-69" d="M799.42 967.33h10.87v3.64h-10.87z"/><path class="cls-73" d="M811.78 967.33h10.87v3.64h-10.87zM824.08 967.33h10.87v3.64h-10.87z"/><path class="cls-69" d="M836.9 967.33h10.87v3.64H836.9zM849.72 967.33h10.87v3.64h-10.87z"/></g><g id="trait_btn_console-14" data-name="trait btn console"><path class="cls-9" d="M1258.97 966.01h105.07v6.67h-105.07z"/><path class="cls-69" d="M1261.38 967.33h10.87v3.64h-10.87zM1274.2 967.33h11.84v3.64h-11.84zM1287.99 967.33h10.87v3.64h-10.87z"/><path class="cls-73" d="M1300.81 967.33h24.66v3.64h-24.66z"/><path class="cls-69" d="M1326.44 967.33h10.87v3.64h-10.87z"/><path class="cls-73" d="M1338.81 967.33h10.87v3.64h-10.87zM1351.11 967.33h10.87v3.64h-10.87z"/></g><g id="trait_btn_console-15" data-name="trait btn console"><path class="cls-9" d="M859.32 966.01H989.7v6.67H859.32z"/><path class="cls-69" d="M861.73 967.33h10.87v3.64h-10.87zM874.55 967.33h11.84v3.64h-11.84zM888.34 967.33h10.87v3.64h-10.87z"/><path class="cls-73" d="M901.16 967.33h24.66v3.64h-24.66z"/><path class="cls-69" d="M926.8 967.33h10.87v3.64H926.8z"/><path class="cls-73" d="M939.16 967.33h10.87v3.64h-10.87zM951.46 967.33h10.87v3.64h-10.87z"/><path class="cls-69" d="M964.28 967.33h10.87v3.64h-10.87zM977.1 967.33h10.87v3.64H977.1z"/></g><path class="cls-9" d="M994.04 966.01h130.38v6.67H994.04z"/><path class="cls-69" d="M996.45 967.33h10.87v3.64h-10.87zM1009.26 967.33h11.84v3.64h-11.84z"/><path class="cls-73" d="M1023.06 967.33h10.87v3.64h-10.87z"/><path class="cls-69" d="M1035.88 967.33h24.66v3.64h-24.66zM1061.51 967.33h10.87v3.64h-10.87z"/><path class="cls-73" d="M1073.87 967.33h10.87v3.64h-10.87zM1086.17 967.33h10.87v3.64h-10.87z"/><path class="cls-69" d="M1098.99 967.33h10.87v3.64h-10.87zM1111.81 967.33h10.87v3.64h-10.87z"/><g id="trait_btn_console-16" data-name="trait btn console"><path class="cls-9" d="M1121.42 966.01h130.38v6.67h-130.38z"/><path class="cls-73" d="M1123.82 967.33h10.87v3.64h-10.87z"/><path class="cls-69" d="M1136.64 967.33h11.84v3.64h-11.84zM1150.44 967.33h10.87v3.64h-10.87z"/><path class="cls-73" d="M1163.25 967.33h24.66v3.64h-24.66z"/><path class="cls-69" d="M1188.89 967.33h10.87v3.64h-10.87z"/><path class="cls-73" d="M1201.25 967.33h10.87v3.64h-10.87zM1213.55 967.33h10.87v3.64h-10.87z"/><path class="cls-69" d="M1226.37 967.33h10.87v3.64h-10.87zM1239.19 967.33h10.87v3.64h-10.87z"/></g><g id="trait_btn_console-17" data-name="trait btn console"><path class="cls-9" d="M731.95 843.3h130.38v7.4H731.95z"/><path class="cls-72" d="M734.35 845.35h10.87v3.64h-10.87zM747.17 845.35h10.87v3.64h-10.87zM759.99 845.35h10.87v3.64h-10.87zM772.81 845.35h10.87v3.64h-10.87zM785.63 845.35h10.87v3.64h-10.87zM798.45 845.35h10.87v3.64h-10.87zM811.26 845.35h10.87v3.64h-10.87zM824.08 845.35h10.87v3.64h-10.87zM836.9 845.35h10.87v3.64H836.9zM849.72 845.35h10.87v3.64h-10.87z"/></g><g id="trait_btn_console-18" data-name="trait btn console"><path class="cls-9" d="M878.22 813.76h130.38v7.4H878.22z"/><path class="cls-72" d="M880.62 815.81h10.87v3.64h-10.87zM893.44 815.81h10.87v3.64h-10.87zM906.26 815.81h10.87v3.64h-10.87zM919.08 815.81h10.87v3.64h-10.87zM931.9 815.81h10.87v3.64H931.9zM944.72 815.81h10.87v3.64h-10.87zM957.53 815.81h10.87v3.64h-10.87zM970.35 815.81h10.87v3.64h-10.87zM983.17 815.81h10.87v3.64h-10.87zM995.99 815.81h10.87v3.64h-10.87z"/></g><g id="trait_btn_console-19" data-name="trait btn console"><path class="cls-9" d="M1022.21 813.76h28.22v7.4h-28.22z"/><path class="cls-72" d="M1024.62 815.81h23.59v3.64h-23.59z"/></g><g id="trait_btn_console-20" data-name="trait btn console"><path class="cls-9" d="M878.22 843.3h130.38v7.4H878.22z"/><path class="cls-72" d="M880.62 845.35h10.87v3.64h-10.87zM893.44 845.35h10.87v3.64h-10.87zM906.26 845.35h10.87v3.64h-10.87zM919.08 845.35h10.87v3.64h-10.87zM931.9 845.35h10.87v3.64H931.9zM944.72 845.35h10.87v3.64h-10.87zM957.53 845.35h10.87v3.64h-10.87zM970.35 845.35h10.87v3.64h-10.87zM983.17 845.35h10.87v3.64h-10.87zM995.99 845.35h10.87v3.64h-10.87z"/></g><g id="trait_btn_console-21" data-name="trait btn console"><path class="cls-9" d="M1022.21 843.3h28.22v7.4h-28.22z"/><path class="cls-72" d="M1024.62 845.35h10.87v3.64h-10.87zM1037.44 845.35h10.87v3.64h-10.87z"/></g><g id="trait_btn_console-22" data-name="trait btn console"><path class="cls-9" d="M1097.68 813.76h28.22v7.4h-28.22z"/><path class="cls-72" d="M1100.09 815.81h10.87v3.64h-10.87zM1112.91 815.81h10.87v3.64h-10.87z"/></g><g id="trait_btn_console-23" data-name="trait btn console"><path class="cls-9" d="M1334.47 813.76h28.22v7.4h-28.22z"/><path class="cls-72" d="M1336.87 815.81h10.87v3.64h-10.87zM1349.69 815.81h10.87v3.64h-10.87z"/></g><g id="trait_btn_console-24" data-name="trait btn console"><path class="cls-9" d="M1184.02 813.93h28.22v7.4h-28.22z"/><path class="cls-72" d="M1186.43 815.98h10.87v3.64h-10.87zM1199.25 815.98h10.87v3.64h-10.87z"/></g><g id="trait_btn_console-25" data-name="trait btn console"><path class="cls-9" d="M1209.62 813.93h28.22v7.4h-28.22z"/><path class="cls-72" d="M1212.03 815.98h10.87v3.64h-10.87zM1224.85 815.98h10.87v3.64h-10.87z"/></g><path d="M700.82 1041.29s21.06 16.39 25.61 34.61c15.94-.46 669 0 681.31 0 3.64-10.48 12.72-23.75 23.58-34.61" transform="translate(0 -8.34)" style="fill:#565656"/><g id="console_haut" data-name="console haut"><path class="cls-9" d="M716.73 55.4h696.4v160.37h-696.4z"/><path class="cls-78" d="M743.62 62.41h642a22.31 22.31 0 0 1 22.31 22.31v131.05H721.31V84.72a22.31 22.31 0 0 1 22.31-22.31z"/><rect class="cls-79" x="737.6" y="80.99" width="656" height="118.22" rx="15.11"/><path class="cls-9" d="M758.04 84.55h40.52v5.33h-40.52zM803.04 84.55h40.52v5.33h-40.52zM848.04 84.55h40.52v5.33h-40.52zM893.04 84.55h40.52v5.33h-40.52zM938.04 84.55h40.52v5.33h-40.52zM983.04 84.55h40.52v5.33h-40.52zM1028.04 84.55h40.52v5.33h-40.52zM1073.04 84.55h40.52v5.33h-40.52zM1118.04 84.55h40.52v5.33h-40.52zM1163.04 84.55h40.52v5.33h-40.52zM1208.04 84.55h40.52v5.33h-40.52zM1253.04 84.55h40.52v5.33h-40.52zM775.97 97.88h24.74v3.11h-24.74zM1321.15 97.88h24.74v3.11h-24.74zM823.71 97.88h199.85v3.11H823.71zM763.26 123.41h261.33v3.11H763.26zM1061.26 123.41h135.78v3.11h-135.78zM1211.6 123.41h79.21v3.11h-79.21zM1294.49 123.41h77.67v3.11h-77.67zM763.26 148.94h294.56v3.11H763.26zM1097.15 148.94h73.22v3.11h-73.22zM1196.26 148.94h175.89v3.11h-175.89zM763.26 176.42h202.89v3.11H763.26zM985.04 176.42h212v3.11h-212zM1211.6 176.42h79.21v3.11h-79.21zM1294.49 176.42h77.67v3.11h-77.67zM1075.79 97.88h215.02v3.11h-215.02z"/><circle cx="794.67" cy="111.47" r="4.93" style="fill:url(#Dégradé_sans_nom_67)"/><circle cx="828.23" cy="111.47" r="4.93" style="fill:url(#Dégradé_sans_nom_68)"/><circle cx="1015.49" cy="111.47" r="4.93" style="fill:url(#Dégradé_sans_nom_20)"/><circle cx="1135.49" cy="161.99" r="4.93" style="fill:url(#Dégradé_sans_nom_20-2)"/><circle cx="966.15" cy="161.99" r="4.93" style="fill:url(#Dégradé_sans_nom_20-3)"/><circle cx="1091.04" cy="188.1" r="4.93" style="fill:url(#Dégradé_sans_nom_20-4)"/><circle cx="1061.26" cy="188.1" r="4.93" style="fill:url(#Dégradé_sans_nom_20-5)"/><circle cx="935.86" cy="188.1" r="4.93" style="fill:url(#Dégradé_sans_nom_20-6)"/><circle cx="888.56" cy="188.1" r="4.93" style="fill:url(#Dégradé_sans_nom_20-7)"/><circle cx="980.11" cy="161.99" r="4.93" style="fill:url(#Dégradé_sans_nom_20-8)"/><circle cx="1163.04" cy="161.99" r="4.93" style="fill:url(#Dégradé_sans_nom_20-9)"/><circle cx="1328.39" cy="111.47" r="4.93" style="fill:url(#Dégradé_sans_nom_20-10)"/><circle cx="1344.69" cy="135.59" r="4.93" style="fill:url(#Dégradé_sans_nom_66)"/><circle cx="1365.73" cy="161.07" r="4.93" style="fill:url(#Dégradé_sans_nom_20-11)"/><circle cx="1068.56" cy="111.47" r="4.93" style="fill:url(#Dégradé_sans_nom_17)"/><circle cx="949.45" cy="161.99" r="4.93" style="fill:url(#Dégradé_sans_nom_17-2)"/><circle cx="838.08" cy="188.1" r="4.93" style="fill:url(#Dégradé_sans_nom_17-3)"/><circle cx="935.86" cy="161.99" r="4.93" style="fill:url(#Dégradé_sans_nom_17-4)"/><circle cx="1251.2" cy="137.73" r="4.93" style="fill:url(#Dégradé_sans_nom_17-5)"/><circle cx="1298.49" cy="188.1" r="4.93" style="fill:url(#Dégradé_sans_nom_17-6)"/><circle cx="1310.93" cy="188.1" r="4.93" style="fill:url(#Dégradé_sans_nom_17-7)"/><circle cx="1265.72" cy="137.73" r="4.93" style="fill:url(#Dégradé_sans_nom_17-8)"/></g><path class="cls-9" d="M1158.79 15.4V43.13h-5.24c-.1-.59-.21-1.6-.24-2.05-.95 1.55-2.65 2.51-5.58 2.51-5 0-8.14-4-8.14-10.13S1143 23 1148.56 23c2.83 0 4.35 1 4.79 1.88V15.4zm-13.57 17.92c0 3.83 1.5 5.91 4.16 5.91 3.75 0 4.18-3.12 4.18-5.95 0-3.36-.48-5.91-4-5.91-2.9 0-4.34 2.23-4.34 5.95zM1168 34.47c0 2.45 1.23 4.86 3.94 4.86 2.27 0 2.92-.91 3.43-2.1h5.45c-.69 2.41-2.84 6.36-9 6.36-6.48 0-9.29-4.84-9.29-10 0-6.17 3.17-10.58 9.48-10.58 6.76 0 9.06 4.89 9.06 9.8a10.93 10.93 0 0 1-.08 1.66zm7.59-3.35c0-2.29-1-4.22-3.6-4.22s-3.66 1.8-3.88 4.22zM1202.08 36.78c-.68 3.28-3 6.81-8.84 6.81-6.12 0-9.27-4.24-9.27-10.15S1187.51 23 1193.5 23c6.63 0 8.47 4.76 8.58 7h-5.32a3.07 3.07 0 0 0-3.37-2.72c-2.48 0-3.89 2.18-3.89 6 0 4.18 1.49 6.09 3.87 6.09a3.34 3.34 0 0 0 3.36-2.58z" transform="translate(0 -8.34)"/><path class="cls-42" d="M1209.63 37.22c.41 1.57 1.69 2.45 3.72 2.45s2.74-.72 2.74-1.91-.84-1.76-3.66-2.45C1206 33.73 1205 31.74 1205 29s2-6 8-6 8 3.26 8.15 5.92h-5.17c-.18-.72-.66-2.1-3.22-2.1-1.8 0-2.39.8-2.39 1.69s.61 1.45 3.81 2.19c6.56 1.53 7.49 3.78 7.49 6.66 0 3.26-2.48 6.22-8.48 6.22s-8.43-2.88-8.86-6.37zM1228.66 23.47c2 6.78 3.8 12.84 4.11 14.66.42-2 1.58-6.39 3.92-14.66h5.42l-6.6 20.23c-1.88 5.66-3.45 7.35-8.18 7.35-.48 0-1.6 0-2.55-.15v-4.38a12.33 12.33 0 0 0 1.41.08c2 0 3-.69 3.75-2.86l-7.16-20.27zM1248.77 37.22c.41 1.57 1.69 2.45 3.72 2.45s2.74-.72 2.74-1.91-.84-1.76-3.66-2.45c-6.41-1.58-7.46-3.57-7.46-6.34s2.05-6 8-6 8 3.26 8.15 5.92h-5.17c-.18-.72-.66-2.1-3.22-2.1-1.8 0-2.39.8-2.39 1.69s.61 1.45 3.81 2.19c6.56 1.53 7.49 3.78 7.49 6.66 0 3.26-2.48 6.22-8.48 6.22s-8.43-2.88-8.86-6.37zM1262.22 23.47h3v-5.33h5.45v5.33h3.85v4.09h-3.85v9.71c0 1.49.45 2.07 2.08 2.07a11.18 11.18 0 0 0 1.23-.06V43a12.26 12.26 0 0 1-3.66.38c-3.83 0-5.1-2-5.1-5.49V27.56h-3zM1281.88 34.47c0 2.45 1.23 4.86 3.95 4.86 2.26 0 2.91-.91 3.43-2.1h5.45c-.7 2.41-2.85 6.36-9 6.36-6.48 0-9.29-4.84-9.29-10 0-6.17 3.17-10.58 9.49-10.58 6.75 0 9 4.89 9 9.8a12.47 12.47 0 0 1-.07 1.66zm7.59-3.35c0-2.29-1-4.22-3.6-4.22s-3.66 1.8-3.88 4.22zM1298.75 28.54v-5.07h5.21c.07.48.18 1.57.21 2.34a6.15 6.15 0 0 1 5.46-2.8 5.22 5.22 0 0 1 5.08 3 6.84 6.84 0 0 1 6.06-3c3.42 0 6.23 2.11 6.23 7.22v12.9h-5.31V30.89c0-1.77-.65-3.51-2.88-3.51s-3.21 1.49-3.21 4.51v11.24h-5.34v-12c0-2-.5-3.68-2.83-3.68s-3.26 1.36-3.26 4.73v11h-5.38z" transform="translate(0 -8.34)"/><path class="cls-9" d="M1335.56 43.13V24.44a16.41 16.41 0 0 1-4.52 1.09v-4.06a11.76 11.76 0 0 0 6.2-3.36h3.84v25zM1365.27 30.48c0 6.87-2.18 13.11-9.6 13.11s-9.6-6-9.6-13 2.51-12.95 9.71-12.95c6.97.04 9.49 5.74 9.49 12.84zm-13.6.09c0 4.6.53 8.69 4.06 8.69s3.91-3.83 3.91-8.75-.59-8.5-3.85-8.5-4.12 3.15-4.12 8.56z" transform="translate(0 -8.34)"/><path class="cls-102" d="M737.6 10.58h16.89V40.8H737.6zM757.01 10.58h16.89V40.8h-16.89zM776.41 10.58h16.89V40.8h-16.89zM795.82 10.58h16.89V40.8h-16.89zM815.23 10.58h16.89V40.8h-16.89zM834.63 10.58h16.89V40.8h-16.89zM854.04 10.58h16.89V40.8h-16.89z"/><path class="cls-50" d="M752.76 22.48V42.22h-3.23c-.07-.4-.13-1.23-.15-1.62-.68 1.21-1.94 1.95-4.08 1.95-3.53 0-5.75-2.85-5.75-7.14S742 28 745.85 28c2.15 0 3.23.8 3.56 1.48v-7zM743 35.32c0 2.92 1.23 4.5 3.21 4.5 2.85 0 3.29-2.27 3.29-4.61 0-2.61-.44-4.46-3.16-4.46-2.12 0-3.34 1.7-3.34 4.57zM763.43 22.48h3.36v3.28h-3.36zm0 5.87h3.36v13.87h-3.36zM791.32 39.53c0 4.45-1.71 7.17-6.72 7.17-4.77 0-5.87-2.67-6.05-4.34H782a2.54 2.54 0 0 0 2.78 1.84c2.72 0 3.29-1.68 3.29-4.56v-.82a4.14 4.14 0 0 1-4 2.12c-3.58 0-5.74-2.93-5.74-6.77 0-4.4 2.61-7.3 6-7.3 2.47 0 3.5 1.16 3.75 1.9 0-.46.11-1.33.14-1.58h3.18v4zM781.7 34c0 2.57 1.31 4.17 3.2 4.17 2.54 0 3.24-1.73 3.24-4.31s-.55-4.28-3.16-4.28c-1.98.02-3.28 1.59-3.28 4.42zM802.54 22.48h3.36v3.28h-3.36zm0 5.87h3.36v13.87h-3.36zM819.42 28.35h2.23v-3.87H825v3.87h2.83v2.57H825v7.28c0 1.15.33 1.66 1.51 1.66a5.79 5.79 0 0 0 1-.07v2.36a8.11 8.11 0 0 1-2.41.26c-2.52 0-3.43-1.34-3.43-3.72v-7.77h-2.23zM848.77 38.83a27.66 27.66 0 0 0 .19 3.39h-3.21a6.29 6.29 0 0 1-.21-1.51c-.49.83-1.49 1.84-4 1.84-3.32 0-4.72-2.18-4.72-4.32 0-3.14 2.5-4.58 6.59-4.58h2.11v-1c0-1.07-.37-2.21-2.42-2.21-1.86 0-2.23.84-2.43 1.87h-3.2c.2-2.28 1.61-4.35 5.75-4.33 3.6 0 5.58 1.45 5.58 4.7zm-3.27-3.07h-1.8c-2.46 0-3.53.72-3.53 2.27a2 2 0 0 0 2.23 2.06c2.75 0 3.1-1.88 3.1-3.94zM861.21 42.55V22.8h3.36v19.75z" transform="translate(0 -8.34)"/><path class="cls-2" d="M8 2.5h693.63v1468.27H8z"/><path class="cls-3" d="M5.21 2.5h696.42v45.6H5.21z"/><path class="cls-4" d="M0 2.5h707.85"/><path class="cls-5" d="M0 48.1h707.85"/><g id="console_haut-2" data-name="console haut"><path class="cls-9" d="M5.21 55.4h696.4v160.37H5.21z"/><path class="cls-78" d="M32.1 62.41h642a22.31 22.31 0 0 1 22.31 22.31v131.05H9.79V84.72A22.31 22.31 0 0 1 32.1 62.41z"/><rect class="cls-79" x="26.07" y="80.99" width="656" height="118.22" rx="15.11"/><path class="cls-9" d="M46.52 84.55h40.52v5.33H46.52zM91.52 84.55h40.52v5.33H91.52zM136.52 84.55h40.52v5.33h-40.52zM181.52 84.55h40.52v5.33h-40.52zM226.52 84.55h40.52v5.33h-40.52zM271.52 84.55h40.52v5.33h-40.52zM316.52 84.55h40.52v5.33h-40.52zM361.52 84.55h40.52v5.33h-40.52zM406.52 84.55h40.52v5.33h-40.52zM451.52 84.55h40.52v5.33h-40.52zM496.52 84.55h40.52v5.33h-40.52zM541.52 84.55h40.52v5.33h-40.52zM64.44 97.88h24.74v3.11H64.44zM609.63 97.88h24.74v3.11h-24.74zM112.19 97.88h199.85v3.11H112.19zM51.74 123.41h261.33v3.11H51.74zM349.74 123.41h135.78v3.11H349.74zM500.07 123.41h79.21v3.11h-79.21zM582.96 123.41h77.67v3.11h-77.67zM51.74 148.94H346.3v3.11H51.74zM385.63 148.94h73.22v3.11h-73.22zM484.74 148.94h175.89v3.11H484.74zM51.74 176.42h202.89v3.11H51.74zM273.52 176.42h212v3.11h-212zM500.07 176.42h79.21v3.11h-79.21zM582.96 176.42h77.67v3.11h-77.67zM364.27 97.88h215.02v3.11H364.27z"/><circle cx="83.15" cy="111.47" r="4.93" style="fill:url(#Dégradé_sans_nom_67-2)"/><circle cx="116.7" cy="111.47" r="4.93" style="fill:url(#Dégradé_sans_nom_68-2)"/><circle cx="303.96" cy="111.47" r="4.93" style="fill:url(#Dégradé_sans_nom_20-12)"/><circle cx="423.96" cy="161.99" r="4.93" style="fill:url(#Dégradé_sans_nom_20-13)"/><circle cx="254.63" cy="161.99" r="4.93" style="fill:url(#Dégradé_sans_nom_20-14)"/><circle cx="379.52" cy="188.1" r="4.93" style="fill:url(#Dégradé_sans_nom_20-15)"/><circle cx="349.74" cy="188.1" r="4.93" style="fill:url(#Dégradé_sans_nom_20-16)"/><circle cx="224.33" cy="188.1" r="4.93" style="fill:url(#Dégradé_sans_nom_20-17)"/><circle cx="177.04" cy="188.1" r="4.93" style="fill:url(#Dégradé_sans_nom_20-18)"/><circle cx="268.59" cy="161.99" r="4.93" style="fill:url(#Dégradé_sans_nom_20-19)"/><circle cx="451.52" cy="161.99" r="4.93" style="fill:url(#Dégradé_sans_nom_20-20)"/><circle cx="616.87" cy="111.47" r="4.93" style="fill:url(#Dégradé_sans_nom_20-21)"/><circle cx="633.17" cy="135.59" r="4.93" style="fill:url(#Dégradé_sans_nom_66-2)"/><circle cx="654.2" cy="161.07" r="4.93" style="fill:url(#Dégradé_sans_nom_20-22)"/><circle cx="357.04" cy="111.47" r="4.93" style="fill:url(#Dégradé_sans_nom_17-9)"/><circle cx="237.93" cy="161.99" r="4.93" style="fill:url(#Dégradé_sans_nom_17-10)"/><circle cx="126.56" cy="188.1" r="4.93" style="fill:url(#Dégradé_sans_nom_17-11)"/><circle cx="224.33" cy="161.99" r="4.93" style="fill:url(#Dégradé_sans_nom_17-12)"/><circle cx="539.68" cy="137.73" r="4.93" style="fill:url(#Dégradé_sans_nom_17-13)"/><circle cx="586.96" cy="188.1" r="4.93" style="fill:url(#Dégradé_sans_nom_17-14)"/><circle cx="599.41" cy="188.1" r="4.93" style="fill:url(#Dégradé_sans_nom_17-15)"/><circle cx="554.2" cy="137.73" r="4.93" style="fill:url(#Dégradé_sans_nom_17-16)"/></g><path class="cls-50" d="M51.91 22.48h3.35v3.28h-3.35zm0 5.87h3.35v13.87h-3.35z" transform="translate(0 -8.34)"/><path class="cls-50" d="M9.79 231.39h686.58V1464.1H9.79z"/><path class="cls-6" d="M957.39 442.72h455.4v192h-455.4z"/><rect x="1093.54" y="324.23" width="183.1" height="445.66" rx="15.32" transform="rotate(-90 1180.925 542.895)" style="fill:#2e2e2e"/><rect class="cls-126" x="965.39" y="449.76" width="439.56" height="177.29" rx="18.46"/><path style="fill:#191919" d="M1326.73 500.01h34.22v120.9h-34.22z"/><path class="cls-126" d="M1326.73 493.87h24.67v126.19h-24.67z"/><path class="cls-128" d="M1232.7 528.79h-99.84a7.3 7.3 0 0 1-7.29-6.94l-1.66-33.94h117.74l-1.65 33.94a7.3 7.3 0 0 1-7.3 6.94z" transform="translate(0 -8.34)"/><path class="cls-40" d="M1358.05 512.49h33.11a9.7 9.7 0 0 0 9.69-9.71v-30.35a9.7 9.7 0 0 0-9.69-9.71h-413a9.7 9.7 0 0 0-9.69 9.71v30.35a9.7 9.7 0 0 0 9.69 9.71h379.93z" transform="translate(0 -8.34)"/><path d="M1326.73 534.62h25.56v80.16h-25.56z"/><path class="cls-128" d="M1235.1 555.44h-99.84a7.3 7.3 0 0 0-7.29 6.94l-1.66 33.94h117.74l-1.66-33.94a7.3 7.3 0 0 0-7.29-6.94z" transform="translate(0 -8.34)"/><path d="M1392.13 632.25h-413.9a9.71 9.71 0 0 1-9.72-9.71v-30.35a9.71 9.71 0 0 1 9.72-9.71h358.45V628H1359v-45.52h33.17a9.71 9.71 0 0 1 9.72 9.71v30.35a9.71 9.71 0 0 1-9.76 9.71z" transform="translate(0 -8.34)" style="fill:#616160"/><path class="cls-128" d="M1358.87 511h33.18a9.71 9.71 0 0 0 9.71-9.71v-30.41a9.71 9.71 0 0 0-9.71-9.71H978.14a9.71 9.71 0 0 0-9.71 9.71v30.36a9.71 9.71 0 0 0 9.71 9.71h380.73zM1392.05 633.55H978.14a9.71 9.71 0 0 1-9.71-9.71v-30.36a9.71 9.71 0 0 1 9.71-9.71h358.45v45.48h22.28v-45.48h33.18a9.71 9.71 0 0 1 9.71 9.71v30.36a9.71 9.71 0 0 1-9.71 9.71z" transform="translate(0 -8.34)"/><path class="cls-130" d="M1359.73 505.61h33.87v33.87h-33.87z"/><path class="cls-130" d="M1359.73 538.41h33.87v33.87h-33.87z"/><circle cx="1207.49" cy="512.15" r="5.5" style="fill:#7f8080"/><path style="stroke:#3f3f3f;stroke-width:3px;stroke-miterlimit:10;fill:none" d="M1354.06 615h-17.38"/><path class="cls-58" d="M1353.03 504.15v111.74"/><g id="BTN_1-7" data-name="BTN 1"><path class="cls-43" d="M1362.33 541v-6.22a1.29 1.29 0 0 1 1.15-1.28l10.78-1.1H1391v11.1h-16.74l-10.79-1.24a1.28 1.28 0 0 1-1.14-1.26z" transform="translate(0 -8.34)"/><path class="cls-44" d="M1374.59 524.75h15.48v9.63h-15.48"/><path class="cls-46" d="m1380.96 526.83 9.11-2.08v9.63l-9.11-2.07v-5.48z"/><path class="cls-47" d="M1374.59 533.09v9.63l7.12-1.37a1.66 1.66 0 0 0 1.35-1.63v-3.44a1.67 1.67 0 0 0-1.31-1.62z" transform="translate(0 -8.34)"/><path class="cls-8" d="m1374.26 542.76-10-1a1.34 1.34 0 0 1-1.29-1.34v-5.05a1.34 1.34 0 0 1 1.29-1.34l10-1z" transform="translate(0 -8.34)"/></g><g id="BTN_1-8" data-name="BTN 1"><path class="cls-43" d="M1362.33 575.21V569a1.29 1.29 0 0 1 1.15-1.28l10.78-1.1H1391v11.11h-16.74l-10.79-1.24a1.28 1.28 0 0 1-1.14-1.28z" transform="translate(0 -8.34)"/><path class="cls-44" d="M1374.59 558.97h15.48v9.63h-15.48"/><path class="cls-46" d="m1380.96 561.05 9.11-2.08v9.63l-9.11-2.07v-5.48z"/><path class="cls-47" d="M1374.59 567.31v9.63l7.12-1.37a1.66 1.66 0 0 0 1.35-1.63v-3.44a1.67 1.67 0 0 0-1.31-1.62z" transform="translate(0 -8.34)"/><path class="cls-8" d="m1374.26 577-10-1a1.34 1.34 0 0 1-1.29-1.34v-5.05a1.34 1.34 0 0 1 1.29-1.34l10-.95z" transform="translate(0 -8.34)"/></g></svg>