<svg enable-background="new 0 0 2246.1 1470.8" viewBox="0 0 2246.1 1470.8" xmlns="http://www.w3.org/2000/svg" xmlns:xlink="http://www.w3.org/1999/xlink"><linearGradient id="a"><stop offset=".39" stop-color="#fff"/><stop offset=".77" stop-color="#fcea0d"/><stop offset="1" stop-color="#e5332a"/></linearGradient><radialGradient id="b" cx="739.79" cy="644.14" gradientTransform="matrix(1 0 0 -1 0 1470)" gradientUnits="userSpaceOnUse" r="3.75" xlink:href="#a"/><radialGradient id="c" cx="766.79" cy="584.48" gradientTransform="matrix(1 0 0 -1 0 1470)" gradientUnits="userSpaceOnUse" r="3.75" xlink:href="#a"/><radialGradient id="d" cx="779.61" cy="584.48" gradientTransform="matrix(1 0 0 -1 0 1470)" gradientUnits="userSpaceOnUse" r="3.75" xlink:href="#a"/><radialGradient id="e" cx="792.43" cy="584.48" gradientTransform="matrix(1 0 0 -1 0 1470)" gradientUnits="userSpaceOnUse" r="3.75" xlink:href="#a"/><radialGradient id="f" cx="805.25" cy="584.48" gradientTransform="matrix(1 0 0 -1 0 1470)" gradientUnits="userSpaceOnUse" r="3.75" xlink:href="#a"/><radialGradient id="g" cx="830.88" cy="584.48" gradientTransform="matrix(1 0 0 -1 0 1470)" gradientUnits="userSpaceOnUse" r="3.75" xlink:href="#a"/><radialGradient id="h" cx="842.68" cy="584.48" gradientTransform="matrix(1 0 0 -1 0 1470)" gradientUnits="userSpaceOnUse" r="3.75" xlink:href="#a"/><radialGradient id="i" cx="854.47" cy="584.48" gradientTransform="matrix(1 0 0 -1 0 1470)" gradientUnits="userSpaceOnUse" r="3.75" xlink:href="#a"/><radialGradient id="j" cx="895.12" cy="584.48" gradientTransform="matrix(1 0 0 -1 0 1470)" gradientUnits="userSpaceOnUse" r="3.75" xlink:href="#a"/><radialGradient id="k" cx="933.7" cy="584.48" gradientTransform="matrix(1 0 0 -1 0 1470)" gradientUnits="userSpaceOnUse" r="3.75" xlink:href="#a"/><radialGradient id="l" cx="752.61" cy="644.14" gradientTransform="matrix(1 0 0 -1 0 1470)" gradientUnits="userSpaceOnUse" r="3.75" xlink:href="#a"/><radialGradient id="m" cx="765.42" cy="644.14" gradientTransform="matrix(1 0 0 -1 0 1470)" gradientUnits="userSpaceOnUse" r="3.75" xlink:href="#a"/><radialGradient id="n" cx="778.24" cy="644.14" gradientTransform="matrix(1 0 0 -1 0 1470)" gradientUnits="userSpaceOnUse" r="3.75" xlink:href="#a"/><radialGradient id="o" cx="791.06" cy="644.14" gradientTransform="matrix(1 0 0 -1 0 1470)" gradientUnits="userSpaceOnUse" r="3.75" xlink:href="#a"/><radialGradient id="p" cx="803.88" cy="644.14" gradientTransform="matrix(1 0 0 -1 0 1470)" gradientUnits="userSpaceOnUse" r="3.75" xlink:href="#a"/><radialGradient id="q" cx="816.7" cy="644.14" gradientTransform="matrix(1 0 0 -1 0 1470)" gradientUnits="userSpaceOnUse" r="3.75" xlink:href="#a"/><radialGradient id="r" cx="829.52" cy="644.14" gradientTransform="matrix(1 0 0 -1 0 1470)" gradientUnits="userSpaceOnUse" r="3.75" xlink:href="#a"/><radialGradient id="s" cx="842.33" cy="644.14" gradientTransform="matrix(1 0 0 -1 0 1470)" gradientUnits="userSpaceOnUse" r="3.75" xlink:href="#a"/><radialGradient id="t" cx="855.15" cy="644.14" gradientTransform="matrix(1 0 0 -1 0 1470)" gradientUnits="userSpaceOnUse" r="3.75" xlink:href="#a"/><radialGradient id="u" cx="1036.41" cy="643.23" gradientTransform="matrix(1 0 0 -1 0 1470)" gradientUnits="userSpaceOnUse" r="3.75" xlink:href="#a"/><radialGradient id="v" cx="1231.8" cy="643.23" gradientTransform="matrix(1 0 0 -1 0 1470)" gradientUnits="userSpaceOnUse" r="3.75" xlink:href="#a"/><radialGradient id="w" cx="1356.3101" cy="643.23" gradientTransform="matrix(1 0 0 -1 0 1470)" gradientUnits="userSpaceOnUse" r="3.75" xlink:href="#a"/><radialGradient id="x" cx="1356.3101" cy="613.63" gradientTransform="matrix(1 0 0 -1 0 1470)" gradientUnits="userSpaceOnUse" r="3.75" xlink:href="#a"/><radialGradient id="y" cx="1351.5043" cy="560.1362" gradientTransform="matrix(.9993 .03769019 .03769019 -.9993 -15.2662 1394.6633)" gradientUnits="userSpaceOnUse" r="3.75" xlink:href="#a"/><radialGradient id="z" cx="1352.7443" cy="527.1761" gradientTransform="matrix(.9993 .03769019 .03769019 -.9993 -15.2662 1394.6633)" gradientUnits="userSpaceOnUse" r="3.75" xlink:href="#a"/><radialGradient id="A" cx="1036.41" cy="613.63" gradientTransform="matrix(1 0 0 -1 0 1470)" gradientUnits="userSpaceOnUse" r="3.75" xlink:href="#a"/><clipPath id="B"><path d="m1011 668.2h75.7c.6 0 1.1.5 1.1 1.1v27.8c0 .6-.5 1.1-1.1 1.1h-75.7c-.6 0-1.1-.5-1.1-1.1v-27.8c0-.6.5-1.1 1.1-1.1z"/></clipPath><linearGradient id="C"><stop offset=".01" stop-color="#f8b133"/><stop offset=".43" stop-color="#f8af33"/><stop offset=".59" stop-color="#f7a832"/><stop offset=".7" stop-color="#f59d32"/><stop offset=".78" stop-color="#f28c30"/><stop offset=".86" stop-color="#ef762f"/><stop offset=".93" stop-color="#eb5a2d"/><stop offset=".99" stop-color="#e63b2b"/><stop offset="1" stop-color="#e5332a"/></linearGradient><radialGradient id="D" cx="794.67" cy="1358.53" gradientTransform="matrix(1 0 0 -1 0 1470)" gradientUnits="userSpaceOnUse" r="4.93" xlink:href="#C"/><radialGradient id="E" cx="828.23" cy="1358.53" gradientTransform="matrix(1 0 0 -1 0 1470)" gradientUnits="userSpaceOnUse" r="4.93" xlink:href="#C"/><linearGradient id="F"><stop offset=".01" stop-color="#fcea0d"/><stop offset="1" stop-color="#e5332a"/></linearGradient><radialGradient id="G" cx="1015.49" cy="1358.53" gradientTransform="matrix(1 0 0 -1 0 1470)" gradientUnits="userSpaceOnUse" r="4.93" xlink:href="#F"/><radialGradient id="H" cx="1135.49" cy="1308.01" gradientTransform="matrix(1 0 0 -1 0 1470)" gradientUnits="userSpaceOnUse" r="4.93" xlink:href="#F"/><radialGradient id="I" cx="966.15" cy="1308.01" gradientTransform="matrix(1 0 0 -1 0 1470)" gradientUnits="userSpaceOnUse" r="4.93" xlink:href="#F"/><radialGradient id="J" cx="1091.04" cy="1281.9" gradientTransform="matrix(1 0 0 -1 0 1470)" gradientUnits="userSpaceOnUse" r="4.93" xlink:href="#F"/><radialGradient id="K" cx="1061.26" cy="1281.9" gradientTransform="matrix(1 0 0 -1 0 1470)" gradientUnits="userSpaceOnUse" r="4.93" xlink:href="#F"/><radialGradient id="L" cx="935.86" cy="1281.9" gradientTransform="matrix(1 0 0 -1 0 1470)" gradientUnits="userSpaceOnUse" r="4.93" xlink:href="#F"/><radialGradient id="M" cx="888.56" cy="1281.9" gradientTransform="matrix(1 0 0 -1 0 1470)" gradientUnits="userSpaceOnUse" r="4.93" xlink:href="#F"/><radialGradient id="N" cx="980.11" cy="1308.01" gradientTransform="matrix(1 0 0 -1 0 1470)" gradientUnits="userSpaceOnUse" r="4.93" xlink:href="#F"/><radialGradient id="O" cx="1072.6246" cy="1133.7222" gradientTransform="matrix(.9357 .3528 .3528 -.9357 -240.6145 844.3791)" gradientUnits="userSpaceOnUse" r="4.9278" xlink:href="#F"/><radialGradient id="P" cx="1328.39" cy="1358.53" gradientTransform="matrix(1 0 0 -1 0 1470)" gradientUnits="userSpaceOnUse" r="4.93" xlink:href="#F"/><linearGradient id="Q"><stop offset=".59" stop-color="#fcea0d"/><stop offset=".64" stop-color="#fbe50e"/><stop offset=".7" stop-color="#fad710"/><stop offset=".77" stop-color="#f7bf14"/><stop offset=".84" stop-color="#f29e19"/><stop offset=".91" stop-color="#ed7420"/><stop offset=".98" stop-color="#e74128"/><stop offset="1" stop-color="#e5332a"/></linearGradient><radialGradient id="R" cx="1344.6899" cy="1334.41" gradientTransform="matrix(1 0 0 -1 0 1470)" gradientUnits="userSpaceOnUse" r="4.93" xlink:href="#Q"/><radialGradient id="S" cx="1365.73" cy="1308.9299" gradientTransform="matrix(1 0 0 -1 0 1470)" gradientUnits="userSpaceOnUse" r="4.93" xlink:href="#F"/><linearGradient id="T"><stop offset=".48" stop-color="#fff"/><stop offset="1" stop-color="#e5332a"/></linearGradient><radialGradient id="U" cx="1068.5601" cy="1358.53" gradientTransform="matrix(1 0 0 -1 0 1470)" gradientUnits="userSpaceOnUse" r="4.93" xlink:href="#T"/><radialGradient id="V" cx="949.45" cy="1308.01" gradientTransform="matrix(1 0 0 -1 0 1470)" gradientUnits="userSpaceOnUse" r="4.93" xlink:href="#T"/><radialGradient id="W" cx="838.08" cy="1281.9" gradientTransform="matrix(1 0 0 -1 0 1470)" gradientUnits="userSpaceOnUse" r="4.93" xlink:href="#T"/><radialGradient id="X" cx="935.86" cy="1308.01" gradientTransform="matrix(1 0 0 -1 0 1470)" gradientUnits="userSpaceOnUse" r="4.93" xlink:href="#T"/><radialGradient id="Y" cx="1251.2" cy="1332.27" gradientTransform="matrix(1 0 0 -1 0 1470)" gradientUnits="userSpaceOnUse" r="4.93" xlink:href="#T"/><radialGradient id="Z" cx="1298.49" cy="1281.9" gradientTransform="matrix(1 0 0 -1 0 1470)" gradientUnits="userSpaceOnUse" r="4.93" xlink:href="#T"/><radialGradient id="aa" cx="1310.9301" cy="1281.9" gradientTransform="matrix(1 0 0 -1 0 1470)" gradientUnits="userSpaceOnUse" r="4.93" xlink:href="#T"/><radialGradient id="ab" cx="1265.72" cy="1332.27" gradientTransform="matrix(1 0 0 -1 0 1470)" gradientUnits="userSpaceOnUse" r="4.93" xlink:href="#T"/><radialGradient id="ac" cx="83.15" cy="1358.53" gradientTransform="matrix(1 0 0 -1 0 1470)" gradientUnits="userSpaceOnUse" r="4.93" xlink:href="#C"/><radialGradient id="ad" cx="116.7" cy="1358.53" gradientTransform="matrix(1 0 0 -1 0 1470)" gradientUnits="userSpaceOnUse" r="4.93" xlink:href="#C"/><radialGradient id="ae" cx="303.96" cy="1358.53" gradientTransform="matrix(1 0 0 -1 0 1470)" gradientUnits="userSpaceOnUse" r="4.93" xlink:href="#F"/><radialGradient id="af" cx="423.96" cy="1308.01" gradientTransform="matrix(1 0 0 -1 0 1470)" gradientUnits="userSpaceOnUse" r="4.93" xlink:href="#F"/><radialGradient id="ag" cx="254.63" cy="1308.01" gradientTransform="matrix(1 0 0 -1 0 1470)" gradientUnits="userSpaceOnUse" r="4.93" xlink:href="#F"/><radialGradient id="ah" cx="379.52" cy="1281.9" gradientTransform="matrix(1 0 0 -1 0 1470)" gradientUnits="userSpaceOnUse" r="4.93" xlink:href="#F"/><radialGradient id="ai" cx="349.74" cy="1281.9" gradientTransform="matrix(1 0 0 -1 0 1470)" gradientUnits="userSpaceOnUse" r="4.93" xlink:href="#F"/><radialGradient id="aj" cx="224.33" cy="1281.9" gradientTransform="matrix(1 0 0 -1 0 1470)" gradientUnits="userSpaceOnUse" r="4.93" xlink:href="#F"/><radialGradient id="ak" cx="177.04" cy="1281.9" gradientTransform="matrix(1 0 0 -1 0 1470)" gradientUnits="userSpaceOnUse" r="4.93" xlink:href="#F"/><radialGradient id="al" cx="268.59" cy="1308.01" gradientTransform="matrix(1 0 0 -1 0 1470)" gradientUnits="userSpaceOnUse" r="4.93" xlink:href="#F"/><radialGradient id="am" cx="406.8503" cy="882.6922" gradientTransform="matrix(.9357 .3528 .3528 -.9357 -240.6145 844.3791)" gradientUnits="userSpaceOnUse" r="4.93" xlink:href="#F"/><radialGradient id="an" cx="616.87" cy="1358.53" gradientTransform="matrix(1 0 0 -1 0 1470)" gradientUnits="userSpaceOnUse" r="4.93" xlink:href="#F"/><radialGradient id="ao" cx="633.17" cy="1334.41" gradientTransform="matrix(1 0 0 -1 0 1470)" gradientUnits="userSpaceOnUse" r="4.93" xlink:href="#Q"/><radialGradient id="ap" cx="654.2" cy="1308.9299" gradientTransform="matrix(1 0 0 -1 0 1470)" gradientUnits="userSpaceOnUse" r="4.93" xlink:href="#F"/><radialGradient id="aq" cx="357.04" cy="1358.53" gradientTransform="matrix(1 0 0 -1 0 1470)" gradientUnits="userSpaceOnUse" r="4.93" xlink:href="#T"/><radialGradient id="ar" cx="237.93" cy="1308.01" gradientTransform="matrix(1 0 0 -1 0 1470)" gradientUnits="userSpaceOnUse" r="4.93" xlink:href="#T"/><radialGradient id="as" cx="126.56" cy="1281.9" gradientTransform="matrix(1 0 0 -1 0 1470)" gradientUnits="userSpaceOnUse" r="4.93" xlink:href="#T"/><radialGradient id="at" cx="224.33" cy="1308.01" gradientTransform="matrix(1 0 0 -1 0 1470)" gradientUnits="userSpaceOnUse" r="4.93" xlink:href="#T"/><radialGradient id="au" cx="539.68" cy="1332.27" gradientTransform="matrix(1 0 0 -1 0 1470)" gradientUnits="userSpaceOnUse" r="4.93" xlink:href="#T"/><radialGradient id="av" cx="586.96" cy="1281.9" gradientTransform="matrix(1 0 0 -1 0 1470)" gradientUnits="userSpaceOnUse" r="4.93" xlink:href="#T"/><radialGradient id="aw" cx="599.41" cy="1281.9" gradientTransform="matrix(1 0 0 -1 0 1470)" gradientUnits="userSpaceOnUse" r="4.93" xlink:href="#T"/><radialGradient id="ax" cx="554.2" cy="1332.27" gradientTransform="matrix(1 0 0 -1 0 1470)" gradientUnits="userSpaceOnUse" r="4.93" xlink:href="#T"/><path d="m682.1 2.5h728.4v1468.3h-728.4z" fill="#3a3a3a"/><path d="m716.7 2.5h696.4v45.6h-696.4z" fill="#488eaa" stroke="#adb8bc" stroke-miterlimit="10" stroke-width="4"/><path d="m711.5 2.5h707.9" fill="none" stroke="#d0eaf9" stroke-miterlimit="10" stroke-width="5"/><path d="m711.5 48.1h707.9" fill="none" stroke="#def0fa" stroke-miterlimit="10" stroke-width="5"/><path d="m954.5 221.4h458.7v212.4h-458.7zm-237.8 0h231.1v413.3h-231.1z" fill="#eeeeef"/><path d="m736.9 231h192.5c8.2 0 14.8 6.6 14.8 14.8v365.9c0 8.2-6.6 14.8-14.8 14.8h-192.5c-8.2 0-14.8-6.6-14.8-14.8v-365.9c0-8.2 6.6-14.8 14.8-14.8z" fill="#3d3d3d"/><path d="m1408.1 244.3 1 174.1c0 8.5-9.7 12.4-18.2 12.4h-415.2c-8.5 0-15.3-6.9-15.3-15.3l-1-174.1c0-8.5 6.9-15.3 15.3-15.3l418.1 2.9c8.4 0 15.3 6.9 15.3 15.3z" fill="#848484"/><path d="m716.7 640.5h696.4v147.9h-696.4zm714.6 392.4h-730.5l15.9-240.8h696.7z" fill="#fff"/><path d="m1417 1030.4h-701.7c-4.1 0-7.5-3.3-7.5-7.5 0-.1 0-.1 0-.2l12.7-219.5c.1-4.1 3.4-7.3 7.5-7.3h673.3c4.1 0 7.4 3.2 7.5 7.3l15.7 219.5c.1 4.1-3.2 7.5-7.3 7.6-.1.1-.1.1-.2.1z" fill="#828282"/><circle cx="739.8" cy="825.9" fill="url(#b)" r="3.8"/><circle cx="766.8" cy="885.5" fill="url(#c)" r="3.8"/><circle cx="779.6" cy="885.5" fill="url(#d)" r="3.8"/><circle cx="792.4" cy="885.5" fill="url(#e)" r="3.8"/><circle cx="805.2" cy="885.5" fill="url(#f)" r="3.8"/><circle cx="830.9" cy="885.5" fill="url(#g)" r="3.8"/><circle cx="842.7" cy="885.5" fill="url(#h)" r="3.8"/><circle cx="854.5" cy="885.5" fill="url(#i)" r="3.8"/><circle cx="895.1" cy="885.5" fill="url(#j)" r="3.8"/><circle cx="933.7" cy="885.5" fill="url(#k)" r="3.8"/><circle cx="752.6" cy="825.9" fill="url(#l)" r="3.8"/><circle cx="765.4" cy="825.9" fill="url(#m)" r="3.8"/><circle cx="778.2" cy="825.9" fill="url(#n)" r="3.8"/><circle cx="791.1" cy="825.9" fill="url(#o)" r="3.8"/><circle cx="803.9" cy="825.9" fill="url(#p)" r="3.8"/><circle cx="816.7" cy="825.9" fill="url(#q)" r="3.8"/><circle cx="829.5" cy="825.9" fill="url(#r)" r="3.8"/><circle cx="842.3" cy="825.9" fill="url(#s)" r="3.8"/><circle cx="855.2" cy="825.9" fill="url(#t)" r="3.8"/><circle cx="1036.4" cy="826.8" fill="url(#u)" r="3.8"/><circle cx="1231.8" cy="826.8" fill="url(#v)" r="3.8"/><circle cx="1356.3" cy="826.8" fill="url(#w)" r="3.8"/><circle cx="1356.3" cy="856.4" fill="url(#x)" r="3.8"/><circle cx="1356.3" cy="886" fill="url(#y)" r="3.8"/><circle cx="1356.3" cy="919" fill="url(#z)" r="3.8"/><circle cx="1036.4" cy="856.4" fill="url(#A)" r="3.8"/><path d="m960.5 410.7v-163.2c0-8.9 7.2-16.1 16.1-16.1h413.4c8.9 0 16.1 7.2 16.1 16.1v163.2c0 8.9-7.2 16.1-16.1 16.1h-413.4c-8.9.1-16.1-7.1-16.1-16.1z" fill="#828282"/><path d="m1023 407.4-8.9-15.8c-.1-.2-.3-.2-.5-.2l-17.1 6c-.6.1-1.2-.4-1.2-1 0-.2 0-.5.1-.7l13.2-14.1c.1-.2.1-.4 0-.5l-11.9-13.5c-.3-.6 0-1.2.5-1.5.2-.1.5-.1.7-.1l15.1 8c.2.1.3 0 .4-.1l11.7-15.4c.4-.4 1.1-.4 1.6 0 .2.2.3.4.3.7l-2.2 18c0 .2.1.3.3.4l17.5 5.1c.5.3.8.9.5 1.5-.1.2-.3.4-.6.5l-18.5 3.3c-.2 0-.3.2-.3.4l1.3 18.4c-.1.6-.7 1-1.3.9-.3 0-.5-.1-.7-.3z" fill="#2e2e2e" stroke="#444" stroke-miterlimit="10" stroke-width="3"/><circle cx="1017.5" cy="383.1" fill="#4c4c4c" r="8.4"/><path d="m1120.8 407.4-8.9-15.8c-.1-.2-.3-.2-.5-.2l-17.1 6c-.6.1-1.2-.4-1.2-1 0-.2 0-.5.1-.7l13.2-14.1c.1-.2.1-.4 0-.5l-11.9-13.5c-.3-.6 0-1.2.5-1.5.2-.1.5-.1.7-.1l15.1 8c.2.1.3 0 .4-.1l11.7-15.4c.4-.4 1.2-.4 1.6.1.2.2.3.4.3.6l-2.2 18c0 .2.1.3.3.4l17.5 5.1c.5.3.7 1 .5 1.5-.1.2-.3.4-.5.5l-18.6 3.2c-.2 0-.3.2-.3.4l1.3 18.4c-.1.6-.7 1-1.3.8-.4.2-.6 0-.7-.1z" fill="#2e2e2e" stroke="#444" stroke-miterlimit="10" stroke-width="3"/><circle cx="1115.3" cy="383.1" fill="#4c4c4c" r="8.4"/><circle cx="1115.4" cy="383.1" fill="none" r="30" stroke="#c7c8c9" stroke-miterlimit="10" stroke-width="10"/><circle cx="1017" cy="383.1" fill="none" r="30" stroke="#c7c8c9" stroke-miterlimit="10" stroke-width="10"/><path d="m1046.8 292.5h40.6v47.7h-40.6z" fill="#2d2d2d"/><path d="m1078.2 290.9 9.2 1.6v47.7h43.1c0-30.1-16.9-53.4-49.8-55.5zm-31.4 2.4 8.9-2.5-2.1-6.2c-32.7 2.2-49.9 25.5-49.9 55.5h43.1z" fill="#3a3a3a"/><path d="m1076.8 293.8-9.5-5.1-9.5 5.1v38.2h19z" fill="#3a3a3a"/><path d="m1255.3 407.4-8.9-15.8c-.1-.2-.3-.2-.5-.2l-17.1 6c-.6.1-1.2-.4-1.2-1 0-.2 0-.5.1-.7l13.2-14.1c.1-.2.1-.4 0-.5l-11.9-13.5c-.3-.6 0-1.2.5-1.5.2-.1.5-.1.7-.1l15.1 8c.2.1.3 0 .4-.1l11.7-15.4c.4-.4 1.2-.4 1.6.1.2.2.3.4.3.6l-2.2 18c0 .2.1.3.3.4l17.5 5.1c.5.3.7 1 .5 1.5-.1.2-.3.4-.5.5l-18.6 3.2c-.2 0-.3.2-.3.4l1.3 18.4c-.1.6-.7 1-1.3.9-.3.1-.5 0-.7-.2z" fill="#2e2e2e" stroke="#444" stroke-miterlimit="10" stroke-width="3"/><circle cx="1249.8" cy="383.1" fill="#4c4c4c" r="8.4"/><path d="m1353.1 407.4-8.9-15.8c-.1-.2-.3-.2-.5-.2l-17.1 6c-.6.1-1.2-.4-1.2-1 0-.2 0-.5.1-.7l13.2-14.1c.1-.2.1-.4 0-.5l-11.9-13.5c-.3-.6 0-1.2.5-1.5.2-.1.5-.1.7-.1l15.1 8c.2.1.3 0 .4-.1l11.7-15.4c.4-.4 1.2-.4 1.6.1.2.2.3.4.3.6l-2.2 18c0 .2.1.4.3.4l17.5 5.1c.5.3.7 1 .5 1.5-.1.2-.3.4-.5.5l-18.7 3.3c-.2 0-.3.2-.3.4l1.3 18.4c-.1.6-.7 1-1.3.9-.3 0-.5-.2-.6-.3z" fill="#2e2e2e" stroke="#444" stroke-miterlimit="10" stroke-width="3"/><circle cx="1347.6" cy="383.1" fill="#4c4c4c" r="8.4"/><circle cx="1347.7" cy="383.1" fill="none" r="30" stroke="#c7c8c9" stroke-miterlimit="10" stroke-width="10"/><circle cx="1249.3" cy="383.1" fill="none" r="30" stroke="#c7c8c9" stroke-miterlimit="10" stroke-width="10"/><path d="m1278.1 292.5h40.6v47.7h-40.6z" fill="#2d2d2d"/><path d="m1309.5 290.9 9.2 1.6v47.7h43.1c0-30.1-16.9-53.4-49.8-55.5zm-31.4 2.4 8.9-2.5-2.1-6.2c-32.7 2.2-49.9 25.5-49.9 55.5h43.1z" fill="#3a3a3a"/><path d="m1308.1 293.8-9.5-5.1-9.5 5.1v38.2h19z" fill="#727272"/><path d="m988.1 237.8h163.3c1.7 0 3.1 1.4 3.1 3.1v34.3c0 1.7-1.4 3.1-3.1 3.1h-163.3c-1.7 0-3.1-1.4-3.1-3.1v-34.3c0-1.8 1.4-3.1 3.1-3.1z" fill="none" stroke="#fff" stroke-miterlimit="10"/><path d="m1010.1 272.9h-6.2c-.7 0-1.2-.5-1.3-1.1l-1.1-10.8v-16.7h11.1v16.7l-1.2 10.8c-.1.6-.7 1.1-1.3 1.1z" fill="#353535"/><path d="m1002.2 260.6v-15.5h9.6v15.5" fill="#6c6c6c"/><path d="m1004.3 254.2-2.1-9.1h9.6l-2.1 9.1z" fill="#959495"/><path d="m1002.2 260.7h9.6l-1.4-7.1c-.2-.8-.8-1.3-1.6-1.4h-3.4c-.8 0-1.5.5-1.6 1.3z" fill="#606060"/><path d="m1011.9 261-1 10c0 .7-.6 1.3-1.3 1.3h-5c-.7 0-1.3-.6-1.3-1.3l-1-10z" fill="#bfbebf"/><path d="m1105.2 244.2h6.2c.7 0 1.2.5 1.3 1.1l1.1 10.8v16.7h-11.1v-16.7l1.2-10.8c.1-.6.6-1.1 1.3-1.1z" fill="#353535"/><path d="m1113.1 256.5v15.5h-9.6v-15.5" fill="#6c6c6c"/><path d="m1111 262.8 2.1 9.1h-9.6l2.1-9.1z" fill="#606060"/><path d="m1113.1 256.5h-9.6l1.4 7.1c.1.8.8 1.3 1.6 1.3h3.4c.8 0 1.5-.5 1.6-1.3z" fill="#bfbebf"/><path d="m1103.4 256.1.9-10c0-.7.6-1.3 1.3-1.3h5c.7 0 1.3.6 1.3 1.3l1 10z" fill="#848484"/><path d="m1133.8 244.2h6.2c.7 0 1.2.5 1.3 1.1l1.1 10.8v16.7h-11.1v-16.7l1.2-10.8c.1-.6.6-1.1 1.3-1.1z" fill="#353535"/><path d="m1141.7 256.5v15.5h-9.6v-15.5" fill="#6c6c6c"/><path d="m1139.6 262.8 2.1 9.1h-9.6l2.1-9.1z" fill="#606060"/><path d="m1141.7 256.5h-9.7l1.4 7.1c.2.8.8 1.3 1.6 1.3h3.4c.8 0 1.5-.5 1.6-1.3z" fill="#bfbebf"/><path d="m1132 256.1 1-10c0-.7.6-1.3 1.3-1.3h5.1c.7 0 1.3.6 1.3 1.3l1 10z" fill="#848484"/><path d="m1051.2 246.3h15.9c1.9 0 3.5 1.6 3.5 3.5v11.9c0 1.9-1.6 3.5-3.5 3.5h-15.9c-1.9 0-3.5-1.6-3.5-3.5v-11.9c0-1.9 1.5-3.5 3.5-3.5z" fill="#303031"/><path d="m1221.8 237.8h163.3c1.7 0 3.1 1.4 3.1 3.1v34.3c0 1.7-1.4 3.1-3.1 3.1h-163.3c-1.7 0-3.1-1.4-3.1-3.1v-34.3c0-1.8 1.4-3.1 3.1-3.1z" fill="none" stroke="#fff" stroke-miterlimit="10"/><path d="m1243.7 272.9h-6.2c-.7 0-1.2-.5-1.3-1.1l-1.1-10.8v-16.7h11.1v16.7l-1.2 10.8c-.1.6-.6 1.1-1.3 1.1z" fill="#353535"/><path d="m1235.8 260.6v-15.5h9.6v15.5" fill="#6c6c6c"/><path d="m1237.9 254.2-2.1-9.1h9.6l-2.1 9.1z" fill="#959495"/><path d="m1235.8 260.7h9.6l-1.4-7.1c-.2-.8-.8-1.3-1.6-1.4h-3.5c-.8 0-1.5.5-1.6 1.3z" fill="#606060"/><path d="m1245.5 261-1 10c0 .7-.6 1.3-1.3 1.3h-5c-.7 0-1.3-.6-1.3-1.3l-.9-10z" fill="#bfbebf"/><path d="m1338.8 244.2h6.2c.7 0 1.2.5 1.3 1.1l1.1 13.8-2 13.7h-7.1l-2-13.7 1.2-13.8c.1-.6.7-1.1 1.3-1.1z" fill="#353535"/><path d="m1346.7 260.1h-9.6l1.4 9.9c.2 1.3.8 2.2 1.6 2.2h3.4c.8 0 1.5-.9 1.6-2.2z" fill="#bfbebf"/><path d="m1337.1 259.1 1-13c0-.7.6-1.3 1.3-1.3h5.1c.7 0 1.3.6 1.3 1.3l1 13z" fill="#848484"/><path d="m1367.4 244.2h6.2c.7 0 1.2.5 1.3 1.1l1.1 10.8v16.7h-11.1v-16.7l1.2-10.8c.1-.6.7-1.1 1.3-1.1z" fill="#353535"/><path d="m1375.3 256.5v15.5h-9.6v-15.5" fill="#6c6c6c"/><path d="m1373.2 262.8 2.1 9.1h-9.6l2.1-9.1z" fill="#606060"/><path d="m1375.3 256.5h-9.6l1.4 7.1c.2.8.8 1.3 1.6 1.3h3.4c.8 0 1.5-.5 1.6-1.3z" fill="#bfbebf"/><path d="m1365.7 256.1 1-10c0-.7.6-1.3 1.3-1.3h5c.7 0 1.3.6 1.3 1.3l1 10z" fill="#848484"/><path d="m1284.8 246.3h15.9c1.9 0 3.5 1.6 3.5 3.5v11.9c0 1.9-1.6 3.5-3.5 3.5h-15.9c-1.9 0-3.5-1.6-3.5-3.5v-11.9c0-1.9 1.6-3.5 3.5-3.5z" fill="#303031"/><path d="m733.4 645.8h661.8c6.4 0 11.6 5.2 11.6 11.6v115.6c0 6.4-5.2 11.6-11.6 11.6h-661.8c-6.4 0-11.6-5.2-11.6-11.6v-115.6c0-6.4 5.2-11.6 11.6-11.6z" fill="#707070"/><path d="m723.4 1075.4h681.8c.9 0 1.6.7 1.6 1.6v385.4c0 .9-.7 1.6-1.6 1.6h-681.8c-.9 0-1.6-.7-1.6-1.6v-385.4c0-.9.7-1.6 1.6-1.6z" fill="#488eaa"/><path d="m740.8 669.2h12.8v11.8h-12.8z" fill="#81f2cc"/><path d="m756.2 669.2h12.8v11.8h-12.8z" fill="#80cef4"/><path d="m771.6 669.2h12.8v11.8h-12.8z" fill="#81f2cc"/><path d="m787 669.2h12.8v11.8h-12.8z" fill="#81f2cc"/><path d="m802.4 669.2h12.8v11.8h-12.8z" fill="#80cef4"/><path d="m817.8 669.2h12.8v11.8h-12.8z" fill="#81f2cc"/><path d="m833.2 669.2h12.8v11.8h-12.8z" fill="#81f2cc"/><path d="m848.6 669.2h12.8v11.8h-12.8z" fill="#80cef4"/><path d="m864 669.2h12.8v11.8h-12.8z" fill="#80cef4"/><path d="m756.2 708h12.8v11.9h-12.8z" fill="#80cef4"/><path d="m740.8 708h12.8v11.9h-12.8z" fill="#80cef4"/><path d="m771.6 708h12.8v11.9h-12.8z" fill="#81f2cc"/><path d="m787 708h12.8v11.9h-12.8z" fill="#81f2cc"/><path d="m802.4 708h12.8v11.9h-12.8z" fill="#80cef4"/><path d="m817.8 708h12.8v11.9h-12.8z" fill="#80cef4"/><path d="m833.2 708h12.8v11.9h-12.8z" fill="#81f2cc"/><path d="m848.6 708h12.8v11.9h-12.8z" fill="#80cef4"/><path d="m864 708h12.8v11.9h-12.8z" fill="#80cef4"/><path d="m787.4 748.4h12.8v11.9h-12.8z" fill="#ed998e"/><path d="m772 748.4h12.8v11.9h-12.8z" fill="#80cef4"/><path d="m802.8 748.4h12.8v11.9h-12.8z" fill="#81f2cc"/><path d="m818.2 748.4h12.8v11.9h-12.8z" fill="#ffba1f"/><path d="m1177.2 762.8h12.8v11.9h-12.8z" fill="#ed998e"/><path d="m1161.8 762.8h12.8v11.9h-12.8z" fill="#80cef4"/><path d="m1192.6 762.8h12.8v11.9h-12.8z" fill="#81f2cc"/><path d="m1208 762.8h12.8v11.9h-12.8z" fill="#ffba1f"/><path d="m833.6 748.4h12.8v11.9h-12.8z" fill="#ffba1f"/><path d="m849 748.4h12.8v11.9h-12.8z" fill="#80cef4"/><path d="m864.4 748.4h12.8v11.9h-12.8z" fill="#81f2cc"/><path d="m993.3 950.2h12.8v11.9h-12.8z" fill="#81f2cc"/><path d="m1015.8 950.2h12.8v11.9h-12.8z" fill="#80cef4"/><path d="m1038.4 950.2h12.8v11.9h-12.8z" fill="#81f2cc"/><path d="m1061 950.2h12.8v11.9h-12.8z" fill="#e2e2e2"/><path d="m1083.6 950.2h12.8v11.9h-12.8z" fill="#e2e2e2"/><path d="m1106.1 950.2h12.8v11.9h-12.8z" fill="#e2e2e2"/><path d="m1128.7 950.2h12.8v11.9h-12.8z" fill="#80cef4"/><path d="m1151.9 950.2h12.8v11.9h-12.8z" fill="#81f2cc"/><path d="m1175.8 950.2h12.8v11.9h-12.8z" fill="#81f2cc"/><path d="m1199.6 950.2h12.8v11.9h-12.8z" fill="#81f2cc"/><path d="m1247.4 950.2h12.8v11.9h-12.8z" fill="#81f2cc"/><path d="m1271.2 950.2h12.8v11.9h-12.8z" fill="#81f2cc"/><path d="m1295.1 950.2h12.8v11.9h-12.8z" fill="#81f2cc"/><path d="m1319 950.2h12.8v11.9h-12.8z" fill="#81f2cc"/><path d="m1342.8 950.2h12.8v11.9h-12.8z" fill="#81f2cc"/><path d="m1224.1 950.2h12.8v11.9h-12.8z" fill="#e5e5e5"/><path d="m732.3 978.7h12.8v11.9h-12.8z" fill="#80cef4"/><path d="m754.9 978.7h12.8v11.9h-12.8z" fill="#e2e2e2"/><path d="m777.5 978.7h12.8v11.9h-12.8z" fill="#e2e2e2"/><path d="m800 978.7h12.8v11.9h-12.8z" fill="#e2e2e2"/><path d="m822.6 978.7h12.8v11.9h-12.8z" fill="#81f2cc"/><path d="m845.2 978.7h12.8v11.9h-12.8z" fill="#80cef4"/><path d="m867.8 978.7h12.8v11.9h-12.8z" fill="#80cef4"/><path d="m891 978.7h12.8v11.9h-12.8z" fill="#81f2cc"/><path d="m914.8 978.7h12.8v11.9h-12.8z" fill="#81f2cc"/><path d="m938.7 978.7h12.8v11.9h-12.8z" fill="#80cef4"/><path d="m986.4 978.7h12.8v11.9h-12.8z" fill="#e2e2e2"/><path d="m1010.3 978.7h12.8v11.9h-12.8z" fill="#e2e2e2"/><path d="m1034.2 978.7h12.8v11.9h-12.8z" fill="#80cef4"/><path d="m1058 978.7h12.8v11.9h-12.8z" fill="#81f2cc"/><path d="m1081.9 978.7h12.8v11.9h-12.8z" fill="#81f2cc"/><path d="m963.2 978.7h12.8v11.9h-12.8z" fill="#ed998e"/><path d="m1106.2 978.7h12.8v11.9h-12.8z" fill="#80cef4"/><path d="m1128.8 978.7h12.8v11.9h-12.8z" fill="#80cef4"/><path d="m1151.3 978.7h12.8v11.9h-12.8z" fill="#81f2cc"/><path d="m1173.9 978.7h12.8v11.9h-12.8z" fill="#80cef4"/><path d="m1196.5 978.7h12.8v11.9h-12.8z" fill="#e2e2e2"/><path d="m1219.1 978.7h12.8v11.9h-12.8z" fill="#e2e2e2"/><path d="m1241.6 978.7h12.8v11.9h-12.8z" fill="#80cef4"/><path d="m1264.9 978.7h12.8v11.9h-12.8z" fill="#e2e2e2"/><path d="m1288.7 978.7h12.8v11.9h-12.8z" fill="#e2e2e2"/><path d="m1312.6 978.7h12.8v11.9h-12.8z" fill="#81f2cc"/><path d="m1337.1 978.7h12.8v11.9h-12.8z" fill="#e5e5e5"/><path d="m907.1 1013.2h12.8v11.9h-12.8z" fill="#e2e2e2"/><path d="m929.7 1013.2h12.8v11.9h-12.8z" fill="#e2e2e2"/><path d="m952.3 1013.2h12.7v11.9h-12.8v-11.9z" fill="#81f2cc"/><path d="m997.4 1013.2h12.8v11.9h-12.8z" fill="#e2e2e2"/><path d="m1020 1013.2h12.8v11.9h-12.8z" fill="#80cef4"/><path d="m1042.6 1013.2h12.8v11.9h-12.8z" fill="#80cef4"/><path d="m1089.6 1013.2h12.8v11.9h-12.8z" fill="#81f2cc"/><path d="m1113.5 1013.2h12.8v11.9h-12.8z" fill="#e2e2e2"/><path d="m1161.2 1013.2h12.8v11.9h-12.8z" fill="#81f2cc"/><path d="m1185.1 1013.2h12.8v11.9h-12.8z" fill="#80cef4"/><path d="m1209 1013.2h12.8v11.9h-12.8z" fill="#80cef4"/><path d="m1232.8 1013.2h12.8v11.9h-12.8z" fill="#81f2cc"/><path d="m1256.7 1013.2h12.8v11.9h-12.8z" fill="#80cef4"/><path d="m1138 1013.2h12.8v11.9h-12.8z" fill="#e5e5e5"/><path d="m888.3 656h49.3v118.7h-49.3zm59.5 0h204.9v118.7h-204.9zm282.7 0h154.5v118.7h-154.5zm-69.3 0h60.4v77.3h-60.4z" fill="none" stroke="#fff" stroke-miterlimit="10"/><circle cx="984" cy="728.2" fill="#353535" r="18.5"/><path d="m971.6 714.5 6.6 7.1" fill="none" stroke="#fff" stroke-miterlimit="10" stroke-width="2"/><path d="m1114.1 707.8v-6.8m-18.2 18.5-5.3-2.5m42 2.5 5.3-2.5m-39-2.9-4.2-3.9m7.8.6-3.2-4.8m8.9 2.5-1.8-5.9m22.7 11.7 4.2-3.9m-7.8.5 3.2-4.8m-8.9 2.5 1.8-5.9" fill="none" stroke="#fff" stroke-miterlimit="10"/><circle cx="1114.1" cy="728.2" fill="#353535" r="18.5"/><path d="m1111.4 709.7 1.2 8.5" fill="none" stroke="#fff" stroke-miterlimit="10" stroke-width="2"/><path d="m1257.1 714.1-4.2-3.9m13.5-1.7-1.8-5.9m22.7 11.7 4.2-3.9m-13.4-1.8 1.8-5.9" fill="none" stroke="#fff" stroke-miterlimit="10"/><circle cx="1272.3" cy="728.2" fill="#353535" r="18.5"/><path d="m1289.3 720.3-7.8 3.6" fill="none" stroke="#fff" stroke-miterlimit="10" stroke-width="2"/><path d="m1323.7 714.1-4.2-3.9m13.4-1.7-1.8-5.9m22.8 11.7 4.2-3.9m-13.5-1.8 1.8-5.9" fill="none" stroke="#fff" stroke-miterlimit="10"/><circle cx="1338.9" cy="728.2" fill="#353535" r="18.5"/><path d="m1349.5 712.8-4.9 7.1" fill="none" stroke="#fff" stroke-miterlimit="10" stroke-width="2"/><path d="m1011 670.4h75.8c.6 0 1.1.5 1.1 1.1v25.6c0 .6-.5 1.1-1.1 1.1h-75.8c-.6 0-1.1-.5-1.1-1.1v-25.6c0-.6.5-1.1 1.1-1.1z" fill="#fff"/><path d="m1018.8 683.8s11.4-8.6 30.1-8.6 28.9 8.6 28.9 8.6" fill="none" stroke="#1d1d1b" stroke-miterlimit="10" stroke-width=".75"/><g clip-path="url(#B)"><path d="m1023.4 677.6 23.8 26.2" fill="none" stroke="#1d1d1b" stroke-miterlimit="10"/></g><path d="m1048.9 672.5v5.1m3.9-.5.2-3.3m-7.8 3.2-.4-3.3m-3.3 3.7-.4-3.3m-2.6 3.7-.8-3.2m-2.2 4-1-3.2m-2 3.9-1.2-3.1m24.7 1.2.4-3.3m2.7 3.7.8-3.2m2.2 4 1-3.2m2 3.9 1.2-3.1" fill="none" stroke="#1d1d1b" stroke-miterlimit="10" stroke-width=".5"/><path d="m1039.4 698.2h-11.6l22.4-27.8h11.1" fill="#009ee2" opacity=".22"/><path d="m754 654.1h14.3v5.6h-14.3zm31.5 5.6h45.8v5.6h-45.8zm30.5-5.6h29.6v5.6h-29.6z" fill="#b5e6ea" stroke="#fff" stroke-miterlimit="10" stroke-width=".5"/><path d="m875.6 665.3v-8c0-1.8-1.4-3.2-3.2-3.2h-128.6c-1.8 0-3.2 1.4-3.2 3.2v8" fill="none" stroke="#fff" stroke-miterlimit="10" stroke-width=".75"/><path d="m740.6 659.7h134.5" fill="none" stroke="#fff" stroke-miterlimit="10" stroke-width=".75"/><path d="m907.2 996.5h10.5v6.7h-11.8v-5.4c0-.7.6-1.3 1.3-1.3zm46 0h13.2v6.7h-13.2z" fill="#acb766" stroke="#fff" stroke-miterlimit="10" stroke-width=".5"/><path d="m917.8 996.5h11.8v6.7h-11.8z" fill="#50859a" stroke="#fff" stroke-miterlimit="10" stroke-width=".5"/><path d="m930.5 999.8h10.9v3.3h-11.8v-2.4c-.1-.5.4-.9.9-.9z" fill="#acb766" stroke="#fff" stroke-miterlimit="10" stroke-width=".5"/><path d="m941.4 999.8h11.8v3.3h-11.8z" fill="#50859a" stroke="#fff" stroke-miterlimit="10" stroke-width=".5"/><path d="m929.6 996.5h23.6v3h-23.6z" fill="#acb766" stroke="#fff" stroke-miterlimit="10" stroke-width=".5"/><path d="m966.4 1009.9v-13.4h-60.5v13.4m0-6.7h60.5" fill="none" stroke="#fff" stroke-miterlimit="10" stroke-width=".75"/><path d="m1076.5 670.4h10.3c.6 0 1.1.5 1.1 1.1v25.7c0 .6-.5 1.1-1 1.1h-31.8" fill="#00e085" opacity=".22"/><path d="m1020 698.2h-9c-.6 0-1.1-.5-1.1-1.1v-25.7c0-.6.5-1.1 1.1-1.1h32.7z" fill="#009ee2" opacity=".22"/><g stroke-miterlimit="10"><path d="m994.7 996.5h11.2v6.7h-12.6v-5.4c0-.7.6-1.3 1.4-1.3zm48.9 0h12.6v6.7h-12.6z" fill="#acb766" stroke="#fff" stroke-width=".5"/><path d="m1005.9 996.5h12.6v6.7h-12.6z" fill="#50859a" stroke="#fff" stroke-width=".5"/><path d="m1019.4 999.8h11.6v3.3h-12.6v-2.4c0-.4.4-.9 1-.9z" fill="#acb766" stroke="#fff" stroke-width=".5"/><path d="m1031.1 999.8h12.6v3.3h-12.6z" fill="#50859a" stroke="#fff" stroke-width=".5"/><path d="m1018.5 996.5h25.1v3h-25.1z" fill="#acb766" stroke="#fff" stroke-width=".5"/><path d="m1056.2 1009.9v-13.4h-62.8v13.4m-.1-6.7h62.8" fill="none" stroke="#fff" stroke-width=".75"/><path d="m1091.2 996.5h16.7v6.7h-18.3v-5.1c0-.9.8-1.6 1.6-1.6zm71.5 0h18.3v6.7h-18.3z" fill="#acb766" stroke="#fff" stroke-width=".5"/><path d="m1107.9 996.5h18.2v6.7h-18.2zm73.6 0h18.2v6.7h-18.2z" fill="#50859a" stroke="#fff" stroke-width=".5"/><path d="m1199.4 996.5h18.3v6.7h-18.3z" fill="#acb766" stroke="#fff" stroke-width=".5"/><path d="m1218.2 996.5h18.2v6.7h-18.2z" fill="#50859a" stroke="#fff" stroke-width=".5"/><path d="m1237.1 996.5h18.3v6.7h-18.3z" fill="#acb766" stroke="#fff" stroke-width=".5"/><path d="m1255.9 996.5h18.2v6.7h-18.2z" fill="#50859a" stroke="#fff" stroke-width=".5"/><path d="m1127.3 999.8h17.1v3.3h-18.3v-2.2c0-.5.5-1 1.2-1.1-.1 0 0 0 0 0z" fill="#acb766" stroke="#fff" stroke-width=".5"/><path d="m1144.4 999.8h18.2v3.3h-18.2z" fill="#50859a" stroke="#fff" stroke-width=".5"/><path d="m1126.2 996.5h36.5v3h-36.5z" fill="#acb766" stroke="#fff" stroke-width=".5"/><path d="m1274.1 1009.9v-13.4h-184.5v13.4m0-6.7h184.6" fill="none" stroke="#fff" stroke-width=".75"/></g><path d="m1006.8 932.7h14.7v5.8h-14.7zm32.3 5.8h46.9v5.8h-46.9z" fill="#80cde9"/><path d="m1070.3 932.7h292.4c1.7 0 3 1.3 3 3v2.8h-295.4z" fill="#80cde9"/><path d="m1365.7 944.2v-8.2c0-1.8-1.5-3.3-3.3-3.3h-366c-1.8 0-3.3 1.5-3.3 3.3v8.2" fill="none" stroke="#fff" stroke-miterlimit="10" stroke-width=".75"/><path d="m993.1 938.5h372.1" fill="none" stroke="#fff" stroke-miterlimit="10" stroke-width=".75"/><path d="m754 695.3h14.3v5.6h-14.3zm31.5 5.6h45.8v5.6h-45.8zm30.5-5.6h29.6v5.6h-29.6z" fill="#b5e6ea" stroke="#fff" stroke-miterlimit="10" stroke-width=".5"/><path d="m875.6 706.5v-8c0-1.8-1.4-3.2-3.2-3.2h-128.6c-1.8 0-3.2 1.4-3.2 3.2v8" fill="none" stroke="#fff" stroke-miterlimit="10" stroke-width=".75"/><path d="m740.6 700.9h134.5" fill="none" stroke="#fff" stroke-miterlimit="10" stroke-width=".75"/><path d="m783.6 735.3h14.3v5.6h-14.3zm31.5 5.6h45.8v5.6h-45.8z" fill="#b5e6ea" stroke="#fff" stroke-miterlimit="10" stroke-width=".5"/><path d="m845.6 735.3h27.3c1.3 0 2.3 1 2.3 2.3v3.3h-29.6z" fill="#b2b2b2" stroke="#fff" stroke-miterlimit="10" stroke-width=".5"/><path d="m875.6 746.5v-8c0-1.8-1.4-3.2-3.2-3.2h-99c-1.8 0-3.2 1.4-3.2 3.2v8" fill="none" stroke="#fff" stroke-miterlimit="10" stroke-width=".75"/><path d="m770.2 740.9h104.9" fill="none" stroke="#fff" stroke-miterlimit="10" stroke-width=".75"/><path d="m1167.6 746.7h8.4v5.6h-8.4zm18.4 5.6h26.9v5.6h-26.9zm18-5.6h15.6c1 0 1.8.8 1.8 1.8v3.8h-17.4z" fill="#b2b2b2" stroke="#fff" stroke-miterlimit="10" stroke-width=".5"/><path d="m1221.6 757.9v-8c0-1.8-.8-3.2-1.9-3.2h-58.2c-1 0-1.9 1.4-1.9 3.2v8" fill="none" stroke="#fff" stroke-miterlimit="10" stroke-width=".75"/><path d="m1159.7 752.3h61.7" fill="none" stroke="#fff" stroke-miterlimit="10" stroke-width=".75"/><path d="m1167.6 682h47.4v12.6h-47.4z" fill="#151515"/><path d="m732 813.8h130.4v7.4h-130.4z" fill="#fff"/><path d="m734.3 815.8h10.9v3.6h-10.9zm12.9 0h10.8v3.6h-10.9v-3.6zm12.8 0h10.9v3.6h-10.9zm12.8 0h10.9v3.6h-10.9zm12.8 0h10.9v3.6h-10.9zm12.9 0h10.9v3.6h-10.9zm12.8 0h10.9v3.6h-10.9zm12.8 0h10.9v3.6h-10.9zm12.8 0h10.9v3.6h-10.9zm12.8 0h10.9v3.6h-10.9z" fill="#7f7944"/><path d="m732 873.6h130.4v6.7h-130.4z" fill="#fff"/><path d="m734.3 874.9h10.9v3.6h-10.9zm12.9 0h11.8v3.6h-11.8zm13.8 0h10.9v3.6h-10.9z" fill="#80cde9"/><path d="m773.8 874.9h24.7v3.6h-24.7z" fill="#437b88"/><path d="m799.4 874.9h10.9v3.6h-10.9z" fill="#80cde9"/><path d="m811.8 874.9h10.9v3.6h-10.9zm12.3 0h10.9v3.6h-10.9z" fill="#437b88"/><path d="m836.9 874.9h10.9v3.6h-10.9zm12.8 0h10.9v3.6h-10.9z" fill="#80cde9"/><path d="m1259 873.6h105v6.7h-105z" fill="#fff"/><path d="m1261.4 874.9h10.9v3.6h-10.9zm12.8 0h11.8v3.6h-11.8zm13.8 0h10.9v3.6h-10.9z" fill="#80cde9"/><path d="m1300.8 874.9h24.7v3.6h-24.7z" fill="#437b88"/><path d="m1326.4 874.9h10.9v3.6h-10.9z" fill="#80cde9"/><path d="m1338.8 874.9h10.9v3.6h-10.9zm12.3 0h10.9v3.6h-10.9z" fill="#437b88"/><path d="m859.3 873.6h130.4v6.7h-130.4z" fill="#fff"/><path d="m861.7 874.9h10.9v3.6h-10.9zm12.8 0h11.8v3.6h-11.8zm13.8 0h10.9v3.6h-10.9z" fill="#80cde9"/><path d="m901.2 874.9h24.7v3.6h-24.7z" fill="#437b88"/><path d="m926.8 874.9h10.9v3.6h-10.9z" fill="#80cde9"/><path d="m939.2 874.9h10.8v3.6h-10.9v-3.6zm12.3 0h10.9v3.6h-10.9z" fill="#437b88"/><path d="m964.3 874.9h10.9v3.6h-10.9zm12.8 0h10.9v3.6h-10.9z" fill="#80cde9"/><path d="m994 873.6h130.4v6.7h-130.4z" fill="#fff"/><path d="m996.5 874.9h10.9v3.6h-10.9zm12.8 0h11.8v3.6h-11.8z" fill="#80cde9"/><path d="m1023.1 874.9h10.9v3.6h-10.9z" fill="#437b88"/><path d="m1027.9 938.7h10.9v5.4h-10.9zm91.1 0h10.9v5.4h-10.9zm10.8 0h26.8v5.4h-26.8z" fill="#437b88" stroke="#fff" stroke-miterlimit="10" stroke-width=".5"/><path d="m1156.7 938.7h10.9v5.4h-10.9z" fill="#437b88" stroke="#fff" stroke-miterlimit="10" stroke-width=".5"/><path d="m1086.2 938.5h10.9v5.4h-10.9zm10.8 0h10.9v5.4h-10.9zm10.9 0h10.9v5.4h-10.9z" fill="#80cde9" stroke="#fff" stroke-miterlimit="10" stroke-width=".75"/><path d="m1223.9 938.7h10.9v5.4h-10.9z" fill="#437b88" stroke="#fff" stroke-miterlimit="10" stroke-width=".5"/><path d="m1234.8 938.7h26.8v5.4h-26.8zm26.8 0h10.9v5.4h-10.9z" fill="#437b88" stroke="#fff" stroke-miterlimit="10" stroke-width=".5"/><path d="m1167.5 938.5h45.3v5.4h-45.3zm45.4 0h10.9v5.4h-10.9zm83 0h45.3v5.4h-45.3zm45.3 0h10.9v5.4h-10.9z" fill="#80cde9" stroke="#fff" stroke-miterlimit="10" stroke-width=".75"/><path d="m1017 938.7h10.9v5.4h-10.9z" fill="#437b88" stroke="#fff" stroke-miterlimit="10" stroke-width=".5"/><path d="m1006.2 938.7h10.9v5.4h-10.9z" fill="#437b88" stroke="#fff" stroke-miterlimit="10" stroke-width=".5"/><path d="m993.1 938.7h13.1v5.4h-13.1z" fill="#80cde9" stroke="#fff" stroke-miterlimit="10" stroke-width=".5"/><path d="m1035.9 874.9h24.7v3.6h-24.7zm25.6 0h10.9v3.6h-10.9z" fill="#80cde9"/><path d="m1073.9 874.9h10.9v3.6h-10.9zm12.3 0h10.9v3.6h-10.9z" fill="#437b88"/><path d="m1099 874.9h10.9v3.6h-10.9zm12.8 0h10.9v3.6h-10.9z" fill="#80cde9"/><path d="m1121.4 873.6h130.4v6.7h-130.4z" fill="#fff"/><path d="m1123.8 874.9h10.9v3.6h-10.9z" fill="#437b88"/><path d="m1136.6 874.9h11.8v3.6h-11.8zm13.8 0h10.9v3.6h-10.9z" fill="#80cde9"/><path d="m1163.2 874.9h24.7v3.6h-24.7z" fill="#437b88"/><path d="m1188.9 874.9h10.9v3.6h-10.9z" fill="#80cde9"/><path d="m1201.2 874.9h10.9v3.6h-10.9zm12.4 0h10.9v3.6h-10.9z" fill="#437b88"/><path d="m1226.4 874.9h10.9v3.6h-10.9zm12.8 0h10.9v3.6h-10.9z" fill="#80cde9"/><path d="m1096.6 843.8h130.4v6.7h-130.4z" fill="#fff"/><path d="m1099 845.2h10.9v3.6h-10.9z" fill="#437b88"/><path d="m1111.8 845.2h11.8v3.6h-11.8zm13.8 0h10.9v3.6h-10.9z" fill="#80cde9"/><path d="m1138.4 845.2h24.7v3.6h-24.7z" fill="#437b88"/><path d="m1164 845.2h10.9v3.6h-10.9z" fill="#80cde9"/><path d="m1176.4 845.2h10.9v3.6h-10.9zm12.3 0h10.9v3.6h-10.9z" fill="#437b88"/><path d="m1201.5 845.2h10.9v3.6h-10.9zm12.8 0h10.9v3.6h-10.9z" fill="#80cde9"/><path d="m1233.2 843.8h130.4v6.7h-130.4z" fill="#fff"/><path d="m1235.6 845.2h10.9v3.6h-10.9z" fill="#437b88"/><path d="m1248.4 845.2h11.8v3.6h-11.8zm13.8 0h10.9v3.6h-10.9z" fill="#80cde9"/><path d="m1275 845.2h24.7v3.6h-24.7z" fill="#437b88"/><path d="m1300.7 845.2h10.9v3.6h-10.9z" fill="#80cde9"/><path d="m1313 845.2h10.9v3.6h-10.9zm12.3 0h10.9v3.6h-10.9z" fill="#437b88"/><path d="m1338.2 845.2h10.9v3.6h-10.9zm12.8 0h10.9v3.6h-10.9z" fill="#80cde9"/><path d="m732 905.9h130.4v6.7h-130.4z" fill="#fff"/><path d="m734.3 907.3h10.9v3.6h-10.9zm12.9 0h11.8v3.6h-11.8zm13.8 0h10.9v3.6h-10.9z" fill="#80cde9"/><path d="m773.8 907.3h24.7v3.6h-24.7z" fill="#437b88"/><path d="m799.4 907.3h10.9v3.6h-10.9z" fill="#80cde9"/><path d="m811.8 907.3h10.9v3.6h-10.9zm12.3 0h10.9v3.6h-10.9z" fill="#437b88"/><path d="m836.9 907.3h10.9v3.6h-10.9zm12.8 0h10.9v3.6h-10.9z" fill="#80cde9"/><path d="m1259 905.9h105v6.7h-105z" fill="#fff"/><path d="m1261.4 907.3h10.9v3.6h-10.9zm12.8 0h11.8v3.6h-11.8zm13.8 0h10.9v3.6h-10.9z" fill="#80cde9"/><path d="m1300.8 907.3h24.7v3.6h-24.7z" fill="#437b88"/><path d="m1326.4 907.3h10.9v3.6h-10.9z" fill="#80cde9"/><path d="m1338.8 907.3h10.9v3.6h-10.9zm12.3 0h10.9v3.6h-10.9z" fill="#437b88"/><path d="m859.3 905.9h130.4v6.7h-130.4z" fill="#fff"/><path d="m861.7 907.3h10.9v3.6h-10.9zm12.8 0h11.8v3.6h-11.8zm13.8 0h10.9v3.6h-10.9z" fill="#80cde9"/><path d="m901.2 907.3h24.7v3.6h-24.7z" fill="#437b88"/><path d="m926.8 907.3h10.9v3.6h-10.9z" fill="#80cde9"/><path d="m939.2 907.3h10.8v3.6h-10.9v-3.6zm12.3 0h10.9v3.6h-10.9z" fill="#437b88"/><path d="m964.3 907.3h10.9v3.6h-10.9zm12.8 0h10.9v3.6h-10.9z" fill="#80cde9"/><path d="m994 905.9h130.4v6.7h-130.4z" fill="#fff"/><path d="m996.5 907.3h10.9v3.6h-10.9zm12.8 0h11.8v3.6h-11.8z" fill="#80cde9"/><path d="m1023.1 907.3h10.9v3.6h-10.9z" fill="#437b88"/><path d="m1035.9 907.3h24.7v3.6h-24.7zm25.6 0h10.9v3.6h-10.9z" fill="#80cde9"/><path d="m1073.9 907.3h10.9v3.6h-10.9zm12.3 0h10.9v3.6h-10.9z" fill="#437b88"/><path d="m1099 907.3h10.9v3.6h-10.9zm12.8 0h10.9v3.6h-10.9z" fill="#80cde9"/><path d="m1121.4 905.9h130.4v6.7h-130.4z" fill="#fff"/><path d="m1123.8 907.3h10.9v3.6h-10.9z" fill="#437b88"/><path d="m1136.6 907.3h11.8v3.6h-11.8zm13.8 0h10.9v3.6h-10.9z" fill="#80cde9"/><path d="m1163.2 907.3h24.7v3.6h-24.7z" fill="#437b88"/><path d="m1188.9 907.3h10.9v3.6h-10.9z" fill="#80cde9"/><path d="m1201.2 907.3h10.9v3.6h-10.9zm12.4 0h10.9v3.6h-10.9z" fill="#437b88"/><path d="m1226.4 907.3h10.9v3.6h-10.9zm12.8 0h10.9v3.6h-10.9z" fill="#80cde9"/><path d="m732 966h130.4v6.7h-130.4z" fill="#fff"/><path d="m734.3 967.3h10.9v3.6h-10.9zm12.9 0h11.8v3.6h-11.8zm13.8 0h10.9v3.6h-10.9z" fill="#80cde9"/><path d="m773.8 967.3h24.7v3.6h-24.7z" fill="#437b88"/><path d="m799.4 967.3h10.9v3.6h-10.9z" fill="#80cde9"/><path d="m811.8 967.3h10.9v3.6h-10.9zm12.3 0h10.9v3.6h-10.9z" fill="#437b88"/><path d="m836.9 967.3h10.9v3.6h-10.9zm12.8 0h10.9v3.6h-10.9z" fill="#80cde9"/><path d="m1259 966h105v6.7h-105z" fill="#fff"/><path d="m1261.4 967.3h10.9v3.6h-10.9zm12.8 0h11.8v3.6h-11.8zm13.8 0h10.9v3.6h-10.9z" fill="#80cde9"/><path d="m1300.8 967.3h24.7v3.6h-24.7z" fill="#437b88"/><path d="m1326.4 967.3h10.9v3.6h-10.9z" fill="#80cde9"/><path d="m1338.8 967.3h10.9v3.6h-10.9zm12.3 0h10.9v3.6h-10.9z" fill="#437b88"/><path d="m859.3 966h130.4v6.7h-130.4z" fill="#fff"/><path d="m861.7 967.3h10.9v3.6h-10.9zm12.8 0h11.8v3.6h-11.8zm13.8 0h10.9v3.6h-10.9z" fill="#80cde9"/><path d="m901.2 967.3h24.7v3.6h-24.7z" fill="#437b88"/><path d="m926.8 967.3h10.9v3.6h-10.9z" fill="#80cde9"/><path d="m939.2 967.3h10.8v3.6h-10.9v-3.6zm12.3 0h10.9v3.6h-10.9z" fill="#437b88"/><path d="m964.3 967.3h10.9v3.6h-10.9zm12.8 0h10.9v3.6h-10.9z" fill="#80cde9"/><path d="m994 966h130.4v6.7h-130.4z" fill="#fff"/><path d="m996.5 967.3h10.9v3.6h-10.9zm12.8 0h11.8v3.6h-11.8z" fill="#80cde9"/><path d="m1023.1 967.3h10.9v3.6h-10.9z" fill="#437b88"/><path d="m1035.9 967.3h24.7v3.6h-24.7zm25.6 0h10.9v3.6h-10.9z" fill="#80cde9"/><path d="m1073.9 967.3h10.9v3.6h-10.9zm12.3 0h10.9v3.6h-10.9z" fill="#437b88"/><path d="m1099 967.3h10.9v3.6h-10.9zm12.8 0h10.9v3.6h-10.9z" fill="#80cde9"/><path d="m1121.4 966h130.4v6.7h-130.4z" fill="#fff"/><path d="m1123.8 967.3h10.9v3.6h-10.9z" fill="#437b88"/><path d="m1136.6 967.3h11.8v3.6h-11.8zm13.8 0h10.9v3.6h-10.9z" fill="#80cde9"/><path d="m1163.2 967.3h24.7v3.6h-24.7z" fill="#437b88"/><path d="m1188.9 967.3h10.9v3.6h-10.9z" fill="#80cde9"/><path d="m1201.2 967.3h10.9v3.6h-10.9zm12.4 0h10.9v3.6h-10.9z" fill="#437b88"/><path d="m1226.4 967.3h10.9v3.6h-10.9zm12.8 0h10.9v3.6h-10.9z" fill="#80cde9"/><path d="m732 843.3h130.4v7.4h-130.4z" fill="#fff"/><path d="m734.3 845.3h10.9v3.6h-10.9zm12.9 0h10.8v3.6h-10.9v-3.6zm12.8 0h10.9v3.6h-10.9zm12.8 0h10.9v3.6h-10.9zm12.8 0h10.9v3.6h-10.9zm12.9 0h10.9v3.6h-10.9zm12.8 0h10.9v3.6h-10.9zm12.8 0h10.9v3.6h-10.9zm12.8 0h10.9v3.6h-10.9zm12.8 0h10.9v3.6h-10.9z" fill="#7f7944"/><path d="m878.2 813.8h130.4v7.4h-130.4z" fill="#fff"/><path d="m880.6 815.8h10.9v3.6h-10.9zm12.8 0h10.9v3.6h-10.9zm12.9 0h10.9v3.6h-10.9zm12.8 0h10.9v3.6h-10.9zm12.8 0h10.9v3.6h-10.9zm12.8 0h10.9v3.6h-10.9zm12.8 0h10.9v3.6h-10.9zm12.8 0h10.9v3.6h-10.9zm12.9 0h10.8v3.6h-10.9v-3.6zm12.8 0h10.9v3.6h-10.9z" fill="#7f7944"/><path d="m1022.2 813.8h28.2v7.4h-28.2z" fill="#fff"/><path d="m1024.6 815.8h23.6v3.6h-23.6z" fill="#7f7944"/><path d="m878.2 843.3h130.4v7.4h-130.4z" fill="#fff"/><path d="m880.6 845.3h10.9v3.6h-10.9zm12.8 0h10.9v3.6h-10.9zm12.9 0h10.9v3.6h-10.9zm12.8 0h10.9v3.6h-10.9zm12.8 0h10.9v3.6h-10.9zm12.8 0h10.9v3.6h-10.9zm12.8 0h10.9v3.6h-10.9zm12.8 0h10.9v3.6h-10.9zm12.9 0h10.8v3.6h-10.9v-3.6zm12.8 0h10.9v3.6h-10.9z" fill="#7f7944"/><path d="m1022.2 843.3h28.2v7.4h-28.2z" fill="#fff"/><path d="m1024.6 845.3h10.9v3.6h-10.9zm12.8 0h10.9v3.6h-10.9z" fill="#7f7944"/><path d="m1097.7 813.8h28.2v7.4h-28.2z" fill="#fff"/><path d="m1100.1 815.8h10.9v3.6h-10.9zm12.8 0h10.9v3.6h-10.9z" fill="#7f7944"/><path d="m1334.5 813.8h28.2v7.4h-28.2z" fill="#fff"/><path d="m1336.9 815.8h10.9v3.6h-10.9zm12.8 0h10.9v3.6h-10.9z" fill="#7f7944"/><path d="m1184 813.9h28.2v7.4h-28.2z" fill="#fff"/><path d="m1186.4 816h10.9v3.6h-10.9zm12.8 0h10.9v3.6h-10.9z" fill="#7f7944"/><path d="m1209.6 813.9h28.2v7.4h-28.2z" fill="#fff"/><path d="m1212 816h10.9v3.6h-10.9zm12.8 0h10.9v3.6h-10.9z" fill="#7f7944"/><path d="m700.8 1033s21.1 16.4 25.6 34.6c15.9-.5 669 0 681.3 0 3.6-10.5 12.7-23.8 23.6-34.6" fill="#565656"/><path d="m716.7 55.4h696.4v160.4h-696.4z" fill="#fff"/><path d="m743.6 62.4h642c12.3 0 22.3 10 22.3 22.3v131.1h-686.6v-131.1c0-12.3 10-22.3 22.3-22.3z" fill="#d1d1d1"/><path d="m752.7 81h625.8c8.3 0 15.1 6.8 15.1 15.1v88c0 8.3-6.8 15.1-15.1 15.1h-625.8c-8.3 0-15.1-6.8-15.1-15.1v-88c0-8.3 6.8-15.1 15.1-15.1z" fill="#919191"/><path d="m758 84.6h40.5v5.3h-40.5zm45 0h40.5v5.3h-40.5zm45 0h40.5v5.3h-40.5zm45 0h40.5v5.3h-40.5zm45 0h40.5v5.3h-40.5zm45 0h40.5v5.3h-40.5zm45 0h40.5v5.3h-40.5zm45 0h40.5v5.3h-40.5zm45 0h40.5v5.3h-40.5zm45 0h40.5v5.3h-40.5zm45 0h40.5v5.3h-40.5zm45 0h40.5v5.3h-40.5zm-477 13.3h24.7v3.1h-24.7zm545.2 0h24.7v3.1h-24.7zm-497.5 0h199.9v3.1h-199.9zm-60.4 25.5h261.3v3.1h-261.3zm298 0h135.7v3.1h-135.8v-3.1zm150.3 0h79.2v3.1h-79.2zm82.9 0h77.7v3.1h-77.7zm-531.2 25.5h294.6v3.1h-294.6zm333.9 0h73.2v3.1h-73.2zm99.1 0h175.9v3.1h-175.9zm-433 27.5h202.9v3.1h-202.9zm221.7 0h212v3.1h-212zm226.6 0h79.2v3.1h-79.2zm82.9 0h77.7v3.1h-77.7zm-218.7-78.5h215v3.1h-215z" fill="#fff"/><circle cx="794.7" cy="111.5" fill="url(#D)" r="4.9"/><circle cx="828.2" cy="111.5" fill="url(#E)" r="4.9"/><circle cx="1015.5" cy="111.5" fill="url(#G)" r="4.9"/><circle cx="1135.5" cy="162" fill="url(#H)" r="4.9"/><circle cx="966.2" cy="162" fill="url(#I)" r="4.9"/><circle cx="1091" cy="188.1" fill="url(#J)" r="4.9"/><circle cx="1061.3" cy="188.1" fill="url(#K)" r="4.9"/><circle cx="935.9" cy="188.1" fill="url(#L)" r="4.9"/><circle cx="888.6" cy="188.1" fill="url(#M)" r="4.9"/><circle cx="980.1" cy="162" fill="url(#N)" r="4.9"/><circle cx="1163" cy="162" fill="url(#O)" r="4.9"/><circle cx="1328.4" cy="111.5" fill="url(#P)" r="4.9"/><circle cx="1344.7" cy="135.6" fill="url(#R)" r="4.9"/><circle cx="1365.7" cy="161.1" fill="url(#S)" r="4.9"/><circle cx="1068.6" cy="111.5" fill="url(#U)" r="4.9"/><circle cx="949.5" cy="162" fill="url(#V)" r="4.9"/><circle cx="838.1" cy="188.1" fill="url(#W)" r="4.9"/><circle cx="935.9" cy="162" fill="url(#X)" r="4.9"/><circle cx="1251.2" cy="137.7" fill="url(#Y)" r="4.9"/><circle cx="1298.5" cy="188.1" fill="url(#Z)" r="4.9"/><circle cx="1310.9" cy="188.1" fill="url(#aa)" r="4.9"/><circle cx="1265.7" cy="137.7" fill="url(#ab)" r="4.9"/><path d="m1158.8 7.1v27.7h-5.2c-.1-.6-.2-1.6-.2-2-.9 1.5-2.7 2.5-5.6 2.5-5 0-8.1-4-8.1-10.1s3.4-10.5 9-10.5c2.8 0 4.3 1 4.8 1.9v-9.5zm-13.6 17.9c0 3.8 1.5 5.9 4.2 5.9 3.8 0 4.2-3.1 4.2-6 0-3.4-.5-5.9-4-5.9-2.9 0-4.4 2.3-4.4 6zm22.8 1.1c0 2.5 1.2 4.9 3.9 4.9 2.3 0 2.9-.9 3.4-2.1h5.4c-.7 2.4-2.8 6.4-9 6.4-6.5 0-9.3-4.8-9.3-10 0-6.2 3.2-10.6 9.5-10.6 6.8 0 9.1 4.9 9.1 9.8 0 .6 0 1.1-.1 1.7zm7.6-3.3c0-2.3-1-4.2-3.6-4.2s-3.7 1.8-3.9 4.2zm26.5 5.6c-.7 3.3-3 6.8-8.8 6.8-6.1 0-9.3-4.2-9.3-10.1s3.5-10.4 9.5-10.4c6.6 0 8.5 4.8 8.6 7h-5.3c-.2-1.7-1.7-2.9-3.4-2.7-2.5 0-3.9 2.2-3.9 6 0 4.2 1.5 6.1 3.9 6.1 1.6.1 3-1 3.4-2.6z" fill="#fff"/><path d="m1209.6 28.9c.4 1.6 1.7 2.5 3.7 2.5s2.7-.7 2.7-1.9-.8-1.8-3.7-2.5c-6.4-1.6-7.4-3.6-7.4-6.3s2-6 8-6 8 3.3 8.2 5.9h-5.2c-.2-.7-.7-2.1-3.2-2.1-1.8 0-2.4.8-2.4 1.7s.6 1.5 3.8 2.2c6.6 1.5 7.5 3.8 7.5 6.7 0 3.3-2.5 6.2-8.5 6.2s-8.4-2.9-8.9-6.4zm19.1-13.8c2 6.8 3.8 12.8 4.1 14.7.4-2 1.6-6.4 3.9-14.7h5.4l-6.6 20.2c-1.9 5.7-3.4 7.3-8.2 7.3-.5 0-1.6 0-2.6-.2v-4.4c.5.1.9.1 1.4.1 2 0 3-.7 3.8-2.9l-7.2-20.3zm20.1 13.8c.4 1.6 1.7 2.5 3.7 2.5s2.7-.7 2.7-1.9-.8-1.8-3.7-2.5c-6.4-1.6-7.5-3.6-7.5-6.3s2.1-6 8-6 8 3.3 8.2 5.9h-5.2c-.2-.7-.7-2.1-3.2-2.1-1.8 0-2.4.8-2.4 1.7s.6 1.5 3.8 2.2c6.6 1.5 7.5 3.8 7.5 6.7 0 3.3-2.5 6.2-8.5 6.2s-8.4-2.9-8.9-6.4zm13.4-13.8h3v-5.3h5.4v5.3h3.8v4.1h-3.8v9.7c0 1.5.4 2.1 2.1 2.1.4 0 .8 0 1.2-.1v3.7c-1.2.3-2.4.4-3.7.4-3.8 0-5.1-2-5.1-5.5v-10.3h-3zm19.7 11c0 2.5 1.2 4.9 3.9 4.9 2.3 0 2.9-.9 3.4-2.1h5.4c-.7 2.4-2.8 6.4-9 6.4-6.5 0-9.3-4.8-9.3-10 0-6.2 3.2-10.6 9.5-10.6 6.8 0 9 4.9 9 9.8 0 .6 0 1.1-.1 1.7zm7.6-3.3c0-2.3-1-4.2-3.6-4.2s-3.7 1.8-3.9 4.2zm9.3-2.6v-5.1h5.2c.1.5.2 1.6.2 2.3 1.2-1.8 3.3-2.9 5.5-2.8 2.2-.1 4.2 1 5.1 3 1.3-2 3.7-3.1 6.1-3 3.4 0 6.2 2.1 6.2 7.2v12.9h-5.3v-12.2c0-1.8-.7-3.5-2.9-3.5s-3.2 1.5-3.2 4.5v11.2h-5.3v-12c0-2-.5-3.7-2.8-3.7s-3.3 1.4-3.3 4.7v11h-5.4z" fill="none" stroke="#fff" stroke-miterlimit="10"/><path d="m1335.6 34.8v-18.7c-1.4.6-3 .9-4.5 1.1v-4.1c2.4-.5 4.5-1.6 6.2-3.4h3.8v25zm29.7-12.7c0 6.9-2.2 13.1-9.6 13.1s-9.6-6-9.6-13 2.5-13 9.7-13c7 .1 9.5 5.8 9.5 12.9zm-13.6.1c0 4.6.5 8.7 4.1 8.7s3.9-3.8 3.9-8.8-.6-8.5-3.8-8.5-4.2 3.2-4.2 8.6z" fill="#fff"/><path d="m737.6 10.6h16.9v30.2h-16.9zm19.4 0h16.9v30.2h-16.9zm19.4 0h16.9v30.2h-16.9zm19.4 0h16.9v30.2h-16.9zm19.4 0h16.9v30.2h-16.9zm19.4 0h16.9v30.2h-16.9zm19.4 0h16.9v30.2h-16.9z" fill="#eef5f8"/><path d="m752.8 14.1v19.7h-3.2c-.1-.4-.1-1.2-.2-1.6-.7 1.2-1.9 2-4.1 2-3.5 0-5.8-2.8-5.8-7.1s2.5-7.4 6.3-7.4c2.2 0 3.2.8 3.6 1.5v-7h3.4zm-9.8 12.9c0 2.9 1.2 4.5 3.2 4.5 2.8 0 3.3-2.3 3.3-4.6 0-2.6-.4-4.5-3.2-4.5-2.1 0-3.3 1.7-3.3 4.6zm20.4-12.9h3.4v3.3h-3.4zm0 5.9h3.4v13.9h-3.4zm27.9 11.2c0 4.5-1.7 7.2-6.7 7.2-4.8 0-5.9-2.7-6-4.3h3.4c.3 1.2 1.5 2 2.8 1.8 2.7 0 3.3-1.7 3.3-4.6v-.8c-.8 1.4-2.4 2.3-4 2.1-3.6 0-5.7-2.9-5.7-6.8 0-4.4 2.6-7.3 6-7.3 2.5 0 3.5 1.2 3.8 1.9 0-.5.1-1.3.1-1.6h3.2v4zm-9.6-5.5c0 2.6 1.3 4.2 3.2 4.2 2.5 0 3.2-1.7 3.2-4.3s-.5-4.3-3.2-4.3c-1.9 0-3.2 1.5-3.2 4.4zm20.8-11.6h3.4v3.3h-3.4zm0 5.9h3.4v13.9h-3.4zm16.9 0h2.2v-3.9h3.4v3.9h2.8v2.6h-2.8v7.3c0 1.2.3 1.7 1.5 1.7.3 0 .7 0 1-.1v2.4c-.8.2-1.6.3-2.4.3-2.5 0-3.4-1.3-3.4-3.7v-7.8h-2.2zm29.4 10.5c0 1.1.1 2.3.2 3.4h-3.2c-.1-.5-.2-1-.2-1.5-.5.8-1.5 1.8-4 1.8-3.3 0-4.7-2.2-4.7-4.3 0-3.1 2.5-4.6 6.6-4.6h2.1v-1c0-1.1-.4-2.2-2.4-2.2-1.9 0-2.2.8-2.4 1.9h-3.2c.2-2.3 1.6-4.4 5.8-4.3 3.6 0 5.6 1.5 5.6 4.7zm-3.3-3.1h-1.8c-2.5 0-3.5.7-3.5 2.3 0 1.1.8 2 1.9 2.1h.3c2.8 0 3.1-1.9 3.1-3.9zm15.7 6.8v-19.7h3.4v19.8h-3.4z" fill="#488eaa"/><path d="m8 2.5h693.6v1468.3h-693.6z" fill="#3a3a3a"/><path d="m5.2 2.5h696.4v45.6h-696.4z" fill="#488eaa" stroke="#adb8bc" stroke-miterlimit="10" stroke-width="4"/><path d="m0 2.5h707.8" fill="none" stroke="#d0eaf9" stroke-miterlimit="10" stroke-width="5"/><path d="m0 48.1h707.8" fill="none" stroke="#def0fa" stroke-miterlimit="10" stroke-width="5"/><path d="m5.2 55.4h696.4v160.4h-696.4z" fill="#fff"/><path d="m32.1 62.4h642c12.3 0 22.3 10 22.3 22.3v131.1h-686.6v-131.1c0-12.3 10-22.3 22.3-22.3z" fill="#d1d1d1"/><path d="m41.2 81h625.8c8.3 0 15.1 6.8 15.1 15.1v88c0 8.3-6.8 15.1-15.1 15.1h-625.8c-8.3 0-15.1-6.8-15.1-15.1v-88c0-8.3 6.7-15.1 15.1-15.1z" fill="#919191"/><path d="m46.5 84.6h40.5v5.3h-40.5zm45 0h40.5v5.3h-40.5zm45 0h40.5v5.3h-40.5zm45 0h40.5v5.3h-40.5zm45 0h40.5v5.3h-40.5zm45 0h40.5v5.3h-40.5zm45 0h40.5v5.3h-40.5zm45 0h40.5v5.3h-40.5zm45 0h40.5v5.3h-40.5zm45 0h40.5v5.3h-40.5zm45 0h40.5v5.3h-40.5zm45 0h40.5v5.3h-40.5zm-477.1 13.3h24.7v3.1h-24.7zm545.2 0h24.7v3.1h-24.7zm-497.4 0h199.8v3.1h-199.8zm-60.5 25.5h261.3v3.1h-261.3zm298 0h135.8v3.1h-135.8zm150.4 0h79.2v3.1h-79.2zm82.9 0h77.7v3.1h-77.7zm-531.3 25.5h294.6v3.1h-294.6zm333.9 0h73.2v3.1h-73.2zm99.1 0h175.9v3.1h-175.9zm-433 27.5h202.9v3.1h-202.9zm221.8 0h212v3.1h-212zm226.6 0h79.2v3.1h-79.2zm82.9 0h77.7v3.1h-77.7zm-218.7-78.5h215v3.1h-215z" fill="#fff"/><circle cx="83.2" cy="111.5" fill="url(#ac)" r="4.9"/><circle cx="116.7" cy="111.5" fill="url(#ad)" r="4.9"/><circle cx="304" cy="111.5" fill="url(#ae)" r="4.9"/><circle cx="424" cy="162" fill="url(#af)" r="4.9"/><circle cx="254.6" cy="162" fill="url(#ag)" r="4.9"/><circle cx="379.5" cy="188.1" fill="url(#ah)" r="4.9"/><circle cx="349.7" cy="188.1" fill="url(#ai)" r="4.9"/><circle cx="224.3" cy="188.1" fill="url(#aj)" r="4.9"/><circle cx="177" cy="188.1" fill="url(#ak)" r="4.9"/><circle cx="268.6" cy="162" fill="url(#al)" r="4.9"/><circle cx="451.5" cy="162" fill="url(#am)" r="4.9"/><circle cx="616.9" cy="111.5" fill="url(#an)" r="4.9"/><circle cx="633.2" cy="135.6" fill="url(#ao)" r="4.9"/><circle cx="654.2" cy="161.1" fill="url(#ap)" r="4.9"/><circle cx="357" cy="111.5" fill="url(#aq)" r="4.9"/><circle cx="237.9" cy="162" fill="url(#ar)" r="4.9"/><circle cx="126.6" cy="188.1" fill="url(#as)" r="4.9"/><circle cx="224.3" cy="162" fill="url(#at)" r="4.9"/><circle cx="539.7" cy="137.7" fill="url(#au)" r="4.9"/><circle cx="587" cy="188.1" fill="url(#av)" r="4.9"/><circle cx="599.4" cy="188.1" fill="url(#aw)" r="4.9"/><circle cx="554.2" cy="137.7" fill="url(#ax)" r="4.9"/><path d="m51.9 14.1h3.3v3.3h-3.3zm0 5.9h3.3v13.9h-3.3z" fill="#488eaa"/><path d="m9.8 231.4h686.6v1232.7h-686.6z" fill="#488eaa"/><path d="m957.4 442.7h455.4v192h-455.4z" fill="#eeeeef"/><path d="m962.3 615v-152.5c0-8.5 6.9-15.3 15.3-15.3h415c8.5 0 15.3 6.9 15.3 15.3v152.5c0 8.5-6.9 15.3-15.3 15.3h-415c-8.5 0-15.3-6.9-15.3-15.3z" fill="#2e2e2e"/><path d="m983.9 449.8h402.6c10.2 0 18.5 8.3 18.5 18.5v140.4c0 10.2-8.3 18.5-18.5 18.5h-402.6c-10.2 0-18.5-8.3-18.5-18.5v-140.5c0-10.2 8.3-18.4 18.5-18.4z" fill="#1e1e1e"/><path d="m1326.7 500h34.2v120.9h-34.2z" fill="#191919"/><path d="m1326.7 493.9h24.7v126.2h-24.7z" fill="#1e1e1e"/><path d="m1232.7 520.4h-99.8c-3.9 0-7.1-3.1-7.3-6.9l-1.7-33.9h117.7l-1.7 33.9c-.1 3.9-3.3 7-7.2 6.9z" fill="#4a494a"/><path d="m1358.1 504.1h33.1c5.4 0 9.7-4.4 9.7-9.7v-30.4c0-5.4-4.3-9.7-9.7-9.7h-413c-5.4 0-9.7 4.4-9.7 9.7v30.4c0 5.4 4.3 9.7 9.7 9.7z" fill="#2d2d2d"/><path d="m1326.7 534.6h25.6v80.2h-25.6z"/><path d="m1235.1 547.1h-99.8c-3.9 0-7.1 3.1-7.3 6.9l-1.7 33.9h117.7l-1.7-33.9c-.1-3.8-3.3-6.9-7.2-6.9z" fill="#4a494a"/><path d="m1392.1 623.9h-413.9c-5.4 0-9.7-4.3-9.7-9.7v-30.3c0-5.4 4.3-9.7 9.7-9.7h358.4v45.5h22.3v-45.5h33.2c5.4 0 9.7 4.3 9.7 9.7v30.3c.1 5.4-4.3 9.7-9.7 9.7z" fill="#616160"/><path d="m1358.9 502.7h33.2c5.4 0 9.7-4.3 9.7-9.7v-30.4c0-5.4-4.3-9.7-9.7-9.7h-414c-5.4 0-9.7 4.3-9.7 9.7v30.4c0 5.4 4.3 9.7 9.7 9.7zm33.2 122.5h-414c-5.4 0-9.7-4.3-9.7-9.7v-30.4c0-5.4 4.3-9.7 9.7-9.7h358.5v45.5h22.3v-45.5h33.2c5.4 0 9.7 4.3 9.7 9.7v30.4c0 5.4-4.4 9.7-9.7 9.7z" fill="#4a494a"/><path d="m1359.7 505.6h33.9v33.9h-33.9z" fill="#303031" stroke="#a3a3a3" stroke-miterlimit="10" stroke-width=".5"/><path d="m1359.7 538.4h33.9v33.9h-33.9z" fill="#303031" stroke="#a3a3a3" stroke-miterlimit="10" stroke-width=".5"/><circle cx="1207.5" cy="512.2" fill="#7f8080" r="5.5"/><path d="m1354.1 615h-17.4" fill="none" stroke="#3f3f3f" stroke-miterlimit="10" stroke-width="3"/><path d="m1353 504.1v111.7" fill="none" stroke="#3f3f3f" stroke-miterlimit="10" stroke-width="2"/><path d="m1362.3 532.7v-6.2c0-.7.5-1.2 1.2-1.3l10.8-1.1h16.7v11.1h-16.7l-10.8-1.2c-.7-.2-1.2-.7-1.2-1.3z" fill="#353535"/><path d="m1374.6 524.8h15.5v9.6h-15.5" fill="#6c6c6c"/><path d="m1381 526.8 9.1-2.1v9.6l-9.1-2.1z" fill="#606060"/><path d="m1374.6 524.8v9.6l7.1-1.4c.8-.1 1.3-.8 1.3-1.6v-3.4c0-.8-.5-1.5-1.3-1.6z" fill="#bfbebf"/><path d="m1374.3 534.4-10-1c-.7 0-1.3-.6-1.3-1.3v-5c0-.7.6-1.3 1.3-1.3l10-1z" fill="#848484"/><path d="m1362.3 566.9v-6.2c0-.7.5-1.2 1.2-1.3l10.8-1.1h16.7v11.1h-16.7l-10.8-1.2c-.7-.1-1.2-.7-1.2-1.3z" fill="#353535"/><path d="m1374.6 559h15.5v9.6h-15.5" fill="#6c6c6c"/><path d="m1381 561 9.1-2.1v9.6l-9.1-2.1z" fill="#606060"/><path d="m1374.6 559v9.6l7.1-1.4c.8-.1 1.3-.8 1.3-1.6v-3.4c0-.8-.5-1.5-1.3-1.6z" fill="#bfbebf"/><path d="m1374.3 568.7-10-1c-.7 0-1.3-.6-1.3-1.3v-5c0-.7.6-1.3 1.3-1.3l10-1z" fill="#848484"/><path d="m1853.5 731.2c-199.5 0-361.2 161.6-361.2 361.1s161.6 361.2 361.1 361.2 361.2-161.6 361.2-361.1c.1-199.5-161.6-361.2-361.1-361.2zm.8 440.6c-43.9 0-79.5-35.6-79.5-79.5s35.6-79.5 79.5-79.5 79.5 35.6 79.5 79.5c.1 43.9-35.5 79.5-79.5 79.5z" fill="#2d2925" stroke="#332e29" stroke-miterlimit="10"/><path d="m1855.2 804.9c-158.7 0-287.4 128.6-287.4 287.4s128.6 287.4 287.3 287.5 287.4-128.7 287.5-287.4-128.7-287.5-287.4-287.5zm-.9 366.9c-43.9 0-79.5-35.6-79.5-79.5s35.6-79.5 79.5-79.5 79.5 35.6 79.5 79.5c.1 43.9-35.5 79.5-79.5 79.5z" fill="#39332d"/><path d="m1857.2 1215.7c18.6 0 33.6 15.1 33.6 33.6v158.6c0 18.6-15.1 33.6-33.6 33.6-18.6 0-33.6-15.1-33.6-33.6v-158.6c-.1-18.6 15-33.6 33.6-33.6z" fill="none" stroke="#686867" stroke-miterlimit="10" stroke-width="6"/><path d="m2232 866.7v-139.1c0-8.1-6.5-14.7-14.6-14.7l-727.6-.1c-8.1 0-14.7 6.6-14.7 14.7l-.1 727.6c0 8.1 6.5 14.7 14.6 14.7h.1 271.3v-6.9c.2-5.2 4.5-9.2 9.7-9.1 4.9.2 8.9 4.1 9.1 9.1v6.9h151.1v-6.9c0-5.2 4.2-9.4 9.4-9.4s9.4 4.2 9.4 9.4v6.9h267.6c8.1 0 14.6-6.5 14.7-14.6l.1-558.8h-26v-29.6zm-343.2 539.2c0 18.6-15.1 33.6-33.7 33.6s-33.6-15.1-33.6-33.7v-158.6c0-18.6 15.1-33.6 33.6-33.6 18.6 0 33.6 15.1 33.6 33.7v158.6zm-38-238.6c-43.9 0-79.5-35.6-79.5-79.5s35.6-79.5 79.5-79.5 79.5 35.6 79.5 79.5c.1 43.9-35.5 79.5-79.5 79.5.1 0 .1 0 0 0z" fill="#262626"/><path d="m1475.1 727.4-.1 727.6c0 8.1 6.5 14.7 14.6 14.7h.1 271.3v-6.9c.2-5.2 4.5-9.2 9.7-9.1 4.9.2 8.9 4.1 9.1 9.1v6.9h151.1v-6.9c0-5.2 4.2-9.4 9.4-9.4s9.4 4.2 9.4 9.4v6.9h267.6c8.1 0 14.6-6.5 14.7-14.6v-271.7l-750.7-468c-3.9 2.8-6.2 7.3-6.2 12zm413.7 678.5c0 18.6-15.1 33.6-33.7 33.6s-33.6-15.1-33.6-33.7v-158.6c0-18.6 15.1-33.6 33.6-33.6 18.6 0 33.6 15.1 33.6 33.7v158.6zm-34.4-389.1c41.1 0 74.5 33.4 74.5 74.5s-33.4 74.5-74.5 74.5-74.5-33.4-74.5-74.5c0-41.2 33.3-74.6 74.5-74.5z" fill="#4c4a48" opacity=".06"/><circle cx="1854.4" cy="1091.8" fill="none" r="86.3" stroke="#39332d" stroke-miterlimit="10" stroke-width="32"/><circle cx="1850.9" cy="1087.8" fill="none" r="79.5" stroke="#848484" stroke-miterlimit="10" stroke-width="16"/><ellipse cx="1975.7" cy="1150.3" fill="#332e29" rx="15.5" ry="15.5" transform="matrix(.1602 -.9871 .9871 .1602 523.7748 2916.3049)"/><path d="m1830.8 744.6h328.2c13.9 0 25.2 11.3 25.2 25.2v116.5c0 13.9-11.3 25.2-25.2 25.2h-328.2c-13.9 0-25.2-11.3-25.2-25.2v-116.5c0-13.9 11.2-25.2 25.2-25.2z" fill="#fff"/><path d="m1805.6 769.5c0-13.8 11.8-24.9 26.3-24.9l326 .1c14.5 0 26.3 11.2 26.3 24.9z" fill="#c1c0bc"/><path d="m1827.8 795.5 335.2.1m-335.2 21.2h335.2m-335.2 21.4 335.2.1m-335.2 21.2h335.2" fill="none" stroke="#ccc" stroke-miterlimit="10" stroke-width="6"/><path d="m2184.2 886.6c0 13.8-11.8 24.9-26.3 24.9h-326c-14.5 0-26.3-11.2-26.3-24.9z" fill="#c1c0bc"/></svg>