<svg id="Calque_1" data-name="Calque 1" xmlns="http://www.w3.org/2000/svg" width="1269.3" height="832.7" viewBox="0 0 1269.3 832.7"><defs><style>.cls-1{opacity:0.8;}.cls-2{fill:#fff;}</style></defs><g class="cls-1"><path class="cls-2" d="M822.1,14.6h-351a25.1,25.1,0,0,0-25,25.1v351a25,25,0,0,0,25,25h351a25.1,25.1,0,0,0,25.1-25V39.7A25.2,25.2,0,0,0,822.1,14.6ZM766.2,321.8a25.9,25.9,0,0,1-25.9,25.8H505a25.8,25.8,0,0,1-25.8-25.8V78.1A25.8,25.8,0,0,1,505,52.3H740.3a25.9,25.9,0,0,1,25.9,25.8Z" transform="translate(-12 -14.6)"/><path class="cls-2" d="M622.7,179.6H587.3v91.8A11.4,11.4,0,0,1,576,282.7h-5.1a11.3,11.3,0,0,1-11.2-11.3V179.6H524.5L574,90.5Z" transform="translate(-12 -14.6)"/></g><g class="cls-1"><path class="cls-2" d="M822.1,446.3h-351a25,25,0,0,0-25,25v351a25,25,0,0,0,25,25h351a25.1,25.1,0,0,0,25.1-25v-351A25.1,25.1,0,0,0,822.1,446.3ZM766.2,753.4a25.9,25.9,0,0,1-25.9,25.9H505a25.8,25.8,0,0,1-25.8-25.9V509.8A25.8,25.8,0,0,1,505,483.9H740.3a25.9,25.9,0,0,1,25.9,25.9Z" transform="translate(-12 -14.6)"/><path class="cls-2" d="M524.5,653.8h35.3V562a11.3,11.3,0,0,1,11.2-11.3h5.1A11.4,11.4,0,0,1,587.5,562v91.8h35.2l-49.6,89.1Z" transform="translate(-12 -14.6)"/></g><g class="cls-1"><path class="cls-2" d="M1256.2,446.3H905.3a25,25,0,0,0-25.1,25v351a25,25,0,0,0,25.1,25h350.9a25,25,0,0,0,25.1-25v-351A25,25,0,0,0,1256.2,446.3Zm-55.9,307.1a25.9,25.9,0,0,1-25.8,25.9H939.1a25.8,25.8,0,0,1-25.8-25.9V509.8a25.8,25.8,0,0,1,25.8-25.9h235.4a25.9,25.9,0,0,1,25.8,25.9Z" transform="translate(-12 -14.6)"/><path class="cls-2" d="M1063.8,599.9V564.5H972a11.2,11.2,0,0,1-11.3-11.2v-5.1A11.3,11.3,0,0,1,972,536.8h91.8V501.6l89.1,49.6Z" transform="translate(-12 -14.6)"/></g><g class="cls-1"><path class="cls-2" d="M388,446.3H37a25,25,0,0,0-25,25v351a25,25,0,0,0,25,25H388a25.1,25.1,0,0,0,25.1-25v-351A25.1,25.1,0,0,0,388,446.3ZM332.1,753.4a25.9,25.9,0,0,1-25.9,25.9H70.9a25.8,25.8,0,0,1-25.8-25.9V509.8a25.8,25.8,0,0,1,25.8-25.9H306.2a25.9,25.9,0,0,1,25.9,25.9Z" transform="translate(-12 -14.6)"/><path class="cls-2" d="M181.6,501.6V537h91.8a11.3,11.3,0,0,1,11.3,11.2v5.1a11.3,11.3,0,0,1-11.3,11.2H181.6v35.3L92.5,550.3Z" transform="translate(-12 -14.6)"/></g></svg>