<svg id="ZORK_1" data-name="ZORK 1" xmlns="http://www.w3.org/2000/svg" width="757.07" height="757.07"><defs><style>.cls-11,.cls-12{stroke-miterlimit:10;fill:none}.cls-11{stroke-width:6px}.cls-10{fill:#c1c0bc}.cls-11{stroke:#ccc}.cls-12{stroke:#bdbcbc;stroke-width:7px}</style></defs><path d="M378.6 18.4C179.14 18.36 17.42 180 17.39 379.48S179 740.66 378.47 740.7s361.18-161.63 361.22-361.09S578.06 18.43 378.6 18.4zm.81 440.66a79.52 79.52 0 1 1 79.53-79.5 79.52 79.52 0 0 1-79.53 79.5z" style="stroke-miterlimit:10;fill:#2d2925;stroke:#332e29"/><path d="M380.28 92.14C221.55 92.12 92.85 220.77 92.83 379.5S221.45 666.92 380.18 667s287.43-128.67 287.45-287.4S539 92.17 380.28 92.14zm-.87 366.92a79.52 79.52 0 1 1 79.53-79.5 79.52 79.52 0 0 1-79.53 79.5z" style="fill:#39332d"/><rect x="348.57" y="502.93" width="67.28" height="225.88" rx="33.64" style="stroke-width:6px;stroke:#686867;fill:none;stroke-miterlimit:10"/><path d="M757.05 153.94V14.8A14.66 14.66 0 0 0 742.41.13L14.8 0A14.67 14.67 0 0 0 .13 14.67L0 742.28A14.67 14.67 0 0 0 14.67 757H286.1v-6.94a9.39 9.39 0 0 1 18.77 0V757H456v-6.93a9.38 9.38 0 1 1 18.76 0V757h267.56A14.66 14.66 0 0 0 757 742.41l.1-558.84h-26v-29.64zM413.82 693.16a33.65 33.65 0 0 1-33.65 33.64 33.65 33.65 0 0 1-33.64-33.65v-158.6a33.65 33.65 0 0 1 33.65-33.64 33.65 33.65 0 0 1 33.64 33.65zm-37.91-238.62A79.51 79.51 0 1 1 455.43 375a79.5 79.5 0 0 1-79.52 79.54z" style="fill:#262626"/><path d="M.13 14.67 0 742.28A14.67 14.67 0 0 0 14.67 757H286.1v-6.94a9.39 9.39 0 0 1 18.77 0V757H456v-6.93a9.38 9.38 0 1 1 18.76 0V757h267.56A14.66 14.66 0 0 0 757 742.41V470.72L6.32 2.7A14.66 14.66 0 0 0 .13 14.67zm413.69 678.49a33.65 33.65 0 0 1-33.65 33.64 33.65 33.65 0 0 1-33.64-33.65v-158.6a33.65 33.65 0 0 1 33.65-33.64 33.65 33.65 0 0 1 33.64 33.65zM379.44 304a74.5 74.5 0 1 1-74.51 74.48A74.5 74.5 0 0 1 379.44 304z" style="fill:#4c4a48;opacity:.06"/><circle cx="379.43" cy="379.04" r="86.32" style="stroke:#39332d;stroke-width:32px;fill:none;stroke-miterlimit:10"/><circle cx="375.92" cy="375.03" r="79.51" style="stroke:#848484;stroke-width:16px;fill:none;stroke-miterlimit:10"/><circle cx="500.8" cy="437.59" r="15.46" style="fill:#332e29"/><g id="etiquette"><rect x="330.64" y="31.88" width="378.59" height="166.87" rx="25.17" style="fill:#fff"/><path class="cls-10" d="M330.65 56.75c0-13.75 11.78-24.9 26.3-24.9l326 .06c14.52 0 26.29 11.15 26.29 24.91z"/><path class="cls-11" d="m352.83 82.75 335.21.06M352.83 104.08l335.2.05M352.82 125.4l335.21.06M352.82 146.73l335.21.05"/><path class="cls-10" d="M709.22 173.87c0 13.76-11.78 24.91-26.3 24.9l-326-.05c-14.52 0-26.29-11.16-26.29-24.91z"/></g></svg>