<svg id="Calque_1" data-name="Calque 1" xmlns="http://www.w3.org/2000/svg" width="609.3" height="881.5" viewBox="0 0 609.3 881.5"><defs><style>.cls-1{fill:#f2f2f2;stroke:#b2b2b2;}.cls-1,.cls-2,.cls-3,.cls-4,.cls-6,.cls-9{stroke-miterlimit:10;}.cls-1,.cls-2{stroke-width:5px;}.cls-2{fill:#e5e5e5;stroke:#fff;}.cls-3{fill:#b7b7b7;}.cls-3,.cls-9{stroke:#333;}.cls-3,.cls-6,.cls-9{stroke-width:3px;}.cls-4{fill:none;stroke:#332a26;stroke-width:4px;}.cls-5{fill:#333;}.cls-6{fill:#afafaf;stroke:#2d2d2d;}.cls-7{fill:#e2e2e2;}.cls-8{fill:#b5b5b5;}.cls-9{fill:#9b9b9b;}.cls-10{fill:#eaeaea;}</style></defs><path class="cls-1" d="M338,110.5c6,14,53,72.1,58,78l116-86L458,260.9l79.7-10.2-64,70.6L640.8,385,472,466.1l60,84.5H448l88,57.8H466L582,759.1,410,692.6,436,880,328,694.6l-44,64.5L296,141Z" transform="translate(-37.8 -25.2)"/><path class="cls-2" d="M339.3,336c2,4.8,17.8,24.8,19.4,26.8,2.4-1.8,47-57.2,47-57.2l-29.6,75,13.4,2.3-11.3,23.9,72.5-7.6-66,50.1L420.4,466l-44.3,21.3,53.6,19.9H382.2L421,559l-57.6-22.9,24.3,98.3-60-70.8" transform="translate(-37.8 -25.2)"/><polyline class="cls-3" points="237.5 1.3 1.5 141.4 1.5 738.8 237.5 880.2"/><line class="cls-4" x1="185.2" y1="31.7" x2="183.5" y2="848.5"/><line class="cls-4" x1="114" y1="73.4" x2="112.4" y2="803.1"/><line class="cls-4" x1="54" y1="110.7" x2="53.2" y2="767.8"/><rect class="cls-5" x="234.9" width="69.7" height="881.33" rx="1"/><polygon class="cls-6" points="1.5 253.7 237.5 141.2 237.5 256.2 1.5 339.7 1.5 253.7"/><polygon class="cls-6" points="1.5 582.8 238.6 665.8 238.6 780.8 1.5 668.8 1.5 582.8"/><polygon class="cls-7" points="4.9 276.6 234.2 170.8 234.2 229.9 4.9 316.7 4.9 276.6"/><polygon class="cls-8" points="16 287.5 20.6 285.3 20.6 293.9 15.9 296.1 16 287.5"/><polygon class="cls-8" points="98.1 250.9 105.6 247.3 105.5 261.1 98 264.8 98.1 250.9"/><polygon class="cls-8" points="196.1 206.2 206.5 201.2 206.4 220.4 195.9 225.5 196.1 206.2"/><polygon class="cls-7" points="4.9 608.6 234.9 700.1 234.9 759.3 4.9 648.7 4.9 608.6"/><rect class="cls-9" x="237.5" y="141.2" width="69.7" height="114.85"/><rect class="cls-9" x="237.5" y="665.9" width="69.7" height="114.85"/><rect class="cls-9" x="237.5" y="373.3" width="69.7" height="145.44"/><polygon class="cls-6" points="232.9 518.8 184.4 510.9 184.4 383.4 232.9 373.3 232.9 518.8"/><polygon class="cls-10" points="195.9 393.4 219.2 389.4 219.2 420.7 195.9 423.4 195.9 393.4"/><polygon class="cls-10" points="195.9 449.5 219.2 449.5 219.2 483.1 195.9 481.2 195.9 449.5"/><path class="cls-6" d="M227.5,445.7c11.2,8.9,11,20.3,6.1,27.9s-13.1,17.6-13.1,17.6l-11.6-8,11.6-15.6s4.8-5.8-1.4-10.3-13.6,4.3-17.6,9.8c-6-4.5-11-7.7-11-7.7S208,430.3,227.5,445.7Z" transform="translate(-37.8 -25.2)"/><rect class="cls-6" x="179.1" y="491.1" width="58.9" height="54.45" transform="translate(298.1 -50.9) rotate(35.1)"/><rect class="cls-10" x="196.5" y="491.6" width="10" height="11.17" transform="translate(284.7 -50.7) rotate(35.1)"/><rect class="cls-10" x="209.3" y="506.4" width="28.3" height="11.17" transform="translate(297.2 -60.6) rotate(35.1)"/><rect class="cls-10" x="185.6" y="516.1" width="45.2" height="7.96" transform="translate(299.1 -50.4) rotate(35.1)"/><rect class="cls-10" x="174.4" y="531.1" width="47.1" height="7.96" transform="translate(305.8 -41.7) rotate(35.1)"/><polygon class="cls-8" points="17.6 630.8 22.3 633.3 22.2 641.8 17.6 639.5 17.6 630.8"/><polygon class="cls-8" points="101 664.3 108.6 667.9 108.5 681.8 100.9 678.2 101 664.3"/><polygon class="cls-8" points="196 705.5 206.5 710.6 206.4 729.8 195.8 724.8 196 705.5"/><circle class="cls-6" cx="177" cy="438.2" r="6.6"/></svg>