<svg id="Calque_1" data-name="Calque 1" xmlns="http://www.w3.org/2000/svg" width="609.3" height="881.5"><defs><style>.cls-10,.cls-3,.cls-4,.cls-8{stroke-miterlimit:10}.cls-10,.cls-3,.cls-7{fill:#b6851c}.cls-10,.cls-3,.cls-4,.cls-8{stroke:#332a26}.cls-3,.cls-8{stroke-width:3px}.cls-4{fill:none;stroke-width:4px}.cls-6{fill:#ecd317}.cls-8{fill:#9e975f}.cls-10{stroke-width:2px}</style></defs><path d="M338 110.5c6 14 53 72.1 58 78l116-86-54 158.4 79.7-10.2-64 70.6L640.8 385 472 466.1l60 84.5h-84l88 57.8h-70l116 150.7-172-66.5L436 880 328 694.6l-44 64.5L296 141z" transform="translate(-37.8 -25.2)" style="stroke-width:5px;stroke-miterlimit:10;fill:#f7d943;stroke:#af9f5d"/><path d="M339.3 335.3c2 4.8 17.8 24.8 19.4 26.8 2.4-1.7 47-57.2 47-57.2l-29.6 75 13.4 2.4-11.3 23.8 72.5-7.6-66 50.1 35.7 16.7-44.3 21.3 53.6 19.9h-47.5l38.8 51.8-57.6-22.8 24.3 98.3-60-70.8" transform="translate(-37.8 -25.2)" style="fill:#eabe42;stroke:#f7f7f7;stroke-width:5px;stroke-miterlimit:10"/><path class="cls-3" d="M237.5 1.3 1.5 141.4v597.4l236 141.4"/><path class="cls-4" d="m185.2 31.7-1.7 816.8M114 73.4l-1.6 729.7M54 110.7l-.8 657.1"/><rect x="234.9" width="69.7" height="881.33" rx="1" style="fill:#332a26"/><path class="cls-3" d="m1.5 253.7 236-112.5v115l-236 83.5v-86zM1.5 582.8l237.1 83v115L1.5 668.8v-86z"/><path class="cls-6" d="m4.9 276.6 229.3-105.8v59.1L4.9 316.7v-40.1z"/><path class="cls-7" d="m16 287.5 4.6-2.2v8.6l-4.7 2.2.1-8.6zM98.1 250.9l7.5-3.6-.1 13.8-7.5 3.7.1-13.9zM196.1 206.2l10.4-5-.1 19.2-10.5 5.1.2-19.3z"/><path class="cls-6" d="m4.9 608.6 230 91.5v59.2L4.9 648.7v-40.1z"/><path class="cls-8" d="M237.5 141.2h69.7v114.85h-69.7zM237.5 665.9h69.7v114.85h-69.7zM237.5 373.3h69.7v145.44h-69.7z"/><path class="cls-3" d="m232.9 518.8-48.5-7.9V383.4l48.5-10.1v145.5z"/><path class="cls-6" d="m195.9 393.4 23.3-4v31.3l-23.3 2.7v-30zM195.9 449.5h23.3v33.6l-23.3-1.9v-31.7z"/><path d="M227.5 445.7c11.2 8.9 11 20.3 6.1 27.9s-13.1 17.6-13.1 17.6l-11.6-8 11.6-15.6s4.8-5.8-1.4-10.3-13.6 4.3-17.6 9.8c-6-4.5-11-7.7-11-7.7s17.5-29.1 37-13.7z" transform="translate(-37.8 -25.2)" style="stroke-width:2px;fill:#ecd317;stroke:#332a26;stroke-miterlimit:10"/><path class="cls-10" transform="rotate(35.1 229.522 445.842)" d="M179.1 491.1H238v54.45h-58.9z"/><path class="cls-6" transform="rotate(35.1 222.506 424.757)" d="M196.5 491.6h10v11.17h-10z"/><path class="cls-6" transform="rotate(35.1 244.408 439.569)" d="M209.3 506.4h28.3v11.17h-28.3z"/><path class="cls-6" transform="rotate(35.1 229.232 447.673)" d="M185.6 516.1h45.2v7.96h-45.2z"/><path class="cls-6" transform="rotate(35.1 218.827 462.615)" d="M174.4 531.1h47.1v7.96h-47.1z"/><path class="cls-7" d="m17.6 630.8 4.7 2.5-.1 8.5-4.6-2.3v-8.7zM101 664.3l7.6 3.6-.1 13.9-7.6-3.6.1-13.9zM196 705.5l10.5 5.1-.1 19.2-10.6-5 .2-19.3z"/><circle class="cls-10" cx="177" cy="438.2" r="6.6"/></svg>