<svg id="b6a5a31f-5e17-4ed3-b81c-391a6581932b" data-name="Calque 1" xmlns="http://www.w3.org/2000/svg" xmlns:xlink="http://www.w3.org/1999/xlink" viewBox="0 0 470.58 67.66"><defs><style>.b303ba4d-de38-4d6a-9018-5020541cd50d{stroke:#9def48;stroke-miterlimit:10;fill:url(#fa6046ae-d5e8-4ed8-bd9e-8dc400cf7b7f);}.f4825a83-71fb-4b02-8bfb-53367c988377{fill:#9def48;}</style><linearGradient id="fa6046ae-d5e8-4ed8-bd9e-8dc400cf7b7f" x1="0.5" y1="33.83" x2="470.08" y2="33.83" gradientUnits="userSpaceOnUse"><stop offset="0" stop-color="#032c02"/><stop offset="1" stop-color="#207a09"/></linearGradient></defs><polygon class="b303ba4d-de38-4d6a-9018-5020541cd50d" points="0.5 6.04 102.57 6.04 108.7 0.5 150.44 0.5 158.35 6.04 461.77 6.24 470.08 16.13 470.08 59.84 50.94 59.84 42.83 67.16 8.02 67.16 0.5 59.84 0.5 6.04"/><path class="f4825a83-71fb-4b02-8bfb-53367c988377" d="M54.53,30.84H91.69a24.48,24.48,0,0,0-3.09-8.61H60.9a24.54,24.54,0,0,0-2.06,4.52H52.71a24,24,0,0,1,5.15-10.22h33.8q5.91,6.91,5.91,17.16L95,36.51H57.83a23.86,23.86,0,0,0,3.07,8.64H88.6a26.15,26.15,0,0,0,2.08-4.53h6.13a23.92,23.92,0,0,1-5.15,10.22H57.86Q52,44,52,33.69Z"/><path class="f4825a83-71fb-4b02-8bfb-53367c988377" d="M136.69,22.23h-11a22.8,22.8,0,0,0-3.28,11.46,22.91,22.91,0,0,0,3.28,11.46h3.78v5.69h-6.85q-5.91-6.92-5.91-17.15t5.91-17.16h14.07V11.15h5.67v5.38h14.07q5.91,6.88,5.91,17.16t-5.91,17.15h-6.84V45.15h3.8a23.09,23.09,0,0,0,3.26-11.46,23,23,0,0,0-3.26-11.46h-11V42.56h-5.67Z"/><path class="f4825a83-71fb-4b02-8bfb-53367c988377" d="M176.65,41.29l-6,9.55h-7.1l21.79-34.31h6.56l21.63,34.31h-7l-5.94-9.55ZM197,35.62,188.66,22.2l-8.45,13.42Z"/><path class="f4825a83-71fb-4b02-8bfb-53367c988377" d="M253.45,40.62h6.13a23.92,23.92,0,0,1-5.15,10.22H220.62q-5.91-6.92-5.91-17.15t5.91-17.16h33.81a24,24,0,0,1,5.15,10.22h-6.13a25.22,25.22,0,0,0-2.06-4.52h-27.7a22.8,22.8,0,0,0-3.28,11.46,22.91,22.91,0,0,0,3.28,11.46h27.7A26.64,26.64,0,0,0,253.45,40.62Z"/><path class="f4825a83-71fb-4b02-8bfb-53367c988377" d="M270.25,36.51a24.53,24.53,0,0,0,3.08,8.64h3.78v5.69h-6.84q-5.91-6.92-5.91-17.15t5.91-17.16h6.84v5.7h-3.78a24.26,24.26,0,0,0-3.08,8.61H304.1A24.6,24.6,0,0,0,301,22.23h-3.8v-5.7h6.84Q310,23.42,310,33.69t-5.91,17.15h-6.84V45.15H301a24.88,24.88,0,0,0,3.06-8.64Z"/><path class="f4825a83-71fb-4b02-8bfb-53367c988377" d="M322.86,50.84h-5.7V21.39l5.7-5.7Z"/><path class="f4825a83-71fb-4b02-8bfb-53367c988377" d="M339,22.23a22.8,22.8,0,0,0-3.28,11.46A22.91,22.91,0,0,0,339,45.15h3.78v5.69H336Q330,43.93,330,33.69T336,16.53h33.8q5.91,6.88,5.91,17.16t-5.91,17.15h-6.84V45.15h3.8A23.09,23.09,0,0,0,370,33.69a23,23,0,0,0-3.26-11.46Z"/><path class="f4825a83-71fb-4b02-8bfb-53367c988377" d="M415.28,36.51H391.6a24.53,24.53,0,0,0,3.08,8.64h28.19l3.28,5.69H391.62a24.69,24.69,0,0,1-5.79-14.33h-5.38V30.84h5.38a24.6,24.6,0,0,1,5.79-14.31h34.53l-3.28,5.7H394.68a24.26,24.26,0,0,0-3.08,8.61h23.68Z"/></svg>