<?xml version="1.0" encoding="utf-8"?>
<!-- Generator: Adobe Illustrator 24.1.2, SVG Export Plug-In . SVG Version: 6.00 Build 0)  -->
<svg version="1.1" id="Calque_1" xmlns="http://www.w3.org/2000/svg" xmlns:xlink="http://www.w3.org/1999/xlink" x="0px" y="0px"
	 viewBox="0 0 470.3 67.4" style="enable-background:new 0 0 470.3 67.4;" xml:space="preserve">
<style type="text/css">
	.st0{fill:url(#SVGID_1_);stroke:#9DEF48;stroke-width:0.75;stroke-miterlimit:10;}
	.st1{enable-background:new    ;}
	.st2{fill:#9DEF48;}
	.st3{fill:#E60012;}
	.st4{fill:#FFFFFF;}
</style>
<g id="a19f2c5b-a2f0-49cc-8d6f-3638ee4a89c2">
	
		<linearGradient id="SVGID_1_" gradientUnits="userSpaceOnUse" x1="0.38" y1="36.295" x2="469.96" y2="36.295" gradientTransform="matrix(1 0 0 -1 0 70)">
		<stop  offset="0" style="stop-color:#032C02"/>
		<stop  offset="1" style="stop-color:#207A09"/>
	</linearGradient>
	<polygon class="st0" points="0.4,5.9 102.4,5.9 108.6,0.4 150.3,0.4 158.2,5.9 461.6,6.1 470,16 470,59.7 50.8,59.7 42.7,67 
		7.9,67 0.4,59.7 	"/>
	<g class="st1">
		<path class="st2" d="M79.9,30.4l1.7,1.9c0,4.5-1.3,8.2-3.9,11.2H55.6c-1.6-1.9-2.8-4.2-3.4-6.7h4c0.3,1,0.8,2,1.4,3h18.1
			c1.1-1.9,1.7-3.8,2-5.6H53.4l-1.7-1.8c0-4.5,1.3-8.2,3.9-11.2h22.1c1.6,1.9,2.8,4.2,3.4,6.7h-4c-0.3-1-0.8-2-1.3-3H57.6
			c-1.1,1.9-1.7,3.8-2,5.6H79.9z"/>
		<path class="st2" d="M90.5,39.8h18.1c1.4-2.5,2.1-5,2.1-7.5c0-2.5-0.7-5-2.1-7.5h-2.5v-3.7h4.5c2.6,3,3.9,6.7,3.9,11.2
			c0,4.5-1.3,8.2-3.9,11.2H88.5c-2.6-3-3.9-6.7-3.9-11.2c0-4.5,1.3-8.2,3.9-11.2H93v3.7h-2.5c-1.4,2.5-2.1,5-2.1,7.5
			C88.4,34.8,89.1,37.3,90.5,39.8z"/>
		<path class="st2" d="M149.1,34.1h-24.3c0.3,1.9,0.9,3.8,2,5.6h2.5v3.7h-4.5c-2.2-2.6-3.5-5.7-3.8-9.4h-3.5v-3.7h3.5
			c0.3-3.7,1.6-6.8,3.8-9.3H147c2.6,3,3.9,6.7,3.9,11.2L149.1,34.1z M124.9,30.4H147c-0.3-1.9-0.9-3.8-2-5.6h-18.1
			C125.8,26.7,125.1,28.6,124.9,30.4z"/>
	</g>
	<g class="st1">
		<path class="st2" d="M176.6,34.1h-15.5c0.3,1.9,0.9,3.8,2,5.6h18.4l2.1,3.7h-22.5c-2.2-2.6-3.5-5.7-3.8-9.4h-3.5v-3.7h3.5
			c0.3-3.7,1.6-6.8,3.8-9.3h22.5l-2.1,3.7h-18.4c-1.1,1.9-1.7,3.8-2,5.6h15.5V34.1z"/>
	</g>
	<g class="st1">
		<path class="st2" d="M207.8,39.8h2.5c1.1-1.9,1.7-3.8,2-5.6h-22.1c0.3,1.9,0.9,3.8,2,5.6h2.5v3.7h-4.5c-2.2-2.6-3.5-5.7-3.8-9.4
			h-3.5v-3.7h3.5c0.3-3.7,1.6-6.8,3.8-9.3h22.1c2.2,2.6,3.5,5.7,3.8,9.4l-1.6,0.9v1.9l1.6,0.9c-0.3,3.7-1.6,6.8-3.8,9.4h-4.5V39.8z
			 M190.2,30.4h22.1c-0.3-1.9-0.9-3.8-2-5.6h-18.1C191.2,26.7,190.5,28.6,190.2,30.4z"/>
		<path class="st2" d="M234.4,24.8c-1.4,2.5-2.1,5-2.1,7.5c0,2.5,0.7,5,2.1,7.5h2.5v3.7h-4.5c-2.6-3-3.9-6.7-3.9-11.2
			c0-4.5,1.3-8.2,3.9-11.2h22.1c2.6,3,3.9,6.7,3.9,11.2c0,4.5-1.3,8.2-3.9,11.2h-4.5v-3.7h2.5c1.4-2.5,2.1-5,2.1-7.5
			c0-2.5-0.7-5-2.1-7.5H234.4z"/>
		<path class="st2" d="M266.8,43.5h-3.7V24.3l3.7-3.7V43.5z"/>
	</g>
	<g class="st1">
		<path class="st2" d="M277.3,24.8c-1.4,2.5-2.1,5-2.1,7.5c0,2.5,0.7,5,2.1,7.5h2.5v3.7h-4.5c-2.6-3-3.9-6.7-3.9-11.2
			c0-4.5,1.3-8.2,3.9-11.2h22.1c2.6,3,3.9,6.7,3.9,11.2c0,4.5-1.3,8.2-3.9,11.2h-4.5v-3.7h2.5c1.4-2.5,2.1-5,2.1-7.5
			c0-2.5-0.7-5-2.1-7.5H277.3z"/>
	</g>
	<g class="st1">
		<path class="st2" d="M319.5,40.3l-3.7,3.7V24.8h-12.2v-3.7h28v3.7h-12.2V40.3z"/>
	</g>
	<g class="st1">
		<path class="st2" d="M354.8,34.1h-15.5c0.3,1.9,0.9,3.8,2,5.6h18.4l2.1,3.7h-22.5c-2.2-2.6-3.5-5.7-3.8-9.4H332v-3.7h3.5
			c0.3-3.7,1.6-6.8,3.8-9.3h22.5l-2.1,3.7h-18.4c-1.1,1.9-1.7,3.8-2,5.6h15.5V34.1z"/>
	</g>
	<g class="st1">
		<path class="st2" d="M369.3,24.8c-1.4,2.5-2.1,5-2.1,7.5c0,2.5,0.7,5,2.1,7.5h2.5v3.7h-4.5c-2.6-3-3.9-6.7-3.9-11.2
			c0-4.5,1.3-8.2,3.9-11.2h22.1c2.6,3,3.9,6.7,3.9,11.2c0,4.5-1.3,8.2-3.9,11.2h-4.5v-3.7h2.5c1.4-2.5,2.1-5,2.1-7.5
			c0-2.5-0.7-5-2.1-7.5H369.3z"/>
		<path class="st2" d="M397.1,21.1h24.7c2.6,3,3.9,6.7,3.9,11.2c0,4.5-1.3,8.2-3.9,11.2h-24.7V21.1z M400.9,39.8h19
			c1.4-2.5,2.1-5,2.1-7.5c0-2.5-0.7-5-2.1-7.5h-19V39.8z"/>
		<path class="st2" d="M454.8,43.5h-22.1c-2.6-3-3.9-6.7-3.9-11.2c0-4.5,1.3-8.2,3.9-11.2h22.1c2.6,3,3.9,6.7,3.9,11.2
			C458.6,36.8,457.3,40.5,454.8,43.5z M452.8,39.8c1.4-2.5,2.1-5,2.1-7.5c0-2.5-0.7-5-2.1-7.5h-18.1c-1.4,2.5-2.1,5-2.1,7.5
			c0,2.5,0.7,5,2.1,7.5H452.8z"/>
	</g>
</g>
<g id="ad8bde66-1660-4a31-9b50-e031ae4ca551">
	<path class="st3" d="M25.5,23.2c1.1-0.1,2-1.1,1.9-2.2c0.1-1.1-0.8-2.1-1.9-2.2c-1.1,0.1-2,1.1-1.9,2.2
		C23.6,22.1,24.4,23.1,25.5,23.2z M24.8,20.4h1.4c0.5,0,0.8,0.3,0.8,0.6s-0.2,0.6-0.8,0.6h-1.4c-0.5,0-0.8-0.3-0.8-0.6
		S24.3,20.4,24.8,20.4z"/>
	<path class="st3" d="M23.7,26c-0.1,1,0.7,1.9,1.7,1.9c0,0,0,0,0.1,0c0.7,0,1.4-0.4,1.7-1c0.3-0.6,0.2-1.2-0.1-1.8h0.2v-1.5h-5v1.5
		H24C23.9,25.5,23.8,25.7,23.7,26z M24.9,25.2h1.2c0.3,0,0.6,0.2,0.7,0.5s-0.2,0.6-0.5,0.7c-0.1,0-0.1,0-0.2,0h-1.2
		c-0.3,0-0.6-0.2-0.7-0.5s0.2-0.6,0.5-0.7C24.8,25.2,24.9,25.2,24.9,25.2z"/>
	<polygon class="st4" points="39.1,19.2 39.1,19.2 39.1,19.2 	"/>
	<polygon class="st3" points="23.9,38.5 23.9,37.6 23.4,37.6 23.4,38.5 22.7,38.5 22.7,40 23.4,40 23.4,40.8 23.9,40.8 23.9,40 
		27.2,40 27.2,38.4 	"/>
	<path class="st3" d="M26.1,33.4V35h0.2c0.6,0,0.8,0.4,0.8,0.6c0,0.4-0.3,0.7-0.7,0.6c0,0-0.1,0-0.1,0h-0.7v-2.9
		c-1.2,0.2-2.1,1.4-1.9,2.6c0.2,1,0.9,1.7,1.9,1.9c1.1-0.1,2-1.1,1.9-2.2C27.5,34.6,26.9,33.8,26.1,33.4z M25.1,36.2
		c-0.2,0-0.4,0-0.6-0.1c-0.2-0.1-0.3-0.3-0.3-0.5l0,0c0-0.2,0.1-0.4,0.3-0.5c0.2-0.1,0.4-0.1,0.6-0.1V36.2z"/>
	<rect x="23.9" y="46.1" class="st3" width="3.4" height="1.5"/>
	<path class="st3" d="M25,30h2.2v-1.5h-1.8c-0.9,0-1.7,0.7-1.7,1.6c0,0,0,0.1,0,0.1l0,0c0,0.5,0.2,0.9,0.5,1.2h-0.4v1.5h3.4v-1.5H25
		c-0.4,0-0.6-0.4-0.6-0.7C24.4,30.3,24.7,30,25,30z"/>
	<path class="st3" d="M24.7,14.5c-3,0-5.4,2.4-5.4,5.4c0,0.1,0,0.2,0,0.3v32.2c-0.1,3,2.2,5.5,5.1,5.6c3,0.1,5.5-2.2,5.6-5.1
		c0-0.2,0-0.3,0-0.5V20.2c0.2-3-2.1-5.5-5.1-5.7C24.9,14.5,24.8,14.5,24.7,14.5z M28.7,52.4c0.2,2.2-1.5,4.2-3.7,4.4
		s-4.2-1.5-4.4-3.7c0-0.2,0-0.5,0-0.7V20.2c-0.2-2.2,1.5-4.2,3.7-4.4c2.2-0.2,4.2,1.5,4.4,3.7c0,0.2,0,0.5,0,0.7V52.4z"/>
	<path class="st3" d="M25,42.3h2.2v-1.5h-1.8c-0.9,0-1.7,0.7-1.7,1.6c0,0,0,0.1,0,0.1l0,0c0,0.5,0.2,0.9,0.5,1.2h-0.4v1.5h3.4v-1.5
		H25c-0.4,0-0.6-0.4-0.6-0.7C24.4,42.6,24.7,42.3,25,42.3z"/>
	<rect x="22.2" y="46.1" class="st3" width="1" height="1.5"/>
	<polygon class="st3" points="22.2,50 25.7,50 22.2,52.2 22.2,53.8 27.2,53.8 27.2,52.2 23.7,52.2 27.2,50 27.2,48.5 22.2,48.5 	"/>
</g>
</svg>
