<svg xmlns="http://www.w3.org/2000/svg" xmlns:xlink="http://www.w3.org/1999/xlink" viewBox="0 0 470.58 67.66"><defs><style>.a2d58498-9d35-436b-822f-729d52ad220e{stroke:#9def48;stroke-miterlimit:10;fill:url(#a0781751-f243-4ec0-95a4-e44efbda6e72);}.bf65618f-9ed2-4ec6-8aee-c7135a34897a{fill:#9def48;}.a67e8ee7-40bd-4f7e-9ae2-5a8f9411bfb7{fill:#f91b20;}</style><linearGradient id="a0781751-f243-4ec0-95a4-e44efbda6e72" x1="0.5" y1="33.83" x2="470.08" y2="33.83" gradientUnits="userSpaceOnUse"><stop offset="0" stop-color="#032c02"/><stop offset="1" stop-color="#207a09"/></linearGradient></defs><g id="e09b6b34-f38c-4899-9361-fb6fd21b788c" data-name="calque3"><polygon class="a2d58498-9d35-436b-822f-729d52ad220e" points="0.5 6.04 102.57 6.04 108.7 0.5 150.44 0.5 158.35 6.04 461.77 6.24 470.08 16.13 470.08 59.84 50.94 59.84 42.83 67.16 8.02 67.16 0.5 59.84 0.5 6.04"/><path class="bf65618f-9ed2-4ec6-8aee-c7135a34897a" d="M59.06,24.64a16.32,16.32,0,0,0-2.34,8.18A16.41,16.41,0,0,0,59.06,41h2.7v4.07H56.87a18.25,18.25,0,0,1-4.22-12.26,18.18,18.18,0,0,1,4.22-12.25H81a18.18,18.18,0,0,1,4.22,12.25A18.25,18.25,0,0,1,81,45.08H76.13V41h2.72a16.48,16.48,0,0,0,2.32-8.19,16.39,16.39,0,0,0-2.32-8.18Z"/><path class="bf65618f-9ed2-4ec6-8aee-c7135a34897a" d="M124.92,34.84a17.67,17.67,0,0,1-4.13,10.24H96.64A17.62,17.62,0,0,1,92.5,34.84H88.66V30.79H92.5a17.51,17.51,0,0,1,4.14-10.22h24.15a17.59,17.59,0,0,1,4.13,10.24l-1.76,1v2.05Zm-28.3-4.05H120.8a17.44,17.44,0,0,0-2.18-6.15H98.83A17.33,17.33,0,0,0,96.62,30.79Zm0,4.05A17.49,17.49,0,0,0,98.83,41h19.79a17.6,17.6,0,0,0,2.18-6.17Z"/></g><g id="face229a-d8dc-44b5-b615-d98adae7633c" data-name="namco"><path id="a34a7287-3296-4688-921a-6391c64a5a3c" data-name="rect4393" class="a67e8ee7-40bd-4f7e-9ae2-5a8f9411bfb7" d="M21.49,16.56a2,2,0,0,0,2,2h3.54a2,2,0,0,0,2-2V10.15a2,2,0,0,0-2-2H23.51a2,2,0,0,0-2,2Zm2.15-.46V10.65h3.28V16.1Z"/><path id="ed1fdd2b-2f3f-40e8-b0aa-0f2ff0039f15" data-name="rect4348" class="a67e8ee7-40bd-4f7e-9ae2-5a8f9411bfb7" d="M21.64,64.82h7.44V62.33H23.79V57.65h5.29V55.21H23.66a2,2,0,0,0-2,2Z"/><path id="a68afbeb-292b-4c97-a6fe-d8ee9e5b2895" data-name="path4359" class="a67e8ee7-40bd-4f7e-9ae2-5a8f9411bfb7" d="M21.64,53.53h2V46.78h.53v5.27a2,2,0,0,0,2,2h.9a2,2,0,0,0,2-2v-7.7H23.66a2,2,0,0,0-2,2v7.16Zm4.47-2V46.79h1.06v4.75Z"/><path id="ae4c0d7a-8fce-4418-bdd5-7abbb1bec15e" data-name="path4384" class="a67e8ee7-40bd-4f7e-9ae2-5a8f9411bfb7" d="M21.64,42.82h7.44V40.33H23.79V37.78h5.29V35.29H23.79v-2.6h5.29V30.25H23.66a2,2,0,0,0-2,2Z"/><path id="a591eb35-82c9-4ba6-b24b-d109d4ed42d1" data-name="rect4389" class="a67e8ee7-40bd-4f7e-9ae2-5a8f9411bfb7" d="M21.49,26.79a2,2,0,0,0,2,2h3.54a2,2,0,0,0,2-2V20H26.92v6.3H23.64V20H21.49Z"/></g></svg>