<svg xmlns="http://www.w3.org/2000/svg" xmlns:xlink="http://www.w3.org/1999/xlink" viewBox="0 0 470.58 67.66"><defs><style>.baea852c-ead7-460b-9e2d-9c43394d28cf{stroke:#9def48;stroke-miterlimit:10;fill:url(#b86caabb-06bd-450a-9cfb-287b7928a0cf);}.b7aaffce-ace4-4bc5-a992-559e17c4cf63{fill:#9def48;}.ead39696-5c56-489b-a601-0b7dae1647d5{fill:#0097e0;}.bfd67f3a-e257-4fc6-add7-f4c1e1d064f9{fill:#0096df;}</style><linearGradient id="b86caabb-06bd-450a-9cfb-287b7928a0cf" x1="0.5" y1="33.83" x2="470.08" y2="33.83" gradientUnits="userSpaceOnUse"><stop offset="0" stop-color="#032c02"/><stop offset="1" stop-color="#207a09"/></linearGradient></defs><g id="f51fec58-42e0-42f8-b7ce-9069d53bfa76" data-name="texte"><polygon class="baea852c-ead7-460b-9e2d-9c43394d28cf" points="0.5 6.04 102.57 6.04 108.7 0.5 150.44 0.5 158.35 6.04 461.77 6.24 470.08 16.13 470.08 59.84 50.94 59.84 42.83 67.16 8.02 67.16 0.5 59.84 0.5 6.04"/><path class="b7aaffce-ace4-4bc5-a992-559e17c4cf63" d="M80.32,37.43h4.37A17.11,17.11,0,0,1,81,44.73H56.87a18.22,18.22,0,0,1-4.22-12.25,18.25,18.25,0,0,1,4.22-12.26H81a17.11,17.11,0,0,1,3.67,7.3H80.32a18.89,18.89,0,0,0-1.47-3.23H59.06a16.33,16.33,0,0,0-2.34,8.19,16.37,16.37,0,0,0,2.34,8.18H78.85A19.62,19.62,0,0,0,80.32,37.43Z"/><path class="b7aaffce-ace4-4bc5-a992-559e17c4cf63" d="M93,40.66h18.43l2.34,4.07H89v-21L93,19.63Z"/><path class="b7aaffce-ace4-4bc5-a992-559e17c4cf63" d="M125.73,37.91l-4.29,6.82h-5.08l15.57-24.51h4.68l15.45,24.51h-5l-4.23-6.82Zm14.56-4-6-9.59-6,9.59Z"/><path class="b7aaffce-ace4-4bc5-a992-559e17c4cf63" d="M183.66,30.44l1.85,2a18.12,18.12,0,0,1-4.23,12.25H157.14a17.13,17.13,0,0,1-3.68-7.3h4.38a18.61,18.61,0,0,0,1.48,3.23h19.79a16.86,16.86,0,0,0,2.19-6.17H154.76l-1.84-2a18.2,18.2,0,0,1,4.22-12.26h24.14a17.13,17.13,0,0,1,3.68,7.3h-4.38a17.47,17.47,0,0,0-1.47-3.23H159.32a17.49,17.49,0,0,0-2.2,6.15Z"/><path class="b7aaffce-ace4-4bc5-a992-559e17c4cf63" d="M219.67,30.44l1.84,2a18.12,18.12,0,0,1-4.22,12.25H193.14a17.11,17.11,0,0,1-3.67-7.3h4.38a18.61,18.61,0,0,0,1.48,3.23h19.79a16.86,16.86,0,0,0,2.19-6.17H190.77l-1.85-2a18.25,18.25,0,0,1,4.22-12.26h24.15a17.13,17.13,0,0,1,3.68,7.3h-4.38a17.47,17.47,0,0,0-1.47-3.23H195.33a17.3,17.3,0,0,0-2.2,6.15Z"/><path class="b7aaffce-ace4-4bc5-a992-559e17c4cf63" d="M230.71,44.73h-4.07v-21l4.07-4.06Z"/><path class="b7aaffce-ace4-4bc5-a992-559e17c4cf63" d="M263.5,37.43h4.38a17.13,17.13,0,0,1-3.68,7.3H240.06a18.17,18.17,0,0,1-4.22-12.25,18.2,18.2,0,0,1,4.22-12.26H264.2a17.13,17.13,0,0,1,3.68,7.3H263.5A17.47,17.47,0,0,0,262,24.29H242.24a16.33,16.33,0,0,0-2.34,8.19,16.37,16.37,0,0,0,2.34,8.18H262A18.09,18.09,0,0,0,263.5,37.43Z"/><path class="b7aaffce-ace4-4bc5-a992-559e17c4cf63" d="M302,30.44l1.85,2a18.17,18.17,0,0,1-4.22,12.25H275.52a17.13,17.13,0,0,1-3.68-7.3h4.38a18.61,18.61,0,0,0,1.48,3.23h19.8a17,17,0,0,0,2.18-6.17H273.14l-1.84-2a18.2,18.2,0,0,1,4.22-12.26h24.15a17.11,17.11,0,0,1,3.67,7.3H299a18.09,18.09,0,0,0-1.46-3.23H277.7a17.49,17.49,0,0,0-2.2,6.15Z"/></g><g id="fb44d421-258b-49e9-8243-cab5bca16f74" data-name="snk"><path id="bb6be266-3161-4704-8765-58e34754b54a" data-name="S" class="ead39696-5c56-489b-a601-0b7dae1647d5" d="M22.94,64.9c2.22,0,4-1.48,4-3.31V52.37a.47.47,0,0,1,.5-.42.45.45,0,0,1,.49.42V64.94h3.57v-14c0-1.84-1.84-3.32-4.06-3.32s-4.06,1.48-4.06,3.32v9.18a.47.47,0,0,1-.5.42.44.44,0,0,1-.49-.42V47.61h-3.5v14c0,1.83,1.8,3.31,4,3.31Z"/><polygon id="ef77eeeb-9b38-4832-b8ba-48a3e2d5094f" data-name="N" class="ead39696-5c56-489b-a601-0b7dae1647d5" points="18.91 46.58 31.45 46.58 31.45 42.17 23.57 42.17 31.45 33.77 31.45 29.18 18.91 29.18 18.91 33.59 26.75 33.59 18.91 41.99 18.91 46.58"/><polygon id="e69cfa94-4aeb-4c31-9bbe-cf5baeaac918" data-name="K" class="ead39696-5c56-489b-a601-0b7dae1647d5" points="24.42 23.74 18.91 23.74 18.91 28.23 31.45 28.23 31.45 23.74 25.9 23.74 31.45 16.61 31.45 10.86 25.2 18.98 18.91 10.86 18.91 16.61 24.42 23.74"/><path id="f33d5b41-2b11-4c7f-8ad4-f465329dda62" data-name="mark" class="bfd67f3a-e257-4fc6-add7-f4c1e1d064f9" d="M19.3,8.64a1.29,1.29,0,0,0-.39.91,1.31,1.31,0,0,0,.39.92,1.28,1.28,0,0,0,1.84,0,1.31,1.31,0,0,0,.39-.92,1.33,1.33,0,0,0-1.31-1.3,1.34,1.34,0,0,0-.92.39Zm1.7.14a1.12,1.12,0,0,1,0,1.55,1.13,1.13,0,0,1-.78.32,1.06,1.06,0,0,1-.78-.32,1.09,1.09,0,0,1-.31-.78,1,1,0,0,1,.31-.77,1.11,1.11,0,0,1,1.56,0Z"/><path id="b3ca4ded-8f73-40a7-886f-325a90a2ba49" data-name="R" class="bfd67f3a-e257-4fc6-add7-f4c1e1d064f9" d="M20,9h0a.4.4,0,0,0-.39.39v.74h1.31V9.87H20.4V9.41a.16.16,0,0,1,.14-.17l.32,0V9l-.32,0a.48.48,0,0,0-.25.11A.27.27,0,0,0,20,9Zm-.21.92V9.34A.17.17,0,0,1,20,9.16H20a.17.17,0,0,1,.18.18v.53Z"/></g></svg>