<svg xmlns="http://www.w3.org/2000/svg" xmlns:xlink="http://www.w3.org/1999/xlink" viewBox="0 0 746.51 821.74"><defs><radialGradient id="b73aafa6-9ca7-4d9f-8954-be257bd049b4" cx="65.88" cy="348.77" r="11.47" gradientUnits="userSpaceOnUse"><stop offset="0" stop-color="#fd6d66"/><stop offset=".78" stop-color="#b50a03"/></radialGradient><radialGradient id="e9b7eed8-8211-4381-b2a6-76ce3d858828" cx="100.32" cy="382.53" r="5.66" gradientTransform="matrix(1 0 0 .6 0 153.01)" xlink:href="#a1b66e76-f4ab-4077-8fc6-1b3c48dc9ade"/><radialGradient id="a1b66e76-f4ab-4077-8fc6-1b3c48dc9ade" cx="92.36" cy="393.88" r="5.66" gradientTransform="matrix(1 0 0 .6 0 157.55)" gradientUnits="userSpaceOnUse"><stop offset="0" stop-color="#0000ef"/><stop offset=".15" stop-color="#0000e9"/><stop offset=".34" stop-color="#0101d9"/><stop offset=".56" stop-color="#0101be"/><stop offset=".79" stop-color="#02029a"/><stop offset="1" stop-color="#020282"/></radialGradient><radialGradient id="a9d53d07-41dc-4a6b-98ed-94ec654d2808" cx="114.61" cy="393.88" r="5.66" xlink:href="#a1b66e76-f4ab-4077-8fc6-1b3c48dc9ade"/><radialGradient id="a86154fc-9a3d-4469-944f-c82e0962ef84" cx="133.17" cy="400.04" r="5.66" gradientTransform="matrix(1 0 0 .6 0 160.02)" xlink:href="#a1b66e76-f4ab-4077-8fc6-1b3c48dc9ade"/><radialGradient id="a5ded96b-7cb0-431e-9523-d0fb469200ee" cx="139.21" cy="387.78" r="5.66" gradientTransform="matrix(1 0 0 .6 0 155.11)" xlink:href="#a1b66e76-f4ab-4077-8fc6-1b3c48dc9ade"/><radialGradient id="bdf7e56b-be81-42f7-9169-5fa34d3268ca" cx="121.61" cy="382.1" r="5.66" gradientTransform="matrix(1 0 0 .6 0 152.84)" xlink:href="#a1b66e76-f4ab-4077-8fc6-1b3c48dc9ade"/><radialGradient id="f4aa1f29-d95b-43f0-b56a-20980ef4ffb0" cx="195.83" cy="370.99" r="11.47" xlink:href="#b73aafa6-9ca7-4d9f-8954-be257bd049b4"/><radialGradient id="bba5b0df-ed4b-4b87-b6dd-d75ddbb66b18" cx="225.51" cy="404.67" r="5.66" xlink:href="#b73aafa6-9ca7-4d9f-8954-be257bd049b4"/><radialGradient id="aa920c47-4dca-431e-babe-f770837f4615" cx="246.79" cy="404.24" r="5.66" xlink:href="#b73aafa6-9ca7-4d9f-8954-be257bd049b4"/><radialGradient id="eb448b27-ca8d-428d-ad1a-d344838c43c2" cx="264.4" cy="409.93" r="5.66" xlink:href="#b73aafa6-9ca7-4d9f-8954-be257bd049b4"/><radialGradient id="ed795772-6f18-423f-acf4-b148bac5191e" cx="258.36" cy="422.19" r="5.66" xlink:href="#b73aafa6-9ca7-4d9f-8954-be257bd049b4"/><radialGradient id="a8021c2b-8943-4155-b8ec-c06dd644213e" cx="239.79" cy="416.02" r="5.66" xlink:href="#b73aafa6-9ca7-4d9f-8954-be257bd049b4"/><radialGradient id="ae7938e0-644c-4a2d-a98f-f514557a28e1" cx="217.55" cy="416.02" r="5.66" xlink:href="#b73aafa6-9ca7-4d9f-8954-be257bd049b4"/><linearGradient id="b793f696-70ec-44a1-9e07-de33a52fc5be" x1="236.91" y1="1040.48" x2="236.91" y2="1116.61" xlink:href="#b8489454-e2f5-4ccf-8528-83da925601da"/><linearGradient id="b8489454-e2f5-4ccf-8528-83da925601da" x1="284.86" y1="1040.35" x2="284.86" y2="1116.85" gradientTransform="rotate(8.83 6574.663 158.811)" gradientUnits="userSpaceOnUse"><stop offset="0" stop-color="#009ee0"/><stop offset="1" stop-color="#004289"/></linearGradient><style>.a2d4377a-6f62-42c4-88d6-f93a344fcbee,.b18823d7-2ac1-46a4-8144-2048052aba94,.b69f17b9-f251-482d-8615-bfc46057f220,.ba89b4ca-7d0b-41fc-be92-f47ec4b66142{stroke:#b5b5b5}.a144d9a6-e09c-4768-bae6-837d9a046a7a,.a2d4377a-6f62-42c4-88d6-f93a344fcbee,.b18823d7-2ac1-46a4-8144-2048052aba94,.b596b507-9b31-428b-bab8-91e2cfe69631,.b69f17b9-f251-482d-8615-bfc46057f220,.ba89b4ca-7d0b-41fc-be92-f47ec4b66142,.e6bd37cc-37cb-4d57-95af-6feab819927b{stroke-miterlimit:10}.a2d4377a-6f62-42c4-88d6-f93a344fcbee,.b18823d7-2ac1-46a4-8144-2048052aba94,.b596b507-9b31-428b-bab8-91e2cfe69631,.b69f17b9-f251-482d-8615-bfc46057f220,.ba89b4ca-7d0b-41fc-be92-f47ec4b66142{stroke-width:.5px}.e6bd37cc-37cb-4d57-95af-6feab819927b{fill:#443840}.b596b507-9b31-428b-bab8-91e2cfe69631,.e6bd37cc-37cb-4d57-95af-6feab819927b{stroke:#090000}.e6bd37cc-37cb-4d57-95af-6feab819927b{stroke-width:.75px}.b596b507-9b31-428b-bab8-91e2cfe69631{fill:#6b0c05}.b77ad7a0-6e36-4d54-a428-c8be2f39d200{fill:#86382f}.a144d9a6-e09c-4768-bae6-837d9a046a7a{stroke:#373737}.fdea57f8-5f78-49f8-a4fa-b2fb407e572e{fill:#00419c}.edbf516a-5a2c-40f2-a869-4bd223b7784a{fill:#344d7a}.b18823d7-2ac1-46a4-8144-2048052aba94{fill:#dc6e05}.b69f17b9-f251-482d-8615-bfc46057f220{fill:#12e600}.eef21417-3b6c-4352-99a2-3762bc21b262{fill:#fff}.a2d4377a-6f62-42c4-88d6-f93a344fcbee{fill:#0b47ce}.f159db52-e1d5-4e84-a7aa-78d421f0dc87{fill:#ffcb08}.ba89b4ca-7d0b-41fc-be92-f47ec4b66142,.e0c47101-bcd4-4180-a1ee-76c3aaa3456e{fill:#282826}.a45e3bbb-b822-4037-8629-21d5b62341f8{fill:#ae7a82}.abb3f12c-cd2f-41fa-beab-af05b6478b81{fill:url(#b73aafa6-9ca7-4d9f-8954-be257bd049b4)}.ad93673a-6153-42c0-98a4-945eb8266bfd{fill:url(#f4aa1f29-d95b-43f0-b56a-20980ef4ffb0)}.f339b114-331d-46c2-a9e8-2f5dfc341c80{fill:#0000ef}.ea150c42-8f69-4b5b-9b5b-125f00ba9a24{fill:#930303}.a5440a09-138c-4beb-9b31-3a64b5689fb9{fill:#e7e7e7}.bd30de20-1857-4641-a103-4297149df083{fill:#2c2b29}.e38f89f5-9dde-41d2-b983-515192ee76e1{fill:#0c4da1}</style></defs><g id="bde35576-ed92-4b56-be7a-3100195713e7" data-name="Calque 1"><path id="e1e20638-79a8-49a1-b38e-065c9103df35" data-name="ombre" style="opacity:.5;fill:#373735" d="m452.03 588.79 21.51-5.91H485.41l1.58 2.96 237.36 43.3h11.08l11.07 31.39-46.41 37.71-46.42 13.19-8.18-1.32.27-1.85-13.98-2.63-83.6 27.95-73.32 51.57-22.83 6.82-7.77-1.16v-2.63l-16.08-3.03-129.99 34.37 153.84-230.73z"/><g id="e960d90c-2bde-40bd-b3a5-452c5e7ffabe" data-name="bottom"><path style="fill:#324d7b" d="m36 454.56 224.9 39.62v4.35l25.72 6.13-.4 311.34-248.24-47.27L36 454.56z"/><path d="m202 526.54-78.38-13.74c-3 .19-4.26 3.56-4.26 3.56l.2 85c.69 2.18 3.86 5 3.86 5l74.27 13.46c5.14.49 7.52-5.25 7.52-5.25v-82.69a7.12 7.12 0 0 0-3.21-5.34zm-49.9 22.55-18.69-3.46v-20l2.27-1.88 18.1 3.07-1.78 2.69zm31.45 6.13-18.69-3.46v-20l2.27-1.87 18.1 3.06-1.78 2.67z" transform="translate(-.98 -.52)" style="stroke-width:.5px;stroke-miterlimit:10;stroke:#b5b5b5;fill:#121211"/><path class="e6bd37cc-37cb-4d57-95af-6feab819927b" d="m134.7 523.25-2.27 1.88v19.98l18.69 3.46-.1-19.58 1.78-2.67-18.1-3.07zM166.15 529.38l-2.27 1.88v19.98l18.69 3.46-.1-19.58 1.78-2.67-18.1-3.07z"/><path class="b596b507-9b31-428b-bab8-91e2cfe69631" d="M140.14 543.03v-12.85l8.01 1.78v12.56l-8.01-1.49zM171.2 548.87v-12.86l8.01 1.78v12.56l-8.01-1.48z"/><path d="M135.23 543.16v-15.23l2.05.4v15.16l-2.05-.33zM166.68 548.7v-15.23l2.04.4v15.16l-2.04-.33z"/><path class="b77ad7a0-6e36-4d54-a428-c8be2f39d200" d="M140.4 530.69v-.35l7.47 1.8.01.43-7.48-1.88zM171.46 536.62v-.29l7.47 1.64.01.35-7.48-1.7z"/><circle cx="192.4" cy="574.85" r="4.25" style="fill:#8b8b8b;stroke-width:.75px;stroke:#090000;stroke-miterlimit:10"/><path class="a144d9a6-e09c-4768-bae6-837d9a046a7a" d="M136.29 598.71v-11.27l11.96 2.18v11.3l-11.96-2.21zM167.54 604.25v-11.27l11.96 2.17v10.88l-11.96-1.78z"/></g><g id="ed9eaf81-8111-4075-8231-b2b78a1f5b76" data-name="t molding"><path class="fdea57f8-5f78-49f8-a4fa-b2fb407e572e" d="m11.46 450.59-.79-39.76L1 407.66v45.1l27.89 5.54c.59 103.55 1 207.6 1.58 311.15a6.18 6.18 0 0 0 3.53 2.19 12.58 12.58 0 0 0 5 0l-2-316.56zM272.36 497v-41.27l-10.28-1.19-.2 44.51 25.71 6.13s-1.51 313.85 0 315.69 8.77 1.32 8.77 1.32l.93-319.91z" transform="translate(-.98 -.52)"/><path class="fdea57f8-5f78-49f8-a4fa-b2fb407e572e" d="m78.72 346.42-8.15-1.3 16.26-218.56 9.04 1.5-17.15 218.36zM329.24 388.85l9.1 1.28 18.49-224.31h-26.37l-.26-90.92-10.06-1.84v94.84l6.04 1.09h20.27l-17.21 219.86z"/><path class="fdea57f8-5f78-49f8-a4fa-b2fb407e572e" d="M88.49 127.19s-28.17-.35-29.11-.85c0-31.21.06-62.83 0-94l9.36 2.64.48 89.02z" transform="translate(-.98 -.52)"/><g id="adc256fb-4f65-4609-9282-90f1a7f21c7b" data-name="clair"><path class="fdea57f8-5f78-49f8-a4fa-b2fb407e572e" d="m0 407.14 9.69 3.17L78 346.25l-8.11-1.94L0 407.14zM261.1 454.02l10.28 1.19 66.96-65.87-8.62-1.6-68.62 66.28zM111.56 0 58.42 31.78l9.36 2.64L120.36 3.3l2.74-1.62-2.57-.36L111.56 0zM383.74 40.62l-11.21-.8-52.39 33.24 10.06 1.84 53.54-34.28z"/></g></g><g id="aa86c0fd-9718-4b8e-bea4-aaeafb185878" data-name="side"><path class="edbf516a-5a2c-40f2-a869-4bd223b7784a" d="m453.13 308.64.63-159.63-70.02-108.39L330.2 74.9l.26 90.92h26.37l-18.49 224.31-66.96 65.08v41.27l24.93 5.28-.93 319.91 8.25-6.32 149.65-543.7-.21 21.51-142.1 516.55-1.61 1.24 6.94-5.32 136.83-496.99zM324.06 799.15l-7.76 6.48 11.99-9.2 124.7-453.24.05-12.13-128.98 468.09zM335.43 790.95l-1.32 1.02 6.87-5.27 111.79-407.64v21.25l.22-57.12-.22 24-117.34 423.76zM343 785.15l108.58-83.28 1.18-299.85L347.4 781.78l-4.4 3.37z"/><path style="fill:#bf0000;stroke-width:.5px;stroke-miterlimit:10;stroke:#b5b5b5" d="m303.63 815.35 5.73-4.4-5.73 4.4z"/><path style="fill:#0c4da2" d="m453.07 293.16.21-21.51-149.65 543.7 5.73-4.4 1.61-1.24 142.1-516.55z"/><path class="b18823d7-2ac1-46a4-8144-2048052aba94" d="M453.13 330.74v-22.1l-.09 22.42.09-.32zM316.3 805.63z"/><path style="fill:#509fec" d="m453.04 331.06.09-22.42L316.3 805.63l7.76-6.48 128.98-468.09z"/><path class="b69f17b9-f251-482d-8615-bfc46057f220" d="M452.99 343.19zM328.29 796.43l5.82-4.46-5.82 4.46z"/><path class="eef21417-3b6c-4352-99a2-3762bc21b262" d="m334.11 791.97 1.32-1.02 117.34-423.76.22-24-124.7 453.24 5.82-4.46z"/><path class="a2d4377a-6f62-42c4-88d6-f93a344fcbee" d="m340.98 786.7 2.02-1.55-2.02 1.55zM452.77 402v-1.69l-.01 1.71.01-.02z"/><path class="f159db52-e1d5-4e84-a7aa-78d421f0dc87" d="m340.98 786.7 2.02-1.55 4.4-3.37 105.36-379.76.01-1.71v-21.25L340.98 786.7z"/></g><g id="ae136e09-d135-4449-b1dd-0adaea9f1d1f" data-name="panel"><path class="ba89b4ca-7d0b-41fc-be92-f47ec4b66142" d="m10.48 450.07 250.42 44.11.2-40.16L9.69 410.31l.79 39.76z"/><path style="fill:#373735" d="m79.37 345.21-69.68 65.1 251.41 43.71 68.62-66.28-250.35-42.53z"/></g><g id="f00162e1-cdea-4cbf-83ac-46f029d81ec6" data-name="ecran"><path class="ba89b4ca-7d0b-41fc-be92-f47ec4b66142" d="M96.84 129.36 79.7 347.72l250.52 42.43L347.82 168zm224.28 67.76c0 .2-.29.32-.48.49l-10.43 144.83a35.43 35.43 0 0 1-4.3 3.78l1.4.29v10.7s-1.4 4.75-11.08 2.64c-11.19-2.44-178.55-31.91-178.55-31.91l8.72-6.78v-1.39s-2.46.52-6-7l-12.48 2.77h-4l11.34-158.77s4-6.85 10.81-6.59 191.16 30.59 191.16 30.59 6.17 1.07 3.89 16.35z" transform="translate(-.98 -.52)"/><path d="M317.28 180S133 149.66 126.12 149.4s-10.81 6.6-10.81 6.6l-11.74 160.08h4.35l12.29-2.68c-.1-.23-.74-1.57-.85-1.8L131 166.54s2.11-5.54 7.12-7.38l177.49 27.16a20.77 20.77 0 0 1 5.11 9.76l-.05.75c.19-.17.62.66.66.47 3.23-14.06-4.05-17.3-4.05-17.3z" transform="translate(-.98 -.52)" style="fill:#151312"/><path d="m125.32 320-8.56 8s164.63 29.3 178.61 32.24c10.36 2.17 14.43-3.58 14.43-3.58l.61-7.37.39-7.71-4.89 3.84a20.85 20.85 0 0 1-7.73 3.87z" transform="translate(-.98 -.52)" style="fill:#555353"/><path d="M319.5 197.81c.45-.36.83-.69 1.14-1l.66-.52a20.31 20.31 0 0 0-5.72-10l-177.49-27.13c-5 1.84-7.12 7.38-7.12 7.38L119.36 311.6l.32.66c3.54 7.52 6.28 8 6.28 8l.44.08 171.78 28.93a20.85 20.85 0 0 0 7.73-3.87c2.57-1.91 4.89-3.84 4.89-3.84l10.5-145.29c-.44.46-1.05.96-1.8 1.54zM143.83 302.35z" transform="translate(-.98 -.52)" style="fill:#008aa6"/></g><g id="ae22b8a4-e5ea-4963-baca-255ee6ee8867" data-name="top"><path id="aaac5fa7-af5e-4a5e-932f-38342a6af093" data-name="marquee" class="f159db52-e1d5-4e84-a7aa-78d421f0dc87" d="m68.24 123.5 251.47 39.03.43-89.47L67.78 34.42l.46 89.08z"/><path class="edbf516a-5a2c-40f2-a869-4bd223b7784a" d="m128.84 2.64-5.74-.96-55.32 32.74 252.36 38.64 52.39-33.24L128.84 2.64z"/></g><g id="b66d60eb-956b-444b-a738-89ff3c2d2b18" data-name="stickp1"><path class="e0c47101-bcd4-4180-a1ee-76c3aaa3456e" d="M68.92 377.27v5.16H62.4v-5.16c-5.06.64-8.77 2.7-8.77 5.16 0 3 5.38 5.35 12 5.35s12-2.39 12-5.35c.06-2.43-3.63-4.52-8.71-5.16z" transform="translate(-.98 -.52)"/><path class="a45e3bbb-b822-4037-8629-21d5b62341f8" d="M68.92 377.27v-17.78a12.18 12.18 0 0 1-3 .39 12.4 12.4 0 0 1-3.48-.49v17.88a26.67 26.67 0 0 1 6.52 0z" transform="translate(-.98 -.52)"/><path class="a45e3bbb-b822-4037-8629-21d5b62341f8" d="M68.92 382.43v-5.16a26.67 26.67 0 0 0-6.52 0v5.16z" transform="translate(-.98 -.52)"/><path class="abb3f12c-cd2f-41fa-beab-af05b6478b81" d="M68.92 358.89v.6a11.24 11.24 0 0 0 8.77-10.72c0-6.14-5.29-11.11-11.81-11.11s-11.82 5-11.82 11.11a11.22 11.22 0 0 0 8.34 10.62v-.5z" transform="translate(-.98 -.52)"/><path class="a45e3bbb-b822-4037-8629-21d5b62341f8" d="M68.92 359.49v-.6H62.4v.5a12.4 12.4 0 0 0 3.48.49 12.18 12.18 0 0 0 3.04-.39z" transform="translate(-.98 -.52)"/><path class="abb3f12c-cd2f-41fa-beab-af05b6478b81" d="M68.92 359.49v-.6H62.4v.5a12.4 12.4 0 0 0 3.48.49 12.18 12.18 0 0 0 3.04-.39z" transform="translate(-.98 -.52)"/></g><g id="a2d1ea1c-78f3-41d8-8e22-90cd0dd3bcd9" data-name="stickp2"><path class="e0c47101-bcd4-4180-a1ee-76c3aaa3456e" d="M198.88 399.49v5.16h-6.53v-5.16c-5 .64-8.77 2.7-8.77 5.16 0 3 5.39 5.35 12 5.35s12-2.39 12-5.35c.07-2.46-3.64-4.52-8.7-5.16z" transform="translate(-.98 -.52)"/><path class="a45e3bbb-b822-4037-8629-21d5b62341f8" d="M198.88 399.49v-17.78a12.2 12.2 0 0 1-3 .39 12.83 12.83 0 0 1-3.48-.49v17.88a26.75 26.75 0 0 1 6.53 0z" transform="translate(-.98 -.52)"/><path class="a45e3bbb-b822-4037-8629-21d5b62341f8" d="M198.88 404.65v-5.16a26.75 26.75 0 0 0-6.53 0v5.16z" transform="translate(-.98 -.52)"/><path class="ad93673a-6153-42c0-98a4-945eb8266bfd" d="M198.88 381.11v.6a11.24 11.24 0 0 0 8.77-10.71c0-6.14-5.29-11.11-11.82-11.11S184 364.85 184 371a11.22 11.22 0 0 0 8.34 10.62v-.5z" transform="translate(-.98 -.52)"/><path class="a45e3bbb-b822-4037-8629-21d5b62341f8" d="M198.88 381.71v-.6h-6.53v.5a12.83 12.83 0 0 0 3.48.49 12.2 12.2 0 0 0 3.05-.39z" transform="translate(-.98 -.52)"/><path class="ad93673a-6153-42c0-98a4-945eb8266bfd" d="M198.88 381.71v-.6h-6.53v.5a12.83 12.83 0 0 0 3.48.49 12.2 12.2 0 0 0 3.05-.39z" transform="translate(-.98 -.52)"/></g><g id="abbeacca-3810-4ae9-87e9-4f6ffb363f4e" data-name="boutons P1"><g id="e61ef557-c38c-4c33-924f-5f7f872f1553" data-name="4"><path class="f339b114-331d-46c2-a9e8-2f5dfc341c80" d="M92.54 389.14c-3.86 0-8.12 1.53-8.12 4.87 0 2.95 4.1 4.62 7.94 4.62 4.11 0 8-1.73 8-4.88-.04-2.35-3.88-4.61-7.82-4.61zm-.18 8.63c-3.86 0-7-1.74-7-3.89s3.13-3.89 7-3.89 7 1.74 7 3.89-3.14 3.89-7 3.89z" transform="translate(-.98 -.52)"/><path d="M92.36 390c-3.86 0-7 1.74-7 3.89s3.13 3.89 7 3.89 7-1.74 7-3.89-3.14-3.89-7-3.89z" transform="translate(-.98 -.52)" style="fill:url(#a1b66e76-f4ab-4077-8fc6-1b3c48dc9ade)"/></g><g id="a22649db-7b19-4bed-98ac-adf6833a2ebd" data-name="5"><path class="f339b114-331d-46c2-a9e8-2f5dfc341c80" d="M114.79 389.14c-3.86 0-8.12 1.53-8.12 4.87 0 2.95 4.1 4.62 7.94 4.62 4.11 0 8-1.73 8-4.88-.04-2.35-3.88-4.61-7.82-4.61zm-.18 8.63c-3.86 0-7-1.74-7-3.89s3.13-3.89 7-3.89 7 1.74 7 3.89-3.14 3.89-7 3.89z" transform="translate(-.98 -.52)"/><path d="M114.61 390c-3.86 0-7 1.74-7 3.89s3.13 3.89 7 3.89 7-1.74 7-3.89-3.14-3.89-7-3.89z" transform="translate(-.98 -.52)" style="fill:url(#a9d53d07-41dc-4a6b-98ed-94ec654d2808)"/></g><g id="f783d157-cb16-4b5d-943b-c7cd893487f6" data-name="6"><path class="f339b114-331d-46c2-a9e8-2f5dfc341c80" d="M133.35 395.3c-3.86 0-8.13 1.53-8.13 4.87 0 3 4.11 4.62 7.95 4.62 4.1 0 8-1.73 8-4.88-.04-2.35-3.88-4.61-7.82-4.61zm-.18 8.63c-3.86 0-7-1.74-7-3.89s3.13-3.89 7-3.89 7 1.74 7 3.89-3.17 3.89-7 3.89z" transform="translate(-.98 -.52)"/><path d="M133.17 396.15c-3.86 0-7 1.74-7 3.89s3.13 3.89 7 3.89 7-1.74 7-3.89-3.17-3.89-7-3.89z" transform="translate(-.98 -.52)" style="fill:url(#a86154fc-9a3d-4469-944f-c82e0962ef84)"/></g><g id="afd6e8f2-6ffb-4f82-a11f-e8f4c97bbba0" data-name="3"><path class="f339b114-331d-46c2-a9e8-2f5dfc341c80" d="M139.39 383c-3.86 0-8.13 1.53-8.13 4.88 0 2.95 4.11 4.61 8 4.61 4.1 0 8-1.73 8-4.88-.09-2.31-3.93-4.61-7.87-4.61zm-.18 8.63c-3.86 0-7-1.74-7-3.89s3.13-3.89 7-3.89 7 1.75 7 3.89-3.14 3.93-7 3.93z" transform="translate(-.98 -.52)"/><path d="M139.21 383.89c-3.86 0-7 1.75-7 3.89s3.13 3.89 7 3.89 7-1.74 7-3.89-3.14-3.89-7-3.89z" transform="translate(-.98 -.52)" style="fill:url(#a5ded96b-7cb0-431e-9523-d0fb469200ee)"/></g><g id="b06c3895-fb70-46fd-8271-69c68f25158f" data-name="2"><path class="f339b114-331d-46c2-a9e8-2f5dfc341c80" d="M121.79 377.35c-3.86 0-8.12 1.53-8.12 4.88 0 2.95 4.1 4.61 7.94 4.61 4.11 0 8-1.73 8-4.88-.04-2.34-3.88-4.61-7.82-4.61zm-.18 8.64c-3.86 0-7-1.74-7-3.89s3.13-3.89 7-3.89 7 1.74 7 3.89-3.14 3.9-7 3.9z" transform="translate(-.98 -.52)"/><path d="M121.61 378.21c-3.86 0-7 1.74-7 3.89s3.13 3.89 7 3.89 7-1.74 7-3.89-3.14-3.89-7-3.89z" transform="translate(-.98 -.52)" style="fill:url(#bdf7e56b-be81-42f7-9169-5fa34d3268ca)"/></g><g id="a88d074c-9b9c-4017-bb77-9b9979f4cf07" data-name="1"><path class="f339b114-331d-46c2-a9e8-2f5dfc341c80" d="M100.5 377.78c-3.86 0-8.13 1.53-8.13 4.88 0 2.95 4.11 4.62 7.95 4.62 4.1 0 8-1.73 8-4.88-.04-2.35-3.88-4.62-7.82-4.62zm-.18 8.64c-3.86 0-7-1.74-7-3.89s3.13-3.89 7-3.89 7 1.74 7 3.89-3.14 3.89-7 3.89z" transform="translate(-.98 -.52)"/><path d="M100.32 378.64c-3.86 0-7 1.74-7 3.89s3.13 3.89 7 3.89 7-1.74 7-3.89-3.14-3.89-7-3.89z" transform="translate(-.98 -.52)" style="fill:url(#e9b7eed8-8211-4381-b2a6-76ce3d858828)"/></g></g><g id="eede10eb-3b28-43d6-8ded-f9c614586c85" data-name="boutons P2"><g id="b09c8d30-dfcb-44da-a7ae-5875fd914efb" data-name="1"><path class="ea150c42-8f69-4b5b-9b5b-125f00ba9a24" d="M225.69 399.93c-3.86 0-8.13 1.53-8.13 4.87 0 2.95 4.11 4.62 7.95 4.62 4.1 0 8-1.73 8-4.88-.04-2.35-3.88-4.61-7.82-4.61zm-.18 8.63c-3.86 0-7-1.74-7-3.89s3.13-3.89 7-3.89 7 1.74 7 3.89-3.14 3.89-7 3.89z" transform="translate(-.98 -.52)"/><path d="M225.51 400.78c-3.86 0-7 1.74-7 3.89s3.13 3.89 7 3.89 7-1.74 7-3.89-3.14-3.89-7-3.89z" transform="translate(-.98 -.52)" style="fill:url(#bba5b0df-ed4b-4b87-b6dd-d75ddbb66b18)"/></g><g id="e75ebe6d-8bb3-4453-b3e5-02bc53cd28a4" data-name="2"><path class="ea150c42-8f69-4b5b-9b5b-125f00ba9a24" d="M247 399.49c-3.86 0-8.13 1.54-8.13 4.88 0 2.95 4.11 4.62 7.95 4.62 4.1 0 8-1.73 8-4.88-.07-2.35-3.91-4.62-7.82-4.62zm-.18 8.64c-3.86 0-7-1.74-7-3.89s3.13-3.89 7-3.89 7 1.74 7 3.89-3.17 3.89-7.03 3.89z" transform="translate(-.98 -.52)"/><path d="M246.79 400.35c-3.86 0-7 1.74-7 3.89s3.13 3.89 7 3.89 7-1.74 7-3.89-3.14-3.89-7-3.89z" transform="translate(-.98 -.52)" style="fill:url(#aa920c47-4dca-431e-babe-f770837f4615)"/></g><g id="adabfb7d-de6a-4fc1-8e91-ecea9a7e2978" data-name="3"><path class="ea150c42-8f69-4b5b-9b5b-125f00ba9a24" d="M264.58 405.18c-3.86 0-8.12 1.53-8.12 4.88 0 2.95 4.1 4.61 7.94 4.61 4.1 0 8-1.73 8-4.88-.04-2.35-3.88-4.61-7.82-4.61zm-.18 8.64c-3.86 0-7-1.75-7-3.89s3.13-3.89 7-3.89 7 1.74 7 3.89-3.14 3.89-7 3.89z" transform="translate(-.98 -.52)"/><path d="M264.4 406c-3.86 0-7 1.74-7 3.89s3.13 3.89 7 3.89 7-1.75 7-3.89-3.14-3.89-7-3.89z" transform="translate(-.98 -.52)" style="fill:url(#eb448b27-ca8d-428d-ad1a-d344838c43c2)"/></g><g id="ecace59f-fd58-4214-93ff-5ec53efaa838" data-name="4"><path class="ea150c42-8f69-4b5b-9b5b-125f00ba9a24" d="M258.54 417.44c-3.86 0-8.13 1.53-8.13 4.88 0 2.95 4.11 4.61 8 4.61 4.1 0 8-1.73 8-4.88-.09-2.35-3.93-4.61-7.87-4.61zm-.18 8.64c-3.86 0-7-1.75-7-3.89s3.13-3.89 7-3.89 7 1.74 7 3.89-3.14 3.89-7 3.89z" transform="translate(-.98 -.52)"/><path d="M258.36 418.3c-3.86 0-7 1.74-7 3.89s3.13 3.89 7 3.89 7-1.75 7-3.89-3.14-3.89-7-3.89z" transform="translate(-.98 -.52)" style="fill:url(#ed795772-6f18-423f-acf4-b148bac5191e)"/></g><g id="fb419dbd-ac73-4308-a139-07aa7d8ca83b" data-name="5"><path class="ea150c42-8f69-4b5b-9b5b-125f00ba9a24" d="M240 411.28c-3.86 0-8.13 1.53-8.13 4.88 0 2.95 4.11 4.61 7.95 4.61 4.1 0 8-1.73 8-4.88-.07-2.35-3.91-4.61-7.82-4.61zm-.18 8.63c-3.86 0-7-1.74-7-3.89s3.13-3.89 7-3.89 7 1.75 7 3.89-3.17 3.89-7.03 3.89z" transform="translate(-.98 -.52)"/><path d="M239.79 412.13c-3.86 0-7 1.75-7 3.89s3.13 3.89 7 3.89 7-1.74 7-3.89-3.14-3.89-7-3.89z" transform="translate(-.98 -.52)" style="fill:url(#a8021c2b-8943-4155-b8ec-c06dd644213e)"/></g><g id="b7d2bf56-f609-4f44-a682-4c920f1e5cb5" data-name="6"><path class="ea150c42-8f69-4b5b-9b5b-125f00ba9a24" d="M217.73 411.28c-3.86 0-8.13 1.53-8.13 4.88 0 2.95 4.11 4.61 8 4.61 4.1 0 8-1.73 8-4.88-.09-2.35-3.93-4.61-7.87-4.61zm-.18 8.63c-3.86 0-7-1.74-7-3.89s3.13-3.89 7-3.89 7 1.75 7 3.89-3.14 3.89-7 3.89z" transform="translate(-.98 -.52)"/><path d="M217.55 412.13c-3.86 0-7 1.75-7 3.89s3.13 3.89 7 3.89 7-1.74 7-3.89-3.14-3.89-7-3.89z" transform="translate(-.98 -.52)" style="fill:url(#ae7938e0-644c-4a2d-a98f-f514557a28e1)"/></g></g><path class="a5440a09-138c-4beb-9b31-3a64b5689fb9" d="M228.57 237.19v.07l-5.92-1v-.08zM236.56 238.53a.13.13 0 0 0 0 .06l-5.72-1v-.06z" transform="translate(-.98 -.52)"/><path class="bd30de20-1857-4641-a103-4297149df083" d="m210.17 273.38-65.56-11c-.87-.14-.87-.14-.74-.92.25-1.54.47-3.08.75-4.61.78-4.31 1.48-8.63 2.22-12.95.09-.48.22-1 .29-1.44 0-.18.12-.23.31-.19l.75.13 119.31 19.98a16.13 16.13 0 0 1 4.69 1.42 11.54 11.54 0 0 1 5.67 5.9 8.36 8.36 0 0 1 .63 3.88c0 .38-.08.76-.15 1.14l-1.56 9.36c-.07.39-.13.42-.54.36l-40.11-6.72zm14.68-7.7c-.4 2.35-.79 4.71-1.19 7.07 0 .23 0 .34.3.38 1 .15 1.95.32 2.93.49.51.09.51.09.59-.37q.69-4.22 1.4-8.43c0-.08 0-.21.12-.22s.13.1.17.17c1.69 3.14 3.43 6.26 5.06 9.42a2.38 2.38 0 0 0 3.55.6c.9-.94 1.91-1.79 2.87-2.68l4.89-4.53c.08-.07.15-.22.26-.17s0 .2 0 .31v.12c-.47 2.79-.93 5.58-1.4 8.37 0 .25 0 .35.31.4 1 .16 2 .32 3.06.51.34.07.45 0 .49-.32l2.32-13.83a1.32 1.32 0 0 0-.25-1 2.34 2.34 0 0 0-3.26-.37l-2.16 2-8.12 7.4c-.25.23-.28.22-.45-.08-2.2-4.06-4.42-8.11-6.61-12.17a2.14 2.14 0 0 0-1.43-1.06A1.74 1.74 0 0 0 226 259zm-4.51-.71c.38-2.31.76-4.61 1.16-6.92a1.32 1.32 0 0 0-.45-1.21 2.4 2.4 0 0 0-3.17 0c-2.39 2.24-4.82 4.43-7.24 6.63l-2.95 2.7c-.13.12-.23.25-.37 0l-3.44-6.31c-1.1-2-2.19-4-3.3-6a2.24 2.24 0 0 0-2.21-1 1.52 1.52 0 0 0-1.5 1.37q-1.16 6.86-2.3 13.71c0 .28.05.37.35.41 1 .15 2 .32 3 .5.44.07.45.08.51-.3.46-2.73.91-5.46 1.37-8.19 0-.13 0-.27.06-.4s0-.16.11-.17.1.08.13.14.18.34.28.51c1.63 3 3.29 6 4.88 9.07a2.34 2.34 0 0 0 3.35.6c.47-.47 1-.91 1.48-1.37l6.5-6c.06-.05.09-.14.19-.11s.07.14.06.22c-.14.81-.28 1.62-.41 2.44-.35 2.06-.69 4.13-1 6.2 0 .22 0 .32.29.36l3 .5c.44.07.45.07.52-.31q.51-3.6 1.1-7.04zm33.15 5.67c-.38 2.28-.76 4.57-1.15 6.85-.06.31.06.41.38.45 1 .16 2 .32 3 .5.33.07.45 0 .5-.31.16-1 .35-2.08.51-3.12 0-.23.12-.33.4-.28l12.77 2.14c.33.05.39.18.34.45-.18 1-.34 2.08-.53 3.12-.05.25 0 .35.32.4 1 .15 2 .32 3 .49.45.07.46.07.53-.34l1.22-7.32a6.88 6.88 0 0 0-2.51-6.52 12.61 12.61 0 0 0-6.36-3c-2.38-.41-4.76-.8-7.13-1.19-.72-.12-1.45-.26-2.17-.35a1.6 1.6 0 0 0-1.91 1.29c-.46 2.27-.83 4.5-1.21 6.74zm-62.24-10.42 1.14-6.79a1.24 1.24 0 0 0 0-.47 1.91 1.91 0 0 0-1.63-1.33c-1.55-.26-3.1-.53-4.65-.77-1.84-.3-3.66-.71-5.51-.87a11.55 11.55 0 0 0-7 1.39 6.55 6.55 0 0 0-3.37 4.67q-.63 3.74-1.25 7.47c-.07.4-.07.4.36.47 1 .17 2 .32 2.93.5.33.06.45 0 .5-.31.15-1 .34-2.06.5-3.09 0-.29.17-.35.48-.3l12.67 2.12c.34 0 .42.16.37.46-.19 1-.35 2.08-.54 3.11 0 .26 0 .36.32.4 1 .16 2 .32 3 .51.33.06.44 0 .49-.32.42-2.28.81-4.57 1.19-6.85zm-38.3 1 6.47 1.08a7.76 7.76 0 0 0 2.76 0 3.93 3.93 0 0 0 3.34-2.92c.64-3.78 1.26-7.55 1.9-11.33.05-.27 0-.37-.33-.42-1-.15-2-.32-3-.5-.36-.07-.46 0-.51.33q-.92 5.58-1.86 11.15a1.08 1.08 0 0 1-1.24.95 4.41 4.41 0 0 1-.73-.08c-1-.18-2-.37-3.06-.54l-7-1.15c-.28-.05-.35-.15-.31-.38.11-.59.19-1.18.31-1.76.06-.28 0-.4-.35-.45-.84-.13-1.68-.26-2.52-.42-.34-.07-.44 0-.49.32-.24 1.49-.49 3-.74 4.45-.07.42-.07.42.42.5zM230.83 237.63l5.72 1c.15.09.15.2.13.35-.37 2.17-.73 4.34-1.11 6.51 0 .29 0 .38.34.43 3.09.5 6.18 1 9.27 1.54.32.05.34.16.31.44-.06.67-.23 1.33-.32 2-.22 1.55-.54 3.09-.8 4.63-.1.59-.17 1.19-.26 1.78 0 .2-.12.31-.4.26L228.57 254c-.65-.11-.65-.11-.56-.68q1.29-7.69 2.57-15.38c.02-.15.02-.31.25-.31zm3.94 12.7c-.13.78-.25 1.56-.39 2.34-.05.27 0 .38.33.43 1.06.16 2.11.34 3.16.53.32.06.44 0 .49-.31.25-1.55.51-3.1.78-4.66 0-.24 0-.34-.31-.38q-1.62-.25-3.24-.54c-.28-.05-.39 0-.43.27-.16.78-.26 1.55-.39 2.32zM255.63 249.17c2.55.43 5.09.86 7.64 1.27.34.06.42.17.37.47q-.7 4.14-1.39 8.3c-.07.37-.1.4-.52.33L246.38 257c-.27-.05-.34-.16-.3-.39q.72-4.21 1.41-8.43c0-.28.18-.33.47-.28 2.55.44 5.11.86 7.67 1.29zm1.31 4.88c.14-.8.27-1.6.41-2.4 0-.23 0-.36-.3-.4l-3.44-.58c-.26 0-.38 0-.42.27l-.81 4.85c0 .25.05.36.33.41l3.37.56c.3.06.42 0 .46-.3.13-.8.27-1.6.4-2.41zM173.53 244.78l-7.64-1.27c-.31 0-.37-.15-.33-.42q.72-4.2 1.42-8.42c0-.25.13-.32.4-.27l15.36 2.6c.41.07.43.11.37.49-.26 1.55-.53 3.11-.78 4.66 0 .31-.17.37-.5.32-3.07-.53-6.15-1-9.22-1.55-.46-.08-.46-.08-.52.32s-.11.7-.19 1 0 .35.31.4c2.06.33 4.11.68 6.17 1l3.16.53c.32.05.42.17.37.44s-.14.74-.19 1.11-.18.38-.51.32zm.92-5.45c.56.1 1.13.18 1.69.29.25 0 .35 0 .38-.25 0-.39.12-.78.2-1.17 0-.21 0-.32-.26-.36l-3.41-.57c-.22 0-.33 0-.36.23q-.08.62-.18 1.23c0 .23.06.3.29.33.55.07 1.1.17 1.65.27zM211.28 241.75l7.64 1.28c.44.07.5.14.42.52-.43 2-.7 4-1.05 6-.14.74-.27 1.48-.37 2.23 0 .29-.15.37-.49.31-2.08-.36-4.17-.7-6.26-1l-9-1.51c-.42-.07-.43-.08-.37-.47.26-1.56.53-3.11.77-4.67 0-.32.18-.37.52-.31l9.16 1.54c.46.07.46.07.53-.33s.09-.67.17-1 0-.4-.36-.46c-2.34-.37-4.68-.77-7-1.16l-2.31-.38c-.24 0-.32-.12-.28-.34a10.85 10.85 0 0 0 .21-1.27c0-.27.16-.31.43-.26l5.37.9 2.27.38zm-1.15 7.25c.55.09 1.11.17 1.66.27.21 0 .33 0 .36-.21l.21-1.23c0-.19-.05-.29-.27-.33l-3.33-.56c-.24 0-.35 0-.38.24 0 .4-.11.79-.19 1.17-.05.23.05.33.29.37.52.07 1.1.17 1.65.28zM268.74 251.36c.87.15 1.74.31 2.62.44.31 0 .38.18.34.43-.08.4-.13.8-.21 1.2 0 .21 0 .3.27.34l3.36.56c.28 0 .38 0 .41-.27.06-.41.15-.82.2-1.23 0-.23.15-.27.37-.24l5.4.91c.21 0 .3.13.27.33-.08.43-.16.86-.22 1.29 0 .23-.16.29-.41.25-.44-.09-.89-.15-1.34-.24-.24 0-.33 0-.36.24-.05.4-.13.8-.19 1.2 0 .23-.15.3-.4.25-.47-.08-.94-.15-1.41-.24-.17 0-.24 0-.29.17-.13.44-.08.91-.25 1.34-.07.18.07.24.24.27l1.38.22c.28 0 .38.15.33.41s-.13.78-.21 1.17c0 .21.05.31.28.34l1.34.22c.25 0 .34.13.3.36-.09.42-.17.84-.22 1.27 0 .22-.15.27-.36.24l-.65-.11-4.62-.77c-.45-.08-.45-.08-.38-.49s.12-.76.19-1.14c.05-.21 0-.3-.27-.34l-3.44-.58c-.22 0-.29 0-.31.21-.06.4-.16.8-.19 1.21s-.19.37-.5.32l-4.72-.8c-1.16-.19-.93-.1-.8-1 0-.25.09-.49.12-.74s.16-.29.4-.25c.45.09.9.15 1.34.24.27.05.39 0 .42-.26s.14-.78.19-1.17.16-.31.41-.26c.46.09.92.15 1.37.24.21 0 .3 0 .32-.2.06-.43.13-.85.22-1.27 0-.21-.05-.28-.26-.31l-1.38-.23c-.24 0-.34-.12-.29-.36s.14-.78.21-1.17c0-.23 0-.35-.31-.38-.45-.06-.9-.15-1.35-.22-.25 0-.34-.14-.29-.37q.12-.63.21-1.26c0-.24.16-.29.4-.24zM222.64 236.28l5.92 1a.42.42 0 0 1 .05.36q-1.31 7.77-2.6 15.56c0 .28-.17.37-.48.31s-.88-.19-1.33-.26l-3.89-.62c-.46-.08-.45-.08-.39-.49q1.31-7.74 2.6-15.49c.02-.14 0-.28.12-.37zM191.71 247.82l-7.71-1.28c-.3 0-.4-.14-.35-.43q.72-4.2 1.41-8.4c0-.26.15-.32.42-.27l15.39 2.56c.31.05.42.18.36.45s-.11.72-.19 1.08-.13.41-.55.34l-4.16-.7-5.06-.85c-.28 0-.37 0-.41.25-.22 1.39-.46 2.78-.69 4.17a2.74 2.74 0 0 1 0 .28c-.11.6-.11.6.58.72l8.92 1.49c.42.07.45.11.39.5s-.15.72-.18 1.08-.19.35-.48.3c-.56-.11-1.12-.2-1.68-.29z" transform="translate(-.98 -.52)"/><path d="M291.07 282.1c-.25 1.47-.49 2.94-.74 4.41-.07.42-.07.42-.51.34l-4.27-.71c-.27 0-.37-.13-.3-.37s.07-.41.11-.62-.06-.27-.25-.29l-.49-.05c-.39-.06-.49 0-.51.37v.19c0 .43-.14.5-.63.42-1.39-.23-2.79-.47-4.19-.69-.32-.05-.4-.19-.36-.45.5-3 1-5.91 1.49-8.86.06-.36.14-.42.55-.33 2.95.58 5.92 1 8.87 1.52.52.09 1 .13 1.55.22s.47.1.4.52c-.24 1.46-.49 2.92-.73 4.38zm-8.37-.17 1.58.27c.22 0 .32 0 .35-.22.1-.59.2-1.19.31-1.79 0-.21-.06-.3-.29-.34l-3.13-.52c-.21 0-.31 0-.35.22-.08.59-.18 1.19-.29 1.79 0 .21 0 .31.27.34zm5.47-1.49c-.52-.08-1-.16-1.55-.26-.25-.05-.36 0-.39.24-.09.59-.19 1.19-.29 1.78-.05.23.05.29.28.33 1 .16 2 .33 3 .51.28.05.39 0 .43-.27.08-.56.17-1.13.28-1.69 0-.23 0-.35-.3-.39-.48-.08-.97-.17-1.46-.25z" transform="translate(-.98 -.52)" style="fill:#2785db"/><path d="M292.87 271.31c-.25 1.48-.5 3-.74 4.44-.07.38-.11.4-.52.34l-2.86-.48c-.41-.07-.49-.18-.43-.54.14-.85.28-1.71.43-2.56a.34.34 0 0 1 0-.1c.2-.63.12-.52.72-.43l1.48.25c.26 0 .4 0 .44-.25.09-.59.19-1.18.29-1.76 0-.21 0-.33-.3-.38l-8-1.34c-.26 0-.39.05-.42.28-.09.57-.19 1.14-.28 1.7 0 .23.05.36.31.41l3.06.52a.25.25 0 0 0 .33-.17 1.81 1.81 0 0 0 .12-.64c0-.19.11-.24.27-.29a.45.45 0 0 1 .2 0c.85.09.89.14.77.88-.21 1.26-.43 2.51-.63 3.77 0 .26-.17.34-.43.3l-5.43-.91c-.49-.08-.55-.15-.48-.58.49-3 1-5.91 1.48-8.87 0-.17.09-.23.28-.22s.55 0 .83.08l9.77 1.63c.55.09.55.1.47.6l-.72 4.32z" transform="translate(-.98 -.52)" style="fill:#44c047"/><path d="M289.84 254.78c1.75.29 3.49.59 5.24.87.3 0 .4.13.35.42-.51 3-1 5.95-1.49 8.92-.05.3-.16.38-.49.32-1.4-.25-2.8-.48-4.2-.71-.36-.06-.42-.15-.36-.47 0-.12.06-.23.08-.34.08-.47.08-.47-.46-.56h-.21c-.5-.08-.51-.08-.54.39 0 .18-.1.34-.11.52s-.18.19-.35.16l-4.44-.74c-.23 0-.32-.15-.29-.35.17-1 .35-2 .51-3.06 0-.28.23-.27.45-.23l1.83.3c.8.15 1.61.24 2.4.44.25.06.44 0 .48-.27.07-.57.17-1.14.28-1.7.05-.27 0-.38-.34-.43-1.42-.22-2.83-.47-4.24-.7-.29 0-.4-.12-.35-.4.18-1 .33-2 .48-3 0-.26.15-.33.44-.28 1.77.31 3.55.6 5.33.9zm1.49 6.43c.51.08 1 .16 1.54.26.22 0 .35 0 .39-.21.09-.61.19-1.22.3-1.82 0-.2 0-.32-.27-.35l-3.09-.52c-.22 0-.32 0-.35.21-.09.63-.2 1.25-.31 1.88 0 .18 0 .26.24.29z" transform="translate(-.98 -.52)" style="fill:#eb1416"/><path class="bd30de20-1857-4641-a103-4297149df083" d="m156.94 232.66 7.54 1.26c.53.09.53.09.45.57s-.13.7-.17 1-.16.33-.44.28l-9.3-1.57c-.33-.05-.41 0-.45.3-.35 2.17-.72 4.33-1.07 6.49-.05.31-.2.36-.51.31l-5.19-.87c-.3 0-.4-.14-.35-.42q.72-4.19 1.4-8.39c.05-.31.19-.34.48-.29z" transform="translate(-.98 -.52)"/><path class="a5440a09-138c-4beb-9b31-3a64b5689fb9" d="M224.85 265.68 226 259a1.74 1.74 0 0 1 2.34-1.33 2.14 2.14 0 0 1 1.43 1.06c2.19 4.06 4.41 8.11 6.61 12.17.17.3.2.31.45.08l8.14-7.43 2.16-2a2.34 2.34 0 0 1 3.26.37 1.32 1.32 0 0 1 .25 1q-1.17 6.91-2.32 13.83c0 .29-.15.39-.49.32-1-.19-2-.35-3.06-.51-.3-.05-.36-.15-.31-.4.47-2.79.93-5.58 1.4-8.37v-.12c0-.04.11-.25 0-.31s-.18.1-.26.17l-4.89 4.53c-1 .89-2 1.74-2.87 2.68a2.38 2.38 0 0 1-3.55-.6c-1.63-3.16-3.37-6.28-5.06-9.42 0-.07-.06-.19-.17-.17s-.11.14-.12.22l-1.4 8.43c-.08.46-.08.46-.59.37-1-.17-1.95-.34-2.93-.49-.28 0-.34-.15-.3-.38.4-2.36.79-4.72 1.19-7.07zM220.34 265q-.59 3.46-1.16 6.95c-.07.38-.08.38-.52.31l-3-.5c-.27 0-.32-.14-.29-.36.36-2.07.7-4.14 1-6.2.13-.82.27-1.63.41-2.44 0-.08.06-.18-.06-.22s-.13.06-.19.11l-6.5 6c-.5.46-1 .9-1.48 1.37a2.34 2.34 0 0 1-3.35-.6c-1.59-3-3.25-6.05-4.88-9.07-.1-.17-.19-.34-.28-.51s-.05-.14-.13-.14-.1.1-.11.17 0 .27-.06.4c-.46 2.73-.91 5.46-1.37 8.19-.06.38-.07.37-.51.3-1-.18-2-.35-3-.5-.3 0-.4-.13-.35-.41q1.16-6.86 2.3-13.71a1.52 1.52 0 0 1 1.5-1.37 2.24 2.24 0 0 1 2.21 1c1.11 2 2.2 4 3.3 6l3.44 6.31c.14.27.24.14.37 0l2.95-2.7c2.42-2.2 4.85-4.39 7.24-6.63a2.4 2.4 0 0 1 3.17 0 1.32 1.32 0 0 1 .45 1.21c-.4 2.31-.78 4.61-1.16 6.92zM253.49 270.64c.38-2.24.75-4.47 1.13-6.7a1.6 1.6 0 0 1 1.91-1.29c.72.09 1.45.23 2.17.35 2.37.39 4.75.78 7.13 1.19a12.61 12.61 0 0 1 6.36 3 6.88 6.88 0 0 1 2.51 6.52q-.6 3.66-1.22 7.32c-.07.41-.08.41-.53.34-1-.17-2-.34-3-.49-.29 0-.37-.15-.32-.4.19-1 .35-2.08.53-3.12.05-.27 0-.4-.34-.45l-12.77-2.14c-.28-.05-.36 0-.4.28-.16 1-.35 2.08-.51 3.12-.05.3-.17.38-.5.31-1-.18-2-.34-3-.5-.32 0-.44-.14-.38-.45.39-2.28.77-4.57 1.15-6.85zM264 273l6.37 1.07c.3 0 .43 0 .46-.28s.08-.52.12-.78a4.27 4.27 0 0 0-1.54-4.2 8.48 8.48 0 0 0-4-1.85c-2.25-.43-4.52-.78-6.77-1.17-.34-.06-.36.12-.4.33q-.44 2.69-.9 5.37c0 .29 0 .4.36.46zM191.25 260.22c-.38 2.28-.77 4.57-1.14 6.85-.05.3-.16.38-.49.32-1-.19-2-.35-3-.51-.29 0-.36-.14-.32-.4.19-1 .35-2.08.54-3.11.05-.3 0-.41-.37-.46l-12.67-2.12c-.31-.05-.44 0-.48.3-.16 1-.35 2.05-.5 3.09 0 .3-.17.37-.5.31-1-.18-1.95-.33-2.93-.5-.43-.07-.43-.07-.36-.47q.62-3.74 1.25-7.47a6.55 6.55 0 0 1 3.37-4.67 11.55 11.55 0 0 1 7-1.39c1.85.16 3.67.57 5.51.87 1.55.24 3.1.51 4.65.77a1.91 1.91 0 0 1 1.59 1.37 1.24 1.24 0 0 1 0 .47l-1.14 6.79zm-10.67-1.14c2.11.35 4.22.7 6.33 1.07.32.05.44 0 .48-.29.3-1.81.6-3.63.91-5.44 0-.26 0-.37-.33-.42q-3-.48-6-1a11.11 11.11 0 0 0-3.77 0 4.85 4.85 0 0 0-3.81 2.54 7.49 7.49 0 0 0-.52 2c-.07.4-.07.41.4.48zM153 261.25l-7-1.17c-.49-.08-.49-.08-.42-.5.25-1.48.5-3 .74-4.45.05-.28.15-.39.49-.32.84.16 1.68.29 2.52.42.31.05.41.17.35.45-.12.58-.2 1.17-.31 1.76 0 .23 0 .33.31.38l7 1.15c1 .17 2 .36 3.06.54a4.41 4.41 0 0 0 .73.08 1.08 1.08 0 0 0 1.24-.95q.94-5.58 1.86-11.15c0-.3.15-.4.51-.33 1 .18 2 .35 3 .5.3.05.38.15.33.42-.64 3.78-1.26 7.55-1.9 11.33a3.93 3.93 0 0 1-3.34 2.92 7.76 7.76 0 0 1-2.76 0l-6.41-1.08z" transform="translate(-.98 -.52)"/><path class="bd30de20-1857-4641-a103-4297149df083" d="m264 273-6.33-1c-.34-.06-.41-.17-.36-.46q.47-2.68.9-5.37c0-.21.06-.39.4-.33 2.25.39 4.52.74 6.77 1.17a8.48 8.48 0 0 1 4 1.85 4.27 4.27 0 0 1 1.54 4.2c0 .26-.1.52-.12.78s-.16.33-.46.28zM180.58 259.08l-6.3-1.06c-.47-.07-.47-.08-.4-.48a7.49 7.49 0 0 1 .52-2 4.85 4.85 0 0 1 3.81-2.54 11.11 11.11 0 0 1 3.77 0q3 .51 6 1c.31.05.38.16.33.42-.31 1.81-.61 3.63-.91 5.44 0 .29-.16.34-.48.29-2.11-.37-4.22-.72-6.33-1.07z" transform="translate(-.98 -.52)"/></g><g id="f3189df1-d78a-483d-80a5-a54c13876dab" data-name="a72b1906-5949-40c5-9310-2c7aefab64dc"><path id="ec68ae3d-8899-420f-808b-2589ce460d70" data-name="b18320cf-75ee-4cf4-a833-1921ef0bf64c" d="M208.82 72.56s.58-3.07-4.83-5.24a50.48 50.48 0 0 0-5.55-2.07 25.57 25.57 0 0 0-4.81-1.18l-3.21-.62v-4.13L246 67.8v4s-17.61-2.74-18.54 2.41l-.1 6.57v52.09s1 4.56 10.73 6.6l3.83 1.1 4.07.65v4l-55.59-8.92v-4.05c1.8.41 3.3.65 4.47.84 1.9.26 3.79.44 5.64.54a18.38 18.38 0 0 0 3.41-.11 7.08 7.08 0 0 0 2.87-.84 5.29 5.29 0 0 0 1.76-1.58l.24-3.13V74.51" transform="translate(-.98 -.52)" style="fill:url(#b8489454-e2f5-4ccf-8528-83da925601da)"/><path id="ae861581-2ef7-45be-9965-0bd6feb1580e" data-name="ee2dcd17-4939-4e1f-8ca4-b04720ae53f0" d="M161.55 65.3s.54-2.91-4.77-5.22-14.36-3.73-5.31-1.7-5.2-1.49-5.2-1.49l-3-.65v-4.12l55 8.4v4s-17.44-2.71-18.36 2.41l-.05 6.55v51.84s1 4.54 10.63 6.56l3.79 1.09 4 .65v4l-55-8.83v-4c1.78.41 3.28.65 4.43.83 1.88.27 3.76.44 5.59.54a17.93 17.93 0 0 0 3.37-.11 7 7 0 0 0 2.85-.84 5.22 5.22 0 0 0 1.74-1.58l.24-3.11v-53.2" transform="translate(-.98 -.52)" style="fill:url(#b793f696-70ec-44a1-9e07-de33a52fc5be)"/><path class="e38f89f5-9dde-41d2-b983-515192ee76e1" d="m276.39 124.2-165-26.06c-4.73-.75-8.59 1.89-8.59 5.87s3.86 7.84 8.59 8.6l165 26.31c4.9.78 8.91-1.9 8.91-5.95s-3.96-7.97-8.91-8.77z" transform="translate(-.98 -.52)"/><path class="eef21417-3b6c-4352-99a2-3762bc21b262" d="M145.39 111.29v2.38l-1.92-.3v-6.9l3 .47c2.12.34 3.18 1.23 3.18 2.69a1.64 1.64 0 0 1-.91 1.54 3.8 3.8 0 0 1-2.46.26l-.87-.14zm0-3.3v2.13l.77.13c1 .16 1.54-.12 1.54-.85s-.52-1.13-1.54-1.29zM158.31 115.56l-6-1V108l2.17.34v5l3.86.61zm7.92 1.26-.53-1.25-3.1-.5-.53 1.09-2.31-.37 3.38-6.13 2.07.33 3.39 7.21zm9.72-.92v2.51l-2.23-.36v-2.46l-3-4.64 2.51.4 1.6 2.67 1.65-2.16 2.47.39zm16.64 3c0 1.37-1.26 1.94-3.21 1.63a7.22 7.22 0 0 1-3.73-1.68l1.21-1a5.08 5.08 0 0 0 2.57 1.22c.59.1.93 0 .93-.3s-.25-.44-1.36-.86c-1.7-.59-3-1.21-3-2.58 0-1.22 1.16-2 3.06-1.67a6.89 6.89 0 0 1 3.3 1.42l-1.12 1.12a4.77 4.77 0 0 0-2.23-1c-.54-.09-.78.08-.78.28s.29.49 1.36.86c1.84.66 3 1.33 3 2.59zm7.83.83v2.52l-2.24-.36v-2.47l-3-4.65 2.48.39 1.65 2.69 1.66-2.17 2.48.39zm11.79 2.28c0 1.38-1.32 1.94-3.22 1.64a7.42 7.42 0 0 1-3.75-1.69l1.22-1a5.17 5.17 0 0 0 2.58 1.23c.59.09.93 0 .93-.3s-.25-.45-1.37-.87c-1.7-.59-3-1.21-3-2.59 0-1.22 1.17-2 3.12-1.66a6.59 6.59 0 0 1 3.27 1.42l-1.12 1.12a4.86 4.86 0 0 0-2.25-1c-.53-.08-.78.08-.78.28s.3.5 1.37.87c1.9.67 3 1.33 3 2.59zm9.08-1.52-2.39-.38v5l-2.25-.35v-5l-2.39-.38v-1.58l7 1.11zm8.61 6.51-6.51-1v-6.67l6.41 1v1.58l-4.21-.66v1l3.81.61v1.46l-3.81-.6v1l4.3.69zm12.35 2-2.25-.36v-3.83l-2.06 2.19h-.05l-2-2.92v3.82l-2.21-.35v-6.67l2.35.37 1.91 2.91 1.91-2.3 2.41.38z" transform="translate(-.98 -.52)"/><path class="e38f89f5-9dde-41d2-b983-515192ee76e1" d="M121.63 84.55v4.55l.29.12c.19-.33.43-.66.62-1q5-10 9.79-20c.48-1 1.1-1.4 2.59-1.13q4.76.86 9.52 1.47a2.47 2.47 0 0 1 2.31 1.73c3.13 7.31 6.26 14.57 9.49 21.86a6.74 6.74 0 0 0 1.69 2.32 8.36 8.36 0 0 0 .19-1c0-4.52 0-9-.05-13.53 0-.65-.67-1.36-1-2.06-.19-.39-.63-.82-.67-1.19 0-1.75-.1-3.53 0-5.25a1.23 1.23 0 0 1 1.11-.76c7 1.08 14 1.88 21 3.52 7.18 1.68 7.42 1.88 11.31 7 10-7.18 22.83-5.32 33.18 4.93 4.85-3.56 11.12-4.62 18.08-3.51A28.74 28.74 0 0 1 259 92.73c0-1.6.1-3.13 0-4.7-.1-1.37.34-1.79 2.11-1.47q7 1.26 14.07 2.17c1.68.22 2.52.8 2.86 2.12a18.32 18.32 0 0 0 1 2.24c.45-1 .79-1.72 1-2.45s.69-1.08 1.78-.87c5.3.85 10.65 1.68 16 2.46 1.19.18 1.69.55 1.64 1.56-.1 1.22 0 2.46 0 3.65 0 1 .14 2-1.2 2.44-.44.17-.49 1.23-.4 1.9.75 4.42 1.54 8.88 2.48 13.29a11.31 11.31 0 0 0 1.59 2.71l.49-.09v7.58l-18.85-3v-5.56l-10.68-1.68v5.68l-15.49-2.41c-2.46-.39-2.46-.39-2.46-2.34v-1.72c-5.11 2.13-10.37 3.42-16.51 1.93a34.79 34.79 0 0 1-15.61-8.77v5.25c-.29.11-.39.18-.49.16-5.76-1-11.52-2-17.32-3a22.19 22.19 0 0 1-12-6.35c-2.08-2.11-3.44-4.72-5-7.12a10.23 10.23 0 0 1-.77-1.9c-4.42.77-8.78 1.54-13.14 2.32-.29.07-.77.32-.73.41a2.31 2.31 0 0 0 .83 1 1.79 1.79 0 0 1 1.3 2v5.18c-.77-.08-1.35-.09-1.93-.18-22.36-3.53-44.62-6.92-66.78-10.65-8.24-1.38-14.95-5.61-18.79-12.46-5.75-10 1.57-20.45 13.86-20.32 8.79.11 16 3.27 21.32 10.18.15.22.29.44.44.71L113.54 80l-6.4-4.7.57-.07c-.14-1 0-2.05-.57-2.74-.81-1-2.72-.79-3.91.19-2.48 2-2 4.74-.81 7.59a8.07 8.07 0 0 0 6.82 4.73 6.78 6.78 0 0 0 3.68-1 3.06 3.06 0 0 1 2.25-.49c2.06.39 4.16.68 6.46 1.04zm164.13 17 .34.09c.15.39.3.79.4 1.13.79 4.38 1.53 8.75 2.37 13.14.24 1.14.24 2-1 2.49-.35.11-.45.67-.5 1.07a1.19 1.19 0 0 0 .69.64c3.52.6 7 1.14 10.81 1.74-.15-.59-.29-1.23-.49-1.84a19.29 19.29 0 0 1-1.14-2.67c-1.14-6-2.13-12-3.21-18.12-.2-1-.2-1.91.84-2.49.4-.22.4-.83.65-1.53-4.07-.63-7.79-1.25-11.45-1.73-.4-.06-.94.42-1.14.8-.84 1.67-1.59 3.4-2.33 5.08-.54 1.18-1.09 2.33-1.83 3.84a9.13 9.13 0 0 1-.5-1.13c-1.08-3-2.17-5.94-3.35-8.91a2.67 2.67 0 0 0-1.38-1.31c-3.46-.62-6.87-1.11-10.66-1.69.24.77.24 1.59.69 1.86 1.38.87 1.13 1.73 1 2.64-.94 4.8-1.83 9.64-2.92 14.36-.39 1.82 0 4-2.46 4.92-.35.11-.2 1-.3 1.63 3.2.5 6.11 1 9.07 1.39.35 0 1-.22 1-.46a1.65 1.65 0 0 0-.59-1.2 2.28 2.28 0 0 1-1.19-2.67c.5-2.46.9-5 1.34-7.47.35-1.83.74-3.69 1.14-5.5a1.37 1.37 0 0 1 .69.76c1.33 3.43 2.71 6.84 3.94 10.26a2.3 2.3 0 0 0 2.08 1.63c4.35.72 4.35.76 5.89-2.31.24-.53.44-1.07.69-1.61 1-2.26 1.93-4.52 2.88-6.83zm-27.66 1a13 13 0 0 0-3.1-8.74c-4.42-5.45-12.43-8.81-20.18-8.22-6.42.47-10.92 3.11-12.19 8.48s1 10.52 6.69 14.79a24.82 24.82 0 0 0 14.86 4.78c8.06.1 13.92-4.64 13.92-11.1zm-101.57-3.22a12.23 12.23 0 0 0-.92-2.08 30.3 30.3 0 0 1-2.46-3.41c-3-6.9-6-13.81-8.9-20.72a2.44 2.44 0 0 0-2.36-1.69c-1.64-.18-3.22-.42-4.86-.76-1.15-.21-1.68.07-2.06.89q-4.4 9.36-8.93 18.67a14.48 14.48 0 0 1-1.68 2c-.43.54-.77 1.13-1.29 1.93l10.07 1.58c-.53-.93-1-1.56-1.25-2.17s-.72-1.36-.53-1.81c.63-1.55 1.06-3.46 2.4-4.38.92-.62 3.27.23 5 .42l.53.08c4.09.64 4.09.64 5.58 4.1a7.74 7.74 0 0 1 .77 1.78 5.3 5.3 0 0 1-.39 2c-.19.58-.43 1.1-.72 1.79l12 1.88zm3.62-24.8c.29.78.58 1.47.87 2.16a8.8 8.8 0 0 1 1 2.42c.1 5.63.1 11.25 0 16.81 0 .8-.82 1.48-1.21 2.27a3.17 3.17 0 0 0-.43 1.31c0 .2.53.6.87.66 3.28.55 6.57 1.07 10.1 1.63-.15-.79 0-1.58-.39-1.92-1.6-1.27-1.11-2.56-1.3-3.93s.63-1.84 2.13-2A72.18 72.18 0 0 0 183 91.59c3.83-1.3 4.56-4.55 3.64-8.18-.83-3.25-3.83-5.09-7.23-5.73-6.24-1.34-12.53-2.11-19.25-3.15zM118.71 72c-.38-.42-.62-.74-.91-1-5.4-5.14-13.52-7.28-20-5.27-6 1.8-9 6.3-8 11.8 1 5.17 6.52 10.89 13.24 12.87 4.63 1.37 9.46 1.93 14.48 2.92v-5.07c0-.44-.24-1.17-.57-1.3a2.08 2.08 0 0 0-1.53.2c-2 1.43-4.4 1.36-7 .79-8-1.74-11.45-8.94-10.69-13.64s5-6.73 10.31-5.1c2.87.88 4.25 2.79 3.87 5.1-.05.35.14 1 .43 1.11a1.82 1.82 0 0 0 1.48 0c1.73-1.06 3.3-2.26 4.93-3.42zm100.39 30.76a7.36 7.36 0 0 0-2.15.43c-2.1 1.42-4.68 1.3-7.41.67-8.58-2.08-11.74-10-10.42-14.54 1.22-4.15 4.82-5.74 9.94-4.46 3.21.83 4.78 2.77 4.38 5.35a1.61 1.61 0 0 0 .56 1.19 1.41 1.41 0 0 0 1.22 0c1.71-1.16 3.37-2.36 5.08-3.56-.29-.33-.44-.56-.63-.79-5.81-6.06-15.95-8.15-23.06-4.71-6.32 2.91-7.78 10.1-3.27 16.15a22.22 22.22 0 0 0 9.49 7.29c5 2.13 10.23 2.26 15.41 3.15a1 1 0 0 0 .88-.55c.03-1.72-.02-3.51-.02-5.62z" transform="translate(-.98 -.52)"/><path d="M285.81 101.55c-.95 2.3-1.94 4.56-2.88 6.87-.25.53-.45 1.08-.69 1.61-1.54 3.07-1.54 3-5.89 2.31a2.28 2.28 0 0 1-2.08-1.63c-1.23-3.43-2.61-6.83-3.94-10.26a1.37 1.37 0 0 0-.69-.76c-.4 1.81-.79 3.67-1.14 5.5-.45 2.46-.84 5-1.34 7.46a2.3 2.3 0 0 0 1.19 2.68 1.65 1.65 0 0 1 .59 1.2c0 .2-.64.51-1 .45-3-.42-5.87-.88-9.07-1.38.1-.68-.05-1.52.3-1.63 2.46-.92 2.07-3.14 2.46-4.92 1.09-4.77 2-9.57 2.92-14.36.2-1 .44-1.81-1-2.64-.4-.27-.4-1.08-.69-1.86 3.79.58 7.25 1.08 10.65 1.69a2.51 2.51 0 0 1 1.39 1.31c1.18 3 2.22 5.91 3.35 8.9.1.22.2.48.5 1.14.74-1.52 1.28-2.66 1.83-3.84.79-1.68 1.49-3.41 2.33-5.08a1.52 1.52 0 0 1 1.14-.8c3.71.49 7.38 1.1 11.45 1.73-.25.65-.25 1.31-.65 1.53-1.09.57-1 1.48-.85 2.49 1.09 6 2.08 12 3.22 18.11a16.07 16.07 0 0 0 1.14 2.68c.2.61.34 1.24.49 1.84-3.82-.6-7.34-1.15-10.81-1.74a1.19 1.19 0 0 1-.69-.64c0-.41.15-1 .49-1.07 1.29-.49 1.29-1.35 1.05-2.5-.84-4.38-1.58-8.75-2.37-13.13a4.61 4.61 0 0 0-.4-1.13l-.34-.13zm-27.71 1c0 6.45-5.86 11.2-14 11.1a24.82 24.82 0 0 1-14.86-4.78c-5.72-4.27-8-9.38-6.69-14.79s5.77-8 12.19-8.48c7.75-.59 15.76 2.77 20.18 8.22a12.9 12.9 0 0 1 3.18 8.72zM230.65 98a24.71 24.71 0 0 0 .59 4 9.5 9.5 0 0 0 6.66 6.66c3.87 1.14 7.46 1.05 9.82-1.55 2.7-2.92 2.61-9.18-.19-12.87-3.39-4.52-10.36-6-14.18-3-2.11 1.75-2.7 4.14-2.7 6.82zm-74.12 1.48-12-1.88c.29-.68.53-1.21.72-1.79a5.3 5.3 0 0 0 .39-1.95 5.73 5.73 0 0 0-.77-1.78c-1.49-3.46-1.49-3.46-5.58-4.1l-.53-.08c-1.73-.19-4.08-1-5-.42-1.34.92-1.77 2.83-2.4 4.38-.19.45.29 1.21.53 1.81a21.34 21.34 0 0 0 1.25 2.17l-10.07-1.58c.52-.8.86-1.39 1.29-1.93s1.34-1.2 1.68-2q4.53-9.26 8.93-18.66c.38-.83.91-1.11 2.06-.89 1.64.33 3.22.58 4.86.75a2.48 2.48 0 0 1 2.36 1.69c2.88 6.91 5.82 13.82 8.9 20.72a24.45 24.45 0 0 0 2.46 3.41 13.8 13.8 0 0 1 .92 2.08zm-21.32-16.2 6.34 1c-1.11-2.72-2.12-5.17-3.12-7.63h-.44zm24.94-8.76c6.76 1 13 1.81 19.25 3.06 3.4.69 6.4 2.49 7.23 5.74.92 3.63.19 6.88-3.64 8.18a64.88 64.88 0 0 1-11.19 2.3c-1.5.25-2.33.56-2.13 2s-.25 2.63 1.3 3.93c.39.3.24 1.12.39 1.92-3.53-.56-6.82-1.08-10.1-1.63-.29 0-.87-.5-.87-.67a3.17 3.17 0 0 1 .43-1.3c.39-.75 1.21-1.43 1.21-2.28.1-5.6.1-11.21 0-16.8 0-.77-.67-1.6-1-2.42a15.7 15.7 0 0 1-.87-2.08zm9.57 15.84a12.74 12.74 0 0 0 8.28-3.55c2.18-2.54.72-5.6-3.3-6.79a26.42 26.42 0 0 0-3.58-.55c-1.11-.18-1.4.31-1.4 1.11.05 1.55 0 3.12 0 4.65v5.14zM118.71 72c-1.63 1.2-3.16 2.37-4.83 3.48a2.1 2.1 0 0 1-1.48 0c-.29-.13-.48-.8-.43-1.12.38-2.35-1-4.22-3.87-5.1-5.35-1.63-9.5.38-10.31 5.11s2.62 11.84 10.69 13.63c2.63.57 5.11.64 7-.79A1.86 1.86 0 0 1 117 87c.33.13.57.85.57 1.29v5.08c-5-1-9.85-1.55-14.48-2.92-6.72-2-12.25-7.7-13.25-12.87-1.05-5.5 1.95-10 7.91-11.81 6.53-2 14.61.13 20 5.27.34.2.58.52.96.96zm100.39 30.76c0 2.15.05 3.9 0 5.64a1 1 0 0 1-.88.55c-5.12-.89-10.39-1-15.41-3.16a22.33 22.33 0 0 1-9.48-7.28c-4.47-6.09-3.06-13.24 3.26-16.16 7.11-3.44 17.25-1.34 23.06 4.72a4.87 4.87 0 0 1 .63.78c-1.71 1.2-3.32 2.46-5.08 3.56a1.57 1.57 0 0 1-1.22 0 1.63 1.63 0 0 1-.58-1.19c.39-2.58-1.17-4.53-4.39-5.35-5.12-1.28-8.67.32-9.94 4.46-1.36 4.53 1.84 12.45 10.42 14.53 2.73.67 5.32.75 7.42-.66a9.41 9.41 0 0 1 2.19-.44z" transform="translate(-.98 -.52)" style="fill:#ffca08"/><path class="e38f89f5-9dde-41d2-b983-515192ee76e1" d="M230.65 98c0-2.68.59-5.07 2.75-6.81 3.82-3 10.74-1.51 14.18 3 2.8 3.69 2.84 9.94.19 12.86-2.41 2.6-6 2.7-9.82 1.56a9.48 9.48 0 0 1-6.67-6.66 21.19 21.19 0 0 1-.63-3.95zm-95.44-14.87c1-2.27 1.87-4.47 2.83-6.62h.43l3.13 7.62zm34.51 7.24v-5.06c0-1.53.05-3.1 0-4.65 0-.84.29-1.32 1.4-1.11a28.09 28.09 0 0 1 3.58.55c4.07 1.2 5.48 4.21 3.3 6.79a13.09 13.09 0 0 1-8.28 3.48zM163 113.8l1.21-2.39 1.06 2.75" transform="translate(-.98 -.52)"/></g></svg>