<svg version="1.1" id="Layer_1" xmlns="http://www.w3.org/2000/svg" x="0" y="0" viewBox="0 0 548 716.6" style="enable-background:new 0 0 548 716.6" xml:space="preserve">
    <style>
        .st4{fill:#ffe75a}.st7{fill:#db324c}.st12{fill:#1ca4a9}.st14{fill:#25b6be}.st15{fill:#fff}.st22{fill:#e8cd49}.st25{fill:#fcc927}.st26{fill:#fbc82a}.st30{fill:#2a7070}.st34{fill:#3b146c}
    </style>
    <path d="M537.4 255.6V58.1c0-6.7-2.2-12.9-6-17.8-.5-.6-1-1.3-1.5-1.8l-2.5-3c-10.7-12.9-25.9-21-42.6-22.6-35.6-3.5-98.6-9.4-129.4-10.6C330.8.9 302.8.1 271.1.1s-59.7.8-84.3 2.2C156 3.5 92.9 9.4 57.3 12.9c-16.6 1.6-31.9 9.8-42.6 22.6l-2.5 3c-.5.6-1 1.2-1.5 1.9-3.8 4.9-6 11.1-6 17.8v197.5C1.9 258 0 261.6 0 265.5v88.1c0 18.9 15.6 34.2 34.8 34.2h472.4c19.2 0 34.8-15.3 34.8-34.2v-88.1c.1-4-1.7-7.6-4.6-9.9z" style="fill:#6c378b"/>
    <path d="M74.2 32.7H47.4c-14.9 0-27 11.4-27 25.4v275.5c0 16 13 29 29 29h443.4c16 0 29-13 29-29V61.9c0-16-13-29-29-29H260.9l-186.7-.2z" style="fill:none;stroke:#52277b;stroke-miterlimit:10"/>
    <path d="M489.3 356.5H52.9c-14.6 0-26.5-11.9-26.5-26.5v-23.2c0-14.6 11.9-26.5 26.5-26.5h436.3c14.6 0 26.5 11.9 26.5 26.5V330c.1 14.6-11.8 26.5-26.4 26.5z" style="fill:#663c88"/>
    <linearGradient id="SVGID_1_" gradientUnits="userSpaceOnUse" x1="557.1" y1="22.044" x2="557.1" y2="-87.656" gradientTransform="translate(-286 304.11)">
        <stop offset="0" style="stop-color:#3b1666"/>
        <stop offset=".33" style="stop-color:#53277b"/>
        <stop offset="1" style="stop-color:#3b146c"/>
    </linearGradient>
    <path d="M515.8 297.4v-80.9H26.4v80.9c0 15.9 10.3 28.8 23 28.8h443.4c12.7-.1 23-13 23-28.8" style="fill:url(#SVGID_1_)"/>
    <path class="st4" d="M392.3 702.9c-3.1 0-5.6-2.5-5.6-5.6v-7.9c0-3.1 2.5-5.6 5.6-5.6 3.1 0 5.6 2.5 5.6 5.6v7.9c0 3.1-2.5 5.6-5.6 5.6z"/>
    <linearGradient id="SVGID_00000162319719392299393320000014109257014912817798_" gradientUnits="userSpaceOnUse" x1="286.1" y1="249.244" x2="828.1" y2="249.244" gradientTransform="translate(-286 304.11)">
        <stop offset="0" style="stop-color:#25b6be"/>
        <stop offset=".49" style="stop-color:#27c9c9"/>
        <stop offset="1" style="stop-color:#25b6be"/>
    </linearGradient>
    <path style="fill:url(#SVGID_00000162319719392299393320000014109257014912817798_)" d="M507.9 390.2H34.3C15.4 390.2.1 405.5.1 424.4v216.4c.3 41.9 33.5 75.8 74.5 75.8 21 0 40-8.9 53.6-23.3H414c13.6 14.4 32.5 23.3 53.6 23.3 41 0 74.2-33.9 74.5-75.8V424.4c0-18.9-15.3-34.2-34.2-34.2z"/>
    <linearGradient id="SVGID_00000014604713175948605690000006690221948909158834_" gradientUnits="userSpaceOnUse" x1="815.15" y1="-148.956" x2="815.15" y2="-84.056" gradientTransform="translate(-286 304.11)">
        <stop offset="0" style="stop-color:#3b1666"/>
        <stop offset="1" style="stop-color:#794b9a"/>
    </linearGradient>
    <path style="fill:url(#SVGID_00000014604713175948605690000006690221948909158834_)" d="M537.4 155.2h-11.5c-2.8 0-5 2.1-5 4.7v55.5c0 2.6 2.2 4.7 5 4.7h11.5v-64.9z"/>
    <path class="st7" d="m545.4 189.8-3.1-5.4v-.7l3.1-5.4 1.9-3.3c.8-1.5.8-3.3 0-4.8l-1.9-3.3-3.2-5.7v1.4-1.9c0-1-.7-1.8-1.6-1.8h-9c-2.7 0-4.9 2.5-4.9 5.6v38.9c0 3.1 2.2 5.6 4.9 5.6h9.6c.6 0 1.2-.4 1.4-1.1v-1.8l2.9-5 1.9-3.3c.8-1.5.8-3.3 0-4.8l-2-3.2z"/>
    <linearGradient id="SVGID_00000070819620534818077190000007880119208492352911_" gradientUnits="userSpaceOnUse" x1="312.4" y1="-144.806" x2="358.9" y2="-144.806" gradientTransform="translate(-286 304.11)">
        <stop offset="0" style="stop-color:#3b1666"/>
        <stop offset=".33" style="stop-color:#53277b"/>
        <stop offset=".74" style="stop-color:#3b146c"/>
    </linearGradient>
    <path style="fill:url(#SVGID_00000070819620534818077190000007880119208492352911_)" d="M72.9 279.9H37.3c-6 0-10.9-4.5-10.9-10V58.1c0-10.6 9.4-19.3 21-19.3h20.9"/>
    <linearGradient id="SVGID_00000000934933317766040550000002843867830384571022_" gradientUnits="userSpaceOnUse" x1="802.05" y1="83.584" x2="802.05" y2="52.344" gradientTransform="translate(-286 304.11)">
        <stop offset="0" style="stop-color:#3b1666"/>
        <stop offset="1" style="stop-color:#794b9a"/>
    </linearGradient>
    <path style="fill:url(#SVGID_00000000934933317766040550000002843867830384571022_)" d="M514.6 356.5h-12.7v31.2h12.7c8.6 0 15.6-7 15.6-15.6s-7-15.6-15.6-15.6z"/>
    <radialGradient id="SVGID_00000038390437427018665150000009871778408086835349_" cx="346.236" cy="439.194" r="37.498" gradientTransform="matrix(.9998 .01972 -.05916 2.9994 -254.185 -782.6)" gradientUnits="userSpaceOnUse">
        <stop offset="0" style="stop-color:#25b6be"/>
        <stop offset="1" style="stop-color:#1ca4a9"/>
    </radialGradient>
    <path style="opacity:.5;fill:url(#SVGID_00000038390437427018665150000009871778408086835349_);enable-background:new" d="M66 657.8c20.8 0 37.6-16.8 37.6-37.6V463c0-20.8-16.8-37.6-37.6-37.6S28.4 442.2 28.4 463v157.2c-.1 20.8 16.8 37.6 37.6 37.6z"/>
    <circle class="st7" cx="66" cy="534.3" r="30.6"/>
    <path d="M75.6 506.3c-.2-.1-.5-.1-.7-.2 13.9 5.3 21 20.8 16.1 34.8-5.1 14.3-20.8 21.8-35.1 16.7-14.1-5-21.6-20.3-17-34.4-.1.2-.2.4-.3.7-5.3 15.1 2.5 31.6 17.6 36.9 15.1 5.3 31.6-2.5 36.9-17.6 5.5-15-2.4-31.6-17.5-36.9z" style="fill:#e24b69"/>
    <circle transform="rotate(-1.356 63.91 616.536) scale(.99998)" class="st12" cx="63.9" cy="616.6" r="37.6"/>
    <circle cx="68.1" cy="624.6" r="37.6" style="fill:#35c9c9"/>
    <circle class="st14" cx="66" cy="620.4" r="37.6"/>
    <ellipse class="st12" cx="66.8" cy="604.1" rx="8" ry="11.8"/>
    <ellipse class="st12" cx="66.8" cy="640.6" rx="8" ry="11.8"/>
    <ellipse class="st12" cx="85.1" cy="622.3" rx="11.8" ry="8"/>
    <ellipse class="st12" cx="48.6" cy="622.3" rx="11.8" ry="8"/>
    <ellipse class="st15" cx="66" cy="602.2" rx="8" ry="11.8"/>
    <ellipse cx="66" cy="638.7" rx="8" ry="11.8" style="fill:#f98d14"/>
    <ellipse cx="84.2" cy="620.4" rx="11.8" ry="8" style="fill:#3fd174"/>
    <ellipse cx="47.7" cy="620.4" rx="11.8" ry="8" style="fill:#8250ad"/>
    <path class="st4" d="M143.4 654.5c-1.4 0-2.5-1.1-2.5-2.5V431.5c0-1.4 1.1-2.5 2.5-2.5h296.7c1.4 0 2.5 1.1 2.5 2.5v220.4c0 1.4-1.1 2.5-2.5 2.5H143.4v.1z"/>
    <path d="M440.1 429.5c1.1 0 2 .9 2 2v220.4c0 1.1-.9 2-2 2H143.4c-1.1 0-2-.9-2-2V431.5c0-1.1.9-2 2-2h296.7m0-1H143.4c-1.7 0-3 1.4-3 3v220.4c0 1.7 1.4 3 3 3h296.7c1.7 0 3-1.4 3-3V431.5c0-1.6-1.3-3-3-3z" style="fill:#1c7775"/>
    <circle class="st7" cx="170.1" cy="444.4" r="1.9"/>
    <circle class="st7" cx="218.7" cy="444.4" r="1.9"/>
    <circle class="st7" cx="267.4" cy="444.4" r="1.9"/>
    <circle class="st7" cx="316.1" cy="444.4" r="1.9"/>
    <circle class="st7" cx="364.8" cy="444.4" r="1.9"/>
    <circle class="st7" cx="413.5" cy="444.4" r="1.9"/>
    <circle class="st7" cx="170.1" cy="493.1" r="1.9"/>
    <circle class="st7" cx="218.7" cy="493.1" r="1.9"/>
    <circle class="st7" cx="267.4" cy="493.1" r="1.9"/>
    <circle class="st7" cx="316.1" cy="493.1" r="1.9"/>
    <circle class="st7" cx="364.8" cy="493.1" r="1.9"/>
    <circle class="st7" cx="413.5" cy="493.1" r="1.9"/>
    <circle class="st7" cx="170.1" cy="541.7" r="1.9"/>
    <circle class="st7" cx="218.7" cy="541.7" r="1.9"/>
    <circle class="st7" cx="267.4" cy="541.7" r="1.9"/>
    <circle class="st7" cx="316.1" cy="541.7" r="1.9"/>
    <circle class="st7" cx="364.8" cy="541.7" r="1.9"/>
    <circle class="st7" cx="413.5" cy="541.7" r="1.9"/>
    <circle class="st7" cx="170.1" cy="590.4" r="1.9"/>
    <circle class="st7" cx="218.7" cy="590.4" r="1.9"/>
    <circle class="st7" cx="267.4" cy="590.4" r="1.9"/>
    <circle class="st7" cx="316.1" cy="590.4" r="1.9"/>
    <circle class="st7" cx="364.8" cy="590.4" r="1.9"/>
    <circle class="st7" cx="413.5" cy="590.4" r="1.9"/>
    <circle class="st7" cx="170.1" cy="639.1" r="1.9"/>
    <circle class="st7" cx="218.7" cy="639.1" r="1.9"/>
    <circle class="st7" cx="267.4" cy="639.1" r="1.9"/>
    <circle class="st7" cx="316.1" cy="639.1" r="1.9"/>
    <circle class="st7" cx="364.8" cy="639.1" r="1.9"/>
    <circle class="st7" cx="413.5" cy="639.1" r="1.9"/>
    <path d="M492.8 38.9H61.3c-4 0-7.5 2.5-8.6 5.8h-.4v225.2c0 5.5 4.9 10 11 10h185.9c1.1 0 2 .9 2 2v32.3c0 6.6 5.3 11.9 11.9 11.9h37.8v7.8h166.2v-7.8h36.8c6.6 0 11.9-5.3 11.9-11.9V61.9c0-12.7-10.3-23-23-23z" style="fill:#4e2478"/>
    <path style="fill:#411870" d="M300.9 330.4h166.2v3.5H300.9z"/>
    <path class="st4" d="M481.1 663.2c.9 1.6 1.8 3.1 2.8 4.7 1-.8 2.1-1.3 3.4-1.3s2.4.5 3.4 1.3c.9-1.4 1.8-2.9 2.6-4.3-1.8-1.2-4-2-6.4-2-2.1-.1-4.1.5-5.8 1.6z"/>
    <path class="st4" d="M478.9 659c.4.9.9 1.8 1.4 2.7 1.9-1.2 4.2-1.9 6.6-1.9 2.7 0 5.1.8 7.2 2.3.5-.9.9-1.8 1.4-2.7-2.5-1.6-5.4-2.5-8.6-2.5-2.9-.1-5.6.7-8 2.1z"/>
    <path class="st4" d="m477 654.5 1.2 3c2.6-1.5 5.5-2.4 8.7-2.4 3.4 0 6.6 1 9.3 2.8.4-1 .9-2 1.3-3-3.1-1.9-6.7-2.9-10.5-2.9-3.7-.1-7.1.8-10 2.5z"/>
    <path class="st4" d="M475.2 649.2c.4 1.2.8 2.5 1.2 3.7 3.1-1.8 6.7-2.7 10.5-2.7 4.1 0 7.9 1.1 11.1 3.1.4-1.2.9-2.5 1.2-3.7-3.7-2.1-7.9-3.2-12.4-3.2-4.1-.1-8.1 1-11.6 2.8zM499.5 648.7c1.3-4.5 2.1-9.1 2.4-13.8l-4-181.6c0-4.5-6.7-8.2-10.6-8.2s-10.6 3.7-10.6 8.2l-4 181.6c.3 4.6 1 9.1 2.3 13.4 3.6-1.9 7.7-2.9 12-2.9 4.5.1 8.8 1.3 12.5 3.3z"/>
    <path class="st22" d="M486.9 661.5c2.4 0 4.6.7 6.4 2 .3-.5.5-1 .8-1.4-2.1-1.4-4.5-2.3-7.2-2.3-2.4 0-4.7.7-6.6 1.9.3.5.5 1 .8 1.5 1.7-1.1 3.7-1.7 5.8-1.7zM486.9 656.8c3.1 0 6.1.9 8.6 2.5.2-.5.5-1 .7-1.5-2.7-1.7-5.9-2.8-9.3-2.8-3.2 0-6.1.9-8.7 2.4.2.5.5 1 .7 1.5 2.4-1.3 5.1-2.1 8-2.1zM486.9 651.9c3.8 0 7.4 1.1 10.5 2.9.2-.5.4-1 .6-1.6-3.3-2-7.1-3.1-11.1-3.1s-7.4 1-10.5 2.7c.2.5.4 1.1.6 1.6 2.9-1.6 6.3-2.5 9.9-2.5z"/>
    <path class="st4" d="M486.9 646.3c4.5 0 8.7 1.2 12.4 3.2.1-.3.2-.5.2-.8-3.8-2.1-8.1-3.3-12.6-3.3s-8.4 1.1-12 2.9c.1.3.2.5.2.8 3.6-1.7 7.6-2.8 11.8-2.8z"/>
    <path d="M486.9 646.3c4.5 0 8.7 1.2 12.4 3.2.1-.3.2-.5.2-.8-3.8-2.1-8.1-3.3-12.6-3.3s-8.4 1.1-12 2.9c.1.3.2.5.2.8 3.6-1.7 7.6-2.8 11.8-2.8z" style="opacity:.5;fill:#e8cd49;enable-background:new"/>
    <path class="st15" d="M487.3 671.5c.3 0 .9-.1 1.3-.7l2.1-3c-1-.8-2.1-1.3-3.4-1.3s-2.4.5-3.4 1.3c.7 1 1.3 2 2.1 3 .4.6 1 .7 1.3.7z"/>
    <path class="st7" d="M499.8 495h-25v-37.3c0-6.9 5.6-12.5 12.5-12.5s12.5 5.6 12.5 12.5V495z"/>
    <path class="st14" d="M487.3 635.7c-4 0-7.2-3.2-7.2-7.2v-57.2c0-4 3.2-7.2 7.2-7.2s7.2 3.2 7.2 7.2v57.2c0 3.9-3.2 7.2-7.2 7.2z"/>
    <path style="fill:#034e95" d="m491.7 611.6-1.6-7.4.1-10 1.1-9.8-1.3-4.6-6.2 1.9-1.3 7.2.8 7.4-.6 9-.1 11.4 7.3 3.2z"/>
    <path class="st25" d="M489.7 587.5c.3-.9.3-2.4.2-3.3 0-.3-.2-.7-.5-.8-.1-.1-.3 0-.4-.1s-.2-.2-.2-.3c0-.2-.2-.6-.6-.4 0 0-.6.4-1.5.6-.9.2-1.8.4-1.9 1.5s.2 1.5.8 1.3c.6-.2 1-.4 1 0-.1.4 0 1.5.5 2.2s.6.8 1.3.8c.7-.1 1-.6 1.3-1.5zm-1.9-1.6c-.1-.3 0-.6.3-.8l.2-.1c.1-.1.3-.1.4.1.4.7.2 1.6-.3 1.8-.3-.2-.5-.6-.6-1zM487.6 594.2c.1-.3.1-.9.1-.9 0-.5-.3-1-.9-1.1s-1.8-.2-2-.1c-.4.1-.7.6-.7 1.2 0 .5.4 1.1.9 1.2.5 0 2.4.3 2.6-.3zM486.1 604.7c.1-.2.1-.5.1-.7 0-.4-.1-.7-.2-1-.2-.4-.5-1.1-.4-1.7 0-1 .7-1.2 1-.9.4.3.7.8.8 2 .1.7.1 1 .2 1.2.1.3.4.4.6.1.2-.2.3-.5.3-.8 0-.8-.1-2.6-1.1-4.1-.7-1.3-1.7-.8-2-.5-.4.4-1 1.1-1 3.1 0 1.8.4 2.6.6 3.1.1.1.2.3.3.4l.1.1c.1.1.4 0 .4-.1l.3-.2zM486.8 613.2c-.1-.4 0-.9 0-1.2s0-.6.2-.9l.1-.1v-.2h-.2l-.1.1c-.2.4-.3.7-.3 1.1 0 .4 0 .9.1 1.2 0 .1.1.1.2 0-.1.2 0 .1 0 0z"/>
    <path class="st25" d="M488.5 614.9c.4-.7.6-2 .6-3.2 0 0 .1-1.1-.8-2.5s-1.8-.9-2.2-.6c-.4.4-1.2 1.9-1.1 3.8.2 1.8.7 2.8 1.5 2.9.9.3 1.6.2 2-.4zm-1.5-.7-.1-.1c-.8-.3-1-1.1-1-2.1 0-.9.2-1.4.5-1.8.3-.4.7-.5 1.1 0 .2.2.4.6.4.9-.3 0-.6.2-.5.5.2.6.3.3.3.3s0-.4.3-.1v.6c-.2-.1-.5-.1-.6.3-.2.6.1.5.1.5s.1-.3.4-.1c-.1.3-.2.5-.3.7 0 .3-.3.5-.6.4zM489.4 612.9c0 .6.6.9.9 1 .1.1.3 0 .3-.1 0-.4-.5-.8-.9-1-.2 0-.3 0-.3.1zM488.7 615.2c-.2.5.2 1.1.5 1.4.1.1.2.1.3.1.2-.4-.2-1-.4-1.3-.2-.2-.3-.3-.4-.2zM486.9 617.5c.5-.3.4-1 .3-1.4 0-.1-.1-.2-.2-.2-.3.2-.3.9-.3 1.3 0 .2.1.4.2.3zM485.5 615.3c0-.1 0-.3-.1-.3-.4.1-.7.7-.9 1.1-.1.2 0 .4.1.3.7 0 .9-.7.9-1.1zM484.8 613.3c-.4-.2-.9.1-1.3.3-.1.1-.2.3-.1.3.6.3 1.1-.1 1.3-.4.1-.1.2-.2.1-.2zM484.7 611.3c-.1-.4-.6-.7-1-.8-.2 0-.3 0-.3.1.1.6.7.8 1 .8.2.1.3 0 .3-.1zM485.2 609.3c.2-.4-.2-.9-.5-1.2-.1-.1-.3-.2-.3-.1-.2.6.3 1 .6 1.3.1.1.2.1.2 0zM486.5 608.2c.1 0 .1-.1.2-.2.1-.4.2-1.1-.2-1.4-.1-.1-.2.1-.2.3-.1.3-.2 1 .2 1.3zM488.6 607.2c-.3.3-.7.9-.6 1.2 0 .1.1 0 .3-.1.3-.3.8-.8.6-1.3 0 0-.1 0-.3.2zM489.4 610.7c0 .1.1.1.2 0 .3-.1.9-.5.8-1 0-.1-.2-.1-.3 0-.2.3-.7.7-.7 1zM491.3 592.7c-.3-.7-1-.8-1.4-.3-.2.2-.4.5-.7.7 0 0-.1.1-.3.1v-.2c-.2-.1-.2.1-.3.3h-.2c-.4 0-.3.3-.2.3h.2c-.1.2-.1.4.1.4.1 0 .2-.2.2-.3h.1c0 .1 0 .2.1.3.1 0 .1-.1.2-.2.1 0 .1.1.1.1.8.6 1.1.9 1.4.8.4.1 1.2-.7.7-2zm-1.8.9.8-.8c.3-.4.8-.2.9.3.1.6-.1 1.2-.4 1.3-.3 0-.6-.1-1.3-.8z"/>
    <path class="st26" d="M491.4 595.3c0-.1 0-.1 0 0l.1-.1v-.1c0-.1-.1-.1-.1-.1l-.1-.1h-.1v.1s0 .1.1.1c-.1.1 0 .2.1.2zM492 594.4c0-.1-.1-.2-.1-.2s-.1 0-.1-.1h-.1c-.1 0-.1.1-.1.1v.1l.1.1.1.1c.1 0 .1-.1.2-.1 0 .1 0 0 0 0zM492 593.2c.1 0 .1-.1 0-.2h-.2s-.1 0-.1.1v.1s0 .1.1.1c.1-.1.2-.1.2-.1zM491.7 592.2l.1-.1v-.1l-.1-.1h-.1l-.1.1-.1.1v.1s0 .1.1 0c.1.1.1 0 .2 0zM490.9 591.7c.1-.1.1-.2.1-.2h-.2c-.1 0-.1.1-.2.1s-.1.1-.1.1-.1.1 0 .2c0 .1.1.1.2 0 0-.1.1-.1.2-.2z"/>
    <radialGradient id="SVGID_00000026867123382460741390000016888828757446987177_" cx="1027.748" cy="254.194" r="83.837" gradientTransform="matrix(.84 0 0 1 -377.648 304.11)" gradientUnits="userSpaceOnUse">
        <stop offset="0" style="stop-color:#25b6be"/>
        <stop offset="1" style="stop-color:#1ca4a9"/>
    </radialGradient>
    <path style="fill:url(#SVGID_00000026867123382460741390000016888828757446987177_)" d="M487.3 445.1h.8c2.7.2 5.2 1.4 7.2 3.4.8.8 1.6 1.6 2 2.5 1.6 2.5 2.5 5.6 2.5 9v45.3h-.8l2.9 129.7c-.3 4.7-1.1 9.3-2.4 13.8-.1.3-.2.5-.2.8-.4 1.2-.8 2.5-1.2 3.7-.2.5-.4 1-.6 1.6-.4 1-.8 2-1.3 3-.2.5-.5 1-.7 1.5-.4.9-.9 1.8-1.4 2.7-.3.5-.5 1-.8 1.4-.8 1.5-1.7 2.9-2.6 4.3-.7 1-1.3 2-2.1 3-.5.6-1 .7-1.3.7s-.9-.1-1.3-.7l-2.1-3c-1-1.5-1.9-3.1-2.8-4.7-.3-.5-.5-1-.8-1.5-.5-.9-.9-1.8-1.4-2.7-.2-.5-.5-1-.7-1.5l-1.2-3c-.2-.5-.4-1.1-.6-1.6-.4-1.2-.8-2.4-1.2-3.7-.1-.3-.2-.5-.2-.8-1.2-4.4-2-8.9-2.3-13.4l2.6-115.8c-.3-.3-.5-.8-.5-1.3v-57.9c0-3.4 1-6.5 2.5-9 .5-.9 1.2-1.8 2-2.5 2-1.9 4.5-3.2 7.2-3.4.3.1.5.1.8.1m0-3.5h-.1c-.3 0-.6 0-.9.1-3.2.2-6.3 1.7-8.8 4.1-1.1 1-2 2.1-2.6 3.3-2 3.2-3 6.9-3 10.9v57.9c0 .8.2 1.6.5 2.3l-2.6 114.7v.4c.3 4.8 1.1 9.6 2.4 14.3l.1.2c.1.2.1.5.2.7.4 1.3.8 2.6 1.3 3.9.2.6.4 1.1.6 1.7.4 1.1.9 2.1 1.3 3.1.2.5.5 1.1.7 1.6.5 1 .9 2 1.4 2.9.3.5.5 1 .8 1.5.9 1.6 1.9 3.3 3 4.9.8 1.2 1.5 2.2 2.1 3.1.9 1.2 2.2 1.9 3.5 1.9 1.4 0 2.7-.7 3.5-1.9.7-.9 1.4-1.9 2.1-3.1 1-1.5 1.9-3 2.8-4.5.3-.5.6-1 .8-1.5.5-.9.9-1.8 1.5-2.9v-.1c.2-.5.5-1 .7-1.5.4-1 .9-2 1.3-3.1.2-.6.4-1.1.6-1.7.5-1.2.9-2.6 1.3-3.9l.1-.2c.1-.2.1-.4.2-.6 1.4-4.8 2.2-9.7 2.5-14.6v-.4L501.8 509h.7v-48.8c0-3.9-1.1-7.7-3-10.9-.6-1.2-1.5-2.3-2.6-3.3-2.5-2.4-5.5-3.8-8.8-4.1-.2-.2-.5-.3-.8-.3z"/>
    <path class="st14" d="M499.8 358.9h2.1v26.5h-2.1z"/>
    <linearGradient id="SVGID_00000170275759068832259310000012346248831707818662_" gradientUnits="userSpaceOnUse" x1="312.25" y1="83.584" x2="312.25" y2="52.344" gradientTransform="translate(-286 304.11)">
        <stop offset="0" style="stop-color:#3b1666"/>
        <stop offset="1" style="stop-color:#794b9a"/>
    </linearGradient>
    <path style="fill:url(#SVGID_00000170275759068832259310000012346248831707818662_)" d="M27.7 387.7h12.7v-31.2H27.7c-8.6 0-15.6 7-15.6 15.6s7 15.6 15.6 15.6z"/>
    <path class="st14" d="M40.3 358.8h2.1v26.5h-2.1z"/>
    <linearGradient id="SVGID_00000021833064821779692620000002565595206422824321_" gradientUnits="userSpaceOnUse" x1="557.25" y1="96.794" x2="557.25" y2="76.734" gradientTransform="translate(-286 304.11)">
        <stop offset=".1" style="stop-color:#25b6be"/>
        <stop offset=".55" style="stop-color:#85bfce"/>
        <stop offset=".8" style="stop-color:#32b8c1"/>
    </linearGradient>
    <path style="fill:url(#SVGID_00000021833064821779692620000002565595206422824321_)" d="M71.8 400.9c-3.5 0-6.3-2.8-6.3-6.3v-13.8H477v13.8c0 3.5-2.8 6.3-6.3 6.3H71.8z"/>
    <path class="st30" d="M476.5 381.4v13.3c0 3.2-2.6 5.8-5.8 5.8H71.8c-3.2 0-5.8-2.6-5.8-5.8v-13.3h410.5m1-1H65v14.3c0 3.7 3.1 6.8 6.8 6.8h398.9c3.7 0 6.8-3.1 6.8-6.8v-14.3z"/>
    <linearGradient id="SVGID_00000067935015978015718050000005332950643125665466_" gradientUnits="userSpaceOnUse" x1="557.15" y1="91.144" x2="557.15" y2="51.844" gradientTransform="translate(-286 304.11)">
        <stop offset=".1" style="stop-color:#25b6be"/>
        <stop offset=".55" style="stop-color:#85bfce"/>
        <stop offset=".8" style="stop-color:#32b8c1"/>
    </linearGradient>
    <path style="fill:url(#SVGID_00000067935015978015718050000005332950643125665466_)" d="M481.7 395.3c-2.6 0-4.7-1.6-4.7-3.7v-9.3c0-.8-1-1.5-2.2-1.5H68.1c-1.2 0-2.2.7-2.2 1.5v9.3c0 2-2.1 3.7-4.7 3.7H47.1c-2.6 0-4.7-1.6-4.7-3.7V356h457.5v35.6c0 2-2.1 3.7-4.7 3.7h-13.5z"/>
    <path class="st30" d="M499.5 356.5v35.1c0 1.8-1.9 3.2-4.2 3.2h-13.6c-2.3 0-4.2-1.4-4.2-3.2v-9.3c0-1.1-1.2-2-2.7-2H68.1c-1.5 0-2.7.9-2.7 2v9.3c0 1.8-1.9 3.2-4.2 3.2H47.1c-2.3 0-4.2-1.4-4.2-3.2v-35h456.6m1-1.1H42v36c0 2.3 2.3 4.2 5.2 4.2h14.1c2.9 0 5.2-1.9 5.2-4.2v-9.3c0-.5.7-1 1.7-1h406.7c1 0 1.7.6 1.7 1v9.3c0 2.3 2.3 4.2 5.2 4.2h13.6c2.9 0 5.2-1.9 5.2-4.2v-36h-.1z"/>
    <linearGradient id="SVGID_00000059294258064281165970000011975874143303406483_" gradientUnits="userSpaceOnUse" x1="557.15" y1="-272.156" x2="557.15" y2="-304.076" gradientTransform="translate(-286 304.11)">
        <stop offset="0" style="stop-color:#3b1666"/>
        <stop offset="1" style="stop-color:#794b9a"/>
    </linearGradient>
    <path style="fill:url(#SVGID_00000059294258064281165970000011975874143303406483_)" d="M452.7 9.8c-8.2.7-20.9 3.8-36.5 16 0 0-69.7 5.9-142.5 6.2h-5.2c-72.8-.3-142.5-6.2-142.5-6.2-15.6-12.2-28.2-15.3-36.4-16 0 0 84.9-9.7 178-9.7C360-.8 452.7 9.8 452.7 9.8z"/>
    <linearGradient id="SVGID_00000092453363402522187450000012948400354402255515_" gradientUnits="userSpaceOnUse" x1="639.5" y1="-280.706" x2="639.5" y2="-283.626" gradientTransform="translate(-286 304.11)">
        <stop offset="0" style="stop-color:#3b1666"/>
        <stop offset="1" style="stop-color:#794b9a"/>
    </linearGradient>
    <path style="fill:url(#SVGID_00000092453363402522187450000012948400354402255515_)" d="M368.5 23.4h-30c-.8 0-1.5-.7-1.5-1.5s.7-1.5 1.5-1.5h30c.8 0 1.5.7 1.5 1.5 0 .9-.6 1.5-1.5 1.5z"/>
    <path class="st34" d="M331.5 1.2h.9v29.6h-.9zM374.7 3.3h.9v25.3h-.9z"/>
</svg>
