<svg version="1.1" id="Layer_1" xmlns="http://www.w3.org/2000/svg" x="0" y="0" viewBox="0 0 295 368" style="enable-background:new 0 0 295 368" xml:space="preserve">
    <style>
        .st0{fill:#fac367}.st2{fill:#d39a48}.st3{fill:#3762d1}
    </style>
    <path class="st0" d="M242.2 368H52.7c-.6 0-1.2-.5-1.2-1.2v-42.2c0-.6.5-1.2 1.2-1.2h189.5c.6 0 1.2.5 1.2 1.2v42.2c0 .7-.5 1.2-1.2 1.2z"/>
    <g style="opacity:.25">
        <path class="st2" d="M53 323.4h1V368h-1zM55.6 323.4h1V368h-1zM58.1 323.4h1V368h-1zM60.7 323.4h1V368h-1zM63.2 323.4h1V368h-1zM65.7 323.4h1V368h-1zM68.3 323.4h1V368h-1zM70.8 323.4h1V368h-1zM73.4 323.4h1V368h-1zM75.9 323.4h1V368h-1zM78.4 323.4h1V368h-1zM81 323.4h1V368h-1zM83.5 323.4h1V368h-1zM86.1 323.4h1V368h-1zM88.6 323.4h1V368h-1zM91.1 323.4h1V368h-1zM93.7 323.4h1V368h-1zM96.2 323.4h1V368h-1zM98.7 323.4h1V368h-1zM101.3 323.4h1V368h-1zM103.8 323.4h1V368h-1zM106.4 323.4h1V368h-1zM108.9 323.4h1V368h-1zM111.4 323.4h1V368h-1zM114 323.4h1V368h-1zM116.5 323.4h1V368h-1zM119.1 323.4h1V368h-1zM121.6 323.4h1V368h-1zM124.1 323.4h1V368h-1zM126.7 323.4h1V368h-1zM129.2 323.4h1V368h-1zM131.8 323.4h1V368h-1zM134.3 323.4h1V368h-1zM136.8 323.4h1V368h-1zM139.4 323.4h1V368h-1zM141.9 323.4h1V368h-1zM144.4 323.4h1V368h-1zM147 323.4h1V368h-1zM149.5 323.4h1V368h-1zM152.1 323.4h1V368h-1zM154.6 323.4h1V368h-1zM157.1 323.4h1V368h-1zM159.7 323.4h1V368h-1zM162.2 323.4h1V368h-1zM164.8 323.4h1V368h-1zM167.3 323.4h1V368h-1zM169.8 323.4h1V368h-1zM172.4 323.4h1V368h-1zM174.9 323.4h1V368h-1zM177.5 323.4h1V368h-1zM180 323.4h1V368h-1zM182.5 323.4h1V368h-1zM185.1 323.4h1V368h-1zM187.6 323.4h1V368h-1zM190.1 323.4h1V368h-1zM192.7 323.4h1V368h-1zM195.2 323.4h1V368h-1zM197.8 323.4h1V368h-1zM200.3 323.4h1V368h-1zM202.8 323.4h1V368h-1zM205.4 323.4h1V368h-1zM207.9 323.4h1V368h-1zM210.5 323.4h1V368h-1zM213 323.4h1V368h-1zM215.5 323.4h1V368h-1zM218.1 323.4h1V368h-1zM220.6 323.4h1V368h-1zM223.2 323.4h1V368h-1zM225.7 323.4h1V368h-1zM228.2 323.4h1V368h-1zM230.8 323.4h1V368h-1zM233.3 323.4h1V368h-1zM235.8 323.4h1V368h-1zM238.4 323.4h1V368h-1zM240.9 323.4h1V368h-1z"/>
    </g>
    <path class="st2" d="M53.7 321.1h187.5v2.4H53.7z"/>
    <path class="st0" d="M286.2 321.1H8.8c-4.8 0-8.7-3.9-8.7-8.7V6.2C0 2.8 2.8 0 6.3 0h267.2C285.3 0 295 9.6 295 21.5v290.8c0 4.9-4 8.8-8.8 8.8z"/>
    <path class="st2" d="M272.7 272.9H0V8h269.7c9.2 0 16.7 7.5 16.7 16.7v234.5c0 7.6-6.1 13.7-13.7 13.7zM167.1 354.9h-39.3c-3.8 0-6.9-3.1-6.9-6.9v-4.5c0-3.8 3.1-6.9 6.9-6.9h39.3c3.8 0 6.9 3.1 6.9 6.9v4.5c0 3.8-3.1 6.9-6.9 6.9z"/>
    <path class="st0" d="M127.2 351.9h5.4c2.2 0 4-1.8 4-4s-1.8-4-4-4h-1.4c-.1 0-.2-.1-.2-.2s.1-.2.2-.2h5.3v-1.7h-5.4c-1 0-1.9.8-1.9 1.9 0 1 .8 1.9 1.9 1.9h1.4c1.3 0 2.3 1 2.3 2.3 0 1.3-1 2.3-2.3 2.3h-5.4l.1 1.7"/>
    <path class="st0" d="M127.2 349.8h5.4c1 0 1.9-.8 1.9-1.9 0-1-.8-1.9-1.9-1.9h-1.4c-1.3 0-2.3-1-2.3-2.3 0-1.2 1-2.3 2.3-2.3h5.4v-1.7h-5.3c-2.2 0-4 1.8-4 4s1.8 4 4 4h1.4c.1 0 .2.1.2.2s-.1.2-.2.2h-5.4l-.1 1.7M140.7 350.2c-.9 0-1.7-.7-1.7-1.7v-5.4c0-.9.8-1.7 1.7-1.7h5.7v-1.7h-5.7c-1.9 0-3.4 1.5-3.4 3.4v5.3c0 1.9 1.5 3.4 3.4 3.4h5.7v-1.7l-5.7.1"/>
    <path class="st0" d="M139.4 343.2c0-.7.6-1.3 1.3-1.3h5.7v1.7h-4.9c-.4 0-.4.4-.4.4h4.1v1.7h-5.8v-2.5M140.7 349.8c-.7 0-1.3-.6-1.3-1.3V346h5.8v1.7h-4.1c0 .4.4.4.4.4h4.9v1.7h-5.7M150.4 350.2c-.9 0-1.7-.8-1.7-1.7v-5.3c0-.9.8-1.7 1.7-1.7h5.5v-1.7h-5.6c-1.9 0-3.4 1.5-3.4 3.4v5.3c0 1.9 1.5 3.4 3.4 3.4h5.5V344H151v1.7h3.1v4.5h-3.7"/>
    <path class="st0" d="M149.1 348.5c0 .7.6 1.3 1.3 1.3h3.5V346h-2.7v1.7h1v.4h-1c-.2 0-.4-.2-.4-.4v-3.8s0-.4.4-.4h4.8v-1.7h-5.5c-.7 0-1.3.6-1.3 1.3l-.1 5.4M161.2 341.9c.1-.2.3-.4.5-.4s.4.2.5.4l2.7 7.9H161v-1.9h1.3l-.6-1.8-1.9 5.7h-2l3.4-9.9"/>
    <path class="st0" d="M165.4 350.2h-4.5v1.7h6.8l-3.5-10.5c-.3-1-1.3-1.8-2.5-1.8s-2.2.7-2.5 1.8l-3.6 10.5h1.8l3.5-10.2c.1-.3.5-.6.9-.6s.7.2.9.6l2.7 8.5"/>
    <path class="st3" d="M276.3 54.3h-21V13.2h12.9c6.4 0 11.5 5.1 11.5 11.5v26.1c.1 2-1.5 3.5-3.4 3.5z"/>
    <path d="M276.3 95.4h-21V54.3h21c1.9 0 3.4 1.5 3.4 3.4V92c.1 1.8-1.5 3.4-3.4 3.4z" style="fill:#f9e469"/>
    <path d="M276.3 136.4h-21v-41h21c1.9 0 3.4 1.5 3.4 3.4V133c.1 1.9-1.5 3.4-3.4 3.4z" style="fill:#47af52"/>
    <path d="M276.3 177.5h-21v-41.1h21c1.9 0 3.4 1.5 3.4 3.4V174c.1 2-1.5 3.5-3.4 3.5z" style="fill:#f9413f"/>
    <path d="M276.3 218.6h-21v-41.1h21c1.9 0 3.4 1.5 3.4 3.4v34.2c.1 1.9-1.5 3.5-3.4 3.5z" style="fill:#6bb1f7"/>
    <path class="st3" d="M265.8 268H20.4c-2.6 0-4.7-2.1-4.7-4.7V18c0-2.6 2.1-4.7 4.7-4.7h245.3c2.6 0 4.7 2.1 4.7 4.7v245.3c.1 2.6-2 4.7-4.6 4.7z"/>
    <linearGradient id="SVGID_1_" gradientUnits="userSpaceOnUse" x1="4.688" y1="36.868" x2="26.764" y2="36.868">
        <stop offset="0" style="stop-color:#fac367"/>
        <stop offset="1" style="stop-color:#d39a48"/>
    </linearGradient>
    <path d="M7.2 47.9h17c1.4 0 2.5-1.1 2.5-2.5v-17c0-1.4-1.1-2.5-2.5-2.5h-17c-1.4 0-2.5 1.1-2.5 2.5v17c0 1.4 1.1 2.5 2.5 2.5z" style="fill:url(#SVGID_1_)"/>
    <path class="st2" d="M23.5 25.8c1.8 0 3.3 1.5 3.3 3.3v15.5c0 1.8-1.5 3.3-3.3 3.3H8c-1.8 0-3.3-1.5-3.3-3.3V29.1c0-1.8 1.5-3.3 3.3-3.3h15.5m0-1.3H8c-2.5 0-4.6 2.1-4.6 4.6v15.5c0 2.5 2.1 4.6 4.6 4.6h15.5c2.5 0 4.6-2.1 4.6-4.6V29.1c0-2.5-2.1-4.6-4.6-4.6z"/>
    <linearGradient id="SVGID_00000060720847193748929090000012807000071671454098_" gradientUnits="userSpaceOnUse" x1="4.688" y1="136.434" x2="26.764" y2="136.434">
        <stop offset="0" style="stop-color:#fac367"/>
        <stop offset="1" style="stop-color:#d39a48"/>
    </linearGradient>
    <path style="fill:url(#SVGID_00000060720847193748929090000012807000071671454098_)" d="M7.2 147.5h17c1.4 0 2.5-1.1 2.5-2.5v-17c0-1.4-1.1-2.5-2.5-2.5h-17c-1.4 0-2.5 1.1-2.5 2.5v17c0 1.3 1.1 2.5 2.5 2.5z"/>
    <path class="st2" d="M23.5 125.4c1.8 0 3.3 1.5 3.3 3.3v15.5c0 1.8-1.5 3.3-3.3 3.3H8c-1.8 0-3.3-1.5-3.3-3.3v-15.5c0-1.8 1.5-3.3 3.3-3.3h15.5m0-1.3H8c-2.5 0-4.6 2.1-4.6 4.6v15.5c0 2.5 2.1 4.6 4.6 4.6h15.5c2.5 0 4.6-2.1 4.6-4.6v-15.5c0-2.5-2.1-4.6-4.6-4.6z"/>
    <linearGradient id="SVGID_00000082339623789583496100000010417499618273301389_" gradientUnits="userSpaceOnUse" x1="4.688" y1="236" x2="26.764" y2="236">
        <stop offset="0" style="stop-color:#fac367"/>
        <stop offset="1" style="stop-color:#d39a48"/>
    </linearGradient>
    <path style="fill:url(#SVGID_00000082339623789583496100000010417499618273301389_)" d="M7.2 247h17c1.4 0 2.5-1.1 2.5-2.5v-17c0-1.4-1.1-2.5-2.5-2.5h-17c-1.4 0-2.5 1.1-2.5 2.5v17c0 1.4 1.1 2.5 2.5 2.5z"/>
    <path class="st2" d="M23.5 225c1.8 0 3.3 1.5 3.3 3.3v15.5c0 1.8-1.5 3.3-3.3 3.3H8c-1.8 0-3.3-1.5-3.3-3.3v-15.5c0-1.8 1.5-3.3 3.3-3.3h15.5m0-1.4H8c-2.5 0-4.6 2.1-4.6 4.6v15.5c0 2.5 2.1 4.6 4.6 4.6h15.5c2.5 0 4.6-2.1 4.6-4.6v-15.5c0-2.5-2.1-4.6-4.6-4.6z"/>
    <path style="fill:#8da4ce" d="M40.4 37.9h205.5v205.5H40.4z"/>
    <linearGradient id="SVGID_00000137114818105546757300000004149165291804734375_" gradientUnits="userSpaceOnUse" x1="147.511" y1="286.006" x2="147.511" y2="307.966">
        <stop offset="0" style="stop-color:#fac367"/>
        <stop offset="1" style="stop-color:#d39a48"/>
    </linearGradient>
    <path style="fill:url(#SVGID_00000137114818105546757300000004149165291804734375_)" d="M49.4 308c-4.5 0-8.2-3.7-8.2-8.2v-5.5c0-4.5 3.7-8.2 8.2-8.2h196.2c4.5 0 8.2 3.7 8.2 8.2v5.5c0 4.5-3.7 8.2-8.2 8.2H49.4z"/>
    <path d="M245.6 286.5c4.3 0 7.7 3.5 7.7 7.7v5.5c0 4.3-3.5 7.7-7.7 7.7H49.4c-4.3 0-7.7-3.5-7.7-7.7v-5.5c0-4.3 3.5-7.7 7.7-7.7h196.2m0-1H49.4c-4.8 0-8.7 3.9-8.7 8.7v5.5c0 4.8 3.9 8.7 8.7 8.7h196.2c4.8 0 8.7-3.9 8.7-8.7v-5.5c.1-4.8-3.9-8.7-8.7-8.7z" style="fill:#d29946"/>
    <path d="M209.7 236.7c.6.6 1.4.9 2.3.9h13.9l-3-9c-.4-1-1.4-1.6-2.5-1.6-1.2 0-2.1.7-2.5 1.6l-1 2.9v-4.4H212c-.9 0-1.7.3-2.2.9v-.9h-5c-.9 0-1.8.4-2.4 1v-1h-4.7c-2 0-3.7 1.6-3.7 3.7 0 1 .4 1.8 1 2.5h-1.1v4.3h4.7c1.3 0 2.6-.8 3.1-1.8.5 1.1 1.6 1.8 2.9 1.8h5l.1-.9" style="fill:#fff"/>
    <path class="st3" d="M194.7 236.9h4c1.6 0 3-1.3 3-2.9 0-1.6-1.3-2.9-3-2.9h-1c-.1 0-.1-.1-.1-.1l.1-.1h4v-1.2h-4c-.8 0-1.4.6-1.4 1.4 0 .8.6 1.4 1.4 1.4h1c.9 0 1.7.8 1.7 1.7 0 .9-.8 1.7-1.7 1.7h-4v1"/>
    <path class="st3" d="M194.7 235.4h4c.8 0 1.4-.6 1.4-1.4 0-.8-.6-1.4-1.4-1.4h-1c-.9 0-1.7-.8-1.7-1.7 0-.9.8-1.7 1.7-1.7h4v-1.3h-4c-1.6 0-3 1.3-3 2.9s1.3 2.9 3 2.9h1c.1 0 .1.1.1.1 0 .1-.1.1-.1.1h-4v1.5M204.8 235.7c-.7 0-1.3-.6-1.3-1.3v-4c0-.7.6-1.2 1.3-1.2h4.3V228h-4.3c-1.4 0-2.5 1.1-2.5 2.5v4c0 1.4 1.1 2.5 2.5 2.5h4.2v-1.2l-4.2-.1"/>
    <path class="st3" d="M203.8 230.5c0-.5.4-1 1-1h4.3v1.3h-3.7c-.3 0-.3.3-.3.3h3.1v1.2h-4.3l-.1-1.8M204.8 235.4c-.5 0-1-.4-1-1v-1.8h4.3v1.2H205c0 .3.3.3.3.3h3.6v1.2l-4.1.1M212 235.7c-.7 0-1.3-.6-1.3-1.3v-4c0-.7.6-1.2 1.2-1.2h4.1V228h-4c-1.4 0-2.5 1.1-2.5 2.5v4c0 1.4 1.1 2.5 2.5 2.5h4.1v-6h-3.5v1.2h2.3v3.4H212"/>
    <path class="st3" d="M211 234.4c0 .5.4 1 1 1h2.6v-2.8h-2v1.2h.7v.3h-.7c-.2 0-.3-.1-.3-.3V231s0-.3.3-.3h3.5v-1.2H212c-.5 0-1 .4-1 1v3.9M220 229.5c.1-.2.2-.3.4-.3s.3.1.4.3l2 5.9h-2.9V234h1l-.4-1.3-1.4 4.2h-1.5l2.4-7.4"/>
    <path class="st3" d="M223.1 235.7h-3.3v1.2h5.1l-2.6-7.8c-.2-.8-1-1.3-1.9-1.3-.9 0-1.7.6-1.9 1.3l-2.7 7.8h1.3l2.6-7.6c.1-.3.4-.4.6-.4.3 0 .5.2.6.4l2.2 6.4"/>
</svg>
