<svg version="1.1" id="Layer_1" xmlns="http://www.w3.org/2000/svg" x="0" y="0" viewBox="0 0 101.6 84.5" style="enable-background:new 0 0 101.6 84.5" xml:space="preserve">
    <style>
        .st1{fill:#ef2525}.st2{fill:#fff}
    </style>
    <path d="M27.1 15.6c-.4 0-11.5 3.1-11.5 3.1l-3.5-4.2s-4-1-4.3-.9c-.4.1-4 3.7-4 3.7L2.9 23l.6 3.4S.9 29.5 1 34.2c0 4.7 1.6 10.1 1.6 10.1s-1.9 12 2.3 18.5c4.2 6.4 6.3 13 15.5 16.7 11.3 5 23.6 5.4 33.1 3.2 9.6-2.2 11.2-3.9 11.2-3.9l5.7-1.6s.4 1.5 2.2 2c3.2.9 12.3-2.3 14.6-8.5 2.3-6.2 1.9-10.5-2-11.7-4.8-3-8.8.4-8.8.4L74.5 46 52.3 17.8l-25.2-2.2z" style="fill:#f99931"/>
    <path d="M33.6 24s-1.5-7.3-9.9-7.7c-8.4-.4-12.5-6.6-12.5-6.6s4.7 3.7 11.2 3.4C20 11 18.9 6 18.9 6s4.3 6.6 9 5.7c.3-1.8-3-3.5-3-3.5s4.2.6 5.7 1.4c.1-2.3-3.7-4.8-3.7-4.8s6.6 1.4 7.9 4.2c.9-3.2-2.7-7.5-2.7-7.5s4.8 3.9 6.3 7.6c.7-1.8 0-5 0-5s1.8 2.3 2.2 4c1.2-3.7.6-8.1.6-8.1s1.5 3.5 2 7.4c2-1.7 2-5.4 2-5.4s.7 3.2.5 5c3.8-4.1 7.8-5 7.8-5s-3.3 3.2-4.7 5.5C56.4 4.2 60 4.3 60 4.3s-4.3 2.4-6.8 4.9c11.4-.3 14.1 3.7 14.1 3.7s-4.2-.7-8.7.5c10.1 1.4 17.2 7 17.2 7S70.9 18.1 66 18c8.7 2.4 14.7 8.7 14.7 8.7s-6-3.2-10.1-3.5c2.7 2.9 6.7 3.5 6.7 3.5s-2.8.6-5 0c3.1 4.1 8.5 3.1 8.5 3.1s-1.1 2.7-6.3 2.4c1.1 3.3 7.2 4.4 7.2 4.4s-2 1-6 0c1.6 3.3 7.6 4 7.6 4s-1.7.7-5.3 0c.4 3.6 6.6 3.1 6.6 3.1s-1.3 1.8-5.6 1.4c.4 3.5 5.6 4.4 5.6 4.4s-2.2 1.4-6.8 0c-.1 1.8 1.8 2.4 1.8 2.4s-4.5-.9-6-4.5c-.1 3.2-2.4 6.5-2.4 6.5s.8-8.4-3.1-13C68 45 67 48.7 67 48.7S65.6 37 59.8 32.9c2.2 6.8.7 10.9.7 10.9s-2.2-13.2-7.7-15.1c0 6.4 4.5 8.7 4.5 8.7s-3.5 3.1-7.9-5.8C45 22.6 40.6 19 33.6 24z"/>
    <path class="st1" d="M10.2 51.4S9.1 62 17.8 70c7.7 5.5 25.7 4.2 35.9.4-16-3.3-27.8-9.4-27.8-9.4s-11.4-5-15.7-9.6z"/>
    <path class="st2" d="M44.8 46.1C42 50.2 36 51 31.4 47.9c-4.7-3.1-6.7-8.9-4-13.1s8.9-5.7 13.9-1.8c4.4 3.5 6.2 9 3.5 13.1z"/>
    <path d="M35.1 30.8c2.1 0 4.2.7 6.2 2.2 4.4 3.5 6.2 8.9 3.5 13.1-1.6 2.4-4.4 3.7-7.3 3.7-2 0-4.2-.6-6.1-1.9-4.7-3.1-6.7-8.9-4-13.1 1.6-2.5 4.6-4 7.7-4m0-1.1c-3.4 0-6.7 1.7-8.6 4.5-3 4.4-1.1 11 4.3 14.5 2 1.3 4.3 2.1 6.6 2.1 3.4 0 6.4-1.5 8.2-4.2 2.9-4.4 1.4-10.5-3.7-14.5-2-1.5-4.4-2.4-6.8-2.4z"/>
    <path class="st2" d="M23.5 24.5c.9 3.4-.8 7.4-5.1 9.4-4.3 1.9-9 .9-10.4-2.3s.8-7.6 5.1-9.4c6.3-2.6 9.6-.9 10.4 2.3z"/>
    <path d="M18.5 20.9c2.9 0 4.5 1.4 5.1 3.5.9 3.4-.8 7.4-5.1 9.4-1.5.7-3 1-4.4 1-2.7 0-5.1-1.2-6-3.3-1.5-3.2.8-7.6 5.1-9.4 2-.8 3.8-1.2 5.3-1.2m0-1c-1.7 0-3.6.4-5.7 1.3-2.6 1-4.7 3-5.7 5.4-.7 1.8-.7 3.7 0 5.3 1.1 2.4 3.8 3.9 7 3.9 1.6 0 3.3-.4 4.8-1.1 4.5-2 6.8-6.4 5.7-10.6-.8-2.6-3-4.2-6.1-4.2z"/>
    <path d="M16.9 34.1c5.5 0 9.9 4.2 9.9 9.4S22.4 53 16.9 53 7 48.8 7 43.6s4.4-9.5 9.9-9.5m0-1c-6 0-10.9 4.7-10.9 10.5S10.9 54 16.9 54s10.9-4.7 10.9-10.5-4.9-10.4-10.9-10.4z"/>
    <ellipse class="st1" cx="16.9" cy="43.6" rx="9.9" ry="9.4"/>
    <circle cx="18.5" cy="28.2" r="3.9"/>
    <circle cx="37.2" cy="38.7" r="3.9"/>
    <path d="M65.8 65.2c1.9 1 2.8 3.5 1.9 5.5-.6 1.5-1.8 2.6-3.1 3.3-1.6.7-1.6.7-.4-.6 2.5-3 2.8-4.5 1.6-8.2z"/>
    <path d="M73.8 59c5.8 7.6 4.1 17-5.9 19.3-2.6.6-5.3.8-7.9.5 2.6-.4 5.1-.9 7.5-1.7 9.2-3.2 8.9-10.2 6.3-18.1zM2.6 26.2c0-.1-2.4-7.8 3.8-11.9 2.2-1.5 5.2-1.2 7.1.6 1.2 1.2 2.6 3.5 2.6 3.5l-.9.6s-1.4-2.2-2.5-3.4c-1.5-1.5-3.9-1.7-5.8-.5-5.5 3.7-3.5 10.5-3.4 10.7l-.9.4z"/>
    <path d="m76.2 63.6-1-.2c1.1-6.3-1-16.4-1.3-17.4l1-.3c0 .1 2.5 10.9 1.3 17.9zM10.1 51.2c.4 9.2 4.6 19.5 14.6 21.4 4.6 1.1 9.4 1.1 14.1.7s9.4-1.4 14-2.7l.1.2c-4.5 1.5-9.3 2.4-14 3-5.9.6-12.2.6-17.8-1.6-3.4-1.4-6.2-4-8.1-7.2-2.5-4.2-3.7-9-4-13.8h1.1z"/>
    <path d="M16.6 57s-1 3.2.6 5.5 2.5 3.5 4.6 3.4 3.9-.6 4.6-1.7.9-1.8.2-2.2c-.7-.4-9.8-5.4-10-5z" style="fill:#dd7c93"/>
    <path d="M22.6 66.5c-.5 0-1.1-.1-1.7-.2-5.6-1.2-5.1-9.9-5-10.3l1 .1c0 .1-.5 8.2 4.2 9.2s5.8-2.7 5.9-2.9l1 .3c-.1 0-1.2 3.8-5.4 3.8z"/>
    <path d="M22.3 59.7c-.8 1.1-1.4 2.5-1.6 3.8-.1-1.5.2-3 .7-4.3l.9.5z"/>
    <path d="M28.1 16C21.5 17.4 5.3 21.1 3 27.9.1 34.2 1.1 41.7 5.8 46.8c1.8 2 3.9 3.7 6.1 5.3 11.6 8.6 25.1 15 39.4 17.5 4.8.8 9.6 1.1 14.5.7-2.4.4-4.8.6-7.3.7-12.3 0-24.2-4.3-35-10-6.6-3.6-13-7.6-18.4-13-3.3-3.6-5.3-8.5-5-13.4.2-3.2 1-6.3 2.6-9C3.8 24 5.4 22.8 7 21.8c6.5-3.6 13.7-5.4 20.9-6.9l.2 1.1zM74.1 80c-1 0-1.8-.2-2.5-.7-1.4-1-1.5-2.7-1.5-2.7l1-.1s.1 1.2 1.1 1.9c.9.6 2.2.7 4 .2 5-1.3 8.8-4.5 11.3-9.5V69c.7-1.3 2.3-6.9-2.1-9.7-4.3-2.8-8.8 0-8.8 0l-.6-.8c.2-.1 5.1-3.1 9.9 0 5 3.2 3.2 9.6 2.5 11.1v.1c-2.6 5.3-6.7 8.6-11.9 10-1 .2-1.7.3-2.4.3z"/>
    <path d="M38.9 84.5c-17.7 0-27.5-10.9-27.6-11C-.5 62.3 2.1 43.6 2.1 43.4l1 .1c0 .2-2.5 18.4 8.9 29.2.1.1 9.6 10.7 26.9 10.7 16.5 0 23.7-3.5 25.4-5.5l.8.7c-.5.6-5.4 5.9-26.2 5.9z"/>
</svg>
