<svg xmlns="http://www.w3.org/2000/svg" xmlns:xlink="http://www.w3.org/1999/xlink" viewBox="0 0 746.51 822.18"><defs><radialGradient id="bd9ddd03-45d8-455c-b8b2-4e0378a6acae" cx="121.61" cy="382.1" r="5.66" gradientTransform="matrix(1 0 0 .6 0 152.84)" xlink:href="#f91c9629-2bea-4cc3-a883-8c1f6b848f10"/><radialGradient id="af9f1d90-1035-4dd1-91fc-87b9ca641b17" cx="217.55" cy="416.02" r="5.66" xlink:href="#eb24b113-e9a2-4f89-b7aa-acf26263f720"/><radialGradient id="b734afad-c700-4fe0-96b1-4850c1f0f28f" cx="195.83" cy="370.99" r="11.47" xlink:href="#eb24b113-e9a2-4f89-b7aa-acf26263f720"/><radialGradient id="f91c9629-2bea-4cc3-a883-8c1f6b848f10" cx="92.36" cy="393.88" r="5.66" gradientTransform="matrix(1 0 0 .6 0 157.55)" gradientUnits="userSpaceOnUse"><stop offset="0" stop-color="#0000ef"/><stop offset=".15" stop-color="#0000e9"/><stop offset=".34" stop-color="#0101d9"/><stop offset=".56" stop-color="#0101be"/><stop offset=".79" stop-color="#02029a"/><stop offset="1" stop-color="#020282"/></radialGradient><radialGradient id="b3527095-9023-4ec8-b8c8-8d2d34dd8e63" cx="114.61" cy="393.88" r="5.66" xlink:href="#f91c9629-2bea-4cc3-a883-8c1f6b848f10"/><radialGradient id="b40bea88-673a-452d-b87d-8c4410c00933" cx="133.17" cy="400.04" r="5.66" gradientTransform="matrix(1 0 0 .6 0 160.02)" xlink:href="#f91c9629-2bea-4cc3-a883-8c1f6b848f10"/><radialGradient id="e67c73d2-c918-469e-b4a1-e2de62d65ed5" cx="139.21" cy="387.78" r="5.66" gradientTransform="matrix(1 0 0 .6 0 155.11)" xlink:href="#f91c9629-2bea-4cc3-a883-8c1f6b848f10"/><radialGradient id="eb24b113-e9a2-4f89-b7aa-acf26263f720" cx="65.88" cy="348.77" r="11.47" gradientUnits="userSpaceOnUse"><stop offset="0" stop-color="#fd6d66"/><stop offset=".78" stop-color="#b50a03"/></radialGradient><radialGradient id="b6fe5ae4-628b-46f8-b295-58559681754e" cx="100.32" cy="382.53" r="5.66" gradientTransform="matrix(1 0 0 .6 0 153.01)" xlink:href="#f91c9629-2bea-4cc3-a883-8c1f6b848f10"/><radialGradient id="a06e3064-3feb-4739-b75d-4a43cc8d9c22" cx="225.51" cy="404.67" r="5.66" xlink:href="#eb24b113-e9a2-4f89-b7aa-acf26263f720"/><radialGradient id="f84f29d4-fed3-486b-8cc2-183a5e77c707" cx="246.79" cy="404.24" r="5.66" xlink:href="#eb24b113-e9a2-4f89-b7aa-acf26263f720"/><radialGradient id="ab9c3598-9866-49bd-bf80-3d964259de4e" cx="264.4" cy="409.93" r="5.66" xlink:href="#eb24b113-e9a2-4f89-b7aa-acf26263f720"/><radialGradient id="bf396fa6-0602-4256-8428-a8b0f88d5f98" cx="258.36" cy="422.19" r="5.66" xlink:href="#eb24b113-e9a2-4f89-b7aa-acf26263f720"/><radialGradient id="b13be3db-57ea-41ad-8168-e290bf713ddb" cx="239.79" cy="416.02" r="5.66" xlink:href="#eb24b113-e9a2-4f89-b7aa-acf26263f720"/><style>.f19b4bba-da9d-4f13-8f49-9a0fda13fbeb{fill:#373735}.be9f4e80-0bec-4d43-9f9a-89a6e5658d96{fill:#121211}.a34dfe1b-a98b-4a79-a231-0639ab4c6c21,.a78de654-4102-4182-86d3-f85f754bd6f0,.be9f4e80-0bec-4d43-9f9a-89a6e5658d96,.bfcc5f4d-e203-445b-ba6a-f5ae51fa7e70,.f7c72431-51da-48a0-a275-0c436e380ec3{stroke:#b5b5b5}.a34dfe1b-a98b-4a79-a231-0639ab4c6c21,.a78de654-4102-4182-86d3-f85f754bd6f0,.b0a7c307-20ab-445b-a84d-72514a3c5d12,.b1ce67b7-3a68-45cd-b050-e0ad927961bd,.be9f4e80-0bec-4d43-9f9a-89a6e5658d96,.bfcc5f4d-e203-445b-ba6a-f5ae51fa7e70,.e86e9f58-7dd0-4913-8e0d-e9cb50b6c809,.f7c72431-51da-48a0-a275-0c436e380ec3{stroke-miterlimit:10}.a34dfe1b-a98b-4a79-a231-0639ab4c6c21,.a78de654-4102-4182-86d3-f85f754bd6f0,.b1ce67b7-3a68-45cd-b050-e0ad927961bd,.be9f4e80-0bec-4d43-9f9a-89a6e5658d96,.bfcc5f4d-e203-445b-ba6a-f5ae51fa7e70,.f7c72431-51da-48a0-a275-0c436e380ec3{stroke-width:.5px}.e86e9f58-7dd0-4913-8e0d-e9cb50b6c809{fill:#443840}.b1ce67b7-3a68-45cd-b050-e0ad927961bd,.e86e9f58-7dd0-4913-8e0d-e9cb50b6c809{stroke:#090000}.e86e9f58-7dd0-4913-8e0d-e9cb50b6c809{stroke-width:.75px}.b1ce67b7-3a68-45cd-b050-e0ad927961bd{fill:#6b0c05}.effda6d0-9e12-458c-81a3-a56fc2e0dba6{fill:#86382f}.b0a7c307-20ab-445b-a84d-72514a3c5d12{stroke:#373737}.b93a4d4a-3736-4117-96c6-22cf53e3942d{fill:#00419c}.a34dfe1b-a98b-4a79-a231-0639ab4c6c21{fill:#dc6e05}.a18ec2db-264b-456d-bcc0-d05fa992eeb3{fill:#fff}.bfcc5f4d-e203-445b-ba6a-f5ae51fa7e70{fill:#12e600}.f7c72431-51da-48a0-a275-0c436e380ec3{fill:#0b47ce}.a78de654-4102-4182-86d3-f85f754bd6f0,.bbd65d7d-c9a1-42ac-8f8f-9f3439cfa3eb{fill:#282826}.e980afdd-c39a-4e69-895d-b4c501f27ac2{fill:#ae7a82}.bbb63e25-b56f-496a-9626-e397d4201b20{fill:url(#eb24b113-e9a2-4f89-b7aa-acf26263f720)}.a7fa5bfe-3cb9-466f-90a8-65c85fee1143{fill:url(#b734afad-c700-4fe0-96b1-4850c1f0f28f)}.ab077c05-af41-4aa9-97f9-61539b08c498{fill:#0000ef}.efeb3a44-f735-4432-9444-972267943ab1{fill:#930303}.be7bf8c4-5f78-42be-8993-7d5ad6e6b9d7{fill:#e7e7e7}.adedaeb6-59bc-47b2-b43b-9f8e5acb94b5{fill:#2c2b29}.bbf79453-7ea5-4aaf-b3fc-6336e136b174{fill:#0c4da1}</style></defs><g id="b717894c-74b5-4b78-8591-bfe0f42f1cf5" data-name="Calque 1"><path id="bbe71d48-c854-48f7-957e-9b2076100c48" data-name="ombre" style="opacity:.5;fill:#373735" d="m452.03 588.79 21.51-5.91H485.41l1.58 2.96 237.36 43.3h11.08l11.07 31.39-46.41 37.71-46.42 13.19-8.18-1.32.27-1.85-13.98-2.63-83.6 27.95-73.32 51.57-22.83 6.82-7.77-1.16v-2.63l-16.08-3.03-129.99 34.37 153.84-230.73z"/><g id="b979319e-826c-4583-8a4d-9de496dd8e00" data-name="bottom"><path class="f19b4bba-da9d-4f13-8f49-9a0fda13fbeb" d="m36 454.56 224.9 39.62v4.35l25.72 6.13-.4 311.34-248.24-47.27L36 454.56z"/><path class="be9f4e80-0bec-4d43-9f9a-89a6e5658d96" d="m202 526.54-78.38-13.74c-3 .19-4.26 3.56-4.26 3.56l.2 85c.69 2.18 3.86 5 3.86 5l74.27 13.46c5.14.49 7.52-5.25 7.52-5.25v-82.69a7.12 7.12 0 0 0-3.21-5.34zm-49.9 22.55-18.69-3.46v-20l2.27-1.88 18.1 3.07-1.78 2.69zm31.45 6.13-18.69-3.46v-20l2.27-1.87 18.1 3.06-1.78 2.67z" transform="translate(-.98 -.52)"/><path class="e86e9f58-7dd0-4913-8e0d-e9cb50b6c809" d="m134.7 523.25-2.27 1.88v19.98l18.69 3.46-.1-19.58 1.78-2.67-18.1-3.07zM166.15 529.38l-2.27 1.88v19.98l18.69 3.46-.1-19.58 1.78-2.67-18.1-3.07z"/><path class="b1ce67b7-3a68-45cd-b050-e0ad927961bd" d="M140.14 543.03v-12.85l8.01 1.78v12.56l-8.01-1.49zM171.2 548.87v-12.86l8.01 1.78v12.56l-8.01-1.48z"/><path d="M135.23 543.16v-15.23l2.05.4v15.16l-2.05-.33zM166.68 548.7v-15.23l2.04.4v15.16l-2.04-.33z"/><path class="effda6d0-9e12-458c-81a3-a56fc2e0dba6" d="M140.4 530.69v-.35l7.47 1.8.01.43-7.48-1.88zM171.46 536.62v-.29l7.47 1.64.01.35-7.48-1.7z"/><circle cx="192.4" cy="574.85" r="4.25" style="fill:#8b8b8b;stroke-width:.75px;stroke:#090000;stroke-miterlimit:10"/><path class="b0a7c307-20ab-445b-a84d-72514a3c5d12" d="M136.29 598.71v-11.27l11.96 2.18v11.3l-11.96-2.21zM167.54 604.25v-11.27l11.96 2.17v10.88l-11.96-1.78z"/></g><g id="a28d13aa-a618-4b8d-b67b-3494215b9172" data-name="t molding"><path class="b93a4d4a-3736-4117-96c6-22cf53e3942d" d="m11.46 450.59-.79-39.76L1 407.66v45.1l27.89 5.54c.59 103.55 1 207.6 1.58 311.15a6.18 6.18 0 0 0 3.53 2.19 12.58 12.58 0 0 0 5 0l-2-316.56zM272.36 497v-41.27l-10.28-1.19-.2 44.51 25.71 6.13s-1.51 313.85 0 315.69 8.77 1.32 8.77 1.32l.93-319.91z" transform="translate(-.98 -.52)"/><path class="b93a4d4a-3736-4117-96c6-22cf53e3942d" d="m78.72 346.42-8.15-1.3 16.26-218.56 9.04 1.5-17.15 218.36zM329.24 388.85l9.1 1.28 18.49-224.31h-26.37l-.26-90.92-10.06-1.84v94.84l6.04 1.09h20.27l-17.21 219.86z"/><path class="b93a4d4a-3736-4117-96c6-22cf53e3942d" d="M88.49 127.19s-28.17-.35-29.11-.85c0-31.21.06-62.83 0-94l9.36 2.64.48 89.02z" transform="translate(-.98 -.52)"/><g id="f3390cf3-8a7c-4622-a627-a4a5e0a0d3fc" data-name="clair"><path class="b93a4d4a-3736-4117-96c6-22cf53e3942d" d="m0 407.14 9.69 3.17L78 346.25l-8.11-1.94L0 407.14zM261.1 454.02l10.28 1.19 66.96-65.87-8.62-1.6-68.62 66.28zM111.56 0 58.42 31.78l9.36 2.64L120.36 3.3l2.74-1.62-2.57-.36L111.56 0zM383.74 40.62l-11.21-.8-52.39 33.24 10.06 1.84 53.54-34.28z"/></g></g><g id="ab233418-6b16-441e-95c9-b962c17b33f8" data-name="side"><path class="be9f4e80-0bec-4d43-9f9a-89a6e5658d96" d="m453.13 308.64.63-159.63-70.02-108.39L330.2 74.9l.26 90.92h26.37l-18.49 224.31-66.96 65.08v41.27l24.93 5.28-.93 319.91 8.25-6.32 149.65-543.7-.21 21.51-142.1 516.55-1.61 1.24 6.94-5.32 136.83-496.99zM324.06 799.15l-7.76 6.48 11.99-9.2 124.7-453.24.05-12.13-128.98 468.09zM335.43 790.95l-1.32 1.02 6.87-5.27 111.79-407.64v21.25l.22-57.12-.22 24-117.34 423.76zM343 785.15l108.58-83.28 1.18-299.85L347.4 781.78l-4.4 3.37z"/><path style="fill:#bf0000;stroke-width:.5px;stroke-miterlimit:10;stroke:#b5b5b5" d="m303.63 815.35 5.73-4.4-5.73 4.4z"/><path class="b93a4d4a-3736-4117-96c6-22cf53e3942d" d="m453.07 293.16.21-21.51-149.65 543.7 5.73-4.4 1.61-1.24 142.1-516.55z"/><path class="a34dfe1b-a98b-4a79-a231-0639ab4c6c21" d="M453.13 330.74v-22.1l-.09 22.42.09-.32zM316.3 805.63z"/><path class="a18ec2db-264b-456d-bcc0-d05fa992eeb3" d="m453.04 331.06.09-22.42L316.3 805.63l7.76-6.48 128.98-468.09z"/><path class="bfcc5f4d-e203-445b-ba6a-f5ae51fa7e70" d="M452.99 343.19zM328.29 796.43l5.82-4.46-5.82 4.46z"/><path style="fill:#ffcb08" d="m334.11 791.97 1.32-1.02 117.34-423.76.22-24-124.7 453.24 5.82-4.46z"/><path class="f7c72431-51da-48a0-a275-0c436e380ec3" d="m340.98 786.7 2.02-1.55-2.02 1.55zM452.77 402v-1.69l-.01 1.71.01-.02z"/><path d="m340.98 786.7 2.02-1.55 4.4-3.37 105.36-379.76.01-1.71v-21.25L340.98 786.7z"/></g><g id="bfb7bc7e-840d-478d-81b5-2c648402abcd" data-name="panel"><path class="a78de654-4102-4182-86d3-f85f754bd6f0" d="m10.48 450.07 250.42 44.11.2-40.16L9.69 410.31l.79 39.76z"/><path class="f19b4bba-da9d-4f13-8f49-9a0fda13fbeb" d="m79.37 345.21-69.68 65.1 251.41 43.71 68.62-66.28-250.35-42.53z"/></g><g id="a1a0717a-b367-474c-be25-848cf8c8aeb4" data-name="ecran"><path class="a78de654-4102-4182-86d3-f85f754bd6f0" d="M96.84 129.36 79.7 347.72l250.52 42.43L347.82 168zm224.28 67.76c0 .2-.29.32-.48.49l-10.43 144.83a35.43 35.43 0 0 1-4.3 3.78l1.4.29v10.7s-1.4 4.75-11.08 2.64c-11.19-2.44-178.55-31.91-178.55-31.91l8.72-6.78v-1.39s-2.46.52-6-7l-12.48 2.77h-4l11.34-158.77s4-6.85 10.81-6.59 191.16 30.59 191.16 30.59 6.17 1.07 3.89 16.35z" transform="translate(-.98 -.52)"/><path d="M317.28 180S133 149.66 126.12 149.4s-10.81 6.6-10.81 6.6l-11.74 160.08h4.35l12.29-2.68c-.1-.23-.74-1.57-.85-1.8L131 166.54s2.11-5.54 7.12-7.38l177.49 27.16a20.77 20.77 0 0 1 5.11 9.76l-.05.75c.19-.17.62.66.66.47 3.23-14.06-4.05-17.3-4.05-17.3z" transform="translate(-.98 -.52)" style="fill:#151312"/><path d="m125.32 320-8.56 8s164.63 29.3 178.61 32.24c10.36 2.17 14.43-3.58 14.43-3.58l.61-7.37.39-7.71-4.89 3.84a20.85 20.85 0 0 1-7.73 3.87z" transform="translate(-.98 -.52)" style="fill:#555353"/><path d="M319.5 197.81c.45-.36.83-.69 1.14-1l.66-.52a20.31 20.31 0 0 0-5.72-10l-177.49-27.13c-5 1.84-7.12 7.38-7.12 7.38L119.36 311.6l.32.66c3.54 7.52 6.28 8 6.28 8l.44.08 171.78 28.93a20.85 20.85 0 0 0 7.73-3.87c2.57-1.91 4.89-3.84 4.89-3.84l10.5-145.29c-.44.46-1.05.96-1.8 1.54zM143.83 302.35z" transform="translate(-.98 -.52)" style="fill:#008aa6"/></g><g id="fe9d4f44-f611-4af5-b8ed-87d27a0ef786" data-name="top"><path id="e242a56b-4b70-4e6b-b7b8-53d7b48acd89" data-name="marquee" class="a78de654-4102-4182-86d3-f85f754bd6f0" d="m68.24 123.5 251.47 39.03.43-89.47L67.78 34.42l.46 89.08z"/><path style="stroke-miterlimit:10;stroke:#b5b5b5;fill:#373735" d="m128.84 2.64-5.74-.96-55.32 32.74 252.36 38.64 52.39-33.24L128.84 2.64z"/></g><g id="aed9d6c5-a275-41bb-b506-dfa3b2bb697e" data-name="stickp1"><path class="bbd65d7d-c9a1-42ac-8f8f-9f3439cfa3eb" d="M68.92 377.27v5.16H62.4v-5.16c-5.06.64-8.77 2.7-8.77 5.16 0 3 5.38 5.35 12 5.35s12-2.39 12-5.35c.06-2.43-3.63-4.52-8.71-5.16z" transform="translate(-.98 -.52)"/><path class="e980afdd-c39a-4e69-895d-b4c501f27ac2" d="M68.92 377.27v-17.78a12.18 12.18 0 0 1-3 .39 12.4 12.4 0 0 1-3.48-.49v17.88a26.67 26.67 0 0 1 6.52 0z" transform="translate(-.98 -.52)"/><path class="e980afdd-c39a-4e69-895d-b4c501f27ac2" d="M68.92 382.43v-5.16a26.67 26.67 0 0 0-6.52 0v5.16z" transform="translate(-.98 -.52)"/><path class="bbb63e25-b56f-496a-9626-e397d4201b20" d="M68.92 358.89v.6a11.24 11.24 0 0 0 8.77-10.72c0-6.14-5.29-11.11-11.81-11.11s-11.82 5-11.82 11.11a11.22 11.22 0 0 0 8.34 10.62v-.5z" transform="translate(-.98 -.52)"/><path class="e980afdd-c39a-4e69-895d-b4c501f27ac2" d="M68.92 359.49v-.6H62.4v.5a12.4 12.4 0 0 0 3.48.49 12.18 12.18 0 0 0 3.04-.39z" transform="translate(-.98 -.52)"/><path class="bbb63e25-b56f-496a-9626-e397d4201b20" d="M68.92 359.49v-.6H62.4v.5a12.4 12.4 0 0 0 3.48.49 12.18 12.18 0 0 0 3.04-.39z" transform="translate(-.98 -.52)"/></g><g id="ae05a268-ef52-4f28-a334-36b53781236e" data-name="stickp2"><path class="bbd65d7d-c9a1-42ac-8f8f-9f3439cfa3eb" d="M198.88 399.49v5.16h-6.53v-5.16c-5 .64-8.77 2.7-8.77 5.16 0 3 5.39 5.35 12 5.35s12-2.39 12-5.35c.07-2.46-3.64-4.52-8.7-5.16z" transform="translate(-.98 -.52)"/><path class="e980afdd-c39a-4e69-895d-b4c501f27ac2" d="M198.88 399.49v-17.78a12.2 12.2 0 0 1-3 .39 12.83 12.83 0 0 1-3.48-.49v17.88a26.75 26.75 0 0 1 6.53 0z" transform="translate(-.98 -.52)"/><path class="e980afdd-c39a-4e69-895d-b4c501f27ac2" d="M198.88 404.65v-5.16a26.75 26.75 0 0 0-6.53 0v5.16z" transform="translate(-.98 -.52)"/><path class="a7fa5bfe-3cb9-466f-90a8-65c85fee1143" d="M198.88 381.11v.6a11.24 11.24 0 0 0 8.77-10.71c0-6.14-5.29-11.11-11.82-11.11S184 364.85 184 371a11.22 11.22 0 0 0 8.34 10.62v-.5z" transform="translate(-.98 -.52)"/><path class="e980afdd-c39a-4e69-895d-b4c501f27ac2" d="M198.88 381.71v-.6h-6.53v.5a12.83 12.83 0 0 0 3.48.49 12.2 12.2 0 0 0 3.05-.39z" transform="translate(-.98 -.52)"/><path class="a7fa5bfe-3cb9-466f-90a8-65c85fee1143" d="M198.88 381.71v-.6h-6.53v.5a12.83 12.83 0 0 0 3.48.49 12.2 12.2 0 0 0 3.05-.39z" transform="translate(-.98 -.52)"/></g><g id="a79d5070-7b21-40ba-b774-542916a866c3" data-name="boutons P1"><g id="a701efb4-f4fc-419b-9c62-b8b5cbdd0b7a" data-name="4"><path class="ab077c05-af41-4aa9-97f9-61539b08c498" d="M92.54 389.14c-3.86 0-8.12 1.53-8.12 4.87 0 2.95 4.1 4.62 7.94 4.62 4.11 0 8-1.73 8-4.88-.04-2.35-3.88-4.61-7.82-4.61zm-.18 8.63c-3.86 0-7-1.74-7-3.89s3.13-3.89 7-3.89 7 1.74 7 3.89-3.14 3.89-7 3.89z" transform="translate(-.98 -.52)"/><path d="M92.36 390c-3.86 0-7 1.74-7 3.89s3.13 3.89 7 3.89 7-1.74 7-3.89-3.14-3.89-7-3.89z" transform="translate(-.98 -.52)" style="fill:url(#f91c9629-2bea-4cc3-a883-8c1f6b848f10)"/></g><g id="b7aace68-dbb2-46d6-8cff-aa0865c3f087" data-name="5"><path class="ab077c05-af41-4aa9-97f9-61539b08c498" d="M114.79 389.14c-3.86 0-8.12 1.53-8.12 4.87 0 2.95 4.1 4.62 7.94 4.62 4.11 0 8-1.73 8-4.88-.04-2.35-3.88-4.61-7.82-4.61zm-.18 8.63c-3.86 0-7-1.74-7-3.89s3.13-3.89 7-3.89 7 1.74 7 3.89-3.14 3.89-7 3.89z" transform="translate(-.98 -.52)"/><path d="M114.61 390c-3.86 0-7 1.74-7 3.89s3.13 3.89 7 3.89 7-1.74 7-3.89-3.14-3.89-7-3.89z" transform="translate(-.98 -.52)" style="fill:url(#b3527095-9023-4ec8-b8c8-8d2d34dd8e63)"/></g><g id="f5c47cd6-4435-42ba-821e-b24df1bc9bd5" data-name="6"><path class="ab077c05-af41-4aa9-97f9-61539b08c498" d="M133.35 395.3c-3.86 0-8.13 1.53-8.13 4.87 0 3 4.11 4.62 7.95 4.62 4.1 0 8-1.73 8-4.88-.04-2.35-3.88-4.61-7.82-4.61zm-.18 8.63c-3.86 0-7-1.74-7-3.89s3.13-3.89 7-3.89 7 1.74 7 3.89-3.17 3.89-7 3.89z" transform="translate(-.98 -.52)"/><path d="M133.17 396.15c-3.86 0-7 1.74-7 3.89s3.13 3.89 7 3.89 7-1.74 7-3.89-3.17-3.89-7-3.89z" transform="translate(-.98 -.52)" style="fill:url(#b40bea88-673a-452d-b87d-8c4410c00933)"/></g><g id="b39e9d98-9b7d-43c1-8234-a3b1da6ccc4a" data-name="3"><path class="ab077c05-af41-4aa9-97f9-61539b08c498" d="M139.39 383c-3.86 0-8.13 1.53-8.13 4.88 0 2.95 4.11 4.61 8 4.61 4.1 0 8-1.73 8-4.88-.09-2.31-3.93-4.61-7.87-4.61zm-.18 8.63c-3.86 0-7-1.74-7-3.89s3.13-3.89 7-3.89 7 1.75 7 3.89-3.14 3.93-7 3.93z" transform="translate(-.98 -.52)"/><path d="M139.21 383.89c-3.86 0-7 1.75-7 3.89s3.13 3.89 7 3.89 7-1.74 7-3.89-3.14-3.89-7-3.89z" transform="translate(-.98 -.52)" style="fill:url(#e67c73d2-c918-469e-b4a1-e2de62d65ed5)"/></g><g id="b5da2941-68d0-46e9-9ee4-cd0e221b3888" data-name="2"><path class="ab077c05-af41-4aa9-97f9-61539b08c498" d="M121.79 377.35c-3.86 0-8.12 1.53-8.12 4.88 0 2.95 4.1 4.61 7.94 4.61 4.11 0 8-1.73 8-4.88-.04-2.34-3.88-4.61-7.82-4.61zm-.18 8.64c-3.86 0-7-1.74-7-3.89s3.13-3.89 7-3.89 7 1.74 7 3.89-3.14 3.9-7 3.9z" transform="translate(-.98 -.52)"/><path d="M121.61 378.21c-3.86 0-7 1.74-7 3.89s3.13 3.89 7 3.89 7-1.74 7-3.89-3.14-3.89-7-3.89z" transform="translate(-.98 -.52)" style="fill:url(#bd9ddd03-45d8-455c-b8b2-4e0378a6acae)"/></g><g id="b4e71478-7ddc-410b-baed-79a25618be55" data-name="1"><path class="ab077c05-af41-4aa9-97f9-61539b08c498" d="M100.5 377.78c-3.86 0-8.13 1.53-8.13 4.88 0 2.95 4.11 4.62 7.95 4.62 4.1 0 8-1.73 8-4.88-.04-2.35-3.88-4.62-7.82-4.62zm-.18 8.64c-3.86 0-7-1.74-7-3.89s3.13-3.89 7-3.89 7 1.74 7 3.89-3.14 3.89-7 3.89z" transform="translate(-.98 -.52)"/><path d="M100.32 378.64c-3.86 0-7 1.74-7 3.89s3.13 3.89 7 3.89 7-1.74 7-3.89-3.14-3.89-7-3.89z" transform="translate(-.98 -.52)" style="fill:url(#b6fe5ae4-628b-46f8-b295-58559681754e)"/></g></g><g id="f0b9d6a0-24a4-42e3-aff6-4cd4c14f34d0" data-name="boutons P2"><g id="abbe4174-b24f-465a-815e-4a2283ea1b5c" data-name="1"><path class="efeb3a44-f735-4432-9444-972267943ab1" d="M225.69 399.93c-3.86 0-8.13 1.53-8.13 4.87 0 2.95 4.11 4.62 7.95 4.62 4.1 0 8-1.73 8-4.88-.04-2.35-3.88-4.61-7.82-4.61zm-.18 8.63c-3.86 0-7-1.74-7-3.89s3.13-3.89 7-3.89 7 1.74 7 3.89-3.14 3.89-7 3.89z" transform="translate(-.98 -.52)"/><path d="M225.51 400.78c-3.86 0-7 1.74-7 3.89s3.13 3.89 7 3.89 7-1.74 7-3.89-3.14-3.89-7-3.89z" transform="translate(-.98 -.52)" style="fill:url(#a06e3064-3feb-4739-b75d-4a43cc8d9c22)"/></g><g id="acb85ea7-1a3c-4fd8-a832-6a54cb6a3fec" data-name="2"><path class="efeb3a44-f735-4432-9444-972267943ab1" d="M247 399.49c-3.86 0-8.13 1.54-8.13 4.88 0 2.95 4.11 4.62 7.95 4.62 4.1 0 8-1.73 8-4.88-.07-2.35-3.91-4.62-7.82-4.62zm-.18 8.64c-3.86 0-7-1.74-7-3.89s3.13-3.89 7-3.89 7 1.74 7 3.89-3.17 3.89-7.03 3.89z" transform="translate(-.98 -.52)"/><path d="M246.79 400.35c-3.86 0-7 1.74-7 3.89s3.13 3.89 7 3.89 7-1.74 7-3.89-3.14-3.89-7-3.89z" transform="translate(-.98 -.52)" style="fill:url(#f84f29d4-fed3-486b-8cc2-183a5e77c707)"/></g><g id="b779b176-32af-477b-ae2e-bf0ffdeeecc4" data-name="3"><path class="efeb3a44-f735-4432-9444-972267943ab1" d="M264.58 405.18c-3.86 0-8.12 1.53-8.12 4.88 0 2.95 4.1 4.61 7.94 4.61 4.1 0 8-1.73 8-4.88-.04-2.35-3.88-4.61-7.82-4.61zm-.18 8.64c-3.86 0-7-1.75-7-3.89s3.13-3.89 7-3.89 7 1.74 7 3.89-3.14 3.89-7 3.89z" transform="translate(-.98 -.52)"/><path d="M264.4 406c-3.86 0-7 1.74-7 3.89s3.13 3.89 7 3.89 7-1.75 7-3.89-3.14-3.89-7-3.89z" transform="translate(-.98 -.52)" style="fill:url(#ab9c3598-9866-49bd-bf80-3d964259de4e)"/></g><g id="ae868578-ba2a-44b9-a01c-56049948e3ea" data-name="4"><path class="efeb3a44-f735-4432-9444-972267943ab1" d="M258.54 417.44c-3.86 0-8.13 1.53-8.13 4.88 0 2.95 4.11 4.61 8 4.61 4.1 0 8-1.73 8-4.88-.09-2.35-3.93-4.61-7.87-4.61zm-.18 8.64c-3.86 0-7-1.75-7-3.89s3.13-3.89 7-3.89 7 1.74 7 3.89-3.14 3.89-7 3.89z" transform="translate(-.98 -.52)"/><path d="M258.36 418.3c-3.86 0-7 1.74-7 3.89s3.13 3.89 7 3.89 7-1.75 7-3.89-3.14-3.89-7-3.89z" transform="translate(-.98 -.52)" style="fill:url(#bf396fa6-0602-4256-8428-a8b0f88d5f98)"/></g><g id="f252b763-6ba0-4321-9bb2-2d8410fa3bbf" data-name="5"><path class="efeb3a44-f735-4432-9444-972267943ab1" d="M240 411.28c-3.86 0-8.13 1.53-8.13 4.88 0 2.95 4.11 4.61 7.95 4.61 4.1 0 8-1.73 8-4.88-.07-2.35-3.91-4.61-7.82-4.61zm-.18 8.63c-3.86 0-7-1.74-7-3.89s3.13-3.89 7-3.89 7 1.75 7 3.89-3.17 3.89-7.03 3.89z" transform="translate(-.98 -.52)"/><path d="M239.79 412.13c-3.86 0-7 1.75-7 3.89s3.13 3.89 7 3.89 7-1.74 7-3.89-3.14-3.89-7-3.89z" transform="translate(-.98 -.52)" style="fill:url(#b13be3db-57ea-41ad-8168-e290bf713ddb)"/></g><g id="fe2e3b5d-7cbe-4054-839b-92ccbfd9c4bb" data-name="6"><path class="efeb3a44-f735-4432-9444-972267943ab1" d="M217.73 411.28c-3.86 0-8.13 1.53-8.13 4.88 0 2.95 4.11 4.61 8 4.61 4.1 0 8-1.73 8-4.88-.09-2.35-3.93-4.61-7.87-4.61zm-.18 8.63c-3.86 0-7-1.74-7-3.89s3.13-3.89 7-3.89 7 1.75 7 3.89-3.14 3.89-7 3.89z" transform="translate(-.98 -.52)"/><path d="M217.55 412.13c-3.86 0-7 1.75-7 3.89s3.13 3.89 7 3.89 7-1.74 7-3.89-3.14-3.89-7-3.89z" transform="translate(-.98 -.52)" style="fill:url(#af9f1d90-1035-4dd1-91fc-87b9ca641b17)"/></g></g><path class="be7bf8c4-5f78-42be-8993-7d5ad6e6b9d7" d="M228.57 237.19v.07l-5.92-1v-.08zM236.56 238.53a.13.13 0 0 0 0 .06l-5.72-1v-.06z" transform="translate(-.98 -.52)"/><path class="adedaeb6-59bc-47b2-b43b-9f8e5acb94b5" d="m210.17 273.38-65.56-11c-.87-.14-.87-.14-.74-.92.25-1.54.47-3.08.75-4.61.78-4.31 1.48-8.63 2.22-12.95.09-.48.22-1 .29-1.44 0-.18.12-.23.31-.19l.75.13 119.31 19.98a16.13 16.13 0 0 1 4.69 1.42 11.54 11.54 0 0 1 5.67 5.9 8.36 8.36 0 0 1 .63 3.88c0 .38-.08.76-.15 1.14l-1.56 9.36c-.07.39-.13.42-.54.36l-40.11-6.72zm14.68-7.7c-.4 2.35-.79 4.71-1.19 7.07 0 .23 0 .34.3.38 1 .15 1.95.32 2.93.49.51.09.51.09.59-.37q.69-4.22 1.4-8.43c0-.08 0-.21.12-.22s.13.1.17.17c1.69 3.14 3.43 6.26 5.06 9.42a2.38 2.38 0 0 0 3.55.6c.9-.94 1.91-1.79 2.87-2.68l4.89-4.53c.08-.07.15-.22.26-.17s0 .2 0 .31v.12c-.47 2.79-.93 5.58-1.4 8.37 0 .25 0 .35.31.4 1 .16 2 .32 3.06.51.34.07.45 0 .49-.32l2.32-13.83a1.32 1.32 0 0 0-.25-1 2.34 2.34 0 0 0-3.26-.37l-2.16 2-8.12 7.4c-.25.23-.28.22-.45-.08-2.2-4.06-4.42-8.11-6.61-12.17a2.14 2.14 0 0 0-1.43-1.06A1.74 1.74 0 0 0 226 259zm-4.51-.71c.38-2.31.76-4.61 1.16-6.92a1.32 1.32 0 0 0-.45-1.21 2.4 2.4 0 0 0-3.17 0c-2.39 2.24-4.82 4.43-7.24 6.63l-2.95 2.7c-.13.12-.23.25-.37 0l-3.44-6.31c-1.1-2-2.19-4-3.3-6a2.24 2.24 0 0 0-2.21-1 1.52 1.52 0 0 0-1.5 1.37q-1.16 6.86-2.3 13.71c0 .28.05.37.35.41 1 .15 2 .32 3 .5.44.07.45.08.51-.3.46-2.73.91-5.46 1.37-8.19 0-.13 0-.27.06-.4s0-.16.11-.17.1.08.13.14.18.34.28.51c1.63 3 3.29 6 4.88 9.07a2.34 2.34 0 0 0 3.35.6c.47-.47 1-.91 1.48-1.37l6.5-6c.06-.05.09-.14.19-.11s.07.14.06.22c-.14.81-.28 1.62-.41 2.44-.35 2.06-.69 4.13-1 6.2 0 .22 0 .32.29.36l3 .5c.44.07.45.07.52-.31q.51-3.6 1.1-7.04zm33.15 5.67c-.38 2.28-.76 4.57-1.15 6.85-.06.31.06.41.38.45 1 .16 2 .32 3 .5.33.07.45 0 .5-.31.16-1 .35-2.08.51-3.12 0-.23.12-.33.4-.28l12.77 2.14c.33.05.39.18.34.45-.18 1-.34 2.08-.53 3.12-.05.25 0 .35.32.4 1 .15 2 .32 3 .49.45.07.46.07.53-.34l1.22-7.32a6.88 6.88 0 0 0-2.51-6.52 12.61 12.61 0 0 0-6.36-3c-2.38-.41-4.76-.8-7.13-1.19-.72-.12-1.45-.26-2.17-.35a1.6 1.6 0 0 0-1.91 1.29c-.46 2.27-.83 4.5-1.21 6.74zm-62.24-10.42 1.14-6.79a1.24 1.24 0 0 0 0-.47 1.91 1.91 0 0 0-1.63-1.33c-1.55-.26-3.1-.53-4.65-.77-1.84-.3-3.66-.71-5.51-.87a11.55 11.55 0 0 0-7 1.39 6.55 6.55 0 0 0-3.37 4.67q-.63 3.74-1.25 7.47c-.07.4-.07.4.36.47 1 .17 2 .32 2.93.5.33.06.45 0 .5-.31.15-1 .34-2.06.5-3.09 0-.29.17-.35.48-.3l12.67 2.12c.34 0 .42.16.37.46-.19 1-.35 2.08-.54 3.11 0 .26 0 .36.32.4 1 .16 2 .32 3 .51.33.06.44 0 .49-.32.42-2.28.81-4.57 1.19-6.85zm-38.3 1 6.47 1.08a7.76 7.76 0 0 0 2.76 0 3.93 3.93 0 0 0 3.34-2.92c.64-3.78 1.26-7.55 1.9-11.33.05-.27 0-.37-.33-.42-1-.15-2-.32-3-.5-.36-.07-.46 0-.51.33q-.92 5.58-1.86 11.15a1.08 1.08 0 0 1-1.24.95 4.41 4.41 0 0 1-.73-.08c-1-.18-2-.37-3.06-.54l-7-1.15c-.28-.05-.35-.15-.31-.38.11-.59.19-1.18.31-1.76.06-.28 0-.4-.35-.45-.84-.13-1.68-.26-2.52-.42-.34-.07-.44 0-.49.32-.24 1.49-.49 3-.74 4.45-.07.42-.07.42.42.5zM230.83 237.63l5.72 1c.15.09.15.2.13.35-.37 2.17-.73 4.34-1.11 6.51 0 .29 0 .38.34.43 3.09.5 6.18 1 9.27 1.54.32.05.34.16.31.44-.06.67-.23 1.33-.32 2-.22 1.55-.54 3.09-.8 4.63-.1.59-.17 1.19-.26 1.78 0 .2-.12.31-.4.26L228.57 254c-.65-.11-.65-.11-.56-.68q1.29-7.69 2.57-15.38c.02-.15.02-.31.25-.31zm3.94 12.7c-.13.78-.25 1.56-.39 2.34-.05.27 0 .38.33.43 1.06.16 2.11.34 3.16.53.32.06.44 0 .49-.31.25-1.55.51-3.1.78-4.66 0-.24 0-.34-.31-.38q-1.62-.25-3.24-.54c-.28-.05-.39 0-.43.27-.16.78-.26 1.55-.39 2.32zM255.63 249.17c2.55.43 5.09.86 7.64 1.27.34.06.42.17.37.47q-.7 4.14-1.39 8.3c-.07.37-.1.4-.52.33L246.38 257c-.27-.05-.34-.16-.3-.39q.72-4.21 1.41-8.43c0-.28.18-.33.47-.28 2.55.44 5.11.86 7.67 1.29zm1.31 4.88c.14-.8.27-1.6.41-2.4 0-.23 0-.36-.3-.4l-3.44-.58c-.26 0-.38 0-.42.27l-.81 4.85c0 .25.05.36.33.41l3.37.56c.3.06.42 0 .46-.3.13-.8.27-1.6.4-2.41zM173.53 244.78l-7.64-1.27c-.31 0-.37-.15-.33-.42q.72-4.2 1.42-8.42c0-.25.13-.32.4-.27l15.36 2.6c.41.07.43.11.37.49-.26 1.55-.53 3.11-.78 4.66 0 .31-.17.37-.5.32-3.07-.53-6.15-1-9.22-1.55-.46-.08-.46-.08-.52.32s-.11.7-.19 1 0 .35.31.4c2.06.33 4.11.68 6.17 1l3.16.53c.32.05.42.17.37.44s-.14.74-.19 1.11-.18.38-.51.32zm.92-5.45c.56.1 1.13.18 1.69.29.25 0 .35 0 .38-.25 0-.39.12-.78.2-1.17 0-.21 0-.32-.26-.36l-3.41-.57c-.22 0-.33 0-.36.23q-.08.62-.18 1.23c0 .23.06.3.29.33.55.07 1.1.17 1.65.27zM211.28 241.75l7.64 1.28c.44.07.5.14.42.52-.43 2-.7 4-1.05 6-.14.74-.27 1.48-.37 2.23 0 .29-.15.37-.49.31-2.08-.36-4.17-.7-6.26-1l-9-1.51c-.42-.07-.43-.08-.37-.47.26-1.56.53-3.11.77-4.67 0-.32.18-.37.52-.31l9.16 1.54c.46.07.46.07.53-.33s.09-.67.17-1 0-.4-.36-.46c-2.34-.37-4.68-.77-7-1.16l-2.31-.38c-.24 0-.32-.12-.28-.34a10.85 10.85 0 0 0 .21-1.27c0-.27.16-.31.43-.26l5.37.9 2.27.38zm-1.15 7.25c.55.09 1.11.17 1.66.27.21 0 .33 0 .36-.21l.21-1.23c0-.19-.05-.29-.27-.33l-3.33-.56c-.24 0-.35 0-.38.24 0 .4-.11.79-.19 1.17-.05.23.05.33.29.37.52.07 1.1.17 1.65.28zM268.74 251.36c.87.15 1.74.31 2.62.44.31 0 .38.18.34.43-.08.4-.13.8-.21 1.2 0 .21 0 .3.27.34l3.36.56c.28 0 .38 0 .41-.27.06-.41.15-.82.2-1.23 0-.23.15-.27.37-.24l5.4.91c.21 0 .3.13.27.33-.08.43-.16.86-.22 1.29 0 .23-.16.29-.41.25-.44-.09-.89-.15-1.34-.24-.24 0-.33 0-.36.24-.05.4-.13.8-.19 1.2 0 .23-.15.3-.4.25-.47-.08-.94-.15-1.41-.24-.17 0-.24 0-.29.17-.13.44-.08.91-.25 1.34-.07.18.07.24.24.27l1.38.22c.28 0 .38.15.33.41s-.13.78-.21 1.17c0 .21.05.31.28.34l1.34.22c.25 0 .34.13.3.36-.09.42-.17.84-.22 1.27 0 .22-.15.27-.36.24l-.65-.11-4.62-.77c-.45-.08-.45-.08-.38-.49s.12-.76.19-1.14c.05-.21 0-.3-.27-.34l-3.44-.58c-.22 0-.29 0-.31.21-.06.4-.16.8-.19 1.21s-.19.37-.5.32l-4.72-.8c-1.16-.19-.93-.1-.8-1 0-.25.09-.49.12-.74s.16-.29.4-.25c.45.09.9.15 1.34.24.27.05.39 0 .42-.26s.14-.78.19-1.17.16-.31.41-.26c.46.09.92.15 1.37.24.21 0 .3 0 .32-.2.06-.43.13-.85.22-1.27 0-.21-.05-.28-.26-.31l-1.38-.23c-.24 0-.34-.12-.29-.36s.14-.78.21-1.17c0-.23 0-.35-.31-.38-.45-.06-.9-.15-1.35-.22-.25 0-.34-.14-.29-.37q.12-.63.21-1.26c0-.24.16-.29.4-.24zM222.64 236.28l5.92 1a.42.42 0 0 1 .05.36q-1.31 7.77-2.6 15.56c0 .28-.17.37-.48.31s-.88-.19-1.33-.26l-3.89-.62c-.46-.08-.45-.08-.39-.49q1.31-7.74 2.6-15.49c.02-.14 0-.28.12-.37zM191.71 247.82l-7.71-1.28c-.3 0-.4-.14-.35-.43q.72-4.2 1.41-8.4c0-.26.15-.32.42-.27l15.39 2.56c.31.05.42.18.36.45s-.11.72-.19 1.08-.13.41-.55.34l-4.16-.7-5.06-.85c-.28 0-.37 0-.41.25-.22 1.39-.46 2.78-.69 4.17a2.74 2.74 0 0 1 0 .28c-.11.6-.11.6.58.72l8.92 1.49c.42.07.45.11.39.5s-.15.72-.18 1.08-.19.35-.48.3c-.56-.11-1.12-.2-1.68-.29z" transform="translate(-.98 -.52)"/><path d="M291.07 282.1c-.25 1.47-.49 2.94-.74 4.41-.07.42-.07.42-.51.34l-4.27-.71c-.27 0-.37-.13-.3-.37s.07-.41.11-.62-.06-.27-.25-.29l-.49-.05c-.39-.06-.49 0-.51.37v.19c0 .43-.14.5-.63.42-1.39-.23-2.79-.47-4.19-.69-.32-.05-.4-.19-.36-.45.5-3 1-5.91 1.49-8.86.06-.36.14-.42.55-.33 2.95.58 5.92 1 8.87 1.52.52.09 1 .13 1.55.22s.47.1.4.52c-.24 1.46-.49 2.92-.73 4.38zm-8.37-.17 1.58.27c.22 0 .32 0 .35-.22.1-.59.2-1.19.31-1.79 0-.21-.06-.3-.29-.34l-3.13-.52c-.21 0-.31 0-.35.22-.08.59-.18 1.19-.29 1.79 0 .21 0 .31.27.34zm5.47-1.49c-.52-.08-1-.16-1.55-.26-.25-.05-.36 0-.39.24-.09.59-.19 1.19-.29 1.78-.05.23.05.29.28.33 1 .16 2 .33 3 .51.28.05.39 0 .43-.27.08-.56.17-1.13.28-1.69 0-.23 0-.35-.3-.39-.48-.08-.97-.17-1.46-.25z" transform="translate(-.98 -.52)" style="fill:#2785db"/><path d="M292.87 271.31c-.25 1.48-.5 3-.74 4.44-.07.38-.11.4-.52.34l-2.86-.48c-.41-.07-.49-.18-.43-.54.14-.85.28-1.71.43-2.56a.34.34 0 0 1 0-.1c.2-.63.12-.52.72-.43l1.48.25c.26 0 .4 0 .44-.25.09-.59.19-1.18.29-1.76 0-.21 0-.33-.3-.38l-8-1.34c-.26 0-.39.05-.42.28-.09.57-.19 1.14-.28 1.7 0 .23.05.36.31.41l3.06.52a.25.25 0 0 0 .33-.17 1.81 1.81 0 0 0 .12-.64c0-.19.11-.24.27-.29a.45.45 0 0 1 .2 0c.85.09.89.14.77.88-.21 1.26-.43 2.51-.63 3.77 0 .26-.17.34-.43.3l-5.43-.91c-.49-.08-.55-.15-.48-.58.49-3 1-5.91 1.48-8.87 0-.17.09-.23.28-.22s.55 0 .83.08l9.77 1.63c.55.09.55.1.47.6l-.72 4.32z" transform="translate(-.98 -.52)" style="fill:#44c047"/><path d="M289.84 254.78c1.75.29 3.49.59 5.24.87.3 0 .4.13.35.42-.51 3-1 5.95-1.49 8.92-.05.3-.16.38-.49.32-1.4-.25-2.8-.48-4.2-.71-.36-.06-.42-.15-.36-.47 0-.12.06-.23.08-.34.08-.47.08-.47-.46-.56h-.21c-.5-.08-.51-.08-.54.39 0 .18-.1.34-.11.52s-.18.19-.35.16l-4.44-.74c-.23 0-.32-.15-.29-.35.17-1 .35-2 .51-3.06 0-.28.23-.27.45-.23l1.83.3c.8.15 1.61.24 2.4.44.25.06.44 0 .48-.27.07-.57.17-1.14.28-1.7.05-.27 0-.38-.34-.43-1.42-.22-2.83-.47-4.24-.7-.29 0-.4-.12-.35-.4.18-1 .33-2 .48-3 0-.26.15-.33.44-.28 1.77.31 3.55.6 5.33.9zm1.49 6.43c.51.08 1 .16 1.54.26.22 0 .35 0 .39-.21.09-.61.19-1.22.3-1.82 0-.2 0-.32-.27-.35l-3.09-.52c-.22 0-.32 0-.35.21-.09.63-.2 1.25-.31 1.88 0 .18 0 .26.24.29z" transform="translate(-.98 -.52)" style="fill:#eb1416"/><path class="adedaeb6-59bc-47b2-b43b-9f8e5acb94b5" d="m156.94 232.66 7.54 1.26c.53.09.53.09.45.57s-.13.7-.17 1-.16.33-.44.28l-9.3-1.57c-.33-.05-.41 0-.45.3-.35 2.17-.72 4.33-1.07 6.49-.05.31-.2.36-.51.31l-5.19-.87c-.3 0-.4-.14-.35-.42q.72-4.19 1.4-8.39c.05-.31.19-.34.48-.29z" transform="translate(-.98 -.52)"/><path class="be7bf8c4-5f78-42be-8993-7d5ad6e6b9d7" d="M224.85 265.68 226 259a1.74 1.74 0 0 1 2.34-1.33 2.14 2.14 0 0 1 1.43 1.06c2.19 4.06 4.41 8.11 6.61 12.17.17.3.2.31.45.08l8.14-7.43 2.16-2a2.34 2.34 0 0 1 3.26.37 1.32 1.32 0 0 1 .25 1q-1.17 6.91-2.32 13.83c0 .29-.15.39-.49.32-1-.19-2-.35-3.06-.51-.3-.05-.36-.15-.31-.4.47-2.79.93-5.58 1.4-8.37v-.12c0-.04.11-.25 0-.31s-.18.1-.26.17l-4.89 4.53c-1 .89-2 1.74-2.87 2.68a2.38 2.38 0 0 1-3.55-.6c-1.63-3.16-3.37-6.28-5.06-9.42 0-.07-.06-.19-.17-.17s-.11.14-.12.22l-1.4 8.43c-.08.46-.08.46-.59.37-1-.17-1.95-.34-2.93-.49-.28 0-.34-.15-.3-.38.4-2.36.79-4.72 1.19-7.07zM220.34 265q-.59 3.46-1.16 6.95c-.07.38-.08.38-.52.31l-3-.5c-.27 0-.32-.14-.29-.36.36-2.07.7-4.14 1-6.2.13-.82.27-1.63.41-2.44 0-.08.06-.18-.06-.22s-.13.06-.19.11l-6.5 6c-.5.46-1 .9-1.48 1.37a2.34 2.34 0 0 1-3.35-.6c-1.59-3-3.25-6.05-4.88-9.07-.1-.17-.19-.34-.28-.51s-.05-.14-.13-.14-.1.1-.11.17 0 .27-.06.4c-.46 2.73-.91 5.46-1.37 8.19-.06.38-.07.37-.51.3-1-.18-2-.35-3-.5-.3 0-.4-.13-.35-.41q1.16-6.86 2.3-13.71a1.52 1.52 0 0 1 1.5-1.37 2.24 2.24 0 0 1 2.21 1c1.11 2 2.2 4 3.3 6l3.44 6.31c.14.27.24.14.37 0l2.95-2.7c2.42-2.2 4.85-4.39 7.24-6.63a2.4 2.4 0 0 1 3.17 0 1.32 1.32 0 0 1 .45 1.21c-.4 2.31-.78 4.61-1.16 6.92zM253.49 270.64c.38-2.24.75-4.47 1.13-6.7a1.6 1.6 0 0 1 1.91-1.29c.72.09 1.45.23 2.17.35 2.37.39 4.75.78 7.13 1.19a12.61 12.61 0 0 1 6.36 3 6.88 6.88 0 0 1 2.51 6.52q-.6 3.66-1.22 7.32c-.07.41-.08.41-.53.34-1-.17-2-.34-3-.49-.29 0-.37-.15-.32-.4.19-1 .35-2.08.53-3.12.05-.27 0-.4-.34-.45l-12.77-2.14c-.28-.05-.36 0-.4.28-.16 1-.35 2.08-.51 3.12-.05.3-.17.38-.5.31-1-.18-2-.34-3-.5-.32 0-.44-.14-.38-.45.39-2.28.77-4.57 1.15-6.85zM264 273l6.37 1.07c.3 0 .43 0 .46-.28s.08-.52.12-.78a4.27 4.27 0 0 0-1.54-4.2 8.48 8.48 0 0 0-4-1.85c-2.25-.43-4.52-.78-6.77-1.17-.34-.06-.36.12-.4.33q-.44 2.69-.9 5.37c0 .29 0 .4.36.46zM191.25 260.22c-.38 2.28-.77 4.57-1.14 6.85-.05.3-.16.38-.49.32-1-.19-2-.35-3-.51-.29 0-.36-.14-.32-.4.19-1 .35-2.08.54-3.11.05-.3 0-.41-.37-.46l-12.67-2.12c-.31-.05-.44 0-.48.3-.16 1-.35 2.05-.5 3.09 0 .3-.17.37-.5.31-1-.18-1.95-.33-2.93-.5-.43-.07-.43-.07-.36-.47q.62-3.74 1.25-7.47a6.55 6.55 0 0 1 3.37-4.67 11.55 11.55 0 0 1 7-1.39c1.85.16 3.67.57 5.51.87 1.55.24 3.1.51 4.65.77a1.91 1.91 0 0 1 1.59 1.37 1.24 1.24 0 0 1 0 .47l-1.14 6.79zm-10.67-1.14c2.11.35 4.22.7 6.33 1.07.32.05.44 0 .48-.29.3-1.81.6-3.63.91-5.44 0-.26 0-.37-.33-.42q-3-.48-6-1a11.11 11.11 0 0 0-3.77 0 4.85 4.85 0 0 0-3.81 2.54 7.49 7.49 0 0 0-.52 2c-.07.4-.07.41.4.48zM153 261.25l-7-1.17c-.49-.08-.49-.08-.42-.5.25-1.48.5-3 .74-4.45.05-.28.15-.39.49-.32.84.16 1.68.29 2.52.42.31.05.41.17.35.45-.12.58-.2 1.17-.31 1.76 0 .23 0 .33.31.38l7 1.15c1 .17 2 .36 3.06.54a4.41 4.41 0 0 0 .73.08 1.08 1.08 0 0 0 1.24-.95q.94-5.58 1.86-11.15c0-.3.15-.4.51-.33 1 .18 2 .35 3 .5.3.05.38.15.33.42-.64 3.78-1.26 7.55-1.9 11.33a3.93 3.93 0 0 1-3.34 2.92 7.76 7.76 0 0 1-2.76 0l-6.41-1.08z" transform="translate(-.98 -.52)"/><path class="adedaeb6-59bc-47b2-b43b-9f8e5acb94b5" d="m264 273-6.33-1c-.34-.06-.41-.17-.36-.46q.47-2.68.9-5.37c0-.21.06-.39.4-.33 2.25.39 4.52.74 6.77 1.17a8.48 8.48 0 0 1 4 1.85 4.27 4.27 0 0 1 1.54 4.2c0 .26-.1.52-.12.78s-.16.33-.46.28zM180.58 259.08l-6.3-1.06c-.47-.07-.47-.08-.4-.48a7.49 7.49 0 0 1 .52-2 4.85 4.85 0 0 1 3.81-2.54 11.11 11.11 0 0 1 3.77 0q3 .51 6 1c.31.05.38.16.33.42-.31 1.81-.61 3.63-.91 5.44 0 .29-.16.34-.48.29-2.11-.37-4.22-.72-6.33-1.07z" transform="translate(-.98 -.52)"/></g><g id="bacf62bc-438d-4973-8f6d-f604d0f5c089" data-name="acf37bec-b5c1-46a0-bff8-6d7472c090e9"><path d="M252.13 146.11 85.46 120a15.23 15.23 0 0 1-6.62-5.89 17.21 17.21 0 0 1-2.46-6.82 3 3 0 0 0-.21-1.31v-2.1a13.47 13.47 0 0 1 .27-1.8 10.91 10.91 0 0 1 5.22-8A6.83 6.83 0 0 1 84 92.92a27.34 27.34 0 0 1 4.25-.12 9.43 9.43 0 0 0 2.48.17 29.88 29.88 0 0 1 3.53.16L303 125.79a17.53 17.53 0 0 1 5.64 4.27 18.46 18.46 0 0 1 3.33 5.62 16.42 16.42 0 0 1 .84 8.53 11.16 11.16 0 0 1-5.37 7.94 4.41 4.41 0 0 1-2.74.93l-4.48-.39-4-.63-5.32-.62-38.19-6zm-99.73-40.2-5.93 19.42 5.66.89 1-3.83 7.23 1.13.9 3.74a23 23 0 0 0 6.14 1c-.45-1.6-.85-3.16-1.3-4.59a271.3 271.3 0 0 0-1.91-6.74c-.86-3-1.75-6-2.61-9 0-.39-.28-.48-.6-.53l-3.26-.51zm116.16 25a4.57 4.57 0 0 0-.2-1.61 6.6 6.6 0 0 0-2.05-3.84 10.46 10.46 0 0 0-5.12-2.56 17.56 17.56 0 0 0-3.34-.52 31.69 31.69 0 0 0-4.68.1 2.84 2.84 0 0 0-2.66 2.27 24 24 0 0 0-.49 3.92 70.47 70.47 0 0 0 .23 8.82 5.25 5.25 0 0 0 2.81 4.13 17.26 17.26 0 0 0 4.87 1.59l3.22.51a11.33 11.33 0 0 0 4-.12 3.45 3.45 0 0 0 2.71-2.64 21.86 21.86 0 0 0 .49-2.82 11 11 0 0 0 0-1.15l-5.8-1.17v1.49a14.3 14.3 0 0 1-.21 1.86 1.1 1.1 0 0 1-.73 1 9 9 0 0 1-1.57.28 5.52 5.52 0 0 1-3.26-.95 1.28 1.28 0 0 1-.32-.62v-12.56a.52.52 0 0 1 .28-.44 6 6 0 0 1 3.55 0 4.6 4.6 0 0 1 1.49.93 3.67 3.67 0 0 1 .84 3.17zm-158-24.75a4.24 4.24 0 0 0-.22-1.57 6.73 6.73 0 0 0-3-4.86 11.47 11.47 0 0 0-4-1.51l-4-.63a10.27 10.27 0 0 0-4.53.26 2.61 2.61 0 0 0-2.15 2.25 47 47 0 0 0-.4 5.2c0 2.46 0 4.87.3 7.32a4.4 4.4 0 0 0 1.23 2.82 10 10 0 0 0 5.21 2.71 25.49 25.49 0 0 0 4 .63 31.27 31.27 0 0 0 3.49 0 3.48 3.48 0 0 0 2.79-1.45 8.2 8.2 0 0 0 1-5.23l-5.63-1.1v2.59a1.87 1.87 0 0 1-1.55 2.08 6 6 0 0 1-3.69-.58c-.81-.43-.81-.43-.81-1.35l-.1-12.46a6.79 6.79 0 0 1 3.77-.07 3.1 3.1 0 0 1 2.43 3v1.1zm111.63 16.56a5.29 5.29 0 0 0-2.33-5 13.91 13.91 0 0 0-5.32-2.11 25.88 25.88 0 0 0-3.67-.57 8 8 0 0 0-2.29 0 6.6 6.6 0 0 0-3.58 2 2.7 2.7 0 0 0-.33 3.66l.09.13a9.94 9.94 0 0 0 1.53 2 34.12 34.12 0 0 0 6.08 4.6 11.17 11.17 0 0 1 3.18 2.74 1.8 1.8 0 0 1 .31 2.31 1.21 1.21 0 0 1-.91.49 5.73 5.73 0 0 1-3.74-.59 1.74 1.74 0 0 1-1-1.61v-1.58l-6.07-.95v1.66a5.07 5.07 0 0 0 1.65 3.16 10.69 10.69 0 0 0 5.68 2.64 27.23 27.23 0 0 0 5.87 1 4.9 4.9 0 0 0 3.74-1.34 3.42 3.42 0 0 0 1-2.86 5.32 5.32 0 0 0-1.89-3.63c-1-.91-2.13-1.7-3.22-2.53a40.8 40.8 0 0 1-5.88-4.7 1.89 1.89 0 0 1-.66-2.28 1.26 1.26 0 0 1 .66-.61 4.15 4.15 0 0 1 3.54.24 2 2 0 0 1 1.25 1.87 1.1 1.1 0 0 0 .73 1 10.84 10.84 0 0 0 3.58.56zm75 11.74a5.28 5.28 0 0 0-2.32-5 13 13 0 0 0-5.45-2.17l-4.35-.68a4.4 4.4 0 0 0-1.74.08 7.23 7.23 0 0 0-3.36 1.94 2.6 2.6 0 0 0-.57 3.29 7.89 7.89 0 0 0 1.8 2.53 38 38 0 0 0 6.08 4.6 11.63 11.63 0 0 1 3.22 2.74 1.81 1.81 0 0 1 .18 2.38 1.17 1.17 0 0 1-.8.42A5.56 5.56 0 0 1 286 144a1.69 1.69 0 0 1-1-1.66v-1.53l-6-.94v1.67a4.9 4.9 0 0 0 1.65 3.15 10.58 10.58 0 0 0 5.63 2.64 27.75 27.75 0 0 0 6 .68 4.9 4.9 0 0 0 3.72-1.35 3.6 3.6 0 0 0 1.1-2.86 5.36 5.36 0 0 0-1.92-3.64c-1-.91-2.14-1.7-3.22-2.53a42.85 42.85 0 0 1-5.86-4.63 1.89 1.89 0 0 1-.53-2.37 1.25 1.25 0 0 1 .75-.58 4.49 4.49 0 0 1 3.47.5 2 2 0 0 1 1.2 1.86 1.15 1.15 0 0 0 .72 1 10.94 10.94 0 0 0 3.59.56zm-102.86-16.1a8.24 8.24 0 0 0 0-1.72 5.35 5.35 0 0 0-2.51-3.55 13.71 13.71 0 0 0-5.35-2l-3.82-.59a5.36 5.36 0 0 0-3.18.42 7.49 7.49 0 0 0-2.47 1.78 2.62 2.62 0 0 0 0 3.38 12 12 0 0 0 1.9 2.45 35.32 35.32 0 0 0 6.24 4.62 9.17 9.17 0 0 1 3 2.75 1.67 1.67 0 0 1-.2 2.25 1.3 1.3 0 0 1-.31.16 5.38 5.38 0 0 1-4.27-.66 1.36 1.36 0 0 1-.8-1.14v-2l-4.82-.76c-1.13-.18-1.13-.18-1.12 1a5.37 5.37 0 0 0 1.69 3.69 11.6 11.6 0 0 0 5.68 2.68 30.05 30.05 0 0 0 5.94.63 4.65 4.65 0 0 0 4-1.56 4.24 4.24 0 0 0-.25-5.4 13.56 13.56 0 0 0-3.1-2.68c-1.53-1.2-3.14-2.29-4.64-3.49a20.49 20.49 0 0 1-2.49-2.36 1.6 1.6 0 0 1 0-2.12 1 1 0 0 1 .25-.17 4.09 4.09 0 0 1 4 .23 2 2 0 0 1 1 1.66 1.13 1.13 0 0 0 .81 1.18 4.08 4.08 0 0 0 1 .15zm-66.18 1.07-.1-17.55-6.31-1 .13 20.41 16.33 2.56v-2.9zm110.9 20.29V119.3l-6.32-1v20.41z" transform="translate(-.98 -.52)"/><path class="a18ec2db-264b-456d-bcc0-d05fa992eeb3" d="m152.4 105.91 8.69 1.36c.32 0 .52.08.6.53.86 3 1.75 6 2.61 9 .65 2.25 1.3 4.59 1.91 6.75.45 1.51.85 3.07 1.3 4.58a22.57 22.57 0 0 1-6.14-1l-.9-3.74-7.23-1.13-1 3.83-5.66-.89zm1.43 14.26a36.5 36.5 0 0 0 5 .56c.68.11.68.11.48-.84s0 0 0-.22c-.65-2.3-1.26-4.59-1.92-6.79a16.74 16.74 0 0 0-.61-1.81 1.94 1.94 0 0 0-.31.52c-.24.75-.52 1.54-.72 2.3-.47 1.55-.91 3.11-1.34 4.62a9.51 9.51 0 0 0-.58 1.66zm114.73 10.73-6-.94a3.65 3.65 0 0 0-.84-3.16 4.8 4.8 0 0 0-1.49-.94 6.14 6.14 0 0 0-3.55 0 .51.51 0 0 0-.28.44v12.56a1.23 1.23 0 0 0 .32.62 5.38 5.38 0 0 0 3.26 1 7.49 7.49 0 0 0 1.57-.28 1.08 1.08 0 0 0 .73-1 12.75 12.75 0 0 0 .2-1.86v-1.49l5.8 1.17a10.84 10.84 0 0 1 0 1.14 21.56 21.56 0 0 1-.49 2.82 3.44 3.44 0 0 1-2.71 2.65 11.33 11.33 0 0 1-4 .12l-3.22-.51a17 17 0 0 1-4.87-1.6 5.29 5.29 0 0 1-2.82-4.12 72.43 72.43 0 0 1-.23-8.82 26.72 26.72 0 0 1 .49-3.93 2.84 2.84 0 0 1 2.67-2.26 31.69 31.69 0 0 1 4.68-.1 17.56 17.56 0 0 1 3.34.52 10.46 10.46 0 0 1 5.12 2.56 6.57 6.57 0 0 1 2.05 3.84 6.71 6.71 0 0 1 .32 1.67zm-158-24.75-5.82-.91v-1.1a3.1 3.1 0 0 0-2.43-3 6.79 6.79 0 0 0-3.77.07l.1 12.55c0 .92 0 .92.81 1.35a6.19 6.19 0 0 0 3.69.58 1.87 1.87 0 0 0 1.55-2.08v-2.59l5.66 1.15a8.21 8.21 0 0 1-1 5.23 3.48 3.48 0 0 1-2.79 1.45 31.27 31.27 0 0 1-3.49 0 25.49 25.49 0 0 1-4-.63 10 10 0 0 1-5.34-2.72 4.42 4.42 0 0 1-1.23-2.82c0-2.41-.32-4.87-.3-7.32a47 47 0 0 1 .4-5.2 2.61 2.61 0 0 1 2.15-2.25 10.13 10.13 0 0 1 4.53-.26l4 .63a11.47 11.47 0 0 1 4 1.51 6.73 6.73 0 0 1 3 4.86 15.19 15.19 0 0 1 .26 1.53zm111.63 16.56-1.73-.27a11.43 11.43 0 0 1-3.58-.56 1.1 1.1 0 0 1-.73-1 2 2 0 0 0-1.25-1.86 4.18 4.18 0 0 0-3.54-.25 1.52 1.52 0 0 0-.65 2.08 2 2 0 0 0 .65.82 41.5 41.5 0 0 0 5.88 4.7c1.09.83 2.18 1.61 3.22 2.52a5.39 5.39 0 0 1 1.9 3.63 3.47 3.47 0 0 1-1.05 2.87 4.9 4.9 0 0 1-3.74 1.34 27.11 27.11 0 0 1-5.91-.66 10.85 10.85 0 0 1-5.68-2.65 5.07 5.07 0 0 1-1.65-3.15v-1.67l6.07.95v1.58a1.71 1.71 0 0 0 1 1.61 5.67 5.67 0 0 0 3.74.59 1.36 1.36 0 0 0 1.18-1.72 2 2 0 0 0-.57-1.08 11.64 11.64 0 0 0-3.18-2.74 33.71 33.71 0 0 1-6.08-4.59 9.77 9.77 0 0 1-1.54-2 2.8 2.8 0 0 1 0-3.72l.19-.16a6.53 6.53 0 0 1 3.58-2 7.7 7.7 0 0 1 2.3 0 27.26 27.26 0 0 1 3.66.57A13.91 13.91 0 0 1 220 118a5.28 5.28 0 0 1 2.13 4.77zm75 11.74-1.78-.27a11.22 11.22 0 0 1-3.59-.57 1.14 1.14 0 0 1-.72-1 2 2 0 0 0-1.2-1.86 4.46 4.46 0 0 0-3.52-.29 1.52 1.52 0 0 0-.85 2 2.07 2.07 0 0 0 .64.92 43.63 43.63 0 0 0 5.84 4.65c1.08.83 2.21 1.62 3.22 2.52a5.36 5.36 0 0 1 1.92 3.64 3.57 3.57 0 0 1-1.1 2.86 4.87 4.87 0 0 1-3.72 1.35 27.66 27.66 0 0 1-6-.67 10.7 10.7 0 0 1-5.63-2.64 4.86 4.86 0 0 1-1.65-3.16v-1.66l6 .93v1.54a1.64 1.64 0 0 0 1 1.65 5.51 5.51 0 0 0 3.79.6 1.45 1.45 0 0 0 1.12-1.86 2.09 2.09 0 0 0-.5-.94 11.67 11.67 0 0 0-3.22-2.75 37.52 37.52 0 0 1-6.08-4.6 7.85 7.85 0 0 1-1.8-2.52 2.62 2.62 0 0 1 .57-3.3 7.35 7.35 0 0 1 3.36-1.94A4.55 4.55 0 0 1 285 127a29.72 29.72 0 0 1 4.36.69 12.82 12.82 0 0 1 5.45 2.17 5.31 5.31 0 0 1 2.31 4.59zm-102.79-16-4-.63a4.08 4.08 0 0 1-1-.15 1 1 0 0 1-.81-1.18 1.94 1.94 0 0 0-1.05-1.66 4.09 4.09 0 0 0-4-.23 1.44 1.44 0 0 0-.43 2 1.49 1.49 0 0 0 .2.31 20.61 20.61 0 0 0 2.5 2.36c1.49 1.2 3.1 2.29 4.63 3.49a13.56 13.56 0 0 1 3.1 2.68 4.23 4.23 0 0 1 .25 5.39 4.62 4.62 0 0 1-4 1.56 30.8 30.8 0 0 1-5.94-.62 11.46 11.46 0 0 1-5.67-2.69 5.34 5.34 0 0 1-1.7-3.68c0-1.19 0-1.19 1.12-1l4.82.75v2a1.35 1.35 0 0 0 .8 1.13 5.35 5.35 0 0 0 4.27.67 1.49 1.49 0 0 0 .71-2 2 2 0 0 0-.2-.38 9.15 9.15 0 0 0-3-2.74 35.32 35.32 0 0 1-6.24-4.62 12 12 0 0 1-1.9-2.45 2.62 2.62 0 0 1 0-3.38 7.49 7.49 0 0 1 2.49-1.81 5.37 5.37 0 0 1 3.18-.43 24.5 24.5 0 0 1 3.82.6 13.4 13.4 0 0 1 5.35 2 5.33 5.33 0 0 1 2.51 3.55 10.33 10.33 0 0 1 .2 1.22zm-66.18 1.08 10 1.57v2.9l-16.33-2.56-.13-20.4 6.31 1zm110.9 20.28-6.32-1v-20.37l6.32 1z" transform="translate(-.98 -.52)"/><path d="M153.83 120.17a5.56 5.56 0 0 1 .48-1.68c.43-1.51.87-3.06 1.34-4.61.2-.76.48-1.55.71-2.3a2.07 2.07 0 0 1 .32-.52 16.57 16.57 0 0 1 .61 1.8c.66 2.26 1.27 4.59 1.92 6.8v.22c0 .21.2.9-.48.84-1.57-.11-3.17-.36-4.9-.55z" transform="translate(-.98 -.52)"/><path class="bbf79453-7ea5-4aaf-b3fc-6336e136b174" d="m314.49 119.39-.05 8.36-51.79-8.1v-5.2a59.06 59.06 0 0 1-7.88 3.83l2.5.39a.35.35 0 0 1-.28 0l-18.47-2.89a2 2 0 0 1-.72-.11 55.27 55.27 0 0 1-8.3-6.67c-.64-.71-1.24-1.45-1.82-2.22h-.24a2.85 2.85 0 0 1-.2 1.29c-.2.41 0 .93 0 1.37a12.2 12.2 0 0 0 0 1.71v3l-14.83-2.32a22.51 22.51 0 0 1-5.72-1.38 42.33 42.33 0 0 1-5.56-2.94A32.92 32.92 0 0 1 193 99.2a28.93 28.93 0 0 1-3.55-6.85 34 34 0 0 1-1-3.37c-.24-1-.44-1-1.09-.79a3.56 3.56 0 0 0-1.2.56 22.16 22.16 0 0 1-5.23 2.53c-1.85.59-3.78 1.08-5.67 1.63a24.46 24.46 0 0 0-2.66.9c-.84.4-.64.78 0 1.37a7 7 0 0 0 1.57 1.21.82.82 0 0 1 .41.72v8.54L94.86 93.17a13.22 13.22 0 0 1-4.35-1.65 40.9 40.9 0 0 1-4.27-2.77 21.47 21.47 0 0 1-4-3.88 37.43 37.43 0 0 1-2.64-3.45 27.82 27.82 0 0 1-3.6-7.37 26.18 26.18 0 0 1-1.13-5.41 20.76 20.76 0 0 1 1.51-10.73A18.41 18.41 0 0 1 81.86 50a17.64 17.64 0 0 1 5.33-2.79 24.85 24.85 0 0 1 14.51.45 28.49 28.49 0 0 1 5.73 2.71 25.24 25.24 0 0 1 6 5.35 32.73 32.73 0 0 1 2.35 3.28c.81 1.27.81 1.54 0 2.34-1.52 1.66-3 3.37-4.55 5s-2.16 2.13-3.23 3.19l-.32.35-2.08 2.06c-1.09-1-2.18-1.84-3.19-2.84A45.94 45.94 0 0 1 99 65.67a1.21 1.21 0 0 1-.33-.93 6.75 6.75 0 0 1 .33-1.27c0-1.19 0-2.6-1.35-3a2.2 2.2 0 0 0-1.17-.18 6.08 6.08 0 0 0-4.39 4.25 9.7 9.7 0 0 0 0 5.07 13.93 13.93 0 0 0 3.47 7.36 8.12 8.12 0 0 0 5.62 3.03 5.31 5.31 0 0 0 4.36-2 1.19 1.19 0 0 1 1.46-.6l7.8 1.22v7.61l.2-.23.83-2.12 2.6-7.16c1-2.62 1.94-5.24 2.89-7.91l2.6-7.35c1.11-3.18 2.26-6.31 3.33-9.5a.44.44 0 0 1 .6-.35l13.58 2.12a1 1 0 0 1 .85.79c.45 1.4.94 2.8 1.39 4.23l3.51 10.35 2.57 7.58c.82 2.38 1.63 4.66 2.53 7.18s1.71 4.4 2.6 6.57a8.78 8.78 0 0 0 .73 1.26l-.1-23.45a1.47 1.47 0 0 0-.24-.7 3.65 3.65 0 0 0-.73-.69 1.42 1.42 0 0 1-.65-1c0-1.19-.33-2.43-.38-3.63V55.9l15.56 2.42c2.79.44 5.53.87 8.32 1.52a30.89 30.89 0 0 1 3.79 1.12 15.69 15.69 0 0 1 7.84 7c.49.88.93 1.74 1.42 2.7.4-.42.72-.82 1.13-1.19l2.57-2.21a18.23 18.23 0 0 1 5.74-3.26 15.65 15.65 0 0 1 7.38-.83 53.21 53.21 0 0 1 5.82.9 20.24 20.24 0 0 1 5 2 28.28 28.28 0 0 1 8.6 7.75l.81 1.1.33-.26a17.55 17.55 0 0 1 4-3 21.66 21.66 0 0 1 6.95-2.45 24.26 24.26 0 0 1 6.55-.26l5.17.8a24.66 24.66 0 0 1 5.9 2.38 26.25 26.25 0 0 1 7 5.51 20.26 20.26 0 0 1 3.51 5.28 2.92 2.92 0 0 0 .4.59 9.83 9.83 0 0 0 .25-1.55v-8.84l19.85 3.08c.52 1.59 1 3.17 1.6 4.68a3.48 3.48 0 0 0 .48.78l.49-.59v-.26l1-3.48c0-.44.24-.62.77-.54l19.88 3.1v2.87a55.86 55.86 0 0 1-.24 5.94 1.29 1.29 0 0 1-.77 1.38 1.38 1.38 0 0 0-.86 1.55v1.28l.47 4.49a39.83 39.83 0 0 0 .38 4.26c.15 1.43.47 3.73.74 5.63a33.43 33.43 0 0 0 1.34 6.43 3.8 3.8 0 0 0 1 1.78 1.75 1.75 0 0 1 .72 1.17v1.55a8.52 8.52 0 0 0 .16 1.17zm-7.24-35.58-13-2a.35.35 0 0 0-.48.27v.06c-.57 1.68-1.14 3.36-1.76 5.07l-2.82 8.4a5.2 5.2 0 0 1-.25.76v-.4c-.43-1.66-.91-3.32-1.35-5-1-3.29-1.92-6.62-2.8-9.9 0-.44-.32-.54-.65-.59l-12.78-2v1.46a1.66 1.66 0 0 0 .76 1.45l1 .77a.68.68 0 0 1 .24.7 7.24 7.24 0 0 0-.21 1.33l-.62 4.68c-.24 1.82-.53 3.63-.78 5.44s-.37 3-.62 4.32c-.37 2.28-.78 4.55-1.15 6.79a36.81 36.81 0 0 1-1.46 6.07c-.25.58-.37 1.22-1.1 1.28a.58.58 0 0 0-.36.47c0 .8-.21 1.6-.29 2.42l11.3 1.77a11.81 11.81 0 0 0 0-1.19c0-.57 0-1.23-.64-1.6a2.1 2.1 0 0 1-1-2v-2.69a11.43 11.43 0 0 1 .29-3.08 32.94 32.94 0 0 0 .58-4c.16-1.34.33-2.64.53-4s.38-2.68.58-4a3.44 3.44 0 0 1 .29-1.67.58.58 0 0 1 .2-.28.39.39 0 0 1 .29.31 11.19 11.19 0 0 1 .48 1.18l2.2 7.23c.6 2 1.16 4.1 1.72 6.13.35 1.29 1 2.35 2.29 2.61l4.81.75a.34.34 0 0 0 .32-.22 15.69 15.69 0 0 0 .74-2c1.1-3.4 2.13-6.86 3.23-10.31.45-1.39 1-2.72 1.52-4.18a1.41 1.41 0 0 1 .4-.47 8.39 8.39 0 0 0 .2 2.24 32.92 32.92 0 0 1 .39 3.46c.11 1.13.39 2.76.55 4.11s.31 2.52.51 3.83.35 2.57.55 3.83.31 2.56.54 3.84 0 1.49-.65 2a2.7 2.7 0 0 0-1.23 3.16l12.69 2a4.63 4.63 0 0 0-.35-2.65 3.34 3.34 0 0 1-.36-.85c-.32-1.59-.59-3.18-.87-4.54s-.39-2.8-.59-4.2-.43-3.06-.62-4.51-.32-2.12-.43-3.2-.28-2.2-.43-3.29-.27-2.21-.39-3.33-.43-3.2-.63-4.78-.31-2.39-.47-3.66a3.27 3.27 0 0 0 1.93-3.59zM245.6 113.9a29 29 0 0 0 7.5.07 19.88 19.88 0 0 0 3.56-1.2 14 14 0 0 0 4-2.68 13.44 13.44 0 0 0 1.49-1.7 17.18 17.18 0 0 0 3.49-7.17 17.61 17.61 0 0 0 .54-5.69c0-.81-.12-1.62-.24-2.42a22 22 0 0 0-3.73-9.2 26.21 26.21 0 0 0-7.11-7 24.36 24.36 0 0 0-8.56-3.33 10.57 10.57 0 0 0-2.59-.4 30.14 30.14 0 0 0-4 .3 15.52 15.52 0 0 0-7.32 3.27 13.8 13.8 0 0 0-4 4.41 18 18 0 0 0-2 8.51v5a19.89 19.89 0 0 0 2.14 6.77 22.82 22.82 0 0 0 4.43 6 26.83 26.83 0 0 0 4.76 3.74 14.44 14.44 0 0 0 3.14 1.63c1.78.37 3.31.65 4.4 1zM168.47 90l2.21-.36a38.43 38.43 0 0 0 9.69-2.89 14 14 0 0 0 5.23-4 8.49 8.49 0 0 0 1.88-5.49 13.68 13.68 0 0 0-.21-2.9 9.9 9.9 0 0 0-1.5-4.64c-.53-.64-1-1.31-1.5-2a4.2 4.2 0 0 0-2.22-1.85c-1.33-.52-2.7-1-4-1.47s-3.22-.9-4.84-1.28l-4-.85-11.53-1.8v2a4 4 0 0 0 .7 2.18 4.12 4.12 0 0 1 .61 1.2 15 15 0 0 1 .25 2.2l.1 27a.41.41 0 0 1-.28.49 2.55 2.55 0 0 0-1.51 2.57c0 .88 0 1 .84 1.1l11.61 1.86a11.77 11.77 0 0 0 0-1.68 3.78 3.78 0 0 0-.57-1.67 3.73 3.73 0 0 1-.94-2.48c-.08-1.77-.05-3.48-.05-5.29zm-14.93 8.49v-1.85a1.89 1.89 0 0 0-.65-1.38 3.22 3.22 0 0 1-.89-.84 13.56 13.56 0 0 1-1.25-2.31c-.94-2.3-1.87-4.69-2.69-6.89-1.3-3.63-2.53-7.3-3.71-11s-2.29-7.14-3.47-10.73c-.58-1.81-1.23-3.58-1.84-5.36a.66.66 0 0 0-.53-.48l-8.34-1.3a.48.48 0 0 0-.56.31l-3.24 9.55-3.1 8.79c-.83 2.38-1.7 4.71-2.53 7-.63 1.66-1.26 3.36-2 5a3.58 3.58 0 0 1-1.59 2.3.41.41 0 0 0 0 .22 3.9 3.9 0 0 0-.63 3.11l10.69 1.68a12.16 12.16 0 0 0 0-1.81 1.92 1.92 0 0 0-.77-1.52 1.19 1.19 0 0 1-.65-1.16 8.36 8.36 0 0 1 .42-3.14c.56-1.68 1.15-3.39 1.74-5.1a.45.45 0 0 1 .44-.19l10.83 1.69 1.61 4.92c.36 1.11.65 2.26.94 3.45 0 .44.25 1.05-.2 1.29-1.28.72-1.19 2.09-1.14 3.51zM110 91.71l-.06-8.09a8.85 8.85 0 0 0-.33-1.42.57.57 0 0 0-.85-.48 16.73 16.73 0 0 0-1.87 1.11 8.15 8.15 0 0 1-6.13 1.51 11 11 0 0 1-3.58-1.13 18.41 18.41 0 0 1-9.59-14.3 30.09 30.09 0 0 1 0-5 8.73 8.73 0 0 1 4-6.74 7.41 7.41 0 0 1 5-1.17 8.23 8.23 0 0 1 4.59 2.09c.73.64 1.5 1.2 1.59 2.31q.09 1.26.3 2.52a5.79 5.79 0 0 0 .66 2.88.45.45 0 0 0 .63.16h.06a19.29 19.29 0 0 0 2.15-1.56c1.56-1.39 3-2.88 4.6-4.4-.65-.81-1.3-1.61-2-2.38a23.85 23.85 0 0 0-4.69-4 21 21 0 0 0-7.74-3.1 13.44 13.44 0 0 0-3-.25 16.65 16.65 0 0 0-4.58.61 15 15 0 0 0-6.63 3.9A15.52 15.52 0 0 0 79 59.92a16.46 16.46 0 0 0-1.14 7.74 26.39 26.39 0 0 0 1 5A24.93 24.93 0 0 0 83 80.07a26.93 26.93 0 0 0 4.69 4.73 35.8 35.8 0 0 0 3.23 2.3 15.09 15.09 0 0 0 4.46 1.76c1.73.27 3.5.89 5.27 1.21s3.57.56 5.34.84zm113.22 17.71v-9.15c0-.35 0-.44-.45-.47a3 3 0 0 0-1.89.32 2.52 2.52 0 0 1-.53.54 22.24 22.24 0 0 1-2.9 1.17 8.53 8.53 0 0 1-5.16-.14 12.23 12.23 0 0 1-4-2.22 18.37 18.37 0 0 1-4.52-5.11 19.93 19.93 0 0 1-2.71-8 13.06 13.06 0 0 1 2.65-10.08 5.58 5.58 0 0 1 2.21-1.77 8.28 8.28 0 0 1 5.65-.18 8.91 8.91 0 0 1 3.3 1.67 5.3 5.3 0 0 1 1.94 5c0 .93-.33 1.81.56 2.7.2 0 .32.31.57.08a11.64 11.64 0 0 0 1.81-1.17c1.21-1 2.34-2.11 3.47-3.16.37-.35.65-.79 1-1.13a.64.64 0 0 0 .05-.87l-.05-.06-.92-1.39a19.7 19.7 0 0 0-10.66-7.19 19.23 19.23 0 0 0-5.41-.84 23.73 23.73 0 0 0-4 .61 13.61 13.61 0 0 0-10 8.63 20.13 20.13 0 0 0-1.35 6.05 17.41 17.41 0 0 0 .41 4.47 24.28 24.28 0 0 0 4.85 10.45 23.58 23.58 0 0 0 4 4 27.09 27.09 0 0 0 2.91 2.13 22.78 22.78 0 0 0 6.4 2.49c1.7.27 3.39.8 5.08 1.11l8.06 1.26zm58.58 4.89a66.06 66.06 0 0 0 .25 7.44c0 .4 0 .57.49.65l11.58 1.81v-8z" transform="translate(-.98 -.52)"/><path d="M307.25 83.81a3.36 3.36 0 0 1-1.72 3.89c.16 1.26.32 2.48.47 3.66a40.17 40.17 0 0 0 .63 4.78c.19 1.57.27 2.25.39 3.33s.27 2.2.43 3.29.27 2.12.43 3.2.39 3.06.62 4.51.35 2.79.59 4.19.55 3.18.87 4.55a3.5 3.5 0 0 0 .36.85 4.62 4.62 0 0 1 .35 2.65l-12.77-2a2.69 2.69 0 0 1 1.23-3.15c.81-.45.77-1.12.65-2s-.39-2.53-.55-3.83-.39-2.58-.54-3.84-.32-2.56-.51-3.83-.36-2.7-.55-4.1-.28-2.3-.39-3.46a14.52 14.52 0 0 0-.2-2.24 1.41 1.41 0 0 0-.4.47c-.54 1.37-1.07 2.7-1.52 4.18-1.1 3.44-2.13 6.9-3.23 10.3a15.83 15.83 0 0 1-.74 2 .33.33 0 0 1-.32.21l-5-.78c-1.33-.21-1.94-1.32-2.3-2.61-.56-2-1.11-4.1-1.71-6.13l-2.2-7.23a10.12 10.12 0 0 0-.49-1.18.39.39 0 0 1-.28-.31.63.63 0 0 0-.2.28 12.3 12.3 0 0 1-.29 1.68c-.21 1.33-.41 2.67-.58 4s-.33 2.64-.54 4-.37 2.64-.57 4a28.92 28.92 0 0 1-.3 3.09 8.59 8.59 0 0 0 0 2.68 2.11 2.11 0 0 0 1 2.05c.6.36.56 1 .64 1.59a11.81 11.81 0 0 1 0 1.19l-11.3-1.77a6.71 6.71 0 0 1 .29-2.42.58.58 0 0 1 .36-.47c.73.12.85-.7 1.09-1.28a35.85 35.85 0 0 0 1.47-6.07c.37-2.24.78-4.51 1.15-6.79.25-1.46.41-3 .62-4.32s.54-3.62.78-5.44l.62-4.67a7.34 7.34 0 0 1 .21-1.34.68.68 0 0 0-.24-.7l-1-.77a1.67 1.67 0 0 1-.77-1.45v-1.52l12.62 2c.32 0 .52.08.64.59.88 3.27 1.84 6.61 2.8 9.89.44 1.66.92 3.33 1.36 5v.39a4.69 4.69 0 0 0 .24-.75l2.83-8.4c.61-1.72 1.19-3.4 1.76-5.08A.34.34 0 0 1 294 82l12.44 2zm-61.81 30a18.33 18.33 0 0 1-7.38-2.78 26.26 26.26 0 0 1-4.75-3.73 22.69 22.69 0 0 1-4.44-6 19.77 19.77 0 0 1-2.14-6.76v-5a18.15 18.15 0 0 1 2-8.51 13.88 13.88 0 0 1 4-4.4 15.44 15.44 0 0 1 7.32-3.28 33.84 33.84 0 0 1 4-.3 10.59 10.59 0 0 1 2.59.41 24.53 24.53 0 0 1 8.56 3.32 26.1 26.1 0 0 1 7.11 7 22.13 22.13 0 0 1 3.74 9.19c.12.81.19 1.62.23 2.42a17.67 17.67 0 0 1-.53 5.7 17.43 17.43 0 0 1-3.49 7.17 14.36 14.36 0 0 1-1.5 1.7 13.72 13.72 0 0 1-4 2.67 19.15 19.15 0 0 1-3.56 1.21 14.8 14.8 0 0 1-3.47.2 27.42 27.42 0 0 1-4.35-.2zm11-18a13.62 13.62 0 0 0-.35-3.85 19.6 19.6 0 0 0-2.62-7.21 11.73 11.73 0 0 0-2.9-3.28 8.34 8.34 0 0 0-5.7-1.86 17.48 17.48 0 0 0-3.07.45 7.55 7.55 0 0 0-4.53 4.94 19.94 19.94 0 0 0-1.27 6 21.69 21.69 0 0 0 .28 5.38 18.28 18.28 0 0 0 1.93 5.77 9.46 9.46 0 0 0 4 4.15 12.63 12.63 0 0 0 6.17 1.45 7.58 7.58 0 0 0 6.75-4.8 17.66 17.66 0 0 0 1.47-7.18zm-88-5.82v5.24a3.73 3.73 0 0 0 .94 2.48 3.78 3.78 0 0 1 .57 1.67 11.63 11.63 0 0 1 0 1.67l-11.71-1.83c-.72-.11-.8-.12-.84-1.1a2.55 2.55 0 0 1 1.6-2.61.41.41 0 0 0 .28-.49l-.1-27a15 15 0 0 0-.25-2.2 4.12 4.12 0 0 0-.61-1.2 4 4 0 0 1-.7-2.18v-2l11.53 1.8 4 .85a24.57 24.57 0 0 1 4.85 1.32 19.76 19.76 0 0 1 4 1.47 4.2 4.2 0 0 1 2.22 1.85c.47.69 1 1.36 1.5 2a10 10 0 0 1 1.5 4.64 14.27 14.27 0 0 0 .21 2.9 8.49 8.49 0 0 1-1.88 5.49 14 14 0 0 1-5.23 4 38.43 38.43 0 0 1-9.69 2.89zm0-5.77h.2a17.79 17.79 0 0 0 1.89-.8 33.84 33.84 0 0 0 4-2.59 7.92 7.92 0 0 0 3.21-4.53 5.91 5.91 0 0 0-1.23-5.48 7.07 7.07 0 0 0-4-2.44 9.39 9.39 0 0 0-4-.28c-.4-.06-.52.19-.48.59v9.62zm-14.9 14.22-13.47-2.11c0-1.4 0-2.77 1.14-3.51.44-.24.32-.83.2-1.29-.29-1.19-.58-2.33-.94-3.44l-1.64-4.88L128 81.52a.46.46 0 0 0-.44.2c-.59 1.71-1.18 3.42-1.74 5.09a8.16 8.16 0 0 0-.42 3.14 1.16 1.16 0 0 0 .65 1.16 1.92 1.92 0 0 1 .77 1.53 12 12 0 0 1 0 1.8l-10.69-1.67a3.89 3.89 0 0 1 .63-3.11.55.55 0 0 1 0-.22 3.56 3.56 0 0 0 1.6-2.3c.75-1.64 1.38-3.35 2-5 .83-2.33 1.7-4.66 2.53-7l3.11-8.82 3.24-9.55a.47.47 0 0 1 .56-.31l8.34 1.3a.65.65 0 0 1 .53.48c.61 1.77 1.26 3.55 1.84 5.36 1.18 3.58 2.28 7.15 3.47 10.73s2.41 7.33 3.71 11c.82 2.33 1.75 4.67 2.69 6.89a13.1 13.1 0 0 0 1.25 2.3 3 3 0 0 0 .89.85 1.88 1.88 0 0 1 .65 1.37 2.54 2.54 0 0 1 .37 1.73zM133 65.82c-1.31 3-2.14 6.23-3.2 9.46a20.43 20.43 0 0 0 6.6 1 91.59 91.59 0 0 0-3.4-10.46zm-23 25.72-9.36-1.47a25.12 25.12 0 0 1-5.27-1.21 15.09 15.09 0 0 1-4.46-1.76 35.8 35.8 0 0 1-3.23-2.3A26.93 26.93 0 0 1 83 80.07a24.93 24.93 0 0 1-4.07-7.41 26.39 26.39 0 0 1-1-5A16.46 16.46 0 0 1 79 59.92a15.52 15.52 0 0 1 3.37-5.25 15 15 0 0 1 6.63-3.9 16.65 16.65 0 0 1 4.58-.61 13.44 13.44 0 0 1 3 .25 21 21 0 0 1 7.74 3.1 23.85 23.85 0 0 1 4.69 4c.69.77 1.34 1.57 2 2.38-1.56 1.52-3 3-4.6 4.4a19.29 19.29 0 0 1-2.15 1.56.43.43 0 0 1-.63 0l-.06-.08a5.79 5.79 0 0 1-.66-2.88q-.21-1.26-.3-2.52c0-1.1-.86-1.67-1.59-2.31A8.23 8.23 0 0 0 96.46 56a7.41 7.41 0 0 0-5 1.17 8.73 8.73 0 0 0-4 6.74 30.09 30.09 0 0 0 0 5 18.41 18.41 0 0 0 9.59 14.3 11 11 0 0 0 3.58 1.13 8.15 8.15 0 0 0 6.13-1.51 16.73 16.73 0 0 1 1.87-1.11c.36-.21.69.11.85.48a8.85 8.85 0 0 1 .33 1.42zm113.22 17.8-8.06-1.26a29.81 29.81 0 0 1-5.08-1.11 23 23 0 0 1-6.41-2.49 28 28 0 0 1-2.9-2.13 23.23 23.23 0 0 1-4-4 24.3 24.3 0 0 1-4.86-10.45 18.34 18.34 0 0 1-.41-4.47 20.14 20.14 0 0 1 1.36-6 13.57 13.57 0 0 1 10-8.63 23.73 23.73 0 0 1 4-.61 19.23 19.23 0 0 1 5.41.84 19.7 19.7 0 0 1 10.66 7.19l.89 1.33a.68.68 0 0 1 0 .88c-.33.34-.61.78-1 1.12-1.13 1.06-2.26 2.17-3.47 3.17a11.27 11.27 0 0 1-1.82 1.17l-.56-.08a2.65 2.65 0 0 1-.57-2.7 5.27 5.27 0 0 0-1.94-5 8.8 8.8 0 0 0-3.35-1.67 8.28 8.28 0 0 0-5.65.18 5.61 5.61 0 0 0-2.22 1.77 13.09 13.09 0 0 0-2.64 10.08 19.93 19.93 0 0 0 2.71 8 18.21 18.21 0 0 0 4.52 5.11 12.13 12.13 0 0 0 4 2.22 8.52 8.52 0 0 0 5.16.14 23.43 23.43 0 0 0 2.9-1.17c.2 0 .32-.39.52-.54a3 3 0 0 1 1.9-.32c.28 0 .44.07.44.47z" transform="translate(-.98 -.52)" style="fill:#ffca08"/><path class="bbf79453-7ea5-4aaf-b3fc-6336e136b174" d="M256.65 95.8a17.66 17.66 0 0 1-1.47 7.18 7.58 7.58 0 0 1-6.75 4.8 12.63 12.63 0 0 1-6.17-1.45 9.46 9.46 0 0 1-4-4.15 18.28 18.28 0 0 1-1.93-5.77A21.69 21.69 0 0 1 236 91a19.94 19.94 0 0 1 1.27-6 7.55 7.55 0 0 1 4.57-5 17.48 17.48 0 0 1 3.07-.45 8.34 8.34 0 0 1 5.7 1.86 11.73 11.73 0 0 1 2.9 3.28 19.6 19.6 0 0 1 2.62 7.21 21.4 21.4 0 0 1 .52 3.88zm-88.08-11.6V68.94c0-.4 0-.53.48-.59a9.39 9.39 0 0 1 4 .28 7 7 0 0 1 4 2.44 5.88 5.88 0 0 1 1.22 5.48 7.87 7.87 0 0 1-3.21 4.53c-1.33.94-2.77 1.72-4 2.59a19.07 19.07 0 0 1-1.89.8zM133 65.82a90.28 90.28 0 0 1 3.4 10.53 19.91 19.91 0 0 1-6.6-1c1.06-3.27 1.89-6.49 3.2-9.5z" transform="translate(-.98 -.52)"/></g></svg>