<svg id="e52793b7-48f4-4529-820e-97f5be709b0d" data-name="texte" xmlns="http://www.w3.org/2000/svg" xmlns:xlink="http://www.w3.org/1999/xlink" viewBox="0 0 470.33 67.41"><defs><style>.b34040ee-b135-42d1-8894-db9dd88f0373{stroke:#9def48;stroke-miterlimit:10;stroke-width:0.75px;fill:url(#b2fe6cdd-02d8-4335-a80d-3ed90c33fde7);}.b7d20a35-04b4-4766-b424-59aac67081c8{fill:#9def48;}</style><linearGradient id="b2fe6cdd-02d8-4335-a80d-3ed90c33fde7" x1="0.38" y1="33.7" x2="469.96" y2="33.7" gradientUnits="userSpaceOnUse"><stop offset="0" stop-color="#032c02"/><stop offset="1" stop-color="#207a09"/></linearGradient></defs><polygon class="b34040ee-b135-42d1-8894-db9dd88f0373" points="0.38 5.91 102.44 5.91 108.57 0.38 150.31 0.38 158.22 5.91 461.65 6.11 469.96 16 469.96 59.72 50.81 59.72 42.7 67.03 7.89 67.03 0.38 59.72 0.38 5.91"/><path class="b7d20a35-04b4-4766-b424-59aac67081c8" d="M54.21,43H50.73V25l3.48-3.49Z" transform="translate(-0.06 -0.03)"/><path class="b7d20a35-04b4-4766-b424-59aac67081c8" d="M64.1,25.5a14,14,0,0,0-2,7,14.08,14.08,0,0,0,2,7h2.32V43H62.23a15.55,15.55,0,0,1-3.62-10.5A15.52,15.52,0,0,1,62.23,22H82.92a15.52,15.52,0,0,1,3.62,10.5A15.55,15.55,0,0,1,82.92,43H78.74V39.54h2.32a14.16,14.16,0,0,0,2-7,14.08,14.08,0,0,0-2-7Z" transform="translate(-0.06 -0.03)"/><path class="b7d20a35-04b4-4766-b424-59aac67081c8" d="M100.5,43H96.31a15.1,15.1,0,0,1-3.54-8.77h-3.3V30.78h3.3A15,15,0,0,1,96.31,22h21.14l-2,3.48H98.19a14.77,14.77,0,0,0-1.89,5.28h14.5v3.47H96.3a14.88,14.88,0,0,0,1.89,5.29h2.31Z" transform="translate(-0.06 -0.03)"/><path class="b7d20a35-04b4-4766-b424-59aac67081c8" d="M123.87,43h-3.49V25l3.49-3.49Z" transform="translate(-0.06 -0.03)"/><path class="b7d20a35-04b4-4766-b424-59aac67081c8" d="M133.21,39.54H149L151,43H129.73V25l3.48-3.49Z" transform="translate(-0.06 -0.03)"/><path class="b7d20a35-04b4-4766-b424-59aac67081c8" d="M161.5,40.05,158,43.53v-18H146.62V22H172.9V25.5H161.5Z" transform="translate(-0.06 -0.03)"/><path class="b7d20a35-04b4-4766-b424-59aac67081c8" d="M196.61,39.54h2.33a15.25,15.25,0,0,0,1.88-5.29H180.09A14.88,14.88,0,0,0,182,39.54h2.31V43H180.1a15.1,15.1,0,0,1-3.54-8.77h-3.3V30.78h3.3A15,15,0,0,1,180.1,22h20.7a15.09,15.09,0,0,1,3.55,8.77l-1.51.85V33.4l1.51.85A15.17,15.17,0,0,1,200.8,43h-4.19Zm-16.52-8.76h20.73a15.13,15.13,0,0,0-1.88-5.28H182A14.77,14.77,0,0,0,180.09,30.78Z" transform="translate(-0.06 -0.03)"/><path class="b7d20a35-04b4-4766-b424-59aac67081c8" d="M213.11,37.18,209.43,43h-4.35l13.34-21h4l13.24,21h-4.29l-3.64-5.84Zm12.48-3.47-5.13-8.22-5.17,8.22Z" transform="translate(-0.06 -0.03)"/><path class="b7d20a35-04b4-4766-b424-59aac67081c8" d="M246.17,40.05l-3.49,3.48v-18h-11.4V22h26.28V25.5H246.17Z" transform="translate(-0.06 -0.03)"/><path class="b7d20a35-04b4-4766-b424-59aac67081c8" d="M265.44,43H262V25l3.48-3.49Z" transform="translate(-0.06 -0.03)"/><path class="b7d20a35-04b4-4766-b424-59aac67081c8" d="M294.16,43h-20.7a15.55,15.55,0,0,1-3.62-10.5A15.52,15.52,0,0,1,273.46,22h20.7a15.56,15.56,0,0,1,3.61,10.5A15.6,15.6,0,0,1,294.16,43Zm-1.87-3.48a14.16,14.16,0,0,0,2-7,14.08,14.08,0,0,0-2-7h-17a14,14,0,0,0-2,7,14.06,14.06,0,0,0,2,7Z" transform="translate(-0.06 -0.03)"/><path class="b7d20a35-04b4-4766-b424-59aac67081c8" d="M306.2,25.5a14,14,0,0,0-2,7,14.08,14.08,0,0,0,2,7h2.31V43h-4.19a15.6,15.6,0,0,1-3.62-10.5A15.57,15.57,0,0,1,304.32,22H325a15.57,15.57,0,0,1,3.62,10.5A15.6,15.6,0,0,1,325,43h-4.19V39.54h2.33a14.15,14.15,0,0,0,2-7,14.06,14.06,0,0,0-2-7Z" transform="translate(-0.06 -0.03)"/></svg>