<svg id="ad50a685-ca8e-4603-a52a-f0fd0610ef5f" data-name="texte" xmlns="http://www.w3.org/2000/svg" xmlns:xlink="http://www.w3.org/1999/xlink" viewBox="0 0 470.33 67.41"><defs><style>.b98e6ba7-7a69-4896-8a5d-bd45cb372a67{stroke:#9def48;stroke-miterlimit:10;stroke-width:0.75px;fill:url(#fce966b4-38b6-4f05-8893-b570476a9a9f);}.b5490cab-853f-434d-b8ad-891cea7234ff{fill:#9def48;}</style><linearGradient id="fce966b4-38b6-4f05-8893-b570476a9a9f" x1="0.38" y1="33.7" x2="469.96" y2="33.7" gradientUnits="userSpaceOnUse"><stop offset="0" stop-color="#032c02"/><stop offset="1" stop-color="#207a09"/></linearGradient></defs><polygon class="b98e6ba7-7a69-4896-8a5d-bd45cb372a67" points="0.38 5.91 102.44 5.91 108.57 0.38 150.31 0.38 158.22 5.91 461.65 6.11 469.96 16 469.96 59.72 50.81 59.72 42.7 67.03 7.89 67.03 0.38 59.72 0.38 5.91"/><path class="b5490cab-853f-434d-b8ad-891cea7234ff" d="M69.47,41l-4,3.95V24.53H52.6v-4H82.38v4H69.47Z" transform="translate(-0.06 -0.03)"/><path class="b5490cab-853f-434d-b8ad-891cea7234ff" d="M91.32,44.39h-4V24l4-3.95Z" transform="translate(-0.06 -0.03)"/><path class="b5490cab-853f-434d-b8ad-891cea7234ff" d="M123.17,37.3h4.25a16.6,16.6,0,0,1-3.57,7.09H100.4a17.67,17.67,0,0,1-4.1-11.91,17.66,17.66,0,0,1,4.1-11.9h23.45a16.6,16.6,0,0,1,3.57,7.09h-4.25a17.8,17.8,0,0,0-1.42-3.14H102.52a15.84,15.84,0,0,0-2.27,7.95,15.84,15.84,0,0,0,2.27,8h19.23A18.39,18.39,0,0,0,123.17,37.3Z" transform="translate(-0.06 -0.03)"/><path class="b5490cab-853f-434d-b8ad-891cea7234ff" d="M144.72,44.39a17.25,17.25,0,0,1-4-10l1.71-1v-2l-1.71-1a17.16,17.16,0,0,1,4-9.94h23.46a17,17,0,0,1,4,9.94l-1.71,1v2l1.71,1a17.11,17.11,0,0,1-4,10ZM168.2,30.51a17,17,0,0,0-2.13-6H146.83a16.81,16.81,0,0,0-2.12,6Zm-2.13,9.92a17.22,17.22,0,0,0,2.13-6H144.71a17,17,0,0,0,2.12,6Z" transform="translate(-0.06 -0.03)"/><path class="b5490cab-853f-434d-b8ad-891cea7234ff" d="M203.08,44.39H179.62a17.72,17.72,0,0,1-4.1-11.91,17.65,17.65,0,0,1,4.1-11.9h23.46a17.65,17.65,0,0,1,4.1,11.9A17.72,17.72,0,0,1,203.08,44.39Zm-2.11-4a16,16,0,0,0,2.26-8A16,16,0,0,0,201,24.53H181.74a15.94,15.94,0,0,0-2.27,7.95,15.94,15.94,0,0,0,2.27,8Zm-11.59-5v-6h3.94v6Z" transform="translate(-0.06 -0.03)"/></svg>