<svg xmlns="http://www.w3.org/2000/svg" viewBox="0 0 544.21 486.29" xmlns:v="https://vecta.io/nano"><path d="M15.74 26H520.5v373.16H15.74z" fill="#191919"/><path d="M535.88 30.82a31.25 31.25 0 0 0-.4-4.14 20 20 0 0 0-2.63-7.54c-1.92-2.89-4.87-4-11-4.14h-.13s-4.17-.79-13.28-2-23.16-2.75-42.87-4.33C426.18 5.51 362.57 0 272.1 0h0C181.63 0 118.03 5.51 78.64 8.67c-19.69 1.58-33.73 3.16-42.84 4.35s-13.26 2-13.27 2h-.13c-6.18.16-9.12 1.26-11.05 4.15a20 20 0 0 0-2.63 7.53 28.36 28.36 0 0 0-.39 4.15C2.08 118.7 0 193.39 0 254.25c0 117 7.7 182.83 8.33 192.35.47 7 3.86 10.89 7.16 13.2a19.13 19.13 0 0 0 4.49 2.3 17 17 0 0 0 2 .57h0c.34.05 7.16 1 19.44 2.52 12.92 1.55 31.83 3.64 55.42 5.72v8.85a6.47 6.47 0 0 0 6.47 6.47h168.81 0 168.81a6.47 6.47 0 0 0 6.47-6.47v-8.85c23.6-2.08 42.51-4.17 55.42-5.73l19.45-2.51h0a17.65 17.65 0 0 0 2-.57 19.33 19.33 0 0 0 4.49-2.3 16.64 16.64 0 0 0 7.16-13.2c.63-9.52 8.33-75.32 8.33-192.35-.04-60.84-2.13-135.58-8.37-223.43zm-21.13 180c-1.8 75.81-12.63 172.68-12.63 172.68s-111.91 10.23-230.43 9.62-230.06-10.47-230.06-10.47-16.25-74.37-13.84-168.24 15-168.11 15-168.11 122.42-11.63 227.11-11 230.38 12.47 230.38 12.47 16.28 87.24 14.47 163.04z" fill="#a1a1a1"/><path d="M273.49 393.6c102.89.43 214.6-8.57 228.93-11a354.75 354.75 0 0 0 11.65 10.51s-160.39 8.76-240.9 8.76-243.2-8.76-243.2-8.76l11.66-10.51s128.1 10.57 231.86 11z" fill="#bbb"/><path d="M31.39 30.32l11.38 16c-11.35 74.14-8.1 220.43-4.81 293 1.18 26 3.67 43.33 3.67 43.33l-11.66 10.51C16.28 207.28 31.39 30.32 31.39 30.32zm481.26 0l-11.37 15.99c11.34 74.14 8.1 220.43 4.8 293-1.18 26-3.66 43.33-3.66 43.33l11.65 10.51c13.7-185.87-1.42-362.83-1.42-362.83z" fill="#d9d9d9"/><path d="M138.71 462.55h7.58l.69-1.16-.13-6.04-7.08-.06-1.06.6v6.66z" fill="#008d36"/><path d="M138.71 455.9h7.58v6.66h-7.58z" fill="#8bbe23"/><path d="M138.71 462.55l7.58-6.66h-7.58v6.66z" fill="#f4f4f4" opacity=".63"/><path d="M487.4 354.15q-18.84 1.33-37.7 2.44 1.2-25.79 2-51.54 19.05-.72 38.1-1.6-.95 25.32-2.4 50.7z" fill="#fff"/><path d="M449.7 356.59q-18.85 1.11-37.72 2 .94-26.13 1.57-52.24 19.07-.57 38.13-1.29-.78 25.75-1.98 51.53z" fill="#d8d8d8"/><path d="M411.98 358.58q-18.87.83-37.7 1.53.72-26.38 1.17-52.77 19.08-.42 38.15-1-.66 26.07-1.62 52.24z" fill="#b0b4b0"/><path d="M374.28 360.11q-18.87.65-37.76 1.07.46-26.56.76-53.14 19.08-.27 38.17-.7-.51 26.38-1.17 52.77z" fill="#909090"/><path d="M336.47 361.18q-18.87.42-37.76.62.21-26.67.35-53.35 19.08-.14 38.17-.41-.28 26.58-.76 53.14z" fill="#787c78"/><path d="M298.71 361.8q-18.89.19-37.77.16 0-26.7-.06-53.41 19.09 0 38.18-.1-.13 26.69-.35 53.35z" fill="#686c68"/><path d="M260.94 361.96q-18.89 0-37.77-.3-.28-26.64-.47-53.3 19.09.17 38.18.19.03 26.72.06 53.41z" fill="#585858"/><path d="M223.17 361.66q-18.89-.25-37.77-.75-.53-26.52-.87-53 19.08.32 38.17.49.18 26.62.47 53.26z" fill="#484848"/><path d="M185.4 360.91q-18.87-.48-37.75-1.21-.78-26.31-1.28-52.62 19.08.46 38.16.79.35 26.54.87 53.04z" fill="#303430"/><path d="M147.65 359.7q-18.87-.71-37.74-1.66-1-26-1.68-52.05 19.07.63 38.14 1.09.5 26.33 1.28 52.62z" fill="#202420"/><path d="M109.91 358.04q-18.85-.94-37.72-2.12-1.28-25.68-2.09-51.31 19.06.76 38.13 1.38.65 26.01 1.68 52.05z" fill="#101010"/><path d="M490.28 287.41q-19.1.72-38.2 1.32.63-25.75.83-51.47 19.19-.18 38.37-.41-.2 25.22-1 50.56z" fill="#0000f8"/><path d="M452.12 288.69q-19.11.59-38.22 1.07.5-26.12.66-52.2 19.2-.15 38.39-.34-.2 25.72-.83 51.47z" fill="#0000d8"/><path d="M413.9 289.76q-19.11.47-38.24.82.38-26.39.49-52.76 19.2-.11 38.41-.26-.16 26.1-.66 52.2z" fill="#0000b0"/><path d="M375.66 290.58q-19.12.34-38.26.58.24-26.58.32-53.16 19.21-.07 38.43-.18-.12 26.38-.49 52.76z" fill="#000090"/><path d="M337.4 291.16q-19.12.22-38.26.33.11-26.68.14-53.38 19.23 0 38.44-.11-.07 26.58-.32 53.16z" fill="#000078"/><path d="M299.14 291.49q-19.14.1-38.27.09v-53.45q19.23 0 38.44 0-.03 26.67-.17 53.36z" fill="#000068"/><path d="M260.87 291.58q-19.14 0-38.27-.16-.15-26.67-.2-53.34 19.23 0 38.44.05z" fill="#000058"/><path d="M222.6 291.41q-19.14-.15-38.26-.41-.29-26.52-.37-53.05l38.43.12q.05 26.68.2 53.34z" fill="#000048"/><path d="M184.34 291.01q-19.14-.25-38.26-.65-.41-26.31-.53-52.61 19.2.12 38.42.21.09 26.52.37 53.05z" fill="#000030"/><path d="M146.08 290.41q-19.12-.39-38.23-.89-.54-26-.71-52 19.2.17 38.41.28.12 26.26.53 52.61z" fill="#000020"/><path d="M107.85 289.47q-19.12-.51-38.22-1.15-.66-25.62-.88-51.21 19.18.19 38.39.36.14 25.99.71 52z" fill="#000010"/><path d="M491.42 220.75l-38.39.13q.06-25.73-.31-51.45 19.17.34 38.32.78.45 25.28.38 50.54z" fill="#00fc00"/><path d="M453.03 220.88l-38.41.1q.06-26.1-.25-52.19 19.18.28 38.35.64.38 25.72.31 51.45z" fill="#00d800"/><path d="M414.62 220.98l-38.42.08q0-26.38-.19-52.76 19.18.21 38.36.49.3 26.1.25 52.19z" fill="#00b400"/><path d="M376.2 221.06l-38.45.05q0-26.58-.12-53.16 19.2.14 38.38.35.27 26.37.19 52.76z" fill="#009000"/><path d="M337.75 221.11q-19.22 0-38.45 0 0-26.69-.06-53.39 19.2.07 38.39.2.15 26.61.12 53.19z" fill="#007c00"/><path d="M299.28 221.14h-38.44q0-26.73 0-53.45 19.2 0 38.39.05.05 26.67.05 53.4z" fill="#006c00"/><path d="M260.84 221.15h-38.46q0-26.67.08-53.34 19.19-.09 38.39-.1-.01 26.7-.01 53.44z" fill="#005800"/><path d="M222.38 221.14h-38.45q0-26.53.14-53.06 19.2-.16 38.39-.24-.09 26.63-.08 53.3z" fill="#004800"/><path d="M183.93 221.1l-38.44-.06q0-26.31.21-52.61 19.18-.24 38.37-.39-.16 26.52-.14 53.06z" fill="#003400"/><path d="M145.49 221.04l-38.42-.09q0-26 .27-52 19.17-.3 38.36-.53-.24 26.31-.21 52.62z" fill="#002400"/><path d="M107.07 220.95l-38.4-.11q-.06-25.59.33-51.2 19.17-.37 38.34-.68-.31 26-.27 51.99z" fill="#001000"/><path d="M490.63 151.58q-19.11-.6-38.25-1.11-.52-25.74-1.5-51.51 19 .9 37.94 2 1.17 25.34 1.81 50.62z" fill="#f80000"/><path d="M452.38 150.47q-19.12-.51-38.27-.91-.44-26.1-1.2-52.22 19 .72 38 1.62.93 25.77 1.47 51.51z" fill="#d80000"/><path d="M414.11 149.56q-19.14-.41-38.3-.7-.31-26.38-.88-52.76 19 .52 38 1.24.75 26.07 1.18 52.22z" fill="#b00000"/><path d="M375.81 148.86q-19.15-.3-38.31-.49-.2-26.58-.57-53.15 19 .34 38 .88.57 26.38.88 52.76z" fill="#900000"/><path d="M337.5 148.41q-19.16-.19-38.32-.28-.09-26.7-.26-53.37 19 .16 38 .5.36 26.54.58 53.15z" fill="#780000"/><path d="M299.18 148.09q-19.15-.09-38.32-.08 0-26.72 0-53.42 19 0 38 .13.23 26.69.32 53.37z" fill="#680000"/><path d="M260.86 148.01q-19.17 0-38.32.14.12-26.67.35-53.32 19-.21 38-.24-.02 26.7-.03 53.42z" fill="#580000"/><path d="M222.54 148.15q-19.17.12-38.32.34.24-26.52.66-53.05 19-.39 38-.61-.21 26.65-.34 53.32z" fill="#480000"/><path d="M184.22 148.49q-19.15.22-38.31.55.35-26.3 1-52.61 19-.59 38-1-.45 26.53-.69 53.06z" fill="#300000"/><path d="M145.91 149.04q-19.14.33-38.29.76.47-26 1.29-52 19-.76 38-1.35-.63 26.29-1 52.59z" fill="#200000"/><path d="M107.62 149.8q-19.14.44-38.26 1 .55-25.61 1.59-51.26 19-1 38-1.73-.86 25.99-1.33 51.99z" fill="#100000"/><path d="M54.48 360.84a1.68 1.68 0 0 1-.07.62 1.83 1.83 0 0 1 .14.63 1.65 1.65 0 0 1-.07.61 1.63 1.63 0 0 1 .14.63 1.65 1.65 0 0 1-.07.61l-.81-.06a1.82 1.82 0 0 1 .15.63 1.9 1.9 0 0 0 .07 1.24 1.63 1.63 0 0 1-.07.61h-.54a1.82 1.82 0 0 1 .15.63 1.63 1.63 0 0 1-.07.61l-1.61-.12a1.72 1.72 0 0 1-.15-.63 1.6 1.6 0 0 1 .07-.61h-.54a1.72 1.72 0 0 1-.14-.63 1.42 1.42 0 0 1 .07-.61l-1.61-.12a1.63 1.63 0 0 1 .14.63 1.45 1.45 0 0 1-.07.61h-.53a1.63 1.63 0 0 1 .14.63 1.45 1.45 0 0 1-.07.61l-1.61-.12a1.72 1.72 0 0 1-.14-.63 1.27 1.27 0 0 1 .07-.61h-.54a1.94 1.94 0 0 1-.15-.63 1.57 1.57 0 0 1 .07-.61 1.71 1.71 0 0 1-.14-.62 1.38 1.38 0 0 1 .07-.61l-.81-.07a1.66 1.66 0 0 1-.14-.62 1.27 1.27 0 0 1 .07-.61 1.72 1.72 0 0 1-.15-.63 1.6 1.6 0 0 1 .07-.61 1.71 1.71 0 0 1-.14-.62 1.4 1.4 0 0 1 .07-.61 1.94 1.94 0 0 1-.15-.63 1.39 1.39 0 0 1 .08-.61l2.15.16a1.62 1.62 0 0 1 .14.62 1.45 1.45 0 0 1-.07.61 1.63 1.63 0 0 1 .14.63 1.45 1.45 0 0 1-.07.61 1.82 1.82 0 0 1 .15.63 1.87 1.87 0 0 0 .07 1.23 1.49 1.49 0 0 1-.07.62 1.76 1.76 0 0 1 .15.62 1.63 1.63 0 0 1-.07.61l.8.06a1.71 1.71 0 0 1-.14-.62 1.38 1.38 0 0 1 .07-.61h.53a1.77 1.77 0 0 1-.14-.63 1.4 1.4 0 0 1 .07-.61 1.72 1.72 0 0 1-.14-.63 1.4 1.4 0 0 1 .07-.61 1.94 1.94 0 0 1-.15-.63 1.41 1.41 0 0 1 .08-.61 1.71 1.71 0 0 1-.15-.62 1.63 1.63 0 0 1 .07-.62l1.62.12a1.63 1.63 0 0 1 .14.63 1.65 1.65 0 0 1-.07.61 1.63 1.63 0 0 1 .14.63 1.47 1.47 0 0 1-.07.61 1.62 1.62 0 0 1 .14.62 1.49 1.49 0 0 1-.07.62 1.82 1.82 0 0 1 .15.62 1.63 1.63 0 0 1-.07.61h.53a1.82 1.82 0 0 1 .15.63 1.63 1.63 0 0 1-.07.61l.8.06a1.71 1.71 0 0 1-.14-.62 1.45 1.45 0 0 1 .07-.62 1.72 1.72 0 0 1-.14-.63 1.28 1.28 0 0 1 .07-.61 1.71 1.71 0 0 1-.15-.62 1.44 1.44 0 0 1 .08-.62 1.71 1.71 0 0 1-.15-.62 1.63 1.63 0 0 1 .07-.62 1.71 1.71 0 0 1-.14-.62 1.57 1.57 0 0 1 .07-.61l2.16.15a1.83 1.83 0 0 1 .14.62 1.68 1.68 0 0 1-.07.62 1.83 1.83 0 0 1 .14.54zm10.92.76a1.44 1.44 0 0 1-.08.61 1.94 1.94 0 0 1 .15.64 1.81 1.81 0 0 0 .06 1.24 1.49 1.49 0 0 1-.07.62 1.9 1.9 0 0 1 .07 1.24 1.73 1.73 0 0 1 .14.64 1.65 1.65 0 0 1-.07.61 1.63 1.63 0 0 1 .14.63 1.68 1.68 0 0 1-.07.62l-2.15-.15a1.82 1.82 0 0 1-.14-.63 1.45 1.45 0 0 1 .07-.62 1.72 1.72 0 0 1-.17-.64 1.4 1.4 0 0 1 .07-.61 1.82 1.82 0 0 1-.14-.63 1.45 1.45 0 0 1 .07-.62l-4.3-.3a1.63 1.63 0 0 1 .14.63 1.45 1.45 0 0 1-.07.61 1.63 1.63 0 0 1 .14.63 1.45 1.45 0 0 1-.07.61 1.94 1.94 0 0 1 .15.63 1.48 1.48 0 0 1-.08.62l-2.14-.16a1.94 1.94 0 0 1-.15-.63 1.57 1.57 0 0 1 .07-.61 1.72 1.72 0 0 1-.14-.63 1.57 1.57 0 0 1 .07-.61 1.72 1.72 0 0 1-.14-.63 1.4 1.4 0 0 1 .07-.61 1.77 1.77 0 0 1-.14-.63 1.45 1.45 0 0 1 .07-.62 1.72 1.72 0 0 1-.14-.63 1.42 1.42 0 0 1 .07-.61 1.72 1.72 0 0 1-.14-.63 1.4 1.4 0 0 1 .07-.61 1.72 1.72 0 0 1-.14-.63 1.4 1.4 0 0 1 .07-.61l2.15.15a1.63 1.63 0 0 1 .14.63 1.47 1.47 0 0 1-.07.61 1.63 1.63 0 0 1 .14.63 1.45 1.45 0 0 1-.07.61 1.63 1.63 0 0 1 .14.63 1.45 1.45 0 0 1-.07.61l4.3.3a1.72 1.72 0 0 1-.14-.63 1.6 1.6 0 0 1 .07-.61 1.72 1.72 0 0 1-.14-.63 1.66 1.66 0 0 1 .07-.62 2 2 0 0 1-.14-.63 1.39 1.39 0 0 1 .08-.61l2.15.14a1.63 1.63 0 0 1 .14.63 1.68 1.68 0 0 1-.07.62 1.83 1.83 0 0 1 .17.64zm9.49 6.23a1.73 1.73 0 0 1 .14.64 1.52 1.52 0 0 1-.07.62l-5.37-.37a1.72 1.72 0 0 1-.14-.63 1.45 1.45 0 0 1 .07-.62l1.61.11a1.72 1.72 0 0 1-.14-.63 1.63 1.63 0 0 1 .07-.62 2 2 0 0 1-.14-.63 1.44 1.44 0 0 1 .08-.62 1.72 1.72 0 0 1-.14-.63 1.45 1.45 0 0 1 .07-.62 1.72 1.72 0 0 1-.14-.63 1.66 1.66 0 0 1 .07-.62 2 2 0 0 1-.14-.63 1.64 1.64 0 0 1 .08-.62l-1.62-.1a2 2 0 0 1-.14-.63 1.61 1.61 0 0 1 .08-.62l5.38.35a1.63 1.63 0 0 1 .14.63 1.68 1.68 0 0 1-.07.62l-1.62-.11a1.73 1.73 0 0 1 .14.64 1.63 1.63 0 0 1-.07.61 2 2 0 0 1 .14.64 1.61 1.61 0 0 1-.08.61 2 2 0 0 1 .07 1.26 1.83 1.83 0 0 1 .14.63 1.51 1.51 0 0 1-.08.62 1.63 1.63 0 0 1 .14.63 1.52 1.52 0 0 1-.07.62zm12.22-5.48l-3.23-.19a1.63 1.63 0 0 1 .13.63 1.49 1.49 0 0 1-.07.62 2 2 0 0 1 .14.64 1.67 1.67 0 0 1-.08.62 1.83 1.83 0 0 1 .14.63 1.75 1.75 0 0 1-.08.63 1.63 1.63 0 0 1 .14.63 1.48 1.48 0 0 1-.08.62 1.64 1.64 0 0 1 .14.64 1.71 1.71 0 0 1-.07.62 1.83 1.83 0 0 1 .14.63 1.67 1.67 0 0 1-.08.62l-2.15-.14a1.72 1.72 0 0 1-.14-.63 1.44 1.44 0 0 1 .08-.62 1.72 1.72 0 0 1-.14-.63 1.43 1.43 0 0 1 .07-.62 2.07 2.07 0 0 1-.14-.64 1.61 1.61 0 0 1 .08-.62 1.72 1.72 0 0 1-.14-.63 1.44 1.44 0 0 1 .08-.62 1.82 1.82 0 0 1-.14-.64 1.44 1.44 0 0 1 .08-.62 1.54 1.54 0 0 1-.14-.63 1.45 1.45 0 0 1 .07-.62l-3.23-.2a1.82 1.82 0 0 1-.13-.64 1.47 1.47 0 0 1 .07-.62l8.62.53a1.63 1.63 0 0 1 .13.63 1.49 1.49 0 0 1-.07.62zm5.72 4.11a1.84 1.84 0 0 1 .13.63 1.77 1.77 0 0 1-.07.63 1.84 1.84 0 0 1 .13.63 1.77 1.77 0 0 1-.07.63l4.29.25a1.68 1.68 0 0 1 .14.64 1.48 1.48 0 0 1-.08.62l-6.44-.38a1.82 1.82 0 0 1-.14-.64 1.44 1.44 0 0 1 .08-.62 1.82 1.82 0 0 1-.14-.64 1.44 1.44 0 0 1 .08-.62 1.59 1.59 0 0 1-.14-.64 1.45 1.45 0 0 1 .07-.62 1.78 1.78 0 0 1-.13-.64 1.44 1.44 0 0 1 .08-.62 1.73 1.73 0 0 1-.14-.64 1.44 1.44 0 0 1 .08-.62 1.72 1.72 0 0 1-.14-.63 1.49 1.49 0 0 1 .08-.63 1.72 1.72 0 0 1-.14-.63 1.51 1.51 0 0 1 .08-.63l6.46.37a1.73 1.73 0 0 1 .14.64 1.67 1.67 0 0 1-.08.62l-4.31-.24a1.63 1.63 0 0 1 .14.63 1.72 1.72 0 0 1-.08.63 1.83 1.83 0 0 1 .14.63 1.72 1.72 0 0 1-.08.63l4.3.25a1.63 1.63 0 0 1 .14.63 1.72 1.72 0 0 1-.08.63z" fill="#fdfffd"/><path d="M51.28 296.09h-1.09a1.55 1.55 0 0 1 .12.62 1.61 1.61 0 0 1-.08.61l1.09.05a1.73 1.73 0 0 1 .13.62 1.82 1.82 0 0 1-.09.61 1.84 1.84 0 0 1 .13.63 1.87 1.87 0 0 1-.09.61l-1.09-.05a1.63 1.63 0 0 1 .13.63 1.45 1.45 0 0 1-.09.61l-7.63-.33a2 2 0 0 1-.13-.62 1.54 1.54 0 0 1 .09-.61 1.71 1.71 0 0 1-.13-.62 1.45 1.45 0 0 1 .09-.62 1.62 1.62 0 0 1-.13-.62 1.4 1.4 0 0 1 .09-.61 1.49 1.49 0 0 1-.13-.62 1.58 1.58 0 0 1 .08-.61 1.67 1.67 0 0 1-.12-.62 1.58 1.58 0 0 1 .08-.61 1.89 1.89 0 0 1-.13-.62 1.75 1.75 0 0 1 .09-.61 1.67 1.67 0 0 1-.13-.62 1.75 1.75 0 0 1 .09-.61l7.64.3a1.58 1.58 0 0 1 .13.62 1.93 1.93 0 0 1-.09.62h1.09a1.58 1.58 0 0 1 .13.62 1.82 1.82 0 0 1-.09.61 1.84 1.84 0 0 1 .13.63 1.87 1.87 0 0 1-.09.61zm-2.31-.71a1.38 1.38 0 0 1 .09-.61 1.52 1.52 0 0 1-.13-.62 1.43 1.43 0 0 1 .09-.62l-4.37-.17a1.42 1.42 0 0 1 .13.62 1.45 1.45 0 0 1-.09.61 1.78 1.78 0 0 1 0 1.23l4.37.18a1.49 1.49 0 0 1-.07-.59zm.08 2.47a1.38 1.38 0 0 1 .09-.61l-4.36-.18a1.73 1.73 0 0 1 .13.62 1.87 1.87 0 0 1-.09.61 1.58 1.58 0 0 1 .13.62 1.43 1.43 0 0 1-.09.61l4.36.19a1.71 1.71 0 0 1-.13-.62 1.43 1.43 0 0 1 .09-.62 1.67 1.67 0 0 1-.11-.62zm13.4 3.02a1.89 1.89 0 0 1-.09.62l-7.63-.31a1.72 1.72 0 0 1-.13-.63 1.38 1.38 0 0 1 .09-.61 1.72 1.72 0 0 1-.13-.63 1.4 1.4 0 0 1 .09-.61 1.72 1.72 0 0 1-.13-.63 1.4 1.4 0 0 1 .09-.61 1.71 1.71 0 0 1-.13-.62 1.43 1.43 0 0 1 .09-.62 1.67 1.67 0 0 1-.13-.62 1.45 1.45 0 0 1 .09-.62 1.67 1.67 0 0 1-.13-.62 1.45 1.45 0 0 1 .09-.62 1.62 1.62 0 0 1-.13-.62 1.54 1.54 0 0 1 .09-.61l2.18.08a1.58 1.58 0 0 1 .13.62 1.48 1.48 0 0 1-.09.62 1.58 1.58 0 0 1 .13.62 1.48 1.48 0 0 1-.09.62 1.58 1.58 0 0 1 .13.62 1.5 1.5 0 0 1-.09.62 1.58 1.58 0 0 1 .13.62 1.93 1.93 0 0 1-.09.62 1.78 1.78 0 0 1 .13.62 1.93 1.93 0 0 1-.09.62 1.78 1.78 0 0 1 .13.62 1.93 1.93 0 0 1-.09.62l5.45.22a1.78 1.78 0 0 1 .13.62zm10.71-5.81a1.5 1.5 0 0 1-.09.62 1.62 1.62 0 0 1 .13.62 1.92 1.92 0 0 0 0 1.25 1.48 1.48 0 0 1-.09.62 1.63 1.63 0 0 1 .13.63 1.48 1.48 0 0 1-.09.62 1.63 1.63 0 0 1 .13.63 1.89 1.89 0 0 1-.09.62H72.1a1.64 1.64 0 0 1 .12.63 1.5 1.5 0 0 1-.09.62l-6.53-.26a1.54 1.54 0 0 1-.13-.63 1.4 1.4 0 0 1 .09-.61l-1.09-.05a1.62 1.62 0 0 1-.13-.62 1.43 1.43 0 0 1 .09-.62 1.72 1.72 0 0 1-.13-.63 1.4 1.4 0 0 1 .09-.61 1.72 1.72 0 0 1-.13-.63 1.45 1.45 0 0 1 .09-.62 1.67 1.67 0 0 1-.13-.62 1.81 1.81 0 0 1 .09-.62 1.72 1.72 0 0 1-.12-.63 1.45 1.45 0 0 1 .09-.62 1.62 1.62 0 0 1-.13-.62 1.43 1.43 0 0 1 .09-.62l2.18.08a1.63 1.63 0 0 1 .13.63 1.45 1.45 0 0 1-.09.61 1.63 1.63 0 0 1 .13.63 1.89 1.89 0 0 1-.09.62 1.64 1.64 0 0 1 .12.63 1.43 1.43 0 0 1-.09.61 1.63 1.63 0 0 1 .13.63 1.48 1.48 0 0 1-.09.62 5.51 5.51 0 0 0 .17 1.87 1.89 1.89 0 0 1-.09.62l4.36.17a1.72 1.72 0 0 1-.13-.63 1.43 1.43 0 0 1 .09-.62 1.72 1.72 0 0 1-.13-.63 1.45 1.45 0 0 1 .09-.62 1.67 1.67 0 0 1-.13-.62 1.58 1.58 0 0 1 .1-.62 1.72 1.72 0 0 1-.13-.63 1.43 1.43 0 0 1 .09-.62 1.72 1.72 0 0 1-.13-.63 1.85 1.85 0 0 1 .09-.62 1.72 1.72 0 0 1-.12-.63 1.45 1.45 0 0 1 .09-.62l2.18.08a1.63 1.63 0 0 1 .13.63 1.69 1.69 0 0 1-.09.62 1.64 1.64 0 0 1 .15.59zm5.44 3.35a1.64 1.64 0 0 1 .12.63 1.48 1.48 0 0 1-.09.62 1.63 1.63 0 0 1 .13.63 1.66 1.66 0 0 1-.09.62l4.36.16a1.63 1.63 0 0 1 .13.63 1.74 1.74 0 0 1-.1.63l-6.54-.25a1.71 1.71 0 0 1-.12-.62 1.47 1.47 0 0 1 .09-.63 1.72 1.72 0 0 1-.13-.63 1.45 1.45 0 0 1 .09-.62 1.72 1.72 0 0 1-.13-.63 1.61 1.61 0 0 1 .1-.62 1.54 1.54 0 0 1-.13-.63 1.45 1.45 0 0 1 .09-.62 1.72 1.72 0 0 1-.1-.67 1.61 1.61 0 0 1 .1-.62 1.54 1.54 0 0 1-.13-.63 1.45 1.45 0 0 1 .09-.62 1.72 1.72 0 0 1-.13-.63 1.61 1.61 0 0 1 .1-.62l6.55.22a1.86 1.86 0 0 1 .12.63 1.48 1.48 0 0 1-.09.62l-4.37-.14a1.63 1.63 0 0 1 .13.63 1.69 1.69 0 0 1-.09.62 1.64 1.64 0 0 1 .12.63 1.48 1.48 0 0 1-.09.62l4.36.15a1.63 1.63 0 0 1 .13.63 1.55 1.55 0 0 1-.09.63z" fill="#0000f8"/><path d="M50.56 228.26a1.47 1.47 0 0 1-.1.62 1.56 1.56 0 0 1 .11.62 1.85 1.85 0 0 0 0 1.23 1.49 1.49 0 0 1-.11.62h-1.08a1.56 1.56 0 0 1 .11.62 1.63 1.63 0 0 1-.1.61l-5.49-.05a1.62 1.62 0 0 1-.11-.61 1.58 1.58 0 0 1 .1-.62H42.8a1.44 1.44 0 0 1-.12-.61 1.56 1.56 0 0 1 .11-.62h-1.1a5.44 5.44 0 0 0-.12-1.84 1.43 1.43 0 0 1 .11-.62 1.7 1.7 0 0 1 0-1.23h1.1a1.62 1.62 0 0 1-.12-.61 1.56 1.56 0 0 1 .11-.62h1.1a1.49 1.49 0 0 1-.11-.62 1.39 1.39 0 0 1 .1-.61h5.49a1.64 1.64 0 0 1 .11.62 1.67 1.67 0 0 1-.11.62h1.1a1.64 1.64 0 0 1 .11.62 1.46 1.46 0 0 1-.11.62h-2.17a1.67 1.67 0 0 1-.11-.62 1.43 1.43 0 0 1 .11-.62h-3.3a1.43 1.43 0 0 1 .12.62 1.58 1.58 0 0 1-.11.61h-1.1a1.38 1.38 0 0 1 .12.61 1.64 1.64 0 0 1-.11.62 1.56 1.56 0 0 1 .11.62 1.45 1.45 0 0 1-.1.61 1.56 1.56 0 0 1 .11.62 1.63 1.63 0 0 1-.1.61h1.09a1.55 1.55 0 0 1 .12.62 1.62 1.62 0 0 1-.11.61h3.29a1.67 1.67 0 0 1-.11-.62 1.39 1.39 0 0 1 .1-.61 1.67 1.67 0 0 1-.11-.62 1.61 1.61 0 0 1 .1-.62h-1.64a1.64 1.64 0 0 1-.11-.62 1.39 1.39 0 0 1 .1-.61h3.84a1.64 1.64 0 0 1 .08.65zm10.88 3.15a1.59 1.59 0 0 1 .12.62 1.64 1.64 0 0 1-.11.62h-2.19a1.46 1.46 0 0 1-.12-.62 1.6 1.6 0 0 1 .14-.62h-.82a1.52 1.52 0 0 1-.12-.62 1.56 1.56 0 0 1 .11-.62h-.82a1.49 1.49 0 0 1-.12-.62 1.6 1.6 0 0 1 .11-.62h-2.74a1.6 1.6 0 0 1 .11.62 1.67 1.67 0 0 1-.11.62 1.4 1.4 0 0 1 .12.62 1.67 1.67 0 0 1-.11.62 1.56 1.56 0 0 1 .11.62 1.45 1.45 0 0 1-.1.61h-2.19a1.46 1.46 0 0 1-.12-.62 1.55 1.55 0 0 1 .11-.61 1.67 1.67 0 0 1-.12-.62 1.6 1.6 0 0 1 .11-.62 1.64 1.64 0 0 1-.11-.62 1.39 1.39 0 0 1 .1-.61 1.71 1.71 0 0 1-.11-.62 1.58 1.58 0 0 1 .1-.62 1.67 1.67 0 0 1-.11-.62 1.6 1.6 0 0 1 .11-.62 1.46 1.46 0 0 1-.11-.62 1.56 1.56 0 0 1 .1-.61 1.67 1.67 0 0 1-.11-.62 1.6 1.6 0 0 1 .11-.62h7.68a1.56 1.56 0 0 1 .11.62 1.67 1.67 0 0 1-.11.62h1.1a1.65 1.65 0 0 1 .11.63 1.52 1.52 0 0 1-.11.62h-.54a1.8 1.8 0 0 1 0 1.24h-1.62a1.64 1.64 0 0 1 .11.62 1.46 1.46 0 0 1-.11.62h.55a1.55 1.55 0 0 1 .12.62 1.67 1.67 0 0 1-.11.62h.82a1.73 1.73 0 0 1 0 1.24zm-2.88-4.36a1.56 1.56 0 0 1 .11-.62 1.67 1.67 0 0 1-.11-.62 1.41 1.41 0 0 1 .11-.62h-3.84a1.56 1.56 0 0 1 .11.62 1.67 1.67 0 0 1-.11.62 1.55 1.55 0 0 1 .12.62 1.62 1.62 0 0 1-.11.61h3.84a1.67 1.67 0 0 1-.12-.58zm8.35 1.95a1.55 1.55 0 0 1 .12.62 1.8 1.8 0 0 0 0 1.24 1.74 1.74 0 0 1-.1.63h4.39a1.64 1.64 0 0 1 .11.62 1.54 1.54 0 0 1-.11.63l-6.58-.06a1.67 1.67 0 0 1-.11-.62 1.58 1.58 0 0 1 .1-.62 1.71 1.71 0 0 1-.11-.62 1.48 1.48 0 0 1 .11-.63 1.46 1.46 0 0 1-.12-.62 1.6 1.6 0 0 1 .11-.62 1.63 1.63 0 0 1-.12-.62 1.56 1.56 0 0 1 .11-.62 1.71 1.71 0 0 1-.11-.62 1.48 1.48 0 0 1 .11-.63 1.46 1.46 0 0 1-.12-.62 1.6 1.6 0 0 1 .11-.62 1.64 1.64 0 0 1-.11-.62 1.41 1.41 0 0 1 .11-.62h6.58a1.6 1.6 0 0 1 .11.62 1.54 1.54 0 0 1-.11.63h-4.39a1.48 1.48 0 0 1 .12.63 1.71 1.71 0 0 1-.11.62 1.56 1.56 0 0 1 .11.62 1.65 1.65 0 0 1-.1.62h4.38a1.43 1.43 0 0 1 .12.62 1.73 1.73 0 0 1-.11.63zm10.97.07a1.48 1.48 0 0 1 .12.63 1.67 1.67 0 0 1-.11.62 1.48 1.48 0 0 1 .11.63 1.5 1.5 0 0 1-.1.62h4.39a1.65 1.65 0 0 1 .11.63 1.74 1.74 0 0 1-.1.63l-6.59-.06a1.64 1.64 0 0 1-.11-.62 1.67 1.67 0 0 1 .1-.63 1.64 1.64 0 0 1-.11-.62 1.48 1.48 0 0 1 .11-.63 1.46 1.46 0 0 1-.12-.62 1.56 1.56 0 0 1 .11-.62 1.73 1.73 0 0 1-.11-.63 1.58 1.58 0 0 1 .1-.62 1.73 1.73 0 0 1-.11-.63 1.56 1.56 0 0 1 .11-.62 1.54 1.54 0 0 1-.11-.63 1.42 1.42 0 0 1 .1-.62 1.73 1.73 0 0 1-.11-.63 1.56 1.56 0 0 1 .11-.62h6.58a1.55 1.55 0 0 1 .12.62 1.73 1.73 0 0 1-.11.63h-4.39a1.6 1.6 0 0 1 .11.62 1.73 1.73 0 0 1-.11.63 1.59 1.59 0 0 1 .12.62 1.73 1.73 0 0 1-.11.63h4.39a1.65 1.65 0 0 1 .11.63 1.54 1.54 0 0 1-.11.63zm16.56-3.05a1.94 1.94 0 0 0 0 1.26 1.73 1.73 0 0 1-.11.63 1.65 1.65 0 0 1 .11.63 1.74 1.74 0 0 1-.1.63 1.65 1.65 0 0 1 .11.63 1.73 1.73 0 0 1-.11.63 1.64 1.64 0 0 1 .12.63 1.73 1.73 0 0 1-.11.63 1.65 1.65 0 0 1 .11.63 1.74 1.74 0 0 1-.1.63h-2.2a1.73 1.73 0 0 1-.11-.63 1.67 1.67 0 0 1 .1-.63h-1.37a1.64 1.64 0 0 1-.11-.62 1.42 1.42 0 0 1 .11-.63h-.83a1.73 1.73 0 0 1-.11-.63 1.41 1.41 0 0 1 .11-.62h-1.1a1.54 1.54 0 0 1-.11-.63 1.67 1.67 0 0 1 .1-.63h-1.09a1.56 1.56 0 0 1 .11.62 1.69 1.69 0 0 1-.11.63 1.48 1.48 0 0 1 .11.63 1.55 1.55 0 0 1-.1.63 1.62 1.62 0 0 1 .11.63 1.76 1.76 0 0 0 0 1.25 1.73 1.73 0 0 1-.11.63h-2.19a1.54 1.54 0 0 1-.12-.63 1.56 1.56 0 0 1 .11-.62 1.73 1.73 0 0 1-.11-.63 1.67 1.67 0 0 1 .1-.63 1.69 1.69 0 0 1-.11-.63 1.43 1.43 0 0 1 .11-.62 1.72 1.72 0 0 1-.12-.63 1.65 1.65 0 0 1 .11-.63 1.64 1.64 0 0 1-.11-.62 1.48 1.48 0 0 1 .11-.63 1.54 1.54 0 0 1-.12-.63 1.65 1.65 0 0 1 .11-.63 1.64 1.64 0 0 1-.11-.62 1.48 1.48 0 0 1 .11-.63h2.75a1.65 1.65 0 0 1 .11.63 1.54 1.54 0 0 1-.11.63h.83a1.65 1.65 0 0 1 .11.63 1.73 1.73 0 0 1-.11.63h.83a1.65 1.65 0 0 1 .11.63 1.73 1.73 0 0 1-.11.63h1.1a1.65 1.65 0 0 1 .11.63 1.54 1.54 0 0 1-.11.63h1.1a1.73 1.73 0 0 1-.11-.63 1.48 1.48 0 0 1 .11-.63 1.54 1.54 0 0 1-.12-.63 1.65 1.65 0 0 1 .11-.63 1.73 1.73 0 0 1-.11-.63 1.41 1.41 0 0 1 .11-.62 1.72 1.72 0 0 1-.12-.63 1.62 1.62 0 0 1 .11-.63h2.2a1.58 1.58 0 0 1 .11.63 1.64 1.64 0 0 1-.11.62 1.48 1.48 0 0 1 .12.59z" fill="#00fc00"/><path d="M50.89 164.46a1.53 1.53 0 0 1 .1.61 1.85 1.85 0 0 1-.12.62l-2.19.05a1.78 1.78 0 0 1 0-1.23h-.82a1.63 1.63 0 0 1-.1-.61 1.75 1.75 0 0 1 .12-.62h-.82a1.5 1.5 0 0 1-.09-.62 1.46 1.46 0 0 1 .12-.62l-2.74.08a1.53 1.53 0 0 1 .1.61 2 2 0 0 1-.12.62 1.38 1.38 0 0 1 .09.61 1.49 1.49 0 0 1-.12.62 1.53 1.53 0 0 1 .1.61 1.9 1.9 0 0 1-.12.62l-2.19.05a1.59 1.59 0 0 1-.1-.61 1.85 1.85 0 0 1 .12-.62 1.86 1.86 0 0 1 0-1.23 1.59 1.59 0 0 1-.1-.61 1.8 1.8 0 0 1 .12-.62 1.86 1.86 0 0 1 0-1.23 5 5 0 0 0-.07-1.84 1.8 1.8 0 0 1 .12-.62 1.43 1.43 0 0 1-.09-.61 1.59 1.59 0 0 1 .12-.62l7.66-.22a1.45 1.45 0 0 1 .09.62 1.52 1.52 0 0 1-.12.62h1.09a1.39 1.39 0 0 1 .1.61 1.63 1.63 0 0 1-.12.62h-.55a1.56 1.56 0 0 1 .1.61 1.85 1.85 0 0 1-.12.62l-1.65.05a1.37 1.37 0 0 1 .1.61 1.63 1.63 0 0 1-.12.62h.61a1.38 1.38 0 0 1 .09.61 1.46 1.46 0 0 1-.12.62h.82a1.58 1.58 0 0 1 .1.62 2 2 0 0 1-.12.62zm-2.76-4.25a1.75 1.75 0 0 1 .12-.62 1.5 1.5 0 0 1-.09-.62 1.46 1.46 0 0 1 .12-.62l-3.83.11a1.56 1.56 0 0 1 .1.61 1.62 1.62 0 0 1-.13.62 1.42 1.42 0 0 1 .1.62 1.62 1.62 0 0 1-.12.61l3.83-.1a1.63 1.63 0 0 1-.1-.61zm8.28 1.64a1.56 1.56 0 0 1 .1.61 2 2 0 0 1-.12.63 1.57 1.57 0 0 1 .09.61 1.54 1.54 0 0 1-.12.63l4.38-.11a1.61 1.61 0 0 1 .1.62 1.85 1.85 0 0 1-.12.62l-6.57.15a1.59 1.59 0 0 1-.1-.61 1.75 1.75 0 0 1 .12-.62 1.68 1.68 0 0 1-.1-.62 1.58 1.58 0 0 1 .13-.62 1.8 1.8 0 0 1 0-1.24 1.63 1.63 0 0 1-.1-.61 1.54 1.54 0 0 1 .13-.62 1.5 1.5 0 0 1-.1-.62 1.4 1.4 0 0 1 .15-.64 1.68 1.68 0 0 1-.1-.62 1.58 1.58 0 0 1 .13-.62 1.65 1.65 0 0 1-.1-.62 1.85 1.85 0 0 1 .12-.62l6.57-.17a1.38 1.38 0 0 1 .09.61 1.54 1.54 0 0 1-.12.63l-4.38.11a1.42 1.42 0 0 1 .1.62 1.49 1.49 0 0 1-.12.62 1.58 1.58 0 0 1 .1.62 1.71 1.71 0 0 1-.13.62l4.38-.11a1.58 1.58 0 0 1 .1.62 2 2 0 0 1-.12.62zm16.54-1.02a1.72 1.72 0 0 1-.12.63 1.58 1.58 0 0 1 .1.62 1.85 1.85 0 0 1-.12.62h-1.1a1.58 1.58 0 0 1 .1.62 1.54 1.54 0 0 1-.12.63H70.6a1.43 1.43 0 0 1 .09.62 1.54 1.54 0 0 1-.12.63l-6.57.14a1.65 1.65 0 0 1-.1-.62 1.58 1.58 0 0 1 .13-.62 1.5 1.5 0 0 1-.1-.62 1.48 1.48 0 0 1 .12-.63 1.63 1.63 0 0 1-.1-.61 1.48 1.48 0 0 1 .12-.63 1.65 1.65 0 0 1-.1-.62 1.8 1.8 0 0 1 .12-.62 1.69 1.69 0 0 1-.09-.62 1.48 1.48 0 0 1 .12-.63 1.63 1.63 0 0 1-.1-.61 1.86 1.86 0 0 1 .12-.63 1.48 1.48 0 0 1-.09-.62 1.43 1.43 0 0 1 .12-.62l6.56-.17a1.42 1.42 0 0 1 .1.62 1.54 1.54 0 0 1-.12.63h1.09a1.42 1.42 0 0 1 .1.62 1.54 1.54 0 0 1-.12.63h1.09a1.44 1.44 0 0 1 .1.62 1.54 1.54 0 0 1-.12.63 1.58 1.58 0 0 1 .1.61zm-2.43 1.3a1.43 1.43 0 0 1 .12-.62 1.72 1.72 0 0 1-.1-.62 1.86 1.86 0 0 1 .12-.63 1.76 1.76 0 0 1 0-1.25h-1.1a1.76 1.76 0 0 1 0-1.25l-3.29.09a1.58 1.58 0 0 1 .1.62 2 2 0 0 1-.12.62 1.58 1.58 0 0 1 .1.62 1.72 1.72 0 0 1-.13.63 1.39 1.39 0 0 1 .1.61 1.54 1.54 0 0 1-.12.63 1.58 1.58 0 0 1 .1.62 1.85 1.85 0 0 1-.12.62 1.61 1.61 0 0 1 .1.62 1.72 1.72 0 0 1-.13.63l3.29-.08a1.65 1.65 0 0 1-.1-.62 1.8 1.8 0 0 1 .12-.62h1.1a1.47 1.47 0 0 1-.04-.62z" fill="#f80000"/><g fill="#48ff3e"><path d="M78.47 76.02a6.74 6.74 0 0 1 .09 1.76 8.21 8.21 0 0 1-.25 1.79l-1.75.1a7.21 7.21 0 0 1 .09 1.76 8.12 8.12 0 0 1-.25 1.78l-8.75.5a7.91 7.91 0 0 1-.09-1.75 7.56 7.56 0 0 1 .26-1.78l-1.75.1a7.87 7.87 0 0 1-.09-1.75 7.56 7.56 0 0 1 .26-1.78l-1.75.11a7.36 7.36 0 0 1-.08-1.75 7.56 7.56 0 0 1 .26-1.78 7.36 7.36 0 0 1-.08-1.75 8.06 8.06 0 0 1 .27-1.78 7.36 7.36 0 0 1-.08-1.75 7.56 7.56 0 0 1 .26-1.78l1.75-.11a7.48 7.48 0 0 1-.08-1.76 7 7 0 0 1 .27-1.78l1.74-.12a7.36 7.36 0 0 1-.08-1.75 8.06 8.06 0 0 1 .27-1.78l8.7-.59a7.86 7.86 0 0 1 .08 1.76 8.78 8.78 0 0 1-.27 1.79l1.74-.11a7.75 7.75 0 0 1 .09 1.76 8.78 8.78 0 0 1-.27 1.79l-3.48.22a8 8 0 0 1-.09-1.76 8.16 8.16 0 0 1 .27-1.79l-5.22.35a7.22 7.22 0 0 1 .08 1.75 8.78 8.78 0 0 1-.27 1.79l-1.74.11a7.27 7.27 0 0 1 .08 1.76 8 8 0 0 1-.27 1.78 7.16 7.16 0 0 1 .09 1.75 8.68 8.68 0 0 1-.27 1.78 6.77 6.77 0 0 1 .09 1.76 8.08 8.08 0 0 1-.26 1.78l1.74-.11a6.74 6.74 0 0 1 .09 1.76 7.93 7.93 0 0 1-.25 1.77l5.24-.3a8 8 0 0 1-.09-1.76 7.65 7.65 0 0 1 .26-1.79zm17.48-.97l-1.31.07a8.43 8.43 0 0 1 .1 1.77 8.87 8.87 0 0 1-.25 1.8l-2.19.11a7.32 7.32 0 0 1 .1 1.78 8.21 8.21 0 0 1-.25 1.79l-7 .37a8 8 0 0 1-.1-1.77 8.19 8.19 0 0 1 .25-1.79l-2.18.12a7.47 7.47 0 0 1-.1-1.77 7.65 7.65 0 0 1 .26-1.79l-1.31.08a7.47 7.47 0 0 1-.1-1.77 7.65 7.65 0 0 1 .26-1.79l1.31-.07a7 7 0 0 1-.09-1.77 7.7 7.7 0 0 1 .25-1.79l2.18-.13a8.1 8.1 0 0 1-.09-1.77 8.22 8.22 0 0 1 .26-1.79l7-.41a7.27 7.27 0 0 1 .1 1.77 8.18 8.18 0 0 1-.26 1.8l2.18-.12a7.23 7.23 0 0 1 .1 1.77 9 9 0 0 1-.25 1.8l1.31-.08a7.94 7.94 0 0 1 .1 1.78 8.87 8.87 0 0 1-.28 1.8zm-3.5.18a7.47 7.47 0 0 1-.1-1.77 8.28 8.28 0 0 1 .25-1.79l-1.31.07a8.16 8.16 0 0 1-.09-1.78 8.28 8.28 0 0 1 .25-1.79l-4.36.25a6.85 6.85 0 0 1 .09 1.77 8.12 8.12 0 0 1-.25 1.79l-1.31.08a7.33 7.33 0 0 1 .09 1.77 8.21 8.21 0 0 1-.25 1.79l1.31-.07a7.2 7.2 0 0 1 .1 1.77 9 9 0 0 1-.25 1.79l4.37-.24a7.47 7.47 0 0 1-.1-1.77 7.62 7.62 0 0 1 .25-1.79zm19.2 4.4a7.86 7.86 0 0 1-.24 1.81l-10.5.49a8 8 0 0 1-.11-1.78 7.88 7.88 0 0 1 .25-1.8l3.5-.17a7.48 7.48 0 0 1-.11-1.78 7.72 7.72 0 0 1 .25-1.8 7.51 7.51 0 0 1-.11-1.78 7.89 7.89 0 0 1 .25-1.81 7.53 7.53 0 0 1-.1-1.78 7.8 7.8 0 0 1 .25-1.8 7.53 7.53 0 0 1-.1-1.78 7.72 7.72 0 0 1 .25-1.8 7.61 7.61 0 0 1-.1-1.79 7.88 7.88 0 0 1 .25-1.8l-2.61.15a7.56 7.56 0 0 1-.1-1.78 8.23 8.23 0 0 1 .26-1.8l6.09-.35a8.07 8.07 0 0 1 .09 1.79 8.22 8.22 0 0 1-.25 1.8 7.44 7.44 0 0 1 .1 1.79 8.22 8.22 0 0 1-.25 1.8 7.4 7.4 0 0 1 .1 1.79 9 9 0 0 1-.24 1.8 7.9 7.9 0 0 1 .1 1.78 8.41 8.41 0 0 1-.25 1.81 7.79 7.79 0 0 1 .11 1.78 8.22 8.22 0 0 1-.25 1.8 7.38 7.38 0 0 1 .11 1.79 8.92 8.92 0 0 1-.24 1.8l3.49-.16a7.29 7.29 0 0 1 .11 1.78zm19.26-6.22l-1.31.06a7.34 7.34 0 0 1 .11 1.79 8.5 8.5 0 0 1-.23 1.82l-2.19.09a7.81 7.81 0 0 1 .12 1.79 8.5 8.5 0 0 1-.23 1.82l-7 .29a7.6 7.6 0 0 1-.11-1.79 7.92 7.92 0 0 1 .21-1.87l-2.18.1a8.12 8.12 0 0 1-.12-1.79 8.46 8.46 0 0 1 .24-1.81l-1.31.06a8.18 8.18 0 0 1-.11-1.79 8.55 8.55 0 0 1 .24-1.81l1.31-.06a8.19 8.19 0 0 1-.1-1.79 7.42 7.42 0 0 1 .24-1.81l2.18-.1a8.27 8.27 0 0 1-.11-1.8 7.89 7.89 0 0 1 .25-1.81l7-.33a7.47 7.47 0 0 1 .11 1.8 7.78 7.78 0 0 1-.24 1.81l2.18-.1a8 8 0 0 1 .12 1.8 9.24 9.24 0 0 1-.24 1.82l1.31-.06a7.47 7.47 0 0 1 .11 1.8 8.49 8.49 0 0 1-.25 1.87zm-3.5.15a8.27 8.27 0 0 1-.11-1.8 7.42 7.42 0 0 1 .24-1.81l-1.31.06a8.22 8.22 0 0 1-.12-1.8 8.55 8.55 0 0 1 .24-1.81l-4.36.2a8 8 0 0 1 .11 1.8 9.13 9.13 0 0 1-.24 1.81l-1.31.06a7.88 7.88 0 0 1 .11 1.79 9.13 9.13 0 0 1-.24 1.81l1.31-.06a7.34 7.34 0 0 1 .11 1.79 8.4 8.4 0 0 1-.23 1.81l4.37-.19a7.56 7.56 0 0 1-.11-1.79 7.92 7.92 0 0 1 .23-1.81zm21.32-6.31a8.6 8.6 0 0 1-.23 1.83l-3.49.13a8.27 8.27 0 0 1-.12-1.81 8.09 8.09 0 0 1 .23-1.82l-3.06.13a7.86 7.86 0 0 1 .12 1.8 8.59 8.59 0 0 1-.23 1.82h-1.31a8 8 0 0 1 .12 1.8 8.5 8.5 0 0 1-.23 1.82 8 8 0 0 1 .12 1.81 8.4 8.4 0 0 1-.23 1.81l2.63-.1a8 8 0 0 1 .12 1.81 8.59 8.59 0 0 1-.23 1.82l-8.76.33a8.22 8.22 0 0 1-.12-1.8 8 8 0 0 1 .23-1.82l2.63-.1a8.22 8.22 0 0 1-.12-1.8 8 8 0 0 1 .23-1.82 8.22 8.22 0 0 1-.12-1.8 8 8 0 0 1 .24-1.82 8.22 8.22 0 0 1-.12-1.8 8.09 8.09 0 0 1 .23-1.82l-2.62.11a8.85 8.85 0 0 1-.11-1.8 7.94 7.94 0 0 1 .24-1.81l4.36-.19a7.47 7.47 0 0 1 .11 1.8 8.5 8.5 0 0 1-.23 1.82l1.74-.07a8.27 8.27 0 0 1-.11-1.8 7.94 7.94 0 0 1 .23-1.82l6.54-.27a8 8 0 0 1 .12 1.81 8.59 8.59 0 0 1-.23 1.82h1.31a8 8 0 0 1 .12 1.8zm34.8-2.94h-1.74a9.94 9.94 0 0 1-.08 3.66h1.75a8.62 8.62 0 0 1 .14 1.82 8.83 8.83 0 0 1-.22 1.84 7.42 7.42 0 0 1 .14 1.82 8.08 8.08 0 0 1-.21 1.83h-1.75a7.55 7.55 0 0 1 .14 1.83 8.08 8.08 0 0 1-.21 1.83q-6.13.15-12.27.33a8.36 8.36 0 0 1-.13-1.82 8.23 8.23 0 0 1 .21-1.83 9 9 0 0 1-.13-1.82 8.07 8.07 0 0 1 .22-1.82 7.78 7.78 0 0 1-.13-1.82 8.23 8.23 0 0 1 .21-1.83 9 9 0 0 1-.13-1.82 8.07 8.07 0 0 1 .22-1.82 8.36 8.36 0 0 1-.13-1.82 8.17 8.17 0 0 1 .22-1.83 9 9 0 0 1-.13-1.82 8.19 8.19 0 0 1 .23-1.83 7.65 7.65 0 0 1-.13-1.81 8.17 8.17 0 0 1 .22-1.83q6.09-.21 12.19-.39a8.16 8.16 0 0 1 .13 1.83 8.7 8.7 0 0 1-.21 1.83h1.74a9.89 9.89 0 0 1-.08 3.65 8 8 0 0 1 .14 1.82 8.67 8.67 0 0 1-.22 1.82zm-3.62-1.73a7.68 7.68 0 0 1 .21-1.83 9.89 9.89 0 0 1 .08-3.65l-7 .21a8.07 8.07 0 0 1 .13 1.82 8.65 8.65 0 0 1-.22 1.83 7.48 7.48 0 0 1 .13 1.82 8 8 0 0 1-.22 1.83l7-.21a7.73 7.73 0 0 1-.11-1.82zm-.16 7.31a7.68 7.68 0 0 1 .21-1.83l-7 .19a8.07 8.07 0 0 1 .13 1.82 8.7 8.7 0 0 1-.21 1.83 8.07 8.07 0 0 1 .13 1.82 8.7 8.7 0 0 1-.21 1.83l7-.19a8.26 8.26 0 0 1-.14-1.82 8.17 8.17 0 0 1 .22-1.83 7.73 7.73 0 0 1-.13-1.82zm19.47 6.85a8.93 8.93 0 0 1-.2 1.84l-10.52.22a9.67 9.67 0 0 1 .07-3.66l3.5-.08a8.2 8.2 0 0 1-.15-1.82 8.89 8.89 0 0 1 .21-1.84 8.26 8.26 0 0 1-.14-1.82 7.7 7.7 0 0 1 .21-1.84 7.69 7.69 0 0 1-.14-1.82 8.39 8.39 0 0 1 .2-1.84 8.91 8.91 0 0 1-.14-1.82 9.07 9.07 0 0 1 .21-1.84 8.91 8.91 0 0 1-.14-1.82 9.07 9.07 0 0 1 .21-1.84l-2.61.07a8.26 8.26 0 0 1-.14-1.82 9.07 9.07 0 0 1 .21-1.84l6.1-.15a8 8 0 0 1 .14 1.82 8.11 8.11 0 0 1-.21 1.84 7.46 7.46 0 0 1 .14 1.83 8.08 8.08 0 0 1-.21 1.83 8 8 0 0 1 .15 1.83 9.41 9.41 0 0 1-.21 1.83 9.66 9.66 0 0 1-.07 3.66 9.4 9.4 0 0 1-.06 3.66 8 8 0 0 1 .15 1.83 8.88 8.88 0 0 1-.21 1.84l3.5-.08a8 8 0 0 1 .15 1.83zm19.2-9.51a8.07 8.07 0 0 1 .15 1.84 8.33 8.33 0 0 1-.19 1.84l-9.19.15a7.92 7.92 0 0 1 .15 1.83 8.13 8.13 0 0 1-.2 1.83l7.45-.12a9.71 9.71 0 0 1-.05 3.67l-8.76.14a9.66 9.66 0 0 1 .05-3.66h-2.19a9.71 9.71 0 0 1 .05-3.67h-1.31a9.66 9.66 0 0 1 0-3.66h1.32a9.66 9.66 0 0 1 0-3.66h2.18a9 9 0 0 1-.14-1.83 7.73 7.73 0 0 1 .2-1.83l8.72-.16a8.57 8.57 0 0 1 .16 1.83 8.77 8.77 0 0 1-.2 1.84h1.75a8.07 8.07 0 0 1 .15 1.84 8.75 8.75 0 0 1-.1 1.78zm-3.65-1.77a8.32 8.32 0 0 1 .2-1.84l-5.68.1a8 8 0 0 1 .15 1.83 8.22 8.22 0 0 1-.16 1.86l5.68-.1a8.35 8.35 0 0 1-.19-1.85z"/><path d="M235.91 67.02a8.57 8.57 0 0 1 .16 1.83 8.82 8.82 0 0 1-.19 1.84l-9.19.1a8 8 0 0 1 .16 1.84 8.9 8.9 0 0 1-.19 1.84l7.44-.08a7.91 7.91 0 0 1 .16 1.83 8.2 8.2 0 0 1-.19 1.84l-8.76.1a8.34 8.34 0 0 1-.16-1.84 8.46 8.46 0 0 1 .19-1.84h-2.19a8.35 8.35 0 0 1-.15-1.83 7.82 7.82 0 0 1 .19-1.84h-1.31a9 9 0 0 1-.16-1.84 8.39 8.39 0 0 1 .2-1.84h1.31a8.83 8.83 0 0 1-.16-1.83 8.39 8.39 0 0 1 .2-1.84h2.18a8.35 8.35 0 0 1-.15-1.83 7.82 7.82 0 0 1 .19-1.84l8.73-.11a8.61 8.61 0 0 1 .16 1.84 8.9 8.9 0 0 1-.19 1.84h1.74a7.48 7.48 0 0 1 .16 1.84 8.37 8.37 0 0 1-.18 1.82zm-3.66-1.8a8.39 8.39 0 0 1 .19-1.84l-5.68.06a8 8 0 0 1 .16 1.84 8.9 8.9 0 0 1-.19 1.84l5.68-.07a8.3 8.3 0 0 1-.13-1.83zm15.48-1.97h-4.37a7.91 7.91 0 0 1 .16 1.83 8.24 8.24 0 0 1-.18 1.84h-1.31a8.67 8.67 0 0 1 .16 1.84 8.2 8.2 0 0 1-.19 1.84h1.28a8 8 0 0 1 .16 1.84 8.31 8.31 0 0 1-.18 1.84h4.38a8 8 0 0 1 .16 1.84 8.24 8.24 0 0 1-.18 1.84h-4.82a8.29 8.29 0 0 1-.17-1.84 8.46 8.46 0 0 1 .19-1.84h-2.19a7.78 7.78 0 0 1-.16-1.84 7.94 7.94 0 0 1 .18-1.84h-1.27a7.78 7.78 0 0 1-.16-1.84 8 8 0 0 1 .18-1.84h1.31a9 9 0 0 1-.16-1.83 8.39 8.39 0 0 1 .19-1.84h2.18a8.34 8.34 0 0 1-.16-1.84 7.94 7.94 0 0 1 .18-1.84h4.8a7.94 7.94 0 0 1 .17 1.84 9.8 9.8 0 0 1-.18 1.84zm5.87-5.55a9.71 9.71 0 0 1-.18 1.84 8 8 0 0 1 .16 1.84 8.37 8.37 0 0 1-.18 1.84 7.91 7.91 0 0 1 .17 1.83 8.24 8.24 0 0 1-.18 1.84 8.06 8.06 0 0 1 .17 1.84 8.24 8.24 0 0 1-.18 1.84 8.6 8.6 0 0 1 .17 1.84 8.24 8.24 0 0 1-.18 1.84 8.6 8.6 0 0 1 .17 1.84 8.24 8.24 0 0 1-.18 1.84h-3.51a8.94 8.94 0 0 1-.17-1.84 8.39 8.39 0 0 1 .19-1.84h-1.32a9 9 0 0 1-.17-1.84 8.39 8.39 0 0 1 .19-1.84h1.31a8.29 8.29 0 0 1-.17-1.84 8.53 8.53 0 0 1 .18-1.84h-1.31a8.34 8.34 0 0 1-.16-1.84 7.88 7.88 0 0 1 .18-1.84h1.31a8.29 8.29 0 0 1-.17-1.84 9.29 9.29 0 0 1 .18-1.84 8.3 8.3 0 0 1-.16-1.83 7.88 7.88 0 0 1 .18-1.84 9 9 0 0 1-.17-1.84 8.39 8.39 0 0 1 .19-1.84h3.48a8.53 8.53 0 0 1 .17 1.84 9 9 0 0 1-.18 1.84 8.53 8.53 0 0 1 .17 1.84zm34.78 12.92a8.46 8.46 0 0 1 .19 1.84 8.94 8.94 0 0 1-.17 1.84h-1.75a7.88 7.88 0 0 1 .18 1.84 8.34 8.34 0 0 1-.16 1.84h-8.77a8.31 8.31 0 0 1-.18-1.84 7.94 7.94 0 0 1 .17-1.84h-1.75a8.24 8.24 0 0 1-.18-1.84 8 8 0 0 1 .17-1.84h-1.75a8.31 8.31 0 0 1-.18-1.84 8.53 8.53 0 0 1 .17-1.84 9 9 0 0 1-.18-1.84 8.53 8.53 0 0 1 .17-1.84 9 9 0 0 1-.17-1.84 7.94 7.94 0 0 1 .17-1.84h1.74a9.62 9.62 0 0 1-.18-1.84 8.66 8.66 0 0 1 .17-1.84h1.75a8.24 8.24 0 0 1-.18-1.84 8 8 0 0 1 .17-1.84h8.71a8.53 8.53 0 0 1 .18 1.84 9 9 0 0 1-.16 1.84h1.72a7.88 7.88 0 0 1 .18 1.84 8.34 8.34 0 0 1-.16 1.84h-3.49a8.24 8.24 0 0 1-.18-1.84 8 8 0 0 1 .16-1.83h-5.23a7.88 7.88 0 0 1 .18 1.84 8.35 8.35 0 0 1-.17 1.84h-1.74a7.88 7.88 0 0 1 .18 1.84 8.94 8.94 0 0 1-.17 1.84 7.88 7.88 0 0 1 .18 1.84 8.35 8.35 0 0 1-.17 1.84 7.88 7.88 0 0 1 .18 1.84 8.35 8.35 0 0 1-.17 1.84h1.75a8 8 0 0 1 .18 1.85 8.26 8.26 0 0 1-.17 1.83h5.26a8.9 8.9 0 0 1-.19-1.84 8.53 8.53 0 0 1 .17-1.84zm6.95-7.3h1.31a8.39 8.39 0 0 1 .19 1.84 9 9 0 0 1-.16 1.83h-1.31a7.88 7.88 0 0 1 .18 1.84 8.34 8.34 0 0 1-.16 1.84 8.39 8.39 0 0 1 .19 1.84 9 9 0 0 1-.16 1.83 8 8 0 0 1 .18 1.84 8.34 8.34 0 0 1-.16 1.84h-3.51a8.24 8.24 0 0 1-.18-1.84 7.91 7.91 0 0 1 .16-1.83 8.37 8.37 0 0 1-.18-1.84 8 8 0 0 1 .16-1.84 8.9 8.9 0 0 1-.19-1.84 7.94 7.94 0 0 1 .17-1.84 8.9 8.9 0 0 1-.19-1.84 8.61 8.61 0 0 1 .16-1.84 8.24 8.24 0 0 1-.18-1.84 7.91 7.91 0 0 1 .16-1.83 9 9 0 0 1-.19-1.84 7.94 7.94 0 0 1 .17-1.84 8.26 8.26 0 0 1-.19-1.84 8 8 0 0 1 .16-1.84h3.49a8 8 0 0 1 .18 1.84 7.78 7.78 0 0 1-.16 1.84 7.82 7.82 0 0 1 .19 1.84 8.34 8.34 0 0 1-.16 1.84 8.39 8.39 0 0 1 .19 1.84 9 9 0 0 1-.16 1.84zm10.71 5.63a8.34 8.34 0 0 1-.16 1.84 7.82 7.82 0 0 1 .19 1.84 8.35 8.35 0 0 1-.15 1.83 8.46 8.46 0 0 1 .19 1.84 9 9 0 0 1-.16 1.84h-3.51a8.9 8.9 0 0 1-.19-1.84 8.61 8.61 0 0 1 .16-1.84 8.82 8.82 0 0 1-.19-1.84 8.57 8.57 0 0 1 .16-1.83 8.9 8.9 0 0 1-.19-1.84 8 8 0 0 1 .16-1.84 8.2 8.2 0 0 1-.19-1.84 7.44 7.44 0 0 1 .12-1.86l-5.68-.06a9 9 0 0 1-.19-1.84 8.61 8.61 0 0 1 .16-1.84l7 .08a7.82 7.82 0 0 1 .19 1.84 8.35 8.35 0 0 1-.15 1.83h2.18a7.82 7.82 0 0 1 .19 1.84 8.35 8.35 0 0 1-.15 1.83 8.46 8.46 0 0 1 .21 1.86zm17.29-1.54a9.71 9.71 0 0 1 .05 3.67q-4.59-.09-9.19-.15a7.76 7.76 0 0 1 .2 1.84 8.35 8.35 0 0 1-.15 1.83l7.44.12a8.3 8.3 0 0 1 .2 1.83 8.39 8.39 0 0 1-.15 1.84c-2.93 0-5.85-.1-8.77-.13a8.33 8.33 0 0 1-.19-1.84 8.07 8.07 0 0 1 .15-1.84h-2.19a8.82 8.82 0 0 1-.19-1.84 8 8 0 0 1 .15-1.83h-1.31a8.2 8.2 0 0 1-.19-1.84 8 8 0 0 1 .15-1.83h1.31a8.9 8.9 0 0 1-.19-1.84 8.07 8.07 0 0 1 .15-1.84h2.19a8.22 8.22 0 0 1-.2-1.84 8.07 8.07 0 0 1 .15-1.84l8.73.15a9.71 9.71 0 0 1 .05 3.67h1.75a9.71 9.71 0 0 1 .05 3.67zm-3.7-1.9a8.64 8.64 0 0 1 .15-1.83l-5.67-.09a7.79 7.79 0 0 1 .17 1.82 8.39 8.39 0 0 1-.15 1.84l5.68.09a8.77 8.77 0 0 1-.18-1.86zm21.25 5.9a8.89 8.89 0 0 1 .21 1.84 8.2 8.2 0 0 1-.15 1.82h-1.75a8.33 8.33 0 0 1 .21 1.84 8.2 8.2 0 0 1-.15 1.82l-8.76-.17a10 10 0 0 1-.06-3.67h-1.75a8.77 8.77 0 0 1-.2-1.84 8 8 0 0 1 .15-1.83h-1.75a8.15 8.15 0 0 1-.2-1.84 8 8 0 0 1 .15-1.83h1.74a8.77 8.77 0 0 1-.2-1.84 8 8 0 0 1 .15-1.83h1.74a10 10 0 0 1-.06-3.67l8.73.2a9.67 9.67 0 0 1 .07 3.66h1.74a7.77 7.77 0 0 1 .21 1.84 7.69 7.69 0 0 1-.14 1.82l-3.49-.08a9.66 9.66 0 0 1-.07-3.66l-5.24-.11a8.87 8.87 0 0 1 .21 1.83 8.35 8.35 0 0 1-.15 1.83h-1.75a9.45 9.45 0 0 1 .06 3.67h1.75a8.39 8.39 0 0 1 .2 1.84 9.08 9.08 0 0 1-.14 1.83l5.25.11a8.8 8.8 0 0 1-.21-1.84 8 8 0 0 1 .15-1.83zm17.79 5.92a8.26 8.26 0 0 1-.14 1.82l-6.13-.16a9.89 9.89 0 0 1-.08-3.65l-1.75-.05a9.41 9.41 0 0 1-.21-1.83 8 8 0 0 1 .14-1.82l-2.62-.07a8.87 8.87 0 0 1 .21 1.83 9.08 9.08 0 0 1-.14 1.83 9.61 9.61 0 0 1 .07 3.65l-3.51-.08a8.08 8.08 0 0 1-.21-1.83 8.72 8.72 0 0 1 .14-1.83 8.75 8.75 0 0 1-.2-1.83 7.42 7.42 0 0 1 .14-1.82 8.25 8.25 0 0 1-.21-1.84 7.42 7.42 0 0 1 .14-1.82 8.11 8.11 0 0 1-.21-1.84 7.46 7.46 0 0 1 .14-1.82 9.94 9.94 0 0 1-.08-3.66 9.41 9.41 0 0 1-.21-1.83 8 8 0 0 1 .14-1.82 8.18 8.18 0 0 1-.21-1.84 8 8 0 0 1 .13-1.82l3.49.09a9.07 9.07 0 0 1 .21 1.84 8.31 8.31 0 0 1-.13 1.82 8.87 8.87 0 0 1 .21 1.83 8.4 8.4 0 0 1-.14 1.83 8.17 8.17 0 0 1 .22 1.83 8.26 8.26 0 0 1-.14 1.82 7.68 7.68 0 0 1 .21 1.83 7.82 7.82 0 0 1-.14 1.83l2.63.06a8.65 8.65 0 0 1-.22-1.83 8 8 0 0 1 .14-1.82h1.75a8.65 8.65 0 0 1-.22-1.83 8 8 0 0 1 .14-1.82l5.23.15a8.17 8.17 0 0 1 .22 1.83 8.26 8.26 0 0 1-.14 1.82l-3.49-.1a8.17 8.17 0 0 1 .22 1.83 8.26 8.26 0 0 1-.14 1.82h-1.75a8.17 8.17 0 0 1 .22 1.83 8.26 8.26 0 0 1-.14 1.82H354a7.68 7.68 0 0 1 .21 1.83 8.31 8.31 0 0 1-.13 1.82l4.37.12a8.17 8.17 0 0 1 .22 1.88z"/></g><g fill="gray" stroke="#4d4d4d" stroke-width=".5"><circle cx="176.6" cy="436.27" r="7.68"/><circle cx="195.96" cy="436.27" r="7.68"/><circle cx="214.55" cy="436.27" r="7.68"/></g><circle cx="142.94" cy="435.75" r="12.8" fill="#999" stroke="#4d4d4d" stroke-width=".5"/><path d="M146.37 433.95a4 4 0 0 1 .58 2.1 4.14 4.14 0 0 1-7.44 2.503 4.14 4.14 0 0 1-.12-4.833" fill="none" stroke="#f2f2f2" stroke-linecap="round" stroke-miterlimit="10" stroke-width=".75"/><path d="M143.77 434.99h-1.95v-5.19h1.95z" fill="#f2f2f2"/><g fill="#fff"><path d="M126.59 137.17q-35 .77-70 1.89 2.14-33.89 6.23-67.65 34.22-2.1 68.24-3.54-2.92 34.54-4.47 69.3zm95.24-1.44q-34.95.28-69.93.93 1.32-34.93 3.8-69.74 34-1.2 67.87-1.74-1.14 35.23-1.74 70.55zm-96.91 92.43q-35.32-.12-70.63-.29-.39-33.93 1.17-67.85 35.16-.83 70.31-1.38-1.12 34.77-.85 69.52zm96.26.25q-35.36 0-70.69-.14-.22-35 .72-70 35.15-.48 70.3-.68-.44 35.37-.33 70.82z" opacity=".16"/><path d="M494.28 362.73q-14.75.72-29.44 1.32a1252.46 1252.46 0 0 0-6.62-296.32q14.76 1 29.56 2a1359.72 1359.72 0 0 1 6.5 293z" opacity=".31"/></g><rect x="343.54" y="446.24" width="75.28" height="23.81" rx="10.36" fill="#666" stroke="#4d4d4d" stroke-miterlimit="10" stroke-width=".25"/><g fill="#1a1a1a" stroke-width="1.5"><circle cx="359.23" cy="458.32" r="5.12" stroke="#e30613"/><circle cx="380.98" cy="458.32" r="5.12" stroke="#ffed00"/><circle cx="402.48" cy="458.32" r="5.12" stroke="#fff"/></g><path d="M257.97 411.02h39.86v15.53h-39.86z" fill="#333"/><path d="M267.18 423.77h-5.81v-10h15.5v4.43h-1.94v1.11h1.94v4.43h-5.81v-4.43h-3.88zm0-5.54h3.88v-3.32h-3.88zm25.19 1.11h1.91v4.43h-15.5v-10h15.5v4.43h-1.94zm-7.75-1.11h3.88v-3.32h-3.88zm3.88 1.11h-3.88v3.32h3.88z" fill="#ccc"/><path d="M38.76 407.57l49.45 3.52a6.47 6.47 0 0 1 6 6.36c.11 8.95-.09 23.38-.24 31.93a6.46 6.46 0 0 1-7.08 6.33l-49.4-4.89a6.46 6.46 0 0 1-5.77-6.47l.13-30.35a6.46 6.46 0 0 1 6.91-6.43zm421.43 47.95l49.48-3.1a6.46 6.46 0 0 0 6-6.31c.19-8.95.11-23.38 0-31.93a6.46 6.46 0 0 0-7-6.39l-49.43 4.46a6.46 6.46 0 0 0-5.83 6.42l-.13 30.35a6.48 6.48 0 0 0 6.91 6.5z" fill="gray"/><path d="M461.69 447.39l47.12-3.38m-47.11-5.71l47.12-3.38m-47.16-5.85l47.12-3.38m-47.04-6.02l47.12-3.39m-469.96-.86l47.05 4.15m-46.89 4.94l47.05 4.15m-46.9 5.2l47.06 4.15m-46.9 5.2l47.06 4.15" fill="none" stroke-linecap="round" stroke-miterlimit="10" stroke="#b3b3b3"/></svg>