<svg xmlns="http://www.w3.org/2000/svg" xmlns:xlink="http://www.w3.org/1999/xlink" viewBox="0 0 746.51 822.18"><defs><radialGradient id="e515038c-0a0b-4ac3-968e-c03d77ed176f" cx="100.32" cy="382.53" r="5.66" gradientTransform="matrix(1 0 0 .6 0 153.01)" xlink:href="#af5ef855-b20c-445e-a81e-7166e1ae86bd"/><radialGradient id="ad7dfb2b-7fdf-42d3-8c00-ada96e51537e" cx="217.55" cy="416.02" r="5.66" xlink:href="#ba94692e-9e6f-4ed9-8672-7fd6d2fe03b7"/><radialGradient id="af5ef855-b20c-445e-a81e-7166e1ae86bd" cx="92.36" cy="393.88" r="5.66" gradientTransform="matrix(1 0 0 .6 0 157.55)" gradientUnits="userSpaceOnUse"><stop offset="0" stop-color="#0000ef"/><stop offset=".15" stop-color="#0000e9"/><stop offset=".34" stop-color="#0101d9"/><stop offset=".56" stop-color="#0101be"/><stop offset=".79" stop-color="#02029a"/><stop offset="1" stop-color="#020282"/></radialGradient><radialGradient id="bf553c05-3c19-4d6f-944f-1c5420d6ba13" cx="114.61" cy="393.88" r="5.66" xlink:href="#af5ef855-b20c-445e-a81e-7166e1ae86bd"/><radialGradient id="fb3e7077-6211-4e35-80c9-6b0246b0690e" cx="133.17" cy="400.04" r="5.66" gradientTransform="matrix(1 0 0 .6 0 160.02)" xlink:href="#af5ef855-b20c-445e-a81e-7166e1ae86bd"/><radialGradient id="e9308f4f-5c89-467b-a0cb-018c02bffe68" cx="139.21" cy="387.78" r="5.66" gradientTransform="matrix(1 0 0 .6 0 155.11)" xlink:href="#af5ef855-b20c-445e-a81e-7166e1ae86bd"/><radialGradient id="be3a1489-70e1-4c7f-84fd-4180f9f4536c" cx="121.61" cy="382.1" r="5.66" gradientTransform="matrix(1 0 0 .6 0 152.84)" xlink:href="#af5ef855-b20c-445e-a81e-7166e1ae86bd"/><radialGradient id="bdfaae36-9710-461b-bbee-d9abeeb12bf9" cx="195.83" cy="370.99" r="11.47" xlink:href="#ba94692e-9e6f-4ed9-8672-7fd6d2fe03b7"/><radialGradient id="ac4f5e01-ea7b-4c6b-ba58-c5b46ccc6719" cx="225.51" cy="404.67" r="5.66" xlink:href="#ba94692e-9e6f-4ed9-8672-7fd6d2fe03b7"/><radialGradient id="aa616304-f19a-466f-9e71-b6ae37c7d39c" cx="246.79" cy="404.24" r="5.66" xlink:href="#ba94692e-9e6f-4ed9-8672-7fd6d2fe03b7"/><radialGradient id="a29a5314-aeac-40ef-a8a1-7c6e0b505ec8" cx="264.4" cy="409.93" r="5.66" xlink:href="#ba94692e-9e6f-4ed9-8672-7fd6d2fe03b7"/><radialGradient id="a196eef8-10fc-4d91-86ef-f594bdea438a" cx="258.36" cy="422.19" r="5.66" xlink:href="#ba94692e-9e6f-4ed9-8672-7fd6d2fe03b7"/><radialGradient id="a1587594-7b14-4df4-87e3-f4a2ed03b88d" cx="239.79" cy="416.02" r="5.66" xlink:href="#ba94692e-9e6f-4ed9-8672-7fd6d2fe03b7"/><radialGradient id="ba94692e-9e6f-4ed9-8672-7fd6d2fe03b7" cx="65.88" cy="348.77" r="11.47" gradientUnits="userSpaceOnUse"><stop offset="0" stop-color="#fd6d66"/><stop offset=".78" stop-color="#b50a03"/></radialGradient><linearGradient id="a71b39a8-e1c0-40b7-be77-f42b5cc29e6e" x1="277.68" y1="344.26" x2="277.68" y2="384.83" gradientTransform="matrix(.99 .16 .16 -.99 -90.01 423.21)" xlink:href="#f210e20e-1a6c-4eea-b126-094d39e76ef0"/><linearGradient id="ac7ee228-75a3-4c7b-9bb3-b4dd7282910d" x1="152.37" y1="374.51" x2="152.37" y2="403.88" gradientTransform="matrix(.99 .16 .16 -.99 -90.01 423.21)" gradientUnits="userSpaceOnUse"><stop offset="0" stop-color="#750000"/><stop offset="1" stop-color="#f60000"/></linearGradient><linearGradient id="b3d28fea-a949-4824-8de0-c6b5d1c53752" x1="137.31" y1="331.44" x2="137.31" y2="400.94" xlink:href="#ac7ee228-75a3-4c7b-9bb3-b4dd7282910d"/><linearGradient id="ab62b94a-abda-4bff-b274-480d158ae269" x1="149.82" y1="325.27" x2="149.82" y2="360.95" xlink:href="#ac7ee228-75a3-4c7b-9bb3-b4dd7282910d"/><linearGradient id="e7a08718-5910-4f22-8949-9e4341bceafc" x1="137.42" y1="344" x2="137.42" y2="386.35" xlink:href="#ac7ee228-75a3-4c7b-9bb3-b4dd7282910d"/><linearGradient id="ecaa6241-8350-4ba2-b15d-e37750b2df72" x1="141" y1="349.12" x2="141" y2="376.29" xlink:href="#ac7ee228-75a3-4c7b-9bb3-b4dd7282910d"/><linearGradient id="a85d4695-dc51-4c99-a8d2-4c0c9a75b7f0" x1="162.75" y1="370.53" x2="162.75" y2="398.26" xlink:href="#ac7ee228-75a3-4c7b-9bb3-b4dd7282910d"/><linearGradient id="b8a3dd69-6375-4d92-8e06-4e9e58c4ee6b" x1="173.48" y1="338.05" x2="173.48" y2="355.44" xlink:href="#ac7ee228-75a3-4c7b-9bb3-b4dd7282910d"/><linearGradient id="e60cc8c4-d4a0-4b0b-b705-7d30e2fa7e2c" x1="165.22" y1="326.41" x2="165.22" y2="336.28" xlink:href="#ac7ee228-75a3-4c7b-9bb3-b4dd7282910d"/><linearGradient id="f0e35f37-6641-4d80-a318-84f52eeb573b" x1="140.58" y1="375.41" x2="140.58" y2="379.72" xlink:href="#ac7ee228-75a3-4c7b-9bb3-b4dd7282910d"/><linearGradient id="f210e20e-1a6c-4eea-b126-094d39e76ef0" x1="286.61" y1="86.98" x2="286.61" y2="127.54" gradientTransform="rotate(8.93 249.438 122.894)" gradientUnits="userSpaceOnUse"><stop offset="0" stop-color="#298f02"/><stop offset="1" stop-color="#cbfb00"/></linearGradient><linearGradient id="e9c1dbf3-78ce-4512-975a-d76eae7c0b07" x1="195.84" y1="87.41" x2="195.84" y2="127.94" xlink:href="#f210e20e-1a6c-4eea-b126-094d39e76ef0"/><linearGradient id="ffb07633-121d-4b6d-a216-ec350535231e" x1="188.94" y1="344.56" x2="188.94" y2="385.08" gradientTransform="matrix(.99 .16 .16 -.99 -90.01 423.21)" xlink:href="#f210e20e-1a6c-4eea-b126-094d39e76ef0"/><style>.a27e3583-98de-4ab5-8838-5bb5e3a70d89{fill:#373735}.a0e11868-038b-4e51-8ae1-2dcaba9fcb69{opacity:.5}.b293d513-d332-49d3-8c89-3eb136183e3d{fill:#121211}.a2af4e34-1e0c-4f58-baad-fd349c516c1b,.b293d513-d332-49d3-8c89-3eb136183e3d,.b29f2ec2-4641-4cf0-90fb-db436e7ca764,.bab4e2b7-6f20-4b0f-92e3-b0a3413d9755,.e0fda312-954f-448c-aa8c-97e125724285{stroke:#b5b5b5}.a0e11868-038b-4e51-8ae1-2dcaba9fcb69,.a1375426-0a7c-4a9d-862e-809cbb8fbe3b,.a2af4e34-1e0c-4f58-baad-fd349c516c1b,.b293d513-d332-49d3-8c89-3eb136183e3d,.b29f2ec2-4641-4cf0-90fb-db436e7ca764,.b3b0ad79-0416-4173-9e5c-1b451557247d,.bab4e2b7-6f20-4b0f-92e3-b0a3413d9755,.e0fda312-954f-448c-aa8c-97e125724285,.ea5152d7-5edf-4100-aeab-34dff120ef0c{stroke-miterlimit:10}.a2af4e34-1e0c-4f58-baad-fd349c516c1b,.b293d513-d332-49d3-8c89-3eb136183e3d,.b29f2ec2-4641-4cf0-90fb-db436e7ca764,.bab4e2b7-6f20-4b0f-92e3-b0a3413d9755,.e0fda312-954f-448c-aa8c-97e125724285,.ea5152d7-5edf-4100-aeab-34dff120ef0c{stroke-width:.5px}.a1375426-0a7c-4a9d-862e-809cbb8fbe3b{fill:#443840;stroke:#090000}.ea5152d7-5edf-4100-aeab-34dff120ef0c{stroke:#090000}.a1375426-0a7c-4a9d-862e-809cbb8fbe3b{stroke-width:.75px}.ea5152d7-5edf-4100-aeab-34dff120ef0c{fill:#6b0c05}.aa9f335c-ca5d-4e5e-a0e6-ea21da181ae6{fill:#86382f}.b3b0ad79-0416-4173-9e5c-1b451557247d{stroke:#373737}.b7a74e97-dbc7-4596-b651-c3c950f7737a{fill:#af0000}.a2af4e34-1e0c-4f58-baad-fd349c516c1b{fill:#dc6e05}.b29f2ec2-4641-4cf0-90fb-db436e7ca764{fill:#12e600}.e0fda312-954f-448c-aa8c-97e125724285{fill:#0b47ce}.bab4e2b7-6f20-4b0f-92e3-b0a3413d9755,.bbd35f92-26ec-484b-a17e-6abb85958734{fill:#282826}.f2deea3b-ead1-4afe-8973-fa3bfcbd686a{fill:#ae7a82}.b1b854fc-d8d6-4b68-9520-b136bb800c78{fill:url(#ba94692e-9e6f-4ed9-8672-7fd6d2fe03b7)}.a31c03ae-41c4-47f5-8e45-6e1da96a1d19{fill:url(#bdfaae36-9710-461b-bbee-d9abeeb12bf9)}.b34ca980-a457-4cbd-ba5f-bdb94ab5e801{fill:#0000ef}.ad3a58f3-ef0f-49d4-87b8-7265c4de7be9{fill:#930303}.ffc5dc8c-2b95-4925-a799-4d0c75ee1318{fill:#e7e7e7}.ef05d077-ddd9-4159-be47-3b07fc4d2018{fill:#2c2b29}.a0e11868-038b-4e51-8ae1-2dcaba9fcb69{stroke:#000;isolation:isolate}</style></defs><g id="b64f54ce-c040-4dae-a291-91ef48587adb" data-name="Calque 1"><path id="bdae2f17-e7e1-4582-9e24-98d54934c299" data-name="ombre" style="opacity:.5;fill:#373735" d="m452.03 588.79 21.51-5.91H485.41l1.58 2.96 237.36 43.3h11.08l11.07 31.39-46.41 37.71-46.42 13.19-8.18-1.32.27-1.85-13.98-2.63-83.6 27.95-73.32 51.57-22.83 6.82-7.77-1.16v-2.63l-16.08-3.03-129.99 34.37 153.84-230.73z"/><g id="fccee6c8-a1dc-4a74-ac14-c70d62b53b1c" data-name="bottom"><path class="a27e3583-98de-4ab5-8838-5bb5e3a70d89" d="m36 454.56 224.9 39.62v4.35l25.72 6.13-.4 311.34-248.24-47.27L36 454.56z"/><path class="b293d513-d332-49d3-8c89-3eb136183e3d" d="m202 526.54-78.38-13.74c-3 .19-4.26 3.56-4.26 3.56l.2 85c.69 2.18 3.86 5 3.86 5l74.27 13.46c5.14.49 7.52-5.25 7.52-5.25v-82.69a7.12 7.12 0 0 0-3.21-5.34zm-49.9 22.55-18.69-3.46v-20l2.27-1.88 18.1 3.07-1.78 2.69zm31.45 6.13-18.69-3.46v-20l2.27-1.87 18.1 3.06-1.78 2.67z" transform="translate(-.98 -.52)"/><path class="a1375426-0a7c-4a9d-862e-809cbb8fbe3b" d="m134.7 523.25-2.27 1.88v19.98l18.69 3.46-.1-19.58 1.78-2.67-18.1-3.07zM166.15 529.38l-2.27 1.88v19.98l18.69 3.46-.1-19.58 1.78-2.67-18.1-3.07z"/><path class="ea5152d7-5edf-4100-aeab-34dff120ef0c" d="M140.14 543.03v-12.85l8.01 1.78v12.56l-8.01-1.49zM171.2 548.87v-12.86l8.01 1.78v12.56l-8.01-1.48z"/><path d="M135.23 543.16v-15.23l2.05.4v15.16l-2.05-.33zM166.68 548.7v-15.23l2.04.4v15.16l-2.04-.33z"/><path class="aa9f335c-ca5d-4e5e-a0e6-ea21da181ae6" d="M140.4 530.69v-.35l7.47 1.8.01.43-7.48-1.88zM171.46 536.62v-.29l7.47 1.64.01.35-7.48-1.7z"/><circle cx="192.4" cy="574.85" r="4.25" style="fill:#8b8b8b;stroke-width:.75px;stroke:#090000;stroke-miterlimit:10"/><path class="b3b0ad79-0416-4173-9e5c-1b451557247d" d="M136.29 598.71v-11.27l11.96 2.18v11.3l-11.96-2.21zM167.54 604.25v-11.27l11.96 2.17v10.88l-11.96-1.78z"/></g><g id="b3190400-d202-44ab-9236-54b21a024e6f" data-name="t molding"><path class="b7a74e97-dbc7-4596-b651-c3c950f7737a" d="m11.46 450.59-.79-39.76L1 407.66v45.1l27.89 5.54c.59 103.55 1 207.6 1.58 311.15a6.18 6.18 0 0 0 3.53 2.19 12.58 12.58 0 0 0 5 0l-2-316.56zM272.36 497v-41.27l-10.28-1.19-.2 44.51 25.71 6.13s-1.51 313.85 0 315.69 8.77 1.32 8.77 1.32l.93-319.91z" transform="translate(-.98 -.52)"/><path class="b7a74e97-dbc7-4596-b651-c3c950f7737a" d="m78.72 346.42-8.15-1.3 16.26-218.56 9.04 1.5-17.15 218.36zM329.24 388.85l9.1 1.28 18.49-224.31h-26.37l-.26-90.92-10.06-1.84v94.84l6.04 1.09h20.27l-17.21 219.86z"/><path class="b7a74e97-dbc7-4596-b651-c3c950f7737a" d="M88.49 127.19s-28.17-.35-29.11-.85c0-31.21.06-62.83 0-94l9.36 2.64.48 89.02z" transform="translate(-.98 -.52)"/><g id="b590fb3b-0b19-4d9d-8568-7e948337d1ba" data-name="clair"><path class="b7a74e97-dbc7-4596-b651-c3c950f7737a" d="m0 407.14 9.69 3.17L78 346.25l-8.11-1.94L0 407.14zM261.1 454.02l10.28 1.19 66.96-65.87-8.62-1.6-68.62 66.28zM111.56 0 58.42 31.78l9.36 2.64L120.36 3.3l2.74-1.62-2.57-.36L111.56 0zM383.74 40.62l-11.21-.8-52.39 33.24 10.06 1.84 53.54-34.28z"/></g></g><g id="ff82016f-d617-4cb4-9679-d622467aa712" data-name="side"><path class="b293d513-d332-49d3-8c89-3eb136183e3d" d="m453.13 308.64.63-159.63-70.02-108.39L330.2 74.9l.26 90.92h26.37l-18.49 224.31-66.96 65.08v41.27l24.93 5.28-.93 319.91 8.25-6.32 149.65-543.7-.21 21.51-142.1 516.55-1.61 1.24 6.94-5.32 136.83-496.99zM324.06 799.15l-7.76 6.48 11.99-9.2 124.7-453.24.05-12.13-128.98 468.09zM335.43 790.95l-1.32 1.02 6.87-5.27 111.79-407.64v21.25l.22-57.12-.22 24-117.34 423.76zM343 785.15l108.58-83.28 1.18-299.85L347.4 781.78l-4.4 3.37z"/><path style="fill:#bf0000;stroke-width:.5px;stroke-miterlimit:10;stroke:#b5b5b5" d="m303.63 815.35 5.73-4.4-5.73 4.4z"/><path class="b7a74e97-dbc7-4596-b651-c3c950f7737a" d="m453.07 293.16.21-21.51-149.65 543.7 5.73-4.4 1.61-1.24 142.1-516.55z"/><path class="a2af4e34-1e0c-4f58-baad-fd349c516c1b" d="M453.13 330.74v-22.1l-.09 22.42.09-.32zM316.3 805.63z"/><path style="fill:#319402" d="m453.04 331.06.09-22.42L316.3 805.63l7.76-6.48 128.98-468.09z"/><path class="b29f2ec2-4641-4cf0-90fb-db436e7ca764" d="M452.99 343.19zM328.29 796.43l5.82-4.46-5.82 4.46z"/><path style="fill:#9fde01" d="m334.11 791.97 1.32-1.02 117.34-423.76.22-24-124.7 453.24 5.82-4.46z"/><path class="e0fda312-954f-448c-aa8c-97e125724285" d="m340.98 786.7 2.02-1.55-2.02 1.55zM452.77 402v-1.69l-.01 1.71.01-.02z"/><path style="fill:#b6b6b6" d="m340.98 786.7 2.02-1.55 4.4-3.37 105.36-379.76.01-1.71v-21.25L340.98 786.7z"/></g><g id="a0f02b9d-eedd-4150-ae4c-a2490117f483" data-name="panel"><path class="bab4e2b7-6f20-4b0f-92e3-b0a3413d9755" d="m10.48 450.07 250.42 44.11.2-40.16L9.69 410.31l.79 39.76z"/><path class="a27e3583-98de-4ab5-8838-5bb5e3a70d89" d="m79.37 345.21-69.68 65.1 251.41 43.71 68.62-66.28-250.35-42.53z"/></g><g id="be53501b-3d50-4169-8c2f-3ba45c4e442a" data-name="ecran"><path class="bab4e2b7-6f20-4b0f-92e3-b0a3413d9755" d="M96.84 129.36 79.7 347.72l250.52 42.43L347.82 168zm224.28 67.76c0 .2-.29.32-.48.49l-10.43 144.83a35.43 35.43 0 0 1-4.3 3.78l1.4.29v10.7s-1.4 4.75-11.08 2.64c-11.19-2.44-178.55-31.91-178.55-31.91l8.72-6.78v-1.39s-2.46.52-6-7l-12.48 2.77h-4l11.34-158.77s4-6.85 10.81-6.59 191.16 30.59 191.16 30.59 6.17 1.07 3.89 16.35z" transform="translate(-.98 -.52)"/><path d="M317.28 180S133 149.66 126.12 149.4s-10.81 6.6-10.81 6.6l-11.74 160.08h4.35l12.29-2.68c-.1-.23-.74-1.57-.85-1.8L131 166.54s2.11-5.54 7.12-7.38l177.49 27.16a20.77 20.77 0 0 1 5.11 9.76l-.05.75c.19-.17.62.66.66.47 3.23-14.06-4.05-17.3-4.05-17.3z" transform="translate(-.98 -.52)" style="fill:#151312"/><path d="m125.32 320-8.56 8s164.63 29.3 178.61 32.24c10.36 2.17 14.43-3.58 14.43-3.58l.61-7.37.39-7.71-4.89 3.84a20.85 20.85 0 0 1-7.73 3.87z" transform="translate(-.98 -.52)" style="fill:#555353"/><path d="M319.5 197.81c.45-.36.83-.69 1.14-1l.66-.52a20.31 20.31 0 0 0-5.72-10l-177.49-27.13c-5 1.84-7.12 7.38-7.12 7.38L119.36 311.6l.32.66c3.54 7.52 6.28 8 6.28 8l.44.08 171.78 28.93a20.85 20.85 0 0 0 7.73-3.87c2.57-1.91 4.89-3.84 4.89-3.84l10.5-145.29c-.44.46-1.05.96-1.8 1.54zM143.83 302.35z" transform="translate(-.98 -.52)" style="fill:#008aa6"/></g><g id="a1615fbd-c7fa-4412-b6af-f66503360297" data-name="top"><path id="ba6bb9cf-153f-48c8-897f-977d6acbd2be" data-name="marquee" class="bab4e2b7-6f20-4b0f-92e3-b0a3413d9755" d="m68.24 123.5 251.47 39.03.43-89.47L67.78 34.42l.46 89.08z"/><path style="stroke-miterlimit:10;stroke:#b5b5b5;fill:#373735" d="m128.84 2.64-5.74-.96-55.32 32.74 252.36 38.64 52.39-33.24L128.84 2.64z"/></g><g id="b69fe430-0ef4-4c85-9519-c3f9e2a60eed" data-name="stickp1"><path class="bbd35f92-26ec-484b-a17e-6abb85958734" d="M68.92 377.27v5.16H62.4v-5.16c-5.06.64-8.77 2.7-8.77 5.16 0 3 5.38 5.35 12 5.35s12-2.39 12-5.35c.06-2.43-3.63-4.52-8.71-5.16z" transform="translate(-.98 -.52)"/><path class="f2deea3b-ead1-4afe-8973-fa3bfcbd686a" d="M68.92 377.27v-17.78a12.18 12.18 0 0 1-3 .39 12.4 12.4 0 0 1-3.48-.49v17.88a26.67 26.67 0 0 1 6.52 0z" transform="translate(-.98 -.52)"/><path class="f2deea3b-ead1-4afe-8973-fa3bfcbd686a" d="M68.92 382.43v-5.16a26.67 26.67 0 0 0-6.52 0v5.16z" transform="translate(-.98 -.52)"/><path class="b1b854fc-d8d6-4b68-9520-b136bb800c78" d="M68.92 358.89v.6a11.24 11.24 0 0 0 8.77-10.72c0-6.14-5.29-11.11-11.81-11.11s-11.82 5-11.82 11.11a11.22 11.22 0 0 0 8.34 10.62v-.5z" transform="translate(-.98 -.52)"/><path class="f2deea3b-ead1-4afe-8973-fa3bfcbd686a" d="M68.92 359.49v-.6H62.4v.5a12.4 12.4 0 0 0 3.48.49 12.18 12.18 0 0 0 3.04-.39z" transform="translate(-.98 -.52)"/><path class="b1b854fc-d8d6-4b68-9520-b136bb800c78" d="M68.92 359.49v-.6H62.4v.5a12.4 12.4 0 0 0 3.48.49 12.18 12.18 0 0 0 3.04-.39z" transform="translate(-.98 -.52)"/></g><g id="ace06ce9-9e14-4ef6-a2d0-85a94f069e28" data-name="stickp2"><path class="bbd35f92-26ec-484b-a17e-6abb85958734" d="M198.88 399.49v5.16h-6.53v-5.16c-5 .64-8.77 2.7-8.77 5.16 0 3 5.39 5.35 12 5.35s12-2.39 12-5.35c.07-2.46-3.64-4.52-8.7-5.16z" transform="translate(-.98 -.52)"/><path class="f2deea3b-ead1-4afe-8973-fa3bfcbd686a" d="M198.88 399.49v-17.78a12.2 12.2 0 0 1-3 .39 12.83 12.83 0 0 1-3.48-.49v17.88a26.75 26.75 0 0 1 6.53 0z" transform="translate(-.98 -.52)"/><path class="f2deea3b-ead1-4afe-8973-fa3bfcbd686a" d="M198.88 404.65v-5.16a26.75 26.75 0 0 0-6.53 0v5.16z" transform="translate(-.98 -.52)"/><path class="a31c03ae-41c4-47f5-8e45-6e1da96a1d19" d="M198.88 381.11v.6a11.24 11.24 0 0 0 8.77-10.71c0-6.14-5.29-11.11-11.82-11.11S184 364.85 184 371a11.22 11.22 0 0 0 8.34 10.62v-.5z" transform="translate(-.98 -.52)"/><path class="f2deea3b-ead1-4afe-8973-fa3bfcbd686a" d="M198.88 381.71v-.6h-6.53v.5a12.83 12.83 0 0 0 3.48.49 12.2 12.2 0 0 0 3.05-.39z" transform="translate(-.98 -.52)"/><path class="a31c03ae-41c4-47f5-8e45-6e1da96a1d19" d="M198.88 381.71v-.6h-6.53v.5a12.83 12.83 0 0 0 3.48.49 12.2 12.2 0 0 0 3.05-.39z" transform="translate(-.98 -.52)"/></g><g id="b4b8a945-eab2-4110-8f56-c94f9b202f6c" data-name="boutons P1"><g id="f851376e-86db-4bb0-ad5a-746a5f46c9e8" data-name="4"><path class="b34ca980-a457-4cbd-ba5f-bdb94ab5e801" d="M92.54 389.14c-3.86 0-8.12 1.53-8.12 4.87 0 2.95 4.1 4.62 7.94 4.62 4.11 0 8-1.73 8-4.88-.04-2.35-3.88-4.61-7.82-4.61zm-.18 8.63c-3.86 0-7-1.74-7-3.89s3.13-3.89 7-3.89 7 1.74 7 3.89-3.14 3.89-7 3.89z" transform="translate(-.98 -.52)"/><path d="M92.36 390c-3.86 0-7 1.74-7 3.89s3.13 3.89 7 3.89 7-1.74 7-3.89-3.14-3.89-7-3.89z" transform="translate(-.98 -.52)" style="fill:url(#af5ef855-b20c-445e-a81e-7166e1ae86bd)"/></g><g id="f746b10d-ed40-45bb-a86b-62ba397ef2d3" data-name="5"><path class="b34ca980-a457-4cbd-ba5f-bdb94ab5e801" d="M114.79 389.14c-3.86 0-8.12 1.53-8.12 4.87 0 2.95 4.1 4.62 7.94 4.62 4.11 0 8-1.73 8-4.88-.04-2.35-3.88-4.61-7.82-4.61zm-.18 8.63c-3.86 0-7-1.74-7-3.89s3.13-3.89 7-3.89 7 1.74 7 3.89-3.14 3.89-7 3.89z" transform="translate(-.98 -.52)"/><path d="M114.61 390c-3.86 0-7 1.74-7 3.89s3.13 3.89 7 3.89 7-1.74 7-3.89-3.14-3.89-7-3.89z" transform="translate(-.98 -.52)" style="fill:url(#bf553c05-3c19-4d6f-944f-1c5420d6ba13)"/></g><g id="eeeea0ad-2626-44c6-8586-5444df68bc8f" data-name="6"><path class="b34ca980-a457-4cbd-ba5f-bdb94ab5e801" d="M133.35 395.3c-3.86 0-8.13 1.53-8.13 4.87 0 3 4.11 4.62 7.95 4.62 4.1 0 8-1.73 8-4.88-.04-2.35-3.88-4.61-7.82-4.61zm-.18 8.63c-3.86 0-7-1.74-7-3.89s3.13-3.89 7-3.89 7 1.74 7 3.89-3.17 3.89-7 3.89z" transform="translate(-.98 -.52)"/><path d="M133.17 396.15c-3.86 0-7 1.74-7 3.89s3.13 3.89 7 3.89 7-1.74 7-3.89-3.17-3.89-7-3.89z" transform="translate(-.98 -.52)" style="fill:url(#fb3e7077-6211-4e35-80c9-6b0246b0690e)"/></g><g id="a54eeed8-e4f9-49fb-9a7c-e33ae2273e3a" data-name="3"><path class="b34ca980-a457-4cbd-ba5f-bdb94ab5e801" d="M139.39 383c-3.86 0-8.13 1.53-8.13 4.88 0 2.95 4.11 4.61 8 4.61 4.1 0 8-1.73 8-4.88-.09-2.31-3.93-4.61-7.87-4.61zm-.18 8.63c-3.86 0-7-1.74-7-3.89s3.13-3.89 7-3.89 7 1.75 7 3.89-3.14 3.93-7 3.93z" transform="translate(-.98 -.52)"/><path d="M139.21 383.89c-3.86 0-7 1.75-7 3.89s3.13 3.89 7 3.89 7-1.74 7-3.89-3.14-3.89-7-3.89z" transform="translate(-.98 -.52)" style="fill:url(#e9308f4f-5c89-467b-a0cb-018c02bffe68)"/></g><g id="b1ed99b2-ddbd-4017-836e-71e22fa26711" data-name="2"><path class="b34ca980-a457-4cbd-ba5f-bdb94ab5e801" d="M121.79 377.35c-3.86 0-8.12 1.53-8.12 4.88 0 2.95 4.1 4.61 7.94 4.61 4.11 0 8-1.73 8-4.88-.04-2.34-3.88-4.61-7.82-4.61zm-.18 8.64c-3.86 0-7-1.74-7-3.89s3.13-3.89 7-3.89 7 1.74 7 3.89-3.14 3.9-7 3.9z" transform="translate(-.98 -.52)"/><path d="M121.61 378.21c-3.86 0-7 1.74-7 3.89s3.13 3.89 7 3.89 7-1.74 7-3.89-3.14-3.89-7-3.89z" transform="translate(-.98 -.52)" style="fill:url(#be3a1489-70e1-4c7f-84fd-4180f9f4536c)"/></g><g id="b48128e8-e8f7-4c5d-b923-c6f1a0d05932" data-name="1"><path class="b34ca980-a457-4cbd-ba5f-bdb94ab5e801" d="M100.5 377.78c-3.86 0-8.13 1.53-8.13 4.88 0 2.95 4.11 4.62 7.95 4.62 4.1 0 8-1.73 8-4.88-.04-2.35-3.88-4.62-7.82-4.62zm-.18 8.64c-3.86 0-7-1.74-7-3.89s3.13-3.89 7-3.89 7 1.74 7 3.89-3.14 3.89-7 3.89z" transform="translate(-.98 -.52)"/><path d="M100.32 378.64c-3.86 0-7 1.74-7 3.89s3.13 3.89 7 3.89 7-1.74 7-3.89-3.14-3.89-7-3.89z" transform="translate(-.98 -.52)" style="fill:url(#e515038c-0a0b-4ac3-968e-c03d77ed176f)"/></g></g><g id="b3f10fe7-a39d-4b64-9152-428a13f5236d" data-name="boutons P2"><g id="a9a9f851-d429-4e85-8608-1e8a91485681" data-name="1"><path class="ad3a58f3-ef0f-49d4-87b8-7265c4de7be9" d="M225.69 399.93c-3.86 0-8.13 1.53-8.13 4.87 0 2.95 4.11 4.62 7.95 4.62 4.1 0 8-1.73 8-4.88-.04-2.35-3.88-4.61-7.82-4.61zm-.18 8.63c-3.86 0-7-1.74-7-3.89s3.13-3.89 7-3.89 7 1.74 7 3.89-3.14 3.89-7 3.89z" transform="translate(-.98 -.52)"/><path d="M225.51 400.78c-3.86 0-7 1.74-7 3.89s3.13 3.89 7 3.89 7-1.74 7-3.89-3.14-3.89-7-3.89z" transform="translate(-.98 -.52)" style="fill:url(#ac4f5e01-ea7b-4c6b-ba58-c5b46ccc6719)"/></g><g id="eb6b6db6-6262-40a3-a6c7-2db705d31848" data-name="2"><path class="ad3a58f3-ef0f-49d4-87b8-7265c4de7be9" d="M247 399.49c-3.86 0-8.13 1.54-8.13 4.88 0 2.95 4.11 4.62 7.95 4.62 4.1 0 8-1.73 8-4.88-.07-2.35-3.91-4.62-7.82-4.62zm-.18 8.64c-3.86 0-7-1.74-7-3.89s3.13-3.89 7-3.89 7 1.74 7 3.89-3.17 3.89-7.03 3.89z" transform="translate(-.98 -.52)"/><path d="M246.79 400.35c-3.86 0-7 1.74-7 3.89s3.13 3.89 7 3.89 7-1.74 7-3.89-3.14-3.89-7-3.89z" transform="translate(-.98 -.52)" style="fill:url(#aa616304-f19a-466f-9e71-b6ae37c7d39c)"/></g><g id="bfbf8b1e-91cc-48c6-84fb-bcc9aa9de75c" data-name="3"><path class="ad3a58f3-ef0f-49d4-87b8-7265c4de7be9" d="M264.58 405.18c-3.86 0-8.12 1.53-8.12 4.88 0 2.95 4.1 4.61 7.94 4.61 4.1 0 8-1.73 8-4.88-.04-2.35-3.88-4.61-7.82-4.61zm-.18 8.64c-3.86 0-7-1.75-7-3.89s3.13-3.89 7-3.89 7 1.74 7 3.89-3.14 3.89-7 3.89z" transform="translate(-.98 -.52)"/><path d="M264.4 406c-3.86 0-7 1.74-7 3.89s3.13 3.89 7 3.89 7-1.75 7-3.89-3.14-3.89-7-3.89z" transform="translate(-.98 -.52)" style="fill:url(#a29a5314-aeac-40ef-a8a1-7c6e0b505ec8)"/></g><g id="a5549782-ae02-4d95-a037-8745daf78f27" data-name="4"><path class="ad3a58f3-ef0f-49d4-87b8-7265c4de7be9" d="M258.54 417.44c-3.86 0-8.13 1.53-8.13 4.88 0 2.95 4.11 4.61 8 4.61 4.1 0 8-1.73 8-4.88-.09-2.35-3.93-4.61-7.87-4.61zm-.18 8.64c-3.86 0-7-1.75-7-3.89s3.13-3.89 7-3.89 7 1.74 7 3.89-3.14 3.89-7 3.89z" transform="translate(-.98 -.52)"/><path d="M258.36 418.3c-3.86 0-7 1.74-7 3.89s3.13 3.89 7 3.89 7-1.75 7-3.89-3.14-3.89-7-3.89z" transform="translate(-.98 -.52)" style="fill:url(#a196eef8-10fc-4d91-86ef-f594bdea438a)"/></g><g id="e3594253-769a-4cfe-85e7-ca9968bf6214" data-name="5"><path class="ad3a58f3-ef0f-49d4-87b8-7265c4de7be9" d="M240 411.28c-3.86 0-8.13 1.53-8.13 4.88 0 2.95 4.11 4.61 7.95 4.61 4.1 0 8-1.73 8-4.88-.07-2.35-3.91-4.61-7.82-4.61zm-.18 8.63c-3.86 0-7-1.74-7-3.89s3.13-3.89 7-3.89 7 1.75 7 3.89-3.17 3.89-7.03 3.89z" transform="translate(-.98 -.52)"/><path d="M239.79 412.13c-3.86 0-7 1.75-7 3.89s3.13 3.89 7 3.89 7-1.74 7-3.89-3.14-3.89-7-3.89z" transform="translate(-.98 -.52)" style="fill:url(#a1587594-7b14-4df4-87e3-f4a2ed03b88d)"/></g><g id="bbebaa47-ca60-4741-91f5-0e512d854eb6" data-name="6"><path class="ad3a58f3-ef0f-49d4-87b8-7265c4de7be9" d="M217.73 411.28c-3.86 0-8.13 1.53-8.13 4.88 0 2.95 4.11 4.61 8 4.61 4.1 0 8-1.73 8-4.88-.09-2.35-3.93-4.61-7.87-4.61zm-.18 8.63c-3.86 0-7-1.74-7-3.89s3.13-3.89 7-3.89 7 1.75 7 3.89-3.14 3.89-7 3.89z" transform="translate(-.98 -.52)"/><path d="M217.55 412.13c-3.86 0-7 1.75-7 3.89s3.13 3.89 7 3.89 7-1.74 7-3.89-3.14-3.89-7-3.89z" transform="translate(-.98 -.52)" style="fill:url(#ad7dfb2b-7fdf-42d3-8c00-ada96e51537e)"/></g></g><path class="ffc5dc8c-2b95-4925-a799-4d0c75ee1318" d="M228.57 237.19v.07l-5.92-1v-.08zM236.56 238.53a.13.13 0 0 0 0 .06l-5.72-1v-.06z" transform="translate(-.98 -.52)"/><path class="ef05d077-ddd9-4159-be47-3b07fc4d2018" d="m210.17 273.38-65.56-11c-.87-.14-.87-.14-.74-.92.25-1.54.47-3.08.75-4.61.78-4.31 1.48-8.63 2.22-12.95.09-.48.22-1 .29-1.44 0-.18.12-.23.31-.19l.75.13 119.31 19.98a16.13 16.13 0 0 1 4.69 1.42 11.54 11.54 0 0 1 5.67 5.9 8.36 8.36 0 0 1 .63 3.88c0 .38-.08.76-.15 1.14l-1.56 9.36c-.07.39-.13.42-.54.36l-40.11-6.72zm14.68-7.7c-.4 2.35-.79 4.71-1.19 7.07 0 .23 0 .34.3.38 1 .15 1.95.32 2.93.49.51.09.51.09.59-.37q.69-4.22 1.4-8.43c0-.08 0-.21.12-.22s.13.1.17.17c1.69 3.14 3.43 6.26 5.06 9.42a2.38 2.38 0 0 0 3.55.6c.9-.94 1.91-1.79 2.87-2.68l4.89-4.53c.08-.07.15-.22.26-.17s0 .2 0 .31v.12c-.47 2.79-.93 5.58-1.4 8.37 0 .25 0 .35.31.4 1 .16 2 .32 3.06.51.34.07.45 0 .49-.32l2.32-13.83a1.32 1.32 0 0 0-.25-1 2.34 2.34 0 0 0-3.26-.37l-2.16 2-8.12 7.4c-.25.23-.28.22-.45-.08-2.2-4.06-4.42-8.11-6.61-12.17a2.14 2.14 0 0 0-1.43-1.06A1.74 1.74 0 0 0 226 259zm-4.51-.71c.38-2.31.76-4.61 1.16-6.92a1.32 1.32 0 0 0-.45-1.21 2.4 2.4 0 0 0-3.17 0c-2.39 2.24-4.82 4.43-7.24 6.63l-2.95 2.7c-.13.12-.23.25-.37 0l-3.44-6.31c-1.1-2-2.19-4-3.3-6a2.24 2.24 0 0 0-2.21-1 1.52 1.52 0 0 0-1.5 1.37q-1.16 6.86-2.3 13.71c0 .28.05.37.35.41 1 .15 2 .32 3 .5.44.07.45.08.51-.3.46-2.73.91-5.46 1.37-8.19 0-.13 0-.27.06-.4s0-.16.11-.17.1.08.13.14.18.34.28.51c1.63 3 3.29 6 4.88 9.07a2.34 2.34 0 0 0 3.35.6c.47-.47 1-.91 1.48-1.37l6.5-6c.06-.05.09-.14.19-.11s.07.14.06.22c-.14.81-.28 1.62-.41 2.44-.35 2.06-.69 4.13-1 6.2 0 .22 0 .32.29.36l3 .5c.44.07.45.07.52-.31q.51-3.6 1.1-7.04zm33.15 5.67c-.38 2.28-.76 4.57-1.15 6.85-.06.31.06.41.38.45 1 .16 2 .32 3 .5.33.07.45 0 .5-.31.16-1 .35-2.08.51-3.12 0-.23.12-.33.4-.28l12.77 2.14c.33.05.39.18.34.45-.18 1-.34 2.08-.53 3.12-.05.25 0 .35.32.4 1 .15 2 .32 3 .49.45.07.46.07.53-.34l1.22-7.32a6.88 6.88 0 0 0-2.51-6.52 12.61 12.61 0 0 0-6.36-3c-2.38-.41-4.76-.8-7.13-1.19-.72-.12-1.45-.26-2.17-.35a1.6 1.6 0 0 0-1.91 1.29c-.46 2.27-.83 4.5-1.21 6.74zm-62.24-10.42 1.14-6.79a1.24 1.24 0 0 0 0-.47 1.91 1.91 0 0 0-1.63-1.33c-1.55-.26-3.1-.53-4.65-.77-1.84-.3-3.66-.71-5.51-.87a11.55 11.55 0 0 0-7 1.39 6.55 6.55 0 0 0-3.37 4.67q-.63 3.74-1.25 7.47c-.07.4-.07.4.36.47 1 .17 2 .32 2.93.5.33.06.45 0 .5-.31.15-1 .34-2.06.5-3.09 0-.29.17-.35.48-.3l12.67 2.12c.34 0 .42.16.37.46-.19 1-.35 2.08-.54 3.11 0 .26 0 .36.32.4 1 .16 2 .32 3 .51.33.06.44 0 .49-.32.42-2.28.81-4.57 1.19-6.85zm-38.3 1 6.47 1.08a7.76 7.76 0 0 0 2.76 0 3.93 3.93 0 0 0 3.34-2.92c.64-3.78 1.26-7.55 1.9-11.33.05-.27 0-.37-.33-.42-1-.15-2-.32-3-.5-.36-.07-.46 0-.51.33q-.92 5.58-1.86 11.15a1.08 1.08 0 0 1-1.24.95 4.41 4.41 0 0 1-.73-.08c-1-.18-2-.37-3.06-.54l-7-1.15c-.28-.05-.35-.15-.31-.38.11-.59.19-1.18.31-1.76.06-.28 0-.4-.35-.45-.84-.13-1.68-.26-2.52-.42-.34-.07-.44 0-.49.32-.24 1.49-.49 3-.74 4.45-.07.42-.07.42.42.5zM230.83 237.63l5.72 1c.15.09.15.2.13.35-.37 2.17-.73 4.34-1.11 6.51 0 .29 0 .38.34.43 3.09.5 6.18 1 9.27 1.54.32.05.34.16.31.44-.06.67-.23 1.33-.32 2-.22 1.55-.54 3.09-.8 4.63-.1.59-.17 1.19-.26 1.78 0 .2-.12.31-.4.26L228.57 254c-.65-.11-.65-.11-.56-.68q1.29-7.69 2.57-15.38c.02-.15.02-.31.25-.31zm3.94 12.7c-.13.78-.25 1.56-.39 2.34-.05.27 0 .38.33.43 1.06.16 2.11.34 3.16.53.32.06.44 0 .49-.31.25-1.55.51-3.1.78-4.66 0-.24 0-.34-.31-.38q-1.62-.25-3.24-.54c-.28-.05-.39 0-.43.27-.16.78-.26 1.55-.39 2.32zM255.63 249.17c2.55.43 5.09.86 7.64 1.27.34.06.42.17.37.47q-.7 4.14-1.39 8.3c-.07.37-.1.4-.52.33L246.38 257c-.27-.05-.34-.16-.3-.39q.72-4.21 1.41-8.43c0-.28.18-.33.47-.28 2.55.44 5.11.86 7.67 1.29zm1.31 4.88c.14-.8.27-1.6.41-2.4 0-.23 0-.36-.3-.4l-3.44-.58c-.26 0-.38 0-.42.27l-.81 4.85c0 .25.05.36.33.41l3.37.56c.3.06.42 0 .46-.3.13-.8.27-1.6.4-2.41zM173.53 244.78l-7.64-1.27c-.31 0-.37-.15-.33-.42q.72-4.2 1.42-8.42c0-.25.13-.32.4-.27l15.36 2.6c.41.07.43.11.37.49-.26 1.55-.53 3.11-.78 4.66 0 .31-.17.37-.5.32-3.07-.53-6.15-1-9.22-1.55-.46-.08-.46-.08-.52.32s-.11.7-.19 1 0 .35.31.4c2.06.33 4.11.68 6.17 1l3.16.53c.32.05.42.17.37.44s-.14.74-.19 1.11-.18.38-.51.32zm.92-5.45c.56.1 1.13.18 1.69.29.25 0 .35 0 .38-.25 0-.39.12-.78.2-1.17 0-.21 0-.32-.26-.36l-3.41-.57c-.22 0-.33 0-.36.23q-.08.62-.18 1.23c0 .23.06.3.29.33.55.07 1.1.17 1.65.27zM211.28 241.75l7.64 1.28c.44.07.5.14.42.52-.43 2-.7 4-1.05 6-.14.74-.27 1.48-.37 2.23 0 .29-.15.37-.49.31-2.08-.36-4.17-.7-6.26-1l-9-1.51c-.42-.07-.43-.08-.37-.47.26-1.56.53-3.11.77-4.67 0-.32.18-.37.52-.31l9.16 1.54c.46.07.46.07.53-.33s.09-.67.17-1 0-.4-.36-.46c-2.34-.37-4.68-.77-7-1.16l-2.31-.38c-.24 0-.32-.12-.28-.34a10.85 10.85 0 0 0 .21-1.27c0-.27.16-.31.43-.26l5.37.9 2.27.38zm-1.15 7.25c.55.09 1.11.17 1.66.27.21 0 .33 0 .36-.21l.21-1.23c0-.19-.05-.29-.27-.33l-3.33-.56c-.24 0-.35 0-.38.24 0 .4-.11.79-.19 1.17-.05.23.05.33.29.37.52.07 1.1.17 1.65.28zM268.74 251.36c.87.15 1.74.31 2.62.44.31 0 .38.18.34.43-.08.4-.13.8-.21 1.2 0 .21 0 .3.27.34l3.36.56c.28 0 .38 0 .41-.27.06-.41.15-.82.2-1.23 0-.23.15-.27.37-.24l5.4.91c.21 0 .3.13.27.33-.08.43-.16.86-.22 1.29 0 .23-.16.29-.41.25-.44-.09-.89-.15-1.34-.24-.24 0-.33 0-.36.24-.05.4-.13.8-.19 1.2 0 .23-.15.3-.4.25-.47-.08-.94-.15-1.41-.24-.17 0-.24 0-.29.17-.13.44-.08.91-.25 1.34-.07.18.07.24.24.27l1.38.22c.28 0 .38.15.33.41s-.13.78-.21 1.17c0 .21.05.31.28.34l1.34.22c.25 0 .34.13.3.36-.09.42-.17.84-.22 1.27 0 .22-.15.27-.36.24l-.65-.11-4.62-.77c-.45-.08-.45-.08-.38-.49s.12-.76.19-1.14c.05-.21 0-.3-.27-.34l-3.44-.58c-.22 0-.29 0-.31.21-.06.4-.16.8-.19 1.21s-.19.37-.5.32l-4.72-.8c-1.16-.19-.93-.1-.8-1 0-.25.09-.49.12-.74s.16-.29.4-.25c.45.09.9.15 1.34.24.27.05.39 0 .42-.26s.14-.78.19-1.17.16-.31.41-.26c.46.09.92.15 1.37.24.21 0 .3 0 .32-.2.06-.43.13-.85.22-1.27 0-.21-.05-.28-.26-.31l-1.38-.23c-.24 0-.34-.12-.29-.36s.14-.78.21-1.17c0-.23 0-.35-.31-.38-.45-.06-.9-.15-1.35-.22-.25 0-.34-.14-.29-.37q.12-.63.21-1.26c0-.24.16-.29.4-.24zM222.64 236.28l5.92 1a.42.42 0 0 1 .05.36q-1.31 7.77-2.6 15.56c0 .28-.17.37-.48.31s-.88-.19-1.33-.26l-3.89-.62c-.46-.08-.45-.08-.39-.49q1.31-7.74 2.6-15.49c.02-.14 0-.28.12-.37zM191.71 247.82l-7.71-1.28c-.3 0-.4-.14-.35-.43q.72-4.2 1.41-8.4c0-.26.15-.32.42-.27l15.39 2.56c.31.05.42.18.36.45s-.11.72-.19 1.08-.13.41-.55.34l-4.16-.7-5.06-.85c-.28 0-.37 0-.41.25-.22 1.39-.46 2.78-.69 4.17a2.74 2.74 0 0 1 0 .28c-.11.6-.11.6.58.72l8.92 1.49c.42.07.45.11.39.5s-.15.72-.18 1.08-.19.35-.48.3c-.56-.11-1.12-.2-1.68-.29z" transform="translate(-.98 -.52)"/><path d="M291.07 282.1c-.25 1.47-.49 2.94-.74 4.41-.07.42-.07.42-.51.34l-4.27-.71c-.27 0-.37-.13-.3-.37s.07-.41.11-.62-.06-.27-.25-.29l-.49-.05c-.39-.06-.49 0-.51.37v.19c0 .43-.14.5-.63.42-1.39-.23-2.79-.47-4.19-.69-.32-.05-.4-.19-.36-.45.5-3 1-5.91 1.49-8.86.06-.36.14-.42.55-.33 2.95.58 5.92 1 8.87 1.52.52.09 1 .13 1.55.22s.47.1.4.52c-.24 1.46-.49 2.92-.73 4.38zm-8.37-.17 1.58.27c.22 0 .32 0 .35-.22.1-.59.2-1.19.31-1.79 0-.21-.06-.3-.29-.34l-3.13-.52c-.21 0-.31 0-.35.22-.08.59-.18 1.19-.29 1.79 0 .21 0 .31.27.34zm5.47-1.49c-.52-.08-1-.16-1.55-.26-.25-.05-.36 0-.39.24-.09.59-.19 1.19-.29 1.78-.05.23.05.29.28.33 1 .16 2 .33 3 .51.28.05.39 0 .43-.27.08-.56.17-1.13.28-1.69 0-.23 0-.35-.3-.39-.48-.08-.97-.17-1.46-.25z" transform="translate(-.98 -.52)" style="fill:#2785db"/><path d="M292.87 271.31c-.25 1.48-.5 3-.74 4.44-.07.38-.11.4-.52.34l-2.86-.48c-.41-.07-.49-.18-.43-.54.14-.85.28-1.71.43-2.56a.34.34 0 0 1 0-.1c.2-.63.12-.52.72-.43l1.48.25c.26 0 .4 0 .44-.25.09-.59.19-1.18.29-1.76 0-.21 0-.33-.3-.38l-8-1.34c-.26 0-.39.05-.42.28-.09.57-.19 1.14-.28 1.7 0 .23.05.36.31.41l3.06.52a.25.25 0 0 0 .33-.17 1.81 1.81 0 0 0 .12-.64c0-.19.11-.24.27-.29a.45.45 0 0 1 .2 0c.85.09.89.14.77.88-.21 1.26-.43 2.51-.63 3.77 0 .26-.17.34-.43.3l-5.43-.91c-.49-.08-.55-.15-.48-.58.49-3 1-5.91 1.48-8.87 0-.17.09-.23.28-.22s.55 0 .83.08l9.77 1.63c.55.09.55.1.47.6l-.72 4.32z" transform="translate(-.98 -.52)" style="fill:#44c047"/><path d="M289.84 254.78c1.75.29 3.49.59 5.24.87.3 0 .4.13.35.42-.51 3-1 5.95-1.49 8.92-.05.3-.16.38-.49.32-1.4-.25-2.8-.48-4.2-.71-.36-.06-.42-.15-.36-.47 0-.12.06-.23.08-.34.08-.47.08-.47-.46-.56h-.21c-.5-.08-.51-.08-.54.39 0 .18-.1.34-.11.52s-.18.19-.35.16l-4.44-.74c-.23 0-.32-.15-.29-.35.17-1 .35-2 .51-3.06 0-.28.23-.27.45-.23l1.83.3c.8.15 1.61.24 2.4.44.25.06.44 0 .48-.27.07-.57.17-1.14.28-1.7.05-.27 0-.38-.34-.43-1.42-.22-2.83-.47-4.24-.7-.29 0-.4-.12-.35-.4.18-1 .33-2 .48-3 0-.26.15-.33.44-.28 1.77.31 3.55.6 5.33.9zm1.49 6.43c.51.08 1 .16 1.54.26.22 0 .35 0 .39-.21.09-.61.19-1.22.3-1.82 0-.2 0-.32-.27-.35l-3.09-.52c-.22 0-.32 0-.35.21-.09.63-.2 1.25-.31 1.88 0 .18 0 .26.24.29z" transform="translate(-.98 -.52)" style="fill:#eb1416"/><path class="ef05d077-ddd9-4159-be47-3b07fc4d2018" d="m156.94 232.66 7.54 1.26c.53.09.53.09.45.57s-.13.7-.17 1-.16.33-.44.28l-9.3-1.57c-.33-.05-.41 0-.45.3-.35 2.17-.72 4.33-1.07 6.49-.05.31-.2.36-.51.31l-5.19-.87c-.3 0-.4-.14-.35-.42q.72-4.19 1.4-8.39c.05-.31.19-.34.48-.29z" transform="translate(-.98 -.52)"/><path class="ffc5dc8c-2b95-4925-a799-4d0c75ee1318" d="M224.85 265.68 226 259a1.74 1.74 0 0 1 2.34-1.33 2.14 2.14 0 0 1 1.43 1.06c2.19 4.06 4.41 8.11 6.61 12.17.17.3.2.31.45.08l8.14-7.43 2.16-2a2.34 2.34 0 0 1 3.26.37 1.32 1.32 0 0 1 .25 1q-1.17 6.91-2.32 13.83c0 .29-.15.39-.49.32-1-.19-2-.35-3.06-.51-.3-.05-.36-.15-.31-.4.47-2.79.93-5.58 1.4-8.37v-.12c0-.04.11-.25 0-.31s-.18.1-.26.17l-4.89 4.53c-1 .89-2 1.74-2.87 2.68a2.38 2.38 0 0 1-3.55-.6c-1.63-3.16-3.37-6.28-5.06-9.42 0-.07-.06-.19-.17-.17s-.11.14-.12.22l-1.4 8.43c-.08.46-.08.46-.59.37-1-.17-1.95-.34-2.93-.49-.28 0-.34-.15-.3-.38.4-2.36.79-4.72 1.19-7.07zM220.34 265q-.59 3.46-1.16 6.95c-.07.38-.08.38-.52.31l-3-.5c-.27 0-.32-.14-.29-.36.36-2.07.7-4.14 1-6.2.13-.82.27-1.63.41-2.44 0-.08.06-.18-.06-.22s-.13.06-.19.11l-6.5 6c-.5.46-1 .9-1.48 1.37a2.34 2.34 0 0 1-3.35-.6c-1.59-3-3.25-6.05-4.88-9.07-.1-.17-.19-.34-.28-.51s-.05-.14-.13-.14-.1.1-.11.17 0 .27-.06.4c-.46 2.73-.91 5.46-1.37 8.19-.06.38-.07.37-.51.3-1-.18-2-.35-3-.5-.3 0-.4-.13-.35-.41q1.16-6.86 2.3-13.71a1.52 1.52 0 0 1 1.5-1.37 2.24 2.24 0 0 1 2.21 1c1.11 2 2.2 4 3.3 6l3.44 6.31c.14.27.24.14.37 0l2.95-2.7c2.42-2.2 4.85-4.39 7.24-6.63a2.4 2.4 0 0 1 3.17 0 1.32 1.32 0 0 1 .45 1.21c-.4 2.31-.78 4.61-1.16 6.92zM253.49 270.64c.38-2.24.75-4.47 1.13-6.7a1.6 1.6 0 0 1 1.91-1.29c.72.09 1.45.23 2.17.35 2.37.39 4.75.78 7.13 1.19a12.61 12.61 0 0 1 6.36 3 6.88 6.88 0 0 1 2.51 6.52q-.6 3.66-1.22 7.32c-.07.41-.08.41-.53.34-1-.17-2-.34-3-.49-.29 0-.37-.15-.32-.4.19-1 .35-2.08.53-3.12.05-.27 0-.4-.34-.45l-12.77-2.14c-.28-.05-.36 0-.4.28-.16 1-.35 2.08-.51 3.12-.05.3-.17.38-.5.31-1-.18-2-.34-3-.5-.32 0-.44-.14-.38-.45.39-2.28.77-4.57 1.15-6.85zM264 273l6.37 1.07c.3 0 .43 0 .46-.28s.08-.52.12-.78a4.27 4.27 0 0 0-1.54-4.2 8.48 8.48 0 0 0-4-1.85c-2.25-.43-4.52-.78-6.77-1.17-.34-.06-.36.12-.4.33q-.44 2.69-.9 5.37c0 .29 0 .4.36.46zM191.25 260.22c-.38 2.28-.77 4.57-1.14 6.85-.05.3-.16.38-.49.32-1-.19-2-.35-3-.51-.29 0-.36-.14-.32-.4.19-1 .35-2.08.54-3.11.05-.3 0-.41-.37-.46l-12.67-2.12c-.31-.05-.44 0-.48.3-.16 1-.35 2.05-.5 3.09 0 .3-.17.37-.5.31-1-.18-1.95-.33-2.93-.5-.43-.07-.43-.07-.36-.47q.62-3.74 1.25-7.47a6.55 6.55 0 0 1 3.37-4.67 11.55 11.55 0 0 1 7-1.39c1.85.16 3.67.57 5.51.87 1.55.24 3.1.51 4.65.77a1.91 1.91 0 0 1 1.59 1.37 1.24 1.24 0 0 1 0 .47l-1.14 6.79zm-10.67-1.14c2.11.35 4.22.7 6.33 1.07.32.05.44 0 .48-.29.3-1.81.6-3.63.91-5.44 0-.26 0-.37-.33-.42q-3-.48-6-1a11.11 11.11 0 0 0-3.77 0 4.85 4.85 0 0 0-3.81 2.54 7.49 7.49 0 0 0-.52 2c-.07.4-.07.41.4.48zM153 261.25l-7-1.17c-.49-.08-.49-.08-.42-.5.25-1.48.5-3 .74-4.45.05-.28.15-.39.49-.32.84.16 1.68.29 2.52.42.31.05.41.17.35.45-.12.58-.2 1.17-.31 1.76 0 .23 0 .33.31.38l7 1.15c1 .17 2 .36 3.06.54a4.41 4.41 0 0 0 .73.08 1.08 1.08 0 0 0 1.24-.95q.94-5.58 1.86-11.15c0-.3.15-.4.51-.33 1 .18 2 .35 3 .5.3.05.38.15.33.42-.64 3.78-1.26 7.55-1.9 11.33a3.93 3.93 0 0 1-3.34 2.92 7.76 7.76 0 0 1-2.76 0l-6.41-1.08z" transform="translate(-.98 -.52)"/><path class="ef05d077-ddd9-4159-be47-3b07fc4d2018" d="m264 273-6.33-1c-.34-.06-.41-.17-.36-.46q.47-2.68.9-5.37c0-.21.06-.39.4-.33 2.25.39 4.52.74 6.77 1.17a8.48 8.48 0 0 1 4 1.85 4.27 4.27 0 0 1 1.54 4.2c0 .26-.1.52-.12.78s-.16.33-.46.28zM180.58 259.08l-6.3-1.06c-.47-.07-.47-.08-.4-.48a7.49 7.49 0 0 1 .52-2 4.85 4.85 0 0 1 3.81-2.54 11.11 11.11 0 0 1 3.77 0q3 .51 6 1c.31.05.38.16.33.42-.31 1.81-.61 3.63-.91 5.44 0 .29-.16.34-.48.29-2.11-.37-4.22-.72-6.33-1.07z" transform="translate(-.98 -.52)"/></g><g id="b5a49e68-5c0a-4717-ac3f-c14c3377d637" data-name="f503df86-8a1f-4273-abbb-cd42bf378247"><path d="M123.34 47.9a8.5 8.5 0 0 0 1 1 7.86 7.86 0 0 1 3.61 6c.35 3.92.7 7.85.88 11.75.25 5.53-4.18 9.9-10.07 10.11-3.66.13-7.11-2.92-7.8-6.9 6.47 3.72 11.68-1.71 11-6.52-.44-3.24-.47-6.47-.82-9.71a49.8 49.8 0 0 0-1.12-5l2.1-.91z" transform="translate(-.98 -.52)" style="fill:url(#ac7ee228-75a3-4c7b-9bb3-b4dd7282910d)"/><path d="M91.74 84.51v15.38c0 4.29 1.59 5.93 6.18 6.48 5.7.69 14.14 2.66 14.63-4.25.25-2.22.25-4.53 2.24-6 8.33-4.83 11.22 11.15 1.29 10.43-4.51.35-4.94 4.81-5.31 8.3-.4 7.3-13.79 1-19.2.68-10.32-1.15-1-8.87-9.24-12.36a5.45 5.45 0 0 1-2.62-4.63l1.63-26c-.37-4.33 6.21-4 5.93-8.39.23-3.5 2.18-5.27 5.6-6.34 7.44-2.32 14.68-5 22-7.57 2.72-.94 3.81-.18 4 2.66.25 3.67.58 7.35.79 11 .77 4.23-6.08 8-8.1 2.85-1.16-10.36-11.38-4.08-16.94-2.63-4.68 1.29-2.1 15.66-2.93 20.34z" transform="translate(-.98 -.52)" style="fill:url(#b3d28fea-a949-4824-8de0-c6b5d1c53752)"/><path d="m89.21 117 14.86 3c6 1.22 8.62-.53 9.16-5.83a13.84 13.84 0 0 1 .67-3.34 3.39 3.39 0 0 1 3.5-2.38c6.71-.21 8.16-5.26 6.68-10.19-1-3.29-3.22-4.8-6.8-5l-1.82-.08c1-1.72 4-2.58 7-2 6.45 1.32 10.61 6.45 10 12.29-.46 4.21-2.36 7.75-6.36 9.75a7.29 7.29 0 0 1-3.23.91c-1.52 0-2 .6-2.18 1.82a13.86 13.86 0 0 1-3.91 8 6.06 6.06 0 0 1-6.21 1.4c-5.44-1.46-10.84-2.88-16.28-4.24-2.46-.55-3.85-1.97-5.08-4.11z" transform="translate(-.98 -.52)" style="fill:url(#ab62b94a-abda-4bff-b274-480d158ae269)"/><path d="M110 102.59c-1.42 4.68-8.19 1.87-12.35 1.87-2.71-.32-3.53-1.12-3.55-3.66 0-10.31.19-20.59.15-30.9 0-2.37.7-4 3.36-4.58 3.26-.37 7.15-3.36 10.55-1.92a11.7 11.7 0 0 1 1.2 4c-2.23 1.23-5.79 1.29-8.31 2.28a2.28 2.28 0 0 0-1.43 1.81c-.06 9.38 0 18.78 0 28.16-.31 4.09 7.38 2.09 10.38 2.94z" transform="translate(-.98 -.52)" style="fill:url(#e7a08718-5910-4f22-8949-9e4341bceafc)"/><path d="M101.89 72.45c2.15 1.14 4.1 2.13 6 3.23a2.31 2.31 0 0 1 .9 1.58q.47 11.05.75 22.1c0 .45-.79 1.1-1.34 1.12a26.13 26.13 0 0 1-4.81-.3c-.48-.07-1.39-.82-1.39-1.16-.1-8.75-.09-17.49-.09-26.57z" transform="translate(-.98 -.52)" style="fill:url(#ecaa6241-8350-4ba2-b15d-e37750b2df72)"/><path d="M120.85 79a62.17 62.17 0 0 0 6.15-3.33c3.73-2.58 4.41-6.61 4-11.09-.26-2.87-.46-5.73-.67-8.6 0-.34 0-.68.07-1.3 3.43 3.29 6.91 6.09 6.58 10.75a57.08 57.08 0 0 0 .54 8.19 3.75 3.75 0 0 1-1.88 3.75c-1.12.77-1.73 2.1-2.6 3.17a3.65 3.65 0 0 1-1.15 1.23c-3.43 1.49-8.58.07-11.04-2.77z" transform="translate(-.98 -.52)" style="fill:url(#a85d4695-dc51-4c99-a8d2-4c0c9a75b7f0)"/><path d="M133.82 98.58a53 53 0 0 0 3.32 4.36 53.94 53.94 0 0 0 4.08 3.61c-1.6 3.19-2.49 6.57-5.87 8.34-2.18 1.15-4.45 1.11-7.22.11 4.65-4.31 8.19-9 5.69-16.42z" transform="translate(-.98 -.52)" style="fill:url(#b8a3dd69-6375-4d92-8e06-4e9e58c4ee6b)"/><path d="M119.25 125.61c1.18-2.91 2.31-5.77 3.52-8.59a1.25 1.25 0 0 1 1.09-.61c2 .31 4 .74 6 1.13.14 4.98-3.71 9.82-10.61 8.07z" transform="translate(-.98 -.52)" style="fill:url(#e60cc8c4-d4a0-4b0b-b705-7d30e2fa7e2c)"/><path d="m104.28 71 4.06-1 2.17 4.14-.36.5-6-3.11z" transform="translate(-.98 -.52)" style="fill:url(#f0e35f37-6641-4d80-a318-84f52eeb573b)"/><path class="a0e11868-038b-4e51-8ae1-2dcaba9fcb69" d="m290.76 119.42-13.11-2c-2.18-.34-2.76.35-2.14 2.34a9.53 9.53 0 0 0 7.09 6.17c5.66 1 11.32 1.84 17 2.82 2 .34 3.92 1 5.88 1.45a3.11 3.11 0 0 1 2.49 3.08c.12 1.44-.2 2.74-1.95 3a14 14 0 0 1-3.78.16c-6.89-1-13.78-2.22-20.67-3.18-4.8-.67-7.65-4-10.81-7a11.84 11.84 0 0 1-3.72-9v-14.25c0-3.14 1.54-5.17 4-7.08 4.8-3.67 10.45-4.07 16.92-2.64a60.45 60.45 0 0 1 6.31 1.35 29.43 29.43 0 0 1 5.17 2.72c.78.47 1.36 1.27 2.13 1.76 4.37 2.77 6.38 6.39 6.25 10.78-.09 3.18-.12 6.38-.44 9.5-.22 2.18-1 2.5-3.55 2.12-4.37-.65-8.74-1.36-13.11-2zm-3.28-7.78c3.55.55 7.1 1.14 10.64 1.61.59.09 1.64-.24 1.64-.55.15-3 .66-6-2.79-8.74s-14-5-17.64-3.61c-4 1.53-4.42 4.66-3.94 8.35.06.42 1.06 1.18 1.64 1.29 3.48.62 7 1.11 10.45 1.65z" transform="translate(-.98 -.52)"/><path d="m291.14 118.91-13.1-2c-2.19-.34-2.77.35-2.15 2.33a9.51 9.51 0 0 0 7.1 6.17c5.65 1.06 11.32 1.84 17 2.83 2 .35 3.92 1 5.88 1.45a3.1 3.1 0 0 1 2.49 3.08c.12 1.43-.2 2.74-1.94 3a13.65 13.65 0 0 1-3.79.17c-6.89-1-13.78-2.22-20.67-3.18-4.79-.67-7.64-4-10.81-7a11.83 11.83 0 0 1-3.71-9c-.05-4.75 0-9.5 0-14.25 0-3.14 1.53-5.17 4-7.07 4.8-3.68 10.46-4.08 16.92-2.65a61.19 61.19 0 0 1 6.32 1.35 28.41 28.41 0 0 1 5.16 2.73c.78.46 1.36 1.26 2.14 1.75 4.37 2.77 6.38 6.39 6.25 10.78-.1 3.18-.13 6.37-.45 9.5-.22 2.17-1 2.5-3.55 2.12-4.37-.65-8.74-1.36-13.1-2zm-3.28-7.79c3.55.55 7.1 1.14 10.64 1.62.58.09 1.64-.25 1.64-.56.14-3 .66-6-2.79-8.74s-14-5-17.62-3.58c-4 1.53-4.42 4.66-3.94 8.35.06.42 1.06 1.15 1.64 1.29 3.47.59 6.95 1.08 10.43 1.62z" transform="translate(-.98 -.52)" style="fill:url(#f210e20e-1a6c-4eea-b126-094d39e76ef0)"/><path class="a0e11868-038b-4e51-8ae1-2dcaba9fcb69" d="M208.69 118.35a6.14 6.14 0 0 0-1.15.2c-6.82 3-14.39 1.2-21.74-1.07-5.89-1.81-9.35-5.58-9.62-12.59a25.2 25.2 0 0 1 .73-6.64c.63-2.76 5.6-5.69 9-5.28 6.45.77 12.91 1.71 19.37 2.61 2.9.41 2.9.45 2.84-2.2-.08-3.54-1.4-5.25-5.24-6.1s-7.48-1.28-11.22-2c-1.41-.26-2.83-.69-4.25-1.06a3.42 3.42 0 0 1-2.87-3.65c0-1.79.86-2.79 2.81-2.58 5.14.54 10.28 1.1 15.43 1.89a18.64 18.64 0 0 1 6.68 2.23 13.76 13.76 0 0 1 6.83 12c.25 7.49.65 15 .93 22.47a17.17 17.17 0 0 1-.37 3.22 2.6 2.6 0 0 1-3.15 2.21c-1.37-.22-2.78-1.4-4.09-2.26-.4-.23-.55-.85-.92-1.45zM197 101.54l-.5-.1c-3.31-.36-6.2-.76-9.45-1a2.15 2.15 0 0 0-2.6 2.4v4.43a3.17 3.17 0 0 0 2.72 3.31c3.59.77 7.19 1.44 10.78 2.06a5.65 5.65 0 0 0 2.33-.13c2.22-.6 4.4-1.27 6.57-2a2.49 2.49 0 0 0 1.39-.77c1.34-2.31-.68-6.2-3.73-7a75.36 75.36 0 0 0-7.51-1.2z" transform="translate(-.98 -.52)"/><path d="M209.22 118.12a6.19 6.19 0 0 0-1.14.21c-6.82 3-14.39 1.2-21.74-1.07-5.9-1.82-9.35-5.58-9.63-12.59a25.75 25.75 0 0 1 .75-6.65c.62-2.75 5.59-5.68 9-5.27 6.45.77 12.92 1.71 19.37 2.62 2.91.4 2.91.45 2.85-2.22-.08-3.52-1.4-5.24-5.25-6.09s-7.48-1.28-11.21-2c-1.42-.25-2.84-.68-4.25-1a3.44 3.44 0 0 1-2.88-3.64c0-1.79.87-2.79 2.82-2.59 5.13.55 10.28 1.1 15.42 1.9A18.63 18.63 0 0 1 210 82a13.74 13.74 0 0 1 6.82 12c.26 7.49.65 15 .93 22.47a16.29 16.29 0 0 1-.37 3.22 2.6 2.6 0 0 1-3.15 2.21c-1.37-.22-2.77-1.39-4.09-2.25-.4-.28-.55-.87-.93-1.48zm-11.65-16.8-.78-.12s-5.89-.82-9.17-1a2.18 2.18 0 0 0-2.6 2.4v4.44a3.17 3.17 0 0 0 2.72 3.31c3.59.77 7.19 1.43 10.78 2.06a5.65 5.65 0 0 0 2.33-.13c2.22-.6 4.4-1.27 6.57-2a2.43 2.43 0 0 0 1.38-.77c1.35-2.31-.67-6.2-3.72-7a68 68 0 0 0-7.51-1.27z" transform="translate(-.98 -.52)" style="fill:url(#e9c1dbf3-78ce-4512-975a-d76eae7c0b07)"/><path class="a0e11868-038b-4e51-8ae1-2dcaba9fcb69" d="M156.82 113.5c-2.07-.35-4.13-.79-6.19-1.34a19.91 19.91 0 0 1-10.58-6.06c-1.88-2-3.76-4.06-5.74-6a10.67 10.67 0 0 1-3-8 68.09 68.09 0 0 1 .89-11 5.64 5.64 0 0 1 2.27-3.37c2.27-1.67 4.9-2.94 7.27-4.51 2.93-2 6.45-2 10.2-1.4q8.73 1.52 17.45 3.2a3.22 3.22 0 0 1 2.85 3.42c0 2-.71 2.9-2.84 2.73-4.26-.37-8.59-.54-12.8-1.62-7-1.79-11.53 1-15.9 4.29a5 5 0 0 0-1.2 2.46c-.16.47.05 1.13-.05 1.65-1 5.44 1 10 6.37 13.94 2.3 1.68 4.41 3.12 7.26 3.57 5.44.87 10.84 2 16.26 3a3.33 3.33 0 0 1 3 3.35c.13 1.81-.76 2.92-2.81 2.83-3.9-.18-7.83-.63-11.74-1z" transform="translate(-.98 -.52)"/><path d="M157.38 113.28c-2.38-.37-4-.83-6.46-1.38a19.68 19.68 0 0 1-10.58-6.06c-1.88-2-3.76-4.06-5.74-6-2.48-2.46-2.95-5.32-3-8a68.18 68.18 0 0 1 .9-11 5.62 5.62 0 0 1 2.27-3.36c2.27-1.67 4.9-3 7.27-4.52 2.93-2 6.45-2 10.2-1.4Q161 73 169.71 74.68a3.24 3.24 0 0 1 2.85 3.42c0 2-.71 2.91-2.84 2.72-4.26-.35-8.6-.53-12.8-1.61-7-1.79-11.53 1-15.9 4.29a5.05 5.05 0 0 0-1.21 2.5c-.16.47.06 1.12-.05 1.65-1 5.44 1 10 6.38 13.94 2.3 1.69 4.41 3.12 7.25 3.57 5.45.87 10.84 2 16.27 3a3.35 3.35 0 0 1 3 3.37c.12 1.8-.76 2.91-2.82 2.82-3.89-.18-7.82-.63-11.73-1z" transform="translate(-.98 -.52)" style="fill:url(#ffb07633-121d-4b6d-a216-ec350535231e)"/><path class="a0e11868-038b-4e51-8ae1-2dcaba9fcb69" d="M242.5 119.32c1.64-2.94 3-5.45 4.41-7.95 2.18-4 4.48-7.89 6.5-12a20.83 20.83 0 0 0 1.3-5.11c.23-1.18.16-2.47.47-3.59.48-1.78 1.91-2.4 4.07-2a3.67 3.67 0 0 1 3.27 3.17c.78 3.88 1 7.57-.92 10.87-3.92 6.71-7.73 13.49-11.6 20.23-.41.71-.95 1.35-1.39 2-1.64 2.52-4.32 2.58-7.45 1.85a6.85 6.85 0 0 1-4.73-4.07c-4.48-9-9-18-13.33-27-1.83-3.84-1.36-7.56-.15-11 .48-1.38 1.92-1.39 3.33-1.09s2.88.87 3.22 2.53a13.94 13.94 0 0 1 .6 3.74c-.23 2.62.81 5 2 7.54 3.1 6.51 6.12 13 9.18 19.57.29.59.62 1.17 1.22 2.31z" transform="translate(-.98 -.52)"/><path d="M242.9 119.2c1.64-2.93 3-5.44 4.4-8 2.19-4 4.48-7.89 6.51-12a20.83 20.83 0 0 0 1.3-5.11c.23-1.17.15-2.46.46-3.58.48-1.78 1.91-2.41 4.07-2a3.65 3.65 0 0 1 3.27 3.17c.77 3.87 1 7.56-.92 10.86-3.92 6.71-7.72 13.49-11.6 20.23-.41.72-.95 1.35-1.39 2-1.64 2.52-4.32 2.58-7.46 1.85a6.89 6.89 0 0 1-4.72-4.08c-4.48-9-9-18-13.33-27-1.83-3.83-1.36-7.55-.15-11 .48-1.37 1.92-1.38 3.32-1.09s2.89.88 3.23 2.54a14.31 14.31 0 0 1 .61 3.73c-.23 2.62.8 5 2 7.54 3.1 6.51 6.12 13.05 9.18 19.57.29.6.64 1.18 1.23 2.31z" transform="translate(-.98 -.52)" style="fill:url(#a71b39a8-e1c0-40b7-be77-f42b5cc29e6e)"/></g></svg>