<svg id="a39bf15f-3f12-4c5b-bb4e-0c09fbde5eae" data-name="f503df86-8a1f-4273-abbb-cd42bf378247" xmlns="http://www.w3.org/2000/svg" xmlns:xlink="http://www.w3.org/1999/xlink" viewBox="0 0 113.12 160.21"><defs><style>.f17e8ee8-d77c-4f09-9053-6c72f7e6e254{fill:url(#b723a0ff-5424-4a56-9ba9-462da7af1bed);}.a29d0c60-8370-49b2-b6f8-ca3a3fbf91fe{fill:url(#bbdbef95-9b97-47f8-b6c7-35bef3cf7045);}.f8ad9e25-e797-42ca-93cb-1af6f34ce7f0{fill:url(#fa2f0fd6-e335-4c32-a33e-e196fb8241c5);}.a59b5dbf-9429-44bd-8c94-dbc67b7495a7{fill:url(#e32c4e64-356f-4067-ab9f-7e324add36fc);}.a8eb9a4b-dcd6-4e8b-8d8d-d1db95a9629a{fill:url(#f6440fd4-1217-43e6-b038-7371643c3283);}.bff66e6d-d826-4c7f-bf70-44396e16264e{fill:url(#ffe35105-ce7f-466c-8d64-91a5a88c434b);}.b645e997-944b-468d-850b-6354cf04df6d{fill:url(#b8779528-22af-48d2-b8ea-ea27a84d9533);}.a60ad0df-7917-452b-80b1-7c69a8be1355{fill:url(#be6fada2-79ec-4709-9561-24126a77a196);}.a215a485-60d4-4c3e-aeda-45f9f36fedd3{fill:url(#f57589e7-32b6-4685-8162-c08d6fc85b79);}</style><linearGradient id="b723a0ff-5424-4a56-9ba9-462da7af1bed" x1="113.24" y1="-241.16" x2="113.24" y2="-181.31" gradientTransform="matrix(1, 0, 0, -1, -39.29, -181.33)" gradientUnits="userSpaceOnUse"><stop offset="0" stop-color="#494949"/><stop offset="1" stop-color="#bcbcbc"/></linearGradient><linearGradient id="bbdbef95-9b97-47f8-b6c7-35bef3cf7045" x1="78.57" y1="-328.94" x2="78.57" y2="-187.27" xlink:href="#b723a0ff-5424-4a56-9ba9-462da7af1bed"/><linearGradient id="fa2f0fd6-e335-4c32-a33e-e196fb8241c5" x1="96.59" y1="-341.52" x2="96.59" y2="-268.82" xlink:href="#b723a0ff-5424-4a56-9ba9-462da7af1bed"/><linearGradient id="e32c4e64-356f-4067-ab9f-7e324add36fc" x1="80.38" y1="-303.3" x2="80.38" y2="-216.99" xlink:href="#b723a0ff-5424-4a56-9ba9-462da7af1bed"/><linearGradient id="f6440fd4-1217-43e6-b038-7371643c3283" x1="87.16" y1="-292.87" x2="87.16" y2="-237.47" xlink:href="#b723a0ff-5424-4a56-9ba9-462da7af1bed"/><linearGradient id="ffe35105-ce7f-466c-8d64-91a5a88c434b" x1="130.3" y1="-249.31" x2="130.3" y2="-192.79" xlink:href="#b723a0ff-5424-4a56-9ba9-462da7af1bed"/><linearGradient id="b8779528-22af-48d2-b8ea-ea27a84d9533" x1="140.42" y1="-315.53" x2="140.42" y2="-280.1" xlink:href="#b723a0ff-5424-4a56-9ba9-462da7af1bed"/><linearGradient id="be6fada2-79ec-4709-9561-24126a77a196" x1="121.81" y1="-339.23" x2="121.81" y2="-319.13" xlink:href="#b723a0ff-5424-4a56-9ba9-462da7af1bed"/><linearGradient id="f57589e7-32b6-4685-8162-c08d6fc85b79" x1="90.17" y1="-239.3" x2="90.17" y2="-230.51" xlink:href="#b723a0ff-5424-4a56-9ba9-462da7af1bed"/></defs><path class="f17e8ee8-d77c-4f09-9053-6c72f7e6e254" d="M80.3,0a11.23,11.23,0,0,0,1.82,1.69c4.23,2.48,6.24,6.31,6.63,11,.64,7.79,1.28,15.59,1.61,23.4.47,11-7.68,21.23-18.51,23.5C65.13,61,58.79,55.93,57.52,48.13,69.41,53.61,79,41,77.77,31.55c-.81-6.39-.85-12.88-1.51-19.3A93.36,93.36,0,0,0,74.2,2.47L78.07,0Z" transform="translate(-0.04 0.02)"/><path class="a29d0c60-8370-49b2-b6f8-ca3a3fbf91fe" d="M22.18,83.6v31c0,8.63,2.93,11.43,11.38,11.1,10.47-.38,26,.94,26.89-13.14.47-4.54.46-9.2,4.12-12.8C79.88,87.42,85.21,118.7,67,120.37c-8.3,2.12-9.09,11.22-9.76,18.38-.74,14.83-25.37,6.3-35.31,7.38-19,.92-1.91-17.54-17-22-2.72-1-5-5-4.83-8.51l3-52.85C2.38,54.15,14.47,52.87,14,44c.42-7.12,4-11.31,10.3-14.53,13.68-7,27-14.76,40.51-22.13,5-2.74,7-1.54,7.38,4.11.46,7.32,1.08,14.63,1.46,22,1.42,8.27-11.17,18.1-14.89,8.25-2.13-20.49-20.92-4.65-31.16,0C19,45.78,23.71,73.92,22.18,83.6Z" transform="translate(-0.04 0.02)"/><path class="f8ad9e25-e797-42ca-93cb-1af6f34ce7f0" d="M17.53,149.78l27.33,1.42c10.94.58,15.85-3.78,16.85-14.62a33.22,33.22,0,0,1,1.22-6.93,7.82,7.82,0,0,1,6.45-5.9c12.33-2.51,15-13.14,12.27-22.6-1.81-6.32-5.92-8.66-12.49-7.88l-3.36.42c1.79-3.76,7.44-6.47,12.84-6.18,11.85.64,19.5,9.67,18.31,21.64-.85,8.63-4.35,16.34-11.7,21.63a15.14,15.14,0,0,1-5.94,2.84c-2.78.47-3.63,1.83-4,4.36-1,6.3-3,12.29-7.18,17.32-3,3.59-6.63,5.38-11.42,4.78-10-1.24-19.94-2.41-29.94-3.44C22.36,156.2,19.8,153.78,17.53,149.78Z" transform="translate(-0.04 0.02)"/><path class="a59b5dbf-9429-44bd-8c94-dbc67b7495a7" d="M55.71,114.32c-2.6,9.88-15.06,6.34-22.7,7.63-5,.21-6.5-1.15-6.53-6.25-.07-20.77.34-41.54.27-62.31,0-4.77,1.29-8.29,6.18-10.27,6-1.76,13.15-9,19.4-7.17,1.35,2.19,1.73,5,2.21,7.64C50.43,46.78,43.89,48,39.26,50.78a5.65,5.65,0,0,0-2.63,4.11c-.11,18.9.06,37.81,0,56.71C36.11,120,50.29,113.54,55.71,114.32Z" transform="translate(-0.04 0.02)"/><path class="a8eb9a4b-dcd6-4e8b-8d8d-d1db95a9629a" d="M40.86,56.14c4,1.63,7.54,3,11,4.63a3.92,3.92,0,0,1,1.64,2.9c.57,14.76,1.06,29.52,1.38,44.28a3.84,3.84,0,0,1-2.45,2.67,43.19,43.19,0,0,1-8.86.92c-.88,0-2.55-1.23-2.55-1.91-.19-17.6-.16-35.21-.16-53.49Z" transform="translate(-0.04 0.02)"/><path class="bff66e6d-d826-4c7f-bf70-44396e16264e" d="M75.71,63.43C79.44,60.6,83.48,58,86.94,54.8c6.86-6.37,8.12-14.71,7.35-23.6-.49-5.69-.85-11.39-1.24-17.09,0-.69.06-1.39.12-2.65,6.31,5.56,12.71,10.11,12.1,19.59-.34,5.4.6,10.89,1,16.33.28,3.37-.92,5.79-3.46,8.13-2.06,1.9-3.19,4.78-4.78,7.2a9,9,0,0,1-2.12,2.84C89.71,69.61,80.24,68.36,75.71,63.43Z" transform="translate(-0.04 0.02)"/><path class="b645e997-944b-468d-850b-6354cf04df6d" d="M99.55,98.78c2.12,2.73,3.86,5.48,6.1,7.74a80.24,80.24,0,0,0,7.51,6c-2.94,6.92-4.59,14-10.79,18.63-4,3-8.19,3.62-13.27,2.48C97.65,123.48,104.15,112.92,99.55,98.78Z" transform="translate(-0.04 0.02)"/><path class="a60ad0df-7917-452b-80b1-7c69a8be1355" d="M72.78,157.78c2.17-6.23,4.24-12.34,6.47-18.4a2.78,2.78,0,0,1,2-1.58c3.68,0,7.36.24,11,.4C92.49,148.19,85.45,159.14,72.78,157.78Z" transform="translate(-0.04 0.02)"/><path class="a215a485-60d4-4c3e-aeda-45f9f36fedd3" d="M45.25,52.45l7.46-3.27,4,7.66L56.05,58l-11-4.39Z" transform="translate(-0.04 0.02)"/></svg>