<svg id="f2d1cef6-9fae-4021-bc70-99827030aabc" data-name="f503df86-8a1f-4273-abbb-cd42bf378247" xmlns="http://www.w3.org/2000/svg" xmlns:xlink="http://www.w3.org/1999/xlink" viewBox="0 0 113.12 160.21"><defs><style>.ea62aa3d-a1ac-4794-96c4-62e09bc963cb{fill:url(#bb9f07fb-c055-4bf2-a0f7-a31d719085bf);}.a1617c23-ebd3-41c0-ae8b-1cee57d3a676{fill:url(#fbc6fb43-2bc7-49b4-926e-3bd567c62a7a);}.aa2ac06c-0e9d-40d5-9fd9-1acbbb5c9dee{fill:url(#baa279b0-0f59-46ca-acc9-1134db4eb30a);}.ff14fee6-08f1-4b1f-a459-dca4d374b89b{fill:url(#a57230b7-c812-43ba-8629-f0be76c1c202);}.ea6808cb-2ac5-415c-9dc0-d7229f6cafdf{fill:url(#b7daef73-b7dd-4765-b238-0d7c69741af6);}.fa03cce1-bddf-4082-b548-210d4cfd4735{fill:url(#bb7611ff-9c20-4522-a79b-1fdd754d5249);}.a0a87e15-4742-45d9-8610-2af9470b88a1{fill:url(#e6d92e46-40ec-4eb1-a92d-085ef07838ab);}.b1305cfd-eab0-432c-96f4-66f29aa88b74{fill:url(#b220754c-378a-417b-9b19-3b0fb85303c8);}.bdbeefa1-a120-4247-8b29-e06fc61fc061{fill:url(#e50c7b1e-216e-4b13-8c18-b1a0c688967b);}</style><linearGradient id="bb9f07fb-c055-4bf2-a0f7-a31d719085bf" x1="113.24" y1="-241.16" x2="113.24" y2="-181.31" gradientTransform="matrix(1, 0, 0, -1, -39.29, -181.33)" gradientUnits="userSpaceOnUse"><stop offset="0" stop-color="#750000"/><stop offset="1" stop-color="#f60000"/></linearGradient><linearGradient id="fbc6fb43-2bc7-49b4-926e-3bd567c62a7a" x1="78.57" y1="-328.94" x2="78.57" y2="-187.27" xlink:href="#bb9f07fb-c055-4bf2-a0f7-a31d719085bf"/><linearGradient id="baa279b0-0f59-46ca-acc9-1134db4eb30a" x1="96.59" y1="-341.52" x2="96.59" y2="-268.82" xlink:href="#bb9f07fb-c055-4bf2-a0f7-a31d719085bf"/><linearGradient id="a57230b7-c812-43ba-8629-f0be76c1c202" x1="80.38" y1="-303.3" x2="80.38" y2="-216.99" xlink:href="#bb9f07fb-c055-4bf2-a0f7-a31d719085bf"/><linearGradient id="b7daef73-b7dd-4765-b238-0d7c69741af6" x1="87.16" y1="-292.87" x2="87.16" y2="-237.47" xlink:href="#bb9f07fb-c055-4bf2-a0f7-a31d719085bf"/><linearGradient id="bb7611ff-9c20-4522-a79b-1fdd754d5249" x1="130.3" y1="-249.31" x2="130.3" y2="-192.79" xlink:href="#bb9f07fb-c055-4bf2-a0f7-a31d719085bf"/><linearGradient id="e6d92e46-40ec-4eb1-a92d-085ef07838ab" x1="140.42" y1="-315.53" x2="140.42" y2="-280.1" xlink:href="#bb9f07fb-c055-4bf2-a0f7-a31d719085bf"/><linearGradient id="b220754c-378a-417b-9b19-3b0fb85303c8" x1="121.81" y1="-339.23" x2="121.81" y2="-319.13" xlink:href="#bb9f07fb-c055-4bf2-a0f7-a31d719085bf"/><linearGradient id="e50c7b1e-216e-4b13-8c18-b1a0c688967b" x1="90.17" y1="-239.3" x2="90.17" y2="-230.51" xlink:href="#bb9f07fb-c055-4bf2-a0f7-a31d719085bf"/></defs><path class="ea62aa3d-a1ac-4794-96c4-62e09bc963cb" d="M80.3,0a11.23,11.23,0,0,0,1.82,1.69c4.23,2.48,6.24,6.31,6.63,11,.64,7.79,1.28,15.59,1.61,23.4.47,11-7.68,21.23-18.51,23.5C65.13,61,58.79,55.93,57.52,48.13,69.41,53.61,79,41,77.77,31.55c-.81-6.39-.85-12.88-1.51-19.3A93.36,93.36,0,0,0,74.2,2.47L78.07,0Z" transform="translate(-0.04 0.02)"/><path class="a1617c23-ebd3-41c0-ae8b-1cee57d3a676" d="M22.18,83.6v31c0,8.63,2.93,11.43,11.38,11.1,10.47-.38,26,.94,26.89-13.14.47-4.54.46-9.2,4.12-12.8C79.88,87.42,85.21,118.7,67,120.37c-8.3,2.12-9.09,11.22-9.76,18.38-.74,14.83-25.37,6.3-35.31,7.38-19,.92-1.91-17.54-17-22-2.72-1-5-5-4.83-8.51l3-52.85C2.38,54.15,14.47,52.87,14,44c.42-7.12,4-11.31,10.3-14.53,13.68-7,27-14.76,40.51-22.13,5-2.74,7-1.54,7.38,4.11.46,7.32,1.08,14.63,1.46,22,1.42,8.27-11.17,18.1-14.89,8.25-2.13-20.49-20.92-4.65-31.16,0C19,45.78,23.71,73.92,22.18,83.6Z" transform="translate(-0.04 0.02)"/><path class="aa2ac06c-0e9d-40d5-9fd9-1acbbb5c9dee" d="M17.53,149.78l27.33,1.42c10.94.58,15.85-3.78,16.85-14.62a33.22,33.22,0,0,1,1.22-6.93,7.82,7.82,0,0,1,6.45-5.9c12.33-2.51,15-13.14,12.27-22.6-1.81-6.32-5.92-8.66-12.49-7.88l-3.36.42c1.79-3.76,7.44-6.47,12.84-6.18,11.85.64,19.5,9.67,18.31,21.64-.85,8.63-4.35,16.34-11.7,21.63a15.14,15.14,0,0,1-5.94,2.84c-2.78.47-3.63,1.83-4,4.36-1,6.3-3,12.29-7.18,17.32-3,3.59-6.63,5.38-11.42,4.78-10-1.24-19.94-2.41-29.94-3.44C22.36,156.2,19.8,153.78,17.53,149.78Z" transform="translate(-0.04 0.02)"/><path class="ff14fee6-08f1-4b1f-a459-dca4d374b89b" d="M55.71,114.32c-2.6,9.88-15.06,6.34-22.7,7.63-5,.21-6.5-1.15-6.53-6.25-.07-20.77.34-41.54.27-62.31,0-4.77,1.29-8.29,6.18-10.27,6-1.76,13.15-9,19.4-7.17,1.35,2.19,1.73,5,2.21,7.64C50.43,46.78,43.89,48,39.26,50.78a5.65,5.65,0,0,0-2.63,4.11c-.11,18.9.06,37.81,0,56.71C36.11,120,50.29,113.54,55.71,114.32Z" transform="translate(-0.04 0.02)"/><path class="ea6808cb-2ac5-415c-9dc0-d7229f6cafdf" d="M40.86,56.14c4,1.63,7.54,3,11,4.63a3.92,3.92,0,0,1,1.64,2.9c.57,14.76,1.06,29.52,1.38,44.28a3.84,3.84,0,0,1-2.45,2.67,43.19,43.19,0,0,1-8.86.92c-.88,0-2.55-1.23-2.55-1.91-.19-17.6-.16-35.21-.16-53.49Z" transform="translate(-0.04 0.02)"/><path class="fa03cce1-bddf-4082-b548-210d4cfd4735" d="M75.71,63.43C79.44,60.6,83.48,58,86.94,54.8c6.86-6.37,8.12-14.71,7.35-23.6-.49-5.69-.85-11.39-1.24-17.09,0-.69.06-1.39.12-2.65,6.31,5.56,12.71,10.11,12.1,19.59-.34,5.4.6,10.89,1,16.33.28,3.37-.92,5.79-3.46,8.13-2.06,1.9-3.19,4.78-4.78,7.2a9,9,0,0,1-2.12,2.84C89.71,69.61,80.24,68.36,75.71,63.43Z" transform="translate(-0.04 0.02)"/><path class="a0a87e15-4742-45d9-8610-2af9470b88a1" d="M99.55,98.78c2.12,2.73,3.86,5.48,6.1,7.74a80.24,80.24,0,0,0,7.51,6c-2.94,6.92-4.59,14-10.79,18.63-4,3-8.19,3.62-13.27,2.48C97.65,123.48,104.15,112.92,99.55,98.78Z" transform="translate(-0.04 0.02)"/><path class="b1305cfd-eab0-432c-96f4-66f29aa88b74" d="M72.78,157.78c2.17-6.23,4.24-12.34,6.47-18.4a2.78,2.78,0,0,1,2-1.58c3.68,0,7.36.24,11,.4C92.49,148.19,85.45,159.14,72.78,157.78Z" transform="translate(-0.04 0.02)"/><path class="bdbeefa1-a120-4247-8b29-e06fc61fc061" d="M45.25,52.45l7.46-3.27,4,7.66L56.05,58l-11-4.39Z" transform="translate(-0.04 0.02)"/></svg>