<svg xmlns="http://www.w3.org/2000/svg" xmlns:xlink="http://www.w3.org/1999/xlink" viewBox="0 0 470.58 67.66"><defs><style>.bf40f5b6-09b3-43d0-8968-412d9ee3ac1c{stroke:#9def48;stroke-miterlimit:10;fill:url(#a7b550cd-1848-49fe-9325-f477dd1f6489);}.a1907531-7336-4065-a4d1-6ae0134da162{fill:#9def48;}.b68fbe00-3deb-4860-b50d-23e51dcfb1fb{fill:#fff;}</style><linearGradient id="a7b550cd-1848-49fe-9325-f477dd1f6489" x1="0.5" y1="33.83" x2="470.08" y2="33.83" gradientUnits="userSpaceOnUse"><stop offset="0" stop-color="#032c02"/><stop offset="1" stop-color="#207a09"/></linearGradient></defs><g id="bdf252af-b074-48a0-b74b-7d20ffa6c35c" data-name="calque3"><polygon class="bf40f5b6-09b3-43d0-8968-412d9ee3ac1c" points="0.5 6.04 102.57 6.04 108.7 0.5 150.44 0.5 158.35 6.04 461.77 6.24 470.08 16.13 470.08 59.84 50.94 59.84 42.83 67.16 8.02 67.16 0.5 59.84 0.5 6.04"/><path class="a1907531-7336-4065-a4d1-6ae0134da162" d="M81.44,37.61h4.37a17.11,17.11,0,0,1-3.67,7.3H58a18.23,18.23,0,0,1-4.22-12.26A18.22,18.22,0,0,1,58,20.4H82.14a17.11,17.11,0,0,1,3.67,7.3H81.44A18.55,18.55,0,0,0,80,24.47H60.18a16.32,16.32,0,0,0-2.34,8.18,16.38,16.38,0,0,0,2.34,8.19H80A19.62,19.62,0,0,0,81.44,37.61Z"/><path class="a1907531-7336-4065-a4d1-6ae0134da162" d="M96,38.09l-4.29,6.82H86.67L102.24,20.4h4.68l15.45,24.51h-5l-4.24-6.82ZM110.59,34l-6-9.59-6,9.59Z"/><path class="a1907531-7336-4065-a4d1-6ae0134da162" d="M152.09,20.4,136.62,44.91h-4.68L116.39,20.4h5.07l12.87,20.46L147.08,20.4Z"/><path class="a1907531-7336-4065-a4d1-6ae0134da162" d="M175.26,34.67H158.34a17.49,17.49,0,0,0,2.21,6.17h20.13L183,44.91H158.36a17.68,17.68,0,0,1-4.14-10.24h-3.84V30.62h3.84a17.57,17.57,0,0,1,4.14-10.22H183l-2.34,4.07H160.55a17.33,17.33,0,0,0-2.21,6.15h16.92Z"/></g><g id="b278cea0-378c-4c41-b11b-583afd65a737" data-name="svg1"><g id="bbb5a04c-f704-4bf2-b828-17fafe3fc986" data-name="g1"><path id="beb8278b-eb10-4660-8dd3-3dcb53da4660" data-name="path1" class="b68fbe00-3deb-4860-b50d-23e51dcfb1fb" d="M35.93,57.86s-.14.93-.25,2a9,9,0,0,1-.38,2.24c-.18.29-.68.66-.77.57a12.94,12.94,0,0,1,0-1.71c.22-3.47,0-3.89-1.84-4.17-1.23-.19-1.49-.35-1.75-1.12A2.07,2.07,0,0,0,29.2,54c-1.4-.22-2.49.69-2.2,1.83.14.54,0,.6-.36.15a2.53,2.53,0,0,1-.26-2.57c.81-1.56,2.56-1.89,4.5-.86a3.28,3.28,0,0,1,1.55,1.82l.08.39.75.18a10,10,0,0,1,1.16.35,3.46,3.46,0,0,1,1.41,1.16A2.93,2.93,0,0,1,35.93,57.86Zm-.26-2.47a1.77,1.77,0,0,1-.67-.3,5.69,5.69,0,0,0-1.34-.54l-.75-.19,0-.39a4.89,4.89,0,0,1,0-.92c.07-.61.14-.64,1-.34a2.79,2.79,0,0,1,1.5,1.16,3.22,3.22,0,0,1,.26,1.52Zm-1.52,6.08A11.23,11.23,0,0,1,34,63.06c-.14.3-.49.42-1.28.42s-1.27.19-1.52.8c-.33.8-.75.91-2.67.71-.51,0-2.05-.14-3.43-.2a26,26,0,0,1-2.84-.22,1.22,1.22,0,0,1-.61-.52A2.12,2.12,0,0,0,20,63.17c-1-.19-1-.16-3-3.69-1-1.78-1.82-3.34-1.87-3.48a.38.38,0,0,1,.07-.46c.16-.18.36-.22,2-.34a11.46,11.46,0,0,1,2.17,0,1.62,1.62,0,0,1,1.1.94c.23.69-.06,1-1,1.2-.61.1-.82.34-.82.94,0,.42.12.72.76,1.95.73,1.39.79,1.47,1.18,1.62s1.15.16,5.1.17a42.14,42.14,0,0,0,4.94-.09c.48-.19.59-.47.59-1.47a5.13,5.13,0,0,0-.47-2.79c-.34-.49-.65-.63-1.58-.73a3.3,3.3,0,0,1-1-.21c-.82-.42-1.08-1.4-.5-1.89a2.11,2.11,0,0,1,1.62-.31,1.65,1.65,0,0,1,1.24,1.35,1.64,1.64,0,0,0,.48.86,2.51,2.51,0,0,0,1.63.56C34.31,57.47,34.39,57.69,34.15,61.47Zm-1.76-8.34a1.6,1.6,0,0,1-.44-.37,5.43,5.43,0,0,0-3.37-1.32,1.77,1.77,0,0,0-.71.26,6.5,6.5,0,0,1-3.22.4l-1.42-.05.2.45a1.44,1.44,0,0,1,.13,1A3.49,3.49,0,0,1,22.92,55c-.06,0-.23-.23-.39-.58a3,3,0,0,0-.85-1.1c-1-.85-1.75-1-3.6-.87a15.51,15.51,0,0,1-1.74.07l-.48,0,.68-.71c.82-.86,1-.91,3.22-1a10.52,10.52,0,0,0,1.53-.13,5.39,5.39,0,0,0-.6-.77,7.58,7.58,0,0,1-.86-1.23c-.25-.5-.26-.61-.32-2.74-.08-3.34.1-4,1.1-4s1,.23,1.06,3.17c0,2.65,0,2.58,1,3.79s.9,1.09,2.5,1.09h1.36l.54-.58a5.74,5.74,0,0,0,1.42-1.92,16.76,16.76,0,0,0,.1-2.3c0-2.84.14-3.25,1.09-3.25s1.19.76,1.1,4a15.89,15.89,0,0,1-.18,2.45,6,6,0,0,1-.52.94l-.39.58.43.17A4.39,4.39,0,0,1,32,51.16a1.42,1.42,0,0,1,.44,1.22,1.65,1.65,0,0,1,0,.75Zm-1.74,8.19c-.22.2-.35.2-4.92.17-3.07,0-4.78-.07-5-.14s-.42-.39-1-1.48c-.93-1.82-.92-2,.1-2.17l.45-.07.51,1.19.5,1.19,4.22,0c2.38,0,4.25,0,4.3-.06a4.43,4.43,0,0,0,0-1.27,6.21,6.21,0,0,1-.06-1.23c.1-.1.59.3.78.63a4.6,4.6,0,0,1,.24,1.65c.07,1.32.06,1.36-.15,1.56Zm.09-23.1a3.31,3.31,0,0,1-1.25,2.12,2.56,2.56,0,0,1-1.36.52,3.79,3.79,0,0,1-3.34-.7c-1-.89-1-1-1.08-4.25,0-1.53-.08-2.81-.12-2.85a1.55,1.55,0,0,0-.64,0,1.42,1.42,0,0,0-.88.36l-.32.28-.06,2.15c-.07,2.7-.17,3-1.06,3s-1.21-.69-1.12-3.76c.06-1.94.06-2,.35-2.49a4.43,4.43,0,0,1,1.57-1.45c.31-.16,1.77-.27,5.8-.42,2.59-.1,3,0,3.34.47a1.25,1.25,0,0,1,.18.51,2.16,2.16,0,0,1-.48,1,.43.43,0,0,0-.2.08c-.1.06,0,.3.29,1l.43.89,0,1.51a17,17,0,0,1-.07,2Zm-2.66-4.1L27.53,33H27a1.08,1.08,0,0,0-.83.24l-.28.24,0,1.84c-.06,3.2,0,3.41,1.37,3.41s1.39-.19,1.41-2.34l0-1.19Zm2.48-8.48c-.26.35-.67.58-4.08,2.23-3.64,1.77-3.83,1.85-4.54,1.9a3.4,3.4,0,0,1-2.24-.45c-.2-.2-.23-.31-.19-.7a1.32,1.32,0,0,1,.24-.64,3.33,3.33,0,0,1,1.79-.39c.44,0,.91-.19,3.65-1.43,1.73-.79,3.14-1.46,3.14-1.49s-1.41-.69-3.14-1.48c-3.13-1.42-3.14-1.42-4-1.46a4.68,4.68,0,0,1-1.13-.18,1.08,1.08,0,0,1-.42-1.5c.19-.39.88-.54,2.16-.49l.95,0,3.37,1.6c3.78,1.79,4.12,2,4.48,2.46a1.35,1.35,0,0,1,.25,1,1.36,1.36,0,0,1-.29,1Zm.19-10.14c-.1.66-.42,1.15-1.36,2.09a3,3,0,0,1-1.17.86,16.74,16.74,0,0,1-3.2.14c-2.49,0-2.81,0-3.14-.19a8.73,8.73,0,0,1-2.06-2.32l-.28-.51V13.51c0-2.34-.06-2.11,1-3.48.77-1,1.06-1.3,1.59-1.45a13.15,13.15,0,0,1,3.56-.1c1.09.2,1-.07,1.05,4.24,0,3.56,0,3.71.22,3.71a1.72,1.72,0,0,0,1-.49c.59-.56.6-.62.67-3.84,0-1.63.1-3.07.15-3.19a.77.77,0,0,1,.36-.38,1,1,0,0,1,1.51.53,50.12,50.12,0,0,1,.09,6.44Zm-7.07-4.91h-.83l-.42.43c-.65.66-.73,1-.73,2.57,0,1.36,0,1.4.29,1.84.49.77.72.91,1.51,1a3.66,3.66,0,0,0,.86,0c.13-.05.15-.42.15-2.93V10.59Zm4.49,49c-3,.08-6.16.08-6.21,0a3,3,0,0,1,.28-.88c.33-.8.33-.8.77-.87a52.4,52.4,0,0,1,6.24-.12,3.55,3.55,0,0,1,.15,1l.07.87ZM22.31,56.4a2.4,2.4,0,0,1-1.15.9c-.4.17-.52.1-.31-.19a1.45,1.45,0,0,0-.16-1.5,1.68,1.68,0,0,0-.88-.75l-.57-.26-1.91.12a10.14,10.14,0,0,0-2.18.27c-.4.21-.46.19-.65-.21s-.16-.37,0-.72a2,2,0,0,1,1.14-.92,18.2,18.2,0,0,1,2.17-.22,5.4,5.4,0,0,1,2.44.09,2.87,2.87,0,0,1,1.87,1.64C22.55,55.46,22.6,55.94,22.31,56.4Zm-.4,2a2.22,2.22,0,0,1-.38.68A2.41,2.41,0,0,1,21,57.91a3.35,3.35,0,0,1,1.1-.5C22.24,57.49,22.21,57.63,21.91,58.35Z"/></g></g></svg>