<svg id="adff08db-8a83-47ab-b9c9-02bfaeb07856" data-name="Calque 1" xmlns="http://www.w3.org/2000/svg" xmlns:xlink="http://www.w3.org/1999/xlink" viewBox="0 0 88.59 233.25"><defs><style>.a64aaaf3-6fa1-4449-84d8-fc9da07fd9de,.b485b9c1-67ae-41ee-8fd5-89993f090c8c{fill:#211c1d;}.b9d5c5d3-4d5a-4a8f-8889-f0363b5046ce{opacity:0.1;}.adc8e485-4560-43e8-af4c-76711fc9103c{fill:#808094;}.a12aff91-97fd-4f8a-ae51-1f431c529189{fill:#6d6e6f;}.afd98c2d-f370-4c05-b857-dffc884efee8{fill:url(#a7b6d9a1-33f7-433d-b8ff-f71596bff6d2);}.b485b9c1-67ae-41ee-8fd5-89993f090c8c{opacity:0.3;}.a23ef689-981c-412a-a97c-3467c81de125,.b485b9c1-67ae-41ee-8fd5-89993f090c8c,.ff274656-6fcf-4710-9f9f-82ae44a66ee8{isolation:isolate;}.a23ef689-981c-412a-a97c-3467c81de125{opacity:0.15;fill:url(#f1fc8df6-4b7c-4bb4-a9c7-c19391b150f1);}.ff274656-6fcf-4710-9f9f-82ae44a66ee8{opacity:0.4;fill:url(#e68c262e-3919-4d0a-944d-2274830cb218);}.ae41db3c-2e3e-4337-a911-2b4e7de325b7{fill:#f36418;}.e7f954e7-70bc-4292-8332-bd3220fcd25b{fill:#070308;}.a36ec12b-1b9f-4b79-9316-5da24a79095f{fill:#0057f0;}.e9401f5c-b6e6-467e-b669-3b19932393b7{fill:#4f556b;}</style><linearGradient id="a7b6d9a1-33f7-433d-b8ff-f71596bff6d2" x1="362.1" y1="-353.94" x2="341.14" y2="-332.98" gradientTransform="matrix(0, -1, -1, 0, -299.63, 395.42)" gradientUnits="userSpaceOnUse"><stop offset="0" stop-color="#a4a5a9"/><stop offset="1" stop-color="#e6e6e7"/></linearGradient><linearGradient id="f1fc8df6-4b7c-4bb4-a9c7-c19391b150f1" x1="341.21" y1="-353.94" x2="362.09" y2="-333.06" gradientTransform="matrix(0, -1, -1, 0, -299.63, 395.42)" gradientUnits="userSpaceOnUse"><stop offset="0" stop-color="#211c1d" stop-opacity="0"/><stop offset="0.04" stop-color="#211c1d" stop-opacity="0.09"/><stop offset="0.5" stop-color="#211c1d"/><stop offset="0.95" stop-color="#211c1d" stop-opacity="0.09"/><stop offset="1" stop-color="#211c1d" stop-opacity="0"/></linearGradient><linearGradient id="e68c262e-3919-4d0a-944d-2274830cb218" x1="-4466.76" y1="2694.35" x2="-4445.88" y2="2715.23" gradientTransform="matrix(0, 1, 1, 0, -2660.92, 4500.08)" gradientUnits="userSpaceOnUse"><stop offset="0" stop-color="#fff" stop-opacity="0"/><stop offset="0.5" stop-color="#fff"/><stop offset="1" stop-color="#fff" stop-opacity="0"/></linearGradient></defs><circle class="a64aaaf3-6fa1-4449-84d8-fc9da07fd9de" cx="43.8" cy="43.8" r="43.8"/><g class="b9d5c5d3-4d5a-4a8f-8889-f0363b5046ce"><path class="adc8e485-4560-43e8-af4c-76711fc9103c" d="M43.8,3.22l-8.89,8.59h4.34v9.83h9.1V11.81h4.34ZM15.1,15.1l-.21,12.37L18,24.4l7,7,6.43-6.44L24.39,18l3.08-3.07ZM3.22,43.8l8.59,8.89V48.35h9.83v-9.1H11.81V34.91ZM15.1,72.5l12.37.21-3.08-3.07,7-7-6.43-6.44L18,63.2l-3.07-3.07ZM43.8,84.38l8.89-8.59H48.35V66h-9.1v9.83H34.91ZM72.5,72.5l.21-12.37L69.64,63.2l-7-7-6.44,6.44,7,7-3.07,3.07ZM84.38,43.8l-8.59-8.89v4.34H66v9.1h9.83v4.34ZM72.5,15.1l-12.37-.21L63.2,18l-7,7,6.44,6.44,7-7,3.07,3.07Z" transform="translate(0 0)"/></g><path class="a12aff91-97fd-4f8a-ae51-1f431c529189" d="M44.29,0a43.8,43.8,0,0,1,0,87.59h.5a43.8,43.8,0,0,0,0-87.6Z" transform="translate(0 0)"/><circle class="afd98c2d-f370-4c05-b857-dffc884efee8" cx="43.83" cy="43.8" r="14.82"/><circle class="b485b9c1-67ae-41ee-8fd5-89993f090c8c" cx="43.83" cy="43.8" r="11.81"/><path class="a23ef689-981c-412a-a97c-3467c81de125" d="M29.11,43.77A14.76,14.76,0,1,0,43.87,29,14.76,14.76,0,0,0,29.11,43.77ZM57.83,44A14.15,14.15,0,1,1,43.69,29.8,14.15,14.15,0,0,1,57.83,44Z" transform="translate(0 0)"/><path class="ff274656-6fcf-4710-9f9f-82ae44a66ee8" d="M58.63,43.77A14.76,14.76,0,1,0,43.87,58.53,14.76,14.76,0,0,0,58.63,43.77ZM29.9,43.58A14.15,14.15,0,1,1,44.05,57.73,14.15,14.15,0,0,1,29.9,43.58Z" transform="translate(0 0)"/><circle class="ae41db3c-2e3e-4337-a911-2b4e7de325b7" cx="32.85" cy="43.97" r="20.51"/><circle class="ae41db3c-2e3e-4337-a911-2b4e7de325b7" cx="27.19" cy="141.09" r="17.46"/><circle class="e7f954e7-70bc-4292-8332-bd3220fcd25b" cx="27.71" cy="141.09" r="13.88"/><circle class="ae41db3c-2e3e-4337-a911-2b4e7de325b7" cx="61.36" cy="196.3" r="17.45"/><circle class="a36ec12b-1b9f-4b79-9316-5da24a79095f" cx="61.88" cy="196.3" r="13.88"/><circle class="ae41db3c-2e3e-4337-a911-2b4e7de325b7" cx="27.36" cy="178.07" r="17.45"/><circle class="e9401f5c-b6e6-467e-b669-3b19932393b7" cx="27.89" cy="178.07" r="13.88"/><circle class="ae41db3c-2e3e-4337-a911-2b4e7de325b7" cx="61.4" cy="121.99" r="17.46"/><circle class="e7f954e7-70bc-4292-8332-bd3220fcd25b" cx="61.92" cy="121.99" r="13.88"/><circle class="ae41db3c-2e3e-4337-a911-2b4e7de325b7" cx="61.1" cy="159.32" r="17.46"/><circle class="e9401f5c-b6e6-467e-b669-3b19932393b7" cx="61.63" cy="159.32" r="13.88"/><circle class="ae41db3c-2e3e-4337-a911-2b4e7de325b7" cx="27.47" cy="215.8" r="17.46"/><circle class="a36ec12b-1b9f-4b79-9316-5da24a79095f" cx="27.99" cy="215.8" r="13.88"/></svg>