<svg version="1.1" id="Layer_1" xmlns="http://www.w3.org/2000/svg" x="0" y="0" viewBox="0 0 698.6 359.5" style="enable-background:new 0 0 698.6 359.5" xml:space="preserve">
    <style>
        .st4{fill:#121a2b}.st5{fill:#050102}.st7{fill:#f2f2f2}.st8{fill:#f36418}.st12{fill:#0057f0}.st13{fill:#070308}
    </style>
    <path d="M683.7 350.8h-658c-8.2 0-15-6.7-15-15V23.6c0-8.2 6.7-15 15-15h658c8.2 0 15 6.7 15 15v312.2c-.1 8.3-6.8 15-15 15z" style="fill:#414956"/>
    <path d="M684.5 342.1h-661c-3.9 0-7.2-3.2-7.2-7.2V24.5c0-3.9 3.2-7.2 7.2-7.2h661c3.9 0 7.2 3.2 7.2 7.2V335c-.1 3.9-3.3 7.1-7.2 7.1z" style="fill:#4f576c"/>
    <circle cx="354.5" cy="179.8" r="179.8" style="fill:#525b6d"/>
    <path d="M43.4 179.9c0 .5-.3 1-.7 1.3L3.1 216.6c-1.2 1-3 .1-3-1.4v-70.9c0-1.5 1.8-2.4 3-1.4l39.7 35.4c.4.3.6.8.7 1.3" style="fill:#565f72"/>
    <circle class="st4" cx="44.7" cy="34.4" r="11.6"/>
    <circle class="st4" cx="44.7" cy="325.1" r="11.6"/>
    <circle class="st4" cx="663.3" cy="325.1" r="11.6"/>
    <circle class="st4" cx="663.3" cy="34.4" r="11.6"/>
    <circle class="st5" cx="102.3" cy="134.8" r="3.5"/>
    <circle class="st5" cx="113.8" cy="134.8" r="3.5"/>
    <circle class="st5" cx="102.3" cy="146" r="3.5"/>
    <circle class="st5" cx="113.8" cy="146" r="3.5"/>
    <circle class="st5" cx="102.3" cy="157.3" r="3.5"/>
    <circle class="st5" cx="113.8" cy="157.3" r="3.5"/>
    <circle class="st5" cx="102.3" cy="168.5" r="3.5"/>
    <circle class="st5" cx="113.8" cy="168.5" r="3.5"/>
    <circle class="st5" cx="102.3" cy="179.7" r="3.5"/>
    <circle class="st5" cx="113.8" cy="179.7" r="3.5"/>
    <circle class="st5" cx="102.3" cy="191" r="3.5"/>
    <circle class="st5" cx="113.8" cy="191" r="3.5"/>
    <circle class="st5" cx="102.3" cy="202.2" r="3.5"/>
    <circle class="st5" cx="113.8" cy="202.2" r="3.5"/>
    <circle class="st5" cx="102.3" cy="213.4" r="3.5"/>
    <circle class="st5" cx="113.8" cy="213.4" r="3.5"/>
    <circle class="st5" cx="102.3" cy="224.7" r="3.5"/>
    <circle class="st5" cx="113.8" cy="224.7" r="3.5"/>
    <path d="M577.2 228.2H131.7c-.9 0-1.7-.8-1.7-1.7V133c0-.9.8-1.7 1.7-1.7h445.5c.9 0 1.7.8 1.7 1.7v93.5c0 .9-.8 1.7-1.7 1.7z" style="fill:#aaaba9"/>
    <path class="st7" d="M575.6 227.2H135.1c-.9 0-1.6-.7-1.7-1.7v-91.6c0-.9.7-1.7 1.7-1.7h440.6c.9 0 1.7.7 1.7 1.7v91.6c-.1 1-.8 1.7-1.8 1.7z"/>
    <path class="st8" d="M551.6 175.8H157.3c-.6 0-1.2-.5-1.2-1.2v-.1c0-.6.5-1.2 1.2-1.2h394.3c.6 0 1.2.5 1.2 1.2v.1c0 .7-.5 1.2-1.2 1.2z"/>
    <path class="st7" d="M91.3 114.1v136.5c0 1.2-.9 2.1-2.1 2.1H54.9c-1.1 0-2.1-.9-2.1-2.1V114.1c0-1.2.9-2.1 2.1-2.1h34.3c1.1 0 2.1.9 2.1 2.1z"/>
    <path d="M61.8 119.8c0 1.1-.4 2-1.1 2.7-.7.7-1.6 1.1-2.6 1.1-.7 0-1.3-.2-1.9-.5-.6-.3-1-.8-1.3-1.4s-.5-1.2-.5-1.9c0-1.1.4-2 1.1-2.7.7-.7 1.6-1.1 2.6-1.1.7 0 1.3.2 1.9.5.6.3 1 .8 1.3 1.4.4.6.5 1.2.5 1.9zm-.6 0c0-.9-.3-1.7-1-2.3-.6-.6-1.3-.9-2.1-.9-.9 0-1.6.3-2.2 1-.5.6-.8 1.4-.8 2.2 0 .9.3 1.7 1 2.3.6.6 1.3.9 2.1.9.9 0 1.6-.3 2.2-1 .5-.6.8-1.4.8-2.2zm-3.6 1.2-.2.6c-.4-.1-.7-.3-1-.7-.2-.3-.4-.8-.4-1.2 0-.6.2-1.1.5-1.4.4-.4.9-.6 1.5-.6s1.2.2 1.5.6c.4.4.5.9.5 1.5 0 .4-.1.8-.3 1.1-.2.3-.5.5-.8.6l-.1-.6c.2-.1.4-.2.6-.5.1-.2.2-.4.2-.7 0-.4-.1-.7-.4-1-.3-.3-.7-.4-1.2-.4s-.9.1-1.1.4c-.2.2-.4.6-.4.9s.1.6.2.8c.3.4.6.6.9.6zm-.5 3.9.1.6c-.3 0-.6.1-.8.2s-.3.3-.4.5c-.1.2-.2.5-.2.8 0 .4.1.7.3 1 .2.2.5.3.7.3s.3 0 .5-.1c.1-.1.3-.2.3-.4.1-.2.2-.5.4-1.1.1-.5.3-.8.4-1 .1-.2.3-.4.5-.5s.5-.2.7-.2c.5 0 .9.2 1.2.5s.5.8.5 1.3c0 .4-.1.7-.2 1-.1.3-.4.5-.6.7-.3.2-.6.3-1 .3l-.1-.7c.4 0 .7-.2.9-.4.2-.2.3-.5.3-.9s-.1-.7-.2-.9c-.2-.2-.4-.3-.6-.3-.2 0-.4.1-.6.2-.1.2-.3.5-.4 1-.1.5-.3.9-.4 1.1-.1.3-.3.5-.6.7s-.6.2-.9.2c-.3 0-.7-.1-.9-.3-.3-.2-.5-.4-.6-.7s-.2-.6-.2-1.1c0-.6.2-1.2.6-1.5.2-.1.7-.3 1.3-.3zm-2 5.1h6.1v3.8h-.7v-3.1h-1.9v2.9h-.7v-2.9h-2.1v3.2h-.7V130zm2.4 7.3h.7v2.2H56c-.3-.3-.5-.7-.7-1s-.2-.7-.2-1.1c0-.5.1-1 .4-1.4.2-.4.6-.7 1.1-.9s1-.3 1.7-.3 1.2.1 1.7.4.9.5 1.1.9c.2.4.3.8.3 1.3 0 .4-.1.7-.2 1-.1.3-.3.5-.6.7-.2.2-.6.3-1 .4l-.2-.6c.3-.1.6-.2.8-.3s.3-.3.4-.5.1-.4.1-.7c0-.4-.1-.7-.3-1s-.4-.5-.8-.7c-.4-.2-.8-.2-1.4-.2-.8 0-1.4.2-1.8.5-.4.4-.6.8-.6 1.4 0 .3.1.5.2.8.1.3.3.5.4.7h1.1v-1.6zm-2.4 2.7 6.1 2v.7l-6.1 2.1v-.8l1.8-.6v-2.2l-1.8-.6v-.6zm2.5 1.5v1.8l1.7-.5c.5-.2.9-.3 1.3-.4l-1.2-.3-1.8-.6zm-.5 5.4.1.6c-.3 0-.6.1-.8.2s-.3.3-.4.5-.2.5-.2.8c0 .4.1.7.3 1 .2.2.5.3.7.3s.3 0 .5-.1c.1-.1.3-.2.3-.4.1-.2.2-.5.4-1.1.1-.5.3-.8.4-1 .1-.2.3-.4.5-.5s.5-.2.7-.2c.5 0 .9.2 1.2.5s.5.8.5 1.3c0 .4-.1.7-.2 1-.1.3-.4.5-.6.7s-.6.2-1 .3l-.1-.7c.4 0 .7-.2.9-.4s.3-.5.3-.9-.1-.7-.2-.9c-.2-.2-.4-.3-.6-.3-.2 0-.4.1-.6.2-.1.1-.3.5-.4 1-.1.5-.3.9-.4 1.1-.1.3-.3.5-.6.7s-.6.3-.9.2c-.3 0-.7-.1-.9-.3-.3-.2-.5-.4-.6-.7s-.2-.6-.2-1.1c0-.6.2-1.2.6-1.5.2 0 .7-.2 1.3-.3zm-2 5.2h6.1v3.8h-.7v-3.1h-1.9v2.9h-.7v-2.9h-2.1v3.2h-.7v-3.9zm0 4.9h6.1v2.3c0 .5-.1.8-.2 1.1s-.3.4-.6.6c-.3.1-.6.2-.9.2-.5 0-.8-.1-1.1-.4-.3-.2-.5-.6-.5-1.1-.1.2-.2.3-.3.4-.2.2-.5.4-.8.5l-1.6.9v-.9l1.3-.7c.5-.3.8-.5 1-.6s.3-.3.3-.4c.1-.1.1-.3.1-.5v-.8h-2.7l-.1-.6zm3.4.7v1.5c0 .3 0 .6.1.7s.2.3.4.4c.2.1.3.1.6.1s.5-.1.7-.3.3-.5.3-.8v-1.6h-2.1zm-3.4 6.6h6.1v.7l-4.8 2.7h4.8v.7h-6.1v-.7l4.8-2.7h-4.8v-.7zm2.3 5c.8 0 1.3.2 1.7.5s.6.8.6 1.3-.2.9-.6 1.3c-.4.3-.9.5-1.7.5s-1.4-.2-1.8-.5c-.4-.3-.6-.8-.6-1.3s.2-.9.6-1.3c.5-.3 1.1-.5 1.8-.5zm0 .7c-.6 0-1 .1-1.3.3s-.4.5-.4.8.1.6.4.8c.3.2.7.3 1.3.3s1-.1 1.3-.3.4-.5.4-.8-.1-.6-.4-.8c-.3-.2-.7-.3-1.3-.3zm-2.4 3.8h.8v.7H55v-.7z" style="fill:#53554e"/>
    <path d="M70.2 131.7v-.7h21.1v.7H70.2zm0-7.3v-.7h21.1v.7H70.2zm0-3v-.7h21.1v.7H70.2zm0 8.8v-2.1h21.1v2.1H70.2zm0-2.9v-2.1h21.1v2.1H70.2zm0 16.1v-.7h21.1v.7H70.2zm0-1.5v-.7h21.1v.7H70.2zm0-1.4v-.7h21.1v.7H70.2zm0-5.9v-2.1h21.1v2.1H70.2zm0 4.4v-2.1h21.1v2.1H70.2zm0 5.8v-.7h21.1v.7H70.2zm0 10.3v-.7h21.1v.7H70.2zm0-5.9v-.7h21.1v.7H70.2zm0 4.4v-2.1h21.1v2.1H70.2zm0-5.8v-2.1h21.1v2.1H70.2zm0 13.1v-.7h21.1v.7H70.2zm0-1.4v-.7h21.1v.7H70.2zm0 2.9v-.7h21.1v.7H70.2zm0-4.4v-2.1h21.1v2.1H70.2zm0 8.8v-2.1h21.1v2.1H70.2zm0 1.4v-.7h21.1v.7H70.2zm0 10.3v-.7h21.1v.7H70.2zm0-5.9v-.6h21.1v.7l-21.1-.1zm0 4.4v-2.1h21.1v2.1H70.2zm0-5.8V169h21.1v2.1l-21.1.1zm0 8.8v-.7h21.1v.7H70.2zm0 7.3v-.7h21.1v.7H70.2zm0 2.9v-.7h21.1v.7H70.2zm0-4.4v-2.1h21.1v2.1H70.2zm0-2.9v-2.1h21.1v2.1H70.2zm0 17.5v-.7h21.1v.7H70.2zm0-5.8v-.7h21.1v.7H70.2zm0 7.3v-.7h21.1v.7H70.2zm0-8.8V191h21.1v2.1H70.2zm0 4.4v-2.1h21.1v2.1H70.2zm0 13.2v-.7h21.1v.7H70.2zm0-5.9v-.7h21.1v.7H70.2zm0-1.4v-.7h21.1v.7H70.2zm0 4.4v-2.1h21.1v2.1H70.2zm0 5.8v-2.1h21.1v2.1H70.2zm0 1.5v-.7h21.1v.7H70.2zm0 10.2v-.7h21.1v.7H70.2zm0-5.8v-.7h21.1v.7H70.2zm0 4.3v-2.1h21.1v2.1H70.2zm0-5.8v-2.1h21.1v2.1H70.2zm0 16.1v-.7h21.1v.7H70.2zm0-4.4v-.7h21.1v.7H70.2zm0 1.5v-.7h21.1v.7H70.2zm0-3v-2.1h21.1v2.1H70.2zm0 8.8v-2.1h21.1v2.1H70.2zm0 11.7v-.7h21.1v.7H70.2zm0-7.3v-.7h21.1v.7H70.2zm0-2.9v-.7h21.1v.7H70.2zm0 8.8v-2.1h21.1v2.1H70.2zm0-3v-2.1h21.1v2.1H70.2z" style="fill:#5f5f5f"/>
    <circle class="st5" cx="608.7" cy="134.8" r="3.5"/>
    <circle class="st5" cx="597.3" cy="134.8" r="3.5"/>
    <circle class="st5" cx="608.7" cy="146" r="3.5"/>
    <circle class="st5" cx="597.3" cy="146" r="3.5"/>
    <circle class="st5" cx="608.7" cy="157.3" r="3.5"/>
    <circle class="st5" cx="597.3" cy="157.3" r="3.5"/>
    <circle class="st5" cx="608.7" cy="168.5" r="3.5"/>
    <circle class="st5" cx="597.3" cy="168.5" r="3.5"/>
    <circle class="st5" cx="608.7" cy="179.8" r="3.5"/>
    <circle class="st5" cx="597.3" cy="179.8" r="3.5"/>
    <circle class="st5" cx="608.7" cy="191" r="3.5"/>
    <circle class="st5" cx="597.3" cy="191" r="3.5"/>
    <circle class="st5" cx="608.7" cy="202.2" r="3.5"/>
    <circle class="st5" cx="597.3" cy="202.2" r="3.5"/>
    <circle class="st5" cx="608.7" cy="213.5" r="3.5"/>
    <circle class="st5" cx="597.3" cy="213.5" r="3.5"/>
    <circle class="st5" cx="608.7" cy="224.7" r="3.5"/>
    <circle class="st5" cx="597.3" cy="224.7" r="3.5"/>
    <path d="M517.6 160.9c1.3 1.3 3.1 2 4.9 2h30.3l-6.5-19.5c-.9-2.1-3-3.5-5.5-3.5s-4.6 1.5-5.5 3.6l-2.2 6.4v-9.6h-10.6c-1.8 0-3.6.7-4.9 2v-2h-10.8c-1.9 0-3.8.8-5.1 2.2v-2.2h-10.2c-4.4 0-8 3.4-8 8 0 2.1.9 4 2.3 5.4h-2.3v9.3h10.3c2.9 0 5.7-1.7 6.7-3.8v-.1c1.2 2.4 3.6 3.9 6.3 3.9h10.8v-2.1z" style="fill:#fff"/>
    <path class="st12" d="M485 161.3h8.7c3.5 0 6.4-2.9 6.4-6.4s-2.9-6.4-6.4-6.4h-2.2c-.2 0-.3-.1-.3-.3s.1-.3.3-.3h8.6v-2.7h-8.6c-1.7 0-3 1.4-3 3 0 1.7 1.4 3 3 3h2.3c2 0 3.7 1.6 3.7 3.7 0 2-1.6 3.7-3.7 3.7H485v2.7z"/>
    <path class="st12" d="M485 158h8.7c1.7 0 3-1.4 3-3 0-1.7-1.4-3-3-3h-2.3c-2 0-3.6-1.7-3.6-3.7s1.6-3.6 3.6-3.6h8.6V142h-8.6c-3.5 0-6.4 2.9-6.4 6.4s2.9 6.4 6.4 6.4h2.2l.3.3-.3.3H485v2.6zm21.8.6c-1.5 0-2.7-1.2-2.7-2.7v-8.7c0-1.5 1.2-2.7 2.7-2.7h9.2v-2.7h-9.2c-3 0-5.4 2.4-5.4 5.4v8.6c0 3 2.4 5.4 5.4 5.4h9.2v-2.7l-9.2.1z"/>
    <path class="st12" d="M504.7 147.2c0-1.1.9-2.1 2.1-2.1h9.2v2.7h-8c-.6 0-.6.6-.6.6h6.6v2.7h-9.4l.1-3.9zm2.1 10.8c-1.1 0-2.1-.9-2.1-2.1v-4h9.4v2.7h-6.6c0 .6.6.6.6.6h7.9v2.7l-9.2.1zm15.7.6c-1.5 0-2.7-1.2-2.7-2.7v-8.6c0-1.5 1.2-2.7 2.7-2.7h9v-2.7h-9c-3 0-5.4 2.4-5.4 5.4v8.6c0 3 2.5 5.4 5.5 5.4h9v-12.8h-7.7v2.7h5v7.4h-6.4z"/>
    <path class="st12" d="M520.5 155.9c0 1.1.9 2.1 2.1 2.1h5.6v-6.1h-4.3v2.7h1.6v.6h-1.6c-.4 0-.6-.3-.6-.6v-6.1s0-.6.6-.6h7.7v-2.7h-9c-1.1 0-2.1.9-2.1 2.1v8.6z"/>
    <path d="M546.8 142c0-.4.2-.9.5-1.2s.7-.5 1.2-.5c.9 0 1.6.7 1.7 1.6 0 .9-.7 1.6-1.7 1.6-.4 0-.8-.2-1.2-.5-.3-.1-.5-.5-.5-1m1.7 2c1.1 0 1.9-.8 2-1.9 0-1.1-.8-1.9-1.9-2h-.1c-1.1 0-1.9.9-1.9 1.9s.8 2 1.9 2z"/>
    <path d="M548 142H548.9c.2 0 .3-.2.3-.3l-.1-.3-.4-.1h-.7v.7m0 .2v.9h-.3V141h.8c.3 0 .5 0 .6.1.2.1.2.3.2.5 0 .5-.4.6-.5.6l.6.9h-.3l-.6-.9h-.5z"/>
    <path class="st12" d="M546.8 158.6h-7.2v2.7h11l-5.7-17c-.5-1.7-2.2-2.9-4.1-2.9-2 0-3.6 1.2-4.1 2.9l-5.8 17h2.9l5.6-16.5c.3-.8 1.2-1.1 2-.8.4.2.6.4.8.8l4.6 13.8z"/>
    <path class="st12" d="m534.4 161.3 5.5-16.2c.2-.5.7-.7 1.1-.5.3.1.5.3.5.5l4.3 12.9h-6.4v-2.4l-1.9 5.8-3.1-.1zm7.3-6.3-1-2.9-1 2.9h2z"/>
    <path class="st13" d="M179.5 164.8v-25h-4.2l.1 16.1-19.3-15.9.1 25.1h3.6v-16.3l19.7 16m2.6.4 3.2-5.5h-2.9v-3.8h4.8l8.8-16 14.1 25.3h-4.9l-2.9-5.5h-12.5l-3 5.5h-4.7m9.4-9.4h9l-4.5-8.3-4.5 8.3m54.2 9.4h-4.1V140l13.9 16.2 14.1-16.5v25.5h-4.4l-.1-13.7-9.7 11.7-9.8-11.6.1 13.6m31.9-25.8h4.1v25.8h-4.1v-25.8z"/>
    <path class="st8" d="M210 152.8c0-7.6 6.2-13.7 13.7-13.7s13.7 6.2 13.7 13.7-6.2 13.7-13.7 13.7-13.7-6.1-13.7-13.7m13.7 9.7c5.3 0 9.6-4.3 9.6-9.6s-4.3-9.6-9.6-9.6-9.6 4.3-9.6 9.6 4.3 9.6 9.6 9.6"/>
    <path class="st13" d="m286.7 142.6-.8-1.9v1.9h-.6v-2.9h.6l.8 1.8.8-1.8h.6v2.9h-.6v-1.9l-.8 1.9zM283.6 142.6v-2.5h-.8v-.5h2.2v.5h-.9v2.5z"/>
    <path class="st8" d="M308.1 162.2h-11.3s10.8-7.6 10.8-15.7c0-3.9-2.6-7.2-7.3-7.2-4.7 0-7.5 2.6-7.5 2.6l1.2 2.4s1.5-1.8 5.5-2c.8 0 1.6.1 2.3.5 1.1.6 2.4 1.8 2.4 4.4 0 5.9-12.1 15.2-12.1 15.2v2.7H308l.1-2.9z"/>
</svg>
