<svg id="ab2f1802-0a74-40c3-801a-a5d906ebdb8e" data-name="texte" xmlns="http://www.w3.org/2000/svg" xmlns:xlink="http://www.w3.org/1999/xlink" viewBox="0 0 470.33 67.41"><defs><style>.efd63050-f51b-4d4e-bcb3-d5dd1a76ea7e{stroke:#9def48;stroke-miterlimit:10;stroke-width:0.75px;fill:url(#bc1ee7b8-b10c-454d-a6a2-d97d40143752);}.f742f65c-c816-4cef-bc5a-e08bae2d0c23{fill:#9def48;}</style><linearGradient id="bc1ee7b8-b10c-454d-a6a2-d97d40143752" x1="0.38" y1="33.7" x2="469.96" y2="33.7" gradientUnits="userSpaceOnUse"><stop offset="0" stop-color="#032c02"/><stop offset="1" stop-color="#207a09"/></linearGradient></defs><polygon class="efd63050-f51b-4d4e-bcb3-d5dd1a76ea7e" points="0.38 5.91 102.44 5.91 108.57 0.38 150.31 0.38 158.22 5.91 461.65 6.11 469.96 16 469.96 59.72 50.81 59.72 42.7 67.03 7.89 67.03 0.38 59.72 0.38 5.91"/><path class="f742f65c-c816-4cef-bc5a-e08bae2d0c23" d="M59,37l-3.68,5.84H50.94l13.34-21h4l13.24,21H77.25L73.62,37Zm12.48-3.47-5.13-8.22-5.17,8.22Z" transform="translate(-0.06 -0.03)"/><path class="f742f65c-c816-4cef-bc5a-e08bae2d0c23" d="M106,36.61h3.75a14.7,14.7,0,0,1-3.15,6.25H85.89a15.6,15.6,0,0,1-3.62-10.5,15.6,15.6,0,0,1,3.62-10.5h20.7a14.7,14.7,0,0,1,3.15,6.25H106a15.13,15.13,0,0,0-1.26-2.77h-17a14,14,0,0,0-2,7,14.08,14.08,0,0,0,2,7h17A15.77,15.77,0,0,0,106,36.61Z" transform="translate(-0.06 -0.03)"/><path class="f742f65c-c816-4cef-bc5a-e08bae2d0c23" d="M126.82,39.89l-3.49,3.49v-18H111.94V21.86h26.28v3.48h-11.4Z" transform="translate(-0.06 -0.03)"/><path class="f742f65c-c816-4cef-bc5a-e08bae2d0c23" d="M146.1,42.86h-3.49v-18l3.49-3.49Z" transform="translate(-0.06 -0.03)"/><path class="f742f65c-c816-4cef-bc5a-e08bae2d0c23" d="M174.81,42.86h-20.7a15.6,15.6,0,0,1-3.62-10.5,15.57,15.57,0,0,1,3.62-10.5h20.7a15.57,15.57,0,0,1,3.62,10.5A15.6,15.6,0,0,1,174.81,42.86ZM173,39.38a14.15,14.15,0,0,0,2-7,14.09,14.09,0,0,0-2-7H156a14.11,14.11,0,0,0-2,7,14.16,14.16,0,0,0,2,7Z" transform="translate(-0.06 -0.03)"/><path class="f742f65c-c816-4cef-bc5a-e08bae2d0c23" d="M186.85,25.34a14,14,0,0,0-2,7,14.08,14.08,0,0,0,2,7h2.31v3.48H185a15.6,15.6,0,0,1-3.61-10.5A15.56,15.56,0,0,1,185,21.86h20.7a15.57,15.57,0,0,1,3.62,10.5,15.6,15.6,0,0,1-3.62,10.5h-4.19V39.38h2.33a14.15,14.15,0,0,0,2-7,14.09,14.09,0,0,0-2-7Z" transform="translate(-0.06 -0.03)"/><path class="f742f65c-c816-4cef-bc5a-e08bae2d0c23" d="M244.36,39.38h2.33a15.23,15.23,0,0,0,1.87-5.29H227.83a15.28,15.28,0,0,0,1.89,5.29H232v3.48h-4.19a15.15,15.15,0,0,1-3.55-8.77H221V30.62h3.29a15.09,15.09,0,0,1,3.55-8.76h20.7a15,15,0,0,1,3.54,8.77l-1.51.85v1.76l1.51.85a15.07,15.07,0,0,1-3.54,8.77h-4.19Zm-16.53-8.76h20.73a15.11,15.11,0,0,0-1.87-5.28h-17A15.16,15.16,0,0,0,227.83,30.62Z" transform="translate(-0.06 -0.03)"/><path class="f742f65c-c816-4cef-bc5a-e08bae2d0c23" d="M284.6,34.09H261.85a14.88,14.88,0,0,0,1.89,5.29h2.31v3.48h-4.19a15.07,15.07,0,0,1-3.54-8.77H255V30.62h3.3a15,15,0,0,1,3.54-8.76h20.7a15.57,15.57,0,0,1,3.62,10.5Zm-22.75-3.47h20.73a15.13,15.13,0,0,0-1.88-5.28h-17A14.77,14.77,0,0,0,261.85,30.62Z" transform="translate(-0.06 -0.03)"/><path class="f742f65c-c816-4cef-bc5a-e08bae2d0c23" d="M316.9,30.62c.05.56.07,1.14.07,1.74a15.6,15.6,0,0,1-3.62,10.5h-20.7A15.6,15.6,0,0,1,289,32.36a15.56,15.56,0,0,1,3.61-10.5h20.7a14.7,14.7,0,0,1,3.15,6.25h-3.75a15.13,15.13,0,0,0-1.26-2.77h-17a14,14,0,0,0-2,7,14.08,14.08,0,0,0,2,7h17a15.25,15.25,0,0,0,1.88-5.29H300.71V30.62Z" transform="translate(-0.06 -0.03)"/></svg>