<svg id="eac0517c-44eb-46fe-8e76-cce275127dd0" data-name="texte" xmlns="http://www.w3.org/2000/svg" xmlns:xlink="http://www.w3.org/1999/xlink" viewBox="0 0 470.33 67.41"><defs><style>.b9e4648d-133d-42ec-9739-3bff1acdabda{stroke:#9def48;stroke-miterlimit:10;stroke-width:0.75px;fill:url(#bcdbf7e3-6e80-4ead-ad0f-104727d198a1);}.be7d2a47-4f35-44f5-aec2-db0a088f0d61{fill:#9def48;}</style><linearGradient id="bcdbf7e3-6e80-4ead-ad0f-104727d198a1" x1="0.38" y1="33.7" x2="469.96" y2="33.7" gradientUnits="userSpaceOnUse"><stop offset="0" stop-color="#032c02"/><stop offset="1" stop-color="#207a09"/></linearGradient></defs><polygon class="b9e4648d-133d-42ec-9739-3bff1acdabda" points="0.38 5.91 102.44 5.91 108.57 0.38 150.31 0.38 158.22 5.91 461.65 6.11 469.96 16 469.96 59.72 50.81 59.72 42.7 67.03 7.89 67.03 0.38 59.72 0.38 5.91"/><path class="be7d2a47-4f35-44f5-aec2-db0a088f0d61" d="M78.76,31.64l1.58,1.74a15.61,15.61,0,0,1-3.62,10.51H56a14.79,14.79,0,0,1-3.15-6.26h3.75A16.74,16.74,0,0,0,57.9,40.4h17a14.72,14.72,0,0,0,1.88-5.29H54L52.4,33.38A15.6,15.6,0,0,1,56,22.88h20.7a14.75,14.75,0,0,1,3.15,6.25H76.12a15.05,15.05,0,0,0-1.26-2.76h-17A14.66,14.66,0,0,0,56,31.64Z" transform="translate(-0.06 -0.03)"/><path class="be7d2a47-4f35-44f5-aec2-db0a088f0d61" d="M88.22,43.89H84.73v-18l3.49-3.48Z" transform="translate(-0.06 -0.03)"/><path class="be7d2a47-4f35-44f5-aec2-db0a088f0d61" d="M104.85,26.37H98.11a14,14,0,0,0-2,7,14,14,0,0,0,2,7h2.31v3.49H96.23a15.65,15.65,0,0,1-3.62-10.51,15.57,15.57,0,0,1,3.62-10.5h8.62v-3.3h3.47v3.3h8.61a15.57,15.57,0,0,1,3.62,10.5,15.65,15.65,0,0,1-3.62,10.51h-4.19V40.4h2.33a14.09,14.09,0,0,0,2-7,14,14,0,0,0-2-7h-6.75V38.82h-3.47Z" transform="translate(-0.06 -0.03)"/><path class="be7d2a47-4f35-44f5-aec2-db0a088f0d61" d="M129,40.4h17a14,14,0,0,0,2-7,14.1,14.1,0,0,0-2-7h-2.32V22.88h4.18a15.55,15.55,0,0,1,3.62,10.5,15.56,15.56,0,0,1-3.62,10.51H127.1a15.56,15.56,0,0,1-3.62-10.51,15.55,15.55,0,0,1,3.62-10.5h4.19v3.49H129a14,14,0,0,0-2,7A14,14,0,0,0,129,40.4Z" transform="translate(-0.06 -0.03)"/><path class="be7d2a47-4f35-44f5-aec2-db0a088f0d61" d="M158.56,40.4h15.79l2,3.49H155.08v-18l3.48-3.48Z" transform="translate(-0.06 -0.03)"/><path class="be7d2a47-4f35-44f5-aec2-db0a088f0d61" d="M186.58,38l-3.67,5.85h-4.35l13.34-21h4l13.25,21h-4.29L201.23,38Zm12.48-3.47-5.12-8.22-5.17,8.22Z" transform="translate(-0.06 -0.03)"/><path class="be7d2a47-4f35-44f5-aec2-db0a088f0d61" d="M219.65,40.91l-3.49,3.49v-18h-11.4V22.88H231v3.49H219.65Z" transform="translate(-0.06 -0.03)"/><path class="be7d2a47-4f35-44f5-aec2-db0a088f0d61" d="M238.92,43.89h-3.48v-18l3.48-3.48Z" transform="translate(-0.06 -0.03)"/><path class="be7d2a47-4f35-44f5-aec2-db0a088f0d61" d="M267.63,43.89h-20.7a15.64,15.64,0,0,1-3.61-10.51,15.56,15.56,0,0,1,3.61-10.5h20.7a15.52,15.52,0,0,1,3.62,10.5A15.6,15.6,0,0,1,267.63,43.89Zm-1.86-3.49a14.09,14.09,0,0,0,2-7,14,14,0,0,0-2-7h-17a14,14,0,0,0-2,7,14,14,0,0,0,2,7Z" transform="translate(-0.06 -0.03)"/><path class="be7d2a47-4f35-44f5-aec2-db0a088f0d61" d="M279.68,26.37a14,14,0,0,0-2,7,14,14,0,0,0,2,7H282v3.49H277.8a15.65,15.65,0,0,1-3.62-10.51,15.57,15.57,0,0,1,3.62-10.5h20.7a15.57,15.57,0,0,1,3.62,10.5,15.65,15.65,0,0,1-3.62,10.51h-4.19V40.4h2.33a14.09,14.09,0,0,0,2-7,14,14,0,0,0-2-7Z" transform="translate(-0.06 -0.03)"/><path class="be7d2a47-4f35-44f5-aec2-db0a088f0d61" d="M314.57,22.88h23.14a15.57,15.57,0,0,1,3.62,10.5,15.65,15.65,0,0,1-3.62,10.51H314.57Zm3.48,17.52h17.8a14.09,14.09,0,0,0,2-7,14,14,0,0,0-2-7h-17.8Z" transform="translate(-0.06 -0.03)"/><path class="be7d2a47-4f35-44f5-aec2-db0a088f0d61" d="M365.59,35.11h-14.5A14.88,14.88,0,0,0,353,40.4h17.25l2,3.49H351.1a15.13,15.13,0,0,1-3.54-8.78h-3.3V31.64h3.3a15,15,0,0,1,3.54-8.76h21.14l-2,3.49H353a14.66,14.66,0,0,0-1.89,5.27h14.5Z" transform="translate(-0.06 -0.03)"/><path class="be7d2a47-4f35-44f5-aec2-db0a088f0d61" d="M413.83,22.88l-13.26,21h-4l-13.33-21h4.35l11,17.53,10.92-17.53Z" transform="translate(-0.06 -0.03)"/><path class="be7d2a47-4f35-44f5-aec2-db0a088f0d61" d="M420.24,43.89h-3.49v-18l3.49-3.48Z" transform="translate(-0.06 -0.03)"/><path class="be7d2a47-4f35-44f5-aec2-db0a088f0d61" d="M446,35.11h-14.5a15.28,15.28,0,0,0,1.89,5.29h17.26l2,3.49H431.48a15.14,15.14,0,0,1-3.55-8.78h-3.29V31.64h3.29a15,15,0,0,1,3.55-8.76h21.13l-2,3.49H433.35a15,15,0,0,0-1.89,5.27H446Z" transform="translate(-0.06 -0.03)"/></svg>