<svg id="b8274a57-7410-4eb0-b0da-cc9a406372dd" data-name="Calque 1" xmlns="http://www.w3.org/2000/svg" xmlns:xlink="http://www.w3.org/1999/xlink" viewBox="0 0 470.58 67.66"><defs><style>.a90b4ba3-52d7-42cf-a5ac-e32abd2c1c09{stroke:#9def48;stroke-miterlimit:10;fill:url(#b8808480-913c-431a-83b7-8f16932eba43);}.a0755904-75a1-4d67-856e-314484144a2f{fill:#9def48;}</style><linearGradient id="b8808480-913c-431a-83b7-8f16932eba43" x1="0.5" y1="33.83" x2="470.08" y2="33.83" gradientUnits="userSpaceOnUse"><stop offset="0" stop-color="#032c02"/><stop offset="1" stop-color="#207a09"/></linearGradient></defs><polygon class="a90b4ba3-52d7-42cf-a5ac-e32abd2c1c09" points="461.77 6.24 158.35 6.04 150.44 0.5 108.7 0.5 102.57 6.04 0.5 6.04 0.5 59.84 8.02 67.16 42.83 67.16 50.94 59.84 470.08 59.84 470.08 16.13 461.77 6.24"/><path class="a0755904-75a1-4d67-856e-314484144a2f" d="M51.4,22.34h27A18.14,18.14,0,0,1,82.62,34.6,18.17,18.17,0,0,1,78.4,46.85h-27Zm4.07,20.44H76.23a16.46,16.46,0,0,0,2.33-8.18,16.41,16.41,0,0,0-2.33-8.19H55.47Z" transform="translate(0 0)"/><path class="a0755904-75a1-4d67-856e-314484144a2f" d="M110.92,36.61H94a17.69,17.69,0,0,0,2.21,6.17h20.13l2.34,4.07H94a17.65,17.65,0,0,1-4.13-10.24H86v-4h3.85A17.59,17.59,0,0,1,94,22.34h24.66l-2.34,4.07H96.21A17.52,17.52,0,0,0,94,32.56h16.92Z" transform="translate(0 0)"/><path class="a0755904-75a1-4d67-856e-314484144a2f" d="M145.07,42.78h2.72A17.6,17.6,0,0,0,150,36.61H125.79A17.49,17.49,0,0,0,128,42.78h2.7v4.07h-4.89a17.59,17.59,0,0,1-4.14-10.24h-3.84v-4h3.84a17.53,17.53,0,0,1,4.14-10.22H150a17.62,17.62,0,0,1,4.13,10.24l-1.76,1v2l1.76,1A17.65,17.65,0,0,1,150,46.85h-4.89ZM125.79,32.56H150a17.44,17.44,0,0,0-2.18-6.15H128A17.33,17.33,0,0,0,125.79,32.56Z" transform="translate(0 0)"/><path class="a0755904-75a1-4d67-856e-314484144a2f" d="M163.92,26.41a16.33,16.33,0,0,0-2.34,8.19,16.37,16.37,0,0,0,2.34,8.18h2.7v4.07h-4.89a18.22,18.22,0,0,1-4.22-12.25,18.19,18.19,0,0,1,4.22-12.26h24.15A18.19,18.19,0,0,1,190.1,34.6a18.22,18.22,0,0,1-4.22,12.25H181V42.78h2.72A16.45,16.45,0,0,0,186,34.6a16.4,16.4,0,0,0-2.32-8.19Z" transform="translate(0 0)"/><path class="a0755904-75a1-4d67-856e-314484144a2f" d="M199.3,46.85h-4.07v-21l4.07-4.06Z" transform="translate(0 0)"/><path class="a0755904-75a1-4d67-856e-314484144a2f" d="M229.3,36.61H212.39a17.46,17.46,0,0,0,2.2,6.17h20.13l2.34,4.07H212.4a17.65,17.65,0,0,1-4.13-10.24h-3.85v-4h3.85a17.59,17.59,0,0,1,4.13-10.22h24.66l-2.34,4.07H214.59a17.3,17.3,0,0,0-2.2,6.15H229.3Z" transform="translate(0 0)"/><path class="a0755904-75a1-4d67-856e-314484144a2f" d="M263.45,42.78h2.72a17.83,17.83,0,0,0,2.19-6.17H244.17a17.49,17.49,0,0,0,2.21,6.17h2.7v4.07h-4.89a17.66,17.66,0,0,1-4.14-10.24h-3.84v-4h3.84a17.6,17.6,0,0,1,4.14-10.22h24.15a17.62,17.62,0,0,1,4.13,10.24l-1.76,1v2l1.76,1a17.65,17.65,0,0,1-4.13,10.24h-4.89ZM244.17,32.56h24.19a17.67,17.67,0,0,0-2.19-6.15H246.38A17.33,17.33,0,0,0,244.17,32.56Z" transform="translate(0 0)"/><path class="a0755904-75a1-4d67-856e-314484144a2f" d="M306.64,32.56l1.84,2a18.13,18.13,0,0,1-4.22,12.25H280.11a17.11,17.11,0,0,1-3.67-7.3h4.37a19.45,19.45,0,0,0,1.49,3.23h19.79a17.23,17.23,0,0,0,2.19-6.17H277.74l-1.85-2a18.25,18.25,0,0,1,4.22-12.26h24.15a17.13,17.13,0,0,1,3.68,7.3h-4.38a17.47,17.47,0,0,0-1.47-3.23H282.3a17.3,17.3,0,0,0-2.2,6.15Z" transform="translate(0 0)"/><path class="a0755904-75a1-4d67-856e-314484144a2f" d="M328.56,42.78h18.08A16.41,16.41,0,0,0,349,34.6a16.5,16.5,0,0,0-2.33-8.19h-2.71V22.34h4.88A18.2,18.2,0,0,1,353,34.6a18.13,18.13,0,0,1-4.22,12.25H326.37a18.18,18.18,0,0,1-4.22-12.25h4.07A16.32,16.32,0,0,0,328.56,42.78Z" transform="translate(0 0)"/><path class="a0755904-75a1-4d67-856e-314484144a2f" d="M381.34,36.61H364.42a17.46,17.46,0,0,0,2.2,6.17h20.13l2.34,4.07H364.43a17.65,17.65,0,0,1-4.13-10.24h-3.85v-4h3.85a17.59,17.59,0,0,1,4.13-10.22h24.66l-2.34,4.07H366.62a17.3,17.3,0,0,0-2.2,6.15h16.92Z" transform="translate(0 0)"/><path class="a0755904-75a1-4d67-856e-314484144a2f" d="M397.21,42.78H417a16.41,16.41,0,0,0,2.33-8.18A16.5,16.5,0,0,0,417,26.41h-2.71V22.34h4.88a18.2,18.2,0,0,1,4.22,12.26,18.13,18.13,0,0,1-4.22,12.25H395A18.14,18.14,0,0,1,390.8,34.6,18.2,18.2,0,0,1,395,22.34h4.88v4.07h-2.7a16.41,16.41,0,0,0-2.34,8.19A16.32,16.32,0,0,0,397.21,42.78Z" transform="translate(0 0)"/><path class="a0755904-75a1-4d67-856e-314484144a2f" d="M454.43,46.85l-11.79-9.57-11.79,9.57h-6.6L439.34,34.6,424.25,22.34h6.6l11.79,9.57,11.79-9.57H461L445.94,34.6,461,46.85Z" transform="translate(0 0)"/></svg>