<svg xmlns="http://www.w3.org/2000/svg" xmlns:xlink="http://www.w3.org/1999/xlink" viewBox="0 0 470.33 67.41"><defs><style>.ef469199-715f-451a-9c59-c2a19ea1064d{stroke:#9def48;stroke-miterlimit:10;stroke-width:0.75px;fill:url(#a179904f-da3f-450e-aae0-7c6321f7d815);}.ac3192cc-61c2-40d9-b82e-e60632d30bf7{fill:#9def48;}.ff569276-6628-407f-b135-d781d15dba2e{fill:#0097e0;}.fac9eb01-b090-4d58-9fb1-03fb748270ef{fill:#0096df;}</style><linearGradient id="a179904f-da3f-450e-aae0-7c6321f7d815" x1="0.38" y1="33.7" x2="469.96" y2="33.7" gradientUnits="userSpaceOnUse"><stop offset="0" stop-color="#032c02"/><stop offset="1" stop-color="#207a09"/></linearGradient></defs><g id="b37293a7-1eea-4a07-8c77-1e34a5a7b87b" data-name="texte"><polygon class="ef469199-715f-451a-9c59-c2a19ea1064d" points="0.38 5.91 102.44 5.91 108.57 0.38 150.31 0.38 158.22 5.91 461.65 6.11 469.96 16 469.96 59.72 50.81 59.72 42.7 67.03 7.89 67.03 0.38 59.72 0.38 5.91"/><path class="ac3192cc-61c2-40d9-b82e-e60632d30bf7" d="M58.17,24.68a15.86,15.86,0,0,0-2.28,8,15.92,15.92,0,0,0,2.28,8h2.62v3.95H56a17.72,17.72,0,0,1-4.1-11.91A17.67,17.67,0,0,1,56,20.73H79.5a17.67,17.67,0,0,1,4.1,11.9,17.72,17.72,0,0,1-4.1,11.91H74.75V40.59h2.64a16,16,0,0,0,2.26-8,15.93,15.93,0,0,0-2.26-8Z" transform="translate(-0.06 -0.03)"/><path class="ac3192cc-61c2-40d9-b82e-e60632d30bf7" d="M111.09,34.59H94.66a16.9,16.9,0,0,0,2.14,6h19.56l2.27,3.95h-24a17.17,17.17,0,0,1-4-9.95H86.92V30.66h3.74a17.06,17.06,0,0,1,4-9.93h24l-2.27,3.95H96.8a16.74,16.74,0,0,0-2.14,6h16.43Z" transform="translate(-0.06 -0.03)"/><path class="ac3192cc-61c2-40d9-b82e-e60632d30bf7" d="M147.85,44.54H124.39a17.72,17.72,0,0,1-4.1-11.91,17.67,17.67,0,0,1,4.1-11.9h23.46a17.67,17.67,0,0,1,4.1,11.9A17.72,17.72,0,0,1,147.85,44.54Zm-2.11-3.95a16.09,16.09,0,0,0,2.26-8,16,16,0,0,0-2.26-8H126.52a15.86,15.86,0,0,0-2.28,8,15.92,15.92,0,0,0,2.28,8Z" transform="translate(-0.06 -0.03)"/><path class="ac3192cc-61c2-40d9-b82e-e60632d30bf7" d="M196.81,30.66c.05.64.08,1.3.08,2a17.72,17.72,0,0,1-4.1,11.91H169.33a17.72,17.72,0,0,1-4.1-11.91,17.67,17.67,0,0,1,4.1-11.9h23.46a16.6,16.6,0,0,1,3.57,7.09h-4.25a17.86,17.86,0,0,0-1.43-3.14H171.46a15.86,15.86,0,0,0-2.28,8,15.92,15.92,0,0,0,2.28,8h19.22a17.27,17.27,0,0,0,2.13-6H178.46V30.66Z" transform="translate(-0.06 -0.03)"/><path class="ac3192cc-61c2-40d9-b82e-e60632d30bf7" d="M224.38,34.59H208a16.9,16.9,0,0,0,2.14,6h19.55l2.28,3.95H208a17.17,17.17,0,0,1-4-9.95h-3.74V30.66H204a17.06,17.06,0,0,1,4-9.93h24l-2.28,3.95H210.09a16.74,16.74,0,0,0-2.14,6h16.43Z" transform="translate(-0.06 -0.03)"/><path class="ac3192cc-61c2-40d9-b82e-e60632d30bf7" d="M261.14,44.54H237.68a17.72,17.72,0,0,1-4.1-11.91,17.67,17.67,0,0,1,4.1-11.9h23.46a17.67,17.67,0,0,1,4.1,11.9A17.72,17.72,0,0,1,261.14,44.54ZM259,40.59a16.09,16.09,0,0,0,2.26-8,16,16,0,0,0-2.26-8H239.8a15.94,15.94,0,0,0-2.27,8,16,16,0,0,0,2.27,8Z" transform="translate(-0.06 -0.03)"/></g><g id="bb10f0a4-9ad6-4997-aef5-75774cacbb4f" data-name="arcade"><g id="a227b9c3-4fc1-4c50-9f93-ea7e2e7589a2" data-name="snk"><path id="b44ad84d-3f70-4f33-84bf-1492ddc4ac44" data-name="S" class="ff569276-6628-407f-b135-d781d15dba2e" d="M22.94,64.9c2.22,0,4-1.48,4-3.31V52.37a.47.47,0,0,1,.5-.42.45.45,0,0,1,.49.42V64.94h3.57v-14c0-1.84-1.84-3.32-4.06-3.32s-4.06,1.48-4.06,3.32v9.18a.47.47,0,0,1-.5.42.44.44,0,0,1-.49-.42V47.61h-3.5v14c0,1.83,1.8,3.31,4,3.31Z" transform="translate(-0.06 -0.03)"/><polygon id="aebaf3e9-6ebd-4095-8f98-6ba56e104b54" data-name="N" class="ff569276-6628-407f-b135-d781d15dba2e" points="18.86 46.56 31.39 46.56 31.39 42.15 23.52 42.15 31.39 33.74 31.39 29.15 18.86 29.15 18.86 33.57 26.69 33.57 18.86 41.97 18.86 46.56"/><polygon id="bca4dd53-ae4b-4c63-9712-51231db95141" data-name="K" class="ff569276-6628-407f-b135-d781d15dba2e" points="24.36 23.72 18.86 23.72 18.86 28.2 31.39 28.2 31.39 23.72 25.84 23.72 31.39 16.59 31.39 10.83 25.14 18.95 18.86 10.83 18.86 16.59 24.36 23.72"/><path id="bbf79f06-f1fb-455e-85da-17a4136fd257" data-name="mark" class="fac9eb01-b090-4d58-9fb1-03fb748270ef" d="M19.3,8.64a1.29,1.29,0,0,0-.39.91,1.31,1.31,0,0,0,.39.92,1.28,1.28,0,0,0,1.84,0,1.31,1.31,0,0,0,.39-.92,1.33,1.33,0,0,0-1.31-1.3,1.34,1.34,0,0,0-.92.39Zm1.7.14a1.12,1.12,0,0,1,0,1.55,1.13,1.13,0,0,1-.78.32,1.06,1.06,0,0,1-.78-.32,1.09,1.09,0,0,1-.31-.78,1,1,0,0,1,.31-.77,1.11,1.11,0,0,1,1.56,0Z" transform="translate(-0.06 -0.03)"/><path id="f51706d3-fa5c-4ba5-a704-d4bcf436a2e2" data-name="R" class="fac9eb01-b090-4d58-9fb1-03fb748270ef" d="M20,9h0a.4.4,0,0,0-.39.39v.74h1.31V9.87H20.4V9.41a.16.16,0,0,1,.14-.17l.32,0V9l-.32,0a.48.48,0,0,0-.25.11A.27.27,0,0,0,20,9Zm-.21.92V9.34A.17.17,0,0,1,20,9.16H20a.17.17,0,0,1,.18.18v.53Z" transform="translate(-0.06 -0.03)"/></g></g></svg>