<svg xmlns="http://www.w3.org/2000/svg" xmlns:xlink="http://www.w3.org/1999/xlink" viewBox="0 0 746.51 822.18"><defs><radialGradient id="edc9cfe1-073f-41d1-afef-c61382dc1325" cx="100.32" cy="382.53" r="5.66" gradientTransform="matrix(1 0 0 .6 0 153.01)" xlink:href="#a3821cf5-9f79-416b-ac4a-44a45b0b36ea"/><radialGradient id="f278cc82-39c5-4dc1-b888-1d2eb4d3b629" cx="246.79" cy="404.24" r="5.66" xlink:href="#a0576465-26ca-49ca-a61c-84c736415323"/><radialGradient id="a3821cf5-9f79-416b-ac4a-44a45b0b36ea" cx="92.36" cy="393.88" r="5.66" gradientTransform="matrix(1 0 0 .6 0 157.55)" gradientUnits="userSpaceOnUse"><stop offset="0" stop-color="#0000ef"/><stop offset=".15" stop-color="#0000e9"/><stop offset=".34" stop-color="#0101d9"/><stop offset=".56" stop-color="#0101be"/><stop offset=".79" stop-color="#02029a"/><stop offset="1" stop-color="#020282"/></radialGradient><radialGradient id="b9dd564f-3d71-45fa-9271-8cff6f51af93" cx="114.61" cy="393.88" r="5.66" xlink:href="#a3821cf5-9f79-416b-ac4a-44a45b0b36ea"/><radialGradient id="e1a7d6d8-2ea5-49c2-9653-87793e106f01" cx="133.17" cy="400.04" r="5.66" gradientTransform="matrix(1 0 0 .6 0 160.02)" xlink:href="#a3821cf5-9f79-416b-ac4a-44a45b0b36ea"/><radialGradient id="e1f92d03-6548-48b2-8d72-bca121a17827" cx="139.21" cy="387.78" r="5.66" gradientTransform="matrix(1 0 0 .6 0 155.11)" xlink:href="#a3821cf5-9f79-416b-ac4a-44a45b0b36ea"/><radialGradient id="b1dd5d59-54bb-4ca9-920c-964f75e643f1" cx="121.61" cy="382.1" r="5.66" gradientTransform="matrix(1 0 0 .6 0 152.84)" xlink:href="#a3821cf5-9f79-416b-ac4a-44a45b0b36ea"/><radialGradient id="f6ed752b-cb65-4037-b9ec-89f2795ff613" cx="195.83" cy="370.99" r="11.47" xlink:href="#a0576465-26ca-49ca-a61c-84c736415323"/><radialGradient id="aa9e9c3a-1204-46fa-9e63-8bd28a14eb58" cx="225.51" cy="404.67" r="5.66" xlink:href="#a0576465-26ca-49ca-a61c-84c736415323"/><radialGradient id="a0576465-26ca-49ca-a61c-84c736415323" cx="65.88" cy="348.77" r="11.47" gradientUnits="userSpaceOnUse"><stop offset="0" stop-color="#fd6d66"/><stop offset=".78" stop-color="#b50a03"/></radialGradient><radialGradient id="a4eff5e1-832a-46c6-aeae-7820ddde4826" cx="264.4" cy="409.93" r="5.66" xlink:href="#a0576465-26ca-49ca-a61c-84c736415323"/><radialGradient id="a3b358e8-bcd2-440f-b58a-6682397b1ef4" cx="258.36" cy="422.19" r="5.66" xlink:href="#a0576465-26ca-49ca-a61c-84c736415323"/><radialGradient id="b36c407a-b209-4d2d-a43d-c4088983194c" cx="239.79" cy="416.02" r="5.66" xlink:href="#a0576465-26ca-49ca-a61c-84c736415323"/><radialGradient id="f165a670-2614-4411-acbf-cbe6b92ae98a" cx="217.55" cy="416.02" r="5.66" xlink:href="#a0576465-26ca-49ca-a61c-84c736415323"/><linearGradient id="bfb9290b-1e18-4cec-b921-d206555267e2" x1="171.85" y1="86.75" x2="171.85" y2="109.81" gradientTransform="rotate(8.72 190.916 91.179)" xlink:href="#aed3afce-64d6-4e84-ac53-dd6a0e0f96cd"/><linearGradient id="aed3afce-64d6-4e84-ac53-dd6a0e0f96cd" x1="145.51" y1="704.19" x2="145.51" y2="726.38" gradientTransform="matrix(.99 .15 .15 -.99 -107.35 776.18)" gradientUnits="userSpaceOnUse"><stop offset="0" stop-color="#673c00"/><stop offset=".5" stop-color="#f1ba00"/><stop offset="1" stop-color="#6e4200"/></linearGradient><linearGradient id="a83df2cd-f15f-474b-8950-4207ae19f4aa" x1="200.87" y1="87.06" x2="200.87" y2="109.28" gradientTransform="rotate(8.72 190.916 91.179)" xlink:href="#aed3afce-64d6-4e84-ac53-dd6a0e0f96cd"/><linearGradient id="e9e96c27-f4ed-4019-b16c-68eda1902eb7" x1="222.93" y1="87.03" x2="222.93" y2="109.28" gradientTransform="rotate(8.72 190.916 91.179)" xlink:href="#aed3afce-64d6-4e84-ac53-dd6a0e0f96cd"/><linearGradient id="a382e968-e103-46af-ad39-86edaad3ceb4" x1="258.27" y1="86.98" x2="258.27" y2="109.27" gradientTransform="rotate(8.72 190.916 91.179)" xlink:href="#aed3afce-64d6-4e84-ac53-dd6a0e0f96cd"/><linearGradient id="f903f04a-64ba-4d43-adc6-c810d5a7c7d9" x1="293.64" y1="704.24" x2="293.64" y2="726.55" xlink:href="#aed3afce-64d6-4e84-ac53-dd6a0e0f96cd"/><style>.fa916fd6-6344-4126-b751-9df1a5dc89b3{fill:#373735}.efd987c5-2735-41b5-9bdf-3fa6e1e51555{fill:#121211}.a3abc462-6aec-4921-9ac5-d7877e37d799,.bee74181-7f6e-4574-a61c-5b5c04288cfe,.efd987c5-2735-41b5-9bdf-3fa6e1e51555,.fc2ed192-08fe-4f22-8565-39227a9bf03b,.ffcff60d-29bd-4df6-8a2e-a626f7a5c23f{stroke:#b5b5b5}.a3abc462-6aec-4921-9ac5-d7877e37d799,.b454e667-be6f-42d8-b699-0426be814d36,.bee74181-7f6e-4574-a61c-5b5c04288cfe,.eccd690a-de33-437a-8f09-2b3911b610da,.efd987c5-2735-41b5-9bdf-3fa6e1e51555,.f93be594-14bf-400d-bb32-bc97fe846193,.fc2ed192-08fe-4f22-8565-39227a9bf03b,.ffcff60d-29bd-4df6-8a2e-a626f7a5c23f{stroke-miterlimit:10}.a3abc462-6aec-4921-9ac5-d7877e37d799,.b454e667-be6f-42d8-b699-0426be814d36,.bee74181-7f6e-4574-a61c-5b5c04288cfe,.efd987c5-2735-41b5-9bdf-3fa6e1e51555,.fc2ed192-08fe-4f22-8565-39227a9bf03b,.ffcff60d-29bd-4df6-8a2e-a626f7a5c23f{stroke-width:.5px}.eccd690a-de33-437a-8f09-2b3911b610da{fill:#443840}.b454e667-be6f-42d8-b699-0426be814d36,.eccd690a-de33-437a-8f09-2b3911b610da{stroke:#090000}.eccd690a-de33-437a-8f09-2b3911b610da{stroke-width:.75px}.b454e667-be6f-42d8-b699-0426be814d36{fill:#6b0c05}.e23cd5da-a85c-4436-8a2f-6b7c2825dc80{fill:#86382f}.f93be594-14bf-400d-bb32-bc97fe846193{stroke:#373737}.bd6b75f8-860c-4066-ae77-d2bb02ff0315{fill:#9c9c9c}.a3abc462-6aec-4921-9ac5-d7877e37d799{fill:#dc6e05}.fc2ed192-08fe-4f22-8565-39227a9bf03b{fill:#12e600}.bee74181-7f6e-4574-a61c-5b5c04288cfe{fill:#0b47ce}.f657255f-17b1-40f4-941d-de214a55ce87,.ffcff60d-29bd-4df6-8a2e-a626f7a5c23f{fill:#282826}.b1922ca0-4530-4eec-adda-7e07b8e19d0a{fill:#ae7a82}.b1aaea62-8bd8-4d67-9fca-baa6f7e46867{fill:url(#a0576465-26ca-49ca-a61c-84c736415323)}.b10500c1-0080-4d65-bb71-8ae0b22c6643{fill:url(#f6ed752b-cb65-4037-b9ec-89f2795ff613)}.a778ee03-c977-4ad0-bb42-87d89392b42b{fill:#0000ef}.fa2ed42c-94b1-4111-b769-22264081626a{fill:#930303}.b6bc8a79-012c-4858-8e0a-ea89974d0241{fill:#e7e7e7}.f77f2ddd-709b-45af-be6a-199db12f4eb5{fill:#2c2b29}.e4cc28fc-2ec6-4887-af57-97d2a3ff4932{fill:#fff158}.e80b83eb-37a7-45d1-a124-61e7778a048a{fill:#a57300}.a3a27d9e-b228-43c9-9602-b7000a2625eb{fill:#ffee57}.aad6fe22-b56a-4059-9931-b97c79206ab4{fill:#565656}.a762dc82-edf4-40f7-b3d8-5d6bd193c1b0{fill:#f9f9f9}</style></defs><g id="e85c9300-33be-431b-867d-9fab0ce9aeac" data-name="Calque 1"><path id="b57e329b-743e-40e2-9451-cda19967e1d4" data-name="ombre" style="opacity:.5;fill:#373735" d="m452.03 588.79 21.51-5.91H485.41l1.58 2.96 237.36 43.3h11.08l11.07 31.39-46.41 37.71-46.42 13.19-8.18-1.32.27-1.85-13.98-2.63-83.6 27.95-73.32 51.57-22.83 6.82-7.77-1.16v-2.63l-16.08-3.03-129.99 34.37 153.84-230.73z"/><g id="aa6a0311-a0ac-471f-aafe-227d5054e8b5" data-name="bottom"><path class="fa916fd6-6344-4126-b751-9df1a5dc89b3" d="m36 454.56 224.9 39.62v4.35l25.72 6.13-.4 311.34-248.24-47.27L36 454.56z"/><path class="efd987c5-2735-41b5-9bdf-3fa6e1e51555" d="m202 526.54-78.38-13.74c-3 .19-4.26 3.56-4.26 3.56l.2 85c.69 2.18 3.86 5 3.86 5l74.27 13.46c5.14.49 7.52-5.25 7.52-5.25v-82.69a7.12 7.12 0 0 0-3.21-5.34zm-49.9 22.55-18.69-3.46v-20l2.27-1.88 18.1 3.07-1.78 2.69zm31.45 6.13-18.69-3.46v-20l2.27-1.87 18.1 3.06-1.78 2.67z" transform="translate(-.98 -.52)"/><path class="eccd690a-de33-437a-8f09-2b3911b610da" d="m134.7 523.25-2.27 1.88v19.98l18.69 3.46-.1-19.58 1.78-2.67-18.1-3.07zM166.15 529.38l-2.27 1.88v19.98l18.69 3.46-.1-19.58 1.78-2.67-18.1-3.07z"/><path class="b454e667-be6f-42d8-b699-0426be814d36" d="M140.14 543.03v-12.85l8.01 1.78v12.56l-8.01-1.49zM171.2 548.87v-12.86l8.01 1.78v12.56l-8.01-1.48z"/><path d="M135.23 543.16v-15.23l2.05.4v15.16l-2.05-.33zM166.68 548.7v-15.23l2.04.4v15.16l-2.04-.33z"/><path class="e23cd5da-a85c-4436-8a2f-6b7c2825dc80" d="M140.4 530.69v-.35l7.47 1.8.01.43-7.48-1.88zM171.46 536.62v-.29l7.47 1.64.01.35-7.48-1.7z"/><circle cx="192.4" cy="574.85" r="4.25" style="fill:#8b8b8b;stroke-width:.75px;stroke:#090000;stroke-miterlimit:10"/><path class="f93be594-14bf-400d-bb32-bc97fe846193" d="M136.29 598.71v-11.27l11.96 2.18v11.3l-11.96-2.21zM167.54 604.25v-11.27l11.96 2.17v10.88l-11.96-1.78z"/></g><g id="b988123f-5108-4f11-a64f-2ec6aa3a2529" data-name="t molding"><path class="bd6b75f8-860c-4066-ae77-d2bb02ff0315" d="m11.46 450.59-.79-39.76L1 407.66v45.1l27.89 5.54c.59 103.55 1 207.6 1.58 311.15a6.18 6.18 0 0 0 3.53 2.19 12.58 12.58 0 0 0 5 0l-2-316.56zM272.36 497v-41.27l-10.28-1.19-.2 44.51 25.71 6.13s-1.51 313.85 0 315.69 8.77 1.32 8.77 1.32l.93-319.91z" transform="translate(-.98 -.52)"/><path class="bd6b75f8-860c-4066-ae77-d2bb02ff0315" d="m78.72 346.42-8.15-1.3 16.26-218.56 9.04 1.5-17.15 218.36zM329.24 388.85l9.1 1.28 18.49-224.31h-26.37l-.26-90.92-10.06-1.84v94.84l6.04 1.09h20.27l-17.21 219.86z"/><path class="bd6b75f8-860c-4066-ae77-d2bb02ff0315" d="M88.49 127.19s-28.17-.35-29.11-.85c0-31.21.06-62.83 0-94l9.36 2.64.48 89.02z" transform="translate(-.98 -.52)"/><g id="bd4b2a55-7c47-4bc4-8322-72798d7a852f" data-name="clair"><path class="bd6b75f8-860c-4066-ae77-d2bb02ff0315" d="m0 407.14 9.69 3.17L78 346.25l-8.11-1.94L0 407.14zM261.1 454.02l10.28 1.19 66.96-65.87-8.62-1.6-68.62 66.28zM111.56 0 58.42 31.78l9.36 2.64L120.36 3.3l2.74-1.62-2.57-.36L111.56 0zM383.74 40.62l-11.21-.8-52.39 33.24 10.06 1.84 53.54-34.28z"/></g></g><g id="b91ae748-a59b-4d09-ab58-09c935e85738" data-name="side"><path class="efd987c5-2735-41b5-9bdf-3fa6e1e51555" d="m453.13 308.64.63-159.63-70.02-108.39L330.2 74.9l.26 90.92h26.37l-18.49 224.31-66.96 65.08v41.27l24.93 5.28-.93 319.91 8.25-6.32 149.65-543.7-.21 21.51-142.1 516.55-1.61 1.24 6.94-5.32 136.83-496.99zM324.06 799.15l-7.76 6.48 11.99-9.2 124.7-453.24.05-12.13-128.98 468.09zM335.43 790.95l-1.32 1.02 6.87-5.27 111.79-407.64v21.25l.22-57.12-.22 24-117.34 423.76zM343 785.15l108.58-83.28 1.18-299.85L347.4 781.78l-4.4 3.37z"/><path style="fill:#bf0000;stroke-width:.5px;stroke-miterlimit:10;stroke:#b5b5b5" d="m303.63 815.35 5.73-4.4-5.73 4.4z"/><path class="bd6b75f8-860c-4066-ae77-d2bb02ff0315" d="m453.07 293.16.21-21.51-149.65 543.7 5.73-4.4 1.61-1.24 142.1-516.55z"/><path class="a3abc462-6aec-4921-9ac5-d7877e37d799" d="M453.13 330.74v-22.1l-.09 22.42.09-.32zM316.3 805.63z"/><path d="m453.04 331.06.09-22.42L316.3 805.63l7.76-6.48 128.98-468.09z"/><path class="fc2ed192-08fe-4f22-8565-39227a9bf03b" d="M452.99 343.19zM328.29 796.43l5.82-4.46-5.82 4.46z"/><path style="fill:#734200" d="m334.11 791.97 1.32-1.02 117.34-423.76.22-24-124.7 453.24 5.82-4.46z"/><path class="bee74181-7f6e-4574-a61c-5b5c04288cfe" d="m340.98 786.7 2.02-1.55-2.02 1.55zM452.77 402v-1.69l-.01 1.71.01-.02z"/><path style="fill:#e7a500" d="m340.98 786.7 2.02-1.55 4.4-3.37 105.36-379.76.01-1.71v-21.25L340.98 786.7z"/></g><g id="f6ee07b6-7205-4ed1-8eff-2938a9e612ee" data-name="panel"><path class="ffcff60d-29bd-4df6-8a2e-a626f7a5c23f" d="m10.48 450.07 250.42 44.11.2-40.16L9.69 410.31l.79 39.76z"/><path class="fa916fd6-6344-4126-b751-9df1a5dc89b3" d="m79.37 345.21-69.68 65.1 251.41 43.71 68.62-66.28-250.35-42.53z"/></g><g id="f7b2fb1a-3baa-4944-9428-1820dca7d121" data-name="ecran"><path class="ffcff60d-29bd-4df6-8a2e-a626f7a5c23f" d="M96.84 129.36 79.7 347.72l250.52 42.43L347.82 168zm224.28 67.76c0 .2-.29.32-.48.49l-10.43 144.83a35.43 35.43 0 0 1-4.3 3.78l1.4.29v10.7s-1.4 4.75-11.08 2.64c-11.19-2.44-178.55-31.91-178.55-31.91l8.72-6.78v-1.39s-2.46.52-6-7l-12.48 2.77h-4l11.34-158.77s4-6.85 10.81-6.59 191.16 30.59 191.16 30.59 6.17 1.07 3.89 16.35z" transform="translate(-.98 -.52)"/><path d="M317.28 180S133 149.66 126.12 149.4s-10.81 6.6-10.81 6.6l-11.74 160.08h4.35l12.29-2.68c-.1-.23-.74-1.57-.85-1.8L131 166.54s2.11-5.54 7.12-7.38l177.49 27.16a20.77 20.77 0 0 1 5.11 9.76l-.05.75c.19-.17.62.66.66.47 3.23-14.06-4.05-17.3-4.05-17.3z" transform="translate(-.98 -.52)" style="fill:#151312"/><path d="m125.32 320-8.56 8s164.63 29.3 178.61 32.24c10.36 2.17 14.43-3.58 14.43-3.58l.61-7.37.39-7.71-4.89 3.84a20.85 20.85 0 0 1-7.73 3.87z" transform="translate(-.98 -.52)" style="fill:#555353"/><path d="M319.5 197.81c.45-.36.83-.69 1.14-1l.66-.52a20.31 20.31 0 0 0-5.72-10l-177.49-27.13c-5 1.84-7.12 7.38-7.12 7.38L119.36 311.6l.32.66c3.54 7.52 6.28 8 6.28 8l.44.08 171.78 28.93a20.85 20.85 0 0 0 7.73-3.87c2.57-1.91 4.89-3.84 4.89-3.84l10.5-145.29c-.44.46-1.05.96-1.8 1.54zM143.83 302.35z" transform="translate(-.98 -.52)" style="fill:#008aa6"/></g><g id="b804aa86-b9a4-4638-8579-21552f45d348" data-name="top"><path id="b67644b5-03e7-42e0-b239-a17e7f27a496" data-name="marquee" class="ffcff60d-29bd-4df6-8a2e-a626f7a5c23f" d="m68.24 123.5 251.47 39.03.43-89.47L67.78 34.42l.46 89.08z"/><path style="stroke-miterlimit:10;stroke:#b5b5b5;fill:#373735" d="m128.84 2.64-5.74-.96-55.32 32.74 252.36 38.64 52.39-33.24L128.84 2.64z"/></g><g id="a37cbb92-6ac5-4eb6-bb3f-384e2a927f2a" data-name="stickp1"><path class="f657255f-17b1-40f4-941d-de214a55ce87" d="M68.92 377.27v5.16H62.4v-5.16c-5.06.64-8.77 2.7-8.77 5.16 0 3 5.38 5.35 12 5.35s12-2.39 12-5.35c.06-2.43-3.63-4.52-8.71-5.16z" transform="translate(-.98 -.52)"/><path class="b1922ca0-4530-4eec-adda-7e07b8e19d0a" d="M68.92 377.27v-17.78a12.18 12.18 0 0 1-3 .39 12.4 12.4 0 0 1-3.48-.49v17.88a26.67 26.67 0 0 1 6.52 0z" transform="translate(-.98 -.52)"/><path class="b1922ca0-4530-4eec-adda-7e07b8e19d0a" d="M68.92 382.43v-5.16a26.67 26.67 0 0 0-6.52 0v5.16z" transform="translate(-.98 -.52)"/><path class="b1aaea62-8bd8-4d67-9fca-baa6f7e46867" d="M68.92 358.89v.6a11.24 11.24 0 0 0 8.77-10.72c0-6.14-5.29-11.11-11.81-11.11s-11.82 5-11.82 11.11a11.22 11.22 0 0 0 8.34 10.62v-.5z" transform="translate(-.98 -.52)"/><path class="b1922ca0-4530-4eec-adda-7e07b8e19d0a" d="M68.92 359.49v-.6H62.4v.5a12.4 12.4 0 0 0 3.48.49 12.18 12.18 0 0 0 3.04-.39z" transform="translate(-.98 -.52)"/><path class="b1aaea62-8bd8-4d67-9fca-baa6f7e46867" d="M68.92 359.49v-.6H62.4v.5a12.4 12.4 0 0 0 3.48.49 12.18 12.18 0 0 0 3.04-.39z" transform="translate(-.98 -.52)"/></g><g id="a74dd05f-b862-456b-a890-5ea877c860f3" data-name="stickp2"><path class="f657255f-17b1-40f4-941d-de214a55ce87" d="M198.88 399.49v5.16h-6.53v-5.16c-5 .64-8.77 2.7-8.77 5.16 0 3 5.39 5.35 12 5.35s12-2.39 12-5.35c.07-2.46-3.64-4.52-8.7-5.16z" transform="translate(-.98 -.52)"/><path class="b1922ca0-4530-4eec-adda-7e07b8e19d0a" d="M198.88 399.49v-17.78a12.2 12.2 0 0 1-3 .39 12.83 12.83 0 0 1-3.48-.49v17.88a26.75 26.75 0 0 1 6.53 0z" transform="translate(-.98 -.52)"/><path class="b1922ca0-4530-4eec-adda-7e07b8e19d0a" d="M198.88 404.65v-5.16a26.75 26.75 0 0 0-6.53 0v5.16z" transform="translate(-.98 -.52)"/><path class="b10500c1-0080-4d65-bb71-8ae0b22c6643" d="M198.88 381.11v.6a11.24 11.24 0 0 0 8.77-10.71c0-6.14-5.29-11.11-11.82-11.11S184 364.85 184 371a11.22 11.22 0 0 0 8.34 10.62v-.5z" transform="translate(-.98 -.52)"/><path class="b1922ca0-4530-4eec-adda-7e07b8e19d0a" d="M198.88 381.71v-.6h-6.53v.5a12.83 12.83 0 0 0 3.48.49 12.2 12.2 0 0 0 3.05-.39z" transform="translate(-.98 -.52)"/><path class="b10500c1-0080-4d65-bb71-8ae0b22c6643" d="M198.88 381.71v-.6h-6.53v.5a12.83 12.83 0 0 0 3.48.49 12.2 12.2 0 0 0 3.05-.39z" transform="translate(-.98 -.52)"/></g><g id="f75c3c09-baf3-4e7b-840a-d7b2c3be8fe4" data-name="boutons P1"><g id="ec7a0e5e-c87d-47c6-ab55-d839521948e3" data-name="4"><path class="a778ee03-c977-4ad0-bb42-87d89392b42b" d="M92.54 389.14c-3.86 0-8.12 1.53-8.12 4.87 0 2.95 4.1 4.62 7.94 4.62 4.11 0 8-1.73 8-4.88-.04-2.35-3.88-4.61-7.82-4.61zm-.18 8.63c-3.86 0-7-1.74-7-3.89s3.13-3.89 7-3.89 7 1.74 7 3.89-3.14 3.89-7 3.89z" transform="translate(-.98 -.52)"/><path d="M92.36 390c-3.86 0-7 1.74-7 3.89s3.13 3.89 7 3.89 7-1.74 7-3.89-3.14-3.89-7-3.89z" transform="translate(-.98 -.52)" style="fill:url(#a3821cf5-9f79-416b-ac4a-44a45b0b36ea)"/></g><g id="f27a82b4-2744-4b5a-a057-417df756b31a" data-name="5"><path class="a778ee03-c977-4ad0-bb42-87d89392b42b" d="M114.79 389.14c-3.86 0-8.12 1.53-8.12 4.87 0 2.95 4.1 4.62 7.94 4.62 4.11 0 8-1.73 8-4.88-.04-2.35-3.88-4.61-7.82-4.61zm-.18 8.63c-3.86 0-7-1.74-7-3.89s3.13-3.89 7-3.89 7 1.74 7 3.89-3.14 3.89-7 3.89z" transform="translate(-.98 -.52)"/><path d="M114.61 390c-3.86 0-7 1.74-7 3.89s3.13 3.89 7 3.89 7-1.74 7-3.89-3.14-3.89-7-3.89z" transform="translate(-.98 -.52)" style="fill:url(#b9dd564f-3d71-45fa-9271-8cff6f51af93)"/></g><g id="afeed274-1255-416c-ae8b-acd59a48ae94" data-name="6"><path class="a778ee03-c977-4ad0-bb42-87d89392b42b" d="M133.35 395.3c-3.86 0-8.13 1.53-8.13 4.87 0 3 4.11 4.62 7.95 4.62 4.1 0 8-1.73 8-4.88-.04-2.35-3.88-4.61-7.82-4.61zm-.18 8.63c-3.86 0-7-1.74-7-3.89s3.13-3.89 7-3.89 7 1.74 7 3.89-3.17 3.89-7 3.89z" transform="translate(-.98 -.52)"/><path d="M133.17 396.15c-3.86 0-7 1.74-7 3.89s3.13 3.89 7 3.89 7-1.74 7-3.89-3.17-3.89-7-3.89z" transform="translate(-.98 -.52)" style="fill:url(#e1a7d6d8-2ea5-49c2-9653-87793e106f01)"/></g><g id="b177c339-ac2e-494a-8021-b3482262a51d" data-name="3"><path class="a778ee03-c977-4ad0-bb42-87d89392b42b" d="M139.39 383c-3.86 0-8.13 1.53-8.13 4.88 0 2.95 4.11 4.61 8 4.61 4.1 0 8-1.73 8-4.88-.09-2.31-3.93-4.61-7.87-4.61zm-.18 8.63c-3.86 0-7-1.74-7-3.89s3.13-3.89 7-3.89 7 1.75 7 3.89-3.14 3.93-7 3.93z" transform="translate(-.98 -.52)"/><path d="M139.21 383.89c-3.86 0-7 1.75-7 3.89s3.13 3.89 7 3.89 7-1.74 7-3.89-3.14-3.89-7-3.89z" transform="translate(-.98 -.52)" style="fill:url(#e1f92d03-6548-48b2-8d72-bca121a17827)"/></g><g id="e227901e-967a-4a14-a458-a9710223aa50" data-name="2"><path class="a778ee03-c977-4ad0-bb42-87d89392b42b" d="M121.79 377.35c-3.86 0-8.12 1.53-8.12 4.88 0 2.95 4.1 4.61 7.94 4.61 4.11 0 8-1.73 8-4.88-.04-2.34-3.88-4.61-7.82-4.61zm-.18 8.64c-3.86 0-7-1.74-7-3.89s3.13-3.89 7-3.89 7 1.74 7 3.89-3.14 3.9-7 3.9z" transform="translate(-.98 -.52)"/><path d="M121.61 378.21c-3.86 0-7 1.74-7 3.89s3.13 3.89 7 3.89 7-1.74 7-3.89-3.14-3.89-7-3.89z" transform="translate(-.98 -.52)" style="fill:url(#b1dd5d59-54bb-4ca9-920c-964f75e643f1)"/></g><g id="ac84e3f4-7e43-4775-9375-12534fb1023c" data-name="1"><path class="a778ee03-c977-4ad0-bb42-87d89392b42b" d="M100.5 377.78c-3.86 0-8.13 1.53-8.13 4.88 0 2.95 4.11 4.62 7.95 4.62 4.1 0 8-1.73 8-4.88-.04-2.35-3.88-4.62-7.82-4.62zm-.18 8.64c-3.86 0-7-1.74-7-3.89s3.13-3.89 7-3.89 7 1.74 7 3.89-3.14 3.89-7 3.89z" transform="translate(-.98 -.52)"/><path d="M100.32 378.64c-3.86 0-7 1.74-7 3.89s3.13 3.89 7 3.89 7-1.74 7-3.89-3.14-3.89-7-3.89z" transform="translate(-.98 -.52)" style="fill:url(#edc9cfe1-073f-41d1-afef-c61382dc1325)"/></g></g><g id="aa87e7e7-3de5-457e-b5cd-25f76d566202" data-name="boutons P2"><g id="bf2a2220-2cb5-4d4f-8b12-daaddca4771b" data-name="1"><path class="fa2ed42c-94b1-4111-b769-22264081626a" d="M225.69 399.93c-3.86 0-8.13 1.53-8.13 4.87 0 2.95 4.11 4.62 7.95 4.62 4.1 0 8-1.73 8-4.88-.04-2.35-3.88-4.61-7.82-4.61zm-.18 8.63c-3.86 0-7-1.74-7-3.89s3.13-3.89 7-3.89 7 1.74 7 3.89-3.14 3.89-7 3.89z" transform="translate(-.98 -.52)"/><path d="M225.51 400.78c-3.86 0-7 1.74-7 3.89s3.13 3.89 7 3.89 7-1.74 7-3.89-3.14-3.89-7-3.89z" transform="translate(-.98 -.52)" style="fill:url(#aa9e9c3a-1204-46fa-9e63-8bd28a14eb58)"/></g><g id="f77675e6-55c6-4a5f-85ca-a4d43611128d" data-name="2"><path class="fa2ed42c-94b1-4111-b769-22264081626a" d="M247 399.49c-3.86 0-8.13 1.54-8.13 4.88 0 2.95 4.11 4.62 7.95 4.62 4.1 0 8-1.73 8-4.88-.07-2.35-3.91-4.62-7.82-4.62zm-.18 8.64c-3.86 0-7-1.74-7-3.89s3.13-3.89 7-3.89 7 1.74 7 3.89-3.17 3.89-7.03 3.89z" transform="translate(-.98 -.52)"/><path d="M246.79 400.35c-3.86 0-7 1.74-7 3.89s3.13 3.89 7 3.89 7-1.74 7-3.89-3.14-3.89-7-3.89z" transform="translate(-.98 -.52)" style="fill:url(#f278cc82-39c5-4dc1-b888-1d2eb4d3b629)"/></g><g id="bf2cdb25-eae6-4dcb-b04e-df96cc6ccda7" data-name="3"><path class="fa2ed42c-94b1-4111-b769-22264081626a" d="M264.58 405.18c-3.86 0-8.12 1.53-8.12 4.88 0 2.95 4.1 4.61 7.94 4.61 4.1 0 8-1.73 8-4.88-.04-2.35-3.88-4.61-7.82-4.61zm-.18 8.64c-3.86 0-7-1.75-7-3.89s3.13-3.89 7-3.89 7 1.74 7 3.89-3.14 3.89-7 3.89z" transform="translate(-.98 -.52)"/><path d="M264.4 406c-3.86 0-7 1.74-7 3.89s3.13 3.89 7 3.89 7-1.75 7-3.89-3.14-3.89-7-3.89z" transform="translate(-.98 -.52)" style="fill:url(#a4eff5e1-832a-46c6-aeae-7820ddde4826)"/></g><g id="aa3f6129-dab9-4079-a745-237dcf182762" data-name="4"><path class="fa2ed42c-94b1-4111-b769-22264081626a" d="M258.54 417.44c-3.86 0-8.13 1.53-8.13 4.88 0 2.95 4.11 4.61 8 4.61 4.1 0 8-1.73 8-4.88-.09-2.35-3.93-4.61-7.87-4.61zm-.18 8.64c-3.86 0-7-1.75-7-3.89s3.13-3.89 7-3.89 7 1.74 7 3.89-3.14 3.89-7 3.89z" transform="translate(-.98 -.52)"/><path d="M258.36 418.3c-3.86 0-7 1.74-7 3.89s3.13 3.89 7 3.89 7-1.75 7-3.89-3.14-3.89-7-3.89z" transform="translate(-.98 -.52)" style="fill:url(#a3b358e8-bcd2-440f-b58a-6682397b1ef4)"/></g><g id="e13f95da-b676-48da-b976-8bb95333fb19" data-name="5"><path class="fa2ed42c-94b1-4111-b769-22264081626a" d="M240 411.28c-3.86 0-8.13 1.53-8.13 4.88 0 2.95 4.11 4.61 7.95 4.61 4.1 0 8-1.73 8-4.88-.07-2.35-3.91-4.61-7.82-4.61zm-.18 8.63c-3.86 0-7-1.74-7-3.89s3.13-3.89 7-3.89 7 1.75 7 3.89-3.17 3.89-7.03 3.89z" transform="translate(-.98 -.52)"/><path d="M239.79 412.13c-3.86 0-7 1.75-7 3.89s3.13 3.89 7 3.89 7-1.74 7-3.89-3.14-3.89-7-3.89z" transform="translate(-.98 -.52)" style="fill:url(#b36c407a-b209-4d2d-a43d-c4088983194c)"/></g><g id="a497ef80-438b-4f7b-bcb2-4bc81941a5ea" data-name="6"><path class="fa2ed42c-94b1-4111-b769-22264081626a" d="M217.73 411.28c-3.86 0-8.13 1.53-8.13 4.88 0 2.95 4.11 4.61 8 4.61 4.1 0 8-1.73 8-4.88-.09-2.35-3.93-4.61-7.87-4.61zm-.18 8.63c-3.86 0-7-1.74-7-3.89s3.13-3.89 7-3.89 7 1.75 7 3.89-3.14 3.89-7 3.89z" transform="translate(-.98 -.52)"/><path d="M217.55 412.13c-3.86 0-7 1.75-7 3.89s3.13 3.89 7 3.89 7-1.74 7-3.89-3.14-3.89-7-3.89z" transform="translate(-.98 -.52)" style="fill:url(#f165a670-2614-4411-acbf-cbe6b92ae98a)"/></g></g><path class="b6bc8a79-012c-4858-8e0a-ea89974d0241" d="M228.57 237.19v.07l-5.92-1v-.08zM236.56 238.53a.13.13 0 0 0 0 .06l-5.72-1v-.06z" transform="translate(-.98 -.52)"/><path class="f77f2ddd-709b-45af-be6a-199db12f4eb5" d="m210.17 273.38-65.56-11c-.87-.14-.87-.14-.74-.92.25-1.54.47-3.08.75-4.61.78-4.31 1.48-8.63 2.22-12.95.09-.48.22-1 .29-1.44 0-.18.12-.23.31-.19l.75.13 119.31 19.98a16.13 16.13 0 0 1 4.69 1.42 11.54 11.54 0 0 1 5.67 5.9 8.36 8.36 0 0 1 .63 3.88c0 .38-.08.76-.15 1.14l-1.56 9.36c-.07.39-.13.42-.54.36l-40.11-6.72zm14.68-7.7c-.4 2.35-.79 4.71-1.19 7.07 0 .23 0 .34.3.38 1 .15 1.95.32 2.93.49.51.09.51.09.59-.37q.69-4.22 1.4-8.43c0-.08 0-.21.12-.22s.13.1.17.17c1.69 3.14 3.43 6.26 5.06 9.42a2.38 2.38 0 0 0 3.55.6c.9-.94 1.91-1.79 2.87-2.68l4.89-4.53c.08-.07.15-.22.26-.17s0 .2 0 .31v.12c-.47 2.79-.93 5.58-1.4 8.37 0 .25 0 .35.31.4 1 .16 2 .32 3.06.51.34.07.45 0 .49-.32l2.32-13.83a1.32 1.32 0 0 0-.25-1 2.34 2.34 0 0 0-3.26-.37l-2.16 2-8.12 7.4c-.25.23-.28.22-.45-.08-2.2-4.06-4.42-8.11-6.61-12.17a2.14 2.14 0 0 0-1.43-1.06A1.74 1.74 0 0 0 226 259zm-4.51-.71c.38-2.31.76-4.61 1.16-6.92a1.32 1.32 0 0 0-.45-1.21 2.4 2.4 0 0 0-3.17 0c-2.39 2.24-4.82 4.43-7.24 6.63l-2.95 2.7c-.13.12-.23.25-.37 0l-3.44-6.31c-1.1-2-2.19-4-3.3-6a2.24 2.24 0 0 0-2.21-1 1.52 1.52 0 0 0-1.5 1.37q-1.16 6.86-2.3 13.71c0 .28.05.37.35.41 1 .15 2 .32 3 .5.44.07.45.08.51-.3.46-2.73.91-5.46 1.37-8.19 0-.13 0-.27.06-.4s0-.16.11-.17.1.08.13.14.18.34.28.51c1.63 3 3.29 6 4.88 9.07a2.34 2.34 0 0 0 3.35.6c.47-.47 1-.91 1.48-1.37l6.5-6c.06-.05.09-.14.19-.11s.07.14.06.22c-.14.81-.28 1.62-.41 2.44-.35 2.06-.69 4.13-1 6.2 0 .22 0 .32.29.36l3 .5c.44.07.45.07.52-.31q.51-3.6 1.1-7.04zm33.15 5.67c-.38 2.28-.76 4.57-1.15 6.85-.06.31.06.41.38.45 1 .16 2 .32 3 .5.33.07.45 0 .5-.31.16-1 .35-2.08.51-3.12 0-.23.12-.33.4-.28l12.77 2.14c.33.05.39.18.34.45-.18 1-.34 2.08-.53 3.12-.05.25 0 .35.32.4 1 .15 2 .32 3 .49.45.07.46.07.53-.34l1.22-7.32a6.88 6.88 0 0 0-2.51-6.52 12.61 12.61 0 0 0-6.36-3c-2.38-.41-4.76-.8-7.13-1.19-.72-.12-1.45-.26-2.17-.35a1.6 1.6 0 0 0-1.91 1.29c-.46 2.27-.83 4.5-1.21 6.74zm-62.24-10.42 1.14-6.79a1.24 1.24 0 0 0 0-.47 1.91 1.91 0 0 0-1.63-1.33c-1.55-.26-3.1-.53-4.65-.77-1.84-.3-3.66-.71-5.51-.87a11.55 11.55 0 0 0-7 1.39 6.55 6.55 0 0 0-3.37 4.67q-.63 3.74-1.25 7.47c-.07.4-.07.4.36.47 1 .17 2 .32 2.93.5.33.06.45 0 .5-.31.15-1 .34-2.06.5-3.09 0-.29.17-.35.48-.3l12.67 2.12c.34 0 .42.16.37.46-.19 1-.35 2.08-.54 3.11 0 .26 0 .36.32.4 1 .16 2 .32 3 .51.33.06.44 0 .49-.32.42-2.28.81-4.57 1.19-6.85zm-38.3 1 6.47 1.08a7.76 7.76 0 0 0 2.76 0 3.93 3.93 0 0 0 3.34-2.92c.64-3.78 1.26-7.55 1.9-11.33.05-.27 0-.37-.33-.42-1-.15-2-.32-3-.5-.36-.07-.46 0-.51.33q-.92 5.58-1.86 11.15a1.08 1.08 0 0 1-1.24.95 4.41 4.41 0 0 1-.73-.08c-1-.18-2-.37-3.06-.54l-7-1.15c-.28-.05-.35-.15-.31-.38.11-.59.19-1.18.31-1.76.06-.28 0-.4-.35-.45-.84-.13-1.68-.26-2.52-.42-.34-.07-.44 0-.49.32-.24 1.49-.49 3-.74 4.45-.07.42-.07.42.42.5zM230.83 237.63l5.72 1c.15.09.15.2.13.35-.37 2.17-.73 4.34-1.11 6.51 0 .29 0 .38.34.43 3.09.5 6.18 1 9.27 1.54.32.05.34.16.31.44-.06.67-.23 1.33-.32 2-.22 1.55-.54 3.09-.8 4.63-.1.59-.17 1.19-.26 1.78 0 .2-.12.31-.4.26L228.57 254c-.65-.11-.65-.11-.56-.68q1.29-7.69 2.57-15.38c.02-.15.02-.31.25-.31zm3.94 12.7c-.13.78-.25 1.56-.39 2.34-.05.27 0 .38.33.43 1.06.16 2.11.34 3.16.53.32.06.44 0 .49-.31.25-1.55.51-3.1.78-4.66 0-.24 0-.34-.31-.38q-1.62-.25-3.24-.54c-.28-.05-.39 0-.43.27-.16.78-.26 1.55-.39 2.32zM255.63 249.17c2.55.43 5.09.86 7.64 1.27.34.06.42.17.37.47q-.7 4.14-1.39 8.3c-.07.37-.1.4-.52.33L246.38 257c-.27-.05-.34-.16-.3-.39q.72-4.21 1.41-8.43c0-.28.18-.33.47-.28 2.55.44 5.11.86 7.67 1.29zm1.31 4.88c.14-.8.27-1.6.41-2.4 0-.23 0-.36-.3-.4l-3.44-.58c-.26 0-.38 0-.42.27l-.81 4.85c0 .25.05.36.33.41l3.37.56c.3.06.42 0 .46-.3.13-.8.27-1.6.4-2.41zM173.53 244.78l-7.64-1.27c-.31 0-.37-.15-.33-.42q.72-4.2 1.42-8.42c0-.25.13-.32.4-.27l15.36 2.6c.41.07.43.11.37.49-.26 1.55-.53 3.11-.78 4.66 0 .31-.17.37-.5.32-3.07-.53-6.15-1-9.22-1.55-.46-.08-.46-.08-.52.32s-.11.7-.19 1 0 .35.31.4c2.06.33 4.11.68 6.17 1l3.16.53c.32.05.42.17.37.44s-.14.74-.19 1.11-.18.38-.51.32zm.92-5.45c.56.1 1.13.18 1.69.29.25 0 .35 0 .38-.25 0-.39.12-.78.2-1.17 0-.21 0-.32-.26-.36l-3.41-.57c-.22 0-.33 0-.36.23q-.08.62-.18 1.23c0 .23.06.3.29.33.55.07 1.1.17 1.65.27zM211.28 241.75l7.64 1.28c.44.07.5.14.42.52-.43 2-.7 4-1.05 6-.14.74-.27 1.48-.37 2.23 0 .29-.15.37-.49.31-2.08-.36-4.17-.7-6.26-1l-9-1.51c-.42-.07-.43-.08-.37-.47.26-1.56.53-3.11.77-4.67 0-.32.18-.37.52-.31l9.16 1.54c.46.07.46.07.53-.33s.09-.67.17-1 0-.4-.36-.46c-2.34-.37-4.68-.77-7-1.16l-2.31-.38c-.24 0-.32-.12-.28-.34a10.85 10.85 0 0 0 .21-1.27c0-.27.16-.31.43-.26l5.37.9 2.27.38zm-1.15 7.25c.55.09 1.11.17 1.66.27.21 0 .33 0 .36-.21l.21-1.23c0-.19-.05-.29-.27-.33l-3.33-.56c-.24 0-.35 0-.38.24 0 .4-.11.79-.19 1.17-.05.23.05.33.29.37.52.07 1.1.17 1.65.28zM268.74 251.36c.87.15 1.74.31 2.62.44.31 0 .38.18.34.43-.08.4-.13.8-.21 1.2 0 .21 0 .3.27.34l3.36.56c.28 0 .38 0 .41-.27.06-.41.15-.82.2-1.23 0-.23.15-.27.37-.24l5.4.91c.21 0 .3.13.27.33-.08.43-.16.86-.22 1.29 0 .23-.16.29-.41.25-.44-.09-.89-.15-1.34-.24-.24 0-.33 0-.36.24-.05.4-.13.8-.19 1.2 0 .23-.15.3-.4.25-.47-.08-.94-.15-1.41-.24-.17 0-.24 0-.29.17-.13.44-.08.91-.25 1.34-.07.18.07.24.24.27l1.38.22c.28 0 .38.15.33.41s-.13.78-.21 1.17c0 .21.05.31.28.34l1.34.22c.25 0 .34.13.3.36-.09.42-.17.84-.22 1.27 0 .22-.15.27-.36.24l-.65-.11-4.62-.77c-.45-.08-.45-.08-.38-.49s.12-.76.19-1.14c.05-.21 0-.3-.27-.34l-3.44-.58c-.22 0-.29 0-.31.21-.06.4-.16.8-.19 1.21s-.19.37-.5.32l-4.72-.8c-1.16-.19-.93-.1-.8-1 0-.25.09-.49.12-.74s.16-.29.4-.25c.45.09.9.15 1.34.24.27.05.39 0 .42-.26s.14-.78.19-1.17.16-.31.41-.26c.46.09.92.15 1.37.24.21 0 .3 0 .32-.2.06-.43.13-.85.22-1.27 0-.21-.05-.28-.26-.31l-1.38-.23c-.24 0-.34-.12-.29-.36s.14-.78.21-1.17c0-.23 0-.35-.31-.38-.45-.06-.9-.15-1.35-.22-.25 0-.34-.14-.29-.37q.12-.63.21-1.26c0-.24.16-.29.4-.24zM222.64 236.28l5.92 1a.42.42 0 0 1 .05.36q-1.31 7.77-2.6 15.56c0 .28-.17.37-.48.31s-.88-.19-1.33-.26l-3.89-.62c-.46-.08-.45-.08-.39-.49q1.31-7.74 2.6-15.49c.02-.14 0-.28.12-.37zM191.71 247.82l-7.71-1.28c-.3 0-.4-.14-.35-.43q.72-4.2 1.41-8.4c0-.26.15-.32.42-.27l15.39 2.56c.31.05.42.18.36.45s-.11.72-.19 1.08-.13.41-.55.34l-4.16-.7-5.06-.85c-.28 0-.37 0-.41.25-.22 1.39-.46 2.78-.69 4.17a2.74 2.74 0 0 1 0 .28c-.11.6-.11.6.58.72l8.92 1.49c.42.07.45.11.39.5s-.15.72-.18 1.08-.19.35-.48.3c-.56-.11-1.12-.2-1.68-.29z" transform="translate(-.98 -.52)"/><path d="M291.07 282.1c-.25 1.47-.49 2.94-.74 4.41-.07.42-.07.42-.51.34l-4.27-.71c-.27 0-.37-.13-.3-.37s.07-.41.11-.62-.06-.27-.25-.29l-.49-.05c-.39-.06-.49 0-.51.37v.19c0 .43-.14.5-.63.42-1.39-.23-2.79-.47-4.19-.69-.32-.05-.4-.19-.36-.45.5-3 1-5.91 1.49-8.86.06-.36.14-.42.55-.33 2.95.58 5.92 1 8.87 1.52.52.09 1 .13 1.55.22s.47.1.4.52c-.24 1.46-.49 2.92-.73 4.38zm-8.37-.17 1.58.27c.22 0 .32 0 .35-.22.1-.59.2-1.19.31-1.79 0-.21-.06-.3-.29-.34l-3.13-.52c-.21 0-.31 0-.35.22-.08.59-.18 1.19-.29 1.79 0 .21 0 .31.27.34zm5.47-1.49c-.52-.08-1-.16-1.55-.26-.25-.05-.36 0-.39.24-.09.59-.19 1.19-.29 1.78-.05.23.05.29.28.33 1 .16 2 .33 3 .51.28.05.39 0 .43-.27.08-.56.17-1.13.28-1.69 0-.23 0-.35-.3-.39-.48-.08-.97-.17-1.46-.25z" transform="translate(-.98 -.52)" style="fill:#2785db"/><path d="M292.87 271.31c-.25 1.48-.5 3-.74 4.44-.07.38-.11.4-.52.34l-2.86-.48c-.41-.07-.49-.18-.43-.54.14-.85.28-1.71.43-2.56a.34.34 0 0 1 0-.1c.2-.63.12-.52.72-.43l1.48.25c.26 0 .4 0 .44-.25.09-.59.19-1.18.29-1.76 0-.21 0-.33-.3-.38l-8-1.34c-.26 0-.39.05-.42.28-.09.57-.19 1.14-.28 1.7 0 .23.05.36.31.41l3.06.52a.25.25 0 0 0 .33-.17 1.81 1.81 0 0 0 .12-.64c0-.19.11-.24.27-.29a.45.45 0 0 1 .2 0c.85.09.89.14.77.88-.21 1.26-.43 2.51-.63 3.77 0 .26-.17.34-.43.3l-5.43-.91c-.49-.08-.55-.15-.48-.58.49-3 1-5.91 1.48-8.87 0-.17.09-.23.28-.22s.55 0 .83.08l9.77 1.63c.55.09.55.1.47.6l-.72 4.32z" transform="translate(-.98 -.52)" style="fill:#44c047"/><path d="M289.84 254.78c1.75.29 3.49.59 5.24.87.3 0 .4.13.35.42-.51 3-1 5.95-1.49 8.92-.05.3-.16.38-.49.32-1.4-.25-2.8-.48-4.2-.71-.36-.06-.42-.15-.36-.47 0-.12.06-.23.08-.34.08-.47.08-.47-.46-.56h-.21c-.5-.08-.51-.08-.54.39 0 .18-.1.34-.11.52s-.18.19-.35.16l-4.44-.74c-.23 0-.32-.15-.29-.35.17-1 .35-2 .51-3.06 0-.28.23-.27.45-.23l1.83.3c.8.15 1.61.24 2.4.44.25.06.44 0 .48-.27.07-.57.17-1.14.28-1.7.05-.27 0-.38-.34-.43-1.42-.22-2.83-.47-4.24-.7-.29 0-.4-.12-.35-.4.18-1 .33-2 .48-3 0-.26.15-.33.44-.28 1.77.31 3.55.6 5.33.9zm1.49 6.43c.51.08 1 .16 1.54.26.22 0 .35 0 .39-.21.09-.61.19-1.22.3-1.82 0-.2 0-.32-.27-.35l-3.09-.52c-.22 0-.32 0-.35.21-.09.63-.2 1.25-.31 1.88 0 .18 0 .26.24.29z" transform="translate(-.98 -.52)" style="fill:#eb1416"/><path class="f77f2ddd-709b-45af-be6a-199db12f4eb5" d="m156.94 232.66 7.54 1.26c.53.09.53.09.45.57s-.13.7-.17 1-.16.33-.44.28l-9.3-1.57c-.33-.05-.41 0-.45.3-.35 2.17-.72 4.33-1.07 6.49-.05.31-.2.36-.51.31l-5.19-.87c-.3 0-.4-.14-.35-.42q.72-4.19 1.4-8.39c.05-.31.19-.34.48-.29z" transform="translate(-.98 -.52)"/><path class="b6bc8a79-012c-4858-8e0a-ea89974d0241" d="M224.85 265.68 226 259a1.74 1.74 0 0 1 2.34-1.33 2.14 2.14 0 0 1 1.43 1.06c2.19 4.06 4.41 8.11 6.61 12.17.17.3.2.31.45.08l8.14-7.43 2.16-2a2.34 2.34 0 0 1 3.26.37 1.32 1.32 0 0 1 .25 1q-1.17 6.91-2.32 13.83c0 .29-.15.39-.49.32-1-.19-2-.35-3.06-.51-.3-.05-.36-.15-.31-.4.47-2.79.93-5.58 1.4-8.37v-.12c0-.04.11-.25 0-.31s-.18.1-.26.17l-4.89 4.53c-1 .89-2 1.74-2.87 2.68a2.38 2.38 0 0 1-3.55-.6c-1.63-3.16-3.37-6.28-5.06-9.42 0-.07-.06-.19-.17-.17s-.11.14-.12.22l-1.4 8.43c-.08.46-.08.46-.59.37-1-.17-1.95-.34-2.93-.49-.28 0-.34-.15-.3-.38.4-2.36.79-4.72 1.19-7.07zM220.34 265q-.59 3.46-1.16 6.95c-.07.38-.08.38-.52.31l-3-.5c-.27 0-.32-.14-.29-.36.36-2.07.7-4.14 1-6.2.13-.82.27-1.63.41-2.44 0-.08.06-.18-.06-.22s-.13.06-.19.11l-6.5 6c-.5.46-1 .9-1.48 1.37a2.34 2.34 0 0 1-3.35-.6c-1.59-3-3.25-6.05-4.88-9.07-.1-.17-.19-.34-.28-.51s-.05-.14-.13-.14-.1.1-.11.17 0 .27-.06.4c-.46 2.73-.91 5.46-1.37 8.19-.06.38-.07.37-.51.3-1-.18-2-.35-3-.5-.3 0-.4-.13-.35-.41q1.16-6.86 2.3-13.71a1.52 1.52 0 0 1 1.5-1.37 2.24 2.24 0 0 1 2.21 1c1.11 2 2.2 4 3.3 6l3.44 6.31c.14.27.24.14.37 0l2.95-2.7c2.42-2.2 4.85-4.39 7.24-6.63a2.4 2.4 0 0 1 3.17 0 1.32 1.32 0 0 1 .45 1.21c-.4 2.31-.78 4.61-1.16 6.92zM253.49 270.64c.38-2.24.75-4.47 1.13-6.7a1.6 1.6 0 0 1 1.91-1.29c.72.09 1.45.23 2.17.35 2.37.39 4.75.78 7.13 1.19a12.61 12.61 0 0 1 6.36 3 6.88 6.88 0 0 1 2.51 6.52q-.6 3.66-1.22 7.32c-.07.41-.08.41-.53.34-1-.17-2-.34-3-.49-.29 0-.37-.15-.32-.4.19-1 .35-2.08.53-3.12.05-.27 0-.4-.34-.45l-12.77-2.14c-.28-.05-.36 0-.4.28-.16 1-.35 2.08-.51 3.12-.05.3-.17.38-.5.31-1-.18-2-.34-3-.5-.32 0-.44-.14-.38-.45.39-2.28.77-4.57 1.15-6.85zM264 273l6.37 1.07c.3 0 .43 0 .46-.28s.08-.52.12-.78a4.27 4.27 0 0 0-1.54-4.2 8.48 8.48 0 0 0-4-1.85c-2.25-.43-4.52-.78-6.77-1.17-.34-.06-.36.12-.4.33q-.44 2.69-.9 5.37c0 .29 0 .4.36.46zM191.25 260.22c-.38 2.28-.77 4.57-1.14 6.85-.05.3-.16.38-.49.32-1-.19-2-.35-3-.51-.29 0-.36-.14-.32-.4.19-1 .35-2.08.54-3.11.05-.3 0-.41-.37-.46l-12.67-2.12c-.31-.05-.44 0-.48.3-.16 1-.35 2.05-.5 3.09 0 .3-.17.37-.5.31-1-.18-1.95-.33-2.93-.5-.43-.07-.43-.07-.36-.47q.62-3.74 1.25-7.47a6.55 6.55 0 0 1 3.37-4.67 11.55 11.55 0 0 1 7-1.39c1.85.16 3.67.57 5.51.87 1.55.24 3.1.51 4.65.77a1.91 1.91 0 0 1 1.59 1.37 1.24 1.24 0 0 1 0 .47l-1.14 6.79zm-10.67-1.14c2.11.35 4.22.7 6.33 1.07.32.05.44 0 .48-.29.3-1.81.6-3.63.91-5.44 0-.26 0-.37-.33-.42q-3-.48-6-1a11.11 11.11 0 0 0-3.77 0 4.85 4.85 0 0 0-3.81 2.54 7.49 7.49 0 0 0-.52 2c-.07.4-.07.41.4.48zM153 261.25l-7-1.17c-.49-.08-.49-.08-.42-.5.25-1.48.5-3 .74-4.45.05-.28.15-.39.49-.32.84.16 1.68.29 2.52.42.31.05.41.17.35.45-.12.58-.2 1.17-.31 1.76 0 .23 0 .33.31.38l7 1.15c1 .17 2 .36 3.06.54a4.41 4.41 0 0 0 .73.08 1.08 1.08 0 0 0 1.24-.95q.94-5.58 1.86-11.15c0-.3.15-.4.51-.33 1 .18 2 .35 3 .5.3.05.38.15.33.42-.64 3.78-1.26 7.55-1.9 11.33a3.93 3.93 0 0 1-3.34 2.92 7.76 7.76 0 0 1-2.76 0l-6.41-1.08z" transform="translate(-.98 -.52)"/><path class="f77f2ddd-709b-45af-be6a-199db12f4eb5" d="m264 273-6.33-1c-.34-.06-.41-.17-.36-.46q.47-2.68.9-5.37c0-.21.06-.39.4-.33 2.25.39 4.52.74 6.77 1.17a8.48 8.48 0 0 1 4 1.85 4.27 4.27 0 0 1 1.54 4.2c0 .26-.1.52-.12.78s-.16.33-.46.28zM180.58 259.08l-6.3-1.06c-.47-.07-.47-.08-.4-.48a7.49 7.49 0 0 1 .52-2 4.85 4.85 0 0 1 3.81-2.54 11.11 11.11 0 0 1 3.77 0q3 .51 6 1c.31.05.38.16.33.42-.31 1.81-.61 3.63-.91 5.44 0 .29-.16.34-.48.29-2.11-.37-4.22-.72-6.33-1.07z" transform="translate(-.98 -.52)"/></g><g id="b15149c1-533a-4e5a-9941-226324e8b771" data-name="bca30c76-f0e9-4345-a1ce-be0818abd9d4"><path d="m135.4 82.51-.05-3.94 23.34 3.55v3.94l-9.42-1.43.31 19.45-4.54-.69V85.17l-1.64-.25v-1.19z" transform="translate(-.98 -.52)" style="fill:#a97700"/><path d="m135.4 82.51-1.4-.22-.06-5.13 24.77 3.77v1.19l-13.64-2.05-8.7.49-1-.12zm8 2.41 1.64.25v18.22l-1.43-.22z" transform="translate(-.98 -.52)" style="fill:#ffe851"/><path id="a1a8cdba-7d47-41f9-ae84-a1688a62efc5" data-name="ea9c1c1c-4df2-48d6-b1bf-05c75813e514" d="m135.35 78.57 22.16 3.37v2.65l-9.25-1.41.24 19.83-3.68-.57-.23-19.81-9.24-1.41z" transform="translate(-.98 -.52)" style="fill:url(#aed3afce-64d6-4e84-ac53-dd6a0e0f96cd)"/><path class="e4cc28fc-2ec6-4887-af57-97d2a3ff4932" d="m186.25 110-.88-.13-.25-.56v-1.83l9.4-21.09 6.35 1 .65 1.29-5.95-.91-9.13 20.23-.2.78V110z" transform="translate(-.98 -.52)"/><path class="e80b83eb-37a7-45d1-a124-61e7778a048a" d="m201.51 88.64-6-.91-9.31 20.81V110l3.67.56 3-6 9.53 1.44.75 1.52.64.1 1.85 4.13v1.09l4.43.68.73-.6v-1.72zM194.9 99.8l2.51-5.64 2.67 6.47z" transform="translate(-.98 -.52)"/><path id="e9b1b001-c481-4203-b3dd-bc07e0b4b376" data-name="a8dd2fa8-5883-42d6-a86e-8bbbf660954b" d="m200 88.41-4.43-.67-9.48 21 3.29.51 2.65-6.11 11.26 1.72 2.89 7 3.75.57zm-4.94 11.42 2.4-5.56 2.63 6.36z" transform="translate(-.98 -.52)" style="fill:url(#a83df2cd-f15f-474b-8950-4207ae19f4aa)"/><path class="e4cc28fc-2ec6-4887-af57-97d2a3ff4932" d="m236.07 117.63-1.43-1-.1-23.47.61-.59 4.76.73.75.73v.57l-4.66-.54zM214 114.25l-1.44-1-.14-23.51.71-.47 12.07 1.84s4.35 1.92 5.54 3.88l-2.67-1.66-3.17-1.07-8.86 1-.41 19.74H214z" transform="translate(-.98 -.52)"/><path class="e80b83eb-37a7-45d1-a124-61e7778a048a" d="m230.72 94.94-2.66-1.67-2.66-.88-.5-.19-11-1.68.1 23.58 3.93.63.46-.74v-7.9l6.23 1a7.62 7.62 0 0 0 7.44-4.8v-4.38a13.71 13.71 0 0 0-1.3-2.92zM222.5 102l-4.21-.65V94.9l4.34.66s3.23.63 3.48 3.64-3.55 2.76-3.55 2.8z" transform="translate(-.98 -.52)"/><path id="fc4648fc-5d67-4d36-a00d-64544926d38a" data-name="fc1ebcd7-6fb5-467f-bef3-73d23f2b705c" d="m224.92 92.21-11-1.68L214 113l3.44.53-.12-8.58 6.68 1c4.82.53 7.17-4.09 7.17-4.09v-3.51c-1.16-4.53-6.24-6.2-6.24-6.2zm-2.36 9.55-4.12-.63v-6.21l4.74.72a5.47 5.47 0 0 1 3 3.57s-.83 3.12-3.55 2.54z" transform="translate(-.98 -.52)" style="fill:url(#e9e96c27-f4ed-4019-b16c-68eda1902eb7)"/><path class="e4cc28fc-2ec6-4887-af57-97d2a3ff4932" d="m241.52 113.34 11.74 1.8 8.65-18.5 6.23 1 1 1.46-6.29-1.1-8.65 18.5-12.68-1.94zm31.16 9.9-2.28-5.53.79.12 2.09 5.5z" transform="translate(-.98 -.52)"/><path class="e80b83eb-37a7-45d1-a124-61e7778a048a" d="m238.51 94.27 2.15.33.07 18.52.79.22v1.2l-3.4-.52.1-19.47.29-.28zm-2.44 23.36V116l20.14 3.09 2.78-5.89 12.01 1.86 1.12 2.92-1.76-.27-.69-1.39-9.78-1.5-2.88 5.89-21-3.08z" transform="translate(-.98 -.52)"/><path class="e80b83eb-37a7-45d1-a124-61e7778a048a" d="m273.28 123.33 4.42.68.39-1v-1.57L269 98.8l-6.15-.8 5.78 12.72 2.7 7.48z" transform="translate(-.98 -.52)"/><path d="m267.35 98.77-4.5-.79-8.65 18.51-14.79-2.21-.08-19.88-3.33-.51.1 22.53 20.41 3.13 2.65-5.76 11.66 1.63 2.78 6.46 3.36.52zm-5.21 11.15 2.63-5.6 2.58 6.4z" transform="translate(-.98 -.52)" style="fill:url(#a382e968-e103-46af-ad39-86edaad3ceb4)"/><path class="e4cc28fc-2ec6-4887-af57-97d2a3ff4932" d="m280.89 124.5-.89-1v-23.29l.44-.72 7.18 1.09.65 1.29-6.94-1v23.25z" transform="translate(-.98 -.52)"/><path class="e80b83eb-37a7-45d1-a124-61e7778a048a" d="m280.89 124.5.44-.46v-23.36l6.94 1.16 8.35 15 .52.27 1.24 1.66 1.17-4.34.57-10.8 2.83.43v22.87l-.74.81-6-1.05L285.3 108l-.06 16.19-.4.91-3.95-.6z" transform="translate(-.98 -.52)"/><path d="M281.33 123.34v-22.55l5.3.8 10.71 18.56 1 .16v-16.93l3.13.48v22.56l-4.35-.66-12.68-22.28-.15.4v19.92z" transform="translate(-.98 -.52)" style="fill:url(#f903f04a-64ba-4d43-adc6-c810d5a7c7d9)"/><path class="e4cc28fc-2ec6-4887-af57-97d2a3ff4932" d="m203.21 107.54.65.1 1.84 4.12V113l-2.49-5.44zm93.91 9.59v-14.29l.4-.78 4.81.74.75.53v.77l-4.72-.72v15.41z" transform="translate(-.98 -.52)"/><path class="a3a27d9e-b228-43c9-9602-b7000a2625eb" d="M159.76 100.58a69.31 69.31 0 0 1-1-10c.07-3.82 5.56-6.55 5.56-6.55l3.8-.63a29.46 29.46 0 0 1 6.77 1 18.34 18.34 0 0 1 5.85 3.3s3.4 4.68 1.31.8-7.85-5.69-7.85-5.69l-6.34-1c-7.33-1.11-10.27 8.26-10.27 8.26l.06 6.09c0 2.91 3.16 6.72 3.16 6.72z" transform="translate(-.98 -.52)"/><path class="a3a27d9e-b228-43c9-9602-b7000a2625eb" d="M166.1 100.5s2.49 2 3.81 2.36a18.69 18.69 0 0 0 3.31.3s5.21-.12 5.17-4.88c0-.44-.13-3.87-.13-3.87a7.59 7.59 0 0 0-1.12-3.31c-1.08-1.8 2 1.89 2.24 4.3a15.44 15.44 0 0 1 .1 3.65s-.82 3.36-2.77 4.27-2.23 1.25-3.54 1.05l-2.75-.42s-3.29-1.48-4.23-3-.09-.4-.09-.4z" transform="translate(-.98 -.52)"/><path class="e80b83eb-37a7-45d1-a124-61e7778a048a" d="m161.37 103.4-.75-.92-.86-1.9-.49-3.2 3.12 2.69 4.62 4.2 4.88 1.27 5.36-.55 2.7-2.34s1.35-3.42 1.42-3.44.64-5.57.64-5.57l-2.54-4.23-3.82-3.33-1.58-1.39.61-.33 1.56.55L178.6 86l1.8 1.44.46.43 1.39 1.8.5.49.39.3a15.91 15.91 0 0 1 1.14 4.09c.11 1.69 0 5.58 0 5.58s-1.35 5.69-4.38 6.69-.79 1.89-6.47 1.46c-4.15-.33-5.35-1-5.35-1s-4.32-1.4-5.7-2.83" transform="translate(-.98 -.52)"/><path id="a71c9f3d-cf76-435c-a6e9-be9053c94a58" data-name="e78db04e-f12c-45e3-8bea-8aa5d071e806" d="M183.19 95.51a13.16 13.16 0 0 0-9.48-11.41 43.71 43.71 0 0 0-5.41-.68c-8.36-.14-9.53 7-9.53 7v5.09c.09 8.3 10.68 11.09 10.68 11.09a11.77 11.77 0 0 0 4.29.66c7.14 0 9.44-7.19 9.44-7.19a17.64 17.64 0 0 0 .01-4.56zm-10.52 7.64-3.17-.48s-5.38-2-6.08-7.6a12.39 12.39 0 0 1 .19-3.56 6.14 6.14 0 0 1 5.74-4.41l3.18.49s5.25 1.91 5.73 6.79l.13 3.62s-.28 6-5.72 5.15z" transform="translate(-.98 -.52)" style="fill:url(#bfb9290b-1e18-4cec-b921-d206555267e2)"/><path class="aad6fe22-b56a-4059-9931-b97c79206ab4" d="m85.43 69.18 11 1.68-.17-11.09c-10.99-2.23-10.83 9.41-10.83 9.41zM97.44 59.93l10.4 1.57.16 11.12L97.61 71zm11.87 1.82 10.35 1.57.15 11.09-10.35-1.57zM124.6 64.05l-3.46-.53.14 11.1 10.45 1.59v-2.78c-.82-6.16-7.1-9.38-7.1-9.38zm-3.16 23.29 2.93.45c4.89.28 7.42-6.54 7.42-6.54V77.9l-10.45-1.59zM109.48 74.51l10.35 1.58.14 11-10.33-1.58zm-11.85-1.8L108 74.29l.15 11-10.35-1.56zm-12 9.29 11 1.59-.17-11-11-1.68zm.1 12.62 11.09 1.7-.17-11.1-11-1.68zm12.09-9.23 10.37 1.59.16 11L98 96.36zM93.68 108.3l.79.16 2.53.39-.16-11-11.09-1.8c1 10.14 7.93 12.23 7.93 12.23zM98.18 109l10.34 1.59-.15-11L98 98zm11.66-9.25.16 11.07 10.37 1.59-.21-11.08zM121.81 112.66l3.31.51c5.5-.36 6.95-6.85 6.95-6.85v-3.16l-10.38-1.59z" transform="translate(-.98 -.52)"/><path d="m99.75 62.72 6.21.94.1 6.65-6.21-.94zm11.69 1.77 6.07.93.09 6.43-6.07-.92zm17.43 6.26-2.09-3-3.34-1.4.08 6.45 5.91.9zM90.76 62.51c.07 0-1.9 1.87-1.9 1.87l-1 3 6.3 1-.16-6.53-.94-.14s-2.37.84-2.3.8zM87.93 73.4l6.29 1 .1 6.47-6.29-1zm12 1.83 5.76.87.1 6.75L100 82zm11.83 2 5.91.91.09 6.53-5.91-.9zm14.34 7.51 1.79-1.18 1.39-2 .22-1.64-5.91-1.11.08 6.48.88.14zm-38 1.34 6.29 1 .11 6.84-6.29-1zm12 2 5.76.88.09 6-5.76-.88zm-11.16 12.79 1.2 2.21 2.07 2 2.15.9-.09-6.24-6-.91zm11.37-.24 5.75.89.09 6.66-5.75-.88zm11.69 8 6.08.94-.08-6.25-6-.92zm11.86-4.26.08 6.29 1.91-.44 1.52-1 2-2.33.53-1.74z" transform="translate(-.98 -.52)"/><path class="a762dc82-edf4-40f7-b3d8-5d6bd193c1b0" d="m86.22 68 .62.1c1.3-8.4 8-7.25 8-7.25v-.6a7.68 7.68 0 0 0-4.83.92c-3.35 1.97-3.72 6.13-3.79 6.83zM97.78 60.25l-.34-.32v.35l.75.77.14 8.95h.36l-.12-8.65 8.16 1.21v-.45L98.56 61zm11.86 1.8-.33-.32v.35l.74.77.13 8.92h.36l-.12-8.65 8.18 1.21v-.45l-8.17-1.18zm.17 12.69-.33-.32v.35l.74.76.12 8.91h.37l-.12-8.64 8.16 1.22v-.45l-8.17-1.19zm12.65 2.5-.77-.7-.34-.32v.35l.75.77.11 8.91h.37l-.12-8.64 8.18 1.21v-.44zM98 73l-.34-.32V73l.74.76.13 8.91h.37l-.13-8.64 8.16 1.22v-.45l-8.16-1.19zm-11.71 7.77h.37l-.14-8.64 8.15 1.21V73l-8.15-1.19-.77-.69-.34-.33v.35l.74.77zm.19 12.72.37.05-.13-8.62 8.14 1.21v-.44l-8.15-1.19-.77-.69-.34-.32v.35l.74.76zm11.67-7.82-.33-.32v.35l.75.77.13 8.89h.36l-.12-8.63 8.15 1.27v-.44l-8.15-1.19zm.19 12.68L98 98v.35l.75.77.13 8.87h.36l-.13-8.61 8.15 1.23v-.45L99.12 99zm11.82 1.73-.33-.32v.35l.74.76.12 8.87.37.06-.12-8.61 8.15 1.22V102l-8.15-1.2zM122 101.9l-.33-.33v.35l.74.76.12 8.88h.36l-.11-8.61 8.16 1.23v-.45l-8.16-1.19zm-.09-37.33.12 9h.34l-.11-9.12-1.14-1 .06.34zM86.35 96.16l-.6-.09L87 97.5l8.45 1.3v-.39l-8.19-1.21zM124.65 110.69l.07.5 1.27.19a.27.27 0 0 0 .18 0c4.12-2.24 4.06-4.1 4.06-4.1v-.77l-.49-.07c-2.21 4-5.08 4.28-5.08 4.28z" transform="translate(-.98 -.52)"/></g></svg>