<svg id="bef1f774-842a-4be2-a9a3-c3f4c6babf1d" data-name="bae51f9f-9ab5-4723-91c1-5de94dc4635e" xmlns="http://www.w3.org/2000/svg" xmlns:xlink="http://www.w3.org/1999/xlink" viewBox="0 0 87.6 88.6"><defs><style>.a6821339-f102-4692-9d54-598cc42b5a6b,.e28aeeab-1969-4401-81c8-680c097e93da{fill:#211c1d;}.e9b9f610-7739-4ad0-a556-e4c6b33d24dc{opacity:0.1;}.aad5616b-b09f-40e2-ae0a-a8f29c1fe051{fill:#808094;}.b02da047-2535-4c59-9782-e006fff41bd0{fill:#6d6e6f;}.b1cb5412-f825-46cd-9e50-4b613cb1ac18{fill:url(#ab2382b2-7516-4040-b995-604087b15eca);}.e28aeeab-1969-4401-81c8-680c097e93da{opacity:0.3;}.b007ba9b-d4c5-4e53-8e9b-6909c1091c0f,.e28aeeab-1969-4401-81c8-680c097e93da,.f75bae43-da88-4c6f-9893-0faa6d67494b{isolation:isolate;}.b007ba9b-d4c5-4e53-8e9b-6909c1091c0f{opacity:0.15;fill:url(#f3206c7f-7ced-4722-8fe8-4413b4e7cc5f);}.f75bae43-da88-4c6f-9893-0faa6d67494b{opacity:0.4;fill:url(#a56954bf-841c-40ec-8374-8e86ccf3b2b1);}.a6bec4c7-8ddc-4618-ab44-8a581c429472{fill:#734200;}</style><linearGradient id="ab2382b2-7516-4040-b995-604087b15eca" x1="-747.89" y1="2455.81" x2="-768.82" y2="2434.88" gradientTransform="translate(802.18 -2401.52)" gradientUnits="userSpaceOnUse"><stop offset="0" stop-color="#a4a5a9"/><stop offset="1" stop-color="#e6e6e7"/></linearGradient><linearGradient id="f3206c7f-7ced-4722-8fe8-4413b4e7cc5f" x1="-768.76" y1="2455.8" x2="-747.88" y2="2434.93" gradientTransform="translate(802.18 -2401.52)" gradientUnits="userSpaceOnUse"><stop offset="0" stop-color="#211c1d" stop-opacity="0"/><stop offset="0.04" stop-color="#211c1d" stop-opacity="0.09"/><stop offset="0.5" stop-color="#211c1d"/><stop offset="0.95" stop-color="#211c1d" stop-opacity="0.09"/><stop offset="1" stop-color="#211c1d" stop-opacity="0"/></linearGradient><linearGradient id="a56954bf-841c-40ec-8374-8e86ccf3b2b1" x1="-5886.68" y1="-3866.42" x2="-5865.8" y2="-3887.31" gradientTransform="translate(-5832.48 -3833.03) rotate(180)" gradientUnits="userSpaceOnUse"><stop offset="0" stop-color="#fff" stop-opacity="0"/><stop offset="0.5" stop-color="#fff"/><stop offset="1" stop-color="#fff" stop-opacity="0"/></linearGradient></defs><circle class="a6821339-f102-4692-9d54-598cc42b5a6b" cx="43.8" cy="43.8" r="43.8"/><g class="e9b9f610-7739-4ad0-a556-e4c6b33d24dc"><path class="aad5616b-b09f-40e2-ae0a-a8f29c1fe051" d="M84.4,43.8l-8.6-8.9v4.3H66v9.1h9.8v4.3ZM72.5,15.1l-12.4-.2L63.2,18l-7,7,6.4,6.4,7-7,3.1,3.1ZM43.8,3.2l-8.9,8.6h4.3v9.8h9.1V11.8h4.3ZM15.1,15.1l-.2,12.4L18,24.4l7,7L31.4,25l-7-7,3.1-3.1ZM3.2,43.8l8.6,8.9V48.4h9.8V39.3H11.8V35ZM15.1,72.5l12.4.2-3.1-3.1,7-7L25,56.2l-7,7-3.1-3.1ZM43.8,84.4l8.9-8.6H48.4V66H39.3v9.8H35ZM72.5,72.5l.2-12.4-3.1,3.1-7-7-6.4,6.4,7,7-3.1,3.1Z" transform="translate(0 0)"/></g><path class="b02da047-2535-4c59-9782-e006fff41bd0" d="M87.6,44.3A43.81,43.81,0,0,1,0,44.3v.5a43.8,43.8,0,0,0,87.6,0Z" transform="translate(0 0)"/><circle class="b1cb5412-f825-46cd-9e50-4b613cb1ac18" cx="43.8" cy="43.8" r="14.8"/><circle class="e28aeeab-1969-4401-81c8-680c097e93da" cx="43.8" cy="43.8" r="11.8"/><path class="b007ba9b-d4c5-4e53-8e9b-6909c1091c0f" d="M43.8,29.1A14.75,14.75,0,1,0,58.6,43.9,14.75,14.75,0,0,0,43.8,29.1Zm-.2,28.7A14.15,14.15,0,1,1,57.8,43.7,14.16,14.16,0,0,1,43.6,57.8Z" transform="translate(0 0)"/><path class="f75bae43-da88-4c6f-9893-0faa6d67494b" d="M43.8,58.6A14.75,14.75,0,1,0,29,43.9,14.75,14.75,0,0,0,43.8,58.6ZM44,29.9a14.1,14.1,0,0,1,0,28.2h0A14,14,0,0,1,29.9,44.2h0V44h0A14.08,14.08,0,0,1,44,29.9Z" transform="translate(0 0)"/><circle class="a6bec4c7-8ddc-4618-ab44-8a581c429472" cx="43.6" cy="32.8" r="20.5"/></svg>