<svg id="e0883355-c357-4a4c-bf1e-a9dda19be693" data-name="bae51f9f-9ab5-4723-91c1-5de94dc4635e" xmlns="http://www.w3.org/2000/svg" xmlns:xlink="http://www.w3.org/1999/xlink" viewBox="0 0 87.6 88.6"><defs><style>.eab5e5af-3d2e-4d92-8a84-d4eea581bbb0,.fb60adaf-e86f-4645-9d60-009ce9065b4f{fill:#211c1d;}.a713398e-6018-43b1-9904-f127b3c28c56{opacity:0.1;}.f747f69f-59b5-4401-811e-7f937cd7d579{fill:#808094;}.a7f52575-bd96-4afc-9956-5c71974e0133{fill:#6d6e6f;}.bf4c119c-b1b2-4ffb-bb04-a83d340113e8{fill:url(#ebad1c35-5762-4e5b-83d4-623e03fa8648);}.fb60adaf-e86f-4645-9d60-009ce9065b4f{opacity:0.3;}.e448c4db-04f8-4f59-b29c-c5b617bbe555,.ed023478-111d-448e-b0f2-efd1e0653dfa,.fb60adaf-e86f-4645-9d60-009ce9065b4f{isolation:isolate;}.e448c4db-04f8-4f59-b29c-c5b617bbe555{opacity:0.15;fill:url(#bc93ace4-8636-48e2-a5b8-5d6c50dcc41d);}.ed023478-111d-448e-b0f2-efd1e0653dfa{opacity:0.4;fill:url(#fa35be76-5c61-4496-b53a-b2b2d66d2079);}.a08b7efb-e07e-4159-b3bf-b5c62f150910{fill:#9c9c9c;}</style><linearGradient id="ebad1c35-5762-4e5b-83d4-623e03fa8648" x1="-747.89" y1="2455.81" x2="-768.82" y2="2434.88" gradientTransform="translate(802.18 -2401.52)" gradientUnits="userSpaceOnUse"><stop offset="0" stop-color="#a4a5a9"/><stop offset="1" stop-color="#e6e6e7"/></linearGradient><linearGradient id="bc93ace4-8636-48e2-a5b8-5d6c50dcc41d" x1="-768.76" y1="2455.8" x2="-747.88" y2="2434.93" gradientTransform="translate(802.18 -2401.52)" gradientUnits="userSpaceOnUse"><stop offset="0" stop-color="#211c1d" stop-opacity="0"/><stop offset="0.04" stop-color="#211c1d" stop-opacity="0.09"/><stop offset="0.5" stop-color="#211c1d"/><stop offset="0.95" stop-color="#211c1d" stop-opacity="0.09"/><stop offset="1" stop-color="#211c1d" stop-opacity="0"/></linearGradient><linearGradient id="fa35be76-5c61-4496-b53a-b2b2d66d2079" x1="-5886.68" y1="-3866.42" x2="-5865.8" y2="-3887.31" gradientTransform="translate(-5832.48 -3833.03) rotate(180)" gradientUnits="userSpaceOnUse"><stop offset="0" stop-color="#fff" stop-opacity="0"/><stop offset="0.5" stop-color="#fff"/><stop offset="1" stop-color="#fff" stop-opacity="0"/></linearGradient></defs><circle class="eab5e5af-3d2e-4d92-8a84-d4eea581bbb0" cx="43.8" cy="43.8" r="43.8"/><g class="a713398e-6018-43b1-9904-f127b3c28c56"><path class="f747f69f-59b5-4401-811e-7f937cd7d579" d="M84.4,43.8l-8.6-8.9v4.3H66v9.1h9.8v4.3ZM72.5,15.1l-12.4-.2L63.2,18l-7,7,6.4,6.4,7-7,3.1,3.1ZM43.8,3.2l-8.9,8.6h4.3v9.8h9.1V11.8h4.3ZM15.1,15.1l-.2,12.4L18,24.4l7,7L31.4,25l-7-7,3.1-3.1ZM3.2,43.8l8.6,8.9V48.4h9.8V39.3H11.8V35ZM15.1,72.5l12.4.2-3.1-3.1,7-7L25,56.2l-7,7-3.1-3.1ZM43.8,84.4l8.9-8.6H48.4V66H39.3v9.8H35ZM72.5,72.5l.2-12.4-3.1,3.1-7-7-6.4,6.4,7,7-3.1,3.1Z" transform="translate(0 0)"/></g><path class="a7f52575-bd96-4afc-9956-5c71974e0133" d="M87.6,44.3A43.81,43.81,0,0,1,0,44.3v.5a43.8,43.8,0,0,0,87.6,0Z" transform="translate(0 0)"/><circle class="bf4c119c-b1b2-4ffb-bb04-a83d340113e8" cx="43.8" cy="43.8" r="14.8"/><circle class="fb60adaf-e86f-4645-9d60-009ce9065b4f" cx="43.8" cy="43.8" r="11.8"/><path class="e448c4db-04f8-4f59-b29c-c5b617bbe555" d="M43.8,29.1A14.75,14.75,0,1,0,58.6,43.9,14.75,14.75,0,0,0,43.8,29.1Zm-.2,28.7A14.15,14.15,0,1,1,57.8,43.7,14.16,14.16,0,0,1,43.6,57.8Z" transform="translate(0 0)"/><path class="ed023478-111d-448e-b0f2-efd1e0653dfa" d="M43.8,58.6A14.75,14.75,0,1,0,29,43.9,14.75,14.75,0,0,0,43.8,58.6ZM44,29.9a14.1,14.1,0,0,1,0,28.2h0A14,14,0,0,1,29.9,44.2h0V44h0A14.08,14.08,0,0,1,44,29.9Z" transform="translate(0 0)"/><circle class="a08b7efb-e07e-4159-b3bf-b5c62f150910" cx="43.6" cy="32.8" r="20.5"/></svg>