<svg xmlns="http://www.w3.org/2000/svg" xmlns:xlink="http://www.w3.org/1999/xlink" viewBox="0 0 470.58 67.66"><defs><style>.e7e1cd00-b721-4676-88f0-1ac01a8a777a{stroke:#9def48;stroke-miterlimit:10;fill:url(#efbfa3bb-f6c3-4ffb-af34-c9564b330b78);}.b5744141-5b41-42f5-ad3f-493b48f5209a{fill:#9def48;}.fb53207b-422d-40ed-9b28-c70afceb3483{fill:#565656;}.aa868a67-2ac0-42e6-aec8-7de391f2f60d{fill:#f9f9f9;}</style><linearGradient id="efbfa3bb-f6c3-4ffb-af34-c9564b330b78" x1="0.5" y1="33.83" x2="470.08" y2="33.83" gradientUnits="userSpaceOnUse"><stop offset="0" stop-color="#032c02"/><stop offset="1" stop-color="#207a09"/></linearGradient></defs><g id="bb1139d6-e098-4de4-903e-1bd9364e27c9" data-name="texte"><polygon class="e7e1cd00-b721-4676-88f0-1ac01a8a777a" points="0.5 6.04 102.57 6.04 108.7 0.5 150.44 0.5 158.35 6.04 461.77 6.24 470.08 16.13 470.08 59.84 50.94 59.84 42.83 67.16 8.02 67.16 0.5 59.84 0.5 6.04"/><path class="b5744141-5b41-42f5-ad3f-493b48f5209a" d="M70,41.11,66,45.18v-21H52.65V20.07H83.31v4.07H70Z"/><path class="b5744141-5b41-42f5-ad3f-493b48f5209a" d="M114.24,44.58H90.09a18.23,18.23,0,0,1-4.22-12.26,18.18,18.18,0,0,1,4.22-12.25h24.15a18.18,18.18,0,0,1,4.22,12.25A18.23,18.23,0,0,1,114.24,44.58Zm-2.17-4.07a16.45,16.45,0,0,0,2.32-8.19,16.39,16.39,0,0,0-2.32-8.18H92.28a16.32,16.32,0,0,0-2.34,8.18,16.38,16.38,0,0,0,2.34,8.19Z"/><path class="b5744141-5b41-42f5-ad3f-493b48f5209a" d="M128.68,37.76l-4.29,6.82h-5.07l15.57-24.51h4.68L155,44.58h-5l-4.24-6.82Zm14.56-4-6-9.59-6,9.59Z"/><path class="b5744141-5b41-42f5-ad3f-493b48f5209a" d="M187,34.34H160.42a17.46,17.46,0,0,0,2.2,6.17h2.7v4.07h-4.89a17.67,17.67,0,0,1-4.13-10.24h-3.85V30.29h3.85a17.59,17.59,0,0,1,4.13-10.22h24.15a18.13,18.13,0,0,1,4.22,12.25Zm-26.54-4.05H184.6a17.67,17.67,0,0,0-2.19-6.15H162.62A17.3,17.3,0,0,0,160.42,30.29Z"/><path class="b5744141-5b41-42f5-ad3f-493b48f5209a" d="M197.06,40.51h18.42l2.34,4.07H193v-21l4.07-4.07Z"/><path class="b5744141-5b41-42f5-ad3f-493b48f5209a" d="M229.75,37.76l-4.29,6.82h-5.07L236,20.07h4.69l15.45,24.51h-5l-4.24-6.82Zm14.56-4-6-9.59-6,9.59Z"/><path class="b5744141-5b41-42f5-ad3f-493b48f5209a" d="M263.35,24.14A16.32,16.32,0,0,0,261,32.32a16.38,16.38,0,0,0,2.34,8.19h2.7v4.07h-4.89a18.23,18.23,0,0,1-4.22-12.26,18.18,18.18,0,0,1,4.22-12.25h24.15a18.18,18.18,0,0,1,4.22,12.25,18.23,18.23,0,0,1-4.22,12.26h-4.89V40.51h2.72a16.45,16.45,0,0,0,2.32-8.19,16.39,16.39,0,0,0-2.32-8.18Z"/></g><g id="a5722991-e896-4935-8c66-cbe593481e91" data-name="toaplan"><path class="fb53207b-422d-40ed-9b28-c70afceb3483" d="M2.7,24.31H13.48V14.19C2.73,13.67,2.7,24.31,2.7,24.31Z"/><path class="fb53207b-422d-40ed-9b28-c70afceb3483" d="M14.62,14.17H24.78V24.31H14.62Zm11.59,0H36.32V24.31H26.21Z"/><path class="fb53207b-422d-40ed-9b28-c70afceb3483" d="M41.14,14.17H37.76V24.29H48V21.76c-.73-5.52-6.82-7.59-6.82-7.59ZM37.75,35.92h2.87c4.78-.43,7.33-7,7.33-7V25.84H37.75Z"/><path class="fb53207b-422d-40ed-9b28-c70afceb3483" d="M26.21,25.84H36.32V35.92H26.21Zm-11.59,0H24.78V35.92H14.62ZM2.7,36l10.78-.07V25.84H2.7ZM2.61,47.58H13.48V37.4H2.7Zm12-10.18H24.78V47.48H14.62Z"/><path class="fb53207b-422d-40ed-9b28-c70afceb3483" d="M10.22,59.08l.78,0h2.48V49l-10.87-.1c.79,9.2,7.61,10.14,7.61,10.14Z"/><path class="fb53207b-422d-40ed-9b28-c70afceb3483" d="M14.64,59.12H24.78V49H14.62ZM26.22,49V59.12H36.39L36.32,49Z"/><path class="fb53207b-422d-40ed-9b28-c70afceb3483" d="M37.8,59.12H41c5.41-1.11,6.9-7.28,6.9-7.28v-2.9H37.78Z"/><path d="M16.85,16.4h6.06v6.07H16.85Zm11.42,0h5.92v5.88H28.27Zm17,3.3-2-2.49L40,16.4v5.88h5.78Z"/><path d="M8,17.45c.07,0-1.89,2-1.89,2l-1,2.84h6.17V16.4h-.92S8,17.5,8,17.45Z"/><path d="M5.09,27.82h6.17v5.92H5.09Zm11.76,0h5.63V34H16.85ZM28.41,28h5.78v6H28.41Zm14,4.88,1.77-1.34,1.38-2L45.75,28,40,27.82v5.92h.86ZM5.09,39.43h6.17v6.26H5.09Zm11.76.19h5.63v5.55H16.85ZM5.67,52.91l1.14,1.86,2,1.53,2.1.52V51.09H5.09Zm11.18-1.82h5.63V57.2H16.85Zm11.37,5.73h6V51.09H28.34Zm11.69-5.59V57l1.88-.67,1.5-1.15,2-2.42.54-1.67Z"/><path class="aa868a67-2ac0-42e6-aec8-7de391f2f60d" d="M3.5,23.07h.61c1.4-7.86,8-7.75,8-7.75v-.54a8.88,8.88,0,0,0-4.75,1.51A9.66,9.66,0,0,0,3.5,23.07Z"/><path class="aa868a67-2ac0-42e6-aec8-7de391f2f60d" d="M15,14.42l-.33-.25v.32l.72.6v8.14h.36v-7.9l8,0v-.41l-8,.06Zm11.58,0-.32-.25v.32l.72.6v8.14h.36v-7.9l8,0v-.41l-8,.06Zm0,11.58-.32-.25v.32l.72.6v8.14h.36V26.9l8,0v-.41l-8,.05Zm12.35.52L38.13,26l-.32-.25v.32l.71.6v8.14h.36V26.9l8,0v-.41ZM15,26l-.33-.25v.32l.72.6v8.15h.36V27l8,0v-.4l-8,.05ZM3.37,34.81h.36V26.9l8,0v-.41l-8,.05L3,26l-.33-.25v.32l.72.6Zm0,11.66h.36v-7.9l8,0v-.4l-8,0L3,37.65l-.33-.25v.32l.72.6ZM15,37.65l-.33-.25v.32l.72.6v8.15h.36v-7.9l8,0v-.4l-8,0Zm0,11.61L14.62,49v.32l.72.6v8.14h.36v-7.9l8,0v-.41l-8,0Zm11.58-.07-.32-.25v.32l.72.6V58h.36V50.1l8,0v-.4l-8,0Zm11.6,0-.32-.25v.32l.71.6V58h.36V50.1l8,0v-.4l-8,0ZM38.51,15v8.22h.34V14.92l-1.1-.73.06.3ZM3.2,48.94H2.61l1.18,1.15h8.28v-.35l-8,0Z"/><path class="aa868a67-2ac0-42e6-aec8-7de391f2f60d" d="M40.6,56.91l.07.44h1.24a.35.35,0,0,0,.18-.05c4.06-2.65,4-4.35,4-4.35v-.7h-.48c-2.21,3.94-5,4.66-5,4.66Z"/></g></svg>