<svg id="ba2b2557-1d77-4299-b708-8d92fdfbba90" data-name="texte" xmlns="http://www.w3.org/2000/svg" xmlns:xlink="http://www.w3.org/1999/xlink" viewBox="0 0 470.33 67.41"><defs><style>.b24ee7af-70a4-4849-8928-c6e56bce5a76{stroke:#9def48;stroke-miterlimit:10;stroke-width:0.75px;fill:url(#aeb25c6f-718a-4532-b4a1-e00262da2ed3);}.ef9834e9-e491-4eee-9fc5-62e9b6955f34{fill:#9def48;}</style><linearGradient id="aeb25c6f-718a-4532-b4a1-e00262da2ed3" x1="0.38" y1="33.7" x2="469.96" y2="33.7" gradientUnits="userSpaceOnUse"><stop offset="0" stop-color="#032c02"/><stop offset="1" stop-color="#207a09"/></linearGradient></defs><polygon class="b24ee7af-70a4-4849-8928-c6e56bce5a76" points="0.38 5.91 102.44 5.91 108.57 0.38 150.31 0.38 158.22 5.91 461.65 6.11 469.96 16 469.96 59.72 50.81 59.72 42.7 67.03 7.89 67.03 0.38 59.72 0.38 5.91"/><path class="ef9834e9-e491-4eee-9fc5-62e9b6955f34" d="M59,36.92l-3.68,5.85H50.94l13.34-21h4l13.24,21H77.25l-3.63-5.85Zm12.48-3.47-5.13-8.22-5.17,8.22Z" transform="translate(-0.06 -0.03)"/><path class="ef9834e9-e491-4eee-9fc5-62e9b6955f34" d="M107,21.76l-13.25,21h-4l-13.33-21h4.35l11,17.53,10.93-17.53Z" transform="translate(-0.06 -0.03)"/><path class="ef9834e9-e491-4eee-9fc5-62e9b6955f34" d="M126.88,34h-14.5a14.88,14.88,0,0,0,1.89,5.29h17.25l2,3.49H112.39A15.13,15.13,0,0,1,108.85,34h-3.3V30.52h3.3a15,15,0,0,1,3.54-8.76h21.14l-2,3.49H114.27a14.66,14.66,0,0,0-1.89,5.27h14.5Z" transform="translate(-0.06 -0.03)"/><path class="ef9834e9-e491-4eee-9fc5-62e9b6955f34" d="M140.49,25.25a14,14,0,0,0-2,7,14,14,0,0,0,2,7h2.31v3.49h-4.19A15.65,15.65,0,0,1,135,32.26a15.57,15.57,0,0,1,3.62-10.5h20.7a15.57,15.57,0,0,1,3.62,10.5,15.65,15.65,0,0,1-3.62,10.51h-4.19V39.28h2.33a14.09,14.09,0,0,0,2-7,14,14,0,0,0-2-7Z" transform="translate(-0.06 -0.03)"/><path class="ef9834e9-e491-4eee-9fc5-62e9b6955f34" d="M180,39.79l-3.49,3.49v-18h-11.4V21.76H191.4v3.49H180Z" transform="translate(-0.06 -0.03)"/><path class="ef9834e9-e491-4eee-9fc5-62e9b6955f34" d="M199.09,39.28h17a14.06,14.06,0,0,0,2-7,14.08,14.08,0,0,0-2-7h-2.33V21.76h4.19a15.6,15.6,0,0,1,3.62,10.5,15.61,15.61,0,0,1-3.62,10.51h-20.7a15.61,15.61,0,0,1-3.62-10.51,15.6,15.6,0,0,1,3.62-10.5h4.19v3.49h-2.32a14.1,14.1,0,0,0-2,7A14.08,14.08,0,0,0,199.09,39.28Z" transform="translate(-0.06 -0.03)"/><path class="ef9834e9-e491-4eee-9fc5-62e9b6955f34" d="M247.81,39.28h2.33A15.05,15.05,0,0,0,252,34H231.29a15.28,15.28,0,0,0,1.89,5.29h2.32v3.49h-4.19A15.14,15.14,0,0,1,227.76,34h-3.29V30.52h3.29a15,15,0,0,1,3.55-8.76H252a15.05,15.05,0,0,1,3.55,8.77l-1.51.85v1.76l1.51.85A15.14,15.14,0,0,1,252,42.77h-4.19Zm-16.52-8.76H252a14.82,14.82,0,0,0-1.88-5.27h-17A15,15,0,0,0,231.29,30.52Z" transform="translate(-0.06 -0.03)"/><path class="ef9834e9-e491-4eee-9fc5-62e9b6955f34" d="M279.81,34H265.3a15.28,15.28,0,0,0,1.89,5.29h17.26l2,3.49H265.32A15.2,15.2,0,0,1,261.77,34h-3.29V30.52h3.29a15.09,15.09,0,0,1,3.55-8.76h21.14l-2,3.49H267.19a15,15,0,0,0-1.89,5.27h14.51Z" transform="translate(-0.06 -0.03)"/><path class="ef9834e9-e491-4eee-9fc5-62e9b6955f34" d="M313.06,39.79l-3.49,3.49v-18H298.18V21.76h26.28v3.49h-11.4Z" transform="translate(-0.06 -0.03)"/><path class="ef9834e9-e491-4eee-9fc5-62e9b6955f34" d="M346.15,34h-14.5a14.88,14.88,0,0,0,1.89,5.29h17.25l2,3.49H331.66A15.13,15.13,0,0,1,328.12,34h-3.3V30.52h3.3a15,15,0,0,1,3.54-8.76H352.8l-2,3.49H333.54a14.66,14.66,0,0,0-1.89,5.27h14.5Z" transform="translate(-0.06 -0.03)"/><path class="ef9834e9-e491-4eee-9fc5-62e9b6955f34" d="M380.87,42.77l-10.11-8.21-10.11,8.21H355l12.93-10.51L355,21.76h5.65L370.76,30l10.11-8.2h5.65l-12.93,10.5,12.93,10.51Z" transform="translate(-0.06 -0.03)"/><path class="ef9834e9-e491-4eee-9fc5-62e9b6955f34" d="M403.6,39.79l-3.48,3.49v-18h-11.4V21.76H415v3.49H403.6Z" transform="translate(-0.06 -0.03)"/><path class="ef9834e9-e491-4eee-9fc5-62e9b6955f34" d="M436.69,34h-14.5a14.88,14.88,0,0,0,1.89,5.29h17.26l2,3.49H422.2A15.13,15.13,0,0,1,418.66,34h-3.3V30.52h3.3a15,15,0,0,1,3.54-8.76h21.14l-2,3.49H424.08a14.66,14.66,0,0,0-1.89,5.27h14.5Z" transform="translate(-0.06 -0.03)"/></svg>