<svg xmlns="http://www.w3.org/2000/svg" xmlns:xlink="http://www.w3.org/1999/xlink" viewBox="0 0 746.51 822.18"><defs><radialGradient id="a23f64bb-e21a-4605-9238-bf7b06483338" cx="121.61" cy="382.1" r="5.66" gradientTransform="matrix(1 0 0 .6 0 152.84)" xlink:href="#bcb0a1bb-bb7e-4a4e-8e47-ac25013bdfe0"/><radialGradient id="b19d5119-3ee8-4e6d-b6c0-4a2f79bc672e" cx="217.55" cy="416.02" r="5.66" xlink:href="#fb3d2dd8-aa29-4613-bb26-feb6567e3520"/><radialGradient id="b186d3f7-fb7a-43af-90a6-8faefffd3062" cx="195.83" cy="370.99" r="11.47" xlink:href="#fb3d2dd8-aa29-4613-bb26-feb6567e3520"/><radialGradient id="bcb0a1bb-bb7e-4a4e-8e47-ac25013bdfe0" cx="92.36" cy="393.88" r="5.66" gradientTransform="matrix(1 0 0 .6 0 157.55)" gradientUnits="userSpaceOnUse"><stop offset="0" stop-color="#0000ef"/><stop offset=".15" stop-color="#0000e9"/><stop offset=".34" stop-color="#0101d9"/><stop offset=".56" stop-color="#0101be"/><stop offset=".79" stop-color="#02029a"/><stop offset="1" stop-color="#020282"/></radialGradient><radialGradient id="e624fa3f-ad1e-4c5d-8110-9785f5313648" cx="114.61" cy="393.88" r="5.66" xlink:href="#bcb0a1bb-bb7e-4a4e-8e47-ac25013bdfe0"/><radialGradient id="a889d08a-672b-4cb2-9360-0dbcc038f320" cx="133.17" cy="400.04" r="5.66" gradientTransform="matrix(1 0 0 .6 0 160.02)" xlink:href="#bcb0a1bb-bb7e-4a4e-8e47-ac25013bdfe0"/><radialGradient id="a9086a40-1dd2-484b-b630-221d2ce5cb13" cx="139.21" cy="387.78" r="5.66" gradientTransform="matrix(1 0 0 .6 0 155.11)" xlink:href="#bcb0a1bb-bb7e-4a4e-8e47-ac25013bdfe0"/><radialGradient id="fb3d2dd8-aa29-4613-bb26-feb6567e3520" cx="65.88" cy="348.77" r="11.47" gradientUnits="userSpaceOnUse"><stop offset="0" stop-color="#fd6d66"/><stop offset=".78" stop-color="#b50a03"/></radialGradient><radialGradient id="b630a449-b8d4-4e3b-869e-b1672d6359e1" cx="100.32" cy="382.53" r="5.66" gradientTransform="matrix(1 0 0 .6 0 153.01)" xlink:href="#bcb0a1bb-bb7e-4a4e-8e47-ac25013bdfe0"/><radialGradient id="b74f4ca3-8284-4243-ad95-cc288f7b2073" cx="225.51" cy="404.67" r="5.66" xlink:href="#fb3d2dd8-aa29-4613-bb26-feb6567e3520"/><radialGradient id="e2139e4e-dead-4f60-aa05-4829a8d72d0e" cx="246.79" cy="404.24" r="5.66" xlink:href="#fb3d2dd8-aa29-4613-bb26-feb6567e3520"/><radialGradient id="a2733b64-a3ac-4511-8e8b-2fa85da3e788" cx="264.4" cy="409.93" r="5.66" xlink:href="#fb3d2dd8-aa29-4613-bb26-feb6567e3520"/><radialGradient id="a9a57f33-0449-446c-a19b-6d33a2f2662d" cx="258.36" cy="422.19" r="5.66" xlink:href="#fb3d2dd8-aa29-4613-bb26-feb6567e3520"/><radialGradient id="ba2a19b0-9563-42eb-80da-e93ea77be5f6" cx="239.79" cy="416.02" r="5.66" xlink:href="#fb3d2dd8-aa29-4613-bb26-feb6567e3520"/><style>.b16660be-f4ad-44c6-a47a-78e8bcf2b3b9{fill:#373735}.e2325b0f-72d8-47b9-b1b2-4a5745856248{fill:#121211}.adacd003-2db8-483c-b089-80f46a59c73d,.bd339d36-16a6-498b-81e0-9fd3a41a59d5,.bf5a6f62-154f-4ebd-954d-5c004b5217b4,.e2325b0f-72d8-47b9-b1b2-4a5745856248,.fbb2e313-a027-494a-9254-c4e622c2036a{stroke:#b5b5b5}.a1283799-e2c5-466d-bfde-415a31fcc3a4,.adacd003-2db8-483c-b089-80f46a59c73d,.b6bed80e-a611-42b5-bd9b-71790292c342,.bd339d36-16a6-498b-81e0-9fd3a41a59d5,.bdfc6969-aae5-435f-92c6-eaf8ecca6923,.bf5a6f62-154f-4ebd-954d-5c004b5217b4,.e2325b0f-72d8-47b9-b1b2-4a5745856248,.fbb2e313-a027-494a-9254-c4e622c2036a{stroke-miterlimit:10}.a1283799-e2c5-466d-bfde-415a31fcc3a4,.adacd003-2db8-483c-b089-80f46a59c73d,.bd339d36-16a6-498b-81e0-9fd3a41a59d5,.bf5a6f62-154f-4ebd-954d-5c004b5217b4,.e2325b0f-72d8-47b9-b1b2-4a5745856248,.fbb2e313-a027-494a-9254-c4e622c2036a{stroke-width:.5px}.bdfc6969-aae5-435f-92c6-eaf8ecca6923{fill:#443840}.a1283799-e2c5-466d-bfde-415a31fcc3a4,.bdfc6969-aae5-435f-92c6-eaf8ecca6923{stroke:#090000}.bdfc6969-aae5-435f-92c6-eaf8ecca6923{stroke-width:.75px}.a1283799-e2c5-466d-bfde-415a31fcc3a4{fill:#6b0c05}.a5bcc03a-e615-4f78-b9ea-4a1880657677{fill:#86382f}.b6bed80e-a611-42b5-bd9b-71790292c342{stroke:#373737}.b257931f-9f98-4c07-89f3-bc7fe2febcb8{fill:red}.fbb2e313-a027-494a-9254-c4e622c2036a{fill:#dc6e05}.adacd003-2db8-483c-b089-80f46a59c73d{fill:#12e600}.bf5a6f62-154f-4ebd-954d-5c004b5217b4{fill:#0b47ce}.b992cb15-0954-49aa-bb66-7a4c04b76945,.bd339d36-16a6-498b-81e0-9fd3a41a59d5{fill:#282826}.eab1306d-0b6a-4b1a-9904-552b04a05dec{fill:#ae7a82}.b33b316b-7a4d-4925-ac7c-b302188b129d{fill:url(#fb3d2dd8-aa29-4613-bb26-feb6567e3520)}.aca68f6c-da53-4389-a4b2-621e13b0dd4f{fill:url(#b186d3f7-fb7a-43af-90a6-8faefffd3062)}.ffb12b87-e7fd-428b-9189-4a7595b2c56a{fill:#0000ef}.a22ea4c0-edc2-48dc-8708-3b55269e1294{fill:#930303}.a87f3368-e585-4a56-b7b0-d46cfb1ef4b8{fill:#e7e7e7}.a01ae5d9-365d-425f-a338-1f350982daa4{fill:#2c2b29}</style></defs><g id="be0c78a3-dcc9-4126-9c4a-6233dd008294" data-name="Calque 1"><path id="a45ad48c-74d6-46fd-9726-b5ea63ec8e95" data-name="ombre" style="opacity:.5;fill:#373735" d="m452.03 588.79 21.51-5.91H485.41l1.58 2.96 237.36 43.3h11.08l11.07 31.39-46.41 37.71-46.42 13.19-8.18-1.32.27-1.85-13.98-2.63-83.6 27.95-73.32 51.57-22.83 6.82-7.77-1.16v-2.63l-16.08-3.03-129.99 34.37 153.84-230.73z"/><g id="aab6b81f-74da-403c-81d8-de8988de6083" data-name="bottom"><path class="b16660be-f4ad-44c6-a47a-78e8bcf2b3b9" d="m36 454.56 224.9 39.62v4.35l25.72 6.13-.4 311.34-248.24-47.27L36 454.56z"/><path class="e2325b0f-72d8-47b9-b1b2-4a5745856248" d="m202 526.54-78.38-13.74c-3 .19-4.26 3.56-4.26 3.56l.2 85c.69 2.18 3.86 5 3.86 5l74.27 13.46c5.14.49 7.52-5.25 7.52-5.25v-82.69a7.12 7.12 0 0 0-3.21-5.34zm-49.9 22.55-18.69-3.46v-20l2.27-1.88 18.1 3.07-1.78 2.69zm31.45 6.13-18.69-3.46v-20l2.27-1.87 18.1 3.06-1.78 2.67z" transform="translate(-.98 -.52)"/><path class="bdfc6969-aae5-435f-92c6-eaf8ecca6923" d="m134.7 523.25-2.27 1.88v19.98l18.69 3.46-.1-19.58 1.78-2.67-18.1-3.07zM166.15 529.38l-2.27 1.88v19.98l18.69 3.46-.1-19.58 1.78-2.67-18.1-3.07z"/><path class="a1283799-e2c5-466d-bfde-415a31fcc3a4" d="M140.14 543.03v-12.85l8.01 1.78v12.56l-8.01-1.49zM171.2 548.87v-12.86l8.01 1.78v12.56l-8.01-1.48z"/><path d="M135.23 543.16v-15.23l2.05.4v15.16l-2.05-.33zM166.68 548.7v-15.23l2.04.4v15.16l-2.04-.33z"/><path class="a5bcc03a-e615-4f78-b9ea-4a1880657677" d="M140.4 530.69v-.35l7.47 1.8.01.43-7.48-1.88zM171.46 536.62v-.29l7.47 1.64.01.35-7.48-1.7z"/><circle cx="192.4" cy="574.85" r="4.25" style="fill:#8b8b8b;stroke-width:.75px;stroke:#090000;stroke-miterlimit:10"/><path class="b6bed80e-a611-42b5-bd9b-71790292c342" d="M136.29 598.71v-11.27l11.96 2.18v11.3l-11.96-2.21zM167.54 604.25v-11.27l11.96 2.17v10.88l-11.96-1.78z"/></g><g id="b5dcc867-0b30-4761-892d-966416b547a6" data-name="t molding"><path class="b257931f-9f98-4c07-89f3-bc7fe2febcb8" d="m11.46 450.59-.79-39.76L1 407.66v45.1l27.89 5.54c.59 103.55 1 207.6 1.58 311.15a6.18 6.18 0 0 0 3.53 2.19 12.58 12.58 0 0 0 5 0l-2-316.56zM272.36 497v-41.27l-10.28-1.19-.2 44.51 25.71 6.13s-1.51 313.85 0 315.69 8.77 1.32 8.77 1.32l.93-319.91z" transform="translate(-.98 -.52)"/><path class="b257931f-9f98-4c07-89f3-bc7fe2febcb8" d="m78.72 346.42-8.15-1.3 16.26-218.56 9.04 1.5-17.15 218.36zM329.24 388.85l9.1 1.28 18.49-224.31h-26.37l-.26-90.92-10.06-1.84v94.84l6.04 1.09h20.27l-17.21 219.86z"/><path class="b257931f-9f98-4c07-89f3-bc7fe2febcb8" d="M88.49 127.19s-28.17-.35-29.11-.85c0-31.21.06-62.83 0-94l9.36 2.64.48 89.02z" transform="translate(-.98 -.52)"/><g id="f5afb497-daba-46c2-818d-ea110035e64c" data-name="clair"><path class="b257931f-9f98-4c07-89f3-bc7fe2febcb8" d="m0 407.14 9.69 3.17L78 346.25l-8.11-1.94L0 407.14zM261.1 454.02l10.28 1.19 66.96-65.87-8.62-1.6-68.62 66.28zM111.56 0 58.42 31.78l9.36 2.64L120.36 3.3l2.74-1.62-2.57-.36L111.56 0zM383.74 40.62l-11.21-.8-52.39 33.24 10.06 1.84 53.54-34.28z"/></g></g><g id="b052329c-fc65-4d5c-aa33-64f31492e341" data-name="side"><path class="e2325b0f-72d8-47b9-b1b2-4a5745856248" d="m453.13 308.64.63-159.63-70.02-108.39L330.2 74.9l.26 90.92h26.37l-18.49 224.31-66.96 65.08v41.27l24.93 5.28-.93 319.91 8.25-6.32 149.65-543.7-.21 21.51-142.1 516.55-1.61 1.24 6.94-5.32 136.83-496.99zM324.06 799.15l-7.76 6.48 11.99-9.2 124.7-453.24.05-12.13-128.98 468.09zM335.43 790.95l-1.32 1.02 6.87-5.27 111.79-407.64v21.25l.22-57.12-.22 24-117.34 423.76zM343 785.15l108.58-83.28 1.18-299.85L347.4 781.78l-4.4 3.37z"/><path style="fill:#bf0000;stroke-width:.5px;stroke-miterlimit:10;stroke:#b5b5b5" d="m303.63 815.35 5.73-4.4-5.73 4.4z"/><path class="b257931f-9f98-4c07-89f3-bc7fe2febcb8" d="m453.07 293.16.21-21.51-149.65 543.7 5.73-4.4 1.61-1.24 142.1-516.55z"/><path class="fbb2e313-a027-494a-9254-c4e622c2036a" d="M453.13 330.74v-22.1l-.09 22.42.09-.32zM316.3 805.63z"/><path d="m453.04 331.06.09-22.42L316.3 805.63l7.76-6.48 128.98-468.09z"/><path class="adacd003-2db8-483c-b089-80f46a59c73d" d="M452.99 343.19zM328.29 796.43l5.82-4.46-5.82 4.46z"/><path style="fill:#fff" d="m334.11 791.97 1.32-1.02 117.34-423.76.22-24-124.7 453.24 5.82-4.46z"/><path class="bf5a6f62-154f-4ebd-954d-5c004b5217b4" d="m340.98 786.7 2.02-1.55-2.02 1.55zM452.77 402v-1.69l-.01 1.71.01-.02z"/><path class="b257931f-9f98-4c07-89f3-bc7fe2febcb8" d="m340.98 786.7 2.02-1.55 4.4-3.37 105.36-379.76.01-1.71v-21.25L340.98 786.7z"/></g><g id="fc60c7da-621e-4a78-88cb-a42583f62370" data-name="panel"><path class="bd339d36-16a6-498b-81e0-9fd3a41a59d5" d="m10.48 450.07 250.42 44.11.2-40.16L9.69 410.31l.79 39.76z"/><path class="b16660be-f4ad-44c6-a47a-78e8bcf2b3b9" d="m79.37 345.21-69.68 65.1 251.41 43.71 68.62-66.28-250.35-42.53z"/></g><g id="bd987bf5-43b9-4496-a80e-0218cced59bc" data-name="ecran"><path class="bd339d36-16a6-498b-81e0-9fd3a41a59d5" d="M96.84 129.36 79.7 347.72l250.52 42.43L347.82 168zm224.28 67.76c0 .2-.29.32-.48.49l-10.43 144.83a35.43 35.43 0 0 1-4.3 3.78l1.4.29v10.7s-1.4 4.75-11.08 2.64c-11.19-2.44-178.55-31.91-178.55-31.91l8.72-6.78v-1.39s-2.46.52-6-7l-12.48 2.77h-4l11.34-158.77s4-6.85 10.81-6.59 191.16 30.59 191.16 30.59 6.17 1.07 3.89 16.35z" transform="translate(-.98 -.52)"/><path d="M317.28 180S133 149.66 126.12 149.4s-10.81 6.6-10.81 6.6l-11.74 160.08h4.35l12.29-2.68c-.1-.23-.74-1.57-.85-1.8L131 166.54s2.11-5.54 7.12-7.38l177.49 27.16a20.77 20.77 0 0 1 5.11 9.76l-.05.75c.19-.17.62.66.66.47 3.23-14.06-4.05-17.3-4.05-17.3z" transform="translate(-.98 -.52)" style="fill:#151312"/><path d="m125.32 320-8.56 8s164.63 29.3 178.61 32.24c10.36 2.17 14.43-3.58 14.43-3.58l.61-7.37.39-7.71-4.89 3.84a20.85 20.85 0 0 1-7.73 3.87z" transform="translate(-.98 -.52)" style="fill:#555353"/><path d="M319.5 197.81c.45-.36.83-.69 1.14-1l.66-.52a20.31 20.31 0 0 0-5.72-10l-177.49-27.13c-5 1.84-7.12 7.38-7.12 7.38L119.36 311.6l.32.66c3.54 7.52 6.28 8 6.28 8l.44.08 171.78 28.93a20.85 20.85 0 0 0 7.73-3.87c2.57-1.91 4.89-3.84 4.89-3.84l10.5-145.29c-.44.46-1.05.96-1.8 1.54zM143.83 302.35z" transform="translate(-.98 -.52)" style="fill:#008aa6"/></g><g id="af887dd4-8146-40e9-a8fc-017b5a7c4c91" data-name="top"><path id="ae9c51f6-8773-4fee-b597-01b47c18b47f" data-name="marquee" class="bd339d36-16a6-498b-81e0-9fd3a41a59d5" d="m68.24 123.5 251.47 39.03.43-89.47L67.78 34.42l.46 89.08z"/><path style="stroke-miterlimit:10;stroke:#b5b5b5;fill:#373735" d="m128.84 2.64-5.74-.96-55.32 32.74 252.36 38.64 52.39-33.24L128.84 2.64z"/></g><g id="b8d1a82c-e4ed-4e54-b59d-d4424c7ae44f" data-name="stickp1"><path class="b992cb15-0954-49aa-bb66-7a4c04b76945" d="M68.92 377.27v5.16H62.4v-5.16c-5.06.64-8.77 2.7-8.77 5.16 0 3 5.38 5.35 12 5.35s12-2.39 12-5.35c.06-2.43-3.63-4.52-8.71-5.16z" transform="translate(-.98 -.52)"/><path class="eab1306d-0b6a-4b1a-9904-552b04a05dec" d="M68.92 377.27v-17.78a12.18 12.18 0 0 1-3 .39 12.4 12.4 0 0 1-3.48-.49v17.88a26.67 26.67 0 0 1 6.52 0z" transform="translate(-.98 -.52)"/><path class="eab1306d-0b6a-4b1a-9904-552b04a05dec" d="M68.92 382.43v-5.16a26.67 26.67 0 0 0-6.52 0v5.16z" transform="translate(-.98 -.52)"/><path class="b33b316b-7a4d-4925-ac7c-b302188b129d" d="M68.92 358.89v.6a11.24 11.24 0 0 0 8.77-10.72c0-6.14-5.29-11.11-11.81-11.11s-11.82 5-11.82 11.11a11.22 11.22 0 0 0 8.34 10.62v-.5z" transform="translate(-.98 -.52)"/><path class="eab1306d-0b6a-4b1a-9904-552b04a05dec" d="M68.92 359.49v-.6H62.4v.5a12.4 12.4 0 0 0 3.48.49 12.18 12.18 0 0 0 3.04-.39z" transform="translate(-.98 -.52)"/><path class="b33b316b-7a4d-4925-ac7c-b302188b129d" d="M68.92 359.49v-.6H62.4v.5a12.4 12.4 0 0 0 3.48.49 12.18 12.18 0 0 0 3.04-.39z" transform="translate(-.98 -.52)"/></g><g id="ab2d3cf1-e0da-4b01-81bb-1f2072df7fd0" data-name="stickp2"><path class="b992cb15-0954-49aa-bb66-7a4c04b76945" d="M198.88 399.49v5.16h-6.53v-5.16c-5 .64-8.77 2.7-8.77 5.16 0 3 5.39 5.35 12 5.35s12-2.39 12-5.35c.07-2.46-3.64-4.52-8.7-5.16z" transform="translate(-.98 -.52)"/><path class="eab1306d-0b6a-4b1a-9904-552b04a05dec" d="M198.88 399.49v-17.78a12.2 12.2 0 0 1-3 .39 12.83 12.83 0 0 1-3.48-.49v17.88a26.75 26.75 0 0 1 6.53 0z" transform="translate(-.98 -.52)"/><path class="eab1306d-0b6a-4b1a-9904-552b04a05dec" d="M198.88 404.65v-5.16a26.75 26.75 0 0 0-6.53 0v5.16z" transform="translate(-.98 -.52)"/><path class="aca68f6c-da53-4389-a4b2-621e13b0dd4f" d="M198.88 381.11v.6a11.24 11.24 0 0 0 8.77-10.71c0-6.14-5.29-11.11-11.82-11.11S184 364.85 184 371a11.22 11.22 0 0 0 8.34 10.62v-.5z" transform="translate(-.98 -.52)"/><path class="eab1306d-0b6a-4b1a-9904-552b04a05dec" d="M198.88 381.71v-.6h-6.53v.5a12.83 12.83 0 0 0 3.48.49 12.2 12.2 0 0 0 3.05-.39z" transform="translate(-.98 -.52)"/><path class="aca68f6c-da53-4389-a4b2-621e13b0dd4f" d="M198.88 381.71v-.6h-6.53v.5a12.83 12.83 0 0 0 3.48.49 12.2 12.2 0 0 0 3.05-.39z" transform="translate(-.98 -.52)"/></g><g id="b663a046-0782-4b8f-83ae-e60db354c3c8" data-name="boutons P1"><g id="bf37dd35-d2ed-402e-b95d-c67aae37112e" data-name="4"><path class="ffb12b87-e7fd-428b-9189-4a7595b2c56a" d="M92.54 389.14c-3.86 0-8.12 1.53-8.12 4.87 0 2.95 4.1 4.62 7.94 4.62 4.11 0 8-1.73 8-4.88-.04-2.35-3.88-4.61-7.82-4.61zm-.18 8.63c-3.86 0-7-1.74-7-3.89s3.13-3.89 7-3.89 7 1.74 7 3.89-3.14 3.89-7 3.89z" transform="translate(-.98 -.52)"/><path d="M92.36 390c-3.86 0-7 1.74-7 3.89s3.13 3.89 7 3.89 7-1.74 7-3.89-3.14-3.89-7-3.89z" transform="translate(-.98 -.52)" style="fill:url(#bcb0a1bb-bb7e-4a4e-8e47-ac25013bdfe0)"/></g><g id="a3b3a6b9-7a5e-4a2e-aced-c990b00e0281" data-name="5"><path class="ffb12b87-e7fd-428b-9189-4a7595b2c56a" d="M114.79 389.14c-3.86 0-8.12 1.53-8.12 4.87 0 2.95 4.1 4.62 7.94 4.62 4.11 0 8-1.73 8-4.88-.04-2.35-3.88-4.61-7.82-4.61zm-.18 8.63c-3.86 0-7-1.74-7-3.89s3.13-3.89 7-3.89 7 1.74 7 3.89-3.14 3.89-7 3.89z" transform="translate(-.98 -.52)"/><path d="M114.61 390c-3.86 0-7 1.74-7 3.89s3.13 3.89 7 3.89 7-1.74 7-3.89-3.14-3.89-7-3.89z" transform="translate(-.98 -.52)" style="fill:url(#e624fa3f-ad1e-4c5d-8110-9785f5313648)"/></g><g id="b96b1867-5690-40b5-87b4-a88032648180" data-name="6"><path class="ffb12b87-e7fd-428b-9189-4a7595b2c56a" d="M133.35 395.3c-3.86 0-8.13 1.53-8.13 4.87 0 3 4.11 4.62 7.95 4.62 4.1 0 8-1.73 8-4.88-.04-2.35-3.88-4.61-7.82-4.61zm-.18 8.63c-3.86 0-7-1.74-7-3.89s3.13-3.89 7-3.89 7 1.74 7 3.89-3.17 3.89-7 3.89z" transform="translate(-.98 -.52)"/><path d="M133.17 396.15c-3.86 0-7 1.74-7 3.89s3.13 3.89 7 3.89 7-1.74 7-3.89-3.17-3.89-7-3.89z" transform="translate(-.98 -.52)" style="fill:url(#a889d08a-672b-4cb2-9360-0dbcc038f320)"/></g><g id="b38a9c72-26a7-4e61-8ced-4b515ad8ad02" data-name="3"><path class="ffb12b87-e7fd-428b-9189-4a7595b2c56a" d="M139.39 383c-3.86 0-8.13 1.53-8.13 4.88 0 2.95 4.11 4.61 8 4.61 4.1 0 8-1.73 8-4.88-.09-2.31-3.93-4.61-7.87-4.61zm-.18 8.63c-3.86 0-7-1.74-7-3.89s3.13-3.89 7-3.89 7 1.75 7 3.89-3.14 3.93-7 3.93z" transform="translate(-.98 -.52)"/><path d="M139.21 383.89c-3.86 0-7 1.75-7 3.89s3.13 3.89 7 3.89 7-1.74 7-3.89-3.14-3.89-7-3.89z" transform="translate(-.98 -.52)" style="fill:url(#a9086a40-1dd2-484b-b630-221d2ce5cb13)"/></g><g id="a9c4b00e-5bdb-4289-8ad6-da443270e011" data-name="2"><path class="ffb12b87-e7fd-428b-9189-4a7595b2c56a" d="M121.79 377.35c-3.86 0-8.12 1.53-8.12 4.88 0 2.95 4.1 4.61 7.94 4.61 4.11 0 8-1.73 8-4.88-.04-2.34-3.88-4.61-7.82-4.61zm-.18 8.64c-3.86 0-7-1.74-7-3.89s3.13-3.89 7-3.89 7 1.74 7 3.89-3.14 3.9-7 3.9z" transform="translate(-.98 -.52)"/><path d="M121.61 378.21c-3.86 0-7 1.74-7 3.89s3.13 3.89 7 3.89 7-1.74 7-3.89-3.14-3.89-7-3.89z" transform="translate(-.98 -.52)" style="fill:url(#a23f64bb-e21a-4605-9238-bf7b06483338)"/></g><g id="fd8b335f-bf42-41f9-af8c-0db3bfd71199" data-name="1"><path class="ffb12b87-e7fd-428b-9189-4a7595b2c56a" d="M100.5 377.78c-3.86 0-8.13 1.53-8.13 4.88 0 2.95 4.11 4.62 7.95 4.62 4.1 0 8-1.73 8-4.88-.04-2.35-3.88-4.62-7.82-4.62zm-.18 8.64c-3.86 0-7-1.74-7-3.89s3.13-3.89 7-3.89 7 1.74 7 3.89-3.14 3.89-7 3.89z" transform="translate(-.98 -.52)"/><path d="M100.32 378.64c-3.86 0-7 1.74-7 3.89s3.13 3.89 7 3.89 7-1.74 7-3.89-3.14-3.89-7-3.89z" transform="translate(-.98 -.52)" style="fill:url(#b630a449-b8d4-4e3b-869e-b1672d6359e1)"/></g></g><g id="b3634d2b-e452-4ab0-9ac2-ba0d56da9ab9" data-name="boutons P2"><g id="e61c8979-732f-4e4f-b071-9967d6d559af" data-name="1"><path class="a22ea4c0-edc2-48dc-8708-3b55269e1294" d="M225.69 399.93c-3.86 0-8.13 1.53-8.13 4.87 0 2.95 4.11 4.62 7.95 4.62 4.1 0 8-1.73 8-4.88-.04-2.35-3.88-4.61-7.82-4.61zm-.18 8.63c-3.86 0-7-1.74-7-3.89s3.13-3.89 7-3.89 7 1.74 7 3.89-3.14 3.89-7 3.89z" transform="translate(-.98 -.52)"/><path d="M225.51 400.78c-3.86 0-7 1.74-7 3.89s3.13 3.89 7 3.89 7-1.74 7-3.89-3.14-3.89-7-3.89z" transform="translate(-.98 -.52)" style="fill:url(#b74f4ca3-8284-4243-ad95-cc288f7b2073)"/></g><g id="ffa75686-49db-4caf-af78-1e741b7ab375" data-name="2"><path class="a22ea4c0-edc2-48dc-8708-3b55269e1294" d="M247 399.49c-3.86 0-8.13 1.54-8.13 4.88 0 2.95 4.11 4.62 7.95 4.62 4.1 0 8-1.73 8-4.88-.07-2.35-3.91-4.62-7.82-4.62zm-.18 8.64c-3.86 0-7-1.74-7-3.89s3.13-3.89 7-3.89 7 1.74 7 3.89-3.17 3.89-7.03 3.89z" transform="translate(-.98 -.52)"/><path d="M246.79 400.35c-3.86 0-7 1.74-7 3.89s3.13 3.89 7 3.89 7-1.74 7-3.89-3.14-3.89-7-3.89z" transform="translate(-.98 -.52)" style="fill:url(#e2139e4e-dead-4f60-aa05-4829a8d72d0e)"/></g><g id="ae6c49fd-8f34-435a-a926-e267a1986fc2" data-name="3"><path class="a22ea4c0-edc2-48dc-8708-3b55269e1294" d="M264.58 405.18c-3.86 0-8.12 1.53-8.12 4.88 0 2.95 4.1 4.61 7.94 4.61 4.1 0 8-1.73 8-4.88-.04-2.35-3.88-4.61-7.82-4.61zm-.18 8.64c-3.86 0-7-1.75-7-3.89s3.13-3.89 7-3.89 7 1.74 7 3.89-3.14 3.89-7 3.89z" transform="translate(-.98 -.52)"/><path d="M264.4 406c-3.86 0-7 1.74-7 3.89s3.13 3.89 7 3.89 7-1.75 7-3.89-3.14-3.89-7-3.89z" transform="translate(-.98 -.52)" style="fill:url(#a2733b64-a3ac-4511-8e8b-2fa85da3e788)"/></g><g id="aa14aa18-6dcc-4b19-a817-f41849bda22b" data-name="4"><path class="a22ea4c0-edc2-48dc-8708-3b55269e1294" d="M258.54 417.44c-3.86 0-8.13 1.53-8.13 4.88 0 2.95 4.11 4.61 8 4.61 4.1 0 8-1.73 8-4.88-.09-2.35-3.93-4.61-7.87-4.61zm-.18 8.64c-3.86 0-7-1.75-7-3.89s3.13-3.89 7-3.89 7 1.74 7 3.89-3.14 3.89-7 3.89z" transform="translate(-.98 -.52)"/><path d="M258.36 418.3c-3.86 0-7 1.74-7 3.89s3.13 3.89 7 3.89 7-1.75 7-3.89-3.14-3.89-7-3.89z" transform="translate(-.98 -.52)" style="fill:url(#a9a57f33-0449-446c-a19b-6d33a2f2662d)"/></g><g id="e7233064-a58f-4806-871e-eb0ef9b34d50" data-name="5"><path class="a22ea4c0-edc2-48dc-8708-3b55269e1294" d="M240 411.28c-3.86 0-8.13 1.53-8.13 4.88 0 2.95 4.11 4.61 7.95 4.61 4.1 0 8-1.73 8-4.88-.07-2.35-3.91-4.61-7.82-4.61zm-.18 8.63c-3.86 0-7-1.74-7-3.89s3.13-3.89 7-3.89 7 1.75 7 3.89-3.17 3.89-7.03 3.89z" transform="translate(-.98 -.52)"/><path d="M239.79 412.13c-3.86 0-7 1.75-7 3.89s3.13 3.89 7 3.89 7-1.74 7-3.89-3.14-3.89-7-3.89z" transform="translate(-.98 -.52)" style="fill:url(#ba2a19b0-9563-42eb-80da-e93ea77be5f6)"/></g><g id="bfca3afb-66a9-495e-b339-ae48747d43e0" data-name="6"><path class="a22ea4c0-edc2-48dc-8708-3b55269e1294" d="M217.73 411.28c-3.86 0-8.13 1.53-8.13 4.88 0 2.95 4.11 4.61 8 4.61 4.1 0 8-1.73 8-4.88-.09-2.35-3.93-4.61-7.87-4.61zm-.18 8.63c-3.86 0-7-1.74-7-3.89s3.13-3.89 7-3.89 7 1.75 7 3.89-3.14 3.89-7 3.89z" transform="translate(-.98 -.52)"/><path d="M217.55 412.13c-3.86 0-7 1.75-7 3.89s3.13 3.89 7 3.89 7-1.74 7-3.89-3.14-3.89-7-3.89z" transform="translate(-.98 -.52)" style="fill:url(#b19d5119-3ee8-4e6d-b6c0-4a2f79bc672e)"/></g></g><path class="a87f3368-e585-4a56-b7b0-d46cfb1ef4b8" d="M228.57 237.19v.07l-5.92-1v-.08zM236.56 238.53a.13.13 0 0 0 0 .06l-5.72-1v-.06z" transform="translate(-.98 -.52)"/><path class="a01ae5d9-365d-425f-a338-1f350982daa4" d="m210.17 273.38-65.56-11c-.87-.14-.87-.14-.74-.92.25-1.54.47-3.08.75-4.61.78-4.31 1.48-8.63 2.22-12.95.09-.48.22-1 .29-1.44 0-.18.12-.23.31-.19l.75.13 119.31 19.98a16.13 16.13 0 0 1 4.69 1.42 11.54 11.54 0 0 1 5.67 5.9 8.36 8.36 0 0 1 .63 3.88c0 .38-.08.76-.15 1.14l-1.56 9.36c-.07.39-.13.42-.54.36l-40.11-6.72zm14.68-7.7c-.4 2.35-.79 4.71-1.19 7.07 0 .23 0 .34.3.38 1 .15 1.95.32 2.93.49.51.09.51.09.59-.37q.69-4.22 1.4-8.43c0-.08 0-.21.12-.22s.13.1.17.17c1.69 3.14 3.43 6.26 5.06 9.42a2.38 2.38 0 0 0 3.55.6c.9-.94 1.91-1.79 2.87-2.68l4.89-4.53c.08-.07.15-.22.26-.17s0 .2 0 .31v.12c-.47 2.79-.93 5.58-1.4 8.37 0 .25 0 .35.31.4 1 .16 2 .32 3.06.51.34.07.45 0 .49-.32l2.32-13.83a1.32 1.32 0 0 0-.25-1 2.34 2.34 0 0 0-3.26-.37l-2.16 2-8.12 7.4c-.25.23-.28.22-.45-.08-2.2-4.06-4.42-8.11-6.61-12.17a2.14 2.14 0 0 0-1.43-1.06A1.74 1.74 0 0 0 226 259zm-4.51-.71c.38-2.31.76-4.61 1.16-6.92a1.32 1.32 0 0 0-.45-1.21 2.4 2.4 0 0 0-3.17 0c-2.39 2.24-4.82 4.43-7.24 6.63l-2.95 2.7c-.13.12-.23.25-.37 0l-3.44-6.31c-1.1-2-2.19-4-3.3-6a2.24 2.24 0 0 0-2.21-1 1.52 1.52 0 0 0-1.5 1.37q-1.16 6.86-2.3 13.71c0 .28.05.37.35.41 1 .15 2 .32 3 .5.44.07.45.08.51-.3.46-2.73.91-5.46 1.37-8.19 0-.13 0-.27.06-.4s0-.16.11-.17.1.08.13.14.18.34.28.51c1.63 3 3.29 6 4.88 9.07a2.34 2.34 0 0 0 3.35.6c.47-.47 1-.91 1.48-1.37l6.5-6c.06-.05.09-.14.19-.11s.07.14.06.22c-.14.81-.28 1.62-.41 2.44-.35 2.06-.69 4.13-1 6.2 0 .22 0 .32.29.36l3 .5c.44.07.45.07.52-.31q.51-3.6 1.1-7.04zm33.15 5.67c-.38 2.28-.76 4.57-1.15 6.85-.06.31.06.41.38.45 1 .16 2 .32 3 .5.33.07.45 0 .5-.31.16-1 .35-2.08.51-3.12 0-.23.12-.33.4-.28l12.77 2.14c.33.05.39.18.34.45-.18 1-.34 2.08-.53 3.12-.05.25 0 .35.32.4 1 .15 2 .32 3 .49.45.07.46.07.53-.34l1.22-7.32a6.88 6.88 0 0 0-2.51-6.52 12.61 12.61 0 0 0-6.36-3c-2.38-.41-4.76-.8-7.13-1.19-.72-.12-1.45-.26-2.17-.35a1.6 1.6 0 0 0-1.91 1.29c-.46 2.27-.83 4.5-1.21 6.74zm-62.24-10.42 1.14-6.79a1.24 1.24 0 0 0 0-.47 1.91 1.91 0 0 0-1.63-1.33c-1.55-.26-3.1-.53-4.65-.77-1.84-.3-3.66-.71-5.51-.87a11.55 11.55 0 0 0-7 1.39 6.55 6.55 0 0 0-3.37 4.67q-.63 3.74-1.25 7.47c-.07.4-.07.4.36.47 1 .17 2 .32 2.93.5.33.06.45 0 .5-.31.15-1 .34-2.06.5-3.09 0-.29.17-.35.48-.3l12.67 2.12c.34 0 .42.16.37.46-.19 1-.35 2.08-.54 3.11 0 .26 0 .36.32.4 1 .16 2 .32 3 .51.33.06.44 0 .49-.32.42-2.28.81-4.57 1.19-6.85zm-38.3 1 6.47 1.08a7.76 7.76 0 0 0 2.76 0 3.93 3.93 0 0 0 3.34-2.92c.64-3.78 1.26-7.55 1.9-11.33.05-.27 0-.37-.33-.42-1-.15-2-.32-3-.5-.36-.07-.46 0-.51.33q-.92 5.58-1.86 11.15a1.08 1.08 0 0 1-1.24.95 4.41 4.41 0 0 1-.73-.08c-1-.18-2-.37-3.06-.54l-7-1.15c-.28-.05-.35-.15-.31-.38.11-.59.19-1.18.31-1.76.06-.28 0-.4-.35-.45-.84-.13-1.68-.26-2.52-.42-.34-.07-.44 0-.49.32-.24 1.49-.49 3-.74 4.45-.07.42-.07.42.42.5zM230.83 237.63l5.72 1c.15.09.15.2.13.35-.37 2.17-.73 4.34-1.11 6.51 0 .29 0 .38.34.43 3.09.5 6.18 1 9.27 1.54.32.05.34.16.31.44-.06.67-.23 1.33-.32 2-.22 1.55-.54 3.09-.8 4.63-.1.59-.17 1.19-.26 1.78 0 .2-.12.31-.4.26L228.57 254c-.65-.11-.65-.11-.56-.68q1.29-7.69 2.57-15.38c.02-.15.02-.31.25-.31zm3.94 12.7c-.13.78-.25 1.56-.39 2.34-.05.27 0 .38.33.43 1.06.16 2.11.34 3.16.53.32.06.44 0 .49-.31.25-1.55.51-3.1.78-4.66 0-.24 0-.34-.31-.38q-1.62-.25-3.24-.54c-.28-.05-.39 0-.43.27-.16.78-.26 1.55-.39 2.32zM255.63 249.17c2.55.43 5.09.86 7.64 1.27.34.06.42.17.37.47q-.7 4.14-1.39 8.3c-.07.37-.1.4-.52.33L246.38 257c-.27-.05-.34-.16-.3-.39q.72-4.21 1.41-8.43c0-.28.18-.33.47-.28 2.55.44 5.11.86 7.67 1.29zm1.31 4.88c.14-.8.27-1.6.41-2.4 0-.23 0-.36-.3-.4l-3.44-.58c-.26 0-.38 0-.42.27l-.81 4.85c0 .25.05.36.33.41l3.37.56c.3.06.42 0 .46-.3.13-.8.27-1.6.4-2.41zM173.53 244.78l-7.64-1.27c-.31 0-.37-.15-.33-.42q.72-4.2 1.42-8.42c0-.25.13-.32.4-.27l15.36 2.6c.41.07.43.11.37.49-.26 1.55-.53 3.11-.78 4.66 0 .31-.17.37-.5.32-3.07-.53-6.15-1-9.22-1.55-.46-.08-.46-.08-.52.32s-.11.7-.19 1 0 .35.31.4c2.06.33 4.11.68 6.17 1l3.16.53c.32.05.42.17.37.44s-.14.74-.19 1.11-.18.38-.51.32zm.92-5.45c.56.1 1.13.18 1.69.29.25 0 .35 0 .38-.25 0-.39.12-.78.2-1.17 0-.21 0-.32-.26-.36l-3.41-.57c-.22 0-.33 0-.36.23q-.08.62-.18 1.23c0 .23.06.3.29.33.55.07 1.1.17 1.65.27zM211.28 241.75l7.64 1.28c.44.07.5.14.42.52-.43 2-.7 4-1.05 6-.14.74-.27 1.48-.37 2.23 0 .29-.15.37-.49.31-2.08-.36-4.17-.7-6.26-1l-9-1.51c-.42-.07-.43-.08-.37-.47.26-1.56.53-3.11.77-4.67 0-.32.18-.37.52-.31l9.16 1.54c.46.07.46.07.53-.33s.09-.67.17-1 0-.4-.36-.46c-2.34-.37-4.68-.77-7-1.16l-2.31-.38c-.24 0-.32-.12-.28-.34a10.85 10.85 0 0 0 .21-1.27c0-.27.16-.31.43-.26l5.37.9 2.27.38zm-1.15 7.25c.55.09 1.11.17 1.66.27.21 0 .33 0 .36-.21l.21-1.23c0-.19-.05-.29-.27-.33l-3.33-.56c-.24 0-.35 0-.38.24 0 .4-.11.79-.19 1.17-.05.23.05.33.29.37.52.07 1.1.17 1.65.28zM268.74 251.36c.87.15 1.74.31 2.62.44.31 0 .38.18.34.43-.08.4-.13.8-.21 1.2 0 .21 0 .3.27.34l3.36.56c.28 0 .38 0 .41-.27.06-.41.15-.82.2-1.23 0-.23.15-.27.37-.24l5.4.91c.21 0 .3.13.27.33-.08.43-.16.86-.22 1.29 0 .23-.16.29-.41.25-.44-.09-.89-.15-1.34-.24-.24 0-.33 0-.36.24-.05.4-.13.8-.19 1.2 0 .23-.15.3-.4.25-.47-.08-.94-.15-1.41-.24-.17 0-.24 0-.29.17-.13.44-.08.91-.25 1.34-.07.18.07.24.24.27l1.38.22c.28 0 .38.15.33.41s-.13.78-.21 1.17c0 .21.05.31.28.34l1.34.22c.25 0 .34.13.3.36-.09.42-.17.84-.22 1.27 0 .22-.15.27-.36.24l-.65-.11-4.62-.77c-.45-.08-.45-.08-.38-.49s.12-.76.19-1.14c.05-.21 0-.3-.27-.34l-3.44-.58c-.22 0-.29 0-.31.21-.06.4-.16.8-.19 1.21s-.19.37-.5.32l-4.72-.8c-1.16-.19-.93-.1-.8-1 0-.25.09-.49.12-.74s.16-.29.4-.25c.45.09.9.15 1.34.24.27.05.39 0 .42-.26s.14-.78.19-1.17.16-.31.41-.26c.46.09.92.15 1.37.24.21 0 .3 0 .32-.2.06-.43.13-.85.22-1.27 0-.21-.05-.28-.26-.31l-1.38-.23c-.24 0-.34-.12-.29-.36s.14-.78.21-1.17c0-.23 0-.35-.31-.38-.45-.06-.9-.15-1.35-.22-.25 0-.34-.14-.29-.37q.12-.63.21-1.26c0-.24.16-.29.4-.24zM222.64 236.28l5.92 1a.42.42 0 0 1 .05.36q-1.31 7.77-2.6 15.56c0 .28-.17.37-.48.31s-.88-.19-1.33-.26l-3.89-.62c-.46-.08-.45-.08-.39-.49q1.31-7.74 2.6-15.49c.02-.14 0-.28.12-.37zM191.71 247.82l-7.71-1.28c-.3 0-.4-.14-.35-.43q.72-4.2 1.41-8.4c0-.26.15-.32.42-.27l15.39 2.56c.31.05.42.18.36.45s-.11.72-.19 1.08-.13.41-.55.34l-4.16-.7-5.06-.85c-.28 0-.37 0-.41.25-.22 1.39-.46 2.78-.69 4.17a2.74 2.74 0 0 1 0 .28c-.11.6-.11.6.58.72l8.92 1.49c.42.07.45.11.39.5s-.15.72-.18 1.08-.19.35-.48.3c-.56-.11-1.12-.2-1.68-.29z" transform="translate(-.98 -.52)"/><path d="M291.07 282.1c-.25 1.47-.49 2.94-.74 4.41-.07.42-.07.42-.51.34l-4.27-.71c-.27 0-.37-.13-.3-.37s.07-.41.11-.62-.06-.27-.25-.29l-.49-.05c-.39-.06-.49 0-.51.37v.19c0 .43-.14.5-.63.42-1.39-.23-2.79-.47-4.19-.69-.32-.05-.4-.19-.36-.45.5-3 1-5.91 1.49-8.86.06-.36.14-.42.55-.33 2.95.58 5.92 1 8.87 1.52.52.09 1 .13 1.55.22s.47.1.4.52c-.24 1.46-.49 2.92-.73 4.38zm-8.37-.17 1.58.27c.22 0 .32 0 .35-.22.1-.59.2-1.19.31-1.79 0-.21-.06-.3-.29-.34l-3.13-.52c-.21 0-.31 0-.35.22-.08.59-.18 1.19-.29 1.79 0 .21 0 .31.27.34zm5.47-1.49c-.52-.08-1-.16-1.55-.26-.25-.05-.36 0-.39.24-.09.59-.19 1.19-.29 1.78-.05.23.05.29.28.33 1 .16 2 .33 3 .51.28.05.39 0 .43-.27.08-.56.17-1.13.28-1.69 0-.23 0-.35-.3-.39-.48-.08-.97-.17-1.46-.25z" transform="translate(-.98 -.52)" style="fill:#2785db"/><path d="M292.87 271.31c-.25 1.48-.5 3-.74 4.44-.07.38-.11.4-.52.34l-2.86-.48c-.41-.07-.49-.18-.43-.54.14-.85.28-1.71.43-2.56a.34.34 0 0 1 0-.1c.2-.63.12-.52.72-.43l1.48.25c.26 0 .4 0 .44-.25.09-.59.19-1.18.29-1.76 0-.21 0-.33-.3-.38l-8-1.34c-.26 0-.39.05-.42.28-.09.57-.19 1.14-.28 1.7 0 .23.05.36.31.41l3.06.52a.25.25 0 0 0 .33-.17 1.81 1.81 0 0 0 .12-.64c0-.19.11-.24.27-.29a.45.45 0 0 1 .2 0c.85.09.89.14.77.88-.21 1.26-.43 2.51-.63 3.77 0 .26-.17.34-.43.3l-5.43-.91c-.49-.08-.55-.15-.48-.58.49-3 1-5.91 1.48-8.87 0-.17.09-.23.28-.22s.55 0 .83.08l9.77 1.63c.55.09.55.1.47.6l-.72 4.32z" transform="translate(-.98 -.52)" style="fill:#44c047"/><path d="M289.84 254.78c1.75.29 3.49.59 5.24.87.3 0 .4.13.35.42-.51 3-1 5.95-1.49 8.92-.05.3-.16.38-.49.32-1.4-.25-2.8-.48-4.2-.71-.36-.06-.42-.15-.36-.47 0-.12.06-.23.08-.34.08-.47.08-.47-.46-.56h-.21c-.5-.08-.51-.08-.54.39 0 .18-.1.34-.11.52s-.18.19-.35.16l-4.44-.74c-.23 0-.32-.15-.29-.35.17-1 .35-2 .51-3.06 0-.28.23-.27.45-.23l1.83.3c.8.15 1.61.24 2.4.44.25.06.44 0 .48-.27.07-.57.17-1.14.28-1.7.05-.27 0-.38-.34-.43-1.42-.22-2.83-.47-4.24-.7-.29 0-.4-.12-.35-.4.18-1 .33-2 .48-3 0-.26.15-.33.44-.28 1.77.31 3.55.6 5.33.9zm1.49 6.43c.51.08 1 .16 1.54.26.22 0 .35 0 .39-.21.09-.61.19-1.22.3-1.82 0-.2 0-.32-.27-.35l-3.09-.52c-.22 0-.32 0-.35.21-.09.63-.2 1.25-.31 1.88 0 .18 0 .26.24.29z" transform="translate(-.98 -.52)" style="fill:#eb1416"/><path class="a01ae5d9-365d-425f-a338-1f350982daa4" d="m156.94 232.66 7.54 1.26c.53.09.53.09.45.57s-.13.7-.17 1-.16.33-.44.28l-9.3-1.57c-.33-.05-.41 0-.45.3-.35 2.17-.72 4.33-1.07 6.49-.05.31-.2.36-.51.31l-5.19-.87c-.3 0-.4-.14-.35-.42q.72-4.19 1.4-8.39c.05-.31.19-.34.48-.29z" transform="translate(-.98 -.52)"/><path class="a87f3368-e585-4a56-b7b0-d46cfb1ef4b8" d="M224.85 265.68 226 259a1.74 1.74 0 0 1 2.34-1.33 2.14 2.14 0 0 1 1.43 1.06c2.19 4.06 4.41 8.11 6.61 12.17.17.3.2.31.45.08l8.14-7.43 2.16-2a2.34 2.34 0 0 1 3.26.37 1.32 1.32 0 0 1 .25 1q-1.17 6.91-2.32 13.83c0 .29-.15.39-.49.32-1-.19-2-.35-3.06-.51-.3-.05-.36-.15-.31-.4.47-2.79.93-5.58 1.4-8.37v-.12c0-.04.11-.25 0-.31s-.18.1-.26.17l-4.89 4.53c-1 .89-2 1.74-2.87 2.68a2.38 2.38 0 0 1-3.55-.6c-1.63-3.16-3.37-6.28-5.06-9.42 0-.07-.06-.19-.17-.17s-.11.14-.12.22l-1.4 8.43c-.08.46-.08.46-.59.37-1-.17-1.95-.34-2.93-.49-.28 0-.34-.15-.3-.38.4-2.36.79-4.72 1.19-7.07zM220.34 265q-.59 3.46-1.16 6.95c-.07.38-.08.38-.52.31l-3-.5c-.27 0-.32-.14-.29-.36.36-2.07.7-4.14 1-6.2.13-.82.27-1.63.41-2.44 0-.08.06-.18-.06-.22s-.13.06-.19.11l-6.5 6c-.5.46-1 .9-1.48 1.37a2.34 2.34 0 0 1-3.35-.6c-1.59-3-3.25-6.05-4.88-9.07-.1-.17-.19-.34-.28-.51s-.05-.14-.13-.14-.1.1-.11.17 0 .27-.06.4c-.46 2.73-.91 5.46-1.37 8.19-.06.38-.07.37-.51.3-1-.18-2-.35-3-.5-.3 0-.4-.13-.35-.41q1.16-6.86 2.3-13.71a1.52 1.52 0 0 1 1.5-1.37 2.24 2.24 0 0 1 2.21 1c1.11 2 2.2 4 3.3 6l3.44 6.31c.14.27.24.14.37 0l2.95-2.7c2.42-2.2 4.85-4.39 7.24-6.63a2.4 2.4 0 0 1 3.17 0 1.32 1.32 0 0 1 .45 1.21c-.4 2.31-.78 4.61-1.16 6.92zM253.49 270.64c.38-2.24.75-4.47 1.13-6.7a1.6 1.6 0 0 1 1.91-1.29c.72.09 1.45.23 2.17.35 2.37.39 4.75.78 7.13 1.19a12.61 12.61 0 0 1 6.36 3 6.88 6.88 0 0 1 2.51 6.52q-.6 3.66-1.22 7.32c-.07.41-.08.41-.53.34-1-.17-2-.34-3-.49-.29 0-.37-.15-.32-.4.19-1 .35-2.08.53-3.12.05-.27 0-.4-.34-.45l-12.77-2.14c-.28-.05-.36 0-.4.28-.16 1-.35 2.08-.51 3.12-.05.3-.17.38-.5.31-1-.18-2-.34-3-.5-.32 0-.44-.14-.38-.45.39-2.28.77-4.57 1.15-6.85zM264 273l6.37 1.07c.3 0 .43 0 .46-.28s.08-.52.12-.78a4.27 4.27 0 0 0-1.54-4.2 8.48 8.48 0 0 0-4-1.85c-2.25-.43-4.52-.78-6.77-1.17-.34-.06-.36.12-.4.33q-.44 2.69-.9 5.37c0 .29 0 .4.36.46zM191.25 260.22c-.38 2.28-.77 4.57-1.14 6.85-.05.3-.16.38-.49.32-1-.19-2-.35-3-.51-.29 0-.36-.14-.32-.4.19-1 .35-2.08.54-3.11.05-.3 0-.41-.37-.46l-12.67-2.12c-.31-.05-.44 0-.48.3-.16 1-.35 2.05-.5 3.09 0 .3-.17.37-.5.31-1-.18-1.95-.33-2.93-.5-.43-.07-.43-.07-.36-.47q.62-3.74 1.25-7.47a6.55 6.55 0 0 1 3.37-4.67 11.55 11.55 0 0 1 7-1.39c1.85.16 3.67.57 5.51.87 1.55.24 3.1.51 4.65.77a1.91 1.91 0 0 1 1.59 1.37 1.24 1.24 0 0 1 0 .47l-1.14 6.79zm-10.67-1.14c2.11.35 4.22.7 6.33 1.07.32.05.44 0 .48-.29.3-1.81.6-3.63.91-5.44 0-.26 0-.37-.33-.42q-3-.48-6-1a11.11 11.11 0 0 0-3.77 0 4.85 4.85 0 0 0-3.81 2.54 7.49 7.49 0 0 0-.52 2c-.07.4-.07.41.4.48zM153 261.25l-7-1.17c-.49-.08-.49-.08-.42-.5.25-1.48.5-3 .74-4.45.05-.28.15-.39.49-.32.84.16 1.68.29 2.52.42.31.05.41.17.35.45-.12.58-.2 1.17-.31 1.76 0 .23 0 .33.31.38l7 1.15c1 .17 2 .36 3.06.54a4.41 4.41 0 0 0 .73.08 1.08 1.08 0 0 0 1.24-.95q.94-5.58 1.86-11.15c0-.3.15-.4.51-.33 1 .18 2 .35 3 .5.3.05.38.15.33.42-.64 3.78-1.26 7.55-1.9 11.33a3.93 3.93 0 0 1-3.34 2.92 7.76 7.76 0 0 1-2.76 0l-6.41-1.08z" transform="translate(-.98 -.52)"/><path class="a01ae5d9-365d-425f-a338-1f350982daa4" d="m264 273-6.33-1c-.34-.06-.41-.17-.36-.46q.47-2.68.9-5.37c0-.21.06-.39.4-.33 2.25.39 4.52.74 6.77 1.17a8.48 8.48 0 0 1 4 1.85 4.27 4.27 0 0 1 1.54 4.2c0 .26-.1.52-.12.78s-.16.33-.46.28zM180.58 259.08l-6.3-1.06c-.47-.07-.47-.08-.4-.48a7.49 7.49 0 0 1 .52-2 4.85 4.85 0 0 1 3.81-2.54 11.11 11.11 0 0 1 3.77 0q3 .51 6 1c.31.05.38.16.33.42-.31 1.81-.61 3.63-.91 5.44 0 .29-.16.34-.48.29-2.11-.37-4.22-.72-6.33-1.07z" transform="translate(-.98 -.52)"/></g><g id="aea2d426-257b-445f-ae1a-cc695e535b1d" data-name="be451f00-3084-498d-965c-daaa6e6d14e2"><path d="M222.41 142.76c-4.4-4.88-8.61-9.86-13.7-14.44a35.32 35.32 0 0 0-6.64-4.82 14.75 14.75 0 0 0-11.33-1.6 28 28 0 0 0-8.34 4.1q-5.78 3.9-11.38 7.93c-.81.58-1.41.51-2.5 0q-36.59-18.36-73.23-36.65c-1.2-.6-1.62-1.11-1.62-2.11q.14-8.31 0-16.64c0-1 .41-1.13 1.68-.94q101.29 15.54 202.69 31c1.62.24 1.82.65 1.8 1.69q-.12 8.16 0 16.34c0 1-.43 1.48-1.73 1.73q-36.48 7-72.87 14c-.69.13-1.57.05-2 .58zm15.42-33.61-19.37-2.91c-.59-.08-1.62-.64-1.62.35-.15 4.52 2 8.86 6.69 12.35a29.18 29.18 0 0 0 14.47 5.94c4.86.5 9.56.42 13.33-1.13a11.23 11.23 0 0 0 7.51-10.36c.06-1-.46-1.19-1.62-1.36-6.48-.92-12.94-1.91-19.37-2.88zm-84.51-13.09-19.76-3c-1.07-.16-1.59-.08-1.45.83.11.69-.22 1.38 0 2 1.57 4.43 4 8.55 9.51 11.61 8 4.39 16 5.61 23.88 3.39 1.42-.4 3-.7 3.95-1.61 2.64-2.44 4.54-5.15 4.75-8.64.07-1.12 0-1.56-1.73-1.8-6.39-.84-12.78-1.84-19.17-2.76z" transform="translate(-.98 -.52)" style="fill:#1b1b1b"/><path d="M73.93 47.08a8.16 8.16 0 0 1 4.26-3.15 12.74 12.74 0 0 1 11.86 3.35c2.77 3 2.3 6.38-1.12 8.41.14.47.77.6 1.17.87 3.55 2.38 4.89 5.14 4.35 8.15s-2.92 4.47-6.69 4.94a30.27 30.27 0 0 1-8.37-.59c-1.81-.27-3.62-.58-5.43-.88zm3.73 14v4.32c0 .5 0 .88.91 1a40.64 40.64 0 0 0 7.2.78c3.43-.06 5.66-2.18 5.07-4.83s-3-4.75-6.71-5.34c-1.74-.29-3.48-.51-5.22-.79-.94-.14-1.3 0-1.27.75.07 1.37 0 2.74 0 4.13zm0-10.21v1.78c0 .58.25.77.92.86 1.81.23 3.65.6 5.43.66 2.66.1 4.31-1.45 4.09-3.51s-2.33-3.66-4.92-4.21-5 .5-5.39 2.4a12.69 12.69 0 0 0-.13 2zm238.58 41.2c-.05 7.2-8 11.84-17.74 10.4s-18.13-8.78-18.09-15.9 8.18-11.91 17.95-10.45 17.85 8.5 17.88 15.77zM284.3 87.2c-.05 5.64 6.49 11.44 14.28 12.65s14-2.49 14.06-8.18-6.1-11.48-14-12.76h-.22c-8.06-1.27-14.15 2.3-14.16 8.32zM98.39 62.52v-7c.06-5.34 5.29-8.65 12.15-7.7S122.89 53.68 123 59c.12 5.17 0 10.3.06 15.46 0 1.29-1.08.8-2 .69s-2-.11-1.9-1.34c.13-2.5 0-5 .06-7.55 0-.8-.23-1.15-1.43-1.32q-7.15-1-14.31-2.15c-1.08-.16-1.38 0-1.36.79.06 2.53-.09 5 .06 7.57.08 1.27-.81 1-2 .9s-2-.36-1.9-1.52c.19-2.64.11-5.31.11-8.01zm12.13-1.61c1.08.17 2.16.36 3.24.49 1.79.19 4.23 1.22 5.18.49s.32-2.5.26-3.83c-.12-3.21-3.36-6.4-7.41-7.37-4.32-1-8.05.38-9.28 3.47-.54 1.43-.19 3-.35 4.51-.08.76.24 1.08 1.33 1.21 2.33.28 4.68.68 7.06 1zm96.4 27.15c-2.92 0-4.94-.62-6.72-2.74-3.32-4-7.07-7.75-10.67-11.64-.6.16-.3.58-.3.87 0 3.27-.1 6.52 0 9.8 0 1.17-.66 1.19-1.91.94-1.05-.22-2-.12-2-1.44.12-5.73 0-11.48.09-17.21.06-4.13 4.22-6.59 9.92-6 5.18.5 9.89 4 10.86 8.13.83 3.84-2.2 7-7.09 7.36-1 .07-2.1 0-3.44 0zm-4.18-18.59c0-2.82-3-5.6-6.87-6.2s-7 1.19-7 4 3 5.6 6.86 6.21h.1c3.79.6 6.89-1.21 6.91-4.01zm-42.12 1.62c0 3.23-.09 6.08 0 9 0 1.18-.64 1.2-1.89.93-1-.21-2.07-.07-2-1.42.12-5.18 0-10.4.08-15.58.09-5 4.95-8 11.52-7.23s12.12 4.93 12.94 9.67S177.89 75 171.6 75a17.37 17.37 0 0 1-11-3.88zM169 59.45c-4.72-.69-8.55 1.55-8.6 5s4.08 7.08 8.75 7.74 8.6-1.62 8.56-5.15-3.94-6.93-8.71-7.62zm-41.19 7.65v-7.13c.08-5.34 5.33-8.66 12.17-7.73S152.3 58 152.44 63.42c.13 5.16 0 10.3.06 15.45 0 1.3-1.08.8-2 .69s-1.91-.14-1.88-1.35q.15-7.78 0-15.6c-.08-4.6-6.16-8.69-11.58-7.76-3.7.64-5.43 2.63-5.45 5.55 0 5-.08 10 0 15 0 1.2-.59 1.24-2 1.06s-2-.55-1.92-1.69c.15-2.52.07-5.11.07-7.68zm83.08 9c0-3.77.07-7.52 0-11.29 0-1.08.42-1.27 1.81-1 3.9.66 7.8 1.26 11.7 1.76 1.62.2 1.55.79 1.5 1.58s.31 1.64-1.52 1.27c-2.75-.54-5.52-.83-8.27-1.29-1.05-.16-1.4 0-1.37.81.06 1.89.06 3.77 0 5.64 0 .79.34 1.06 1.38 1.2 2.62.35 5.25.85 7.86 1.14 1.76.19 1.35.94 1.38 1.64s.27 1.52-1.42 1.19c-2.48-.48-5-.75-7.46-1.16-1.22-.21-1.81-.15-1.76.93.12 2.4.08 4.76 0 7.12 0 .85.32 1.15 1.47 1.31 3.15.42 6.32 1 9.47 1.37 1.71.2 1.46.87 1.43 1.6s.36 1.52-1.36 1.23c-4.44-.75-8.88-1.4-13.32-2-1.3-.18-1.54-.54-1.52-1.43V76.14zm31.21-8.5a10.6 10.6 0 0 1 7.18 4.76c.29.48.64 1-.3 1s-1.62.82-2.63-.16a7 7 0 0 1-.5-.71A7.45 7.45 0 0 0 240 70a3.94 3.94 0 0 0-4 3c-.3 1.55.67 3 2.82 4.17a28.27 28.27 0 0 0 4.41 1.69c6.61 2.22 9.88 6.62 8.31 11.1-1.09 3-5.36 4.72-10.1 4-4.49-.67-8.63-3.68-9.74-6.9-.53-1.53 1.2-.9 2-1.17.95-.32 1.13.11 1.41.8a8.1 8.1 0 0 0 7.08 4.78c3 .22 5.51-1.09 6.06-3.23.55-2.44-1.11-4.85-4.51-6.31-1.68-.72-3.52-1.17-5.22-1.86-4.43-1.79-6.74-5.11-5.93-8.38.72-3 4.54-4.8 9.49-4.05zm26 18.76v9.35c0 1 .14 1.85-2 1.49-2-.34-1.9-1-1.89-2 .06-6.47 0-13 .1-19.42 0-1.27-.47-1.7-2.12-1.84s-3.24-.51-4.86-.69-1.18-.89-1.11-1.46-.63-1.57 1.08-1.31q8.88 1.36 17.74 2.66c1.87.28 1 1.14 1.14 1.77s.08 1.25-1.28 1c-1.67-.33-3.36-.46-5-.79-1.38-.28-1.85-.06-1.82 1 .03 3.39-.01 6.8-.02 10.21z" transform="translate(-.98 -.52)" style="fill:#fe0909"/><path d="m237.83 109.15 19.37 2.91c1.14.18 1.66.36 1.61 1.36a11.22 11.22 0 0 1-7.51 10.37c-3.78 1.54-8.44 1.63-13.32 1.12a29.07 29.07 0 0 1-14.46-5.91c-4.66-3.48-6.83-7.83-6.69-12.35 0-1 1-.43 1.62-.34 6.43.92 12.9 1.9 19.38 2.87zM153.3 96.08c6.39 1 12.77 2 19.16 2.84 1.75.24 1.8.67 1.73 1.79-.22 3.5-2.11 6.21-4.75 8.64-1 .92-2.53 1.22-3.95 1.62-7.89 2.22-15.86 1-23.88-3.39-5.55-3-7.94-7.18-9.51-11.61-.24-.67.1-1.36 0-2-.14-.91.35-1 1.45-.83l19.75 3z" transform="translate(-.98 -.52)" style="fill:#fdfdfd"/></g></svg>