<svg id="a2207f3b-3331-4cb8-860b-3c9379809157" data-name="a239eaf1-8294-4681-a69a-fb3ec2beb79f" xmlns="http://www.w3.org/2000/svg" xmlns:xlink="http://www.w3.org/1999/xlink" viewBox="0 0 87.6 88.6"><defs><style>.f13e1b3c-b859-4b81-b3fc-1e0f83991520,.f53f9010-a666-47e9-8c5b-be06815224bc{fill:#211c1d;}.a97d7e50-ff48-43bc-ad80-177996efc3fc{opacity:0.1;}.bd786872-d25e-46e5-91e3-23c1894bdc49{fill:#808094;}.b77f17bd-f5f5-44d4-88e6-0add8f1b3b24{fill:#6d6e6f;}.aa628344-c530-4351-ab75-4fc1a37540c9{fill:url(#e5f9a5d3-3566-45ef-b44a-74474c5f1974);}.f53f9010-a666-47e9-8c5b-be06815224bc{opacity:0.3;}.a84086de-99e8-4001-8fb5-6b2c47f88f4a,.b71b868f-977d-494b-8d12-b590bbd5932f,.f53f9010-a666-47e9-8c5b-be06815224bc{isolation:isolate;}.b71b868f-977d-494b-8d12-b590bbd5932f{opacity:0.15;fill:url(#bf68668c-48e1-4de5-9f08-932bae9c88dc);}.a84086de-99e8-4001-8fb5-6b2c47f88f4a{opacity:0.4;fill:url(#b975c588-85c2-4987-8e29-bfd5536df8a3);}.ae4f8771-9585-40a6-aff1-b96b378786ec{fill:red;}</style><linearGradient id="e5f9a5d3-3566-45ef-b44a-74474c5f1974" x1="-747.89" y1="1701.81" x2="-768.82" y2="1680.88" gradientTransform="translate(802.18 -1647.52)" gradientUnits="userSpaceOnUse"><stop offset="0" stop-color="#a4a5a9"/><stop offset="1" stop-color="#e6e6e7"/></linearGradient><linearGradient id="bf68668c-48e1-4de5-9f08-932bae9c88dc" x1="-768.76" y1="1701.8" x2="-747.88" y2="1680.93" gradientTransform="translate(802.18 -1647.52)" gradientUnits="userSpaceOnUse"><stop offset="0" stop-color="#211c1d" stop-opacity="0"/><stop offset="0.04" stop-color="#211c1d" stop-opacity="0.09"/><stop offset="0.5" stop-color="#211c1d"/><stop offset="0.95" stop-color="#211c1d" stop-opacity="0.09"/><stop offset="1" stop-color="#211c1d" stop-opacity="0"/></linearGradient><linearGradient id="b975c588-85c2-4987-8e29-bfd5536df8a3" x1="-4874.68" y1="-3112.42" x2="-4853.8" y2="-3133.31" gradientTransform="translate(-4820.48 -3079.03) rotate(180)" gradientUnits="userSpaceOnUse"><stop offset="0" stop-color="#fff" stop-opacity="0"/><stop offset="0.5" stop-color="#fff"/><stop offset="1" stop-color="#fff" stop-opacity="0"/></linearGradient></defs><circle class="f13e1b3c-b859-4b81-b3fc-1e0f83991520" cx="43.8" cy="43.8" r="43.8"/><g class="a97d7e50-ff48-43bc-ad80-177996efc3fc"><path class="bd786872-d25e-46e5-91e3-23c1894bdc49" d="M84.4,43.8l-8.6-8.9v4.3H66v9.1h9.8v4.3ZM72.5,15.1l-12.4-.2L63.2,18l-7,7,6.4,6.4,7-7,3.1,3.1ZM43.8,3.2l-8.9,8.6h4.3v9.8h9.1V11.8h4.3ZM15.1,15.1l-.2,12.4L18,24.4l7,7L31.4,25l-7-7,3.1-3.1ZM3.2,43.8l8.6,8.9V48.4h9.8V39.3H11.8V35ZM15.1,72.5l12.4.2-3.1-3.1,7-7L25,56.2l-7,7-3.1-3.1ZM43.8,84.4l8.9-8.6H48.4V66H39.3v9.8H35ZM72.5,72.5l.2-12.4-3.1,3.1-7-7-6.4,6.4,7,7-3.1,3.1Z" transform="translate(0 0)"/></g><path class="b77f17bd-f5f5-44d4-88e6-0add8f1b3b24" d="M87.6,44.3A43.81,43.81,0,0,1,0,44.3v.5a43.8,43.8,0,0,0,87.6,0Z" transform="translate(0 0)"/><circle class="aa628344-c530-4351-ab75-4fc1a37540c9" cx="43.8" cy="43.8" r="14.8"/><circle class="f53f9010-a666-47e9-8c5b-be06815224bc" cx="43.8" cy="43.8" r="11.8"/><path class="b71b868f-977d-494b-8d12-b590bbd5932f" d="M43.8,29.1a14.77,14.77,0,1,0,.06,0Zm-.2,28.7A14.15,14.15,0,1,1,57.8,43.7,14.16,14.16,0,0,1,43.6,57.8Z" transform="translate(0 0)"/><path class="a84086de-99e8-4001-8fb5-6b2c47f88f4a" d="M43.8,58.6A14.75,14.75,0,1,0,29,43.9,14.75,14.75,0,0,0,43.8,58.6ZM44,29.9a14.1,14.1,0,0,1,0,28.2h0A14,14,0,0,1,29.9,44.2V44h0A14.08,14.08,0,0,1,44,29.9Z" transform="translate(0 0)"/><circle class="ae4f8771-9585-40a6-aff1-b96b378786ec" cx="43.6" cy="32.8" r="20.5"/></svg>