<svg xmlns="http://www.w3.org/2000/svg" xmlns:xlink="http://www.w3.org/1999/xlink" viewBox="0 0 470.58 67.66"><defs><style>.f9e7fe6b-616f-4aff-bb47-42d6b6c5ce9e{stroke:#9def48;stroke-miterlimit:10;fill:url(#bd2baeb3-239f-42c3-b1c2-7ee1460def79);}.a0a0a315-ca0c-4baa-b142-283b02e48b84{fill:#9def48;}.a933a0b0-4f18-4237-850d-b34817b2746e{fill:#fff;}</style><linearGradient id="bd2baeb3-239f-42c3-b1c2-7ee1460def79" x1="0.5" y1="33.83" x2="470.08" y2="33.83" gradientUnits="userSpaceOnUse"><stop offset="0" stop-color="#032c02"/><stop offset="1" stop-color="#207a09"/></linearGradient></defs><g id="f4df025f-1d1d-408d-8f9d-d54aa24b779b" data-name="calque3"><polygon class="f9e7fe6b-616f-4aff-bb47-42d6b6c5ce9e" points="0.5 6.04 102.57 6.04 108.7 0.5 150.44 0.5 158.35 6.04 461.77 6.24 470.08 16.13 470.08 59.84 50.94 59.84 42.83 67.16 8.02 67.16 0.5 59.84 0.5 6.04"/><path class="a0a0a315-ca0c-4baa-b142-283b02e48b84" d="M88.07,34.34a17.68,17.68,0,0,1-4.14,10.24H59.78a17.67,17.67,0,0,1-4.13-10.24H51.8V30.29h3.85a17.59,17.59,0,0,1,4.13-10.22H83.93a17.63,17.63,0,0,1,4.14,10.24l-1.76,1v2.05ZM59.76,30.29H84a17.67,17.67,0,0,0-2.19-6.15H62A17.52,17.52,0,0,0,59.76,30.29Zm0,4.05A17.69,17.69,0,0,0,62,40.51H81.76A17.83,17.83,0,0,0,84,34.34Z"/><path class="a0a0a315-ca0c-4baa-b142-283b02e48b84" d="M98.29,37.76,94,44.58H88.92l15.57-24.51h4.68l15.45,24.51h-5l-4.23-6.82Zm14.56-4-6-9.59-6,9.59Z"/><path class="a0a0a315-ca0c-4baa-b142-283b02e48b84" d="M131.88,24.14a16.33,16.33,0,0,0-2.34,8.19,16.37,16.37,0,0,0,2.34,8.18h2.7v4.07H129.7a18.17,18.17,0,0,1-4.22-12.25,18.14,18.14,0,0,1,4.22-12.26h24.14a18.15,18.15,0,0,1,4.23,12.26,18.18,18.18,0,0,1-4.23,12.25H149V40.51h2.71A16.46,16.46,0,0,0,154,32.33a16.41,16.41,0,0,0-2.33-8.19Z"/><path class="a0a0a315-ca0c-4baa-b142-283b02e48b84" d="M196,34.34H169.45a17.46,17.46,0,0,0,2.2,6.17h2.7v4.07h-4.89a17.67,17.67,0,0,1-4.13-10.24h-3.85V30.29h3.85a17.59,17.59,0,0,1,4.13-10.22h24.15a18.14,18.14,0,0,1,4.22,12.26Zm-26.54-4.05h24.18a17.67,17.67,0,0,0-2.19-6.15H171.65A17.3,17.3,0,0,0,169.45,30.29Z"/><path class="a0a0a315-ca0c-4baa-b142-283b02e48b84" d="M228.41,40.51h2.72a17.6,17.6,0,0,0,2.18-6.17H209.13a17.66,17.66,0,0,0,2.2,6.17H214v4.07h-4.88A17.62,17.62,0,0,1,205,34.34h-3.84V30.29H205a17.53,17.53,0,0,1,4.14-10.22H233.3a17.62,17.62,0,0,1,4.13,10.24l-1.76,1v2.05l1.76,1a17.67,17.67,0,0,1-4.13,10.24h-4.89ZM209.13,30.29h24.18a17.44,17.44,0,0,0-2.18-6.15h-19.8A17.49,17.49,0,0,0,209.13,30.29Z"/><path class="a0a0a315-ca0c-4baa-b142-283b02e48b84" d="M265.73,34.34H248.81A17.49,17.49,0,0,0,251,40.51h20.13l2.34,4.07H248.83a17.68,17.68,0,0,1-4.14-10.24h-3.84V30.29h3.84a17.6,17.6,0,0,1,4.14-10.22h24.66l-2.34,4.07H251a17.33,17.33,0,0,0-2.21,6.15h16.92Z"/><path class="a0a0a315-ca0c-4baa-b142-283b02e48b84" d="M305.94,30.29l1.85,2a18.18,18.18,0,0,1-4.22,12.25H279.42a17.11,17.11,0,0,1-3.67-7.3h4.37a18.67,18.67,0,0,0,1.49,3.23H301.4a17.23,17.23,0,0,0,2.19-6.17H277.05l-1.85-2a18.25,18.25,0,0,1,4.22-12.26h24.15a17.11,17.11,0,0,1,3.67,7.3h-4.37a18.89,18.89,0,0,0-1.47-3.23H281.61a17.52,17.52,0,0,0-2.21,6.15Z"/><path class="a0a0a315-ca0c-4baa-b142-283b02e48b84" d="M327.72,41.11l-4.07,4.07v-21h-13.3V20.07H341v4.07H327.72Z"/><path class="a0a0a315-ca0c-4baa-b142-283b02e48b84" d="M372,44.58H347.8a18.17,18.17,0,0,1-4.22-12.25,18.14,18.14,0,0,1,4.22-12.26H372a18.19,18.19,0,0,1,4.22,12.26A18.22,18.22,0,0,1,372,44.58Zm-2.17-4.07a16.55,16.55,0,0,0,2.32-8.18,16.5,16.5,0,0,0-2.32-8.19H350a16.33,16.33,0,0,0-2.34,8.19A16.37,16.37,0,0,0,350,40.51Z"/></g><g id="a53155b5-e697-46f5-ad8d-f253d846529a" data-name="banpresto"><g id="f84692ba-8672-46e2-829c-aa3ed4b85a82" data-name="g1"><path id="a036ff5b-da2e-4f22-bce9-0f70f0ce0747" data-name="path1" class="a933a0b0-4f18-4237-850d-b34817b2746e" d="M36.27,31.13c-2.86,2.21-4.05,3.67-4.05,4.95s.71,2.17,3.56,4.63c.89.77,1.66,1.45,1.71,1.53s-.83,2.1-4.13,9l-4.23,8.88-3,0-3,0,.07-20.91c0-11.51.08-21,.09-21.16s0-1.57,0-3.19V12l3,0,3.05,0,4.13,8.89,4.19,9A8.3,8.3,0,0,1,36.27,31.13ZM31,24.73a4.64,4.64,0,0,0-2.19-2.64,5.67,5.67,0,0,0-2.18-.56h-.36v9.84h.45a4.73,4.73,0,0,0,4.43-3.8A6.13,6.13,0,0,0,31,24.73ZM31,44.85a4.54,4.54,0,0,0-4.23-3.52l-.54-.07v10h.3a5.69,5.69,0,0,0,1-.14A4.72,4.72,0,0,0,31,47.6a7.07,7.07,0,0,0,0-2.75ZM21.17,26a2.35,2.35,0,0,1-1.45,1.77c-.4.13-.48.1-.61-.28s-.08-.3.16-.38A1.58,1.58,0,0,0,18.86,24c-.92,0-1.44.5-1.75,1.69-.25,1-.56,1.46-1.15,1.75a2.1,2.1,0,0,1-3-1.35,2,2,0,0,1,.93-2.18l.37-.18.11.23c.16.35.13.47-.13.61a1.39,1.39,0,0,0-.44.54,1.09,1.09,0,0,0,.26,1.41,1.3,1.3,0,0,0,2.22-.74c.36-1.34.55-1.72,1.05-2.08a2.84,2.84,0,0,1,.63-.35,3.73,3.73,0,0,1,1.88,0A2.44,2.44,0,0,1,21.17,26ZM21,13.54a4.36,4.36,0,0,1-2.27,2.53,2.83,2.83,0,0,1-1.68.3,2.81,2.81,0,0,1-1.67-.3A4.18,4.18,0,0,1,13,12.26,4.29,4.29,0,0,1,14.5,9a4.15,4.15,0,0,1,6.27,1.42,2.86,2.86,0,0,1,.38,1.67A3.65,3.65,0,0,1,21,13.54Zm-.87-2.67A3.37,3.37,0,0,0,15,9.66a3.65,3.65,0,0,0-1.3,2.65,4.45,4.45,0,0,0,.2,1,2.32,2.32,0,0,0,.78,1.23,3,3,0,0,0,2.37,1,3.4,3.4,0,0,0,3.23-2.37,4.47,4.47,0,0,0,.13-1.06A2.41,2.41,0,0,0,20.14,10.87ZM17.7,64.81c-3.69,0-3.65,0-4.19-.62a1.92,1.92,0,0,1-.58-1.44,2,2,0,0,1,.61-1.53,1.93,1.93,0,0,1,2.61-.08l.28.28.19-.33a2.42,2.42,0,0,1,2.52-1c1.39.28,1.94,1.3,1.94,3.57v1.16Zm2.53-2.75A2,2,0,0,0,19.29,61a2.17,2.17,0,0,0-1.59.15c-.56.42-.63.63-.67,1.79L17,64h3.33v-.78a5.91,5.91,0,0,0-.1-1.13Zm-4,.4a1.52,1.52,0,0,0-1-1,1.29,1.29,0,0,0-1.4,1.81c.27.51.65.67,1.59.67h.83v-.6A6.74,6.74,0,0,0,16.2,62.46ZM18,45.33c-3,0-3.11,0-3.49-.24A2.81,2.81,0,0,1,13,42.56a2.72,2.72,0,0,1,1.26-2.4,2.78,2.78,0,0,1,4.24,1.73,1.93,1.93,0,0,1,.05,1.16,3.49,3.49,0,0,1-.4,1,5.16,5.16,0,0,0-.28.5s.72,0,1.6,0h1.61v.77Zm-.38-3.67a2.05,2.05,0,0,0-.67-.8,1.46,1.46,0,0,0-1.14-.29,1.58,1.58,0,0,0-1.12.26,2,2,0,0,0,0,3.44,2,2,0,0,0,2.53-.33A1.84,1.84,0,0,0,17.61,41.66Zm.19-3c-3.18,0-3.3-.06-3.68-.26a2.37,2.37,0,0,1-1-1.19,3.32,3.32,0,0,1,0-1.74,2.44,2.44,0,0,1,2.73-1.53,2.32,2.32,0,0,1,1.88,2,1.47,1.47,0,0,0,.08.47s.72-.56,1.57-1.25L21,33.79c.1-.07.12,0,.12.43v.52l-2,1.55-2,1.54,2,0,2,0v.8Zm-.93-2.91a1.55,1.55,0,0,0-1.51-1.06A1.64,1.64,0,0,0,13.7,35.9a1.67,1.67,0,0,0,1,1.9,1.22,1.22,0,0,0,1.24,0A1.56,1.56,0,0,0,16.87,35.73Zm.19-3h-4v-3.4h.85v2.64h2.45l0-1.24,0-1.24h.81v2.5h3V29h.85v3.69Zm.43-12.48H13.9v1.89h-.85V17.55h.85v1.89h7.18v.76ZM18,59l-3,0-.47-.25a2.83,2.83,0,0,1-1.58-2.54,2.58,2.58,0,0,1,.94-2.08c.79-.72,1-.76,4.3-.76H21v.76H18v4.07h3v.86Zm-1.66-4.9A2.49,2.49,0,0,0,14,55.22a1.85,1.85,0,0,0,.3,2.34,2.24,2.24,0,0,0,1.91.65H17V54.14Zm1.84-2c-3.32,0-3.51,0-4.3-.76a2.59,2.59,0,0,1-.94-2.09,2.79,2.79,0,0,1,1.58-2.53l.47-.25,3,0,3,0v.82H18.13c-2.76,0-2.88,0-3.25.2a2,2,0,0,0-1,2.69,2.8,2.8,0,0,0,1.23,1,15.18,15.18,0,0,0,3.13.13H21v.81Z"/></g></g></svg>