<svg id="ef465cd4-e2d2-453f-8138-f52ab756ab8d" data-name="Calque 1" xmlns="http://www.w3.org/2000/svg" xmlns:xlink="http://www.w3.org/1999/xlink" viewBox="0 0 88.59 232.8"><defs><style>.a343ca83-638c-46e3-b22b-25509b151f7c,.ab20f11e-dbcd-426c-82a0-81d3ed35a6d2{fill:#211c1d;}.bf88755d-0022-4ff5-818e-95d5c714ae34{opacity:0.1;}.ee7ec54b-65bd-48a8-96ea-1370898952b2{fill:#808094;}.a54aae3c-31f0-41de-90bd-c4f624f75ab2{fill:#6d6e6f;}.a45d0dc1-9120-453a-8f50-91271d47ad47{fill:url(#f8b89c83-a601-46b6-9152-d92322795d30);}.a343ca83-638c-46e3-b22b-25509b151f7c{opacity:0.3;}.a343ca83-638c-46e3-b22b-25509b151f7c,.b353c8f0-ff8d-4b50-af50-0c5d653b0be1,.b7f67931-93a9-4761-b44d-0219a1365cea{isolation:isolate;}.b353c8f0-ff8d-4b50-af50-0c5d653b0be1{opacity:0.15;fill:url(#f141d5d9-463b-4ac7-86b9-83455bd63f15);}.b7f67931-93a9-4761-b44d-0219a1365cea{opacity:0.4;fill:url(#b858c285-c037-41a5-bc01-0ae45e0e78d5);}.ff934dd9-3b23-44da-a6e5-aa0f33cc63d8{fill:#00499b;}.ee14c8da-dcf6-4221-a420-de2ddae9c6ce{fill:#0779ff;}.a9b1adb1-600a-44eb-8eea-238117872f7f{fill:#8a8a8a;}.a1c0acd8-56cb-471e-b195-63bea34befb5{fill:#fff;}</style><linearGradient id="f8b89c83-a601-46b6-9152-d92322795d30" x1="362.1" y1="-353.94" x2="341.14" y2="-332.98" gradientTransform="matrix(0, -1, -1, 0, -299.63, 395.42)" gradientUnits="userSpaceOnUse"><stop offset="0" stop-color="#a4a5a9"/><stop offset="1" stop-color="#e6e6e7"/></linearGradient><linearGradient id="f141d5d9-463b-4ac7-86b9-83455bd63f15" x1="341.21" y1="-353.94" x2="362.09" y2="-333.06" gradientTransform="matrix(0, -1, -1, 0, -299.63, 395.42)" gradientUnits="userSpaceOnUse"><stop offset="0" stop-color="#211c1d" stop-opacity="0"/><stop offset="0.04" stop-color="#211c1d" stop-opacity="0.09"/><stop offset="0.5" stop-color="#211c1d"/><stop offset="0.95" stop-color="#211c1d" stop-opacity="0.09"/><stop offset="1" stop-color="#211c1d" stop-opacity="0"/></linearGradient><linearGradient id="b858c285-c037-41a5-bc01-0ae45e0e78d5" x1="-4466.76" y1="2694.35" x2="-4445.88" y2="2715.23" gradientTransform="matrix(0, 1, 1, 0, -2660.92, 4500.08)" gradientUnits="userSpaceOnUse"><stop offset="0" stop-color="#fff" stop-opacity="0"/><stop offset="0.5" stop-color="#fff"/><stop offset="1" stop-color="#fff" stop-opacity="0"/></linearGradient></defs><circle class="ab20f11e-dbcd-426c-82a0-81d3ed35a6d2" cx="43.8" cy="43.8" r="43.8"/><g class="bf88755d-0022-4ff5-818e-95d5c714ae34"><path class="ee7ec54b-65bd-48a8-96ea-1370898952b2" d="M43.8,3.22l-8.89,8.59h4.34v9.83h9.1V11.81h4.34ZM15.1,15.1l-.21,12.37L18,24.4l7,7,6.43-6.44L24.39,18l3.08-3.07ZM3.22,43.8l8.59,8.89V48.35h9.83v-9.1H11.81V34.91ZM15.1,72.5l12.37.21-3.08-3.07,7-7-6.43-6.44L18,63.2l-3.07-3.07ZM43.8,84.38l8.89-8.59H48.35V66h-9.1v9.83H34.91ZM72.5,72.5l.21-12.37L69.64,63.2l-7-7-6.44,6.44,7,7-3.07,3.07ZM84.38,43.8l-8.59-8.89v4.34H66v9.1h9.83v4.34ZM72.5,15.1l-12.37-.21L63.2,18l-7,7,6.44,6.44,7-7,3.07,3.07Z" transform="translate(0 0)"/></g><path class="a54aae3c-31f0-41de-90bd-c4f624f75ab2" d="M44.29,0a43.8,43.8,0,0,1,0,87.59h.5a43.8,43.8,0,0,0,0-87.6Z" transform="translate(0 0)"/><circle class="a45d0dc1-9120-453a-8f50-91271d47ad47" cx="43.83" cy="43.8" r="14.82"/><circle class="a343ca83-638c-46e3-b22b-25509b151f7c" cx="43.83" cy="43.8" r="11.81"/><path class="b353c8f0-ff8d-4b50-af50-0c5d653b0be1" d="M29.11,43.77A14.76,14.76,0,1,0,43.87,29,14.76,14.76,0,0,0,29.11,43.77ZM57.83,44A14.15,14.15,0,1,1,43.69,29.8,14.15,14.15,0,0,1,57.83,44Z" transform="translate(0 0)"/><path class="b7f67931-93a9-4761-b44d-0219a1365cea" d="M58.63,43.77A14.76,14.76,0,1,0,43.87,58.53,14.76,14.76,0,0,0,58.63,43.77ZM29.9,43.58A14.15,14.15,0,1,1,44.05,57.73,14.15,14.15,0,0,1,29.9,43.58Z" transform="translate(0 0)"/><circle class="ff934dd9-3b23-44da-a6e5-aa0f33cc63d8" cx="32.85" cy="43.97" r="20.51"/><circle class="ff934dd9-3b23-44da-a6e5-aa0f33cc63d8" cx="27.19" cy="141.09" r="17.46"/><circle class="ee14c8da-dcf6-4221-a420-de2ddae9c6ce" cx="27.01" cy="141.09" r="13.88"/><circle class="ff934dd9-3b23-44da-a6e5-aa0f33cc63d8" cx="61.36" cy="196.3" r="17.45"/><circle class="a9b1adb1-600a-44eb-8eea-238117872f7f" cx="61.51" cy="196.3" r="13.88"/><circle class="ff934dd9-3b23-44da-a6e5-aa0f33cc63d8" cx="27.36" cy="178.07" r="17.45"/><circle class="a1c0acd8-56cb-471e-b195-63bea34befb5" cx="27.54" cy="178.07" r="13.88"/><circle class="ff934dd9-3b23-44da-a6e5-aa0f33cc63d8" cx="61.4" cy="121.99" r="17.46"/><circle class="ee14c8da-dcf6-4221-a420-de2ddae9c6ce" cx="61.57" cy="121.99" r="13.88"/><circle class="ff934dd9-3b23-44da-a6e5-aa0f33cc63d8" cx="61.1" cy="159.32" r="17.46"/><circle class="a1c0acd8-56cb-471e-b195-63bea34befb5" cx="61.28" cy="159.32" r="13.88"/><circle class="ff934dd9-3b23-44da-a6e5-aa0f33cc63d8" cx="27.62" cy="215.35" r="17.46"/><circle class="a9b1adb1-600a-44eb-8eea-238117872f7f" cx="27.77" cy="215.35" r="13.88"/></svg>