<svg id="a3a2d717-5e16-460e-9b7c-73f9944b64ea" data-name="bae51f9f-9ab5-4723-91c1-5de94dc4635e" xmlns="http://www.w3.org/2000/svg" xmlns:xlink="http://www.w3.org/1999/xlink" viewBox="0 0 87.6 88.6"><defs><style>.a6bd0583-828e-4270-a3b8-dc03f8f149dd,.eac8cde3-5712-41fb-9247-7bbb5d85980a{fill:#211c1d;}.e4ac9dca-d036-49d0-bb2c-4f9cdfd6545a{opacity:0.1;}.e9df31b5-5c8f-45c3-b918-cb19b2a68bb7{fill:#808094;}.eff70af0-e3b0-4e7d-b964-21eef87025b8{fill:#6d6e6f;}.f875b59e-1b8d-45e9-bd7e-0f612b4fbe6e{fill:url(#e806dba9-4347-4522-8f68-4e46bbad7a8a);}.eac8cde3-5712-41fb-9247-7bbb5d85980a{opacity:0.3;}.b4361824-a830-437f-82a4-4fe4bcdc680d,.b8c13ae6-06b1-4fca-baee-d9b6d4938095,.eac8cde3-5712-41fb-9247-7bbb5d85980a{isolation:isolate;}.b8c13ae6-06b1-4fca-baee-d9b6d4938095{opacity:0.15;fill:url(#aceca73c-fb08-4d59-af9f-d97137dcf73d);}.b4361824-a830-437f-82a4-4fe4bcdc680d{opacity:0.4;fill:url(#a061760c-124d-4342-8332-1c8ec5e1a617);}.b81a8e14-de1a-408c-b29c-1be686a44392{fill:#00499b;}</style><linearGradient id="e806dba9-4347-4522-8f68-4e46bbad7a8a" x1="-747.89" y1="2455.81" x2="-768.82" y2="2434.88" gradientTransform="translate(802.18 -2401.52)" gradientUnits="userSpaceOnUse"><stop offset="0" stop-color="#a4a5a9"/><stop offset="1" stop-color="#e6e6e7"/></linearGradient><linearGradient id="aceca73c-fb08-4d59-af9f-d97137dcf73d" x1="-768.76" y1="2455.8" x2="-747.88" y2="2434.93" gradientTransform="translate(802.18 -2401.52)" gradientUnits="userSpaceOnUse"><stop offset="0" stop-color="#211c1d" stop-opacity="0"/><stop offset="0.04" stop-color="#211c1d" stop-opacity="0.09"/><stop offset="0.5" stop-color="#211c1d"/><stop offset="0.95" stop-color="#211c1d" stop-opacity="0.09"/><stop offset="1" stop-color="#211c1d" stop-opacity="0"/></linearGradient><linearGradient id="a061760c-124d-4342-8332-1c8ec5e1a617" x1="-5886.68" y1="-3866.42" x2="-5865.8" y2="-3887.31" gradientTransform="translate(-5832.48 -3833.03) rotate(180)" gradientUnits="userSpaceOnUse"><stop offset="0" stop-color="#fff" stop-opacity="0"/><stop offset="0.5" stop-color="#fff"/><stop offset="1" stop-color="#fff" stop-opacity="0"/></linearGradient></defs><circle class="a6bd0583-828e-4270-a3b8-dc03f8f149dd" cx="43.8" cy="43.8" r="43.8"/><g class="e4ac9dca-d036-49d0-bb2c-4f9cdfd6545a"><path class="e9df31b5-5c8f-45c3-b918-cb19b2a68bb7" d="M84.4,43.8l-8.6-8.9v4.3H66v9.1h9.8v4.3ZM72.5,15.1l-12.4-.2L63.2,18l-7,7,6.4,6.4,7-7,3.1,3.1ZM43.8,3.2l-8.9,8.6h4.3v9.8h9.1V11.8h4.3ZM15.1,15.1l-.2,12.4L18,24.4l7,7L31.4,25l-7-7,3.1-3.1ZM3.2,43.8l8.6,8.9V48.4h9.8V39.3H11.8V35ZM15.1,72.5l12.4.2-3.1-3.1,7-7L25,56.2l-7,7-3.1-3.1ZM43.8,84.4l8.9-8.6H48.4V66H39.3v9.8H35ZM72.5,72.5l.2-12.4-3.1,3.1-7-7-6.4,6.4,7,7-3.1,3.1Z" transform="translate(0 0)"/></g><path class="eff70af0-e3b0-4e7d-b964-21eef87025b8" d="M87.6,44.3A43.81,43.81,0,0,1,0,44.3v.5a43.8,43.8,0,0,0,87.6,0Z" transform="translate(0 0)"/><circle class="f875b59e-1b8d-45e9-bd7e-0f612b4fbe6e" cx="43.8" cy="43.8" r="14.8"/><circle class="eac8cde3-5712-41fb-9247-7bbb5d85980a" cx="43.8" cy="43.8" r="11.8"/><path class="b8c13ae6-06b1-4fca-baee-d9b6d4938095" d="M43.8,29.1A14.75,14.75,0,1,0,58.6,43.9,14.75,14.75,0,0,0,43.8,29.1Zm-.2,28.7A14.15,14.15,0,1,1,57.8,43.7,14.16,14.16,0,0,1,43.6,57.8Z" transform="translate(0 0)"/><path class="b4361824-a830-437f-82a4-4fe4bcdc680d" d="M43.8,58.6A14.75,14.75,0,1,0,29,43.9,14.75,14.75,0,0,0,43.8,58.6ZM44,29.9a14.1,14.1,0,0,1,0,28.2h0A14,14,0,0,1,29.9,44.2h0V44h0A14.08,14.08,0,0,1,44,29.9Z" transform="translate(0 0)"/><circle class="b81a8e14-de1a-408c-b29c-1be686a44392" cx="43.6" cy="32.8" r="20.5"/></svg>