<svg id="a7e8733e-8151-4279-8e30-8f5556bfd434" data-name="bae51f9f-9ab5-4723-91c1-5de94dc4635e" xmlns="http://www.w3.org/2000/svg" xmlns:xlink="http://www.w3.org/1999/xlink" viewBox="0 0 87.6 88.6"><defs><style>.bb7961bb-a121-470e-b67b-0aaf12ab5fd9,.efd7a9c0-1e07-4a86-abb6-e8fd8dce07ca{fill:#211c1d;}.a57f7e0b-1a41-4b27-bbb5-2c1398312a61{opacity:0.1;}.a02ce9fa-ccc5-4f87-9b1d-d14a207f81b3{fill:#808094;}.e2c72cfc-6e18-46fa-866a-f37943a6662a{fill:#6d6e6f;}.ae061eac-0ab5-4a32-9687-2b4d5bf16d7e{fill:url(#b879fca4-d525-4bb5-a32a-934184ff429d);}.bb7961bb-a121-470e-b67b-0aaf12ab5fd9{opacity:0.3;}.bb1d5ef2-e5cc-44ba-9d03-a316315743d1,.bb7961bb-a121-470e-b67b-0aaf12ab5fd9,.bfc95ce0-ab82-47f0-aa27-7f0d44a40d0c{isolation:isolate;}.bfc95ce0-ab82-47f0-aa27-7f0d44a40d0c{opacity:0.15;fill:url(#fa5fae43-7c52-42fa-8820-f8e718874fc9);}.bb1d5ef2-e5cc-44ba-9d03-a316315743d1{opacity:0.4;fill:url(#b7549e6d-e05a-4d48-bc4f-b9c3c76e4a04);}.a284a526-67cc-4688-942f-d3cd3238e58e{fill:#8a8a8a;}</style><linearGradient id="b879fca4-d525-4bb5-a32a-934184ff429d" x1="-747.89" y1="2455.81" x2="-768.82" y2="2434.88" gradientTransform="translate(802.18 -2401.52)" gradientUnits="userSpaceOnUse"><stop offset="0" stop-color="#a4a5a9"/><stop offset="1" stop-color="#e6e6e7"/></linearGradient><linearGradient id="fa5fae43-7c52-42fa-8820-f8e718874fc9" x1="-768.76" y1="2455.8" x2="-747.88" y2="2434.93" gradientTransform="translate(802.18 -2401.52)" gradientUnits="userSpaceOnUse"><stop offset="0" stop-color="#211c1d" stop-opacity="0"/><stop offset="0.04" stop-color="#211c1d" stop-opacity="0.09"/><stop offset="0.5" stop-color="#211c1d"/><stop offset="0.95" stop-color="#211c1d" stop-opacity="0.09"/><stop offset="1" stop-color="#211c1d" stop-opacity="0"/></linearGradient><linearGradient id="b7549e6d-e05a-4d48-bc4f-b9c3c76e4a04" x1="-5886.68" y1="-3866.42" x2="-5865.8" y2="-3887.31" gradientTransform="translate(-5832.48 -3833.03) rotate(180)" gradientUnits="userSpaceOnUse"><stop offset="0" stop-color="#fff" stop-opacity="0"/><stop offset="0.5" stop-color="#fff"/><stop offset="1" stop-color="#fff" stop-opacity="0"/></linearGradient></defs><circle class="efd7a9c0-1e07-4a86-abb6-e8fd8dce07ca" cx="43.8" cy="43.8" r="43.8"/><g class="a57f7e0b-1a41-4b27-bbb5-2c1398312a61"><path class="a02ce9fa-ccc5-4f87-9b1d-d14a207f81b3" d="M84.4,43.8l-8.6-8.9v4.3H66v9.1h9.8v4.3ZM72.5,15.1l-12.4-.2L63.2,18l-7,7,6.4,6.4,7-7,3.1,3.1ZM43.8,3.2l-8.9,8.6h4.3v9.8h9.1V11.8h4.3ZM15.1,15.1l-.2,12.4L18,24.4l7,7L31.4,25l-7-7,3.1-3.1ZM3.2,43.8l8.6,8.9V48.4h9.8V39.3H11.8V35ZM15.1,72.5l12.4.2-3.1-3.1,7-7L25,56.2l-7,7-3.1-3.1ZM43.8,84.4l8.9-8.6H48.4V66H39.3v9.8H35ZM72.5,72.5l.2-12.4-3.1,3.1-7-7-6.4,6.4,7,7-3.1,3.1Z" transform="translate(0 0)"/></g><path class="e2c72cfc-6e18-46fa-866a-f37943a6662a" d="M87.6,44.3A43.81,43.81,0,0,1,0,44.3v.5a43.8,43.8,0,0,0,87.6,0Z" transform="translate(0 0)"/><circle class="ae061eac-0ab5-4a32-9687-2b4d5bf16d7e" cx="43.8" cy="43.8" r="14.8"/><circle class="bb7961bb-a121-470e-b67b-0aaf12ab5fd9" cx="43.8" cy="43.8" r="11.8"/><path class="bfc95ce0-ab82-47f0-aa27-7f0d44a40d0c" d="M43.8,29.1A14.75,14.75,0,1,0,58.6,43.9,14.75,14.75,0,0,0,43.8,29.1Zm-.2,28.7A14.15,14.15,0,1,1,57.8,43.7,14.16,14.16,0,0,1,43.6,57.8Z" transform="translate(0 0)"/><path class="bb1d5ef2-e5cc-44ba-9d03-a316315743d1" d="M43.8,58.6A14.75,14.75,0,1,0,29,43.9,14.75,14.75,0,0,0,43.8,58.6ZM44,29.9a14.1,14.1,0,0,1,0,28.2h0A14,14,0,0,1,29.9,44.2h0V44h0A14.08,14.08,0,0,1,44,29.9Z" transform="translate(0 0)"/><circle class="a284a526-67cc-4688-942f-d3cd3238e58e" cx="43.6" cy="32.8" r="20.5"/></svg>