<svg xmlns="http://www.w3.org/2000/svg" xmlns:xlink="http://www.w3.org/1999/xlink" viewBox="0 0 470.33 67.41"><defs><style>.a281f7f4-f4c2-48bb-b3ca-b8ff8be1bc97{stroke:#9def48;stroke-width:0.75px;fill:url(#aa3d2332-5933-4b66-bc5c-77c7928779af);}.a281f7f4-f4c2-48bb-b3ca-b8ff8be1bc97,.b07afd17-d281-4004-9524-1b201b3d2800,.beaf42b1-de84-488f-aa9c-1f62a4c86c35{stroke-miterlimit:10;}.a74b417c-3c82-452b-baa3-77c49952d60e{fill:#9def48;}.b07afd17-d281-4004-9524-1b201b3d2800{fill:#044a9b;}.b07afd17-d281-4004-9524-1b201b3d2800,.beaf42b1-de84-488f-aa9c-1f62a4c86c35{stroke:#fff;stroke-width:0.5px;}.beaf42b1-de84-488f-aa9c-1f62a4c86c35{fill:#054b9b;}</style><linearGradient id="aa3d2332-5933-4b66-bc5c-77c7928779af" x1="0.38" y1="33.7" x2="469.96" y2="33.7" gradientUnits="userSpaceOnUse"><stop offset="0" stop-color="#032c02"/><stop offset="1" stop-color="#207a09"/></linearGradient></defs><g id="a11ec5c9-1430-4004-a768-89623fa26c4d" data-name="texte"><polygon class="a281f7f4-f4c2-48bb-b3ca-b8ff8be1bc97" points="0.38 5.91 102.44 5.91 108.57 0.38 150.31 0.38 158.22 5.91 461.65 6.11 469.96 16 469.96 59.72 50.81 59.72 42.7 67.03 7.89 67.03 0.38 59.72 0.38 5.91"/><path class="a74b417c-3c82-452b-baa3-77c49952d60e" d="M86.79,20.56,71.32,45.07H66.64L51.09,20.56h5.07L69,41,81.78,20.56Z" transform="translate(-0.13 -0.13)"/><path class="a74b417c-3c82-452b-baa3-77c49952d60e" d="M94.27,45.07H90.21V24L94.27,20Z" transform="translate(-0.13 -0.13)"/><path class="a74b417c-3c82-452b-baa3-77c49952d60e" d="M130.14,30.78l1.85,2a18.21,18.21,0,0,1-4.22,12.26H103.62a17.11,17.11,0,0,1-3.67-7.3h4.37A19,19,0,0,0,105.81,41H125.6a17.3,17.3,0,0,0,2.19-6.17H101.25l-1.85-2a18.22,18.22,0,0,1,4.22-12.25h24.15a17.11,17.11,0,0,1,3.67,7.3h-4.37a18.55,18.55,0,0,0-1.47-3.23H105.81a17.33,17.33,0,0,0-2.21,6.15Z" transform="translate(-0.13 -0.13)"/><path class="a74b417c-3c82-452b-baa3-77c49952d60e" d="M163.08,37.77h4.37a17.11,17.11,0,0,1-3.67,7.3H139.63a18.2,18.2,0,0,1-4.22-12.26,18.17,18.17,0,0,1,4.22-12.25h24.15a17.11,17.11,0,0,1,3.67,7.3h-4.37a18.55,18.55,0,0,0-1.47-3.23H141.82a16.32,16.32,0,0,0-2.34,8.18A16.41,16.41,0,0,0,141.82,41h19.79A19.62,19.62,0,0,0,163.08,37.77Z" transform="translate(-0.13 -0.13)"/><path class="a74b417c-3c82-452b-baa3-77c49952d60e" d="M199.24,45.07H175.09a18.25,18.25,0,0,1-4.22-12.26,18.17,18.17,0,0,1,4.22-12.25h24.15a18.17,18.17,0,0,1,4.22,12.25A18.25,18.25,0,0,1,199.24,45.07ZM197.07,41a16.48,16.48,0,0,0,2.32-8.19,16.39,16.39,0,0,0-2.32-8.18H177.28a16.32,16.32,0,0,0-2.34,8.18A16.41,16.41,0,0,0,177.28,41Z" transform="translate(-0.13 -0.13)"/></g><g id="eb2cf9cf-59d7-44d9-aefe-309cd6629f24" data-name="visco"><path class="b07afd17-d281-4004-9524-1b201b3d2800" d="M19.05,14.44a6.21,6.21,0,0,1,3.21-5.22,5.58,5.58,0,0,1,5.95,0A6.76,6.76,0,0,1,31.12,17a6.22,6.22,0,0,1-6.34,4.57C21.59,21.4,19,18.47,19.05,14.44Zm6-1.46H22.53a2,2,0,1,0,0,4c1.77,0,3.55,0,5.32,0a1.94,1.94,0,0,0,2.09-2,2,2,0,0,0-2.14-2c-.9,0-1.8,0-2.7,0Z" transform="translate(-0.13 -0.13)"/><path class="beaf42b1-de84-488f-aa9c-1f62a4c86c35" d="M31.48,40.23A8.1,8.1,0,0,1,30.71,44c-.72,1.38-1.92,2-3,1.56a2.9,2.9,0,0,1-1.25-3.43c.24-.78.61-.88,1.21-.34s.9.81,1.57.52a1.9,1.9,0,0,0,1.11-1.58,2.44,2.44,0,0,0-.66-2.15A1.51,1.51,0,0,0,27,39.1c-.53,1.41-.92,2.87-1.41,4.29A3.29,3.29,0,0,1,23.3,45.6a3.36,3.36,0,0,1-4-3,5.5,5.5,0,0,1,.42-3.5,2.7,2.7,0,0,0-.07-2.88c-.29-.42-.12-.68.37-.74a2.7,2.7,0,0,1,2.74,1.85A1.89,1.89,0,0,1,22,39.53c-.22.17-.47.31-.7.49a3.07,3.07,0,0,0-.58.5,1.52,1.52,0,0,0-.19,1.69.69.69,0,0,0,.74.44,1.35,1.35,0,0,0,1.21-1c.48-1.56.92-3.13,1.39-4.7a3.45,3.45,0,0,1,5.88-1.58,6.36,6.36,0,0,1,1.76,4.91Z" transform="translate(-0.13 -0.13)"/><path class="beaf42b1-de84-488f-aa9c-1f62a4c86c35" d="M24.83,29.65a10.05,10.05,0,0,0,4.05-.79,1.87,1.87,0,0,0,1.19-2,1.7,1.7,0,0,0-1.81-1.59h0c-.8.05-1.14.47-1,1.28,0,.21.11.41-.08.57a.64.64,0,0,1-.6,0,3.29,3.29,0,0,1-1.68-3.67,2.68,2.68,0,0,1,3.37-1.54,4.77,4.77,0,0,1,3.14,4.18,6.67,6.67,0,0,1-3.74,7.25,7,7,0,0,1-5.07,0,5,5,0,0,1-3.28-4.18,6.85,6.85,0,0,1,.3-3.75,2.36,2.36,0,0,0-.31-2.69.5.5,0,0,1-.15-.57.56.56,0,0,1,.6-.27,4.75,4.75,0,0,1,2,.56A2,2,0,0,1,22.05,26a14.13,14.13,0,0,0-1.17,1c-.87.9-.69,1.7.46,2.16a11.35,11.35,0,0,0,3.49.52ZM22.31,56a1.91,1.91,0,0,0-1.69.79c-.16.22-.38.47-.71.28s-.28-.49-.17-.77a3.22,3.22,0,0,0-.13-2.42c-.15-.37-.22-.78.19-1.05s.65.07.87.3a5.33,5.33,0,0,0,2.43,1.43c1.28.39,2.54.84,3.83,1.21A3.39,3.39,0,0,0,30,55.4l.27-.15a1,1,0,0,1,1,0c.31.24.17.59.11.88a10.13,10.13,0,0,0,0,4.71,1.63,1.63,0,0,1,0,.31c0,.29,0,.59-.35.72a.6.6,0,0,1-.7-.16,1.41,1.41,0,0,0-1.7-.26q-3.09,1.13-6.18,2.2A3,3,0,0,0,21,64.74a.71.71,0,0,1-.9.24.62.62,0,0,1-.39-.76,11.27,11.27,0,0,0-.21-4.48c-.06-.29-.18-.63.17-.84a.73.73,0,0,1,.91.21,2.21,2.21,0,0,0,2.38.38c1.53-.54,3.06-1.07,4.59-1.62.17-.06.4-.07.42-.28s-.16-.24-.3-.28A53.72,53.72,0,0,0,22.31,56Z" transform="translate(-0.13 -0.13)"/><path class="b07afd17-d281-4004-9524-1b201b3d2800" d="M20.05,45.55A1.19,1.19,0,0,1,21,46a3.75,3.75,0,0,0,3.15,1.16,18.43,18.43,0,0,1,2.78,0,4.35,4.35,0,0,0,3-1,3,3,0,0,1,.51-.36c.51-.22.81,0,.74.56,0,.38-.15.76-.22,1.15a6.13,6.13,0,0,0,.16,3.15,3.27,3.27,0,0,1,.24,1c0,.51-.28.66-.7.43a3.64,3.64,0,0,1-.69-.61,2.24,2.24,0,0,0-1.67-.67c-1.54,0-3.09,0-4.64,0a3.41,3.41,0,0,0-2.59,1c-.32.3-.67.79-1.19.45s-.33-.87-.18-1.4a6.57,6.57,0,0,0-.15-4.2c-.24-.68-.05-1,.53-1.05Z" transform="translate(-0.13 -0.13)"/></g></svg>