<svg id="a2eb09c8-6bd5-4e18-b0c4-40204bd6d71b" data-name="Calque 1" xmlns="http://www.w3.org/2000/svg" xmlns:xlink="http://www.w3.org/1999/xlink" viewBox="0 0 746.51 822.18"><defs><radialGradient id="f81ab27e-19eb-4602-9438-ddf157b876c4" cx="121.61" cy="382.1" r="5.66" gradientTransform="matrix(1 0 0 .6 0 152.84)" xlink:href="#b3ad4f7b-0c2c-4ab8-9e17-891c0731dbbe"/><radialGradient id="a17b2e80-a729-4e62-beed-5b4588fc47f4" cx="217.55" cy="416.02" r="5.66" xlink:href="#f1c2d7ea-6d4c-4ceb-8a25-2c63b71b3f1e"/><radialGradient id="bb092af2-b903-4f0d-add3-5abb3beb4170" cx="195.83" cy="370.99" r="11.47" xlink:href="#f1c2d7ea-6d4c-4ceb-8a25-2c63b71b3f1e"/><radialGradient id="b3ad4f7b-0c2c-4ab8-9e17-891c0731dbbe" cx="92.36" cy="393.88" r="5.66" gradientTransform="matrix(1 0 0 .6 0 157.55)" gradientUnits="userSpaceOnUse"><stop offset="0" stop-color="#0000ef"/><stop offset=".15" stop-color="#0000e9"/><stop offset=".34" stop-color="#0101d9"/><stop offset=".56" stop-color="#0101be"/><stop offset=".79" stop-color="#02029a"/><stop offset="1" stop-color="#020282"/></radialGradient><radialGradient id="f9c0f204-6423-40a5-9c6d-b77f0e1c789e" cx="114.61" cy="393.88" r="5.66" xlink:href="#b3ad4f7b-0c2c-4ab8-9e17-891c0731dbbe"/><radialGradient id="b4a9cb3e-3746-47a8-b5be-4fea967e4e4c" cx="133.17" cy="400.04" r="5.66" gradientTransform="matrix(1 0 0 .6 0 160.02)" xlink:href="#b3ad4f7b-0c2c-4ab8-9e17-891c0731dbbe"/><radialGradient id="ec0444bd-2576-4053-8182-d5ec525fb6a9" cx="139.21" cy="387.78" r="5.66" gradientTransform="matrix(1 0 0 .6 0 155.11)" xlink:href="#b3ad4f7b-0c2c-4ab8-9e17-891c0731dbbe"/><radialGradient id="f1c2d7ea-6d4c-4ceb-8a25-2c63b71b3f1e" cx="65.88" cy="348.77" r="11.47" gradientUnits="userSpaceOnUse"><stop offset="0" stop-color="#fd6d66"/><stop offset=".78" stop-color="#b50a03"/></radialGradient><radialGradient id="efb0e773-ce34-42e4-939d-66e489e7b66f" cx="100.32" cy="382.53" r="5.66" gradientTransform="matrix(1 0 0 .6 0 153.01)" xlink:href="#b3ad4f7b-0c2c-4ab8-9e17-891c0731dbbe"/><radialGradient id="bab428d2-92ea-4494-ab40-051d7d4c94f0" cx="225.51" cy="404.67" r="5.66" xlink:href="#f1c2d7ea-6d4c-4ceb-8a25-2c63b71b3f1e"/><radialGradient id="ac9f98a5-8da5-4a5f-973e-e0f0b73dcf54" cx="246.79" cy="404.24" r="5.66" xlink:href="#f1c2d7ea-6d4c-4ceb-8a25-2c63b71b3f1e"/><radialGradient id="bb5bb470-8407-48f8-add2-782721ec2401" cx="264.4" cy="409.93" r="5.66" xlink:href="#f1c2d7ea-6d4c-4ceb-8a25-2c63b71b3f1e"/><radialGradient id="fc896c2c-ca25-4aec-9e2d-9b2401a8381a" cx="258.36" cy="422.19" r="5.66" xlink:href="#f1c2d7ea-6d4c-4ceb-8a25-2c63b71b3f1e"/><radialGradient id="b84531d5-a8f7-4797-a0c1-4d38f84170ab" cx="239.79" cy="416.02" r="5.66" xlink:href="#f1c2d7ea-6d4c-4ceb-8a25-2c63b71b3f1e"/><style>.e7e1693f-331e-4a82-a262-d079f9f8b404{fill:#373735}.e74dae08-4773-4b60-978a-e95fbc526bcd{fill:#121211}.a367a5c9-c65d-4b4a-b9f4-065900db6626,.a53f2c62-d274-4fae-9537-08a7b5bda088,.a7b486c2-0cfd-4ceb-9d3b-23b933387192,.e74dae08-4773-4b60-978a-e95fbc526bcd,.ecc90f7b-fa38-4798-a248-62c888bb7dba{stroke:#b5b5b5}.a367a5c9-c65d-4b4a-b9f4-065900db6626,.a53f2c62-d274-4fae-9537-08a7b5bda088,.a7b486c2-0cfd-4ceb-9d3b-23b933387192,.b5a775f5-84ee-4689-920f-5a5a28622cd7,.b5ee276c-0483-4ef6-81f2-3be49d955335,.e720d772-68ea-4fe8-a038-0f9e461a8e83,.e74dae08-4773-4b60-978a-e95fbc526bcd,.ecc90f7b-fa38-4798-a248-62c888bb7dba{stroke-miterlimit:10}.a367a5c9-c65d-4b4a-b9f4-065900db6626,.a53f2c62-d274-4fae-9537-08a7b5bda088,.a7b486c2-0cfd-4ceb-9d3b-23b933387192,.b5a775f5-84ee-4689-920f-5a5a28622cd7,.e74dae08-4773-4b60-978a-e95fbc526bcd,.ecc90f7b-fa38-4798-a248-62c888bb7dba{stroke-width:.5px}.b5ee276c-0483-4ef6-81f2-3be49d955335{fill:#443840}.b5a775f5-84ee-4689-920f-5a5a28622cd7,.b5ee276c-0483-4ef6-81f2-3be49d955335{stroke:#090000}.b5ee276c-0483-4ef6-81f2-3be49d955335{stroke-width:.75px}.b5a775f5-84ee-4689-920f-5a5a28622cd7{fill:#6b0c05}.e7f1b8aa-d38b-43c3-a534-7317e53f8677{fill:#86382f}.e720d772-68ea-4fe8-a038-0f9e461a8e83{stroke:#373737}.fc45e70e-ccfd-42c1-bf95-1c300e0514a2{fill:#bf9328}.a7b486c2-0cfd-4ceb-9d3b-23b933387192{fill:#dc6e05}.ecc90f7b-fa38-4798-a248-62c888bb7dba{fill:#12e600}.a367a5c9-c65d-4b4a-b9f4-065900db6626{fill:#0b47ce}.a53f2c62-d274-4fae-9537-08a7b5bda088,.a96c787f-9b5a-43ae-a66c-f52430c8984e{fill:#282826}.a3e38497-1525-4238-b055-7689b2154ffb{fill:#ae7a82}.a0726035-85b8-4967-93e9-eabbc0bf008b{fill:url(#f1c2d7ea-6d4c-4ceb-8a25-2c63b71b3f1e)}.a7cec544-76f8-4ad2-a4e2-21bea6a8336f{fill:url(#bb092af2-b903-4f0d-add3-5abb3beb4170)}.fcf1dddf-ba28-42b6-a401-ca06991698a2{fill:#0000ef}.b71824e5-7e54-4809-b2d7-530f7f252b44{fill:#930303}.fec40dcc-451f-4cce-983c-fb6b594b700d{fill:#e7e7e7}.a332b539-3cb2-4149-8599-3d0b02f50acb{fill:#2c2b29}.fec3fe0a-5562-4a75-a8e4-828d8a9071a3{fill:none}.a7e263ea-8307-4847-bfc8-22f1ee74aa41{fill:#f7b210}.fa912dfd-3c11-44c2-bf8d-180ad0188276{fill:#1082ce}.ad5f29ae-dcaf-414b-9ea9-8e89afb96831{fill:#231f20}</style></defs><path id="ad167aaf-ba4b-4996-8887-3b77b720f197" data-name="ombre" style="opacity:.5;fill:#373735" d="m452.03 588.79 21.51-5.91H485.41l1.58 2.96 237.36 43.3h11.08l11.07 31.39-46.41 37.71-46.42 13.19-8.18-1.32.27-1.85-13.98-2.63-83.6 27.95-73.32 51.57-22.83 6.82-7.77-1.16v-2.63l-16.08-3.03-129.99 34.37 153.84-230.73z"/><g id="f3af800e-4c98-4b45-8140-be8fcf1c81a6" data-name="bottom"><path class="e7e1693f-331e-4a82-a262-d079f9f8b404" d="m36 454.56 224.9 39.62v4.35l25.72 6.13-.4 311.34-248.24-47.27L36 454.56z"/><path class="e74dae08-4773-4b60-978a-e95fbc526bcd" d="m202 526.54-78.38-13.74c-3 .19-4.26 3.56-4.26 3.56l.2 85c.69 2.18 3.86 5 3.86 5l74.27 13.46c5.14.49 7.52-5.25 7.52-5.25v-82.69a7.12 7.12 0 0 0-3.21-5.34zm-49.9 22.55-18.69-3.46v-20l2.27-1.88 18.1 3.07-1.78 2.69zm31.45 6.13-18.69-3.46v-20l2.27-1.87 18.1 3.06-1.78 2.67z" transform="translate(-.98 -.52)"/><path class="b5ee276c-0483-4ef6-81f2-3be49d955335" d="m134.7 523.25-2.27 1.88v19.98l18.69 3.46-.1-19.58 1.78-2.67-18.1-3.07zM166.15 529.38l-2.27 1.88v19.98l18.69 3.46-.1-19.58 1.78-2.67-18.1-3.07z"/><path class="b5a775f5-84ee-4689-920f-5a5a28622cd7" d="M140.14 543.03v-12.85l8.01 1.78v12.56l-8.01-1.49zM171.2 548.87v-12.86l8.01 1.78v12.56l-8.01-1.48z"/><path d="M135.23 543.16v-15.23l2.05.4v15.16l-2.05-.33zM166.68 548.7v-15.23l2.04.4v15.16l-2.04-.33z"/><path class="e7f1b8aa-d38b-43c3-a534-7317e53f8677" d="M140.4 530.69v-.35l7.47 1.8.01.43-7.48-1.88zM171.46 536.62v-.29l7.47 1.64.01.35-7.48-1.7z"/><circle cx="192.4" cy="574.85" r="4.25" style="fill:#8b8b8b;stroke-width:.75px;stroke:#090000;stroke-miterlimit:10"/><path class="e720d772-68ea-4fe8-a038-0f9e461a8e83" d="M136.29 598.71v-11.27l11.96 2.18v11.3l-11.96-2.21zM167.54 604.25v-11.27l11.96 2.17v10.88l-11.96-1.78z"/></g><g id="a9039cf5-be17-4d88-ad7a-c6cb7f885e4a" data-name="t molding"><path class="fc45e70e-ccfd-42c1-bf95-1c300e0514a2" d="m11.46 450.59-.79-39.76L1 407.66v45.1l27.89 5.54c.59 103.55 1 207.6 1.58 311.15a6.18 6.18 0 0 0 3.53 2.19 12.58 12.58 0 0 0 5 0l-2-316.56zM272.36 497v-41.27l-10.28-1.19-.2 44.51 25.71 6.13s-1.51 313.85 0 315.69 8.77 1.32 8.77 1.32l.93-319.91z" transform="translate(-.98 -.52)"/><path class="fc45e70e-ccfd-42c1-bf95-1c300e0514a2" d="m78.72 346.42-8.15-1.3 16.26-218.56 9.04 1.5-17.15 218.36zM329.24 388.85l9.1 1.28 18.49-224.31h-26.37l-.26-90.92-10.06-1.84v94.84l6.04 1.09h20.27l-17.21 219.86z"/><path class="fc45e70e-ccfd-42c1-bf95-1c300e0514a2" d="M88.49 127.19s-28.17-.35-29.11-.85c0-31.21.06-62.83 0-94l9.36 2.64.48 89.02z" transform="translate(-.98 -.52)"/><g id="f39810d1-f4ff-4287-b717-1389c47d88c7" data-name="clair"><path class="fc45e70e-ccfd-42c1-bf95-1c300e0514a2" d="m0 407.14 9.69 3.17L78 346.25l-8.11-1.94L0 407.14zM261.1 454.02l10.28 1.19 66.96-65.87-8.62-1.6-68.62 66.28zM111.56 0 58.42 31.78l9.36 2.64L120.36 3.3l2.74-1.62-2.57-.36L111.56 0zM383.74 40.62l-11.21-.8-52.39 33.24 10.06 1.84 53.54-34.28z"/></g></g><g id="afad642e-d01e-4cb9-89b3-7028e27a27ce" data-name="side"><path class="e74dae08-4773-4b60-978a-e95fbc526bcd" d="m453.13 308.64.63-159.63-70.02-108.39L330.2 74.9l.26 90.92h26.37l-18.49 224.31-66.96 65.08v41.27l24.93 5.28-.93 319.91 8.25-6.32 149.65-543.7-.21 21.51-142.1 516.55-1.61 1.24 6.94-5.32 136.83-496.99zM324.06 799.15l-7.76 6.48 11.99-9.2 124.7-453.24.05-12.13-128.98 468.09zM335.43 790.95l-1.32 1.02 6.87-5.27 111.79-407.64v21.25l.22-57.12-.22 24-117.34 423.76zM343 785.15l108.58-83.28 1.18-299.85L347.4 781.78l-4.4 3.37z"/><path style="fill:#bf0000;stroke-width:.5px;stroke-miterlimit:10;stroke:#b5b5b5" d="m303.63 815.35 5.73-4.4-5.73 4.4z"/><path class="fc45e70e-ccfd-42c1-bf95-1c300e0514a2" d="m453.07 293.16.21-21.51-149.65 543.7 5.73-4.4 1.61-1.24 142.1-516.55z"/><path class="a7b486c2-0cfd-4ceb-9d3b-23b933387192" d="M453.13 330.74v-22.1l-.09 22.42.09-.32zM316.3 805.63z"/><path style="fill:#494949" d="m453.04 331.06.09-22.42L316.3 805.63l7.76-6.48 128.98-468.09z"/><path class="ecc90f7b-fa38-4798-a248-62c888bb7dba" d="M452.99 343.19zM328.29 796.43l5.82-4.46-5.82 4.46z"/><path style="fill:#2d2d2d" d="m334.11 791.97 1.32-1.02 117.34-423.76.22-24-124.7 453.24 5.82-4.46z"/><path class="a367a5c9-c65d-4b4a-b9f4-065900db6626" d="m340.98 786.7 2.02-1.55-2.02 1.55zM452.77 402v-1.69l-.01 1.71.01-.02z"/><path style="fill:#e8e2e9" d="m340.98 786.7 2.02-1.55 4.4-3.37 105.36-379.76.01-1.71v-21.25L340.98 786.7z"/></g><g id="e79fbf46-f454-4b25-91da-cad56828e3f0" data-name="panel"><path class="a53f2c62-d274-4fae-9537-08a7b5bda088" d="m10.48 450.07 250.42 44.11.2-40.16L9.69 410.31l.79 39.76z"/><path class="e7e1693f-331e-4a82-a262-d079f9f8b404" d="m79.37 345.21-69.68 65.1 251.41 43.71 68.62-66.28-250.35-42.53z"/></g><g id="ba3854d5-50f3-42e9-a3e0-ac9bd2a77276" data-name="ecran"><path class="a53f2c62-d274-4fae-9537-08a7b5bda088" d="M96.84 129.36 79.7 347.72l250.52 42.43L347.82 168zm224.28 67.76c0 .2-.29.32-.48.49l-10.43 144.83a35.43 35.43 0 0 1-4.3 3.78l1.4.29v10.7s-1.4 4.75-11.08 2.64c-11.19-2.44-178.55-31.91-178.55-31.91l8.72-6.78v-1.39s-2.46.52-6-7l-12.48 2.77h-4l11.34-158.77s4-6.85 10.81-6.59 191.16 30.59 191.16 30.59 6.17 1.07 3.89 16.35z" transform="translate(-.98 -.52)"/><path d="M317.28 180S133 149.66 126.12 149.4s-10.81 6.6-10.81 6.6l-11.74 160.08h4.35l12.29-2.68c-.1-.23-.74-1.57-.85-1.8L131 166.54s2.11-5.54 7.12-7.38l177.49 27.16a20.77 20.77 0 0 1 5.11 9.76l-.05.75c.19-.17.62.66.66.47 3.23-14.06-4.05-17.3-4.05-17.3z" transform="translate(-.98 -.52)" style="fill:#151312"/><path d="m125.32 320-8.56 8s164.63 29.3 178.61 32.24c10.36 2.17 14.43-3.58 14.43-3.58l.61-7.37.39-7.71-4.89 3.84a20.85 20.85 0 0 1-7.73 3.87z" transform="translate(-.98 -.52)" style="fill:#555353"/><path d="M319.5 197.81c.45-.36.83-.69 1.14-1l.66-.52a20.31 20.31 0 0 0-5.72-10l-177.49-27.13c-5 1.84-7.12 7.38-7.12 7.38L119.36 311.6l.32.66c3.54 7.52 6.28 8 6.28 8l.44.08 171.78 28.93a20.85 20.85 0 0 0 7.73-3.87c2.57-1.91 4.89-3.84 4.89-3.84l10.5-145.29c-.44.46-1.05.96-1.8 1.54zM143.83 302.35z" transform="translate(-.98 -.52)" style="fill:#008aa6"/></g><g id="e71df8bb-575c-49c9-9639-0341fe17a9ed" data-name="top"><path id="bba15466-6eb4-4e43-8945-bd8df2699a53" data-name="marquee" class="a53f2c62-d274-4fae-9537-08a7b5bda088" d="m68.24 123.5 251.47 39.03.43-89.47L67.78 34.42l.46 89.08z"/><path style="stroke-miterlimit:10;stroke:#b5b5b5;fill:#373735" d="m128.84 2.64-5.74-.96-55.32 32.74 252.36 38.64 52.39-33.24L128.84 2.64z"/></g><g id="ee49d8e4-ec65-499f-a9a4-fae66d05703c" data-name="stickp1"><path class="a96c787f-9b5a-43ae-a66c-f52430c8984e" d="M68.92 377.27v5.16H62.4v-5.16c-5.06.64-8.77 2.7-8.77 5.16 0 3 5.38 5.35 12 5.35s12-2.39 12-5.35c.06-2.43-3.63-4.52-8.71-5.16z" transform="translate(-.98 -.52)"/><path class="a3e38497-1525-4238-b055-7689b2154ffb" d="M68.92 377.27v-17.78a12.18 12.18 0 0 1-3 .39 12.4 12.4 0 0 1-3.48-.49v17.88a26.67 26.67 0 0 1 6.52 0z" transform="translate(-.98 -.52)"/><path class="a3e38497-1525-4238-b055-7689b2154ffb" d="M68.92 382.43v-5.16a26.67 26.67 0 0 0-6.52 0v5.16z" transform="translate(-.98 -.52)"/><path class="a0726035-85b8-4967-93e9-eabbc0bf008b" d="M68.92 358.89v.6a11.24 11.24 0 0 0 8.77-10.72c0-6.14-5.29-11.11-11.81-11.11s-11.82 5-11.82 11.11a11.22 11.22 0 0 0 8.34 10.62v-.5z" transform="translate(-.98 -.52)"/><path class="a3e38497-1525-4238-b055-7689b2154ffb" d="M68.92 359.49v-.6H62.4v.5a12.4 12.4 0 0 0 3.48.49 12.18 12.18 0 0 0 3.04-.39z" transform="translate(-.98 -.52)"/><path class="a0726035-85b8-4967-93e9-eabbc0bf008b" d="M68.92 359.49v-.6H62.4v.5a12.4 12.4 0 0 0 3.48.49 12.18 12.18 0 0 0 3.04-.39z" transform="translate(-.98 -.52)"/></g><g id="f979fa61-6187-4321-a9da-9e4cc5df2461" data-name="stickp2"><path class="a96c787f-9b5a-43ae-a66c-f52430c8984e" d="M198.88 399.49v5.16h-6.53v-5.16c-5 .64-8.77 2.7-8.77 5.16 0 3 5.39 5.35 12 5.35s12-2.39 12-5.35c.07-2.46-3.64-4.52-8.7-5.16z" transform="translate(-.98 -.52)"/><path class="a3e38497-1525-4238-b055-7689b2154ffb" d="M198.88 399.49v-17.78a12.2 12.2 0 0 1-3 .39 12.83 12.83 0 0 1-3.48-.49v17.88a26.75 26.75 0 0 1 6.53 0z" transform="translate(-.98 -.52)"/><path class="a3e38497-1525-4238-b055-7689b2154ffb" d="M198.88 404.65v-5.16a26.75 26.75 0 0 0-6.53 0v5.16z" transform="translate(-.98 -.52)"/><path class="a7cec544-76f8-4ad2-a4e2-21bea6a8336f" d="M198.88 381.11v.6a11.24 11.24 0 0 0 8.77-10.71c0-6.14-5.29-11.11-11.82-11.11S184 364.85 184 371a11.22 11.22 0 0 0 8.34 10.62v-.5z" transform="translate(-.98 -.52)"/><path class="a3e38497-1525-4238-b055-7689b2154ffb" d="M198.88 381.71v-.6h-6.53v.5a12.83 12.83 0 0 0 3.48.49 12.2 12.2 0 0 0 3.05-.39z" transform="translate(-.98 -.52)"/><path class="a7cec544-76f8-4ad2-a4e2-21bea6a8336f" d="M198.88 381.71v-.6h-6.53v.5a12.83 12.83 0 0 0 3.48.49 12.2 12.2 0 0 0 3.05-.39z" transform="translate(-.98 -.52)"/></g><g id="bd77bfd4-b68d-4254-bff9-9b4489f8995c" data-name="boutons P1"><g id="e8c36bdb-3390-4164-b942-6f19fcf80ab9" data-name="4"><path class="fcf1dddf-ba28-42b6-a401-ca06991698a2" d="M92.54 389.14c-3.86 0-8.12 1.53-8.12 4.87 0 2.95 4.1 4.62 7.94 4.62 4.11 0 8-1.73 8-4.88-.04-2.35-3.88-4.61-7.82-4.61zm-.18 8.63c-3.86 0-7-1.74-7-3.89s3.13-3.89 7-3.89 7 1.74 7 3.89-3.14 3.89-7 3.89z" transform="translate(-.98 -.52)"/><path d="M92.36 390c-3.86 0-7 1.74-7 3.89s3.13 3.89 7 3.89 7-1.74 7-3.89-3.14-3.89-7-3.89z" transform="translate(-.98 -.52)" style="fill:url(#b3ad4f7b-0c2c-4ab8-9e17-891c0731dbbe)"/></g><g id="a1785d3f-27a3-4a1d-a9da-6a5dc1cb9142" data-name="5"><path class="fcf1dddf-ba28-42b6-a401-ca06991698a2" d="M114.79 389.14c-3.86 0-8.12 1.53-8.12 4.87 0 2.95 4.1 4.62 7.94 4.62 4.11 0 8-1.73 8-4.88-.04-2.35-3.88-4.61-7.82-4.61zm-.18 8.63c-3.86 0-7-1.74-7-3.89s3.13-3.89 7-3.89 7 1.74 7 3.89-3.14 3.89-7 3.89z" transform="translate(-.98 -.52)"/><path d="M114.61 390c-3.86 0-7 1.74-7 3.89s3.13 3.89 7 3.89 7-1.74 7-3.89-3.14-3.89-7-3.89z" transform="translate(-.98 -.52)" style="fill:url(#f9c0f204-6423-40a5-9c6d-b77f0e1c789e)"/></g><g id="a31cac00-97c2-4b3c-9279-fc62807e36d9" data-name="6"><path class="fcf1dddf-ba28-42b6-a401-ca06991698a2" d="M133.35 395.3c-3.86 0-8.13 1.53-8.13 4.87 0 3 4.11 4.62 7.95 4.62 4.1 0 8-1.73 8-4.88-.04-2.35-3.88-4.61-7.82-4.61zm-.18 8.63c-3.86 0-7-1.74-7-3.89s3.13-3.89 7-3.89 7 1.74 7 3.89-3.17 3.89-7 3.89z" transform="translate(-.98 -.52)"/><path d="M133.17 396.15c-3.86 0-7 1.74-7 3.89s3.13 3.89 7 3.89 7-1.74 7-3.89-3.17-3.89-7-3.89z" transform="translate(-.98 -.52)" style="fill:url(#b4a9cb3e-3746-47a8-b5be-4fea967e4e4c)"/></g><g id="a290636b-b436-4214-b57f-6cd4e1ae9aa3" data-name="3"><path class="fcf1dddf-ba28-42b6-a401-ca06991698a2" d="M139.39 383c-3.86 0-8.13 1.53-8.13 4.88 0 2.95 4.11 4.61 8 4.61 4.1 0 8-1.73 8-4.88-.09-2.31-3.93-4.61-7.87-4.61zm-.18 8.63c-3.86 0-7-1.74-7-3.89s3.13-3.89 7-3.89 7 1.75 7 3.89-3.14 3.93-7 3.93z" transform="translate(-.98 -.52)"/><path d="M139.21 383.89c-3.86 0-7 1.75-7 3.89s3.13 3.89 7 3.89 7-1.74 7-3.89-3.14-3.89-7-3.89z" transform="translate(-.98 -.52)" style="fill:url(#ec0444bd-2576-4053-8182-d5ec525fb6a9)"/></g><g id="e6f7b06d-d11c-4027-95f8-48f4d36b3fae" data-name="2"><path class="fcf1dddf-ba28-42b6-a401-ca06991698a2" d="M121.79 377.35c-3.86 0-8.12 1.53-8.12 4.88 0 2.95 4.1 4.61 7.94 4.61 4.11 0 8-1.73 8-4.88-.04-2.34-3.88-4.61-7.82-4.61zm-.18 8.64c-3.86 0-7-1.74-7-3.89s3.13-3.89 7-3.89 7 1.74 7 3.89-3.14 3.9-7 3.9z" transform="translate(-.98 -.52)"/><path d="M121.61 378.21c-3.86 0-7 1.74-7 3.89s3.13 3.89 7 3.89 7-1.74 7-3.89-3.14-3.89-7-3.89z" transform="translate(-.98 -.52)" style="fill:url(#f81ab27e-19eb-4602-9438-ddf157b876c4)"/></g><g id="aa0b2d53-0b75-43d2-b135-cf4779031a9a" data-name="1"><path class="fcf1dddf-ba28-42b6-a401-ca06991698a2" d="M100.5 377.78c-3.86 0-8.13 1.53-8.13 4.88 0 2.95 4.11 4.62 7.95 4.62 4.1 0 8-1.73 8-4.88-.04-2.35-3.88-4.62-7.82-4.62zm-.18 8.64c-3.86 0-7-1.74-7-3.89s3.13-3.89 7-3.89 7 1.74 7 3.89-3.14 3.89-7 3.89z" transform="translate(-.98 -.52)"/><path d="M100.32 378.64c-3.86 0-7 1.74-7 3.89s3.13 3.89 7 3.89 7-1.74 7-3.89-3.14-3.89-7-3.89z" transform="translate(-.98 -.52)" style="fill:url(#efb0e773-ce34-42e4-939d-66e489e7b66f)"/></g></g><g id="aa69f1d0-2d78-4231-8997-29248cccbc01" data-name="boutons P2"><g id="abbb5374-0c74-4d1e-8daf-61b518474141" data-name="1"><path class="b71824e5-7e54-4809-b2d7-530f7f252b44" d="M225.69 399.93c-3.86 0-8.13 1.53-8.13 4.87 0 2.95 4.11 4.62 7.95 4.62 4.1 0 8-1.73 8-4.88-.04-2.35-3.88-4.61-7.82-4.61zm-.18 8.63c-3.86 0-7-1.74-7-3.89s3.13-3.89 7-3.89 7 1.74 7 3.89-3.14 3.89-7 3.89z" transform="translate(-.98 -.52)"/><path d="M225.51 400.78c-3.86 0-7 1.74-7 3.89s3.13 3.89 7 3.89 7-1.74 7-3.89-3.14-3.89-7-3.89z" transform="translate(-.98 -.52)" style="fill:url(#bab428d2-92ea-4494-ab40-051d7d4c94f0)"/></g><g id="e1ea1573-3b84-4947-a86d-a5352fc08619" data-name="2"><path class="b71824e5-7e54-4809-b2d7-530f7f252b44" d="M247 399.49c-3.86 0-8.13 1.54-8.13 4.88 0 2.95 4.11 4.62 7.95 4.62 4.1 0 8-1.73 8-4.88-.07-2.35-3.91-4.62-7.82-4.62zm-.18 8.64c-3.86 0-7-1.74-7-3.89s3.13-3.89 7-3.89 7 1.74 7 3.89-3.17 3.89-7.03 3.89z" transform="translate(-.98 -.52)"/><path d="M246.79 400.35c-3.86 0-7 1.74-7 3.89s3.13 3.89 7 3.89 7-1.74 7-3.89-3.14-3.89-7-3.89z" transform="translate(-.98 -.52)" style="fill:url(#ac9f98a5-8da5-4a5f-973e-e0f0b73dcf54)"/></g><g id="f25e2645-62de-43e5-93ae-7665b854b195" data-name="3"><path class="b71824e5-7e54-4809-b2d7-530f7f252b44" d="M264.58 405.18c-3.86 0-8.12 1.53-8.12 4.88 0 2.95 4.1 4.61 7.94 4.61 4.1 0 8-1.73 8-4.88-.04-2.35-3.88-4.61-7.82-4.61zm-.18 8.64c-3.86 0-7-1.75-7-3.89s3.13-3.89 7-3.89 7 1.74 7 3.89-3.14 3.89-7 3.89z" transform="translate(-.98 -.52)"/><path d="M264.4 406c-3.86 0-7 1.74-7 3.89s3.13 3.89 7 3.89 7-1.75 7-3.89-3.14-3.89-7-3.89z" transform="translate(-.98 -.52)" style="fill:url(#bb5bb470-8407-48f8-add2-782721ec2401)"/></g><g id="a461ab4f-3e15-4e4a-8322-e8ffaefc75b6" data-name="4"><path class="b71824e5-7e54-4809-b2d7-530f7f252b44" d="M258.54 417.44c-3.86 0-8.13 1.53-8.13 4.88 0 2.95 4.11 4.61 8 4.61 4.1 0 8-1.73 8-4.88-.09-2.35-3.93-4.61-7.87-4.61zm-.18 8.64c-3.86 0-7-1.75-7-3.89s3.13-3.89 7-3.89 7 1.74 7 3.89-3.14 3.89-7 3.89z" transform="translate(-.98 -.52)"/><path d="M258.36 418.3c-3.86 0-7 1.74-7 3.89s3.13 3.89 7 3.89 7-1.75 7-3.89-3.14-3.89-7-3.89z" transform="translate(-.98 -.52)" style="fill:url(#fc896c2c-ca25-4aec-9e2d-9b2401a8381a)"/></g><g id="fe3cffcd-4855-4173-8cf8-466dde1ffc8d" data-name="5"><path class="b71824e5-7e54-4809-b2d7-530f7f252b44" d="M240 411.28c-3.86 0-8.13 1.53-8.13 4.88 0 2.95 4.11 4.61 7.95 4.61 4.1 0 8-1.73 8-4.88-.07-2.35-3.91-4.61-7.82-4.61zm-.18 8.63c-3.86 0-7-1.74-7-3.89s3.13-3.89 7-3.89 7 1.75 7 3.89-3.17 3.89-7.03 3.89z" transform="translate(-.98 -.52)"/><path d="M239.79 412.13c-3.86 0-7 1.75-7 3.89s3.13 3.89 7 3.89 7-1.74 7-3.89-3.14-3.89-7-3.89z" transform="translate(-.98 -.52)" style="fill:url(#b84531d5-a8f7-4797-a0c1-4d38f84170ab)"/></g><g id="a4717c57-7a99-4317-b351-66672954de30" data-name="6"><path class="b71824e5-7e54-4809-b2d7-530f7f252b44" d="M217.73 411.28c-3.86 0-8.13 1.53-8.13 4.88 0 2.95 4.11 4.61 8 4.61 4.1 0 8-1.73 8-4.88-.09-2.35-3.93-4.61-7.87-4.61zm-.18 8.63c-3.86 0-7-1.74-7-3.89s3.13-3.89 7-3.89 7 1.75 7 3.89-3.14 3.89-7 3.89z" transform="translate(-.98 -.52)"/><path d="M217.55 412.13c-3.86 0-7 1.75-7 3.89s3.13 3.89 7 3.89 7-1.74 7-3.89-3.14-3.89-7-3.89z" transform="translate(-.98 -.52)" style="fill:url(#a17b2e80-a729-4e62-beed-5b4588fc47f4)"/></g></g><path class="fec40dcc-451f-4cce-983c-fb6b594b700d" d="M228.57 237.19v.07l-5.92-1v-.08zM236.56 238.53a.13.13 0 0 0 0 .06l-5.72-1v-.06z" transform="translate(-.98 -.52)"/><path class="a332b539-3cb2-4149-8599-3d0b02f50acb" d="m210.17 273.38-65.56-11c-.87-.14-.87-.14-.74-.92.25-1.54.47-3.08.75-4.61.78-4.31 1.48-8.63 2.22-12.95.09-.48.22-1 .29-1.44 0-.18.12-.23.31-.19l.75.13 119.31 19.98a16.13 16.13 0 0 1 4.69 1.42 11.54 11.54 0 0 1 5.67 5.9 8.36 8.36 0 0 1 .63 3.88c0 .38-.08.76-.15 1.14l-1.56 9.36c-.07.39-.13.42-.54.36l-40.11-6.72zm14.68-7.7c-.4 2.35-.79 4.71-1.19 7.07 0 .23 0 .34.3.38 1 .15 1.95.32 2.93.49.51.09.51.09.59-.37q.69-4.22 1.4-8.43c0-.08 0-.21.12-.22s.13.1.17.17c1.69 3.14 3.43 6.26 5.06 9.42a2.38 2.38 0 0 0 3.55.6c.9-.94 1.91-1.79 2.87-2.68l4.89-4.53c.08-.07.15-.22.26-.17s0 .2 0 .31v.12c-.47 2.79-.93 5.58-1.4 8.37 0 .25 0 .35.31.4 1 .16 2 .32 3.06.51.34.07.45 0 .49-.32l2.32-13.83a1.32 1.32 0 0 0-.25-1 2.34 2.34 0 0 0-3.26-.37l-2.16 2-8.12 7.4c-.25.23-.28.22-.45-.08-2.2-4.06-4.42-8.11-6.61-12.17a2.14 2.14 0 0 0-1.43-1.06A1.74 1.74 0 0 0 226 259zm-4.51-.71c.38-2.31.76-4.61 1.16-6.92a1.32 1.32 0 0 0-.45-1.21 2.4 2.4 0 0 0-3.17 0c-2.39 2.24-4.82 4.43-7.24 6.63l-2.95 2.7c-.13.12-.23.25-.37 0l-3.44-6.31c-1.1-2-2.19-4-3.3-6a2.24 2.24 0 0 0-2.21-1 1.52 1.52 0 0 0-1.5 1.37q-1.16 6.86-2.3 13.71c0 .28.05.37.35.41 1 .15 2 .32 3 .5.44.07.45.08.51-.3.46-2.73.91-5.46 1.37-8.19 0-.13 0-.27.06-.4s0-.16.11-.17.1.08.13.14.18.34.28.51c1.63 3 3.29 6 4.88 9.07a2.34 2.34 0 0 0 3.35.6c.47-.47 1-.91 1.48-1.37l6.5-6c.06-.05.09-.14.19-.11s.07.14.06.22c-.14.81-.28 1.62-.41 2.44-.35 2.06-.69 4.13-1 6.2 0 .22 0 .32.29.36l3 .5c.44.07.45.07.52-.31q.51-3.6 1.1-7.04zm33.15 5.67c-.38 2.28-.76 4.57-1.15 6.85-.06.31.06.41.38.45 1 .16 2 .32 3 .5.33.07.45 0 .5-.31.16-1 .35-2.08.51-3.12 0-.23.12-.33.4-.28l12.77 2.14c.33.05.39.18.34.45-.18 1-.34 2.08-.53 3.12-.05.25 0 .35.32.4 1 .15 2 .32 3 .49.45.07.46.07.53-.34l1.22-7.32a6.88 6.88 0 0 0-2.51-6.52 12.61 12.61 0 0 0-6.36-3c-2.38-.41-4.76-.8-7.13-1.19-.72-.12-1.45-.26-2.17-.35a1.6 1.6 0 0 0-1.91 1.29c-.46 2.27-.83 4.5-1.21 6.74zm-62.24-10.42 1.14-6.79a1.24 1.24 0 0 0 0-.47 1.91 1.91 0 0 0-1.63-1.33c-1.55-.26-3.1-.53-4.65-.77-1.84-.3-3.66-.71-5.51-.87a11.55 11.55 0 0 0-7 1.39 6.55 6.55 0 0 0-3.37 4.67q-.63 3.74-1.25 7.47c-.07.4-.07.4.36.47 1 .17 2 .32 2.93.5.33.06.45 0 .5-.31.15-1 .34-2.06.5-3.09 0-.29.17-.35.48-.3l12.67 2.12c.34 0 .42.16.37.46-.19 1-.35 2.08-.54 3.11 0 .26 0 .36.32.4 1 .16 2 .32 3 .51.33.06.44 0 .49-.32.42-2.28.81-4.57 1.19-6.85zm-38.3 1 6.47 1.08a7.76 7.76 0 0 0 2.76 0 3.93 3.93 0 0 0 3.34-2.92c.64-3.78 1.26-7.55 1.9-11.33.05-.27 0-.37-.33-.42-1-.15-2-.32-3-.5-.36-.07-.46 0-.51.33q-.92 5.58-1.86 11.15a1.08 1.08 0 0 1-1.24.95 4.41 4.41 0 0 1-.73-.08c-1-.18-2-.37-3.06-.54l-7-1.15c-.28-.05-.35-.15-.31-.38.11-.59.19-1.18.31-1.76.06-.28 0-.4-.35-.45-.84-.13-1.68-.26-2.52-.42-.34-.07-.44 0-.49.32-.24 1.49-.49 3-.74 4.45-.07.42-.07.42.42.5zM230.83 237.63l5.72 1c.15.09.15.2.13.35-.37 2.17-.73 4.34-1.11 6.51 0 .29 0 .38.34.43 3.09.5 6.18 1 9.27 1.54.32.05.34.16.31.44-.06.67-.23 1.33-.32 2-.22 1.55-.54 3.09-.8 4.63-.1.59-.17 1.19-.26 1.78 0 .2-.12.31-.4.26L228.57 254c-.65-.11-.65-.11-.56-.68q1.29-7.69 2.57-15.38c.02-.15.02-.31.25-.31zm3.94 12.7c-.13.78-.25 1.56-.39 2.34-.05.27 0 .38.33.43 1.06.16 2.11.34 3.16.53.32.06.44 0 .49-.31.25-1.55.51-3.1.78-4.66 0-.24 0-.34-.31-.38q-1.62-.25-3.24-.54c-.28-.05-.39 0-.43.27-.16.78-.26 1.55-.39 2.32zM255.63 249.17c2.55.43 5.09.86 7.64 1.27.34.06.42.17.37.47q-.7 4.14-1.39 8.3c-.07.37-.1.4-.52.33L246.38 257c-.27-.05-.34-.16-.3-.39q.72-4.21 1.41-8.43c0-.28.18-.33.47-.28 2.55.44 5.11.86 7.67 1.29zm1.31 4.88c.14-.8.27-1.6.41-2.4 0-.23 0-.36-.3-.4l-3.44-.58c-.26 0-.38 0-.42.27l-.81 4.85c0 .25.05.36.33.41l3.37.56c.3.06.42 0 .46-.3.13-.8.27-1.6.4-2.41zM173.53 244.78l-7.64-1.27c-.31 0-.37-.15-.33-.42q.72-4.2 1.42-8.42c0-.25.13-.32.4-.27l15.36 2.6c.41.07.43.11.37.49-.26 1.55-.53 3.11-.78 4.66 0 .31-.17.37-.5.32-3.07-.53-6.15-1-9.22-1.55-.46-.08-.46-.08-.52.32s-.11.7-.19 1 0 .35.31.4c2.06.33 4.11.68 6.17 1l3.16.53c.32.05.42.17.37.44s-.14.74-.19 1.11-.18.38-.51.32zm.92-5.45c.56.1 1.13.18 1.69.29.25 0 .35 0 .38-.25 0-.39.12-.78.2-1.17 0-.21 0-.32-.26-.36l-3.41-.57c-.22 0-.33 0-.36.23q-.08.62-.18 1.23c0 .23.06.3.29.33.55.07 1.1.17 1.65.27zM211.28 241.75l7.64 1.28c.44.07.5.14.42.52-.43 2-.7 4-1.05 6-.14.74-.27 1.48-.37 2.23 0 .29-.15.37-.49.31-2.08-.36-4.17-.7-6.26-1l-9-1.51c-.42-.07-.43-.08-.37-.47.26-1.56.53-3.11.77-4.67 0-.32.18-.37.52-.31l9.16 1.54c.46.07.46.07.53-.33s.09-.67.17-1 0-.4-.36-.46c-2.34-.37-4.68-.77-7-1.16l-2.31-.38c-.24 0-.32-.12-.28-.34a10.85 10.85 0 0 0 .21-1.27c0-.27.16-.31.43-.26l5.37.9 2.27.38zm-1.15 7.25c.55.09 1.11.17 1.66.27.21 0 .33 0 .36-.21l.21-1.23c0-.19-.05-.29-.27-.33l-3.33-.56c-.24 0-.35 0-.38.24 0 .4-.11.79-.19 1.17-.05.23.05.33.29.37.52.07 1.1.17 1.65.28zM268.74 251.36c.87.15 1.74.31 2.62.44.31 0 .38.18.34.43-.08.4-.13.8-.21 1.2 0 .21 0 .3.27.34l3.36.56c.28 0 .38 0 .41-.27.06-.41.15-.82.2-1.23 0-.23.15-.27.37-.24l5.4.91c.21 0 .3.13.27.33-.08.43-.16.86-.22 1.29 0 .23-.16.29-.41.25-.44-.09-.89-.15-1.34-.24-.24 0-.33 0-.36.24-.05.4-.13.8-.19 1.2 0 .23-.15.3-.4.25-.47-.08-.94-.15-1.41-.24-.17 0-.24 0-.29.17-.13.44-.08.91-.25 1.34-.07.18.07.24.24.27l1.38.22c.28 0 .38.15.33.41s-.13.78-.21 1.17c0 .21.05.31.28.34l1.34.22c.25 0 .34.13.3.36-.09.42-.17.84-.22 1.27 0 .22-.15.27-.36.24l-.65-.11-4.62-.77c-.45-.08-.45-.08-.38-.49s.12-.76.19-1.14c.05-.21 0-.3-.27-.34l-3.44-.58c-.22 0-.29 0-.31.21-.06.4-.16.8-.19 1.21s-.19.37-.5.32l-4.72-.8c-1.16-.19-.93-.1-.8-1 0-.25.09-.49.12-.74s.16-.29.4-.25c.45.09.9.15 1.34.24.27.05.39 0 .42-.26s.14-.78.19-1.17.16-.31.41-.26c.46.09.92.15 1.37.24.21 0 .3 0 .32-.2.06-.43.13-.85.22-1.27 0-.21-.05-.28-.26-.31l-1.38-.23c-.24 0-.34-.12-.29-.36s.14-.78.21-1.17c0-.23 0-.35-.31-.38-.45-.06-.9-.15-1.35-.22-.25 0-.34-.14-.29-.37q.12-.63.21-1.26c0-.24.16-.29.4-.24zM222.64 236.28l5.92 1a.42.42 0 0 1 .05.36q-1.31 7.77-2.6 15.56c0 .28-.17.37-.48.31s-.88-.19-1.33-.26l-3.89-.62c-.46-.08-.45-.08-.39-.49q1.31-7.74 2.6-15.49c.02-.14 0-.28.12-.37zM191.71 247.82l-7.71-1.28c-.3 0-.4-.14-.35-.43q.72-4.2 1.41-8.4c0-.26.15-.32.42-.27l15.39 2.56c.31.05.42.18.36.45s-.11.72-.19 1.08-.13.41-.55.34l-4.16-.7-5.06-.85c-.28 0-.37 0-.41.25-.22 1.39-.46 2.78-.69 4.17a2.74 2.74 0 0 1 0 .28c-.11.6-.11.6.58.72l8.92 1.49c.42.07.45.11.39.5s-.15.72-.18 1.08-.19.35-.48.3c-.56-.11-1.12-.2-1.68-.29z" transform="translate(-.98 -.52)"/><path d="M291.07 282.1c-.25 1.47-.49 2.94-.74 4.41-.07.42-.07.42-.51.34l-4.27-.71c-.27 0-.37-.13-.3-.37s.07-.41.11-.62-.06-.27-.25-.29l-.49-.05c-.39-.06-.49 0-.51.37v.19c0 .43-.14.5-.63.42-1.39-.23-2.79-.47-4.19-.69-.32-.05-.4-.19-.36-.45.5-3 1-5.91 1.49-8.86.06-.36.14-.42.55-.33 2.95.58 5.92 1 8.87 1.52.52.09 1 .13 1.55.22s.47.1.4.52c-.24 1.46-.49 2.92-.73 4.38zm-8.37-.17 1.58.27c.22 0 .32 0 .35-.22.1-.59.2-1.19.31-1.79 0-.21-.06-.3-.29-.34l-3.13-.52c-.21 0-.31 0-.35.22-.08.59-.18 1.19-.29 1.79 0 .21 0 .31.27.34zm5.47-1.49c-.52-.08-1-.16-1.55-.26-.25-.05-.36 0-.39.24-.09.59-.19 1.19-.29 1.78-.05.23.05.29.28.33 1 .16 2 .33 3 .51.28.05.39 0 .43-.27.08-.56.17-1.13.28-1.69 0-.23 0-.35-.3-.39-.48-.08-.97-.17-1.46-.25z" transform="translate(-.98 -.52)" style="fill:#2785db"/><path d="M292.87 271.31c-.25 1.48-.5 3-.74 4.44-.07.38-.11.4-.52.34l-2.86-.48c-.41-.07-.49-.18-.43-.54.14-.85.28-1.71.43-2.56a.34.34 0 0 1 0-.1c.2-.63.12-.52.72-.43l1.48.25c.26 0 .4 0 .44-.25.09-.59.19-1.18.29-1.76 0-.21 0-.33-.3-.38l-8-1.34c-.26 0-.39.05-.42.28-.09.57-.19 1.14-.28 1.7 0 .23.05.36.31.41l3.06.52a.25.25 0 0 0 .33-.17 1.81 1.81 0 0 0 .12-.64c0-.19.11-.24.27-.29a.45.45 0 0 1 .2 0c.85.09.89.14.77.88-.21 1.26-.43 2.51-.63 3.77 0 .26-.17.34-.43.3l-5.43-.91c-.49-.08-.55-.15-.48-.58.49-3 1-5.91 1.48-8.87 0-.17.09-.23.28-.22s.55 0 .83.08l9.77 1.63c.55.09.55.1.47.6l-.72 4.32z" transform="translate(-.98 -.52)" style="fill:#44c047"/><path d="M289.84 254.78c1.75.29 3.49.59 5.24.87.3 0 .4.13.35.42-.51 3-1 5.95-1.49 8.92-.05.3-.16.38-.49.32-1.4-.25-2.8-.48-4.2-.71-.36-.06-.42-.15-.36-.47 0-.12.06-.23.08-.34.08-.47.08-.47-.46-.56h-.21c-.5-.08-.51-.08-.54.39 0 .18-.1.34-.11.52s-.18.19-.35.16l-4.44-.74c-.23 0-.32-.15-.29-.35.17-1 .35-2 .51-3.06 0-.28.23-.27.45-.23l1.83.3c.8.15 1.61.24 2.4.44.25.06.44 0 .48-.27.07-.57.17-1.14.28-1.7.05-.27 0-.38-.34-.43-1.42-.22-2.83-.47-4.24-.7-.29 0-.4-.12-.35-.4.18-1 .33-2 .48-3 0-.26.15-.33.44-.28 1.77.31 3.55.6 5.33.9zm1.49 6.43c.51.08 1 .16 1.54.26.22 0 .35 0 .39-.21.09-.61.19-1.22.3-1.82 0-.2 0-.32-.27-.35l-3.09-.52c-.22 0-.32 0-.35.21-.09.63-.2 1.25-.31 1.88 0 .18 0 .26.24.29z" transform="translate(-.98 -.52)" style="fill:#eb1416"/><path class="a332b539-3cb2-4149-8599-3d0b02f50acb" d="m156.94 232.66 7.54 1.26c.53.09.53.09.45.57s-.13.7-.17 1-.16.33-.44.28l-9.3-1.57c-.33-.05-.41 0-.45.3-.35 2.17-.72 4.33-1.07 6.49-.05.31-.2.36-.51.31l-5.19-.87c-.3 0-.4-.14-.35-.42q.72-4.19 1.4-8.39c.05-.31.19-.34.48-.29z" transform="translate(-.98 -.52)"/><path class="fec40dcc-451f-4cce-983c-fb6b594b700d" d="M224.85 265.68 226 259a1.74 1.74 0 0 1 2.34-1.33 2.14 2.14 0 0 1 1.43 1.06c2.19 4.06 4.41 8.11 6.61 12.17.17.3.2.31.45.08l8.14-7.43 2.16-2a2.34 2.34 0 0 1 3.26.37 1.32 1.32 0 0 1 .25 1q-1.17 6.91-2.32 13.83c0 .29-.15.39-.49.32-1-.19-2-.35-3.06-.51-.3-.05-.36-.15-.31-.4.47-2.79.93-5.58 1.4-8.37v-.12c0-.04.11-.25 0-.31s-.18.1-.26.17l-4.89 4.53c-1 .89-2 1.74-2.87 2.68a2.38 2.38 0 0 1-3.55-.6c-1.63-3.16-3.37-6.28-5.06-9.42 0-.07-.06-.19-.17-.17s-.11.14-.12.22l-1.4 8.43c-.08.46-.08.46-.59.37-1-.17-1.95-.34-2.93-.49-.28 0-.34-.15-.3-.38.4-2.36.79-4.72 1.19-7.07zM220.34 265q-.59 3.46-1.16 6.95c-.07.38-.08.38-.52.31l-3-.5c-.27 0-.32-.14-.29-.36.36-2.07.7-4.14 1-6.2.13-.82.27-1.63.41-2.44 0-.08.06-.18-.06-.22s-.13.06-.19.11l-6.5 6c-.5.46-1 .9-1.48 1.37a2.34 2.34 0 0 1-3.35-.6c-1.59-3-3.25-6.05-4.88-9.07-.1-.17-.19-.34-.28-.51s-.05-.14-.13-.14-.1.1-.11.17 0 .27-.06.4c-.46 2.73-.91 5.46-1.37 8.19-.06.38-.07.37-.51.3-1-.18-2-.35-3-.5-.3 0-.4-.13-.35-.41q1.16-6.86 2.3-13.71a1.52 1.52 0 0 1 1.5-1.37 2.24 2.24 0 0 1 2.21 1c1.11 2 2.2 4 3.3 6l3.44 6.31c.14.27.24.14.37 0l2.95-2.7c2.42-2.2 4.85-4.39 7.24-6.63a2.4 2.4 0 0 1 3.17 0 1.32 1.32 0 0 1 .45 1.21c-.4 2.31-.78 4.61-1.16 6.92zM253.49 270.64c.38-2.24.75-4.47 1.13-6.7a1.6 1.6 0 0 1 1.91-1.29c.72.09 1.45.23 2.17.35 2.37.39 4.75.78 7.13 1.19a12.61 12.61 0 0 1 6.36 3 6.88 6.88 0 0 1 2.51 6.52q-.6 3.66-1.22 7.32c-.07.41-.08.41-.53.34-1-.17-2-.34-3-.49-.29 0-.37-.15-.32-.4.19-1 .35-2.08.53-3.12.05-.27 0-.4-.34-.45l-12.77-2.14c-.28-.05-.36 0-.4.28-.16 1-.35 2.08-.51 3.12-.05.3-.17.38-.5.31-1-.18-2-.34-3-.5-.32 0-.44-.14-.38-.45.39-2.28.77-4.57 1.15-6.85zM264 273l6.37 1.07c.3 0 .43 0 .46-.28s.08-.52.12-.78a4.27 4.27 0 0 0-1.54-4.2 8.48 8.48 0 0 0-4-1.85c-2.25-.43-4.52-.78-6.77-1.17-.34-.06-.36.12-.4.33q-.44 2.69-.9 5.37c0 .29 0 .4.36.46zM191.25 260.22c-.38 2.28-.77 4.57-1.14 6.85-.05.3-.16.38-.49.32-1-.19-2-.35-3-.51-.29 0-.36-.14-.32-.4.19-1 .35-2.08.54-3.11.05-.3 0-.41-.37-.46l-12.67-2.12c-.31-.05-.44 0-.48.3-.16 1-.35 2.05-.5 3.09 0 .3-.17.37-.5.31-1-.18-1.95-.33-2.93-.5-.43-.07-.43-.07-.36-.47q.62-3.74 1.25-7.47a6.55 6.55 0 0 1 3.37-4.67 11.55 11.55 0 0 1 7-1.39c1.85.16 3.67.57 5.51.87 1.55.24 3.1.51 4.65.77a1.91 1.91 0 0 1 1.59 1.37 1.24 1.24 0 0 1 0 .47l-1.14 6.79zm-10.67-1.14c2.11.35 4.22.7 6.33 1.07.32.05.44 0 .48-.29.3-1.81.6-3.63.91-5.44 0-.26 0-.37-.33-.42q-3-.48-6-1a11.11 11.11 0 0 0-3.77 0 4.85 4.85 0 0 0-3.81 2.54 7.49 7.49 0 0 0-.52 2c-.07.4-.07.41.4.48zM153 261.25l-7-1.17c-.49-.08-.49-.08-.42-.5.25-1.48.5-3 .74-4.45.05-.28.15-.39.49-.32.84.16 1.68.29 2.52.42.31.05.41.17.35.45-.12.58-.2 1.17-.31 1.76 0 .23 0 .33.31.38l7 1.15c1 .17 2 .36 3.06.54a4.41 4.41 0 0 0 .73.08 1.08 1.08 0 0 0 1.24-.95q.94-5.58 1.86-11.15c0-.3.15-.4.51-.33 1 .18 2 .35 3 .5.3.05.38.15.33.42-.64 3.78-1.26 7.55-1.9 11.33a3.93 3.93 0 0 1-3.34 2.92 7.76 7.76 0 0 1-2.76 0l-6.41-1.08z" transform="translate(-.98 -.52)"/><path class="a332b539-3cb2-4149-8599-3d0b02f50acb" d="m264 273-6.33-1c-.34-.06-.41-.17-.36-.46q.47-2.68.9-5.37c0-.21.06-.39.4-.33 2.25.39 4.52.74 6.77 1.17a8.48 8.48 0 0 1 4 1.85 4.27 4.27 0 0 1 1.54 4.2c0 .26-.1.52-.12.78s-.16.33-.46.28zM180.58 259.08l-6.3-1.06c-.47-.07-.47-.08-.4-.48a7.49 7.49 0 0 1 .52-2 4.85 4.85 0 0 1 3.81-2.54 11.11 11.11 0 0 1 3.77 0q3 .51 6 1c.31.05.38.16.33.42-.31 1.81-.61 3.63-.91 5.44 0 .29-.16.34-.48.29-2.11-.37-4.22-.72-6.33-1.07z" transform="translate(-.98 -.52)"/><path class="fec3fe0a-5562-4a75-a8e4-828d8a9071a3" d="M288.76 98c-1 1.76-1.48 4.49-1.48 8.1 0 4.32.68 7.67 2.17 10a6.24 6.24 0 0 0 4.45 2.81 4.89 4.89 0 0 0 3.23-.48 6.07 6.07 0 0 0 2.39-3.45 18.92 18.92 0 0 0 1-6.6 23.55 23.55 0 0 0-.92-7.65 9.06 9.06 0 0 0-2.33-3.9 6.48 6.48 0 0 0-3.3-1.53h.03a4.74 4.74 0 0 0-5.24 2.7zM207.55 85.4c-1 1.75-1.44 4.46-1.44 8 0 4.29.7 7.62 2.17 9.87a6.2 6.2 0 0 0 4.39 2.79 4.68 4.68 0 0 0 3.18-.49 6 6 0 0 0 2.34-3.42 19 19 0 0 0 1-6.56 23.62 23.62 0 0 0-.93-7.58 8.92 8.92 0 0 0-2.31-3.87 6.35 6.35 0 0 0-3.25-1.52h-.05a4.64 4.64 0 0 0-5.1 2.78z" transform="translate(-.98 -.52)"/><path d="m122.75 106.83-1.91.64-.63 1.07.86 2.73 2.13.34.64 1.51 1.5.24 3.19-1.15-1.3-3.26-1.7.44-1.28-.21-1.5-2.35z"/><path d="M134.16 105.94v-1.18s-1-.25-1.07-.4-.85.1-.85.1v1.17l1.07.88z" transform="translate(-.98 -.52)"/><path d="m128.91 102.15.63-1.79-.64-1.51-2.14-.1-.84 1.75.86 1.55 2.13.1z"/><path d="M125.71 76.32a2.53 2.53 0 0 0-.85-.37l-.64.38-.22.67a3.18 3.18 0 0 0 1.07.87c.48.2.59-.14.59-.14l.48-.4a3.33 3.33 0 0 0-.43-1.01zM128.74 86.23a4.2 4.2 0 0 0 1.26 1.56 6.2 6.2 0 0 0 3.31.69c.59 0 1.39-.49 2.24-1.89a4.63 4.63 0 0 0 .58-2.33 10 10 0 0 0-.23-2.22 4.13 4.13 0 0 0-.53 1.08 9.35 9.35 0 0 1-1.08 2.88 3.52 3.52 0 0 1-3.3 1 4 4 0 0 1-2.25-.77z" transform="translate(-.98 -.52)"/><path d="M90.1 58.31c-12.31 11.86-12.16 34.17.31 49.87s32.67 19 45.09 7.17 12.39-34.28-.21-50.08-32.83-18.87-45.19-6.96zm29.9-.81a22.26 22.26 0 0 0-2.68 1.5c.21 0 1.91.53 1.91.53l-3.39 1.83 3.83.36-10.19 5v.47l11.08 1-11 7v2.59l8.33.16s-2.24 1.07-2.55 1.2a14.26 14.26 0 0 1 2 .24l-1.16.61 2 .32L106 88.08l-.38-28.31zm-32.16 8.94 2.1-2.5 8.32 8.12 2-13.64.45 4.14 1-2 .22 1.93 1.48-1.9.38 24.82-12-12S87.32 85 87.32 85.16zm10.92 46C96.7 110.72 93.9 108 93.9 108a20.53 20.53 0 0 1-5.47-14.92c.33-10.63 6.6-9.7 7.36-9.61a9 9 0 0 1 5.4 2.65l3.56 9.06s-5.75-5.64-8.94-6.11-4.29 2.62-4.2 5.21a15.79 15.79 0 0 0 3.39 8.27 16.27 16.27 0 0 0 4.78 4L98.42 101l-3.42-.78L96.29 99l-1.9-.53 2.11-1.55-1.28-.44 6.35-1.11 3.09 21.39s-3.83-2.61-5.9-4.33zm14.53 3.08-1.81-2 1.45 3.19-9.84-15.89 12-16.46 7.7 8a7.42 7.42 0 0 0-1.06-.4c-.11 0 1.72 3.09 1.72 3.09l-2.35-1.31 1.29 2.09-7.9-4.3-.63.6 5.14 10.24-10.42-2.12 5.8 13.14-2.13-.81zm24.09-6.52-9.95 8.09-6 .44L118 114l.17-8.43 8.25-10.23L138 97.11zm2.69-21.75-6.17 7.29-4.9-2.61-6.44-10-3.67-9.3 5.11-7.44 8.77 4 6.47 10.93z" transform="translate(-.98 -.52)"/><path d="M130.84 76.41a6.09 6.09 0 0 0 .68-1.25 13.49 13.49 0 0 0-.91-1.86l-1.07-.16-.85 1.28.75 1.72z" transform="translate(-.98 -.52)"/><path class="a7e263ea-8307-4847-bfc8-22f1ee74aa41" d="m124 65.19-5.08 7.47 3.67 9.3 6.44 10 4.92 2.65 6.17-7.29-.88-7.22-6.47-10.93zm5.59 8 1.07.16a13.49 13.49 0 0 1 .91 1.86 6.09 6.09 0 0 1-.68 1.25l-1.4-.27-.75-1.72zm-3.87 4.59s-.11.34-.59.14A3.18 3.18 0 0 1 124 77l.21-.67.64-.38a2.53 2.53 0 0 1 .85.37 3.33 3.33 0 0 1 .44 1zm8.62 8.3a9.35 9.35 0 0 0 1.11-2.91 4.13 4.13 0 0 1 .53-1.08 10 10 0 0 1 .23 2.22 4.63 4.63 0 0 1-.58 2.33c-.85 1.4-1.65 1.87-2.24 1.89a6.2 6.2 0 0 1-3.31-.69 4.2 4.2 0 0 1-1.29-1.56 4 4 0 0 0 2.25.84 3.52 3.52 0 0 0 3.25-1.12zM103.88 85.44l-.38-24.82-1.5 1.9-.22-1.93-1 2-.45-4.14-2 13.64-8.32-8.12-2.1 2.5-.52 18.72c0-.12 4.59-11.74 4.59-11.74zM115.32 79.17z" transform="translate(-.98 -.52)"/><path class="a7e263ea-8307-4847-bfc8-22f1ee74aa41" d="m118.17 80.34-2-.32 1.16-.61a14.26 14.26 0 0 0-2-.24c.31-.13 2.55-1.2 2.55-1.2l-8.33-.16v-2.59l11-7-11.08-1v-.47l10.19-5-3.83-.36 3.39-1.83s-1.7-.5-1.91-.53A22.26 22.26 0 0 1 120 57.5l-14.4 2.27.4 28.31z" transform="translate(-.98 -.52)"/><path class="fa912dfd-3c11-44c2-bf8d-180ad0188276" d="m95.22 96.49 1.28.44-2.11 1.55 1.9.53-1.29 1.21 3.39.77 1.31 5.61a16.27 16.27 0 0 1-4.78-4 15.79 15.79 0 0 1-3.34-8.27c-.09-2.59 1-5.67 4.2-5.21s8.94 6.11 8.94 6.11l-3.56-9.06a9 9 0 0 0-5.4-2.65c-.76-.09-7-1-7.36 9.61A20.53 20.53 0 0 0 93.9 108s2.8 2.72 4.86 4.43 5.9 4.34 5.9 4.34l-3.09-21.39z" transform="translate(-.98 -.52)"/><path class="fa912dfd-3c11-44c2-bf8d-180ad0188276" d="m108.6 100.25 10.4 2.12-5.15-10.23.63-.6 7.9 4.3-1.29-2.09 2.35 1.31s-1.81-3.06-1.7-3.06a7.42 7.42 0 0 1 1.06.4l-7.7-8-12 16.46 9.84 15.89-1.45-3.19 1.81 2-1-2.93 2.13.81z" transform="translate(-.98 -.52)"/><path class="fa912dfd-3c11-44c2-bf8d-180ad0188276" d="M118.19 105.53 118 114l3.42 3.61 6-.44 9.95-8.09.63-11.97-11.56-1.81zm14.05-1.07s.78-.26.85-.1 1.07.4 1.07.4v1.18l-.85.57-1.07-.88zm-4.5-5.19 2.13.1.65 1.52-.63 1.78-2.14-.1-.86-1.55zm.47 10.2 1.29 3.26-3.18 1.15-1.5-.24-.64-1.51-2.13-.34-.87-2.73.64-1.07 1.91-.64 1.5 2.35 1.28.21z" transform="translate(-.98 -.52)"/><path class="ad5f29ae-dcaf-414b-9ea9-8e89afb96831" d="m278.43 133.21-18.23-2.89a10.61 10.61 0 0 1-1.8-.41 12.33 12.33 0 0 1-1.6-.57c-1-.44-1.15-.75-1.15-1v-1.12l22.77 3.61v-1.08l-22.78-3.6v-.8c.14-.37.28-.64 1-.76a11.41 11.41 0 0 1 1.68-.1 17.3 17.3 0 0 1 2 .22l18.07 2.85v-1l-18.07-2.85a19.13 19.13 0 0 0-2.13-.21 10.52 10.52 0 0 0-1.74.09 3.11 3.11 0 0 0-1.25.45 1.5 1.5 0 0 0-.57.83v3.43a1.53 1.53 0 0 0 .42 1 4.54 4.54 0 0 0 1.58 1.14 11.34 11.34 0 0 0 1.65.62 11 11 0 0 0 1.89.43l18.2 2.89z" transform="translate(-.98 -.52)"/><path class="ad5f29ae-dcaf-414b-9ea9-8e89afb96831" d="m227.03 119.09 11.38 1.8v6.68l1 .16v-6.69l11.43 1.81v-1.1L227.03 118v1.09z"/><path class="ad5f29ae-dcaf-414b-9ea9-8e89afb96831" d="M199.05 116.12c0 1.38-1.2 1.06-2 .93l-2-.32-15.72-2.49c-.78-.12-2-.18-2-1.55v-2.18l-1-.16v2.28c0 2.07 1.59 2.5 2.86 2.7l8.43 1.33v3.21l1 .16v-3.21l6.54 1 2.1.34c1.27.2 2.86.27 2.85-1.81v-2.25l-1-.15zM173.06 114.06a7.32 7.32 0 0 0-.69-.5 7 7 0 0 0-.82-.41 7.94 7.94 0 0 0-2-.54l-6.51-1-8.04-1.32a7 7 0 0 1-2.39-.82c-.47-.28-.75-.55-.75-.76s.28-.39.74-.53a5.6 5.6 0 0 1 2.39-.08l18.78 3V110L155 107a6.71 6.71 0 0 0-2.76.08c-.85.25-1.38.76-1.38 1.48a2.45 2.45 0 0 0 1.39 1.9 7.68 7.68 0 0 0 2.76 1l8.14 1.29 6.5 1a7.42 7.42 0 0 1 1.72.48 6.15 6.15 0 0 1 .68.34c.16.12.33.23.47.35a.76.76 0 0 1 .28.41c0 .18-.3.36-.75.52a6 6 0 0 1-2.39.06L151.11 113v1.11l18.5 2.93a7 7 0 0 0 2.77-.07c.85-.26 1.39-.77 1.38-1.46a2 2 0 0 0-.7-1.45zM224.9 122.26a7.09 7.09 0 0 0-.68-.5 8.22 8.22 0 0 0-.84-.42 7.93 7.93 0 0 0-1.94-.54l-6.57-1-8.22-1.3a7.39 7.39 0 0 1-2.42-.82c-.47-.29-.75-.56-.75-.77s.28-.4.75-.53a5.57 5.57 0 0 1 2.42-.09l18.94 3v-1.12l-19-3a6.88 6.88 0 0 0-2.79.08c-.87.25-1.39.76-1.39 1.49a2.45 2.45 0 0 0 1.4 1.9 7.41 7.41 0 0 0 2.79 1l8.22 1.3 6.57 1a8 8 0 0 1 1.73.49c.24.11.45.22.67.34s.33.23.47.36.29.3.29.4c0 .18-.31.37-.79.53a5.86 5.86 0 0 1-2.37.06l-18.69-3v1.11l18.69 3a7 7 0 0 0 2.78-.08c.85-.26 1.4-.77 1.4-1.47a2 2 0 0 0-.67-1.42zM305.44 130.74a.3.3 0 0 0-.21 0l-1.43.61-10 3.94c-.53.2-.6.08-1-.19l-11.23-8.08a.71.71 0 0 0-.34-.16.43.43 0 0 0-.51.45v7.28l1 .16v-6.31l10.81 7.69.15.1a1.13 1.13 0 0 0 1.2.19h.14l11-4.25v6.3l1 .16v-7.28a.64.64 0 0 0-.58-.61z" transform="translate(-.98 -.52)"/><path class="ad5f29ae-dcaf-414b-9ea9-8e89afb96831" d="M304.46 130.22z"/><path class="ad5f29ae-dcaf-414b-9ea9-8e89afb96831" d="M237 108.61a16.94 16.94 0 0 0 4 3 13.36 13.36 0 0 0 5.25 1.68 24.09 24.09 0 0 0 5.21.14 19.54 19.54 0 0 0 4.61-1l.05-6.52a7.91 7.91 0 0 1 .17-1.8 1.47 1.47 0 0 1 .81-.86 4.63 4.63 0 0 1 1.87-.13v-.7l-11.76-1.83v.7l.62.1a3.17 3.17 0 0 1 1.51.62 2.63 2.63 0 0 1 .81.94 7.27 7.27 0 0 1 .19 2.06v6.73a11 11 0 0 1-1.74.32 7.69 7.69 0 0 1-1.79-.1 6.79 6.79 0 0 1-3.86-1.93 8 8 0 0 1-2.65-4.24 25.49 25.49 0 0 1-.81-6.77 23.46 23.46 0 0 1 .74-6 7.54 7.54 0 0 1 2.55-4.25 5.69 5.69 0 0 1 4.49-1c1.89.29 2.85 1.12 4.42 2.69a14.21 14.21 0 0 1 3.59 6.35l.67.11v-9.28l-.67-.1a2.83 2.83 0 0 1-.79 1.39 1.09 1.09 0 0 1-.91.25 10.92 10.92 0 0 1-2.08-1.05 14.63 14.63 0 0 0-5-1.94c-3.87-.6-7.09.26-9.62 2.61a12.12 12.12 0 0 0-3.88 9.43 15.75 15.75 0 0 0 1.23 6.21 16.52 16.52 0 0 0 2.77 4.17zM208.28 103.31c-1.47-2.25-2.16-5.58-2.17-9.87 0-3.58.47-6.29 1.44-8a4.64 4.64 0 0 1 5.09-2.75V81.2h-.26a10.66 10.66 0 0 0-9.45 2.17 11.13 11.13 0 0 0-3.82 9 15.87 15.87 0 0 0 3 9.34 15.22 15.22 0 0 0 10.57 6.41v-2a6.2 6.2 0 0 1-4.4-2.81z" transform="translate(-.98 -.52)"/><path class="ad5f29ae-dcaf-414b-9ea9-8e89afb96831" d="M222.27 86.3a14.77 14.77 0 0 0-9.63-5.1v1.45h.05a6.35 6.35 0 0 1 3.25 1.52 8.92 8.92 0 0 1 2.31 3.87 23.62 23.62 0 0 1 .93 7.58 19 19 0 0 1-1 6.56 6 6 0 0 1-2.34 3.42 4.68 4.68 0 0 1-3.18.49v2c4.55.72 8.07-.39 10.56-3.3a12.42 12.42 0 0 0 2.82-8.28 15.33 15.33 0 0 0-3.77-10.21z" transform="translate(-.98 -.52)"/><path class="ad5f29ae-dcaf-414b-9ea9-8e89afb96831" d="m211.66 80.67.01 1.46-.01-1.46z"/><path class="ad5f29ae-dcaf-414b-9ea9-8e89afb96831" d="m198.83 97.79-.71-.12a6.59 6.59 0 0 1-3.06 4.27 5.05 5.05 0 0 1-4.51 1l-1.55-.24a3.39 3.39 0 0 1-1.61-.56 1.88 1.88 0 0 1-.66-.91 11.15 11.15 0 0 1-.2-2.67v-7.7a4.44 4.44 0 0 1 2.27.85 5.23 5.23 0 0 1 1.7 2.18 11.86 11.86 0 0 1 1 3.83l.73.12V84.08l-.74-.11a8.29 8.29 0 0 1-1.38 4.4 2.63 2.63 0 0 1-3 1.12l-.51-.08V79.06l2.65.4a16.67 16.67 0 0 1 4 1 7 7 0 0 1 2.75 2.21 11 11 0 0 1 1.54 4.33l.71.11v-7.77L176.7 76v.72l.87.14a3.62 3.62 0 0 1 2 .85 2.12 2.12 0 0 1 .71 1.14 13.51 13.51 0 0 1 .1 2.2v17.26a7.65 7.65 0 0 1-.21 2.4 1.34 1.34 0 0 1-.75.82 3.41 3.41 0 0 1-1.79.1l-.87-.13v.72l21 3.29z" transform="translate(-.98 -.52)"/><path class="ad5f29ae-dcaf-414b-9ea9-8e89afb96831" d="M185.53 78.53z"/><path class="ad5f29ae-dcaf-414b-9ea9-8e89afb96831" d="m176.27 75.94-8-1.23v.73a3.8 3.8 0 0 1 2.9 1.53 5.66 5.66 0 0 1 .69 3.29v11.27l-13.18-18.31-8.45-1.3v.72c.8.15.4.22.85.5a6.76 6.76 0 0 1 1.48 1.6l.59.79.07 18.47a3.63 3.63 0 0 1-.86 2.81 3.92 3.92 0 0 1-3.07.39v.73l9.46 1.48v-.72l-.63-.1a4.67 4.67 0 0 1-2.42-1.15 4.24 4.24 0 0 1-1.06-3.22l-.06-16.62 18.15 24.6.66.11-.06-21.81a7.05 7.05 0 0 1 .32-2.57 1.79 1.79 0 0 1 .92-1 2.86 2.86 0 0 1 1.7-.28z" transform="translate(-.98 -.52)"/><path class="ad5f29ae-dcaf-414b-9ea9-8e89afb96831" d="m292.92 118.32-.01 2.02.01-2.02z"/><path class="ad5f29ae-dcaf-414b-9ea9-8e89afb96831" d="M297.3 96.76a9.06 9.06 0 0 1 2.33 3.9 23.55 23.55 0 0 1 .92 7.65 18.92 18.92 0 0 1-1 6.6 6.07 6.07 0 0 1-2.39 3.45 4.89 4.89 0 0 1-3.23.48v2c4.63.73 8.2-.39 10.77-3.32a12.44 12.44 0 0 0 2.9-8.33 15.24 15.24 0 0 0-3.84-10.3 15 15 0 0 0-9.76-5.14v1.47a6.48 6.48 0 0 1 3.3 1.54z" transform="translate(-.98 -.52)"/><path class="ad5f29ae-dcaf-414b-9ea9-8e89afb96831" d="M293.87 120.86v-2a6.24 6.24 0 0 1-4.45-2.81c-1.49-2.28-2.18-5.63-2.17-10 0-3.61.49-6.34 1.48-8.1a4.74 4.74 0 0 1 5.27-2.73v-1.47h-.26a10.92 10.92 0 0 0-9.62 2.18 11.2 11.2 0 0 0-3.91 9.08 15.93 15.93 0 0 0 3 9.42 15.48 15.48 0 0 0 10.66 6.43z" transform="translate(-.98 -.52)"/><path class="ad5f29ae-dcaf-414b-9ea9-8e89afb96831" d="M292.91 120.34zM266.42 91.04z"/><path class="ad5f29ae-dcaf-414b-9ea9-8e89afb96831" d="M276 114.63a5.22 5.22 0 0 1-4.59 1l-1.56-.24a3.64 3.64 0 0 1-1.63-.57 1.93 1.93 0 0 1-.67-.92 10.71 10.71 0 0 1-.18-2.69v-7.76a4.65 4.65 0 0 1 2.31.86 5.25 5.25 0 0 1 1.72 2.2 12 12 0 0 1 1 3.86l.74.12V96.63l-.74-.11A8.39 8.39 0 0 1 271 101a2.66 2.66 0 0 1-3 1.12l-.52-.08V91.56l2.69.42a16.62 16.62 0 0 1 4.05 1 7.12 7.12 0 0 1 2.78 2.24 10.86 10.86 0 0 1 1.58 4.35l.72.11v-7.82l-21.88-3.38v.73l.89.14a3.65 3.65 0 0 1 2 .85 2.17 2.17 0 0 1 .72 1.16 13.58 13.58 0 0 1 .1 2.21v17.39a7.33 7.33 0 0 1-.22 2.42 1.36 1.36 0 0 1-.77.82 3.38 3.38 0 0 1-1.81.1l-.89-.14v.73l21.31 3.35 1.14-7.79-.72-.12a6.77 6.77 0 0 1-3.17 4.3zM229.53 99.74a2.08 2.08 0 0 0 2.47-2.17 3.08 3.08 0 0 0-2.46-3h-.14a2.11 2.11 0 0 0-2.45 2.2 3 3 0 0 0 2.45 2.93z" transform="translate(-.98 -.52)"/></svg>