<svg xmlns="http://www.w3.org/2000/svg" xmlns:xlink="http://www.w3.org/1999/xlink" viewBox="0 0 470.58 67.66"><defs><style>.b0d4c444-2257-49d2-8731-169841c2d084{stroke:#9def48;stroke-miterlimit:10;fill:url(#b1786442-1914-4624-a8f5-8898ee77fe0b);}.bbc83295-4fce-461f-a799-996603de7946{fill:#9def48;}.b3f7ada9-1ba3-4f4c-b6ab-dd5537f79614{fill:#0097e0;}.f957d229-841c-4ef6-9c4f-a0f38774a1b9{fill:#0096df;}</style><linearGradient id="b1786442-1914-4624-a8f5-8898ee77fe0b" x1="0.5" y1="33.83" x2="470.08" y2="33.83" gradientUnits="userSpaceOnUse"><stop offset="0" stop-color="#032c02"/><stop offset="1" stop-color="#207a09"/></linearGradient></defs><g id="ec5c4e17-fe69-4a21-b6d6-95d7883eeb1a" data-name="calque3"><polygon class="b0d4c444-2257-49d2-8731-169841c2d084" points="0.5 6.04 102.57 6.04 108.7 0.5 150.44 0.5 158.35 6.04 461.77 6.24 470.08 16.13 470.08 59.84 50.94 59.84 42.83 67.16 8.02 67.16 0.5 59.84 0.5 6.04"/><path class="bbc83295-4fce-461f-a799-996603de7946" d="M59.06,24.64a16.32,16.32,0,0,0-2.34,8.18A16.41,16.41,0,0,0,59.06,41h2.7v4.07H56.87a18.25,18.25,0,0,1-4.22-12.26,18.18,18.18,0,0,1,4.22-12.25H81a18.18,18.18,0,0,1,4.22,12.25A18.25,18.25,0,0,1,81,45.08H76.13V41h2.72a16.48,16.48,0,0,0,2.32-8.19,16.39,16.39,0,0,0-2.32-8.18Z"/><path class="bbc83295-4fce-461f-a799-996603de7946" d="M113.54,34.84H96.62A17.49,17.49,0,0,0,98.83,41H119l2.34,4.07H96.64A17.62,17.62,0,0,1,92.5,34.84H88.66V30.79H92.5a17.51,17.51,0,0,1,4.14-10.22H121.3L119,24.64H98.83a17.33,17.33,0,0,0-2.21,6.15h16.92Z"/><path class="bbc83295-4fce-461f-a799-996603de7946" d="M151.38,45.08H127.23A18.2,18.2,0,0,1,123,32.82a18.13,18.13,0,0,1,4.22-12.25h24.15a18.18,18.18,0,0,1,4.22,12.25A18.25,18.25,0,0,1,151.38,45.08ZM149.21,41a16.48,16.48,0,0,0,2.32-8.19,16.39,16.39,0,0,0-2.32-8.18H129.42a16.32,16.32,0,0,0-2.34,8.18A16.41,16.41,0,0,0,129.42,41Z"/><path class="bbc83295-4fce-461f-a799-996603de7946" d="M201.78,30.79c.05.66.08,1.34.08,2a18.25,18.25,0,0,1-4.22,12.26H173.49a18.25,18.25,0,0,1-4.22-12.26,18.18,18.18,0,0,1,4.22-12.25h24.15a17.11,17.11,0,0,1,3.67,7.3h-4.37a18.55,18.55,0,0,0-1.47-3.23H175.68a16.32,16.32,0,0,0-2.34,8.18A16.41,16.41,0,0,0,175.68,41h19.79a17.83,17.83,0,0,0,2.19-6.17H182.89V30.79Z"/><path class="bbc83295-4fce-461f-a799-996603de7946" d="M230.16,34.84H213.24A17.49,17.49,0,0,0,215.45,41h20.13l2.34,4.07H213.26a17.68,17.68,0,0,1-4.14-10.24h-3.84V30.79h3.84a17.57,17.57,0,0,1,4.14-10.22h24.66l-2.34,4.07H215.45a17.33,17.33,0,0,0-2.21,6.15h16.92Z"/><path class="bbc83295-4fce-461f-a799-996603de7946" d="M268,45.08H243.85a18.25,18.25,0,0,1-4.22-12.26,18.18,18.18,0,0,1,4.22-12.25H268a18.18,18.18,0,0,1,4.22,12.25A18.25,18.25,0,0,1,268,45.08ZM265.83,41a16.48,16.48,0,0,0,2.32-8.19,16.39,16.39,0,0,0-2.32-8.18H246a16.32,16.32,0,0,0-2.34,8.18A16.41,16.41,0,0,0,246,41Z"/></g><g id="b771ddc0-fc4e-483a-8e57-05753368d3c6" data-name="snk"><path id="bf522099-0d88-402f-ac25-ab134b810d96" data-name="S" class="b3f7ada9-1ba3-4f4c-b6ab-dd5537f79614" d="M22.94,64.9c2.22,0,4-1.48,4-3.31V52.37a.47.47,0,0,1,.5-.42.45.45,0,0,1,.49.42V64.94h3.57v-14c0-1.84-1.84-3.32-4.06-3.32s-4.06,1.48-4.06,3.32v9.18a.47.47,0,0,1-.5.42.44.44,0,0,1-.49-.42V47.61h-3.5v14c0,1.83,1.8,3.31,4,3.31Z"/><polygon id="fa911eb2-f0d9-4c8a-b1a8-cfd1aaefe4cf" data-name="N" class="b3f7ada9-1ba3-4f4c-b6ab-dd5537f79614" points="18.91 46.58 31.45 46.58 31.45 42.17 23.57 42.17 31.45 33.77 31.45 29.18 18.91 29.18 18.91 33.59 26.75 33.59 18.91 41.99 18.91 46.58"/><polygon id="b0409ff1-c0b1-480f-b502-07a4e5a1e0b8" data-name="K" class="b3f7ada9-1ba3-4f4c-b6ab-dd5537f79614" points="24.42 23.74 18.91 23.74 18.91 28.23 31.45 28.23 31.45 23.74 25.9 23.74 31.45 16.61 31.45 10.86 25.2 18.98 18.91 10.86 18.91 16.61 24.42 23.74"/><path id="fa8f42d8-75a9-4a3c-827c-d869c0b70249" data-name="mark" class="f957d229-841c-4ef6-9c4f-a0f38774a1b9" d="M19.3,8.64a1.29,1.29,0,0,0-.39.91,1.31,1.31,0,0,0,.39.92,1.28,1.28,0,0,0,1.84,0,1.31,1.31,0,0,0,.39-.92,1.33,1.33,0,0,0-1.31-1.3,1.34,1.34,0,0,0-.92.39Zm1.7.14a1.12,1.12,0,0,1,0,1.55,1.13,1.13,0,0,1-.78.32,1.06,1.06,0,0,1-.78-.32,1.09,1.09,0,0,1-.31-.78,1,1,0,0,1,.31-.77,1.11,1.11,0,0,1,1.56,0Z"/><path id="a87aedbc-4747-4a14-89b0-2bdf654e1407" data-name="R" class="f957d229-841c-4ef6-9c4f-a0f38774a1b9" d="M20,9h0a.4.4,0,0,0-.39.39v.74h1.31V9.87H20.4V9.41a.16.16,0,0,1,.14-.17l.32,0V9l-.32,0a.48.48,0,0,0-.25.11A.27.27,0,0,0,20,9Zm-.21.92V9.34A.17.17,0,0,1,20,9.16H20a.17.17,0,0,1,.18.18v.53Z"/></g></svg>