<svg xmlns="http://www.w3.org/2000/svg" xmlns:xlink="http://www.w3.org/1999/xlink" viewBox="0 0 747.48 822.76"><defs><radialGradient id="e772b8b7-0a9a-43d5-a2ea-3f52758804a0" cx="121.61" cy="382.1" r="5.66" gradientTransform="matrix(1 0 0 .6 0 152.84)" xlink:href="#b45760c7-7f9a-4ca5-b991-2b675d3dedf6"/><radialGradient id="ffd544e4-e7d8-449b-9080-4e3b8c299571" cx="217.55" cy="416.02" r="5.66" xlink:href="#bcb1ada9-c349-4951-951d-bb5d7c5f0400"/><radialGradient id="f1b89b62-0f2c-420e-8e93-ac75997893a4" cx="195.83" cy="370.99" r="11.47" xlink:href="#bcb1ada9-c349-4951-951d-bb5d7c5f0400"/><radialGradient id="b45760c7-7f9a-4ca5-b991-2b675d3dedf6" cx="92.36" cy="393.88" r="5.66" gradientTransform="matrix(1 0 0 .6 0 157.55)" gradientUnits="userSpaceOnUse"><stop offset="0" stop-color="#0000ef"/><stop offset=".15" stop-color="#0000e9"/><stop offset=".34" stop-color="#0101d9"/><stop offset=".56" stop-color="#0101be"/><stop offset=".79" stop-color="#02029a"/><stop offset="1" stop-color="#020282"/></radialGradient><radialGradient id="a0210522-f2ad-4924-a64a-ba35fafbbeb1" cx="114.61" cy="393.88" r="5.66" xlink:href="#b45760c7-7f9a-4ca5-b991-2b675d3dedf6"/><radialGradient id="ba9d571f-abc6-4866-b261-c53f65e2a998" cx="133.17" cy="400.04" r="5.66" gradientTransform="matrix(1 0 0 .6 0 160.02)" xlink:href="#b45760c7-7f9a-4ca5-b991-2b675d3dedf6"/><radialGradient id="f5eff25e-ce12-4817-a270-8f88b45cb3bd" cx="139.21" cy="387.78" r="5.66" gradientTransform="matrix(1 0 0 .6 0 155.11)" xlink:href="#b45760c7-7f9a-4ca5-b991-2b675d3dedf6"/><radialGradient id="bcb1ada9-c349-4951-951d-bb5d7c5f0400" cx="65.88" cy="348.77" r="11.47" gradientUnits="userSpaceOnUse"><stop offset="0" stop-color="#fd6d66"/><stop offset=".78" stop-color="#b50a03"/></radialGradient><radialGradient id="afd663d7-4182-45ca-abd8-3d2873089bcd" cx="100.32" cy="382.53" r="5.66" gradientTransform="matrix(1 0 0 .6 0 153.01)" xlink:href="#b45760c7-7f9a-4ca5-b991-2b675d3dedf6"/><radialGradient id="a16092d7-b1ea-41af-a6d5-799a8ef3f719" cx="225.51" cy="404.67" r="5.66" xlink:href="#bcb1ada9-c349-4951-951d-bb5d7c5f0400"/><radialGradient id="b1fece4f-6f17-48c6-adea-ff35e59f39d9" cx="246.79" cy="404.24" r="5.66" xlink:href="#bcb1ada9-c349-4951-951d-bb5d7c5f0400"/><radialGradient id="ae380cb2-4cce-47c2-a790-09cfdd50d1b4" cx="264.4" cy="409.93" r="5.66" xlink:href="#bcb1ada9-c349-4951-951d-bb5d7c5f0400"/><radialGradient id="b16fe09a-7c99-43c4-9be4-5aff7a1fa112" cx="258.36" cy="422.19" r="5.66" xlink:href="#bcb1ada9-c349-4951-951d-bb5d7c5f0400"/><radialGradient id="b079614b-fdc6-4573-80e0-91e87f26ea78" cx="239.79" cy="416.02" r="5.66" xlink:href="#bcb1ada9-c349-4951-951d-bb5d7c5f0400"/><style>.fb11157d-56a2-4c50-a829-fc2c6807f721{fill:#373735}.a2029844-e77c-4763-b0be-5fff8520a0b6{fill:#121211}.a12eaaa3-e3d5-43d8-9742-afe896027663,.a2029844-e77c-4763-b0be-5fff8520a0b6,.a6cac29b-59bc-4e7c-884d-49a4de75cf05,.a7849600-ac06-412a-be0e-f5d439fa6f79,.ab96e577-db02-48af-a272-8c377f6e3a24,.b91c028a-708f-46db-8a74-c76ffcf059e2{stroke:#b5b5b5}.a12eaaa3-e3d5-43d8-9742-afe896027663,.a2029844-e77c-4763-b0be-5fff8520a0b6,.a6cac29b-59bc-4e7c-884d-49a4de75cf05,.a7849600-ac06-412a-be0e-f5d439fa6f79,.aa75269d-9895-49e3-952e-58dce4abc33e,.ab96e577-db02-48af-a272-8c377f6e3a24,.b91c028a-708f-46db-8a74-c76ffcf059e2,.f8ca0b00-a808-4146-a56d-ec3c7068e054,.fba139dc-5a83-47e1-a1bf-ba6f0cfab84d{stroke-miterlimit:10}.a12eaaa3-e3d5-43d8-9742-afe896027663,.a2029844-e77c-4763-b0be-5fff8520a0b6,.a6cac29b-59bc-4e7c-884d-49a4de75cf05,.ab96e577-db02-48af-a272-8c377f6e3a24,.b91c028a-708f-46db-8a74-c76ffcf059e2,.fba139dc-5a83-47e1-a1bf-ba6f0cfab84d{stroke-width:.5px}.aa75269d-9895-49e3-952e-58dce4abc33e{fill:#443840;stroke:#090000}.fba139dc-5a83-47e1-a1bf-ba6f0cfab84d{stroke:#090000}.aa75269d-9895-49e3-952e-58dce4abc33e{stroke-width:.75px}.fba139dc-5a83-47e1-a1bf-ba6f0cfab84d{fill:#6b0c05}.f05c5743-ad65-498e-9326-f2b98a6b168d{fill:#86382f}.f8ca0b00-a808-4146-a56d-ec3c7068e054{stroke:#373737}.a7849600-ac06-412a-be0e-f5d439fa6f79{fill:#eb0009}.a6cac29b-59bc-4e7c-884d-49a4de75cf05{fill:#dc6e05}.b07f8364-60c9-453e-abb9-2ade4a6347c0{fill:#0060a8}.a12eaaa3-e3d5-43d8-9742-afe896027663{fill:#12e600}.b91c028a-708f-46db-8a74-c76ffcf059e2{fill:#0b47ce}.a30ebacf-483b-4ac3-a52b-b21b029784bb,.ab96e577-db02-48af-a272-8c377f6e3a24{fill:#282826}.a33b5eba-bbfc-4cb2-8e6b-0c1236a73fa8{fill:#ae7a82}.ab8270d2-a1e6-49a5-991d-357541f337f3{fill:url(#bcb1ada9-c349-4951-951d-bb5d7c5f0400)}.ae01a59f-3e4d-4659-9b0d-2645da79b168{fill:url(#f1b89b62-0f2c-420e-8e93-ac75997893a4)}.bd187d18-3f1c-457c-bbba-5d6d3106007a{fill:#0000ef}.e894eb10-308a-4165-ad4d-816dc971c493{fill:#930303}.f7842e2d-6e6e-4b96-89be-68da33656d7c{fill:#e7e7e7}.ba15b39e-a3e7-406e-8715-f8d7401ee5b0{fill:#2c2b29}.ab7f7d62-a8cd-48d9-823e-0138922deda3{fill:red}</style></defs><g id="fd60b613-39ed-45fa-b436-132f38219eab" data-name="Calque 1"><path id="b8e0e22f-3d22-437d-87a1-325f41eae8d0" data-name="ombre" style="opacity:.5;fill:#373735" d="m453 589.31 21.52-5.91h11.86l1.59 2.96 237.36 43.3h11.08l11.07 31.39-46.41 37.71-46.42 13.19-8.18-1.32.27-1.85-13.98-2.63-83.61 27.95-73.32 51.57-22.83 6.82-7.76-1.16v-2.63l-16.09-3.03-129.99 34.37L453 589.31z"/><g id="b7fac5f2-b37f-4840-a1ee-8fe4ac9cc3f5" data-name="bottom"><path class="fb11157d-56a2-4c50-a829-fc2c6807f721" d="m36.97 455.08 224.91 39.62v4.35l25.71 6.13-.39 311.34-248.24-47.27-1.99-314.17z"/><path class="a2029844-e77c-4763-b0be-5fff8520a0b6" d="m202 526.54-78.38-13.74c-3 .19-4.26 3.56-4.26 3.56l.2 85c.69 2.18 3.86 5 3.86 5l74.27 13.46c5.14.49 7.52-5.25 7.52-5.25v-82.69a7.12 7.12 0 0 0-3.21-5.34zm-49.9 22.55-18.69-3.46v-20l2.27-1.88 18.1 3.07-1.78 2.69zm31.45 6.13-18.69-3.46v-20l2.27-1.87 18.1 3.06-1.78 2.67z"/><path class="aa75269d-9895-49e3-952e-58dce4abc33e" d="m135.68 523.77-2.27 1.88v19.98l18.69 3.46-.1-19.58 1.78-2.67-18.1-3.07zM167.13 529.9l-2.27 1.88v19.98l18.69 3.46-.1-19.58 1.78-2.67-18.1-3.07z"/><path class="fba139dc-5a83-47e1-a1bf-ba6f0cfab84d" d="M141.12 543.55V530.7l8.01 1.78v12.56l-8.01-1.49zM172.18 549.39v-12.86l8.01 1.78v12.56l-8.01-1.48z"/><path d="M136.21 543.68v-15.22l2.04.39v15.16l-2.04-.33zM167.66 549.22v-15.23l2.04.4v15.16l-2.04-.33z"/><path class="f05c5743-ad65-498e-9326-f2b98a6b168d" d="M141.38 531.21v-.35l7.47 1.8.01.43-7.48-1.88zM172.44 537.14v-.29l7.46 1.64.02.35-7.48-1.7z"/><circle cx="193.37" cy="575.37" r="4.25" style="fill:#8b8b8b;stroke-width:.75px;stroke:#090000;stroke-miterlimit:10"/><path class="f8ca0b00-a808-4146-a56d-ec3c7068e054" d="M137.26 599.24v-11.28l11.97 2.18v11.3l-11.97-2.2zM168.52 604.77V593.5l11.96 2.17v10.88l-11.96-1.78z"/></g><g id="b64b1e5e-45bb-4b31-8442-873203be9977" data-name="t molding"><path class="a7849600-ac06-412a-be0e-f5d439fa6f79" d="m11.46 450.59-.79-39.76L1 407.66v45.1l27.89 5.54c.59 103.55 1 207.6 1.58 311.15a6.18 6.18 0 0 0 3.53 2.19 12.58 12.58 0 0 0 5 0l-2-316.56zM272.36 497v-41.27l-10.28-1.19-.2 44.51 25.71 6.13s-1.51 313.85 0 315.69 8.77 1.32 8.77 1.32l.93-319.91zM79.7 346.94l-8.15-1.3 16.26-218.56 9.03 1.51L79.7 346.94zM330.22 389.37l9.1 1.28 18.49-224.31h-26.37l-.26-90.92-10.06-1.84v94.84l6.03 1.09h20.28l-17.21 219.86z"/><path class="a7849600-ac06-412a-be0e-f5d439fa6f79" d="M88.49 127.19s-28.17-.35-29.11-.85c0-31.21.06-62.83 0-94l9.36 2.64.48 89.02z"/><g id="b5616f12-c0ec-429e-bda5-ec5d07af1472" data-name="clair"><path class="a7849600-ac06-412a-be0e-f5d439fa6f79" d="m.98 407.66 9.69 3.17 68.31-64.06-8.11-1.94L.98 407.66zM262.08 454.54l10.28 1.19 66.96-65.87-8.62-1.6-68.62 66.28zM112.54.52 59.4 32.3l9.36 2.64 52.58-31.12 2.74-1.62-2.58-.36-8.96-1.32zM384.71 41.14l-11.21-.8-52.38 33.24 10.06 1.84 53.53-34.28z"/></g></g><g id="be6aabfa-ce05-4e11-ac8d-7555a972950f" data-name="side"><path class="a2029844-e77c-4763-b0be-5fff8520a0b6" d="m454.11 309.16.63-159.63-70.03-108.39-53.53 34.28.26 90.92h26.37l-18.49 224.31-66.96 65.08V497l24.93 5.28-.93 319.91 8.25-6.32 149.64-543.7-.21 21.51-142.09 516.55-1.61 1.24 6.94-5.32 136.83-496.99zM325.04 799.67l-7.76 6.48 11.99-9.2 124.7-453.24.05-12.13-128.98 468.09zM336.41 791.47l-1.32 1.02 6.86-5.27 111.8-407.64v21.25l.22-57.12-.22 24-117.34 423.76zM343.97 785.67l108.59-83.28 1.18-299.84L348.38 782.3l-4.41 3.37z"/><path style="fill:#bf0000;stroke-width:.5px;stroke-miterlimit:10;stroke:#b5b5b5" d="m304.61 815.87 5.73-4.4-5.73 4.4z"/><path style="fill:#eb0009;stroke-width:.5px;stroke-miterlimit:10;stroke:#b5b5b5" d="m454.04 293.68.21-21.51-149.64 543.7 5.73-4.4 1.61-1.24 142.09-516.55z"/><path class="a6cac29b-59bc-4e7c-884d-49a4de75cf05" d="M454.11 331.26v-22.1l-.09 22.42.09-.32zM317.28 806.15z"/><path style="fill:#0060a8;stroke-width:.5px;stroke-miterlimit:10;stroke:#b5b5b5" d="m454.02 331.58.09-22.42-136.83 496.99 7.76-6.48 128.98-468.09z"/><path class="a12eaaa3-e3d5-43d8-9742-afe896027663" d="M453.97 343.71zM329.27 796.95l5.82-4.46-5.82 4.46z"/><path style="fill:#0084e4;stroke-width:.5px;stroke-miterlimit:10;stroke:#b5b5b5" d="m335.09 792.49 1.32-1.02 117.34-423.76.22-24-124.7 453.24 5.82-4.46z"/><path class="b91c028a-708f-46db-8a74-c76ffcf059e2" d="m341.95 787.22 2.02-1.55-2.02 1.55zM453.75 402.52v-1.69l-.01 1.72.01-.03z"/><path style="fill:#fff;stroke-width:.5px;stroke-miterlimit:10;stroke:#b5b5b5" d="m341.95 787.22 2.02-1.55 4.41-3.37 105.36-379.75.01-1.72v-21.25l-111.8 407.64z"/></g><g id="af2b4751-8b6b-4b9d-a41e-3ad9a00233f3" data-name="panel"><path class="ab96e577-db02-48af-a272-8c377f6e3a24" d="m11.46 450.59 250.42 44.11.2-40.16-251.41-43.71.79 39.76z"/><path class="fb11157d-56a2-4c50-a829-fc2c6807f721" d="m80.35 345.73-69.68 65.1 251.41 43.71 68.62-66.28-250.35-42.53z"/></g><g id="f9c168f6-bc5e-48fe-9eca-ecb0f3694057" data-name="ecran"><path class="ab96e577-db02-48af-a272-8c377f6e3a24" d="M96.84 129.36 79.7 347.72l250.52 42.43L347.82 168zm224.28 67.76c0 .2-.29.32-.48.49l-10.43 144.83a35.43 35.43 0 0 1-4.3 3.78l1.4.29v10.7s-1.4 4.75-11.08 2.64c-11.19-2.44-178.55-31.91-178.55-31.91l8.72-6.78v-1.39s-2.46.52-6-7l-12.48 2.77h-4l11.34-158.77s4-6.85 10.81-6.59 191.16 30.59 191.16 30.59 6.17 1.07 3.89 16.35z"/><path d="M317.28 180S133 149.66 126.12 149.4s-10.81 6.6-10.81 6.6l-11.74 160.08h4.35l12.29-2.68c-.1-.23-.74-1.57-.85-1.8L131 166.54s2.11-5.54 7.12-7.38l177.49 27.16a20.77 20.77 0 0 1 5.11 9.76l-.05.75c.19-.17.62.66.66.47 3.23-14.06-4.05-17.3-4.05-17.3z" style="fill:#151312"/><path d="m125.32 320-8.56 8s164.63 29.3 178.61 32.24c10.36 2.17 14.43-3.58 14.43-3.58l.61-7.37.39-7.71-4.89 3.84a20.85 20.85 0 0 1-7.73 3.87z" style="fill:#555353"/><path d="M319.5 197.81c.45-.36.83-.69 1.14-1l.66-.52a20.31 20.31 0 0 0-5.72-10l-177.49-27.13c-5 1.84-7.12 7.38-7.12 7.38L119.36 311.6l.32.66c3.54 7.52 6.28 8 6.28 8l.44.08 171.78 28.93a20.85 20.85 0 0 0 7.73-3.87c2.57-1.91 4.89-3.84 4.89-3.84l10.5-145.29c-.44.46-1.05.96-1.8 1.54z" style="fill:#008aa6"/></g><g id="f0696bc4-1ed7-4efa-9dca-c68ae2db563c" data-name="top"><path id="ee93ec64-9f71-4efa-ac56-da289d22ca43" data-name="marquee" class="ab96e577-db02-48af-a272-8c377f6e3a24" d="m69.22 124.02 251.47 39.03.43-89.47L68.76 34.94l.46 89.08z"/><path style="stroke-miterlimit:10;stroke:#b5b5b5;fill:#373735" d="m129.81 3.16-5.73-.96-55.32 32.74 252.36 38.64 52.38-33.24L129.81 3.16z"/></g><g id="bce8fbbc-27e9-4e48-9bd6-af6107bec3c9" data-name="stickp1"><path class="a30ebacf-483b-4ac3-a52b-b21b029784bb" d="M68.92 377.27v5.16H62.4v-5.16c-5.06.64-8.77 2.7-8.77 5.16 0 3 5.38 5.35 12 5.35s12-2.39 12-5.35c.06-2.43-3.63-4.52-8.71-5.16z"/><path class="a33b5eba-bbfc-4cb2-8e6b-0c1236a73fa8" d="M68.92 377.27v-17.78a12.18 12.18 0 0 1-3 .39 12.4 12.4 0 0 1-3.48-.49v17.88a26.67 26.67 0 0 1 6.52 0z"/><path class="a33b5eba-bbfc-4cb2-8e6b-0c1236a73fa8" d="M68.92 382.43v-5.16a26.67 26.67 0 0 0-6.52 0v5.16z"/><path class="ab8270d2-a1e6-49a5-991d-357541f337f3" d="M68.92 358.89v.6a11.24 11.24 0 0 0 8.77-10.72c0-6.14-5.29-11.11-11.81-11.11s-11.82 5-11.82 11.11a11.22 11.22 0 0 0 8.34 10.62v-.5z"/><path class="a33b5eba-bbfc-4cb2-8e6b-0c1236a73fa8" d="M68.92 359.49v-.6H62.4v.5a12.4 12.4 0 0 0 3.48.49 12.18 12.18 0 0 0 3.04-.39z"/><path class="ab8270d2-a1e6-49a5-991d-357541f337f3" d="M68.92 359.49v-.6H62.4v.5a12.4 12.4 0 0 0 3.48.49 12.18 12.18 0 0 0 3.04-.39z"/></g><g id="f7a54acb-9d66-436e-9211-753d19108594" data-name="stickp2"><path class="a30ebacf-483b-4ac3-a52b-b21b029784bb" d="M198.88 399.49v5.16h-6.53v-5.16c-5 .64-8.77 2.7-8.77 5.16 0 3 5.39 5.35 12 5.35s12-2.39 12-5.35c.07-2.46-3.64-4.52-8.7-5.16z"/><path class="a33b5eba-bbfc-4cb2-8e6b-0c1236a73fa8" d="M198.88 399.49v-17.78a12.2 12.2 0 0 1-3 .39 12.83 12.83 0 0 1-3.48-.49v17.88a26.75 26.75 0 0 1 6.53 0z"/><path class="a33b5eba-bbfc-4cb2-8e6b-0c1236a73fa8" d="M198.88 404.65v-5.16a26.75 26.75 0 0 0-6.53 0v5.16z"/><path class="ae01a59f-3e4d-4659-9b0d-2645da79b168" d="M198.88 381.11v.6a11.24 11.24 0 0 0 8.77-10.71c0-6.14-5.29-11.11-11.82-11.11S184 364.85 184 371a11.22 11.22 0 0 0 8.34 10.62v-.5z"/><path class="a33b5eba-bbfc-4cb2-8e6b-0c1236a73fa8" d="M198.88 381.71v-.6h-6.53v.5a12.83 12.83 0 0 0 3.48.49 12.2 12.2 0 0 0 3.05-.39z"/><path class="ae01a59f-3e4d-4659-9b0d-2645da79b168" d="M198.88 381.71v-.6h-6.53v.5a12.83 12.83 0 0 0 3.48.49 12.2 12.2 0 0 0 3.05-.39z"/></g><g id="b8f6bca8-8d4b-4c1c-bdc8-389a4151d12f" data-name="boutons P1"><g id="becee8f8-e37a-4941-b4af-7929fbd5b65c" data-name="4"><path class="bd187d18-3f1c-457c-bbba-5d6d3106007a" d="M92.54 389.14c-3.86 0-8.12 1.53-8.12 4.87 0 2.95 4.1 4.62 7.94 4.62 4.11 0 8-1.73 8-4.88-.04-2.35-3.88-4.61-7.82-4.61zm-.18 8.63c-3.86 0-7-1.74-7-3.89s3.13-3.89 7-3.89 7 1.74 7 3.89-3.14 3.89-7 3.89z"/><path d="M92.36 390c-3.86 0-7 1.74-7 3.89s3.13 3.89 7 3.89 7-1.74 7-3.89-3.14-3.89-7-3.89z" style="fill:url(#b45760c7-7f9a-4ca5-b991-2b675d3dedf6)"/></g><g id="b8abb399-73b9-4384-9486-b14e79f31006" data-name="5"><path class="bd187d18-3f1c-457c-bbba-5d6d3106007a" d="M114.79 389.14c-3.86 0-8.12 1.53-8.12 4.87 0 2.95 4.1 4.62 7.94 4.62 4.11 0 8-1.73 8-4.88-.04-2.35-3.88-4.61-7.82-4.61zm-.18 8.63c-3.86 0-7-1.74-7-3.89s3.13-3.89 7-3.89 7 1.74 7 3.89-3.14 3.89-7 3.89z"/><path d="M114.61 390c-3.86 0-7 1.74-7 3.89s3.13 3.89 7 3.89 7-1.74 7-3.89-3.14-3.89-7-3.89z" style="fill:url(#a0210522-f2ad-4924-a64a-ba35fafbbeb1)"/></g><g id="ba75de73-262f-4185-b95b-fca91fd6aac8" data-name="6"><path class="bd187d18-3f1c-457c-bbba-5d6d3106007a" d="M133.35 395.3c-3.86 0-8.13 1.53-8.13 4.87 0 3 4.11 4.62 7.95 4.62 4.1 0 8-1.73 8-4.88-.04-2.35-3.88-4.61-7.82-4.61zm-.18 8.63c-3.86 0-7-1.74-7-3.89s3.13-3.89 7-3.89 7 1.74 7 3.89-3.17 3.89-7 3.89z"/><path d="M133.17 396.15c-3.86 0-7 1.74-7 3.89s3.13 3.89 7 3.89 7-1.74 7-3.89-3.17-3.89-7-3.89z" style="fill:url(#ba9d571f-abc6-4866-b261-c53f65e2a998)"/></g><g id="bead6461-cbb9-4650-86c1-e43184cdec8e" data-name="3"><path class="bd187d18-3f1c-457c-bbba-5d6d3106007a" d="M139.39 383c-3.86 0-8.13 1.53-8.13 4.88 0 2.95 4.11 4.61 8 4.61 4.1 0 8-1.73 8-4.88-.09-2.31-3.93-4.61-7.87-4.61zm-.18 8.63c-3.86 0-7-1.74-7-3.89s3.13-3.89 7-3.89 7 1.75 7 3.89-3.14 3.93-7 3.93z"/><path d="M139.21 383.89c-3.86 0-7 1.75-7 3.89s3.13 3.89 7 3.89 7-1.74 7-3.89-3.14-3.89-7-3.89z" style="fill:url(#f5eff25e-ce12-4817-a270-8f88b45cb3bd)"/></g><g id="e351bc22-a0c1-4a2a-9497-960e18e85253" data-name="2"><path class="bd187d18-3f1c-457c-bbba-5d6d3106007a" d="M121.79 377.35c-3.86 0-8.12 1.53-8.12 4.88 0 2.95 4.1 4.61 7.94 4.61 4.11 0 8-1.73 8-4.88-.04-2.34-3.88-4.61-7.82-4.61zm-.18 8.64c-3.86 0-7-1.74-7-3.89s3.13-3.89 7-3.89 7 1.74 7 3.89-3.14 3.9-7 3.9z"/><path d="M121.61 378.21c-3.86 0-7 1.74-7 3.89s3.13 3.89 7 3.89 7-1.74 7-3.89-3.14-3.89-7-3.89z" style="fill:url(#e772b8b7-0a9a-43d5-a2ea-3f52758804a0)"/></g><g id="b122859b-7d30-42aa-8bd1-a221de5b5abe" data-name="1"><path class="bd187d18-3f1c-457c-bbba-5d6d3106007a" d="M100.5 377.78c-3.86 0-8.13 1.53-8.13 4.88 0 2.95 4.11 4.62 7.95 4.62 4.1 0 8-1.73 8-4.88-.04-2.35-3.88-4.62-7.82-4.62zm-.18 8.64c-3.86 0-7-1.74-7-3.89s3.13-3.89 7-3.89 7 1.74 7 3.89-3.14 3.89-7 3.89z"/><path d="M100.32 378.64c-3.86 0-7 1.74-7 3.89s3.13 3.89 7 3.89 7-1.74 7-3.89-3.14-3.89-7-3.89z" style="fill:url(#afd663d7-4182-45ca-abd8-3d2873089bcd)"/></g></g><g id="bd0c1dcb-4d21-487c-a1d9-467915f9feea" data-name="boutons P2"><g id="a08c09c2-6e20-4598-86e3-e1f1a1256e26" data-name="1"><path class="e894eb10-308a-4165-ad4d-816dc971c493" d="M225.69 399.93c-3.86 0-8.13 1.53-8.13 4.87 0 2.95 4.11 4.62 7.95 4.62 4.1 0 8-1.73 8-4.88-.04-2.35-3.88-4.61-7.82-4.61zm-.18 8.63c-3.86 0-7-1.74-7-3.89s3.13-3.89 7-3.89 7 1.74 7 3.89-3.14 3.89-7 3.89z"/><path d="M225.51 400.78c-3.86 0-7 1.74-7 3.89s3.13 3.89 7 3.89 7-1.74 7-3.89-3.14-3.89-7-3.89z" style="fill:url(#a16092d7-b1ea-41af-a6d5-799a8ef3f719)"/></g><g id="fb13d955-9e4b-4e71-a7d2-a6627edb638a" data-name="2"><path class="e894eb10-308a-4165-ad4d-816dc971c493" d="M247 399.49c-3.86 0-8.13 1.54-8.13 4.88 0 2.95 4.11 4.62 7.95 4.62 4.1 0 8-1.73 8-4.88-.07-2.35-3.91-4.62-7.82-4.62zm-.18 8.64c-3.86 0-7-1.74-7-3.89s3.13-3.89 7-3.89 7 1.74 7 3.89-3.17 3.89-7.03 3.89z"/><path d="M246.79 400.35c-3.86 0-7 1.74-7 3.89s3.13 3.89 7 3.89 7-1.74 7-3.89-3.14-3.89-7-3.89z" style="fill:url(#b1fece4f-6f17-48c6-adea-ff35e59f39d9)"/></g><g id="eae03e65-ac38-40a3-b85a-5cefaeefd812" data-name="3"><path class="e894eb10-308a-4165-ad4d-816dc971c493" d="M264.58 405.18c-3.86 0-8.12 1.53-8.12 4.88 0 2.95 4.1 4.61 7.94 4.61 4.1 0 8-1.73 8-4.88-.04-2.35-3.88-4.61-7.82-4.61zm-.18 8.64c-3.86 0-7-1.75-7-3.89s3.13-3.89 7-3.89 7 1.74 7 3.89-3.14 3.89-7 3.89z"/><path d="M264.4 406c-3.86 0-7 1.74-7 3.89s3.13 3.89 7 3.89 7-1.75 7-3.89-3.14-3.89-7-3.89z" style="fill:url(#ae380cb2-4cce-47c2-a790-09cfdd50d1b4)"/></g><g id="b1861f4b-46c4-4e44-83b1-7582370d5a50" data-name="4"><path class="e894eb10-308a-4165-ad4d-816dc971c493" d="M258.54 417.44c-3.86 0-8.13 1.53-8.13 4.88 0 2.95 4.11 4.61 8 4.61 4.1 0 8-1.73 8-4.88-.09-2.35-3.93-4.61-7.87-4.61zm-.18 8.64c-3.86 0-7-1.75-7-3.89s3.13-3.89 7-3.89 7 1.74 7 3.89-3.14 3.89-7 3.89z"/><path d="M258.36 418.3c-3.86 0-7 1.74-7 3.89s3.13 3.89 7 3.89 7-1.75 7-3.89-3.14-3.89-7-3.89z" style="fill:url(#b16fe09a-7c99-43c4-9be4-5aff7a1fa112)"/></g><g id="ee4990a3-ca74-4d49-bd2e-524f7dd1c921" data-name="5"><path class="e894eb10-308a-4165-ad4d-816dc971c493" d="M240 411.28c-3.86 0-8.13 1.53-8.13 4.88 0 2.95 4.11 4.61 7.95 4.61 4.1 0 8-1.73 8-4.88-.07-2.35-3.91-4.61-7.82-4.61zm-.18 8.63c-3.86 0-7-1.74-7-3.89s3.13-3.89 7-3.89 7 1.75 7 3.89-3.17 3.89-7.03 3.89z"/><path d="M239.79 412.13c-3.86 0-7 1.75-7 3.89s3.13 3.89 7 3.89 7-1.74 7-3.89-3.14-3.89-7-3.89z" style="fill:url(#b079614b-fdc6-4573-80e0-91e87f26ea78)"/></g><g id="a4a57050-cbc7-4981-add8-3cf684801ea4" data-name="6"><path class="e894eb10-308a-4165-ad4d-816dc971c493" d="M217.73 411.28c-3.86 0-8.13 1.53-8.13 4.88 0 2.95 4.11 4.61 8 4.61 4.1 0 8-1.73 8-4.88-.09-2.35-3.93-4.61-7.87-4.61zm-.18 8.63c-3.86 0-7-1.74-7-3.89s3.13-3.89 7-3.89 7 1.75 7 3.89-3.14 3.89-7 3.89z"/><path d="M217.55 412.13c-3.86 0-7 1.75-7 3.89s3.13 3.89 7 3.89 7-1.74 7-3.89-3.14-3.89-7-3.89z" style="fill:url(#ffd544e4-e7d8-449b-9080-4e3b8c299571)"/></g></g><path class="f7842e2d-6e6e-4b96-89be-68da33656d7c" d="M228.57 237.19v.07l-5.92-1v-.08zM236.56 238.53a.13.13 0 0 0 0 .06l-5.72-1v-.06z"/><path class="ba15b39e-a3e7-406e-8715-f8d7401ee5b0" d="m210.17 273.38-65.56-11c-.87-.14-.87-.14-.74-.92.25-1.54.47-3.08.75-4.61.78-4.31 1.48-8.63 2.22-12.95.09-.48.22-1 .29-1.44 0-.18.12-.23.31-.19l.75.13 119.31 19.98a16.13 16.13 0 0 1 4.69 1.42 11.54 11.54 0 0 1 5.67 5.9 8.36 8.36 0 0 1 .63 3.88c0 .38-.08.76-.15 1.14l-1.56 9.36c-.07.39-.13.42-.54.36l-40.11-6.72zm14.68-7.7c-.4 2.35-.79 4.71-1.19 7.07 0 .23 0 .34.3.38 1 .15 1.95.32 2.93.49.51.09.51.09.59-.37q.69-4.22 1.4-8.43c0-.08 0-.21.12-.22s.13.1.17.17c1.69 3.14 3.43 6.26 5.06 9.42a2.38 2.38 0 0 0 3.55.6c.9-.94 1.91-1.79 2.87-2.68l4.89-4.53c.08-.07.15-.22.26-.17s0 .2 0 .31v.12c-.47 2.79-.93 5.58-1.4 8.37 0 .25 0 .35.31.4 1 .16 2 .32 3.06.51.34.07.45 0 .49-.32l2.32-13.83a1.32 1.32 0 0 0-.25-1 2.34 2.34 0 0 0-3.26-.37l-2.16 2-8.12 7.4c-.25.23-.28.22-.45-.08-2.2-4.06-4.42-8.11-6.61-12.17a2.14 2.14 0 0 0-1.43-1.06A1.74 1.74 0 0 0 226 259zm-4.51-.71c.38-2.31.76-4.61 1.16-6.92a1.32 1.32 0 0 0-.45-1.21 2.4 2.4 0 0 0-3.17 0c-2.39 2.24-4.82 4.43-7.24 6.63l-2.95 2.7c-.13.12-.23.25-.37 0l-3.44-6.31c-1.1-2-2.19-4-3.3-6a2.24 2.24 0 0 0-2.21-1 1.52 1.52 0 0 0-1.5 1.37q-1.16 6.86-2.3 13.71c0 .28.05.37.35.41 1 .15 2 .32 3 .5.44.07.45.08.51-.3.46-2.73.91-5.46 1.37-8.19 0-.13 0-.27.06-.4s0-.16.11-.17.1.08.13.14.18.34.28.51c1.63 3 3.29 6 4.88 9.07a2.34 2.34 0 0 0 3.35.6c.47-.47 1-.91 1.48-1.37l6.5-6c.06-.05.09-.14.19-.11s.07.14.06.22c-.14.81-.28 1.62-.41 2.44-.35 2.06-.69 4.13-1 6.2 0 .22 0 .32.29.36l3 .5c.44.07.45.07.52-.31q.51-3.6 1.1-7.04zm33.15 5.67c-.38 2.28-.76 4.57-1.15 6.85-.06.31.06.41.38.45 1 .16 2 .32 3 .5.33.07.45 0 .5-.31.16-1 .35-2.08.51-3.12 0-.23.12-.33.4-.28l12.77 2.14c.33.05.39.18.34.45-.18 1-.34 2.08-.53 3.12-.05.25 0 .35.32.4 1 .15 2 .32 3 .49.45.07.46.07.53-.34l1.22-7.32a6.88 6.88 0 0 0-2.51-6.52 12.61 12.61 0 0 0-6.36-3c-2.38-.41-4.76-.8-7.13-1.19-.72-.12-1.45-.26-2.17-.35a1.6 1.6 0 0 0-1.91 1.29c-.46 2.27-.83 4.5-1.21 6.74zm-62.24-10.42 1.14-6.79a1.24 1.24 0 0 0 0-.47 1.91 1.91 0 0 0-1.63-1.33c-1.55-.26-3.1-.53-4.65-.77-1.84-.3-3.66-.71-5.51-.87a11.55 11.55 0 0 0-7 1.39 6.55 6.55 0 0 0-3.37 4.67q-.63 3.74-1.25 7.47c-.07.4-.07.4.36.47 1 .17 2 .32 2.93.5.33.06.45 0 .5-.31.15-1 .34-2.06.5-3.09 0-.29.17-.35.48-.3l12.67 2.12c.34 0 .42.16.37.46-.19 1-.35 2.08-.54 3.11 0 .26 0 .36.32.4 1 .16 2 .32 3 .51.33.06.44 0 .49-.32.42-2.28.81-4.57 1.19-6.85zm-38.3 1 6.47 1.08a7.76 7.76 0 0 0 2.76 0 3.93 3.93 0 0 0 3.34-2.92c.64-3.78 1.26-7.55 1.9-11.33.05-.27 0-.37-.33-.42-1-.15-2-.32-3-.5-.36-.07-.46 0-.51.33q-.92 5.58-1.86 11.15a1.08 1.08 0 0 1-1.24.95 4.41 4.41 0 0 1-.73-.08c-1-.18-2-.37-3.06-.54l-7-1.15c-.28-.05-.35-.15-.31-.38.11-.59.19-1.18.31-1.76.06-.28 0-.4-.35-.45-.84-.13-1.68-.26-2.52-.42-.34-.07-.44 0-.49.32-.24 1.49-.49 3-.74 4.45-.07.42-.07.42.42.5zM230.83 237.63l5.72 1c.15.09.15.2.13.35-.37 2.17-.73 4.34-1.11 6.51 0 .29 0 .38.34.43 3.09.5 6.18 1 9.27 1.54.32.05.34.16.31.44-.06.67-.23 1.33-.32 2-.22 1.55-.54 3.09-.8 4.63-.1.59-.17 1.19-.26 1.78 0 .2-.12.31-.4.26L228.57 254c-.65-.11-.65-.11-.56-.68q1.29-7.69 2.57-15.38c.02-.15.02-.31.25-.31zm3.94 12.7c-.13.78-.25 1.56-.39 2.34-.05.27 0 .38.33.43 1.06.16 2.11.34 3.16.53.32.06.44 0 .49-.31.25-1.55.51-3.1.78-4.66 0-.24 0-.34-.31-.38q-1.62-.25-3.24-.54c-.28-.05-.39 0-.43.27-.16.78-.26 1.55-.39 2.32zM255.63 249.17c2.55.43 5.09.86 7.64 1.27.34.06.42.17.37.47q-.7 4.14-1.39 8.3c-.07.37-.1.4-.52.33L246.38 257c-.27-.05-.34-.16-.3-.39q.72-4.21 1.41-8.43c0-.28.18-.33.47-.28 2.55.44 5.11.86 7.67 1.29zm1.31 4.88c.14-.8.27-1.6.41-2.4 0-.23 0-.36-.3-.4l-3.44-.58c-.26 0-.38 0-.42.27l-.81 4.85c0 .25.05.36.33.41l3.37.56c.3.06.42 0 .46-.3.13-.8.27-1.6.4-2.41zM173.53 244.78l-7.64-1.27c-.31 0-.37-.15-.33-.42q.72-4.2 1.42-8.42c0-.25.13-.32.4-.27l15.36 2.6c.41.07.43.11.37.49-.26 1.55-.53 3.11-.78 4.66 0 .31-.17.37-.5.32-3.07-.53-6.15-1-9.22-1.55-.46-.08-.46-.08-.52.32s-.11.7-.19 1 0 .35.31.4c2.06.33 4.11.68 6.17 1l3.16.53c.32.05.42.17.37.44s-.14.74-.19 1.11-.18.38-.51.32zm.92-5.45c.56.1 1.13.18 1.69.29.25 0 .35 0 .38-.25 0-.39.12-.78.2-1.17 0-.21 0-.32-.26-.36l-3.41-.57c-.22 0-.33 0-.36.23q-.08.62-.18 1.23c0 .23.06.3.29.33.55.07 1.1.17 1.65.27zM211.28 241.75l7.64 1.28c.44.07.5.14.42.52-.43 2-.7 4-1.05 6-.14.74-.27 1.48-.37 2.23 0 .29-.15.37-.49.31-2.08-.36-4.17-.7-6.26-1l-9-1.51c-.42-.07-.43-.08-.37-.47.26-1.56.53-3.11.77-4.67 0-.32.18-.37.52-.31l9.16 1.54c.46.07.46.07.53-.33s.09-.67.17-1 0-.4-.36-.46c-2.34-.37-4.68-.77-7-1.16l-2.31-.38c-.24 0-.32-.12-.28-.34a10.85 10.85 0 0 0 .21-1.27c0-.27.16-.31.43-.26l5.37.9 2.27.38zm-1.15 7.25c.55.09 1.11.17 1.66.27.21 0 .33 0 .36-.21l.21-1.23c0-.19-.05-.29-.27-.33l-3.33-.56c-.24 0-.35 0-.38.24 0 .4-.11.79-.19 1.17-.05.23.05.33.29.37.52.07 1.1.17 1.65.28zM268.74 251.36c.87.15 1.74.31 2.62.44.31 0 .38.18.34.43-.08.4-.13.8-.21 1.2 0 .21 0 .3.27.34l3.36.56c.28 0 .38 0 .41-.27.06-.41.15-.82.2-1.23 0-.23.15-.27.37-.24l5.4.91c.21 0 .3.13.27.33-.08.43-.16.86-.22 1.29 0 .23-.16.29-.41.25-.44-.09-.89-.15-1.34-.24-.24 0-.33 0-.36.24-.05.4-.13.8-.19 1.2 0 .23-.15.3-.4.25-.47-.08-.94-.15-1.41-.24-.17 0-.24 0-.29.17-.13.44-.08.91-.25 1.34-.07.18.07.24.24.27l1.38.22c.28 0 .38.15.33.41s-.13.78-.21 1.17c0 .21.05.31.28.34l1.34.22c.25 0 .34.13.3.36-.09.42-.17.84-.22 1.27 0 .22-.15.27-.36.24l-.65-.11-4.62-.77c-.45-.08-.45-.08-.38-.49s.12-.76.19-1.14c.05-.21 0-.3-.27-.34l-3.44-.58c-.22 0-.29 0-.31.21-.06.4-.16.8-.19 1.21s-.19.37-.5.32l-4.72-.8c-1.16-.19-.93-.1-.8-1 0-.25.09-.49.12-.74s.16-.29.4-.25c.45.09.9.15 1.34.24.27.05.39 0 .42-.26s.14-.78.19-1.17.16-.31.41-.26c.46.09.92.15 1.37.24.21 0 .3 0 .32-.2.06-.43.13-.85.22-1.27 0-.21-.05-.28-.26-.31l-1.38-.23c-.24 0-.34-.12-.29-.36s.14-.78.21-1.17c0-.23 0-.35-.31-.38-.45-.06-.9-.15-1.35-.22-.25 0-.34-.14-.29-.37q.12-.63.21-1.26c0-.24.16-.29.4-.24zM222.64 236.28l5.92 1a.42.42 0 0 1 .05.36q-1.31 7.77-2.6 15.56c0 .28-.17.37-.48.31s-.88-.19-1.33-.26l-3.89-.62c-.46-.08-.45-.08-.39-.49q1.31-7.74 2.6-15.49c.02-.14 0-.28.12-.37zM191.71 247.82l-7.71-1.28c-.3 0-.4-.14-.35-.43q.72-4.2 1.41-8.4c0-.26.15-.32.42-.27l15.39 2.56c.31.05.42.18.36.45s-.11.72-.19 1.08-.13.41-.55.34l-4.16-.7-5.06-.85c-.28 0-.37 0-.41.25-.22 1.39-.46 2.78-.69 4.17a2.74 2.74 0 0 1 0 .28c-.11.6-.11.6.58.72l8.92 1.49c.42.07.45.11.39.5s-.15.72-.18 1.08-.19.35-.48.3c-.56-.11-1.12-.2-1.68-.29z"/><path d="M291.07 282.1c-.25 1.47-.49 2.94-.74 4.41-.07.42-.07.42-.51.34l-4.27-.71c-.27 0-.37-.13-.3-.37s.07-.41.11-.62-.06-.27-.25-.29l-.49-.05c-.39-.06-.49 0-.51.37v.19c0 .43-.14.5-.63.42-1.39-.23-2.79-.47-4.19-.69-.32-.05-.4-.19-.36-.45.5-3 1-5.91 1.49-8.86.06-.36.14-.42.55-.33 2.95.58 5.92 1 8.87 1.52.52.09 1 .13 1.55.22s.47.1.4.52c-.24 1.46-.49 2.92-.73 4.38zm-8.37-.17 1.58.27c.22 0 .32 0 .35-.22.1-.59.2-1.19.31-1.79 0-.21-.06-.3-.29-.34l-3.13-.52c-.21 0-.31 0-.35.22-.08.59-.18 1.19-.29 1.79 0 .21 0 .31.27.34zm5.47-1.49c-.52-.08-1-.16-1.55-.26-.25-.05-.36 0-.39.24-.09.59-.19 1.19-.29 1.78-.05.23.05.29.28.33 1 .16 2 .33 3 .51.28.05.39 0 .43-.27.08-.56.17-1.13.28-1.69 0-.23 0-.35-.3-.39-.48-.08-.97-.17-1.46-.25z" style="fill:#2785db"/><path d="M292.87 271.31c-.25 1.48-.5 3-.74 4.44-.07.38-.11.4-.52.34l-2.86-.48c-.41-.07-.49-.18-.43-.54.14-.85.28-1.71.43-2.56a.34.34 0 0 1 0-.1c.2-.63.12-.52.72-.43l1.48.25c.26 0 .4 0 .44-.25.09-.59.19-1.18.29-1.76 0-.21 0-.33-.3-.38l-8-1.34c-.26 0-.39.05-.42.28-.09.57-.19 1.14-.28 1.7 0 .23.05.36.31.41l3.06.52a.25.25 0 0 0 .33-.17 1.81 1.81 0 0 0 .12-.64c0-.19.11-.24.27-.29a.45.45 0 0 1 .2 0c.85.09.89.14.77.88-.21 1.26-.43 2.51-.63 3.77 0 .26-.17.34-.43.3l-5.43-.91c-.49-.08-.55-.15-.48-.58.49-3 1-5.91 1.48-8.87 0-.17.09-.23.28-.22s.55 0 .83.08l9.77 1.63c.55.09.55.1.47.6l-.72 4.32z" style="fill:#44c047"/><path d="M289.84 254.78c1.75.29 3.49.59 5.24.87.3 0 .4.13.35.42-.51 3-1 5.95-1.49 8.92-.05.3-.16.38-.49.32-1.4-.25-2.8-.48-4.2-.71-.36-.06-.42-.15-.36-.47 0-.12.06-.23.08-.34.08-.47.08-.47-.46-.56h-.21c-.5-.08-.51-.08-.54.39 0 .18-.1.34-.11.52s-.18.19-.35.16l-4.44-.74c-.23 0-.32-.15-.29-.35.17-1 .35-2 .51-3.06 0-.28.23-.27.45-.23l1.83.3c.8.15 1.61.24 2.4.44.25.06.44 0 .48-.27.07-.57.17-1.14.28-1.7.05-.27 0-.38-.34-.43-1.42-.22-2.83-.47-4.24-.7-.29 0-.4-.12-.35-.4.18-1 .33-2 .48-3 0-.26.15-.33.44-.28 1.77.31 3.55.6 5.33.9zm1.49 6.43c.51.08 1 .16 1.54.26.22 0 .35 0 .39-.21.09-.61.19-1.22.3-1.82 0-.2 0-.32-.27-.35l-3.09-.52c-.22 0-.32 0-.35.21-.09.63-.2 1.25-.31 1.88 0 .18 0 .26.24.29z" style="fill:#eb1416"/><path class="ba15b39e-a3e7-406e-8715-f8d7401ee5b0" d="m156.94 232.66 7.54 1.26c.53.09.53.09.45.57s-.13.7-.17 1-.16.33-.44.28l-9.3-1.57c-.33-.05-.41 0-.45.3-.35 2.17-.72 4.33-1.07 6.49-.05.31-.2.36-.51.31l-5.19-.87c-.3 0-.4-.14-.35-.42q.72-4.19 1.4-8.39c.05-.31.19-.34.48-.29z"/><path class="f7842e2d-6e6e-4b96-89be-68da33656d7c" d="M224.85 265.68 226 259a1.74 1.74 0 0 1 2.34-1.33 2.14 2.14 0 0 1 1.43 1.06c2.19 4.06 4.41 8.11 6.61 12.17.17.3.2.31.45.08l8.14-7.43 2.16-2a2.34 2.34 0 0 1 3.26.37 1.32 1.32 0 0 1 .25 1q-1.17 6.91-2.32 13.83c0 .29-.15.39-.49.32-1-.19-2-.35-3.06-.51-.3-.05-.36-.15-.31-.4.47-2.79.93-5.58 1.4-8.37v-.12c0-.04.11-.25 0-.31s-.18.1-.26.17l-4.89 4.53c-1 .89-2 1.74-2.87 2.68a2.38 2.38 0 0 1-3.55-.6c-1.63-3.16-3.37-6.28-5.06-9.42 0-.07-.06-.19-.17-.17s-.11.14-.12.22l-1.4 8.43c-.08.46-.08.46-.59.37-1-.17-1.95-.34-2.93-.49-.28 0-.34-.15-.3-.38.4-2.36.79-4.72 1.19-7.07zM220.34 265q-.59 3.46-1.16 6.95c-.07.38-.08.38-.52.31l-3-.5c-.27 0-.32-.14-.29-.36.36-2.07.7-4.14 1-6.2.13-.82.27-1.63.41-2.44 0-.08.06-.18-.06-.22s-.13.06-.19.11l-6.5 6c-.5.46-1 .9-1.48 1.37a2.34 2.34 0 0 1-3.35-.6c-1.59-3-3.25-6.05-4.88-9.07-.1-.17-.19-.34-.28-.51s-.05-.14-.13-.14-.1.1-.11.17 0 .27-.06.4c-.46 2.73-.91 5.46-1.37 8.19-.06.38-.07.37-.51.3-1-.18-2-.35-3-.5-.3 0-.4-.13-.35-.41q1.16-6.86 2.3-13.71a1.52 1.52 0 0 1 1.5-1.37 2.24 2.24 0 0 1 2.21 1c1.11 2 2.2 4 3.3 6l3.44 6.31c.14.27.24.14.37 0l2.95-2.7c2.42-2.2 4.85-4.39 7.24-6.63a2.4 2.4 0 0 1 3.17 0 1.32 1.32 0 0 1 .45 1.21c-.4 2.31-.78 4.61-1.16 6.92zM253.49 270.64c.38-2.24.75-4.47 1.13-6.7a1.6 1.6 0 0 1 1.91-1.29c.72.09 1.45.23 2.17.35 2.37.39 4.75.78 7.13 1.19a12.61 12.61 0 0 1 6.36 3 6.88 6.88 0 0 1 2.51 6.52q-.6 3.66-1.22 7.32c-.07.41-.08.41-.53.34-1-.17-2-.34-3-.49-.29 0-.37-.15-.32-.4.19-1 .35-2.08.53-3.12.05-.27 0-.4-.34-.45l-12.77-2.14c-.28-.05-.36 0-.4.28-.16 1-.35 2.08-.51 3.12-.05.3-.17.38-.5.31-1-.18-2-.34-3-.5-.32 0-.44-.14-.38-.45.39-2.28.77-4.57 1.15-6.85zM264 273l6.37 1.07c.3 0 .43 0 .46-.28s.08-.52.12-.78a4.27 4.27 0 0 0-1.54-4.2 8.48 8.48 0 0 0-4-1.85c-2.25-.43-4.52-.78-6.77-1.17-.34-.06-.36.12-.4.33q-.44 2.69-.9 5.37c0 .29 0 .4.36.46zM191.25 260.22c-.38 2.28-.77 4.57-1.14 6.85-.05.3-.16.38-.49.32-1-.19-2-.35-3-.51-.29 0-.36-.14-.32-.4.19-1 .35-2.08.54-3.11.05-.3 0-.41-.37-.46l-12.67-2.12c-.31-.05-.44 0-.48.3-.16 1-.35 2.05-.5 3.09 0 .3-.17.37-.5.31-1-.18-1.95-.33-2.93-.5-.43-.07-.43-.07-.36-.47q.62-3.74 1.25-7.47a6.55 6.55 0 0 1 3.37-4.67 11.55 11.55 0 0 1 7-1.39c1.85.16 3.67.57 5.51.87 1.55.24 3.1.51 4.65.77a1.91 1.91 0 0 1 1.59 1.37 1.24 1.24 0 0 1 0 .47l-1.14 6.79zm-10.67-1.14c2.11.35 4.22.7 6.33 1.07.32.05.44 0 .48-.29.3-1.81.6-3.63.91-5.44 0-.26 0-.37-.33-.42q-3-.48-6-1a11.11 11.11 0 0 0-3.77 0 4.85 4.85 0 0 0-3.81 2.54 7.49 7.49 0 0 0-.52 2c-.07.4-.07.41.4.48zM153 261.25l-7-1.17c-.49-.08-.49-.08-.42-.5.25-1.48.5-3 .74-4.45.05-.28.15-.39.49-.32.84.16 1.68.29 2.52.42.31.05.41.17.35.45-.12.58-.2 1.17-.31 1.76 0 .23 0 .33.31.38l7 1.15c1 .17 2 .36 3.06.54a4.41 4.41 0 0 0 .73.08 1.08 1.08 0 0 0 1.24-.95q.94-5.58 1.86-11.15c0-.3.15-.4.51-.33 1 .18 2 .35 3 .5.3.05.38.15.33.42-.64 3.78-1.26 7.55-1.9 11.33a3.93 3.93 0 0 1-3.34 2.92 7.76 7.76 0 0 1-2.76 0l-6.41-1.08z"/><path class="ba15b39e-a3e7-406e-8715-f8d7401ee5b0" d="m264 273-6.33-1c-.34-.06-.41-.17-.36-.46q.47-2.68.9-5.37c0-.21.06-.39.4-.33 2.25.39 4.52.74 6.77 1.17a8.48 8.48 0 0 1 4 1.85 4.27 4.27 0 0 1 1.54 4.2c0 .26-.1.52-.12.78s-.16.33-.46.28zM180.58 259.08l-6.3-1.06c-.47-.07-.47-.08-.4-.48a7.49 7.49 0 0 1 .52-2 4.85 4.85 0 0 1 3.81-2.54 11.11 11.11 0 0 1 3.77 0q3 .51 6 1c.31.05.38.16.33.42-.31 1.81-.61 3.63-.91 5.44 0 .29-.16.34-.48.29-2.11-.37-4.22-.72-6.33-1.07z"/></g><g id="e7328b46-c856-4523-9b21-efcc5b626370" data-name="Calque 2"><g id="ffa8c9e4-ba51-49ec-8804-fdebae7061fb" data-name="Calque 1-2"><path class="b07f8364-60c9-453e-abb9-2ade4a6347c0" d="m113 91.43 21.53 3.2c8.8 1.31 16-4.24 16-12.39s-7.08-15.84-15.88-17.16l-5.58-.8a.94.94 0 0 1-.8-.87.67.67 0 0 1 .81-.63L150.53 66v-6.26l-21.43-3.21c-4.16-.62-7.54 2-7.56 5.86s3.35 7.48 7.5 8.1l5.61.91c5 .76 9.1 5.15 9.09 9.82s-4.11 7.85-9.16 7.1l-21.53-3.22v6.33"/><path class="b07f8364-60c9-453e-abb9-2ade4a6347c0" d="m113.05 83.62 21.54 3.22c4.17.62 7.55-2 7.56-5.87s-3.34-7.48-7.51-8.1L129 72c-5-.76-9.1-5.15-9.08-9.83s4.12-7.82 9.15-7.07l21.47 3.21V52l-21.45-3.21c-8.78-1.32-15.95 4.21-16 12.35S120.22 77 129 78.29l5.56.83a.92.92 0 0 1 .78.85.64.64 0 0 1-.79.6l-21.48-3.2v6.25M167.18 93.22c-3.74-.55-6.79-3.78-6.78-7.31l.06-20c0-3.39 3.07-5.72 6.8-5.17l22.92 3.44v-6.26l-22.9-3.42c-7.47-1.11-13.53 3.58-13.55 10.49l-.06 19.91c0 6.93 6 13.46 13.49 14.58l22.84 3.43v-6.27l-22.86-3.42"/><path class="b07f8364-60c9-453e-abb9-2ade4a6347c0" d="M162.11 66.25c0-2.65 2.3-4.45 5.15-4l22.92 3.43v6.28l-19.75-3a1.26 1.26 0 0 0-1.61 1.22l16.48 2.47v6.25l-23.21-3.48v-9.2M167.18 91.7a6 6 0 0 1-5.18-5.54v-9.22l23.21 3.47v6.27l-16.49-2.47a1.86 1.86 0 0 0 1.6 1.72L190 88.87v6.24l-22.81-3.41M206.22 99.05c-3.72-.56-6.75-3.83-6.75-7.3v-19.9c0-3.46 3-5.8 6.73-5.25l22.2 3.33v-6.26l-22.24-3.34c-7.45-1.11-13.51 3.58-13.52 10.49v19.91c0 6.93 6.09 13.47 13.56 14.58l22.22 3.34V79.13l-19.09-2.86v6.25l12.34 1.85v17L206.21 99"/><path class="b07f8364-60c9-453e-abb9-2ade4a6347c0" d="M201.06 92a6 6 0 0 0 5.14 5.58l13.88 2.08v-14L209.36 84v6.27l4 .6v1.47l-4-.59a1.83 1.83 0 0 1-1.57-1.71v-14a1.29 1.29 0 0 1 1.6-1.26l19.06 2.85v-6.24l-22.21-3.32c-2.84-.43-5.15 1.37-5.15 4v19.91M249.28 74.42a1.83 1.83 0 0 1 2.07-1 2.63 2.63 0 0 1 2.07 1.68l10.81 31.25-15.78-2.36V97l5.27.79-2.38-6.92-7.72 20.09-8-1.19 13.61-35.31"/><path class="b07f8364-60c9-453e-abb9-2ade4a6347c0" d="m266.41 108.05-17.94-2.68v6.27l27.3 4.08-14.24-41.21c-1.25-4-5.34-7.41-10.19-8.13s-8.94 1.44-10.19 5.06l-14.32 37 7.15 1.06 13.89-35.93a3.18 3.18 0 0 1 3.46-1.63 4.58 4.58 0 0 1 3.46 2.66l11.61 33.49"/><path class="ab7f7d62-a8cd-48d9-823e-0138922deda3" d="M129.6 112.15a7.14 7.14 0 0 1 1.28 2.07 6.83 6.83 0 0 1 .4 2.42 5.46 5.46 0 0 1-2.71 4.9 9.67 9.67 0 0 1-6.69 1.09 15.61 15.61 0 0 1-3.68-1.06 18.33 18.33 0 0 1-3.17-1.69l-.84 1.12-1.54-.23-.23-8.34 1.57.23a18.37 18.37 0 0 0 1.12 2.94 11.33 11.33 0 0 0 1.7 2.57 9.39 9.39 0 0 0 2.34 2 8.47 8.47 0 0 0 3.13 1.07 7.73 7.73 0 0 0 2.34 0 3.6 3.6 0 0 0 1.62-.63 2.84 2.84 0 0 0 .92-1.19 4.25 4.25 0 0 0 .31-1.71 5 5 0 0 0-.92-2.84 7 7 0 0 0-2.76-2.32l-2.88-1.42c-1.09-.52-2-1-2.8-1.43a11 11 0 0 1-3.6-3 6.52 6.52 0 0 1-1.27-4.09 4.87 4.87 0 0 1 .65-2.49 5.6 5.6 0 0 1 1.83-1.86 7.16 7.16 0 0 1 2.65-1 9.73 9.73 0 0 1 3.19 0 11.56 11.56 0 0 1 3.4 1 21.55 21.55 0 0 1 2.73 1.6l.79-1 1.55.23.12 8.07-1.57-.24c-.28-1-.59-1.89-1-2.79a11.18 11.18 0 0 0-1.37-2.49 7.87 7.87 0 0 0-2-1.88 7.41 7.41 0 0 0-2.94-1 4.42 4.42 0 0 0-3.14.57 2.71 2.71 0 0 0-1.31 2.35 4.68 4.68 0 0 0 .82 2.73 7.43 7.43 0 0 0 2.41 2.06c1 .54 1.87 1 2.78 1.45s1.78.86 2.63 1.32a23.51 23.51 0 0 1 2.23 1.34 9.76 9.76 0 0 1 1.86 1.6z"/><path class="ab7f7d62-a8cd-48d9-823e-0138922deda3" d="M129.24 128.74a1.65 1.65 0 0 1 .54-1.32 1.59 1.59 0 0 1 1.33-.33 2.83 2.83 0 0 1 1.06.36 3.52 3.52 0 0 1 .79.64 5.18 5.18 0 0 1 .62.79c.22.33.39.6.52.81a5.77 5.77 0 0 0 2.32-2.06 15.22 15.22 0 0 0 2-3.12q-1.83-4.33-3.3-7.74t-3.12-7.08a3.22 3.22 0 0 0-1.23-1.4 6.52 6.52 0 0 0-1.74-.82v-1.13l8.71 1.31v1.19a6.41 6.41 0 0 0-1.39 0q-.81.09-.81.33a1.29 1.29 0 0 0 .09.36c0 .17.12.34.19.52q.73 1.8 2.22 5.21t2.32 5.44c.58-1.13 1.19-2.31 1.82-3.51s1.34-2.65 2.12-4.3l.39-.84a2.39 2.39 0 0 0 .26-.94c0-.3-.3-.62-.88-1a6.2 6.2 0 0 0-1.67-.72v-1.09l7.09 1v1.06a4.66 4.66 0 0 0-1.53.36 2.65 2.65 0 0 0-1.41 1.22q-2.33 4.36-4.13 8c-1.2 2.41-2.11 4.17-2.74 5.3a24.07 24.07 0 0 1-2.19 3.41 9.11 9.11 0 0 1-1.88 1.83 4.72 4.72 0 0 1-1.62.73 5 5 0 0 1-3.87-1 2.11 2.11 0 0 1-.85-1.58z"/><path class="ab7f7d62-a8cd-48d9-823e-0138922deda3" d="M159.35 119.47a5.37 5.37 0 0 1 1.22 1.6 4.6 4.6 0 0 1 .42 2 3.9 3.9 0 0 1-2 3.54 7.67 7.67 0 0 1-5.14.72 9.79 9.79 0 0 1-3.07-1 10.58 10.58 0 0 1-2-1.28l-.39 1.06-1.44-.22-.18-5.89 1.33.2a7.75 7.75 0 0 0 .65 1.66 9 9 0 0 0 1.22 1.79 8.21 8.21 0 0 0 1.8 1.54 6 6 0 0 0 2.37.87 4.41 4.41 0 0 0 2.87-.32 2.14 2.14 0 0 0 1-2 2.61 2.61 0 0 0-.32-1.28 3.8 3.8 0 0 0-.93-1.06 9.71 9.71 0 0 0-1.57-.94q-.93-.45-2.07-.93c-.61-.26-1.28-.58-2-1a9.64 9.64 0 0 1-1.9-1.26 5.89 5.89 0 0 1-1.39-1.68 4.11 4.11 0 0 1-.53-2.13 3.73 3.73 0 0 1 1.75-3.24 6.46 6.46 0 0 1 4.66-.73 11.24 11.24 0 0 1 2.29.6 9 9 0 0 1 1.91.9l.45-.83 1.39.21.27 5.45-1.34-.19a6.36 6.36 0 0 0-1.74-3.23 5.74 5.74 0 0 0-3.28-1.63 3.66 3.66 0 0 0-2.49.34 1.78 1.78 0 0 0-.92 1.56 2.75 2.75 0 0 0 .3 1.33 3.25 3.25 0 0 0 .9 1 10.65 10.65 0 0 0 1.46.86c.58.28 1.3.61 2.17 1a22.51 22.51 0 0 1 2.41 1.19 9.93 9.93 0 0 1 1.86 1.34z"/><path class="ab7f7d62-a8cd-48d9-823e-0138922deda3" d="M172.15 128.9c-.83.18-1.63.32-2.38.42a10 10 0 0 1-2.74-.09 5.19 5.19 0 0 1-3.38-1.57 5 5 0 0 1-1-3.16v-11.41l-3.44-.52v-1.63l3.52.52v-5.24l3.52.53v5.24l5.48.82v1.63l-5.43-.81v9.41a14.68 14.68 0 0 0 .09 1.78 3.26 3.26 0 0 0 .41 1.3 2.23 2.23 0 0 0 .93.89 5 5 0 0 0 1.66.51c.32 0 .8.09 1.42.13a6.28 6.28 0 0 0 1.33 0v1.25z"/><path class="ab7f7d62-a8cd-48d9-823e-0138922deda3" d="M187.52 128a7.34 7.34 0 0 1-3.22 2.74 8.19 8.19 0 0 1-4.62.5 11.72 11.72 0 0 1-4-1.32 9.48 9.48 0 0 1-4.51-5.49 11.55 11.55 0 0 1-.54-3.56 8.3 8.3 0 0 1 .6-3.13 7.2 7.2 0 0 1 1.73-2.58 6.82 6.82 0 0 1 2.74-1.54 8.36 8.36 0 0 1 3.67-.2 11.09 11.09 0 0 1 3.57 1.11 7.92 7.92 0 0 1 2.42 2 7.55 7.55 0 0 1 1.32 2.45 9.15 9.15 0 0 1 .43 2.89V123l-12.67-2a12.88 12.88 0 0 0 .35 3.07 7.89 7.89 0 0 0 1.13 2.54 6.54 6.54 0 0 0 2 1.87 7.49 7.49 0 0 0 2.9 1 5.54 5.54 0 0 0 3-.26 6 6 0 0 0 2.41-2.21l1.36.94zm-4.27-7.06a11.91 11.91 0 0 0-.18-2.07 6.72 6.72 0 0 0-.58-1.91 4.6 4.6 0 0 0-1.22-1.46 4.22 4.22 0 0 0-2-.79 3.82 3.82 0 0 0-3.38 1 5.55 5.55 0 0 0-1.46 3.93l8.81 1.32z"/><path class="ab7f7d62-a8cd-48d9-823e-0138922deda3" d="m218.86 136.61-9.29-1.39v-1.13l.9.07a4.12 4.12 0 0 0 .8 0 1.16 1.16 0 0 0 .81-.41 1.52 1.52 0 0 0 .26-1v-8.7a4.33 4.33 0 0 0-.92-2.88 3.55 3.55 0 0 0-2.29-1.3 5.6 5.6 0 0 0-1.78 0 5 5 0 0 0-1.52.49 3.57 3.57 0 0 0-.94.66 6.56 6.56 0 0 0-.57.65v9.72a2 2 0 0 0 .23 1 1.91 1.91 0 0 0 .79.71c.3.14.56.26.8.35a6.85 6.85 0 0 0 .94.25v1.13l-9.08-1.34v-1.13l.86.06a3.86 3.86 0 0 0 .77 0 1.19 1.19 0 0 0 .8-.41 1.53 1.53 0 0 0 .26-1v-8.69a4.34 4.34 0 0 0-.91-2.88 3.66 3.66 0 0 0-2.3-1.31 5.89 5.89 0 0 0-1.78 0 5 5 0 0 0-1.53.5 3.45 3.45 0 0 0-.95.7l-.58.62v9.66a1.88 1.88 0 0 0 .27 1 2 2 0 0 0 .81.72 4.74 4.74 0 0 0 .83.38 6.81 6.81 0 0 0 .95.26v1.13l-9.26-1.38v-1.13l.92.07a4.38 4.38 0 0 0 .82 0 1.18 1.18 0 0 0 .81-.42 1.66 1.66 0 0 0 .26-1v-10.4a2 2 0 0 0-.28-1 3.13 3.13 0 0 0-.77-.84 4.18 4.18 0 0 0-.9-.46 7.2 7.2 0 0 0-1.12-.33V115l6.38.58.27.28v2.41h.13l1.18-.83a7.77 7.77 0 0 1 1.3-.74 5.53 5.53 0 0 1 1.69-.44 8.14 8.14 0 0 1 2.19.06 6.48 6.48 0 0 1 3.19 1.35 6.4 6.4 0 0 1 1.91 2.41l1.22-.86a7.79 7.79 0 0 1 1.41-.76 6.15 6.15 0 0 1 1.72-.46 8.33 8.33 0 0 1 2.21.06 6.06 6.06 0 0 1 3.82 2 6.58 6.58 0 0 1 1.4 4.52v8.55a2 2 0 0 0 .23 1 1.85 1.85 0 0 0 .79.71 9.07 9.07 0 0 0 .88.36c.29.09.61.18 1 .26v1.11zM272.1 134.4h-.22a.86.86 0 0 0-.11-.21 2 2 0 0 0-.16-.24 2.18 2.18 0 0 0-.21-.22.48.48 0 0 0-.22-.12l-.24-.06h-.46v2.62a.24.24 0 0 0 0 .14.31.31 0 0 0 .15.12l.24.08.28.08v.16l-2.11-.31v-.17h.52a.26.26 0 0 0 .15-.06.16.16 0 0 0 .05-.14v-2.65h-.7a.46.46 0 0 0-.22.06.83.83 0 0 0-.21.16 1 1 0 0 0-.16.19 1 1 0 0 0-.11.18h-.22v-.89l3.9.58v.89zM277.87 137.65l-2-.29v-.17h.5a.22.22 0 0 0 .15-.08.22.22 0 0 0 0-.13v-2.39l-1.52 2.58h-.15l-1.46-3.06V136a1.75 1.75 0 0 0 .05.45.49.49 0 0 0 .15.23 1.11 1.11 0 0 0 .29.14l.28.09v.16l-1.81-.27v-.16h.3a.65.65 0 0 0 .24 0 .23.23 0 0 0 .15-.18 1.5 1.5 0 0 0 0-.44v-1.68a.6.6 0 0 0-.05-.24.43.43 0 0 0-.13-.17 1.17 1.17 0 0 0-.25-.13 1.43 1.43 0 0 0-.28-.07v-.17l1.53.23 1.28 2.65 1.09-1.89a2.26 2.26 0 0 0 .11-.22.5.5 0 0 0 0-.16l1.46.22v.16h-.42a.21.21 0 0 0-.15.07.33.33 0 0 0 0 .14v2.36a.23.23 0 0 0 0 .14.27.27 0 0 0 .14.11.67.67 0 0 0 .2.08l.23.05v.17zM243.72 126.15a2.91 2.91 0 0 1 1.64 1.81c.21.75-.21 2.39-1.25 4.9a13.81 13.81 0 0 1-2.52 4.24 7.15 7.15 0 0 1-3.47 2 12.45 12.45 0 0 1-4.88.13 9.18 9.18 0 0 1-4.56-1.68 3.48 3.48 0 0 1-1.42-2.65 14.79 14.79 0 0 1 1.39-4.79l.77-1.86 6.63 1-1.58 3.75a6.08 6.08 0 0 0-.6 2c0 .29.27.48.74.55a1.34 1.34 0 0 0 1.24-.38 10.89 10.89 0 0 0 1.38-2.69l.67-1.62a4.44 4.44 0 0 0 .47-2 1.2 1.2 0 0 0-.68-1 10.57 10.57 0 0 0-2.51-.61l1.41-3.41a14.83 14.83 0 0 0 3 .27 1.77 1.77 0 0 0 1.09-.57 5.57 5.57 0 0 0 .94-1.65l.54-1.3a3.07 3.07 0 0 0 .38-1.67.77.77 0 0 0-.72-.52 1.31 1.31 0 0 0-1.12.27 5.13 5.13 0 0 0-1 1.72l-.79 1.93-6.63-1 .82-2q1.4-3.36 3.62-4.28a11.59 11.59 0 0 1 6-.35q4.74.71 5.75 2.59c.67 1.27.61 2.86-.19 4.81a7 7 0 0 1-1.78 2.75 7.7 7.7 0 0 1-2.8 1.29zM258.2 138.17l-1.65 4L242 140l1.39-3.35q10.36-8.4 12.5-10.45a11.14 11.14 0 0 0 2.66-3.29 2.24 2.24 0 0 0 .22-1.48 1 1 0 0 0-.93-.64 1.7 1.7 0 0 0-1.34.36 5.27 5.27 0 0 0-1.23 2l-.92 2.24-5.94-.89.36-.86a19.84 19.84 0 0 1 1.52-3.07 7.43 7.43 0 0 1 2.05-2.07 8 8 0 0 1 3-1.31 10.31 10.31 0 0 1 3.69 0c2.63.39 4.39 1.27 5.26 2.62a4.81 4.81 0 0 1 .21 4.69 12.86 12.86 0 0 1-2.9 4.09 131.87 131.87 0 0 1-10.66 8.54l7.27 1.09z"/></g></g></svg>