<svg id="f84e728d-f46c-412a-9dee-2c5b63a1ca49" data-name="Calque 1" xmlns="http://www.w3.org/2000/svg" xmlns:xlink="http://www.w3.org/1999/xlink" viewBox="0 0 88.59 237.77"><defs><style>.a7fc69e3-abc8-4de9-abcb-1ca463ff2bdd,.af66c308-87a8-4d77-b06e-199c380cd109{fill:#211c1d;}.ee152a08-ce0d-4d06-98b5-a753441e0f73{opacity:0.1;}.e75e966e-d6c2-4791-9bce-0c9eee16c888{fill:#808094;}.af31906b-613f-4b31-8f5f-6a3a9571bebd{fill:#6d6e6f;}.a93d95a8-c479-4815-a64c-fd90b2a39b3d{fill:url(#f0b50244-faf0-45ae-9fbb-c1bff54dc48d);}.a7fc69e3-abc8-4de9-abcb-1ca463ff2bdd{opacity:0.3;}.a7fc69e3-abc8-4de9-abcb-1ca463ff2bdd,.af2f023c-3046-4768-8e46-4b7561c1156b,.b55a8dba-bccd-48ec-aa59-3eb2835910f6{isolation:isolate;}.af2f023c-3046-4768-8e46-4b7561c1156b{opacity:0.15;fill:url(#e258eaca-f148-4c63-9195-7919cb01b43b);}.b55a8dba-bccd-48ec-aa59-3eb2835910f6{opacity:0.4;fill:url(#a2db80de-fb4c-4b4f-aa2e-00b056f45d93);}.afd03086-3365-4ea6-9f59-9d0ce2c3d5f8{fill:#eb0009;}.fe64c736-8b88-4ee9-a142-dc6ae8643c81{fill:#0060a8;}.f081c186-6ca6-405c-826e-41ac9001479a{fill:#fff;}.fbcff39b-ba0a-4963-8f06-5b5dd0bddba5{fill:#0084e4;}</style><linearGradient id="f0b50244-faf0-45ae-9fbb-c1bff54dc48d" x1="362.1" y1="-353.94" x2="341.14" y2="-332.98" gradientTransform="matrix(0, -1, -1, 0, -299.63, 395.42)" gradientUnits="userSpaceOnUse"><stop offset="0" stop-color="#a4a5a9"/><stop offset="1" stop-color="#e6e6e7"/></linearGradient><linearGradient id="e258eaca-f148-4c63-9195-7919cb01b43b" x1="341.21" y1="-353.94" x2="362.09" y2="-333.06" gradientTransform="matrix(0, -1, -1, 0, -299.63, 395.42)" gradientUnits="userSpaceOnUse"><stop offset="0" stop-color="#211c1d" stop-opacity="0"/><stop offset="0.04" stop-color="#211c1d" stop-opacity="0.09"/><stop offset="0.5" stop-color="#211c1d"/><stop offset="0.95" stop-color="#211c1d" stop-opacity="0.09"/><stop offset="1" stop-color="#211c1d" stop-opacity="0"/></linearGradient><linearGradient id="a2db80de-fb4c-4b4f-aa2e-00b056f45d93" x1="-4466.76" y1="2694.35" x2="-4445.88" y2="2715.23" gradientTransform="matrix(0, 1, 1, 0, -2660.92, 4500.08)" gradientUnits="userSpaceOnUse"><stop offset="0" stop-color="#fff" stop-opacity="0"/><stop offset="0.5" stop-color="#fff"/><stop offset="1" stop-color="#fff" stop-opacity="0"/></linearGradient></defs><circle class="af66c308-87a8-4d77-b06e-199c380cd109" cx="43.8" cy="43.8" r="43.8"/><g class="ee152a08-ce0d-4d06-98b5-a753441e0f73"><path class="e75e966e-d6c2-4791-9bce-0c9eee16c888" d="M43.8,3.22l-8.89,8.59h4.34v9.83h9.1V11.81h4.34ZM15.1,15.1l-.21,12.37L18,24.4l7,7,6.43-6.44L24.39,18l3.08-3.07ZM3.22,43.8l8.59,8.89V48.35h9.83v-9.1H11.81V34.91ZM15.1,72.5l12.37.21-3.08-3.07,7-7-6.43-6.44L18,63.2l-3.07-3.07ZM43.8,84.38l8.89-8.59H48.35V66h-9.1v9.83H34.91ZM72.5,72.5l.21-12.37L69.64,63.2l-7-7-6.44,6.44,7,7-3.07,3.07ZM84.38,43.8l-8.59-8.89v4.34H66v9.1h9.83v4.34ZM72.5,15.1l-12.37-.21L63.2,18l-7,7,6.44,6.44,7-7,3.07,3.07Z" transform="translate(0 0)"/></g><path class="af31906b-613f-4b31-8f5f-6a3a9571bebd" d="M44.29,0a43.8,43.8,0,0,1,0,87.59h.5a43.8,43.8,0,0,0,0-87.6Z" transform="translate(0 0)"/><circle class="a93d95a8-c479-4815-a64c-fd90b2a39b3d" cx="43.83" cy="43.8" r="14.82"/><circle class="a7fc69e3-abc8-4de9-abcb-1ca463ff2bdd" cx="43.83" cy="43.8" r="11.81"/><path class="af2f023c-3046-4768-8e46-4b7561c1156b" d="M29.11,43.77A14.76,14.76,0,1,0,43.87,29,14.76,14.76,0,0,0,29.11,43.77ZM57.83,44A14.15,14.15,0,1,1,43.69,29.8,14.15,14.15,0,0,1,57.83,44Z" transform="translate(0 0)"/><path class="b55a8dba-bccd-48ec-aa59-3eb2835910f6" d="M58.63,43.77A14.76,14.76,0,1,0,43.87,58.53,14.76,14.76,0,0,0,58.63,43.77ZM29.9,43.58A14.15,14.15,0,1,1,44.05,57.73,14.15,14.15,0,0,1,29.9,43.58Z" transform="translate(0 0)"/><circle class="afd03086-3365-4ea6-9f59-9d0ce2c3d5f8" cx="32.85" cy="43.97" r="20.51"/><circle class="afd03086-3365-4ea6-9f59-9d0ce2c3d5f8" cx="27.19" cy="141.09" r="17.46"/><circle class="fe64c736-8b88-4ee9-a142-dc6ae8643c81" cx="27.71" cy="141.09" r="13.88"/><circle class="afd03086-3365-4ea6-9f59-9d0ce2c3d5f8" cx="61.36" cy="196.3" r="17.45"/><circle class="f081c186-6ca6-405c-826e-41ac9001479a" cx="61.88" cy="196.3" r="13.88"/><circle class="afd03086-3365-4ea6-9f59-9d0ce2c3d5f8" cx="27.36" cy="178.07" r="17.45"/><circle class="fbcff39b-ba0a-4963-8f06-5b5dd0bddba5" cx="27.89" cy="178.07" r="13.88"/><circle class="afd03086-3365-4ea6-9f59-9d0ce2c3d5f8" cx="61.4" cy="121.99" r="17.46"/><circle class="fe64c736-8b88-4ee9-a142-dc6ae8643c81" cx="61.92" cy="121.99" r="13.88"/><circle class="afd03086-3365-4ea6-9f59-9d0ce2c3d5f8" cx="61.1" cy="159.32" r="17.46"/><circle class="fbcff39b-ba0a-4963-8f06-5b5dd0bddba5" cx="61.63" cy="159.32" r="13.88"/><circle class="afd03086-3365-4ea6-9f59-9d0ce2c3d5f8" cx="27.62" cy="220.31" r="17.46"/><circle class="f081c186-6ca6-405c-826e-41ac9001479a" cx="28.15" cy="220.31" r="13.88"/></svg>