<svg xmlns="http://www.w3.org/2000/svg" xmlns:xlink="http://www.w3.org/1999/xlink" viewBox="0 0 746.51 822.18"><defs><style>.a29427c0-62aa-49ec-868f-fdad5ee28d25,.ad4257d0-de2c-4fbe-8ce1-ef96e581710a,.b2fa0885-0f46-44e6-8b16-127c664d2c47{fill:#373735;}.b2fa0885-0f46-44e6-8b16-127c664d2c47{opacity:0.5;}.eb59d212-0b58-4f00-9c1a-7126c7c43323{fill:#121211;}.a49b8cde-9354-4bf1-a061-6fa5410ef0ee,.ad4257d0-de2c-4fbe-8ce1-ef96e581710a,.b24161d5-e6cb-46a2-85dc-2cd147807aae,.bbce1442-e013-4473-b9b8-e133ac196e2f,.e867064c-5d59-4145-a224-96b35fb15835,.eb59d212-0b58-4f00-9c1a-7126c7c43323,.f1061c46-a5cc-40d1-9c03-f6c70ad7f38a{stroke:#b5b5b5;}.a12669d3-7d36-44f6-90fa-56b2a308de67,.a49b8cde-9354-4bf1-a061-6fa5410ef0ee,.ad4257d0-de2c-4fbe-8ce1-ef96e581710a,.b24161d5-e6cb-46a2-85dc-2cd147807aae,.bbce1442-e013-4473-b9b8-e133ac196e2f,.e129e6f6-c5f0-4bed-a7a1-87a3d49ea68c,.e3ae33fb-676a-427f-8171-f87f7e040319,.e867064c-5d59-4145-a224-96b35fb15835,.e8a460f8-e684-4457-9694-31e88d4c493a,.eb59d212-0b58-4f00-9c1a-7126c7c43323,.ec8b2ad1-2dee-480d-a53c-99fae3a82334,.f1061c46-a5cc-40d1-9c03-f6c70ad7f38a{stroke-miterlimit:10;}.a49b8cde-9354-4bf1-a061-6fa5410ef0ee,.ad4257d0-de2c-4fbe-8ce1-ef96e581710a,.b24161d5-e6cb-46a2-85dc-2cd147807aae,.bbce1442-e013-4473-b9b8-e133ac196e2f,.e3ae33fb-676a-427f-8171-f87f7e040319,.e867064c-5d59-4145-a224-96b35fb15835,.eb59d212-0b58-4f00-9c1a-7126c7c43323,.f1061c46-a5cc-40d1-9c03-f6c70ad7f38a{stroke-width:0.5px;}.e129e6f6-c5f0-4bed-a7a1-87a3d49ea68c{fill:#443840;}.a12669d3-7d36-44f6-90fa-56b2a308de67,.e129e6f6-c5f0-4bed-a7a1-87a3d49ea68c,.e3ae33fb-676a-427f-8171-f87f7e040319{stroke:#090000;}.a12669d3-7d36-44f6-90fa-56b2a308de67,.e129e6f6-c5f0-4bed-a7a1-87a3d49ea68c{stroke-width:0.75px;}.e3ae33fb-676a-427f-8171-f87f7e040319{fill:#6b0c05;}.b46bacd6-6156-4c23-be59-e97a2b207cc1{fill:#86382f;}.a12669d3-7d36-44f6-90fa-56b2a308de67{fill:#8b8b8b;}.e8a460f8-e684-4457-9694-31e88d4c493a{stroke:#373737;}.f4859113-4e36-4e3a-b148-0168977408f5{fill:#e50308;}.e867064c-5d59-4145-a224-96b35fb15835{fill:#bf0000;}.a49b8cde-9354-4bf1-a061-6fa5410ef0ee{fill:#dc6e05;}.a69c4c59-82e4-4451-9fac-1ebf08baa1f2{fill:#fc363a;}.bbce1442-e013-4473-b9b8-e133ac196e2f{fill:#12e600;}.f1061c46-a5cc-40d1-9c03-f6c70ad7f38a{fill:#0b47ce;}.a00a7932-19bd-47f9-b2dc-abc08ad27cc2{fill:#fff;}.b24161d5-e6cb-46a2-85dc-2cd147807aae,.f13cae89-3832-43f6-a7df-b935f7ac4fc1{fill:#282826;}.b6413e85-62ff-4f6f-b159-7c0e07784a2d{fill:#151312;}.e1bfd195-c124-4084-93b2-73297f2d61c7{fill:#555353;}.f57e4b11-d240-4b6d-9990-2528545f779d{fill:#008aa6;}.f6f9c51a-bc7d-4eb4-a069-b3a373ce7816{fill:#ae7a82;}.b39feeb4-8775-4873-85da-904b98726f56{fill:url(#a6c8edfe-0f67-4b17-8120-efa908bd0b59);}.b04e3d7d-2af6-4d83-869d-e42413e62f5e{fill:url(#e66f6285-b19f-4e2b-bccf-1c1261d882fd);}.fa1eff62-e80a-4037-8358-e62636697612{fill:#0000ef;}.a76055ba-e07c-499d-a55e-59c12697ac73{fill:url(#e55380fd-a6b3-4064-b4e6-4eb65e822cbf);}.b8d2ac36-d3b2-46f0-8468-37ae986b74c0{fill:url(#b5a62b02-f63f-4f80-8c7e-5c9af1187d1d);}.e66fbe57-8c81-4ad2-ba0d-ebd1c97d6a5f{fill:url(#f7e25d6e-82fd-488b-bd89-74ae1ace9baf);}.f8c3654f-a4f1-41b4-9ac9-a8cb7aad8376{fill:url(#be893f9c-81ac-4f8b-b743-e99eae74c535);}.ad024d52-d278-4086-8c4b-92518636e739{fill:url(#b56aa151-6140-4375-851a-f0887bedc81a);}.abb169fa-ec83-4022-9f09-5e12cb091381{fill:url(#b830d53a-4bb1-42b4-aa13-4756f58b0805);}.b57ba961-b3a3-44a8-ab59-0873983434f5{fill:#930303;}.f48c9e59-fe31-49e7-9519-96178866af8f{fill:url(#f9cd8934-f1e5-43bd-8a7e-704c0b8a0f53);}.b8c4544b-1217-4dfb-b622-ef5166265e54{fill:url(#e8ba0064-e730-45c8-b10a-ce6372e5f9fd);}.b90140a6-9d28-4c89-b617-78b306df7396{fill:url(#e1ee12c9-778e-4f72-af15-ab524a6004ea);}.aa35d27c-795d-43f4-b2a1-563193902ced{fill:url(#b038bd63-528e-4097-b5a6-411302f5ad57);}.eabdd597-e450-42cc-beaa-7ac83142c0cc{fill:url(#bdf351f4-9f1e-4146-a5f7-aaa0023559a4);}.b193f4e1-5e5e-40e9-9f8e-b20a8c2d3529{fill:url(#be45a7cc-3ebb-41ef-a8db-d908e2d9427b);}.abc60413-c21c-4d0e-9bc4-71ee1141ba80{fill:#e7e7e7;}.a18bbecd-498f-4653-8088-5bc38d384605{fill:#2c2b29;}.bff5a937-623c-4672-b6b7-1b53c61d12ad{fill:#2785db;}.fe4c2f7d-775c-4625-bc4b-06ff6b87d6d8{fill:#44c047;}.ab47b664-edf5-41c9-9766-9db6ebccc0f9{fill:#eb1416;}.bb58fe18-ac77-470a-8498-14eff7ebfd15,.ec8b2ad1-2dee-480d-a53c-99fae3a82334{fill:#f91b20;}.ec8b2ad1-2dee-480d-a53c-99fae3a82334{stroke:#fff;}</style><radialGradient id="a6c8edfe-0f67-4b17-8120-efa908bd0b59" cx="65.88" cy="348.77" r="11.47" gradientUnits="userSpaceOnUse"><stop offset="0" stop-color="#fd6d66"/><stop offset="0.78" stop-color="#b50a03"/></radialGradient><radialGradient id="e66f6285-b19f-4e2b-bccf-1c1261d882fd" cx="195.83" cy="370.99" r="11.47" xlink:href="#a6c8edfe-0f67-4b17-8120-efa908bd0b59"/><radialGradient id="e55380fd-a6b3-4064-b4e6-4eb65e822cbf" cx="92.36" cy="393.88" r="5.66" gradientTransform="translate(0 157.55) scale(1 0.6)" gradientUnits="userSpaceOnUse"><stop offset="0" stop-color="#0000ef"/><stop offset="0.15" stop-color="#0000e9"/><stop offset="0.34" stop-color="#0101d9"/><stop offset="0.56" stop-color="#0101be"/><stop offset="0.79" stop-color="#02029a"/><stop offset="1" stop-color="#020282"/></radialGradient><radialGradient id="b5a62b02-f63f-4f80-8c7e-5c9af1187d1d" cx="114.61" cy="393.88" r="5.66" xlink:href="#e55380fd-a6b3-4064-b4e6-4eb65e822cbf"/><radialGradient id="f7e25d6e-82fd-488b-bd89-74ae1ace9baf" cx="133.17" cy="400.04" r="5.66" gradientTransform="translate(0 160.02) scale(1 0.6)" xlink:href="#e55380fd-a6b3-4064-b4e6-4eb65e822cbf"/><radialGradient id="be893f9c-81ac-4f8b-b743-e99eae74c535" cx="139.21" cy="387.78" r="5.66" gradientTransform="translate(0 155.11) scale(1 0.6)" xlink:href="#e55380fd-a6b3-4064-b4e6-4eb65e822cbf"/><radialGradient id="b56aa151-6140-4375-851a-f0887bedc81a" cx="121.61" cy="382.1" r="5.66" gradientTransform="translate(0 152.84) scale(1 0.6)" xlink:href="#e55380fd-a6b3-4064-b4e6-4eb65e822cbf"/><radialGradient id="b830d53a-4bb1-42b4-aa13-4756f58b0805" cx="100.32" cy="382.53" r="5.66" gradientTransform="translate(0 153.01) scale(1 0.6)" xlink:href="#e55380fd-a6b3-4064-b4e6-4eb65e822cbf"/><radialGradient id="f9cd8934-f1e5-43bd-8a7e-704c0b8a0f53" cx="225.51" cy="404.67" r="5.66" xlink:href="#a6c8edfe-0f67-4b17-8120-efa908bd0b59"/><radialGradient id="e8ba0064-e730-45c8-b10a-ce6372e5f9fd" cx="246.79" cy="404.24" r="5.66" xlink:href="#a6c8edfe-0f67-4b17-8120-efa908bd0b59"/><radialGradient id="e1ee12c9-778e-4f72-af15-ab524a6004ea" cx="264.4" cy="409.93" r="5.66" xlink:href="#a6c8edfe-0f67-4b17-8120-efa908bd0b59"/><radialGradient id="b038bd63-528e-4097-b5a6-411302f5ad57" cx="258.36" cy="422.19" r="5.66" xlink:href="#a6c8edfe-0f67-4b17-8120-efa908bd0b59"/><radialGradient id="bdf351f4-9f1e-4146-a5f7-aaa0023559a4" cx="239.79" cy="416.02" r="5.66" xlink:href="#a6c8edfe-0f67-4b17-8120-efa908bd0b59"/><radialGradient id="be45a7cc-3ebb-41ef-a8db-d908e2d9427b" cx="217.55" cy="416.02" r="5.66" xlink:href="#a6c8edfe-0f67-4b17-8120-efa908bd0b59"/></defs><g id="ab921a71-121c-44d2-b16b-151c148fa32b" data-name="Calque 1"><polygon id="beb4d3b5-12f7-4264-8b0d-195bb019dcc9" data-name="ombre" class="b2fa0885-0f46-44e6-8b16-127c664d2c47" points="452.03 588.79 473.54 582.88 481.45 582.88 485.41 582.88 486.99 585.84 724.35 629.14 735.43 629.14 746.5 660.53 700.09 698.24 653.67 711.43 645.49 710.11 645.76 708.26 631.78 705.63 548.18 733.58 474.86 785.15 452.03 791.97 444.26 790.81 444.26 788.18 428.18 785.15 298.19 819.52 452.03 588.79"/><g id="bf7afc8d-6cf2-4d2b-8245-fb7b6e86336c" data-name="bottom"><polygon class="a29427c0-62aa-49ec-868f-fdad5ee28d25" points="36 454.56 260.9 494.18 260.9 498.53 286.62 504.66 286.22 816 37.98 768.73 36 454.56"/><path class="eb59d212-0b58-4f00-9c1a-7126c7c43323" d="M202,526.54,123.62,512.8c-3,.19-4.26,3.56-4.26,3.56l.2,85c.69,2.18,3.86,5,3.86,5l74.27,13.46c5.14.49,7.52-5.25,7.52-5.25V531.88A7.12,7.12,0,0,0,202,526.54ZM152.1,549.09l-18.69-3.46v-20l2.27-1.88,18.1,3.07L152,529.51Zm31.45,6.13-18.69-3.46v-20l2.27-1.87,18.1,3.06-1.78,2.67Z" transform="translate(-0.98 -0.52)"/><polygon class="e129e6f6-c5f0-4bed-a7a1-87a3d49ea68c" points="134.7 523.25 132.43 525.13 132.43 545.11 151.12 548.57 151.02 528.99 152.8 526.32 134.7 523.25"/><polygon class="e129e6f6-c5f0-4bed-a7a1-87a3d49ea68c" points="166.15 529.38 163.88 531.26 163.88 551.24 182.57 554.7 182.47 535.12 184.25 532.45 166.15 529.38"/><polygon class="e3ae33fb-676a-427f-8171-f87f7e040319" points="140.14 543.03 140.14 530.18 148.15 531.96 148.15 544.52 140.14 543.03"/><polygon class="e3ae33fb-676a-427f-8171-f87f7e040319" points="171.2 548.87 171.2 536.01 179.21 537.79 179.21 550.35 171.2 548.87"/><polygon points="135.23 543.16 135.23 527.93 137.28 528.33 137.28 543.49 135.23 543.16"/><polygon points="166.68 548.7 166.68 533.47 168.72 533.87 168.72 549.03 166.68 548.7"/><polygon class="b46bacd6-6156-4c23-be59-e97a2b207cc1" points="140.4 530.69 140.4 530.34 147.87 532.14 147.88 532.57 140.4 530.69"/><polygon class="b46bacd6-6156-4c23-be59-e97a2b207cc1" points="171.46 536.62 171.46 536.33 178.93 537.97 178.94 538.32 171.46 536.62"/><circle class="a12669d3-7d36-44f6-90fa-56b2a308de67" cx="192.4" cy="574.85" r="4.25"/><polygon class="e8a460f8-e684-4457-9694-31e88d4c493a" points="136.29 598.71 136.29 587.44 148.25 589.62 148.25 600.92 136.29 598.71"/><polygon class="e8a460f8-e684-4457-9694-31e88d4c493a" points="167.54 604.25 167.54 592.98 179.5 595.15 179.5 606.03 167.54 604.25"/></g><g id="a02c8608-2971-4e1e-9390-3423e058a8b3" data-name="t molding"><path class="f4859113-4e36-4e3a-b148-0168977408f5" d="M11.46,450.59l-.79-39.76L1,407.66v45.1l27.89,5.54c.59,103.55,1,207.6,1.58,311.15A6.18,6.18,0,0,0,34,771.64a12.58,12.58,0,0,0,5,0L37,455.08Z" transform="translate(-0.98 -0.52)"/><path class="f4859113-4e36-4e3a-b148-0168977408f5" d="M272.36,497V455.73l-10.28-1.19-.2,44.51,25.71,6.13s-1.51,313.85,0,315.69,8.77,1.32,8.77,1.32l.93-319.91Z" transform="translate(-0.98 -0.52)"/><polygon class="f4859113-4e36-4e3a-b148-0168977408f5" points="78.72 346.42 70.57 345.12 86.83 126.56 95.87 128.06 78.72 346.42"/><polygon class="f4859113-4e36-4e3a-b148-0168977408f5" points="329.24 388.85 338.34 390.13 356.83 165.82 330.46 165.82 330.2 74.9 320.14 73.06 320.14 167.9 326.18 168.99 346.45 168.99 329.24 388.85"/><path class="f4859113-4e36-4e3a-b148-0168977408f5" d="M88.49,127.19s-28.17-.35-29.11-.85c0-31.21.06-62.83,0-94l9.36,2.64L69.22,124Z" transform="translate(-0.98 -0.52)"/><g id="b98001f8-5ff7-4d1c-8891-6ad8cbbacb42" data-name="clair"><polygon class="f4859113-4e36-4e3a-b148-0168977408f5" points="0 407.14 9.69 410.31 78 346.25 69.89 344.31 0 407.14"/><polygon class="f4859113-4e36-4e3a-b148-0168977408f5" points="261.1 454.02 271.38 455.21 338.34 389.34 329.72 387.74 261.1 454.02"/><polygon class="f4859113-4e36-4e3a-b148-0168977408f5" points="111.56 0 58.42 31.78 67.78 34.42 120.36 3.3 123.1 1.68 120.53 1.32 111.56 0"/><polygon class="f4859113-4e36-4e3a-b148-0168977408f5" points="383.74 40.62 372.53 39.82 320.14 73.06 330.2 74.9 383.74 40.62"/></g></g><g id="e0678fb4-ea0a-41d6-ac46-68dc5bd72c6f" data-name="side"><polygon class="eb59d212-0b58-4f00-9c1a-7126c7c43323" points="453.13 308.64 453.76 149.01 383.74 40.62 330.2 74.9 330.46 165.82 356.83 165.82 338.34 390.13 271.38 455.21 271.38 496.48 296.31 501.76 295.38 821.67 303.63 815.35 453.28 271.65 453.07 293.16 310.97 809.71 309.36 810.95 316.3 805.63 453.13 308.64 453.13 308.64"/><polygon class="eb59d212-0b58-4f00-9c1a-7126c7c43323" points="324.06 799.15 316.3 805.63 328.29 796.43 452.99 343.19 453.04 331.06 324.06 799.15"/><polygon class="eb59d212-0b58-4f00-9c1a-7126c7c43323" points="335.43 790.95 334.11 791.97 340.98 786.7 452.77 379.06 452.77 400.31 452.99 343.19 452.77 367.19 335.43 790.95"/><polygon class="eb59d212-0b58-4f00-9c1a-7126c7c43323" points="343 785.15 451.58 701.87 452.76 402.02 347.4 781.78 343 785.15"/><polygon class="e867064c-5d59-4145-a224-96b35fb15835" points="303.63 815.35 309.36 810.95 303.63 815.35 303.63 815.35"/><polygon class="f4859113-4e36-4e3a-b148-0168977408f5" points="453.07 293.16 453.28 271.65 303.63 815.35 309.36 810.95 310.97 809.71 453.07 293.16"/><polygon class="a49b8cde-9354-4bf1-a061-6fa5410ef0ee" points="453.13 330.74 453.13 308.64 453.04 331.06 453.13 330.74"/><polygon class="a49b8cde-9354-4bf1-a061-6fa5410ef0ee" points="316.3 805.63 316.3 805.63 316.3 805.63 316.3 805.63"/><polygon class="a69c4c59-82e4-4451-9fac-1ebf08baa1f2" points="453.04 331.06 453.13 308.64 453.13 308.64 316.3 805.63 316.3 805.63 324.06 799.15 453.04 331.06"/><polygon class="bbce1442-e013-4473-b9b8-e133ac196e2f" points="452.99 343.19 452.99 343.19 452.99 343.19 452.99 343.19"/><polygon class="bbce1442-e013-4473-b9b8-e133ac196e2f" points="328.29 796.43 334.11 791.97 328.29 796.43 328.29 796.43"/><polygon points="334.11 791.97 335.43 790.95 452.77 367.19 452.99 343.19 452.99 343.19 328.29 796.43 334.11 791.97"/><polygon class="f1061c46-a5cc-40d1-9c03-f6c70ad7f38a" points="340.98 786.7 343 785.15 340.98 786.7 340.98 786.7"/><polygon class="f1061c46-a5cc-40d1-9c03-f6c70ad7f38a" points="452.77 402 452.77 400.31 452.76 402.02 452.77 402"/><polygon class="a00a7932-19bd-47f9-b2dc-abc08ad27cc2" points="340.98 786.7 343 785.15 347.4 781.78 452.76 402.02 452.77 400.31 452.77 379.06 340.98 786.7"/></g><g id="e2a4764e-19eb-4ee6-9f19-775d3c7b3520" data-name="panel"><polygon class="b24161d5-e6cb-46a2-85dc-2cd147807aae" points="10.48 450.07 260.9 494.18 261.1 454.02 9.69 410.31 10.48 450.07"/><polygon class="a29427c0-62aa-49ec-868f-fdad5ee28d25" points="79.37 345.21 9.69 410.31 261.1 454.02 329.72 387.74 79.37 345.21"/></g><g id="aa5f820f-810f-4e90-9ce6-90bf8dd3aba0" data-name="ecran"><path class="b24161d5-e6cb-46a2-85dc-2cd147807aae" d="M96.84,129.36,79.7,347.72l250.52,42.43L347.82,168Zm224.28,67.76c0,.2-.29.32-.48.49L310.21,342.44a35.43,35.43,0,0,1-4.3,3.78l1.4.29v10.7s-1.4,4.75-11.08,2.64c-11.19-2.44-178.55-31.91-178.55-31.91l8.72-6.78v-1.39s-2.46.52-6-7l-12.48,2.77h-4l11.34-158.77s4-6.85,10.81-6.59,191.16,30.59,191.16,30.59S323.4,181.84,321.12,197.12Z" transform="translate(-0.98 -0.52)"/><path class="b6413e85-62ff-4f6f-b159-7c0e07784a2d" d="M317.28,180S133,149.66,126.12,149.4,115.31,156,115.31,156L103.57,316.08h4.35l12.29-2.68c-.1-.23-.74-1.57-.85-1.8L131,166.54s2.11-5.54,7.12-7.38l177.49,27.16a20.77,20.77,0,0,1,5.11,9.76l-.05.75c.19-.17.62.66.66.47C324.56,183.24,317.28,180,317.28,180Z" transform="translate(-0.98 -0.52)"/><path class="e1bfd195-c124-4084-93b2-73297f2d61c7" d="M125.32,320l-8.56,8s164.63,29.3,178.61,32.24c10.36,2.17,14.43-3.58,14.43-3.58l.61-7.37.39-7.71-4.89,3.84a20.85,20.85,0,0,1-7.73,3.87Z" transform="translate(-0.98 -0.52)"/><path class="f57e4b11-d240-4b6d-9990-2528545f779d" d="M319.5,197.81c.45-.36.83-.69,1.14-1l.66-.52a20.31,20.31,0,0,0-5.72-10L138.09,159.16c-5,1.84-7.12,7.38-7.12,7.38L119.36,311.6l.32.66c3.54,7.52,6.28,8,6.28,8l.44.08,171.78,28.93a20.85,20.85,0,0,0,7.73-3.87c2.57-1.91,4.89-3.84,4.89-3.84l10.5-145.29C320.86,196.73,320.25,197.23,319.5,197.81ZM143.83,302.35l0,0Z" transform="translate(-0.98 -0.52)"/></g><g id="b78b9cbe-56fe-4718-9bf2-b306a4765638" data-name="top"><polygon id="ff8a2097-3b83-47fb-94dc-8ca7226bdbfc" data-name="marquee" class="b24161d5-e6cb-46a2-85dc-2cd147807aae" points="68.24 123.84 319.71 162.87 320.14 73.4 67.78 34.76 68.24 123.84"/><polygon class="ad4257d0-de2c-4fbe-8ce1-ef96e581710a" points="128.84 2.64 123.1 1.68 67.78 34.42 320.14 73.06 372.53 39.82 128.84 2.64"/></g><g id="e8e6e50a-0415-45ae-815c-18c41f5a1bf4" data-name="stickp1"><path class="f13cae89-3832-43f6-a7df-b935f7ac4fc1" d="M68.92,377.27v5.16H62.4v-5.16c-5.06.64-8.77,2.7-8.77,5.16,0,3,5.38,5.35,12,5.35s12-2.39,12-5.35C77.69,380,74,377.91,68.92,377.27Z" transform="translate(-0.98 -0.52)"/><path class="f6f9c51a-bc7d-4eb4-a069-b3a373ce7816" d="M68.92,377.27V359.49a12.18,12.18,0,0,1-3,.39,12.4,12.4,0,0,1-3.48-.49v17.88a26.67,26.67,0,0,1,6.52,0Z" transform="translate(-0.98 -0.52)"/><path class="f6f9c51a-bc7d-4eb4-a069-b3a373ce7816" d="M68.92,382.43v-5.16a26.67,26.67,0,0,0-6.52,0v5.16Z" transform="translate(-0.98 -0.52)"/><path class="b39feeb4-8775-4873-85da-904b98726f56" d="M68.92,358.89v.6a11.24,11.24,0,0,0,8.77-10.72c0-6.14-5.29-11.11-11.81-11.11s-11.82,5-11.82,11.11a11.22,11.22,0,0,0,8.34,10.62v-.5Z" transform="translate(-0.98 -0.52)"/><path class="f6f9c51a-bc7d-4eb4-a069-b3a373ce7816" d="M68.92,359.49v-.6H62.4v.5a12.4,12.4,0,0,0,3.48.49A12.18,12.18,0,0,0,68.92,359.49Z" transform="translate(-0.98 -0.52)"/><path class="b39feeb4-8775-4873-85da-904b98726f56" d="M68.92,359.49v-.6H62.4v.5a12.4,12.4,0,0,0,3.48.49A12.18,12.18,0,0,0,68.92,359.49Z" transform="translate(-0.98 -0.52)"/></g><g id="ae57e60c-32d0-4854-987d-68d5f3b58e4b" data-name="stickp2"><path class="f13cae89-3832-43f6-a7df-b935f7ac4fc1" d="M198.88,399.49v5.16h-6.53v-5.16c-5,.64-8.77,2.7-8.77,5.16,0,3,5.39,5.35,12,5.35s12-2.39,12-5.35C207.65,402.19,203.94,400.13,198.88,399.49Z" transform="translate(-0.98 -0.52)"/><path class="f6f9c51a-bc7d-4eb4-a069-b3a373ce7816" d="M198.88,399.49V381.71a12.2,12.2,0,0,1-3,.39,12.83,12.83,0,0,1-3.48-.49v17.88a26.75,26.75,0,0,1,6.53,0Z" transform="translate(-0.98 -0.52)"/><path class="f6f9c51a-bc7d-4eb4-a069-b3a373ce7816" d="M198.88,404.65v-5.16a26.75,26.75,0,0,0-6.53,0v5.16Z" transform="translate(-0.98 -0.52)"/><path class="b04e3d7d-2af6-4d83-869d-e42413e62f5e" d="M198.88,381.11v.6A11.24,11.24,0,0,0,207.65,371c0-6.14-5.29-11.11-11.82-11.11S184,364.85,184,371a11.22,11.22,0,0,0,8.34,10.62v-.5Z" transform="translate(-0.98 -0.52)"/><path class="f6f9c51a-bc7d-4eb4-a069-b3a373ce7816" d="M198.88,381.71v-.6h-6.53v.5a12.83,12.83,0,0,0,3.48.49A12.2,12.2,0,0,0,198.88,381.71Z" transform="translate(-0.98 -0.52)"/><path class="b04e3d7d-2af6-4d83-869d-e42413e62f5e" d="M198.88,381.71v-.6h-6.53v.5a12.83,12.83,0,0,0,3.48.49A12.2,12.2,0,0,0,198.88,381.71Z" transform="translate(-0.98 -0.52)"/></g><g id="ad67047c-5655-45dc-a84a-1df38ef6eae1" data-name="boutons P1"><g id="b2b2ffa8-5570-4d9a-81a7-5c3bf337a498" data-name="4"><path class="fa1eff62-e80a-4037-8358-e62636697612" d="M92.54,389.14c-3.86,0-8.12,1.53-8.12,4.87,0,2.95,4.1,4.62,7.94,4.62,4.11,0,8-1.73,8-4.88C100.32,391.4,96.48,389.14,92.54,389.14Zm-.18,8.63c-3.86,0-7-1.74-7-3.89s3.13-3.89,7-3.89,7,1.74,7,3.89S96.22,397.77,92.36,397.77Z" transform="translate(-0.98 -0.52)"/><path class="a76055ba-e07c-499d-a55e-59c12697ac73" d="M92.36,390c-3.86,0-7,1.74-7,3.89s3.13,3.89,7,3.89,7-1.74,7-3.89S96.22,390,92.36,390Z" transform="translate(-0.98 -0.52)"/></g><g id="a4615848-b8d0-47d3-a4ef-0cea287bc154" data-name="5"><path class="fa1eff62-e80a-4037-8358-e62636697612" d="M114.79,389.14c-3.86,0-8.12,1.53-8.12,4.87,0,2.95,4.1,4.62,7.94,4.62,4.11,0,8-1.73,8-4.88C122.57,391.4,118.73,389.14,114.79,389.14Zm-.18,8.63c-3.86,0-7-1.74-7-3.89s3.13-3.89,7-3.89,7,1.74,7,3.89S118.47,397.77,114.61,397.77Z" transform="translate(-0.98 -0.52)"/><path class="b8d2ac36-d3b2-46f0-8468-37ae986b74c0" d="M114.61,390c-3.86,0-7,1.74-7,3.89s3.13,3.89,7,3.89,7-1.74,7-3.89S118.47,390,114.61,390Z" transform="translate(-0.98 -0.52)"/></g><g id="f72df2d1-ddaa-43a5-b2a8-4c00460524ec" data-name="6"><path class="fa1eff62-e80a-4037-8358-e62636697612" d="M133.35,395.3c-3.86,0-8.13,1.53-8.13,4.87,0,3,4.11,4.62,7.95,4.62,4.1,0,8-1.73,8-4.88C141.13,397.56,137.29,395.3,133.35,395.3Zm-.18,8.63c-3.86,0-7-1.74-7-3.89s3.13-3.89,7-3.89,7,1.74,7,3.89S137,403.93,133.17,403.93Z" transform="translate(-0.98 -0.52)"/><path class="e66fbe57-8c81-4ad2-ba0d-ebd1c97d6a5f" d="M133.17,396.15c-3.86,0-7,1.74-7,3.89s3.13,3.89,7,3.89,7-1.74,7-3.89S137,396.15,133.17,396.15Z" transform="translate(-0.98 -0.52)"/></g><g id="b764c7c0-c7e8-485c-bbad-d0d4d0024219" data-name="3"><path class="fa1eff62-e80a-4037-8358-e62636697612" d="M139.39,383c-3.86,0-8.13,1.53-8.13,4.88,0,2.95,4.11,4.61,8,4.61,4.1,0,8-1.73,8-4.88C147.17,385.3,143.33,383,139.39,383Zm-.18,8.63c-3.86,0-7-1.74-7-3.89s3.13-3.89,7-3.89,7,1.75,7,3.89S143.07,391.67,139.21,391.67Z" transform="translate(-0.98 -0.52)"/><path class="f8c3654f-a4f1-41b4-9ac9-a8cb7aad8376" d="M139.21,383.89c-3.86,0-7,1.75-7,3.89s3.13,3.89,7,3.89,7-1.74,7-3.89S143.07,383.89,139.21,383.89Z" transform="translate(-0.98 -0.52)"/></g><g id="e029b8b8-c687-44eb-9d64-9cb3858eaffd" data-name="2"><path class="fa1eff62-e80a-4037-8358-e62636697612" d="M121.79,377.35c-3.86,0-8.12,1.53-8.12,4.88,0,2.95,4.1,4.61,7.94,4.61,4.11,0,8-1.73,8-4.88C129.57,379.62,125.73,377.35,121.79,377.35Zm-.18,8.64c-3.86,0-7-1.74-7-3.89s3.13-3.89,7-3.89,7,1.74,7,3.89S125.47,386,121.61,386Z" transform="translate(-0.98 -0.52)"/><path class="ad024d52-d278-4086-8c4b-92518636e739" d="M121.61,378.21c-3.86,0-7,1.74-7,3.89s3.13,3.89,7,3.89,7-1.74,7-3.89S125.47,378.21,121.61,378.21Z" transform="translate(-0.98 -0.52)"/></g><g id="a5b05082-47eb-4fe2-bd68-7f9220b9ebd3" data-name="1"><path class="fa1eff62-e80a-4037-8358-e62636697612" d="M100.5,377.78c-3.86,0-8.13,1.53-8.13,4.88,0,2.95,4.11,4.62,7.95,4.62,4.1,0,8-1.73,8-4.88C108.28,380.05,104.44,377.78,100.5,377.78Zm-.18,8.64c-3.86,0-7-1.74-7-3.89s3.13-3.89,7-3.89,7,1.74,7,3.89S104.18,386.42,100.32,386.42Z" transform="translate(-0.98 -0.52)"/><path class="abb169fa-ec83-4022-9f09-5e12cb091381" d="M100.32,378.64c-3.86,0-7,1.74-7,3.89s3.13,3.89,7,3.89,7-1.74,7-3.89S104.18,378.64,100.32,378.64Z" transform="translate(-0.98 -0.52)"/></g></g><g id="aa31d6aa-3f7e-44b4-9dfd-b38736a681bb" data-name="boutons P2"><g id="a4004658-be24-41c2-95da-50b93cdf691f" data-name="1"><path class="b57ba961-b3a3-44a8-ab59-0873983434f5" d="M225.69,399.93c-3.86,0-8.13,1.53-8.13,4.87,0,2.95,4.11,4.62,7.95,4.62,4.1,0,8-1.73,8-4.88C233.47,402.19,229.63,399.93,225.69,399.93Zm-.18,8.63c-3.86,0-7-1.74-7-3.89s3.13-3.89,7-3.89,7,1.74,7,3.89S229.37,408.56,225.51,408.56Z" transform="translate(-0.98 -0.52)"/><path class="f48c9e59-fe31-49e7-9519-96178866af8f" d="M225.51,400.78c-3.86,0-7,1.74-7,3.89s3.13,3.89,7,3.89,7-1.74,7-3.89S229.37,400.78,225.51,400.78Z" transform="translate(-0.98 -0.52)"/></g><g id="b270bac9-69e6-42b6-bdbe-c52630093951" data-name="2"><path class="b57ba961-b3a3-44a8-ab59-0873983434f5" d="M247,399.49c-3.86,0-8.13,1.54-8.13,4.88,0,2.95,4.11,4.62,7.95,4.62,4.1,0,8-1.73,8-4.88C254.75,401.76,250.91,399.49,247,399.49Zm-.18,8.64c-3.86,0-7-1.74-7-3.89s3.13-3.89,7-3.89,7,1.74,7,3.89S250.65,408.13,246.79,408.13Z" transform="translate(-0.98 -0.52)"/><path class="b8c4544b-1217-4dfb-b622-ef5166265e54" d="M246.79,400.35c-3.86,0-7,1.74-7,3.89s3.13,3.89,7,3.89,7-1.74,7-3.89S250.65,400.35,246.79,400.35Z" transform="translate(-0.98 -0.52)"/></g><g id="a99a222c-1cf9-4fc2-8f87-c3a2163ad60b" data-name="3"><path class="b57ba961-b3a3-44a8-ab59-0873983434f5" d="M264.58,405.18c-3.86,0-8.12,1.53-8.12,4.88,0,2.95,4.1,4.61,7.94,4.61,4.1,0,8-1.73,8-4.88C272.36,407.44,268.52,405.18,264.58,405.18Zm-.18,8.64c-3.86,0-7-1.75-7-3.89s3.13-3.89,7-3.89,7,1.74,7,3.89S268.26,413.82,264.4,413.82Z" transform="translate(-0.98 -0.52)"/><path class="b90140a6-9d28-4c89-b617-78b306df7396" d="M264.4,406c-3.86,0-7,1.74-7,3.89s3.13,3.89,7,3.89,7-1.75,7-3.89S268.26,406,264.4,406Z" transform="translate(-0.98 -0.52)"/></g><g id="ecd13f36-a9f8-4698-8ab2-01602b07538e" data-name="4"><path class="b57ba961-b3a3-44a8-ab59-0873983434f5" d="M258.54,417.44c-3.86,0-8.13,1.53-8.13,4.88,0,2.95,4.11,4.61,8,4.61,4.1,0,8-1.73,8-4.88C266.32,419.7,262.48,417.44,258.54,417.44Zm-.18,8.64c-3.86,0-7-1.75-7-3.89s3.13-3.89,7-3.89,7,1.74,7,3.89S262.22,426.08,258.36,426.08Z" transform="translate(-0.98 -0.52)"/><path class="aa35d27c-795d-43f4-b2a1-563193902ced" d="M258.36,418.3c-3.86,0-7,1.74-7,3.89s3.13,3.89,7,3.89,7-1.75,7-3.89S262.22,418.3,258.36,418.3Z" transform="translate(-0.98 -0.52)"/></g><g id="f41ca958-bf97-43f4-9577-f29fd4adb0e4" data-name="5"><path class="b57ba961-b3a3-44a8-ab59-0873983434f5" d="M240,411.28c-3.86,0-8.13,1.53-8.13,4.88,0,2.95,4.11,4.61,7.95,4.61,4.1,0,8-1.73,8-4.88C247.75,413.54,243.91,411.28,240,411.28Zm-.18,8.63c-3.86,0-7-1.74-7-3.89s3.13-3.89,7-3.89,7,1.75,7,3.89S243.65,419.91,239.79,419.91Z" transform="translate(-0.98 -0.52)"/><path class="eabdd597-e450-42cc-beaa-7ac83142c0cc" d="M239.79,412.13c-3.86,0-7,1.75-7,3.89s3.13,3.89,7,3.89,7-1.74,7-3.89S243.65,412.13,239.79,412.13Z" transform="translate(-0.98 -0.52)"/></g><g id="a152e07e-d1af-4808-97ac-f4121332c58e" data-name="6"><path class="b57ba961-b3a3-44a8-ab59-0873983434f5" d="M217.73,411.28c-3.86,0-8.13,1.53-8.13,4.88,0,2.95,4.11,4.61,8,4.61,4.1,0,8-1.73,8-4.88C225.51,413.54,221.67,411.28,217.73,411.28Zm-.18,8.63c-3.86,0-7-1.74-7-3.89s3.13-3.89,7-3.89,7,1.75,7,3.89S221.41,419.91,217.55,419.91Z" transform="translate(-0.98 -0.52)"/><path class="b193f4e1-5e5e-40e9-9f8e-b20a8c2d3529" d="M217.55,412.13c-3.86,0-7,1.75-7,3.89s3.13,3.89,7,3.89,7-1.74,7-3.89S221.41,412.13,217.55,412.13Z" transform="translate(-0.98 -0.52)"/></g></g><path class="abc60413-c21c-4d0e-9bc4-71ee1141ba80" d="M228.57,237.19v.07l-5.92-1v-.08Z" transform="translate(-0.98 -0.52)"/><path class="abc60413-c21c-4d0e-9bc4-71ee1141ba80" d="M236.56,238.53a.13.13,0,0,0,0,.06l-5.72-1s0,0,0-.06Z" transform="translate(-0.98 -0.52)"/><path class="a18bbecd-498f-4653-8088-5bc38d384605" d="M210.17,273.38l-65.56-11c-.87-.14-.87-.14-.74-.92.25-1.54.47-3.08.75-4.61.78-4.31,1.48-8.63,2.22-12.95.09-.48.22-1,.29-1.44,0-.18.12-.23.31-.19l.75.13L267.5,262.38a16.13,16.13,0,0,1,4.69,1.42,11.54,11.54,0,0,1,5.67,5.9,8.36,8.36,0,0,1,.63,3.88c0,.38-.08.76-.15,1.14l-1.56,9.36c-.07.39-.13.42-.54.36l-40.11-6.72Zm14.68-7.7h0c-.4,2.35-.79,4.71-1.19,7.07,0,.23,0,.34.3.38,1,.15,1.95.32,2.93.49.51.09.51.09.59-.37q.69-4.22,1.4-8.43c0-.08,0-.21.12-.22s.13.1.17.17c1.69,3.14,3.43,6.26,5.06,9.42a2.38,2.38,0,0,0,3.55.6c.9-.94,1.91-1.79,2.87-2.68l4.89-4.53c.08-.07.15-.22.26-.17s0,.2,0,.31,0,.08,0,.12c-.47,2.79-.93,5.58-1.4,8.37,0,.25,0,.35.31.4,1,.16,2,.32,3.06.51.34.07.45,0,.49-.32q1.16-6.92,2.32-13.83a1.32,1.32,0,0,0-.25-1,2.34,2.34,0,0,0-3.26-.37l-2.16,2L236.79,271c-.25.23-.28.22-.45-.08-2.2-4.06-4.42-8.11-6.61-12.17a2.14,2.14,0,0,0-1.43-1.06A1.74,1.74,0,0,0,226,259Zm-4.51-.71h0c.38-2.31.76-4.61,1.16-6.92a1.32,1.32,0,0,0-.45-1.21,2.4,2.4,0,0,0-3.17,0c-2.39,2.24-4.82,4.43-7.24,6.63l-2.95,2.7c-.13.12-.23.25-.37,0l-3.44-6.31c-1.1-2-2.19-4-3.3-6a2.24,2.24,0,0,0-2.21-1,1.52,1.52,0,0,0-1.5,1.37q-1.16,6.86-2.3,13.71c0,.28.05.37.35.41,1,.15,2,.32,3,.5.44.07.45.08.51-.3.46-2.73.91-5.46,1.37-8.19,0-.13,0-.27.06-.4s0-.16.11-.17.1.08.13.14.18.34.28.51c1.63,3,3.29,6,4.88,9.07a2.34,2.34,0,0,0,3.35.6c.47-.47,1-.91,1.48-1.37l6.5-6c.06-.05.09-.14.19-.11s.07.14.06.22c-.14.81-.28,1.62-.41,2.44-.35,2.06-.69,4.13-1,6.2,0,.22,0,.32.29.36l3,.5c.44.07.45.07.52-.31Q219.75,268.44,220.34,265Zm33.15,5.67h0c-.38,2.28-.76,4.57-1.15,6.85-.06.31.06.41.38.45,1,.16,2,.32,3,.5.33.07.45,0,.5-.31.16-1,.35-2.08.51-3.12,0-.23.12-.33.4-.28l12.77,2.14c.33.05.39.18.34.45-.18,1-.34,2.08-.53,3.12-.05.25,0,.35.32.4,1,.15,2,.32,3,.49.45.07.46.07.53-.34q.61-3.66,1.22-7.32a6.88,6.88,0,0,0-2.51-6.52,12.61,12.61,0,0,0-6.36-3c-2.38-.41-4.76-.8-7.13-1.19-.72-.12-1.45-.26-2.17-.35a1.6,1.6,0,0,0-1.91,1.29C254.24,266.17,253.87,268.4,253.49,270.64Zm-62.24-10.42h0l1.14-6.79a1.24,1.24,0,0,0,0-.47,1.91,1.91,0,0,0-1.63-1.33c-1.55-.26-3.1-.53-4.65-.77-1.84-.3-3.66-.71-5.51-.87a11.55,11.55,0,0,0-7,1.39,6.55,6.55,0,0,0-3.37,4.67q-.63,3.74-1.25,7.47c-.07.4-.07.4.36.47,1,.17,2,.32,2.93.5.33.06.45,0,.5-.31.15-1,.34-2.06.5-3.09,0-.29.17-.35.48-.3l12.67,2.12c.34,0,.42.16.37.46-.19,1-.35,2.08-.54,3.11,0,.26,0,.36.32.4,1,.16,2,.32,3,.51.33.06.44,0,.49-.32C190.48,264.79,190.87,262.5,191.25,260.22Zm-38.3,1h0l6.47,1.08a7.76,7.76,0,0,0,2.76,0,3.93,3.93,0,0,0,3.34-2.92c.64-3.78,1.26-7.55,1.9-11.33.05-.27,0-.37-.33-.42-1-.15-2-.32-3-.5-.36-.07-.46,0-.51.33q-.92,5.58-1.86,11.15a1.08,1.08,0,0,1-1.24.95,4.41,4.41,0,0,1-.73-.08c-1-.18-2-.37-3.06-.54l-7-1.15c-.28-.05-.35-.15-.31-.38.11-.59.19-1.18.31-1.76.06-.28,0-.4-.35-.45-.84-.13-1.68-.26-2.52-.42-.34-.07-.44,0-.49.32-.24,1.49-.49,3-.74,4.45-.07.42-.07.42.42.5Z" transform="translate(-0.98 -0.52)"/><path class="a18bbecd-498f-4653-8088-5bc38d384605" d="M230.83,237.63l5.72,1c.15.09.15.2.13.35-.37,2.17-.73,4.34-1.11,6.51,0,.29,0,.38.34.43,3.09.5,6.18,1,9.27,1.54.32.05.34.16.31.44-.06.67-.23,1.33-.32,2-.22,1.55-.54,3.09-.8,4.63-.1.59-.17,1.19-.26,1.78,0,.2-.12.31-.4.26L228.57,254c-.65-.11-.65-.11-.56-.68q1.29-7.69,2.57-15.38C230.6,237.79,230.6,237.63,230.83,237.63Zm3.94,12.7h0c-.13.78-.25,1.56-.39,2.34-.05.27,0,.38.33.43,1.06.16,2.11.34,3.16.53.32.06.44,0,.49-.31.25-1.55.51-3.1.78-4.66,0-.24,0-.34-.31-.38q-1.62-.25-3.24-.54c-.28-.05-.39,0-.43.27C235,248.79,234.9,249.56,234.77,250.33Z" transform="translate(-0.98 -0.52)"/><path class="a18bbecd-498f-4653-8088-5bc38d384605" d="M255.63,249.17c2.55.43,5.09.86,7.64,1.27.34.06.42.17.37.47q-.7,4.14-1.39,8.3c-.07.37-.1.4-.52.33L246.38,257c-.27-.05-.34-.16-.3-.39q.72-4.21,1.41-8.43c0-.28.18-.33.47-.28,2.55.44,5.11.86,7.67,1.29Zm1.31,4.88h0c.14-.8.27-1.6.41-2.4,0-.23,0-.36-.3-.4l-3.44-.58c-.26,0-.38,0-.42.27l-.81,4.85c0,.25.05.36.33.41l3.37.56c.3.06.42,0,.46-.3C256.67,255.66,256.81,254.86,256.94,254.05Z" transform="translate(-0.98 -0.52)"/><path class="a18bbecd-498f-4653-8088-5bc38d384605" d="M173.53,244.78l-7.64-1.27c-.31,0-.37-.15-.33-.42q.72-4.2,1.42-8.42c0-.25.13-.32.4-.27L182.74,237c.41.07.43.11.37.49-.26,1.55-.53,3.11-.78,4.66,0,.31-.17.37-.5.32-3.07-.53-6.15-1-9.22-1.55-.46-.08-.46-.08-.52.32s-.11.7-.19,1,0,.35.31.4c2.06.33,4.11.68,6.17,1l3.16.53c.32.05.42.17.37.44s-.14.74-.19,1.11-.18.38-.51.32Zm.92-5.45h0c.56.1,1.13.18,1.69.29.25,0,.35,0,.38-.25,0-.39.12-.78.2-1.17,0-.21,0-.32-.26-.36l-3.41-.57c-.22,0-.33,0-.36.23q-.08.62-.18,1.23c0,.23.06.3.29.33C173.35,239.13,173.9,239.23,174.45,239.33Z" transform="translate(-0.98 -0.52)"/><path class="a18bbecd-498f-4653-8088-5bc38d384605" d="M211.28,241.75l7.64,1.28c.44.07.5.14.42.52-.43,2-.7,4-1.05,6-.14.74-.27,1.48-.37,2.23,0,.29-.15.37-.49.31-2.08-.36-4.17-.7-6.26-1l-9-1.51c-.42-.07-.43-.08-.37-.47.26-1.56.53-3.11.77-4.67,0-.32.18-.37.52-.31l9.16,1.54c.46.07.46.07.53-.33s.09-.67.17-1,0-.4-.36-.46c-2.34-.37-4.68-.77-7-1.16l-2.31-.38c-.24,0-.32-.12-.28-.34a10.85,10.85,0,0,0,.21-1.27c0-.27.16-.31.43-.26l5.37.9,2.27.38ZM210.13,249h0c.55.09,1.11.17,1.66.27.21,0,.33,0,.36-.21l.21-1.23c0-.19-.05-.29-.27-.33l-3.33-.56c-.24,0-.35,0-.38.24,0,.4-.11.79-.19,1.17-.05.23.05.33.29.37C209,248.79,209.58,248.89,210.13,249Z" transform="translate(-0.98 -0.52)"/><path class="a18bbecd-498f-4653-8088-5bc38d384605" d="M268.74,251.36c.87.15,1.74.31,2.62.44.31,0,.38.18.34.43-.08.4-.13.8-.21,1.2,0,.21,0,.3.27.34l3.36.56c.28,0,.38,0,.41-.27.06-.41.15-.82.2-1.23,0-.23.15-.27.37-.24l5.4.91c.21,0,.3.13.27.33-.08.43-.16.86-.22,1.29,0,.23-.16.29-.41.25-.44-.09-.89-.15-1.34-.24-.24,0-.33,0-.36.24-.05.4-.13.8-.19,1.2,0,.23-.15.3-.4.25-.47-.08-.94-.15-1.41-.24-.17,0-.24,0-.29.17-.13.44-.08.91-.25,1.34-.07.18.07.24.24.27l1.38.22c.28,0,.38.15.33.41s-.13.78-.21,1.17c0,.21.05.31.28.34l1.34.22c.25,0,.34.13.3.36-.09.42-.17.84-.22,1.27,0,.22-.15.27-.36.24l-.65-.11-4.62-.77c-.45-.08-.45-.08-.38-.49s.12-.76.19-1.14c.05-.21,0-.3-.27-.34l-3.44-.58c-.22,0-.29,0-.31.21-.06.4-.16.8-.19,1.21s-.19.37-.5.32l-4.72-.8c-1.16-.19-.93-.1-.8-1,0-.25.09-.49.12-.74s.16-.29.4-.25c.45.09.9.15,1.34.24.27.05.39,0,.42-.26s.14-.78.19-1.17.16-.31.41-.26c.46.09.92.15,1.37.24.21,0,.3,0,.32-.2.06-.43.13-.85.22-1.27,0-.21-.05-.28-.26-.31l-1.38-.23c-.24,0-.34-.12-.29-.36s.14-.78.21-1.17c0-.23,0-.35-.31-.38-.45-.06-.9-.15-1.35-.22-.25,0-.34-.14-.29-.37q.12-.63.21-1.26c0-.24.16-.29.4-.24Z" transform="translate(-0.98 -0.52)"/><path class="a18bbecd-498f-4653-8088-5bc38d384605" d="M222.64,236.28l5.92,1a.42.42,0,0,1,.05.36q-1.31,7.77-2.6,15.56c0,.28-.17.37-.48.31s-.88-.19-1.33-.26l-3.89-.62c-.46-.08-.45-.08-.39-.49q1.31-7.74,2.6-15.49C222.54,236.51,222.52,236.37,222.64,236.28Z" transform="translate(-0.98 -0.52)"/><path class="a18bbecd-498f-4653-8088-5bc38d384605" d="M191.71,247.82,184,246.54c-.3,0-.4-.14-.35-.43q.72-4.2,1.41-8.4c0-.26.15-.32.42-.27L200.87,240c.31.05.42.18.36.45s-.11.72-.19,1.08-.13.41-.55.34l-4.16-.7-5.06-.85c-.28,0-.37,0-.41.25-.22,1.39-.46,2.78-.69,4.17a2.74,2.74,0,0,1,0,.28c-.11.6-.11.6.58.72l8.92,1.49c.42.07.45.11.39.5s-.15.72-.18,1.08-.19.35-.48.3c-.56-.11-1.12-.2-1.68-.29Z" transform="translate(-0.98 -0.52)"/><path class="bff5a937-623c-4672-b6b7-1b53c61d12ad" d="M291.07,282.1c-.25,1.47-.49,2.94-.74,4.41-.07.42-.07.42-.51.34l-4.27-.71c-.27,0-.37-.13-.3-.37s.07-.41.11-.62-.06-.27-.25-.29l-.49-.05c-.39-.06-.49,0-.51.37,0,.06,0,.12,0,.19,0,.43-.14.5-.63.42-1.39-.23-2.79-.47-4.19-.69-.32-.05-.4-.19-.36-.45.5-3,1-5.91,1.49-8.86.06-.36.14-.42.55-.33,2.95.58,5.92,1,8.87,1.52.52.09,1,.13,1.55.22s.47.1.4.52c-.24,1.46-.49,2.92-.73,4.38Zm-8.37-.17h0l1.58.27c.22,0,.32,0,.35-.22.1-.59.2-1.19.31-1.79,0-.21-.06-.3-.29-.34l-3.13-.52c-.21,0-.31,0-.35.22-.08.59-.18,1.19-.29,1.79,0,.21,0,.31.27.34Zm5.47-1.49h0c-.52-.08-1-.16-1.55-.26-.25-.05-.36,0-.39.24-.09.59-.19,1.19-.29,1.78-.05.23.05.29.28.33,1,.16,2,.33,3,.51.28.05.39,0,.43-.27.08-.56.17-1.13.28-1.69,0-.23,0-.35-.3-.39C289.15,280.61,288.66,280.52,288.17,280.44Z" transform="translate(-0.98 -0.52)"/><path class="fe4c2f7d-775c-4625-bc4b-06ff6b87d6d8" d="M292.87,271.31c-.25,1.48-.5,3-.74,4.44-.07.38-.11.4-.52.34l-2.86-.48c-.41-.07-.49-.18-.43-.54.14-.85.28-1.71.43-2.56a.34.34,0,0,1,0-.1c.2-.63.12-.52.72-.43l1.48.25c.26,0,.4,0,.44-.25.09-.59.19-1.18.29-1.76,0-.21,0-.33-.3-.38l-8-1.34c-.26,0-.39.05-.42.28-.09.57-.19,1.14-.28,1.7,0,.23.05.36.31.41l3.06.52a.25.25,0,0,0,.33-.17,1.81,1.81,0,0,0,.12-.64c0-.19.11-.24.27-.29a.45.45,0,0,1,.2,0c.85.09.89.14.77.88-.21,1.26-.43,2.51-.63,3.77,0,.26-.17.34-.43.3l-5.43-.91c-.49-.08-.55-.15-.48-.58.49-3,1-5.91,1.48-8.87,0-.17.09-.23.28-.22s.55,0,.83.08l9.77,1.63c.55.09.55.1.47.6l-.72,4.32Z" transform="translate(-0.98 -0.52)"/><path class="ab47b664-edf5-41c9-9766-9db6ebccc0f9" d="M289.84,254.78c1.75.29,3.49.59,5.24.87.3,0,.4.13.35.42-.51,3-1,5.95-1.49,8.92-.05.3-.16.38-.49.32-1.4-.25-2.8-.48-4.2-.71-.36-.06-.42-.15-.36-.47,0-.12.06-.23.08-.34.08-.47.08-.47-.46-.56l-.21,0c-.5-.08-.51-.08-.54.39,0,.18-.1.34-.11.52s-.18.19-.35.16l-4.44-.74c-.23,0-.32-.15-.29-.35.17-1,.35-2,.51-3.06,0-.28.23-.27.45-.23l1.83.3c.8.15,1.61.24,2.4.44.25.06.44,0,.48-.27.07-.57.17-1.14.28-1.7.05-.27,0-.38-.34-.43-1.42-.22-2.83-.47-4.24-.7-.29,0-.4-.12-.35-.4.18-1,.33-2,.48-3,0-.26.15-.33.44-.28C286.28,254.19,288.06,254.48,289.84,254.78Zm1.49,6.43h0c.51.08,1,.16,1.54.26.22,0,.35,0,.39-.21.09-.61.19-1.22.3-1.82,0-.2,0-.32-.27-.35l-3.09-.52c-.22,0-.32,0-.35.21-.09.63-.2,1.25-.31,1.88,0,.18,0,.26.24.29Z" transform="translate(-0.98 -0.52)"/><path class="a18bbecd-498f-4653-8088-5bc38d384605" d="M156.94,232.66l7.54,1.26c.53.09.53.09.45.57s-.13.7-.17,1-.16.33-.44.28l-9.3-1.57c-.33-.05-.41,0-.45.3-.35,2.17-.72,4.33-1.07,6.49-.05.31-.2.36-.51.31l-5.19-.87c-.3,0-.4-.14-.35-.42q.72-4.19,1.4-8.39c.05-.31.19-.34.48-.29Z" transform="translate(-0.98 -0.52)"/><path class="abc60413-c21c-4d0e-9bc4-71ee1141ba80" d="M224.85,265.68,226,259a1.74,1.74,0,0,1,2.34-1.33,2.14,2.14,0,0,1,1.43,1.06c2.19,4.06,4.41,8.11,6.61,12.17.17.3.2.31.45.08l8.14-7.43,2.16-2a2.34,2.34,0,0,1,3.26.37,1.32,1.32,0,0,1,.25,1q-1.17,6.91-2.32,13.83c0,.29-.15.39-.49.32-1-.19-2-.35-3.06-.51-.3-.05-.36-.15-.31-.4.47-2.79.93-5.58,1.4-8.37,0,0,0-.08,0-.12s.11-.25,0-.31-.18.1-.26.17l-4.89,4.53c-1,.89-2,1.74-2.87,2.68a2.38,2.38,0,0,1-3.55-.6c-1.63-3.16-3.37-6.28-5.06-9.42,0-.07-.06-.19-.17-.17s-.11.14-.12.22q-.7,4.21-1.4,8.43c-.08.46-.08.46-.59.37-1-.17-1.95-.34-2.93-.49-.28,0-.34-.15-.3-.38.4-2.36.79-4.72,1.19-7.07Z" transform="translate(-0.98 -0.52)"/><path class="abc60413-c21c-4d0e-9bc4-71ee1141ba80" d="M220.34,265q-.59,3.46-1.16,6.95c-.07.38-.08.38-.52.31l-3-.5c-.27,0-.32-.14-.29-.36.36-2.07.7-4.14,1-6.2.13-.82.27-1.63.41-2.44,0-.08.06-.18-.06-.22s-.13.06-.19.11l-6.5,6c-.5.46-1,.9-1.48,1.37a2.34,2.34,0,0,1-3.35-.6c-1.59-3-3.25-6.05-4.88-9.07-.1-.17-.19-.34-.28-.51s-.05-.14-.13-.14-.1.1-.11.17,0,.27-.06.4c-.46,2.73-.91,5.46-1.37,8.19-.06.38-.07.37-.51.3-1-.18-2-.35-3-.5-.3,0-.4-.13-.35-.41q1.16-6.86,2.3-13.71a1.52,1.52,0,0,1,1.5-1.37,2.24,2.24,0,0,1,2.21,1c1.11,2,2.2,4,3.3,6l3.44,6.31c.14.27.24.14.37,0l2.95-2.7c2.42-2.2,4.85-4.39,7.24-6.63a2.4,2.4,0,0,1,3.17,0,1.32,1.32,0,0,1,.45,1.21c-.4,2.31-.78,4.61-1.16,6.92Z" transform="translate(-0.98 -0.52)"/><path class="abc60413-c21c-4d0e-9bc4-71ee1141ba80" d="M253.49,270.64c.38-2.24.75-4.47,1.13-6.7a1.6,1.6,0,0,1,1.91-1.29c.72.09,1.45.23,2.17.35,2.37.39,4.75.78,7.13,1.19a12.61,12.61,0,0,1,6.36,3,6.88,6.88,0,0,1,2.51,6.52q-.6,3.66-1.22,7.32c-.07.41-.08.41-.53.34-1-.17-2-.34-3-.49-.29,0-.37-.15-.32-.4.19-1,.35-2.08.53-3.12.05-.27,0-.4-.34-.45l-12.77-2.14c-.28-.05-.36,0-.4.28-.16,1-.35,2.08-.51,3.12-.05.3-.17.38-.5.31-1-.18-2-.34-3-.5-.32,0-.44-.14-.38-.45.39-2.28.77-4.57,1.15-6.85ZM264,273l6.37,1.07c.3,0,.43,0,.46-.28s.08-.52.12-.78a4.27,4.27,0,0,0-1.54-4.2,8.48,8.48,0,0,0-4-1.85c-2.25-.43-4.52-.78-6.77-1.17-.34-.06-.36.12-.4.33q-.44,2.69-.9,5.37c0,.29,0,.4.36.46Z" transform="translate(-0.98 -0.52)"/><path class="abc60413-c21c-4d0e-9bc4-71ee1141ba80" d="M191.25,260.22c-.38,2.28-.77,4.57-1.14,6.85-.05.3-.16.38-.49.32-1-.19-2-.35-3-.51-.29,0-.36-.14-.32-.4.19-1,.35-2.08.54-3.11.05-.3,0-.41-.37-.46l-12.67-2.12c-.31-.05-.44,0-.48.3-.16,1-.35,2.05-.5,3.09,0,.3-.17.37-.5.31-1-.18-1.95-.33-2.93-.5-.43-.07-.43-.07-.36-.47q.62-3.74,1.25-7.47a6.55,6.55,0,0,1,3.37-4.67,11.55,11.55,0,0,1,7-1.39c1.85.16,3.67.57,5.51.87,1.55.24,3.1.51,4.65.77A1.91,1.91,0,0,1,192.4,253a1.24,1.24,0,0,1,0,.47l-1.14,6.79Zm-10.67-1.14h0c2.11.35,4.22.7,6.33,1.07.32.05.44,0,.48-.29.3-1.81.6-3.63.91-5.44,0-.26,0-.37-.33-.42q-3-.48-6-1a11.11,11.11,0,0,0-3.77,0,4.85,4.85,0,0,0-3.81,2.54,7.49,7.49,0,0,0-.52,2c-.07.4-.07.41.4.48Z" transform="translate(-0.98 -0.52)"/><path class="abc60413-c21c-4d0e-9bc4-71ee1141ba80" d="M153,261.25l-7-1.17c-.49-.08-.49-.08-.42-.5.25-1.48.5-3,.74-4.45.05-.28.15-.39.49-.32.84.16,1.68.29,2.52.42.31.05.41.17.35.45-.12.58-.2,1.17-.31,1.76,0,.23,0,.33.31.38l7,1.15c1,.17,2,.36,3.06.54a4.41,4.41,0,0,0,.73.08,1.08,1.08,0,0,0,1.24-.95q.94-5.58,1.86-11.15c0-.3.15-.4.51-.33,1,.18,2,.35,3,.5.3.05.38.15.33.42-.64,3.78-1.26,7.55-1.9,11.33a3.93,3.93,0,0,1-3.34,2.92,7.76,7.76,0,0,1-2.76,0L153,261.25Z" transform="translate(-0.98 -0.52)"/><path class="a18bbecd-498f-4653-8088-5bc38d384605" d="M264,273l-6.33-1c-.34-.06-.41-.17-.36-.46q.47-2.68.9-5.37c0-.21.06-.39.4-.33,2.25.39,4.52.74,6.77,1.17a8.48,8.48,0,0,1,4,1.85,4.27,4.27,0,0,1,1.54,4.2c0,.26-.1.52-.12.78s-.16.33-.46.28Z" transform="translate(-0.98 -0.52)"/><path class="a18bbecd-498f-4653-8088-5bc38d384605" d="M180.58,259.08l-6.3-1.06c-.47-.07-.47-.08-.4-.48a7.49,7.49,0,0,1,.52-2,4.85,4.85,0,0,1,3.81-2.54,11.11,11.11,0,0,1,3.77,0q3,.51,6,1c.31.05.38.16.33.42-.31,1.81-.61,3.63-.91,5.44,0,.29-.16.34-.48.29-2.11-.37-4.22-.72-6.33-1.07Z" transform="translate(-0.98 -0.52)"/></g><g id="a1bf8e5d-c566-4ad9-88c8-8be690e7a9e5" data-name="Calque 2"><g id="e00f6796-ce8b-42f6-b606-7e050d11a0a0" data-name="Calque 1-2"><g id="a79abad4-89e5-4a15-90e6-cc983b992400" data-name="layer1"><path id="b7b171e4-af97-4d75-a4d0-ef58f8b13754" data-name="rect4393" class="bb58fe18-ac77-470a-8498-14eff7ebfd15" d="M264.73,77.26c-4.12-.64-7.58,3-7.58,8v16.06c0,5,3.46,9.7,7.58,10.33l24.11,3.7c4.11.63,7.56-3,7.56-8v-16c0-5-3.46-9.69-7.56-10.32Zm1.77,10.11L287,90.54v14.91L266.5,102.3Z" transform="translate(-0.98 -0.52)"/><path id="a9aaac4f-83f8-4536-b3f7-5ed98ecb0630" data-name="rect4348" class="bb58fe18-ac77-470a-8498-14eff7ebfd15" d="M81.48,49.53V83.74L91,85.2V60.92l17.94,2.78V88l9.29,1.43V64.56c0-5-3.51-9.76-7.68-10.41C110.44,54,81.48,49.53,81.48,49.53Z" transform="translate(-0.98 -0.52)"/><path id="a201b16e-2f7e-4f82-9034-2a530547a0a6" data-name="path4359" class="bb58fe18-ac77-470a-8498-14eff7ebfd15" d="M124.56,56.21v9l25.73,4v2.39l-20.05-3.1c-4.17-.64-7.67,3-7.67,8.15v4.1c0,5,3.5,9.75,7.77,10.41l29.3,4.5V71c0-5-3.5-9.75-7.75-10.41l-27.34-4.35Zm7.58,21.65,18.06,2.79v4.89l-18.07-2.78Z" transform="translate(-0.98 -0.52)"/><path id="f87a91b3-d12e-479a-9971-d1f37854982c" data-name="path4384" class="bb58fe18-ac77-470a-8498-14eff7ebfd15" d="M165.41,62.54V96.62l9.43,1.45V73.88l9.71,1.5V99.56L194,101V76.84l9.88,1.53v24.15l9.21,1.42V79.22c0-5-3.48-9.72-7.61-10.36C205.35,68.73,165.41,62.54,165.41,62.54Z" transform="translate(-0.98 -0.52)"/><path id="eb58938d-c5b5-4edc-a77b-1db12f884a07" data-name="rect4389" class="bb58fe18-ac77-470a-8498-14eff7ebfd15" d="M226.12,71.27c-4.14-.64-7.61,3-7.61,8v16.1c0,5,3.48,9.71,7.61,10.35l25.69,3.94V99.81L228,96.15V81.42l23.82,3.68V75.25Z" transform="translate(-0.98 -0.52)"/><path id="a5bc4154-5cf0-4400-b040-752182663ea7" data-name="text4406" class="a00a7932-19bd-47f9-b2dc-abc08ad27cc2" d="M302.46,83.45a5.07,5.07,0,0,1,3.17,2.07,6.83,6.83,0,0,1,1.3,4,5.42,5.42,0,0,1-1.3,3.64,3.55,3.55,0,0,1-3.17,1.09,5.09,5.09,0,0,1-3.17-2.08,6.84,6.84,0,0,1-1.31-4,5.19,5.19,0,0,1,1.31-3.63,3.5,3.5,0,0,1,3.17-1.09Zm0,9.93a2.79,2.79,0,0,0,2.61-.95,4.11,4.11,0,0,0,1.12-3,5.41,5.41,0,0,0-1.12-3.33,4,4,0,0,0-2.61-1.76,2.78,2.78,0,0,0-2.61,1,4.11,4.11,0,0,0-1.12,3,5.41,5.41,0,0,0,1.12,3.33,3.93,3.93,0,0,0,2.61,1.76Zm2-1.28-.84-.13-.37-1.3a1.56,1.56,0,0,0-1.31-1.33l-.56-.08v2.37l-.75-.12V85.75l1.78.28c1.3.2,1.86.85,1.86,1.87s-.37,1.52-1.21,1.5a1.89,1.89,0,0,1,.93,1.28C304,90.56,304.42,92.1,304.42,92.1Zm-3.08-3.63.93.14c.75.12,1.12-.16,1.12-.73s-.37-1-1.21-1.09l-.93-.14v1.8Z" transform="translate(-0.98 -0.52)"/></g></g><path class="ec8b2ad1-2dee-480d-a53c-99fae3a82334" d="M82.07,115.07v-5.7l19.19,2.92v-3.87l-13.1-2v-.11l-.57-.09c-.19,0-.29-.16-.38-.17a.39.39,0,0,1-.29-.16.38.38,0,0,1-.28-.16.36.36,0,0,1-.29-.16c-.09,0-.19-.14-.28-.15s-.19-.15-.29-.16a.28.28,0,0,1-.28.07c-.1,0-.19-.14-.29-.16s-.19-.14-.28-.27-.19-.14-.29-.27-.19-.14-.28-.27-.19-.15-.29-.27l-.29-.39-.28-.39-.38-.51h0l-.76-1.37-.19-.83c0-.22-.1-.47-.1-.58V95.57c0-.23.1-.33.1-.44a.45.45,0,0,1,.09-.33c0-.11.1-.21.1-.32s.09-.22.09-.33.1-.22.1-.33.09-.21.19-.31.19-.2.19-.32a.49.49,0,0,0,.19-.31,1.31,1.31,0,0,0,.47-.38h0l1.71-1,.86-.33a.9.9,0,0,1,.47,0c.1,0,.19-.08.38-.06l.1,0c.19,0,.28-.07.38-.06l.28,0,.29,0,.09,0V91l19.56,3v5.69l-19.27-3v3.88l13.1,2,.1.13.57.09c.19,0,.28.15.38.17a.35.35,0,0,1,.28.16,7.76,7.76,0,0,1,.57.31.39.39,0,0,1,.29.16c.09,0,.19.14.28.16s.19.14.29.15.19.15.28.16.19.14.29.16.19.14.28.27.19.14.28.27.19.14.29.27.19.15.28.27l.29.39.28.38.29.39v.11l.76,1.6a1.15,1.15,0,0,1,.09.47,1,1,0,0,0,.1.47v.11l.09.13v4.44a2.69,2.69,0,0,1-.09.44.41.41,0,0,1-.1.33c0,.12-.09.21-.09.33s-.1.21-.1.33a.5.5,0,0,1-.19.31c-.09.1-.09.21-.19.31s-.09.21-.19.31l-.28.3-.19.2h-.09l-2.09,1-.76.22c-.19.09-.29.07-.38.17a.58.58,0,0,0-.38.06l-.09,0c-.19,0-.29.07-.38.06l-.29,0-.28,0h-.1l-19.56-3Z" transform="translate(-0.98 -0.52)"/><path class="ec8b2ad1-2dee-480d-a53c-99fae3a82334" d="M119.17,120.71V113l-3.5-.53h0l-.57-.09c-.19,0-.29-.15-.38-.17a.36.36,0,0,1-.29-.16.38.38,0,0,1-.28-.15c-.09,0-.19-.15-.28-.16s-.19-.14-.29-.16-.19-.14-.28-.27-.19-.14-.29-.27-.19-.14-.28-.27-.19-.14-.29-.27-.19-.15-.28-.27l-.29-.39c-.09-.13-.19-.14-.28-.27l-.28-.38h0L110,106.45a5.49,5.49,0,0,0-.19-.6c0-.11-.1-.24-.1-.36a4,4,0,0,0-.09-.47v-.68h0v-10l6.35,1V105l12.88,2V97.27l6.34,1v10l-.09,0v.69c0,.22-.09.32-.09.44a.4.4,0,0,1-.1.32c0,.12-.09.22-.09.33s-.1.21-.1.33a.5.5,0,0,1-.19.31c-.09.1-.09.21-.19.31s-.09.21-.19.31-.09.22-.19.32-.09.21-.18.31-.1.21-.19.31l-.29.3c-.09.1-.19.2-.19.31s-.09.21-.19.2h-.09l-2,1.4c-.19.08-.28.07-.38.17s-.19.08-.28.07-.28.07-.38,0l-.28,0-.19,0h-.1l-.09,0-3.51-.53v7.62Z" transform="translate(-0.98 -0.52)"/><path class="ec8b2ad1-2dee-480d-a53c-99fae3a82334" d="M137.07,123.44v-5.69l19.09,2.91V116.8l-13-2v-.12l-.57-.08c-.19,0-.28-.16-.38-.18a.34.34,0,0,1-.28-.15.38.38,0,0,1-.28-.16.36.36,0,0,1-.29-.16c-.09,0-.19-.14-.28-.15s-.19-.15-.28-.16-.19-.14-.29-.16-.19-.14-.28-.15-.19-.15-.28-.28-.19-.14-.29-.27-.19-.14-.28-.27-.19-.14-.29-.27l-.28-.38-.28-.39-.38-.51h0l-.76-1.14-.19-.82c0-.23-.09-.47-.09-.59V104a2.69,2.69,0,0,1,.09-.44.41.41,0,0,1,.1-.33c0-.11.09-.21.09-.33s.09-.21.09-.32.1-.22.1-.33.09-.21.19-.31.19-.2.19-.31.19-.2.19-.32l.37-.39h0l1.61-1,.85-.32a.76.76,0,0,1,.48,0c.09,0,.19-.09.37-.06h.1c.19,0,.28-.07.38,0l.28,0,.28,0,.29,0v-.12l19.46,3v5.68l-19.18-2.94v3.87l13,2,.1.13.57.09c.18,0,.28.15.37.17a.36.36,0,0,1,.29.16.33.33,0,0,1,.28.15.38.38,0,0,1,.28.16.36.36,0,0,1,.29.16c.09,0,.19.14.28.15s.19.15.28.16.19.14.29.16.19.14.28.15.19.15.28.27.19.15.29.28.19.14.28.27.19.14.28.27l.29.38.28.38.28.39V115l.76,1.59a1.17,1.17,0,0,1,.09.47,1,1,0,0,0,.1.47v.12l.09.12v4.43a2.69,2.69,0,0,1-.09.44.41.41,0,0,1-.1.33c0,.11-.09.21-.09.33s-.1.21-.1.32a.52.52,0,0,1-.18.32c-.1.1-.1.21-.19.31s-.1.21-.19.31l-.28.3-.19.2-.1,0-2.08,1.05-.75.23c-.19.08-.28.07-.38.17a.56.56,0,0,0-.38,0h-.09c-.19,0-.28.07-.38,0l-.28,0-.28,0h0l-.1,0-19.47-3Z" transform="translate(-0.98 -0.52)"/><path class="ec8b2ad1-2dee-480d-a53c-99fae3a82334" d="M174.09,129.07V111.92l-9.62-1.47v-7.72l25.45,3.9v7.71l-9.61-1.47V130Z" transform="translate(-0.98 -0.52)"/><path class="ec8b2ad1-2dee-480d-a53c-99fae3a82334" d="M197.64,132.65c-.18,0-.37-.17-.47-.18a.78.78,0,0,1-.37-.17c-.1-.13-.19-.15-.38-.17s-.19-.15-.38-.18-.18-.14-.37-.17-.19-.14-.38-.17-.19-.14-.38-.28-.18-.14-.37-.28a1.73,1.73,0,0,0-.38-.4,1.67,1.67,0,0,0-.37-.4,1.73,1.73,0,0,0-.38-.4,2,2,0,0,0-.38-.4l-.19-.25v-.11L191.9,127l-.37-1.3v-1.82l-.09-.13v-9.53c0-.22.09-.44.09-.55v-.45c0-.12.1-.22.1-.44s.09-.22.19-.43a2.69,2.69,0,0,0,.09-.44,2.69,2.69,0,0,0,.09-.44c.1-.1.1-.21.19-.42s.1-.21.19-.43.09-.21.19-.42a1.31,1.31,0,0,0,.28-.41,1.16,1.16,0,0,0,.28-.41l.47-.5.1,0,2-1.18,1.12-.16h.1a.8.8,0,0,1,.47,0l.38.06.37.05.38.06.37.06.38.06.38.06.37,0,.38.06.38.06.37.06.38,0,.38.06.37.06.38.06.37.05.38.06.38.06.37.06.38,0,.38.06.37.06.38.06.37.06.38,0,.38.06.37.06.38.06.37.05.38.06.38.06.37.06.38,0,.37.06.38.06.38.06.37,0,.38.06.37.06.38.06a4.83,4.83,0,0,1,.47.18l.38.06c.09,0,.18.14.37.17s.19.14.38.17.19.14.37.17.19.15.38.17.19.15.38.29.18.14.37.28a.59.59,0,0,0,.38.29,1.86,1.86,0,0,0,.37.39,1.73,1.73,0,0,0,.38.4c.09.13.28.27.47.53V113l1.31,2.7v.11a2.24,2.24,0,0,1,.19.59c0,.12.1.36.1.59v.11c0,.23.09.47.09.58v9.18l-19-2.9v3.29l19,2.9v5.66Zm13.17-13.3v-3.63l-12.6-1.93v3.63Z" transform="translate(-0.98 -0.52)"/><path class="ec8b2ad1-2dee-480d-a53c-99fae3a82334" d="M219.08,135.91V111.09l28.7,4.4v.12l.57.08c.18,0,.28.16.37.17a.38.38,0,0,1,.28.16.36.36,0,0,1,.28.15c.1,0,.19.15.28.16s.19.14.28.27.19.14.29.27.18.14.28.27.18.14.28.27.18.14.28.27.19.25.28.27l.28.38c.09.13.28.27.47.52V119l1.31,2.8a3.05,3.05,0,0,0,.19.6,3.37,3.37,0,0,1,.09.46V124a1.07,1.07,0,0,0,.19.6v16.63l-6.28-.95V123.15l-7.87-1.21V139l-6.28-1V121l-7.89-1.2v17.1Z" transform="translate(-0.98 -0.52)"/><path class="ec8b2ad1-2dee-480d-a53c-99fae3a82334" d="M272.31,144V126.94L266,126v-7.69l6.54,1h0l.38.06c.09,0,.19.14.28.16s.09,0,.19.14h.09c.09,0,.19.14.28.16s.09,0,.19.14h.09l1.22.87h0l1.77,2.08h0L278,125l.18.82a.51.51,0,0,1,.1.36c0,.11,0,.11.09.24v.45c0,.11,0,.11.09.24v.34h0V145Z" transform="translate(-0.98 -0.52)"/><path class="ec8b2ad1-2dee-480d-a53c-99fae3a82334" d="M286.38,145.81c-1.61-.2-2.61-1.19-3.61-2.69-.67-1.32-1.69-3.34-1.68-4.89h0V128.06h0c0-.41.06-1.3.06-1.3l.06-.26a7.2,7.2,0,0,1,2-3.09,6.64,6.64,0,0,1,3.27-1.42l.37.06.37-.06,13,2a4.7,4.7,0,0,1,1.4.44,7.91,7.91,0,0,1,2.52,2.53,13,13,0,0,1,1.58,4.19v.57h0V142h0a3.13,3.13,0,0,1-.18,1.33,6.06,6.06,0,0,1-1.12,2.09c-.3.36-.7.73-1,1.08a6.63,6.63,0,0,1-3.26,1.43l-.37-.06h0l-13.07-2Zm13.19-5.22v-9.48L287,129.18v9.49h0Zm-9.52-3.37v-5.76l6.44,1v5.76Z" transform="translate(-0.98 -0.52)"/></g></svg>