<svg xmlns="http://www.w3.org/2000/svg" xmlns:xlink="http://www.w3.org/1999/xlink" viewBox="0 0 470.58 67.66"><defs><style>.a9e8c6ba-da66-42be-98b5-f01d7d6771ac{stroke:#9def48;stroke-miterlimit:10;fill:url(#b4a30ab3-33fb-4c8f-a48b-54b42f38cce0);}.bb4845cf-3395-426a-a030-00423d1f33e6{fill:#9def48;}.bc2f33c6-74aa-4d34-9598-1b2d4cf40f07{fill:#f91b20;}</style><linearGradient id="b4a30ab3-33fb-4c8f-a48b-54b42f38cce0" x1="0.5" y1="33.83" x2="470.08" y2="33.83" gradientUnits="userSpaceOnUse"><stop offset="0" stop-color="#032c02"/><stop offset="1" stop-color="#207a09"/></linearGradient></defs><g id="bd7feea5-d813-4604-af3b-7e0adccce217" data-name="calque3"><polygon class="a9e8c6ba-da66-42be-98b5-f01d7d6771ac" points="0.5 6.04 102.57 6.04 108.7 0.5 150.44 0.5 158.35 6.04 461.77 6.24 470.08 16.13 470.08 59.84 50.94 59.84 42.83 67.16 8.02 67.16 0.5 59.84 0.5 6.04"/><path class="bb4845cf-3395-426a-a030-00423d1f33e6" d="M83.39,30.79l1.85,2A18.21,18.21,0,0,1,81,45.08H56.87a17.11,17.11,0,0,1-3.67-7.3h4.37A19,19,0,0,0,59.06,41H78.85A17.3,17.3,0,0,0,81,34.84H54.49l-1.84-2a18.22,18.22,0,0,1,4.22-12.25H81a17.11,17.11,0,0,1,3.67,7.3H80.32a18.55,18.55,0,0,0-1.47-3.23H59.06a17.33,17.33,0,0,0-2.21,6.15Z"/><path class="bb4845cf-3395-426a-a030-00423d1f33e6" d="M90.5,34.84l-1.84-2a18.17,18.17,0,0,1,4.22-12.25h4.89v4.07h-2.7a17.33,17.33,0,0,0-2.21,6.15H117a17.44,17.44,0,0,0-2.18-6.15h-2.72V20.57H117a18.22,18.22,0,0,1,4.22,12.25A18.21,18.21,0,0,1,117,45.08H92.88a17.13,17.13,0,0,1-3.68-7.3h4.38A19,19,0,0,0,95.07,41h19.79A17.08,17.08,0,0,0,117,34.84Z"/><path class="bb4845cf-3395-426a-a030-00423d1f33e6" d="M155.41,30.79l1.85,2A18.17,18.17,0,0,1,153,45.08H128.89a17.13,17.13,0,0,1-3.68-7.3h4.38A19,19,0,0,0,131.07,41h19.79a16.92,16.92,0,0,0,2.19-6.17H126.51l-1.84-2a18.17,18.17,0,0,1,4.22-12.25H153a17.13,17.13,0,0,1,3.68,7.3h-4.38a17.18,17.18,0,0,0-1.47-3.23H131.07a17.49,17.49,0,0,0-2.2,6.15Z"/><path class="bb4845cf-3395-426a-a030-00423d1f33e6" d="M177.18,41.61l-4.06,4.06v-21h-13.3V20.57h30.66v4.07h-13.3Z"/><path class="bb4845cf-3395-426a-a030-00423d1f33e6" d="M215.79,34.84H198.87a17.66,17.66,0,0,0,2.2,6.17h20.14l2.34,4.07H198.89a17.62,17.62,0,0,1-4.14-10.24h-3.84V30.79h3.84a17.51,17.51,0,0,1,4.14-10.22h24.66l-2.34,4.07H201.07a17.49,17.49,0,0,0-2.2,6.15h16.92Z"/><path class="bb4845cf-3395-426a-a030-00423d1f33e6" d="M239.53,24.64h-7.87a16.32,16.32,0,0,0-2.34,8.18A16.41,16.41,0,0,0,231.66,41h2.71v4.07h-4.89a18.2,18.2,0,0,1-4.22-12.26,18.13,18.13,0,0,1,4.22-12.25h10.05V16.72h4.05v3.85h10a18.18,18.18,0,0,1,4.22,12.25,18.25,18.25,0,0,1-4.22,12.26h-4.89V41h2.72a16.59,16.59,0,0,0,2.32-8.19,16.49,16.49,0,0,0-2.32-8.18h-7.88V39.16h-4.05Z"/><path class="bb4845cf-3395-426a-a030-00423d1f33e6" d="M276.05,24.64h-4.53V20.57h8.59v21l-4.06,4.06Z"/><path class="bb4845cf-3395-426a-a030-00423d1f33e6" d="M313.61,45.08H289.46a18.25,18.25,0,0,1-4.22-12.26,18.18,18.18,0,0,1,4.22-12.25h24.15a18.18,18.18,0,0,1,4.22,12.25A18.25,18.25,0,0,1,313.61,45.08ZM311.44,41a16.5,16.5,0,0,0,2.33-8.19,16.41,16.41,0,0,0-2.33-8.18H291.65a16.32,16.32,0,0,0-2.34,8.18A16.41,16.41,0,0,0,291.65,41ZM299.51,35.9V29.75h4.05V35.9Z"/></g><g id="a9675475-f063-44ea-9034-a095d5fe4b2c" data-name="namco"><path id="fc18cbf3-2185-489e-9b3d-914a2af5622e" data-name="rect4393" class="bc2f33c6-74aa-4d34-9598-1b2d4cf40f07" d="M21.49,16.56a2,2,0,0,0,2,2h3.54a2,2,0,0,0,2-2V10.15a2,2,0,0,0-2-2H23.51a2,2,0,0,0-2,2Zm2.15-.46V10.65h3.28V16.1Z"/><path id="f6dd1200-a7ac-4a61-82ce-4cacafced261" data-name="rect4348" class="bc2f33c6-74aa-4d34-9598-1b2d4cf40f07" d="M21.64,64.82h7.44V62.33H23.79V57.65h5.29V55.21H23.66a2,2,0,0,0-2,2Z"/><path id="b7ed5150-53ad-4167-a39a-65c7fe5826d9" data-name="path4359" class="bc2f33c6-74aa-4d34-9598-1b2d4cf40f07" d="M21.64,53.53h2V46.78h.53v5.27a2,2,0,0,0,2,2h.9a2,2,0,0,0,2-2v-7.7H23.66a2,2,0,0,0-2,2v7.16Zm4.47-2V46.79h1.06v4.75Z"/><path id="efa3747f-0e17-4c8a-a4e5-882f2e266048" data-name="path4384" class="bc2f33c6-74aa-4d34-9598-1b2d4cf40f07" d="M21.64,42.82h7.44V40.33H23.79V37.78h5.29V35.29H23.79v-2.6h5.29V30.25H23.66a2,2,0,0,0-2,2Z"/><path id="a115004b-25bf-49f7-b71c-7bf926e1d0c5" data-name="rect4389" class="bc2f33c6-74aa-4d34-9598-1b2d4cf40f07" d="M21.49,26.79a2,2,0,0,0,2,2h3.54a2,2,0,0,0,2-2V20H26.92v6.3H23.64V20H21.49Z"/></g></svg>