<svg xmlns="http://www.w3.org/2000/svg" xmlns:xlink="http://www.w3.org/1999/xlink" viewBox="0 0 470.33 67.41"><defs><style>.b5f4175e-962a-4e22-8889-d7baf6bc2bf1{stroke:#9def48;stroke-miterlimit:10;stroke-width:0.75px;fill:url(#bd286ae8-3335-427c-a1ca-5b4bb352056a);}.a8068df9-2402-49b4-9494-70e287b10532{fill:#9def48;}.f60e8340-3694-4575-af94-9b277435ce29{fill:#e60012;}.e6bc1b33-b899-4b6a-a415-2ddfa3a76f3e{fill:#fff;}</style><linearGradient id="bd286ae8-3335-427c-a1ca-5b4bb352056a" x1="0.38" y1="33.7" x2="469.96" y2="33.7" gradientUnits="userSpaceOnUse"><stop offset="0" stop-color="#032c02"/><stop offset="1" stop-color="#207a09"/></linearGradient></defs><g id="fd5118fe-4fdc-4db3-9310-875a14e61d43" data-name="texte"><polygon class="b5f4175e-962a-4e22-8889-d7baf6bc2bf1" points="0.38 5.91 102.44 5.91 108.57 0.38 150.31 0.38 158.22 5.91 461.65 6.11 469.96 16 469.96 59.72 50.81 59.72 42.7 67.03 7.89 67.03 0.38 59.72 0.38 5.91"/><path class="a8068df9-2402-49b4-9494-70e287b10532" d="M64.46,45.07H59.57a17.67,17.67,0,0,1-4.13-10.24H51.59v-4h3.85a17.56,17.56,0,0,1,4.13-10.22H84.24l-2.35,4.07H61.76a17.3,17.3,0,0,0-2.2,6.15H76.48v4H59.56A17.46,17.46,0,0,0,61.76,41h2.7Z" transform="translate(-0.13 -0.13)"/><path class="a8068df9-2402-49b4-9494-70e287b10532" d="M85.91,38.25l-4.29,6.82H76.54L92.11,20.56H96.8l15.45,24.51h-5L103,38.25Zm14.56-4-6-9.59-6,9.59Z" transform="translate(-0.13 -0.13)"/><path class="a8068df9-2402-49b4-9494-70e287b10532" d="M127.37,24.63h-7.86a16.32,16.32,0,0,0-2.34,8.18A16.41,16.41,0,0,0,119.51,41h2.7v4.07h-4.89a18.25,18.25,0,0,1-4.22-12.26,18.17,18.17,0,0,1,4.22-12.25h10.05V16.71h4v3.85h10.05a18.17,18.17,0,0,1,4.22,12.25,18.25,18.25,0,0,1-4.22,12.26h-4.89V41h2.72a16.48,16.48,0,0,0,2.32-8.19,16.39,16.39,0,0,0-2.32-8.18h-7.88V39.15h-4Z" transform="translate(-0.13 -0.13)"/><path class="a8068df9-2402-49b4-9494-70e287b10532" d="M154.88,45.07h-4.06V24L154.88,20Z" transform="translate(-0.13 -0.13)"/><path class="a8068df9-2402-49b4-9494-70e287b10532" d="M187.68,37.77h4.37a17,17,0,0,1-3.67,7.3H164.23A18.25,18.25,0,0,1,160,32.81a18.22,18.22,0,0,1,4.22-12.25h24.15a17,17,0,0,1,3.67,7.3h-4.37a17.18,17.18,0,0,0-1.47-3.23H166.42a16.32,16.32,0,0,0-2.34,8.18A16.41,16.41,0,0,0,166.42,41h19.79A18.09,18.09,0,0,0,187.68,37.77Z" transform="translate(-0.13 -0.13)"/><path class="a8068df9-2402-49b4-9494-70e287b10532" d="M223.84,45.07H199.69a18.25,18.25,0,0,1-4.22-12.26,18.17,18.17,0,0,1,4.22-12.25h24.15a18.12,18.12,0,0,1,4.22,12.25A18.2,18.2,0,0,1,223.84,45.07ZM221.67,41A16.5,16.5,0,0,0,224,32.81a16.41,16.41,0,0,0-2.33-8.18H201.88a16.32,16.32,0,0,0-2.34,8.18A16.41,16.41,0,0,0,201.88,41Z" transform="translate(-0.13 -0.13)"/><path class="a8068df9-2402-49b4-9494-70e287b10532" d="M245.75,24.63h-7.86a16.32,16.32,0,0,0-2.34,8.18A16.41,16.41,0,0,0,237.89,41h2.7v4.07H235.7a18.25,18.25,0,0,1-4.22-12.26,18.17,18.17,0,0,1,4.22-12.25h10.05V16.71h4.05v3.85h10.05a18.17,18.17,0,0,1,4.22,12.25,18.25,18.25,0,0,1-4.22,12.26H255V41h2.72A16.5,16.5,0,0,0,260,32.81a16.41,16.41,0,0,0-2.33-8.18H249.8V39.15h-4.05Z" transform="translate(-0.13 -0.13)"/></g><g id="bf18ec6d-2d25-47a7-8d2b-81af7dca4cd3" data-name="nintendo"><path class="f60e8340-3694-4575-af94-9b277435ce29" d="M25.59,23.22A2.08,2.08,0,0,0,27.48,21a2.08,2.08,0,0,0-1.89-2.22A2.08,2.08,0,0,0,23.7,21,2.08,2.08,0,0,0,25.59,23.22Zm-.72-2.83H26.3c.53,0,.75.32.75.62s-.22.62-.75.62H24.87c-.53,0-.75-.32-.75-.62S24.34,20.39,24.87,20.39Z" transform="translate(-0.13 -0.13)"/><path class="f60e8340-3694-4575-af94-9b277435ce29" d="M23.8,26.07A1.82,1.82,0,0,0,25.56,28a1.77,1.77,0,0,0,1.66-1,1.84,1.84,0,0,0-.12-1.75h.19v-1.5H22.24v1.5H24.1A2,2,0,0,0,23.8,26.07ZM25,25.2h1.19a.6.6,0,1,1,0,1.19H25a.6.6,0,1,1,0-1.19Z" transform="translate(-0.13 -0.13)"/><polygon class="e6bc1b33-b899-4b6a-a415-2ddfa3a76f3e" points="39.05 19.13 39.05 19.13 39.05 19.13 39.05 19.13"/><polygon class="f60e8340-3694-4575-af94-9b277435ce29" points="23.82 38.35 23.82 37.52 23.32 37.52 23.32 38.35 22.64 38.35 22.64 39.87 23.32 39.86 23.32 40.69 23.82 40.69 23.82 39.87 27.17 39.87 27.17 38.34 23.82 38.35"/><path class="f60e8340-3694-4575-af94-9b277435ce29" d="M26.12,33.46V35h.2c.61,0,.75.41.75.63a.66.66,0,0,1-.75.64h-.69V33.37a2.27,2.27,0,0,0,0,4.48,2.08,2.08,0,0,0,1.88-2.24A2.21,2.21,0,0,0,26.12,33.46Zm-1,2.77a1.13,1.13,0,0,1-.65-.1.6.6,0,0,1-.31-.53h0a.6.6,0,0,1,.31-.53,1.22,1.22,0,0,1,.65-.1Z" transform="translate(-0.13 -0.13)"/><rect class="f60e8340-3694-4575-af94-9b277435ce29" x="23.81" y="45.97" width="3.36" height="1.52"/><path class="f60e8340-3694-4575-af94-9b277435ce29" d="M25.08,30h2.21V28.48H25.46a1.64,1.64,0,0,0-1.68,1.72h0a1.84,1.84,0,0,0,.5,1.21h-.35v1.5h3.36v-1.5H25.08a.7.7,0,0,1-.61-.72A.67.67,0,0,1,25.08,30Z" transform="translate(-0.13 -0.13)"/><path class="f60e8340-3694-4575-af94-9b277435ce29" d="M24.78,14.57a5.39,5.39,0,0,0-5.37,5.69V52.42a5.37,5.37,0,1,0,10.73,0V20.26A5.38,5.38,0,0,0,24.78,14.57Zm4,37.83a4.06,4.06,0,1,1-8.09,0V20.27a4.06,4.06,0,1,1,8.09,0Z" transform="translate(-0.13 -0.13)"/><path class="f60e8340-3694-4575-af94-9b277435ce29" d="M25.08,42.33h2.21V40.82H25.46a1.64,1.64,0,0,0-1.68,1.72h0a1.84,1.84,0,0,0,.5,1.21h-.35v1.5h3.36v-1.5H25.08a.7.7,0,0,1-.61-.72A.67.67,0,0,1,25.08,42.33Z" transform="translate(-0.13 -0.13)"/><rect class="f60e8340-3694-4575-af94-9b277435ce29" x="22.12" y="45.97" width="1.03" height="1.52"/><polygon class="f60e8340-3694-4575-af94-9b277435ce29" points="22.12 49.91 25.64 49.91 22.12 52.09 22.12 53.66 27.17 53.66 27.17 52.1 23.64 52.1 27.17 49.91 27.17 48.35 22.12 48.35 22.12 49.91"/></g></svg>