<svg xmlns="http://www.w3.org/2000/svg" xmlns:xlink="http://www.w3.org/1999/xlink" viewBox="0 0 470.58 67.66"><defs><style>.a402b629-5b05-416f-92b0-5f3eb7bb76d0{stroke:#9def48;stroke-miterlimit:10;fill:url(#b138cadc-4cd6-423b-8f54-c6831885109d);}.a8283d4b-3e82-4aa7-838c-58a473cb2fb3{fill:#9def48;}.a3dadd8d-76cf-4f24-b46e-68923bfeccdc{fill:#fcfcfc;}</style><linearGradient id="b138cadc-4cd6-423b-8f54-c6831885109d" x1="0.5" y1="33.83" x2="470.08" y2="33.83" gradientUnits="userSpaceOnUse"><stop offset="0" stop-color="#032c02"/><stop offset="1" stop-color="#207a09"/></linearGradient></defs><g id="a8c74cee-e13e-4f12-820a-30eaf8aecbe4" data-name="calque3"><polygon class="a402b629-5b05-416f-92b0-5f3eb7bb76d0" points="0.5 6.04 102.57 6.04 108.7 0.5 150.44 0.5 158.35 6.04 461.77 6.24 470.08 16.13 470.08 59.84 50.94 59.84 42.83 67.16 8.02 67.16 0.5 59.84 0.5 6.04"/><path class="a8283d4b-3e82-4aa7-838c-58a473cb2fb3" d="M58.09,24.73l-2.34-4.07H80.41A17.62,17.62,0,0,1,84.54,30.9l-1.76,1v2l1.76,1a17.65,17.65,0,0,1-4.13,10.24H55.75l2.34-4.07H78.24a17.83,17.83,0,0,0,2.19-6.17H63.51V30.88H80.43a17.67,17.67,0,0,0-2.19-6.15Z"/><path class="a8283d4b-3e82-4aa7-838c-58a473cb2fb3" d="M88.82,20.66h27A18.21,18.21,0,0,1,120,32.92a18.22,18.22,0,0,1-4.22,12.25h-27ZM92.88,41.1h20.77A16.45,16.45,0,0,0,116,32.92a16.4,16.4,0,0,0-2.32-8.19H92.88Z"/><path class="a8283d4b-3e82-4aa7-838c-58a473cb2fb3" d="M151.83,45.17H127.68a18.22,18.22,0,0,1-4.22-12.25,18.21,18.21,0,0,1,4.22-12.26h24.15a18.21,18.21,0,0,1,4.22,12.26A18.22,18.22,0,0,1,151.83,45.17Zm-2.17-4.07A16.45,16.45,0,0,0,152,32.92a16.4,16.4,0,0,0-2.32-8.19H129.87a16.33,16.33,0,0,0-2.34,8.19,16.37,16.37,0,0,0,2.34,8.18Z"/></g><g id="b1384910-a088-41ef-9d19-de6e0f2b6970" data-name="panasonic"><path class="a3dadd8d-76cf-4f24-b46e-68923bfeccdc" d="M26.81,60.89v1.55h-2v-1c0-.19,0-.35,0-.54a.8.8,0,0,0-.35-.64.69.69,0,0,0-.37-.16,1.82,1.82,0,0,0-.33,0,.84.84,0,0,0-.77.85v1.5h6.42V65H21v-4.2c0-.16,0-.3,0-.47a2.94,2.94,0,0,1,3.29-2.77,2.74,2.74,0,0,1,2.42,2.18,4.8,4.8,0,0,1,.13,1.14"/><path id="a4fb1cdd-2e8d-4b4d-875b-ca869fdabb43" data-name="a" class="a3dadd8d-76cf-4f24-b46e-68923bfeccdc" d="M28.94,51.36c-.5,0-.92,0-1.42.06l-1.87,0a3.69,3.69,0,0,0-1,.13,1.55,1.55,0,0,0-1,.78,2.76,2.76,0,0,0-.28.74,6.48,6.48,0,0,0-.05,2.52,3.4,3.4,0,0,0,.2.69,1.82,1.82,0,0,0,1.18,1.07,1.45,1.45,0,0,0,.62.06l.11,0,0-2a.9.9,0,0,1-.36,0,.61.61,0,0,1-.38-.39,1.19,1.19,0,0,1,0-.81.58.58,0,0,1,.38-.37.37.37,0,0,1,.32.06.42.42,0,0,1,.18.23,1.15,1.15,0,0,1,.06.17,7.78,7.78,0,0,1,.17.81c0,.23.08.43.12.65a8.56,8.56,0,0,0,.23.87,1.67,1.67,0,0,0,.41.69,1.47,1.47,0,0,0,.91.49,1.88,1.88,0,0,0,.71,0,1.66,1.66,0,0,0,1.27-1.2,2.87,2.87,0,0,0-.1-2,2,2,0,0,0-.57-.79l-1,.14a.91.91,0,0,1,.34.41,1.55,1.55,0,0,1,.13.48,1.15,1.15,0,0,1,0,.41.66.66,0,0,1-.17.29.5.5,0,0,1-.26.13.42.42,0,0,1-.4-.14,1,1,0,0,1-.15-.25c-.08-.23-.15-.45-.22-.68a5.57,5.57,0,0,0-.29-.81,2.22,2.22,0,0,1,.63,0,1.31,1.31,0,0,1,.43.16l1-.14.41-.14a.63.63,0,0,0,.21-.12V51.2a1.05,1.05,0,0,1-.48.16"/><path id="a1c8ed89-912b-40a5-8a01-143c08172e18" data-name="b" class="a3dadd8d-76cf-4f24-b46e-68923bfeccdc" d="M24,48.68a3.61,3.61,0,0,1-.61-.94A2.41,2.41,0,0,1,23.27,46a1.94,1.94,0,0,1,1.31-1.34,3,3,0,0,1,.93-.15h3.9v2.4h-3.5a1.2,1.2,0,0,0-.33,0,.65.65,0,0,0-.43.39.93.93,0,0,0,.9,1.28h3.36v2.33h-6V48.73l.64,0"/><path id="a40f5bd5-523f-4eab-b935-56886572ebbc" data-name="a" class="a3dadd8d-76cf-4f24-b46e-68923bfeccdc" d="M28.94,37.79c-.5,0-.92.05-1.42.06l-1.87,0a3.69,3.69,0,0,0-1,.13,1.55,1.55,0,0,0-1,.78,2.7,2.7,0,0,0-.28.75,6.43,6.43,0,0,0-.05,2.51,3.22,3.22,0,0,0,.2.69,1.82,1.82,0,0,0,1.18,1.07,1.31,1.31,0,0,0,.62.06.2.2,0,0,0,.11,0l0-2a.9.9,0,0,1-.36,0,.6.6,0,0,1-.38-.38,1.22,1.22,0,0,1,0-.82.57.57,0,0,1,.38-.36.34.34,0,0,1,.32.05.46.46,0,0,1,.18.23,1.15,1.15,0,0,1,.06.17,7.45,7.45,0,0,1,.17.82c0,.23.08.42.12.65a8.37,8.37,0,0,0,.23.86,1.78,1.78,0,0,0,.41.7,1.46,1.46,0,0,0,.91.48,1.7,1.7,0,0,0,.71,0,1.66,1.66,0,0,0,1.27-1.2,2.87,2.87,0,0,0-.1-2,2,2,0,0,0-.57-.79l-1,.14a.91.91,0,0,1,.34.41,1.55,1.55,0,0,1,.13.48,1.12,1.12,0,0,1,0,.41.66.66,0,0,1-.17.29.5.5,0,0,1-.26.13.4.4,0,0,1-.4-.14,1,1,0,0,1-.15-.25c-.08-.22-.15-.45-.22-.68a6,6,0,0,0-.29-.81,1.9,1.9,0,0,1,.63,0,1.11,1.11,0,0,1,.43.15l1-.14.41-.13a.67.67,0,0,0,.21-.13V37.63a1,1,0,0,1-.48.16"/><path class="a3dadd8d-76cf-4f24-b46e-68923bfeccdc" d="M27.19,34.43a4.21,4.21,0,0,1,.12-.48.4.4,0,0,1,.3-.26.41.41,0,0,1,.41.12.65.65,0,0,1,.21.4,1.12,1.12,0,0,1-.06.6.72.72,0,0,1-.14.26.66.66,0,0,1-.32.21.89.89,0,0,1-.32,0v2.21h.13a1.69,1.69,0,0,0,.58-.1,1.84,1.84,0,0,0,.73-.5,2.44,2.44,0,0,0,.57-1,5.41,5.41,0,0,0,.15-2.4,3.63,3.63,0,0,0-.35-1.07,2.36,2.36,0,0,0-.28-.42,1.84,1.84,0,0,0-2-.58,1.46,1.46,0,0,0-.69.45,2.63,2.63,0,0,0-.55,1l-.07.24a12.33,12.33,0,0,0-.29,1.37c0,.13,0,.24-.07.36a.84.84,0,0,1,0,.17.28.28,0,0,1-.36.13h0a.52.52,0,0,1-.26-.32,1.14,1.14,0,0,1,0-.73.55.55,0,0,1,.55-.38V31.63a2,2,0,0,0-.73.13,1.31,1.31,0,0,0-.61.43,2.45,2.45,0,0,0-.32.57,2.72,2.72,0,0,0-.17.62,6.44,6.44,0,0,0-.09,1.52,5.11,5.11,0,0,0,.13.86,2.55,2.55,0,0,0,.5,1.05,1.76,1.76,0,0,0,.8.58,1.71,1.71,0,0,0,1.18,0,1.58,1.58,0,0,0,.93-.93,3.86,3.86,0,0,0,.2-.66c.1-.46.17-.86.25-1.33m-3.94-7.24a5.06,5.06,0,0,0-.05.68,5.34,5.34,0,0,0,.05.69,3.21,3.21,0,0,0,.88,1.76,2.88,2.88,0,0,0,1.88.91,3.63,3.63,0,0,0,1.31-.12A3,3,0,0,0,29,30a2.84,2.84,0,0,0,.56-1.19,4.29,4.29,0,0,0,.1-.94,4.14,4.14,0,0,0-.1-.93,2.82,2.82,0,0,0-.56-1.2L27.54,27a.92.92,0,0,1,.46,1.2h0a.9.9,0,0,1-.46.46,2,2,0,0,1-.58.17,3.33,3.33,0,0,1-1.22,0,1.66,1.66,0,0,1-.58-.24.9.9,0,0,1,0-1.48,1.47,1.47,0,0,1,.58-.23,3.33,3.33,0,0,1,1.22,0,2,2,0,0,1,.58.17L29,25.74a3,3,0,0,0-1.63-1.11A3.62,3.62,0,0,0,26,24.52a2.82,2.82,0,0,0-1.88.9,3.21,3.21,0,0,0-.88,1.77"/><path id="a83d28f9-0630-4f7d-80c6-ffaae4e877f7" data-name="b" class="a3dadd8d-76cf-4f24-b46e-68923bfeccdc" d="M24,22A3.61,3.61,0,0,1,23.4,21a2.39,2.39,0,0,1-.13-1.78,1.94,1.94,0,0,1,1.31-1.35,3,3,0,0,1,.93-.15h3.9v2.4h-3.5a1.2,1.2,0,0,0-.33.05.65.65,0,0,0-.43.39.9.9,0,0,0,.37,1.14,1,1,0,0,0,.53.15h3.36v2.32h-6V22L24,22"/><path class="a3dadd8d-76cf-4f24-b46e-68923bfeccdc" d="M21,17.27h1.6V15H21Zm2.42,0h6V15h-6Zm5.26-8.33a3,3,0,0,1,.9,1.62,4.17,4.17,0,0,1,.06,1.27A2.92,2.92,0,0,1,29,13.38a3.06,3.06,0,0,1-1,.91,2.62,2.62,0,0,1-1,.36,3.32,3.32,0,0,1-1.47-.07,3,3,0,0,1-2.19-2.33,3.94,3.94,0,0,1,0-1.9A2.67,2.67,0,0,1,24,9.16a2.51,2.51,0,0,1,.69-.52,1.76,1.76,0,0,1,1-.21v2.06a1,1,0,0,0-.67.4.84.84,0,0,0,0,1,1,1,0,0,0,.55.43,2.77,2.77,0,0,0,1.66,0,1.2,1.2,0,0,0,.6-.36.87.87,0,0,0,.24-.74.74.74,0,0,0-.24-.44.91.91,0,0,0-.46-.23l-.37,0V8.32a2.21,2.21,0,0,1,1.71.62"/></g></svg>