<svg id="fedcc0c3-f519-40b0-8f7f-d9ca0d87ddfa" data-name="texte" xmlns="http://www.w3.org/2000/svg" xmlns:xlink="http://www.w3.org/1999/xlink" viewBox="0 0 470.33 67.41"><defs><style>.bd318b56-ec3b-4db2-bfce-88718e51d14e{stroke:#9def48;stroke-miterlimit:10;stroke-width:0.75px;fill:url(#b1294268-3f23-4abe-a1c3-9b1851b4f1cb);}.bfa23d6f-88e8-4b6c-9c96-9c54bcaed876{fill:#9def48;}</style><linearGradient id="b1294268-3f23-4abe-a1c3-9b1851b4f1cb" x1="0.38" y1="33.7" x2="469.96" y2="33.7" gradientUnits="userSpaceOnUse"><stop offset="0" stop-color="#032c02"/><stop offset="1" stop-color="#207a09"/></linearGradient></defs><polygon class="bd318b56-ec3b-4db2-bfce-88718e51d14e" points="0.38 5.91 102.44 5.91 108.57 0.38 150.31 0.38 158.22 5.91 461.65 6.11 469.96 16 469.96 59.72 50.81 59.72 42.7 67.03 7.89 67.03 0.38 59.72 0.38 5.91"/><path class="bfa23d6f-88e8-4b6c-9c96-9c54bcaed876" d="M79.17,44.54H55.71a17.72,17.72,0,0,1-4.1-11.91,17.67,17.67,0,0,1,4.1-11.9H79.17a17.67,17.67,0,0,1,4.1,11.9A17.72,17.72,0,0,1,79.17,44.54Zm-2.11-3.95a16,16,0,0,0,2.26-8,15.93,15.93,0,0,0-2.26-8H57.84a15.86,15.86,0,0,0-2.28,8,15.92,15.92,0,0,0,2.28,8Z" transform="translate(-0.06 -0.03)"/><path class="bfa23d6f-88e8-4b6c-9c96-9c54bcaed876" d="M87.42,20.73h26.23a17.67,17.67,0,0,1,4.1,11.9,17.72,17.72,0,0,1-4.1,11.91H87.42Zm4,19.86h20.17a16,16,0,0,0,2.26-8,15.93,15.93,0,0,0-2.26-8H91.37Z" transform="translate(-0.06 -0.03)"/><path class="bfa23d6f-88e8-4b6c-9c96-9c54bcaed876" d="M122.87,34.59l-1.8-2a17.71,17.71,0,0,1,4.1-11.9h4.75v3.95H127.3a16.74,16.74,0,0,0-2.14,6h23.49a17.1,17.1,0,0,0-2.13-6h-2.64V20.73h4.75a17.71,17.71,0,0,1,4.1,11.9,17.68,17.68,0,0,1-4.1,11.91H125.17a16.6,16.6,0,0,1-3.57-7.09h4.25a18.75,18.75,0,0,0,1.45,3.14h19.22a16.74,16.74,0,0,0,2.13-6Z" transform="translate(-0.06 -0.03)"/><path class="bfa23d6f-88e8-4b6c-9c96-9c54bcaed876" d="M185.92,30.66l1.79,2a17.68,17.68,0,0,1-4.1,11.91H160.15a16.6,16.6,0,0,1-3.57-7.09h4.25a18.75,18.75,0,0,0,1.45,3.14H181.5a16.74,16.74,0,0,0,2.13-6H157.84l-1.79-2a17.71,17.71,0,0,1,4.1-11.9h23.46a16.6,16.6,0,0,1,3.57,7.09h-4.25a17.17,17.17,0,0,0-1.43-3.14H162.28a16.74,16.74,0,0,0-2.14,6Z" transform="translate(-0.06 -0.03)"/><path class="bfa23d6f-88e8-4b6c-9c96-9c54bcaed876" d="M220.9,30.66l1.79,2a17.68,17.68,0,0,1-4.1,11.91H195.13a16.6,16.6,0,0,1-3.57-7.09h4.25a18.75,18.75,0,0,0,1.45,3.14h19.22a16.74,16.74,0,0,0,2.13-6H192.82l-1.79-2a17.71,17.71,0,0,1,4.1-11.9h23.46a16.6,16.6,0,0,1,3.57,7.09h-4.25a17.86,17.86,0,0,0-1.43-3.14H197.26a16.74,16.74,0,0,0-2.14,6Z" transform="translate(-0.06 -0.03)"/><path class="bfa23d6f-88e8-4b6c-9c96-9c54bcaed876" d="M250.18,34.59H233.75a16.9,16.9,0,0,0,2.14,6h19.56l2.27,3.95h-24a17.17,17.17,0,0,1-4-9.95H226V30.66h3.74a17.06,17.06,0,0,1,4-9.93h24l-2.27,3.95H235.89a16.74,16.74,0,0,0-2.14,6h16.43Z" transform="translate(-0.06 -0.03)"/><path class="bfa23d6f-88e8-4b6c-9c96-9c54bcaed876" d="M261.17,34.59l-1.79-2a17.71,17.71,0,0,1,4.1-11.9h4.75v3.95h-2.62a17,17,0,0,0-2.15,6H287a16.88,16.88,0,0,0-2.12-6h-2.64V20.73h4.75a17.71,17.71,0,0,1,4.1,11.9,17.68,17.68,0,0,1-4.1,11.91H263.48a16.6,16.6,0,0,1-3.57-7.09h4.25a18.75,18.75,0,0,0,1.45,3.14h19.22a16.53,16.53,0,0,0,2.12-6Z" transform="translate(-0.06 -0.03)"/><path class="bfa23d6f-88e8-4b6c-9c96-9c54bcaed876" d="M306.11,30.66H331.9a17,17,0,0,0-2.15-6H310.53a17.86,17.86,0,0,0-1.43,3.14h-4.25a16.6,16.6,0,0,1,3.57-7.09h23.46a17.71,17.71,0,0,1,4.1,11.9l-1.79,2H308.4a16.74,16.74,0,0,0,2.13,6h23.91v3.95h-26a17.68,17.68,0,0,1-4.1-11.91Z" transform="translate(-0.06 -0.03)"/></svg>