<svg id="ba575c9d-bbc8-4bbd-a01f-b8a649b30030" data-name="texte" xmlns="http://www.w3.org/2000/svg" xmlns:xlink="http://www.w3.org/1999/xlink" viewBox="0 0 470.33 67.41"><defs><style>.f58f280b-56aa-438a-881f-efbdbfc27dda{stroke:#9def48;stroke-miterlimit:10;stroke-width:0.75px;fill:url(#f54198aa-ea55-4905-bedf-3eb9b855ef44);}.a66cd9d2-d29a-4411-85af-dd038b2c0a68{fill:#9def48;}</style><linearGradient id="f54198aa-ea55-4905-bedf-3eb9b855ef44" x1="0.38" y1="33.7" x2="469.96" y2="33.7" gradientUnits="userSpaceOnUse"><stop offset="0" stop-color="#032c02"/><stop offset="1" stop-color="#207a09"/></linearGradient></defs><polygon class="f58f280b-56aa-438a-881f-efbdbfc27dda" points="0.38 5.91 102.44 5.91 108.57 0.38 150.31 0.38 158.22 5.91 461.65 6.11 469.96 16 469.96 59.72 50.81 59.72 42.7 67.03 7.89 67.03 0.38 59.72 0.38 5.91"/><path class="a66cd9d2-d29a-4411-85af-dd038b2c0a68" d="M64.64,39.84V27.39h3.47V39.84h6.75a14.06,14.06,0,0,0,2-7,14.15,14.15,0,0,0-2-7H72.53V22.32h4.19a15.6,15.6,0,0,1,3.62,10.5,15.57,15.57,0,0,1-3.62,10.5H68.11v3.3H64.64v-3.3H56a15.56,15.56,0,0,1-3.61-10.5A15.6,15.6,0,0,1,56,22.32h4.19V25.8H57.9a14.08,14.08,0,0,0-2,7,14,14,0,0,0,2,7Z" transform="translate(-0.06 -0.03)"/><path class="a66cd9d2-d29a-4411-85af-dd038b2c0a68" d="M89.1,37.48l-3.68,5.84H81.07l13.35-21h4l13.24,21h-4.29l-3.63-5.84ZM101.58,34l-5.13-8.22L91.28,34Z" transform="translate(-0.06 -0.03)"/><path class="a66cd9d2-d29a-4411-85af-dd038b2c0a68" d="M133.19,39.84h2.33a15.25,15.25,0,0,0,1.88-5.29H116.67a14.88,14.88,0,0,0,1.89,5.29h2.31v3.48h-4.19a15.07,15.07,0,0,1-3.54-8.77h-3.3V31.08h3.3a15,15,0,0,1,3.54-8.76h20.7a15.12,15.12,0,0,1,3.55,8.77l-1.51.85V33.7l1.51.85a15.15,15.15,0,0,1-3.55,8.77h-4.19Zm-16.52-8.76H137.4a15.13,15.13,0,0,0-1.88-5.28h-17A14.77,14.77,0,0,0,116.67,31.08Z" transform="translate(-0.06 -0.03)"/><path class="a66cd9d2-d29a-4411-85af-dd038b2c0a68" d="M171.72,31.08c.05.56.07,1.15.07,1.74a15.6,15.6,0,0,1-3.62,10.5h-20.7a15.6,15.6,0,0,1-3.61-10.5,15.56,15.56,0,0,1,3.61-10.5h20.7a14.75,14.75,0,0,1,3.15,6.25h-3.75a15.44,15.44,0,0,0-1.26-2.77h-17a14,14,0,0,0-2,7,14,14,0,0,0,2,7h17a15.25,15.25,0,0,0,1.88-5.29H155.53V31.08Z" transform="translate(-0.06 -0.03)"/><path class="a66cd9d2-d29a-4411-85af-dd038b2c0a68" d="M180.55,37.48l-3.68,5.84h-4.35l13.35-21h4l13.24,21h-4.29l-3.63-5.84ZM193,34l-5.13-8.22L182.73,34Z" transform="translate(-0.06 -0.03)"/><path class="a66cd9d2-d29a-4411-85af-dd038b2c0a68" d="M216.09,25.8h-6.74a14,14,0,0,0-2,7,14,14,0,0,0,2,7h2.31v3.48h-4.19a15.6,15.6,0,0,1-3.61-10.5,15.56,15.56,0,0,1,3.61-10.5h8.62V19h3.47v3.3h8.61a15.57,15.57,0,0,1,3.62,10.5,15.6,15.6,0,0,1-3.62,10.5H224V39.84h2.33a14.12,14.12,0,0,0,2-7,14.09,14.09,0,0,0-2-7h-6.75V38.26h-3.47Z" transform="translate(-0.06 -0.03)"/><path class="a66cd9d2-d29a-4411-85af-dd038b2c0a68" d="M256.05,34.55h-14.5a14.88,14.88,0,0,0,1.89,5.29h17.25l2,3.48H241.56A15.07,15.07,0,0,1,238,34.55h-3.3V31.08H238a15,15,0,0,1,3.54-8.76H262.7l-2,3.48H243.44a14.77,14.77,0,0,0-1.89,5.28h14.5Z" transform="translate(-0.06 -0.03)"/></svg>