<svg xmlns="http://www.w3.org/2000/svg" viewBox="0 0 271.206 131.172"><path d="M262.585 131.172h-85.679a3.686 3.686 0 0 1-3.686-3.686V8.889a3.679 3.679 0 0 1 3.679-3.679h90.626a3.682 3.682 0 0 1 3.682 3.682V122.55a8.623 8.623 0 0 1-8.622 8.622z" fill="#666465"/><path d="M183.028 11.089v.652h-.627v2.521h1.254v-1.26h1.906V11.09h-2.533zm1.267 1.291h-.639v-.64h.639v.64zM186.84 11.74v1.882h-.621v.651h2.508v-.651h-.621V11.74h.621v-.651h-2.508v.651zM191.918 13.622v.639h-2.533V11.74h.633v-.651h1.9v.651h-1.267v1.882zM193.193 11.089v.652h-.636v2.521h2.52v-.64h.648v-2.533h-2.532zm1.268 2.526h-.639v-1.881h.639v1.881zM196.369 12.367h1.254v.627h-1.254zM198.902 11.089v1.279h-.636v1.894h3.168V11.09h-2.532zm1.893 2.533h-1.254v-.633h1.254v.633zm0-1.261h-1.254v-.633h1.254v.633zM202.709 8.561h.632v.632h.633v.633h.632v.633h-.632v.632l-.633-.002v.632h-.632v-.63h-.633v-.632h-.632v-.633h.632v-.633h.633z" fill="#fef1e8"/><path fill="#e62052" d="M202.709 8.561h.633v.633h-.633z"/><path fill="#fbccab" d="M203.341 9.193h.633v.633h-.633z"/><path fill="#ee77a6" d="M203.974 9.826h.633v.633h-.633z"/><path fill="#83779c" d="M203.341 10.459h.633v.633h-.633z"/><path fill="#4fa5dc" d="M202.709 11.089h.633v.633h-.633z"/><path fill="#5cb130" d="M202.076 10.459h.633v.633h-.633z"/><path fill="#feec2d" d="M201.444 9.826h.633v.633h-.633z"/><path fill="#f6a117" d="M202.076 9.193h.633v.633h-.633z"/><g fill="#aca8a6"><path d="M230.421 14.458v-3.235h.574v1.941h.575v-1.941h.574v3.235h-1.723zM232.72 14.458v-3.235h.574v1.941h.575v-1.941h.574v3.235h-1.723zM235.018 14.458v-3.235h.574v1.941h.575v-1.941h.574v3.235h-1.723zM237.891 14.458v-.647h.575v.647h-.575zM239.615 14.458v-3.235h1.724v1.941h-1.149v1.294h-.575zm1.15-1.941v-.647h-.575v.647h.575zM241.913 14.458v-.647h.574V11.87h-.574v-.647h1.724v.647h-.574v1.941h.574v.647h-1.724zM244.212 13.811V11.87h.574v1.941h-.574zm.574-1.941v-.647h1.149v.647h-1.149zm0 2.588v-.647h1.149v.647h-1.149zM246.51 14.458V11.87h.574v1.941h.575v.647h-1.149zm1.149-.647V11.87h-.575v-.647h1.149v2.588h-.574zM248.809 13.164v-.647h1.724v.647h-1.724zM251.107 14.458v-3.235h1.724v3.235h-1.724zm1.15-1.941v-.647h-.575v.647h.575zm0 1.294v-.647h-.575v.647h.575zM253.979 14.458v-.647h.575v.647h-.575zM255.704 13.811V11.87h.574v1.941h-.574zm.574-1.941v-.647h1.149v.647h-1.149zm0 2.588v-.647h1.149v.647h-1.149zM258.003 14.458V11.87h.574v1.941h.575v.647h-1.149zm1.149-.647V11.87h-.575v-.647h1.149v2.588h-.574zM260.301 14.458v-3.235h1.724v3.235h-.574v-1.941h-.575v1.941h-.575z"/></g><linearGradient id="a" gradientUnits="userSpaceOnUse" x1="222.213" y1="99.203" x2="222.213" y2="19.579"><stop offset="0" stop-color="#008449"/><stop offset="1" stop-color="#4ba3db"/></linearGradient><path fill="url(#a)" stroke="#000" stroke-width=".5" stroke-miterlimit="10" d="M182.401 19.58h79.623v79.623h-79.623z"/><path fill="#333" d="M182.401 106.255h79.623v19.261h-79.623z"/><g fill="#aca8a6"><path d="M184.239 123.986v-3.235h1.861v1.941h-1.241v1.294h-.62zm1.24-1.941v-.647h-.621v.647h.621zM186.72 123.986v-.647h.62v-1.941h-.62v-.647h1.861v.647h-.62v1.941h.62v.647h-1.861zM189.201 123.339v-1.941h.62v1.941h-.62zm.62-1.941v-.647h1.241v.647h-1.241zm0 2.588v-.647h1.241v.647h-1.241zM191.682 123.986v-2.588h.62v1.941h.621v.647h-1.241zm1.24-.647v-1.941h-.621v-.647h1.241v2.588h-.62zM194.163 122.692v-.647h1.861v.647h-1.861zM196.644 123.986v-3.235h1.861v3.235h-1.861zm1.24-1.941v-.647h-.621v.647h.621zm0 1.294v-.647h-.621v.647h.621zM201.605 123.339v-1.941h.62v1.941h-.62zm.621-1.941v-.647h1.241v.647h-1.241zm0 2.588v-.647h1.241v.647h-1.241zM204.086 123.986v-3.235h1.861v3.235h-.62v-1.294h-.621v1.294h-.62zm1.241-1.941v-.647h-.621v.647h.621zM206.568 123.986v-3.235h1.861v1.294h-.62v-.647h-.621v.647h.621v.647h-.621v1.294h-.62zm1.241 0v-1.294h.62v1.294h-.62zM209.669 123.986v-2.588h-.62v-.647h1.861v.647h-.62v2.588h-.621zM211.53 123.986v-3.235h1.861v1.294h-.62v-.647h-.621v.647h.621v.647h-.621v1.294h-.62zm1.241 0v-1.294h.62v1.294h-.62zM214.011 123.986v-.647h.62v-1.941h-.62v-.647h1.861v.647h-.62v1.941h.62v.647h-1.861zM216.492 123.986v-3.235h1.241v.647h-.621v1.941h.621v-1.941h.62v2.588h-1.861zM218.973 123.986v-2.588h.62v1.941h.621v-.647h.62v1.294h-1.861zm.62-2.588v-.647h1.241v.647h-1.241zM221.454 123.986v-3.235h1.861v.647h-1.241v.647h.621v.647h-.621v.647h1.241v.647h-1.861z"/></g><g><path fill="#010202" d="M1 1h36.906v32.293H1z"/><path fill="#1e2c52" d="M37.906 1h36.906v32.293H37.906z"/><path fill="#7f2553" d="M74.812 1h36.906v32.293H74.812z"/><path fill="#008752" d="M111.718 1h36.906v32.293h-36.906z"/><path fill="#ac5236" d="M1 33.293h36.906v32.293H1z"/><path fill="#5f584f" d="M37.906 33.293h36.906v32.293H37.906z"/><path fill="#c3c3c8" d="M74.812 33.293h36.906v32.293H74.812z"/><path fill="#fef1e8" d="M111.718 33.293h36.906v32.293h-36.906z"/><path fill="#e62052" d="M1 65.586h36.906v32.293H1z"/><path fill="#f6a117" d="M37.906 65.586h36.906v32.293H37.906z"/><path fill="#feec2d" d="M74.812 65.586h36.906v32.293H74.812z"/><path fill="#5cb130" d="M111.718 65.586h36.906v32.293h-36.906z"/><path fill="#4fa5dc" d="M1 97.879h36.906v32.293H1z"/><path fill="#83779c" d="M37.906 97.879h36.906v32.293H37.906z"/><path fill="#ee77a6" d="M74.812 97.879h36.906v32.293H74.812z"/><path fill="#fbccab" d="M111.718 97.879h36.906v32.293h-36.906z"/><path d="M149.625 131.172H0V0h149.625v131.172zM2 129.172h145.625V2H2v127.172z" fill="#010202"/></g></svg>