<svg xmlns="http://www.w3.org/2000/svg" viewBox="0 0 149.625 131.172"><path fill="#010202" d="M1 1h36.906v32.293H1z"/><path fill="#1e2c52" d="M37.906 1h36.906v32.293H37.906z"/><path fill="#7f2553" d="M74.812 1h36.906v32.293H74.812z"/><path fill="#008752" d="M111.718 1h36.906v32.293h-36.906z"/><path fill="#ac5236" d="M1 33.293h36.906v32.293H1z"/><path fill="#5f584f" d="M37.906 33.293h36.906v32.293H37.906z"/><path fill="#c3c3c8" d="M74.812 33.293h36.906v32.293H74.812z"/><path fill="#fef1e8" d="M111.718 33.293h36.906v32.293h-36.906z"/><path fill="#e62052" d="M1 65.586h36.906v32.293H1z"/><path fill="#f6a117" d="M37.906 65.586h36.906v32.293H37.906z"/><path fill="#feec2d" d="M74.812 65.586h36.906v32.293H74.812z"/><path fill="#5cb130" d="M111.718 65.586h36.906v32.293h-36.906z"/><path fill="#4fa5dc" d="M1 97.879h36.906v32.293H1z"/><path fill="#83779c" d="M37.906 97.879h36.906v32.293H37.906z"/><path fill="#ee77a6" d="M74.812 97.879h36.906v32.293H74.812z"/><path fill="#fbccab" d="M111.718 97.879h36.906v32.293h-36.906z"/><path d="M149.625 131.172H0V0h149.625v131.172zM2 129.172h145.625V2H2v127.172z" fill="#010202"/></svg>