<svg xmlns="http://www.w3.org/2000/svg" viewBox="0 0 97.987 125.962"><path d="M89.366 125.962H3.686A3.686 3.686 0 0 1 0 122.276V3.679A3.679 3.679 0 0 1 3.679 0h90.626a3.682 3.682 0 0 1 3.682 3.682V117.34a8.622 8.622 0 0 1-8.621 8.622z" fill="#666465"/><path d="M9.809 5.879v.651h-.627v2.521h1.254v-1.26h1.906V5.879H9.809zm1.266 1.291h-.639v-.64h.639v.64zM13.621 6.53v1.881H13v.652h2.508v-.652h-.621V6.53h.621v-.651H13v.651zM18.699 8.411v.64h-2.533V6.53h.633v-.651h1.9v.651h-1.267v1.881zM19.974 5.879v.651h-.636v2.521h2.52v-.64h.648V5.879h-2.532zm1.268 2.526h-.639V6.524h.639v1.881zM23.15 7.157h1.254v.627H23.15zM25.683 5.879v1.278h-.636v1.894h3.168V5.879h-2.532zm1.893 2.532h-1.254v-.633h1.254v.633zm0-1.26h-1.254v-.633h1.254v.633zM29.49 3.351h.632v.632h.633v.633h.632v.632h-.632v.633l-.633-.002v.632h-.632v-.63h-.633v-.633h-.632v-.632h.632v-.633h.633z" fill="#fef1e8"/><path fill="#e62052" d="M29.49 3.351h.633v.633h-.633z"/><path fill="#fbccab" d="M30.122 3.983h.633v.633h-.633z"/><path fill="#ee77a6" d="M30.755 4.616h.633v.633h-.633z"/><path fill="#83779c" d="M30.122 5.248h.633v.633h-.633z"/><path fill="#4fa5dc" d="M29.49 5.879h.633v.633h-.633z"/><path fill="#5cb130" d="M28.857 5.248h.633v.633h-.633z"/><path fill="#feec2d" d="M28.225 4.616h.633v.633h-.633z"/><path fill="#f6a117" d="M28.857 3.983h.633v.633h-.633z"/><g fill="#aca8a6"><path d="M57.202 9.248V6.013h.574v1.941h.575V6.013h.574v3.235h-1.723zM59.501 9.248V6.013h.574v1.941h.575V6.013h.574v3.235h-1.723zM61.798 9.248V6.013h.574v1.941h.575V6.013h.574v3.235h-1.723zM64.672 9.248v-.647h.575v.647h-.575zM66.396 9.248V6.013h1.724v1.941h-1.15v1.294h-.574zm1.15-1.941V6.66h-.576v.647h.576zM68.694 9.248v-.647h.574V6.66h-.574v-.647h1.724v.647h-.574v1.941h.574v.647h-1.724zM70.993 8.601V6.66h.574v1.941h-.574zm.574-1.941v-.647h1.149v.647h-1.149zm0 2.588v-.647h1.149v.647h-1.149zM73.291 9.248V6.66h.574v1.941h.575v.647h-1.149zm1.149-.647V6.66h-.575v-.647h1.149v2.588h-.574zM75.589 7.954v-.647h1.724v.647h-1.724zM77.888 9.248V6.013h1.724v3.235h-1.724zm1.15-1.941V6.66h-.575v.647h.575zm0 1.294v-.647h-.575v.647h.575zM80.76 9.248v-.647h.575v.647h-.575zM82.485 8.601V6.66h.574v1.941h-.574zm.574-1.941v-.647h1.149v.647h-1.149zm0 2.588v-.647h1.149v.647h-1.149zM84.784 9.248V6.66h.574v1.941h.575v.647h-1.149zm1.149-.647V6.66h-.575v-.647h1.149v2.588h-.574zM87.082 9.248V6.013h1.724v3.235h-.574V7.307h-.575v1.941h-.575z"/></g><linearGradient id="a" gradientUnits="userSpaceOnUse" x1="48.994" y1="93.993" x2="48.994" y2="14.369"><stop offset="0" stop-color="#008449"/><stop offset="1" stop-color="#4ba3db"/></linearGradient><path fill="url(#a)" stroke="#000" stroke-width=".5" stroke-miterlimit="10" d="M9.182 14.369h79.623v79.623H9.182z"/><path fill="#333" d="M9.182 101.045h79.623v19.261H9.182z"/><g fill="#aca8a6"><path d="M11.02 118.776v-3.235h1.861v1.941H11.64v1.294h-.62zm1.24-1.941v-.647h-.62v.647h.62zM13.501 118.776v-.647h.62v-1.941h-.62v-.647h1.861v.647h-.62v1.941h.62v.647h-1.861zM15.982 118.129v-1.941h.62v1.941h-.62zm.62-1.941v-.647h1.241v.647h-1.241zm0 2.588v-.647h1.241v.647h-1.241zM18.463 118.776v-2.588h.62v1.941h.621v.647h-1.241zm1.24-.647v-1.941h-.621v-.647h1.241v2.588h-.62zM20.943 117.482v-.647h1.861v.647h-1.861zM23.424 118.776v-3.235h1.861v3.235h-1.861zm1.241-1.941v-.647h-.621v.647h.621zm0 1.294v-.647h-.621v.647h.621zM28.386 118.129v-1.941h.62v1.941h-.62zm.62-1.941v-.647h1.241v.647h-1.241zm0 2.588v-.647h1.241v.647h-1.241zM30.867 118.776v-3.235h1.861v3.235h-.62v-1.294h-.621v1.294h-.62zm1.241-1.941v-.647h-.621v.647h.621zM33.349 118.776v-3.235h1.861v1.294h-.62v-.647h-.621v.647h.621v.647h-.621v1.294h-.62zm1.24 0v-1.294h.62v1.294h-.62zM36.45 118.776v-2.588h-.62v-.647h1.861v.647h-.62v2.588h-.621zM38.311 118.776v-3.235h1.861v1.294h-.62v-.647h-.621v.647h.621v.647h-.621v1.294h-.62zm1.24 0v-1.294h.62v1.294h-.62zM40.792 118.776v-.647h.62v-1.941h-.62v-.647h1.861v.647h-.62v1.941h.62v.647h-1.861zM43.273 118.776v-3.235h1.241v.647h-.621v1.941h.621v-1.941h.62v2.588h-1.861zM45.754 118.776v-2.588h.62v1.941h.621v-.647h.62v1.294h-1.861zm.62-2.588v-.647h1.241v.647h-1.241zM48.235 118.776v-3.235h1.861v.647h-1.241v.647h.621v.647h-.621v.647h1.241v.647h-1.861z"/></g></svg>