<svg xmlns="http://www.w3.org/2000/svg" viewBox="0 0 30 30"><path fill="#fdf0e7" d="M12 .023h6v6h6v6h6v6h-6v6L18 24v6h-6v-5.977H6v-6H0v-6h6v-6h6z"/><path fill="#e52052" d="M12 .023h6v6h-6z"/><path fill="#facbaa" d="M18 6.023h6v6h-6z"/><path fill="#ed77a5" d="M24 12.023h6v6h-6z"/><path fill="#82779b" d="M18 18.023h6v6h-6z"/><path fill="#4fa4db" d="M12 24h6v6h-6z"/><path fill="#5cb030" d="M6 18.023h6v6H6z"/><path fill="#fdeb2d" d="M0 12.023h6v6H0z"/><path fill="#f5a017" d="M6 6.023h6v6H6z"/></svg>