<svg id="bd342be1-7d24-4ec2-a720-a691ce79aff1" data-name="texte" xmlns="http://www.w3.org/2000/svg" xmlns:xlink="http://www.w3.org/1999/xlink" viewBox="0 0 470.33 67.41"><defs><style>.e6d615d5-e632-40fa-8bf4-8f9bfcc2fdb2{stroke:#9def48;stroke-miterlimit:10;stroke-width:0.75px;fill:url(#bf6122bd-ba85-4491-a00d-1881db4233f6);}.e52991b9-71cf-4053-804e-620852f503e8{fill:#9def48;}</style><linearGradient id="bf6122bd-ba85-4491-a00d-1881db4233f6" x1="0.38" y1="33.7" x2="469.96" y2="33.7" gradientUnits="userSpaceOnUse"><stop offset="0" stop-color="#032c02"/><stop offset="1" stop-color="#207a09"/></linearGradient></defs><polygon class="e6d615d5-e632-40fa-8bf4-8f9bfcc2fdb2" points="0.38 5.91 102.44 5.91 108.57 0.38 150.31 0.38 158.22 5.91 461.65 6.11 469.96 16 469.96 59.72 50.81 59.72 42.7 67.03 7.89 67.03 0.38 59.72 0.38 5.91"/><path class="e52991b9-71cf-4053-804e-620852f503e8" d="M85.13,34.59H59.35a17.1,17.1,0,0,0,2.14,6h2.62v3.95H59.36a17.17,17.17,0,0,1-4-9.95H51.61V30.66h3.74a17.06,17.06,0,0,1,4-9.93H82.82a17.62,17.62,0,0,1,4.1,11.9ZM59.35,30.66H82.84a17.1,17.1,0,0,0-2.13-6H61.49A16.93,16.93,0,0,0,59.35,30.66Z" transform="translate(-0.06 -0.03)"/><path class="e52991b9-71cf-4053-804e-620852f503e8" d="M95.77,44.54h-4V24.1l4-4Z" transform="translate(-0.06 -0.03)"/><path class="e52991b9-71cf-4053-804e-620852f503e8" d="M127.63,37.45h4.25a16.6,16.6,0,0,1-3.57,7.09H104.85a17.72,17.72,0,0,1-4.1-11.91,17.71,17.71,0,0,1,4.1-11.9h23.46a16.6,16.6,0,0,1,3.57,7.09h-4.25a17.17,17.17,0,0,0-1.43-3.14H107a15.86,15.86,0,0,0-2.28,8,15.92,15.92,0,0,0,2.28,8H126.2A17.8,17.8,0,0,0,127.63,37.45Z" transform="translate(-0.06 -0.03)"/><path class="e52991b9-71cf-4053-804e-620852f503e8" d="M162.76,44.54H139.3a17.72,17.72,0,0,1-4.1-11.91,17.67,17.67,0,0,1,4.1-11.9h23.46a17.67,17.67,0,0,1,4.1,11.9A17.72,17.72,0,0,1,162.76,44.54Zm-2.11-3.95a16,16,0,0,0,2.26-8,15.93,15.93,0,0,0-2.26-8H141.43a15.86,15.86,0,0,0-2.28,8,15.92,15.92,0,0,0,2.28,8Z" transform="translate(-0.06 -0.03)"/><path class="e52991b9-71cf-4053-804e-620852f503e8" d="M184.16,44.54a17.11,17.11,0,0,1-4-9.95l1.71-1v-2l-1.71-1a17,17,0,0,1,4-9.95h23.46a17.09,17.09,0,0,1,4,10l-1.71,1v2l1.71,1a17.17,17.17,0,0,1-4,9.95Zm23.47-13.88a17.08,17.08,0,0,0-2.12-6H186.27a17.1,17.1,0,0,0-2.13,6Zm-2.12,9.93a17.24,17.24,0,0,0,2.12-6H184.14a17.27,17.27,0,0,0,2.13,6Z" transform="translate(-0.06 -0.03)"/></svg>