<svg id="a3758ca4-8c2d-494b-9aa7-08ab1ff3ba2d" data-name="texte" xmlns="http://www.w3.org/2000/svg" xmlns:xlink="http://www.w3.org/1999/xlink" viewBox="0 0 470.33 67.41"><defs><style>.b70e9a48-2f0e-4a15-aac9-936525564d2f{stroke:#9def48;stroke-miterlimit:10;stroke-width:0.75px;fill:url(#a036afd6-939a-407e-bf04-e8be3df873a1);}.f6e9ada7-ea64-42ef-b8cf-7b6bd7720d9e{fill:#9def48;}</style><linearGradient id="a036afd6-939a-407e-bf04-e8be3df873a1" x1="0.38" y1="33.7" x2="469.96" y2="33.7" gradientUnits="userSpaceOnUse"><stop offset="0" stop-color="#032c02"/><stop offset="1" stop-color="#207a09"/></linearGradient></defs><polygon class="b70e9a48-2f0e-4a15-aac9-936525564d2f" points="0.38 5.91 102.44 5.91 108.57 0.38 150.31 0.38 158.22 5.91 461.65 6.11 469.96 16 469.96 59.72 50.81 59.72 42.7 67.03 7.89 67.03 0.38 59.72 0.38 5.91"/><path class="f6e9ada7-ea64-42ef-b8cf-7b6bd7720d9e" d="M65.64,40.05l-3.49,3.48v-18H50.76V22H77V25.5H65.64Z" transform="translate(-0.06 -0.03)"/><path class="f6e9ada7-ea64-42ef-b8cf-7b6bd7720d9e" d="M84.92,43H81.43V25l3.49-3.49Z" transform="translate(-0.06 -0.03)"/><path class="f6e9ada7-ea64-42ef-b8cf-7b6bd7720d9e" d="M112.66,39.54H115a15.25,15.25,0,0,0,1.88-5.29H96.14A14.88,14.88,0,0,0,98,39.54h2.31V43H96.15a15.1,15.1,0,0,1-3.54-8.77h-3.3V30.78h3.3A15,15,0,0,1,96.15,22h20.7a15.09,15.09,0,0,1,3.55,8.77l-1.51.85V33.4l1.51.85A15.17,15.17,0,0,1,116.85,43h-4.19ZM96.14,30.78h20.73A15.13,15.13,0,0,0,115,25.5H98A14.77,14.77,0,0,0,96.14,30.78Z" transform="translate(-0.06 -0.03)"/></svg>