<svg id="ef541f65-8c7a-4c97-9ff3-1b77d3d52586" data-name="texte" xmlns="http://www.w3.org/2000/svg" xmlns:xlink="http://www.w3.org/1999/xlink" viewBox="0 0 470.33 67.41"><defs><style>.a78c0553-7282-43e9-9b4a-0ad6b5f51dac{stroke:#9def48;stroke-miterlimit:10;stroke-width:0.75px;fill:url(#f35341d8-53a1-422f-b68a-26d18d2f0456);}.bd144ec8-cc11-489f-9227-4d7ebcc9d9a0{fill:#9def48;}</style><linearGradient id="f35341d8-53a1-422f-b68a-26d18d2f0456" x1="0.38" y1="33.7" x2="469.96" y2="33.7" gradientUnits="userSpaceOnUse"><stop offset="0" stop-color="#032c02"/><stop offset="1" stop-color="#207a09"/></linearGradient></defs><polygon class="a78c0553-7282-43e9-9b4a-0ad6b5f51dac" points="0.38 5.91 102.44 5.91 108.57 0.38 150.31 0.38 158.22 5.91 461.65 6.11 469.96 16 469.96 59.72 50.81 59.72 42.7 67.03 7.89 67.03 0.38 59.72 0.38 5.91"/><path class="bd144ec8-cc11-489f-9227-4d7ebcc9d9a0" d="M74,40.84h2.33a15,15,0,0,0,1.87-5.29H57.46a14.88,14.88,0,0,0,1.89,5.29h2.31v3.49H57.47a15.13,15.13,0,0,1-3.54-8.78h-3.3V32.08h3.3a15,15,0,0,1,3.54-8.76h20.7a15,15,0,0,1,3.54,8.77l-1.5.85V34.7l1.5.85a15.13,15.13,0,0,1-3.54,8.78H74ZM57.46,32.08H78.18a14.8,14.8,0,0,0-1.87-5.27h-17A14.66,14.66,0,0,0,57.46,32.08Z" transform="translate(-0.06 -0.03)"/><path class="bd144ec8-cc11-489f-9227-4d7ebcc9d9a0" d="M86.23,35.55l-1.59-1.73a15.6,15.6,0,0,1,3.62-10.5h4.19v3.49H90.14a14.66,14.66,0,0,0-1.89,5.27H109a15,15,0,0,0-1.88-5.27h-2.33V23.32H109a15.6,15.6,0,0,1,3.62,10.5A15.61,15.61,0,0,1,109,44.33H88.26a14.79,14.79,0,0,1-3.15-6.26h3.75a16.74,16.74,0,0,0,1.28,2.77h17A14.72,14.72,0,0,0,109,35.55Z" transform="translate(-0.06 -0.03)"/><path class="bd144ec8-cc11-489f-9227-4d7ebcc9d9a0" d="M129.66,41.35l-3.49,3.49v-18H114.78V23.32h26.28v3.49h-11.4Z" transform="translate(-0.06 -0.03)"/><path class="bd144ec8-cc11-489f-9227-4d7ebcc9d9a0" d="M146.86,35.55a14.88,14.88,0,0,0,1.89,5.29h2.31v3.49h-4.19a15.65,15.65,0,0,1-3.62-10.51,15.57,15.57,0,0,1,3.62-10.5h4.19v3.49h-2.31a14.66,14.66,0,0,0-1.89,5.27h20.72a15,15,0,0,0-1.87-5.27h-2.33V23.32h4.19a15.57,15.57,0,0,1,3.62,10.5,15.65,15.65,0,0,1-3.62,10.51h-4.19V40.84h2.33a15.23,15.23,0,0,0,1.87-5.29Z" transform="translate(-0.06 -0.03)"/><path class="bd144ec8-cc11-489f-9227-4d7ebcc9d9a0" d="M186.35,26.81h-6.74a14,14,0,0,0-2,7,14,14,0,0,0,2,7h2.31v3.49h-4.18a15.6,15.6,0,0,1-3.62-10.51,15.52,15.52,0,0,1,3.62-10.5h8.61V20h3.47v3.3h8.61a15.52,15.52,0,0,1,3.62,10.5,15.6,15.6,0,0,1-3.62,10.51h-4.19V40.84h2.33a14.11,14.11,0,0,0,2-7,14,14,0,0,0-2-7h-6.75V39.26h-3.47Z" transform="translate(-0.06 -0.03)"/><path class="bd144ec8-cc11-489f-9227-4d7ebcc9d9a0" d="M226.31,35.55h-14.5a14.88,14.88,0,0,0,1.89,5.29H231l2,3.49H211.82a15.13,15.13,0,0,1-3.54-8.78H205V32.08h3.3a15,15,0,0,1,3.54-8.76H233l-2,3.49H213.7a14.66,14.66,0,0,0-1.89,5.27h14.5Z" transform="translate(-0.06 -0.03)"/></svg>