<svg xmlns="http://www.w3.org/2000/svg" xmlns:xlink="http://www.w3.org/1999/xlink" viewBox="0 0 746.51 822.18"><defs><radialGradient id="bd7e268f-d305-42f2-9bba-259b320dd1b3" cx="121.61" cy="382.1" r="5.66" gradientTransform="matrix(1 0 0 .6 0 152.84)" xlink:href="#aa308a8d-4096-4c0b-898a-c8be896b057f"/><radialGradient id="b1b7cc42-9bc4-4e25-a4ee-4a7a8a2cfc16" cx="217.55" cy="416.02" r="5.66" xlink:href="#bd893713-630d-4966-ab71-3b27d380418e"/><radialGradient id="a40a4120-a3a9-4099-912e-d77466c32bf6" cx="195.83" cy="370.99" r="11.47" xlink:href="#bd893713-630d-4966-ab71-3b27d380418e"/><radialGradient id="aa308a8d-4096-4c0b-898a-c8be896b057f" cx="92.36" cy="393.88" r="5.66" gradientTransform="matrix(1 0 0 .6 0 157.55)" gradientUnits="userSpaceOnUse"><stop offset="0" stop-color="#0000ef"/><stop offset=".15" stop-color="#0000e9"/><stop offset=".34" stop-color="#0101d9"/><stop offset=".56" stop-color="#0101be"/><stop offset=".79" stop-color="#02029a"/><stop offset="1" stop-color="#020282"/></radialGradient><radialGradient id="ace82eb0-6746-4d73-ae9b-881873ca10a8" cx="114.61" cy="393.88" r="5.66" xlink:href="#aa308a8d-4096-4c0b-898a-c8be896b057f"/><radialGradient id="ba826478-d454-416e-83a6-61bd7962c593" cx="133.17" cy="400.04" r="5.66" gradientTransform="matrix(1 0 0 .6 0 160.02)" xlink:href="#aa308a8d-4096-4c0b-898a-c8be896b057f"/><radialGradient id="b3e4e3d9-7ae9-46d4-873b-623f43ca46a3" cx="139.21" cy="387.78" r="5.66" gradientTransform="matrix(1 0 0 .6 0 155.11)" xlink:href="#aa308a8d-4096-4c0b-898a-c8be896b057f"/><radialGradient id="bd893713-630d-4966-ab71-3b27d380418e" cx="65.88" cy="348.77" r="11.47" gradientUnits="userSpaceOnUse"><stop offset="0" stop-color="#fd6d66"/><stop offset=".78" stop-color="#b50a03"/></radialGradient><radialGradient id="eadb989c-fd35-4e29-9413-49aa01b432aa" cx="100.32" cy="382.53" r="5.66" gradientTransform="matrix(1 0 0 .6 0 153.01)" xlink:href="#aa308a8d-4096-4c0b-898a-c8be896b057f"/><radialGradient id="f7239793-d56e-4b9d-a4da-da24276ac19e" cx="225.51" cy="404.67" r="5.66" xlink:href="#bd893713-630d-4966-ab71-3b27d380418e"/><radialGradient id="b4bd050e-7679-4dba-993b-bb5316cefec8" cx="246.79" cy="404.24" r="5.66" xlink:href="#bd893713-630d-4966-ab71-3b27d380418e"/><radialGradient id="e168bb36-6035-4c33-af57-0d98f4f8d230" cx="264.4" cy="409.93" r="5.66" xlink:href="#bd893713-630d-4966-ab71-3b27d380418e"/><radialGradient id="a4675c02-7780-4bed-97bf-231ffcd36e73" cx="258.36" cy="422.19" r="5.66" xlink:href="#bd893713-630d-4966-ab71-3b27d380418e"/><radialGradient id="b12299f4-d86b-4c93-afbe-26c04a144f3a" cx="239.79" cy="416.02" r="5.66" xlink:href="#bd893713-630d-4966-ab71-3b27d380418e"/><style>.ed3cbb8c-4bdb-4f62-9780-c1972c30540c{fill:#373735}.a1a9835d-9807-4b60-8562-25d6345bcec5{fill:#121211;stroke:#b5b5b5}.a545846d-6ee3-44e8-992b-64eaabe8084a,.e36a8f23-b9e9-450a-853a-052e05270d67,.efe0a72f-552d-49fd-9dff-8e368bd97a5c,.f1232d36-cd97-45db-a6a2-97fcc6211a73{stroke:#b5b5b5}.a1a9835d-9807-4b60-8562-25d6345bcec5,.a545846d-6ee3-44e8-992b-64eaabe8084a,.a6d1f5bf-7834-4151-a594-2c91bfec5e12,.b3c903ca-29fc-482a-813f-f1c361069413,.e36a8f23-b9e9-450a-853a-052e05270d67,.efe0a72f-552d-49fd-9dff-8e368bd97a5c,.f1232d36-cd97-45db-a6a2-97fcc6211a73,.fc6d4a06-6312-4c16-a1d7-c5f94c9b177a{stroke-miterlimit:10}.a1a9835d-9807-4b60-8562-25d6345bcec5,.a545846d-6ee3-44e8-992b-64eaabe8084a,.b3c903ca-29fc-482a-813f-f1c361069413,.e36a8f23-b9e9-450a-853a-052e05270d67,.efe0a72f-552d-49fd-9dff-8e368bd97a5c,.f1232d36-cd97-45db-a6a2-97fcc6211a73{stroke-width:.5px}.fc6d4a06-6312-4c16-a1d7-c5f94c9b177a{fill:#443840}.b3c903ca-29fc-482a-813f-f1c361069413,.fc6d4a06-6312-4c16-a1d7-c5f94c9b177a{stroke:#090000}.fc6d4a06-6312-4c16-a1d7-c5f94c9b177a{stroke-width:.75px}.b3c903ca-29fc-482a-813f-f1c361069413{fill:#6b0c05}.b8b22a15-7a5a-478a-9b59-775f1fd7dcb8{fill:#86382f}.a6d1f5bf-7834-4151-a594-2c91bfec5e12{stroke:#373737}.aab48e62-38ef-4bdf-b7eb-5ce82117d30a{fill:#f19c1a}.e36a8f23-b9e9-450a-853a-052e05270d67{fill:#dc6e05}.a545846d-6ee3-44e8-992b-64eaabe8084a{fill:#12e600}.f1232d36-cd97-45db-a6a2-97fcc6211a73{fill:#0b47ce}.e90fda97-9857-466e-a877-5890bf477829,.efe0a72f-552d-49fd-9dff-8e368bd97a5c{fill:#282826}.a33c5211-ecd4-4719-bf7f-1d0bf87f2bf4{fill:#ae7a82}.ac42c0f8-7a31-4b38-8020-1b4c10aab3ad{fill:url(#bd893713-630d-4966-ab71-3b27d380418e)}.a26abb3e-94d6-4d1b-b0ad-84e4dd99f9bd{fill:url(#a40a4120-a3a9-4099-912e-d77466c32bf6)}.ef4885c9-b451-4060-916a-0a9b5f7d94a3{fill:#0000ef}.e30341bd-5960-4292-8ed4-06ab23d45271{fill:#930303}.b05e2523-7077-4316-aa31-2668a0e9480d{fill:#e7e7e7}.a7588556-6719-4524-8638-2f36cef4773e{fill:#2c2b29}.a6dced98-4a80-495d-be48-e7973db35514{fill:#ecbc15}.e2a70b1b-f7d3-40b5-aedc-087eb0b87617{fill:#ac6a0f}.b4a64cb1-8f80-4667-8bc9-070299a69613{fill:#efb80f}.a37b7e28-a2b1-41c6-b437-61ac0f9d9c99{fill:#f4d11d}.eca782d4-fc8e-46b1-82fa-64694e0e309f{fill:#ba7b12}.ae695d37-7618-4297-83e2-5b68830fd93d{fill:#f9f105}.b15be689-db20-4a71-87d5-635da2fa2f38{fill:#f1cb0c}.b5cdeec1-acbb-48a7-b39d-d21f3537d3c0{fill:#f3dd09}.b18a8d8d-d78d-4d91-ae10-ea5633fcd941{fill:#fbd304}</style></defs><g id="ab7eed94-a409-402b-9a6d-4bd771faf48c" data-name="Calque 1"><path id="e6f4f864-dc0b-479e-8f61-311f80e257ac" data-name="ombre" style="opacity:.5;fill:#373735" d="m452.03 588.79 21.51-5.91H485.41l1.58 2.96 237.36 43.3h11.08l11.07 31.39-46.41 37.71-46.42 13.19-8.18-1.32.27-1.85-13.98-2.63-83.6 27.95-73.32 51.57-22.83 6.82-7.77-1.16v-2.63l-16.08-3.03-129.99 34.37 153.84-230.73z"/><g id="fcc9e66e-166c-4525-95b0-b40164836521" data-name="bottom"><path class="ed3cbb8c-4bdb-4f62-9780-c1972c30540c" d="m36 454.56 224.9 39.62v4.35l25.72 6.13-.4 311.34-248.24-47.27L36 454.56z"/><path class="a1a9835d-9807-4b60-8562-25d6345bcec5" d="m202 526.54-78.38-13.74c-3 .19-4.26 3.56-4.26 3.56l.2 85c.69 2.18 3.86 5 3.86 5l74.27 13.46c5.14.49 7.52-5.25 7.52-5.25v-82.69a7.12 7.12 0 0 0-3.21-5.34zm-49.9 22.55-18.69-3.46v-20l2.27-1.88 18.1 3.07-1.78 2.69zm31.45 6.13-18.69-3.46v-20l2.27-1.87 18.1 3.06-1.78 2.67z" transform="translate(-.98 -.52)"/><path class="fc6d4a06-6312-4c16-a1d7-c5f94c9b177a" d="m134.7 523.25-2.27 1.88v19.98l18.69 3.46-.1-19.58 1.78-2.67-18.1-3.07zM166.15 529.38l-2.27 1.88v19.98l18.69 3.46-.1-19.58 1.78-2.67-18.1-3.07z"/><path class="b3c903ca-29fc-482a-813f-f1c361069413" d="M140.14 543.03v-12.85l8.01 1.78v12.56l-8.01-1.49zM171.2 548.87v-12.86l8.01 1.78v12.56l-8.01-1.48z"/><path d="M135.23 543.16v-15.23l2.05.4v15.16l-2.05-.33zM166.68 548.7v-15.23l2.04.4v15.16l-2.04-.33z"/><path class="b8b22a15-7a5a-478a-9b59-775f1fd7dcb8" d="M140.4 530.69v-.35l7.47 1.8.01.43-7.48-1.88zM171.46 536.62v-.29l7.47 1.64.01.35-7.48-1.7z"/><circle cx="192.4" cy="574.85" r="4.25" style="fill:#8b8b8b;stroke-width:.75px;stroke:#090000;stroke-miterlimit:10"/><path class="a6d1f5bf-7834-4151-a594-2c91bfec5e12" d="M136.29 598.71v-11.27l11.96 2.18v11.3l-11.96-2.21zM167.54 604.25v-11.27l11.96 2.17v10.88l-11.96-1.78z"/></g><g id="b0afa824-192c-4afb-bf31-4ff01b924f62" data-name="t molding"><path class="aab48e62-38ef-4bdf-b7eb-5ce82117d30a" d="m11.46 450.59-.79-39.76L1 407.66v45.1l27.89 5.54c.59 103.55 1 207.6 1.58 311.15a6.18 6.18 0 0 0 3.53 2.19 12.58 12.58 0 0 0 5 0l-2-316.56zM272.36 497v-41.27l-10.28-1.19-.2 44.51 25.71 6.13s-1.51 313.85 0 315.69 8.77 1.32 8.77 1.32l.93-319.91z" transform="translate(-.98 -.52)"/><path class="aab48e62-38ef-4bdf-b7eb-5ce82117d30a" d="m78.72 346.42-8.15-1.3 16.26-218.56 9.04 1.5-17.15 218.36zM329.24 388.85l9.1 1.28 18.49-224.31h-26.37l-.26-90.92-10.06-1.84v94.84l6.04 1.09h20.27l-17.21 219.86z"/><path class="aab48e62-38ef-4bdf-b7eb-5ce82117d30a" d="M88.49 127.19s-28.17-.35-29.11-.85c0-31.21.06-62.83 0-94l9.36 2.64.48 89.02z" transform="translate(-.98 -.52)"/><g id="b6908ee3-e4c7-4d9c-b62b-cf22350de7a4" data-name="clair"><path class="aab48e62-38ef-4bdf-b7eb-5ce82117d30a" d="m0 407.14 9.69 3.17L78 346.25l-8.11-1.94L0 407.14zM261.1 454.02l10.28 1.19 66.96-65.87-8.62-1.6-68.62 66.28zM111.56 0 58.42 31.78l9.36 2.64L120.36 3.3l2.74-1.62-2.57-.36L111.56 0zM383.74 40.62l-11.21-.8-52.39 33.24 10.06 1.84 53.54-34.28z"/></g></g><g id="bb0432cb-63d4-4589-9f0c-f45a30af9087" data-name="side"><path class="a1a9835d-9807-4b60-8562-25d6345bcec5" d="m453.13 308.64.63-159.63-70.02-108.39L330.2 74.9l.26 90.92h26.37l-18.49 224.31-66.96 65.08v41.27l24.93 5.28-.93 319.91 8.25-6.32 149.65-543.7-.21 21.51-142.1 516.55-1.61 1.24 6.94-5.32 136.83-496.99zM324.06 799.15l-7.76 6.48 11.99-9.2 124.7-453.24.05-12.13-128.98 468.09zM335.43 790.95l-1.32 1.02 6.87-5.27 111.79-407.64v21.25l.22-57.12-.22 24-117.34 423.76zM343 785.15l108.58-83.28 1.18-299.85L347.4 781.78l-4.4 3.37z"/><path style="fill:#bf0000;stroke-width:.5px;stroke-miterlimit:10;stroke:#b5b5b5" d="m303.63 815.35 5.73-4.4-5.73 4.4z"/><path class="aab48e62-38ef-4bdf-b7eb-5ce82117d30a" d="m453.07 293.16.21-21.51-149.65 543.7 5.73-4.4 1.61-1.24 142.1-516.55z"/><path class="e36a8f23-b9e9-450a-853a-052e05270d67" d="M453.13 330.74v-22.1l-.09 22.42.09-.32zM316.3 805.63z"/><path style="fill:#fff31e" d="m453.04 331.06.09-22.42L316.3 805.63l7.76-6.48 128.98-468.09z"/><path class="a545846d-6ee3-44e8-992b-64eaabe8084a" d="M452.99 343.19zM328.29 796.43l5.82-4.46-5.82 4.46z"/><path style="fill:#1c1102" d="m334.11 791.97 1.32-1.02 117.34-423.76.22-24-124.7 453.24 5.82-4.46z"/><path class="f1232d36-cd97-45db-a6a2-97fcc6211a73" d="m340.98 786.7 2.02-1.55-2.02 1.55zM452.77 402v-1.69l-.01 1.71.01-.02z"/><path style="fill:#fffcf7" d="m340.98 786.7 2.02-1.55 4.4-3.37 105.36-379.76.01-1.71v-21.25L340.98 786.7z"/></g><g id="e4e22466-cdc0-413b-9d26-ade934ed07b7" data-name="panel"><path class="efe0a72f-552d-49fd-9dff-8e368bd97a5c" d="m10.48 450.07 250.42 44.11.2-40.16L9.69 410.31l.79 39.76z"/><path class="ed3cbb8c-4bdb-4f62-9780-c1972c30540c" d="m79.37 345.21-69.68 65.1 251.41 43.71 68.62-66.28-250.35-42.53z"/></g><g id="b2577959-e875-43d0-a0a2-d1f6f2a0748d" data-name="ecran"><path class="efe0a72f-552d-49fd-9dff-8e368bd97a5c" d="M96.84 129.36 79.7 347.72l250.52 42.43L347.82 168zm224.28 67.76c0 .2-.29.32-.48.49l-10.43 144.83a35.43 35.43 0 0 1-4.3 3.78l1.4.29v10.7s-1.4 4.75-11.08 2.64c-11.19-2.44-178.55-31.91-178.55-31.91l8.72-6.78v-1.39s-2.46.52-6-7l-12.48 2.77h-4l11.34-158.77s4-6.85 10.81-6.59 191.16 30.59 191.16 30.59 6.17 1.07 3.89 16.35z" transform="translate(-.98 -.52)"/><path d="M317.28 180S133 149.66 126.12 149.4s-10.81 6.6-10.81 6.6l-11.74 160.08h4.35l12.29-2.68c-.1-.23-.74-1.57-.85-1.8L131 166.54s2.11-5.54 7.12-7.38l177.49 27.16a20.77 20.77 0 0 1 5.11 9.76l-.05.75c.19-.17.62.66.66.47 3.23-14.06-4.05-17.3-4.05-17.3z" transform="translate(-.98 -.52)" style="fill:#151312"/><path d="m125.32 320-8.56 8s164.63 29.3 178.61 32.24c10.36 2.17 14.43-3.58 14.43-3.58l.61-7.37.39-7.71-4.89 3.84a20.85 20.85 0 0 1-7.73 3.87z" transform="translate(-.98 -.52)" style="fill:#555353"/><path d="M319.5 197.81c.45-.36.83-.69 1.14-1l.66-.52a20.31 20.31 0 0 0-5.72-10l-177.49-27.13c-5 1.84-7.12 7.38-7.12 7.38L119.36 311.6l.32.66c3.54 7.52 6.28 8 6.28 8l.44.08 171.78 28.93a20.85 20.85 0 0 0 7.73-3.87c2.57-1.91 4.89-3.84 4.89-3.84l10.5-145.29c-.44.46-1.05.96-1.8 1.54zM143.83 302.35z" transform="translate(-.98 -.52)" style="fill:#008aa6"/></g><g id="f73a2455-a2ff-4de7-9a65-21299d265e35" data-name="top"><path id="ba807e2d-cb56-4baf-bcd0-7501fb38c7e4" data-name="marquee" class="efe0a72f-552d-49fd-9dff-8e368bd97a5c" d="m68.24 123.5 251.47 39.03.43-89.47L67.78 34.42l.46 89.08z"/><path style="stroke-miterlimit:10;stroke:#b5b5b5;fill:#373735" d="m128.84 2.64-5.74-.96-55.32 32.74 252.36 38.64 52.39-33.24L128.84 2.64z"/></g><g id="fd5cd657-6f40-407a-bac2-9d837fdaebea" data-name="stickp1"><path class="e90fda97-9857-466e-a877-5890bf477829" d="M68.92 377.27v5.16H62.4v-5.16c-5.06.64-8.77 2.7-8.77 5.16 0 3 5.38 5.35 12 5.35s12-2.39 12-5.35c.06-2.43-3.63-4.52-8.71-5.16z" transform="translate(-.98 -.52)"/><path class="a33c5211-ecd4-4719-bf7f-1d0bf87f2bf4" d="M68.92 377.27v-17.78a12.18 12.18 0 0 1-3 .39 12.4 12.4 0 0 1-3.48-.49v17.88a26.67 26.67 0 0 1 6.52 0z" transform="translate(-.98 -.52)"/><path class="a33c5211-ecd4-4719-bf7f-1d0bf87f2bf4" d="M68.92 382.43v-5.16a26.67 26.67 0 0 0-6.52 0v5.16z" transform="translate(-.98 -.52)"/><path class="ac42c0f8-7a31-4b38-8020-1b4c10aab3ad" d="M68.92 358.89v.6a11.24 11.24 0 0 0 8.77-10.72c0-6.14-5.29-11.11-11.81-11.11s-11.82 5-11.82 11.11a11.22 11.22 0 0 0 8.34 10.62v-.5z" transform="translate(-.98 -.52)"/><path class="a33c5211-ecd4-4719-bf7f-1d0bf87f2bf4" d="M68.92 359.49v-.6H62.4v.5a12.4 12.4 0 0 0 3.48.49 12.18 12.18 0 0 0 3.04-.39z" transform="translate(-.98 -.52)"/><path class="ac42c0f8-7a31-4b38-8020-1b4c10aab3ad" d="M68.92 359.49v-.6H62.4v.5a12.4 12.4 0 0 0 3.48.49 12.18 12.18 0 0 0 3.04-.39z" transform="translate(-.98 -.52)"/></g><g id="fa130510-aacc-48d4-8ff5-0800ec4d387b" data-name="stickp2"><path class="e90fda97-9857-466e-a877-5890bf477829" d="M198.88 399.49v5.16h-6.53v-5.16c-5 .64-8.77 2.7-8.77 5.16 0 3 5.39 5.35 12 5.35s12-2.39 12-5.35c.07-2.46-3.64-4.52-8.7-5.16z" transform="translate(-.98 -.52)"/><path class="a33c5211-ecd4-4719-bf7f-1d0bf87f2bf4" d="M198.88 399.49v-17.78a12.2 12.2 0 0 1-3 .39 12.83 12.83 0 0 1-3.48-.49v17.88a26.75 26.75 0 0 1 6.53 0z" transform="translate(-.98 -.52)"/><path class="a33c5211-ecd4-4719-bf7f-1d0bf87f2bf4" d="M198.88 404.65v-5.16a26.75 26.75 0 0 0-6.53 0v5.16z" transform="translate(-.98 -.52)"/><path class="a26abb3e-94d6-4d1b-b0ad-84e4dd99f9bd" d="M198.88 381.11v.6a11.24 11.24 0 0 0 8.77-10.71c0-6.14-5.29-11.11-11.82-11.11S184 364.85 184 371a11.22 11.22 0 0 0 8.34 10.62v-.5z" transform="translate(-.98 -.52)"/><path class="a33c5211-ecd4-4719-bf7f-1d0bf87f2bf4" d="M198.88 381.71v-.6h-6.53v.5a12.83 12.83 0 0 0 3.48.49 12.2 12.2 0 0 0 3.05-.39z" transform="translate(-.98 -.52)"/><path class="a26abb3e-94d6-4d1b-b0ad-84e4dd99f9bd" d="M198.88 381.71v-.6h-6.53v.5a12.83 12.83 0 0 0 3.48.49 12.2 12.2 0 0 0 3.05-.39z" transform="translate(-.98 -.52)"/></g><g id="a0c85eff-1d64-404d-83b5-3b02ab8179c3" data-name="boutons P1"><g id="bed0e477-66cf-4daa-96b7-4fc3ea45ccdd" data-name="4"><path class="ef4885c9-b451-4060-916a-0a9b5f7d94a3" d="M92.54 389.14c-3.86 0-8.12 1.53-8.12 4.87 0 2.95 4.1 4.62 7.94 4.62 4.11 0 8-1.73 8-4.88-.04-2.35-3.88-4.61-7.82-4.61zm-.18 8.63c-3.86 0-7-1.74-7-3.89s3.13-3.89 7-3.89 7 1.74 7 3.89-3.14 3.89-7 3.89z" transform="translate(-.98 -.52)"/><path d="M92.36 390c-3.86 0-7 1.74-7 3.89s3.13 3.89 7 3.89 7-1.74 7-3.89-3.14-3.89-7-3.89z" transform="translate(-.98 -.52)" style="fill:url(#aa308a8d-4096-4c0b-898a-c8be896b057f)"/></g><g id="adfe3b3a-fbcf-4434-aff6-ddc07639f7a5" data-name="5"><path class="ef4885c9-b451-4060-916a-0a9b5f7d94a3" d="M114.79 389.14c-3.86 0-8.12 1.53-8.12 4.87 0 2.95 4.1 4.62 7.94 4.62 4.11 0 8-1.73 8-4.88-.04-2.35-3.88-4.61-7.82-4.61zm-.18 8.63c-3.86 0-7-1.74-7-3.89s3.13-3.89 7-3.89 7 1.74 7 3.89-3.14 3.89-7 3.89z" transform="translate(-.98 -.52)"/><path d="M114.61 390c-3.86 0-7 1.74-7 3.89s3.13 3.89 7 3.89 7-1.74 7-3.89-3.14-3.89-7-3.89z" transform="translate(-.98 -.52)" style="fill:url(#ace82eb0-6746-4d73-ae9b-881873ca10a8)"/></g><g id="b6428e72-e2ec-41a0-951f-1bde3fc3326b" data-name="6"><path class="ef4885c9-b451-4060-916a-0a9b5f7d94a3" d="M133.35 395.3c-3.86 0-8.13 1.53-8.13 4.87 0 3 4.11 4.62 7.95 4.62 4.1 0 8-1.73 8-4.88-.04-2.35-3.88-4.61-7.82-4.61zm-.18 8.63c-3.86 0-7-1.74-7-3.89s3.13-3.89 7-3.89 7 1.74 7 3.89-3.17 3.89-7 3.89z" transform="translate(-.98 -.52)"/><path d="M133.17 396.15c-3.86 0-7 1.74-7 3.89s3.13 3.89 7 3.89 7-1.74 7-3.89-3.17-3.89-7-3.89z" transform="translate(-.98 -.52)" style="fill:url(#ba826478-d454-416e-83a6-61bd7962c593)"/></g><g id="e96a75ad-1d9c-4d66-9415-b7849a561602" data-name="3"><path class="ef4885c9-b451-4060-916a-0a9b5f7d94a3" d="M139.39 383c-3.86 0-8.13 1.53-8.13 4.88 0 2.95 4.11 4.61 8 4.61 4.1 0 8-1.73 8-4.88-.09-2.31-3.93-4.61-7.87-4.61zm-.18 8.63c-3.86 0-7-1.74-7-3.89s3.13-3.89 7-3.89 7 1.75 7 3.89-3.14 3.93-7 3.93z" transform="translate(-.98 -.52)"/><path d="M139.21 383.89c-3.86 0-7 1.75-7 3.89s3.13 3.89 7 3.89 7-1.74 7-3.89-3.14-3.89-7-3.89z" transform="translate(-.98 -.52)" style="fill:url(#b3e4e3d9-7ae9-46d4-873b-623f43ca46a3)"/></g><g id="b91e3957-c759-4117-8846-1d6c63856660" data-name="2"><path class="ef4885c9-b451-4060-916a-0a9b5f7d94a3" d="M121.79 377.35c-3.86 0-8.12 1.53-8.12 4.88 0 2.95 4.1 4.61 7.94 4.61 4.11 0 8-1.73 8-4.88-.04-2.34-3.88-4.61-7.82-4.61zm-.18 8.64c-3.86 0-7-1.74-7-3.89s3.13-3.89 7-3.89 7 1.74 7 3.89-3.14 3.9-7 3.9z" transform="translate(-.98 -.52)"/><path d="M121.61 378.21c-3.86 0-7 1.74-7 3.89s3.13 3.89 7 3.89 7-1.74 7-3.89-3.14-3.89-7-3.89z" transform="translate(-.98 -.52)" style="fill:url(#bd7e268f-d305-42f2-9bba-259b320dd1b3)"/></g><g id="a0480fda-dd42-4fd3-a988-d01d4cc619a6" data-name="1"><path class="ef4885c9-b451-4060-916a-0a9b5f7d94a3" d="M100.5 377.78c-3.86 0-8.13 1.53-8.13 4.88 0 2.95 4.11 4.62 7.95 4.62 4.1 0 8-1.73 8-4.88-.04-2.35-3.88-4.62-7.82-4.62zm-.18 8.64c-3.86 0-7-1.74-7-3.89s3.13-3.89 7-3.89 7 1.74 7 3.89-3.14 3.89-7 3.89z" transform="translate(-.98 -.52)"/><path d="M100.32 378.64c-3.86 0-7 1.74-7 3.89s3.13 3.89 7 3.89 7-1.74 7-3.89-3.14-3.89-7-3.89z" transform="translate(-.98 -.52)" style="fill:url(#eadb989c-fd35-4e29-9413-49aa01b432aa)"/></g></g><g id="b027b36b-71cf-4a37-a429-75fe293482b2" data-name="boutons P2"><g id="e4423310-f0c4-4ed6-8862-1cbe11f26da8" data-name="1"><path class="e30341bd-5960-4292-8ed4-06ab23d45271" d="M225.69 399.93c-3.86 0-8.13 1.53-8.13 4.87 0 2.95 4.11 4.62 7.95 4.62 4.1 0 8-1.73 8-4.88-.04-2.35-3.88-4.61-7.82-4.61zm-.18 8.63c-3.86 0-7-1.74-7-3.89s3.13-3.89 7-3.89 7 1.74 7 3.89-3.14 3.89-7 3.89z" transform="translate(-.98 -.52)"/><path d="M225.51 400.78c-3.86 0-7 1.74-7 3.89s3.13 3.89 7 3.89 7-1.74 7-3.89-3.14-3.89-7-3.89z" transform="translate(-.98 -.52)" style="fill:url(#f7239793-d56e-4b9d-a4da-da24276ac19e)"/></g><g id="f412e64f-9d5f-465c-83b7-c9171a36e894" data-name="2"><path class="e30341bd-5960-4292-8ed4-06ab23d45271" d="M247 399.49c-3.86 0-8.13 1.54-8.13 4.88 0 2.95 4.11 4.62 7.95 4.62 4.1 0 8-1.73 8-4.88-.07-2.35-3.91-4.62-7.82-4.62zm-.18 8.64c-3.86 0-7-1.74-7-3.89s3.13-3.89 7-3.89 7 1.74 7 3.89-3.17 3.89-7.03 3.89z" transform="translate(-.98 -.52)"/><path d="M246.79 400.35c-3.86 0-7 1.74-7 3.89s3.13 3.89 7 3.89 7-1.74 7-3.89-3.14-3.89-7-3.89z" transform="translate(-.98 -.52)" style="fill:url(#b4bd050e-7679-4dba-993b-bb5316cefec8)"/></g><g id="a34c18cf-e952-4dff-8c84-f71c1c670dd7" data-name="3"><path class="e30341bd-5960-4292-8ed4-06ab23d45271" d="M264.58 405.18c-3.86 0-8.12 1.53-8.12 4.88 0 2.95 4.1 4.61 7.94 4.61 4.1 0 8-1.73 8-4.88-.04-2.35-3.88-4.61-7.82-4.61zm-.18 8.64c-3.86 0-7-1.75-7-3.89s3.13-3.89 7-3.89 7 1.74 7 3.89-3.14 3.89-7 3.89z" transform="translate(-.98 -.52)"/><path d="M264.4 406c-3.86 0-7 1.74-7 3.89s3.13 3.89 7 3.89 7-1.75 7-3.89-3.14-3.89-7-3.89z" transform="translate(-.98 -.52)" style="fill:url(#e168bb36-6035-4c33-af57-0d98f4f8d230)"/></g><g id="bbe467e1-d3aa-45ea-b49b-a348ee2b16ca" data-name="4"><path class="e30341bd-5960-4292-8ed4-06ab23d45271" d="M258.54 417.44c-3.86 0-8.13 1.53-8.13 4.88 0 2.95 4.11 4.61 8 4.61 4.1 0 8-1.73 8-4.88-.09-2.35-3.93-4.61-7.87-4.61zm-.18 8.64c-3.86 0-7-1.75-7-3.89s3.13-3.89 7-3.89 7 1.74 7 3.89-3.14 3.89-7 3.89z" transform="translate(-.98 -.52)"/><path d="M258.36 418.3c-3.86 0-7 1.74-7 3.89s3.13 3.89 7 3.89 7-1.75 7-3.89-3.14-3.89-7-3.89z" transform="translate(-.98 -.52)" style="fill:url(#a4675c02-7780-4bed-97bf-231ffcd36e73)"/></g><g id="bbdfd9ac-8d48-40c0-9d86-56b9ebd71a73" data-name="5"><path class="e30341bd-5960-4292-8ed4-06ab23d45271" d="M240 411.28c-3.86 0-8.13 1.53-8.13 4.88 0 2.95 4.11 4.61 7.95 4.61 4.1 0 8-1.73 8-4.88-.07-2.35-3.91-4.61-7.82-4.61zm-.18 8.63c-3.86 0-7-1.74-7-3.89s3.13-3.89 7-3.89 7 1.75 7 3.89-3.17 3.89-7.03 3.89z" transform="translate(-.98 -.52)"/><path d="M239.79 412.13c-3.86 0-7 1.75-7 3.89s3.13 3.89 7 3.89 7-1.74 7-3.89-3.14-3.89-7-3.89z" transform="translate(-.98 -.52)" style="fill:url(#b12299f4-d86b-4c93-afbe-26c04a144f3a)"/></g><g id="a8664d69-255e-46d0-b189-e77378642238" data-name="6"><path class="e30341bd-5960-4292-8ed4-06ab23d45271" d="M217.73 411.28c-3.86 0-8.13 1.53-8.13 4.88 0 2.95 4.11 4.61 8 4.61 4.1 0 8-1.73 8-4.88-.09-2.35-3.93-4.61-7.87-4.61zm-.18 8.63c-3.86 0-7-1.74-7-3.89s3.13-3.89 7-3.89 7 1.75 7 3.89-3.14 3.89-7 3.89z" transform="translate(-.98 -.52)"/><path d="M217.55 412.13c-3.86 0-7 1.75-7 3.89s3.13 3.89 7 3.89 7-1.74 7-3.89-3.14-3.89-7-3.89z" transform="translate(-.98 -.52)" style="fill:url(#b1b7cc42-9bc4-4e25-a4ee-4a7a8a2cfc16)"/></g></g><path class="b05e2523-7077-4316-aa31-2668a0e9480d" d="M228.57 237.19v.07l-5.92-1v-.08zM236.56 238.53a.13.13 0 0 0 0 .06l-5.72-1v-.06z" transform="translate(-.98 -.52)"/><path class="a7588556-6719-4524-8638-2f36cef4773e" d="m210.17 273.38-65.56-11c-.87-.14-.87-.14-.74-.92.25-1.54.47-3.08.75-4.61.78-4.31 1.48-8.63 2.22-12.95.09-.48.22-1 .29-1.44 0-.18.12-.23.31-.19l.75.13 119.31 19.98a16.13 16.13 0 0 1 4.69 1.42 11.54 11.54 0 0 1 5.67 5.9 8.36 8.36 0 0 1 .63 3.88c0 .38-.08.76-.15 1.14l-1.56 9.36c-.07.39-.13.42-.54.36l-40.11-6.72zm14.68-7.7c-.4 2.35-.79 4.71-1.19 7.07 0 .23 0 .34.3.38 1 .15 1.95.32 2.93.49.51.09.51.09.59-.37q.69-4.22 1.4-8.43c0-.08 0-.21.12-.22s.13.1.17.17c1.69 3.14 3.43 6.26 5.06 9.42a2.38 2.38 0 0 0 3.55.6c.9-.94 1.91-1.79 2.87-2.68l4.89-4.53c.08-.07.15-.22.26-.17s0 .2 0 .31v.12c-.47 2.79-.93 5.58-1.4 8.37 0 .25 0 .35.31.4 1 .16 2 .32 3.06.51.34.07.45 0 .49-.32l2.32-13.83a1.32 1.32 0 0 0-.25-1 2.34 2.34 0 0 0-3.26-.37l-2.16 2-8.12 7.4c-.25.23-.28.22-.45-.08-2.2-4.06-4.42-8.11-6.61-12.17a2.14 2.14 0 0 0-1.43-1.06A1.74 1.74 0 0 0 226 259zm-4.51-.71c.38-2.31.76-4.61 1.16-6.92a1.32 1.32 0 0 0-.45-1.21 2.4 2.4 0 0 0-3.17 0c-2.39 2.24-4.82 4.43-7.24 6.63l-2.95 2.7c-.13.12-.23.25-.37 0l-3.44-6.31c-1.1-2-2.19-4-3.3-6a2.24 2.24 0 0 0-2.21-1 1.52 1.52 0 0 0-1.5 1.37q-1.16 6.86-2.3 13.71c0 .28.05.37.35.41 1 .15 2 .32 3 .5.44.07.45.08.51-.3.46-2.73.91-5.46 1.37-8.19 0-.13 0-.27.06-.4s0-.16.11-.17.1.08.13.14.18.34.28.51c1.63 3 3.29 6 4.88 9.07a2.34 2.34 0 0 0 3.35.6c.47-.47 1-.91 1.48-1.37l6.5-6c.06-.05.09-.14.19-.11s.07.14.06.22c-.14.81-.28 1.62-.41 2.44-.35 2.06-.69 4.13-1 6.2 0 .22 0 .32.29.36l3 .5c.44.07.45.07.52-.31q.51-3.6 1.1-7.04zm33.15 5.67c-.38 2.28-.76 4.57-1.15 6.85-.06.31.06.41.38.45 1 .16 2 .32 3 .5.33.07.45 0 .5-.31.16-1 .35-2.08.51-3.12 0-.23.12-.33.4-.28l12.77 2.14c.33.05.39.18.34.45-.18 1-.34 2.08-.53 3.12-.05.25 0 .35.32.4 1 .15 2 .32 3 .49.45.07.46.07.53-.34l1.22-7.32a6.88 6.88 0 0 0-2.51-6.52 12.61 12.61 0 0 0-6.36-3c-2.38-.41-4.76-.8-7.13-1.19-.72-.12-1.45-.26-2.17-.35a1.6 1.6 0 0 0-1.91 1.29c-.46 2.27-.83 4.5-1.21 6.74zm-62.24-10.42 1.14-6.79a1.24 1.24 0 0 0 0-.47 1.91 1.91 0 0 0-1.63-1.33c-1.55-.26-3.1-.53-4.65-.77-1.84-.3-3.66-.71-5.51-.87a11.55 11.55 0 0 0-7 1.39 6.55 6.55 0 0 0-3.37 4.67q-.63 3.74-1.25 7.47c-.07.4-.07.4.36.47 1 .17 2 .32 2.93.5.33.06.45 0 .5-.31.15-1 .34-2.06.5-3.09 0-.29.17-.35.48-.3l12.67 2.12c.34 0 .42.16.37.46-.19 1-.35 2.08-.54 3.11 0 .26 0 .36.32.4 1 .16 2 .32 3 .51.33.06.44 0 .49-.32.42-2.28.81-4.57 1.19-6.85zm-38.3 1 6.47 1.08a7.76 7.76 0 0 0 2.76 0 3.93 3.93 0 0 0 3.34-2.92c.64-3.78 1.26-7.55 1.9-11.33.05-.27 0-.37-.33-.42-1-.15-2-.32-3-.5-.36-.07-.46 0-.51.33q-.92 5.58-1.86 11.15a1.08 1.08 0 0 1-1.24.95 4.41 4.41 0 0 1-.73-.08c-1-.18-2-.37-3.06-.54l-7-1.15c-.28-.05-.35-.15-.31-.38.11-.59.19-1.18.31-1.76.06-.28 0-.4-.35-.45-.84-.13-1.68-.26-2.52-.42-.34-.07-.44 0-.49.32-.24 1.49-.49 3-.74 4.45-.07.42-.07.42.42.5zM230.83 237.63l5.72 1c.15.09.15.2.13.35-.37 2.17-.73 4.34-1.11 6.51 0 .29 0 .38.34.43 3.09.5 6.18 1 9.27 1.54.32.05.34.16.31.44-.06.67-.23 1.33-.32 2-.22 1.55-.54 3.09-.8 4.63-.1.59-.17 1.19-.26 1.78 0 .2-.12.31-.4.26L228.57 254c-.65-.11-.65-.11-.56-.68q1.29-7.69 2.57-15.38c.02-.15.02-.31.25-.31zm3.94 12.7c-.13.78-.25 1.56-.39 2.34-.05.27 0 .38.33.43 1.06.16 2.11.34 3.16.53.32.06.44 0 .49-.31.25-1.55.51-3.1.78-4.66 0-.24 0-.34-.31-.38q-1.62-.25-3.24-.54c-.28-.05-.39 0-.43.27-.16.78-.26 1.55-.39 2.32zM255.63 249.17c2.55.43 5.09.86 7.64 1.27.34.06.42.17.37.47q-.7 4.14-1.39 8.3c-.07.37-.1.4-.52.33L246.38 257c-.27-.05-.34-.16-.3-.39q.72-4.21 1.41-8.43c0-.28.18-.33.47-.28 2.55.44 5.11.86 7.67 1.29zm1.31 4.88c.14-.8.27-1.6.41-2.4 0-.23 0-.36-.3-.4l-3.44-.58c-.26 0-.38 0-.42.27l-.81 4.85c0 .25.05.36.33.41l3.37.56c.3.06.42 0 .46-.3.13-.8.27-1.6.4-2.41zM173.53 244.78l-7.64-1.27c-.31 0-.37-.15-.33-.42q.72-4.2 1.42-8.42c0-.25.13-.32.4-.27l15.36 2.6c.41.07.43.11.37.49-.26 1.55-.53 3.11-.78 4.66 0 .31-.17.37-.5.32-3.07-.53-6.15-1-9.22-1.55-.46-.08-.46-.08-.52.32s-.11.7-.19 1 0 .35.31.4c2.06.33 4.11.68 6.17 1l3.16.53c.32.05.42.17.37.44s-.14.74-.19 1.11-.18.38-.51.32zm.92-5.45c.56.1 1.13.18 1.69.29.25 0 .35 0 .38-.25 0-.39.12-.78.2-1.17 0-.21 0-.32-.26-.36l-3.41-.57c-.22 0-.33 0-.36.23q-.08.62-.18 1.23c0 .23.06.3.29.33.55.07 1.1.17 1.65.27zM211.28 241.75l7.64 1.28c.44.07.5.14.42.52-.43 2-.7 4-1.05 6-.14.74-.27 1.48-.37 2.23 0 .29-.15.37-.49.31-2.08-.36-4.17-.7-6.26-1l-9-1.51c-.42-.07-.43-.08-.37-.47.26-1.56.53-3.11.77-4.67 0-.32.18-.37.52-.31l9.16 1.54c.46.07.46.07.53-.33s.09-.67.17-1 0-.4-.36-.46c-2.34-.37-4.68-.77-7-1.16l-2.31-.38c-.24 0-.32-.12-.28-.34a10.85 10.85 0 0 0 .21-1.27c0-.27.16-.31.43-.26l5.37.9 2.27.38zm-1.15 7.25c.55.09 1.11.17 1.66.27.21 0 .33 0 .36-.21l.21-1.23c0-.19-.05-.29-.27-.33l-3.33-.56c-.24 0-.35 0-.38.24 0 .4-.11.79-.19 1.17-.05.23.05.33.29.37.52.07 1.1.17 1.65.28zM268.74 251.36c.87.15 1.74.31 2.62.44.31 0 .38.18.34.43-.08.4-.13.8-.21 1.2 0 .21 0 .3.27.34l3.36.56c.28 0 .38 0 .41-.27.06-.41.15-.82.2-1.23 0-.23.15-.27.37-.24l5.4.91c.21 0 .3.13.27.33-.08.43-.16.86-.22 1.29 0 .23-.16.29-.41.25-.44-.09-.89-.15-1.34-.24-.24 0-.33 0-.36.24-.05.4-.13.8-.19 1.2 0 .23-.15.3-.4.25-.47-.08-.94-.15-1.41-.24-.17 0-.24 0-.29.17-.13.44-.08.91-.25 1.34-.07.18.07.24.24.27l1.38.22c.28 0 .38.15.33.41s-.13.78-.21 1.17c0 .21.05.31.28.34l1.34.22c.25 0 .34.13.3.36-.09.42-.17.84-.22 1.27 0 .22-.15.27-.36.24l-.65-.11-4.62-.77c-.45-.08-.45-.08-.38-.49s.12-.76.19-1.14c.05-.21 0-.3-.27-.34l-3.44-.58c-.22 0-.29 0-.31.21-.06.4-.16.8-.19 1.21s-.19.37-.5.32l-4.72-.8c-1.16-.19-.93-.1-.8-1 0-.25.09-.49.12-.74s.16-.29.4-.25c.45.09.9.15 1.34.24.27.05.39 0 .42-.26s.14-.78.19-1.17.16-.31.41-.26c.46.09.92.15 1.37.24.21 0 .3 0 .32-.2.06-.43.13-.85.22-1.27 0-.21-.05-.28-.26-.31l-1.38-.23c-.24 0-.34-.12-.29-.36s.14-.78.21-1.17c0-.23 0-.35-.31-.38-.45-.06-.9-.15-1.35-.22-.25 0-.34-.14-.29-.37q.12-.63.21-1.26c0-.24.16-.29.4-.24zM222.64 236.28l5.92 1a.42.42 0 0 1 .05.36q-1.31 7.77-2.6 15.56c0 .28-.17.37-.48.31s-.88-.19-1.33-.26l-3.89-.62c-.46-.08-.45-.08-.39-.49q1.31-7.74 2.6-15.49c.02-.14 0-.28.12-.37zM191.71 247.82l-7.71-1.28c-.3 0-.4-.14-.35-.43q.72-4.2 1.41-8.4c0-.26.15-.32.42-.27l15.39 2.56c.31.05.42.18.36.45s-.11.72-.19 1.08-.13.41-.55.34l-4.16-.7-5.06-.85c-.28 0-.37 0-.41.25-.22 1.39-.46 2.78-.69 4.17a2.74 2.74 0 0 1 0 .28c-.11.6-.11.6.58.72l8.92 1.49c.42.07.45.11.39.5s-.15.72-.18 1.08-.19.35-.48.3c-.56-.11-1.12-.2-1.68-.29z" transform="translate(-.98 -.52)"/><path d="M291.07 282.1c-.25 1.47-.49 2.94-.74 4.41-.07.42-.07.42-.51.34l-4.27-.71c-.27 0-.37-.13-.3-.37s.07-.41.11-.62-.06-.27-.25-.29l-.49-.05c-.39-.06-.49 0-.51.37v.19c0 .43-.14.5-.63.42-1.39-.23-2.79-.47-4.19-.69-.32-.05-.4-.19-.36-.45.5-3 1-5.91 1.49-8.86.06-.36.14-.42.55-.33 2.95.58 5.92 1 8.87 1.52.52.09 1 .13 1.55.22s.47.1.4.52c-.24 1.46-.49 2.92-.73 4.38zm-8.37-.17 1.58.27c.22 0 .32 0 .35-.22.1-.59.2-1.19.31-1.79 0-.21-.06-.3-.29-.34l-3.13-.52c-.21 0-.31 0-.35.22-.08.59-.18 1.19-.29 1.79 0 .21 0 .31.27.34zm5.47-1.49c-.52-.08-1-.16-1.55-.26-.25-.05-.36 0-.39.24-.09.59-.19 1.19-.29 1.78-.05.23.05.29.28.33 1 .16 2 .33 3 .51.28.05.39 0 .43-.27.08-.56.17-1.13.28-1.69 0-.23 0-.35-.3-.39-.48-.08-.97-.17-1.46-.25z" transform="translate(-.98 -.52)" style="fill:#2785db"/><path d="M292.87 271.31c-.25 1.48-.5 3-.74 4.44-.07.38-.11.4-.52.34l-2.86-.48c-.41-.07-.49-.18-.43-.54.14-.85.28-1.71.43-2.56a.34.34 0 0 1 0-.1c.2-.63.12-.52.72-.43l1.48.25c.26 0 .4 0 .44-.25.09-.59.19-1.18.29-1.76 0-.21 0-.33-.3-.38l-8-1.34c-.26 0-.39.05-.42.28-.09.57-.19 1.14-.28 1.7 0 .23.05.36.31.41l3.06.52a.25.25 0 0 0 .33-.17 1.81 1.81 0 0 0 .12-.64c0-.19.11-.24.27-.29a.45.45 0 0 1 .2 0c.85.09.89.14.77.88-.21 1.26-.43 2.51-.63 3.77 0 .26-.17.34-.43.3l-5.43-.91c-.49-.08-.55-.15-.48-.58.49-3 1-5.91 1.48-8.87 0-.17.09-.23.28-.22s.55 0 .83.08l9.77 1.63c.55.09.55.1.47.6l-.72 4.32z" transform="translate(-.98 -.52)" style="fill:#44c047"/><path d="M289.84 254.78c1.75.29 3.49.59 5.24.87.3 0 .4.13.35.42-.51 3-1 5.95-1.49 8.92-.05.3-.16.38-.49.32-1.4-.25-2.8-.48-4.2-.71-.36-.06-.42-.15-.36-.47 0-.12.06-.23.08-.34.08-.47.08-.47-.46-.56h-.21c-.5-.08-.51-.08-.54.39 0 .18-.1.34-.11.52s-.18.19-.35.16l-4.44-.74c-.23 0-.32-.15-.29-.35.17-1 .35-2 .51-3.06 0-.28.23-.27.45-.23l1.83.3c.8.15 1.61.24 2.4.44.25.06.44 0 .48-.27.07-.57.17-1.14.28-1.7.05-.27 0-.38-.34-.43-1.42-.22-2.83-.47-4.24-.7-.29 0-.4-.12-.35-.4.18-1 .33-2 .48-3 0-.26.15-.33.44-.28 1.77.31 3.55.6 5.33.9zm1.49 6.43c.51.08 1 .16 1.54.26.22 0 .35 0 .39-.21.09-.61.19-1.22.3-1.82 0-.2 0-.32-.27-.35l-3.09-.52c-.22 0-.32 0-.35.21-.09.63-.2 1.25-.31 1.88 0 .18 0 .26.24.29z" transform="translate(-.98 -.52)" style="fill:#eb1416"/><path class="a7588556-6719-4524-8638-2f36cef4773e" d="m156.94 232.66 7.54 1.26c.53.09.53.09.45.57s-.13.7-.17 1-.16.33-.44.28l-9.3-1.57c-.33-.05-.41 0-.45.3-.35 2.17-.72 4.33-1.07 6.49-.05.31-.2.36-.51.31l-5.19-.87c-.3 0-.4-.14-.35-.42q.72-4.19 1.4-8.39c.05-.31.19-.34.48-.29z" transform="translate(-.98 -.52)"/><path class="b05e2523-7077-4316-aa31-2668a0e9480d" d="M224.85 265.68 226 259a1.74 1.74 0 0 1 2.34-1.33 2.14 2.14 0 0 1 1.43 1.06c2.19 4.06 4.41 8.11 6.61 12.17.17.3.2.31.45.08l8.14-7.43 2.16-2a2.34 2.34 0 0 1 3.26.37 1.32 1.32 0 0 1 .25 1q-1.17 6.91-2.32 13.83c0 .29-.15.39-.49.32-1-.19-2-.35-3.06-.51-.3-.05-.36-.15-.31-.4.47-2.79.93-5.58 1.4-8.37v-.12c0-.04.11-.25 0-.31s-.18.1-.26.17l-4.89 4.53c-1 .89-2 1.74-2.87 2.68a2.38 2.38 0 0 1-3.55-.6c-1.63-3.16-3.37-6.28-5.06-9.42 0-.07-.06-.19-.17-.17s-.11.14-.12.22l-1.4 8.43c-.08.46-.08.46-.59.37-1-.17-1.95-.34-2.93-.49-.28 0-.34-.15-.3-.38.4-2.36.79-4.72 1.19-7.07zM220.34 265q-.59 3.46-1.16 6.95c-.07.38-.08.38-.52.31l-3-.5c-.27 0-.32-.14-.29-.36.36-2.07.7-4.14 1-6.2.13-.82.27-1.63.41-2.44 0-.08.06-.18-.06-.22s-.13.06-.19.11l-6.5 6c-.5.46-1 .9-1.48 1.37a2.34 2.34 0 0 1-3.35-.6c-1.59-3-3.25-6.05-4.88-9.07-.1-.17-.19-.34-.28-.51s-.05-.14-.13-.14-.1.1-.11.17 0 .27-.06.4c-.46 2.73-.91 5.46-1.37 8.19-.06.38-.07.37-.51.3-1-.18-2-.35-3-.5-.3 0-.4-.13-.35-.41q1.16-6.86 2.3-13.71a1.52 1.52 0 0 1 1.5-1.37 2.24 2.24 0 0 1 2.21 1c1.11 2 2.2 4 3.3 6l3.44 6.31c.14.27.24.14.37 0l2.95-2.7c2.42-2.2 4.85-4.39 7.24-6.63a2.4 2.4 0 0 1 3.17 0 1.32 1.32 0 0 1 .45 1.21c-.4 2.31-.78 4.61-1.16 6.92zM253.49 270.64c.38-2.24.75-4.47 1.13-6.7a1.6 1.6 0 0 1 1.91-1.29c.72.09 1.45.23 2.17.35 2.37.39 4.75.78 7.13 1.19a12.61 12.61 0 0 1 6.36 3 6.88 6.88 0 0 1 2.51 6.52q-.6 3.66-1.22 7.32c-.07.41-.08.41-.53.34-1-.17-2-.34-3-.49-.29 0-.37-.15-.32-.4.19-1 .35-2.08.53-3.12.05-.27 0-.4-.34-.45l-12.77-2.14c-.28-.05-.36 0-.4.28-.16 1-.35 2.08-.51 3.12-.05.3-.17.38-.5.31-1-.18-2-.34-3-.5-.32 0-.44-.14-.38-.45.39-2.28.77-4.57 1.15-6.85zM264 273l6.37 1.07c.3 0 .43 0 .46-.28s.08-.52.12-.78a4.27 4.27 0 0 0-1.54-4.2 8.48 8.48 0 0 0-4-1.85c-2.25-.43-4.52-.78-6.77-1.17-.34-.06-.36.12-.4.33q-.44 2.69-.9 5.37c0 .29 0 .4.36.46zM191.25 260.22c-.38 2.28-.77 4.57-1.14 6.85-.05.3-.16.38-.49.32-1-.19-2-.35-3-.51-.29 0-.36-.14-.32-.4.19-1 .35-2.08.54-3.11.05-.3 0-.41-.37-.46l-12.67-2.12c-.31-.05-.44 0-.48.3-.16 1-.35 2.05-.5 3.09 0 .3-.17.37-.5.31-1-.18-1.95-.33-2.93-.5-.43-.07-.43-.07-.36-.47q.62-3.74 1.25-7.47a6.55 6.55 0 0 1 3.37-4.67 11.55 11.55 0 0 1 7-1.39c1.85.16 3.67.57 5.51.87 1.55.24 3.1.51 4.65.77a1.91 1.91 0 0 1 1.59 1.37 1.24 1.24 0 0 1 0 .47l-1.14 6.79zm-10.67-1.14c2.11.35 4.22.7 6.33 1.07.32.05.44 0 .48-.29.3-1.81.6-3.63.91-5.44 0-.26 0-.37-.33-.42q-3-.48-6-1a11.11 11.11 0 0 0-3.77 0 4.85 4.85 0 0 0-3.81 2.54 7.49 7.49 0 0 0-.52 2c-.07.4-.07.41.4.48zM153 261.25l-7-1.17c-.49-.08-.49-.08-.42-.5.25-1.48.5-3 .74-4.45.05-.28.15-.39.49-.32.84.16 1.68.29 2.52.42.31.05.41.17.35.45-.12.58-.2 1.17-.31 1.76 0 .23 0 .33.31.38l7 1.15c1 .17 2 .36 3.06.54a4.41 4.41 0 0 0 .73.08 1.08 1.08 0 0 0 1.24-.95q.94-5.58 1.86-11.15c0-.3.15-.4.51-.33 1 .18 2 .35 3 .5.3.05.38.15.33.42-.64 3.78-1.26 7.55-1.9 11.33a3.93 3.93 0 0 1-3.34 2.92 7.76 7.76 0 0 1-2.76 0l-6.41-1.08z" transform="translate(-.98 -.52)"/><path class="a7588556-6719-4524-8638-2f36cef4773e" d="m264 273-6.33-1c-.34-.06-.41-.17-.36-.46q.47-2.68.9-5.37c0-.21.06-.39.4-.33 2.25.39 4.52.74 6.77 1.17a8.48 8.48 0 0 1 4 1.85 4.27 4.27 0 0 1 1.54 4.2c0 .26-.1.52-.12.78s-.16.33-.46.28zM180.58 259.08l-6.3-1.06c-.47-.07-.47-.08-.4-.48a7.49 7.49 0 0 1 .52-2 4.85 4.85 0 0 1 3.81-2.54 11.11 11.11 0 0 1 3.77 0q3 .51 6 1c.31.05.38.16.33.42-.31 1.81-.61 3.63-.91 5.44 0 .29-.16.34-.48.29-2.11-.37-4.22-.72-6.33-1.07z" transform="translate(-.98 -.52)"/></g><g id="b45a90a9-e02e-413b-896e-f0062b331e37" data-name="e50cf8b7-f606-4fcd-ab06-4676f20d821c"><path d="M78.54 94.74A33.75 33.75 0 0 1 76 85.05a9.55 9.55 0 0 1-.19-2v-2a1.29 1.29 0 0 1 1.58.11 2.58 2.58 0 0 1 .53 1.5 107.78 107.78 0 0 0 2.27 11.08c-.19.86-.58 1.4-1.62 1z" transform="translate(-.98 -.52)" style="fill:#e5a616"/><path d="M77.3 81.28 75.75 81c0-.91.14-1.8.13-2.71.06-.71.06-1.24.17-2a27 27 0 0 1 1.43-6.82 1.17 1.17 0 0 1 1.31.16c.35 2.43-.6 4.49-.83 6.75-.14 1.61.44 3.48-.66 4.81z" transform="translate(-.98 -.52)" style="fill:#eab616"/><path d="M103.06 47.68c10.84-1.88 21.18 1.22 31 8.37a46.6 46.6 0 0 1 16.49 22.08.86.86 0 0 1-1.09 0c-1.38-1.94-2.08-4.14-3.13-6.21a37.46 37.46 0 0 0-5.66-8.33 12.86 12.86 0 0 0-2.76-2.8 29.23 29.23 0 0 0-7.49-5.92c.26.69 1.25 1.14.74 2-.72.28-1.24-.31-1.81-.7a17.65 17.65 0 0 0-3.9-2.62 8.62 8.62 0 0 0-2.49-1.1 29.56 29.56 0 0 0-17.07-2.63 9.3 9.3 0 0 0-2.48.37 15.91 15.91 0 0 0-3.93 1.16c-.65.18-1.13.7-1.82.83a.76.76 0 0 1-.47-.3c-.14-1.72 1.5-2 2.19-3 1.12-.66 2.53-.63 3.71-1.14z" transform="translate(-.98 -.52)" style="fill:#f8ca08"/><path d="M130.17 124.46c-2.95 1.37-6.3 1.53-9.65 1.55a40 40 0 0 1-20.91-6c-.36-.94.34-.9.86-1 .69-.09 1.41.15 2.11.11a16.77 16.77 0 0 1 2.74.72c.58.26 1.18.45 1.76.68a34.61 34.61 0 0 0 4.78 1.47 7.27 7.27 0 0 0 2.38.61l.6.09a8.92 8.92 0 0 0 3 .23 38 38 0 0 0 6.41-.15 8.26 8.26 0 0 1 2.49-.13c1.13.58 2.63.21 3.41 1.74z" transform="translate(-.98 -.52)" style="fill:#f9f207"/><path d="M78.54 94.74c.52-.2 1.18-.23 1.2-1 .9.08 1 .87 1.22 1.45a45.54 45.54 0 0 0 12.26 17.11c.47.41 1 .79 1.07 1.46-.51 1.09-1.46 1-2.49.56a44.42 44.42 0 0 1-13.26-19.58z" transform="translate(-.98 -.52)" style="fill:#e49a17"/><path d="M150.69 105.89a28.21 28.21 0 0 1-11.61 14.55c-.89.35-1.72-.12-2.58-.57-.62-.83.13-1.05.51-1.28a30.56 30.56 0 0 0 11.4-13 1.15 1.15 0 0 1 .92-.78 1.65 1.65 0 0 1 1.36 1.08z" transform="translate(-.98 -.52)" style="fill:#e39917"/><path d="M103.06 47.68c-.87 1-2.59.47-3.45 1.47-3 1.5-6.42 2.45-9 4.63a10 10 0 0 0-3.9 3.48 1.12 1.12 0 0 1-.32.33 3 3 0 0 0-1.12 1.1 2.79 2.79 0 0 1-.3.38 24.42 24.42 0 0 0-3.49 5.28c-.61 1.26-1.12 2.56-1.63 3.86-.23.61-.33 1.35-1.07 1.57l-1.22-.22c4-12.24 12.42-19.41 25-21.94a2 2 0 0 1 .5.06z" transform="translate(-.98 -.52)" style="fill:#f0cc12"/><path d="m150.69 105.89-1.22-1a1.61 1.61 0 0 1-.18-1.66 37 37 0 0 0 2-12.62 1.54 1.54 0 0 1 .2-.71c.4-.53.73-.22 1 .28.31.67.44 1.39.81 2V93c-.33.86.1 1.92-.27 2.77a24.31 24.31 0 0 1-2.3 10.09z" transform="translate(-.98 -.52)" style="fill:#e5a615"/><path class="a6dced98-4a80-495d-be48-e7973db35514" d="M153.26 92.22c-1.33-.46-.86-1.76-1.44-2.57-.94-1.19-.61-2.54-.89-3.79-.46-2-.77-4-1.38-6-.19-.63-.48-1.29-.06-1.85l1 .16a39 39 0 0 1 2.77 14.05z" transform="translate(-.98 -.52)"/><path d="M130.17 124.46a18.68 18.68 0 0 0-3.48-1.28.38.38 0 0 1 0-.51c1.79-.57 3.5-1.39 5.57-1.22 1 .45 2.14.16 3 1.16a11.62 11.62 0 0 1-5.09 1.85z" transform="translate(-.98 -.52)" style="fill:#f1d30e"/><path d="M91.8 114.31a7.22 7.22 0 0 0 2.37-.44c2.24.55 3.88 2.29 5.74 3.59.25.17.14.46-.09.61-1.34.44-2.71-.25-4.07-.54a19.61 19.61 0 0 1-3.95-3.22z" transform="translate(-.98 -.52)" style="fill:#edbd15"/><path d="M135.28 122.6c-1-.39-2.21.06-3.17-.94.89-1.59 2.41-2.08 4.24-2a8.24 8.24 0 0 1 2.73.81 10.61 10.61 0 0 1-3.8 2.16z" transform="translate(-.98 -.52)" style="fill:#e8b016"/><path d="M95.75 117.53c1.37-.44 2.83.3 4.24.35 1-.38 1.81.5 2.66 1a.41.41 0 0 1 0 .53c-.77 1-2.46-.8-3.09.6a20.42 20.42 0 0 1-3.81-2.48z" transform="translate(-.98 -.52)" style="fill:#f3db0c"/><path class="a6dced98-4a80-495d-be48-e7973db35514" d="M153 95.8c.06-.93-.33-2 .27-2.77a5 5 0 0 1-.27 2.77z" transform="translate(-.98 -.52)"/><path class="e2a70b1b-f7d3-40b5-aedc-087eb0b87617" d="M102.69 119.1c-1 0-1.75-1-2.7-1.22l-5.82-4-3.27-3.18a45 45 0 0 1-10.71-16.3 3.34 3.34 0 0 0-.45-.68 56.53 56.53 0 0 1-2.42-12.44 37.53 37.53 0 0 1 1.41-11.51 31.82 31.82 0 0 1 2.39-5.84c.6 0 .63.49.73.9a2.44 2.44 0 0 1 0 .61 33.54 33.54 0 0 0-2.26 8.19 42 42 0 0 0 2 17.91 46.78 46.78 0 0 0 3.07 6.88l1.56 2.41c.57 1.06 1.43 1.94 2 3a37.55 37.55 0 0 0 3.17 3.61 47.53 47.53 0 0 0 10.61 7.89 2.71 2.71 0 0 1 1.26 1 4.5 4.5 0 0 1-.57 2.77z" transform="translate(-.98 -.52)"/><path class="b4a64cb1-8f80-4667-8bc9-070299a69613" d="M131 56.84c0-1.26-1.76-1.57-1.76-3.25 3.17 2.27 6.56 3.72 8.79 7a31.46 31.46 0 0 1 2.97 3.16c.79 1 2 1.87 2.16 3.26.2 2.18.86 4.33 1 6.52.68 9.39-1.91 17.11-8.12 23.08a22.73 22.73 0 0 1-6.71 4.46c-1.7.75-2.4.28-2.46-1.65 0-1.29-.28-2.66.29-3.79 5.69-2.36 9-7 10.77-12.84a22.41 22.41 0 0 0 .38-13 6 6 0 0 0-1.13-2.61 2.5 2.5 0 0 1-.39-.47 19.06 19.06 0 0 1-.88-2.39 8.91 8.91 0 0 0-.78-1.69c-.27-.45-.52-.91-.81-1.33a15.85 15.85 0 0 0-1.19-1.41c-.59-.71-1.2-1.38-1.78-2.1a1.25 1.25 0 0 1-.31-1z" transform="translate(-.98 -.52)"/><path class="e2a70b1b-f7d3-40b5-aedc-087eb0b87617" d="m136.35 119.63-4.24 2.05c-1.85.28-3.47 1.2-5.42 1.18-.14-1-.78-1.93-.53-2.92a3.49 3.49 0 0 1 1.64-.73c5.06-1.34 9.58-3.52 13-7.36a4.52 4.52 0 0 1 .86-.65 15.74 15.74 0 0 0 2.85-3.39c1.21-1.35 1.64-3.23 2.65-4.72a28.41 28.41 0 0 0 1.85-5.59 33.56 33.56 0 0 0 .6-11.13c.13-2.54-.8-5-1.35-7.53-.41-2.31-1.86-4.41-2.25-6.73.06-.3.18-.54.58-.4l2.87 6.29a42.27 42.27 0 0 1 2.33 11.7 42.32 42.32 0 0 1-2.34 15.23c-1.59 2.24-2.55 4.92-4.3 7.06a35 35 0 0 1-8.8 7.66z" transform="translate(-.98 -.52)"/><path d="M125.63 53.19a13.25 13.25 0 0 1 3.88 2.59c-.19 1.39-1.34 1-2.24.88-5-.55-10-1.47-15-2.26-3.54-.55-7.07-.93-10.61-1.64-1-.19-2.16-.18-2.36-1.71 1-1 2.54-1 3.88-1.33q11.24 1.26 22.5 3.47z" transform="translate(-.98 -.52)" style="fill:#fbf9c0"/><path d="M131.51 57.54a9 9 0 0 1 2 2.3c-.85.71-1.93.33-2.94.19-5.56-.79-11.12-1.79-16.68-2.49a3.73 3.73 0 0 1-1.9-.44c-2.4-1.21-4.72-.73-7.07-.85A51.46 51.46 0 0 0 98.44 55a4.94 4.94 0 0 1-2.6-.86c-.57-1.57.41-1.91 1.49-2.17h.38a20.26 20.26 0 0 0 8.53 1.68 16.37 16.37 0 0 1 3 .11c6.39 1.27 12.8 2.27 19.2 3.58 1.09.28 2.03-.17 3.07.2z" transform="translate(-.98 -.52)" style="fill:#fbf88e"/><path d="M131.51 57.54c-1.82 1.43-4 0-6-.33-2.21-.4-4.4-.57-6.58-.82-1.2-.13-2.17-1.11-3.12-1.1-2.72 0-5.53-1.44-8.07-1.1-2.81.38-5.55-.76-8.29-.78-.77 0-1.81 0-1.73-1.37.36-.55.71-1.12 1.55-1 .38.87 1.11.94 1.82 1l27.19 4.19a1.07 1.07 0 0 0 1.26-.52l1.56 1.06z" transform="translate(-.98 -.52)" style="fill:#fbf9a4"/><path d="m97.31 52-1.63 1.58c-.15.85-.9 1.25-1.26 1.93-.31.38-.57.79-.87 1.18a2 2 0 0 1-1.11.7c-1.38-.21-2.64.54-4.08-.1a1.83 1.83 0 0 1-.36-1.47 5.14 5.14 0 0 1 2.31-2.21c2.52-2.5 5.76-3.71 9.3-4.45-.54 1.16-2.2 1.32-2.31 2.84z" transform="translate(-.98 -.52)" style="fill:#f3c40d"/><path d="M105.45 49.31a28.65 28.65 0 0 1 17.85 2.74c-.16.93-.93.61-1.51.52q-7.41-1.09-14.82-2.28c-.58-.11-1.35-.01-1.52-.98z" transform="translate(-.98 -.52)" style="fill:#fdfce7"/><path d="M105.45 49.31a1.62 1.62 0 0 0 1.24.55l15.37 2.36c.45.07.91.18 1.24-.18a5.32 5.32 0 0 1 2.33 1.15c-.4.41-.94.22-1.45.14l-19.62-3c-.52-.08-1 0-1.45-.57a5.09 5.09 0 0 1 2.34-.45z" transform="translate(-.98 -.52)" style="fill:#fbfada"/><path d="m146.65 71.71-.37.33c-2-1.28-2.42-3.46-3.48-5.25-.21-1.27-1.48-1.92-2-3-.13-.12-.16-.22-.12-.31s.08-.13.12-.12a31.92 31.92 0 0 1 5.85 8.35z" transform="translate(-.98 -.52)" style="fill:#bf8312"/><path d="M140.83 63.3v.43a14.82 14.82 0 0 1-2.74-3.17c1.31.49 1.95 1.68 2.74 2.74z" transform="translate(-.98 -.52)" style="fill:#d39f11"/><path d="M124.39 123.26a16.89 16.89 0 0 1-6.58.12 1.37 1.37 0 0 1-1.1 0 .58.58 0 0 1-.17-.52c.49-.52 1.25-.39 1.9-.46a5.73 5.73 0 0 0 3.87-2 4.88 4.88 0 0 1 2.31-.49 1.36 1.36 0 0 1 .52.24c.6 1.4-.28 2.2-.75 3.16z" transform="translate(-.98 -.52)" style="fill:#ecb522"/><path d="M116.63 122.8v.38c-.58.38-1.36-.29-1.94.08l-.38-.06c-.73-.58-1.61-.17-2.34-.71a13.47 13.47 0 0 1-5.06-1.54c-1-1-2.11-2-1.11-3.44a2.32 2.32 0 0 1 1.71.7c1.63 2.53 4.15 3 6.55 3.66.87.24 1.82.07 2.56.93z" transform="translate(-.98 -.52)" style="fill:#efba23"/><path d="M124.39 123.26c-.23-1.19.72-1.91.76-3 .3-.38.63-.63 1.17-.17.12.92 1.25 1.84.37 2.74a1.93 1.93 0 0 1 0 .34z" transform="translate(-.98 -.52)" style="fill:#c98715"/><path d="M102.69 119.1a3.88 3.88 0 0 1 .36-2.62c.46-.28.85.06 1.24.33a8.76 8.76 0 0 1 1.13 3.52c-.91-.28-1.88-.16-2.72-.88 0-.12 0-.24-.01-.35z" transform="translate(-.98 -.52)" style="fill:#c68514"/><path d="M105.43 120.33a6 6 0 0 1-1.2-3.31.64.64 0 0 1 .45-.19 1.5 1.5 0 0 1 1.1.81c-.3 1.26.77 2.2 1.16 3.31-.52-.19-1.12 0-1.51-.62z" transform="translate(-.98 -.52)" style="fill:#dfa21e"/><path class="a37b7e28-a2b1-41c6-b437-61ac0f9d9c99" d="M114.7 123.26c.54-.54 1.29-.08 1.94-.08l1.17.18c-.96.64-2.08-.05-3.11-.1zm-2.72-.77c.78.2 1.64-.07 2.34.71-.78-.2-1.64.05-2.32-.71z" transform="translate(-.98 -.52)"/><path d="M88.4 55.65v1.57c0 1.06-.83 1.41-1.35 2a4.84 4.84 0 0 0-1 2.11c-1.84 6.78-.45 13.67 2.73 20.48a34.29 34.29 0 0 0 10.41 12.66A5.15 5.15 0 0 1 100.9 96a3.72 3.72 0 0 1 0 2.82c-.89.75-1.7-.07-2.43-.61A40.84 40.84 0 0 1 83.4 77.26c-1.27-4-2.21-8.07-1.89-12.1v-.39c.5-2.5 2.1-4.22 3.44-6.14.38-.46.82-.92 1.19-1.38a1.26 1.26 0 0 1 .33 0c.39-.82.69-1.77 1.93-1.65z" transform="translate(-.98 -.52)" style="fill:#ebae11"/><path class="eca782d4-fc8e-46b1-82fa-64694e0e309f" d="m84.92 58.63-3.43 6.13a.94.94 0 0 0-.37-.82c1.05-1.94 1.99-3.94 3.8-5.31z" transform="translate(-.98 -.52)"/><path d="M88.4 55.65c-.9.27-1.26 1.16-2 1.66-.53-.88.17-1.13.61-1.44 1.08-.76 1.74-2.1 3.26-2.26-.59.68-1.27 1.39-1.87 2.04z" transform="translate(-.98 -.52)" style="fill:#cf9912"/><path class="eca782d4-fc8e-46b1-82fa-64694e0e309f" d="M86.12 57.24a1.59 1.59 0 0 1-1.2 1.39 1.57 1.57 0 0 1 1.2-1.39z" transform="translate(-.98 -.52)"/><path d="M81.29 92.05A30.7 30.7 0 0 1 78.9 80.8c0-2.49-.49-5.1.31-7.43.89 1.54 1 3.22 1.46 4.82 3.16 10.1 9.48 17.8 18.5 23.48.68.43 1.51.68 1.86 1.56a8.1 8.1 0 0 1 .23 2.71c-.05 2.47-.62 2.89-3.15 2.35-2.84-2.44-6-4.37-8.82-6.9a49.85 49.85 0 0 1-8-9.34z" transform="translate(-.98 -.52)" style="fill:#e39419"/><path d="M100.66 102.82a28.55 28.55 0 0 1-8.61-5.94 41.78 41.78 0 0 1-12.72-21.75 11.7 11.7 0 0 1-.14-1.76 20.12 20.12 0 0 1 2.29-8.22c.78 1.69.48 3.35.72 5a41.71 41.71 0 0 0 7.29 18.36 35.23 35.23 0 0 0 11.12 10.39 3.27 3.27 0 0 1 0 3.91z" transform="translate(-.98 -.52)" style="fill:#e8a613"/><path d="M87.9 104c-.62-1-1.67-1.82-2-3 .76-.49 1.31.2 1.87.66 1.19.91 2.32 1.92 3.51 2.84q.23.16.45.36a10.63 10.63 0 0 0 3.27 2.03 7.12 7.12 0 0 1 2.59 1.58l.48.32a13.12 13.12 0 0 1 1.9.82 48.63 48.63 0 0 0 17.03 4.72 57 57 0 0 0 12.79-.67 1.53 1.53 0 0 1 .61.24c.68.92 0 1.33-.42 1.81a2.51 2.51 0 0 1-1.6.42 6.11 6.11 0 0 0-1.82.33 3.36 3.36 0 0 1-.84 0 43.29 43.29 0 0 0-7.31.29 49.67 49.67 0 0 1-19.41-5.3A67.28 67.28 0 0 1 87.9 104z" transform="translate(-.98 -.52)" style="fill:#f2d00b"/><path d="m125.89 116.06.78.12c.51-.19 1.12-.16 1.54-.53a2.5 2.5 0 0 0 1.56-.15c.68-.28 1.2-.81 1.87-1.12a3.07 3.07 0 0 1 .52-.14c1.07-.07 1.93-.9 3.16-.46a.68.68 0 0 1 .37.49c-.2.93-1.06 1.06-1.78 1.34-4.06 1.54-8.51 1.89-12.92 2.4-3.82-.88-7.65-1.35-11.48-2A39.66 39.66 0 0 1 91.94 108a2.28 2.28 0 0 0-.91-.45 26.26 26.26 0 0 1-3.12-3.55c.39-.53.73-.08 1.1.23a50.25 50.25 0 0 0 27.61 12c.64.07 1.28.2 1.92.3a52.58 52.58 0 0 0 7.35-.42z" transform="translate(-.98 -.52)" style="fill:#f5e209"/><path d="M97.62 108.94c-1-.38-1.6-1.55-2.73-1.57-1.07-1-2.38-1.59-3.5-2.48-2.32-2.07-4.72-4-7-6.15A31.69 31.69 0 0 1 81.25 92c2 1.43 3.13 3.65 4.77 5.43a54.63 54.63 0 0 0 9.87 8.44c.71.48 1.64.77 1.69 1.88a.83.83 0 0 1 0 1.15z" transform="translate(-.98 -.52)" style="fill:#e9b213"/><path class="ae695d37-7618-4297-83e2-5b68830fd93d" d="M91 107.54c1.8.13 3.08 1.59 4.58 2.47 4.37 2.54 8.81 4.78 13.63 5.43.06.9-.66.94-1.24.94a15.29 15.29 0 0 0-3.39.65h-.4l-1.17-.54A45.85 45.85 0 0 1 91 107.54z" transform="translate(-.98 -.52)"/><path class="b15be689-db20-4a71-87d5-635da2fa2f38" d="M84.41 98.74c.16-.21.45-.34.63-.12 1.88 2.35 4.57 3.84 6.37 6.27-1.43-.64-2.44-1.9-3.7-2.79-.59-.41-1-1.13-1.84-1.16z" transform="translate(-.98 -.52)"/><path d="M142.8 66.74c1.7 1.44 2.09 3.65 3.48 5.25.83 2.2 2.09 4.3 2.37 6.62a39.08 39.08 0 0 1-5.06 16.08 25.38 25.38 0 0 1-9.41 8.94 1.89 1.89 0 0 1-2.31.13c-1.13-.6-.89.51-1.07.92-.56 1.29-.86 2.74-2.06 3.56-1 .71-2 .34-2.07-1a94.07 94.07 0 0 1 0-14.54c0-.12.13-.2.21-.29a.52.52 0 0 1 .62.18 2.63 2.63 0 0 1-.14 3v4.28c0 1.09.44 1.32 1.28.93a24.74 24.74 0 0 0 11.11-9.52A32 32 0 0 0 144 77.4c.25-2.73-.43-5.58-1-8.39-.21-.75-.62-1.56-.2-2.27z" transform="translate(-.98 -.52)" style="fill:#e8a713"/><path d="M127.37 95.64v-3.13a1.72 1.72 0 0 1-.22-1.89c.74-.73 1.76-.31 2.69-.21s1.64 0 1.48-1.23a3.83 3.83 0 0 1 1.06-2.27 20.18 20.18 0 0 0 3.7-9.49 8.68 8.68 0 0 0-.16-2.53c.47-2.31 1.19-4.53 1-7.07a1.61 1.61 0 0 1 .49-1.12c1.08.69 1.19 1.86 1.46 2.84a23.63 23.63 0 0 1-1.57 16.58c-1.78 3.87-4.12 7.28-8.11 9.09-.57.29-1 .65-1.76.43z" transform="translate(-.98 -.52)" style="fill:#f6c509"/><path d="M136.19 64.17a4.52 4.52 0 0 1 .77 2.47 1.23 1.23 0 0 1-1.2.34c-5.71-1.11-11.44-1.35-17.16-2.87-.87-.8-1.32-1.63-.53-2.54a3.1 3.1 0 0 1 1.69-.11c5.1.74 10.2 1.57 15.3 2.35a5.3 5.3 0 0 1 1.13.36z" transform="translate(-.98 -.52)" style="fill:#faf42f"/><path d="M113.58 57.26c.58-.67 1.42-.23 2.16-.13 5.93.89 11.87 1.81 17.8 2.71a3.38 3.38 0 0 1 1.08 1.35c-.24 1.16-1.23.77-2 .66-5.52-.85-11-1.61-16.56-2.55-1.1-.32-2.12-.72-2.49-2z" transform="translate(-.98 -.52)" style="fill:#fbf776"/><path d="M136.19 64.17c-.56.56-1.32.19-2 .09Q126 63 117.8 61.79c-1-.39-1.13-1-.69-1.76a2 2 0 0 1 1.62-.27c5.3.81 10.6 1.59 15.9 2.45a3.17 3.17 0 0 1 .76.28 2.82 2.82 0 0 1 .8 1.68z" transform="translate(-.98 -.52)" style="fill:#f9f347"/><path d="M135.39 62.5a3.78 3.78 0 0 1-2.26 0l-13.94-2.1c-.73-.12-1.55-.54-2.13.19a2.16 2.16 0 0 1-1.64-1.89c5.74.89 11.47 1.73 17.2 2.57.68.11 1.43.48 2-.08z" transform="translate(-.98 -.52)" style="fill:#f8f45c"/><path d="m118.7 63.84 18.63 2.87v1.17a2.19 2.19 0 0 1-1.78.31c-5.15-.88-10.29-1.49-15.44-2.38a3.32 3.32 0 0 1-.94-.34c-.69-.48-.92-1-.47-1.63z" transform="translate(-.98 -.52)" style="fill:#f8f115"/><path d="M150.21 86.29a28.63 28.63 0 0 1-.77 11.6 34.15 34.15 0 0 1-16.78 13.89c-.62.24-1.37-.22-2 .06a3 3 0 0 0-.33.28c-.25.35-.21.91-.65 1.12-.77-.4-1.7-.09-2.37-.88 1.33-2 2.25-4.29 3.84-6.1a2.38 2.38 0 0 0 2.35-.15 29.29 29.29 0 0 0 14.7-16.67c.44-1.2.37-2.81 2-3.15z" transform="translate(-.98 -.52)" style="fill:#e3941a"/><path d="M150.21 86.29c-1.28 1.42-1.48 3.43-2.25 5.16a30 30 0 0 1-7.22 10.23 25 25 0 0 1-7.63 5.19c-.63.24-1.49 1-1.89-.59-.41-1.14-.37-2.07.72-2.55 3-.43 5.07-2.44 7.12-4.29 3.72-3.33 5.89-7.83 7.52-12.68a41.57 41.57 0 0 0 1.26-6.45c.12-.69 0-1.46.8-1.69a21 21 0 0 1 1.57 7.67z" transform="translate(-.98 -.52)" style="fill:#e59b15"/><path class="ae695d37-7618-4297-83e2-5b68830fd93d" d="M121.25 117.68c3-.92 6.24-.69 9.19-1.61 1.77-.54 3.7-.77 5.12-2 1.63-1.27 3.62-2 5.41-3 .32-.18.9-.52 1.11.39a26.67 26.67 0 0 1-12.08 7.65c-1.21.37-2.47.66-3.7 1l-1.17.16-.41-.11c-1.23-.73-2.61-1.18-3.49-2.47z" transform="translate(-.98 -.52)"/><path d="M132.43 111.69c.63-1.29 2.13-1.24 3.21-1.81a32.78 32.78 0 0 0 12.18-10.48c.41-.61.65-1.46 1.62-1.51a16.21 16.21 0 0 1-1.91 5.53 5.29 5.29 0 0 0-1.79 1.73c-2.85 3.44-6.71 5.51-10.65 7.49a2.14 2.14 0 0 1-2.18.07 1 1 0 0 1-.48-1.02z" transform="translate(-.98 -.52)" style="fill:#eab313"/><path d="M132.89 112.48c2.88-.08 4.8-1.92 7.07-3.14 2.67-1.42 4.49-3.76 6.68-5.69.21-.19.39-.71.89-.23-.93 1.55-1.3 3.46-2.66 4.71-2.28.92-3.86 2.83-6 3.89-1 .5-2 .88-2.92 1.38a1.54 1.54 0 0 1-.46.19c-1.07-.11-1.82.83-3 .49a.88.88 0 0 1-.21-.52 1.22 1.22 0 0 1 .61-1.08z" transform="translate(-.98 -.52)" style="fill:#f1cb0d"/><path d="m138.66 111.81 5.25-3.88a.58.58 0 0 1 1 .21 10.57 10.57 0 0 1-2.79 3.33c-1.47-.2-2.24 1-3.4 1.38s-1.86 1.24-3.1 1.22l-.39-.06c-.25-.49.17-.54.38-.72a18.28 18.28 0 0 0 3.09-1.48z" transform="translate(-.98 -.52)" style="fill:#f4df09"/><path d="M118.7 63.84a1.9 1.9 0 0 0 .3 1.26c1 1.22.64 2.45.46 3.61-.87 5.52-6.12 8.56-11.73 6.79l-.49-.16a12.3 12.3 0 0 1-7.7-14.24 12.12 12.12 0 0 1 1-1.94c.29-.41.61-.8.89-1.21a7.52 7.52 0 0 1 1.66-1.42 3.9 3.9 0 0 1 2.1-.6 11.61 11.61 0 0 1 8.44 1.36l1.84 1.43 1.63 1.89.75 1.2z" transform="translate(-.98 -.52)"/><path d="m105.15 55.89-1.9.9a16.2 16.2 0 0 1-9.11-1.45 3 3 0 0 1 1.54-1.77c.82 1 1.84.63 2.76.87 2.24.56 4.56.29 6.71 1.45z" transform="translate(-.98 -.52)" style="fill:#faf774"/><path d="m101.64 58.18-.76 1c-.9.57-2 .22-3 0s-1.24.07-.88 1.11a10 10 0 0 1 .48 6.36 3.85 3.85 0 0 1-3.77 2.94A1.9 1.9 0 0 1 93 69c-.24-.36-.48-.72-.19-1.07 4.17-1.41 4.63-5.43 1-8.93a5.09 5.09 0 0 1-1.23-1.42.49.49 0 0 1 .1-.51l.73-.67a1.35 1.35 0 0 1 1.34-.38c1.79.22 3.59.55 5.38.91.61.11 1.52.09 1.52 1.21z" transform="translate(-.98 -.52)" style="fill:#f9f348"/><path d="M92.67 57.11v.41c.06.38-.16.53-.44.63-3.66.24-5.32 1.74-5.23 4.7a5.55 5.55 0 0 0 4.28 5.25 3.77 3.77 0 0 1 1.83.81l.4.44a1 1 0 0 1-.08.25c-.68.8-1.62.44-2.53.2a10.34 10.34 0 0 1-2.73-1.43 6.56 6.56 0 0 1-2.46-7.24c0-2 1.68-2.68 2.69-3.89 1.41-.16 2.76-.6 4.27-.13z" transform="translate(-.98 -.52)" style="fill:#f4c627"/><path d="M101.64 58.18c-1.71-1.31-3.63-.9-5.42-1.36a5.47 5.47 0 0 0-2.82-.38 1.15 1.15 0 0 1 .74-1.06l9.11 1.45z" transform="translate(-.98 -.52)" style="fill:#f8f45d"/><path d="M121.25 117.68c1.17.8 2.66 1.09 3.49 2.47l-2.3.45c-2.8 1.22-5.55 2.27-9.09 1.24-2.36-.69-4.09-2.23-6-3.57l-1.55-.62-1.15-.62a2.56 2.56 0 0 1 2.58-1.11 2.5 2.5 0 0 0 2.06-.48c4 .72 8 1 12 2.24z" transform="translate(-.98 -.52)" style="fill:#faf711"/><path class="a37b7e28-a2b1-41c6-b437-61ac0f9d9c99" d="M107.32 118.27a7.88 7.88 0 0 1 3.27 1.92c1.53 1.63 7.2 2.21 8.65 1 .92-.79 2.17-.27 3.19-.55-1.19 2.24-3.43 2.36-5.8 2.2a20.18 20.18 0 0 1-7-1.92c-1.06-.6-2.18-1.21-2.31-2.65z" transform="translate(-.98 -.52)"/><path d="M132 103.73a5.8 5.8 0 0 0-.73 2.55c-1 2.24-1.9 4.57-4 6-.8 1.18-2.12 1.26-3.5 1.23-7.33-1-14.66-2.22-22-3.4a20.85 20.85 0 0 1-4.14-1.23v-1.08c3.17.16 3.17.16 3.14-3.24 0-.57-.07-1.17-.1-1.75v-7c-1-1.59-.48-3.14-.57-4.71 0-1.21-.07-2.42 0-3.61-.08-2.14-.08-4.26-.07-6.37 0-2.9.43-3.18 3.3-2.1a12.24 12.24 0 0 0 3 .73 43.74 43.74 0 0 0 4.92.53 2 2 0 0 1 2.26 2 9.39 9.39 0 0 0 .39 3.27c.94-1.55.12-3.64.71-5.27a1.38 1.38 0 0 1 1-.71c4.79-1.35 7.88-4.58 10.07-8.91.25-.48.11-1.75 1.39-1.05a4.36 4.36 0 0 1 .38 2.53q0 6.74.12 13.47c0 2.21.09 2.27 2.25 2.81a3.46 3.46 0 0 1 1.81.86c.75 1.34.67 2.09-1 1.78-1.07-.19-2.16-.29-3.23-.43-.46.51 0 1.31-.31 1.86v14.56c0 .45 0 1 .44 1.25s.81-.15 1.1-.46c1.18-1.26 1.54-3 2.12-4.61.15-.42-.08-1.41.88-1s.26 1 .37 1.55z" transform="translate(-.98 -.52)"/><path d="M100.6 91.12v4.7c-4.51-2.42-7.6-6.34-10.42-10.53-3.09-4.62-4.39-9.63-5.26-14.81a22 22 0 0 1 .79-9.36 8.17 8.17 0 0 0 2.75 7.07A2.84 2.84 0 0 1 89 70.1c.15 5.48 2.57 10.35 5.86 15a26.68 26.68 0 0 0 5.75 6z" transform="translate(-.98 -.52)" style="fill:#f1ba0f"/><path d="m124.33 113.14 3-.83c.76.48 1.77-.28 2.41.84a.82.82 0 0 1 .58.46.31.31 0 0 1-.15.39c-5.41 1.55-11.15 1.26-17 .5-4.35-.58-8.53-2.3-12.73-4a1.74 1.74 0 0 1-.87-.84c3.61-.09 7.15 1 10.67 2.22a20.54 20.54 0 0 0 7.86 1.22c2.07-.16 4.17 0 6.26 0z" transform="translate(-.98 -.52)" style="fill:#ebb713"/><path d="M124.33 113.14c-4 .65-8.13 1.16-12.33-.11a52.89 52.89 0 0 1-6.53-2.22c-1.84-.83-3.94-.78-5.94-1.13-.63-.24-1.4.07-1.89-.76z" transform="translate(-.98 -.52)" style="fill:#dd9c14"/><path class="b5cdeec1-acbb-48a7-b39d-d21f3537d3c0" d="M125.89 116.06c-2.27 1-4.79.82-7.35.43a21.21 21.21 0 0 1 7.35-.43z" transform="translate(-.98 -.52)"/><path class="b15be689-db20-4a71-87d5-635da2fa2f38" d="M91.4 104.89a6.89 6.89 0 0 1 3.5 2.48 8.32 8.32 0 0 1-3.5-2.48z" transform="translate(-.98 -.52)"/><path class="b5cdeec1-acbb-48a7-b39d-d21f3537d3c0" d="M131.7 114.69a2.16 2.16 0 0 1-1.94.8c.21-.48.79-.72.79-1.36l.17-.13a1.1 1.1 0 0 1 .98.69z" transform="translate(-.98 -.52)"/><path d="M130.12 114v-.31a2.42 2.42 0 0 1 0-2c.32-.13.49.07.65.35a4.78 4.78 0 0 1 .32 1.33.75.75 0 0 1-.54.75v.07z" transform="translate(-.98 -.52)" style="fill:#d09a16"/><path class="b5cdeec1-acbb-48a7-b39d-d21f3537d3c0" d="M128.21 115.65c-.29.66-.88.67-1.54.53a1.78 1.78 0 0 1 1.54-.53z" transform="translate(-.98 -.52)"/><path d="m130.55 114.08.37-.59a1.57 1.57 0 0 1 .79-1.09c1.46-.17.87.66.74 1.28a.79.79 0 0 1 .05.3.89.89 0 0 1-.44.7 1.09 1.09 0 0 0-.36 0z" transform="translate(-.98 -.52)" style="fill:#daad10"/><path class="b5cdeec1-acbb-48a7-b39d-d21f3537d3c0" d="M132.06 114.68c0-.32.09-.62.44-.7l3.06-.7-.38.72z" transform="translate(-.98 -.52)"/><path class="b4a64cb1-8f80-4667-8bc9-070299a69613" d="M127 92.47c.06-.63-.45-1.45.31-1.86v1.92z" transform="translate(-.98 -.52)"/><path d="M113 82.49c.13-1.49-.47-1.87-1.89-1.69a10.89 10.89 0 0 1-4.74-.47 24.78 24.78 0 0 1-11.13-7.79c-.77-.92-1.74-1.83-1.72-3.17 1.51-.4 3-.9 3.48-2.6.77-1.31.6-2.85.41-4.42-.08-.64-.65-1.54.15-1.92A2 2 0 0 1 100 61c-1.12 5.48.93 10.3 5.5 13 4.94 2.92 10.67 1.52 12.78-3.13a9 9 0 0 0 .79-3.8c0-.65 0-1.3-.07-2l18.29 2.79a14.65 14.65 0 0 1-1.13 7.25c-1.38 3.57-4.45 5.22-7.71 6.61-1 .42-1.38-.21-1.38-1.26v-9.55c0-.48.46-1.21-.53-1.54C124.58 75 121 78.85 115 80.08c-.59.44-.25 1.14-.27 1.73-.1 1.37-.71 1.44-1.75.68z" transform="translate(-.98 -.52)" style="fill:#f9f204"/><path class="b18a8d8d-d78d-4d91-ae10-ea5633fcd941" d="M126.51 69.41c0-.17 0-.45.15-.5.44-.18.56.18.57.52v2.71c0 2.66.06 5.32 0 8 0 1.45.34 1.48 1.5 1 3.1-1.28 5.31-3.55 7.41-6 1.09 3-.24 5.36-1 7.86s-2.57 4-3.57 6.27c-4.63-.41-4.62-.41-4.65-5v-13c-.06-.61.26-1.27-.41-1.86z" transform="translate(-.98 -.52)"/><path d="M132.45 113.68c-.16-.41.37-1.33-.78-1-.51.21-.79-.22-1.11-.55l-.44-.48c.63-1 1.48-.37 2.31 0l.46.79c-.05.5.17 1.05-.44 1.24z" transform="translate(-.98 -.52)" style="fill:#725612"/><path d="M130.14 111.65v2l-.47-.53c.21-.45-.22-1.23.47-1.47z" transform="translate(-.98 -.52)" style="fill:#574413"/><path class="b5cdeec1-acbb-48a7-b39d-d21f3537d3c0" d="M138.66 111.81c-.69 1.1-1.88 1.31-3.1 1.47a5.8 5.8 0 0 1 3.1-1.47z" transform="translate(-.98 -.52)"/><path d="m100 61-1.52-.23c-.85-.16-1 .11-.89 1 .1 1.74.75 3.69-.62 5 .83-2.67 0-5.43-1.15-8.36l5 .77c-.29.59-.57 1.21-.85 1.79z" transform="translate(-.98 -.52)" style="fill:#f8f32f"/><path d="M93.12 68.88c-2.27-.15-4.41-.61-5.76-3.1-1.1-2-1.3-4-.21-5.75a4.3 4.3 0 0 1 5.16-2.19c.39.59.11.95-.19 1.3a2 2 0 0 1-1 .42c-2.26.33-3.29 1.14-3.21 2.95A5.08 5.08 0 0 0 90.75 67c.24.13 0 0 .19.09.59.36 1.35.35 1.81 1z" transform="translate(-.98 -.52)" style="fill:#f6d856"/><path d="m91.9 58.91.41-1.07.38-.33c2.53 1.81 4.28 4 3.91 7.09a3.6 3.6 0 0 1-3.85 3.48c-.65-.24-1.4 0-2-.7.4-.46 1-.31 1.55-.4 1.82-.28 2.86-1.24 2.94-2.72a4.87 4.87 0 0 0-2.62-4.71 2.05 2.05 0 0 1-.72-.64z" transform="translate(-.98 -.52)" style="fill:#faf771"/><path class="b18a8d8d-d78d-4d91-ae10-ea5633fcd941" d="M93.51 69.37c3 5.27 7.81 8.27 12.86 11A10.92 10.92 0 0 1 102 79.1c-1.44-.71-1.44-.08-1.42 1v7.51c-1.06.39-1.73-.52-2.33-1.19a30.89 30.89 0 0 1-7.33-16 1.12 1.12 0 0 1 .28-1 2.44 2.44 0 0 0 2.32 0z" transform="translate(-.98 -.52)"/><path d="M91.19 69.38a32.49 32.49 0 0 0 7 16.34 6 6 0 0 0 2.41 1.89v3.51c-1.74-.24-2.89-1.65-3.9-2.87-3.74-4.5-6.68-9.38-7.91-15a33.66 33.66 0 0 1-.31-5.07c.96.21 1.68 1.18 2.71 1.2z" transform="translate(-.98 -.52)" style="fill:#f8c806"/><path d="M110.75 118.82c2.43-.83 5-.16 7.54.65a.62.62 0 0 1 .47.64v.13a.67.67 0 0 1-.57.33c-2.49-.36-5.01-.22-7.44-1.75z" transform="translate(-.98 -.52)" style="fill:#fefe01"/><path d="M114.55 88.64c.72.57.35 1.23.35 1.81q.09 6.63.07 13.22c0 2.35-.16 4.67 2 6.61-.27.18-.36.31-.45.29-4-.68-3.53.5-3.41-4.66a2.45 2.45 0 0 0 .93-2.28v-4.46c-.12-2.84-.07-5.65-.08-8.46a2.5 2.5 0 0 1 .59-2.07z" transform="translate(-.98 -.52)" style="fill:#dd9714"/><path d="M114.55 88.64v10.87a1.06 1.06 0 0 1-1.47-.2c0-3.23 0-6.45-.16-9.69-.05-1.43.58-1.43 1.63-.98z" transform="translate(-.98 -.52)" style="fill:#ecc108"/><path d="m113.08 99.28 1.49.23v5.25c.06 1.19-.49 1.42-1.51 1.14z" transform="translate(-.98 -.52)" style="fill:#ecb111"/><path d="M113 82.49c1 .28 1.62.08 1.51-1.12-.05-.5-.14-1.06.51-1.25a33.92 33.92 0 0 0-.14 5.43c0 .73-.07 1.22-1 1.09s-.93-.8-.92-1.44c0-.9 0-1.81.07-2.71z" transform="translate(-.98 -.52)" style="fill:#eac906"/><path d="m130.56 112.13 1.11.55c.1.61-.22.81-.75.81a1.35 1.35 0 0 1-.36-1.36z" transform="translate(-.98 -.52)" style="fill:#4b3f10"/><path d="M91.9 58.91c2.54.2 3.4 2.1 3.86 4.26.5 2.36-.71 3.83-2.89 4.26a7.22 7.22 0 0 1-2.07-.06 5.66 5.66 0 0 1-3.49-4.78 3.25 3.25 0 0 1 3.52-3.48 5.33 5.33 0 0 0 1.07-.2z" transform="translate(-.98 -.52)" style="fill:#f8ef95"/><path d="M92.12 60c1.46.23 2.92 2.23 2.92 4a2.63 2.63 0 0 1-3 2.62A3.42 3.42 0 0 1 88.83 63 2.8 2.8 0 0 1 92 59.94z" transform="translate(-.98 -.52)" style="fill:#fbf8cc"/><path d="M91.58 61c1.47.39 2.45 1.23 2.51 2.54a1.7 1.7 0 0 1-1.76 2 1.53 1.53 0 0 1-.3 0 2.63 2.63 0 0 1-2.35-2.32 1.63 1.63 0 0 1 0-.31c-.05-1.29 1.07-1.57 1.9-1.91z" transform="translate(-.98 -.52)" style="fill:#fefefb"/><path d="m201.12 110.88-3.64-.56V109l8.83 1.37v1.31l-3.64-.56v10.65l-1.56-.24zm12.67 7-4.63-.72v4.32l5.15.79v1.3l-6.69-1v-12l6.43 1v1.3l-4.9-.76v3.77l4.63.72zm10.83 6.89a7.25 7.25 0 0 1-3.15.08 6.69 6.69 0 0 1-5.87-7c0-3.74 2.53-5.87 6.24-5.3a7 7 0 0 1 2.83 1l-.38 1.2a6.33 6.33 0 0 0-2.4-.87c-2.79-.43-4.64 1.08-4.65 4.22a5.19 5.19 0 0 0 4.57 5.51 5.88 5.88 0 0 0 2.51-.1zm3.48-11v5l5.76.89v-5l1.56.24v12l-1.56-.24V121l-5.75-.89v5.61l-1.56-.24v-12zm10 13.51v-12l1.68.26 3.8 6.64a40.59 40.59 0 0 1 2.12 4.22c-.14-1.62-.17-3.09-.17-5v-5l1.45.23v12l-1.56-.24-3.77-6.65a45.47 45.47 0 0 1-2.22-4.34c.09 1.53.12 3 .11 5v5.11zm21.81-2.73c0 4.12-2.51 5.92-5.55 5.44s-5.34-3.27-5.33-6.9c0-3.79 2.36-5.9 5.55-5.41s5.31 3.32 5.29 6.83zm-9.24-1.24c0 2.56 1.36 5.06 3.78 5.44s3.83-1.66 3.84-4.38c0-2.38-1.23-5.06-3.79-5.46s-3.82 1.77-3.83 4.4zM261.9 119l1.53.24v10.67l5.09.79v1.3l-6.63-1zm17.82 8.63c0 4.12-2.53 5.91-5.56 5.44s-5.35-3.27-5.34-6.9c0-3.8 2.38-5.91 5.56-5.41s5.35 3.24 5.34 6.82zm-9.25-1.24c0 2.56 1.36 5.06 3.78 5.43s3.83-1.66 3.84-4.37c0-2.39-1.22-5.06-3.78-5.46s-3.83 1.77-3.84 4.4zm20.29 8.53a11.08 11.08 0 0 1-3.64.09 7.2 7.2 0 0 1-4.45-2.26A7.11 7.11 0 0 1 281 128c0-3.57 2.49-5.8 6.48-5.18a8 8 0 0 1 3 1l-.37 1.2a7 7 0 0 0-2.64-.93c-2.9-.44-4.8 1.07-4.81 4.08a5.23 5.23 0 0 0 4.57 5.53 4.72 4.72 0 0 0 2 0v-3.57l-2.42-.37v-1.24l3.92.6zm3.95-10.92-.06 12-1.56-.25.06-12zm8.84 7.73-4.63-.72v4.32l5.17.8v1.29l-6.73-1 .07-12 6.45 1v1.29L299 126v3.77l4.64.72zm2.3 4.09a6.26 6.26 0 0 0 2.76 1.21c1.56.24 2.5-.45 2.5-1.66s-.63-1.86-2.23-2.73c-1.95-1-3.12-2.19-3.11-3.87 0-1.87 1.59-3 3.88-2.66a6.09 6.09 0 0 1 2.64 1l-.43 1.2a5.51 5.51 0 0 0-2.27-.92c-1.63-.25-2.25.63-2.26 1.45 0 1.12.72 1.78 2.36 2.68 2 1.09 3 2.22 3 4s-1.38 3.23-4.18 2.8a7.08 7.08 0 0 1-3-1.23zm-135.24-35.08c.06-1.45.09-4.78.09-6.78v-1.53c0-1.78 0-2.79-.1-4.1l-2.6-.69V86.5l5-1.2.48.4-.09 4.39v4.28c0 2 0 5.35.11 6.81zm5.06-.37v1.15l-7.46-1.15v-1.16l3.5-.1.75.11zm-5.86-21.24a1.81 1.81 0 0 1 2.07-1.94 2.63 2.63 0 0 1 2.25 2.44 1.81 1.81 0 0 1-2.07 1.94H172a2.48 2.48 0 0 1-2.16-2.26v-.17zm10.51 23.11c.06-1.45.08-4.79.08-6.78v-1.57c0-1.79 0-2.78-.1-4.09l-2.54-.68V88l4.49-1.27.49.4.38 3.81v4.93c0 2 0 5.35.11 6.81zm5.11-.37V103l-7.43-1.12v-1.16l3.51-.09.74.11zm7.47-7.52v3c0 2.09 0 5.35.1 6.81l-2.92-.45c.07-1.45.1-4.72.09-6.78v-2.74c0-3-.76-4-2.65-4.33-1.59-.24-2.92.21-4.72 1.52l-.7-.11v-1.5l1.68.26-1.37.4a7.24 7.24 0 0 1 6.37-2.69c2.77.42 4.11 2.35 4.11 6.61zm-.9 7.9 3.22 1.15v1.15l-7.47-1.15v-1.16l3.51-.1zm8.36-4.88c0 4.06 2.14 6.6 5.15 7.07a4.36 4.36 0 0 0 4.45-1.81l.8.55c-.89 2.56-3 3.73-6 3.26-4.41-.68-7.23-4.21-7.23-9.2s3.57-7.61 7.46-7a6.72 6.72 0 0 1 5.69 5.09 1.17 1.17 0 0 1-1.49 1 2.08 2.08 0 0 1-1.75-1.84l-.78-2.95 1.53 1.46a7.61 7.61 0 0 0-3.08-1.28c-2.75-.42-4.75 1.49-4.75 5.66zm15.28 3.51v-1.57c0-1.78 0-2.77-.1-4.08l-2.54-.68v-1.14l4.5-1.27.48.4.38 4.11v4.63c0 2 0 5.36.08 6.82l-2.91-.45c.07-1.42.1-4.76.11-6.77zm-2.39 5.29 3.54-.09.8.12 3.52 1.19v1.16l-7.87-1.22zm3.75-9.45 1.87.29-.79.14c1-2.92 3-4.44 4.9-4.14a3.21 3.21 0 0 1 2.31 1.53c0 1.54-.6 2.29-1.89 2.09a3.38 3.38 0 0 1-2-1.12l-.86-.88h1.56a6.25 6.25 0 0 0-3.84 4.53l-1.29-.2zm23.06 5.16a6.21 6.21 0 0 1-.23 1.78l-12-1.85v-1.38l7.62 1.18c1.57.24 1.91-.45 1.91-1.38a4.25 4.25 0 0 0-3.49-4.06c-2-.31-4.35 1.07-4.36 5.71 0 4.1 2.07 6.6 5.23 7.08a4.75 4.75 0 0 0 4.48-1.57l.76.73a5.58 5.58 0 0 1-6.2 2.8c-4.34-.67-7.17-4.13-7.16-9.07s3.42-7.76 7.42-7.14a7 7 0 0 1 6 7.17zm10.39 9.77c1.64.26 2.77-.31 4.23-2l.3.9c-1.26 2.08-2.8 3.19-5.34 2.8-3.92-.61-6.56-4.27-6.55-9 0-4.95 3-7.8 6.91-7.19 1.89.29 3.46 1.33 5.12 4.13l-.33.79c-1.83-2.09-3.11-2.82-4.33-3-2.39-.37-4.46 1.26-4.47 5.66s1.89 6.5 4.46 6.89zm9 1.65v1.15l-5-.45-.32-3.33v-9.58l.11-.4v-8.11l-2.75-.74v-1.15l5.05-.69.46.34-.15 4.59-.06 19.12-.6-1.79zm4 1.78c.07-1.45.12-4.79.12-6.79v-1.53c0-1.78 0-2.79-.09-4.1l-2.6-.7v-1.14l5-1.19.48.4-.11 4.39v4.28c0 2 0 5.36.08 6.82zm5.08-.37v1.15l-7.53-1.15v-1.16l3.51-.11.75.12zm-5.77-21.25a1.83 1.83 0 0 1 2.09-1.95 2.62 2.62 0 0 1 2.23 2.49 1.82 1.82 0 0 1-2.08 1.9h-.08a2.49 2.49 0 0 1-2.16-2.27zM270.5 115l3.46-.11-1.09 1.63c.07-1.45.12-4.78.13-6.78l.05-14.27-2.64-.73V93.6l4.95-.7.46.34-.15 4.59v6.16l.1.44v10l-.37 2.82-4.85-1.07zm13.33-4.34c0-4.19-1.66-6.66-4.08-7-1.19-.18-2.77.17-5.07 2.11l-.28-.63c1.88-2.6 4-3.53 6.22-3.19 3.43.53 6.14 3.89 6.11 8.92s-2.9 7.84-6.67 7.25c-2-.31-4-1.54-5.68-5.17l.29-.47c1.65 2.34 3.35 3.49 4.87 3.73 2.3.32 4.27-1.37 4.29-5.51zm10-14.93.46.34-.15 4.59L294 113c0 2.27 0 4.55.07 6.82l-2.93-.45c.07-2.26.12-4.52.13-6.79l.07-14.25-2.64-.73v-1.17zm2.85 23.31v1.15l-8-1.23v-1.16l3.62-.09.75.12zm15.75-6a6.21 6.21 0 0 1-.23 1.78l-12-1.85v-1.38l7.6 1.17c1.57.24 1.91-.45 1.92-1.38a4.25 4.25 0 0 0-3.49-4.07c-2-.31-4.36 1.07-4.39 5.72 0 4.11 2.05 6.6 5.21 7.09a4.82 4.82 0 0 0 4.51-1.58l.76.73a5.61 5.61 0 0 1-6.23 2.8c-4.35-.67-7.17-4.12-7.15-9.08s3.45-7.75 7.47-7.13a7 7 0 0 1 6 7.18z" transform="translate(-.98 -.52)"/></g></svg>