<svg id="ff85b5ae-710f-4efd-8668-30b5cdfc81e0" data-name="bae51f9f-9ab5-4723-91c1-5de94dc4635e" xmlns="http://www.w3.org/2000/svg" xmlns:xlink="http://www.w3.org/1999/xlink" viewBox="0 0 87.6 88.6"><defs><style>.a1343064-c6ab-4de2-a874-3afc1e53975b,.a6dc5050-82e9-4e45-a267-d99c66d3de46{fill:#211c1d;}.bd34b887-f7a6-4077-8dbb-fc768bfc55b9{opacity:0.1;}.bb2a91c2-b218-422b-8731-c739313b5059{fill:#808094;}.b9afc825-ec27-4c38-9209-9f8d377d3889{fill:#6d6e6f;}.a6187b2b-001b-4cda-95a1-71b53de9f5d2{fill:url(#f3011d87-11d0-43c5-b710-c5d69fbe1bbf);}.a1343064-c6ab-4de2-a874-3afc1e53975b{opacity:0.3;}.a1343064-c6ab-4de2-a874-3afc1e53975b,.ad7999a6-7217-4155-8f6d-8bef62decd04,.bee4f57d-dede-40b7-8afb-50b3785c1004{isolation:isolate;}.bee4f57d-dede-40b7-8afb-50b3785c1004{opacity:0.15;fill:url(#a3c2dba3-90db-47f7-8893-cb1c80a2c1a2);}.ad7999a6-7217-4155-8f6d-8bef62decd04{opacity:0.4;fill:url(#a592b2a3-b15c-4f33-b7e0-d08a241ea32a);}.bd5dee32-ca70-4891-9d97-596980196c1a{fill:#f9f204;}</style><linearGradient id="f3011d87-11d0-43c5-b710-c5d69fbe1bbf" x1="-747.89" y1="2455.81" x2="-768.82" y2="2434.88" gradientTransform="translate(802.18 -2401.52)" gradientUnits="userSpaceOnUse"><stop offset="0" stop-color="#a4a5a9"/><stop offset="1" stop-color="#e6e6e7"/></linearGradient><linearGradient id="a3c2dba3-90db-47f7-8893-cb1c80a2c1a2" x1="-768.76" y1="2455.8" x2="-747.88" y2="2434.93" gradientTransform="translate(802.18 -2401.52)" gradientUnits="userSpaceOnUse"><stop offset="0" stop-color="#211c1d" stop-opacity="0"/><stop offset="0.04" stop-color="#211c1d" stop-opacity="0.09"/><stop offset="0.5" stop-color="#211c1d"/><stop offset="0.95" stop-color="#211c1d" stop-opacity="0.09"/><stop offset="1" stop-color="#211c1d" stop-opacity="0"/></linearGradient><linearGradient id="a592b2a3-b15c-4f33-b7e0-d08a241ea32a" x1="-5886.68" y1="-3866.42" x2="-5865.8" y2="-3887.31" gradientTransform="translate(-5832.48 -3833.03) rotate(180)" gradientUnits="userSpaceOnUse"><stop offset="0" stop-color="#fff" stop-opacity="0"/><stop offset="0.5" stop-color="#fff"/><stop offset="1" stop-color="#fff" stop-opacity="0"/></linearGradient></defs><circle class="a6dc5050-82e9-4e45-a267-d99c66d3de46" cx="43.8" cy="43.8" r="43.8"/><g class="bd34b887-f7a6-4077-8dbb-fc768bfc55b9"><path class="bb2a91c2-b218-422b-8731-c739313b5059" d="M84.4,43.8l-8.6-8.9v4.3H66v9.1h9.8v4.3ZM72.5,15.1l-12.4-.2L63.2,18l-7,7,6.4,6.4,7-7,3.1,3.1ZM43.8,3.2l-8.9,8.6h4.3v9.8h9.1V11.8h4.3ZM15.1,15.1l-.2,12.4L18,24.4l7,7L31.4,25l-7-7,3.1-3.1ZM3.2,43.8l8.6,8.9V48.4h9.8V39.3H11.8V35ZM15.1,72.5l12.4.2-3.1-3.1,7-7L25,56.2l-7,7-3.1-3.1ZM43.8,84.4l8.9-8.6H48.4V66H39.3v9.8H35ZM72.5,72.5l.2-12.4-3.1,3.1-7-7-6.4,6.4,7,7-3.1,3.1Z" transform="translate(0 0)"/></g><path class="b9afc825-ec27-4c38-9209-9f8d377d3889" d="M87.6,44.3A43.81,43.81,0,0,1,0,44.3v.5a43.8,43.8,0,0,0,87.6,0Z" transform="translate(0 0)"/><circle class="a6187b2b-001b-4cda-95a1-71b53de9f5d2" cx="43.8" cy="43.8" r="14.8"/><circle class="a1343064-c6ab-4de2-a874-3afc1e53975b" cx="43.8" cy="43.8" r="11.8"/><path class="bee4f57d-dede-40b7-8afb-50b3785c1004" d="M43.8,29.1A14.75,14.75,0,1,0,58.6,43.9,14.75,14.75,0,0,0,43.8,29.1Zm-.2,28.7A14.15,14.15,0,1,1,57.8,43.7,14.16,14.16,0,0,1,43.6,57.8Z" transform="translate(0 0)"/><path class="ad7999a6-7217-4155-8f6d-8bef62decd04" d="M43.8,58.6A14.75,14.75,0,1,0,29,43.9,14.75,14.75,0,0,0,43.8,58.6ZM44,29.9a14.1,14.1,0,0,1,0,28.2h0A14,14,0,0,1,29.9,44.2h0V44h0A14.08,14.08,0,0,1,44,29.9Z" transform="translate(0 0)"/><circle class="bd5dee32-ca70-4891-9d97-596980196c1a" cx="43.6" cy="32.8" r="20.5"/></svg>