<svg id="b26194fa-f053-4cfd-8505-9a8a63176d90" data-name="bae51f9f-9ab5-4723-91c1-5de94dc4635e" xmlns="http://www.w3.org/2000/svg" xmlns:xlink="http://www.w3.org/1999/xlink" viewBox="0 0 87.6 88.6"><defs><style>.b51266d8-f79f-4333-acd7-bd1bb8ca0aac,.f11070d5-92d4-4056-8e25-46c25c9e2d48{fill:#211c1d;}.b7cd9234-f5ed-4f2a-bbe9-7f38a3499b2b{opacity:0.1;}.b95b9291-df26-493e-aac0-3965f1d6864e{fill:#808094;}.b51ee774-003c-4b7f-bcff-3a02da9edffb{fill:#6d6e6f;}.a24d3007-c2ba-411d-b2f1-b1fa2e792b11{fill:url(#a56e97ee-3953-46d1-b64e-5ddb86292a72);}.f11070d5-92d4-4056-8e25-46c25c9e2d48{opacity:0.3;}.e00f7a29-93ff-4f62-9fb2-157809660348,.e16a74e3-afa4-47a5-bb5f-6704597936e1,.f11070d5-92d4-4056-8e25-46c25c9e2d48{isolation:isolate;}.e00f7a29-93ff-4f62-9fb2-157809660348{opacity:0.15;fill:url(#e4b55501-a68b-4ca7-843e-028d8e22f0f3);}.e16a74e3-afa4-47a5-bb5f-6704597936e1{opacity:0.4;fill:url(#e44459c0-1175-4149-ace4-17cb15a7c2c7);}</style><linearGradient id="a56e97ee-3953-46d1-b64e-5ddb86292a72" x1="-747.89" y1="2455.81" x2="-768.82" y2="2434.88" gradientTransform="translate(802.18 -2401.52)" gradientUnits="userSpaceOnUse"><stop offset="0" stop-color="#a4a5a9"/><stop offset="1" stop-color="#e6e6e7"/></linearGradient><linearGradient id="e4b55501-a68b-4ca7-843e-028d8e22f0f3" x1="-768.76" y1="2455.8" x2="-747.88" y2="2434.93" gradientTransform="translate(802.18 -2401.52)" gradientUnits="userSpaceOnUse"><stop offset="0" stop-color="#211c1d" stop-opacity="0"/><stop offset="0.04" stop-color="#211c1d" stop-opacity="0.09"/><stop offset="0.5" stop-color="#211c1d"/><stop offset="0.95" stop-color="#211c1d" stop-opacity="0.09"/><stop offset="1" stop-color="#211c1d" stop-opacity="0"/></linearGradient><linearGradient id="e44459c0-1175-4149-ace4-17cb15a7c2c7" x1="-5886.68" y1="-3866.42" x2="-5865.8" y2="-3887.31" gradientTransform="translate(-5832.48 -3833.03) rotate(180)" gradientUnits="userSpaceOnUse"><stop offset="0" stop-color="#fff" stop-opacity="0"/><stop offset="0.5" stop-color="#fff"/><stop offset="1" stop-color="#fff" stop-opacity="0"/></linearGradient></defs><circle class="b51266d8-f79f-4333-acd7-bd1bb8ca0aac" cx="43.8" cy="43.8" r="43.8"/><g class="b7cd9234-f5ed-4f2a-bbe9-7f38a3499b2b"><path class="b95b9291-df26-493e-aac0-3965f1d6864e" d="M84.4,43.8l-8.6-8.9v4.3H66v9.1h9.8v4.3ZM72.5,15.1l-12.4-.2L63.2,18l-7,7,6.4,6.4,7-7,3.1,3.1ZM43.8,3.2l-8.9,8.6h4.3v9.8h9.1V11.8h4.3ZM15.1,15.1l-.2,12.4L18,24.4l7,7L31.4,25l-7-7,3.1-3.1ZM3.2,43.8l8.6,8.9V48.4h9.8V39.3H11.8V35ZM15.1,72.5l12.4.2-3.1-3.1,7-7L25,56.2l-7,7-3.1-3.1ZM43.8,84.4l8.9-8.6H48.4V66H39.3v9.8H35ZM72.5,72.5l.2-12.4-3.1,3.1-7-7-6.4,6.4,7,7-3.1,3.1Z" transform="translate(0 0)"/></g><path class="b51ee774-003c-4b7f-bcff-3a02da9edffb" d="M87.6,44.3A43.81,43.81,0,0,1,0,44.3v.5a43.8,43.8,0,0,0,87.6,0Z" transform="translate(0 0)"/><circle class="a24d3007-c2ba-411d-b2f1-b1fa2e792b11" cx="43.8" cy="43.8" r="14.8"/><circle class="f11070d5-92d4-4056-8e25-46c25c9e2d48" cx="43.8" cy="43.8" r="11.8"/><path class="e00f7a29-93ff-4f62-9fb2-157809660348" d="M43.8,29.1A14.75,14.75,0,1,0,58.6,43.9,14.75,14.75,0,0,0,43.8,29.1Zm-.2,28.7A14.15,14.15,0,1,1,57.8,43.7,14.16,14.16,0,0,1,43.6,57.8Z" transform="translate(0 0)"/><path class="e16a74e3-afa4-47a5-bb5f-6704597936e1" d="M43.8,58.6A14.75,14.75,0,1,0,29,43.9,14.75,14.75,0,0,0,43.8,58.6ZM44,29.9a14.1,14.1,0,0,1,0,28.2h0A14,14,0,0,1,29.9,44.2h0V44h0A14.08,14.08,0,0,1,44,29.9Z" transform="translate(0 0)"/><circle cx="43.6" cy="32.8" r="20.5"/></svg>