<svg xmlns="http://www.w3.org/2000/svg" xmlns:xlink="http://www.w3.org/1999/xlink" viewBox="0 0 470.58 67.66"><defs><style>.f57d17f9-f853-4cb2-a8f8-9b484f55ff11{stroke:#9def48;stroke-miterlimit:10;fill:url(#a2fbdf18-7c1e-44fc-b7e6-9e059a70a95d);}.fbe527e6-339b-4b4e-93f7-a1735940945b{fill:#9def48;}.bfe3a250-f76e-4a86-b7a5-78f61ee120ea{fill:#fff;}</style><linearGradient id="a2fbdf18-7c1e-44fc-b7e6-9e059a70a95d" x1="0.5" y1="33.83" x2="470.08" y2="33.83" gradientUnits="userSpaceOnUse"><stop offset="0" stop-color="#032c02"/><stop offset="1" stop-color="#207a09"/></linearGradient></defs><g id="f76e5212-c119-4c5b-bc29-949c3b6a7e28" data-name="calque3"><polygon class="f57d17f9-f853-4cb2-a8f8-9b484f55ff11" points="0.5 6.04 102.57 6.04 108.7 0.5 150.44 0.5 158.35 6.04 461.77 6.24 470.08 16.13 470.08 59.84 50.94 59.84 42.83 67.16 8.02 67.16 0.5 59.84 0.5 6.04"/><path class="fbe527e6-339b-4b4e-93f7-a1735940945b" d="M56.51,44.91H52.45v-21l4.06-4.07Z"/><path class="fbe527e6-339b-4b4e-93f7-a1735940945b" d="M79,41.44,74.94,45.5v-21H61.64V20.4H92.3v4.07H79Z"/><path class="fbe527e6-339b-4b4e-93f7-a1735940945b" d="M117.61,34.67H100.69a17.49,17.49,0,0,0,2.21,6.17H123l2.34,4.07H100.71a17.62,17.62,0,0,1-4.14-10.24H92.73V30.62h3.84a17.51,17.51,0,0,1,4.14-10.22h24.66L123,24.47H102.9a17.33,17.33,0,0,0-2.21,6.15h16.92Z"/><path class="fbe527e6-339b-4b4e-93f7-a1735940945b" d="M154.75,37.61h4.37a17.11,17.11,0,0,1-3.67,7.3H131.3a18.18,18.18,0,0,1-4.22-12.26A18.17,18.17,0,0,1,131.3,20.4h24.15a17.11,17.11,0,0,1,3.67,7.3h-4.37a18.89,18.89,0,0,0-1.47-3.23H133.49a16.33,16.33,0,0,0-2.35,8.18,16.4,16.4,0,0,0,2.35,8.19h19.79A19.62,19.62,0,0,0,154.75,37.61Z"/><path class="fbe527e6-339b-4b4e-93f7-a1735940945b" d="M166.74,34.67A17.49,17.49,0,0,0,169,40.84h2.7v4.07h-4.89a18.23,18.23,0,0,1-4.22-12.26,18.18,18.18,0,0,1,4.22-12.25h4.89v4.07H169a17.33,17.33,0,0,0-2.21,6.15h24.19a17.67,17.67,0,0,0-2.19-6.15H186V20.4h4.89a18.18,18.18,0,0,1,4.22,12.25,18.23,18.23,0,0,1-4.22,12.26H186V40.84h2.72a17.83,17.83,0,0,0,2.19-6.17Z"/></g><g id="b5fa6bee-d4f7-4257-ba5b-601414d94bb9" data-name="svg1"><g id="b85c5cad-2bb9-412a-8d0e-2eacf6fe9bbb" data-name="g1"><path id="b1bb1af2-4609-4e71-89ad-a65c39919f45" data-name="path1" class="bfe3a250-f76e-4a86-b7a5-78f61ee120ea" d="M32.87,59.83a8.34,8.34,0,0,1-1.74,2.42A8.69,8.69,0,0,1,25,64.94,9,9,0,0,1,20.39,64c-.68-.34-.56-.36.18,0a9.54,9.54,0,0,0,5.72.49,9.13,9.13,0,0,0,6.14-5.12c.26-.61.27-.61.55-.5s.28.13.28.16S33.08,59.41,32.87,59.83Zm.2-7.32a.34.34,0,0,0-.25.1c0,.06-.3-.37-.59-1a8.78,8.78,0,0,0-4.08-4.06,7.36,7.36,0,0,0-3.89-.87,7.61,7.61,0,0,0-3.34.54c-.46.2-.63.23-.4.09a10.7,10.7,0,0,1,2.09-.75,11,11,0,0,1,4.08,0A11.36,11.36,0,0,1,30,48.17a10,10,0,0,1,3,3.62C33.31,52.53,33.31,52.51,33.07,52.51ZM31,51.76c-.18.31-.77.12-.77-.26,0-.1.31-.35.44-.35s.44.26.44.37A1.09,1.09,0,0,1,31,51.76Zm-.08-.32a.19.19,0,0,0-.15.1c0,.05,0,.1.09.1s.15,0,.15-.1A.09.09,0,0,0,30.93,51.44Zm-.37.32c-.09,0,0,.05.12.05s.24,0,.17,0a.55.55,0,0,0-.29,0Zm.13-.51c-.22,0-.26.15-.05.16s.19,0,.19-.07S30.76,51.25,30.69,51.25ZM30.83,60c-.17,0-.2-.06-.2-.39v-.39H23.31l.07-.22a9,9,0,0,0,.07-2.53l-.1-.36h.72c.71,0,.73,0,.73-.24s0-.25-.81-.25h-.8L23,55.11A5.37,5.37,0,0,0,20.71,53L20,52.61H24.8V52c0-.61,0-.64.24-.64s.24,0,.24.64v.63l2.16,0c2.27,0,2.5-.08,2-.44a5.22,5.22,0,0,0-.87-.37c-.48-.15-.59-.23-.53-.33.22-.35,2.17.46,2.68,1.09l.29.38,0,3.54C31,60,31,60,30.83,60Zm-.53-4.58c-.3.19-.46.2-2.67.2H25.28v.49h5.35v-.89ZM29.08,36.27H27.91v.44c0,.32,0,.44-.12.41s-.12-.33-.12-1,0-1,.12-1,.12.09.12.4v.45h1.17c1.1,0,1.16,0,1.16.19S30.18,36.27,29.08,36.27Zm-.15-1.66H27.61l0-.89c0-.6.06-.9.15-.93s.12.16.12.75v.78h.87v-.73c0-.58,0-.73.15-.73s.15.15.15.73v.73h.86l0-.78c0-1.09.22-1,.25.15l0,.92Zm1.19-2.81a1.72,1.72,0,0,1-1.93.33,1.18,1.18,0,0,1-.05-2c.34-.15.35.07,0,.41a.77.77,0,0,0,0,1.1c.21.24.3.27.82.27a1.11,1.11,0,0,0,.78-.18.81.81,0,0,0-.14-1.32c-.14-.06-.23-.16-.21-.22.07-.23.27-.19.56.1a.87.87,0,0,1,.29.81,1.62,1.62,0,0,1-.12.67Zm-1.19-2.24c-1.1,0-1.31,0-1.31-.15s.12-.15.53-.15h.54V27.8h-.54c-.41,0-.53,0-.53-.14s.21-.15,1.31-.15,1.31,0,1.31.14-.15.15-.61.17l-.6,0v1.36l.6,0c.46,0,.61.07.61.17S30,29.56,28.93,29.56Zm0-2.63c-1.65,0-1.66-.06-.25-1l1-.68-1,0c-.83,0-1-.06-1-.17s.22-.14,1.31-.14c1.68,0,1.71.08.34,1a6.94,6.94,0,0,0-1,.7,3.19,3.19,0,0,0,1,.08c.8,0,1,0,1,.14s-.21.15-1.32.15Zm1-3a1.33,1.33,0,0,1-2.3-.81,1.37,1.37,0,0,1,2-1.15,1.08,1.08,0,0,1,.65,1.14A.87.87,0,0,1,29.92,24Zm-.22-1.48a1.29,1.29,0,0,0-1.54,0,.81.81,0,0,0,0,1.21A.86.86,0,0,0,29,24c.74,0,1.15-.39,1.05-1a1,1,0,0,0-.3-.51Zm-.77-1.1c-1.1,0-1.31,0-1.31-.14s.19-.15,1.16-.15H30v-.63c0-.5,0-.63.15-.63s.14.15.14.78v.77Zm1.16-2.45a1.6,1.6,0,0,1-1.9.34,1.22,1.22,0,0,1-.14-1.95.93.93,0,0,1,.83-.31c.91,0,1.36.4,1.36,1.21A1.44,1.44,0,0,1,30.09,18.93Zm-.19-1.14a1.13,1.13,0,0,0-1.18-.45.89.89,0,0,0,0,1.78,1.08,1.08,0,0,0,1.14-.45.78.78,0,0,0,0-.88Zm0-1.61a1.26,1.26,0,0,1-1.48.29,1.32,1.32,0,0,1-.59-.39,1.73,1.73,0,0,1-.19-1.16c.07-.3.38-.64.59-.64s.18.16-.1.43a.93.93,0,0,0,.8,1.52.89.89,0,0,0,1-.67c.15-.51-.08-1.08-.44-1.08s-.25,0-.25.39,0,.39-.15.39-.14-.13-.14-.54v-.53h.48c.44,0,.5,0,.63.28a2.14,2.14,0,0,1,.15.84c0,.49,0,.58-.32.87Zm-1-2.6c-1.07,0-1.29-.05-1.29-.17s.2-.15,1.26-.15,1.27,0,1.29.18-.06.17-1.26.14Zm0-1-1.28,0v-.91c0-.65,0-.93.12-1s.12.16.12.74v.79h.87V11.5c0-.54,0-.72.13-.69s.13.28.15.73l0,.7H30v-.78c0-.62,0-.78.15-.78s.14.18.14,1v1Zm1.23-2.73a.9.9,0,0,1-.35.28c-.24.12-.31.13-.37,0s0-.18.19-.29c.45-.27.48-1.16.05-1.32-.27-.11-.46.1-.64.69-.27.9-.66,1.15-1.17.74-.19-.15-.22-.27-.22-.72a1,1,0,0,1,.18-.73c.21-.24.54-.28.54-.06s0,.14-.09.14c-.37,0-.53.82-.21,1.11s.48.1.6-.36A4.13,4.13,0,0,1,29,8.64a.53.53,0,0,1,.53-.37c.53,0,.77.25.76,1A3.27,3.27,0,0,1,30.18,9.88ZM26.09,36.25a1.57,1.57,0,0,1-1.47.83,1.71,1.71,0,0,1-1.46-.66c-.71-.81-.41-2.29.47-2.29a.42.42,0,0,1,.48.46c0,.31-.4.49-.72.32s-.44-.06-.44.35.32.78,1.11.86a2.89,2.89,0,0,0,1.82-.21,1.1,1.1,0,0,0,0-1.24,1.91,1.91,0,0,0-.51-.42c-.25-.13-.27-.17-.14-.2s.63.22.85.59a2,2,0,0,1,0,1.61ZM26,28.78a2.13,2.13,0,0,1-.56.56,1.23,1.23,0,0,1-1,.2,1.48,1.48,0,0,1-1-.33,1.51,1.51,0,0,1-.67-1.43,1.41,1.41,0,0,1,1.27-1.34h.25v2.14H25c.85,0,1.07-.17,1.07-.82a.87.87,0,0,0-.32-.75,2.88,2.88,0,0,0-.51-.44c-.14-.08-.15-.12-.05-.12a1.34,1.34,0,0,1,.93.72A1.87,1.87,0,0,1,26,28.78Zm-2.35-1.46a.65.65,0,0,0-.58,1.05c.11.16.25.21.53.21H24V27.32Zm2.48-2.58a2,2,0,0,1-.91.82,2.54,2.54,0,0,1-1.59-.06,1.45,1.45,0,0,1-.86-1.35A.94.94,0,0,1,23,23.4a.87.87,0,0,0,.22-.3A7.59,7.59,0,0,0,21.93,23H20.61v.24c0,.14,0,.24-.09.24a4,4,0,0,1-.11-1.41s1.28,0,2.8,0H26v-.25c0-.13.05-.24.1-.24s.1.19.1.42a3.84,3.84,0,0,0,.06.73c.05.28,0,.31-.19.31h-.26l.24.35A1.54,1.54,0,0,1,26.16,24.74Zm-.23-1.2c-.18-.37-.56-.5-1.48-.5s-.85,0-1.17.33-.46.93-.12,1.17a6.58,6.58,0,0,0,2.62.05c.35-.19.4-.53.15-1.05Zm.25-5.49c0,.61-.22.88-.22.32v-.29H20.61v.29c0,.16,0,.29-.09.29s-.1-.26-.1-.57a3.41,3.41,0,0,0-.06-.73c-.05-.14.11-.16,1.41-.16a14.24,14.24,0,0,0,1.47,0,2.23,2.23,0,0,0-.24-.4c-.92-1.36,1.06-2.9,2.55-2a1.43,1.43,0,0,1,.46,2,1.42,1.42,0,0,0-.24.34s.11.06.24.06.24.05.23.12,0,.4-.06.73Zm-.28-2.42a6.31,6.31,0,0,0-2.22-.14c-.53.08-.73.27-.73.67a1,1,0,0,0,.56.86,2.61,2.61,0,0,0,2.07,0c.51-.34.68-1.05.32-1.35Zm.13-5a1.81,1.81,0,0,1-2.23.63,2,2,0,0,1-.94-1,1.52,1.52,0,0,1,1.18-2h.27v2.14H25c.55,0,.72,0,.88-.19a1.17,1.17,0,0,0-.48-1.67c-.3-.13-.4-.28-.19-.28a1.53,1.53,0,0,1,.9.72A1.86,1.86,0,0,1,26,10.6ZM23.61,9.16c-.45.06-.66.26-.66.64s.26.59.69.59H24V9.1Zm2.45,35.37s-.1-.15-.1-.34v-.34H23v.3c0,.16,0,.29-.09.29s-.1-.23-.1-.51a4.06,4.06,0,0,0-.06-.73L22.73,43H26v-.29a.51.51,0,0,1,.1-.34c.06,0,.1.34.1,1.06A2.79,2.79,0,0,1,26.06,44.53Zm0-2.52s-.1-.14-.1-.3v-.29H23v.29c0,.16,0,.3-.09.3s-.1-.2-.1-.43a5.13,5.13,0,0,0-.06-.73c-.06-.3-.06-.3.35-.3h.42l-.35-.34a1.22,1.22,0,0,1-.1-1.8c.23-.18.4-.2,1.55-.2H26V38a.39.39,0,0,1,.1-.29c.06,0,.1.31.1,1s0,1-.1,1a.39.39,0,0,1-.1-.29v-.24H24.69a6.51,6.51,0,0,0-1.46.1c-.41.22-.07,1,.56,1.22a4.15,4.15,0,0,0,1.25.14c.91,0,.92,0,.92-.24a.42.42,0,0,1,.1-.3c.06,0,.1.31.1,1S26.12,42,26.06,42Zm0-8.66s-.1-.13-.1-.29v-.29H23v.29c0,.53-.19.3-.21-.25,0-.29,0-.61,0-.7s.08-.18.36-.2l.36,0-.33-.32a1.08,1.08,0,0,1-.41-1.08.47.47,0,0,1,.94.06c0,.24-.06.32-.3.41s-.36.25-.07.52.63.42,1.62.42h1v-.33a.62.62,0,0,1,.1-.4c.06,0,.1.34.1,1.06A2.87,2.87,0,0,1,26.06,33.35Zm0-12.16S26,21,26,20.85v-.34H23v.29c0,.16,0,.29-.09.29s-.1-.23-.1-.51a4.06,4.06,0,0,0-.06-.73l-.06-.22H26v-.28a.52.52,0,0,1,.1-.35c.06,0,.1.34.1,1.07A2.83,2.83,0,0,1,26.06,21.19Zm0-7.2s-.1-.15-.1-.34v-.34H20.61v.34c0,.19,0,.34-.09.34s-.1-.27-.1-.62a3.78,3.78,0,0,0-.06-.78c-.05-.14.23-.15,2.77-.15H26v-.3c0-.16.05-.29.1-.29a2.59,2.59,0,0,1,.1,1.07A2.59,2.59,0,0,1,26.06,14ZM22,57.86a3.07,3.07,0,0,1-1.49,1.44,2.43,2.43,0,0,1-3.21-2.06,2.37,2.37,0,0,1,1.32-2.41A2.4,2.4,0,0,1,22.16,57,4.06,4.06,0,0,1,22,57.86Zm-.56-14.08c-.21.37-.91.08-.85-.35a.63.63,0,0,1,.29-.35c.24-.13.28-.13.46,0A.47.47,0,0,1,21.48,43.78Zm-.05-23.33a.48.48,0,0,1-.82-.32.63.63,0,0,1,.51-.5.65.65,0,0,1,.47.52A.5.5,0,0,1,21.43,20.45Z"/></g></g></svg>