<svg id="f252b4b9-fe0b-4c2b-b7bb-66cb429e1019" data-name="texte" xmlns="http://www.w3.org/2000/svg" xmlns:xlink="http://www.w3.org/1999/xlink" viewBox="0 0 470.33 67.41"><defs><style>.f05f04da-839d-4268-885e-b929c0de179b{stroke:#9def48;stroke-miterlimit:10;stroke-width:0.75px;fill:url(#edc877ff-fd93-458b-9f2b-8a1974b8119e);}.b94d577f-071a-4da9-93a6-bdefcd3e32ca{fill:#9def48;}</style><linearGradient id="edc877ff-fd93-458b-9f2b-8a1974b8119e" x1="0.38" y1="33.7" x2="469.96" y2="33.7" gradientUnits="userSpaceOnUse"><stop offset="0" stop-color="#032c02"/><stop offset="1" stop-color="#207a09"/></linearGradient></defs><polygon class="f05f04da-839d-4268-885e-b929c0de179b" points="0.38 5.91 102.44 5.91 108.57 0.38 150.31 0.38 158.22 5.91 461.65 6.11 469.96 16 469.96 59.72 50.81 59.72 42.7 67.03 7.89 67.03 0.38 59.72 0.38 5.91"/><path class="b94d577f-071a-4da9-93a6-bdefcd3e32ca" d="M53,26.89l-2-3.48H72.08a15,15,0,0,1,3.54,8.77L74.11,33v1.76l1.51.85a15.07,15.07,0,0,1-3.54,8.77H50.94l2-3.48H70.22a15.23,15.23,0,0,0,1.87-5.29H57.59V32.17h14.5a15.11,15.11,0,0,0-1.87-5.28Z" transform="translate(-0.06 -0.03)"/><path class="b94d577f-071a-4da9-93a6-bdefcd3e32ca" d="M79.28,23.41h23.15a15.57,15.57,0,0,1,3.62,10.5,15.6,15.6,0,0,1-3.62,10.5H79.28Zm3.49,17.52h17.8a14.15,14.15,0,0,0,2-7,14.09,14.09,0,0,0-2-7H82.77Z" transform="translate(-0.06 -0.03)"/><path class="b94d577f-071a-4da9-93a6-bdefcd3e32ca" d="M132.65,41.44l-3.49,3.49v-18H117.77V23.41h26.28v3.48h-11.4Z" transform="translate(-0.06 -0.03)"/><path class="b94d577f-071a-4da9-93a6-bdefcd3e32ca" d="M165.74,35.64h-14.5a14.88,14.88,0,0,0,1.89,5.29h17.25l2,3.48H151.25a15.07,15.07,0,0,1-3.54-8.77h-3.3V32.17h3.3a15,15,0,0,1,3.54-8.76h21.14l-2,3.48H153.13a14.77,14.77,0,0,0-1.89,5.28h14.5Z" transform="translate(-0.06 -0.03)"/><path class="b94d577f-071a-4da9-93a6-bdefcd3e32ca" d="M186.09,26.89h-6.74a14,14,0,0,0-2,7,14.08,14.08,0,0,0,2,7h2.31v3.48h-4.19a15.6,15.6,0,0,1-3.61-10.5,15.56,15.56,0,0,1,3.61-10.5h8.62v-3.3h3.47v3.3h8.61a15.57,15.57,0,0,1,3.62,10.5,15.6,15.6,0,0,1-3.62,10.5H194V40.93h2.33a14.15,14.15,0,0,0,2-7,14.09,14.09,0,0,0-2-7h-6.75V39.34h-3.47Z" transform="translate(-0.06 -0.03)"/><path class="b94d577f-071a-4da9-93a6-bdefcd3e32ca" d="M234.3,35.64H211.55a14.88,14.88,0,0,0,1.89,5.29h2.31v3.48h-4.19A15.07,15.07,0,0,1,208,35.64h-3.3V32.17H208a15,15,0,0,1,3.54-8.76h20.7a15.57,15.57,0,0,1,3.62,10.5Zm-22.75-3.47h20.72a15.11,15.11,0,0,0-1.87-5.28h-17A14.77,14.77,0,0,0,211.55,32.17Z" transform="translate(-0.06 -0.03)"/><path class="b94d577f-071a-4da9-93a6-bdefcd3e32ca" d="M265.09,32.17l1.58,1.74a15.57,15.57,0,0,1-3.62,10.5h-20.7a14.7,14.7,0,0,1-3.15-6.25H243a16,16,0,0,0,1.28,2.77h17a14.7,14.7,0,0,0,1.87-5.29H240.31l-1.58-1.73a15.6,15.6,0,0,1,3.62-10.5h20.7a14.7,14.7,0,0,1,3.15,6.25h-3.75a15.13,15.13,0,0,0-1.26-2.77h-17a14.77,14.77,0,0,0-1.89,5.28Z" transform="translate(-0.06 -0.03)"/><path class="b94d577f-071a-4da9-93a6-bdefcd3e32ca" d="M301.74,40.93h2.33a15.23,15.23,0,0,0,1.87-5.29H285.21a15.28,15.28,0,0,0,1.89,5.29h2.32v3.48h-4.19a15.15,15.15,0,0,1-3.55-8.77h-3.29V32.17h3.29a15.09,15.09,0,0,1,3.55-8.76h20.7a15,15,0,0,1,3.54,8.77L308,33v1.76l1.51.85a15.07,15.07,0,0,1-3.54,8.77h-4.19Zm-16.53-8.76h20.73a15.11,15.11,0,0,0-1.87-5.28h-17A15.16,15.16,0,0,0,285.21,32.17Z" transform="translate(-0.06 -0.03)"/><path class="b94d577f-071a-4da9-93a6-bdefcd3e32ca" d="M333.73,35.64h-14.5a14.88,14.88,0,0,0,1.89,5.29h17.25l2,3.48H319.24a15.07,15.07,0,0,1-3.54-8.77h-3.3V32.17h3.3a15,15,0,0,1,3.54-8.76h21.14l-2,3.48H321.12a14.77,14.77,0,0,0-1.89,5.28h14.5Z" transform="translate(-0.06 -0.03)"/><path class="b94d577f-071a-4da9-93a6-bdefcd3e32ca" d="M361,35.64h-14.5a15.28,15.28,0,0,0,1.89,5.29h17.26l2,3.48H346.49a15.15,15.15,0,0,1-3.55-8.77h-3.29V32.17h3.29a15.09,15.09,0,0,1,3.55-8.76h21.14l-2,3.48H348.36a15.16,15.16,0,0,0-1.89,5.28H361Z" transform="translate(-0.06 -0.03)"/><path class="b94d577f-071a-4da9-93a6-bdefcd3e32ca" d="M374.77,40.93h15.79l2,3.48H371.29v-18l3.48-3.49Z" transform="translate(-0.06 -0.03)"/></svg>