<svg id="b03083e5-b252-4160-b764-9e25dde76ce1" data-name="texte" xmlns="http://www.w3.org/2000/svg" xmlns:xlink="http://www.w3.org/1999/xlink" viewBox="0 0 470.33 67.41"><defs><style>.a84e92e4-8683-479e-b6fe-404a15c50f3b{stroke:#9def48;stroke-miterlimit:10;stroke-width:0.75px;fill:url(#bd5e1538-7d9d-4e61-9c81-1f37c9e6c167);}.ef867bab-5660-4008-9d4d-7a8f92c35e7e{fill:#9def48;}</style><linearGradient id="bd5e1538-7d9d-4e61-9c81-1f37c9e6c167" x1="0.38" y1="33.7" x2="469.96" y2="33.7" gradientUnits="userSpaceOnUse"><stop offset="0" stop-color="#032c02"/><stop offset="1" stop-color="#207a09"/></linearGradient></defs><polygon class="a84e92e4-8683-479e-b6fe-404a15c50f3b" points="0.38 5.91 102.44 5.91 108.57 0.38 150.31 0.38 158.22 5.91 461.65 6.11 469.96 16 469.96 59.72 50.81 59.72 42.7 67.03 7.89 67.03 0.38 59.72 0.38 5.91"/><path class="ef867bab-5660-4008-9d4d-7a8f92c35e7e" d="M65.82,38.4l-3.48,3.49v-18H50.94V20.37H77.22v3.48H65.82Z" transform="translate(-0.06 -0.03)"/><path class="ef867bab-5660-4008-9d4d-7a8f92c35e7e" d="M103.73,41.37H83a15.6,15.6,0,0,1-3.61-10.5A15.56,15.56,0,0,1,83,20.37h20.7a15.52,15.52,0,0,1,3.62,10.5A15.55,15.55,0,0,1,103.73,41.37Zm-1.86-3.48a14.15,14.15,0,0,0,2-7,14.09,14.09,0,0,0-2-7h-17a14,14,0,0,0-2,7,14.08,14.08,0,0,0,2,7Z" transform="translate(-0.06 -0.03)"/><path class="ef867bab-5660-4008-9d4d-7a8f92c35e7e" d="M122.51,37.89V25.44H126V37.89h6.76a14.09,14.09,0,0,0,2-7,14.15,14.15,0,0,0-2-7h-2.33V20.37h4.19a15.6,15.6,0,0,1,3.62,10.5,15.57,15.57,0,0,1-3.62,10.5H126v3.3h-3.47v-3.3H113.9a15.57,15.57,0,0,1-3.62-10.5,15.6,15.6,0,0,1,3.62-10.5h4.19v3.48h-2.32a14.16,14.16,0,0,0-2,7,14.11,14.11,0,0,0,2,7Z" transform="translate(-0.06 -0.03)"/><path class="ef867bab-5660-4008-9d4d-7a8f92c35e7e" d="M162.47,32.6H148a15.28,15.28,0,0,0,1.89,5.29h17.26l2,3.48H148a15.08,15.08,0,0,1-3.55-8.77h-3.29V29.13h3.29A15,15,0,0,1,148,20.37h21.13l-2,3.48H149.86A15.16,15.16,0,0,0,148,29.13h14.5Z" transform="translate(-0.06 -0.03)"/><path class="ef867bab-5660-4008-9d4d-7a8f92c35e7e" d="M191.74,37.89h2.33A15.25,15.25,0,0,0,196,32.6H175.22a14.88,14.88,0,0,0,1.89,5.29h2.31v3.48h-4.19a15.07,15.07,0,0,1-3.54-8.77h-3.3V29.13h3.3a15,15,0,0,1,3.54-8.76h20.7a15.09,15.09,0,0,1,3.55,8.77L198,30v1.76l1.51.85a15.15,15.15,0,0,1-3.55,8.77h-4.19Zm-16.52-8.76H196a15.13,15.13,0,0,0-1.88-5.28h-17A14.77,14.77,0,0,0,175.22,29.13Z" transform="translate(-0.06 -0.03)"/><path class="ef867bab-5660-4008-9d4d-7a8f92c35e7e" d="M211.93,20.37h23.14a15.57,15.57,0,0,1,3.62,10.5,15.6,15.6,0,0,1-3.62,10.5H211.93Zm3.48,17.52h17.8a14.15,14.15,0,0,0,2-7,14.09,14.09,0,0,0-2-7h-17.8Z" transform="translate(-0.06 -0.03)"/><path class="ef867bab-5660-4008-9d4d-7a8f92c35e7e" d="M263,32.6H248.44a15.28,15.28,0,0,0,1.89,5.29h17.26l2,3.48H248.46a15.15,15.15,0,0,1-3.55-8.77h-3.29V29.13h3.29a15.09,15.09,0,0,1,3.55-8.76H269.6l-2,3.48H250.33a15.16,15.16,0,0,0-1.89,5.28H263Z" transform="translate(-0.06 -0.03)"/><path class="ef867bab-5660-4008-9d4d-7a8f92c35e7e" d="M279.89,41.37H275.7a15.07,15.07,0,0,1-3.54-8.77h-3.3V29.13h3.3a15,15,0,0,1,3.54-8.76h21.14l-2,3.48H277.58a14.77,14.77,0,0,0-1.89,5.28h14.5V32.6h-14.5a14.88,14.88,0,0,0,1.89,5.29h2.31Z" transform="translate(-0.06 -0.03)"/><path class="ef867bab-5660-4008-9d4d-7a8f92c35e7e" d="M317.44,32.6h-14.5a14.88,14.88,0,0,0,1.89,5.29h17.25l2,3.48H303a15.07,15.07,0,0,1-3.54-8.77h-3.3V29.13h3.3A15,15,0,0,1,303,20.37h21.14l-2,3.48H304.83a14.77,14.77,0,0,0-1.89,5.28h14.5Z" transform="translate(-0.06 -0.03)"/><path class="ef867bab-5660-4008-9d4d-7a8f92c35e7e" d="M331.05,23.85a14,14,0,0,0-2,7,14.08,14.08,0,0,0,2,7h2.31v3.48h-4.19a15.6,15.6,0,0,1-3.62-10.5,15.57,15.57,0,0,1,3.62-10.5h20.7a15.57,15.57,0,0,1,3.62,10.5,15.6,15.6,0,0,1-3.62,10.5h-4.19V37.89H348a14.15,14.15,0,0,0,2-7,14.09,14.09,0,0,0-2-7Z" transform="translate(-0.06 -0.03)"/><path class="ef867bab-5660-4008-9d4d-7a8f92c35e7e" d="M382.77,29.13l1.58,1.74a15.56,15.56,0,0,1-3.61,10.5H360a14.47,14.47,0,0,1-3.15-6.25h3.75a15.9,15.9,0,0,0,1.27,2.77h17a14.53,14.53,0,0,0,1.88-5.29H358l-1.58-1.73A15.55,15.55,0,0,1,360,20.37h20.7a14.57,14.57,0,0,1,3.14,6.25h-3.75a15.13,15.13,0,0,0-1.26-2.77h-17A15.16,15.16,0,0,0,360,29.13Z" transform="translate(-0.06 -0.03)"/><path class="ef867bab-5660-4008-9d4d-7a8f92c35e7e" d="M408.61,32.6h-14.5A14.88,14.88,0,0,0,396,37.89h17.25l2,3.48H394.12a15.07,15.07,0,0,1-3.54-8.77h-3.3V29.13h3.3a15,15,0,0,1,3.54-8.76h21.14l-2,3.48H396a14.77,14.77,0,0,0-1.89,5.28h14.5Z" transform="translate(-0.06 -0.03)"/></svg>