<svg id="a89abf35-61a1-451b-b41e-4e10b2a09d85" data-name="texte" xmlns="http://www.w3.org/2000/svg" xmlns:xlink="http://www.w3.org/1999/xlink" viewBox="0 0 470.33 67.41"><defs><style>.efa93b17-58e7-40b6-b1e0-96e5ce26d667{stroke:#9def48;stroke-miterlimit:10;stroke-width:0.75px;fill:url(#b47073a3-adea-4e7e-85d0-a72ffedf463c);}.beba4035-92f8-493c-b5c1-a27a4a805b61{fill:#9def48;}</style><linearGradient id="b47073a3-adea-4e7e-85d0-a72ffedf463c" x1="0.38" y1="33.7" x2="469.96" y2="33.7" gradientUnits="userSpaceOnUse"><stop offset="0" stop-color="#032c02"/><stop offset="1" stop-color="#207a09"/></linearGradient></defs><polygon class="efa93b17-58e7-40b6-b1e0-96e5ce26d667" points="0.38 5.91 102.44 5.91 108.57 0.38 150.31 0.38 158.22 5.91 461.65 6.11 469.96 16 469.96 59.72 50.81 59.72 42.7 67.03 7.89 67.03 0.38 59.72 0.38 5.91"/><path class="beba4035-92f8-493c-b5c1-a27a4a805b61" d="M74.66,36.77h3.75A14.7,14.7,0,0,1,75.26,43H54.56a15.6,15.6,0,0,1-3.62-10.5A15.6,15.6,0,0,1,54.56,22h20.7a14.7,14.7,0,0,1,3.15,6.25H74.66A16.61,16.61,0,0,0,73.4,25.5h-17a14.08,14.08,0,0,0-2,7,14.16,14.16,0,0,0,2,7h17A17.79,17.79,0,0,0,74.66,36.77Z" transform="translate(-0.06 -0.03)"/><path class="beba4035-92f8-493c-b5c1-a27a4a805b61" d="M84.94,34.25a14.88,14.88,0,0,0,1.89,5.29h2.31V43H85a15.6,15.6,0,0,1-3.61-10.5A15.56,15.56,0,0,1,85,22h4.19V25.5H86.83a14.77,14.77,0,0,0-1.89,5.28h20.73a15.13,15.13,0,0,0-1.88-5.28h-2.33V22h4.19a15.57,15.57,0,0,1,3.62,10.5A15.6,15.6,0,0,1,105.65,43h-4.19V39.54h2.33a15.25,15.25,0,0,0,1.88-5.29Z" transform="translate(-0.06 -0.03)"/><path class="beba4035-92f8-493c-b5c1-a27a4a805b61" d="M118,37.18,114.35,43H110l13.35-21h4L140.6,43h-4.29l-3.63-5.84Zm12.48-3.47-5.13-8.22-5.17,8.22Z" transform="translate(-0.06 -0.03)"/><path class="beba4035-92f8-493c-b5c1-a27a4a805b61" d="M167.69,30.78l1.58,1.74A15.57,15.57,0,0,1,165.65,43H145a14.7,14.7,0,0,1-3.15-6.25h3.75a17.12,17.12,0,0,0,1.28,2.77h17a14.72,14.72,0,0,0,1.88-5.29H142.92l-1.58-1.73A15.6,15.6,0,0,1,145,22h20.7a14.7,14.7,0,0,1,3.15,6.25h-3.75a15.13,15.13,0,0,0-1.26-2.77h-17a14.77,14.77,0,0,0-1.89,5.28Z" transform="translate(-0.06 -0.03)"/><path class="beba4035-92f8-493c-b5c1-a27a4a805b61" d="M198.55,30.78l1.58,1.74A15.56,15.56,0,0,1,196.52,43h-20.7a14.7,14.7,0,0,1-3.15-6.25h3.75a17.05,17.05,0,0,0,1.27,2.77h17a14.7,14.7,0,0,0,1.87-5.29H173.78l-1.58-1.73A15.6,15.6,0,0,1,175.82,22h20.7a14.7,14.7,0,0,1,3.15,6.25h-3.75a16.61,16.61,0,0,0-1.26-2.77h-17a15.16,15.16,0,0,0-1.89,5.28Z" transform="translate(-0.06 -0.03)"/><path class="beba4035-92f8-493c-b5c1-a27a4a805b61" d="M224.39,34.25h-14.5a14.88,14.88,0,0,0,1.89,5.29H229L231,43H209.9a15.07,15.07,0,0,1-3.54-8.77h-3.3V30.78h3.3A15,15,0,0,1,209.9,22H231l-2,3.48H211.78a14.77,14.77,0,0,0-1.89,5.28h14.5Z" transform="translate(-0.06 -0.03)"/><path class="beba4035-92f8-493c-b5c1-a27a4a805b61" d="M263.36,30.78h10.48v3.47h-3.29A15.08,15.08,0,0,1,267,43H246.31a15.08,15.08,0,0,1-3.55-8.77l1.51-.85V31.64l-1.51-.85A15,15,0,0,1,246.31,22H267a14.36,14.36,0,0,1,3.15,6.25H266.4a15.9,15.9,0,0,0-1.27-2.77h-17a15.13,15.13,0,0,0-1.88,5.28h11.85v3.47H246.29a15.25,15.25,0,0,0,1.88,5.29h17A15.28,15.28,0,0,0,267,34.25h-3.66Z" transform="translate(-0.06 -0.03)"/><path class="beba4035-92f8-493c-b5c1-a27a4a805b61" d="M315.14,34.25H292.39a14.88,14.88,0,0,0,1.89,5.29h2.31V43H292.4a15.07,15.07,0,0,1-3.54-8.77h-3.3V30.78h3.3A15,15,0,0,1,292.4,22h20.7a15.57,15.57,0,0,1,3.62,10.5Zm-22.75-3.47h20.73a15.13,15.13,0,0,0-1.88-5.28h-17A14.77,14.77,0,0,0,292.39,30.78Z" transform="translate(-0.06 -0.03)"/><path class="beba4035-92f8-493c-b5c1-a27a4a805b61" d="M340.91,34.25H326.4a15.28,15.28,0,0,0,1.89,5.29h17.26l2,3.48H326.42a15.15,15.15,0,0,1-3.55-8.77h-3.29V30.78h3.29A15.09,15.09,0,0,1,326.42,22h21.14l-2,3.48H328.29a15.16,15.16,0,0,0-1.89,5.28h14.51Z" transform="translate(-0.06 -0.03)"/><path class="beba4035-92f8-493c-b5c1-a27a4a805b61" d="M372.74,36.77h3.75A14.7,14.7,0,0,1,373.34,43h-20.7A15.6,15.6,0,0,1,349,32.52,15.6,15.6,0,0,1,352.64,22h20.7a14.7,14.7,0,0,1,3.15,6.25h-3.75a16.61,16.61,0,0,0-1.26-2.77h-17a14.08,14.08,0,0,0-2,7,14.16,14.16,0,0,0,2,7h17A17.79,17.79,0,0,0,372.74,36.77Z" transform="translate(-0.06 -0.03)"/><path class="beba4035-92f8-493c-b5c1-a27a4a805b61" d="M383,34.25a14.88,14.88,0,0,0,1.89,5.29h2.31V43H383a15.55,15.55,0,0,1-3.62-10.5A15.52,15.52,0,0,1,383,22h4.18V25.5h-2.31A14.77,14.77,0,0,0,383,30.78h20.73a15.13,15.13,0,0,0-1.88-5.28h-2.33V22h4.19a15.52,15.52,0,0,1,3.62,10.5A15.55,15.55,0,0,1,403.73,43h-4.19V39.54h2.33a15.25,15.25,0,0,0,1.88-5.29Z" transform="translate(-0.06 -0.03)"/><path class="beba4035-92f8-493c-b5c1-a27a4a805b61" d="M431.61,34.25h-14.5A14.88,14.88,0,0,0,419,39.54h17.25l2,3.48H417.12a15.07,15.07,0,0,1-3.54-8.77h-3.3V30.78h3.3A15,15,0,0,1,417.12,22h21.14l-2,3.48H419a14.77,14.77,0,0,0-1.89,5.28h14.5Z" transform="translate(-0.06 -0.03)"/></svg>