<svg id="Calque_1" data-name="Calque 1" xmlns="http://www.w3.org/2000/svg" width="1416.89" height="1080"><defs><style>.cls-2{fill:#262626}.cls-10,.cls-21,.cls-3,.cls-8{fill:none}.cls-3,.cls-8{stroke:#232323}.cls-10,.cls-21,.cls-3,.cls-8{stroke-miterlimit:10}.cls-21,.cls-3{stroke-width:3px}.cls-4{fill:#3a3a3a}.cls-7{fill:#3f3f3f}.cls-10,.cls-8{stroke-width:2px}.cls-10{stroke:#262626}.cls-12{fill:#191919}.cls-13{fill:#e5c733}.cls-15{fill:#141414}.cls-16{fill:#686868}.cls-17{fill:#f2e7b6}.cls-18{fill:#726a44}.cls-19{font-size:21.5px;font-family:SegoeUI,Segoe UI;letter-spacing:-.03em}.cls-19,.cls-25{fill:#eaeaea}.cls-21{stroke:#eaeaea}</style></defs><path style="fill:#333" d="m41.11 87.4-9.04 131.13 1353.31-.02-8.79-131.11H41.11z"/><path id="fond" class="cls-2" d="m1400.77 399.78 8.38 12.37L1395.66 974s-8 48.89-10.23 55.56-5.33 9.33-15.11 8.88H40.44c-9.77.45-12.88-2.22-15.11-8.88S15.11 974 15.11 974L1.56 412.56 10 399.78z" transform="translate(3.33 14)"/><path class="cls-3" d="m33.02 204.83 1351.46.26M35.28 175.55l1347.16.26M36.96 147.18l1343.66.26M39.03 117.64l1339.58.36M40.96 89.11l1335.76.21"/><path class="cls-4" d="M1382.39 131c-.3-4.19-.58-8.32-.87-12.36a1.38 1.38 0 0 0-1.38-1.29H31.52a1.39 1.39 0 0 0-1.39 1.28q-.4 5.91-.84 12a1.39 1.39 0 0 0 1.38 1.49l1350.34.3a1.4 1.4 0 0 0 1.38-1.42zM1384.37 159.28q-.39-5.59-.78-11.07a1.38 1.38 0 0 0-1.38-1.28H29.44a1.39 1.39 0 0 0-1.38 1.28c-.25 3.55-.5 7.14-.75 10.75a1.39 1.39 0 0 0 1.38 1.49l1354.3.3a1.38 1.38 0 0 0 1.38-1.47zM32.74 102.66l1346.19.3a1.39 1.39 0 0 0 1.38-1.5q-.43-6.37-.86-12.36a1.38 1.38 0 0 0-1.39-1.28H33.59a1.37 1.37 0 0 0-1.38 1.28c-.27 3.89-.56 7.92-.85 12a1.41 1.41 0 0 0 1.38 1.56zM1377 74.4a1.27 1.27 0 0 0 1.26-1.36c-1.91-27.2-3.17-45.9-3.26-47-.44-5.33-2.67-10.22-9.33-10.67H46c-6.67.45-8.89 5.34-9.33 10.67-.1 1.14-1.34 19.71-3.24 46.74a1.27 1.27 0 0 0 1.26 1.36zM25.16 205.41c-6.71 95.87-13.6 194.37-13.6 194.37h1390.76s-6.89-98.51-13.61-194.39a.94.94 0 0 0-.94-.88H26.11a1 1 0 0 0-.95.9zM1384.19 175.18H27.46a1.38 1.38 0 0 0-1.38 1.29q-.41 5.88-.83 11.82a1.39 1.39 0 0 0 1.38 1.49l1358.41.3a1.39 1.39 0 0 0 1.39-1.48q-.43-6.11-.86-12.14a1.38 1.38 0 0 0-1.38-1.28z" transform="translate(3.33 14)"/><path id="sous_clavier" data-name="sous clavier" class="cls-4" d="M1412.55 426.56 1398.99 988H18.44L4.89 426.56h1407.66z"/><path style="fill:#232323" d="m1024.61 79.55 8.96 131.96H384.3l10.06-131.94 630.25-.02z"/><path style="fill:#383838" d="m1016.89 79.56 5.93 131.59H392.86l7.58-131.58 616.45-.01z"/><path class="cls-7" d="m388.09 109.34 641.55-.01-1.1-16.05-639.2-.35-1.25 16.41zM383.58 168.46l650.1-.02-1.09-16.05-647.75-.35-1.26 16.42zM381.35 197.79l654.34-.02-1.07-15.6-652.06-.36-1.21 15.98z"/><path class="cls-7" d="m1024.27 65.55-4-59.22a6.07 6.07 0 0 0-6.06-5.66h-616.6a6.08 6.08 0 0 0-6.06 5.62L387 65.57z" transform="translate(3.33 14)"/><path class="cls-7" d="m385.86 138.68 645.79-.02-1.07-15.6-643.51-.36-1.21 15.98z"/><path class="cls-7" d="M1033.24 197.51 377 197.15v.36c-6.81 105.5-13.58 214.05-12.9 214.05h682.67z" transform="translate(3.33 14)"/><path class="cls-8" d="m381.35 197.79 654.34-.02M383.58 168.46l650.1-.02M385.85 138.68l645.8-.02M390.36 109.35l639.28-.02M390.36 79.57l637.25-.02"/><path id="trai_autour_clavier" data-name="trai autour clavier" d="m1292.42 509.28-10.55 417.21a15.22 15.22 0 0 1-15.22 14.84H143.72a15.22 15.22 0 0 1-15.22-14.84L118 509.28a15.22 15.22 0 0 1 15.22-15.61h1144a15.23 15.23 0 0 1 15.2 15.61z" transform="translate(3.33 14)" style="stroke-width:.75px;fill:#353535;stroke:#000;stroke-miterlimit:10"/><path class="cls-10" d="m367.41 425.56 13.94-214.41M1050.91 422.36l-14.34-210.85"/><path style="stroke:#9f9f9f;stroke-width:.75px;stroke-miterlimit:10;fill:none" d="M4.89 426.56h1407.66"/><rect class="cls-12" x="168.25" y="548.93" width="125.24" height="42.7" rx="3.94"/><rect class="cls-12" x="881.58" y="801.44" width="125.24" height="42.7" rx="3.94"/><rect class="cls-12" x="1136.63" y="546.88" width="123.66" height="38.69" rx="3.94"/><rect class="cls-13" x="165.33" y="545" width="125.24" height="42.7" rx="3.94"/><rect class="cls-13" x="875.74" y="798.3" width="128" height="42.7" rx="3.94"/><rect x="372.32" y="886.5" width="291.39" height="42.7" rx="3.94" style="fill:#111"/><rect class="cls-2" x="368.76" y="882.21" width="291.39" height="42.7" rx="3.94"/><rect class="cls-13" x="1135.26" y="545" width="122.44" height="37.33" rx="3.94"/><g id="OMBRES_TOCHES_CLAVIERS" data-name="OMBRES TOCHES CLAVIERS"><rect class="cls-15" x="329.78" y="543.81" width="48.33" height="42.7" rx="4.5"/><rect class="cls-15" x="408.89" y="543.81" width="48.33" height="42.7" rx="4.5"/><rect class="cls-15" x="489.19" y="543.81" width="48.33" height="42.7" rx="4.5"/><rect class="cls-15" x="568.3" y="543.81" width="48.33" height="42.7" rx="4.5"/><rect class="cls-15" x="648.6" y="543.81" width="48.33" height="42.7" rx="4.5"/><rect class="cls-15" x="727.71" y="543.81" width="48.33" height="42.7" rx="4.5"/><rect class="cls-15" x="808" y="543.81" width="48.33" height="42.7" rx="4.5"/><rect class="cls-15" x="887.11" y="543.81" width="48.33" height="42.7" rx="4.5"/><rect class="cls-15" x="966.82" y="543.81" width="48.33" height="42.7" rx="4.5"/><rect class="cls-15" x="170.67" y="670.03" width="48.33" height="42.7" rx="4.5"/><rect class="cls-15" x="249.78" y="670.03" width="48.33" height="42.7" rx="4.5"/><rect class="cls-15" x="330.08" y="670.03" width="48.33" height="42.7" rx="4.5"/><rect class="cls-15" x="409.19" y="670.03" width="48.33" height="42.7" rx="4.5"/><rect class="cls-15" x="489.48" y="670.03" width="48.33" height="42.7" rx="4.5"/><rect class="cls-15" x="568.6" y="670.03" width="48.33" height="42.7" rx="4.5"/><rect class="cls-15" x="648.89" y="670.03" width="48.33" height="42.7" rx="4.5"/><rect class="cls-15" x="728" y="670.03" width="48.33" height="42.7" rx="4.5"/><rect class="cls-15" x="807.71" y="670.03" width="48.33" height="42.7" rx="4.5"/><rect class="cls-15" x="887.11" y="670.45" width="48.33" height="42.7" rx="4.5"/><rect class="cls-15" x="209.37" y="733.56" width="48.33" height="42.7" rx="4.5"/><rect class="cls-15" x="288.48" y="733.56" width="48.33" height="42.7" rx="4.5"/><rect class="cls-15" x="368.78" y="733.56" width="48.33" height="42.7" rx="4.5"/><rect class="cls-15" x="447.89" y="733.56" width="48.33" height="42.7" rx="4.5"/><rect class="cls-15" x="528.19" y="733.56" width="48.33" height="42.7" rx="4.5"/><rect class="cls-15" x="607.3" y="733.56" width="48.33" height="42.7" rx="4.5"/><rect class="cls-15" x="250.97" y="797.1" width="48.33" height="42.7" rx="4.5"/><rect class="cls-15" x="330.08" y="797.1" width="48.33" height="42.7" rx="4.5"/><rect class="cls-15" x="410.37" y="797.1" width="48.33" height="42.7" rx="4.5"/><rect class="cls-15" x="489.48" y="797.1" width="48.33" height="42.7" rx="4.5"/><rect class="cls-15" x="569.67" y="797.1" width="48.33" height="42.7" rx="4.5"/><rect class="cls-15" x="648.78" y="797.1" width="48.33" height="42.7" rx="4.5"/><rect class="cls-15" x="687.6" y="733.56" width="48.33" height="42.7" rx="4.5"/><rect class="cls-15" x="766.71" y="733.56" width="48.33" height="42.7" rx="4.5"/><rect class="cls-15" x="846.41" y="733.56" width="48.33" height="42.7" rx="4.5"/><rect class="cls-15" x="924.04" y="733.56" width="48.33" height="42.7" rx="4.5"/><rect class="cls-15" x="1063.15" y="610.56" width="48.33" height="42.7" rx="4.5"/><rect class="cls-15" x="1137.82" y="610.56" width="48.33" height="42.7" rx="4.5"/><rect class="cls-15" x="1211.48" y="610.56" width="48.33" height="42.7" rx="4.5"/><rect class="cls-15" x="611.02" y="610.56" width="48.33" height="42.7" rx="4.5"/><rect class="cls-15" x="690.69" y="610.56" width="48.33" height="42.7" rx="4.5"/><rect class="cls-15" x="769.35" y="610.56" width="48.33" height="42.7" rx="4.5"/><rect class="cls-15" x="373.98" y="610.56" width="48.33" height="42.7" rx="4.5"/><rect class="cls-15" x="293.49" y="610.56" width="48.33" height="42.7" rx="4.5"/><rect class="cls-15" x="453.65" y="610.56" width="48.33" height="42.7" rx="4.5"/><rect class="cls-15" x="532.31" y="610.56" width="48.33" height="42.7" rx="4.5"/><rect class="cls-15" x="1211.48" y="680.85" width="48.33" height="42.7" rx="4.5"/><rect class="cls-15" x="1137.82" y="680.85" width="48.33" height="42.7" rx="4.5"/><rect class="cls-15" x="1063.15" y="680.85" width="48.33" height="42.7" rx="4.5"/><rect class="cls-15" x="1211.48" y="751.49" width="48.33" height="42.7" rx="4.5"/><rect class="cls-15" x="1137.82" y="751.49" width="48.33" height="42.7" rx="4.5"/><rect class="cls-15" x="1211.48" y="814.38" width="48.33" height="42.7" rx="4.5"/><rect class="cls-15" x="1137.82" y="814.38" width="48.33" height="42.7" rx="4.5"/><rect class="cls-15" x="1211.48" y="885.46" width="48.33" height="42.7" rx="4.5"/><rect class="cls-15" x="1137.82" y="885.46" width="48.33" height="42.7" rx="4.5"/><rect class="cls-15" x="1063.15" y="751.49" width="48.33" height="42.7" rx="4.5"/></g><g id="REFLETS_TOUCHES" data-name="REFLETS TOUCHES"><path class="cls-16" d="M328.28 528.38h39.33a4.49 4.49 0 0 1 4.5 4.5v-2a4.49 4.49 0 0 0-4.5-4.5h-39.33a4.5 4.5 0 0 0-4.5 4.5v2a4.5 4.5 0 0 1 4.5-4.5zM407.39 528.38h39.33a4.49 4.49 0 0 1 4.5 4.5v-2a4.49 4.49 0 0 0-4.5-4.5h-39.33a4.5 4.5 0 0 0-4.5 4.5v2a4.5 4.5 0 0 1 4.5-4.5zM487.69 528.38H527a4.5 4.5 0 0 1 4.5 4.5v-2a4.5 4.5 0 0 0-4.5-4.5h-39.31a4.49 4.49 0 0 0-4.5 4.5v2a4.49 4.49 0 0 1 4.5-4.5zM566.8 528.38h39.33a4.5 4.5 0 0 1 4.5 4.5v-2a4.5 4.5 0 0 0-4.5-4.5H566.8a4.49 4.49 0 0 0-4.5 4.5v2a4.49 4.49 0 0 1 4.5-4.5zM647.1 528.38h39.33a4.5 4.5 0 0 1 4.5 4.5v-2a4.5 4.5 0 0 0-4.5-4.5H647.1a4.49 4.49 0 0 0-4.5 4.5v2a4.49 4.49 0 0 1 4.5-4.5zM726.21 528.38h39.33a4.5 4.5 0 0 1 4.5 4.5v-2a4.5 4.5 0 0 0-4.5-4.5h-39.33a4.49 4.49 0 0 0-4.5 4.5v2a4.49 4.49 0 0 1 4.5-4.5zM806.5 528.38h39.33a4.49 4.49 0 0 1 4.5 4.5v-2a4.49 4.49 0 0 0-4.5-4.5H806.5a4.5 4.5 0 0 0-4.5 4.5v2a4.5 4.5 0 0 1 4.5-4.5zM885.61 528.38h39.33a4.49 4.49 0 0 1 4.5 4.5v-2a4.49 4.49 0 0 0-4.5-4.5h-39.33a4.5 4.5 0 0 0-4.5 4.5v2a4.5 4.5 0 0 1 4.5-4.5zM1004.65 526.38h-39.33a4.49 4.49 0 0 0-4.5 4.5v2a4.49 4.49 0 0 1 4.5-4.5h39.33a4.5 4.5 0 0 1 4.5 4.5v-2a4.5 4.5 0 0 0-4.5-4.5zM169.17 654.6h39.33a4.49 4.49 0 0 1 4.5 4.5v-2a4.49 4.49 0 0 0-4.5-4.5h-39.33a4.49 4.49 0 0 0-4.5 4.5v2a4.49 4.49 0 0 1 4.5-4.5zM248.28 654.6h39.33a4.49 4.49 0 0 1 4.5 4.5v-2a4.49 4.49 0 0 0-4.5-4.5h-39.33a4.5 4.5 0 0 0-4.5 4.5v2a4.5 4.5 0 0 1 4.5-4.5zM367.91 652.6h-39.33a4.49 4.49 0 0 0-4.5 4.5v2a4.49 4.49 0 0 1 4.5-4.5h39.33a4.5 4.5 0 0 1 4.5 4.5v-2a4.5 4.5 0 0 0-4.5-4.5zM447 652.6h-39.31a4.49 4.49 0 0 0-4.5 4.5v2a4.49 4.49 0 0 1 4.5-4.5H447a4.5 4.5 0 0 1 4.5 4.5v-2a4.5 4.5 0 0 0-4.5-4.5zM527.31 652.6H488a4.5 4.5 0 0 0-4.5 4.5v2a4.5 4.5 0 0 1 4.5-4.5h39.33a4.49 4.49 0 0 1 4.5 4.5v-2a4.49 4.49 0 0 0-4.52-4.5zM606.43 652.6H567.1a4.49 4.49 0 0 0-4.5 4.5v2a4.49 4.49 0 0 1 4.5-4.5h39.33a4.5 4.5 0 0 1 4.5 4.5v-2a4.5 4.5 0 0 0-4.5-4.5zM647.39 654.6h39.33a4.49 4.49 0 0 1 4.5 4.5v-2a4.49 4.49 0 0 0-4.5-4.5h-39.33a4.5 4.5 0 0 0-4.5 4.5v2a4.5 4.5 0 0 1 4.5-4.5zM765.83 652.6H726.5a4.5 4.5 0 0 0-4.5 4.5v2a4.5 4.5 0 0 1 4.5-4.5h39.33a4.49 4.49 0 0 1 4.5 4.5v-2a4.49 4.49 0 0 0-4.5-4.5zM806.21 654.6h39.33a4.5 4.5 0 0 1 4.5 4.5v-2a4.5 4.5 0 0 0-4.5-4.5h-39.33a4.49 4.49 0 0 0-4.5 4.5v2a4.49 4.49 0 0 1 4.5-4.5zM885.61 655h39.33a4.49 4.49 0 0 1 4.5 4.5v-2a4.49 4.49 0 0 0-4.5-4.5h-39.33a4.5 4.5 0 0 0-4.5 4.5v2a4.5 4.5 0 0 1 4.5-4.5zM207.87 718.13h39.33a4.5 4.5 0 0 1 4.5 4.5v-2a4.5 4.5 0 0 0-4.5-4.5h-39.33a4.51 4.51 0 0 0-4.5 4.5v2a4.51 4.51 0 0 1 4.5-4.5zM287 716.14a4.5 4.5 0 0 0-4.5 4.5v2a4.5 4.5 0 0 1 4.5-4.5h39.33a4.49 4.49 0 0 1 4.5 4.5v-2a4.49 4.49 0 0 0-4.5-4.5zM367.28 716.13a4.51 4.51 0 0 0-4.5 4.5v2a4.51 4.51 0 0 1 4.5-4.5h39.33a4.5 4.5 0 0 1 4.5 4.5v-2a4.5 4.5 0 0 0-4.5-4.5zM446.39 716.14a4.5 4.5 0 0 0-4.5 4.5v2a4.5 4.5 0 0 1 4.5-4.5h39.33a4.49 4.49 0 0 1 4.5 4.5v-2a4.49 4.49 0 0 0-4.5-4.5zM526.69 716.13a4.5 4.5 0 0 0-4.5 4.5v2a4.5 4.5 0 0 1 4.5-4.5H566a4.51 4.51 0 0 1 4.5 4.5v-2a4.51 4.51 0 0 0-4.5-4.5zM605.8 716.14a4.49 4.49 0 0 0-4.5 4.5v2a4.49 4.49 0 0 1 4.5-4.5h39.33a4.5 4.5 0 0 1 4.5 4.5v-2a4.5 4.5 0 0 0-4.5-4.5zM288.8 779.67h-39.33a4.5 4.5 0 0 0-4.5 4.5v2a4.5 4.5 0 0 1 4.5-4.5h39.33a4.51 4.51 0 0 1 4.5 4.5v-2a4.51 4.51 0 0 0-4.5-4.5zM652.3 866H370a4.5 4.5 0 0 0-4.5 4.5v2a4.5 4.5 0 0 1 4.5-4.5h282.3a4.51 4.51 0 0 1 4.5 4.5v-2a4.51 4.51 0 0 0-4.5-4.5zM367.91 779.67h-39.33a4.5 4.5 0 0 0-4.5 4.5v2a4.5 4.5 0 0 1 4.5-4.5h39.33a4.51 4.51 0 0 1 4.5 4.5v-2a4.51 4.51 0 0 0-4.5-4.5zM448.2 779.67h-39.33a4.51 4.51 0 0 0-4.5 4.5v2a4.51 4.51 0 0 1 4.5-4.5h39.33a4.5 4.5 0 0 1 4.5 4.5v-2a4.5 4.5 0 0 0-4.5-4.5zM527.31 779.67H488a4.51 4.51 0 0 0-4.5 4.5v2a4.51 4.51 0 0 1 4.5-4.5h39.33a4.5 4.5 0 0 1 4.5 4.5v-2a4.5 4.5 0 0 0-4.52-4.5zM607.5 779.67h-39.33a4.5 4.5 0 0 0-4.5 4.5v2a4.5 4.5 0 0 1 4.5-4.5h39.33a4.5 4.5 0 0 1 4.5 4.5v-2a4.5 4.5 0 0 0-4.5-4.5zM686.61 779.67h-39.33a4.51 4.51 0 0 0-4.5 4.5v2a4.51 4.51 0 0 1 4.5-4.5h39.33a4.5 4.5 0 0 1 4.5 4.5v-2a4.5 4.5 0 0 0-4.5-4.5zM725.43 716.13H686.1a4.5 4.5 0 0 0-4.5 4.5v2a4.5 4.5 0 0 1 4.5-4.5h39.33a4.51 4.51 0 0 1 4.5 4.5v-2a4.51 4.51 0 0 0-4.5-4.5zM804.54 716.14h-39.33a4.49 4.49 0 0 0-4.5 4.5v2a4.49 4.49 0 0 1 4.5-4.5h39.33a4.5 4.5 0 0 1 4.5 4.5v-2a4.5 4.5 0 0 0-4.5-4.5zM884.24 716.14h-39.33a4.49 4.49 0 0 0-4.5 4.5v2a4.49 4.49 0 0 1 4.5-4.5h39.33a4.49 4.49 0 0 1 4.5 4.5v-2a4.49 4.49 0 0 0-4.5-4.5zM961.87 716.14h-39.33a4.49 4.49 0 0 0-4.5 4.5v2a4.49 4.49 0 0 1 4.5-4.5h39.33a4.49 4.49 0 0 1 4.5 4.5v-2a4.49 4.49 0 0 0-4.5-4.5z" transform="translate(3.33 14)"/><path class="cls-17" d="M291.74 593.38h39.33a4.49 4.49 0 0 1 4.5 4.5v-2a4.49 4.49 0 0 0-4.5-4.5h-39.33a4.5 4.5 0 0 0-4.5 4.5v2a4.5 4.5 0 0 1 4.5-4.5zM370.85 593.38h39.34a4.5 4.5 0 0 1 4.5 4.5v-2a4.5 4.5 0 0 0-4.5-4.5h-39.34a4.5 4.5 0 0 0-4.5 4.5v2a4.5 4.5 0 0 1 4.5-4.5zM451 593.38h39.3a4.5 4.5 0 0 1 4.5 4.5v-2a4.5 4.5 0 0 0-4.5-4.5H451a4.49 4.49 0 0 0-4.5 4.5v2a4.49 4.49 0 0 1 4.5-4.5zM530 593.38h39.33a4.5 4.5 0 0 1 4.5 4.5v-2a4.5 4.5 0 0 0-4.5-4.5H530a4.49 4.49 0 0 0-4.5 4.5v2a4.49 4.49 0 0 1 4.5-4.5zM609.13 593.38h39.33a4.49 4.49 0 0 1 4.5 4.5v-2a4.49 4.49 0 0 0-4.5-4.5h-39.33a4.49 4.49 0 0 0-4.5 4.5v2a4.49 4.49 0 0 1 4.5-4.5zM689.24 593.38h39.33a4.49 4.49 0 0 1 4.5 4.5v-2a4.49 4.49 0 0 0-4.5-4.5h-39.33a4.5 4.5 0 0 0-4.5 4.5v2a4.5 4.5 0 0 1 4.5-4.5zM767.87 591.38a4.5 4.5 0 0 0-4.5 4.5v2a4.5 4.5 0 0 1 4.5-4.5h39.33a4.49 4.49 0 0 1 4.5 4.5v-2a4.49 4.49 0 0 0-4.5-4.5M733.08 782.1a4.5 4.5 0 0 0-4.5 4.5v2a4.5 4.5 0 0 1 4.5-4.5h39.33a4.51 4.51 0 0 1 4.5 4.5v-2a4.51 4.51 0 0 0-4.5-4.5M733.08 866a4.5 4.5 0 0 0-4.5 4.5v2a4.5 4.5 0 0 1 4.5-4.5h39.33a4.51 4.51 0 0 1 4.5 4.5v-2a4.51 4.51 0 0 0-4.5-4.5M1106.07 595.88c0-2.49-2-4.5-2.72-4.5H1064c-4.26 0-6.28 2-6.28 4.5M1106.11 666.83a4.51 4.51 0 0 0-4.5-4.5h-39.33a4.5 4.5 0 0 0-4.5 4.5M1180.29 666.83a4.5 4.5 0 0 0-4.5-4.5h-39.33a4.51 4.51 0 0 0-4.5 4.5M1254.37 666.83a4.51 4.51 0 0 0-4.5-4.5h-39.33a4.5 4.5 0 0 0-4.5 4.5M1180.26 595.88c0-2.49-2-4.5-2.73-4.5h-39.33c-4.26 0-6.27 2-6.27 4.5M1254.37 595.88a4.5 4.5 0 0 0-4.5-4.5h-39.33a4.49 4.49 0 0 0-4.5 4.5M1106.11 737.32c0-2.49-2-4.5-2.72-4.5h-39.33c-4.27 0-6.28 2-6.28 4.5M1180.29 800.27a4.5 4.5 0 0 0-4.5-4.5h-39.33a4.51 4.51 0 0 0-4.5 4.5M1254.4 800.27a4.5 4.5 0 0 0-4.5-4.5h-39.33a4.51 4.51 0 0 0-4.5 4.5M1180.29 870.46a4.49 4.49 0 0 0-4.5-4.5h-39.33a4.5 4.5 0 0 0-4.5 4.5M1254.4 870.46a4.49 4.49 0 0 0-4.5-4.5h-39.33a4.5 4.5 0 0 0-4.5 4.5M1180.29 737.32c0-2.49-2-4.5-2.72-4.5h-39.33c-4.26 0-6.28 2-6.28 4.5M1254.4 737.32a4.49 4.49 0 0 0-4.5-4.5h-39.33a4.5 4.5 0 0 0-4.5 4.5" transform="translate(3.33 14)"/></g><g id="TOUCHES_NOIRES" data-name="TOUCHES NOIRES"><rect class="cls-2" x="327.11" y="542.38" width="48.33" height="40.7" rx="4.5"/><rect class="cls-2" x="406.22" y="542.38" width="48.33" height="40.7" rx="4.5"/><rect class="cls-2" x="486.52" y="542.38" width="48.33" height="40.7" rx="4.5"/><rect class="cls-2" x="565.63" y="542.38" width="48.33" height="40.7" rx="4.5"/><rect class="cls-2" x="645.93" y="542.38" width="48.33" height="40.7" rx="4.5"/><rect class="cls-2" x="725.04" y="542.38" width="48.33" height="40.7" rx="4.5"/><rect class="cls-2" x="805.34" y="542.38" width="48.33" height="40.7" rx="4.5"/><rect class="cls-2" x="884.45" y="542.38" width="48.33" height="40.7" rx="4.5"/><rect class="cls-2" x="964.15" y="542.38" width="48.33" height="40.7" rx="4.5"/><rect class="cls-2" x="168" y="668.6" width="48.33" height="40.7" rx="4.5"/><rect class="cls-2" x="247.11" y="668.6" width="48.33" height="40.7" rx="4.5"/><rect class="cls-2" x="327.41" y="668.6" width="48.33" height="40.7" rx="4.5"/><rect class="cls-2" x="406.52" y="668.6" width="48.33" height="40.7" rx="4.5"/><rect class="cls-2" x="486.82" y="668.6" width="48.33" height="40.7" rx="4.5"/><rect class="cls-2" x="565.93" y="668.6" width="48.33" height="40.7" rx="4.5"/><rect class="cls-2" x="646.22" y="668.6" width="48.33" height="40.7" rx="4.5"/><rect class="cls-2" x="725.34" y="668.6" width="48.33" height="40.7" rx="4.5"/><rect class="cls-2" x="805.04" y="668.6" width="48.33" height="40.7" rx="4.5"/><rect class="cls-2" x="884.45" y="669.03" width="48.33" height="40.7" rx="4.5"/><rect class="cls-2" x="206.71" y="732.13" width="48.33" height="40.7" rx="4.5"/><rect class="cls-2" x="285.82" y="732.14" width="48.33" height="40.7" rx="4.5"/><rect class="cls-2" x="366.11" y="732.13" width="48.33" height="40.7" rx="4.5"/><rect class="cls-2" x="445.22" y="732.14" width="48.33" height="40.7" rx="4.5"/><rect class="cls-2" x="525.52" y="732.13" width="48.33" height="40.7" rx="4.5"/><rect class="cls-2" x="604.63" y="732.14" width="48.33" height="40.7" rx="4.5"/><rect class="cls-2" x="248.3" y="795.67" width="48.33" height="40.7" rx="4.5"/><rect class="cls-2" x="327.41" y="795.67" width="48.33" height="40.7" rx="4.5"/><rect class="cls-2" x="407.71" y="795.67" width="48.33" height="40.7" rx="4.5"/><rect class="cls-2" x="486.82" y="795.67" width="48.33" height="40.7" rx="4.5"/><rect class="cls-2" x="567" y="795.67" width="48.33" height="40.7" rx="4.5"/><rect class="cls-2" x="646.11" y="795.67" width="48.33" height="40.7" rx="4.5"/><rect class="cls-2" x="684.93" y="732.13" width="48.33" height="40.7" rx="4.5"/><rect class="cls-2" x="764.04" y="732.14" width="48.33" height="40.7" rx="4.5"/><rect class="cls-2" x="843.74" y="732.14" width="48.33" height="40.7" rx="4.5"/><rect class="cls-2" x="921.37" y="732.14" width="48.33" height="40.7" rx="4.5"/></g><g id="TOUCGES_MARRONS" data-name="TOUCGES MARRONS"><rect class="cls-18" x="290.58" y="607.49" width="48.33" height="42.7" rx="4.5"/><rect class="cls-18" x="369.69" y="607.49" width="48.33" height="42.7" rx="4.5"/><rect class="cls-18" x="449.98" y="607.49" width="48.33" height="42.7" rx="4.5"/><rect class="cls-18" x="528.85" y="607.49" width="48.33" height="42.7" rx="4.5"/><rect class="cls-18" x="607.96" y="607.49" width="48.33" height="42.7" rx="4.5"/><rect class="cls-18" x="688.26" y="607.49" width="48.33" height="42.7" rx="4.5"/><rect class="cls-18" x="766.71" y="607.49" width="48.33" height="42.7" rx="4.5"/><rect class="cls-18" x="1061.07" y="607.49" width="48.33" height="42.7" rx="4.5"/><rect class="cls-18" x="1135.26" y="607.48" width="48.33" height="42.7" rx="4.5"/><rect class="cls-18" x="1209.37" y="607.49" width="48.33" height="42.7" rx="4.5"/><rect class="cls-18" x="1061.07" y="678.6" width="48.33" height="42.7" rx="4.5"/><rect class="cls-18" x="1135.26" y="678.6" width="48.33" height="42.7" rx="4.5"/><rect class="cls-18" x="1209.37" y="678.6" width="48.33" height="42.7" rx="4.5"/><rect class="cls-18" x="1061.07" y="748.82" width="48.33" height="42.7" rx="4.5"/><rect class="cls-18" x="1135.26" y="748.82" width="48.33" height="42.7" rx="4.5"/><rect class="cls-18" x="1209.37" y="748.82" width="48.33" height="42.7" rx="4.5"/><rect class="cls-18" x="1135.26" y="811.98" width="48.33" height="42.7" rx="4.5"/><rect class="cls-18" x="1209.37" y="811.98" width="48.33" height="42.7" rx="4.5"/><rect class="cls-18" x="1135.26" y="882.2" width="48.33" height="42.7" rx="4.5"/><rect class="cls-18" x="1209.37" y="882.21" width="48.33" height="42.7" rx="4.5"/><rect class="cls-18" x="731.91" y="798.1" width="48.33" height="42.7" rx="4.5"/><rect class="cls-18" x="731.91" y="882.01" width="48.33" height="42.7" rx="4.5"/></g><text class="cls-19" transform="translate(888.22 352.33)">24K RAM</text><text class="cls-19" transform="translate(888.22 375.74)">18K <tspan x="39.3" y="0" style="letter-spacing:-.04em">R</tspan><tspan x="51.4" y="0">OM</tspan></text><g id="logo_vg_5000" data-name="logo vg 5000"><path class="cls-21" d="M424.34 316.15h566.64"/><path d="M953.24 295.36a12.75 12.75 0 0 1-6.81-2.49 10.86 10.86 0 0 1-1.31-1.13 12.67 12.67 0 0 1-3.77-8.23c0-.48-.2-20 0-19.85a.79.79 0 0 1 .22-.05c.56-.06 2.56-.28 3.67-.36a117.65 117.65 0 0 1 14.28-.2c2.57.12 6.08.39 7.1.55h.13V283.83a12.75 12.75 0 0 1-13.5 11.51zm1.79-1.69a11.18 11.18 0 0 0 4-1.16 1.4 1.4 0 0 0 .35-.2c0-.07-.25-1.92-.31-2.28-.1-.66-.23-.93-.53-1.14a2.43 2.43 0 0 0-1-.29c-.45-.07-2.62-.35-2.71-.35s0 0 0-.09v-.09l1.12-.14a16 16 0 0 0 2.4-.38 1 1 0 0 0 .37-.26c.23-.23.3-.43.41-1.14.09-.55.35-2.6.35-2.72s-.05-.07-.61.08a14.21 14.21 0 0 0-3.37 1.49c-2.82 1.52-4.28 2-6.36 2.13a9.87 9.87 0 0 1-5.43-1.28l-.27-.15a8.88 8.88 0 0 0 .66 1.78 10.76 10.76 0 0 0 2.11 3 11 11 0 0 0 7 3.26h1.81zm1.76-.77c0-.09-.17-1.29-.2-1.4a.56.56 0 0 0-.41-.36l-.75-.11c-.52-.07-.63-.09-.6-.13l.65-.1c.75-.1.86-.13 1-.25s.15-.24.25-1a5.56 5.56 0 0 1 .1-.65s.07.08.1.31a7.49 7.49 0 0 0 .2 1.2c.11.22.21.26 1.19.38l.53.07-.82.15c-.64.09-.76.12-.87.27s-.12.24-.2.86-.1.75-.14.75zm3.51-1.12a11 11 0 0 0 3-3 1.15 1.15 0 0 0 .23-.39s-1.56.18-2.13.28a1.44 1.44 0 0 0-1 .4 1.35 1.35 0 0 0-.33.8c-.07.39-.3 2.06-.3 2.19s0 .08.08 0l.44-.29zm3.68-4.23a11.29 11.29 0 0 0 .67-1.7 13 13 0 0 0 .37-1.67c0-.24.05-.22-.51-.4a10.82 10.82 0 0 0-2.74-.54 11.15 11.15 0 0 0-2 .09c-.07 0-.09 0-.09.11s.29 2.42.37 2.89c.13.76.31 1.05.78 1.23a17.66 17.66 0 0 0 2 .33c1.04.11.89.18 1.17-.34zm-15.16-2.22a9.7 9.7 0 0 0 3.14-.73c.29-.12 1.32-.61 2.29-1.1a18.22 18.22 0 0 1 3.9-1.66 8.56 8.56 0 0 1 2.7-.28 9.16 9.16 0 0 1 3.92.87.85.85 0 0 0 .35.13s0-1.11-.08-1.28-.08-.12-.36-.27a10 10 0 0 0-3.64-1.09h-1a9 9 0 0 0-2.67.35 17.17 17.17 0 0 0-3.45 1.49l-2 1a11.16 11.16 0 0 1-3.37 1 12.83 12.83 0 0 1-2.56-.05 9.36 9.36 0 0 1-2.64-.8l-.36-.17v1.38l.27.16a8.51 8.51 0 0 0 2.26.87 10.25 10.25 0 0 0 3.21.28zm-.73-3.42a1.38 1.38 0 0 0 .3-.06s-.14-1.41-.28-2.45-.21-1.2-.48-1.47-.6-.32-2.36-.55l-.87-.11-.15.28a11.4 11.4 0 0 0-.85 2.17 8.36 8.36 0 0 0-.27 1.36v.21l.3.1a10.33 10.33 0 0 0 4.67.52zm1-.18a17 17 0 0 0 3.93-1.61 28.28 28.28 0 0 1 2.86-1.3 9.93 9.93 0 0 1 8.56.63c.27.17.27.16.09-.37a11.15 11.15 0 0 0-2.14-3.71A14 14 0 0 0 961 274a11 11 0 0 0-5.78-2.37 14.69 14.69 0 0 0-2.39 0 12 12 0 0 0-1.43.27s.14 1.27.2 1.56a.71.71 0 0 0 .34.53 4.79 4.79 0 0 0 1.22.22c.73.09.75.09.75.14s-.1.06-.34.09a9.72 9.72 0 0 0-1.62.27.68.68 0 0 0-.35.53c0 .23-.22 1.5-.2 1.51s.43.06.95.12l.94.11v.19l-2.8.36c-.69.11-.84.16-1.09.4s-.32.46-.46 1.48c-.11.73-.29 2.19-.29 2.29s0 .1.47 0zm-3.69-4.92c1.74-.22 1.94-.27 2.24-.55s.35-.54.53-1.94c.14-1.05.15-1.09.14-1.1a7.84 7.84 0 0 0-.94.62 12.38 12.38 0 0 0-2.16 2.18 9.25 9.25 0 0 0-.56.83c0 .06 0 .06.75 0zm5.8-.15c0-.06 0-.3-.07-.53-.15-1.17-.23-1.36-.67-1.46-.17 0-1.58-.23-1.6-.22a11.94 11.94 0 0 0 .23 1.32 1.09 1.09 0 0 0 .8.78c.17 0 1.1.2 1.28.21s0 0 0-.1zm-1.63-2.44a3.55 3.55 0 0 0 1.11-.21c.19-.1.28-.28.35-.67s.18-1.3.18-1.35a7.33 7.33 0 0 0-1.59.53 8.63 8.63 0 0 0-.91.46 3 3 0 0 0 0 .68c.06.54.08.65.13.65l.68-.09zm14.58-4.32a1.18 1.18 0 0 0 1.08-1.2c0-.63-.25-.89-1.18-1.22-.42-.16-.61-.28-.66-.42s0-.25.2-.32a2.51 2.51 0 0 1 1.1.06l.26.07a4.31 4.31 0 0 0-.07-.82 4.19 4.19 0 0 0-1.66-.08 1.49 1.49 0 0 0-.76.39 1.11 1.11 0 0 0 0 1.52 2.22 2.22 0 0 0 .82.43c.59.22.73.33.7.54s-.19.32-.6.32a3.44 3.44 0 0 1-1.09-.2.76.76 0 0 0-.25-.07 8.34 8.34 0 0 0 .11.83c0 .06.12.1.43.16a4.15 4.15 0 0 0 1.53 0zm-19.78-.48V269h.37a1.73 1.73 0 0 0 1.68-.79 1.58 1.58 0 0 0 .17-.9 1 1 0 0 0-.12-.54c-.24-.51-.7-.74-1.57-.81a14.05 14.05 0 0 0-1.65.07h-.07v3.88h1.19zm.07-1.95v-.8h.19a.78.78 0 0 1 .77.38 1.34 1.34 0 0 1 0 .72.74.74 0 0 1-.74.48h-.25zm3.82 1.66v-.77h1.23v1.53h1.19V266h-1.19v1.53h-1.23V266h-1.2v3.89h1.2zm4.48-1.18V266h-1.2v3.89h1.2zm3.09 1.62.09-.4v-.08h-1.12V266h-1.2v3.89h2.15zm1.73-1.62V266h-1.23v3.89h1.23zm2.05 1.47V269h.39a3.37 3.37 0 0 0 .6 0 1.49 1.49 0 0 0 1.21-1.86c-.13-.71-.64-1.05-1.67-1.13a13.57 13.57 0 0 0-1.65.07c-.06 0-.06.14-.06 2v1.94h1.19zm.07-1.95v-.8h.19c.52 0 .8.22.83.68a.75.75 0 0 1-.79.9h-.23z" transform="translate(3.33 14)" style="fill:#fff"/></g><path style="fill:none" d="M0 0h1416.89v1080H0z"/><g id="logo_vg_5000-2" data-name="logo vg 5000"><path class="cls-21" d="M541.69 321.25h-16.25l-5.1 15a1.7 1.7 0 0 0 .22.15c1-.41 2-1.15 6.52-1.15 7 0 14.08 4.45 14.25 13.33.15 7.83-6.72 13.32-14.49 13.32-6.63 0-10.72-2.92-11.3-5.14" transform="translate(3.33 14)"/><path d="M634.47 327.79c2.23-3.64-.31-6 .42-7.65h.08c.18 4.44 1 5.9 2.39 5.81.9-.06 2.43-.6 2.43-6.09 0 3.55.12 3.8.37 4.14a1.17 1.17 0 0 0 1.4.52" transform="translate(3.33 14)" style="stroke-width:1.5px;stroke:#eaeaea;stroke-miterlimit:10;fill:none"/><path class="cls-21" d="M493.69 330.21a20.3 20.3 0 1 0 3.41 12.88h-18.51" transform="translate(3.33 14)"/><path class="cls-25" d="m444.3 377.42-14.67-43.77h3.17l12.68 37.18 12.93-37.18h3.21l-15.18 43.77h-2.14z"/><ellipse class="cls-21" cx="561.1" cy="355.51" rx="12.31" ry="20.3"/><ellipse class="cls-21" cx="590.25" cy="355.51" rx="12.31" ry="20.3"/><ellipse class="cls-21" cx="619.49" cy="355.51" rx="12.31" ry="20.3"/><g id="LOGO_PHILIPS" data-name="LOGO PHILIPS"><path id="path7" class="cls-25" d="M510.21 276.36c3 .81 6.79 2.43 6.73 6-.11 6.66-8.61 6.05-11.63 5.33v-4.33c6.32 1.81 10.52-1.18 2.63-3.15a4.65 4.65 0 0 1-3-4.78c.61-5.85 5.48-6 10.24-5.32v4.29c-4.85-2.34-6.75 1.26-5 1.93" transform="translate(3.33 14)"/><path id="polyline9" class="cls-25" d="M449.61 290.71h4.9v-6.51h4.56v17.51h-4.56v-7.03h-4.9v7.03h-4.56V284.2h4.56v6.51"/><path id="rect11" class="cls-25" d="M463.36 284.2h4.56v17.52h-4.56z"/><path id="rect13" class="cls-25" d="M483.72 284.2h4.56v17.52h-4.56z"/><path id="polyline15" class="cls-25" d="M476.76 297.74h4.7v3.97h-9.26V284.2h4.56v13.54"/><path id="path17" class="cls-25" d="M426.14 274.05v-3.87c6.86 0 13.68-1.08 13.68 6.9 0 4.5-3 7.23-10.11 6.89l1-4c6.09 1 5.81-7.23 0-5.91h-4.56" transform="translate(3.33 14)"/><path id="polyline19" class="cls-25" d="M434.04 301.71h-4.56v-14.18l4.55.03.01 14.15"/><path id="path17-2" data-name="path17" class="cls-25" d="M489.28 274.05v-3.87c6.86 0 13.68-1.08 13.68 6.9 0 4.7-3 7.23-10.11 6.89l1-4c6.08 1 5.81-7.23 0-5.91h-4.56" transform="translate(3.33 14)"/><path id="polyline19-2" data-name="polyline19" class="cls-25" d="M497.18 301.71h-4.56v-14.18l4.55.03.01 14.15"/></g></g></svg>