<svg id="Calque_1" data-name="Calque 1" xmlns="http://www.w3.org/2000/svg" width="2010.22" height="1080"><defs><clipPath id="clip-path" transform="translate(3.33 14)"><path class="cls-1" d="M1496.01 718.84h504.69v318.88h-504.69z"/></clipPath><style>.cls-1,.cls-11,.cls-21,.cls-25,.cls-39,.cls-4,.cls-9{fill:none}.cls-2{fill:#333}.cls-3{fill:#262626}.cls-4,.cls-9{stroke:#232323}.cls-11,.cls-21,.cls-25,.cls-28,.cls-30,.cls-37,.cls-39,.cls-4,.cls-9{stroke-miterlimit:10}.cls-21,.cls-28,.cls-37,.cls-39,.cls-4{stroke-width:3px}.cls-5{fill:#3a3a3a}.cls-6{fill:#232323}.cls-7{fill:#383838}.cls-8{fill:#3f3f3f}.cls-11,.cls-9{stroke-width:2px}.cls-39{stroke:#000}.cls-11{stroke:#262626}.cls-13{fill:#191919}.cls-14{fill:#e5c733}.cls-16{fill:#141414}.cls-17{fill:#686868}.cls-18{fill:#f2e7b6}.cls-19{fill:#726a44}.cls-20{fill:#eaeaea}.cls-21{stroke:#eaeaea}.cls-22{fill:#fff}.cls-25{stroke:#727272;stroke-width:6px}.cls-26,.cls-30,.cls-34{fill:#1d1d1b}.cls-27{fill:#7e4e24}.cls-28{fill:#b1b1b1;stroke:#6f6f6e}.cls-29{fill:#6f6f6e}.cls-30,.cls-37{stroke:#fff}.cls-30{stroke-width:4px}.cls-34{opacity:.26}.cls-36{fill:#ffc000}.cls-37{fill:#f29100}</style></defs><path class="cls-2" d="m41.11 87.4-9.04 131.13 1353.31-.02-8.79-131.11H41.11z"/><path id="fond" class="cls-3" d="m1400.77 399.78 8.38 12.37L1395.66 974s-8 48.89-10.23 55.56-5.33 9.33-15.11 8.88H40.44c-9.77.45-12.88-2.22-15.11-8.88S15.11 974 15.11 974L1.56 412.56 10 399.78z" transform="translate(3.33 14)"/><path class="cls-4" d="m33.02 204.83 1351.46.26M35.28 175.55l1347.16.26M36.96 147.18l1343.66.26M39.03 117.64l1339.58.36M40.96 89.11l1335.76.21"/><path class="cls-5" d="M1382.39 131c-.3-4.19-.58-8.32-.87-12.36a1.38 1.38 0 0 0-1.38-1.29H31.52a1.39 1.39 0 0 0-1.39 1.28q-.4 5.91-.84 12a1.39 1.39 0 0 0 1.38 1.49l1350.34.3a1.4 1.4 0 0 0 1.38-1.42zM1384.37 159.28q-.39-5.59-.78-11.07a1.38 1.38 0 0 0-1.38-1.28H29.44a1.39 1.39 0 0 0-1.38 1.28c-.25 3.55-.5 7.14-.75 10.75a1.39 1.39 0 0 0 1.38 1.49l1354.3.3a1.38 1.38 0 0 0 1.38-1.47zM32.74 102.66l1346.19.3a1.39 1.39 0 0 0 1.38-1.5q-.43-6.37-.86-12.36a1.38 1.38 0 0 0-1.39-1.28H33.59a1.37 1.37 0 0 0-1.38 1.28c-.27 3.89-.56 7.92-.85 12a1.41 1.41 0 0 0 1.38 1.56zM1377 74.4a1.27 1.27 0 0 0 1.26-1.36c-1.91-27.2-3.17-45.9-3.26-47-.44-5.33-2.67-10.22-9.33-10.67H46c-6.67.45-8.89 5.34-9.33 10.67-.1 1.14-1.34 19.71-3.24 46.74a1.27 1.27 0 0 0 1.26 1.36zM25.16 205.41c-6.71 95.87-13.6 194.37-13.6 194.37h1390.76s-6.89-98.51-13.61-194.39a.94.94 0 0 0-.94-.88H26.11a1 1 0 0 0-.95.9zM1384.19 175.18H27.46a1.38 1.38 0 0 0-1.38 1.29q-.41 5.88-.83 11.82a1.39 1.39 0 0 0 1.38 1.49l1358.41.3a1.39 1.39 0 0 0 1.39-1.48q-.43-6.11-.86-12.14a1.38 1.38 0 0 0-1.38-1.28z" transform="translate(3.33 14)"/><path id="sous_clavier" data-name="sous clavier" class="cls-5" d="M1412.55 426.56 1398.99 988H18.44L4.89 426.56h1407.66z"/><path class="cls-6" d="m1024.61 79.55 8.96 131.96H384.3l10.06-131.94 630.25-.02z"/><path class="cls-7" d="m1016.89 79.56 5.93 131.59H392.86l7.58-131.58 616.45-.01z"/><path class="cls-8" d="m388.09 109.34 641.55-.01-1.1-16.05-639.2-.35-1.25 16.41zM383.58 168.46l650.1-.02-1.09-16.05-647.75-.35-1.26 16.42zM381.35 197.79l654.34-.02-1.07-15.6-652.06-.36-1.21 15.98z"/><path class="cls-8" d="m1024.27 65.55-4-59.22a6.07 6.07 0 0 0-6.06-5.66h-616.6a6.08 6.08 0 0 0-6.06 5.62L387 65.57z" transform="translate(3.33 14)"/><path class="cls-8" d="m385.86 138.68 645.79-.02-1.07-15.6-643.51-.36-1.21 15.98z"/><path class="cls-8" d="M1033.24 197.51 377 197.15v.36c-6.81 105.5-13.58 214.05-12.9 214.05h682.67z" transform="translate(3.33 14)"/><path class="cls-9" d="m381.35 197.79 654.34-.02M383.58 168.46l650.1-.02M385.85 138.68l645.8-.02M390.36 109.35l639.28-.02M390.36 79.57l637.25-.02"/><path id="trai_autour_clavier" data-name="trai autour clavier" d="m1292.42 509.28-10.55 417.21a15.22 15.22 0 0 1-15.22 14.84H143.72a15.22 15.22 0 0 1-15.22-14.84L118 509.28a15.22 15.22 0 0 1 15.22-15.61h1144a15.23 15.23 0 0 1 15.2 15.61z" transform="translate(3.33 14)" style="stroke-width:.75px;stroke:#000;fill:#353535;stroke-miterlimit:10"/><path class="cls-11" d="m367.41 425.56 13.94-214.41M1050.91 422.36l-14.34-210.85"/><path style="stroke:#9f9f9f;stroke-width:.75px;stroke-miterlimit:10;fill:none" d="M4.89 426.56h1407.66"/><rect class="cls-13" x="168.25" y="548.93" width="125.24" height="42.7" rx="3.94"/><rect class="cls-13" x="881.58" y="801.44" width="125.24" height="42.7" rx="3.94"/><rect class="cls-13" x="1136.63" y="546.88" width="123.66" height="38.69" rx="3.94"/><rect class="cls-14" x="165.33" y="545" width="125.24" height="42.7" rx="3.94"/><rect class="cls-14" x="875.74" y="798.3" width="128" height="42.7" rx="3.94"/><rect x="372.32" y="886.5" width="291.39" height="42.7" rx="3.94" style="fill:#111"/><rect class="cls-3" x="368.76" y="882.21" width="291.39" height="42.7" rx="3.94"/><rect class="cls-14" x="1135.26" y="545" width="122.44" height="37.33" rx="3.94"/><g id="OMBRES_TOCHES_CLAVIERS" data-name="OMBRES TOCHES CLAVIERS"><rect class="cls-16" x="329.78" y="543.81" width="48.33" height="42.7" rx="4.5"/><rect class="cls-16" x="408.89" y="543.81" width="48.33" height="42.7" rx="4.5"/><rect class="cls-16" x="489.19" y="543.81" width="48.33" height="42.7" rx="4.5"/><rect class="cls-16" x="568.3" y="543.81" width="48.33" height="42.7" rx="4.5"/><rect class="cls-16" x="648.6" y="543.81" width="48.33" height="42.7" rx="4.5"/><rect class="cls-16" x="727.71" y="543.81" width="48.33" height="42.7" rx="4.5"/><rect class="cls-16" x="808" y="543.81" width="48.33" height="42.7" rx="4.5"/><rect class="cls-16" x="887.11" y="543.81" width="48.33" height="42.7" rx="4.5"/><rect class="cls-16" x="966.82" y="543.81" width="48.33" height="42.7" rx="4.5"/><rect class="cls-16" x="170.67" y="670.03" width="48.33" height="42.7" rx="4.5"/><rect class="cls-16" x="249.78" y="670.03" width="48.33" height="42.7" rx="4.5"/><rect class="cls-16" x="330.08" y="670.03" width="48.33" height="42.7" rx="4.5"/><rect class="cls-16" x="409.19" y="670.03" width="48.33" height="42.7" rx="4.5"/><rect class="cls-16" x="489.48" y="670.03" width="48.33" height="42.7" rx="4.5"/><rect class="cls-16" x="568.6" y="670.03" width="48.33" height="42.7" rx="4.5"/><rect class="cls-16" x="648.89" y="670.03" width="48.33" height="42.7" rx="4.5"/><rect class="cls-16" x="728" y="670.03" width="48.33" height="42.7" rx="4.5"/><rect class="cls-16" x="807.71" y="670.03" width="48.33" height="42.7" rx="4.5"/><rect class="cls-16" x="887.11" y="670.45" width="48.33" height="42.7" rx="4.5"/><rect class="cls-16" x="209.37" y="733.56" width="48.33" height="42.7" rx="4.5"/><rect class="cls-16" x="288.48" y="733.56" width="48.33" height="42.7" rx="4.5"/><rect class="cls-16" x="368.78" y="733.56" width="48.33" height="42.7" rx="4.5"/><rect class="cls-16" x="447.89" y="733.56" width="48.33" height="42.7" rx="4.5"/><rect class="cls-16" x="528.19" y="733.56" width="48.33" height="42.7" rx="4.5"/><rect class="cls-16" x="607.3" y="733.56" width="48.33" height="42.7" rx="4.5"/><rect class="cls-16" x="250.97" y="797.1" width="48.33" height="42.7" rx="4.5"/><rect class="cls-16" x="330.08" y="797.1" width="48.33" height="42.7" rx="4.5"/><rect class="cls-16" x="410.37" y="797.1" width="48.33" height="42.7" rx="4.5"/><rect class="cls-16" x="489.48" y="797.1" width="48.33" height="42.7" rx="4.5"/><rect class="cls-16" x="569.67" y="797.1" width="48.33" height="42.7" rx="4.5"/><rect class="cls-16" x="648.78" y="797.1" width="48.33" height="42.7" rx="4.5"/><rect class="cls-16" x="687.6" y="733.56" width="48.33" height="42.7" rx="4.5"/><rect class="cls-16" x="766.71" y="733.56" width="48.33" height="42.7" rx="4.5"/><rect class="cls-16" x="846.41" y="733.56" width="48.33" height="42.7" rx="4.5"/><rect class="cls-16" x="924.04" y="733.56" width="48.33" height="42.7" rx="4.5"/><rect class="cls-16" x="1063.15" y="610.56" width="48.33" height="42.7" rx="4.5"/><rect class="cls-16" x="1137.82" y="610.56" width="48.33" height="42.7" rx="4.5"/><rect class="cls-16" x="1211.48" y="610.56" width="48.33" height="42.7" rx="4.5"/><rect class="cls-16" x="611.02" y="610.56" width="48.33" height="42.7" rx="4.5"/><rect class="cls-16" x="690.69" y="610.56" width="48.33" height="42.7" rx="4.5"/><rect class="cls-16" x="769.35" y="610.56" width="48.33" height="42.7" rx="4.5"/><rect class="cls-16" x="373.98" y="610.56" width="48.33" height="42.7" rx="4.5"/><rect class="cls-16" x="293.49" y="610.56" width="48.33" height="42.7" rx="4.5"/><rect class="cls-16" x="453.65" y="610.56" width="48.33" height="42.7" rx="4.5"/><rect class="cls-16" x="532.31" y="610.56" width="48.33" height="42.7" rx="4.5"/><rect class="cls-16" x="1211.48" y="680.85" width="48.33" height="42.7" rx="4.5"/><rect class="cls-16" x="1137.82" y="680.85" width="48.33" height="42.7" rx="4.5"/><rect class="cls-16" x="1063.15" y="680.85" width="48.33" height="42.7" rx="4.5"/><rect class="cls-16" x="1211.48" y="751.49" width="48.33" height="42.7" rx="4.5"/><rect class="cls-16" x="1137.82" y="751.49" width="48.33" height="42.7" rx="4.5"/><rect class="cls-16" x="1211.48" y="814.38" width="48.33" height="42.7" rx="4.5"/><rect class="cls-16" x="1137.82" y="814.38" width="48.33" height="42.7" rx="4.5"/><rect class="cls-16" x="1211.48" y="885.46" width="48.33" height="42.7" rx="4.5"/><rect class="cls-16" x="1137.82" y="885.46" width="48.33" height="42.7" rx="4.5"/><rect class="cls-16" x="1063.15" y="751.49" width="48.33" height="42.7" rx="4.5"/></g><g id="REFLETS_TOUCHES" data-name="REFLETS TOUCHES"><path class="cls-17" d="M328.28 528.38h39.33a4.49 4.49 0 0 1 4.5 4.5v-2a4.49 4.49 0 0 0-4.5-4.5h-39.33a4.5 4.5 0 0 0-4.5 4.5v2a4.5 4.5 0 0 1 4.5-4.5zM407.39 528.38h39.33a4.49 4.49 0 0 1 4.5 4.5v-2a4.49 4.49 0 0 0-4.5-4.5h-39.33a4.5 4.5 0 0 0-4.5 4.5v2a4.5 4.5 0 0 1 4.5-4.5zM487.69 528.38H527a4.5 4.5 0 0 1 4.5 4.5v-2a4.5 4.5 0 0 0-4.5-4.5h-39.31a4.49 4.49 0 0 0-4.5 4.5v2a4.49 4.49 0 0 1 4.5-4.5zM566.8 528.38h39.33a4.5 4.5 0 0 1 4.5 4.5v-2a4.5 4.5 0 0 0-4.5-4.5H566.8a4.49 4.49 0 0 0-4.5 4.5v2a4.49 4.49 0 0 1 4.5-4.5zM647.1 528.38h39.33a4.5 4.5 0 0 1 4.5 4.5v-2a4.5 4.5 0 0 0-4.5-4.5H647.1a4.49 4.49 0 0 0-4.5 4.5v2a4.49 4.49 0 0 1 4.5-4.5zM726.21 528.38h39.33a4.5 4.5 0 0 1 4.5 4.5v-2a4.5 4.5 0 0 0-4.5-4.5h-39.33a4.49 4.49 0 0 0-4.5 4.5v2a4.49 4.49 0 0 1 4.5-4.5zM806.5 528.38h39.33a4.49 4.49 0 0 1 4.5 4.5v-2a4.49 4.49 0 0 0-4.5-4.5H806.5a4.5 4.5 0 0 0-4.5 4.5v2a4.5 4.5 0 0 1 4.5-4.5zM885.61 528.38h39.33a4.49 4.49 0 0 1 4.5 4.5v-2a4.49 4.49 0 0 0-4.5-4.5h-39.33a4.5 4.5 0 0 0-4.5 4.5v2a4.5 4.5 0 0 1 4.5-4.5zM1004.65 526.38h-39.33a4.49 4.49 0 0 0-4.5 4.5v2a4.49 4.49 0 0 1 4.5-4.5h39.33a4.5 4.5 0 0 1 4.5 4.5v-2a4.5 4.5 0 0 0-4.5-4.5zM169.17 654.6h39.33a4.49 4.49 0 0 1 4.5 4.5v-2a4.49 4.49 0 0 0-4.5-4.5h-39.33a4.49 4.49 0 0 0-4.5 4.5v2a4.49 4.49 0 0 1 4.5-4.5zM248.28 654.6h39.33a4.49 4.49 0 0 1 4.5 4.5v-2a4.49 4.49 0 0 0-4.5-4.5h-39.33a4.5 4.5 0 0 0-4.5 4.5v2a4.5 4.5 0 0 1 4.5-4.5zM367.91 652.6h-39.33a4.49 4.49 0 0 0-4.5 4.5v2a4.49 4.49 0 0 1 4.5-4.5h39.33a4.5 4.5 0 0 1 4.5 4.5v-2a4.5 4.5 0 0 0-4.5-4.5zM447 652.6h-39.31a4.49 4.49 0 0 0-4.5 4.5v2a4.49 4.49 0 0 1 4.5-4.5H447a4.5 4.5 0 0 1 4.5 4.5v-2a4.5 4.5 0 0 0-4.5-4.5zM527.31 652.6H488a4.5 4.5 0 0 0-4.5 4.5v2a4.5 4.5 0 0 1 4.5-4.5h39.33a4.49 4.49 0 0 1 4.5 4.5v-2a4.49 4.49 0 0 0-4.52-4.5zM606.43 652.6H567.1a4.49 4.49 0 0 0-4.5 4.5v2a4.49 4.49 0 0 1 4.5-4.5h39.33a4.5 4.5 0 0 1 4.5 4.5v-2a4.5 4.5 0 0 0-4.5-4.5zM647.39 654.6h39.33a4.49 4.49 0 0 1 4.5 4.5v-2a4.49 4.49 0 0 0-4.5-4.5h-39.33a4.5 4.5 0 0 0-4.5 4.5v2a4.5 4.5 0 0 1 4.5-4.5zM765.83 652.6H726.5a4.5 4.5 0 0 0-4.5 4.5v2a4.5 4.5 0 0 1 4.5-4.5h39.33a4.49 4.49 0 0 1 4.5 4.5v-2a4.49 4.49 0 0 0-4.5-4.5zM806.21 654.6h39.33a4.5 4.5 0 0 1 4.5 4.5v-2a4.5 4.5 0 0 0-4.5-4.5h-39.33a4.49 4.49 0 0 0-4.5 4.5v2a4.49 4.49 0 0 1 4.5-4.5zM885.61 655h39.33a4.49 4.49 0 0 1 4.5 4.5v-2a4.49 4.49 0 0 0-4.5-4.5h-39.33a4.5 4.5 0 0 0-4.5 4.5v2a4.5 4.5 0 0 1 4.5-4.5zM207.87 718.13h39.33a4.5 4.5 0 0 1 4.5 4.5v-2a4.5 4.5 0 0 0-4.5-4.5h-39.33a4.51 4.51 0 0 0-4.5 4.5v2a4.51 4.51 0 0 1 4.5-4.5zM287 716.14a4.5 4.5 0 0 0-4.5 4.5v2a4.5 4.5 0 0 1 4.5-4.5h39.33a4.49 4.49 0 0 1 4.5 4.5v-2a4.49 4.49 0 0 0-4.5-4.5zM367.28 716.13a4.51 4.51 0 0 0-4.5 4.5v2a4.51 4.51 0 0 1 4.5-4.5h39.33a4.5 4.5 0 0 1 4.5 4.5v-2a4.5 4.5 0 0 0-4.5-4.5zM446.39 716.14a4.5 4.5 0 0 0-4.5 4.5v2a4.5 4.5 0 0 1 4.5-4.5h39.33a4.49 4.49 0 0 1 4.5 4.5v-2a4.49 4.49 0 0 0-4.5-4.5zM526.69 716.13a4.5 4.5 0 0 0-4.5 4.5v2a4.5 4.5 0 0 1 4.5-4.5H566a4.51 4.51 0 0 1 4.5 4.5v-2a4.51 4.51 0 0 0-4.5-4.5zM605.8 716.14a4.49 4.49 0 0 0-4.5 4.5v2a4.49 4.49 0 0 1 4.5-4.5h39.33a4.5 4.5 0 0 1 4.5 4.5v-2a4.5 4.5 0 0 0-4.5-4.5zM288.8 779.67h-39.33a4.5 4.5 0 0 0-4.5 4.5v2a4.5 4.5 0 0 1 4.5-4.5h39.33a4.51 4.51 0 0 1 4.5 4.5v-2a4.51 4.51 0 0 0-4.5-4.5zM652.3 866H370a4.5 4.5 0 0 0-4.5 4.5v2a4.5 4.5 0 0 1 4.5-4.5h282.3a4.51 4.51 0 0 1 4.5 4.5v-2a4.51 4.51 0 0 0-4.5-4.5zM367.91 779.67h-39.33a4.5 4.5 0 0 0-4.5 4.5v2a4.5 4.5 0 0 1 4.5-4.5h39.33a4.51 4.51 0 0 1 4.5 4.5v-2a4.51 4.51 0 0 0-4.5-4.5zM448.2 779.67h-39.33a4.51 4.51 0 0 0-4.5 4.5v2a4.51 4.51 0 0 1 4.5-4.5h39.33a4.5 4.5 0 0 1 4.5 4.5v-2a4.5 4.5 0 0 0-4.5-4.5zM527.31 779.67H488a4.51 4.51 0 0 0-4.5 4.5v2a4.51 4.51 0 0 1 4.5-4.5h39.33a4.5 4.5 0 0 1 4.5 4.5v-2a4.5 4.5 0 0 0-4.52-4.5zM607.5 779.67h-39.33a4.5 4.5 0 0 0-4.5 4.5v2a4.5 4.5 0 0 1 4.5-4.5h39.33a4.5 4.5 0 0 1 4.5 4.5v-2a4.5 4.5 0 0 0-4.5-4.5zM686.61 779.67h-39.33a4.51 4.51 0 0 0-4.5 4.5v2a4.51 4.51 0 0 1 4.5-4.5h39.33a4.5 4.5 0 0 1 4.5 4.5v-2a4.5 4.5 0 0 0-4.5-4.5zM725.43 716.13H686.1a4.5 4.5 0 0 0-4.5 4.5v2a4.5 4.5 0 0 1 4.5-4.5h39.33a4.51 4.51 0 0 1 4.5 4.5v-2a4.51 4.51 0 0 0-4.5-4.5zM804.54 716.14h-39.33a4.49 4.49 0 0 0-4.5 4.5v2a4.49 4.49 0 0 1 4.5-4.5h39.33a4.5 4.5 0 0 1 4.5 4.5v-2a4.5 4.5 0 0 0-4.5-4.5zM884.24 716.14h-39.33a4.49 4.49 0 0 0-4.5 4.5v2a4.49 4.49 0 0 1 4.5-4.5h39.33a4.49 4.49 0 0 1 4.5 4.5v-2a4.49 4.49 0 0 0-4.5-4.5zM961.87 716.14h-39.33a4.49 4.49 0 0 0-4.5 4.5v2a4.49 4.49 0 0 1 4.5-4.5h39.33a4.49 4.49 0 0 1 4.5 4.5v-2a4.49 4.49 0 0 0-4.5-4.5z" transform="translate(3.33 14)"/><path class="cls-18" d="M291.74 593.38h39.33a4.49 4.49 0 0 1 4.5 4.5v-2a4.49 4.49 0 0 0-4.5-4.5h-39.33a4.5 4.5 0 0 0-4.5 4.5v2a4.5 4.5 0 0 1 4.5-4.5zM370.85 593.38h39.34a4.5 4.5 0 0 1 4.5 4.5v-2a4.5 4.5 0 0 0-4.5-4.5h-39.34a4.5 4.5 0 0 0-4.5 4.5v2a4.5 4.5 0 0 1 4.5-4.5zM451 593.38h39.3a4.5 4.5 0 0 1 4.5 4.5v-2a4.5 4.5 0 0 0-4.5-4.5H451a4.49 4.49 0 0 0-4.5 4.5v2a4.49 4.49 0 0 1 4.5-4.5zM530 593.38h39.33a4.5 4.5 0 0 1 4.5 4.5v-2a4.5 4.5 0 0 0-4.5-4.5H530a4.49 4.49 0 0 0-4.5 4.5v2a4.49 4.49 0 0 1 4.5-4.5zM609.13 593.38h39.33a4.49 4.49 0 0 1 4.5 4.5v-2a4.49 4.49 0 0 0-4.5-4.5h-39.33a4.49 4.49 0 0 0-4.5 4.5v2a4.49 4.49 0 0 1 4.5-4.5zM689.24 593.38h39.33a4.49 4.49 0 0 1 4.5 4.5v-2a4.49 4.49 0 0 0-4.5-4.5h-39.33a4.5 4.5 0 0 0-4.5 4.5v2a4.5 4.5 0 0 1 4.5-4.5zM767.87 591.38a4.5 4.5 0 0 0-4.5 4.5v2a4.5 4.5 0 0 1 4.5-4.5h39.33a4.49 4.49 0 0 1 4.5 4.5v-2a4.49 4.49 0 0 0-4.5-4.5M733.08 782.1a4.5 4.5 0 0 0-4.5 4.5v2a4.5 4.5 0 0 1 4.5-4.5h39.33a4.51 4.51 0 0 1 4.5 4.5v-2a4.51 4.51 0 0 0-4.5-4.5M733.08 866a4.5 4.5 0 0 0-4.5 4.5v2a4.5 4.5 0 0 1 4.5-4.5h39.33a4.51 4.51 0 0 1 4.5 4.5v-2a4.51 4.51 0 0 0-4.5-4.5M1106.07 595.88c0-2.49-2-4.5-2.72-4.5H1064c-4.26 0-6.28 2-6.28 4.5M1106.11 666.83a4.51 4.51 0 0 0-4.5-4.5h-39.33a4.5 4.5 0 0 0-4.5 4.5M1180.29 666.83a4.5 4.5 0 0 0-4.5-4.5h-39.33a4.51 4.51 0 0 0-4.5 4.5M1254.37 666.83a4.51 4.51 0 0 0-4.5-4.5h-39.33a4.5 4.5 0 0 0-4.5 4.5M1180.26 595.88c0-2.49-2-4.5-2.73-4.5h-39.33c-4.26 0-6.27 2-6.27 4.5M1254.37 595.88a4.5 4.5 0 0 0-4.5-4.5h-39.33a4.49 4.49 0 0 0-4.5 4.5M1106.11 737.32c0-2.49-2-4.5-2.72-4.5h-39.33c-4.27 0-6.28 2-6.28 4.5M1180.29 800.27a4.5 4.5 0 0 0-4.5-4.5h-39.33a4.51 4.51 0 0 0-4.5 4.5M1254.4 800.27a4.5 4.5 0 0 0-4.5-4.5h-39.33a4.51 4.51 0 0 0-4.5 4.5M1180.29 870.46a4.49 4.49 0 0 0-4.5-4.5h-39.33a4.5 4.5 0 0 0-4.5 4.5M1254.4 870.46a4.49 4.49 0 0 0-4.5-4.5h-39.33a4.5 4.5 0 0 0-4.5 4.5M1180.29 737.32c0-2.49-2-4.5-2.72-4.5h-39.33c-4.26 0-6.28 2-6.28 4.5M1254.4 737.32a4.49 4.49 0 0 0-4.5-4.5h-39.33a4.5 4.5 0 0 0-4.5 4.5" transform="translate(3.33 14)"/></g><g id="TOUCHES_NOIRES" data-name="TOUCHES NOIRES"><rect class="cls-3" x="327.11" y="542.38" width="48.33" height="40.7" rx="4.5"/><rect class="cls-3" x="406.22" y="542.38" width="48.33" height="40.7" rx="4.5"/><rect class="cls-3" x="486.52" y="542.38" width="48.33" height="40.7" rx="4.5"/><rect class="cls-3" x="565.63" y="542.38" width="48.33" height="40.7" rx="4.5"/><rect class="cls-3" x="645.93" y="542.38" width="48.33" height="40.7" rx="4.5"/><rect class="cls-3" x="725.04" y="542.38" width="48.33" height="40.7" rx="4.5"/><rect class="cls-3" x="805.34" y="542.38" width="48.33" height="40.7" rx="4.5"/><rect class="cls-3" x="884.45" y="542.38" width="48.33" height="40.7" rx="4.5"/><rect class="cls-3" x="964.15" y="542.38" width="48.33" height="40.7" rx="4.5"/><rect class="cls-3" x="168" y="668.6" width="48.33" height="40.7" rx="4.5"/><rect class="cls-3" x="247.11" y="668.6" width="48.33" height="40.7" rx="4.5"/><rect class="cls-3" x="327.41" y="668.6" width="48.33" height="40.7" rx="4.5"/><rect class="cls-3" x="406.52" y="668.6" width="48.33" height="40.7" rx="4.5"/><rect class="cls-3" x="486.82" y="668.6" width="48.33" height="40.7" rx="4.5"/><rect class="cls-3" x="565.93" y="668.6" width="48.33" height="40.7" rx="4.5"/><rect class="cls-3" x="646.22" y="668.6" width="48.33" height="40.7" rx="4.5"/><rect class="cls-3" x="725.34" y="668.6" width="48.33" height="40.7" rx="4.5"/><rect class="cls-3" x="805.04" y="668.6" width="48.33" height="40.7" rx="4.5"/><rect class="cls-3" x="884.45" y="669.03" width="48.33" height="40.7" rx="4.5"/><rect class="cls-3" x="206.71" y="732.13" width="48.33" height="40.7" rx="4.5"/><rect class="cls-3" x="285.82" y="732.14" width="48.33" height="40.7" rx="4.5"/><rect class="cls-3" x="366.11" y="732.13" width="48.33" height="40.7" rx="4.5"/><rect class="cls-3" x="445.22" y="732.14" width="48.33" height="40.7" rx="4.5"/><rect class="cls-3" x="525.52" y="732.13" width="48.33" height="40.7" rx="4.5"/><rect class="cls-3" x="604.63" y="732.14" width="48.33" height="40.7" rx="4.5"/><rect class="cls-3" x="248.3" y="795.67" width="48.33" height="40.7" rx="4.5"/><rect class="cls-3" x="327.41" y="795.67" width="48.33" height="40.7" rx="4.5"/><rect class="cls-3" x="407.71" y="795.67" width="48.33" height="40.7" rx="4.5"/><rect class="cls-3" x="486.82" y="795.67" width="48.33" height="40.7" rx="4.5"/><rect class="cls-3" x="567" y="795.67" width="48.33" height="40.7" rx="4.5"/><rect class="cls-3" x="646.11" y="795.67" width="48.33" height="40.7" rx="4.5"/><rect class="cls-3" x="684.93" y="732.13" width="48.33" height="40.7" rx="4.5"/><rect class="cls-3" x="764.04" y="732.14" width="48.33" height="40.7" rx="4.5"/><rect class="cls-3" x="843.74" y="732.14" width="48.33" height="40.7" rx="4.5"/><rect class="cls-3" x="921.37" y="732.14" width="48.33" height="40.7" rx="4.5"/></g><g id="TOUCGES_MARRONS" data-name="TOUCGES MARRONS"><rect class="cls-19" x="290.58" y="607.49" width="48.33" height="42.7" rx="4.5"/><rect class="cls-19" x="369.69" y="607.49" width="48.33" height="42.7" rx="4.5"/><rect class="cls-19" x="449.98" y="607.49" width="48.33" height="42.7" rx="4.5"/><rect class="cls-19" x="528.85" y="607.49" width="48.33" height="42.7" rx="4.5"/><rect class="cls-19" x="607.96" y="607.49" width="48.33" height="42.7" rx="4.5"/><rect class="cls-19" x="688.26" y="607.49" width="48.33" height="42.7" rx="4.5"/><rect class="cls-19" x="766.71" y="607.49" width="48.33" height="42.7" rx="4.5"/><rect class="cls-19" x="1061.07" y="607.49" width="48.33" height="42.7" rx="4.5"/><rect class="cls-19" x="1135.26" y="607.48" width="48.33" height="42.7" rx="4.5"/><rect class="cls-19" x="1209.37" y="607.49" width="48.33" height="42.7" rx="4.5"/><rect class="cls-19" x="1061.07" y="678.6" width="48.33" height="42.7" rx="4.5"/><rect class="cls-19" x="1135.26" y="678.6" width="48.33" height="42.7" rx="4.5"/><rect class="cls-19" x="1209.37" y="678.6" width="48.33" height="42.7" rx="4.5"/><rect class="cls-19" x="1061.07" y="748.82" width="48.33" height="42.7" rx="4.5"/><rect class="cls-19" x="1135.26" y="748.82" width="48.33" height="42.7" rx="4.5"/><rect class="cls-19" x="1209.37" y="748.82" width="48.33" height="42.7" rx="4.5"/><rect class="cls-19" x="1135.26" y="811.98" width="48.33" height="42.7" rx="4.5"/><rect class="cls-19" x="1209.37" y="811.98" width="48.33" height="42.7" rx="4.5"/><rect class="cls-19" x="1135.26" y="882.2" width="48.33" height="42.7" rx="4.5"/><rect class="cls-19" x="1209.37" y="882.21" width="48.33" height="42.7" rx="4.5"/><rect class="cls-19" x="731.91" y="798.1" width="48.33" height="42.7" rx="4.5"/><rect class="cls-19" x="731.91" y="882.01" width="48.33" height="42.7" rx="4.5"/></g><path class="cls-20" d="M893 327.23a3.16 3.16 0 0 0-.21-1.21 2.4 2.4 0 0 0-.59-.86 2.64 2.64 0 0 0-.88-.51 3.46 3.46 0 0 0-1.09-.16 3.74 3.74 0 0 0-1 .13 4.66 4.66 0 0 0-.93.38 5.42 5.42 0 0 0-.89.58 6.86 6.86 0 0 0-.79.74v-1.84a5.11 5.11 0 0 1 1.62-1.08 5.7 5.7 0 0 1 2.19-.37 5.48 5.48 0 0 1 1.71.26 3.88 3.88 0 0 1 1.37.79 3.59 3.59 0 0 1 .91 1.27 4.27 4.27 0 0 1 .33 1.73 5.88 5.88 0 0 1-.21 1.62 4.77 4.77 0 0 1-.62 1.36 6.18 6.18 0 0 1-1 1.23 15.31 15.31 0 0 1-1.48 1.2c-.71.5-1.29.93-1.75 1.29a7.34 7.34 0 0 0-1.09 1 2.92 2.92 0 0 0-.57.93 3.27 3.27 0 0 0-.16 1.08h7.49v1.54H886v-.74a6.17 6.17 0 0 1 .21-1.7 4.28 4.28 0 0 1 .7-1.4 7.68 7.68 0 0 1 1.26-1.32c.52-.44 1.16-.94 1.92-1.49a12.33 12.33 0 0 0 1.37-1.13 5.6 5.6 0 0 0 .88-1.07 3.55 3.55 0 0 0 .48-1.08 4.47 4.47 0 0 0 .18-1.17zM904.84 323.28v9.94h1.94v1.58h-1.94v3.53h-1.7v-3.53h-7.07v-1.49c.65-.75 1.32-1.54 2-2.38s1.32-1.7 1.93-2.57 1.18-1.73 1.7-2.6a24.27 24.27 0 0 0 1.32-2.48zm-6.84 9.94h5.13v-7.37c-.52.92-1 1.74-1.49 2.46s-.91 1.37-1.34 2-.82 1.12-1.21 1.6zM919.4 338.33h-2.46l-5.81-6.88a4.1 4.1 0 0 1-.4-.53v7.41h-1.77v-15.05h1.77v7.07a4.58 4.58 0 0 1 .4-.51l5.63-6.56H919l-6.46 7.22zM937 338.33h-2.1l-2.52-4.22a9.1 9.1 0 0 0-.67-1 3.93 3.93 0 0 0-.67-.68 2.43 2.43 0 0 0-.73-.38 3.09 3.09 0 0 0-.89-.12h-1.45v6.4h-1.76v-15.05h4.49a6.16 6.16 0 0 1 1.82.25 3.92 3.92 0 0 1 1.45.75 3.41 3.41 0 0 1 1 1.25 4.19 4.19 0 0 1 .35 1.76 4.14 4.14 0 0 1-.24 1.44 3.76 3.76 0 0 1-.67 1.17 3.91 3.91 0 0 1-1.05.88 5.32 5.32 0 0 1-1.38.56 3.48 3.48 0 0 1 .66.39 3.6 3.6 0 0 1 .53.51 6.29 6.29 0 0 1 .49.66c.17.25.35.54.56.87zm-9-13.45v5.45h2.39a3.49 3.49 0 0 0 1.23-.2 2.77 2.77 0 0 0 1-.57 2.59 2.59 0 0 0 .64-.91 3.14 3.14 0 0 0 .23-1.21 2.37 2.37 0 0 0-.78-1.89 3.37 3.37 0 0 0-2.26-.67z" transform="translate(3.33 14)"/><path class="cls-20" d="M950.12 338.33h-2l-1.6-4.22h-6.38l-1.5 4.22h-2l5.77-15.05h1.83zm-4.12-5.8-2.37-6.42a7.35 7.35 0 0 1-.23-1 5.66 5.66 0 0 1-.24 1l-2.34 6.42zM967.13 338.33h-1.76v-10.1c0-.79 0-1.77.15-2.92a10 10 0 0 1-.45 1.45l-5.15 11.57H959l-5.13-11.48a8.54 8.54 0 0 1-.45-1.54h-.05c.06.6.09 1.58.09 2.95v10.07h-1.7v-15.05h2.33l4.62 10.5a12 12 0 0 1 .69 1.8h.06c.31-.82.55-1.44.73-1.84l4.71-10.46h2.21zM892.49 361.74h-1.72v-13a3.28 3.28 0 0 1-.59.46 9.32 9.32 0 0 1-.86.51c-.31.17-.65.32-1 .47a8 8 0 0 1-1 .35v-1.74a10.33 10.33 0 0 0 1.2-.43c.43-.18.84-.38 1.25-.6s.8-.45 1.16-.69a9 9 0 0 0 1-.71h.65zM896.87 357.54a4.16 4.16 0 0 1 .18-1.2 4.38 4.38 0 0 1 .55-1.13 4.44 4.44 0 0 1 2-1.64 4.5 4.5 0 0 1-1.56-1.4 3.33 3.33 0 0 1-.57-1.89 3.57 3.57 0 0 1 .32-1.54 3.77 3.77 0 0 1 .88-1.21 4.15 4.15 0 0 1 1.35-.81 4.82 4.82 0 0 1 1.68-.29 4.66 4.66 0 0 1 1.69.3 4 4 0 0 1 1.34.81 3.63 3.63 0 0 1 .88 1.21 3.71 3.71 0 0 1 .32 1.53 3.34 3.34 0 0 1-.58 1.89 4.58 4.58 0 0 1-1.53 1.4 4.1 4.1 0 0 1 1.16.69 4.33 4.33 0 0 1 .87.95 4.7 4.7 0 0 1 .54 1.13 4.17 4.17 0 0 1 .19 1.2 4.47 4.47 0 0 1-.36 1.81 4.13 4.13 0 0 1-1 1.4 4.72 4.72 0 0 1-1.54.91 6 6 0 0 1-2 .32 5.9 5.9 0 0 1-2-.32 4.72 4.72 0 0 1-1.54-.91 4.15 4.15 0 0 1-1-1.4 4.47 4.47 0 0 1-.27-1.81zm1.86-.15a3.59 3.59 0 0 0 .22 1.27 2.76 2.76 0 0 0 .61 1 2.55 2.55 0 0 0 1 .61 3.35 3.35 0 0 0 1.25.22 3.18 3.18 0 0 0 1.21-.22 2.78 2.78 0 0 0 1-.62 3.13 3.13 0 0 0 .63-1 3.33 3.33 0 0 0 .22-1.26 3.29 3.29 0 0 0-.21-1.18 3.09 3.09 0 0 0-.62-1 2.79 2.79 0 0 0-1-.66 3.13 3.13 0 0 0-1.25-.24 3.09 3.09 0 0 0-1.2.23 2.86 2.86 0 0 0-1 .63 2.76 2.76 0 0 0-.63 1 3.14 3.14 0 0 0-.23 1.22zm.54-7a2.54 2.54 0 0 0 .19 1 2.41 2.41 0 0 0 .54.79 2.52 2.52 0 0 0 .79.54 2.4 2.4 0 0 0 1 .19 2.31 2.31 0 0 0 1-.2 2.41 2.41 0 0 0 .79-.54 2.77 2.77 0 0 0 .54-.79 2.58 2.58 0 0 0 0-2 2.33 2.33 0 0 0-.53-.8 2.39 2.39 0 0 0-.79-.53 2.49 2.49 0 0 0-1-.2 2.61 2.61 0 0 0-1 .2 2.72 2.72 0 0 0-.78.54 2.42 2.42 0 0 0-.51.81 2.63 2.63 0 0 0-.24 1.01zM919.4 361.74h-2.46l-5.81-6.89a3.6 3.6 0 0 1-.4-.52v7.41h-1.77v-15.05h1.77v7.07a4.58 4.58 0 0 1 .4-.51l5.63-6.56H919l-6.46 7.22zM937 361.74h-2.1l-2.52-4.22a8.23 8.23 0 0 0-.67-1 3.93 3.93 0 0 0-.67-.68 2.43 2.43 0 0 0-.73-.38 3.09 3.09 0 0 0-.89-.12h-1.45v6.4h-1.76v-15.05h4.49a6.52 6.52 0 0 1 1.82.24 4.25 4.25 0 0 1 1.45.75 3.53 3.53 0 0 1 1 1.26 4.53 4.53 0 0 1 .11 3.2 3.76 3.76 0 0 1-.67 1.17 4.1 4.1 0 0 1-1.05.88 5.32 5.32 0 0 1-1.38.56 3.46 3.46 0 0 1 .66.38 5 5 0 0 1 .53.51 7.78 7.78 0 0 1 .49.67c.17.25.35.54.56.87zm-9-13.46v5.46h2.39a3.73 3.73 0 0 0 1.23-.2 2.77 2.77 0 0 0 1-.57 2.59 2.59 0 0 0 .64-.91 3.16 3.16 0 0 0 .23-1.22 2.36 2.36 0 0 0-.78-1.88 3.37 3.37 0 0 0-2.26-.68zM944.33 362a6.59 6.59 0 0 1-5.13-2.11 7.78 7.78 0 0 1-1.93-5.49 8.28 8.28 0 0 1 2-5.79 6.85 6.85 0 0 1 5.34-2.17 6.45 6.45 0 0 1 5 2.1 7.86 7.86 0 0 1 1.91 5.49 8.33 8.33 0 0 1-2 5.83 6.74 6.74 0 0 1-5.19 2.14zm.12-14a4.86 4.86 0 0 0-3.85 1.71 6.61 6.61 0 0 0-1.48 4.49 6.68 6.68 0 0 0 1.44 4.48 4.73 4.73 0 0 0 3.77 1.7 4.93 4.93 0 0 0 3.9-1.62 6.62 6.62 0 0 0 1.43-4.52 6.86 6.86 0 0 0-1.39-4.61 4.72 4.72 0 0 0-3.82-1.63zM969.26 361.74h-1.76v-10.1c0-.8 0-1.77.15-2.93a9.8 9.8 0 0 1-.45 1.46l-5.2 11.57h-.86L956 350.26a8.45 8.45 0 0 1-.45-1.55c.05.6.08 1.59.08 3v10.08h-1.7v-15.1h2.33l4.62 10.49a12.49 12.49 0 0 1 .69 1.81h.07c.3-.83.54-1.44.72-1.85l4.71-10.45h2.21z" transform="translate(3.33 14)"/><g id="logo_vg_5000" data-name="logo vg 5000"><path class="cls-21" d="M424.34 316.15h566.64"/><path id="logo_philips" data-name="logo philips" class="cls-22" d="M953.24 295.36a12.75 12.75 0 0 1-6.81-2.49 10.86 10.86 0 0 1-1.31-1.13 12.67 12.67 0 0 1-3.77-8.23c0-.48-.2-20 0-19.85a.79.79 0 0 1 .22-.05c.56-.06 2.56-.28 3.67-.36a117.65 117.65 0 0 1 14.28-.2c2.57.12 6.08.39 7.1.55h.13V283.83a12.75 12.75 0 0 1-13.5 11.51zm1.79-1.69a11.18 11.18 0 0 0 4-1.16 1.4 1.4 0 0 0 .35-.2c0-.07-.25-1.92-.31-2.28-.1-.66-.23-.93-.53-1.14a2.43 2.43 0 0 0-1-.29c-.45-.07-2.62-.35-2.71-.35s0 0 0-.09v-.09l1.12-.14a16 16 0 0 0 2.4-.38 1 1 0 0 0 .37-.26c.23-.23.3-.43.41-1.14.09-.55.35-2.6.35-2.72s-.05-.07-.61.08a14.21 14.21 0 0 0-3.37 1.49c-2.82 1.52-4.28 2-6.36 2.13a9.87 9.87 0 0 1-5.43-1.28l-.27-.15a8.88 8.88 0 0 0 .66 1.78 10.76 10.76 0 0 0 2.11 3 11 11 0 0 0 7 3.26h1.81zm1.76-.77c0-.09-.17-1.29-.2-1.4a.56.56 0 0 0-.41-.36l-.75-.11c-.52-.07-.63-.09-.6-.13l.65-.1c.75-.1.86-.13 1-.25s.15-.24.25-1a5.56 5.56 0 0 1 .1-.65s.07.08.1.31a7.49 7.49 0 0 0 .2 1.2c.11.22.21.26 1.19.38l.53.07-.82.15c-.64.09-.76.12-.87.27s-.12.24-.2.86-.1.75-.14.75zm3.51-1.12a11 11 0 0 0 3-3 1.15 1.15 0 0 0 .23-.39s-1.56.18-2.13.28a1.44 1.44 0 0 0-1 .4 1.35 1.35 0 0 0-.33.8c-.07.39-.3 2.06-.3 2.19s0 .08.08 0l.44-.29zm3.68-4.23a11.29 11.29 0 0 0 .67-1.7 13 13 0 0 0 .37-1.67c0-.24.05-.22-.51-.4a10.82 10.82 0 0 0-2.74-.54 11.15 11.15 0 0 0-2 .09c-.07 0-.09 0-.09.11s.29 2.42.37 2.89c.13.76.31 1.05.78 1.23a17.66 17.66 0 0 0 2 .33c1.04.11.89.18 1.17-.34zm-15.16-2.22a9.7 9.7 0 0 0 3.14-.73c.29-.12 1.32-.61 2.29-1.1a18.22 18.22 0 0 1 3.9-1.66 8.56 8.56 0 0 1 2.7-.28 9.16 9.16 0 0 1 3.92.87.85.85 0 0 0 .35.13s0-1.11-.08-1.28-.08-.12-.36-.27a10 10 0 0 0-3.64-1.09h-1a9 9 0 0 0-2.67.35 17.17 17.17 0 0 0-3.45 1.49l-2 1a11.16 11.16 0 0 1-3.37 1 12.83 12.83 0 0 1-2.56-.05 9.36 9.36 0 0 1-2.64-.8l-.36-.17v1.38l.27.16a8.51 8.51 0 0 0 2.26.87 10.25 10.25 0 0 0 3.21.28zm-.73-3.42a1.38 1.38 0 0 0 .3-.06s-.14-1.41-.28-2.45-.21-1.2-.48-1.47-.6-.32-2.36-.55l-.87-.11-.15.28a11.4 11.4 0 0 0-.85 2.17 8.36 8.36 0 0 0-.27 1.36v.21l.3.1a10.33 10.33 0 0 0 4.67.52zm1-.18a17 17 0 0 0 3.93-1.61 28.28 28.28 0 0 1 2.86-1.3 9.93 9.93 0 0 1 8.56.63c.27.17.27.16.09-.37a11.15 11.15 0 0 0-2.14-3.71A14 14 0 0 0 961 274a11 11 0 0 0-5.78-2.37 14.69 14.69 0 0 0-2.39 0 12 12 0 0 0-1.43.27s.14 1.27.2 1.56a.71.71 0 0 0 .34.53 4.79 4.79 0 0 0 1.22.22c.73.09.75.09.75.14s-.1.06-.34.09a9.72 9.72 0 0 0-1.62.27.68.68 0 0 0-.35.53c0 .23-.22 1.5-.2 1.51s.43.06.95.12l.94.11v.19l-2.8.36c-.69.11-.84.16-1.09.4s-.32.46-.46 1.48c-.11.73-.29 2.19-.29 2.29s0 .1.47 0zm-3.69-4.92c1.74-.22 1.94-.27 2.24-.55s.35-.54.53-1.94c.14-1.05.15-1.09.14-1.1a7.84 7.84 0 0 0-.94.62 12.38 12.38 0 0 0-2.16 2.18 9.25 9.25 0 0 0-.56.83c0 .06 0 .06.75 0zm5.8-.15c0-.06 0-.3-.07-.53-.15-1.17-.23-1.36-.67-1.46-.17 0-1.58-.23-1.6-.22a11.94 11.94 0 0 0 .23 1.32 1.09 1.09 0 0 0 .8.78c.17 0 1.1.2 1.28.21s0 0 0-.1zm-1.63-2.44a3.55 3.55 0 0 0 1.11-.21c.19-.1.28-.28.35-.67s.18-1.3.18-1.35a7.33 7.33 0 0 0-1.59.53 8.63 8.63 0 0 0-.91.46 3 3 0 0 0 0 .68c.06.54.08.65.13.65l.68-.09zm14.58-4.32a1.18 1.18 0 0 0 1.08-1.2c0-.63-.25-.89-1.18-1.22-.42-.16-.61-.28-.66-.42s0-.25.2-.32a2.51 2.51 0 0 1 1.1.06l.26.07a4.31 4.31 0 0 0-.07-.82 4.19 4.19 0 0 0-1.66-.08 1.49 1.49 0 0 0-.76.39 1.11 1.11 0 0 0 0 1.52 2.22 2.22 0 0 0 .82.43c.59.22.73.33.7.54s-.19.32-.6.32a3.44 3.44 0 0 1-1.09-.2.76.76 0 0 0-.25-.07 8.34 8.34 0 0 0 .11.83c0 .06.12.1.43.16a4.15 4.15 0 0 0 1.53 0zm-19.78-.48V269h.37a1.73 1.73 0 0 0 1.68-.79 1.58 1.58 0 0 0 .17-.9 1 1 0 0 0-.12-.54c-.24-.51-.7-.74-1.57-.81a14.05 14.05 0 0 0-1.65.07h-.07v3.88h1.19zm.07-1.95v-.8h.19a.78.78 0 0 1 .77.38 1.34 1.34 0 0 1 0 .72.74.74 0 0 1-.74.48h-.25zm3.82 1.66v-.77h1.23v1.53h1.19V266h-1.19v1.53h-1.23V266h-1.2v3.89h1.2zm4.48-1.18V266h-1.2v3.89h1.2zm3.09 1.62.09-.4v-.08h-1.12V266h-1.2v3.89h2.15zm1.73-1.62V266h-1.23v3.89h1.23zm2.05 1.47V269h.39a3.37 3.37 0 0 0 .6 0 1.49 1.49 0 0 0 1.21-1.86c-.13-.71-.64-1.05-1.67-1.13a13.57 13.57 0 0 0-1.65.07c-.06 0-.06.14-.06 2v1.94h1.19zm.07-1.95v-.8h.19c.52 0 .8.22.83.68a.75.75 0 0 1-.79.9h-.23z" transform="translate(3.33 14)"/></g><path class="cls-1" d="M0 0h1416.89v1080H0z"/><g id="logo_vg_5000-2" data-name="logo vg 5000"><path class="cls-21" d="M541.69 321.25h-16.25l-5.1 15a1.7 1.7 0 0 0 .22.15c1-.41 2-1.15 6.52-1.15 7 0 14.08 4.45 14.25 13.33.15 7.83-6.72 13.32-14.49 13.32-6.63 0-10.72-2.92-11.3-5.14" transform="translate(3.33 14)"/><path d="M634.47 327.79c2.23-3.64-.31-6 .42-7.65h.08c.18 4.44 1 5.9 2.39 5.81.9-.06 2.43-.6 2.43-6.09 0 3.55.12 3.8.37 4.14a1.17 1.17 0 0 0 1.4.52" transform="translate(3.33 14)" style="stroke-width:1.5px;stroke:#eaeaea;stroke-miterlimit:10;fill:none"/><path class="cls-21" d="M493.69 330.21a20.3 20.3 0 1 0 3.41 12.88h-18.51" transform="translate(3.33 14)"/><path class="cls-20" d="m444.3 377.42-14.67-43.77h3.17l12.68 37.18 12.93-37.18h3.21l-15.18 43.77h-2.14z"/><ellipse class="cls-21" cx="561.1" cy="355.51" rx="12.31" ry="20.3"/><ellipse class="cls-21" cx="590.25" cy="355.51" rx="12.31" ry="20.3"/><ellipse class="cls-21" cx="619.49" cy="355.51" rx="12.31" ry="20.3"/><g id="LOGO_PHILIPS-2" data-name="LOGO PHILIPS"><path id="path7" class="cls-20" d="M510.21 276.36c3 .81 6.79 2.43 6.73 6-.11 6.66-8.61 6.05-11.63 5.33v-4.33c6.32 1.81 10.52-1.18 2.63-3.15a4.65 4.65 0 0 1-3-4.78c.61-5.85 5.48-6 10.24-5.32v4.29c-4.85-2.34-6.75 1.26-5 1.93" transform="translate(3.33 14)"/><path id="polyline9" class="cls-20" d="M449.61 290.71h4.9v-6.51h4.56v17.51h-4.56v-7.03h-4.9v7.03h-4.56V284.2h4.56v6.51"/><path id="rect11" class="cls-20" d="M463.36 284.2h4.56v17.52h-4.56z"/><path id="rect13" class="cls-20" d="M483.72 284.2h4.56v17.52h-4.56z"/><path id="polyline15" class="cls-20" d="M476.76 297.74h4.7v3.97h-9.26V284.2h4.56v13.54"/><path id="path17" class="cls-20" d="M426.14 274.05v-3.87c6.86 0 13.68-1.08 13.68 6.9 0 4.5-3 7.23-10.11 6.89l1-4c6.09 1 5.81-7.23 0-5.91h-4.56" transform="translate(3.33 14)"/><path id="polyline19" class="cls-20" d="M434.04 301.71h-4.56v-14.18l4.55.03.01 14.15"/><path id="path17-2" data-name="path17" class="cls-20" d="M489.28 274.05v-3.87c6.86 0 13.68-1.08 13.68 6.9 0 4.7-3 7.23-10.11 6.89l1-4c6.08 1 5.81-7.23 0-5.91h-4.56" transform="translate(3.33 14)"/><path id="polyline19-2" data-name="polyline19" class="cls-20" d="M497.18 301.71h-4.56v-14.18l4.55.03.01 14.15"/></g></g><path class="cls-6" d="m1490.48 914.32 8.17-13.46v84.8h-4.29a4.53 4.53 0 0 1-4.54-4.53v-64.46a4.53 4.53 0 0 1 .66-2.35zM2006.23 914.32l-8.17-13.46v84.8h4.29a4.53 4.53 0 0 0 4.54-4.53v-64.46a4.53 4.53 0 0 0-.66-2.35z" transform="translate(3.33 14)"/><path class="cls-3" d="M1526.06 937.1v100.63h450.54V937.1zm99 92.86a8.93 8.93 0 1 1 8.94-8.96 8.92 8.92 0 0 1-8.9 9zm37.92-14.5a8.93 8.93 0 1 1 8.93-8.93 8.92 8.92 0 0 1-8.91 8.93zm171.64-.47a8.93 8.93 0 1 1 8.92-8.93 8.93 8.93 0 0 1-8.88 8.94zm43.48 15a8.93 8.93 0 1 1 8.93-8.93 8.92 8.92 0 0 1-8.89 8.94z" transform="translate(3.33 14)"/><path class="cls-25" d="M1588.07 972.44h312.14s8.76-1.5 11.5 6.36l17.21 49.39c1 2.77 3 8.4 8.77 9.77" transform="translate(3.33 14)" style="clip-path:url(#clip-path)"/><path class="cls-6" d="M1938.47 1037.73H1984a16.71 16.71 0 0 0 16.7-16.73V735.55a16.71 16.71 0 0 0-16.7-16.71h-471.28a16.71 16.71 0 0 0-16.72 16.71V1021a16.71 16.71 0 0 0 16.71 16.71h51.41a8.76 8.76 0 0 0 8.55-6.84l14.33-51.59a8.76 8.76 0 0 1 8.55-6.84h307.78a8.77 8.77 0 0 1 8.43 6.36l18.32 52.57a8.78 8.78 0 0 0 8.39 6.36z" transform="translate(3.33 14)"/><path class="cls-26" d="M1675.28 850.77h162.71v67.41h-162.71z"/><g id="R1"><circle class="cls-27" cx="1875.67" cy="884.18" r="71.17"/><circle class="cls-22" cx="1875.67" cy="884.18" r="50.58"/><circle class="cls-28" cx="1875.67" cy="884.35" r="44.65"/><circle class="cls-29" cx="1875.67" cy="884.35" r="36.6"/><circle class="cls-30" cx="1875.67" cy="884.35" r="28.98"/><path class="cls-22" d="M1872.37 898.42a28.44 28.44 0 1 0-28.44-28.42 28.44 28.44 0 0 0 28.44 28.42zm-21.13-46.55a27.81 27.81 0 0 1 17.22-9.45v10.26h7.7v-10.27a27.74 27.74 0 0 1 17.69 9.86l-8.67 5.41 4.08 6.53 8.62-5.38a27.9 27.9 0 0 1-.43 23.26l-8.32-5.44-4.22 6.45 8.25 5.39a27.8 27.8 0 0 1-17 9.07v-9.73h-7.7v9.71a27.78 27.78 0 0 1-17.3-9.54l8.28-5.17-4.07-6.53-8.34 5.2a27.89 27.89 0 0 1 0-23.15l8.42 5.5 4.21-6.44z" transform="translate(3.33 14)"/></g><g id="R1-2" data-name="R1"><path class="cls-27" d="M1727.15 917.44a106.76 106.76 0 1 0-191.3 0z" transform="translate(3.33 14)"/><circle class="cls-22" cx="1633.89" cy="885.52" r="52.59"/><circle class="cls-28" cx="1631.38" cy="884.43" r="46.42"/><circle class="cls-29" cx="1632.63" cy="884.43" r="38.06"/><circle class="cls-30" cx="1632.63" cy="884.35" r="28.98"/><path class="cls-22" d="M1629.34 898.42A28.44 28.44 0 1 0 1600.9 870a28.44 28.44 0 0 0 28.44 28.42zm-21.13-46.55a27.79 27.79 0 0 1 17.22-9.45v10.26h7.7v-10.27a27.72 27.72 0 0 1 17.68 9.86l-8.66 5.41 4.07 6.53 8.63-5.38a27.85 27.85 0 0 1-.44 23.26l-8.32-5.44-4.21 6.45 8.24 5.39a27.77 27.77 0 0 1-17 9.07v-9.73h-7.7v9.71a27.78 27.78 0 0 1-17.31-9.54l8.29-5.17-4.08-6.53-8.33 5.2a27.79 27.79 0 0 1 0-23.15l8.41 5.5 4.22-6.44z" transform="translate(3.33 14)"/><path d="M1551.55 927.42a96.09 96.09 0 1 1 159.39-3.31" transform="translate(3.33 14)" style="stroke:#422918;stroke-width:2px;stroke-miterlimit:10;fill:none"/><path d="M1696 872.11a65.84 65.84 0 1 1-65.84-65.84 65.55 65.55 0 0 1 65.84 65.84z" transform="translate(3.33 14)" style="stroke:#b17f49;stroke-miterlimit:10;fill:none"/></g><circle class="cls-2" cx="1552.61" cy="1017.46" r="17.79"/><circle class="cls-2" cx="1954.43" cy="1017.46" r="17.79"/><circle class="cls-7" cx="1515.24" cy="748.58" r="7.05"/><circle class="cls-7" cx="1515.24" cy="1038.18" r="7.05"/><circle class="cls-7" cx="1987.84" cy="748.85" r="7.05"/><circle class="cls-7" cx="1987.84" cy="1038.45" r="7.05"/><path style="opacity:.26;fill:#d9d9d9" d="M1675.28 850.77h162.71v67.41h-162.71z"/><path class="cls-34" d="M1675.28 848.26h162.71v14.95h-162.71zM1675.28 908.52h162.71v14.95h-162.71z"/><path d="M1585.63 827.67v87.82h334.43v-87.82zM1629 906a35.59 35.59 0 1 1 35.59-35.59A35.58 35.58 0 0 1 1629 906zm199-5.1h-153V841h153zm44.37 5.1a35.59 35.59 0 1 1 35.58-35.59 35.58 35.58 0 0 1-35.61 35.59z" transform="translate(3.33 14)" style="fill:#9c9b9b"/><path class="cls-36" d="M1968.17 744.58h-440.79A8.42 8.42 0 0 0 1519 753v193a8.43 8.43 0 0 0 8.42 8.43h440.79a8.44 8.44 0 0 0 8.43-8.43V753a8.43 8.43 0 0 0-8.47-8.42zm-53.69 125.53c0 20.85-14.33 39-35.1 39l-257 .63c-20.77 0-33-18.78-33-39.63-1.21-23.49 13.07-40.25 33.84-40.25h256.14c20.77 0 35.1 19.41 35.1 40.25z" transform="translate(3.33 14)"/><path class="cls-36" d="M1589.28 868.35c.12-20.93 16.2-38.49 39.6-38.34h244c28.39 0 40.86 18.55 40.86 38.34h62.81V750.49a8.44 8.44 0 0 0-8.43-8.43h-440.74a8.43 8.43 0 0 0-8.42 8.43v117.86z" transform="translate(3.33 14)"/><path style="stroke:#000;stroke-width:2px;stroke-miterlimit:10;fill:none" d="M1754.66 798.02h-219.85"/><g id="LOGO_PHILIPS-3" data-name="LOGO PHILIPS"><path id="path7-2" data-name="path7" d="M1919.26 922.44c4.17 1.12 9.38 3.36 9.3 8.32-.15 9.2-11.9 8.36-16.06 7.36v-6c8.72 2.5 14.53-1.63 3.62-4.36a6.43 6.43 0 0 1-4.11-6.59c.84-8.09 7.57-8.29 14.14-7.35v5.93c-6.7-3.24-9.31 1.73-6.89 2.66" transform="translate(3.33 14)"/><path id="polyline9-2" data-name="polyline9" d="M1834.27 936.93h6.77v-9h6.29v24.2h-6.29v-9.72h-6.77v9.72h-6.31v-24.2h6.31v9"/><path id="rect11-2" data-name="rect11" d="M1853.26 927.93h6.3v24.2h-6.3z"/><path id="rect13-2" data-name="rect13" d="M1881.4 927.93h6.3v24.2h-6.3z"/><path id="polyline15-2" data-name="polyline15" d="M1871.78 946.63h6.49v5.5h-12.79v-24.2h6.3v18.7"/><path id="path17-3" data-name="path17" d="M1803.12 919.26v-5.35c9.47 0 18.9-1.5 18.9 9.52 0 6.23-4.14 10-14 9.52l1.37-5.49c8.41 1.35 8-10 0-8.16h-6.29" transform="translate(3.33 14)"/><path id="polyline19-3" data-name="polyline19" d="M1812.75 952.12h-6.3v-19.59l6.29.04.01 19.55"/><path id="path17-4" data-name="path17" d="M1890.35 919.26v-5.35c9.47 0 18.9-1.5 18.9 9.52 0 6.5-4.14 10-14 9.52l1.38-5.49c8.4 1.35 8-10 0-8.16h-6.29" transform="translate(3.33 14)"/><path id="polyline19-4" data-name="polyline19" d="M1899.98 952.12h-6.3v-19.59l6.3.04v19.55"/></g><path d="M1549.75 773.74c.53-2.52 1.12-5.19 1.49-6.66h-.07c-1 2.25-4.25 8.14-6.56 12.39h-1.74c-.37-3.41-1.22-10.61-1.26-12.42h-.07c-.22 1.51-.85 4.66-1.34 7l-1.13 5.4h-1.84l2.92-13.76h2.92c.49 3.95 1.13 9.44 1.2 11.27.62-1.44 3.87-7.18 6.11-11.27h2.94l-2.92 13.76h-1.9zM1558.89 765.71l-2.89 13.76h-1.93l2.91-13.76zM1561.33 775.42c.15 1.77 1.24 2.7 3.15 2.7 1.76 0 2.9-.78 2.9-2.37 0-1.22-.62-2-2.78-2.76-2.59-1-3.53-2-3.53-3.6 0-2 1.45-3.88 4.62-3.88s4.48 1.73 4.5 3.86h-1.93c-.14-1.3-.76-2.29-2.7-2.29-1.63 0-2.5.92-2.5 2.09 0 .92.44 1.5 2.45 2.24 2.83 1.05 3.89 2.23 3.89 4.08 0 2.16-1.36 4.18-5.13 4.18-3.22 0-4.83-1.75-4.9-4.25zM1573.18 775.42c.15 1.77 1.25 2.7 3.16 2.7 1.75 0 2.9-.78 2.9-2.37 0-1.22-.62-2-2.78-2.76-2.6-1-3.53-2-3.53-3.6 0-2 1.45-3.88 4.62-3.88s4.48 1.73 4.5 3.86h-1.94c-.14-1.3-.76-2.29-2.69-2.29-1.63 0-2.5.92-2.5 2.09 0 .92.43 1.5 2.44 2.24 2.83 1.05 3.9 2.23 3.9 4.08 0 2.16-1.36 4.18-5.13 4.18-3.22 0-4.84-1.75-4.91-4.25zM1587.92 765.71l-2.92 13.76h-1.93l2.92-13.76zM1601.68 771.21c0 4-2.27 8.46-7.35 8.46-3.44 0-5.25-2.33-5.25-5.55 0-4.06 2.43-8.61 7.29-8.61 3.5 0 5.31 2.29 5.31 5.7zm-10.59 2.85c0 2.29 1.09 4 3.49 4 3.5 0 5.11-3.64 5.11-6.9 0-2.42-1.11-4.07-3.45-4.07-3.49.01-5.15 3.81-5.15 6.97zM1603.08 779.47l2.91-13.76h2.5c1.14 3.18 3.7 10 4.06 11.54.22-1.65.78-4.08 1.25-6.33l1.11-5.21h1.83l-2.91 13.76h-2.38c-1-3-3.71-10.37-4.11-11.88-.27 1.77-.78 4.06-1.3 6.54l-1.12 5.34zM1635.39 771.21c0 4-2.28 8.46-7.36 8.46-3.43 0-5.24-2.33-5.24-5.55 0-4.06 2.43-8.61 7.29-8.61 3.49 0 5.31 2.29 5.31 5.7zm-10.6 2.85c0 2.29 1.1 4 3.5 4 3.49 0 5.11-3.64 5.11-6.9 0-2.42-1.11-4.07-3.45-4.07-3.49.01-5.16 3.81-5.16 6.97zM1649.16 773.74c.53-2.52 1.12-5.19 1.49-6.66h-.07c-1 2.25-4.25 8.14-6.56 12.39h-1.74c-.37-3.41-1.22-10.61-1.26-12.42h-.02c-.22 1.51-.85 4.66-1.34 7l-1.13 5.4h-1.84l2.92-13.76h2.92c.49 3.95 1.13 9.44 1.2 11.27.62-1.44 3.87-7.18 6.11-11.27h2.94l-2.92 13.76H1648zM1663.08 773h-6.38l-1 4.81h7.3l-.59 1.62h-8.94l2.91-13.76h8.62l-.34 1.62h-6.71l-.87 4.09h6.37zM1675.83 779.47h-1.55a15.53 15.53 0 0 1 .29-2 4.61 4.61 0 0 1-4.3 2.16c-3.18 0-4.79-2.33-4.79-5.5 0-4.19 2.42-8.64 7.37-8.64 3.06 0 4.93 1.76 5 4.24h-1.9c-.15-1.38-1.07-2.65-3.33-2.65-3.38 0-5.11 3.55-5.11 6.87 0 2.34 1 4.08 3.3 4.08 2.84 0 3.85-2 4.32-4.31v-.07h-3.88l.36-1.7h5.71zM1682.22 775.44l-2.17 4h-2l7.58-13.76h2.37l2 13.76h-2l-.59-4zm5.09-1.62c-.45-3.18-.74-5.35-.83-6.48-.61 1.26-1.84 3.6-3.41 6.48zM1539.69 791.19h7.47l-.31 1.41H1541l-.8 3.82h5.44l-.3 1.4h-5.44l-1.11 5.3h-1.67zM1548.51 799.63l-1.88 3.49h-1.77l6.57-11.93h2l1.75 11.93h-1.68l-.51-3.49zm4.41-1.4c-.39-2.76-.64-4.64-.72-5.62-.53 1.1-1.6 3.12-3 5.62zM1566.6 799.56a5.15 5.15 0 0 1-5.26 3.72c-3 0-4.37-2-4.37-4.8 0-3.44 1.91-7.46 6.15-7.46 2.58 0 4.14 1.44 4.24 3.82h-1.73a2.42 2.42 0 0 0-2.69-2.44c-2.76 0-4.18 3.14-4.18 6.05 0 1.88.76 3.44 2.79 3.44a3.41 3.41 0 0 0 3.29-2.33zM1576.29 797.55h-5.53l-.87 4.17h6.32l-.52 1.4h-7.75l2.53-11.93h7.47l-.3 1.41h-5.81l-.76 3.54h5.53zM1581.68 803.12l.06-.29c.39-1.78 1.63-3.27 4.21-5 1.9-1.27 2.75-1.71 2.75-3.23a1.52 1.52 0 0 0-1.7-1.6c-1.26 0-1.92.73-2.32 2.18h-1.56c.4-1.88 1.5-3.53 4-3.53a2.88 2.88 0 0 1 3.21 3c0 2.09-1.12 2.8-3.25 4.21-1.6 1-2.68 1.81-3.2 3h5.78l-.49 1.36zM1595.38 803.12l.61-2.88h-5.09l.35-1.48 6.21-6.94h1.87l-1.52 7.08h1.42l-.45 1.34h-1.25l-.6 2.88zm1.55-7.21c.18-.84.46-2 .64-2.59-.61.94-3.42 4-4.77 5.58h3.47zM1609 795.29c0 3-1.22 8-5.1 8-2.1 0-3.13-1.45-3.13-3.76 0-2.92 1.32-7.92 5.12-7.92 2.24.02 3.11 1.67 3.11 3.68zm-6.57 4.25c0 1.45.47 2.41 1.66 2.41 2.4 0 3.27-4.58 3.27-6.67 0-1.36-.41-2.29-1.66-2.29-2.3.01-3.26 4.22-3.26 6.55zM1618.58 795.29c0 3-1.22 8-5.1 8-2.1 0-3.13-1.45-3.13-3.76 0-2.92 1.33-7.92 5.12-7.92 2.23.02 3.11 1.67 3.11 3.68zm-6.57 4.25c0 1.45.47 2.41 1.66 2.41 2.4 0 3.27-4.58 3.27-6.67 0-1.36-.41-2.29-1.66-2.29-2.28.01-3.28 4.22-3.28 6.55zM1626.48 791.19h4c2.43 0 3.41 1.32 3.41 2.84a2.92 2.92 0 0 1-2.29 2.9 2.61 2.61 0 0 1 1.73 2.47c0 2.53-2 3.72-4.63 3.72h-4.7zm-.6 10.58h2.83c1.58 0 2.87-.72 2.88-2.33 0-1.16-.73-2-2.46-2h-2.34zm3.64-5.63c1.55 0 2.66-.55 2.66-2 0-1.22-.92-1.62-2-1.62h-2.31l-.75 3.6zM1641.85 801c-.16.77-.36 1.83-.4 2.16h-1.57c0-.3.12-.82.21-1.27a3.08 3.08 0 0 1-2.9 1.45 2.18 2.18 0 0 1-2.42-2.21c0-2.49 2.3-3.05 4.09-3.23.87-.07 1.63-.07 2.09-.09l.11-.56c.15-.79.1-1.8-1.49-1.8a1.87 1.87 0 0 0-2 1.35h-1.63c.31-1.31 1.28-2.55 3.79-2.55 2 0 3.37.9 2.92 3zm-1.14-2c-.49 0-1 0-1.74.09-1.39.16-2.51.55-2.51 1.83 0 .63.42 1.16 1.34 1.16 1.84 0 2.53-1.45 2.88-2.94zM1651.18 800.78c-.17.78-.33 1.64-.45 2.34h-1.56a13.48 13.48 0 0 1 .23-1.44 3.25 3.25 0 0 1-2.9 1.62c-1.6 0-2.61-1-2.14-3.2l1.24-5.72h1.58l-1.19 5.55c-.23 1.08-.16 2 1.17 2s2.38-1 2.88-3.33l.9-4.23h1.6zM1663.12 790.52 1661 800.7c-.17.82-.35 1.64-.49 2.42h-1.54a12.41 12.41 0 0 1 .21-1.31 3.12 3.12 0 0 1-2.83 1.49c-1.88 0-2.84-1.4-2.84-3.42 0-2.59 1.55-5.67 4.59-5.67a2.42 2.42 0 0 1 2.41 1.27l1-5zm-8 9.2c0 1.47.64 2.19 1.75 2.19 1.74 0 2.64-1.54 3-3.45s-.16-2.87-1.77-2.87c-1.92 0-2.95 2.28-2.95 4.13zM1664.47 800.48c.09.88.64 1.55 1.94 1.55 1.12 0 1.69-.54 1.69-1.33s-.55-1.13-1.77-1.56c-1.91-.65-2.5-1.33-2.5-2.35 0-1.4 1.08-2.58 3.23-2.58 2.3 0 3.2 1.26 3.16 2.54h-1.62c-.06-.58-.33-1.3-1.67-1.3-.84 0-1.48.4-1.48 1.16 0 .58.49.85 1.69 1.28 1.88.65 2.62 1.4 2.62 2.62 0 1.79-1.48 2.79-3.57 2.79-2.24 0-3.37-1.14-3.34-2.82z" transform="translate(3.33 14)"/><path class="cls-39" d="M1871.3 764.78h-15.53l-4.88 14.3a1.53 1.53 0 0 0 .21.14c.94-.38 2-1.09 6.23-1.09 6.74 0 13.47 4.25 13.63 12.74.15 7.49-6.42 12.74-13.85 12.74-6.34 0-10.25-2.79-10.81-4.92" transform="translate(3.33 14)"/><path d="M1960 771c2.13-3.49-.3-5.71.41-7.31h.07c.17 4.25 1 5.65 2.29 5.56.85-.06 1.7-.52 1.7-5.77.06-.53.32.3.23.69-1.2 5 1.75 4.19 2.08 3.71" transform="translate(3.33 14)" style="stroke:#000;stroke-miterlimit:10;fill:none"/><path class="cls-39" d="M1825.4 773.34a19.41 19.41 0 1 0 3.27 12.32H1811" transform="translate(3.33 14)"/><path d="m1778.32 819.1-14.02-41.86h3.03l12.12 35.55 12.37-35.55h3.06l-14.51 41.86h-2.05z"/><ellipse class="cls-39" cx="1890.01" cy="798.14" rx="11.77" ry="19.41"/><ellipse class="cls-39" cx="1917.88" cy="798.14" rx="11.77" ry="19.41"/><ellipse class="cls-39" cx="1945.84" cy="798.14" rx="11.77" ry="19.41"/><path id="logo_philips-4" data-name="logo philips" class="cls-26" d="M1950.31 944.53a12.66 12.66 0 0 1-6.81-2.48 11.83 11.83 0 0 1-1.31-1.13 12.69 12.69 0 0 1-3.77-8.24c0-.48-.2-20 0-19.84l.22-.05c.56-.07 2.56-.29 3.67-.37a119.85 119.85 0 0 1 14.29-.2c2.56.12 6.07.39 7.09.55h.13V933a12.75 12.75 0 0 1-13.5 11.51zm1.79-1.69a11.27 11.27 0 0 0 4.05-1.15l.34-.2c0-.08-.25-1.92-.31-2.28-.1-.66-.23-.94-.53-1.14a2.15 2.15 0 0 0-1-.29c-.44-.07-2.62-.35-2.71-.35s0 0 0-.09v-.1l1.13-.14a16 16 0 0 0 2.39-.38.9.9 0 0 0 .37-.25c.23-.24.3-.43.41-1.15.09-.55.35-2.6.35-2.71s0-.07-.61.07a14.64 14.64 0 0 0-3.37 1.45c-2.82 1.53-4.28 2-6.36 2.14a10 10 0 0 1-5.43-1.29l-.27-.14a8.88 8.88 0 0 0 .66 1.78 11.1 11.1 0 0 0 9.12 6.23h1.81zm1.76-.76c0-.09-.17-1.3-.2-1.4a.52.52 0 0 0-.41-.36l-.74-.11c-.53-.07-.64-.1-.6-.14l.64-.1c.75-.1.86-.13 1-.25s.15-.23.25-1c0-.34.09-.63.1-.64s.07.08.1.31a7.71 7.71 0 0 0 .2 1.2c.11.22.21.25 1.19.38l.53.06-.82.15c-.64.08-.75.12-.87.27s-.12.24-.2.86-.1.74-.14.74zm3.51-1.12a11.06 11.06 0 0 0 3-3 1.5 1.5 0 0 0 .22-.39s-1.56.18-2.13.27a1.55 1.55 0 0 0-1 .4 1.36 1.36 0 0 0-.33.81c-.07.38-.3 2.05-.3 2.18s0 .08.08 0l.44-.29zm3.68-4.24a11.19 11.19 0 0 0 .67-1.69 13.44 13.44 0 0 0 .37-1.68c0-.24.05-.21-.51-.4a11.26 11.26 0 0 0-2.74-.53 10.37 10.37 0 0 0-2 .08c-.07 0-.09 0-.09.12s.29 2.42.37 2.88c.13.77.31 1 .79 1.23a14.78 14.78 0 0 0 2 .33c1.03.14.89.18 1.14-.34zm-15.16-2.21a9.71 9.71 0 0 0 3.14-.74c.29-.11 1.32-.6 2.29-1.09a18.44 18.44 0 0 1 3.9-1.66 8.85 8.85 0 0 1 2.7-.29 9.17 9.17 0 0 1 3.92.88 1.58 1.58 0 0 0 .35.13s0-1.11-.08-1.28-.08-.12-.35-.28a9.87 9.87 0 0 0-3.65-1.08h-1a9.06 9.06 0 0 0-2.67.35 17.44 17.44 0 0 0-3.45 1.5l-2 1a11.45 11.45 0 0 1-3.37 1 13.62 13.62 0 0 1-2.56-.05 9.69 9.69 0 0 1-2.64-.8l-.36-.17v1.38l.27.15a8.19 8.19 0 0 0 2.26.88 10.56 10.56 0 0 0 3.21.28zm-.73-3.42a1.38 1.38 0 0 0 .3-.06s-.14-1.41-.28-2.45-.21-1.2-.48-1.47-.6-.33-2.35-.55l-.88-.11-.15.28a11.3 11.3 0 0 0-.85 2.16 8.56 8.56 0 0 0-.27 1.36v.21l.29.11a10.87 10.87 0 0 0 2.94.58 11.7 11.7 0 0 0 1.73-.06zm1-.19a16.09 16.09 0 0 0 3.93-1.61A25.55 25.55 0 0 1 1953 928a10 10 0 0 1 6.56-.24 10.36 10.36 0 0 1 2 .86c.27.17.27.17.09-.36a11.1 11.1 0 0 0-2.14-3.72 14.06 14.06 0 0 0-1.43-1.36 11.12 11.12 0 0 0-5.78-2.36 14.69 14.69 0 0 0-2.39 0 12.55 12.55 0 0 0-1.43.26s.14 1.27.2 1.56a.73.73 0 0 0 .34.54 5.17 5.17 0 0 0 1.22.21c.73.09.75.09.75.15s-.1.06-.34.08a9.72 9.72 0 0 0-1.62.27.7.7 0 0 0-.35.54c-.05.23-.22 1.5-.2 1.51l1 .12.95.11v.18c-.07 0-2.49.31-2.81.37-.68.11-.84.16-1.08.39s-.33.47-.47 1.48c-.11.74-.29 2.19-.29 2.3s0 .1.47 0zm-3.69-4.91c1.74-.23 1.94-.27 2.24-.55s.35-.54.53-1.94c.14-1.06.15-1.1.14-1.11a10 10 0 0 0-.94.63 12.32 12.32 0 0 0-2.16 2.17c-.22.3-.53.76-.56.83s0 .07.75 0zm5.8-.16c0-.06 0-.29-.07-.52-.15-1.17-.23-1.36-.66-1.46-.18 0-1.59-.24-1.6-.22a10 10 0 0 0 .22 1.32 1.11 1.11 0 0 0 .8.77c.17 0 1.1.2 1.28.22v-.11zm-1.63-2.43a3.39 3.39 0 0 0 1.11-.22c.19-.09.28-.28.35-.66s.18-1.3.18-1.35a6.78 6.78 0 0 0-1.59.53 7 7 0 0 0-.91.46 3 3 0 0 0 0 .67c.06.55.08.65.13.65l.68-.08zm14.58-4.32a1.19 1.19 0 0 0 1.08-1.21c0-.63-.25-.88-1.17-1.22-.43-.15-.62-.27-.67-.42s0-.24.2-.31a2.64 2.64 0 0 1 1.1.05l.27.07a5.25 5.25 0 0 0-.08-.81 4.35 4.35 0 0 0-1.66-.09 1.53 1.53 0 0 0-.76.39 1.11 1.11 0 0 0 0 1.52 2.2 2.2 0 0 0 .82.44c.59.22.73.33.7.54s-.19.32-.6.31a3.18 3.18 0 0 1-1.09-.2.92.92 0 0 0-.25-.06s.08.71.11.82.13.11.43.17a4.37 4.37 0 0 0 1.53 0zm-19.78-.48v-.47h.38a1.71 1.71 0 0 0 1.67-.78 1.58 1.58 0 0 0 .17-.9 1 1 0 0 0-.12-.54c-.24-.51-.7-.75-1.57-.81a14.05 14.05 0 0 0-1.65.07h-.07v3.87h1.19zm.07-2v-.8h.19a.78.78 0 0 1 .77.38 1.26 1.26 0 0 1 0 .72c-.1.3-.33.45-.74.49h-.25zm3.82 1.66v-.76h1.23v1.52h1.19v-3.88h-1.19v1.53h-1.23v-1.53h-1.2v3.88h1.2zm4.48-1.18v-1.94h-1.19v3.88h1.19zm3.09 1.62.09-.4v-.07h-1.14v-3.09h-1.2v3.88h2.15zm1.73-1.62v-1.94h-1.23v3.88h1.23zm2.06 1.48v-.47h.37a4.87 4.87 0 0 0 .6 0 1.5 1.5 0 0 0 1.21-1.87c-.13-.7-.64-1.05-1.67-1.12a13.57 13.57 0 0 0-1.65.07c-.06 0-.06.13-.06 2v1.94h1.2zm.06-2v-.8h.2c.51 0 .79.23.82.69a.76.76 0 0 1-.79.9h-.23z" transform="translate(3.33 14)"/></svg>