<svg id="Calque_1" data-name="Calque 1" xmlns="http://www.w3.org/2000/svg" width="164.9" height="200.12" viewBox="0 0 164.9 200.12"><defs><style>.cls-1{fill:#333;}.cls-2{fill:#232222;}.cls-3{fill:#020202;stroke:#191919;stroke-width:5px;}.cls-3,.cls-7,.cls-8{stroke-miterlimit:10;}.cls-4{fill:#212121;}.cls-5{fill:#2b2b2b;}.cls-6{fill:#424242;}.cls-7,.cls-8{fill:none;}.cls-7{stroke:#606060;stroke-width:3px;}.cls-8{stroke:#161616;stroke-width:2px;}.cls-9{fill:#e53c3c;}.cls-10{fill:#606060;opacity:0.22;}</style></defs><path class="cls-1" d="M160,200.4H6.05a5.55,5.55,0,0,1-5.5-5.5V5.9A5.55,5.55,0,0,1,6.05.4H160a5.55,5.55,0,0,1,5.5,5.5V194.8a5.57,5.57,0,0,1-5.5,5.6" transform="translate(-0.55 -0.4)"/><path class="cls-2" d="M161.87.83A5.28,5.28,0,0,1,162.33,3V191.9a5.57,5.57,0,0,1-5.5,5.6H2.93a7,7,0,0,1-2.21-.73c.79,2.09,2,3.75,7.18,3.75l151.88-.12a5.57,5.57,0,0,0,5.5-5.6V5.9A5.54,5.54,0,0,0,161.87.83Z" transform="translate(-0.55 -0.4)"/><path class="cls-3" d="M141.23,97.3V23.7a7,7,0,0,0-7-7H23.33a7,7,0,0,0-7,7V172.1c0,3.9,3.1,7,8.78,7H136c2.12,0,5.22-3.1,5.22-7Z" transform="translate(-0.55 -0.4)"/><circle class="cls-4" cx="76.28" cy="91.9" r="23.72"/><path class="cls-5" d="M134.23,15.2H19.33a5.59,5.59,0,0,0-5.6,5.6V172.2a5.59,5.59,0,0,0,5.6,5.6h114.9a5.59,5.59,0,0,0,5.6-5.6V20.8A5.66,5.66,0,0,0,134.23,15.2ZM103.43,96l-5.3,5.3v7.5a5,5,0,0,1-5,5h-7.5l-5.3,5.3a5.15,5.15,0,0,1-3.6,1.5,4.91,4.91,0,0,1-3.6-1.5l-5.3-5.3h-7.5a5,5,0,0,1-5-5v-7.4L50,96.1a5.15,5.15,0,0,1-1.5-3.6A5.08,5.08,0,0,1,50,88.9l5.3-5.3V76.1a5,5,0,0,1,5-5h7.5l5.3-5.3a5.15,5.15,0,0,1,3.6-1.5,4.91,4.91,0,0,1,3.6,1.5l5.3,5.3h7.5a5,5,0,0,1,5,5v7.5l5.3,5.3a5.15,5.15,0,0,1,1.5,3.6A5.58,5.58,0,0,1,103.43,96Z" transform="translate(-0.55 -0.4)"/><path class="cls-6" d="M133.93,132.1H19.73a.6.6,0,0,1,0-1.2h114.2a.65.65,0,0,1,.6.6q-.15.6-.6.6m0,9.3H19.73a.6.6,0,0,1,0-1.2h114.2a.65.65,0,0,1,.6.6q-.15.6-.6.6m0,9.3H19.73a.6.6,0,0,1,0-1.2h114.2a.65.65,0,0,1,.6.6q-.15.6-.6.6m0,9.3H19.73a.6.6,0,0,1,0-1.2h114.2a.65.65,0,0,1,.6.6q-.15.6-.6.6m0,9.3H19.73a.6.6,0,0,1,0-1.2h114.2a.65.65,0,0,1,.6.6q-.15.6-.6.6m-1.4-148.1H59.73a.6.6,0,1,1,0-1.2h72.8a.65.65,0,0,1,.6.6q-.15.6-.6.6m0,5.2H59.73a.6.6,0,1,1,0-1.2h72.8a.65.65,0,0,1,.6.6q-.15.6-.6.6m0,5.2H59.73a.6.6,0,0,1,0-1.2h72.8a.65.65,0,0,1,.6.6q-.15.6-.6.6m0,5.2H59.73a.6.6,0,1,1,0-1.2h72.8a.65.65,0,0,1,.6.6q-.15.6-.6.6m0,5.2H59.73a.6.6,0,0,1,0-1.2h72.8a.65.65,0,0,1,.6.6q-.15.6-.6.6m0,5.2H59.73a.6.6,0,0,1,0-1.2h72.8a.65.65,0,0,1,.6.6q-.15.6-.6.6" transform="translate(-0.55 -0.4)"/><path class="cls-7" d="M65.23,93.3c0-7.5,4.1-14.6,11.6-14.6s11.6,7.1,11.6,14.6" transform="translate(-0.55 -0.4)"/><path class="cls-7" d="M90.43,93.3" transform="translate(-0.55 -0.4)"/><path class="cls-1" d="M90.23,92.3a13.6,13.6,0,1,1-13.6-13.6,13.61,13.61,0,0,1,13.6,13.6" transform="translate(-0.55 -0.4)"/><path class="cls-8" d="M52.63,15.2V47.1H13.73" transform="translate(-0.55 -0.4)"/><path class="cls-9" d="M13.73,47.1h38.9V15.2H19.33a5.59,5.59,0,0,0-5.6,5.6Z" transform="translate(-0.55 -0.4)"/><path class="cls-10" d="M87.84,98.08c0,1.5-4.17,7.22-10.72,7.22-7.5,0-10.22-4.61-10.22-6.11s3.16-5.89,9.73-5.89C83.84,93.3,87.84,96.58,87.84,98.08Z" transform="translate(-0.55 -0.4)"/></svg>