<svg id="Calque_1" data-name="Calque 1" xmlns="http://www.w3.org/2000/svg" xmlns:xlink="http://www.w3.org/1999/xlink" width="138mm" height="88.04mm" viewBox="0 0 391.19 249.56"><defs><style>.cls-1,.cls-12,.cls-13,.cls-21,.cls-22,.cls-5{fill:none;}.cls-2{fill:#191919;}.cls-3{fill:#282828;}.cls-4{clip-path:url(#clip-path);}.cls-5{stroke:#727272;stroke-width:6px;}.cls-11,.cls-12,.cls-13,.cls-20,.cls-21,.cls-22,.cls-5,.cls-9{stroke-miterlimit:10;}.cls-11,.cls-17,.cls-6{fill:#1d1d1b;}.cls-7{fill:#7e4e24;}.cls-8{fill:#fff;}.cls-9{fill:#b1b1b1;stroke:#6f6f6e;}.cls-20,.cls-9{stroke-width:3px;}.cls-10{fill:#6f6f6e;}.cls-11,.cls-20{stroke:#fff;}.cls-11{stroke-width:4px;}.cls-12{stroke:#422918;}.cls-12,.cls-21{stroke-width:2px;}.cls-13{stroke:#b17f49;}.cls-14{fill:#3f3f3f;}.cls-15{fill:#383838;}.cls-16{fill:#d9d9d9;}.cls-16,.cls-17{opacity:0.26;}.cls-18{fill:#9c9b9b;}.cls-19{fill:#ffc000;}.cls-20{fill:#f29100;}.cls-21,.cls-22{stroke:#000;}</style><clipPath id="clip-path"><rect class="cls-1" x="4.68" width="381.82" height="241.25"/></clipPath></defs><path class="cls-2" d="M.5,147.89l6.18-10.18v64.15H3.43A3.43,3.43,0,0,1,0,198.43V149.67A3.37,3.37,0,0,1,.5,147.89Z"/><path class="cls-2" d="M390.69,147.89l-6.19-10.18v64.15h3.25a3.43,3.43,0,0,0,3.44-3.43V149.67A3.46,3.46,0,0,0,390.69,147.89Z"/><rect class="cls-3" x="27.42" y="165.12" width="340.85" height="76.13"/><g class="cls-4"><path class="cls-5" d="M74.33,191.86H310.48s6.63-1.14,8.7,4.81l13,37.36a11.38,11.38,0,0,0,3.61,5.5c5.5,4.15,15.1,7.16,15.1,7.16"/></g><path class="cls-2" d="M339.42,241.25h34.44a12.64,12.64,0,0,0,12.64-12.64v-216A12.64,12.64,0,0,0,373.86,0H17.33A12.64,12.64,0,0,0,4.68,12.64v216a12.64,12.64,0,0,0,12.65,12.64H56.22a6.63,6.63,0,0,0,6.47-5.17L73.48,197A6.64,6.64,0,0,1,80,191.86H312.8a6.64,6.64,0,0,1,6.38,4.81L333,236.44A6.64,6.64,0,0,0,339.42,241.25Z"/><rect class="cls-6" x="137.79" y="89.22" width="123.1" height="51"/><g id="R1"><circle class="cls-7" cx="289.39" cy="114.49" r="53.85"/><circle class="cls-8" cx="289.39" cy="114.49" r="38.27"/><circle class="cls-9" cx="289.39" cy="114.62" r="33.78"/><circle class="cls-10" cx="289.39" cy="114.62" r="27.69"/><circle class="cls-11" cx="289.39" cy="114.62" r="21.92"/><path class="cls-8" d="M289.42,135.86a21.52,21.52,0,1,0-21.52-21.52A21.52,21.52,0,0,0,289.42,135.86Zm-16-35.22a21.07,21.07,0,0,1,13-7.15v7.76h5.83V93.48a21.05,21.05,0,0,1,13.38,7.46l-6.56,4.1,3.08,4.94,6.53-4.08a21.14,21.14,0,0,1-.33,17.61l-6.3-4.12-3.18,4.87,6.24,4.09a21.09,21.09,0,0,1-12.86,6.86v-7.37h-5.83v7.35A21,21,0,0,1,273.37,128l6.27-3.91-3.09-4.94-6.3,3.94a21,21,0,0,1,0-17.52l6.36,4.17,3.19-4.88Z"/></g><g id="R1-2" data-name="R1"><path class="cls-7" d="M179.55,150.24a80.77,80.77,0,1,0-144.72,0Z"/><circle class="cls-8" cx="106.47" cy="115.5" r="39.79"/><circle class="cls-9" cx="104.57" cy="114.68" r="35.12"/><circle class="cls-10" cx="105.52" cy="114.68" r="28.79"/><circle class="cls-11" cx="105.52" cy="114.62" r="21.92"/><path class="cls-8" d="M105.55,135.86A21.52,21.52,0,1,0,84,114.34,21.51,21.51,0,0,0,105.55,135.86Zm-16-35.22a21,21,0,0,1,13-7.15v7.76h5.83V93.48a21,21,0,0,1,13.38,7.46l-6.56,4.1,3.09,4.94,6.52-4.08a21.14,21.14,0,0,1-.33,17.61l-6.29-4.12L115,124.26l6.24,4.09a21.09,21.09,0,0,1-12.86,6.86v-7.37h-5.83v7.35A21,21,0,0,1,89.5,128l6.27-3.91-3.08-4.94-6.31,3.94a21,21,0,0,1,0-17.52l6.36,4.17L96,104.83Z"/><path class="cls-12" d="M46.7,157.8a72.69,72.69,0,1,1,120.59-2.51"/><path class="cls-13" d="M156,116a49.81,49.81,0,1,1-49.81-49.81A49.6,49.6,0,0,1,156,116Z"/></g><circle class="cls-6" cx="102.35" cy="228.62" r="6.75"/><circle class="cls-6" cx="293.78" cy="228.62" r="6.75"/><circle class="cls-6" cx="131.04" cy="217.65" r="6.75"/><circle class="cls-6" cx="260.89" cy="217.3" r="6.75"/><circle class="cls-14" cx="44.98" cy="215.32" r="13.46"/><circle class="cls-14" cx="348.98" cy="215.32" r="13.46"/><circle class="cls-15" cx="16.71" cy="11.91" r="5.34"/><circle class="cls-15" cx="16.71" cy="231.01" r="5.34"/><circle class="cls-15" cx="374.25" cy="12.11" r="5.34"/><circle class="cls-15" cx="374.25" cy="231.21" r="5.34"/><rect class="cls-16" x="137.79" y="89.22" width="123.1" height="51"/><rect class="cls-17" x="137.79" y="87.32" width="123.1" height="11.31"/><rect class="cls-17" x="137.79" y="132.91" width="123.1" height="11.31"/><path class="cls-18" d="M72.49,82.33v66.45h253V82.33Zm32.81,59.23a26.92,26.92,0,1,1,26.92-26.92A26.92,26.92,0,0,1,105.3,141.56Zm150.53-3.85H140.13V92.41h115.7Zm33.56,3.85a26.92,26.92,0,1,1,26.93-26.92A26.92,26.92,0,0,1,289.39,141.56Z"/><path class="cls-19" d="M361.9,19.47H28.42A6.38,6.38,0,0,0,22,25.84v146a6.38,6.38,0,0,0,6.38,6.37H361.9a6.37,6.37,0,0,0,6.37-6.37v-146A6.37,6.37,0,0,0,361.9,19.47Zm-40.63,95c0,15.77-10.84,29.5-26.55,29.5l-194.44.49c-15.72,0-24.94-14.22-24.94-30h0C74.42,96.67,85.22,84,100.94,84H294.72c15.71,0,26.55,14.68,26.55,30.45Z"/><path class="cls-19" d="M75.25,113.11c.09-15.84,12.25-29.12,30-29H289.84c21.48,0,30.91,14,30.91,29h47.52V23.94a6.37,6.37,0,0,0-6.37-6.37H28.42A6.38,6.38,0,0,0,22,23.94v89.17Z"/><path class="cls-20" d="M276.74,44.42"/><path class="cls-20" d="M84.49,44.42"/><line class="cls-21" x1="197.84" y1="49.31" x2="31.52" y2="49.31"/><g id="LOGO_PHILIPS" data-name="LOGO PHILIPS"><path id="path7" d="M324.89,154c3.16.85,7.09,2.54,7,6.29-.11,7-9,6.33-12.14,5.58v-4.53c6.6,1.89,11-1.23,2.74-3.3a4.83,4.83,0,0,1-3.11-5c.63-6.13,5.73-6.28,10.7-5.57V152c-5.07-2.45-7.05,1.31-5.22,2"/><polyline id="polyline9" points="258.07 154.4 263.19 154.4 263.19 147.59 267.95 147.59 267.95 165.9 263.19 165.9 263.19 158.55 258.07 158.55 258.07 165.9 253.3 165.9 253.3 147.59 258.07 147.59 258.07 154.4"/><rect id="rect11" x="272.44" y="147.59" width="4.76" height="18.31"/><rect id="rect13" x="293.72" y="147.59" width="4.76" height="18.31"/><polyline id="polyline15" points="286.45 161.74 291.36 161.74 291.36 165.9 281.68 165.9 281.68 147.59 286.45 147.59 286.45 161.74"/><path id="path17" d="M237,151.62v-4.05c7.17,0,14.3-1.13,14.3,7.21,0,4.71-3.13,7.57-10.57,7.2l1-4.15c6.36,1,6.07-7.56,0-6.18l-4.77,0"/><polyline id="polyline19" points="241.79 165.9 237.02 165.9 237.02 151.07 241.79 151.1 241.79 165.9"/><path id="path17-2" data-name="path17" d="M303,151.62v-4.05c7.17,0,14.3-1.13,14.3,7.21,0,4.92-3.14,7.57-10.58,7.2l1-4.15c6.36,1,6.08-7.56,0-6.18l-4.76,0"/><polyline id="polyline19-2" data-name="polyline19" points="307.79 165.9 303.02 165.9 303.02 151.07 307.78 151.1 307.79 165.9"/></g><path class="cls-5" d="M244.14,51.7"/><path id="path3347" d="M347.18,176.56c-.37,0-.73-.07-1.06-.12l-.65-.14a11,11,0,0,1-1.26-.37l-.37-.15a9.48,9.48,0,0,1-1.15-.57l-.16-.09-.09-.05-.23-.15a10.36,10.36,0,0,1-1.64-1.35,9.69,9.69,0,0,1-1.32-1.62c-.06-.08-.12-.19-.15-.23a.28.28,0,0,1-.05-.09l-.13-.23a8.51,8.51,0,0,1-.54-1.09l-.15-.36a10.92,10.92,0,0,1-.37-1.29.3.3,0,0,0,0-.09s-.08-.38-.11-.56a1.49,1.49,0,0,1,0-.17c-.11-.59-.1-.27-.11-8.75V151l.25,0c.6-.08,2.58-.25,2.69-.24h.06s.34,0,.76-.07l.93,0,1.82-.1c2.36-.11,5.48-.1,8.13,0,1,0,2.56.14,3.09.19l.8.06c.64.06,1.49.14,1.75.18l.2,0v16.19l-.05.4c0,.22-.08.49-.1.6s-.05.23-.06.27-.05.22-.1.42a10.23,10.23,0,0,1-1,2.38c-.1.18-.2.34-.21.35s0,0,0,0a6.8,6.8,0,0,1-.42.64A11.17,11.17,0,0,1,354,174.5l-.17.14a.05.05,0,0,1,0,0l-.19.12c-.09.07-.18.12-.2.11s0,0,0,0,0,0-.08.09l-.12.07a1.57,1.57,0,0,1-.3.18l-.1,0a8.56,8.56,0,0,1-1.08.52l-.27.11a3.55,3.55,0,0,1-.6.19l0,0-.25.08-.38.09a.41.41,0,0,1-.19,0s0,0,0,0a1.6,1.6,0,0,1-.37.08,9.94,9.94,0,0,1-2.39.14Zm-.64-.12h-.05s0,0,0,0Zm-1.26-.25s0,0,0,0-.06,0,0,0Zm3.41-1a9.22,9.22,0,0,0,2.73-.71c.62-.28.73-.35.73-.43s0-.05,0,0a1.64,1.64,0,0,1-.05-.33c0-.19,0-.4-.06-.49l-.09-.64a2.51,2.51,0,0,0-.22-.92.29.29,0,0,1,0-.15s0,0,0,0-.07,0-.14-.08-.29-.19-1.64-.37c-.65-.09-1.32-.17-1.39-.17s0,0,0-.08v-.08l.82-.1,1-.12.28,0,.25,0,.25,0a1.28,1.28,0,0,0,.33-.11.77.77,0,0,0,.41-.42,12.86,12.86,0,0,0,.32-1.95c.06-.48.11-.89.12-.9s-.06-.05-.3,0l-.45.12-.21.06c-.1,0-.68.25-.88.34s-1.27.63-1.31.66l-.64.34-.36.19c-.13.08-.9.43-1.27.57a6.52,6.52,0,0,1-1.51.46,0,0,0,0,0,0,0,3.44,3.44,0,0,1-.74.14,9.2,9.2,0,0,1-2.29,0l-.57-.12-.22-.05a8.31,8.31,0,0,1-1.53-.58,5.35,5.35,0,0,1-.54-.3c-.06-.05-.07,0,0,.17a9.32,9.32,0,0,0,.91,2,8.88,8.88,0,0,0,1.72,2,7.74,7.74,0,0,0,1.31,1,8.93,8.93,0,0,0,3.59,1.2,13.93,13.93,0,0,0,1.83,0Zm1.32-.71s0-.29-.07-.52a2.89,2.89,0,0,0-.1-.54c-.07-.21-.16-.24-.74-.32a2.41,2.41,0,0,1-.65-.12.34.34,0,0,1,.15,0l.59-.08c.4-.05.44-.07.53-.14s.15-.18.21-.64a2.27,2.27,0,0,1,.07-.37s0,0,0-.08,0-.25.05-.25,0,0,.12.66a2.49,2.49,0,0,0,.11.57c.08.16.19.2.94.29.42.06.48.07.46.09l-.5.08c-.68.1-.76.12-.84.21s-.12.2-.19.74-.07.56-.1.56,0,0,0-.1Zm1.31-1.49a0,0,0,0,0-.05,0s0,0,0,0,0,0,0,0Zm-1.25-1.38s0,0,0,0,0,0,0,0Zm-1,3.6a0,0,0,0,0-.05,0s0,0,0,0,.05,0,0,0Zm4.15-.27c0-.05,0-.05,0,0l-.07,0h0a.13.13,0,0,0,.07,0Zm-.14-1.45a9,9,0,0,0,2.17-2.31c.17-.25.18-.3.09-.27a4.15,4.15,0,0,1-.71.08,0,0,0,0,0,0,0,4.93,4.93,0,0,1-.6.1c-.7.1-.67.1-.86.19a1,1,0,0,0-.53.84l-.06.45c-.07.39-.18,1.32-.17,1.35a2.37,2.37,0,0,0,.7-.44Zm-12.55,0-.06-.06-.06,0,.05.06c.05,0,.07.07.07,0Zm15.12-.68s0,0,0,0-.06.06,0,.06A.2.2,0,0,0,355.69,172.8Zm-3.67-.09s0,0,0,0,0,0,0,0Zm.58-.56s0,0,0,0,0,.05,0,0a0,0,0,0,0,0,0Zm3.88-.43s0,0,0,0l0,0s0,0,0,0A.09.09,0,0,0,356.48,171.72Zm-2.84-.61c.05,0,0,0,0,0s-.09,0-.09,0,0,0,0,0,.05,0,0,0,0,0,.07,0Zm-4.53-.25h-.05s0,0,0,0Zm-.14-.16h-.05s0,0,0,0,0,0,0,0Zm6.84-.44c.1-.2.22-.46.27-.58s.32-.93.34-1a.3.3,0,0,1,0-.09s.12-.6.17-.88,0-.33,0-.34l-.34-.1-.6-.18-.4-.1-.19,0-.45-.07a10,10,0,0,0-1.91,0c-.36,0-.37,0-.36.1s0,.22.05.42c.09.79.28,2.16.34,2.33a.87.87,0,0,0,.79.66c.35.07,1.82.27,2,.28s.09,0,.27-.37Zm-5.64.28h-.05s0,0,0,0,0,0,0,0Zm-6.67-.68h-.15s0,0,.08,0S343.54,169.87,343.5,169.86Zm.65,0h-.06c.07,0,.1,0,.06,0Zm8.44-.53c0-.06,0,0,0,0a.07.07,0,0,0,0,0s0,0,0-.06Zm5.17-.68s0,0,0,0,0,.06,0,0S357.77,168.64,357.76,168.63Zm-13.83-.16a8.93,8.93,0,0,0,1.81-.4l.37-.15.61-.27.58-.27.31-.14,0,0a8.81,8.81,0,0,1,1.07-.56l.73-.35.21-.1a12.24,12.24,0,0,1,1.61-.56l.56-.11a10.59,10.59,0,0,1,2-.06,10.38,10.38,0,0,1,1.31.23c.35.1.66.2.82.26l.24.1.28.13a.6.6,0,0,0,.21.09s0-1-.07-1-.13-.16-.47-.33l-.23-.11-.12-.05a8.51,8.51,0,0,0-2.08-.57,5.36,5.36,0,0,0-1.1-.06,7.29,7.29,0,0,0-1.95.21,9.28,9.28,0,0,0-1.15.37l-.14.07a15.88,15.88,0,0,0-1.64.79l-1.5.74-.64.27-.1,0a6.78,6.78,0,0,1-.78.27,5.45,5.45,0,0,1-.56.14l-.16,0a6.85,6.85,0,0,1-1.54.14,2.74,2.74,0,0,1-.61,0h-.06a2.67,2.67,0,0,1-.65-.07l-.16,0a7.07,7.07,0,0,1-1.81-.59l-.25-.12a4.52,4.52,0,0,0,0,.79c0,.38,0,.34.49.59a8.26,8.26,0,0,0,4.47.76Zm-6.17-.62s0,0,0,0,0,0,0,0,0,0,0-.05Zm14.63,0s0,0,0,0,0,0,0,0a0,0,0,0,0,0-.05Zm0-.29s0,0,0,0,0,.05,0,0a0,0,0,0,0,0-.05Zm-14.66-.16s0,0,0,0,0,.05,0,0a0,0,0,0,0,0,0Zm0-.19s0,0,0,0,0,.05,0,0,0,0,0,0Zm5.95-.15h-.05s0,0,0,0,0,0,0,0Zm9-.26,0,0s0,0,0,0,.07,0,.07,0Zm-6.13-.64h0s0,0,0,0,0,0,0,0Zm-3.76-.32h-.05s0,0,0,0Zm.36-.09.23,0v-.11c-.08-.63-.24-1.87-.27-2.06s0-.28,0-.33a.5.5,0,0,0,0-.12.68.68,0,0,1,0-.12.91.91,0,0,0-.81-.67l-.22-.05s-.05,0-.12,0l-.9-.11a7.79,7.79,0,0,0-.81-.09s-.35.67-.43.86l-.1.27a2,2,0,0,1-.07.2,8.28,8.28,0,0,0-.4,1.58c0,.29,0,.35,0,.32a.41.41,0,0,1,.18.05,9.33,9.33,0,0,0,2,.46,16,16,0,0,0,1.84,0Zm1-.2.17,0s0,0,0,0,0,0,0,0l.29-.08.27-.09.09,0,.31-.13a17,17,0,0,0,1.72-.82l1.13-.55.22-.1a10.36,10.36,0,0,1,2.72-.86,8.35,8.35,0,0,1,1.42-.09h.19a6.91,6.91,0,0,1,1.78.3,7.59,7.59,0,0,1,1,.34l.44.21.46.25s.08,0,.09,0a7.28,7.28,0,0,0-.34-1,9.26,9.26,0,0,0-1.22-2.06c-.1-.13-.16-.22-.15-.24s0,0,0,0-.1-.06-.19-.16l-.41-.43c-.15-.14-.25-.26-.24-.28s0,0,0,0-.22-.14-.2-.17,0,0,0,0-.11,0-.23-.14a8.61,8.61,0,0,0-1.13-.77,10.68,10.68,0,0,0-1.84-.79l-.16,0-.05,0-.28-.07-.4-.08a8.59,8.59,0,0,0-3.39,0c-.46.09-.49.1-.46.17a1.94,1.94,0,0,1,0,.24c0,.32.13.95.15,1.05a.75.75,0,0,0,.1.2c.12.16.16.17.95.27l.59.08c.34.05.27.09-.22.15a11,11,0,0,0-1.1.17c-.22.06-.3.21-.37.66,0,.19-.07.47-.08.62a2.56,2.56,0,0,1-.06.33c0,.06,0,.06.51.13l.6.08.31,0c.13,0,.13,0,.13.08s0,.08,0,.08-2,.26-2.34.31a1.58,1.58,0,0,0-.66.2l-.12,0s-.05,0-.05.06a.25.25,0,0,1,0,.11.75.75,0,0,0-.17.42c-.06.3-.14.84-.19,1.28,0,.21-.05.39-.06.41a.23.23,0,0,0,0,.07s0,.2,0,.41,0,.4,0,.41a4.32,4.32,0,0,0,.6-.12Zm0-3a0,0,0,0,1,0,0,0,0,0,0,1,0,0,0,0,0,0,1,0,0A0,0,0,0,1,344,162.54Zm12.73,2.88s0,0,0,0,0,0,0,0a0,0,0,0,0,0-.05Zm-3.08-1.32h-.07s0,0,0,0S353.68,164.11,353.66,164.1Zm-1.78,0h-.05s0,0,0,0,0,0,0,0Zm-8.22-.57s0,0,0,0,0,.05,0,0a0,0,0,0,0,0-.05Zm12,0h0s0,0,0,0,.05,0,0,0Zm-12.75-.8c0-.06,0,0,0,0l0,0S342.91,162.76,342.9,162.74Zm-.44-.43h0s0,0,0,0,.05,0,0,0Zm-.84-.16a.09.09,0,0,0-.07,0s0,0,0,0S341.64,162.16,341.62,162.15Zm-.22,0h-.08s0,0,0,0,.06,0,0,0Zm5.44-.18h0s0,0,0,0,.05,0,0,0Zm.25,0H347s0,0,0,0S347.11,161.92,347.09,161.91Zm-.47-.11s0,0-.05,0,0,0,0,0,0,0,0,0Zm-5.93-.13c.17,0,.76-.1,1.15-.16.82-.12,1-.3,1.15-1.09a14.35,14.35,0,0,0,.19-1.68c0-.05,0-.05,0,0a.08.08,0,0,1-.05.07.11.11,0,0,0-.06,0l-.29.2a7.92,7.92,0,0,0-.79.61c-.14.12-.63.6-.8.79s-.18.21-.31.38l-.1.13a3.64,3.64,0,0,0-.5.78.49.49,0,0,0,.16,0Zm4.83-.16c0-.06,0-.28-.07-.5-.1-.79-.13-.88-.29-1a4.78,4.78,0,0,0-1.25-.23.52.52,0,0,1-.21-.05s-.06,0-.05.13.05.27.09.51a1.42,1.42,0,0,0,.28.81c.2.2.36.26,1,.36l.46.06s0,0,0-.09Zm-.61.05h-.05s0,0,0,0,0,0,0,0Zm-2.32-.19s0,0,0,0,0,0,0,0,0,0,0,0Zm1.49-.06,0,0s0,0,0,0a.05.05,0,0,0,0,0S344.09,161.33,344.08,161.31Zm-.28-.4s0,0,0,0,0,.12,0,.1A.14.14,0,0,0,343.8,160.91Zm10.57-.7s0,0,0,0,0,0,0,0a0,0,0,0,0,0,0Zm-.37-.38a.07.07,0,0,0,0,0s0,0,0,0a0,0,0,0,0,0,0Zm-9.38,0a0,0,0,0,0-.05,0s0,0,0,0,0,0,0,0Zm-.21,0h-.05s0,0,0,0,.05,0,0,0Zm2.44,0h-.07s0,0,0,0S346.87,159.78,346.85,159.77Zm-2.66,0h-.05s0,0,0,0,0,0,0,0Zm2.86,0H347s0,0,0,0,0,0,0,0Zm-2.92-.17a5.27,5.27,0,0,0,1-.17c.21-.11.27-.28.36-1,0-.25.06-.49.07-.54s0-.09,0-.09h-.08l-.43.15-.67.24a6.16,6.16,0,0,0-.82.42,8.9,8.9,0,0,0,.12,1.05s.05,0,.15,0l.35,0Zm-1.6-.45s0,0,0,0,0,0,0,0S342.51,159.16,342.53,159.13Zm3.24-.12s0,0,0,0,0,0,0,0,0,0,0-.05Zm9.76-2.81h-.08s0,0,0,0,.07,0,0,0Zm.46-.12a1,1,0,0,0,.74-.53,1.35,1.35,0,0,0,0-.77,1.07,1.07,0,0,0-.72-.58,1.83,1.83,0,0,1-.66-.31.2.2,0,0,1,.13-.35,2.14,2.14,0,0,1,.88.07l.22.07s-.08-.69-.09-.7a3.85,3.85,0,0,0-1-.09,1.35,1.35,0,0,0-.92.33.91.91,0,0,0,.1,1.31,1.9,1.9,0,0,0,.61.29c.35.13.46.2.51.3a.24.24,0,0,1-.08.31,1.82,1.82,0,0,1-1.25-.1c-.19-.08-.21-.08-.21,0s0,.07,0,.07a.64.64,0,0,1,0,.21c0,.41,0,.39.31.45a3.33,3.33,0,0,0,1.37,0ZM340,155.75a2.76,2.76,0,0,1,0-.37s.08,0,.29,0a2.94,2.94,0,0,0,.47,0l.19,0s0,0,0,0,.05,0,.11-.06a1.16,1.16,0,0,0,.61-.59c.07-.14.07-.17.07-.53s0-.4-.07-.54a1.53,1.53,0,0,0-.16-.25,1.46,1.46,0,0,0-.84-.38c-.16,0-1.18,0-1.45,0l-.2,0v1.54c0,.84,0,1.55,0,1.57s.13,0,.48,0H340v-.33Zm.08-1a2.21,2.21,0,0,1,0-.63v-.62h.2c.3,0,.46.09.56.31a.52.52,0,0,1,.05.33.55.55,0,0,1-.22.49.8.8,0,0,1-.57.12Zm.14-.05h-.07s0,0,0,0S340.27,154.71,340.26,154.7Zm2.9.81c0-.32,0-.59,0-.61s.12,0,.49,0h.49v1.23h1v-1.55c0-.85,0-1.56,0-1.56s-.93,0-.94,0a5.27,5.27,0,0,0,0,.61v.6h-1v-.59c0-.32,0-.6,0-.61a1.35,1.35,0,0,0-.47,0h-.48v3.13h1v-.57Zm3.6-1c0-1.47,0-1.56,0-1.56-.49,0-.9,0-.91,0s0,2.59,0,3.09c0,0,.12,0,.48,0h.48v-1.56Zm2.45,1.51s.12-.56.12-.58h-.91v-1.23c0-.68,0-1.24,0-1.24s-.91,0-.94,0,0,.69,0,1.57v1.55h.86c.81,0,.87,0,.89-.05Zm1.43-1.51V153h-1s0,.71,0,1.57v1.56h1v-1.56Zm1.66,1.19v-.36l.39,0a1.77,1.77,0,0,0,.54-.07,1.65,1.65,0,0,0,.53-.31,1.29,1.29,0,0,0,.27-.47s0-.06,0-.06a1.3,1.3,0,0,0,0-.25,1.62,1.62,0,0,0-.13-.7,1.21,1.21,0,0,0-.86-.54,9.45,9.45,0,0,0-1.53,0c-.24,0-.24,0-.24.09s0,.74,0,1.57v1.5h1v-.37Zm.05-1.57v-.64h.2a.55.55,0,0,1,.61.6.61.61,0,0,1-.64.65l-.18,0Zm.68.31s0,0,0,0,0,0,0,0,0,0,0,0a.07.07,0,0,0,0,0Zm0-.72a0,0,0,0,0,0,0,0,0,0,0,0,0,0s0,0,0,0l0,0Zm-7.26,0v1.43c0-.4,0-1,0-1.43Zm-5,1.63h0s0,0,0,0S340.79,155.38,340.78,155.37Zm15-.15s0,0,0,0,0,0,0,0a0,0,0,0,0,0-.05ZM354.31,154s0,0,0,0,0,.05,0,0a0,0,0,0,0,0-.05Zm2.08-.32a.09.09,0,0,0-.05,0s0,0,0,0S356.41,153.68,356.39,153.65Zm-2.39-.27s0,0,0,0,0,0,0,0l0,0a0,0,0,0,0,0,0Zm-.25-.26a.05.05,0,0,0-.05,0s0,0,0,0S353.77,153.15,353.75,153.12Zm-9.64-.22s0,0,0,0,0,.05,0,0a0,0,0,0,0,0,0Zm-6.32-1.83h-.06s0,0,0,0,0,0,0,0Zm2.17-.21a.06.06,0,0,0-.06,0s0,0,0,0S340,150.86,340,150.86Zm2.7-.19h-.07s0,0,0,0S342.68,150.68,342.66,150.67Zm.64,0h-.12s0,0,.06,0,.09,0,.06,0Zm8.66,0h-.1s0,0,0,0,.09,0,.06,0Z"/><path d="M45.34,41.53c.4-1.91.85-3.92,1.13-5h0c-.78,1.7-3.22,6.16-5,9.38H40.13c-.27-2.59-.92-8-1-9.4h0c-.16,1.14-.64,3.52-1,5.31l-.85,4.09H35.87l2.21-10.42h2.21c.37,3,.85,7.14.91,8.53h0c.47-1.09,2.94-5.43,4.63-8.53h2.22l-2.2,10.42H44.42Z"/><path d="M52.26,35.45,50.05,45.87H48.59L50.8,35.45Z"/><path d="M54.1,42.81a2.09,2.09,0,0,0,2.39,2c1.33,0,2.19-.58,2.19-1.79,0-.92-.47-1.47-2.1-2.09-2-.73-2.67-1.48-2.67-2.72,0-1.55,1.09-2.94,3.49-2.94s3.39,1.31,3.41,2.93H59.34a1.76,1.76,0,0,0-2-1.74c-1.23,0-1.89.7-1.89,1.58,0,.7.33,1.13,1.85,1.7,2.14.79,3,1.68,3,3.08,0,1.64-1,3.17-3.88,3.17-2.44,0-3.66-1.32-3.71-3.21Z"/><path d="M63.07,42.81a2.09,2.09,0,0,0,2.39,2c1.32,0,2.19-.58,2.19-1.79,0-.92-.47-1.47-2.1-2.09-2-.73-2.67-1.48-2.67-2.72,0-1.55,1.09-2.94,3.49-2.94s3.39,1.31,3.41,2.93H68.31a1.76,1.76,0,0,0-2-1.74c-1.23,0-1.89.7-1.89,1.58,0,.7.33,1.13,1.85,1.7,2.14.79,3,1.68,3,3.08,0,1.64-1,3.17-3.88,3.17-2.44,0-3.66-1.32-3.71-3.21Z"/><path d="M74.22,35.45,72,45.87H70.55l2.21-10.42Z"/><path d="M84.63,39.61c0,3.07-1.72,6.41-5.56,6.41-2.6,0-4-1.77-4-4.2,0-3.07,1.84-6.52,5.51-6.52C83.26,35.3,84.63,37,84.63,39.61Zm-8,2.16c0,1.74.83,3,2.65,3,2.64,0,3.87-2.76,3.87-5.23,0-1.82-.84-3.07-2.61-3.07C77.88,36.51,76.61,39.38,76.61,41.77Z"/><path d="M85.68,45.87l2.21-10.42h1.89c.86,2.41,2.8,7.58,3.07,8.74h0c.17-1.25.59-3.09.95-4.8l.84-3.94h1.39L93.84,45.87H92.05c-.8-2.24-2.82-7.85-3.11-9h0c-.2,1.34-.58,3.08-1,5l-.85,4Z"/><path d="M110.13,39.61c0,3.07-1.72,6.41-5.56,6.41-2.61,0-4-1.77-4-4.2,0-3.07,1.84-6.52,5.51-6.52C108.76,35.3,110.13,37,110.13,39.61Zm-8,2.16c0,1.74.83,3,2.65,3,2.64,0,3.87-2.76,3.87-5.23,0-1.82-.85-3.07-2.61-3.07C103.37,36.51,102.11,39.38,102.11,41.77Z"/><path d="M120.55,41.53c.4-1.91.85-3.92,1.13-5h-.05c-.78,1.7-3.22,6.16-5,9.38h-1.32c-.27-2.59-.92-8-1-9.4h0c-.17,1.14-.64,3.52-1,5.31l-.85,4.09h-1.39l2.21-10.42h2.21c.37,3,.85,7.14.91,8.53h0c.47-1.09,2.94-5.43,4.63-8.53h2.22l-2.21,10.42h-1.44Z"/><path d="M131.08,41h-4.82l-.76,3.64H131l-.45,1.23h-6.77L126,35.45h6.52l-.26,1.23h-5.07l-.67,3.09h4.83Z"/><path d="M140.73,45.87h-1.17a12.18,12.18,0,0,1,.21-1.5A3.48,3.48,0,0,1,136.52,46c-2.41,0-3.62-1.76-3.62-4.16,0-3.17,1.83-6.54,5.58-6.54,2.31,0,3.72,1.33,3.76,3.21H140.8a2.22,2.22,0,0,0-2.52-2c-2.55,0-3.87,2.69-3.87,5.2,0,1.77.75,3.08,2.5,3.08,2.15,0,2.92-1.55,3.28-3.26v-.05h-2.93l.27-1.29h4.32Z"/><path d="M145.56,42.82l-1.64,3h-1.55l5.74-10.42h1.79l1.53,10.42H150l-.45-3Zm3.85-1.23c-.34-2.41-.55-4-.62-4.91h0c-.46,1-1.4,2.73-2.58,4.91Z"/><path d="M37.73,54.73h5.65l-.23,1.07h-4.4l-.6,2.89h4.11L42,59.75H37.92l-.84,4H35.82Z"/><path d="M44.41,61.12,43,63.76H41.64l5-9h1.55l1.33,9H48.22l-.39-2.64Zm3.33-1.06c-.29-2.09-.48-3.51-.54-4.26h0c-.4.84-1.21,2.37-2.23,4.26Z"/><path d="M58.09,61.06a3.89,3.89,0,0,1-4,2.82c-2.27,0-3.31-1.55-3.31-3.63,0-2.6,1.45-5.65,4.66-5.65a2.89,2.89,0,0,1,3.21,2.89H57.35a1.82,1.82,0,0,0-2-1.84c-2.09,0-3.16,2.37-3.16,4.57,0,1.43.57,2.61,2.11,2.61a2.57,2.57,0,0,0,2.48-1.77Z"/><path d="M65.42,59.55H61.24l-.66,3.15h4.78L65,63.76H59.1l1.91-9h5.66l-.23,1.07H62l-.57,2.68h4.18Z"/><path d="M69.5,63.76l0-.22c.3-1.35,1.24-2.47,3.19-3.76,1.43-1,2.08-1.3,2.08-2.44a1.15,1.15,0,0,0-1.27-1.26c-1,0-1.46.55-1.76,1.65H70.6a3,3,0,0,1,3-2.67,2.18,2.18,0,0,1,2.44,2.25c0,1.57-.85,2.12-2.47,3.18a5.94,5.94,0,0,0-2.41,2.24h4.37l-.37,1Z"/><path d="M79.86,63.76l.46-2.18H76.48l.26-1.12,4.69-5.25h1.42L81.7,60.57h1.08l-.35,1h-.94L81,63.76ZM81,58.31c.14-.64.35-1.49.49-2-.46.72-2.59,3-3.61,4.23h2.62Z"/><path d="M90.17,57.84c0,2.28-.92,6.06-3.85,6.06-1.59,0-2.37-1.1-2.37-2.84,0-2.21,1-6,3.87-6C89.51,55.07,90.17,56.31,90.17,57.84Zm-5,3.21c0,1.1.36,1.83,1.26,1.83,1.81,0,2.47-3.47,2.47-5.06,0-1-.3-1.72-1.25-1.72C85.93,56.1,85.2,59.29,85.2,61.05Z"/><path d="M97.41,57.84c0,2.28-.92,6.06-3.85,6.06-1.59,0-2.37-1.1-2.37-2.84,0-2.21,1-6,3.87-6C96.75,55.07,97.41,56.31,97.41,57.84Zm-5,3.21c0,1.1.36,1.83,1.26,1.83,1.81,0,2.47-3.47,2.47-5.06,0-1-.3-1.72-1.25-1.72C93.17,56.1,92.44,59.29,92.44,61.05Z"/><path d="M103.39,54.73h3c1.84,0,2.58,1,2.58,2.15a2.21,2.21,0,0,1-1.73,2.2,2,2,0,0,1,1.3,1.87c0,1.91-1.49,2.81-3.5,2.81h-3.6Zm-.45,8h2.14c1.2,0,2.17-.55,2.18-1.76,0-.88-.56-1.48-1.87-1.48h-1.77Zm2.75-4.26c1.18,0,2-.42,2-1.5,0-.92-.69-1.22-1.53-1.22h-1.75l-.57,2.72Z"/><path d="M115,62.13c-.12.58-.28,1.38-.3,1.63h-1.19c0-.23.09-.62.16-1a2.32,2.32,0,0,1-2.2,1.09,1.64,1.64,0,0,1-1.82-1.67c0-1.88,1.74-2.3,3.09-2.44.66-.06,1.23-.06,1.58-.07l.08-.42c.12-.6.08-1.37-1.12-1.37a1.4,1.4,0,0,0-1.52,1h-1.24c.23-1,1-1.94,2.86-1.94,1.54,0,2.56.69,2.22,2.3Zm-.86-1.55c-.37,0-.8,0-1.32.07-1,.12-1.9.42-1.9,1.38,0,.48.32.88,1,.88,1.4,0,1.92-1.1,2.18-2.23Z"/><path d="M122.08,62c-.13.59-.25,1.24-.34,1.77h-1.19c0-.2.11-.77.18-1.09a2.44,2.44,0,0,1-2.19,1.22c-1.22,0-2-.72-1.62-2.41l.93-4.34h1.2l-.9,4.21c-.18.81-.12,1.52.89,1.52s1.8-.74,2.17-2.52l.69-3.21h1.21Z"/><path d="M131.11,54.23l-1.62,7.7c-.13.62-.27,1.24-.37,1.83H128a8.8,8.8,0,0,1,.16-1A2.36,2.36,0,0,1,126,63.89c-1.42,0-2.15-1-2.15-2.58,0-2,1.17-4.3,3.47-4.3a1.82,1.82,0,0,1,1.82,1l.8-3.75Zm-6,7c0,1.11.49,1.66,1.33,1.66,1.31,0,2-1.18,2.27-2.62s-.12-2.17-1.34-2.17C125.86,58.06,125.08,59.79,125.08,61.19Z"/><path d="M132.13,61.76c.07.67.48,1.18,1.47,1.18s1.28-.42,1.28-1-.42-.86-1.34-1.18c-1.45-.5-1.89-1-1.89-1.78,0-1.06.82-2,2.44-2s2.42,1,2.39,1.93h-1.22c0-.44-.26-1-1.26-1-.64,0-1.13.3-1.13.87s.37.65,1.29,1c1.42.5,2,1.06,2,2,0,1.36-1.13,2.11-2.7,2.11s-2.55-.86-2.53-2.13Z"/><path class="cls-21" d="M288.61,34.75H276.85l-3.69,10.82.16.11c.72-.29,1.48-.83,4.72-.83,5.09,0,10.19,3.22,10.31,9.64.11,5.67-4.86,9.64-10.48,9.64-4.8,0-7.75-2.11-8.18-3.72"/><path class="cls-22" d="M355.73,39.48c1.61-2.64-.23-4.31.3-5.53,0,0,.06,0,.06,0,.13,3.21.74,4.28,1.73,4.21.65,0,1.29-.4,1.29-4.37.05-.39.24.23.17.53-.91,3.78,1.33,3.17,1.58,2.8"/><path class="cls-21" d="M253.89,41.23a14.7,14.7,0,1,0,2.46,9.32H243"/><polygon points="215.74 65.26 205.13 33.59 207.43 33.59 216.6 60.49 225.95 33.59 228.27 33.59 217.29 65.26 215.74 65.26"/><ellipse class="cls-21" cx="300.24" cy="49.4" rx="8.9" ry="14.69"/><ellipse class="cls-21" cx="321.33" cy="49.4" rx="8.9" ry="14.69"/><ellipse class="cls-21" cx="342.48" cy="49.4" rx="8.9" ry="14.69"/></svg>