<svg id="Calque_1" data-name="Calque 1" xmlns="http://www.w3.org/2000/svg" width="174.1" height="123.6" viewBox="0 0 174.1 123.6"><defs><style>.cls-1{fill:#504f4f;}.cls-1,.cls-2,.cls-3,.cls-5,.cls-6,.cls-7,.cls-8,.cls-9{stroke:#1d1d1b;stroke-miterlimit:10;}.cls-2{fill:#848484;}.cls-3{fill:#5e5f5e;}.cls-4{fill:#1d1d1b;}.cls-5{fill:#c7c6c6;}.cls-6{fill:#b3b2b2;}.cls-7{fill:#fff;}.cls-8,.cls-9{fill:none;}.cls-9{stroke-width:0.75px;}</style></defs><path class="cls-1" d="M134.9,99.9c2.4,2.6,1.7,2.8,4.1,2.9h3s-2.4-4.1,1.2-5.5,7.6,1.9,9.2,3.7,4.6,2.7,7.3,2.7,4.3.9,4.6,2.7,0,2.7-.9,2.7,1.2,2.5.4,3.6-4,1.4-4.9.6c.5,1.4,0,2.9-3,2.5s-7.3-2.6-8.5-5.4a13.3,13.3,0,0,1-.5-2.1,34.7,34.7,0,0,1-7.2.1,18.3,18.3,0,0,1-6.5-2.7Z" transform="translate(-2.5 -5.2)"/><path class="cls-1" d="M101.9,96.9c.5,3.5-.2,3.3,1.8,4.7l2.4,1.7s.4-4.7,4.1-3.8,5.2,6,5.5,8.3,2.2,4.9,4.4,6.5,3,3.1,2.3,4.8-1.6,2.2-2.3,1.7-.5,2.7-1.8,3.1-4-1.1-4.3-2.2c-.4,1.4-1.7,2.3-3.9.3s-4.5-6.3-3.9-9.3a9.4,9.4,0,0,1,.8-2,34,34,0,0,1-6-4.1,16.8,16.8,0,0,1-3.7-5.9Z" transform="translate(-2.5 -5.2)"/><g id="bras_droit" data-name="bras droit"><path class="cls-2" d="M68.9,87.8A20.2,20.2,0,0,1,62.7,90c-.7,2.9-3.9,4.4-3.2,10.1,1.9,1.6,1.9,1.7,2.6,4s.7,2.7,2.2,3.7,5.7,10,4.6,11.9-7-3.5-7-3.5,7.4,5.8,2,8.1c-1.4.6-14.5,1.4-17.3-4.7s-.7-16.8,1.1-17.4,2.8-10.4,4.8-14.4,7.9-8.9,9.1-8.7,10,6.3,10,6.3Z" transform="translate(-2.5 -5.2)"/><path class="cls-2" d="M46.9,108.9c.1,1.5.7,6.1,3,8.5.2,1.8,1,5.7,1.1,7.2s.2,4.5,2.8,3.4,4-2.8,4.3-6.2-2.1-5.5-3.1-6.5a6.1,6.1,0,0,0,3.1-6c-.3-2.7-.7-3.7-2-5.2" transform="translate(-2.5 -5.2)"/></g><g id="bras_gauche" data-name="bras gauche"><path class="cls-2" d="M121.9,67.5c1.5-.5,7.5-2.4,9.5-4.5,3.2-.2,11.9,1.8,17.6,6,.3,1.4.3,4.3.6,5.7s7,4.3,8,6.3,2.5,7.1,5.5,7.1,3.6-1.7,3.6-2.5c.3,1.5-1.5,3.5.5,4.3s6.9-1.1,6.7-7.4c1.1-.1,1.9.1,2.1-1.5s.2-5.9-1.2-8.7c.6-.7,1.6-7-2.8-10.1s-6.7-5.6-14.7-3.6c-2.6-.6-16-7.1-23.9-6.6s-18.7,9-18.7,9Z" transform="translate(-2.5 -5.2)"/><path class="cls-2" d="M166.7,85.6c0-1.2.4-4.5-1-6.8a19.5,19.5,0,0,0-3.8-4.4" transform="translate(-2.5 -5.2)"/><path class="cls-2" d="M173.9,82.5c-.3-2.4-1.4-8.4-6.2-12.4" transform="translate(-2.5 -5.2)"/><path class="cls-2" d="M174.7,72.1c-.8-2.4-3.5-4.9-6-6.5" transform="translate(-2.5 -5.2)"/></g><path id="haut_carapace" data-name="haut carapace" class="cls-3" d="M64.3,81.9c-2.3-2.3-7.6-3.7-5.9-14.1s13.8-20.7,28.5-20,20.2,0,38.4,19.8,9.4,42,6,42.6C104.2,115.1,71.1,88.7,64.3,81.9Z" transform="translate(-2.5 -5.2)"/><path class="cls-4" d="M65.9,57.2c8.3-7.2,18.3,1.9,25.2,2.9,5,.8,8.6-3.1,14.4-.2,13.6,6.8,36.7,34.9,20.7,48.4-9.8,8.2-53-15.9-61.2-27.3S56.5,65.3,65.9,57.2Z" transform="translate(-2.5 -5.2)"/><path class="cls-5" d="M102.4,89.2c-4.8,4.6-11.2,14-7,18.8s12.3,6.7,22.7,0,12.6-20.7,9.2-24.4S114.8,77,102.4,89.2Z" transform="translate(-2.5 -5.2)"/><path class="cls-5" d="M89.5,82.5c-6.3,5.7-14.6,17-9.2,22.9s16.9,9.3,29.8,0,17.8-26.7,12-29.8S105.8,67.7,89.5,82.5Z" transform="translate(-2.5 -5.2)"/><path class="cls-5" d="M80.8,72.7c-6.3,5.7-14.6,17-9.1,22.9s16.9,9.2,29.7,0,17.9-26.7,12-29.8S97.1,57.9,80.8,72.7Z" transform="translate(-2.5 -5.2)"/><path class="cls-5" d="M78.6,69.6c-3.4,5.8-18,7.4-10.7,15,4.4,4.6,12.8,7.5,22.6,0s13.4-21.5,9.2-24.5C90.5,53.6,82.7,62.5,78.6,69.6Z" transform="translate(-2.5 -5.2)"/><path id="tour_carapace" data-name="tour carapace" class="cls-6" d="M114.1,110.3c7.9,1.8,14.7,1.1,17.8-4.3,11.2-19.9-22.6-49.5-28.7-49s-9.5,3.4-21.9-3.9c-9.7-5.8-18.4.9-20.8,3.9-5.6,7.4-5.6,21.6,5.3,26.3l.2-3.5c-7.3-6.6-7.3-12.2-2.2-18.7,2.1-2.7,9.5-9.3,19.5-1.5s13.6,2,19.1,1.5,36.3,25.6,26,43.1c-2,3.5-6,4.4-10.6,4.1Z" transform="translate(-2.5 -5.2)"/><path class="cls-2" d="M33.9,16.4c-1-1.1-3.1-2.6-4.8-2.2s-3,2.8-3.3,3.5" transform="translate(-2.5 -5.2)"/><path id="tete" class="cls-2" d="M3.1,35c.7-6.9,3.8-19,34.3-18.9,1.9-2,5.2-5.7,8.5-5.4s5,2.4,5.2,3.4,8.7,4.6,6.2,13c2.6,1.6,10.7,9.8,3.8,19.1L81.6,66l-5.3,6.3L55,53.7s-18.4,4.2-36.1-5.1c-1.5.8-2.9,3.5-2.9,3.5S1.8,48.4,3.1,35Z" transform="translate(-2.5 -5.2)"/><path class="cls-5" d="M84.7,59.4a10.7,10.7,0,0,0-10.9-1.3c1.8,1.8,3.5,3.3,4.5,4.2l1.3.5c3,2.3-6.4,11.2-8.5,9.5s-.9-3.1-.3-4.6l-3.6-3c-3.2,5.1-3.3,11,2.4,13.7C77.5,81.5,95.4,69.6,84.7,59.4Z" transform="translate(-2.5 -5.2)"/><path class="cls-7" d="M45.2,14.8c3.9-2.2,7.8,1.5,9,3.2S57.8,28,53,28.7s-8.9-1.3-10.7-4.4S40.5,17.3,45.2,14.8Z" transform="translate(-2.5 -5.2)"/><circle class="cls-4" cx="50" cy="18.6" r="1.3"/><path class="cls-8" d="M15.3,52c1.4-2.2,5.9-6.4,8.1-7s7.4.6,10.1,0,3.8-8,7.7-7.8,9.8,5.6,11.4,7.4" transform="translate(-2.5 -5.2)"/><path class="cls-9" d="M49.4,47s4.5,1.2,6.5,0,.6-5.1,0-5.8" transform="translate(-2.5 -5.2)"/><path class="cls-4" d="M45.2,8.6c-.5-.5.9-3.7,2.5-3.4s5,4.6,4.6,6.4c-1.3-1.3-1.9-2.5-3.8-3.3S45.8,9.1,45.2,8.6Z" transform="translate(-2.5 -5.2)"/><path class="cls-4" d="M30.9,12.2c0,.5-1.5-.3-2.9,0a12.4,12.4,0,0,0-3.6,1.9c-.6-1.2,2.4-3.6,4-3.9S30.9,10,30.9,12.2Z" transform="translate(-2.5 -5.2)"/><path class="cls-4" d="M22.1,23.8a5,5,0,0,0,4.1.5c1.5-.9.6-3,0-2.8s-2.2,1.3-1.3,2.3Z" transform="translate(-2.5 -5.2)"/></svg>