<svg xmlns="http://www.w3.org/2000/svg" xmlns:xlink="http://www.w3.org/1999/xlink" viewBox="0 0 470.58 67.66"><defs><style>.a8b8c664-a76b-4c47-b339-e27c5dac59b7{stroke:#9def48;stroke-miterlimit:10;fill:url(#b60c99f4-e9ca-4ef2-932f-e47f7c5f3632);}.f4b41d4c-0f17-40bb-9e88-48e067ea8d31{fill:#9def48;}.bcccd4b5-8eff-4958-96a7-42d9ce21063e{fill:#fff;}.af3cf99c-dc01-4e6b-a77b-ab6b6cdc9369{fill:#3d3832;}.bce6cede-5a79-43f4-a2c6-41df9ae08030{fill:#fcfcfc;}</style><linearGradient id="b60c99f4-e9ca-4ef2-932f-e47f7c5f3632" x1="0.5" y1="33.83" x2="470.08" y2="33.83" gradientUnits="userSpaceOnUse"><stop offset="0" stop-color="#032c02"/><stop offset="1" stop-color="#207a09"/></linearGradient></defs><g id="ac9741bb-f46c-48dd-9337-e60e0471ad6b" data-name="calque3"><polygon class="a8b8c664-a76b-4c47-b339-e27c5dac59b7" points="0.5 6.04 102.57 6.04 108.7 0.5 150.44 0.5 158.35 6.04 461.77 6.24 470.08 16.13 470.08 59.84 50.94 59.84 42.83 67.16 8.02 67.16 0.5 59.84 0.5 6.04"/><path class="f4b41d4c-0f17-40bb-9e88-48e067ea8d31" d="M62.28,38,58,44.86H52.91L68.48,20.35h4.69L88.62,44.86h-5L79.37,38Zm14.56-4-6-9.59-6,9.59Z"/><path class="f4b41d4c-0f17-40bb-9e88-48e067ea8d31" d="M100.85,41.39l-4.07,4.06v-21H83.49V20.35h30.66v4.07h-13.3Z"/><path class="f4b41d4c-0f17-40bb-9e88-48e067ea8d31" d="M118.39,38l-4.29,6.82H109l15.57-24.51h4.68l15.45,24.51h-5L135.48,38ZM133,34l-6-9.59-6,9.59Z"/><path class="f4b41d4c-0f17-40bb-9e88-48e067ea8d31" d="M169.83,40.79h2.71a17.63,17.63,0,0,0,2.19-6.17H150.55a17.66,17.66,0,0,0,2.2,6.17h2.7v4.07h-4.88a17.62,17.62,0,0,1-4.14-10.24h-3.84v-4h3.84a17.51,17.51,0,0,1,4.14-10.22h24.14a17.54,17.54,0,0,1,4.14,10.24l-1.76,1v2.05l1.76,1a17.62,17.62,0,0,1-4.14,10.24h-4.88ZM150.55,30.57h24.18a17.47,17.47,0,0,0-2.19-6.15H152.75A17.49,17.49,0,0,0,150.55,30.57Z"/><path class="f4b41d4c-0f17-40bb-9e88-48e067ea8d31" d="M188,44.86H184v-21L188,19.75Z"/><path class="f4b41d4c-0f17-40bb-9e88-48e067ea8d31" d="M208.35,30.57h25l1.84,2a18.19,18.19,0,0,1-4.22,12.26H204.28V40.79h24.49A17.3,17.3,0,0,0,231,34.62H204.28V20.35H233.4v4.07H208.35Z"/><path class="f4b41d4c-0f17-40bb-9e88-48e067ea8d31" d="M240.42,30.57H267a17.52,17.52,0,0,0-2.21-6.15H245a18.55,18.55,0,0,0-1.47,3.23h-4.37a17.11,17.11,0,0,1,3.67-7.3H267a18.22,18.22,0,0,1,4.22,12.25l-1.85,2H242.78A17.3,17.3,0,0,0,245,40.79h24.61v4.07H242.8a18.19,18.19,0,0,1-4.22-12.26Z"/><path class="f4b41d4c-0f17-40bb-9e88-48e067ea8d31" d="M303,44.86H278.81a18.2,18.2,0,0,1-4.22-12.26,18.12,18.12,0,0,1,4.22-12.25H303a18.17,18.17,0,0,1,4.22,12.25A18.25,18.25,0,0,1,303,44.86Zm-2.17-4.07a16.59,16.59,0,0,0,2.32-8.19,16.49,16.49,0,0,0-2.32-8.18H281a16.32,16.32,0,0,0-2.34,8.18A16.41,16.41,0,0,0,281,40.79Zm-11.93-5.11V29.53h4.05v6.15Z"/><path class="f4b41d4c-0f17-40bb-9e88-48e067ea8d31" d="M339,44.86H314.82A18.2,18.2,0,0,1,310.6,32.6a18.12,18.12,0,0,1,4.22-12.25H339a18.12,18.12,0,0,1,4.23,12.25A18.2,18.2,0,0,1,339,44.86Zm-2.17-4.07a16.5,16.5,0,0,0,2.33-8.19,16.41,16.41,0,0,0-2.33-8.18H317a16.32,16.32,0,0,0-2.34,8.18A16.41,16.41,0,0,0,317,40.79Zm-11.92-5.11V29.53h4.05v6.15Z"/></g><g id="eebecf1c-c0d0-4e1d-bbcd-f1799512f138" data-name="atari"><path class="bcccd4b5-8eff-4958-96a7-42d9ce21063e" d="M18.85,43.45a1.7,1.7,0,0,1-.22-2.38,1.68,1.68,0,0,1,.86-.57c4.32-1.23,8.57-2.52,12.88-3.75V39c-1.15.35-2.37.71-3.52,1v4.25c1.15.36,2.37.72,3.52,1v2.23c-4.1-1.15-8.2-2.37-12.3-3.52a3.14,3.14,0,0,1-1.22-.5m2.59-1.3c1.8.5,3.59,1,5.32,1.51V40.57C25,41.07,23.24,41.58,21.44,42.15ZM18.92,27.91a1.73,1.73,0,0,1-.65-1.8,1.76,1.76,0,0,1,1.22-1.23c4.32-1.22,8.57-2.51,12.88-3.74v2.23l-3.6,1.08V28.7c1.16.36,2.38.72,3.53,1v2.16c-4.1-1.15-8.2-2.37-12.3-3.59a2.08,2.08,0,0,1-1.08-.36m7.84.21V25c-1.8.5-3.6,1-5.32,1.51C23.24,27,25,27.62,26.76,28.12ZM18.2,38.41v-8h2.16v2.95H32.3v2.09H20.36v2.95Zm.14-19.57a2.17,2.17,0,0,1-.14-.65V15.67a4,4,0,0,1,2.16-3.38A4.85,4.85,0,0,1,23,11.93a3.89,3.89,0,0,1,2.52,1.23,8.27,8.27,0,0,1,.86,1.29c.14.22.5.22.72.15,1.73-1.08,3.38-2.31,5.11-3.39v2.52c-1.66,1.08-3.31,2.16-4.89,3.24a1.8,1.8,0,0,1-1.59.22,1.42,1.42,0,0,1-.86-.94,3.58,3.58,0,0,0-1.44-1.94,2.58,2.58,0,0,0-1.8-.15,1.71,1.71,0,0,0-1.29,1.66v1.65c0,.22.21.51.43.51H32.3v2.08H19.93a1.69,1.69,0,0,1-1.59-1.22Zm-.14-8.78V7.83H32.3v2.23Z"/><path class="af3cf99c-dc01-4e6b-a77b-ab6b6cdc9369" d="M30.79,65.46a1.6,1.6,0,0,0,1.58-1.58v-11a1.6,1.6,0,0,0-1.58-1.58h-11a1.6,1.6,0,0,0-1.58,1.58v11a1.6,1.6,0,0,0,1.58,1.58Z"/><path class="bcccd4b5-8eff-4958-96a7-42d9ce21063e" d="M20.86,60v-.72h3a9.25,9.25,0,0,1,1.95.22,4.66,4.66,0,0,1,1.29.43,5.22,5.22,0,0,1,1.73,1.37A4,4,0,0,1,29.78,63a5.41,5.41,0,0,1,.29,1.08H28.7a4.35,4.35,0,0,0-.43-1.29,3.19,3.19,0,0,0-1-1.22,5.61,5.61,0,0,0-1.36-.87,5.09,5.09,0,0,0-1.8-.5c-.79-.14-1.58-.14-2.38-.22Zm0-.93v-1.3h9.21v1.3H20.86Zm0-1.58v-.72a17.65,17.65,0,0,0,2.81-.15,7.68,7.68,0,0,0,2.16-.5A5.7,5.7,0,0,0,27.55,55a5.36,5.36,0,0,0,1-1.73c.07-.14.07-.36.14-.58h1.37a5.41,5.41,0,0,1-.29,1.08A9.06,9.06,0,0,1,29.21,55a3.11,3.11,0,0,1-.58.72,7.83,7.83,0,0,1-1.22,1,5.73,5.73,0,0,1-1.15.51L25,57.4a15.74,15.74,0,0,1-2.66.08Z"/><path class="bce6cede-5a79-43f4-a2c6-41df9ae08030" d="M20.86,59.06h9.21v-1.3H20.86v1.3m0-1.58h1.51c.87,0,1.8,0,2.66-.08a7.36,7.36,0,0,0,1.23-.21,5.73,5.73,0,0,0,1.15-.51,5.2,5.2,0,0,0,1.22-1,5.91,5.91,0,0,0,.58-.72,6.32,6.32,0,0,0,.57-1.23,5.41,5.41,0,0,0,.29-1.08H28.7a1.76,1.76,0,0,1-.14.58,5.36,5.36,0,0,1-1,1.73,4.65,4.65,0,0,1-1.72,1.15,6.7,6.7,0,0,1-2.16.5,17.65,17.65,0,0,1-2.81.15v.72"/></g></svg>