<svg xmlns="http://www.w3.org/2000/svg" xmlns:xlink="http://www.w3.org/1999/xlink" viewBox="0 0 470.33 67.41"><defs><style>.b69708eb-bd94-4b7e-87d1-d9b4f6ecdb4a{stroke:#9def48;stroke-miterlimit:10;stroke-width:0.75px;fill:url(#b5bc9292-9bee-4cbb-a44e-ff9f49e460f9);}.ff839582-854c-4648-916f-f5829302f055{fill:#9def48;}.fdf7c745-84e0-4a2e-a4ac-59121eecd550{fill:#fff;}.a31a1b47-2607-4e8c-91f1-c757cd9ec342{fill:#3d3832;}.b696d07a-fe64-4fdc-9415-41dcfa9967e7{fill:#fcfcfc;}</style><linearGradient id="b5bc9292-9bee-4cbb-a44e-ff9f49e460f9" x1="0.38" y1="33.7" x2="469.96" y2="33.7" gradientUnits="userSpaceOnUse"><stop offset="0" stop-color="#032c02"/><stop offset="1" stop-color="#207a09"/></linearGradient></defs><g id="a8368ece-fd7c-4e52-827c-4f8a1b483948" data-name="texte"><polygon class="b69708eb-bd94-4b7e-87d1-d9b4f6ecdb4a" points="0.38 5.91 102.44 5.91 108.57 0.38 150.31 0.38 158.22 5.91 461.65 6.11 469.96 16 469.96 59.72 50.81 59.72 42.7 67.03 7.89 67.03 0.38 59.72 0.38 5.91"/><path class="ff839582-854c-4648-916f-f5829302f055" d="M58,40.47H76.08a16.41,16.41,0,0,0,2.33-8.19,16.46,16.46,0,0,0-2.33-8.18H73.37V20h4.88a18.18,18.18,0,0,1,4.23,12.25,18.15,18.15,0,0,1-4.23,12.26H55.82a18.15,18.15,0,0,1-4.23-12.26h4.07A16.33,16.33,0,0,0,58,40.47Z" transform="translate(-0.13 -0.13)"/><path class="ff839582-854c-4648-916f-f5829302f055" d="M92.7,37.72l-4.29,6.82H83.33L98.9,20h4.68L119,44.54h-5l-4.24-6.82Zm14.56-4-6-9.59-6,9.59Z" transform="translate(-0.13 -0.13)"/><path class="ff839582-854c-4648-916f-f5829302f055" d="M152.39,30.25c.06.66.09,1.34.09,2a18.19,18.19,0,0,1-4.23,12.26H124.11a18.18,18.18,0,0,1-4.22-12.26A18.13,18.13,0,0,1,124.11,20h24.14a17.13,17.13,0,0,1,3.68,7.3h-4.38a17.47,17.47,0,0,0-1.47-3.23H126.29A16.32,16.32,0,0,0,124,32.28a16.38,16.38,0,0,0,2.34,8.19h19.79a17.63,17.63,0,0,0,2.19-6.17H133.51v-4Z" transform="translate(-0.13 -0.13)"/><path class="ff839582-854c-4648-916f-f5829302f055" d="M162.3,40.47h19.79a16.41,16.41,0,0,0,2.33-8.19,16.46,16.46,0,0,0-2.33-8.18h-2.72V20h4.89a18.17,18.17,0,0,1,4.22,12.25,18.14,18.14,0,0,1-4.22,12.26H160.11a18.19,18.19,0,0,1-4.22-12.26A18.22,18.22,0,0,1,160.11,20H165V24.1h-2.7A16.37,16.37,0,0,0,160,32.28,16.33,16.33,0,0,0,162.3,40.47Z" transform="translate(-0.13 -0.13)"/><path class="ff839582-854c-4648-916f-f5829302f055" d="M198.7,37.72l-4.29,6.82h-5.07L204.91,20h4.68L225,44.54h-5l-4.24-6.82Zm14.56-4-6-9.59-6,9.59Z" transform="translate(-0.13 -0.13)"/><path class="ff839582-854c-4648-916f-f5829302f055" d="M250.14,40.47h2.72a17.83,17.83,0,0,0,2.19-6.17H230.87a17.46,17.46,0,0,0,2.2,6.17h2.7v4.07h-4.89a17.67,17.67,0,0,1-4.13-10.24H222.9v-4h3.85A17.59,17.59,0,0,1,230.88,20H255a17.56,17.56,0,0,1,4.14,10.24l-1.76,1v2.05l1.76,1A17.62,17.62,0,0,1,255,44.54h-4.89ZM230.87,30.25h24.18a17.67,17.67,0,0,0-2.19-6.15H233.07A17.3,17.3,0,0,0,230.87,30.25Z" transform="translate(-0.13 -0.13)"/></g><g id="b48dae3a-adba-42cc-91b2-8803c8ee3cf5" data-name="atari"><path class="fdf7c745-84e0-4a2e-a4ac-59121eecd550" d="M18.85,43.45a1.7,1.7,0,0,1-.22-2.38,1.68,1.68,0,0,1,.86-.57c4.32-1.23,8.57-2.52,12.88-3.75V39c-1.15.35-2.37.71-3.52,1v4.25c1.15.36,2.37.72,3.52,1v2.23c-4.1-1.15-8.2-2.37-12.3-3.52a3.14,3.14,0,0,1-1.22-.5m2.59-1.3c1.8.5,3.59,1,5.32,1.51V40.57C25,41.07,23.24,41.58,21.44,42.15ZM18.92,27.91a1.73,1.73,0,0,1-.65-1.8,1.76,1.76,0,0,1,1.22-1.23c4.32-1.22,8.57-2.51,12.88-3.74v2.23l-3.6,1.08V28.7c1.16.36,2.38.72,3.53,1v2.16c-4.1-1.15-8.2-2.37-12.3-3.59a2.08,2.08,0,0,1-1.08-.36m7.84.21V25c-1.8.5-3.6,1-5.32,1.51C23.24,27,25,27.62,26.76,28.12ZM18.2,38.41v-8h2.16v2.95H32.3v2.09H20.36v2.95Zm.14-19.57a2.17,2.17,0,0,1-.14-.65V15.67a4,4,0,0,1,2.16-3.38A4.85,4.85,0,0,1,23,11.93a3.89,3.89,0,0,1,2.52,1.23,8.27,8.27,0,0,1,.86,1.29c.14.22.5.22.72.15,1.73-1.08,3.38-2.31,5.11-3.39v2.52c-1.66,1.08-3.31,2.16-4.89,3.24a1.8,1.8,0,0,1-1.59.22,1.42,1.42,0,0,1-.86-.94,3.58,3.58,0,0,0-1.44-1.94,2.58,2.58,0,0,0-1.8-.15,1.71,1.71,0,0,0-1.29,1.66v1.65c0,.22.21.51.43.51H32.3v2.08H19.93a1.69,1.69,0,0,1-1.59-1.22Zm-.14-8.78V7.83H32.3v2.23Z" transform="translate(-0.13 -0.13)"/><path class="a31a1b47-2607-4e8c-91f1-c757cd9ec342" d="M30.79,65.46a1.6,1.6,0,0,0,1.58-1.58v-11a1.6,1.6,0,0,0-1.58-1.58h-11a1.6,1.6,0,0,0-1.58,1.58v11a1.6,1.6,0,0,0,1.58,1.58Z" transform="translate(-0.13 -0.13)"/><path class="fdf7c745-84e0-4a2e-a4ac-59121eecd550" d="M20.86,60v-.72h3a9.25,9.25,0,0,1,1.95.22,4.66,4.66,0,0,1,1.29.43,5.22,5.22,0,0,1,1.73,1.37A4,4,0,0,1,29.78,63a5.41,5.41,0,0,1,.29,1.08H28.7a4.35,4.35,0,0,0-.43-1.29,3.19,3.19,0,0,0-1-1.22,5.61,5.61,0,0,0-1.36-.87,5.09,5.09,0,0,0-1.8-.5c-.79-.14-1.58-.14-2.38-.22Zm0-.93v-1.3h9.21v1.3H20.86Zm0-1.58v-.72a17.65,17.65,0,0,0,2.81-.15,7.68,7.68,0,0,0,2.16-.5A5.7,5.7,0,0,0,27.55,55a5.36,5.36,0,0,0,1-1.73c.07-.14.07-.36.14-.58h1.37a5.41,5.41,0,0,1-.29,1.08A9.06,9.06,0,0,1,29.21,55a3.11,3.11,0,0,1-.58.72,7.83,7.83,0,0,1-1.22,1,5.73,5.73,0,0,1-1.15.51L25,57.4a15.74,15.74,0,0,1-2.66.08Z" transform="translate(-0.13 -0.13)"/><path class="b696d07a-fe64-4fdc-9415-41dcfa9967e7" d="M20.86,59.06h9.21v-1.3H20.86v1.3m0-1.58h1.51c.87,0,1.8,0,2.66-.08a7.36,7.36,0,0,0,1.23-.21,5.73,5.73,0,0,0,1.15-.51,5.2,5.2,0,0,0,1.22-1,5.91,5.91,0,0,0,.58-.72,6.32,6.32,0,0,0,.57-1.23,5.41,5.41,0,0,0,.29-1.08H28.7a1.76,1.76,0,0,1-.14.58,5.36,5.36,0,0,1-1,1.73,4.65,4.65,0,0,1-1.72,1.15,6.7,6.7,0,0,1-2.16.5,17.65,17.65,0,0,1-2.81.15v.72" transform="translate(-0.13 -0.13)"/></g></svg>