<svg id="a97f8728-cb73-48a8-b06d-3f345f2d20e1" data-name="Calque 1" xmlns="http://www.w3.org/2000/svg" xmlns:xlink="http://www.w3.org/1999/xlink" viewBox="0 0 88.59 237.77"><defs><style>.ec1f66d5-3fd3-4177-be6e-1c0d2ced64b3,.ffaab803-c63b-43ef-b607-b30fcd4a3a11{fill:#211c1d;}.aca6b242-dc8e-473d-a41c-2dec6e958efa{opacity:0.1;}.b58092eb-6c19-465b-af37-deca5e661c7e{fill:#808094;}.fe435324-2a52-4a79-806e-b3748bda0500{fill:#6d6e6f;}.b801da73-0fc4-4d8e-96c2-24afb1584c56{fill:url(#a3d2e1fa-ab52-4d1a-b909-77db962c1537);}.ec1f66d5-3fd3-4177-be6e-1c0d2ced64b3{opacity:0.3;}.a7d6a0ad-ebc7-4b23-9b3a-356e603326dd,.aaa5e434-cf4b-4d94-8806-7b4dd2fc947d,.ec1f66d5-3fd3-4177-be6e-1c0d2ced64b3{isolation:isolate;}.aaa5e434-cf4b-4d94-8806-7b4dd2fc947d{opacity:0.15;fill:url(#a5635f44-74a6-4fe7-9d08-cf0eea364ee2);}.a7d6a0ad-ebc7-4b23-9b3a-356e603326dd{opacity:0.4;fill:url(#b3b637ab-bad0-4513-9871-7b5de44f2020);}.e7d95fc6-23e0-4644-9d2c-6c80125e981d{fill:#fff;}.aef09e01-bc0b-4b60-965a-f56a08a1b413{fill:#fd95b0;}.a39b047e-2361-4ecb-ae0f-c18d65e4a170{fill:#35ff90;}.a3ac116c-80f5-47c5-afaa-04d73ecbf5f3{fill:#48b3eb;}</style><linearGradient id="a3d2e1fa-ab52-4d1a-b909-77db962c1537" x1="362.1" y1="-353.94" x2="341.14" y2="-332.98" gradientTransform="matrix(0, -1, -1, 0, -299.63, 395.42)" gradientUnits="userSpaceOnUse"><stop offset="0" stop-color="#a4a5a9"/><stop offset="1" stop-color="#e6e6e7"/></linearGradient><linearGradient id="a5635f44-74a6-4fe7-9d08-cf0eea364ee2" x1="341.21" y1="-353.94" x2="362.09" y2="-333.06" gradientTransform="matrix(0, -1, -1, 0, -299.63, 395.42)" gradientUnits="userSpaceOnUse"><stop offset="0" stop-color="#211c1d" stop-opacity="0"/><stop offset="0.04" stop-color="#211c1d" stop-opacity="0.09"/><stop offset="0.5" stop-color="#211c1d"/><stop offset="0.95" stop-color="#211c1d" stop-opacity="0.09"/><stop offset="1" stop-color="#211c1d" stop-opacity="0"/></linearGradient><linearGradient id="b3b637ab-bad0-4513-9871-7b5de44f2020" x1="-4466.76" y1="2694.35" x2="-4445.88" y2="2715.23" gradientTransform="matrix(0, 1, 1, 0, -2660.92, 4500.08)" gradientUnits="userSpaceOnUse"><stop offset="0" stop-color="#fff" stop-opacity="0"/><stop offset="0.5" stop-color="#fff"/><stop offset="1" stop-color="#fff" stop-opacity="0"/></linearGradient></defs><circle class="ffaab803-c63b-43ef-b607-b30fcd4a3a11" cx="43.8" cy="43.8" r="43.8"/><g class="aca6b242-dc8e-473d-a41c-2dec6e958efa"><path class="b58092eb-6c19-465b-af37-deca5e661c7e" d="M43.8,3.22l-8.89,8.59h4.34v9.83h9.1V11.81h4.34ZM15.1,15.1l-.21,12.37L18,24.4l7,7,6.43-6.44L24.39,18l3.08-3.07ZM3.22,43.8l8.59,8.89V48.35h9.83v-9.1H11.81V34.91ZM15.1,72.5l12.37.21-3.08-3.07,7-7-6.43-6.44L18,63.2l-3.07-3.07ZM43.8,84.38l8.89-8.59H48.35V66h-9.1v9.83H34.91ZM72.5,72.5l.21-12.37L69.64,63.2l-7-7-6.44,6.44,7,7-3.07,3.07ZM84.38,43.8l-8.59-8.89v4.34H66v9.1h9.83v4.34ZM72.5,15.1l-12.37-.21L63.2,18l-7,7,6.44,6.44,7-7,3.07,3.07Z" transform="translate(0 0)"/></g><path class="fe435324-2a52-4a79-806e-b3748bda0500" d="M44.29,0a43.8,43.8,0,0,1,0,87.59h.5a43.8,43.8,0,0,0,0-87.6Z" transform="translate(0 0)"/><circle class="b801da73-0fc4-4d8e-96c2-24afb1584c56" cx="43.83" cy="43.8" r="14.82"/><circle class="ec1f66d5-3fd3-4177-be6e-1c0d2ced64b3" cx="43.83" cy="43.8" r="11.81"/><path class="aaa5e434-cf4b-4d94-8806-7b4dd2fc947d" d="M29.11,43.77A14.76,14.76,0,1,0,43.87,29,14.76,14.76,0,0,0,29.11,43.77ZM57.83,44A14.15,14.15,0,1,1,43.69,29.8,14.15,14.15,0,0,1,57.83,44Z" transform="translate(0 0)"/><path class="a7d6a0ad-ebc7-4b23-9b3a-356e603326dd" d="M58.63,43.77A14.76,14.76,0,1,0,43.87,58.53,14.76,14.76,0,0,0,58.63,43.77ZM29.9,43.58A14.15,14.15,0,1,1,44.05,57.73,14.15,14.15,0,0,1,29.9,43.58Z" transform="translate(0 0)"/><circle class="e7d95fc6-23e0-4644-9d2c-6c80125e981d" cx="32.85" cy="43.97" r="20.51"/><circle class="e7d95fc6-23e0-4644-9d2c-6c80125e981d" cx="27.19" cy="141.09" r="17.46"/><circle class="aef09e01-bc0b-4b60-965a-f56a08a1b413" cx="27.71" cy="141.09" r="13.88"/><circle class="e7d95fc6-23e0-4644-9d2c-6c80125e981d" cx="61.36" cy="196.3" r="17.45"/><circle class="a39b047e-2361-4ecb-ae0f-c18d65e4a170" cx="61.88" cy="196.3" r="13.88"/><circle class="e7d95fc6-23e0-4644-9d2c-6c80125e981d" cx="27.36" cy="178.07" r="17.45"/><circle class="a3ac116c-80f5-47c5-afaa-04d73ecbf5f3" cx="27.89" cy="178.07" r="13.88"/><circle class="e7d95fc6-23e0-4644-9d2c-6c80125e981d" cx="61.4" cy="121.99" r="17.46"/><circle class="aef09e01-bc0b-4b60-965a-f56a08a1b413" cx="61.92" cy="121.99" r="13.88"/><circle class="e7d95fc6-23e0-4644-9d2c-6c80125e981d" cx="61.1" cy="159.32" r="17.46"/><circle class="a3ac116c-80f5-47c5-afaa-04d73ecbf5f3" cx="61.63" cy="159.32" r="13.88"/><circle class="e7d95fc6-23e0-4644-9d2c-6c80125e981d" cx="27.62" cy="220.31" r="17.46"/><circle class="a39b047e-2361-4ecb-ae0f-c18d65e4a170" cx="28.15" cy="220.31" r="13.88"/></svg>