<svg id="ba72fdae-66bb-4787-bc7b-a51d9ce44cac" data-name="texte" xmlns="http://www.w3.org/2000/svg" xmlns:xlink="http://www.w3.org/1999/xlink" viewBox="0 0 470.33 67.41"><defs><style>.f4487545-5cbd-49be-b476-7ce5c0bb9f64{stroke:#9def48;stroke-miterlimit:10;stroke-width:0.75px;fill:url(#e315402b-e66f-412e-be5d-064f8e9170f3);}.f827805e-68cc-4ce5-83c3-a73f4371ceca{fill:#9def48;}</style><linearGradient id="e315402b-e66f-412e-be5d-064f8e9170f3" x1="0.38" y1="33.7" x2="469.96" y2="33.7" gradientUnits="userSpaceOnUse"><stop offset="0" stop-color="#032c02"/><stop offset="1" stop-color="#207a09"/></linearGradient></defs><polygon class="f4487545-5cbd-49be-b476-7ce5c0bb9f64" points="0.38 5.91 102.44 5.91 108.57 0.38 150.31 0.38 158.22 5.91 461.65 6.11 469.96 16 469.96 59.72 50.81 59.72 42.7 67.03 7.89 67.03 0.38 59.72 0.38 5.91"/><path class="f827805e-68cc-4ce5-83c3-a73f4371ceca" d="M58.83,40.69H78.05a15.87,15.87,0,0,0,2.26-7.95,15.93,15.93,0,0,0-2.26-8H75.41V20.84h4.75a17.67,17.67,0,0,1,4.1,11.9,17.64,17.64,0,0,1-4.1,11.9H56.7a17.64,17.64,0,0,1-4.1-11.9,17.67,17.67,0,0,1,4.1-11.9h4.75v3.95H58.83a15.86,15.86,0,0,0-2.28,8A15.8,15.8,0,0,0,58.83,40.69Z" transform="translate(-0.06 -0.03)"/><path class="f827805e-68cc-4ce5-83c3-a73f4371ceca" d="M89.37,30.76h25.79a16.91,16.91,0,0,0-2.15-6H93.79a17.78,17.78,0,0,0-1.43,3.13H88.11a16.57,16.57,0,0,1,3.57-7.08h23.46a17.67,17.67,0,0,1,4.1,11.9l-1.79,2H91.66a16.69,16.69,0,0,0,2.13,6H113a18.39,18.39,0,0,0,1.45-3.14h4.25a16.6,16.6,0,0,1-3.57,7.09H91.68a17.64,17.64,0,0,1-4.1-11.9Z" transform="translate(-0.06 -0.03)"/><path class="f827805e-68cc-4ce5-83c3-a73f4371ceca" d="M146.73,34.7H130.3a16.85,16.85,0,0,0,2.14,6H152l2.28,4h-24a17.22,17.22,0,0,1-4-9.94h-3.73V30.76h3.73a17.13,17.13,0,0,1,4-9.92h24L152,24.79H132.44a16.69,16.69,0,0,0-2.14,6h16.43Z" transform="translate(-0.06 -0.03)"/><path class="f827805e-68cc-4ce5-83c3-a73f4371ceca" d="M188.67,34.7a17.15,17.15,0,0,1-4,9.94H161.19a17.15,17.15,0,0,1-4-9.94h-3.73V30.76h3.73a17.06,17.06,0,0,1,4-9.92h23.46a17.07,17.07,0,0,1,4,9.94l-1.71,1v2Zm-27.5-3.94h23.5a17.06,17.06,0,0,0-2.13-6H163.32A16.91,16.91,0,0,0,161.17,30.76Zm0,3.94a17.08,17.08,0,0,0,2.15,6h19.22a17.22,17.22,0,0,0,2.13-6Z" transform="translate(-0.06 -0.03)"/><path class="f827805e-68cc-4ce5-83c3-a73f4371ceca" d="M219.55,44.64H196.09a17.64,17.64,0,0,1-4.1-11.9,17.59,17.59,0,0,1,4.1-11.9h23.46a17.64,17.64,0,0,1,4.1,11.9A17.69,17.69,0,0,1,219.55,44.64Zm-2.11-4a16.06,16.06,0,0,0,2.26-7.95,16,16,0,0,0-2.26-8H198.21a15.89,15.89,0,0,0-2.27,8,16,16,0,0,0,2.27,7.95Z" transform="translate(-0.06 -0.03)"/><path class="f827805e-68cc-4ce5-83c3-a73f4371ceca" d="M253.79,44.64l-11.45-9.29-11.46,9.29h-6.4l14.66-11.9-14.66-11.9h6.4l11.46,9.29,11.45-9.29h6.41l-14.66,11.9,14.66,11.9Z" transform="translate(-0.06 -0.03)"/></svg>