<svg xmlns="http://www.w3.org/2000/svg" xmlns:xlink="http://www.w3.org/1999/xlink" viewBox="0 0 470.33 67.41"><defs><style>.bb036466-1a09-43ff-9e35-c9cd6d1432bf{stroke:#9def48;stroke-miterlimit:10;stroke-width:0.75px;fill:url(#e6446fdd-407b-4766-900d-ec73e48933ee);}.fe5d8082-f986-4ce5-9ee5-d49f030fd287{fill:#9def48;}.fbc6d3f3-4285-441d-b6e3-5fa0e5a2b377{fill:#ed1c24;}.b76f5d90-602d-478e-b5c9-136d2e570349{fill:#fff;}</style><linearGradient id="e6446fdd-407b-4766-900d-ec73e48933ee" x1="0.38" y1="33.7" x2="469.96" y2="33.7" gradientUnits="userSpaceOnUse"><stop offset="0" stop-color="#032c02"/><stop offset="1" stop-color="#207a09"/></linearGradient></defs><g id="e6f8d984-d529-4ddf-ada8-32d76f92b895" data-name="texte"><polygon class="bb036466-1a09-43ff-9e35-c9cd6d1432bf" points="0.38 5.91 102.44 5.91 108.57 0.38 150.31 0.38 158.22 5.91 461.65 6.11 469.96 16 469.96 59.72 50.81 59.72 42.7 67.03 7.89 67.03 0.38 59.72 0.38 5.91"/><path class="fe5d8082-f986-4ce5-9ee5-d49f030fd287" d="M82.69,30.63l1.84,2a18.12,18.12,0,0,1-4.22,12.25H56.16a17.08,17.08,0,0,1-3.67-7.29h4.38a19,19,0,0,0,1.48,3.23H78.14a17.17,17.17,0,0,0,2.19-6.17H53.79l-1.85-2a18.2,18.2,0,0,1,4.22-12.25H80.31A17.09,17.09,0,0,1,84,27.7H79.61a17.47,17.47,0,0,0-1.47-3.23H58.35a17.35,17.35,0,0,0-2.2,6.16Z" transform="translate(-0.06 -0.03)"/><path class="fe5d8082-f986-4ce5-9ee5-d49f030fd287" d="M94.36,40.85h19.79a16.45,16.45,0,0,0,2.32-8.19,16.51,16.51,0,0,0-2.32-8.19h-2.72V20.41h4.89a18.15,18.15,0,0,1,4.22,12.25,18.12,18.12,0,0,1-4.22,12.25H92.17A18.17,18.17,0,0,1,88,32.66a18.2,18.2,0,0,1,4.22-12.25h4.89v4.06h-2.7A16.44,16.44,0,0,0,92,32.66,16.38,16.38,0,0,0,94.36,40.85Z" transform="translate(-0.06 -0.03)"/><path class="fe5d8082-f986-4ce5-9ee5-d49f030fd287" d="M136.83,44.91h-4.89a17.64,17.64,0,0,1-4.13-10.23H124V30.63h3.85a17.56,17.56,0,0,1,4.13-10.22H156.6l-2.34,4.06H134.13a17.37,17.37,0,0,0-2.21,6.16h16.92v4.05H131.92a17.56,17.56,0,0,0,2.21,6.17h2.7Z" transform="translate(-0.06 -0.03)"/><path class="fe5d8082-f986-4ce5-9ee5-d49f030fd287" d="M158.28,38.09,154,44.91h-5.08l15.57-24.5h4.68l15.45,24.5h-5l-4.23-6.82ZM172.84,34l-6-9.58-6,9.58Z" transform="translate(-0.06 -0.03)"/><path class="fe5d8082-f986-4ce5-9ee5-d49f030fd287" d="M199.74,24.47h-7.86a16.27,16.27,0,0,0-2.35,8.19,16.35,16.35,0,0,0,2.35,8.19h2.7v4.06h-4.89a18.15,18.15,0,0,1-4.22-12.25,18.12,18.12,0,0,1,4.22-12.25h10.05V16.56h4v3.85h10.05a18.17,18.17,0,0,1,4.22,12.25,18.2,18.2,0,0,1-4.22,12.25H209V40.85h2.72A16.61,16.61,0,0,0,214,32.66a16.53,16.53,0,0,0-2.32-8.19h-7.88V39h-4Z" transform="translate(-0.06 -0.03)"/><path class="fe5d8082-f986-4ce5-9ee5-d49f030fd287" d="M227.25,44.91h-4.07v-21l4.07-4.07Z" transform="translate(-0.06 -0.03)"/></g><g id="ba06edf0-1914-4bd9-9a0f-1c71d6626c1d" data-name="bandai"><rect class="fbc6d3f3-4285-441d-b6e3-5fa0e5a2b377" x="3.21" y="14.07" width="44.03" height="45.35" rx="3.31"/><path class="b76f5d90-602d-478e-b5c9-136d2e570349" d="M21.38,49.19c0-.9-.33-2.06-1.46-2.06-1.32,0-1.49,1.23-1.49,2v1.49H15.72V49.29c0-1.2-.37-1.79-1.39-1.79s-1.39.73-1.39,1.79v2.48h8.44Zm-2.32-5.43a4.73,4.73,0,0,1,1.29-.14,3.87,3.87,0,0,1,1.82.43,4,4,0,0,1,1.66,1.56A4.29,4.29,0,0,1,24.29,47a12.28,12.28,0,0,1,.17,2v6.19H10.09V47.66a4.88,4.88,0,0,1,.4-1.88,3.53,3.53,0,0,1,1.09-1.3,4.18,4.18,0,0,1,2.15-.66,3.66,3.66,0,0,1,2,.53,2.93,2.93,0,0,1,.79.53,3.36,3.36,0,0,1,.47.9,2.39,2.39,0,0,1,.86-1.39,3,3,0,0,1,1.25-.67m-4-6.85L24.49,34V30.38l-14.37,5v3.51l14.34,5V35.75H21.35v3.5l-6.23-2-.63-.17Zm-5-18.54h14.4v3.51L17,26.24l-.56.27h8V30H10.09v-3.5L17.87,22l.46-.23H10.09Zm23.51,28c-3,0-4.24,1.42-4.24,4.14v1.26h8.28V49.52c0-1.23-.47-3.15-4-3.15m.1-3.47c5.06,0,7,3.64,7,6.29v6H26.38v-6c0-2.26,1.06-6.29,7.35-6.29m-2.35-6L40.71,34V30.38l-14.33,5v3.51l14.33,5V35.75H37.6v3.5l-6.22-2-.6-.17Zm9.33-10.36V30H26.38V26.54Z" transform="translate(-0.06 -0.03)"/></g></svg>