<svg xmlns="http://www.w3.org/2000/svg" xmlns:xlink="http://www.w3.org/1999/xlink" viewBox="0 0 746.51 822.18"><defs><radialGradient id="b77491b7-c04b-48ee-a0c8-9e482ad007d3" cx="65.88" cy="348.77" r="11.47" gradientUnits="userSpaceOnUse"><stop offset="0" stop-color="#fd6d66"/><stop offset=".78" stop-color="#b50a03"/></radialGradient><radialGradient id="eaba4719-bccc-4d73-bdec-df658b19fe13" cx="100.32" cy="382.53" r="5.66" gradientTransform="matrix(1 0 0 .6 0 153.01)" xlink:href="#a88ae9b4-5c0d-4c20-9ddb-0dc02baf63d6"/><radialGradient id="a88ae9b4-5c0d-4c20-9ddb-0dc02baf63d6" cx="92.36" cy="393.88" r="5.66" gradientTransform="matrix(1 0 0 .6 0 157.55)" gradientUnits="userSpaceOnUse"><stop offset="0" stop-color="#0000ef"/><stop offset=".15" stop-color="#0000e9"/><stop offset=".34" stop-color="#0101d9"/><stop offset=".56" stop-color="#0101be"/><stop offset=".79" stop-color="#02029a"/><stop offset="1" stop-color="#020282"/></radialGradient><radialGradient id="e3d9451d-e270-4d75-b043-e0807206fa22" cx="114.61" cy="393.88" r="5.66" xlink:href="#a88ae9b4-5c0d-4c20-9ddb-0dc02baf63d6"/><radialGradient id="bd8a451f-940f-4a48-8f70-72014467ad28" cx="133.17" cy="400.04" r="5.66" gradientTransform="matrix(1 0 0 .6 0 160.02)" xlink:href="#a88ae9b4-5c0d-4c20-9ddb-0dc02baf63d6"/><radialGradient id="b7404089-4019-48c3-9e10-1dff9458ac14" cx="139.21" cy="387.78" r="5.66" gradientTransform="matrix(1 0 0 .6 0 155.11)" xlink:href="#a88ae9b4-5c0d-4c20-9ddb-0dc02baf63d6"/><radialGradient id="be9cb153-be48-4007-abb7-964c29b5cd4e" cx="121.61" cy="382.1" r="5.66" gradientTransform="matrix(1 0 0 .6 0 152.84)" xlink:href="#a88ae9b4-5c0d-4c20-9ddb-0dc02baf63d6"/><radialGradient id="b99d6700-e7f9-48f8-9b38-d9c9d5290aee" cx="195.83" cy="370.99" r="11.47" xlink:href="#b77491b7-c04b-48ee-a0c8-9e482ad007d3"/><radialGradient id="ba7e8a28-ccf4-47c3-85cc-88d8c87806e8" cx="225.51" cy="404.67" r="5.66" xlink:href="#b77491b7-c04b-48ee-a0c8-9e482ad007d3"/><radialGradient id="faf7bb82-1c26-4d78-bd28-277f9920412f" cx="246.79" cy="404.24" r="5.66" xlink:href="#b77491b7-c04b-48ee-a0c8-9e482ad007d3"/><radialGradient id="f916ddd7-a7bb-40fb-9954-12502c7d6f1d" cx="264.4" cy="409.93" r="5.66" xlink:href="#b77491b7-c04b-48ee-a0c8-9e482ad007d3"/><radialGradient id="a251eb41-7930-41dd-9fa4-6cab7ac99d68" cx="258.36" cy="422.19" r="5.66" xlink:href="#b77491b7-c04b-48ee-a0c8-9e482ad007d3"/><radialGradient id="b8c78ab6-8719-4009-a48e-80e9b34cd3fc" cx="239.79" cy="416.02" r="5.66" xlink:href="#b77491b7-c04b-48ee-a0c8-9e482ad007d3"/><radialGradient id="f3f5fa8e-a92c-4a02-b825-14c2229712bf" cx="217.55" cy="416.02" r="5.66" xlink:href="#b77491b7-c04b-48ee-a0c8-9e482ad007d3"/><linearGradient id="e4b9fae2-2c65-4a7b-af31-687858852c59" x1="194.3" y1="689.91" x2="194.3" y2="674.91" gradientTransform="matrix(.99 .15 .15 -.99 -101.95 777.31)" gradientUnits="userSpaceOnUse"><stop offset="0" stop-color="#16104e"/><stop offset="1" stop-color="#233f9c"/></linearGradient><style>.bc5cd951-d944-4a70-ac1c-0398f769e2ee{fill:#373735}.fd383e72-677d-49f0-8f59-f931024fcc36{fill:#121211}.b299e6cb-5d9f-4c2d-a991-e20d904479cd,.b85aa69a-660f-4b31-aa8c-d32a4ed1fab3,.e7d92b59-8ab5-4d3f-b3e9-71f26ee425e1,.f95cd728-39ae-443f-8e79-73ab272ad3ba,.fd383e72-677d-49f0-8f59-f931024fcc36{stroke:#b5b5b5}.b299e6cb-5d9f-4c2d-a991-e20d904479cd,.b66be3c7-1fa1-45f9-a344-72932728856b,.b85aa69a-660f-4b31-aa8c-d32a4ed1fab3,.e7d92b59-8ab5-4d3f-b3e9-71f26ee425e1,.edd49eff-16b7-4909-8256-da30493873f0,.f185b3e7-a4bf-4d54-8f0f-2ceacecbc046,.f95cd728-39ae-443f-8e79-73ab272ad3ba,.fd383e72-677d-49f0-8f59-f931024fcc36{stroke-miterlimit:10}.b299e6cb-5d9f-4c2d-a991-e20d904479cd,.b85aa69a-660f-4b31-aa8c-d32a4ed1fab3,.e7d92b59-8ab5-4d3f-b3e9-71f26ee425e1,.f185b3e7-a4bf-4d54-8f0f-2ceacecbc046,.f95cd728-39ae-443f-8e79-73ab272ad3ba,.fd383e72-677d-49f0-8f59-f931024fcc36{stroke-width:.5px}.edd49eff-16b7-4909-8256-da30493873f0{fill:#443840;stroke:#090000}.f185b3e7-a4bf-4d54-8f0f-2ceacecbc046{stroke:#090000}.edd49eff-16b7-4909-8256-da30493873f0{stroke-width:.75px}.f185b3e7-a4bf-4d54-8f0f-2ceacecbc046{fill:#6b0c05}.e648d622-38ce-42d2-820d-4b0923269259{fill:#86382f}.b66be3c7-1fa1-45f9-a344-72932728856b{stroke:#373737}.bd5b6441-6706-48f2-993d-c68fe53371c2{fill:#193591}.b299e6cb-5d9f-4c2d-a991-e20d904479cd{fill:#dc6e05}.e7d92b59-8ab5-4d3f-b3e9-71f26ee425e1{fill:#12e600}.a65b61ef-5725-4851-af5b-b03ff010490b{fill:#fff}.f95cd728-39ae-443f-8e79-73ab272ad3ba{fill:#0b47ce}.b85aa69a-660f-4b31-aa8c-d32a4ed1fab3,.e39eadce-2340-4c2d-ac93-f5a9f369fd80{fill:#282826}.a96590ea-c79e-42d9-8af2-f42174e9b26b{fill:#ae7a82}.bbfb64b6-3eb1-41cc-b95b-b1735add17f8{fill:url(#b77491b7-c04b-48ee-a0c8-9e482ad007d3)}.bb786f95-d4e6-4257-898d-10e24397b4e4{fill:url(#b99d6700-e7f9-48f8-9b38-d9c9d5290aee)}.b23095ba-113b-49d6-ab0b-b6fc7c676870{fill:#0000ef}.b1d50f27-412f-4e65-bb33-8861dde6ec80{fill:#930303}.fd2e5195-9f8a-4d7a-a6ee-2f64fd3a6687{fill:#e7e7e7}.bfe96638-679a-4a19-8b31-c657e4c62ae7{fill:#2c2b29}.f1455eed-df0e-4e6b-b71b-b7dd7b9027d2{fill:#2748a0}.bde1ed0b-c163-4217-af0e-23edbf0ee1ad{fill:#f7f8fb}</style></defs><g id="ea15b4e1-a85e-459e-a4ad-f034df5b2db5" data-name="Calque 1"><path id="a10651b1-b7e0-4c85-9265-86aefb5f5ff5" data-name="ombre" style="opacity:.5;fill:#373735" d="m452.03 588.79 21.51-5.91H485.41l1.58 2.96 237.36 43.3h11.08l11.07 31.39-46.41 37.71-46.42 13.19-8.18-1.32.27-1.85-13.98-2.63-83.6 27.95-73.32 51.57-22.83 6.82-7.77-1.16v-2.63l-16.08-3.03-129.99 34.37 153.84-230.73z"/><g id="e85fe32a-4825-4a64-a30d-1194051aedea" data-name="bottom"><path class="bc5cd951-d944-4a70-ac1c-0398f769e2ee" d="m36 454.56 224.9 39.62v4.35l25.72 6.13-.4 311.34-248.24-47.27L36 454.56z"/><path class="fd383e72-677d-49f0-8f59-f931024fcc36" d="m202 526.54-78.38-13.74c-3 .19-4.26 3.56-4.26 3.56l.2 85c.69 2.18 3.86 5 3.86 5l74.27 13.46c5.14.49 7.52-5.25 7.52-5.25v-82.69a7.12 7.12 0 0 0-3.21-5.34zm-49.9 22.55-18.69-3.46v-20l2.27-1.88 18.1 3.07-1.78 2.69zm31.45 6.13-18.69-3.46v-20l2.27-1.87 18.1 3.06-1.78 2.67z" transform="translate(-.98 -.52)"/><path class="edd49eff-16b7-4909-8256-da30493873f0" d="m134.7 523.25-2.27 1.88v19.98l18.69 3.46-.1-19.58 1.78-2.67-18.1-3.07zM166.15 529.38l-2.27 1.88v19.98l18.69 3.46-.1-19.58 1.78-2.67-18.1-3.07z"/><path class="f185b3e7-a4bf-4d54-8f0f-2ceacecbc046" d="M140.14 543.03v-12.85l8.01 1.78v12.56l-8.01-1.49zM171.2 548.87v-12.86l8.01 1.78v12.56l-8.01-1.48z"/><path d="M135.23 543.16v-15.23l2.05.4v15.16l-2.05-.33zM166.68 548.7v-15.23l2.04.4v15.16l-2.04-.33z"/><path class="e648d622-38ce-42d2-820d-4b0923269259" d="M140.4 530.69v-.35l7.47 1.8.01.43-7.48-1.88zM171.46 536.62v-.29l7.47 1.64.01.35-7.48-1.7z"/><circle cx="192.4" cy="574.85" r="4.25" style="fill:#8b8b8b;stroke-width:.75px;stroke:#090000;stroke-miterlimit:10"/><path class="b66be3c7-1fa1-45f9-a344-72932728856b" d="M136.29 598.71v-11.27l11.96 2.18v11.3l-11.96-2.21zM167.54 604.25v-11.27l11.96 2.17v10.88l-11.96-1.78z"/></g><g id="f7900944-a5c7-48c1-ba04-d4f3436b1b51" data-name="t molding"><path class="bd5b6441-6706-48f2-993d-c68fe53371c2" d="m11.46 450.59-.79-39.76L1 407.66v45.1l27.89 5.54c.59 103.55 1 207.6 1.58 311.15a6.18 6.18 0 0 0 3.53 2.19 12.58 12.58 0 0 0 5 0l-2-316.56zM272.36 497v-41.27l-10.28-1.19-.2 44.51 25.71 6.13s-1.51 313.85 0 315.69 8.77 1.32 8.77 1.32l.93-319.91z" transform="translate(-.98 -.52)"/><path class="bd5b6441-6706-48f2-993d-c68fe53371c2" d="m78.72 346.42-8.15-1.3 16.26-218.56 9.04 1.5-17.15 218.36zM329.24 388.85l9.1 1.28 18.49-224.31h-26.37l-.26-90.92-10.06-1.84v94.84l6.04 1.09h20.27l-17.21 219.86z"/><path class="bd5b6441-6706-48f2-993d-c68fe53371c2" d="M88.49 127.19s-28.17-.35-29.11-.85c0-31.21.06-62.83 0-94l9.36 2.64.48 89.02z" transform="translate(-.98 -.52)"/><g id="a09cb11c-0691-4ef2-88ef-109c793044ad" data-name="clair"><path class="bd5b6441-6706-48f2-993d-c68fe53371c2" d="m0 407.14 9.69 3.17L78 346.25l-8.11-1.94L0 407.14zM261.1 454.02l10.28 1.19 66.96-65.87-8.62-1.6-68.62 66.28zM111.56 0 58.42 31.78l9.36 2.64L120.36 3.3l2.74-1.62-2.57-.36L111.56 0zM383.74 40.62l-11.21-.8-52.39 33.24 10.06 1.84 53.54-34.28z"/></g></g><g id="a0116501-7055-41f4-9e1a-a2e4a6c598cb" data-name="side"><path class="fd383e72-677d-49f0-8f59-f931024fcc36" d="m453.13 308.64.63-159.63-70.02-108.39L330.2 74.9l.26 90.92h26.37l-18.49 224.31-66.96 65.08v41.27l24.93 5.28-.93 319.91 8.25-6.32 149.65-543.7-.21 21.51-142.1 516.55-1.61 1.24 6.94-5.32 136.83-496.99zM324.06 799.15l-7.76 6.48 11.99-9.2 124.7-453.24.05-12.13-128.98 468.09zM335.43 790.95l-1.32 1.02 6.87-5.27 111.79-407.64v21.25l.22-57.12-.22 24-117.34 423.76zM343 785.15l108.58-83.28 1.18-299.85L347.4 781.78l-4.4 3.37z"/><path style="fill:#bf0000;stroke-width:.5px;stroke-miterlimit:10;stroke:#b5b5b5" d="m303.63 815.35 5.73-4.4-5.73 4.4z"/><path class="bd5b6441-6706-48f2-993d-c68fe53371c2" d="m453.07 293.16.21-21.51-149.65 543.7 5.73-4.4 1.61-1.24 142.1-516.55z"/><path class="b299e6cb-5d9f-4c2d-a991-e20d904479cd" d="M453.13 330.74v-22.1l-.09 22.42.09-.32zM316.3 805.63z"/><path style="fill:#f03190" d="m453.04 331.06.09-22.42L316.3 805.63l7.76-6.48 128.98-468.09z"/><path class="e7d92b59-8ab5-4d3f-b3e9-71f26ee425e1" d="M452.99 343.19zM328.29 796.43l5.82-4.46-5.82 4.46z"/><path class="a65b61ef-5725-4851-af5b-b03ff010490b" d="m334.11 791.97 1.32-1.02 117.34-423.76.22-24-124.7 453.24 5.82-4.46z"/><path class="f95cd728-39ae-443f-8e79-73ab272ad3ba" d="m340.98 786.7 2.02-1.55-2.02 1.55zM452.77 402v-1.69l-.01 1.71.01-.02z"/><path style="fill:#9c9c9a" d="m340.98 786.7 2.02-1.55 4.4-3.37 105.36-379.76.01-1.71v-21.25L340.98 786.7z"/></g><g id="b6e7f37e-80cc-442d-9ad2-91d20bd672b1" data-name="panel"><path class="b85aa69a-660f-4b31-aa8c-d32a4ed1fab3" d="m10.48 450.07 250.42 44.11.2-40.16L9.69 410.31l.79 39.76z"/><path class="bc5cd951-d944-4a70-ac1c-0398f769e2ee" d="m79.37 345.21-69.68 65.1 251.41 43.71 68.62-66.28-250.35-42.53z"/></g><g id="b0a90806-3993-4319-b889-634278214bc4" data-name="ecran"><path class="b85aa69a-660f-4b31-aa8c-d32a4ed1fab3" d="M96.84 129.36 79.7 347.72l250.52 42.43L347.82 168zm224.28 67.76c0 .2-.29.32-.48.49l-10.43 144.83a35.43 35.43 0 0 1-4.3 3.78l1.4.29v10.7s-1.4 4.75-11.08 2.64c-11.19-2.44-178.55-31.91-178.55-31.91l8.72-6.78v-1.39s-2.46.52-6-7l-12.48 2.77h-4l11.34-158.77s4-6.85 10.81-6.59 191.16 30.59 191.16 30.59 6.17 1.07 3.89 16.35z" transform="translate(-.98 -.52)"/><path d="M317.28 180S133 149.66 126.12 149.4s-10.81 6.6-10.81 6.6l-11.74 160.08h4.35l12.29-2.68c-.1-.23-.74-1.57-.85-1.8L131 166.54s2.11-5.54 7.12-7.38l177.49 27.16a20.77 20.77 0 0 1 5.11 9.76l-.05.75c.19-.17.62.66.66.47 3.23-14.06-4.05-17.3-4.05-17.3z" transform="translate(-.98 -.52)" style="fill:#151312"/><path d="m125.32 320-8.56 8s164.63 29.3 178.61 32.24c10.36 2.17 14.43-3.58 14.43-3.58l.61-7.37.39-7.71-4.89 3.84a20.85 20.85 0 0 1-7.73 3.87z" transform="translate(-.98 -.52)" style="fill:#555353"/><path d="M319.5 197.81c.45-.36.83-.69 1.14-1l.66-.52a20.31 20.31 0 0 0-5.72-10l-177.49-27.13c-5 1.84-7.12 7.38-7.12 7.38L119.36 311.6l.32.66c3.54 7.52 6.28 8 6.28 8l.44.08 171.78 28.93a20.85 20.85 0 0 0 7.73-3.87c2.57-1.91 4.89-3.84 4.89-3.84l10.5-145.29c-.44.46-1.05.96-1.8 1.54zM143.83 302.35z" transform="translate(-.98 -.52)" style="fill:#008aa6"/></g><g id="a00067c9-f13c-4086-bd4f-c94ce412898c" data-name="top"><path id="f5213210-c641-491e-b5f2-3b75e3021014" data-name="marquee" class="b85aa69a-660f-4b31-aa8c-d32a4ed1fab3" d="m68.24 123.5 251.47 39.03.43-89.47L67.78 34.42l.46 89.08z"/><path style="stroke-miterlimit:10;stroke:#b5b5b5;fill:#373735" d="m128.84 2.64-5.74-.96-55.32 32.74 252.36 38.64 52.39-33.24L128.84 2.64z"/></g><g id="a5be9fff-c66c-4871-a769-d924b0a02cb0" data-name="stickp1"><path class="e39eadce-2340-4c2d-ac93-f5a9f369fd80" d="M68.92 377.27v5.16H62.4v-5.16c-5.06.64-8.77 2.7-8.77 5.16 0 3 5.38 5.35 12 5.35s12-2.39 12-5.35c.06-2.43-3.63-4.52-8.71-5.16z" transform="translate(-.98 -.52)"/><path class="a96590ea-c79e-42d9-8af2-f42174e9b26b" d="M68.92 377.27v-17.78a12.18 12.18 0 0 1-3 .39 12.4 12.4 0 0 1-3.48-.49v17.88a26.67 26.67 0 0 1 6.52 0z" transform="translate(-.98 -.52)"/><path class="a96590ea-c79e-42d9-8af2-f42174e9b26b" d="M68.92 382.43v-5.16a26.67 26.67 0 0 0-6.52 0v5.16z" transform="translate(-.98 -.52)"/><path class="bbfb64b6-3eb1-41cc-b95b-b1735add17f8" d="M68.92 358.89v.6a11.24 11.24 0 0 0 8.77-10.72c0-6.14-5.29-11.11-11.81-11.11s-11.82 5-11.82 11.11a11.22 11.22 0 0 0 8.34 10.62v-.5z" transform="translate(-.98 -.52)"/><path class="a96590ea-c79e-42d9-8af2-f42174e9b26b" d="M68.92 359.49v-.6H62.4v.5a12.4 12.4 0 0 0 3.48.49 12.18 12.18 0 0 0 3.04-.39z" transform="translate(-.98 -.52)"/><path class="bbfb64b6-3eb1-41cc-b95b-b1735add17f8" d="M68.92 359.49v-.6H62.4v.5a12.4 12.4 0 0 0 3.48.49 12.18 12.18 0 0 0 3.04-.39z" transform="translate(-.98 -.52)"/></g><g id="e0d1801b-c461-45ae-89e5-ff2b1f499c02" data-name="stickp2"><path class="e39eadce-2340-4c2d-ac93-f5a9f369fd80" d="M198.88 399.49v5.16h-6.53v-5.16c-5 .64-8.77 2.7-8.77 5.16 0 3 5.39 5.35 12 5.35s12-2.39 12-5.35c.07-2.46-3.64-4.52-8.7-5.16z" transform="translate(-.98 -.52)"/><path class="a96590ea-c79e-42d9-8af2-f42174e9b26b" d="M198.88 399.49v-17.78a12.2 12.2 0 0 1-3 .39 12.83 12.83 0 0 1-3.48-.49v17.88a26.75 26.75 0 0 1 6.53 0z" transform="translate(-.98 -.52)"/><path class="a96590ea-c79e-42d9-8af2-f42174e9b26b" d="M198.88 404.65v-5.16a26.75 26.75 0 0 0-6.53 0v5.16z" transform="translate(-.98 -.52)"/><path class="bb786f95-d4e6-4257-898d-10e24397b4e4" d="M198.88 381.11v.6a11.24 11.24 0 0 0 8.77-10.71c0-6.14-5.29-11.11-11.82-11.11S184 364.85 184 371a11.22 11.22 0 0 0 8.34 10.62v-.5z" transform="translate(-.98 -.52)"/><path class="a96590ea-c79e-42d9-8af2-f42174e9b26b" d="M198.88 381.71v-.6h-6.53v.5a12.83 12.83 0 0 0 3.48.49 12.2 12.2 0 0 0 3.05-.39z" transform="translate(-.98 -.52)"/><path class="bb786f95-d4e6-4257-898d-10e24397b4e4" d="M198.88 381.71v-.6h-6.53v.5a12.83 12.83 0 0 0 3.48.49 12.2 12.2 0 0 0 3.05-.39z" transform="translate(-.98 -.52)"/></g><g id="b2ec435c-f521-4267-88cd-5cb157c6abb4" data-name="boutons P1"><g id="eb132959-392a-4b78-8b1a-abac6ae3fa60" data-name="4"><path class="b23095ba-113b-49d6-ab0b-b6fc7c676870" d="M92.54 389.14c-3.86 0-8.12 1.53-8.12 4.87 0 2.95 4.1 4.62 7.94 4.62 4.11 0 8-1.73 8-4.88-.04-2.35-3.88-4.61-7.82-4.61zm-.18 8.63c-3.86 0-7-1.74-7-3.89s3.13-3.89 7-3.89 7 1.74 7 3.89-3.14 3.89-7 3.89z" transform="translate(-.98 -.52)"/><path d="M92.36 390c-3.86 0-7 1.74-7 3.89s3.13 3.89 7 3.89 7-1.74 7-3.89-3.14-3.89-7-3.89z" transform="translate(-.98 -.52)" style="fill:url(#a88ae9b4-5c0d-4c20-9ddb-0dc02baf63d6)"/></g><g id="f8a4b25e-e06b-41a5-89aa-cfba63086656" data-name="5"><path class="b23095ba-113b-49d6-ab0b-b6fc7c676870" d="M114.79 389.14c-3.86 0-8.12 1.53-8.12 4.87 0 2.95 4.1 4.62 7.94 4.62 4.11 0 8-1.73 8-4.88-.04-2.35-3.88-4.61-7.82-4.61zm-.18 8.63c-3.86 0-7-1.74-7-3.89s3.13-3.89 7-3.89 7 1.74 7 3.89-3.14 3.89-7 3.89z" transform="translate(-.98 -.52)"/><path d="M114.61 390c-3.86 0-7 1.74-7 3.89s3.13 3.89 7 3.89 7-1.74 7-3.89-3.14-3.89-7-3.89z" transform="translate(-.98 -.52)" style="fill:url(#e3d9451d-e270-4d75-b043-e0807206fa22)"/></g><g id="bb1fc3d8-b3ab-4614-92a8-e66d4b79a3a6" data-name="6"><path class="b23095ba-113b-49d6-ab0b-b6fc7c676870" d="M133.35 395.3c-3.86 0-8.13 1.53-8.13 4.87 0 3 4.11 4.62 7.95 4.62 4.1 0 8-1.73 8-4.88-.04-2.35-3.88-4.61-7.82-4.61zm-.18 8.63c-3.86 0-7-1.74-7-3.89s3.13-3.89 7-3.89 7 1.74 7 3.89-3.17 3.89-7 3.89z" transform="translate(-.98 -.52)"/><path d="M133.17 396.15c-3.86 0-7 1.74-7 3.89s3.13 3.89 7 3.89 7-1.74 7-3.89-3.17-3.89-7-3.89z" transform="translate(-.98 -.52)" style="fill:url(#bd8a451f-940f-4a48-8f70-72014467ad28)"/></g><g id="a8937d0c-410b-4ed0-bae7-d47db8fefa88" data-name="3"><path class="b23095ba-113b-49d6-ab0b-b6fc7c676870" d="M139.39 383c-3.86 0-8.13 1.53-8.13 4.88 0 2.95 4.11 4.61 8 4.61 4.1 0 8-1.73 8-4.88-.09-2.31-3.93-4.61-7.87-4.61zm-.18 8.63c-3.86 0-7-1.74-7-3.89s3.13-3.89 7-3.89 7 1.75 7 3.89-3.14 3.93-7 3.93z" transform="translate(-.98 -.52)"/><path d="M139.21 383.89c-3.86 0-7 1.75-7 3.89s3.13 3.89 7 3.89 7-1.74 7-3.89-3.14-3.89-7-3.89z" transform="translate(-.98 -.52)" style="fill:url(#b7404089-4019-48c3-9e10-1dff9458ac14)"/></g><g id="ac3eaf63-bc01-4dfe-98aa-b627df0f1f2b" data-name="2"><path class="b23095ba-113b-49d6-ab0b-b6fc7c676870" d="M121.79 377.35c-3.86 0-8.12 1.53-8.12 4.88 0 2.95 4.1 4.61 7.94 4.61 4.11 0 8-1.73 8-4.88-.04-2.34-3.88-4.61-7.82-4.61zm-.18 8.64c-3.86 0-7-1.74-7-3.89s3.13-3.89 7-3.89 7 1.74 7 3.89-3.14 3.9-7 3.9z" transform="translate(-.98 -.52)"/><path d="M121.61 378.21c-3.86 0-7 1.74-7 3.89s3.13 3.89 7 3.89 7-1.74 7-3.89-3.14-3.89-7-3.89z" transform="translate(-.98 -.52)" style="fill:url(#be9cb153-be48-4007-abb7-964c29b5cd4e)"/></g><g id="a73a2720-8654-4bb1-9be2-bd5b43742b45" data-name="1"><path class="b23095ba-113b-49d6-ab0b-b6fc7c676870" d="M100.5 377.78c-3.86 0-8.13 1.53-8.13 4.88 0 2.95 4.11 4.62 7.95 4.62 4.1 0 8-1.73 8-4.88-.04-2.35-3.88-4.62-7.82-4.62zm-.18 8.64c-3.86 0-7-1.74-7-3.89s3.13-3.89 7-3.89 7 1.74 7 3.89-3.14 3.89-7 3.89z" transform="translate(-.98 -.52)"/><path d="M100.32 378.64c-3.86 0-7 1.74-7 3.89s3.13 3.89 7 3.89 7-1.74 7-3.89-3.14-3.89-7-3.89z" transform="translate(-.98 -.52)" style="fill:url(#eaba4719-bccc-4d73-bdec-df658b19fe13)"/></g></g><g id="bf9db465-de34-45b6-9c87-ed9e62b086ed" data-name="boutons P2"><g id="a801fe0a-0658-457a-9aba-63d372d195a2" data-name="1"><path class="b1d50f27-412f-4e65-bb33-8861dde6ec80" d="M225.69 399.93c-3.86 0-8.13 1.53-8.13 4.87 0 2.95 4.11 4.62 7.95 4.62 4.1 0 8-1.73 8-4.88-.04-2.35-3.88-4.61-7.82-4.61zm-.18 8.63c-3.86 0-7-1.74-7-3.89s3.13-3.89 7-3.89 7 1.74 7 3.89-3.14 3.89-7 3.89z" transform="translate(-.98 -.52)"/><path d="M225.51 400.78c-3.86 0-7 1.74-7 3.89s3.13 3.89 7 3.89 7-1.74 7-3.89-3.14-3.89-7-3.89z" transform="translate(-.98 -.52)" style="fill:url(#ba7e8a28-ccf4-47c3-85cc-88d8c87806e8)"/></g><g id="a557ed7d-a9b0-4be4-907b-98b4ac85e6a8" data-name="2"><path class="b1d50f27-412f-4e65-bb33-8861dde6ec80" d="M247 399.49c-3.86 0-8.13 1.54-8.13 4.88 0 2.95 4.11 4.62 7.95 4.62 4.1 0 8-1.73 8-4.88-.07-2.35-3.91-4.62-7.82-4.62zm-.18 8.64c-3.86 0-7-1.74-7-3.89s3.13-3.89 7-3.89 7 1.74 7 3.89-3.17 3.89-7.03 3.89z" transform="translate(-.98 -.52)"/><path d="M246.79 400.35c-3.86 0-7 1.74-7 3.89s3.13 3.89 7 3.89 7-1.74 7-3.89-3.14-3.89-7-3.89z" transform="translate(-.98 -.52)" style="fill:url(#faf7bb82-1c26-4d78-bd28-277f9920412f)"/></g><g id="e5ba1211-dd8d-4828-b5e9-5d1a59e5a13c" data-name="3"><path class="b1d50f27-412f-4e65-bb33-8861dde6ec80" d="M264.58 405.18c-3.86 0-8.12 1.53-8.12 4.88 0 2.95 4.1 4.61 7.94 4.61 4.1 0 8-1.73 8-4.88-.04-2.35-3.88-4.61-7.82-4.61zm-.18 8.64c-3.86 0-7-1.75-7-3.89s3.13-3.89 7-3.89 7 1.74 7 3.89-3.14 3.89-7 3.89z" transform="translate(-.98 -.52)"/><path d="M264.4 406c-3.86 0-7 1.74-7 3.89s3.13 3.89 7 3.89 7-1.75 7-3.89-3.14-3.89-7-3.89z" transform="translate(-.98 -.52)" style="fill:url(#f916ddd7-a7bb-40fb-9954-12502c7d6f1d)"/></g><g id="adf5b534-e913-4ab3-bbc1-2c9fe3baab33" data-name="4"><path class="b1d50f27-412f-4e65-bb33-8861dde6ec80" d="M258.54 417.44c-3.86 0-8.13 1.53-8.13 4.88 0 2.95 4.11 4.61 8 4.61 4.1 0 8-1.73 8-4.88-.09-2.35-3.93-4.61-7.87-4.61zm-.18 8.64c-3.86 0-7-1.75-7-3.89s3.13-3.89 7-3.89 7 1.74 7 3.89-3.14 3.89-7 3.89z" transform="translate(-.98 -.52)"/><path d="M258.36 418.3c-3.86 0-7 1.74-7 3.89s3.13 3.89 7 3.89 7-1.75 7-3.89-3.14-3.89-7-3.89z" transform="translate(-.98 -.52)" style="fill:url(#a251eb41-7930-41dd-9fa4-6cab7ac99d68)"/></g><g id="b0d93cb1-ab08-41a2-b1ea-a5843886f73b" data-name="5"><path class="b1d50f27-412f-4e65-bb33-8861dde6ec80" d="M240 411.28c-3.86 0-8.13 1.53-8.13 4.88 0 2.95 4.11 4.61 7.95 4.61 4.1 0 8-1.73 8-4.88-.07-2.35-3.91-4.61-7.82-4.61zm-.18 8.63c-3.86 0-7-1.74-7-3.89s3.13-3.89 7-3.89 7 1.75 7 3.89-3.17 3.89-7.03 3.89z" transform="translate(-.98 -.52)"/><path d="M239.79 412.13c-3.86 0-7 1.75-7 3.89s3.13 3.89 7 3.89 7-1.74 7-3.89-3.14-3.89-7-3.89z" transform="translate(-.98 -.52)" style="fill:url(#b8c78ab6-8719-4009-a48e-80e9b34cd3fc)"/></g><g id="b92c3598-a912-41d9-a5ef-38653a2e85a3" data-name="6"><path class="b1d50f27-412f-4e65-bb33-8861dde6ec80" d="M217.73 411.28c-3.86 0-8.13 1.53-8.13 4.88 0 2.95 4.11 4.61 8 4.61 4.1 0 8-1.73 8-4.88-.09-2.35-3.93-4.61-7.87-4.61zm-.18 8.63c-3.86 0-7-1.74-7-3.89s3.13-3.89 7-3.89 7 1.75 7 3.89-3.14 3.89-7 3.89z" transform="translate(-.98 -.52)"/><path d="M217.55 412.13c-3.86 0-7 1.75-7 3.89s3.13 3.89 7 3.89 7-1.74 7-3.89-3.14-3.89-7-3.89z" transform="translate(-.98 -.52)" style="fill:url(#f3f5fa8e-a92c-4a02-b825-14c2229712bf)"/></g></g><path class="fd2e5195-9f8a-4d7a-a6ee-2f64fd3a6687" d="M228.57 237.19v.07l-5.92-1v-.08zM236.56 238.53a.13.13 0 0 0 0 .06l-5.72-1v-.06z" transform="translate(-.98 -.52)"/><path class="bfe96638-679a-4a19-8b31-c657e4c62ae7" d="m210.17 273.38-65.56-11c-.87-.14-.87-.14-.74-.92.25-1.54.47-3.08.75-4.61.78-4.31 1.48-8.63 2.22-12.95.09-.48.22-1 .29-1.44 0-.18.12-.23.31-.19l.75.13 119.31 19.98a16.13 16.13 0 0 1 4.69 1.42 11.54 11.54 0 0 1 5.67 5.9 8.36 8.36 0 0 1 .63 3.88c0 .38-.08.76-.15 1.14l-1.56 9.36c-.07.39-.13.42-.54.36l-40.11-6.72zm14.68-7.7c-.4 2.35-.79 4.71-1.19 7.07 0 .23 0 .34.3.38 1 .15 1.95.32 2.93.49.51.09.51.09.59-.37q.69-4.22 1.4-8.43c0-.08 0-.21.12-.22s.13.1.17.17c1.69 3.14 3.43 6.26 5.06 9.42a2.38 2.38 0 0 0 3.55.6c.9-.94 1.91-1.79 2.87-2.68l4.89-4.53c.08-.07.15-.22.26-.17s0 .2 0 .31v.12c-.47 2.79-.93 5.58-1.4 8.37 0 .25 0 .35.31.4 1 .16 2 .32 3.06.51.34.07.45 0 .49-.32l2.32-13.83a1.32 1.32 0 0 0-.25-1 2.34 2.34 0 0 0-3.26-.37l-2.16 2-8.12 7.4c-.25.23-.28.22-.45-.08-2.2-4.06-4.42-8.11-6.61-12.17a2.14 2.14 0 0 0-1.43-1.06A1.74 1.74 0 0 0 226 259zm-4.51-.71c.38-2.31.76-4.61 1.16-6.92a1.32 1.32 0 0 0-.45-1.21 2.4 2.4 0 0 0-3.17 0c-2.39 2.24-4.82 4.43-7.24 6.63l-2.95 2.7c-.13.12-.23.25-.37 0l-3.44-6.31c-1.1-2-2.19-4-3.3-6a2.24 2.24 0 0 0-2.21-1 1.52 1.52 0 0 0-1.5 1.37q-1.16 6.86-2.3 13.71c0 .28.05.37.35.41 1 .15 2 .32 3 .5.44.07.45.08.51-.3.46-2.73.91-5.46 1.37-8.19 0-.13 0-.27.06-.4s0-.16.11-.17.1.08.13.14.18.34.28.51c1.63 3 3.29 6 4.88 9.07a2.34 2.34 0 0 0 3.35.6c.47-.47 1-.91 1.48-1.37l6.5-6c.06-.05.09-.14.19-.11s.07.14.06.22c-.14.81-.28 1.62-.41 2.44-.35 2.06-.69 4.13-1 6.2 0 .22 0 .32.29.36l3 .5c.44.07.45.07.52-.31q.51-3.6 1.1-7.04zm33.15 5.67c-.38 2.28-.76 4.57-1.15 6.85-.06.31.06.41.38.45 1 .16 2 .32 3 .5.33.07.45 0 .5-.31.16-1 .35-2.08.51-3.12 0-.23.12-.33.4-.28l12.77 2.14c.33.05.39.18.34.45-.18 1-.34 2.08-.53 3.12-.05.25 0 .35.32.4 1 .15 2 .32 3 .49.45.07.46.07.53-.34l1.22-7.32a6.88 6.88 0 0 0-2.51-6.52 12.61 12.61 0 0 0-6.36-3c-2.38-.41-4.76-.8-7.13-1.19-.72-.12-1.45-.26-2.17-.35a1.6 1.6 0 0 0-1.91 1.29c-.46 2.27-.83 4.5-1.21 6.74zm-62.24-10.42 1.14-6.79a1.24 1.24 0 0 0 0-.47 1.91 1.91 0 0 0-1.63-1.33c-1.55-.26-3.1-.53-4.65-.77-1.84-.3-3.66-.71-5.51-.87a11.55 11.55 0 0 0-7 1.39 6.55 6.55 0 0 0-3.37 4.67q-.63 3.74-1.25 7.47c-.07.4-.07.4.36.47 1 .17 2 .32 2.93.5.33.06.45 0 .5-.31.15-1 .34-2.06.5-3.09 0-.29.17-.35.48-.3l12.67 2.12c.34 0 .42.16.37.46-.19 1-.35 2.08-.54 3.11 0 .26 0 .36.32.4 1 .16 2 .32 3 .51.33.06.44 0 .49-.32.42-2.28.81-4.57 1.19-6.85zm-38.3 1 6.47 1.08a7.76 7.76 0 0 0 2.76 0 3.93 3.93 0 0 0 3.34-2.92c.64-3.78 1.26-7.55 1.9-11.33.05-.27 0-.37-.33-.42-1-.15-2-.32-3-.5-.36-.07-.46 0-.51.33q-.92 5.58-1.86 11.15a1.08 1.08 0 0 1-1.24.95 4.41 4.41 0 0 1-.73-.08c-1-.18-2-.37-3.06-.54l-7-1.15c-.28-.05-.35-.15-.31-.38.11-.59.19-1.18.31-1.76.06-.28 0-.4-.35-.45-.84-.13-1.68-.26-2.52-.42-.34-.07-.44 0-.49.32-.24 1.49-.49 3-.74 4.45-.07.42-.07.42.42.5zM230.83 237.63l5.72 1c.15.09.15.2.13.35-.37 2.17-.73 4.34-1.11 6.51 0 .29 0 .38.34.43 3.09.5 6.18 1 9.27 1.54.32.05.34.16.31.44-.06.67-.23 1.33-.32 2-.22 1.55-.54 3.09-.8 4.63-.1.59-.17 1.19-.26 1.78 0 .2-.12.31-.4.26L228.57 254c-.65-.11-.65-.11-.56-.68q1.29-7.69 2.57-15.38c.02-.15.02-.31.25-.31zm3.94 12.7c-.13.78-.25 1.56-.39 2.34-.05.27 0 .38.33.43 1.06.16 2.11.34 3.16.53.32.06.44 0 .49-.31.25-1.55.51-3.1.78-4.66 0-.24 0-.34-.31-.38q-1.62-.25-3.24-.54c-.28-.05-.39 0-.43.27-.16.78-.26 1.55-.39 2.32zM255.63 249.17c2.55.43 5.09.86 7.64 1.27.34.06.42.17.37.47q-.7 4.14-1.39 8.3c-.07.37-.1.4-.52.33L246.38 257c-.27-.05-.34-.16-.3-.39q.72-4.21 1.41-8.43c0-.28.18-.33.47-.28 2.55.44 5.11.86 7.67 1.29zm1.31 4.88c.14-.8.27-1.6.41-2.4 0-.23 0-.36-.3-.4l-3.44-.58c-.26 0-.38 0-.42.27l-.81 4.85c0 .25.05.36.33.41l3.37.56c.3.06.42 0 .46-.3.13-.8.27-1.6.4-2.41zM173.53 244.78l-7.64-1.27c-.31 0-.37-.15-.33-.42q.72-4.2 1.42-8.42c0-.25.13-.32.4-.27l15.36 2.6c.41.07.43.11.37.49-.26 1.55-.53 3.11-.78 4.66 0 .31-.17.37-.5.32-3.07-.53-6.15-1-9.22-1.55-.46-.08-.46-.08-.52.32s-.11.7-.19 1 0 .35.31.4c2.06.33 4.11.68 6.17 1l3.16.53c.32.05.42.17.37.44s-.14.74-.19 1.11-.18.38-.51.32zm.92-5.45c.56.1 1.13.18 1.69.29.25 0 .35 0 .38-.25 0-.39.12-.78.2-1.17 0-.21 0-.32-.26-.36l-3.41-.57c-.22 0-.33 0-.36.23q-.08.62-.18 1.23c0 .23.06.3.29.33.55.07 1.1.17 1.65.27zM211.28 241.75l7.64 1.28c.44.07.5.14.42.52-.43 2-.7 4-1.05 6-.14.74-.27 1.48-.37 2.23 0 .29-.15.37-.49.31-2.08-.36-4.17-.7-6.26-1l-9-1.51c-.42-.07-.43-.08-.37-.47.26-1.56.53-3.11.77-4.67 0-.32.18-.37.52-.31l9.16 1.54c.46.07.46.07.53-.33s.09-.67.17-1 0-.4-.36-.46c-2.34-.37-4.68-.77-7-1.16l-2.31-.38c-.24 0-.32-.12-.28-.34a10.85 10.85 0 0 0 .21-1.27c0-.27.16-.31.43-.26l5.37.9 2.27.38zm-1.15 7.25c.55.09 1.11.17 1.66.27.21 0 .33 0 .36-.21l.21-1.23c0-.19-.05-.29-.27-.33l-3.33-.56c-.24 0-.35 0-.38.24 0 .4-.11.79-.19 1.17-.05.23.05.33.29.37.52.07 1.1.17 1.65.28zM268.74 251.36c.87.15 1.74.31 2.62.44.31 0 .38.18.34.43-.08.4-.13.8-.21 1.2 0 .21 0 .3.27.34l3.36.56c.28 0 .38 0 .41-.27.06-.41.15-.82.2-1.23 0-.23.15-.27.37-.24l5.4.91c.21 0 .3.13.27.33-.08.43-.16.86-.22 1.29 0 .23-.16.29-.41.25-.44-.09-.89-.15-1.34-.24-.24 0-.33 0-.36.24-.05.4-.13.8-.19 1.2 0 .23-.15.3-.4.25-.47-.08-.94-.15-1.41-.24-.17 0-.24 0-.29.17-.13.44-.08.91-.25 1.34-.07.18.07.24.24.27l1.38.22c.28 0 .38.15.33.41s-.13.78-.21 1.17c0 .21.05.31.28.34l1.34.22c.25 0 .34.13.3.36-.09.42-.17.84-.22 1.27 0 .22-.15.27-.36.24l-.65-.11-4.62-.77c-.45-.08-.45-.08-.38-.49s.12-.76.19-1.14c.05-.21 0-.3-.27-.34l-3.44-.58c-.22 0-.29 0-.31.21-.06.4-.16.8-.19 1.21s-.19.37-.5.32l-4.72-.8c-1.16-.19-.93-.1-.8-1 0-.25.09-.49.12-.74s.16-.29.4-.25c.45.09.9.15 1.34.24.27.05.39 0 .42-.26s.14-.78.19-1.17.16-.31.41-.26c.46.09.92.15 1.37.24.21 0 .3 0 .32-.2.06-.43.13-.85.22-1.27 0-.21-.05-.28-.26-.31l-1.38-.23c-.24 0-.34-.12-.29-.36s.14-.78.21-1.17c0-.23 0-.35-.31-.38-.45-.06-.9-.15-1.35-.22-.25 0-.34-.14-.29-.37q.12-.63.21-1.26c0-.24.16-.29.4-.24zM222.64 236.28l5.92 1a.42.42 0 0 1 .05.36q-1.31 7.77-2.6 15.56c0 .28-.17.37-.48.31s-.88-.19-1.33-.26l-3.89-.62c-.46-.08-.45-.08-.39-.49q1.31-7.74 2.6-15.49c.02-.14 0-.28.12-.37zM191.71 247.82l-7.71-1.28c-.3 0-.4-.14-.35-.43q.72-4.2 1.41-8.4c0-.26.15-.32.42-.27l15.39 2.56c.31.05.42.18.36.45s-.11.72-.19 1.08-.13.41-.55.34l-4.16-.7-5.06-.85c-.28 0-.37 0-.41.25-.22 1.39-.46 2.78-.69 4.17a2.74 2.74 0 0 1 0 .28c-.11.6-.11.6.58.72l8.92 1.49c.42.07.45.11.39.5s-.15.72-.18 1.08-.19.35-.48.3c-.56-.11-1.12-.2-1.68-.29z" transform="translate(-.98 -.52)"/><path d="M291.07 282.1c-.25 1.47-.49 2.94-.74 4.41-.07.42-.07.42-.51.34l-4.27-.71c-.27 0-.37-.13-.3-.37s.07-.41.11-.62-.06-.27-.25-.29l-.49-.05c-.39-.06-.49 0-.51.37v.19c0 .43-.14.5-.63.42-1.39-.23-2.79-.47-4.19-.69-.32-.05-.4-.19-.36-.45.5-3 1-5.91 1.49-8.86.06-.36.14-.42.55-.33 2.95.58 5.92 1 8.87 1.52.52.09 1 .13 1.55.22s.47.1.4.52c-.24 1.46-.49 2.92-.73 4.38zm-8.37-.17 1.58.27c.22 0 .32 0 .35-.22.1-.59.2-1.19.31-1.79 0-.21-.06-.3-.29-.34l-3.13-.52c-.21 0-.31 0-.35.22-.08.59-.18 1.19-.29 1.79 0 .21 0 .31.27.34zm5.47-1.49c-.52-.08-1-.16-1.55-.26-.25-.05-.36 0-.39.24-.09.59-.19 1.19-.29 1.78-.05.23.05.29.28.33 1 .16 2 .33 3 .51.28.05.39 0 .43-.27.08-.56.17-1.13.28-1.69 0-.23 0-.35-.3-.39-.48-.08-.97-.17-1.46-.25z" transform="translate(-.98 -.52)" style="fill:#2785db"/><path d="M292.87 271.31c-.25 1.48-.5 3-.74 4.44-.07.38-.11.4-.52.34l-2.86-.48c-.41-.07-.49-.18-.43-.54.14-.85.28-1.71.43-2.56a.34.34 0 0 1 0-.1c.2-.63.12-.52.72-.43l1.48.25c.26 0 .4 0 .44-.25.09-.59.19-1.18.29-1.76 0-.21 0-.33-.3-.38l-8-1.34c-.26 0-.39.05-.42.28-.09.57-.19 1.14-.28 1.7 0 .23.05.36.31.41l3.06.52a.25.25 0 0 0 .33-.17 1.81 1.81 0 0 0 .12-.64c0-.19.11-.24.27-.29a.45.45 0 0 1 .2 0c.85.09.89.14.77.88-.21 1.26-.43 2.51-.63 3.77 0 .26-.17.34-.43.3l-5.43-.91c-.49-.08-.55-.15-.48-.58.49-3 1-5.91 1.48-8.87 0-.17.09-.23.28-.22s.55 0 .83.08l9.77 1.63c.55.09.55.1.47.6l-.72 4.32z" transform="translate(-.98 -.52)" style="fill:#44c047"/><path d="M289.84 254.78c1.75.29 3.49.59 5.24.87.3 0 .4.13.35.42-.51 3-1 5.95-1.49 8.92-.05.3-.16.38-.49.32-1.4-.25-2.8-.48-4.2-.71-.36-.06-.42-.15-.36-.47 0-.12.06-.23.08-.34.08-.47.08-.47-.46-.56h-.21c-.5-.08-.51-.08-.54.39 0 .18-.1.34-.11.52s-.18.19-.35.16l-4.44-.74c-.23 0-.32-.15-.29-.35.17-1 .35-2 .51-3.06 0-.28.23-.27.45-.23l1.83.3c.8.15 1.61.24 2.4.44.25.06.44 0 .48-.27.07-.57.17-1.14.28-1.7.05-.27 0-.38-.34-.43-1.42-.22-2.83-.47-4.24-.7-.29 0-.4-.12-.35-.4.18-1 .33-2 .48-3 0-.26.15-.33.44-.28 1.77.31 3.55.6 5.33.9zm1.49 6.43c.51.08 1 .16 1.54.26.22 0 .35 0 .39-.21.09-.61.19-1.22.3-1.82 0-.2 0-.32-.27-.35l-3.09-.52c-.22 0-.32 0-.35.21-.09.63-.2 1.25-.31 1.88 0 .18 0 .26.24.29z" transform="translate(-.98 -.52)" style="fill:#eb1416"/><path class="bfe96638-679a-4a19-8b31-c657e4c62ae7" d="m156.94 232.66 7.54 1.26c.53.09.53.09.45.57s-.13.7-.17 1-.16.33-.44.28l-9.3-1.57c-.33-.05-.41 0-.45.3-.35 2.17-.72 4.33-1.07 6.49-.05.31-.2.36-.51.31l-5.19-.87c-.3 0-.4-.14-.35-.42q.72-4.19 1.4-8.39c.05-.31.19-.34.48-.29z" transform="translate(-.98 -.52)"/><path class="fd2e5195-9f8a-4d7a-a6ee-2f64fd3a6687" d="M224.85 265.68 226 259a1.74 1.74 0 0 1 2.34-1.33 2.14 2.14 0 0 1 1.43 1.06c2.19 4.06 4.41 8.11 6.61 12.17.17.3.2.31.45.08l8.14-7.43 2.16-2a2.34 2.34 0 0 1 3.26.37 1.32 1.32 0 0 1 .25 1q-1.17 6.91-2.32 13.83c0 .29-.15.39-.49.32-1-.19-2-.35-3.06-.51-.3-.05-.36-.15-.31-.4.47-2.79.93-5.58 1.4-8.37v-.12c0-.04.11-.25 0-.31s-.18.1-.26.17l-4.89 4.53c-1 .89-2 1.74-2.87 2.68a2.38 2.38 0 0 1-3.55-.6c-1.63-3.16-3.37-6.28-5.06-9.42 0-.07-.06-.19-.17-.17s-.11.14-.12.22l-1.4 8.43c-.08.46-.08.46-.59.37-1-.17-1.95-.34-2.93-.49-.28 0-.34-.15-.3-.38.4-2.36.79-4.72 1.19-7.07zM220.34 265q-.59 3.46-1.16 6.95c-.07.38-.08.38-.52.31l-3-.5c-.27 0-.32-.14-.29-.36.36-2.07.7-4.14 1-6.2.13-.82.27-1.63.41-2.44 0-.08.06-.18-.06-.22s-.13.06-.19.11l-6.5 6c-.5.46-1 .9-1.48 1.37a2.34 2.34 0 0 1-3.35-.6c-1.59-3-3.25-6.05-4.88-9.07-.1-.17-.19-.34-.28-.51s-.05-.14-.13-.14-.1.1-.11.17 0 .27-.06.4c-.46 2.73-.91 5.46-1.37 8.19-.06.38-.07.37-.51.3-1-.18-2-.35-3-.5-.3 0-.4-.13-.35-.41q1.16-6.86 2.3-13.71a1.52 1.52 0 0 1 1.5-1.37 2.24 2.24 0 0 1 2.21 1c1.11 2 2.2 4 3.3 6l3.44 6.31c.14.27.24.14.37 0l2.95-2.7c2.42-2.2 4.85-4.39 7.24-6.63a2.4 2.4 0 0 1 3.17 0 1.32 1.32 0 0 1 .45 1.21c-.4 2.31-.78 4.61-1.16 6.92zM253.49 270.64c.38-2.24.75-4.47 1.13-6.7a1.6 1.6 0 0 1 1.91-1.29c.72.09 1.45.23 2.17.35 2.37.39 4.75.78 7.13 1.19a12.61 12.61 0 0 1 6.36 3 6.88 6.88 0 0 1 2.51 6.52q-.6 3.66-1.22 7.32c-.07.41-.08.41-.53.34-1-.17-2-.34-3-.49-.29 0-.37-.15-.32-.4.19-1 .35-2.08.53-3.12.05-.27 0-.4-.34-.45l-12.77-2.14c-.28-.05-.36 0-.4.28-.16 1-.35 2.08-.51 3.12-.05.3-.17.38-.5.31-1-.18-2-.34-3-.5-.32 0-.44-.14-.38-.45.39-2.28.77-4.57 1.15-6.85zM264 273l6.37 1.07c.3 0 .43 0 .46-.28s.08-.52.12-.78a4.27 4.27 0 0 0-1.54-4.2 8.48 8.48 0 0 0-4-1.85c-2.25-.43-4.52-.78-6.77-1.17-.34-.06-.36.12-.4.33q-.44 2.69-.9 5.37c0 .29 0 .4.36.46zM191.25 260.22c-.38 2.28-.77 4.57-1.14 6.85-.05.3-.16.38-.49.32-1-.19-2-.35-3-.51-.29 0-.36-.14-.32-.4.19-1 .35-2.08.54-3.11.05-.3 0-.41-.37-.46l-12.67-2.12c-.31-.05-.44 0-.48.3-.16 1-.35 2.05-.5 3.09 0 .3-.17.37-.5.31-1-.18-1.95-.33-2.93-.5-.43-.07-.43-.07-.36-.47q.62-3.74 1.25-7.47a6.55 6.55 0 0 1 3.37-4.67 11.55 11.55 0 0 1 7-1.39c1.85.16 3.67.57 5.51.87 1.55.24 3.1.51 4.65.77a1.91 1.91 0 0 1 1.59 1.37 1.24 1.24 0 0 1 0 .47l-1.14 6.79zm-10.67-1.14c2.11.35 4.22.7 6.33 1.07.32.05.44 0 .48-.29.3-1.81.6-3.63.91-5.44 0-.26 0-.37-.33-.42q-3-.48-6-1a11.11 11.11 0 0 0-3.77 0 4.85 4.85 0 0 0-3.81 2.54 7.49 7.49 0 0 0-.52 2c-.07.4-.07.41.4.48zM153 261.25l-7-1.17c-.49-.08-.49-.08-.42-.5.25-1.48.5-3 .74-4.45.05-.28.15-.39.49-.32.84.16 1.68.29 2.52.42.31.05.41.17.35.45-.12.58-.2 1.17-.31 1.76 0 .23 0 .33.31.38l7 1.15c1 .17 2 .36 3.06.54a4.41 4.41 0 0 0 .73.08 1.08 1.08 0 0 0 1.24-.95q.94-5.58 1.86-11.15c0-.3.15-.4.51-.33 1 .18 2 .35 3 .5.3.05.38.15.33.42-.64 3.78-1.26 7.55-1.9 11.33a3.93 3.93 0 0 1-3.34 2.92 7.76 7.76 0 0 1-2.76 0l-6.41-1.08z" transform="translate(-.98 -.52)"/><path class="bfe96638-679a-4a19-8b31-c657e4c62ae7" d="m264 273-6.33-1c-.34-.06-.41-.17-.36-.46q.47-2.68.9-5.37c0-.21.06-.39.4-.33 2.25.39 4.52.74 6.77 1.17a8.48 8.48 0 0 1 4 1.85 4.27 4.27 0 0 1 1.54 4.2c0 .26-.1.52-.12.78s-.16.33-.46.28zM180.58 259.08l-6.3-1.06c-.47-.07-.47-.08-.4-.48a7.49 7.49 0 0 1 .52-2 4.85 4.85 0 0 1 3.81-2.54 11.11 11.11 0 0 1 3.77 0q3 .51 6 1c.31.05.38.16.33.42-.31 1.81-.61 3.63-.91 5.44 0 .29-.16.34-.48.29-2.11-.37-4.22-.72-6.33-1.07z" transform="translate(-.98 -.52)"/></g><g id="a698d46f-de7c-433d-be69-b055d9705246" data-name="a66bc4ad-6801-4590-bb2c-28fe2e43bff6"><path d="m123.5 113.6 137 21.5-.12 14.29-136.65-21.56z" transform="translate(-.98 -.52)" style="fill:url(#e4b9fae2-2c65-4a7b-af31-687858852c59)"/><path class="f1455eed-df0e-4e6b-b71b-b7dd7b9027d2" d="M130.62 114.82c-.13-.51-.65-.75-1-1.13-1.56-1.82-2.79-3.67-2.81-6-.07-4.09-.24-8.2-.39-12.31 0-.94 0-1.84.9-2.3a.71.71 0 0 0 .28-1.07l-.06-.11c-1.51-2.16-1.37-4.37-1.48-6.56-.27-5.55-.14-11.09-.6-16.71-.32-4 3.29-7 7.64-6.34 6.59.93 13.19 1.77 19.79 2.94 5.26.94 9.61 4.31 9.14 10.11a10.22 10.22 0 0 0 0 1.24c0 .89.51 1.34 1.46 1.28a26.31 26.31 0 0 1 10 1.41c.46.15 1.07.43 1.34 0s-.16-.89-.46-1.31c-2.12-3-3.45-6.07-3.17-9.47.64-7.74 8.32-11.38 15.37-10.54a20.4 20.4 0 0 1 14.28 7.95c3.34 4.28 4.63 11.69.61 15.72-.33.32-.77.68-.42 1.28s.86.53 1.35.63c1.85.37 3.69.74 5.54 1.09s2.5 1.06 2.22 2.67a36.61 36.61 0 0 0-.22 4.93c0 .79.17 1.57 1.24 1.73s1.18-.62 1.15-1.4c-.19-5.14-.4-10.29-.59-15.45-.07-2.25.54-2.52 2.91-2.11 5.1.93 10.21 1.86 15.32 2.55 4.21.58 8.43 1.19 12.65 1.86 1.37.21 2.71.21 4.06.38s2.09 1 2 2.17c-.53 6-.18 12.09-.35 18.11-.05 1.92-.05 3.86-.06 5.79 0 1.62.45 2.07 2.13 2.09 3.56 0 4.46.87 4.46 4.15 0 6.63-.07 13.25-.1 19.85v2.31a5.5 5.5 0 0 1-3.49-.06 31.73 31.73 0 0 0-5.05-1c-4-.57-8-1.07-12-1.65s-8.15-1.23-12.23-1.92c-1.14-.18-2.28.19-3.39-.36-2.08-1.06-4.1-1.74-6.18-1a3.11 3.11 0 0 1-1.32-.13c-3.61-.57-7.22-1.13-10.83-1.92-2.16-.47-4.34-.5-6.51-.82-3.74-.56-7.49-1-11.22-1.84-4.84-1-9.67-1.53-14.5-2.46-2.69-.51-5.42-.49-8.06-1.82a2.14 2.14 0 0 0-1.42-.14c-1.5.45-3.08 0-4.64-.25-6.35-1-12.7-2-19-3a13.3 13.3 0 0 1-4.19-1.15zm4.4-.38 12.38 2.16c1.82.29 3.63.57 5.45.82s3.69.83 5.47.22a3.26 3.26 0 0 1 2.57.56 5.52 5.52 0 0 0 2 .68q8.64 1.44 17.28 2.92c5.17.88 10.35 1.76 15.53 2.43l1.78.26 2.38.35 3.58.64 4.46.78c2.1.46 4.17 1 6.1.08a2.89 2.89 0 0 1 3 .65 3.08 3.08 0 0 0 2.18.94l2.68.38 1.49.21c.24.06.49.13.74.17 9.33 1.47 18.67 2.52 28 4.23 1 .19 1.08-.24 1.1-1 .16-6.63-.3-13.37-.06-20 .06-2-.2-2.22-2.44-2.41-.35 0-.7-.09-1-.14-2.1-.33-3.09-1.4-3.07-3.35 0-1.52.15-3 .13-4.53q-.18-9.57.2-19.08c0-.79-.12-1-1-1.14-10.39-1.34-20.76-2.74-31.12-4.74-1.33-.26-1.58.1-1.53 1.25.25 5.17.4 10.3.57 15.44.05 1.69-1 2.49-2.64 2.23a3.07 3.07 0 0 1-2.8-3.12v-3.72c0-.14.05-.27.06-.4.12-2 .12-2-2-2.37a38.11 38.11 0 0 1-4.78-1c-2.05-.61-3.36-2.48-1.91-4a9 9 0 0 0 2.19-8.41 15 15 0 0 0-6.57-9.71c-5.73-3.87-11.27-4.15-16.76-2-4.43 1.77-7.54 8.24-4.66 13.49a24.91 24.91 0 0 0 1.9 3.26 2.49 2.49 0 0 1 .42 2.76c-.53 1-1.69.88-2.83.55-.94-.28-1.86-.63-2.8-.84a23.13 23.13 0 0 0-6.37-.57c-2.61.15-4-1.19-3.88-3.68a8.76 8.76 0 0 0 .05-2.46c-.83-3.58-3.81-6-8-6.65-6.21-.89-12.42-1.85-18.61-2.7-2.82-.39-5 .34-6.24 2.68-.59 1.17-.35 2.46-.33 3.74.2 5.54.37 11.06.55 16.57a8.27 8.27 0 0 0 1.16 4.37c.68 1.11.75 2.19-.35 2.88a1.44 1.44 0 0 0-.61 1.37c.16 4.3.23 8.58.49 12.87a6.59 6.59 0 0 0 5.94 5.91z" transform="translate(-.98 -.52)"/><path class="f1455eed-df0e-4e6b-b71b-b7dd7b9027d2" d="m216.52 122 .06-2.72a9.87 9.87 0 0 0 .12-3.56 45 45 0 0 0-.2-5.79c.08-5.16-.11-10.36-.26-15.58-.14-4.52-.3-9.06-.14-13.56 0-1.48.92-1.72 2.23-1.42a71.67 71.67 0 0 0 7.67 1.18c1.8.2 2.16.6 2.07 2.22-.58 10.34-.38 20.77-.26 31.14 0 2.1 0 4.19-.08 6.29a4.86 4.86 0 0 0 0 .54 2.89 2.89 0 0 0 2.23 2.55 1.74 1.74 0 0 0 2.13-1.87c.08-3.27.09-6.56.08-9.85q-.06-12.19-.18-24.45 0-2.07-.09-4.17c0-1 .48-1.41 1.51-1.26 2.85.41 5.72.85 8.58 1.29 1.35.21 1.65 1 1.62 2.09-.08 3.55-.47 7-.3 10.62.2 4.45.39 8.9.15 13.27-.07 1.26.72 1.85 1.94 2.05 1 .16 2 .23 3 .34s1.58.67 1.57 1.64q-.12 8.3-.23 16.56c0 .84-.41 1.26-1.34 1.09-1.91-.36-3.9-.2-5.59-1.75a1.73 1.73 0 0 0-1.84-.22 12.15 12.15 0 0 1-5.79.12L223.67 127c-2.25-.36-4.51-.67-6.2-2.67zM213 106.13a103 103 0 0 0 .4 12.64 9.84 9.84 0 0 1 0 2.17c-.54 3.32-1.43 3.93-5.18 3.37-2.86-.43-5.74-1-8.6-1.38-1.38-.22-1.95-.77-1.94-2.08q.08-11.3.06-22.68a52.31 52.31 0 0 0-.59-9.13c0-2.75 0-2.82 2.34-2.69a29.78 29.78 0 0 0 5.09.81 2.13 2.13 0 0 1 1.78 2.5c-.15 1.66-.22 3.34-.31 5a1.87 1.87 0 0 0 1.95 2.17c4.48.3 5.28 2.23 5.06 5.75-.1 1.17 0 2.36-.06 3.55zm-5.48 5.13a65.29 65.29 0 0 1 .11-7.54 2.62 2.62 0 0 0-2.07-2.75c-1.14-.17-1.9.58-1.92 2v5.35q0 4.38.07 8.75a2 2 0 0 0 1.08 2 1.83 1.83 0 0 0 2.06 0 2.07 2.07 0 0 0 .67-1.79c0-2.23.01-4.41.01-6.02zm-72.25 1.3c-3.17-1.32-3.87-2.23-3.9-5.32 0-2.68-.4-5.39-.64-8.09-.16-1.79 0-2 1.94-2l7.4 1.16a2 2 0 0 1 1.95 2.4c-.18 1.91-.3 3.83-.32 5.77s.88 3 2.27 3.12 1.9-.68 1.82-2.59a.57.57 0 0 0 0-.14 43.34 43.34 0 0 0-.1-6 16.88 16.88 0 0 0-.28-4.52 2.81 2.81 0 0 0-2-2.23 16.43 16.43 0 0 0-4-.48l-5-.73c-2.46-.84-3.24-1.73-3.64-4.23a41.19 41.19 0 0 0 0-5.77 16.76 16.76 0 0 0 0-5.24l-.08-1.38c-.07-2-.06-3.92-.22-5.89-.17-1.81.26-3.2 1.88-4 2.42-.37 4.94.57 7.4.75a17.55 17.55 0 0 0 3.58.37c2.69.71 5.38.69 8.08 1.22.82.16 1.66.28 2.49.42a5.36 5.36 0 0 1 3.55 4.27c.09.59.11 1.18.16 1.78q.09 4 .17 8c-.25 2.23-.25 2.24-2.8 1.85l-7.43-1.19c-2.12-.35-2.36-.6-2.24-2.49.09-1.49.3-3 .41-4.45a6.65 6.65 0 0 0 0-1.78 2.51 2.51 0 0 0-2.14-2.11 1.6 1.6 0 0 0-2 1.48 19.14 19.14 0 0 0 0 3q.15 4.06.35 8.15c.1 2.22.71 2.89 3.07 3.2 2.71.37 5.42.68 8.14 1s4.1 1.83 4.06 4.17c-.1 6.22-.24 12.42.19 18.7.13 1.84-1.19 2.83-3.22 2.72-2.41-.13-4.82-.88-7.22-1.15zM194.4 92c-.46 3.24.09 6.67 0 10s-.09 6.63-.1 9.95c0 .67.12 1.37.19 2.06-.18 2.3.39 4.68.39 7 0 1.63-.15 1.78-1.92 1.5-3.17-.5-6.35-1-9.49-1.49s-3.12-.44-3.33-3.23l.05-1.09a62.14 62.14 0 0 0 .27-8.43v-1.63a17.39 17.39 0 0 0 .21-4.09c0-.92 0-1.84-.05-2.75a8.27 8.27 0 0 0-.23-3.07 25.94 25.94 0 0 0 0-4.66c.19-2.16-.51-4.41-.49-6.6 0-2 0-2 2.2-1.76a24.75 24.75 0 0 0 3.86.73 8.57 8.57 0 0 0 3 .56 11.25 11.25 0 0 0 3 .35c2.81.49 3 .67 2.61 3.29a14.5 14.5 0 0 0-.17 3.36zm-17.16 17.92v1.91c0 1.54-.34 1.78-2 1.48-2.12-.4-4.24-.81-6.34-1.19a12.65 12.65 0 0 0-1.49-.19c-.91-.06-1.71.13-1.69 1.1s.84 1.45 1.73 1.64c1.33.27 2.67.44 4 .62a19.87 19.87 0 0 1 4.57 1 1.83 1.83 0 0 1 1.29 1.82 1.16 1.16 0 0 1-1.44 1.22 71.85 71.85 0 0 1-11.81-1.89 3.58 3.58 0 0 1-2.91-3.7q.13-7.14-.16-14.36c-.15-3.85-.21-7.7-.33-11.57a14.32 14.32 0 0 1 .33-3.08 4.07 4.07 0 0 1 3.01-3.49c2.83-.26 5.74.67 8.62 1 2.54 1 4 2.65 4.22 5.14.09 1 .23 2 .34 3 0 6.51-.34 12.94.1 19.49zm-6.36-12.36c0-2.32.1-4.63 0-7a2.35 2.35 0 0 0-2-2.46c-1.33-.13-1.71.66-1.72 1.74 0 4.51-.08 9-.07 13.51a2.31 2.31 0 0 0 2 2.54c1.19.15 1.83-.55 1.81-2v-6.28z" transform="translate(-.98 -.52)"/><path d="M177.79 65.84c2.42-3.37 5.9-4.84 10.72-3.91a16.88 16.88 0 0 1 5.49 2.54c.26.26.5.53.77.77 4.73 4.33 5.43 10.91 1.56 14.68a8.43 8.43 0 0 1-1.78 1.33c-2.91 1.62-6.2 1.56-9.74.35l-1.81-.87a16.15 16.15 0 0 1-4.82-4.92 10.13 10.13 0 0 1-.42-10z" transform="translate(-.98 -.52)" style="fill:#f2429f"/><path class="bde1ed0b-c163-4217-af0e-23edbf0ee1ad" d="M205.57 101c-1.17-.16-1.9.58-1.92 2v5.35q0 4.38.07 8.76a2 2 0 0 0 1.08 2 1.83 1.83 0 0 0 2.06 0 2.07 2.07 0 0 0 .67-1.79v-6a67.58 67.58 0 0 1 .11-7.54 2.62 2.62 0 0 0-2.07-2.78z" transform="translate(-.98 -.52)"/><path class="bde1ed0b-c163-4217-af0e-23edbf0ee1ad" d="M253.19 111.9c.07-2-.2-2.21-2.44-2.4l-1-.14c-2.09-.33-3.09-1.4-3.07-3.35 0-1.52.15-3 .13-4.54q-.17-9.56.2-19.07c0-.79-.12-1-1-1.14-10.39-1.34-20.76-2.74-31.12-4.74-1.33-.26-1.58.1-1.53 1.25.25 5.16.4 10.3.57 15.43 0 1.7-1 2.49-2.63 2.24a3.09 3.09 0 0 1-2.81-3.12V88.6c0-.14 0-.27.05-.41.12-2 .12-2-2-2.36a38.47 38.47 0 0 1-4.78-1c-2-.61-3.35-2.48-1.9-4a9 9 0 0 0 2.18-8.41 15 15 0 0 0-6.56-9.7c-5.73-3.87-11.27-4.15-16.76-2-4.43 1.77-7.54 8.24-4.66 13.49a24.91 24.91 0 0 0 1.9 3.26 2.49 2.49 0 0 1 .42 2.76c-.53 1-1.69.88-2.83.55-.94-.28-1.86-.63-2.8-.84a23.13 23.13 0 0 0-6.37-.57c-2.61.15-4-1.19-3.88-3.68a8.76 8.76 0 0 0 .05-2.46c-.83-3.58-3.81-6-8-6.65-6.21-.89-12.42-1.85-18.61-2.7-2.82-.39-5 .34-6.24 2.68-.59 1.17-.35 2.46-.33 3.74.2 5.54.37 11.06.55 16.57a8.27 8.27 0 0 0 1.16 4.37c.68 1.11.75 2.19-.35 2.88a1.44 1.44 0 0 0-.61 1.37c.16 4.3.23 8.58.49 12.87a6.59 6.59 0 0 0 5.94 5.91l.61.09 12.38 2.17c1.82.28 3.63.57 5.45.81s3.69.83 5.47.22a3.3 3.3 0 0 1 2.57.56 5.16 5.16 0 0 0 2 .68q8.63 1.44 17.27 2.92c5.18.88 10.35 1.77 15.53 2.44l1.78.25 2.38.35 3.58.65 4.47.78c2.1.45 4.16 1 6.09.07a2.87 2.87 0 0 1 3 .66 3.11 3.11 0 0 0 2.18.93l2.68.38 1.49.22c.25.05.49.13.74.16 9.33 1.47 18.68 2.52 28 4.23 1 .19 1.09-.24 1.1-1 .16-6.62-.29-13.36-.06-20zm-98.27-26.82q-3.72-.57-7.42-1.19c-2.12-.35-2.37-.6-2.25-2.48.09-1.49.3-3 .41-4.45a6.74 6.74 0 0 0 0-1.79 2.48 2.48 0 0 0-2.14-2.1 1.6 1.6 0 0 0-2 1.48 19 19 0 0 0 0 3c.09 2.72.22 5.43.34 8.16.1 2.22.71 2.88 3.07 3.2 2.71.37 5.42.68 8.14 1s4.1 1.83 4.06 4.16c-.1 6.23-.24 12.43.19 18.71.13 1.84-1.19 2.82-3.22 2.71-2.4-.12-4.81-.87-7.22-1.15l-11.51-1.84c-3.17-1.33-3.86-2.23-3.89-5.32 0-2.68-.41-5.39-.65-8.09-.16-1.8 0-2 1.94-2l7.4 1.15a2 2 0 0 1 1.95 2.4c-.17 1.91-.29 3.84-.32 5.78s.88 3 2.27 3.11 1.91-.67 1.82-2.59v-.13a43.47 43.47 0 0 0-.11-6 17.24 17.24 0 0 0-.27-4.51 2.82 2.82 0 0 0-2-2.23 15.81 15.81 0 0 0-3.95-.48l-5-.73c-2.47-.84-3.24-1.73-3.65-4.23a38.34 38.34 0 0 0 0-5.77 16.82 16.82 0 0 0 0-5.25l-.09-1.37c-.06-2-.06-3.92-.22-5.9-.17-1.8.26-3.19 1.88-4 2.42-.37 4.94.57 7.41.74a16.72 16.72 0 0 0 3.57.37c2.7.72 5.39.7 8.08 1.22.83.16 1.66.29 2.5.42l.28-.08-.28.08a5.39 5.39 0 0 1 3.55 4.28c.08.59.1 1.18.15 1.77l.18 8c-.25 2.25-.25 2.26-2.8 1.87zm21 34.2a70.81 70.81 0 0 1-11.81-1.89 3.58 3.58 0 0 1-2.91-3.7q.12-7.14-.16-14.36c-.16-3.85-.22-7.7-.33-11.56a13.18 13.18 0 0 1 .33-3.09 4.07 4.07 0 0 1 2.96-3.43c2.84-.26 5.75.67 8.62 1 2.54 1 4 2.65 4.23 5.14.09 1 .22 2 .34 3 0 6.51-.34 13 .13 19.49v1.91c0 1.54-.34 1.78-2 1.48-2.12-.4-4.24-.81-6.34-1.19a12.65 12.65 0 0 0-1.49-.19c-.91-.06-1.71.13-1.69 1.1s.84 1.45 1.73 1.64c1.33.27 2.67.44 4 .62a19.87 19.87 0 0 1 4.57 1 1.83 1.83 0 0 1 1.29 1.82 1.22 1.22 0 0 1-1.49 1.22zm17.08 3.16c-3.17-.5-6.34-1-9.49-1.49s-3.12-.44-3.33-3.23v-1.09c.43-2.74 0-8.45.27-8.43v-1.63a16.87 16.87 0 0 0 .21-4.09l-.05-2.75a8.27 8.27 0 0 0-.23-3.07 25.94 25.94 0 0 0 0-4.66c.19-2.16-.51-4.41-.49-6.6 0-2 0-2.05 2.2-1.76a24.75 24.75 0 0 0 3.86.73.75.75 0 0 0 0-.21.75.75 0 0 1 0 .21 8.57 8.57 0 0 0 3 .56 11.25 11.25 0 0 0 3 .35c.05-.1.12-.21.18-.31-.06.1-.13.21-.18.31 2.82.49 3 .67 2.61 3.29a14.61 14.61 0 0 0-.16 3.43c-.47 3.25.09 6.68 0 10s-.1 6.63-.1 9.94a20.48 20.48 0 0 0 .19 2.06c-.18 2.31.38 4.68.38 7 0 1.61-.14 1.76-1.91 1.48zm1.59-41.19c-2.92 1.63-6.21 1.56-9.75.35l-1.84-.87a16.15 16.15 0 0 1-4.82-4.92 10.08 10.08 0 0 1-.43-10c2.43-3.37 5.9-4.84 10.72-3.91a16.83 16.83 0 0 1 5.53 2.57c.25.26.5.53.77.77 4.73 4.33 5.42 10.9 1.56 14.68a8.43 8.43 0 0 1-1.78 1.33zm18.84 39.69c-.54 3.32-1.43 3.93-5.18 3.37-2.86-.43-5.73-1-8.6-1.38-1.37-.22-2-.78-1.94-2.08q.07-11.31.06-22.68a52.25 52.25 0 0 0-.59-9.13c0-2.75 0-2.83 2.34-2.69a29.94 29.94 0 0 0 5.09.81 2.12 2.12 0 0 1 1.78 2.5c-.15 1.66-.22 3.34-.31 5a1.87 1.87 0 0 0 1.92 2.17c4.48.3 5.28 2.23 5.06 5.75-.07 1.17 0 2.37 0 3.55a103 103 0 0 0 .4 12.64 9.81 9.81 0 0 1 0 2.17zm36.33 8.62c0 .84-.41 1.26-1.35 1.09-1.9-.36-3.9-.2-5.59-1.75a1.71 1.71 0 0 0-1.83-.22 12.19 12.19 0 0 1-5.8.12l-11.51-1.8c-2.24-.36-4.51-.67-6.2-2.67l-1-2.31c0-.9 0-1.81.07-2.71a9.7 9.7 0 0 0 .11-3.57 43.11 43.11 0 0 0-.19-5.78c.08-5.16-.11-10.37-.27-15.58-.13-4.53-.29-9.07-.14-13.57.05-1.47.92-1.71 2.23-1.41a74.87 74.87 0 0 0 7.71 1.16c1.8.2 2.15.61 2.06 2.23-.57 10.34-.37 20.76-.25 31.14 0 2.1-.05 4.19-.08 6.28a5 5 0 0 0 0 .55 2.92 2.92 0 0 0 2.23 2.55 1.74 1.74 0 0 0 2.13-1.87c.08-3.27.09-6.56.08-9.86q-.07-12.18-.18-24.44c0-1.39 0-2.78-.1-4.17 0-1 .49-1.42 1.51-1.26 2.86.41 5.72.85 8.58 1.28 1.35.21 1.66 1 1.63 2.09-.08 3.55-.47 7-.31 10.63a127.93 127.93 0 0 1 .15 13.27c-.06 1.25.73 1.85 1.94 2 1 .15 2 .23 3 .34a1.51 1.51 0 0 1 1.56 1.64q-.13 8.26-.23 16.54z" transform="translate(-.98 -.52)"/><path class="bde1ed0b-c163-4217-af0e-23edbf0ee1ad" d="M169.13 105.85c1.23.15 1.83-.55 1.81-2l-.05-6.29c0-2.32.1-4.63 0-7a2.34 2.34 0 0 0-2-2.46c-1.32-.13-1.7.66-1.71 1.73 0 4.52-.08 9-.08 13.52a2.34 2.34 0 0 0 2 2.55z" transform="translate(-.98 -.52)"/><path class="a65b61ef-5725-4851-af5b-b03ff010490b" d="m145.81 119.06 1.49.23.06 5.33c.29-.35.59-.7.89-1l3.48-3.59 1.85.29-4.12 4 4.56 7.05-1.76-.28-3.85-6-1.08 1 .05 4.2-1.48-.23zm11.39 9.34-1.14 3.28-1.54-.24 3.8-10.42 1.8.29 4 11.65-1.57-.25-1.27-3.66zm3.77-.51-1.16-3.36c-.26-.76-.44-1.44-.62-2.11-.17.63-.34 1.27-.56 1.9l-1.1 3zm6.26-5.47.1 11-1.49-.23-.1-11zm4.11.65v4.62l5.6.89v-4.63l1.51.24.07 11L177 135v-5.17l-5.59-.88v5.17l-1.49-.24-.09-11zm11.66 9.39-1.17 3.28-1.55-.24 3.87-10.42 1.81.28 4 11.66-1.58-.25-1.25-3.66zm3.79-.51-1.16-3.36c-.26-.77-.43-1.45-.61-2.11-.17.63-.35 1.27-.57 1.91l-1.12 3zm5.69-4.35-3.52-.56v-1.21l8.59 1.35v1.21l-3.54-.56v9.83l-1.51-.24zm6.06 9a6.31 6.31 0 0 0 2.68 1.15c1.54.25 2.43-.38 2.43-1.5s-.63-1.71-2.19-2.52c-1.9-.94-3.07-2.06-3.07-3.62 0-1.72 1.49-2.77 3.74-2.41a6.31 6.31 0 0 1 2.57.94l-.4 1.11a5.22 5.22 0 0 0-2.2-.87c-1.59-.25-2.18.56-2.18 1.31 0 1 .71 1.65 2.31 2.5 2 1 3 2.08 3 3.7s-1.31 3-4 2.54a7.14 7.14 0 0 1-3-1.17zm10.18-7.71v6.57c0 2.47 1.16 3.7 2.71 3.94 1.72.27 2.82-.64 2.82-3.07v-6.53l1.52.24v6.45c0 3.39-1.88 4.49-4.39 4.09s-4.17-2-4.17-5.38v-6.5zm14.81 2.33v11.06l-1.5-.24L222 131zm2.6 11.47v-11.06l1.65.26 3.71 6.19a37.84 37.84 0 0 1 2.08 3.92c-.13-1.49-.16-2.85-.15-4.57v-4.65l1.42.23v11.06l-1.5-.24-3.68-6.19a41.18 41.18 0 0 1-2.16-4h-.05c.08 1.4.11 2.74.11 4.58v4.73zm19.48 2.71a7.37 7.37 0 0 1-3.07 0 6.37 6.37 0 0 1-5.73-6.49c0-3.47 2.5-5.43 6.12-4.86a7.27 7.27 0 0 1 2.77.93l-.38 1.11a6.15 6.15 0 0 0-2.34-.83c-2.74-.43-4.56.94-4.58 3.85a4.94 4.94 0 0 0 4.45 5.15 6.14 6.14 0 0 0 2.46-.07zm1.47-.26a.83.83 0 0 1 1-.87h.08a1.28 1.28 0 0 1 1 1.3.92.92 0 0 1-1 .76 1.21 1.21 0 0 1-1-1.14v-.06z" transform="translate(-.98 -.52)"/></g></svg>