<svg id="acbf5ca5-d8d5-4d14-8f5b-f215aaf5b5ad" data-name="bae51f9f-9ab5-4723-91c1-5de94dc4635e" xmlns="http://www.w3.org/2000/svg" xmlns:xlink="http://www.w3.org/1999/xlink" viewBox="0 0 87.6 88.6"><defs><style>.a8300fe0-a409-4462-8996-6d1c09dc0a36,.f9a4b25c-21e7-44ef-a5be-a44ca9d27424{fill:#211c1d;}.e858ee7b-cdea-4bb0-9f10-589378886149{opacity:0.1;}.af101f91-98f0-44fe-99a5-a8ad22ebfc22{fill:#808094;}.e5105b57-32ae-4c45-a4f3-042263fbb838{fill:#6d6e6f;}.b3068203-651e-4279-b812-31f1a85042ab{fill:url(#a73062dc-b4e8-4b42-a93e-07c20527b472);}.a8300fe0-a409-4462-8996-6d1c09dc0a36{opacity:0.3;}.a8300fe0-a409-4462-8996-6d1c09dc0a36,.b2c13f28-9686-49ac-9b27-5e9980114c6b,.f230ba58-5b65-4bac-a31e-c9ebe6ef20fe{isolation:isolate;}.b2c13f28-9686-49ac-9b27-5e9980114c6b{opacity:0.15;fill:url(#a8d2cf91-b91c-4323-a0d6-f5c6d59c19cc);}.f230ba58-5b65-4bac-a31e-c9ebe6ef20fe{opacity:0.4;fill:url(#ba8dfa2e-fe2b-4cc7-bdde-15e6c4a58283);}.b0e0a809-b1e0-47a6-8bc1-112ee99744af{fill:#2748a0;}</style><linearGradient id="a73062dc-b4e8-4b42-a93e-07c20527b472" x1="-747.89" y1="2455.81" x2="-768.82" y2="2434.88" gradientTransform="translate(802.18 -2401.52)" gradientUnits="userSpaceOnUse"><stop offset="0" stop-color="#a4a5a9"/><stop offset="1" stop-color="#e6e6e7"/></linearGradient><linearGradient id="a8d2cf91-b91c-4323-a0d6-f5c6d59c19cc" x1="-768.76" y1="2455.8" x2="-747.88" y2="2434.93" gradientTransform="translate(802.18 -2401.52)" gradientUnits="userSpaceOnUse"><stop offset="0" stop-color="#211c1d" stop-opacity="0"/><stop offset="0.04" stop-color="#211c1d" stop-opacity="0.09"/><stop offset="0.5" stop-color="#211c1d"/><stop offset="0.95" stop-color="#211c1d" stop-opacity="0.09"/><stop offset="1" stop-color="#211c1d" stop-opacity="0"/></linearGradient><linearGradient id="ba8dfa2e-fe2b-4cc7-bdde-15e6c4a58283" x1="-5886.68" y1="-3866.42" x2="-5865.8" y2="-3887.31" gradientTransform="translate(-5832.48 -3833.03) rotate(180)" gradientUnits="userSpaceOnUse"><stop offset="0" stop-color="#fff" stop-opacity="0"/><stop offset="0.5" stop-color="#fff"/><stop offset="1" stop-color="#fff" stop-opacity="0"/></linearGradient></defs><circle class="f9a4b25c-21e7-44ef-a5be-a44ca9d27424" cx="43.8" cy="43.8" r="43.8"/><g class="e858ee7b-cdea-4bb0-9f10-589378886149"><path class="af101f91-98f0-44fe-99a5-a8ad22ebfc22" d="M84.4,43.8l-8.6-8.9v4.3H66v9.1h9.8v4.3ZM72.5,15.1l-12.4-.2L63.2,18l-7,7,6.4,6.4,7-7,3.1,3.1ZM43.8,3.2l-8.9,8.6h4.3v9.8h9.1V11.8h4.3ZM15.1,15.1l-.2,12.4L18,24.4l7,7L31.4,25l-7-7,3.1-3.1ZM3.2,43.8l8.6,8.9V48.4h9.8V39.3H11.8V35ZM15.1,72.5l12.4.2-3.1-3.1,7-7L25,56.2l-7,7-3.1-3.1ZM43.8,84.4l8.9-8.6H48.4V66H39.3v9.8H35ZM72.5,72.5l.2-12.4-3.1,3.1-7-7-6.4,6.4,7,7-3.1,3.1Z" transform="translate(0 0)"/></g><path class="e5105b57-32ae-4c45-a4f3-042263fbb838" d="M87.6,44.3A43.81,43.81,0,0,1,0,44.3v.5a43.8,43.8,0,0,0,87.6,0Z" transform="translate(0 0)"/><circle class="b3068203-651e-4279-b812-31f1a85042ab" cx="43.8" cy="43.8" r="14.8"/><circle class="a8300fe0-a409-4462-8996-6d1c09dc0a36" cx="43.8" cy="43.8" r="11.8"/><path class="b2c13f28-9686-49ac-9b27-5e9980114c6b" d="M43.8,29.1A14.75,14.75,0,1,0,58.6,43.9,14.75,14.75,0,0,0,43.8,29.1Zm-.2,28.7A14.15,14.15,0,1,1,57.8,43.7,14.16,14.16,0,0,1,43.6,57.8Z" transform="translate(0 0)"/><path class="f230ba58-5b65-4bac-a31e-c9ebe6ef20fe" d="M43.8,58.6A14.75,14.75,0,1,0,29,43.9,14.75,14.75,0,0,0,43.8,58.6ZM44,29.9a14.1,14.1,0,0,1,0,28.2h0A14,14,0,0,1,29.9,44.2h0V44h0A14.08,14.08,0,0,1,44,29.9Z" transform="translate(0 0)"/><circle class="b0e0a809-b1e0-47a6-8bc1-112ee99744af" cx="43.6" cy="32.8" r="20.5"/></svg>