<svg id="ecc0fce0-0362-4ed5-9804-f04b253110b4" data-name="bae51f9f-9ab5-4723-91c1-5de94dc4635e" xmlns="http://www.w3.org/2000/svg" xmlns:xlink="http://www.w3.org/1999/xlink" viewBox="0 0 87.6 88.6"><defs><style>.a90b72df-c1ff-4be8-96ff-8b4892abbf6a,.eaca8658-1061-43b3-ac65-9ea64c3b0dc6{fill:#211c1d;}.b69dee44-c2b7-4bc4-98ad-41786dd89016{opacity:0.1;}.e7f41cd4-f746-407c-84fe-636b63e154da{fill:#808094;}.a3633d85-4ae1-41d7-a175-3aa45161b721{fill:#6d6e6f;}.aeb74d25-6557-47b8-96d0-6cf876dcf487{fill:url(#bc3d06bf-396a-4e97-828a-33d21c64d8fa);}.eaca8658-1061-43b3-ac65-9ea64c3b0dc6{opacity:0.3;}.b141db42-b7bc-423b-8d5e-8c5eaff93596,.eaca8658-1061-43b3-ac65-9ea64c3b0dc6,.f9182e9c-24c5-45c7-b03c-6b1777c87089{isolation:isolate;}.b141db42-b7bc-423b-8d5e-8c5eaff93596{opacity:0.15;fill:url(#bddbb8c8-fcfc-4257-8a97-b4ec499a9864);}.f9182e9c-24c5-45c7-b03c-6b1777c87089{opacity:0.4;fill:url(#b4c82ed3-2549-47fb-9f20-cbf70b2668ab);}.aa4c2ecf-6176-47c1-a755-fec5739c106f{fill:#f2429f;}</style><linearGradient id="bc3d06bf-396a-4e97-828a-33d21c64d8fa" x1="-747.89" y1="2455.81" x2="-768.82" y2="2434.88" gradientTransform="translate(802.18 -2401.52)" gradientUnits="userSpaceOnUse"><stop offset="0" stop-color="#a4a5a9"/><stop offset="1" stop-color="#e6e6e7"/></linearGradient><linearGradient id="bddbb8c8-fcfc-4257-8a97-b4ec499a9864" x1="-768.76" y1="2455.8" x2="-747.88" y2="2434.93" gradientTransform="translate(802.18 -2401.52)" gradientUnits="userSpaceOnUse"><stop offset="0" stop-color="#211c1d" stop-opacity="0"/><stop offset="0.04" stop-color="#211c1d" stop-opacity="0.09"/><stop offset="0.5" stop-color="#211c1d"/><stop offset="0.95" stop-color="#211c1d" stop-opacity="0.09"/><stop offset="1" stop-color="#211c1d" stop-opacity="0"/></linearGradient><linearGradient id="b4c82ed3-2549-47fb-9f20-cbf70b2668ab" x1="-5886.68" y1="-3866.42" x2="-5865.8" y2="-3887.31" gradientTransform="translate(-5832.48 -3833.03) rotate(180)" gradientUnits="userSpaceOnUse"><stop offset="0" stop-color="#fff" stop-opacity="0"/><stop offset="0.5" stop-color="#fff"/><stop offset="1" stop-color="#fff" stop-opacity="0"/></linearGradient></defs><circle class="a90b72df-c1ff-4be8-96ff-8b4892abbf6a" cx="43.8" cy="43.8" r="43.8"/><g class="b69dee44-c2b7-4bc4-98ad-41786dd89016"><path class="e7f41cd4-f746-407c-84fe-636b63e154da" d="M84.4,43.8l-8.6-8.9v4.3H66v9.1h9.8v4.3ZM72.5,15.1l-12.4-.2L63.2,18l-7,7,6.4,6.4,7-7,3.1,3.1ZM43.8,3.2l-8.9,8.6h4.3v9.8h9.1V11.8h4.3ZM15.1,15.1l-.2,12.4L18,24.4l7,7L31.4,25l-7-7,3.1-3.1ZM3.2,43.8l8.6,8.9V48.4h9.8V39.3H11.8V35ZM15.1,72.5l12.4.2-3.1-3.1,7-7L25,56.2l-7,7-3.1-3.1ZM43.8,84.4l8.9-8.6H48.4V66H39.3v9.8H35ZM72.5,72.5l.2-12.4-3.1,3.1-7-7-6.4,6.4,7,7-3.1,3.1Z" transform="translate(0 0)"/></g><path class="a3633d85-4ae1-41d7-a175-3aa45161b721" d="M87.6,44.3A43.81,43.81,0,0,1,0,44.3v.5a43.8,43.8,0,0,0,87.6,0Z" transform="translate(0 0)"/><circle class="aeb74d25-6557-47b8-96d0-6cf876dcf487" cx="43.8" cy="43.8" r="14.8"/><circle class="eaca8658-1061-43b3-ac65-9ea64c3b0dc6" cx="43.8" cy="43.8" r="11.8"/><path class="b141db42-b7bc-423b-8d5e-8c5eaff93596" d="M43.8,29.1A14.75,14.75,0,1,0,58.6,43.9,14.75,14.75,0,0,0,43.8,29.1Zm-.2,28.7A14.15,14.15,0,1,1,57.8,43.7,14.16,14.16,0,0,1,43.6,57.8Z" transform="translate(0 0)"/><path class="f9182e9c-24c5-45c7-b03c-6b1777c87089" d="M43.8,58.6A14.75,14.75,0,1,0,29,43.9,14.75,14.75,0,0,0,43.8,58.6ZM44,29.9a14.1,14.1,0,0,1,0,28.2h0A14,14,0,0,1,29.9,44.2h0V44h0A14.08,14.08,0,0,1,44,29.9Z" transform="translate(0 0)"/><circle class="aa4c2ecf-6176-47c1-a755-fec5739c106f" cx="43.6" cy="32.8" r="20.5"/></svg>