<svg xmlns="http://www.w3.org/2000/svg" xmlns:xlink="http://www.w3.org/1999/xlink" viewBox="0 0 470.58 67.66"><defs><style>.e9f23e11-f729-437f-9a78-cf10c75c8cab{stroke:#9def48;stroke-miterlimit:10;fill:url(#b59ef154-3d77-48a6-a59b-1deb2e206be9);}.aab6148a-8899-4a2b-a00a-103d090c9ee3{fill:#9def48;}.f9ff299f-a403-4f29-a015-0941d76b7b2d{fill:url(#bb84e194-4995-42a4-8f01-987037a1b033);}.bb7eb468-68e4-4f51-8cb0-e5e2a4c42a40{fill:#2748a0;}.e5a591ae-4439-486f-9e62-f6643a2d7d26{fill:#f2429f;}.bd1c78c8-555e-44b2-9d75-22865b4ccca7{fill:#f7f8fb;}.fd871ecf-aa8a-441a-ad96-6f47af3698b6{fill:#fff;}</style><linearGradient id="b59ef154-3d77-48a6-a59b-1deb2e206be9" x1="0.5" y1="33.83" x2="470.08" y2="33.83" gradientUnits="userSpaceOnUse"><stop offset="0" stop-color="#032c02"/><stop offset="1" stop-color="#207a09"/></linearGradient><linearGradient id="bb84e194-4995-42a4-8f01-987037a1b033" x1="92.43" y1="-13.21" x2="92.43" y2="-19.65" gradientTransform="matrix(0, -1, -1, 0, 23.43, 129.27)" gradientUnits="userSpaceOnUse"><stop offset="0" stop-color="#16104e"/><stop offset="1" stop-color="#233f9c"/></linearGradient></defs><g id="bfed1c34-d38d-4f43-809f-814167ae5fe7" data-name="texte"><polygon class="e9f23e11-f729-437f-9a78-cf10c75c8cab" points="0.5 6.04 102.57 6.04 108.7 0.5 150.44 0.5 158.35 6.04 461.77 6.24 470.08 16.13 470.08 59.84 50.94 59.84 42.83 67.16 8.02 67.16 0.5 59.84 0.5 6.04"/><path class="aab6148a-8899-4a2b-a00a-103d090c9ee3" d="M83.39,30.44l1.85,2A18.17,18.17,0,0,1,81,44.73H56.87a17.11,17.11,0,0,1-3.67-7.3h4.37a18.67,18.67,0,0,0,1.49,3.23H78.85A17.23,17.23,0,0,0,81,34.49H54.49l-1.84-2a18.25,18.25,0,0,1,4.22-12.26H81a17.11,17.11,0,0,1,3.67,7.3H80.32a18.89,18.89,0,0,0-1.47-3.23H59.06a17.33,17.33,0,0,0-2.21,6.15Z"/><path class="aab6148a-8899-4a2b-a00a-103d090c9ee3" d="M113.54,34.49H96.62a17.49,17.49,0,0,0,2.21,6.17H119l2.34,4.07H96.64A17.59,17.59,0,0,1,92.5,34.49H88.66V30.44H92.5a17.53,17.53,0,0,1,4.14-10.22H121.3L119,24.29H98.83a17.33,17.33,0,0,0-2.21,6.15h16.92Z"/><path class="aab6148a-8899-4a2b-a00a-103d090c9ee3" d="M130.49,44.73h-4.06v-21l4.06-4.06Z"/><path class="aab6148a-8899-4a2b-a00a-103d090c9ee3" d="M171.89,34.49a17.72,17.72,0,0,1-4.14,10.24H143.6a17.65,17.65,0,0,1-4.13-10.24h-3.85V30.44h3.85a17.59,17.59,0,0,1,4.13-10.22h24.15a17.69,17.69,0,0,1,4.14,10.24l-1.77,1V33.5Zm-28.31-4.05h24.19a17.67,17.67,0,0,0-2.19-6.15H145.79A17.52,17.52,0,0,0,143.58,30.44Zm0,4.05a17.69,17.69,0,0,0,2.21,6.17h19.79a17.83,17.83,0,0,0,2.19-6.17Z"/><path class="aab6148a-8899-4a2b-a00a-103d090c9ee3" d="M181.71,40.66H201.5a16.41,16.41,0,0,0,2.33-8.18,16.5,16.5,0,0,0-2.33-8.19h-2.72V20.22h4.89a18.2,18.2,0,0,1,4.22,12.26,18.12,18.12,0,0,1-4.22,12.25H179.52a18.17,18.17,0,0,1-4.22-12.25,18.25,18.25,0,0,1,4.22-12.26h4.89v4.07h-2.7a16.41,16.41,0,0,0-2.34,8.19A16.32,16.32,0,0,0,181.71,40.66Z"/></g><g id="a502350c-0990-483e-b2fc-44c66b693d19" data-name="seibu"><path class="f9ff299f-a403-4f29-a015-0941d76b7b2d" d="M36.65,65.19V8.5h6.43V65.19Z"/><path class="bb7eb468-68e4-4f51-8cb0-e5e2a4c42a40" d="M36.7,62.22c-.23.05-.3.27-.44.4a3.67,3.67,0,0,1-2.49,1.14c-1.84,0-3.68,0-5.52.08a1.16,1.16,0,0,1-1.09-.39.37.37,0,0,0-.5-.13l0,0a4.85,4.85,0,0,1-2.84.57c-2.46.08-4.94,0-7.41.14A3.24,3.24,0,0,1,13,60.86c0-2.73-.12-5.45,0-8.17.06-2.16,1.25-3.94,3.86-3.73a3.37,3.37,0,0,0,.55,0c.39,0,.56-.2.47-.6a9.59,9.59,0,0,1-.06-4.13c0-.19.12-.44-.1-.55s-.39.06-.55.18a5.7,5.7,0,0,1-4,1.28,6.51,6.51,0,0,1-5.69-6.33A6.82,6.82,0,0,1,10,33c1.66-1.36,4.84-1.89,6.9-.24.16.14.35.32.6.18s.17-.36.18-.56c0-.75.08-1.51.11-2.27s.3-1,1-.91a17.82,17.82,0,0,0,2.2.1c.35,0,.69-.07.68-.51s-.35-.49-.7-.48c-2.27.08-4.53.17-6.8.24-1,0-1.15-.22-1.12-1.18.06-2.09.12-4.18.08-6.26,0-1.72,0-3.44,0-5.16,0-.56-.09-1.1-.11-1.65a.7.7,0,0,1,.83-.81c2.67.2,5.34,0,8,.09.86,0,1.72,0,2.57,0s.89-.19.79-.88c-.23-1.45.07-1.82,1.53-1.83l8.87,0h1a2.09,2.09,0,0,1,.22,1.43,12.07,12.07,0,0,0-.09,2.08c0,1.64.09,3.3.11,5s0,3.35,0,5c0,.47.25.94.08,1.39a2.77,2.77,0,0,0,0,2.55,1.25,1.25,0,0,1,0,.55c0,1.49,0,3-.1,4.48-.06.89.08,1.79.09,2.69,0,1.55.07,3.1,0,4.65-.13,2,0,4-.08,6A10.22,10.22,0,0,1,36.67,50a.86.86,0,0,0,0,.59,4.1,4.1,0,0,1,.22,1.93c0,2.64,0,5.28,0,7.93a4.87,4.87,0,0,1-.22,1.74Zm-.49-1.84.1-5.16c0-.75,0-1.5,0-2.26A4.59,4.59,0,0,0,36,50.68a1.17,1.17,0,0,1,.07-1.07,1.81,1.81,0,0,0,.16-.83l.09-7.16c0-2.15.07-4.29,0-6.43V33.47l0-1.48,0-1.85a3.77,3.77,0,0,0-.4-2.52,1.05,1.05,0,0,1,.08-1.25,1.06,1.06,0,0,0,.27-.9l0-1.11v-.61c0-.1,0-.2,0-.3,0-3.85-.18-7.69-.07-11.54,0-.42-.19-.44-.52-.45-3,0-6,.17-8.94.09-.9,0-1,.09-.9,1,0,.14,0,.29,0,.43a1.1,1.1,0,0,1-1.28,1.26c-.67,0-1.34-.05-2,0-2.81.06-5.63.05-8.44,0-.35,0-.45.05-.44.42.12,4.23.2,8.46,0,12.7,0,.54.15.64.66.62,2.27-.1,4.53-.16,6.8-.23a1,1,0,0,1,1.17,1.08,1.09,1.09,0,0,1-1.19,1.15H19.53l-.18,0c-.9,0-.89,0-.9.84a14.22,14.22,0,0,1-.1,2c-.13.84-.87,1.38-1.66.78a4.66,4.66,0,0,0-3.86-.9A5.33,5.33,0,0,0,9,35.25a6.42,6.42,0,0,0,.27,6.86c1.08,1.82,4.15,3.12,6.28,2a9.56,9.56,0,0,0,1.31-.77,1.12,1.12,0,0,1,1.2-.17c.47.22.5.7.43,1.17s-.15.77-.18,1.15a8.61,8.61,0,0,0,.19,2.63c.24,1.08-.26,1.63-1.37,1.59a4,4,0,0,0-1.1,0,3,3,0,0,0-2.4,3.28c0,2.56,0,5.12.07,7.68a2.68,2.68,0,0,0,1.62,2.6,3.72,3.72,0,0,0,1.68.16l7.36-.12a3.56,3.56,0,0,0,1.88-.45.92.92,0,0,1,1.31.16.8.8,0,0,0,.66.27c1.92,0,3.84-.05,5.76-.13a2.28,2.28,0,0,0,2.24-2.44Z"/><path class="bb7eb468-68e4-4f51-8cb0-e5e2a4c42a40" d="M33.88,26.59l-1.22,0a5.06,5.06,0,0,0-1.6,0,22.25,22.25,0,0,0-2.58.09c-2.3,0-4.61,0-6.92.11-2,.06-4,.12-6,.06-.66,0-.82-.38-.78-.91a27.24,27.24,0,0,0,0-3.13c0-.73.12-.88.84-.85,4.62.23,9.23.13,13.85.07.93,0,1.87,0,2.81,0h.25a1,1,0,0,0,1-.92.88.88,0,0,0-1-.87c-1.47,0-2.94,0-4.41,0-3.62,0-7.23.06-10.84.11-.62,0-1.23,0-1.84,0-.45,0-.66-.19-.66-.61,0-1.17,0-2.34,0-3.5,0-.55.33-.68.81-.67,1.57,0,3.14.17,4.72.1,1.95-.09,3.91-.18,5.88-.09.56,0,.77-.3.77-.8s0-.82-.05-1.23.19-.64.62-.64l7.41,0c.37,0,.59.16.58.54,0,.79.19,1.61-.39,2.3a.65.65,0,0,0,0,.76,4.9,4.9,0,0,1,.46,2.38v4.73a3.05,3.05,0,0,1-.76,2.55ZM27,28a50.17,50.17,0,0,0,5.62-.16,5.35,5.35,0,0,1,1,0c1.53.22,1.86.59,1.88,2.13,0,1.19,0,2.37,0,3.56,0,.57-.21.81-.8.8-3.38,0-6.77,0-10.15,0a24.58,24.58,0,0,0-4,.23c-1.22,0-1.26,0-1.35-1a12.16,12.16,0,0,0,0-2.09c.07-.59.42-.78,1-.73.75.06,1.5.09,2.25.13.56,0,.88-.24.83-.8-.18-1.84.62-2.17,2.21-2.08.52,0,1.05,0,1.58,0Zm2.67,2.26a31.58,31.58,0,0,1-3.37-.05,1,1,0,0,0-1.08.85c0,.47.39.79,1,.79.8,0,1.59,0,2.39,0l3.91,0a.76.76,0,0,0,.8-.44.75.75,0,0,0-.16-.86,1.13,1.13,0,0,0-.85-.27Zm5.67,30c-.38,1.32-.74,1.6-2.13,1.6-1.2,0-2.4.13-3.59.21-.8.06-.9,0-1-.82V58.18c0-.63.33-.86.94-.8.87.08,1.75.14,2.62.17s1.28-.35,1.24-.93-.43-.8-1.29-.77H32a22.11,22.11,0,0,0-2.7,0,8.37,8.37,0,0,0-2,.09,1,1,0,0,0-.86.82,6.08,6.08,0,0,0,.06,1.65l0,2.08c-.2,1-.55,1.34-1.64,1.49a20.19,20.19,0,0,0-2.58,0A7.91,7.91,0,0,0,20,62l-.61,0c-.87,0-1.74,0-2.61,0a1.9,1.9,0,0,1-1.9-.8,13.05,13.05,0,0,1-.17-3.06,6.69,6.69,0,0,0-.08-1.48c.13-1.11-.06-2.22,0-3.33,0-.34,0-.69,0-1a1.89,1.89,0,0,1,1.65-1.45c.26,0,.52,0,.78,0l3.56,0c1,.11,1,.11,1,1.17s0,2,0,3.07c0,.87-.11,1-1,.91-.67,0-1.34-.14-2-.19a3,3,0,0,0-.79,0,.86.86,0,0,0-.79.87.83.83,0,0,0,.8.86,10.14,10.14,0,0,0,1.35,0l3.61-.1c1,0,1.24-.28,1.22-1.26S24,53.92,24,52.79a1.43,1.43,0,0,1,1.58-1.66c2.79.07,5.58.15,8.37,0a1.36,1.36,0,0,1,1.46,1.35c.11,1-.06,2,0,3ZM22,35.68a44,44,0,0,0,4.45,0c1.48,0,3,.05,4.46.06.3,0,.6,0,.91-.08,1,.08,2.07-.15,3.12-.15.73,0,.81.07.81.8,0,1.31,0,2.62,0,3.93s0,1.29-1.22,1.37l-.5,0a30.1,30.1,0,0,0-3.8-.13l-.73,0a8.18,8.18,0,0,0-1.85-.09H26.41a3.89,3.89,0,0,0-1.36.09,11.92,11.92,0,0,0-2.07,0c-1-.08-1.93.2-2.91.18s-.91,0-.93-.91a8.4,8.4,0,0,0,.06-1.59,3.28,3.28,0,0,0,.05-1.21,4.38,4.38,0,0,0-.06-1.25c0-1.15.1-1.21,1.28-1.06a7.64,7.64,0,0,0,1.51.07Zm9.2,7.12H32c.68,0,.82.14.8.82,0,.88-.07,1.76-.09,2.63a4.15,4.15,0,0,0,0,.61c0,.38.18.71.61.71s.6-.34.62-.71c0-.55,0-1.11,0-1.66a7.05,7.05,0,0,1,.12-1.89.67.67,0,0,1,.73-.53.6.6,0,0,1,.65.6,26.73,26.73,0,0,1,0,4.9A1.29,1.29,0,0,1,34,49.47q-3.23-.07-6.43,0c-1.72.05-3.43.06-5.15.09a7.3,7.3,0,0,1-1.4-.14,2.25,2.25,0,0,1-1.72-1.23,16.88,16.88,0,0,1-.17-3.55,2.07,2.07,0,0,1,2-1.73c.44,0,.88-.09,1.32-.13,2.91,0,5.81.17,8.71,0Zm-5.09,2.6c-1,0-2.08-.06-3.12,0-.61,0-1,.34-1,.8s.41.71.89.71c2,0,4,.07,6.05.08.65,0,1-.33,1-.82s-.37-.76-1-.76H26.09Z"/><path class="e5a591ae-4439-486f-9e62-f6643a2d7d26" d="M11.55,42.46A4.66,4.66,0,0,1,9.1,38.05a5.72,5.72,0,0,1,.75-2.24c.1-.11.2-.2.29-.31a4.5,4.5,0,0,1,7.08.11,4.69,4.69,0,0,1,.82,4l-.26.73a5.46,5.46,0,0,1-1.85,2,4.71,4.71,0,0,1-4.38.15Z"/><path class="bd1c78c8-555e-44b2-9d75-22865b4ccca7" d="M25.22,31.09c0,.48.39.79,1.05.79s1.59,0,2.38,0l3.92,0a.76.76,0,0,0,.64-1.3,1.15,1.15,0,0,0-.85-.27H29.68c-1.13,0-2.25,0-3.38-.05A1,1,0,0,0,25.22,31.09Z"/><path class="bd1c78c8-555e-44b2-9d75-22865b4ccca7" d="M26.8,11.55c-.91,0-1,.09-.9,1,0,.15,0,.29,0,.43a1.12,1.12,0,0,1-1.28,1.27c-.68,0-1.35-.06-2,0-2.82.06-5.63,0-8.45,0-.35,0-.44.05-.43.42.11,4.23.2,8.47,0,12.7,0,.54.15.65.66.62,2.26-.1,4.53-.16,6.79-.23a1,1,0,0,1,1.17,1.08,1.08,1.08,0,0,1-1.19,1.15H19.53l-.18,0c-.9,0-.89,0-.91.83a16,16,0,0,1-.09,2c-.14.84-.87,1.38-1.66.78a4.68,4.68,0,0,0-3.87-.9A5.34,5.34,0,0,0,9,35.25a6.42,6.42,0,0,0,.27,6.86c1.08,1.82,4.15,3.12,6.28,2a9.56,9.56,0,0,0,1.31-.77,1.12,1.12,0,0,1,1.2-.17c.47.22.5.7.43,1.17s-.15.77-.18,1.15a8.61,8.61,0,0,0,.19,2.63c.24,1.08-.26,1.63-1.37,1.59a4,4,0,0,0-1.1,0,3,3,0,0,0-2.4,3.28c0,2.56,0,5.12.07,7.68a2.68,2.68,0,0,0,1.62,2.6,3.72,3.72,0,0,0,1.68.16l7.36-.12a3.56,3.56,0,0,0,1.88-.45.92.92,0,0,1,1.31.16.8.8,0,0,0,.66.27c1.92,0,3.84-.05,5.76-.13a2.28,2.28,0,0,0,2.24-2.44v-.25l.1-5.16c0-.76,0-1.51,0-2.27A4.57,4.57,0,0,0,36,50.69a1.2,1.2,0,0,1,.08-1.07,2,2,0,0,0,.16-.83l.09-7.17c0-2.14.07-4.29,0-6.43V33.47l0-1.48,0-1.85A3.73,3.73,0,0,0,36,27.63a1,1,0,0,1,.08-1.25,1.07,1.07,0,0,0,.26-.9V23.76c0-.11,0-.21,0-.31,0-3.84-.18-7.69-.07-11.54,0-.42-.19-.44-.52-.44-3-.05-5.95.16-8.93.08ZM21.65,52c0,1,0,2,0,3.06s-.1,1-.95.92c-.67,0-1.34-.14-2-.19a3,3,0,0,0-.79,0,.85.85,0,0,0-.79.87.82.82,0,0,0,.8.85,10,10,0,0,0,1.34,0l3.62-.1c1,0,1.23-.28,1.21-1.26S24,53.9,24,52.78a1.43,1.43,0,0,1,1.58-1.66c2.79.06,5.59.15,8.38,0a1.35,1.35,0,0,1,1.45,1.35c.11,1-.06,2,0,3l0,4.79c-.37,1.31-.73,1.6-2.12,1.59-1.2,0-2.4.14-3.59.22-.8.06-.9,0-1-.82V58.18c0-.63.33-.86.94-.8.87.08,1.75.14,2.62.16s1.28-.35,1.24-.93-.44-.79-1.29-.77l-.06,0a20.27,20.27,0,0,0-2.7,0,8.47,8.47,0,0,0-2,.09,1,1,0,0,0-.85.82,6,6,0,0,0,.06,1.64l0,2.09c-.2,1-.55,1.34-1.64,1.49a20.19,20.19,0,0,0-2.58,0A8,8,0,0,0,20,62l-.6,0c-.87,0-1.74,0-2.61,0a1.92,1.92,0,0,1-1.9-.8,13.09,13.09,0,0,1-.18-3.06,6.11,6.11,0,0,0-.08-1.48c.14-1.11-.05-2.22,0-3.33,0-.34,0-.69,0-1l-.06-.12.06.12a1.86,1.86,0,0,1,1.65-1.45l.78-.06,3.55,0c1,.11,1,.11,1,1.16ZM35.5,43.37a26.73,26.73,0,0,1,0,4.9A1.29,1.29,0,0,1,34,49.47c-2.14-.06-4.29,0-6.43,0-1.71.05-3.43.06-5.14.09a6.59,6.59,0,0,1-1.4-.15,2.24,2.24,0,0,1-1.73-1.22,16.94,16.94,0,0,1-.16-3.56,2.06,2.06,0,0,1,2-1.72l1.33-.14c2.9,0,5.8.18,8.7,0H32c.69,0,.82.15.8.83l-.09,2.62a4.28,4.28,0,0,0,0,.62c0,.37.18.71.61.7s.6-.34.62-.71c0-.55,0-1.1,0-1.66a7.05,7.05,0,0,1,.12-1.89.67.67,0,0,1,.73-.53.63.63,0,0,1,.65.62Zm.22-7.06c0,1.32,0,2.63,0,3.93s0,1.3-1.22,1.37l-.49,0c-1.27-.18-3.8,0-3.81-.13l-.73,0a8.74,8.74,0,0,0-1.84-.1H26.4a3.84,3.84,0,0,0-1.35.09,12,12,0,0,0-2.08,0c-1-.08-1.93.2-2.9.19s-.91,0-.93-.91a9.39,9.39,0,0,0,.05-1.59h0a3,3,0,0,0,0-1.22,4,4,0,0,0,0-1.24L19,36.59l.15.08c0-1.16.09-1.22,1.28-1.07a7,7,0,0,0,1.51.08,41.29,41.29,0,0,0,4.45,0c1.49,0,3,.05,4.46.06.3,0,.6,0,.91-.08,1,.08,2.07-.15,3.12-.15.72,0,.8.07.8.8Zm-18.5-.71a4.71,4.71,0,0,1,.82,4l-.26.73a5.46,5.46,0,0,1-1.85,2A4.52,4.52,0,0,1,9.1,38.05a5.72,5.72,0,0,1,.75-2.24c.1-.1.2-.2.29-.31a4.5,4.5,0,0,1,7.08.11Zm16.39-7.73c1.53.22,1.86.59,1.88,2.14,0,1.18,0,2.37,0,3.55,0,.57-.21.81-.8.8-3.38,0-6.77,0-10.15,0a24.58,24.58,0,0,0-4,.23c-1.22,0-1.26,0-1.35-1a12.15,12.15,0,0,0,0-2.09c.07-.58.42-.77,1-.73.75.06,1.5.09,2.25.13.56,0,.88-.24.83-.8-.18-1.84.62-2.17,2.21-2.08.52,0,1.05,0,1.58,0a50.17,50.17,0,0,0,5.62-.17,4.58,4.58,0,0,1,1,0Zm1.31-14.95c.38,0,.6.16.58.55,0,.78.19,1.6-.39,2.3-.2.24-.09.51,0,.75a4.91,4.91,0,0,1,.47,2.38v4.73a3.11,3.11,0,0,1-.76,2.56l-1,.39-1.22,0a4.84,4.84,0,0,0-1.61,0,20,20,0,0,0-2.57.09c-2.31,0-4.61,0-6.92.11-2,.05-4,.12-6,.06-.65,0-.82-.38-.77-.91a29.69,29.69,0,0,0,0-3.13c0-.74.12-.88.84-.85,4.61.22,9.23.13,13.84.07.94,0,1.88,0,2.82,0h.24a1,1,0,0,0,1-.92.89.89,0,0,0-1-.88c-1.47,0-2.94,0-4.41,0-3.61,0-7.22.06-10.84.1-.61,0-1.22,0-1.83.05a.55.55,0,0,1-.66-.62c0-1.16,0-2.33,0-3.5,0-.55.33-.67.82-.66,1.57,0,3.14.17,4.71.1,2-.1,3.92-.18,5.88-.09.56,0,.77-.31.78-.8s0-.82-.06-1.23a.54.54,0,0,1,.63-.64l7.4,0Z"/><path class="bd1c78c8-555e-44b2-9d75-22865b4ccca7" d="M29.94,46.15c0-.51-.37-.76-1-.76H26.09c-1,0-2.08-.06-3.12,0-.62,0-1,.34-1,.8s.41.71.89.72l6,.08c.66,0,1-.34,1-.83Z"/><path class="fd871ecf-aa8a-441a-ad96-6f47af3698b6" d="M37.53,55.9v-.62h2.41v0l-.54-.38-1.87-1.46v-.77l2.12,1.73,2.87-1.87v.74l-2.45,1.58.55.45h1.9v.62ZM41,51.19l1.57.5v.64l-5-1.63V50l5-1.65V49L41,49.48Zm-.5-1.57L39,50.09c-.33.11-.62.18-.91.25v0c.3.07.6.14.91.24l1.44.47ZM37.53,47h5v.62h-5Zm0-1.7h2.09V43H37.53v-.62h5V43H40.18v2.33h2.34v.62h-5ZM41,40.49l1.57.49v.64l-5-1.63v-.75l5-1.64v.66L41,38.77Zm-.5-1.58L39,39.39c-.33.1-.62.17-.91.24v0l.91.24,1.44.47Zm-2.37-2.37V38h-.55V34.45h.55v1.47h4.43v.62ZM41.73,34a2.06,2.06,0,0,0,.33-1.11c0-.63-.34-1-.85-1s-.73.26-1,.9-.71,1.27-1.42,1.27a1.4,1.4,0,0,1-1.35-1.55,2.14,2.14,0,0,1,.24-1.06l.53.16a1.82,1.82,0,0,0-.24.91c0,.66.41.91.75.91s.7-.29,1-1,.73-1.22,1.46-1.22,1.44.55,1.44,1.68a2.47,2.47,0,0,1-.32,1.22Zm-4.2-4.21h3c1.12,0,1.59-.48,1.59-1.12s-.49-1.17-1.59-1.17h-3v-.63h2.91c1.53,0,2.16.78,2.16,1.82s-.59,1.72-2.14,1.72H37.53Zm0-6.12h5v.62h-5Zm5-1.08h-5V22l2.52-1.54a15.76,15.76,0,0,1,1.62-.86h0c-.66.05-1.27.07-2,.07h-2.1V19h5v.62L40,21.17a15.6,15.6,0,0,1-1.66.89v0c.63,0,1.23-.05,2.06-.05h2.13Zm-.17-8a2.9,2.9,0,0,1,.24,1.27,2.29,2.29,0,0,1-2.52,2.37,2.44,2.44,0,0,1-2.62-2.51,2.64,2.64,0,0,1,.22-1.14l.53.15a2.29,2.29,0,0,0-.21,1,1.83,1.83,0,0,0,2.06,1.87,1.77,1.77,0,0,0,2-1.84,2.18,2.18,0,0,0-.21-1ZM42.13,14a.43.43,0,0,1-.46-.39v0a.47.47,0,0,1,.93,0,.43.43,0,0,1-.44.42Z"/></g></svg>