<svg xmlns="http://www.w3.org/2000/svg" xmlns:xlink="http://www.w3.org/1999/xlink" viewBox="0 0 747.48 822.76"><defs><linearGradient id="ab7123f6-da35-40f4-be9b-ce9360d8cf4a" x1="356.85" y1="-184.38" x2="356.85" y2="-181.21" xlink:href="#a89ab347-10a1-49f8-913a-c97bf15f7f86"/><linearGradient id="b5872e87-1320-43e0-9bc7-536c915c7a13" x1="351.18" y1="-209.62" x2="351.18" y2="-206.18" xlink:href="#a89ab347-10a1-49f8-913a-c97bf15f7f86"/><linearGradient id="bca08583-da40-4835-844a-29dad7f6ae8f" x1="332.62" y1="-204.32" x2="329.16" y2="-200.87" xlink:href="#a89ab347-10a1-49f8-913a-c97bf15f7f86"/><linearGradient id="a22d9868-01e8-4f15-a930-c5210ad3ce27" x1="297.77" y1="-208.36" x2="290.95" y2="-208.36" xlink:href="#a89ab347-10a1-49f8-913a-c97bf15f7f86"/><linearGradient id="e8e9083e-e01d-4c07-8397-4829c18d8411" x1="272.49" y1="-208.66" x2="265.95" y2="-208.66" xlink:href="#a89ab347-10a1-49f8-913a-c97bf15f7f86"/><linearGradient id="bfe5ed59-8769-411c-b408-2b67b76a3d2c" x1="216.81" y1="-210.25" x2="210.12" y2="-210.25" xlink:href="#a89ab347-10a1-49f8-913a-c97bf15f7f86"/><linearGradient id="a98bfc17-92bb-4608-981a-7d3f1e337104" x1="295.81" y1="-223.06" x2="292.96" y2="-220.21" xlink:href="#a89ab347-10a1-49f8-913a-c97bf15f7f86"/><linearGradient id="ec7f15f4-530f-47b3-bb92-f32a7e4703f8" x1="283.29" y1="-212.32" x2="279.24" y2="-208.27" xlink:href="#a89ab347-10a1-49f8-913a-c97bf15f7f86"/><linearGradient id="b08c8f21-ddb3-474d-92b1-641174957604" x1="256.93" y1="-210.13" x2="252.55" y2="-205.75" xlink:href="#a89ab347-10a1-49f8-913a-c97bf15f7f86"/><linearGradient id="e16dc0e4-e6cf-4feb-bb52-d06a6c258e55" x1="194.81" y1="-223.48" x2="189.03" y2="-217.7" xlink:href="#a89ab347-10a1-49f8-913a-c97bf15f7f86"/><linearGradient id="b282d807-b92b-4374-8a7b-346107168dbc" x1="354.93" y1="-180.08" x2="351.04" y2="-176.2" xlink:href="#a89ab347-10a1-49f8-913a-c97bf15f7f86"/><linearGradient id="a6c6ab40-0dbd-45bc-abf9-b4a19485d546" x1="331.19" y1="-184.06" x2="325.17" y2="-178.03" xlink:href="#a89ab347-10a1-49f8-913a-c97bf15f7f86"/><linearGradient id="ef607203-6ec1-4742-867a-43932b76cd72" x1="368.12" y1="-215.79" x2="364.89" y2="-212.55" xlink:href="#a89ab347-10a1-49f8-913a-c97bf15f7f86"/><linearGradient id="a70b73b1-48d1-44dc-9d7a-b10e47079734" x1="358.04" y1="-190.79" x2="354.99" y2="-187.75" xlink:href="#a89ab347-10a1-49f8-913a-c97bf15f7f86"/><linearGradient id="fea2f56a-258e-44f5-9ec6-01e9385e35d7" x1="292.77" y1="-175.15" x2="287.94" y2="-170.32" xlink:href="#a89ab347-10a1-49f8-913a-c97bf15f7f86"/><linearGradient id="ec66d56b-1693-4492-ab59-1b03802b9623" x1="254.93" y1="-187.81" x2="248.13" y2="-181.01" xlink:href="#a89ab347-10a1-49f8-913a-c97bf15f7f86"/><linearGradient id="b5804600-46c5-4bbc-8c7f-e17f94252cfd" x1="205.22" y1="-184.5" x2="198.87" y2="-178.16" xlink:href="#a89ab347-10a1-49f8-913a-c97bf15f7f86"/><linearGradient id="b367c447-da70-4eef-9689-a682e274a9c8" x1="392.26" y1="-200.9" x2="97.75" y2="-200.9" gradientTransform="matrix(.7 .11 .11 -.7 45.8 -66.28)" gradientUnits="userSpaceOnUse"><stop offset="0" stop-color="#013a67"/><stop offset="1" stop-color="#6cd1ff"/></linearGradient><linearGradient id="a89ab347-10a1-49f8-913a-c97bf15f7f86" x1="124.43" y1="-194.07" x2="116.76" y2="-186.41" gradientTransform="matrix(.7 .11 .11 -.7 45.8 -66.28)" gradientUnits="userSpaceOnUse"><stop offset="0" stop-color="#08406f"/><stop offset="1" stop-color="#60c5f5"/></linearGradient><linearGradient id="a2d58c0d-fc56-4e22-bda2-a68c22cc45ba" x1="161.09" y1="-234.22" x2="157.29" y2="-230.43" xlink:href="#a89ab347-10a1-49f8-913a-c97bf15f7f86"/><linearGradient id="a74a6a60-ed64-4fc7-adda-ede3d2d19b3f" x1="105.64" y1="-222.21" x2="105.64" y2="-219.72" xlink:href="#a89ab347-10a1-49f8-913a-c97bf15f7f86"/><linearGradient id="a649de83-36d8-4db6-9bcf-ca90dc0df645" x1="160.98" y1="-244.31" x2="160.98" y2="-241.68" xlink:href="#a89ab347-10a1-49f8-913a-c97bf15f7f86"/><linearGradient id="b054aff6-690b-4710-99a2-560e12fd9707" x1="328.05" y1="-223.5" x2="328.05" y2="-220.64" xlink:href="#a89ab347-10a1-49f8-913a-c97bf15f7f86"/><linearGradient id="b6581b52-c92a-4c2d-a13f-e1da2c7aa262" x1="229.17" y1="-223.36" x2="229.17" y2="-220.71" xlink:href="#a89ab347-10a1-49f8-913a-c97bf15f7f86"/><linearGradient id="a79f6a32-6d78-4c62-9889-3ea5346665a7" x1="371.5" y1="-159.99" x2="371.5" y2="-157.18" xlink:href="#a89ab347-10a1-49f8-913a-c97bf15f7f86"/><linearGradient id="b9350a83-a249-418d-b335-30375af2c8a8" x1="369.69" y1="-173.94" x2="369.69" y2="-171.53" xlink:href="#a89ab347-10a1-49f8-913a-c97bf15f7f86"/><linearGradient id="e8ff563d-9b3a-4d64-8b41-7e3abe27fc6e" x1="341.89" y1="-198.62" x2="341.89" y2="-196.46" xlink:href="#a89ab347-10a1-49f8-913a-c97bf15f7f86"/><linearGradient id="baf8b2c0-9e55-4413-937c-d47d53fce4e7" x1="166.2" y1="-175.19" x2="161.07" y2="-170.07" xlink:href="#a89ab347-10a1-49f8-913a-c97bf15f7f86"/><linearGradient id="a92be776-467d-4862-9951-89abed416d11" x1="131.05" y1="-209.5" x2="126.73" y2="-205.17" xlink:href="#a89ab347-10a1-49f8-913a-c97bf15f7f86"/><linearGradient id="ac245618-8bca-481c-a44a-e68e89a45b70" x1="151.58" y1="-172.47" x2="145" y2="-172.47" xlink:href="#a89ab347-10a1-49f8-913a-c97bf15f7f86"/><linearGradient id="f1ce1f64-1da0-45cd-81c2-264884318d0a" x1="183.45" y1="-181.19" x2="173.31" y2="-181.19" xlink:href="#a89ab347-10a1-49f8-913a-c97bf15f7f86"/><linearGradient id="b3f7e96d-ff9f-4c4f-8e67-01f02c1202f8" x1="230.11" y1="-184.21" x2="219.29" y2="-184.21" xlink:href="#a89ab347-10a1-49f8-913a-c97bf15f7f86"/><linearGradient id="e012ae14-dc4f-4247-9cb4-16f17f0bdf47" x1="278.49" y1="-172.69" x2="271.44" y2="-172.69" xlink:href="#a89ab347-10a1-49f8-913a-c97bf15f7f86"/><linearGradient id="a59933f8-4cf2-415f-a232-c34d54c5d22e" x1="309.96" y1="-180.52" x2="300.4" y2="-180.52" xlink:href="#a89ab347-10a1-49f8-913a-c97bf15f7f86"/><linearGradient id="ada7f126-817c-4560-a4c5-0d011ac9c56c" x1="146.29" y1="-208.39" x2="139.87" y2="-208.39" xlink:href="#a89ab347-10a1-49f8-913a-c97bf15f7f86"/><linearGradient id="e5424b7c-0606-4254-94fb-72a1734f1bd9" x1="156.86" y1="-212.25" x2="152.73" y2="-208.12" xlink:href="#a89ab347-10a1-49f8-913a-c97bf15f7f86"/><linearGradient id="b93d0aad-7805-49b0-907f-cc324fd0b4aa" x1="391.16" y1="-166.46" x2="388.01" y2="-163.31" xlink:href="#a89ab347-10a1-49f8-913a-c97bf15f7f86"/><linearGradient id="a458bfa0-c13a-446e-ad16-135430255ef7" x1="170.91" y1="-209.01" x2="164.51" y2="-209.01" xlink:href="#a89ab347-10a1-49f8-913a-c97bf15f7f86"/><radialGradient id="a379bcf2-d9c3-43a8-bffe-c793b2827619" cx="121.61" cy="433.12" r="5.66" gradientTransform="matrix(1 0 0 -.6 0 641.97)" xlink:href="#ba7662a6-0018-462a-8fbf-1f50e6d8d5fd"/><radialGradient id="a9b40937-4157-4768-95bb-136751954769" cx="65.88" cy="473.12" r="11.47" gradientTransform="matrix(1 0 0 -1 0 821.89)" gradientUnits="userSpaceOnUse"><stop offset="0" stop-color="#fd6d66"/><stop offset=".78" stop-color="#b50a03"/></radialGradient><radialGradient id="b39c7d77-24c3-4dcb-a375-7f8bf7fbfb6e" cx="239.79" cy="405.87" r="5.66" xlink:href="#a9b40937-4157-4768-95bb-136751954769"/><radialGradient id="f00605a5-80f1-4dcb-97f4-7a30372639f3" cx="258.36" cy="399.7" r="5.66" xlink:href="#a9b40937-4157-4768-95bb-136751954769"/><radialGradient id="f1643659-4f70-4de7-a88b-2f2aa03ef39b" cx="264.4" cy="411.96" r="5.66" xlink:href="#a9b40937-4157-4768-95bb-136751954769"/><radialGradient id="febdacd8-787d-4012-9a2b-37902a3126f2" cx="246.79" cy="417.65" r="5.66" xlink:href="#a9b40937-4157-4768-95bb-136751954769"/><radialGradient id="bd0ad16c-c806-4961-9f0f-05d64b3cecbe" cx="225.51" cy="417.22" r="5.66" xlink:href="#a9b40937-4157-4768-95bb-136751954769"/><radialGradient id="a64c793c-530e-4d4b-b44c-1abea60f2696" cx="100.32" cy="432.69" r="5.66" gradientTransform="matrix(1 0 0 -.6 0 642.14)" xlink:href="#ba7662a6-0018-462a-8fbf-1f50e6d8d5fd"/><radialGradient id="b0745891-ea8b-4c74-a9cc-ee2e29397774" cx="217.55" cy="405.87" r="5.66" xlink:href="#a9b40937-4157-4768-95bb-136751954769"/><radialGradient id="a0b56584-f39a-4ced-8594-ee192cf92bdc" cx="139.21" cy="427.44" r="5.66" gradientTransform="matrix(1 0 0 -.6 0 644.24)" xlink:href="#ba7662a6-0018-462a-8fbf-1f50e6d8d5fd"/><radialGradient id="b7fbbe62-3b78-4ba5-bba9-9fef8c33d344" cx="133.17" cy="415.19" r="5.66" gradientTransform="matrix(1 0 0 -.6 0 649.15)" xlink:href="#ba7662a6-0018-462a-8fbf-1f50e6d8d5fd"/><radialGradient id="e2cd9acc-5918-45b1-8be1-2fdd686447fd" cx="114.61" cy="428.01" r="5.66" gradientTransform="matrix(1 0 0 -1 0 821.89)" xlink:href="#ba7662a6-0018-462a-8fbf-1f50e6d8d5fd"/><radialGradient id="ba7662a6-0018-462a-8fbf-1f50e6d8d5fd" cx="92.36" cy="421.34" r="5.66" gradientTransform="matrix(1 0 0 -.6 0 646.68)" gradientUnits="userSpaceOnUse"><stop offset="0" stop-color="#0000ef"/><stop offset=".15" stop-color="#0000e9"/><stop offset=".34" stop-color="#0101d9"/><stop offset=".56" stop-color="#0101be"/><stop offset=".79" stop-color="#02029a"/><stop offset="1" stop-color="#020282"/></radialGradient><radialGradient id="aa0d966c-25a1-4f33-a88a-b0d8ea08fa94" cx="195.83" cy="450.9" r="11.47" xlink:href="#a9b40937-4157-4768-95bb-136751954769"/><radialGradient id="b8794049-e0d9-43c2-bbd5-527d35698d6b" cx="195.82" cy="450.9" r="11.47" xlink:href="#a9b40937-4157-4768-95bb-136751954769"/><radialGradient id="bf7109fe-f491-44d0-9862-cf31dc91e3b0" cx="65.88" cy="473.12" r="11.47" xlink:href="#a9b40937-4157-4768-95bb-136751954769"/><style>.bef1f771-7c7d-4673-ab15-865205a68716{fill:#373735}.fc1b6f54-0bbe-43e7-830a-ecdbab07fa3f{fill:#121211}.a65a7359-c1aa-4a81-b1c0-90361f9e4a20,.a79afb48-1eed-4d27-b507-0a69df13ed05,.ad0e2296-9127-4170-ae6d-bd52e778e0c9,.b30e1a0e-7990-4d8b-88fe-87393cd605de,.ec109f45-4bc0-4bf9-b800-0aa30856ac6b,.fc1b6f54-0bbe-43e7-830a-ecdbab07fa3f{stroke:#b5b5b5}.a65a7359-c1aa-4a81-b1c0-90361f9e4a20,.a79afb48-1eed-4d27-b507-0a69df13ed05,.aacc83e0-21f6-4603-a41f-9951d7311480,.ad0e2296-9127-4170-ae6d-bd52e778e0c9,.b16b5cbc-0c1d-4029-ab4c-c5f27e4a5600,.b30e1a0e-7990-4d8b-88fe-87393cd605de,.b4340c4c-791e-4668-bdbc-c0bd137972cc,.ec109f45-4bc0-4bf9-b800-0aa30856ac6b,.fc1b6f54-0bbe-43e7-830a-ecdbab07fa3f{stroke-miterlimit:10}.a65a7359-c1aa-4a81-b1c0-90361f9e4a20,.a79afb48-1eed-4d27-b507-0a69df13ed05,.aacc83e0-21f6-4603-a41f-9951d7311480,.ad0e2296-9127-4170-ae6d-bd52e778e0c9,.b30e1a0e-7990-4d8b-88fe-87393cd605de,.fc1b6f54-0bbe-43e7-830a-ecdbab07fa3f{stroke-width:.5px}.b16b5cbc-0c1d-4029-ab4c-c5f27e4a5600{fill:#443840}.aacc83e0-21f6-4603-a41f-9951d7311480,.b16b5cbc-0c1d-4029-ab4c-c5f27e4a5600{stroke:#090000}.b16b5cbc-0c1d-4029-ab4c-c5f27e4a5600{stroke-width:.75px}.aacc83e0-21f6-4603-a41f-9951d7311480{fill:#6b0c05}.e24ba253-f2c6-4600-b0cd-0750ebaa1503{fill:#86382f}.b4340c4c-791e-4668-bdbc-c0bd137972cc{stroke:#373737}.ec109f45-4bc0-4bf9-b800-0aa30856ac6b{fill:#00adef}.ad0e2296-9127-4170-ae6d-bd52e778e0c9{fill:#dc6e05}.a79afb48-1eed-4d27-b507-0a69df13ed05{fill:#12e600}.b30e1a0e-7990-4d8b-88fe-87393cd605de{fill:#0b47ce}.a65a7359-c1aa-4a81-b1c0-90361f9e4a20,.f79f0934-55c6-4c26-9272-4e488a3ef9c6{fill:#282826}.f1d94951-f0d6-45aa-b143-f2cc230707e3{fill:#ae7a82}.ec89006c-1ce1-43ed-ae2d-3207ff3ef799{fill:#0000ef}.a41f534a-a764-4068-a68c-227834291d0f{fill:#930303}.f0e7097c-703c-4a29-b649-da79fa6d3bd7{fill:#e7e7e7}.a922b076-72cf-4243-be45-d599c715eff5{fill:#2c2b29}</style></defs><g id="e6e0fd07-2228-4b41-94eb-305416cf9880" data-name="f6a20a29-c719-499a-b481-b423545d1cca"><path id="ba71382c-f83f-4cf0-a1ab-4c2e2c067b5e" data-name="bfc77a19-6e7f-4769-b89e-359a1500ea97" style="opacity:.5;isolation:isolate;fill:#373735" d="m453 589.31 21.52-5.91h11.86l1.59 2.96 237.36 43.3h11.08l11.07 31.39-46.41 37.71-46.42 13.19-8.18-1.32.27-1.85-13.98-2.63-83.61 27.95-73.32 51.57-22.83 6.82-7.76-1.16v-2.63l-16.09-3.03-129.99 34.37L453 589.31z"/><g id="a145df76-ef99-4f54-83b1-4d906b3f7314" data-name="f0bd8f72-a322-4c3d-9d9d-f012a59cfe70"><path class="bef1f771-7c7d-4673-ab15-865205a68716" d="m36.97 455.08 224.91 39.62v4.35l25.71 6.13-.39 311.34-248.24-47.27-1.99-314.17z"/><path class="fc1b6f54-0bbe-43e7-830a-ecdbab07fa3f" d="m202 526.54-78.38-13.74c-3 .19-4.26 3.56-4.26 3.56l.2 85c.69 2.18 3.86 5 3.86 5l74.27 13.46c5.14.49 7.52-5.25 7.52-5.25v-82.69a7.11 7.11 0 0 0-3.21-5.34zm-49.9 22.55-18.69-3.46v-20l2.27-1.88 18.1 3.07-1.78 2.69zm31.45 6.13-18.69-3.46v-20l2.27-1.87 18.1 3.06-1.78 2.67z"/><path class="b16b5cbc-0c1d-4029-ab4c-c5f27e4a5600" d="m135.68 523.77-2.27 1.88v19.98l18.69 3.46-.1-19.58 1.78-2.67-18.1-3.07zM167.13 529.9l-2.27 1.88v19.98l18.69 3.46-.1-19.58 1.78-2.67-18.1-3.07z"/><path class="aacc83e0-21f6-4603-a41f-9951d7311480" d="M141.12 543.55V530.7l8.01 1.78v12.56l-8.01-1.49zM172.18 549.39v-12.86l8.01 1.78v12.56l-8.01-1.48z"/><path d="M136.21 543.68v-15.22l2.04.39v15.16l-2.04-.33zM167.66 549.22v-15.23l2.04.4v15.16l-2.04-.33z"/><path class="e24ba253-f2c6-4600-b0cd-0750ebaa1503" d="M141.38 531.21v-.35l7.47 1.8.01.43-7.48-1.88zM172.44 537.14v-.29l7.46 1.64.02.35-7.48-1.7z"/><circle cx="193.37" cy="575.37" r="4.25" style="fill:#8b8b8b;stroke-width:.75px;stroke:#090000;stroke-miterlimit:10"/><path class="b4340c4c-791e-4668-bdbc-c0bd137972cc" d="M137.26 599.24v-11.28l11.97 2.18v11.3l-11.97-2.2zM168.52 604.77V593.5l11.96 2.17v10.88l-11.96-1.78z"/></g><g id="ecc44d64-5c1e-4ab9-9759-339af65d2102" data-name="e58ac596-73f2-4d1a-8e8e-e917a56e14e8"><path class="ec109f45-4bc0-4bf9-b800-0aa30856ac6b" d="m11.46 450.59-.79-39.76L1 407.66v45.1l27.89 5.54c.59 103.55 1 207.6 1.58 311.15a6.17 6.17 0 0 0 3.53 2.19 12.75 12.75 0 0 0 5 0l-2-316.56zM272.36 497v-41.27l-10.28-1.19-.2 44.51 25.71 6.13s-1.51 313.85 0 315.69 8.77 1.32 8.77 1.32l.93-319.91zM79.7 346.94l-8.15-1.3 16.26-218.56 9.03 1.51L79.7 346.94zM330.22 389.37l9.1 1.28 18.49-224.31h-26.37l-.26-90.92-10.06-1.84v94.84l6.03 1.09h20.28l-17.21 219.86z"/><path class="ec109f45-4bc0-4bf9-b800-0aa30856ac6b" d="M88.49 127.19s-28.17-.35-29.11-.85c0-31.21.06-62.83 0-94L68.74 35l.48 89z"/><g id="e2f68d8b-d088-4b0b-beea-4807be903ee9" data-name="be5278ea-c615-431d-8754-cd601aadf0e7"><path class="ec109f45-4bc0-4bf9-b800-0aa30856ac6b" d="m.98 407.66 9.69 3.17 68.31-64.06-8.11-1.94L.98 407.66zM262.08 454.54l10.28 1.19 66.96-65.87-8.62-1.6-68.62 66.28zM112.54.52 59.4 32.3l9.36 2.64 52.58-31.12 2.74-1.62-2.58-.36-8.96-1.32zM384.71 41.14l-11.21-.8-52.38 33.24 10.06 1.84 53.53-34.28z"/></g></g><g id="bc2e337b-390e-4ebb-997d-c62c3f0d7849" data-name="b8764ab0-6105-48bd-b522-19ccfc266424"><path class="fc1b6f54-0bbe-43e7-830a-ecdbab07fa3f" d="m454.11 309.16.63-159.63-70.03-108.39-53.53 34.28.26 90.92h26.37l-18.49 224.31-66.96 65.08V497l24.93 5.28-.93 319.91 8.25-6.32 149.64-543.7-.21 21.51-142.09 516.55-1.61 1.24 6.94-5.32 136.83-496.99zM325.04 799.67l-7.76 6.48 11.99-9.2 124.7-453.24.05-12.13-128.98 468.09zM336.41 791.47l-1.32 1.02 6.86-5.27 111.8-407.64v21.25l.22-57.12-.22 24-117.34 423.76zM343.97 785.67l108.59-83.28 1.18-299.84L348.38 782.3l-4.41 3.37z"/><path style="fill:#bf0000;stroke-width:.5px;stroke-miterlimit:10;stroke:#b5b5b5" d="m304.61 815.87 5.73-4.4-5.73 4.4z"/><path style="fill:#00adef;stroke-width:.5px;stroke-miterlimit:10;stroke:#b5b5b5" d="m454.04 293.68.21-21.51-149.64 543.7 5.73-4.4 1.61-1.24 142.09-516.55z"/><path class="ad0e2296-9127-4170-ae6d-bd52e778e0c9" d="M454.11 331.26v-22.1l-.09 22.42.09-.32zM317.28 806.15z"/><path style="fill:#84849c;stroke-width:.5px;stroke-miterlimit:10;stroke:#b5b5b5" d="m454.02 331.58.09-22.42-136.83 496.99 7.76-6.48 128.98-468.09z"/><path class="a79afb48-1eed-4d27-b507-0a69df13ed05" d="M453.97 343.71zM329.27 796.95l5.82-4.46-5.82 4.46z"/><path style="fill:#231f20;stroke-width:.5px;stroke-miterlimit:10;stroke:#b5b5b5" d="m335.09 792.49 1.32-1.02 117.34-423.76.22-24-124.7 453.24 5.82-4.46z"/><path class="b30e1a0e-7990-4d8b-88fe-87393cd605de" d="m341.95 787.22 2.02-1.55-2.02 1.55zM453.75 402.52v-1.69l-.01 1.72.01-.03z"/><path style="fill:#fff;stroke-width:.5px;stroke-miterlimit:10;stroke:#b5b5b5" d="m341.95 787.22 2.02-1.55 4.41-3.37 105.36-379.75.01-1.72v-21.25l-111.8 407.64z"/></g><g id="afed41c3-c90a-40f0-867a-58108fab12ca" data-name="a2c8f20f-4be2-454d-9020-ff90fad70d24"><path class="a65a7359-c1aa-4a81-b1c0-90361f9e4a20" d="m11.46 450.59 250.42 44.11.2-40.16-251.41-43.71.79 39.76z"/><path class="bef1f771-7c7d-4673-ab15-865205a68716" d="m80.35 345.73-69.68 65.1 251.41 43.71 68.62-66.28-250.35-42.53z"/></g><g id="b3d6974e-0181-4e9b-a141-497d88c3a99a" data-name="f40b3598-a1e0-44c7-9bd9-9af7f4c7678d"><path class="a65a7359-c1aa-4a81-b1c0-90361f9e4a20" d="M96.84 129.36 79.7 347.72l250.52 42.43L347.82 168zm224.28 67.76c0 .2-.29.32-.48.49l-10.43 144.83a35.91 35.91 0 0 1-4.3 3.78l1.4.29v10.7s-1.4 4.75-11.08 2.64c-11.19-2.44-178.55-31.91-178.55-31.91l8.72-6.78v-1.39s-2.46.52-6-7l-12.48 2.77h-4l11.34-158.77s4-6.85 10.81-6.59 191.16 30.59 191.16 30.59 6.17 1.07 3.89 16.35z"/><path d="M317.28 180S133 149.66 126.12 149.4s-10.81 6.6-10.81 6.6l-11.74 160.08h4.35l12.29-2.68c-.1-.23-.74-1.57-.85-1.8L131 166.54s2.11-5.54 7.12-7.38l177.49 27.16a20.74 20.74 0 0 1 5.11 9.76l-.05.75c.19-.17.62.66.66.47 3.23-14.06-4.05-17.3-4.05-17.3z" style="fill:#151312"/><path d="m125.32 320-8.56 8s164.63 29.3 178.61 32.24c10.36 2.17 14.43-3.58 14.43-3.58l.61-7.37.39-7.71-4.89 3.84a20.86 20.86 0 0 1-7.73 3.87z" style="fill:#555353"/><path d="M319.5 197.81a14 14 0 0 0 1.14-1l.66-.52a20.29 20.29 0 0 0-5.72-10l-177.49-27.13c-5 1.84-7.12 7.38-7.12 7.38L119.36 311.6l.32.66c3.54 7.52 6.28 8 6.28 8l.44.08 171.78 28.93a20.86 20.86 0 0 0 7.73-3.87c2.57-1.91 4.89-3.84 4.89-3.84l10.5-145.29a16.81 16.81 0 0 1-1.8 1.54z" style="fill:#008aa6"/></g><g id="b3ce003b-544d-42a1-96fc-2f48591f8a06" data-name="a289c6f8-a9cd-46a7-9ccc-0d3dd546eb07"><path id="aba48ae5-8f0e-48d9-83df-184f2112278b" data-name="bfff07f0-44a4-4826-9f4d-30ade15f1abc" class="a65a7359-c1aa-4a81-b1c0-90361f9e4a20" d="m69.22 124.02 251.47 39.03.43-89.47L68.76 34.94l.46 89.08z"/><path style="stroke-miterlimit:10;stroke:#b5b5b5;fill:#373735" d="m129.81 3.16-5.73-.96-55.32 32.74 252.36 38.64 52.38-33.24L129.81 3.16z"/></g><g id="ac8456ba-d97d-4b1e-8b80-d4d53daf3e2c" data-name="b530217a-9b89-451e-9474-bd3290403326"><path class="f79f0934-55c6-4c26-9272-4e488a3ef9c6" d="M68.92 377.27v5.16H62.4v-5.16c-5.06.64-8.77 2.7-8.77 5.16 0 3 5.38 5.35 12 5.35s12-2.39 12-5.35c.06-2.43-3.63-4.52-8.71-5.16z"/><path class="f1d94951-f0d6-45aa-b143-f2cc230707e3" d="M68.92 377.27v-17.78a12.16 12.16 0 0 1-3 .39 12.4 12.4 0 0 1-3.48-.49v17.88a26.34 26.34 0 0 1 6.52 0z"/><path class="f1d94951-f0d6-45aa-b143-f2cc230707e3" d="M68.92 382.43v-5.16a26.34 26.34 0 0 0-6.52 0v5.16z"/><path d="M68.92 358.89v.6a11.24 11.24 0 0 0 8.77-10.72c0-6.14-5.29-11.11-11.81-11.11s-11.82 5-11.82 11.11a11.22 11.22 0 0 0 8.34 10.62v-.5z" style="fill:url(#a9b40937-4157-4768-95bb-136751954769)"/><path class="f1d94951-f0d6-45aa-b143-f2cc230707e3" d="M68.92 359.49v-.6H62.4v.5a12.4 12.4 0 0 0 3.48.49 12 12 0 0 0 3.04-.39z"/><path d="M68.92 359.49v-.6H62.4v.5a12.4 12.4 0 0 0 3.48.49 12 12 0 0 0 3.04-.39z" style="fill:url(#bf7109fe-f491-44d0-9862-cf31dc91e3b0)"/></g><g id="bd7784ec-119d-4960-a10a-bd5cc7e7c208" data-name="b1d6a16f-571b-44da-81c0-d41c557d07ce"><path class="f79f0934-55c6-4c26-9272-4e488a3ef9c6" d="M198.88 399.49v5.16h-6.53v-5.16c-5 .64-8.77 2.7-8.77 5.16 0 3 5.39 5.35 12 5.35s12-2.39 12-5.35c.07-2.46-3.64-4.52-8.7-5.16z"/><path class="f1d94951-f0d6-45aa-b143-f2cc230707e3" d="M198.88 399.49v-17.78a12.19 12.19 0 0 1-6.48-.1v17.88a26.42 26.42 0 0 1 6.53 0z"/><path class="f1d94951-f0d6-45aa-b143-f2cc230707e3" d="M198.88 404.65v-5.16a26.42 26.42 0 0 0-6.53 0v5.16z"/><path d="M198.88 381.11v.6a11.24 11.24 0 0 0 8.77-10.71c0-6.14-5.29-11.11-11.82-11.11S184 364.85 184 371a11.22 11.22 0 0 0 8.34 10.62v-.5z" style="fill:url(#b8794049-e0d9-43c2-bbd5-527d35698d6b)"/><path class="f1d94951-f0d6-45aa-b143-f2cc230707e3" d="M198.88 381.71v-.6h-6.53v.5a12.77 12.77 0 0 0 3.48.49 12.09 12.09 0 0 0 3.05-.39z"/><path d="M198.88 381.71v-.6h-6.53v.5a12.77 12.77 0 0 0 3.48.49 12.09 12.09 0 0 0 3.05-.39z" style="fill:url(#aa0d966c-25a1-4f33-a88a-b0d8ea08fa94)"/></g><g id="a850f02e-d800-4f9d-914b-0b69d0998163" data-name="a5c3ecf5-9441-4e13-9eb0-2d7721089c79"><g id="b7baed37-8e1d-4e8e-ba2f-b350b53d7634" data-name="bff1631d-178a-4cc5-b02c-d0f3f86b8228"><path class="ec89006c-1ce1-43ed-ae2d-3207ff3ef799" d="M92.54 389.14c-3.86 0-8.12 1.53-8.12 4.87 0 2.95 4.1 4.62 7.94 4.62 4.11 0 8-1.73 8-4.88-.04-2.35-3.88-4.61-7.82-4.61zm-.18 8.63c-3.86 0-7-1.74-7-3.89s3.13-3.89 7-3.89 7 1.74 7 3.89-3.14 3.89-7 3.89z"/><path d="M92.36 390c-3.86 0-7 1.74-7 3.89s3.13 3.89 7 3.89 7-1.74 7-3.89-3.14-3.89-7-3.89z" style="fill:url(#ba7662a6-0018-462a-8fbf-1f50e6d8d5fd)"/></g><g id="b2b5c8e6-78c2-4286-a264-74070155fded" data-name="b8b805d7-10f5-4823-8927-3b9edf36f019"><path class="ec89006c-1ce1-43ed-ae2d-3207ff3ef799" d="M114.79 389.14c-3.86 0-8.12 1.53-8.12 4.87 0 2.95 4.1 4.62 7.94 4.62 4.11 0 8-1.73 8-4.88-.04-2.35-3.88-4.61-7.82-4.61zm-.18 8.63c-3.86 0-7-1.74-7-3.89s3.13-3.89 7-3.89 7 1.74 7 3.89-3.14 3.89-7 3.89z"/><path d="M114.61 390c-3.86 0-7 1.74-7 3.89s3.13 3.89 7 3.89 7-1.74 7-3.89-3.14-3.89-7-3.89z" style="fill:url(#e2cd9acc-5918-45b1-8be1-2fdd686447fd)"/></g><g id="eebf4380-8bc6-49f5-9ccc-29587fd43870" data-name="a5882ba7-92e7-4bba-9dc8-01c982729f18"><path class="ec89006c-1ce1-43ed-ae2d-3207ff3ef799" d="M133.35 395.3c-3.86 0-8.13 1.53-8.13 4.87 0 3 4.11 4.62 7.95 4.62 4.1 0 8-1.73 8-4.88-.04-2.35-3.88-4.61-7.82-4.61zm-.18 8.63c-3.86 0-7-1.74-7-3.89s3.13-3.89 7-3.89 7 1.74 7 3.89-3.17 3.89-7 3.89z"/><path d="M133.17 396.15c-3.86 0-7 1.74-7 3.89s3.13 3.89 7 3.89 7-1.74 7-3.89-3.17-3.89-7-3.89z" style="fill:url(#b7fbbe62-3b78-4ba5-bba9-9fef8c33d344)"/></g><g id="a2d76f2c-5aea-464c-91cc-1ab8922adca8" data-name="a86c37af-062f-4d79-973a-7efe35060d8a"><path class="ec89006c-1ce1-43ed-ae2d-3207ff3ef799" d="M139.39 383c-3.86 0-8.13 1.53-8.13 4.88 0 2.95 4.11 4.61 8 4.61 4.1 0 8-1.73 8-4.88-.09-2.31-3.93-4.61-7.87-4.61zm-.18 8.63c-3.86 0-7-1.74-7-3.89s3.13-3.89 7-3.89 7 1.75 7 3.89-3.14 3.93-7 3.93z"/><path d="M139.21 383.89c-3.86 0-7 1.75-7 3.89s3.13 3.89 7 3.89 7-1.74 7-3.89-3.14-3.89-7-3.89z" style="fill:url(#a0b56584-f39a-4ced-8594-ee192cf92bdc)"/></g><g id="abf394c2-5e59-4e02-9aeb-40bcc5459b34" data-name="af3b6070-bbf0-4f08-bbc6-300e48c63555"><path class="ec89006c-1ce1-43ed-ae2d-3207ff3ef799" d="M121.79 377.35c-3.86 0-8.12 1.53-8.12 4.88 0 2.95 4.1 4.61 7.94 4.61 4.11 0 8-1.73 8-4.88-.04-2.34-3.88-4.61-7.82-4.61zm-.18 8.64c-3.86 0-7-1.74-7-3.89s3.13-3.89 7-3.89 7 1.74 7 3.89-3.14 3.9-7 3.9z"/><path d="M121.61 378.21c-3.86 0-7 1.74-7 3.89s3.13 3.89 7 3.89 7-1.74 7-3.89-3.14-3.89-7-3.89z" style="fill:url(#a379bcf2-d9c3-43a8-bffe-c793b2827619)"/></g><g id="eeab59c5-4c1e-4742-9e50-f4ea281a1eda" data-name="b3e7ad8a-ebb1-436f-82d2-e69db3ae1e0f"><path class="ec89006c-1ce1-43ed-ae2d-3207ff3ef799" d="M100.5 377.78c-3.86 0-8.13 1.53-8.13 4.88 0 2.95 4.11 4.62 7.95 4.62 4.1 0 8-1.73 8-4.88-.04-2.35-3.88-4.62-7.82-4.62zm-.18 8.64c-3.86 0-7-1.74-7-3.89s3.13-3.89 7-3.89 7 1.74 7 3.89-3.14 3.89-7 3.89z"/><path d="M100.32 378.64c-3.86 0-7 1.74-7 3.89s3.13 3.89 7 3.89 7-1.74 7-3.89-3.14-3.89-7-3.89z" style="fill:url(#a64c793c-530e-4d4b-b44c-1abea60f2696)"/></g></g><g id="be075fb4-c1ce-4ad4-bf7a-2721f9f08801" data-name="bebd2999-5292-4b2c-b776-0376d0904198"><g id="e773df5a-527e-43ff-9988-68fea93a4c51" data-name="f7990be4-c304-4dab-911f-2a14bbd5d3b2"><path class="a41f534a-a764-4068-a68c-227834291d0f" d="M225.69 399.93c-3.86 0-8.13 1.53-8.13 4.87 0 2.95 4.11 4.62 7.95 4.62 4.1 0 8-1.73 8-4.88-.04-2.35-3.88-4.61-7.82-4.61zm-.18 8.63c-3.86 0-7-1.74-7-3.89s3.13-3.89 7-3.89 7 1.74 7 3.89-3.14 3.89-7 3.89z"/><path d="M225.51 400.78c-3.86 0-7 1.74-7 3.89s3.13 3.89 7 3.89 7-1.74 7-3.89-3.14-3.89-7-3.89z" style="fill:url(#bd0ad16c-c806-4961-9f0f-05d64b3cecbe)"/></g><g id="a505ff37-bc06-4ee1-9ffe-b13cf400ac29" data-name="aea76cb7-5509-400c-8549-ed92cfd55390"><path class="a41f534a-a764-4068-a68c-227834291d0f" d="M247 399.49c-3.86 0-8.13 1.54-8.13 4.88 0 2.95 4.11 4.62 7.95 4.62 4.1 0 8-1.73 8-4.88-.07-2.35-3.91-4.62-7.82-4.62zm-.18 8.64c-3.86 0-7-1.74-7-3.89s3.13-3.89 7-3.89 7 1.74 7 3.89-3.17 3.89-7 3.89z"/><path d="M246.79 400.35c-3.86 0-7 1.74-7 3.89s3.13 3.89 7 3.89 7-1.74 7-3.89-3.14-3.89-7-3.89z" style="fill:url(#febdacd8-787d-4012-9a2b-37902a3126f2)"/></g><g id="f583c78f-e295-4b5e-9407-c069a1eaf3e3" data-name="ba98a015-766f-4c94-9ac8-cba2f337ab84"><path class="a41f534a-a764-4068-a68c-227834291d0f" d="M264.58 405.18c-3.86 0-8.12 1.53-8.12 4.88 0 2.95 4.1 4.61 7.94 4.61 4.1 0 8-1.73 8-4.88-.04-2.35-3.88-4.61-7.82-4.61zm-.18 8.64c-3.86 0-7-1.75-7-3.89s3.13-3.89 7-3.89 7 1.74 7 3.89-3.14 3.89-7 3.89z"/><path d="M264.4 406c-3.86 0-7 1.74-7 3.89s3.13 3.89 7 3.89 7-1.75 7-3.89-3.14-3.89-7-3.89z" style="fill:url(#f1643659-4f70-4de7-a88b-2f2aa03ef39b)"/></g><g id="a4ef091f-584e-453a-a36a-6c4ceae8dc07" data-name="f7890acc-d5d9-47ea-9dce-2af1c6a37704"><path class="a41f534a-a764-4068-a68c-227834291d0f" d="M258.54 417.44c-3.86 0-8.13 1.53-8.13 4.88 0 2.95 4.11 4.61 8 4.61 4.1 0 8-1.73 8-4.88-.09-2.35-3.93-4.61-7.87-4.61zm-.18 8.64c-3.86 0-7-1.75-7-3.89s3.13-3.89 7-3.89 7 1.74 7 3.89-3.14 3.89-7 3.89z"/><path d="M258.36 418.3c-3.86 0-7 1.74-7 3.89s3.13 3.89 7 3.89 7-1.75 7-3.89-3.14-3.89-7-3.89z" style="fill:url(#f00605a5-80f1-4dcb-97f4-7a30372639f3)"/></g><g id="ac5c6e15-2cad-4810-8df1-086054d551cf" data-name="b815854c-ef93-4f34-9cca-1e1846bd3b6b"><path class="a41f534a-a764-4068-a68c-227834291d0f" d="M240 411.28c-3.86 0-8.13 1.53-8.13 4.88 0 2.95 4.11 4.61 7.95 4.61 4.1 0 8-1.73 8-4.88-.07-2.35-3.91-4.61-7.82-4.61zm-.18 8.63c-3.86 0-7-1.74-7-3.89s3.13-3.89 7-3.89 7 1.75 7 3.89-3.17 3.89-7 3.89z"/><path d="M239.79 412.13c-3.86 0-7 1.75-7 3.89s3.13 3.89 7 3.89 7-1.74 7-3.89-3.14-3.89-7-3.89z" style="fill:url(#b39c7d77-24c3-4dcb-a375-7f8bf7fbfb6e)"/></g><g id="e0ceb3d3-e998-434e-9c08-5ed5adaa6b99" data-name="a772734b-4187-4e17-8521-6800784455e7"><path class="a41f534a-a764-4068-a68c-227834291d0f" d="M217.73 411.28c-3.86 0-8.13 1.53-8.13 4.88 0 2.95 4.11 4.61 8 4.61 4.1 0 8-1.73 8-4.88-.09-2.35-3.93-4.61-7.87-4.61zm-.18 8.63c-3.86 0-7-1.74-7-3.89s3.13-3.89 7-3.89 7 1.75 7 3.89-3.14 3.89-7 3.89z"/><path d="M217.55 412.13c-3.86 0-7 1.75-7 3.89s3.13 3.89 7 3.89 7-1.74 7-3.89-3.14-3.89-7-3.89z" style="fill:url(#b0745891-ea8b-4c74-a9cc-ee2e29397774)"/></g></g><path class="f0e7097c-703c-4a29-b649-da79fa6d3bd7" d="M228.57 237.19v.07l-5.92-1v-.08zM236.56 238.53v.06l-5.72-1v-.06z"/><path class="a922b076-72cf-4243-be45-d599c715eff5" d="m210.17 273.38-65.56-11c-.87-.14-.87-.14-.74-.92.25-1.54.47-3.08.75-4.61.78-4.31 1.48-8.63 2.22-13 .09-.48.22-1 .29-1.44 0-.18.12-.23.31-.19l.75.13 119.31 20a16 16 0 0 1 4.69 1.42 11.56 11.56 0 0 1 5.67 5.9 8.3 8.3 0 0 1 .63 3.88 6.36 6.36 0 0 1-.15 1.14l-1.56 9.36c-.07.39-.13.42-.54.36l-40.11-6.72zm14.68-7.7c-.4 2.35-.79 4.71-1.19 7.07 0 .23 0 .34.3.38 1 .15 1.95.32 2.93.49.51.09.51.09.59-.37q.69-4.22 1.4-8.43c0-.08 0-.21.12-.22s.13.1.17.17c1.69 3.14 3.43 6.26 5.06 9.42a2.39 2.39 0 0 0 3.27.8 2.83 2.83 0 0 0 .28-.2c.9-.94 1.91-1.79 2.87-2.68l4.89-4.53c.08-.07.15-.22.26-.17s0 .2 0 .31v.12c-.47 2.79-.93 5.58-1.4 8.37 0 .25 0 .35.31.4 1 .16 2 .32 3.06.51.34.07.45 0 .49-.32l2.32-13.83a1.29 1.29 0 0 0-.25-1 2.34 2.34 0 0 0-3.26-.37l-2.16 2-8.12 7.4c-.25.23-.28.22-.45-.08-2.2-4.06-4.42-8.11-6.61-12.17a2.15 2.15 0 0 0-1.43-1.06 1.74 1.74 0 0 0-2.23 1.05 2 2 0 0 0-.07.26zm-4.51-.71c.38-2.31.76-4.61 1.16-6.92a1.33 1.33 0 0 0-.45-1.21 2.39 2.39 0 0 0-3.17 0c-2.39 2.24-4.82 4.43-7.24 6.63l-2.95 2.7c-.13.12-.23.25-.37 0l-3.44-6.31c-1.1-2-2.19-4-3.3-6a2.24 2.24 0 0 0-2.21-1 1.53 1.53 0 0 0-1.5 1.37q-1.16 6.86-2.3 13.71c0 .28.05.37.35.41 1 .15 2 .32 3 .5.44.07.45.08.51-.3.46-2.73.91-5.46 1.37-8.19a.93.93 0 0 1 .06-.4c.06-.13 0-.16.11-.17s.1.08.13.14.18.34.28.51c1.63 3 3.29 6 4.88 9.07a2.35 2.35 0 0 0 3.24.68l.11-.08c.47-.47 1-.91 1.48-1.37l6.5-6c.06-.05.09-.14.19-.11s.07.14.06.22c-.14.81-.28 1.62-.41 2.44-.35 2.06-.69 4.13-1 6.2 0 .22 0 .32.29.36l3 .5c.44.07.45.07.52-.31q.51-3.6 1.1-7zm33.15 5.67c-.38 2.28-.76 4.57-1.15 6.85-.06.31.06.41.38.45 1 .16 2 .32 3 .5.33.07.45 0 .5-.31.16-1 .35-2.08.51-3.12 0-.23.12-.33.4-.28l12.77 2.14c.33.05.39.18.34.45-.18 1-.34 2.08-.53 3.12 0 .25 0 .35.32.4 1 .15 2 .32 3 .49.45.07.46.07.53-.34.41-2.44.81-4.88 1.22-7.32a6.88 6.88 0 0 0-2.51-6.52 12.66 12.66 0 0 0-6.36-3c-2.38-.41-4.76-.8-7.13-1.19-.72-.12-1.45-.26-2.17-.35a1.61 1.61 0 0 0-1.9 1.23v.06c-.46 2.27-.83 4.5-1.21 6.74zm-62.24-10.42 1.14-6.79a1.24 1.24 0 0 0 0-.47 1.92 1.92 0 0 0-1.63-1.33c-1.55-.26-3.1-.53-4.65-.77-1.84-.3-3.66-.71-5.51-.87a11.54 11.54 0 0 0-7 1.39 6.56 6.56 0 0 0-3.37 4.67q-.63 3.74-1.25 7.47c-.07.4-.07.4.36.47 1 .17 2 .32 2.93.5.33.06.45 0 .5-.31.15-1 .34-2.06.5-3.09 0-.29.17-.35.48-.3l12.67 2.12c.34 0 .42.16.37.46-.19 1-.35 2.08-.54 3.11 0 .26 0 .36.32.4 1 .16 2 .32 3 .51.33.06.44 0 .49-.32.42-2.28.81-4.57 1.19-6.85zm-38.3 1 6.47 1.08a8 8 0 0 0 2.76 0 3.92 3.92 0 0 0 3.34-2.92c.64-3.78 1.26-7.55 1.9-11.33.05-.27 0-.37-.33-.42-1-.15-2-.32-3-.5-.36-.07-.46 0-.51.33q-.92 5.58-1.86 11.15a1.09 1.09 0 0 1-1.19 1h-.05a4.41 4.41 0 0 1-.73-.08c-1-.18-2-.37-3.06-.54l-7-1.15c-.28-.05-.35-.15-.31-.38.11-.59.19-1.18.31-1.76.06-.28 0-.4-.35-.45-.84-.13-1.68-.26-2.52-.42-.34-.07-.44 0-.49.32-.24 1.49-.49 3-.74 4.45-.07.42-.07.42.42.5zM230.83 237.63l5.72 1c.15.09.15.2.13.35-.37 2.17-.73 4.34-1.11 6.51 0 .29 0 .38.34.43 3.09.5 6.18 1 9.27 1.54.32 0 .34.16.31.44-.06.67-.23 1.33-.32 2-.22 1.55-.54 3.09-.8 4.63-.1.59-.17 1.19-.26 1.78 0 .2-.12.31-.4.26L228.57 254c-.65-.11-.65-.11-.56-.68q1.29-7.69 2.57-15.38c.02-.15.02-.31.25-.31zm3.94 12.7c-.13.78-.25 1.56-.39 2.34 0 .27 0 .38.33.43 1.06.16 2.11.34 3.16.53.32.06.44 0 .49-.31.25-1.55.51-3.1.78-4.66 0-.24 0-.34-.31-.38q-1.62-.25-3.24-.54c-.28-.05-.39 0-.43.27-.16.78-.26 1.55-.39 2.32zM255.63 249.17c2.55.43 5.09.86 7.64 1.27.34.06.42.17.37.47q-.7 4.14-1.39 8.3c-.07.37-.1.4-.52.33L246.38 257c-.27-.05-.34-.16-.3-.39q.72-4.22 1.41-8.43c0-.28.18-.33.47-.28 2.55.44 5.11.86 7.67 1.29zm1.31 4.88c.14-.8.27-1.6.41-2.4 0-.23 0-.36-.3-.4l-3.44-.58c-.26 0-.38 0-.42.27l-.81 4.85c0 .25.05.36.33.41l3.37.56c.3.06.42 0 .46-.3.13-.8.27-1.6.4-2.41zM173.53 244.78l-7.64-1.27c-.31 0-.37-.15-.33-.42q.72-4.2 1.42-8.42c0-.25.13-.32.4-.27l15.36 2.6c.41.07.43.11.37.49-.26 1.55-.53 3.11-.78 4.66 0 .31-.17.37-.5.32-3.07-.53-6.15-1-9.22-1.55-.46-.08-.46-.08-.52.32a9 9 0 0 1-.19 1c-.08.3 0 .35.31.4 2.06.33 4.11.68 6.17 1l3.16.53c.32.05.42.17.37.44s-.14.74-.19 1.11-.18.38-.51.32zm.92-5.45c.56.1 1.13.18 1.69.29.25 0 .35 0 .38-.25a6 6 0 0 1 .2-1.17c0-.21 0-.32-.26-.36l-3.41-.57c-.22 0-.33 0-.36.23q-.08.62-.18 1.23c0 .23.06.3.29.33.55.07 1.1.17 1.65.27zM211.28 241.75l7.64 1.28c.44.07.5.14.42.52-.43 2-.7 4-1.05 6-.14.74-.27 1.48-.37 2.23 0 .29-.15.37-.49.31-2.08-.36-4.17-.7-6.26-1l-9-1.51c-.42-.07-.43-.08-.37-.47.26-1.56.53-3.11.77-4.67 0-.32.18-.37.52-.31l9.16 1.54c.46.07.46.07.53-.33s.09-.67.17-1 0-.4-.36-.46c-2.34-.37-4.68-.77-7-1.16l-2.31-.38c-.24 0-.32-.12-.28-.34a9.09 9.09 0 0 0 .21-1.27c0-.27.16-.31.43-.26l5.37.9 2.27.38zm-1.15 7.25c.55.09 1.11.17 1.66.27.21 0 .33 0 .36-.21l.21-1.23c0-.19-.05-.29-.27-.33l-3.33-.56c-.24 0-.35 0-.38.24a5.71 5.71 0 0 1-.19 1.17c-.05.23.05.33.29.37.52.07 1.1.17 1.65.28zM268.74 251.36c.87.15 1.74.31 2.62.44.31 0 .38.18.34.43-.08.4-.13.8-.21 1.2 0 .21 0 .3.27.34l3.36.56c.28 0 .38 0 .41-.27s.15-.82.2-1.23c0-.23.15-.27.37-.24l5.4.91c.21 0 .3.13.27.33-.08.43-.16.86-.22 1.29 0 .23-.16.29-.41.25-.44-.09-.89-.15-1.34-.24-.24 0-.33 0-.36.24-.05.4-.13.8-.19 1.2 0 .23-.15.3-.4.25-.47-.08-.94-.15-1.41-.24-.17 0-.24 0-.29.17-.13.44-.08.91-.25 1.34-.07.18.07.24.24.27l1.38.22c.28 0 .38.15.33.41s-.13.78-.21 1.17c0 .21.05.31.28.34l1.34.22c.25 0 .34.13.3.36-.09.42-.17.84-.22 1.27 0 .22-.15.27-.36.24l-.65-.11-4.62-.77c-.45-.08-.45-.08-.38-.49s.12-.76.19-1.14c.05-.21 0-.3-.27-.34l-3.44-.58c-.22 0-.29 0-.31.21-.06.4-.16.8-.19 1.21s-.19.37-.5.32l-4.72-.8c-1.16-.19-.93-.1-.8-1a6.33 6.33 0 0 1 .12-.74c0-.25.16-.29.4-.25.45.09.9.15 1.34.24.27 0 .39 0 .42-.26s.14-.78.19-1.17.16-.31.41-.26c.46.09.92.15 1.37.24.21 0 .3 0 .32-.2.06-.43.13-.85.22-1.27 0-.21-.05-.28-.26-.31l-1.38-.23c-.24 0-.34-.12-.29-.36s.14-.78.21-1.17c0-.23 0-.35-.31-.38s-.9-.15-1.35-.22c-.25 0-.34-.14-.29-.37q.12-.63.21-1.26c0-.24.16-.29.4-.24zM222.64 236.28l5.92 1a.42.42 0 0 1 .05.36q-1.31 7.77-2.6 15.56c0 .28-.17.37-.48.31s-.88-.19-1.33-.26l-3.89-.62c-.46-.08-.45-.08-.39-.49q1.31-7.74 2.6-15.49c.02-.14 0-.28.12-.37zM191.71 247.82l-7.71-1.28c-.3 0-.4-.14-.35-.43q.72-4.2 1.41-8.4c0-.26.15-.32.42-.27l15.39 2.56c.31.05.42.18.36.45s-.11.72-.19 1.08-.13.41-.55.34l-4.16-.7-5.06-.85c-.28 0-.37 0-.41.25-.22 1.39-.46 2.78-.69 4.17v.26c-.11.6-.11.6.58.72l8.92 1.49c.42.07.45.11.39.5s-.15.72-.18 1.08-.19.35-.48.3c-.56-.11-1.12-.2-1.68-.29z"/><path d="M291.07 282.1c-.25 1.47-.49 2.94-.74 4.41-.07.42-.07.42-.51.34l-4.27-.71c-.27 0-.37-.13-.3-.37a5.43 5.43 0 0 0 .11-.62c0-.21-.06-.27-.25-.29l-.49-.05c-.39-.06-.49 0-.51.37v.19c0 .43-.14.5-.63.42-1.39-.23-2.79-.47-4.19-.69-.32-.05-.4-.19-.36-.45.5-3 1-5.91 1.49-8.86.06-.36.14-.42.55-.33 2.95.58 5.92 1 8.87 1.52.52.09 1 .13 1.55.22s.47.1.4.52c-.24 1.46-.49 2.92-.73 4.38zm-8.37-.17 1.58.27c.22 0 .32 0 .35-.22.1-.59.2-1.19.31-1.79 0-.21-.06-.3-.29-.34l-3.13-.52c-.21 0-.31 0-.35.22-.08.59-.18 1.19-.29 1.79 0 .21 0 .31.27.34zm5.47-1.49-1.55-.26c-.25-.05-.36 0-.39.24-.09.59-.19 1.19-.29 1.78-.05.23.05.29.28.33l3 .51c.28 0 .39 0 .43-.27.08-.56.17-1.13.28-1.69 0-.23 0-.35-.3-.39z" style="fill:#2785db"/><path d="M292.87 271.31c-.25 1.48-.5 3-.74 4.44-.07.38-.11.4-.52.34l-2.86-.48c-.41-.07-.49-.18-.43-.54.14-.85.28-1.71.43-2.56v-.1c.2-.63.12-.52.72-.43l1.48.25c.26 0 .4 0 .44-.25.09-.59.19-1.18.29-1.76 0-.21 0-.33-.3-.38l-8-1.34c-.26 0-.39.05-.42.28-.09.57-.19 1.14-.28 1.7 0 .23.05.36.31.41l3.06.52a.25.25 0 0 0 .32-.15 1.73 1.73 0 0 0 .12-.64c0-.19.11-.24.27-.29a.34.34 0 0 1 .2 0c.85.09.89.14.77.88-.21 1.26-.43 2.51-.63 3.77 0 .26-.17.34-.43.3l-5.43-.91c-.49-.08-.55-.15-.48-.58.49-3 1-5.91 1.48-8.87 0-.17.09-.23.28-.22a3.78 3.78 0 0 1 .83.08l9.77 1.63c.55.09.55.1.47.6l-.72 4.32z" style="fill:#44c047"/><path d="M289.84 254.78c1.75.29 3.49.59 5.24.87.3 0 .4.13.35.42-.51 3-1 5.95-1.49 8.92-.05.3-.16.38-.49.32-1.4-.25-2.8-.48-4.2-.71-.36-.06-.42-.15-.36-.47a1.87 1.87 0 0 1 .08-.34c.08-.47.08-.47-.46-.56h-.21c-.5-.08-.51-.08-.54.39 0 .18-.1.34-.11.52s-.18.19-.35.16l-4.44-.74a.27.27 0 0 1-.29-.35c.17-1 .35-2 .51-3.06 0-.28.23-.27.45-.23l1.83.3c.8.15 1.61.24 2.4.44.25.06.44 0 .48-.27.07-.57.17-1.14.28-1.7.05-.27 0-.38-.34-.43-1.42-.22-2.83-.47-4.24-.7-.29 0-.4-.12-.35-.4.18-1 .33-2 .48-3 0-.26.15-.33.44-.28 1.77.31 3.55.6 5.33.9zm1.49 6.43 1.54.26c.22 0 .35 0 .39-.21.09-.61.19-1.22.3-1.82 0-.2 0-.32-.27-.35l-3.09-.52c-.22 0-.32 0-.35.21-.09.63-.2 1.25-.31 1.88 0 .18 0 .26.24.29z" style="fill:#eb1416"/><path class="a922b076-72cf-4243-be45-d599c715eff5" d="m156.94 232.66 7.54 1.26c.53.09.53.09.45.57s-.13.7-.17 1-.16.33-.44.28L155 234.2c-.33 0-.41 0-.45.3-.35 2.17-.72 4.33-1.07 6.49-.05.31-.2.36-.51.31l-5.19-.87c-.3 0-.4-.14-.35-.42q.72-4.19 1.4-8.39c.05-.31.19-.34.48-.29z"/><path class="f0e7097c-703c-4a29-b649-da79fa6d3bd7" d="M224.85 265.68 226 259a1.74 1.74 0 0 1 2-1.42l.33.09a2.15 2.15 0 0 1 1.43 1.06c2.19 4.06 4.41 8.11 6.61 12.17.17.3.2.31.45.08l8.14-7.43 2.16-2a2.34 2.34 0 0 1 3.26.37 1.29 1.29 0 0 1 .25 1q-1.17 6.91-2.32 13.83c0 .29-.15.39-.49.32-1-.19-2-.35-3.06-.51-.3-.05-.36-.15-.31-.4.47-2.79.93-5.58 1.4-8.37v-.12s.11-.25 0-.31-.18.1-.26.17l-4.89 4.53c-1 .89-2 1.74-2.87 2.68a2.38 2.38 0 0 1-3.35-.32 2.83 2.83 0 0 1-.2-.28c-1.63-3.16-3.37-6.28-5.06-9.42 0-.07-.06-.19-.17-.17s-.11.14-.12.22c-.47 2.81-.93 5.62-1.4 8.43-.08.46-.08.46-.59.37-1-.17-1.95-.34-2.93-.49-.28 0-.34-.15-.3-.38.4-2.36.79-4.72 1.19-7.07zM220.34 265c-.39 2.31-.78 4.62-1.16 6.95-.07.38-.08.38-.52.31l-3-.5c-.27 0-.32-.14-.29-.36.36-2.07.7-4.14 1-6.2.13-.82.27-1.63.41-2.44 0-.08.06-.18-.06-.22s-.13.06-.19.11l-6.5 6c-.5.46-1 .9-1.48 1.37a2.33 2.33 0 0 1-3.27-.49.76.76 0 0 1-.08-.11c-1.59-3-3.25-6.05-4.88-9.07-.1-.17-.19-.34-.28-.51s0-.14-.13-.14-.1.1-.11.17a1.33 1.33 0 0 1-.06.4c-.46 2.73-.91 5.46-1.37 8.19-.06.38-.07.37-.51.3-1-.18-2-.35-3-.5-.3 0-.4-.13-.35-.41q1.16-6.86 2.3-13.71a1.53 1.53 0 0 1 1.5-1.37 2.24 2.24 0 0 1 2.21 1c1.11 2 2.2 4 3.3 6l3.44 6.31c.14.27.24.14.37 0l3-2.7c2.42-2.2 4.85-4.39 7.24-6.63a2.39 2.39 0 0 1 3.17 0 1.33 1.33 0 0 1 .45 1.21c-.4 2.31-.78 4.61-1.16 6.92zM253.49 270.64c.38-2.24.75-4.47 1.13-6.7a1.6 1.6 0 0 1 1.85-1.3h.06c.72.09 1.45.23 2.17.35 2.37.39 4.75.78 7.13 1.19a12.66 12.66 0 0 1 6.36 3 6.88 6.88 0 0 1 2.51 6.52q-.6 3.66-1.22 7.32c-.07.41-.08.41-.53.34-1-.17-2-.34-3-.49-.29 0-.37-.15-.32-.4.19-1 .35-2.08.53-3.12 0-.27 0-.4-.34-.45l-12.77-2.14c-.28 0-.36 0-.4.28-.16 1-.35 2.08-.51 3.12-.05.3-.17.38-.5.31-1-.18-2-.34-3-.5-.32 0-.44-.14-.38-.45.39-2.28.77-4.57 1.15-6.85zM264 273l6.37 1.07c.3 0 .43 0 .46-.28s.08-.52.12-.78a4.28 4.28 0 0 0-1.54-4.2 8.46 8.46 0 0 0-4-1.85c-2.25-.43-4.52-.78-6.77-1.17-.34-.06-.36.12-.4.33q-.44 2.69-.9 5.37c0 .29 0 .4.36.46zM191.25 260.22c-.38 2.28-.77 4.57-1.14 6.85-.05.3-.16.38-.49.32-1-.19-2-.35-3-.51-.29 0-.36-.14-.32-.4.19-1 .35-2.08.54-3.11 0-.3 0-.41-.37-.46l-12.67-2.12c-.31-.05-.44 0-.48.3-.16 1-.35 2.05-.5 3.09 0 .3-.17.37-.5.31l-2.93-.5c-.43-.07-.43-.07-.36-.47q.61-3.74 1.25-7.47a6.56 6.56 0 0 1 3.37-4.67 11.54 11.54 0 0 1 7-1.39c1.85.16 3.67.57 5.51.87 1.55.24 3.1.51 4.65.77a1.91 1.91 0 0 1 1.59 1.37 1.24 1.24 0 0 1 0 .47l-1.14 6.79zm-10.67-1.14c2.11.35 4.22.7 6.33 1.07.32.05.44 0 .48-.29.3-1.81.6-3.63.91-5.44 0-.26 0-.37-.33-.42q-3-.48-6-1a11.36 11.36 0 0 0-3.77 0 4.88 4.88 0 0 0-3.81 2.54 7.66 7.66 0 0 0-.52 2c-.07.4-.07.41.4.48zM153 261.25l-7-1.17c-.49-.08-.49-.08-.42-.5.25-1.48.5-3 .74-4.45.05-.28.15-.39.49-.32.84.16 1.68.29 2.52.42.31.05.41.17.35.45-.12.58-.2 1.17-.31 1.76 0 .23 0 .33.31.38l7 1.15 3.06.54a4.41 4.41 0 0 0 .73.08 1.08 1.08 0 0 0 1.23-.9v-.05q.94-5.58 1.86-11.15c0-.3.15-.4.51-.33 1 .18 2 .35 3 .5.3.05.38.15.33.42-.64 3.78-1.26 7.55-1.9 11.33a3.92 3.92 0 0 1-3.34 2.92 8 8 0 0 1-2.76 0z"/><path class="a922b076-72cf-4243-be45-d599c715eff5" d="m264 273-6.33-1c-.34-.06-.41-.17-.36-.46q.46-2.69.9-5.37c0-.21.06-.39.4-.33 2.25.39 4.52.74 6.77 1.17a8.46 8.46 0 0 1 4 1.85 4.28 4.28 0 0 1 1.54 4.2c0 .26-.1.52-.12.78s-.16.33-.46.28zM180.58 259.08l-6.3-1.06c-.47-.07-.47-.08-.4-.48a7.66 7.66 0 0 1 .52-2 4.88 4.88 0 0 1 3.81-2.54 11.36 11.36 0 0 1 3.77 0l6 1c.31.05.38.16.33.42-.31 1.81-.61 3.63-.91 5.44 0 .29-.16.34-.48.29-2.11-.37-4.22-.72-6.33-1.07z"/></g><g id="a6513c65-1ae4-4d6d-b11f-f3663a2758a8" data-name="Calque 1"><path d="m275.68 91.76 18.11 2.91 8.45-7.67-31-4.86-28.89 25.28-4-.41.09-28.55-16.17 14.48-3.85-.13V75.56L185.66 104l-4.06-.19.3-34.35L153.56 95l-3.71-.56-.47-28.74-15.18 13.57-4.2-.43.13-17-39.77 35.81 13.07 1.85 17.17-14.75 3.31.51-.13 17.56 13.75-12.53 3.3.52v15l-15.14 13.28 14.53 2.12L169 95.53l3.89.61v14.91l18.06 3 17.54-15.49 3.4.3v17.29l14.08-12.31 3.34.52.24 14.72-.29.72 43 6.84 8.29-7.28-26.85-4.71-.25-4 4.17-3.85 10.12 1.59 8.8-7.76-5.33-1.06v-3.88" style="fill:url(#b367c447-da70-4eef-9689-a682e274a9c8)"/><path d="M129.35 63.43 91.11 97.54l-4.31 1s-.23 0-.11-.19c0 0 44.33-39.58 44.41-39.64s.18 0 .18 0z" style="fill:url(#a89ab347-10a1-49f8-913a-c97bf15f7f86)"/><path d="M141.29 106.11 127 118.74l-4.21 1.09s-.22 0-.09-.18l16.71-14.71z" style="fill:url(#a2d58c0d-fc56-4e22-bda2-a68c22cc45ba)"/><path d="M104.48 101.38 86.8 98.56l4.32-1 12.31 2" style="fill:url(#a74a6a60-ed64-4fc7-adda-ede3d2d19b3f)"/><path d="m140.92 122.75-18.12-2.92 4.21-1.09 12.91 2.08" style="fill:url(#a649de83-36d8-4db6-9bcf-ca90dc0df645)"/><path d="m273.16 128.24-45.1-7.19 1.49-1.55 42.32 6.73" style="fill:url(#b054aff6-690b-4710-99a2-560e12fd9707)"/><path d="m191.78 115.63-19.91-3.19a1 1 0 0 1-.31-.18l1.76-1.37 17.4 2.77 1.06 2z" style="fill:url(#b6581b52-c92a-4c2d-a13f-e1da2c7aa262)"/><path d="m270.2 80.48 35.27 5.39c.31 0 .31.18.31.18l-4.22 1.2-29.89-4.58-1.47-2.19z" style="fill:url(#a79f6a32-6d78-4c62-9889-3ea5346665a7)"/><path d="m294.7 96.18-18.43-2.85-.82-1.83 18 2.77" style="fill:url(#b9350a83-a249-418d-b335-30375af2c8a8)"/><path d="m268.71 109.8-9.71-1.54-1.62-1.75 10.11 1.58" style="fill:url(#e8ff563d-9b3a-4d64-8b41-7e3abe27fc6e)"/><path d="m275.92 100.74-5.38-.84-.47-2.32 10.09 1.57a.19.19 0 0 1 .18.08z" style="fill:url(#ab7123f6-da35-40f4-be9b-ce9360d8cf4a)"/><path d="m122.61 85.2-18.13 16.18-1-1.88 17.63-15.6a1.71 1.71 0 0 1 1.78-.41z" style="fill:url(#a92be776-467d-4862-9951-89abed416d11)"/><path d="M129.38 78.73V63.42l1.92-4.67s.11 0 .11.24v21.34l-.12.9a2.53 2.53 0 0 1-1.91-2.5z" style="fill:url(#ac245618-8bca-481c-a44a-e68e89a45b70)"/><path d="M151.64 97s-2.51.38-2.54-2.64 0-27.63 0-27.63l2-5.24s.07 0 .07.3v32.63l.49 2.58z" style="fill:url(#f1ce1f64-1da0-45cd-81c2-264884318d0a)"/><path d="M183.55 106.08a2.58 2.58 0 0 1-2.31-2.81l-.05-32.06 1.81-4.56a.41.41 0 0 1 .23.4v36.51l.3 2.52z" style="fill:url(#b3f7e96d-ff9f-4c4f-8e67-01f02c1202f8)"/><path d="M219.78 95.11a2.49 2.49 0 0 1-2.23-2.18v-16l1.71-4.63a.41.41 0 0 1 .22.39v20l.3 2.41z" style="fill:url(#e012ae14-dc4f-4247-9cb4-16f17f0bdf47)"/><path d="M240 109.53a2.42 2.42 0 0 1-2.28-2.12V80.09l1.9-4.77s.11.1.11.7v31.18l.27 2.33z" style="fill:url(#a59933f8-4cf2-415f-a232-c34d54c5d22e)"/><path d="M123 105.19a.47.47 0 0 1-.31-.51c0-.36-.06-19.48-.06-19.48a1.53 1.53 0 0 1 .23-1.71 2.44 2.44 0 0 1 1.56 1.94v16z" style="fill:url(#ada7f126-817c-4560-a4c5-0d011ac9c56c)"/><path d="m139.37 91-15.94 14.15c-.13.13-.45 0-.45 0l1.44-3.73 13.72-12.18a1.53 1.53 0 0 1 1.46-.42z" style="fill:url(#e5424b7c-0606-4254-94fb-72a1734f1bd9)"/><path d="m305.7 86.61-11 9.57-1.24-1.91 8.09-7 4.23-1.2s.14.34-.08.54z" style="fill:url(#b93d0aad-7805-49b0-907f-cc324fd0b4aa)"/><path d="M139.42 104.94V91a2.3 2.3 0 0 1 .23-2.14 2.18 2.18 0 0 1 1.66 1.91v15.34z" style="fill:url(#a458bfa0-c13a-446e-ad16-135430255ef7)"/><path d="M149.05 66.74 133.23 80.8a2.41 2.41 0 0 1-1.92.43 2.18 2.18 0 0 1 .12-2.39l19.4-17.26c.13-.15.21-.08.21-.08z" style="fill:url(#baf8b2c0-9e55-4413-937c-d47d53fce4e7)"/><path d="m181.19 71.21-28.58 25.27a1.71 1.71 0 0 1-1 .53 1.89 1.89 0 0 1-.47-2.57L182.3 66.9c.37-.38.68-.25.68-.25z" style="fill:url(#b5804600-46c5-4bbc-8c7f-e17f94252cfd)"/><path d="m217.53 76.94-32.66 28.7a2 2 0 0 1-1.32.44c-1.2-.82-.3-2.53-.3-2.53s35.16-30.86 35.3-31a.64.64 0 0 1 .69-.24l-1.71 4.63z" style="fill:url(#ec66d56b-1693-4492-ab59-1b03802b9623)"/><path d="m237.72 80.09-16.63 14.56a2.07 2.07 0 0 1-1.31.46c-1.15-.94-.24-2.44-.24-2.44l19.54-17.17c.41-.35.54-.18.54-.18z" style="fill:url(#fea2f56a-258e-44f5-9ec6-01e9385e35d7)"/><path d="m280.35 99.7-11.64 10.1-1.26-1.71 8.47-7.35 4.42-1.51s.16.15 0 .47z" style="fill:url(#a70b73b1-48d1-44dc-9d7a-b10e47079734)"/><path d="m284.6 118.43-11.44 9.81-1.29-2 7.94-6.87 4.88-1.42a.38.38 0 0 1-.09.48z" style="fill:url(#ef607203-6ec1-4742-867a-43932b76cd72)"/><path d="m271.67 82.67-30.32 26.41a2.07 2.07 0 0 1-1.33.45 2.23 2.23 0 0 1-.27-2.45l30.45-26.6z" style="fill:url(#a6c6ab40-0dbd-45bc-abf9-b4a19485d546)"/><path d="m276.27 93.33-5 4.41a2.08 2.08 0 0 0-.71 2.16 2.14 2.14 0 0 1-.82-3.43l5.73-5z" style="fill:url(#b282d807-b92b-4374-8a7b-346107168dbc)"/><path d="m139.92 120.82 29.83-26.33a1.72 1.72 0 0 1 1.65-.49l-.18 2.06-30.3 26.66z" style="fill:url(#e16dc0e4-e6cf-4feb-bb52-d06a6c258e55)"/><path d="m190.72 113.66 18.48-16.21a1.76 1.76 0 0 1 1.66-.45l-.33 2.21-18.75 16.42z" style="fill:url(#b08c8f21-ddb3-474d-92b1-641174957604)"/><path d="m212.4 115.2 14.34-12.54a1.51 1.51 0 0 1 1.33-.5v2.21L211.23 119a.36.36 0 0 1-.4.09l1.57-3.92z" style="fill:url(#ec7f15f4-530f-47b3-bb92-f32a7e4703f8)"/><path d="m224.83 120.32 2.84-2.48 2.17 1.28-.29.38-1.49 1.55-.1.1-3-.48a.35.35 0 0 1-.21-.14s-.06-.07.1-.21z" style="fill:url(#a98bfc17-92bb-4608-981a-7d3f1e337104)"/><path d="m171.28 111.5-.06-15.4a1.75 1.75 0 0 1 .18-2.1 2.51 2.51 0 0 1 1.9 2.18v14.68l-1.76 1.37a1 1 0 0 1-.28-.76z" style="fill:url(#bfe5ed59-8769-411c-b408-2b67b76a3d2c)"/><path d="m210.58 118.81-.05-19.6a2.08 2.08 0 0 1 .33-2.21c.24 0 1.27.39 1.52 2.13v16.07l-1.57 3.93a.43.43 0 0 1-.25-.32z" style="fill:url(#e8e9083e-e01d-4c07-8397-4829c18d8411)"/><path d="M227.67 117.84v-13.15a2.08 2.08 0 0 1 .42-2.54 2.11 2.11 0 0 1 1.76 2v15z" style="fill:url(#a22d9868-01e8-4f15-a930-c5210ad3ce27)"/><path d="m259 108.26-5.3 4.62-1.51 1.71a2.21 2.21 0 0 1-.36-3.26l5.55-4.82 1.62 1.75z" style="fill:url(#bca08583-da40-4835-844a-29dad7f6ae8f)"/><path d="m279.81 119.36-26.25-4.15a3.27 3.27 0 0 1-1.41-.62 1.79 1.79 0 0 1 1.51-1.71l30.77 4.85a.33.33 0 0 1 .26.22z" style="fill:url(#b5872e87-1320-43e0-9bc7-536c915c7a13)"/><path d="M86 107.68v-3.76l1.09.17.65 2.67.64-2.46 1.09.17v3.77l-.67-.11v-3l-.7 2.87-.7-.12-.71-3.07v3zm6.5-2.68.72.11v2a4.14 4.14 0 0 0 0 .64.69.69 0 0 0 .22.4.83.83 0 0 0 .48.22.65.65 0 0 0 .46-.06.41.41 0 0 0 .19-.29 4.71 4.71 0 0 0 0-.64v-2.08l.72.12v2a5 5 0 0 1-.06.94.87.87 0 0 1-.22.44.86.86 0 0 1-.42.24 1.58 1.58 0 0 1-.69 0 2.1 2.1 0 0 1-.78-.25 1.32 1.32 0 0 1-.42-.39 1.27 1.27 0 0 1-.2-.45 4.56 4.56 0 0 1-.08-1v-2zm6 4.72v-3.74l.73.12v3.1l1.81.29v.64l-2.53-.41zm5.8.93v-3.13l-1.07-.17v-.64l2.86.46v.64l-1.09-.21v3.13zm4.56.74v-3.78l.72.12v3.77zm3.75.6v-3.78l1.17.19a4.35 4.35 0 0 1 .87.2 1.24 1.24 0 0 1 .52.45 1.36 1.36 0 0 1 .21.77 1.2 1.2 0 0 1-.12.57.8.8 0 0 1-.31.32.89.89 0 0 1-.38.12 5.28 5.28 0 0 1-.75-.07l-.48-.08v1.43l-.73-.12zm.72-3V110l.4.06a1.87 1.87 0 0 0 .58 0 .44.44 0 0 0 .22-.15.45.45 0 0 0 .09-.28.56.56 0 0 0-.12-.36.7.7 0 0 0-.29-.22 4.23 4.23 0 0 0-.53-.1l-.35-.06zm5 3.94v-3.75l.73.11v3.12l1.81.29v.63l-2.54-.4zm5.39.86V110l2.68.43v.57l-2-.31v.83l1.82.3v.63l-1.82-.29v1l2 .33v.63l-2.76-.44zm34.53 5.55-.8-.13-.32-.92-1.46-.23-.3.82-.78-.13 1.41-3.57.78.13zm-1.36-1.72-.51-1.49-.49 1.33zm4.11 2.16v-3.8l1.56.25a2.67 2.67 0 0 1 .85.24 1 1 0 0 1 .43.43 1.33 1.33 0 0 1 .16.62.9.9 0 0 1-.24.67 1 1 0 0 1-.73.24 2.44 2.44 0 0 1 .4.38 5.87 5.87 0 0 1 .42.69l.45.81-.89-.14-.53-.92c-.19-.32-.32-.53-.39-.62a.93.93 0 0 0-.22-.19 1.55 1.55 0 0 0-.38-.1h-.14v1.59l-.74-.12zm.73-2.08.55.09a2.43 2.43 0 0 0 .66.06.32.32 0 0 0 .21-.12.47.47 0 0 0 .08-.28.55.55 0 0 0-.1-.32.58.58 0 0 0-.28-.2c-.06 0-.24-.05-.54-.09l-.58-.1v1zm7.66 2 .72.35a1.39 1.39 0 0 1-.55.84 1.34 1.34 0 0 1-1 .14 1.83 1.83 0 0 1-1.2-.71 2.28 2.28 0 0 1-.48-1.49 1.88 1.88 0 0 1 .47-1.4 1.4 1.4 0 0 1 1.25-.32 1.82 1.82 0 0 1 1.09.58 1.92 1.92 0 0 1 .38.77l-.74.06a1 1 0 0 0-.27-.51.86.86 0 0 0-.5-.25.68.68 0 0 0-.66.2 1.28 1.28 0 0 0-.25.94 1.82 1.82 0 0 0 .25 1.07 1 1 0 0 0 .65.41.62.62 0 0 0 .5-.12.89.89 0 0 0 .31-.56zm7 2.53-.81-.13-.32-.92-1.47-.24-.3.82-.79-.13 1.43-3.57.78.12 1.48 4zm-1.39-1.76-.5-1.47-.49 1.33zm4.12-1.64 1.36.22a2.8 2.8 0 0 1 .7.18 1.55 1.55 0 0 1 .55.44 2.14 2.14 0 0 1 .35.67 3.18 3.18 0 0 1 .12.93 2.32 2.32 0 0 1-.11.79 1.4 1.4 0 0 1-.39.61 1.08 1.08 0 0 1-.52.22 1.92 1.92 0 0 1-.66 0l-1.4-.22v-3.81zm.74.76v2.53l.56.09a2 2 0 0 0 .45 0 .57.57 0 0 0 .3-.11.63.63 0 0 0 .19-.34 2.38 2.38 0 0 0 .08-.68 2.41 2.41 0 0 0-.08-.69 1 1 0 0 0-.21-.4.79.79 0 0 0-.35-.24 3.64 3.64 0 0 0-.6-.13l-.34-.06zm5.35 4v-3.79l2.73.44v.65l-2-.32v.84l1.85.3v.64l-1.85-.3v1l2.06.33v.64l-2.8-.44zm8.95 1.43v-3.81l1.12.18.67 2.71.66-2.5 1.12.18v3.82l-.69-.11v-3l-.73 2.89-.72-.12-.74-3.12v3l-.69-.11zm10 1.61-.81-.13-.33-.92-1.48-.23-.3.82-.79-.13 1.43-3.59.79.12zm-1.38-1.73-.51-1.5-.5 1.34zm6.53 1.15.73.36a1.4 1.4 0 0 1-.56.84 1.42 1.42 0 0 1-1 .15 1.89 1.89 0 0 1-1.22-.72 2.38 2.38 0 0 1-.47-1.5 1.82 1.82 0 0 1 .47-1.4 1.4 1.4 0 0 1 1.26-.33 1.78 1.78 0 0 1 1.1.59 1.92 1.92 0 0 1 .39.77l-.74.06a1 1 0 0 0-.28-.51.9.9 0 0 0-.51-.26.71.71 0 0 0-.66.2 1.37 1.37 0 0 0-.26 1 1.9 1.9 0 0 0 .25 1.07 1 1 0 0 0 .66.42.64.64 0 0 0 .51-.12 1 1 0 0 0 .31-.57zm3.76 2v-3.83l.75.12v1.5l1.46.24v-1.51l.75.12v3.83l-.75-.12v-1.67l-1.47-.24v1.68zm6.11 1v-3.83l.75.12v3.83zm3.87.62v-3.83l.73.11 1.52 2.81v-2.56l.7.11v3.83l-.75-.12-1.51-2.74v2.5zm6.15 1v-3.84l2.77.44v.65l-2-.32v.85l1.87.3v.64l-1.87-.3v1l2.08.33v.65l-2.83-.45zm9.36 1.5v-3.84l2.77.44v.65l-2-.32v.9l1.88.3v.65l-1.88-.3v1l2.08.34v.65l-2.84-.46zm5.88.95v-3.85l1.13.18.68 2.73.67-2.51 1.14.18v3.85l-.7-.12v-3l-.75 2.9-.72-.11-.75-3.15v3zm6.78-2.76.75.12v2.08a4.3 4.3 0 0 0 0 .65.73.73 0 0 0 .23.41 1 1 0 0 0 .5.23.73.73 0 0 0 .49-.06.45.45 0 0 0 .2-.3 4.78 4.78 0 0 0 0-.65v-2.13l.76.12v2a5.34 5.34 0 0 1-.06 1 .89.89 0 0 1-.23.44.9.9 0 0 1-.44.24 1.72 1.72 0 0 1-.72 0 2.27 2.27 0 0 1-.82-.25 1.51 1.51 0 0 1-.43-.4 1.22 1.22 0 0 1-.21-.47 4.1 4.1 0 0 1-.08-1v-2.05zm6.22 4.84v-3.8l.76.13v3.17l1.89.3v.65l-2.65-.43zm9 1.45-.82-.13-.33-.93-1.51-.24-.31.82-.8-.13 1.46-3.62.8.13 1.51 4.1zm-1.4-1.75-.52-1.51-.5 1.34zm4.69 2.28V134l-1.12-.18v-.65l3 .48v.65l-1.11-.18v3.21zm4.57-1.18a2.22 2.22 0 0 1 .18-1 1.35 1.35 0 0 1 .35-.47 1 1 0 0 1 .49-.27 1.81 1.81 0 0 1 .81 0 2 2 0 0 1 1.33.74 2.32 2.32 0 0 1 .51 1.55 1.76 1.76 0 0 1-.5 1.38 1.52 1.52 0 0 1-1.33.32 2.11 2.11 0 0 1-1.34-.74 2.4 2.4 0 0 1-.5-1.53zm.79.1a1.65 1.65 0 0 0 .3 1 1.14 1.14 0 0 0 .75.46.83.83 0 0 0 .75-.21 1.37 1.37 0 0 0 .29-1 1.66 1.66 0 0 0-.29-1 1.14 1.14 0 0 0-.75-.45.83.83 0 0 0-.76.21 1.32 1.32 0 0 0-.29 1.01zM281 139v-3.86l1.6.26a2.73 2.73 0 0 1 .88.24 1.1 1.1 0 0 1 .44.44 1.3 1.3 0 0 1 .17.64 1 1 0 0 1-.25.68 1 1 0 0 1-.75.23 3.1 3.1 0 0 1 .41.39 7 7 0 0 1 .43.7l.46.83-.91-.15-.55-.93c-.2-.33-.33-.54-.4-.63a1 1 0 0 0-.23-.2 1.52 1.52 0 0 0-.39-.1h-.15v1.62L281 139zm.76-2.11.56.1a3.19 3.19 0 0 0 .69.06.33.33 0 0 0 .21-.13.41.41 0 0 0 .08-.28.52.52 0 0 0-.1-.33.63.63 0 0 0-.29-.2l-.56-.1-.59-.09v1z"/></g></svg>