<svg id="fd872f34-0444-43aa-a10d-c83a9f0de828" data-name="b6ddcd02-f928-4e67-9a53-31319260ed2a" xmlns="http://www.w3.org/2000/svg" xmlns:xlink="http://www.w3.org/1999/xlink" viewBox="0 0 88.6 232.52"><defs><style>.ad4d242d-9603-4f79-87e3-b20547d37535,.b0c176e5-c82f-4f97-8aa1-14d1b2d57a66{fill:#211c1d;}.b265d358-0569-4708-8a4f-38d7e0ae0a67{opacity:0.1;}.bf947809-e8e7-4913-b720-25eeca5a55ac{fill:#808094;}.ba987397-cd23-44be-9f00-f8163c5e3ecb{fill:#6d6e6f;}.b404794a-38a3-4785-813d-5163981d4d77{fill:url(#b6d4ffa9-c966-4b7e-9e3a-6aec9625efe8);}.b0c176e5-c82f-4f97-8aa1-14d1b2d57a66{opacity:0.3;}.b0c176e5-c82f-4f97-8aa1-14d1b2d57a66,.b99ccf3b-472e-4ad3-b653-4c6d5b117ced,.f6e2d35e-b5c9-4a58-84ac-1cf44ef065d8{isolation:isolate;}.b99ccf3b-472e-4ad3-b653-4c6d5b117ced{opacity:0.15;fill:url(#a007a7b0-4e52-4bd3-bd2d-b37075eebd92);}.f6e2d35e-b5c9-4a58-84ac-1cf44ef065d8{opacity:0.4;fill:url(#b8a9b365-d557-40e9-bf92-e62dac4608cd);}.a6f47c17-bd6b-429b-aab3-78c9cd709bbb{fill:#00adef;}.e2ffb063-e51c-406c-b7fe-8222364253e1{fill:#84849c;}.bbaae7c4-7c84-4a90-ae1d-360db64ec00c{fill:#fff;}.aba51966-9340-4bfd-b3ed-9a4170076bf0{fill:#231f20;}</style><linearGradient id="b6d4ffa9-c966-4b7e-9e3a-6aec9625efe8" x1="-747.89" y1="-859.92" x2="-768.84" y2="-838.97" gradientTransform="matrix(0, -1, -1, 0, -805.63, -714.58)" gradientUnits="userSpaceOnUse"><stop offset="0" stop-color="#a4a5a9"/><stop offset="1" stop-color="#e6e6e7"/></linearGradient><linearGradient id="a007a7b0-4e52-4bd3-bd2d-b37075eebd92" x1="-768.8" y1="-859.91" x2="-747.92" y2="-839.04" gradientTransform="matrix(0, -1, -1, 0, -805.63, -714.58)" gradientUnits="userSpaceOnUse"><stop offset="0" stop-color="#211c1d" stop-opacity="0"/><stop offset="0.04" stop-color="#211c1d" stop-opacity="0.09"/><stop offset="0.5" stop-color="#211c1d"/><stop offset="0.95" stop-color="#211c1d" stop-opacity="0.09"/><stop offset="1" stop-color="#211c1d" stop-opacity="0"/></linearGradient><linearGradient id="b8a9b365-d557-40e9-bf92-e62dac4608cd" x1="-4368.71" y1="3200.34" x2="-4347.83" y2="3221.23" gradientTransform="matrix(0, 1, 1, 0, -3166.92, 4402.08)" gradientUnits="userSpaceOnUse"><stop offset="0" stop-color="#fff" stop-opacity="0"/><stop offset="0.5" stop-color="#fff"/><stop offset="1" stop-color="#fff" stop-opacity="0"/></linearGradient></defs><circle class="ad4d242d-9603-4f79-87e3-b20547d37535" cx="43.8" cy="43.8" r="43.8"/><g class="b265d358-0569-4708-8a4f-38d7e0ae0a67"><path class="bf947809-e8e7-4913-b720-25eeca5a55ac" d="M43.8,3.2l-8.9,8.6h4.3v9.8h9.1V11.8h4.3ZM15.1,15.1l-.2,12.4L18,24.4l7,7L31.4,25l-7-7,3.1-3.1ZM3.2,43.8l8.6,8.9V48.4h9.8V39.3H11.8V35ZM15.1,72.5l12.4.2-3.1-3.1,7-7L25,56.2l-7,7-3.1-3.1ZM43.8,84.4l8.9-8.6H48.4V66H39.3v9.8H35ZM72.5,72.5l.2-12.4-3.1,3.1-7-7-6.4,6.4,7,7-3.1,3.1ZM84.4,43.8l-8.6-8.9v4.3H66v9.1h9.8v4.3ZM72.5,15.1l-12.4-.2L63.2,18l-7,7,6.4,6.4,7-7,3.1,3.1Z" transform="translate(0 0)"/></g><path class="ba987397-cd23-44be-9f00-f8163c5e3ecb" d="M44.3,0a43.81,43.81,0,0,1,0,87.6h.5A43.8,43.8,0,0,0,44.8,0Z" transform="translate(0 0)"/><circle class="b404794a-38a3-4785-813d-5163981d4d77" cx="43.8" cy="43.8" r="14.8"/><circle class="b0c176e5-c82f-4f97-8aa1-14d1b2d57a66" cx="43.8" cy="43.8" r="11.8"/><path class="b99ccf3b-472e-4ad3-b653-4c6d5b117ced" d="M29.1,43.8A14.75,14.75,0,1,0,43.9,29,14.77,14.77,0,0,0,29.1,43.8Zm28.7.2A14.15,14.15,0,1,1,43.7,29.8,14.17,14.17,0,0,1,57.8,44Z" transform="translate(0 0)"/><path class="f6e2d35e-b5c9-4a58-84ac-1cf44ef065d8" d="M58.6,43.8A14.75,14.75,0,1,0,43.9,58.6,14.75,14.75,0,0,0,58.6,43.8Zm-28.7-.2a14.1,14.1,0,1,1,28.2,0A14,14,0,0,1,44,57.7h0A14.08,14.08,0,0,1,29.9,43.6Z" transform="translate(0 0)"/><circle class="a6f47c17-bd6b-429b-aab3-78c9cd709bbb" cx="32.8" cy="44" r="20.5"/><circle class="a6f47c17-bd6b-429b-aab3-78c9cd709bbb" cx="27.2" cy="141.1" r="17.5"/><circle class="e2ffb063-e51c-406c-b7fe-8222364253e1" cx="27.2" cy="141.2" r="13.9"/><circle class="a6f47c17-bd6b-429b-aab3-78c9cd709bbb" cx="61.4" cy="196.3" r="17.4"/><circle class="bbaae7c4-7c84-4a90-ae1d-360db64ec00c" cx="61.4" cy="196.4" r="13.9"/><circle class="a6f47c17-bd6b-429b-aab3-78c9cd709bbb" cx="27.4" cy="178.1" r="17.4"/><circle class="aba51966-9340-4bfd-b3ed-9a4170076bf0" cx="27.4" cy="178.2" r="13.9"/><circle class="a6f47c17-bd6b-429b-aab3-78c9cd709bbb" cx="61.4" cy="122" r="17.5"/><circle class="e2ffb063-e51c-406c-b7fe-8222364253e1" cx="61.4" cy="122.1" r="13.9"/><circle class="a6f47c17-bd6b-429b-aab3-78c9cd709bbb" cx="61.1" cy="159.3" r="17.5"/><circle class="aba51966-9340-4bfd-b3ed-9a4170076bf0" cx="61.1" cy="159.5" r="13.9"/><circle class="a6f47c17-bd6b-429b-aab3-78c9cd709bbb" cx="27.43" cy="215.02" r="17.5"/><circle class="bbaae7c4-7c84-4a90-ae1d-360db64ec00c" cx="27.4" cy="215.2" r="13.9"/></svg>