<svg xmlns="http://www.w3.org/2000/svg" xmlns:xlink="http://www.w3.org/1999/xlink" viewBox="0 0 470.33 67.41"><defs><style>.e37059b6-44e8-48c2-ba9c-2783479cb430{stroke:#9def48;stroke-miterlimit:10;stroke-width:0.75px;fill:url(#e7a84a59-a36f-4b47-b3eb-35db587a1e76);}.ab1319c1-5018-4a5e-9d61-40e805d9c1ca{fill:#9def48;}.be07aa81-1e42-4317-8c71-a185d9905a5f{fill:url(#e49f8e08-c5b4-4242-afe4-df11620b5138);}.a81d156a-00ef-475d-8e8f-25118040afb4{fill:url(#aa0859f0-87a8-4c86-8bff-8ed072485be4);}.f7b81d00-8928-432c-9ad6-c58b55a39b1e{fill:url(#b4b893ed-7a1e-420e-9a79-4e8d75f94a59);}.fe89740b-c8a7-4225-bfc5-d51667441d0e{fill:url(#e712022e-f246-4a57-a1e9-a9b12ffa9b28);}.e365efb8-de13-4adc-87d5-d75d98f7be43{fill:url(#a6661fca-1bd1-4fd0-ab1e-31ea3d249d2e);}.a017309c-c0fd-4cc9-bdc8-8f2661a0cde2{fill:url(#b3b7008f-6c72-459b-9d07-a76bc2c90fd2);}.acbd8e63-8612-45b8-a8ba-de36c89b3b63{fill:url(#b7a9f001-7e6a-479e-ae7f-b159ee8b48da);}.a9df57fd-3d43-4035-a4a1-b6e8da67321d{fill:url(#b98821d5-a056-4622-b956-33019aca4800);}.a1f38f36-5167-4f95-8746-d41462decb4f{fill:url(#bc6ca240-2cf1-478d-9890-2646f397c3db);}.a269b29f-6f09-4b20-af24-29044a537ae2{fill:url(#fc3fd3f2-1f8e-4039-9799-0511d6aa7747);}.b0e29b0b-41cb-4947-9586-ef18605a3b4e{fill:url(#f329f400-af0a-4f24-8038-3d179cce049b);}.bbeeaa0a-c633-4d33-94ab-d48e7311b25d{fill:url(#ef19c0ad-56fd-4883-8efe-6ff163a362f2);}.aa0e5c0f-d615-4f9d-8863-6ac68ba6ec8c{fill:url(#a992f314-ba5f-4342-8eca-abaa16dbbcf3);}.b8e7b834-a625-4baf-bfa3-46f556e0dcb9{fill:url(#a620c891-e943-4e18-8fd0-4c2d95130298);}.ac2c7763-8a29-4213-a19f-2e452f7eb1e8{fill:url(#aa88e05b-84f4-4ff8-9c1b-5bb0bfc64478);}.efbc9212-97b4-43c0-aa79-fcdc81c8d017{fill:url(#a54ac7b3-7836-4e11-b55c-e70610ae2d58);}.b929f214-1b07-4506-b7e6-c19ad6ea3143{fill:url(#b0fa89bc-1673-4d22-82c7-7e89a8016d7a);}.b7a93863-42a9-42df-a103-b840cdeec050{fill:url(#a3929f57-f172-43e1-b1cf-42ee82c7f420);}.f7808e9a-af55-462f-978c-4a4cc8e7f82f{fill:url(#b47d47d4-172b-4ffa-a90f-b27807af80b7);}.b403aee5-d1a5-440e-8f8f-677fafc2da7d{fill:url(#a1cdc91c-d3e7-4dbd-b3d9-a4256d51d0a8);}.beb37807-a622-4acb-a64c-62bfc6cd87b5{fill:url(#a80fa95a-3ef3-44bc-9e8d-f9419e5fc8ac);}.f71af89c-7910-4005-ad90-54d353dae888{fill:url(#b10c8e17-59d8-4e75-a734-ad905952e100);}.bf7a14fc-d5ea-476f-8d33-5e88cef4a73c{fill:url(#bf5ece67-474d-4929-ae88-0249530a746d);}.af34d6eb-5675-423d-9ee2-e7edbc0e614d{fill:url(#bff19a81-8099-4d25-b958-e88791e915c5);}.ba2fe037-cebc-48ee-b911-3135af7744c2{fill:url(#a294aa7c-54f0-4867-ab6b-235e8287c24e);}.f52977e1-a5fc-4452-9d33-59d86c6c4e90{fill:url(#fc1b18de-cf09-45ef-a4d4-45b8bc6113a3);}.af93238e-61da-4d32-ba3f-1242f055245a{fill:url(#adf6a080-d08e-492a-98ce-d5aba08288e2);}.f139fa24-bcd5-4d0b-9a2a-661e23a26bd2{fill:url(#af245d99-42b5-4375-87d6-fafe800ce8fc);}.f95a6e7e-0e90-4c82-b2a9-822941907806{fill:url(#bca4e20b-b1fd-441e-9179-070dda703d82);}.b82bd48a-a681-49bb-b1cc-b4a9af824a7f{fill:url(#a0a96c45-eb43-4c64-b70d-b36f3cd4fe06);}.e47db1f9-dcb8-44c4-acbd-d8c5ef745ebd{fill:url(#a37dd11c-f098-4d1d-9550-c78203cdfbd0);}.b98614e3-2e7b-412c-abca-9f72900f1e37{fill:url(#a626f5d5-f286-41ea-836e-297b5464bd43);}.a1b857c8-ff74-4655-8b68-48a49ea4ca0c{fill:url(#a2b8e40d-4066-4b0e-ae53-ad7341132ed9);}.aa335525-8d50-4863-ba04-0648904c00ec{fill:url(#a5212dae-3012-4d61-a875-a19fb00b1357);}.bee89a67-97b3-4fca-8c3d-19fc1f3df1b5{fill:url(#f3cc38ff-b660-4a19-b3b7-c41bba34e6c7);}.af95bd7c-e5ae-4b01-b059-48b9e8af5974{fill:url(#bc33e795-245e-4518-8918-73c93a8dc825);}.ad733da0-f4d5-42fb-8f0c-92b92ad223fe{fill:url(#eadaad1b-1932-413d-aeb3-2f7fa684470e);}.bda01993-aff0-4e95-89a2-110d4fe93cd8{fill:url(#e5913f90-8f1b-40c3-a77e-96574660c50a);}.a76376c4-a058-4a89-87b1-d3f9ee7b6954{fill:#fff;}</style><linearGradient id="e7a84a59-a36f-4b47-b3eb-35db587a1e76" x1="0.38" y1="33.7" x2="469.96" y2="33.7" gradientUnits="userSpaceOnUse"><stop offset="0" stop-color="#032c02"/><stop offset="1" stop-color="#207a09"/></linearGradient><linearGradient id="e49f8e08-c5b4-4242-afe4-df11620b5138" x1="177.34" y1="-516.02" x2="99.9" y2="-516.02" gradientTransform="matrix(0, -0.71, -0.71, 0, -338.66, 134.42)" gradientUnits="userSpaceOnUse"><stop offset="0" stop-color="#013a67"/><stop offset="1" stop-color="#6cd1ff"/></linearGradient><linearGradient id="aa0859f0-87a8-4c86-8bff-8ed072485be4" x1="107.41" y1="-513.63" x2="106.85" y2="-513.07" gradientTransform="matrix(0, -0.71, -0.71, 0, -338.66, 134.42)" gradientUnits="userSpaceOnUse"><stop offset="0" stop-color="#08406f"/><stop offset="1" stop-color="#60c5f5"/></linearGradient><linearGradient id="b4b893ed-7a1e-420e-9a79-4e8d75f94a59" x1="115.71" y1="-524.28" x2="115.2" y2="-523.77" xlink:href="#aa0859f0-87a8-4c86-8bff-8ed072485be4"/><linearGradient id="e712022e-f246-4a57-a1e9-a9b12ffa9b28" x1="101.88" y1="-521.47" x2="101.88" y2="-520.86" xlink:href="#aa0859f0-87a8-4c86-8bff-8ed072485be4"/><linearGradient id="a6661fca-1bd1-4fd0-ab1e-31ea3d249d2e" x1="115.41" y1="-527.01" x2="115.41" y2="-526.38" xlink:href="#aa0859f0-87a8-4c86-8bff-8ed072485be4"/><linearGradient id="b3b7008f-6c72-459b-9d07-a76bc2c90fd2" x1="158.85" y1="-521.46" x2="158.85" y2="-520.83" xlink:href="#aa0859f0-87a8-4c86-8bff-8ed072485be4"/><linearGradient id="b7a9f001-7e6a-479e-ae7f-b159ee8b48da" x1="133.82" y1="-521.59" x2="133.82" y2="-520.95" xlink:href="#aa0859f0-87a8-4c86-8bff-8ed072485be4"/><linearGradient id="b98821d5-a056-4622-b956-33019aca4800" x1="172.26" y1="-505.61" x2="172.26" y2="-504.92" xlink:href="#aa0859f0-87a8-4c86-8bff-8ed072485be4"/><linearGradient id="bc6ca240-2cf1-478d-9890-2646f397c3db" x1="171.23" y1="-509.09" x2="171.23" y2="-508.49" xlink:href="#aa0859f0-87a8-4c86-8bff-8ed072485be4"/><linearGradient id="fc3fd3f2-1f8e-4039-9799-0511d6aa7747" x1="163.34" y1="-515.26" x2="163.34" y2="-514.73" xlink:href="#aa0859f0-87a8-4c86-8bff-8ed072485be4"/><linearGradient id="f329f400-af0a-4f24-8038-3d179cce049b" x1="167.71" y1="-511.7" x2="167.71" y2="-510.91" xlink:href="#aa0859f0-87a8-4c86-8bff-8ed072485be4"/><linearGradient id="ef19c0ad-56fd-4883-8efe-6ff163a362f2" x1="108.78" y1="-517.89" x2="108.28" y2="-517.39" xlink:href="#aa0859f0-87a8-4c86-8bff-8ed072485be4"/><linearGradient id="a992f314-ba5f-4342-8eca-abaa16dbbcf3" x1="115.28" y1="-508.76" x2="114.52" y2="-508.76" xlink:href="#aa0859f0-87a8-4c86-8bff-8ed072485be4"/><linearGradient id="a620c891-e943-4e18-8fd0-4c2d95130298" x1="122.77" y1="-510.97" x2="121.82" y2="-510.97" xlink:href="#aa0859f0-87a8-4c86-8bff-8ed072485be4"/><linearGradient id="aa88e05b-84f4-4ff8-9c1b-5bb0bfc64478" x1="134.52" y1="-511.71" x2="133.67" y2="-511.71" xlink:href="#aa0859f0-87a8-4c86-8bff-8ed072485be4"/><linearGradient id="a54ac7b3-7836-4e11-b55c-e70610ae2d58" x1="147.74" y1="-508.79" x2="146.93" y2="-508.79" xlink:href="#aa0859f0-87a8-4c86-8bff-8ed072485be4"/><linearGradient id="b0fa89bc-1673-4d22-82c7-7e89a8016d7a" x1="155.06" y1="-510.75" x2="154.24" y2="-510.75" xlink:href="#aa0859f0-87a8-4c86-8bff-8ed072485be4"/><linearGradient id="a3929f57-f172-43e1-b1cf-42ee82c7f420" x1="112.66" y1="-517.91" x2="111.93" y2="-517.91" xlink:href="#aa0859f0-87a8-4c86-8bff-8ed072485be4"/><linearGradient id="b47d47d4-172b-4ffa-a90f-b27807af80b7" x1="115.42" y1="-518.6" x2="114.92" y2="-518.1" xlink:href="#aa0859f0-87a8-4c86-8bff-8ed072485be4"/><linearGradient id="a1cdc91c-d3e7-4dbd-b3d9-a4256d51d0a8" x1="176.67" y1="-507.07" x2="176.15" y2="-506.55" xlink:href="#aa0859f0-87a8-4c86-8bff-8ed072485be4"/><linearGradient id="a80fa95a-3ef3-44bc-9e8d-f9419e5fc8ac" x1="118.93" y1="-518.04" x2="118.16" y2="-518.04" xlink:href="#aa0859f0-87a8-4c86-8bff-8ed072485be4"/><linearGradient id="b10c8e17-59d8-4e75-a734-ad905952e100" x1="119.32" y1="-509.13" x2="118.69" y2="-508.49" xlink:href="#aa0859f0-87a8-4c86-8bff-8ed072485be4"/><linearGradient id="bf5ece67-474d-4929-ae88-0249530a746d" x1="128.83" y1="-511.3" x2="128.24" y2="-510.71" xlink:href="#aa0859f0-87a8-4c86-8bff-8ed072485be4"/><linearGradient id="bff19a81-8099-4d25-b958-e88791e915c5" x1="141.37" y1="-512.08" x2="140.74" y2="-511.46" xlink:href="#aa0859f0-87a8-4c86-8bff-8ed072485be4"/><linearGradient id="a294aa7c-54f0-4867-ab6b-235e8287c24e" x1="151.66" y1="-509.11" x2="151.07" y2="-508.51" xlink:href="#aa0859f0-87a8-4c86-8bff-8ed072485be4"/><linearGradient id="fc1b18de-cf09-45ef-a4d4-45b8bc6113a3" x1="167.5" y1="-513.13" x2="167.01" y2="-512.64" xlink:href="#aa0859f0-87a8-4c86-8bff-8ed072485be4"/><linearGradient id="adf6a080-d08e-492a-98ce-d5aba08288e2" x1="169.07" y1="-519.39" x2="168.51" y2="-518.83" xlink:href="#aa0859f0-87a8-4c86-8bff-8ed072485be4"/><linearGradient id="af245d99-42b5-4375-87d6-fafe800ce8fc" x1="160.86" y1="-511.2" x2="160.25" y2="-510.59" xlink:href="#aa0859f0-87a8-4c86-8bff-8ed072485be4"/><linearGradient id="bca4e20b-b1fd-441e-9179-070dda703d82" x1="167.24" y1="-510.5" x2="166.51" y2="-509.77" xlink:href="#aa0859f0-87a8-4c86-8bff-8ed072485be4"/><linearGradient id="a0a96c45-eb43-4c64-b70d-b36f3cd4fe06" x1="124.59" y1="-521.22" x2="124.08" y2="-520.71" xlink:href="#aa0859f0-87a8-4c86-8bff-8ed072485be4"/><linearGradient id="a37dd11c-f098-4d1d-9550-c78203cdfbd0" x1="141.18" y1="-517.94" x2="140.67" y2="-517.42" xlink:href="#aa0859f0-87a8-4c86-8bff-8ed072485be4"/><linearGradient id="a626f5d5-f286-41ea-836e-297b5464bd43" x1="147.83" y1="-518.49" x2="147.33" y2="-518" xlink:href="#aa0859f0-87a8-4c86-8bff-8ed072485be4"/><linearGradient id="a2b8e40d-4066-4b0e-ae53-ad7341132ed9" x1="150.79" y1="-521.41" x2="150.16" y2="-520.78" xlink:href="#aa0859f0-87a8-4c86-8bff-8ed072485be4"/><linearGradient id="a5212dae-3012-4d61-a875-a19fb00b1357" x1="130.76" y1="-518.31" x2="129.9" y2="-518.31" xlink:href="#aa0859f0-87a8-4c86-8bff-8ed072485be4"/><linearGradient id="f3cc38ff-b660-4a19-b3b7-c41bba34e6c7" x1="145.05" y1="-517.85" x2="144.31" y2="-517.85" xlink:href="#aa0859f0-87a8-4c86-8bff-8ed072485be4"/><linearGradient id="bc33e795-245e-4518-8918-73c93a8dc825" x1="151.38" y1="-517.75" x2="150.5" y2="-517.75" xlink:href="#aa0859f0-87a8-4c86-8bff-8ed072485be4"/><linearGradient id="eadaad1b-1932-413d-aeb3-2f7fa684470e" x1="160.69" y1="-516.59" x2="160.06" y2="-515.97" xlink:href="#aa0859f0-87a8-4c86-8bff-8ed072485be4"/><linearGradient id="e5913f90-8f1b-40c3-a77e-96574660c50a" x1="165.26" y1="-517.99" x2="165.26" y2="-517.17" xlink:href="#aa0859f0-87a8-4c86-8bff-8ed072485be4"/></defs><g id="a2dccdb9-e13d-41f9-b68c-3afbca94937a" data-name="texte"><polygon class="e37059b6-44e8-48c2-ba9c-2783479cb430" points="0.38 5.91 102.44 5.91 108.57 0.38 150.31 0.38 158.22 5.91 461.65 6.11 469.96 16 469.96 59.72 50.81 59.72 42.7 67.03 7.89 67.03 0.38 59.72 0.38 5.91"/><path class="ab1319c1-5018-4a5e-9d61-40e805d9c1ca" d="M65.93,24.1H58.07a16.32,16.32,0,0,0-2.34,8.18,16.38,16.38,0,0,0,2.34,8.19h2.7v4.07H55.88a18.23,18.23,0,0,1-4.22-12.26A18.18,18.18,0,0,1,55.88,20H65.93V16.19h4V20H80a18.18,18.18,0,0,1,4.22,12.25A18.23,18.23,0,0,1,80,44.54H75.14V40.47h2.72a16.45,16.45,0,0,0,2.32-8.19,16.39,16.39,0,0,0-2.32-8.18H70V38.63h-4Z" transform="translate(-0.06 -0.03)"/><path class="ab1319c1-5018-4a5e-9d61-40e805d9c1ca" d="M94.47,37.72l-4.29,6.82H85.1L100.67,20h4.69l15.45,24.51h-5l-4.24-6.82Zm14.56-4-6-9.59-6,9.59Z" transform="translate(-0.06 -0.03)"/><path class="ab1319c1-5018-4a5e-9d61-40e805d9c1ca" d="M135.93,24.1h-7.86a16.32,16.32,0,0,0-2.34,8.18,16.38,16.38,0,0,0,2.34,8.19h2.7v4.07h-4.89a18.23,18.23,0,0,1-4.22-12.26A18.18,18.18,0,0,1,125.88,20h10.05V16.19h4V20H150a18.18,18.18,0,0,1,4.22,12.25A18.23,18.23,0,0,1,150,44.54h-4.89V40.47h2.72a16.45,16.45,0,0,0,2.32-8.19,16.39,16.39,0,0,0-2.32-8.18H140V38.63h-4Z" transform="translate(-0.06 -0.03)"/><path class="ab1319c1-5018-4a5e-9d61-40e805d9c1ca" d="M182.55,34.3H165.63a17.49,17.49,0,0,0,2.21,6.17H188l2.34,4.07H165.65a17.68,17.68,0,0,1-4.14-10.24h-3.84v-4h3.84A17.6,17.6,0,0,1,165.65,20h24.66L188,24.1H167.84a17.33,17.33,0,0,0-2.21,6.15h16.92Z" transform="translate(-0.06 -0.03)"/></g><g id="a254bdfe-a5eb-44b2-afbb-9f45292bbe66" data-name="mame"><path class="be07aa81-1e42-4317-8c71-a185d9905a5f" d="M20.16,16l0-4.55L18,9.3l0,7.8,7.36,7.33.06,1-7.08,0,4.2,4.13.12,1H18.33L26.68,39,26.79,40l-8.59-.09,7.49,7.37v1l-7.19.11,4,4,.06,1.11-4.28,0,10.6,10.51-.06-3.46-4.41-4.54v-.87l4.43,0-3.7-3.61v-.86h3.77l3.95,4-.06-3.81-7.58-7.5v-1H29l0-4.68-4.55-4.52-.05-.87h4.3l-3.62-3.61v-.85l3.65-.06.19.07V16.86l-2.12-2.09-.12,6.78-1,.07-1.12-1.06V18l-2.25-2.23-.06,1.35H21.3" transform="translate(-0.06 -0.03)"/><path class="a81d156a-00ef-475d-8e8f-25118040afb4" d="M18.72,53.62,28.83,63.74l.43,1.14s0,.06,0,0L17.47,53.16a0,0,0,0,1,0,0Z" transform="translate(-0.06 -0.03)"/><path class="f7b81d00-8928-432c-9ad6-c58b55a39b1e" d="M29,50.51l3.75,3.75.44,1.11s0,.06,0,0L28.76,51Z" transform="translate(-0.06 -0.03)"/><path class="fe89740b-c8a7-4225-bfc5-d51667441d0e" d="M29.26,60.19v4.69l-.43-1.15V60.47" transform="translate(-0.06 -0.03)"/><path class="e365efb8-de13-4adc-87d5-d75d98f7be43" d="M33.17,50.62v4.75l-.44-1.11V50.88" transform="translate(-0.06 -0.03)"/><path class="a017309c-c0fd-4cc9-bdc8-8f2661a0cde2" d="M29.26,16.61V28.07l-.45-.38V16.94" transform="translate(-0.06 -0.03)"/><path class="acbd8e63-8612-45b8-a8ba-de36c89b3b63" d="M29.35,37.39v5.15a.22.22,0,0,1,0,.08l-.41-.45V37.66l.45-.27Z" transform="translate(-0.06 -0.03)"/><path class="a9df57fd-3d43-4035-a4a1-b6e8da67321d" d="M17.59,17.35V8.49c0-.08,0-.08,0-.08l.45,1.06V17l-.48.37Z" transform="translate(-0.06 -0.03)"/><path class="a1f38f36-5167-4f95-8746-d41462decb4f" d="M20.53,11.19v4.63l-.42.21V11.5" transform="translate(-0.06 -0.03)"/><path class="a269b29f-6f09-4b20-af24-29044a537ae2" d="M24.88,17.73V20.2l-.37.41V18.05" transform="translate(-0.06 -0.03)"/><path class="b0e29b0b-41cb-4947-9586-ef18605a3b4e" d="M22.37,15.91v1.36l-.56.12V14.84a0,0,0,0,1,0,0Z" transform="translate(-0.06 -0.03)"/><path class="bbeeaa0a-c633-4d33-94ab-d48e7311b25d" d="M24.46,55.41l4.8,4.78-.43.28-4.64-4.66a.51.51,0,0,1-.17-.47Z" transform="translate(-0.06 -0.03)"/><path class="aa0e5c0f-d615-4f9d-8863-6ac68ba6ec8c" d="M22.56,53.62H18.72l-1.25-.5s0,0,.05,0h5.37l.23,0A.54.54,0,0,1,22.56,53.62Z" transform="translate(-0.06 -0.03)"/><path class="b8e7b834-a625-4baf-bfa3-46f556e0dcb9" d="M26.28,47.8s.2.66-.56.67H18.79l-1.39-.53h8.25l.63-.13Z" transform="translate(-0.06 -0.03)"/><path class="ac2c7763-8a29-4213-a19f-2e452f7eb1e8" d="M27.29,39.51a.55.55,0,0,1-.61.6h-8l-1.2-.46a.08.08,0,0,1,.09-.06h9.11l.62-.08Z" transform="translate(-0.06 -0.03)"/><path class="efbc9212-97b4-43c0-aa79-fcdc81c8d017" d="M23.14,30.18a.53.53,0,0,1-.46.57h-4l-1.21-.44s0,0,.08,0h5l.59-.08Z" transform="translate(-0.06 -0.03)"/><path class="b929f214-1b07-4506-b7e6-c19ad6ea3143" d="M25.93,25a.51.51,0,0,1-.44.57H18.72l-1.25-.48s0,0,.17,0h7.72l.57-.06Z" transform="translate(-0.06 -0.03)"/><path class="b7a93863-42a9-42df-a103-b840cdeec050" d="M29.48,55.32s0,.08-.12.08h-4.9s-.16.12-.44-.07a.51.51,0,0,1,.43-.41h4Z" transform="translate(-0.06 -0.03)"/><path class="f7808e9a-af55-462f-978c-4a4cc8e7f82f" d="M25.26,51l4.19,4.19s0,.12,0,.12l-1-.39-3.61-3.6a.49.49,0,0,1-.16-.38Z" transform="translate(-0.06 -0.03)"/><path class="b403aee5-d1a5-440e-8f8f-677fafc2da7d" d="M17.76,8.43l2.77,2.76-.42.31-2-2-.45-1.06A.15.15,0,0,1,17.76,8.43Z" transform="translate(-0.06 -0.03)"/><path class="beb37807-a622-4acb-a64c-62bfc6cd87b5" d="M28.76,51h-3.5a.58.58,0,0,1-.55-.06.47.47,0,0,1,.41-.44H29Z" transform="translate(-0.06 -0.03)"/><path class="f71af89c-7910-4005-ad90-54d353dae888" d="M18.79,48.47l4.15,4.14a.79.79,0,0,1,.18.51.57.57,0,0,1-.61,0L17.43,48c-.05,0,0-.06,0-.06Z" transform="translate(-0.06 -0.03)"/><path class="bf7a14fc-d5ea-476f-8d33-5e88cef4a73c" d="M18.67,40.11l7.44,7.44a.47.47,0,0,1,.17.25c-.19.38-.62.12-.62.12l-8.11-8.1c-.11-.09-.08-.17-.08-.17Z" transform="translate(-0.06 -0.03)"/><path class="af34d6eb-5675-423d-9ee2-e7edbc0e614d" d="M18.71,30.75l8.42,8.42a.62.62,0,0,1,.16.34c-.16.31-.62.08-.62.08l-9.09-9.1a.17.17,0,0,1-.08-.18l1.21.44Z" transform="translate(-0.06 -0.03)"/><path class="ba2fe037-cebc-48ee-b911-3135af7744c2" d="M18.72,25.59,23,29.85a.58.58,0,0,1,.17.33c-.19.3-.6.06-.6.06l-5-5c-.1-.11-.06-.14-.06-.14Z" transform="translate(-0.06 -0.03)"/><path class="f52977e1-a5fc-4452-9d33-59d86c6c4e90" d="M21.94,14.8l2.94,2.93-.37.32-2.14-2.14-.54-1.11s0,0,.11,0Z" transform="translate(-0.06 -0.03)"/><path class="af93238e-61da-4d32-ba3f-1242f055245a" d="M26.39,13.73l2.87,2.88-.45.33-2-2-.54-1.23S26.31,13.67,26.39,13.73Z" transform="translate(-0.06 -0.03)"/><path class="f139fa24-bcd5-4d0b-9a2a-661e23a26bd2" d="M18.07,17l7.7,7.7a.62.62,0,0,1,.16.34.54.54,0,0,1-.6.06l-7.74-7.72Z" transform="translate(-0.06 -0.03)"/><path class="f95a6e7e-0e90-4c82-b2a9-822941907806" d="M20.53,15.82l1.28,1.27a.55.55,0,0,0,.56.18.39.39,0,0,1-.37.34.53.53,0,0,1-.45-.13L20.11,16Z" transform="translate(-0.06 -0.03)"/><path class="b82bd48a-a681-49bb-b1cc-b4a9af824a7f" d="M32.73,50.88l-7.8-7.8a.52.52,0,0,1-.17-.42l.52,0,7.89,7.92Z" transform="translate(-0.06 -0.03)"/><path class="e47db1f9-dcb8-44c4-acbd-d8c5ef745ebd" d="M28.9,37.66,24.13,32.9a.54.54,0,0,1-.18-.43l.57.08,4.83,4.84Z" transform="translate(-0.06 -0.03)"/><path class="b98614e3-2e7b-412c-abca-9f72900f1e37" d="M28.42,32.08,24.74,28.4a.47.47,0,0,1-.17-.34h.55l4.3,4.31c.06.06,0,.1,0,.1l-1-.4Z" transform="translate(-0.06 -0.03)"/><path class="a1b857c8-ff74-4655-8b68-48a49ea4ca0c" d="M29.2,28.89l-.73-.72.24-.56.1.08.45.38,0,0v.77a.07.07,0,0,1,0,.05s0,0-.06,0Z" transform="translate(-0.06 -0.03)"/><path class="aa335525-8d50-4863-ba04-0648904c00ec" d="M29.13,42.69H25.28a.41.41,0,0,1-.52,0,.51.51,0,0,1,.47-.49H28.9l.41.45a.22.22,0,0,1-.18.07Z" transform="translate(-0.06 -0.03)"/><path class="bee89a67-97b3-4fca-8c3d-19fc1f3df1b5" d="M29.39,32.55H24.52a.55.55,0,0,1-.57-.09c0-.06.05-.33.47-.39h4l1,.4a.09.09,0,0,1-.07.07Z" transform="translate(-0.06 -0.03)"/><path class="af95bd7c-e5ae-4b01-b059-48b9e8af5974" d="M28.47,28.17H25.21a.51.51,0,0,1-.64-.11.43.43,0,0,1,.43-.45h3.71Z" transform="translate(-0.06 -0.03)"/><path class="ad733da0-f4d5-42fb-8f0c-92b92ad223fe" d="M24.88,20.2l1.35,1.35.48.38a.53.53,0,0,1-.8.09l-1.4-1.41.37-.41Z" transform="translate(-0.06 -0.03)"/><path class="bda01993-aff0-4e95-89a2-110d4fe93cd8" d="M26.81,14.94v6.63a.75.75,0,0,1-.1.36.54.54,0,0,1-.48-.38V13.77a.06.06,0,0,1,0-.06Z" transform="translate(-0.06 -0.03)"/><path class="a76376c4-a058-4a89-87b1-d3f9ee7b6954" d="M31.6,65.09h-1v-.28l.65-.18-.65-.17v-.29h1v.18h-.75l.75.19v.19l-.75.18h.75Zm-1-1.72v-.19h.67a.21.21,0,0,0,.1-.06.21.21,0,0,0,0-.12.23.23,0,0,0,0-.13.14.14,0,0,0-.08,0h-.69v-.19h.5l.24,0a.33.33,0,0,1,.12,0,.36.36,0,0,1,.08.12.42.42,0,0,1,0,.18.58.58,0,0,1,0,.21.31.31,0,0,1-.09.11.19.19,0,0,1-.1.05l-.24,0Zm1-1.58h-.94V61.6h.78v-.48h.16v.67Zm0-1.54h-.79v.29h-.16v-.76h.16v.28h.79Zm0-1.2h-1v-.19h1Zm0-1h-1v-.31a1.29,1.29,0,0,1,0-.23.26.26,0,0,1,.1-.13.28.28,0,0,1,.18-.06.33.33,0,0,1,.15,0,.24.24,0,0,1,.09.08.31.31,0,0,1,.05.1,1.15,1.15,0,0,1,0,.2v.13h.36v.19Zm-.79-.19h.27v-.11a.58.58,0,0,0,0-.15L31,57.55l-.07,0a.12.12,0,0,0-.13.11.45.45,0,0,0,0,.14v.09Zm.79-1.31h-.94v-.2h.78v-.47h.16v.67Zm0-1.43h-1v-.7h.16v.51H31v-.48h.16v.48h.26v-.53h.16v.72Zm0-9v.21l-.21.08v.38l.21.08v.2l-1-.37v-.2Zm-.37.35-.36.13.36.13Zm.37-1.07h-1V45a.63.63,0,0,1,0-.23.19.19,0,0,1,.09-.11.33.33,0,0,1,.15,0,.21.21,0,0,1,.17.07.26.26,0,0,1,.09.18l.08-.1.16-.11.18-.12v.23l-.2.14a.49.49,0,0,0-.14.11.07.07,0,0,0,0,0,.28.28,0,0,0,0,.1v0h.39v.19Zm-.55-.19v-.14a.72.72,0,0,0,0-.18.1.1,0,0,0,0,0l-.07,0a.11.11,0,0,0-.08,0s0,0,0,.07v.29Zm.2-2,.06-.19a.43.43,0,0,1,.23.14.45.45,0,0,1,.08.26.44.44,0,0,1-.13.31.52.52,0,0,1-.36.12.51.51,0,0,1-.36-.12.42.42,0,0,1-.14-.32.4.4,0,0,1,.11-.29.55.55,0,0,1,.17-.1l.05.2a.19.19,0,0,0-.12.07.17.17,0,0,0,0,.13.22.22,0,0,0,.07.17.42.42,0,0,0,.25.06.43.43,0,0,0,.26-.06.21.21,0,0,0,.07-.17.18.18,0,0,0,0-.13.27.27,0,0,0-.16-.08Zm.35-1.82v.2l-.21.09v.38l.21.08v.2l-1-.37v-.2l1-.38Zm-.37.35-.36.13.36.13Zm-.58-1.07v-.35a.74.74,0,0,1,0-.18.19.19,0,0,1,.09-.14.4.4,0,0,1,.15-.1.75.75,0,0,1,.23,0,.64.64,0,0,1,.2,0,.69.69,0,0,1,.17.1.46.46,0,0,1,.07.14.42.42,0,0,1,0,.17v.36Zm.16-.19h.63v-.14a.35.35,0,0,0,0-.12.2.2,0,0,0,0-.08.19.19,0,0,0-.09-.05l-.17,0-.17,0a.15.15,0,0,0-.09.06.14.14,0,0,0-.05.08.62.62,0,0,0,0,.16v.09Zm.79-1.38h-1v-.71h.16v.51H31v-.47h.16v.47h.26v-.53h.16v.73Zm0-2.31h-1v-.29l.65-.18-.65-.17v-.28h1V36h-.75l.75.19v.19l-.75.19h.75v.18Zm0-2.59v.21l-.21.09v.38l.21.07v.21l-1-.37v-.21Zm-.37.36-.36.13.36.13Zm0-1.68.06-.19a.43.43,0,0,1,.23.14.45.45,0,0,1,.08.26.44.44,0,0,1-.13.31.52.52,0,0,1-.36.12.51.51,0,0,1-.36-.12.42.42,0,0,1-.14-.32.4.4,0,0,1,.11-.29.55.55,0,0,1,.17-.1l.05.19a.35.35,0,0,0-.12.07.21.21,0,0,0,0,.14.22.22,0,0,0,.07.17.42.42,0,0,0,.25.06.43.43,0,0,0,.26-.06.22.22,0,0,0,.07-.17.18.18,0,0,0,0-.13.27.27,0,0,0-.16-.08Zm.35-1h-1v-.19H31v-.38h-.37v-.19h1v.19h-.41v.38h.41Zm0-1.56h-1v-.2h1Zm0-1h-1v-.19l.64-.39h-.64v-.18h1v.19l-.62.39h.62Zm0-1.58h-1v-.7h.16v.51H31V27.1h.16v.48h.26v-.53h.16v.72Zm0-2.39h-1v-.7h.16v.51H31v-.48h.16v.48h.26v-.53h.16v.72Zm0-1.49h-1V23.6l.65-.17-.65-.18V23h1v.17h-.75l.75.19v.19l-.75.19h.75Zm-1-1.73V22h.67a.14.14,0,0,0,.1-.05.28.28,0,0,0,0-.13.17.17,0,0,0,0-.12.1.1,0,0,0-.08-.05h-.69v-.2h.5l.24,0a.23.23,0,0,1,.12.06.31.31,0,0,1,.08.11.48.48,0,0,1,0,.18.58.58,0,0,1,0,.21.24.24,0,0,1-.09.11.14.14,0,0,1-.1.05.82.82,0,0,1-.24,0Zm1-1.58h-.94v-.19h.78v-.48h.16v.67Zm0-2.28v.21l-.21.09V19l.21.08v.2l-1-.37v-.2l1-.39Zm-.37.36-.36.13.36.13Zm.37-1.19h-.79v.29h-.16V17h.16v.28h.79Zm-.47-1.14a.54.54,0,0,1-.24,0,.38.38,0,0,1-.13-.09.27.27,0,0,1-.09-.12.65.65,0,0,1,0-.2.48.48,0,0,1,.13-.34.49.49,0,0,1,.37-.13.48.48,0,0,1,.36.13.42.42,0,0,1,.13.33.44.44,0,0,1-.13.34.53.53,0,0,1-.36.13Zm0-.2a.36.36,0,0,0,.24-.08.22.22,0,0,0,.08-.19.24.24,0,0,0-.08-.19.41.41,0,0,0-.25-.07.38.38,0,0,0-.24.07.26.26,0,0,0-.08.19.28.28,0,0,0,.08.2A.41.41,0,0,0,31.13,16.13Zm.47-1.49h-1v-.41a.61.61,0,0,1,0-.22.19.19,0,0,1,.09-.11.24.24,0,0,1,.15,0,.24.24,0,0,1,.17.06.31.31,0,0,1,.09.19l.08-.1a.61.61,0,0,1,.16-.11l.18-.12V14l-.2.14-.14.1s0,0,0,.06a.25.25,0,0,0,0,.1v0h.39v.19Zm-.55-.19V14.3a.63.63,0,0,0,0-.17.1.1,0,0,0,0-.05.08.08,0,0,0-.07,0l-.08,0a.15.15,0,0,0,0,.08v.29Z" transform="translate(-0.06 -0.03)"/></g></svg>