<svg xmlns="http://www.w3.org/2000/svg" xmlns:xlink="http://www.w3.org/1999/xlink" viewBox="0 0 470.33 67.41"><defs><style>.a7d2d90b-d6e4-41bb-9de3-aa1091c730dd{stroke:#9def48;stroke-miterlimit:10;stroke-width:0.75px;fill:url(#ba1f0bf6-cb70-4c70-8363-dce8b2669d00);}.a4fe64ba-c8be-4a94-8459-e62e3607ac01{fill:#9def48;}.ba55b8f2-9e14-4494-a170-d98b8f8dd72d{fill:#e60012;}.f965d473-b999-422d-b2a1-5f87f7034145{fill:#fff;}</style><linearGradient id="ba1f0bf6-cb70-4c70-8363-dce8b2669d00" x1="0.38" y1="33.7" x2="469.96" y2="33.7" gradientUnits="userSpaceOnUse"><stop offset="0" stop-color="#032c02"/><stop offset="1" stop-color="#207a09"/></linearGradient></defs><g id="a2a4e198-0676-42f2-8119-ab08643ce07b" data-name="texte"><polygon class="a7d2d90b-d6e4-41bb-9de3-aa1091c730dd" points="0.38 5.91 102.44 5.91 108.57 0.38 150.31 0.38 158.22 5.91 461.65 6.11 469.96 16 469.96 59.72 50.81 59.72 42.7 67.03 7.89 67.03 0.38 59.72 0.38 5.91"/><path class="a4fe64ba-c8be-4a94-8459-e62e3607ac01" d="M66.46,40.69V26.58H70.4V40.69h7.65a15.87,15.87,0,0,0,2.26-7.95,15.93,15.93,0,0,0-2.26-8H75.41V20.84h4.75a17.67,17.67,0,0,1,4.1,11.9,17.64,17.64,0,0,1-4.1,11.9H70.4v3.74H66.46V44.64H56.7a17.64,17.64,0,0,1-4.1-11.9,17.67,17.67,0,0,1,4.1-11.9h4.75v3.95H58.83a15.86,15.86,0,0,0-2.28,8,15.8,15.8,0,0,0,2.28,7.95Z" transform="translate(-0.06 -0.03)"/><path class="a4fe64ba-c8be-4a94-8459-e62e3607ac01" d="M93.19,44.64h-4V24.21l4-4Z" transform="translate(-0.06 -0.03)"/><path class="a4fe64ba-c8be-4a94-8459-e62e3607ac01" d="M103.78,44.64h-4V24.21l4-4Z" transform="translate(-0.06 -0.03)"/><path class="a4fe64ba-c8be-4a94-8459-e62e3607ac01" d="M125,40.69h19.22a15.87,15.87,0,0,0,2.26-7.95,15.93,15.93,0,0,0-2.26-8h-2.64V20.84h4.75a17.62,17.62,0,0,1,4.1,11.9,17.59,17.59,0,0,1-4.1,11.9H122.83a17.59,17.59,0,0,1-4.11-11.9,17.63,17.63,0,0,1,4.11-11.9h4.74v3.95H125a15.84,15.84,0,0,0-2.27,8A15.79,15.79,0,0,0,125,40.69Z" transform="translate(-0.06 -0.03)"/></g><g id="ec304606-5734-41ab-acdb-932ce1823b61" data-name="nintendo"><path class="ba55b8f2-9e14-4494-a170-d98b8f8dd72d" d="M25.59,23.22A2.08,2.08,0,0,0,27.48,21a2.08,2.08,0,0,0-1.89-2.22A2.08,2.08,0,0,0,23.7,21,2.08,2.08,0,0,0,25.59,23.22Zm-.72-2.83H26.3c.53,0,.75.32.75.62s-.22.62-.75.62H24.87c-.53,0-.75-.32-.75-.62S24.34,20.39,24.87,20.39Z" transform="translate(-0.06 -0.03)"/><path class="ba55b8f2-9e14-4494-a170-d98b8f8dd72d" d="M23.8,26.07A1.82,1.82,0,0,0,25.56,28a1.77,1.77,0,0,0,1.66-1,1.84,1.84,0,0,0-.12-1.75h.19v-1.5H22.24v1.5H24.1A2,2,0,0,0,23.8,26.07ZM25,25.2h1.19a.6.6,0,1,1,0,1.19H25a.6.6,0,1,1,0-1.19Z" transform="translate(-0.06 -0.03)"/><polygon class="f965d473-b999-422d-b2a1-5f87f7034145" points="39.11 19.23 39.11 19.23 39.11 19.23 39.11 19.23"/><polygon class="ba55b8f2-9e14-4494-a170-d98b8f8dd72d" points="23.88 38.45 23.88 37.62 23.38 37.62 23.38 38.45 22.7 38.45 22.7 39.96 23.38 39.96 23.38 40.79 23.88 40.79 23.88 39.96 27.23 39.96 27.23 38.44 23.88 38.45"/><path class="ba55b8f2-9e14-4494-a170-d98b8f8dd72d" d="M26.12,33.46V35h.2c.61,0,.75.41.75.63a.66.66,0,0,1-.75.64h-.69V33.37a2.27,2.27,0,0,0,0,4.48,2.08,2.08,0,0,0,1.88-2.24A2.21,2.21,0,0,0,26.12,33.46Zm-1,2.77a1.13,1.13,0,0,1-.65-.1.6.6,0,0,1-.31-.53h0a.6.6,0,0,1,.31-.53,1.22,1.22,0,0,1,.65-.1Z" transform="translate(-0.06 -0.03)"/><rect class="ba55b8f2-9e14-4494-a170-d98b8f8dd72d" x="23.87" y="46.06" width="3.36" height="1.52"/><path class="ba55b8f2-9e14-4494-a170-d98b8f8dd72d" d="M25.08,30h2.21V28.48H25.46a1.64,1.64,0,0,0-1.68,1.72h0a1.84,1.84,0,0,0,.5,1.21h-.35v1.5h3.36v-1.5H25.08a.7.7,0,0,1-.61-.72A.67.67,0,0,1,25.08,30Z" transform="translate(-0.06 -0.03)"/><path class="ba55b8f2-9e14-4494-a170-d98b8f8dd72d" d="M24.78,14.57a5.39,5.39,0,0,0-5.37,5.69V52.42a5.37,5.37,0,1,0,10.73,0V20.26A5.38,5.38,0,0,0,24.78,14.57Zm4,37.83a4.06,4.06,0,1,1-8.09,0V20.27a4.06,4.06,0,1,1,8.09,0Z" transform="translate(-0.06 -0.03)"/><path class="ba55b8f2-9e14-4494-a170-d98b8f8dd72d" d="M25.08,42.33h2.21V40.82H25.46a1.64,1.64,0,0,0-1.68,1.72h0a1.84,1.84,0,0,0,.5,1.21h-.35v1.5h3.36v-1.5H25.08a.7.7,0,0,1-.61-.72A.67.67,0,0,1,25.08,42.33Z" transform="translate(-0.06 -0.03)"/><rect class="ba55b8f2-9e14-4494-a170-d98b8f8dd72d" x="22.18" y="46.06" width="1.03" height="1.52"/><polygon class="ba55b8f2-9e14-4494-a170-d98b8f8dd72d" points="22.18 50.01 25.7 50.01 22.18 52.19 22.18 53.76 27.23 53.76 27.23 52.2 23.71 52.2 27.23 50.01 27.23 48.45 22.18 48.45 22.18 50.01"/></g></svg>