<svg id="b95a2d73-e34a-459d-88d3-6b5fe21cd992" data-name="Calque 1" xmlns="http://www.w3.org/2000/svg" xmlns:xlink="http://www.w3.org/1999/xlink" viewBox="0 0 470.58 67.66"><defs><style>.efa87d24-8911-44c7-a0b7-da96cdef6a45{stroke:#9def48;stroke-miterlimit:10;fill:url(#e0717aa6-0bb8-4ec1-b195-ad906723bba7);}.af56351c-a980-4ac9-b23f-ba6dd4ff8ead{fill:#9def48;}</style><linearGradient id="e0717aa6-0bb8-4ec1-b195-ad906723bba7" x1="0.5" y1="33.83" x2="470.08" y2="33.83" gradientUnits="userSpaceOnUse"><stop offset="0" stop-color="#032c02"/><stop offset="1" stop-color="#207a09"/></linearGradient></defs><polygon class="efa87d24-8911-44c7-a0b7-da96cdef6a45" points="0.5 6.04 102.57 6.04 108.7 0.5 150.44 0.5 158.35 6.04 461.77 6.24 470.08 16.13 470.08 59.84 50.94 59.84 42.83 67.16 8.02 67.16 0.5 59.84 0.5 6.04"/><path class="af56351c-a980-4ac9-b23f-ba6dd4ff8ead" d="M93.42,19.26,74.86,48.66H69.24L50.58,19.26h6.09L72.11,43.8l15.3-24.54Z"/><path class="af56351c-a980-4ac9-b23f-ba6dd4ff8ead" d="M102.4,48.66H97.52V23.42l4.88-4.88Z"/><path class="af56351c-a980-4ac9-b23f-ba6dd4ff8ead" d="M141.25,43.78h3.26a21.18,21.18,0,0,0,2.62-7.4h-29a21.06,21.06,0,0,0,2.65,7.4H124v4.88h-5.87a21.2,21.2,0,0,1-5-12.28h-4.61V31.52h4.61a21.09,21.09,0,0,1,5-12.26h29a21.05,21.05,0,0,1,5,12.28L150,32.73v2.46l2.11,1.19a21.13,21.13,0,0,1-5,12.28h-5.86ZM118.11,31.52h29a21,21,0,0,0-2.62-7.38H120.76A20.9,20.9,0,0,0,118.11,31.52Z"/><path class="af56351c-a980-4ac9-b23f-ba6dd4ff8ead" d="M176,44.5l-4.88,4.88V24.14h-16V19.26h36.79v4.88H176Z"/><path class="af56351c-a980-4ac9-b23f-ba6dd4ff8ead" d="M202.71,43.78h23.75A19.65,19.65,0,0,0,229.24,34a19.74,19.74,0,0,0-2.78-9.82H223.2V19.26h5.86A21.82,21.82,0,0,1,234.13,34a21.75,21.75,0,0,1-5.07,14.7h-29A21.79,21.79,0,0,1,195,34a21.86,21.86,0,0,1,5.06-14.7H206v4.88h-3.24A19.58,19.58,0,0,0,199.9,34,19.5,19.5,0,0,0,202.71,43.78Z"/><path class="af56351c-a980-4ac9-b23f-ba6dd4ff8ead" d="M246.39,40.48l-5.15,8.18h-6.09l18.68-29.4h5.62L278,48.66h-6l-5.08-8.18Zm17.47-4.86-7.18-11.5-7.23,11.5Z"/><path class="af56351c-a980-4ac9-b23f-ba6dd4ff8ead" d="M287,43.78h22.11l2.81,4.88h-29.8V23.42L287,18.54Z"/><path class="af56351c-a980-4ac9-b23f-ba6dd4ff8ead" d="M371.82,36.38a21.14,21.14,0,0,1-5,12.28h-29a21.2,21.2,0,0,1-5-12.28H328.3V31.52h4.61a21.09,21.09,0,0,1,5-12.26h29a21.06,21.06,0,0,1,5,12.28l-2.12,1.19v2.46Zm-34-4.86h29a21,21,0,0,0-2.62-7.38H340.5A20.9,20.9,0,0,0,337.85,31.52Zm0,4.86a21.06,21.06,0,0,0,2.65,7.4h23.75a21.18,21.18,0,0,0,2.62-7.4Z"/><path class="af56351c-a980-4ac9-b23f-ba6dd4ff8ead" d="M410,48.66H381A21.86,21.86,0,0,1,375.92,34,21.81,21.81,0,0,1,381,19.26h29A21.77,21.77,0,0,1,415,34,21.82,21.82,0,0,1,410,48.66Zm-2.6-4.88A19.84,19.84,0,0,0,410.14,34a19.78,19.78,0,0,0-2.78-9.82H383.61A19.52,19.52,0,0,0,380.8,34a19.58,19.58,0,0,0,2.81,9.82Z"/><path class="af56351c-a980-4ac9-b23f-ba6dd4ff8ead" d="M421.34,36.38,419.13,34a21.81,21.81,0,0,1,5.06-14.7h5.87v4.88h-3.24a20.9,20.9,0,0,0-2.65,7.38h29a21,21,0,0,0-2.63-7.38H447.3V19.26h5.87A21.81,21.81,0,0,1,458.23,34q0,8.81-5.06,14.7h-29a20.45,20.45,0,0,1-4.41-8.75H425a22.36,22.36,0,0,0,1.79,3.87h23.74a20.43,20.43,0,0,0,2.63-7.4Z"/></svg>