<svg xmlns="http://www.w3.org/2000/svg" xmlns:xlink="http://www.w3.org/1999/xlink" viewBox="0 0 470.58 67.66"><defs><style>.a69530a9-489b-40af-b07e-c548aa59eff2{stroke:#9def48;stroke-miterlimit:10;fill:url(#e43b9ee6-e9c6-4211-9c5e-a757953336fd);}.e00baa8b-16eb-46ad-94cd-2def6f4f06ee{fill:#9def48;}.f1140172-3d7f-4b2d-bfd4-9e658005d5be{fill:#f91b20;}</style><linearGradient id="e43b9ee6-e9c6-4211-9c5e-a757953336fd" x1="0.5" y1="33.83" x2="470.08" y2="33.83" gradientUnits="userSpaceOnUse"><stop offset="0" stop-color="#032c02"/><stop offset="1" stop-color="#207a09"/></linearGradient></defs><g id="b6a6c563-fc65-48f0-93c8-a6f5875c0862" data-name="calque3"><polygon class="a69530a9-489b-40af-b07e-c548aa59eff2" points="0.5 6.04 102.57 6.04 108.7 0.5 150.44 0.5 158.35 6.04 461.77 6.24 470.08 16.13 470.08 59.84 50.94 59.84 42.83 67.16 8.02 67.16 0.5 59.84 0.5 6.04"/><path class="e00baa8b-16eb-46ad-94cd-2def6f4f06ee" d="M83.39,30.79l1.85,2A18.21,18.21,0,0,1,81,45.08H56.87a17.11,17.11,0,0,1-3.67-7.3h4.37A19,19,0,0,0,59.06,41H78.85A17.3,17.3,0,0,0,81,34.84H54.49l-1.84-2a18.22,18.22,0,0,1,4.22-12.25H81a17.11,17.11,0,0,1,3.67,7.3H80.32a18.55,18.55,0,0,0-1.47-3.23H59.06a17.33,17.33,0,0,0-2.21,6.15Z"/><path class="e00baa8b-16eb-46ad-94cd-2def6f4f06ee" d="M90.5,34.84l-1.84-2a18.17,18.17,0,0,1,4.22-12.25h4.89v4.07h-2.7a17.33,17.33,0,0,0-2.21,6.15H117a17.44,17.44,0,0,0-2.18-6.15h-2.72V20.57H117a18.22,18.22,0,0,1,4.22,12.25A18.21,18.21,0,0,1,117,45.08H92.88a17.13,17.13,0,0,1-3.68-7.3h4.38A19,19,0,0,0,95.07,41h19.79A17.08,17.08,0,0,0,117,34.84Z"/><path class="e00baa8b-16eb-46ad-94cd-2def6f4f06ee" d="M155.41,30.79l1.85,2A18.17,18.17,0,0,1,153,45.08H128.89a17.13,17.13,0,0,1-3.68-7.3h4.38A19,19,0,0,0,131.07,41h19.79a16.92,16.92,0,0,0,2.19-6.17H126.51l-1.84-2a18.17,18.17,0,0,1,4.22-12.25H153a17.13,17.13,0,0,1,3.68,7.3h-4.38a17.18,17.18,0,0,0-1.47-3.23H131.07a17.49,17.49,0,0,0-2.2,6.15Z"/><path class="e00baa8b-16eb-46ad-94cd-2def6f4f06ee" d="M177.18,41.61l-4.06,4.06v-21h-13.3V20.57h30.66v4.07h-13.3Z"/><path class="e00baa8b-16eb-46ad-94cd-2def6f4f06ee" d="M215.79,34.84H198.87a17.66,17.66,0,0,0,2.2,6.17h20.14l2.34,4.07H198.89a17.62,17.62,0,0,1-4.14-10.24h-3.84V30.79h3.84a17.51,17.51,0,0,1,4.14-10.22h24.66l-2.34,4.07H201.07a17.49,17.49,0,0,0-2.2,6.15h16.92Z"/><path class="e00baa8b-16eb-46ad-94cd-2def6f4f06ee" d="M239.53,24.64h-7.87a16.32,16.32,0,0,0-2.34,8.18A16.41,16.41,0,0,0,231.66,41h2.71v4.07h-4.89a18.2,18.2,0,0,1-4.22-12.26,18.13,18.13,0,0,1,4.22-12.25h10.05V16.72h4.05v3.85h10a18.18,18.18,0,0,1,4.22,12.25,18.25,18.25,0,0,1-4.22,12.26h-4.89V41h2.72a16.59,16.59,0,0,0,2.32-8.19,16.49,16.49,0,0,0-2.32-8.18h-7.88V39.16h-4.05Z"/><path class="e00baa8b-16eb-46ad-94cd-2def6f4f06ee" d="M276.05,24.64h-4.53V20.57h8.59v21l-4.06,4.06Z"/></g><g id="feb92e52-94e6-494e-b98d-a46d5cd52390" data-name="namco"><path id="b33fc41c-3ff0-48c0-8b14-d819c3b9ed80" data-name="rect4393" class="f1140172-3d7f-4b2d-bfd4-9e658005d5be" d="M21.49,16.56a2,2,0,0,0,2,2h3.54a2,2,0,0,0,2-2V10.15a2,2,0,0,0-2-2H23.51a2,2,0,0,0-2,2Zm2.15-.46V10.65h3.28V16.1Z"/><path id="ba5704fb-e11b-43a1-baf2-ded415cf0561" data-name="rect4348" class="f1140172-3d7f-4b2d-bfd4-9e658005d5be" d="M21.64,64.82h7.44V62.33H23.79V57.65h5.29V55.21H23.66a2,2,0,0,0-2,2Z"/><path id="bc0a8a80-89a7-45cb-913c-0940436e5ca0" data-name="path4359" class="f1140172-3d7f-4b2d-bfd4-9e658005d5be" d="M21.64,53.53h2V46.78h.53v5.27a2,2,0,0,0,2,2h.9a2,2,0,0,0,2-2v-7.7H23.66a2,2,0,0,0-2,2v7.16Zm4.47-2V46.79h1.06v4.75Z"/><path id="b096e480-a121-4fa4-a341-b0192df6d47b" data-name="path4384" class="f1140172-3d7f-4b2d-bfd4-9e658005d5be" d="M21.64,42.82h7.44V40.33H23.79V37.78h5.29V35.29H23.79v-2.6h5.29V30.25H23.66a2,2,0,0,0-2,2Z"/><path id="f29d24e6-9d85-4525-9345-05aa01fa2319" data-name="rect4389" class="f1140172-3d7f-4b2d-bfd4-9e658005d5be" d="M21.49,26.79a2,2,0,0,0,2,2h3.54a2,2,0,0,0,2-2V20H26.92v6.3H23.64V20H21.49Z"/></g></svg>