<?xml version="1.0" encoding="UTF-8"?>
<svg id="Calque_1" data-name="Calque 1" xmlns="http://www.w3.org/2000/svg" width="228.9" height="410.9" viewBox="0 0 228.9 410.9">
  <defs>
    <style>
      .cls-1 {
        fill: #f44040;
        stroke: #932828;
        stroke-miterlimit: 10;
        stroke-width: 4px;
      }
    </style>
  </defs>
  <path d="M152.7,138.6l-23.5-25.1c-3.5-3.7-3.5-9.4,0-13.1l23.5-25.1c2-2.1,4.8-3.3,7.8-3.3h33.4c5.8,0,10.4,4.4,10.4,9.9v50.2c0,5.5-4.7,9.9-10.4,9.9h-33.4c-3,0-5.8-1.2-7.8-3.3Z"/>
  <path d="M76.1,138.6l23.5-25.1c3.5-3.7,3.5-9.4,0-13.1l-23.5-25.1c-2-2.1-4.8-3.3-7.8-3.3H34.9c-5.8,0-10.4,4.4-10.4,9.9v50.2c0,5.5,4.7,9.9,10.4,9.9h33.4c3,0,5.8-1.2,7.8-3.3Z"/>
  <path d="M146.1,68.6l-25.1,23.5c-3.7,3.5-9.4,3.5-13.1,0l-25.1-23.5c-2.1-2-3.3-4.8-3.3-7.8V27.3c0-5.8,4.4-10.4,9.9-10.4h50.2c5.5,0,9.9,4.7,9.9,10.4V60.8c0,3-1.2,5.8-3.3,7.8Z"/>
  <path d="M146.1,145.2l-25.1-23.5c-3.7-3.5-9.4-3.5-13.1,0l-25.1,23.5c-2.1,2-3.3,4.8-3.3,7.8v33.4c0,5.8,4.4,10.4,9.9,10.4h50.2c5.5,0,9.9-4.7,9.9-10.4v-33.4c0-3-1.2-5.8-3.3-7.8Z"/>
  <g>
    <circle class="cls-1" cx="97.8" cy="277.7" r="33"/>
    <circle class="cls-1" cx="131" cy="352.6" r="33"/>
  </g>
</svg>