<?xml version="1.0" encoding="UTF-8"?>
<svg id="Calque_1" data-name="Calque 1" xmlns="http://www.w3.org/2000/svg" width="437.8" height="698.3" viewBox="0 0 437.8 698.3">
  <defs>
    <style>
      .cls-1, .cls-2 {
        fill: #fff;
      }

      .cls-3, .cls-4, .cls-5 {
        fill: none;
        stroke: #fff;
        stroke-miterlimit: 10;
      }

      .cls-4 {
        stroke-width: .2px;
      }

      .cls-2 {
        isolation: isolate;
        opacity: .7;
      }

      .cls-5 {
        stroke-linecap: round;
        stroke-width: 2px;
      }

      .cls-6 {
        fill: #1d1d1b;
      }
    </style>
  </defs>
  <rect class="cls-3" x="1.8" y="619" width="10.7" height="24.4"/>
  <rect class="cls-3" x="425.6" y="619" width="10.7" height="24.4"/>
  <rect class="cls-3" x="426.6" y="339.9" width="10.7" height="24.4"/>
  <rect class="cls-3" x=".7" y="339.9" width="10.7" height="24.4"/>
  <rect class="cls-3" x="426.2" y="55.4" width="10.7" height="24.4"/>
  <rect class="cls-3" x=".7" y="55.4" width="10.7" height="24.4"/>
  <path class="cls-4" d="M424.8,674.3c0,7-5.6,12.6-12.6,12.6H23.9c-7,0-12.6-5.6-12.6-12.6V24.7c0-7,5.6-12.6,12.6-12.6H412.2c7,0,12.6,5.6,12.6,12.6V674.3Z"/>
  <path class="cls-2" d="M409.6,0H28.1C12.6,0,0,12.6,0,28.1V670.2c0,15.5,12.6,28.1,28.1,28.1H409.6c15.5,0,28.1-12.6,28.1-28.1V28.2c0-15.5-12.6-28.1-28.1-28.1h0Zm15.2,674.2c0,7-5.6,12.6-12.6,12.6H23.9c-7,0-12.6-5.6-12.6-12.6V24.7c0-7,5.6-12.6,12.6-12.6H412.2c7,0,12.6,5.6,12.6,12.6V674.3Z"/>
  <rect class="cls-6" x="11.3" y="12.1" width="413.4" height="674.8" rx="12.6" ry="12.6"/>
  <g>
    <rect class="cls-6" x="72.5" y="46" width="289.5" height="231.2"/>
    <path class="cls-6" d="M64.7,277.2V45.4c0-3.1,2.5-5.6,5.7-5.6H364.1c3.1,0,5.7,2.5,5.7,5.6v231.8h49.8V24.5c0-3.3-2.7-6-6-6H23c-3.3,0-6,2.7-6,6v252.6h47.7Z"/>
  </g>
  <path class="cls-1" d="M77.2,53.2H358.4c1,0,1.9,.8,1.9,1.9V202.9c0,5.5-4.4,9.9-9.9,9.9H85.2c-5.5,0-9.9-4.4-9.9-9.9V55.1c0-1,.8-1.9,1.9-1.9Z"/>
  <g>
    <g>
      <path class="cls-1" d="M369.7,382.7c-19.8,0-36.5,12.7-42.6,30.5l-14.3,6.5c-5.5-2.4-11.6-3.7-18-3.7-24.9,0-45,20.1-45,45s20.1,45,45,45,35.1-11.7,41.7-28.2l17.4-7.9c4.9,1.8,10.2,2.8,15.7,2.8,24.9,0,45-20.1,45-45s-20.1-45-45-45h0Z"/>
      <path class="cls-1" d="M369.7,383.4c-18.5-.2-36.1,12.4-42.1,29.9v.2h-.2l-14.3,6.6h-.2c-5.1-2.1-10.6-3.3-16.2-3.4-7.9-.2-15.8,1.8-22.7,5.5-33.7,19.2-28.7,68.5,8.4,80.2,21.4,6.6,44.2-5,53.8-24.9v-.2h.2l17.4-7.9h.4c6.2,1.9,12.7,2.6,19.1,1.9,2.3-.2,4.9-.6,7.1-1.2,2.2-.5,4.7-1.3,6.8-2.2,45.2-19.8,31.3-83.6-17.4-84.5h0Zm0-1.4c18.4,0,35.8,12.3,42,29.5,7.8,20.3-.2,45.1-19.2,56.3-11.4,7-26.5,8.3-38.7,2.6h.4l-17.4,7.9,.3-.3c-5.4,17.7-23.7,29.9-42.1,29.6-41.8-.5-62.1-50.1-32.3-79.6,8.6-8.3,20.5-12.9,32.4-12.8,6.2,0,12.4,1.5,18,4h-.4l14.3-6.5-.3,.3c1.5-4.5,3.6-8.7,6.4-12.5,8.4-11.5,22.4-18.6,36.6-18.5h0Z"/>
    </g>
    <circle class="cls-6" cx="294.8" cy="460.9" r="36.4"/>
  </g>
  <circle class="cls-6" cx="369.7" cy="427.7" r="36.4"/>
  <path class="cls-1" d="M162.4,457.4l-20.1-21.5c-3-3.2-3-8.1,0-11.2l20.1-21.5c1.7-1.8,4.1-2.8,6.7-2.8h28.6c5,0,8.9,3.8,8.9,8.5v43c0,4.7-4,8.5-8.9,8.5h-28.6c-2.6,0-5-1-6.7-2.8h0Z"/>
  <path class="cls-1" d="M82.2,457.4l20.1-21.5c3-3.2,3-8.1,0-11.2l-20.1-21.5c-1.7-1.8-4.1-2.8-6.7-2.8h-28.6c-5,0-8.9,3.8-8.9,8.5v43c0,4.7,4,8.5,8.9,8.5h28.6c2.6,0,5-1,6.7-2.8h0Z"/>
  <path class="cls-1" d="M149.4,390.2l-21.5,20.1c-3.2,3-8.1,3-11.2,0l-21.5-20.1c-1.8-1.7-2.8-4.1-2.8-6.7v-28.6c0-5,3.8-8.9,8.5-8.9h43c4.7,0,8.5,4,8.5,8.9v28.6c0,2.6-1,5-2.8,6.7h0Z"/>
  <path class="cls-1" d="M149.4,470.3l-21.5-20.1c-3.2-3-8.1-3-11.2,0l-21.5,20.1c-1.8,1.7-2.8,4.1-2.8,6.7v28.6c0,5,3.8,8.9,8.5,8.9h43c4.7,0,8.5-4,8.5-8.9v-28.6c0-2.6-1-5-2.8-6.7h0Z"/>
  <path class="cls-1" d="M75.3,218.1H358.4v2.7c0,15.9-12.9,28.9-28.9,28.9H104.2c-15.9,0-28.9-12.9-28.9-28.9v-2.7h0Z"/>
  <rect class="cls-1" x="384.8" y="183" width="24" height="39.1"/>
  <rect class="cls-1" x="384.1" y="145.6" width="25.5" height="13"/>
  <rect class="cls-1" x="30.1" y="189.5" width="25.5" height="18.7"/>
  <circle class="cls-1" cx="396.8" cy="46.7" r="14.7"/>
  <circle class="cls-1" cx="42.9" cy="46.7" r="14.7"/>
  <circle class="cls-1" cx="396.8" cy="658.9" r="14.7"/>
  <circle class="cls-1" cx="42.9" cy="658.9" r="14.7" transform="translate(-617.1 679.8) rotate(-88.1)"/>
  <g>
    <circle class="cls-6" cx="42.9" cy="46.7" r="10"/>
    <path class="cls-6" d="M53.1,46.7c.2,9.3-11.1,14-17.6,7.4-3.9-3.9-3.8-10.8,.2-14.5,6.2-6.2,17.3-1.7,17.4,7.1h0Zm-.5,0c.2-8.8-10.6-13.4-16.8-7-3.7,3.7-3.6,10.3,.2,13.8,5.9,5.9,16.4,1.6,16.5-6.8h0Z"/>
  </g>
  <g>
    <circle class="cls-6" cx="42.9" cy="658.9" r="10"/>
    <path class="cls-6" d="M53.1,658.9c.2,9.3-11.1,14-17.6,7.4-3.9-3.9-3.8-10.8,.2-14.5,6.2-6.2,17.3-1.7,17.4,7.1h0Zm-.5,0c.2-8.8-10.6-13.4-16.8-7-3.7,3.7-3.6,10.3,.2,13.8,5.9,5.9,16.4,1.6,16.5-6.8h0Z"/>
  </g>
  <g>
    <circle class="cls-6" cx="396.8" cy="46.7" r="10"/>
    <path class="cls-6" d="M407.1,46.7c.2,9.3-11.1,14-17.6,7.4-3.9-3.9-3.8-10.8,.2-14.5,6.2-6.2,17.3-1.7,17.4,7.1h0Zm-.5,0c.2-8.8-10.6-13.4-16.8-7-3.7,3.7-3.6,10.3,.2,13.8,5.9,5.9,16.4,1.6,16.5-6.8h0Z"/>
  </g>
  <g>
    <circle class="cls-6" cx="396.8" cy="658.9" r="10"/>
    <path class="cls-6" d="M407.1,658.9c.2,9.3-11.1,14-17.6,7.4-3.9-3.9-3.8-10.8,.2-14.5,6.2-6.2,17.3-1.7,17.4,7.1h0Zm-.5,0c.2-8.8-10.6-13.4-16.8-7-3.7,3.7-3.6,10.3,.2,13.8,5.9,5.9,16.4,1.6,16.5-6.8h0Z"/>
  </g>
  <g>
    <polygon class="cls-1" points="251.9 680.7 191.9 680.7 191.9 630.1 200.8 630.1 204 636.7 221.9 636.8 240.1 636.7 242.8 630.1 251.9 630.1 251.9 680.7"/>
    <polygon class="cls-1" points="249.7 680.7 194 680.7 194 630.1 202.3 630.1 205.3 636.7 221.9 636.8 238.8 636.7 241.3 630.1 249.7 630.1 249.7 680.7"/>
    <rect class="cls-1" x="183" y="630.1" width="8.8" height="7.9"/>
    <rect class="cls-1" x="183" y="672.8" width="8.8" height="7.9"/>
    <rect class="cls-1" x="251.9" y="630.1" width="8.8" height="7.9"/>
    <rect class="cls-1" x="251.9" y="672.8" width="8.8" height="7.9"/>
  </g>
  <rect class="cls-6" x="95.7" y="67.6" width="243.7" height="128.4"/>
  <g>
    <polygon class="cls-1" points="98.3 641.9 103 641.9 103 637.9 134.7 637.9 134.7 641.9 139.4 641.9 139.4 660.6 134.4 660.6 134.4 664.1 128.5 664.1 128.5 668.5 123 672.9 115.4 672.9 110.1 668.5 109.9 664 104 664 103.9 660.6 98.3 660.5 98.3 641.9"/>
    <line class="cls-5" x1="103" y1="643.2" x2="103" y2="659.5"/>
    <line class="cls-5" x1="134.7" y1="643.2" x2="134.7" y2="659.5"/>
  </g>
</svg>