<?xml version="1.0" encoding="UTF-8"?>
<svg id="Calque_1" data-name="Calque 1" xmlns="http://www.w3.org/2000/svg" width="187.6" height="186.7" viewBox="0 0 187.6 186.7">
  <defs>
    <style>
      .cls-1 {
        fill: #c6a235;
      }
    </style>
  </defs>
  <path class="cls-1" d="M133.9,120.1l-20.1-21.5c-3-3.2-3-8.1,0-11.2l20.1-21.5c1.7-1.8,4.1-2.8,6.7-2.8h28.6c5,0,8.9,3.8,8.9,8.5v43c0,4.7-4,8.5-8.9,8.5h-28.6c-2.6,0-5-1-6.7-2.8h0Z"/>
  <path class="cls-1" d="M54.1,120.1l20.1-21.5c3-3.2,3-8.1,0-11.2l-20.1-21.5c-1.7-1.8-4.1-2.8-6.7-2.8H18.8c-5,0-8.9,3.8-8.9,8.5v43c0,4.7,4,8.5,8.9,8.5h28.6c2.6,0,5-1,6.7-2.8h0Z"/>
  <path class="cls-1" d="M121.3,52.9l-21.5,20.1c-3.2,3-8.1,3-11.2,0l-21.5-20.1c-1.8-1.7-2.8-4.1-2.8-6.7V17.6c0-5,3.8-8.9,8.5-8.9h43c4.7,0,8.5,4,8.5,8.9v28.6c0,2.6-1,5-2.8,6.7h0Z"/>
  <path class="cls-1" d="M120.9,133l-21.5-20.1c-3.2-3-8.1-3-11.2,0l-21.5,20.1c-1.8,1.7-2.8,4.1-2.8,6.7v28.6c0,5,3.8,8.9,8.5,8.9h43c4.7,0,8.5-4,8.5-8.9v-28.6c0-2.6-1-5-2.8-6.7h0Z"/>
</svg>