<svg id="b323bb19-5f24-41b8-9aab-c8310d153b17" data-name="calque3" xmlns="http://www.w3.org/2000/svg" xmlns:xlink="http://www.w3.org/1999/xlink" viewBox="0 0 470.58 67.66"><defs><style>.b763bacf-34e4-47e0-b34f-ed29c449e2a9{stroke:#9def48;stroke-miterlimit:10;fill:url(#bf90c481-73fc-4d55-aee4-d0af754dbf9d);}.fa89c1b8-abbb-47df-88e4-b453cc8c3eb6{fill:#9def48;}</style><linearGradient id="bf90c481-73fc-4d55-aee4-d0af754dbf9d" x1="0.5" y1="33.83" x2="470.08" y2="33.83" gradientUnits="userSpaceOnUse"><stop offset="0" stop-color="#032c02"/><stop offset="1" stop-color="#207a09"/></linearGradient></defs><polygon class="b763bacf-34e4-47e0-b34f-ed29c449e2a9" points="0.5 6.04 102.57 6.04 108.7 0.5 150.44 0.5 158.35 6.04 461.77 6.24 470.08 16.13 470.08 59.84 50.94 59.84 42.83 67.16 8.02 67.16 0.5 59.84 0.5 6.04"/><path class="fa89c1b8-abbb-47df-88e4-b453cc8c3eb6" d="M63.73,38,59.44,44.8H54.37L69.93,20.29h4.69L90.07,44.8h-5L80.82,38Zm14.56-4-6-9.59-6,9.59Z"/><path class="fa89c1b8-abbb-47df-88e4-b453cc8c3eb6" d="M115.17,40.73h2.72a17.83,17.83,0,0,0,2.19-6.17H95.89a17.69,17.69,0,0,0,2.21,6.17h2.7V44.8H95.91a17.67,17.67,0,0,1-4.13-10.24H87.93V30.51h3.85a17.59,17.59,0,0,1,4.13-10.22h24.15a17.69,17.69,0,0,1,4.14,10.24l-1.77,1v2.05l1.77,1a17.75,17.75,0,0,1-4.14,10.24h-4.89ZM95.89,30.51h24.19a17.67,17.67,0,0,0-2.19-6.15H98.1A17.52,17.52,0,0,0,95.89,30.51Z"/><path class="fa89c1b8-abbb-47df-88e4-b453cc8c3eb6" d="M128.47,20.29h27a18.19,18.19,0,0,1,4.22,12.26,18.22,18.22,0,0,1-4.22,12.25h-27Zm4.06,20.44H153.3a16.45,16.45,0,0,0,2.32-8.18,16.4,16.4,0,0,0-2.32-8.19H132.53Z"/><path class="fa89c1b8-abbb-47df-88e4-b453cc8c3eb6" d="M169.52,40.73h19.79a16.39,16.39,0,0,0,2.32-8.18,16.45,16.45,0,0,0-2.32-8.19h-2.72V20.29h4.89a18.23,18.23,0,0,1,4.22,12.26,18.18,18.18,0,0,1-4.22,12.25H167.33a18.18,18.18,0,0,1-4.22-12.25,18.23,18.23,0,0,1,4.22-12.26h4.89v4.07h-2.7a16.38,16.38,0,0,0-2.34,8.19A16.32,16.32,0,0,0,169.52,40.73Z"/><path class="fa89c1b8-abbb-47df-88e4-b453cc8c3eb6" d="M235.38,34.56a17.67,17.67,0,0,1-4.13,10.24H207.1A17.62,17.62,0,0,1,203,34.56h-3.84V30.51H203a17.53,17.53,0,0,1,4.14-10.22h24.15a17.62,17.62,0,0,1,4.13,10.24l-1.76,1v2.05Zm-28.3-4.05h24.18a17.44,17.44,0,0,0-2.18-6.15H209.29A17.33,17.33,0,0,0,207.08,30.51Zm0,4.05a17.49,17.49,0,0,0,2.21,6.17h19.79a17.6,17.6,0,0,0,2.18-6.17Z"/><path class="fa89c1b8-abbb-47df-88e4-b453cc8c3eb6" d="M267.17,44.8H243a18.22,18.22,0,0,1-4.22-12.25A18.19,18.19,0,0,1,243,20.29h24.15a18.19,18.19,0,0,1,4.22,12.26A18.22,18.22,0,0,1,267.17,44.8ZM265,40.73a16.45,16.45,0,0,0,2.32-8.18A16.4,16.4,0,0,0,265,24.36H245.21a16.33,16.33,0,0,0-2.34,8.19,16.37,16.37,0,0,0,2.34,8.18Z"/><path class="fa89c1b8-abbb-47df-88e4-b453cc8c3eb6" d="M276.65,34.56l-1.84-2A18.23,18.23,0,0,1,279,20.29h4.89v4.07h-2.7A17.33,17.33,0,0,0,279,30.51H303.2A17.67,17.67,0,0,0,301,24.36h-2.72V20.29h4.89a18.23,18.23,0,0,1,4.22,12.26,18.18,18.18,0,0,1-4.22,12.25H279a17,17,0,0,1-3.67-7.3h4.37a19,19,0,0,0,1.49,3.23H301a17.3,17.3,0,0,0,2.19-6.17Z"/></svg>