<svg xmlns="http://www.w3.org/2000/svg" xmlns:xlink="http://www.w3.org/1999/xlink" viewBox="0 0 470.33 67.41"><defs><style>.e48c4d03-8544-4adf-a47b-d7e1e442120d{stroke:#9def48;stroke-miterlimit:10;stroke-width:0.75px;fill:url(#f218f679-832f-4039-b61f-2133604fbb27);}.b4037b85-bd9c-4965-81cf-a366bdb9998c{fill:#9def48;}.abfbcf9d-0cf1-489b-bd10-f1de3e5557d0{fill:#15579d;}</style><linearGradient id="f218f679-832f-4039-b61f-2133604fbb27" x1="0.38" y1="33.7" x2="469.96" y2="33.7" gradientUnits="userSpaceOnUse"><stop offset="0" stop-color="#032c02"/><stop offset="1" stop-color="#207a09"/></linearGradient></defs><g id="ebe92747-230c-4ee0-8d25-18eb6a124fe4" data-name="texte"><polygon class="e48c4d03-8544-4adf-a47b-d7e1e442120d" points="0.38 5.91 102.44 5.91 108.57 0.38 150.31 0.38 158.22 5.91 461.65 6.11 469.96 16 469.96 59.72 50.81 59.72 42.7 67.03 7.89 67.03 0.38 59.72 0.38 5.91"/><path class="b4037b85-bd9c-4965-81cf-a366bdb9998c" d="M65.87,24.68H58.23a15.94,15.94,0,0,0-2.27,8,16,16,0,0,0,2.27,8h2.63v3.95H56.11A17.67,17.67,0,0,1,52,32.63a17.62,17.62,0,0,1,4.1-11.9h9.76V17H69.8v3.73h9.77a17.67,17.67,0,0,1,4.1,11.9,17.72,17.72,0,0,1-4.1,11.91H74.82V40.59h2.64a16.08,16.08,0,0,0,2.25-8,16,16,0,0,0-2.25-8H69.8V38.79H65.87Z" transform="translate(-0.06 -0.03)"/><path class="b4037b85-bd9c-4965-81cf-a366bdb9998c" d="M111.16,34.59H94.72a17.1,17.1,0,0,0,2.14,6h19.56l2.28,3.95h-24a17.11,17.11,0,0,1-4-9.95H87V30.66h3.73a17,17,0,0,1,4-9.93h24l-2.28,3.95H96.86a16.93,16.93,0,0,0-2.14,6h16.44Z" transform="translate(-0.06 -0.03)"/><path class="b4037b85-bd9c-4965-81cf-a366bdb9998c" d="M151.93,30.66c.06.64.08,1.3.08,2a17.67,17.67,0,0,1-4.1,11.91H124.46a17.67,17.67,0,0,1-4.1-11.91,17.62,17.62,0,0,1,4.1-11.9h23.45a16.6,16.6,0,0,1,3.57,7.09h-4.25a17.8,17.8,0,0,0-1.42-3.14H126.58a15.84,15.84,0,0,0-2.27,8,15.9,15.9,0,0,0,2.27,8h19.23a17.45,17.45,0,0,0,2.12-6H133.59V30.66Z" transform="translate(-0.06 -0.03)"/><path class="b4037b85-bd9c-4965-81cf-a366bdb9998c" d="M161.94,37.91l-4.16,6.63h-4.94L168,20.73h4.55l15,23.81h-4.87l-4.12-6.63ZM176.09,34l-5.81-9.31L164.42,34Z" transform="translate(-0.06 -0.03)"/><path class="b4037b85-bd9c-4965-81cf-a366bdb9998c" d="M190.85,20.73h26.23a17.67,17.67,0,0,1,4.1,11.9,17.72,17.72,0,0,1-4.1,11.91H190.85Zm4,19.86H215a16.09,16.09,0,0,0,2.26-8,16,16,0,0,0-2.26-8H194.8Z" transform="translate(-0.06 -0.03)"/><path class="b4037b85-bd9c-4965-81cf-a366bdb9998c" d="M251,40.59h2.64a17,17,0,0,0,2.12-6H232.23a17.1,17.1,0,0,0,2.14,6H237v3.95h-4.75a17.11,17.11,0,0,1-4-9.95H224.5V30.66h3.73a17,17,0,0,1,4-9.93h23.46a17.16,17.16,0,0,1,4,10l-1.71,1v2l1.71,1a17.25,17.25,0,0,1-4,9.95H251Zm-18.73-9.93h23.49a16.88,16.88,0,0,0-2.12-6H234.37A16.93,16.93,0,0,0,232.23,30.66Z" transform="translate(-0.06 -0.03)"/><path class="b4037b85-bd9c-4965-81cf-a366bdb9998c" d="M268.66,44.54h-4V24.1l4-4Z" transform="translate(-0.06 -0.03)"/><path class="b4037b85-bd9c-4965-81cf-a366bdb9998c" d="M307.9,20.73l-15,23.81h-4.55L273.22,20.73h4.93l12.5,19.87L303,20.73Z" transform="translate(-0.06 -0.03)"/><path class="b4037b85-bd9c-4965-81cf-a366bdb9998c" d="M330.41,34.59H314a17.1,17.1,0,0,0,2.14,6h19.56L338,44.54H314a17.11,17.11,0,0,1-4-9.95h-3.74V30.66H310a17,17,0,0,1,4-9.93H338l-2.27,3.95H316.12a16.93,16.93,0,0,0-2.14,6h16.43Z" transform="translate(-0.06 -0.03)"/></g><g id="e592b50c-30ed-4e14-abe8-5e91315cbbb8" data-name="sega"><path class="abfbcf9d-0cf1-489b-bd10-f1de3e5557d0" d="M33.73,8.1l0,4.1s0,2.09,0,4.95v.45H32.57l-1.14,0c0-1.76,0-3.95,0-5.7,0-.18,0-.55,0-.55L24.83,13.6l-4.95,1.69a1.33,1.33,0,0,0-1,1.29,1.31,1.31,0,0,0,1,1.27q6.72,2.31,13.46,4.57c.45.15.5.32.5.71q0,4.62,0,9.24a4.71,4.71,0,0,1-4.31,4.48c-2.72,0-5.44.06-8.16,0a4.51,4.51,0,0,1-4.22-4.39c-.05-2.54,0-5.41,0-7.95h2.33v.41c0,2.33,0,4.67,0,7a2.5,2.5,0,0,0,2.66,2.65c2.31-.08,4.61,0,6.92,0a2.31,2.31,0,0,0,2.47-2.47c0-1.6,0-3.2,0-4.79,0-.37-.11-.45-.46-.44-1.79,0-3.59,0-5.38,0-.42,0-.49.12-.49.51,0,1.11,0,3.35,0,3.35v.4H22.84V24.52H31.9l0-.1-2.26-.79L19.23,20.07a3.62,3.62,0,0,1-2.3-2.6,6,6,0,0,1-.05-1.61A3.62,3.62,0,0,1,19.48,13c.75-.23,1.5-.5,2.25-.76l12-4.11Zm-2.26,53c0-1.11,0-2.23,0-3.35a3.16,3.16,0,0,0-3.12-3.24,3.2,3.2,0,0,0-3.17,3.26c0,.63,0,1.25,0,1.87a2.58,2.58,0,0,1-5.15.09c0-2.41,0-5.13,0-7.54h2.32s0,4.81,0,7v.29c0,.23,0,.44.31.44s.27-.22.27-.43c0-.56,0-1.12,0-1.67a5.45,5.45,0,0,1,5.64-5.62,5.32,5.32,0,0,1,4.81,3.2,5.07,5.07,0,0,1,.53,2.45c0,1.45,0,4.35,0,4.35l0,3H31.45S31.47,62.32,31.47,61.09Z" transform="translate(-0.06 -0.03)"/><path class="abfbcf9d-0cf1-489b-bd10-f1de3e5557d0" d="M17.08,56.26V52.18h2.34s0,5,0,7.33a3.14,3.14,0,1,0,6.28,0c0-.62,0-1.25,0-1.87a2.58,2.58,0,1,1,5.16.1c0,2.28,0,5.12,0,7.41H28.56s0-4.87,0-7.07c0-.25.12-.65-.25-.66s-.3.4-.31.66a11.84,11.84,0,0,1-.22,3.09,5.34,5.34,0,0,1-5.18,3.93,5.42,5.42,0,0,1-5.52-5.42c0-1.15,0-2.3,0-3.45ZM33.81,37.74v.51c0,2.46,0,4.92,0,7.38a4.78,4.78,0,0,1-4.56,4.74c-2.61,0-5.22,0-7.82,0A4.51,4.51,0,0,1,17.12,46c-.06-2.64,0-8.23,0-8.23l1.16,0h1.16v.45c0,2.44,0,4.89,0,7.33a2.47,2.47,0,0,0,2.52,2.55c2.34-.07,4.68,0,7,0a2.3,2.3,0,0,0,2.52-2.52c0-2.43,0-7.74,0-7.74h.5ZM29,17.64c.79.27,1.57.55,2.36.8a12.16,12.16,0,0,0,2.34.72c.13,0,.1.14.1.23V22L23.38,18.45c-1.11-.37-2.21-.76-3.33-1.13a.76.76,0,0,1-.63-.73c0-.44.25-.64.64-.77l10.43-3.55.41-.14c0,1.54,0,3.54,0,5.09v.35H29Zm-.34-.07a.48.48,0,0,1-.32-.54,9.19,9.19,0,0,0,0-1.05c0-.11,0-.26-.16-.2l-2.29.78c1,.4,1.92.59,2.77,1ZM25.44,34H22a1.8,1.8,0,0,1-2-2c0-2.35,0-4.7,0-7.05v-.45h2.31V25c0,2,0,3.93,0,5.89,0,.62.15.77.75.77h4.82c.55,0,.72-.17.73-.74,0-.29,0-.91,0-1.19H28v.34l0,1H25.7V29.85s0-1.41,0-2.11c0-.28.09-.35.35-.35h4.48c.26,0,.36.05.36.34,0,1.51,0,3,0,4.55A1.71,1.71,0,0,1,29.1,34c-1.22,0-2.44,0-3.67,0Z" transform="translate(-0.06 -0.03)"/><path class="abfbcf9d-0cf1-489b-bd10-f1de3e5557d0" d="M20,42c0-1.26,0-2.93,0-4.19h2.32v.43c0,2.08,0,4.15,0,6.23a.73.73,0,0,0,.09.5c.11.13.22.28.39.21s.08-.34.08-.34c0-1.54,0-5.32,0-5.32h2.33v8h-.29c-1.08,0-2.16,0-3.24,0A1.71,1.71,0,0,1,20,45.74C20,44.48,20,42,20,42Zm10.91,0v3.64a1.73,1.73,0,0,1-1.82,1.83c-1,0-2,0-3,0h-.38c0-2.43,0-5.22,0-7.65v-.38l2.31,0v.38c0,1.63,0,3.25,0,4.88,0,0,0,.45.11.41a.54.54,0,0,0,.43-.38,1.83,1.83,0,0,0,0-.47V37.79h2.31s0,3,0,4.22Z" transform="translate(-0.06 -0.03)"/></g></svg>