<svg id="f9d9a1f7-ae83-4eaf-8ae6-f4088710d0e2" data-name="texte" xmlns="http://www.w3.org/2000/svg" xmlns:xlink="http://www.w3.org/1999/xlink" viewBox="0 0 470.33 67.41"><defs><style>.e627b827-6599-4f75-9a5e-8706e1159d60{stroke:#9def48;stroke-miterlimit:10;stroke-width:0.75px;fill:url(#b2333e00-e709-4f8d-b51a-6b72f3f37b7e);}.b36c43fc-bf0f-427e-94e8-139ea5f91f4e{fill:#9def48;}</style><linearGradient id="b2333e00-e709-4f8d-b51a-6b72f3f37b7e" x1="0.38" y1="33.7" x2="469.96" y2="33.7" gradientUnits="userSpaceOnUse"><stop offset="0" stop-color="#032c02"/><stop offset="1" stop-color="#207a09"/></linearGradient></defs><polygon class="e627b827-6599-4f75-9a5e-8706e1159d60" points="0.38 5.91 102.44 5.91 108.57 0.38 150.31 0.38 158.22 5.91 461.65 6.11 469.96 16 469.96 59.72 50.81 59.72 42.7 67.03 7.89 67.03 0.38 59.72 0.38 5.91"/><path class="b36c43fc-bf0f-427e-94e8-139ea5f91f4e" d="M82,34.25A15.1,15.1,0,0,1,78.48,43H57.78a15.1,15.1,0,0,1-3.54-8.77h-3.3V30.78h3.3A15,15,0,0,1,57.78,22h20.7A15,15,0,0,1,82,30.79l-1.5.85V33.4ZM57.77,30.78H78.49a15.11,15.11,0,0,0-1.87-5.28h-17A14.77,14.77,0,0,0,57.77,30.78Zm0,3.47a14.88,14.88,0,0,0,1.89,5.29h17a15.23,15.23,0,0,0,1.87-5.29Z" transform="translate(-0.06 -0.03)"/><path class="b36c43fc-bf0f-427e-94e8-139ea5f91f4e" d="M90.78,37.18,87.11,43H82.76L96.1,22h4l13.25,21h-4.3l-3.63-5.84Zm12.48-3.47-5.12-8.22L93,33.71Z" transform="translate(-0.06 -0.03)"/><path class="b36c43fc-bf0f-427e-94e8-139ea5f91f4e" d="M123.85,40.05l-3.49,3.48v-18H109V22h26.28V25.5H123.85Z" transform="translate(-0.06 -0.03)"/><path class="b36c43fc-bf0f-427e-94e8-139ea5f91f4e" d="M153.05,40.05l-3.48,3.48v-18h-11.4V22h26.28V25.5h-11.4Z" transform="translate(-0.06 -0.03)"/><path class="b36c43fc-bf0f-427e-94e8-139ea5f91f4e" d="M171.6,39.54h15.79l2,3.48H168.11V25l3.49-3.49Z" transform="translate(-0.06 -0.03)"/><path class="b36c43fc-bf0f-427e-94e8-139ea5f91f4e" d="M209.26,34.25h-14.5a14.88,14.88,0,0,0,1.89,5.29H213.9l2,3.48H194.77a15.1,15.1,0,0,1-3.54-8.77h-3.3V30.78h3.3A15,15,0,0,1,194.77,22h21.14l-2,3.48H196.65a14.77,14.77,0,0,0-1.89,5.28h14.5Z" transform="translate(-0.06 -0.03)"/><path class="b36c43fc-bf0f-427e-94e8-139ea5f91f4e" d="M251,39.54h2.33a15.23,15.23,0,0,0,1.87-5.29H234.46a15.05,15.05,0,0,0,1.88,5.29h2.32V43h-4.19a15.17,15.17,0,0,1-3.55-8.77h-3.29V30.78h3.29A15.09,15.09,0,0,1,234.47,22h20.7a15,15,0,0,1,3.54,8.77l-1.51.85V33.4l1.51.85A15.1,15.1,0,0,1,255.17,43H251Zm-16.52-8.76h20.72a15.11,15.11,0,0,0-1.87-5.28h-17A14.94,14.94,0,0,0,234.46,30.78Z" transform="translate(-0.06 -0.03)"/><path class="b36c43fc-bf0f-427e-94e8-139ea5f91f4e" d="M286,43h-20.7a15.6,15.6,0,0,1-3.62-10.5A15.57,15.57,0,0,1,265.26,22H286a15.57,15.57,0,0,1,3.62,10.5A15.6,15.6,0,0,1,286,43Zm-1.86-3.48a14.15,14.15,0,0,0,2-7,14.06,14.06,0,0,0-2-7h-17a14,14,0,0,0-2,7,14.08,14.08,0,0,0,2,7Z" transform="translate(-0.06 -0.03)"/><path class="b36c43fc-bf0f-427e-94e8-139ea5f91f4e" d="M294.09,34.25l-1.58-1.73A15.6,15.6,0,0,1,296.12,22h4.19V25.5H298a14.77,14.77,0,0,0-1.89,5.28h20.73A15.13,15.13,0,0,0,315,25.5h-2.33V22h4.19a15.55,15.55,0,0,1,3.62,10.5A15.52,15.52,0,0,1,316.82,43h-20.7A14.62,14.62,0,0,1,293,36.77h3.75A16.24,16.24,0,0,0,298,39.54h17a14.79,14.79,0,0,0,1.88-5.29Z" transform="translate(-0.06 -0.03)"/><path class="b36c43fc-bf0f-427e-94e8-139ea5f91f4e" d="M329.2,37.18,325.53,43h-4.36l13.35-21h4l13.25,21h-4.3l-3.63-5.84Zm12.48-3.47-5.12-8.22-5.18,8.22Z" transform="translate(-0.06 -0.03)"/><path class="b36c43fc-bf0f-427e-94e8-139ea5f91f4e" d="M358.19,39.54H374L376,43H354.7V25l3.49-3.49Z" transform="translate(-0.06 -0.03)"/><path class="b36c43fc-bf0f-427e-94e8-139ea5f91f4e" d="M395.85,34.25h-14.5a14.88,14.88,0,0,0,1.89,5.29H400.5l2,3.48H381.37a15,15,0,0,1-3.55-8.77h-3.3V30.78h3.3A15,15,0,0,1,381.37,22H402.5l-2,3.48H383.24a14.77,14.77,0,0,0-1.89,5.28h14.5Z" transform="translate(-0.06 -0.03)"/></svg>