<svg id="bffab247-c748-48ec-9c54-45313bf61199" data-name="b6ddcd02-f928-4e67-9a53-31319260ed2a" xmlns="http://www.w3.org/2000/svg" xmlns:xlink="http://www.w3.org/1999/xlink" viewBox="0 0 88.6 232.52"><defs><style>.a5bee798-a47b-4728-86d7-f85c2fcb3b01,.b7eeffea-dffc-4f55-bcb7-64b995156cb0{fill:#211c1d;}.aec96207-a35b-4e8a-884e-33f7603faa81{opacity:0.1;}.b1ed2bd1-ca50-4c6e-bb98-92abe5d3787b{fill:#808094;}.b8cc7e2c-cbc9-4dba-8b28-78211536c08d{fill:#6d6e6f;}.ea76cdc7-cb7d-41e5-a1d8-a2228b1bb12c{fill:url(#aa531478-a3b6-4a1e-afde-689507bf6280);}.b7eeffea-dffc-4f55-bcb7-64b995156cb0{opacity:0.3;}.a4db9a3f-5c4f-4426-b55d-021426ebe3e0,.b5bcc32c-ee6e-45a3-9e1b-94a388393baf,.b7eeffea-dffc-4f55-bcb7-64b995156cb0{isolation:isolate;}.a4db9a3f-5c4f-4426-b55d-021426ebe3e0{opacity:0.15;fill:url(#aafee819-3b56-42f1-85ff-e4ebbf1ac270);}.b5bcc32c-ee6e-45a3-9e1b-94a388393baf{opacity:0.4;fill:url(#bce57c95-ce40-478b-b02c-11051a4384a6);}.f61966df-c6c4-485b-a88f-da4867fb9696{fill:#c11127;}.ee8310d2-cfe3-47fc-876c-3eec07ca07f8{fill:#ff6b00;}.fccd0317-e382-48f7-b2de-1590e8d29d1b{fill:#029205;}.bc35fac9-f5ba-4672-895d-62f3daec7b1e{fill:#04ef94;}</style><linearGradient id="aa531478-a3b6-4a1e-afde-689507bf6280" x1="-747.89" y1="-859.92" x2="-768.84" y2="-838.97" gradientTransform="matrix(0, -1, -1, 0, -805.63, -714.58)" gradientUnits="userSpaceOnUse"><stop offset="0" stop-color="#a4a5a9"/><stop offset="1" stop-color="#e6e6e7"/></linearGradient><linearGradient id="aafee819-3b56-42f1-85ff-e4ebbf1ac270" x1="-768.8" y1="-859.91" x2="-747.92" y2="-839.04" gradientTransform="matrix(0, -1, -1, 0, -805.63, -714.58)" gradientUnits="userSpaceOnUse"><stop offset="0" stop-color="#211c1d" stop-opacity="0"/><stop offset="0.04" stop-color="#211c1d" stop-opacity="0.09"/><stop offset="0.5" stop-color="#211c1d"/><stop offset="0.95" stop-color="#211c1d" stop-opacity="0.09"/><stop offset="1" stop-color="#211c1d" stop-opacity="0"/></linearGradient><linearGradient id="bce57c95-ce40-478b-b02c-11051a4384a6" x1="-4368.71" y1="3200.34" x2="-4347.83" y2="3221.23" gradientTransform="matrix(0, 1, 1, 0, -3166.92, 4402.08)" gradientUnits="userSpaceOnUse"><stop offset="0" stop-color="#fff" stop-opacity="0"/><stop offset="0.5" stop-color="#fff"/><stop offset="1" stop-color="#fff" stop-opacity="0"/></linearGradient></defs><circle class="a5bee798-a47b-4728-86d7-f85c2fcb3b01" cx="43.8" cy="43.8" r="43.8"/><g class="aec96207-a35b-4e8a-884e-33f7603faa81"><path class="b1ed2bd1-ca50-4c6e-bb98-92abe5d3787b" d="M43.8,3.2l-8.9,8.6h4.3v9.8h9.1V11.8h4.3ZM15.1,15.1l-.2,12.4L18,24.4l7,7L31.4,25l-7-7,3.1-3.1ZM3.2,43.8l8.6,8.9V48.4h9.8V39.3H11.8V35ZM15.1,72.5l12.4.2-3.1-3.1,7-7L25,56.2l-7,7-3.1-3.1ZM43.8,84.4l8.9-8.6H48.4V66H39.3v9.8H35ZM72.5,72.5l.2-12.4-3.1,3.1-7-7-6.4,6.4,7,7-3.1,3.1ZM84.4,43.8l-8.6-8.9v4.3H66v9.1h9.8v4.3ZM72.5,15.1l-12.4-.2L63.2,18l-7,7,6.4,6.4,7-7,3.1,3.1Z" transform="translate(0 0)"/></g><path class="b8cc7e2c-cbc9-4dba-8b28-78211536c08d" d="M44.3,0a43.81,43.81,0,0,1,0,87.6h.5A43.8,43.8,0,0,0,44.8,0Z" transform="translate(0 0)"/><circle class="ea76cdc7-cb7d-41e5-a1d8-a2228b1bb12c" cx="43.8" cy="43.8" r="14.8"/><circle class="b7eeffea-dffc-4f55-bcb7-64b995156cb0" cx="43.8" cy="43.8" r="11.8"/><path class="a4db9a3f-5c4f-4426-b55d-021426ebe3e0" d="M29.1,43.8A14.75,14.75,0,1,0,43.9,29,14.77,14.77,0,0,0,29.1,43.8Zm28.7.2A14.15,14.15,0,1,1,43.7,29.8,14.17,14.17,0,0,1,57.8,44Z" transform="translate(0 0)"/><path class="b5bcc32c-ee6e-45a3-9e1b-94a388393baf" d="M58.6,43.8A14.75,14.75,0,1,0,43.9,58.6,14.75,14.75,0,0,0,58.6,43.8Zm-28.7-.2a14.1,14.1,0,1,1,28.2,0A14,14,0,0,1,44,57.7h0A14.08,14.08,0,0,1,29.9,43.6Z" transform="translate(0 0)"/><circle class="f61966df-c6c4-485b-a88f-da4867fb9696" cx="32.8" cy="44" r="20.5"/><circle class="f61966df-c6c4-485b-a88f-da4867fb9696" cx="27.2" cy="141.1" r="17.5"/><circle class="ee8310d2-cfe3-47fc-876c-3eec07ca07f8" cx="27.2" cy="141.2" r="13.9"/><circle class="f61966df-c6c4-485b-a88f-da4867fb9696" cx="61.4" cy="196.3" r="17.4"/><circle class="fccd0317-e382-48f7-b2de-1590e8d29d1b" cx="61.4" cy="196.4" r="13.9"/><circle class="f61966df-c6c4-485b-a88f-da4867fb9696" cx="27.4" cy="178.1" r="17.4"/><circle class="bc35fac9-f5ba-4672-895d-62f3daec7b1e" cx="27.4" cy="178.2" r="13.9"/><circle class="f61966df-c6c4-485b-a88f-da4867fb9696" cx="61.4" cy="122" r="17.5"/><circle class="ee8310d2-cfe3-47fc-876c-3eec07ca07f8" cx="61.4" cy="122.1" r="13.9"/><circle class="f61966df-c6c4-485b-a88f-da4867fb9696" cx="61.1" cy="159.3" r="17.5"/><circle class="bc35fac9-f5ba-4672-895d-62f3daec7b1e" cx="61.1" cy="159.5" r="13.9"/><circle class="f61966df-c6c4-485b-a88f-da4867fb9696" cx="27.43" cy="215.02" r="17.5"/><circle class="fccd0317-e382-48f7-b2de-1590e8d29d1b" cx="27.4" cy="215.2" r="13.9"/></svg>