<svg xmlns="http://www.w3.org/2000/svg" xmlns:xlink="http://www.w3.org/1999/xlink" viewBox="0 0 470.33 67.41"><defs><style>.bcb6cd95-f52a-4db5-8407-80b3dbb86c0b{stroke:#9def48;stroke-miterlimit:10;stroke-width:0.75px;fill:url(#b4085b6d-8611-4dda-ae9a-ba3a56e5b18e);}.bc614a9b-2818-4c7e-9ef8-6cc8bb61ce61{fill:#9def48;}.bfb0d586-8a78-469a-9392-d2c08fe9aa11{fill:#02a54b;}.a84708c2-7482-44ef-972c-49f729840a19{fill:#f3ffe6;}.a4784095-c23c-4968-b922-a96aa1671d01{fill:#58cc36;}</style><linearGradient id="b4085b6d-8611-4dda-ae9a-ba3a56e5b18e" x1="0.38" y1="33.7" x2="469.96" y2="33.7" gradientUnits="userSpaceOnUse"><stop offset="0" stop-color="#032c02"/><stop offset="1" stop-color="#207a09"/></linearGradient></defs><g id="f0210bfb-388f-4ede-8b6b-708423f7806b" data-name="texte"><polygon class="bcb6cd95-f52a-4db5-8407-80b3dbb86c0b" points="0.38 5.91 102.44 5.91 108.57 0.38 150.31 0.38 158.22 5.91 461.65 6.11 469.96 16 469.96 59.72 50.81 59.72 42.7 67.03 7.89 67.03 0.38 59.72 0.38 5.91"/><path class="bc614a9b-2818-4c7e-9ef8-6cc8bb61ce61" d="M58.82,36.62l-3.31,5.26H51.6l12-18.9h3.61l11.92,18.9H75.28L72,36.62ZM70.06,33.5l-4.62-7.4-4.65,7.4Z" transform="translate(-0.06 -0.03)"/><path class="bc614a9b-2818-4c7e-9ef8-6cc8bb61ce61" d="M88.58,39.21l-3.14,3.13V26.11H75.18V23H98.84v3.13H88.58Z" transform="translate(-0.06 -0.03)"/><path class="bc614a9b-2818-4c7e-9ef8-6cc8bb61ce61" d="M122.7,41.88H104.07a14,14,0,0,1-3.26-9.45A14,14,0,0,1,104.07,23H122.7A14,14,0,0,1,126,32.43,14,14,0,0,1,122.7,41.88ZM121,38.74a12.66,12.66,0,0,0,1.8-6.31,12.64,12.64,0,0,0-1.8-6.32H105.76A12.56,12.56,0,0,0,104,32.43a12.58,12.58,0,0,0,1.81,6.31Z" transform="translate(-0.06 -0.03)"/><path class="bc614a9b-2818-4c7e-9ef8-6cc8bb61ce61" d="M139.6,26.11h-6.06a12.56,12.56,0,0,0-1.81,6.32,12.58,12.58,0,0,0,1.81,6.31h2.08v3.14h-3.77a14,14,0,0,1-3.26-9.45A14,14,0,0,1,131.85,23h7.75V20h3.12v3h7.76a14,14,0,0,1,3.25,9.45,14,14,0,0,1-3.25,9.45h-3.77V38.74h2.09a12.66,12.66,0,0,0,1.8-6.31,12.64,12.64,0,0,0-1.8-6.32h-6.08V37.32H139.6Z" transform="translate(-0.06 -0.03)"/><path class="bc614a9b-2818-4c7e-9ef8-6cc8bb61ce61" d="M160.83,41.88h-3.14V25.65l3.14-3.14Z" transform="translate(-0.06 -0.03)"/><path class="bc614a9b-2818-4c7e-9ef8-6cc8bb61ce61" d="M188.5,30.86l1.42,1.57a14,14,0,0,1-3.25,9.45H168a13.19,13.19,0,0,1-2.84-5.63h3.38a14.56,14.56,0,0,0,1.14,2.49H185A13.06,13.06,0,0,0,186.68,34H166.2l-1.42-1.55A14,14,0,0,1,168,23h18.63a13.23,13.23,0,0,1,2.83,5.63h-3.38a13.49,13.49,0,0,0-1.13-2.5H169.72a13.62,13.62,0,0,0-1.7,4.75Z" transform="translate(-0.06 -0.03)"/><path class="bc614a9b-2818-4c7e-9ef8-6cc8bb61ce61" d="M203.57,38.74V27.54h3.12v11.2h6.08a12.7,12.7,0,0,0,1.79-6.31,12.79,12.79,0,0,0-1.79-6.32h-2.1V23h3.77a14,14,0,0,1,3.26,9.45,14,14,0,0,1-3.26,9.45h-7.75v3h-3.12v-3h-7.76a14,14,0,0,1-3.25-9.45A14,14,0,0,1,195.81,23h3.78v3.13H197.5a12.7,12.7,0,0,0-1.8,6.32,12.61,12.61,0,0,0,1.8,6.31Z" transform="translate(-0.06 -0.03)"/><path class="bc614a9b-2818-4c7e-9ef8-6cc8bb61ce61" d="M225.58,36.62l-3.31,5.26h-3.91l12-18.9H234l11.92,18.9H242l-3.27-5.26Zm11.24-3.12-4.62-7.4-4.65,7.4Z" transform="translate(-0.06 -0.03)"/><path class="bc614a9b-2818-4c7e-9ef8-6cc8bb61ce61" d="M268.82,23l-11.93,18.9h-3.61l-12-18.9h3.92l9.93,15.78L265,23Z" transform="translate(-0.06 -0.03)"/><path class="bc614a9b-2818-4c7e-9ef8-6cc8bb61ce61" d="M286.7,34H273.65a13.6,13.6,0,0,0,1.7,4.76h15.53l1.81,3.14h-19a13.66,13.66,0,0,1-3.19-7.9h-3V30.86h3A13.58,13.58,0,0,1,273.66,23h19l-1.81,3.13H275.35a13.62,13.62,0,0,0-1.7,4.75H286.7Z" transform="translate(-0.06 -0.03)"/></g><g id="ac21dcc5-5229-4bcb-934c-58ae0c759a61" data-name="arcade"><g id="a6e40693-7c26-421d-904d-b32b922856cd" data-name="sammy"><path class="bfb0d586-8a78-469a-9392-d2c08fe9aa11" d="M19.51,55.89A6.12,6.12,0,0,1,22,52.09a5.1,5.1,0,0,1,6.76.66,6.77,6.77,0,0,1-.57,9.74,5.24,5.24,0,0,1-1.47.84c-.12.05-.27,0-.33.19h-.27l-3.31-3.84a2.53,2.53,0,0,0,1.33-3.1,1.86,1.86,0,0,0-1.67-1.41,1.73,1.73,0,0,0-1.55,1.34c-.07.25-.11.5-.18.82L19.49,56l0,0Z" transform="translate(-0.06 -0.03)"/><path class="a84708c2-7482-44ef-972c-49f729840a19" d="M22.82,32.87c-1.32-1.22-1-2.61-.09-3.27A2,2,0,0,1,22.17,27a1.44,1.44,0,0,1,1.33-.85h6c.24,0,.26.1.26.3,0,.52,0,1,0,1.57,0,.29-.1.34-.36.34H25.06c-.24,0-.48,0-.72,0s-.6.13-.58.53a.53.53,0,0,0,.61.55c1.62,0,3.23,0,4.85,0,.41,0,.54.1.51.51a6.63,6.63,0,0,0,0,1.26c0,.34-.06.46-.44.45-1.63,0-3.26,0-4.89,0-.38,0-.6.11-.6.53s.26.48.6.48c1.63,0,3.26,0,4.89,0,.38,0,.46.11.44.45a14.81,14.81,0,0,0,0,1.49c0,.24-.07.3-.3.3-2.34,0-4.67,0-7,0-.27,0-.31-.1-.3-.34a11.42,11.42,0,0,0,0-1.17c0-.44,0-.74.7-.54Z" transform="translate(-0.06 -0.03)"/><path class="a84708c2-7482-44ef-972c-49f729840a19" d="M22.84,22.88c-1.15-1.12-1.15-2.37-.09-3.22a2,2,0,0,1-.63-2.52,1.45,1.45,0,0,1,1.42-1h5.88c.23,0,.32.06.31.3,0,.52,0,1.05,0,1.57,0,.28-.08.36-.35.36-1.38,0-2.75,0-4.13,0l-.94,0c-.34,0-.51.15-.5.48s.14.53.51.55c1.63.07,3.26,0,4.89,0,.45,0,.57.12.52.55a5.62,5.62,0,0,0,0,1.16c.05.44-.13.51-.52.5-1.61,0-3.23,0-4.85,0-.24,0-.44.05-.52.31s0,.66.45.68c.67,0,1.34,0,2,0q1.55,0,3.09,0c.26,0,.38,0,.36.33,0,.54,0,1.08,0,1.62,0,.22-.06.28-.27.28h-7c-.22,0-.28-.07-.28-.29a9.77,9.77,0,0,0,0-1.21c0-.4,0-.77.68-.57Z" transform="translate(-0.06 -0.03)"/><path class="a84708c2-7482-44ef-972c-49f729840a19" d="M26.35,48V48a2.21,2.21,0,0,1,0-.93c.13-.25.54-.06.82-.14a1,1,0,0,0,.73-.53.88.88,0,0,0-.12-1,1.31,1.31,0,0,0-1.46.19,7.51,7.51,0,0,0-.67.9,12.63,12.63,0,0,1-1,1.45,3.35,3.35,0,0,1-4.16.68,1.68,1.68,0,0,1-.4-.3,3.29,3.29,0,0,1-.62-3.44A2.47,2.47,0,0,1,21.75,43c.92-.15.92-.14.92.8v.32a2.34,2.34,0,0,1,0,.88c-.12.28-.5.1-.76.2s-.6.29-.65.66a.67.67,0,0,0,.26.72.94.94,0,0,0,1,0,2,2,0,0,0,.7-.75,20.56,20.56,0,0,1,1.19-1.74,3.8,3.8,0,0,1,4.73-.67,1.9,1.9,0,0,1,.75,1.14A5.09,5.09,0,0,1,29.89,47a2.55,2.55,0,0,1-2.19,2.12c-1.35.29-1.35.3-1.35-1Zm3.49-12V38c0,.14,0,.28-.15.33-.55.14-.27.4-.1.65a2.19,2.19,0,0,1-.18,2.83,1.61,1.61,0,0,1-.38.31,2.67,2.67,0,0,1-3.58-1.28c-.22-.58-.42-1.18-.67-1.75a.7.7,0,0,0-1-.42.59.59,0,0,0-.39.64.64.64,0,0,0,.48.58,1.29,1.29,0,0,0,.39.08c.2,0,.29.08.28.3q0,.9,0,1.8c0,.24-.1.26-.3.24a2.37,2.37,0,0,1-2.33-2.09,6.74,6.74,0,0,1,0-2.15,1.9,1.9,0,0,1,2.06-1.77c1.53,0,3,0,4.58,0a3.68,3.68,0,0,0,1.32-.19ZM26.11,38.5c.19.39.34.71.51,1a1.18,1.18,0,0,0,.23.27.94.94,0,0,0,1.08.17.69.69,0,0,0,.41-.68c0-.41-.31-.72-.84-.77s-.88,0-1.38,0Z" transform="translate(-0.06 -0.03)"/><path class="a4784095-c23c-4968-b922-a96aa1671d01" d="M19.51,55.89v0l0,0a2.43,2.43,0,0,0-.26,2.5.71.71,0,0,0,.68.5c.31,0,.46-.25.58-.5a2.48,2.48,0,0,0,.2-1c.16-.06.19.08.24.15.52.58,1,1.16,1.54,1.75.11.12.25.21.16.42a2.4,2.4,0,0,1-1.87,1.67,1.58,1.58,0,0,1-1.44-.64,4.47,4.47,0,0,1-1-2.35A6.49,6.49,0,0,1,18.63,55c.36.27.53.66.88.87Z" transform="translate(-0.06 -0.03)"/><path class="a84708c2-7482-44ef-972c-49f729840a19" d="M22.09,9.79q0,.9,0,1.8c0,.16.05.25.22.27l4.21.64v.1l-4.18.54c-.23,0-.26.14-.26.33,0,.57,0,1.14,0,1.71,0,.3.09.3.34.24.93-.22,1.87-.42,2.8-.62l4.51-1c.72-.15.89,0,.85.66,0,.24.09.27.29.27a4.92,4.92,0,0,1,.94,0,.46.46,0,0,0,.56-.41v-1a2.16,2.16,0,0,0-1.54-1.7,4.86,4.86,0,0,0-.76-.26l-3-.67-4.64-1C22.32,9.6,22.08,9.43,22.09,9.79Z" transform="translate(-0.06 -0.03)"/></g></g></svg>