<svg id="afa86756-4ec3-460e-a89a-db453e617dd4" data-name="texte" xmlns="http://www.w3.org/2000/svg" xmlns:xlink="http://www.w3.org/1999/xlink" viewBox="0 0 470.33 67.41"><defs><style>.e138d24e-d7e7-4683-be98-33c5364e662c{stroke:#9def48;stroke-miterlimit:10;stroke-width:0.75px;fill:url(#e7ef766a-4d0c-4bea-88d3-c80decdf981e);}.f397defd-6ce4-482c-b77f-9a3523340a7d{fill:#9def48;}</style><linearGradient id="e7ef766a-4d0c-4bea-88d3-c80decdf981e" x1="0.38" y1="33.7" x2="469.96" y2="33.7" gradientUnits="userSpaceOnUse"><stop offset="0" stop-color="#032c02"/><stop offset="1" stop-color="#207a09"/></linearGradient></defs><polygon class="e138d24e-d7e7-4683-be98-33c5364e662c" points="0.38 5.91 102.44 5.91 108.57 0.38 150.31 0.38 158.22 5.91 461.65 6.11 469.96 16 469.96 59.72 50.81 59.72 42.7 67.03 7.89 67.03 0.38 59.72 0.38 5.91"/><path class="f397defd-6ce4-482c-b77f-9a3523340a7d" d="M74.42,39.66h2.33a15.23,15.23,0,0,0,1.87-5.29H57.89a15.28,15.28,0,0,0,1.89,5.29H62.1v3.48H57.91a15.15,15.15,0,0,1-3.55-8.77H51.07V30.9h3.29a15.09,15.09,0,0,1,3.55-8.76h20.7a15,15,0,0,1,3.54,8.77l-1.51.85v1.76l1.51.85a15.07,15.07,0,0,1-3.54,8.77H74.42ZM57.89,30.9H78.62a15.11,15.11,0,0,0-1.87-5.28h-17A15.16,15.16,0,0,0,57.89,30.9Z" transform="translate(-0.06 -0.03)"/><path class="f397defd-6ce4-482c-b77f-9a3523340a7d" d="M99.23,40.17l-3.49,3.48v-18H84.35V22.14h26.28v3.48H99.23Z" transform="translate(-0.06 -0.03)"/><path class="f397defd-6ce4-482c-b77f-9a3523340a7d" d="M139.18,30.9l1.58,1.74a15.57,15.57,0,0,1-3.62,10.5h-20.7a14.7,14.7,0,0,1-3.15-6.25H117a16.74,16.74,0,0,0,1.28,2.77h17a14.72,14.72,0,0,0,1.88-5.29H114.41l-1.59-1.73a15.6,15.6,0,0,1,3.62-10.5h20.7a14.7,14.7,0,0,1,3.15,6.25h-3.75a15.13,15.13,0,0,0-1.26-2.77h-17a14.77,14.77,0,0,0-1.89,5.28Z" transform="translate(-0.06 -0.03)"/></svg>