<svg id="bafda23c-1ef4-4ea9-a167-af271de6a4e2" data-name="texte" xmlns="http://www.w3.org/2000/svg" xmlns:xlink="http://www.w3.org/1999/xlink" viewBox="0 0 470.33 67.41"><defs><style>.be12d62a-76f1-440f-841c-429ea895fc13{stroke:#9def48;stroke-miterlimit:10;stroke-width:0.75px;fill:url(#a4d7eb26-12a3-4053-a310-fd1f600420a7);}.b84506e2-9785-4685-a52b-4a7ef237c937{fill:#9def48;}</style><linearGradient id="a4d7eb26-12a3-4053-a310-fd1f600420a7" x1="0.38" y1="33.7" x2="469.96" y2="33.7" gradientUnits="userSpaceOnUse"><stop offset="0" stop-color="#032c02"/><stop offset="1" stop-color="#207a09"/></linearGradient></defs><polygon class="be12d62a-76f1-440f-841c-429ea895fc13" points="0.38 5.91 102.44 5.91 108.57 0.38 150.31 0.38 158.22 5.91 461.65 6.11 469.96 16 469.96 59.72 50.81 59.72 42.7 67.03 7.89 67.03 0.38 59.72 0.38 5.91"/><path class="b84506e2-9785-4685-a52b-4a7ef237c937" d="M79.17,44.54H55.71a17.72,17.72,0,0,1-4.1-11.91,17.67,17.67,0,0,1,4.1-11.9H79.17a17.67,17.67,0,0,1,4.1,11.9A17.72,17.72,0,0,1,79.17,44.54Zm-2.11-3.95a16,16,0,0,0,2.26-8,15.93,15.93,0,0,0-2.26-8H57.84a15.86,15.86,0,0,0-2.28,8,15.92,15.92,0,0,0,2.28,8Z" transform="translate(-0.06 -0.03)"/><path class="b84506e2-9785-4685-a52b-4a7ef237c937" d="M113.05,40.59h2.64a17.27,17.27,0,0,0,2.13-6H94.33a16.9,16.9,0,0,0,2.14,6h2.62v3.95H94.34a17.17,17.17,0,0,1-4-9.95H86.59V30.66h3.74a17.06,17.06,0,0,1,4-9.93H117.8a17,17,0,0,1,4,10l-1.71,1v2l1.71,1a17.11,17.11,0,0,1-4,9.95h-4.75ZM94.33,30.66h23.49a17.1,17.1,0,0,0-2.13-6H96.47A16.74,16.74,0,0,0,94.33,30.66Z" transform="translate(-0.06 -0.03)"/><path class="b84506e2-9785-4685-a52b-4a7ef237c937" d="M130.75,44.54h-4V24.1l4-4Z" transform="translate(-0.06 -0.03)"/><path class="b84506e2-9785-4685-a52b-4a7ef237c937" d="M162.61,37.45h4.25a16.6,16.6,0,0,1-3.57,7.09H139.83a17.72,17.72,0,0,1-4.1-11.91,17.71,17.71,0,0,1,4.1-11.9h23.46a16.6,16.6,0,0,1,3.57,7.09h-4.25a17.86,17.86,0,0,0-1.43-3.14H142a15.86,15.86,0,0,0-2.28,8,15.92,15.92,0,0,0,2.28,8h19.22A18.55,18.55,0,0,0,162.61,37.45Z" transform="translate(-0.06 -0.03)"/></svg>