<svg id="e50688c4-d8c0-45e0-a1f9-856204db38f8" data-name="Calque 1" xmlns="http://www.w3.org/2000/svg" xmlns:xlink="http://www.w3.org/1999/xlink" viewBox="0 0 446.08 257.87"><defs><style>.b52fd182-85d7-4589-b901-b75a2bf93cc6{fill:url(#f3e09c5e-ab00-4d3f-9b25-6cf212ebb254);}.bd1a793b-036f-4e10-99ab-8b4c4a3145f2{fill:#4c4b48;}.bd41374b-a26d-40e1-b847-38f7a44607ef{fill:#bcbfc4;}.f1327d75-eb51-45bb-9375-a2be26634d50{fill:#15191e;}.e5d1b1d6-635f-4972-b5ee-d92edfaa49bf{fill:#717175;}.aeca2425-c9e7-46e2-89ad-e7cb92b5078e{fill:#4a4a48;}.eb0b338c-4eeb-4d46-9655-97182f63a127{fill:#c13639;}.fcd7da9c-a1da-4dc0-a32f-035346d4e85e{fill:#2b3947;}.acf9fb91-3936-4dbf-b23f-bccc07991e6d{fill:#727373;}.b5417493-870b-43ee-83d9-31ee3280013e{fill:#908f90;}.be4ac334-cce5-4c6c-b4e1-2a25770e5276{fill:#adb0b3;}.bc2a8032-c645-4cb8-8b59-bcb558a1519a{fill:#2c2e2b;}.a29d22e8-d935-4cb6-8689-ff331ef7dbeb{fill:#343532;}.bd0b218c-380a-4074-a9e1-7a62e9910d06{fill:#6f7078;}.a1981972-910d-4014-bc55-e2767e2c65a4{fill:#61615e;}.ec5a5411-5915-467d-90d8-4f2465434cee{fill:#b81f14;}.acf881b6-629d-47bd-acee-f8a4df767848{fill:#c03027;}</style><linearGradient id="f3e09c5e-ab00-4d3f-9b25-6cf212ebb254" x1="223.04" y1="2.13" x2="223.04" y2="54.48" gradientTransform="matrix(1, 0, 0, -1, 0, 260)" gradientUnits="userSpaceOnUse"><stop offset="0" stop-color="#919192"/><stop offset="1" stop-color="#bbbec3"/></linearGradient></defs><path class="b52fd182-85d7-4589-b901-b75a2bf93cc6" d="M446.08,205.52v20.27s-1.51,10.79-6.81,15.92-18.75,7.41-18.75,7.41L366,253.46l-96.39,4.41H177.3l-76.94-3.16-71.27-5.17S0,248.37,0,226.71v-21a1136.49,1136.49,0,0,0,118.92,5.7,7.74,7.74,0,0,0,1.92.28l64.37,1H261s55.94-1.09,63.94-1.09a8.82,8.82,0,0,0,2.8-.4c59.23.14,102.8-4,118.39-5.7Z"/><path class="bd1a793b-036f-4e10-99ab-8b4c4a3145f2" d="M12.29,240.12v.2a19.07,19.07,0,0,1-5.21-13.61V2.94l1.33-.33L8.7,76.75v150c0,5.83.64,10.17,3.59,13.41Z"/><path class="bd1a793b-036f-4e10-99ab-8b4c4a3145f2" d="M433.62,240.12v.2a19.07,19.07,0,0,0,5.21-13.61V20.87l0-17.5-1.35-.29-.29,73.67v150c0,5.83-.64,10.17-3.59,13.41Z"/><path class="bd41374b-a26d-40e1-b847-38f7a44607ef" d="M438.85,3.37C434.37,2.12,408.29,0,408.29,0H37.87S24.09.87,12.22,2,0,8.21,0,8.21V205.73a1136.41,1136.41,0,0,0,118.91,5.7,7.84,7.84,0,0,0,1.93.28l64.37,1h1.2l-62.33-1a7.29,7.29,0,0,1-1.86-.28,5,5,0,0,1-3.89-5.14V14.37s-.13-5.52,4.58-5.52l100.17,0h100.5s4.83-.58,4.83,4.71V203.87s.75,5.78-4,7.35a8.32,8.32,0,0,1-2.71.4c-7.75,0-61.91,1.09-61.91,1.09H261s55.94-1.09,63.94-1.09a8.82,8.82,0,0,0,2.8-.4c59.23.14,102.79-4,118.39-5.7V8.87C446.08,4.79,443.32,4.62,438.85,3.37Z"/><path class="f1327d75-eb51-45bb-9375-a2be26634d50" d="M324.37,211.22c4.79-1.57,4-7.35,4-7.35V13.58c0-5.29-4.83-4.71-4.83-4.71H223.08l-100.17,0c-4.71,0-4.58,5.52-4.58,5.52V206.29a5,5,0,0,0,3.89,5.14,7.29,7.29,0,0,0,1.86.28l62.33,1h73.34s54.16-1.09,61.91-1.09A8.32,8.32,0,0,0,324.37,211.22ZM316,202.09h0a8.09,8.09,0,0,1-2.51.35c-6.23,0-44.92.73-54.86.92a3.29,3.29,0,0,0-3.06,2.25l-.88,2.66a2.21,2.21,0,0,1-2.1,1.52H193.05a2.2,2.2,0,0,1-2-1.25L189.33,205a2.91,2.91,0,0,0-2.57-1.64L131,202.52a6.89,6.89,0,0,1-1.72-.25,4.41,4.41,0,0,1-3.6-4.52V28.88S125.54,24,129.89,24l92.53,0h92.83s4.46-.51,4.46,4.14V195.62S320.4,200.71,316,202.09Z"/><path class="f1327d75-eb51-45bb-9375-a2be26634d50" d="M319.71,28.18c0-4.65-4.46-4.14-4.46-4.14H222.42l-92.53,0c-4.35,0-4.23,4.86-4.23,4.86V197.75a4.41,4.41,0,0,0,3.6,4.52,6.89,6.89,0,0,0,1.72.25l55.78.85a2.91,2.91,0,0,1,2.57,1.64l1.73,3.53a2.2,2.2,0,0,0,2,1.25h59.52a2.21,2.21,0,0,0,2.1-1.52l.88-2.66a3.29,3.29,0,0,1,3.06-2.25c9.94-.19,48.63-.92,54.86-.92a8.09,8.09,0,0,0,2.51-.35h0c4.42-1.38,3.73-6.47,3.73-6.47ZM312.21,191H133.71V32.47h178.5Z"/><path class="e5d1b1d6-635f-4972-b5ee-d92edfaa49bf" d="M96.58,30.46a7.81,7.81,0,0,1-15.5,1.35l-16.52,0c0,.57-.14,1.17-.25,1.82-.41,2.42-2.5,4.46-4.26,4.46H33.63s-3.86.28-5-5a17.86,17.86,0,0,1,0-5.75s1.16-4,5-4.43H59s4.32,0,5.38,5.53a6.69,6.69,0,0,1,.14.78l16.51,0a7.81,7.81,0,0,1,15.52,1.27Z"/><path class="aeca2425-c9e7-46e2-89ad-e7cb92b5078e" d="M35.89,25.37H56.83a4.69,4.69,0,0,1,4.44,3.7,6.87,6.87,0,0,1-.09,3.5,4,4,0,0,1-3.51,3H35.89a4.19,4.19,0,0,1-4.14-3.37,9.68,9.68,0,0,1,0-3.85A4.93,4.93,0,0,1,35.89,25.37Z"/><circle class="eb0b338c-4eeb-4d46-9655-97182f63a127" cx="88.77" cy="30.46" r="5.75"/><circle class="fcd7da9c-a1da-4dc0-a32f-035346d4e85e" cx="364.83" cy="114.54" r="17.25"/><circle class="fcd7da9c-a1da-4dc0-a32f-035346d4e85e" cx="407.95" cy="82.67" r="17"/><path class="acf9fb91-3936-4dbf-b23f-bccc07991e6d" d="M352.08,161.66a3.75,3.75,0,1,1,3.75,3.75A3.75,3.75,0,0,1,352.08,161.66Zm3.75,36a3.75,3.75,0,1,0-3.75-3.75A3.74,3.74,0,0,0,355.83,197.66Zm0,24.5a3.75,3.75,0,1,0,3.75,3.76A3.75,3.75,0,0,0,355.83,222.16Zm27.25-59.5a3.75,3.75,0,1,0-3.75-3.75A3.74,3.74,0,0,0,383.08,162.66Zm0,32.25a3.75,3.75,0,1,0-3.75-3.75A3.74,3.74,0,0,0,383.08,194.91Zm0,24.51a3.75,3.75,0,1,0,3.75,3.74A3.74,3.74,0,0,0,383.08,219.42Zm27.37-58.76a3.75,3.75,0,1,0-3.75-3.75A3.74,3.74,0,0,0,410.45,160.66Zm0,32.25a3.75,3.75,0,1,0-3.75-3.75A3.74,3.74,0,0,0,410.45,192.91Zm0,24.51a3.75,3.75,0,1,0,3.74,3.74A3.75,3.75,0,0,0,410.46,217.42Z"/><path class="f1327d75-eb51-45bb-9375-a2be26634d50" d="M52.64,177.29a2.19,2.19,0,1,1,2.19,2.19A2.19,2.19,0,0,1,52.64,177.29ZM54.83,187a2.19,2.19,0,1,0-2.19-2.19A2.19,2.19,0,0,0,54.83,187Zm0,7.44a2.19,2.19,0,1,0-2.19-2.19A2.19,2.19,0,0,0,54.83,194.48Zm0,7.43a2.19,2.19,0,1,0-2.19-2.18A2.18,2.18,0,0,0,54.83,201.91ZM63,179.48a2.19,2.19,0,1,0-2.19-2.19A2.19,2.19,0,0,0,63,179.48ZM63,187a2.19,2.19,0,1,0-2.19-2.19A2.19,2.19,0,0,0,63,187Zm0,7.44a2.19,2.19,0,1,0-2.19-2.19A2.19,2.19,0,0,0,63,194.48Zm0,7.43a2.19,2.19,0,1,0-2.19-2.18A2.18,2.18,0,0,0,63,201.91Zm8.25-22.43A2.19,2.19,0,1,0,69,177.29,2.19,2.19,0,0,0,71.21,179.48Zm0,7.56A2.19,2.19,0,1,0,69,184.85,2.19,2.19,0,0,0,71.21,187Zm0,7.44A2.19,2.19,0,1,0,69,192.29,2.19,2.19,0,0,0,71.21,194.48Zm0,7.43A2.19,2.19,0,1,0,69,199.73,2.18,2.18,0,0,0,71.21,201.91Zm8.25-22.43a2.19,2.19,0,1,0-2.19-2.19A2.19,2.19,0,0,0,79.46,179.48Zm0,7.56a2.19,2.19,0,1,0-2.19-2.19A2.19,2.19,0,0,0,79.46,187Zm0,7.44a2.19,2.19,0,1,0-2.19-2.19A2.19,2.19,0,0,0,79.46,194.48Zm0,7.43a2.19,2.19,0,1,0-2.19-2.18A2.18,2.18,0,0,0,79.46,201.91Zm8.43-22.43a2.19,2.19,0,1,0-2.18-2.19A2.19,2.19,0,0,0,87.89,179.48Zm0,7.56a2.19,2.19,0,1,0-2.18-2.19A2.19,2.19,0,0,0,87.89,187Zm0,7.44a2.19,2.19,0,1,0-2.18-2.19A2.19,2.19,0,0,0,87.89,194.48Zm0,7.43a2.19,2.19,0,1,0-2.18-2.18A2.18,2.18,0,0,0,87.89,201.91Z"/><circle class="e5d1b1d6-635f-4972-b5ee-d92edfaa49bf" cx="411.58" cy="30.62" r="9.42"/><circle class="aeca2425-c9e7-46e2-89ad-e7cb92b5078e" cx="411.58" cy="30.62" r="6.58"/><path class="aeca2425-c9e7-46e2-89ad-e7cb92b5078e" d="M47.72,73.57c-.81.77-1.58,1.56-2.32,2.4l-4.94-4.79c.79-.88,1.62-1.72,2.47-2.52ZM71.33,57.42c-1,0-2,0-3.06.11v6.89c1-.08,2-.13,3.06-.13s2.26,0,3.37.16V57.56C73.59,57.47,72.47,57.42,71.33,57.42ZM99.07,68.05,94.27,73c.83.74,1.64,1.52,2.41,2.33l4.9-4.79C100.78,69.66,99.94,68.84,99.07,68.05Zm13.65,27.8h-6.9c.09,1,.14,2,.14,3.07s0,2.26-.16,3.37h6.89c.09-1.11.14-2.23.14-3.37S112.79,96.86,112.72,95.85Zm-15.45,26c-.75.83-1.52,1.62-2.33,2.39l4.79,4.91c.86-.8,1.68-1.64,2.47-2.52ZM71.33,133.54c-1.14,0-2.26,0-3.37-.16v6.9c1.11.09,2.23.14,3.37.14s2,0,3.06-.12v-6.89C73.38,133.49,72.36,133.54,71.33,133.54ZM46,122.52l-4.91,4.8q1.22,1.29,2.52,2.46l4.8-4.93C47.56,124.11,46.75,123.33,46,122.52Zm-9.11-27H30c-.09,1.11-.14,2.24-.14,3.38s0,2,.11,3.06h6.9c-.09-1-.14-2-.14-3.06S36.76,96.65,36.87,95.54Z"/><path class="e5d1b1d6-635f-4972-b5ee-d92edfaa49bf" d="M36.87,95.54H30A41.31,41.31,0,0,1,40.46,71.18L45.4,76A34.48,34.48,0,0,0,36.87,95.54Zm0,6.44h-6.9a41.43,41.43,0,0,0,11.13,25.34l4.91-4.8A34.52,34.52,0,0,1,36.84,102Zm6.75,27.8A41.31,41.31,0,0,0,68,140.28v-6.9a34.48,34.48,0,0,1-19.57-8.53ZM68.27,64.42V57.53A41.36,41.36,0,0,0,42.93,68.66l4.79,4.91A34.52,34.52,0,0,1,68.27,64.42Zm30.8,3.63A41.3,41.3,0,0,0,74.7,57.56v6.89A34.48,34.48,0,0,1,94.27,73ZM74.39,133.41v6.89a41.31,41.31,0,0,0,25.34-11.13l-4.79-4.91a34.64,34.64,0,0,1-20.55,9.15Zm22.88-11.54,4.93,4.78a41.33,41.33,0,0,0,10.49-24.36H105.8A34.61,34.61,0,0,1,97.27,121.87Zm8.55-26h6.9a41.33,41.33,0,0,0-11.14-25.33l-4.9,4.79A34.54,34.54,0,0,1,105.82,95.85Z"/><path class="b5417493-870b-43ee-83d9-31ee3280013e" d="M105.82,95.85a34.54,34.54,0,0,0-9.14-20.54c-.77-.81-1.58-1.59-2.41-2.33A34.48,34.48,0,0,0,74.7,64.45c-1.11-.11-2.23-.16-3.37-.16s-2,0-3.06.13a34.52,34.52,0,0,0-20.55,9.15c-.81.77-1.58,1.56-2.32,2.4a34.48,34.48,0,0,0-8.53,19.57c-.11,1.11-.17,2.24-.17,3.38s0,2,.14,3.06A34.52,34.52,0,0,0,46,122.52c.77.81,1.58,1.59,2.41,2.33A34.48,34.48,0,0,0,68,133.38c1.11.11,2.23.16,3.37.16s2,0,3.06-.13a34.64,34.64,0,0,0,20.55-9.15c.81-.77,1.58-1.56,2.33-2.39a34.61,34.61,0,0,0,8.53-19.58c.11-1.11.16-2.23.16-3.37s0-2.06-.14-3.07Zm-1.4,6.3A33.22,33.22,0,0,1,96.23,121c-.72.8-1.46,1.56-2.24,2.3A33.26,33.26,0,0,1,74.27,132q-1.45.12-2.94.12a31.67,31.67,0,0,1-3.24-.15,33.09,33.09,0,0,1-18.78-8.19c-.8-.71-1.58-1.46-2.31-2.24a33.09,33.09,0,0,1-8.78-19.71c-.09-1-.13-2-.13-2.94a31.52,31.52,0,0,1,.16-3.24,33.09,33.09,0,0,1,8.19-18.79c.71-.81,1.45-1.57,2.23-2.31A33.14,33.14,0,0,1,68.39,65.8q1.45-.12,2.94-.12a31.67,31.67,0,0,1,3.24.15A33.09,33.09,0,0,1,93.35,74c.8.71,1.58,1.46,2.31,2.24A33.11,33.11,0,0,1,104.44,96c.09,1,.13,2,.13,3a31.34,31.34,0,0,1-.15,3.23Z"/><path class="be4ac334-cce5-4c6c-b4e1-2a25770e5276" d="M104.57,98.92a31.34,31.34,0,0,1-.15,3.23A33.22,33.22,0,0,1,96.23,121c-.72.8-1.46,1.56-2.24,2.3A33.26,33.26,0,0,1,74.27,132q-1.45.12-2.94.12a31.67,31.67,0,0,1-3.24-.15,33.09,33.09,0,0,1-18.78-8.19c-.8-.71-1.58-1.46-2.31-2.24a33.09,33.09,0,0,1-8.78-19.71c-.09-1-.13-2-.13-2.94a31.52,31.52,0,0,1,.16-3.24,33.09,33.09,0,0,1,8.19-18.79c.71-.81,1.45-1.57,2.23-2.31A33.14,33.14,0,0,1,68.39,65.8q1.45-.12,2.94-.12a31.67,31.67,0,0,1,3.24.15A33.09,33.09,0,0,1,93.35,74c.8.71,1.58,1.46,2.31,2.24A33.11,33.11,0,0,1,104.44,96c.09,1,.13,2,.13,3Z"/><circle class="aeca2425-c9e7-46e2-89ad-e7cb92b5078e" cx="71.33" cy="98.92" r="21.42"/><circle class="bc2a8032-c645-4cb8-8b59-bcb558a1519a" cx="71.33" cy="98.92" r="17.44"/><circle class="a29d22e8-d935-4cb6-8689-ff331ef7dbeb" cx="71.33" cy="98.92" r="8.75"/><path class="bd0b218c-380a-4074-a9e1-7a62e9910d06" d="M252.7,245.1h-5.31l-4.81-4.81-3.28,3.28v1.53h-4.41V230h4.57v7.68l7.4-7.4h5.66l-7.33,7.33ZM229.39,230v8.81L220.61,230h-4.47V245.1h4v-9.18l9.22,9.21h4.1V230Zm-15.27,8.27c-.83-1.63-1.46-2-2.16-2H200.29a1.46,1.46,0,0,1-.81-.63,2,2,0,0,1,.18-1.66,1.44,1.44,0,0,1,1.09-.46h13.58V230H198.62a2.31,2.31,0,0,0-1.42.49,4.65,4.65,0,0,0-1.62,2.07c-.38,1.38-.5,4.31,0,5.31a3.87,3.87,0,0,0,2.5,1.75h11.25a1.12,1.12,0,0,1,.83.56,1.49,1.49,0,0,1-.25,1.63,1.37,1.37,0,0,1-1,.21H195.25v3.13h16.87s2-.26,2.21-1.67.63-3.59-.21-5.21Z"/><path d="M29.93,11.44a12.72,12.72,0,0,1,1.86-.12,3.66,3.66,0,0,1,2.11.5,1.51,1.51,0,0,1,.66,1.27,1.61,1.61,0,0,1-.58,1.3,3.6,3.6,0,0,1-2.3.67A3.69,3.69,0,0,1,30.9,15v2.43h-1Zm1,2.92a3.67,3.67,0,0,0,.8.06c1.17,0,1.89-.46,1.89-1.29s-.71-1.19-1.78-1.19a5.74,5.74,0,0,0-.91.06Z"/><path d="M42.28,14.33c0,2.09-1.57,3.2-3.49,3.2a3.09,3.09,0,0,1-3.38-3.08,3.21,3.21,0,0,1,3.49-3.19A3.06,3.06,0,0,1,42.28,14.33Zm-5.83.1a2.41,2.41,0,1,0,4.81-.06,2.41,2.41,0,1,0-4.81.06Z"/><path d="M44.77,17.43l-1.91-6.07h1l.89,3.07c.22.76.42,1.51.56,2.1h0c.12-.6.36-1.32.61-2.11l1-3.06h1l.92,3.08a19.73,19.73,0,0,1,.52,2.08h0c.16-.66.37-1.34.61-2.1l1-3.06h1l-2.13,6.07h-1L48,14.27a14.18,14.18,0,0,1-.49-2h0a19,19,0,0,1-.58,2l-1.08,3.16Z"/><path d="M56.87,14.59H53.94v2.18H57.2v.66H53V11.36H57V12H53.94v1.92h2.93Z"/><path d="M58.46,11.44a12.62,12.62,0,0,1,1.86-.12,3.64,3.64,0,0,1,2.18.49A1.39,1.39,0,0,1,63.09,13a1.68,1.68,0,0,1-1.42,1.55v0a1.57,1.57,0,0,1,1.1,1.22,9.22,9.22,0,0,0,.58,1.67h-1a6.73,6.73,0,0,1-.5-1.45,1.37,1.37,0,0,0-1.51-1.18h-.91v2.63h-1v-6Zm1,2.77h1c1,0,1.7-.46,1.7-1.15s-.71-1.13-1.73-1.14a5.46,5.46,0,0,0-1,.07Z"/><path d="M364.44,30.17c0,2.09-1.58,3.19-3.49,3.19a3.09,3.09,0,0,1-3.38-3.08,3.2,3.2,0,0,1,3.49-3.18A3.07,3.07,0,0,1,364.44,30.17Zm-5.84.1a2.41,2.41,0,1,0,4.81-.07,2.41,2.41,0,1,0-4.81.07Z"/><path d="M365.69,27.27a14.3,14.3,0,0,1,1.86-.12,3.56,3.56,0,0,1,2.11.51,1.48,1.48,0,0,1,.66,1.27,1.58,1.58,0,0,1-.58,1.29,3.58,3.58,0,0,1-2.3.67,4.58,4.58,0,0,1-.78-.05v2.43h-1v-6Zm1,2.92a3.69,3.69,0,0,0,.81.07c1.17,0,1.88-.46,1.88-1.3s-.7-1.19-1.77-1.19a4.38,4.38,0,0,0-.91.07v2.35Z"/><path d="M373.05,27.86h-2.28V27.2h5.56v.66H374v5.4h-1Z"/><path d="M378.14,27.2v6.06h-1V27.2Z"/><path d="M386.26,30.17c0,2.09-1.58,3.19-3.5,3.19a3.09,3.09,0,0,1-3.38-3.08,3.21,3.21,0,0,1,3.5-3.18A3.07,3.07,0,0,1,386.26,30.17Zm-5.84.1a2.41,2.41,0,1,0,4.81-.07,2.41,2.41,0,1,0-4.81.07Z"/><path d="M387.51,33.26V27.2h1.06L391,30.27a16.63,16.63,0,0,1,1.35,2h0a21.64,21.64,0,0,1-.11-2.49V27.2h.92v6.06h-1l-2.39-3.07a18.22,18.22,0,0,1-1.41-2h0c.06.77.08,1.5.08,2.5v2.6h-.92Z"/><path d="M361.83,85.83,360.53,89h-1.67l4.25-10.11h1.95L369.34,89h-1.73l-1.34-3.18Zm4.11-1-1.23-2.91c-.28-.66-.46-1.26-.65-1.85h0c-.18.6-.39,1.22-.63,1.83l-1.22,2.93Z"/><path d="M403.62,48.34a19.22,19.22,0,0,1,2.95-.21,6.1,6.1,0,0,1,3.44.74,2,2,0,0,1,1,1.78c0,1-.8,1.83-2.12,2.22v0c1.19.24,2.58,1,2.58,2.54a2.49,2.49,0,0,1-1.05,2,7.38,7.38,0,0,1-4.33.95,23.18,23.18,0,0,1-2.51-.12V48.34Zm1.61,4.14h1.47c1.71,0,2.72-.72,2.72-1.69,0-1.19-1.12-1.65-2.76-1.65a8,8,0,0,0-1.43.09Zm0,4.85a11.78,11.78,0,0,0,1.36.06c1.67,0,3.22-.5,3.22-2s-1.47-2-3.24-2h-1.34Z"/><path class="a1981972-910d-4014-bc55-e2767e2c65a4" d="M250.25,206.16c0-.73,0-1.46,0-2.2,0-.21-.06-.26-.26-.25-.4,0-.81,0-1.21,0-.21,0-.18-.12-.19-.25s0-.21.2-.21q1.72,0,3.45,0c.19,0,.17.1.17.23s0,.23-.17.23c-.42,0-.85,0-1.28,0-.17,0-.21,0-.21.22,0,1.49,0,3,0,4.48,0,.08.05.19,0,.22a.75.75,0,0,1-.42,0c-.07,0,0-.12,0-.18v-2.29Z"/><path class="a1981972-910d-4014-bc55-e2767e2c65a4" d="M248.39,208.42c0,.16,0,.24-.21.24-1,0-2.08,0-3.12,0-.18,0-.23-.05-.23-.22,0-.83,0-1.65,0-2.47v-2.49c0-.15,0-.21.19-.21,1,0,2,0,3.05,0,.19,0,.2.09.2.23s0,.23-.21.23h-2.51c-.17,0-.23,0-.23.22,0,.5,0,1,0,1.51,0,.17.06.21.22.21h2.29c.18,0,.23.05.23.23s0,.23-.23.23h-2.28c-.18,0-.23,0-.23.23,0,.55,0,1.1,0,1.66,0,.17,0,.23.23.23h2.6c.17,0,.24,0,.23.22Z"/><path class="a1981972-910d-4014-bc55-e2767e2c65a4" d="M244.62,208.65H244c-.11,0-.14-.11-.2-.18-.64-.83-1.28-1.67-1.91-2.51-.11-.15-.18-.17-.32,0s-.44.41-.67.61a.4.4,0,0,0-.14.33c0,.53,0,1.07,0,1.61,0,.21-.11.19-.24.18s-.27.07-.27-.17c0-1.68,0-3.37,0-5,0-.22.14-.16.25-.16s.26-.06.26.16c0,.79,0,1.59,0,2.38,0,.07-.05.16,0,.2s.11-.06.16-.11c.85-.79,1.73-1.56,2.56-2.38a1.1,1.1,0,0,1,.95-.24l-1.42,1.29c-.27.25-.54.51-.83.75-.14.12-.13.2,0,.33l2.22,2.79a1.58,1.58,0,0,1,.16.21Z"/><path class="a1981972-910d-4014-bc55-e2767e2c65a4" d="M239.2,207.22a2.32,2.32,0,0,1-4.39-.09,3.23,3.23,0,0,1,.45-3.14,2.32,2.32,0,0,1,3.89.56c0,.09.11.21-.05.22s-.3.23-.41,0a1.61,1.61,0,0,0-1.23-1.12,1.77,1.77,0,0,0-1.83.7,2.89,2.89,0,0,0-.46,2.16,2.06,2.06,0,0,0,.55,1.31,1.79,1.79,0,0,0,2.92-.44,2.55,2.55,0,0,0,.14-.35c0-.16.12-.17.24-.13.29.08.29.08.18.36Z"/><path class="a1981972-910d-4014-bc55-e2767e2c65a4" d="M233.88,205.72a2.41,2.41,0,0,0-2.19-2.52A2.33,2.33,0,0,0,229,205a3.58,3.58,0,0,0,0,1.75,2.26,2.26,0,0,0,1.61,1.87,2.47,2.47,0,0,0,2.55-.54,2.83,2.83,0,0,0,.76-2.11v-.25ZM233,207.5a1.87,1.87,0,0,1-3.11.05,3.11,3.11,0,0,1,0-3.22,1.9,1.9,0,0,1,3.1.07,2.76,2.76,0,0,1,.4,1.56A2.62,2.62,0,0,1,233,207.5Z"/><path class="ec5a5411-5915-467d-90d8-4f2465434cee" d="M230.85,197.1a.15.15,0,0,1,0-.23l2.38-2.1c.1-.1.14-.08.21,0q.34.58.72,1.17c.05.09.05.13-.05.18l-.28.18-2.34,1.45c-.12.08-.18.06-.25-.06s-.28-.41-.42-.62Z"/><path class="ec5a5411-5915-467d-90d8-4f2465434cee" d="M228.19,191.62h.06a.13.13,0,0,0,.12,0h.06a.28.28,0,0,0,.18,0h.07a.11.11,0,0,0,.11,0h.07a.17.17,0,0,0,.14,0h.07c.06.06,0,.11,0,.17l-.21.58-1,2.6c0,.07-.05.16-.16.13l-.7-.14c-.07,0-.09-.05-.08-.13.11-.68.21-1.36.31-2l.15-1v-.06a.13.13,0,0,0,0-.12.17.17,0,0,1,0-.07c0-.12.08-.14.19-.11a.25.25,0,0,0,.12,0h.06a.13.13,0,0,0,.12,0l.09,0a.2.2,0,0,0,.15,0Z"/><path class="ec5a5411-5915-467d-90d8-4f2465434cee" d="M229.22,195.68a.23.23,0,0,1,.05-.18l1.65-2.81c.05-.09.09-.12.19-.05l1,.71c.08.06.1.1,0,.18a3.1,3.1,0,0,0-.27.34.74.74,0,0,0-.12.13c-.57.68-1.14,1.35-1.7,2a.14.14,0,0,1-.22,0l-.64-.39Z"/><path class="ec5a5411-5915-467d-90d8-4f2465434cee" d="M223.6,201.74h0l0,.05h0l0,.05h0a.09.09,0,0,0,0,.08s0,0,0,.05h0l0,0a.13.13,0,0,0,.06.11c.22.46.45.92.68,1.38q1.2,2.4,2.41,4.79c.07.14.06.2-.09.24l-.16.08-.05,0h0l-.66.28c-.19.08-.19.08-.28-.1q-2-4.08-4-8.15c-.28-.58-.57-1.15-.85-1.72,0,0,0,0,0-.06-.12-.26-.12-.26.15-.39l3.66-1.74a7.59,7.59,0,0,1,1.12-.52,3.71,3.71,0,0,1,4.79,3,4.29,4.29,0,0,1-.71,3.06s0,0,0,0a5.47,5.47,0,0,1-2.29,1.66.23.23,0,0,1-.28,0c-.16-.15-.33-.28-.5-.42l-2.52-2.08a.18.18,0,0,1-.07-.24c.13-.34.25-.68.36-1s.29-.74.39-1.12c0,0,.21-.55.21-.55l0,0h2.62c.06,0,.12,0,.16.05v1.3l-.51,0h-1.18c-.07,0-.14,0-.16.08s-.08.31-.11.47-.16.52-.2.63a.17.17,0,0,0,.08.21l1.46,1c.35.24.36.24.67,0a9,9,0,0,0,1-1.2.47.47,0,0,0,.06-.09,2.38,2.38,0,0,0-.19-2.45,2,2,0,0,0-1.83-1,3.42,3.42,0,0,0-1.59.41c-.85.43-1.7.85-2.54,1.29-.41.21-.36.09-.16.51l0,0Z"/><path class="a1981972-910d-4014-bc55-e2767e2c65a4" d="M221.6,205.65a2.42,2.42,0,0,0-2.18-2.46,2.36,2.36,0,0,0-2.64,1.62,3,3,0,0,0-.16,1.14c0,.13,0,.26,0,.38a2.41,2.41,0,0,0,2.16,2.39,2.35,2.35,0,0,0,2.7-1.74,3.72,3.72,0,0,0,.13-1.33Zm-1,2a1.87,1.87,0,0,1-3,0,3.12,3.12,0,0,1,0-3.29,1.92,1.92,0,0,1,3.24.41,3.22,3.22,0,0,1,.24,1.27,2.62,2.62,0,0,1-.51,1.66Z"/><path class="a1981972-910d-4014-bc55-e2767e2c65a4" d="M216.47,208.43c0,.17,0,.23-.22.22h-3.12c-.17,0-.21,0-.21-.21,0-.83,0-1.66,0-2.49s0-1.64,0-2.47c0-.15,0-.22.2-.22q1.51,0,3,0c.19,0,.2.07.21.22s0,.24-.22.24h-2.49c-.17,0-.23,0-.23.22q0,.76,0,1.53c0,.14.05.19.19.19h2.31c.2,0,.22.08.22.24s0,.22-.21.22h-2.27c-.17,0-.24,0-.24.23,0,.55,0,1.1,0,1.66,0,.17,0,.23.23.23h2.6c.18,0,.23.05.22.23Z"/><path class="a1981972-910d-4014-bc55-e2767e2c65a4" d="M212.28,207.8a.24.24,0,0,1-.1.23,3.45,3.45,0,0,1-3.23.52,2.36,2.36,0,0,1-1.6-2.18,3.66,3.66,0,0,1,.15-1.47,2.5,2.5,0,0,1,2.85-1.7,1.91,1.91,0,0,1,1.79,1.31c0,.09.07.2-.08.21s-.3.23-.4,0a1.68,1.68,0,0,0-1.8-1.12,1.93,1.93,0,0,0-1.77,1.17,2.91,2.91,0,0,0,.36,3,2.21,2.21,0,0,0,2.19.56,2.91,2.91,0,0,0,1-.43.27.27,0,0,0,.13-.26c0-.33,0-.66,0-1,0-.15-.06-.19-.2-.18h-1.32c-.19,0-.2-.08-.2-.23s0-.24.19-.23.62,0,.92,0h.9c.16,0,.2,0,.2.2,0,.55,0,1.09,0,1.64Z"/><path class="a1981972-910d-4014-bc55-e2767e2c65a4" d="M206.71,205.71a2.41,2.41,0,0,0-2.17-2.51,2.33,2.33,0,0,0-2.71,1.8,3.62,3.62,0,0,0,0,1.76,2.26,2.26,0,0,0,1.62,1.86,2.46,2.46,0,0,0,2.54-.55,2.88,2.88,0,0,0,.77-2.13,2,2,0,0,0,0-.23Zm-.9,1.74a1.85,1.85,0,0,1-3.2,0,2.88,2.88,0,0,1,0-3,1.87,1.87,0,0,1,3.16-.07,2.71,2.71,0,0,1,.4,1.58,2.6,2.6,0,0,1-.37,1.48Z"/><path class="a1981972-910d-4014-bc55-e2767e2c65a4" d="M201.79,208.43c0,.18,0,.23-.22.23h-3.1c-.2,0-.23-.07-.23-.25,0-.82,0-1.64,0-2.46s0-1.65,0-2.47c0-.16,0-.22.21-.22q1.52,0,3,0c.21,0,.2.09.21.24s0,.22-.21.22H199c-.18,0-.23,0-.23.23,0,.49,0,1,0,1.48,0,.2.07.23.25.23h2.26c.19,0,.21.07.22.23s-.05.23-.23.23H199c-.17,0-.22,0-.22.22q0,.84,0,1.68c0,.18.06.22.23.22h2.58c.18,0,.24,0,.24.23Z"/><path class="a1981972-910d-4014-bc55-e2767e2c65a4" d="M197.62,208.45c0,.15,0,.2-.2.21a.54.54,0,0,1-.53-.27c-.89-1.34-1.79-2.66-2.7-4a.66.66,0,0,0-.17-.23c-.08,0-.05.09-.05.14l0,4.08c0,.2,0,.27-.25.27s-.24-.1-.24-.28v-4.84c0-.09-.07-.25.08-.26s.36-.1.49.1l.81,1.19c.69,1,1.39,2.06,2.09,3.08,0,.06.06.14.17.16v-1.13c0-1.07,0-2.14,0-3.21,0-.23.12-.2.27-.21s.24,0,.24.21q0,2.49,0,5Z"/><path class="acf881b6-629d-47bd-acee-f8a4df767848" d="M318.29,19.93c-.26-.89-.19-1.93-1-2.61a2,2,0,0,1,.2-.12,2,2,0,0,0,1.33-1.85c0-.79-.39-1.22-1.32-1.35s-2.09,0-3.13-.06c-.3,0-.29.2-.32.39-.27,1.8-.53,3.6-.81,5.4-.05.3,0,.4.33.41s.46-.1.48-.43a4.64,4.64,0,0,1,.12-.82c.09-.45,0-1,.28-1.31s.9-.09,1.36-.1a1.19,1.19,0,0,1,1.33,1c.1.42.17.84.26,1.27a.6.6,0,0,0,.8.32A.15.15,0,0,0,318.29,19.93Zm-1.53-3.2c-.34,0-.67,0-1,0h-.92c-.25,0-.36-.07-.31-.34q.12-.72.21-1.44c0-.25.14-.34.39-.33.63,0,1.28,0,1.91,0s1,.39.92,1A1.13,1.13,0,0,1,316.76,16.73Z"/><path class="acf881b6-629d-47bd-acee-f8a4df767848" d="M308.65,13.85A3.5,3.5,0,0,0,305.18,17c-.28,1.88.74,3.18,2.49,3.18a3.49,3.49,0,0,0,3.43-3.17C311.39,15.14,310.4,13.86,308.65,13.85Zm-1,5.69A1.74,1.74,0,0,1,306,17.63c0-.2,0-.41,0-.51a3.54,3.54,0,0,1,.55-1.53,2.31,2.31,0,0,1,2.15-1.06,1.57,1.57,0,0,1,1.52,1.18,3.29,3.29,0,0,1-.11,2.05,2.45,2.45,0,0,1-2.49,1.78Z"/><path class="acf881b6-629d-47bd-acee-f8a4df767848" d="M299.26,16.94c.14-.9.29-1.8.4-2.7,0-.33.17-.39.46-.39s.38.1.33.4c-.23,1.52-.44,3.05-.69,4.57-.06.4.05.51.43.49.73,0,1.45,0,2.18,0,.3,0,.35.12.31.39s-.14.36-.41.35h-3.13c-.28,0-.33-.11-.29-.36.15-.91.28-1.83.41-2.74Z"/><path class="acf881b6-629d-47bd-acee-f8a4df767848" d="M296.49,16.14A2.44,2.44,0,0,0,293.31,14a3.56,3.56,0,0,0-2.76,3.14c0,.1,0,.2,0,.3a2.49,2.49,0,0,0,1.6,2.75,3.27,3.27,0,0,0,3.37-.93A3.86,3.86,0,0,0,296.49,16.14Zm-1.33,2.33a2.33,2.33,0,0,1-2,1.16,1.59,1.59,0,0,1-1.72-1.09,3.23,3.23,0,0,1,.4-2.82,2.34,2.34,0,0,1,2.43-1.08,1.78,1.78,0,0,1,1.38,1.91,5.54,5.54,0,0,1-.05.56A3.18,3.18,0,0,1,295.16,18.47Z"/><path class="acf881b6-629d-47bd-acee-f8a4df767848" d="M285.65,20.22A2.2,2.2,0,0,1,283.22,18a3.85,3.85,0,0,1,1.57-3.6,3,3,0,0,1,3.44,0,1.55,1.55,0,0,1,.53.85c0,.18.22.4-.07.57a.5.5,0,0,1-.71-.3,1.22,1.22,0,0,0-1.2-.95,2.09,2.09,0,0,0-2.07.88,3.36,3.36,0,0,0-.46,3.26,1.83,1.83,0,0,0,2.56.64,1.63,1.63,0,0,0,.71-.78.67.67,0,0,1,.82-.36c.19.09.07.25,0,.38A2.68,2.68,0,0,1,286,20.22c-.11,0-.23,0-.35,0Z"/></svg>