<svg xmlns="http://www.w3.org/2000/svg" xmlns:xlink="http://www.w3.org/1999/xlink" viewBox="0 0 470.33 67.41"><defs><style>.a06e323e-94af-4793-8724-0c253fd2325e{stroke:#9def48;stroke-miterlimit:10;stroke-width:0.75px;fill:url(#b248d68b-f5d5-4637-8278-456b27ce1bc1);}.e3c02ea6-85fb-43bd-ab6c-bf1fd852ba91{fill:#9def48;}.b383e894-0ed9-4da1-be45-75046c6f541e{fill:#0097e0;}.f1fd43eb-d6fc-4061-b444-5290b512c518{fill:#0096df;}</style><linearGradient id="b248d68b-f5d5-4637-8278-456b27ce1bc1" x1="0.38" y1="33.7" x2="469.96" y2="33.7" gradientUnits="userSpaceOnUse"><stop offset="0" stop-color="#032c02"/><stop offset="1" stop-color="#207a09"/></linearGradient></defs><g id="ac0538b9-c1ac-4574-9003-95fdb9cd96ae" data-name="texte"><polygon class="a06e323e-94af-4793-8724-0c253fd2325e" points="0.38 5.91 102.44 5.91 108.57 0.38 150.31 0.38 158.22 5.91 461.65 6.11 469.96 16 469.96 59.72 50.81 59.72 42.7 67.03 7.89 67.03 0.38 59.72 0.38 5.91"/><path class="e3c02ea6-85fb-43bd-ab6c-bf1fd852ba91" d="M55.28,27.16a10.77,10.77,0,0,0-1.53,5.38,10.83,10.83,0,0,0,1.53,5.38h1.78v2.67H53.85a12,12,0,0,1-2.78-8.05,11.92,11.92,0,0,1,2.78-8H69.72a11.91,11.91,0,0,1,2.77,8.05,12,12,0,0,1-2.77,8.05H66.5V37.92h1.79a10.83,10.83,0,0,0,1.53-5.38,10.77,10.77,0,0,0-1.53-5.38Z" transform="translate(-0.06 -0.03)"/><path class="e3c02ea6-85fb-43bd-ab6c-bf1fd852ba91" d="M91.09,33.86H80a11.5,11.5,0,0,0,1.45,4.06H94.65l1.54,2.67H80a11.62,11.62,0,0,1-2.72-6.73H74.74V31.2h2.52A11.51,11.51,0,0,1,80,24.49H96.19l-1.54,2.67H81.42a11.34,11.34,0,0,0-1.45,4H91.09Z" transform="translate(-0.06 -0.03)"/><path class="e3c02ea6-85fb-43bd-ab6c-bf1fd852ba91" d="M116,40.59H100.08a12,12,0,0,1-2.77-8.05,11.91,11.91,0,0,1,2.77-8H116a11.92,11.92,0,0,1,2.78,8.05A12,12,0,0,1,116,40.59Zm-1.42-2.67a10.92,10.92,0,0,0,1.52-5.38,10.86,10.86,0,0,0-1.52-5.38h-13a10.17,10.17,0,0,0,0,10.76Z" transform="translate(-0.06 -0.03)"/><path class="e3c02ea6-85fb-43bd-ab6c-bf1fd852ba91" d="M149.07,31.2c0,.44.06.88.06,1.34a12,12,0,0,1-2.78,8.05H130.48a12,12,0,0,1-2.77-8.05,12,12,0,0,1,2.77-8h15.87a11.17,11.17,0,0,1,2.42,4.79h-2.88a12.07,12.07,0,0,0-1-2.12h-13a10.79,10.79,0,0,0-1.54,5.38,10.84,10.84,0,0,0,1.54,5.38h13a11.65,11.65,0,0,0,1.43-4.06h-9.7V31.2Z" transform="translate(-0.06 -0.03)"/><path class="e3c02ea6-85fb-43bd-ab6c-bf1fd852ba91" d="M167.72,33.86H156.61a11.47,11.47,0,0,0,1.44,4.06h13.23l1.54,2.67h-16.2a11.56,11.56,0,0,1-2.72-6.73h-2.53V31.2h2.53a11.44,11.44,0,0,1,2.72-6.71h16.2l-1.54,2.67H158.05a11.31,11.31,0,0,0-1.44,4h11.11Z" transform="translate(-0.06 -0.03)"/><path class="e3c02ea6-85fb-43bd-ab6c-bf1fd852ba91" d="M192.59,40.59H176.72A12,12,0,0,1,174,32.54a11.91,11.91,0,0,1,2.77-8h15.87a11.91,11.91,0,0,1,2.77,8.05A12,12,0,0,1,192.59,40.59Zm-1.43-2.67a10.83,10.83,0,0,0,1.53-5.38,10.77,10.77,0,0,0-1.53-5.38h-13a10.17,10.17,0,0,0,0,10.76Z" transform="translate(-0.06 -0.03)"/><path class="e3c02ea6-85fb-43bd-ab6c-bf1fd852ba91" d="M227,33.86H209.58A11.7,11.7,0,0,0,211,37.92h1.77v2.67h-3.21a11.62,11.62,0,0,1-2.72-6.73h-2.52V31.2h2.52a11.51,11.51,0,0,1,2.72-6.71h15.87a11.91,11.91,0,0,1,2.77,8.05ZM209.58,31.2h15.89a11.31,11.31,0,0,0-1.44-4H211A11.54,11.54,0,0,0,209.58,31.2Z" transform="translate(-0.06 -0.03)"/><path class="e3c02ea6-85fb-43bd-ab6c-bf1fd852ba91" d="M249.07,40.59H233.2a12,12,0,0,1-2.78-8.05,11.92,11.92,0,0,1,2.78-8h15.87a11.91,11.91,0,0,1,2.77,8.05A12,12,0,0,1,249.07,40.59Zm-1.43-2.67a10.83,10.83,0,0,0,1.53-5.38,10.77,10.77,0,0,0-1.53-5.38h-13a10.17,10.17,0,0,0,0,10.76Z" transform="translate(-0.06 -0.03)"/><path class="e3c02ea6-85fb-43bd-ab6c-bf1fd852ba91" d="M272.27,35.79h2.87a11.13,11.13,0,0,1-2.41,4.8H256.86a12,12,0,0,1-2.77-8.05,11.93,11.93,0,0,1,2.77-8h15.87a11.15,11.15,0,0,1,2.41,4.79h-2.87a11.44,11.44,0,0,0-1-2.12h-13a10.17,10.17,0,0,0,0,10.76h13A11.83,11.83,0,0,0,272.27,35.79Z" transform="translate(-0.06 -0.03)"/><path class="e3c02ea6-85fb-43bd-ab6c-bf1fd852ba91" d="M280.62,33.86v6.73H278V26.77l2.67-2.68V31.2h4.47l8.27-6.71h4.33l-9.91,8.05,9.91,8.05h-4.33l-8.29-6.73Z" transform="translate(-0.06 -0.03)"/><path class="e3c02ea6-85fb-43bd-ab6c-bf1fd852ba91" d="M312.36,33.86H301.24a11.7,11.7,0,0,0,1.45,4.06h13.23l1.54,2.67H301.25a11.61,11.61,0,0,1-2.71-6.73H296V31.2h2.53a11.5,11.5,0,0,1,2.71-6.71h16.21l-1.54,2.67H302.69a11.54,11.54,0,0,0-1.45,4h11.12Z" transform="translate(-0.06 -0.03)"/><path class="e3c02ea6-85fb-43bd-ab6c-bf1fd852ba91" d="M331.12,38.31,328.44,41V27.16h-8.73V24.49h20.14v2.67h-8.73Z" transform="translate(-0.06 -0.03)"/><path class="e3c02ea6-85fb-43bd-ab6c-bf1fd852ba91" d="M367,35.79h2.87a11.13,11.13,0,0,1-2.41,4.8H351.61a12,12,0,0,1-2.77-8.05,11.93,11.93,0,0,1,2.77-8h15.87a11.15,11.15,0,0,1,2.41,4.79H367a11.44,11.44,0,0,0-1-2.12h-13a10.17,10.17,0,0,0,0,10.76h13A11.83,11.83,0,0,0,367,35.79Z" transform="translate(-0.06 -0.03)"/><path class="e3c02ea6-85fb-43bd-ab6c-bf1fd852ba91" d="M390.78,40.59H374.91a12,12,0,0,1-2.77-8.05,12,12,0,0,1,2.77-8h15.87a11.92,11.92,0,0,1,2.78,8.05A12,12,0,0,1,390.78,40.59Zm-1.42-2.67a10.92,10.92,0,0,0,1.52-5.38,10.86,10.86,0,0,0-1.52-5.38h-13a10.79,10.79,0,0,0-1.54,5.38,10.84,10.84,0,0,0,1.54,5.38Z" transform="translate(-0.06 -0.03)"/><path class="e3c02ea6-85fb-43bd-ab6c-bf1fd852ba91" d="M399,37.92h12.1l1.54,2.67H396.37V26.77L399,24.09Z" transform="translate(-0.06 -0.03)"/><path class="e3c02ea6-85fb-43bd-ab6c-bf1fd852ba91" d="M432.45,40.59H416.58a12,12,0,0,1-2.77-8.05,11.91,11.91,0,0,1,2.77-8h15.87a11.91,11.91,0,0,1,2.77,8.05A12,12,0,0,1,432.45,40.59ZM431,37.92a10.83,10.83,0,0,0,1.53-5.38A10.77,10.77,0,0,0,431,27.16H418a10.17,10.17,0,0,0,0,10.76Z" transform="translate(-0.06 -0.03)"/><path class="e3c02ea6-85fb-43bd-ab6c-bf1fd852ba91" d="M455.37,37.92h1.79a11.65,11.65,0,0,0,1.43-4.06H442.7a11.7,11.7,0,0,0,1.45,4.06h1.78v2.67h-3.22A11.61,11.61,0,0,1,440,33.86h-2.53V31.2H440a11.5,11.5,0,0,1,2.71-6.71h15.87a11.47,11.47,0,0,1,2.72,6.72l-1.16.65v1.35l1.16.65a11.56,11.56,0,0,1-2.72,6.73h-3.21ZM442.7,31.2h15.89a11.48,11.48,0,0,0-1.43-4h-13A11.54,11.54,0,0,0,442.7,31.2Z" transform="translate(-0.06 -0.03)"/></g><g id="a335b559-219f-4932-bc6b-68eba122be08" data-name="arcade"><g id="a15756a0-9e43-421f-9643-96dce4d4b165" data-name="snk"><path id="bc5b95bd-7edc-4907-b742-36b8f15fc306" data-name="S" class="b383e894-0ed9-4da1-be45-75046c6f541e" d="M22.94,64.9c2.22,0,4-1.48,4-3.31V52.37a.47.47,0,0,1,.5-.42.45.45,0,0,1,.49.42V64.94h3.57v-14c0-1.84-1.84-3.32-4.06-3.32s-4.06,1.48-4.06,3.32v9.18a.47.47,0,0,1-.5.42.44.44,0,0,1-.49-.42V47.61h-3.5v14c0,1.83,1.8,3.31,4,3.31Z" transform="translate(-0.06 -0.03)"/><polygon id="b1494bf6-11e9-4856-b138-63519a2222a4" data-name="N" class="b383e894-0ed9-4da1-be45-75046c6f541e" points="18.86 46.56 31.39 46.56 31.39 42.15 23.52 42.15 31.39 33.74 31.39 29.15 18.86 29.15 18.86 33.57 26.69 33.57 18.86 41.97 18.86 46.56"/><polygon id="bc6bad3d-7231-4c2e-ad01-2bb7286d5f8c" data-name="K" class="b383e894-0ed9-4da1-be45-75046c6f541e" points="24.36 23.72 18.86 23.72 18.86 28.2 31.39 28.2 31.39 23.72 25.84 23.72 31.39 16.59 31.39 10.83 25.14 18.95 18.86 10.83 18.86 16.59 24.36 23.72"/><path id="bb168d05-607a-4cfd-bf66-9bfbd2de0d03" data-name="mark" class="f1fd43eb-d6fc-4061-b444-5290b512c518" d="M19.3,8.64a1.29,1.29,0,0,0-.39.91,1.31,1.31,0,0,0,.39.92,1.28,1.28,0,0,0,1.84,0,1.31,1.31,0,0,0,.39-.92,1.33,1.33,0,0,0-1.31-1.3,1.34,1.34,0,0,0-.92.39Zm1.7.14a1.12,1.12,0,0,1,0,1.55,1.13,1.13,0,0,1-.78.32,1.06,1.06,0,0,1-.78-.32,1.09,1.09,0,0,1-.31-.78,1,1,0,0,1,.31-.77,1.11,1.11,0,0,1,1.56,0Z" transform="translate(-0.06 -0.03)"/><path id="b0e6903a-1daa-4590-9ca0-806e96c6050e" data-name="R" class="f1fd43eb-d6fc-4061-b444-5290b512c518" d="M20,9h0a.4.4,0,0,0-.39.39v.74h1.31V9.87H20.4V9.41a.16.16,0,0,1,.14-.17l.32,0V9l-.32,0a.48.48,0,0,0-.25.11A.27.27,0,0,0,20,9Zm-.21.92V9.34A.17.17,0,0,1,20,9.16H20a.17.17,0,0,1,.18.18v.53Z" transform="translate(-0.06 -0.03)"/></g></g></svg>