<svg xmlns="http://www.w3.org/2000/svg" xmlns:xlink="http://www.w3.org/1999/xlink" viewBox="0 0 470.58 67.66"><defs><style>.a283670a-2824-4e7f-9206-96b970ac832a{stroke:#9def48;stroke-miterlimit:10;fill:url(#aa6f69e4-0a3d-47ba-8dd6-bc536d57f097);}.b7b59b03-d58e-41ae-bc4a-198b47d1a18f{fill:#9def48;}.b7adf69c-9f64-4ca0-b698-7365d873a29a{fill:#f9f9f9;}</style><linearGradient id="aa6f69e4-0a3d-47ba-8dd6-bc536d57f097" x1="0.5" y1="33.83" x2="470.08" y2="33.83" gradientUnits="userSpaceOnUse"><stop offset="0" stop-color="#032c02"/><stop offset="1" stop-color="#207a09"/></linearGradient></defs><g id="a29e256c-4274-4d96-9680-b3422c106a64" data-name="calque3"><polygon class="a283670a-2824-4e7f-9206-96b970ac832a" points="0.5 6.04 102.57 6.04 108.7 0.5 150.44 0.5 158.35 6.04 461.77 6.24 470.08 16.13 470.08 59.84 50.94 59.84 42.83 67.16 8.02 67.16 0.5 59.84 0.5 6.04"/><path class="b7b59b03-d58e-41ae-bc4a-198b47d1a18f" d="M64.52,38.33l-4.29,6.82H55.16L70.73,20.64h4.68L90.86,45.15h-5l-4.24-6.82Zm14.56-4-6-9.59-6,9.59Z"/><path class="b7b59b03-d58e-41ae-bc4a-198b47d1a18f" d="M106,24.71H98.12a16.32,16.32,0,0,0-2.34,8.18,16.38,16.38,0,0,0,2.34,8.19h2.7v4.07H95.93a18.23,18.23,0,0,1-4.22-12.26,18.18,18.18,0,0,1,4.22-12.25h10V16.8h4v3.84h10a18.13,18.13,0,0,1,4.22,12.25,18.18,18.18,0,0,1-4.22,12.26h-4.89V41.08h2.72a16.47,16.47,0,0,0,2.33-8.19,16.41,16.41,0,0,0-2.33-8.18H110V39.23h-4Z"/><path class="b7b59b03-d58e-41ae-bc4a-198b47d1a18f" d="M133.5,45.15h-4.07v-21L133.5,20Z"/><path class="b7b59b03-d58e-41ae-bc4a-198b47d1a18f" d="M171.13,30.86c.06.66.08,1.34.08,2A18.18,18.18,0,0,1,167,45.15H142.85a18.19,18.19,0,0,1-4.23-12.26,18.14,18.14,0,0,1,4.23-12.25H167a17.13,17.13,0,0,1,3.68,7.3h-4.38a17.47,17.47,0,0,0-1.47-3.23H145a16.32,16.32,0,0,0-2.34,8.18A16.38,16.38,0,0,0,145,41.08h19.79A17.63,17.63,0,0,0,167,34.91H152.24v-4Z"/><path class="b7b59b03-d58e-41ae-bc4a-198b47d1a18f" d="M181.43,38.33l-4.29,6.82h-5.07l15.57-24.51h4.68l15.45,24.51h-5l-4.24-6.82Zm14.56-4-6-9.59-6,9.59Z"/><path class="b7b59b03-d58e-41ae-bc4a-198b47d1a18f" d="M225.12,24.71h-4.53V20.64h8.59v21l-4.06,4.07Z"/><path class="b7b59b03-d58e-41ae-bc4a-198b47d1a18f" d="M236.16,30.86H262.7a17.33,17.33,0,0,0-2.21-6.15H240.7a18.89,18.89,0,0,0-1.47,3.23h-4.37a17.11,17.11,0,0,1,3.67-7.3h24.15a18.22,18.22,0,0,1,4.22,12.25l-1.85,2H238.51a17.3,17.3,0,0,0,2.19,6.17h24.61v4.07H238.53a18.19,18.19,0,0,1-4.22-12.26Z"/><path class="b7b59b03-d58e-41ae-bc4a-198b47d1a18f" d="M298.69,45.15H274.54a18.23,18.23,0,0,1-4.22-12.26,18.18,18.18,0,0,1,4.22-12.25h24.15a18.18,18.18,0,0,1,4.22,12.25A18.23,18.23,0,0,1,298.69,45.15Zm-2.17-4.07a16.45,16.45,0,0,0,2.32-8.19,16.39,16.39,0,0,0-2.32-8.18H276.73a16.32,16.32,0,0,0-2.34,8.18,16.38,16.38,0,0,0,2.34,8.19ZM284.59,36V29.82h4.05V36Z"/><path class="b7b59b03-d58e-41ae-bc4a-198b47d1a18f" d="M334.7,45.15H310.55a18.18,18.18,0,0,1-4.22-12.26,18.13,18.13,0,0,1,4.22-12.25H334.7a18.18,18.18,0,0,1,4.22,12.25A18.23,18.23,0,0,1,334.7,45.15Zm-2.17-4.07a16.45,16.45,0,0,0,2.32-8.19,16.39,16.39,0,0,0-2.32-8.18H312.74a16.23,16.23,0,0,0-2.35,8.18,16.3,16.3,0,0,0,2.35,8.19ZM320.6,36V29.82h4V36Z"/></g><g id="f94949b9-3af5-4795-b768-2f2e2c9a785f" data-name="commodore"><path class="b7adf69c-9f64-4ca0-b698-7365d873a29a" d="M20.74,60.53a4.54,4.54,0,1,0,8.86-1.39H27.33a2.57,2.57,0,0,1,.35,1.29,2.4,2.4,0,1,1-4.8,0,2.56,2.56,0,0,1,.34-1.29H21A4.92,4.92,0,0,0,20.74,60.53Z"/><polygon class="b7adf69c-9f64-4ca0-b698-7365d873a29a" points="23.55 55.72 25.13 57.24 25.13 59.1 23.55 59.1 23.55 55.72"/><polygon class="b7adf69c-9f64-4ca0-b698-7365d873a29a" points="27.02 55.72 25.45 57.24 25.45 59.1 27.02 59.1 27.02 55.72"/><path class="b7adf69c-9f64-4ca0-b698-7365d873a29a" d="M28,48a2.48,2.48,0,0,0-.53-1.63A1.93,1.93,0,0,0,26,45.7a1.91,1.91,0,0,0-1.51.65,2.73,2.73,0,0,0,0,3.26,1.91,1.91,0,0,0,1.51.65,1.93,1.93,0,0,0,1.52-.65A2.49,2.49,0,0,0,28,48Zm-.95,0a.75.75,0,0,1-.33.67,1.52,1.52,0,0,1-1.54,0,.78.78,0,0,1-.33-.67.79.79,0,0,1,.33-.68,1.58,1.58,0,0,1,1.54,0A.77.77,0,0,1,27.07,48Z"/><path class="b7adf69c-9f64-4ca0-b698-7365d873a29a" d="M27.93,45.15V43.79H26.28a1.78,1.78,0,0,1-.94-.2.64.64,0,0,1-.29-.57.44.44,0,0,1,.22-.41,1,1,0,0,1,.55-.13h2.11V41.12H26.28a1.78,1.78,0,0,1-.94-.2.63.63,0,0,1-.29-.57.44.44,0,0,1,.22-.41,1,1,0,0,1,.55-.13h2.11V38.45H25.62a2.23,2.23,0,0,0-1.25.27,1.25,1.25,0,0,0-.45,1.12,1.64,1.64,0,0,0,.18.79,1.57,1.57,0,0,0,.57.61,1.13,1.13,0,0,0-.57.48,1.47,1.47,0,0,0-.18.74,1.8,1.8,0,0,0,.19.85,1.37,1.37,0,0,0,.62.59H24v1.24Z"/><path class="b7adf69c-9f64-4ca0-b698-7365d873a29a" d="M27.93,37.72V36.36H26.28a1.78,1.78,0,0,1-.94-.2.65.65,0,0,1-.29-.57.44.44,0,0,1,.22-.41,1,1,0,0,1,.55-.13h2.11V33.69H26.28a1.78,1.78,0,0,1-.94-.2.63.63,0,0,1-.29-.57.44.44,0,0,1,.22-.41,1,1,0,0,1,.55-.13h2.11V31H25.62a2.23,2.23,0,0,0-1.25.27,1.25,1.25,0,0,0-.45,1.12,1.64,1.64,0,0,0,.18.79,1.57,1.57,0,0,0,.57.61,1.13,1.13,0,0,0-.57.48,1.47,1.47,0,0,0-.18.74,1.8,1.8,0,0,0,.19.85,1.37,1.37,0,0,0,.62.59H24v1.24Z"/><path class="b7adf69c-9f64-4ca0-b698-7365d873a29a" d="M28,28.19a2.49,2.49,0,0,0-.53-1.63A1.93,1.93,0,0,0,26,25.91a1.91,1.91,0,0,0-1.51.65,2.73,2.73,0,0,0,0,3.26,2,2,0,0,0,1.51.66,2,2,0,0,0,1.52-.66A2.48,2.48,0,0,0,28,28.19Zm-.95,0a.77.77,0,0,1-.33.68,1.58,1.58,0,0,1-1.54,0,.79.79,0,0,1-.33-.68.78.78,0,0,1,.33-.67,1.52,1.52,0,0,1,1.54,0A.75.75,0,0,1,27.07,28.19Z"/><path class="b7adf69c-9f64-4ca0-b698-7365d873a29a" d="M22.28,21.14V22.5h2.23v0a1.41,1.41,0,0,0-.47.6,2,2,0,0,0-.12.75,1.53,1.53,0,0,0,.63,1.25,2.26,2.26,0,0,0,1.35.43,2.46,2.46,0,0,0,1.5-.46A1.61,1.61,0,0,0,28,23.75a1.58,1.58,0,0,0-.23-.84,1.17,1.17,0,0,0-.56-.5v0h.7V21.14Zm3.65,3a1.09,1.09,0,0,1-.68-.22.7.7,0,0,1-.29-.6.74.74,0,0,1,.29-.61A1.17,1.17,0,0,1,26,22.5a1.08,1.08,0,0,1,.72.24.76.76,0,0,1,.28.59.73.73,0,0,1-.29.6A1.32,1.32,0,0,1,25.93,24.15Z"/><path class="b7adf69c-9f64-4ca0-b698-7365d873a29a" d="M28,18.34a2.46,2.46,0,0,0-.53-1.63A2,2,0,0,0,26,16.05a2,2,0,0,0-1.51.66,2.41,2.41,0,0,0-.54,1.63A2.4,2.4,0,0,0,24.46,20a1.88,1.88,0,0,0,1.51.66A1.9,1.9,0,0,0,27.49,20,2.45,2.45,0,0,0,28,18.34Zm-.95,0a.75.75,0,0,1-.33.67,1.52,1.52,0,0,1-1.54,0,.78.78,0,0,1-.33-.67.79.79,0,0,1,.33-.68,1.58,1.58,0,0,1,1.54,0A.77.77,0,0,1,27.07,18.34Z"/><path class="b7adf69c-9f64-4ca0-b698-7365d873a29a" d="M24,12.63l0,.23a1.69,1.69,0,0,0,0,.23,1.12,1.12,0,0,0,.22.72,1.5,1.5,0,0,0,.59.44v0H24v1.24h3.92V14.15H26.28a1.45,1.45,0,0,1-.91-.26.88.88,0,0,1-.32-.73v-.23a1.85,1.85,0,0,1,0-.23Z"/><path class="b7adf69c-9f64-4ca0-b698-7365d873a29a" d="M26.37,8.37h-.25a2.51,2.51,0,0,0-1.54.45,1.85,1.85,0,0,0-.66,1.54,2.13,2.13,0,0,0,.54,1.51,2,2,0,0,0,1.51.59,1.9,1.9,0,0,0,1.51-.66A2.4,2.4,0,0,0,28,10.18,3.68,3.68,0,0,0,28,9.43a3.88,3.88,0,0,0-.18-.69h-1a2.53,2.53,0,0,1,.23.61,2.41,2.41,0,0,1,.07.58,1.64,1.64,0,0,1-.17.8.76.76,0,0,1-.58.36ZM25.6,11.1a1,1,0,0,1-.58-.2.65.65,0,0,1-.24-.55A.67.67,0,0,1,25,9.77a.85.85,0,0,1,.58-.17Z"/><path class="b7adf69c-9f64-4ca0-b698-7365d873a29a" d="M28,53.16a2.82,2.82,0,0,1-.83,1.42,2.51,2.51,0,0,1-1.45.66,2.82,2.82,0,0,1-3-1.44,4.68,4.68,0,0,1-.4-2,6.68,6.68,0,0,1,.15-1.24l1.17.13s0,.1-.08.36a2.86,2.86,0,0,0-.1.77,2.23,2.23,0,0,0,.38,1.31,1.93,1.93,0,0,0,2.76,0A2.5,2.5,0,0,0,26.86,51l-.09-.36L28,50.5a6.21,6.21,0,0,1,.14,1.3A4.38,4.38,0,0,1,28,53.16Z"/></g></svg>