<svg xmlns="http://www.w3.org/2000/svg" xmlns:xlink="http://www.w3.org/1999/xlink" viewBox="0 0 470.33 67.41"><defs><style>.a0d61d8a-de60-4b64-8253-583259ab1fb9{stroke:#9def48;stroke-miterlimit:10;stroke-width:0.75px;fill:url(#a7a60ed5-e802-4f6c-918c-7a379e7b5a6f);}.be899573-01b7-43a4-b81a-24ee52f639cf{fill:#9def48;}.b1c608a4-34f6-40c6-8d64-ad381485e48a{fill:#e60012;}.b2ef5b26-cfd1-4f23-81e0-6cdaa0bdaee9{fill:#fff;}</style><linearGradient id="a7a60ed5-e802-4f6c-918c-7a379e7b5a6f" x1="0.38" y1="33.7" x2="469.96" y2="33.7" gradientUnits="userSpaceOnUse"><stop offset="0" stop-color="#032c02"/><stop offset="1" stop-color="#207a09"/></linearGradient></defs><g id="ad01db26-c7d8-4335-b649-fdd5fc3f827b" data-name="texte"><polygon class="a0d61d8a-de60-4b64-8253-583259ab1fb9" points="0.38 5.91 102.44 5.91 108.57 0.38 150.31 0.38 158.22 5.91 461.65 6.11 469.96 16 469.96 59.72 50.81 59.72 42.7 67.03 7.89 67.03 0.38 59.72 0.38 5.91"/><path class="be899573-01b7-43a4-b81a-24ee52f639cf" d="M84.1,30.25c.06.66.08,1.34.08,2A18.18,18.18,0,0,1,80,44.54H55.82a18.19,18.19,0,0,1-4.23-12.26A18.14,18.14,0,0,1,55.82,20H80a17.13,17.13,0,0,1,3.68,7.3H79.26a17.47,17.47,0,0,0-1.47-3.23H58a16.32,16.32,0,0,0-2.34,8.18A16.38,16.38,0,0,0,58,40.47H77.79A17.83,17.83,0,0,0,80,34.3H65.21v-4Z" transform="translate(-0.13 -0.13)"/><path class="be899573-01b7-43a4-b81a-24ee52f639cf" d="M94.4,37.72l-4.29,6.82H85L100.61,20h4.68l15.45,24.51h-5l-4.24-6.82Zm14.56-4-6-9.59-6,9.59Z" transform="translate(-0.13 -0.13)"/><path class="be899573-01b7-43a4-b81a-24ee52f639cf" d="M135.86,24.1H128a16.32,16.32,0,0,0-2.34,8.18A16.38,16.38,0,0,0,128,40.47h2.7v4.07h-4.88a18.19,18.19,0,0,1-4.23-12.26A18.14,18.14,0,0,1,125.82,20h10V16.19h4V20H150a18.13,18.13,0,0,1,4.22,12.25A18.18,18.18,0,0,1,150,44.54h-4.88V40.47h2.71a16.47,16.47,0,0,0,2.33-8.19,16.41,16.41,0,0,0-2.33-8.18h-7.88V38.63h-4Z" transform="translate(-0.13 -0.13)"/><path class="be899573-01b7-43a4-b81a-24ee52f639cf" d="M182.49,34.3H165.57a17.46,17.46,0,0,0,2.2,6.17H187.9l2.34,4.07H165.58a17.67,17.67,0,0,1-4.13-10.24H157.6v-4h3.85A17.59,17.59,0,0,1,165.58,20h24.66L187.9,24.1H167.77a17.3,17.3,0,0,0-2.2,6.15h16.92Z" transform="translate(-0.13 -0.13)"/><path class="be899573-01b7-43a4-b81a-24ee52f639cf" d="M227.94,30.25h12.24v4h-3.84a17.75,17.75,0,0,1-4.14,10.24H208.05a17.67,17.67,0,0,1-4.13-10.24l1.76-1V31.26l-1.76-1A17.62,17.62,0,0,1,208.05,20H232.2a17,17,0,0,1,3.67,7.3H231.5A19,19,0,0,0,230,24.1H210.22A17.67,17.67,0,0,0,208,30.25h13.83v4H208a17.83,17.83,0,0,0,2.19,6.17H230a17.49,17.49,0,0,0,2.21-6.17h-4.28Z" transform="translate(-0.13 -0.13)"/><path class="be899573-01b7-43a4-b81a-24ee52f639cf" d="M268.12,40.47V25.94h4.05V40.47h7.88a16.41,16.41,0,0,0,2.33-8.19,16.46,16.46,0,0,0-2.33-8.18h-2.72V20h4.89a18.22,18.22,0,0,1,4.22,12.25,18.19,18.19,0,0,1-4.22,12.26H272.17v3.84h-4.05V44.54H258.07a18.19,18.19,0,0,1-4.22-12.26A18.22,18.22,0,0,1,258.07,20H263V24.1h-2.7a16.37,16.37,0,0,0-2.34,8.18,16.33,16.33,0,0,0,2.34,8.19Z" transform="translate(-0.13 -0.13)"/><path class="be899573-01b7-43a4-b81a-24ee52f639cf" d="M296.66,37.72l-4.29,6.82H287.3L302.87,20h4.68L323,44.54h-5l-4.24-6.82Zm14.56-4-6-9.59-6,9.59Z" transform="translate(-0.13 -0.13)"/><path class="be899573-01b7-43a4-b81a-24ee52f639cf" d="M335.23,41.07l-4.06,4.07v-21h-13.3V20h30.66V24.1h-13.3Z" transform="translate(-0.13 -0.13)"/><path class="be899573-01b7-43a4-b81a-24ee52f639cf" d="M378.76,37.24h4.38a17.13,17.13,0,0,1-3.68,7.3H355.31a18.23,18.23,0,0,1-4.22-12.26A18.22,18.22,0,0,1,355.31,20h24.15a17.13,17.13,0,0,1,3.68,7.3h-4.38a17.47,17.47,0,0,0-1.47-3.23H357.5a16.32,16.32,0,0,0-2.34,8.18,16.38,16.38,0,0,0,2.34,8.19h19.79A18.09,18.09,0,0,0,378.76,37.24Z" transform="translate(-0.13 -0.13)"/><path class="be899573-01b7-43a4-b81a-24ee52f639cf" d="M390.76,34.3a17.46,17.46,0,0,0,2.2,6.17h2.7v4.07h-4.88a18.19,18.19,0,0,1-4.23-12.26A18.14,18.14,0,0,1,390.78,20h4.88V24.1H393a17.3,17.3,0,0,0-2.2,6.15h24.18a17.47,17.47,0,0,0-2.19-6.15H410V20h4.88a18.13,18.13,0,0,1,4.22,12.25,18.18,18.18,0,0,1-4.22,12.26H410V40.47h2.71a17.63,17.63,0,0,0,2.19-6.17Z" transform="translate(-0.13 -0.13)"/></g><g id="a26477a4-1831-4527-881d-6dbff2f49621" data-name="nintendo"><path class="b1c608a4-34f6-40c6-8d64-ad381485e48a" d="M25.59,23.22A2.08,2.08,0,0,0,27.48,21a2.08,2.08,0,0,0-1.89-2.22A2.08,2.08,0,0,0,23.7,21,2.08,2.08,0,0,0,25.59,23.22Zm-.72-2.83H26.3c.53,0,.75.32.75.62s-.22.62-.75.62H24.87c-.53,0-.75-.32-.75-.62S24.34,20.39,24.87,20.39Z" transform="translate(-0.13 -0.13)"/><path class="b1c608a4-34f6-40c6-8d64-ad381485e48a" d="M23.8,26.07A1.82,1.82,0,0,0,25.56,28a1.77,1.77,0,0,0,1.66-1,1.84,1.84,0,0,0-.12-1.75h.19v-1.5H22.24v1.5H24.1A2,2,0,0,0,23.8,26.07ZM25,25.2h1.19a.6.6,0,1,1,0,1.19H25a.6.6,0,1,1,0-1.19Z" transform="translate(-0.13 -0.13)"/><polygon class="b2ef5b26-cfd1-4f23-81e0-6cdaa0bdaee9" points="39.05 19.13 39.05 19.13 39.05 19.13 39.05 19.13"/><polygon class="b1c608a4-34f6-40c6-8d64-ad381485e48a" points="23.82 38.35 23.82 37.52 23.32 37.52 23.32 38.35 22.64 38.35 22.64 39.87 23.32 39.86 23.32 40.69 23.82 40.69 23.82 39.87 27.17 39.87 27.17 38.34 23.82 38.35"/><path class="b1c608a4-34f6-40c6-8d64-ad381485e48a" d="M26.12,33.46V35h.2c.61,0,.75.41.75.63a.66.66,0,0,1-.75.64h-.69V33.37a2.27,2.27,0,0,0,0,4.48,2.08,2.08,0,0,0,1.88-2.24A2.21,2.21,0,0,0,26.12,33.46Zm-1,2.77a1.13,1.13,0,0,1-.65-.1.6.6,0,0,1-.31-.53h0a.6.6,0,0,1,.31-.53,1.22,1.22,0,0,1,.65-.1Z" transform="translate(-0.13 -0.13)"/><rect class="b1c608a4-34f6-40c6-8d64-ad381485e48a" x="23.81" y="45.97" width="3.36" height="1.52"/><path class="b1c608a4-34f6-40c6-8d64-ad381485e48a" d="M25.08,30h2.21V28.48H25.46a1.64,1.64,0,0,0-1.68,1.72h0a1.84,1.84,0,0,0,.5,1.21h-.35v1.5h3.36v-1.5H25.08a.7.7,0,0,1-.61-.72A.67.67,0,0,1,25.08,30Z" transform="translate(-0.13 -0.13)"/><path class="b1c608a4-34f6-40c6-8d64-ad381485e48a" d="M24.78,14.57a5.39,5.39,0,0,0-5.37,5.69V52.42a5.37,5.37,0,1,0,10.73,0V20.26A5.38,5.38,0,0,0,24.78,14.57Zm4,37.83a4.06,4.06,0,1,1-8.09,0V20.27a4.06,4.06,0,1,1,8.09,0Z" transform="translate(-0.13 -0.13)"/><path class="b1c608a4-34f6-40c6-8d64-ad381485e48a" d="M25.08,42.33h2.21V40.82H25.46a1.64,1.64,0,0,0-1.68,1.72h0a1.84,1.84,0,0,0,.5,1.21h-.35v1.5h3.36v-1.5H25.08a.7.7,0,0,1-.61-.72A.67.67,0,0,1,25.08,42.33Z" transform="translate(-0.13 -0.13)"/><rect class="b1c608a4-34f6-40c6-8d64-ad381485e48a" x="22.12" y="45.97" width="1.03" height="1.52"/><polygon class="b1c608a4-34f6-40c6-8d64-ad381485e48a" points="22.12 49.91 25.64 49.91 22.12 52.09 22.12 53.66 27.17 53.66 27.17 52.1 23.64 52.1 27.17 49.91 27.17 48.35 22.12 48.35 22.12 49.91"/></g></svg>