<svg id="ee442735-9071-4328-bddd-cdf35a17f8f5" data-name="texte" xmlns="http://www.w3.org/2000/svg" xmlns:xlink="http://www.w3.org/1999/xlink" viewBox="0 0 470.33 67.41"><defs><style>.bdae8784-9db0-40c4-a7ce-63102917df86{stroke:#9def48;stroke-miterlimit:10;stroke-width:0.75px;fill:url(#e8e2f11e-6236-42f6-a6b1-0453ae75bf3b);}.ac5aa4fe-3d86-4ccc-9086-873903e3d9c3{fill:#9def48;}</style><linearGradient id="e8e2f11e-6236-42f6-a6b1-0453ae75bf3b" x1="0.38" y1="33.7" x2="469.96" y2="33.7" gradientUnits="userSpaceOnUse"><stop offset="0" stop-color="#032c02"/><stop offset="1" stop-color="#207a09"/></linearGradient></defs><polygon class="bdae8784-9db0-40c4-a7ce-63102917df86" points="0.38 5.91 102.44 5.91 108.57 0.38 150.31 0.38 158.22 5.91 461.65 6.11 469.96 16 469.96 59.72 50.81 59.72 42.7 67.03 7.89 67.03 0.38 59.72 0.38 5.91"/><path class="ac5aa4fe-3d86-4ccc-9086-873903e3d9c3" d="M74.29,39.67h2.33a15.23,15.23,0,0,0,1.87-5.29H57.77a14.88,14.88,0,0,0,1.89,5.29H62v3.48H57.78a15.07,15.07,0,0,1-3.54-8.77h-3.3V30.91h3.3a15,15,0,0,1,3.54-8.76h20.7A15,15,0,0,1,82,30.92l-1.51.85v1.76l1.51.85a15.07,15.07,0,0,1-3.54,8.77H74.29ZM57.77,30.91H78.49a15.11,15.11,0,0,0-1.87-5.28h-17A14.77,14.77,0,0,0,57.77,30.91Z" transform="translate(-0.06 -0.03)"/><path class="ac5aa4fe-3d86-4ccc-9086-873903e3d9c3" d="M114.53,34.38H91.78a14.88,14.88,0,0,0,1.89,5.29H96v3.48H91.79a15.07,15.07,0,0,1-3.54-8.77H85V30.91h3.3a15,15,0,0,1,3.54-8.76h20.7a15.57,15.57,0,0,1,3.62,10.5ZM91.78,30.91h20.73a15.13,15.13,0,0,0-1.88-5.28h-17A14.77,14.77,0,0,0,91.78,30.91Z" transform="translate(-0.06 -0.03)"/><path class="ac5aa4fe-3d86-4ccc-9086-873903e3d9c3" d="M146.83,30.91c0,.56.07,1.14.07,1.74a15.55,15.55,0,0,1-3.62,10.5h-20.7A15.6,15.6,0,0,1,119,32.65a15.56,15.56,0,0,1,3.61-10.5h20.7a14.47,14.47,0,0,1,3.15,6.25h-3.75a15.13,15.13,0,0,0-1.26-2.77h-17a14,14,0,0,0-2,7,14.08,14.08,0,0,0,2,7h17a15.25,15.25,0,0,0,1.88-5.29H130.64V30.91Z" transform="translate(-0.06 -0.03)"/></svg>