<svg id="bf3fbaa6-17e0-4c5a-8d56-49ea3dec32fb" data-name="texte" xmlns="http://www.w3.org/2000/svg" xmlns:xlink="http://www.w3.org/1999/xlink" viewBox="0 0 470.33 67.41"><defs><style>.ea8ae13a-9aa8-4206-8197-0b56143d5d86{stroke:#9def48;stroke-miterlimit:10;stroke-width:0.75px;fill:url(#e9aab586-7770-4518-be0a-1c2ad57b2280);}.ea781ae8-ede8-4d08-a856-5b632bc2fe7e{fill:#9def48;}</style><linearGradient id="e9aab586-7770-4518-be0a-1c2ad57b2280" x1="0.38" y1="33.7" x2="469.96" y2="33.7" gradientUnits="userSpaceOnUse"><stop offset="0" stop-color="#032c02"/><stop offset="1" stop-color="#207a09"/></linearGradient></defs><polygon class="ea8ae13a-9aa8-4206-8197-0b56143d5d86" points="0.38 5.91 102.44 5.91 108.57 0.38 150.31 0.38 158.22 5.91 461.65 6.11 469.96 16 469.96 59.72 50.81 59.72 42.7 67.03 7.89 67.03 0.38 59.72 0.38 5.91"/><path class="ea781ae8-ede8-4d08-a856-5b632bc2fe7e" d="M79.26,37.77h4.38A17.13,17.13,0,0,1,80,45.07H55.81a18.25,18.25,0,0,1-4.22-12.26,18.22,18.22,0,0,1,4.22-12.25H80a17.13,17.13,0,0,1,3.68,7.3H79.26a17.18,17.18,0,0,0-1.47-3.23H58a16.32,16.32,0,0,0-2.34,8.18A16.41,16.41,0,0,0,58,41H77.79A18.09,18.09,0,0,0,79.26,37.77Z" transform="translate(-0.13 -0.13)"/><path class="ea781ae8-ede8-4d08-a856-5b632bc2fe7e" d="M93.86,38.25l-4.29,6.82H84.49l15.57-24.51h4.68l15.45,24.51h-5L111,38.25Zm14.56-4-6-9.59-6,9.59Z" transform="translate(-0.13 -0.13)"/><path class="ea781ae8-ede8-4d08-a856-5b632bc2fe7e" d="M149.91,20.56,134.45,45.07h-4.69L114.21,20.56h5.08L132.16,41,144.9,20.56Z" transform="translate(-0.13 -0.13)"/><path class="ea781ae8-ede8-4d08-a856-5b632bc2fe7e" d="M173.09,34.83H156.17a17.46,17.46,0,0,0,2.2,6.17H178.5l2.34,4.07H156.18a17.67,17.67,0,0,1-4.13-10.24H148.2v-4h3.85a17.56,17.56,0,0,1,4.13-10.22h24.66l-2.34,4.07H158.37a17.3,17.3,0,0,0-2.2,6.15h16.92Z" transform="translate(-0.13 -0.13)"/><path class="ea781ae8-ede8-4d08-a856-5b632bc2fe7e" d="M213.3,30.78l1.84,2a18.16,18.16,0,0,1-4.22,12.26H186.77a17.11,17.11,0,0,1-3.67-7.3h4.37A19.83,19.83,0,0,0,189,41h19.79a17.11,17.11,0,0,0,2.19-6.17H184.4l-1.85-2a18.22,18.22,0,0,1,4.22-12.25h24.15a17.13,17.13,0,0,1,3.68,7.3h-4.38a17.18,17.18,0,0,0-1.47-3.23H189a17.3,17.3,0,0,0-2.2,6.15Z" transform="translate(-0.13 -0.13)"/><path class="ea781ae8-ede8-4d08-a856-5b632bc2fe7e" d="M235.07,41.6,231,45.66v-21H217.71V20.56h30.66v4.07h-13.3Z" transform="translate(-0.13 -0.13)"/><path class="ea781ae8-ede8-4d08-a856-5b632bc2fe7e" d="M279.3,45.07H255.15a18.25,18.25,0,0,1-4.22-12.26,18.17,18.17,0,0,1,4.22-12.25H279.3a18.17,18.17,0,0,1,4.22,12.25A18.25,18.25,0,0,1,279.3,45.07ZM277.13,41a16.48,16.48,0,0,0,2.32-8.19,16.39,16.39,0,0,0-2.32-8.18H257.34A16.32,16.32,0,0,0,255,32.81,16.41,16.41,0,0,0,257.34,41Z" transform="translate(-0.13 -0.13)"/><path class="ea781ae8-ede8-4d08-a856-5b632bc2fe7e" d="M314.18,41h2.72a17.6,17.6,0,0,0,2.18-6.17H294.9A17.49,17.49,0,0,0,297.11,41h2.7v4.07h-4.89a17.68,17.68,0,0,1-4.14-10.24h-3.84v-4h3.84a17.57,17.57,0,0,1,4.14-10.22h24.15A17.59,17.59,0,0,1,323.2,30.8l-1.76,1v2.05l1.76,1a17.67,17.67,0,0,1-4.13,10.24h-4.89ZM294.9,30.78h24.18a17.44,17.44,0,0,0-2.18-6.15H297.11A17.33,17.33,0,0,0,294.9,30.78Z" transform="translate(-0.13 -0.13)"/><path class="ea781ae8-ede8-4d08-a856-5b632bc2fe7e" d="M328.47,34.83l-1.85-2a18.22,18.22,0,0,1,4.22-12.25h4.89v4.07H333a17.3,17.3,0,0,0-2.2,6.15H355a17.67,17.67,0,0,0-2.19-6.15H350.1V20.56H355a18.22,18.22,0,0,1,4.22,12.25A18.21,18.21,0,0,1,355,45.07H330.84a17.11,17.11,0,0,1-3.67-7.3h4.37A19,19,0,0,0,333,41h19.79A17.3,17.3,0,0,0,355,34.83Z" transform="translate(-0.13 -0.13)"/></svg>