<svg id="fb6b8e4b-3776-4f8b-ac26-7c042d0b0ef6" data-name="texte" xmlns="http://www.w3.org/2000/svg" xmlns:xlink="http://www.w3.org/1999/xlink" viewBox="0 0 470.33 67.41"><defs><style>.ba66327e-c2ef-4f5b-ac80-be941cc96ed2{stroke:#9def48;stroke-miterlimit:10;stroke-width:0.75px;fill:url(#a03f0098-1396-4ef2-b5f4-f1a26cdc5706);}.aa94d168-7274-4d68-9e58-9c8daba6f3f9{fill:#9def48;}</style><linearGradient id="a03f0098-1396-4ef2-b5f4-f1a26cdc5706" x1="0.38" y1="33.7" x2="469.96" y2="33.7" gradientUnits="userSpaceOnUse"><stop offset="0" stop-color="#032c02"/><stop offset="1" stop-color="#207a09"/></linearGradient></defs><polygon class="ba66327e-c2ef-4f5b-ac80-be941cc96ed2" points="0.38 5.91 102.44 5.91 108.57 0.38 150.31 0.38 158.22 5.91 461.65 6.11 469.96 16 469.96 59.72 50.81 59.72 42.7 67.03 7.89 67.03 0.38 59.72 0.38 5.91"/><path class="aa94d168-7274-4d68-9e58-9c8daba6f3f9" d="M57.22,44.54H53.27V24.1l3.95-4Z" transform="translate(-0.06 -0.03)"/><path class="aa94d168-7274-4d68-9e58-9c8daba6f3f9" d="M97.43,34.59a17.11,17.11,0,0,1-4,9.95H70a17.11,17.11,0,0,1-4-9.95H62.2V30.66h3.74a17,17,0,0,1,4-9.93H93.41a17,17,0,0,1,4,10l-1.71,1v2ZM69.94,30.66H93.43a17.28,17.28,0,0,0-2.12-6H72.08A16.93,16.93,0,0,0,69.94,30.66Zm0,3.93a17.1,17.1,0,0,0,2.14,6H91.31a17.45,17.45,0,0,0,2.12-6Z" transform="translate(-0.06 -0.03)"/><path class="aa94d168-7274-4d68-9e58-9c8daba6f3f9" d="M114.61,24.68H107a15.86,15.86,0,0,0-2.28,8,15.92,15.92,0,0,0,2.28,8h2.62v3.95h-4.75a17.72,17.72,0,0,1-4.1-11.91,17.67,17.67,0,0,1,4.1-11.9h9.76V17h3.94v3.73h9.76a17.67,17.67,0,0,1,4.1,11.9,17.72,17.72,0,0,1-4.1,11.91h-4.75V40.59h2.64a16,16,0,0,0,2.26-8,15.93,15.93,0,0,0-2.26-8h-7.65V38.79h-3.94Z" transform="translate(-0.06 -0.03)"/></svg>