<svg id="acd8197b-2f69-4092-a094-8bbfafabcd0e" data-name="texte" xmlns="http://www.w3.org/2000/svg" xmlns:xlink="http://www.w3.org/1999/xlink" viewBox="0 0 470.33 67.41"><defs><style>.b9450864-2e37-45b3-b5d2-eef9411b2d5d{stroke:#9def48;stroke-miterlimit:10;stroke-width:0.75px;fill:url(#f00282ca-d6da-4c5b-8b45-ce72496807f0);}.a6d173c3-97ea-4632-bcdc-f73adb28b29d{fill:#9def48;}</style><linearGradient id="f00282ca-d6da-4c5b-8b45-ce72496807f0" x1="0.38" y1="33.7" x2="469.96" y2="33.7" gradientUnits="userSpaceOnUse"><stop offset="0" stop-color="#032c02"/><stop offset="1" stop-color="#207a09"/></linearGradient></defs><polygon class="b9450864-2e37-45b3-b5d2-eef9411b2d5d" points="0.38 5.91 102.44 5.91 108.57 0.38 150.31 0.38 158.22 5.91 461.65 6.11 469.96 16 469.96 59.72 50.81 59.72 42.7 67.03 7.89 67.03 0.38 59.72 0.38 5.91"/><path class="a6d173c3-97ea-4632-bcdc-f73adb28b29d" d="M77.29,30.78l1.58,1.74A15.56,15.56,0,0,1,75.26,43H54.56a14.7,14.7,0,0,1-3.15-6.25h3.75a17.05,17.05,0,0,0,1.27,2.77h17a14.7,14.7,0,0,0,1.87-5.29H52.52l-1.58-1.73A15.6,15.6,0,0,1,54.56,22h20.7a14.7,14.7,0,0,1,3.15,6.25H74.66A16.61,16.61,0,0,0,73.4,25.5h-17a15.16,15.16,0,0,0-1.89,5.28Z" transform="translate(-0.06 -0.03)"/><path class="a6d173c3-97ea-4632-bcdc-f73adb28b29d" d="M105.52,36.77h3.75A14.7,14.7,0,0,1,106.12,43H85.42a15.6,15.6,0,0,1-3.62-10.5A15.6,15.6,0,0,1,85.42,22h20.7a14.7,14.7,0,0,1,3.15,6.25h-3.75a15.13,15.13,0,0,0-1.26-2.77h-17a14,14,0,0,0-2,7,14.08,14.08,0,0,0,2,7h17A16.1,16.1,0,0,0,105.52,36.77Z" transform="translate(-0.06 -0.03)"/><path class="a6d173c3-97ea-4632-bcdc-f73adb28b29d" d="M117.15,43h-3.49V25l3.49-3.49Z" transform="translate(-0.06 -0.03)"/><path class="a6d173c3-97ea-4632-bcdc-f73adb28b29d" d="M142.87,34.25h-14.5a15.28,15.28,0,0,0,1.89,5.29h17.26l2,3.48H128.39a15.08,15.08,0,0,1-3.55-8.77h-3.29V30.78h3.29A15,15,0,0,1,128.39,22h21.13l-2,3.48H130.26a15.16,15.16,0,0,0-1.89,5.28h14.5Z" transform="translate(-0.06 -0.03)"/><path class="a6d173c3-97ea-4632-bcdc-f73adb28b29d" d="M156.48,25.5a14,14,0,0,0-2,7,14.06,14.06,0,0,0,2,7h2.32V43h-4.19A15.6,15.6,0,0,1,151,32.52,15.57,15.57,0,0,1,154.61,22h20.7a15.56,15.56,0,0,1,3.61,10.5A15.6,15.6,0,0,1,175.31,43h-4.19V39.54h2.33a14.25,14.25,0,0,0,2-7,14.17,14.17,0,0,0-2-7Z" transform="translate(-0.06 -0.03)"/><path class="a6d173c3-97ea-4632-bcdc-f73adb28b29d" d="M205.57,36.77h3.75A14.7,14.7,0,0,1,206.17,43h-20.7a15.6,15.6,0,0,1-3.62-10.5A15.6,15.6,0,0,1,185.47,22h20.7a14.7,14.7,0,0,1,3.15,6.25h-3.75a15.13,15.13,0,0,0-1.26-2.77h-17a14,14,0,0,0-2,7,14.08,14.08,0,0,0,2,7h17A16.1,16.1,0,0,0,205.57,36.77Z" transform="translate(-0.06 -0.03)"/><path class="a6d173c3-97ea-4632-bcdc-f73adb28b29d" d="M232.11,34.25h-14.5a14.88,14.88,0,0,0,1.89,5.29h17.26l2,3.48H217.63a15,15,0,0,1-3.55-8.77h-3.3V30.78h3.3A15,15,0,0,1,217.63,22h21.13l-2,3.48H219.5a14.77,14.77,0,0,0-1.89,5.28h14.5Z" transform="translate(-0.06 -0.03)"/><path class="a6d173c3-97ea-4632-bcdc-f73adb28b29d" d="M261.51,43h-4.19a15.07,15.07,0,0,1-3.54-8.77h-3.3V30.78h3.3A15,15,0,0,1,257.32,22h21.14l-2,3.48H259.2a14.77,14.77,0,0,0-1.89,5.28h14.5v3.47h-14.5a14.88,14.88,0,0,0,1.89,5.29h2.31Z" transform="translate(-0.06 -0.03)"/><path class="a6d173c3-97ea-4632-bcdc-f73adb28b29d" d="M284.88,43h-3.49V25l3.49-3.49Z" transform="translate(-0.06 -0.03)"/><path class="a6d173c3-97ea-4632-bcdc-f73adb28b29d" d="M313,36.77h3.75A14.7,14.7,0,0,1,313.59,43h-20.7a15.6,15.6,0,0,1-3.62-10.5A15.6,15.6,0,0,1,292.89,22h20.7a14.7,14.7,0,0,1,3.15,6.25H313a16.61,16.61,0,0,0-1.26-2.77h-17a14.08,14.08,0,0,0-2,7,14.16,14.16,0,0,0,2,7h17A17.79,17.79,0,0,0,313,36.77Z" transform="translate(-0.06 -0.03)"/><path class="a6d173c3-97ea-4632-bcdc-f73adb28b29d" d="M333.82,40.05l-3.49,3.48v-18h-11.4V22h26.28V25.5H333.82Z" transform="translate(-0.06 -0.03)"/><path class="a6d173c3-97ea-4632-bcdc-f73adb28b29d" d="M353.09,43h-3.48V25l3.48-3.49Z" transform="translate(-0.06 -0.03)"/><path class="a6d173c3-97ea-4632-bcdc-f73adb28b29d" d="M381.8,43H361.11a15.55,15.55,0,0,1-3.62-10.5A15.52,15.52,0,0,1,361.11,22H381.8a15.52,15.52,0,0,1,3.62,10.5A15.55,15.55,0,0,1,381.8,43Zm-1.86-3.48a14.16,14.16,0,0,0,2-7,14.08,14.08,0,0,0-2-7H363a14,14,0,0,0-2,7,14.08,14.08,0,0,0,2,7Z" transform="translate(-0.06 -0.03)"/><path class="a6d173c3-97ea-4632-bcdc-f73adb28b29d" d="M393.85,25.5a14,14,0,0,0-2,7,14.08,14.08,0,0,0,2,7h2.31V43H392a15.6,15.6,0,0,1-3.62-10.5A15.57,15.57,0,0,1,392,22h20.7a15.57,15.57,0,0,1,3.62,10.5A15.6,15.6,0,0,1,412.67,43h-4.19V39.54h2.33a14.15,14.15,0,0,0,2-7,14.06,14.06,0,0,0-2-7Z" transform="translate(-0.06 -0.03)"/></svg>