<svg id="b03c2195-8cee-44c8-9a89-71e32fc51f6d" data-name="texte" xmlns="http://www.w3.org/2000/svg" xmlns:xlink="http://www.w3.org/1999/xlink" viewBox="0 0 470.33 67.41"><defs><style>.af301eac-9042-4819-a923-a47f1991bd13{stroke:#9def48;stroke-miterlimit:10;stroke-width:0.75px;fill:url(#f6a19c23-8c08-45d3-a2ca-18db32a72b2a);}.a702b92a-ef29-489e-bdb7-c9b966a8a2b3{fill:#9def48;}</style><linearGradient id="f6a19c23-8c08-45d3-a2ca-18db32a72b2a" x1="0.38" y1="33.7" x2="469.96" y2="33.7" gradientUnits="userSpaceOnUse"><stop offset="0" stop-color="#032c02"/><stop offset="1" stop-color="#207a09"/></linearGradient></defs><polygon class="af301eac-9042-4819-a923-a47f1991bd13" points="0.38 5.91 102.44 5.91 108.57 0.38 150.31 0.38 158.22 5.91 461.65 6.11 469.96 16 469.96 59.72 50.81 59.72 42.7 67.03 7.89 67.03 0.38 59.72 0.38 5.91"/><path class="a702b92a-ef29-489e-bdb7-c9b966a8a2b3" d="M76.48,34.83H59.56A17.46,17.46,0,0,0,61.76,41H81.89l2.35,4.07H59.57a17.67,17.67,0,0,1-4.13-10.24H51.59v-4h3.85a17.56,17.56,0,0,1,4.13-10.22H84.24l-2.35,4.07H61.76a17.3,17.3,0,0,0-2.2,6.15H76.48Z" transform="translate(-0.13 -0.13)"/><path class="a702b92a-ef29-489e-bdb7-c9b966a8a2b3" d="M96.16,38.25l-4.29,6.82H86.8l15.57-24.51h4.68L122.5,45.07h-5l-4.24-6.82Zm14.56-4-6-9.59-6,9.59Z" transform="translate(-0.13 -0.13)"/><path class="a702b92a-ef29-489e-bdb7-c9b966a8a2b3" d="M154.1,30.78l1.84,2a18.16,18.16,0,0,1-4.22,12.26H127.58a17,17,0,0,1-3.68-7.3h4.38A19,19,0,0,0,129.76,41h19.79a17.11,17.11,0,0,0,2.19-6.17H125.2l-1.85-2a18.18,18.18,0,0,1,4.23-12.25h24.14a17.13,17.13,0,0,1,3.68,7.3H151a17.18,17.18,0,0,0-1.47-3.23H129.76a17.3,17.3,0,0,0-2.2,6.15Z" transform="translate(-0.13 -0.13)"/><path class="a702b92a-ef29-489e-bdb7-c9b966a8a2b3" d="M161.21,34.83l-1.85-2a18.22,18.22,0,0,1,4.22-12.25h4.89v4.07h-2.7a17.3,17.3,0,0,0-2.2,6.15h24.18a17.67,17.67,0,0,0-2.19-6.15h-2.72V20.56h4.89A18.17,18.17,0,0,1,192,32.81a18.16,18.16,0,0,1-4.22,12.26H163.58a17.11,17.11,0,0,1-3.67-7.3h4.37A19.83,19.83,0,0,0,165.77,41h19.79a17.3,17.3,0,0,0,2.19-6.17Z" transform="translate(-0.13 -0.13)"/><path class="a702b92a-ef29-489e-bdb7-c9b966a8a2b3" d="M232.87,41h2.71a17.83,17.83,0,0,0,2.19-6.17H213.59a17.46,17.46,0,0,0,2.2,6.17h2.7v4.07h-4.88a17.62,17.62,0,0,1-4.14-10.24h-3.85v-4h3.85a17.51,17.51,0,0,1,4.14-10.22h24.14a17.54,17.54,0,0,1,4.14,10.24l-1.76,1v2.05l1.76,1a17.62,17.62,0,0,1-4.14,10.24h-4.88ZM213.59,30.78h24.18a17.67,17.67,0,0,0-2.19-6.15H215.79A17.3,17.3,0,0,0,213.59,30.78Z" transform="translate(-0.13 -0.13)"/><path class="a702b92a-ef29-489e-bdb7-c9b966a8a2b3" d="M279.81,34.83H253.27A17.49,17.49,0,0,0,255.48,41h2.7v4.07h-4.89a17.62,17.62,0,0,1-4.14-10.24h-3.84v-4h3.84a17.51,17.51,0,0,1,4.14-10.22h24.15a18.17,18.17,0,0,1,4.22,12.25Zm-26.54-4h24.18a17.44,17.44,0,0,0-2.18-6.15H255.48A17.33,17.33,0,0,0,253.27,30.78Z" transform="translate(-0.13 -0.13)"/><path class="a702b92a-ef29-489e-bdb7-c9b966a8a2b3" d="M317.49,30.78c.06.66.09,1.34.09,2a18.25,18.25,0,0,1-4.22,12.26H289.21A18.25,18.25,0,0,1,285,32.81a18.17,18.17,0,0,1,4.22-12.25h24.15a17.11,17.11,0,0,1,3.67,7.3h-4.37a18.55,18.55,0,0,0-1.47-3.23H291.4a16.32,16.32,0,0,0-2.34,8.18A16.41,16.41,0,0,0,291.4,41h19.79a17.83,17.83,0,0,0,2.19-6.17H298.61v-4Z" transform="translate(-0.13 -0.13)"/></svg>