<svg xmlns="http://www.w3.org/2000/svg" xmlns:xlink="http://www.w3.org/1999/xlink" viewBox="0 0 470.33 67.41"><defs><style>.a34949e5-ab3d-43be-9e3a-a229632d4516{stroke:#9def48;stroke-miterlimit:10;stroke-width:0.75px;fill:url(#ede7bee0-e614-48e7-8c36-3e97eaba2ee6);}.afab8a89-b4bc-4a39-9d28-9ec5fe0a5d58{fill:#9def48;}.f3294036-6938-43d3-b954-1f7d1d06bcc3{fill:#0097e0;}.e1c47d98-d5a7-4bad-ac1d-35e3f6595d86{fill:#0096df;}</style><linearGradient id="ede7bee0-e614-48e7-8c36-3e97eaba2ee6" x1="0.38" y1="33.7" x2="469.96" y2="33.7" gradientUnits="userSpaceOnUse"><stop offset="0" stop-color="#032c02"/><stop offset="1" stop-color="#207a09"/></linearGradient></defs><g id="abdcbbab-0830-488d-8462-08574704b076" data-name="texte"><polygon class="a34949e5-ab3d-43be-9e3a-a229632d4516" points="0.38 5.91 102.44 5.91 108.57 0.38 150.31 0.38 158.22 5.91 461.65 6.11 469.96 16 469.96 59.72 50.81 59.72 42.7 67.03 7.89 67.03 0.38 59.72 0.38 5.91"/><path class="afab8a89-b4bc-4a39-9d28-9ec5fe0a5d58" d="M58,24.68a16,16,0,0,0-2.27,8,16,16,0,0,0,2.27,8h2.63v3.95H55.91a17.71,17.71,0,0,1-4.1-11.9,17.68,17.68,0,0,1,4.1-11.91H79.37a17.68,17.68,0,0,1,4.1,11.91,17.71,17.71,0,0,1-4.1,11.9H74.62V40.59h2.64a16.09,16.09,0,0,0,2.26-8,16,16,0,0,0-2.26-8Z" transform="translate(-0.06 -0.03)"/><path class="afab8a89-b4bc-4a39-9d28-9ec5fe0a5d58" d="M111,34.59H94.52a17.12,17.12,0,0,0,2.15,6h19.55l2.28,3.95h-24a17.18,17.18,0,0,1-4-9.95H86.79V30.66h3.73a17.09,17.09,0,0,1,4-9.93h24l-2.28,3.95H96.67a17,17,0,0,0-2.15,6H111Z" transform="translate(-0.06 -0.03)"/><path class="afab8a89-b4bc-4a39-9d28-9ec5fe0a5d58" d="M147.72,44.54H124.26a17.66,17.66,0,0,1-4.1-11.9,17.63,17.63,0,0,1,4.1-11.91h23.46a17.68,17.68,0,0,1,4.1,11.91A17.71,17.71,0,0,1,147.72,44.54Zm-2.11-3.95a16.09,16.09,0,0,0,2.26-8,16,16,0,0,0-2.26-8H126.38a16,16,0,0,0-2.27,8,16,16,0,0,0,2.27,8Z" transform="translate(-0.06 -0.03)"/><path class="afab8a89-b4bc-4a39-9d28-9ec5fe0a5d58" d="M196.67,30.66q.09,1,.09,2a17.71,17.71,0,0,1-4.1,11.9H169.2a17.66,17.66,0,0,1-4.1-11.9,17.63,17.63,0,0,1,4.1-11.91h23.46a16.6,16.6,0,0,1,3.57,7.09H192a17.86,17.86,0,0,0-1.43-3.14H171.32a16,16,0,0,0-2.27,8,16,16,0,0,0,2.27,8h19.23a17,17,0,0,0,2.12-6H178.33V30.66Z" transform="translate(-0.06 -0.03)"/><path class="afab8a89-b4bc-4a39-9d28-9ec5fe0a5d58" d="M224.25,34.59H207.81a17.12,17.12,0,0,0,2.15,6h19.55l2.28,3.95h-24a17.11,17.11,0,0,1-4-9.95h-3.73V30.66h3.73a17,17,0,0,1,4-9.93h24l-2.28,3.95H210a17,17,0,0,0-2.15,6h16.44Z" transform="translate(-0.06 -0.03)"/><path class="afab8a89-b4bc-4a39-9d28-9ec5fe0a5d58" d="M261,44.54H237.55a17.66,17.66,0,0,1-4.1-11.9,17.63,17.63,0,0,1,4.1-11.91H261a17.68,17.68,0,0,1,4.1,11.91A17.71,17.71,0,0,1,261,44.54Zm-2.11-3.95a16.07,16.07,0,0,0,2.25-8,16,16,0,0,0-2.25-8H239.67a16,16,0,0,0-2.27,8,16,16,0,0,0,2.27,8Z" transform="translate(-0.06 -0.03)"/><path class="afab8a89-b4bc-4a39-9d28-9ec5fe0a5d58" d="M305.27,37.45h4.25A16.72,16.72,0,0,1,306,44.54H282.49a17.66,17.66,0,0,1-4.1-11.9,17.67,17.67,0,0,1,4.1-11.91H306a16.72,16.72,0,0,1,3.57,7.09h-4.25a17.86,17.86,0,0,0-1.43-3.14H284.61a16,16,0,0,0-2.27,8,16,16,0,0,0,2.27,8h19.23A18.55,18.55,0,0,0,305.27,37.45Z" transform="translate(-0.06 -0.03)"/><path class="afab8a89-b4bc-4a39-9d28-9ec5fe0a5d58" d="M313.67,20.73H339.9A17.68,17.68,0,0,1,344,32.64a17.71,17.71,0,0,1-4.1,11.9H313.67Zm3.95,19.86h20.17a16.09,16.09,0,0,0,2.26-8,16,16,0,0,0-2.26-8H317.62Z" transform="translate(-0.06 -0.03)"/></g><g id="eccdbd0c-8799-49ae-86b9-ec55fa539f48" data-name="arcade"><g id="a1186c0a-d9ce-42b4-8ca6-74e2753e738e" data-name="snk"><path id="b180032c-d045-4ea4-8ba3-786ff572943a" data-name="S" class="f3294036-6938-43d3-b954-1f7d1d06bcc3" d="M22.94,64.9c2.22,0,4-1.48,4-3.31V52.37a.47.47,0,0,1,.5-.42.45.45,0,0,1,.49.42V64.94h3.57v-14c0-1.84-1.84-3.32-4.06-3.32s-4.06,1.48-4.06,3.32v9.18a.47.47,0,0,1-.5.42.44.44,0,0,1-.49-.42V47.61h-3.5v14c0,1.83,1.8,3.31,4,3.31Z" transform="translate(-0.06 -0.03)"/><polygon id="b7133521-deb3-4a4c-8ed1-acb83e20b522" data-name="N" class="f3294036-6938-43d3-b954-1f7d1d06bcc3" points="18.86 46.56 31.39 46.56 31.39 42.15 23.52 42.15 31.39 33.74 31.39 29.15 18.86 29.15 18.86 33.57 26.69 33.57 18.86 41.97 18.86 46.56"/><polygon id="bc18689b-e5d6-4a47-a6aa-394967577995" data-name="K" class="f3294036-6938-43d3-b954-1f7d1d06bcc3" points="24.36 23.72 18.86 23.72 18.86 28.2 31.39 28.2 31.39 23.72 25.84 23.72 31.39 16.59 31.39 10.83 25.14 18.95 18.86 10.83 18.86 16.59 24.36 23.72"/><path id="ee60efe7-247e-4b66-a416-7ba05e248627" data-name="mark" class="e1c47d98-d5a7-4bad-ac1d-35e3f6595d86" d="M19.3,8.64a1.29,1.29,0,0,0-.39.91,1.31,1.31,0,0,0,.39.92,1.28,1.28,0,0,0,1.84,0,1.31,1.31,0,0,0,.39-.92,1.33,1.33,0,0,0-1.31-1.3,1.34,1.34,0,0,0-.92.39Zm1.7.14a1.12,1.12,0,0,1,0,1.55,1.13,1.13,0,0,1-.78.32,1.06,1.06,0,0,1-.78-.32,1.09,1.09,0,0,1-.31-.78,1,1,0,0,1,.31-.77,1.11,1.11,0,0,1,1.56,0Z" transform="translate(-0.06 -0.03)"/><path id="ea33d12e-be38-4352-8eb2-abbe528e5b8a" data-name="R" class="e1c47d98-d5a7-4bad-ac1d-35e3f6595d86" d="M20,9h0a.4.4,0,0,0-.39.39v.74h1.31V9.87H20.4V9.41a.16.16,0,0,1,.14-.17l.32,0V9l-.32,0a.48.48,0,0,0-.25.11A.27.27,0,0,0,20,9Zm-.21.92V9.34A.17.17,0,0,1,20,9.16H20a.17.17,0,0,1,.18.18v.53Z" transform="translate(-0.06 -0.03)"/></g></g></svg>