<svg id="b83d2172-99e6-477b-98f0-97e2c2590e85" data-name="texte" xmlns="http://www.w3.org/2000/svg" xmlns:xlink="http://www.w3.org/1999/xlink" viewBox="0 0 470.33 67.41"><defs><style>.b64b92f6-40a9-41f9-b041-97fa1895de4c{stroke:#9def48;stroke-miterlimit:10;stroke-width:0.75px;fill:url(#aaeb5a01-240a-42ab-ae79-2abd568b9773);}.b11ce90b-12e0-4be0-97bd-1604dc396a95{fill:#9def48;}</style><linearGradient id="aaeb5a01-240a-42ab-ae79-2abd568b9773" x1="0.38" y1="33.7" x2="469.96" y2="33.7" gradientUnits="userSpaceOnUse"><stop offset="0" stop-color="#032c02"/><stop offset="1" stop-color="#207a09"/></linearGradient></defs><polygon class="b64b92f6-40a9-41f9-b041-97fa1895de4c" points="0.38 5.91 102.44 5.91 108.57 0.38 150.31 0.38 158.22 5.91 461.65 6.11 469.96 16 469.96 59.72 50.81 59.72 42.7 67.03 7.89 67.03 0.38 59.72 0.38 5.91"/><path class="b11ce90b-12e0-4be0-97bd-1604dc396a95" d="M62,43.21H57.78a15.07,15.07,0,0,1-3.54-8.77h-3.3V31h3.3a15,15,0,0,1,3.54-8.76H78.92l-2,3.48H59.66A14.77,14.77,0,0,0,57.77,31h14.5v3.47H57.77a14.88,14.88,0,0,0,1.89,5.29H62Z" transform="translate(-0.06 -0.03)"/><path class="b11ce90b-12e0-4be0-97bd-1604dc396a95" d="M85.33,39.73h15.8l2,3.48H81.85v-18l3.48-3.49Z" transform="translate(-0.06 -0.03)"/><path class="b11ce90b-12e0-4be0-97bd-1604dc396a95" d="M111,43.21h-3.48v-18L111,21.69Z" transform="translate(-0.06 -0.03)"/><path class="b11ce90b-12e0-4be0-97bd-1604dc396a95" d="M145,34.44H122.23a15.28,15.28,0,0,0,1.89,5.29h2.32v3.48h-4.19a15.15,15.15,0,0,1-3.55-8.77h-3.29V31h3.29a15.09,15.09,0,0,1,3.55-8.76H143a15.56,15.56,0,0,1,3.61,10.5ZM122.23,31H143a15.11,15.11,0,0,0-1.87-5.28h-17A15.16,15.16,0,0,0,122.23,31Z" transform="translate(-0.06 -0.03)"/><path class="b11ce90b-12e0-4be0-97bd-1604dc396a95" d="M179,34.44H156.25a14.88,14.88,0,0,0,1.89,5.29h2.31v3.48h-4.19a15.07,15.07,0,0,1-3.54-8.77h-3.3V31h3.3a15,15,0,0,1,3.54-8.76H177a15.57,15.57,0,0,1,3.62,10.5ZM156.25,31H177a14.91,14.91,0,0,0-1.87-5.28h-17A14.77,14.77,0,0,0,156.25,31Z" transform="translate(-0.06 -0.03)"/><path class="b11ce90b-12e0-4be0-97bd-1604dc396a95" d="M204.76,34.44h-14.5a14.88,14.88,0,0,0,1.89,5.29h17.26l2,3.48H190.28a15.08,15.08,0,0,1-3.55-8.77h-3.3V31h3.3a15,15,0,0,1,3.55-8.76h21.13l-2,3.48H192.15A14.77,14.77,0,0,0,190.26,31h14.5Z" transform="translate(-0.06 -0.03)"/><path class="b11ce90b-12e0-4be0-97bd-1604dc396a95" d="M234,39.73h2.33a15,15,0,0,0,1.87-5.29H217.51a14.88,14.88,0,0,0,1.89,5.29h2.31v3.48h-4.19A15.07,15.07,0,0,1,214,34.44h-3.3V31H214a15,15,0,0,1,3.54-8.76h20.7A15,15,0,0,1,241.76,31l-1.5.85v1.76l1.5.85a15.07,15.07,0,0,1-3.54,8.77H234ZM217.51,31h20.72a14.91,14.91,0,0,0-1.87-5.28h-17A14.77,14.77,0,0,0,217.51,31Z" transform="translate(-0.06 -0.03)"/></svg>