<svg id="a9b8eace-24eb-4e9a-ae42-0d310070ebb0" data-name="bae51f9f-9ab5-4723-91c1-5de94dc4635e" xmlns="http://www.w3.org/2000/svg" xmlns:xlink="http://www.w3.org/1999/xlink" viewBox="0 0 87.6 88.6"><defs><style>.a6793f67-0982-4829-a8b9-a32f6fda53fb,.a84015f6-b410-4edc-9903-d35b388fcc15{fill:#211c1d;}.afc4b8f8-7b94-458c-9e28-589d0f4c7c23{opacity:0.1;}.a96e79fe-a9d8-48f0-885b-3dda16a4736f{fill:#808094;}.b5f553c3-b852-4e39-a873-50dae691c868{fill:#6d6e6f;}.a7027e88-e73f-4af3-916d-34eee7d1ae49{fill:url(#e44eacab-89c5-4f56-9519-369bbf46f216);}.a6793f67-0982-4829-a8b9-a32f6fda53fb{opacity:0.3;}.a6793f67-0982-4829-a8b9-a32f6fda53fb,.b8f01d7e-f49f-47f6-8ff8-6c0cd4db9429,.e6504376-b763-44af-a2fc-47d6ba04d435{isolation:isolate;}.e6504376-b763-44af-a2fc-47d6ba04d435{opacity:0.15;fill:url(#b30e9021-81b0-4a82-9ef5-49ec4b634c6f);}.b8f01d7e-f49f-47f6-8ff8-6c0cd4db9429{opacity:0.4;fill:url(#ea07c4a0-9bb4-4169-a21a-9aaca4b09327);}.bac1c1e9-ca0d-4f30-9669-78c955c91e12{fill:#0c4199;}</style><linearGradient id="e44eacab-89c5-4f56-9519-369bbf46f216" x1="-747.89" y1="2455.81" x2="-768.82" y2="2434.88" gradientTransform="translate(802.18 -2401.52)" gradientUnits="userSpaceOnUse"><stop offset="0" stop-color="#a4a5a9"/><stop offset="1" stop-color="#e6e6e7"/></linearGradient><linearGradient id="b30e9021-81b0-4a82-9ef5-49ec4b634c6f" x1="-768.76" y1="2455.8" x2="-747.88" y2="2434.93" gradientTransform="translate(802.18 -2401.52)" gradientUnits="userSpaceOnUse"><stop offset="0" stop-color="#211c1d" stop-opacity="0"/><stop offset="0.04" stop-color="#211c1d" stop-opacity="0.09"/><stop offset="0.5" stop-color="#211c1d"/><stop offset="0.95" stop-color="#211c1d" stop-opacity="0.09"/><stop offset="1" stop-color="#211c1d" stop-opacity="0"/></linearGradient><linearGradient id="ea07c4a0-9bb4-4169-a21a-9aaca4b09327" x1="-5886.68" y1="-3866.42" x2="-5865.8" y2="-3887.31" gradientTransform="translate(-5832.48 -3833.03) rotate(180)" gradientUnits="userSpaceOnUse"><stop offset="0" stop-color="#fff" stop-opacity="0"/><stop offset="0.5" stop-color="#fff"/><stop offset="1" stop-color="#fff" stop-opacity="0"/></linearGradient></defs><circle class="a84015f6-b410-4edc-9903-d35b388fcc15" cx="43.8" cy="43.8" r="43.8"/><g class="afc4b8f8-7b94-458c-9e28-589d0f4c7c23"><path class="a96e79fe-a9d8-48f0-885b-3dda16a4736f" d="M84.4,43.8l-8.6-8.9v4.3H66v9.1h9.8v4.3ZM72.5,15.1l-12.4-.2L63.2,18l-7,7,6.4,6.4,7-7,3.1,3.1ZM43.8,3.2l-8.9,8.6h4.3v9.8h9.1V11.8h4.3ZM15.1,15.1l-.2,12.4L18,24.4l7,7L31.4,25l-7-7,3.1-3.1ZM3.2,43.8l8.6,8.9V48.4h9.8V39.3H11.8V35ZM15.1,72.5l12.4.2-3.1-3.1,7-7L25,56.2l-7,7-3.1-3.1ZM43.8,84.4l8.9-8.6H48.4V66H39.3v9.8H35ZM72.5,72.5l.2-12.4-3.1,3.1-7-7-6.4,6.4,7,7-3.1,3.1Z" transform="translate(0 0)"/></g><path class="b5f553c3-b852-4e39-a873-50dae691c868" d="M87.6,44.3A43.81,43.81,0,0,1,0,44.3v.5a43.8,43.8,0,0,0,87.6,0Z" transform="translate(0 0)"/><circle class="a7027e88-e73f-4af3-916d-34eee7d1ae49" cx="43.8" cy="43.8" r="14.8"/><circle class="a6793f67-0982-4829-a8b9-a32f6fda53fb" cx="43.8" cy="43.8" r="11.8"/><path class="e6504376-b763-44af-a2fc-47d6ba04d435" d="M43.8,29.1A14.75,14.75,0,1,0,58.6,43.9,14.75,14.75,0,0,0,43.8,29.1Zm-.2,28.7A14.15,14.15,0,1,1,57.8,43.7,14.16,14.16,0,0,1,43.6,57.8Z" transform="translate(0 0)"/><path class="b8f01d7e-f49f-47f6-8ff8-6c0cd4db9429" d="M43.8,58.6A14.75,14.75,0,1,0,29,43.9,14.75,14.75,0,0,0,43.8,58.6ZM44,29.9a14.1,14.1,0,0,1,0,28.2h0A14,14,0,0,1,29.9,44.2h0V44h0A14.08,14.08,0,0,1,44,29.9Z" transform="translate(0 0)"/><circle class="bac1c1e9-ca0d-4f30-9669-78c955c91e12" cx="43.6" cy="32.8" r="20.5"/></svg>