<svg id="fe4594f1-e45d-40d6-83bd-28c80825083b" data-name="bae51f9f-9ab5-4723-91c1-5de94dc4635e" xmlns="http://www.w3.org/2000/svg" xmlns:xlink="http://www.w3.org/1999/xlink" viewBox="0 0 87.6 88.6"><defs><style>.adbdaf65-70e3-470c-aa96-c6d42a85da7c,.e2428eb5-1c58-4b94-b184-3130e0f558f4{fill:#211c1d;}.b082764c-29e5-412a-88b6-bf8893262499{opacity:0.1;}.a176f637-b4e5-4c6f-aa3c-cf8ee6ecba6b{fill:#808094;}.a112aadd-7f08-419e-9164-8f22702c8b93{fill:#6d6e6f;}.b9dc01d8-b236-470a-a7d4-7cbd3cc188da{fill:url(#a6cb9a34-4738-412f-bc68-3b8a113f56b3);}.adbdaf65-70e3-470c-aa96-c6d42a85da7c{opacity:0.3;}.adbdaf65-70e3-470c-aa96-c6d42a85da7c,.ba698488-d1df-4c87-9924-576f68add402,.f9c9106c-4ae0-4ce6-af54-a2fd46a0504d{isolation:isolate;}.ba698488-d1df-4c87-9924-576f68add402{opacity:0.15;fill:url(#af4ba60d-e408-4772-b6f7-576cc2e9e33d);}.f9c9106c-4ae0-4ce6-af54-a2fd46a0504d{opacity:0.4;fill:url(#be052e42-470c-42e7-86e9-a23f5d5879b3);}.a61e2703-0133-4c76-af15-dbdedd3bb495{fill:#fff;}</style><linearGradient id="a6cb9a34-4738-412f-bc68-3b8a113f56b3" x1="-747.89" y1="2455.81" x2="-768.82" y2="2434.88" gradientTransform="translate(802.18 -2401.52)" gradientUnits="userSpaceOnUse"><stop offset="0" stop-color="#a4a5a9"/><stop offset="1" stop-color="#e6e6e7"/></linearGradient><linearGradient id="af4ba60d-e408-4772-b6f7-576cc2e9e33d" x1="-768.76" y1="2455.8" x2="-747.88" y2="2434.93" gradientTransform="translate(802.18 -2401.52)" gradientUnits="userSpaceOnUse"><stop offset="0" stop-color="#211c1d" stop-opacity="0"/><stop offset="0.04" stop-color="#211c1d" stop-opacity="0.09"/><stop offset="0.5" stop-color="#211c1d"/><stop offset="0.95" stop-color="#211c1d" stop-opacity="0.09"/><stop offset="1" stop-color="#211c1d" stop-opacity="0"/></linearGradient><linearGradient id="be052e42-470c-42e7-86e9-a23f5d5879b3" x1="-5886.68" y1="-3866.42" x2="-5865.8" y2="-3887.31" gradientTransform="translate(-5832.48 -3833.03) rotate(180)" gradientUnits="userSpaceOnUse"><stop offset="0" stop-color="#fff" stop-opacity="0"/><stop offset="0.5" stop-color="#fff"/><stop offset="1" stop-color="#fff" stop-opacity="0"/></linearGradient></defs><circle class="e2428eb5-1c58-4b94-b184-3130e0f558f4" cx="43.8" cy="43.8" r="43.8"/><g class="b082764c-29e5-412a-88b6-bf8893262499"><path class="a176f637-b4e5-4c6f-aa3c-cf8ee6ecba6b" d="M84.4,43.8l-8.6-8.9v4.3H66v9.1h9.8v4.3ZM72.5,15.1l-12.4-.2L63.2,18l-7,7,6.4,6.4,7-7,3.1,3.1ZM43.8,3.2l-8.9,8.6h4.3v9.8h9.1V11.8h4.3ZM15.1,15.1l-.2,12.4L18,24.4l7,7L31.4,25l-7-7,3.1-3.1ZM3.2,43.8l8.6,8.9V48.4h9.8V39.3H11.8V35ZM15.1,72.5l12.4.2-3.1-3.1,7-7L25,56.2l-7,7-3.1-3.1ZM43.8,84.4l8.9-8.6H48.4V66H39.3v9.8H35ZM72.5,72.5l.2-12.4-3.1,3.1-7-7-6.4,6.4,7,7-3.1,3.1Z" transform="translate(0 0)"/></g><path class="a112aadd-7f08-419e-9164-8f22702c8b93" d="M87.6,44.3A43.81,43.81,0,0,1,0,44.3v.5a43.8,43.8,0,0,0,87.6,0Z" transform="translate(0 0)"/><circle class="b9dc01d8-b236-470a-a7d4-7cbd3cc188da" cx="43.8" cy="43.8" r="14.8"/><circle class="adbdaf65-70e3-470c-aa96-c6d42a85da7c" cx="43.8" cy="43.8" r="11.8"/><path class="ba698488-d1df-4c87-9924-576f68add402" d="M43.8,29.1A14.75,14.75,0,1,0,58.6,43.9,14.75,14.75,0,0,0,43.8,29.1Zm-.2,28.7A14.15,14.15,0,1,1,57.8,43.7,14.16,14.16,0,0,1,43.6,57.8Z" transform="translate(0 0)"/><path class="f9c9106c-4ae0-4ce6-af54-a2fd46a0504d" d="M43.8,58.6A14.75,14.75,0,1,0,29,43.9,14.75,14.75,0,0,0,43.8,58.6ZM44,29.9a14.1,14.1,0,0,1,0,28.2h0A14,14,0,0,1,29.9,44.2h0V44h0A14.08,14.08,0,0,1,44,29.9Z" transform="translate(0 0)"/><circle class="a61e2703-0133-4c76-af15-dbdedd3bb495" cx="43.6" cy="32.8" r="20.5"/></svg>