<svg xmlns="http://www.w3.org/2000/svg" xmlns:xlink="http://www.w3.org/1999/xlink" viewBox="0 0 470.58 67.66"><defs><style>.a117764d-5bae-47aa-aef7-ed4f8e1c2011{stroke:#9def48;stroke-miterlimit:10;fill:url(#b6811353-e042-43f0-8307-8ecf67234e2a);}.f14495d6-1a1c-4d39-811a-00adf9ce474f{fill:#9def48;}.b548abd2-29f1-4c52-87c2-93ce8b2c5cfb{fill:#0c4199;}.be17d27c-2131-497c-8941-d66b94cb82f3{fill:#0c4299;}</style><linearGradient id="b6811353-e042-43f0-8307-8ecf67234e2a" x1="0.5" y1="33.83" x2="470.08" y2="33.83" gradientUnits="userSpaceOnUse"><stop offset="0" stop-color="#032c02"/><stop offset="1" stop-color="#207a09"/></linearGradient></defs><g id="b2eaac55-7a01-42cc-b9f8-f051a4a1e5ef" data-name="texte"><polygon class="a117764d-5bae-47aa-aef7-ed4f8e1c2011" points="0.5 6.04 102.57 6.04 108.7 0.5 150.44 0.5 158.35 6.04 461.77 6.24 470.08 16.13 470.08 59.84 50.94 59.84 42.83 67.16 8.02 67.16 0.5 59.84 0.5 6.04"/><path class="f14495d6-1a1c-4d39-811a-00adf9ce474f" d="M83.39,30.44l1.85,2A18.17,18.17,0,0,1,81,44.73H56.87a17.11,17.11,0,0,1-3.67-7.3h4.37a18.67,18.67,0,0,0,1.49,3.23H78.85A17.23,17.23,0,0,0,81,34.49H54.49l-1.84-2a18.25,18.25,0,0,1,4.22-12.26H81a17.11,17.11,0,0,1,3.67,7.3H80.32a18.89,18.89,0,0,0-1.47-3.23H59.06a17.33,17.33,0,0,0-2.21,6.15Z"/><path class="f14495d6-1a1c-4d39-811a-00adf9ce474f" d="M113.54,34.49H96.62a17.49,17.49,0,0,0,2.21,6.17H119l2.34,4.07H96.64A17.59,17.59,0,0,1,92.5,34.49H88.66V30.44H92.5a17.53,17.53,0,0,1,4.14-10.22H121.3L119,24.29H98.83a17.33,17.33,0,0,0-2.21,6.15h16.92Z"/><path class="f14495d6-1a1c-4d39-811a-00adf9ce474f" d="M142.08,41.26,138,45.33v-21H124.72V20.22h30.66v4.07h-13.3Z"/><path class="f14495d6-1a1c-4d39-811a-00adf9ce474f" d="M159.61,37.91l-4.28,6.82h-5.08l15.57-24.51h4.68L186,44.73h-5l-4.24-6.82Zm14.57-4-6-9.59-6,9.59Z"/></g><g id="bc87e31d-6c05-4c2c-98dd-076ec74231e9" data-name="e6d66376-64be-482f-9094-8609091b40cb"><path class="b548abd2-29f1-4c52-87c2-93ce8b2c5cfb" d="M31.55,65.26h-.38c0-.1-.11-.1-.18-.12a3.16,3.16,0,0,1-2.36-3.34V56.3a1.5,1.5,0,0,0-.3.48,6.83,6.83,0,0,1-6.94,4.33,7,7,0,0,1-6.58-6.55c-.07-3.58,0-7.17,0-10.76a3.56,3.56,0,0,1,3.55-3.44,3.38,3.38,0,0,1,3.42,3.55v5.67c.26-.55.44-1,.66-1.39a7.35,7.35,0,0,1,7-3.66,7.74,7.74,0,0,1,6.16,5.66c0,.17,0,.38.17.5v.38a.76.76,0,0,0-.1.55v10a.74.74,0,0,0,.1.54v.21a.45.45,0,0,0-.1.14,3.87,3.87,0,0,1-2.55,2.69s-.06.06-.08.1h-.38a1.48,1.48,0,0,0-1.13,0Zm4.23-38.93a6.86,6.86,0,0,1-1.22,1.81A3.53,3.53,0,0,1,32,29.2c-3.19,0-6.37,0-9.55,0-.43,0-.53.12-.51.53,0,1,0,1.95,0,2.92a3.57,3.57,0,1,1-7.14,0V18.9a3.41,3.41,0,0,1,3.41-3.56A3.45,3.45,0,0,1,22,18.86c0,1,0,1.93,0,2.88,0,.36.08.45.44.45,3.21,0,6.43,0,9.64,0a3.6,3.6,0,0,1,3.68,2.87c0,.06,0,.13.09.15Z"/><path class="be17d27c-2131-497c-8941-d66b94cb82f3" d="M35.78,41c-.25.35-.4.76-.69,1.1a2.68,2.68,0,0,1-2.08,1h-7.2a2.72,2.72,0,0,1-2.61-2.65c0-2.59,0-5.17,0-7.75a2.22,2.22,0,0,1,2.12-2.11,2.27,2.27,0,0,1,2.07,2.17v.84a2.2,2.2,0,0,1,4,0,3,3,0,0,0,.08-.92,2,2,0,0,1,1.34-1.87,1.86,1.86,0,0,1,2.17.38,4.07,4.07,0,0,1,.8,1.13Zm0-22.11a5.75,5.75,0,0,1-.42.77,2.55,2.55,0,0,1-2.23,1.16c-1.29-.05-2.58,0-3.86,0a5.94,5.94,0,0,1-5.56-3.7,5.88,5.88,0,0,1,1.07-6.56,5.45,5.45,0,0,1,4.14-1.93c1.55-.05,3.1,0,4.65,0a2.28,2.28,0,0,1,2.1,1.69c0,.1,0,.23.11.29v1.13a2.65,2.65,0,0,1-2.17,1.77c-.22,0-.18.17-.17.31a6.51,6.51,0,0,1,0,1.65c0,.25,0,.35.3.39a2.42,2.42,0,0,1,1.46.78,4.6,4.6,0,0,1,.58,1.15ZM30.6,14.7a3.24,3.24,0,0,0-.13-1.07c0-.18-.12-.4-.32-.42a1.82,1.82,0,0,0-1.64.38,1.5,1.5,0,0,0-.43,1.55,1.63,1.63,0,0,0,1.83,1.08c.46-.06.67-.45.69-1.32Zm5.18,47.44a.81.81,0,0,1-.09-.55v-10a.81.81,0,0,1,.09-.55Zm-4.23,3.12a1.47,1.47,0,0,1,1.13,0Z"/></g></svg>