<svg id="bf4e070a-adcd-4b6e-bcf7-327a2d375330" data-name="texte" xmlns="http://www.w3.org/2000/svg" xmlns:xlink="http://www.w3.org/1999/xlink" viewBox="0 0 470.33 67.41"><defs><style>.ef2619d2-b6fe-40c1-a795-93dd82013960{stroke:#9def48;stroke-miterlimit:10;stroke-width:0.75px;fill:url(#bef75f5d-3f83-4804-80af-b0c056451868);}.eba508a2-aff7-4fc6-a05a-3769fadbf4b0{fill:#9def48;}</style><linearGradient id="bef75f5d-3f83-4804-80af-b0c056451868" x1="0.38" y1="33.7" x2="469.96" y2="33.7" gradientUnits="userSpaceOnUse"><stop offset="0" stop-color="#032c02"/><stop offset="1" stop-color="#207a09"/></linearGradient></defs><polygon class="ef2619d2-b6fe-40c1-a795-93dd82013960" points="0.38 5.91 102.44 5.91 108.57 0.38 150.31 0.38 158.22 5.91 461.65 6.11 469.96 16 469.96 59.72 50.81 59.72 42.7 67.03 7.89 67.03 0.38 59.72 0.38 5.91"/><path class="eba508a2-aff7-4fc6-a05a-3769fadbf4b0" d="M57.67,39.87h15a13.6,13.6,0,0,0,1.92-6.78,13.65,13.65,0,0,0-1.92-6.78H70.4V22.94h4a15.08,15.08,0,0,1,3.49,10.15,15,15,0,0,1-3.49,10.15H55.85a15,15,0,0,1-3.49-10.15h3.37A13.42,13.42,0,0,0,57.67,39.87Z" transform="translate(-0.06 -0.03)"/><path class="eba508a2-aff7-4fc6-a05a-3769fadbf4b0" d="M94.31,31.41v3.35H80.78V31.41Z" transform="translate(-0.06 -0.03)"/><path class="eba508a2-aff7-4fc6-a05a-3769fadbf4b0" d="M119.72,39.87H122a14.75,14.75,0,0,0,1.81-5.11h-20a14.6,14.6,0,0,0,1.83,5.11h2.24v3.37h-4a14.58,14.58,0,0,1-3.43-8.48H97.14V31.41h3.19a14.52,14.52,0,0,1,3.43-8.47h20a14.54,14.54,0,0,1,3.42,8.48l-1.46.82v1.7l1.46.82a14.57,14.57,0,0,1-3.42,8.48h-4Zm-16-8.46h20a14.7,14.7,0,0,0-1.81-5.1h-16.4A14.55,14.55,0,0,0,103.74,31.41Z" transform="translate(-0.06 -0.03)"/><path class="eba508a2-aff7-4fc6-a05a-3769fadbf4b0" d="M158.61,34.76h-22a14.6,14.6,0,0,0,1.83,5.11h2.24v3.37h-4.05a14.58,14.58,0,0,1-3.43-8.48H130V31.41h3.19a14.52,14.52,0,0,1,3.43-8.47h20a15,15,0,0,1,3.49,10.15Zm-22-3.35h20a14.7,14.7,0,0,0-1.81-5.1h-16.4A14.55,14.55,0,0,0,136.62,31.41Z" transform="translate(-0.06 -0.03)"/><path class="eba508a2-aff7-4fc6-a05a-3769fadbf4b0" d="M189.84,31.41c0,.54.07,1.11.07,1.68a15.07,15.07,0,0,1-3.5,10.15h-20a15.07,15.07,0,0,1-3.5-10.15,15.05,15.05,0,0,1,3.5-10.15h20a14.19,14.19,0,0,1,3.05,6h-3.63a15.07,15.07,0,0,0-1.22-2.67H168.22a13.47,13.47,0,0,0-1.95,6.78,13.49,13.49,0,0,0,1.95,6.78h16.39a14.35,14.35,0,0,0,1.81-5.11H174.19V31.41Z" transform="translate(-0.06 -0.03)"/></svg>