<svg enable-background="new 0 0 685.366 504.878" height="172.05481" viewBox="0 0 233.5624 172.05481" width="233.56241" xmlns="http://www.w3.org/2000/svg" xmlns:xlink="http://www.w3.org/1999/xlink"><defs><clipPath id="a"><circle cx="80.448997" cy="288.46701" r="58.417"/></clipPath><clipPath id="b"><use height="100%" width="100%" xlink:href="#c"/></clipPath><path id="c" d="m62.033 224.716v45.25h-45.25v34.333h45.25v45.25h34.333v-45.25h45.25v-34.333h-45.25v-45.25z"/></defs><g transform="scale(.34078493)"><path d="m685.366 454.878c0 27.614-22.386 50-50 50h-585.366c-27.614 0-50-22.386-50-50v-254.878c0-27.614 22.386-50 50-50h585.366c27.614 0 50 22.386 50 50z" fill="#8d8d8d"/><path d="m152.439 150h378.04901v354.87799h-378.04901z" fill="#3d3d3d"/><path d="m569.366 248.717c-10.292 0-18.666-8.374-18.666-18.667s8.374-18.667 18.666-18.667c10.293 0 18.667 8.374 18.667 18.667s-8.374 18.667-18.667 18.667z" fill="#015c5d"/><path d="m569.366 213.384c9.19 0 16.667 7.477 16.667 16.667s-7.477 16.667-16.667 16.667c-9.189 0-16.666-7.477-16.666-16.667s7.476-16.667 16.666-16.667m0-4c-11.413 0-20.666 9.253-20.666 20.667s9.253 20.667 20.666 20.667c11.414 0 20.667-9.253 20.667-20.667s-9.253-20.667-20.667-20.667z" fill="#023a38"/><path d="m635.2 289.717c-13.143 0-23.834-10.691-23.834-23.833s10.691-23.833 23.834-23.833c13.142 0 23.833 10.692 23.833 23.833s-10.692 23.833-23.833 23.833z" fill="#333"/><path d="m635.2 244.05c12.039 0 21.833 9.794 21.833 21.833s-9.794 21.833-21.833 21.833-21.834-9.794-21.834-21.833 9.795-21.833 21.834-21.833m0-4c-14.268 0-25.834 11.566-25.834 25.833s11.566 25.833 25.834 25.833c14.267 0 25.833-11.565 25.833-25.833s-11.567-25.833-25.833-25.833z" fill="#525150"/><path d="m575.2 333.717c-13.143 0-23.834-10.691-23.834-23.833s10.691-23.833 23.834-23.833c13.142 0 23.833 10.691 23.833 23.833s-10.692 23.833-23.833 23.833z" fill="#333"/><path d="m575.2 288.051c12.039 0 21.833 9.794 21.833 21.833s-9.794 21.833-21.833 21.833-21.834-9.794-21.834-21.833 9.795-21.833 21.834-21.833m0-4c-14.268 0-25.834 11.565-25.834 25.833s11.566 25.833 25.834 25.833c14.267 0 25.833-11.565 25.833-25.833s-11.567-25.833-25.833-25.833z" fill="#525150"/><path d="m183.866 381.54901h37v23h-37z" fill="#aaaaab"/><path d="m218.866 383.549v19h-33v-19zm4-4h-41v27h41z" fill="#e2e2dc"/><path d="m239.866 381.54901h37v23h-37z" fill="#aaaaab"/><path d="m274.866 383.549v19h-33v-19zm4-4h-41v27h41z" fill="#e2e2dc"/><path d="m295.866 381.54901h37v23h-37z" fill="#aaaaab"/><path d="m330.866 383.549v19h-33v-19zm4-4h-41v27h41z" fill="#e2e2dc"/><path d="m351.866 381.54901h37v23h-37z" fill="#aaaaab"/><path d="m386.866 383.549v19h-33v-19zm4-4h-41v27h41z" fill="#e2e2dc"/><path d="m407.866 381.54901h37v23h-37z" fill="#aaaaab"/><path d="m442.866 383.549v19h-33v-19zm4-4h-41v27h41z" fill="#e2e2dc"/><path d="m463.866 381.54901h37v23h-37z" fill="#aaaaab"/><path d="m498.866 383.549v19h-33v-19zm4-4h-41v27h41z" fill="#e2e2dc"/><path d="m183.866 422.04901h37v23h-37z" fill="#aaaaab"/><path d="m218.866 424.049v19h-33v-19zm4-4h-41v27h41z" fill="#e2e2dc"/><path d="m239.866 422.04901h37v23h-37z" fill="#aaaaab"/><path d="m274.866 424.049v19h-33v-19zm4-4h-41v27h41z" fill="#e2e2dc"/><path d="m295.866 422.04901h37v23h-37z" fill="#aaaaab"/><path d="m330.866 424.049v19h-33v-19zm4-4h-41v27h41z" fill="#e2e2dc"/><path d="m351.866 422.04901h37v23h-37z" fill="#aaaaab"/><path d="m386.866 424.049v19h-33v-19zm4-4h-41v27h41z" fill="#e2e2dc"/><path d="m407.866 422.04901h37v23h-37z" fill="#aaaaab"/><path d="m442.866 424.049v19h-33v-19zm4-4h-41v27h41z" fill="#e2e2dc"/><path d="m463.866 422.04901h37v23h-37z" fill="#aaaaab"/><path d="m498.866 424.049v19h-33v-19zm4-4h-41v27h41z" fill="#e2e2dc"/><path d="m183.866 462.54901h37v23h-37z" fill="#aaaaab"/><path d="m218.866 464.549v19h-33v-19zm4-4h-41v27h41z" fill="#e2e2dc"/><path d="m239.866 462.54901h37v23h-37z" fill="#aaaaab"/><path d="m274.866 464.549v19h-33v-19zm4-4h-41v27h41z" fill="#e2e2dc"/><path d="m295.866 462.54901h37v23h-37z" fill="#aaaaab"/><path d="m330.866 464.549v19h-33v-19zm4-4h-41v27h41z" fill="#e2e2dc"/><path d="m351.866 462.54901h37v23h-37z" fill="#aaaaab"/><path d="m386.866 464.549v19h-33v-19zm4-4h-41v27h41z" fill="#e2e2dc"/><path d="m407.866 462.54901h37v23h-37z" fill="#aaaaab"/><path d="m442.866 464.549v19h-33v-19zm4-4h-41v27h41z" fill="#e2e2dc"/><path d="m463.866 462.54901h37v23h-37z" fill="#aaaaab"/><path d="m498.866 464.549v19h-33v-19zm4-4h-41v27h41z" fill="#e2e2dc"/><path d="m80.449 345.883c-31.66 0-57.417-25.757-57.417-57.416s25.758-57.417 57.417-57.417 57.417 25.757 57.417 57.417-25.757 57.416-57.417 57.416z" fill="#333"/><path d="m80.449 232.05c31.108 0 56.417 25.308 56.417 56.417 0 31.107-25.309 56.416-56.417 56.416s-56.417-25.309-56.417-56.416c.001-31.109 25.309-56.417 56.417-56.417m0-2c-32.263 0-58.417 26.154-58.417 58.417s26.154 58.416 58.417 58.416 58.417-26.153 58.417-58.416-26.154-58.417-58.417-58.417z" fill="#828181"/><g clip-path="url(#a)"><use fill="#333" height="100%" width="100%" xlink:href="#c"/><g clip-path="url(#b)"><path d="m80.449 344.883c-31.108 0-56.417-25.309-56.417-56.416 0-31.108 25.308-56.417 56.417-56.417s56.417 25.308 56.417 56.417c0 31.107-25.308 56.416-56.417 56.416z" fill="#333"/><path d="m80.449 234.05c30.005 0 54.417 24.411 54.417 54.417 0 30.005-24.411 54.416-54.417 54.416s-54.417-24.411-54.417-54.416c.001-30.006 24.412-54.417 54.417-54.417m0-4c-32.263 0-58.417 26.154-58.417 58.417s26.154 58.416 58.417 58.416 58.417-26.153 58.417-58.416-26.154-58.417-58.417-58.417z" fill="#525150"/></g><use fill="none" height="100%" stroke="#525150" stroke-miterlimit="10" stroke-width="4" width="100%" xlink:href="#c"/></g><path d="m177.439 353.049c-12.682 0-23-10.317-23-23v-305.049c0-12.682 10.318-23 23-23h328.049c12.683 0 23 10.318 23 23v305.049c0 12.683-10.317 23-23 23z" fill="#3b3b3b"/><path d="m505.488 4c11.579 0 21 9.42 21 21v305.049c0 11.579-9.421 21-21 21h-328.049c-11.58 0-21-9.421-21-21v-305.049c0-11.58 9.42-21 21-21zm0-4h-328.049c-13.807 0-25 11.193-25 25v305.049c0 13.807 11.193 25 25 25h328.049c13.808 0 25-11.193 25-25v-305.049c0-13.807-11.193-25-25-25z" fill="#5f5f5e"/><path d="m493.033 278.467c0 5.522-4.478 10-10 10h-279.667c-5.523 0-10-4.478-10-10v-231.085c0-5.523 4.477-10 10-10h279.667c5.522 0 10 4.477 10 10z" fill="#272727"/><path d="m220.69901 63.382h245.66701v197h-245.66701z" fill="#57bfcb"/><circle cx="53.991001" cy="405.75699" r="4.625"/><circle cx="69.490997" cy="405.75699" r="4.625"/><circle cx="84.990997" cy="405.75699" r="4.625"/><circle cx="100.491" cy="405.75699" r="4.625"/><circle cx="115.991" cy="405.75699" r="4.625"/><circle cx="69.490997" cy="390.42401" r="4.625"/><circle cx="84.990997" cy="390.42401" r="4.625"/><circle cx="100.491" cy="390.42401" r="4.625"/><circle cx="53.991001" cy="421.091" r="4.625"/><circle cx="69.490997" cy="421.091" r="4.625"/><circle cx="84.990997" cy="421.091" r="4.625"/><circle cx="100.491" cy="421.091" r="4.625"/><circle cx="115.991" cy="421.091" r="4.625"/><circle cx="69.490997" cy="436.42401" r="4.625"/><circle cx="84.990997" cy="436.42401" r="4.625"/><circle cx="100.491" cy="436.42401" r="4.625"/><circle cx="569.99103" cy="405.75699" r="4.625"/><circle cx="585.49103" cy="405.75699" r="4.625"/><circle cx="600.99103" cy="405.75699" r="4.625"/><circle cx="616.49103" cy="405.75699" r="4.625"/><circle cx="631.99103" cy="405.75699" r="4.625"/><circle cx="585.49103" cy="390.42401" r="4.625"/><circle cx="600.99103" cy="390.42401" r="4.625"/><circle cx="616.49103" cy="390.42401" r="4.625"/><circle cx="569.99103" cy="421.091" r="4.625"/><circle cx="585.49103" cy="421.091" r="4.625"/><circle cx="600.99103" cy="421.091" r="4.625"/><circle cx="616.49103" cy="421.091" r="4.625"/><circle cx="631.99103" cy="421.091" r="4.625"/><circle cx="585.49103" cy="436.42401" r="4.625"/><circle cx="600.99103" cy="436.42401" r="4.625"/><circle cx="616.49103" cy="436.42401" r="4.625"/></g></svg>