<svg viewBox="-290 382 30 30" xmlns="http://www.w3.org/2000/svg"><ellipse cx="-280" cy="387.7" fill="#fff" rx="1.3" ry="1"/><g transform="matrix(.16245937 0 0 .14929192 -291.52335 380.26207)"><rect fill="#0aa" height="34.322952" rx="0" ry="1.556713" stroke-width=".256499" width="158.95218" x="23.352335" y="171.44792"/><rect fill="#800080" height="151.24486" ry="1.463637" stroke-width=".257323" width="164.55122" x="17.753292" y="20.203068"/><rect fill="#0aa" height="61.647907" ry="1.341673" stroke-width=".238125" width="92.339592" x="56.117874" y="58.56765"/><path d="m9.8157933 116.37911v-96.176043h3.9687497 3.96875v-3.96875-3.96875h84.534387 84.53437v3.96875 3.96875h3.83646 3.83646v96.176043 96.17604h-92.33959-92.3395867zm46.3020837 73.15729v-7.67292h-7.672917-7.672916v7.67292 7.67291h7.672916 7.672917zm30.691667 0v-7.67292h-7.672916-7.672917v7.67292 7.67291h7.672917 7.672916zm30.956256 0v-7.67292h-7.80521-7.80521v7.67292 7.67291h7.80521 7.80521zm30.69167 0v-7.67292h-7.67292-7.67292v7.67292 7.67291h7.67292 7.67292zm30.69167 0v-7.67292h-7.67292-7.67292v7.67292 7.67291h7.67292 7.67292zm0-92.33959v-69.320827h-76.86146-76.86147v69.320827 69.32084h76.86147 76.86146zm-138.377096-3.968749v-42.333328h3.836458 3.836458v-3.836458-3.836459h53.84272 53.8427v3.836459 3.836458h3.83646 3.83646v42.333328 42.333339h-61.51562-61.515636zm107.685426-3.83645v-30.823961h-46.16979-46.169803v30.823961 30.823949h46.169803 46.16979zm-73.355738-.0605-.992188-.10379v-7.789236-7.789236h7.805209 7.805212v7.772136 7.772136l-.826827.16536c-.868222.17365-12.08247.15139-13.791406-.0274zm39.224488-7.61247v-7.805208h7.80521 7.8052v7.805208 7.80521h-7.8052-7.80521z" stroke-width=".264583"/></g></svg>