<svg viewBox="-290 382 30 30" xmlns="http://www.w3.org/2000/svg"><ellipse cx="-280" cy="387.7" fill="#fff" rx="1.3" ry="1"/><rect fill="#ccc" height="5.124139" rx="0" ry=".232405" stroke-width=".039946" width="25.823271" x="-287.72955" y="405.85785"/><rect fill="#b3b3b3" height="22.579636" ry=".218509" stroke-width=".040075" width="26.732887" x="-288.63916" y="383.27823"/><rect fill="#ccc" height="9.203534" ry=".200301" stroke-width=".037085" width="15.001431" x="-282.40646" y="389.00574"/><path d="m-289.92868 397.63653v-14.35831h.64476.64476v-.5925-.5925h13.7334 13.7334v.5925.5925h.62327.62327v14.35831 14.35831h-15.00143-15.00143zm7.5222 10.92179v-1.1455h-1.24653-1.24654v1.1455 1.14551h1.24654 1.24653zm4.98615 0v-1.1455h-1.24653-1.24654v1.1455 1.14551h1.24654 1.24653zm5.02914 0v-1.1455h-1.26803-1.26803v1.1455 1.14551h1.26803 1.26803zm4.98615 0v-1.1455h-1.24654-1.24654v1.1455 1.14551h1.24654 1.24654zm4.98615 0v-1.1455h-1.24654-1.24654v1.1455 1.14551h1.24654 1.24654zm0-13.78555v-10.34904h-12.48687-12.48686v10.34904 10.34904h12.48686 12.48687zm-22.48066-.5925v-6.32003h.62327.62327v-.57275-.57275h8.74725 8.74725v.57275.57275h.62327.62327v6.32003 6.32002h-9.99379-9.99379zm17.49451-.57275v-4.60177h-7.50072-7.50072v4.60177 4.60176h7.50072 7.50072zm-11.91733-.009-.16119-.0155v-1.16287-1.16287h1.26803 1.26803v1.16032 1.16031l-.13433.0247c-.14105.0259-1.96291.0226-2.24054-.004zm6.37239-1.13648v-1.16525h1.26803 1.26802v1.16525 1.16526h-1.26802-1.26803z" fill="#808080" stroke-width=".041205"/></svg>