<svg id="fd51cade-7964-49b3-89f7-63fc1e5e61f7" data-name="texte" xmlns="http://www.w3.org/2000/svg" xmlns:xlink="http://www.w3.org/1999/xlink" viewBox="0 0 470.33 67.41"><defs><style>.a1f672b3-ef5f-42eb-af8a-cd6349d8ef15{stroke:#9def48;stroke-miterlimit:10;stroke-width:0.75px;fill:url(#e7b141fc-19f8-4c3b-970a-1afa52ed703a);}.b9816a1c-41f6-4e68-8a6c-fddefc65edee{fill:#9def48;}</style><linearGradient id="e7b141fc-19f8-4c3b-970a-1afa52ed703a" x1="0.38" y1="33.7" x2="469.96" y2="33.7" gradientUnits="userSpaceOnUse"><stop offset="0" stop-color="#032c02"/><stop offset="1" stop-color="#207a09"/></linearGradient></defs><polygon class="a1f672b3-ef5f-42eb-af8a-cd6349d8ef15" points="0.38 5.91 102.44 5.91 108.57 0.38 150.31 0.38 158.22 5.91 461.65 6.11 469.96 16 469.96 59.72 50.81 59.72 42.7 67.03 7.89 67.03 0.38 59.72 0.38 5.91"/><path class="b9816a1c-41f6-4e68-8a6c-fddefc65edee" d="M56.58,40.47H75l2.35,4.07H52.51v-21l4.07-4.07Z" transform="translate(-0.13 -0.13)"/><path class="b9816a1c-41f6-4e68-8a6c-fddefc65edee" d="M107.42,44.54H83.28a18.19,18.19,0,0,1-4.23-12.26A18.14,18.14,0,0,1,83.28,20h24.14a18.14,18.14,0,0,1,4.23,12.25A18.19,18.19,0,0,1,107.42,44.54Zm-2.17-4.07a16.47,16.47,0,0,0,2.33-8.19,16.41,16.41,0,0,0-2.33-8.18H85.46a16.32,16.32,0,0,0-2.34,8.18,16.38,16.38,0,0,0,2.34,8.19Z" transform="translate(-0.13 -0.13)"/><path class="b9816a1c-41f6-4e68-8a6c-fddefc65edee" d="M129.33,40.47V25.94h4V40.47h7.88a16.41,16.41,0,0,0,2.33-8.19,16.46,16.46,0,0,0-2.33-8.18h-2.72V20h4.89a18.17,18.17,0,0,1,4.22,12.25,18.14,18.14,0,0,1-4.22,12.26H133.38v3.84h-4V44.54H119.28a18.19,18.19,0,0,1-4.22-12.26A18.22,18.22,0,0,1,119.28,20h4.89V24.1h-2.7a16.37,16.37,0,0,0-2.34,8.18,16.33,16.33,0,0,0,2.34,8.19Z" transform="translate(-0.13 -0.13)"/><path class="b9816a1c-41f6-4e68-8a6c-fddefc65edee" d="M178.31,40.47H181a17.83,17.83,0,0,0,2.19-6.17H159a17.46,17.46,0,0,0,2.2,6.17h2.7v4.07h-4.89a17.67,17.67,0,0,1-4.13-10.24h-3.85v-4h3.85A17.59,17.59,0,0,1,159.05,20H183.2a17.63,17.63,0,0,1,4.14,10.24l-1.76,1v2.05l1.76,1a17.68,17.68,0,0,1-4.14,10.24h-4.89ZM159,30.25h24.18A17.67,17.67,0,0,0,181,24.1H161.24A17.3,17.3,0,0,0,159,30.25Z" transform="translate(-0.13 -0.13)"/><path class="b9816a1c-41f6-4e68-8a6c-fddefc65edee" d="M215.64,34.3H198.72a17.46,17.46,0,0,0,2.2,6.17h20.13l2.35,4.07H198.74A17.62,17.62,0,0,1,194.6,34.3h-3.85v-4h3.85A17.53,17.53,0,0,1,198.74,20H223.4l-2.35,4.07H200.92a17.3,17.3,0,0,0-2.2,6.15h16.92Z" transform="translate(-0.13 -0.13)"/><path class="b9816a1c-41f6-4e68-8a6c-fddefc65edee" d="M255.85,30.25l1.85,2a18.15,18.15,0,0,1-4.23,12.26H229.33a17.13,17.13,0,0,1-3.68-7.3H230a19,19,0,0,0,1.48,3.23H251.3a16.92,16.92,0,0,0,2.19-6.17H227l-1.84-2A18.17,18.17,0,0,1,229.33,20h24.14a17.13,17.13,0,0,1,3.68,7.3h-4.38a17.47,17.47,0,0,0-1.47-3.23H231.51a17.49,17.49,0,0,0-2.2,6.15Z" transform="translate(-0.13 -0.13)"/><path class="b9816a1c-41f6-4e68-8a6c-fddefc65edee" d="M277.45,30.25v4H261.11v-4Z" transform="translate(-0.13 -0.13)"/><path class="b9816a1c-41f6-4e68-8a6c-fddefc65edee" d="M287.28,24.1a16.32,16.32,0,0,0-2.34,8.18,16.38,16.38,0,0,0,2.34,8.19H290v4.07h-4.89a18.23,18.23,0,0,1-4.22-12.26A18.18,18.18,0,0,1,285.09,20h24.15a18.18,18.18,0,0,1,4.22,12.25,18.23,18.23,0,0,1-4.22,12.26h-4.89V40.47h2.72a16.45,16.45,0,0,0,2.32-8.19,16.39,16.39,0,0,0-2.32-8.18Z" transform="translate(-0.13 -0.13)"/><path class="b9816a1c-41f6-4e68-8a6c-fddefc65edee" d="M344.49,44.54,332.7,35l-11.79,9.57h-6.6L329.4,32.28,314.31,20h6.6L332.7,29.6,344.49,20h6.6L336,32.28l15.09,12.26Z" transform="translate(-0.13 -0.13)"/></svg>