<svg id="b3aa3ce3-ff4c-4a21-96b8-b16c7c36162d" data-name="texte" xmlns="http://www.w3.org/2000/svg" xmlns:xlink="http://www.w3.org/1999/xlink" viewBox="0 0 470.33 67.41"><defs><style>.ad74e421-dd14-4ea4-bbf0-380437d7572d{stroke:#9def48;stroke-miterlimit:10;stroke-width:0.75px;fill:url(#b05fbc12-9180-484a-8a75-d8ca7c07da17);}.ebd7ddfa-23f8-46f0-9969-4e5a99c7c39d{fill:#9def48;}</style><linearGradient id="b05fbc12-9180-484a-8a75-d8ca7c07da17" x1="0.38" y1="33.7" x2="469.96" y2="33.7" gradientUnits="userSpaceOnUse"><stop offset="0" stop-color="#032c02"/><stop offset="1" stop-color="#207a09"/></linearGradient></defs><polygon class="ad74e421-dd14-4ea4-bbf0-380437d7572d" points="0.38 5.91 102.44 5.91 108.57 0.38 150.31 0.38 158.22 5.91 461.65 6.11 469.96 16 469.96 59.72 50.81 59.72 42.7 67.03 7.89 67.03 0.38 59.72 0.38 5.91"/><path class="ebd7ddfa-23f8-46f0-9969-4e5a99c7c39d" d="M82,35.29a15.07,15.07,0,0,1-3.54,8.77H57.78a15.07,15.07,0,0,1-3.54-8.77h-3.3V31.82h3.3a15,15,0,0,1,3.54-8.76h20.7A15,15,0,0,1,82,31.83l-1.5.85v1.76ZM57.77,31.82H78.49a15.11,15.11,0,0,0-1.87-5.28h-17A14.77,14.77,0,0,0,57.77,31.82Zm0,3.47a14.88,14.88,0,0,0,1.89,5.29h17a15.23,15.23,0,0,0,1.87-5.29Z" transform="translate(-0.06 -0.03)"/><path class="ebd7ddfa-23f8-46f0-9969-4e5a99c7c39d" d="M106.28,35.29H91.78a14.88,14.88,0,0,0,1.89,5.29h17.26l2,3.48H91.79a15.07,15.07,0,0,1-3.54-8.77H85V31.82h3.3a15,15,0,0,1,3.54-8.76h21.14l-2,3.48H93.67a14.77,14.77,0,0,0-1.89,5.28h14.5Z" transform="translate(-0.06 -0.03)"/><path class="ebd7ddfa-23f8-46f0-9969-4e5a99c7c39d" d="M123.16,38.22l-3.68,5.84h-4.35l13.34-21h4l13.24,21h-4.29l-3.63-5.84Zm12.48-3.47-5.13-8.22-5.17,8.22Z" transform="translate(-0.06 -0.03)"/><path class="ebd7ddfa-23f8-46f0-9969-4e5a99c7c39d" d="M156.22,41.09l-3.49,3.48v-18H141.34V23.06h26.27v3.48H156.22Z" transform="translate(-0.06 -0.03)"/><path class="ebd7ddfa-23f8-46f0-9969-4e5a99c7c39d" d="M200.66,35.29h-14.5a14.88,14.88,0,0,0,1.89,5.29h17.26l2,3.48H186.17a15.07,15.07,0,0,1-3.54-8.77h-3.3V31.82h3.3a15,15,0,0,1,3.54-8.76h21.14l-2,3.48H188.05a14.77,14.77,0,0,0-1.89,5.28h14.5Z" transform="translate(-0.06 -0.03)"/><path class="ebd7ddfa-23f8-46f0-9969-4e5a99c7c39d" d="M221,26.54h-6.74a14,14,0,0,0-2,7,14.08,14.08,0,0,0,2,7h2.31v3.48h-4.19a15.6,15.6,0,0,1-3.61-10.5,15.56,15.56,0,0,1,3.61-10.5H221v-3.3h3.47v3.3h8.61a15.52,15.52,0,0,1,3.62,10.5,15.55,15.55,0,0,1-3.62,10.5H228.9V40.58h2.33a14.16,14.16,0,0,0,2-7,14.11,14.11,0,0,0-2-7h-6.75V39H221Z" transform="translate(-0.06 -0.03)"/><path class="ebd7ddfa-23f8-46f0-9969-4e5a99c7c39d" d="M253.92,40.58h17a14.19,14.19,0,0,0,2-7,14.25,14.25,0,0,0-2-7h-2.33V23.06h4.19a15.6,15.6,0,0,1,3.61,10.5,15.56,15.56,0,0,1-3.61,10.5h-20.7a15.57,15.57,0,0,1-3.62-10.5,15.6,15.6,0,0,1,3.62-10.5h4.19v3.48h-2.32a14.16,14.16,0,0,0-2,7A14.11,14.11,0,0,0,253.92,40.58Z" transform="translate(-0.06 -0.03)"/><path class="ebd7ddfa-23f8-46f0-9969-4e5a99c7c39d" d="M308.87,35.29H286.12A14.88,14.88,0,0,0,288,40.58h2.31v3.48h-4.18a15,15,0,0,1-3.55-8.77h-3.3V31.82h3.3a15,15,0,0,1,3.55-8.76h20.69a15.52,15.52,0,0,1,3.62,10.5Zm-22.75-3.47h20.73A15.13,15.13,0,0,0,305,26.54H288A14.77,14.77,0,0,0,286.12,31.82Z" transform="translate(-0.06 -0.03)"/></svg>