<svg id="a0310928-f973-4023-9272-7047f755412c" data-name="texte" xmlns="http://www.w3.org/2000/svg" xmlns:xlink="http://www.w3.org/1999/xlink" viewBox="0 0 470.33 67.41"><defs><style>.b1674075-a2c7-4ac1-9c4e-088ae6569674{stroke:#9def48;stroke-miterlimit:10;stroke-width:0.75px;fill:url(#a9d4d348-1ecf-449d-a029-444b69ea5165);}.b4f5f474-db37-4f06-a2f4-54b6cc6ed190{fill:#9def48;}</style><linearGradient id="a9d4d348-1ecf-449d-a029-444b69ea5165" x1="0.38" y1="33.7" x2="469.96" y2="33.7" gradientUnits="userSpaceOnUse"><stop offset="0" stop-color="#032c02"/><stop offset="1" stop-color="#207a09"/></linearGradient></defs><polygon class="b1674075-a2c7-4ac1-9c4e-088ae6569674" points="0.38 5.91 102.44 5.91 108.57 0.38 150.31 0.38 158.22 5.91 461.65 6.11 469.96 16 469.96 59.72 50.81 59.72 42.7 67.03 7.89 67.03 0.38 59.72 0.38 5.91"/><path class="b4f5f474-db37-4f06-a2f4-54b6cc6ed190" d="M56.58,40.47H75l2.35,4.07H52.51v-21l4.07-4.07Z" transform="translate(-0.13 -0.13)"/><path class="b4f5f474-db37-4f06-a2f4-54b6cc6ed190" d="M85.46,40.47h19.79a16.41,16.41,0,0,0,2.33-8.19,16.46,16.46,0,0,0-2.33-8.18h-2.71V20h4.88a18.18,18.18,0,0,1,4.23,12.25,18.15,18.15,0,0,1-4.23,12.26H83.28a18.15,18.15,0,0,1-4.23-12.26A18.18,18.18,0,0,1,83.28,20h4.88V24.1h-2.7a16.37,16.37,0,0,0-2.34,8.18A16.33,16.33,0,0,0,85.46,40.47Z" transform="translate(-0.13 -0.13)"/><path class="b4f5f474-db37-4f06-a2f4-54b6cc6ed190" d="M131.57,41.07l-4.07,4.07v-21H114.21V20h30.66V24.1h-13.3Z" transform="translate(-0.13 -0.13)"/><path class="b4f5f474-db37-4f06-a2f4-54b6cc6ed190" d="M172.54,40.47h2.71a17.63,17.63,0,0,0,2.19-6.17H153.26a17.46,17.46,0,0,0,2.2,6.17h2.7v4.07h-4.88a17.62,17.62,0,0,1-4.14-10.24H145.3v-4h3.84A17.53,17.53,0,0,1,153.28,20h24.14a17.56,17.56,0,0,1,4.14,10.24l-1.76,1v2.05l1.76,1a17.62,17.62,0,0,1-4.14,10.24h-4.88ZM153.26,30.25h24.18a17.47,17.47,0,0,0-2.19-6.15H155.46A17.3,17.3,0,0,0,153.26,30.25Z" transform="translate(-0.13 -0.13)"/><path class="b4f5f474-db37-4f06-a2f4-54b6cc6ed190" d="M213.35,44.54H189.2A18.18,18.18,0,0,1,185,32.28,18.13,18.13,0,0,1,189.2,20h24.15a18.18,18.18,0,0,1,4.22,12.25A18.23,18.23,0,0,1,213.35,44.54Zm-2.17-4.07a16.45,16.45,0,0,0,2.32-8.19,16.39,16.39,0,0,0-2.32-8.18H191.39a16.32,16.32,0,0,0-2.34,8.18,16.38,16.38,0,0,0,2.34,8.19Z" transform="translate(-0.13 -0.13)"/></svg>