<svg id="b906af8a-6617-44c5-88e1-fe08bc46f3c2" data-name="texte" xmlns="http://www.w3.org/2000/svg" xmlns:xlink="http://www.w3.org/1999/xlink" viewBox="0 0 470.33 67.41"><defs><style>.b86a01a1-04fa-4495-9258-703b99944bb1{stroke:#9def48;stroke-miterlimit:10;stroke-width:0.75px;fill:url(#a24faff8-a5e8-4f24-9c32-cc087d2434a9);}.e3838e3c-00b6-45c7-b5b6-861600dc9352{fill:#9def48;}</style><linearGradient id="a24faff8-a5e8-4f24-9c32-cc087d2434a9" x1="0.38" y1="33.7" x2="469.96" y2="33.7" gradientUnits="userSpaceOnUse"><stop offset="0" stop-color="#032c02"/><stop offset="1" stop-color="#207a09"/></linearGradient></defs><polygon class="b86a01a1-04fa-4495-9258-703b99944bb1" points="0.38 5.91 102.44 5.91 108.57 0.38 150.31 0.38 158.22 5.91 461.65 6.11 469.96 16 469.96 59.72 50.81 59.72 42.7 67.03 7.89 67.03 0.38 59.72 0.38 5.91"/><path class="e3838e3c-00b6-45c7-b5b6-861600dc9352" d="M52.45,20.56h27a18.17,18.17,0,0,1,4.22,12.25,18.25,18.25,0,0,1-4.22,12.26h-27ZM56.52,41H77.28a16.48,16.48,0,0,0,2.32-8.19,16.39,16.39,0,0,0-2.32-8.18H56.52Z" transform="translate(-0.13 -0.13)"/><path class="e3838e3c-00b6-45c7-b5b6-861600dc9352" d="M112,34.83H95.05A17.49,17.49,0,0,0,97.26,41h20.13l2.34,4.07H95.07a17.68,17.68,0,0,1-4.14-10.24H87.09v-4h3.84a17.57,17.57,0,0,1,4.14-10.22h24.66l-2.34,4.07H97.26a17.33,17.33,0,0,0-2.21,6.15H112Z" transform="translate(-0.13 -0.13)"/><path class="e3838e3c-00b6-45c7-b5b6-861600dc9352" d="M131.74,45.07h-4.88a17.62,17.62,0,0,1-4.14-10.24h-3.84v-4h3.84a17.51,17.51,0,0,1,4.14-10.22h24.66l-2.34,4.07H129a17.49,17.49,0,0,0-2.2,6.15h16.92v4H126.84A17.66,17.66,0,0,0,129,41h2.7Z" transform="translate(-0.13 -0.13)"/><path class="e3838e3c-00b6-45c7-b5b6-861600dc9352" d="M153.19,38.25l-4.29,6.82h-5.07L159.4,20.56h4.68l15.45,24.51h-5l-4.24-6.82Zm14.56-4-6-9.59-6,9.59Z" transform="translate(-0.13 -0.13)"/><path class="e3838e3c-00b6-45c7-b5b6-861600dc9352" d="M186.79,41h19.79a16.41,16.41,0,0,0,2.33-8.19,16.46,16.46,0,0,0-2.33-8.18h-2.72V20.56h4.89A18.17,18.17,0,0,1,213,32.81a18.16,18.16,0,0,1-4.22,12.26H184.6a18.21,18.21,0,0,1-4.22-12.26,18.22,18.22,0,0,1,4.22-12.25h4.89v4.07h-2.7a16.37,16.37,0,0,0-2.34,8.18A16.33,16.33,0,0,0,186.79,41Z" transform="translate(-0.13 -0.13)"/><path class="e3838e3c-00b6-45c7-b5b6-861600dc9352" d="M221.31,41h18.43l2.34,4.07H217.25V24L221.31,20Z" transform="translate(-0.13 -0.13)"/><path class="e3838e3c-00b6-45c7-b5b6-861600dc9352" d="M254.31,41.6l-4.06,4.06v-21H237V20.56h30.66v4.07h-13.3Z" transform="translate(-0.13 -0.13)"/></svg>