<svg id="a0b24914-9982-48a3-806f-5c0a188e3722" data-name="texte" xmlns="http://www.w3.org/2000/svg" xmlns:xlink="http://www.w3.org/1999/xlink" viewBox="0 0 470.33 67.41"><defs><style>.a0e60d08-e0bf-4d6b-bacf-386bda839d12{stroke:#9def48;stroke-miterlimit:10;stroke-width:0.75px;fill:url(#f1151ecf-d976-4d5d-a09f-ff6e37f73fd8);}.fb43d2f8-e2e6-4219-a9af-33ff5cacaa53{fill:#9def48;}</style><linearGradient id="f1151ecf-d976-4d5d-a09f-ff6e37f73fd8" x1="0.38" y1="33.7" x2="469.96" y2="33.7" gradientUnits="userSpaceOnUse"><stop offset="0" stop-color="#032c02"/><stop offset="1" stop-color="#207a09"/></linearGradient></defs><polygon class="a0e60d08-e0bf-4d6b-bacf-386bda839d12" points="0.38 5.91 102.44 5.91 108.57 0.38 150.31 0.38 158.22 5.91 461.65 6.11 469.96 16 469.96 59.72 50.81 59.72 42.7 67.03 7.89 67.03 0.38 59.72 0.38 5.91"/><path class="fb43d2f8-e2e6-4219-a9af-33ff5cacaa53" d="M76.41,32.18l1.53,1.68A15.07,15.07,0,0,1,74.45,44h-20a14.22,14.22,0,0,1-3-6.05H55a15.62,15.62,0,0,0,1.23,2.68h16.4a14.33,14.33,0,0,0,1.81-5.12h-22l-1.53-1.67a15.09,15.09,0,0,1,3.5-10.15h20a14.21,14.21,0,0,1,3,6.05H73.87a15.55,15.55,0,0,0-1.22-2.68H56.25a14.55,14.55,0,0,0-1.83,5.1Z" transform="translate(-0.06 -0.03)"/><path class="fb43d2f8-e2e6-4219-a9af-33ff5cacaa53" d="M109.37,35.53h-22a14.72,14.72,0,0,0,1.83,5.12h2.24V44h-4A14.61,14.61,0,0,1,84,35.53H80.78V32.18H84a14.55,14.55,0,0,1,3.43-8.47h20a15,15,0,0,1,3.49,10.15Zm-22-3.35h20a14.5,14.5,0,0,0-1.81-5.1H89.2A14.55,14.55,0,0,0,87.37,32.18Z" transform="translate(-0.06 -0.03)"/><path class="fb43d2f8-e2e6-4219-a9af-33ff5cacaa53" d="M137.16,44h-20a15.11,15.11,0,0,1-3.49-10.16,15,15,0,0,1,3.49-10.15h20a15.05,15.05,0,0,1,3.5,10.15A15.12,15.12,0,0,1,137.16,44Zm-1.8-3.37a13.63,13.63,0,0,0,1.93-6.79,13.57,13.57,0,0,0-1.93-6.78H119A13.48,13.48,0,0,0,117,33.86,13.54,13.54,0,0,0,119,40.65Z" transform="translate(-0.06 -0.03)"/><path class="fb43d2f8-e2e6-4219-a9af-33ff5cacaa53" d="M166.06,40.65h2.25a14.69,14.69,0,0,0,1.82-5.12h-20a14.32,14.32,0,0,0,1.83,5.12h2.23V44H150.1a14.6,14.6,0,0,1-3.42-8.49h-3.19V32.18h3.19a14.54,14.54,0,0,1,3.42-8.47h20a14.55,14.55,0,0,1,3.43,8.48l-1.46.82v1.7l1.46.82A14.61,14.61,0,0,1,170.11,44h-4.05Zm-16-8.47h20a14.52,14.52,0,0,0-1.82-5.1H151.92A14.16,14.16,0,0,0,150.09,32.18Z" transform="translate(-0.06 -0.03)"/><path class="fb43d2f8-e2e6-4219-a9af-33ff5cacaa53" d="M190.05,41.14l-3.37,3.37V27.08h-11V23.71h25.41v3.37h-11Z" transform="translate(-0.06 -0.03)"/><path class="fb43d2f8-e2e6-4219-a9af-33ff5cacaa53" d="M235.32,38H239a14.22,14.22,0,0,1-3,6.05h-20a15.12,15.12,0,0,1-3.5-10.16,15.09,15.09,0,0,1,3.5-10.15h20a14.22,14.22,0,0,1,3,6.05h-3.63a14.83,14.83,0,0,0-1.22-2.68H217.71a13.49,13.49,0,0,0-2,6.78,13.56,13.56,0,0,0,2,6.79H234.1A15.48,15.48,0,0,0,235.32,38Z" transform="translate(-0.06 -0.03)"/><path class="fb43d2f8-e2e6-4219-a9af-33ff5cacaa53" d="M265.28,44h-20a15.11,15.11,0,0,1-3.49-10.16,15,15,0,0,1,3.49-10.15h20a15.05,15.05,0,0,1,3.5,10.15A15.12,15.12,0,0,1,265.28,44Zm-1.8-3.37a13.63,13.63,0,0,0,1.93-6.79,13.57,13.57,0,0,0-1.93-6.78H247.09a13.48,13.48,0,0,0-1.94,6.78,13.54,13.54,0,0,0,1.94,6.79Z" transform="translate(-0.06 -0.03)"/><path class="fb43d2f8-e2e6-4219-a9af-33ff5cacaa53" d="M283.44,27.08h-6.52A13.58,13.58,0,0,0,275,33.86a13.64,13.64,0,0,0,1.94,6.79h2.24V44h-4.05a15.12,15.12,0,0,1-3.5-10.16,15.05,15.05,0,0,1,3.5-10.15h8.33V20.52h3.35v3.19h8.33a15,15,0,0,1,3.49,10.15A15.11,15.11,0,0,1,295.12,44h-4.05V40.65h2.25a13.72,13.72,0,0,0,1.92-6.79,13.65,13.65,0,0,0-1.92-6.78h-6.53v12h-3.35Z" transform="translate(-0.06 -0.03)"/><path class="fb43d2f8-e2e6-4219-a9af-33ff5cacaa53" d="M330,35.53h-22a14.49,14.49,0,0,0,1.82,5.12h2.24V44h-4.05a14.67,14.67,0,0,1-3.43-8.49h-3.18V32.18h3.18a14.61,14.61,0,0,1,3.43-8.47h20a15.05,15.05,0,0,1,3.5,10.15Zm-22-3.35h20a14.5,14.5,0,0,0-1.81-5.1h-16.4A14.33,14.33,0,0,0,308.05,32.18Z" transform="translate(-0.06 -0.03)"/><path class="fb43d2f8-e2e6-4219-a9af-33ff5cacaa53" d="M354.94,35.53h-14a14.49,14.49,0,0,0,1.82,5.12h16.68L361.37,44H340.94a14.67,14.67,0,0,1-3.43-8.49h-3.18V32.18h3.18a14.61,14.61,0,0,1,3.43-8.47h20.43l-1.94,3.37H342.75a14.33,14.33,0,0,0-1.82,5.1h14Z" transform="translate(-0.06 -0.03)"/><path class="fb43d2f8-e2e6-4219-a9af-33ff5cacaa53" d="M378.59,41.14l-3.37,3.37V27.08h-11V23.71h25.41v3.37h-11Z" transform="translate(-0.06 -0.03)"/><path class="fb43d2f8-e2e6-4219-a9af-33ff5cacaa53" d="M397.23,44h-3.37V26.58l3.37-3.36Z" transform="translate(-0.06 -0.03)"/><path class="fb43d2f8-e2e6-4219-a9af-33ff5cacaa53" d="M415.86,41.14l-3.37,3.37V27.08h-11V23.71h25.41v3.37h-11Z" transform="translate(-0.06 -0.03)"/><path class="fb43d2f8-e2e6-4219-a9af-33ff5cacaa53" d="M434.5,44h-3.37V26.58l3.37-3.36Z" transform="translate(-0.06 -0.03)"/><path class="fb43d2f8-e2e6-4219-a9af-33ff5cacaa53" d="M449.41,44h-4.05a14.61,14.61,0,0,1-3.43-8.49h-3.19V32.18h3.19a14.55,14.55,0,0,1,3.43-8.47h20.43l-1.94,3.37H447.17a14.55,14.55,0,0,0-1.83,5.1h14v3.35h-14a14.72,14.72,0,0,0,1.83,5.12h2.24Z" transform="translate(-0.06 -0.03)"/></svg>