<svg xmlns="http://www.w3.org/2000/svg" xmlns:xlink="http://www.w3.org/1999/xlink" viewBox="0 0 746.51 822.18"><defs><radialGradient id="ad0eca1b-4ddf-4724-ae8b-f94cdf2dd1db" cx="121.61" cy="382.1" r="5.66" gradientTransform="matrix(1 0 0 .6 0 152.84)" xlink:href="#eb94ad0c-156a-4dfb-9a7d-dce7f56c40a4"/><radialGradient id="be997fee-d22e-48cd-a504-adaac2694d92" cx="217.55" cy="416.02" r="5.66" xlink:href="#ae7d4668-d912-48d2-b26e-ec9ff354cb2f"/><radialGradient id="ff8ed4fa-9962-420d-a447-43f01dac6dc2" cx="195.83" cy="370.99" r="11.47" xlink:href="#ae7d4668-d912-48d2-b26e-ec9ff354cb2f"/><radialGradient id="eb94ad0c-156a-4dfb-9a7d-dce7f56c40a4" cx="92.36" cy="393.88" r="5.66" gradientTransform="matrix(1 0 0 .6 0 157.55)" gradientUnits="userSpaceOnUse"><stop offset="0" stop-color="#0000ef"/><stop offset=".15" stop-color="#0000e9"/><stop offset=".34" stop-color="#0101d9"/><stop offset=".56" stop-color="#0101be"/><stop offset=".79" stop-color="#02029a"/><stop offset="1" stop-color="#020282"/></radialGradient><radialGradient id="a9b37ed5-9e25-4638-a8b6-d22e9c1761cb" cx="114.61" cy="393.88" r="5.66" xlink:href="#eb94ad0c-156a-4dfb-9a7d-dce7f56c40a4"/><radialGradient id="b5ba1916-5fcc-421a-86be-6c4794253669" cx="133.17" cy="400.04" r="5.66" gradientTransform="matrix(1 0 0 .6 0 160.02)" xlink:href="#eb94ad0c-156a-4dfb-9a7d-dce7f56c40a4"/><radialGradient id="a110101d-b311-4c1e-a0a6-29bdfb8d722c" cx="139.21" cy="387.78" r="5.66" gradientTransform="matrix(1 0 0 .6 0 155.11)" xlink:href="#eb94ad0c-156a-4dfb-9a7d-dce7f56c40a4"/><radialGradient id="ae7d4668-d912-48d2-b26e-ec9ff354cb2f" cx="65.88" cy="348.77" r="11.47" gradientUnits="userSpaceOnUse"><stop offset="0" stop-color="#fd6d66"/><stop offset=".78" stop-color="#b50a03"/></radialGradient><radialGradient id="a36cefcc-f045-48f2-a04c-b22693570a8a" cx="100.32" cy="382.53" r="5.66" gradientTransform="matrix(1 0 0 .6 0 153.01)" xlink:href="#eb94ad0c-156a-4dfb-9a7d-dce7f56c40a4"/><radialGradient id="e01c6c56-9f86-4497-a940-9031597f0038" cx="225.51" cy="404.67" r="5.66" xlink:href="#ae7d4668-d912-48d2-b26e-ec9ff354cb2f"/><radialGradient id="bf591a6c-e16e-4ce4-96f6-3e3281025304" cx="246.79" cy="404.24" r="5.66" xlink:href="#ae7d4668-d912-48d2-b26e-ec9ff354cb2f"/><radialGradient id="ac5afc72-0d40-4f28-bf8a-4ff848da76e5" cx="264.4" cy="409.93" r="5.66" xlink:href="#ae7d4668-d912-48d2-b26e-ec9ff354cb2f"/><radialGradient id="b64e6dd3-a651-4ecf-a1a5-c37ccf4b577a" cx="258.36" cy="422.19" r="5.66" xlink:href="#ae7d4668-d912-48d2-b26e-ec9ff354cb2f"/><radialGradient id="a7251045-72f1-44e7-a13d-6f47203ad90e" cx="239.79" cy="416.02" r="5.66" xlink:href="#ae7d4668-d912-48d2-b26e-ec9ff354cb2f"/><style>.bf2215b5-2437-4f50-a0dd-faefbb76f2be{fill:#373735}.bfe9a988-3ec8-40ad-a4e3-e544983fd434{fill:#121211}.acac5748-74a5-4ed6-bdf8-e67e8dba370d,.b51fc9ab-e3d7-499b-8993-f489469da451,.bd2eb1e6-1fcd-470a-94bd-031813069043,.bfe9a988-3ec8-40ad-a4e3-e544983fd434,.f789876b-2689-4fd7-a5f9-fa0504abc2b8{stroke:#b5b5b5}.acac5748-74a5-4ed6-bdf8-e67e8dba370d,.b2df3053-3fbc-4121-8a6a-a41c1398d4ad,.b51fc9ab-e3d7-499b-8993-f489469da451,.bd2eb1e6-1fcd-470a-94bd-031813069043,.bfe9a988-3ec8-40ad-a4e3-e544983fd434,.e5f8d44f-e547-466d-ad1b-fe207387b64e,.f421eb89-37f1-4a75-a26c-8916c704fadc,.f789876b-2689-4fd7-a5f9-fa0504abc2b8{stroke-miterlimit:10}.acac5748-74a5-4ed6-bdf8-e67e8dba370d,.b2df3053-3fbc-4121-8a6a-a41c1398d4ad,.b51fc9ab-e3d7-499b-8993-f489469da451,.bd2eb1e6-1fcd-470a-94bd-031813069043,.bfe9a988-3ec8-40ad-a4e3-e544983fd434,.f789876b-2689-4fd7-a5f9-fa0504abc2b8{stroke-width:.5px}.e5f8d44f-e547-466d-ad1b-fe207387b64e{fill:#443840}.b2df3053-3fbc-4121-8a6a-a41c1398d4ad,.e5f8d44f-e547-466d-ad1b-fe207387b64e{stroke:#090000}.e5f8d44f-e547-466d-ad1b-fe207387b64e{stroke-width:.75px}.b2df3053-3fbc-4121-8a6a-a41c1398d4ad{fill:#6b0c05}.bd6bb7cb-c8cf-46fa-8d11-8558a29342e1{fill:#86382f}.f421eb89-37f1-4a75-a26c-8916c704fadc{stroke:#373737}.f2363cc5-4463-491f-b547-090b56ec95d8{fill:#fff}.bd2eb1e6-1fcd-470a-94bd-031813069043{fill:#dc6e05}.acac5748-74a5-4ed6-bdf8-e67e8dba370d{fill:#12e600}.f789876b-2689-4fd7-a5f9-fa0504abc2b8{fill:#0b47ce}.b0b618e2-4b26-4fbf-ab17-0d5620807174,.b51fc9ab-e3d7-499b-8993-f489469da451{fill:#282826}.a079449e-710f-4699-9712-8ef5808d08b8{fill:#ae7a82}.be02b4cf-8eb7-440e-a7c5-cdca86046874{fill:url(#ae7d4668-d912-48d2-b26e-ec9ff354cb2f)}.a5baccb2-2060-4df5-a4df-bfbc6421f7bd{fill:url(#ff8ed4fa-9962-420d-a447-43f01dac6dc2)}.a41fe13f-a927-4717-ab95-a79724f00d8e{fill:#0000ef}.b90db426-e586-42f4-ae33-32a479d69a88{fill:#930303}.e5fc815d-1a69-4831-8a48-691b80de504c{fill:#e7e7e7}.f4fd73d5-f52b-4f19-9916-dec536893c32{fill:#2c2b29}.b22a53ee-d752-4825-811d-8fc2b11d1d64{fill:#020202}.b54b2c67-6ecc-4cd6-8a00-37ca56fc4ebd{fill:#dd0606}.bc1221c3-935f-4818-b53f-9a1874729471{fill:#030202}</style></defs><g id="f83ca334-8aba-4792-98f5-d7e7b4361d16" data-name="Calque 1"><path id="e19771d9-b999-41ef-8df6-b32d9e75b4f3" data-name="ombre" style="opacity:.5;fill:#373735" d="m452.03 588.79 21.51-5.91H485.41l1.58 2.96 237.36 43.3h11.08l11.07 31.39-46.41 37.71-46.42 13.19-8.18-1.32.27-1.85-13.98-2.63-83.6 27.95-73.32 51.57-22.83 6.82-7.77-1.16v-2.63l-16.08-3.03-129.99 34.37 153.84-230.73z"/><g id="b0abf28c-3607-4848-b1cd-24c6c43be5f7" data-name="bottom"><path class="bf2215b5-2437-4f50-a0dd-faefbb76f2be" d="m36 454.56 224.9 39.62v4.35l25.72 6.13-.4 311.34-248.24-47.27L36 454.56z"/><path class="bfe9a988-3ec8-40ad-a4e3-e544983fd434" d="m202 526.54-78.38-13.74c-3 .19-4.26 3.56-4.26 3.56l.2 85c.69 2.18 3.86 5 3.86 5l74.27 13.46c5.14.49 7.52-5.25 7.52-5.25v-82.69a7.12 7.12 0 0 0-3.21-5.34zm-49.9 22.55-18.69-3.46v-20l2.27-1.88 18.1 3.07-1.78 2.69zm31.45 6.13-18.69-3.46v-20l2.27-1.87 18.1 3.06-1.78 2.67z" transform="translate(-.98 -.52)"/><path class="e5f8d44f-e547-466d-ad1b-fe207387b64e" d="m134.7 523.25-2.27 1.88v19.98l18.69 3.46-.1-19.58 1.78-2.67-18.1-3.07zM166.15 529.38l-2.27 1.88v19.98l18.69 3.46-.1-19.58 1.78-2.67-18.1-3.07z"/><path class="b2df3053-3fbc-4121-8a6a-a41c1398d4ad" d="M140.14 543.03v-12.85l8.01 1.78v12.56l-8.01-1.49zM171.2 548.87v-12.86l8.01 1.78v12.56l-8.01-1.48z"/><path d="M135.23 543.16v-15.23l2.05.4v15.16l-2.05-.33zM166.68 548.7v-15.23l2.04.4v15.16l-2.04-.33z"/><path class="bd6bb7cb-c8cf-46fa-8d11-8558a29342e1" d="M140.4 530.69v-.35l7.47 1.8.01.43-7.48-1.88zM171.46 536.62v-.29l7.47 1.64.01.35-7.48-1.7z"/><circle cx="192.4" cy="574.85" r="4.25" style="fill:#8b8b8b;stroke-width:.75px;stroke:#090000;stroke-miterlimit:10"/><path class="f421eb89-37f1-4a75-a26c-8916c704fadc" d="M136.29 598.71v-11.27l11.96 2.18v11.3l-11.96-2.21zM167.54 604.25v-11.27l11.96 2.17v10.88l-11.96-1.78z"/></g><g id="ed92779a-5345-4dbd-b3ed-14c3f7594aa0" data-name="t molding"><path class="f2363cc5-4463-491f-b547-090b56ec95d8" d="m11.46 450.59-.79-39.76L1 407.66v45.1l27.89 5.54c.59 103.55 1 207.6 1.58 311.15a6.18 6.18 0 0 0 3.53 2.19 12.58 12.58 0 0 0 5 0l-2-316.56zM272.36 497v-41.27l-10.28-1.19-.2 44.51 25.71 6.13s-1.51 313.85 0 315.69 8.77 1.32 8.77 1.32l.93-319.91z" transform="translate(-.98 -.52)"/><path class="f2363cc5-4463-491f-b547-090b56ec95d8" d="m78.72 346.42-8.15-1.3 16.26-218.56 9.04 1.5-17.15 218.36zM329.24 388.85l9.1 1.28 18.49-224.31h-26.37l-.26-90.92-10.06-1.84v94.84l6.04 1.09h20.27l-17.21 219.86z"/><path class="f2363cc5-4463-491f-b547-090b56ec95d8" d="M88.49 127.19s-28.17-.35-29.11-.85c0-31.21.06-62.83 0-94l9.36 2.64.48 89.02z" transform="translate(-.98 -.52)"/><g id="a7ce29dd-2251-4ad3-9fd8-5b5dc2a54eb9" data-name="clair"><path class="f2363cc5-4463-491f-b547-090b56ec95d8" d="m0 407.14 9.69 3.17L78 346.25l-8.11-1.94L0 407.14zM261.1 454.02l10.28 1.19 66.96-65.87-8.62-1.6-68.62 66.28zM111.56 0 58.42 31.78l9.36 2.64L120.36 3.3l2.74-1.62-2.57-.36L111.56 0zM383.74 40.62l-11.21-.8-52.39 33.24 10.06 1.84 53.54-34.28z"/></g></g><g id="e6de6100-4dba-42bf-9649-7389617805ef" data-name="side"><path class="bfe9a988-3ec8-40ad-a4e3-e544983fd434" d="m453.13 308.64.63-159.63-70.02-108.39L330.2 74.9l.26 90.92h26.37l-18.49 224.31-66.96 65.08v41.27l24.93 5.28-.93 319.91 8.25-6.32 149.65-543.7-.21 21.51-142.1 516.55-1.61 1.24 6.94-5.32 136.83-496.99zM324.06 799.15l-7.76 6.48 11.99-9.2 124.7-453.24.05-12.13-128.98 468.09zM335.43 790.95l-1.32 1.02 6.87-5.27 111.79-407.64v21.25l.22-57.12-.22 24-117.34 423.76zM343 785.15l108.58-83.28 1.18-299.85L347.4 781.78l-4.4 3.37z"/><path style="fill:#bf0000;stroke-width:.5px;stroke-miterlimit:10;stroke:#b5b5b5" d="m303.63 815.35 5.73-4.4-5.73 4.4z"/><path class="f2363cc5-4463-491f-b547-090b56ec95d8" d="m453.07 293.16.21-21.51-149.65 543.7 5.73-4.4 1.61-1.24 142.1-516.55z"/><path class="bd2eb1e6-1fcd-470a-94bd-031813069043" d="M453.13 330.74v-22.1l-.09 22.42.09-.32zM316.3 805.63z"/><path style="fill:#9c929c" d="m453.04 331.06.09-22.42L316.3 805.63l7.76-6.48 128.98-468.09z"/><path class="acac5748-74a5-4ed6-bdf8-e67e8dba370d" d="M452.99 343.19zM328.29 796.43l5.82-4.46-5.82 4.46z"/><path d="m334.11 791.97 1.32-1.02 117.34-423.76.22-24-124.7 453.24 5.82-4.46z"/><path class="f789876b-2689-4fd7-a5f9-fa0504abc2b8" d="m340.98 786.7 2.02-1.55-2.02 1.55zM452.77 402v-1.69l-.01 1.71.01-.02z"/><path style="fill:#e20207" d="m340.98 786.7 2.02-1.55 4.4-3.37 105.36-379.76.01-1.71v-21.25L340.98 786.7z"/></g><g id="bc468501-0883-409b-b654-e1ee196117fc" data-name="panel"><path class="b51fc9ab-e3d7-499b-8993-f489469da451" d="m10.48 450.07 250.42 44.11.2-40.16L9.69 410.31l.79 39.76z"/><path class="bf2215b5-2437-4f50-a0dd-faefbb76f2be" d="m79.37 345.21-69.68 65.1 251.41 43.71 68.62-66.28-250.35-42.53z"/></g><g id="a1c8cfcb-415a-41a3-9dae-cb468014de64" data-name="ecran"><path class="b51fc9ab-e3d7-499b-8993-f489469da451" d="M96.84 129.36 79.7 347.72l250.52 42.43L347.82 168zm224.28 67.76c0 .2-.29.32-.48.49l-10.43 144.83a35.43 35.43 0 0 1-4.3 3.78l1.4.29v10.7s-1.4 4.75-11.08 2.64c-11.19-2.44-178.55-31.91-178.55-31.91l8.72-6.78v-1.39s-2.46.52-6-7l-12.48 2.77h-4l11.34-158.77s4-6.85 10.81-6.59 191.16 30.59 191.16 30.59 6.17 1.07 3.89 16.35z" transform="translate(-.98 -.52)"/><path d="M317.28 180S133 149.66 126.12 149.4s-10.81 6.6-10.81 6.6l-11.74 160.08h4.35l12.29-2.68c-.1-.23-.74-1.57-.85-1.8L131 166.54s2.11-5.54 7.12-7.38l177.49 27.16a20.77 20.77 0 0 1 5.11 9.76l-.05.75c.19-.17.62.66.66.47 3.23-14.06-4.05-17.3-4.05-17.3z" transform="translate(-.98 -.52)" style="fill:#151312"/><path d="m125.32 320-8.56 8s164.63 29.3 178.61 32.24c10.36 2.17 14.43-3.58 14.43-3.58l.61-7.37.39-7.71-4.89 3.84a20.85 20.85 0 0 1-7.73 3.87z" transform="translate(-.98 -.52)" style="fill:#555353"/><path d="M319.5 197.81c.45-.36.83-.69 1.14-1l.66-.52a20.31 20.31 0 0 0-5.72-10l-177.49-27.13c-5 1.84-7.12 7.38-7.12 7.38L119.36 311.6l.32.66c3.54 7.52 6.28 8 6.28 8l.44.08 171.78 28.93a20.85 20.85 0 0 0 7.73-3.87c2.57-1.91 4.89-3.84 4.89-3.84l10.5-145.29c-.44.46-1.05.96-1.8 1.54zM143.83 302.35z" transform="translate(-.98 -.52)" style="fill:#008aa6"/></g><g id="a42d8ed3-64e1-422d-bbc0-379845d59b12" data-name="top"><path id="ac924438-e18f-4503-ba92-32d555c8586e" data-name="marquee" class="b51fc9ab-e3d7-499b-8993-f489469da451" d="m68.24 123.5 251.47 39.03.43-89.47L67.78 34.42l.46 89.08z"/><path style="stroke-miterlimit:10;stroke:#b5b5b5;fill:#373735" d="m128.84 2.64-5.74-.96-55.32 32.74 252.36 38.64 52.39-33.24L128.84 2.64z"/></g><g id="f1ddfcfd-e1f1-4009-9e41-19dfeee206fb" data-name="stickp1"><path class="b0b618e2-4b26-4fbf-ab17-0d5620807174" d="M68.92 377.27v5.16H62.4v-5.16c-5.06.64-8.77 2.7-8.77 5.16 0 3 5.38 5.35 12 5.35s12-2.39 12-5.35c.06-2.43-3.63-4.52-8.71-5.16z" transform="translate(-.98 -.52)"/><path class="a079449e-710f-4699-9712-8ef5808d08b8" d="M68.92 377.27v-17.78a12.18 12.18 0 0 1-3 .39 12.4 12.4 0 0 1-3.48-.49v17.88a26.67 26.67 0 0 1 6.52 0z" transform="translate(-.98 -.52)"/><path class="a079449e-710f-4699-9712-8ef5808d08b8" d="M68.92 382.43v-5.16a26.67 26.67 0 0 0-6.52 0v5.16z" transform="translate(-.98 -.52)"/><path class="be02b4cf-8eb7-440e-a7c5-cdca86046874" d="M68.92 358.89v.6a11.24 11.24 0 0 0 8.77-10.72c0-6.14-5.29-11.11-11.81-11.11s-11.82 5-11.82 11.11a11.22 11.22 0 0 0 8.34 10.62v-.5z" transform="translate(-.98 -.52)"/><path class="a079449e-710f-4699-9712-8ef5808d08b8" d="M68.92 359.49v-.6H62.4v.5a12.4 12.4 0 0 0 3.48.49 12.18 12.18 0 0 0 3.04-.39z" transform="translate(-.98 -.52)"/><path class="be02b4cf-8eb7-440e-a7c5-cdca86046874" d="M68.92 359.49v-.6H62.4v.5a12.4 12.4 0 0 0 3.48.49 12.18 12.18 0 0 0 3.04-.39z" transform="translate(-.98 -.52)"/></g><g id="a392b179-4292-49d7-8950-acd6e50cf0f3" data-name="stickp2"><path class="b0b618e2-4b26-4fbf-ab17-0d5620807174" d="M198.88 399.49v5.16h-6.53v-5.16c-5 .64-8.77 2.7-8.77 5.16 0 3 5.39 5.35 12 5.35s12-2.39 12-5.35c.07-2.46-3.64-4.52-8.7-5.16z" transform="translate(-.98 -.52)"/><path class="a079449e-710f-4699-9712-8ef5808d08b8" d="M198.88 399.49v-17.78a12.2 12.2 0 0 1-3 .39 12.83 12.83 0 0 1-3.48-.49v17.88a26.75 26.75 0 0 1 6.53 0z" transform="translate(-.98 -.52)"/><path class="a079449e-710f-4699-9712-8ef5808d08b8" d="M198.88 404.65v-5.16a26.75 26.75 0 0 0-6.53 0v5.16z" transform="translate(-.98 -.52)"/><path class="a5baccb2-2060-4df5-a4df-bfbc6421f7bd" d="M198.88 381.11v.6a11.24 11.24 0 0 0 8.77-10.71c0-6.14-5.29-11.11-11.82-11.11S184 364.85 184 371a11.22 11.22 0 0 0 8.34 10.62v-.5z" transform="translate(-.98 -.52)"/><path class="a079449e-710f-4699-9712-8ef5808d08b8" d="M198.88 381.71v-.6h-6.53v.5a12.83 12.83 0 0 0 3.48.49 12.2 12.2 0 0 0 3.05-.39z" transform="translate(-.98 -.52)"/><path class="a5baccb2-2060-4df5-a4df-bfbc6421f7bd" d="M198.88 381.71v-.6h-6.53v.5a12.83 12.83 0 0 0 3.48.49 12.2 12.2 0 0 0 3.05-.39z" transform="translate(-.98 -.52)"/></g><g id="e5403cf4-0364-48fd-8476-22c5a3b5d50d" data-name="boutons P1"><g id="f67d939a-6b5f-4bb0-8f8d-85a6ac406a69" data-name="4"><path class="a41fe13f-a927-4717-ab95-a79724f00d8e" d="M92.54 389.14c-3.86 0-8.12 1.53-8.12 4.87 0 2.95 4.1 4.62 7.94 4.62 4.11 0 8-1.73 8-4.88-.04-2.35-3.88-4.61-7.82-4.61zm-.18 8.63c-3.86 0-7-1.74-7-3.89s3.13-3.89 7-3.89 7 1.74 7 3.89-3.14 3.89-7 3.89z" transform="translate(-.98 -.52)"/><path d="M92.36 390c-3.86 0-7 1.74-7 3.89s3.13 3.89 7 3.89 7-1.74 7-3.89-3.14-3.89-7-3.89z" transform="translate(-.98 -.52)" style="fill:url(#eb94ad0c-156a-4dfb-9a7d-dce7f56c40a4)"/></g><g id="b9e19819-fe12-442d-8a44-874d0e87cbb9" data-name="5"><path class="a41fe13f-a927-4717-ab95-a79724f00d8e" d="M114.79 389.14c-3.86 0-8.12 1.53-8.12 4.87 0 2.95 4.1 4.62 7.94 4.62 4.11 0 8-1.73 8-4.88-.04-2.35-3.88-4.61-7.82-4.61zm-.18 8.63c-3.86 0-7-1.74-7-3.89s3.13-3.89 7-3.89 7 1.74 7 3.89-3.14 3.89-7 3.89z" transform="translate(-.98 -.52)"/><path d="M114.61 390c-3.86 0-7 1.74-7 3.89s3.13 3.89 7 3.89 7-1.74 7-3.89-3.14-3.89-7-3.89z" transform="translate(-.98 -.52)" style="fill:url(#a9b37ed5-9e25-4638-a8b6-d22e9c1761cb)"/></g><g id="b3b966b0-1978-47d7-8ad6-f26e6b34e439" data-name="6"><path class="a41fe13f-a927-4717-ab95-a79724f00d8e" d="M133.35 395.3c-3.86 0-8.13 1.53-8.13 4.87 0 3 4.11 4.62 7.95 4.62 4.1 0 8-1.73 8-4.88-.04-2.35-3.88-4.61-7.82-4.61zm-.18 8.63c-3.86 0-7-1.74-7-3.89s3.13-3.89 7-3.89 7 1.74 7 3.89-3.17 3.89-7 3.89z" transform="translate(-.98 -.52)"/><path d="M133.17 396.15c-3.86 0-7 1.74-7 3.89s3.13 3.89 7 3.89 7-1.74 7-3.89-3.17-3.89-7-3.89z" transform="translate(-.98 -.52)" style="fill:url(#b5ba1916-5fcc-421a-86be-6c4794253669)"/></g><g id="afb7677e-1dca-46b8-ab4f-c7778b6d77fe" data-name="3"><path class="a41fe13f-a927-4717-ab95-a79724f00d8e" d="M139.39 383c-3.86 0-8.13 1.53-8.13 4.88 0 2.95 4.11 4.61 8 4.61 4.1 0 8-1.73 8-4.88-.09-2.31-3.93-4.61-7.87-4.61zm-.18 8.63c-3.86 0-7-1.74-7-3.89s3.13-3.89 7-3.89 7 1.75 7 3.89-3.14 3.93-7 3.93z" transform="translate(-.98 -.52)"/><path d="M139.21 383.89c-3.86 0-7 1.75-7 3.89s3.13 3.89 7 3.89 7-1.74 7-3.89-3.14-3.89-7-3.89z" transform="translate(-.98 -.52)" style="fill:url(#a110101d-b311-4c1e-a0a6-29bdfb8d722c)"/></g><g id="bdc5e855-fc97-4923-a74d-031ce203fbf5" data-name="2"><path class="a41fe13f-a927-4717-ab95-a79724f00d8e" d="M121.79 377.35c-3.86 0-8.12 1.53-8.12 4.88 0 2.95 4.1 4.61 7.94 4.61 4.11 0 8-1.73 8-4.88-.04-2.34-3.88-4.61-7.82-4.61zm-.18 8.64c-3.86 0-7-1.74-7-3.89s3.13-3.89 7-3.89 7 1.74 7 3.89-3.14 3.9-7 3.9z" transform="translate(-.98 -.52)"/><path d="M121.61 378.21c-3.86 0-7 1.74-7 3.89s3.13 3.89 7 3.89 7-1.74 7-3.89-3.14-3.89-7-3.89z" transform="translate(-.98 -.52)" style="fill:url(#ad0eca1b-4ddf-4724-ae8b-f94cdf2dd1db)"/></g><g id="b8706bf3-181b-43fe-926f-cd971d2503a0" data-name="1"><path class="a41fe13f-a927-4717-ab95-a79724f00d8e" d="M100.5 377.78c-3.86 0-8.13 1.53-8.13 4.88 0 2.95 4.11 4.62 7.95 4.62 4.1 0 8-1.73 8-4.88-.04-2.35-3.88-4.62-7.82-4.62zm-.18 8.64c-3.86 0-7-1.74-7-3.89s3.13-3.89 7-3.89 7 1.74 7 3.89-3.14 3.89-7 3.89z" transform="translate(-.98 -.52)"/><path d="M100.32 378.64c-3.86 0-7 1.74-7 3.89s3.13 3.89 7 3.89 7-1.74 7-3.89-3.14-3.89-7-3.89z" transform="translate(-.98 -.52)" style="fill:url(#a36cefcc-f045-48f2-a04c-b22693570a8a)"/></g></g><g id="ad4eae1a-655b-4fee-84f8-55d8ab6e289e" data-name="boutons P2"><g id="b90bce6a-eb03-4fed-aa85-2701248c7d89" data-name="1"><path class="b90db426-e586-42f4-ae33-32a479d69a88" d="M225.69 399.93c-3.86 0-8.13 1.53-8.13 4.87 0 2.95 4.11 4.62 7.95 4.62 4.1 0 8-1.73 8-4.88-.04-2.35-3.88-4.61-7.82-4.61zm-.18 8.63c-3.86 0-7-1.74-7-3.89s3.13-3.89 7-3.89 7 1.74 7 3.89-3.14 3.89-7 3.89z" transform="translate(-.98 -.52)"/><path d="M225.51 400.78c-3.86 0-7 1.74-7 3.89s3.13 3.89 7 3.89 7-1.74 7-3.89-3.14-3.89-7-3.89z" transform="translate(-.98 -.52)" style="fill:url(#e01c6c56-9f86-4497-a940-9031597f0038)"/></g><g id="fb6b0cd1-b3cb-4fcc-b3c6-a592e9643544" data-name="2"><path class="b90db426-e586-42f4-ae33-32a479d69a88" d="M247 399.49c-3.86 0-8.13 1.54-8.13 4.88 0 2.95 4.11 4.62 7.95 4.62 4.1 0 8-1.73 8-4.88-.07-2.35-3.91-4.62-7.82-4.62zm-.18 8.64c-3.86 0-7-1.74-7-3.89s3.13-3.89 7-3.89 7 1.74 7 3.89-3.17 3.89-7.03 3.89z" transform="translate(-.98 -.52)"/><path d="M246.79 400.35c-3.86 0-7 1.74-7 3.89s3.13 3.89 7 3.89 7-1.74 7-3.89-3.14-3.89-7-3.89z" transform="translate(-.98 -.52)" style="fill:url(#bf591a6c-e16e-4ce4-96f6-3e3281025304)"/></g><g id="ef2a7a7f-54cc-4d96-a730-63ac37c2f2fa" data-name="3"><path class="b90db426-e586-42f4-ae33-32a479d69a88" d="M264.58 405.18c-3.86 0-8.12 1.53-8.12 4.88 0 2.95 4.1 4.61 7.94 4.61 4.1 0 8-1.73 8-4.88-.04-2.35-3.88-4.61-7.82-4.61zm-.18 8.64c-3.86 0-7-1.75-7-3.89s3.13-3.89 7-3.89 7 1.74 7 3.89-3.14 3.89-7 3.89z" transform="translate(-.98 -.52)"/><path d="M264.4 406c-3.86 0-7 1.74-7 3.89s3.13 3.89 7 3.89 7-1.75 7-3.89-3.14-3.89-7-3.89z" transform="translate(-.98 -.52)" style="fill:url(#ac5afc72-0d40-4f28-bf8a-4ff848da76e5)"/></g><g id="a6321426-93f7-4289-8a4a-fc9c5cb47997" data-name="4"><path class="b90db426-e586-42f4-ae33-32a479d69a88" d="M258.54 417.44c-3.86 0-8.13 1.53-8.13 4.88 0 2.95 4.11 4.61 8 4.61 4.1 0 8-1.73 8-4.88-.09-2.35-3.93-4.61-7.87-4.61zm-.18 8.64c-3.86 0-7-1.75-7-3.89s3.13-3.89 7-3.89 7 1.74 7 3.89-3.14 3.89-7 3.89z" transform="translate(-.98 -.52)"/><path d="M258.36 418.3c-3.86 0-7 1.74-7 3.89s3.13 3.89 7 3.89 7-1.75 7-3.89-3.14-3.89-7-3.89z" transform="translate(-.98 -.52)" style="fill:url(#b64e6dd3-a651-4ecf-a1a5-c37ccf4b577a)"/></g><g id="a574306e-48e3-4110-bcdf-7978be5737c8" data-name="5"><path class="b90db426-e586-42f4-ae33-32a479d69a88" d="M240 411.28c-3.86 0-8.13 1.53-8.13 4.88 0 2.95 4.11 4.61 7.95 4.61 4.1 0 8-1.73 8-4.88-.07-2.35-3.91-4.61-7.82-4.61zm-.18 8.63c-3.86 0-7-1.74-7-3.89s3.13-3.89 7-3.89 7 1.75 7 3.89-3.17 3.89-7.03 3.89z" transform="translate(-.98 -.52)"/><path d="M239.79 412.13c-3.86 0-7 1.75-7 3.89s3.13 3.89 7 3.89 7-1.74 7-3.89-3.14-3.89-7-3.89z" transform="translate(-.98 -.52)" style="fill:url(#a7251045-72f1-44e7-a13d-6f47203ad90e)"/></g><g id="ea031e36-f6dc-4327-a48a-e49f2b52d367" data-name="6"><path class="b90db426-e586-42f4-ae33-32a479d69a88" d="M217.73 411.28c-3.86 0-8.13 1.53-8.13 4.88 0 2.95 4.11 4.61 8 4.61 4.1 0 8-1.73 8-4.88-.09-2.35-3.93-4.61-7.87-4.61zm-.18 8.63c-3.86 0-7-1.74-7-3.89s3.13-3.89 7-3.89 7 1.75 7 3.89-3.14 3.89-7 3.89z" transform="translate(-.98 -.52)"/><path d="M217.55 412.13c-3.86 0-7 1.75-7 3.89s3.13 3.89 7 3.89 7-1.74 7-3.89-3.14-3.89-7-3.89z" transform="translate(-.98 -.52)" style="fill:url(#be997fee-d22e-48cd-a504-adaac2694d92)"/></g></g><path class="e5fc815d-1a69-4831-8a48-691b80de504c" d="M228.57 237.19v.07l-5.92-1v-.08zM236.56 238.53a.13.13 0 0 0 0 .06l-5.72-1v-.06z" transform="translate(-.98 -.52)"/><path class="f4fd73d5-f52b-4f19-9916-dec536893c32" d="m210.17 273.38-65.56-11c-.87-.14-.87-.14-.74-.92.25-1.54.47-3.08.75-4.61.78-4.31 1.48-8.63 2.22-12.95.09-.48.22-1 .29-1.44 0-.18.12-.23.31-.19l.75.13 119.31 19.98a16.13 16.13 0 0 1 4.69 1.42 11.54 11.54 0 0 1 5.67 5.9 8.36 8.36 0 0 1 .63 3.88c0 .38-.08.76-.15 1.14l-1.56 9.36c-.07.39-.13.42-.54.36l-40.11-6.72zm14.68-7.7c-.4 2.35-.79 4.71-1.19 7.07 0 .23 0 .34.3.38 1 .15 1.95.32 2.93.49.51.09.51.09.59-.37q.69-4.22 1.4-8.43c0-.08 0-.21.12-.22s.13.1.17.17c1.69 3.14 3.43 6.26 5.06 9.42a2.38 2.38 0 0 0 3.55.6c.9-.94 1.91-1.79 2.87-2.68l4.89-4.53c.08-.07.15-.22.26-.17s0 .2 0 .31v.12c-.47 2.79-.93 5.58-1.4 8.37 0 .25 0 .35.31.4 1 .16 2 .32 3.06.51.34.07.45 0 .49-.32l2.32-13.83a1.32 1.32 0 0 0-.25-1 2.34 2.34 0 0 0-3.26-.37l-2.16 2-8.12 7.4c-.25.23-.28.22-.45-.08-2.2-4.06-4.42-8.11-6.61-12.17a2.14 2.14 0 0 0-1.43-1.06A1.74 1.74 0 0 0 226 259zm-4.51-.71c.38-2.31.76-4.61 1.16-6.92a1.32 1.32 0 0 0-.45-1.21 2.4 2.4 0 0 0-3.17 0c-2.39 2.24-4.82 4.43-7.24 6.63l-2.95 2.7c-.13.12-.23.25-.37 0l-3.44-6.31c-1.1-2-2.19-4-3.3-6a2.24 2.24 0 0 0-2.21-1 1.52 1.52 0 0 0-1.5 1.37q-1.16 6.86-2.3 13.71c0 .28.05.37.35.41 1 .15 2 .32 3 .5.44.07.45.08.51-.3.46-2.73.91-5.46 1.37-8.19 0-.13 0-.27.06-.4s0-.16.11-.17.1.08.13.14.18.34.28.51c1.63 3 3.29 6 4.88 9.07a2.34 2.34 0 0 0 3.35.6c.47-.47 1-.91 1.48-1.37l6.5-6c.06-.05.09-.14.19-.11s.07.14.06.22c-.14.81-.28 1.62-.41 2.44-.35 2.06-.69 4.13-1 6.2 0 .22 0 .32.29.36l3 .5c.44.07.45.07.52-.31q.51-3.6 1.1-7.04zm33.15 5.67c-.38 2.28-.76 4.57-1.15 6.85-.06.31.06.41.38.45 1 .16 2 .32 3 .5.33.07.45 0 .5-.31.16-1 .35-2.08.51-3.12 0-.23.12-.33.4-.28l12.77 2.14c.33.05.39.18.34.45-.18 1-.34 2.08-.53 3.12-.05.25 0 .35.32.4 1 .15 2 .32 3 .49.45.07.46.07.53-.34l1.22-7.32a6.88 6.88 0 0 0-2.51-6.52 12.61 12.61 0 0 0-6.36-3c-2.38-.41-4.76-.8-7.13-1.19-.72-.12-1.45-.26-2.17-.35a1.6 1.6 0 0 0-1.91 1.29c-.46 2.27-.83 4.5-1.21 6.74zm-62.24-10.42 1.14-6.79a1.24 1.24 0 0 0 0-.47 1.91 1.91 0 0 0-1.63-1.33c-1.55-.26-3.1-.53-4.65-.77-1.84-.3-3.66-.71-5.51-.87a11.55 11.55 0 0 0-7 1.39 6.55 6.55 0 0 0-3.37 4.67q-.63 3.74-1.25 7.47c-.07.4-.07.4.36.47 1 .17 2 .32 2.93.5.33.06.45 0 .5-.31.15-1 .34-2.06.5-3.09 0-.29.17-.35.48-.3l12.67 2.12c.34 0 .42.16.37.46-.19 1-.35 2.08-.54 3.11 0 .26 0 .36.32.4 1 .16 2 .32 3 .51.33.06.44 0 .49-.32.42-2.28.81-4.57 1.19-6.85zm-38.3 1 6.47 1.08a7.76 7.76 0 0 0 2.76 0 3.93 3.93 0 0 0 3.34-2.92c.64-3.78 1.26-7.55 1.9-11.33.05-.27 0-.37-.33-.42-1-.15-2-.32-3-.5-.36-.07-.46 0-.51.33q-.92 5.58-1.86 11.15a1.08 1.08 0 0 1-1.24.95 4.41 4.41 0 0 1-.73-.08c-1-.18-2-.37-3.06-.54l-7-1.15c-.28-.05-.35-.15-.31-.38.11-.59.19-1.18.31-1.76.06-.28 0-.4-.35-.45-.84-.13-1.68-.26-2.52-.42-.34-.07-.44 0-.49.32-.24 1.49-.49 3-.74 4.45-.07.42-.07.42.42.5zM230.83 237.63l5.72 1c.15.09.15.2.13.35-.37 2.17-.73 4.34-1.11 6.51 0 .29 0 .38.34.43 3.09.5 6.18 1 9.27 1.54.32.05.34.16.31.44-.06.67-.23 1.33-.32 2-.22 1.55-.54 3.09-.8 4.63-.1.59-.17 1.19-.26 1.78 0 .2-.12.31-.4.26L228.57 254c-.65-.11-.65-.11-.56-.68q1.29-7.69 2.57-15.38c.02-.15.02-.31.25-.31zm3.94 12.7c-.13.78-.25 1.56-.39 2.34-.05.27 0 .38.33.43 1.06.16 2.11.34 3.16.53.32.06.44 0 .49-.31.25-1.55.51-3.1.78-4.66 0-.24 0-.34-.31-.38q-1.62-.25-3.24-.54c-.28-.05-.39 0-.43.27-.16.78-.26 1.55-.39 2.32zM255.63 249.17c2.55.43 5.09.86 7.64 1.27.34.06.42.17.37.47q-.7 4.14-1.39 8.3c-.07.37-.1.4-.52.33L246.38 257c-.27-.05-.34-.16-.3-.39q.72-4.21 1.41-8.43c0-.28.18-.33.47-.28 2.55.44 5.11.86 7.67 1.29zm1.31 4.88c.14-.8.27-1.6.41-2.4 0-.23 0-.36-.3-.4l-3.44-.58c-.26 0-.38 0-.42.27l-.81 4.85c0 .25.05.36.33.41l3.37.56c.3.06.42 0 .46-.3.13-.8.27-1.6.4-2.41zM173.53 244.78l-7.64-1.27c-.31 0-.37-.15-.33-.42q.72-4.2 1.42-8.42c0-.25.13-.32.4-.27l15.36 2.6c.41.07.43.11.37.49-.26 1.55-.53 3.11-.78 4.66 0 .31-.17.37-.5.32-3.07-.53-6.15-1-9.22-1.55-.46-.08-.46-.08-.52.32s-.11.7-.19 1 0 .35.31.4c2.06.33 4.11.68 6.17 1l3.16.53c.32.05.42.17.37.44s-.14.74-.19 1.11-.18.38-.51.32zm.92-5.45c.56.1 1.13.18 1.69.29.25 0 .35 0 .38-.25 0-.39.12-.78.2-1.17 0-.21 0-.32-.26-.36l-3.41-.57c-.22 0-.33 0-.36.23q-.08.62-.18 1.23c0 .23.06.3.29.33.55.07 1.1.17 1.65.27zM211.28 241.75l7.64 1.28c.44.07.5.14.42.52-.43 2-.7 4-1.05 6-.14.74-.27 1.48-.37 2.23 0 .29-.15.37-.49.31-2.08-.36-4.17-.7-6.26-1l-9-1.51c-.42-.07-.43-.08-.37-.47.26-1.56.53-3.11.77-4.67 0-.32.18-.37.52-.31l9.16 1.54c.46.07.46.07.53-.33s.09-.67.17-1 0-.4-.36-.46c-2.34-.37-4.68-.77-7-1.16l-2.31-.38c-.24 0-.32-.12-.28-.34a10.85 10.85 0 0 0 .21-1.27c0-.27.16-.31.43-.26l5.37.9 2.27.38zm-1.15 7.25c.55.09 1.11.17 1.66.27.21 0 .33 0 .36-.21l.21-1.23c0-.19-.05-.29-.27-.33l-3.33-.56c-.24 0-.35 0-.38.24 0 .4-.11.79-.19 1.17-.05.23.05.33.29.37.52.07 1.1.17 1.65.28zM268.74 251.36c.87.15 1.74.31 2.62.44.31 0 .38.18.34.43-.08.4-.13.8-.21 1.2 0 .21 0 .3.27.34l3.36.56c.28 0 .38 0 .41-.27.06-.41.15-.82.2-1.23 0-.23.15-.27.37-.24l5.4.91c.21 0 .3.13.27.33-.08.43-.16.86-.22 1.29 0 .23-.16.29-.41.25-.44-.09-.89-.15-1.34-.24-.24 0-.33 0-.36.24-.05.4-.13.8-.19 1.2 0 .23-.15.3-.4.25-.47-.08-.94-.15-1.41-.24-.17 0-.24 0-.29.17-.13.44-.08.91-.25 1.34-.07.18.07.24.24.27l1.38.22c.28 0 .38.15.33.41s-.13.78-.21 1.17c0 .21.05.31.28.34l1.34.22c.25 0 .34.13.3.36-.09.42-.17.84-.22 1.27 0 .22-.15.27-.36.24l-.65-.11-4.62-.77c-.45-.08-.45-.08-.38-.49s.12-.76.19-1.14c.05-.21 0-.3-.27-.34l-3.44-.58c-.22 0-.29 0-.31.21-.06.4-.16.8-.19 1.21s-.19.37-.5.32l-4.72-.8c-1.16-.19-.93-.1-.8-1 0-.25.09-.49.12-.74s.16-.29.4-.25c.45.09.9.15 1.34.24.27.05.39 0 .42-.26s.14-.78.19-1.17.16-.31.41-.26c.46.09.92.15 1.37.24.21 0 .3 0 .32-.2.06-.43.13-.85.22-1.27 0-.21-.05-.28-.26-.31l-1.38-.23c-.24 0-.34-.12-.29-.36s.14-.78.21-1.17c0-.23 0-.35-.31-.38-.45-.06-.9-.15-1.35-.22-.25 0-.34-.14-.29-.37q.12-.63.21-1.26c0-.24.16-.29.4-.24zM222.64 236.28l5.92 1a.42.42 0 0 1 .05.36q-1.31 7.77-2.6 15.56c0 .28-.17.37-.48.31s-.88-.19-1.33-.26l-3.89-.62c-.46-.08-.45-.08-.39-.49q1.31-7.74 2.6-15.49c.02-.14 0-.28.12-.37zM191.71 247.82l-7.71-1.28c-.3 0-.4-.14-.35-.43q.72-4.2 1.41-8.4c0-.26.15-.32.42-.27l15.39 2.56c.31.05.42.18.36.45s-.11.72-.19 1.08-.13.41-.55.34l-4.16-.7-5.06-.85c-.28 0-.37 0-.41.25-.22 1.39-.46 2.78-.69 4.17a2.74 2.74 0 0 1 0 .28c-.11.6-.11.6.58.72l8.92 1.49c.42.07.45.11.39.5s-.15.72-.18 1.08-.19.35-.48.3c-.56-.11-1.12-.2-1.68-.29z" transform="translate(-.98 -.52)"/><path d="M291.07 282.1c-.25 1.47-.49 2.94-.74 4.41-.07.42-.07.42-.51.34l-4.27-.71c-.27 0-.37-.13-.3-.37s.07-.41.11-.62-.06-.27-.25-.29l-.49-.05c-.39-.06-.49 0-.51.37v.19c0 .43-.14.5-.63.42-1.39-.23-2.79-.47-4.19-.69-.32-.05-.4-.19-.36-.45.5-3 1-5.91 1.49-8.86.06-.36.14-.42.55-.33 2.95.58 5.92 1 8.87 1.52.52.09 1 .13 1.55.22s.47.1.4.52c-.24 1.46-.49 2.92-.73 4.38zm-8.37-.17 1.58.27c.22 0 .32 0 .35-.22.1-.59.2-1.19.31-1.79 0-.21-.06-.3-.29-.34l-3.13-.52c-.21 0-.31 0-.35.22-.08.59-.18 1.19-.29 1.79 0 .21 0 .31.27.34zm5.47-1.49c-.52-.08-1-.16-1.55-.26-.25-.05-.36 0-.39.24-.09.59-.19 1.19-.29 1.78-.05.23.05.29.28.33 1 .16 2 .33 3 .51.28.05.39 0 .43-.27.08-.56.17-1.13.28-1.69 0-.23 0-.35-.3-.39-.48-.08-.97-.17-1.46-.25z" transform="translate(-.98 -.52)" style="fill:#2785db"/><path d="M292.87 271.31c-.25 1.48-.5 3-.74 4.44-.07.38-.11.4-.52.34l-2.86-.48c-.41-.07-.49-.18-.43-.54.14-.85.28-1.71.43-2.56a.34.34 0 0 1 0-.1c.2-.63.12-.52.72-.43l1.48.25c.26 0 .4 0 .44-.25.09-.59.19-1.18.29-1.76 0-.21 0-.33-.3-.38l-8-1.34c-.26 0-.39.05-.42.28-.09.57-.19 1.14-.28 1.7 0 .23.05.36.31.41l3.06.52a.25.25 0 0 0 .33-.17 1.81 1.81 0 0 0 .12-.64c0-.19.11-.24.27-.29a.45.45 0 0 1 .2 0c.85.09.89.14.77.88-.21 1.26-.43 2.51-.63 3.77 0 .26-.17.34-.43.3l-5.43-.91c-.49-.08-.55-.15-.48-.58.49-3 1-5.91 1.48-8.87 0-.17.09-.23.28-.22s.55 0 .83.08l9.77 1.63c.55.09.55.1.47.6l-.72 4.32z" transform="translate(-.98 -.52)" style="fill:#44c047"/><path d="M289.84 254.78c1.75.29 3.49.59 5.24.87.3 0 .4.13.35.42-.51 3-1 5.95-1.49 8.92-.05.3-.16.38-.49.32-1.4-.25-2.8-.48-4.2-.71-.36-.06-.42-.15-.36-.47 0-.12.06-.23.08-.34.08-.47.08-.47-.46-.56h-.21c-.5-.08-.51-.08-.54.39 0 .18-.1.34-.11.52s-.18.19-.35.16l-4.44-.74c-.23 0-.32-.15-.29-.35.17-1 .35-2 .51-3.06 0-.28.23-.27.45-.23l1.83.3c.8.15 1.61.24 2.4.44.25.06.44 0 .48-.27.07-.57.17-1.14.28-1.7.05-.27 0-.38-.34-.43-1.42-.22-2.83-.47-4.24-.7-.29 0-.4-.12-.35-.4.18-1 .33-2 .48-3 0-.26.15-.33.44-.28 1.77.31 3.55.6 5.33.9zm1.49 6.43c.51.08 1 .16 1.54.26.22 0 .35 0 .39-.21.09-.61.19-1.22.3-1.82 0-.2 0-.32-.27-.35l-3.09-.52c-.22 0-.32 0-.35.21-.09.63-.2 1.25-.31 1.88 0 .18 0 .26.24.29z" transform="translate(-.98 -.52)" style="fill:#eb1416"/><path class="f4fd73d5-f52b-4f19-9916-dec536893c32" d="m156.94 232.66 7.54 1.26c.53.09.53.09.45.57s-.13.7-.17 1-.16.33-.44.28l-9.3-1.57c-.33-.05-.41 0-.45.3-.35 2.17-.72 4.33-1.07 6.49-.05.31-.2.36-.51.31l-5.19-.87c-.3 0-.4-.14-.35-.42q.72-4.19 1.4-8.39c.05-.31.19-.34.48-.29z" transform="translate(-.98 -.52)"/><path class="e5fc815d-1a69-4831-8a48-691b80de504c" d="M224.85 265.68 226 259a1.74 1.74 0 0 1 2.34-1.33 2.14 2.14 0 0 1 1.43 1.06c2.19 4.06 4.41 8.11 6.61 12.17.17.3.2.31.45.08l8.14-7.43 2.16-2a2.34 2.34 0 0 1 3.26.37 1.32 1.32 0 0 1 .25 1q-1.17 6.91-2.32 13.83c0 .29-.15.39-.49.32-1-.19-2-.35-3.06-.51-.3-.05-.36-.15-.31-.4.47-2.79.93-5.58 1.4-8.37v-.12c0-.04.11-.25 0-.31s-.18.1-.26.17l-4.89 4.53c-1 .89-2 1.74-2.87 2.68a2.38 2.38 0 0 1-3.55-.6c-1.63-3.16-3.37-6.28-5.06-9.42 0-.07-.06-.19-.17-.17s-.11.14-.12.22l-1.4 8.43c-.08.46-.08.46-.59.37-1-.17-1.95-.34-2.93-.49-.28 0-.34-.15-.3-.38.4-2.36.79-4.72 1.19-7.07zM220.34 265q-.59 3.46-1.16 6.95c-.07.38-.08.38-.52.31l-3-.5c-.27 0-.32-.14-.29-.36.36-2.07.7-4.14 1-6.2.13-.82.27-1.63.41-2.44 0-.08.06-.18-.06-.22s-.13.06-.19.11l-6.5 6c-.5.46-1 .9-1.48 1.37a2.34 2.34 0 0 1-3.35-.6c-1.59-3-3.25-6.05-4.88-9.07-.1-.17-.19-.34-.28-.51s-.05-.14-.13-.14-.1.1-.11.17 0 .27-.06.4c-.46 2.73-.91 5.46-1.37 8.19-.06.38-.07.37-.51.3-1-.18-2-.35-3-.5-.3 0-.4-.13-.35-.41q1.16-6.86 2.3-13.71a1.52 1.52 0 0 1 1.5-1.37 2.24 2.24 0 0 1 2.21 1c1.11 2 2.2 4 3.3 6l3.44 6.31c.14.27.24.14.37 0l2.95-2.7c2.42-2.2 4.85-4.39 7.24-6.63a2.4 2.4 0 0 1 3.17 0 1.32 1.32 0 0 1 .45 1.21c-.4 2.31-.78 4.61-1.16 6.92zM253.49 270.64c.38-2.24.75-4.47 1.13-6.7a1.6 1.6 0 0 1 1.91-1.29c.72.09 1.45.23 2.17.35 2.37.39 4.75.78 7.13 1.19a12.61 12.61 0 0 1 6.36 3 6.88 6.88 0 0 1 2.51 6.52q-.6 3.66-1.22 7.32c-.07.41-.08.41-.53.34-1-.17-2-.34-3-.49-.29 0-.37-.15-.32-.4.19-1 .35-2.08.53-3.12.05-.27 0-.4-.34-.45l-12.77-2.14c-.28-.05-.36 0-.4.28-.16 1-.35 2.08-.51 3.12-.05.3-.17.38-.5.31-1-.18-2-.34-3-.5-.32 0-.44-.14-.38-.45.39-2.28.77-4.57 1.15-6.85zM264 273l6.37 1.07c.3 0 .43 0 .46-.28s.08-.52.12-.78a4.27 4.27 0 0 0-1.54-4.2 8.48 8.48 0 0 0-4-1.85c-2.25-.43-4.52-.78-6.77-1.17-.34-.06-.36.12-.4.33q-.44 2.69-.9 5.37c0 .29 0 .4.36.46zM191.25 260.22c-.38 2.28-.77 4.57-1.14 6.85-.05.3-.16.38-.49.32-1-.19-2-.35-3-.51-.29 0-.36-.14-.32-.4.19-1 .35-2.08.54-3.11.05-.3 0-.41-.37-.46l-12.67-2.12c-.31-.05-.44 0-.48.3-.16 1-.35 2.05-.5 3.09 0 .3-.17.37-.5.31-1-.18-1.95-.33-2.93-.5-.43-.07-.43-.07-.36-.47q.62-3.74 1.25-7.47a6.55 6.55 0 0 1 3.37-4.67 11.55 11.55 0 0 1 7-1.39c1.85.16 3.67.57 5.51.87 1.55.24 3.1.51 4.65.77a1.91 1.91 0 0 1 1.59 1.37 1.24 1.24 0 0 1 0 .47l-1.14 6.79zm-10.67-1.14c2.11.35 4.22.7 6.33 1.07.32.05.44 0 .48-.29.3-1.81.6-3.63.91-5.44 0-.26 0-.37-.33-.42q-3-.48-6-1a11.11 11.11 0 0 0-3.77 0 4.85 4.85 0 0 0-3.81 2.54 7.49 7.49 0 0 0-.52 2c-.07.4-.07.41.4.48zM153 261.25l-7-1.17c-.49-.08-.49-.08-.42-.5.25-1.48.5-3 .74-4.45.05-.28.15-.39.49-.32.84.16 1.68.29 2.52.42.31.05.41.17.35.45-.12.58-.2 1.17-.31 1.76 0 .23 0 .33.31.38l7 1.15c1 .17 2 .36 3.06.54a4.41 4.41 0 0 0 .73.08 1.08 1.08 0 0 0 1.24-.95q.94-5.58 1.86-11.15c0-.3.15-.4.51-.33 1 .18 2 .35 3 .5.3.05.38.15.33.42-.64 3.78-1.26 7.55-1.9 11.33a3.93 3.93 0 0 1-3.34 2.92 7.76 7.76 0 0 1-2.76 0l-6.41-1.08z" transform="translate(-.98 -.52)"/><path class="f4fd73d5-f52b-4f19-9916-dec536893c32" d="m264 273-6.33-1c-.34-.06-.41-.17-.36-.46q.47-2.68.9-5.37c0-.21.06-.39.4-.33 2.25.39 4.52.74 6.77 1.17a8.48 8.48 0 0 1 4 1.85 4.27 4.27 0 0 1 1.54 4.2c0 .26-.1.52-.12.78s-.16.33-.46.28zM180.58 259.08l-6.3-1.06c-.47-.07-.47-.08-.4-.48a7.49 7.49 0 0 1 .52-2 4.85 4.85 0 0 1 3.81-2.54 11.11 11.11 0 0 1 3.77 0q3 .51 6 1c.31.05.38.16.33.42-.31 1.81-.61 3.63-.91 5.44 0 .29-.16.34-.48.29-2.11-.37-4.22-.72-6.33-1.07z" transform="translate(-.98 -.52)"/></g><g id="acab4ecc-e13a-48ba-a99e-f655ce0d4c32" data-name="a7f77488-1c4f-4049-ac0c-35957b10274b"><path class="b22a53ee-d752-4825-811d-8fc2b11d1d64" d="m111.71 104.39 54.12 8.54 25 3.9 92.44 14.5a21.27 21.27 0 0 1 6.79 2l.4.34c4.73 2.87 7.19 8.06 5.92 12.52s-5.8 7.12-11.1 6.39l-184-29.15c-7.16-1.13-12.28-6.53-11.86-12.61.27-3.9 2.33-6.47 6.16-7.88a11.16 11.16 0 0 1 2-.35 23.39 23.39 0 0 1 5 .39zm129.53 31v3.85a3.26 3.26 0 0 0 .92 2.3c2.45 2.7 11.46 4.12 14.05 2.22 1.28-.92 1.21-4 1.21-4l-3-.48c-.06 0-2.52-.4-2.32 1.49.18 1.72-1.45 1.49-2.75 1.29s-2.71-.43-2.66-2.21c.08-2.4.11-4.79.09-7.2 0-1.66 1.28-1.59 2.53-1.4s3 .35 2.9 2.17v1.17c.53 0 4.32.65 4.86.74l-.05-2.72a4.4 4.4 0 0 0-2.22-2.07 19.41 19.41 0 0 0-10.8-1.77c-2 .29-2.72 1.25-2.75 3.24v3.37zm33.63-2.45a12.57 12.57 0 0 0-5.52-.1c-2.81.71-3.24 3.27-.87 5.38a23.6 23.6 0 0 0 3 2.12c1.5 1 3.06 1.83 4.55 2.81.83.57 1.64 1.34 1.2 2.26-.53 1.08-1.84.78-2.93.55s-2.29-.34-2.3-1.58v-1.29l-3.5-.55s-2.3.19-1.56 2a3.65 3.65 0 0 0 1.64 1.86 17.17 17.17 0 0 0 12.24 1.91c2.39-.59 2.63-3 .71-4.93a19.35 19.35 0 0 0-4.25-2.93 23 23 0 0 1-4-2.59c-.75-.67-1.22-1.49-.6-2.19s1.88-.53 2.94-.26 2 .54 2 1.71c0 .75 1.12 1 1.12 1 .71.08 2.13.31 2.13.31l2 .33a7.24 7.24 0 0 0-.68-2.56 6 6 0 0 0-2.44-1.89 15.45 15.45 0 0 0-5-1.31z" transform="translate(-.98 -.52)"/><path d="m169.11 131.37-2.81-.43-2.3-.36-1.37-3.11-5.85-.93-1.44 2.67-4.81-.79.18-.39c1.71-4.36 3.44-8.7 5.13-13.06l.18-.52 3.86.63 3.75.57 2.15 5.76s2.15 6.35 3.15 9.53zm-12-6.78 4.93.78c-.75-2.44-1.47-4.76-2.2-7.09h-.36c-.75 2.05-1.48 4.13-2.35 6.31zm-53.69-11.07c0-1.11.08-2.21 0-3.33a2.67 2.67 0 0 1 2.55-3 18.57 18.57 0 0 1 10.9 1.75 4.13 4.13 0 0 1 2 2.45 10.48 10.48 0 0 1 .24 2.22l-5.06-.77v-1.14c.1-1.8-1.54-2-2.84-2.15s-2.49-.27-2.48 1.38c0 2.38 0 4.76-.1 7.13-.07 1.76 1.33 2 2.59 2.19s2.87.42 2.7-1.28v-1.86l5.21.79v.36c.1 1.24-.4 3.11-1.2 3.7-2.55 1.88-11.39.49-13.79-2.18a3.29 3.29 0 0 1-.89-2.44v-3.82zm137.94 21.91v-3.36c0-2 .73-3 2.75-3.24a19.45 19.45 0 0 1 10.89 1.73 4.61 4.61 0 0 1 1.78 1.36 3.79 3.79 0 0 1 .44.71 3 3 0 0 1 .2 1.34 7.88 7.88 0 0 1-.15 1.38l-4.86-.74-.05-1.17c.08-1.82-1.59-2-2.91-2.17s-2.54-.26-2.52 1.39c0 2.41 0 4.82-.09 7.21-.05 1.77 1.38 2 2.66 2.21s2.93.42 2.75-1.29v-1.88c.06 0 2.43.38 2.49.42l2.84.45s.38 2.91-1.21 4c-2.61 1.87-11.6.47-14.06-2.22a3.3 3.3 0 0 1-.92-2.32c-.03-1.24-.02-2.53-.01-3.81zm-56.8-1.32a14.17 14.17 0 0 1-5.39-1.58c-1.49-.82-2.46-1.93-2.38-3.54v-1l5.08.83v.72a1.59 1.59 0 0 0 1.18 1.84c1.3.49 2.63.8 3.69.2s.46-1.49-.3-2.22a19.67 19.67 0 0 0-3.94-2.61 20 20 0 0 1-4.2-2.86c-2-2-1.78-4.49.8-5.07a16.73 16.73 0 0 1 11.59 1.82 4.08 4.08 0 0 1 1.53 1.5 3.25 3.25 0 0 1 .53 2v.32l-5.28-.87v-1c-.17-1.31-1.48-1.42-2.48-1.59s-2.13-.38-2.5.66.48 1.79 1.38 2.36c1.32.87 2.68 1.68 4 2.49a17.1 17.1 0 0 1 3.42 2.4c2.05 2 1.69 4.32-.81 5.09a12.39 12.39 0 0 1-6 0zm24.35 3.89a18.85 18.85 0 0 1-4.36-1.15 7.75 7.75 0 0 1-2.94-2.07 3.25 3.25 0 0 1-.65-2.52V132l5.25.75v1.1c-.09 1.27 1.14 1.53 2.08 1.75 1.14.26 2.51.62 3.11-.47s-.37-1.78-1.25-2.34c-1.84-1.21-3.75-2.28-5.6-3.48s-3.62-2.4-3.21-4.56 2.39-2.38 4.43-2.37a22 22 0 0 1 7.69 1.36c2.13.81 3.4 2.19 3.53 3.65a7.55 7.55 0 0 1 0 1.06l-5.24-.83v-1.08c-.18-1.28-1.53-1.37-2.54-1.54s-2-.32-2.41.59.35 1.79 1.25 2.38c1.8 1.16 3.66 2.21 5.46 3.37s3.75 2.4 3.35 4.66-2.58 2.31-4.62 2.36c-1.1 0-2.22-.14-3.33-.29zm66.11-5.1a15.62 15.62 0 0 1 4.94 1.32 5.93 5.93 0 0 1 2.46 1.9 3.22 3.22 0 0 1 .69 2.56l-5.31-.78v-.86c-.2-1.38-1.07-1.45-2-1.7s-2.24-.51-2.94.26-.15 1.52.6 2.19a23.72 23.72 0 0 0 4 2.59 20 20 0 0 1 4.26 2.93c1.91 1.93 1.68 4.34-.72 4.93a17.1 17.1 0 0 1-12.23-1.92 3.66 3.66 0 0 1-1.8-1.9 5.68 5.68 0 0 1-.1-1.23 4.26 4.26 0 0 1 .13-.94l5.15.81v1.29c0 1.25 1.37 1.39 2.31 1.59s2.37.53 2.92-.56c.45-.91-.37-1.7-1.2-2.25-1.48-1-3.05-1.85-4.55-2.81a23.6 23.6 0 0 1-3-2.12c-2.36-2.1-1.94-4.68.87-5.38a12.67 12.67 0 0 1 5.51.08zm-145.78-15.31.11-7.5 5.45.86-.2 11.59v1.15l7.54 1.15 1.19.19v2.29l-14.13-2.23v-1.15zm102.46 16.16c0 2.07-.09 4.14-.08 6.22v1.32c0 .05-5.54-.88-5.54-.88 0-3.34.18-10.46.17-13.82v-1.31l5.56.88s-.09 6.3-.11 7.59z" transform="translate(-.98 -.52)" style="fill:#fefefe"/><path class="b22a53ee-d752-4825-811d-8fc2b11d1d64" d="M157.13 124.59c.82-2.18 1.6-4.26 2.37-6.34h.36c.73 2.33 1.45 4.65 2.2 7.09z" transform="translate(-.98 -.52)"/><path class="b54b2c67-6ecc-4cd6-8a00-37ca56fc4ebd" d="M88 77.89c.41-.15.21-.6.41-.86.55.1.59-.3.77-.6A34.52 34.52 0 0 1 91 73.49a24.34 24.34 0 0 1 12.59-8.73l1-.18a22.71 22.71 0 0 1 7.61.22l1.79.58a16.16 16.16 0 0 1 6 4.21l.75 1.1a12 12 0 0 1 .82 7.41 27.27 27.27 0 0 1-1.86 5c-4.17 6.43-10.14 11.2-16.74 15.42.66.4 1 .07 1.46-.14a83.26 83.26 0 0 0 19.95-14.48 31.18 31.18 0 0 0 4.68-4.65c2.54-2.33 5.2-4.56 6.95-7.54.06-.09.3-.07.47-.1l2-1.92c.33-.31.6-.88 1.21-.53s.18.84.05 1.24a8.93 8.93 0 0 1-.37.84l-6.08 14A123.89 123.89 0 0 0 127 101a141.15 141.15 0 0 1 11.51-14.92l6.59-5.44 3.66-1.76c.28-.12.67-.29.91.09s-.13.55-.41.69a22.71 22.71 0 0 0-4.94 3l-.29.48c-1.81.55-2.78 2-3.94 3.17a59.53 59.53 0 0 0-9.58 12.13 60.11 60.11 0 0 0-4.75 8.24c-1.77 2-2.36 1.94-3.84-.6a16.9 16.9 0 0 1 .08-11.85c1.75-5 4.85-9.22 8.2-13.27.32-.4.94-.67.78-1.72-9.31 9.48-19.62 17.46-31.89 23.25a7.93 7.93 0 0 1-3.87.73c-1.06-.94-.16-1.23.39-1.66 6.76-5.26 11.81-11.84 16.13-19a1.46 1.46 0 0 0 .09-.59 26 26 0 0 0 2.88-5.75 12.53 12.53 0 0 0 .8-5 4.74 4.74 0 0 0-2.27-4.13 11.49 11.49 0 0 0-8.75-1.09l-1.36.34a13.66 13.66 0 0 0-4.95 2.12c-3.86 2.55-7.1 5.59-8.52 10A6.07 6.07 0 0 0 89 82.2c.27 3.54 3.25 5.56 6.53 4.24a13.9 13.9 0 0 0 8.19-8.3 13.08 13.08 0 0 0 1.85-7.48c0-.38-.34-1 .31-1s.57.62.68 1a20.33 20.33 0 0 1 .23 10.46c-1.39 3.43-4.12 5.59-7.81 6.78-5 1.61-8.18.33-11.08-4.31zM289.55 133a11.17 11.17 0 0 1-9-2.09c-1.31-1.35-2.3-2.78-2.06-4.52.17-1.22.57-2.27 2.18-2.24a2.9 2.9 0 0 1 2.95 2 2.21 2.21 0 0 1-1.39 3c-.39.18-1.4-.05-.82.9a1.69 1.69 0 0 0 1.94 1 4.12 4.12 0 0 0 2.24-1.68 18.52 18.52 0 0 0 4.07-10.06 12.35 12.35 0 0 0-.6-6.06c-.6.57-1 1-1.41 1.34-5.43 4.93-9.9 10.71-16 15-.72.24-1.44.54-2.18.72a5 5 0 0 1-5.25-1.88 7.47 7.47 0 0 1-.41-5.07 17.48 17.48 0 0 1 3.64-6.69c.94-1.15 1.82-2.36 2.7-3.55a.86.86 0 0 0 .09-1.18c-.45-.5-.95-.3-1.43-.16a8.27 8.27 0 0 0-3 1.73 83.25 83.25 0 0 0-12.22 13.26 2.74 2.74 0 0 1-2.82.89c-1.23-.19-2.47-.38-3.7-.5s-1.6-.58-1.07-1.52c1.37-2 2.75-4.07 4.1-6.11a39 39 0 0 0 4.56-8.15c.15-.4.38-.93-.13-1.36s-1-.14-1.42.08a10.12 10.12 0 0 0-1.76 1.08 89.88 89.88 0 0 0-12.73 13.23c-.91 1.35-2.52.93-4 .76-.87-.09-1.75-.27-2.62-.39-1.17-.14-1.45-.63-.95-1.48 2.38-3.31 4.82-6.6 7.13-9.95a39.62 39.62 0 0 0 2.38-4.09c.2-.37.62-.86.08-1.32s-.95 0-1.35.22a19.75 19.75 0 0 0-4.44 3.66c-3.62 3.59-7 7.39-11.47 10.17-.56.2-1.11.42-1.68.6-2.49.81-3.79.41-5.71-1.76-.62-1.3-.27-2.58-.42-4l-4.57 3.11a26.44 26.44 0 0 1-2.67.78c-2.17.4-4-.55-5.64-2.09-1.94-2.55-1.57-5-1.1-7.61-2.68 2-4.83 4.47-7.67 6.24a11.09 11.09 0 0 1-3 .86 5.21 5.21 0 0 1-4.21-2 7.07 7.07 0 0 1 0-4.84c.78-2.52 2.37-4.6 3.5-6.92 0-.13.15-.33.12-.34-.22-.15-.23 0-.29.15-.72.21-1.05.8-1.5 1.27-3.26 3.36-6.41 6.82-10.61 9.29-.62.19-1.24.4-1.88.55-2.14.56-3.46.12-5.21-1.67a5.1 5.1 0 0 1-.65-2.83c.09-3.5 2-6.16 3.61-8.94l.16-.43c.2 0 .33-.11.19-.26s-.25 0-.31.13l-.33.29c-.43.36-.89.69-1.28 1.08-3.34 3.32-6.56 6.75-10.46 9.52a23.23 23.23 0 0 1-2.32.75 4.93 4.93 0 0 1-4.88-1.88 6.8 6.8 0 0 1-.23-5.15 24.2 24.2 0 0 1 2.7-5.64c.2-.32.67-.6.32-1.29-3.76 3.76-7.17 7.7-11.59 10.7a12.13 12.13 0 0 1-2.93.86 5 5 0 0 1-4.16-2c-1-2.26-.44-4.22.43-6.07S141 99 142 97.19c0-.14.05-.36 0-.4s-.22.06-.28.17a29.68 29.68 0 0 0-4.09 3.91c-.25.24-.54.67-.94.37s-.18-.78.11-1.06c2.71-2.66 5.36-5.37 8.18-7.93 1.21-1.08 3.15-.38 4.78-.28.82 0 2-.12 2.45.69s-.48 1.35-.91 2c-2.31 3.34-4.89 6.48-7 10a27.84 27.84 0 0 0-1.54 3c-.2.45-.48 1 0 1.5s1.08 0 1.53-.19a15.25 15.25 0 0 0 3.47-2.38 156.09 156.09 0 0 0 16.51-16.42 3.62 3.62 0 0 0 1.13-1.24c2.72-3.7 5.48-7.35 8.13-11.09a3.19 3.19 0 0 1 3.25-1.33c1.26.15 3-.13 3.63.79s-.77 1.82-1.34 2.69c-2.11 3.24-4.65 6.19-6.55 9.55a85.48 85.48 0 0 0-6 8.26 99.31 99.31 0 0 0-7.43 11.86c-.33.65-1 1.51-.26 2.15s1.71 0 2.44-.45a17.13 17.13 0 0 0 3.39-2.7c5.07-5 10.38-9.82 15.11-15.15a130.71 130.71 0 0 0 9.93-13.34c1.38-1.74 3.56-1.11 5.63-.89 1.53.16 1.79.52 1 1.68-2.6 3.92-5.66 7.54-8 11.66-.76.22-.92.93-1.29 1.45-3.72 5.29-7.49 10.55-10.75 16.14a7.27 7.27 0 0 0-.72 1.35c-.28.89-1.52 1.92-.6 2.65s2.19-.27 3.05-.85c4.14-2.8 7.45-6.4 11-9.78 1.16-1.1 2.3-2.2 3.47-3.3s5.86-1.28 7.52-.29c.7.41.33.78.14 1.07-.73 1.1-1.54 2.16-2.31 3.24-2.33 3.28-4.91 6.41-6.73 10-.37.72-1.23 1.66-.27 2.41.8.63 1.65-.25 2.34-.68 4.07-2.57 7.23-6 10.94-9a32.6 32.6 0 0 1 4.66-3.44 13.73 13.73 0 0 1 5.43-1.75 7.57 7.57 0 0 1 7 2.86c.71.87 1.06 1.14 1.67.18.78-1.22 5.55-1.28 6.86-.1.7.61 0 1-.23 1.34-2.23 3.25-4.53 6.45-6.77 9.66a20.47 20.47 0 0 0-2.42 4.43c-.14.36-.4.83 0 1.19a1.38 1.38 0 0 0 1.46.09 16.55 16.55 0 0 0 4.05-2.73 76 76 0 0 0 7.35-7.11 25.66 25.66 0 0 1 4.25-3.87 8.31 8.31 0 0 1 3.21-1.49c2.76-.53 4.73 1 4.75 3.64a12.86 12.86 0 0 1-.73 3.67c-.16.56-.89 1.25-.15 1.69s1.19-.47 1.63-.9a41.12 41.12 0 0 1 5.28-4.83c1.74-1.2 3.63-2.32 6.13-.8s2 3.58 1.69 5.49c-.21 1.28-.63 2.51-1 3.76a1.72 1.72 0 0 1 0 .39l.36-.11c2.46-2.07 4.53-4.53 7.41-6.21a14 14 0 0 1 2.15-1.09 4.49 4.49 0 0 1 6.34 4.2 10.85 10.85 0 0 1-2.31 6.47c-1.05 1.58-2.31 3-3.48 4.52a6.09 6.09 0 0 0-.61.89c-.33.62-.94 1.4-.3 2s1.53 0 2.13-.27a22.88 22.88 0 0 0 5.91-4.43q7.37-7.34 14.68-14.75a5.29 5.29 0 0 1 .71-.61.69.69 0 0 1 .92 0c.29.26.1.51 0 .73a1.06 1.06 0 0 1-.38.48c-2.1 1.14-1.44 2.92-.61 4.8 1.31 2.93 2.86 5.82 3.36 8.92a11.3 11.3 0 0 1-.19 4.27 14.23 14.23 0 0 0 3-2.41c.28-.24.56-.84 1.08-.34s-.14.72-.39 1c-2.44 2.66-5 5.14-8.65 6.49zm-82.66-13.25a6.18 6.18 0 0 0 4.54-1.34 31 31 0 0 0 8.63-9.91 5.42 5.42 0 0 0 .62-1.73 2.61 2.61 0 0 0-1.16-2.66 2.37 2.37 0 0 0-2.76-.15 8.16 8.16 0 0 0-1.82 1.22 45.9 45.9 0 0 0-8.45 10.67 4.26 4.26 0 0 0-.69 2.5c0 .74.31 1.43 1.09 1.4z" transform="translate(-.98 -.52)"/><path class="bc1221c3-935f-4818-b53f-9a1874729471" d="M188.45 92.55c2.3-4.12 5.35-7.74 8-11.66.78-1.16.52-1.52-1-1.68-2.06-.22-4.22-.85-5.62.89 0-3.82.62-7.52.76-11.3.11-2.72.82-5.3.51-8.08-.11-1 .19-1.25 1.33-1.06 3 .54 6 1 9 1.38 1.36.16 1.49.65 1.33 1.65q-1.46 8.94-2.85 17.88a3 3 0 0 0 .16.48 41.64 41.64 0 0 0 2.41-4.46c1.91-3.69 3.89-7.34 5.84-11 .18-.35.28-.74.44-1.1.65-1.43 1.42-2.4 3.67-1.78a48.84 48.84 0 0 0 6.87 1.09c.94.11 1.21.42 1.07 1.25q-1.4 8.35-2.71 16.74c-.06.39-.56.66-.13 1.22.86 0 .9-.74 1.16-1.21 3-5.2 5.87-10.43 8.81-15.64.26-.45.37-1.06 1.29-.9 3.28.54 6.55 1 10.05 1.53l-5.09 8.13-14.32 22.62a1.67 1.67 0 0 1-2 .81c-2.88-.53-5.76-.93-8.63-1.37-.65-.1-1.16-.06-1.1-1 .23-3.24.78-6.42 1.07-9.64.25-2.6.92-5.11.8-7.89l-4.83 8.44c-2.08-.36-3.64.15-4.45 1.82-.69 1.41-.29 2.76 1 4-1.41 2.91-1.41 2.91-5 2.35-2.15-.34-4.3-.75-6.44-1-1.2-.13-1.51-.6-1.4-1.52zM223.38 99c3.55-4.58 7.06-9.07 10.55-13.59 2.55-3.3 5.07-6.62 7.6-9.92 1.78-2.32 3.58-4.61 5.3-7a1.11 1.11 0 0 1 1.28-.36c3.32.51 6.63 1.05 9.95 1.52.95.15 1.15.43 1.16 1.26q.31 16.17.73 32.41c0 1.29-.33 1.56-1.72 1.29-2.71-.52-5.44-.87-8.15-1.3-1.84-.28-2.14-.62-1.9-2.23 0-.34.28-.64.35-1 .23-1 .18-1.63-1.4-1.78a67.52 67.52 0 0 1-7.78-1.21c-1.51-.33-2.5 0-2.81 1.13-.74 2.54-2.57 2.85-5.31 2.18-2.51-.6-5.06-.84-7.59-1.25 0 0-.06 0-.26-.21zm25.74-18.49-6.86 9.84c2.08.33 3.83.55 5.57.89.95.18 1.19-.1 1.19-.92-.02-3.14.06-6.32.1-9.77zm-76.58 8.91c1.92-3.37 4.43-6.32 6.55-9.55.57-.88 1.92-1.84 1.34-2.7s-2.37-.64-3.64-.78a3.15 3.15 0 0 0-3.24 1.32c-2.66 3.74-5.42 7.4-8.13 11.09a3.62 3.62 0 0 1-1.13 1.24c-5-.77-9.91-1.59-14.87-2.31-1.4-.22-1.89-.37-1.37-1.8 1.94-5.15 3.67-10.39 5.5-15.59 1.76-5 3.56-9.95 5.31-14.94.24-.7.66-.84 1.48-.71 4.55.74 9.12 1.25 13.66 2.16 5.38 1.07 10 3.42 12.28 8.7a12.35 12.35 0 0 1 .36 8.73c-1.72 5.67-4.38 10.74-10 13.71a9.38 9.38 0 0 1-4.09 1.43zm-11.09-8.24c4.86 1.18 8.25.25 10.8-2.88a15.4 15.4 0 0 0 2.85-6.18c1.16-4.64-1.78-6.72-6.28-7.81-.93-.23-1.32 0-1.58.79-.75 2.27-1.59 4.51-2.41 6.76q-1.67 4.65-3.38 9.32zm-2.93 1.49a3.1 3.1 0 0 0-2.77-3.24 3.44 3.44 0 0 0-3.95 3.2 3.34 3.34 0 0 0 2.73 3.19 3.41 3.41 0 0 0 4-3.15zm118.17 1c1.81-1.16 2.74-2.88 4.09-4.23a47.85 47.85 0 0 0 5-5c.36-.49.75-.3 1.17-.23l12.1 1.79c.07.75-.59 1-1 1.33-6 5.52-12 11.08-18 16.56a8.56 8.56 0 0 0-2.27 3.56c-1 2.88-2 5.79-3 8.71-.25.76-.64 1-1.59.82-2.9-.51-5.81-1-8.71-1.36-1.42-.18-1.47-.58-1.05-1.61 1.2-3 2.1-6 3.41-8.92.76-1.67 0-3.28-.31-4.94q-1.35-6.2-2.81-12.39c-.45-2-1-3.92-1.53-5.87-.27-1-.16-1.64 1.35-1.36 3.37.62 6.75 1.08 10.12 1.57.74.11 1.08.23 1.2 1.08.5 3.4 1.17 6.82 1.82 10.45zm-147.64-4.42a32.21 32.21 0 0 1-4.67 4.67l-4.65-.8a28.31 28.31 0 0 0 1.86-5 12.11 12.11 0 0 0-.82-7.42l1.83-4.09-.43-.23L120 69.6a16.14 16.14 0 0 0-6-4.2q4-5.81 8-11.6a23.8 23.8 0 0 0 1.85-2.73c.71-1.46 1.84-1.69 3.62-1.34 3.64.7 7.3 1.16 11.18 1.75-.7 2-1.34 4-2 5.86q-3.85 10.77-7.73 21.54c-.12.12.08.23.13.37zm-25.47-14.49A24.34 24.34 0 0 0 91 73.49a34.52 34.52 0 0 0-1.85 2.94c-.18.3-.22.7-.77.6.93-2.62 1.87-5.23 2.78-7.85 1-3 2-6.06 3.1-9.08 1-2.75 2-5.47 3-8.22.59-1.63 1.18-3.26 1.61-5 .29-1.11.78-1.48 2.15-1.24 3.57.64 7.16 1.17 10.75 1.65 1.14.15 1.45.48 1.37 1.52-.38 5.3-.68 10.62-1 15.94a22.46 22.46 0 0 0-7.61-.22v-2.52l-.3-.05zm41.52 15.91-6.59 5.44-5.28-.89 6.08-14c.13-.29.27-.56.37-.84s.62-.86-.05-1.24-.88.22-1.21.52l-2 1.93a51.11 51.11 0 0 1 2.19-7.16c1-3.2 2.34-6.27 3.41-9.45a16.57 16.57 0 0 0 .94-2.32c.09-.59.6-.44 1.06-.37 3.13.48 6.27 1 9.41 1.42.89.14.95.5.76 1.05q-3.47 9.87-7 19.73c-.74 2-1.44 4.11-2.16 6.17z" transform="translate(-.98 -.52)"/><path class="bc1221c3-935f-4818-b53f-9a1874729471" d="M104.46 66a11.53 11.53 0 0 1 8.78 1 4.66 4.66 0 0 1 2.27 4.14 12.43 12.43 0 0 1-.78 5 25.93 25.93 0 0 1-2.88 5.74l-5.11-.79a20.37 20.37 0 0 0-.23-10.47c-.1-.39-.1-1-.68-1s-.32.63-.3 1a13.24 13.24 0 0 1-1.85 7.48l.78-12.1z" transform="translate(-.98 -.52)"/><path class="b54b2c67-6ecc-4cd6-8a00-37ca56fc4ebd" d="M201.32 92.69c-1.33-1.26-1.73-2.61-1-4 .81-1.67 2.38-2.19 4.45-1.82 2 1.41 2.52 2.83 1.71 4.47s-2.71 2.24-5.12 1.36z" transform="translate(-.98 -.52)"/><path class="bc1221c3-935f-4818-b53f-9a1874729471" d="M140.11 86.27c1.16-1.22 2.13-2.62 3.94-3.17-.12.48-.23 1-.39 1.45-.77 2.26-.77 2.25-3.55 1.72zm3.89-3.15.29-.48zm-40.9-16.8q-2.23 6.48-4.46 13c-.24.71-.84.46-1.4.38l-7.62-1.19c1.42-4.44 4.66-7.48 8.51-10a13.62 13.62 0 0 1 5-2.19z" transform="translate(-.98 -.52)"/><path class="b54b2c67-6ecc-4cd6-8a00-37ca56fc4ebd" d="M158.52 82.71a3.4 3.4 0 0 1-4 3.15 3.34 3.34 0 0 1-2.73-3.19 3.44 3.44 0 0 1 4-3.2 3.08 3.08 0 0 1 2.75 3.24z" transform="translate(-.98 -.52)"/></g></svg>