<svg id="b641feed-1691-4724-a397-1c8ed424cf18" data-name="bae51f9f-9ab5-4723-91c1-5de94dc4635e" xmlns="http://www.w3.org/2000/svg" xmlns:xlink="http://www.w3.org/1999/xlink" viewBox="0 0 87.6 88.6"><defs><style>.b7ab158d-a154-46f9-addc-1bd763b93d5e,.f06ff8e0-7410-4074-aa91-b310d6896945{fill:#211c1d;}.ad753b16-f21c-4ab7-9345-cacc256ba582{opacity:0.1;}.e6ac9213-ed21-4bb6-beb7-e6071eaada05{fill:#808094;}.bad00c17-bd4c-4dcf-886a-c9e53792c280{fill:#6d6e6f;}.f7115cd6-9274-45f7-bb86-af908767926a{fill:url(#fea31ec2-c4a9-4526-a477-c3c7e2cfa88b);}.b7ab158d-a154-46f9-addc-1bd763b93d5e{opacity:0.3;}.b1643077-0f7a-4ff1-91f1-f43b822f35ae,.b646b319-05bb-4991-83aa-1758032171a8,.b7ab158d-a154-46f9-addc-1bd763b93d5e{isolation:isolate;}.b1643077-0f7a-4ff1-91f1-f43b822f35ae{opacity:0.15;fill:url(#a76ae788-f806-4c73-a89c-7224858b55a5);}.b646b319-05bb-4991-83aa-1758032171a8{opacity:0.4;fill:url(#a448353f-bde7-4572-93e2-e54711ef05b3);}.b579d069-30a3-4dec-936a-29e5f8298e3f{fill:#dd0606;}</style><linearGradient id="fea31ec2-c4a9-4526-a477-c3c7e2cfa88b" x1="-747.89" y1="2455.81" x2="-768.82" y2="2434.88" gradientTransform="translate(802.18 -2401.52)" gradientUnits="userSpaceOnUse"><stop offset="0" stop-color="#a4a5a9"/><stop offset="1" stop-color="#e6e6e7"/></linearGradient><linearGradient id="a76ae788-f806-4c73-a89c-7224858b55a5" x1="-768.76" y1="2455.8" x2="-747.88" y2="2434.93" gradientTransform="translate(802.18 -2401.52)" gradientUnits="userSpaceOnUse"><stop offset="0" stop-color="#211c1d" stop-opacity="0"/><stop offset="0.04" stop-color="#211c1d" stop-opacity="0.09"/><stop offset="0.5" stop-color="#211c1d"/><stop offset="0.95" stop-color="#211c1d" stop-opacity="0.09"/><stop offset="1" stop-color="#211c1d" stop-opacity="0"/></linearGradient><linearGradient id="a448353f-bde7-4572-93e2-e54711ef05b3" x1="-5886.68" y1="-3866.42" x2="-5865.8" y2="-3887.31" gradientTransform="translate(-5832.48 -3833.03) rotate(180)" gradientUnits="userSpaceOnUse"><stop offset="0" stop-color="#fff" stop-opacity="0"/><stop offset="0.5" stop-color="#fff"/><stop offset="1" stop-color="#fff" stop-opacity="0"/></linearGradient></defs><circle class="f06ff8e0-7410-4074-aa91-b310d6896945" cx="43.8" cy="43.8" r="43.8"/><g class="ad753b16-f21c-4ab7-9345-cacc256ba582"><path class="e6ac9213-ed21-4bb6-beb7-e6071eaada05" d="M84.4,43.8l-8.6-8.9v4.3H66v9.1h9.8v4.3ZM72.5,15.1l-12.4-.2L63.2,18l-7,7,6.4,6.4,7-7,3.1,3.1ZM43.8,3.2l-8.9,8.6h4.3v9.8h9.1V11.8h4.3ZM15.1,15.1l-.2,12.4L18,24.4l7,7L31.4,25l-7-7,3.1-3.1ZM3.2,43.8l8.6,8.9V48.4h9.8V39.3H11.8V35ZM15.1,72.5l12.4.2-3.1-3.1,7-7L25,56.2l-7,7-3.1-3.1ZM43.8,84.4l8.9-8.6H48.4V66H39.3v9.8H35ZM72.5,72.5l.2-12.4-3.1,3.1-7-7-6.4,6.4,7,7-3.1,3.1Z" transform="translate(0 0)"/></g><path class="bad00c17-bd4c-4dcf-886a-c9e53792c280" d="M87.6,44.3A43.81,43.81,0,0,1,0,44.3v.5a43.8,43.8,0,0,0,87.6,0Z" transform="translate(0 0)"/><circle class="f7115cd6-9274-45f7-bb86-af908767926a" cx="43.8" cy="43.8" r="14.8"/><circle class="b7ab158d-a154-46f9-addc-1bd763b93d5e" cx="43.8" cy="43.8" r="11.8"/><path class="b1643077-0f7a-4ff1-91f1-f43b822f35ae" d="M43.8,29.1A14.75,14.75,0,1,0,58.6,43.9,14.75,14.75,0,0,0,43.8,29.1Zm-.2,28.7A14.15,14.15,0,1,1,57.8,43.7,14.16,14.16,0,0,1,43.6,57.8Z" transform="translate(0 0)"/><path class="b646b319-05bb-4991-83aa-1758032171a8" d="M43.8,58.6A14.75,14.75,0,1,0,29,43.9,14.75,14.75,0,0,0,43.8,58.6ZM44,29.9a14.1,14.1,0,0,1,0,28.2h0A14,14,0,0,1,29.9,44.2h0V44h0A14.08,14.08,0,0,1,44,29.9Z" transform="translate(0 0)"/><circle class="b579d069-30a3-4dec-936a-29e5f8298e3f" cx="43.6" cy="32.8" r="20.5"/></svg>