<svg id="acbdb16f-a301-4714-90f3-a7ce7761574d" data-name="bae51f9f-9ab5-4723-91c1-5de94dc4635e" xmlns="http://www.w3.org/2000/svg" xmlns:xlink="http://www.w3.org/1999/xlink" viewBox="0 0 87.6 88.6"><defs><style>.bb8f3a00-6691-444e-b9fc-027eda11a740,.fcfbad14-43f5-4c6d-9e5f-14a218ea5e7e{fill:#211c1d;}.acb0baa7-a0d2-473d-b8f2-dfac471d5808{opacity:0.1;}.b9a1bf1f-ca3a-41b8-8bd5-baa8bd30d53f{fill:#808094;}.a44c6ce0-ff38-4825-a1cf-6813b30a2775{fill:#6d6e6f;}.b7db5d50-6f8d-48d7-98be-f459f55442f2{fill:url(#f4edff6d-f6e3-4e1f-9485-4cde5055ab32);}.fcfbad14-43f5-4c6d-9e5f-14a218ea5e7e{opacity:0.3;}.a1176bca-1db7-4234-8355-aeddd7499021,.eb28ead9-7607-45f7-9cc4-07daa29889f8,.fcfbad14-43f5-4c6d-9e5f-14a218ea5e7e{isolation:isolate;}.eb28ead9-7607-45f7-9cc4-07daa29889f8{opacity:0.15;fill:url(#afde0863-f15d-40db-8352-1d9915471e94);}.a1176bca-1db7-4234-8355-aeddd7499021{opacity:0.4;fill:url(#ab40ab94-fad1-42f0-8bed-347eb27f3665);}.beaa2653-8e3f-4ccf-8c30-54dc2ee0e764{fill:#0c0c0c;}</style><linearGradient id="f4edff6d-f6e3-4e1f-9485-4cde5055ab32" x1="-747.89" y1="2455.81" x2="-768.82" y2="2434.88" gradientTransform="translate(802.18 -2401.52)" gradientUnits="userSpaceOnUse"><stop offset="0" stop-color="#a4a5a9"/><stop offset="1" stop-color="#e6e6e7"/></linearGradient><linearGradient id="afde0863-f15d-40db-8352-1d9915471e94" x1="-768.76" y1="2455.8" x2="-747.88" y2="2434.93" gradientTransform="translate(802.18 -2401.52)" gradientUnits="userSpaceOnUse"><stop offset="0" stop-color="#211c1d" stop-opacity="0"/><stop offset="0.04" stop-color="#211c1d" stop-opacity="0.09"/><stop offset="0.5" stop-color="#211c1d"/><stop offset="0.95" stop-color="#211c1d" stop-opacity="0.09"/><stop offset="1" stop-color="#211c1d" stop-opacity="0"/></linearGradient><linearGradient id="ab40ab94-fad1-42f0-8bed-347eb27f3665" x1="-5886.68" y1="-3866.42" x2="-5865.8" y2="-3887.31" gradientTransform="translate(-5832.48 -3833.03) rotate(180)" gradientUnits="userSpaceOnUse"><stop offset="0" stop-color="#fff" stop-opacity="0"/><stop offset="0.5" stop-color="#fff"/><stop offset="1" stop-color="#fff" stop-opacity="0"/></linearGradient></defs><circle class="bb8f3a00-6691-444e-b9fc-027eda11a740" cx="43.8" cy="43.8" r="43.8"/><g class="acb0baa7-a0d2-473d-b8f2-dfac471d5808"><path class="b9a1bf1f-ca3a-41b8-8bd5-baa8bd30d53f" d="M84.4,43.8l-8.6-8.9v4.3H66v9.1h9.8v4.3ZM72.5,15.1l-12.4-.2L63.2,18l-7,7,6.4,6.4,7-7,3.1,3.1ZM43.8,3.2l-8.9,8.6h4.3v9.8h9.1V11.8h4.3ZM15.1,15.1l-.2,12.4L18,24.4l7,7L31.4,25l-7-7,3.1-3.1ZM3.2,43.8l8.6,8.9V48.4h9.8V39.3H11.8V35ZM15.1,72.5l12.4.2-3.1-3.1,7-7L25,56.2l-7,7-3.1-3.1ZM43.8,84.4l8.9-8.6H48.4V66H39.3v9.8H35ZM72.5,72.5l.2-12.4-3.1,3.1-7-7-6.4,6.4,7,7-3.1,3.1Z" transform="translate(0 0)"/></g><path class="a44c6ce0-ff38-4825-a1cf-6813b30a2775" d="M87.6,44.3A43.81,43.81,0,0,1,0,44.3v.5a43.8,43.8,0,0,0,87.6,0Z" transform="translate(0 0)"/><circle class="b7db5d50-6f8d-48d7-98be-f459f55442f2" cx="43.8" cy="43.8" r="14.8"/><circle class="fcfbad14-43f5-4c6d-9e5f-14a218ea5e7e" cx="43.8" cy="43.8" r="11.8"/><path class="eb28ead9-7607-45f7-9cc4-07daa29889f8" d="M43.8,29.1A14.75,14.75,0,1,0,58.6,43.9,14.75,14.75,0,0,0,43.8,29.1Zm-.2,28.7A14.15,14.15,0,1,1,57.8,43.7,14.16,14.16,0,0,1,43.6,57.8Z" transform="translate(0 0)"/><path class="a1176bca-1db7-4234-8355-aeddd7499021" d="M43.8,58.6A14.75,14.75,0,1,0,29,43.9,14.75,14.75,0,0,0,43.8,58.6ZM44,29.9a14.1,14.1,0,0,1,0,28.2h0A14,14,0,0,1,29.9,44.2h0V44h0A14.08,14.08,0,0,1,44,29.9Z" transform="translate(0 0)"/><circle class="beaa2653-8e3f-4ccf-8c30-54dc2ee0e764" cx="43.6" cy="32.8" r="20.5"/></svg>