<svg xmlns="http://www.w3.org/2000/svg" xmlns:xlink="http://www.w3.org/1999/xlink" viewBox="0 0 470.58 67.66"><defs><style>.ffd15926-a59c-4445-a7ac-2c9250409a27{stroke:#9def48;stroke-miterlimit:10;fill:url(#b9b40f02-0afc-49cf-883b-eeb161055ec1);}.e2167587-4349-44e3-878f-766fe435a9dd{fill:#9def48;}.a6806645-fdd8-454f-98a0-6f05351d8042{fill:#fff;}.b71c7145-20a8-4226-8bf3-515aa78839e7{fill:#d73648;}</style><linearGradient id="b9b40f02-0afc-49cf-883b-eeb161055ec1" x1="0.5" y1="33.83" x2="470.08" y2="33.83" gradientUnits="userSpaceOnUse"><stop offset="0" stop-color="#032c02"/><stop offset="1" stop-color="#207a09"/></linearGradient></defs><g id="a97caf82-7902-488e-ac60-5966973088ba" data-name="calque3"><polygon class="ffd15926-a59c-4445-a7ac-2c9250409a27" points="0.5 6.04 102.57 6.04 108.7 0.5 150.44 0.5 158.35 6.04 461.77 6.24 470.08 16.13 470.08 59.84 50.94 59.84 42.83 67.16 8.02 67.16 0.5 59.84 0.5 6.04"/><path class="e2167587-4349-44e3-878f-766fe435a9dd" d="M67.91,24.72H60.05a16.35,16.35,0,0,0-2.34,8.19,16.37,16.37,0,0,0,2.34,8.18h2.7v4.07H57.86a18.17,18.17,0,0,1-4.22-12.25,18.16,18.16,0,0,1,4.22-12.26h10V16.81h4v3.84H82a18.21,18.21,0,0,1,4.22,12.26A18.22,18.22,0,0,1,82,45.16H77.12V41.09h2.72a16.45,16.45,0,0,0,2.32-8.18,16.43,16.43,0,0,0-2.32-8.19H72V39.25h-4Z"/><path class="e2167587-4349-44e3-878f-766fe435a9dd" d="M95.42,45.16H91.36v-21l4.06-4.06Z"/><path class="e2167587-4349-44e3-878f-766fe435a9dd" d="M101.4,20.65h27a18.21,18.21,0,0,1,4.22,12.26,18.22,18.22,0,0,1-4.22,12.25h-27Zm4.07,20.44h20.77a16.55,16.55,0,0,0,2.32-8.18,16.53,16.53,0,0,0-2.32-8.19H105.47Z"/><path class="e2167587-4349-44e3-878f-766fe435a9dd" d="M150.32,41.09V26.57h4.05V41.09h7.87a16.41,16.41,0,0,0,2.33-8.18,16.5,16.5,0,0,0-2.33-8.19h-2.71V20.65h4.88a18.2,18.2,0,0,1,4.23,12.26,18.12,18.12,0,0,1-4.23,12.25h-10V49h-4.05V45.16h-10a18.12,18.12,0,0,1-4.22-12.25,18.2,18.2,0,0,1,4.22-12.26h4.88v4.07h-2.7a16.41,16.41,0,0,0-2.34,8.19,16.32,16.32,0,0,0,2.34,8.18Z"/><path class="e2167587-4349-44e3-878f-766fe435a9dd" d="M178.86,38.34l-4.29,6.82h-5.08l15.57-24.51h4.68l15.45,24.51h-5L196,38.34Zm14.56-4.05-6-9.59-6,9.59Z"/><path class="e2167587-4349-44e3-878f-766fe435a9dd" d="M207.89,34.92l-1.84-2a18.2,18.2,0,0,1,4.22-12.26h4.88v4.07h-2.7a17.49,17.49,0,0,0-2.2,6.15h24.18a17.27,17.27,0,0,0-2.19-6.15h-2.71V20.65h4.88a18.2,18.2,0,0,1,4.23,12.26,18.12,18.12,0,0,1-4.23,12.25H210.27a17.13,17.13,0,0,1-3.68-7.3H211a18.61,18.61,0,0,0,1.48,3.23h19.79a16.86,16.86,0,0,0,2.19-6.17Z"/></g><g id="a0e59786-0211-46fe-ac4c-d97b8b46c3e4" data-name="midway"><path class="a6806645-fdd8-454f-98a0-6f05351d8042" d="M22.34,43.34V40.6l3.66.32v0l-3.66-2.14V36l6.8,2.1v1.83l-4.69-1.5h0L29.14,41v1.46l-4.69-.28h0l4.69,1.4v1.82Z"/><path class="a6806645-fdd8-454f-98a0-6f05351d8042" d="M22.34,35.28v-2l6.8,2.08v2Z"/><path class="a6806645-fdd8-454f-98a0-6f05351d8042" d="M22.34,32.58V29.64c0-1.17.78-2.57,3-2.21a4.08,4.08,0,0,1,3.8,4.07v3.17Zm5.06-.43V31.2c0-1.28-1.42-1.74-2-1.8-1-.12-1.27.35-1.27,1v.73Z"/><path class="a6806645-fdd8-454f-98a0-6f05351d8042" d="M29.14,21.84v1.89l-3.52-.39h0l3.52,1.78V27l-6.8-.28V24.81l4,.43h0l-4-2V21.55l4,.43h0l-4-1.95V18Z"/><path class="a6806645-fdd8-454f-98a0-6f05351d8042" d="M22.34,17.13V15.19l6.8-.77v1.93l-1,.08v2.08l1,.52v2Zm4.37.62V16.52l-2,.15h0Z"/><path class="a6806645-fdd8-454f-98a0-6f05351d8042" d="M26.65,13.48l-4.31,1v-2l2.53-.41-2.53-1.76V8l4.29,3.47,2.51.69v2Z"/><path class="b71c7145-20a8-4226-8bf3-515aa78839e7" d="M29.56,61.42c-.78,2.23-2.24,3.78-4,3.19C23,63.76,21,58.74,21.14,53.39a14.85,14.85,0,0,1,.14-1.93l-3.22-2.72,3.51,1.06c.77-3.18,2.48-5.17,4.41-4.51,2.55.86,4.16,5.64,4.35,9.17l-6.09-1.77,8.27,7-6.68-1.8Zm-4-14.35c-1.41-.42-2.62.72-3.35,2.88L28.1,51.7C27.72,49.58,26.82,47.45,25.52,47.07Zm-3.87,4.72a16.85,16.85,0,0,0-.16,1.83c-.1,4.31,1.5,8.37,3.57,9.06,1.24.4,2-.26,2.56-1.62L22,55l4.88,1.22-5.26-4.46"/><path class="b71c7145-20a8-4226-8bf3-515aa78839e7" d="M30.53,51.78a.36.36,0,0,1-.36-.36.36.36,0,0,1,.71,0A.36.36,0,0,1,30.53,51.78Zm.29-.36a.28.28,0,0,0-.29-.28.29.29,0,0,0-.3.28.29.29,0,0,0,.3.29A.29.29,0,0,0,30.82,51.42Zm-.09.08v.06h-.41v-.15c0-.1,0-.14.12-.14a.11.11,0,0,1,.11.1l.18-.11v.06l-.18.1v.08Zm-.23-.08c0-.05,0-.1-.06-.1s-.07,0-.07.09v.09h.13Z"/></g></svg>