<?xml version="1.0" encoding="UTF-8" standalone="no"?>
<svg
   viewBox="0 0 358.903 279.14"
   version="1.1"
   id="svg631"
   sodipodi:docname="consolegame.svg"
   xml:space="preserve"
   inkscape:version="1.2.1 (9c6d41e, 2022-07-14)"
   xmlns:inkscape="http://www.inkscape.org/namespaces/inkscape"
   xmlns:sodipodi="http://sodipodi.sourceforge.net/DTD/sodipodi-0.dtd"
   xmlns="http://www.w3.org/2000/svg"
   xmlns:svg="http://www.w3.org/2000/svg"><defs
     id="defs635" /><sodipodi:namedview
     id="namedview633"
     pagecolor="#ffffff"
     bordercolor="#000000"
     borderopacity="0.25"
     inkscape:showpageshadow="2"
     inkscape:pageopacity="0.0"
     inkscape:pagecheckerboard="0"
     inkscape:deskcolor="#d1d1d1"
     showgrid="false"
     inkscape:zoom="2.9089344"
     inkscape:cx="227.40286"
     inkscape:cy="222.07445"
     inkscape:window-width="1463"
     inkscape:window-height="962"
     inkscape:window-x="687"
     inkscape:window-y="139"
     inkscape:window-maximized="0"
     inkscape:current-layer="svg631" /><g
     transform="translate(6.287 199.148)"
     id="g202"><linearGradient
       id="a"
       gradientUnits="userSpaceOnUse"
       x1="-89.923"
       y1="300.437"
       x2="-89.923"
       y2="301.774"
       gradientTransform="matrix(162.5695 0 0 -30.2899 14750.304 9156.85)"><stop
         offset="0"
         stop-color="#dbd0c0"
         id="stop182" /><stop
         offset="1"
         stop-color="#c0b598"
         id="stop184" /></linearGradient><path
       d="M47.561 34.754a3.322 3.322 0 0 0 3.323 3.321H212.3a3.322 3.322 0 0 0 3.323-3.321V10.083a3.322 3.322 0 0 0-3.323-3.321H50.884a3.322 3.322 0 0 0-3.323 3.321v24.671z"
       fill="url(#a)"
       id="path187" /><g
       transform="translate(124.42 10.583)"
       id="g200"><linearGradient
         id="b"
         gradientUnits="userSpaceOnUse"
         x1="-210.242"
         y1="279.411"
         x2="-210.242"
         y2="280.656"
         gradientTransform="matrix(27.7838 0 0 -14.2271 5907.463 4001.427)"><stop
           offset="0"
           stop-color="#c2b9ab"
           id="stop189" /><stop
           offset="1"
           stop-color="#a89f85"
           id="stop191" /></linearGradient><path
         d="M80.521 20.534c0 .786-.638 1.423-1.424 1.423H53.223a1.423 1.423 0 0 1-1.424-1.423V8.673c0-.786.638-1.423 1.424-1.423h25.874c.787 0 1.424.637 1.424 1.423v11.861z"
         fill="url(#b)"
         id="path194" /><path
         d="M77.485 17.924a.474.474 0 0 1-.475.474h-7.24a.474.474 0 0 1-.475-.474v-8.54c0-.262.212-.474.475-.474h7.24c.263 0 .475.212.475.474v8.54z"
         fill="#97876c"
         id="path196" /><path
         d="M75.398 11.579v-1.068h-.831V9.325h-2.136v1.186H71.6v1.068h-.831v5.456h5.46v-5.456h-.831z"
         id="path198" /></g></g><g
     transform="translate(.317)"
     id="g218"><linearGradient
       id="c"
       gradientUnits="userSpaceOnUse"
       x1="-84.525"
       y1="508.855"
       x2="-83.491"
       y2="508.855"
       gradientTransform="matrix(174.2033 0 0 -206.2166 14772.086 105040.977)"><stop
         offset="0"
         stop-color="#dbd0c0"
         id="stop204" /><stop
         offset="1"
         stop-color="#c0b598"
         id="stop206" /></linearGradient><path
       d="M227.608 207.491a5.695 5.695 0 0 1-5.697 5.693H53.215a5.695 5.695 0 0 1-5.697-5.693V5.693A5.695 5.695 0 0 1 53.215 0H221.91a5.695 5.695 0 0 1 5.697 5.693v201.798h.001z"
       fill="url(#c)"
       id="path209" /><linearGradient
       id="d"
       gradientUnits="userSpaceOnUse"
       x1="-83.797"
       y1="508.588"
       x2="-83.265"
       y2="508.233"
       gradientTransform="matrix(166.5501 0 0 -186.0228 14123.22 94737.414)"><stop
         offset="0"
         stop-color="#c3b7a0"
         id="stop211" /><stop
         offset="1"
         stop-color="#c0b598"
         id="stop213" /></linearGradient><path
       d="M223.651 200.374a2.373 2.373 0 0 1-2.374 2.372H53.847a2.373 2.373 0 0 1-2.374-2.372V12.811a2.373 2.373 0 0 1 2.374-2.372h167.43a2.373 2.373 0 0 1 2.374 2.372v187.563z"
       fill="url(#d)"
       id="path216" /></g><linearGradient
     id="e"
     gradientUnits="userSpaceOnUse"
     x1="-83.636"
     y1="508.144"
     x2="-83.445"
     y2="507.182"
     gradientTransform="matrix(146.037 0 0 -110.4513 12338.012 56151.36)"><stop
       offset="0"
       stop-color="#97876c"
       id="stop220" /><stop
       offset="1"
       stop-color="#dbd0c0"
       id="stop222" /></linearGradient><path
     d="M213.365 134.111c0 1.048-.85 1.898-1.899 1.898H64.293a1.899 1.899 0 0 1-1.899-1.898V23.723c0-1.048.85-1.898 1.899-1.898h147.173c1.049 0 1.899.85 1.899 1.898v110.388z"
     fill="url(#e)"
     id="path225" /><path
     d="M72.442 190.53a.95.95 0 0 1-.95.948h-9.97a.95.95 0 0 1-.95-.949v-9.963a.95.95 0 0 1 .95-.949h9.97a.95.95 0 0 1 .95.95v9.962z"
     opacity=".6"
     fill="#8b8a90"
     id="path227" /><path
     d="M63.552 188.773c.536.757 1.143 1.196 1.484 1.203.703.016 1.314-.459 1.818-.446a.043.043 0 0 0 .016.001h.028c.504-.014 1.115.462 1.82.445.341-.008.948-.446 1.483-1.203h-6.649"
     fill="#009ddd"
     id="path229" /><path
     d="M62.9 187.58c.182.447.41.85.651 1.192h6.65c.241-.343.47-.745.65-1.193h-7.95"
     fill="#944d85"
     id="path231" /><path
     d="M62.542 186.267c.067.467.195.908.358 1.312h7.952c.027-.067.053-.135.078-.204-.524-.164-.954-.573-1.187-1.109h-7.2"
     fill="#c45152"
     id="path233" /><path
     d="M62.963 183.643c-.21.336-.374.765-.44 1.312h7.068a2.032 2.032 0 0 1 .82-1.312h-7.448"
     fill="#f2bd2f"
     id="path235" /><path
     d="M62.522 184.955a5.136 5.136 0 0 0 .02 1.313h7.202a2.285 2.285 0 0 1-.152-1.313h-7.07"
     fill="#e19433"
     id="path237" /><path
     d="M66.883 182.873h-.012c-.48-.008-1.365-.494-1.993-.429-.313.032-1.312.24-1.914 1.198h7.448a2.08 2.08 0 0 1 .235-.144c-.564-.888-1.482-1.025-1.77-1.055-.63-.064-1.514.423-1.994.43"
     fill="#76b845"
     id="path239" /><path
     d="M68.581 180.177c-.049-.04-.94.123-1.495.741-.553.618-.518 1.558-.47 1.6.05.04.955-.102 1.495-.742.54-.639.52-1.559.47-1.599"
     fill="#76b845"
     id="path241" /><g
     id="g254"><linearGradient
       id="f"
       gradientUnits="userSpaceOnUse"
       x1="67.099"
       y1="78.917"
       x2="208.662"
       y2="78.917"><stop
         offset="0"
         id="stop243" /><stop
         offset=".5"
         stop-color="#626864"
         id="stop245" /><stop
         offset="1"
         id="stop247" /></linearGradient><path
       d="M137.88 25.711c26.951 0 60.748 2.584 60.748 2.584 5.989.544 9.487 4.579 9.487 10.392 0 0 .589 26.837.544 35.753-.061 12.25-.968 48.91-.968 48.91 0 5.805-3.753 7.743-9.558 7.743l-60.253 1.028-60.253-1.028c-5.805 0-9.558-1.938-9.558-7.743 0 0-.907-36.66-.968-48.91-.045-8.916.544-35.753.544-35.753 0-5.813 3.498-9.848 9.487-10.392 0 0 33.798-2.584 60.748-2.584z"
       fill="url(#f)"
       id="path250" /><path
       d="M199.494 123.199H76.266a4.356 4.356 0 0 1-4.356-4.356V38.99a4.356 4.356 0 0 1 4.356-4.356h123.228a4.356 4.356 0 0 1 4.356 4.356v79.853a4.356 4.356 0 0 1-4.356 4.356z"
       fill="#bbeafe"
       id="path252" /></g><g
     id="g315"><g
       transform="translate(68.885 18.358)"
       id="g265"><linearGradient
         id="g"
         gradientUnits="userSpaceOnUse"
         x1="-145.788"
         y1="468.287"
         x2="-146.392"
         y2="469.248"
         gradientTransform="matrix(18.8287 0 0 -12.3913 2878.231 5959.851)"><stop
           offset="0"
           stop-color="#dbd0c0"
           id="stop256" /><stop
           offset="1"
           stop-color="#c0b598"
           id="stop258" /></linearGradient><path
         fill="url(#g)"
         d="M118.131 145.129h19.465v12.81h-19.465z"
         id="path261" /><path
         fill="#97876c"
         d="M118.131 145.129h19.465v12.81h-19.465z"
         id="path263" /></g><path
       d="M137.879 167.479h69.473v6.642h-69.473z"
       id="path267" /><linearGradient
       id="h"
       gradientUnits="userSpaceOnUse"
       x1="-82.778"
       y1="494.279"
       x2="-82.662"
       y2="492.643"
       gradientTransform="matrix(78.7589 0 0 -17.2102 6688.9 8664.433)"><stop
         offset="0"
         stop-color="#c0b598"
         id="stop269" /><stop
         offset=".519"
         stop-color="#c1b69a"
         id="stop271" /><stop
         offset=".706"
         stop-color="#c5ba9f"
         id="stop273" /><stop
         offset=".839"
         stop-color="#cbc0a8"
         id="stop275" /><stop
         offset=".946"
         stop-color="#d4cab6"
         id="stop277" /><stop
         offset="1"
         stop-color="#dbd0c0"
         id="stop279" /></linearGradient><path
       d="M211.466 160.995h-28.248c-1.049 0-1.899.85-1.899 1.898v2.135h-47.475c-1.049 0-1.899.85-1.899 1.898v5.931c0 1.048.85 1.898 1.899 1.898h47.475v2.135c0 1.048.85 1.898 1.899 1.898h28.248c1.049 0 1.899-.85 1.899-1.898v-13.996c0-1.049-.85-1.899-1.899-1.899zm-4.985 13.404c0 1.048-.85 1.898-1.899 1.898h-15.667a1.899 1.899 0 0 1-1.899-1.898v-2.728h-47.475a.95.95 0 0 1-.95-.949v-1.661a.95.95 0 0 1 .95-.949h47.475v-2.728c0-1.048.85-1.898 1.899-1.898h15.667c1.049 0 1.899.85 1.899 1.898v9.015z"
       fill="url(#h)"
       id="path282" /><ellipse
       cx="209.963"
       cy="174.299"
       rx=".515"
       ry=".514"
       fill="#afaaa0"
       id="ellipse284" /><ellipse
       cx="209.963"
       cy="174.121"
       rx=".515"
       ry=".514"
       id="ellipse286" /><linearGradient
       id="i"
       gradientUnits="userSpaceOnUse"
       x1="135.743"
       y1="174.754"
       x2="135.743"
       y2="165.028"><stop
         offset="0"
         stop-color="#c6b799"
         id="stop288" /><stop
         offset=".5"
         stop-color="#aa9b83"
         id="stop290" /><stop
         offset="1"
         stop-color="#c6b799"
         id="stop292" /></linearGradient><path
       d="M139.541 168.112a.95.95 0 0 0-.95.949v1.661a.95.95 0 0 0 .95.949l-5.697 3.084a1.899 1.899 0 0 1-1.899-1.898v-5.931c0-1.048.85-1.898 1.899-1.898l5.697 3.084z"
       fill="url(#i)"
       id="path295" /><linearGradient
       id="j"
       gradientUnits="userSpaceOnUse"
       x1="184.472"
       y1="164.363"
       x2="185.602"
       y2="161.941"><stop
         offset="0"
         stop-color="#c6b799"
         id="stop297" /><stop
         offset=".456"
         stop-color="#aa9b83"
         id="stop299" /><stop
         offset="1"
         stop-color="#c6b799"
         id="stop301" /></linearGradient><path
       d="M188.916 163.486c-1.049 0-1.899.85-1.899 1.898l-5.697-2.491c0-1.048.85-1.898 1.899-1.898l5.697 2.491z"
       fill="url(#j)"
       id="path304" /><linearGradient
       id="k"
       gradientUnits="userSpaceOnUse"
       x1="185.828"
       y1="178.079"
       x2="184.186"
       y2="175.234"><stop
         offset="0"
         stop-color="#c6b799"
         id="stop306" /><stop
         offset=".456"
         stop-color="#aa9b83"
         id="stop308" /><stop
         offset="1"
         stop-color="#c6b799"
         id="stop310" /></linearGradient><path
       d="M187.017 174.399c0 1.048.85 1.898 1.899 1.898l-5.697 2.491a1.899 1.899 0 0 1-1.899-1.898l5.697-2.491z"
       fill="url(#k)"
       id="path313" /></g><g
     id="g579"><path
       d="M275.76 261.39H0l8.002-28.991c1.098-3.454 2.949-5.02 5.849-5.02H262.35c2.596 0 4.767 2.363 4.92 5.308l8.49 28.703z"
       fill="#c0b598"
       id="path317" /><path
       d="M269.12 254.89H6.354a.573.573 0 0 1-.549-.738l6.653-22.095c.958-2.625 2.479-3.26 4.339-3.26H258.75a3.39 3.39 0 0 1 3.379 3.301l.026.151 7.503 21.888a.568.568 0 0 1-.538.753z"
       fill="#b7ae9e"
       stroke="#a5a097"
       stroke-width=".75"
       stroke-miterlimit="10"
       id="path319" /><g
       fill="#c0b598"
       stroke="#a5a097"
       stroke-miterlimit="10"
       id="g373"><g
         stroke-width=".5"
         id="g323"><path
           d="M78.604 224.702H67.573v-1.164a.43.43 0 0 1 .43-.43h10.172a.43.43 0 0 1 .43.43v1.164zM79.51 232.89l-.906-8.188H67.573l-.906 8.188z"
           id="path321" /></g><g
         stroke-width=".523"
         id="g327"><path
           d="M45.145 224.702H33.094v-1.145c0-.248.201-.449.449-.449h11.153c.248 0 .449.201.449.449v1.145zM46.135 232.89l-.99-8.188H33.094l-.99 8.188z"
           id="path325" /></g><g
         stroke-width=".5"
         id="g331"><path
           d="M92.792 224.702H81.76v-1.164a.43.43 0 0 1 .43-.43h10.172a.43.43 0 0 1 .43.43v1.164zM93.698 232.89l-.906-8.188H81.76l-.906 8.188z"
           id="path329" /></g><g
         stroke-width=".5"
         id="g335"><path
           d="M108.01 224.702H96.979v-1.164a.43.43 0 0 1 .43-.43h10.172a.43.43 0 0 1 .43.43v1.164zM108.917 232.89l-.907-8.188H96.979l-.906 8.188z"
           id="path333" /></g><g
         stroke-width=".5"
         id="g339"><path
           d="M122.323 224.702h-11.031v-1.164a.43.43 0 0 1 .43-.43h10.172a.43.43 0 0 1 .43.43v1.164zM123.229 232.89l-.906-8.188h-11.031l-.907 8.188z"
           id="path337" /></g><g
         stroke-width=".5"
         id="g343"><path
           d="M137.666 224.702h-11.031v-1.164a.43.43 0 0 1 .43-.43h10.172a.43.43 0 0 1 .43.43v1.164zM138.573 232.89l-.907-8.188h-11.031l-.906 8.188z"
           id="path341" /></g><g
         stroke-width=".5"
         id="g347"><path
           d="M152.656 224.702h-11.031v-1.164a.43.43 0 0 1 .43-.43h10.172a.43.43 0 0 1 .43.43v1.164zM153.562 232.89l-.906-8.188h-11.031l-.906 8.188z"
           id="path345" /></g><g
         stroke-width=".5"
         id="g351"><path
           d="M167.239 224.702h-11.031v-1.164a.43.43 0 0 1 .43-.43h10.172a.43.43 0 0 1 .43.43v1.164zM168.146 232.89l-.907-8.188h-11.031l-.906 8.188z"
           id="path349" /></g><g
         stroke-width=".5"
         id="g355"><path
           d="M181.489 224.702h-11.031v-1.164a.43.43 0 0 1 .43-.43h10.172a.43.43 0 0 1 .43.43v1.164zM182.396 232.89l-.907-8.188h-11.031l-.906 8.188z"
           id="path353" /></g><g
         stroke-width=".5"
         id="g359"><path
           d="M196.823 224.702h-11.031v-1.164a.43.43 0 0 1 .43-.43h10.172a.43.43 0 0 1 .43.43v1.164zM197.729 232.89l-.906-8.188h-11.031l-.907 8.188z"
           id="path357" /></g><g
         stroke-width=".5"
         id="g363"><path
           d="M211.521 224.702H200.49v-1.164a.43.43 0 0 1 .43-.43h10.172a.43.43 0 0 1 .43.43v1.164zM212.427 232.89l-.906-8.188H200.49l-.907 8.188z"
           id="path361" /></g><g
         stroke-width=".5"
         id="g367"><path
           d="M226.875 224.702h-11.031v-1.164a.43.43 0 0 1 .43-.43h10.172a.43.43 0 0 1 .43.43v1.164zM227.781 232.89l-.906-8.188h-11.031l-.907 8.188z"
           id="path365" /></g><g
         stroke-width=".5"
         id="g371"><path
           d="M241.625 224.702h-11.031v-1.164a.43.43 0 0 1 .43-.43h10.172a.43.43 0 0 1 .43.43v1.164zM242.531 232.89l-.906-8.188h-11.031l-.907 8.188z"
           id="path369" /></g></g><g
       fill="#c0b598"
       stroke="#a5a097"
       stroke-miterlimit="10"
       id="g431"><g
         stroke-width=".5"
         id="g377"><path
           d="M65.604 231.286H54.573v-1.164a.43.43 0 0 1 .43-.43h10.172a.43.43 0 0 1 .43.43v1.164zM66.51 239.473l-.906-8.187H54.573l-.906 8.187z"
           id="path375" /></g><g
         stroke-width=".5"
         id="g381"><path
           d="M79.792 231.286H68.76v-1.164a.43.43 0 0 1 .43-.43h10.172a.43.43 0 0 1 .43.43v1.164zM80.698 239.473l-.906-8.187H68.76l-.906 8.187z"
           id="path379" /></g><g
         stroke-width=".5"
         id="g385"><path
           d="M95.01 231.286H83.979v-1.164a.43.43 0 0 1 .43-.43h10.172a.43.43 0 0 1 .43.43v1.164zM95.917 239.473l-.907-8.187H83.979l-.906 8.187z"
           id="path383" /></g><g
         stroke-width=".5"
         id="g389"><path
           d="M109.323 231.286H98.292v-1.164a.43.43 0 0 1 .43-.43h10.172a.43.43 0 0 1 .43.43v1.164zM110.229 239.473l-.906-8.187H98.292l-.907 8.187z"
           id="path387" /></g><g
         stroke-width=".5"
         id="g393"><path
           d="M124.666 231.286h-11.031v-1.164a.43.43 0 0 1 .43-.43h10.172a.43.43 0 0 1 .43.43v1.164zM125.573 239.473l-.907-8.187h-11.031l-.906 8.187z"
           id="path391" /></g><g
         stroke-width=".5"
         id="g397"><path
           d="M139.656 231.286h-11.031v-1.164a.43.43 0 0 1 .43-.43h10.172a.43.43 0 0 1 .43.43v1.164zM140.562 239.473l-.906-8.187h-11.031l-.906 8.187z"
           id="path395" /></g><g
         stroke-width=".5"
         id="g401"><path
           d="M154.239 231.286h-11.031v-1.164a.43.43 0 0 1 .43-.43h10.172a.43.43 0 0 1 .43.43v1.164zM155.146 239.473l-.907-8.187h-11.031l-.906 8.187z"
           id="path399" /></g><g
         stroke-width=".5"
         id="g405"><path
           d="M168.489 231.286h-11.031v-1.164a.43.43 0 0 1 .43-.43h10.172a.43.43 0 0 1 .43.43v1.164zM169.396 239.473l-.907-8.187h-11.031l-.906 8.187z"
           id="path403" /></g><g
         stroke-width=".5"
         id="g409"><path
           d="M183.823 231.286h-11.031v-1.164a.43.43 0 0 1 .43-.43h10.172a.43.43 0 0 1 .43.43v1.164zM184.729 239.473l-.906-8.187h-11.031l-.907 8.187z"
           id="path407" /></g><g
         stroke-width=".5"
         id="g413"><path
           d="M198.521 231.286H187.49v-1.164a.43.43 0 0 1 .43-.43h10.172a.43.43 0 0 1 .43.43v1.164zM199.427 239.473l-.906-8.187H187.49l-.907 8.187z"
           id="path411" /></g><g
         stroke-width=".5"
         id="g417"><path
           d="M213.875 231.286h-11.031v-1.164a.43.43 0 0 1 .43-.43h10.172a.43.43 0 0 1 .43.43v1.164zM214.781 239.473l-.906-8.187h-11.031l-.907 8.187z"
           id="path415" /></g><g
         stroke-width=".5"
         id="g421"><path
           d="M228.625 231.286h-11.031v-1.164a.43.43 0 0 1 .43-.43h10.172a.43.43 0 0 1 .43.43v1.164zM229.531 239.473l-.906-8.187h-11.031l-.907 8.187z"
           id="path419" /></g><g
         stroke-width=".5"
         id="g425"><path
           d="M243.417 231.286h-11.031v-1.164a.43.43 0 0 1 .43-.43h10.172a.43.43 0 0 1 .43.43v1.164zM244.323 239.473l-.906-8.187h-11.032l-.906 8.187z"
           id="path423" /></g><g
         stroke-width=".523"
         id="g429"><path
           d="M50.666 231.286H31.667v-1.145c0-.248.201-.449.449-.449h18.101c.248 0 .449.201.449.449v1.145zM51.656 239.473l-.99-8.187H31.667l-.99 8.187z"
           id="path427" /></g></g><g
       fill="#c0b598"
       stroke="#a5a097"
       stroke-miterlimit="10"
       id="g489"><g
         stroke-width=".502"
         id="g435"><path
           d="M67.302 235.369H56.185v-1.162c0-.238.193-.431.431-.431H66.87c.238 0 .431.193.431.431v1.162zM68.215 243.556l-.913-8.187H56.185l-.913 8.187z"
           id="path433" /></g><g
         stroke-width=".502"
         id="g439"><path
           d="M81.6 235.369H70.483v-1.162c0-.238.193-.431.431-.431h10.254c.238 0 .431.193.431.431v1.162zM82.513 243.556l-.913-8.187H70.483l-.913 8.187z"
           id="path437" /></g><g
         stroke-width=".502"
         id="g443"><path
           d="M96.936 235.369H85.819v-1.162c0-.238.193-.431.431-.431h10.254c.238 0 .431.193.431.431v1.162zM97.85 243.556l-.914-8.187H85.819l-.913 8.187z"
           id="path441" /></g><g
         stroke-width=".502"
         id="g447"><path
           d="M111.36 235.369h-11.117v-1.162c0-.238.193-.431.431-.431h10.254c.238 0 .431.193.431.431v1.162zM112.273 243.556l-.913-8.187h-11.117l-.913 8.187z"
           id="path445" /></g><g
         stroke-width=".502"
         id="g451"><path
           d="M126.822 235.369h-11.117v-1.162c0-.238.193-.431.431-.431h10.254c.238 0 .431.193.431.431v1.162zM127.736 243.556l-.914-8.187h-11.116l-.914 8.187z"
           id="path449" /></g><g
         stroke-width=".502"
         id="g455"><path
           d="M141.928 235.369h-11.117v-1.162c0-.238.193-.431.431-.431h10.254c.238 0 .431.193.431.431v1.162zM142.841 243.556l-.913-8.187h-11.117l-.913 8.187z"
           id="path453" /></g><g
         stroke-width=".502"
         id="g459"><path
           d="M156.625 235.369h-11.117v-1.162c0-.238.193-.431.431-.431h10.254c.238 0 .431.193.431.431v1.162zM157.538 243.556l-.913-8.187h-11.117l-.913 8.187z"
           id="path457" /></g><g
         stroke-width=".502"
         id="g463"><path
           d="M170.985 235.369h-11.117v-1.162c0-.238.193-.431.431-.431h10.254c.238 0 .431.193.431.431v1.162zM171.898 243.556l-.913-8.187h-11.117l-.913 8.187z"
           id="path461" /></g><g
         stroke-width=".502"
         id="g467"><path
           d="M186.437 235.369H175.32v-1.162c0-.238.193-.431.431-.431h10.254c.238 0 .431.193.431.431v1.162zM187.351 243.556l-.914-8.187h-11.116l-.914 8.187z"
           id="path465" /></g><g
         stroke-width=".502"
         id="g471"><path
           d="M201.249 235.369h-11.117v-1.162c0-.238.193-.431.431-.431h10.254c.238 0 .431.193.431.431v1.162zM202.163 243.556l-.914-8.187h-11.116l-.914 8.187z"
           id="path469" /></g><g
         stroke-width=".502"
         id="g475"><path
           d="M216.722 235.369h-11.117v-1.162c0-.238.193-.431.431-.431h10.254c.238 0 .431.193.431.431v1.162zM217.636 243.556l-.914-8.187h-11.116l-.914 8.187z"
           id="path473" /></g><g
         stroke-width=".525"
         id="g481"><path
           d="M52.248 235.369H30.226v-1.143c0-.249.202-.451.451-.451h21.12c.249 0 .451.202.451.451v1.143z"
           id="path477" /><path
           d="M53.246 243.556l-.998-8.188H30.226l-.998 8.188h24.018z"
           id="path479" /></g><g
         stroke-width=".525"
         id="g487"><path
           d="M245.112 235.369h-24.49v-1.143c0-.249.202-.451.451-.451h23.588c.249 0 .451.202.451.451v1.143z"
           id="path483" /><path
           d="M246.11 243.556l-.998-8.188h-24.49l-.998 8.188h26.486z"
           id="path485" /></g></g><g
       fill="#c0b598"
       stroke="#a5a097"
       stroke-width=".495"
       stroke-miterlimit="10"
       id="g493"><path
         d="M74.855 238.244H62.262v-1.169c0-.235.19-.425.425-.425H74.43c.235 0 .425.19.425.425v1.169zM75.742 246.431l-.887-8.187H62.262l-.887 8.187z"
         id="path491" /></g><g
       fill="#c0b598"
       stroke="#a5a097"
       stroke-width=".495"
       stroke-miterlimit="10"
       id="g497"><path
         d="M90.167 238.244H77.574v-1.169c0-.235.19-.425.425-.425h11.743c.235 0 .425.19.425.425v1.169zM91.054 246.431l-.887-8.187H77.574l-.886 8.187z"
         id="path495" /></g><g
       fill="#c0b598"
       stroke="#a5a097"
       stroke-width=".495"
       stroke-miterlimit="10"
       id="g501"><path
         d="M105.48 238.244H92.887v-1.169c0-.235.19-.425.425-.425h11.743c.235 0 .425.19.425.425v1.169zM106.367 246.431l-.887-8.187H92.887L92 246.431z"
         id="path499" /></g><g
       fill="#c0b598"
       stroke="#a5a097"
       stroke-width=".495"
       stroke-miterlimit="10"
       id="g505"><path
         d="M120.792 238.244h-12.593v-1.169c0-.235.19-.425.425-.425h11.743c.235 0 .425.19.425.425v1.169zM121.679 246.431l-.887-8.187h-12.593l-.887 8.187z"
         id="path503" /></g><g
       fill="#c0b598"
       stroke="#a5a097"
       stroke-width=".495"
       stroke-miterlimit="10"
       id="g509"><path
         d="M136.105 238.244h-12.593v-1.169c0-.235.19-.425.425-.425h11.743c.235 0 .425.19.425.425v1.169zM136.992 246.431l-.887-8.187h-12.593l-.887 8.187z"
         id="path507" /></g><g
       fill="#c0b598"
       stroke="#a5a097"
       stroke-width=".495"
       stroke-miterlimit="10"
       id="g513"><path
         d="M151.417 238.244h-12.593v-1.169c0-.235.19-.425.425-.425h11.743c.235 0 .425.19.425.425v1.169zM152.304 246.431l-.887-8.187h-12.593l-.887 8.187z"
         id="path511" /></g><g
       fill="#c0b598"
       stroke="#a5a097"
       stroke-width=".495"
       stroke-miterlimit="10"
       id="g517"><path
         d="M167.021 238.244h-12.593v-1.169c0-.235.19-.425.425-.425h11.743c.235 0 .425.19.425.425v1.169zM167.908 246.431l-.887-8.187h-12.593l-.886 8.187z"
         id="path515" /></g><g
       fill="#c0b598"
       stroke="#a5a097"
       stroke-width=".495"
       stroke-miterlimit="10"
       id="g521"><path
         d="M182.5 238.244h-12.593v-1.169c0-.235.19-.425.425-.425h11.743c.235 0 .425.19.425.425v1.169zM183.387 246.431l-.887-8.187h-12.592l-.887 8.187z"
         id="path519" /></g><g
       fill="#c0b598"
       stroke="#a5a097"
       stroke-width=".495"
       stroke-miterlimit="10"
       id="g525"><path
         d="M198.209 238.244h-12.593v-1.169c0-.235.19-.425.425-.425h11.743c.235 0 .425.19.425.425v1.169zM199.096 246.431l-.887-8.187h-12.593l-.887 8.187z"
         id="path523" /></g><g
       fill="#c0b598"
       stroke="#a5a097"
       stroke-width=".495"
       stroke-miterlimit="10"
       id="g529"><path
         d="M214.05 238.244h-12.593v-1.169c0-.235.19-.425.425-.425h11.743c.235 0 .425.19.425.425v1.169zM214.937 246.431l-.887-8.187h-12.592l-.887 8.187z"
         id="path527" /></g><g
       fill="#c0b598"
       stroke="#a5a097"
       stroke-width=".495"
       stroke-miterlimit="10"
       id="g533"><path
         d="M245.879 238.244h-29.066v-1.169c0-.235.19-.425.425-.425h28.216c.235 0 .425.19.425.425v1.169zM246.766 246.431l-.887-8.187h-29.066l-.887 8.187z"
         id="path531" /></g><g
       fill="#c0b598"
       stroke="#a5a097"
       stroke-width=".525"
       stroke-miterlimit="10"
       id="g539"><path
         d="M58.544 238.244H30.156v-1.143c0-.249.202-.451.451-.451h27.487c.249 0 .451.202.451.451v1.143z"
         id="path535" /><path
         d="M59.542 246.431l-.998-8.188H30.156l-.998 8.188h30.384z"
         id="path537" /></g><g
       id="g545"><path
         d="M54.479 242.951H42.825v-1.294c0-.228.185-.413.413-.413h11.991c.228 0 .413.185.413.413l-1.163 1.294zM55.833 251.723l-1.354-8.772H42.825l-.783 8.772z"
         fill="#c0b598"
         stroke="#a5a097"
         stroke-width=".481"
         stroke-miterlimit="10"
         id="path541" /><path
         d="M55.852 251.653l1.252-4.742-1.462-5.253-1.163 1.294 1.343 8.7c.003.015.026.017.03.001z"
         fill="#c0b598"
         stroke="#a5a097"
         stroke-width=".481"
         stroke-miterlimit="10"
         id="path543" /></g><g
       id="g551"><path
         d="M77.417 242.951H59.762v-1.294c0-.228.185-.413.413-.413h17.991c.228 0 .413.185.413.413l-1.162 1.294zM78.771 251.723l-1.354-8.772H59.762l-.783 8.772z"
         fill="#c0b598"
         stroke="#a5a097"
         stroke-width=".481"
         stroke-miterlimit="10"
         id="path547" /><path
         d="M78.789 251.653l1.252-4.742-1.462-5.253-1.163 1.294 1.343 8.7c.003.015.026.017.03.001z"
         fill="#c0b598"
         stroke="#a5a097"
         stroke-width=".481"
         stroke-miterlimit="10"
         id="path549" /></g><g
       id="g557"><path
         d="M221.073 242.951h11.654v-1.294a.413.413 0 0 0-.413-.413h-11.991a.413.413 0 0 0-.413.413l1.163 1.294zM219.719 251.723l1.354-8.772h11.654l.783 8.772z"
         fill="#c0b598"
         stroke="#a5a097"
         stroke-width=".481"
         stroke-miterlimit="10"
         id="path553" /><path
         d="M219.7 251.653l-1.252-4.742 1.462-5.253 1.163 1.294-1.343 8.7c-.003.015-.026.017-.03.001z"
         fill="#c0b598"
         stroke="#a5a097"
         stroke-width=".481"
         stroke-miterlimit="10"
         id="path555" /></g><g
       id="g563"><path
         d="M198.135 242.951h17.654v-1.294a.413.413 0 0 0-.413-.413h-17.991a.413.413 0 0 0-.413.413l1.163 1.294zM196.781 251.723l1.354-8.772h17.655l.783 8.772z"
         fill="#c0b598"
         stroke="#a5a097"
         stroke-width=".481"
         stroke-miterlimit="10"
         id="path559" /><path
         d="M196.763 251.653l-1.252-4.742 1.462-5.253 1.163 1.294-1.343 8.7c-.003.015-.026.017-.03.001z"
         fill="#c0b598"
         stroke="#a5a097"
         stroke-width=".481"
         stroke-miterlimit="10"
         id="path561" /></g><g
       id="g571"><path
         fill="#c0b598"
         stroke="#a5a097"
         stroke-width=".481"
         stroke-miterlimit="10"
         d="M193.771 251.723l-1.354-8.772H83.135l-1.343 8.7z"
         id="path565" /><path
         d="M193.789 251.653l1.252-4.742-1.462-5.253-1.163 1.294 1.343 8.7c.003.015.026.017.03.001zM122.217 242.951H83.135l-1.163-1.294c0-.228.185-.413.413-.413h110.781c.228 0 .413.185.413.413l-1.163 1.294h-70.199z"
         fill="#c0b598"
         stroke="#a5a097"
         stroke-width=".481"
         stroke-miterlimit="10"
         id="path567" /><path
         d="M81.763 251.653l-1.252-4.742 1.462-5.253 1.163 1.294-1.343 8.7c-.003.015-.026.017-.03.001z"
         fill="#c0b598"
         stroke="#a5a097"
         stroke-width=".481"
         stroke-miterlimit="10"
         id="path569" /></g><path
       d="M274.339 275.64H1.422A1.422 1.422 0 0 1 0 274.218V261.39h275.76v12.828c0 .785-.636 1.422-1.421 1.422z"
       fill="#ccc4b2"
       id="path573" /><path
       d="M.621 267.609c1.15 1.375 2.113 1.211 4.498 1.211h265.87c2.385 0 3.348.165 4.498-1.211"
       fill="none"
       stroke="#afaaa2"
       stroke-miterlimit="10"
       id="path575" /><path
       d="M258.125 275.64H17.417l3.252 3.252a.846.846 0 0 0 .598.248h232.888a.853.853 0 0 0 .593-.24l3.377-3.26z"
       fill="#969289"
       id="path577" /></g><g
     id="g1012"
     transform="matrix(0.42456343,0,0,0.4383028,293.1284,209.45446)"><path
       d="M 153.533,12.487 V 10.043 L 141.659,0.11 h -3.186 V 0.613 H 125.65 L 125.048,1.059 124.015,1.8 V 1.814 H 19.99 V 0.11 H 1.787 L 1.788,0.113 C 0.798,0.113 0,0.911 0,1.901 v 153.935 c 0,0.99 0.798,1.788 1.788,1.788 h 149.957 c 0.991,0 1.788,-0.798 1.788,-1.788 V 18.397 h -1.467 v -5.91 z M 13.832,146.97 H 4.835 v -6.412 h 8.997 z"
       fill="#174090"
       id="path381" /><path
       fill="#143795"
       d="m 9.199,23.39 v -3.464 h 1.858 L 7.341,11.101 3.625,19.926 h 1.858 v 3.464 h 3.754"
       id="path383-7" /><path
       d="m 19.99,1.814 v 49.199 c 0,1.436 1.196,2.592 2.682,2.592 h 96.845 c 1.486,0 2.682,-1.156 2.682,-2.592 V 1.814"
       fill="#163e7f"
       id="path385" /><path
       d="m 39.076,0 v 50.923 a 2.677,2.677 0 0 0 2.683,2.683 h 77.759 a 2.677,2.677 0 0 0 2.683,-2.683 V 0 Z m 48.143,7.726 h 22.715 V 49.957 H 87.219 Z"
       fill="#8a8e8c"
       id="path387-9" /><path
       d="m 22.992,64.522 h 96.206 a 3.002,3.002 0 0 1 3.002,3.002 v 60.496 a 3.002,3.002 0 0 1 -3.002,3.002 H 22.992 A 3.002,3.002 0 0 1 19.99,128.02 V 67.524 a 3.002,3.002 0 0 1 3.002,-3.002 z"
       fill="#163e7f"
       id="path389" /><path
       d="m 33.47,130.022 h 75.25 a 4.375,4.375 0 0 0 4.375,-4.375 V 69.897 A 4.375,4.375 0 0 0 108.72,65.522 H 33.47 a 4.375,4.375 0 0 0 -4.375,4.375 v 55.75 a 4.375,4.375 0 0 0 4.375,4.375 z"
       fill="#357bb7"
       id="path391-3" /><path
       fill="#ffffff"
       d="m 29.095,72.397 h 84 v 38.5 h -84 z"
       id="path393" /><g
       id="g572"
       transform="matrix(-5.4729462,-0.07914069,0.07378339,-5.1024642,176.99122,130.53911)"><path
         d="m 13.147,8.578 c 0.21,0.297 0.448,0.469 0.582,0.472 0.276,0.006 0.515,-0.18 0.713,-0.175 h 0.016 c 0.198,-0.005 0.437,0.18 0.713,0.175 0.134,-0.003 0.372,-0.175 0.582,-0.472 h -2.606"
         fill="#009ddd"
         id="path558" /><path
         d="m 12.892,8.11 c 0.07,0.176 0.16,0.334 0.255,0.468 h 2.608 C 15.85,8.444 15.939,8.286 16.01,8.11 h -3.118"
         fill="#944d85"
         id="path560" /><path
         d="m 12.75,7.595 c 0.027,0.183 0.077,0.356 0.142,0.515 h 3.119 l 0.03,-0.08 A 0.767,0.767 0 0 1 15.577,7.595 H 12.75"
         fill="#c45152"
         id="path562" /><path
         d="m 12.917,6.566 a 1.23,1.23 0 0 0 -0.173,0.515 h 2.773 a 0.8,0.8 0 0 1 0.322,-0.515 h -2.922"
         fill="#f2bd2f"
         id="path564" /><path
         d="m 12.744,7.08 a 1.975,1.975 0 0 0 0.008,0.515 h 2.824 A 0.895,0.895 0 0 1 15.516,7.08 h -2.772"
         fill="#e19433"
         id="path566" /><path
         d="M 14.454,6.264 H 14.449 C 14.261,6.261 13.914,6.07 13.667,6.096 a 1.047,1.047 0 0 0 -0.751,0.47 h 2.92 A 0.664,0.664 0 0 1 15.929,6.51 0.926,0.926 0 0 0 15.235,6.096 C 14.989,6.07 14.642,6.261 14.454,6.264"
         fill="#76b845"
         id="path568" /><path
         d="m 15.12,5.206 c -0.02,-0.016 -0.37,0.048 -0.586,0.29 -0.217,0.242 -0.203,0.61 -0.184,0.627 0.019,0.016 0.374,-0.04 0.586,-0.29 0.21,-0.25 0.203,-0.611 0.184,-0.627"
         fill="#76b845"
         id="path570" /></g><path
       fill="none"
       stroke="#357bb7"
       stroke-miterlimit="10"
       d="m 111.096,74.397 v 34.5 h -80 v -34.5 z"
       id="path395-8" /><path
       id="path447"
       d="m 56.247877,99.230588 c 2.864506,-0.05642 7.582233,-2.300578 7.525494,-5.1815 -0.01437,-0.729758 -0.371214,-0.952605 -0.85621,-0.943053 -3.21786,0.06338 -1.92538,5.225293 -5.759883,5.300814 -0.969123,0.01909 -1.331092,-0.396159 -1.348496,-1.27987 l -0.07867,-3.994407 3.829613,-2.610876 c 2.870841,-1.978274 3.992656,-3.268394 3.960136,-4.919594 -0.02724,-1.382921 -1.512078,-2.851438 -3.054967,-2.821051 -1.507938,0.0237 -3.008796,0.861024 -5.059709,2.789183 -0.430695,-1.720363 -1.155338,-2.666778 -2.565725,-2.639 -1.057898,0.02083 -3.19007,1.445796 -3.155271,3.212464 0.0037,0.229432 0.138547,0.381025 0.359386,0.376296 0.749142,-0.01475 0.671299,-1.742096 1.773363,-1.763802 0.70541,-0.01389 1.025417,0.555907 1.042814,1.439235 l 0.197444,10.025092 c 0.0454,2.305118 0.50155,3.063031 3.190681,3.010069 z M 55.71052,92.094886 55.601107,86.717238 c 0.429927,-0.584119 1.810007,-2.224572 3.396638,-2.255821 1.014158,-0.01997 1.733049,0.657032 1.758762,1.962598 0.03177,1.613098 -1.474697,3.41079 -5.046104,5.670874 z m 25.355055,8.536794 0.23189,-15.104454 c -0.04992,-2.534538 -2.816705,-1.9814 -2.826522,-2.479853 -0.0068,-0.346013 0.388342,-0.43005 1.137488,-0.444805 l 4.539479,-0.0894 c 0.617505,-0.01216 0.928841,0.134967 0.933389,0.365892 0.01438,0.730138 -2.702495,0.03432 -2.743181,2.455542 l -0.24429,16.718418 c 0.03177,1.61309 2.940631,0.88314 2.955769,1.65176 0.0045,0.23055 -0.257776,0.35085 -0.830678,0.36213 l -4.716589,0.0929 -5.900465,-16.444509 -5.055854,16.739939 -3.853377,-0.003 c -0.617504,0.0122 -0.92809,-0.0969 -0.93414,-0.404 -0.01361,-0.69127 2.204135,-0.0434 2.213077,-1.81093 L 64.850718,85.62239 c -0.06158,-0.882838 -0.249476,-1.493297 -0.562444,-1.67927 -0.714491,-0.447208 -1.812019,-0.194947 -1.821093,-0.655668 -0.0053,-0.269038 0.257344,-0.350845 0.830679,-0.362137 l 5.818657,-0.114598 c 0.573335,-0.01129 0.839426,0.06008 0.844725,0.32914 0.01362,0.691266 -2.468718,0.04862 -2.432408,1.892264 l 0.0091,0.46072 1.008751,15.388039 5.133989,-16.929845 c 0.289075,-1.005257 0.330558,-1.120457 0.68348,-1.127407 0.440827,-0.0087 0.536731,0.373703 0.772601,1.176104 z m -42.470288,-2.582749 -0.04842,-2.458317 c -0.01286,-0.652781 0.154747,-1.116982 0.771386,-1.129126 1.542461,-0.03038 1.399202,3.891417 4.044164,3.839325 2.1591,-0.04252 4.219348,-2.926644 4.136144,-7.151247 -0.08699,-4.417054 -2.120632,-6.912523 -4.941406,-6.856968 -3.34994,0.06598 -3.240715,3.368277 -3.990293,3.38304 -0.308753,0.0061 -0.445368,-0.221874 -0.451425,-0.529394 -0.04689,-2.380968 2.866295,-4.474838 5.290411,-4.522581 3.614522,-0.07119 6.723024,3.286783 6.819864,8.2038 0.101352,5.146053 -3.318631,8.364219 -7.462319,8.445829 -1.894091,0.03693 -3.18191,-0.398611 -4.16811,-1.224361 z"
       style="stroke-width:0.404302" /></g></svg>
