<?xml version="1.0" encoding="UTF-8" standalone="no"?>
<svg
   viewBox="0 0 153.533 157.625"
   version="1.1"
   id="svg403"
   sodipodi:docname="game.svg"
   inkscape:version="1.2.1 (9c6d41e, 2022-07-14)"
   xmlns:inkscape="http://www.inkscape.org/namespaces/inkscape"
   xmlns:sodipodi="http://sodipodi.sourceforge.net/DTD/sodipodi-0.dtd"
   xmlns="http://www.w3.org/2000/svg"
   xmlns:svg="http://www.w3.org/2000/svg">
  <defs
     id="defs407" />
  <sodipodi:namedview
     id="namedview405"
     pagecolor="#ffffff"
     bordercolor="#000000"
     borderopacity="0.25"
     inkscape:showpageshadow="2"
     inkscape:pageopacity="0.0"
     inkscape:pagecheckerboard="0"
     inkscape:deskcolor="#d1d1d1"
     showgrid="false"
     inkscape:zoom="5.1324346"
     inkscape:cx="48.612407"
     inkscape:cy="79.202178"
     inkscape:window-width="1463"
     inkscape:window-height="959"
     inkscape:window-x="0"
     inkscape:window-y="25"
     inkscape:window-maximized="0"
     inkscape:current-layer="svg403" />
  <path
     d="M153.533 12.487v-2.444L141.659.11h-3.186v.503H125.65l-.602.446-1.033.741v.014H19.99V.11H1.787l.001.003C.798.113 0 .911 0 1.901v153.935c0 .99.798 1.788 1.788 1.788h149.957c.991 0 1.788-.798 1.788-1.788V18.397h-1.467v-5.91h1.467zM13.832 146.97H4.835v-6.412h8.997v6.412z"
     fill="#174090"
     id="path381" />
  <path
     fill="#143795"
     d="M9.199 23.39v-3.464h1.858l-3.716-8.825-3.716 8.825h1.858v3.464h3.754"
     id="path383" />
  <path
     d="M19.99 1.814v49.199c0 1.436 1.196 2.592 2.682 2.592h96.845c1.486 0 2.682-1.156 2.682-2.592V1.814"
     fill="#163e7f"
     id="path385" />
  <path
     d="M39.076 0v50.923a2.677 2.677 0 0 0 2.683 2.683h77.759a2.677 2.677 0 0 0 2.683-2.683V0H39.076zm48.143 7.726h22.715v42.231H87.219V7.726z"
     fill="#8a8e8c"
     id="path387" />
  <path
     d="M22.992 64.522h96.206a3.002 3.002 0 0 1 3.002 3.002v60.496a3.002 3.002 0 0 1-3.002 3.002H22.992a3.002 3.002 0 0 1-3.002-3.002V67.524a3.002 3.002 0 0 1 3.002-3.002z"
     fill="#163e7f"
     id="path389" />
  <path
     d="M33.47 130.022h75.25a4.375 4.375 0 0 0 4.375-4.375v-55.75a4.375 4.375 0 0 0-4.375-4.375H33.47a4.375 4.375 0 0 0-4.375 4.375v55.75a4.375 4.375 0 0 0 4.375 4.375z"
     fill="#357bb7"
     id="path391" />
  <path
     fill="#fff"
     d="M29.095 72.397h84v38.5h-84z"
     id="path393" />
  <g
     id="g572"
     transform="matrix(-5.4729462,-0.07914069,0.07378339,-5.1024642,176.99122,130.53911)">
    <path
       d="m 13.147,8.578 c 0.21,0.297 0.448,0.469 0.582,0.472 0.276,0.006 0.515,-0.18 0.713,-0.175 h 0.016 c 0.198,-0.005 0.437,0.18 0.713,0.175 0.134,-0.003 0.372,-0.175 0.582,-0.472 h -2.606"
       fill="#009ddd"
       id="path558" />
    <path
       d="m 12.892,8.11 c 0.07,0.176 0.16,0.334 0.255,0.468 h 2.608 C 15.85,8.444 15.939,8.286 16.01,8.11 h -3.118"
       fill="#944d85"
       id="path560" />
    <path
       d="m 12.75,7.595 c 0.027,0.183 0.077,0.356 0.142,0.515 h 3.119 l 0.03,-0.08 A 0.767,0.767 0 0 1 15.577,7.595 H 12.75"
       fill="#c45152"
       id="path562" />
    <path
       d="m 12.917,6.566 a 1.23,1.23 0 0 0 -0.173,0.515 h 2.773 a 0.8,0.8 0 0 1 0.322,-0.515 h -2.922"
       fill="#f2bd2f"
       id="path564" />
    <path
       d="m 12.744,7.08 a 1.975,1.975 0 0 0 0.008,0.515 h 2.824 A 0.895,0.895 0 0 1 15.516,7.08 h -2.772"
       fill="#e19433"
       id="path566" />
    <path
       d="M 14.454,6.264 H 14.449 C 14.261,6.261 13.914,6.07 13.667,6.096 a 1.047,1.047 0 0 0 -0.751,0.47 h 2.92 A 0.664,0.664 0 0 1 15.929,6.51 0.926,0.926 0 0 0 15.235,6.096 C 14.989,6.07 14.642,6.261 14.454,6.264"
       fill="#76b845"
       id="path568" />
    <path
       d="m 15.12,5.206 c -0.02,-0.016 -0.37,0.048 -0.586,0.29 -0.217,0.242 -0.203,0.61 -0.184,0.627 0.019,0.016 0.374,-0.04 0.586,-0.29 0.21,-0.25 0.203,-0.611 0.184,-0.627"
       fill="#76b845"
       id="path570" />
  </g>
  <path
     fill="none"
     stroke="#357bb7"
     stroke-miterlimit="10"
     d="M111.096 74.397v34.5h-80v-34.5z"
     id="path395" />
  <path
     id="path447"
     d="m 56.247877,99.230588 c 2.864506,-0.05642 7.582233,-2.300578 7.525494,-5.1815 -0.01437,-0.729758 -0.371214,-0.952605 -0.85621,-0.943053 -3.21786,0.06338 -1.92538,5.225293 -5.759883,5.300814 -0.969123,0.01909 -1.331092,-0.396159 -1.348496,-1.27987 l -0.07867,-3.994407 3.829613,-2.610876 c 2.870841,-1.978274 3.992656,-3.268394 3.960136,-4.919594 -0.02724,-1.382921 -1.512078,-2.851438 -3.054967,-2.821051 -1.507938,0.0237 -3.008796,0.861024 -5.059709,2.789183 -0.430695,-1.720363 -1.155338,-2.666778 -2.565725,-2.639 -1.057898,0.02083 -3.19007,1.445796 -3.155271,3.212464 0.0037,0.229432 0.138547,0.381025 0.359386,0.376296 0.749142,-0.01475 0.671299,-1.742096 1.773363,-1.763802 0.70541,-0.01389 1.025417,0.555907 1.042814,1.439235 l 0.197444,10.025092 c 0.0454,2.305118 0.50155,3.063031 3.190681,3.010069 z M 55.71052,92.094886 55.601107,86.717238 c 0.429927,-0.584119 1.810007,-2.224572 3.396638,-2.255821 1.014158,-0.01997 1.733049,0.657032 1.758762,1.962598 0.03177,1.613098 -1.474697,3.41079 -5.046104,5.670874 z m 25.355055,8.536794 0.23189,-15.104454 c -0.04992,-2.534538 -2.816705,-1.9814 -2.826522,-2.479853 -0.0068,-0.346013 0.388342,-0.43005 1.137488,-0.444805 l 4.539479,-0.0894 c 0.617505,-0.01216 0.928841,0.134967 0.933389,0.365892 0.01438,0.730138 -2.702495,0.03432 -2.743181,2.455542 l -0.24429,16.718418 c 0.03177,1.61309 2.940631,0.88314 2.955769,1.65176 0.0045,0.23055 -0.257776,0.35085 -0.830678,0.36213 l -4.716589,0.0929 -5.900465,-16.444509 -5.055854,16.739939 -3.853377,-0.003 c -0.617504,0.0122 -0.92809,-0.0969 -0.93414,-0.404 -0.01361,-0.69127 2.204135,-0.0434 2.213077,-1.81093 L 64.850718,85.62239 c -0.06158,-0.882838 -0.249476,-1.493297 -0.562444,-1.67927 -0.714491,-0.447208 -1.812019,-0.194947 -1.821093,-0.655668 -0.0053,-0.269038 0.257344,-0.350845 0.830679,-0.362137 l 5.818657,-0.114598 c 0.573335,-0.01129 0.839426,0.06008 0.844725,0.32914 0.01362,0.691266 -2.468718,0.04862 -2.432408,1.892264 l 0.0091,0.46072 1.008751,15.388039 5.133989,-16.929845 c 0.289075,-1.005257 0.330558,-1.120457 0.68348,-1.127407 0.440827,-0.0087 0.536731,0.373703 0.772601,1.176104 z m -42.470288,-2.582749 -0.04842,-2.458317 c -0.01286,-0.652781 0.154747,-1.116982 0.771386,-1.129126 1.542461,-0.03038 1.399202,3.891417 4.044164,3.839325 2.1591,-0.04252 4.219348,-2.926644 4.136144,-7.151247 -0.08699,-4.417054 -2.120632,-6.912523 -4.941406,-6.856968 -3.34994,0.06598 -3.240715,3.368277 -3.990293,3.38304 -0.308753,0.0061 -0.445368,-0.221874 -0.451425,-0.529394 -0.04689,-2.380968 2.866295,-4.474838 5.290411,-4.522581 3.614522,-0.07119 6.723024,3.286783 6.819864,8.2038 0.101352,5.146053 -3.318631,8.364219 -7.462319,8.445829 -1.894091,0.03693 -3.18191,-0.398611 -4.16811,-1.224361 z"
     style="stroke-width:0.404302" />
</svg>
