<svg xmlns="http://www.w3.org/2000/svg" xmlns:xlink="http://www.w3.org/1999/xlink" viewBox="0 0 470.33 67.41"><defs><style>.a2176c15-2e7e-49c6-a13f-e50322a88089{stroke:#9def48;stroke-miterlimit:10;stroke-width:0.75px;fill:url(#bfb05bc1-e976-49be-833a-1e829e89dc29);}.a82725fe-9c98-4c3c-9dc7-e89139aa5a6f{fill:#9def48;}.e9e16a0b-611d-4a87-bf6e-1065cf21f4fd{fill:#fff;}</style><linearGradient id="bfb05bc1-e976-49be-833a-1e829e89dc29" x1="0.38" y1="33.7" x2="469.96" y2="33.7" gradientUnits="userSpaceOnUse"><stop offset="0" stop-color="#032c02"/><stop offset="1" stop-color="#207a09"/></linearGradient></defs><g id="a0ed8428-1200-4b9e-9ad8-8c022b5c95d5" data-name="texte"><polygon class="a2176c15-2e7e-49c6-a13f-e50322a88089" points="0.38 5.91 102.44 5.91 108.57 0.38 150.31 0.38 158.22 5.91 461.65 6.11 469.96 16 469.96 59.72 50.81 59.72 42.7 67.03 7.89 67.03 0.38 59.72 0.38 5.91"/><path class="a82725fe-9c98-4c3c-9dc7-e89139aa5a6f" d="M65.93,24.1H58.07a16.32,16.32,0,0,0-2.34,8.18,16.38,16.38,0,0,0,2.34,8.19h2.7v4.07H55.88a18.23,18.23,0,0,1-4.22-12.26A18.18,18.18,0,0,1,55.88,20H65.93V16.19h4V20H80a18.18,18.18,0,0,1,4.22,12.25A18.23,18.23,0,0,1,80,44.54H75.14V40.47h2.72a16.45,16.45,0,0,0,2.32-8.19,16.39,16.39,0,0,0-2.32-8.18H70V38.63h-4Z" transform="translate(-0.13 -0.13)"/><path class="a82725fe-9c98-4c3c-9dc7-e89139aa5a6f" d="M94.47,37.72l-4.29,6.82H85.1L100.67,20h4.69l15.45,24.51h-5l-4.24-6.82Zm14.56-4-6-9.59-6,9.59Z" transform="translate(-0.13 -0.13)"/><path class="a82725fe-9c98-4c3c-9dc7-e89139aa5a6f" d="M149.33,37.24h4.37a17.11,17.11,0,0,1-3.67,7.3H125.88a18.23,18.23,0,0,1-4.22-12.26A18.22,18.22,0,0,1,125.88,20H150a17.11,17.11,0,0,1,3.67,7.3h-4.37a18.89,18.89,0,0,0-1.47-3.23H128.07a16.32,16.32,0,0,0-2.34,8.18,16.38,16.38,0,0,0,2.34,8.19h19.79A19.62,19.62,0,0,0,149.33,37.24Z" transform="translate(-0.13 -0.13)"/><path class="a82725fe-9c98-4c3c-9dc7-e89139aa5a6f" d="M162.9,44.54h-4.07v-21l4.07-4.07Z" transform="translate(-0.13 -0.13)"/><path class="a82725fe-9c98-4c3c-9dc7-e89139aa5a6f" d="M174.43,24.1a16.32,16.32,0,0,0-2.34,8.18,16.38,16.38,0,0,0,2.34,8.19h2.7v4.07h-4.88A18.19,18.19,0,0,1,168,32.28,18.14,18.14,0,0,1,172.25,20h24.14a18.14,18.14,0,0,1,4.23,12.25,18.19,18.19,0,0,1-4.23,12.26h-4.88V40.47h2.71a16.47,16.47,0,0,0,2.33-8.19,16.41,16.41,0,0,0-2.33-8.18Z" transform="translate(-0.13 -0.13)"/><path class="a82725fe-9c98-4c3c-9dc7-e89139aa5a6f" d="M220.54,41.07l-4.07,4.07v-21H203.18V20h30.66V24.1h-13.3Z" transform="translate(-0.13 -0.13)"/><path class="a82725fe-9c98-4c3c-9dc7-e89139aa5a6f" d="M264.77,44.54H240.62a18.23,18.23,0,0,1-4.22-12.26A18.18,18.18,0,0,1,240.62,20h24.15A18.18,18.18,0,0,1,269,32.28,18.23,18.23,0,0,1,264.77,44.54Zm-2.17-4.07a16.45,16.45,0,0,0,2.32-8.19,16.39,16.39,0,0,0-2.32-8.18H242.81a16.32,16.32,0,0,0-2.34,8.18,16.38,16.38,0,0,0,2.34,8.19Z" transform="translate(-0.13 -0.13)"/><path class="a82725fe-9c98-4c3c-9dc7-e89139aa5a6f" d="M303.15,30.25l1.85,2a18.19,18.19,0,0,1-4.22,12.26H276.63a17.11,17.11,0,0,1-3.67-7.3h4.37a19,19,0,0,0,1.49,3.23h19.79a17.3,17.3,0,0,0,2.19-6.17H274.26l-1.85-2A18.22,18.22,0,0,1,276.63,20h24.15a17.11,17.11,0,0,1,3.67,7.3h-4.37a18.89,18.89,0,0,0-1.47-3.23H278.82a17.52,17.52,0,0,0-2.21,6.15Z" transform="translate(-0.13 -0.13)"/><path class="a82725fe-9c98-4c3c-9dc7-e89139aa5a6f" d="M312.62,34.3a17.49,17.49,0,0,0,2.21,6.17h2.7v4.07h-4.89a18.23,18.23,0,0,1-4.22-12.26A18.18,18.18,0,0,1,312.64,20h4.89V24.1h-2.7a17.33,17.33,0,0,0-2.21,6.15H336.8a17.44,17.44,0,0,0-2.18-6.15H331.9V20h4.89A18.18,18.18,0,0,1,341,32.28a18.23,18.23,0,0,1-4.22,12.26H331.9V40.47h2.72a17.6,17.6,0,0,0,2.18-6.17Z" transform="translate(-0.13 -0.13)"/></g><g id="eef15fb3-6fd5-4ffb-8b79-9b6174cabfd1" data-name="apple"><rect class="e9e16a0b-611d-4a87-bf6e-1065cf21f4fd" x="17.28" y="21.64" width="12.72" height="3.08"/><path class="e9e16a0b-611d-4a87-bf6e-1065cf21f4fd" d="M23,11.74a.39.39,0,0,1,.39,0L26.21,14V10.61L23,8.27H20.44v6a6.26,6.26,0,0,0,1.49,4.18,4.2,4.2,0,0,0,3.31,1.75,4.28,4.28,0,0,0,3.58-1.77,6.58,6.58,0,0,0,1.31-4.15V8.27h-2.3V14a2.8,2.8,0,0,1-.74,2,2.49,2.49,0,0,1-1.88.83A2.33,2.33,0,0,1,23.43,16a2.94,2.94,0,0,1-.69-2v-2A.36.36,0,0,1,23,11.74Z" transform="translate(-0.13 -0.13)"/><path class="e9e16a0b-611d-4a87-bf6e-1065cf21f4fd" d="M20.44,59.91a4.86,4.86,0,0,0,1.45,3.59A4.52,4.52,0,0,0,25.23,65a4.6,4.6,0,0,0,3.38-1.54,4.89,4.89,0,0,0,1.52-3.55v-2h-2.3v.84a2.85,2.85,0,0,1-.73,2,2.45,2.45,0,0,1-1.84.82,2.39,2.39,0,0,1-1.83-.81,2.84,2.84,0,0,1-.69-1.94v-2.1a.36.36,0,0,1,.11-.25.38.38,0,0,1,.26-.11h7V53.24H20.44Z" transform="translate(-0.13 -0.13)"/><path class="e9e16a0b-611d-4a87-bf6e-1065cf21f4fd" d="M22.85,34.91a.36.36,0,0,1-.11-.26V32.7a3,3,0,0,1,.83-2.11,2.49,2.49,0,0,1,1.82-.82,2.22,2.22,0,0,1,1.79.89,3.27,3.27,0,0,1,.65,2v.72h2.3V31.36a5,5,0,0,0-1.39-3.57,4.37,4.37,0,0,0-3.36-1.45,4.67,4.67,0,0,0-3.49,1.45,4.72,4.72,0,0,0-1.45,3.5v6.8H33.17V35H23.11A.37.37,0,0,1,22.85,34.91Z" transform="translate(-0.13 -0.13)"/><path class="e9e16a0b-611d-4a87-bf6e-1065cf21f4fd" d="M22.85,48.15a.34.34,0,0,1-.11-.25V46a3,3,0,0,1,.83-2.11A2.49,2.49,0,0,1,25.39,43a2.22,2.22,0,0,1,1.79.88A3.3,3.3,0,0,1,27.83,46v.72h2.3V44.61A5,5,0,0,0,28.74,41a4.4,4.4,0,0,0-3.36-1.45A4.67,4.67,0,0,0,21.89,41a4.73,4.73,0,0,0-1.45,3.5v6.81H33.17V48.26H23.11A.38.38,0,0,1,22.85,48.15Z" transform="translate(-0.13 -0.13)"/></g></svg>