<?xml version="1.0" encoding="utf-8"?>
<!-- Generator: Adobe Illustrator 24.1.2, SVG Export Plug-In . SVG Version: 6.00 Build 0)  -->
<svg version="1.1" id="Calque_1" xmlns="http://www.w3.org/2000/svg" xmlns:xlink="http://www.w3.org/1999/xlink" x="0px" y="0px"
	 viewBox="0 0 336 192.1" style="enable-background:new 0 0 336 192.1;" xml:space="preserve">
<style type="text/css">
	.st0{fill:#C4C4C3;}
	.st1{fill:url(#SVGID_1_);}
	.st2{fill:#111115;}
	.st3{fill:#514281;}
	.st4{fill:#93B857;stroke:#93B857;stroke-width:0.1048;stroke-miterlimit:10;}
	.st5{fill:#160F26;}
	.st6{fill:#9B999A;}
	.st7{fill:#080A00;}
	.st8{fill:#FFFFFF;}
	.st9{fill:#342060;}
	.st10{fill:#3D2F7D;}
	.st11{fill:#453370;}
	.st12{fill:#4C377B;}
	.st13{fill:#4B3E78;}
	.st14{fill:#A8A7A7;}
</style>
<path class="st0" d="M13,31.8l-3.8-1.9c0,0,6.5-14.7,19-17.8s51.2-6.6,51.2-6.6L13,31.8z"/>
<path class="st0" d="M12.9,38.6l-5.3,1c0,0-9.2,66.7-7.3,100.7c0.3,17.6,16.6,25.6,17.7,25.7c1,0.1,4.4-0.5,7.3-2.7
	C23.9,162,12.9,38.6,12.9,38.6z"/>
<path class="st0" d="M323,31.8l3.8-1.9c0,0-6.5-14.7-19-17.8s-51.2-6.6-51.2-6.6L323,31.8z"/>
<path class="st0" d="M323.2,38.6l5.3,1c0,0,9.2,66.7,7.3,100.7c-0.3,17.6-16.6,25.6-17.7,25.7c-1,0.1-4.4-0.5-7.3-2.7
	C312.1,162,323.2,38.6,323.2,38.6L323.2,38.6z"/>
<g>
	
		<linearGradient id="SVGID_1_" gradientUnits="userSpaceOnUse" x1="167.823" y1="1.882" x2="167.823" y2="194" gradientTransform="matrix(1 0 0 -1 0 194)">
		<stop  offset="0" style="stop-color:#493575"/>
		<stop  offset="1" style="stop-color:#4D407B"/>
	</linearGradient>
	<path class="st1" d="M324.5,32.9c-0.5-3.6-3.6-9.6-11.4-10.4c-9.1-1-20.8-3.5-33.1-8C264.5,8.5,256,0,243.5,0H92.2
		c-12.5,0-21,8.5-36.5,14.5c-12.3,4.5-23.9,7-33.1,8c-7.8,0.9-10.9,6.8-11.4,10.4C3,92.9,3.3,125.1,3.3,139
		c-0.1,11.1,6.8,20.4,16.2,24.2s31,9.6,39.2,10.6c8.2,1,20.9,9.7,29.4,11.1c8.5,1.4,50.5,7.1,77.8,7.1h4.1v0
		c27.3,0,69.3-5.7,77.8-7.1c8.5-1.4,21.2-10.1,29.4-11.1c8.2-1,29.8-6.8,39.2-10.6c9.4-3.8,16.2-13.1,16.2-24.2
		C332.3,125.1,332.7,92.9,324.5,32.9z M256.4,144.4c-1.6,11-8.2,16.9-19.5,19.5c-11.3,2.6-48,9.2-69.1,9.4
		c-21.1-0.2-57.8-6.8-69.1-9.4c-11.3-2.6-17.9-8.5-19.5-19.5c-1.6-11,4.2-100.2,5.6-108.4c1.4-8.2,6.4-10.8,11.5-11.7
		c5-0.9,32.4-4.2,71.5-4.2h0h0l0,0c39.1,0,66.5,3.3,71.5,4.2c5,0.9,10.1,3.5,11.5,11.7C252.2,44.2,258,133.5,256.4,144.4z"/>
	<polygon class="st2" points="167.8,20.2 167.8,20.2 167.8,20.2 	"/>
	<path class="st2" d="M239.3,24.4c-5-0.9-32.4-4.2-71.5-4.2s-66.5,3.3-71.5,4.2c-5,0.9-10.1,3.5-11.5,11.7
		c-1.4,8.2-7.1,97.5-5.6,108.4c1.6,11,8.2,16.9,19.5,19.5c11.3,2.6,48,9.2,69.1,9.4c21.1-0.2,57.8-6.8,69.1-9.4
		c11.3-2.6,17.9-8.5,19.5-19.5c1.6-11-4.2-100.2-5.6-108.4C249.4,27.8,244.4,25.2,239.3,24.4z M242,136.4H93.7v-100H242V136.4z"/>
</g>
<path class="st0" d="M50.2,100.6h-9.5c-1.1,0-1.9-0.9-1.9-1.9v-13H26c-1.1,0-1.9-0.9-1.9-1.9v-9.5c0-1.1,0.9-1.9,1.9-1.9h12.7V59.7
	c0-1.1,0.9-1.9,1.9-1.9h9.5c1.1,0,1.9,0.9,1.9,1.9v12.7h12c1.1,0,1.9,0.9,1.9,1.9v9.5c0,1.1-0.9,1.9-1.9,1.9h-12v13
	C52.1,99.7,51.2,100.6,50.2,100.6z"/>
<path class="st3" d="M71.6,121c1.8,1.5,2.7,3.9,2.2,6.4c-0.8,3.5-4.2,5.6-7.7,4.9l-24.6-5.9c-3.5-0.8-5.7-4.2-4.9-7.7
	c0.8-3.5,4.2-5.7,7.7-4.9l24.6,5.9C70,119.9,70.9,120.3,71.6,121z"/>
<path class="st3" d="M70.8,140.2c1.8,1.5,2.7,3.9,2.2,6.4c-0.8,3.5-4.2,5.7-7.7,4.9l-24.6-5.9c-3.5-0.8-5.7-4.2-4.9-7.7
	c0.8-3.5,4.2-5.7,7.7-4.9l24.6,5.9C69.1,139.1,70,139.6,70.8,140.2z"/>
<path class="st0" d="M73.1,126c0,3-2.4,5.4-5.4,5.4c-3,0-5.4-2.4-5.4-5.4c0-3,2.4-5.4,5.4-5.4C70.7,120.6,73.1,123,73.1,126z"/>
<path class="st0" d="M72.3,145.3c0,3-2.4,5.4-5.4,5.4s-5.4-2.4-5.4-5.4c0-3,2.4-5.4,5.4-5.4C69.9,139.9,72.3,142.3,72.3,145.3z"/>
<path class="st0" d="M289,84.1c0,5.9-4.8,10.7-10.7,10.7c-5.9,0-10.7-4.8-10.7-10.7s4.8-10.7,10.7-10.7
	C284.2,73.4,289,78.2,289,84.1z"/>
<path class="st0" d="M319.6,73.4c0,5.9-4.8,10.7-10.7,10.7c-5.9,0-10.7-4.8-10.7-10.7c0-5.9,4.8-10.7,10.7-10.7
	C314.8,62.7,319.6,67.5,319.6,73.4z"/>
<path class="st4" d="M281.5,33.1c0,1.8-1.5,3.3-3.3,3.3c-1.8,0-3.3-1.5-3.3-3.3c0-1.8,1.5-3.3,3.3-3.3
	C280,29.9,281.5,31.3,281.5,33.1z"/>
<path class="st5" d="M268,128.5c-0.1-0.5,0.2-1.1,0.7-1.2l33.3-8.2c0.5-0.1,1.1,0.2,1.2,0.7s-0.2,1.1-0.7,1.2l-33.3,8.2
	C268.7,129.4,268.1,129,268,128.5z"/>
<path class="st5" d="M268,135.9c-0.1-0.5,0.2-1.1,0.7-1.2l33.3-8.2c0.5-0.1,1.1,0.2,1.2,0.7s-0.2,1.1-0.7,1.2l-33.3,8.2
	C268.7,136.8,268.1,136.5,268,135.9z"/>
<path class="st5" d="M268,143.4c-0.1-0.5,0.2-1.1,0.7-1.2l33.3-8.2c0.5-0.1,1.1,0.2,1.2,0.7s-0.2,1.1-0.7,1.2l-33.3,8.2
	C268.7,144.2,268.1,143.9,268,143.4z"/>
<path class="st5" d="M268,150.8c-0.1-0.5,0.2-1.1,0.7-1.2l33.3-8.2c0.5-0.1,1.1,0.2,1.2,0.7s-0.2,1.1-0.7,1.2l-33.3,8.2
	C268.7,151.6,268.1,151.3,268,150.8z"/>
<path class="st6" d="M41.4,67.6h7.4l-3.8-7.2L41.4,67.6z"/>
<path class="st6" d="M48.8,90.7h-7.4l3.8,7.2L48.8,90.7z"/>
<path class="st6" d="M56.6,75.4v7.4l7.2-3.8L56.6,75.4z"/>
<path class="st6" d="M33.5,82.8v-7.4l-7.2,3.8L33.5,82.8z"/>
<path class="st7" d="M155.1,146.4c1.2,0,2,0.5,2.7,1.4c0.3-0.2,0.5-0.5,0.8-0.6c0.8-0.5,1.6-0.7,2.4-0.7l11.2,0l-0.7,1.2l14.1,0
	l1.3,2.2l1.2-2.2l9.4,0l2.3,1.8v-1.8h17.7v8.3h-16.3l-2.4-1.8v1.8l-13.2,0v0l-0.9-1.4c-0.7,0.8-2,1.4-4.1,1.4l-12.9,0l-0.2,1.2h-4.5
	l0.1-0.6c0,0-0.1,0.1-0.1,0.1c-1,0.6-2.2,0.9-3.4,0.6c-0.9-0.2-1.6-0.7-2.2-1.3c-0.8,0.7-1.8,1.2-2.8,1.2l-22.2,0l-0.4-2l-0.9,2
	h-3.7c-1.2,0.2-2.3,0-3.4-0.5c-1.5-0.7-2.4-2.1-2.6-3.5c-0.3-2.5,0.7-4.4,2.8-5.7c2-1.2,4.1-1.4,6.3-0.7l0.4,0.1l0.2-0.3h4.2
	l0.3,1.9l0.6-1.9L155.1,146.4z"/>
<path class="st8" d="M190.6,149h-1.7l0,0.1l-2,3.5l-2.1-3.5l0-0.1H183l0.1,0.2l0.4,0.6c-0.6-0.5-1.4-0.8-2.6-0.8h-3.7v4.6l-2.7-4.5
	l0-0.1H173l0,0.1l-3.1,5.2l-0.1,0.2h1.2v0h2.7v-1.2H172l1.6-2.9l2.3,4l0,0.1h1.8l0,0h2.8c2.4,0,3.7-0.9,3.7-2.8c0-0.3,0-0.6-0.1-0.9
	l2.2,3.6l0,0.1h1.1l0-0.1l3.1-5.2L190.6,149z M180.3,153.2h-1.5v-3h2.1c1.1,0,1.7,0.5,1.7,1.4C182.6,152.8,182,153.2,180.3,153.2
	L180.3,153.2z"/>
<path class="st8" d="M201.3,149h-0.2v3.3L197,149l0,0h-1.1v4.6l-2.8-4.5l0-0.1h-1.4l0,0.1l-3.1,5.2l-0.1,0.2h1.7l0,0h2.3v-1.2h-1.6
	l1.6-2.8l2.3,4l0,0.1h1.8l0,0h0.9v-3.3l4.2,3.3l0,0h1.1V149H201.3z"/>
<path class="st8" d="M208,149h-3.3c-1.2,0-1.5,0.3-1.5,1.4v2.7c0,1,0.4,1.4,1.5,1.4h3.3c1.2,0,1.5-0.4,1.5-1.4v-0.8h-0.2l-1.3,0
	h-0.2v0.8h-3.1v-2.9h3.1v0.8h0.2l1.3,0h0.2v-0.7C209.5,149.3,209.1,149,208,149"/>
<path class="st8" d="M215.9,153.2h-4.3v-1h2.5V151h-2.5v-0.8h4.4V149h-6v5.5h6v-1.3H215.9z"/>
<path class="st8" d="M141.3,147.8l-1.9,4.3l-0.8-4.3H137l-2.1,6.3l-1.1-6.3h-2l-3.1,6.8l0.5-2.9h-3l-0.2,1.5h1.3l-0.1,0.8
	c-0.7,0.3-2,0.2-2.5-0.8c-0.3-0.6-0.6-1.9,0.8-3.1c1.1-1,3.1-1.2,4.3-0.6c0,0,0.1-0.8,0.3-1.6c-2.2-0.8-3.9-0.1-5.1,0.6
	c-1.6,0.9-2.3,2.4-2.1,4.4c0.2,2.3,3.2,3.7,5.8,2.3c0,0,0,0,0.1,0l-0.2,0.5h1.7l1.1-2.3h1.9l0.4,2.3h2.8l1.4-4.4l0.9,4.4h1.1
	l2.1-4.9l0.2,4.9h1.6l-0.3-7.8L141.3,147.8 M131.8,151.8l0.7-1.5l0.3,1.5H131.8z"/>
<path class="st8" d="M143.8,155.6h4.6l0.3-1.7h-2.9l0.2-1.4h2.5l0.3-1.7h-2.5l0.2-1.4h2.9l0.3-1.7H145L143.8,155.6z"/>
<path class="st8" d="M166.1,150.4l-1-2.6h-1.9l1.9,4.1l-0.6,3.7h1.6l0.5-3.3l2.9-4.6h-1.9L166.1,150.4z"/>
<path class="st8" d="M161.6,147.9c-1.8-0.4-3.7,1-4.2,3.2c-0.5,2.2,0.6,4.3,2.4,4.7c1.8,0.4,3.7-1,4.2-3.2
	C164.5,150.4,163.4,148.3,161.6,147.9 M162.3,152.5c-0.4,1.3-1.5,2.1-2.4,1.7c-0.9-0.4-1.2-1.7-0.8-3.1c0.4-1.3,1.5-2.1,2.4-1.7
	C162.4,149.8,162.7,151.2,162.3,152.5z"/>
<path class="st8" d="M155.1,147.8c-0.9,0-3.1,0-3.1,0h0l-1.3,7.8h3.7c1.5,0,3.7-2.2,1.7-4C158.3,149.5,156.2,147.9,155.1,147.8
	 M154.2,154.1c-0.9,0-1.4,0-1.4,0l0.3-1.6h1.4C155.6,152.5,155.6,154.1,154.2,154.1L154.2,154.1z M154.4,150.9c-0.9,0-1.1,0-1.1,0
	l0.3-1.5h1.1C155.7,149.5,155.5,150.9,154.4,150.9z"/>
<path class="st9" d="M153.7,15.3c-3.3,0-5.5-2.3-5.5-5.2s2.2-5.2,5.5-5.2h31c3.3,0,5.5,2.4,5.5,5.2c0,2.8-2.2,5.2-5.5,5.2
	L153.7,15.3z M153.7,6.2c-2.6,0-4.2,1.7-4.2,3.9c0,2.2,1.6,3.9,4.2,3.9h31c2.6,0,4.2-1.7,4.2-3.9s-1.6-3.9-4.2-3.9L153.7,6.2z
	 M186.4,8c0.2,0,0.4,0.1,0.4,0.2c0,0.1-0.1,0.2-0.2,0.2l0.2,0.4h-0.2l-0.2-0.3h-0.1v0.3H186V8L186.4,8z M186.3,7.7
	c-0.4,0-0.7,0.3-0.7,0.7c0,0.4,0.3,0.7,0.7,0.7c0.4,0,0.7-0.3,0.7-0.7C187.1,8,186.8,7.7,186.3,7.7z M187,8.4c0,0.3-0.3,0.6-0.6,0.6
	s-0.6-0.3-0.6-0.6c0-0.3,0.3-0.6,0.6-0.6S187,8.1,187,8.4z M186.2,8.4L186.2,8.4c0.2,0,0.3,0,0.3-0.1c0-0.1-0.1-0.1-0.2-0.1h-0.1
	V8.4z M169.3,10.4c0-0.3,0-0.5,0.1-0.6c0.1-0.2,0.3-0.3,0.5-0.3h0c0.2,0,0.4,0.1,0.5,0.3c0.1,0.2,0.1,0.4,0.1,0.6H169.3z
	 M170.5,11.4c0,0,0,0,0,0.2c0,0.6-0.4,0.7-0.6,0.7s-0.6-0.1-0.6-0.7c0-0.2,0-0.7,0-0.7s2.8,0,2.8,0c0-1-1-1.8-2.2-1.8
	s-2.2,0.8-2.2,1.8s1,1.8,2.2,1.8c1,0,1.8-0.6,2.1-1.3L170.5,11.4z M175.1,9.1c0.5,0,1.7,0.3,1.6,1.6c0,0.2,0,1.8,0,1.8h-1.5
	c0,0,0-1.9,0-2.1c0-0.3-0.3-0.6-0.7-0.6s-0.7,0.3-0.7,0.6c0,0.1,0,2.1,0,2.1h-1.5l0-3.2l1.5,0c0,0,0,0.3,0,0.3
	C174.2,9.4,174.6,9.1,175.1,9.1L175.1,9.1z M163.2,9.1c0.5,0,1.7,0.3,1.6,1.6c0,0.2,0,1.8,0,1.8h-1.5c0,0,0-1.9,0-2.1
	c0-0.3-0.3-0.6-0.7-0.6s-0.7,0.3-0.7,0.6c0,0.1,0,2.1,0,2.1h-1.5l0-3.2l1.5,0c0,0,0,0.3,0,0.3C162.3,9.4,162.8,9.1,163.2,9.1
	L163.2,9.1z M179.9,7.7h1.4v4.9h-1.4c0,0,0-0.2,0-0.2c-0.6,0.4-1.2,0.4-1.7,0.1c-0.1-0.1-1-0.5-1-1.6c0-0.9,0.8-1.8,1.9-1.7
	c0.3,0,0.6,0.2,0.8,0.3C179.9,8.7,179.9,7.7,179.9,7.7L179.9,7.7z M179.9,10.9c0,0,0-0.4,0-0.6c0-0.5-0.3-0.6-0.6-0.6
	c-0.2,0-0.6,0.1-0.6,0.6c0,0.2,0,0.6,0,0.6s0,0.4,0,0.6c0,0.5,0.3,0.6,0.6,0.6c0.2,0,0.6-0.1,0.6-0.6
	C179.9,11.2,179.9,10.9,179.9,10.9z M184.6,10.9c0,0,0,0.5,0,0.7c0,0.5-0.3,0.7-0.6,0.7c-0.3,0-0.6-0.2-0.6-0.7c0-0.2,0-0.7,0-0.7
	s0-0.5,0-0.7c0-0.5,0.3-0.7,0.6-0.7c0.3,0,0.6,0.2,0.6,0.7C184.6,10.4,184.6,10.7,184.6,10.9L184.6,10.9z M184,9.1
	c-1.2,0-2.1,0.8-2.1,1.8s1,1.8,2.1,1.8c1.2,0,2.1-0.8,2.1-1.8C186.1,9.9,185.2,9.1,184,9.1z M158.3,8.6v-1h1.5v1H158.3z M158.3,12.5
	V9.3l1.5,0v3.2H158.3z M165.7,12.5l0-3.2h-0.8V8.8l0.8,0l0-0.7h1.5v0.7h0.8v0.5h-0.8l0,3.2H165.7z M152.4,12.5l0-4.9h1.5L156,11
	l0-3.4h1.5v4.9H156l-2.1-3.4v3.4H152.4z"/>
<path class="st10" d="M284,35v-5.3h1.5c0.5,0,1.2,0,1.5,0.4c0.3,0.3,0.3,0.7,0.3,1.1c0,0.6-0.1,1.2-0.7,1.5
	c-0.4,0.2-0.9,0.1-1.4,0.2v2H284z M285.3,32c0.2,0,0.5,0,0.7-0.1c0.1-0.1,0.2-0.4,0.2-0.5c0-0.2,0-0.5-0.2-0.6c-0.1,0-0.3,0-0.5,0
	h-0.1V32z"/>
<path class="st10" d="M291.2,33.4c0,1.2-0.4,1.8-1.7,1.8c-1.2,0-1.7-0.6-1.7-1.8v-2.1c0-1,0.6-1.6,1.7-1.6c1.1,0,1.7,0.6,1.7,1.6
	V33.4z M289.9,31.3c0-0.3,0-0.7-0.4-0.7c-0.4,0-0.4,0.4-0.4,0.7v2.2c0,0.3,0,0.8,0.4,0.8s0.4-0.4,0.4-0.8V31.3z"/>
<path class="st10" d="M295.2,33.5L295.2,33.5l0.4-3.7h1.2l-0.9,5.3h-1.4l-0.4-3.7h0l-0.4,3.7h-1.4l-0.9-5.3h1.2l0.4,3.7l0,0l0.5-3.7
	h1.2L295.2,33.5z"/>
<path class="st10" d="M297.2,35v-5.3h2.8v1.1h-1.6v1h1.5v1.1h-1.5V34h1.7V35L297.2,35z"/>
<path class="st10" d="M301.9,35h-1.2v-5.3h1.8c1,0,1.5,0.4,1.5,1.5c0,0.6-0.1,1-0.7,1.2v0c0.3,0.1,0.6,0.3,0.6,0.7
	c0,0.4,0,1.3,0.1,1.7c0,0.1,0.1,0.1,0.1,0.2V35h-1.3c0-0.1-0.1-0.2-0.1-0.3c0-0.5,0-0.9,0-1.2c0-0.3-0.1-0.5-0.4-0.6h-0.4L301.9,35
	L301.9,35z M301.9,32h0.4c0.4,0,0.4-0.3,0.4-0.7c0-0.6-0.3-0.7-0.9-0.6V32z"/>
<path class="st3" d="M284.1,35.2v-5.3h1.5c0.5,0,1.2,0,1.5,0.4c0.3,0.3,0.3,0.7,0.3,1.1c0,0.6-0.1,1.2-0.7,1.5
	c-0.4,0.2-0.9,0.1-1.4,0.2v2H284.1z M285.4,32.2c0.2,0,0.5,0,0.7-0.1c0.1-0.1,0.2-0.4,0.2-0.5c0-0.2,0-0.5-0.2-0.6
	c-0.1,0-0.3,0-0.5,0h-0.1V32.2z"/>
<path class="st3" d="M291.3,33.5c0,1.2-0.4,1.8-1.7,1.8c-1.2,0-1.7-0.6-1.7-1.8v-2.1c0-1,0.6-1.6,1.7-1.6c1.1,0,1.7,0.6,1.7,1.6
	V33.5z M290,31.4c0-0.3,0-0.7-0.4-0.7c-0.4,0-0.4,0.4-0.4,0.7v2.2c0,0.3,0,0.8,0.4,0.8s0.4-0.4,0.4-0.8V31.4z"/>
<path class="st3" d="M295.4,33.6L295.4,33.6l0.4-3.7h1.2l-0.9,5.3h-1.4l-0.4-3.7h0l-0.4,3.7h-1.4l-0.9-5.3h1.2l0.4,3.7l0,0l0.5-3.7
	h1.2L295.4,33.6z"/>
<path class="st3" d="M297.3,35.2v-5.3h2.8v1.1h-1.6v1h1.5V33h-1.5v1.1h1.7v1.1L297.3,35.2z"/>
<path class="st3" d="M302,35.2h-1.2v-5.3h1.8c1,0,1.5,0.4,1.5,1.5c0,0.6-0.1,1-0.7,1.2v0c0.3,0.1,0.6,0.3,0.6,0.7
	c0,0.4,0,1.3,0.1,1.7c0,0.1,0.1,0.1,0.1,0.2v0.1h-1.3c0-0.1-0.1-0.2-0.1-0.3c0-0.5,0-0.9,0-1.2c0-0.3-0.1-0.5-0.4-0.6H302L302,35.2
	L302,35.2z M302,32.1h0.4c0.4,0,0.4-0.3,0.4-0.7c0-0.6-0.3-0.7-0.9-0.6V32.1z"/>
<path class="st11" d="M44.6,121.4l-0.1,0.4c-0.1,0.3,0,0.6,0.3,0.7c0.3,0.1,0.4-0.2,0.5-0.4c0.1-0.4-0.2-0.7-0.4-0.9
	c-0.3-0.3-0.5-0.6-0.7-0.9c-0.1-0.3-0.2-0.7-0.1-1.1c0.2-1,0.9-1.3,1.8-1.1c1,0.2,1.3,1,1,2l-1-0.2c0.1-0.3,0.2-0.7-0.2-0.8
	c-0.2-0.1-0.4,0-0.5,0.2c-0.1,0.3,0,0.5,0.2,0.7c0.4,0.4,0.7,0.7,0.9,1c0.2,0.3,0.3,0.7,0.1,1.3c-0.2,1-0.9,1.4-1.8,1.2
	c-1-0.2-1.3-1-1.2-1.6l0.1-0.5L44.6,121.4z"/>
<path class="st11" d="M47.6,118.5l2.9,0.7l-0.2,1l-0.9-0.2l-1,4.1l-1.1-0.3l1-4.1l-0.9-0.2L47.6,118.5z"/>
<path class="st11" d="M49.1,124.3l2.3-4.9l1.4,0.3l-0.2,5.4l-1.1-0.3l0.1-1l-0.9-0.2l-0.4,1L49.1,124.3z M51.9,120.5L51.9,120.5
	l-0.9,2.2l0.7,0.2L51.9,120.5z"/>
<path class="st11" d="M54.1,125.4l-1.1-0.3l1.2-5.1l1.7,0.4c0.9,0.2,1.3,0.7,1.1,1.7c-0.1,0.5-0.3,0.9-0.9,1l0,0
	c0.3,0.2,0.5,0.4,0.4,0.8c-0.1,0.4-0.3,1.3-0.3,1.6c0,0.1,0,0.1,0.1,0.2l0,0.1l-1.2-0.3c0-0.1,0-0.2,0-0.3c0.1-0.5,0.2-0.9,0.3-1.2
	c0-0.3,0-0.5-0.3-0.6l-0.4-0.1L54.1,125.4z M54.8,122.5l0.4,0.1c0.3,0.1,0.5-0.2,0.6-0.5c0.1-0.6-0.1-0.7-0.6-0.8L54.8,122.5z"/>
<path class="st11" d="M57.5,120.8l2.9,0.7l-0.2,1l-0.9-0.2l-1,4.1l-1.1-0.3l1-4.1l-0.9-0.2L57.5,120.8z"/>
<path class="st12" d="M42.7,139.7l-0.1,0.4c-0.1,0.3,0,0.6,0.3,0.6c0.2,0.1,0.4-0.2,0.5-0.4c0.1-0.4-0.2-0.7-0.4-0.9
	c-0.3-0.3-0.5-0.5-0.6-0.9c-0.1-0.3-0.2-0.6-0.1-1.1c0.2-1,0.8-1.3,1.6-1.1c0.9,0.2,1.2,1,0.9,2l-1-0.2c0.1-0.3,0.2-0.7-0.2-0.8
	c-0.2-0.1-0.4,0-0.4,0.3c-0.1,0.3,0,0.5,0.2,0.7c0.3,0.4,0.6,0.6,0.8,1s0.2,0.7,0.1,1.3c-0.2,1-0.8,1.4-1.7,1.2
	c-0.9-0.2-1.2-0.9-1-1.6l0.1-0.5L42.7,139.7z"/>
<path class="st12" d="M44.4,141.9l1.2-5.1l2.4,0.6l-0.2,1l-1.3-0.3l-0.2,0.9l1.3,0.3l-0.2,1l-1.3-0.3l-0.3,1.1l1.4,0.3l-0.2,1
	L44.4,141.9z"/>
<path class="st12" d="M47.3,142.6l1.2-5.1l1,0.2l-1,4.1l1.3,0.3l-0.2,1L47.3,142.6z"/>
<path class="st12" d="M50,143.3l1.2-5.1l2.4,0.6l-0.2,1l-1.3-0.3l-0.2,0.9l1.3,0.3l-0.2,1l-1.3-0.3l-0.3,1.1l1.4,0.3l-0.2,1
	L50,143.3z"/>
<path class="st12" d="M55.5,141l0.1-0.3c0.1-0.4,0-0.7-0.2-0.7c-0.3-0.1-0.4,0.1-0.5,0.4l-0.6,2.5c-0.1,0.3,0,0.5,0.3,0.5
	c0.4,0.1,0.5-0.3,0.6-0.6l0.1-0.5l1,0.2l-0.1,0.6c-0.2,0.9-0.8,1.4-1.8,1.1c-1-0.2-1.2-0.9-0.9-1.9l0.5-2.1c0.3-1.1,0.8-1.5,1.8-1.3
	c0.9,0.2,1.3,0.8,1.1,1.8l-0.1,0.4L55.5,141z"/>
<path class="st12" d="M57.3,139.6l2.7,0.6l-0.2,1l-0.8-0.2l-1,4.1l-1-0.2l1-4.1l-0.8-0.2L57.3,139.6z"/>
<g>
	<path class="st13" d="M44.7,121.5l-0.1,0.4c-0.1,0.3,0,0.6,0.3,0.7c0.3,0.1,0.4-0.2,0.5-0.4c0.1-0.4-0.2-0.7-0.4-0.9
		c-0.3-0.3-0.5-0.6-0.7-0.9c-0.1-0.3-0.2-0.7-0.1-1.1c0.2-1,0.9-1.3,1.8-1.1c1,0.2,1.3,1,1,2l-1-0.2c0.1-0.3,0.2-0.7-0.2-0.8
		c-0.2-0.1-0.4,0-0.5,0.2c-0.1,0.3,0,0.5,0.2,0.7c0.4,0.4,0.7,0.7,0.9,1c0.2,0.3,0.3,0.7,0.1,1.3c-0.2,1-0.9,1.4-1.8,1.2
		c-1-0.2-1.3-1-1.2-1.6l0.1-0.5L44.7,121.5z"/>
	<path class="st13" d="M47.7,118.7l2.9,0.7l-0.2,1l-0.9-0.2l-1,4.1l-1.1-0.3l1-4.1l-0.9-0.2L47.7,118.7z"/>
	<path class="st13" d="M49.3,124.4l2.3-4.9l1.4,0.3l-0.2,5.4l-1.1-0.3l0.1-1l-0.9-0.2l-0.4,1L49.3,124.4z M52,120.7L52,120.7
		l-0.9,2.2l0.7,0.2L52,120.7z"/>
	<path class="st13" d="M54.2,125.6l-1.1-0.3l1.2-5.1l1.7,0.4c0.9,0.2,1.3,0.7,1.1,1.7c-0.1,0.5-0.3,0.9-0.9,1l0,0
		c0.3,0.2,0.5,0.4,0.4,0.8c-0.1,0.4-0.3,1.3-0.3,1.6c0,0.1,0,0.1,0.1,0.2l0,0.1l-1.2-0.3c0-0.1,0-0.2,0-0.3c0.1-0.5,0.2-0.9,0.3-1.2
		c0-0.3,0-0.5-0.3-0.6l-0.4-0.1L54.2,125.6z M54.9,122.7l0.4,0.1c0.3,0.1,0.5-0.2,0.6-0.5c0.1-0.6-0.1-0.7-0.6-0.8L54.9,122.7z"/>
	<path class="st13" d="M57.6,121l2.9,0.7l-0.2,1l-0.9-0.2l-1,4.1l-1.1-0.3l1-4.1l-0.9-0.2L57.6,121z"/>
	<path class="st13" d="M42.8,139.8l-0.1,0.4c-0.1,0.3,0,0.6,0.3,0.6c0.2,0.1,0.4-0.2,0.5-0.4c0.1-0.4-0.2-0.7-0.4-0.9
		c-0.3-0.3-0.5-0.5-0.6-0.9c-0.1-0.3-0.2-0.6-0.1-1.1c0.2-1,0.8-1.3,1.6-1.1c0.9,0.2,1.2,1,0.9,2l-1-0.2c0.1-0.3,0.2-0.7-0.2-0.8
		c-0.2-0.1-0.4,0-0.4,0.3c-0.1,0.3,0,0.5,0.2,0.7c0.3,0.4,0.6,0.6,0.8,1s0.2,0.7,0.1,1.3c-0.2,1-0.8,1.4-1.7,1.2
		c-0.9-0.2-1.2-0.9-1-1.6l0.1-0.5L42.8,139.8z"/>
	<path class="st13" d="M44.6,142.1l1.2-5.1l2.4,0.6l-0.2,1l-1.3-0.3l-0.2,0.9l1.3,0.3l-0.2,1l-1.3-0.3l-0.3,1.1l1.4,0.3l-0.2,1
		L44.6,142.1z"/>
	<path class="st13" d="M47.5,142.7l1.2-5.1l1,0.2l-1,4.1l1.3,0.3l-0.2,1L47.5,142.7z"/>
	<path class="st13" d="M50.1,143.4l1.2-5.1l2.4,0.6l-0.2,1l-1.3-0.3l-0.2,0.9l1.3,0.3l-0.2,1l-1.3-0.3l-0.3,1.1l1.4,0.3l-0.2,1
		L50.1,143.4z"/>
	<path class="st13" d="M55.6,141.2l0.1-0.3c0.1-0.4,0-0.7-0.2-0.7c-0.3-0.1-0.4,0.1-0.5,0.4l-0.6,2.5c-0.1,0.3,0,0.5,0.3,0.5
		c0.4,0.1,0.5-0.3,0.6-0.6l0.1-0.5l1,0.2l-0.1,0.6c-0.2,0.9-0.8,1.4-1.8,1.1c-1-0.2-1.2-0.9-0.9-1.9l0.5-2.1
		c0.3-1.1,0.8-1.5,1.8-1.3c0.9,0.2,1.3,0.8,1.1,1.8l-0.1,0.4L55.6,141.2z"/>
	<path class="st13" d="M57.4,139.7l2.7,0.6l-0.2,1l-0.8-0.2l-1,4.1l-1-0.2l1-4.1l-0.8-0.2L57.4,139.7z"/>
</g>
<path class="st14" d="M272.9,91.7V81.3h2.7c1.6,0,2.8,0.6,2.8,2.7c0,0.9-0.3,1.7-1,2.2v0c1,0.6,1.2,1.2,1.2,2.5c0,2.1-1,3-2.7,3
	H272.9z M275,85.4c0.9-0.1,1.4,0,1.4-1.2c0-1-0.6-1-1.4-1V85.4z M275,89.8c1.1,0,1.5,0.1,1.5-1.3c0-1.2-0.6-1.2-1.5-1.2V89.8z"/>
<path class="st14" d="M303,81.1l2-10.3h2.5l2,10.3h-2.1l-0.3-2h-1.7l-0.3,2H303z M306.3,72.6L306.3,72.6l-0.6,4.6h1.2L306.3,72.6z"
	/>
</svg>
