<svg xmlns="http://www.w3.org/2000/svg" xmlns:xlink="http://www.w3.org/1999/xlink" viewBox="0 0 470.33 67.41"><defs><style>.bff59ee5-4f1c-46e6-8fed-5a3cc180e713{stroke:#9def48;stroke-miterlimit:10;stroke-width:0.75px;fill:url(#f1e403b5-d4af-475a-92ae-c2d1e5c6bf4d);}.aa23580f-bbbb-4631-8999-58983d8b4262{fill:#9def48;}.f6c7bdae-cb72-4e11-8b26-ccebb61b9243{fill:#e60012;}.b5c68af5-0b36-46a1-abdf-801f5e77e456{fill:#fff;}</style><linearGradient id="f1e403b5-d4af-475a-92ae-c2d1e5c6bf4d" x1="0.38" y1="33.7" x2="469.96" y2="33.7" gradientUnits="userSpaceOnUse"><stop offset="0" stop-color="#032c02"/><stop offset="1" stop-color="#207a09"/></linearGradient></defs><g id="befdabd8-317b-4734-8e3a-3868379584b8" data-name="texte"><polygon class="bff59ee5-4f1c-46e6-8fed-5a3cc180e713" points="0.38 5.91 102.44 5.91 108.57 0.38 150.31 0.38 158.22 5.91 461.65 6.11 469.96 16 469.96 59.72 50.81 59.72 42.7 67.03 7.89 67.03 0.38 59.72 0.38 5.91"/><path class="aa23580f-bbbb-4631-8999-58983d8b4262" d="M77.26,31.13c0,.53.06,1.07.06,1.63A14.55,14.55,0,0,1,74,42.56H54.63a14.56,14.56,0,0,1-3.38-9.8A14.57,14.57,0,0,1,54.63,23H74a13.75,13.75,0,0,1,2.94,5.84h-3.5a15.19,15.19,0,0,0-1.18-2.58H56.38a13,13,0,0,0-1.87,6.55,13.1,13.1,0,0,0,1.87,6.55H72.21A14.25,14.25,0,0,0,74,34.37H62.15V31.13Z" transform="translate(-0.13 -0.13)"/><path class="aa23580f-bbbb-4631-8999-58983d8b4262" d="M85.5,37.1l-3.43,5.46H78L90.46,23h3.75l12.36,19.61h-4L99.17,37.1Zm11.65-3.24-4.79-7.67-4.82,7.67Z" transform="translate(-0.13 -0.13)"/><path class="aa23580f-bbbb-4631-8999-58983d8b4262" d="M118.67,26.21h-6.29a13,13,0,0,0-1.87,6.55,13.1,13.1,0,0,0,1.87,6.55h2.16v3.25h-3.91a14.56,14.56,0,0,1-3.38-9.8A14.57,14.57,0,0,1,110.63,23h8V19.88h3.24V23h8a14.56,14.56,0,0,1,3.37,9.81,14.55,14.55,0,0,1-3.37,9.8H126V39.31h2.17a13.19,13.19,0,0,0,1.86-6.55,13.13,13.13,0,0,0-1.86-6.55h-6.3V37.83h-3.24Z" transform="translate(-0.13 -0.13)"/><path class="aa23580f-bbbb-4631-8999-58983d8b4262" d="M156,34.37H142.43a14.08,14.08,0,0,0,1.76,4.94H160.3l1.87,3.25H142.44a14.17,14.17,0,0,1-3.31-8.19h-3.07V31.13h3.07A14.14,14.14,0,0,1,142.44,23h19.73l-1.87,3.26H144.19a13.92,13.92,0,0,0-1.76,4.92H156Z" transform="translate(-0.13 -0.13)"/><path class="aa23580f-bbbb-4631-8999-58983d8b4262" d="M202.12,34.37a14.1,14.1,0,0,1-3.31,8.19H179.49a14.09,14.09,0,0,1-3.3-8.19h-3.08V31.13h3.08a14.06,14.06,0,0,1,3.3-8.18h19.32a14.1,14.1,0,0,1,3.31,8.19l-1.41.8v1.64Zm-22.64-3.24h19.35a14.09,14.09,0,0,0-1.75-4.92H181.24A13.92,13.92,0,0,0,179.48,31.13Zm0,3.24a14.08,14.08,0,0,0,1.76,4.94h15.84a14.25,14.25,0,0,0,1.75-4.94Z" transform="translate(-0.13 -0.13)"/><path class="aa23580f-bbbb-4631-8999-58983d8b4262" d="M227.55,42.56H208.23a14.55,14.55,0,0,1-3.37-9.8A14.56,14.56,0,0,1,208.23,23h19.32a14.57,14.57,0,0,1,3.38,9.81A14.56,14.56,0,0,1,227.55,42.56Zm-1.74-3.25a13.19,13.19,0,0,0,1.86-6.55,13.13,13.13,0,0,0-1.86-6.55H210a13,13,0,0,0-1.87,6.55A13.1,13.1,0,0,0,210,39.31Z" transform="translate(-0.13 -0.13)"/><path class="aa23580f-bbbb-4631-8999-58983d8b4262" d="M235.14,34.37l-1.48-1.61A14.6,14.6,0,0,1,237,23H241v3.26h-2.16A13.72,13.72,0,0,0,237,31.13h19.34a14.09,14.09,0,0,0-1.75-4.92h-2.17V23h3.91a14.6,14.6,0,0,1,3.37,9.81,14.53,14.53,0,0,1-3.37,9.8H237a13.7,13.7,0,0,1-2.94-5.84h3.5a15.34,15.34,0,0,0,1.19,2.59h15.83a13.72,13.72,0,0,0,1.75-4.94Z" transform="translate(-0.13 -0.13)"/><path class="aa23580f-bbbb-4631-8999-58983d8b4262" d="M277.48,37.1l-3.43,5.46H270L282.44,23h3.75l12.36,19.61h-4l-3.39-5.46Zm11.65-3.24-4.79-7.67-4.82,7.67Z" transform="translate(-0.13 -0.13)"/><path class="aa23580f-bbbb-4631-8999-58983d8b4262" d="M301.28,23h21.6a14.52,14.52,0,0,1,3.38,9.81,14.51,14.51,0,0,1-3.38,9.8h-21.6Zm3.26,16.36h16.61A13.19,13.19,0,0,0,323,32.76a13.13,13.13,0,0,0-1.86-6.55H304.54Z" transform="translate(-0.13 -0.13)"/><path class="aa23580f-bbbb-4631-8999-58983d8b4262" d="M355.51,23,343.13,42.56h-3.74L327,23H331L341.3,39.32,351.5,23Z" transform="translate(-0.13 -0.13)"/><path class="aa23580f-bbbb-4631-8999-58983d8b4262" d="M358.21,37.1l-3.43,5.46h-4.06L363.18,23h3.74l12.36,19.61h-4l-3.4-5.46Zm11.65-3.24-4.78-7.67-4.83,7.67Z" transform="translate(-0.13 -0.13)"/><path class="aa23580f-bbbb-4631-8999-58983d8b4262" d="M385.09,26.21a13,13,0,0,0-1.87,6.55,13.1,13.1,0,0,0,1.87,6.55h2.16v3.25h-3.91a14.56,14.56,0,0,1-3.38-9.8A14.57,14.57,0,0,1,383.34,23h19.32A14.57,14.57,0,0,1,406,32.76a14.56,14.56,0,0,1-3.38,9.8h-3.91V39.31h2.17a13.19,13.19,0,0,0,1.86-6.55,13.13,13.13,0,0,0-1.86-6.55Z" transform="translate(-0.13 -0.13)"/><path class="aa23580f-bbbb-4631-8999-58983d8b4262" d="M430.91,36.72h3.5a13.7,13.7,0,0,1-2.94,5.84H412.15a14.56,14.56,0,0,1-3.38-9.8A14.6,14.6,0,0,1,412.15,23h19.32a13.75,13.75,0,0,1,2.94,5.84h-3.5a15.19,15.19,0,0,0-1.18-2.58H413.9A13,13,0,0,0,412,32.76a13.1,13.1,0,0,0,1.87,6.55h15.83A16,16,0,0,0,430.91,36.72Z" transform="translate(-0.13 -0.13)"/><path class="aa23580f-bbbb-4631-8999-58983d8b4262" d="M455.68,34.37H442.14a14.11,14.11,0,0,0,1.77,4.94H460l1.88,3.25H442.16a14.1,14.1,0,0,1-3.31-8.19h-3.08V31.13h3.08A14.07,14.07,0,0,1,442.16,23h19.73L460,26.21h-16.1a13.94,13.94,0,0,0-1.77,4.92h13.54Z" transform="translate(-0.13 -0.13)"/></g><g id="ab87d69c-b894-4d5f-b148-95743af6a872" data-name="nintendo"><path class="f6c7bdae-cb72-4e11-8b26-ccebb61b9243" d="M25.59,23.22A2.08,2.08,0,0,0,27.48,21a2.08,2.08,0,0,0-1.89-2.22A2.08,2.08,0,0,0,23.7,21,2.08,2.08,0,0,0,25.59,23.22Zm-.72-2.83H26.3c.53,0,.75.32.75.62s-.22.62-.75.62H24.87c-.53,0-.75-.32-.75-.62S24.34,20.39,24.87,20.39Z" transform="translate(-0.13 -0.13)"/><path class="f6c7bdae-cb72-4e11-8b26-ccebb61b9243" d="M23.8,26.07A1.82,1.82,0,0,0,25.56,28a1.77,1.77,0,0,0,1.66-1,1.84,1.84,0,0,0-.12-1.75h.19v-1.5H22.24v1.5H24.1A2,2,0,0,0,23.8,26.07ZM25,25.2h1.19a.6.6,0,1,1,0,1.19H25a.6.6,0,1,1,0-1.19Z" transform="translate(-0.13 -0.13)"/><polygon class="b5c68af5-0b36-46a1-abdf-801f5e77e456" points="39.05 19.13 39.05 19.13 39.05 19.13 39.05 19.13"/><polygon class="f6c7bdae-cb72-4e11-8b26-ccebb61b9243" points="23.82 38.35 23.82 37.52 23.32 37.52 23.32 38.35 22.64 38.35 22.64 39.87 23.32 39.86 23.32 40.69 23.82 40.69 23.82 39.87 27.17 39.87 27.17 38.34 23.82 38.35"/><path class="f6c7bdae-cb72-4e11-8b26-ccebb61b9243" d="M26.12,33.46V35h.2c.61,0,.75.41.75.63a.66.66,0,0,1-.75.64h-.69V33.37a2.27,2.27,0,0,0,0,4.48,2.08,2.08,0,0,0,1.88-2.24A2.21,2.21,0,0,0,26.12,33.46Zm-1,2.77a1.13,1.13,0,0,1-.65-.1.6.6,0,0,1-.31-.53h0a.6.6,0,0,1,.31-.53,1.22,1.22,0,0,1,.65-.1Z" transform="translate(-0.13 -0.13)"/><rect class="f6c7bdae-cb72-4e11-8b26-ccebb61b9243" x="23.81" y="45.97" width="3.36" height="1.52"/><path class="f6c7bdae-cb72-4e11-8b26-ccebb61b9243" d="M25.08,30h2.21V28.48H25.46a1.64,1.64,0,0,0-1.68,1.72h0a1.84,1.84,0,0,0,.5,1.21h-.35v1.5h3.36v-1.5H25.08a.7.7,0,0,1-.61-.72A.67.67,0,0,1,25.08,30Z" transform="translate(-0.13 -0.13)"/><path class="f6c7bdae-cb72-4e11-8b26-ccebb61b9243" d="M24.78,14.57a5.39,5.39,0,0,0-5.37,5.69V52.42a5.37,5.37,0,1,0,10.73,0V20.26A5.38,5.38,0,0,0,24.78,14.57Zm4,37.83a4.06,4.06,0,1,1-8.09,0V20.27a4.06,4.06,0,1,1,8.09,0Z" transform="translate(-0.13 -0.13)"/><path class="f6c7bdae-cb72-4e11-8b26-ccebb61b9243" d="M25.08,42.33h2.21V40.82H25.46a1.64,1.64,0,0,0-1.68,1.72h0a1.84,1.84,0,0,0,.5,1.21h-.35v1.5h3.36v-1.5H25.08a.7.7,0,0,1-.61-.72A.67.67,0,0,1,25.08,42.33Z" transform="translate(-0.13 -0.13)"/><rect class="f6c7bdae-cb72-4e11-8b26-ccebb61b9243" x="22.12" y="45.97" width="1.03" height="1.52"/><polygon class="f6c7bdae-cb72-4e11-8b26-ccebb61b9243" points="22.12 49.91 25.64 49.91 22.12 52.09 22.12 53.66 27.17 53.66 27.17 52.1 23.64 52.1 27.17 49.91 27.17 48.35 22.12 48.35 22.12 49.91"/></g></svg>