<svg xmlns="http://www.w3.org/2000/svg" xmlns:xlink="http://www.w3.org/1999/xlink" viewBox="0 0 747.48 822.76"><defs><style>.b38a7b43-934b-48bb-92cd-281c1172d03b,.ea7ebc05-afe2-4142-8904-9e4ce18bdaae,.ee3be9ae-f453-4429-8265-78f76e60e2a5{fill:#373735;}.b38a7b43-934b-48bb-92cd-281c1172d03b{opacity:0.5;}.aae9c2b2-8171-4d7a-883e-ab89bd77b9bc,.b38a7b43-934b-48bb-92cd-281c1172d03b{isolation:isolate;}.b463fe72-74ca-41b6-a3df-974308edc05b{fill:#121211;}.a75b94a7-eec2-4856-a168-583e5779b0b3,.ac41d79b-da66-4714-8b35-b82011dfc7af,.ade60460-ae2b-44b8-876a-b4e5c70df3f2,.af427c56-00fa-407d-8049-dc416c45bc09,.b463fe72-74ca-41b6-a3df-974308edc05b,.b6988c78-b3f9-453a-ab45-b63c254b05e0,.b9d7cc5c-4ef0-45ab-84d6-86ca5832ca38,.ba2d3d96-a164-49f1-8de6-8ede80d19d76,.e3b3b755-6a1a-4aa3-a205-24e7590d4e40,.ea7ebc05-afe2-4142-8904-9e4ce18bdaae,.eccb3a06-51a4-427e-b3b2-318cdfab7e7e,.f12d0aa3-31c1-4740-8d6c-c4d0c6b17408{stroke:#b5b5b5;}.a4b6cf93-fd81-42ba-8ed1-ba9f1b8b18d4,.a5cb9252-bf9e-446d-b816-5fe4095a1bb5,.a75b94a7-eec2-4856-a168-583e5779b0b3,.a8d7e4ef-fd3e-40f1-8907-8a6fdf688b3c,.ac41d79b-da66-4714-8b35-b82011dfc7af,.ade60460-ae2b-44b8-876a-b4e5c70df3f2,.af427c56-00fa-407d-8049-dc416c45bc09,.b463fe72-74ca-41b6-a3df-974308edc05b,.b6988c78-b3f9-453a-ab45-b63c254b05e0,.b9d7cc5c-4ef0-45ab-84d6-86ca5832ca38,.ba2d3d96-a164-49f1-8de6-8ede80d19d76,.e3b3b755-6a1a-4aa3-a205-24e7590d4e40,.ea7ebc05-afe2-4142-8904-9e4ce18bdaae,.eccb3a06-51a4-427e-b3b2-318cdfab7e7e,.f12d0aa3-31c1-4740-8d6c-c4d0c6b17408,.fd83f253-a981-41ff-b49f-e1209492dc03{stroke-miterlimit:10;}.a4b6cf93-fd81-42ba-8ed1-ba9f1b8b18d4,.a75b94a7-eec2-4856-a168-583e5779b0b3,.ac41d79b-da66-4714-8b35-b82011dfc7af,.ade60460-ae2b-44b8-876a-b4e5c70df3f2,.af427c56-00fa-407d-8049-dc416c45bc09,.b463fe72-74ca-41b6-a3df-974308edc05b,.b6988c78-b3f9-453a-ab45-b63c254b05e0,.b9d7cc5c-4ef0-45ab-84d6-86ca5832ca38,.ba2d3d96-a164-49f1-8de6-8ede80d19d76,.e3b3b755-6a1a-4aa3-a205-24e7590d4e40,.f12d0aa3-31c1-4740-8d6c-c4d0c6b17408{stroke-width:0.5px;}.a8d7e4ef-fd3e-40f1-8907-8a6fdf688b3c{fill:#443840;}.a4b6cf93-fd81-42ba-8ed1-ba9f1b8b18d4,.a5cb9252-bf9e-446d-b816-5fe4095a1bb5,.a8d7e4ef-fd3e-40f1-8907-8a6fdf688b3c{stroke:#090000;}.a5cb9252-bf9e-446d-b816-5fe4095a1bb5,.a8d7e4ef-fd3e-40f1-8907-8a6fdf688b3c{stroke-width:0.75px;}.a4b6cf93-fd81-42ba-8ed1-ba9f1b8b18d4{fill:#6b0c05;}.e82fe9d8-c74a-4665-8c32-5243457d6cdd{fill:#86382f;}.a5cb9252-bf9e-446d-b816-5fe4095a1bb5{fill:#8b8b8b;}.fd83f253-a981-41ff-b49f-e1209492dc03{stroke:#373737;}.eccb3a06-51a4-427e-b3b2-318cdfab7e7e,.f12d0aa3-31c1-4740-8d6c-c4d0c6b17408{fill:#b7151d;}.a75b94a7-eec2-4856-a168-583e5779b0b3{fill:#bf0000;}.b6988c78-b3f9-453a-ab45-b63c254b05e0{fill:#dc6e05;}.b9d7cc5c-4ef0-45ab-84d6-86ca5832ca38{fill:#00baff;}.ade60460-ae2b-44b8-876a-b4e5c70df3f2{fill:#12e600;}.ac41d79b-da66-4714-8b35-b82011dfc7af{fill:#ff8200;}.e3b3b755-6a1a-4aa3-a205-24e7590d4e40{fill:#0b47ce;}.af427c56-00fa-407d-8049-dc416c45bc09{fill:#ffdba1;}.b3d0e3f9-6e6e-4c98-b7e9-a01f52035f76,.ba2d3d96-a164-49f1-8de6-8ede80d19d76{fill:#282826;}.f872b899-b754-47c3-8e7b-d33eb607afe3{fill:#151312;}.a49fb313-8c80-494d-90ca-986b62a66790{fill:#555353;}.a31a0fc4-8147-4bd0-b2d0-81b9cc9b7824{fill:#008aa6;}.a7835034-c309-45e1-ac77-8ddb1927971e{fill:#ae7a82;}.ac0a853b-d685-459f-87e0-21bc427f07ef{fill:url(#bd56866b-919e-47db-abd8-ed89479478ca);}.f70a9dec-fa48-48b1-ad6a-e9013cb9383f{fill:url(#bb40c59a-3d87-4e17-b750-03d5c1e6b5cb);}.a0e10081-5a18-495d-98bc-e3ca3c5c39be{fill:url(#b461371b-d705-437a-9800-ab6b002453ec);}.fc212091-11f8-4b19-b877-f27fda10c136{fill:url(#e1c25196-708a-4bf9-b111-a318a62a1bd8);}.ba046eac-3825-4351-b705-ab3eabe79257{fill:#0000ef;}.f74be75e-f59e-4931-8fc7-76d1cd147947{fill:url(#e29f386b-947c-442f-a5cb-48d037bfe058);}.eb0ec580-33d5-4e21-983c-a498aee932ea{fill:url(#a6060445-7635-4ef7-a330-8fe2991c4762);}.b7fcf3c5-11b9-4f7a-bfd3-461d19169580{fill:url(#eca0e66d-8ae9-49b3-8b31-b2140ca0368a);}.ee654998-6591-4951-99a5-ef883c2826c5{fill:url(#bf332639-e68f-4471-8384-860ba36cf31b);}.b62039cc-dee7-47a3-b389-2a50269a17b2{fill:url(#a53510ea-6877-499c-ab9f-31425e75e232);}.a1d5d1b8-5755-42bd-a2a2-017f521cd674{fill:url(#ecea2a73-f40b-4436-b40f-849b004a72d8);}.b47252bd-435e-45a4-82ce-ae1026f2fe28{fill:#930303;}.a73d08c2-8fc8-4c24-93b7-7079a6090d90{fill:url(#a8b119e4-94ba-4da3-a278-8250d8f35274);}.a545a082-59d6-4016-a93e-0ea56991dd23{fill:url(#f4d910e9-8c8c-4454-a7bc-c7f8f85d8460);}.e70cd63b-256e-4651-8532-9daf0df4881a{fill:url(#ef859203-b16d-4f30-b4bb-875ce08825e1);}.ebf4765c-5e84-4439-93ad-8ddaf53f4b27{fill:url(#a86790c3-48f4-41fc-8f62-a91554e235c4);}.abab46e7-31ef-4fdb-b960-af9ad0cf3bbf{fill:url(#e9571a90-ae1e-422a-b48c-c9a8a25f51b4);}.aac9eb03-e733-4b22-92cc-b00f7a56681e{fill:url(#a75a7fa1-a4e8-44a1-9ee8-726e10ccc5ec);}.ff3e2af3-a223-403f-a898-a259abdd6a0f{fill:#e7e7e7;}.bb3ffdef-47c4-41b5-8478-d8fe00e53d33{fill:#2c2b29;}.aec02a43-31e4-4d90-83ce-9c19dae58add{fill:#2785db;}.b13e208e-994c-4219-b017-692da9d59ec1{fill:#44c047;}.bd840345-8daa-4059-8b82-4181d722836e{fill:#eb1416;}.aae9c2b2-8171-4d7a-883e-ab89bd77b9bc{font-size:0.83px;fill:#f90041;font-family:ArialMT, Arial;}.a60dc250-faff-41e1-a31e-e7a1ffee633a{fill:#00c6ff;}.a6276dab-9758-49ee-a617-e1ef25057773{fill:#ab2d2a;}.f10b6aa1-66aa-417d-9eb6-1493ecaa68b1{fill:#ff9600;}</style><radialGradient id="bd56866b-919e-47db-abd8-ed89479478ca" cx="65.88" cy="473.12" r="11.47" gradientTransform="matrix(1, 0, 0, -1, 0, 821.89)" gradientUnits="userSpaceOnUse"><stop offset="0" stop-color="#fd6d66"/><stop offset="0.78" stop-color="#b50a03"/></radialGradient><radialGradient id="bb40c59a-3d87-4e17-b750-03d5c1e6b5cb" cx="65.88" cy="473.12" r="11.47" xlink:href="#bd56866b-919e-47db-abd8-ed89479478ca"/><radialGradient id="b461371b-d705-437a-9800-ab6b002453ec" cx="195.82" cy="450.9" r="11.47" xlink:href="#bd56866b-919e-47db-abd8-ed89479478ca"/><radialGradient id="e1c25196-708a-4bf9-b111-a318a62a1bd8" cx="195.83" cy="450.9" r="11.47" xlink:href="#bd56866b-919e-47db-abd8-ed89479478ca"/><radialGradient id="e29f386b-947c-442f-a5cb-48d037bfe058" cx="92.36" cy="421.34" r="5.66" gradientTransform="matrix(1, 0, 0, -0.6, 0, 646.68)" gradientUnits="userSpaceOnUse"><stop offset="0" stop-color="#0000ef"/><stop offset="0.15" stop-color="#0000e9"/><stop offset="0.34" stop-color="#0101d9"/><stop offset="0.56" stop-color="#0101be"/><stop offset="0.79" stop-color="#02029a"/><stop offset="1" stop-color="#020282"/></radialGradient><radialGradient id="a6060445-7635-4ef7-a330-8fe2991c4762" cx="114.61" cy="428.01" r="5.66" gradientTransform="matrix(1, 0, 0, -1, 0, 821.89)" xlink:href="#e29f386b-947c-442f-a5cb-48d037bfe058"/><radialGradient id="eca0e66d-8ae9-49b3-8b31-b2140ca0368a" cx="133.17" cy="415.19" r="5.66" gradientTransform="matrix(1, 0, 0, -0.6, 0, 649.15)" xlink:href="#e29f386b-947c-442f-a5cb-48d037bfe058"/><radialGradient id="bf332639-e68f-4471-8384-860ba36cf31b" cx="139.21" cy="427.44" r="5.66" gradientTransform="matrix(1, 0, 0, -0.6, 0, 644.24)" xlink:href="#e29f386b-947c-442f-a5cb-48d037bfe058"/><radialGradient id="a53510ea-6877-499c-ab9f-31425e75e232" cx="121.61" cy="433.12" r="5.66" gradientTransform="matrix(1, 0, 0, -0.6, 0, 641.97)" xlink:href="#e29f386b-947c-442f-a5cb-48d037bfe058"/><radialGradient id="ecea2a73-f40b-4436-b40f-849b004a72d8" cx="100.32" cy="432.69" r="5.66" gradientTransform="matrix(1, 0, 0, -0.6, 0, 642.14)" xlink:href="#e29f386b-947c-442f-a5cb-48d037bfe058"/><radialGradient id="a8b119e4-94ba-4da3-a278-8250d8f35274" cx="225.51" cy="417.22" r="5.66" xlink:href="#bd56866b-919e-47db-abd8-ed89479478ca"/><radialGradient id="f4d910e9-8c8c-4454-a7bc-c7f8f85d8460" cx="246.79" cy="417.65" r="5.66" xlink:href="#bd56866b-919e-47db-abd8-ed89479478ca"/><radialGradient id="ef859203-b16d-4f30-b4bb-875ce08825e1" cx="264.4" cy="411.96" r="5.66" xlink:href="#bd56866b-919e-47db-abd8-ed89479478ca"/><radialGradient id="a86790c3-48f4-41fc-8f62-a91554e235c4" cx="258.36" cy="399.7" r="5.66" xlink:href="#bd56866b-919e-47db-abd8-ed89479478ca"/><radialGradient id="e9571a90-ae1e-422a-b48c-c9a8a25f51b4" cx="239.79" cy="405.87" r="5.66" xlink:href="#bd56866b-919e-47db-abd8-ed89479478ca"/><radialGradient id="a75a7fa1-a4e8-44a1-9ee8-726e10ccc5ec" cx="217.55" cy="405.87" r="5.66" xlink:href="#bd56866b-919e-47db-abd8-ed89479478ca"/></defs><g id="f9e622ff-6634-4132-b2dd-3fce86ea48ef" data-name="f6a20a29-c719-499a-b481-b423545d1cca"><polygon id="a95f9f9c-a57b-40de-b243-e8132d003253" data-name="bfc77a19-6e7f-4769-b89e-359a1500ea97" class="b38a7b43-934b-48bb-92cd-281c1172d03b" points="453 589.31 474.52 583.4 482.43 583.4 486.38 583.4 487.97 586.36 725.33 629.66 736.41 629.66 747.48 661.05 701.07 698.76 654.65 711.95 646.47 710.63 646.74 708.78 632.76 706.15 549.15 734.1 475.83 785.67 453 792.49 445.24 791.33 445.24 788.7 429.15 785.67 299.16 820.04 453 589.31"/><g id="ff13b316-cebe-4158-a340-f93eb4c367c7" data-name="f0bd8f72-a322-4c3d-9d9d-f012a59cfe70"><polygon class="ee3be9ae-f453-4429-8265-78f76e60e2a5" points="36.97 455.08 261.88 494.7 261.88 499.05 287.59 505.18 287.2 816.52 38.96 769.25 36.97 455.08"/><path class="b463fe72-74ca-41b6-a3df-974308edc05b" d="M202,526.54,123.62,512.8c-3,.19-4.26,3.56-4.26,3.56l.2,85c.69,2.18,3.86,5,3.86,5l74.27,13.46c5.14.49,7.52-5.25,7.52-5.25V531.88A7.11,7.11,0,0,0,202,526.54Zm-49.9,22.55-18.69-3.46v-20l2.27-1.88,18.1,3.07L152,529.51Zm31.45,6.13-18.69-3.46v-20l2.27-1.87,18.1,3.06-1.78,2.67Z" transform="translate(0 0)"/><polygon class="a8d7e4ef-fd3e-40f1-8907-8a6fdf688b3c" points="135.68 523.77 133.41 525.65 133.41 545.63 152.1 549.09 152 529.51 153.78 526.84 135.68 523.77"/><polygon class="a8d7e4ef-fd3e-40f1-8907-8a6fdf688b3c" points="167.13 529.9 164.86 531.78 164.86 551.76 183.55 555.22 183.45 535.64 185.23 532.97 167.13 529.9"/><polygon class="a4b6cf93-fd81-42ba-8ed1-ba9f1b8b18d4" points="141.12 543.55 141.12 530.7 149.13 532.48 149.13 545.04 141.12 543.55"/><polygon class="a4b6cf93-fd81-42ba-8ed1-ba9f1b8b18d4" points="172.18 549.39 172.18 536.53 180.19 538.31 180.19 550.87 172.18 549.39"/><polygon points="136.21 543.68 136.21 528.46 138.25 528.85 138.25 544.01 136.21 543.68"/><polygon points="167.66 549.22 167.66 533.99 169.7 534.39 169.7 549.55 167.66 549.22"/><polygon class="e82fe9d8-c74a-4665-8c32-5243457d6cdd" points="141.38 531.21 141.38 530.86 148.85 532.66 148.86 533.09 141.38 531.21"/><polygon class="e82fe9d8-c74a-4665-8c32-5243457d6cdd" points="172.44 537.14 172.44 536.85 179.9 538.49 179.92 538.84 172.44 537.14"/><circle class="a5cb9252-bf9e-446d-b816-5fe4095a1bb5" cx="193.37" cy="575.37" r="4.25"/><polygon class="fd83f253-a981-41ff-b49f-e1209492dc03" points="137.26 599.24 137.26 587.96 149.23 590.14 149.23 601.44 137.26 599.24"/><polygon class="fd83f253-a981-41ff-b49f-e1209492dc03" points="168.52 604.77 168.52 593.5 180.48 595.67 180.48 606.55 168.52 604.77"/></g><g id="b5db37a3-1b31-43d0-940c-b0260ebd2bc2" data-name="e58ac596-73f2-4d1a-8e8e-e917a56e14e8"><path class="eccb3a06-51a4-427e-b3b2-318cdfab7e7e" d="M11.46,450.59l-.79-39.76L1,407.66v45.1l27.89,5.54c.59,103.55,1,207.6,1.58,311.15A6.17,6.17,0,0,0,34,771.64a12.75,12.75,0,0,0,5,0L37,455.08Z" transform="translate(0 0)"/><path class="eccb3a06-51a4-427e-b3b2-318cdfab7e7e" d="M272.36,497V455.73l-10.28-1.19-.2,44.51,25.71,6.13s-1.51,313.85,0,315.69,8.77,1.32,8.77,1.32l.93-319.91Z" transform="translate(0 0)"/><polygon class="eccb3a06-51a4-427e-b3b2-318cdfab7e7e" points="79.7 346.94 71.55 345.64 87.81 127.08 96.84 128.59 79.7 346.94"/><polygon class="eccb3a06-51a4-427e-b3b2-318cdfab7e7e" points="330.22 389.37 339.32 390.65 357.81 166.34 331.44 166.34 331.18 75.42 321.12 73.58 321.12 168.42 327.15 169.51 347.43 169.51 330.22 389.37"/><path class="eccb3a06-51a4-427e-b3b2-318cdfab7e7e" d="M88.49,127.19s-28.17-.35-29.11-.85c0-31.21.06-62.83,0-94L68.74,35l.48,89Z" transform="translate(0 0)"/><g id="be3f5bfd-b9b0-43ac-a850-2e02586b2139" data-name="be5278ea-c615-431d-8754-cd601aadf0e7"><polygon class="eccb3a06-51a4-427e-b3b2-318cdfab7e7e" points="0.98 407.66 10.67 410.83 78.98 346.77 70.87 344.83 0.98 407.66"/><polygon class="eccb3a06-51a4-427e-b3b2-318cdfab7e7e" points="262.08 454.54 272.36 455.73 339.32 389.86 330.7 388.26 262.08 454.54"/><polygon class="eccb3a06-51a4-427e-b3b2-318cdfab7e7e" points="112.54 0.52 59.4 32.3 68.76 34.94 121.34 3.82 124.08 2.2 121.5 1.84 112.54 0.52"/><polygon class="eccb3a06-51a4-427e-b3b2-318cdfab7e7e" points="384.71 41.14 373.5 40.34 321.12 73.58 331.18 75.42 384.71 41.14"/></g></g><g id="ec42af55-b6aa-4076-8cb4-fb9f7a17d7f7" data-name="b8764ab0-6105-48bd-b522-19ccfc266424"><polygon class="b463fe72-74ca-41b6-a3df-974308edc05b" points="454.11 309.16 454.74 149.53 384.71 41.14 331.18 75.42 331.44 166.34 357.81 166.34 339.32 390.65 272.36 455.73 272.36 497 297.29 502.28 296.36 822.19 304.61 815.87 454.25 272.17 454.04 293.68 311.95 810.23 310.34 811.47 317.28 806.15 454.11 309.16 454.11 309.16"/><polygon class="b463fe72-74ca-41b6-a3df-974308edc05b" points="325.04 799.67 317.28 806.15 329.27 796.95 453.97 343.71 454.02 331.58 325.04 799.67"/><polygon class="b463fe72-74ca-41b6-a3df-974308edc05b" points="336.41 791.47 335.09 792.49 341.95 787.22 453.75 379.58 453.75 400.83 453.97 343.71 453.75 367.71 336.41 791.47"/><polygon class="b463fe72-74ca-41b6-a3df-974308edc05b" points="343.97 785.67 452.56 702.39 453.74 402.55 348.38 782.3 343.97 785.67"/><polygon class="a75b94a7-eec2-4856-a168-583e5779b0b3" points="304.61 815.87 310.34 811.47 304.61 815.87 304.61 815.87"/><polygon class="f12d0aa3-31c1-4740-8d6c-c4d0c6b17408" points="454.04 293.68 454.25 272.17 304.61 815.87 310.34 811.47 311.95 810.23 454.04 293.68"/><polygon class="b6988c78-b3f9-453a-ab45-b63c254b05e0" points="454.11 331.26 454.11 309.16 454.02 331.58 454.11 331.26"/><polygon class="b6988c78-b3f9-453a-ab45-b63c254b05e0" points="317.28 806.15 317.28 806.15 317.28 806.15 317.28 806.15"/><polygon class="b9d7cc5c-4ef0-45ab-84d6-86ca5832ca38" points="454.02 331.58 454.11 309.16 454.11 309.16 317.28 806.15 317.28 806.15 325.04 799.67 454.02 331.58"/><polygon class="ade60460-ae2b-44b8-876a-b4e5c70df3f2" points="453.97 343.71 453.97 343.71 453.97 343.71 453.97 343.71"/><polygon class="ade60460-ae2b-44b8-876a-b4e5c70df3f2" points="329.27 796.95 335.09 792.49 329.27 796.95 329.27 796.95"/><polygon class="ac41d79b-da66-4714-8b35-b82011dfc7af" points="335.09 792.49 336.41 791.47 453.75 367.71 453.97 343.71 453.97 343.71 329.27 796.95 335.09 792.49"/><polygon class="e3b3b755-6a1a-4aa3-a205-24e7590d4e40" points="341.95 787.22 343.97 785.67 341.95 787.22 341.95 787.22"/><polygon class="e3b3b755-6a1a-4aa3-a205-24e7590d4e40" points="453.75 402.52 453.75 400.83 453.74 402.55 453.75 402.52"/><polygon class="af427c56-00fa-407d-8049-dc416c45bc09" points="341.95 787.22 343.97 785.67 348.38 782.3 453.74 402.55 453.75 400.83 453.75 379.58 341.95 787.22"/></g><g id="bd888d43-4f83-406b-aaf1-26d68ae901fd" data-name="a2c8f20f-4be2-454d-9020-ff90fad70d24"><polygon class="ba2d3d96-a164-49f1-8de6-8ede80d19d76" points="11.46 450.59 261.88 494.7 262.08 454.54 10.67 410.83 11.46 450.59"/><polygon class="ee3be9ae-f453-4429-8265-78f76e60e2a5" points="80.35 345.73 10.67 410.83 262.08 454.54 330.7 388.26 80.35 345.73"/></g><g id="e8196640-95c4-4d55-9064-f71e78381170" data-name="f40b3598-a1e0-44c7-9bd9-9af7f4c7678d"><path class="ba2d3d96-a164-49f1-8de6-8ede80d19d76" d="M96.84,129.36,79.7,347.72l250.52,42.43L347.82,168Zm224.28,67.76c0,.2-.29.32-.48.49L310.21,342.44a35.91,35.91,0,0,1-4.3,3.78l1.4.29v10.7s-1.4,4.75-11.08,2.64c-11.19-2.44-178.55-31.91-178.55-31.91l8.72-6.78v-1.39s-2.46.52-6-7l-12.48,2.77h-4l11.34-158.77s4-6.85,10.81-6.59,191.16,30.59,191.16,30.59S323.4,181.84,321.12,197.12Z" transform="translate(0 0)"/><path class="f872b899-b754-47c3-8e7b-d33eb607afe3" d="M317.28,180S133,149.66,126.12,149.4s-10.81,6.6-10.81,6.6L103.57,316.08h4.35l12.29-2.68c-.1-.23-.74-1.57-.85-1.8L131,166.54s2.11-5.54,7.12-7.38l177.49,27.16a20.74,20.74,0,0,1,5.11,9.76l-.05.75c.19-.17.62.66.66.47C324.56,183.24,317.28,180,317.28,180Z" transform="translate(0 0)"/><path class="a49fb313-8c80-494d-90ca-986b62a66790" d="M125.32,320l-8.56,8s164.63,29.3,178.61,32.24c10.36,2.17,14.43-3.58,14.43-3.58l.61-7.37.39-7.71-4.89,3.84a20.86,20.86,0,0,1-7.73,3.87Z" transform="translate(0 0)"/><path class="a31a0fc4-8147-4bd0-b2d0-81b9cc9b7824" d="M319.5,197.81a14,14,0,0,0,1.14-1l.66-.52a20.29,20.29,0,0,0-5.72-10L138.09,159.16c-5,1.84-7.12,7.38-7.12,7.38L119.36,311.6l.32.66c3.54,7.52,6.28,8,6.28,8l.44.08,171.78,28.93a20.86,20.86,0,0,0,7.73-3.87c2.57-1.91,4.89-3.84,4.89-3.84l10.5-145.29A16.81,16.81,0,0,1,319.5,197.81Z" transform="translate(0 0)"/></g><g id="a1bf09bb-0e44-41ac-8a8a-93f4de25446a" data-name="a289c6f8-a9cd-46a7-9ccc-0d3dd546eb07"><polygon id="ad1f6528-27c0-4188-bfa5-9973bf79770d" data-name="bfff07f0-44a4-4826-9f4d-30ade15f1abc" class="ba2d3d96-a164-49f1-8de6-8ede80d19d76" points="69.22 124.02 320.69 163.05 321.12 73.58 68.76 34.94 69.22 124.02"/><polygon class="ea7ebc05-afe2-4142-8904-9e4ce18bdaae" points="129.81 3.16 124.08 2.2 68.76 34.94 321.12 73.58 373.5 40.34 129.81 3.16"/></g><g id="a2aea798-f118-4372-aba4-5861ef4b5d61" data-name="b530217a-9b89-451e-9474-bd3290403326"><path class="b3d0e3f9-6e6e-4c98-b7e9-a01f52035f76" d="M68.92,377.27v5.16H62.4v-5.16c-5.06.64-8.77,2.7-8.77,5.16,0,3,5.38,5.35,12,5.35s12-2.39,12-5.35C77.69,380,74,377.91,68.92,377.27Z" transform="translate(0 0)"/><path class="a7835034-c309-45e1-ac77-8ddb1927971e" d="M68.92,377.27V359.49a12.16,12.16,0,0,1-3,.39,12.4,12.4,0,0,1-3.48-.49v17.88a26.34,26.34,0,0,1,6.52,0Z" transform="translate(0 0)"/><path class="a7835034-c309-45e1-ac77-8ddb1927971e" d="M68.92,382.43v-5.16a26.34,26.34,0,0,0-6.52,0v5.16Z" transform="translate(0 0)"/><path class="ac0a853b-d685-459f-87e0-21bc427f07ef" d="M68.92,358.89v.6a11.24,11.24,0,0,0,8.77-10.72c0-6.14-5.29-11.11-11.81-11.11s-11.82,5-11.82,11.11a11.22,11.22,0,0,0,8.34,10.62v-.5Z" transform="translate(0 0)"/><path class="a7835034-c309-45e1-ac77-8ddb1927971e" d="M68.92,359.49v-.6H62.4v.5a12.4,12.4,0,0,0,3.48.49A12,12,0,0,0,68.92,359.49Z" transform="translate(0 0)"/><path class="f70a9dec-fa48-48b1-ad6a-e9013cb9383f" d="M68.92,359.49v-.6H62.4v.5a12.4,12.4,0,0,0,3.48.49A12,12,0,0,0,68.92,359.49Z" transform="translate(0 0)"/></g><g id="ba7bd6cf-f1a6-440b-abae-f47772d3f2db" data-name="b1d6a16f-571b-44da-81c0-d41c557d07ce"><path class="b3d0e3f9-6e6e-4c98-b7e9-a01f52035f76" d="M198.88,399.49v5.16h-6.53v-5.16c-5,.64-8.77,2.7-8.77,5.16,0,3,5.39,5.35,12,5.35s12-2.39,12-5.35C207.65,402.19,203.94,400.13,198.88,399.49Z" transform="translate(0 0)"/><path class="a7835034-c309-45e1-ac77-8ddb1927971e" d="M198.88,399.49V381.71a12.19,12.19,0,0,1-6.48-.1v17.88a26.42,26.42,0,0,1,6.53,0Z" transform="translate(0 0)"/><path class="a7835034-c309-45e1-ac77-8ddb1927971e" d="M198.88,404.65v-5.16a26.42,26.42,0,0,0-6.53,0v5.16Z" transform="translate(0 0)"/><path class="a0e10081-5a18-495d-98bc-e3ca3c5c39be" d="M198.88,381.11v.6A11.24,11.24,0,0,0,207.65,371c0-6.14-5.29-11.11-11.82-11.11S184,364.85,184,371a11.22,11.22,0,0,0,8.34,10.62v-.5Z" transform="translate(0 0)"/><path class="a7835034-c309-45e1-ac77-8ddb1927971e" d="M198.88,381.71v-.6h-6.53v.5a12.77,12.77,0,0,0,3.48.49A12.09,12.09,0,0,0,198.88,381.71Z" transform="translate(0 0)"/><path class="fc212091-11f8-4b19-b877-f27fda10c136" d="M198.88,381.71v-.6h-6.53v.5a12.77,12.77,0,0,0,3.48.49A12.09,12.09,0,0,0,198.88,381.71Z" transform="translate(0 0)"/></g><g id="e2f0cd92-3f4a-4638-9e81-1a855aeb7056" data-name="a5c3ecf5-9441-4e13-9eb0-2d7721089c79"><g id="a08e67dd-b910-4af4-84f9-b02226a7f50f" data-name="bff1631d-178a-4cc5-b02c-d0f3f86b8228"><path class="ba046eac-3825-4351-b705-ab3eabe79257" d="M92.54,389.14c-3.86,0-8.12,1.53-8.12,4.87,0,2.95,4.1,4.62,7.94,4.62,4.11,0,8-1.73,8-4.88C100.32,391.4,96.48,389.14,92.54,389.14Zm-.18,8.63c-3.86,0-7-1.74-7-3.89s3.13-3.89,7-3.89,7,1.74,7,3.89-3.14,3.89-7,3.89Z" transform="translate(0 0)"/><path class="f74be75e-f59e-4931-8fc7-76d1cd147947" d="M92.36,390c-3.86,0-7,1.74-7,3.89s3.13,3.89,7,3.89,7-1.74,7-3.89S96.22,390,92.36,390Z" transform="translate(0 0)"/></g><g id="e50eafd2-ea34-4e3d-b533-94d97e3aa7ab" data-name="b8b805d7-10f5-4823-8927-3b9edf36f019"><path class="ba046eac-3825-4351-b705-ab3eabe79257" d="M114.79,389.14c-3.86,0-8.12,1.53-8.12,4.87,0,2.95,4.1,4.62,7.94,4.62,4.11,0,8-1.73,8-4.88C122.57,391.4,118.73,389.14,114.79,389.14Zm-.18,8.63c-3.86,0-7-1.74-7-3.89s3.13-3.89,7-3.89,7,1.74,7,3.89-3.14,3.89-7,3.89Z" transform="translate(0 0)"/><path class="eb0ec580-33d5-4e21-983c-a498aee932ea" d="M114.61,390c-3.86,0-7,1.74-7,3.89s3.13,3.89,7,3.89,7-1.74,7-3.89S118.47,390,114.61,390Z" transform="translate(0 0)"/></g><g id="fcbea6d7-06b0-4cff-8f7d-b27302aea46e" data-name="a5882ba7-92e7-4bba-9dc8-01c982729f18"><path class="ba046eac-3825-4351-b705-ab3eabe79257" d="M133.35,395.3c-3.86,0-8.13,1.53-8.13,4.87,0,3,4.11,4.62,7.95,4.62,4.1,0,8-1.73,8-4.88C141.13,397.56,137.29,395.3,133.35,395.3Zm-.18,8.63c-3.86,0-7-1.74-7-3.89s3.13-3.89,7-3.89,7,1.74,7,3.89-3.17,3.89-7,3.89Z" transform="translate(0 0)"/><path class="b7fcf3c5-11b9-4f7a-bfd3-461d19169580" d="M133.17,396.15c-3.86,0-7,1.74-7,3.89s3.13,3.89,7,3.89,7-1.74,7-3.89S137,396.15,133.17,396.15Z" transform="translate(0 0)"/></g><g id="b1e8bc17-f7b1-461d-bad5-103e5ee7259e" data-name="a86c37af-062f-4d79-973a-7efe35060d8a"><path class="ba046eac-3825-4351-b705-ab3eabe79257" d="M139.39,383c-3.86,0-8.13,1.53-8.13,4.88,0,2.95,4.11,4.61,8,4.61,4.1,0,8-1.73,8-4.88C147.17,385.3,143.33,383,139.39,383Zm-.18,8.63c-3.86,0-7-1.74-7-3.89s3.13-3.89,7-3.89,7,1.75,7,3.89-3.14,3.93-7,3.93Z" transform="translate(0 0)"/><path class="ee654998-6591-4951-99a5-ef883c2826c5" d="M139.21,383.89c-3.86,0-7,1.75-7,3.89s3.13,3.89,7,3.89,7-1.74,7-3.89S143.07,383.89,139.21,383.89Z" transform="translate(0 0)"/></g><g id="f0cebaaa-25ed-40ee-a3f6-2f38fb126b16" data-name="af3b6070-bbf0-4f08-bbc6-300e48c63555"><path class="ba046eac-3825-4351-b705-ab3eabe79257" d="M121.79,377.35c-3.86,0-8.12,1.53-8.12,4.88,0,2.95,4.1,4.61,7.94,4.61,4.11,0,8-1.73,8-4.88C129.57,379.62,125.73,377.35,121.79,377.35Zm-.18,8.64c-3.86,0-7-1.74-7-3.89s3.13-3.89,7-3.89,7,1.74,7,3.89-3.14,3.9-7,3.9Z" transform="translate(0 0)"/><path class="b62039cc-dee7-47a3-b389-2a50269a17b2" d="M121.61,378.21c-3.86,0-7,1.74-7,3.89s3.13,3.89,7,3.89,7-1.74,7-3.89S125.47,378.21,121.61,378.21Z" transform="translate(0 0)"/></g><g id="f61a0995-3984-47fa-a23e-a727b26ae863" data-name="b3e7ad8a-ebb1-436f-82d2-e69db3ae1e0f"><path class="ba046eac-3825-4351-b705-ab3eabe79257" d="M100.5,377.78c-3.86,0-8.13,1.53-8.13,4.88,0,2.95,4.11,4.62,7.95,4.62,4.1,0,8-1.73,8-4.88C108.28,380.05,104.44,377.78,100.5,377.78Zm-.18,8.64c-3.86,0-7-1.74-7-3.89s3.13-3.89,7-3.89,7,1.74,7,3.89S104.18,386.42,100.32,386.42Z" transform="translate(0 0)"/><path class="a1d5d1b8-5755-42bd-a2a2-017f521cd674" d="M100.32,378.64c-3.86,0-7,1.74-7,3.89s3.13,3.89,7,3.89,7-1.74,7-3.89S104.18,378.64,100.32,378.64Z" transform="translate(0 0)"/></g></g><g id="a37d374c-48de-431a-a574-c81e6116b52d" data-name="bebd2999-5292-4b2c-b776-0376d0904198"><g id="e048c1c8-3676-43ee-91d0-4cd5a229adb2" data-name="f7990be4-c304-4dab-911f-2a14bbd5d3b2"><path class="b47252bd-435e-45a4-82ce-ae1026f2fe28" d="M225.69,399.93c-3.86,0-8.13,1.53-8.13,4.87,0,2.95,4.11,4.62,7.95,4.62,4.1,0,8-1.73,8-4.88C233.47,402.19,229.63,399.93,225.69,399.93Zm-.18,8.63c-3.86,0-7-1.74-7-3.89s3.13-3.89,7-3.89,7,1.74,7,3.89-3.14,3.89-7,3.89Z" transform="translate(0 0)"/><path class="a73d08c2-8fc8-4c24-93b7-7079a6090d90" d="M225.51,400.78c-3.86,0-7,1.74-7,3.89s3.13,3.89,7,3.89,7-1.74,7-3.89S229.37,400.78,225.51,400.78Z" transform="translate(0 0)"/></g><g id="aab44a44-d407-4e5d-9f90-ec7930de17d3" data-name="aea76cb7-5509-400c-8549-ed92cfd55390"><path class="b47252bd-435e-45a4-82ce-ae1026f2fe28" d="M247,399.49c-3.86,0-8.13,1.54-8.13,4.88,0,2.95,4.11,4.62,7.95,4.62,4.1,0,8-1.73,8-4.88C254.75,401.76,250.91,399.49,247,399.49Zm-.18,8.64c-3.86,0-7-1.74-7-3.89s3.13-3.89,7-3.89,7,1.74,7,3.89-3.17,3.89-7,3.89Z" transform="translate(0 0)"/><path class="a545a082-59d6-4016-a93e-0ea56991dd23" d="M246.79,400.35c-3.86,0-7,1.74-7,3.89s3.13,3.89,7,3.89,7-1.74,7-3.89S250.65,400.35,246.79,400.35Z" transform="translate(0 0)"/></g><g id="ea7512e0-2601-4eb9-b351-cd9af2c5505e" data-name="ba98a015-766f-4c94-9ac8-cba2f337ab84"><path class="b47252bd-435e-45a4-82ce-ae1026f2fe28" d="M264.58,405.18c-3.86,0-8.12,1.53-8.12,4.88,0,2.95,4.1,4.61,7.94,4.61,4.1,0,8-1.73,8-4.88C272.36,407.44,268.52,405.18,264.58,405.18Zm-.18,8.64c-3.86,0-7-1.75-7-3.89s3.13-3.89,7-3.89,7,1.74,7,3.89S268.26,413.82,264.4,413.82Z" transform="translate(0 0)"/><path class="e70cd63b-256e-4651-8532-9daf0df4881a" d="M264.4,406c-3.86,0-7,1.74-7,3.89s3.13,3.89,7,3.89,7-1.75,7-3.89S268.26,406,264.4,406Z" transform="translate(0 0)"/></g><g id="b5f73920-b51f-41e1-ab25-ed6934add41f" data-name="f7890acc-d5d9-47ea-9dce-2af1c6a37704"><path class="b47252bd-435e-45a4-82ce-ae1026f2fe28" d="M258.54,417.44c-3.86,0-8.13,1.53-8.13,4.88,0,2.95,4.11,4.61,8,4.61,4.1,0,8-1.73,8-4.88C266.32,419.7,262.48,417.44,258.54,417.44Zm-.18,8.64c-3.86,0-7-1.75-7-3.89s3.13-3.89,7-3.89,7,1.74,7,3.89-3.14,3.89-7,3.89Z" transform="translate(0 0)"/><path class="ebf4765c-5e84-4439-93ad-8ddaf53f4b27" d="M258.36,418.3c-3.86,0-7,1.74-7,3.89s3.13,3.89,7,3.89,7-1.75,7-3.89S262.22,418.3,258.36,418.3Z" transform="translate(0 0)"/></g><g id="b13cbfaa-cc3d-43f3-87e2-183157a1d034" data-name="b815854c-ef93-4f34-9cca-1e1846bd3b6b"><path class="b47252bd-435e-45a4-82ce-ae1026f2fe28" d="M240,411.28c-3.86,0-8.13,1.53-8.13,4.88,0,2.95,4.11,4.61,7.95,4.61,4.1,0,8-1.73,8-4.88C247.75,413.54,243.91,411.28,240,411.28Zm-.18,8.63c-3.86,0-7-1.74-7-3.89s3.13-3.89,7-3.89,7,1.75,7,3.89-3.17,3.89-7,3.89Z" transform="translate(0 0)"/><path class="abab46e7-31ef-4fdb-b960-af9ad0cf3bbf" d="M239.79,412.13c-3.86,0-7,1.75-7,3.89s3.13,3.89,7,3.89,7-1.74,7-3.89S243.65,412.13,239.79,412.13Z" transform="translate(0 0)"/></g><g id="eaa020e9-ba03-44ea-92e2-8d1fe9b02f28" data-name="a772734b-4187-4e17-8521-6800784455e7"><path class="b47252bd-435e-45a4-82ce-ae1026f2fe28" d="M217.73,411.28c-3.86,0-8.13,1.53-8.13,4.88,0,2.95,4.11,4.61,8,4.61,4.1,0,8-1.73,8-4.88C225.51,413.54,221.67,411.28,217.73,411.28Zm-.18,8.63c-3.86,0-7-1.74-7-3.89s3.13-3.89,7-3.89,7,1.75,7,3.89S221.41,419.91,217.55,419.91Z" transform="translate(0 0)"/><path class="aac9eb03-e733-4b22-92cc-b00f7a56681e" d="M217.55,412.13c-3.86,0-7,1.75-7,3.89s3.13,3.89,7,3.89,7-1.74,7-3.89S221.41,412.13,217.55,412.13Z" transform="translate(0 0)"/></g></g><path class="ff3e2af3-a223-403f-a898-a259abdd6a0f" d="M228.57,237.19v.07l-5.92-1v-.08Z" transform="translate(0 0)"/><path class="ff3e2af3-a223-403f-a898-a259abdd6a0f" d="M236.56,238.53v.06l-5.72-1v-.06Z" transform="translate(0 0)"/><path class="bb3ffdef-47c4-41b5-8478-d8fe00e53d33" d="M210.17,273.38l-65.56-11c-.87-.14-.87-.14-.74-.92.25-1.54.47-3.08.75-4.61.78-4.31,1.48-8.63,2.22-13,.09-.48.22-1,.29-1.44,0-.18.12-.23.31-.19l.75.13,119.31,20a16,16,0,0,1,4.69,1.42,11.56,11.56,0,0,1,5.67,5.9,8.3,8.3,0,0,1,.63,3.88,6.36,6.36,0,0,1-.15,1.14l-1.56,9.36c-.07.39-.13.42-.54.36l-40.11-6.72Zm14.68-7.7h0c-.4,2.35-.79,4.71-1.19,7.07,0,.23,0,.34.3.38,1,.15,1.95.32,2.93.49.51.09.51.09.59-.37q.69-4.22,1.4-8.43c0-.08,0-.21.12-.22s.13.1.17.17c1.69,3.14,3.43,6.26,5.06,9.42a2.39,2.39,0,0,0,3.27.8,2.83,2.83,0,0,0,.28-.2c.9-.94,1.91-1.79,2.87-2.68l4.89-4.53c.08-.07.15-.22.26-.17s0,.2,0,.31v.12c-.47,2.79-.93,5.58-1.4,8.37,0,.25,0,.35.31.4,1,.16,2,.32,3.06.51.34.07.45,0,.49-.32q1.16-6.92,2.32-13.83a1.29,1.29,0,0,0-.25-1,2.34,2.34,0,0,0-3.26-.37l-2.16,2-8.12,7.4c-.25.23-.28.22-.45-.08-2.2-4.06-4.42-8.11-6.61-12.17a2.15,2.15,0,0,0-1.43-1.06,1.74,1.74,0,0,0-2.23,1.05,2,2,0,0,0-.07.26Zm-4.51-.71h0c.38-2.31.76-4.61,1.16-6.92a1.33,1.33,0,0,0-.45-1.21,2.39,2.39,0,0,0-3.17,0c-2.39,2.24-4.82,4.43-7.24,6.63l-2.95,2.7c-.13.12-.23.25-.37,0l-3.44-6.31c-1.1-2-2.19-4-3.3-6a2.24,2.24,0,0,0-2.21-1,1.53,1.53,0,0,0-1.5,1.37q-1.16,6.86-2.3,13.71c0,.28.05.37.35.41,1,.15,2,.32,3,.5.44.07.45.08.51-.3.46-2.73.91-5.46,1.37-8.19a.93.93,0,0,1,.06-.4c.06-.13,0-.16.11-.17s.1.08.13.14.18.34.28.51c1.63,3,3.29,6,4.88,9.07a2.35,2.35,0,0,0,3.24.68l.11-.08c.47-.47,1-.91,1.48-1.37l6.5-6c.06-.05.09-.14.19-.11s.07.14.06.22c-.14.81-.28,1.62-.41,2.44-.35,2.06-.69,4.13-1,6.2,0,.22,0,.32.29.36l3,.5c.44.07.45.07.52-.31q.51-3.6,1.1-7Zm33.15,5.67h0c-.38,2.28-.76,4.57-1.15,6.85-.06.31.06.41.38.45,1,.16,2,.32,3,.5.33.07.45,0,.5-.31.16-1,.35-2.08.51-3.12,0-.23.12-.33.4-.28l12.77,2.14c.33.05.39.18.34.45-.18,1-.34,2.08-.53,3.12,0,.25,0,.35.32.4,1,.15,2,.32,3,.49.45.07.46.07.53-.34.41-2.44.81-4.88,1.22-7.32a6.88,6.88,0,0,0-2.51-6.52,12.66,12.66,0,0,0-6.36-3c-2.38-.41-4.76-.8-7.13-1.19-.72-.12-1.45-.26-2.17-.35a1.61,1.61,0,0,0-1.9,1.23s0,0,0,.06c-.46,2.27-.83,4.5-1.21,6.74Zm-62.24-10.42h0l1.14-6.79a1.24,1.24,0,0,0,0-.47,1.92,1.92,0,0,0-1.63-1.33c-1.55-.26-3.1-.53-4.65-.77-1.84-.3-3.66-.71-5.51-.87a11.54,11.54,0,0,0-7,1.39,6.56,6.56,0,0,0-3.37,4.67q-.63,3.74-1.25,7.47c-.07.4-.07.4.36.47,1,.17,2,.32,2.93.5.33.06.45,0,.5-.31.15-1,.34-2.06.5-3.09,0-.29.17-.35.48-.3l12.67,2.12c.34,0,.42.16.37.46-.19,1-.35,2.08-.54,3.11,0,.26,0,.36.32.4,1,.16,2,.32,3,.51.33.06.44,0,.49-.32.42-2.28.81-4.57,1.19-6.85Zm-38.3,1h0l6.47,1.08a8,8,0,0,0,2.76,0,3.92,3.92,0,0,0,3.34-2.92c.64-3.78,1.26-7.55,1.9-11.33.05-.27,0-.37-.33-.42-1-.15-2-.32-3-.5-.36-.07-.46,0-.51.33q-.92,5.58-1.86,11.15a1.09,1.09,0,0,1-1.19,1h-.05a4.41,4.41,0,0,1-.73-.08c-1-.18-2-.37-3.06-.54l-7-1.15c-.28-.05-.35-.15-.31-.38.11-.59.19-1.18.31-1.76.06-.28,0-.4-.35-.45-.84-.13-1.68-.26-2.52-.42-.34-.07-.44,0-.49.32-.24,1.49-.49,3-.74,4.45-.07.42-.07.42.42.5Z" transform="translate(0 0)"/><path class="bb3ffdef-47c4-41b5-8478-d8fe00e53d33" d="M230.83,237.63l5.72,1c.15.09.15.2.13.35-.37,2.17-.73,4.34-1.11,6.51,0,.29,0,.38.34.43,3.09.5,6.18,1,9.27,1.54.32,0,.34.16.31.44-.06.67-.23,1.33-.32,2-.22,1.55-.54,3.09-.8,4.63-.1.59-.17,1.19-.26,1.78,0,.2-.12.31-.4.26L228.57,254c-.65-.11-.65-.11-.56-.68q1.29-7.69,2.57-15.38C230.6,237.79,230.6,237.63,230.83,237.63Zm3.94,12.7h0c-.13.78-.25,1.56-.39,2.34,0,.27,0,.38.33.43,1.06.16,2.11.34,3.16.53.32.06.44,0,.49-.31.25-1.55.51-3.1.78-4.66,0-.24,0-.34-.31-.38q-1.62-.25-3.24-.54c-.28-.05-.39,0-.43.27C235,248.79,234.9,249.56,234.77,250.33Z" transform="translate(0 0)"/><path class="bb3ffdef-47c4-41b5-8478-d8fe00e53d33" d="M255.63,249.17c2.55.43,5.09.86,7.64,1.27.34.06.42.17.37.47q-.7,4.14-1.39,8.3c-.07.37-.1.4-.52.33L246.38,257c-.27-.05-.34-.16-.3-.39q.72-4.22,1.41-8.43c0-.28.18-.33.47-.28,2.55.44,5.11.86,7.67,1.29Zm1.31,4.88h0c.14-.8.27-1.6.41-2.4,0-.23,0-.36-.3-.4l-3.44-.58c-.26,0-.38,0-.42.27l-.81,4.85c0,.25.05.36.33.41l3.37.56c.3.06.42,0,.46-.3C256.67,255.66,256.81,254.86,256.94,254.05Z" transform="translate(0 0)"/><path class="bb3ffdef-47c4-41b5-8478-d8fe00e53d33" d="M173.53,244.78l-7.64-1.27c-.31,0-.37-.15-.33-.42q.72-4.2,1.42-8.42c0-.25.13-.32.4-.27l15.36,2.6c.41.07.43.11.37.49-.26,1.55-.53,3.11-.78,4.66,0,.31-.17.37-.5.32-3.07-.53-6.15-1-9.22-1.55-.46-.08-.46-.08-.52.32a9,9,0,0,1-.19,1c-.08.3,0,.35.31.4,2.06.33,4.11.68,6.17,1l3.16.53c.32.05.42.17.37.44s-.14.74-.19,1.11-.18.38-.51.32Zm.92-5.45h0c.56.1,1.13.18,1.69.29.25,0,.35,0,.38-.25a6,6,0,0,1,.2-1.17c0-.21,0-.32-.26-.36l-3.41-.57c-.22,0-.33,0-.36.23q-.08.62-.18,1.23c0,.23.06.3.29.33C173.35,239.13,173.9,239.23,174.45,239.33Z" transform="translate(0 0)"/><path class="bb3ffdef-47c4-41b5-8478-d8fe00e53d33" d="M211.28,241.75l7.64,1.28c.44.07.5.14.42.52-.43,2-.7,4-1.05,6-.14.74-.27,1.48-.37,2.23,0,.29-.15.37-.49.31-2.08-.36-4.17-.7-6.26-1l-9-1.51c-.42-.07-.43-.08-.37-.47.26-1.56.53-3.11.77-4.67,0-.32.18-.37.52-.31l9.16,1.54c.46.07.46.07.53-.33s.09-.67.17-1,0-.4-.36-.46c-2.34-.37-4.68-.77-7-1.16l-2.31-.38c-.24,0-.32-.12-.28-.34a9.09,9.09,0,0,0,.21-1.27c0-.27.16-.31.43-.26l5.37.9,2.27.38ZM210.13,249h0c.55.09,1.11.17,1.66.27.21,0,.33,0,.36-.21l.21-1.23c0-.19-.05-.29-.27-.33l-3.33-.56c-.24,0-.35,0-.38.24a5.71,5.71,0,0,1-.19,1.17c-.05.23.05.33.29.37C209,248.79,209.58,248.89,210.13,249Z" transform="translate(0 0)"/><path class="bb3ffdef-47c4-41b5-8478-d8fe00e53d33" d="M268.74,251.36c.87.15,1.74.31,2.62.44.31,0,.38.18.34.43-.08.4-.13.8-.21,1.2,0,.21,0,.3.27.34l3.36.56c.28,0,.38,0,.41-.27s.15-.82.2-1.23c0-.23.15-.27.37-.24l5.4.91c.21,0,.3.13.27.33-.08.43-.16.86-.22,1.29,0,.23-.16.29-.41.25-.44-.09-.89-.15-1.34-.24-.24,0-.33,0-.36.24-.05.4-.13.8-.19,1.2,0,.23-.15.3-.4.25-.47-.08-.94-.15-1.41-.24-.17,0-.24,0-.29.17-.13.44-.08.91-.25,1.34-.07.18.07.24.24.27l1.38.22c.28,0,.38.15.33.41s-.13.78-.21,1.17c0,.21.05.31.28.34l1.34.22c.25,0,.34.13.3.36-.09.42-.17.84-.22,1.27,0,.22-.15.27-.36.24l-.65-.11-4.62-.77c-.45-.08-.45-.08-.38-.49s.12-.76.19-1.14c.05-.21,0-.3-.27-.34l-3.44-.58c-.22,0-.29,0-.31.21-.06.4-.16.8-.19,1.21s-.19.37-.5.32l-4.72-.8c-1.16-.19-.93-.1-.8-1a6.33,6.33,0,0,1,.12-.74c0-.25.16-.29.4-.25.45.09.9.15,1.34.24.27,0,.39,0,.42-.26s.14-.78.19-1.17.16-.31.41-.26c.46.09.92.15,1.37.24.21,0,.3,0,.32-.2.06-.43.13-.85.22-1.27,0-.21-.05-.28-.26-.31l-1.38-.23c-.24,0-.34-.12-.29-.36s.14-.78.21-1.17c0-.23,0-.35-.31-.38s-.9-.15-1.35-.22c-.25,0-.34-.14-.29-.37q.12-.63.21-1.26c0-.24.16-.29.4-.24Z" transform="translate(0 0)"/><path class="bb3ffdef-47c4-41b5-8478-d8fe00e53d33" d="M222.64,236.28l5.92,1a.42.42,0,0,1,.05.36q-1.31,7.77-2.6,15.56c0,.28-.17.37-.48.31s-.88-.19-1.33-.26l-3.89-.62c-.46-.08-.45-.08-.39-.49q1.31-7.74,2.6-15.49C222.54,236.51,222.52,236.37,222.64,236.28Z" transform="translate(0 0)"/><path class="bb3ffdef-47c4-41b5-8478-d8fe00e53d33" d="M191.71,247.82,184,246.54c-.3,0-.4-.14-.35-.43q.72-4.2,1.41-8.4c0-.26.15-.32.42-.27L200.87,240c.31.05.42.18.36.45s-.11.72-.19,1.08-.13.41-.55.34l-4.16-.7-5.06-.85c-.28,0-.37,0-.41.25-.22,1.39-.46,2.78-.69,4.17V245c-.11.6-.11.6.58.72l8.92,1.49c.42.07.45.11.39.5s-.15.72-.18,1.08-.19.35-.48.3c-.56-.11-1.12-.2-1.68-.29Z" transform="translate(0 0)"/><path class="aec02a43-31e4-4d90-83ce-9c19dae58add" d="M291.07,282.1c-.25,1.47-.49,2.94-.74,4.41-.07.42-.07.42-.51.34l-4.27-.71c-.27,0-.37-.13-.3-.37a5.43,5.43,0,0,0,.11-.62c0-.21-.06-.27-.25-.29l-.49-.05c-.39-.06-.49,0-.51.37v.19c0,.43-.14.5-.63.42-1.39-.23-2.79-.47-4.19-.69-.32-.05-.4-.19-.36-.45.5-3,1-5.91,1.49-8.86.06-.36.14-.42.55-.33,2.95.58,5.92,1,8.87,1.52.52.09,1,.13,1.55.22s.47.1.4.52c-.24,1.46-.49,2.92-.73,4.38Zm-8.37-.17h0l1.58.27c.22,0,.32,0,.35-.22.1-.59.2-1.19.31-1.79,0-.21-.06-.3-.29-.34l-3.13-.52c-.21,0-.31,0-.35.22-.08.59-.18,1.19-.29,1.79,0,.21,0,.31.27.34Zm5.47-1.49h0l-1.55-.26c-.25-.05-.36,0-.39.24-.09.59-.19,1.19-.29,1.78-.05.23.05.29.28.33l3,.51c.28,0,.39,0,.43-.27.08-.56.17-1.13.28-1.69,0-.23,0-.35-.3-.39Z" transform="translate(0 0)"/><path class="b13e208e-994c-4219-b017-692da9d59ec1" d="M292.87,271.31c-.25,1.48-.5,3-.74,4.44-.07.38-.11.4-.52.34l-2.86-.48c-.41-.07-.49-.18-.43-.54.14-.85.28-1.71.43-2.56v-.1c.2-.63.12-.52.72-.43l1.48.25c.26,0,.4,0,.44-.25.09-.59.19-1.18.29-1.76,0-.21,0-.33-.3-.38l-8-1.34c-.26,0-.39.05-.42.28-.09.57-.19,1.14-.28,1.7,0,.23.05.36.31.41l3.06.52a.25.25,0,0,0,.32-.15v0a1.73,1.73,0,0,0,.12-.64c0-.19.11-.24.27-.29a.34.34,0,0,1,.2,0c.85.09.89.14.77.88-.21,1.26-.43,2.51-.63,3.77,0,.26-.17.34-.43.3l-5.43-.91c-.49-.08-.55-.15-.48-.58.49-3,1-5.91,1.48-8.87,0-.17.09-.23.28-.22a3.78,3.78,0,0,1,.83.08l9.77,1.63c.55.09.55.1.47.6l-.72,4.32Z" transform="translate(0 0)"/><path class="bd840345-8daa-4059-8b82-4181d722836e" d="M289.84,254.78c1.75.29,3.49.59,5.24.87.3,0,.4.13.35.42-.51,3-1,5.95-1.49,8.92-.05.3-.16.38-.49.32-1.4-.25-2.8-.48-4.2-.71-.36-.06-.42-.15-.36-.47a1.87,1.87,0,0,1,.08-.34c.08-.47.08-.47-.46-.56h-.21c-.5-.08-.51-.08-.54.39,0,.18-.1.34-.11.52s-.18.19-.35.16l-4.44-.74a.27.27,0,0,1-.29-.35c.17-1,.35-2,.51-3.06,0-.28.23-.27.45-.23l1.83.3c.8.15,1.61.24,2.4.44.25.06.44,0,.48-.27.07-.57.17-1.14.28-1.7.05-.27,0-.38-.34-.43-1.42-.22-2.83-.47-4.24-.7-.29,0-.4-.12-.35-.4.18-1,.33-2,.48-3,0-.26.15-.33.44-.28C286.28,254.19,288.06,254.48,289.84,254.78Zm1.49,6.43h0l1.54.26c.22,0,.35,0,.39-.21.09-.61.19-1.22.3-1.82,0-.2,0-.32-.27-.35l-3.09-.52c-.22,0-.32,0-.35.21-.09.63-.2,1.25-.31,1.88,0,.18,0,.26.24.29Z" transform="translate(0 0)"/><path class="bb3ffdef-47c4-41b5-8478-d8fe00e53d33" d="M156.94,232.66l7.54,1.26c.53.09.53.09.45.57s-.13.7-.17,1-.16.33-.44.28L155,234.2c-.33,0-.41,0-.45.3-.35,2.17-.72,4.33-1.07,6.49-.05.31-.2.36-.51.31l-5.19-.87c-.3,0-.4-.14-.35-.42q.72-4.19,1.4-8.39c.05-.31.19-.34.48-.29Z" transform="translate(0 0)"/><path class="ff3e2af3-a223-403f-a898-a259abdd6a0f" d="M224.85,265.68,226,259a1.74,1.74,0,0,1,2-1.42l.33.09a2.15,2.15,0,0,1,1.43,1.06c2.19,4.06,4.41,8.11,6.61,12.17.17.3.2.31.45.08l8.14-7.43,2.16-2a2.34,2.34,0,0,1,3.26.37,1.29,1.29,0,0,1,.25,1q-1.17,6.91-2.32,13.83c0,.29-.15.39-.49.32-1-.19-2-.35-3.06-.51-.3-.05-.36-.15-.31-.4.47-2.79.93-5.58,1.4-8.37v-.12s.11-.25,0-.31-.18.1-.26.17l-4.89,4.53c-1,.89-2,1.74-2.87,2.68a2.38,2.38,0,0,1-3.35-.32,2.83,2.83,0,0,1-.2-.28c-1.63-3.16-3.37-6.28-5.06-9.42,0-.07-.06-.19-.17-.17s-.11.14-.12.22c-.47,2.81-.93,5.62-1.4,8.43-.08.46-.08.46-.59.37-1-.17-1.95-.34-2.93-.49-.28,0-.34-.15-.3-.38.4-2.36.79-4.72,1.19-7.07Z" transform="translate(0 0)"/><path class="ff3e2af3-a223-403f-a898-a259abdd6a0f" d="M220.34,265c-.39,2.31-.78,4.62-1.16,6.95-.07.38-.08.38-.52.31l-3-.5c-.27,0-.32-.14-.29-.36.36-2.07.7-4.14,1-6.2.13-.82.27-1.63.41-2.44,0-.08.06-.18-.06-.22s-.13.06-.19.11l-6.5,6c-.5.46-1,.9-1.48,1.37a2.33,2.33,0,0,1-3.27-.49.76.76,0,0,1-.08-.11c-1.59-3-3.25-6.05-4.88-9.07-.1-.17-.19-.34-.28-.51s0-.14-.13-.14-.1.1-.11.17a1.33,1.33,0,0,1-.06.4c-.46,2.73-.91,5.46-1.37,8.19-.06.38-.07.37-.51.3-1-.18-2-.35-3-.5-.3,0-.4-.13-.35-.41q1.16-6.86,2.3-13.71a1.53,1.53,0,0,1,1.5-1.37,2.24,2.24,0,0,1,2.21,1c1.11,2,2.2,4,3.3,6l3.44,6.31c.14.27.24.14.37,0l3-2.7c2.42-2.2,4.85-4.39,7.24-6.63a2.39,2.39,0,0,1,3.17,0,1.33,1.33,0,0,1,.45,1.21c-.4,2.31-.78,4.61-1.16,6.92Z" transform="translate(0 0)"/><path class="ff3e2af3-a223-403f-a898-a259abdd6a0f" d="M253.49,270.64c.38-2.24.75-4.47,1.13-6.7a1.6,1.6,0,0,1,1.85-1.3h.06c.72.09,1.45.23,2.17.35,2.37.39,4.75.78,7.13,1.19a12.66,12.66,0,0,1,6.36,3,6.88,6.88,0,0,1,2.51,6.52q-.6,3.66-1.22,7.32c-.07.41-.08.41-.53.34-1-.17-2-.34-3-.49-.29,0-.37-.15-.32-.4.19-1,.35-2.08.53-3.12,0-.27,0-.4-.34-.45l-12.77-2.14c-.28,0-.36,0-.4.28-.16,1-.35,2.08-.51,3.12-.05.3-.17.38-.5.31-1-.18-2-.34-3-.5-.32,0-.44-.14-.38-.45.39-2.28.77-4.57,1.15-6.85ZM264,273l6.37,1.07c.3,0,.43,0,.46-.28s.08-.52.12-.78a4.28,4.28,0,0,0-1.54-4.2,8.46,8.46,0,0,0-4-1.85c-2.25-.43-4.52-.78-6.77-1.17-.34-.06-.36.12-.4.33q-.44,2.69-.9,5.37c0,.29,0,.4.36.46Z" transform="translate(0 0)"/><path class="ff3e2af3-a223-403f-a898-a259abdd6a0f" d="M191.25,260.22c-.38,2.28-.77,4.57-1.14,6.85-.05.3-.16.38-.49.32-1-.19-2-.35-3-.51-.29,0-.36-.14-.32-.4.19-1,.35-2.08.54-3.11,0-.3,0-.41-.37-.46l-12.67-2.12c-.31-.05-.44,0-.48.3-.16,1-.35,2.05-.5,3.09,0,.3-.17.37-.5.31l-2.93-.5c-.43-.07-.43-.07-.36-.47q.61-3.74,1.25-7.47a6.56,6.56,0,0,1,3.37-4.67,11.54,11.54,0,0,1,7-1.39c1.85.16,3.67.57,5.51.87,1.55.24,3.1.51,4.65.77A1.91,1.91,0,0,1,192.4,253a1.24,1.24,0,0,1,0,.47l-1.14,6.79Zm-10.67-1.14h0c2.11.35,4.22.7,6.33,1.07.32.05.44,0,.48-.29.3-1.81.6-3.63.91-5.44,0-.26,0-.37-.33-.42q-3-.48-6-1a11.36,11.36,0,0,0-3.77,0,4.88,4.88,0,0,0-3.81,2.54,7.66,7.66,0,0,0-.52,2c-.07.4-.07.41.4.48Z" transform="translate(0 0)"/><path class="ff3e2af3-a223-403f-a898-a259abdd6a0f" d="M153,261.25l-7-1.17c-.49-.08-.49-.08-.42-.5.25-1.48.5-3,.74-4.45.05-.28.15-.39.49-.32.84.16,1.68.29,2.52.42.31.05.41.17.35.45-.12.58-.2,1.17-.31,1.76,0,.23,0,.33.31.38l7,1.15,3.06.54a4.41,4.41,0,0,0,.73.08,1.08,1.08,0,0,0,1.23-.9v-.05q.94-5.58,1.86-11.15c0-.3.15-.4.51-.33,1,.18,2,.35,3,.5.3.05.38.15.33.42-.64,3.78-1.26,7.55-1.9,11.33a3.92,3.92,0,0,1-3.34,2.92,8,8,0,0,1-2.76,0Z" transform="translate(0 0)"/><path class="bb3ffdef-47c4-41b5-8478-d8fe00e53d33" d="M264,273l-6.33-1c-.34-.06-.41-.17-.36-.46q.46-2.69.9-5.37c0-.21.06-.39.4-.33,2.25.39,4.52.74,6.77,1.17a8.46,8.46,0,0,1,4,1.85,4.28,4.28,0,0,1,1.54,4.2c0,.26-.1.52-.12.78s-.16.33-.46.28Z" transform="translate(0 0)"/><path class="bb3ffdef-47c4-41b5-8478-d8fe00e53d33" d="M180.58,259.08l-6.3-1.06c-.47-.07-.47-.08-.4-.48a7.66,7.66,0,0,1,.52-2,4.88,4.88,0,0,1,3.81-2.54,11.36,11.36,0,0,1,3.77,0l6,1c.31.05.38.16.33.42-.31,1.81-.61,3.63-.91,5.44,0,.29-.16.34-.48.29-2.11-.37-4.22-.72-6.33-1.07Z" transform="translate(0 0)"/></g><g id="b03d5049-1e0c-440c-9a3f-70650c59b1ee" data-name="Calque 1"><text class="aae9c2b2-8171-4d7a-883e-ab89bd77b9bc" transform="translate(182.88 115.08) rotate(8.85)">I hate bugs!</text><path class="a60dc250-faff-41e1-a31e-e7a1ffee633a" d="M252.92,96.77a22.77,22.77,0,0,0,3-11.81c0-9.92-6.57-18.93-12.61-19.83l-42.23-6.26L200.74,120l42.35,6.69c6.32,1,13.27-6.3,13.3-16.64a29.14,29.14,0,0,0-3.47-13.3Zm-7.51,12.12a3.33,3.33,0,0,1-4,3.29l-.44-.07-25.24-3.93.16-33.1,25.2,3.79a4.43,4.43,0,0,1,3.81,4.07v2.22a3.44,3.44,0,0,1-4,3.56l-.44-.07-20.85-3.17-.05,9.45,9.68,6.1,12.38,1.91c2.11.33,3.82,2.07,3.82,3.87v2.08Z" transform="translate(0 0)"/><path class="a6276dab-9758-49ee-a617-e1ef25057773" d="M186.88,82.28l30.51,4.65-.07,16-30.54-4.73Z" transform="translate(0 0)"/><path class="a6276dab-9758-49ee-a617-e1ef25057773" d="M162,69.68l22.78,10.13-.12,20,7.33,1.14-.1,17.7-40.14-6.34.07-9,10-2.93Z" transform="translate(0 0)"/><path class="a6276dab-9758-49ee-a617-e1ef25057773" d="M217.45,75.32c0-6.88-5.17-13.4-12.13-15.82L135.23,49.1l-.06,7.55,55.31,24.59,26.92,4.1Z" transform="translate(0 0)"/><path class="f10b6aa1-66aa-417d-9eb6-1493ecaa68b1" d="M190.21,129.08l20.53,3.27,0-6.58-20.52-3.25,0-3.87L211.56,122l0-6.58-28.69-4.5-.17,27.39,29.36,4.73,0-6.59L190.19,133Z" transform="translate(0 0)"/><path class="f10b6aa1-66aa-417d-9eb6-1493ecaa68b1" d="M154.21,133.69l.16-20.74,16.56,2.61a2.39,2.39,0,0,1,2,2.21l-.13,18.92,7.8,1.26.11-18.42c0-4.93-4.26-9.6-9.59-10.44l-24-3.77-.22,27.19Z" transform="translate(0 0)"/><path class="f10b6aa1-66aa-417d-9eb6-1493ecaa68b1" d="M241.1,120.06l-16.92-2.65c-5.57-.87-10.14,2.59-10.16,7.7l0,8.9c0,5.12,4.51,10,10.08,10.93L241,147.67c5.62.91,10.23-2.56,10.24-7.71l0-9C251.29,125.87,246.7,120.94,241.1,120.06Zm2.28,18.88a2.29,2.29,0,0,1-2.86,2.16l-15.92-2.55a3.32,3.32,0,0,1-2.83-3.06l0-9.38a2.3,2.3,0,0,1,2.85-2.16l15.91,2.52a3.31,3.31,0,0,1,2.84,3.06l0,9.41Z" transform="translate(0 0)"/></g></svg>