<svg id="f22b85c7-4dfa-41a5-adec-a2f260c60895" data-name="b6ddcd02-f928-4e67-9a53-31319260ed2a" xmlns="http://www.w3.org/2000/svg" xmlns:xlink="http://www.w3.org/1999/xlink" viewBox="0 0 88.6 232.52"><defs><style>.b495ea7a-c6e3-493a-b07a-96d23140d4fa,.f2955109-2c21-4f2c-82a0-7595f4355e6c{fill:#211c1d;}.bbe636a9-f939-45ce-ad63-e55d60686a3b{opacity:0.1;}.a61081f8-2cba-44be-8d9f-8654a45be72f{fill:#808094;}.a9cbe4a2-167c-4cad-b6b2-f535776b6cde{fill:#6d6e6f;}.aa1f1d7e-cfa3-48e8-a495-bc9b25c82ffa{fill:url(#e1b64092-8682-4662-90d4-21d342d5f405);}.f2955109-2c21-4f2c-82a0-7595f4355e6c{opacity:0.3;}.a6eff663-9676-4941-8614-819064bb7534,.f2955109-2c21-4f2c-82a0-7595f4355e6c,.f3c81ab6-4322-4ad3-80ab-9c6b0e3d8163{isolation:isolate;}.f3c81ab6-4322-4ad3-80ab-9c6b0e3d8163{opacity:0.15;fill:url(#b808d217-b6ae-4954-8d2a-a116c902ec01);}.a6eff663-9676-4941-8614-819064bb7534{opacity:0.4;fill:url(#a84bdc5a-59b5-43c1-9f71-ce1856e8b898);}.eafe049d-597d-469f-b459-bd61ca9238d3{fill:#b7151d;}.e995bd1e-3d62-44a0-86b9-b566d656dfd2{fill:#00baff;}.bbe4102f-c778-4f53-a037-3331df2e14e9{fill:#ffdba1;}.bc65b8cf-6e0f-4e36-b36a-9972c5d18c8b{fill:#ff8200;}</style><linearGradient id="e1b64092-8682-4662-90d4-21d342d5f405" x1="-747.89" y1="-859.92" x2="-768.84" y2="-838.97" gradientTransform="matrix(0, -1, -1, 0, -805.63, -714.58)" gradientUnits="userSpaceOnUse"><stop offset="0" stop-color="#a4a5a9"/><stop offset="1" stop-color="#e6e6e7"/></linearGradient><linearGradient id="b808d217-b6ae-4954-8d2a-a116c902ec01" x1="-768.8" y1="-859.91" x2="-747.92" y2="-839.04" gradientTransform="matrix(0, -1, -1, 0, -805.63, -714.58)" gradientUnits="userSpaceOnUse"><stop offset="0" stop-color="#211c1d" stop-opacity="0"/><stop offset="0.04" stop-color="#211c1d" stop-opacity="0.09"/><stop offset="0.5" stop-color="#211c1d"/><stop offset="0.95" stop-color="#211c1d" stop-opacity="0.09"/><stop offset="1" stop-color="#211c1d" stop-opacity="0"/></linearGradient><linearGradient id="a84bdc5a-59b5-43c1-9f71-ce1856e8b898" x1="-4368.71" y1="3200.34" x2="-4347.83" y2="3221.23" gradientTransform="matrix(0, 1, 1, 0, -3166.92, 4402.08)" gradientUnits="userSpaceOnUse"><stop offset="0" stop-color="#fff" stop-opacity="0"/><stop offset="0.5" stop-color="#fff"/><stop offset="1" stop-color="#fff" stop-opacity="0"/></linearGradient></defs><circle class="b495ea7a-c6e3-493a-b07a-96d23140d4fa" cx="43.8" cy="43.8" r="43.8"/><g class="bbe636a9-f939-45ce-ad63-e55d60686a3b"><path class="a61081f8-2cba-44be-8d9f-8654a45be72f" d="M43.8,3.2l-8.9,8.6h4.3v9.8h9.1V11.8h4.3ZM15.1,15.1l-.2,12.4L18,24.4l7,7L31.4,25l-7-7,3.1-3.1ZM3.2,43.8l8.6,8.9V48.4h9.8V39.3H11.8V35ZM15.1,72.5l12.4.2-3.1-3.1,7-7L25,56.2l-7,7-3.1-3.1ZM43.8,84.4l8.9-8.6H48.4V66H39.3v9.8H35ZM72.5,72.5l.2-12.4-3.1,3.1-7-7-6.4,6.4,7,7-3.1,3.1ZM84.4,43.8l-8.6-8.9v4.3H66v9.1h9.8v4.3ZM72.5,15.1l-12.4-.2L63.2,18l-7,7,6.4,6.4,7-7,3.1,3.1Z" transform="translate(0 0)"/></g><path class="a9cbe4a2-167c-4cad-b6b2-f535776b6cde" d="M44.3,0a43.81,43.81,0,0,1,0,87.6h.5A43.8,43.8,0,0,0,44.8,0Z" transform="translate(0 0)"/><circle class="aa1f1d7e-cfa3-48e8-a495-bc9b25c82ffa" cx="43.8" cy="43.8" r="14.8"/><circle class="f2955109-2c21-4f2c-82a0-7595f4355e6c" cx="43.8" cy="43.8" r="11.8"/><path class="f3c81ab6-4322-4ad3-80ab-9c6b0e3d8163" d="M29.1,43.8A14.75,14.75,0,1,0,43.9,29,14.77,14.77,0,0,0,29.1,43.8Zm28.7.2A14.15,14.15,0,1,1,43.7,29.8,14.17,14.17,0,0,1,57.8,44Z" transform="translate(0 0)"/><path class="a6eff663-9676-4941-8614-819064bb7534" d="M58.6,43.8A14.75,14.75,0,1,0,43.9,58.6,14.75,14.75,0,0,0,58.6,43.8Zm-28.7-.2a14.1,14.1,0,1,1,28.2,0A14,14,0,0,1,44,57.7h0A14.08,14.08,0,0,1,29.9,43.6Z" transform="translate(0 0)"/><circle class="eafe049d-597d-469f-b459-bd61ca9238d3" cx="32.8" cy="44" r="20.5"/><circle class="eafe049d-597d-469f-b459-bd61ca9238d3" cx="27.2" cy="141.1" r="17.5"/><circle class="e995bd1e-3d62-44a0-86b9-b566d656dfd2" cx="27.2" cy="141.2" r="13.9"/><circle class="eafe049d-597d-469f-b459-bd61ca9238d3" cx="61.4" cy="196.3" r="17.4"/><circle class="bbe4102f-c778-4f53-a037-3331df2e14e9" cx="61.4" cy="196.4" r="13.9"/><circle class="eafe049d-597d-469f-b459-bd61ca9238d3" cx="27.4" cy="178.1" r="17.4"/><circle class="bc65b8cf-6e0f-4e36-b36a-9972c5d18c8b" cx="27.4" cy="178.2" r="13.9"/><circle class="eafe049d-597d-469f-b459-bd61ca9238d3" cx="61.4" cy="122" r="17.5"/><circle class="e995bd1e-3d62-44a0-86b9-b566d656dfd2" cx="61.4" cy="122.1" r="13.9"/><circle class="eafe049d-597d-469f-b459-bd61ca9238d3" cx="61.1" cy="159.3" r="17.5"/><circle class="bc65b8cf-6e0f-4e36-b36a-9972c5d18c8b" cx="61.1" cy="159.5" r="13.9"/><circle class="eafe049d-597d-469f-b459-bd61ca9238d3" cx="27.43" cy="215.02" r="17.5"/><circle class="bbe4102f-c778-4f53-a037-3331df2e14e9" cx="27.4" cy="215.2" r="13.9"/></svg>