<svg id="a6c49da1-3129-405b-ba0a-4b3a5f46e3a4" data-name="Calque 1" xmlns="http://www.w3.org/2000/svg" xmlns:xlink="http://www.w3.org/1999/xlink" viewBox="0 0 470.58 67.66"><defs><style>.b6705cc1-3ce7-48a5-96ed-9f6a5a9d3b04{stroke:#9def48;stroke-miterlimit:10;fill:url(#b6a9cc05-909d-4f3d-ab8f-c5352aa6fbb3);}.a08b5f01-d08d-498e-8ff5-fbd8ec55feec{fill:#9def48;}</style><linearGradient id="b6a9cc05-909d-4f3d-ab8f-c5352aa6fbb3" x1="0.5" y1="33.83" x2="470.08" y2="33.83" gradientUnits="userSpaceOnUse"><stop offset="0" stop-color="#032c02"/><stop offset="1" stop-color="#207a09"/></linearGradient></defs><polygon class="b6705cc1-3ce7-48a5-96ed-9f6a5a9d3b04" points="461.77 6.24 158.35 6.04 150.44 0.5 108.7 0.5 102.57 6.04 0.5 6.04 0.5 59.84 8.02 67.16 42.83 67.16 50.94 59.84 470.08 59.84 470.08 16.13 461.77 6.24"/><path class="a08b5f01-d08d-498e-8ff5-fbd8ec55feec" d="M63,45.07H58.25a17.09,17.09,0,0,1-4-9.94H50.5V31.19h3.73a17.06,17.06,0,0,1,4-9.93h24l-2.27,3.95H60.37a17,17,0,0,0-2.14,6H74.67v3.94H58.23a17,17,0,0,0,2.14,6H63Z" transform="translate(0 0)"/><path class="a08b5f01-d08d-498e-8ff5-fbd8ec55feec" d="M89.48,45.07h-4V24.63l4-3.95Z" transform="translate(0 0)"/><path class="a08b5f01-d08d-498e-8ff5-fbd8ec55feec" d="M100.68,25.21a16,16,0,0,0-2.27,8,16,16,0,0,0,2.27,7.95h2.62v4H98.56a17.66,17.66,0,0,1-4.1-11.9,17.63,17.63,0,0,1,4.1-11.91H122a17.64,17.64,0,0,1,4.11,11.91A17.66,17.66,0,0,1,122,45.07h-4.74v-4h2.64a16.07,16.07,0,0,0,2.25-7.95,16,16,0,0,0-2.25-8Z" transform="translate(0 0)"/><path class="a08b5f01-d08d-498e-8ff5-fbd8ec55feec" d="M136,38.45l-4.16,6.62H127l15.12-23.81h4.55l15,23.81h-4.87l-4.12-6.62Zm14.15-3.94-5.81-9.31-5.86,9.31Z" transform="translate(0 0)"/><path class="a08b5f01-d08d-498e-8ff5-fbd8ec55feec" d="M168.9,41.12h17.89l2.28,4H165V24.63l4-3.95Z" transform="translate(0 0)"/><path class="a08b5f01-d08d-498e-8ff5-fbd8ec55feec" d="M237.58,35.13a17.09,17.09,0,0,1-4,9.94H210.1a17.14,17.14,0,0,1-4-9.94h-3.74V31.19h3.74a17.11,17.11,0,0,1,4-9.93h23.46a17.06,17.06,0,0,1,4,10l-1.71,1v2Zm-27.49-3.94h23.49a17.18,17.18,0,0,0-2.13-6H212.23A16.81,16.81,0,0,0,210.09,31.19Zm0,3.94a16.85,16.85,0,0,0,2.14,6h19.22a17.22,17.22,0,0,0,2.13-6Z" transform="translate(0 0)"/><path class="a08b5f01-d08d-498e-8ff5-fbd8ec55feec" d="M247.12,41.12h19.23a16,16,0,0,0,2.26-7.95,16.09,16.09,0,0,0-2.26-8h-2.64V21.26h4.75a17.72,17.72,0,0,1,4.1,11.91,17.67,17.67,0,0,1-4.1,11.9H245a17.67,17.67,0,0,1-4.1-11.9A17.72,17.72,0,0,1,245,21.26h4.75v3.95h-2.63a16,16,0,0,0-2.27,8A15.94,15.94,0,0,0,247.12,41.12Z" transform="translate(0 0)"/><path class="a08b5f01-d08d-498e-8ff5-fbd8ec55feec" d="M302.34,41.12H305a17.22,17.22,0,0,0,2.13-6h-23.5a17.08,17.08,0,0,0,2.15,6h2.62v4h-4.75a17.15,17.15,0,0,1-4-9.94h-3.73V31.19h3.73a17.12,17.12,0,0,1,4-9.93h23.46a17.13,17.13,0,0,1,4,10l-1.71,1v2l1.71,1a17.15,17.15,0,0,1-4,9.94h-4.75Zm-18.73-9.93h23.5a17.18,17.18,0,0,0-2.13-6H285.76A17,17,0,0,0,283.61,31.19Z" transform="translate(0 0)"/><path class="a08b5f01-d08d-498e-8ff5-fbd8ec55feec" d="M320.65,25.21a16,16,0,0,0-2.27,8,16,16,0,0,0,2.27,7.95h2.63v4h-4.75a17.66,17.66,0,0,1-4.1-11.9,17.63,17.63,0,0,1,4.1-11.91H342a17.68,17.68,0,0,1,4.1,11.91,17.71,17.71,0,0,1-4.1,11.9h-4.75v-4h2.64a16.07,16.07,0,0,0,2.25-7.95,16,16,0,0,0-2.25-8Z" transform="translate(0 0)"/><path class="a08b5f01-d08d-498e-8ff5-fbd8ec55feec" d="M365.59,25.21a16,16,0,0,0-2.27,8,16,16,0,0,0,2.27,7.95h2.63v4h-4.75a17.71,17.71,0,0,1-4.1-11.9,17.68,17.68,0,0,1,4.1-11.91h23.46A17.68,17.68,0,0,1,391,33.17a17.71,17.71,0,0,1-4.1,11.9h-4.75v-4h2.64a16.09,16.09,0,0,0,2.26-7.95,16,16,0,0,0-2.26-8Z" transform="translate(0 0)"/><path class="a08b5f01-d08d-498e-8ff5-fbd8ec55feec" d="M418.52,35.13H402.08a17,17,0,0,0,2.14,6h19.56l2.28,4h-24a17.09,17.09,0,0,1-4-9.94h-3.73V31.19h3.73a17.06,17.06,0,0,1,4-9.93h24l-2.28,3.95H404.22a17,17,0,0,0-2.14,6h16.44Z" transform="translate(0 0)"/><path class="a08b5f01-d08d-498e-8ff5-fbd8ec55feec" d="M455.27,45.07H431.82a17.66,17.66,0,0,1-4.1-11.9,17.63,17.63,0,0,1,4.1-11.91h23.45a17.63,17.63,0,0,1,4.1,11.91A17.66,17.66,0,0,1,455.27,45.07Zm-2.1-4a16.07,16.07,0,0,0,2.25-7.95,16,16,0,0,0-2.25-8H433.94a15.85,15.85,0,0,0-2.27,8,15.9,15.9,0,0,0,2.27,7.95Z" transform="translate(0 0)"/></svg>