<svg xmlns="http://www.w3.org/2000/svg" xmlns:xlink="http://www.w3.org/1999/xlink" viewBox="0 0 747.48 822.76"><defs><radialGradient id="fbd008c0-6d79-41d4-9427-ac4606ee0273" cx="121.61" cy="382.1" r="5.66" gradientTransform="matrix(1 0 0 .6 0 152.84)" xlink:href="#ed75704e-9fd3-4a13-95b2-1efcace4d6fe"/><radialGradient id="b5db0768-34ca-4d8d-8b73-405f46f5f82a" cx="217.55" cy="416.02" r="5.66" xlink:href="#bd506192-5e09-4ad7-a170-bfb8adc6b7df"/><radialGradient id="bea9024e-9c34-4db1-b0b6-abfe1c9f0302" cx="195.83" cy="370.99" r="11.47" xlink:href="#bd506192-5e09-4ad7-a170-bfb8adc6b7df"/><radialGradient id="ed75704e-9fd3-4a13-95b2-1efcace4d6fe" cx="92.36" cy="393.88" r="5.66" gradientTransform="matrix(1 0 0 .6 0 157.55)" gradientUnits="userSpaceOnUse"><stop offset="0" stop-color="#0000ef"/><stop offset=".15" stop-color="#0000e9"/><stop offset=".34" stop-color="#0101d9"/><stop offset=".56" stop-color="#0101be"/><stop offset=".79" stop-color="#02029a"/><stop offset="1" stop-color="#020282"/></radialGradient><radialGradient id="f4660d02-792f-4c44-a50f-52bfd60d63e4" cx="114.61" cy="393.88" r="5.66" xlink:href="#ed75704e-9fd3-4a13-95b2-1efcace4d6fe"/><radialGradient id="b39a005f-b380-4778-afbc-e4e00094b7b9" cx="133.17" cy="400.04" r="5.66" gradientTransform="matrix(1 0 0 .6 0 160.02)" xlink:href="#ed75704e-9fd3-4a13-95b2-1efcace4d6fe"/><radialGradient id="a25796b2-418b-4bfa-9610-52fdacee8df1" cx="139.21" cy="387.78" r="5.66" gradientTransform="matrix(1 0 0 .6 0 155.11)" xlink:href="#ed75704e-9fd3-4a13-95b2-1efcace4d6fe"/><radialGradient id="bd506192-5e09-4ad7-a170-bfb8adc6b7df" cx="65.88" cy="348.77" r="11.47" gradientUnits="userSpaceOnUse"><stop offset="0" stop-color="#fd6d66"/><stop offset=".78" stop-color="#b50a03"/></radialGradient><radialGradient id="ab39afcf-9b60-4395-93ce-9473f5903d49" cx="100.32" cy="382.53" r="5.66" gradientTransform="matrix(1 0 0 .6 0 153.01)" xlink:href="#ed75704e-9fd3-4a13-95b2-1efcace4d6fe"/><radialGradient id="af627d43-144f-4779-94d5-f0ebb6c2f12c" cx="225.51" cy="404.67" r="5.66" xlink:href="#bd506192-5e09-4ad7-a170-bfb8adc6b7df"/><radialGradient id="e95894c4-c687-4bd2-8cf4-ef375666d82d" cx="246.79" cy="404.24" r="5.66" xlink:href="#bd506192-5e09-4ad7-a170-bfb8adc6b7df"/><radialGradient id="fd8901f1-e50a-409a-9070-7847f5f29e6c" cx="264.4" cy="409.93" r="5.66" xlink:href="#bd506192-5e09-4ad7-a170-bfb8adc6b7df"/><radialGradient id="a518e964-629b-4353-882b-5077317325bd" cx="258.36" cy="422.19" r="5.66" xlink:href="#bd506192-5e09-4ad7-a170-bfb8adc6b7df"/><radialGradient id="a30e9230-ddf3-4b0b-be6c-418023b5aa18" cx="239.79" cy="416.02" r="5.66" xlink:href="#bd506192-5e09-4ad7-a170-bfb8adc6b7df"/><style>.a8a6ab79-d0dd-43b4-9582-0676a9a8d702{fill:#373735}.b7be1aac-4177-463f-9a1a-e4498992a567{fill:#121211}.a49b50ba-f16a-4b16-831d-cac03b13ce46,.b1c2e568-88ab-4abc-8411-dfc9f473dda1,.b5b9370d-0c63-433b-b036-49568b6a826f,.b7be1aac-4177-463f-9a1a-e4498992a567,.eff19bcb-8952-4bfc-a1bb-c88351f37bd1,.f6b242b9-9d07-433e-84f9-047a56661591{stroke:#b5b5b5}.a49b50ba-f16a-4b16-831d-cac03b13ce46,.af5f942d-97fd-4362-83cb-ea4363fcb656,.b1c2e568-88ab-4abc-8411-dfc9f473dda1,.b5b9370d-0c63-433b-b036-49568b6a826f,.b67984ef-a900-4bf3-bc7f-c8329c67fa1a,.b7be1aac-4177-463f-9a1a-e4498992a567,.b8b47270-1e3c-4d58-bbd6-9314275192b4,.eff19bcb-8952-4bfc-a1bb-c88351f37bd1,.f6b242b9-9d07-433e-84f9-047a56661591{stroke-miterlimit:10}.a49b50ba-f16a-4b16-831d-cac03b13ce46,.b1c2e568-88ab-4abc-8411-dfc9f473dda1,.b5b9370d-0c63-433b-b036-49568b6a826f,.b67984ef-a900-4bf3-bc7f-c8329c67fa1a,.b7be1aac-4177-463f-9a1a-e4498992a567,.eff19bcb-8952-4bfc-a1bb-c88351f37bd1{stroke-width:.5px}.b8b47270-1e3c-4d58-bbd6-9314275192b4{fill:#443840}.b67984ef-a900-4bf3-bc7f-c8329c67fa1a,.b8b47270-1e3c-4d58-bbd6-9314275192b4{stroke:#090000}.b8b47270-1e3c-4d58-bbd6-9314275192b4{stroke-width:.75px}.b67984ef-a900-4bf3-bc7f-c8329c67fa1a{fill:#6b0c05}.bcb83e6c-5542-460f-8881-b88b34f82704{fill:#86382f}.af5f942d-97fd-4362-83cb-ea4363fcb656{stroke:#373737}.a49b50ba-f16a-4b16-831d-cac03b13ce46{fill:#dc6e05}.b5b9370d-0c63-433b-b036-49568b6a826f{fill:#12e600}.b1c2e568-88ab-4abc-8411-dfc9f473dda1{fill:#0b47ce}.ae7fe535-5c01-4371-973b-053497958d09,.eff19bcb-8952-4bfc-a1bb-c88351f37bd1{fill:#282826}.eb8c65ad-d684-4142-904b-957ac38ee83e{fill:#ae7a82}.e81a1383-41dc-4b54-a7d1-a426181ac524{fill:url(#bd506192-5e09-4ad7-a170-bfb8adc6b7df)}.a81b304f-e2c9-4a77-a1f6-d7bdf5657484{fill:url(#bea9024e-9c34-4db1-b0b6-abfe1c9f0302)}.b8115ab5-3bfa-4072-9cc9-ea6f24fbb93b{fill:#0000ef}.a09f2227-f948-4a29-8e3d-4424baf17ee7{fill:#930303}.bb332ebb-76c3-4d95-9293-466084752137{fill:#e7e7e7}.a101c7df-a0ac-46b3-a7f3-4a9fcfd0daad{fill:#2c2b29}.be6daaa6-183a-4949-b54d-a6d88dc97716{fill:#1b1b1b}.e1b40e82-f620-44bd-bbcc-41a3687f87ec{fill:#037cce}</style></defs><g id="af964b64-a5eb-4445-8146-0e40c146a200" data-name="Calque 1"><path id="a3155160-a38c-4c26-b0dc-df066c5d43ae" data-name="ombre" style="opacity:.5;fill:#373735" d="m453 589.31 21.52-5.91h11.86l1.59 2.96 237.36 43.3h11.08l11.07 31.39-46.41 37.71-46.42 13.19-8.18-1.32.27-1.85-13.98-2.63-83.61 27.95-73.32 51.57-22.83 6.82-7.76-1.16v-2.63l-16.09-3.03-129.99 34.37L453 589.31z"/><g id="b766a24f-58dd-435e-9892-3ac24c4b6e11" data-name="bottom"><path class="a8a6ab79-d0dd-43b4-9582-0676a9a8d702" d="m36.97 455.08 224.91 39.62v4.35l25.71 6.13-.39 311.34-248.24-47.27-1.99-314.17z"/><path class="b7be1aac-4177-463f-9a1a-e4498992a567" d="m202 526.54-78.38-13.74c-3 .19-4.26 3.56-4.26 3.56l.2 85c.69 2.18 3.86 5 3.86 5l74.27 13.46c5.14.49 7.52-5.25 7.52-5.25v-82.69a7.12 7.12 0 0 0-3.21-5.34zm-49.9 22.55-18.69-3.46v-20l2.27-1.88 18.1 3.07-1.78 2.69zm31.45 6.13-18.69-3.46v-20l2.27-1.87 18.1 3.06-1.78 2.67z"/><path class="b8b47270-1e3c-4d58-bbd6-9314275192b4" d="m135.68 523.77-2.27 1.88v19.98l18.69 3.46-.1-19.58 1.78-2.67-18.1-3.07zM167.13 529.9l-2.27 1.88v19.98l18.69 3.46-.1-19.58 1.78-2.67-18.1-3.07z"/><path class="b67984ef-a900-4bf3-bc7f-c8329c67fa1a" d="M141.12 543.55V530.7l8.01 1.78v12.56l-8.01-1.49zM172.18 549.39v-12.86l8.01 1.78v12.56l-8.01-1.48z"/><path d="M136.21 543.68v-15.22l2.04.39v15.16l-2.04-.33zM167.66 549.22v-15.23l2.04.4v15.16l-2.04-.33z"/><path class="bcb83e6c-5542-460f-8881-b88b34f82704" d="M141.38 531.21v-.35l7.47 1.8.01.43-7.48-1.88zM172.44 537.14v-.29l7.46 1.64.02.35-7.48-1.7z"/><circle cx="193.37" cy="575.37" r="4.25" style="fill:#8b8b8b;stroke-width:.75px;stroke:#090000;stroke-miterlimit:10"/><path class="af5f942d-97fd-4362-83cb-ea4363fcb656" d="M137.26 599.24v-11.28l11.97 2.18v11.3l-11.97-2.2zM168.52 604.77V593.5l11.96 2.17v10.88l-11.96-1.78z"/></g><g id="a0583f0d-e1b4-401e-a3a7-bc292c87a484" data-name="t molding"><path class="f6b242b9-9d07-433e-84f9-047a56661591" d="m11.46 450.59-.79-39.76L1 407.66v45.1l27.89 5.54c.59 103.55 1 207.6 1.58 311.15a6.18 6.18 0 0 0 3.53 2.19 12.58 12.58 0 0 0 5 0l-2-316.56zM272.36 497v-41.27l-10.28-1.19-.2 44.51 25.71 6.13s-1.51 313.85 0 315.69 8.77 1.32 8.77 1.32l.93-319.91zM79.7 346.94l-8.15-1.3 16.26-218.56 9.03 1.51L79.7 346.94zM330.22 389.37l9.1 1.28 18.49-224.31h-26.37l-.26-90.92-10.06-1.84v94.84l6.03 1.09h20.28l-17.21 219.86z"/><path class="f6b242b9-9d07-433e-84f9-047a56661591" d="M88.49 127.19s-28.17-.35-29.11-.85c0-31.21.06-62.83 0-94l9.36 2.64.48 89.02z"/><g id="a4f484d3-3960-4845-ae0e-61dcb478dca5" data-name="clair"><path class="f6b242b9-9d07-433e-84f9-047a56661591" d="m.98 407.66 9.69 3.17 68.31-64.06-8.11-1.94L.98 407.66zM262.08 454.54l10.28 1.19 66.96-65.87-8.62-1.6-68.62 66.28zM112.54.52 59.4 32.3l9.36 2.64 52.58-31.12 2.74-1.62-2.58-.36-8.96-1.32zM384.71 41.14l-11.21-.8-52.38 33.24 10.06 1.84 53.53-34.28z"/></g></g><g id="aac13352-ee07-4fff-85c9-702aa82107d5" data-name="side"><path class="b7be1aac-4177-463f-9a1a-e4498992a567" d="m454.11 309.16.63-159.63-70.03-108.39-53.53 34.28.26 90.92h26.37l-18.49 224.31-66.96 65.08V497l24.93 5.28-.93 319.91 8.25-6.32 149.64-543.7-.21 21.51-142.09 516.55-1.61 1.24 6.94-5.32 136.83-496.99zM325.04 799.67l-7.76 6.48 11.99-9.2 124.7-453.24.05-12.13-128.98 468.09zM336.41 791.47l-1.32 1.02 6.86-5.27 111.8-407.64v21.25l.22-57.12-.22 24-117.34 423.76zM343.97 785.67l108.59-83.28 1.18-299.84L348.38 782.3l-4.41 3.37z"/><path style="fill:#bf0000;stroke-width:.5px;stroke-miterlimit:10;stroke:#b5b5b5" d="m304.61 815.87 5.73-4.4-5.73 4.4z"/><path style="stroke-width:.5px;stroke-miterlimit:10;stroke:#b5b5b5" d="m454.04 293.68.21-21.51-149.64 543.7 5.73-4.4 1.61-1.24 142.09-516.55z"/><path class="a49b50ba-f16a-4b16-831d-cac03b13ce46" d="M454.11 331.26v-22.1l-.09 22.42.09-.32zM317.28 806.15z"/><path style="fill:#ff2100;stroke-width:.5px;stroke-miterlimit:10;stroke:#b5b5b5" d="m454.02 331.58.09-22.42-136.83 496.99 7.76-6.48 128.98-468.09z"/><path class="b5b9370d-0c63-433b-b036-49568b6a826f" d="M453.97 343.71zM329.27 796.95l5.82-4.46-5.82 4.46z"/><path style="fill:#00a3d7;stroke-width:.5px;stroke-miterlimit:10;stroke:#b5b5b5" d="m335.09 792.49 1.32-1.02 117.34-423.76.22-24-124.7 453.24 5.82-4.46z"/><path class="b1c2e568-88ab-4abc-8411-dfc9f473dda1" d="m341.95 787.22 2.02-1.55-2.02 1.55zM453.75 402.52v-1.69l-.01 1.72.01-.03z"/><path style="fill:#1faa33;stroke-width:.5px;stroke-miterlimit:10;stroke:#b5b5b5" d="m341.95 787.22 2.02-1.55 4.41-3.37 105.36-379.75.01-1.72v-21.25l-111.8 407.64z"/></g><g id="b3e83c8d-d758-4f3b-9920-39b9d7223172" data-name="panel"><path class="eff19bcb-8952-4bfc-a1bb-c88351f37bd1" d="m11.46 450.59 250.42 44.11.2-40.16-251.41-43.71.79 39.76z"/><path class="a8a6ab79-d0dd-43b4-9582-0676a9a8d702" d="m80.35 345.73-69.68 65.1 251.41 43.71 68.62-66.28-250.35-42.53z"/></g><g id="e4f8095e-0494-4870-9fe5-ab4df9d0f813" data-name="ecran"><path class="eff19bcb-8952-4bfc-a1bb-c88351f37bd1" d="M96.84 129.36 79.7 347.72l250.52 42.43L347.82 168zm224.28 67.76c0 .2-.29.32-.48.49l-10.43 144.83a35.43 35.43 0 0 1-4.3 3.78l1.4.29v10.7s-1.4 4.75-11.08 2.64c-11.19-2.44-178.55-31.91-178.55-31.91l8.72-6.78v-1.39s-2.46.52-6-7l-12.48 2.77h-4l11.34-158.77s4-6.85 10.81-6.59 191.16 30.59 191.16 30.59 6.17 1.07 3.89 16.35z"/><path d="M317.28 180S133 149.66 126.12 149.4s-10.81 6.6-10.81 6.6l-11.74 160.08h4.35l12.29-2.68c-.1-.23-.74-1.57-.85-1.8L131 166.54s2.11-5.54 7.12-7.38l177.49 27.16a20.77 20.77 0 0 1 5.11 9.76l-.05.75c.19-.17.62.66.66.47 3.23-14.06-4.05-17.3-4.05-17.3z" style="fill:#151312"/><path d="m125.32 320-8.56 8s164.63 29.3 178.61 32.24c10.36 2.17 14.43-3.58 14.43-3.58l.61-7.37.39-7.71-4.89 3.84a20.85 20.85 0 0 1-7.73 3.87z" style="fill:#555353"/><path d="M319.5 197.81c.45-.36.83-.69 1.14-1l.66-.52a20.31 20.31 0 0 0-5.72-10l-177.49-27.13c-5 1.84-7.12 7.38-7.12 7.38L119.36 311.6l.32.66c3.54 7.52 6.28 8 6.28 8l.44.08 171.78 28.93a20.85 20.85 0 0 0 7.73-3.87c2.57-1.91 4.89-3.84 4.89-3.84l10.5-145.29c-.44.46-1.05.96-1.8 1.54z" style="fill:#008aa6"/></g><g id="ef55c247-635f-446f-badd-4fa05c457f22" data-name="top"><path id="b1d0587c-2e2c-405c-b0b1-6b3c1af40e08" data-name="marquee" class="eff19bcb-8952-4bfc-a1bb-c88351f37bd1" d="m69.22 124.02 251.47 39.03.43-89.47L68.76 34.94l.46 89.08z"/><path style="stroke-miterlimit:10;stroke:#b5b5b5;fill:#373735" d="m129.81 3.16-5.73-.96-55.32 32.74 252.36 38.64 52.38-33.24L129.81 3.16z"/></g><g id="afe164d0-8723-48fd-bc05-a3f75a5fa01b" data-name="stickp1"><path class="ae7fe535-5c01-4371-973b-053497958d09" d="M68.92 377.27v5.16H62.4v-5.16c-5.06.64-8.77 2.7-8.77 5.16 0 3 5.38 5.35 12 5.35s12-2.39 12-5.35c.06-2.43-3.63-4.52-8.71-5.16z"/><path class="eb8c65ad-d684-4142-904b-957ac38ee83e" d="M68.92 377.27v-17.78a12.18 12.18 0 0 1-3 .39 12.4 12.4 0 0 1-3.48-.49v17.88a26.67 26.67 0 0 1 6.52 0z"/><path class="eb8c65ad-d684-4142-904b-957ac38ee83e" d="M68.92 382.43v-5.16a26.67 26.67 0 0 0-6.52 0v5.16z"/><path class="e81a1383-41dc-4b54-a7d1-a426181ac524" d="M68.92 358.89v.6a11.24 11.24 0 0 0 8.77-10.72c0-6.14-5.29-11.11-11.81-11.11s-11.82 5-11.82 11.11a11.22 11.22 0 0 0 8.34 10.62v-.5z"/><path class="eb8c65ad-d684-4142-904b-957ac38ee83e" d="M68.92 359.49v-.6H62.4v.5a12.4 12.4 0 0 0 3.48.49 12.18 12.18 0 0 0 3.04-.39z"/><path class="e81a1383-41dc-4b54-a7d1-a426181ac524" d="M68.92 359.49v-.6H62.4v.5a12.4 12.4 0 0 0 3.48.49 12.18 12.18 0 0 0 3.04-.39z"/></g><g id="e665eaa3-ab69-4938-9fc6-f0d8968bca0e" data-name="stickp2"><path class="ae7fe535-5c01-4371-973b-053497958d09" d="M198.88 399.49v5.16h-6.53v-5.16c-5 .64-8.77 2.7-8.77 5.16 0 3 5.39 5.35 12 5.35s12-2.39 12-5.35c.07-2.46-3.64-4.52-8.7-5.16z"/><path class="eb8c65ad-d684-4142-904b-957ac38ee83e" d="M198.88 399.49v-17.78a12.2 12.2 0 0 1-3 .39 12.83 12.83 0 0 1-3.48-.49v17.88a26.75 26.75 0 0 1 6.53 0z"/><path class="eb8c65ad-d684-4142-904b-957ac38ee83e" d="M198.88 404.65v-5.16a26.75 26.75 0 0 0-6.53 0v5.16z"/><path class="a81b304f-e2c9-4a77-a1f6-d7bdf5657484" d="M198.88 381.11v.6a11.24 11.24 0 0 0 8.77-10.71c0-6.14-5.29-11.11-11.82-11.11S184 364.85 184 371a11.22 11.22 0 0 0 8.34 10.62v-.5z"/><path class="eb8c65ad-d684-4142-904b-957ac38ee83e" d="M198.88 381.71v-.6h-6.53v.5a12.83 12.83 0 0 0 3.48.49 12.2 12.2 0 0 0 3.05-.39z"/><path class="a81b304f-e2c9-4a77-a1f6-d7bdf5657484" d="M198.88 381.71v-.6h-6.53v.5a12.83 12.83 0 0 0 3.48.49 12.2 12.2 0 0 0 3.05-.39z"/></g><g id="a746643b-55f6-484e-933e-a290f243e9f7" data-name="boutons P1"><g id="b2296fdf-d899-4029-98d7-6caa63d3a089" data-name="4"><path class="b8115ab5-3bfa-4072-9cc9-ea6f24fbb93b" d="M92.54 389.14c-3.86 0-8.12 1.53-8.12 4.87 0 2.95 4.1 4.62 7.94 4.62 4.11 0 8-1.73 8-4.88-.04-2.35-3.88-4.61-7.82-4.61zm-.18 8.63c-3.86 0-7-1.74-7-3.89s3.13-3.89 7-3.89 7 1.74 7 3.89-3.14 3.89-7 3.89z"/><path d="M92.36 390c-3.86 0-7 1.74-7 3.89s3.13 3.89 7 3.89 7-1.74 7-3.89-3.14-3.89-7-3.89z" style="fill:url(#ed75704e-9fd3-4a13-95b2-1efcace4d6fe)"/></g><g id="ee87890e-76fe-499e-abaa-41c785ac2d90" data-name="5"><path class="b8115ab5-3bfa-4072-9cc9-ea6f24fbb93b" d="M114.79 389.14c-3.86 0-8.12 1.53-8.12 4.87 0 2.95 4.1 4.62 7.94 4.62 4.11 0 8-1.73 8-4.88-.04-2.35-3.88-4.61-7.82-4.61zm-.18 8.63c-3.86 0-7-1.74-7-3.89s3.13-3.89 7-3.89 7 1.74 7 3.89-3.14 3.89-7 3.89z"/><path d="M114.61 390c-3.86 0-7 1.74-7 3.89s3.13 3.89 7 3.89 7-1.74 7-3.89-3.14-3.89-7-3.89z" style="fill:url(#f4660d02-792f-4c44-a50f-52bfd60d63e4)"/></g><g id="b9e1f9db-2e47-4fee-b3dc-b76cb57bc7ef" data-name="6"><path class="b8115ab5-3bfa-4072-9cc9-ea6f24fbb93b" d="M133.35 395.3c-3.86 0-8.13 1.53-8.13 4.87 0 3 4.11 4.62 7.95 4.62 4.1 0 8-1.73 8-4.88-.04-2.35-3.88-4.61-7.82-4.61zm-.18 8.63c-3.86 0-7-1.74-7-3.89s3.13-3.89 7-3.89 7 1.74 7 3.89-3.17 3.89-7 3.89z"/><path d="M133.17 396.15c-3.86 0-7 1.74-7 3.89s3.13 3.89 7 3.89 7-1.74 7-3.89-3.17-3.89-7-3.89z" style="fill:url(#b39a005f-b380-4778-afbc-e4e00094b7b9)"/></g><g id="b111929a-5de3-4094-bbf3-1c0d6ef8939c" data-name="3"><path class="b8115ab5-3bfa-4072-9cc9-ea6f24fbb93b" d="M139.39 383c-3.86 0-8.13 1.53-8.13 4.88 0 2.95 4.11 4.61 8 4.61 4.1 0 8-1.73 8-4.88-.09-2.31-3.93-4.61-7.87-4.61zm-.18 8.63c-3.86 0-7-1.74-7-3.89s3.13-3.89 7-3.89 7 1.75 7 3.89-3.14 3.93-7 3.93z"/><path d="M139.21 383.89c-3.86 0-7 1.75-7 3.89s3.13 3.89 7 3.89 7-1.74 7-3.89-3.14-3.89-7-3.89z" style="fill:url(#a25796b2-418b-4bfa-9610-52fdacee8df1)"/></g><g id="acfe4d50-87b6-4afe-84f3-c3cef0734fc1" data-name="2"><path class="b8115ab5-3bfa-4072-9cc9-ea6f24fbb93b" d="M121.79 377.35c-3.86 0-8.12 1.53-8.12 4.88 0 2.95 4.1 4.61 7.94 4.61 4.11 0 8-1.73 8-4.88-.04-2.34-3.88-4.61-7.82-4.61zm-.18 8.64c-3.86 0-7-1.74-7-3.89s3.13-3.89 7-3.89 7 1.74 7 3.89-3.14 3.9-7 3.9z"/><path d="M121.61 378.21c-3.86 0-7 1.74-7 3.89s3.13 3.89 7 3.89 7-1.74 7-3.89-3.14-3.89-7-3.89z" style="fill:url(#fbd008c0-6d79-41d4-9427-ac4606ee0273)"/></g><g id="b8200bfa-d948-41c5-bc69-5fb4a5224476" data-name="1"><path class="b8115ab5-3bfa-4072-9cc9-ea6f24fbb93b" d="M100.5 377.78c-3.86 0-8.13 1.53-8.13 4.88 0 2.95 4.11 4.62 7.95 4.62 4.1 0 8-1.73 8-4.88-.04-2.35-3.88-4.62-7.82-4.62zm-.18 8.64c-3.86 0-7-1.74-7-3.89s3.13-3.89 7-3.89 7 1.74 7 3.89-3.14 3.89-7 3.89z"/><path d="M100.32 378.64c-3.86 0-7 1.74-7 3.89s3.13 3.89 7 3.89 7-1.74 7-3.89-3.14-3.89-7-3.89z" style="fill:url(#ab39afcf-9b60-4395-93ce-9473f5903d49)"/></g></g><g id="ba63d070-83f0-4d61-9fc6-cdea257b4b5a" data-name="boutons P2"><g id="fbcea01f-7cd2-4cb6-8890-bd141ace37cb" data-name="1"><path class="a09f2227-f948-4a29-8e3d-4424baf17ee7" d="M225.69 399.93c-3.86 0-8.13 1.53-8.13 4.87 0 2.95 4.11 4.62 7.95 4.62 4.1 0 8-1.73 8-4.88-.04-2.35-3.88-4.61-7.82-4.61zm-.18 8.63c-3.86 0-7-1.74-7-3.89s3.13-3.89 7-3.89 7 1.74 7 3.89-3.14 3.89-7 3.89z"/><path d="M225.51 400.78c-3.86 0-7 1.74-7 3.89s3.13 3.89 7 3.89 7-1.74 7-3.89-3.14-3.89-7-3.89z" style="fill:url(#af627d43-144f-4779-94d5-f0ebb6c2f12c)"/></g><g id="ed3e2c03-75f4-4509-87ae-827f94056b92" data-name="2"><path class="a09f2227-f948-4a29-8e3d-4424baf17ee7" d="M247 399.49c-3.86 0-8.13 1.54-8.13 4.88 0 2.95 4.11 4.62 7.95 4.62 4.1 0 8-1.73 8-4.88-.07-2.35-3.91-4.62-7.82-4.62zm-.18 8.64c-3.86 0-7-1.74-7-3.89s3.13-3.89 7-3.89 7 1.74 7 3.89-3.17 3.89-7.03 3.89z"/><path d="M246.79 400.35c-3.86 0-7 1.74-7 3.89s3.13 3.89 7 3.89 7-1.74 7-3.89-3.14-3.89-7-3.89z" style="fill:url(#e95894c4-c687-4bd2-8cf4-ef375666d82d)"/></g><g id="bc4f2c64-4360-4f3d-b2e3-39722ad001d1" data-name="3"><path class="a09f2227-f948-4a29-8e3d-4424baf17ee7" d="M264.58 405.18c-3.86 0-8.12 1.53-8.12 4.88 0 2.95 4.1 4.61 7.94 4.61 4.1 0 8-1.73 8-4.88-.04-2.35-3.88-4.61-7.82-4.61zm-.18 8.64c-3.86 0-7-1.75-7-3.89s3.13-3.89 7-3.89 7 1.74 7 3.89-3.14 3.89-7 3.89z"/><path d="M264.4 406c-3.86 0-7 1.74-7 3.89s3.13 3.89 7 3.89 7-1.75 7-3.89-3.14-3.89-7-3.89z" style="fill:url(#fd8901f1-e50a-409a-9070-7847f5f29e6c)"/></g><g id="eee23443-b029-4123-8928-931e39ba39cb" data-name="4"><path class="a09f2227-f948-4a29-8e3d-4424baf17ee7" d="M258.54 417.44c-3.86 0-8.13 1.53-8.13 4.88 0 2.95 4.11 4.61 8 4.61 4.1 0 8-1.73 8-4.88-.09-2.35-3.93-4.61-7.87-4.61zm-.18 8.64c-3.86 0-7-1.75-7-3.89s3.13-3.89 7-3.89 7 1.74 7 3.89-3.14 3.89-7 3.89z"/><path d="M258.36 418.3c-3.86 0-7 1.74-7 3.89s3.13 3.89 7 3.89 7-1.75 7-3.89-3.14-3.89-7-3.89z" style="fill:url(#a518e964-629b-4353-882b-5077317325bd)"/></g><g id="b55829ec-36b7-4aa7-9c5e-f52ee547fe86" data-name="5"><path class="a09f2227-f948-4a29-8e3d-4424baf17ee7" d="M240 411.28c-3.86 0-8.13 1.53-8.13 4.88 0 2.95 4.11 4.61 7.95 4.61 4.1 0 8-1.73 8-4.88-.07-2.35-3.91-4.61-7.82-4.61zm-.18 8.63c-3.86 0-7-1.74-7-3.89s3.13-3.89 7-3.89 7 1.75 7 3.89-3.17 3.89-7.03 3.89z"/><path d="M239.79 412.13c-3.86 0-7 1.75-7 3.89s3.13 3.89 7 3.89 7-1.74 7-3.89-3.14-3.89-7-3.89z" style="fill:url(#a30e9230-ddf3-4b0b-be6c-418023b5aa18)"/></g><g id="b70e7dfc-14e3-4308-9c86-1de70b361cf4" data-name="6"><path class="a09f2227-f948-4a29-8e3d-4424baf17ee7" d="M217.73 411.28c-3.86 0-8.13 1.53-8.13 4.88 0 2.95 4.11 4.61 8 4.61 4.1 0 8-1.73 8-4.88-.09-2.35-3.93-4.61-7.87-4.61zm-.18 8.63c-3.86 0-7-1.74-7-3.89s3.13-3.89 7-3.89 7 1.75 7 3.89-3.14 3.89-7 3.89z"/><path d="M217.55 412.13c-3.86 0-7 1.75-7 3.89s3.13 3.89 7 3.89 7-1.74 7-3.89-3.14-3.89-7-3.89z" style="fill:url(#b5db0768-34ca-4d8d-8b73-405f46f5f82a)"/></g></g><path class="bb332ebb-76c3-4d95-9293-466084752137" d="M228.57 237.19v.07l-5.92-1v-.08zM236.56 238.53a.13.13 0 0 0 0 .06l-5.72-1v-.06z"/><path class="a101c7df-a0ac-46b3-a7f3-4a9fcfd0daad" d="m210.17 273.38-65.56-11c-.87-.14-.87-.14-.74-.92.25-1.54.47-3.08.75-4.61.78-4.31 1.48-8.63 2.22-12.95.09-.48.22-1 .29-1.44 0-.18.12-.23.31-.19l.75.13 119.31 19.98a16.13 16.13 0 0 1 4.69 1.42 11.54 11.54 0 0 1 5.67 5.9 8.36 8.36 0 0 1 .63 3.88c0 .38-.08.76-.15 1.14l-1.56 9.36c-.07.39-.13.42-.54.36l-40.11-6.72zm14.68-7.7c-.4 2.35-.79 4.71-1.19 7.07 0 .23 0 .34.3.38 1 .15 1.95.32 2.93.49.51.09.51.09.59-.37q.69-4.22 1.4-8.43c0-.08 0-.21.12-.22s.13.1.17.17c1.69 3.14 3.43 6.26 5.06 9.42a2.38 2.38 0 0 0 3.55.6c.9-.94 1.91-1.79 2.87-2.68l4.89-4.53c.08-.07.15-.22.26-.17s0 .2 0 .31v.12c-.47 2.79-.93 5.58-1.4 8.37 0 .25 0 .35.31.4 1 .16 2 .32 3.06.51.34.07.45 0 .49-.32l2.32-13.83a1.32 1.32 0 0 0-.25-1 2.34 2.34 0 0 0-3.26-.37l-2.16 2-8.12 7.4c-.25.23-.28.22-.45-.08-2.2-4.06-4.42-8.11-6.61-12.17a2.14 2.14 0 0 0-1.43-1.06A1.74 1.74 0 0 0 226 259zm-4.51-.71c.38-2.31.76-4.61 1.16-6.92a1.32 1.32 0 0 0-.45-1.21 2.4 2.4 0 0 0-3.17 0c-2.39 2.24-4.82 4.43-7.24 6.63l-2.95 2.7c-.13.12-.23.25-.37 0l-3.44-6.31c-1.1-2-2.19-4-3.3-6a2.24 2.24 0 0 0-2.21-1 1.52 1.52 0 0 0-1.5 1.37q-1.16 6.86-2.3 13.71c0 .28.05.37.35.41 1 .15 2 .32 3 .5.44.07.45.08.51-.3.46-2.73.91-5.46 1.37-8.19 0-.13 0-.27.06-.4s0-.16.11-.17.1.08.13.14.18.34.28.51c1.63 3 3.29 6 4.88 9.07a2.34 2.34 0 0 0 3.35.6c.47-.47 1-.91 1.48-1.37l6.5-6c.06-.05.09-.14.19-.11s.07.14.06.22c-.14.81-.28 1.62-.41 2.44-.35 2.06-.69 4.13-1 6.2 0 .22 0 .32.29.36l3 .5c.44.07.45.07.52-.31q.51-3.6 1.1-7.04zm33.15 5.67c-.38 2.28-.76 4.57-1.15 6.85-.06.31.06.41.38.45 1 .16 2 .32 3 .5.33.07.45 0 .5-.31.16-1 .35-2.08.51-3.12 0-.23.12-.33.4-.28l12.77 2.14c.33.05.39.18.34.45-.18 1-.34 2.08-.53 3.12-.05.25 0 .35.32.4 1 .15 2 .32 3 .49.45.07.46.07.53-.34l1.22-7.32a6.88 6.88 0 0 0-2.51-6.52 12.61 12.61 0 0 0-6.36-3c-2.38-.41-4.76-.8-7.13-1.19-.72-.12-1.45-.26-2.17-.35a1.6 1.6 0 0 0-1.91 1.29c-.46 2.27-.83 4.5-1.21 6.74zm-62.24-10.42 1.14-6.79a1.24 1.24 0 0 0 0-.47 1.91 1.91 0 0 0-1.63-1.33c-1.55-.26-3.1-.53-4.65-.77-1.84-.3-3.66-.71-5.51-.87a11.55 11.55 0 0 0-7 1.39 6.55 6.55 0 0 0-3.37 4.67q-.63 3.74-1.25 7.47c-.07.4-.07.4.36.47 1 .17 2 .32 2.93.5.33.06.45 0 .5-.31.15-1 .34-2.06.5-3.09 0-.29.17-.35.48-.3l12.67 2.12c.34 0 .42.16.37.46-.19 1-.35 2.08-.54 3.11 0 .26 0 .36.32.4 1 .16 2 .32 3 .51.33.06.44 0 .49-.32.42-2.28.81-4.57 1.19-6.85zm-38.3 1 6.47 1.08a7.76 7.76 0 0 0 2.76 0 3.93 3.93 0 0 0 3.34-2.92c.64-3.78 1.26-7.55 1.9-11.33.05-.27 0-.37-.33-.42-1-.15-2-.32-3-.5-.36-.07-.46 0-.51.33q-.92 5.58-1.86 11.15a1.08 1.08 0 0 1-1.24.95 4.41 4.41 0 0 1-.73-.08c-1-.18-2-.37-3.06-.54l-7-1.15c-.28-.05-.35-.15-.31-.38.11-.59.19-1.18.31-1.76.06-.28 0-.4-.35-.45-.84-.13-1.68-.26-2.52-.42-.34-.07-.44 0-.49.32-.24 1.49-.49 3-.74 4.45-.07.42-.07.42.42.5zM230.83 237.63l5.72 1c.15.09.15.2.13.35-.37 2.17-.73 4.34-1.11 6.51 0 .29 0 .38.34.43 3.09.5 6.18 1 9.27 1.54.32.05.34.16.31.44-.06.67-.23 1.33-.32 2-.22 1.55-.54 3.09-.8 4.63-.1.59-.17 1.19-.26 1.78 0 .2-.12.31-.4.26L228.57 254c-.65-.11-.65-.11-.56-.68q1.29-7.69 2.57-15.38c.02-.15.02-.31.25-.31zm3.94 12.7c-.13.78-.25 1.56-.39 2.34-.05.27 0 .38.33.43 1.06.16 2.11.34 3.16.53.32.06.44 0 .49-.31.25-1.55.51-3.1.78-4.66 0-.24 0-.34-.31-.38q-1.62-.25-3.24-.54c-.28-.05-.39 0-.43.27-.16.78-.26 1.55-.39 2.32zM255.63 249.17c2.55.43 5.09.86 7.64 1.27.34.06.42.17.37.47q-.7 4.14-1.39 8.3c-.07.37-.1.4-.52.33L246.38 257c-.27-.05-.34-.16-.3-.39q.72-4.21 1.41-8.43c0-.28.18-.33.47-.28 2.55.44 5.11.86 7.67 1.29zm1.31 4.88c.14-.8.27-1.6.41-2.4 0-.23 0-.36-.3-.4l-3.44-.58c-.26 0-.38 0-.42.27l-.81 4.85c0 .25.05.36.33.41l3.37.56c.3.06.42 0 .46-.3.13-.8.27-1.6.4-2.41zM173.53 244.78l-7.64-1.27c-.31 0-.37-.15-.33-.42q.72-4.2 1.42-8.42c0-.25.13-.32.4-.27l15.36 2.6c.41.07.43.11.37.49-.26 1.55-.53 3.11-.78 4.66 0 .31-.17.37-.5.32-3.07-.53-6.15-1-9.22-1.55-.46-.08-.46-.08-.52.32s-.11.7-.19 1 0 .35.31.4c2.06.33 4.11.68 6.17 1l3.16.53c.32.05.42.17.37.44s-.14.74-.19 1.11-.18.38-.51.32zm.92-5.45c.56.1 1.13.18 1.69.29.25 0 .35 0 .38-.25 0-.39.12-.78.2-1.17 0-.21 0-.32-.26-.36l-3.41-.57c-.22 0-.33 0-.36.23q-.08.62-.18 1.23c0 .23.06.3.29.33.55.07 1.1.17 1.65.27zM211.28 241.75l7.64 1.28c.44.07.5.14.42.52-.43 2-.7 4-1.05 6-.14.74-.27 1.48-.37 2.23 0 .29-.15.37-.49.31-2.08-.36-4.17-.7-6.26-1l-9-1.51c-.42-.07-.43-.08-.37-.47.26-1.56.53-3.11.77-4.67 0-.32.18-.37.52-.31l9.16 1.54c.46.07.46.07.53-.33s.09-.67.17-1 0-.4-.36-.46c-2.34-.37-4.68-.77-7-1.16l-2.31-.38c-.24 0-.32-.12-.28-.34a10.85 10.85 0 0 0 .21-1.27c0-.27.16-.31.43-.26l5.37.9 2.27.38zm-1.15 7.25c.55.09 1.11.17 1.66.27.21 0 .33 0 .36-.21l.21-1.23c0-.19-.05-.29-.27-.33l-3.33-.56c-.24 0-.35 0-.38.24 0 .4-.11.79-.19 1.17-.05.23.05.33.29.37.52.07 1.1.17 1.65.28zM268.74 251.36c.87.15 1.74.31 2.62.44.31 0 .38.18.34.43-.08.4-.13.8-.21 1.2 0 .21 0 .3.27.34l3.36.56c.28 0 .38 0 .41-.27.06-.41.15-.82.2-1.23 0-.23.15-.27.37-.24l5.4.91c.21 0 .3.13.27.33-.08.43-.16.86-.22 1.29 0 .23-.16.29-.41.25-.44-.09-.89-.15-1.34-.24-.24 0-.33 0-.36.24-.05.4-.13.8-.19 1.2 0 .23-.15.3-.4.25-.47-.08-.94-.15-1.41-.24-.17 0-.24 0-.29.17-.13.44-.08.91-.25 1.34-.07.18.07.24.24.27l1.38.22c.28 0 .38.15.33.41s-.13.78-.21 1.17c0 .21.05.31.28.34l1.34.22c.25 0 .34.13.3.36-.09.42-.17.84-.22 1.27 0 .22-.15.27-.36.24l-.65-.11-4.62-.77c-.45-.08-.45-.08-.38-.49s.12-.76.19-1.14c.05-.21 0-.3-.27-.34l-3.44-.58c-.22 0-.29 0-.31.21-.06.4-.16.8-.19 1.21s-.19.37-.5.32l-4.72-.8c-1.16-.19-.93-.1-.8-1 0-.25.09-.49.12-.74s.16-.29.4-.25c.45.09.9.15 1.34.24.27.05.39 0 .42-.26s.14-.78.19-1.17.16-.31.41-.26c.46.09.92.15 1.37.24.21 0 .3 0 .32-.2.06-.43.13-.85.22-1.27 0-.21-.05-.28-.26-.31l-1.38-.23c-.24 0-.34-.12-.29-.36s.14-.78.21-1.17c0-.23 0-.35-.31-.38-.45-.06-.9-.15-1.35-.22-.25 0-.34-.14-.29-.37q.12-.63.21-1.26c0-.24.16-.29.4-.24zM222.64 236.28l5.92 1a.42.42 0 0 1 .05.36q-1.31 7.77-2.6 15.56c0 .28-.17.37-.48.31s-.88-.19-1.33-.26l-3.89-.62c-.46-.08-.45-.08-.39-.49q1.31-7.74 2.6-15.49c.02-.14 0-.28.12-.37zM191.71 247.82l-7.71-1.28c-.3 0-.4-.14-.35-.43q.72-4.2 1.41-8.4c0-.26.15-.32.42-.27l15.39 2.56c.31.05.42.18.36.45s-.11.72-.19 1.08-.13.41-.55.34l-4.16-.7-5.06-.85c-.28 0-.37 0-.41.25-.22 1.39-.46 2.78-.69 4.17a2.74 2.74 0 0 1 0 .28c-.11.6-.11.6.58.72l8.92 1.49c.42.07.45.11.39.5s-.15.72-.18 1.08-.19.35-.48.3c-.56-.11-1.12-.2-1.68-.29z"/><path d="M291.07 282.1c-.25 1.47-.49 2.94-.74 4.41-.07.42-.07.42-.51.34l-4.27-.71c-.27 0-.37-.13-.3-.37s.07-.41.11-.62-.06-.27-.25-.29l-.49-.05c-.39-.06-.49 0-.51.37v.19c0 .43-.14.5-.63.42-1.39-.23-2.79-.47-4.19-.69-.32-.05-.4-.19-.36-.45.5-3 1-5.91 1.49-8.86.06-.36.14-.42.55-.33 2.95.58 5.92 1 8.87 1.52.52.09 1 .13 1.55.22s.47.1.4.52c-.24 1.46-.49 2.92-.73 4.38zm-8.37-.17 1.58.27c.22 0 .32 0 .35-.22.1-.59.2-1.19.31-1.79 0-.21-.06-.3-.29-.34l-3.13-.52c-.21 0-.31 0-.35.22-.08.59-.18 1.19-.29 1.79 0 .21 0 .31.27.34zm5.47-1.49c-.52-.08-1-.16-1.55-.26-.25-.05-.36 0-.39.24-.09.59-.19 1.19-.29 1.78-.05.23.05.29.28.33 1 .16 2 .33 3 .51.28.05.39 0 .43-.27.08-.56.17-1.13.28-1.69 0-.23 0-.35-.3-.39-.48-.08-.97-.17-1.46-.25z" style="fill:#2785db"/><path d="M292.87 271.31c-.25 1.48-.5 3-.74 4.44-.07.38-.11.4-.52.34l-2.86-.48c-.41-.07-.49-.18-.43-.54.14-.85.28-1.71.43-2.56a.34.34 0 0 1 0-.1c.2-.63.12-.52.72-.43l1.48.25c.26 0 .4 0 .44-.25.09-.59.19-1.18.29-1.76 0-.21 0-.33-.3-.38l-8-1.34c-.26 0-.39.05-.42.28-.09.57-.19 1.14-.28 1.7 0 .23.05.36.31.41l3.06.52a.25.25 0 0 0 .33-.17 1.81 1.81 0 0 0 .12-.64c0-.19.11-.24.27-.29a.45.45 0 0 1 .2 0c.85.09.89.14.77.88-.21 1.26-.43 2.51-.63 3.77 0 .26-.17.34-.43.3l-5.43-.91c-.49-.08-.55-.15-.48-.58.49-3 1-5.91 1.48-8.87 0-.17.09-.23.28-.22s.55 0 .83.08l9.77 1.63c.55.09.55.1.47.6l-.72 4.32z" style="fill:#44c047"/><path d="M289.84 254.78c1.75.29 3.49.59 5.24.87.3 0 .4.13.35.42-.51 3-1 5.95-1.49 8.92-.05.3-.16.38-.49.32-1.4-.25-2.8-.48-4.2-.71-.36-.06-.42-.15-.36-.47 0-.12.06-.23.08-.34.08-.47.08-.47-.46-.56h-.21c-.5-.08-.51-.08-.54.39 0 .18-.1.34-.11.52s-.18.19-.35.16l-4.44-.74c-.23 0-.32-.15-.29-.35.17-1 .35-2 .51-3.06 0-.28.23-.27.45-.23l1.83.3c.8.15 1.61.24 2.4.44.25.06.44 0 .48-.27.07-.57.17-1.14.28-1.7.05-.27 0-.38-.34-.43-1.42-.22-2.83-.47-4.24-.7-.29 0-.4-.12-.35-.4.18-1 .33-2 .48-3 0-.26.15-.33.44-.28 1.77.31 3.55.6 5.33.9zm1.49 6.43c.51.08 1 .16 1.54.26.22 0 .35 0 .39-.21.09-.61.19-1.22.3-1.82 0-.2 0-.32-.27-.35l-3.09-.52c-.22 0-.32 0-.35.21-.09.63-.2 1.25-.31 1.88 0 .18 0 .26.24.29z" style="fill:#eb1416"/><path class="a101c7df-a0ac-46b3-a7f3-4a9fcfd0daad" d="m156.94 232.66 7.54 1.26c.53.09.53.09.45.57s-.13.7-.17 1-.16.33-.44.28l-9.3-1.57c-.33-.05-.41 0-.45.3-.35 2.17-.72 4.33-1.07 6.49-.05.31-.2.36-.51.31l-5.19-.87c-.3 0-.4-.14-.35-.42q.72-4.19 1.4-8.39c.05-.31.19-.34.48-.29z"/><path class="bb332ebb-76c3-4d95-9293-466084752137" d="M224.85 265.68 226 259a1.74 1.74 0 0 1 2.34-1.33 2.14 2.14 0 0 1 1.43 1.06c2.19 4.06 4.41 8.11 6.61 12.17.17.3.2.31.45.08l8.14-7.43 2.16-2a2.34 2.34 0 0 1 3.26.37 1.32 1.32 0 0 1 .25 1q-1.17 6.91-2.32 13.83c0 .29-.15.39-.49.32-1-.19-2-.35-3.06-.51-.3-.05-.36-.15-.31-.4.47-2.79.93-5.58 1.4-8.37v-.12c0-.04.11-.25 0-.31s-.18.1-.26.17l-4.89 4.53c-1 .89-2 1.74-2.87 2.68a2.38 2.38 0 0 1-3.55-.6c-1.63-3.16-3.37-6.28-5.06-9.42 0-.07-.06-.19-.17-.17s-.11.14-.12.22l-1.4 8.43c-.08.46-.08.46-.59.37-1-.17-1.95-.34-2.93-.49-.28 0-.34-.15-.3-.38.4-2.36.79-4.72 1.19-7.07zM220.34 265q-.59 3.46-1.16 6.95c-.07.38-.08.38-.52.31l-3-.5c-.27 0-.32-.14-.29-.36.36-2.07.7-4.14 1-6.2.13-.82.27-1.63.41-2.44 0-.08.06-.18-.06-.22s-.13.06-.19.11l-6.5 6c-.5.46-1 .9-1.48 1.37a2.34 2.34 0 0 1-3.35-.6c-1.59-3-3.25-6.05-4.88-9.07-.1-.17-.19-.34-.28-.51s-.05-.14-.13-.14-.1.1-.11.17 0 .27-.06.4c-.46 2.73-.91 5.46-1.37 8.19-.06.38-.07.37-.51.3-1-.18-2-.35-3-.5-.3 0-.4-.13-.35-.41q1.16-6.86 2.3-13.71a1.52 1.52 0 0 1 1.5-1.37 2.24 2.24 0 0 1 2.21 1c1.11 2 2.2 4 3.3 6l3.44 6.31c.14.27.24.14.37 0l2.95-2.7c2.42-2.2 4.85-4.39 7.24-6.63a2.4 2.4 0 0 1 3.17 0 1.32 1.32 0 0 1 .45 1.21c-.4 2.31-.78 4.61-1.16 6.92zM253.49 270.64c.38-2.24.75-4.47 1.13-6.7a1.6 1.6 0 0 1 1.91-1.29c.72.09 1.45.23 2.17.35 2.37.39 4.75.78 7.13 1.19a12.61 12.61 0 0 1 6.36 3 6.88 6.88 0 0 1 2.51 6.52q-.6 3.66-1.22 7.32c-.07.41-.08.41-.53.34-1-.17-2-.34-3-.49-.29 0-.37-.15-.32-.4.19-1 .35-2.08.53-3.12.05-.27 0-.4-.34-.45l-12.77-2.14c-.28-.05-.36 0-.4.28-.16 1-.35 2.08-.51 3.12-.05.3-.17.38-.5.31-1-.18-2-.34-3-.5-.32 0-.44-.14-.38-.45.39-2.28.77-4.57 1.15-6.85zM264 273l6.37 1.07c.3 0 .43 0 .46-.28s.08-.52.12-.78a4.27 4.27 0 0 0-1.54-4.2 8.48 8.48 0 0 0-4-1.85c-2.25-.43-4.52-.78-6.77-1.17-.34-.06-.36.12-.4.33q-.44 2.69-.9 5.37c0 .29 0 .4.36.46zM191.25 260.22c-.38 2.28-.77 4.57-1.14 6.85-.05.3-.16.38-.49.32-1-.19-2-.35-3-.51-.29 0-.36-.14-.32-.4.19-1 .35-2.08.54-3.11.05-.3 0-.41-.37-.46l-12.67-2.12c-.31-.05-.44 0-.48.3-.16 1-.35 2.05-.5 3.09 0 .3-.17.37-.5.31-1-.18-1.95-.33-2.93-.5-.43-.07-.43-.07-.36-.47q.62-3.74 1.25-7.47a6.55 6.55 0 0 1 3.37-4.67 11.55 11.55 0 0 1 7-1.39c1.85.16 3.67.57 5.51.87 1.55.24 3.1.51 4.65.77a1.91 1.91 0 0 1 1.59 1.37 1.24 1.24 0 0 1 0 .47l-1.14 6.79zm-10.67-1.14c2.11.35 4.22.7 6.33 1.07.32.05.44 0 .48-.29.3-1.81.6-3.63.91-5.44 0-.26 0-.37-.33-.42q-3-.48-6-1a11.11 11.11 0 0 0-3.77 0 4.85 4.85 0 0 0-3.81 2.54 7.49 7.49 0 0 0-.52 2c-.07.4-.07.41.4.48zM153 261.25l-7-1.17c-.49-.08-.49-.08-.42-.5.25-1.48.5-3 .74-4.45.05-.28.15-.39.49-.32.84.16 1.68.29 2.52.42.31.05.41.17.35.45-.12.58-.2 1.17-.31 1.76 0 .23 0 .33.31.38l7 1.15c1 .17 2 .36 3.06.54a4.41 4.41 0 0 0 .73.08 1.08 1.08 0 0 0 1.24-.95q.94-5.58 1.86-11.15c0-.3.15-.4.51-.33 1 .18 2 .35 3 .5.3.05.38.15.33.42-.64 3.78-1.26 7.55-1.9 11.33a3.93 3.93 0 0 1-3.34 2.92 7.76 7.76 0 0 1-2.76 0l-6.41-1.08z"/><path class="a101c7df-a0ac-46b3-a7f3-4a9fcfd0daad" d="m264 273-6.33-1c-.34-.06-.41-.17-.36-.46q.47-2.68.9-5.37c0-.21.06-.39.4-.33 2.25.39 4.52.74 6.77 1.17a8.48 8.48 0 0 1 4 1.85 4.27 4.27 0 0 1 1.54 4.2c0 .26-.1.52-.12.78s-.16.33-.46.28zM180.58 259.08l-6.3-1.06c-.47-.07-.47-.08-.4-.48a7.49 7.49 0 0 1 .52-2 4.85 4.85 0 0 1 3.81-2.54 11.11 11.11 0 0 1 3.77 0q3 .51 6 1c.31.05.38.16.33.42-.31 1.81-.61 3.63-.91 5.44 0 .29-.16.34-.48.29-2.11-.37-4.22-.72-6.33-1.07z"/></g><g id="f4a35cba-4b7e-43e1-aa2a-8bb2a899fa03" data-name="Calque 2"><g id="b7945caf-94c1-4da9-83fd-0446c4f0c81a" data-name="Calque 1-2"><path class="be6daaa6-183a-4949-b54d-a6d88dc97716" d="M77.37 67.16q15.91 2.43 31.92 4.9c.07 0 .14.09.28.18v9.37l-12.13-1.87v36.66l-7.76-1.24V78.34l-12.3-1.9v-9.27z"/><path d="M277.26 99.75c-.05.39-.09.66-.14.92s-.08.43-.14.82l8.54 1.32c.05.46.09.78.12 1.14l3.39.52c.26-1.22.51-2.41.78-3.7l10.53 1.61c-.39 2-.76 3.92-1.15 5.9 1 1 2 1.9 3.12 3l6.08.94c-.36 2-.68 3.76-1 5.71l4.17.65c-1 5-2 9.82-2.95 14.74l-3.34-.53c-.42 2.05-.83 4-1.25 6.08l-3.5-.56a14.2 14.2 0 0 1-9.85 4.7c-.29 1.38-.57 2.68-.84 4.05l-10.9-1.75c.21-1.12.39-2.15.58-3.25l-1.89-.64a4 4 0 0 1-1.19.27c-3.18-.48-6.35-1-9.53-1.52-.07 0-.16-.1-.32-.21.4-2.07.8-4.15 1.17-6-.65-1.81-1.22-3.45-1.84-5.19l-2.05-.32c-.17.74-.35 1.52-.55 2.45l-10.36-1.64c-.53 2.57-1 5-1.54 7.56l-5.22-.84c-.26 1.29-.52 2.47-.78 3.75l-10.49-1.67c.22-1.26.42-2.45.65-3.77l-2.47-.39c.67-3.45 1.29-6.75 2-10.2l-3.56-.57 1-5.19-3.54-.56c.83-5 1.65-9.76 2.46-14.65l7.36 1.14c.44-2.16.86-4.23 1.3-6.37l5.92.91c.38-1.75.74-3.48 1.1-5.22l10.44 1.59c-.34 1.8-.66 3.49-1 5.33l9.34 1.43c.23-1.05.47-2.18.75-3.4l10.67 1.64zm-8 24.39c-1 3.59-.87 4.61 1.47 8.85-.18 1.16-.39 2.42-.6 3.82l4.79.77c.16-.26.35-.58.44-.75l7.56 2.36c-.12.93-.23 1.83-.36 2.84l5.19.83c.29-1.24.56-2.46.82-3.59 4.15-.1 7.89-1 10.81-4.86l2.54.4c.44-2.11.85-4.13 1.27-6.19l3.34.53c.47-2.4.93-4.7 1.43-7.23l-4.09-.64c.35-2 .67-3.81 1-5.77l-3.72-.58a13.43 13.43 0 0 0-5.21-4.57c.28-1.71.55-3.23.83-4.89l-4.81-.74c-.29 1.3-.56 2.54-.86 3.86-3.09-.27-6.14-1.2-9.2-.65.06-.59.11-1.07.18-1.66-1.61-.81-3.15-.74-4.72-1-.34 1.49-.64 2.83-.94 4.14a11 11 0 0 0-5.05 6.76L282.9 118c.92-2.76 2.71-2.73 4.59-2.41a2.51 2.51 0 0 1 2.21 2.15c-.78 1.88-2.1 2-3.49 1.88-1.19-.13-2.37-.37-3.64-.57-.4 2.07-.77 4-1.19 6.24a21.46 21.46 0 0 1 3.52.6c1.1.38 2.32.69 3 2.32a2.18 2.18 0 0 1-.94 2.5 4.38 4.38 0 0 1-3.55.51c-1.62-.36-2.71-1.74-3.09-4-.07-.46-.1-.9-.16-1.39l-10.91-1.71zM235 120l3.58.56-1 5-.95 5.1 2.46.39c-.23 1.39-.43 2.58-.65 3.87l4.79.76c.29-1.31.56-2.54.87-3.91l5.19.83c.69-3.39 1.34-6.65 2-9.83l5.21.82c-.09.82-.18 1.53-.27 2.31l4.93.78c.21-.81.41-1.57.63-2.44l4.06.64c.37-2.39 1-4.54 1.26-7.1l-14.6-2.28c.28-1.48.52-2.77.78-4.17l17 2.64c.28-1.31.55-2.48.8-3.69h.57a4.63 4.63 0 0 0 .62-.09c.47-2.4.92-4.73 1.4-7.14l-5-.76c-.28 1.21-.52 2.34-.79 3.5l-15-2.32c.34-1.81.66-3.54 1-5.38l-4.74-.73c-.35 1.69-.7 3.36-1.08 5.16l-5.95-.92c-.78 3.94-1.55 7.75-2.29 11.48l-2.18-.34.92-5-5.06-.79c-.39 2.34-.76 4.6-1.18 7.09l3.67.58c-.35 1.8-.65 3.38-1 5.34z" style="fill:#050404"/><path d="M205.21 85.19c5.15.92 10.45 4.57 14.64 11.6 6.33 10.63 6.13 24.71-.49 32.91-4.89 6-10.88 7.66-17.65 5.58-4.91-1.5-9.18-4.95-12.6-10.48-7.31-11.8-6.45-27.66 1.89-35.52 3.9-3.66 8.34-5 14.21-4.08zm-1 8.3c-6.82-1.06-12.14 5.6-12.12 15.14s5.37 17.87 12.18 18.92 12.17-5.57 12.16-15.17-5.34-17.85-12.2-18.91z" style="fill:#1c1c1c"/><path class="be6daaa6-183a-4949-b54d-a6d88dc97716" d="M151.58 88.06V78.6l32.8 5v9.55L172 91.25v37.07l-7.93-1.26V89.97L151.58 88z"/><path d="M119.33 119.56c0-13.16 1.2-25.47 7.6-35.19 4.71 13 9.32 25.74 14 38.65l-21.58-3.45z" style="fill:#017bcd"/><path class="e1b40e82-f620-44bd-bbcc-41a3687f87ec" d="M125.28 80.09c3.44-3.28 6.61-7 11-7.66a60.21 60.21 0 0 0-9.56 12c-.48-1.3-.92-2.51-1.4-3.86a22.22 22.22 0 0 0-3.75 4.66c-5.33 8.58-8.6 18.8-10 30.48-.11.93-.21 1.87-.32 2.89l-10.78-1.72 19.9-49.29c1.68 4.3 3.28 8.37 4.9 12.52z"/><path d="m141.57 77.36 7.89 1.2v45.74l-7.86-1.3z" style="fill:#1d1d1d"/><path class="e1b40e82-f620-44bd-bbcc-41a3687f87ec" d="M139 64c0-4.67 2.76-8.09 6.11-7.59s6.19 4.81 6.18 9.56-2.79 8.09-6.13 7.59S139 68.8 139 64z"/><path d="m269.25 124.14 10.92 1.72c.05.48.08.94.16 1.38.37 2.24 1.45 3.62 3.08 4a4.34 4.34 0 0 0 3.55-.5 2.17 2.17 0 0 0 .94-2.51 4 4 0 0 0-3-2.32 22.17 22.17 0 0 0-3.52-.6c.42-2.21.79-4.17 1.19-6.24 1.27.2 2.45.43 3.64.57 1.39.14 2.71 0 3.49-1.87a2.5 2.5 0 0 0-2.21-2.16c-1.88-.32-3.68-.35-4.59 2.41l-11.54-1.79a11 11 0 0 1 5.06-6.76c.29-1.29.59-2.65.93-4.14 1.57.23 3.11.16 4.72 1-.07.59-.12 1.08-.18 1.66 3.06-.55 6.13.38 9.2.65.29-1.32.57-2.56.86-3.86l4.81.74-.83 4.89a13.23 13.23 0 0 1 5.21 4.58l3.72.57c-.34 1.94-.65 3.75-1 5.78l4.09.63c-.51 2.54-1 4.83-1.43 7.23l-3.34-.53c-.42 2.08-.83 4.08-1.27 6.19l-2.54-.4c-2.92 3.87-6.67 4.76-10.81 4.86-.25 1.13-.53 2.35-.82 3.59l-5.19-.83c.13-1 .24-1.9.36-2.84l-7.56-2.36c-.1.15-.29.48-.44.75l-4.79-.76c.22-1.39.42-2.66.6-3.83-2.34-4.24-2.51-5.26-1.47-8.85zm32.36 3.14c.31-1.62.6-3.09.9-4.65l-1.72-.26-3.12 2L300 127z" style="fill:#00a743"/><path d="M235 120c.38-2 .68-3.56 1-5.34l-3.67-.58c.42-2.49.79-4.75 1.18-7.09l5.06.79-.92 5 2.18.34c.74-3.73 1.51-7.54 2.29-11.48l5.95.92c.38-1.8.72-3.47 1.08-5.16l4.74.73c-.35 1.83-.66 3.57-1 5.38l15 2.32c.26-1.16.51-2.29.79-3.5l5 .76c-.47 2.41-.92 4.74-1.4 7.14a4.88 4.88 0 0 1-.62.09 3.55 3.55 0 0 1-.57 0c-.26 1.19-.52 2.38-.8 3.69l-17-2.64c-.26 1.4-.5 2.69-.78 4.17l14.6 2.28c-.22 2.56-.89 4.71-1.26 7.1l-4.06-.64c-.22.87-.42 1.63-.63 2.44l-4.93-.78c.09-.78.17-1.49.27-2.31l-5.21-.82c-.64 3.18-1.3 6.44-2 9.83l-5.19-.83c-.31 1.35-.58 2.59-.87 3.91l-4.79-.76c.21-1.28.41-2.47.65-3.87l-2.46-.39c.35-1.86.65-3.49.95-5.1l1-5-3.58-.6z" style="fill:#fa0000"/><path d="M301.61 127.29 300 127c-.83-.94-1.61-1.84-2.36-2.68l3.12-2 1.72.27c-.27 1.62-.56 3.09-.87 4.7z" style="fill:#000a03"/></g></g></svg>