<svg id="bf24e1bd-045d-4ffe-acfa-9253d4407b2e" data-name="Calque 1" xmlns="http://www.w3.org/2000/svg" xmlns:xlink="http://www.w3.org/1999/xlink" viewBox="0 0 88.59 237.77"><defs><style>.a280c77a-d4b0-45c8-aca2-16c616bec867,.bc428baa-522d-4518-a550-60f68309540c{fill:#211c1d;}.e925a6b5-1ca9-4102-bfe7-c3aadbab1a25{opacity:0.1;}.f3be1a03-d0cf-4f9d-b7a8-ba574f8cc09e{fill:#808094;}.a8958a33-7ec5-404e-991f-9899403b90f2{fill:#6d6e6f;}.ec494c77-43b7-4394-b15e-286c4bd9d661{fill:url(#ac77367e-8c62-4065-aa66-8e2ff952e7d8);}.a280c77a-d4b0-45c8-aca2-16c616bec867{opacity:0.3;}.a280c77a-d4b0-45c8-aca2-16c616bec867,.fc38e08b-fc3a-492b-a2f9-364114e8a849,.fccd33c3-0626-4fc3-9ea4-0489faa38787{isolation:isolate;}.fc38e08b-fc3a-492b-a2f9-364114e8a849{opacity:0.15;fill:url(#a9b4e236-ea1e-4070-8f4a-3c1bfca76e64);}.fccd33c3-0626-4fc3-9ea4-0489faa38787{opacity:0.4;fill:url(#a62eec0a-f59d-4ca7-b2ce-6250883ad635);}.ee51810e-f22f-41f7-81b8-c271c708f214{fill:#00a3d7;}.a6be7198-dd93-411d-afce-101d68225626{fill:#1faa33;}.efca77f1-55b6-4723-b508-d5ff05cd370c{fill:#e50703;}</style><linearGradient id="ac77367e-8c62-4065-aa66-8e2ff952e7d8" x1="362.1" y1="-353.94" x2="341.14" y2="-332.98" gradientTransform="matrix(0, -1, -1, 0, -299.63, 395.42)" gradientUnits="userSpaceOnUse"><stop offset="0" stop-color="#a4a5a9"/><stop offset="1" stop-color="#e6e6e7"/></linearGradient><linearGradient id="a9b4e236-ea1e-4070-8f4a-3c1bfca76e64" x1="341.21" y1="-353.94" x2="362.09" y2="-333.06" gradientTransform="matrix(0, -1, -1, 0, -299.63, 395.42)" gradientUnits="userSpaceOnUse"><stop offset="0" stop-color="#211c1d" stop-opacity="0"/><stop offset="0.04" stop-color="#211c1d" stop-opacity="0.09"/><stop offset="0.5" stop-color="#211c1d"/><stop offset="0.95" stop-color="#211c1d" stop-opacity="0.09"/><stop offset="1" stop-color="#211c1d" stop-opacity="0"/></linearGradient><linearGradient id="a62eec0a-f59d-4ca7-b2ce-6250883ad635" x1="-4466.76" y1="2694.35" x2="-4445.88" y2="2715.23" gradientTransform="matrix(0, 1, 1, 0, -2660.92, 4500.08)" gradientUnits="userSpaceOnUse"><stop offset="0" stop-color="#fff" stop-opacity="0"/><stop offset="0.5" stop-color="#fff"/><stop offset="1" stop-color="#fff" stop-opacity="0"/></linearGradient></defs><circle class="bc428baa-522d-4518-a550-60f68309540c" cx="43.8" cy="43.8" r="43.8"/><g class="e925a6b5-1ca9-4102-bfe7-c3aadbab1a25"><path class="f3be1a03-d0cf-4f9d-b7a8-ba574f8cc09e" d="M43.8,3.22l-8.89,8.59h4.34v9.83h9.1V11.81h4.34ZM15.1,15.1l-.21,12.37L18,24.4l7,7,6.43-6.44L24.39,18l3.08-3.07ZM3.22,43.8l8.59,8.89V48.35h9.83v-9.1H11.81V34.91ZM15.1,72.5l12.37.21-3.08-3.07,7-7-6.43-6.44L18,63.2l-3.07-3.07ZM43.8,84.38l8.89-8.59H48.35V66h-9.1v9.83H34.91ZM72.5,72.5l.21-12.37L69.64,63.2l-7-7-6.44,6.44,7,7-3.07,3.07ZM84.38,43.8l-8.59-8.89v4.34H66v9.1h9.83v4.34ZM72.5,15.1l-12.37-.21L63.2,18l-7,7,6.44,6.44,7-7,3.07,3.07Z" transform="translate(0 0)"/></g><path class="a8958a33-7ec5-404e-991f-9899403b90f2" d="M44.29,0a43.8,43.8,0,0,1,0,87.59h.5a43.8,43.8,0,0,0,0-87.6Z" transform="translate(0 0)"/><circle class="ec494c77-43b7-4394-b15e-286c4bd9d661" cx="43.83" cy="43.8" r="14.82"/><circle class="a280c77a-d4b0-45c8-aca2-16c616bec867" cx="43.83" cy="43.8" r="11.81"/><path class="fc38e08b-fc3a-492b-a2f9-364114e8a849" d="M29.11,43.77A14.76,14.76,0,1,0,43.87,29,14.76,14.76,0,0,0,29.11,43.77ZM57.83,44A14.15,14.15,0,1,1,43.69,29.8,14.15,14.15,0,0,1,57.83,44Z" transform="translate(0 0)"/><path class="fccd33c3-0626-4fc3-9ea4-0489faa38787" d="M58.63,43.77A14.76,14.76,0,1,0,43.87,58.53,14.76,14.76,0,0,0,58.63,43.77ZM29.9,43.58A14.15,14.15,0,1,1,44.05,57.73,14.15,14.15,0,0,1,29.9,43.58Z" transform="translate(0 0)"/><circle cx="32.85" cy="43.97" r="20.51"/><circle cx="27.19" cy="141.09" r="17.46"/><circle class="ee51810e-f22f-41f7-81b8-c271c708f214" cx="27.71" cy="141.09" r="13.88"/><circle cx="61.36" cy="196.3" r="17.45"/><circle class="a6be7198-dd93-411d-afce-101d68225626" cx="61.88" cy="196.3" r="13.88"/><circle cx="27.36" cy="178.07" r="17.45"/><circle class="efca77f1-55b6-4723-b508-d5ff05cd370c" cx="27.89" cy="178.07" r="13.88"/><circle cx="61.4" cy="121.99" r="17.46"/><circle class="ee51810e-f22f-41f7-81b8-c271c708f214" cx="61.92" cy="121.99" r="13.88"/><circle cx="61.1" cy="159.32" r="17.46"/><circle class="efca77f1-55b6-4723-b508-d5ff05cd370c" cx="61.63" cy="159.32" r="13.88"/><circle cx="27.62" cy="220.31" r="17.46"/><circle class="a6be7198-dd93-411d-afce-101d68225626" cx="28.15" cy="220.31" r="13.88"/></svg>