<?xml version="1.0" encoding="utf-8"?>
<!-- Generator: Adobe Illustrator 24.1.2, SVG Export Plug-In . SVG Version: 6.00 Build 0)  -->
<svg version="1.1" id="Calque_1" xmlns="http://www.w3.org/2000/svg" xmlns:xlink="http://www.w3.org/1999/xlink" x="0px" y="0px"
	 viewBox="0 0 30 30" style="enable-background:new 0 0 30 30;" xml:space="preserve">
<style type="text/css">
	.st0{fill:#C14848;}
	.st1{fill:#00F244;}
	.st2{fill:#13A513;}
	.st3{fill:#FFFFFF;}
	.st4{fill:#45458C;}
	.st5{fill:#1E1108;}
	.st6{fill:#F4DDDC;}
	.st7{fill:#F46A60;}
	.st8{fill:#D85855;}
</style>
<path class="st0" d="M16.7,24.2c0,1.4,1.1,2.5,2.5,2.5s2.5-1.1,2.5-2.5v-1.8c0-1.4-1.1-2.5-2.5-2.5s-2.5,1.1-2.5,2.5V24.2"/>
<path class="st1" d="M1.1,24.9c0,0,0.6-1,1-0.5s-0.2,1.2-0.3,1.5c-0.1,0.3,0.6,0.3,0.6,0.3S2.3,24.7,3,24.4c0.6-0.3,1,1.2,1.1,1.8
	l0.6-0.5c0,0-1.1-0.9-0.9-1.8C4.1,23,5,22.8,5,22.8l0.2,3.5c0,0-1.8,1-1.9,1.1s-1.8-0.6-1.8-0.6L1.1,24.9 M14.3,3.8
	c0,0-2-3.1-3.8-2.9S8.7,3.2,9,4.4c0,0-2.5-2.3-4.2-1.5C3,3.8,3.9,6.2,4.6,7.1c0,0-1.8-1.1-3-0.4c-1.3,0.7-0.2,2.8,1.2,3.7
	c0,0-2,0.6-2,1.8c0,1.2,1.4,2.7,2.5,2.7L14.3,3.8"/>
<path class="st2" d="M11.6,3.5c0,0,9.6-0.4,9.6,7.3v2.5c0,0,2.5,0,2.5,2.5v0.3h-1.8v2c0,0,0,1.6-2.7,1.6H5.6c0,0-3.1,0-3.1-1.9V8.6
	C2.4,8.7,2.9,3.5,11.6,3.5"/>
<path class="st3" d="M9.6,13.1c0,1,0.8,1.7,1.7,1.7c1,0,1.7-0.8,1.7-1.7v-2.7c0-1-0.8-1.7-1.7-1.7c-1,0-1.7,0.8-1.7,1.7V13.1"/>
<path class="st4" d="M11.3,13.4c0,0.4,0.3,0.7,0.7,0.7c0.4,0,0.7-0.3,0.7-0.7v-2c0-0.4-0.3-0.7-0.7-0.7c-0.4,0-0.7,0.3-0.7,0.7V13.4
	"/>
<path class="st3" d="M16,13.1c0,1,0.8,1.7,1.7,1.7c1,0,1.7-0.8,1.7-1.7v-2.7c0-1-0.8-1.7-1.7-1.7c-1,0-1.7,0.8-1.7,1.7V13.1"/>
<path class="st4" d="M16.3,13.4c0,0.4,0.3,0.7,0.7,0.7c0.4,0,0.7-0.3,0.7-0.7v-2c0-0.4-0.3-0.7-0.7-0.7c-0.4,0-0.7,0.3-0.7,0.7V13.4
	"/>
<path class="st5" d="M6.3,14.6c0.5-0.3,1.1-0.1,1.4,0.3c0.8,1.3,3,1.2,3,1.2h11.2v2H10.6c-0.9,0-3.3-0.2-4.5-2.2
	C5.7,15.5,5.9,14.9,6.3,14.6"/>
<path class="st3" d="M17,16.1l-0.5,1.5h-3.2l-0.5-1.5H17z"/>
<path class="st2" d="M18.7,19.4l0.8,2.5c0,0,2.9,1.9,2.9,5c0,0,0.1,2.3-1.8,2.3H5c0,0-5-0.5-5-4.1c0,0-0.1-1.2,0.7-1.2
	c0,0,0.6,0,0.6,1.1c0,0,0.9,2,3.5,0.5v-5.9L18.7,19.4"/>
<path class="st6" d="M9.2,23.7c0,0,0.9,0.7,0.7,1.2c-0.2,0.5-1.5,0.2-1.6,0.2h0.2C8.5,25.1,8.1,23.6,9.2,23.7 M8.6,26
	c0,0-0.2,1.1-0.7,1.3c-0.6,0.1-0.9-1.1-1-1.3v0.2C6.9,26.2,8.1,25,8.6,26 M6.7,26c0,0-0.2,1.1-0.7,1.3c-0.6,0.1-0.9-1.1-1-1.3v0.2
	C5,26.2,6.2,25,6.7,26"/>
<path class="st7" d="M4.3,24.2c0,1.4,1.1,2.5,2.5,2.5s2.5-1.1,2.5-2.5v-1.8c0-1.4-1.1-2.5-2.5-2.5S4.3,21,4.3,22.4V24.2"/>
<path class="st6" d="M17.7,19.6c0.2,0,0,3.4,0,3.4c2.7,1.9,1.8,6.2,1.8,6.2h-6v-3.7c0-2.2-2.2-3-2.2-3v-3.1L17.7,19.6"/>
<path class="st7" d="M19.8,27.2c0,1.1,0.9,2,2,2s2-0.9,2-2v-1.3c0-1.1-0.9-2-2-2s-2,0.9-2,2V27.2"/>
<g>
	<path class="st3" d="M15.2,23.7c0,0-0.2,1.1-0.7,1.3c-0.6,0.1-0.9-1.1-1-1.3v0.2C13.5,23.9,14.7,22.7,15.2,23.7"/>
	<path class="st3" d="M13.3,22.4c0,0,0.7,0.9,0.4,1.4c-0.3,0.5-1.5-0.2-1.6-0.2l0.2,0.1C12.3,23.7,12.2,22,13.3,22.4"/>
	<path class="st3" d="M11.4,22.4c0,0,1,0.6,1,1.2c-0.1,0.6-1.4,0.5-1.6,0.5H11C11,24.1,10.3,22.6,11.4,22.4"/>
</g>
<path class="st8" d="M9.9,29.2v-3.5c0-1.3,1.1-2.4,2.4-2.4s2.4,1.1,2.4,2.4v3.5H9.9"/>
<path class="st0" d="M10.9,29.2v-2.4c0-1,0.8-1.7,1.7-1.7s1.7,0.8,1.7,1.7v2.4H10.9"/>
<g>
	<path class="st3" d="M24.3,23.7c0,0-0.2,1.1-0.7,1.3c-0.6,0.1-0.9-1.1-1-1.3v0.2C22.6,23.9,23.8,22.7,24.3,23.7"/>
	<path class="st3" d="M22.4,22.4c0,0,0.7,0.9,0.4,1.4c-0.3,0.5-1.5-0.2-1.6-0.2l0.2,0.1C21.4,23.7,21.3,22,22.4,22.4"/>
	<path class="st3" d="M20.4,22.4c0,0,1,0.6,0.9,1.2s-1.4,0.5-1.6,0.5h0.2C19.9,24.1,19.3,22.6,20.4,22.4"/>
</g>
<path class="st8" d="M19,29.2v-3.5c0-1.3,1.1-2.4,2.4-2.4s2.4,1.1,2.4,2.4v3.5H19"/>
<g>
	<path class="st0" d="M19.9,29.2v-2.4c0-1,0.8-1.7,1.7-1.7s1.7,0.8,1.7,1.7v2.4H19.9"/>
	<ellipse class="st0" cx="6.4" cy="13" rx="1.8" ry="1.4"/>
</g>
</svg>
