<svg xmlns="http://www.w3.org/2000/svg" xmlns:xlink="http://www.w3.org/1999/xlink" viewBox="0 0 470.58 67.66"><defs><style>.af6dabc6-53bd-4d2b-8b1c-ed19d5bdad4d{stroke:#9def48;stroke-miterlimit:10;fill:url(#a7a6f681-10c7-47b7-84a6-e1e5ed6cde23);}.ffd03710-aac4-4d56-a58b-6f6f855b9b3b{fill:#9def48;}.a331b593-3a18-44db-b82c-374ac9924347{fill:#fff;}.b54f648d-f63e-4f0c-af56-fc7e68509b92{fill:#037cce;}</style><linearGradient id="a7a6f681-10c7-47b7-84a6-e1e5ed6cde23" x1="0.5" y1="33.83" x2="470.08" y2="33.83" gradientUnits="userSpaceOnUse"><stop offset="0" stop-color="#032c02"/><stop offset="1" stop-color="#207a09"/></linearGradient></defs><g id="a968f5fa-74ff-480c-a33a-7a890edf6dd8" data-name="texte"><polygon class="af6dabc6-53bd-4d2b-8b1c-ed19d5bdad4d" points="0.5 6.04 102.57 6.04 108.7 0.5 150.44 0.5 158.35 6.04 461.77 6.24 470.08 16.13 470.08 59.84 50.94 59.84 42.83 67.16 8.02 67.16 0.5 59.84 0.5 6.04"/><path class="ffd03710-aac4-4d56-a58b-6f6f855b9b3b" d="M65.52,44.72H60.63a17.65,17.65,0,0,1-4.14-10.23H52.65V30.43h3.84a17.62,17.62,0,0,1,4.14-10.22H85.29L83,24.28H62.82a17.33,17.33,0,0,0-2.21,6.15H77.53v4.06H60.61a17.44,17.44,0,0,0,2.21,6.16h2.7Z"/><path class="ffd03710-aac4-4d56-a58b-6f6f855b9b3b" d="M91.05,24.28l-2.34-4.07h24.66a17.62,17.62,0,0,1,4.13,10.24l-1.76,1v2.05l1.76,1a17.64,17.64,0,0,1-4.13,10.23H88.71l2.34-4.07H111.2a17.79,17.79,0,0,0,2.19-6.16H96.47V30.43h16.92a17.67,17.67,0,0,0-2.19-6.15Z"/></g><g id="abaaddf5-9a11-4453-96df-fb34e1b63f83" data-name="taito"><path class="a331b593-3a18-44db-b82c-374ac9924347" d="M21.41,66.07q0-6.34,0-12.69c0-.32.05-.46.42-.44.63,0,1.27,0,1.91,0,.32,0,.41.08.4.4,0,1.37,0,2.75,0,4.12,0,.37.11.45.46.45,3.17,0,6.33,0,9.49,0,.37,0,.5.07.49.47a21.11,21.11,0,0,0,0,2.25c0,.37-.08.46-.46.46-3.17,0-6.35,0-9.53,0-.41,0-.51.11-.5.51,0,1.5,0,3,0,4.51Zm13.7-52a14.54,14.54,0,0,1,.09,2.38c-.19.13-.15.34-.18.52a8,8,0,0,1-2.39,4.28A6.56,6.56,0,0,1,23.25,21a8.59,8.59,0,0,1-.4-11.17,6.69,6.69,0,0,1,11.18,1,7.58,7.58,0,0,1,1.08,3.27ZM23.35,15.2a4.76,4.76,0,0,0,9.52.08v-.1a4.76,4.76,0,1,0-9.52,0ZM21.41,29.54c0-2,0-4.08,0-6.12,0-.33.06-.46.42-.44.64,0,1.28,0,1.91,0,.34,0,.41.1.4.42,0,1.35,0,2.71,0,4.06,0,.37.08.49.47.49,3.16,0,6.33,0,9.49,0,.38,0,.49.09.47.47,0,.77,0,1.54,0,2.31,0,.33-.1.39-.41.39-3.19,0-6.39,0-9.58,0-.37,0-.5.08-.49.48,0,1.35,0,2.71,0,4.06,0,.35,0,.5-.44.47q-.9,0-1.8,0c-.34,0-.44-.07-.44-.42,0-2,0-4.08,0-6.13Z"/><path class="b54f648d-f63e-4f0c-af56-fc7e68509b92" d="M34.44,40.42c0,.13,0,.25,0,.38,0,2.58,0,5.16,0,7.74,0,.37-.08.49-.48.49a17,17,0,0,1-7.54-1.5,7.9,7.9,0,0,1-2-1.35c-.14-.13-.28-.23,0-.38l9.9-5.39a.26.26,0,0,1,.12,0Z"/><path class="b54f648d-f63e-4f0c-af56-fc7e68509b92" d="M34.54,56.68,19.67,48.6l3.33-2c-1.08-1.38-2.27-2.66-2.64-4.44A23.49,23.49,0,0,0,24.12,46a2,2,0,0,1-.68.39c-.29.14-.3.25-.09.49a13.62,13.62,0,0,0,3.17,2.59,19.6,19.6,0,0,0,7.66,2.75c.18,0,.37,0,.37.27C34.54,53.88,34.54,55.25,34.54,56.68Z"/><path class="a331b593-3a18-44db-b82c-374ac9924347" d="M27.93,40.11c-2,0-4,0-6,0-.33,0-.45-.07-.43-.43,0-.79,0-1.6,0-2.39,0-.29,0-.4.36-.4H34.07c.28,0,.37.07.36.36q0,1.25,0,2.49c0,.33-.11.37-.39.37-2,0-4.07,0-6.11,0Z"/><path class="b54f648d-f63e-4f0c-af56-fc7e68509b92" d="M17.89,41.1a2.47,2.47,0,1,1,2.4-2.53v.07A2.44,2.44,0,0,1,17.89,41.1Z"/></g></svg>