<svg enable-background="new 0 0 30 30" viewBox="0 0 30 30" xmlns="http://www.w3.org/2000/svg"><path d="m21.272 30h-12.544c-4.801 0-8.728-3.927-8.728-8.728 0-4.8 3.927-8.728 8.728-8.728h12.545c4.8 0 8.728 3.927 8.728 8.728-.001 4.801-3.928 8.728-8.729 8.728z" fill="#989898"/><path d="m6.937 19.545v-2.939c0-.437.358-.795.795-.795h1.867c.437 0 .795.358.795.795v2.939h2.939c.437 0 .795.358.795.795v1.867c0 .437-.358.795-.795.795h-2.939v2.939c0 .437-.358.795-.795.795h-1.868c-.437 0-.795-.358-.795-.795v-2.939h-2.938c-.437 0-.795-.358-.795-.795v-1.867c0-.437.358-.795.795-.795z" fill="#606060"/><circle cx="20.557" cy="24.268" fill="#ababab" r="2.434"/><circle cx="24.176" cy="18.276" fill="#4c4c4c" r="2.434"/></svg>