<svg enable-background="new 0 0 621.404 129.709" viewBox="0 0 621.404 129.709" xmlns="http://www.w3.org/2000/svg"><g fill="#fbaf5d"><path d="m58.118 13.412h4.47v44.706h-4.47v4.471h-8.941v-4.471h-4.471v-26.824h-13.412v26.823h-4.471v4.471h-22.353v-4.471h-4.47v-49.101h4.47v4.396h4.471v-4.396h4.471v-4.545h-4.471v-4.471h40.235v4.471h4.471v4.545h4.471zm-26.824 8.941h13.412v-8.941h-13.412z"/><path d="m125.175 44.706v4.471h4.471v8.941h-4.471v4.471h-49.176v-4.471h-4.47v-53.573h4.47v-4.545h22.353v4.545h4.471v40.161zm-49.176-40.161v8.867h4.471v-4.471h4.471v-4.396z"/><path d="m192.233 44.706v4.471h4.471v8.941h-4.471v4.471h-49.177v-4.471h-4.47v-53.573h4.47v-4.545h22.353v4.545h4.471v40.161zm-49.177-40.161v8.867h4.471v-4.471h4.471v-4.396z"/><path d="m326.349 4.471h4.471v4.471h-4.471v4.471h-26.824v31.294h13.412v-8.941h-4.471v-4.47h-4.471v-4.471h4.471v-4.471h17.883v4.471h4.471v26.823h-4.471v4.471h-4.471v4.471h-44.706v-4.471h-4.471v-4.471h-4.471v-44.632h4.471v4.396h4.471v-4.396h4.471v-4.545h-4.471v-4.471h49.177z"/><path d="m397.877 13.412h4.471v44.706h-4.471v4.471h-8.941v-4.471h-4.471v-26.824h-13.412v26.823h-4.47v4.471h-22.354v-4.471h-4.471v-49.101h4.471v4.396h4.471v-4.396h4.471v-4.545h-4.471v-4.471h40.235v4.471h4.471v4.545h4.471zm-26.824 8.941h13.412v-8.941h-13.412z"/><path d="m473.876 0v4.545h4.471v53.572h-4.471v4.471h-13.412v-4.471h-4.471v-13.411h-4.471v4.471h-4.471v-4.471h-4.471v13.412h-4.47v4.471h-22.354v-4.471h-4.471v-53.573h4.471v-4.545h22.354v4.545h4.47v17.808h4.471v4.471h4.471v-4.471h4.471v-17.808h4.471v-4.545zm-58.118 4.545v8.867h4.471v-4.471h4.471v-4.396z"/><path d="m545.405 0v4.396h4.471v4.545h-4.471v4.471h-26.824v8.941h26.824v4.471h4.471v4.545h-4.471v4.471h-26.824v8.867h26.824v4.471h4.471v8.941h-4.471v4.471h-53.647v-4.471h-4.471v-53.723h4.471v-4.396zm-53.647 4.396v9.016h4.471v-4.471h4.471v-4.545z"/><path d="m616.934 4.471h4.471v8.941h-4.471v4.47h-26.824v4.545h26.824v4.47h4.471v26.749h-4.471v4.471h-4.471v4.471h-49.177v-4.471h-4.471v-13.411h4.471v-4.471h35.765v-4.545h-35.765v-4.47h-4.471v-22.204h4.471v4.396h4.471v-4.396h4.471v-4.545h-4.471v-4.471h49.177z"/></g><path d="m147.755 129.709h-34.106c-13.05 0-23.728-10.677-23.728-23.728 0-13.05 10.677-23.728 23.728-23.728h34.106c13.05 0 23.728 10.677 23.728 23.728 0 13.051-10.678 23.728-23.728 23.728z" fill="#6eae97"/><path d="m108.78 101.284v-7.989c0-1.188.972-2.16 2.16-2.16h5.075c1.188 0 2.16.972 2.16 2.16v7.989h7.989c1.188 0 2.16.972 2.16 2.16v5.075c0 1.188-.972 2.16-2.16 2.16h-7.989v7.989c0 1.188-.972 2.16-2.16 2.16h-5.075c-1.188 0-2.16-.972-2.16-2.16v-7.989h-7.989c-1.188 0-2.16-.972-2.16-2.16v-5.075c0-1.188.972-2.16 2.16-2.16z" fill="#262427"/><circle cx="145.811" cy="114.127" fill="#c1b544" r="6.618"/><circle cx="155.65" cy="97.836" fill="#851740" r="6.618"/><path d="m237.755 129.709h-34.106c-13.05 0-23.728-10.677-23.728-23.728 0-13.05 10.677-23.728 23.728-23.728h34.106c13.05 0 23.728 10.677 23.728 23.728 0 13.051-10.678 23.728-23.728 23.728z" fill="#6eae97"/><path d="m198.78 101.284v-7.989c0-1.188.972-2.16 2.16-2.16h5.075c1.188 0 2.16.972 2.16 2.16v7.989h7.989c1.188 0 2.16.972 2.16 2.16v5.075c0 1.188-.972 2.16-2.16 2.16h-7.989v7.989c0 1.188-.972 2.16-2.16 2.16h-5.075c-1.188 0-2.16-.972-2.16-2.16v-7.989h-7.989c-1.188 0-2.16-.972-2.16-2.16v-5.075c0-1.188.972-2.16 2.16-2.16z" fill="#262427"/><circle cx="235.811" cy="114.127" fill="#c1b544" r="6.618"/><circle cx="245.65" cy="97.836" fill="#851740" r="6.618"/><path d="m327.755 129.709h-34.106c-13.05 0-23.728-10.677-23.728-23.728 0-13.05 10.677-23.728 23.728-23.728h34.106c13.05 0 23.728 10.677 23.728 23.728 0 13.051-10.678 23.728-23.728 23.728z" fill="#6eae97"/><path d="m288.78 101.284v-7.989c0-1.188.972-2.16 2.16-2.16h5.075c1.188 0 2.16.972 2.16 2.16v7.989h7.989c1.188 0 2.16.972 2.16 2.16v5.075c0 1.188-.972 2.16-2.16 2.16h-7.989v7.989c0 1.188-.972 2.16-2.16 2.16h-5.075c-1.188 0-2.16-.972-2.16-2.16v-7.989h-7.989c-1.188 0-2.16-.972-2.16-2.16v-5.075c0-1.188.972-2.16 2.16-2.16z" fill="#262427"/><circle cx="325.811" cy="114.127" fill="#c1b544" r="6.618"/><circle cx="335.65" cy="97.836" fill="#851740" r="6.618"/><path d="m417.755 129.709h-34.106c-13.05 0-23.728-10.677-23.728-23.728 0-13.05 10.677-23.728 23.728-23.728h34.106c13.05 0 23.728 10.677 23.728 23.728 0 13.051-10.678 23.728-23.728 23.728z" fill="#6eae97"/><path d="m378.78 101.284v-7.989c0-1.188.972-2.16 2.16-2.16h5.075c1.188 0 2.16.972 2.16 2.16v7.989h7.989c1.188 0 2.16.972 2.16 2.16v5.075c0 1.188-.972 2.16-2.16 2.16h-7.989v7.989c0 1.188-.972 2.16-2.16 2.16h-5.075c-1.188 0-2.16-.972-2.16-2.16v-7.989h-7.989c-1.188 0-2.16-.972-2.16-2.16v-5.075c0-1.188.972-2.16 2.16-2.16z" fill="#262427"/><circle cx="415.811" cy="114.127" fill="#c1b544" r="6.618"/><circle cx="425.65" cy="97.836" fill="#851740" r="6.618"/><path d="m507.755 129.709h-34.106c-13.05 0-23.728-10.677-23.728-23.728 0-13.05 10.677-23.728 23.728-23.728h34.106c13.05 0 23.728 10.677 23.728 23.728 0 13.051-10.678 23.728-23.728 23.728z" fill="#6eae97"/><path d="m468.78 101.284v-7.989c0-1.188.972-2.16 2.16-2.16h5.075c1.188 0 2.16.972 2.16 2.16v7.989h7.989c1.188 0 2.16.972 2.16 2.16v5.075c0 1.188-.972 2.16-2.16 2.16h-7.989v7.989c0 1.188-.972 2.16-2.16 2.16h-5.075c-1.188 0-2.16-.972-2.16-2.16v-7.989h-7.989c-1.188 0-2.16-.972-2.16-2.16v-5.075c0-1.188.972-2.16 2.16-2.16z" fill="#262427"/><circle cx="505.811" cy="114.127" fill="#c1b544" r="6.618"/><circle cx="515.65" cy="97.836" fill="#851740" r="6.618"/></svg>
