<svg xmlns="http://www.w3.org/2000/svg" xmlns:xlink="http://www.w3.org/1999/xlink" viewBox="0 0 470.33 67.41"><defs><style>.b1fc8086-5f4a-4af2-a0b8-603a8a995ad4{stroke:#9def48;stroke-miterlimit:10;stroke-width:0.75px;fill:url(#e700725d-2ed3-4595-a3ad-38575ca0d2fa);}.b17abe14-1119-4522-b9e1-a01c680bd467{fill:#9def48;}.f3ee8ab1-10e9-4b87-9198-a9d442e28bdb{fill:#fff;}</style><linearGradient id="e700725d-2ed3-4595-a3ad-38575ca0d2fa" x1="0.38" y1="33.7" x2="469.96" y2="33.7" gradientUnits="userSpaceOnUse"><stop offset="0" stop-color="#032c02"/><stop offset="1" stop-color="#207a09"/></linearGradient></defs><g id="b2db460b-11fa-4f66-8849-66dc23db7d88" data-name="texte"><polygon class="b1fc8086-5f4a-4af2-a0b8-603a8a995ad4" points="0.38 5.91 102.44 5.91 108.57 0.38 150.31 0.38 158.22 5.91 461.65 6.11 469.96 16 469.96 59.72 50.81 59.72 42.7 67.03 7.89 67.03 0.38 59.72 0.38 5.91"/><path class="b17abe14-1119-4522-b9e1-a01c680bd467" d="M85.13,34.59H59.35a17.1,17.1,0,0,0,2.14,6h2.62v3.95H59.36a17.17,17.17,0,0,1-4-9.95H51.61V30.66h3.74a17.06,17.06,0,0,1,4-9.93H82.82a17.62,17.62,0,0,1,4.1,11.9ZM59.35,30.66H82.84a17.1,17.1,0,0,0-2.13-6H61.49A16.93,16.93,0,0,0,59.35,30.66Z" transform="translate(-0.06 -0.03)"/><path class="b17abe14-1119-4522-b9e1-a01c680bd467" d="M117,37.45h4.25a16.6,16.6,0,0,1-3.57,7.09H94.26a17.72,17.72,0,0,1-4.1-11.91,17.71,17.71,0,0,1,4.1-11.9h23.46a16.6,16.6,0,0,1,3.57,7.09H117a17.86,17.86,0,0,0-1.43-3.14H96.39a15.86,15.86,0,0,0-2.28,8,15.92,15.92,0,0,0,2.28,8h19.22A18.55,18.55,0,0,0,117,37.45Z" transform="translate(-0.06 -0.03)"/><path class="b17abe14-1119-4522-b9e1-a01c680bd467" d="M150.44,30.66v3.93H134.57V30.66Z" transform="translate(-0.06 -0.03)"/><path class="b17abe14-1119-4522-b9e1-a01c680bd467" d="M187.89,34.59H171.46a17.1,17.1,0,0,0,2.14,6h19.56l2.27,3.95h-24a17.17,17.17,0,0,1-4-9.95h-3.74V30.66h3.74a17.06,17.06,0,0,1,4-9.93h24l-2.27,3.95H173.6a16.93,16.93,0,0,0-2.14,6h16.43Z" transform="translate(-0.06 -0.03)"/><path class="b17abe14-1119-4522-b9e1-a01c680bd467" d="M203.32,24.68a15.86,15.86,0,0,0-2.28,8,15.92,15.92,0,0,0,2.28,8h2.62v3.95h-4.75a17.72,17.72,0,0,1-4.1-11.91,17.67,17.67,0,0,1,4.1-11.9h23.46a17.67,17.67,0,0,1,4.1,11.9,17.72,17.72,0,0,1-4.1,11.91H219.9V40.59h2.64a16,16,0,0,0,2.26-8,15.93,15.93,0,0,0-2.26-8Z" transform="translate(-0.06 -0.03)"/><path class="b17abe14-1119-4522-b9e1-a01c680bd467" d="M263.65,30.66c.05.64.08,1.3.08,2a17.72,17.72,0,0,1-4.1,11.91H236.17a17.72,17.72,0,0,1-4.1-11.91,17.67,17.67,0,0,1,4.1-11.9h23.46a16.6,16.6,0,0,1,3.57,7.09H259a17.86,17.86,0,0,0-1.43-3.14H238.3a15.86,15.86,0,0,0-2.28,8,15.92,15.92,0,0,0,2.28,8h19.22a17.27,17.27,0,0,0,2.13-6H245.3V30.66Z" transform="translate(-0.06 -0.03)"/><path class="b17abe14-1119-4522-b9e1-a01c680bd467" d="M272.66,44.54h-4V24.1l4-4Z" transform="translate(-0.06 -0.03)"/><path class="b17abe14-1119-4522-b9e1-a01c680bd467" d="M283.87,24.68a15.86,15.86,0,0,0-2.28,8,15.92,15.92,0,0,0,2.28,8h2.62v3.95h-4.75a17.72,17.72,0,0,1-4.1-11.91,17.67,17.67,0,0,1,4.1-11.9H305.2a17.67,17.67,0,0,1,4.1,11.9,17.72,17.72,0,0,1-4.1,11.91h-4.75V40.59h2.64a16,16,0,0,0,2.26-8,15.93,15.93,0,0,0-2.26-8Z" transform="translate(-0.06 -0.03)"/><path class="b17abe14-1119-4522-b9e1-a01c680bd467" d="M336.79,34.59H320.36a17.1,17.1,0,0,0,2.14,6h19.56l2.27,3.95h-24a17.17,17.17,0,0,1-4-9.95h-3.74V30.66h3.74a17.06,17.06,0,0,1,4-9.93h24l-2.27,3.95H322.5a16.93,16.93,0,0,0-2.14,6h16.43Z" transform="translate(-0.06 -0.03)"/><path class="b17abe14-1119-4522-b9e1-a01c680bd467" d="M384.49,37.45h4.25a16.6,16.6,0,0,1-3.57,7.09H361.71a17.72,17.72,0,0,1-4.1-11.91,17.71,17.71,0,0,1,4.1-11.9h23.46a16.6,16.6,0,0,1,3.57,7.09h-4.25a17.86,17.86,0,0,0-1.43-3.14H363.84a15.86,15.86,0,0,0-2.28,8,15.92,15.92,0,0,0,2.28,8h19.22A18.55,18.55,0,0,0,384.49,37.45Z" transform="translate(-0.06 -0.03)"/><path class="b17abe14-1119-4522-b9e1-a01c680bd467" d="M392.89,20.73h26.23a17.67,17.67,0,0,1,4.1,11.9,17.72,17.72,0,0,1-4.1,11.91H392.89Zm3.95,19.86H417a16,16,0,0,0,2.26-8,15.93,15.93,0,0,0-2.26-8H396.84Z" transform="translate(-0.06 -0.03)"/></g><g id="b17db2c5-71fe-40df-a985-e11b3d2eae2c" data-name="nec"><path class="f3ee8ab1-10e9-4b87-9198-a9d442e28bdb" d="M18.18,64.94V60.38a5,5,0,0,1,1.51-2.82l8.88-8H18.18V46.83H32.35v4.76a3.56,3.56,0,0,1-1.15,2.65l-8.89,8h10v2.7ZM32.45,8.25a44.42,44.42,0,0,1,.21,9.85,14.71,14.71,0,0,1-1.47,5.56c-1.14,2.19-3.69,2.89-6,2.86-2.14,0-4.42-.66-5.66-2.56a10.09,10.09,0,0,1-1.34-4,40.83,40.83,0,0,1-.12-11.52h2c-.86,4.45-.65,9.15,1.4,10.75a5.46,5.46,0,0,0,3.6,1.14c1.92,0,4.84-.66,5.4-4.56a22.84,22.84,0,0,0-.36-7.52Zm-2.2,27.87V27.49h2.11c.17,4.25.24,8.32.06,12.61-.15,3.63-2,4.26-3.73,4.33H18.18V27.7h2V38.52h3.61V28.66h2v9.86c1.06,0,2.27,0,2.49,0,1.37-.06,1.88-.7,2-2.36" transform="translate(-0.06 -0.03)"/></g></svg>