<svg xmlns="http://www.w3.org/2000/svg" xmlns:xlink="http://www.w3.org/1999/xlink" viewBox="0 0 746.99 822.44"><defs><radialGradient id="b7ed1705-1f82-4fc8-9a9f-0708487c673d" cx="121.61" cy="382.1" r="5.66" gradientTransform="matrix(1 0 0 .6 0 152.84)" xlink:href="#b0768a73-75f1-4298-ba33-e91de8f2f2f3"/><radialGradient id="e6db5861-b8ef-420b-b5f7-c69389a71956" cx="217.55" cy="416.02" r="5.66" xlink:href="#ee731be8-f9d8-4e43-ab20-d5d70da2c78e"/><radialGradient id="bfe6a5e9-190d-460b-aea7-805216fb183e" cx="195.83" cy="370.99" r="11.47" xlink:href="#ee731be8-f9d8-4e43-ab20-d5d70da2c78e"/><radialGradient id="b0768a73-75f1-4298-ba33-e91de8f2f2f3" cx="92.36" cy="393.88" r="5.66" gradientTransform="matrix(1 0 0 .6 0 157.55)" gradientUnits="userSpaceOnUse"><stop offset="0" stop-color="#0000ef"/><stop offset=".15" stop-color="#0000e9"/><stop offset=".34" stop-color="#0101d9"/><stop offset=".56" stop-color="#0101be"/><stop offset=".79" stop-color="#02029a"/><stop offset="1" stop-color="#020282"/></radialGradient><radialGradient id="bd82c87c-7e47-455b-a8bd-458f14672cf4" cx="114.61" cy="393.88" r="5.66" xlink:href="#b0768a73-75f1-4298-ba33-e91de8f2f2f3"/><radialGradient id="befe17dd-9a89-4a01-a6ef-829b621d20db" cx="133.17" cy="400.04" r="5.66" gradientTransform="matrix(1 0 0 .6 0 160.02)" xlink:href="#b0768a73-75f1-4298-ba33-e91de8f2f2f3"/><radialGradient id="a70e3922-9c0e-4688-9a18-71b3164868af" cx="139.21" cy="387.78" r="5.66" gradientTransform="matrix(1 0 0 .6 0 155.11)" xlink:href="#b0768a73-75f1-4298-ba33-e91de8f2f2f3"/><radialGradient id="ee731be8-f9d8-4e43-ab20-d5d70da2c78e" cx="65.88" cy="348.77" r="11.47" gradientUnits="userSpaceOnUse"><stop offset="0" stop-color="#fd6d66"/><stop offset=".78" stop-color="#b50a03"/></radialGradient><radialGradient id="e97aa521-4b01-4af6-994b-d8c432cbdb9b" cx="100.32" cy="382.53" r="5.66" gradientTransform="matrix(1 0 0 .6 0 153.01)" xlink:href="#b0768a73-75f1-4298-ba33-e91de8f2f2f3"/><radialGradient id="b3009637-9f99-4aeb-b316-b9bbce0a3448" cx="225.51" cy="404.67" r="5.66" xlink:href="#ee731be8-f9d8-4e43-ab20-d5d70da2c78e"/><radialGradient id="e0310f9d-9531-453b-9ce3-13852b3d940d" cx="246.79" cy="404.24" r="5.66" xlink:href="#ee731be8-f9d8-4e43-ab20-d5d70da2c78e"/><radialGradient id="f4c0dac6-1b0e-43a4-bf58-3f768fa6741a" cx="264.4" cy="409.93" r="5.66" xlink:href="#ee731be8-f9d8-4e43-ab20-d5d70da2c78e"/><radialGradient id="add3a578-fb3f-49d6-b85c-ab3b0836e466" cx="258.36" cy="422.19" r="5.66" xlink:href="#ee731be8-f9d8-4e43-ab20-d5d70da2c78e"/><radialGradient id="e2785225-b3aa-4284-b202-45529cf8f224" cx="239.79" cy="416.02" r="5.66" xlink:href="#ee731be8-f9d8-4e43-ab20-d5d70da2c78e"/><style>.beacaf41-e577-4ba6-a78d-b4217d360b0e{fill:#373735}.a2c8797e-b126-414c-9b80-f5d33523c8b8{fill:#121211;stroke:#b5b5b5}.a7efd067-b0bb-408b-b009-a8458f17fd37,.b467b418-3b96-4a72-ac84-df33bc740b57,.b8df2887-b372-4d9c-a217-58e705fdcdb0,.ea95e177-9d78-4efd-8dc5-a5fdae2a223a,.f542c35f-2fcb-447d-a6f9-c0644c5d95bf{stroke:#b5b5b5}.a1825bbb-7f22-4146-84bf-d292285ac428,.a2c8797e-b126-414c-9b80-f5d33523c8b8,.a7efd067-b0bb-408b-b009-a8458f17fd37,.ad4babd0-515a-4778-85d7-7763a352f3ad,.b467b418-3b96-4a72-ac84-df33bc740b57,.b8df2887-b372-4d9c-a217-58e705fdcdb0,.ea95e177-9d78-4efd-8dc5-a5fdae2a223a,.ecec3e66-cde5-4e4c-8e84-ab71b2298be5,.f542c35f-2fcb-447d-a6f9-c0644c5d95bf{stroke-miterlimit:10}.a1825bbb-7f22-4146-84bf-d292285ac428,.a2c8797e-b126-414c-9b80-f5d33523c8b8,.a7efd067-b0bb-408b-b009-a8458f17fd37,.b467b418-3b96-4a72-ac84-df33bc740b57,.b8df2887-b372-4d9c-a217-58e705fdcdb0,.ea95e177-9d78-4efd-8dc5-a5fdae2a223a,.f542c35f-2fcb-447d-a6f9-c0644c5d95bf{stroke-width:.5px}.ad4babd0-515a-4778-85d7-7763a352f3ad{fill:#443840}.a1825bbb-7f22-4146-84bf-d292285ac428,.ad4babd0-515a-4778-85d7-7763a352f3ad{stroke:#090000}.ad4babd0-515a-4778-85d7-7763a352f3ad{stroke-width:.75px}.a1825bbb-7f22-4146-84bf-d292285ac428{fill:#6b0c05}.afc9811e-ce75-40b7-9ee1-d8d968fe3f0a{fill:#86382f}.ecec3e66-cde5-4e4c-8e84-ab71b2298be5{stroke:#373737}.b467b418-3b96-4a72-ac84-df33bc740b57,.b820f2d6-202a-45b3-818b-fe8a7f58a2d8{fill:#0060a8}.b8df2887-b372-4d9c-a217-58e705fdcdb0{fill:#dc6e05}.ea95e177-9d78-4efd-8dc5-a5fdae2a223a{fill:#12e600}.f542c35f-2fcb-447d-a6f9-c0644c5d95bf{fill:#0b47ce}.a7efd067-b0bb-408b-b009-a8458f17fd37,.e0685e3f-fb39-4161-a204-fb3dce4c3e5d{fill:#282826}.be0f6b6c-4cb7-4826-bbac-fc35a2d8db9b{fill:#ae7a82}.ef7816da-57f4-4c93-ae2d-4fd2584bcdd9{fill:url(#ee731be8-f9d8-4e43-ab20-d5d70da2c78e)}.ad056d11-a210-43a3-a825-5c23e9f422db{fill:url(#bfe6a5e9-190d-460b-aea7-805216fb183e)}.a19d07fd-24ae-4083-9d58-80f14499c283{fill:#0000ef}.ae02533e-6bcb-4c1b-8d12-78865a00a508{fill:#930303}.e1484b53-88ab-4812-8a62-77c6f49a96f5{fill:#e7e7e7}.ea81b283-ca0a-40ec-942c-e83afb1959e6{fill:#2c2b29}.bfbad392-e4ce-4043-b09a-298f519472f2{fill:red}</style></defs><g id="bf82cc4b-dd26-4804-950b-12160ec3efde" data-name="Calque 1"><path id="ac9b1c24-1dd7-4d6f-adda-8f7bea12d571" data-name="ombre" style="opacity:.5;fill:#373735" d="m452.52 589.05 21.51-5.91h11.86l1.59 2.96 237.36 43.3h11.08l11.07 31.39-46.41 37.71-46.42 13.19-8.18-1.32.27-1.85-13.98-2.63-83.61 27.95-73.31 51.57-22.83 6.82-7.77-1.16v-2.63l-16.08-3.03-129.99 34.37 153.84-230.73z"/><g id="f6d04805-42b7-488f-9b3b-39e3ee98706f" data-name="bottom"><path class="beacaf41-e577-4ba6-a78d-b4217d360b0e" d="m36.48 454.82 224.91 39.62v4.35l25.71 6.13-.39 311.34-248.24-47.27-1.99-314.17z"/><path class="a2c8797e-b126-414c-9b80-f5d33523c8b8" d="m202 526.54-78.38-13.74c-3 .19-4.26 3.56-4.26 3.56l.2 85c.69 2.18 3.86 5 3.86 5l74.27 13.46c5.14.49 7.52-5.25 7.52-5.25v-82.69a7.12 7.12 0 0 0-3.21-5.34zm-49.9 22.55-18.69-3.46v-20l2.27-1.88 18.1 3.07-1.78 2.69zm31.45 6.13-18.69-3.46v-20l2.27-1.87 18.1 3.06-1.78 2.67z" transform="translate(-.49 -.26)"/><path class="ad4babd0-515a-4778-85d7-7763a352f3ad" d="m135.19 523.51-2.27 1.88v19.98l18.69 3.46-.1-19.58 1.78-2.67-18.1-3.07zM166.64 529.64l-2.27 1.88v19.98l18.69 3.46-.1-19.58 1.78-2.67-18.1-3.07z"/><path class="a1825bbb-7f22-4146-84bf-d292285ac428" d="M140.63 543.29v-12.85l8.01 1.78v12.56l-8.01-1.49zM171.69 549.13v-12.86l8.01 1.78v12.56l-8.01-1.48z"/><path d="M135.72 543.42v-15.23l2.04.4v15.16l-2.04-.33zM167.17 548.96v-15.23l2.04.4v15.16l-2.04-.33z"/><path class="afc9811e-ce75-40b7-9ee1-d8d968fe3f0a" d="M140.89 530.95v-.35l7.47 1.8.01.43-7.48-1.88zM171.95 536.88v-.29l7.46 1.64.02.35-7.48-1.7z"/><circle cx="192.88" cy="575.11" r="4.25" style="fill:#8b8b8b;stroke-width:.75px;stroke:#090000;stroke-miterlimit:10"/><path class="ecec3e66-cde5-4e4c-8e84-ab71b2298be5" d="M136.78 598.98V587.7l11.96 2.18v11.3l-11.96-2.2zM168.03 604.51v-11.27l11.96 2.17v10.88l-11.96-1.78z"/></g><g id="a7ce5fc6-a106-4741-b8db-b83234f35446" data-name="t molding"><path class="b467b418-3b96-4a72-ac84-df33bc740b57" d="m11.46 450.59-.79-39.76L1 407.66v45.1l27.89 5.54c.59 103.55 1 207.6 1.58 311.15a6.18 6.18 0 0 0 3.53 2.19 12.58 12.58 0 0 0 5 0l-2-316.56zM272.36 497v-41.27l-10.28-1.19-.2 44.51 25.71 6.13s-1.51 313.85 0 315.69 8.77 1.32 8.77 1.32l.93-319.91z" transform="translate(-.49 -.26)"/><path class="b467b418-3b96-4a72-ac84-df33bc740b57" d="m79.21 346.68-8.15-1.3 16.26-218.56 9.04 1.5-17.15 218.36zM329.73 389.11l9.1 1.28 18.49-224.3h-26.37l-.26-90.93-10.06-1.85v94.85l6.04 1.09h20.27l-17.21 219.86z"/><path class="b467b418-3b96-4a72-ac84-df33bc740b57" d="M88.49 127.19s-28.17-.35-29.11-.85c0-31.21.06-62.83 0-94l9.36 2.64.48 89.02z" transform="translate(-.49 -.26)"/><g id="ebc74621-1a1f-468f-9734-c13e80a617c5" data-name="clair"><path class="b467b418-3b96-4a72-ac84-df33bc740b57" d="m.49 407.4 9.69 3.17 68.31-64.07-8.11-1.93L.49 407.4zM261.59 454.28l10.28 1.19 66.96-65.87-8.62-1.6-68.62 66.28zM112.05.26 58.91 32.04l9.36 2.64 52.58-31.12 2.74-1.62-2.57-.36-8.97-1.32zM384.23 40.88l-11.21-.79-52.39 33.22 10.06 1.85 53.54-34.28z"/></g></g><g id="f2a491cc-072f-4b2c-8399-39db1cbdd307" data-name="side"><path class="a2c8797e-b126-414c-9b80-f5d33523c8b8" d="m453.62 308.9.63-159.63-70.02-108.39-53.54 34.28.26 90.93h26.37l-18.49 224.3-66.96 65.08v41.27l24.93 5.28-.93 319.91 8.25-6.32 149.64-543.7-.2 21.51-142.1 516.55-1.61 1.24 6.94-5.32L453.62 308.9zM324.55 799.41l-7.76 6.48 11.99-9.2 124.7-453.24.05-12.13-128.98 468.09zM335.92 791.21l-1.32 1.02 6.86-5.27 111.8-407.65v21.26l.22-57.12-.22 24-117.34 423.76zM343.48 785.41l108.59-83.28 1.18-299.84-105.36 379.75-4.41 3.37z"/><path style="fill:#bf0000;stroke-width:.5px;stroke-miterlimit:10;stroke:#b5b5b5" d="m304.12 815.61 5.73-4.4-5.73 4.4z"/><path class="b467b418-3b96-4a72-ac84-df33bc740b57" d="m453.56 293.42.2-21.51-149.64 543.7 5.73-4.4 1.61-1.24 142.1-516.55z"/><path class="b8df2887-b372-4d9c-a217-58e705fdcdb0" d="M453.62 331v-22.1l-.09 22.42.09-.32zM316.79 805.89z"/><path style="fill:#0084e4;stroke-width:.5px;stroke-miterlimit:10;stroke:#b5b5b5" d="m453.53 331.32.09-22.42-136.83 496.99 7.76-6.48 128.98-468.09z"/><path class="ea95e177-9d78-4efd-8dc5-a5fdae2a223a" d="M453.48 343.45zM328.78 796.69l5.82-4.46-5.82 4.46z"/><path style="fill:#eb0009;stroke-width:.5px;stroke-miterlimit:10;stroke:#b5b5b5" d="m334.6 792.23 1.32-1.02 117.34-423.76.22-24-124.7 453.24 5.82-4.46z"/><path class="f542c35f-2fcb-447d-a6f9-c0644c5d95bf" d="m341.46 786.96 2.02-1.55-2.02 1.55zM453.26 402.26v-1.69l-.01 1.72.01-.03z"/><path style="fill:#fff;stroke-width:.5px;stroke-miterlimit:10;stroke:#b5b5b5" d="m341.46 786.96 2.02-1.55 4.41-3.37 105.36-379.75.01-1.72v-21.26l-111.8 407.65z"/></g><g id="e6c08736-cb49-4418-a379-ea754945844d" data-name="panel"><path class="a7efd067-b0bb-408b-b009-a8458f17fd37" d="m10.97 450.33 250.42 44.11.2-40.16-251.41-43.71.79 39.76z"/><path class="beacaf41-e577-4ba6-a78d-b4217d360b0e" d="m79.86 345.47-69.68 65.1 251.41 43.71L330.21 388 79.86 345.47z"/></g><g id="f6914a6d-20f3-4a3a-b9bf-ed33ba667a9b" data-name="ecran"><path class="a7efd067-b0bb-408b-b009-a8458f17fd37" d="M96.84 129.36 79.7 347.72l250.52 42.43L347.82 168zm224.28 67.76c0 .2-.29.32-.48.49l-10.43 144.83a35.43 35.43 0 0 1-4.3 3.78l1.4.29v10.7s-1.4 4.75-11.08 2.64c-11.19-2.44-178.55-31.91-178.55-31.91l8.72-6.78v-1.39s-2.46.52-6-7l-12.48 2.77h-4l11.34-158.77s4-6.85 10.81-6.59 191.16 30.59 191.16 30.59 6.17 1.07 3.89 16.35z" transform="translate(-.49 -.26)"/><path d="M317.28 180S133 149.66 126.12 149.4s-10.81 6.6-10.81 6.6l-11.74 160.08h4.35l12.29-2.68c-.1-.23-.74-1.57-.85-1.8L131 166.54s2.11-5.54 7.12-7.38l177.49 27.16a20.77 20.77 0 0 1 5.11 9.76l-.05.75c.19-.17.62.66.66.47 3.23-14.06-4.05-17.3-4.05-17.3z" transform="translate(-.49 -.26)" style="fill:#151312"/><path d="m125.32 320-8.56 8s164.63 29.3 178.61 32.24c10.36 2.17 14.43-3.58 14.43-3.58l.61-7.37.39-7.71-4.89 3.84a20.85 20.85 0 0 1-7.73 3.87z" transform="translate(-.49 -.26)" style="fill:#555353"/><path d="M319.5 197.81c.45-.36.83-.69 1.14-1l.66-.52a20.31 20.31 0 0 0-5.72-10l-177.49-27.13c-5 1.84-7.12 7.38-7.12 7.38L119.36 311.6l.32.66c3.54 7.52 6.28 8 6.28 8l.44.08 171.78 28.93a20.85 20.85 0 0 0 7.73-3.87c2.57-1.91 4.89-3.84 4.89-3.84l10.5-145.29c-.44.46-1.05.96-1.8 1.54z" transform="translate(-.49 -.26)" style="fill:#008aa6"/></g><g id="b8b702be-09fa-4739-afb0-c3e21fe05fef" data-name="top"><path id="b6f9bb58-9f8a-4d7b-8884-c8aeb99e8b3f" data-name="marquee" class="a7efd067-b0bb-408b-b009-a8458f17fd37" d="m68.73 123.75 251.47 39.04.43-89.48L68.27 34.68l.46 89.07z"/><path style="stroke-miterlimit:10;stroke:#b5b5b5;fill:#373735" d="m129.32 2.9-5.73-.96-55.32 32.74 252.36 38.63 52.39-33.22L129.32 2.9z"/></g><g id="b091a41a-46cf-4ac6-a55e-a6f5cd5e1dda" data-name="stickp1"><path class="e0685e3f-fb39-4161-a204-fb3dce4c3e5d" d="M68.92 377.27v5.16H62.4v-5.16c-5.06.64-8.77 2.7-8.77 5.16 0 3 5.38 5.35 12 5.35s12-2.39 12-5.35c.06-2.43-3.63-4.52-8.71-5.16z" transform="translate(-.49 -.26)"/><path class="be0f6b6c-4cb7-4826-bbac-fc35a2d8db9b" d="M68.92 377.27v-17.78a12.18 12.18 0 0 1-3 .39 12.4 12.4 0 0 1-3.48-.49v17.88a26.67 26.67 0 0 1 6.52 0z" transform="translate(-.49 -.26)"/><path class="be0f6b6c-4cb7-4826-bbac-fc35a2d8db9b" d="M68.92 382.43v-5.16a26.67 26.67 0 0 0-6.52 0v5.16z" transform="translate(-.49 -.26)"/><path class="ef7816da-57f4-4c93-ae2d-4fd2584bcdd9" d="M68.92 358.89v.6a11.24 11.24 0 0 0 8.77-10.72c0-6.14-5.29-11.11-11.81-11.11s-11.82 5-11.82 11.11a11.22 11.22 0 0 0 8.34 10.62v-.5z" transform="translate(-.49 -.26)"/><path class="be0f6b6c-4cb7-4826-bbac-fc35a2d8db9b" d="M68.92 359.49v-.6H62.4v.5a12.4 12.4 0 0 0 3.48.49 12.18 12.18 0 0 0 3.04-.39z" transform="translate(-.49 -.26)"/><path class="ef7816da-57f4-4c93-ae2d-4fd2584bcdd9" d="M68.92 359.49v-.6H62.4v.5a12.4 12.4 0 0 0 3.48.49 12.18 12.18 0 0 0 3.04-.39z" transform="translate(-.49 -.26)"/></g><g id="a1891157-ac8c-4004-9c63-286e4739df94" data-name="stickp2"><path class="e0685e3f-fb39-4161-a204-fb3dce4c3e5d" d="M198.88 399.49v5.16h-6.53v-5.16c-5 .64-8.77 2.7-8.77 5.16 0 3 5.39 5.35 12 5.35s12-2.39 12-5.35c.07-2.46-3.64-4.52-8.7-5.16z" transform="translate(-.49 -.26)"/><path class="be0f6b6c-4cb7-4826-bbac-fc35a2d8db9b" d="M198.88 399.49v-17.78a12.2 12.2 0 0 1-3 .39 12.83 12.83 0 0 1-3.48-.49v17.88a26.75 26.75 0 0 1 6.53 0z" transform="translate(-.49 -.26)"/><path class="be0f6b6c-4cb7-4826-bbac-fc35a2d8db9b" d="M198.88 404.65v-5.16a26.75 26.75 0 0 0-6.53 0v5.16z" transform="translate(-.49 -.26)"/><path class="ad056d11-a210-43a3-a825-5c23e9f422db" d="M198.88 381.11v.6a11.24 11.24 0 0 0 8.77-10.71c0-6.14-5.29-11.11-11.82-11.11S184 364.85 184 371a11.22 11.22 0 0 0 8.34 10.62v-.5z" transform="translate(-.49 -.26)"/><path class="be0f6b6c-4cb7-4826-bbac-fc35a2d8db9b" d="M198.88 381.71v-.6h-6.53v.5a12.83 12.83 0 0 0 3.48.49 12.2 12.2 0 0 0 3.05-.39z" transform="translate(-.49 -.26)"/><path class="ad056d11-a210-43a3-a825-5c23e9f422db" d="M198.88 381.71v-.6h-6.53v.5a12.83 12.83 0 0 0 3.48.49 12.2 12.2 0 0 0 3.05-.39z" transform="translate(-.49 -.26)"/></g><g id="b4f4e2a0-3a6e-4db4-9c82-68b8cbf2554b" data-name="boutons P1"><g id="b4147d6b-a949-44fd-8c84-a19a150c682d" data-name="4"><path class="a19d07fd-24ae-4083-9d58-80f14499c283" d="M92.54 389.14c-3.86 0-8.12 1.53-8.12 4.87 0 2.95 4.1 4.62 7.94 4.62 4.11 0 8-1.73 8-4.88-.04-2.35-3.88-4.61-7.82-4.61zm-.18 8.63c-3.86 0-7-1.74-7-3.89s3.13-3.89 7-3.89 7 1.74 7 3.89-3.14 3.89-7 3.89z" transform="translate(-.49 -.26)"/><path d="M92.36 390c-3.86 0-7 1.74-7 3.89s3.13 3.89 7 3.89 7-1.74 7-3.89-3.14-3.89-7-3.89z" transform="translate(-.49 -.26)" style="fill:url(#b0768a73-75f1-4298-ba33-e91de8f2f2f3)"/></g><g id="f671fad5-9a60-4fa9-a04a-d0166205fae8" data-name="5"><path class="a19d07fd-24ae-4083-9d58-80f14499c283" d="M114.79 389.14c-3.86 0-8.12 1.53-8.12 4.87 0 2.95 4.1 4.62 7.94 4.62 4.11 0 8-1.73 8-4.88-.04-2.35-3.88-4.61-7.82-4.61zm-.18 8.63c-3.86 0-7-1.74-7-3.89s3.13-3.89 7-3.89 7 1.74 7 3.89-3.14 3.89-7 3.89z" transform="translate(-.49 -.26)"/><path d="M114.61 390c-3.86 0-7 1.74-7 3.89s3.13 3.89 7 3.89 7-1.74 7-3.89-3.14-3.89-7-3.89z" transform="translate(-.49 -.26)" style="fill:url(#bd82c87c-7e47-455b-a8bd-458f14672cf4)"/></g><g id="b20f32bd-a18d-49d1-af55-89416a1ed013" data-name="6"><path class="a19d07fd-24ae-4083-9d58-80f14499c283" d="M133.35 395.3c-3.86 0-8.13 1.53-8.13 4.87 0 3 4.11 4.62 7.95 4.62 4.1 0 8-1.73 8-4.88-.04-2.35-3.88-4.61-7.82-4.61zm-.18 8.63c-3.86 0-7-1.74-7-3.89s3.13-3.89 7-3.89 7 1.74 7 3.89-3.17 3.89-7 3.89z" transform="translate(-.49 -.26)"/><path d="M133.17 396.15c-3.86 0-7 1.74-7 3.89s3.13 3.89 7 3.89 7-1.74 7-3.89-3.17-3.89-7-3.89z" transform="translate(-.49 -.26)" style="fill:url(#befe17dd-9a89-4a01-a6ef-829b621d20db)"/></g><g id="eb6d92de-b040-4830-b0aa-845ffb7b1164" data-name="3"><path class="a19d07fd-24ae-4083-9d58-80f14499c283" d="M139.39 383c-3.86 0-8.13 1.53-8.13 4.88 0 2.95 4.11 4.61 8 4.61 4.1 0 8-1.73 8-4.88-.09-2.31-3.93-4.61-7.87-4.61zm-.18 8.63c-3.86 0-7-1.74-7-3.89s3.13-3.89 7-3.89 7 1.75 7 3.89-3.14 3.93-7 3.93z" transform="translate(-.49 -.26)"/><path d="M139.21 383.89c-3.86 0-7 1.75-7 3.89s3.13 3.89 7 3.89 7-1.74 7-3.89-3.14-3.89-7-3.89z" transform="translate(-.49 -.26)" style="fill:url(#a70e3922-9c0e-4688-9a18-71b3164868af)"/></g><g id="fca7690a-6fac-4e53-b003-0d95fc2b8660" data-name="2"><path class="a19d07fd-24ae-4083-9d58-80f14499c283" d="M121.79 377.35c-3.86 0-8.12 1.53-8.12 4.88 0 2.95 4.1 4.61 7.94 4.61 4.11 0 8-1.73 8-4.88-.04-2.34-3.88-4.61-7.82-4.61zm-.18 8.64c-3.86 0-7-1.74-7-3.89s3.13-3.89 7-3.89 7 1.74 7 3.89-3.14 3.9-7 3.9z" transform="translate(-.49 -.26)"/><path d="M121.61 378.21c-3.86 0-7 1.74-7 3.89s3.13 3.89 7 3.89 7-1.74 7-3.89-3.14-3.89-7-3.89z" transform="translate(-.49 -.26)" style="fill:url(#b7ed1705-1f82-4fc8-9a9f-0708487c673d)"/></g><g id="b740fc01-ae0a-4449-b383-24434960fff1" data-name="1"><path class="a19d07fd-24ae-4083-9d58-80f14499c283" d="M100.5 377.78c-3.86 0-8.13 1.53-8.13 4.88 0 2.95 4.11 4.62 7.95 4.62 4.1 0 8-1.73 8-4.88-.04-2.35-3.88-4.62-7.82-4.62zm-.18 8.64c-3.86 0-7-1.74-7-3.89s3.13-3.89 7-3.89 7 1.74 7 3.89-3.14 3.89-7 3.89z" transform="translate(-.49 -.26)"/><path d="M100.32 378.64c-3.86 0-7 1.74-7 3.89s3.13 3.89 7 3.89 7-1.74 7-3.89-3.14-3.89-7-3.89z" transform="translate(-.49 -.26)" style="fill:url(#e97aa521-4b01-4af6-994b-d8c432cbdb9b)"/></g></g><g id="bdcac498-93cc-4cfb-b306-32a03691c883" data-name="boutons P2"><g id="ea089b23-c1e0-4dbb-884e-97eba5bc9c83" data-name="1"><path class="ae02533e-6bcb-4c1b-8d12-78865a00a508" d="M225.69 399.93c-3.86 0-8.13 1.53-8.13 4.87 0 2.95 4.11 4.62 7.95 4.62 4.1 0 8-1.73 8-4.88-.04-2.35-3.88-4.61-7.82-4.61zm-.18 8.63c-3.86 0-7-1.74-7-3.89s3.13-3.89 7-3.89 7 1.74 7 3.89-3.14 3.89-7 3.89z" transform="translate(-.49 -.26)"/><path d="M225.51 400.78c-3.86 0-7 1.74-7 3.89s3.13 3.89 7 3.89 7-1.74 7-3.89-3.14-3.89-7-3.89z" transform="translate(-.49 -.26)" style="fill:url(#b3009637-9f99-4aeb-b316-b9bbce0a3448)"/></g><g id="b1c9b4b8-fbdc-480f-8a00-1607e1d59b49" data-name="2"><path class="ae02533e-6bcb-4c1b-8d12-78865a00a508" d="M247 399.49c-3.86 0-8.13 1.54-8.13 4.88 0 2.95 4.11 4.62 7.95 4.62 4.1 0 8-1.73 8-4.88-.07-2.35-3.91-4.62-7.82-4.62zm-.18 8.64c-3.86 0-7-1.74-7-3.89s3.13-3.89 7-3.89 7 1.74 7 3.89-3.17 3.89-7.03 3.89z" transform="translate(-.49 -.26)"/><path d="M246.79 400.35c-3.86 0-7 1.74-7 3.89s3.13 3.89 7 3.89 7-1.74 7-3.89-3.14-3.89-7-3.89z" transform="translate(-.49 -.26)" style="fill:url(#e0310f9d-9531-453b-9ce3-13852b3d940d)"/></g><g id="ed687434-dbb5-4ccf-9c4b-93734c5786df" data-name="3"><path class="ae02533e-6bcb-4c1b-8d12-78865a00a508" d="M264.58 405.18c-3.86 0-8.12 1.53-8.12 4.88 0 2.95 4.1 4.61 7.94 4.61 4.1 0 8-1.73 8-4.88-.04-2.35-3.88-4.61-7.82-4.61zm-.18 8.64c-3.86 0-7-1.75-7-3.89s3.13-3.89 7-3.89 7 1.74 7 3.89-3.14 3.89-7 3.89z" transform="translate(-.49 -.26)"/><path d="M264.4 406c-3.86 0-7 1.74-7 3.89s3.13 3.89 7 3.89 7-1.75 7-3.89-3.14-3.89-7-3.89z" transform="translate(-.49 -.26)" style="fill:url(#f4c0dac6-1b0e-43a4-bf58-3f768fa6741a)"/></g><g id="a58a87d9-199b-4fac-9a5c-d93c989685a6" data-name="4"><path class="ae02533e-6bcb-4c1b-8d12-78865a00a508" d="M258.54 417.44c-3.86 0-8.13 1.53-8.13 4.88 0 2.95 4.11 4.61 8 4.61 4.1 0 8-1.73 8-4.88-.09-2.35-3.93-4.61-7.87-4.61zm-.18 8.64c-3.86 0-7-1.75-7-3.89s3.13-3.89 7-3.89 7 1.74 7 3.89-3.14 3.89-7 3.89z" transform="translate(-.49 -.26)"/><path d="M258.36 418.3c-3.86 0-7 1.74-7 3.89s3.13 3.89 7 3.89 7-1.75 7-3.89-3.14-3.89-7-3.89z" transform="translate(-.49 -.26)" style="fill:url(#add3a578-fb3f-49d6-b85c-ab3b0836e466)"/></g><g id="b39de2ff-274e-404a-9cb9-4eb5c2131afc" data-name="5"><path class="ae02533e-6bcb-4c1b-8d12-78865a00a508" d="M240 411.28c-3.86 0-8.13 1.53-8.13 4.88 0 2.95 4.11 4.61 7.95 4.61 4.1 0 8-1.73 8-4.88-.07-2.35-3.91-4.61-7.82-4.61zm-.18 8.63c-3.86 0-7-1.74-7-3.89s3.13-3.89 7-3.89 7 1.75 7 3.89-3.17 3.89-7.03 3.89z" transform="translate(-.49 -.26)"/><path d="M239.79 412.13c-3.86 0-7 1.75-7 3.89s3.13 3.89 7 3.89 7-1.74 7-3.89-3.14-3.89-7-3.89z" transform="translate(-.49 -.26)" style="fill:url(#e2785225-b3aa-4284-b202-45529cf8f224)"/></g><g id="bc082c45-aa8e-4005-8121-79c5494f1e48" data-name="6"><path class="ae02533e-6bcb-4c1b-8d12-78865a00a508" d="M217.73 411.28c-3.86 0-8.13 1.53-8.13 4.88 0 2.95 4.11 4.61 8 4.61 4.1 0 8-1.73 8-4.88-.09-2.35-3.93-4.61-7.87-4.61zm-.18 8.63c-3.86 0-7-1.74-7-3.89s3.13-3.89 7-3.89 7 1.75 7 3.89-3.14 3.89-7 3.89z" transform="translate(-.49 -.26)"/><path d="M217.55 412.13c-3.86 0-7 1.75-7 3.89s3.13 3.89 7 3.89 7-1.74 7-3.89-3.14-3.89-7-3.89z" transform="translate(-.49 -.26)" style="fill:url(#e6db5861-b8ef-420b-b5f7-c69389a71956)"/></g></g><path class="e1484b53-88ab-4812-8a62-77c6f49a96f5" d="M228.57 237.19v.07l-5.92-1v-.08zM236.56 238.53a.13.13 0 0 0 0 .06l-5.72-1v-.06z" transform="translate(-.49 -.26)"/><path class="ea81b283-ca0a-40ec-942c-e83afb1959e6" d="m210.17 273.38-65.56-11c-.87-.14-.87-.14-.74-.92.25-1.54.47-3.08.75-4.61.78-4.31 1.48-8.63 2.22-12.95.09-.48.22-1 .29-1.44 0-.18.12-.23.31-.19l.75.13 119.31 19.98a16.13 16.13 0 0 1 4.69 1.42 11.54 11.54 0 0 1 5.67 5.9 8.36 8.36 0 0 1 .63 3.88c0 .38-.08.76-.15 1.14l-1.56 9.36c-.07.39-.13.42-.54.36l-40.11-6.72zm14.68-7.7c-.4 2.35-.79 4.71-1.19 7.07 0 .23 0 .34.3.38 1 .15 1.95.32 2.93.49.51.09.51.09.59-.37q.69-4.22 1.4-8.43c0-.08 0-.21.12-.22s.13.1.17.17c1.69 3.14 3.43 6.26 5.06 9.42a2.38 2.38 0 0 0 3.55.6c.9-.94 1.91-1.79 2.87-2.68l4.89-4.53c.08-.07.15-.22.26-.17s0 .2 0 .31v.12c-.47 2.79-.93 5.58-1.4 8.37 0 .25 0 .35.31.4 1 .16 2 .32 3.06.51.34.07.45 0 .49-.32l2.32-13.83a1.32 1.32 0 0 0-.25-1 2.34 2.34 0 0 0-3.26-.37l-2.16 2-8.12 7.4c-.25.23-.28.22-.45-.08-2.2-4.06-4.42-8.11-6.61-12.17a2.14 2.14 0 0 0-1.43-1.06A1.74 1.74 0 0 0 226 259zm-4.51-.71c.38-2.31.76-4.61 1.16-6.92a1.32 1.32 0 0 0-.45-1.21 2.4 2.4 0 0 0-3.17 0c-2.39 2.24-4.82 4.43-7.24 6.63l-2.95 2.7c-.13.12-.23.25-.37 0l-3.44-6.31c-1.1-2-2.19-4-3.3-6a2.24 2.24 0 0 0-2.21-1 1.52 1.52 0 0 0-1.5 1.37q-1.16 6.86-2.3 13.71c0 .28.05.37.35.41 1 .15 2 .32 3 .5.44.07.45.08.51-.3.46-2.73.91-5.46 1.37-8.19 0-.13 0-.27.06-.4s0-.16.11-.17.1.08.13.14.18.34.28.51c1.63 3 3.29 6 4.88 9.07a2.34 2.34 0 0 0 3.35.6c.47-.47 1-.91 1.48-1.37l6.5-6c.06-.05.09-.14.19-.11s.07.14.06.22c-.14.81-.28 1.62-.41 2.44-.35 2.06-.69 4.13-1 6.2 0 .22 0 .32.29.36l3 .5c.44.07.45.07.52-.31q.51-3.6 1.1-7.04zm33.15 5.67c-.38 2.28-.76 4.57-1.15 6.85-.06.31.06.41.38.45 1 .16 2 .32 3 .5.33.07.45 0 .5-.31.16-1 .35-2.08.51-3.12 0-.23.12-.33.4-.28l12.77 2.14c.33.05.39.18.34.45-.18 1-.34 2.08-.53 3.12-.05.25 0 .35.32.4 1 .15 2 .32 3 .49.45.07.46.07.53-.34l1.22-7.32a6.88 6.88 0 0 0-2.51-6.52 12.61 12.61 0 0 0-6.36-3c-2.38-.41-4.76-.8-7.13-1.19-.72-.12-1.45-.26-2.17-.35a1.6 1.6 0 0 0-1.91 1.29c-.46 2.27-.83 4.5-1.21 6.74zm-62.24-10.42 1.14-6.79a1.24 1.24 0 0 0 0-.47 1.91 1.91 0 0 0-1.63-1.33c-1.55-.26-3.1-.53-4.65-.77-1.84-.3-3.66-.71-5.51-.87a11.55 11.55 0 0 0-7 1.39 6.55 6.55 0 0 0-3.37 4.67q-.63 3.74-1.25 7.47c-.07.4-.07.4.36.47 1 .17 2 .32 2.93.5.33.06.45 0 .5-.31.15-1 .34-2.06.5-3.09 0-.29.17-.35.48-.3l12.67 2.12c.34 0 .42.16.37.46-.19 1-.35 2.08-.54 3.11 0 .26 0 .36.32.4 1 .16 2 .32 3 .51.33.06.44 0 .49-.32.42-2.28.81-4.57 1.19-6.85zm-38.3 1 6.47 1.08a7.76 7.76 0 0 0 2.76 0 3.93 3.93 0 0 0 3.34-2.92c.64-3.78 1.26-7.55 1.9-11.33.05-.27 0-.37-.33-.42-1-.15-2-.32-3-.5-.36-.07-.46 0-.51.33q-.92 5.58-1.86 11.15a1.08 1.08 0 0 1-1.24.95 4.41 4.41 0 0 1-.73-.08c-1-.18-2-.37-3.06-.54l-7-1.15c-.28-.05-.35-.15-.31-.38.11-.59.19-1.18.31-1.76.06-.28 0-.4-.35-.45-.84-.13-1.68-.26-2.52-.42-.34-.07-.44 0-.49.32-.24 1.49-.49 3-.74 4.45-.07.42-.07.42.42.5zM230.83 237.63l5.72 1c.15.09.15.2.13.35-.37 2.17-.73 4.34-1.11 6.51 0 .29 0 .38.34.43 3.09.5 6.18 1 9.27 1.54.32.05.34.16.31.44-.06.67-.23 1.33-.32 2-.22 1.55-.54 3.09-.8 4.63-.1.59-.17 1.19-.26 1.78 0 .2-.12.31-.4.26L228.57 254c-.65-.11-.65-.11-.56-.68q1.29-7.69 2.57-15.38c.02-.15.02-.31.25-.31zm3.94 12.7c-.13.78-.25 1.56-.39 2.34-.05.27 0 .38.33.43 1.06.16 2.11.34 3.16.53.32.06.44 0 .49-.31.25-1.55.51-3.1.78-4.66 0-.24 0-.34-.31-.38q-1.62-.25-3.24-.54c-.28-.05-.39 0-.43.27-.16.78-.26 1.55-.39 2.32zM255.63 249.17c2.55.43 5.09.86 7.64 1.27.34.06.42.17.37.47q-.7 4.14-1.39 8.3c-.07.37-.1.4-.52.33L246.38 257c-.27-.05-.34-.16-.3-.39q.72-4.21 1.41-8.43c0-.28.18-.33.47-.28 2.55.44 5.11.86 7.67 1.29zm1.31 4.88c.14-.8.27-1.6.41-2.4 0-.23 0-.36-.3-.4l-3.44-.58c-.26 0-.38 0-.42.27l-.81 4.85c0 .25.05.36.33.41l3.37.56c.3.06.42 0 .46-.3.13-.8.27-1.6.4-2.41zM173.53 244.78l-7.64-1.27c-.31 0-.37-.15-.33-.42q.72-4.2 1.42-8.42c0-.25.13-.32.4-.27l15.36 2.6c.41.07.43.11.37.49-.26 1.55-.53 3.11-.78 4.66 0 .31-.17.37-.5.32-3.07-.53-6.15-1-9.22-1.55-.46-.08-.46-.08-.52.32s-.11.7-.19 1 0 .35.31.4c2.06.33 4.11.68 6.17 1l3.16.53c.32.05.42.17.37.44s-.14.74-.19 1.11-.18.38-.51.32zm.92-5.45c.56.1 1.13.18 1.69.29.25 0 .35 0 .38-.25 0-.39.12-.78.2-1.17 0-.21 0-.32-.26-.36l-3.41-.57c-.22 0-.33 0-.36.23q-.08.62-.18 1.23c0 .23.06.3.29.33.55.07 1.1.17 1.65.27zM211.28 241.75l7.64 1.28c.44.07.5.14.42.52-.43 2-.7 4-1.05 6-.14.74-.27 1.48-.37 2.23 0 .29-.15.37-.49.31-2.08-.36-4.17-.7-6.26-1l-9-1.51c-.42-.07-.43-.08-.37-.47.26-1.56.53-3.11.77-4.67 0-.32.18-.37.52-.31l9.16 1.54c.46.07.46.07.53-.33s.09-.67.17-1 0-.4-.36-.46c-2.34-.37-4.68-.77-7-1.16l-2.31-.38c-.24 0-.32-.12-.28-.34a10.85 10.85 0 0 0 .21-1.27c0-.27.16-.31.43-.26l5.37.9 2.27.38zm-1.15 7.25c.55.09 1.11.17 1.66.27.21 0 .33 0 .36-.21l.21-1.23c0-.19-.05-.29-.27-.33l-3.33-.56c-.24 0-.35 0-.38.24 0 .4-.11.79-.19 1.17-.05.23.05.33.29.37.52.07 1.1.17 1.65.28zM268.74 251.36c.87.15 1.74.31 2.62.44.31 0 .38.18.34.43-.08.4-.13.8-.21 1.2 0 .21 0 .3.27.34l3.36.56c.28 0 .38 0 .41-.27.06-.41.15-.82.2-1.23 0-.23.15-.27.37-.24l5.4.91c.21 0 .3.13.27.33-.08.43-.16.86-.22 1.29 0 .23-.16.29-.41.25-.44-.09-.89-.15-1.34-.24-.24 0-.33 0-.36.24-.05.4-.13.8-.19 1.2 0 .23-.15.3-.4.25-.47-.08-.94-.15-1.41-.24-.17 0-.24 0-.29.17-.13.44-.08.91-.25 1.34-.07.18.07.24.24.27l1.38.22c.28 0 .38.15.33.41s-.13.78-.21 1.17c0 .21.05.31.28.34l1.34.22c.25 0 .34.13.3.36-.09.42-.17.84-.22 1.27 0 .22-.15.27-.36.24l-.65-.11-4.62-.77c-.45-.08-.45-.08-.38-.49s.12-.76.19-1.14c.05-.21 0-.3-.27-.34l-3.44-.58c-.22 0-.29 0-.31.21-.06.4-.16.8-.19 1.21s-.19.37-.5.32l-4.72-.8c-1.16-.19-.93-.1-.8-1 0-.25.09-.49.12-.74s.16-.29.4-.25c.45.09.9.15 1.34.24.27.05.39 0 .42-.26s.14-.78.19-1.17.16-.31.41-.26c.46.09.92.15 1.37.24.21 0 .3 0 .32-.2.06-.43.13-.85.22-1.27 0-.21-.05-.28-.26-.31l-1.38-.23c-.24 0-.34-.12-.29-.36s.14-.78.21-1.17c0-.23 0-.35-.31-.38-.45-.06-.9-.15-1.35-.22-.25 0-.34-.14-.29-.37q.12-.63.21-1.26c0-.24.16-.29.4-.24zM222.64 236.28l5.92 1a.42.42 0 0 1 .05.36q-1.31 7.77-2.6 15.56c0 .28-.17.37-.48.31s-.88-.19-1.33-.26l-3.89-.62c-.46-.08-.45-.08-.39-.49q1.31-7.74 2.6-15.49c.02-.14 0-.28.12-.37zM191.71 247.82l-7.71-1.28c-.3 0-.4-.14-.35-.43q.72-4.2 1.41-8.4c0-.26.15-.32.42-.27l15.39 2.56c.31.05.42.18.36.45s-.11.72-.19 1.08-.13.41-.55.34l-4.16-.7-5.06-.85c-.28 0-.37 0-.41.25-.22 1.39-.46 2.78-.69 4.17a2.74 2.74 0 0 1 0 .28c-.11.6-.11.6.58.72l8.92 1.49c.42.07.45.11.39.5s-.15.72-.18 1.08-.19.35-.48.3c-.56-.11-1.12-.2-1.68-.29z" transform="translate(-.49 -.26)"/><path d="M291.07 282.1c-.25 1.47-.49 2.94-.74 4.41-.07.42-.07.42-.51.34l-4.27-.71c-.27 0-.37-.13-.3-.37s.07-.41.11-.62-.06-.27-.25-.29l-.49-.05c-.39-.06-.49 0-.51.37v.19c0 .43-.14.5-.63.42-1.39-.23-2.79-.47-4.19-.69-.32-.05-.4-.19-.36-.45.5-3 1-5.91 1.49-8.86.06-.36.14-.42.55-.33 2.95.58 5.92 1 8.87 1.52.52.09 1 .13 1.55.22s.47.1.4.52c-.24 1.46-.49 2.92-.73 4.38zm-8.37-.17 1.58.27c.22 0 .32 0 .35-.22.1-.59.2-1.19.31-1.79 0-.21-.06-.3-.29-.34l-3.13-.52c-.21 0-.31 0-.35.22-.08.59-.18 1.19-.29 1.79 0 .21 0 .31.27.34zm5.47-1.49c-.52-.08-1-.16-1.55-.26-.25-.05-.36 0-.39.24-.09.59-.19 1.19-.29 1.78-.05.23.05.29.28.33 1 .16 2 .33 3 .51.28.05.39 0 .43-.27.08-.56.17-1.13.28-1.69 0-.23 0-.35-.3-.39-.48-.08-.97-.17-1.46-.25z" transform="translate(-.49 -.26)" style="fill:#2785db"/><path d="M292.87 271.31c-.25 1.48-.5 3-.74 4.44-.07.38-.11.4-.52.34l-2.86-.48c-.41-.07-.49-.18-.43-.54.14-.85.28-1.71.43-2.56a.34.34 0 0 1 0-.1c.2-.63.12-.52.72-.43l1.48.25c.26 0 .4 0 .44-.25.09-.59.19-1.18.29-1.76 0-.21 0-.33-.3-.38l-8-1.34c-.26 0-.39.05-.42.28-.09.57-.19 1.14-.28 1.7 0 .23.05.36.31.41l3.06.52a.25.25 0 0 0 .33-.17 1.81 1.81 0 0 0 .12-.64c0-.19.11-.24.27-.29a.45.45 0 0 1 .2 0c.85.09.89.14.77.88-.21 1.26-.43 2.51-.63 3.77 0 .26-.17.34-.43.3l-5.43-.91c-.49-.08-.55-.15-.48-.58.49-3 1-5.91 1.48-8.87 0-.17.09-.23.28-.22s.55 0 .83.08l9.77 1.63c.55.09.55.1.47.6l-.72 4.32z" transform="translate(-.49 -.26)" style="fill:#44c047"/><path d="M289.84 254.78c1.75.29 3.49.59 5.24.87.3 0 .4.13.35.42-.51 3-1 5.95-1.49 8.92-.05.3-.16.38-.49.32-1.4-.25-2.8-.48-4.2-.71-.36-.06-.42-.15-.36-.47 0-.12.06-.23.08-.34.08-.47.08-.47-.46-.56h-.21c-.5-.08-.51-.08-.54.39 0 .18-.1.34-.11.52s-.18.19-.35.16l-4.44-.74c-.23 0-.32-.15-.29-.35.17-1 .35-2 .51-3.06 0-.28.23-.27.45-.23l1.83.3c.8.15 1.61.24 2.4.44.25.06.44 0 .48-.27.07-.57.17-1.14.28-1.7.05-.27 0-.38-.34-.43-1.42-.22-2.83-.47-4.24-.7-.29 0-.4-.12-.35-.4.18-1 .33-2 .48-3 0-.26.15-.33.44-.28 1.77.31 3.55.6 5.33.9zm1.49 6.43c.51.08 1 .16 1.54.26.22 0 .35 0 .39-.21.09-.61.19-1.22.3-1.82 0-.2 0-.32-.27-.35l-3.09-.52c-.22 0-.32 0-.35.21-.09.63-.2 1.25-.31 1.88 0 .18 0 .26.24.29z" transform="translate(-.49 -.26)" style="fill:#eb1416"/><path class="ea81b283-ca0a-40ec-942c-e83afb1959e6" d="m156.94 232.66 7.54 1.26c.53.09.53.09.45.57s-.13.7-.17 1-.16.33-.44.28l-9.3-1.57c-.33-.05-.41 0-.45.3-.35 2.17-.72 4.33-1.07 6.49-.05.31-.2.36-.51.31l-5.19-.87c-.3 0-.4-.14-.35-.42q.72-4.19 1.4-8.39c.05-.31.19-.34.48-.29z" transform="translate(-.49 -.26)"/><path class="e1484b53-88ab-4812-8a62-77c6f49a96f5" d="M224.85 265.68 226 259a1.74 1.74 0 0 1 2.34-1.33 2.14 2.14 0 0 1 1.43 1.06c2.19 4.06 4.41 8.11 6.61 12.17.17.3.2.31.45.08l8.14-7.43 2.16-2a2.34 2.34 0 0 1 3.26.37 1.32 1.32 0 0 1 .25 1q-1.17 6.91-2.32 13.83c0 .29-.15.39-.49.32-1-.19-2-.35-3.06-.51-.3-.05-.36-.15-.31-.4.47-2.79.93-5.58 1.4-8.37v-.12c0-.04.11-.25 0-.31s-.18.1-.26.17l-4.89 4.53c-1 .89-2 1.74-2.87 2.68a2.38 2.38 0 0 1-3.55-.6c-1.63-3.16-3.37-6.28-5.06-9.42 0-.07-.06-.19-.17-.17s-.11.14-.12.22l-1.4 8.43c-.08.46-.08.46-.59.37-1-.17-1.95-.34-2.93-.49-.28 0-.34-.15-.3-.38.4-2.36.79-4.72 1.19-7.07zM220.34 265q-.59 3.46-1.16 6.95c-.07.38-.08.38-.52.31l-3-.5c-.27 0-.32-.14-.29-.36.36-2.07.7-4.14 1-6.2.13-.82.27-1.63.41-2.44 0-.08.06-.18-.06-.22s-.13.06-.19.11l-6.5 6c-.5.46-1 .9-1.48 1.37a2.34 2.34 0 0 1-3.35-.6c-1.59-3-3.25-6.05-4.88-9.07-.1-.17-.19-.34-.28-.51s-.05-.14-.13-.14-.1.1-.11.17 0 .27-.06.4c-.46 2.73-.91 5.46-1.37 8.19-.06.38-.07.37-.51.3-1-.18-2-.35-3-.5-.3 0-.4-.13-.35-.41q1.16-6.86 2.3-13.71a1.52 1.52 0 0 1 1.5-1.37 2.24 2.24 0 0 1 2.21 1c1.11 2 2.2 4 3.3 6l3.44 6.31c.14.27.24.14.37 0l2.95-2.7c2.42-2.2 4.85-4.39 7.24-6.63a2.4 2.4 0 0 1 3.17 0 1.32 1.32 0 0 1 .45 1.21c-.4 2.31-.78 4.61-1.16 6.92zM253.49 270.64c.38-2.24.75-4.47 1.13-6.7a1.6 1.6 0 0 1 1.91-1.29c.72.09 1.45.23 2.17.35 2.37.39 4.75.78 7.13 1.19a12.61 12.61 0 0 1 6.36 3 6.88 6.88 0 0 1 2.51 6.52q-.6 3.66-1.22 7.32c-.07.41-.08.41-.53.34-1-.17-2-.34-3-.49-.29 0-.37-.15-.32-.4.19-1 .35-2.08.53-3.12.05-.27 0-.4-.34-.45l-12.77-2.14c-.28-.05-.36 0-.4.28-.16 1-.35 2.08-.51 3.12-.05.3-.17.38-.5.31-1-.18-2-.34-3-.5-.32 0-.44-.14-.38-.45.39-2.28.77-4.57 1.15-6.85zM264 273l6.37 1.07c.3 0 .43 0 .46-.28s.08-.52.12-.78a4.27 4.27 0 0 0-1.54-4.2 8.48 8.48 0 0 0-4-1.85c-2.25-.43-4.52-.78-6.77-1.17-.34-.06-.36.12-.4.33q-.44 2.69-.9 5.37c0 .29 0 .4.36.46zM191.25 260.22c-.38 2.28-.77 4.57-1.14 6.85-.05.3-.16.38-.49.32-1-.19-2-.35-3-.51-.29 0-.36-.14-.32-.4.19-1 .35-2.08.54-3.11.05-.3 0-.41-.37-.46l-12.67-2.12c-.31-.05-.44 0-.48.3-.16 1-.35 2.05-.5 3.09 0 .3-.17.37-.5.31-1-.18-1.95-.33-2.93-.5-.43-.07-.43-.07-.36-.47q.62-3.74 1.25-7.47a6.55 6.55 0 0 1 3.37-4.67 11.55 11.55 0 0 1 7-1.39c1.85.16 3.67.57 5.51.87 1.55.24 3.1.51 4.65.77a1.91 1.91 0 0 1 1.59 1.37 1.24 1.24 0 0 1 0 .47l-1.14 6.79zm-10.67-1.14c2.11.35 4.22.7 6.33 1.07.32.05.44 0 .48-.29.3-1.81.6-3.63.91-5.44 0-.26 0-.37-.33-.42q-3-.48-6-1a11.11 11.11 0 0 0-3.77 0 4.85 4.85 0 0 0-3.81 2.54 7.49 7.49 0 0 0-.52 2c-.07.4-.07.41.4.48zM153 261.25l-7-1.17c-.49-.08-.49-.08-.42-.5.25-1.48.5-3 .74-4.45.05-.28.15-.39.49-.32.84.16 1.68.29 2.52.42.31.05.41.17.35.45-.12.58-.2 1.17-.31 1.76 0 .23 0 .33.31.38l7 1.15c1 .17 2 .36 3.06.54a4.41 4.41 0 0 0 .73.08 1.08 1.08 0 0 0 1.24-.95q.94-5.58 1.86-11.15c0-.3.15-.4.51-.33 1 .18 2 .35 3 .5.3.05.38.15.33.42-.64 3.78-1.26 7.55-1.9 11.33a3.93 3.93 0 0 1-3.34 2.92 7.76 7.76 0 0 1-2.76 0l-6.41-1.08z" transform="translate(-.49 -.26)"/><path class="ea81b283-ca0a-40ec-942c-e83afb1959e6" d="m264 273-6.33-1c-.34-.06-.41-.17-.36-.46q.47-2.68.9-5.37c0-.21.06-.39.4-.33 2.25.39 4.52.74 6.77 1.17a8.48 8.48 0 0 1 4 1.85 4.27 4.27 0 0 1 1.54 4.2c0 .26-.1.52-.12.78s-.16.33-.46.28zM180.58 259.08l-6.3-1.06c-.47-.07-.47-.08-.4-.48a7.49 7.49 0 0 1 .52-2 4.85 4.85 0 0 1 3.81-2.54 11.11 11.11 0 0 1 3.77 0q3 .51 6 1c.31.05.38.16.33.42-.31 1.81-.61 3.63-.91 5.44 0 .29-.16.34-.48.29-2.11-.37-4.22-.72-6.33-1.07z" transform="translate(-.49 -.26)"/></g><g id="b5862d81-4e6b-483a-a351-1cf2c14d3b22" data-name="Calque 2"><g id="e806dd86-214a-4fb1-94d7-871c6ee62aa8" data-name="Calque 1-2"><path class="b820f2d6-202a-45b3-818b-fe8a7f58a2d8" d="m116 90.81 20.62 3.13c8.45 1.29 15.32-4 15.34-11.77S145.14 67 136.7 65.76l-5.35-.76a.87.87 0 0 1-.76-.83.61.61 0 0 1 .76-.59L152 66.65v-6l-20.6-3.09c-4-.6-7.22 1.91-7.24 5.58s3.22 7.14 7.19 7.74l5.38.88c4.84.73 8.75 4.93 8.73 9.39s-3.94 7.48-8.77 6.74L116 84.78v6" transform="translate(-.49 -.26)"/><path class="b820f2d6-202a-45b3-818b-fe8a7f58a2d8" d="m116 83.37 20.62 3.14c4 .61 7.24-1.89 7.25-5.57s-3.21-7.15-7.21-7.76l-5.38-.87c-4.82-.72-8.72-4.92-8.71-9.38s3.94-7.45 8.76-6.73L152 59.29v-6l-20.6-3.07C123 49 116.13 54.21 116.1 62s6.78 15.09 15.21 16.37l5.32.81a.87.87 0 0 1 .75.81.6.6 0 0 1-.75.57l-20.57-3.11v6M168 92.72c-3.6-.54-6.54-3.64-6.53-7V66.63c0-3.24 3-5.47 6.54-4.93L190.2 65v-6l-22.15-3.3c-7.19-1.08-13 3.4-13 10v19c0 6.62 5.79 12.88 13 14l22.09 3.39v-6L168 92.72" transform="translate(-.49 -.26)"/><path class="b820f2d6-202a-45b3-818b-fe8a7f58a2d8" d="M163.09 66.91c0-2.53 2.21-4.24 5-3.83l22.11 3.32v6l-19.1-2.86a1.22 1.22 0 0 0-1.55 1.16l15.92 2.4v6l-22.41-3.38v-8.8M168 91.27a5.75 5.75 0 0 1-4.95-5.27v-8.86l22.41 3.38v6l-15.93-2.41c0 1.41 1.55 1.65 1.55 1.65l19 2.88v6L168 91.27M205.76 98.46c-3.61-.55-6.55-3.7-6.54-7V72.34c0-3.31 2.92-5.55 6.53-5l21.57 3.23v-6l-21.62-3.23c-7.23-1.08-13.09 3.41-13.09 10v19.08c0 6.64 5.9 12.93 13.14 14l21.6 3.31V79.4l-18.55-2.79v6l12 1.81v16.32l-15-2.29" transform="translate(-.49 -.26)"/><path class="b820f2d6-202a-45b3-818b-fe8a7f58a2d8" d="M200.75 91.67a5.81 5.81 0 0 0 5 5.37l13.49 2V85.61L208.8 84v6l3.87.59V92l-3.86-.58a1.8 1.8 0 0 1-1.53-1.65V76.32a1.23 1.23 0 0 1 1.54-1.2L227.34 78v-6l-21.58-3.24c-2.76-.41-5 1.31-5 3.84v19.1M247.67 74.93a1.82 1.82 0 0 1 2-1 2.59 2.59 0 0 1 2 1.63l10.59 30.15-15.44-2.35v-6.73l5.15.78-2.32-6.68-7.48 19.27-7.77-1.19 13.27-33.92" transform="translate(-.49 -.26)"/><path class="b820f2d6-202a-45b3-818b-fe8a7f58a2d8" d="m264.44 107.39-17.55-2.67v6l26.73 4.08-14-39.8c-1.23-3.86-5.24-7.15-10-7.86S241 68.56 239.74 72l-13.94 35.5 7 1.06 13.5-34.49a3.09 3.09 0 0 1 3.37-1.55 4.45 4.45 0 0 1 3.39 2.56l11.38 32.32" transform="translate(-.49 -.26)"/><path class="bfbad392-e4ce-4043-b09a-298f519472f2" d="M131.9 110.63a6.85 6.85 0 0 1 1.23 2 6.53 6.53 0 0 1 .39 2.32 5.17 5.17 0 0 1-2.6 4.65 9.22 9.22 0 0 1-6.4 1 14.34 14.34 0 0 1-3.52-1 17.09 17.09 0 0 1-3-1.63l-.8 1.07-1.48-.23-.23-8 1.5.24a18.34 18.34 0 0 0 1.07 2.8 11.66 11.66 0 0 0 1.63 2.46 9.5 9.5 0 0 0 2.25 1.88 8.15 8.15 0 0 0 3 1 7.81 7.81 0 0 0 2.24.06 3.41 3.41 0 0 0 1.55-.6 2.69 2.69 0 0 0 .88-1.12 4.06 4.06 0 0 0 .29-1.63 4.8 4.8 0 0 0-.88-2.72 6.67 6.67 0 0 0-2.64-2.22c-.8-.41-1.72-.86-2.76-1.36s-1.93-1-2.68-1.38a10.79 10.79 0 0 1-3.45-2.83 6.23 6.23 0 0 1-1.21-3.9 4.54 4.54 0 0 1 .62-2.36 5.16 5.16 0 0 1 1.74-1.77 6.81 6.81 0 0 1 2.54-.94 9.45 9.45 0 0 1 3 0 11 11 0 0 1 3.25 1 18.82 18.82 0 0 1 2.63 1.58l.76-1 1.48.22.12 7.69-1.5-.23c-.27-.92-.57-1.81-.91-2.66a10.93 10.93 0 0 0-1.32-2.39 7.25 7.25 0 0 0-1.94-1.8 7.13 7.13 0 0 0-2.81-1 4.21 4.21 0 0 0-3 .53 2.53 2.53 0 0 0-1.25 2.23 4.38 4.38 0 0 0 .79 2.61 6.94 6.94 0 0 0 2.31 2c.9.52 1.78 1 2.65 1.39s1.71.84 2.52 1.28a22.08 22.08 0 0 1 2.14 1.29 9.61 9.61 0 0 1 1.79 1.53z" transform="translate(-.49 -.26)"/><path class="bfbad392-e4ce-4043-b09a-298f519472f2" d="M131.57 126.44a1.56 1.56 0 0 1 .51-1.25 1.53 1.53 0 0 1 1.28-.31 2.79 2.79 0 0 1 1 .35 3.5 3.5 0 0 1 .76.62 6 6 0 0 1 .59.75l.5.78a5.51 5.51 0 0 0 2.22-1.95 14.49 14.49 0 0 0 1.88-3q-1.76-4.14-3.18-7.4t-3-6.76A3.17 3.17 0 0 0 133 107a6.42 6.42 0 0 0-1.67-.78v-1.08l8.35 1.28v1.14a6 6 0 0 0-1.34 0c-.52 0-.78.15-.78.31a1.39 1.39 0 0 0 .08.34l.2.5q.69 1.71 2.13 5c1 2.18 1.7 3.91 2.22 5.21.56-1.08 1.15-2.19 1.75-3.34s1.28-2.52 2-4.09l.38-.8a2.16 2.16 0 0 0 .24-.9c0-.28-.28-.59-.84-.92a6.24 6.24 0 0 0-1.61-.69v-1l6.8 1v1a4.41 4.41 0 0 0-1.47.34 2.5 2.5 0 0 0-1.36 1.15q-2.22 4.16-3.95 7.59c-1.16 2.29-2 4-2.63 5a22.18 22.18 0 0 1-2.1 3.23 8.52 8.52 0 0 1-1.8 1.74 4.5 4.5 0 0 1-1.55.68 4.09 4.09 0 0 1-1.44 0 4.35 4.35 0 0 1-2.27-1 2.07 2.07 0 0 1-.82-1.52z" transform="translate(-.49 -.26)"/><path class="bfbad392-e4ce-4043-b09a-298f519472f2" d="M160.48 117.78a5.21 5.21 0 0 1 1.17 1.53 4.41 4.41 0 0 1 .41 2 3.67 3.67 0 0 1-1.92 3.36 7.38 7.38 0 0 1-4.95.66 9.31 9.31 0 0 1-2.95-1 9.94 9.94 0 0 1-1.92-1.22l-.37 1-1.4-.22-.17-5.62 1.28.2a7 7 0 0 0 .63 1.58 8.7 8.7 0 0 0 1.17 1.72 7.59 7.59 0 0 0 1.73 1.48 5.92 5.92 0 0 0 2.28.85 4.23 4.23 0 0 0 2.76-.29 2 2 0 0 0 1-1.9 2.39 2.39 0 0 0-.31-1.23 3.51 3.51 0 0 0-.9-1 8.36 8.36 0 0 0-1.51-.91c-.59-.29-1.26-.6-2-.91a20.77 20.77 0 0 1-1.95-.93 9.54 9.54 0 0 1-1.83-1.22 5.8 5.8 0 0 1-1.33-1.6 4 4 0 0 1-.52-2 3.52 3.52 0 0 1 1.68-3.08 6.18 6.18 0 0 1 4.49-.68 11 11 0 0 1 2.2.58 10.29 10.29 0 0 1 1.84.87l.42-.78 1.34.2.27 5.21-1.29-.19a6 6 0 0 0-1.68-3.09 5.51 5.51 0 0 0-3.15-1.57 3.48 3.48 0 0 0-2.4.3 1.67 1.67 0 0 0-.88 1.49 2.68 2.68 0 0 0 .29 1.27 3.08 3.08 0 0 0 .86 1 8.76 8.76 0 0 0 1.41.83c.56.28 1.25.6 2.09 1a22.62 22.62 0 0 1 2.31 1.16 8.88 8.88 0 0 1 1.8 1.29z" transform="translate(-.49 -.26)"/><path class="bfbad392-e4ce-4043-b09a-298f519472f2" d="M172.83 126.87c-.81.17-1.58.3-2.3.39a9.87 9.87 0 0 1-2.65-.11 5 5 0 0 1-3.25-1.52 4.73 4.73 0 0 1-.94-3v-10.9l-3.32-.51v-1.57l3.4.52v-5l3.39.52v5l5.28.81v1.5l-5.24-.8v9a13.52 13.52 0 0 0 .08 1.7 3.23 3.23 0 0 0 .4 1.25 2.24 2.24 0 0 0 .89.86 4.79 4.79 0 0 0 1.61.49c.31 0 .77.09 1.37.14a6.79 6.79 0 0 0 1.28 0v1.19z" transform="translate(-.49 -.26)"/><path class="bfbad392-e4ce-4043-b09a-298f519472f2" d="M187.66 126.07a6.93 6.93 0 0 1-3.11 2.6 8 8 0 0 1-4.46.45 11.42 11.42 0 0 1-3.9-1.29 9.42 9.42 0 0 1-2.75-2.29 9.31 9.31 0 0 1-1.61-3 11.17 11.17 0 0 1-.52-3.4 7.91 7.91 0 0 1 .57-3 6.87 6.87 0 0 1 1.68-2.47 6.53 6.53 0 0 1 2.64-1.46 8.1 8.1 0 0 1 3.54-.17 10.68 10.68 0 0 1 3.45 1.09 7.49 7.49 0 0 1 2.34 1.88 7.17 7.17 0 0 1 1.28 2.35 9 9 0 0 1 .42 2.76v1.09L175 119.35a11.78 11.78 0 0 0 .34 2.93 7.65 7.65 0 0 0 1.09 2.45 6.27 6.27 0 0 0 1.9 1.79 7.21 7.21 0 0 0 2.8 1 5.38 5.38 0 0 0 2.87-.23 5.75 5.75 0 0 0 2.33-2.1l1.31.9zm-4.12-6.79a11.93 11.93 0 0 0-.18-2 5.88 5.88 0 0 0-.57-1.83 4.36 4.36 0 0 0-1.17-1.4 4 4 0 0 0-1.93-.77 3.71 3.71 0 0 0-3.26.92A5.29 5.29 0 0 0 175 118l8.52 1.31z" transform="translate(-.49 -.26)"/><path class="bfbad392-e4ce-4043-b09a-298f519472f2" d="m218.05 134.57-9-1.39v-1.09l.87.07a3.32 3.32 0 0 0 .78 0 1.07 1.07 0 0 0 .78-.39 1.38 1.38 0 0 0 .26-.92v-8.35a4.13 4.13 0 0 0-.89-2.77 3.53 3.53 0 0 0-2.22-1.27 5.92 5.92 0 0 0-1.73 0 5.44 5.44 0 0 0-1.48.46 4 4 0 0 0-.91.64 6.23 6.23 0 0 0-.55.61v9.32a2 2 0 0 0 .23 1 1.8 1.8 0 0 0 .77.68c.29.14.54.25.78.34a5.78 5.78 0 0 0 .9.25v1.08l-8.81-1.36v-1.08l.84.06a4.5 4.5 0 0 0 .74 0 1.14 1.14 0 0 0 .78-.4 1.46 1.46 0 0 0 .25-.92v-8.34a4.12 4.12 0 0 0-.88-2.76 3.5 3.5 0 0 0-2.23-1.26 5.53 5.53 0 0 0-1.72 0 5.09 5.09 0 0 0-1.49.47 3.58 3.58 0 0 0-.92.67l-.56.59v9.25a1.83 1.83 0 0 0 .26 1 2.09 2.09 0 0 0 .79.7 4.83 4.83 0 0 0 .8.37 8.56 8.56 0 0 0 .92.26v1.08l-9-1.39v-1.18l.89.07a3.4 3.4 0 0 0 .79 0 1.09 1.09 0 0 0 .78-.39 1.45 1.45 0 0 0 .25-.91v-10a1.9 1.9 0 0 0-.27-1 3.06 3.06 0 0 0-.75-.83 4.79 4.79 0 0 0-.88-.45 6.7 6.7 0 0 0-1.08-.32v-1.08l6.17.59.26.27v2.31h.13c.31-.23.7-.49 1.14-.79a8.76 8.76 0 0 1 1.25-.71 5.7 5.7 0 0 1 1.65-.4 8 8 0 0 1 2.12.06 6.45 6.45 0 0 1 3.09 1.32 6.23 6.23 0 0 1 1.85 2.32l1.19-.82a7.62 7.62 0 0 1 1.36-.72 5.89 5.89 0 0 1 1.68-.43 8.26 8.26 0 0 1 2.14.07 6 6 0 0 1 3.71 1.91 6.36 6.36 0 0 1 1.36 4.34v8.22a1.93 1.93 0 0 0 .23 1 1.75 1.75 0 0 0 .77.69 6.64 6.64 0 0 0 .85.35 9.2 9.2 0 0 0 1 .26v1.06zM246.56 115.33l-9.84 22.46-6.72-1 5.28-12a20.55 20.55 0 0 0 1.22-3.15.89.89 0 0 0-.47-.92 8.79 8.79 0 0 0-2.88-.73l-.67-.11 1.15-2.61a17.37 17.37 0 0 0 9-2.47l4 .61zM262.14 124.08l-6.73-1c.46-1 .74-1.7.83-2a.79.79 0 0 0-.1-.75 1.19 1.19 0 0 0-.85-.43 1.57 1.57 0 0 0-1 .14 1.49 1.49 0 0 0-.69.62c-.15.27-.42.83-.79 1.67l-1.57 3.58a4.85 4.85 0 0 1 2.11-1.12 6.7 6.7 0 0 1 2.66-.08A5.07 5.07 0 0 1 259 126a2.72 2.72 0 0 1 .92 2.27 11.45 11.45 0 0 1-1 3.22l-.78 1.79a26.42 26.42 0 0 1-1.76 3.48 6.39 6.39 0 0 1-2.09 2 8.8 8.8 0 0 1-3.25 1.12 13.54 13.54 0 0 1-4.06 0 11.57 11.57 0 0 1-4.17-1.31 4.14 4.14 0 0 1-1.89-2.22 4.22 4.22 0 0 1 0-2.63q.4-1.32 2-5l1.36-3.1q1.77-4 2.49-5.35a7 7 0 0 1 2.23-2.47 8.94 8.94 0 0 1 3.56-1.39 13.92 13.92 0 0 1 4.32 0 10.22 10.22 0 0 1 4.32 1.48 3.58 3.58 0 0 1 1.66 2.55 7.12 7.12 0 0 1-.75 3.62zm-9.22 6.07a3.07 3.07 0 0 0 .4-1.68q-.12-.5-.84-.6a1.53 1.53 0 0 0-1.21.26 4.09 4.09 0 0 0-1.05 1.61l-1.78 4.07a4 4 0 0 0-.54 2c.07.34.34.55.82.62a1.82 1.82 0 0 0 1.05-.21 3.53 3.53 0 0 0 1.31-1.84l1.85-4.21zM270 132.83h-.21a1 1 0 0 0-.1-.21 1.24 1.24 0 0 0-.17-.23 1.34 1.34 0 0 0-.2-.21.42.42 0 0 0-.21-.12l-.25-.06h-.45v2.52a.42.42 0 0 0 0 .15.34.34 0 0 0 .16.11l.23.08.27.07v.07l-2.07-.32v-.16h.51a.34.34 0 0 0 .16-.05.21.21 0 0 0 0-.14v-2.55h-.69a.33.33 0 0 0-.21.05 1.59 1.59 0 0 0-.21.15 1.46 1.46 0 0 0-.16.19l-.1.17h-.21v-.86l3.91.52v.86zM275.69 136l-1.94-.3v-.16h.27a.84.84 0 0 0 .23 0 .26.26 0 0 0 .14-.07.21.21 0 0 0 0-.14v-2.29h-.05l-1.49 2.46h-.15l-1.43-3v1.88a1.27 1.27 0 0 0 .06.43.41.41 0 0 0 .14.23 1.53 1.53 0 0 0 .28.13l.28.09v.16l-1.77-.28V135h.29a.75.75 0 0 0 .24 0 .22.22 0 0 0 .14-.17 1.39 1.39 0 0 0 0-.42v-1.62a.52.52 0 0 0-.05-.23.43.43 0 0 0-.13-.17.77.77 0 0 0-.24-.12 1.72 1.72 0 0 0-.28-.08V132l1.5.23 1.26 2.57 1.11-1.8a2 2 0 0 0 .1-.21.61.61 0 0 0 .05-.15l1.43.22v.14H275.26c-.07 0-.12 0-.14.07a.28.28 0 0 0 0 .13v2.27a.21.21 0 0 0 0 .14.27.27 0 0 0 .14.11.71.71 0 0 0 .19.08h.23v.2z" transform="translate(-.49 -.26)"/></g></g></svg>