<svg id="adc499c7-e2e8-46bf-9e14-f498edf1ccbb" data-name="Calque 1" xmlns="http://www.w3.org/2000/svg" xmlns:xlink="http://www.w3.org/1999/xlink" viewBox="0 0 88.59 237.77"><defs><style>.b3172626-c976-4e9c-a340-3c00b57d485f,.bcd090e6-8698-4295-a468-db0e8481e1c1{fill:#211c1d;}.ebd5d2bd-195e-4b28-8d9b-b7043f6a2f14{opacity:0.1;}.b3fcd3cf-b3dc-4aaa-9922-90151178f9b1{fill:#808094;}.ea5e2695-6c2f-4bb5-a5fc-ea73563dbfc8{fill:#6d6e6f;}.e85eac99-44e3-44cc-beef-eb6f55a9b5e6{fill:url(#bd613ff5-e892-4918-a6f9-e87d4a9255fb);}.b3172626-c976-4e9c-a340-3c00b57d485f{opacity:0.3;}.b3172626-c976-4e9c-a340-3c00b57d485f,.f389dc37-afe5-475a-a0bf-ade9428f06b6,.fbd65614-bcb1-494f-96d8-6f6073cd9631{isolation:isolate;}.fbd65614-bcb1-494f-96d8-6f6073cd9631{opacity:0.15;fill:url(#bbd42639-5c1a-4081-b1ce-ec4637ec526d);}.f389dc37-afe5-475a-a0bf-ade9428f06b6{opacity:0.4;fill:url(#a40d6e43-13b8-4918-b386-a8c4d5138297);}.a31a04e5-15ae-4b92-8e07-c0001159c633{fill:#0060a8;}.a04d9ebb-0071-4f5b-9f94-08f24f85b733{fill:#0084e4;}.a9046187-f7a8-4bb2-9abe-93da1b857cca{fill:#fff;}.b3a98256-0784-4e1d-98ad-df328b11cc8b{fill:#eb0009;}</style><linearGradient id="bd613ff5-e892-4918-a6f9-e87d4a9255fb" x1="362.1" y1="-353.94" x2="341.14" y2="-332.98" gradientTransform="matrix(0, -1, -1, 0, -299.63, 395.42)" gradientUnits="userSpaceOnUse"><stop offset="0" stop-color="#a4a5a9"/><stop offset="1" stop-color="#e6e6e7"/></linearGradient><linearGradient id="bbd42639-5c1a-4081-b1ce-ec4637ec526d" x1="341.21" y1="-353.94" x2="362.09" y2="-333.06" gradientTransform="matrix(0, -1, -1, 0, -299.63, 395.42)" gradientUnits="userSpaceOnUse"><stop offset="0" stop-color="#211c1d" stop-opacity="0"/><stop offset="0.04" stop-color="#211c1d" stop-opacity="0.09"/><stop offset="0.5" stop-color="#211c1d"/><stop offset="0.95" stop-color="#211c1d" stop-opacity="0.09"/><stop offset="1" stop-color="#211c1d" stop-opacity="0"/></linearGradient><linearGradient id="a40d6e43-13b8-4918-b386-a8c4d5138297" x1="-4466.76" y1="2694.35" x2="-4445.88" y2="2715.23" gradientTransform="matrix(0, 1, 1, 0, -2660.92, 4500.08)" gradientUnits="userSpaceOnUse"><stop offset="0" stop-color="#fff" stop-opacity="0"/><stop offset="0.5" stop-color="#fff"/><stop offset="1" stop-color="#fff" stop-opacity="0"/></linearGradient></defs><circle class="bcd090e6-8698-4295-a468-db0e8481e1c1" cx="43.8" cy="43.8" r="43.8"/><g class="ebd5d2bd-195e-4b28-8d9b-b7043f6a2f14"><path class="b3fcd3cf-b3dc-4aaa-9922-90151178f9b1" d="M43.8,3.22l-8.89,8.59h4.34v9.83h9.1V11.81h4.34ZM15.1,15.1l-.21,12.37L18,24.4l7,7,6.43-6.44L24.39,18l3.08-3.07ZM3.22,43.8l8.59,8.89V48.35h9.83v-9.1H11.81V34.91ZM15.1,72.5l12.37.21-3.08-3.07,7-7-6.43-6.44L18,63.2l-3.07-3.07ZM43.8,84.38l8.89-8.59H48.35V66h-9.1v9.83H34.91ZM72.5,72.5l.21-12.37L69.64,63.2l-7-7-6.44,6.44,7,7-3.07,3.07ZM84.38,43.8l-8.59-8.89v4.34H66v9.1h9.83v4.34ZM72.5,15.1l-12.37-.21L63.2,18l-7,7,6.44,6.44,7-7,3.07,3.07Z" transform="translate(0 0)"/></g><path class="ea5e2695-6c2f-4bb5-a5fc-ea73563dbfc8" d="M44.29,0a43.8,43.8,0,0,1,0,87.59h.5a43.8,43.8,0,0,0,0-87.6Z" transform="translate(0 0)"/><circle class="e85eac99-44e3-44cc-beef-eb6f55a9b5e6" cx="43.83" cy="43.8" r="14.82"/><circle class="b3172626-c976-4e9c-a340-3c00b57d485f" cx="43.83" cy="43.8" r="11.81"/><path class="fbd65614-bcb1-494f-96d8-6f6073cd9631" d="M29.11,43.77A14.76,14.76,0,1,0,43.87,29,14.76,14.76,0,0,0,29.11,43.77ZM57.83,44A14.15,14.15,0,1,1,43.69,29.8,14.15,14.15,0,0,1,57.83,44Z" transform="translate(0 0)"/><path class="f389dc37-afe5-475a-a0bf-ade9428f06b6" d="M58.63,43.77A14.76,14.76,0,1,0,43.87,58.53,14.76,14.76,0,0,0,58.63,43.77ZM29.9,43.58A14.15,14.15,0,1,1,44.05,57.73,14.15,14.15,0,0,1,29.9,43.58Z" transform="translate(0 0)"/><circle class="a31a04e5-15ae-4b92-8e07-c0001159c633" cx="32.85" cy="43.97" r="20.51"/><circle class="a31a04e5-15ae-4b92-8e07-c0001159c633" cx="27.19" cy="141.09" r="17.46"/><circle class="a04d9ebb-0071-4f5b-9f94-08f24f85b733" cx="27.71" cy="141.09" r="13.88"/><circle class="a31a04e5-15ae-4b92-8e07-c0001159c633" cx="61.36" cy="196.3" r="17.45"/><circle class="a9046187-f7a8-4bb2-9abe-93da1b857cca" cx="61.88" cy="196.3" r="13.88"/><circle class="a31a04e5-15ae-4b92-8e07-c0001159c633" cx="27.36" cy="178.07" r="17.45"/><circle class="b3a98256-0784-4e1d-98ad-df328b11cc8b" cx="27.89" cy="178.07" r="13.88"/><circle class="a31a04e5-15ae-4b92-8e07-c0001159c633" cx="61.4" cy="121.99" r="17.46"/><circle class="a04d9ebb-0071-4f5b-9f94-08f24f85b733" cx="61.92" cy="121.99" r="13.88"/><circle class="a31a04e5-15ae-4b92-8e07-c0001159c633" cx="61.1" cy="159.32" r="17.46"/><circle class="b3a98256-0784-4e1d-98ad-df328b11cc8b" cx="61.63" cy="159.32" r="13.88"/><circle class="a31a04e5-15ae-4b92-8e07-c0001159c633" cx="27.62" cy="220.31" r="17.46"/><circle class="a9046187-f7a8-4bb2-9abe-93da1b857cca" cx="28.15" cy="220.31" r="13.88"/></svg>