<svg version="1.1" id="Layer_1" xmlns="http://www.w3.org/2000/svg" xmlns:xlink="http://www.w3.org/1999/xlink" x="0" y="0" viewBox="0 0 1131.6 718.1" style="enable-background:new 0 0 1131.6 718.1" xml:space="preserve">
    <style>
        .st0{fill:#19191c}.st2{fill:#27282b}.st3{fill:#0b0b0c}.st4{fill:#0f0f11}.st5{fill:#e84237}.st8{opacity:.75}.st9{fill:#ffd0b0}.st10{fill:#eed47b}.st11{fill:#975734}.st12{fill:#4c342f}.st13{opacity:.1}
    </style>
    <path class="st0" d="M1097.2 414.7 1079.5 4.6H50.6L32.9 414.7v298.8h1064.3v-31.1z"/>
    <path d="M1040.5 357H91c-1.8 0-3.2-1.4-3.2-3.2v-79.2c0-1.8 1.4-3.2 3.2-3.2h949.5c1.8 0 3.2 1.4 3.2 3.2v79.2c0 1.7-1.4 3.2-3.2 3.2z" style="fill:#09090a"/>
    <path class="st2" d="M1040.5 363.1H91c-1.8 0-3.2-1.4-3.2-3.2v-79.2c0-1.8 1.4-3.2 3.2-3.2h949.5c1.8 0 3.2 1.4 3.2 3.2v79.2c0 1.8-1.4 3.2-3.2 3.2z"/>
    <path d="M1094.6 686.8H36.9c-1.5 0-2.8-1.2-2.8-2.8V411.6c0-1.5 1.2-2.8 2.8-2.8h1057.7c1.5 0 2.8 1.2 2.8 2.8v272.5c0 1.5-1.3 2.7-2.8 2.7z"/>
    <path class="st3" d="M34.1 415.4 52.4 0H29.3C23 0 17.8 4.8 17.2 11L0 415.4v290.5c0 6.8 5.5 12.2 12.2 12.2h21.9V415.4zM1097.4 415.4 1079.1 0h23.1c6.3 0 11.5 4.8 12.2 11l17.2 404.4v290.5c0 6.8-5.5 12.2-12.2 12.2h-21.9v-31.4l-.1-271.3z"/>
    <path class="st0" d="M559.5 679.7H43.8c-1.9 0-3.4-1.5-3.4-3.4V418c0-1.9 1.5-3.4 3.4-3.4h515.7c1.9 0 3.4 1.5 3.4 3.4v258.3c-.1 1.9-1.6 3.4-3.4 3.4z"/>
    <path class="st4" d="M1040.5 360H91c-1.8 0-3.2-1.4-3.2-3.2v-79.2c0-1.8 1.4-3.2 3.2-3.2h949.5c1.8 0 3.2 1.4 3.2 3.2v79.2c0 1.8-1.4 3.2-3.2 3.2z"/>
    <path class="st0" d="M226.2 340.8h-83.7c-1.3 0-2.2-1.2-2.2-2.6v-39.9c0-1.5 1-2.6 2.2-2.6h83.7c1.3 0 2.2 1.2 2.2 2.6v39.9c0 1.5-.9 2.6-2.2 2.6z"/>
    <path d="M224.5 299.7v37.1h-80.3v-37.1h80.3m1.7-4h-83.7c-1.2 0-2.2 1.1-2.2 2.6v39.9c0 1.4.9 2.6 2.2 2.6h83.7c1.3 0 2.2-1.1 2.2-2.6v-39.9c0-1.4-.9-2.6-2.2-2.6z"/>
    <path class="st0" d="M340.1 340.8h-82.2c-1.5 0-2.6-1.2-2.6-2.6v-39.9c0-1.5 1.2-2.6 2.6-2.6h82.2c1.5 0 2.6 1.2 2.6 2.6v39.9c.1 1.5-1.1 2.6-2.6 2.6z"/>
    <path d="M338.7 299.7v37.1h-79.4v-37.1h79.4m1.4-4h-82.2c-1.4 0-2.6 1.1-2.6 2.6v39.9c0 1.4 1.1 2.6 2.6 2.6h82.2c1.5 0 2.7-1.1 2.6-2.6v-39.9c0-1.4-1.1-2.6-2.6-2.6zM144.1 30.9h13v29.2h-13zM170.9 30.9h13v29.2h-13zM197.7 30.9h13v29.2h-13zM224.4 30.9h13v29.2h-13zM251.2 30.9h13v29.2h-13zM278 30.9h13v29.2h-13zM304.8 30.9h13v29.2h-13zM331.6 30.9h13v29.2h-13zM358.4 30.9h13v29.2h-13zM385.2 30.9h13v29.2h-13zM411.9 30.9h13v29.2h-13zM438.7 30.9h13v29.2h-13zM465.5 30.9h13v29.2h-13zM492.3 30.9h13v29.2h-13zM519.1 30.9h13v29.2h-13zM545.9 30.9h13v29.2h-13zM572.7 30.9h13v29.2h-13zM599.4 30.9h13v29.2h-13zM626.2 30.9h13v29.2h-13zM653 30.9h13v29.2h-13zM679.8 30.9h13v29.2h-13zM706.6 30.9h13v29.2h-13zM733.4 30.9h13v29.2h-13zM760.2 30.9h13v29.2h-13zM787 30.9h13v29.2h-13zM813.7 30.9h13v29.2h-13zM840.5 30.9h13v29.2h-13zM867.3 30.9h13v29.2h-13zM894.1 30.9h13v29.2h-13zM920.9 30.9h13v29.2h-13zM947.7 30.9h13v29.2h-13zM974.5 30.9h13v29.2h-13z"/>
    <path class="st4" d="M144.1 37.4h13v22.7h-13zM170.9 37.4h13v22.7h-13zM197.7 37.4h13v22.7h-13zM224.4 37.4h13v22.7h-13zM251.2 37.4h13v22.7h-13zM278 37.4h13v22.7h-13zM304.8 37.4h13v22.7h-13zM331.6 37.4h13v22.7h-13zM358.4 37.4h13v22.7h-13zM385.2 37.4h13v22.7h-13zM411.9 37.4h13v22.7h-13zM438.7 37.4h13v22.7h-13zM465.5 37.4h13v22.7h-13zM492.3 37.4h13v22.7h-13zM519.1 37.4h13v22.7h-13zM545.9 37.4h13v22.7h-13zM572.7 37.4h13v22.7h-13zM599.4 37.4h13v22.7h-13zM626.2 37.4h13v22.7h-13zM653 37.4h13v22.7h-13zM679.8 37.4h13v22.7h-13zM706.6 37.4h13v22.7h-13zM733.4 37.4h13v22.7h-13zM760.2 37.4h13v22.7h-13zM787 37.4h13v22.7h-13zM813.7 37.4h13v22.7h-13zM840.5 37.4h13v22.7h-13zM867.3 37.4h13v22.7h-13zM894.1 37.4h13v22.7h-13zM920.9 37.4h13v22.7h-13zM947.7 37.4h13v22.7h-13zM974.5 37.4h13v22.7h-13z"/>
    <path d="M922.5 288.3h78.7V312h-78.7z"/>
    <path class="st5" d="M922.5 315.5h84.7v7.9h-84.7z"/>
    <path style="fill:#99d07b" d="M922.5 326.9h84.7v7.9h-84.7z"/>
    <path style="fill:#549ecf" d="M922.5 338.3h84.7v7.9h-84.7z"/>
    <path class="st4" d="M144 487.9c29.2 0 52.8 23.6 52.8 52.8s-23.6 52.8-52.8 52.8-52.8-23.6-52.8-52.8c0-29.1 23.6-52.8 52.8-52.8m0-17.3c-38.7 0-70.2 31.5-70.2 70.2S105.3 611 144 611s70.2-31.5 70.2-70.2c-.1-38.7-31.5-70.2-70.2-70.2z"/>
    <g class="st8">
        <defs>
            <circle id="SVGID_1_" transform="rotate(-84.806 144.014 540.792)" cx="144" cy="540.8" r="47.9"/>
        </defs>
        <clipPath id="SVGID_00000140001692201038825060000002394947425025626795_">
            <use xlink:href="#SVGID_1_" style="overflow:visible"/>
        </clipPath>
    </g>
    <path d="M557.4 443.2H250.2c-12 0-21.8 10.3-21.8 23.1v161.8c0 12.7 9.8 23.1 21.8 23.1h312.7V443.2h-5.5z"/>
    <path class="st0" d="M550.2 449h10.7v64.2h-10.7zM550.2 515.1h10.7v64.2h-10.7zM550.2 581.2h10.7v64.2h-10.7zM250.1 645.4h298.5V449H250.1c-9.2 0-16.7 7.5-16.7 16.7v163c0 9.2 7.5 16.7 16.7 16.7z"/>
    <path class="st9" d="m936.7 295.2 2.6 6.9 2.6-6.9h4.8v10.7H944l.1-8h-.4l-3.3 8h-2.2l-3.3-8h-.5l.1 8h-2.6v-10.7h4.8zM950.5 295.2v3.9h1.4l3.4-3.9h4.1l-5 5.3 5.4 5.5h-4l-3.9-4.1h-1.4v4.1h-2.6v-10.7l2.6-.1zM971.8 297.5v-3.1h-10.7v3.1h2.6v5.3h-2.6v3.1H971.9v-3.1h-2.6v-5.3h2.5zm-4.7 5.3h-1.4v-5.3h1.4v5.3z"/>
    <path class="st0" d="M572 415.2h515.7c1.9 0 3.4 1.5 3.4 3.4V677c0 1.9-1.5 3.4-3.4 3.4H572c-1.9 0-3.4-1.5-3.4-3.4V418.7c.1-1.9 1.6-3.5 3.4-3.5z"/>
    <path d="M574.1 651.8H881.3c12 0 21.8-10.3 21.8-23.1V466.8c0-12.7-9.8-23.1-21.8-23.1H568.6V651.8h5.5z"/>
    <path class="st0" d="M570.6 581.8h10.7V646h-10.7zM570.6 515.7h10.7v64.2h-10.7zM570.6 449.5h10.7v64.2h-10.7zM881.4 449.5H582.9V646h298.5c9.2 0 16.7-7.5 16.7-16.7v-163c0-9.3-7.5-16.8-16.7-16.8z"/>
    <path class="st9" d="M289 500.3h-37c-2.4 0-4.4-2-4.4-4.4v-26.5c0-2.4 2-4.4 4.4-4.4h37c2.4 0 4.4 2 4.4 4.4v26.5c-.2 2.4-2 4.4-4.4 4.4z"/>
    <path class="st10" d="M283.1 495.1h-25.3c-1.5 0-2.7-1.2-2.7-2.7v-19.7c0-1.5 1.2-2.7 2.7-2.7h25.3c1.5 0 2.7 1.2 2.7 2.7v19.7c0 1.6-1.2 2.7-2.7 2.7z"/>
    <path class="st9" d="M337.1 500.3h-37c-2.4 0-4.4-2-4.4-4.4v-26.5c0-2.4 2-4.4 4.4-4.4h37c2.4 0 4.4 2 4.4 4.4v26.5c0 2.4-2 4.4-4.4 4.4z"/>
    <path class="st10" d="M331.4 495.1H306c-1.5 0-2.7-1.2-2.7-2.7v-19.7c0-1.5 1.2-2.7 2.7-2.7h25.3c1.5 0 2.7 1.2 2.7 2.7v19.7c0 1.6-1.3 2.7-2.6 2.7z"/>
    <path class="st9" d="M385.3 500.3h-37c-2.4 0-4.4-2-4.4-4.4v-26.5c0-2.4 2-4.4 4.4-4.4h37c2.4 0 4.4 2 4.4 4.4v26.5c.1 2.4-1.9 4.4-4.4 4.4z"/>
    <path class="st10" d="M379.5 495.1h-25.3c-1.5 0-2.7-1.2-2.7-2.7v-19.7c0-1.5 1.2-2.7 2.7-2.7h25.3c1.5 0 2.7 1.2 2.7 2.7v19.7c0 1.6-1.2 2.7-2.7 2.7z"/>
    <path class="st9" d="M433.5 500.3h-37c-2.4 0-4.4-2-4.4-4.4v-26.5c0-2.4 2-4.4 4.4-4.4h37c2.4 0 4.4 2 4.4 4.4v26.5c.1 2.4-1.9 4.4-4.4 4.4z"/>
    <path class="st10" d="M427.8 495.1h-25.3c-1.5 0-2.7-1.2-2.7-2.7v-19.7c0-1.5 1.2-2.7 2.7-2.7h25.3c1.5 0 2.7 1.2 2.7 2.7v19.7c0 1.6-1.3 2.7-2.7 2.7z"/>
    <path class="st9" d="M481.8 500.3h-37c-2.4 0-4.4-2-4.4-4.4v-26.5c0-2.4 2-4.4 4.4-4.4h37c2.4 0 4.4 2 4.4 4.4v26.5c-.1 2.4-2 4.4-4.4 4.4z"/>
    <path class="st10" d="M476 495.1h-25.3c-1.5 0-2.7-1.2-2.7-2.7v-19.7c0-1.5 1.2-2.7 2.7-2.7H476c1.5 0 2.7 1.2 2.7 2.7v19.7c-.1 1.6-1.2 2.7-2.7 2.7z"/>
    <path class="st9" d="M530 500.3h-37c-2.4 0-4.4-2-4.4-4.4v-26.5c0-2.4 2-4.4 4.4-4.4h37c2.4 0 4.4 2 4.4 4.4v26.5c.1 2.4-1.9 4.4-4.4 4.4z"/>
    <path class="st10" d="M524.2 495.1H499c-1.5 0-2.7-1.2-2.7-2.7v-19.7c0-1.5 1.2-2.7 2.7-2.7h25.3c1.5 0 2.7 1.2 2.7 2.7v19.7c-.2 1.6-1.4 2.7-2.8 2.7z"/>
    <path class="st9" d="M289 543.3h-37c-2.4 0-4.4-2-4.4-4.4v-26.5c0-2.4 2-4.4 4.4-4.4h37c2.4 0 4.4 2 4.4 4.4v26.5c-.2 2.4-2 4.4-4.4 4.4z"/>
    <path class="st10" d="M283.1 538.2h-25.3c-1.5 0-2.7-1.2-2.7-2.7v-19.7c0-1.5 1.2-2.7 2.7-2.7h25.3c1.5 0 2.7 1.2 2.7 2.7v19.7c0 1.6-1.2 2.7-2.7 2.7z"/>
    <path class="st9" d="M337.1 543.3h-37c-2.4 0-4.4-2-4.4-4.4v-26.5c0-2.4 2-4.4 4.4-4.4h37c2.4 0 4.4 2 4.4 4.4v26.5c0 2.4-2 4.4-4.4 4.4z"/>
    <path class="st11" d="M331.4 538.2H306c-1.5 0-2.7-1.2-2.7-2.7v-19.7c0-1.5 1.2-2.7 2.7-2.7h25.3c1.5 0 2.7 1.2 2.7 2.7v19.7c0 1.6-1.3 2.7-2.6 2.7z"/>
    <path class="st9" d="M385.3 543.3h-37c-2.4 0-4.4-2-4.4-4.4v-26.5c0-2.4 2-4.4 4.4-4.4h37c2.4 0 4.4 2 4.4 4.4v26.5c.1 2.4-1.9 4.4-4.4 4.4z"/>
    <path class="st11" d="M379.5 538.2h-25.3c-1.5 0-2.7-1.2-2.7-2.7v-19.7c0-1.5 1.2-2.7 2.7-2.7h25.3c1.5 0 2.7 1.2 2.7 2.7v19.7c0 1.6-1.2 2.7-2.7 2.7z"/>
    <path class="st9" d="M433.5 543.3h-37c-2.4 0-4.4-2-4.4-4.4v-26.5c0-2.4 2-4.4 4.4-4.4h37c2.4 0 4.4 2 4.4 4.4v26.5c.1 2.4-1.9 4.4-4.4 4.4z"/>
    <path class="st11" d="M427.8 538.2h-25.3c-1.5 0-2.7-1.2-2.7-2.7v-19.7c0-1.5 1.2-2.7 2.7-2.7h25.3c1.5 0 2.7 1.2 2.7 2.7v19.7c0 1.6-1.3 2.7-2.7 2.7z"/>
    <path class="st9" d="M481.8 543.3h-37c-2.4 0-4.4-2-4.4-4.4v-26.5c0-2.4 2-4.4 4.4-4.4h37c2.4 0 4.4 2 4.4 4.4v26.5c-.1 2.4-2 4.4-4.4 4.4z"/>
    <path class="st11" d="M476 538.2h-25.3c-1.5 0-2.7-1.2-2.7-2.7v-19.7c0-1.5 1.2-2.7 2.7-2.7H476c1.5 0 2.7 1.2 2.7 2.7v19.7c-.1 1.6-1.2 2.7-2.7 2.7z"/>
    <path class="st9" d="M530 543.3h-37c-2.4 0-4.4-2-4.4-4.4v-26.5c0-2.4 2-4.4 4.4-4.4h37c2.4 0 4.4 2 4.4 4.4v26.5c.1 2.4-1.9 4.4-4.4 4.4z"/>
    <path class="st11" d="M524.2 538.2H499c-1.5 0-2.7-1.2-2.7-2.7v-19.7c0-1.5 1.2-2.7 2.7-2.7h25.3c1.5 0 2.7 1.2 2.7 2.7v19.7c-.2 1.6-1.4 2.7-2.8 2.7z"/>
    <path class="st9" d="M289 586.3h-37c-2.4 0-4.4-2-4.4-4.4v-26.4c0-2.4 2-4.4 4.4-4.4h37c2.4 0 4.4 2 4.4 4.4V582c-.2 2.5-2 4.3-4.4 4.3z"/>
    <path class="st10" d="M283.1 581.3h-25.3c-1.5 0-2.7-1.2-2.7-2.7v-19.7c0-1.5 1.2-2.7 2.7-2.7h25.3c1.5 0 2.7 1.2 2.7 2.7v19.7c0 1.6-1.2 2.7-2.7 2.7z"/>
    <path class="st9" d="M337.1 586.3h-37c-2.4 0-4.4-2-4.4-4.4v-26.4c0-2.4 2-4.4 4.4-4.4h37c2.4 0 4.4 2 4.4 4.4V582c0 2.5-2 4.3-4.4 4.3z"/>
    <path class="st11" d="M331.4 581.3H306c-1.5 0-2.7-1.2-2.7-2.7v-19.7c0-1.5 1.2-2.7 2.7-2.7h25.3c1.5 0 2.7 1.2 2.7 2.7v19.7c0 1.6-1.3 2.7-2.6 2.7z"/>
    <path class="st9" d="M385.3 586.3h-37c-2.4 0-4.4-2-4.4-4.4v-26.4c0-2.4 2-4.4 4.4-4.4h37c2.4 0 4.4 2 4.4 4.4V582c.1 2.5-1.9 4.3-4.4 4.3z"/>
    <path class="st11" d="M379.5 581.3h-25.3c-1.5 0-2.7-1.2-2.7-2.7v-19.7c0-1.5 1.2-2.7 2.7-2.7h25.3c1.5 0 2.7 1.2 2.7 2.7v19.7c0 1.6-1.2 2.7-2.7 2.7z"/>
    <path class="st9" d="M433.5 586.3h-37c-2.4 0-4.4-2-4.4-4.4v-26.4c0-2.4 2-4.4 4.4-4.4h37c2.4 0 4.4 2 4.4 4.4V582c.1 2.5-1.9 4.3-4.4 4.3z"/>
    <path class="st11" d="M427.8 581.3h-25.3c-1.5 0-2.7-1.2-2.7-2.7v-19.7c0-1.5 1.2-2.7 2.7-2.7h25.3c1.5 0 2.7 1.2 2.7 2.7v19.7c0 1.6-1.3 2.7-2.7 2.7z"/>
    <path class="st9" d="M481.8 586.3h-37c-2.4 0-4.4-2-4.4-4.4v-26.4c0-2.4 2-4.4 4.4-4.4h37c2.4 0 4.4 2 4.4 4.4V582c-.1 2.5-2 4.3-4.4 4.3z"/>
    <path class="st11" d="M476 581.3h-25.3c-1.5 0-2.7-1.2-2.7-2.7v-19.7c0-1.5 1.2-2.7 2.7-2.7H476c1.5 0 2.7 1.2 2.7 2.7v19.7c-.1 1.6-1.2 2.7-2.7 2.7z"/>
    <path class="st9" d="M530 586.3h-37c-2.4 0-4.4-2-4.4-4.4v-26.4c0-2.4 2-4.4 4.4-4.4h37c2.4 0 4.4 2 4.4 4.4V582c.1 2.5-1.9 4.3-4.4 4.3z"/>
    <path class="st11" d="M524.2 581.3H499c-1.5 0-2.7-1.2-2.7-2.7v-19.7c0-1.5 1.2-2.7 2.7-2.7h25.3c1.5 0 2.7 1.2 2.7 2.7v19.7c-.2 1.6-1.4 2.7-2.8 2.7z"/>
    <path class="st9" d="M289 629.5h-37c-2.4 0-4.4-2-4.4-4.4v-26.5c0-2.4 2-4.4 4.4-4.4h37c2.4 0 4.4 2 4.4 4.4v26.5c-.2 2.5-2 4.4-4.4 4.4z"/>
    <path class="st10" d="M283.1 624.5h-25.3c-1.5 0-2.7-1.2-2.7-2.7v-19.7c0-1.5 1.2-2.7 2.7-2.7h25.3c1.5 0 2.7 1.2 2.7 2.7v19.7c0 1.4-1.2 2.7-2.7 2.7z"/>
    <path class="st9" d="M337.1 629.5h-37c-2.4 0-4.4-2-4.4-4.4v-26.5c0-2.4 2-4.4 4.4-4.4h37c2.4 0 4.4 2 4.4 4.4v26.5c0 2.5-2 4.4-4.4 4.4z"/>
    <path class="st11" d="M331.4 624.5H306c-1.5 0-2.7-1.2-2.7-2.7v-19.7c0-1.5 1.2-2.7 2.7-2.7h25.3c1.5 0 2.7 1.2 2.7 2.7v19.7c0 1.4-1.3 2.7-2.6 2.7z"/>
    <path class="st9" d="M385.3 629.5h-37c-2.4 0-4.4-2-4.4-4.4v-26.5c0-2.4 2-4.4 4.4-4.4h37c2.4 0 4.4 2 4.4 4.4v26.5c.1 2.5-1.9 4.4-4.4 4.4z"/>
    <path class="st11" d="M379.5 624.5h-25.3c-1.5 0-2.7-1.2-2.7-2.7v-19.7c0-1.5 1.2-2.7 2.7-2.7h25.3c1.5 0 2.7 1.2 2.7 2.7v19.7c0 1.4-1.2 2.7-2.7 2.7z"/>
    <path class="st9" d="M433.5 629.5h-37c-2.4 0-4.4-2-4.4-4.4v-26.5c0-2.4 2-4.4 4.4-4.4h37c2.4 0 4.4 2 4.4 4.4v26.5c.1 2.5-1.9 4.4-4.4 4.4z"/>
    <path class="st11" d="M427.8 624.5h-25.3c-1.5 0-2.7-1.2-2.7-2.7v-19.7c0-1.5 1.2-2.7 2.7-2.7h25.3c1.5 0 2.7 1.2 2.7 2.7v19.7c0 1.4-1.3 2.7-2.7 2.7z"/>
    <path class="st9" d="M481.8 629.5h-37c-2.4 0-4.4-2-4.4-4.4v-26.5c0-2.4 2-4.4 4.4-4.4h37c2.4 0 4.4 2 4.4 4.4v26.5c-.1 2.5-2 4.4-4.4 4.4z"/>
    <path class="st11" d="M476 624.5h-25.3c-1.5 0-2.7-1.2-2.7-2.7v-19.7c0-1.5 1.2-2.7 2.7-2.7H476c1.5 0 2.7 1.2 2.7 2.7v19.7c-.1 1.4-1.2 2.7-2.7 2.7z"/>
    <path class="st9" d="M530 629.5h-37c-2.4 0-4.4-2-4.4-4.4v-26.5c0-2.4 2-4.4 4.4-4.4h37c2.4 0 4.4 2 4.4 4.4v26.5c.1 2.5-1.9 4.4-4.4 4.4z"/>
    <path class="st11" d="M524.2 624.5H499c-1.5 0-2.7-1.2-2.7-2.7v-19.7c0-1.5 1.2-2.7 2.7-2.7h25.3c1.5 0 2.7 1.2 2.7 2.7v19.7c-.2 1.4-1.4 2.7-2.8 2.7zM269.7 478.3v12.8h-3.9v-9.5h-1l-3.8 3.2-2.2-2.5 4.7-4h6.2zM306.5 483.1v-.6c0-3.9.8-4.4 7.3-4.4 5.3 0 6 .1 6.8.6.9.6 1.1 1.4 1.1 3.4 0 1.5-.2 2.3-.6 2.9-.6.8-1.8 1.3-3.9 1.4-5.4.3-6.1.4-6.4.5-.5.2-.6.4-.6 1.1v.1H322v2.9h-15.3c-.1-.6-.1-.8-.1-1.5 0-2.1.1-3.1.3-3.7.4-1.2 1.2-1.7 3.2-1.9.2 0 2-.2 5.5-.4 2.3-.2 2.4-.3 2.4-1.3 0-.8-.1-1-.6-1.2-.3-.1-.9-.1-2.9-.1-2.5 0-3.5.1-3.9.2-.3.1-.4.5-.4 1.4v.4h-3.7v.2zM355 482.6v-.8c0-3.4 1.1-3.9 8.2-3.9 3.7 0 5 .2 5.8.7.8.6 1.1 1.4 1.1 2.9 0 1.8-.5 2.4-2.1 2.8 2 .4 2.3.9 2.3 3.1 0 1.9-.5 2.7-1.9 3.2-1 .3-3 .5-7.2.5-3.3 0-4.6-.2-5.4-1-.7-.6-.8-1.4-.8-3.8h3.7v.2c0 1 .1 1.3.7 1.4.2 0 1.9.1 3.2.1.7 0 2.6-.1 2.9-.1.8-.1 1.1-.3 1.1-1.1 0-.6-.2-.9-.6-1-.3-.1-.4-.1-2.8-.1H361v-2.8h3c1.9 0 2.4-.2 2.4-1.1 0-1-.3-1.1-3.6-1.1-4 0-4 0-4 1.4v.3H355v.2zM420.2 488.8h-2.5v2.4H414v-2.4h-10.2v-4.9l7.6-5.5h6.3v7.6h2.5v2.8zm-6.3-7.5h-.8l-5.9 4.1v.5h6.7v-4.6zM466.4 478.2v2.8h-9.3c-.8 0-1.3 0-1.6-.1v2.4c.5-.5.8-.6 1.3-.7.6-.2 2.1-.3 3.8-.3 5.4 0 6.5.7 6.5 4.2 0 2.5-.5 3.7-1.8 4.2-1 .4-2 .5-5 .5-3.9 0-5.2-.1-6.5-.4-1.5-.3-2.1-1.2-2.1-3.3v-.5h3.7c0 .5.1.8.2.9.3.3 1.2.4 3.6.4 2.8 0 3.2 0 3.6-.2s.5-.6.5-1.6-.2-1.3-.8-1.4c-.6-.1-2.4-.2-4.1-.2-2.3 0-2.8.2-2.8.8v.2h-3.4v-7.8h14.2v.1zM511.8 481.8c0-.3-.1-.5-.2-.6-.2-.2-.3-.2-1.5-.2-.8 0-1.6-.1-2.2-.1-1.9 0-2.9.1-3.3.3-.4.2-.5.7-.5 1.9v.7c1-.9 1.8-1.1 5.2-1.1 5 0 6.1.7 6.1 4.2 0 2.3-.5 3.3-1.8 3.8-.8.3-2.4.4-6.3.4-3.7 0-5-.2-5.9-1s-1-1.7-1-6c0-2.1 0-2.8.2-3.6.5-2 1.9-2.5 7.7-2.5 4.4 0 5.8.2 6.6 1 .5.5.6 1.1.6 2.7h-3.7v.1zm-7.1 4c-.4.2-.6.6-.6 1.2 0 .8.2 1.1.8 1.2.3.1 1.1.1 2.4.1 1.2 0 2.9-.1 3.3-.1.7-.1.9-.4.9-1.2 0-1.3-.2-1.4-4.2-1.4-1.8 0-2.3 0-2.6.2z"/>
    <path class="st12" d="m326.8 532.3-1.3-.9c-1.1.8-2.2 1-7.8 1-5.2 0-6.4-.2-7.4-.9-1-.8-1.3-2-1.3-5.7s.3-5 1.3-5.7c1-.8 2.2-.9 7.5-.9s6.6.1 7.5.9c1 .8 1.3 2 1.3 5.8 0 1.2 0 2.3-.1 2.9l1.7.8-1.4 2.7zm-4-5.8v-.4c0-1.9-.1-2.6-.5-3.1s-.9-.6-4.4-.6c-3.8 0-4.2.1-4.6.8-.2.4-.3 1.2-.3 2.8s.1 2.1.6 2.5 1.1.5 4.5.5c1.9 0 2.6 0 3.3-.1l-4.1-2.2 1.6-2.7 3.9 2.5zM357.4 519.3l3.4 9.6h.7l2.9-9.6h4.7l2.9 9.6h.7l3.5-9.6h4.1l-5 12.8h-6l-2.6-9.4-2.5 9.4h-6.1l-4.8-12.8h4.1zM422.2 519.3v3h-10.4v1.9h9.8v2.8h-9.8v2h10.4v3.1H408v-12.8h14.2zM455.3 519.3h9.4c4.4 0 4.4 0 5.3.5 1 .6 1.3 1.4 1.3 3.7 0 1.9-.2 2.6-.9 3.2-.4.3-.7.4-1.5.5 2 .2 2.3.8 2.3 3.8v1.2h-3.8v-.7c0-1.4-.1-1.9-.4-2.2s-.6-.3-2.2-.3h-5.5v3.3h-3.9l-.1-13zm9.4 6.4c2 0 2 0 2.2-.2.3-.2.4-.6.4-1.4 0-.9-.2-1.2-.6-1.4-.3-.1-.3-.1-2.1-.1h-5.5v3.2l5.6-.1zM519.4 519.3v3.3h-5.7v9.6h-4.1v-9.6h-5.7v-3.3h15.5zM323 573h-8.5l-1.1 2.2h-4.5l6.8-12.8h6.1l6.7 12.8H324l-1-2.2zm-3.9-7.6h-.8l-2.5 4.9h5.7l-2.4-4.9zM362.8 571c0 .8.1 1 .4 1.2.4.2.8.3 3.5.3 4.2 0 4.2 0 4.2-1.1 0-.8-.3-1-1.5-1l-3.1-.1-2.1-.1h-1c-3.2-.1-4.1-.9-4.1-3.7 0-2.4.7-3.5 2.5-3.9.8-.2 2.5-.2 5.6-.2 3.7 0 5.1.2 6 .8.8.5 1.1 1.3 1.1 2.8v.6h-3.8c0-.7-.1-.9-.4-1.1-.3-.2-.8-.2-3.6-.2-3.3 0-3.6.1-3.6 1 0 .5.2.7.6.8.3.1 1.4.2 4.1.2 4.2.1 5.1.2 5.9.8.9.6 1.2 1.4 1.2 3.2 0 2.2-.5 3.3-1.9 3.8-.8.3-2.4.4-6.2.4-4 0-5.5-.2-6.4-.8s-1.2-1.3-1.2-3.1v-.6h3.8zM406.6 562.4h9.3c3.3 0 3.7 0 4.8.3 1.3.3 2.1 1 2.5 2.2.3.9.4 1.7.4 3.8 0 3.3-.3 4.7-1.2 5.5-1 .9-2.1 1.1-6.4 1.1h-9.3l-.1-12.9zm9.3 9.5c3.5 0 3.8-.2 3.8-3.1 0-1.6-.1-2.3-.5-2.7-.4-.5-.9-.5-3.3-.5h-5.4v6.3h5.4zM470.1 562.4v3h-9.7v2.4h9.2v2.9h-9.2v4.4h-3.9v-12.8l13.6.1zM520.1 567.9v.3c0 1.3-.1 3.5-.1 4.1-.2 1.5-1 2.4-2.5 2.7-1.3.3-2.7.3-6.1.3-4.4 0-5.8-.2-6.8-.9-1.1-.8-1.3-1.7-1.3-5.9 0-6 .6-6.4 8.9-6.4 4.8 0 6.5.3 7.4 1.3.5.6.7 1.4.7 3.3h-3.9c0-.8-.1-.9-.3-1.1-.4-.3-1.3-.3-4.2-.3-4.6 0-4.6 0-4.6 3.3 0 2.2.1 2.8.5 3.2.3.3.7.3 1.8.4h2.3c4.6 0 4.7 0 4.7-1.5v-.4h-5.1v-2.6h8.6v.2zM326.3 605.5v2.9l-9.4 6.8 9.7-.1v3.2h-15.9v-3l9.3-6.8-9.1.1v-3.2l15.4.1zM363 605.5l3.9 4.5 4-4.5h5.4l-6.2 6.3 6.5 6.5h-5.5l-4.2-4.6-4.2 4.6h-5.6l6.6-6.5-6.1-6.3h5.4zM423.3 613.4v1.2c0 2.1-.5 3-2 3.5-1 .3-2.4.4-5.3.4-5 0-6.6-.2-7.7-.8-.8-.5-1.2-1.2-1.4-2.5-.1-.6-.1-1.6-.1-3.3 0-2.9.1-3.9.4-4.6.7-1.7 2.1-2.1 8.8-2.1 3.4 0 4.6.1 5.5.6 1.1.6 1.5 1.5 1.5 3.6v.6h-3.9c0-.8-.1-1-.3-1.2-.3-.3-1.4-.4-3.9-.4-2.4 0-3.2.1-3.5.4-.5.4-.6 1.1-.6 3.1 0 3.3.1 3.3 4.2 3.3 4.3 0 4.3 0 4.4-1.9h3.9v.1zM458.3 605.5l4.7 9.6h.8l4.6-9.6h4.3l-6.3 12.8h-6l-6.3-12.8h4.2zM503.5 605.5h9.2c3 0 3 0 3.6.1 2.1.2 2.8 1 2.8 3.3 0 1.8-.4 2.6-1.7 2.9 1.7.3 2.2 1 2.2 3.1 0 1.8-.5 2.8-1.6 3.2-.7.2-.9.3-5.3.3h-9.2v-12.9zm9.3 5c1.4 0 1.9 0 2.2-.2.3-.1.4-.4.4-.9s-.2-.8-.6-.9c-.2 0-.3 0-2-.1h-5.5v2h5.5v.1zm0 4.7c2.3 0 2.3 0 2.6-.2.3-.1.5-.4.5-1s-.2-.9-.6-1c-.2 0-.2 0-2.5-.1h-5.5v2.1h5.5v.2z"/>
    <path d="M281.8 476.6v2h-2.2v-2h2.2zm-.1-4.4v3.7h-1.9v-3.7h1.9zM325.5 475.8v-1.9c0-.8.1-1.1.2-1.4.2-.3.5-.4 1.4-.4h.5v.9h-.2c-.4 0-.5.2-.5.5v.2h.6v1.9h-2v.2zm2.8 0v-1.9c0-.8.1-1.1.2-1.4.2-.3.5-.4 1.4-.4h.5v.9h-.2c-.4 0-.5.2-.5.5v.2h.6v1.9h-2v.2zM375.1 472.2l-.2 1.6h1.9l.2-1.6h1.2l-.2 1.6h1.3l-.1 1h-1.3l-.2 1.2h1.3l-.1 1h-1.3l-.2 1.6h-1.2l.2-1.6h-1.9l-.2 1.6H373l.2-1.6H372l.1-1h1.3l.2-1.2h-1.3l.1-1h1.3l.2-1.6h1.2zm-.5 3.8h1.9l.2-1.2h-1.9l-.2 1.2zM424.9 472.2v.5c2.5 0 3.1.3 3 1.8v.3h-1.4c0-.6 0-.6-1.6-.6v1.1h1c1 0 1.4.1 1.8.4.3.3.4.7.4 1.5 0 1.7-.5 2.1-2.1 2.1h-1v.7h-1v-.7h-.3c-2.4 0-2.8-.3-2.8-1.9v-.4h1.4v.1c0 .5 0 .6.3.7.1 0 .7.1 1.2.1h.2v-1.2c-1.5 0-1.5 0-2-.1-.8-.1-1.1-.7-1.1-1.8s.3-1.6.9-1.9c.3-.1 1-.2 1.8-.2h.4v-.5h.9zm-.9 2h-1.2c-.2 0-.4.2-.4.5s.1.5.4.5.5.1 1.1.1v-1.1h.1zm.9 3.6h.5c1.1 0 1.2-.1 1.2-.6 0-.3-.1-.5-.4-.5s-.3 0-1.3-.1v1.2zM470.9 472.5c.2.2.3.5.3 1.6 0 1.3 0 1.5-.4 1.7-.2.1-.8.2-1.4.2-.7 0-1.2-.1-1.5-.2-.3-.2-.3-.5-.3-1.8s.1-1.5.5-1.7c.2-.1.8-.2 1.3-.2.7.1 1.3.2 1.5.4zm-2.3.8c-.1.1-.2.3-.2.8 0 .6 0 .8.2.9.1 0 .4.1.8.1s.7 0 .8-.1c.1 0 .2-.3.2-.8 0-.3 0-.5-.1-.7 0-.1-.1-.2-.3-.2h-.6c-.5-.1-.7 0-.8 0zm6-.4-4.6 6-.5-.8 4.7-6 .4.8zm1.5 2.3c.3.2.3.4.3 1.7 0 1.4 0 1.6-.4 1.7-.3.1-.8.2-1.4.2s-1.2-.1-1.4-.2c-.3-.2-.3-.4-.3-1.8 0-1.3.1-1.5.5-1.7.2-.1.7-.2 1.3-.2.6.1 1.2.2 1.4.3zm-2.3.9c-.1.1-.2.3-.2.8 0 .6 0 .8.2.9.1 0 .4.1.7.1.4 0 .8 0 .9-.1.1 0 .2-.3.2-.8 0-.6 0-.8-.2-.8-.1 0-.5-.1-.8-.1-.4-.1-.7-.1-.8 0zM523.6 475.1v.4c0 .7 0 .9-.1 1.2l1.1.7-.5 1.3-1-.7c-.3.6-.8.7-2.6.7-1.5 0-2-.1-2.3-.4s-.4-.7-.4-1.7c0-1.2.2-1.5 1-1.6-.4-.2-.5-.5-.5-1.3s.2-1.2.6-1.4c.2-.1.6-.1 1.6-.1 1.6 0 1.9 0 2.2.3.3.2.4.6.4 1.5v.4h-1.3c0-.4 0-.5-.1-.6s-.3-.1-.9-.1c-.7 0-1 0-1 .1-.1 0-.1.1-.1.3 0 .2 0 .3.3.4l2.4 1.6v-.8h1.2v-.2zm-4 .7c-.4.1-.5.1-.5.8 0 .7.1.7 1.3.7h.6c.9 0 .9 0 1-.1l-2.4-1.4zM266.8 574.3l1.5-1.4-3.1-3.3h14.3v-2h-14.2l3-2.8-1.4-1.5-5.5 5.3zM263.1 524l-1.4.3c-.1-.8-.4-1.3-.9-1.3-.3 0-.5.1-.7.3-.1.2-.2.5-.3.9 0 .3-.1.8-.1 1.4 0 .6 0 1 .1 1.4 0 .4.1.7.3.9s.4.4.7.4c.6 0 .9-.5 1-1.6l1.4.4c-.2 1.6-1 2.3-2.4 2.3-.8 0-1.5-.3-1.9-.9-.4-.6-.6-1.6-.6-2.8 0-.8.1-1.5.2-2s.4-1 .8-1.4.9-.5 1.6-.5 1.2.2 1.5.5c.3.4.5 1 .7 1.7zM266.5 523.1v6.3h-1.4v-6.3h-1.7V522h4.8v1.2h-1.7v-.1zM272.7 529.4l-2.3-4.9.1 4.9h-1.3V522h1.4l2.1 4.7V522h1.3v7.5l-1.3-.1zM275.7 525.1l-.3-.6c.3-.1.5-.2.6-.4s.2-.4.2-.7h-.7V522h1.4v1.1c0 .4-.1.8-.2 1-.1.3-.3.5-.4.6-.1.2-.3.3-.6.4zM282.7 528.2v1.2h-4.3V522h1.4v6.3l2.9-.1zM260.3 609.2c-.2 0-.4.1-.5.2-.1.1-.2.3-.2.5 0 .1 0 .3.1.4l.4.4c.2.1.4.3.8.4.5.3 1 .5 1.2.7.3.2.5.5.6.7.1.3.2.6.2.9 0 .4-.1.8-.3 1.2s-.5.6-.8.8c-.4.2-.8.3-1.3.3-.8 0-1.4-.2-1.8-.6s-.6-1.1-.7-1.9l1.4-.1c0 .4.1.7.2.9s.2.4.4.5.3.1.6.1c.2 0 .4 0 .5-.1s.3-.2.3-.3c.1-.1.1-.3.1-.5s0-.3-.1-.5c-.1-.1-.2-.3-.5-.4-.2-.1-.5-.3-.9-.5-.6-.3-1.1-.6-1.3-.9-.3-.3-.4-.8-.4-1.2s.1-.7.3-1.1.4-.5.8-.7.7-.3 1.2-.3c.7 0 1.3.2 1.6.6.4.4.6.9.6 1.7l-1.4.1c-.2-.9-.5-1.3-1.1-1.3zM267.5 615.6v-3.3h-2.1v3.3H264v-7.5h1.4v3h2.1v-3h1.4v7.5h-1.4zM270.5 615.6v-7.5h1.4v7.5h-1.4zM274.8 609.4v1.8h2.1v1.2h-2.1v3.2h-1.4v-7.5h4v1.2l-2.6.1zM281.2 609.3v6.3h-1.4v-6.3h-1.7v-1.2h4.8v1.2h-1.7z"/>
    <path class="st9" d="M838.1 496.4v-26.5c0-2.4 2-4.4 4.4-4.4h37c2.4 0 4.4 2 4.4 4.4v26.5c0 2.4-2 4.4-4.4 4.4h-37c-2.4 0-4.2-2-4.4-4.4z"/>
    <path class="st10" d="M845.7 493v-19.7c0-1.5 1.2-2.7 2.7-2.7h25.3c1.5 0 2.7 1.2 2.7 2.7V493c0 1.5-1.2 2.7-2.7 2.7h-25.3c-1.5 0-2.7-1.2-2.7-2.7z"/>
    <path class="st9" d="M790 496.4v-26.5c0-2.4 2-4.4 4.4-4.4h37c2.4 0 4.4 2 4.4 4.4v26.5c0 2.4-2 4.4-4.4 4.4h-37c-2.4 0-4.4-2-4.4-4.4z"/>
    <path class="st10" d="M797.5 493v-19.7c0-1.5 1.2-2.7 2.7-2.7h25.3c1.5 0 2.7 1.2 2.7 2.7V493c0 1.5-1.2 2.7-2.7 2.7h-25.3c-1.4 0-2.7-1.2-2.7-2.7z"/>
    <path class="st9" d="M741.7 496.4v-26.5c0-2.4 2-4.4 4.4-4.4h37c2.4 0 4.4 2 4.4 4.4v26.5c0 2.4-2 4.4-4.4 4.4h-37c-2.3 0-4.3-2-4.4-4.4z"/>
    <path class="st10" d="M749.3 493v-19.7c0-1.5 1.2-2.7 2.7-2.7h25.3c1.5 0 2.7 1.2 2.7 2.7V493c0 1.5-1.2 2.7-2.7 2.7H752c-1.5 0-2.8-1.2-2.7-2.7z"/>
    <path class="st9" d="M693.5 496.4v-26.5c0-2.4 2-4.4 4.4-4.4h37c2.4 0 4.4 2 4.4 4.4v26.5c0 2.4-2 4.4-4.4 4.4h-37c-2.4 0-4.4-2-4.4-4.4z"/>
    <path class="st10" d="M701 493v-19.7c0-1.5 1.2-2.7 2.7-2.7H729c1.5 0 2.7 1.2 2.7 2.7V493c0 1.5-1.2 2.7-2.7 2.7h-25.3c-1.5 0-2.7-1.2-2.7-2.7z"/>
    <path class="st9" d="M645.2 496.4v-26.5c0-2.4 2-4.4 4.4-4.4h37c2.4 0 4.4 2 4.4 4.4v26.5c0 2.4-2 4.4-4.4 4.4h-37c-2.4 0-4.2-2-4.4-4.4z"/>
    <path class="st10" d="M652.8 493v-19.7c0-1.5 1.2-2.7 2.7-2.7h25.3c1.5 0 2.7 1.2 2.7 2.7V493c0 1.5-1.2 2.7-2.7 2.7h-25.3c-1.5 0-2.6-1.2-2.7-2.7z"/>
    <path class="st9" d="M597 496.4v-26.5c0-2.4 2-4.4 4.4-4.4h37c2.4 0 4.4 2 4.4 4.4v26.5c0 2.4-2 4.4-4.4 4.4h-37c-2.4 0-4.4-2-4.4-4.4z"/>
    <path class="st10" d="M604.5 493v-19.7c0-1.5 1.2-2.7 2.7-2.7h25.3c1.5 0 2.7 1.2 2.7 2.7V493c0 1.5-1.2 2.7-2.7 2.7h-25.3c-1.3 0-2.5-1.2-2.7-2.7z"/>
    <path class="st9" d="M838.1 539.5V513c0-2.4 2-4.4 4.4-4.4h37c2.4 0 4.4 2 4.4 4.4v26.5c0 2.4-2 4.4-4.4 4.4h-37c-2.4 0-4.2-2-4.4-4.4z"/>
    <path class="st10" d="M845.7 536.1v-19.7c0-1.5 1.2-2.7 2.7-2.7h25.3c1.5 0 2.7 1.2 2.7 2.7v19.7c0 1.5-1.2 2.7-2.7 2.7h-25.3c-1.5 0-2.7-1.2-2.7-2.7z"/>
    <path class="st9" d="M790 539.5V513c0-2.4 2-4.4 4.4-4.4h37c2.4 0 4.4 2 4.4 4.4v26.5c0 2.4-2 4.4-4.4 4.4h-37c-2.4 0-4.4-2-4.4-4.4z"/>
    <path class="st11" d="M797.5 536.1v-19.7c0-1.5 1.2-2.7 2.7-2.7h25.3c1.5 0 2.7 1.2 2.7 2.7v19.7c0 1.5-1.2 2.7-2.7 2.7h-25.3c-1.4 0-2.7-1.2-2.7-2.7z"/>
    <path class="st9" d="M741.7 539.5V513c0-2.4 2-4.4 4.4-4.4h37c2.4 0 4.4 2 4.4 4.4v26.5c0 2.4-2 4.4-4.4 4.4h-37c-2.3 0-4.3-2-4.4-4.4z"/>
    <path class="st11" d="M749.3 536.1v-19.7c0-1.5 1.2-2.7 2.7-2.7h25.3c1.5 0 2.7 1.2 2.7 2.7v19.7c0 1.5-1.2 2.7-2.7 2.7H752c-1.5 0-2.8-1.2-2.7-2.7z"/>
    <path class="st9" d="M693.5 539.5V513c0-2.4 2-4.4 4.4-4.4h37c2.4 0 4.4 2 4.4 4.4v26.5c0 2.4-2 4.4-4.4 4.4h-37c-2.4 0-4.4-2-4.4-4.4z"/>
    <path class="st11" d="M701 536.1v-19.7c0-1.5 1.2-2.7 2.7-2.7H729c1.5 0 2.7 1.2 2.7 2.7v19.7c0 1.5-1.2 2.7-2.7 2.7h-25.3c-1.5 0-2.7-1.2-2.7-2.7z"/>
    <path class="st9" d="M645.2 539.5V513c0-2.4 2-4.4 4.4-4.4h37c2.4 0 4.4 2 4.4 4.4v26.5c0 2.4-2 4.4-4.4 4.4h-37c-2.4 0-4.2-2-4.4-4.4z"/>
    <path class="st11" d="M652.8 536.1v-19.7c0-1.5 1.2-2.7 2.7-2.7h25.3c1.5 0 2.7 1.2 2.7 2.7v19.7c0 1.5-1.2 2.7-2.7 2.7h-25.3c-1.5 0-2.6-1.2-2.7-2.7z"/>
    <path class="st9" d="M597 539.5V513c0-2.4 2-4.4 4.4-4.4h37c2.4 0 4.4 2 4.4 4.4v26.5c0 2.4-2 4.4-4.4 4.4h-37c-2.4 0-4.4-2-4.4-4.4z"/>
    <path class="st11" d="M604.5 536.1v-19.7c0-1.5 1.2-2.7 2.7-2.7h25.3c1.5 0 2.7 1.2 2.7 2.7v19.7c0 1.5-1.2 2.7-2.7 2.7h-25.3c-1.3 0-2.5-1.2-2.7-2.7z"/>
    <path class="st9" d="M838.1 582.6v-26.5c0-2.4 2-4.4 4.4-4.4h37c2.4 0 4.4 2 4.4 4.4v26.4c0 2.4-2 4.4-4.4 4.4h-37c-2.4 0-4.2-1.9-4.4-4.3z"/>
    <path class="st10" d="M845.7 579.2v-19.7c0-1.5 1.2-2.7 2.7-2.7h25.3c1.5 0 2.7 1.2 2.7 2.7v19.7c0 1.5-1.2 2.7-2.7 2.7h-25.3c-1.5 0-2.7-1.2-2.7-2.7z"/>
    <path class="st9" d="M790 582.6v-26.5c0-2.4 2-4.4 4.4-4.4h37c2.4 0 4.4 2 4.4 4.4v26.4c0 2.4-2 4.4-4.4 4.4h-37c-2.4 0-4.4-1.9-4.4-4.3z"/>
    <path class="st10" d="M797.5 579.2v-19.7c0-1.5 1.2-2.7 2.7-2.7h25.3c1.5 0 2.7 1.2 2.7 2.7v19.7c0 1.5-1.2 2.7-2.7 2.7h-25.3c-1.4 0-2.7-1.2-2.7-2.7z"/>
    <path class="st9" d="M741.7 582.6v-26.5c0-2.4 2-4.4 4.4-4.4h37c2.4 0 4.4 2 4.4 4.4v26.4c0 2.4-2 4.4-4.4 4.4h-37c-2.3 0-4.3-1.9-4.4-4.3z"/>
    <path class="st11" d="M749.3 579.2v-19.7c0-1.5 1.2-2.7 2.7-2.7h25.3c1.5 0 2.7 1.2 2.7 2.7v19.7c0 1.5-1.2 2.7-2.7 2.7H752c-1.5 0-2.8-1.2-2.7-2.7z"/>
    <path class="st9" d="M693.5 582.6v-26.5c0-2.4 2-4.4 4.4-4.4h37c2.4 0 4.4 2 4.4 4.4v26.4c0 2.4-2 4.4-4.4 4.4h-37c-2.4 0-4.4-1.9-4.4-4.3z"/>
    <path class="st11" d="M701 579.2v-19.7c0-1.5 1.2-2.7 2.7-2.7H729c1.5 0 2.7 1.2 2.7 2.7v19.7c0 1.5-1.2 2.7-2.7 2.7h-25.3c-1.5 0-2.7-1.2-2.7-2.7z"/>
    <path class="st9" d="M645.2 582.6v-26.5c0-2.4 2-4.4 4.4-4.4h37c2.4 0 4.4 2 4.4 4.4v26.4c0 2.4-2 4.4-4.4 4.4h-37c-2.4 0-4.2-1.9-4.4-4.3z"/>
    <path class="st11" d="M652.8 579.2v-19.7c0-1.5 1.2-2.7 2.7-2.7h25.3c1.5 0 2.7 1.2 2.7 2.7v19.7c0 1.5-1.2 2.7-2.7 2.7h-25.3c-1.5 0-2.6-1.2-2.7-2.7z"/>
    <path class="st9" d="M597 582.6v-26.5c0-2.4 2-4.4 4.4-4.4h37c2.4 0 4.4 2 4.4 4.4v26.4c0 2.4-2 4.4-4.4 4.4h-37c-2.4 0-4.4-1.9-4.4-4.3z"/>
    <path class="st11" d="M604.5 579.2v-19.7c0-1.5 1.2-2.7 2.7-2.7h25.3c1.5 0 2.7 1.2 2.7 2.7v19.7c0 1.5-1.2 2.7-2.7 2.7h-25.3c-1.3 0-2.5-1.2-2.7-2.7z"/>
    <path class="st9" d="M838.1 625.6v-26.5c0-2.4 2-4.4 4.4-4.4h37c2.4 0 4.4 2 4.4 4.4v26.5c0 2.4-2 4.4-4.4 4.4h-37c-2.4 0-4.2-1.9-4.4-4.4z"/>
    <path class="st10" d="M845.7 622.3v-19.7c0-1.5 1.2-2.7 2.7-2.7h25.3c1.5 0 2.7 1.2 2.7 2.7v19.7c0 1.5-1.2 2.7-2.7 2.7h-25.3c-1.5 0-2.7-1.2-2.7-2.7z"/>
    <path class="st9" d="M790 625.6v-26.5c0-2.4 2-4.4 4.4-4.4h37c2.4 0 4.4 2 4.4 4.4v26.5c0 2.4-2 4.4-4.4 4.4h-37c-2.4 0-4.4-1.9-4.4-4.4z"/>
    <path class="st10" d="M797.5 622.3v-19.7c0-1.5 1.2-2.7 2.7-2.7h25.3c1.5 0 2.7 1.2 2.7 2.7v19.7c0 1.5-1.2 2.7-2.7 2.7h-25.3c-1.4 0-2.7-1.2-2.7-2.7z"/>
    <path class="st9" d="M741.7 625.6v-26.5c0-2.4 2-4.4 4.4-4.4h37c2.4 0 4.4 2 4.4 4.4v26.5c0 2.4-2 4.4-4.4 4.4h-37c-2.3 0-4.3-1.9-4.4-4.4z"/>
    <path class="st10" d="M749.3 622.3v-19.7c0-1.5 1.2-2.7 2.7-2.7h25.3c1.5 0 2.7 1.2 2.7 2.7v19.7c0 1.5-1.2 2.7-2.7 2.7H752c-1.5 0-2.8-1.2-2.7-2.7z"/>
    <path class="st9" d="M693.5 625.6v-26.5c0-2.4 2-4.4 4.4-4.4h37c2.4 0 4.4 2 4.4 4.4v26.5c0 2.4-2 4.4-4.4 4.4h-37c-2.4 0-4.4-1.9-4.4-4.4z"/>
    <path class="st10" d="M701 622.3v-19.7c0-1.5 1.2-2.7 2.7-2.7H729c1.5 0 2.7 1.2 2.7 2.7v19.7c0 1.5-1.2 2.7-2.7 2.7h-25.3c-1.5 0-2.7-1.2-2.7-2.7z"/>
    <path class="st9" d="M645.2 625.6v-26.5c0-2.4 2-4.4 4.4-4.4h37c2.4 0 4.4 2 4.4 4.4v26.5c0 2.4-2 4.4-4.4 4.4h-37c-2.4 0-4.2-1.9-4.4-4.4z"/>
    <path class="st11" d="M652.8 622.3v-19.7c0-1.5 1.2-2.7 2.7-2.7h25.3c1.5 0 2.7 1.2 2.7 2.7v19.7c0 1.5-1.2 2.7-2.7 2.7h-25.3c-1.5 0-2.6-1.2-2.7-2.7z"/>
    <path class="st9" d="M597 625.6v-26.5c0-2.4 2-4.4 4.4-4.4h37c2.4 0 4.4 2 4.4 4.4v26.5c0 2.4-2 4.4-4.4 4.4h-37c-2.4 0-4.4-1.9-4.4-4.4z"/>
    <path class="st11" d="M604.5 622.3v-19.7c0-1.5 1.2-2.7 2.7-2.7h25.3c1.5 0 2.7 1.2 2.7 2.7v19.7c0 1.5-1.2 2.7-2.7 2.7h-25.3c-1.3 0-2.5-1.2-2.7-2.7zM623.1 478.9v3l-7.3 9.9h-4.9l7.2-9.6h-9.7v-3.3h14.7zM656.5 482.1c0-1.9.6-2.8 2-3.2.8-.2 2.9-.4 5.4-.4 3.2 0 5.1.2 5.9.5 1.1.5 1.5 1.4 1.5 3 0 2-.6 2.7-2.3 2.8.9.2 1.3.3 1.6.5.7.5.9 1.2.9 2.7 0 2-.5 2.8-2.1 3.2-.9.2-1.8.3-5.4.3-4.1 0-5-.1-6-.5-1.1-.5-1.5-1.3-1.5-3 0-1.6.3-2.4 1.2-2.9.3-.2.6-.2 1.3-.3-1.9.1-2.5-.6-2.5-2.7zm3.5 5.6c0 1.1.1 1.2 3.4 1.2 4 0 4.2-.1 4.2-1.3 0-.7-.2-.9-.6-1-.3-.1-1.8-.1-3.2-.1-3.7-.1-3.8 0-3.8 1.2zm.2-5.1c0 1.1.2 1.1 3.5 1.1 3.8 0 3.8 0 3.8-1.1 0-.6-.2-.9-.7-1-.4-.1-1.9-.1-3.3-.1-2.9-.1-3.3.1-3.3 1.1zM708 487.8v.2c0 .5.1.6.5.7s1.3.2 2.6.2c3.3 0 4-.2 4.2-.9.1-.3.1-.9.1-2-.8.9-1.8 1.2-5 1.2-5.6 0-6.4-.6-6.4-4.3 0-3.7.9-4.3 7.4-4.3 3.9 0 5.7.2 6.6.9 1 .7 1.2 1.8 1.2 6.2 0 3.3-.2 4.2-1 4.9-.6.6-1.5.8-3.4 1-.9.1-3 .2-4.6.2-2.8 0-4.1-.2-4.9-.7-.8-.5-1-1.2-1-3.2h3.7v-.1zm-.3-5c0 1.3.2 1.3 3.4 1.3 2.1 0 3.4-.1 3.7-.2.4-.2.5-.5.5-1.2 0-.8-.2-1-.7-1.2-.4-.1-1.7-.2-3.3-.2-3.3.1-3.6.3-3.6 1.5zM767.2 478.8c1.5.2 2.5 1.1 2.7 2.5.1.8.2 1 .2 3.8s0 3.1-.2 3.9c-.2 1.4-1.2 2.3-2.7 2.5-.9.2-2.8.2-5.2.2-2.3 0-4.2-.1-5.2-.2-1.5-.2-2.5-1.1-2.7-2.5-.2-.8-.2-1-.2-4 0-2.6 0-2.9.2-3.7.3-1.4 1.2-2.3 2.7-2.5 1-.2 2.8-.2 5.2-.2 2.3 0 4.2 0 5.2.2zm-9.4 6.3c0 3.2.1 3.3 3.9 3.3 4.3 0 4.4-.1 4.4-3.3 0-3.2-.1-3.2-4.4-3.2-3.7 0-3.9.1-3.9 3.2z"/>
    <path class="st12" d="m615.8 519.8 4.2 5.1 4-5.1h5.1l-7 8.3v4.5h-4v-4.5l-7.3-8.3h5zM663.8 519.7v5.9c0 2 0 2 .1 2.6.2 1 1 1.2 4.3 1.2 2.7 0 3.5-.1 3.9-.6.3-.3.4-.7.5-1.9v-7.2h3.9v5.9c-.1 2.9-.1 3.1-.2 4-.2 1.5-1.2 2.5-2.7 2.8-1.2.2-2.4.3-5.4.3-4.9 0-6.4-.3-7.4-1.3-.6-.7-.8-1.4-.9-3.3v-8.4h3.9zM718.4 519.8v12.8h-4.1v-12.8h4.1zM772.1 520.5c1 .7 1.3 2 1.3 5.7s-.3 5-1.3 5.7c-1 .8-2.2.9-7.5.9-5.4 0-6.6-.1-7.6-.9s-1.3-2-1.3-5.8c0-3.6.3-4.9 1.3-5.6 1-.8 2.2-.9 7.5-.9 5.5 0 6.7.2 7.6.9zm-12.1 3.3c-.2.4-.3 1.2-.3 2.8s.1 2.1.6 2.5 1.1.5 4.4.5c3.1 0 3.8-.1 4.3-.5.4-.3.6-.9.6-2.5 0-1.9-.1-2.6-.5-3.1s-.9-.6-4.4-.6c-3.9.1-4.3.1-4.7.9zM805.1 519.8h8.8c2.4 0 2.8 0 3.5.1 2.4.4 3.1 1.4 3.1 4.7 0 2.8-.5 4-2.1 4.5-.9.3-1.7.4-4.5.4H809v3.1h-3.9v-12.8zm8.8 6.5c1.8 0 1.9 0 2.2-.2.4-.2.5-.6.5-1.5s-.2-1.3-.7-1.5c-.3-.1-.3-.1-2-.1H809v3.3h4.9zM615.5 562.9v4.6h8.8v-4.6h4.1v12.8h-4.1v-4.6h-8.8v4.6h-4.1v-12.8h4.1zM675 562.8v7.7c0 2.4-.2 3.3-.8 4.1-.8 1-2.2 1.3-5.8 1.3-3.8 0-5.2-.3-6.1-1.1-.6-.6-.9-1.5-.9-3.3v-1.3h3.9c0 1.4.1 1.7.3 2 .3.3 1 .4 2.4.4 1.5 0 2.2-.1 2.6-.4.3-.3.4-.5.4-1.7v-7.6h4v-.1zM711.4 563v4.7h2.1l5.1-4.7h6l-7.4 6.4 8 6.5h-5.9l-5.8-4.9h-2.1v4.9h-3.9V563h3.9zM762.1 562.9v9.6h9.1v3.3H758V563l4.1-.1zM617.8 606l6.7 9.6h.4l-.1-9.6h4v12.8H622l-6.8-9.6h-.4l.1 9.6h-4V606h6.9zM664.4 606l3.8 8.3 3.8-8.3h7v12.8h-3.8l.1-9.6h-.7l-4.8 9.6h-3.3l-4.8-9.6h-.7l.1 9.6h-3.8V606h7.1z"/>
    <path d="M629.1 476.4v-1.9c0-.8.1-1.1.2-1.4.2-.3.5-.4 1.6-.4h.5v1H631.1c-.3 0-.5.2-.5.5v.2h.5v1.9l-2 .1zM678.6 473.9h-.3c-.7 0-.9.1-1 .4 0 .2-.1.8-.1 2.1 0 1.4 0 1.8.1 2s.3.3 1 .3h.3v1.2h-.3c-1.5 0-1.9-.1-2.3-.5-.4-.5-.5-1-.5-3.2 0-2 .1-2.6.5-3s.8-.5 2.2-.5h.4v1.2zM724.6 472.7c1.4 0 1.8.1 2.2.5.4.5.5 1 .5 3 0 2.2-.1 2.8-.5 3.2-.4.4-.8.5-2.3.5h-.3v-1.2h.3c.8 0 1-.1 1-.4 0-.2.1-.8.1-1.9 0-1.5 0-2-.1-2.2s-.4-.3-1-.3h-.3v-1.2h.4zM776.1 474.3l-.1 2.1v.1c0 .3.1.4.3.4.3 0 .3-.2.3-1.5 0-1.1-.1-1.5-.3-1.6-.2-.2-.4-.2-1.6-.2-2 0-2.2 0-2.5.2s-.4.7-.4 1.8c0 1.4 0 1.9.1 2.2.1.3.3.4.6.5.2.1.5.1 1.2.1 1.8 0 2 0 2.2-.4l.6.3c-.1.2-.2.4-.3.5-.3.3-.7.4-2.7.4-1.1 0-1.4 0-1.7-.2-.4-.2-.7-.6-.8-1.1-.1-.3-.1-1-.1-1.8 0-1.8.1-2.4.6-2.8.2-.3.5-.4 1-.4h1.8c1.4 0 1.8 0 2.1.1.4.1.6.5.8 1 .1.3.1.8.1 1.5 0 1-.1 1.5-.3 1.9-.2.3-.4.4-1 .4-.8 0-1-.1-1.1-.5-.1.4-.4.5-1.1.5-1.1 0-1.4-.3-1.4-1.2 0-.9.1-1.5.4-1.8.2-.3.5-.4 1.3-.4.6 0 .8.1 1 .5v-.4h1v-.2zm-2.7 1.8c0 .3.1.4.2.5h.5c.4 0 .6-.1.7-.2.1-.1.1-.3.1-.7 0-.4-.1-.5-.7-.5-.7 0-.8.2-.8.9zM805.5 487v1.7h-2V487h2zm0 2.9v1.7h-2v-1.7h2zM822.2 473.7v1.5l1.4-.4.4 1.3-1.4.4.8 1.3-1.1.8-.9-1.3-.9 1.2-1.1-.8.9-1.2-1.4-.5.4-1.3 1.4.5v-1.5h1.5zM854.1 486.6v1.3H850v-1.3h4.1zM872.4 473.7v1.2h-6.3v-1.2h6.3zm0 1.9v1.2h-6.3v-1.2h6.3zM805.8 574.9v1.9c0 .8-.1 1.1-.3 1.4-.3.3-.5.4-1.6.4h-.5v-1H803.7c.3 0 .5-.2.5-.5v-.2h-.5V575l2.1-.1zm0-2.6v1.7h-2v-1.7h2zM817.4 563.3v-1.2h2.6v-2.3h1.2v2.3h2.6v1.2h-2.6v2.3H820v-2.3h-2.6zM711.8 615.9v1.9c0 .8-.1 1.1-.3 1.4-.3.3-.5.4-1.6.4h-.5v-1H709.7c.3 0 .5-.2.5-.5v-.2h-.5V616l2.1-.1zM727 604.6l-3.3 1.9 3.3 1.9v2.8l-6.2-3.5v-2.3l6.2-3.5v2.7zM758.9 615.9v1.7h-2v-1.7h2zM776.2 605.3v2.3l-6.2 3.5v-2.8l3.3-1.9-3.3-1.9v-2.8l6.2 3.6zM803.1 621.2h-1.2l5.3-9.2h1.2l-5.3 9.2zM816.5 604.3v-.3c0-.8.1-1.1.3-1.4.4-.5 1.2-.7 3.2-.7 2.5 0 3.1.3 3.1 2 0 1-.2 1.5-.9 1.7-.3.1-.5.1-1.4.3-.5.1-.6.1-.6.4h-1.7v-.3c0-.8.2-1.1.6-1.3.2-.1.3-.1 1.2-.3.7-.1.9-.3.9-.6s-.1-.4-.4-.5c-.2-.1-.5-.1-1.2-.1-1 0-1.2 0-1.4.1s-.2.2-.2.8v.1l-1.5.1zm3.9 2.4v1.7h-2.1v-1.7h2.1zM864.7 563.9l-1.5 1.4 3.1 3.2H852v2h14.2l-3 2.9 1.4 1.4 5.5-5.3zM850 609.8c-.2 0-.4.1-.5.2-.1.1-.2.3-.2.5 0 .1 0 .3.1.4l.4.4c.2.1.4.3.8.4.5.3 1 .5 1.2.7.3.2.5.5.6.7.1.3.2.6.2.9 0 .4-.1.8-.3 1.2s-.5.6-.8.8c-.4.2-.8.3-1.3.3-.8 0-1.4-.2-1.8-.6s-.6-1.1-.7-1.9l1.4-.1c0 .4.1.7.2.9.1.2.2.4.4.5s.3.1.6.1c.2 0 .4 0 .5-.1s.3-.2.3-.3c.1-.1.1-.3.1-.5s0-.3-.1-.5c-.1-.1-.2-.3-.5-.4-.2-.1-.5-.3-.9-.5-.6-.3-1.1-.6-1.3-.9-.3-.3-.4-.8-.4-1.2s.1-.7.3-1.1c.2-.3.4-.5.8-.7s.7-.3 1.2-.3c.7 0 1.3.2 1.6.6s.6.9.6 1.7l-1.4.1c-.3-1-.6-1.3-1.1-1.3zM858.3 611c0 .5-.1 1-.3 1.3-.2.4-.5.6-.9.8s-.8.3-1.3.3h-.8v2.8h-1.4v-7.5h2.2c.6 0 1.1.1 1.5.3s.6.4.8.8c.2.3.2.7.2 1.2zm-3.2 1.1h.5c.4 0 .7-.1.9-.3s.3-.5.3-.8c0-.4-.1-.7-.3-.8-.2-.2-.5-.3-.9-.3h-.6l.1 2.2zM860.1 614.7l-.4 1.5h-1.5l2.1-7.5h1.5l2.1 7.5h-1.5l-.3-1.5h-2zm1.1-4.6-.8 3.4h1.6l-.8-3.4zM869.3 610.8l-1.4.3c-.1-.8-.4-1.3-.9-1.3-.3 0-.5.1-.7.3-.1.2-.2.5-.3.9 0 .3-.1.8-.1 1.4 0 .6 0 1 .1 1.4s.1.7.3.9.4.4.7.4c.6 0 .9-.5 1-1.6l1.4.4c-.2 1.6-1 2.3-2.4 2.3-.8 0-1.5-.3-1.9-.9-.4-.6-.6-1.6-.6-2.8 0-.8.1-1.5.2-2 .1-.6.4-1 .8-1.4.4-.3.9-.5 1.6-.5.7 0 1.2.2 1.5.5.3.3.5.9.7 1.7zM871.8 609.9v1.8h2.3v1.2h-2.3v2.2h2.6v1.2h-4v-7.5h3.9v1.2h-2.5v-.1zM853.7 524.6c0 .5-.1.9-.4 1.3s-.6.6-1.1.8c.1 0 .2.1.3.2l.4.4c.1.2.3.4.4.8l.9 2h-1.6l-.9-1.8c-.2-.4-.4-.7-.5-.9s-.2-.3-.3-.3c-.1-.1-.2-.1-.4-.1h-.3v3.1h-1.4v-7.5h2.4c.8 0 1.4.2 1.8.5s.7.9.7 1.5zm-1.5.1c0-.3-.1-.6-.3-.7s-.5-.2-.9-.2h-.7v2h.6c.5 0 .8-.1 1-.3s.3-.5.3-.8zM856.5 523.7v1.8h2.3v1.2h-2.3v2.2h2.6v1.2h-4v-7.5h3.9v1.2h-2.5v-.1zM862.9 523.7v6.3h-1.4v-6.3h-1.7v-1.2h4.8v1.2h-1.7zM865.6 525.6l-.3-.6c.3-.1.5-.2.6-.4s.2-.4.2-.7h-.7v-1.4h1.4v1.1c0 .4-.1.8-.2 1-.1.3-.3.5-.4.6-.1.2-.3.3-.6.4zM871.8 530l-2.3-4.9.1 4.9h-1.3v-7.5h1.4l2.1 4.7v-4.7h1.3v7.5h-1.3z"/>
    <path class="st5" d="M140.3 337.8h-7.4c-1.4 0-2.5-1.1-2.5-2.5v-34.1c0-1.4 1.1-2.5 2.5-2.5h7.4v39.1z"/>
    <path d="M140.3 298.6v39.2h-7.4c-1.4 0-2.5-1.1-2.5-2.5v-34.1c0-1.4 1.1-2.5 2.5-2.5h7.4m3-3.1h-10.4c-3 0-5.5 2.5-5.5 5.5v34.1c0 3 2.5 5.5 5.5 5.5h10.4v-45.1z"/>
    <path class="st2" d="M148.7 349.7c0 .9-.1 1.7-.3 2.3s-.5 1.1-1 1.5-1.1.5-1.9.5c-.8 0-1.5-.2-1.9-.6s-.8-1-.9-1.6-.2-1.4-.2-2.3c0-2.9 1-4.3 3.1-4.3 1.1 0 1.9.4 2.4 1.1s.7 1.8.7 3.4zm-4.5-.3c0 .8 0 1.4.1 1.9s.2.8.5 1 .5.3.8.3c.4 0 .7-.1.9-.4s.3-.6.4-1 .1-1 .1-1.8c0-.9-.1-1.6-.3-2.1s-.6-.7-1.1-.7c-.4 0-.7.1-.9.4s-.3.6-.4 1.1-.1.8-.1 1.3zM151.8 346.6v2.1h2.4v1.4h-2.4v3.7h-1.6v-8.6h4.6v1.4h-3zM157.8 346.6v2.1h2.4v1.4h-2.4v3.7h-1.6v-8.6h4.6v1.4h-3zM207.2 349.7c0 .9-.1 1.7-.3 2.3s-.5 1.1-1 1.5-1.1.5-1.9.5c-.8 0-1.5-.2-1.9-.6s-.8-1-.9-1.6-.2-1.4-.2-2.3c0-2.9 1-4.3 3.1-4.3 1.1 0 1.9.4 2.4 1.1s.7 1.8.7 3.4zm-4.6-.3c0 .8 0 1.4.1 1.9s.2.8.5 1 .5.3.8.3c.4 0 .7-.1.9-.4s.3-.6.4-1 .1-1 .1-1.8c0-.9-.1-1.6-.3-2.1s-.6-.7-1.1-.7c-.4 0-.7.1-.9.4s-.3.6-.4 1.1-.1.8-.1 1.3zM212.7 353.8l-2.7-5.6.1 5.6h-1.5v-8.6h1.7l2.5 5.4v-5.4h1.5v8.6h-1.6zM288.6 347.7c0 .6-.1 1.1-.4 1.4s-.7.7-1.3.9c.1 0 .3.1.4.2s.3.2.4.4.3.5.5.9l1.1 2.3h-1.8l-1-2.1c-.2-.5-.4-.8-.6-1l-.4-.4c-.1-.1-.3-.1-.4-.1h-.4v3.6h-1.6v-8.6h2.8c.9 0 1.6.2 2.1.6s.6 1.1.6 1.9zm-1.7.1c0-.4-.1-.7-.4-.9s-.6-.3-1-.3h-.8v2.3h.7c.5 0 .9-.1 1.2-.3s.3-.4.3-.8zM291.8 346.6v2h2.6v1.4h-2.6v2.5h3v1.4h-4.7v-8.6h4.5v1.4l-2.8-.1zM298.6 346.4c-.3 0-.5.1-.6.2s-.3.4-.3.6 0 .3.1.5.2.3.4.4.5.3.9.5c.6.3 1.1.6 1.4.8s.6.6.7.8.2.6.2 1c0 .5-.1.9-.3 1.3s-.5.7-1 .9-.9.3-1.5.3c-.9 0-1.6-.2-2-.7s-.7-1.2-.8-2.2l1.6-.1c0 .4.1.8.2 1s.2.4.4.5.4.2.7.2c.2 0 .4-.1.6-.2s.3-.2.4-.4.1-.3.1-.5 0-.4-.1-.5l-.5-.5c-.2-.2-.6-.4-1.1-.6-.7-.3-1.2-.7-1.5-1.1s-.5-.9-.5-1.4.1-.9.3-1.2.5-.6.9-.8.8-.3 1.3-.3c.8 0 1.5.2 1.9.7s.7 1.1.7 1.9l-1.6.1c-.1-.7-.4-1.2-1-1.2zM304.4 346.6v2h2.6v1.4h-2.6v2.5h3v1.4h-4.7v-8.6h4.5v1.4l-2.8-.1zM311.8 346.6v7.2h-1.6v-7.2h-2v-1.3h5.6v1.3h-2z"/>
    <path d="M149.3 350.4c0 .9-.1 1.7-.3 2.3s-.5 1.1-1 1.5-1.1.5-1.9.5c-.8 0-1.5-.2-1.9-.6s-.8-1-.9-1.6-.2-1.4-.2-2.3c0-2.9 1-4.3 3.1-4.3 1.1 0 1.9.4 2.4 1.1s.7 1.8.7 3.4zm-4.5-.3c0 .8 0 1.4.1 1.9s.2.8.5 1 .5.3.8.3c.4 0 .7-.1.9-.4s.3-.6.4-1 .1-1 .1-1.8c0-.9-.1-1.6-.3-2.1s-.6-.7-1.1-.7c-.4 0-.7.1-.9.4s-.3.6-.4 1.1-.1.8-.1 1.3zM152.4 347.3v2.1h2.4v1.4h-2.4v3.7h-1.6v-8.6h4.6v1.4h-3zM158.4 347.3v2.1h2.4v1.4h-2.4v3.7h-1.6v-8.6h4.6v1.4h-3zM207.8 350.4c0 .9-.1 1.7-.3 2.3s-.5 1.1-1 1.5-1.1.5-1.9.5c-.8 0-1.5-.2-1.9-.6s-.8-1-.9-1.6-.2-1.4-.2-2.3c0-2.9 1-4.3 3.1-4.3 1.1 0 1.9.4 2.4 1.1s.7 1.8.7 3.4zm-4.6-.3c0 .8 0 1.4.1 1.9s.2.8.5 1 .5.3.8.3c.4 0 .7-.1.9-.4s.3-.6.4-1 .1-1 .1-1.8c0-.9-.1-1.6-.3-2.1s-.6-.7-1.1-.7c-.4 0-.7.1-.9.4s-.3.6-.4 1.1-.1.8-.1 1.3zM213.3 354.5l-2.7-5.6.1 5.6h-1.5v-8.6h1.7l2.5 5.4v-5.4h1.5v8.6h-1.6zM289.2 348.4c0 .6-.1 1.1-.4 1.4s-.7.7-1.3.9c.1 0 .3.1.4.2s.3.2.4.4.3.5.5.9l1.1 2.3H288l-1-2.1c-.2-.5-.4-.8-.6-1l-.4-.4c-.1-.1-.3-.1-.4-.1h-.4v3.6h-1.6v-8.6h2.8c.9 0 1.6.2 2.1.6s.7 1.1.7 1.9zm-1.7.1c0-.4-.1-.7-.4-.9s-.6-.3-1-.3h-.8v2.3h.7c.5 0 .9-.1 1.2-.3s.3-.4.3-.8zM292.4 347.3v2h2.6v1.4h-2.6v2.5h3v1.4h-4.7V346h4.5v1.4l-2.8-.1zM299.2 347.1c-.3 0-.5.1-.6.2s-.3.4-.3.6 0 .3.1.5.2.3.4.4.5.3.9.5c.6.3 1.1.6 1.4.8s.6.6.7.8.2.6.2 1c0 .5-.1.9-.3 1.3s-.5.7-1 .9-.9.3-1.5.3c-.9 0-1.6-.2-2-.7s-.7-1.2-.8-2.2l1.6-.1c0 .4.1.8.2 1s.2.4.4.5.4.2.7.2c.2 0 .4-.1.6-.2s.3-.2.4-.4.1-.3.1-.5 0-.4-.1-.5l-.5-.5c-.2-.2-.6-.4-1.1-.6-.7-.3-1.2-.7-1.5-1.1s-.5-.9-.5-1.4.1-.9.3-1.2.5-.6.9-.8.8-.3 1.3-.3c.8 0 1.5.2 1.9.7s.7 1.1.7 1.9l-1.6.1c-.1-.7-.4-1.2-1-1.2zM305 347.3v2h2.6v1.4H305v2.5h3v1.4h-4.7V346h4.5v1.4l-2.8-.1zM312.4 347.3v7.2h-1.6v-7.2h-2V346h5.6v1.3h-2z"/>
    <g class="st13">
        <path class="st10" d="M259.3 299.7h1.6v1.6h-1.6zM262.3 299.7h1.6v1.6h-1.6zM265.3 299.7h1.6v1.6h-1.6zM268.3 299.7h1.6v1.6h-1.6zM271.3 299.7h1.6v1.6h-1.6zM274.3 299.7h1.6v1.6h-1.6zM277.3 299.7h1.6v1.6h-1.6zM280.3 299.7h1.6v1.6h-1.6zM283.3 299.7h1.6v1.6h-1.6zM286.3 299.7h1.6v1.6h-1.6zM289.3 299.7h1.6v1.6h-1.6zM292.3 299.7h1.6v1.6h-1.6zM295.3 299.7h1.6v1.6h-1.6zM298.3 299.7h1.6v1.6h-1.6zM301.3 299.7h1.6v1.6h-1.6zM304.3 299.7h1.6v1.6h-1.6zM307.3 299.7h1.6v1.6h-1.6zM310.2 299.7h1.6v1.6h-1.6zM313.2 299.7h1.6v1.6h-1.6zM316.2 299.7h1.6v1.6h-1.6zM319.2 299.7h1.6v1.6h-1.6zM322.2 299.7h1.6v1.6h-1.6zM325.2 299.7h1.6v1.6h-1.6zM328.2 299.7h1.6v1.6h-1.6zM331.2 299.7h1.6v1.6h-1.6zM334.2 299.7h1.6v1.6h-1.6zM337.2 299.7h1.6v1.6h-1.6zM259.3 302.6h1.6v1.6h-1.6zM262.3 302.6h1.6v1.6h-1.6zM265.3 302.6h1.6v1.6h-1.6zM268.3 302.6h1.6v1.6h-1.6zM271.3 302.6h1.6v1.6h-1.6zM274.3 302.6h1.6v1.6h-1.6zM277.3 302.6h1.6v1.6h-1.6zM280.3 302.6h1.6v1.6h-1.6zM283.3 302.6h1.6v1.6h-1.6zM286.3 302.6h1.6v1.6h-1.6zM289.3 302.6h1.6v1.6h-1.6zM292.3 302.6h1.6v1.6h-1.6zM295.3 302.6h1.6v1.6h-1.6zM298.3 302.6h1.6v1.6h-1.6zM301.3 302.6h1.6v1.6h-1.6zM304.3 302.6h1.6v1.6h-1.6zM307.3 302.6h1.6v1.6h-1.6zM310.2 302.6h1.6v1.6h-1.6zM313.2 302.6h1.6v1.6h-1.6zM316.2 302.6h1.6v1.6h-1.6zM319.2 302.6h1.6v1.6h-1.6zM322.2 302.6h1.6v1.6h-1.6zM325.2 302.6h1.6v1.6h-1.6zM328.2 302.6h1.6v1.6h-1.6zM331.2 302.6h1.6v1.6h-1.6zM334.2 302.6h1.6v1.6h-1.6zM337.2 302.6h1.6v1.6h-1.6zM259.3 305.6h1.6v1.6h-1.6zM262.3 305.6h1.6v1.6h-1.6zM265.3 305.6h1.6v1.6h-1.6zM268.3 305.6h1.6v1.6h-1.6zM271.3 305.6h1.6v1.6h-1.6zM274.3 305.6h1.6v1.6h-1.6zM277.3 305.6h1.6v1.6h-1.6zM280.3 305.6h1.6v1.6h-1.6zM283.3 305.6h1.6v1.6h-1.6zM286.3 305.6h1.6v1.6h-1.6zM289.3 305.6h1.6v1.6h-1.6zM292.3 305.6h1.6v1.6h-1.6zM295.3 305.6h1.6v1.6h-1.6zM298.3 305.6h1.6v1.6h-1.6zM301.3 305.6h1.6v1.6h-1.6zM304.3 305.6h1.6v1.6h-1.6zM307.3 305.6h1.6v1.6h-1.6zM310.2 305.6h1.6v1.6h-1.6zM313.2 305.6h1.6v1.6h-1.6zM316.2 305.6h1.6v1.6h-1.6zM319.2 305.6h1.6v1.6h-1.6zM322.2 305.6h1.6v1.6h-1.6zM325.2 305.6h1.6v1.6h-1.6zM328.2 305.6h1.6v1.6h-1.6zM331.2 305.6h1.6v1.6h-1.6zM334.2 305.6h1.6v1.6h-1.6zM337.2 305.6h1.6v1.6h-1.6zM259.3 308.5h1.6v1.6h-1.6zM262.3 308.5h1.6v1.6h-1.6zM265.3 308.5h1.6v1.6h-1.6zM268.3 308.5h1.6v1.6h-1.6zM271.3 308.5h1.6v1.6h-1.6zM274.3 308.5h1.6v1.6h-1.6zM277.3 308.5h1.6v1.6h-1.6zM280.3 308.5h1.6v1.6h-1.6zM283.3 308.5h1.6v1.6h-1.6zM286.3 308.5h1.6v1.6h-1.6zM289.3 308.5h1.6v1.6h-1.6zM292.3 308.5h1.6v1.6h-1.6zM295.3 308.5h1.6v1.6h-1.6zM298.3 308.5h1.6v1.6h-1.6zM301.3 308.5h1.6v1.6h-1.6zM304.3 308.5h1.6v1.6h-1.6zM307.3 308.5h1.6v1.6h-1.6zM310.2 308.5h1.6v1.6h-1.6zM313.2 308.5h1.6v1.6h-1.6zM316.2 308.5h1.6v1.6h-1.6zM319.2 308.5h1.6v1.6h-1.6zM322.2 308.5h1.6v1.6h-1.6zM325.2 308.5h1.6v1.6h-1.6zM328.2 308.5h1.6v1.6h-1.6zM331.2 308.5h1.6v1.6h-1.6zM334.2 308.5h1.6v1.6h-1.6zM337.2 308.5h1.6v1.6h-1.6zM259.3 311.5h1.6v1.6h-1.6zM262.3 311.5h1.6v1.6h-1.6zM265.3 311.5h1.6v1.6h-1.6zM268.3 311.5h1.6v1.6h-1.6zM271.3 311.5h1.6v1.6h-1.6zM274.3 311.5h1.6v1.6h-1.6zM277.3 311.5h1.6v1.6h-1.6zM280.3 311.5h1.6v1.6h-1.6zM283.3 311.5h1.6v1.6h-1.6zM286.3 311.5h1.6v1.6h-1.6zM289.3 311.5h1.6v1.6h-1.6zM292.3 311.5h1.6v1.6h-1.6zM295.3 311.5h1.6v1.6h-1.6zM298.3 311.5h1.6v1.6h-1.6zM301.3 311.5h1.6v1.6h-1.6zM304.3 311.5h1.6v1.6h-1.6zM307.3 311.5h1.6v1.6h-1.6zM310.2 311.5h1.6v1.6h-1.6zM313.2 311.5h1.6v1.6h-1.6zM316.2 311.5h1.6v1.6h-1.6zM319.2 311.5h1.6v1.6h-1.6zM322.2 311.5h1.6v1.6h-1.6zM325.2 311.5h1.6v1.6h-1.6zM328.2 311.5h1.6v1.6h-1.6zM331.2 311.5h1.6v1.6h-1.6zM334.2 311.5h1.6v1.6h-1.6zM337.2 311.5h1.6v1.6h-1.6zM259.3 314.4h1.6v1.6h-1.6zM262.3 314.4h1.6v1.6h-1.6zM265.3 314.4h1.6v1.6h-1.6zM268.3 314.4h1.6v1.6h-1.6zM271.3 314.4h1.6v1.6h-1.6zM274.3 314.4h1.6v1.6h-1.6zM277.3 314.4h1.6v1.6h-1.6zM280.3 314.4h1.6v1.6h-1.6zM283.3 314.4h1.6v1.6h-1.6zM286.3 314.4h1.6v1.6h-1.6zM289.3 314.4h1.6v1.6h-1.6zM292.3 314.4h1.6v1.6h-1.6zM295.3 314.4h1.6v1.6h-1.6zM298.3 314.4h1.6v1.6h-1.6zM301.3 314.4h1.6v1.6h-1.6zM304.3 314.4h1.6v1.6h-1.6zM307.3 314.4h1.6v1.6h-1.6zM310.2 314.4h1.6v1.6h-1.6zM313.2 314.4h1.6v1.6h-1.6zM316.2 314.4h1.6v1.6h-1.6zM319.2 314.4h1.6v1.6h-1.6zM322.2 314.4h1.6v1.6h-1.6zM325.2 314.4h1.6v1.6h-1.6zM328.2 314.4h1.6v1.6h-1.6zM331.2 314.4h1.6v1.6h-1.6zM334.2 314.4h1.6v1.6h-1.6zM337.2 314.4h1.6v1.6h-1.6zM259.3 317.4h1.6v1.6h-1.6zM262.3 317.4h1.6v1.6h-1.6zM265.3 317.4h1.6v1.6h-1.6zM268.3 317.4h1.6v1.6h-1.6zM271.3 317.4h1.6v1.6h-1.6zM274.3 317.4h1.6v1.6h-1.6zM277.3 317.4h1.6v1.6h-1.6zM280.3 317.4h1.6v1.6h-1.6zM283.3 317.4h1.6v1.6h-1.6zM286.3 317.4h1.6v1.6h-1.6zM289.3 317.4h1.6v1.6h-1.6zM292.3 317.4h1.6v1.6h-1.6zM295.3 317.4h1.6v1.6h-1.6zM298.3 317.4h1.6v1.6h-1.6zM301.3 317.4h1.6v1.6h-1.6zM304.3 317.4h1.6v1.6h-1.6zM307.3 317.4h1.6v1.6h-1.6zM310.2 317.4h1.6v1.6h-1.6zM313.2 317.4h1.6v1.6h-1.6zM316.2 317.4h1.6v1.6h-1.6zM319.2 317.4h1.6v1.6h-1.6zM322.2 317.4h1.6v1.6h-1.6zM325.2 317.4h1.6v1.6h-1.6zM328.2 317.4h1.6v1.6h-1.6zM331.2 317.4h1.6v1.6h-1.6zM334.2 317.4h1.6v1.6h-1.6zM337.2 317.4h1.6v1.6h-1.6zM259.3 320.3h1.6v1.6h-1.6zM262.3 320.3h1.6v1.6h-1.6zM265.3 320.3h1.6v1.6h-1.6zM268.3 320.3h1.6v1.6h-1.6zM271.3 320.3h1.6v1.6h-1.6zM274.3 320.3h1.6v1.6h-1.6zM277.3 320.3h1.6v1.6h-1.6zM280.3 320.3h1.6v1.6h-1.6zM283.3 320.3h1.6v1.6h-1.6zM286.3 320.3h1.6v1.6h-1.6zM289.3 320.3h1.6v1.6h-1.6zM292.3 320.3h1.6v1.6h-1.6zM295.3 320.3h1.6v1.6h-1.6zM298.3 320.3h1.6v1.6h-1.6zM301.3 320.3h1.6v1.6h-1.6zM304.3 320.3h1.6v1.6h-1.6zM307.3 320.3h1.6v1.6h-1.6zM310.2 320.3h1.6v1.6h-1.6zM313.2 320.3h1.6v1.6h-1.6zM316.2 320.3h1.6v1.6h-1.6zM319.2 320.3h1.6v1.6h-1.6zM322.2 320.3h1.6v1.6h-1.6zM325.2 320.3h1.6v1.6h-1.6zM328.2 320.3h1.6v1.6h-1.6zM331.2 320.3h1.6v1.6h-1.6zM334.2 320.3h1.6v1.6h-1.6zM337.2 320.3h1.6v1.6h-1.6zM259.3 323.3h1.6v1.6h-1.6zM262.3 323.3h1.6v1.6h-1.6zM265.3 323.3h1.6v1.6h-1.6zM268.3 323.3h1.6v1.6h-1.6zM271.3 323.3h1.6v1.6h-1.6zM274.3 323.3h1.6v1.6h-1.6zM277.3 323.3h1.6v1.6h-1.6zM280.3 323.3h1.6v1.6h-1.6zM283.3 323.3h1.6v1.6h-1.6zM286.3 323.3h1.6v1.6h-1.6zM289.3 323.3h1.6v1.6h-1.6zM292.3 323.3h1.6v1.6h-1.6zM295.3 323.3h1.6v1.6h-1.6zM298.3 323.3h1.6v1.6h-1.6zM301.3 323.3h1.6v1.6h-1.6zM304.3 323.3h1.6v1.6h-1.6zM307.3 323.3h1.6v1.6h-1.6zM310.2 323.3h1.6v1.6h-1.6zM313.2 323.3h1.6v1.6h-1.6zM316.2 323.3h1.6v1.6h-1.6zM319.2 323.3h1.6v1.6h-1.6zM322.2 323.3h1.6v1.6h-1.6zM325.2 323.3h1.6v1.6h-1.6zM328.2 323.3h1.6v1.6h-1.6zM331.2 323.3h1.6v1.6h-1.6zM334.2 323.3h1.6v1.6h-1.6zM337.2 323.3h1.6v1.6h-1.6zM259.3 326.2h1.6v1.6h-1.6zM262.3 326.2h1.6v1.6h-1.6zM265.3 326.2h1.6v1.6h-1.6zM268.3 326.2h1.6v1.6h-1.6zM271.3 326.2h1.6v1.6h-1.6zM274.3 326.2h1.6v1.6h-1.6zM277.3 326.2h1.6v1.6h-1.6zM280.3 326.2h1.6v1.6h-1.6zM283.3 326.2h1.6v1.6h-1.6zM286.3 326.2h1.6v1.6h-1.6zM289.3 326.2h1.6v1.6h-1.6zM292.3 326.2h1.6v1.6h-1.6zM295.3 326.2h1.6v1.6h-1.6zM298.3 326.2h1.6v1.6h-1.6zM301.3 326.2h1.6v1.6h-1.6zM304.3 326.2h1.6v1.6h-1.6zM307.3 326.2h1.6v1.6h-1.6zM310.2 326.2h1.6v1.6h-1.6zM313.2 326.2h1.6v1.6h-1.6zM316.2 326.2h1.6v1.6h-1.6zM319.2 326.2h1.6v1.6h-1.6zM322.2 326.2h1.6v1.6h-1.6zM325.2 326.2h1.6v1.6h-1.6zM328.2 326.2h1.6v1.6h-1.6zM331.2 326.2h1.6v1.6h-1.6zM334.2 326.2h1.6v1.6h-1.6zM337.2 326.2h1.6v1.6h-1.6zM259.3 329.1h1.6v1.6h-1.6zM262.3 329.1h1.6v1.6h-1.6zM265.3 329.1h1.6v1.6h-1.6zM268.3 329.1h1.6v1.6h-1.6zM271.3 329.1h1.6v1.6h-1.6zM274.3 329.1h1.6v1.6h-1.6zM277.3 329.1h1.6v1.6h-1.6zM280.3 329.1h1.6v1.6h-1.6zM283.3 329.1h1.6v1.6h-1.6zM286.3 329.1h1.6v1.6h-1.6zM289.3 329.1h1.6v1.6h-1.6zM292.3 329.1h1.6v1.6h-1.6zM295.3 329.1h1.6v1.6h-1.6zM298.3 329.1h1.6v1.6h-1.6zM301.3 329.1h1.6v1.6h-1.6zM304.3 329.1h1.6v1.6h-1.6zM307.3 329.1h1.6v1.6h-1.6zM310.2 329.1h1.6v1.6h-1.6zM313.2 329.1h1.6v1.6h-1.6zM316.2 329.1h1.6v1.6h-1.6zM319.2 329.1h1.6v1.6h-1.6zM322.2 329.1h1.6v1.6h-1.6zM325.2 329.1h1.6v1.6h-1.6zM328.2 329.1h1.6v1.6h-1.6zM331.2 329.1h1.6v1.6h-1.6zM334.2 329.1h1.6v1.6h-1.6zM337.2 329.1h1.6v1.6h-1.6zM259.3 332.1h1.6v1.6h-1.6zM262.3 332.1h1.6v1.6h-1.6zM265.3 332.1h1.6v1.6h-1.6zM268.3 332.1h1.6v1.6h-1.6zM271.3 332.1h1.6v1.6h-1.6zM274.3 332.1h1.6v1.6h-1.6zM277.3 332.1h1.6v1.6h-1.6zM280.3 332.1h1.6v1.6h-1.6zM283.3 332.1h1.6v1.6h-1.6zM286.3 332.1h1.6v1.6h-1.6zM289.3 332.1h1.6v1.6h-1.6zM292.3 332.1h1.6v1.6h-1.6zM295.3 332.1h1.6v1.6h-1.6zM298.3 332.1h1.6v1.6h-1.6zM301.3 332.1h1.6v1.6h-1.6zM304.3 332.1h1.6v1.6h-1.6zM307.3 332.1h1.6v1.6h-1.6zM310.2 332.1h1.6v1.6h-1.6zM313.2 332.1h1.6v1.6h-1.6zM316.2 332.1h1.6v1.6h-1.6zM319.2 332.1h1.6v1.6h-1.6zM322.2 332.1h1.6v1.6h-1.6zM325.2 332.1h1.6v1.6h-1.6zM328.2 332.1h1.6v1.6h-1.6zM331.2 332.1h1.6v1.6h-1.6zM334.2 332.1h1.6v1.6h-1.6zM337.2 332.1h1.6v1.6h-1.6zM259.3 335h1.6v1.6h-1.6zM262.3 335h1.6v1.6h-1.6zM265.3 335h1.6v1.6h-1.6zM268.3 335h1.6v1.6h-1.6zM271.3 335h1.6v1.6h-1.6zM274.3 335h1.6v1.6h-1.6zM277.3 335h1.6v1.6h-1.6zM280.3 335h1.6v1.6h-1.6zM283.3 335h1.6v1.6h-1.6zM286.3 335h1.6v1.6h-1.6zM289.3 335h1.6v1.6h-1.6zM292.3 335h1.6v1.6h-1.6zM295.3 335h1.6v1.6h-1.6zM298.3 335h1.6v1.6h-1.6zM301.3 335h1.6v1.6h-1.6zM304.3 335h1.6v1.6h-1.6zM307.3 335h1.6v1.6h-1.6zM310.2 335h1.6v1.6h-1.6zM313.2 335h1.6v1.6h-1.6zM316.2 335h1.6v1.6h-1.6zM319.2 335h1.6v1.6h-1.6zM322.2 335h1.6v1.6h-1.6zM325.2 335h1.6v1.6h-1.6zM328.2 335h1.6v1.6h-1.6zM331.2 335h1.6v1.6h-1.6zM334.2 335h1.6v1.6h-1.6zM337.2 335h1.6v1.6h-1.6z"/>
    </g>
    <g class="st13">
        <path class="st10" d="M144.2 299.7h1.6v1.6h-1.6zM147.2 299.7h1.6v1.6h-1.6zM150.2 299.7h1.6v1.6h-1.6zM153.2 299.7h1.6v1.6h-1.6zM156.3 299.7h1.6v1.6h-1.6zM159.3 299.7h1.6v1.6h-1.6zM162.3 299.7h1.6v1.6h-1.6zM165.3 299.7h1.6v1.6h-1.6zM168.3 299.7h1.6v1.6h-1.6zM171.3 299.7h1.6v1.6h-1.6zM174.4 299.7h1.6v1.6h-1.6zM177.4 299.7h1.6v1.6h-1.6zM180.4 299.7h1.6v1.6h-1.6zM183.4 299.7h1.6v1.6h-1.6zM186.4 299.7h1.6v1.6h-1.6zM189.4 299.7h1.6v1.6h-1.6zM192.5 299.7h1.6v1.6h-1.6zM195.5 299.7h1.6v1.6h-1.6zM198.5 299.7h1.6v1.6h-1.6zM201.5 299.7h1.6v1.6h-1.6zM204.5 299.7h1.6v1.6h-1.6zM207.5 299.7h1.6v1.6h-1.6zM210.6 299.7h1.6v1.6h-1.6zM213.6 299.7h1.6v1.6h-1.6zM216.6 299.7h1.6v1.6h-1.6zM219.6 299.7h1.6v1.6h-1.6zM222.6 299.7h1.6v1.6h-1.6zM144.2 302.6h1.6v1.6h-1.6zM147.2 302.6h1.6v1.6h-1.6zM150.2 302.6h1.6v1.6h-1.6zM153.2 302.6h1.6v1.6h-1.6zM156.3 302.6h1.6v1.6h-1.6zM159.3 302.6h1.6v1.6h-1.6zM162.3 302.6h1.6v1.6h-1.6zM165.3 302.6h1.6v1.6h-1.6zM168.3 302.6h1.6v1.6h-1.6zM171.3 302.6h1.6v1.6h-1.6zM174.4 302.6h1.6v1.6h-1.6zM177.4 302.6h1.6v1.6h-1.6zM180.4 302.6h1.6v1.6h-1.6zM183.4 302.6h1.6v1.6h-1.6zM186.4 302.6h1.6v1.6h-1.6zM189.4 302.6h1.6v1.6h-1.6zM192.5 302.6h1.6v1.6h-1.6zM195.5 302.6h1.6v1.6h-1.6zM198.5 302.6h1.6v1.6h-1.6zM201.5 302.6h1.6v1.6h-1.6zM204.5 302.6h1.6v1.6h-1.6zM207.5 302.6h1.6v1.6h-1.6zM210.6 302.6h1.6v1.6h-1.6zM213.6 302.6h1.6v1.6h-1.6zM216.6 302.6h1.6v1.6h-1.6zM219.6 302.6h1.6v1.6h-1.6zM222.6 302.6h1.6v1.6h-1.6zM144.2 305.6h1.6v1.6h-1.6zM147.2 305.6h1.6v1.6h-1.6zM150.2 305.6h1.6v1.6h-1.6zM153.2 305.6h1.6v1.6h-1.6zM156.3 305.6h1.6v1.6h-1.6zM159.3 305.6h1.6v1.6h-1.6zM162.3 305.6h1.6v1.6h-1.6zM165.3 305.6h1.6v1.6h-1.6zM168.3 305.6h1.6v1.6h-1.6zM171.3 305.6h1.6v1.6h-1.6zM174.4 305.6h1.6v1.6h-1.6zM177.4 305.6h1.6v1.6h-1.6zM180.4 305.6h1.6v1.6h-1.6zM183.4 305.6h1.6v1.6h-1.6zM186.4 305.6h1.6v1.6h-1.6zM189.4 305.6h1.6v1.6h-1.6zM192.5 305.6h1.6v1.6h-1.6zM195.5 305.6h1.6v1.6h-1.6zM198.5 305.6h1.6v1.6h-1.6zM201.5 305.6h1.6v1.6h-1.6zM204.5 305.6h1.6v1.6h-1.6zM207.5 305.6h1.6v1.6h-1.6zM210.6 305.6h1.6v1.6h-1.6zM213.6 305.6h1.6v1.6h-1.6zM216.6 305.6h1.6v1.6h-1.6zM219.6 305.6h1.6v1.6h-1.6zM222.6 305.6h1.6v1.6h-1.6zM144.2 308.5h1.6v1.6h-1.6zM147.2 308.5h1.6v1.6h-1.6zM150.2 308.5h1.6v1.6h-1.6zM153.2 308.5h1.6v1.6h-1.6zM156.3 308.5h1.6v1.6h-1.6zM159.3 308.5h1.6v1.6h-1.6zM162.3 308.5h1.6v1.6h-1.6zM165.3 308.5h1.6v1.6h-1.6zM168.3 308.5h1.6v1.6h-1.6zM171.3 308.5h1.6v1.6h-1.6zM174.4 308.5h1.6v1.6h-1.6zM177.4 308.5h1.6v1.6h-1.6zM180.4 308.5h1.6v1.6h-1.6zM183.4 308.5h1.6v1.6h-1.6zM186.4 308.5h1.6v1.6h-1.6zM189.4 308.5h1.6v1.6h-1.6zM192.5 308.5h1.6v1.6h-1.6zM195.5 308.5h1.6v1.6h-1.6zM198.5 308.5h1.6v1.6h-1.6zM201.5 308.5h1.6v1.6h-1.6zM204.5 308.5h1.6v1.6h-1.6zM207.5 308.5h1.6v1.6h-1.6zM210.6 308.5h1.6v1.6h-1.6zM213.6 308.5h1.6v1.6h-1.6zM216.6 308.5h1.6v1.6h-1.6zM219.6 308.5h1.6v1.6h-1.6zM222.6 308.5h1.6v1.6h-1.6zM144.2 311.5h1.6v1.6h-1.6zM147.2 311.5h1.6v1.6h-1.6zM150.2 311.5h1.6v1.6h-1.6zM153.2 311.5h1.6v1.6h-1.6zM156.3 311.5h1.6v1.6h-1.6zM159.3 311.5h1.6v1.6h-1.6zM162.3 311.5h1.6v1.6h-1.6zM165.3 311.5h1.6v1.6h-1.6zM168.3 311.5h1.6v1.6h-1.6zM171.3 311.5h1.6v1.6h-1.6zM174.4 311.5h1.6v1.6h-1.6zM177.4 311.5h1.6v1.6h-1.6zM180.4 311.5h1.6v1.6h-1.6zM183.4 311.5h1.6v1.6h-1.6zM186.4 311.5h1.6v1.6h-1.6zM189.4 311.5h1.6v1.6h-1.6zM192.5 311.5h1.6v1.6h-1.6zM195.5 311.5h1.6v1.6h-1.6zM198.5 311.5h1.6v1.6h-1.6zM201.5 311.5h1.6v1.6h-1.6zM204.5 311.5h1.6v1.6h-1.6zM207.5 311.5h1.6v1.6h-1.6zM210.6 311.5h1.6v1.6h-1.6zM213.6 311.5h1.6v1.6h-1.6zM216.6 311.5h1.6v1.6h-1.6zM219.6 311.5h1.6v1.6h-1.6zM222.6 311.5h1.6v1.6h-1.6zM144.2 314.4h1.6v1.6h-1.6zM147.2 314.4h1.6v1.6h-1.6zM150.2 314.4h1.6v1.6h-1.6zM153.2 314.4h1.6v1.6h-1.6zM156.3 314.4h1.6v1.6h-1.6zM159.3 314.4h1.6v1.6h-1.6zM162.3 314.4h1.6v1.6h-1.6zM165.3 314.4h1.6v1.6h-1.6zM168.3 314.4h1.6v1.6h-1.6zM171.3 314.4h1.6v1.6h-1.6zM174.4 314.4h1.6v1.6h-1.6zM177.4 314.4h1.6v1.6h-1.6zM180.4 314.4h1.6v1.6h-1.6zM183.4 314.4h1.6v1.6h-1.6zM186.4 314.4h1.6v1.6h-1.6zM189.4 314.4h1.6v1.6h-1.6zM192.5 314.4h1.6v1.6h-1.6zM195.5 314.4h1.6v1.6h-1.6zM198.5 314.4h1.6v1.6h-1.6zM201.5 314.4h1.6v1.6h-1.6zM204.5 314.4h1.6v1.6h-1.6zM207.5 314.4h1.6v1.6h-1.6zM210.6 314.4h1.6v1.6h-1.6zM213.6 314.4h1.6v1.6h-1.6zM216.6 314.4h1.6v1.6h-1.6zM219.6 314.4h1.6v1.6h-1.6zM222.6 314.4h1.6v1.6h-1.6zM144.2 317.4h1.6v1.6h-1.6zM147.2 317.4h1.6v1.6h-1.6zM150.2 317.4h1.6v1.6h-1.6zM153.2 317.4h1.6v1.6h-1.6zM156.3 317.4h1.6v1.6h-1.6zM159.3 317.4h1.6v1.6h-1.6zM162.3 317.4h1.6v1.6h-1.6zM165.3 317.4h1.6v1.6h-1.6zM168.3 317.4h1.6v1.6h-1.6zM171.3 317.4h1.6v1.6h-1.6zM174.4 317.4h1.6v1.6h-1.6zM177.4 317.4h1.6v1.6h-1.6zM180.4 317.4h1.6v1.6h-1.6zM183.4 317.4h1.6v1.6h-1.6zM186.4 317.4h1.6v1.6h-1.6zM189.4 317.4h1.6v1.6h-1.6zM192.5 317.4h1.6v1.6h-1.6zM195.5 317.4h1.6v1.6h-1.6zM198.5 317.4h1.6v1.6h-1.6zM201.5 317.4h1.6v1.6h-1.6zM204.5 317.4h1.6v1.6h-1.6zM207.5 317.4h1.6v1.6h-1.6zM210.6 317.4h1.6v1.6h-1.6zM213.6 317.4h1.6v1.6h-1.6zM216.6 317.4h1.6v1.6h-1.6zM219.6 317.4h1.6v1.6h-1.6zM222.6 317.4h1.6v1.6h-1.6zM144.2 320.3h1.6v1.6h-1.6zM147.2 320.3h1.6v1.6h-1.6zM150.2 320.3h1.6v1.6h-1.6zM153.2 320.3h1.6v1.6h-1.6zM156.3 320.3h1.6v1.6h-1.6zM159.3 320.3h1.6v1.6h-1.6zM162.3 320.3h1.6v1.6h-1.6zM165.3 320.3h1.6v1.6h-1.6zM168.3 320.3h1.6v1.6h-1.6zM171.3 320.3h1.6v1.6h-1.6zM174.4 320.3h1.6v1.6h-1.6zM177.4 320.3h1.6v1.6h-1.6zM180.4 320.3h1.6v1.6h-1.6zM183.4 320.3h1.6v1.6h-1.6zM186.4 320.3h1.6v1.6h-1.6zM189.4 320.3h1.6v1.6h-1.6zM192.5 320.3h1.6v1.6h-1.6zM195.5 320.3h1.6v1.6h-1.6zM198.5 320.3h1.6v1.6h-1.6zM201.5 320.3h1.6v1.6h-1.6zM204.5 320.3h1.6v1.6h-1.6zM207.5 320.3h1.6v1.6h-1.6zM210.6 320.3h1.6v1.6h-1.6zM213.6 320.3h1.6v1.6h-1.6zM216.6 320.3h1.6v1.6h-1.6zM219.6 320.3h1.6v1.6h-1.6zM222.6 320.3h1.6v1.6h-1.6zM144.2 323.3h1.6v1.6h-1.6zM147.2 323.3h1.6v1.6h-1.6zM150.2 323.3h1.6v1.6h-1.6zM153.2 323.3h1.6v1.6h-1.6zM156.3 323.3h1.6v1.6h-1.6zM159.3 323.3h1.6v1.6h-1.6zM162.3 323.3h1.6v1.6h-1.6zM165.3 323.3h1.6v1.6h-1.6zM168.3 323.3h1.6v1.6h-1.6zM171.3 323.3h1.6v1.6h-1.6zM174.4 323.3h1.6v1.6h-1.6zM177.4 323.3h1.6v1.6h-1.6zM180.4 323.3h1.6v1.6h-1.6zM183.4 323.3h1.6v1.6h-1.6zM186.4 323.3h1.6v1.6h-1.6zM189.4 323.3h1.6v1.6h-1.6zM192.5 323.3h1.6v1.6h-1.6zM195.5 323.3h1.6v1.6h-1.6zM198.5 323.3h1.6v1.6h-1.6zM201.5 323.3h1.6v1.6h-1.6zM204.5 323.3h1.6v1.6h-1.6zM207.5 323.3h1.6v1.6h-1.6zM210.6 323.3h1.6v1.6h-1.6zM213.6 323.3h1.6v1.6h-1.6zM216.6 323.3h1.6v1.6h-1.6zM219.6 323.3h1.6v1.6h-1.6zM222.6 323.3h1.6v1.6h-1.6zM144.2 326.2h1.6v1.6h-1.6zM147.2 326.2h1.6v1.6h-1.6zM150.2 326.2h1.6v1.6h-1.6zM153.2 326.2h1.6v1.6h-1.6zM156.3 326.2h1.6v1.6h-1.6zM159.3 326.2h1.6v1.6h-1.6zM162.3 326.2h1.6v1.6h-1.6zM165.3 326.2h1.6v1.6h-1.6zM168.3 326.2h1.6v1.6h-1.6zM171.3 326.2h1.6v1.6h-1.6zM174.4 326.2h1.6v1.6h-1.6zM177.4 326.2h1.6v1.6h-1.6zM180.4 326.2h1.6v1.6h-1.6zM183.4 326.2h1.6v1.6h-1.6zM186.4 326.2h1.6v1.6h-1.6zM189.4 326.2h1.6v1.6h-1.6zM192.5 326.2h1.6v1.6h-1.6zM195.5 326.2h1.6v1.6h-1.6zM198.5 326.2h1.6v1.6h-1.6zM201.5 326.2h1.6v1.6h-1.6zM204.5 326.2h1.6v1.6h-1.6zM207.5 326.2h1.6v1.6h-1.6zM210.6 326.2h1.6v1.6h-1.6zM213.6 326.2h1.6v1.6h-1.6zM216.6 326.2h1.6v1.6h-1.6zM219.6 326.2h1.6v1.6h-1.6zM222.6 326.2h1.6v1.6h-1.6zM144.2 329.1h1.6v1.6h-1.6zM147.2 329.1h1.6v1.6h-1.6zM150.2 329.1h1.6v1.6h-1.6zM153.2 329.1h1.6v1.6h-1.6zM156.3 329.1h1.6v1.6h-1.6zM159.3 329.1h1.6v1.6h-1.6zM162.3 329.1h1.6v1.6h-1.6zM165.3 329.1h1.6v1.6h-1.6zM168.3 329.1h1.6v1.6h-1.6zM171.3 329.1h1.6v1.6h-1.6zM174.4 329.1h1.6v1.6h-1.6zM177.4 329.1h1.6v1.6h-1.6zM180.4 329.1h1.6v1.6h-1.6zM183.4 329.1h1.6v1.6h-1.6zM186.4 329.1h1.6v1.6h-1.6zM189.4 329.1h1.6v1.6h-1.6zM192.5 329.1h1.6v1.6h-1.6zM195.5 329.1h1.6v1.6h-1.6zM198.5 329.1h1.6v1.6h-1.6zM201.5 329.1h1.6v1.6h-1.6zM204.5 329.1h1.6v1.6h-1.6zM207.5 329.1h1.6v1.6h-1.6zM210.6 329.1h1.6v1.6h-1.6zM213.6 329.1h1.6v1.6h-1.6zM216.6 329.1h1.6v1.6h-1.6zM219.6 329.1h1.6v1.6h-1.6zM222.6 329.1h1.6v1.6h-1.6zM144.2 332.1h1.6v1.6h-1.6zM147.2 332.1h1.6v1.6h-1.6zM150.2 332.1h1.6v1.6h-1.6zM153.2 332.1h1.6v1.6h-1.6zM156.3 332.1h1.6v1.6h-1.6zM159.3 332.1h1.6v1.6h-1.6zM162.3 332.1h1.6v1.6h-1.6zM165.3 332.1h1.6v1.6h-1.6zM168.3 332.1h1.6v1.6h-1.6zM171.3 332.1h1.6v1.6h-1.6zM174.4 332.1h1.6v1.6h-1.6zM177.4 332.1h1.6v1.6h-1.6zM180.4 332.1h1.6v1.6h-1.6zM183.4 332.1h1.6v1.6h-1.6zM186.4 332.1h1.6v1.6h-1.6zM189.4 332.1h1.6v1.6h-1.6zM192.5 332.1h1.6v1.6h-1.6zM195.5 332.1h1.6v1.6h-1.6zM198.5 332.1h1.6v1.6h-1.6zM201.5 332.1h1.6v1.6h-1.6zM204.5 332.1h1.6v1.6h-1.6zM207.5 332.1h1.6v1.6h-1.6zM210.6 332.1h1.6v1.6h-1.6zM213.6 332.1h1.6v1.6h-1.6zM216.6 332.1h1.6v1.6h-1.6zM219.6 332.1h1.6v1.6h-1.6zM222.6 332.1h1.6v1.6h-1.6zM144.2 335h1.6v1.6h-1.6zM147.2 335h1.6v1.6h-1.6zM150.2 335h1.6v1.6h-1.6zM153.2 335h1.6v1.6h-1.6zM156.3 335h1.6v1.6h-1.6zM159.3 335h1.6v1.6h-1.6zM162.3 335h1.6v1.6h-1.6zM165.3 335h1.6v1.6h-1.6zM168.3 335h1.6v1.6h-1.6zM171.3 335h1.6v1.6h-1.6zM174.4 335h1.6v1.6h-1.6zM177.4 335h1.6v1.6h-1.6zM180.4 335h1.6v1.6h-1.6zM183.4 335h1.6v1.6h-1.6zM186.4 335h1.6v1.6h-1.6zM189.4 335h1.6v1.6h-1.6zM192.5 335h1.6v1.6h-1.6zM195.5 335h1.6v1.6h-1.6zM198.5 335h1.6v1.6h-1.6zM201.5 335h1.6v1.6h-1.6zM204.5 335h1.6v1.6h-1.6zM207.5 335h1.6v1.6h-1.6zM210.6 335h1.6v1.6h-1.6zM213.6 335h1.6v1.6h-1.6zM216.6 335h1.6v1.6h-1.6zM219.6 335h1.6v1.6h-1.6zM222.6 335h1.6v1.6h-1.6z"/>
    </g>
    <path d="M174.9 298.6H192v39.2h-17.1z"/>
    <linearGradient id="_x23_000000ff_00000011018580219140113370000000843553874969761166_" gradientUnits="userSpaceOnUse" x1="434.554" y1="400.841" x2="696.946" y2="400.841" gradientTransform="matrix(1 0 0 -1 0 718)">
        <stop offset="0" style="stop-color:#b6872c"/>
        <stop offset=".25" style="stop-color:#fcd750"/>
        <stop offset=".5" style="stop-color:#dfb039"/>
        <stop offset=".75" style="stop-color:#f9e17b"/>
        <stop offset="1" style="stop-color:#b78731"/>
    </linearGradient>
    <path id="_x23_000000ff" style="fill:url(#_x23_000000ff_00000011018580219140113370000000843553874969761166_)" d="M559.5 290.7c.4-.1.8-.1 1.1-.1.6.1 1.1 0 1.7.1 1.1.2 2 .9 2.7 1.7.5.6.8 1.3 1 2 1.5 4.1 2.6 8.3 3.9 12.5 3 10 6 20.1 9.1 30.2.2.6.6 1.2 1.2 1.6.2.2.6 0 .8-.2.5-.5.9-1.2 1.1-1.9 2.7-9 5.5-18.1 8.2-27.2 1.3-4.1 2.5-8.3 3.7-12.4l1.2-3.3c.6-1.6 2.2-2.7 3.8-3 .7-.1 1.4-.1 2.1-.1.5 0 .9.5.9.9v2.7c0 .5-.4.9-.8.9-.5.1-1 .1-1.4.5-.8.5-1.1 1.5-1.3 2.3-1.4 5-3 9.9-4.5 14.8-2.7 8.9-5.3 17.9-8 26.8-.4 1.4-1.3 2.6-2.5 3.4-.9.6-1.9.9-3 .8-1.6.1-3.2-.6-4.3-1.8-.6-.6-1-1.4-1.2-2.2-2.8-9-5.4-18-8.1-27-1.3-4.4-2.7-8.9-4-13.3-.3-.8-.5-1.7-.8-2.5-.3-.6-.8-1.2-1.4-1.4-.4-.1-.8-.1-1.2-.2s-.6-.5-.6-.9v-2.7c0-.4.3-.8.6-1zm91.3 10.5c3.6-.5 7.4.4 10.5 2.3 2.9 1.8 5.1 4.6 6.3 7.7 1.1 2.9 1.5 6.1.8 9.2-.7 3.3-2.6 6.4-5.2 8.5-2.9 2.4-6.6 3.7-10.3 3.7-3.6 0-7.2-1.2-10-3.4-2.7-2.2-4.6-5.4-5.3-8.8-.5-2.5-.6-5.2.1-7.7.9-3.3 2.9-6.3 5.7-8.3 2.1-1.7 4.7-2.8 7.4-3.2m.8 4.4c-3.6.4-6.8 2.7-8.5 5.8-1.9 3.5-1.8 7.9.2 11.4 1.7 2.9 4.7 4.9 8 5.4 2.6.4 5.3-.1 7.5-1.5 2.7-1.6 4.7-4.5 5.3-7.6.6-3.3-.2-6.8-2.3-9.4-2.5-3-6.5-4.6-10.2-4.1zm23.1-4.4c1-.2 2-.1 2.9.4 1.3.6 2.3 1.9 2.8 3.3l6 16.5c.8 1.9 1.3 3.9 2.2 5.8.1.2.2.5.4.6s.4.1.6.1v-19.5c0-1.8.1-3.7 1.2-5.1 1.1-1.2 2.8-1.6 4.3-1.5.5.1 1.1-.1 1.5.2.3.3.3.7.3 1.1v2.4c0 .5-.5.9-1 .9-.5.1-1.1-.1-1.5.2-.3.2-.4.6-.4.9v11.3c0 3-.1 6.1 0 9.1 0 1.5-.7 3-1.9 3.9-1.2 1-3 1.3-4.5.8-1.4-.4-2.6-1.5-3.1-2.8-2-5.4-4-10.9-6-16.3-.9-2.4-1.9-4.8-2.8-7.2h-.7v7.9c.1 2.5 0 5 0 7.5 0 2 .1 4.1-.1 6.2-.1 1.5-.8 3-2.2 3.7-1.1.6-2.4.8-3.6.8-.3 0-.6.1-.8-.1-.3-.2-.5-.5-.5-.8v-2.9c0-.5.4-.9.8-.9.4-.1.7 0 1.1 0 .4-.1.7-.4.7-.8.1-1.7 0-3.4 0-5.1 0-4.4-.1-8.9 0-13.4 0-1.1-.1-2.2.1-3.2.2-.9.5-1.8 1.1-2.5 1.1-.8 2.1-1.3 3.1-1.5zm-226.2.3c2.1-.1 4.3 0 6.4 0 .5 0 .9-.1 1.3.1.4.1.6.5.6.9v2.5c0 .5-.4.9-.9.9-2.3 0-4.6 0-6.8.1-2.3.2-4.6 1.1-6.3 2.6-1.9 1.6-3.3 3.9-3.7 6.4-.4 2.5 0 5 1.2 7.2 1.1 2 2.8 3.6 4.8 4.6 1.3.6 2.7 1 4.1 1.1 1.8.1 3.6.1 5.4.1.8 0 1.5.1 2.3 0 .5-.1 1.1-.4 1.2-.8.4-.8.2-1.7.2-2.5-.1-4.2-.1-8.3-.1-12.5.1-1.1-.1-2.2.1-3.3.2-1.6.7-3.3 1.8-4.6 1-1.2 2.5-1.9 4-2.2 1.4-.4 2.9-.4 4.3-.3 1.2 0 2.4 0 3.6.1 1.7.1 3.4.6 4.8 1.7 1.3 1.1 2.1 2.6 2.4 4.3.4 1.9.2 4-.9 5.6-1 1.7-2.7 2.9-4.6 3.3-1.6.4-3.3.2-4.9.3v.7c1.6 0 3.3-.1 4.8.4 1.6.4 3.1 1.2 4.1 2.5 1.1 1.4 1.6 3.2 1.8 4.9.1.6-.1 1.2.2 1.9.1.5.5.8.9.9s.7-.1 1.1.1c.3.1.5.5.5.8v2.6c.1.5-.4.9-.9.9-1.1.1-2.3.1-3.3-.4-1.2-.5-2.2-1.5-2.6-2.7-.6-1.6-.2-3.3-.6-4.8-.2-.6-.5-1.3-1.1-1.7-.6-.4-1.3-.6-1.9-.6-1.4-.1-2.9 0-4.3-.2-1.5-.3-2.9-1.3-3.6-2.7-.6-1.3-.6-2.8-.1-4.1.5-1.2 1.5-2.1 2.7-2.5 1.9-.6 3.9-.1 5.7-.5.8-.2 1.5-.5 1.9-1.2.5-.8.5-1.7.4-2.6-.1-.6-.4-1.2-.9-1.5-.5-.4-1.3-.6-1.9-.6-1.5-.1-3-.1-4.6-.1-1.1.1-2.4.1-3.3.8-.9.7-1.1 1.9-1.1 3-.1 3.9-.1 7.9-.1 11.8v3c0 1.6.1 3.3-.5 4.9-.4.9-1.1 1.7-1.9 2-1.2.5-2.5.5-3.7.5-3.7 0-7.4.1-11-.6-3-.6-5.9-2.3-7.8-4.7-2.9-3.5-4.1-8.3-3.4-12.8.5-3.5 2.4-6.7 5-8.9 2.9-2.5 6-3.9 9.2-4.1zm65.1.7c1.3-.9 3-1 4.6-.6 1.2.3 2.3 1.1 3 2.1s1.1 2.1 1.5 3.2c.8 2 1.5 4.1 2.2 6.1.4 1.3.6 2.9.1 4.1-.5 1.1-1.5 1.9-2.6 2.3-1.6.6-3.3.5-4.9.5v.9h4.6c1.1 0 2.1-.1 3.2.1 1 .2 2 .6 2.7 1.4.9.9 1.4 2.1 1.7 3.3.2.8.5 1.8 1.3 2.2.5.3 1.1.2 1.6.2s.9.4.9.9v2.3c0 .3.1.6-.1.8-.2.3-.5.5-.9.5h-2.3c-1.4-.1-2.6-1.1-3.4-2.2-.9-1.3-1.1-3-1.9-4.4-.3-.5-.9-.6-1.5-.6h-6c-.6 0-1.2.1-1.8-.1-1.4-.3-2.7-1.3-3.3-2.6-.7-1.3-.7-3-.1-4.4.7-1.5 2.2-2.5 3.7-2.7 1.2-.1 2.3.1 3.5-.1.4-.1.9-.2 1.1-.6.2-.5 0-1-.1-1.5-.7-1.8-1.3-3.5-2-5.2-.2-.4-.3-.7-.5-1.1-.6-.8-1.8-.7-2.4.1-.1.1-.1.2-.2.4-2.5 6.7-4.7 13.5-7.2 20.2-.4 1.1-.7 2.2-1.5 3-.8.9-2 1.5-3.2 1.6-1.1.1-2.2.1-3.3.1-2.5.1-4.8 0-7.3 0-1.2-.1-2.3 0-3.4-.2-1.5-.3-2.9-1-3.9-2.2-1.4-1.5-2-3.7-2-5.7 0-1.2.2-2.4.5-3.6.2-.8.6-1.4 1.2-1.9.6-.6 1.5-.9 2.3-1.1s1.7-.1 2.5-.1h6.7v-.7h-7.6c-1.6-.2-3.3-.5-4.4-1.8-1.1-1.2-1.2-2.9-1.2-4.4-.1-2.2.4-4.6 1.8-6.4 1.3-1.7 3.5-2.5 5.5-2.6h9.7c.3 0 .5 0 .8.1.4.1.6.5.6.9v2.5c0 .5-.5 1-1 .9-2.6 0-5.1-.1-7.6 0-1.2 0-2.5-.1-3.5.5-.8.4-1.4 1-1.7 1.8-.4.9-.3 1.8-.1 2.7.1.3.3.5.5.7.5.4 1 .5 1.6.5 2.3.1 4.7.1 7 .1 1.3.1 2.6.4 3.5 1.3s1.3 2.2 1.3 3.4c.1 1.1-.2 2.3-1 3.2-.9 1.2-2.5 1.6-3.9 1.7-2.6.1-5.3.1-7.9.1-.5 0-1 .4-1.1.9-.2.9-.1 1.8.1 2.6.2.7.6 1.4 1.2 1.8.3.2.7.3 1.1.3 4 .2 7.9.2 11.9.1.2 0 .5-.1.6-.2.6-.6.9-1.3 1.2-2.1 2.5-6.6 4.8-13.2 7.2-19.8.2-1.3 1-2.7 2.3-3.5zm43-.7c.3-.1.6-.1.9-.1h2.1c.5 0 .9.4.9.9v29.1c0 .5-.4.9-.9.9h-2.2c-.3 0-.5 0-.8-.1-.4-.1-.6-.5-.6-.9v-29.1c-.1-.2.2-.6.6-.7zm45.2 0c.4-.1.8-.1 1.1-.1h2c.5.1.9.5.8 1.1v28.9c0 .5-.4.9-.9.9h-2.2c-.3 0-.6.1-.9-.1s-.5-.5-.5-.8v-29.1c0-.3.2-.7.6-.8zm14.4 0c3.4-.1 6.9 0 10.3-.1.5 0 1.1-.1 1.4.2.3.3.3.7.3 1.1v2.2c0 .5-.5.9-1 .8h-9.7c-.8 0-1.6 0-2.3.3-1.2.4-2.2 1.2-2.6 2.3-.6 1.5-.5 3.3.5 4.6.9 1 2.2 1.5 3.5 1.6 1.2.1 2.5.1 3.7.1 1.9.1 3.7.7 5.1 1.9 1.3 1.1 2.3 2.6 2.8 4.2s.6 3.4.1 5.1c-.8 2.7-3 5-5.8 5.8-1.1.4-2.3.4-3.5.4h-10.1c-.5.1-1-.4-.9-.9v-2.6c0-.5.5-.9.9-.9h9c1.1 0 2.2.1 3.2-.2 1.1-.3 2.1-1.1 2.6-2.1.7-1.5.5-3.4-.6-4.7-.8-.9-2-1.3-3.2-1.5-1.3-.2-2.6 0-3.9-.1-1.5-.1-3-.5-4.3-1.2-1.8-1.1-3.1-2.7-3.7-4.6-1.3-3.5-.1-7.7 2.9-9.9 1.7-1.1 3.5-1.7 5.3-1.8zm15.2 0c.4-.1.7-.1 1.1-.1h2c.5 0 .9.5.9.9v29c.1.5-.5.9-.9.9h-2.6c-.5 0-1-.4-.9-.9v-29.1c-.3-.2 0-.6.4-.7zm-105.1.9c0-.5.5-.9.9-.9 1.8-.1 3.5.1 5.2 0 1.6.1 3.3-.1 4.7.6.9.4 1.7 1.2 2 2.2.4.9.5 1.8.5 2.7.1 3.3 0 6.5 0 9.8v10.3h.9c0-3.1-.1-6.2 0-9.3v-10.3c0-1.5.1-3.1 1.1-4.3.9-1.1 2.3-1.5 3.7-1.6 1.6-.1 3.3-.1 4.9-.1.9-.1 1.8-.1 2.7 0 .5 0 .9.4.9.9v2.6c0 .5-.4.9-.9.9h-5.8c-.6 0-1.3.1-1.8.7s-.4 1.5-.4 2.3v11.4c0 2.5.1 5 0 7.5-.1 1.5-.9 3-2.2 3.9s-2.9 1.1-4.4.6c-1.6-.5-2.9-2-3.2-3.7-.1-.6-.1-1.3-.1-2v-16.9c0-.9.2-2-.3-2.9-.4-.6-1.1-.8-1.7-.8h-6c-.5 0-.9-.4-.9-.9.2-.9.2-1.8.2-2.7z"/>
    <circle cx="144" cy="540.8" r="52.8"/>
    <circle class="st4" cx="144" cy="540.8" r="49.3"/>
    <g class="st13">
        <path class="st10" d="M102.3 542.2h1.6v1.6h-1.6zM102.3 539.3h1.6v1.6h-1.6zM102.4 536.4h1.6v1.6h-1.6zM102.3 533.4h1.6v1.6h-1.6zM102.3 530.5h1.6v1.6h-1.6zM102.3 527.6h1.6v1.6h-1.6zM102.3 524.7h1.6v1.6h-1.6zM105.2 542.1h1.6v1.6h-1.6zM105.2 539.2h1.6v1.6h-1.6zM105.2 536.3h1.6v1.6h-1.6zM105.1 533.4h1.6v1.6h-1.6zM105.1 530.5h1.6v1.6h-1.6zM105.2 527.6h1.6v1.6h-1.6zM105.2 524.7h1.6v1.6h-1.6zM105.2 521.7h1.6v1.6h-1.6zM108.1 542.2h1.6v1.6h-1.6zM108.1 539.3h1.6v1.6h-1.6zM108.1 536.4h1.6v1.6h-1.6zM108 533.5h1.6v1.6H108zM108 530.5h1.6v1.6H108zM108 527.6h1.6v1.6H108zM108 524.7h1.6v1.6H108zM108.1 521.8h1.6v1.6h-1.6zM108.1 518.9h1.6v1.6h-1.6zM108.1 516h1.6v1.6h-1.6zM110.9 542.2h1.6v1.6h-1.6zM110.9 539.3h1.6v1.6h-1.6zM110.9 536.3h1.6v1.6h-1.6zM110.9 533.4h1.6v1.6h-1.6zM110.9 530.5h1.6v1.6h-1.6zM110.9 527.6h1.6v1.6h-1.6zM110.9 524.7h1.6v1.6h-1.6zM110.9 521.8h1.6v1.6h-1.6zM110.9 518.9h1.6v1.6h-1.6zM110.9 515.9h1.6v1.6h-1.6zM110.9 513h1.6v1.6h-1.6zM113.8 542.1h1.6v1.6h-1.6zM113.8 539.2h1.6v1.6h-1.6zM113.8 536.3h1.6v1.6h-1.6zM113.7 533.4h1.6v1.6h-1.6zM113.7 530.5h1.6v1.6h-1.6zM113.8 527.6h1.6v1.6h-1.6zM113.8 524.6h1.6v1.6h-1.6zM113.8 521.7h1.6v1.6h-1.6zM113.8 518.8h1.6v1.6h-1.6zM113.8 515.9h1.6v1.6h-1.6zM113.7 513h1.6v1.6h-1.6zM113.7 510.1h1.6v1.6h-1.6zM116.6 542.2h1.6v1.6h-1.6zM116.7 539.3h1.6v1.6h-1.6zM116.7 536.4h1.6v1.6h-1.6zM116.6 533.5h1.6v1.6h-1.6zM116.6 530.5h1.6v1.6h-1.6zM116.6 527.6h1.6v1.6h-1.6zM116.6 524.7h1.6v1.6h-1.6zM116.6 521.8h1.6v1.6h-1.6zM116.7 518.9h1.6v1.6h-1.6zM116.7 516h1.6v1.6h-1.6zM116.6 513h1.6v1.6h-1.6zM116.6 510.1h1.6v1.6h-1.6zM116.6 507.2h1.6v1.6h-1.6zM119.5 542.2h1.6v1.6h-1.6zM119.5 539.2h1.6v1.6h-1.6zM119.5 536.3h1.6v1.6h-1.6zM119.4 533.4h1.6v1.6h-1.6zM119.5 530.5h1.6v1.6h-1.6zM119.5 527.6h1.6v1.6h-1.6zM119.5 524.7h1.6v1.6h-1.6zM119.5 521.8h1.6v1.6h-1.6zM119.5 518.8h1.6v1.6h-1.6zM119.5 515.9h1.6v1.6h-1.6zM119.4 513h1.6v1.6h-1.6zM119.5 510.1h1.6v1.6h-1.6zM119.5 507.2h1.6v1.6h-1.6zM119.5 504.3h1.6v1.6h-1.6zM122.4 542.1h1.6v1.6h-1.6zM122.4 539.2h1.6v1.6h-1.6zM122.4 536.3h1.6v1.6h-1.6zM122.3 533.4h1.6v1.6h-1.6zM122.3 530.5h1.6v1.6h-1.6zM122.3 527.5h1.6v1.6h-1.6zM122.4 524.6h1.6v1.6h-1.6zM122.4 521.7h1.6v1.6h-1.6zM122.4 518.8h1.6v1.6h-1.6zM122.4 515.9h1.6v1.6h-1.6zM122.3 513h1.6v1.6h-1.6zM122.3 510.1h1.6v1.6h-1.6zM122.3 507.1h1.6v1.6h-1.6zM122.4 504.2h1.6v1.6h-1.6zM125.3 542.2h1.6v1.6h-1.6zM125.3 539.3h1.6v1.6h-1.6zM125.3 536.4h1.6v1.6h-1.6zM125.2 533.5h1.6v1.6h-1.6zM125.2 530.6h1.6v1.6h-1.6zM125.2 527.6h1.6v1.6h-1.6zM125.2 524.7h1.6v1.6h-1.6zM125.3 521.8h1.6v1.6h-1.6zM125.3 518.9h1.6v1.6h-1.6zM125.3 516h1.6v1.6h-1.6zM125.2 513.1h1.6v1.6h-1.6zM125.2 510.2h1.6v1.6h-1.6zM125.2 507.2h1.6v1.6h-1.6zM125.2 504.3h1.6v1.6h-1.6zM125.3 501.4h1.6v1.6h-1.6zM128.1 542.2h1.6v1.6h-1.6zM128.1 539.3h1.6v1.6h-1.6zM128.2 536.3h1.6v1.6h-1.6zM128.1 533.4h1.6v1.6h-1.6zM128.1 530.5h1.6v1.6h-1.6zM128.1 527.6h1.6v1.6h-1.6zM128.1 524.7h1.6v1.6h-1.6zM128.1 521.8h1.6v1.6h-1.6zM128.1 518.9h1.6v1.6h-1.6zM128.2 515.9h1.6v1.6h-1.6zM128.1 513h1.6v1.6h-1.6zM128.1 510.1h1.6v1.6h-1.6zM128.1 507.2h1.6v1.6h-1.6zM128.1 504.3h1.6v1.6h-1.6zM128.1 501.4h1.6v1.6h-1.6zM131 542.1h1.6v1.6H131zM131 539.2h1.6v1.6H131zM131 536.3h1.6v1.6H131zM130.9 533.4h1.6v1.6h-1.6zM130.9 530.5h1.6v1.6h-1.6zM131 527.6h1.6v1.6H131zM131 524.7h1.6v1.6H131zM131 521.7h1.6v1.6H131zM131 518.8h1.6v1.6H131zM131 515.9h1.6v1.6H131zM130.9 513h1.6v1.6h-1.6zM130.9 510.1h1.6v1.6h-1.6zM131 507.2h1.6v1.6H131zM131 504.3h1.6v1.6H131zM131 501.3h1.6v1.6H131zM133.8 542.2h1.6v1.6h-1.6zM133.9 539.3h1.6v1.6h-1.6zM133.9 536.4h1.6v1.6h-1.6zM133.8 533.5h1.6v1.6h-1.6zM133.8 530.5h1.6v1.6h-1.6zM133.8 527.6h1.6v1.6h-1.6zM133.8 524.7h1.6v1.6h-1.6zM133.8 521.8h1.6v1.6h-1.6zM133.9 518.9h1.6v1.6h-1.6zM133.9 516h1.6v1.6h-1.6zM133.8 513.1h1.6v1.6h-1.6zM133.8 510.1h1.6v1.6h-1.6zM133.8 507.2h1.6v1.6h-1.6zM133.8 504.3h1.6v1.6h-1.6zM133.9 501.4h1.6v1.6h-1.6zM133.9 498.5h1.6v1.6h-1.6zM136.7 542.2h1.6v1.6h-1.6zM136.7 539.2h1.6v1.6h-1.6zM136.7 536.3h1.6v1.6h-1.6zM136.7 533.4h1.6v1.6h-1.6zM136.7 530.5h1.6v1.6h-1.6zM136.7 527.6h1.6v1.6h-1.6zM136.7 524.7h1.6v1.6h-1.6zM136.7 521.8h1.6v1.6h-1.6zM136.7 518.8h1.6v1.6h-1.6zM136.7 515.9h1.6v1.6h-1.6zM136.7 513h1.6v1.6h-1.6zM136.7 510.1h1.6v1.6h-1.6zM136.7 507.2h1.6v1.6h-1.6zM136.7 504.3h1.6v1.6h-1.6zM136.7 501.4h1.6v1.6h-1.6zM136.7 498.4h1.6v1.6h-1.6zM139.6 542.1h1.6v1.6h-1.6zM139.6 539.2h1.6v1.6h-1.6zM139.6 536.3h1.6v1.6h-1.6zM139.5 533.4h1.6v1.6h-1.6zM139.5 530.5h1.6v1.6h-1.6zM139.5 527.6h1.6v1.6h-1.6zM139.6 524.6h1.6v1.6h-1.6zM139.6 521.7h1.6v1.6h-1.6zM139.6 518.8h1.6v1.6h-1.6zM139.6 515.9h1.6v1.6h-1.6zM139.5 513h1.6v1.6h-1.6zM139.5 510.1h1.6v1.6h-1.6zM139.5 507.2h1.6v1.6h-1.6zM139.6 504.2h1.6v1.6h-1.6zM139.6 501.3h1.6v1.6h-1.6zM139.6 498.4h1.6v1.6h-1.6zM142.4 542.2h1.6v1.6h-1.6zM142.5 539.3h1.6v1.6h-1.6zM142.5 536.4h1.6v1.6h-1.6zM142.4 533.4h1.6v1.6h-1.6zM142.4 530.5h1.6v1.6h-1.6zM142.4 527.6h1.6v1.6h-1.6zM142.4 524.7h1.6v1.6h-1.6zM142.4 521.8h1.6v1.6h-1.6zM142.5 518.9h1.6v1.6h-1.6zM142.5 516h1.6v1.6h-1.6zM142.4 513h1.6v1.6h-1.6zM142.4 510.1h1.6v1.6h-1.6zM142.4 507.2h1.6v1.6h-1.6zM142.4 504.3h1.6v1.6h-1.6zM142.4 501.4h1.6v1.6h-1.6zM142.5 498.5h1.6v1.6h-1.6zM145.3 542.2h1.6v1.6h-1.6zM145.3 539.2h1.6v1.6h-1.6zM145.3 536.3h1.6v1.6h-1.6zM145.2 533.4h1.6v1.6h-1.6zM145.3 530.5h1.6v1.6h-1.6zM145.3 527.6h1.6v1.6h-1.6zM145.3 524.7h1.6v1.6h-1.6zM145.3 521.8h1.6v1.6h-1.6zM145.3 518.8h1.6v1.6h-1.6zM145.3 515.9h1.6v1.6h-1.6zM145.2 513h1.6v1.6h-1.6zM145.3 510.1h1.6v1.6h-1.6zM145.3 507.2h1.6v1.6h-1.6zM145.3 504.3h1.6v1.6h-1.6zM145.3 501.4h1.6v1.6h-1.6zM145.3 498.4h1.6v1.6h-1.6zM148.2 542.1h1.6v1.6h-1.6zM148.2 539.2h1.6v1.6h-1.6zM148.2 536.3h1.6v1.6h-1.6zM148.1 533.4h1.6v1.6h-1.6zM148.1 530.5h1.6v1.6h-1.6zM148.1 527.5h1.6v1.6h-1.6zM148.1 524.6h1.6v1.6h-1.6zM148.2 521.7h1.6v1.6h-1.6zM148.2 518.8h1.6v1.6h-1.6zM148.2 515.9h1.6v1.6h-1.6zM148.1 513h1.6v1.6h-1.6zM148.1 510.1h1.6v1.6h-1.6zM148.1 507.1h1.6v1.6h-1.6zM148.2 504.2h1.6v1.6h-1.6zM148.2 501.3h1.6v1.6h-1.6zM148.2 498.4h1.6v1.6h-1.6zM151 542.2h1.6v1.6H151zM151 539.3h1.6v1.6H151zM151.1 536.3h1.6v1.6h-1.6zM151 533.4h1.6v1.6H151zM151 530.5h1.6v1.6H151zM151 527.6h1.6v1.6H151zM151 524.7h1.6v1.6H151zM151 521.8h1.6v1.6H151zM151 518.9h1.6v1.6H151zM151.1 515.9h1.6v1.6h-1.6zM151 513h1.6v1.6H151zM151 510.1h1.6v1.6H151zM151 507.2h1.6v1.6H151zM151 504.3h1.6v1.6H151zM151 501.4h1.6v1.6H151zM151 498.5h1.6v1.6H151zM153.9 542.1h1.6v1.6h-1.6zM153.9 539.2h1.6v1.6h-1.6zM153.9 536.3h1.6v1.6h-1.6zM153.8 533.4h1.6v1.6h-1.6zM153.8 530.5h1.6v1.6h-1.6zM153.9 527.6h1.6v1.6h-1.6zM153.9 524.7h1.6v1.6h-1.6zM153.9 521.7h1.6v1.6h-1.6zM153.9 518.8h1.6v1.6h-1.6zM153.9 515.9h1.6v1.6h-1.6zM153.8 513h1.6v1.6h-1.6zM153.8 510.1h1.6v1.6h-1.6zM153.9 507.2h1.6v1.6h-1.6zM153.9 504.3h1.6v1.6h-1.6zM153.9 501.3h1.6v1.6h-1.6zM153.9 498.4h1.6v1.6h-1.6zM156.8 542.2h1.6v1.6h-1.6zM156.8 539.3h1.6v1.6h-1.6zM156.8 536.4h1.6v1.6h-1.6zM156.7 533.5h1.6v1.6h-1.6zM156.7 530.5h1.6v1.6h-1.6zM156.7 527.6h1.6v1.6h-1.6zM156.7 524.7h1.6v1.6h-1.6zM156.8 521.8h1.6v1.6h-1.6zM156.8 518.9h1.6v1.6h-1.6zM156.8 516h1.6v1.6h-1.6zM156.7 513.1h1.6v1.6h-1.6zM156.7 510.1h1.6v1.6h-1.6zM156.7 507.2h1.6v1.6h-1.6zM156.7 504.3h1.6v1.6h-1.6zM156.8 501.4h1.6v1.6h-1.6zM159.6 542.2h1.6v1.6h-1.6zM159.6 539.3h1.6v1.6h-1.6zM159.6 536.3h1.6v1.6h-1.6zM159.6 533.4h1.6v1.6h-1.6zM159.6 530.5h1.6v1.6h-1.6zM159.6 527.6h1.6v1.6h-1.6zM159.6 524.7h1.6v1.6h-1.6zM159.6 521.8h1.6v1.6h-1.6zM159.6 518.9h1.6v1.6h-1.6zM159.6 515.9h1.6v1.6h-1.6zM159.6 513h1.6v1.6h-1.6zM159.6 510.1h1.6v1.6h-1.6zM159.6 507.2h1.6v1.6h-1.6zM159.6 504.3h1.6v1.6h-1.6zM159.6 501.4h1.6v1.6h-1.6zM162.5 542.2h1.6v1.6h-1.6zM162.5 539.2h1.6v1.6h-1.6zM162.5 536.3h1.6v1.6h-1.6zM162.5 533.4h1.6v1.6h-1.6zM162.5 530.5h1.6v1.6h-1.6zM162.5 527.6h1.6v1.6h-1.6zM162.5 524.7h1.6v1.6h-1.6zM162.5 521.8h1.6v1.6h-1.6zM162.5 518.8h1.6v1.6h-1.6zM162.5 515.9h1.6v1.6h-1.6zM162.5 513h1.6v1.6h-1.6zM162.5 510.1h1.6v1.6h-1.6zM162.5 507.2h1.6v1.6h-1.6zM162.5 504.3h1.6v1.6h-1.6zM165.4 542.1h1.6v1.6h-1.6zM165.4 539.2h1.6v1.6h-1.6zM165.4 536.3h1.6v1.6h-1.6zM165.3 533.4h1.6v1.6h-1.6zM165.3 530.5h1.6v1.6h-1.6zM165.3 527.6h1.6v1.6h-1.6zM165.4 524.6h1.6v1.6h-1.6zM165.4 521.7h1.6v1.6h-1.6zM165.4 518.8h1.6v1.6h-1.6zM165.4 515.9h1.6v1.6h-1.6zM165.3 513h1.6v1.6h-1.6zM165.3 510.1h1.6v1.6h-1.6zM165.3 507.1h1.6v1.6h-1.6zM165.4 504.2h1.6v1.6h-1.6zM168.2 542.2h1.6v1.6h-1.6zM168.2 539.3h1.6v1.6h-1.6zM168.3 536.4h1.6v1.6h-1.6zM168.2 533.4h1.6v1.6h-1.6zM168.2 530.5h1.6v1.6h-1.6zM168.2 527.6h1.6v1.6h-1.6zM168.2 524.7h1.6v1.6h-1.6zM168.2 521.8h1.6v1.6h-1.6zM168.2 518.9h1.6v1.6h-1.6zM168.3 516h1.6v1.6h-1.6zM168.2 513h1.6v1.6h-1.6zM168.2 510.1h1.6v1.6h-1.6zM168.2 507.2h1.6v1.6h-1.6zM171.1 542.1h1.6v1.6h-1.6zM171.1 539.2h1.6v1.6h-1.6zM171.1 536.3h1.6v1.6h-1.6zM171 533.4h1.6v1.6H171zM171.1 530.5h1.6v1.6h-1.6zM171.1 527.6h1.6v1.6h-1.6zM171.1 524.7h1.6v1.6h-1.6zM171.1 521.7h1.6v1.6h-1.6zM171.1 518.8h1.6v1.6h-1.6zM171.1 515.9h1.6v1.6h-1.6zM171 513h1.6v1.6H171zM171.1 510.1h1.6v1.6h-1.6zM174 542.2h1.6v1.6H174zM174 539.3h1.6v1.6H174zM174 536.4h1.6v1.6H174zM173.9 533.5h1.6v1.6h-1.6zM173.9 530.6h1.6v1.6h-1.6zM173.9 527.6h1.6v1.6h-1.6zM173.9 524.7h1.6v1.6h-1.6zM174 521.8h1.6v1.6H174zM174 518.9h1.6v1.6H174zM174 516h1.6v1.6H174zM173.9 513.1h1.6v1.6h-1.6zM173.9 510.2h1.6v1.6h-1.6zM176.8 542.2h1.6v1.6h-1.6zM176.8 539.3h1.6v1.6h-1.6zM176.9 536.3h1.6v1.6h-1.6zM176.8 533.4h1.6v1.6h-1.6zM176.8 530.5h1.6v1.6h-1.6zM176.8 527.6h1.6v1.6h-1.6zM176.8 524.7h1.6v1.6h-1.6zM176.8 521.8h1.6v1.6h-1.6zM176.8 518.9h1.6v1.6h-1.6zM176.9 515.9h1.6v1.6h-1.6zM176.8 513h1.6v1.6h-1.6zM179.7 542.1h1.6v1.6h-1.6zM179.7 539.2h1.6v1.6h-1.6zM179.7 536.3h1.6v1.6h-1.6zM179.6 533.4h1.6v1.6h-1.6zM179.6 530.5h1.6v1.6h-1.6zM179.7 527.6h1.6v1.6h-1.6zM179.7 524.7h1.6v1.6h-1.6zM179.7 521.7h1.6v1.6h-1.6zM179.7 518.8h1.6v1.6h-1.6zM179.7 515.9h1.6v1.6h-1.6zM182.5 542.2h1.6v1.6h-1.6zM182.6 539.3h1.6v1.6h-1.6zM182.6 536.4h1.6v1.6h-1.6zM182.5 533.5h1.6v1.6h-1.6zM182.5 530.5h1.6v1.6h-1.6zM182.5 527.6h1.6v1.6h-1.6zM182.5 524.7h1.6v1.6h-1.6zM182.5 521.8h1.6v1.6h-1.6zM185.4 542.2h1.6v1.6h-1.6zM185.4 539.2h1.6v1.6h-1.6zM185.4 536.3h1.6v1.6h-1.6zM102.3 553.9h1.6v1.6h-1.6zM102.3 551h1.6v1.6h-1.6zM102.3 548.1h1.6v1.6h-1.6zM102.3 545.2h1.6v1.6h-1.6zM105.2 559.7h1.6v1.6h-1.6zM105.1 556.8h1.6v1.6h-1.6zM105.2 553.9h1.6v1.6h-1.6zM105.2 551h1.6v1.6h-1.6zM105.2 548.1h1.6v1.6h-1.6zM105.2 545.1h1.6v1.6h-1.6zM108.1 562.7h1.6v1.6h-1.6zM108.1 559.8h1.6v1.6h-1.6zM108 556.9h1.6v1.6H108zM108 553.9h1.6v1.6H108zM108 551h1.6v1.6H108zM108 548.1h1.6v1.6H108zM108.1 545.2h1.6v1.6h-1.6zM110.9 565.6h1.6v1.6h-1.6zM110.9 562.6h1.6v1.6h-1.6zM110.9 559.7h1.6v1.6h-1.6zM110.9 556.8h1.6v1.6h-1.6zM110.9 553.9h1.6v1.6h-1.6zM110.9 551h1.6v1.6h-1.6zM110.9 548.1h1.6v1.6h-1.6zM110.9 545.2h1.6v1.6h-1.6zM113.8 568.4h1.6v1.6h-1.6zM113.8 565.5h1.6v1.6h-1.6zM113.8 562.6h1.6v1.6h-1.6zM113.8 559.7h1.6v1.6h-1.6zM113.7 556.8h1.6v1.6h-1.6zM113.7 553.9h1.6v1.6h-1.6zM113.8 551h1.6v1.6h-1.6zM113.8 548h1.6v1.6h-1.6zM113.8 545.1h1.6v1.6h-1.6zM116.6 571.4h1.6v1.6h-1.6zM116.6 568.5h1.6v1.6h-1.6zM116.6 565.6h1.6v1.6h-1.6zM116.7 562.7h1.6v1.6h-1.6zM116.7 559.8h1.6v1.6h-1.6zM116.6 556.8h1.6v1.6h-1.6zM116.6 553.9h1.6v1.6h-1.6zM116.6 551h1.6v1.6h-1.6zM116.6 548.1h1.6v1.6h-1.6zM116.6 545.2h1.6v1.6h-1.6zM119.5 574.3h1.6v1.6h-1.6zM119.5 571.4h1.6v1.6h-1.6zM119.5 568.5h1.6v1.6h-1.6zM119.5 565.6h1.6v1.6h-1.6zM119.5 562.6h1.6v1.6h-1.6zM119.5 559.7h1.6v1.6h-1.6zM119.5 556.8h1.6v1.6h-1.6zM119.5 553.9h1.6v1.6h-1.6zM119.5 551h1.6v1.6h-1.6zM119.5 548.1h1.6v1.6h-1.6zM119.5 545.2h1.6v1.6h-1.6zM122.3 577.2h1.6v1.6h-1.6zM122.3 574.3h1.6v1.6h-1.6zM122.3 571.3h1.6v1.6h-1.6zM122.4 568.4h1.6v1.6h-1.6zM122.4 565.5h1.6v1.6h-1.6zM122.4 562.6h1.6v1.6h-1.6zM122.4 559.7h1.6v1.6h-1.6zM122.3 556.8h1.6v1.6h-1.6zM122.3 553.9h1.6v1.6h-1.6zM122.3 550.9h1.6v1.6h-1.6zM122.4 548h1.6v1.6h-1.6zM122.4 545.1h1.6v1.6h-1.6zM125.3 580.2h1.6v1.6h-1.6zM125.2 577.3h1.6v1.6h-1.6zM125.2 574.4h1.6v1.6h-1.6zM125.2 571.4h1.6v1.6h-1.6zM125.2 568.5h1.6v1.6h-1.6zM125.3 565.6h1.6v1.6h-1.6zM125.3 562.7h1.6v1.6h-1.6zM125.3 559.8h1.6v1.6h-1.6zM125.2 556.9h1.6v1.6h-1.6zM125.2 554h1.6v1.6h-1.6zM125.2 551h1.6v1.6h-1.6zM125.3 548.1h1.6v1.6h-1.6zM125.3 545.2h1.6v1.6h-1.6zM128.2 580.1h1.6v1.6h-1.6zM128.1 577.2h1.6v1.6h-1.6zM128.1 574.3h1.6v1.6h-1.6zM128.1 571.4h1.6v1.6h-1.6zM128.1 568.5h1.6v1.6h-1.6zM128.1 565.6h1.6v1.6h-1.6zM128.1 562.7h1.6v1.6h-1.6zM128.2 559.7h1.6v1.6h-1.6zM128.1 556.8h1.6v1.6h-1.6zM128.1 553.9h1.6v1.6h-1.6zM128.1 551h1.6v1.6h-1.6zM128.1 548.1h1.6v1.6h-1.6zM128.1 545.2h1.6v1.6h-1.6zM131 580.1h1.6v1.6H131zM130.9 577.2h1.6v1.6h-1.6zM130.9 574.3h1.6v1.6h-1.6zM131 571.4h1.6v1.6H131zM131 568.4h1.6v1.6H131zM131 565.5h1.6v1.6H131zM131 562.6h1.6v1.6H131zM131 559.7h1.6v1.6H131zM130.9 556.8h1.6v1.6h-1.6zM130.9 553.9h1.6v1.6h-1.6zM131 551h1.6v1.6H131zM131 548h1.6v1.6H131zM131 545.1h1.6v1.6H131zM133.9 580.2h1.6v1.6h-1.6zM133.8 577.3h1.6v1.6h-1.6zM133.8 574.3h1.6v1.6h-1.6zM133.8 571.4h1.6v1.6h-1.6zM133.8 568.5h1.6v1.6h-1.6zM133.9 565.6h1.6v1.6h-1.6zM133.9 562.7h1.6v1.6h-1.6zM133.9 559.8h1.6v1.6h-1.6zM133.8 556.9h1.6v1.6h-1.6zM133.8 553.9h1.6v1.6h-1.6zM133.8 551h1.6v1.6h-1.6zM133.8 548.1h1.6v1.6h-1.6zM133.9 545.2h1.6v1.6h-1.6zM136.7 580.1h1.6v1.6h-1.6zM136.7 577.2h1.6v1.6h-1.6zM136.7 574.3h1.6v1.6h-1.6zM136.7 571.4h1.6v1.6h-1.6zM136.7 568.5h1.6v1.6h-1.6zM136.7 565.6h1.6v1.6h-1.6zM136.7 562.6h1.6v1.6h-1.6zM136.7 559.7h1.6v1.6h-1.6zM136.7 556.8h1.6v1.6h-1.6zM136.7 553.9h1.6v1.6h-1.6zM136.7 551h1.6v1.6h-1.6zM136.7 548.1h1.6v1.6h-1.6zM136.7 545.2h1.6v1.6h-1.6zM139.6 580.1h1.6v1.6h-1.6zM139.5 577.2h1.6v1.6h-1.6zM139.5 574.3h1.6v1.6h-1.6zM139.5 571.4h1.6v1.6h-1.6zM139.6 568.4h1.6v1.6h-1.6zM139.6 565.5h1.6v1.6h-1.6zM139.6 562.6h1.6v1.6h-1.6zM139.6 559.7h1.6v1.6h-1.6zM139.5 556.8h1.6v1.6h-1.6zM139.5 553.9h1.6v1.6h-1.6zM139.6 551h1.6v1.6h-1.6zM139.6 548h1.6v1.6h-1.6zM139.6 545.1h1.6v1.6h-1.6zM142.5 580.2h1.6v1.6h-1.6zM142.4 577.2h1.6v1.6h-1.6zM142.4 574.3h1.6v1.6h-1.6zM142.4 571.4h1.6v1.6h-1.6zM142.4 568.5h1.6v1.6h-1.6zM142.4 565.6h1.6v1.6h-1.6zM142.5 562.7h1.6v1.6h-1.6zM142.5 559.8h1.6v1.6h-1.6zM142.4 556.8h1.6v1.6h-1.6zM142.4 553.9h1.6v1.6h-1.6zM142.4 551h1.6v1.6h-1.6zM142.4 548.1h1.6v1.6h-1.6zM142.4 545.2h1.6v1.6h-1.6zM145.3 580.1h1.6v1.6h-1.6zM145.2 577.2h1.6v1.6h-1.6zM145.3 574.3h1.6v1.6h-1.6zM145.3 571.4h1.6v1.6h-1.6zM145.3 568.5h1.6v1.6h-1.6zM145.3 565.5h1.6v1.6h-1.6zM145.3 562.6h1.6v1.6h-1.6zM145.3 559.7h1.6v1.6h-1.6zM145.2 556.8h1.6v1.6h-1.6zM145.3 553.9h1.6v1.6h-1.6zM145.3 551h1.6v1.6h-1.6zM145.3 548.1h1.6v1.6h-1.6zM145.3 545.1h1.6v1.6h-1.6zM148.2 580.1h1.6v1.6h-1.6zM148.1 577.2h1.6v1.6h-1.6zM148.1 574.3h1.6v1.6h-1.6zM148.1 571.3h1.6v1.6h-1.6zM148.2 568.4h1.6v1.6h-1.6zM148.2 565.5h1.6v1.6h-1.6zM148.2 562.6h1.6v1.6h-1.6zM148.2 559.7h1.6v1.6h-1.6zM148.1 556.8h1.6v1.6h-1.6zM148.1 553.9h1.6v1.6h-1.6zM148.1 550.9h1.6v1.6h-1.6zM148.2 548h1.6v1.6h-1.6zM148.2 545.1h1.6v1.6h-1.6zM151.1 580.1h1.6v1.6h-1.6zM151 577.2h1.6v1.6H151zM151 574.3h1.6v1.6H151zM151 571.4h1.6v1.6H151zM151 568.5h1.6v1.6H151zM151 565.6h1.6v1.6H151zM151 562.7h1.6v1.6H151zM151.1 559.7h1.6v1.6h-1.6zM151 556.8h1.6v1.6H151zM151 553.9h1.6v1.6H151zM151 551h1.6v1.6H151zM151 548.1h1.6v1.6H151zM151 545.2h1.6v1.6H151zM153.9 580.1h1.6v1.6h-1.6zM153.8 577.2h1.6v1.6h-1.6zM153.8 574.3h1.6v1.6h-1.6zM153.9 571.4h1.6v1.6h-1.6zM153.9 568.5h1.6v1.6h-1.6zM153.9 565.5h1.6v1.6h-1.6zM153.9 562.6h1.6v1.6h-1.6zM153.9 559.7h1.6v1.6h-1.6zM153.8 556.8h1.6v1.6h-1.6zM153.9 553.9h1.6v1.6h-1.6zM153.9 551h1.6v1.6h-1.6zM153.9 548.1h1.6v1.6h-1.6zM153.9 545.1h1.6v1.6h-1.6zM156.8 580.2h1.6v1.6h-1.6zM156.7 577.3h1.6v1.6h-1.6zM156.7 574.3h1.6v1.6h-1.6zM156.7 571.4h1.6v1.6h-1.6zM156.7 568.5h1.6v1.6h-1.6zM156.8 565.6h1.6v1.6h-1.6zM156.8 562.7h1.6v1.6h-1.6zM156.8 559.8h1.6v1.6h-1.6zM156.7 556.9h1.6v1.6h-1.6zM156.7 553.9h1.6v1.6h-1.6zM156.7 551h1.6v1.6h-1.6zM156.7 548.1h1.6v1.6h-1.6zM156.8 545.2h1.6v1.6h-1.6zM159.6 577.2h1.6v1.6h-1.6zM159.6 574.3h1.6v1.6h-1.6zM159.6 571.4h1.6v1.6h-1.6zM159.6 568.5h1.6v1.6h-1.6zM159.6 565.6h1.6v1.6h-1.6zM159.6 562.6h1.6v1.6h-1.6zM159.6 559.7h1.6v1.6h-1.6zM159.6 556.8h1.6v1.6h-1.6zM159.6 553.9h1.6v1.6h-1.6zM159.6 551h1.6v1.6h-1.6zM159.6 548.1h1.6v1.6h-1.6zM159.6 545.2h1.6v1.6h-1.6zM162.5 577.2h1.6v1.6h-1.6zM162.5 574.3h1.6v1.6h-1.6zM162.5 571.4h1.6v1.6h-1.6zM162.5 568.5h1.6v1.6h-1.6zM162.5 565.6h1.6v1.6h-1.6zM162.5 562.6h1.6v1.6h-1.6zM162.5 559.7h1.6v1.6h-1.6zM162.5 556.8h1.6v1.6h-1.6zM162.5 553.9h1.6v1.6h-1.6zM162.5 551h1.6v1.6h-1.6zM162.5 548.1h1.6v1.6h-1.6zM162.5 545.2h1.6v1.6h-1.6zM165.3 574.3h1.6v1.6h-1.6zM165.3 571.3h1.6v1.6h-1.6zM165.4 568.4h1.6v1.6h-1.6zM165.4 565.5h1.6v1.6h-1.6zM165.4 562.6h1.6v1.6h-1.6zM165.4 559.7h1.6v1.6h-1.6zM165.3 556.8h1.6v1.6h-1.6zM165.3 553.9h1.6v1.6h-1.6zM165.3 550.9h1.6v1.6h-1.6zM165.4 548h1.6v1.6h-1.6zM165.4 545.1h1.6v1.6h-1.6zM168.2 574.3h1.6v1.6h-1.6zM168.2 571.4h1.6v1.6h-1.6zM168.2 568.5h1.6v1.6h-1.6zM168.2 565.6h1.6v1.6h-1.6zM168.3 562.7h1.6v1.6h-1.6zM168.3 559.8h1.6v1.6h-1.6zM168.2 556.8h1.6v1.6h-1.6zM168.2 553.9h1.6v1.6h-1.6zM168.2 551h1.6v1.6h-1.6zM168.2 548.1h1.6v1.6h-1.6zM168.2 545.2h1.6v1.6h-1.6zM171.1 571.4h1.6v1.6h-1.6zM171.1 568.5h1.6v1.6h-1.6zM171.1 565.5h1.6v1.6h-1.6zM171.1 562.6h1.6v1.6h-1.6zM171.1 559.7h1.6v1.6h-1.6zM171 556.8h1.6v1.6H171zM171.1 553.9h1.6v1.6h-1.6zM171.1 551h1.6v1.6h-1.6zM171.1 548.1h1.6v1.6h-1.6zM171.1 545.1h1.6v1.6h-1.6zM173.9 568.5h1.6v1.6h-1.6zM174 565.6h1.6v1.6H174zM174 562.7h1.6v1.6H174zM174 559.8h1.6v1.6H174zM173.9 556.9h1.6v1.6h-1.6zM173.9 553.9h1.6v1.6h-1.6zM173.9 551h1.6v1.6h-1.6zM173.9 548.1h1.6v1.6h-1.6zM174 545.2h1.6v1.6H174zM176.8 565.6h1.6v1.6h-1.6zM176.8 562.7h1.6v1.6h-1.6zM176.9 559.7h1.6v1.6h-1.6zM176.8 556.8h1.6v1.6h-1.6zM176.8 553.9h1.6v1.6h-1.6zM176.8 551h1.6v1.6h-1.6zM176.8 548.1h1.6v1.6h-1.6zM176.8 545.2h1.6v1.6h-1.6zM179.7 562.6h1.6v1.6h-1.6zM179.7 559.7h1.6v1.6h-1.6zM179.6 556.8h1.6v1.6h-1.6zM179.6 553.9h1.6v1.6h-1.6zM179.7 551h1.6v1.6h-1.6zM179.7 548h1.6v1.6h-1.6zM179.7 545.1h1.6v1.6h-1.6zM182.5 556.9h1.6v1.6h-1.6zM182.5 553.9h1.6v1.6h-1.6zM182.5 551h1.6v1.6h-1.6zM182.5 548.1h1.6v1.6h-1.6zM182.6 545.2h1.6v1.6h-1.6zM185.4 545.2h1.6v1.6h-1.6z"/>
    </g>
    <path d="M144 499.2c22.9 0 41.5 18.6 41.5 41.5s-18.6 41.5-41.5 41.5-41.5-18.6-41.5-41.5c-.1-22.9 18.6-41.5 41.5-41.5m0-7.7c-27.2 0-49.3 22.1-49.3 49.3s22.1 49.3 49.3 49.3 49.3-22.1 49.3-49.3c-.1-27.2-22.1-49.3-49.3-49.3z"/>
    <circle cx="144" cy="540.8" r="19"/>
    <path class="st4" d="M987.5 501.2c29.2 0 52.8 23.6 52.8 52.8s-23.6 52.8-52.8 52.8-52.8-23.6-52.8-52.8c0-29.1 23.6-52.8 52.8-52.8m0-17.3c-38.7 0-70.2 31.5-70.2 70.2s31.5 70.2 70.2 70.2 70.2-31.5 70.2-70.2c-.1-38.7-31.5-70.2-70.2-70.2z"/>
    <g class="st8">
        <defs>
            <circle id="SVGID_00000072990203523818900290000017763800567874336413_" transform="rotate(-84.806 987.508 554.092)" cx="987.5" cy="554.1" r="47.9"/>
        </defs>
        <clipPath id="SVGID_00000080922943687584626950000015463861764999192976_">
            <use xlink:href="#SVGID_00000072990203523818900290000017763800567874336413_" style="overflow:visible"/>
        </clipPath>
    </g>
    <circle cx="987.5" cy="554.1" r="52.8"/>
    <circle class="st4" cx="987.5" cy="554.1" r="49.3"/>
    <g class="st13">
        <path class="st10" d="M945.8 555.5h1.6v1.6h-1.6zM945.8 552.6h1.6v1.6h-1.6zM945.9 549.7h1.6v1.6h-1.6zM945.8 546.7h1.6v1.6h-1.6zM945.8 543.8h1.6v1.6h-1.6zM945.8 540.9h1.6v1.6h-1.6zM945.8 538h1.6v1.6h-1.6zM948.7 555.4h1.6v1.6h-1.6zM948.7 552.5h1.6v1.6h-1.6zM948.7 549.6h1.6v1.6h-1.6zM948.6 546.7h1.6v1.6h-1.6zM948.6 543.8h1.6v1.6h-1.6zM948.7 540.9h1.6v1.6h-1.6zM948.7 538h1.6v1.6h-1.6zM948.7 535h1.6v1.6h-1.6zM951.6 555.5h1.6v1.6h-1.6zM951.6 552.6h1.6v1.6h-1.6zM951.6 549.7h1.6v1.6h-1.6zM951.5 546.8h1.6v1.6h-1.6zM951.5 543.8h1.6v1.6h-1.6zM951.5 540.9h1.6v1.6h-1.6zM951.5 538h1.6v1.6h-1.6zM951.6 535.1h1.6v1.6h-1.6zM951.6 532.2h1.6v1.6h-1.6zM951.6 529.3h1.6v1.6h-1.6zM954.4 555.5h1.6v1.6h-1.6zM954.4 552.6h1.6v1.6h-1.6zM954.4 549.6h1.6v1.6h-1.6zM954.4 546.7h1.6v1.6h-1.6zM954.4 543.8h1.6v1.6h-1.6zM954.4 540.9h1.6v1.6h-1.6zM954.4 538h1.6v1.6h-1.6zM954.4 535.1h1.6v1.6h-1.6zM954.4 532.2h1.6v1.6h-1.6zM954.4 529.2h1.6v1.6h-1.6zM954.4 526.3h1.6v1.6h-1.6zM957.3 555.4h1.6v1.6h-1.6zM957.3 552.5h1.6v1.6h-1.6zM957.3 549.6h1.6v1.6h-1.6zM957.2 546.7h1.6v1.6h-1.6zM957.2 543.8h1.6v1.6h-1.6zM957.3 540.9h1.6v1.6h-1.6zM957.3 537.9h1.6v1.6h-1.6zM957.3 535h1.6v1.6h-1.6zM957.3 532.1h1.6v1.6h-1.6zM957.3 529.2h1.6v1.6h-1.6zM957.2 526.3h1.6v1.6h-1.6zM957.2 523.4h1.6v1.6h-1.6zM960.1 555.5h1.6v1.6h-1.6zM960.2 552.6h1.6v1.6h-1.6zM960.2 549.7h1.6v1.6h-1.6zM960.1 546.8h1.6v1.6h-1.6zM960.1 543.8h1.6v1.6h-1.6zM960.1 540.9h1.6v1.6h-1.6zM960.1 538h1.6v1.6h-1.6zM960.1 535.1h1.6v1.6h-1.6zM960.2 532.2h1.6v1.6h-1.6zM960.2 529.3h1.6v1.6h-1.6zM960.1 526.3h1.6v1.6h-1.6zM960.1 523.4h1.6v1.6h-1.6zM960.1 520.5h1.6v1.6h-1.6zM963 555.5h1.6v1.6H963zM963 552.5h1.6v1.6H963zM963 549.6h1.6v1.6H963zM962.9 546.7h1.6v1.6h-1.6zM963 543.8h1.6v1.6H963zM963 540.9h1.6v1.6H963zM963 538h1.6v1.6H963zM963 535.1h1.6v1.6H963zM963 532.1h1.6v1.6H963zM963 529.2h1.6v1.6H963zM962.9 526.3h1.6v1.6h-1.6zM963 523.4h1.6v1.6H963zM963 520.5h1.6v1.6H963zM963 517.6h1.6v1.6H963zM965.9 555.4h1.6v1.6h-1.6zM965.9 552.5h1.6v1.6h-1.6zM965.9 549.6h1.6v1.6h-1.6zM965.8 546.7h1.6v1.6h-1.6zM965.8 543.8h1.6v1.6h-1.6zM965.8 540.8h1.6v1.6h-1.6zM965.9 537.9h1.6v1.6h-1.6zM965.9 535h1.6v1.6h-1.6zM965.9 532.1h1.6v1.6h-1.6zM965.9 529.2h1.6v1.6h-1.6zM965.8 526.3h1.6v1.6h-1.6zM965.8 523.4h1.6v1.6h-1.6zM965.8 520.4h1.6v1.6h-1.6zM965.9 517.5h1.6v1.6h-1.6zM968.8 555.5h1.6v1.6h-1.6zM968.8 552.6h1.6v1.6h-1.6zM968.8 549.7h1.6v1.6h-1.6zM968.7 546.8h1.6v1.6h-1.6zM968.7 543.9h1.6v1.6h-1.6zM968.7 540.9h1.6v1.6h-1.6zM968.7 538h1.6v1.6h-1.6zM968.8 535.1h1.6v1.6h-1.6zM968.8 532.2h1.6v1.6h-1.6zM968.8 529.3h1.6v1.6h-1.6zM968.7 526.4h1.6v1.6h-1.6zM968.7 523.5h1.6v1.6h-1.6zM968.7 520.5h1.6v1.6h-1.6zM968.7 517.6h1.6v1.6h-1.6zM968.8 514.7h1.6v1.6h-1.6zM971.6 555.5h1.6v1.6h-1.6zM971.6 552.6h1.6v1.6h-1.6zM971.7 549.6h1.6v1.6h-1.6zM971.6 546.7h1.6v1.6h-1.6zM971.6 543.8h1.6v1.6h-1.6zM971.6 540.9h1.6v1.6h-1.6zM971.6 538h1.6v1.6h-1.6zM971.6 535.1h1.6v1.6h-1.6zM971.6 532.2h1.6v1.6h-1.6zM971.7 529.2h1.6v1.6h-1.6zM971.6 526.3h1.6v1.6h-1.6zM971.6 523.4h1.6v1.6h-1.6zM971.6 520.5h1.6v1.6h-1.6zM971.6 517.6h1.6v1.6h-1.6zM971.6 514.7h1.6v1.6h-1.6zM974.5 555.4h1.6v1.6h-1.6zM974.5 552.5h1.6v1.6h-1.6zM974.5 549.6h1.6v1.6h-1.6zM974.4 546.7h1.6v1.6h-1.6zM974.4 543.8h1.6v1.6h-1.6zM974.5 540.9h1.6v1.6h-1.6zM974.5 538h1.6v1.6h-1.6zM974.5 535h1.6v1.6h-1.6zM974.5 532.1h1.6v1.6h-1.6zM974.5 529.2h1.6v1.6h-1.6zM974.4 526.3h1.6v1.6h-1.6zM974.4 523.4h1.6v1.6h-1.6zM974.5 520.5h1.6v1.6h-1.6zM974.5 517.6h1.6v1.6h-1.6zM974.5 514.6h1.6v1.6h-1.6zM977.3 555.5h1.6v1.6h-1.6zM977.4 552.6h1.6v1.6h-1.6zM977.4 549.7h1.6v1.6h-1.6zM977.3 546.8h1.6v1.6h-1.6zM977.3 543.8h1.6v1.6h-1.6zM977.3 540.9h1.6v1.6h-1.6zM977.3 538h1.6v1.6h-1.6zM977.3 535.1h1.6v1.6h-1.6zM977.4 532.2h1.6v1.6h-1.6zM977.4 529.3h1.6v1.6h-1.6zM977.3 526.4h1.6v1.6h-1.6zM977.3 523.4h1.6v1.6h-1.6zM977.3 520.5h1.6v1.6h-1.6zM977.3 517.6h1.6v1.6h-1.6zM977.4 514.7h1.6v1.6h-1.6zM977.4 511.8h1.6v1.6h-1.6zM980.2 555.5h1.6v1.6h-1.6zM980.2 552.5h1.6v1.6h-1.6zM980.2 549.6h1.6v1.6h-1.6zM980.2 546.7h1.6v1.6h-1.6zM980.2 543.8h1.6v1.6h-1.6zM980.2 540.9h1.6v1.6h-1.6zM980.2 538h1.6v1.6h-1.6zM980.2 535.1h1.6v1.6h-1.6zM980.2 532.1h1.6v1.6h-1.6zM980.2 529.2h1.6v1.6h-1.6zM980.2 526.3h1.6v1.6h-1.6zM980.2 523.4h1.6v1.6h-1.6zM980.2 520.5h1.6v1.6h-1.6zM980.2 517.6h1.6v1.6h-1.6zM980.2 514.7h1.6v1.6h-1.6zM980.2 511.7h1.6v1.6h-1.6zM983.1 555.4h1.6v1.6h-1.6zM983.1 552.5h1.6v1.6h-1.6zM983.1 549.6h1.6v1.6h-1.6zM983 546.7h1.6v1.6H983zM983 543.8h1.6v1.6H983zM983 540.9h1.6v1.6H983zM983.1 537.9h1.6v1.6h-1.6zM983.1 535h1.6v1.6h-1.6zM983.1 532.1h1.6v1.6h-1.6zM983.1 529.2h1.6v1.6h-1.6zM983 526.3h1.6v1.6H983zM983 523.4h1.6v1.6H983zM983 520.5h1.6v1.6H983zM983.1 517.5h1.6v1.6h-1.6zM983.1 514.6h1.6v1.6h-1.6zM983.1 511.7h1.6v1.6h-1.6zM985.9 555.5h1.6v1.6h-1.6zM986 552.6h1.6v1.6H986zM986 549.7h1.6v1.6H986zM985.9 546.7h1.6v1.6h-1.6zM985.9 543.8h1.6v1.6h-1.6zM985.9 540.9h1.6v1.6h-1.6zM985.9 538h1.6v1.6h-1.6zM985.9 535.1h1.6v1.6h-1.6zM986 532.2h1.6v1.6H986zM986 529.3h1.6v1.6H986zM985.9 526.3h1.6v1.6h-1.6zM985.9 523.4h1.6v1.6h-1.6zM985.9 520.5h1.6v1.6h-1.6zM985.9 517.6h1.6v1.6h-1.6zM985.9 514.7h1.6v1.6h-1.6zM986 511.8h1.6v1.6H986zM988.8 555.5h1.6v1.6h-1.6zM988.8 552.5h1.6v1.6h-1.6zM988.8 549.6h1.6v1.6h-1.6zM988.7 546.7h1.6v1.6h-1.6zM988.8 543.8h1.6v1.6h-1.6zM988.8 540.9h1.6v1.6h-1.6zM988.8 538h1.6v1.6h-1.6zM988.8 535.1h1.6v1.6h-1.6zM988.8 532.1h1.6v1.6h-1.6zM988.8 529.2h1.6v1.6h-1.6zM988.7 526.3h1.6v1.6h-1.6zM988.8 523.4h1.6v1.6h-1.6zM988.8 520.5h1.6v1.6h-1.6zM988.8 517.6h1.6v1.6h-1.6zM988.8 514.7h1.6v1.6h-1.6zM988.8 511.7h1.6v1.6h-1.6zM991.7 555.4h1.6v1.6h-1.6zM991.7 552.5h1.6v1.6h-1.6zM991.7 549.6h1.6v1.6h-1.6zM991.6 546.7h1.6v1.6h-1.6zM991.6 543.8h1.6v1.6h-1.6zM991.6 540.8h1.6v1.6h-1.6zM991.6 537.9h1.6v1.6h-1.6zM991.7 535h1.6v1.6h-1.6zM991.7 532.1h1.6v1.6h-1.6zM991.7 529.2h1.6v1.6h-1.6zM991.6 526.3h1.6v1.6h-1.6zM991.6 523.4h1.6v1.6h-1.6zM991.6 520.4h1.6v1.6h-1.6zM991.7 517.5h1.6v1.6h-1.6zM991.7 514.6h1.6v1.6h-1.6zM991.7 511.7h1.6v1.6h-1.6zM994.5 555.5h1.6v1.6h-1.6zM994.5 552.6h1.6v1.6h-1.6zM994.6 549.6h1.6v1.6h-1.6zM994.5 546.7h1.6v1.6h-1.6zM994.5 543.8h1.6v1.6h-1.6zM994.5 540.9h1.6v1.6h-1.6zM994.5 538h1.6v1.6h-1.6zM994.5 535.1h1.6v1.6h-1.6zM994.5 532.2h1.6v1.6h-1.6zM994.6 529.2h1.6v1.6h-1.6zM994.5 526.3h1.6v1.6h-1.6zM994.5 523.4h1.6v1.6h-1.6zM994.5 520.5h1.6v1.6h-1.6zM994.5 517.6h1.6v1.6h-1.6zM994.5 514.7h1.6v1.6h-1.6zM994.5 511.8h1.6v1.6h-1.6zM997.4 555.4h1.6v1.6h-1.6zM997.4 552.5h1.6v1.6h-1.6zM997.4 549.6h1.6v1.6h-1.6zM997.3 546.7h1.6v1.6h-1.6zM997.3 543.8h1.6v1.6h-1.6zM997.4 540.9h1.6v1.6h-1.6zM997.4 538h1.6v1.6h-1.6zM997.4 535h1.6v1.6h-1.6zM997.4 532.1h1.6v1.6h-1.6zM997.4 529.2h1.6v1.6h-1.6zM997.3 526.3h1.6v1.6h-1.6zM997.3 523.4h1.6v1.6h-1.6zM997.4 520.5h1.6v1.6h-1.6zM997.4 517.6h1.6v1.6h-1.6zM997.4 514.6h1.6v1.6h-1.6zM997.4 511.7h1.6v1.6h-1.6zM1000.3 555.5h1.6v1.6h-1.6zM1000.3 552.6h1.6v1.6h-1.6zM1000.3 549.7h1.6v1.6h-1.6zM1000.2 546.8h1.6v1.6h-1.6zM1000.2 543.8h1.6v1.6h-1.6zM1000.2 540.9h1.6v1.6h-1.6zM1000.2 538h1.6v1.6h-1.6zM1000.3 535.1h1.6v1.6h-1.6zM1000.3 532.2h1.6v1.6h-1.6zM1000.3 529.3h1.6v1.6h-1.6zM1000.2 526.4h1.6v1.6h-1.6zM1000.2 523.4h1.6v1.6h-1.6zM1000.2 520.5h1.6v1.6h-1.6zM1000.2 517.6h1.6v1.6h-1.6zM1000.3 514.7h1.6v1.6h-1.6zM1003.1 555.5h1.6v1.6h-1.6zM1003.1 552.6h1.6v1.6h-1.6zM1003.1 549.6h1.6v1.6h-1.6zM1003.1 546.7h1.6v1.6h-1.6zM1003.1 543.8h1.6v1.6h-1.6zM1003.1 540.9h1.6v1.6h-1.6zM1003.1 538h1.6v1.6h-1.6zM1003.1 535.1h1.6v1.6h-1.6zM1003.1 532.2h1.6v1.6h-1.6zM1003.1 529.2h1.6v1.6h-1.6zM1003.1 526.3h1.6v1.6h-1.6zM1003.1 523.4h1.6v1.6h-1.6zM1003.1 520.5h1.6v1.6h-1.6zM1003.1 517.6h1.6v1.6h-1.6zM1003.1 514.7h1.6v1.6h-1.6zM1006 555.5h1.6v1.6h-1.6zM1006 552.5h1.6v1.6h-1.6zM1006 549.6h1.6v1.6h-1.6zM1006 546.7h1.6v1.6h-1.6zM1006 543.8h1.6v1.6h-1.6zM1006 540.9h1.6v1.6h-1.6zM1006 538h1.6v1.6h-1.6zM1006 535.1h1.6v1.6h-1.6zM1006 532.1h1.6v1.6h-1.6zM1006 529.2h1.6v1.6h-1.6zM1006 526.3h1.6v1.6h-1.6zM1006 523.4h1.6v1.6h-1.6zM1006 520.5h1.6v1.6h-1.6zM1006 517.6h1.6v1.6h-1.6zM1008.9 555.4h1.6v1.6h-1.6zM1008.9 552.5h1.6v1.6h-1.6zM1008.9 549.6h1.6v1.6h-1.6zM1008.8 546.7h1.6v1.6h-1.6zM1008.8 543.8h1.6v1.6h-1.6zM1008.8 540.9h1.6v1.6h-1.6zM1008.9 537.9h1.6v1.6h-1.6zM1008.9 535h1.6v1.6h-1.6zM1008.9 532.1h1.6v1.6h-1.6zM1008.9 529.2h1.6v1.6h-1.6zM1008.8 526.3h1.6v1.6h-1.6zM1008.8 523.4h1.6v1.6h-1.6zM1008.8 520.4h1.6v1.6h-1.6zM1008.9 517.5h1.6v1.6h-1.6zM1011.7 555.5h1.6v1.6h-1.6zM1011.7 552.6h1.6v1.6h-1.6zM1011.8 549.7h1.6v1.6h-1.6zM1011.7 546.7h1.6v1.6h-1.6zM1011.7 543.8h1.6v1.6h-1.6zM1011.7 540.9h1.6v1.6h-1.6zM1011.7 538h1.6v1.6h-1.6zM1011.7 535.1h1.6v1.6h-1.6zM1011.7 532.2h1.6v1.6h-1.6zM1011.8 529.3h1.6v1.6h-1.6zM1011.7 526.3h1.6v1.6h-1.6zM1011.7 523.4h1.6v1.6h-1.6zM1011.7 520.5h1.6v1.6h-1.6zM1014.6 555.4h1.6v1.6h-1.6zM1014.6 552.5h1.6v1.6h-1.6zM1014.6 549.6h1.6v1.6h-1.6zM1014.5 546.7h1.6v1.6h-1.6zM1014.6 543.8h1.6v1.6h-1.6zM1014.6 540.9h1.6v1.6h-1.6zM1014.6 538h1.6v1.6h-1.6zM1014.6 535h1.6v1.6h-1.6zM1014.6 532.1h1.6v1.6h-1.6zM1014.6 529.2h1.6v1.6h-1.6zM1014.5 526.3h1.6v1.6h-1.6zM1014.6 523.4h1.6v1.6h-1.6zM1017.5 555.5h1.6v1.6h-1.6zM1017.5 552.6h1.6v1.6h-1.6zM1017.5 549.7h1.6v1.6h-1.6zM1017.4 546.8h1.6v1.6h-1.6zM1017.4 543.9h1.6v1.6h-1.6zM1017.4 540.9h1.6v1.6h-1.6zM1017.4 538h1.6v1.6h-1.6zM1017.5 535.1h1.6v1.6h-1.6zM1017.5 532.2h1.6v1.6h-1.6zM1017.5 529.3h1.6v1.6h-1.6zM1017.4 526.4h1.6v1.6h-1.6zM1017.4 523.5h1.6v1.6h-1.6zM1020.3 555.5h1.6v1.6h-1.6zM1020.3 552.6h1.6v1.6h-1.6zM1020.4 549.6h1.6v1.6h-1.6zM1020.3 546.7h1.6v1.6h-1.6zM1020.3 543.8h1.6v1.6h-1.6zM1020.3 540.9h1.6v1.6h-1.6zM1020.3 538h1.6v1.6h-1.6zM1020.3 535.1h1.6v1.6h-1.6zM1020.3 532.2h1.6v1.6h-1.6zM1020.4 529.2h1.6v1.6h-1.6zM1020.3 526.3h1.6v1.6h-1.6zM1023.2 555.4h1.6v1.6h-1.6zM1023.2 552.5h1.6v1.6h-1.6zM1023.2 549.6h1.6v1.6h-1.6zM1023.1 546.7h1.6v1.6h-1.6zM1023.1 543.8h1.6v1.6h-1.6zM1023.2 540.9h1.6v1.6h-1.6zM1023.2 538h1.6v1.6h-1.6zM1023.2 535h1.6v1.6h-1.6zM1023.2 532.1h1.6v1.6h-1.6zM1023.2 529.2h1.6v1.6h-1.6zM1026 555.5h1.6v1.6h-1.6zM1026.1 552.6h1.6v1.6h-1.6zM1026.1 549.7h1.6v1.6h-1.6zM1026 546.8h1.6v1.6h-1.6zM1026 543.8h1.6v1.6h-1.6zM1026 540.9h1.6v1.6h-1.6zM1026 538h1.6v1.6h-1.6zM1026 535.1h1.6v1.6h-1.6zM1028.9 555.5h1.6v1.6h-1.6zM1028.9 552.5h1.6v1.6h-1.6zM1028.9 549.6h1.6v1.6h-1.6zM945.8 567.2h1.6v1.6h-1.6zM945.8 564.3h1.6v1.6h-1.6zM945.8 561.4h1.6v1.6h-1.6zM945.8 558.5h1.6v1.6h-1.6zM948.7 573h1.6v1.6h-1.6zM948.6 570.1h1.6v1.6h-1.6zM948.7 567.2h1.6v1.6h-1.6zM948.7 564.3h1.6v1.6h-1.6zM948.7 561.4h1.6v1.6h-1.6zM948.7 558.4h1.6v1.6h-1.6zM951.6 576h1.6v1.6h-1.6zM951.6 573.1h1.6v1.6h-1.6zM951.5 570.2h1.6v1.6h-1.6zM951.5 567.2h1.6v1.6h-1.6zM951.5 564.3h1.6v1.6h-1.6zM951.5 561.4h1.6v1.6h-1.6zM951.6 558.5h1.6v1.6h-1.6zM954.4 578.9h1.6v1.6h-1.6zM954.4 575.9h1.6v1.6h-1.6zM954.4 573h1.6v1.6h-1.6zM954.4 570.1h1.6v1.6h-1.6zM954.4 567.2h1.6v1.6h-1.6zM954.4 564.3h1.6v1.6h-1.6zM954.4 561.4h1.6v1.6h-1.6zM954.4 558.5h1.6v1.6h-1.6zM957.3 581.7h1.6v1.6h-1.6zM957.3 578.8h1.6v1.6h-1.6zM957.3 575.9h1.6v1.6h-1.6zM957.3 573h1.6v1.6h-1.6zM957.2 570.1h1.6v1.6h-1.6zM957.2 567.2h1.6v1.6h-1.6zM957.3 564.3h1.6v1.6h-1.6zM957.3 561.3h1.6v1.6h-1.6zM957.3 558.4h1.6v1.6h-1.6zM960.1 584.7h1.6v1.6h-1.6zM960.1 581.8h1.6v1.6h-1.6zM960.1 578.9h1.6v1.6h-1.6zM960.2 576h1.6v1.6h-1.6zM960.2 573.1h1.6v1.6h-1.6zM960.1 570.1h1.6v1.6h-1.6zM960.1 567.2h1.6v1.6h-1.6zM960.1 564.3h1.6v1.6h-1.6zM960.1 561.4h1.6v1.6h-1.6zM960.1 558.5h1.6v1.6h-1.6zM963 587.6h1.6v1.6H963zM963 584.7h1.6v1.6H963zM963 581.8h1.6v1.6H963zM963 578.9h1.6v1.6H963zM963 575.9h1.6v1.6H963zM963 573h1.6v1.6H963zM963 570.1h1.6v1.6H963zM963 567.2h1.6v1.6H963zM963 564.3h1.6v1.6H963zM963 561.4h1.6v1.6H963zM963 558.5h1.6v1.6H963zM965.8 590.5h1.6v1.6h-1.6zM965.8 587.6h1.6v1.6h-1.6zM965.8 584.6h1.6v1.6h-1.6zM965.9 581.7h1.6v1.6h-1.6zM965.9 578.8h1.6v1.6h-1.6zM965.9 575.9h1.6v1.6h-1.6zM965.9 573h1.6v1.6h-1.6zM965.8 570.1h1.6v1.6h-1.6zM965.8 567.2h1.6v1.6h-1.6zM965.8 564.2h1.6v1.6h-1.6zM965.9 561.3h1.6v1.6h-1.6zM965.9 558.4h1.6v1.6h-1.6zM968.8 593.5h1.6v1.6h-1.6zM968.7 590.6h1.6v1.6h-1.6zM968.7 587.7h1.6v1.6h-1.6zM968.7 584.7h1.6v1.6h-1.6zM968.7 581.8h1.6v1.6h-1.6zM968.8 578.9h1.6v1.6h-1.6zM968.8 576h1.6v1.6h-1.6zM968.8 573.1h1.6v1.6h-1.6zM968.7 570.2h1.6v1.6h-1.6zM968.7 567.3h1.6v1.6h-1.6zM968.7 564.3h1.6v1.6h-1.6zM968.8 561.4h1.6v1.6h-1.6zM968.8 558.5h1.6v1.6h-1.6zM971.7 593.4h1.6v1.6h-1.6zM971.6 590.5h1.6v1.6h-1.6zM971.6 587.6h1.6v1.6h-1.6zM971.6 584.7h1.6v1.6h-1.6zM971.6 581.8h1.6v1.6h-1.6zM971.6 578.9h1.6v1.6h-1.6zM971.6 576h1.6v1.6h-1.6zM971.7 573h1.6v1.6h-1.6zM971.6 570.1h1.6v1.6h-1.6zM971.6 567.2h1.6v1.6h-1.6zM971.6 564.3h1.6v1.6h-1.6zM971.6 561.4h1.6v1.6h-1.6zM971.6 558.5h1.6v1.6h-1.6zM974.5 593.4h1.6v1.6h-1.6zM974.4 590.5h1.6v1.6h-1.6zM974.4 587.6h1.6v1.6h-1.6zM974.5 584.7h1.6v1.6h-1.6zM974.5 581.7h1.6v1.6h-1.6zM974.5 578.8h1.6v1.6h-1.6zM974.5 575.9h1.6v1.6h-1.6zM974.5 573h1.6v1.6h-1.6zM974.4 570.1h1.6v1.6h-1.6zM974.4 567.2h1.6v1.6h-1.6zM974.5 564.3h1.6v1.6h-1.6zM974.5 561.3h1.6v1.6h-1.6zM974.5 558.4h1.6v1.6h-1.6zM977.4 593.5h1.6v1.6h-1.6zM977.3 590.6h1.6v1.6h-1.6zM977.3 587.6h1.6v1.6h-1.6zM977.3 584.7h1.6v1.6h-1.6zM977.3 581.8h1.6v1.6h-1.6zM977.4 578.9h1.6v1.6h-1.6zM977.4 576h1.6v1.6h-1.6zM977.4 573.1h1.6v1.6h-1.6zM977.3 570.2h1.6v1.6h-1.6zM977.3 567.2h1.6v1.6h-1.6zM977.3 564.3h1.6v1.6h-1.6zM977.3 561.4h1.6v1.6h-1.6zM977.4 558.5h1.6v1.6h-1.6zM980.2 593.4h1.6v1.6h-1.6zM980.2 590.5h1.6v1.6h-1.6zM980.2 587.6h1.6v1.6h-1.6zM980.2 584.7h1.6v1.6h-1.6zM980.2 581.8h1.6v1.6h-1.6zM980.2 578.9h1.6v1.6h-1.6zM980.2 575.9h1.6v1.6h-1.6zM980.2 573h1.6v1.6h-1.6zM980.2 570.1h1.6v1.6h-1.6zM980.2 567.2h1.6v1.6h-1.6zM980.2 564.3h1.6v1.6h-1.6zM980.2 561.4h1.6v1.6h-1.6zM980.2 558.5h1.6v1.6h-1.6zM983.1 593.4h1.6v1.6h-1.6zM983 590.5h1.6v1.6H983zM983 587.6h1.6v1.6H983zM983 584.7h1.6v1.6H983zM983.1 581.7h1.6v1.6h-1.6zM983.1 578.8h1.6v1.6h-1.6zM983.1 575.9h1.6v1.6h-1.6zM983.1 573h1.6v1.6h-1.6zM983 570.1h1.6v1.6H983zM983 567.2h1.6v1.6H983zM983.1 564.3h1.6v1.6h-1.6zM983.1 561.3h1.6v1.6h-1.6zM983.1 558.4h1.6v1.6h-1.6zM986 593.5h1.6v1.6H986zM985.9 590.5h1.6v1.6h-1.6zM985.9 587.6h1.6v1.6h-1.6zM985.9 584.7h1.6v1.6h-1.6zM985.9 581.8h1.6v1.6h-1.6zM985.9 578.9h1.6v1.6h-1.6zM986 576h1.6v1.6H986zM986 573.1h1.6v1.6H986zM985.9 570.1h1.6v1.6h-1.6zM985.9 567.2h1.6v1.6h-1.6zM985.9 564.3h1.6v1.6h-1.6zM985.9 561.4h1.6v1.6h-1.6zM985.9 558.5h1.6v1.6h-1.6zM988.8 593.4h1.6v1.6h-1.6zM988.7 590.5h1.6v1.6h-1.6zM988.8 587.6h1.6v1.6h-1.6zM988.8 584.7h1.6v1.6h-1.6zM988.8 581.8h1.6v1.6h-1.6zM988.8 578.8h1.6v1.6h-1.6zM988.8 575.9h1.6v1.6h-1.6zM988.8 573h1.6v1.6h-1.6zM988.7 570.1h1.6v1.6h-1.6zM988.8 567.2h1.6v1.6h-1.6zM988.8 564.3h1.6v1.6h-1.6zM988.8 561.4h1.6v1.6h-1.6zM988.8 558.4h1.6v1.6h-1.6zM991.7 593.4h1.6v1.6h-1.6zM991.6 590.5h1.6v1.6h-1.6zM991.6 587.6h1.6v1.6h-1.6zM991.6 584.6h1.6v1.6h-1.6zM991.7 581.7h1.6v1.6h-1.6zM991.7 578.8h1.6v1.6h-1.6zM991.7 575.9h1.6v1.6h-1.6zM991.7 573h1.6v1.6h-1.6zM991.6 570.1h1.6v1.6h-1.6zM991.6 567.2h1.6v1.6h-1.6zM991.6 564.2h1.6v1.6h-1.6zM991.7 561.3h1.6v1.6h-1.6zM991.7 558.4h1.6v1.6h-1.6zM994.6 593.4h1.6v1.6h-1.6zM994.5 590.5h1.6v1.6h-1.6zM994.5 587.6h1.6v1.6h-1.6zM994.5 584.7h1.6v1.6h-1.6zM994.5 581.8h1.6v1.6h-1.6zM994.5 578.9h1.6v1.6h-1.6zM994.5 576h1.6v1.6h-1.6zM994.6 573h1.6v1.6h-1.6zM994.5 570.1h1.6v1.6h-1.6zM994.5 567.2h1.6v1.6h-1.6zM994.5 564.3h1.6v1.6h-1.6zM994.5 561.4h1.6v1.6h-1.6zM994.5 558.5h1.6v1.6h-1.6zM997.4 593.4h1.6v1.6h-1.6zM997.3 590.5h1.6v1.6h-1.6zM997.3 587.6h1.6v1.6h-1.6zM997.4 584.7h1.6v1.6h-1.6zM997.4 581.8h1.6v1.6h-1.6zM997.4 578.8h1.6v1.6h-1.6zM997.4 575.9h1.6v1.6h-1.6zM997.4 573h1.6v1.6h-1.6zM997.3 570.1h1.6v1.6h-1.6zM997.4 567.2h1.6v1.6h-1.6zM997.4 564.3h1.6v1.6h-1.6zM997.4 561.4h1.6v1.6h-1.6zM997.4 558.4h1.6v1.6h-1.6zM1000.3 593.5h1.6v1.6h-1.6zM1000.2 590.6h1.6v1.6h-1.6zM1000.2 587.6h1.6v1.6h-1.6zM1000.2 584.7h1.6v1.6h-1.6zM1000.2 581.8h1.6v1.6h-1.6zM1000.3 578.9h1.6v1.6h-1.6zM1000.3 576h1.6v1.6h-1.6zM1000.3 573.1h1.6v1.6h-1.6zM1000.2 570.2h1.6v1.6h-1.6zM1000.2 567.2h1.6v1.6h-1.6zM1000.2 564.3h1.6v1.6h-1.6zM1000.2 561.4h1.6v1.6h-1.6zM1000.3 558.5h1.6v1.6h-1.6zM1003.1 590.5h1.6v1.6h-1.6zM1003.1 587.6h1.6v1.6h-1.6zM1003.1 584.7h1.6v1.6h-1.6zM1003.1 581.8h1.6v1.6h-1.6zM1003.1 578.9h1.6v1.6h-1.6zM1003.1 575.9h1.6v1.6h-1.6zM1003.1 573h1.6v1.6h-1.6zM1003.1 570.1h1.6v1.6h-1.6zM1003.1 567.2h1.6v1.6h-1.6zM1003.1 564.3h1.6v1.6h-1.6zM1003.1 561.4h1.6v1.6h-1.6zM1003.1 558.5h1.6v1.6h-1.6zM1006 590.5h1.6v1.6h-1.6zM1006 587.6h1.6v1.6h-1.6zM1006 584.7h1.6v1.6h-1.6zM1006 581.8h1.6v1.6h-1.6zM1006 578.9h1.6v1.6h-1.6zM1006 575.9h1.6v1.6h-1.6zM1006 573h1.6v1.6h-1.6zM1006 570.1h1.6v1.6h-1.6zM1006 567.2h1.6v1.6h-1.6zM1006 564.3h1.6v1.6h-1.6zM1006 561.4h1.6v1.6h-1.6zM1006 558.5h1.6v1.6h-1.6zM1008.8 587.6h1.6v1.6h-1.6zM1008.8 584.6h1.6v1.6h-1.6zM1008.9 581.7h1.6v1.6h-1.6zM1008.9 578.8h1.6v1.6h-1.6zM1008.9 575.9h1.6v1.6h-1.6zM1008.9 573h1.6v1.6h-1.6zM1008.8 570.1h1.6v1.6h-1.6zM1008.8 567.2h1.6v1.6h-1.6zM1008.8 564.2h1.6v1.6h-1.6zM1008.9 561.3h1.6v1.6h-1.6zM1008.9 558.4h1.6v1.6h-1.6zM1011.7 587.6h1.6v1.6h-1.6zM1011.7 584.7h1.6v1.6h-1.6zM1011.7 581.8h1.6v1.6h-1.6zM1011.7 578.9h1.6v1.6h-1.6zM1011.8 576h1.6v1.6h-1.6zM1011.8 573.1h1.6v1.6h-1.6zM1011.7 570.1h1.6v1.6h-1.6zM1011.7 567.2h1.6v1.6h-1.6zM1011.7 564.3h1.6v1.6h-1.6zM1011.7 561.4h1.6v1.6h-1.6zM1011.7 558.5h1.6v1.6h-1.6zM1014.6 584.7h1.6v1.6h-1.6zM1014.6 581.8h1.6v1.6h-1.6zM1014.6 578.8h1.6v1.6h-1.6zM1014.6 575.9h1.6v1.6h-1.6zM1014.6 573h1.6v1.6h-1.6zM1014.5 570.1h1.6v1.6h-1.6zM1014.6 567.2h1.6v1.6h-1.6zM1014.6 564.3h1.6v1.6h-1.6zM1014.6 561.4h1.6v1.6h-1.6zM1014.6 558.4h1.6v1.6h-1.6zM1017.4 581.8h1.6v1.6h-1.6zM1017.5 578.9h1.6v1.6h-1.6zM1017.5 576h1.6v1.6h-1.6zM1017.5 573.1h1.6v1.6h-1.6zM1017.4 570.2h1.6v1.6h-1.6zM1017.4 567.2h1.6v1.6h-1.6zM1017.4 564.3h1.6v1.6h-1.6zM1017.4 561.4h1.6v1.6h-1.6zM1017.5 558.5h1.6v1.6h-1.6zM1020.3 578.9h1.6v1.6h-1.6zM1020.3 576h1.6v1.6h-1.6zM1020.4 573h1.6v1.6h-1.6zM1020.3 570.1h1.6v1.6h-1.6zM1020.3 567.2h1.6v1.6h-1.6zM1020.3 564.3h1.6v1.6h-1.6zM1020.3 561.4h1.6v1.6h-1.6zM1020.3 558.5h1.6v1.6h-1.6zM1023.2 575.9h1.6v1.6h-1.6zM1023.2 573h1.6v1.6h-1.6zM1023.1 570.1h1.6v1.6h-1.6zM1023.1 567.2h1.6v1.6h-1.6zM1023.2 564.3h1.6v1.6h-1.6zM1023.2 561.3h1.6v1.6h-1.6zM1023.2 558.4h1.6v1.6h-1.6zM1026 570.2h1.6v1.6h-1.6zM1026 567.2h1.6v1.6h-1.6zM1026 564.3h1.6v1.6h-1.6zM1026 561.4h1.6v1.6h-1.6zM1026.1 558.5h1.6v1.6h-1.6zM1028.9 558.5h1.6v1.6h-1.6z"/>
    </g>
    <path d="M987.5 512.5c22.9 0 41.5 18.6 41.5 41.5s-18.6 41.5-41.5 41.5S946 576.9 946 554c-.1-22.9 18.6-41.5 41.5-41.5m0-7.7c-27.2 0-49.3 22.1-49.3 49.3s22.1 49.3 49.3 49.3 49.3-22.1 49.3-49.3c-.1-27.2-22.1-49.3-49.3-49.3z"/>
    <circle cx="987.5" cy="554.1" r="19"/>
</svg>
