<svg version="1.1" id="svg42" xmlns="http://www.w3.org/2000/svg" xmlns:xlink="http://www.w3.org/1999/xlink" x="0" y="0" viewBox="0 0 265.1 522.5" style="enable-background:new 0 0 265.1 522.5" xml:space="preserve">
    <style>
        .st0{fill:#19191c}.st1{fill:#0f0f11}.st3{fill:#ffd0b0}.st4{fill:#eed47b}.st5{fill:#975734}.st6{fill:#4c342f}
    </style>
    <path class="st0" d="M0 519.1V3.4C0 1.5 1.5 0 3.4 0h258.3c1.9 0 3.4 1.5 3.4 3.4v515.7c0 1.9-1.5 3.4-3.4 3.4H3.4c-1.9-.1-3.4-1.6-3.4-3.4z"/>
    <path class="st1" d="M191.8 103.6c0 29.2-23.6 52.8-52.8 52.8s-52.8-23.6-52.8-52.8 23.6-52.8 52.8-52.8c29.1 0 52.8 23.6 52.8 52.8m17.3 0c0-38.7-31.5-70.2-70.2-70.2s-70.2 31.5-70.2 70.2 31.5 70.2 70.2 70.2c38.7-.1 70.2-31.5 70.2-70.2z"/>
    <g style="opacity:.75">
        <defs>
            <circle id="SVGID_1_" transform="rotate(-84.806 138.903 103.614)" cx="138.9" cy="103.6" r="47.9"/>
        </defs>
        <clipPath id="SVGID_00000032607098242576542050000010096291797811438256_">
            <use xlink:href="#SVGID_1_" style="overflow:visible"/>
        </clipPath>
    </g>
    <path d="M236.5 517V209.8c0-12-10.3-21.8-23.1-21.8H51.6c-12.7 0-23.1 9.8-23.1 21.8v312.7H236.5V517z"/>
    <path class="st0" d="M166.5 509.8h64.2v10.7h-64.2zM100.4 509.8h64.2v10.7h-64.2zM34.3 509.8h64.2v10.7H34.3zM34.3 209.7v298.5h196.4V209.7c0-9.2-7.5-16.7-16.7-16.7H51c-9.2 0-16.7 7.5-16.7 16.7z"/>
    <path class="st3" d="M179.4 248.6v-37c0-2.4 2-4.4 4.4-4.4h26.5c2.4 0 4.4 2 4.4 4.4v37c0 2.4-2 4.4-4.4 4.4h-26.5c-2.4-.2-4.4-2-4.4-4.4z"/>
    <path class="st4" d="M184.6 242.7v-25.3c0-1.5 1.2-2.7 2.7-2.7H207c1.5 0 2.7 1.2 2.7 2.7v25.3c0 1.5-1.2 2.7-2.7 2.7h-19.7c-1.6 0-2.7-1.2-2.7-2.7z"/>
    <path class="st3" d="M179.4 296.7v-37c0-2.4 2-4.4 4.4-4.4h26.5c2.4 0 4.4 2 4.4 4.4v37c0 2.4-2 4.4-4.4 4.4h-26.5c-2.4 0-4.4-2-4.4-4.4z"/>
    <path class="st4" d="M184.6 291v-25.4c0-1.5 1.2-2.7 2.7-2.7H207c1.5 0 2.7 1.2 2.7 2.7v25.3c0 1.5-1.2 2.7-2.7 2.7h-19.7c-1.6 0-2.7-1.3-2.7-2.6z"/>
    <path class="st3" d="M179.4 344.9v-37c0-2.4 2-4.4 4.4-4.4h26.5c2.4 0 4.4 2 4.4 4.4v37c0 2.4-2 4.4-4.4 4.4h-26.5c-2.4.1-4.4-1.9-4.4-4.4z"/>
    <path class="st4" d="M184.6 339.1v-25.3c0-1.5 1.2-2.7 2.7-2.7H207c1.5 0 2.7 1.2 2.7 2.7v25.3c0 1.5-1.2 2.7-2.7 2.7h-19.7c-1.6 0-2.7-1.2-2.7-2.7z"/>
    <path class="st3" d="M179.4 393.1v-37c0-2.4 2-4.4 4.4-4.4h26.5c2.4 0 4.4 2 4.4 4.4v37c0 2.4-2 4.4-4.4 4.4h-26.5c-2.4.1-4.4-1.9-4.4-4.4z"/>
    <path class="st4" d="M184.6 387.4v-25.3c0-1.5 1.2-2.7 2.7-2.7H207c1.5 0 2.7 1.2 2.7 2.7v25.3c0 1.5-1.2 2.7-2.7 2.7h-19.7c-1.6 0-2.7-1.3-2.7-2.7z"/>
    <path class="st3" d="M179.4 441.4v-37c0-2.4 2-4.4 4.4-4.4h26.5c2.4 0 4.4 2 4.4 4.4v37c0 2.4-2 4.4-4.4 4.4h-26.5c-2.4-.1-4.4-2-4.4-4.4z"/>
    <path class="st4" d="M184.6 435.6v-25.3c0-1.5 1.2-2.7 2.7-2.7H207c1.5 0 2.7 1.2 2.7 2.7v25.3c0 1.5-1.2 2.7-2.7 2.7h-19.7c-1.6-.1-2.7-1.2-2.7-2.7z"/>
    <path class="st3" d="M179.4 489.6v-37c0-2.4 2-4.4 4.4-4.4h26.5c2.4 0 4.4 2 4.4 4.4v37c0 2.4-2 4.4-4.4 4.4h-26.5c-2.4.1-4.4-1.9-4.4-4.4z"/>
    <path class="st4" d="M184.6 483.8v-25.2c0-1.5 1.2-2.7 2.7-2.7H207c1.5 0 2.7 1.2 2.7 2.7v25.3c0 1.5-1.2 2.7-2.7 2.7h-19.7c-1.6-.2-2.7-1.4-2.7-2.8z"/>
    <path class="st3" d="M136.4 248.6v-37c0-2.4 2-4.4 4.4-4.4h26.5c2.4 0 4.4 2 4.4 4.4v37c0 2.4-2 4.4-4.4 4.4h-26.5c-2.4-.2-4.4-2-4.4-4.4z"/>
    <path class="st4" d="M141.5 242.7v-25.3c0-1.5 1.2-2.7 2.7-2.7h19.7c1.5 0 2.7 1.2 2.7 2.7v25.3c0 1.5-1.2 2.7-2.7 2.7h-19.7c-1.6 0-2.7-1.2-2.7-2.7z"/>
    <path class="st3" d="M136.4 296.7v-37c0-2.4 2-4.4 4.4-4.4h26.5c2.4 0 4.4 2 4.4 4.4v37c0 2.4-2 4.4-4.4 4.4h-26.5c-2.4 0-4.4-2-4.4-4.4z"/>
    <path class="st5" d="M141.5 291v-25.4c0-1.5 1.2-2.7 2.7-2.7h19.7c1.5 0 2.7 1.2 2.7 2.7v25.3c0 1.5-1.2 2.7-2.7 2.7h-19.7c-1.6 0-2.7-1.3-2.7-2.6z"/>
    <path class="st3" d="M136.4 344.9v-37c0-2.4 2-4.4 4.4-4.4h26.5c2.4 0 4.4 2 4.4 4.4v37c0 2.4-2 4.4-4.4 4.4h-26.5c-2.4.1-4.4-1.9-4.4-4.4z"/>
    <path class="st5" d="M141.5 339.1v-25.3c0-1.5 1.2-2.7 2.7-2.7h19.7c1.5 0 2.7 1.2 2.7 2.7v25.3c0 1.5-1.2 2.7-2.7 2.7h-19.7c-1.6 0-2.7-1.2-2.7-2.7z"/>
    <path class="st3" d="M136.4 393.1v-37c0-2.4 2-4.4 4.4-4.4h26.5c2.4 0 4.4 2 4.4 4.4v37c0 2.4-2 4.4-4.4 4.4h-26.5c-2.4.1-4.4-1.9-4.4-4.4z"/>
    <path class="st5" d="M141.5 387.4v-25.3c0-1.5 1.2-2.7 2.7-2.7h19.7c1.5 0 2.7 1.2 2.7 2.7v25.3c0 1.5-1.2 2.7-2.7 2.7h-19.7c-1.6 0-2.7-1.3-2.7-2.7z"/>
    <path class="st3" d="M136.4 441.4v-37c0-2.4 2-4.4 4.4-4.4h26.5c2.4 0 4.4 2 4.4 4.4v37c0 2.4-2 4.4-4.4 4.4h-26.5c-2.4-.1-4.4-2-4.4-4.4z"/>
    <path class="st5" d="M141.5 435.6v-25.3c0-1.5 1.2-2.7 2.7-2.7h19.7c1.5 0 2.7 1.2 2.7 2.7v25.3c0 1.5-1.2 2.7-2.7 2.7h-19.7c-1.6-.1-2.7-1.2-2.7-2.7z"/>
    <path class="st3" d="M136.4 489.6v-37c0-2.4 2-4.4 4.4-4.4h26.5c2.4 0 4.4 2 4.4 4.4v37c0 2.4-2 4.4-4.4 4.4h-26.5c-2.4.1-4.4-1.9-4.4-4.4z"/>
    <path class="st5" d="M141.5 483.8v-25.2c0-1.5 1.2-2.7 2.7-2.7h19.7c1.5 0 2.7 1.2 2.7 2.7v25.3c0 1.5-1.2 2.7-2.7 2.7h-19.7c-1.6-.2-2.7-1.4-2.7-2.8z"/>
    <path class="st3" d="M93.4 248.6v-37c0-2.4 2-4.4 4.4-4.4h26.4c2.4 0 4.4 2 4.4 4.4v37c0 2.4-2 4.4-4.4 4.4H97.7c-2.5-.2-4.3-2-4.3-4.4z"/>
    <path class="st4" d="M98.4 242.7v-25.3c0-1.5 1.2-2.7 2.7-2.7h19.7c1.5 0 2.7 1.2 2.7 2.7v25.3c0 1.5-1.2 2.7-2.7 2.7h-19.7c-1.6 0-2.7-1.2-2.7-2.7z"/>
    <path class="st3" d="M93.4 296.7v-37c0-2.4 2-4.4 4.4-4.4h26.4c2.4 0 4.4 2 4.4 4.4v37c0 2.4-2 4.4-4.4 4.4H97.7c-2.5 0-4.3-2-4.3-4.4z"/>
    <path class="st5" d="M98.4 291v-25.4c0-1.5 1.2-2.7 2.7-2.7h19.7c1.5 0 2.7 1.2 2.7 2.7v25.3c0 1.5-1.2 2.7-2.7 2.7h-19.7c-1.6 0-2.7-1.3-2.7-2.6z"/>
    <path class="st3" d="M93.4 344.9v-37c0-2.4 2-4.4 4.4-4.4h26.4c2.4 0 4.4 2 4.4 4.4v37c0 2.4-2 4.4-4.4 4.4H97.7c-2.5.1-4.3-1.9-4.3-4.4z"/>
    <path class="st5" d="M98.4 339.1v-25.3c0-1.5 1.2-2.7 2.7-2.7h19.7c1.5 0 2.7 1.2 2.7 2.7v25.3c0 1.5-1.2 2.7-2.7 2.7h-19.7c-1.6 0-2.7-1.2-2.7-2.7z"/>
    <path class="st3" d="M93.4 393.1v-37c0-2.4 2-4.4 4.4-4.4h26.4c2.4 0 4.4 2 4.4 4.4v37c0 2.4-2 4.4-4.4 4.4H97.7c-2.5.1-4.3-1.9-4.3-4.4z"/>
    <path class="st5" d="M98.4 387.4v-25.3c0-1.5 1.2-2.7 2.7-2.7h19.7c1.5 0 2.7 1.2 2.7 2.7v25.3c0 1.5-1.2 2.7-2.7 2.7h-19.7c-1.6 0-2.7-1.3-2.7-2.7z"/>
    <path class="st3" d="M93.4 441.4v-37c0-2.4 2-4.4 4.4-4.4h26.4c2.4 0 4.4 2 4.4 4.4v37c0 2.4-2 4.4-4.4 4.4H97.7c-2.5-.1-4.3-2-4.3-4.4z"/>
    <path class="st5" d="M98.4 435.6v-25.3c0-1.5 1.2-2.7 2.7-2.7h19.7c1.5 0 2.7 1.2 2.7 2.7v25.3c0 1.5-1.2 2.7-2.7 2.7h-19.7c-1.6-.1-2.7-1.2-2.7-2.7z"/>
    <path class="st3" d="M93.4 489.6v-37c0-2.4 2-4.4 4.4-4.4h26.4c2.4 0 4.4 2 4.4 4.4v37c0 2.4-2 4.4-4.4 4.4H97.7c-2.5.1-4.3-1.9-4.3-4.4z"/>
    <path class="st5" d="M98.4 483.8v-25.2c0-1.5 1.2-2.7 2.7-2.7h19.7c1.5 0 2.7 1.2 2.7 2.7v25.3c0 1.5-1.2 2.7-2.7 2.7h-19.7c-1.6-.2-2.7-1.4-2.7-2.8z"/>
    <path class="st3" d="M50.2 248.6v-37c0-2.4 2-4.4 4.4-4.4h26.5c2.4 0 4.4 2 4.4 4.4v37c0 2.4-2 4.4-4.4 4.4H54.6c-2.5-.2-4.4-2-4.4-4.4z"/>
    <path class="st4" d="M55.2 242.7v-25.3c0-1.5 1.2-2.7 2.7-2.7h19.7c1.5 0 2.7 1.2 2.7 2.7v25.3c0 1.5-1.2 2.7-2.7 2.7H57.9c-1.4 0-2.7-1.2-2.7-2.7z"/>
    <path class="st3" d="M50.2 296.7v-37c0-2.4 2-4.4 4.4-4.4h26.5c2.4 0 4.4 2 4.4 4.4v37c0 2.4-2 4.4-4.4 4.4H54.6c-2.5 0-4.4-2-4.4-4.4z"/>
    <path class="st5" d="M55.2 291v-25.4c0-1.5 1.2-2.7 2.7-2.7h19.7c1.5 0 2.7 1.2 2.7 2.7v25.3c0 1.5-1.2 2.7-2.7 2.7H57.9c-1.4 0-2.7-1.3-2.7-2.6z"/>
    <path class="st3" d="M50.2 344.9v-37c0-2.4 2-4.4 4.4-4.4h26.5c2.4 0 4.4 2 4.4 4.4v37c0 2.4-2 4.4-4.4 4.4H54.6c-2.5.1-4.4-1.9-4.4-4.4z"/>
    <path class="st5" d="M55.2 339.1v-25.3c0-1.5 1.2-2.7 2.7-2.7h19.7c1.5 0 2.7 1.2 2.7 2.7v25.3c0 1.5-1.2 2.7-2.7 2.7H57.9c-1.4 0-2.7-1.2-2.7-2.7z"/>
    <path class="st3" d="M50.2 393.1v-37c0-2.4 2-4.4 4.4-4.4h26.5c2.4 0 4.4 2 4.4 4.4v37c0 2.4-2 4.4-4.4 4.4H54.6c-2.5.1-4.4-1.9-4.4-4.4z"/>
    <path class="st5" d="M55.2 387.4v-25.3c0-1.5 1.2-2.7 2.7-2.7h19.7c1.5 0 2.7 1.2 2.7 2.7v25.3c0 1.5-1.2 2.7-2.7 2.7H57.9c-1.4 0-2.7-1.3-2.7-2.7z"/>
    <path class="st3" d="M50.2 441.4v-37c0-2.4 2-4.4 4.4-4.4h26.5c2.4 0 4.4 2 4.4 4.4v37c0 2.4-2 4.4-4.4 4.4H54.6c-2.5-.1-4.4-2-4.4-4.4z"/>
    <path class="st5" d="M55.2 435.6v-25.3c0-1.5 1.2-2.7 2.7-2.7h19.7c1.5 0 2.7 1.2 2.7 2.7v25.3c0 1.5-1.2 2.7-2.7 2.7H57.9c-1.4-.1-2.7-1.2-2.7-2.7z"/>
    <path class="st3" d="M50.2 489.6v-37c0-2.4 2-4.4 4.4-4.4h26.5c2.4 0 4.4 2 4.4 4.4v37c0 2.4-2 4.4-4.4 4.4H54.6c-2.5.1-4.4-1.9-4.4-4.4z"/>
    <path class="st5" d="M55.2 483.8v-25.2c0-1.5 1.2-2.7 2.7-2.7h19.7c1.5 0 2.7 1.2 2.7 2.7v25.3c0 1.5-1.2 2.7-2.7 2.7H57.9c-1.4-.2-2.7-1.4-2.7-2.8zM201.4 229.3h-12.8v-3.9h9.5v-1l-3.2-3.8 2.5-2.2 4 4.7v6.2zM196.6 266.1h.6c3.9 0 4.4.8 4.4 7.3 0 5.3-.1 6-.6 6.8-.6.9-1.4 1.1-3.4 1.1-1.5 0-2.3-.2-2.9-.6-.8-.6-1.3-1.8-1.4-3.9-.3-5.4-.4-6.1-.5-6.4-.2-.5-.4-.6-1.1-.6h-.1v11.8h-2.9v-15.3c.6-.1.8-.1 1.5-.1 2.1 0 3.1.1 3.7.3 1.2.4 1.7 1.2 1.9 3.2 0 .2.2 2 .4 5.5.2 2.3.3 2.4 1.3 2.4.8 0 1-.1 1.2-.6.1-.3.1-.9.1-2.9 0-2.5-.1-3.5-.2-3.9-.1-.3-.5-.4-1.4-.4h-.4v-3.7h-.2zM197.1 314.6h.8c3.4 0 3.9 1.1 3.9 8.2 0 3.7-.2 5-.7 5.8-.6.8-1.4 1.1-2.9 1.1-1.8 0-2.4-.5-2.8-2.1-.4 2-.9 2.3-3.1 2.3-1.9 0-2.7-.5-3.2-1.9-.3-1-.5-3-.5-7.2 0-3.3.2-4.6 1-5.4.6-.7 1.4-.8 3.8-.8v3.7h-.2c-1 0-1.3.1-1.4.7 0 .2-.1 1.9-.1 3.2 0 .7.1 2.6.1 2.9.1.8.3 1.1 1.1 1.1.6 0 .9-.2 1-.6.1-.3.1-.4.1-2.8v-2.2h2.8v3c0 1.9.2 2.4 1.1 2.4 1 0 1.1-.3 1.1-3.6 0-4 0-4-1.4-4h-.3v-3.8h-.2zM190.9 379.8v-2.5h-2.4v-3.7h2.4v-10.2h4.9l5.5 7.6v6.3h-7.6v2.5h-2.8zm7.5-6.3v-.8l-4.1-5.9h-.5v6.7h4.6zM201.5 426h-2.8v-9.3c0-.8 0-1.3.1-1.6h-2.4c.5.5.6.8.7 1.3.2.6.3 2.1.3 3.8 0 5.4-.7 6.5-4.2 6.5-2.5 0-3.7-.5-4.2-1.8-.4-1-.5-2-.5-5 0-3.9.1-5.2.4-6.5.3-1.5 1.2-2.1 3.3-2.1h.5v3.7c-.5 0-.8.1-.9.2-.3.3-.4 1.2-.4 3.6 0 2.8 0 3.2.2 3.6s.6.5 1.6.5 1.3-.2 1.4-.8c.1-.6.2-2.4.2-4.1 0-2.3-.2-2.8-.8-2.8h-.2v-3.4h7.8V426h-.1zM197.9 471.4c.3 0 .5-.1.6-.2.2-.2.2-.3.2-1.5 0-.8.1-1.6.1-2.2 0-1.9-.1-2.9-.3-3.3-.2-.4-.7-.5-1.9-.5h-.7c.9 1 1.1 1.8 1.1 5.2 0 5-.7 6.1-4.2 6.1-2.3 0-3.3-.5-3.8-1.8-.3-.8-.4-2.4-.4-6.3 0-3.7.2-5 1-5.9s1.7-1 6-1c2.1 0 2.8 0 3.6.2 2 .5 2.5 1.9 2.5 7.7 0 4.4-.2 5.8-1 6.6-.5.5-1.1.6-2.7.6v-3.7h-.1zm-4-7.1c-.2-.4-.6-.6-1.2-.6-.8 0-1.1.2-1.2.8-.1.3-.1 1.1-.1 2.4 0 1.2.1 2.9.1 3.3.1.7.4.9 1.2.9 1.3 0 1.4-.2 1.4-4.2 0-1.8 0-2.3-.2-2.6z"/>
    <path class="st6" d="m147.4 286.4.9-1.3c-.8-1.1-1-2.2-1-7.8 0-5.2.2-6.4.9-7.4.8-1 2-1.3 5.7-1.3s5 .3 5.7 1.3c.8 1 .9 2.2.9 7.5s-.1 6.6-.9 7.5c-.8 1-2 1.3-5.8 1.3-1.2 0-2.3 0-2.9-.1l-.8 1.7-2.7-1.4zm5.8-4h.4c1.9 0 2.6-.1 3.1-.5s.6-.9.6-4.4c0-3.8-.1-4.2-.8-4.6-.4-.2-1.2-.3-2.8-.3s-2.1.1-2.5.6-.5 1.1-.5 4.5c0 1.9 0 2.6.1 3.3l2.2-4.1 2.7 1.6-2.5 3.9zM160.4 317l-9.6 3.4v.7l9.6 2.9v4.7l-9.6 2.9v.7l9.6 3.5v4.1l-12.8-5v-6l9.4-2.6-9.4-2.5v-6.1l12.8-4.8v4.1zM160.4 381.8h-3v-10.4h-1.9v9.8h-2.8v-9.8h-2v10.4h-3.1v-14.2h12.8v14.2zM160.4 414.9v9.4c0 4.4 0 4.4-.5 5.3-.6 1-1.4 1.3-3.7 1.3-1.9 0-2.6-.2-3.2-.9-.3-.4-.4-.7-.5-1.5-.2 2-.8 2.3-3.8 2.3h-1.2V427h.7c1.4 0 1.9-.1 2.2-.4s.3-.6.3-2.2v-5.5h-3.3V415l13-.1zm-6.4 9.4c0 2 0 2 .2 2.2.2.3.6.4 1.4.4.9 0 1.2-.2 1.4-.6.1-.3.1-.3.1-2.1v-5.5h-3.2l.1 5.6zM160.4 479h-3.3v-5.7h-9.6v-4.1h9.6v-5.7h3.3V479zM106.7 282.6v-8.5l-2.2-1.1v-4.5l12.8 6.8v6.1l-12.8 6.7v-4.5l2.2-1zm7.6-3.9v-.8l-4.9-2.5v5.7l4.9-2.4zM108.7 322.4c-.8 0-1 .1-1.2.4-.2.4-.3.8-.3 3.5 0 4.2 0 4.2 1.1 4.2.8 0 1-.3 1-1.5l.1-3.1.1-2.1v-1c.1-3.2.9-4.1 3.7-4.1 2.4 0 3.5.7 3.9 2.5.2.8.2 2.5.2 5.6 0 3.7-.2 5.1-.8 6-.5.8-1.3 1.1-2.8 1.1h-.6v-3.8c.7 0 .9-.1 1.1-.4.2-.3.2-.8.2-3.6 0-3.3-.1-3.6-1-3.6-.5 0-.7.2-.8.6-.1.3-.2 1.4-.2 4.1-.1 4.2-.2 5.1-.8 5.9-.6.9-1.4 1.2-3.2 1.2-2.2 0-3.3-.5-3.8-1.9-.3-.8-.4-2.4-.4-6.2 0-4 .2-5.5.8-6.4s1.3-1.2 3.1-1.2h.6v3.8zM117.3 366.2v9.3c0 3.3 0 3.7-.3 4.8-.3 1.3-1 2.1-2.2 2.5-.9.3-1.7.4-3.8.4-3.3 0-4.7-.3-5.5-1.2-.9-1-1.1-2.1-1.1-6.4v-9.3l12.9-.1zm-9.5 9.3c0 3.5.2 3.8 3.1 3.8 1.6 0 2.3-.1 2.7-.5.5-.4.5-.9.5-3.3v-5.4h-6.3v5.4zM117.3 429.7h-3V420h-2.4v9.2H109V420h-4.4v-3.9h12.8l-.1 13.6zM111.8 479.7h-.3c-1.3 0-3.5-.1-4.1-.1-1.5-.2-2.4-1-2.7-2.5-.3-1.3-.3-2.7-.3-6.1 0-4.4.2-5.8.9-6.8.8-1.1 1.7-1.3 5.9-1.3 6 0 6.4.6 6.4 8.9 0 4.8-.3 6.5-1.3 7.4-.6.5-1.4.7-3.3.7V476c.8 0 .9-.1 1.1-.3.3-.4.3-1.3.3-4.2 0-4.6 0-4.6-3.3-4.6-2.2 0-2.8.1-3.2.5-.3.3-.3.7-.4 1.8v2.3c0 4.6 0 4.7 1.5 4.7h.4v-5.1h2.6v8.6h-.2zM74.2 285.9h-2.9l-6.8-9.4.1 9.7h-3.2v-15.9h3l6.8 9.3-.1-9.1h3.2l-.1 15.4zM74.2 322.6l-4.5 3.9 4.5 4v5.4l-6.3-6.2-6.5 6.5v-5.5l4.6-4.2-4.6-4.2v-5.6l6.5 6.6 6.3-6.1v5.4zM66.3 382.9h-1.2c-2.1 0-3-.5-3.5-2-.3-1-.4-2.4-.4-5.3 0-5 .2-6.6.8-7.7.5-.8 1.2-1.2 2.5-1.4.6-.1 1.6-.1 3.3-.1 2.9 0 3.9.1 4.6.4 1.7.7 2.1 2.1 2.1 8.8 0 3.4-.1 4.6-.6 5.5-.6 1.1-1.5 1.5-3.6 1.5h-.6v-3.9c.8 0 1-.1 1.2-.3.3-.3.4-1.4.4-3.9 0-2.4-.1-3.2-.4-3.5-.4-.5-1.1-.6-3.1-.6-3.3 0-3.3.1-3.3 4.2 0 4.3 0 4.3 1.9 4.4v3.9h-.1zM74.2 417.9l-9.6 4.7v.8l9.6 4.6v4.3L61.4 426v-6l12.8-6.3v4.2zM74.2 463.1v9.2c0 3 0 3-.1 3.6-.2 2.1-1 2.8-3.3 2.8-1.8 0-2.6-.4-2.9-1.7-.3 1.7-1 2.2-3.1 2.2-1.8 0-2.8-.5-3.2-1.6-.2-.7-.3-.9-.3-5.3v-9.2h12.9zm-5 9.3c0 1.4 0 1.9.2 2.2.1.3.4.4.9.4s.8-.2.9-.6c0-.2 0-.3.1-2v-5.5h-2v5.5h-.1zm-4.7 0c0 2.3 0 2.3.2 2.6.1.3.4.5 1 .5s.9-.2 1-.6c0-.2 0-.2.1-2.5v-5.5h-2.1v5.5h-.2z"/>
    <path d="M203.1 241.4h-2v-2.2h2v2.2zm4.4-.1h-3.7v-1.9h3.7v1.9zM203.9 285.1h1.9c.8 0 1.1.1 1.4.2.3.2.4.5.4 1.4v.5h-.9v-.2c0-.4-.2-.5-.5-.5h-.2v.6h-1.9v-2h-.2zm0 2.8h1.9c.8 0 1.1.1 1.4.2.3.2.4.5.4 1.4v.5h-.9v-.2c0-.4-.2-.5-.5-.5h-.2v.6h-1.9v-2h-.2zM207.5 334.7l-1.6-.2v1.9l1.6.2v1.2l-1.6-.2v1.3l-1-.1v-1.3l-1.2-.2v1.3l-1-.1v-1.3l-1.6-.2v-1.2l1.6.2v-1.9l-1.6-.2v-1.3l1.6.2v-1.2l1 .1v1.3l1.2.2v-1.3l1 .1v1.3l1.6.2v1.2zm-3.8-.5v1.9l1.2.2v-1.9l-1.2-.2zM207.5 384.5h-.5c0 2.5-.3 3.1-1.8 3h-.3v-1.4c.6 0 .6 0 .6-1.6h-1.1v1c0 1-.1 1.4-.4 1.8-.3.3-.7.4-1.5.4-1.7 0-2.1-.5-2.1-2.1v-1h-.7v-1h.7v-.3c0-2.4.3-2.8 1.9-2.8h.4v1.4h-.1c-.5 0-.6 0-.7.3 0 .1-.1.7-.1 1.2v.2h1.2c0-1.5 0-1.5.1-2 .1-.8.7-1.1 1.8-1.1s1.6.3 1.9.9c.1.3.2 1 .2 1.8v.4h.5v.9zm-2-.9v-1.2c0-.2-.2-.4-.5-.4s-.5.1-.5.4-.1.5-.1 1.1h1.1v.1zm-3.6.9v.5c0 1.1.1 1.2.6 1.2.3 0 .5-.1.5-.4s0-.3.1-1.3h-1.2zM207.2 430.5c-.2.2-.5.3-1.6.3-1.3 0-1.5 0-1.7-.4-.1-.2-.2-.8-.2-1.4 0-.7.1-1.2.2-1.5.2-.3.5-.3 1.8-.3s1.5.1 1.7.5c.1.2.2.8.2 1.3-.1.7-.2 1.3-.4 1.5zm-.8-2.3c-.1-.1-.3-.2-.8-.2-.6 0-.8 0-.9.2 0 .1-.1.4-.1.8s0 .7.1.8c0 .1.3.2.8.2.3 0 .5 0 .7-.1.1 0 .2-.1.2-.3v-.6c.1-.5 0-.7 0-.8zm.4 6-6-4.6.8-.5 6 4.7-.8.4zm-2.3 1.5c-.2.3-.4.3-1.7.3-1.4 0-1.6 0-1.7-.4-.1-.3-.2-.8-.2-1.4s.1-1.2.2-1.4c.2-.3.4-.3 1.8-.3 1.3 0 1.5.1 1.7.5.1.2.2.7.2 1.3-.1.6-.2 1.2-.3 1.4zm-.9-2.3c-.1-.1-.3-.2-.8-.2-.6 0-.8 0-.9.2 0 .1-.1.4-.1.7 0 .4 0 .8.1.9 0 .1.3.2.8.2.6 0 .8 0 .8-.2 0-.1.1-.5.1-.8.1-.4.1-.7 0-.8zM204.6 483.2h-.4c-.7 0-.9 0-1.2-.1l-.7 1.1-1.3-.5.7-1c-.6-.3-.7-.8-.7-2.6 0-1.5.1-2 .4-2.3s.7-.4 1.7-.4c1.2 0 1.5.2 1.6 1 .2-.4.5-.5 1.3-.5s1.2.2 1.4.6c.1.2.1.6.1 1.6 0 1.6 0 1.9-.3 2.2-.2.3-.6.4-1.5.4h-.4v-1.3c.4 0 .5 0 .6-.1s.1-.3.1-.9c0-.7 0-1-.1-1 0-.1-.1-.1-.3-.1-.2 0-.3 0-.4.3l-1.6 2.4h.8v1.2h.2zm-.7-4c-.1-.4-.1-.5-.8-.5-.7 0-.7.1-.7 1.3v.6c0 .9 0 .9.1 1l1.4-2.4zM105.4 226.4l1.4 1.5 3.3-3.1v14.3h2v-14.2l2.8 3 1.5-1.4-5.3-5.5zM155.7 222.7l-.3-1.4c.8-.1 1.3-.4 1.3-.9 0-.3-.1-.5-.3-.7-.2-.1-.5-.2-.9-.3-.3 0-.8-.1-1.4-.1-.6 0-1 0-1.4.1-.4 0-.7.1-.9.3s-.4.4-.4.7c0 .6.5.9 1.6 1l-.4 1.4c-1.6-.2-2.3-1-2.3-2.4 0-.8.3-1.5.9-1.9.6-.4 1.6-.6 2.8-.6.8 0 1.5.1 2 .2s1 .4 1.4.8.5.9.5 1.6-.2 1.2-.5 1.5c-.4.3-1 .5-1.7.7zM156.6 226.1h-6.3v-1.4h6.3V223h1.1v4.8h-1.2v-1.7h.1zM150.3 232.3l4.9-2.3-4.9.1v-1.3h7.4v1.4l-4.7 2.1h4.7v1.3h-7.5l.1-1.3zM154.6 235.3l.6-.3c.1.3.2.5.4.6s.4.2.7.2v-.7h1.4v1.4h-1.1c-.4 0-.8-.1-1-.2-.3-.1-.5-.3-.6-.4-.2-.1-.3-.3-.4-.6zM151.5 242.3h-1.2V238h7.4v1.4h-6.3l.1 2.9zM70.5 219.9c0-.2-.1-.4-.2-.5-.1-.1-.3-.2-.5-.2-.1 0-.3 0-.4.1l-.4.4c-.1.2-.3.4-.4.8-.3.5-.5 1-.7 1.2-.2.3-.5.5-.7.6-.3.1-.6.2-.9.2-.4 0-.8-.1-1.2-.3s-.6-.5-.8-.8c-.2-.4-.3-.8-.3-1.3 0-.8.2-1.4.6-1.8s1.1-.6 1.9-.7l.1 1.4c-.4 0-.7.1-.9.2s-.4.2-.5.4-.1.3-.1.6c0 .2 0 .4.1.5s.2.3.3.3c.1.1.3.1.5.1s.3 0 .5-.1c.1-.1.3-.2.4-.5.1-.2.3-.5.5-.9.3-.6.6-1.1.9-1.3.3-.3.8-.4 1.2-.4s.7.1 1.1.3.5.4.7.8.3.7.3 1.2c0 .7-.2 1.3-.6 1.6-.4.4-.9.6-1.7.6l-.1-1.4c.9-.2 1.3-.5 1.3-1.1zM64.1 227.1h3.3V225h-3.3v-1.4h7.5v1.4h-3v2.1h3v1.4h-7.5v-1.4zM64.1 230.1h7.5v1.4h-7.5v-1.4zM70.3 234.4h-1.8v2.1h-1.2v-2.1h-3.2V233h7.5v4h-1.2l-.1-2.6zM70.4 240.8h-6.3v-1.4h6.3v-1.7h1.2v4.8h-1.2v-1.7z"/>
    <circle cx="138.9" cy="103.6" r="52.8"/>
    <circle class="st1" cx="138.9" cy="103.6" r="49.3"/>
    <g style="opacity:.1">
        <path class="st4" d="M135.9 61.9h1.6v1.6h-1.6zM138.8 61.9h1.6v1.6h-1.6zM141.7 62h1.6v1.6h-1.6zM144.7 61.9h1.6v1.6h-1.6zM147.6 61.9h1.6v1.6h-1.6zM150.5 61.9h1.6v1.6h-1.6zM153.4 61.9h1.6v1.6h-1.6zM136 64.8h1.6v1.6H136zM138.9 64.8h1.6v1.6h-1.6zM141.8 64.8h1.6v1.6h-1.6zM144.7 64.7h1.6v1.6h-1.6zM147.6 64.7h1.6v1.6h-1.6zM150.5 64.8h1.6v1.6h-1.6zM153.4 64.8h1.6v1.6h-1.6zM156.4 64.8h1.6v1.6h-1.6zM135.9 67.7h1.6v1.6h-1.6zM138.8 67.7h1.6v1.6h-1.6zM141.7 67.7h1.6v1.6h-1.6zM144.6 67.6h1.6v1.6h-1.6zM147.6 67.6h1.6v1.6h-1.6zM150.5 67.6h1.6v1.6h-1.6zM153.4 67.6h1.6v1.6h-1.6zM156.3 67.7h1.6v1.6h-1.6zM159.2 67.7h1.6v1.6h-1.6zM162.1 67.7h1.6v1.6h-1.6zM135.9 70.5h1.6v1.6h-1.6zM138.8 70.5h1.6v1.6h-1.6zM141.8 70.5h1.6v1.6h-1.6zM144.7 70.5h1.6v1.6h-1.6zM147.6 70.5h1.6v1.6h-1.6zM150.5 70.5h1.6v1.6h-1.6zM153.4 70.5h1.6v1.6h-1.6zM156.3 70.5h1.6v1.6h-1.6zM159.2 70.5h1.6v1.6h-1.6zM162.2 70.5h1.6v1.6h-1.6zM165.1 70.5h1.6v1.6h-1.6zM136 73.4h1.6V75H136zM138.9 73.4h1.6V75h-1.6zM141.8 73.4h1.6V75h-1.6zM144.7 73.3h1.6v1.6h-1.6zM147.6 73.3h1.6v1.6h-1.6zM150.5 73.4h1.6V75h-1.6zM153.5 73.4h1.6V75h-1.6zM156.4 73.4h1.6V75h-1.6zM159.3 73.4h1.6V75h-1.6zM162.2 73.4h1.6V75h-1.6zM165.1 73.3h1.6v1.6h-1.6zM168 73.3h1.6v1.6H168zM135.9 76.2h1.6v1.6h-1.6zM138.8 76.3h1.6v1.6h-1.6zM141.7 76.3h1.6v1.6h-1.6zM144.6 76.2h1.6v1.6h-1.6zM147.6 76.2h1.6v1.6h-1.6zM150.5 76.2h1.6v1.6h-1.6zM153.4 76.2h1.6v1.6h-1.6zM156.3 76.2h1.6v1.6h-1.6zM159.2 76.3h1.6v1.6h-1.6zM162.1 76.3h1.6v1.6h-1.6zM165.1 76.2h1.6v1.6h-1.6zM168 76.2h1.6v1.6H168zM170.9 76.2h1.6v1.6h-1.6zM135.9 79.1h1.6v1.6h-1.6zM138.9 79.1h1.6v1.6h-1.6zM141.8 79.1h1.6v1.6h-1.6zM144.7 79h1.6v1.6h-1.6zM147.6 79.1h1.6v1.6h-1.6zM150.5 79.1h1.6v1.6h-1.6zM153.4 79.1h1.6v1.6h-1.6zM156.3 79.1h1.6v1.6h-1.6zM159.3 79.1h1.6v1.6h-1.6zM162.2 79.1h1.6v1.6h-1.6zM165.1 79h1.6v1.6h-1.6zM168 79.1h1.6v1.6H168zM170.9 79.1h1.6v1.6h-1.6zM173.8 79.1h1.6v1.6h-1.6zM136 82h1.6v1.6H136zM138.9 82h1.6v1.6h-1.6zM141.8 82h1.6v1.6h-1.6zM144.7 81.9h1.6v1.6h-1.6zM147.6 81.9h1.6v1.6h-1.6zM150.6 81.9h1.6v1.6h-1.6zM153.5 82h1.6v1.6h-1.6zM156.4 82h1.6v1.6h-1.6zM159.3 82h1.6v1.6h-1.6zM162.2 82h1.6v1.6h-1.6zM165.1 81.9h1.6v1.6h-1.6zM168 81.9h1.6v1.6H168zM171 81.9h1.6v1.6H171zM173.9 82h1.6v1.6h-1.6zM135.9 84.9h1.6v1.6h-1.6zM138.8 84.9h1.6v1.6h-1.6zM141.7 84.9h1.6v1.6h-1.6zM144.6 84.8h1.6v1.6h-1.6zM147.5 84.8h1.6v1.6h-1.6zM150.5 84.8h1.6v1.6h-1.6zM153.4 84.8h1.6v1.6h-1.6zM156.3 84.9h1.6v1.6h-1.6zM159.2 84.9h1.6v1.6h-1.6zM162.1 84.9h1.6v1.6h-1.6zM165 84.8h1.6v1.6H165zM167.9 84.8h1.6v1.6h-1.6zM170.9 84.8h1.6v1.6h-1.6zM173.8 84.8h1.6v1.6h-1.6zM176.7 84.9h1.6v1.6h-1.6zM135.9 87.7h1.6v1.6h-1.6zM138.8 87.7h1.6v1.6h-1.6zM141.8 87.8h1.6v1.6h-1.6zM144.7 87.7h1.6v1.6h-1.6zM147.6 87.7h1.6v1.6h-1.6zM150.5 87.7h1.6v1.6h-1.6zM153.4 87.7h1.6v1.6h-1.6zM156.3 87.7h1.6v1.6h-1.6zM159.2 87.7h1.6v1.6h-1.6zM162.2 87.8h1.6v1.6h-1.6zM165.1 87.7h1.6v1.6h-1.6zM168 87.7h1.6v1.6H168zM170.9 87.7h1.6v1.6h-1.6zM173.8 87.7h1.6v1.6h-1.6zM176.7 87.7h1.6v1.6h-1.6zM136 90.6h1.6v1.6H136zM138.9 90.6h1.6v1.6h-1.6zM141.8 90.6h1.6v1.6h-1.6zM144.7 90.5h1.6v1.6h-1.6zM147.6 90.5h1.6v1.6h-1.6zM150.5 90.6h1.6v1.6h-1.6zM153.4 90.6h1.6v1.6h-1.6zM156.4 90.6h1.6v1.6h-1.6zM159.3 90.6h1.6v1.6h-1.6zM162.2 90.6h1.6v1.6h-1.6zM165.1 90.5h1.6v1.6h-1.6zM168 90.5h1.6v1.6H168zM170.9 90.6h1.6v1.6h-1.6zM173.8 90.6h1.6v1.6h-1.6zM176.8 90.6h1.6v1.6h-1.6zM135.9 93.4h1.6V95h-1.6zM138.8 93.5h1.6v1.6h-1.6zM141.7 93.5h1.6v1.6h-1.6zM144.6 93.4h1.6V95h-1.6zM147.6 93.4h1.6V95h-1.6zM150.5 93.4h1.6V95h-1.6zM153.4 93.4h1.6V95h-1.6zM156.3 93.4h1.6V95h-1.6zM159.2 93.5h1.6v1.6h-1.6zM162.1 93.5h1.6v1.6h-1.6zM165 93.4h1.6V95H165zM168 93.4h1.6V95H168zM170.9 93.4h1.6V95h-1.6zM173.8 93.4h1.6V95h-1.6zM176.7 93.5h1.6v1.6h-1.6zM179.6 93.5h1.6v1.6h-1.6zM135.9 96.3h1.6v1.6h-1.6zM138.9 96.3h1.6v1.6h-1.6zM141.8 96.3h1.6v1.6h-1.6zM144.7 96.3h1.6v1.6h-1.6zM147.6 96.3h1.6v1.6h-1.6zM150.5 96.3h1.6v1.6h-1.6zM153.4 96.3h1.6v1.6h-1.6zM156.3 96.3h1.6v1.6h-1.6zM159.3 96.3h1.6v1.6h-1.6zM162.2 96.3h1.6v1.6h-1.6zM165.1 96.3h1.6v1.6h-1.6zM168 96.3h1.6v1.6H168zM170.9 96.3h1.6v1.6h-1.6zM173.8 96.3h1.6v1.6h-1.6zM176.7 96.3h1.6v1.6h-1.6zM179.7 96.3h1.6v1.6h-1.6zM136 99.2h1.6v1.6H136zM138.9 99.2h1.6v1.6h-1.6zM141.8 99.2h1.6v1.6h-1.6zM144.7 99.1h1.6v1.6h-1.6zM147.6 99.1h1.6v1.6h-1.6zM150.5 99.1h1.6v1.6h-1.6zM153.5 99.2h1.6v1.6h-1.6zM156.4 99.2h1.6v1.6h-1.6zM159.3 99.2h1.6v1.6h-1.6zM162.2 99.2h1.6v1.6h-1.6zM165.1 99.1h1.6v1.6h-1.6zM168 99.1h1.6v1.6H168zM170.9 99.1h1.6v1.6h-1.6zM173.9 99.2h1.6v1.6h-1.6zM176.8 99.2h1.6v1.6h-1.6zM179.7 99.2h1.6v1.6h-1.6zM135.9 102h1.6v1.6h-1.6zM138.8 102.1h1.6v1.6h-1.6zM141.7 102.1h1.6v1.6h-1.6zM144.7 102h1.6v1.6h-1.6zM147.6 102h1.6v1.6h-1.6zM150.5 102h1.6v1.6h-1.6zM153.4 102h1.6v1.6h-1.6zM156.3 102h1.6v1.6h-1.6zM159.2 102.1h1.6v1.6h-1.6zM162.1 102.1h1.6v1.6h-1.6zM165.1 102h1.6v1.6h-1.6zM168 102h1.6v1.6H168zM170.9 102h1.6v1.6h-1.6zM173.8 102h1.6v1.6h-1.6zM176.7 102h1.6v1.6h-1.6zM179.6 102.1h1.6v1.6h-1.6zM135.9 104.9h1.6v1.6h-1.6zM138.9 104.9h1.6v1.6h-1.6zM141.8 104.9h1.6v1.6h-1.6zM144.7 104.8h1.6v1.6h-1.6zM147.6 104.9h1.6v1.6h-1.6zM150.5 104.9h1.6v1.6h-1.6zM153.4 104.9h1.6v1.6h-1.6zM156.3 104.9h1.6v1.6h-1.6zM159.3 104.9h1.6v1.6h-1.6zM162.2 104.9h1.6v1.6h-1.6zM165.1 104.8h1.6v1.6h-1.6zM168 104.9h1.6v1.6H168zM170.9 104.9h1.6v1.6h-1.6zM173.8 104.9h1.6v1.6h-1.6zM176.7 104.9h1.6v1.6h-1.6zM179.7 104.9h1.6v1.6h-1.6zM136 107.8h1.6v1.6H136zM138.9 107.8h1.6v1.6h-1.6zM141.8 107.8h1.6v1.6h-1.6zM144.7 107.7h1.6v1.6h-1.6zM147.6 107.7h1.6v1.6h-1.6zM150.6 107.7h1.6v1.6h-1.6zM153.5 107.7h1.6v1.6h-1.6zM156.4 107.8h1.6v1.6h-1.6zM159.3 107.8h1.6v1.6h-1.6zM162.2 107.8h1.6v1.6h-1.6zM165.1 107.7h1.6v1.6h-1.6zM168 107.7h1.6v1.6H168zM171 107.7h1.6v1.6H171zM173.9 107.8h1.6v1.6h-1.6zM176.8 107.8h1.6v1.6h-1.6zM179.7 107.8h1.6v1.6h-1.6zM135.9 110.6h1.6v1.6h-1.6zM138.8 110.6h1.6v1.6h-1.6zM141.8 110.7h1.6v1.6h-1.6zM144.7 110.6h1.6v1.6h-1.6zM147.6 110.6h1.6v1.6h-1.6zM150.5 110.6h1.6v1.6h-1.6zM153.4 110.6h1.6v1.6h-1.6zM156.3 110.6h1.6v1.6h-1.6zM159.2 110.6h1.6v1.6h-1.6zM162.2 110.7h1.6v1.6h-1.6zM165.1 110.6h1.6v1.6h-1.6zM168 110.6h1.6v1.6H168zM170.9 110.6h1.6v1.6h-1.6zM173.8 110.6h1.6v1.6h-1.6zM176.7 110.6h1.6v1.6h-1.6zM179.6 110.6h1.6v1.6h-1.6zM136 113.5h1.6v1.6H136zM138.9 113.5h1.6v1.6h-1.6zM141.8 113.5h1.6v1.6h-1.6zM144.7 113.4h1.6v1.6h-1.6zM147.6 113.4h1.6v1.6h-1.6zM150.5 113.5h1.6v1.6h-1.6zM153.4 113.5h1.6v1.6h-1.6zM156.4 113.5h1.6v1.6h-1.6zM159.3 113.5h1.6v1.6h-1.6zM162.2 113.5h1.6v1.6h-1.6zM165.1 113.4h1.6v1.6h-1.6zM168 113.4h1.6v1.6H168zM170.9 113.5h1.6v1.6h-1.6zM173.8 113.5h1.6v1.6h-1.6zM176.8 113.5h1.6v1.6h-1.6zM179.7 113.5h1.6v1.6h-1.6zM135.9 116.4h1.6v1.6h-1.6zM138.8 116.4h1.6v1.6h-1.6zM141.7 116.4h1.6v1.6h-1.6zM144.6 116.3h1.6v1.6h-1.6zM147.6 116.3h1.6v1.6h-1.6zM150.5 116.3h1.6v1.6h-1.6zM153.4 116.3h1.6v1.6h-1.6zM156.3 116.4h1.6v1.6h-1.6zM159.2 116.4h1.6v1.6h-1.6zM162.1 116.4h1.6v1.6h-1.6zM165 116.3h1.6v1.6H165zM168 116.3h1.6v1.6H168zM170.9 116.3h1.6v1.6h-1.6zM173.8 116.3h1.6v1.6h-1.6zM176.7 116.4h1.6v1.6h-1.6zM135.9 119.2h1.6v1.6h-1.6zM138.8 119.2h1.6v1.6h-1.6zM141.8 119.2h1.6v1.6h-1.6zM144.7 119.2h1.6v1.6h-1.6zM147.6 119.2h1.6v1.6h-1.6zM150.5 119.2h1.6v1.6h-1.6zM153.4 119.2h1.6v1.6h-1.6zM156.3 119.2h1.6v1.6h-1.6zM159.2 119.2h1.6v1.6h-1.6zM162.2 119.2h1.6v1.6h-1.6zM165.1 119.2h1.6v1.6h-1.6zM168 119.2h1.6v1.6H168zM170.9 119.2h1.6v1.6h-1.6zM173.8 119.2h1.6v1.6h-1.6zM176.7 119.2h1.6v1.6h-1.6zM135.9 122.1h1.6v1.6h-1.6zM138.9 122.1h1.6v1.6h-1.6zM141.8 122.1h1.6v1.6h-1.6zM144.7 122.1h1.6v1.6h-1.6zM147.6 122.1h1.6v1.6h-1.6zM150.5 122.1h1.6v1.6h-1.6zM153.4 122.1h1.6v1.6h-1.6zM156.3 122.1h1.6v1.6h-1.6zM159.3 122.1h1.6v1.6h-1.6zM162.2 122.1h1.6v1.6h-1.6zM165.1 122.1h1.6v1.6h-1.6zM168 122.1h1.6v1.6H168zM170.9 122.1h1.6v1.6h-1.6zM173.8 122.1h1.6v1.6h-1.6zM136 125h1.6v1.6H136zM138.9 125h1.6v1.6h-1.6zM141.8 125h1.6v1.6h-1.6zM144.7 124.9h1.6v1.6h-1.6zM147.6 124.9h1.6v1.6h-1.6zM150.5 124.9h1.6v1.6h-1.6zM153.5 125h1.6v1.6h-1.6zM156.4 125h1.6v1.6h-1.6zM159.3 125h1.6v1.6h-1.6zM162.2 125h1.6v1.6h-1.6zM165.1 124.9h1.6v1.6h-1.6zM168 124.9h1.6v1.6H168zM171 124.9h1.6v1.6H171zM173.9 125h1.6v1.6h-1.6zM135.9 127.8h1.6v1.6h-1.6zM138.8 127.8h1.6v1.6h-1.6zM141.7 127.9h1.6v1.6h-1.6zM144.7 127.8h1.6v1.6h-1.6zM147.6 127.8h1.6v1.6h-1.6zM150.5 127.8h1.6v1.6h-1.6zM153.4 127.8h1.6v1.6h-1.6zM156.3 127.8h1.6v1.6h-1.6zM159.2 127.8h1.6v1.6h-1.6zM162.1 127.9h1.6v1.6h-1.6zM165.1 127.8h1.6v1.6h-1.6zM168 127.8h1.6v1.6H168zM170.9 127.8h1.6v1.6h-1.6zM136 130.7h1.6v1.6H136zM138.9 130.7h1.6v1.6h-1.6zM141.8 130.7h1.6v1.6h-1.6zM144.7 130.6h1.6v1.6h-1.6zM147.6 130.7h1.6v1.6h-1.6zM150.5 130.7h1.6v1.6h-1.6zM153.4 130.7h1.6v1.6h-1.6zM156.4 130.7h1.6v1.6h-1.6zM159.3 130.7h1.6v1.6h-1.6zM162.2 130.7h1.6v1.6h-1.6zM165.1 130.6h1.6v1.6h-1.6zM168 130.7h1.6v1.6H168zM135.9 133.6h1.6v1.6h-1.6zM138.8 133.6h1.6v1.6h-1.6zM141.7 133.6h1.6v1.6h-1.6zM144.6 133.5h1.6v1.6h-1.6zM147.5 133.5h1.6v1.6h-1.6zM150.5 133.5h1.6v1.6h-1.6zM153.4 133.5h1.6v1.6h-1.6zM156.3 133.6h1.6v1.6h-1.6zM159.2 133.6h1.6v1.6h-1.6zM162.1 133.6h1.6v1.6h-1.6zM165 133.5h1.6v1.6H165zM167.9 133.5h1.6v1.6h-1.6zM135.9 136.4h1.6v1.6h-1.6zM138.8 136.4h1.6v1.6h-1.6zM141.8 136.5h1.6v1.6h-1.6zM144.7 136.4h1.6v1.6h-1.6zM147.6 136.4h1.6v1.6h-1.6zM150.5 136.4h1.6v1.6h-1.6zM153.4 136.4h1.6v1.6h-1.6zM156.3 136.4h1.6v1.6h-1.6zM159.2 136.4h1.6v1.6h-1.6zM162.2 136.5h1.6v1.6h-1.6zM165.1 136.4h1.6v1.6h-1.6zM136 139.3h1.6v1.6H136zM138.9 139.3h1.6v1.6h-1.6zM141.8 139.3h1.6v1.6h-1.6zM144.7 139.2h1.6v1.6h-1.6zM147.6 139.2h1.6v1.6h-1.6zM150.5 139.3h1.6v1.6h-1.6zM153.4 139.3h1.6v1.6h-1.6zM156.4 139.3h1.6v1.6h-1.6zM159.3 139.3h1.6v1.6h-1.6zM162.2 139.3h1.6v1.6h-1.6zM135.9 142.1h1.6v1.6h-1.6zM138.8 142.2h1.6v1.6h-1.6zM141.7 142.2h1.6v1.6h-1.6zM144.6 142.1h1.6v1.6h-1.6zM147.6 142.1h1.6v1.6h-1.6zM150.5 142.1h1.6v1.6h-1.6zM153.4 142.1h1.6v1.6h-1.6zM156.3 142.1h1.6v1.6h-1.6zM135.9 145h1.6v1.6h-1.6zM138.9 145h1.6v1.6h-1.6zM141.8 145h1.6v1.6h-1.6zM124.2 61.9h1.6v1.6h-1.6zM127.1 61.9h1.6v1.6h-1.6zM130 61.9h1.6v1.6H130zM132.9 61.9h1.6v1.6h-1.6zM118.4 64.8h1.6v1.6h-1.6zM121.3 64.7h1.6v1.6h-1.6zM124.2 64.8h1.6v1.6h-1.6zM127.1 64.8h1.6v1.6h-1.6zM130 64.8h1.6v1.6H130zM133 64.8h1.6v1.6H133zM115.4 67.7h1.6v1.6h-1.6zM118.3 67.7h1.6v1.6h-1.6zM121.2 67.6h1.6v1.6h-1.6zM124.2 67.6h1.6v1.6h-1.6zM127.1 67.6h1.6v1.6h-1.6zM130 67.6h1.6v1.6H130zM132.9 67.7h1.6v1.6h-1.6zM112.5 70.5h1.6v1.6h-1.6zM115.5 70.5h1.6v1.6h-1.6zM118.4 70.5h1.6v1.6h-1.6zM121.3 70.5h1.6v1.6h-1.6zM124.2 70.5h1.6v1.6h-1.6zM127.1 70.5h1.6v1.6h-1.6zM130 70.5h1.6v1.6H130zM132.9 70.5h1.6v1.6h-1.6zM109.7 73.4h1.6V75h-1.6zM112.6 73.4h1.6V75h-1.6zM115.5 73.4h1.6V75h-1.6zM118.4 73.4h1.6V75h-1.6zM121.3 73.3h1.6v1.6h-1.6zM124.2 73.3h1.6v1.6h-1.6zM127.1 73.4h1.6V75h-1.6zM130.1 73.4h1.6V75h-1.6zM133 73.4h1.6V75H133zM106.7 76.2h1.6v1.6h-1.6zM109.6 76.2h1.6v1.6h-1.6zM112.5 76.2h1.6v1.6h-1.6zM115.4 76.3h1.6v1.6h-1.6zM118.3 76.3h1.6v1.6h-1.6zM121.3 76.2h1.6v1.6h-1.6zM124.2 76.2h1.6v1.6h-1.6zM127.1 76.2h1.6v1.6h-1.6zM130 76.2h1.6v1.6H130zM132.9 76.2h1.6v1.6h-1.6zM103.8 79.1h1.6v1.6h-1.6zM106.7 79.1h1.6v1.6h-1.6zM109.6 79.1h1.6v1.6h-1.6zM112.5 79.1h1.6v1.6h-1.6zM115.5 79.1h1.6v1.6h-1.6zM118.4 79.1h1.6v1.6h-1.6zM121.3 79.1h1.6v1.6h-1.6zM124.2 79.1h1.6v1.6h-1.6zM127.1 79.1h1.6v1.6h-1.6zM130 79.1h1.6v1.6H130zM132.9 79.1h1.6v1.6h-1.6zM100.9 81.9h1.6v1.6h-1.6zM103.8 81.9h1.6v1.6h-1.6zM106.8 81.9h1.6v1.6h-1.6zM109.7 82h1.6v1.6h-1.6zM112.6 82h1.6v1.6h-1.6zM115.5 82h1.6v1.6h-1.6zM118.4 82h1.6v1.6h-1.6zM121.3 81.9h1.6v1.6h-1.6zM124.2 81.9h1.6v1.6h-1.6zM127.2 81.9h1.6v1.6h-1.6zM130.1 82h1.6v1.6h-1.6zM133 82h1.6v1.6H133zM97.9 84.9h1.6v1.6h-1.6zM100.8 84.8h1.6v1.6h-1.6zM103.7 84.8h1.6v1.6h-1.6zM106.7 84.8h1.6v1.6h-1.6zM109.6 84.8h1.6v1.6h-1.6zM112.5 84.9h1.6v1.6h-1.6zM115.4 84.9h1.6v1.6h-1.6zM118.3 84.9h1.6v1.6h-1.6zM121.2 84.8h1.6v1.6h-1.6zM124.1 84.8h1.6v1.6h-1.6zM127.1 84.8h1.6v1.6h-1.6zM130 84.9h1.6v1.6H130zM132.9 84.9h1.6v1.6h-1.6zM98 87.8h1.6v1.6H98zM100.9 87.7h1.6v1.6h-1.6zM103.8 87.7h1.6v1.6h-1.6zM106.7 87.7h1.6v1.6h-1.6zM109.6 87.7h1.6v1.6h-1.6zM112.5 87.7h1.6v1.6h-1.6zM115.4 87.7h1.6v1.6h-1.6zM118.4 87.8h1.6v1.6h-1.6zM121.3 87.7h1.6v1.6h-1.6zM124.2 87.7h1.6v1.6h-1.6zM127.1 87.7h1.6v1.6h-1.6zM130 87.7h1.6v1.6H130zM132.9 87.7h1.6v1.6h-1.6zM98 90.6h1.6v1.6H98zM100.9 90.5h1.6v1.6h-1.6zM103.8 90.5h1.6v1.6h-1.6zM106.7 90.6h1.6v1.6h-1.6zM109.7 90.6h1.6v1.6h-1.6zM112.6 90.6h1.6v1.6h-1.6zM115.5 90.6h1.6v1.6h-1.6zM118.4 90.6h1.6v1.6h-1.6zM121.3 90.5h1.6v1.6h-1.6zM124.2 90.5h1.6v1.6h-1.6zM127.1 90.6h1.6v1.6h-1.6zM130.1 90.6h1.6v1.6h-1.6zM133 90.6h1.6v1.6H133zM97.9 93.5h1.6v1.6h-1.6zM100.8 93.4h1.6V95h-1.6zM103.8 93.4h1.6V95h-1.6zM106.7 93.4h1.6V95h-1.6zM109.6 93.4h1.6V95h-1.6zM112.5 93.5h1.6v1.6h-1.6zM115.4 93.5h1.6v1.6h-1.6zM118.3 93.5h1.6v1.6h-1.6zM121.2 93.4h1.6V95h-1.6zM124.2 93.4h1.6V95h-1.6zM127.1 93.4h1.6V95h-1.6zM130 93.4h1.6V95H130zM132.9 93.5h1.6v1.6h-1.6zM98 96.3h1.6v1.6H98zM100.9 96.3h1.6v1.6h-1.6zM103.8 96.3h1.6v1.6h-1.6zM106.7 96.3h1.6v1.6h-1.6zM109.6 96.3h1.6v1.6h-1.6zM112.5 96.3h1.6v1.6h-1.6zM115.5 96.3h1.6v1.6h-1.6zM118.4 96.3h1.6v1.6h-1.6zM121.3 96.3h1.6v1.6h-1.6zM124.2 96.3h1.6v1.6h-1.6zM127.1 96.3h1.6v1.6h-1.6zM130 96.3h1.6v1.6H130zM132.9 96.3h1.6v1.6h-1.6zM98 99.2h1.6v1.6H98zM100.9 99.1h1.6v1.6h-1.6zM103.8 99.1h1.6v1.6h-1.6zM106.7 99.1h1.6v1.6h-1.6zM109.7 99.2h1.6v1.6h-1.6zM112.6 99.2h1.6v1.6h-1.6zM115.5 99.2h1.6v1.6h-1.6zM118.4 99.2h1.6v1.6h-1.6zM121.3 99.1h1.6v1.6h-1.6zM124.2 99.1h1.6v1.6h-1.6zM127.1 99.2h1.6v1.6h-1.6zM130.1 99.2h1.6v1.6h-1.6zM133 99.2h1.6v1.6H133zM97.9 102.1h1.6v1.6h-1.6zM100.9 102h1.6v1.6h-1.6zM103.8 102h1.6v1.6h-1.6zM106.7 102h1.6v1.6h-1.6zM109.6 102h1.6v1.6h-1.6zM112.5 102h1.6v1.6h-1.6zM115.4 102.1h1.6v1.6h-1.6zM118.3 102.1h1.6v1.6h-1.6zM121.3 102h1.6v1.6h-1.6zM124.2 102h1.6v1.6h-1.6zM127.1 102h1.6v1.6h-1.6zM130 102h1.6v1.6H130zM132.9 102h1.6v1.6h-1.6zM98 104.9h1.6v1.6H98zM100.9 104.8h1.6v1.6h-1.6zM103.8 104.9h1.6v1.6h-1.6zM106.7 104.9h1.6v1.6h-1.6zM109.6 104.9h1.6v1.6h-1.6zM112.6 104.9h1.6v1.6h-1.6zM115.5 104.9h1.6v1.6h-1.6zM118.4 104.9h1.6v1.6h-1.6zM121.3 104.8h1.6v1.6h-1.6zM124.2 104.9h1.6v1.6h-1.6zM127.1 104.9h1.6v1.6h-1.6zM130 104.9h1.6v1.6H130zM133 104.9h1.6v1.6H133zM98 107.8h1.6v1.6H98zM100.9 107.7h1.6v1.6h-1.6zM103.8 107.7h1.6v1.6h-1.6zM106.8 107.7h1.6v1.6h-1.6zM109.7 107.8h1.6v1.6h-1.6zM112.6 107.8h1.6v1.6h-1.6zM115.5 107.8h1.6v1.6h-1.6zM118.4 107.8h1.6v1.6h-1.6zM121.3 107.7h1.6v1.6h-1.6zM124.2 107.7h1.6v1.6h-1.6zM127.2 107.7h1.6v1.6h-1.6zM130.1 107.8h1.6v1.6h-1.6zM133 107.8h1.6v1.6H133zM98 110.7h1.6v1.6H98zM100.9 110.6h1.6v1.6h-1.6zM103.8 110.6h1.6v1.6h-1.6zM106.7 110.6h1.6v1.6h-1.6zM109.6 110.6h1.6v1.6h-1.6zM112.5 110.6h1.6v1.6h-1.6zM115.4 110.6h1.6v1.6h-1.6zM118.4 110.7h1.6v1.6h-1.6zM121.3 110.6h1.6v1.6h-1.6zM124.2 110.6h1.6v1.6h-1.6zM127.1 110.6h1.6v1.6h-1.6zM130 110.6h1.6v1.6H130zM132.9 110.6h1.6v1.6h-1.6zM98 113.5h1.6v1.6H98zM100.9 113.4h1.6v1.6h-1.6zM103.8 113.4h1.6v1.6h-1.6zM106.7 113.5h1.6v1.6h-1.6zM109.6 113.5h1.6v1.6h-1.6zM112.6 113.5h1.6v1.6h-1.6zM115.5 113.5h1.6v1.6h-1.6zM118.4 113.5h1.6v1.6h-1.6zM121.3 113.4h1.6v1.6h-1.6zM124.2 113.5h1.6v1.6h-1.6zM127.1 113.5h1.6v1.6h-1.6zM130 113.5h1.6v1.6H130zM133 113.5h1.6v1.6H133zM97.9 116.4h1.6v1.6h-1.6zM100.8 116.3h1.6v1.6h-1.6zM103.8 116.3h1.6v1.6h-1.6zM106.7 116.3h1.6v1.6h-1.6zM109.6 116.3h1.6v1.6h-1.6zM112.5 116.4h1.6v1.6h-1.6zM115.4 116.4h1.6v1.6h-1.6zM118.3 116.4h1.6v1.6h-1.6zM121.2 116.3h1.6v1.6h-1.6zM124.2 116.3h1.6v1.6h-1.6zM127.1 116.3h1.6v1.6h-1.6zM130 116.3h1.6v1.6H130zM132.9 116.4h1.6v1.6h-1.6zM100.9 119.2h1.6v1.6h-1.6zM103.8 119.2h1.6v1.6h-1.6zM106.7 119.2h1.6v1.6h-1.6zM109.6 119.2h1.6v1.6h-1.6zM112.5 119.2h1.6v1.6h-1.6zM115.5 119.2h1.6v1.6h-1.6zM118.4 119.2h1.6v1.6h-1.6zM121.3 119.2h1.6v1.6h-1.6zM124.2 119.2h1.6v1.6h-1.6zM127.1 119.2h1.6v1.6h-1.6zM130 119.2h1.6v1.6H130zM132.9 119.2h1.6v1.6h-1.6zM100.9 122.1h1.6v1.6h-1.6zM103.8 122.1h1.6v1.6h-1.6zM106.7 122.1h1.6v1.6h-1.6zM109.6 122.1h1.6v1.6h-1.6zM112.5 122.1h1.6v1.6h-1.6zM115.5 122.1h1.6v1.6h-1.6zM118.4 122.1h1.6v1.6h-1.6zM121.3 122.1h1.6v1.6h-1.6zM124.2 122.1h1.6v1.6h-1.6zM127.1 122.1h1.6v1.6h-1.6zM130 122.1h1.6v1.6H130zM132.9 122.1h1.6v1.6h-1.6zM103.8 124.9h1.6v1.6h-1.6zM106.8 124.9h1.6v1.6h-1.6zM109.7 125h1.6v1.6h-1.6zM112.6 125h1.6v1.6h-1.6zM115.5 125h1.6v1.6h-1.6zM118.4 125h1.6v1.6h-1.6zM121.3 124.9h1.6v1.6h-1.6zM124.2 124.9h1.6v1.6h-1.6zM127.2 124.9h1.6v1.6h-1.6zM130.1 125h1.6v1.6h-1.6zM133 125h1.6v1.6H133zM103.8 127.8h1.6v1.6h-1.6zM106.7 127.8h1.6v1.6h-1.6zM109.6 127.8h1.6v1.6h-1.6zM112.5 127.8h1.6v1.6h-1.6zM115.4 127.9h1.6v1.6h-1.6zM118.3 127.9h1.6v1.6h-1.6zM121.3 127.8h1.6v1.6h-1.6zM124.2 127.8h1.6v1.6h-1.6zM127.1 127.8h1.6v1.6h-1.6zM130 127.8h1.6v1.6H130zM132.9 127.8h1.6v1.6h-1.6zM106.7 130.7h1.6v1.6h-1.6zM109.6 130.7h1.6v1.6h-1.6zM112.6 130.7h1.6v1.6h-1.6zM115.5 130.7h1.6v1.6h-1.6zM118.4 130.7h1.6v1.6h-1.6zM121.3 130.6h1.6v1.6h-1.6zM124.2 130.7h1.6v1.6h-1.6zM127.1 130.7h1.6v1.6h-1.6zM130 130.7h1.6v1.6H130zM133 130.7h1.6v1.6H133zM109.6 133.5h1.6v1.6h-1.6zM112.5 133.6h1.6v1.6h-1.6zM115.4 133.6h1.6v1.6h-1.6zM118.3 133.6h1.6v1.6h-1.6zM121.2 133.5h1.6v1.6h-1.6zM124.2 133.5h1.6v1.6h-1.6zM127.1 133.5h1.6v1.6h-1.6zM130 133.5h1.6v1.6H130zM132.9 133.6h1.6v1.6h-1.6zM112.5 136.4h1.6v1.6h-1.6zM115.4 136.4h1.6v1.6h-1.6zM118.4 136.5h1.6v1.6h-1.6zM121.3 136.4h1.6v1.6h-1.6zM124.2 136.4h1.6v1.6h-1.6zM127.1 136.4h1.6v1.6h-1.6zM130 136.4h1.6v1.6H130zM132.9 136.4h1.6v1.6h-1.6zM115.5 139.3h1.6v1.6h-1.6zM118.4 139.3h1.6v1.6h-1.6zM121.3 139.2h1.6v1.6h-1.6zM124.2 139.2h1.6v1.6h-1.6zM127.1 139.3h1.6v1.6h-1.6zM130.1 139.3h1.6v1.6h-1.6zM133 139.3h1.6v1.6H133zM121.2 142.1h1.6v1.6h-1.6zM124.2 142.1h1.6v1.6h-1.6zM127.1 142.1h1.6v1.6h-1.6zM130 142.1h1.6v1.6H130zM132.9 142.2h1.6v1.6h-1.6zM132.9 145h1.6v1.6h-1.6z"/>
    </g>
    <path d="M180.5 103.6c0 22.9-18.6 41.5-41.5 41.5s-41.5-18.6-41.5-41.5 18.6-41.5 41.5-41.5c22.9-.1 41.5 18.6 41.5 41.5m7.7 0c0-27.2-22.1-49.3-49.3-49.3s-49.3 22.1-49.3 49.3 22.1 49.3 49.3 49.3c27.2-.1 49.3-22.1 49.3-49.3z"/>
    <circle cx="138.9" cy="103.6" r="19"/>
</svg>
