<svg xmlns="http://www.w3.org/2000/svg" width="422.289" height="486.385" xml:space="preserve">
    <path fill="red" d="M152.754 189.333c-23.328 0-42.46-18.964-42.46-42.46 0-23.495 18.965-42.46 42.46-42.46 23.496 0 42.46 18.965 42.46 42.46.002 23.496-18.962 42.46-42.46 42.46zm0-67.465c-13.762 0-25.006 11.244-25.006 25.006 0 13.761 11.244 25.006 25.006 25.006s25.006-11.245 25.006-25.006c0-13.762-11.244-25.006-25.006-25.006z"/>
    <path fill="#FF5DDC" d="M294.737 192.019h-1.175l-64.445-8.392c-2.35-.335-4.364-1.51-5.706-3.356-1.343-1.846-2.014-4.196-1.678-6.378l8.39-64.445c.672-4.699 5.036-8.223 9.735-7.552l64.445 8.392c2.35.335 4.363 1.51 5.706 3.356 1.342 1.846 2.014 4.196 1.678 6.377l-8.391 64.445c-.504 4.364-4.198 7.553-8.56 7.553zm-54.544-24.67 46.992 6.209 6.21-46.991-46.992-6.21-6.21 46.991z"/>
    <path fill="#027FE1" d="M153.929 83.268c-.504 0-1.175 0-1.846-.168-4.7-1.007-7.72-5.538-6.713-10.238L159.13 6.907c1.007-4.699 5.539-7.72 10.238-6.713 4.699 1.007 7.72 5.538 6.713 10.237L162.32 76.387c-.671 4.028-4.361 6.88-8.391 6.88z"/>
    <path fill="#027FE1" d="M193.871 57.087c-.503 0-1.174 0-1.846-.168L126.07 43.157c-4.7-1.007-7.72-5.538-6.713-10.237 1.007-4.7 5.538-7.72 10.237-6.713l65.956 13.762c4.699 1.007 7.72 5.538 6.713 10.237-.837 4.028-4.362 6.88-8.392 6.88z"/>
    <path fill="#8AEE49" d="M239.186 78.569a8.605 8.605 0 0 1-5.706-2.182c-2.35-2.014-3.356-5.203-2.685-8.224l11.916-56.725c.671-3.02 2.853-5.538 5.706-6.377 3.02-1.007 6.21-.336 8.559 1.678l43.467 38.264c2.35 2.014 3.356 5.203 2.685 8.224-.671 3.02-2.853 5.538-5.706 6.545l-55.383 18.293c-1.006.336-2.013.504-2.853.504zm17.284-49.005-5.706 27.355 26.684-8.895-20.978-18.46z"/>
    <path fill="gray" d="M421.945 380.838c-.667-31.383-1.511-41.283-4.362-53.36-9.901-41.285-26.51-73.002-51.517-97.838-33.394-33.222-73.162-36.236-120.815-9.061l-13.262 7.554H190.35l-13.26-7.554c-47.652-27.183-87.426-24.161-120.818 9.06-25.002 24.837-41.615 56.554-51.515 97.839-2.86 12.077-3.691 21.979-4.361 53.36-1.18 45.979.5 61.922 7.717 76.68 8.222 17.125 25.168 28.867 41.11 28.867 19.296 0 53.194-26.015 77.187-59.23l10.239-14.103h149.03l10.243 14.103c23.994 33.217 57.89 59.23 77.188 59.23 15.942 0 32.889-11.742 41.116-28.866 7.214-14.76 8.899-30.705 7.718-76.681zM155.644 320.76h-22.662v22.65c0 7.054-5.871 12.918-12.914 12.918-7.05 0-12.928-5.864-12.928-12.918v-22.65H84.49c-7.046 0-12.917-5.878-12.917-12.924s5.87-12.924 12.917-12.924h22.65v-22.65c0-7.048 5.876-12.923 12.929-12.923 7.043 0 12.914 5.875 12.914 12.924v22.649h22.662c7.042 0 12.92 5.87 12.92 12.924-.172 7.215-5.878 12.924-12.921 12.924zm166.797-70.813c10.907 0 19.803 8.896 19.803 19.803 0 10.905-8.896 19.798-19.803 19.798-10.913 0-19.802-8.886-19.802-19.798.169-10.908 8.888-19.803 19.802-19.803zM258.17 288.21c0-10.91 8.893-19.804 19.804-19.804 10.908 0 19.794 8.894 19.794 19.804 0 10.91-8.886 19.799-19.794 19.799-10.911 0-19.804-8.887-19.804-19.8zm41.106 66.95c-10.906 0-19.791-8.895-19.791-19.798 0-10.905 8.885-19.8 19.79-19.8 10.915 0 19.807 8.892 19.807 19.8-.001 10.903-8.894 19.799-19.806 19.799zm41.616-19.798c-10.905 0-19.8-8.896-19.8-19.8 0-10.91 8.895-19.804 19.8-19.804 10.913 0 19.805 8.895 19.805 19.805-.001 11.069-8.895 19.799-19.805 19.799z"/>
</svg>
