<svg version="1.1" id="Layer_1" xmlns="http://www.w3.org/2000/svg" x="0" y="0" viewBox="0 0 214.2 258.6" style="enable-background:new 0 0 214.2 258.6" xml:space="preserve">
    <style>
        .st1{fill:#0f0f11}
    </style>
    <path d="M2.2 186H212v66.7H2.2z"/>
    <path d="M214.1 188V3.2c0-1.8-1.5-3.2-3.2-3.2H3.2C1.4 0 0 1.5 0 3.2V188h14.3v6.5H0v7.1h14.3v6.5H0v7.1h14.3v6.5H0v7.1h14.3v6.5H0v7.1h14.3v6.1H0v6.9c0 1.8 1.5 3.2 3.2 3.2h207.7c1.8 0 3.2-1.5 3.2-3.2v-6.9h-14.2v-6.1h14.3v-7.1h-14.3v-6.5h14.3v-7.3h-14.3V215h14.3v-7.1h-14.3v-6.4h14.3v-7.1h-14.3v-6.5l14.2.1z" style="fill:#19191c"/>
    <path class="st1" d="M21.2 188.2h171.7v70.2H21.2z"/>
    <path d="M19.5 130.2h175v11.7h-175z"/>
    <path style="fill:#27282b" d="M19.5 131.9h175v11.7h-175z"/>
    <path class="st1" d="M19.5 131.1h175v11.7h-175z"/>
    <path d="M188 190.1H26c-1.7 0-3.1 1.4-3.1 3.1v30.5l3.8 30.3c.1 1 1 1.8 2 1.8h156.9c1 0 1.9-.8 2-1.8l3.8-30.3v-30.5c-.2-1.7-1.6-3.1-3.4-3.1z"/>
    <path id="_x23_000000ff" d="M72.4 197.8h.8c.3.1.6.2.8.5l.3.6c.4 1.2.7 2.4 1.1 3.6.9 2.9 1.7 5.7 2.6 8.6.1.2.2.3.3.4h.2c.1-.1.2-.3.3-.5.8-2.6 1.6-5.2 2.3-7.7.4-1.2.7-2.4 1.1-3.5l.3-.9c.2-.5.6-.8 1.1-.9h.6c.1 0 .3.1.3.3v.8c0 .1-.1.3-.2.3s-.3 0-.4.1c-.2.1-.3.4-.4.6-.4 1.4-.8 2.8-1.3 4.2-.8 2.5-1.5 5.1-2.3 7.6-.1.4-.4.7-.7 1-.2.2-.5.2-.8.2-.5 0-.9-.2-1.2-.5-.2-.2-.3-.4-.3-.6-.8-2.6-1.5-5.1-2.3-7.7-.4-1.3-.8-2.5-1.1-3.8-.1-.2-.1-.5-.2-.7-.1-.2-.2-.3-.4-.4-.1 0-.2 0-.3-.1-.1 0-.2-.1-.2-.2v-.8c-.1-.3-.1-.4 0-.5zm26 3c1-.1 2.1.1 3 .6.8.5 1.4 1.3 1.8 2.2.3.8.4 1.7.2 2.6-.2.9-.7 1.8-1.5 2.4-.8.7-1.9 1.1-2.9 1-1 0-2.1-.3-2.9-1-.8-.6-1.3-1.5-1.5-2.5-.1-.7-.2-1.5 0-2.2.2-.9.8-1.8 1.6-2.4.7-.3 1.4-.6 2.2-.7m.2 1.3c-1 .1-1.9.8-2.4 1.7-.5 1-.5 2.3.1 3.2.5.8 1.3 1.4 2.3 1.5.7.1 1.5 0 2.1-.4.8-.5 1.3-1.3 1.5-2.2.2-.9-.1-1.9-.7-2.7-.7-.8-1.8-1.3-2.9-1.1zm6.6-1.3c.3-.1.6 0 .8.1.4.2.6.5.8.9.6 1.6 1.1 3.1 1.7 4.7.2.5.4 1.1.6 1.7 0 .1 0 .1.1.2h.2v-5.6c0-.5 0-1 .3-1.4.3-.3.8-.4 1.2-.4.1 0 .3 0 .4.1.1.1.1.2.1.3v.7c0 .1-.1.3-.3.2h-.4c-.1.1-.1.2-.1.3V208.4c0 .4-.2.8-.5 1.1-.3.3-.8.4-1.3.2-.4-.1-.7-.4-.9-.8-.6-1.5-1.1-3.1-1.7-4.6-.2-.7-.5-1.4-.8-2h-.2v6.2c0 .4-.2.8-.6 1.1-.3.2-.7.2-1 .2h-.2c-.1 0-.1-.1-.1-.2v-.8c0-.1.1-.2.2-.2h.3c.1 0 .2-.1.2-.2v-6.2c0-.2.1-.5.3-.7.3-.5.6-.6.9-.7zm-64.4.1H43c.1 0 .2.1.2.3v.7c0 .1-.1.2-.2.2h-1.9c-.6 0-1.3.3-1.8.7-.5.5-.9 1.1-1 1.8-.1.7 0 1.4.3 2 .3.6.8 1 1.4 1.3.4.2.8.3 1.2.3h2.1c.1 0 .3-.1.3-.2.1-.2 0-.5.1-.7v-4.5c0-.5.2-.9.5-1.3.3-.3.7-.5 1.1-.6.4-.1.8-.1 1.2-.1h1c.5 0 1 .2 1.4.5.4.3.6.7.7 1.2.1.5 0 1.1-.2 1.6-.3.5-.8.8-1.3.9-.4.1-.9.1-1.4.1v.2c.5 0 .9 0 1.4.1.4.1.9.3 1.2.7.3.4.5.9.5 1.4v.5c0 .1.1.2.3.3h.3c.1 0 .1.1.1.2v.7c0 .1-.1.2-.2.3-.3 0-.6 0-.9-.1-.3-.1-.6-.4-.7-.8-.2-.4-.1-.9-.2-1.4 0-.2-.1-.4-.3-.5-.2-.1-.4-.2-.5-.2-.4 0-.8 0-1.2-.1-.4-.1-.8-.4-1-.8-.2-.4-.2-.8 0-1.2.1-.3.4-.6.8-.7.5-.2 1.1 0 1.6-.1.2 0 .4-.1.5-.3.1-.2.1-.5.1-.7 0-.2-.1-.3-.2-.4-.1-.1-.4-.2-.5-.2h-1.3c-.3 0-.7 0-.9.2-.2.2-.3.5-.3.8v4.3c0 .5 0 .9-.1 1.4-.1.3-.3.5-.5.6-.3.1-.7.1-1 .1-1 0-2.1 0-3.1-.2-.9-.2-1.7-.7-2.2-1.3-.8-1-1.2-2.4-1-3.7.1-1 .7-1.9 1.4-2.5.3-.4 1.1-.8 2-.8zm18.6.2c.4-.2.9-.3 1.3-.2.3.1.6.3.8.6.2.3.3.6.4.9.2.6.4 1.2.6 1.7.1.4.2.8 0 1.2-.1.3-.4.5-.7.7-.4.2-.9.1-1.4.1v.3h2.2c.3 0 .6.2.8.4.2.2.4.6.5.9.1.2.1.5.4.6.1.1.3 0 .4 0 .1 0 .3.1.3.2v.8c0 .1-.1.1-.2.1h-.6c-.4 0-.7-.3-1-.6-.2-.4-.3-.8-.5-1.2-.1-.1-.3-.2-.4-.2h-2.2c-.4-.1-.8-.4-.9-.7-.2-.4-.2-.9 0-1.2.2-.4.6-.7 1.1-.8h1c.1 0 .2 0 .3-.2v-.4l-.6-1.5c0-.1-.1-.2-.1-.3-.2-.2-.5-.2-.7 0v.1c-.7 1.9-1.3 3.9-2.1 5.7-.1.3-.2.6-.4.8-.2.3-.6.4-.9.4h-3c-.3 0-.7 0-1-.1-.4-.1-.8-.3-1.1-.6-.4-.4-.6-1-.6-1.6 0-.3 0-.7.1-1 .1-.2.2-.4.3-.5.2-.2.4-.3.7-.3H54.8v-.2h-2.2c-.4 0-.9-.1-1.3-.5-.3-.3-.3-.8-.3-1.2 0-.6.1-1.3.5-1.8s1-.7 1.6-.7h3c.1 0 .2.1.2.2v.7c0 .1-.1.3-.3.3h-2.2c-.3 0-.7 0-1 .1-.2.1-.4.3-.5.5-.1.2-.1.5 0 .8 0 .1.1.1.1.2.1.1.3.1.4.1h2c.4 0 .7.1 1 .4.3.2.4.6.4 1 0 .3-.1.6-.3.9-.3.3-.7.5-1.1.5h-2.3c-.1 0-.3.1-.3.2v.7c0 .2.2.4.3.5.1 0 .2.1.3.1h3.6c.2-.2.3-.4.3-.6.7-1.9 1.4-3.8 2-5.6.1-.1.3-.5.7-.7zm12.2-.2h.8c.1 0 .3.1.3.3v8.3c0 .1-.1.3-.2.3h-.8c-.1 0-.2-.1-.2-.2v-8.3c-.1-.3 0-.4.1-.4zm12.9 0H85.4c.1 0 .2.1.2.3v8.2c0 .1-.1.3-.3.3H84.4c-.1 0-.1-.1-.1-.2v-8.3c0-.2.1-.3.2-.3zm4.1 0h2.9c.1 0 .3 0 .4.1.1.1.1.2.1.3v.6c0 .1-.1.2-.3.2h-2.8c-.2 0-.4 0-.7.1-.3.1-.6.3-.7.7-.2.4-.1.9.1 1.3.2.3.6.4 1 .5h1c.5 0 1 .2 1.5.5.4.3.7.7.8 1.2.1.5.2 1 0 1.5-.2.8-.9 1.4-1.6 1.7-.3.1-.7.1-1 .1h-2.9c-.1 0-.3-.1-.3-.2v-.7c0-.1.1-.3.3-.3H89c.3 0 .6 0 .9-.1.3-.1.6-.3.7-.6.2-.4.1-1-.2-1.3-.2-.2-.6-.4-.9-.4h-1.1c-.4 0-.8-.1-1.2-.3-.5-.3-.9-.8-1.1-1.3-.4-1 0-2.2.8-2.8.6-.6 1.1-.8 1.7-.8zm4.3 0H93.8c.1 0 .2.1.2.3v8.2c0 .1-.1.3-.3.3H93c-.1 0-.3-.1-.3-.3v-8.3c0-.1.1-.2.2-.2zm-29.9.2c0-.1.1-.2.3-.2h1.5c.4 0 .9 0 1.3.2.3.1.5.3.6.6.1.2.1.5.1.8V208.2h.3v-5.6c0-.4 0-.9.3-1.2.2-.3.7-.4 1-.4h2.2c.1 0 .2.1.2.2v.7c0 .1-.1.3-.2.3h-1.7c-.2 0-.4 0-.5.2-.1.2-.1.4-.1.6V208.3c0 .4-.2.8-.6 1.1s-.8.3-1.2.2c-.5-.1-.8-.6-.9-1V203.2c0-.3 0-.6-.1-.8-.1-.2-.3-.2-.5-.2h-1.7c-.1 0-.3-.1-.3-.2v-.9z" style="fill:#fff"/>
</svg>
