<svg version="1.1" id="Layer_1" xmlns="http://www.w3.org/2000/svg" x="0" y="0" viewBox="0 0 141.3 85" style="enable-background:new 0 0 141.3 85" xml:space="preserve">
    <style>
        .st0{fill:#dd4426}
    </style>
    <path class="st0" d="M0 61.8h6.5v11.4H0zM11 61.8h6.5v11.4H11zM21.9 61.8h6.5v11.4h-6.5zM109.6 61.8h6.5v11.4h-6.5zM120.6 61.8h6.5v11.4h-6.5z"/>
    <path style="fill:#ffda00" d="M79.4 35.1h-6.7V0h-9.9v35.1h-6.7v6h23.3z"/>
    <path class="st0" d="M98.6 61.8h3.2v-5.9h-7.6v-4.3h-9V41.1H50.4v10.5h-9v4.3h-7.7v5.9h5.7v11.4h-5.7v5.3h2.6V85h63.1v-6.5h2.5v-5.3h-3.2V61.8zM50.3 73.3h-6.5V61.8h6.5v11.5zm11 0h-6.5V61.8h6.5v11.5zm11 0h-6.5V61.8h6.5v11.5zm10.9 0h-6.5V61.8h6.5v11.5zm11 0h-6.5V61.8h6.5v11.5zM32.9 61.8h.8v11.4h-.8z"/>
    <path class="st0" d="M101.8 61.8h3.3v11.4h-3.3z"/>
</svg>
