<svg id="e86dc314-5397-4d02-b95a-99e3545307bf" data-name="texte" xmlns="http://www.w3.org/2000/svg" xmlns:xlink="http://www.w3.org/1999/xlink" viewBox="0 0 470.33 67.41"><defs><style>.bb5b4bb4-81db-46ec-8a62-dbb682a571e3{stroke:#9def48;stroke-miterlimit:10;stroke-width:0.75px;fill:url(#aa524cec-f405-4653-adae-3b51cad9f81c);}.a87fdee3-cec3-40d8-b8fb-aac6293d7ec1{fill:#9def48;}</style><linearGradient id="aa524cec-f405-4653-adae-3b51cad9f81c" x1="0.38" y1="33.7" x2="469.96" y2="33.7" gradientUnits="userSpaceOnUse"><stop offset="0" stop-color="#032c02"/><stop offset="1" stop-color="#207a09"/></linearGradient></defs><polygon class="bb5b4bb4-81db-46ec-8a62-dbb682a571e3" points="0.38 5.91 102.44 5.91 108.57 0.38 150.31 0.38 158.22 5.91 461.65 6.11 469.96 16 469.96 59.72 50.81 59.72 42.7 67.03 7.89 67.03 0.38 59.72 0.38 5.91"/><path class="a87fdee3-cec3-40d8-b8fb-aac6293d7ec1" d="M79.26,37.77h4.38A17.13,17.13,0,0,1,80,45.07H55.81a18.25,18.25,0,0,1-4.22-12.26,18.22,18.22,0,0,1,4.22-12.25H80a17.13,17.13,0,0,1,3.68,7.3H79.26a17.18,17.18,0,0,0-1.47-3.23H58a16.32,16.32,0,0,0-2.34,8.18A16.41,16.41,0,0,0,58,41H77.79A18.09,18.09,0,0,0,79.26,37.77Z" transform="translate(-0.13 -0.13)"/><path class="a87fdee3-cec3-40d8-b8fb-aac6293d7ec1" d="M112.59,41h2.71a17.43,17.43,0,0,0,2.19-6.17H93.31A17.66,17.66,0,0,0,95.51,41h2.7v4.07H93.33a17.62,17.62,0,0,1-4.14-10.24H85.35v-4h3.84a17.51,17.51,0,0,1,4.14-10.22h24.14a17.54,17.54,0,0,1,4.14,10.24l-1.76,1v2.05l1.76,1a17.62,17.62,0,0,1-4.14,10.24h-4.88ZM93.31,30.78h24.18a17.27,17.27,0,0,0-2.19-6.15H95.51A17.49,17.49,0,0,0,93.31,30.78Z" transform="translate(-0.13 -0.13)"/><path class="a87fdee3-cec3-40d8-b8fb-aac6293d7ec1" d="M149.91,34.83H133A17.49,17.49,0,0,0,135.2,41h20.13l2.34,4.07H133a17.68,17.68,0,0,1-4.14-10.24H125v-4h3.84A17.57,17.57,0,0,1,133,20.56h24.66l-2.34,4.07H135.2A17.33,17.33,0,0,0,133,30.78h16.92Z" transform="translate(-0.13 -0.13)"/><path class="a87fdee3-cec3-40d8-b8fb-aac6293d7ec1" d="M169.6,38.25l-4.29,6.82h-5.08L175.8,20.56h4.69l15.44,24.51h-5l-4.24-6.82Zm14.56-4-6-9.59-6,9.59Z" transform="translate(-0.13 -0.13)"/><path class="a87fdee3-cec3-40d8-b8fb-aac6293d7ec1" d="M208.17,41.6l-4.07,4.06v-21H190.81V20.56h30.66v4.07h-13.3Z" transform="translate(-0.13 -0.13)"/><path class="a87fdee3-cec3-40d8-b8fb-aac6293d7ec1" d="M230.66,45.07h-4.07V24L230.66,20Z" transform="translate(-0.13 -0.13)"/><path class="a87fdee3-cec3-40d8-b8fb-aac6293d7ec1" d="M271.06,20.56,255.6,45.07h-4.69L235.36,20.56h5.08L253.3,41l12.75-20.45Z" transform="translate(-0.13 -0.13)"/><path class="a87fdee3-cec3-40d8-b8fb-aac6293d7ec1" d="M278.55,45.07h-4.07V24L278.55,20Z" transform="translate(-0.13 -0.13)"/><path class="a87fdee3-cec3-40d8-b8fb-aac6293d7ec1" d="M314.42,30.78l1.84,2A18.16,18.16,0,0,1,312,45.07H287.89a17.11,17.11,0,0,1-3.67-7.3h4.38A19,19,0,0,0,290.08,41h19.79a16.92,16.92,0,0,0,2.19-6.17H285.52l-1.85-2a18.22,18.22,0,0,1,4.22-12.25H312a17.13,17.13,0,0,1,3.68,7.3h-4.38a17.18,17.18,0,0,0-1.47-3.23H290.08a17.3,17.3,0,0,0-2.2,6.15Z" transform="translate(-0.13 -0.13)"/><path class="a87fdee3-cec3-40d8-b8fb-aac6293d7ec1" d="M325.46,45.07h-4.07V24L325.46,20Z" transform="translate(-0.13 -0.13)"/><path class="a87fdee3-cec3-40d8-b8fb-aac6293d7ec1" d="M359,45.07H334.81a18.2,18.2,0,0,1-4.22-12.26,18.12,18.12,0,0,1,4.22-12.25H359a18.12,18.12,0,0,1,4.23,12.25A18.2,18.2,0,0,1,359,45.07ZM356.78,41a16.5,16.5,0,0,0,2.33-8.19,16.41,16.41,0,0,0-2.33-8.18H337a16.32,16.32,0,0,0-2.34,8.18A16.41,16.41,0,0,0,337,41Z" transform="translate(-0.13 -0.13)"/><path class="a87fdee3-cec3-40d8-b8fb-aac6293d7ec1" d="M373,24.63a16.32,16.32,0,0,0-2.34,8.18A16.41,16.41,0,0,0,373,41h2.7v4.07h-4.89a18.25,18.25,0,0,1-4.22-12.26,18.17,18.17,0,0,1,4.22-12.25H395a18.12,18.12,0,0,1,4.22,12.25A18.2,18.2,0,0,1,395,45.07h-4.88V41h2.71a16.5,16.5,0,0,0,2.33-8.19,16.41,16.41,0,0,0-2.33-8.18Z" transform="translate(-0.13 -0.13)"/></svg>