<svg xmlns="http://www.w3.org/2000/svg" xmlns:xlink="http://www.w3.org/1999/xlink" viewBox="0 0 746.51 821.74"><defs><radialGradient id="a33f81d5-f2e0-4eb0-b42a-5874d177e35f" cx="65.88" cy="348.77" r="11.47" gradientUnits="userSpaceOnUse"><stop offset="0" stop-color="#fd6d66"/><stop offset=".78" stop-color="#b50a03"/></radialGradient><radialGradient id="f0e17e8e-3b3d-4b2f-9aa1-0d4d712277c5" cx="100.32" cy="382.53" r="5.66" gradientTransform="matrix(1 0 0 .6 0 153.01)" xlink:href="#e0992b47-19e9-4918-92a5-745d9228d0ec"/><radialGradient id="e0992b47-19e9-4918-92a5-745d9228d0ec" cx="92.36" cy="393.88" r="5.66" gradientTransform="matrix(1 0 0 .6 0 157.55)" gradientUnits="userSpaceOnUse"><stop offset="0" stop-color="#0000ef"/><stop offset=".15" stop-color="#0000e9"/><stop offset=".34" stop-color="#0101d9"/><stop offset=".56" stop-color="#0101be"/><stop offset=".79" stop-color="#02029a"/><stop offset="1" stop-color="#020282"/></radialGradient><radialGradient id="bd041f17-67db-402c-823d-fec53e77b96f" cx="114.61" cy="393.88" r="5.66" xlink:href="#e0992b47-19e9-4918-92a5-745d9228d0ec"/><radialGradient id="a7ff5166-16b3-4fb1-885b-99473836811c" cx="133.17" cy="400.04" r="5.66" gradientTransform="matrix(1 0 0 .6 0 160.02)" xlink:href="#e0992b47-19e9-4918-92a5-745d9228d0ec"/><radialGradient id="f32baedb-16a3-4b70-aa61-1ad4de3a8ab2" cx="139.21" cy="387.78" r="5.66" gradientTransform="matrix(1 0 0 .6 0 155.11)" xlink:href="#e0992b47-19e9-4918-92a5-745d9228d0ec"/><radialGradient id="fee5a353-9a8d-4d07-bdd3-20b17c9123b0" cx="121.61" cy="382.1" r="5.66" gradientTransform="matrix(1 0 0 .6 0 152.84)" xlink:href="#e0992b47-19e9-4918-92a5-745d9228d0ec"/><radialGradient id="f4b68fa9-7631-4d04-8067-87eb79efdee5" cx="195.83" cy="370.99" r="11.47" xlink:href="#a33f81d5-f2e0-4eb0-b42a-5874d177e35f"/><radialGradient id="ff52b11d-0e23-40ab-b95b-dac7a403cf7c" cx="225.51" cy="404.67" r="5.66" xlink:href="#a33f81d5-f2e0-4eb0-b42a-5874d177e35f"/><radialGradient id="b1f695d1-56ad-4691-ab6b-5c9184da1463" cx="246.79" cy="404.24" r="5.66" xlink:href="#a33f81d5-f2e0-4eb0-b42a-5874d177e35f"/><radialGradient id="a4ff4427-96cf-4696-9419-39a3b80b91cd" cx="264.4" cy="409.93" r="5.66" xlink:href="#a33f81d5-f2e0-4eb0-b42a-5874d177e35f"/><radialGradient id="e210e758-bad3-41f5-a996-b9f58c8b7728" cx="258.36" cy="422.19" r="5.66" xlink:href="#a33f81d5-f2e0-4eb0-b42a-5874d177e35f"/><radialGradient id="b4cf9b80-ee91-47dc-b6d6-3f11b2cc19cb" cx="239.79" cy="416.02" r="5.66" xlink:href="#a33f81d5-f2e0-4eb0-b42a-5874d177e35f"/><radialGradient id="b86b5e38-c8d2-4105-adce-62e595433ad0" cx="217.55" cy="416.02" r="5.66" xlink:href="#a33f81d5-f2e0-4eb0-b42a-5874d177e35f"/><linearGradient id="e798f24f-c51f-4d4e-9a16-cbff6090ce6c" x1="264.11" y1="1038.74" x2="264.11" y2="1120.48" gradientTransform="rotate(8.85 6565.144 109.645)" gradientUnits="userSpaceOnUse"><stop offset="0" stop-color="#009ee0"/><stop offset="1" stop-color="#004289"/></linearGradient><style>.a948dfea-46eb-4bbd-bf5b-0a3d1d7bb62d,.a94e351f-db15-4987-bfac-0657c5997c7e,.aeccc7f7-b8b1-43f7-8b47-a8792647de56,.ea16b8c0-acbb-4257-8bed-ecb2b3eae555{stroke:#b5b5b5}.a948dfea-46eb-4bbd-bf5b-0a3d1d7bb62d,.a94e351f-db15-4987-bfac-0657c5997c7e,.aeccc7f7-b8b1-43f7-8b47-a8792647de56,.b35b7845-989b-4569-bf5b-e9e9af0be89f,.b9b268b2-d946-4153-947e-414d09d74657,.ea16b8c0-acbb-4257-8bed-ecb2b3eae555,.eaad8d9c-1897-4d16-90ab-8e71e87094dc{stroke-miterlimit:10}.a948dfea-46eb-4bbd-bf5b-0a3d1d7bb62d,.a94e351f-db15-4987-bfac-0657c5997c7e,.aeccc7f7-b8b1-43f7-8b47-a8792647de56,.ea16b8c0-acbb-4257-8bed-ecb2b3eae555,.eaad8d9c-1897-4d16-90ab-8e71e87094dc{stroke-width:.5px}.b35b7845-989b-4569-bf5b-e9e9af0be89f{fill:#443840;stroke:#090000}.eaad8d9c-1897-4d16-90ab-8e71e87094dc{stroke:#090000}.b35b7845-989b-4569-bf5b-e9e9af0be89f{stroke-width:.75px}.eaad8d9c-1897-4d16-90ab-8e71e87094dc{fill:#6b0c05}.e72858c6-0bd5-405c-8883-3bf73255e632{fill:#86382f}.b9b268b2-d946-4153-947e-414d09d74657{stroke:#373737}.aa2b9001-6d01-481b-bc0e-75998b17bde8{fill:#00419c}.b2587a37-091e-49c7-bebd-e4d33e3726c6{fill:#344d7a}.ab1b71c9-af5d-4e78-92fd-844d79818dd0{fill:#ffcb08}.aeccc7f7-b8b1-43f7-8b47-a8792647de56{fill:#dc6e05}.a948dfea-46eb-4bbd-bf5b-0a3d1d7bb62d{fill:#12e600}.a94e351f-db15-4987-bfac-0657c5997c7e{fill:#0b47ce}.b69becae-0578-40f5-93b5-2ff966e8587f{fill:#fff}.e715f3ce-c47f-439f-a00d-6f3ac93a37d3,.ea16b8c0-acbb-4257-8bed-ecb2b3eae555{fill:#282826}.b9b6daed-071e-4a7a-8151-dd2b965d3391{fill:#ae7a82}.f17b5293-3bed-4642-88c7-6f29c6c4c7c4{fill:url(#a33f81d5-f2e0-4eb0-b42a-5874d177e35f)}.beb767b8-1413-4b70-9984-cfc318e3f8df{fill:url(#f4b68fa9-7631-4d04-8067-87eb79efdee5)}.abef4e19-ac79-4f17-b804-e3c861a392db{fill:#0000ef}.f33f5999-2035-4e33-a469-7a307f085752{fill:#930303}.e312188a-d533-4aad-be78-a444acb79926{fill:#e7e7e7}.b7a3ceb7-f5a7-4964-918e-95d867a642d5{fill:#2c2b29}.bf56a41b-e735-4c6d-a902-ddcf16759a7d{fill:#0c4da1}</style></defs><g id="ea3863d9-137c-4caa-bcb5-ed0a56ee9f73" data-name="Calque 1"><path id="a7c47b56-fd83-4df5-addc-4de54cad2917" data-name="ombre" style="opacity:.5;fill:#373735" d="m452.03 588.79 21.51-5.91H485.41l1.58 2.96 237.36 43.3h11.08l11.07 31.39-46.41 37.71-46.42 13.19-8.18-1.32.27-1.85-13.98-2.63-83.6 27.95-73.32 51.57-22.83 6.82-7.77-1.16v-2.63l-16.08-3.03-129.99 34.37 153.84-230.73z"/><g id="bc9165e5-e027-4670-8991-d6df6a2e39cf" data-name="bottom"><path style="fill:#324d7b" d="m36 454.56 224.9 39.62v4.35l25.72 6.13-.4 311.34-248.24-47.27L36 454.56z"/><path d="m202 526.54-78.38-13.74c-3 .19-4.26 3.56-4.26 3.56l.2 85c.69 2.18 3.86 5 3.86 5l74.27 13.46c5.14.49 7.52-5.25 7.52-5.25v-82.69a7.12 7.12 0 0 0-3.21-5.34zm-49.9 22.55-18.69-3.46v-20l2.27-1.88 18.1 3.07-1.78 2.69zm31.45 6.13-18.69-3.46v-20l2.27-1.87 18.1 3.06-1.78 2.67z" transform="translate(-.98 -.52)" style="stroke-width:.5px;stroke-miterlimit:10;stroke:#b5b5b5;fill:#121211"/><path class="b35b7845-989b-4569-bf5b-e9e9af0be89f" d="m134.7 523.25-2.27 1.88v19.98l18.69 3.46-.1-19.58 1.78-2.67-18.1-3.07zM166.15 529.38l-2.27 1.88v19.98l18.69 3.46-.1-19.58 1.78-2.67-18.1-3.07z"/><path class="eaad8d9c-1897-4d16-90ab-8e71e87094dc" d="M140.14 543.03v-12.85l8.01 1.78v12.56l-8.01-1.49zM171.2 548.87v-12.86l8.01 1.78v12.56l-8.01-1.48z"/><path d="M135.23 543.16v-15.23l2.05.4v15.16l-2.05-.33zM166.68 548.7v-15.23l2.04.4v15.16l-2.04-.33z"/><path class="e72858c6-0bd5-405c-8883-3bf73255e632" d="M140.4 530.69v-.35l7.47 1.8.01.43-7.48-1.88zM171.46 536.62v-.29l7.47 1.64.01.35-7.48-1.7z"/><circle cx="192.4" cy="574.85" r="4.25" style="fill:#8b8b8b;stroke-width:.75px;stroke:#090000;stroke-miterlimit:10"/><path class="b9b268b2-d946-4153-947e-414d09d74657" d="M136.29 598.71v-11.27l11.96 2.18v11.3l-11.96-2.21zM167.54 604.25v-11.27l11.96 2.17v10.88l-11.96-1.78z"/></g><g id="ed9f017f-34f9-4b4a-8448-ea3008fc4b68" data-name="t molding"><path class="aa2b9001-6d01-481b-bc0e-75998b17bde8" d="m11.46 450.59-.79-39.76L1 407.66v45.1l27.89 5.54c.59 103.55 1 207.6 1.58 311.15a6.18 6.18 0 0 0 3.53 2.19 12.58 12.58 0 0 0 5 0l-2-316.56zM272.36 497v-41.27l-10.28-1.19-.2 44.51 25.71 6.13s-1.51 313.85 0 315.69 8.77 1.32 8.77 1.32l.93-319.91z" transform="translate(-.98 -.52)"/><path class="aa2b9001-6d01-481b-bc0e-75998b17bde8" d="m78.72 346.42-8.15-1.3 16.26-218.56 9.04 1.5-17.15 218.36zM329.24 388.85l9.1 1.28 18.49-224.31h-26.37l-.26-90.92-10.06-1.84v94.84l6.04 1.09h20.27l-17.21 219.86z"/><path class="aa2b9001-6d01-481b-bc0e-75998b17bde8" d="M88.49 127.19s-28.17-.35-29.11-.85c0-31.21.06-62.83 0-94l9.36 2.64.48 89.02z" transform="translate(-.98 -.52)"/><g id="b5a71671-396f-4f77-8d6a-cb28d7b246e1" data-name="clair"><path class="aa2b9001-6d01-481b-bc0e-75998b17bde8" d="m0 407.14 9.69 3.17L78 346.25l-8.11-1.94L0 407.14zM261.1 454.02l10.28 1.19 66.96-65.87-8.62-1.6-68.62 66.28zM111.56 0 58.42 31.78l9.36 2.64L120.36 3.3l2.74-1.62-2.57-.36L111.56 0zM383.74 40.62l-11.21-.8-52.39 33.24 10.06 1.84 53.54-34.28z"/></g></g><g id="b547172e-08a0-46cd-8c04-23e98093e50f" data-name="side"><path class="b2587a37-091e-49c7-bebd-e4d33e3726c6" d="m453.13 308.64.63-159.63-70.02-108.39L330.2 74.9l.26 90.92h26.37l-18.49 224.31-66.96 65.08v41.27l24.93 5.28-.93 319.91 8.25-6.32 149.65-543.7-.21 21.51-142.1 516.55-1.61 1.24 6.94-5.32 136.83-496.99zM324.06 799.15l-7.76 6.48 11.99-9.2 124.7-453.24.05-12.13-128.98 468.09zM335.43 790.95l-1.32 1.02 6.87-5.27 111.79-407.64v21.25l.22-57.12-.22 24-117.34 423.76zM343 785.15l108.58-83.28 1.18-299.85L347.4 781.78l-4.4 3.37z"/><path style="fill:#bf0000;stroke-width:.5px;stroke-miterlimit:10;stroke:#b5b5b5" d="m303.63 815.35 5.73-4.4-5.73 4.4z"/><path class="ab1b71c9-af5d-4e78-92fd-844d79818dd0" d="m453.07 293.16.21-21.51-149.65 543.7 5.73-4.4 1.61-1.24 142.1-516.55z"/><path class="aeccc7f7-b8b1-43f7-8b47-a8792647de56" d="M453.13 330.74v-22.1l-.09 22.42.09-.32zM316.3 805.63z"/><path class="aa2b9001-6d01-481b-bc0e-75998b17bde8" d="m453.04 331.06.09-22.42L316.3 805.63l7.76-6.48 128.98-468.09z"/><path class="a948dfea-46eb-4bbd-bf5b-0a3d1d7bb62d" d="M452.99 343.19zM328.29 796.43l5.82-4.46-5.82 4.46z"/><path style="fill:#509fec" d="m334.11 791.97 1.32-1.02 117.34-423.76.22-24-124.7 453.24 5.82-4.46z"/><path class="a94e351f-db15-4987-bfac-0657c5997c7e" d="m340.98 786.7 2.02-1.55-2.02 1.55zM452.77 402v-1.69l-.01 1.71.01-.02z"/><path class="b69becae-0578-40f5-93b5-2ff966e8587f" d="m340.98 786.7 2.02-1.55 4.4-3.37 105.36-379.76.01-1.71v-21.25L340.98 786.7z"/></g><g id="a5fc5772-6d3c-46bf-a063-f251a9daa953" data-name="panel"><path class="ea16b8c0-acbb-4257-8bed-ecb2b3eae555" d="m10.48 450.07 250.42 44.11.2-40.16L9.69 410.31l.79 39.76z"/><path style="fill:#373735" d="m79.37 345.21-69.68 65.1 251.41 43.71 68.62-66.28-250.35-42.53z"/></g><g id="f8e42309-cc8c-4c07-a158-5deb92fd980f" data-name="ecran"><path class="ea16b8c0-acbb-4257-8bed-ecb2b3eae555" d="M96.84 129.36 79.7 347.72l250.52 42.43L347.82 168zm224.28 67.76c0 .2-.29.32-.48.49l-10.43 144.83a35.43 35.43 0 0 1-4.3 3.78l1.4.29v10.7s-1.4 4.75-11.08 2.64c-11.19-2.44-178.55-31.91-178.55-31.91l8.72-6.78v-1.39s-2.46.52-6-7l-12.48 2.77h-4l11.34-158.77s4-6.85 10.81-6.59 191.16 30.59 191.16 30.59 6.17 1.07 3.89 16.35z" transform="translate(-.98 -.52)"/><path d="M317.28 180S133 149.66 126.12 149.4s-10.81 6.6-10.81 6.6l-11.74 160.08h4.35l12.29-2.68c-.1-.23-.74-1.57-.85-1.8L131 166.54s2.11-5.54 7.12-7.38l177.49 27.16a20.77 20.77 0 0 1 5.11 9.76l-.05.75c.19-.17.62.66.66.47 3.23-14.06-4.05-17.3-4.05-17.3z" transform="translate(-.98 -.52)" style="fill:#151312"/><path d="m125.32 320-8.56 8s164.63 29.3 178.61 32.24c10.36 2.17 14.43-3.58 14.43-3.58l.61-7.37.39-7.71-4.89 3.84a20.85 20.85 0 0 1-7.73 3.87z" transform="translate(-.98 -.52)" style="fill:#555353"/><path d="M319.5 197.81c.45-.36.83-.69 1.14-1l.66-.52a20.31 20.31 0 0 0-5.72-10l-177.49-27.13c-5 1.84-7.12 7.38-7.12 7.38L119.36 311.6l.32.66c3.54 7.52 6.28 8 6.28 8l.44.08 171.78 28.93a20.85 20.85 0 0 0 7.73-3.87c2.57-1.91 4.89-3.84 4.89-3.84l10.5-145.29c-.44.46-1.05.96-1.8 1.54zM143.83 302.35z" transform="translate(-.98 -.52)" style="fill:#008aa6"/></g><g id="b11c87cc-ae45-4276-a6f7-5334aebe8b14" data-name="top"><path id="a68f14ac-ce1f-4268-8e49-1a186b38e0c5" data-name="marquee" class="ab1b71c9-af5d-4e78-92fd-844d79818dd0" d="m68.24 123.5 251.47 39.03.43-89.47L67.78 34.42l.46 89.08z"/><path class="b2587a37-091e-49c7-bebd-e4d33e3726c6" d="m128.84 2.64-5.74-.96-55.32 32.74 252.36 38.64 52.39-33.24L128.84 2.64z"/></g><g id="aeab40c4-ff48-4d05-8365-1004561c7449" data-name="stickp1"><path class="e715f3ce-c47f-439f-a00d-6f3ac93a37d3" d="M68.92 377.27v5.16H62.4v-5.16c-5.06.64-8.77 2.7-8.77 5.16 0 3 5.38 5.35 12 5.35s12-2.39 12-5.35c.06-2.43-3.63-4.52-8.71-5.16z" transform="translate(-.98 -.52)"/><path class="b9b6daed-071e-4a7a-8151-dd2b965d3391" d="M68.92 377.27v-17.78a12.18 12.18 0 0 1-3 .39 12.4 12.4 0 0 1-3.48-.49v17.88a26.67 26.67 0 0 1 6.52 0z" transform="translate(-.98 -.52)"/><path class="b9b6daed-071e-4a7a-8151-dd2b965d3391" d="M68.92 382.43v-5.16a26.67 26.67 0 0 0-6.52 0v5.16z" transform="translate(-.98 -.52)"/><path class="f17b5293-3bed-4642-88c7-6f29c6c4c7c4" d="M68.92 358.89v.6a11.24 11.24 0 0 0 8.77-10.72c0-6.14-5.29-11.11-11.81-11.11s-11.82 5-11.82 11.11a11.22 11.22 0 0 0 8.34 10.62v-.5z" transform="translate(-.98 -.52)"/><path class="b9b6daed-071e-4a7a-8151-dd2b965d3391" d="M68.92 359.49v-.6H62.4v.5a12.4 12.4 0 0 0 3.48.49 12.18 12.18 0 0 0 3.04-.39z" transform="translate(-.98 -.52)"/><path class="f17b5293-3bed-4642-88c7-6f29c6c4c7c4" d="M68.92 359.49v-.6H62.4v.5a12.4 12.4 0 0 0 3.48.49 12.18 12.18 0 0 0 3.04-.39z" transform="translate(-.98 -.52)"/></g><g id="e605abfa-79e1-4828-bdcf-63b7feee1a38" data-name="stickp2"><path class="e715f3ce-c47f-439f-a00d-6f3ac93a37d3" d="M198.88 399.49v5.16h-6.53v-5.16c-5 .64-8.77 2.7-8.77 5.16 0 3 5.39 5.35 12 5.35s12-2.39 12-5.35c.07-2.46-3.64-4.52-8.7-5.16z" transform="translate(-.98 -.52)"/><path class="b9b6daed-071e-4a7a-8151-dd2b965d3391" d="M198.88 399.49v-17.78a12.2 12.2 0 0 1-3 .39 12.83 12.83 0 0 1-3.48-.49v17.88a26.75 26.75 0 0 1 6.53 0z" transform="translate(-.98 -.52)"/><path class="b9b6daed-071e-4a7a-8151-dd2b965d3391" d="M198.88 404.65v-5.16a26.75 26.75 0 0 0-6.53 0v5.16z" transform="translate(-.98 -.52)"/><path class="beb767b8-1413-4b70-9984-cfc318e3f8df" d="M198.88 381.11v.6a11.24 11.24 0 0 0 8.77-10.71c0-6.14-5.29-11.11-11.82-11.11S184 364.85 184 371a11.22 11.22 0 0 0 8.34 10.62v-.5z" transform="translate(-.98 -.52)"/><path class="b9b6daed-071e-4a7a-8151-dd2b965d3391" d="M198.88 381.71v-.6h-6.53v.5a12.83 12.83 0 0 0 3.48.49 12.2 12.2 0 0 0 3.05-.39z" transform="translate(-.98 -.52)"/><path class="beb767b8-1413-4b70-9984-cfc318e3f8df" d="M198.88 381.71v-.6h-6.53v.5a12.83 12.83 0 0 0 3.48.49 12.2 12.2 0 0 0 3.05-.39z" transform="translate(-.98 -.52)"/></g><g id="b9405ef2-461f-410c-8421-49b5fe90c13a" data-name="boutons P1"><g id="b7662205-be47-4a9a-95b9-fbb8182fd464" data-name="4"><path class="abef4e19-ac79-4f17-b804-e3c861a392db" d="M92.54 389.14c-3.86 0-8.12 1.53-8.12 4.87 0 2.95 4.1 4.62 7.94 4.62 4.11 0 8-1.73 8-4.88-.04-2.35-3.88-4.61-7.82-4.61zm-.18 8.63c-3.86 0-7-1.74-7-3.89s3.13-3.89 7-3.89 7 1.74 7 3.89-3.14 3.89-7 3.89z" transform="translate(-.98 -.52)"/><path d="M92.36 390c-3.86 0-7 1.74-7 3.89s3.13 3.89 7 3.89 7-1.74 7-3.89-3.14-3.89-7-3.89z" transform="translate(-.98 -.52)" style="fill:url(#e0992b47-19e9-4918-92a5-745d9228d0ec)"/></g><g id="b1e92238-62e0-4638-b1b4-a82280947d92" data-name="5"><path class="abef4e19-ac79-4f17-b804-e3c861a392db" d="M114.79 389.14c-3.86 0-8.12 1.53-8.12 4.87 0 2.95 4.1 4.62 7.94 4.62 4.11 0 8-1.73 8-4.88-.04-2.35-3.88-4.61-7.82-4.61zm-.18 8.63c-3.86 0-7-1.74-7-3.89s3.13-3.89 7-3.89 7 1.74 7 3.89-3.14 3.89-7 3.89z" transform="translate(-.98 -.52)"/><path d="M114.61 390c-3.86 0-7 1.74-7 3.89s3.13 3.89 7 3.89 7-1.74 7-3.89-3.14-3.89-7-3.89z" transform="translate(-.98 -.52)" style="fill:url(#bd041f17-67db-402c-823d-fec53e77b96f)"/></g><g id="ab8b51b1-4ef9-4c95-9490-cd0faaddf69a" data-name="6"><path class="abef4e19-ac79-4f17-b804-e3c861a392db" d="M133.35 395.3c-3.86 0-8.13 1.53-8.13 4.87 0 3 4.11 4.62 7.95 4.62 4.1 0 8-1.73 8-4.88-.04-2.35-3.88-4.61-7.82-4.61zm-.18 8.63c-3.86 0-7-1.74-7-3.89s3.13-3.89 7-3.89 7 1.74 7 3.89-3.17 3.89-7 3.89z" transform="translate(-.98 -.52)"/><path d="M133.17 396.15c-3.86 0-7 1.74-7 3.89s3.13 3.89 7 3.89 7-1.74 7-3.89-3.17-3.89-7-3.89z" transform="translate(-.98 -.52)" style="fill:url(#a7ff5166-16b3-4fb1-885b-99473836811c)"/></g><g id="e955d0cb-90f7-4da3-bb3c-001b4d858857" data-name="3"><path class="abef4e19-ac79-4f17-b804-e3c861a392db" d="M139.39 383c-3.86 0-8.13 1.53-8.13 4.88 0 2.95 4.11 4.61 8 4.61 4.1 0 8-1.73 8-4.88-.09-2.31-3.93-4.61-7.87-4.61zm-.18 8.63c-3.86 0-7-1.74-7-3.89s3.13-3.89 7-3.89 7 1.75 7 3.89-3.14 3.93-7 3.93z" transform="translate(-.98 -.52)"/><path d="M139.21 383.89c-3.86 0-7 1.75-7 3.89s3.13 3.89 7 3.89 7-1.74 7-3.89-3.14-3.89-7-3.89z" transform="translate(-.98 -.52)" style="fill:url(#f32baedb-16a3-4b70-aa61-1ad4de3a8ab2)"/></g><g id="f7a135c0-ae3c-4459-b120-6eb289ebee01" data-name="2"><path class="abef4e19-ac79-4f17-b804-e3c861a392db" d="M121.79 377.35c-3.86 0-8.12 1.53-8.12 4.88 0 2.95 4.1 4.61 7.94 4.61 4.11 0 8-1.73 8-4.88-.04-2.34-3.88-4.61-7.82-4.61zm-.18 8.64c-3.86 0-7-1.74-7-3.89s3.13-3.89 7-3.89 7 1.74 7 3.89-3.14 3.9-7 3.9z" transform="translate(-.98 -.52)"/><path d="M121.61 378.21c-3.86 0-7 1.74-7 3.89s3.13 3.89 7 3.89 7-1.74 7-3.89-3.14-3.89-7-3.89z" transform="translate(-.98 -.52)" style="fill:url(#fee5a353-9a8d-4d07-bdd3-20b17c9123b0)"/></g><g id="e3312a3a-3082-4e62-acd3-bcf1be22f388" data-name="1"><path class="abef4e19-ac79-4f17-b804-e3c861a392db" d="M100.5 377.78c-3.86 0-8.13 1.53-8.13 4.88 0 2.95 4.11 4.62 7.95 4.62 4.1 0 8-1.73 8-4.88-.04-2.35-3.88-4.62-7.82-4.62zm-.18 8.64c-3.86 0-7-1.74-7-3.89s3.13-3.89 7-3.89 7 1.74 7 3.89-3.14 3.89-7 3.89z" transform="translate(-.98 -.52)"/><path d="M100.32 378.64c-3.86 0-7 1.74-7 3.89s3.13 3.89 7 3.89 7-1.74 7-3.89-3.14-3.89-7-3.89z" transform="translate(-.98 -.52)" style="fill:url(#f0e17e8e-3b3d-4b2f-9aa1-0d4d712277c5)"/></g></g><g id="bb45cbb5-7cab-4656-a4dc-fc224e3c296a" data-name="boutons P2"><g id="aeaf6f43-7962-49d3-a732-982357494b8a" data-name="1"><path class="f33f5999-2035-4e33-a469-7a307f085752" d="M225.69 399.93c-3.86 0-8.13 1.53-8.13 4.87 0 2.95 4.11 4.62 7.95 4.62 4.1 0 8-1.73 8-4.88-.04-2.35-3.88-4.61-7.82-4.61zm-.18 8.63c-3.86 0-7-1.74-7-3.89s3.13-3.89 7-3.89 7 1.74 7 3.89-3.14 3.89-7 3.89z" transform="translate(-.98 -.52)"/><path d="M225.51 400.78c-3.86 0-7 1.74-7 3.89s3.13 3.89 7 3.89 7-1.74 7-3.89-3.14-3.89-7-3.89z" transform="translate(-.98 -.52)" style="fill:url(#ff52b11d-0e23-40ab-b95b-dac7a403cf7c)"/></g><g id="bf9018f2-18e5-4dc2-aad6-b8c2f696dd3a" data-name="2"><path class="f33f5999-2035-4e33-a469-7a307f085752" d="M247 399.49c-3.86 0-8.13 1.54-8.13 4.88 0 2.95 4.11 4.62 7.95 4.62 4.1 0 8-1.73 8-4.88-.07-2.35-3.91-4.62-7.82-4.62zm-.18 8.64c-3.86 0-7-1.74-7-3.89s3.13-3.89 7-3.89 7 1.74 7 3.89-3.17 3.89-7.03 3.89z" transform="translate(-.98 -.52)"/><path d="M246.79 400.35c-3.86 0-7 1.74-7 3.89s3.13 3.89 7 3.89 7-1.74 7-3.89-3.14-3.89-7-3.89z" transform="translate(-.98 -.52)" style="fill:url(#b1f695d1-56ad-4691-ab6b-5c9184da1463)"/></g><g id="a09cea5c-4d02-4987-a104-5577e4e0fa1d" data-name="3"><path class="f33f5999-2035-4e33-a469-7a307f085752" d="M264.58 405.18c-3.86 0-8.12 1.53-8.12 4.88 0 2.95 4.1 4.61 7.94 4.61 4.1 0 8-1.73 8-4.88-.04-2.35-3.88-4.61-7.82-4.61zm-.18 8.64c-3.86 0-7-1.75-7-3.89s3.13-3.89 7-3.89 7 1.74 7 3.89-3.14 3.89-7 3.89z" transform="translate(-.98 -.52)"/><path d="M264.4 406c-3.86 0-7 1.74-7 3.89s3.13 3.89 7 3.89 7-1.75 7-3.89-3.14-3.89-7-3.89z" transform="translate(-.98 -.52)" style="fill:url(#a4ff4427-96cf-4696-9419-39a3b80b91cd)"/></g><g id="a7a96e08-44b2-4247-8c40-85dd492f39ee" data-name="4"><path class="f33f5999-2035-4e33-a469-7a307f085752" d="M258.54 417.44c-3.86 0-8.13 1.53-8.13 4.88 0 2.95 4.11 4.61 8 4.61 4.1 0 8-1.73 8-4.88-.09-2.35-3.93-4.61-7.87-4.61zm-.18 8.64c-3.86 0-7-1.75-7-3.89s3.13-3.89 7-3.89 7 1.74 7 3.89-3.14 3.89-7 3.89z" transform="translate(-.98 -.52)"/><path d="M258.36 418.3c-3.86 0-7 1.74-7 3.89s3.13 3.89 7 3.89 7-1.75 7-3.89-3.14-3.89-7-3.89z" transform="translate(-.98 -.52)" style="fill:url(#e210e758-bad3-41f5-a996-b9f58c8b7728)"/></g><g id="a283027e-4a57-4b47-8174-77c9ff72d3b1" data-name="5"><path class="f33f5999-2035-4e33-a469-7a307f085752" d="M240 411.28c-3.86 0-8.13 1.53-8.13 4.88 0 2.95 4.11 4.61 7.95 4.61 4.1 0 8-1.73 8-4.88-.07-2.35-3.91-4.61-7.82-4.61zm-.18 8.63c-3.86 0-7-1.74-7-3.89s3.13-3.89 7-3.89 7 1.75 7 3.89-3.17 3.89-7.03 3.89z" transform="translate(-.98 -.52)"/><path d="M239.79 412.13c-3.86 0-7 1.75-7 3.89s3.13 3.89 7 3.89 7-1.74 7-3.89-3.14-3.89-7-3.89z" transform="translate(-.98 -.52)" style="fill:url(#b4cf9b80-ee91-47dc-b6d6-3f11b2cc19cb)"/></g><g id="a3b4ea9d-fab7-4ff7-b75a-8a5ea3de299b" data-name="6"><path class="f33f5999-2035-4e33-a469-7a307f085752" d="M217.73 411.28c-3.86 0-8.13 1.53-8.13 4.88 0 2.95 4.11 4.61 8 4.61 4.1 0 8-1.73 8-4.88-.09-2.35-3.93-4.61-7.87-4.61zm-.18 8.63c-3.86 0-7-1.74-7-3.89s3.13-3.89 7-3.89 7 1.75 7 3.89-3.14 3.89-7 3.89z" transform="translate(-.98 -.52)"/><path d="M217.55 412.13c-3.86 0-7 1.75-7 3.89s3.13 3.89 7 3.89 7-1.74 7-3.89-3.14-3.89-7-3.89z" transform="translate(-.98 -.52)" style="fill:url(#b86b5e38-c8d2-4105-adce-62e595433ad0)"/></g></g><path class="e312188a-d533-4aad-be78-a444acb79926" d="M228.57 237.19v.07l-5.92-1v-.08zM236.56 238.53a.13.13 0 0 0 0 .06l-5.72-1v-.06z" transform="translate(-.98 -.52)"/><path class="b7a3ceb7-f5a7-4964-918e-95d867a642d5" d="m210.17 273.38-65.56-11c-.87-.14-.87-.14-.74-.92.25-1.54.47-3.08.75-4.61.78-4.31 1.48-8.63 2.22-12.95.09-.48.22-1 .29-1.44 0-.18.12-.23.31-.19l.75.13 119.31 19.98a16.13 16.13 0 0 1 4.69 1.42 11.54 11.54 0 0 1 5.67 5.9 8.36 8.36 0 0 1 .63 3.88c0 .38-.08.76-.15 1.14l-1.56 9.36c-.07.39-.13.42-.54.36l-40.11-6.72zm14.68-7.7c-.4 2.35-.79 4.71-1.19 7.07 0 .23 0 .34.3.38 1 .15 1.95.32 2.93.49.51.09.51.09.59-.37q.69-4.22 1.4-8.43c0-.08 0-.21.12-.22s.13.1.17.17c1.69 3.14 3.43 6.26 5.06 9.42a2.38 2.38 0 0 0 3.55.6c.9-.94 1.91-1.79 2.87-2.68l4.89-4.53c.08-.07.15-.22.26-.17s0 .2 0 .31v.12c-.47 2.79-.93 5.58-1.4 8.37 0 .25 0 .35.31.4 1 .16 2 .32 3.06.51.34.07.45 0 .49-.32l2.32-13.83a1.32 1.32 0 0 0-.25-1 2.34 2.34 0 0 0-3.26-.37l-2.16 2-8.12 7.4c-.25.23-.28.22-.45-.08-2.2-4.06-4.42-8.11-6.61-12.17a2.14 2.14 0 0 0-1.43-1.06A1.74 1.74 0 0 0 226 259zm-4.51-.71c.38-2.31.76-4.61 1.16-6.92a1.32 1.32 0 0 0-.45-1.21 2.4 2.4 0 0 0-3.17 0c-2.39 2.24-4.82 4.43-7.24 6.63l-2.95 2.7c-.13.12-.23.25-.37 0l-3.44-6.31c-1.1-2-2.19-4-3.3-6a2.24 2.24 0 0 0-2.21-1 1.52 1.52 0 0 0-1.5 1.37q-1.16 6.86-2.3 13.71c0 .28.05.37.35.41 1 .15 2 .32 3 .5.44.07.45.08.51-.3.46-2.73.91-5.46 1.37-8.19 0-.13 0-.27.06-.4s0-.16.11-.17.1.08.13.14.18.34.28.51c1.63 3 3.29 6 4.88 9.07a2.34 2.34 0 0 0 3.35.6c.47-.47 1-.91 1.48-1.37l6.5-6c.06-.05.09-.14.19-.11s.07.14.06.22c-.14.81-.28 1.62-.41 2.44-.35 2.06-.69 4.13-1 6.2 0 .22 0 .32.29.36l3 .5c.44.07.45.07.52-.31q.51-3.6 1.1-7.04zm33.15 5.67c-.38 2.28-.76 4.57-1.15 6.85-.06.31.06.41.38.45 1 .16 2 .32 3 .5.33.07.45 0 .5-.31.16-1 .35-2.08.51-3.12 0-.23.12-.33.4-.28l12.77 2.14c.33.05.39.18.34.45-.18 1-.34 2.08-.53 3.12-.05.25 0 .35.32.4 1 .15 2 .32 3 .49.45.07.46.07.53-.34l1.22-7.32a6.88 6.88 0 0 0-2.51-6.52 12.61 12.61 0 0 0-6.36-3c-2.38-.41-4.76-.8-7.13-1.19-.72-.12-1.45-.26-2.17-.35a1.6 1.6 0 0 0-1.91 1.29c-.46 2.27-.83 4.5-1.21 6.74zm-62.24-10.42 1.14-6.79a1.24 1.24 0 0 0 0-.47 1.91 1.91 0 0 0-1.63-1.33c-1.55-.26-3.1-.53-4.65-.77-1.84-.3-3.66-.71-5.51-.87a11.55 11.55 0 0 0-7 1.39 6.55 6.55 0 0 0-3.37 4.67q-.63 3.74-1.25 7.47c-.07.4-.07.4.36.47 1 .17 2 .32 2.93.5.33.06.45 0 .5-.31.15-1 .34-2.06.5-3.09 0-.29.17-.35.48-.3l12.67 2.12c.34 0 .42.16.37.46-.19 1-.35 2.08-.54 3.11 0 .26 0 .36.32.4 1 .16 2 .32 3 .51.33.06.44 0 .49-.32.42-2.28.81-4.57 1.19-6.85zm-38.3 1 6.47 1.08a7.76 7.76 0 0 0 2.76 0 3.93 3.93 0 0 0 3.34-2.92c.64-3.78 1.26-7.55 1.9-11.33.05-.27 0-.37-.33-.42-1-.15-2-.32-3-.5-.36-.07-.46 0-.51.33q-.92 5.58-1.86 11.15a1.08 1.08 0 0 1-1.24.95 4.41 4.41 0 0 1-.73-.08c-1-.18-2-.37-3.06-.54l-7-1.15c-.28-.05-.35-.15-.31-.38.11-.59.19-1.18.31-1.76.06-.28 0-.4-.35-.45-.84-.13-1.68-.26-2.52-.42-.34-.07-.44 0-.49.32-.24 1.49-.49 3-.74 4.45-.07.42-.07.42.42.5zM230.83 237.63l5.72 1c.15.09.15.2.13.35-.37 2.17-.73 4.34-1.11 6.51 0 .29 0 .38.34.43 3.09.5 6.18 1 9.27 1.54.32.05.34.16.31.44-.06.67-.23 1.33-.32 2-.22 1.55-.54 3.09-.8 4.63-.1.59-.17 1.19-.26 1.78 0 .2-.12.31-.4.26L228.57 254c-.65-.11-.65-.11-.56-.68q1.29-7.69 2.57-15.38c.02-.15.02-.31.25-.31zm3.94 12.7c-.13.78-.25 1.56-.39 2.34-.05.27 0 .38.33.43 1.06.16 2.11.34 3.16.53.32.06.44 0 .49-.31.25-1.55.51-3.1.78-4.66 0-.24 0-.34-.31-.38q-1.62-.25-3.24-.54c-.28-.05-.39 0-.43.27-.16.78-.26 1.55-.39 2.32zM255.63 249.17c2.55.43 5.09.86 7.64 1.27.34.06.42.17.37.47q-.7 4.14-1.39 8.3c-.07.37-.1.4-.52.33L246.38 257c-.27-.05-.34-.16-.3-.39q.72-4.21 1.41-8.43c0-.28.18-.33.47-.28 2.55.44 5.11.86 7.67 1.29zm1.31 4.88c.14-.8.27-1.6.41-2.4 0-.23 0-.36-.3-.4l-3.44-.58c-.26 0-.38 0-.42.27l-.81 4.85c0 .25.05.36.33.41l3.37.56c.3.06.42 0 .46-.3.13-.8.27-1.6.4-2.41zM173.53 244.78l-7.64-1.27c-.31 0-.37-.15-.33-.42q.72-4.2 1.42-8.42c0-.25.13-.32.4-.27l15.36 2.6c.41.07.43.11.37.49-.26 1.55-.53 3.11-.78 4.66 0 .31-.17.37-.5.32-3.07-.53-6.15-1-9.22-1.55-.46-.08-.46-.08-.52.32s-.11.7-.19 1 0 .35.31.4c2.06.33 4.11.68 6.17 1l3.16.53c.32.05.42.17.37.44s-.14.74-.19 1.11-.18.38-.51.32zm.92-5.45c.56.1 1.13.18 1.69.29.25 0 .35 0 .38-.25 0-.39.12-.78.2-1.17 0-.21 0-.32-.26-.36l-3.41-.57c-.22 0-.33 0-.36.23q-.08.62-.18 1.23c0 .23.06.3.29.33.55.07 1.1.17 1.65.27zM211.28 241.75l7.64 1.28c.44.07.5.14.42.52-.43 2-.7 4-1.05 6-.14.74-.27 1.48-.37 2.23 0 .29-.15.37-.49.31-2.08-.36-4.17-.7-6.26-1l-9-1.51c-.42-.07-.43-.08-.37-.47.26-1.56.53-3.11.77-4.67 0-.32.18-.37.52-.31l9.16 1.54c.46.07.46.07.53-.33s.09-.67.17-1 0-.4-.36-.46c-2.34-.37-4.68-.77-7-1.16l-2.31-.38c-.24 0-.32-.12-.28-.34a10.85 10.85 0 0 0 .21-1.27c0-.27.16-.31.43-.26l5.37.9 2.27.38zm-1.15 7.25c.55.09 1.11.17 1.66.27.21 0 .33 0 .36-.21l.21-1.23c0-.19-.05-.29-.27-.33l-3.33-.56c-.24 0-.35 0-.38.24 0 .4-.11.79-.19 1.17-.05.23.05.33.29.37.52.07 1.1.17 1.65.28zM268.74 251.36c.87.15 1.74.31 2.62.44.31 0 .38.18.34.43-.08.4-.13.8-.21 1.2 0 .21 0 .3.27.34l3.36.56c.28 0 .38 0 .41-.27.06-.41.15-.82.2-1.23 0-.23.15-.27.37-.24l5.4.91c.21 0 .3.13.27.33-.08.43-.16.86-.22 1.29 0 .23-.16.29-.41.25-.44-.09-.89-.15-1.34-.24-.24 0-.33 0-.36.24-.05.4-.13.8-.19 1.2 0 .23-.15.3-.4.25-.47-.08-.94-.15-1.41-.24-.17 0-.24 0-.29.17-.13.44-.08.91-.25 1.34-.07.18.07.24.24.27l1.38.22c.28 0 .38.15.33.41s-.13.78-.21 1.17c0 .21.05.31.28.34l1.34.22c.25 0 .34.13.3.36-.09.42-.17.84-.22 1.27 0 .22-.15.27-.36.24l-.65-.11-4.62-.77c-.45-.08-.45-.08-.38-.49s.12-.76.19-1.14c.05-.21 0-.3-.27-.34l-3.44-.58c-.22 0-.29 0-.31.21-.06.4-.16.8-.19 1.21s-.19.37-.5.32l-4.72-.8c-1.16-.19-.93-.1-.8-1 0-.25.09-.49.12-.74s.16-.29.4-.25c.45.09.9.15 1.34.24.27.05.39 0 .42-.26s.14-.78.19-1.17.16-.31.41-.26c.46.09.92.15 1.37.24.21 0 .3 0 .32-.2.06-.43.13-.85.22-1.27 0-.21-.05-.28-.26-.31l-1.38-.23c-.24 0-.34-.12-.29-.36s.14-.78.21-1.17c0-.23 0-.35-.31-.38-.45-.06-.9-.15-1.35-.22-.25 0-.34-.14-.29-.37q.12-.63.21-1.26c0-.24.16-.29.4-.24zM222.64 236.28l5.92 1a.42.42 0 0 1 .05.36q-1.31 7.77-2.6 15.56c0 .28-.17.37-.48.31s-.88-.19-1.33-.26l-3.89-.62c-.46-.08-.45-.08-.39-.49q1.31-7.74 2.6-15.49c.02-.14 0-.28.12-.37zM191.71 247.82l-7.71-1.28c-.3 0-.4-.14-.35-.43q.72-4.2 1.41-8.4c0-.26.15-.32.42-.27l15.39 2.56c.31.05.42.18.36.45s-.11.72-.19 1.08-.13.41-.55.34l-4.16-.7-5.06-.85c-.28 0-.37 0-.41.25-.22 1.39-.46 2.78-.69 4.17a2.74 2.74 0 0 1 0 .28c-.11.6-.11.6.58.72l8.92 1.49c.42.07.45.11.39.5s-.15.72-.18 1.08-.19.35-.48.3c-.56-.11-1.12-.2-1.68-.29z" transform="translate(-.98 -.52)"/><path d="M291.07 282.1c-.25 1.47-.49 2.94-.74 4.41-.07.42-.07.42-.51.34l-4.27-.71c-.27 0-.37-.13-.3-.37s.07-.41.11-.62-.06-.27-.25-.29l-.49-.05c-.39-.06-.49 0-.51.37v.19c0 .43-.14.5-.63.42-1.39-.23-2.79-.47-4.19-.69-.32-.05-.4-.19-.36-.45.5-3 1-5.91 1.49-8.86.06-.36.14-.42.55-.33 2.95.58 5.92 1 8.87 1.52.52.09 1 .13 1.55.22s.47.1.4.52c-.24 1.46-.49 2.92-.73 4.38zm-8.37-.17 1.58.27c.22 0 .32 0 .35-.22.1-.59.2-1.19.31-1.79 0-.21-.06-.3-.29-.34l-3.13-.52c-.21 0-.31 0-.35.22-.08.59-.18 1.19-.29 1.79 0 .21 0 .31.27.34zm5.47-1.49c-.52-.08-1-.16-1.55-.26-.25-.05-.36 0-.39.24-.09.59-.19 1.19-.29 1.78-.05.23.05.29.28.33 1 .16 2 .33 3 .51.28.05.39 0 .43-.27.08-.56.17-1.13.28-1.69 0-.23 0-.35-.3-.39-.48-.08-.97-.17-1.46-.25z" transform="translate(-.98 -.52)" style="fill:#2785db"/><path d="M292.87 271.31c-.25 1.48-.5 3-.74 4.44-.07.38-.11.4-.52.34l-2.86-.48c-.41-.07-.49-.18-.43-.54.14-.85.28-1.71.43-2.56a.34.34 0 0 1 0-.1c.2-.63.12-.52.72-.43l1.48.25c.26 0 .4 0 .44-.25.09-.59.19-1.18.29-1.76 0-.21 0-.33-.3-.38l-8-1.34c-.26 0-.39.05-.42.28-.09.57-.19 1.14-.28 1.7 0 .23.05.36.31.41l3.06.52a.25.25 0 0 0 .33-.17 1.81 1.81 0 0 0 .12-.64c0-.19.11-.24.27-.29a.45.45 0 0 1 .2 0c.85.09.89.14.77.88-.21 1.26-.43 2.51-.63 3.77 0 .26-.17.34-.43.3l-5.43-.91c-.49-.08-.55-.15-.48-.58.49-3 1-5.91 1.48-8.87 0-.17.09-.23.28-.22s.55 0 .83.08l9.77 1.63c.55.09.55.1.47.6l-.72 4.32z" transform="translate(-.98 -.52)" style="fill:#44c047"/><path d="M289.84 254.78c1.75.29 3.49.59 5.24.87.3 0 .4.13.35.42-.51 3-1 5.95-1.49 8.92-.05.3-.16.38-.49.32-1.4-.25-2.8-.48-4.2-.71-.36-.06-.42-.15-.36-.47 0-.12.06-.23.08-.34.08-.47.08-.47-.46-.56h-.21c-.5-.08-.51-.08-.54.39 0 .18-.1.34-.11.52s-.18.19-.35.16l-4.44-.74c-.23 0-.32-.15-.29-.35.17-1 .35-2 .51-3.06 0-.28.23-.27.45-.23l1.83.3c.8.15 1.61.24 2.4.44.25.06.44 0 .48-.27.07-.57.17-1.14.28-1.7.05-.27 0-.38-.34-.43-1.42-.22-2.83-.47-4.24-.7-.29 0-.4-.12-.35-.4.18-1 .33-2 .48-3 0-.26.15-.33.44-.28 1.77.31 3.55.6 5.33.9zm1.49 6.43c.51.08 1 .16 1.54.26.22 0 .35 0 .39-.21.09-.61.19-1.22.3-1.82 0-.2 0-.32-.27-.35l-3.09-.52c-.22 0-.32 0-.35.21-.09.63-.2 1.25-.31 1.88 0 .18 0 .26.24.29z" transform="translate(-.98 -.52)" style="fill:#eb1416"/><path class="b7a3ceb7-f5a7-4964-918e-95d867a642d5" d="m156.94 232.66 7.54 1.26c.53.09.53.09.45.57s-.13.7-.17 1-.16.33-.44.28l-9.3-1.57c-.33-.05-.41 0-.45.3-.35 2.17-.72 4.33-1.07 6.49-.05.31-.2.36-.51.31l-5.19-.87c-.3 0-.4-.14-.35-.42q.72-4.19 1.4-8.39c.05-.31.19-.34.48-.29z" transform="translate(-.98 -.52)"/><path class="e312188a-d533-4aad-be78-a444acb79926" d="M224.85 265.68 226 259a1.74 1.74 0 0 1 2.34-1.33 2.14 2.14 0 0 1 1.43 1.06c2.19 4.06 4.41 8.11 6.61 12.17.17.3.2.31.45.08l8.14-7.43 2.16-2a2.34 2.34 0 0 1 3.26.37 1.32 1.32 0 0 1 .25 1q-1.17 6.91-2.32 13.83c0 .29-.15.39-.49.32-1-.19-2-.35-3.06-.51-.3-.05-.36-.15-.31-.4.47-2.79.93-5.58 1.4-8.37v-.12c0-.04.11-.25 0-.31s-.18.1-.26.17l-4.89 4.53c-1 .89-2 1.74-2.87 2.68a2.38 2.38 0 0 1-3.55-.6c-1.63-3.16-3.37-6.28-5.06-9.42 0-.07-.06-.19-.17-.17s-.11.14-.12.22l-1.4 8.43c-.08.46-.08.46-.59.37-1-.17-1.95-.34-2.93-.49-.28 0-.34-.15-.3-.38.4-2.36.79-4.72 1.19-7.07zM220.34 265q-.59 3.46-1.16 6.95c-.07.38-.08.38-.52.31l-3-.5c-.27 0-.32-.14-.29-.36.36-2.07.7-4.14 1-6.2.13-.82.27-1.63.41-2.44 0-.08.06-.18-.06-.22s-.13.06-.19.11l-6.5 6c-.5.46-1 .9-1.48 1.37a2.34 2.34 0 0 1-3.35-.6c-1.59-3-3.25-6.05-4.88-9.07-.1-.17-.19-.34-.28-.51s-.05-.14-.13-.14-.1.1-.11.17 0 .27-.06.4c-.46 2.73-.91 5.46-1.37 8.19-.06.38-.07.37-.51.3-1-.18-2-.35-3-.5-.3 0-.4-.13-.35-.41q1.16-6.86 2.3-13.71a1.52 1.52 0 0 1 1.5-1.37 2.24 2.24 0 0 1 2.21 1c1.11 2 2.2 4 3.3 6l3.44 6.31c.14.27.24.14.37 0l2.95-2.7c2.42-2.2 4.85-4.39 7.24-6.63a2.4 2.4 0 0 1 3.17 0 1.32 1.32 0 0 1 .45 1.21c-.4 2.31-.78 4.61-1.16 6.92zM253.49 270.64c.38-2.24.75-4.47 1.13-6.7a1.6 1.6 0 0 1 1.91-1.29c.72.09 1.45.23 2.17.35 2.37.39 4.75.78 7.13 1.19a12.61 12.61 0 0 1 6.36 3 6.88 6.88 0 0 1 2.51 6.52q-.6 3.66-1.22 7.32c-.07.41-.08.41-.53.34-1-.17-2-.34-3-.49-.29 0-.37-.15-.32-.4.19-1 .35-2.08.53-3.12.05-.27 0-.4-.34-.45l-12.77-2.14c-.28-.05-.36 0-.4.28-.16 1-.35 2.08-.51 3.12-.05.3-.17.38-.5.31-1-.18-2-.34-3-.5-.32 0-.44-.14-.38-.45.39-2.28.77-4.57 1.15-6.85zM264 273l6.37 1.07c.3 0 .43 0 .46-.28s.08-.52.12-.78a4.27 4.27 0 0 0-1.54-4.2 8.48 8.48 0 0 0-4-1.85c-2.25-.43-4.52-.78-6.77-1.17-.34-.06-.36.12-.4.33q-.44 2.69-.9 5.37c0 .29 0 .4.36.46zM191.25 260.22c-.38 2.28-.77 4.57-1.14 6.85-.05.3-.16.38-.49.32-1-.19-2-.35-3-.51-.29 0-.36-.14-.32-.4.19-1 .35-2.08.54-3.11.05-.3 0-.41-.37-.46l-12.67-2.12c-.31-.05-.44 0-.48.3-.16 1-.35 2.05-.5 3.09 0 .3-.17.37-.5.31-1-.18-1.95-.33-2.93-.5-.43-.07-.43-.07-.36-.47q.62-3.74 1.25-7.47a6.55 6.55 0 0 1 3.37-4.67 11.55 11.55 0 0 1 7-1.39c1.85.16 3.67.57 5.51.87 1.55.24 3.1.51 4.65.77a1.91 1.91 0 0 1 1.59 1.37 1.24 1.24 0 0 1 0 .47l-1.14 6.79zm-10.67-1.14c2.11.35 4.22.7 6.33 1.07.32.05.44 0 .48-.29.3-1.81.6-3.63.91-5.44 0-.26 0-.37-.33-.42q-3-.48-6-1a11.11 11.11 0 0 0-3.77 0 4.85 4.85 0 0 0-3.81 2.54 7.49 7.49 0 0 0-.52 2c-.07.4-.07.41.4.48zM153 261.25l-7-1.17c-.49-.08-.49-.08-.42-.5.25-1.48.5-3 .74-4.45.05-.28.15-.39.49-.32.84.16 1.68.29 2.52.42.31.05.41.17.35.45-.12.58-.2 1.17-.31 1.76 0 .23 0 .33.31.38l7 1.15c1 .17 2 .36 3.06.54a4.41 4.41 0 0 0 .73.08 1.08 1.08 0 0 0 1.24-.95q.94-5.58 1.86-11.15c0-.3.15-.4.51-.33 1 .18 2 .35 3 .5.3.05.38.15.33.42-.64 3.78-1.26 7.55-1.9 11.33a3.93 3.93 0 0 1-3.34 2.92 7.76 7.76 0 0 1-2.76 0l-6.41-1.08z" transform="translate(-.98 -.52)"/><path class="b7a3ceb7-f5a7-4964-918e-95d867a642d5" d="m264 273-6.33-1c-.34-.06-.41-.17-.36-.46q.47-2.68.9-5.37c0-.21.06-.39.4-.33 2.25.39 4.52.74 6.77 1.17a8.48 8.48 0 0 1 4 1.85 4.27 4.27 0 0 1 1.54 4.2c0 .26-.1.52-.12.78s-.16.33-.46.28zM180.58 259.08l-6.3-1.06c-.47-.07-.47-.08-.4-.48a7.49 7.49 0 0 1 .52-2 4.85 4.85 0 0 1 3.81-2.54 11.11 11.11 0 0 1 3.77 0q3 .51 6 1c.31.05.38.16.33.42-.31 1.81-.61 3.63-.91 5.44 0 .29-.16.34-.48.29-2.11-.37-4.22-.72-6.33-1.07z" transform="translate(-.98 -.52)"/></g><g id="f31eb0ae-127f-4dd9-8565-842ac7e996e1" data-name="b6035a6f-8c9c-4f9f-9467-68e0dd940475"><path id="ef96ec98-5ea8-43be-95f7-77b3fa0fe0f5" data-name="fe3465ed-d9ba-491e-a2ad-3612a2a9c1f9" d="M181.11 67.06s.45-3.14-4.54-5.52-13.64-3.77-5-1.74-4.94-1.51-4.94-1.51l-2.84-.66v-4.41l52.17 8.1v4.26s-16.51-2.61-17.37 2.9v7l.16 55.73s1 4.86 10.1 6.85l3.6 1.11 3.83.61v4.28L164 135.65v-4.35c1.69.41 3.11.64 4.21.81 1.79.25 3.58.4 5.32.47a14.9 14.9 0 0 0 3.21-.18 6.24 6.24 0 0 0 2.7-1 5.44 5.44 0 0 0 1.65-1.73l.22-3.36-.13-57.21" transform="translate(-.98 -.52)" style="fill:url(#e798f24f-c51f-4d4e-9a16-cbff6090ce6c)"/><path class="bf56a41b-e735-4c6d-a902-ddcf16759a7d" d="m268.6 124.8-156-24.87c-4.49-.71-8.17 2.2-8.16 6.48s3.68 8.37 8.17 9.09l156.11 25.07c4.61.74 8.36-2.2 8.34-6.54s-3.81-8.49-8.46-9.23z" transform="translate(-.98 -.52)"/><path class="b69becae-0578-40f5-93b5-2ff966e8587f" d="M144.89 113.44V116l-1.83-.29v-7.41l2.83.45c2 .32 3 1.26 3 2.82a1.84 1.84 0 0 1-.87 1.68 3.23 3.23 0 0 1-2.33.33l-.82-.14zm0-3.55v2.3l.73.11c1 .16 1.46-.15 1.46-.93s-.5-1.21-1.46-1.36zM157.14 117.79l-5.71-.91v-7.12l2.05.33v5.38l3.66.59zm7.51 1.2-.51-1.34-2.93-.47-.5 1.18-2.2-.35 3.19-6.65 2 .31 3.22 7.68zm9.2-1.17v2.69l-2.11-.33v-2.66l-2.85-4.92 2.38.38 1.52 2.84 1.55-2.35 2.34.37zm15.74 3c0 1.48-1.19 2.12-3 1.82a6.38 6.38 0 0 1-3.54-1.74l1.14-1.12a4.57 4.57 0 0 0 2.44 1.26c.55.09.87 0 .87-.34s-.23-.47-1.29-.9c-1.61-.61-2.85-1.24-2.85-2.72 0-1.3 1.1-2.13 2.89-1.84a5.91 5.91 0 0 1 3.12 1.46l-1 1.22a4.19 4.19 0 0 0-2.11-1c-.51-.09-.74.1-.74.31s.28.53 1.29.9c1.75.68 2.85 1.37 2.85 2.72zm7.41.75v2.7l-2.11-.34v-2.65l-2.89-4.99 2.34.37 1.57 2.86 1.56-2.36 2.35.38zm11.14 2.22c0 1.48-1.24 2.11-3 1.82a6.41 6.41 0 0 1-3.55-1.74l1.14-1.12a4.67 4.67 0 0 0 2.45 1.26c.55.09.87 0 .87-.34s-.23-.47-1.29-.9c-1.61-.61-2.86-1.25-2.86-2.73 0-1.3 1.1-2.13 2.94-1.83a5.68 5.68 0 0 1 3.09 1.45l-1.06 1.22a4.22 4.22 0 0 0-2.12-1c-.51-.08-.74.1-.74.31s.28.53 1.3.91c1.79.68 2.85 1.37 2.86 2.72zm8.57-1.81-2.26-.36V127l-2.12-.34v-5.41l-2.25-.36v-1.74l6.64 1.06zm8.14 6.75-6.14-1v-7.15l6 1v1.7l-4-.63v1.09l3.6.58v1.57l-3.6-.58v1.09l4.06.65zm11.65 1.87-2.13-.34v-4.16l-1.93 2.49h-.05l-1.91-3.1v4.11l-2.08-.34v-7.15l2.22.35 1.81 3.08 1.8-2.5 2.26.36z" transform="translate(-.98 -.52)"/><path class="bf56a41b-e735-4c6d-a902-ddcf16759a7d" d="M122.31 85.13V90l.27.13c.18-.36.41-.71.59-1.07 3.13-7.21 6.22-14.41 9.26-21.67.45-1.1 1-1.52 2.46-1.26q4.5.84 9 1.41a2.36 2.36 0 0 1 2.19 1.82c3 7.78 5.95 15.52 9 23.28a7.27 7.27 0 0 0 1.61 2.47 10.5 10.5 0 0 0 .18-1.1c0-4.85 0-9.66-.07-14.53 0-.69-.65-1.44-1-2.18a6.58 6.58 0 0 1-.64-1.27c-.05-1.87-.1-3.79 0-5.63a1.2 1.2 0 0 1 1.05-.83c6.63 1 13.26 1.77 19.85 3.41 6.79 1.67 7 1.88 10.7 7.31 9.39-7.86 21.53-6.09 31.32 4.71 4.55-3.9 10.45-5.15 17-4.08A25.91 25.91 0 0 1 252 91.42c0-1.71.08-3.35-.06-5-.1-1.46.31-1.91 2-1.61q6.62 1.23 13.22 2.07c1.58.21 2.37.81 2.7 2.22a22 22 0 0 0 1 2.38c.41-1.12.74-1.85 1-2.65s.65-1.16 1.67-1c5 .82 10 1.61 15 2.35 1.12.17 1.59.55 1.55 1.64-.09 1.3 0 2.63 0 3.89 0 1.06.15 2.13-1.11 2.63-.41.2-.45 1.33-.36 2 .72 4.71 1.49 9.47 2.4 14.17a12 12 0 0 0 1.51 2.86l.46-.1.05 8.11-17.71-2.82v-5.95l-10-1.59v6.08l-14.58-2.32c-2.31-.37-2.31-.37-2.32-2.47v-1.83c-4.81 2.37-9.75 3.86-15.53 2.37a31.33 31.33 0 0 1-14.76-9.1v5.62c-.28.13-.37.2-.46.19-5.44-1-10.88-1.91-16.36-2.91a19.9 19.9 0 0 1-11.37-6.59c-2-2.23-3.27-5-4.79-7.54a10.56 10.56 0 0 1-.74-2c-4.17.9-8.3 1.81-12.42 2.72-.27.09-.73.37-.68.46.18.38.46.9.78 1a1.94 1.94 0 0 1 1.24 2.16v5.55c-.73-.07-1.28-.07-1.83-.16-21.18-3.37-42.29-6.6-63.34-10.21a23.65 23.65 0 0 1-17.76-13c-5.48-10.65 1.49-22 13.17-22.08 8.34 0 15.15 3.24 20.24 10.56a7.64 7.64 0 0 1 .41.76l-9.58 8-6.08-4.93.54-.09c-.13-1 0-2.2-.54-2.93-.77-1-2.59-.8-3.72.28-2.36 2.21-2 5.13-.77 8.16a7.59 7.59 0 0 0 6.49 5 6 6 0 0 0 3.5-1.09 2.69 2.69 0 0 1 2.13-.57c1.94.41 3.94.68 6.12 1.02zm155 15.25.33.09c.14.42.28.83.37 1.2.77 4.66 1.49 9.33 2.3 14 .24 1.22.25 2.14-1 2.7-.33.12-.42.72-.46 1.15a1.18 1.18 0 0 0 .65.67c3.31.57 6.57 1.09 10.16 1.66-.14-.64-.28-1.32-.47-2a22.4 22.4 0 0 1-1.09-2.84c-1.1-6.4-2.1-12.81-3.1-19.27-.19-1.08-.2-2 .78-2.68.37-.24.36-.9.59-1.65-3.81-.6-7.31-1.19-10.75-1.64-.37-.06-.88.47-1.06.88-.78 1.8-1.47 3.66-2.16 5.47-.5 1.27-1 2.51-1.7 4.14a11.56 11.56 0 0 1-.47-1.21c-1-3.13-2.07-6.31-3.2-9.45a2.69 2.69 0 0 0-1.3-1.39c-3.25-.59-6.45-1-10-1.61.24.82.24 1.69.66 2 1.3.9 1.08 1.82.94 2.81-.86 5.14-1.67 10.34-2.67 15.42-.36 2 0 4.32-2.29 5.31-.33.13-.18 1-.27 1.75 3 .48 5.75.91 8.53 1.31.33.06.93-.24.93-.5a1.8 1.8 0 0 0-.56-1.27 2.56 2.56 0 0 1-1.13-2.85c.45-2.63.81-5.33 1.22-8 .31-2 .68-4 1-5.9a1.38 1.38 0 0 1 .65.8c1.27 3.65 2.59 7.26 3.76 10.9a2.19 2.19 0 0 0 2 1.71c4.09.69 4.09.74 5.52-2.58.23-.57.41-1.16.64-1.73.92-2.44 1.79-4.88 2.66-7.36zm-26 1.58a14.87 14.87 0 0 0-3-9.29 21.29 21.29 0 0 0-19-8.43c-6 .62-10.27 3.52-11.45 9.3s1 11.25 6.37 15.72a21.29 21.29 0 0 0 14 4.85c7.6-.06 13.09-5.25 13.06-12.11zm-95.87-1.58a13.79 13.79 0 0 0-.87-2.22 32.59 32.59 0 0 1-2.34-3.62c-2.88-7.34-5.68-14.71-8.47-22.07a2.29 2.29 0 0 0-2.24-1.78 43.45 43.45 0 0 1-4.6-.72 1.45 1.45 0 0 0-2 1q-4.15 10.11-8.45 20.2a15.93 15.93 0 0 1-1.59 2.13c-.4.58-.72 1.22-1.22 2.09l9.56 1.52c-.51-1-.92-1.66-1.19-2.31s-.68-1.45-.5-1.94c.59-1.68 1-3.73 2.27-4.74.86-.69 3.1.18 4.74.36l.5.08c3.87.61 3.87.61 5.29 4.3a8.24 8.24 0 0 1 .73 1.89 6.15 6.15 0 0 1-.36 2.11c-.18.62-.41 1.19-.68 1.93l11.37 1.8zm3.36-26.68c.28.83.55 1.56.83 2.3a10.6 10.6 0 0 1 1 2.58q.15 9.06 0 18c0 .87-.77 1.61-1.13 2.47a3.55 3.55 0 0 0-.41 1.41c0 .21.5.64.82.69 3.11.54 6.22 1 9.57 1.57-.14-.85 0-1.7-.37-2.06-1.52-1.32-1.06-2.73-1.25-4.19s.59-2 2-2.24a60.9 60.9 0 0 0 10.58-2.67c3.62-1.47 4.3-5 3.41-8.83-.78-3.47-3.63-5.39-6.84-6-5.91-1.31-11.85-2-18.21-3zm-39.27-2c-.36-.45-.59-.79-.86-1.09-5.14-5.42-12.85-7.58-19-5.31-5.66 2-8.55 6.93-7.55 12.82 1 5.54 6.2 11.6 12.59 13.61 4.4 1.39 9 1.9 13.76 2.88v-5.46c0-.48-.23-1.25-.55-1.38a1.77 1.77 0 0 0-1.45.24c-1.86 1.57-4.18 1.54-6.67 1-7.62-1.72-10.89-9.4-10.17-14.47s4.71-7.32 9.79-5.66c2.73.9 4 2.92 3.68 5.41 0 .38.14 1.06.41 1.19a1.55 1.55 0 0 0 1.41 0c1.63-1.16 3.13-2.48 4.67-3.75zm95 31.21a6.37 6.37 0 0 0-2 .51c-2 1.56-4.41 1.48-7 .85-8.1-2.07-11.11-10.5-9.88-15.39 1.13-4.47 4.53-6.24 9.36-5 3 .83 4.52 2.89 4.16 5.66a1.8 1.8 0 0 0 .55 1.26 1.15 1.15 0 0 0 1.15 0c1.61-1.26 3.17-2.58 4.78-3.9-.28-.35-.42-.59-.6-.83-5.5-6.39-15.07-8.45-21.77-4.64-6 3.23-7.31 11-3 17.38a21 21 0 0 0 9 7.64c4.75 2.19 9.67 2.23 14.56 3.1a1 1 0 0 0 .83-.61c-.04-1.85-.09-3.77-.1-6.04z" transform="translate(-.98 -.52)"/><path d="M277.32 100.38c-.87 2.49-1.79 4.92-2.66 7.41-.23.57-.42 1.16-.65 1.73-1.42 3.32-1.42 3.27-5.51 2.58a2.15 2.15 0 0 1-2-1.71c-1.18-3.63-2.49-7.25-3.76-10.9a1.42 1.42 0 0 0-.65-.8c-.37 2-.73 4-1.05 5.9-.4 2.65-.76 5.34-1.21 8a2.57 2.57 0 0 0 1.12 2.85 1.76 1.76 0 0 1 .56 1.27c0 .22-.6.56-.92.5-2.79-.39-5.52-.83-8.54-1.31.09-.73-.05-1.62.27-1.75 2.32-1 1.94-3.4 2.3-5.31 1-5.12 1.81-10.28 2.67-15.42.18-1 .41-2-.94-2.81-.37-.28-.38-1.15-.66-2 3.57.56 6.82 1 10 1.61.47.08 1.12.88 1.31 1.39 1.13 3.15 2.12 6.27 3.2 9.46.09.23.19.51.47 1.21.69-1.64 1.19-2.87 1.7-4.15.73-1.81 1.37-3.67 2.16-5.47.18-.41.69-.9 1.06-.88 3.49.46 6.93 1 10.75 1.64-.23.71-.23 1.41-.6 1.66-1 .62-1 1.59-.77 2.67 1.05 6.42 2 12.83 3.12 19.31a18.46 18.46 0 0 0 1.08 2.84c.19.65.34 1.32.48 2-3.59-.57-6.9-1.1-10.16-1.66a1.15 1.15 0 0 1-.65-.67c0-.44.13-1 .46-1.15 1.2-.55 1.2-1.47 1-2.69-.81-4.68-1.53-9.34-2.3-14a5.08 5.08 0 0 0-.38-1.2l-.32-.14zm-26 1.58c0 6.9-5.46 12.09-13.09 12.15a21.29 21.29 0 0 1-14-4.85c-5.41-4.47-7.55-9.9-6.37-15.72s5.41-8.64 11.45-9.3a21.29 21.29 0 0 1 19 8.43 14.79 14.79 0 0 1 2.98 9.33zm-25.86-4.35a32.61 32.61 0 0 0 .57 4.23c.89 3.19 2.79 5.89 6.31 7s7 1 9.24-1.85c2.53-3.17 2.41-9.87-.24-13.77-3.21-4.78-9.77-6.24-13.36-3-2 1.91-2.53 4.48-2.52 7.35zm-70 3-11.37-1.81c.27-.74.5-1.31.68-1.93a6.15 6.15 0 0 0 .36-2.11 6.15 6.15 0 0 0-.73-1.89c-1.42-3.69-1.42-3.69-5.29-4.3l-.5-.08c-1.64-.17-3.88-1-4.74-.36-1.28 1-1.68 3.06-2.27 4.75-.18.49.27 1.29.5 1.94a25 25 0 0 0 1.19 2.31l-9.56-1.52c.5-.88.82-1.52 1.22-2.1a11.8 11.8 0 0 0 1.59-2.13q4.29-10 8.45-20.2a1.45 1.45 0 0 1 2-1 43.24 43.24 0 0 0 4.61.72 2.34 2.34 0 0 1 2.23 1.78c2.75 7.35 5.54 14.72 8.47 22.08a26.55 26.55 0 0 0 2.34 3.62 15.42 15.42 0 0 1 .87 2.22zm-20.23-17 6 .95c-1-2.9-2-5.51-3-8.13h-.41zm23.57-9.91c6.4 1 12.3 1.72 18.21 3 3.21.67 6.06 2.55 6.84 6 .89 3.87.21 7.37-3.41 8.84a55.37 55.37 0 0 1-10.58 2.66c-1.42.3-2.2.65-2 2.24s-.22 2.83 1.25 4.19c.36.32.23 1.21.37 2.06-3.35-.53-6.46-1-9.57-1.57-.27 0-.82-.52-.82-.69a3.6 3.6 0 0 1 .41-1.41c.36-.81 1.14-1.55 1.13-2.46q.12-9 0-18a9.09 9.09 0 0 0-1-2.58 18.42 18.42 0 0 1-.83-2.21zm9.09 16.82a11.6 11.6 0 0 0 7.82-4c2-2.76.67-6-3.13-7.22a23.92 23.92 0 0 0-3.39-.53c-1.05-.16-1.33.36-1.33 1.22V90.5zm-48.36-18.83c-1.54 1.31-3 2.59-4.58 3.81a1.73 1.73 0 0 1-1.41 0c-.27-.13-.45-.85-.41-1.19.36-2.53-1-4.52-3.68-5.41-5.07-1.66-9 .56-9.78 5.66A13.37 13.37 0 0 0 109.83 89c2.49.57 4.86.6 6.67-1a1.58 1.58 0 0 1 1.45-.25c.32.14.55.91.55 1.39v5.45c-4.77-1-9.36-1.48-13.76-2.87-6.39-2-11.64-8.07-12.59-13.61a11 11 0 0 1 7.51-12.83c6.2-2.26 13.87-.11 19 5.31.28.31.51.65.87 1.1zm95 31.21c0 2.31.06 4.19 0 6a.91.91 0 0 1-.82.61c-4.84-.86-9.82-.91-14.56-3.1a21.24 21.24 0 0 1-9-7.64c-4.24-6.45-2.93-14.14 3-17.37 6.7-3.82 16.27-1.75 21.77 4.63a5.48 5.48 0 0 1 .6.84c-1.61 1.31-3.12 2.68-4.78 3.9a1.29 1.29 0 0 1-1.15 0 1.82 1.82 0 0 1-.56-1.26c.36-2.77-1.11-4.83-4.15-5.65-4.83-1.28-8.18.49-9.37 5-1.27 4.88 1.79 13.32 9.89 15.38 2.58.68 5 .71 7-.84a8.27 8.27 0 0 1 2.17-.5z" transform="translate(-.98 -.52)" style="fill:#ffca08"/><path class="bf56a41b-e735-4c6d-a902-ddcf16759a7d" d="M225.43 97.61c0-2.87.54-5.44 2.56-7.35 3.59-3.31 10.11-1.81 13.36 3 2.66 3.9 2.73 10.59.24 13.77-2.25 2.83-5.58 3-9.24 1.85-3.51-1.12-5.41-3.78-6.3-7a26.11 26.11 0 0 1-.62-4.27zm-90.24-14.25c.91-2.45 1.77-4.82 2.68-7.15h.41l3 8.13zm32.7 7.16V80.1c0-.91.28-1.43 1.33-1.22a22.57 22.57 0 0 1 3.39.53c3.85 1.21 5.18 4.42 3.13 7.22a11.89 11.89 0 0 1-7.82 3.88zm-6.32 25.29 1.14-2.6 1 2.94" transform="translate(-.98 -.52)"/></g></svg>