<svg xmlns="http://www.w3.org/2000/svg" xmlns:xlink="http://www.w3.org/1999/xlink" viewBox="0 0 746.51 822.18"><defs><radialGradient id="eccdb584-9dc0-47be-b446-508ef01918bd" cx="121.61" cy="382.1" r="5.66" gradientTransform="matrix(1 0 0 .6 0 152.84)" xlink:href="#b67458ae-9fca-43d0-bf69-e42dd91a571b"/><radialGradient id="a3f9adea-9e9b-4aa5-96ca-dc6fe05eb297" cx="217.55" cy="416.02" r="5.66" xlink:href="#bfd3f3e9-ae4e-45fd-9d98-82ca3536affe"/><radialGradient id="a8d411ce-5a7b-4473-b830-a9624dfcfa4c" cx="195.83" cy="370.99" r="11.47" xlink:href="#bfd3f3e9-ae4e-45fd-9d98-82ca3536affe"/><radialGradient id="b67458ae-9fca-43d0-bf69-e42dd91a571b" cx="92.36" cy="393.88" r="5.66" gradientTransform="matrix(1 0 0 .6 0 157.55)" gradientUnits="userSpaceOnUse"><stop offset="0" stop-color="#0000ef"/><stop offset=".15" stop-color="#0000e9"/><stop offset=".34" stop-color="#0101d9"/><stop offset=".56" stop-color="#0101be"/><stop offset=".79" stop-color="#02029a"/><stop offset="1" stop-color="#020282"/></radialGradient><radialGradient id="e98d3f31-2a1b-49db-9ab5-9c69aec01b80" cx="114.61" cy="393.88" r="5.66" xlink:href="#b67458ae-9fca-43d0-bf69-e42dd91a571b"/><radialGradient id="aede6602-2a4d-49f7-963c-f8a6f9180b60" cx="133.17" cy="400.04" r="5.66" gradientTransform="matrix(1 0 0 .6 0 160.02)" xlink:href="#b67458ae-9fca-43d0-bf69-e42dd91a571b"/><radialGradient id="a371d69b-efce-482f-b048-fcfe571fe237" cx="139.21" cy="387.78" r="5.66" gradientTransform="matrix(1 0 0 .6 0 155.11)" xlink:href="#b67458ae-9fca-43d0-bf69-e42dd91a571b"/><radialGradient id="bfd3f3e9-ae4e-45fd-9d98-82ca3536affe" cx="65.88" cy="348.77" r="11.47" gradientUnits="userSpaceOnUse"><stop offset="0" stop-color="#fd6d66"/><stop offset=".78" stop-color="#b50a03"/></radialGradient><radialGradient id="f2c721d2-83f5-4e82-ae41-8e6fc74fd75a" cx="100.32" cy="382.53" r="5.66" gradientTransform="matrix(1 0 0 .6 0 153.01)" xlink:href="#b67458ae-9fca-43d0-bf69-e42dd91a571b"/><radialGradient id="ba109d04-86cb-4860-a5e0-3eef633d10a6" cx="225.51" cy="404.67" r="5.66" xlink:href="#bfd3f3e9-ae4e-45fd-9d98-82ca3536affe"/><radialGradient id="b5c098f7-b75a-46c1-bfa7-4e91c8a7c911" cx="246.79" cy="404.24" r="5.66" xlink:href="#bfd3f3e9-ae4e-45fd-9d98-82ca3536affe"/><radialGradient id="bd87a13d-5e4d-497b-b107-e4a86b7ad106" cx="264.4" cy="409.93" r="5.66" xlink:href="#bfd3f3e9-ae4e-45fd-9d98-82ca3536affe"/><radialGradient id="af4b2e93-7ee0-46d2-aafb-93db7aad4adc" cx="258.36" cy="422.19" r="5.66" xlink:href="#bfd3f3e9-ae4e-45fd-9d98-82ca3536affe"/><radialGradient id="f8cb49f0-78c9-41cf-b505-3d58a563e260" cx="239.79" cy="416.02" r="5.66" xlink:href="#bfd3f3e9-ae4e-45fd-9d98-82ca3536affe"/><style>.f2e835fb-8bcd-4384-87d9-768d49ed56a6{fill:#373735}.e8fcd303-a2a0-4196-b92b-fe2703a7bd2a{fill:#121211}.ab3fda0b-8f27-478e-b199-a7704986341b,.ac80721d-5950-4aa3-b00c-6c4df8c98cfa,.b357077e-c773-4d72-83af-6241f9118690,.bfb92701-09cd-48ba-9bc3-b9213a7bc8be,.e8fcd303-a2a0-4196-b92b-fe2703a7bd2a{stroke:#b5b5b5}.ab3fda0b-8f27-478e-b199-a7704986341b,.ac80721d-5950-4aa3-b00c-6c4df8c98cfa,.aea1e90f-80e7-43b9-a160-8c0255ba1e0c,.b357077e-c773-4d72-83af-6241f9118690,.bfb92701-09cd-48ba-9bc3-b9213a7bc8be,.e8fcd303-a2a0-4196-b92b-fe2703a7bd2a,.ec89884c-fe6d-4061-979e-13363ce549b4,.fed9e2be-fc3d-4370-810e-4bde26da4f55{stroke-miterlimit:10}.ab3fda0b-8f27-478e-b199-a7704986341b,.ac80721d-5950-4aa3-b00c-6c4df8c98cfa,.b357077e-c773-4d72-83af-6241f9118690,.bfb92701-09cd-48ba-9bc3-b9213a7bc8be,.e8fcd303-a2a0-4196-b92b-fe2703a7bd2a,.fed9e2be-fc3d-4370-810e-4bde26da4f55{stroke-width:.5px}.ec89884c-fe6d-4061-979e-13363ce549b4{fill:#443840;stroke:#090000}.fed9e2be-fc3d-4370-810e-4bde26da4f55{stroke:#090000}.ec89884c-fe6d-4061-979e-13363ce549b4{stroke-width:.75px}.fed9e2be-fc3d-4370-810e-4bde26da4f55{fill:#6b0c05}.a8866eb7-c454-4f56-b27a-fbb180a207e6{fill:#86382f}.aea1e90f-80e7-43b9-a160-8c0255ba1e0c{stroke:#373737}.ab3fda0b-8f27-478e-b199-a7704986341b{fill:#dc6e05}.ac80721d-5950-4aa3-b00c-6c4df8c98cfa{fill:#12e600}.bfb92701-09cd-48ba-9bc3-b9213a7bc8be{fill:#0b47ce}.aa84771e-631e-4b47-a0de-d47e2fba5e07,.b357077e-c773-4d72-83af-6241f9118690{fill:#282826}.ebaa44e2-0805-40c7-9a01-6c0b8d2906c9{fill:#ae7a82}.f0cad735-fccf-4f31-aad2-022b0df2dfbd{fill:url(#bfd3f3e9-ae4e-45fd-9d98-82ca3536affe)}.bdb12ace-d3f7-4268-beb8-f009f38b24dd{fill:url(#a8d411ce-5a7b-4473-b830-a9624dfcfa4c)}.a6ff596d-208e-4f28-8b1d-ee2ad7f61399{fill:#0000ef}.ffb17f84-e665-4b15-af8c-ae51f9e92644{fill:#930303}.bf41ca11-c9b9-4eae-aaef-37430f7a539b{fill:#e7e7e7}.feccbf0f-ce4a-4b5f-be8c-2801f2f412e7{fill:#2c2b29}.ab4f5dee-f46c-4824-acef-b9579fc1241a{fill:#020202}.ada46b37-9485-479a-835a-45e8a3fcbba8{fill:#15579d}</style></defs><g id="aac796fe-eb9b-47e0-92a0-408d6c11fced" data-name="Calque 1"><path id="bf43cf0a-761c-4e12-ba00-8a5288997ce1" data-name="ombre" style="opacity:.5;fill:#373735" d="m452.03 588.79 21.51-5.91H485.41l1.58 2.96 237.36 43.3h11.08l11.07 31.39-46.41 37.71-46.42 13.19-8.18-1.32.27-1.85-13.98-2.63-83.6 27.95-73.32 51.57-22.83 6.82-7.77-1.16v-2.63l-16.08-3.03-129.99 34.37 153.84-230.73z"/><g id="aed9cc06-eb47-4b06-b7e9-7bd1445cecc2" data-name="bottom"><path class="f2e835fb-8bcd-4384-87d9-768d49ed56a6" d="m36 454.56 224.9 39.62v4.35l25.72 6.13-.4 311.34-248.24-47.27L36 454.56z"/><path class="e8fcd303-a2a0-4196-b92b-fe2703a7bd2a" d="m202 526.54-78.38-13.74c-3 .19-4.26 3.56-4.26 3.56l.2 85c.69 2.18 3.86 5 3.86 5l74.27 13.46c5.14.49 7.52-5.25 7.52-5.25v-82.69a7.12 7.12 0 0 0-3.21-5.34zm-49.9 22.55-18.69-3.46v-20l2.27-1.88 18.1 3.07-1.78 2.69zm31.45 6.13-18.69-3.46v-20l2.27-1.87 18.1 3.06-1.78 2.67z" transform="translate(-.98 -.52)"/><path class="ec89884c-fe6d-4061-979e-13363ce549b4" d="m134.7 523.25-2.27 1.88v19.98l18.69 3.46-.1-19.58 1.78-2.67-18.1-3.07zM166.15 529.38l-2.27 1.88v19.98l18.69 3.46-.1-19.58 1.78-2.67-18.1-3.07z"/><path class="fed9e2be-fc3d-4370-810e-4bde26da4f55" d="M140.14 543.03v-12.85l8.01 1.78v12.56l-8.01-1.49zM171.2 548.87v-12.86l8.01 1.78v12.56l-8.01-1.48z"/><path d="M135.23 543.16v-15.23l2.05.4v15.16l-2.05-.33zM166.68 548.7v-15.23l2.04.4v15.16l-2.04-.33z"/><path class="a8866eb7-c454-4f56-b27a-fbb180a207e6" d="M140.4 530.69v-.35l7.47 1.8.01.43-7.48-1.88zM171.46 536.62v-.29l7.47 1.64.01.35-7.48-1.7z"/><circle cx="192.4" cy="574.85" r="4.25" style="fill:#8b8b8b;stroke-width:.75px;stroke:#090000;stroke-miterlimit:10"/><path class="aea1e90f-80e7-43b9-a160-8c0255ba1e0c" d="M136.29 598.71v-11.27l11.96 2.18v11.3l-11.96-2.21zM167.54 604.25v-11.27l11.96 2.17v10.88l-11.96-1.78z"/></g><g id="b8fbc721-9fd1-4228-b953-04d122348a45" data-name="t molding"><path d="m11.46 450.59-.79-39.76L1 407.66v45.1l27.89 5.54c.59 103.55 1 207.6 1.58 311.15a6.18 6.18 0 0 0 3.53 2.19 12.58 12.58 0 0 0 5 0l-2-316.56zM272.36 497v-41.27l-10.28-1.19-.2 44.51 25.71 6.13s-1.51 313.85 0 315.69 8.77 1.32 8.77 1.32l.93-319.91z" transform="translate(-.98 -.52)"/><path d="m78.72 346.42-8.15-1.3 16.26-218.56 9.04 1.5-17.15 218.36zM329.24 388.85l9.1 1.28 18.49-224.31h-26.37l-.26-90.92-10.06-1.84v94.84l6.04 1.09h20.27l-17.21 219.86z"/><path d="M88.49 127.19s-28.17-.35-29.11-.85c0-31.21.06-62.83 0-94l9.36 2.64.48 89.02z" transform="translate(-.98 -.52)"/><g id="a73ad4c9-3058-4620-8422-b9c4bcf555ec" data-name="clair"><path d="m0 407.14 9.69 3.17L78 346.25l-8.11-1.94L0 407.14zM261.1 454.02l10.28 1.19 66.96-65.87-8.62-1.6-68.62 66.28zM111.56 0 58.42 31.78l9.36 2.64L120.36 3.3l2.74-1.62-2.57-.36L111.56 0zM383.74 40.62l-11.21-.8-52.39 33.24 10.06 1.84 53.54-34.28z"/></g></g><g id="acd2c8f4-d135-4a7d-a5e8-fe78958457e1" data-name="side"><path class="e8fcd303-a2a0-4196-b92b-fe2703a7bd2a" d="m453.13 308.64.63-159.63-70.02-108.39L330.2 74.9l.26 90.92h26.37l-18.49 224.31-66.96 65.08v41.27l24.93 5.28-.93 319.91 8.25-6.32 149.65-543.7-.21 21.51-142.1 516.55-1.61 1.24 6.94-5.32 136.83-496.99zM324.06 799.15l-7.76 6.48 11.99-9.2 124.7-453.24.05-12.13-128.98 468.09zM335.43 790.95l-1.32 1.02 6.87-5.27 111.79-407.64v21.25l.22-57.12-.22 24-117.34 423.76zM343 785.15l108.58-83.28 1.18-299.85L347.4 781.78l-4.4 3.37z"/><path style="fill:#bf0000;stroke-width:.5px;stroke-miterlimit:10;stroke:#b5b5b5" d="m303.63 815.35 5.73-4.4-5.73 4.4z"/><path d="m453.07 293.16.21-21.51-149.65 543.7 5.73-4.4 1.61-1.24 142.1-516.55z"/><path class="ab3fda0b-8f27-478e-b199-a7704986341b" d="M453.13 330.74v-22.1l-.09 22.42.09-.32zM316.3 805.63z"/><path style="fill:#fff" d="m453.04 331.06.09-22.42L316.3 805.63l7.76-6.48 128.98-468.09z"/><path class="ac80721d-5950-4aa3-b00c-6c4df8c98cfa" d="M452.99 343.19zM328.29 796.43l5.82-4.46-5.82 4.46z"/><path style="fill:#0d56bd" d="m334.11 791.97 1.32-1.02 117.34-423.76.22-24-124.7 453.24 5.82-4.46z"/><path class="bfb92701-09cd-48ba-9bc3-b9213a7bc8be" d="m340.98 786.7 2.02-1.55-2.02 1.55zM452.77 402v-1.69l-.01 1.71.01-.02z"/><path style="fill:#80808a" d="m340.98 786.7 2.02-1.55 4.4-3.37 105.36-379.76.01-1.71v-21.25L340.98 786.7z"/></g><g id="f63274ec-9f45-4021-b466-566e48c42766" data-name="panel"><path class="b357077e-c773-4d72-83af-6241f9118690" d="m10.48 450.07 250.42 44.11.2-40.16L9.69 410.31l.79 39.76z"/><path class="f2e835fb-8bcd-4384-87d9-768d49ed56a6" d="m79.37 345.21-69.68 65.1 251.41 43.71 68.62-66.28-250.35-42.53z"/></g><g id="fee47a6e-4707-46ed-83d0-28bbdaf9d32a" data-name="ecran"><path class="b357077e-c773-4d72-83af-6241f9118690" d="M96.84 129.36 79.7 347.72l250.52 42.43L347.82 168zm224.28 67.76c0 .2-.29.32-.48.49l-10.43 144.83a35.43 35.43 0 0 1-4.3 3.78l1.4.29v10.7s-1.4 4.75-11.08 2.64c-11.19-2.44-178.55-31.91-178.55-31.91l8.72-6.78v-1.39s-2.46.52-6-7l-12.48 2.77h-4l11.34-158.77s4-6.85 10.81-6.59 191.16 30.59 191.16 30.59 6.17 1.07 3.89 16.35z" transform="translate(-.98 -.52)"/><path d="M317.28 180S133 149.66 126.12 149.4s-10.81 6.6-10.81 6.6l-11.74 160.08h4.35l12.29-2.68c-.1-.23-.74-1.57-.85-1.8L131 166.54s2.11-5.54 7.12-7.38l177.49 27.16a20.77 20.77 0 0 1 5.11 9.76l-.05.75c.19-.17.62.66.66.47 3.23-14.06-4.05-17.3-4.05-17.3z" transform="translate(-.98 -.52)" style="fill:#151312"/><path d="m125.32 320-8.56 8s164.63 29.3 178.61 32.24c10.36 2.17 14.43-3.58 14.43-3.58l.61-7.37.39-7.71-4.89 3.84a20.85 20.85 0 0 1-7.73 3.87z" transform="translate(-.98 -.52)" style="fill:#555353"/><path d="M319.5 197.81c.45-.36.83-.69 1.14-1l.66-.52a20.31 20.31 0 0 0-5.72-10l-177.49-27.13c-5 1.84-7.12 7.38-7.12 7.38L119.36 311.6l.32.66c3.54 7.52 6.28 8 6.28 8l.44.08 171.78 28.93a20.85 20.85 0 0 0 7.73-3.87c2.57-1.91 4.89-3.84 4.89-3.84l10.5-145.29c-.44.46-1.05.96-1.8 1.54zM143.83 302.35z" transform="translate(-.98 -.52)" style="fill:#008aa6"/></g><g id="a4871c9c-8d39-4b43-8d49-0b871bda9cbb" data-name="top"><path id="f8d8f603-16e1-45b4-a954-93a15aae4ee8" data-name="marquee" class="b357077e-c773-4d72-83af-6241f9118690" d="m68.24 123.5 251.47 39.03.43-89.47L67.78 34.42l.46 89.08z"/><path style="stroke-miterlimit:10;stroke:#b5b5b5;fill:#373735" d="m128.84 2.64-5.74-.96-55.32 32.74 252.36 38.64 52.39-33.24L128.84 2.64z"/></g><g id="a9eeee93-7d97-446c-8f8b-db477a3e09eb" data-name="stickp1"><path class="aa84771e-631e-4b47-a0de-d47e2fba5e07" d="M68.92 377.27v5.16H62.4v-5.16c-5.06.64-8.77 2.7-8.77 5.16 0 3 5.38 5.35 12 5.35s12-2.39 12-5.35c.06-2.43-3.63-4.52-8.71-5.16z" transform="translate(-.98 -.52)"/><path class="ebaa44e2-0805-40c7-9a01-6c0b8d2906c9" d="M68.92 377.27v-17.78a12.18 12.18 0 0 1-3 .39 12.4 12.4 0 0 1-3.48-.49v17.88a26.67 26.67 0 0 1 6.52 0z" transform="translate(-.98 -.52)"/><path class="ebaa44e2-0805-40c7-9a01-6c0b8d2906c9" d="M68.92 382.43v-5.16a26.67 26.67 0 0 0-6.52 0v5.16z" transform="translate(-.98 -.52)"/><path class="f0cad735-fccf-4f31-aad2-022b0df2dfbd" d="M68.92 358.89v.6a11.24 11.24 0 0 0 8.77-10.72c0-6.14-5.29-11.11-11.81-11.11s-11.82 5-11.82 11.11a11.22 11.22 0 0 0 8.34 10.62v-.5z" transform="translate(-.98 -.52)"/><path class="ebaa44e2-0805-40c7-9a01-6c0b8d2906c9" d="M68.92 359.49v-.6H62.4v.5a12.4 12.4 0 0 0 3.48.49 12.18 12.18 0 0 0 3.04-.39z" transform="translate(-.98 -.52)"/><path class="f0cad735-fccf-4f31-aad2-022b0df2dfbd" d="M68.92 359.49v-.6H62.4v.5a12.4 12.4 0 0 0 3.48.49 12.18 12.18 0 0 0 3.04-.39z" transform="translate(-.98 -.52)"/></g><g id="a290defc-838f-4774-82d0-7dd2ad86a5ba" data-name="stickp2"><path class="aa84771e-631e-4b47-a0de-d47e2fba5e07" d="M198.88 399.49v5.16h-6.53v-5.16c-5 .64-8.77 2.7-8.77 5.16 0 3 5.39 5.35 12 5.35s12-2.39 12-5.35c.07-2.46-3.64-4.52-8.7-5.16z" transform="translate(-.98 -.52)"/><path class="ebaa44e2-0805-40c7-9a01-6c0b8d2906c9" d="M198.88 399.49v-17.78a12.2 12.2 0 0 1-3 .39 12.83 12.83 0 0 1-3.48-.49v17.88a26.75 26.75 0 0 1 6.53 0z" transform="translate(-.98 -.52)"/><path class="ebaa44e2-0805-40c7-9a01-6c0b8d2906c9" d="M198.88 404.65v-5.16a26.75 26.75 0 0 0-6.53 0v5.16z" transform="translate(-.98 -.52)"/><path class="bdb12ace-d3f7-4268-beb8-f009f38b24dd" d="M198.88 381.11v.6a11.24 11.24 0 0 0 8.77-10.71c0-6.14-5.29-11.11-11.82-11.11S184 364.85 184 371a11.22 11.22 0 0 0 8.34 10.62v-.5z" transform="translate(-.98 -.52)"/><path class="ebaa44e2-0805-40c7-9a01-6c0b8d2906c9" d="M198.88 381.71v-.6h-6.53v.5a12.83 12.83 0 0 0 3.48.49 12.2 12.2 0 0 0 3.05-.39z" transform="translate(-.98 -.52)"/><path class="bdb12ace-d3f7-4268-beb8-f009f38b24dd" d="M198.88 381.71v-.6h-6.53v.5a12.83 12.83 0 0 0 3.48.49 12.2 12.2 0 0 0 3.05-.39z" transform="translate(-.98 -.52)"/></g><g id="a71c88a0-d293-4586-aac3-0f6228675fd7" data-name="boutons P1"><g id="e3da678c-15e7-4e10-a8b3-e12f49c23f69" data-name="4"><path class="a6ff596d-208e-4f28-8b1d-ee2ad7f61399" d="M92.54 389.14c-3.86 0-8.12 1.53-8.12 4.87 0 2.95 4.1 4.62 7.94 4.62 4.11 0 8-1.73 8-4.88-.04-2.35-3.88-4.61-7.82-4.61zm-.18 8.63c-3.86 0-7-1.74-7-3.89s3.13-3.89 7-3.89 7 1.74 7 3.89-3.14 3.89-7 3.89z" transform="translate(-.98 -.52)"/><path d="M92.36 390c-3.86 0-7 1.74-7 3.89s3.13 3.89 7 3.89 7-1.74 7-3.89-3.14-3.89-7-3.89z" transform="translate(-.98 -.52)" style="fill:url(#b67458ae-9fca-43d0-bf69-e42dd91a571b)"/></g><g id="ad47bd19-102f-4425-acc3-79a966063db1" data-name="5"><path class="a6ff596d-208e-4f28-8b1d-ee2ad7f61399" d="M114.79 389.14c-3.86 0-8.12 1.53-8.12 4.87 0 2.95 4.1 4.62 7.94 4.62 4.11 0 8-1.73 8-4.88-.04-2.35-3.88-4.61-7.82-4.61zm-.18 8.63c-3.86 0-7-1.74-7-3.89s3.13-3.89 7-3.89 7 1.74 7 3.89-3.14 3.89-7 3.89z" transform="translate(-.98 -.52)"/><path d="M114.61 390c-3.86 0-7 1.74-7 3.89s3.13 3.89 7 3.89 7-1.74 7-3.89-3.14-3.89-7-3.89z" transform="translate(-.98 -.52)" style="fill:url(#e98d3f31-2a1b-49db-9ab5-9c69aec01b80)"/></g><g id="b542e24b-ef71-4d31-af90-2029c296a078" data-name="6"><path class="a6ff596d-208e-4f28-8b1d-ee2ad7f61399" d="M133.35 395.3c-3.86 0-8.13 1.53-8.13 4.87 0 3 4.11 4.62 7.95 4.62 4.1 0 8-1.73 8-4.88-.04-2.35-3.88-4.61-7.82-4.61zm-.18 8.63c-3.86 0-7-1.74-7-3.89s3.13-3.89 7-3.89 7 1.74 7 3.89-3.17 3.89-7 3.89z" transform="translate(-.98 -.52)"/><path d="M133.17 396.15c-3.86 0-7 1.74-7 3.89s3.13 3.89 7 3.89 7-1.74 7-3.89-3.17-3.89-7-3.89z" transform="translate(-.98 -.52)" style="fill:url(#aede6602-2a4d-49f7-963c-f8a6f9180b60)"/></g><g id="ba41b3ae-f17a-44ff-8e4b-2398e0145f9a" data-name="3"><path class="a6ff596d-208e-4f28-8b1d-ee2ad7f61399" d="M139.39 383c-3.86 0-8.13 1.53-8.13 4.88 0 2.95 4.11 4.61 8 4.61 4.1 0 8-1.73 8-4.88-.09-2.31-3.93-4.61-7.87-4.61zm-.18 8.63c-3.86 0-7-1.74-7-3.89s3.13-3.89 7-3.89 7 1.75 7 3.89-3.14 3.93-7 3.93z" transform="translate(-.98 -.52)"/><path d="M139.21 383.89c-3.86 0-7 1.75-7 3.89s3.13 3.89 7 3.89 7-1.74 7-3.89-3.14-3.89-7-3.89z" transform="translate(-.98 -.52)" style="fill:url(#a371d69b-efce-482f-b048-fcfe571fe237)"/></g><g id="e2bea6a2-0f76-4f57-aa77-ef3d4a6734ec" data-name="2"><path class="a6ff596d-208e-4f28-8b1d-ee2ad7f61399" d="M121.79 377.35c-3.86 0-8.12 1.53-8.12 4.88 0 2.95 4.1 4.61 7.94 4.61 4.11 0 8-1.73 8-4.88-.04-2.34-3.88-4.61-7.82-4.61zm-.18 8.64c-3.86 0-7-1.74-7-3.89s3.13-3.89 7-3.89 7 1.74 7 3.89-3.14 3.9-7 3.9z" transform="translate(-.98 -.52)"/><path d="M121.61 378.21c-3.86 0-7 1.74-7 3.89s3.13 3.89 7 3.89 7-1.74 7-3.89-3.14-3.89-7-3.89z" transform="translate(-.98 -.52)" style="fill:url(#eccdb584-9dc0-47be-b446-508ef01918bd)"/></g><g id="ff5a037f-304f-4e7d-a3b5-0fb8d6a1e294" data-name="1"><path class="a6ff596d-208e-4f28-8b1d-ee2ad7f61399" d="M100.5 377.78c-3.86 0-8.13 1.53-8.13 4.88 0 2.95 4.11 4.62 7.95 4.62 4.1 0 8-1.73 8-4.88-.04-2.35-3.88-4.62-7.82-4.62zm-.18 8.64c-3.86 0-7-1.74-7-3.89s3.13-3.89 7-3.89 7 1.74 7 3.89-3.14 3.89-7 3.89z" transform="translate(-.98 -.52)"/><path d="M100.32 378.64c-3.86 0-7 1.74-7 3.89s3.13 3.89 7 3.89 7-1.74 7-3.89-3.14-3.89-7-3.89z" transform="translate(-.98 -.52)" style="fill:url(#f2c721d2-83f5-4e82-ae41-8e6fc74fd75a)"/></g></g><g id="b83f5797-73ee-4762-841a-43c6d47c544d" data-name="boutons P2"><g id="bd53fb2e-2465-4bcc-9055-bc8f8077c57d" data-name="1"><path class="ffb17f84-e665-4b15-af8c-ae51f9e92644" d="M225.69 399.93c-3.86 0-8.13 1.53-8.13 4.87 0 2.95 4.11 4.62 7.95 4.62 4.1 0 8-1.73 8-4.88-.04-2.35-3.88-4.61-7.82-4.61zm-.18 8.63c-3.86 0-7-1.74-7-3.89s3.13-3.89 7-3.89 7 1.74 7 3.89-3.14 3.89-7 3.89z" transform="translate(-.98 -.52)"/><path d="M225.51 400.78c-3.86 0-7 1.74-7 3.89s3.13 3.89 7 3.89 7-1.74 7-3.89-3.14-3.89-7-3.89z" transform="translate(-.98 -.52)" style="fill:url(#ba109d04-86cb-4860-a5e0-3eef633d10a6)"/></g><g id="be25d451-b49e-4bcd-8179-c33f7e3be180" data-name="2"><path class="ffb17f84-e665-4b15-af8c-ae51f9e92644" d="M247 399.49c-3.86 0-8.13 1.54-8.13 4.88 0 2.95 4.11 4.62 7.95 4.62 4.1 0 8-1.73 8-4.88-.07-2.35-3.91-4.62-7.82-4.62zm-.18 8.64c-3.86 0-7-1.74-7-3.89s3.13-3.89 7-3.89 7 1.74 7 3.89-3.17 3.89-7.03 3.89z" transform="translate(-.98 -.52)"/><path d="M246.79 400.35c-3.86 0-7 1.74-7 3.89s3.13 3.89 7 3.89 7-1.74 7-3.89-3.14-3.89-7-3.89z" transform="translate(-.98 -.52)" style="fill:url(#b5c098f7-b75a-46c1-bfa7-4e91c8a7c911)"/></g><g id="f33a9487-e682-4f2a-ae36-a8dfac397a8c" data-name="3"><path class="ffb17f84-e665-4b15-af8c-ae51f9e92644" d="M264.58 405.18c-3.86 0-8.12 1.53-8.12 4.88 0 2.95 4.1 4.61 7.94 4.61 4.1 0 8-1.73 8-4.88-.04-2.35-3.88-4.61-7.82-4.61zm-.18 8.64c-3.86 0-7-1.75-7-3.89s3.13-3.89 7-3.89 7 1.74 7 3.89-3.14 3.89-7 3.89z" transform="translate(-.98 -.52)"/><path d="M264.4 406c-3.86 0-7 1.74-7 3.89s3.13 3.89 7 3.89 7-1.75 7-3.89-3.14-3.89-7-3.89z" transform="translate(-.98 -.52)" style="fill:url(#bd87a13d-5e4d-497b-b107-e4a86b7ad106)"/></g><g id="e12c5d7a-cec1-4232-ac52-de31d97e3f7e" data-name="4"><path class="ffb17f84-e665-4b15-af8c-ae51f9e92644" d="M258.54 417.44c-3.86 0-8.13 1.53-8.13 4.88 0 2.95 4.11 4.61 8 4.61 4.1 0 8-1.73 8-4.88-.09-2.35-3.93-4.61-7.87-4.61zm-.18 8.64c-3.86 0-7-1.75-7-3.89s3.13-3.89 7-3.89 7 1.74 7 3.89-3.14 3.89-7 3.89z" transform="translate(-.98 -.52)"/><path d="M258.36 418.3c-3.86 0-7 1.74-7 3.89s3.13 3.89 7 3.89 7-1.75 7-3.89-3.14-3.89-7-3.89z" transform="translate(-.98 -.52)" style="fill:url(#af4b2e93-7ee0-46d2-aafb-93db7aad4adc)"/></g><g id="aa735730-86bb-4b25-bf30-482bdc38c54f" data-name="5"><path class="ffb17f84-e665-4b15-af8c-ae51f9e92644" d="M240 411.28c-3.86 0-8.13 1.53-8.13 4.88 0 2.95 4.11 4.61 7.95 4.61 4.1 0 8-1.73 8-4.88-.07-2.35-3.91-4.61-7.82-4.61zm-.18 8.63c-3.86 0-7-1.74-7-3.89s3.13-3.89 7-3.89 7 1.75 7 3.89-3.17 3.89-7.03 3.89z" transform="translate(-.98 -.52)"/><path d="M239.79 412.13c-3.86 0-7 1.75-7 3.89s3.13 3.89 7 3.89 7-1.74 7-3.89-3.14-3.89-7-3.89z" transform="translate(-.98 -.52)" style="fill:url(#f8cb49f0-78c9-41cf-b505-3d58a563e260)"/></g><g id="a62f0360-5858-4248-90a1-c5d5ddec240f" data-name="6"><path class="ffb17f84-e665-4b15-af8c-ae51f9e92644" d="M217.73 411.28c-3.86 0-8.13 1.53-8.13 4.88 0 2.95 4.11 4.61 8 4.61 4.1 0 8-1.73 8-4.88-.09-2.35-3.93-4.61-7.87-4.61zm-.18 8.63c-3.86 0-7-1.74-7-3.89s3.13-3.89 7-3.89 7 1.75 7 3.89-3.14 3.89-7 3.89z" transform="translate(-.98 -.52)"/><path d="M217.55 412.13c-3.86 0-7 1.75-7 3.89s3.13 3.89 7 3.89 7-1.74 7-3.89-3.14-3.89-7-3.89z" transform="translate(-.98 -.52)" style="fill:url(#a3f9adea-9e9b-4aa5-96ca-dc6fe05eb297)"/></g></g><path class="bf41ca11-c9b9-4eae-aaef-37430f7a539b" d="M228.57 237.19v.07l-5.92-1v-.08zM236.56 238.53a.13.13 0 0 0 0 .06l-5.72-1v-.06z" transform="translate(-.98 -.52)"/><path class="feccbf0f-ce4a-4b5f-be8c-2801f2f412e7" d="m210.17 273.38-65.56-11c-.87-.14-.87-.14-.74-.92.25-1.54.47-3.08.75-4.61.78-4.31 1.48-8.63 2.22-12.95.09-.48.22-1 .29-1.44 0-.18.12-.23.31-.19l.75.13 119.31 19.98a16.13 16.13 0 0 1 4.69 1.42 11.54 11.54 0 0 1 5.67 5.9 8.36 8.36 0 0 1 .63 3.88c0 .38-.08.76-.15 1.14l-1.56 9.36c-.07.39-.13.42-.54.36l-40.11-6.72zm14.68-7.7c-.4 2.35-.79 4.71-1.19 7.07 0 .23 0 .34.3.38 1 .15 1.95.32 2.93.49.51.09.51.09.59-.37q.69-4.22 1.4-8.43c0-.08 0-.21.12-.22s.13.1.17.17c1.69 3.14 3.43 6.26 5.06 9.42a2.38 2.38 0 0 0 3.55.6c.9-.94 1.91-1.79 2.87-2.68l4.89-4.53c.08-.07.15-.22.26-.17s0 .2 0 .31v.12c-.47 2.79-.93 5.58-1.4 8.37 0 .25 0 .35.31.4 1 .16 2 .32 3.06.51.34.07.45 0 .49-.32l2.32-13.83a1.32 1.32 0 0 0-.25-1 2.34 2.34 0 0 0-3.26-.37l-2.16 2-8.12 7.4c-.25.23-.28.22-.45-.08-2.2-4.06-4.42-8.11-6.61-12.17a2.14 2.14 0 0 0-1.43-1.06A1.74 1.74 0 0 0 226 259zm-4.51-.71c.38-2.31.76-4.61 1.16-6.92a1.32 1.32 0 0 0-.45-1.21 2.4 2.4 0 0 0-3.17 0c-2.39 2.24-4.82 4.43-7.24 6.63l-2.95 2.7c-.13.12-.23.25-.37 0l-3.44-6.31c-1.1-2-2.19-4-3.3-6a2.24 2.24 0 0 0-2.21-1 1.52 1.52 0 0 0-1.5 1.37q-1.16 6.86-2.3 13.71c0 .28.05.37.35.41 1 .15 2 .32 3 .5.44.07.45.08.51-.3.46-2.73.91-5.46 1.37-8.19 0-.13 0-.27.06-.4s0-.16.11-.17.1.08.13.14.18.34.28.51c1.63 3 3.29 6 4.88 9.07a2.34 2.34 0 0 0 3.35.6c.47-.47 1-.91 1.48-1.37l6.5-6c.06-.05.09-.14.19-.11s.07.14.06.22c-.14.81-.28 1.62-.41 2.44-.35 2.06-.69 4.13-1 6.2 0 .22 0 .32.29.36l3 .5c.44.07.45.07.52-.31q.51-3.6 1.1-7.04zm33.15 5.67c-.38 2.28-.76 4.57-1.15 6.85-.06.31.06.41.38.45 1 .16 2 .32 3 .5.33.07.45 0 .5-.31.16-1 .35-2.08.51-3.12 0-.23.12-.33.4-.28l12.77 2.14c.33.05.39.18.34.45-.18 1-.34 2.08-.53 3.12-.05.25 0 .35.32.4 1 .15 2 .32 3 .49.45.07.46.07.53-.34l1.22-7.32a6.88 6.88 0 0 0-2.51-6.52 12.61 12.61 0 0 0-6.36-3c-2.38-.41-4.76-.8-7.13-1.19-.72-.12-1.45-.26-2.17-.35a1.6 1.6 0 0 0-1.91 1.29c-.46 2.27-.83 4.5-1.21 6.74zm-62.24-10.42 1.14-6.79a1.24 1.24 0 0 0 0-.47 1.91 1.91 0 0 0-1.63-1.33c-1.55-.26-3.1-.53-4.65-.77-1.84-.3-3.66-.71-5.51-.87a11.55 11.55 0 0 0-7 1.39 6.55 6.55 0 0 0-3.37 4.67q-.63 3.74-1.25 7.47c-.07.4-.07.4.36.47 1 .17 2 .32 2.93.5.33.06.45 0 .5-.31.15-1 .34-2.06.5-3.09 0-.29.17-.35.48-.3l12.67 2.12c.34 0 .42.16.37.46-.19 1-.35 2.08-.54 3.11 0 .26 0 .36.32.4 1 .16 2 .32 3 .51.33.06.44 0 .49-.32.42-2.28.81-4.57 1.19-6.85zm-38.3 1 6.47 1.08a7.76 7.76 0 0 0 2.76 0 3.93 3.93 0 0 0 3.34-2.92c.64-3.78 1.26-7.55 1.9-11.33.05-.27 0-.37-.33-.42-1-.15-2-.32-3-.5-.36-.07-.46 0-.51.33q-.92 5.58-1.86 11.15a1.08 1.08 0 0 1-1.24.95 4.41 4.41 0 0 1-.73-.08c-1-.18-2-.37-3.06-.54l-7-1.15c-.28-.05-.35-.15-.31-.38.11-.59.19-1.18.31-1.76.06-.28 0-.4-.35-.45-.84-.13-1.68-.26-2.52-.42-.34-.07-.44 0-.49.32-.24 1.49-.49 3-.74 4.45-.07.42-.07.42.42.5zM230.83 237.63l5.72 1c.15.09.15.2.13.35-.37 2.17-.73 4.34-1.11 6.51 0 .29 0 .38.34.43 3.09.5 6.18 1 9.27 1.54.32.05.34.16.31.44-.06.67-.23 1.33-.32 2-.22 1.55-.54 3.09-.8 4.63-.1.59-.17 1.19-.26 1.78 0 .2-.12.31-.4.26L228.57 254c-.65-.11-.65-.11-.56-.68q1.29-7.69 2.57-15.38c.02-.15.02-.31.25-.31zm3.94 12.7c-.13.78-.25 1.56-.39 2.34-.05.27 0 .38.33.43 1.06.16 2.11.34 3.16.53.32.06.44 0 .49-.31.25-1.55.51-3.1.78-4.66 0-.24 0-.34-.31-.38q-1.62-.25-3.24-.54c-.28-.05-.39 0-.43.27-.16.78-.26 1.55-.39 2.32zM255.63 249.17c2.55.43 5.09.86 7.64 1.27.34.06.42.17.37.47q-.7 4.14-1.39 8.3c-.07.37-.1.4-.52.33L246.38 257c-.27-.05-.34-.16-.3-.39q.72-4.21 1.41-8.43c0-.28.18-.33.47-.28 2.55.44 5.11.86 7.67 1.29zm1.31 4.88c.14-.8.27-1.6.41-2.4 0-.23 0-.36-.3-.4l-3.44-.58c-.26 0-.38 0-.42.27l-.81 4.85c0 .25.05.36.33.41l3.37.56c.3.06.42 0 .46-.3.13-.8.27-1.6.4-2.41zM173.53 244.78l-7.64-1.27c-.31 0-.37-.15-.33-.42q.72-4.2 1.42-8.42c0-.25.13-.32.4-.27l15.36 2.6c.41.07.43.11.37.49-.26 1.55-.53 3.11-.78 4.66 0 .31-.17.37-.5.32-3.07-.53-6.15-1-9.22-1.55-.46-.08-.46-.08-.52.32s-.11.7-.19 1 0 .35.31.4c2.06.33 4.11.68 6.17 1l3.16.53c.32.05.42.17.37.44s-.14.74-.19 1.11-.18.38-.51.32zm.92-5.45c.56.1 1.13.18 1.69.29.25 0 .35 0 .38-.25 0-.39.12-.78.2-1.17 0-.21 0-.32-.26-.36l-3.41-.57c-.22 0-.33 0-.36.23q-.08.62-.18 1.23c0 .23.06.3.29.33.55.07 1.1.17 1.65.27zM211.28 241.75l7.64 1.28c.44.07.5.14.42.52-.43 2-.7 4-1.05 6-.14.74-.27 1.48-.37 2.23 0 .29-.15.37-.49.31-2.08-.36-4.17-.7-6.26-1l-9-1.51c-.42-.07-.43-.08-.37-.47.26-1.56.53-3.11.77-4.67 0-.32.18-.37.52-.31l9.16 1.54c.46.07.46.07.53-.33s.09-.67.17-1 0-.4-.36-.46c-2.34-.37-4.68-.77-7-1.16l-2.31-.38c-.24 0-.32-.12-.28-.34a10.85 10.85 0 0 0 .21-1.27c0-.27.16-.31.43-.26l5.37.9 2.27.38zm-1.15 7.25c.55.09 1.11.17 1.66.27.21 0 .33 0 .36-.21l.21-1.23c0-.19-.05-.29-.27-.33l-3.33-.56c-.24 0-.35 0-.38.24 0 .4-.11.79-.19 1.17-.05.23.05.33.29.37.52.07 1.1.17 1.65.28zM268.74 251.36c.87.15 1.74.31 2.62.44.31 0 .38.18.34.43-.08.4-.13.8-.21 1.2 0 .21 0 .3.27.34l3.36.56c.28 0 .38 0 .41-.27.06-.41.15-.82.2-1.23 0-.23.15-.27.37-.24l5.4.91c.21 0 .3.13.27.33-.08.43-.16.86-.22 1.29 0 .23-.16.29-.41.25-.44-.09-.89-.15-1.34-.24-.24 0-.33 0-.36.24-.05.4-.13.8-.19 1.2 0 .23-.15.3-.4.25-.47-.08-.94-.15-1.41-.24-.17 0-.24 0-.29.17-.13.44-.08.91-.25 1.34-.07.18.07.24.24.27l1.38.22c.28 0 .38.15.33.41s-.13.78-.21 1.17c0 .21.05.31.28.34l1.34.22c.25 0 .34.13.3.36-.09.42-.17.84-.22 1.27 0 .22-.15.27-.36.24l-.65-.11-4.62-.77c-.45-.08-.45-.08-.38-.49s.12-.76.19-1.14c.05-.21 0-.3-.27-.34l-3.44-.58c-.22 0-.29 0-.31.21-.06.4-.16.8-.19 1.21s-.19.37-.5.32l-4.72-.8c-1.16-.19-.93-.1-.8-1 0-.25.09-.49.12-.74s.16-.29.4-.25c.45.09.9.15 1.34.24.27.05.39 0 .42-.26s.14-.78.19-1.17.16-.31.41-.26c.46.09.92.15 1.37.24.21 0 .3 0 .32-.2.06-.43.13-.85.22-1.27 0-.21-.05-.28-.26-.31l-1.38-.23c-.24 0-.34-.12-.29-.36s.14-.78.21-1.17c0-.23 0-.35-.31-.38-.45-.06-.9-.15-1.35-.22-.25 0-.34-.14-.29-.37q.12-.63.21-1.26c0-.24.16-.29.4-.24zM222.64 236.28l5.92 1a.42.42 0 0 1 .05.36q-1.31 7.77-2.6 15.56c0 .28-.17.37-.48.31s-.88-.19-1.33-.26l-3.89-.62c-.46-.08-.45-.08-.39-.49q1.31-7.74 2.6-15.49c.02-.14 0-.28.12-.37zM191.71 247.82l-7.71-1.28c-.3 0-.4-.14-.35-.43q.72-4.2 1.41-8.4c0-.26.15-.32.42-.27l15.39 2.56c.31.05.42.18.36.45s-.11.72-.19 1.08-.13.41-.55.34l-4.16-.7-5.06-.85c-.28 0-.37 0-.41.25-.22 1.39-.46 2.78-.69 4.17a2.74 2.74 0 0 1 0 .28c-.11.6-.11.6.58.72l8.92 1.49c.42.07.45.11.39.5s-.15.72-.18 1.08-.19.35-.48.3c-.56-.11-1.12-.2-1.68-.29z" transform="translate(-.98 -.52)"/><path d="M291.07 282.1c-.25 1.47-.49 2.94-.74 4.41-.07.42-.07.42-.51.34l-4.27-.71c-.27 0-.37-.13-.3-.37s.07-.41.11-.62-.06-.27-.25-.29l-.49-.05c-.39-.06-.49 0-.51.37v.19c0 .43-.14.5-.63.42-1.39-.23-2.79-.47-4.19-.69-.32-.05-.4-.19-.36-.45.5-3 1-5.91 1.49-8.86.06-.36.14-.42.55-.33 2.95.58 5.92 1 8.87 1.52.52.09 1 .13 1.55.22s.47.1.4.52c-.24 1.46-.49 2.92-.73 4.38zm-8.37-.17 1.58.27c.22 0 .32 0 .35-.22.1-.59.2-1.19.31-1.79 0-.21-.06-.3-.29-.34l-3.13-.52c-.21 0-.31 0-.35.22-.08.59-.18 1.19-.29 1.79 0 .21 0 .31.27.34zm5.47-1.49c-.52-.08-1-.16-1.55-.26-.25-.05-.36 0-.39.24-.09.59-.19 1.19-.29 1.78-.05.23.05.29.28.33 1 .16 2 .33 3 .51.28.05.39 0 .43-.27.08-.56.17-1.13.28-1.69 0-.23 0-.35-.3-.39-.48-.08-.97-.17-1.46-.25z" transform="translate(-.98 -.52)" style="fill:#2785db"/><path d="M292.87 271.31c-.25 1.48-.5 3-.74 4.44-.07.38-.11.4-.52.34l-2.86-.48c-.41-.07-.49-.18-.43-.54.14-.85.28-1.71.43-2.56a.34.34 0 0 1 0-.1c.2-.63.12-.52.72-.43l1.48.25c.26 0 .4 0 .44-.25.09-.59.19-1.18.29-1.76 0-.21 0-.33-.3-.38l-8-1.34c-.26 0-.39.05-.42.28-.09.57-.19 1.14-.28 1.7 0 .23.05.36.31.41l3.06.52a.25.25 0 0 0 .33-.17 1.81 1.81 0 0 0 .12-.64c0-.19.11-.24.27-.29a.45.45 0 0 1 .2 0c.85.09.89.14.77.88-.21 1.26-.43 2.51-.63 3.77 0 .26-.17.34-.43.3l-5.43-.91c-.49-.08-.55-.15-.48-.58.49-3 1-5.91 1.48-8.87 0-.17.09-.23.28-.22s.55 0 .83.08l9.77 1.63c.55.09.55.1.47.6l-.72 4.32z" transform="translate(-.98 -.52)" style="fill:#44c047"/><path d="M289.84 254.78c1.75.29 3.49.59 5.24.87.3 0 .4.13.35.42-.51 3-1 5.95-1.49 8.92-.05.3-.16.38-.49.32-1.4-.25-2.8-.48-4.2-.71-.36-.06-.42-.15-.36-.47 0-.12.06-.23.08-.34.08-.47.08-.47-.46-.56h-.21c-.5-.08-.51-.08-.54.39 0 .18-.1.34-.11.52s-.18.19-.35.16l-4.44-.74c-.23 0-.32-.15-.29-.35.17-1 .35-2 .51-3.06 0-.28.23-.27.45-.23l1.83.3c.8.15 1.61.24 2.4.44.25.06.44 0 .48-.27.07-.57.17-1.14.28-1.7.05-.27 0-.38-.34-.43-1.42-.22-2.83-.47-4.24-.7-.29 0-.4-.12-.35-.4.18-1 .33-2 .48-3 0-.26.15-.33.44-.28 1.77.31 3.55.6 5.33.9zm1.49 6.43c.51.08 1 .16 1.54.26.22 0 .35 0 .39-.21.09-.61.19-1.22.3-1.82 0-.2 0-.32-.27-.35l-3.09-.52c-.22 0-.32 0-.35.21-.09.63-.2 1.25-.31 1.88 0 .18 0 .26.24.29z" transform="translate(-.98 -.52)" style="fill:#eb1416"/><path class="feccbf0f-ce4a-4b5f-be8c-2801f2f412e7" d="m156.94 232.66 7.54 1.26c.53.09.53.09.45.57s-.13.7-.17 1-.16.33-.44.28l-9.3-1.57c-.33-.05-.41 0-.45.3-.35 2.17-.72 4.33-1.07 6.49-.05.31-.2.36-.51.31l-5.19-.87c-.3 0-.4-.14-.35-.42q.72-4.19 1.4-8.39c.05-.31.19-.34.48-.29z" transform="translate(-.98 -.52)"/><path class="bf41ca11-c9b9-4eae-aaef-37430f7a539b" d="M224.85 265.68 226 259a1.74 1.74 0 0 1 2.34-1.33 2.14 2.14 0 0 1 1.43 1.06c2.19 4.06 4.41 8.11 6.61 12.17.17.3.2.31.45.08l8.14-7.43 2.16-2a2.34 2.34 0 0 1 3.26.37 1.32 1.32 0 0 1 .25 1q-1.17 6.91-2.32 13.83c0 .29-.15.39-.49.32-1-.19-2-.35-3.06-.51-.3-.05-.36-.15-.31-.4.47-2.79.93-5.58 1.4-8.37v-.12c0-.04.11-.25 0-.31s-.18.1-.26.17l-4.89 4.53c-1 .89-2 1.74-2.87 2.68a2.38 2.38 0 0 1-3.55-.6c-1.63-3.16-3.37-6.28-5.06-9.42 0-.07-.06-.19-.17-.17s-.11.14-.12.22l-1.4 8.43c-.08.46-.08.46-.59.37-1-.17-1.95-.34-2.93-.49-.28 0-.34-.15-.3-.38.4-2.36.79-4.72 1.19-7.07zM220.34 265q-.59 3.46-1.16 6.95c-.07.38-.08.38-.52.31l-3-.5c-.27 0-.32-.14-.29-.36.36-2.07.7-4.14 1-6.2.13-.82.27-1.63.41-2.44 0-.08.06-.18-.06-.22s-.13.06-.19.11l-6.5 6c-.5.46-1 .9-1.48 1.37a2.34 2.34 0 0 1-3.35-.6c-1.59-3-3.25-6.05-4.88-9.07-.1-.17-.19-.34-.28-.51s-.05-.14-.13-.14-.1.1-.11.17 0 .27-.06.4c-.46 2.73-.91 5.46-1.37 8.19-.06.38-.07.37-.51.3-1-.18-2-.35-3-.5-.3 0-.4-.13-.35-.41q1.16-6.86 2.3-13.71a1.52 1.52 0 0 1 1.5-1.37 2.24 2.24 0 0 1 2.21 1c1.11 2 2.2 4 3.3 6l3.44 6.31c.14.27.24.14.37 0l2.95-2.7c2.42-2.2 4.85-4.39 7.24-6.63a2.4 2.4 0 0 1 3.17 0 1.32 1.32 0 0 1 .45 1.21c-.4 2.31-.78 4.61-1.16 6.92zM253.49 270.64c.38-2.24.75-4.47 1.13-6.7a1.6 1.6 0 0 1 1.91-1.29c.72.09 1.45.23 2.17.35 2.37.39 4.75.78 7.13 1.19a12.61 12.61 0 0 1 6.36 3 6.88 6.88 0 0 1 2.51 6.52q-.6 3.66-1.22 7.32c-.07.41-.08.41-.53.34-1-.17-2-.34-3-.49-.29 0-.37-.15-.32-.4.19-1 .35-2.08.53-3.12.05-.27 0-.4-.34-.45l-12.77-2.14c-.28-.05-.36 0-.4.28-.16 1-.35 2.08-.51 3.12-.05.3-.17.38-.5.31-1-.18-2-.34-3-.5-.32 0-.44-.14-.38-.45.39-2.28.77-4.57 1.15-6.85zM264 273l6.37 1.07c.3 0 .43 0 .46-.28s.08-.52.12-.78a4.27 4.27 0 0 0-1.54-4.2 8.48 8.48 0 0 0-4-1.85c-2.25-.43-4.52-.78-6.77-1.17-.34-.06-.36.12-.4.33q-.44 2.69-.9 5.37c0 .29 0 .4.36.46zM191.25 260.22c-.38 2.28-.77 4.57-1.14 6.85-.05.3-.16.38-.49.32-1-.19-2-.35-3-.51-.29 0-.36-.14-.32-.4.19-1 .35-2.08.54-3.11.05-.3 0-.41-.37-.46l-12.67-2.12c-.31-.05-.44 0-.48.3-.16 1-.35 2.05-.5 3.09 0 .3-.17.37-.5.31-1-.18-1.95-.33-2.93-.5-.43-.07-.43-.07-.36-.47q.62-3.74 1.25-7.47a6.55 6.55 0 0 1 3.37-4.67 11.55 11.55 0 0 1 7-1.39c1.85.16 3.67.57 5.51.87 1.55.24 3.1.51 4.65.77a1.91 1.91 0 0 1 1.59 1.37 1.24 1.24 0 0 1 0 .47l-1.14 6.79zm-10.67-1.14c2.11.35 4.22.7 6.33 1.07.32.05.44 0 .48-.29.3-1.81.6-3.63.91-5.44 0-.26 0-.37-.33-.42q-3-.48-6-1a11.11 11.11 0 0 0-3.77 0 4.85 4.85 0 0 0-3.81 2.54 7.49 7.49 0 0 0-.52 2c-.07.4-.07.41.4.48zM153 261.25l-7-1.17c-.49-.08-.49-.08-.42-.5.25-1.48.5-3 .74-4.45.05-.28.15-.39.49-.32.84.16 1.68.29 2.52.42.31.05.41.17.35.45-.12.58-.2 1.17-.31 1.76 0 .23 0 .33.31.38l7 1.15c1 .17 2 .36 3.06.54a4.41 4.41 0 0 0 .73.08 1.08 1.08 0 0 0 1.24-.95q.94-5.58 1.86-11.15c0-.3.15-.4.51-.33 1 .18 2 .35 3 .5.3.05.38.15.33.42-.64 3.78-1.26 7.55-1.9 11.33a3.93 3.93 0 0 1-3.34 2.92 7.76 7.76 0 0 1-2.76 0l-6.41-1.08z" transform="translate(-.98 -.52)"/><path class="feccbf0f-ce4a-4b5f-be8c-2801f2f412e7" d="m264 273-6.33-1c-.34-.06-.41-.17-.36-.46q.47-2.68.9-5.37c0-.21.06-.39.4-.33 2.25.39 4.52.74 6.77 1.17a8.48 8.48 0 0 1 4 1.85 4.27 4.27 0 0 1 1.54 4.2c0 .26-.1.52-.12.78s-.16.33-.46.28zM180.58 259.08l-6.3-1.06c-.47-.07-.47-.08-.4-.48a7.49 7.49 0 0 1 .52-2 4.85 4.85 0 0 1 3.81-2.54 11.11 11.11 0 0 1 3.77 0q3 .51 6 1c.31.05.38.16.33.42-.31 1.81-.61 3.63-.91 5.44 0 .29-.16.34-.48.29-2.11-.37-4.22-.72-6.33-1.07z" transform="translate(-.98 -.52)"/></g><g id="ac655368-2706-4562-b8d9-8ad5ff6c2283" data-name="bad9304b-bf56-46c2-b043-6cd2e85f1218"><path class="ab4f5dee-f46c-4824-acef-b9579fc1241a" d="m113.47 104.72 52.62 8.28 24.42 3.8 90.9 14.27a20 20 0 0 1 6.71 2l.4.34c4.68 2.92 7.12 8.23 5.88 12.81s-5.71 7.31-10.94 6.58l-179.78-28.67c-6.87-1.1-11.9-6.54-11.61-12.71a8.47 8.47 0 0 1 5.79-8.06 10.19 10.19 0 0 1 1.92-.37 20.74 20.74 0 0 1 4.82.36zM240 135.49v3.94a3.38 3.38 0 0 0 .92 2.36c2.42 2.74 11.28 4.15 13.82 2.2 1.24-1 1.16-4.14 1.16-4.14l-3-.47c-.06 0-2.48-.39-2.28 1.54.19 1.76-1.41 1.53-2.69 1.33s-2.66-.42-2.62-2.24c0-2.45.07-4.91 0-7.37 0-1.7 1.25-1.63 2.48-1.45s2.94.35 2.87 2.21l.06 1.2c.51 0 4.25.64 4.77.72l-.06-2.77a4.37 4.37 0 0 0-2.19-2.11 18.54 18.54 0 0 0-10.62-1.7c-2 .3-2.66 1.3-2.68 3.33.06 1.12.06 2.27.06 3.42zm33.09-2.69a12 12 0 0 0-5.45-.08c-2.77.74-3.18 3.37-.83 5.52a23.12 23.12 0 0 0 3 2.15c1.49 1 3 1.86 4.5 2.86.83.57 1.63 1.36 1.2 2.3-.52 1.12-1.81.81-2.89.58s-2.26-.35-2.27-1.61v-1.32l-3.43-.54s-2.26.21-1.53 2a3.79 3.79 0 0 0 1.63 1.89c4 2.17 8.1 2.92 12.07 1.9 2.36-.62 2.59-3.08.69-5.05a19.27 19.27 0 0 0-4.22-3 22.17 22.17 0 0 1-4-2.64c-.75-.68-1.22-1.51-.61-2.23s1.85-.56 2.9-.29 2 .55 2 1.74c0 .77 1.11 1 1.11 1 .7.08 2.1.31 2.1.31l2 .32a7.81 7.81 0 0 0-.68-2.62 5.92 5.92 0 0 0-2.42-1.92 14.87 14.87 0 0 0-4.9-1.31z" transform="translate(-.98 -.52)"/><path d="m169.52 131.8-5-.79-1.37-3.16-5.69-.91-1.37 2.72-4.67-.77.17-.4c1.6-4.45 3.21-8.88 4.79-13.34l.17-.53 3.76.62 3.65.55 2.17 5.86s2.18 6.46 3.19 9.7zm-11.73-6.8 4.8.76c-.76-2.48-1.5-4.84-2.23-7.2l-.35-.06c-.73 2.12-1.45 4.24-2.22 6.5zm-52.14-10.9v-3.38a2.67 2.67 0 0 1 2.41-3.09 17.25 17.25 0 0 1 10.55 1.69 4.29 4.29 0 0 1 2 2.48 11.71 11.71 0 0 1 .27 2.26l-4.91-.75v-1.16c.06-1.83-1.53-2-2.78-2.16s-2.41-.25-2.37 1.42v7.25c0 1.78 1.32 2 2.53 2.2s2.79.41 2.6-1.32v-1.89l5 .77v.37c.12 1.25-.33 3.16-1.1 3.77-2.42 1.92-11 .56-13.34-2.13a3.51 3.51 0 0 1-.91-2.48v-3.85zm134.52 21.47v-3.44c0-2 .69-3 2.68-3.33a18.55 18.55 0 0 1 10.62 1.7 4.6 4.6 0 0 1 1.76 1.39 3.81 3.81 0 0 1 .43.72 3.08 3.08 0 0 1 .21 1.36 9.35 9.35 0 0 1-.14 1.4l-4.79-.73-.06-1.19c.08-1.86-1.57-2-2.87-2.21s-2.49-.26-2.46 1.44v7.37c0 1.81 1.36 2 2.62 2.24s2.89.43 2.69-1.33V139c.07 0 2.39.38 2.45.42l2.8.45s.39 3-1.16 4.13c-2.56 1.92-11.4.53-13.83-2.2a3.42 3.42 0 0 1-.92-2.34v-3.93zm-55.56-1a13.37 13.37 0 0 1-5.27-1.58 3.9 3.9 0 0 1-2.35-3.58v-1l5 .82v.74a1.63 1.63 0 0 0 1.17 1.87c1.27.48 2.56.8 3.59.17s.43-1.52-.32-2.26a19.14 19.14 0 0 0-3.87-2.63 19.86 19.86 0 0 1-4.12-2.9c-2-2-1.79-4.56.71-5.17a15.63 15.63 0 0 1 11.33 1.78 4.08 4.08 0 0 1 1.52 1.47 3.35 3.35 0 0 1 .53 2.09v.32l-5.16-.85v-1c-.18-1.34-1.46-1.44-2.44-1.6s-2.08-.38-2.43.68.49 1.82 1.38 2.4c1.29.88 2.63 1.7 4 2.51a17.06 17.06 0 0 1 3.36 2.44c2 2.06 1.69 4.39-.74 5.19a11.54 11.54 0 0 1-5.81 0zm23.78 3.86a17.6 17.6 0 0 1-4.27-1.12 7.52 7.52 0 0 1-2.89-2.1 3.4 3.4 0 0 1-.66-2.56v-.34l5.13.74v1.12c-.08 1.29 1.13 1.55 2.05 1.77 1.12.26 2.46.62 3-.5s-.38-1.8-1.25-2.38c-1.81-1.22-3.69-2.3-5.51-3.52s-3.56-2.42-3.18-4.64 2.31-2.44 4.31-2.44a20.76 20.76 0 0 1 7.53 1.34c2.09.81 3.35 2.22 3.49 3.71a7.92 7.92 0 0 1 0 1.08l-5.14-.81v-1.11c-.19-1.3-1.51-1.39-2.5-1.56s-2-.31-2.35.62.36 1.83 1.24 2.42c1.77 1.18 3.6 2.24 5.37 3.41s3.69 2.43 3.32 4.75-2.5 2.36-4.49 2.42a30.15 30.15 0 0 1-3.2-.37zm64.87-5.58a15.08 15.08 0 0 1 4.89 1.32 6 6 0 0 1 2.41 1.92 3.36 3.36 0 0 1 .69 2.62l-5.25-.76V137c-.2-1.42-1.06-1.49-2-1.74s-2.21-.51-2.89.29-.15 1.54.6 2.23a23.57 23.57 0 0 0 4 2.64 19.61 19.61 0 0 1 4.22 3c1.89 2 1.68 4.44-.7 5.05-4 1-8.05.28-12.06-1.9a3.78 3.78 0 0 1-1.78-1.94 5.91 5.91 0 0 1-.1-1.25 5.25 5.25 0 0 1 .12-1l5.08.81v1.32c0 1.27 1.35 1.41 2.28 1.61s2.34.52 2.88-.59c.44-.93-.37-1.73-1.2-2.3-1.46-1-3-1.88-4.5-2.85a23.2 23.2 0 0 1-3-2.16c-2.34-2.13-1.94-4.77.83-5.51a12 12 0 0 1 5.45.07zM130.64 118v-7.64l5.3.84v12.97l7.32 1.12 1.16.18v2.34l-13.71-2.19v-1.17zm100 15.86c0 2.12-.06 4.23 0 6.36v1.34l-5.44-.86c0-3.43.09-10.69.06-14.13v-1.33l5.47.86-.06 7.76z" transform="translate(-.98 -.52)" style="fill:#fefefe"/><path class="ab4f5dee-f46c-4824-acef-b9579fc1241a" d="M157.79 125c.77-2.23 1.49-4.35 2.22-6.48l.35.06c.73 2.36 1.47 4.72 2.23 7.2z" transform="translate(-.98 -.52)"/><path class="ada46b37-9485-479a-835a-45e8a3fcbba8" d="m295 133.85-15.08-2.23-18.16-2.74-1.65-.26v-.88l.07-3.35-.05-3.93c6.42 1 14.45 2.31 20.91 3.31l2 .35c-2.69-8-5.4-16.16-8.09-24.13q-3-9-6.09-18a5.76 5.76 0 0 0-4.73-4.19 4 4 0 0 0-4.67 2.68c-5.71 14.6-11.41 29.16-16.93 43.73-.56 1.48-1.19 1.54-2.6 1.31q-16.77-2.68-33.47-5.26c-7.75-1.21-16-9.38-16.1-17.23-.13-9.29-.17-18.59.05-27.86.19-7.65 7.55-13.21 15.88-12.1 9.2 1.22 19.63 2.92 28.86 4.26v8l-1.5-.25c-8.48-1.32-16.95-2.38-25.38-3.92-5.3-1-9.82 2-9.62 7.7.28 7.94 0 15.79 0 23.66 0 5.17 3.46 9 8.9 9.83 5.77.9 11.54 1.76 17.32 2.74 1.34.21 1.62-.12 1.61-1.31 0-6.15 0-12.32.07-18.47 0-1.43-.46-1.76-1.85-1.94-4.05-.54-12.14-1.8-12.14-1.8l-1.44-.22V83.4l24 3.65-.14 31.12.37.12c.94-2.43 1.94-4.86 2.88-7.3q6.59-16.9 13.19-33.92c1.59-4.06 5-5.83 9.56-6.5a23 23 0 0 1 5.91.72c5.39 1.9 9 5.34 10.58 10.58.84 2.75 1.81 5.48 2.73 8.21 4.85 14.34 10 29.47 14.87 43.8zM104.26 96.28c3.93.61 7.85 1.25 11.79 1.84 6.41.95 11.43-2.93 11.41-8.8s-5.08-11.45-11.54-12.51c-2.19-.35-4.39-.67-6.58-1-5-.74-9.08-5.24-9.12-10.06s3.84-8 8.75-7.42c8.5 1.17 18.14 2.66 26.68 3.92v7.9s-17-2.62-24.75-3.79l-1-.16c-.82-.17-1.58-.1-1.56.8s.77 1 1.51 1.14c2 .27 3.93.57 5.9.86 11.37 1.7 20.2 11.37 19.88 22.17-.22 7.49-4.26 12.26-11.29 14.52a17.34 17.34 0 0 1-8.62.46c-5.1-1-15.29-2.45-15.29-2.45L90.07 102v-8s9.93 1.61 14.19 2.28z" transform="translate(-.98 -.52)"/><path class="ada46b37-9485-479a-835a-45e8a3fcbba8" d="m121.17 50.15 14.47 2.17V60.26s-17.84-2.72-25.95-3.94c-6.5-1-11.53 2.9-11.5 8.86s5 11.4 11.5 12.42c2.2.34 4.39.67 6.59 1.08 5.24 1 9.31 5.58 9.17 10.32s-4.23 7.9-9.47 7.08c-8-1.25-18-2.86-26-4v-7.85c-.06 0 17.07 2.72 24.82 3.89.91.14 2.3.76 2.34-.5.06-1.43-1.42-1.23-2.35-1.41-3.64-.68-7.31-.8-10.88-2.41-8-3.61-13.8-11-13.84-19.62 0-11.43 9.24-17.19 19-15.81 4.08.54 8.14 1.18 12.2 1.79zm66 67-1.83-.32c-8.81-1.38-17.6-2.91-26.36-4.09-9-1.21-16.92-10.22-16.87-18.13.05-8.83-.13-17.72.09-26.54.2-7.84 7.21-13.44 15.5-12.37 9.41 1.3 29.48 4.3 29.48 4.3l.08 4v4l-1.62-.25c-8.77-1.37-17.53-2.5-26.26-4.05-4.66-.82-9.26 2.05-9.1 7.24.23 8 .06 15.91.07 23.85 0 5.4 3.32 9.06 9 9.94C168 106.11 187 109 187 109v1.7zm72.9-5.09c-1 2.56-2.05 5.07-3 7.66s-2.33 4.83-2.67 7.62c-.06.46-.52.26-.83.21l-9.56-1.5 13.19-33.79c1.4-3.61 2.85-7.2 4.22-10.86a2.33 2.33 0 0 1 2.69-1.78 3.3 3.3 0 0 1 2.81 2.64q6.38 19 12.8 38l.53 1.49c-5.69-.93-13-2.1-18.68-2.92l-1.29-.2v-6.47zm.28-1.15a1.54 1.54 0 0 1 2-.77c1.27.28 2.56.42 3.84.59.41.07.94.18.72-.46-.88-2.66-1.79-5.31-2.81-8.3-1.46 3.17-2.18 6.26-3.72 9zm-59.62-20.2V78.79c0-4.39 2.56-6.44 7.13-5.76 8.5 1.29 17 2.59 25.56 3.83l1.66.25v8l-1.77-.23c-7.14-1.17-14.27-2.21-21.38-3.29-2.23-.33-2.78.09-2.78 2.15l-.05 16.49c0 1.91.6 2.58 2.68 3 1 .18 3.26.5 4.3.71v-2l-1.23-.19-3.7-.62v-7.85l4.54.7s5.1.81 7.63 1.14c1 .13 1.27.48 1.25 1.39q-.09 7.68 0 15.36c0 .88-.19 1.2-1.22 1-5.49-.89-11-1.67-16.45-2.59a7.3 7.3 0 0 1-6.11-7c-.05-4.19 0-8.37 0-12.56z" transform="translate(-.98 -.52)"/><path class="ada46b37-9485-479a-835a-45e8a3fcbba8" d="M172.1 67.63c4.52.68 10.5 1.61 15 2.24v8l-1.56-.24q-11.17-1.75-22.3-3.39c-.62-.09-1.26-.31-1.8 0s-1 .6-.75 1.22c.13.38 1.2.44 1.2.44 5.53.84 19.06 2.84 19.06 2.84v2.38c0 1.52.05 5.57.05 5.57l-28.66-4.39v-1c0-3.67-.07-7.37 0-11 .11-3.12 2.79-5.11 6.17-4.65 4.5.61 13.52 2 13.52 2zm-.23 37.15-13-2a7.28 7.28 0 0 1-6.51-7.21V84.22c8.64 1.37 18.63 2.9 27.32 4.2l1.38.21-.1 7.85-1.36-.21q-8.73-1.41-17.46-2.7s-1.58-.34-1.44.15a2.26 2.26 0 0 0 1.3 1.66 7.08 7.08 0 0 0 1.69.36L187 99.35v7.86s-10.62-1.73-15.13-2.43z" transform="translate(-.98 -.52)"/></g></svg>