<svg xmlns="http://www.w3.org/2000/svg" xmlns:xlink="http://www.w3.org/1999/xlink" viewBox="0 0 746.51 822.18"><defs><style>.abd8d270-3fa5-41be-9c12-fa6f417bc6ef,.b29ce5f9-28d7-4380-8dbf-180dc888d840,.b8a32647-ed5f-4b50-8ea0-bfa91913f41c{fill:#373735;}.abd8d270-3fa5-41be-9c12-fa6f417bc6ef{opacity:0.5;}.adb30bf9-9ff7-49ad-a1be-576ad753e1fa{fill:#121211;}.a5b1dc53-5fb4-404b-ab9e-3b6b0bcb42a1,.adb30bf9-9ff7-49ad-a1be-576ad753e1fa,.b02fad7a-56b1-4193-a171-534577987907,.b33b48f9-6771-419a-b06c-78a2f2571333,.b666027f-71d0-41d4-ac38-42e240915409,.b8a32647-ed5f-4b50-8ea0-bfa91913f41c,.f382265a-4283-4ad8-994b-669d39dc2f00{stroke:#b5b5b5;}.a5b1dc53-5fb4-404b-ab9e-3b6b0bcb42a1,.a79254e2-0f3d-4a11-a053-8aa659d6c05b,.adb30bf9-9ff7-49ad-a1be-576ad753e1fa,.b02fad7a-56b1-4193-a171-534577987907,.b33b48f9-6771-419a-b06c-78a2f2571333,.b666027f-71d0-41d4-ac38-42e240915409,.b8a32647-ed5f-4b50-8ea0-bfa91913f41c,.e07b9993-7486-44a2-b497-90854142605a,.e9720e0f-770f-4413-a8b5-c8bbb08a8b25,.f28a9f14-c3fe-42fe-8bf8-f217d93cc311,.f382265a-4283-4ad8-994b-669d39dc2f00{stroke-miterlimit:10;}.a5b1dc53-5fb4-404b-ab9e-3b6b0bcb42a1,.adb30bf9-9ff7-49ad-a1be-576ad753e1fa,.b02fad7a-56b1-4193-a171-534577987907,.b33b48f9-6771-419a-b06c-78a2f2571333,.b666027f-71d0-41d4-ac38-42e240915409,.e07b9993-7486-44a2-b497-90854142605a,.f382265a-4283-4ad8-994b-669d39dc2f00{stroke-width:0.5px;}.f28a9f14-c3fe-42fe-8bf8-f217d93cc311{fill:#443840;}.e07b9993-7486-44a2-b497-90854142605a,.e9720e0f-770f-4413-a8b5-c8bbb08a8b25,.f28a9f14-c3fe-42fe-8bf8-f217d93cc311{stroke:#090000;}.b8a32647-ed5f-4b50-8ea0-bfa91913f41c,.e9720e0f-770f-4413-a8b5-c8bbb08a8b25,.f28a9f14-c3fe-42fe-8bf8-f217d93cc311{stroke-width:0.75px;}.e07b9993-7486-44a2-b497-90854142605a{fill:#6b0c05;}.ee3d8c3a-91af-4380-a6cf-e22c43fc1e4d{fill:#86382f;}.e9720e0f-770f-4413-a8b5-c8bbb08a8b25{fill:#8b8b8b;}.a79254e2-0f3d-4a11-a053-8aa659d6c05b{stroke:#373737;}.b33b48f9-6771-419a-b06c-78a2f2571333{fill:#bf0000;}.b666027f-71d0-41d4-ac38-42e240915409{fill:#dc6e05;}.f50751b4-db76-4ef2-b1cb-230738d22987{fill:#00a3d7;}.a5b1dc53-5fb4-404b-ab9e-3b6b0bcb42a1{fill:#12e600;}.f37a332c-f310-45b5-b9e8-5d09de7f609d{fill:#e50703;}.f382265a-4283-4ad8-994b-669d39dc2f00{fill:#0b47ce;}.b84cfb3d-b7f7-45a1-bb5b-f9200bef856f{fill:#1faa33;}.afa99b9f-abb6-4e56-b6ea-a7893f8df13b,.b02fad7a-56b1-4193-a171-534577987907{fill:#282826;}.e29503f2-2501-4922-8939-e4cf8b7b993c{fill:#151312;}.f7dbf994-6f81-4227-bcbd-2e3f684f6130{fill:#555353;}.bd23ddf3-d978-4fb2-a274-c9366650d5ec{fill:#008aa6;}.f6e83794-0313-4d28-ab43-ba360d0ef7a1{fill:#ae7a82;}.a07ccb83-0481-4cbd-83c7-b19a4869e613{fill:url(#a47885f4-fa3f-454c-bba7-7aa5a9856503);}.a8f21026-b43e-4323-a757-36a90a80b187{fill:url(#b5c19e03-69dc-4781-bce3-e6dfb7708381);}.b6c0fd6f-c296-4b19-8a17-10683f6f8908{fill:#0000ef;}.aa78314f-69fb-470c-8a69-ad69246cef7f{fill:url(#a234cf49-4b58-4bc9-86a4-279524c523b6);}.bbd90786-48f3-4d28-a3b1-441883c5e74f{fill:url(#a9361b63-92c6-4c9e-b870-e63e688c9d19);}.f057f33d-e029-4986-bdc5-093736dd9387{fill:url(#a3a7b0db-bfa0-4a6e-9d44-1bfbae1dee0b);}.f5ce4fcf-7bf7-4743-bc05-4461a1bbb8e4{fill:url(#e5512579-9319-4bb6-8be1-f41abfb17eb3);}.bc2f1172-834b-4af7-84db-f49863f2fe6c{fill:url(#b3a74ae9-2118-4264-a684-be748e8af04d);}.facf617c-83d2-4864-a965-333b09a093c4{fill:url(#b1b8e978-abb5-4c25-ac1f-eb116078f55a);}.ed80c10d-2e8c-4055-a8d1-a7b49dc61d08{fill:#930303;}.e53be653-ab83-4ac4-bf1c-174cfcf00f76{fill:url(#b85532c7-2be3-4f2a-8e52-4f213e5046ef);}.a74d9895-da3b-4325-9d45-d12ece690a92{fill:url(#a7dd80ba-028f-43e8-b371-38ca72c3bca1);}.a3180534-dd23-4f9a-b0ef-27228f994cf8{fill:url(#e6c91a2d-9f4f-4fa2-ac84-7e5f13cb7ef1);}.fd63518a-b408-41b7-8dcb-e8ba765a2cd1{fill:url(#e239b61d-e6f8-406f-b4ef-d877e3c0c73f);}.a4432687-2cb0-4522-bcb7-ce68e125ce47{fill:url(#b81dc0a0-858d-42d4-ab9c-2a6a38db7a13);}.f0c55d9a-82ab-4ed7-a330-02b19f2c63e7{fill:url(#af4e67f0-b811-4e5d-8f71-fa3dbee82950);}.e0a0cbdd-533d-46d8-879e-55c8b9cf21ab{fill:#e7e7e7;}.a92df013-c0c1-41a2-b5ab-e575b09f44ba{fill:#2c2b29;}.fad9d30c-4af4-4386-bcd9-18070ca35e7e{fill:#2785db;}.e8bc8b7f-d48e-41c4-91dc-57fa6509da1e{fill:#44c047;}.a490ef48-ff99-4263-be83-1f08120c6383{fill:#eb1416;}.acfd3fc6-eb58-4a17-b359-c41f0bff22cf{fill:#fff;}.a3d920c0-f706-4c0f-8937-0b557c5110bc{fill:gray;}</style><radialGradient id="a47885f4-fa3f-454c-bba7-7aa5a9856503" cx="65.88" cy="348.77" r="11.47" gradientUnits="userSpaceOnUse"><stop offset="0" stop-color="#fd6d66"/><stop offset="0.78" stop-color="#b50a03"/></radialGradient><radialGradient id="b5c19e03-69dc-4781-bce3-e6dfb7708381" cx="195.83" cy="370.99" r="11.47" xlink:href="#a47885f4-fa3f-454c-bba7-7aa5a9856503"/><radialGradient id="a234cf49-4b58-4bc9-86a4-279524c523b6" cx="92.36" cy="393.88" r="5.66" gradientTransform="translate(0 157.55) scale(1 0.6)" gradientUnits="userSpaceOnUse"><stop offset="0" stop-color="#0000ef"/><stop offset="0.15" stop-color="#0000e9"/><stop offset="0.34" stop-color="#0101d9"/><stop offset="0.56" stop-color="#0101be"/><stop offset="0.79" stop-color="#02029a"/><stop offset="1" stop-color="#020282"/></radialGradient><radialGradient id="a9361b63-92c6-4c9e-b870-e63e688c9d19" cx="114.61" cy="393.88" r="5.66" xlink:href="#a234cf49-4b58-4bc9-86a4-279524c523b6"/><radialGradient id="a3a7b0db-bfa0-4a6e-9d44-1bfbae1dee0b" cx="133.17" cy="400.04" r="5.66" gradientTransform="translate(0 160.02) scale(1 0.6)" xlink:href="#a234cf49-4b58-4bc9-86a4-279524c523b6"/><radialGradient id="e5512579-9319-4bb6-8be1-f41abfb17eb3" cx="139.21" cy="387.78" r="5.66" gradientTransform="translate(0 155.11) scale(1 0.6)" xlink:href="#a234cf49-4b58-4bc9-86a4-279524c523b6"/><radialGradient id="b3a74ae9-2118-4264-a684-be748e8af04d" cx="121.61" cy="382.1" r="5.66" gradientTransform="translate(0 152.84) scale(1 0.6)" xlink:href="#a234cf49-4b58-4bc9-86a4-279524c523b6"/><radialGradient id="b1b8e978-abb5-4c25-ac1f-eb116078f55a" cx="100.32" cy="382.53" r="5.66" gradientTransform="translate(0 153.01) scale(1 0.6)" xlink:href="#a234cf49-4b58-4bc9-86a4-279524c523b6"/><radialGradient id="b85532c7-2be3-4f2a-8e52-4f213e5046ef" cx="225.51" cy="404.67" r="5.66" xlink:href="#a47885f4-fa3f-454c-bba7-7aa5a9856503"/><radialGradient id="a7dd80ba-028f-43e8-b371-38ca72c3bca1" cx="246.79" cy="404.24" r="5.66" xlink:href="#a47885f4-fa3f-454c-bba7-7aa5a9856503"/><radialGradient id="e6c91a2d-9f4f-4fa2-ac84-7e5f13cb7ef1" cx="264.4" cy="409.93" r="5.66" xlink:href="#a47885f4-fa3f-454c-bba7-7aa5a9856503"/><radialGradient id="e239b61d-e6f8-406f-b4ef-d877e3c0c73f" cx="258.36" cy="422.19" r="5.66" xlink:href="#a47885f4-fa3f-454c-bba7-7aa5a9856503"/><radialGradient id="b81dc0a0-858d-42d4-ab9c-2a6a38db7a13" cx="239.79" cy="416.02" r="5.66" xlink:href="#a47885f4-fa3f-454c-bba7-7aa5a9856503"/><radialGradient id="af4e67f0-b811-4e5d-8f71-fa3dbee82950" cx="217.55" cy="416.02" r="5.66" xlink:href="#a47885f4-fa3f-454c-bba7-7aa5a9856503"/></defs><g id="ecee0e38-2dba-4e80-b820-14a22a4c3e8e" data-name="Calque 1"><polygon id="ed53ecd4-b871-4ed0-b519-838bb6f9b491" data-name="ombre" class="abd8d270-3fa5-41be-9c12-fa6f417bc6ef" points="452.03 588.79 473.54 582.88 481.45 582.88 485.41 582.88 486.99 585.84 724.35 629.14 735.43 629.14 746.5 660.53 700.09 698.24 653.67 711.43 645.49 710.11 645.76 708.26 631.78 705.63 548.18 733.58 474.86 785.15 452.03 791.97 444.26 790.81 444.26 788.18 428.18 785.15 298.19 819.52 452.03 588.79"/><g id="e5827e66-7baa-468c-86e6-fe45b9c98a67" data-name="bottom"><polygon class="b29ce5f9-28d7-4380-8dbf-180dc888d840" points="36 454.56 260.9 494.18 260.9 498.53 286.62 504.66 286.22 816 37.98 768.73 36 454.56"/><path class="adb30bf9-9ff7-49ad-a1be-576ad753e1fa" d="M202,526.54,123.62,512.8c-3,.19-4.26,3.56-4.26,3.56l.2,85c.69,2.18,3.86,5,3.86,5l74.27,13.46c5.14.49,7.52-5.25,7.52-5.25V531.88A7.12,7.12,0,0,0,202,526.54ZM152.1,549.09l-18.69-3.46v-20l2.27-1.88,18.1,3.07L152,529.51Zm31.45,6.13-18.69-3.46v-20l2.27-1.87,18.1,3.06-1.78,2.67Z" transform="translate(-0.98 -0.52)"/><polygon class="f28a9f14-c3fe-42fe-8bf8-f217d93cc311" points="134.7 523.25 132.43 525.13 132.43 545.11 151.12 548.57 151.02 528.99 152.8 526.32 134.7 523.25"/><polygon class="f28a9f14-c3fe-42fe-8bf8-f217d93cc311" points="166.15 529.38 163.88 531.26 163.88 551.24 182.57 554.7 182.47 535.12 184.25 532.45 166.15 529.38"/><polygon class="e07b9993-7486-44a2-b497-90854142605a" points="140.14 543.03 140.14 530.18 148.15 531.96 148.15 544.52 140.14 543.03"/><polygon class="e07b9993-7486-44a2-b497-90854142605a" points="171.2 548.87 171.2 536.01 179.21 537.79 179.21 550.35 171.2 548.87"/><polygon points="135.23 543.16 135.23 527.93 137.28 528.33 137.28 543.49 135.23 543.16"/><polygon points="166.68 548.7 166.68 533.47 168.72 533.87 168.72 549.03 166.68 548.7"/><polygon class="ee3d8c3a-91af-4380-a6cf-e22c43fc1e4d" points="140.4 530.69 140.4 530.34 147.87 532.14 147.88 532.57 140.4 530.69"/><polygon class="ee3d8c3a-91af-4380-a6cf-e22c43fc1e4d" points="171.46 536.62 171.46 536.33 178.93 537.97 178.94 538.32 171.46 536.62"/><circle class="e9720e0f-770f-4413-a8b5-c8bbb08a8b25" cx="192.4" cy="574.85" r="4.25"/><polygon class="a79254e2-0f3d-4a11-a053-8aa659d6c05b" points="136.29 598.71 136.29 587.44 148.25 589.62 148.25 600.92 136.29 598.71"/><polygon class="a79254e2-0f3d-4a11-a053-8aa659d6c05b" points="167.54 604.25 167.54 592.98 179.5 595.15 179.5 606.03 167.54 604.25"/></g><g id="bac84bcc-0fb9-499b-b8ed-05f5595aa0f9" data-name="t molding"><path d="M11.46,450.59l-.79-39.76L1,407.66v45.1l27.89,5.54c.59,103.55,1,207.6,1.58,311.15A6.18,6.18,0,0,0,34,771.64a12.58,12.58,0,0,0,5,0L37,455.08Z" transform="translate(-0.98 -0.52)"/><path d="M272.36,497V455.73l-10.28-1.19-.2,44.51,25.71,6.13s-1.51,313.85,0,315.69,8.77,1.32,8.77,1.32l.93-319.91Z" transform="translate(-0.98 -0.52)"/><polygon points="78.72 346.42 70.57 345.12 86.83 126.56 95.87 128.06 78.72 346.42"/><polygon points="329.24 388.85 338.34 390.13 356.83 165.82 330.46 165.82 330.2 74.9 320.14 73.06 320.14 167.9 326.18 168.99 346.45 168.99 329.24 388.85"/><path d="M88.49,127.19s-28.17-.35-29.11-.85c0-31.21.06-62.83,0-94l9.36,2.64L69.22,124Z" transform="translate(-0.98 -0.52)"/><g id="f9bd39bc-3af0-4551-9469-cc55578d3b84" data-name="clair"><polygon points="0 407.14 9.69 410.31 78 346.25 69.89 344.31 0 407.14"/><polygon points="261.1 454.02 271.38 455.21 338.34 389.34 329.72 387.74 261.1 454.02"/><polygon points="111.56 0 58.42 31.78 67.78 34.42 120.36 3.3 123.1 1.68 120.53 1.32 111.56 0"/><polygon points="383.74 40.62 372.53 39.82 320.14 73.06 330.2 74.9 383.74 40.62"/></g></g><g id="b2168b47-3739-4957-aeed-ba734dafb7b1" data-name="side"><polygon class="adb30bf9-9ff7-49ad-a1be-576ad753e1fa" points="453.13 308.64 453.76 149.01 383.74 40.62 330.2 74.9 330.46 165.82 356.83 165.82 338.34 390.13 271.38 455.21 271.38 496.48 296.31 501.76 295.38 821.67 303.63 815.35 453.28 271.65 453.07 293.16 310.97 809.71 309.36 810.95 316.3 805.63 453.13 308.64 453.13 308.64"/><polygon class="adb30bf9-9ff7-49ad-a1be-576ad753e1fa" points="324.06 799.15 316.3 805.63 328.29 796.43 452.99 343.19 453.04 331.06 324.06 799.15"/><polygon class="adb30bf9-9ff7-49ad-a1be-576ad753e1fa" points="335.43 790.95 334.11 791.97 340.98 786.7 452.77 379.06 452.77 400.31 452.99 343.19 452.77 367.19 335.43 790.95"/><polygon class="adb30bf9-9ff7-49ad-a1be-576ad753e1fa" points="343 785.15 451.58 701.87 452.76 402.02 347.4 781.78 343 785.15"/><polygon class="b33b48f9-6771-419a-b06c-78a2f2571333" points="303.63 815.35 309.36 810.95 303.63 815.35 303.63 815.35"/><polygon points="453.07 293.16 453.28 271.65 303.63 815.35 309.36 810.95 310.97 809.71 453.07 293.16"/><polygon class="b666027f-71d0-41d4-ac38-42e240915409" points="453.13 330.74 453.13 308.64 453.04 331.06 453.13 330.74"/><polygon class="b666027f-71d0-41d4-ac38-42e240915409" points="316.3 805.63 316.3 805.63 316.3 805.63 316.3 805.63"/><polygon class="f50751b4-db76-4ef2-b1cb-230738d22987" points="453.04 331.06 453.13 308.64 453.13 308.64 316.3 805.63 316.3 805.63 324.06 799.15 453.04 331.06"/><polygon class="a5b1dc53-5fb4-404b-ab9e-3b6b0bcb42a1" points="452.99 343.19 452.99 343.19 452.99 343.19 452.99 343.19"/><polygon class="a5b1dc53-5fb4-404b-ab9e-3b6b0bcb42a1" points="328.29 796.43 334.11 791.97 328.29 796.43 328.29 796.43"/><polygon class="f37a332c-f310-45b5-b9e8-5d09de7f609d" points="334.11 791.97 335.43 790.95 452.77 367.19 452.99 343.19 452.99 343.19 328.29 796.43 334.11 791.97"/><polygon class="f382265a-4283-4ad8-994b-669d39dc2f00" points="340.98 786.7 343 785.15 340.98 786.7 340.98 786.7"/><polygon class="f382265a-4283-4ad8-994b-669d39dc2f00" points="452.77 402 452.77 400.31 452.76 402.02 452.77 402"/><polygon class="b84cfb3d-b7f7-45a1-bb5b-f9200bef856f" points="340.98 786.7 343 785.15 347.4 781.78 452.76 402.02 452.77 400.31 452.77 379.06 340.98 786.7"/></g><g id="ae530efe-8180-442b-8ac3-f14a3ee64ac8" data-name="panel"><polygon class="b02fad7a-56b1-4193-a171-534577987907" points="10.48 450.07 260.9 494.18 261.1 454.02 9.69 410.31 10.48 450.07"/><polygon class="b29ce5f9-28d7-4380-8dbf-180dc888d840" points="79.37 345.21 9.69 410.31 261.1 454.02 329.72 387.74 79.37 345.21"/></g><g id="a20f4308-8c1a-48c2-9cde-2bea309ef97d" data-name="ecran"><path class="b02fad7a-56b1-4193-a171-534577987907" d="M96.84,129.36,79.7,347.72l250.52,42.43L347.82,168Zm224.28,67.76c0,.2-.29.32-.48.49L310.21,342.44a35.43,35.43,0,0,1-4.3,3.78l1.4.29v10.7s-1.4,4.75-11.08,2.64c-11.19-2.44-178.55-31.91-178.55-31.91l8.72-6.78v-1.39s-2.46.52-6-7l-12.48,2.77h-4l11.34-158.77s4-6.85,10.81-6.59,191.16,30.59,191.16,30.59S323.4,181.84,321.12,197.12Z" transform="translate(-0.98 -0.52)"/><path class="e29503f2-2501-4922-8939-e4cf8b7b993c" d="M317.28,180S133,149.66,126.12,149.4,115.31,156,115.31,156L103.57,316.08h4.35l12.29-2.68c-.1-.23-.74-1.57-.85-1.8L131,166.54s2.11-5.54,7.12-7.38l177.49,27.16a20.77,20.77,0,0,1,5.11,9.76l-.05.75c.19-.17.62.66.66.47C324.56,183.24,317.28,180,317.28,180Z" transform="translate(-0.98 -0.52)"/><path class="f7dbf994-6f81-4227-bcbd-2e3f684f6130" d="M125.32,320l-8.56,8s164.63,29.3,178.61,32.24c10.36,2.17,14.43-3.58,14.43-3.58l.61-7.37.39-7.71-4.89,3.84a20.85,20.85,0,0,1-7.73,3.87Z" transform="translate(-0.98 -0.52)"/><path class="bd23ddf3-d978-4fb2-a274-c9366650d5ec" d="M319.5,197.81c.45-.36.83-.69,1.14-1l.66-.52a20.31,20.31,0,0,0-5.72-10L138.09,159.16c-5,1.84-7.12,7.38-7.12,7.38L119.36,311.6l.32.66c3.54,7.52,6.28,8,6.28,8l.44.08,171.78,28.93a20.85,20.85,0,0,0,7.73-3.87c2.57-1.91,4.89-3.84,4.89-3.84l10.5-145.29C320.86,196.73,320.25,197.23,319.5,197.81Z" transform="translate(-0.98 -0.52)"/></g><g id="b72a8f8e-7ab0-42e2-95d4-5fb09758a6e8" data-name="top"><polygon id="e915c51f-1d68-44dc-a43a-3998cec7063a" data-name="marquee" class="b02fad7a-56b1-4193-a171-534577987907" points="68.24 123.5 319.71 162.53 320.14 73.06 67.78 34.42 68.24 123.5"/><polygon class="b8a32647-ed5f-4b50-8ea0-bfa91913f41c" points="128.84 2.64 123.1 1.68 67.78 34.42 320.14 73.06 372.53 39.82 128.84 2.64"/></g><g id="b5d83f3c-4939-4742-ba10-2ed7ea6cd279" data-name="stickp1"><path class="afa99b9f-abb6-4e56-b6ea-a7893f8df13b" d="M68.92,377.27v5.16H62.4v-5.16c-5.06.64-8.77,2.7-8.77,5.16,0,3,5.38,5.35,12,5.35s12-2.39,12-5.35C77.69,380,74,377.91,68.92,377.27Z" transform="translate(-0.98 -0.52)"/><path class="f6e83794-0313-4d28-ab43-ba360d0ef7a1" d="M68.92,377.27V359.49a12.18,12.18,0,0,1-3,.39,12.4,12.4,0,0,1-3.48-.49v17.88a26.67,26.67,0,0,1,6.52,0Z" transform="translate(-0.98 -0.52)"/><path class="f6e83794-0313-4d28-ab43-ba360d0ef7a1" d="M68.92,382.43v-5.16a26.67,26.67,0,0,0-6.52,0v5.16Z" transform="translate(-0.98 -0.52)"/><path class="a07ccb83-0481-4cbd-83c7-b19a4869e613" d="M68.92,358.89v.6a11.24,11.24,0,0,0,8.77-10.72c0-6.14-5.29-11.11-11.81-11.11s-11.82,5-11.82,11.11a11.22,11.22,0,0,0,8.34,10.62v-.5Z" transform="translate(-0.98 -0.52)"/><path class="f6e83794-0313-4d28-ab43-ba360d0ef7a1" d="M68.92,359.49v-.6H62.4v.5a12.4,12.4,0,0,0,3.48.49A12.18,12.18,0,0,0,68.92,359.49Z" transform="translate(-0.98 -0.52)"/><path class="a07ccb83-0481-4cbd-83c7-b19a4869e613" d="M68.92,359.49v-.6H62.4v.5a12.4,12.4,0,0,0,3.48.49A12.18,12.18,0,0,0,68.92,359.49Z" transform="translate(-0.98 -0.52)"/></g><g id="ae2b995f-0bab-40cc-a0a1-3d077e404e85" data-name="stickp2"><path class="afa99b9f-abb6-4e56-b6ea-a7893f8df13b" d="M198.88,399.49v5.16h-6.53v-5.16c-5,.64-8.77,2.7-8.77,5.16,0,3,5.39,5.35,12,5.35s12-2.39,12-5.35C207.65,402.19,203.94,400.13,198.88,399.49Z" transform="translate(-0.98 -0.52)"/><path class="f6e83794-0313-4d28-ab43-ba360d0ef7a1" d="M198.88,399.49V381.71a12.2,12.2,0,0,1-3,.39,12.83,12.83,0,0,1-3.48-.49v17.88a26.75,26.75,0,0,1,6.53,0Z" transform="translate(-0.98 -0.52)"/><path class="f6e83794-0313-4d28-ab43-ba360d0ef7a1" d="M198.88,404.65v-5.16a26.75,26.75,0,0,0-6.53,0v5.16Z" transform="translate(-0.98 -0.52)"/><path class="a8f21026-b43e-4323-a757-36a90a80b187" d="M198.88,381.11v.6A11.24,11.24,0,0,0,207.65,371c0-6.14-5.29-11.11-11.82-11.11S184,364.85,184,371a11.22,11.22,0,0,0,8.34,10.62v-.5Z" transform="translate(-0.98 -0.52)"/><path class="f6e83794-0313-4d28-ab43-ba360d0ef7a1" d="M198.88,381.71v-.6h-6.53v.5a12.83,12.83,0,0,0,3.48.49A12.2,12.2,0,0,0,198.88,381.71Z" transform="translate(-0.98 -0.52)"/><path class="a8f21026-b43e-4323-a757-36a90a80b187" d="M198.88,381.71v-.6h-6.53v.5a12.83,12.83,0,0,0,3.48.49A12.2,12.2,0,0,0,198.88,381.71Z" transform="translate(-0.98 -0.52)"/></g><g id="fee269e7-7ecb-4337-93b9-c272d8c486db" data-name="boutons P1"><g id="a54970a6-36df-419c-b51d-54c6187dd732" data-name="4"><path class="b6c0fd6f-c296-4b19-8a17-10683f6f8908" d="M92.54,389.14c-3.86,0-8.12,1.53-8.12,4.87,0,2.95,4.1,4.62,7.94,4.62,4.11,0,8-1.73,8-4.88C100.32,391.4,96.48,389.14,92.54,389.14Zm-.18,8.63c-3.86,0-7-1.74-7-3.89s3.13-3.89,7-3.89,7,1.74,7,3.89S96.22,397.77,92.36,397.77Z" transform="translate(-0.98 -0.52)"/><path class="aa78314f-69fb-470c-8a69-ad69246cef7f" d="M92.36,390c-3.86,0-7,1.74-7,3.89s3.13,3.89,7,3.89,7-1.74,7-3.89S96.22,390,92.36,390Z" transform="translate(-0.98 -0.52)"/></g><g id="bc2278fa-974b-4070-98eb-79a3386dd42d" data-name="5"><path class="b6c0fd6f-c296-4b19-8a17-10683f6f8908" d="M114.79,389.14c-3.86,0-8.12,1.53-8.12,4.87,0,2.95,4.1,4.62,7.94,4.62,4.11,0,8-1.73,8-4.88C122.57,391.4,118.73,389.14,114.79,389.14Zm-.18,8.63c-3.86,0-7-1.74-7-3.89s3.13-3.89,7-3.89,7,1.74,7,3.89S118.47,397.77,114.61,397.77Z" transform="translate(-0.98 -0.52)"/><path class="bbd90786-48f3-4d28-a3b1-441883c5e74f" d="M114.61,390c-3.86,0-7,1.74-7,3.89s3.13,3.89,7,3.89,7-1.74,7-3.89S118.47,390,114.61,390Z" transform="translate(-0.98 -0.52)"/></g><g id="b2889db1-b3c9-4963-92f6-18ec2ba88d9c" data-name="6"><path class="b6c0fd6f-c296-4b19-8a17-10683f6f8908" d="M133.35,395.3c-3.86,0-8.13,1.53-8.13,4.87,0,3,4.11,4.62,7.95,4.62,4.1,0,8-1.73,8-4.88C141.13,397.56,137.29,395.3,133.35,395.3Zm-.18,8.63c-3.86,0-7-1.74-7-3.89s3.13-3.89,7-3.89,7,1.74,7,3.89S137,403.93,133.17,403.93Z" transform="translate(-0.98 -0.52)"/><path class="f057f33d-e029-4986-bdc5-093736dd9387" d="M133.17,396.15c-3.86,0-7,1.74-7,3.89s3.13,3.89,7,3.89,7-1.74,7-3.89S137,396.15,133.17,396.15Z" transform="translate(-0.98 -0.52)"/></g><g id="adb55c27-a0b8-4ad3-b280-7d48e8a550a2" data-name="3"><path class="b6c0fd6f-c296-4b19-8a17-10683f6f8908" d="M139.39,383c-3.86,0-8.13,1.53-8.13,4.88,0,2.95,4.11,4.61,8,4.61,4.1,0,8-1.73,8-4.88C147.17,385.3,143.33,383,139.39,383Zm-.18,8.63c-3.86,0-7-1.74-7-3.89s3.13-3.89,7-3.89,7,1.75,7,3.89S143.07,391.67,139.21,391.67Z" transform="translate(-0.98 -0.52)"/><path class="f5ce4fcf-7bf7-4743-bc05-4461a1bbb8e4" d="M139.21,383.89c-3.86,0-7,1.75-7,3.89s3.13,3.89,7,3.89,7-1.74,7-3.89S143.07,383.89,139.21,383.89Z" transform="translate(-0.98 -0.52)"/></g><g id="e616a89f-e9f0-436d-9a43-be80414537f3" data-name="2"><path class="b6c0fd6f-c296-4b19-8a17-10683f6f8908" d="M121.79,377.35c-3.86,0-8.12,1.53-8.12,4.88,0,2.95,4.1,4.61,7.94,4.61,4.11,0,8-1.73,8-4.88C129.57,379.62,125.73,377.35,121.79,377.35Zm-.18,8.64c-3.86,0-7-1.74-7-3.89s3.13-3.89,7-3.89,7,1.74,7,3.89S125.47,386,121.61,386Z" transform="translate(-0.98 -0.52)"/><path class="bc2f1172-834b-4af7-84db-f49863f2fe6c" d="M121.61,378.21c-3.86,0-7,1.74-7,3.89s3.13,3.89,7,3.89,7-1.74,7-3.89S125.47,378.21,121.61,378.21Z" transform="translate(-0.98 -0.52)"/></g><g id="e55f0164-cb2c-423e-8b6a-e1181d18fa8b" data-name="1"><path class="b6c0fd6f-c296-4b19-8a17-10683f6f8908" d="M100.5,377.78c-3.86,0-8.13,1.53-8.13,4.88,0,2.95,4.11,4.62,7.95,4.62,4.1,0,8-1.73,8-4.88C108.28,380.05,104.44,377.78,100.5,377.78Zm-.18,8.64c-3.86,0-7-1.74-7-3.89s3.13-3.89,7-3.89,7,1.74,7,3.89S104.18,386.42,100.32,386.42Z" transform="translate(-0.98 -0.52)"/><path class="facf617c-83d2-4864-a965-333b09a093c4" d="M100.32,378.64c-3.86,0-7,1.74-7,3.89s3.13,3.89,7,3.89,7-1.74,7-3.89S104.18,378.64,100.32,378.64Z" transform="translate(-0.98 -0.52)"/></g></g><g id="b152efa5-26d2-4dbb-a1cc-5c733e5721f7" data-name="boutons P2"><g id="b30c6b6f-210e-4303-9a87-6c5ab4852f7d" data-name="1"><path class="ed80c10d-2e8c-4055-a8d1-a7b49dc61d08" d="M225.69,399.93c-3.86,0-8.13,1.53-8.13,4.87,0,2.95,4.11,4.62,7.95,4.62,4.1,0,8-1.73,8-4.88C233.47,402.19,229.63,399.93,225.69,399.93Zm-.18,8.63c-3.86,0-7-1.74-7-3.89s3.13-3.89,7-3.89,7,1.74,7,3.89S229.37,408.56,225.51,408.56Z" transform="translate(-0.98 -0.52)"/><path class="e53be653-ab83-4ac4-bf1c-174cfcf00f76" d="M225.51,400.78c-3.86,0-7,1.74-7,3.89s3.13,3.89,7,3.89,7-1.74,7-3.89S229.37,400.78,225.51,400.78Z" transform="translate(-0.98 -0.52)"/></g><g id="f282a51f-9c70-468f-8417-b6538ea4eee5" data-name="2"><path class="ed80c10d-2e8c-4055-a8d1-a7b49dc61d08" d="M247,399.49c-3.86,0-8.13,1.54-8.13,4.88,0,2.95,4.11,4.62,7.95,4.62,4.1,0,8-1.73,8-4.88C254.75,401.76,250.91,399.49,247,399.49Zm-.18,8.64c-3.86,0-7-1.74-7-3.89s3.13-3.89,7-3.89,7,1.74,7,3.89S250.65,408.13,246.79,408.13Z" transform="translate(-0.98 -0.52)"/><path class="a74d9895-da3b-4325-9d45-d12ece690a92" d="M246.79,400.35c-3.86,0-7,1.74-7,3.89s3.13,3.89,7,3.89,7-1.74,7-3.89S250.65,400.35,246.79,400.35Z" transform="translate(-0.98 -0.52)"/></g><g id="a8610e8e-1cf9-49b4-8ad0-58a51bf91b6d" data-name="3"><path class="ed80c10d-2e8c-4055-a8d1-a7b49dc61d08" d="M264.58,405.18c-3.86,0-8.12,1.53-8.12,4.88,0,2.95,4.1,4.61,7.94,4.61,4.1,0,8-1.73,8-4.88C272.36,407.44,268.52,405.18,264.58,405.18Zm-.18,8.64c-3.86,0-7-1.75-7-3.89s3.13-3.89,7-3.89,7,1.74,7,3.89S268.26,413.82,264.4,413.82Z" transform="translate(-0.98 -0.52)"/><path class="a3180534-dd23-4f9a-b0ef-27228f994cf8" d="M264.4,406c-3.86,0-7,1.74-7,3.89s3.13,3.89,7,3.89,7-1.75,7-3.89S268.26,406,264.4,406Z" transform="translate(-0.98 -0.52)"/></g><g id="b30491b9-acde-407f-ab92-5126a297a944" data-name="4"><path class="ed80c10d-2e8c-4055-a8d1-a7b49dc61d08" d="M258.54,417.44c-3.86,0-8.13,1.53-8.13,4.88,0,2.95,4.11,4.61,8,4.61,4.1,0,8-1.73,8-4.88C266.32,419.7,262.48,417.44,258.54,417.44Zm-.18,8.64c-3.86,0-7-1.75-7-3.89s3.13-3.89,7-3.89,7,1.74,7,3.89S262.22,426.08,258.36,426.08Z" transform="translate(-0.98 -0.52)"/><path class="fd63518a-b408-41b7-8dcb-e8ba765a2cd1" d="M258.36,418.3c-3.86,0-7,1.74-7,3.89s3.13,3.89,7,3.89,7-1.75,7-3.89S262.22,418.3,258.36,418.3Z" transform="translate(-0.98 -0.52)"/></g><g id="a6db847c-9188-4725-a20d-16fd336ecde9" data-name="5"><path class="ed80c10d-2e8c-4055-a8d1-a7b49dc61d08" d="M240,411.28c-3.86,0-8.13,1.53-8.13,4.88,0,2.95,4.11,4.61,7.95,4.61,4.1,0,8-1.73,8-4.88C247.75,413.54,243.91,411.28,240,411.28Zm-.18,8.63c-3.86,0-7-1.74-7-3.89s3.13-3.89,7-3.89,7,1.75,7,3.89S243.65,419.91,239.79,419.91Z" transform="translate(-0.98 -0.52)"/><path class="a4432687-2cb0-4522-bcb7-ce68e125ce47" d="M239.79,412.13c-3.86,0-7,1.75-7,3.89s3.13,3.89,7,3.89,7-1.74,7-3.89S243.65,412.13,239.79,412.13Z" transform="translate(-0.98 -0.52)"/></g><g id="a4271306-1a91-4b8a-b087-681498ade3a0" data-name="6"><path class="ed80c10d-2e8c-4055-a8d1-a7b49dc61d08" d="M217.73,411.28c-3.86,0-8.13,1.53-8.13,4.88,0,2.95,4.11,4.61,8,4.61,4.1,0,8-1.73,8-4.88C225.51,413.54,221.67,411.28,217.73,411.28Zm-.18,8.63c-3.86,0-7-1.74-7-3.89s3.13-3.89,7-3.89,7,1.75,7,3.89S221.41,419.91,217.55,419.91Z" transform="translate(-0.98 -0.52)"/><path class="f0c55d9a-82ab-4ed7-a330-02b19f2c63e7" d="M217.55,412.13c-3.86,0-7,1.75-7,3.89s3.13,3.89,7,3.89,7-1.74,7-3.89S221.41,412.13,217.55,412.13Z" transform="translate(-0.98 -0.52)"/></g></g><path class="e0a0cbdd-533d-46d8-879e-55c8b9cf21ab" d="M228.57,237.19v.07l-5.92-1v-.08Z" transform="translate(-0.98 -0.52)"/><path class="e0a0cbdd-533d-46d8-879e-55c8b9cf21ab" d="M236.56,238.53a.13.13,0,0,0,0,.06l-5.72-1s0,0,0-.06Z" transform="translate(-0.98 -0.52)"/><path class="a92df013-c0c1-41a2-b5ab-e575b09f44ba" d="M210.17,273.38l-65.56-11c-.87-.14-.87-.14-.74-.92.25-1.54.47-3.08.75-4.61.78-4.31,1.48-8.63,2.22-12.95.09-.48.22-1,.29-1.44,0-.18.12-.23.31-.19l.75.13L267.5,262.38a16.13,16.13,0,0,1,4.69,1.42,11.54,11.54,0,0,1,5.67,5.9,8.36,8.36,0,0,1,.63,3.88c0,.38-.08.76-.15,1.14l-1.56,9.36c-.07.39-.13.42-.54.36l-40.11-6.72Zm14.68-7.7h0c-.4,2.35-.79,4.71-1.19,7.07,0,.23,0,.34.3.38,1,.15,1.95.32,2.93.49.51.09.51.09.59-.37q.69-4.22,1.4-8.43c0-.08,0-.21.12-.22s.13.1.17.17c1.69,3.14,3.43,6.26,5.06,9.42a2.38,2.38,0,0,0,3.55.6c.9-.94,1.91-1.79,2.87-2.68l4.89-4.53c.08-.07.15-.22.26-.17s0,.2,0,.31,0,.08,0,.12c-.47,2.79-.93,5.58-1.4,8.37,0,.25,0,.35.31.4,1,.16,2,.32,3.06.51.34.07.45,0,.49-.32q1.16-6.92,2.32-13.83a1.32,1.32,0,0,0-.25-1,2.34,2.34,0,0,0-3.26-.37l-2.16,2L236.79,271c-.25.23-.28.22-.45-.08-2.2-4.06-4.42-8.11-6.61-12.17a2.14,2.14,0,0,0-1.43-1.06A1.74,1.74,0,0,0,226,259Zm-4.51-.71h0c.38-2.31.76-4.61,1.16-6.92a1.32,1.32,0,0,0-.45-1.21,2.4,2.4,0,0,0-3.17,0c-2.39,2.24-4.82,4.43-7.24,6.63l-2.95,2.7c-.13.12-.23.25-.37,0l-3.44-6.31c-1.1-2-2.19-4-3.3-6a2.24,2.24,0,0,0-2.21-1,1.52,1.52,0,0,0-1.5,1.37q-1.16,6.86-2.3,13.71c0,.28.05.37.35.41,1,.15,2,.32,3,.5.44.07.45.08.51-.3.46-2.73.91-5.46,1.37-8.19,0-.13,0-.27.06-.4s0-.16.11-.17.1.08.13.14.18.34.28.51c1.63,3,3.29,6,4.88,9.07a2.34,2.34,0,0,0,3.35.6c.47-.47,1-.91,1.48-1.37l6.5-6c.06-.05.09-.14.19-.11s.07.14.06.22c-.14.81-.28,1.62-.41,2.44-.35,2.06-.69,4.13-1,6.2,0,.22,0,.32.29.36l3,.5c.44.07.45.07.52-.31Q219.75,268.44,220.34,265Zm33.15,5.67h0c-.38,2.28-.76,4.57-1.15,6.85-.06.31.06.41.38.45,1,.16,2,.32,3,.5.33.07.45,0,.5-.31.16-1,.35-2.08.51-3.12,0-.23.12-.33.4-.28l12.77,2.14c.33.05.39.18.34.45-.18,1-.34,2.08-.53,3.12-.05.25,0,.35.32.4,1,.15,2,.32,3,.49.45.07.46.07.53-.34q.61-3.66,1.22-7.32a6.88,6.88,0,0,0-2.51-6.52,12.61,12.61,0,0,0-6.36-3c-2.38-.41-4.76-.8-7.13-1.19-.72-.12-1.45-.26-2.17-.35a1.6,1.6,0,0,0-1.91,1.29C254.24,266.17,253.87,268.4,253.49,270.64Zm-62.24-10.42h0l1.14-6.79a1.24,1.24,0,0,0,0-.47,1.91,1.91,0,0,0-1.63-1.33c-1.55-.26-3.1-.53-4.65-.77-1.84-.3-3.66-.71-5.51-.87a11.55,11.55,0,0,0-7,1.39,6.55,6.55,0,0,0-3.37,4.67q-.63,3.74-1.25,7.47c-.07.4-.07.4.36.47,1,.17,2,.32,2.93.5.33.06.45,0,.5-.31.15-1,.34-2.06.5-3.09,0-.29.17-.35.48-.3l12.67,2.12c.34,0,.42.16.37.46-.19,1-.35,2.08-.54,3.11,0,.26,0,.36.32.4,1,.16,2,.32,3,.51.33.06.44,0,.49-.32C190.48,264.79,190.87,262.5,191.25,260.22Zm-38.3,1h0l6.47,1.08a7.76,7.76,0,0,0,2.76,0,3.93,3.93,0,0,0,3.34-2.92c.64-3.78,1.26-7.55,1.9-11.33.05-.27,0-.37-.33-.42-1-.15-2-.32-3-.5-.36-.07-.46,0-.51.33q-.92,5.58-1.86,11.15a1.08,1.08,0,0,1-1.24.95,4.41,4.41,0,0,1-.73-.08c-1-.18-2-.37-3.06-.54l-7-1.15c-.28-.05-.35-.15-.31-.38.11-.59.19-1.18.31-1.76.06-.28,0-.4-.35-.45-.84-.13-1.68-.26-2.52-.42-.34-.07-.44,0-.49.32-.24,1.49-.49,3-.74,4.45-.07.42-.07.42.42.5Z" transform="translate(-0.98 -0.52)"/><path class="a92df013-c0c1-41a2-b5ab-e575b09f44ba" d="M230.83,237.63l5.72,1c.15.09.15.2.13.35-.37,2.17-.73,4.34-1.11,6.51,0,.29,0,.38.34.43,3.09.5,6.18,1,9.27,1.54.32.05.34.16.31.44-.06.67-.23,1.33-.32,2-.22,1.55-.54,3.09-.8,4.63-.1.59-.17,1.19-.26,1.78,0,.2-.12.31-.4.26L228.57,254c-.65-.11-.65-.11-.56-.68q1.29-7.69,2.57-15.38C230.6,237.79,230.6,237.63,230.83,237.63Zm3.94,12.7h0c-.13.78-.25,1.56-.39,2.34-.05.27,0,.38.33.43,1.06.16,2.11.34,3.16.53.32.06.44,0,.49-.31.25-1.55.51-3.1.78-4.66,0-.24,0-.34-.31-.38q-1.62-.25-3.24-.54c-.28-.05-.39,0-.43.27C235,248.79,234.9,249.56,234.77,250.33Z" transform="translate(-0.98 -0.52)"/><path class="a92df013-c0c1-41a2-b5ab-e575b09f44ba" d="M255.63,249.17c2.55.43,5.09.86,7.64,1.27.34.06.42.17.37.47q-.7,4.14-1.39,8.3c-.07.37-.1.4-.52.33L246.38,257c-.27-.05-.34-.16-.3-.39q.72-4.21,1.41-8.43c0-.28.18-.33.47-.28,2.55.44,5.11.86,7.67,1.29Zm1.31,4.88h0c.14-.8.27-1.6.41-2.4,0-.23,0-.36-.3-.4l-3.44-.58c-.26,0-.38,0-.42.27l-.81,4.85c0,.25.05.36.33.41l3.37.56c.3.06.42,0,.46-.3C256.67,255.66,256.81,254.86,256.94,254.05Z" transform="translate(-0.98 -0.52)"/><path class="a92df013-c0c1-41a2-b5ab-e575b09f44ba" d="M173.53,244.78l-7.64-1.27c-.31,0-.37-.15-.33-.42q.72-4.2,1.42-8.42c0-.25.13-.32.4-.27L182.74,237c.41.07.43.11.37.49-.26,1.55-.53,3.11-.78,4.66,0,.31-.17.37-.5.32-3.07-.53-6.15-1-9.22-1.55-.46-.08-.46-.08-.52.32s-.11.7-.19,1,0,.35.31.4c2.06.33,4.11.68,6.17,1l3.16.53c.32.05.42.17.37.44s-.14.74-.19,1.11-.18.38-.51.32Zm.92-5.45h0c.56.1,1.13.18,1.69.29.25,0,.35,0,.38-.25,0-.39.12-.78.2-1.17,0-.21,0-.32-.26-.36l-3.41-.57c-.22,0-.33,0-.36.23q-.08.62-.18,1.23c0,.23.06.3.29.33C173.35,239.13,173.9,239.23,174.45,239.33Z" transform="translate(-0.98 -0.52)"/><path class="a92df013-c0c1-41a2-b5ab-e575b09f44ba" d="M211.28,241.75l7.64,1.28c.44.07.5.14.42.52-.43,2-.7,4-1.05,6-.14.74-.27,1.48-.37,2.23,0,.29-.15.37-.49.31-2.08-.36-4.17-.7-6.26-1l-9-1.51c-.42-.07-.43-.08-.37-.47.26-1.56.53-3.11.77-4.67,0-.32.18-.37.52-.31l9.16,1.54c.46.07.46.07.53-.33s.09-.67.17-1,0-.4-.36-.46c-2.34-.37-4.68-.77-7-1.16l-2.31-.38c-.24,0-.32-.12-.28-.34a10.85,10.85,0,0,0,.21-1.27c0-.27.16-.31.43-.26l5.37.9,2.27.38ZM210.13,249h0c.55.09,1.11.17,1.66.27.21,0,.33,0,.36-.21l.21-1.23c0-.19-.05-.29-.27-.33l-3.33-.56c-.24,0-.35,0-.38.24,0,.4-.11.79-.19,1.17-.05.23.05.33.29.37C209,248.79,209.58,248.89,210.13,249Z" transform="translate(-0.98 -0.52)"/><path class="a92df013-c0c1-41a2-b5ab-e575b09f44ba" d="M268.74,251.36c.87.15,1.74.31,2.62.44.31,0,.38.18.34.43-.08.4-.13.8-.21,1.2,0,.21,0,.3.27.34l3.36.56c.28,0,.38,0,.41-.27.06-.41.15-.82.2-1.23,0-.23.15-.27.37-.24l5.4.91c.21,0,.3.13.27.33-.08.43-.16.86-.22,1.29,0,.23-.16.29-.41.25-.44-.09-.89-.15-1.34-.24-.24,0-.33,0-.36.24-.05.4-.13.8-.19,1.2,0,.23-.15.3-.4.25-.47-.08-.94-.15-1.41-.24-.17,0-.24,0-.29.17-.13.44-.08.91-.25,1.34-.07.18.07.24.24.27l1.38.22c.28,0,.38.15.33.41s-.13.78-.21,1.17c0,.21.05.31.28.34l1.34.22c.25,0,.34.13.3.36-.09.42-.17.84-.22,1.27,0,.22-.15.27-.36.24l-.65-.11-4.62-.77c-.45-.08-.45-.08-.38-.49s.12-.76.19-1.14c.05-.21,0-.3-.27-.34l-3.44-.58c-.22,0-.29,0-.31.21-.06.4-.16.8-.19,1.21s-.19.37-.5.32l-4.72-.8c-1.16-.19-.93-.1-.8-1,0-.25.09-.49.12-.74s.16-.29.4-.25c.45.09.9.15,1.34.24.27.05.39,0,.42-.26s.14-.78.19-1.17.16-.31.41-.26c.46.09.92.15,1.37.24.21,0,.3,0,.32-.2.06-.43.13-.85.22-1.27,0-.21-.05-.28-.26-.31l-1.38-.23c-.24,0-.34-.12-.29-.36s.14-.78.21-1.17c0-.23,0-.35-.31-.38-.45-.06-.9-.15-1.35-.22-.25,0-.34-.14-.29-.37q.12-.63.21-1.26c0-.24.16-.29.4-.24Z" transform="translate(-0.98 -0.52)"/><path class="a92df013-c0c1-41a2-b5ab-e575b09f44ba" d="M222.64,236.28l5.92,1a.42.42,0,0,1,.05.36q-1.31,7.77-2.6,15.56c0,.28-.17.37-.48.31s-.88-.19-1.33-.26l-3.89-.62c-.46-.08-.45-.08-.39-.49q1.31-7.74,2.6-15.49C222.54,236.51,222.52,236.37,222.64,236.28Z" transform="translate(-0.98 -0.52)"/><path class="a92df013-c0c1-41a2-b5ab-e575b09f44ba" d="M191.71,247.82,184,246.54c-.3,0-.4-.14-.35-.43q.72-4.2,1.41-8.4c0-.26.15-.32.42-.27L200.87,240c.31.05.42.18.36.45s-.11.72-.19,1.08-.13.41-.55.34l-4.16-.7-5.06-.85c-.28,0-.37,0-.41.25-.22,1.39-.46,2.78-.69,4.17a2.74,2.74,0,0,1,0,.28c-.11.6-.11.6.58.72l8.92,1.49c.42.07.45.11.39.5s-.15.72-.18,1.08-.19.35-.48.3c-.56-.11-1.12-.2-1.68-.29Z" transform="translate(-0.98 -0.52)"/><path class="fad9d30c-4af4-4386-bcd9-18070ca35e7e" d="M291.07,282.1c-.25,1.47-.49,2.94-.74,4.41-.07.42-.07.42-.51.34l-4.27-.71c-.27,0-.37-.13-.3-.37s.07-.41.11-.62-.06-.27-.25-.29l-.49-.05c-.39-.06-.49,0-.51.37,0,.06,0,.12,0,.19,0,.43-.14.5-.63.42-1.39-.23-2.79-.47-4.19-.69-.32-.05-.4-.19-.36-.45.5-3,1-5.91,1.49-8.86.06-.36.14-.42.55-.33,2.95.58,5.92,1,8.87,1.52.52.09,1,.13,1.55.22s.47.1.4.52c-.24,1.46-.49,2.92-.73,4.38Zm-8.37-.17h0l1.58.27c.22,0,.32,0,.35-.22.1-.59.2-1.19.31-1.79,0-.21-.06-.3-.29-.34l-3.13-.52c-.21,0-.31,0-.35.22-.08.59-.18,1.19-.29,1.79,0,.21,0,.31.27.34Zm5.47-1.49h0c-.52-.08-1-.16-1.55-.26-.25-.05-.36,0-.39.24-.09.59-.19,1.19-.29,1.78-.05.23.05.29.28.33,1,.16,2,.33,3,.51.28.05.39,0,.43-.27.08-.56.17-1.13.28-1.69,0-.23,0-.35-.3-.39C289.15,280.61,288.66,280.52,288.17,280.44Z" transform="translate(-0.98 -0.52)"/><path class="e8bc8b7f-d48e-41c4-91dc-57fa6509da1e" d="M292.87,271.31c-.25,1.48-.5,3-.74,4.44-.07.38-.11.4-.52.34l-2.86-.48c-.41-.07-.49-.18-.43-.54.14-.85.28-1.71.43-2.56a.34.34,0,0,1,0-.1c.2-.63.12-.52.72-.43l1.48.25c.26,0,.4,0,.44-.25.09-.59.19-1.18.29-1.76,0-.21,0-.33-.3-.38l-8-1.34c-.26,0-.39.05-.42.28-.09.57-.19,1.14-.28,1.7,0,.23.05.36.31.41l3.06.52a.25.25,0,0,0,.33-.17,1.81,1.81,0,0,0,.12-.64c0-.19.11-.24.27-.29a.45.45,0,0,1,.2,0c.85.09.89.14.77.88-.21,1.26-.43,2.51-.63,3.77,0,.26-.17.34-.43.3l-5.43-.91c-.49-.08-.55-.15-.48-.58.49-3,1-5.91,1.48-8.87,0-.17.09-.23.28-.22s.55,0,.83.08l9.77,1.63c.55.09.55.1.47.6l-.72,4.32Z" transform="translate(-0.98 -0.52)"/><path class="a490ef48-ff99-4263-be83-1f08120c6383" d="M289.84,254.78c1.75.29,3.49.59,5.24.87.3,0,.4.13.35.42-.51,3-1,5.95-1.49,8.92-.05.3-.16.38-.49.32-1.4-.25-2.8-.48-4.2-.71-.36-.06-.42-.15-.36-.47,0-.12.06-.23.08-.34.08-.47.08-.47-.46-.56l-.21,0c-.5-.08-.51-.08-.54.39,0,.18-.1.34-.11.52s-.18.19-.35.16l-4.44-.74c-.23,0-.32-.15-.29-.35.17-1,.35-2,.51-3.06,0-.28.23-.27.45-.23l1.83.3c.8.15,1.61.24,2.4.44.25.06.44,0,.48-.27.07-.57.17-1.14.28-1.7.05-.27,0-.38-.34-.43-1.42-.22-2.83-.47-4.24-.7-.29,0-.4-.12-.35-.4.18-1,.33-2,.48-3,0-.26.15-.33.44-.28C286.28,254.19,288.06,254.48,289.84,254.78Zm1.49,6.43h0c.51.08,1,.16,1.54.26.22,0,.35,0,.39-.21.09-.61.19-1.22.3-1.82,0-.2,0-.32-.27-.35l-3.09-.52c-.22,0-.32,0-.35.21-.09.63-.2,1.25-.31,1.88,0,.18,0,.26.24.29Z" transform="translate(-0.98 -0.52)"/><path class="a92df013-c0c1-41a2-b5ab-e575b09f44ba" d="M156.94,232.66l7.54,1.26c.53.09.53.09.45.57s-.13.7-.17,1-.16.33-.44.28l-9.3-1.57c-.33-.05-.41,0-.45.3-.35,2.17-.72,4.33-1.07,6.49-.05.31-.2.36-.51.31l-5.19-.87c-.3,0-.4-.14-.35-.42q.72-4.19,1.4-8.39c.05-.31.19-.34.48-.29Z" transform="translate(-0.98 -0.52)"/><path class="e0a0cbdd-533d-46d8-879e-55c8b9cf21ab" d="M224.85,265.68,226,259a1.74,1.74,0,0,1,2.34-1.33,2.14,2.14,0,0,1,1.43,1.06c2.19,4.06,4.41,8.11,6.61,12.17.17.3.2.31.45.08l8.14-7.43,2.16-2a2.34,2.34,0,0,1,3.26.37,1.32,1.32,0,0,1,.25,1q-1.17,6.91-2.32,13.83c0,.29-.15.39-.49.32-1-.19-2-.35-3.06-.51-.3-.05-.36-.15-.31-.4.47-2.79.93-5.58,1.4-8.37,0,0,0-.08,0-.12s.11-.25,0-.31-.18.1-.26.17l-4.89,4.53c-1,.89-2,1.74-2.87,2.68a2.38,2.38,0,0,1-3.55-.6c-1.63-3.16-3.37-6.28-5.06-9.42,0-.07-.06-.19-.17-.17s-.11.14-.12.22q-.7,4.21-1.4,8.43c-.08.46-.08.46-.59.37-1-.17-1.95-.34-2.93-.49-.28,0-.34-.15-.3-.38.4-2.36.79-4.72,1.19-7.07Z" transform="translate(-0.98 -0.52)"/><path class="e0a0cbdd-533d-46d8-879e-55c8b9cf21ab" d="M220.34,265q-.59,3.46-1.16,6.95c-.07.38-.08.38-.52.31l-3-.5c-.27,0-.32-.14-.29-.36.36-2.07.7-4.14,1-6.2.13-.82.27-1.63.41-2.44,0-.08.06-.18-.06-.22s-.13.06-.19.11l-6.5,6c-.5.46-1,.9-1.48,1.37a2.34,2.34,0,0,1-3.35-.6c-1.59-3-3.25-6.05-4.88-9.07-.1-.17-.19-.34-.28-.51s-.05-.14-.13-.14-.1.1-.11.17,0,.27-.06.4c-.46,2.73-.91,5.46-1.37,8.19-.06.38-.07.37-.51.3-1-.18-2-.35-3-.5-.3,0-.4-.13-.35-.41q1.16-6.86,2.3-13.71a1.52,1.52,0,0,1,1.5-1.37,2.24,2.24,0,0,1,2.21,1c1.11,2,2.2,4,3.3,6l3.44,6.31c.14.27.24.14.37,0l2.95-2.7c2.42-2.2,4.85-4.39,7.24-6.63a2.4,2.4,0,0,1,3.17,0,1.32,1.32,0,0,1,.45,1.21c-.4,2.31-.78,4.61-1.16,6.92Z" transform="translate(-0.98 -0.52)"/><path class="e0a0cbdd-533d-46d8-879e-55c8b9cf21ab" d="M253.49,270.64c.38-2.24.75-4.47,1.13-6.7a1.6,1.6,0,0,1,1.91-1.29c.72.09,1.45.23,2.17.35,2.37.39,4.75.78,7.13,1.19a12.61,12.61,0,0,1,6.36,3,6.88,6.88,0,0,1,2.51,6.52q-.6,3.66-1.22,7.32c-.07.41-.08.41-.53.34-1-.17-2-.34-3-.49-.29,0-.37-.15-.32-.4.19-1,.35-2.08.53-3.12.05-.27,0-.4-.34-.45l-12.77-2.14c-.28-.05-.36,0-.4.28-.16,1-.35,2.08-.51,3.12-.05.3-.17.38-.5.31-1-.18-2-.34-3-.5-.32,0-.44-.14-.38-.45.39-2.28.77-4.57,1.15-6.85ZM264,273l6.37,1.07c.3,0,.43,0,.46-.28s.08-.52.12-.78a4.27,4.27,0,0,0-1.54-4.2,8.48,8.48,0,0,0-4-1.85c-2.25-.43-4.52-.78-6.77-1.17-.34-.06-.36.12-.4.33q-.44,2.69-.9,5.37c0,.29,0,.4.36.46Z" transform="translate(-0.98 -0.52)"/><path class="e0a0cbdd-533d-46d8-879e-55c8b9cf21ab" d="M191.25,260.22c-.38,2.28-.77,4.57-1.14,6.85-.05.3-.16.38-.49.32-1-.19-2-.35-3-.51-.29,0-.36-.14-.32-.4.19-1,.35-2.08.54-3.11.05-.3,0-.41-.37-.46l-12.67-2.12c-.31-.05-.44,0-.48.3-.16,1-.35,2.05-.5,3.09,0,.3-.17.37-.5.31-1-.18-1.95-.33-2.93-.5-.43-.07-.43-.07-.36-.47q.62-3.74,1.25-7.47a6.55,6.55,0,0,1,3.37-4.67,11.55,11.55,0,0,1,7-1.39c1.85.16,3.67.57,5.51.87,1.55.24,3.1.51,4.65.77A1.91,1.91,0,0,1,192.4,253a1.24,1.24,0,0,1,0,.47l-1.14,6.79Zm-10.67-1.14h0c2.11.35,4.22.7,6.33,1.07.32.05.44,0,.48-.29.3-1.81.6-3.63.91-5.44,0-.26,0-.37-.33-.42q-3-.48-6-1a11.11,11.11,0,0,0-3.77,0,4.85,4.85,0,0,0-3.81,2.54,7.49,7.49,0,0,0-.52,2c-.07.4-.07.41.4.48Z" transform="translate(-0.98 -0.52)"/><path class="e0a0cbdd-533d-46d8-879e-55c8b9cf21ab" d="M153,261.25l-7-1.17c-.49-.08-.49-.08-.42-.5.25-1.48.5-3,.74-4.45.05-.28.15-.39.49-.32.84.16,1.68.29,2.52.42.31.05.41.17.35.45-.12.58-.2,1.17-.31,1.76,0,.23,0,.33.31.38l7,1.15c1,.17,2,.36,3.06.54a4.41,4.41,0,0,0,.73.08,1.08,1.08,0,0,0,1.24-.95q.94-5.58,1.86-11.15c0-.3.15-.4.51-.33,1,.18,2,.35,3,.5.3.05.38.15.33.42-.64,3.78-1.26,7.55-1.9,11.33a3.93,3.93,0,0,1-3.34,2.92,7.76,7.76,0,0,1-2.76,0L153,261.25Z" transform="translate(-0.98 -0.52)"/><path class="a92df013-c0c1-41a2-b5ab-e575b09f44ba" d="M264,273l-6.33-1c-.34-.06-.41-.17-.36-.46q.47-2.68.9-5.37c0-.21.06-.39.4-.33,2.25.39,4.52.74,6.77,1.17a8.48,8.48,0,0,1,4,1.85,4.27,4.27,0,0,1,1.54,4.2c0,.26-.1.52-.12.78s-.16.33-.46.28Z" transform="translate(-0.98 -0.52)"/><path class="a92df013-c0c1-41a2-b5ab-e575b09f44ba" d="M180.58,259.08l-6.3-1.06c-.47-.07-.47-.08-.4-.48a7.49,7.49,0,0,1,.52-2,4.85,4.85,0,0,1,3.81-2.54,11.11,11.11,0,0,1,3.77,0q3,.51,6,1c.31.05.38.16.33.42-.31,1.81-.61,3.63-.91,5.44,0,.29-.16.34-.48.29-2.11-.37-4.22-.72-6.33-1.07Z" transform="translate(-0.98 -0.52)"/></g><g id="a3066be9-a006-4c5f-bbf3-de91b070b70a" data-name="Calque 2"><g id="eca00fdd-c13e-4e1b-acfd-809afef1280e" data-name="Calque 1-2"><path class="f37a332c-f310-45b5-b9e8-5d09de7f609d" d="M154.69,82.88l2.6-6.24c1.25.73,1,1.88,1.11,2.89s0,1.92.13,2.9c.09.57.17,1.23.91,1.4.91.21,1.05-.49,1.17-1.14a12.36,12.36,0,0,0,.12-2.28c0-2.79,0-5.59.06-8.35,0-1.08-.21-2.41,1.12-2.83A93.44,93.44,0,0,1,172,60.09c4.14-3.11,4-2.23,5.49-3l17.11,2.75c0,1-.83,1.05-1.44,1.35C187.31,64,184.58,70,185.8,77.16c.23,1.3.94,2.73,0,3.88-6.06,9.32-6.45,19.9-.24,30.92a78.4,78.4,0,0,0,27.64,28.35,6,6,0,0,0,1.09.37l0-38.64,26.52,4.16,0,39.12c-.73.44-1.62,0-2.45-.12q-27.92-4.35-55.84-8.72a7.12,7.12,0,0,1-3.93-1.86c-9.59-8.76-18.15-18.18-22.52-30.56a39.23,39.23,0,0,1-1.56-19.63c-.31-.6-.33-1.14.15-1.53Z" transform="translate(-0.98 -0.52)"/><path class="f37a332c-f310-45b5-b9e8-5d09de7f609d" d="M220.11,70.82l0,23.68c-1.48.31-2.81-.17-4.48-.46V84.55c0-5.8.07-11.59,0-17.4,0-2.07.38-3.7,2.52-3.87a5,5,0,0,1,5.29,3.07c3.46,7.26,7,14.49,10.52,21.74a5,5,0,0,0,1.46,2V66.48c1.52-.34,2.85.16,4.53.43v7.75c0,6.38,0,12.75,0,19.14,0,2-.05,3.68-2.38,3.92s-4.11-.78-5.26-3.12q-3.44-7-6.84-14c-1.58-3.26-3.12-6.54-4.67-9.82l-.67,0Z" transform="translate(-0.98 -0.52)"/><path class="acfd3fc6-eb58-4a17-b359-c41f0bff22cf" d="M205.91,65.36c-.9-3.11-3.58-3.59-5.88-4.63a18.58,18.58,0,0,0-5.47-.86c-4.85,1.21-7.75,4.41-9.21,9.19-1.18,3.86-.6,7.88.48,12,.32.62.64,1.25,1,1.87,2.4,4.54,5.71,7.92,10.71,8.63S206,90,208.05,86c3.4-6.59,2.73-13.53-2.14-20.59Zm-2.75,19c-3.26,3.67-8.51,2.73-11.65-2.07a11.33,11.33,0,0,1-2.09-6.2c2.94-4.34,6.77-7.52,12.09-8.73,4.61,4.81,5.38,12.79,1.65,17Z" transform="translate(-0.98 -0.52)"/><path class="acfd3fc6-eb58-4a17-b359-c41f0bff22cf" d="M242.71,98.31l0-30.95,20.59,3.24a8.1,8.1,0,0,1,.06,3.77L247.61,71.9V95l15.5,2.44a7.64,7.64,0,0,1,.34,4.09l-20.73-3.26Z" transform="translate(-0.98 -0.52)"/><path class="acfd3fc6-eb58-4a17-b359-c41f0bff22cf" d="M116.35,51.33l-8.17-1.28V46.27l12.5,2-.07,31-4.33-.68.06-27.19Z" transform="translate(-0.98 -0.52)"/><path class="acfd3fc6-eb58-4a17-b359-c41f0bff22cf" d="M274.6,76.16l-8.27-1.3V71.1l12.59,2V104l-4.33-.68V76.16Z" transform="translate(-0.98 -0.52)"/><path class="acfd3fc6-eb58-4a17-b359-c41f0bff22cf" d="M250.14,85.74V82.12l9.92,1.56c.15,2.62-1,3.75-3.34,3.38l-6-1c-.09,0-.16-.1-.55-.33Z" transform="translate(-0.98 -0.52)"/><path class="a3d920c0-f706-4c0f-8937-0b557c5110bc" d="M205.91,65.36A23.58,23.58,0,0,0,200,60.73l12.72,2Z" transform="translate(-0.98 -0.52)"/><path class="acfd3fc6-eb58-4a17-b359-c41f0bff22cf" d="M154.57,64.3a13.35,13.35,0,0,0-10.83-13.22C137.59,49.84,132.28,53,131.9,59c-.46,7.22-.13,14.62-.15,21.93l4.53.71,0-11.1L150,72.67l0,11.08a13.85,13.85,0,0,0,4.52.67c.06-.51.1-1,.16-1.54C154.65,76.69,154.69,70.51,154.57,64.3Zm-4.63,4-13.53-2.12c0-4-1-8.27,2.84-10.45a6.42,6.42,0,0,1,7.31.8c4.21,3.23,3.44,7.43,3.38,11.77Z" transform="translate(-0.98 -0.52)"/><path class="a3d920c0-f706-4c0f-8937-0b557c5110bc" d="M201.51,67.33a49.82,49.82,0,0,0-12.09,8.74,10.42,10.42,0,0,1,2.65-9.31c2.45-2.59,6.06-2.31,9.44.56Z" transform="translate(-0.98 -0.52)"/><polygon class="acfd3fc6-eb58-4a17-b359-c41f0bff22cf" points="156.35 53.37 160.96 54.09 160.91 85.26 156.29 84.54 156.35 53.37"/><path class="acfd3fc6-eb58-4a17-b359-c41f0bff22cf" d="M172.9,60l-8.17-1.28V55l12.5,2,0,31-4.33-.68,0-27.2Z" transform="translate(-0.98 -0.52)"/><polygon class="acfd3fc6-eb58-4a17-b359-c41f0bff22cf" points="123.89 48.23 127.75 48.83 127.74 52.73 123.89 52.12 123.89 48.23"/><polygon class="acfd3fc6-eb58-4a17-b359-c41f0bff22cf" points="180.22 56.97 184.08 57.58 184.08 61.47 180.22 60.86 180.22 56.97"/><polygon class="acfd3fc6-eb58-4a17-b359-c41f0bff22cf" points="280.86 72.99 284.72 73.59 284.72 77.49 280.86 76.88 280.86 72.99"/></g></g></svg>