<svg id="b813ab1d-a888-4eb2-8d0e-75e12c46a998" data-name="Calque 1" xmlns="http://www.w3.org/2000/svg" xmlns:xlink="http://www.w3.org/1999/xlink" viewBox="0 0 88.59 237.77"><defs><style>.b516c9bb-891e-458e-a0d5-f7f29c7924aa,.fc5d9154-7468-4604-ad8d-fa6d0c31add2{fill:#211c1d;}.ea8c28f8-d3f9-48a4-af34-c34a59d2e3ab{opacity:0.1;}.ad72e295-2f1b-4126-91ff-a6335c25c3ee{fill:#808094;}.ead124ed-115e-4881-8897-f4df065fb9ae{fill:#6d6e6f;}.faa85236-92cd-4bc9-a88a-d0a169a8f944{fill:url(#b718dffc-24b5-4c4a-8fa0-ef036b2b3b48);}.fc5d9154-7468-4604-ad8d-fa6d0c31add2{opacity:0.3;}.ae40ae26-e344-47cd-8f62-86b04e8d532d,.e11981f4-c8cf-40cc-8939-d232fce4a4b5,.fc5d9154-7468-4604-ad8d-fa6d0c31add2{isolation:isolate;}.e11981f4-c8cf-40cc-8939-d232fce4a4b5{opacity:0.15;fill:url(#ad20694f-9938-48ce-b176-50479e079f67);}.ae40ae26-e344-47cd-8f62-86b04e8d532d{opacity:0.4;fill:url(#a1843f05-68a9-4a8c-baa6-ea9429d7b32d);}.b7d1342a-9c1d-4e41-8c96-8a760cc194cf{fill:#00a3d7;}.fedca0a9-9fe4-4da9-8bf7-4379810b402b{fill:#1faa33;}.e1c8abc5-5dbf-4196-a69d-fd35a0db3d37{fill:#e50703;}</style><linearGradient id="b718dffc-24b5-4c4a-8fa0-ef036b2b3b48" x1="362.1" y1="-353.94" x2="341.14" y2="-332.98" gradientTransform="matrix(0, -1, -1, 0, -299.63, 395.42)" gradientUnits="userSpaceOnUse"><stop offset="0" stop-color="#a4a5a9"/><stop offset="1" stop-color="#e6e6e7"/></linearGradient><linearGradient id="ad20694f-9938-48ce-b176-50479e079f67" x1="341.21" y1="-353.94" x2="362.09" y2="-333.06" gradientTransform="matrix(0, -1, -1, 0, -299.63, 395.42)" gradientUnits="userSpaceOnUse"><stop offset="0" stop-color="#211c1d" stop-opacity="0"/><stop offset="0.04" stop-color="#211c1d" stop-opacity="0.09"/><stop offset="0.5" stop-color="#211c1d"/><stop offset="0.95" stop-color="#211c1d" stop-opacity="0.09"/><stop offset="1" stop-color="#211c1d" stop-opacity="0"/></linearGradient><linearGradient id="a1843f05-68a9-4a8c-baa6-ea9429d7b32d" x1="-4466.76" y1="2694.35" x2="-4445.88" y2="2715.23" gradientTransform="matrix(0, 1, 1, 0, -2660.92, 4500.08)" gradientUnits="userSpaceOnUse"><stop offset="0" stop-color="#fff" stop-opacity="0"/><stop offset="0.5" stop-color="#fff"/><stop offset="1" stop-color="#fff" stop-opacity="0"/></linearGradient></defs><circle class="b516c9bb-891e-458e-a0d5-f7f29c7924aa" cx="43.8" cy="43.8" r="43.8"/><g class="ea8c28f8-d3f9-48a4-af34-c34a59d2e3ab"><path class="ad72e295-2f1b-4126-91ff-a6335c25c3ee" d="M43.8,3.22l-8.89,8.59h4.34v9.83h9.1V11.81h4.34ZM15.1,15.1l-.21,12.37L18,24.4l7,7,6.43-6.44L24.39,18l3.08-3.07ZM3.22,43.8l8.59,8.89V48.35h9.83v-9.1H11.81V34.91ZM15.1,72.5l12.37.21-3.08-3.07,7-7-6.43-6.44L18,63.2l-3.07-3.07ZM43.8,84.38l8.89-8.59H48.35V66h-9.1v9.83H34.91ZM72.5,72.5l.21-12.37L69.64,63.2l-7-7-6.44,6.44,7,7-3.07,3.07ZM84.38,43.8l-8.59-8.89v4.34H66v9.1h9.83v4.34ZM72.5,15.1l-12.37-.21L63.2,18l-7,7,6.44,6.44,7-7,3.07,3.07Z" transform="translate(0 0)"/></g><path class="ead124ed-115e-4881-8897-f4df065fb9ae" d="M44.29,0a43.8,43.8,0,0,1,0,87.59h.5a43.8,43.8,0,0,0,0-87.6Z" transform="translate(0 0)"/><circle class="faa85236-92cd-4bc9-a88a-d0a169a8f944" cx="43.83" cy="43.8" r="14.82"/><circle class="fc5d9154-7468-4604-ad8d-fa6d0c31add2" cx="43.83" cy="43.8" r="11.81"/><path class="e11981f4-c8cf-40cc-8939-d232fce4a4b5" d="M29.11,43.77A14.76,14.76,0,1,0,43.87,29,14.76,14.76,0,0,0,29.11,43.77ZM57.83,44A14.15,14.15,0,1,1,43.69,29.8,14.15,14.15,0,0,1,57.83,44Z" transform="translate(0 0)"/><path class="ae40ae26-e344-47cd-8f62-86b04e8d532d" d="M58.63,43.77A14.76,14.76,0,1,0,43.87,58.53,14.76,14.76,0,0,0,58.63,43.77ZM29.9,43.58A14.15,14.15,0,1,1,44.05,57.73,14.15,14.15,0,0,1,29.9,43.58Z" transform="translate(0 0)"/><circle cx="32.85" cy="43.97" r="20.51"/><circle cx="27.19" cy="141.09" r="17.46"/><circle class="b7d1342a-9c1d-4e41-8c96-8a760cc194cf" cx="27.71" cy="141.09" r="13.88"/><circle cx="61.36" cy="196.3" r="17.45"/><circle class="fedca0a9-9fe4-4da9-8bf7-4379810b402b" cx="61.88" cy="196.3" r="13.88"/><circle cx="27.36" cy="178.07" r="17.45"/><circle class="e1c8abc5-5dbf-4196-a69d-fd35a0db3d37" cx="27.89" cy="178.07" r="13.88"/><circle cx="61.4" cy="121.99" r="17.46"/><circle class="b7d1342a-9c1d-4e41-8c96-8a760cc194cf" cx="61.92" cy="121.99" r="13.88"/><circle cx="61.1" cy="159.32" r="17.46"/><circle class="e1c8abc5-5dbf-4196-a69d-fd35a0db3d37" cx="61.63" cy="159.32" r="13.88"/><circle cx="27.62" cy="220.31" r="17.46"/><circle class="fedca0a9-9fe4-4da9-8bf7-4379810b402b" cx="28.15" cy="220.31" r="13.88"/></svg>