<svg id="ac7035b7-41d7-44af-9419-26de6fe813c3" data-name="texte" xmlns="http://www.w3.org/2000/svg" xmlns:xlink="http://www.w3.org/1999/xlink" viewBox="0 0 470.33 67.41"><defs><style>.ebf98388-d92e-478a-a277-8992591acb89{stroke:#9def48;stroke-miterlimit:10;stroke-width:0.75px;fill:url(#ecb97267-467b-40a4-8924-b7a5adcff5b8);}.b2263be9-dd80-4d2a-bc2f-b235cdb290f7{fill:#9def48;}</style><linearGradient id="ecb97267-467b-40a4-8924-b7a5adcff5b8" x1="0.38" y1="33.7" x2="469.96" y2="33.7" gradientUnits="userSpaceOnUse"><stop offset="0" stop-color="#032c02"/><stop offset="1" stop-color="#207a09"/></linearGradient></defs><polygon class="ebf98388-d92e-478a-a277-8992591acb89" points="0.38 5.91 102.44 5.91 108.57 0.38 150.31 0.38 158.22 5.91 461.65 6.11 469.96 16 469.96 59.72 50.81 59.72 42.7 67.03 7.89 67.03 0.38 59.72 0.38 5.91"/><path class="b2263be9-dd80-4d2a-bc2f-b235cdb290f7" d="M77.83,31.14l1.53,1.69A15.05,15.05,0,0,1,75.86,43h-20a14.21,14.21,0,0,1-3-6h3.62a16.48,16.48,0,0,0,1.24,2.68H74.06a14.12,14.12,0,0,0,1.82-5.11h-22l-1.53-1.67a15.06,15.06,0,0,1,3.49-10.15h20a14.19,14.19,0,0,1,3,6H75.28a14.44,14.44,0,0,0-1.22-2.67H57.67a14.05,14.05,0,0,0-1.83,5.09Z" transform="translate(-0.06 -0.03)"/><path class="b2263be9-dd80-4d2a-bc2f-b235cdb290f7" d="M95.87,40.11,92.5,43.48V26.05h-11V22.68h25.41v3.37h-11Z" transform="translate(-0.06 -0.03)"/><path class="b2263be9-dd80-4d2a-bc2f-b235cdb290f7" d="M129.81,39.61h2.25a14.64,14.64,0,0,0,1.82-5.11h-20a14.28,14.28,0,0,0,1.83,5.11h2.23V43h-4.05a14.59,14.59,0,0,1-3.42-8.48h-3.19V31.14h3.19a14.51,14.51,0,0,1,3.42-8.46h20a14.52,14.52,0,0,1,3.43,8.48l-1.46.82v1.7l1.46.82A14.6,14.6,0,0,1,133.86,43h-4.05Zm-16-8.47h20a14.41,14.41,0,0,0-1.82-5.09H115.67A14.05,14.05,0,0,0,113.84,31.14Z" transform="translate(-0.06 -0.03)"/><path class="b2263be9-dd80-4d2a-bc2f-b235cdb290f7" d="M145.76,37.33,142.2,43H138l12.9-20.3h3.88L167.58,43h-4.15l-3.51-5.65ZM157.82,34l-5-7.95-5,7.95Z" transform="translate(-0.06 -0.03)"/><path class="b2263be9-dd80-4d2a-bc2f-b235cdb290f7" d="M177.72,40.11l-3.37,3.37V26.05h-11V22.68h25.4v3.37h-11Z" transform="translate(-0.06 -0.03)"/><path class="b2263be9-dd80-4d2a-bc2f-b235cdb290f7" d="M209.7,34.5h-14a14.67,14.67,0,0,0,1.83,5.11h16.68L216.13,43H195.7a14.67,14.67,0,0,1-3.43-8.48h-3.18V31.14h3.18a14.58,14.58,0,0,1,3.43-8.46h20.43l-1.94,3.37H197.51a14.44,14.44,0,0,0-1.83,5.09h14Z" transform="translate(-0.06 -0.03)"/><path class="b2263be9-dd80-4d2a-bc2f-b235cdb290f7" d="M244.48,31.14c.05.55.07,1.11.07,1.69A15,15,0,0,1,241.05,43h-20a15,15,0,0,1-3.5-10.15,15,15,0,0,1,3.5-10.15h20a14.08,14.08,0,0,1,3,6h-3.63a14.39,14.39,0,0,0-1.21-2.67h-16.4a13.42,13.42,0,0,0-1.94,6.78,13.53,13.53,0,0,0,1.94,6.78h16.4a14.82,14.82,0,0,0,1.81-5.11H228.83V31.14Z" transform="translate(-0.06 -0.03)"/><path class="b2263be9-dd80-4d2a-bc2f-b235cdb290f7" d="M252.17,43H248.8V25.55l3.37-3.37Z" transform="translate(-0.06 -0.03)"/><path class="b2263be9-dd80-4d2a-bc2f-b235cdb290f7" d="M277,34.5H263a14.44,14.44,0,0,0,1.82,5.11h16.68L283.46,43H263a14.67,14.67,0,0,1-3.43-8.48h-3.18V31.14h3.18A14.58,14.58,0,0,1,263,22.68h20.43l-1.94,3.37H264.84A14.22,14.22,0,0,0,263,31.14h14Z" transform="translate(-0.06 -0.03)"/><path class="b2263be9-dd80-4d2a-bc2f-b235cdb290f7" d="M306.62,26.05H300.1a13.52,13.52,0,0,0-1.94,6.78,13.64,13.64,0,0,0,1.94,6.78h2.24V43h-4a15.09,15.09,0,0,1-3.5-10.15,15,15,0,0,1,3.5-10.15h8.33V19.49H310v3.19h8.33a15,15,0,0,1,3.5,10.15A15.09,15.09,0,0,1,318.3,43h-4.05V39.61h2.25a13.71,13.71,0,0,0,1.92-6.78,13.6,13.6,0,0,0-1.92-6.78H310v12h-3.35Z" transform="translate(-0.06 -0.03)"/><path class="b2263be9-dd80-4d2a-bc2f-b235cdb290f7" d="M329.94,39.61h16.39a13.57,13.57,0,0,0,1.93-6.78,13.57,13.57,0,0,0-1.93-6.78h-2.25V22.68h4.05a15,15,0,0,1,3.5,10.15A15,15,0,0,1,348.13,43h-20a15,15,0,0,1-3.5-10.15,15,15,0,0,1,3.5-10.15h4v3.37h-2.23A13.48,13.48,0,0,0,328,32.83,13.48,13.48,0,0,0,329.94,39.61Z" transform="translate(-0.06 -0.03)"/><path class="b2263be9-dd80-4d2a-bc2f-b235cdb290f7" d="M358.54,39.61h15.27L375.75,43H355.17V25.55l3.37-3.37Z" transform="translate(-0.06 -0.03)"/><path class="b2263be9-dd80-4d2a-bc2f-b235cdb290f7" d="M385.88,40.11l-3.37,3.37V26.05h-11V22.68h25.4v3.37h-11Z" transform="translate(-0.06 -0.03)"/><path class="b2263be9-dd80-4d2a-bc2f-b235cdb290f7" d="M404.52,43h-3.37V25.55l3.37-3.37Z" transform="translate(-0.06 -0.03)"/></svg>