<svg xmlns="http://www.w3.org/2000/svg" xmlns:xlink="http://www.w3.org/1999/xlink" viewBox="0 0 470.33 67.41"><defs><style>.b09c1423-5e1a-442b-bb95-693008f2ea26{stroke:#9def48;stroke-miterlimit:10;stroke-width:0.75px;fill:url(#abbec570-95ec-4d64-8532-ddb539baa5f6);}.b6d65f93-d704-4e0f-9007-d69d2b799d7d{fill:#9def48;}.a70eebb0-b33b-4b5d-8722-797082d1990f{fill:#fff;}</style><linearGradient id="abbec570-95ec-4d64-8532-ddb539baa5f6" x1="0.38" y1="33.7" x2="469.96" y2="33.7" gradientUnits="userSpaceOnUse"><stop offset="0" stop-color="#032c02"/><stop offset="1" stop-color="#207a09"/></linearGradient></defs><g id="a7cc365e-e3c9-442e-ac32-e03b183ba1c3" data-name="texte"><polygon class="b09c1423-5e1a-442b-bb95-693008f2ea26" points="0.38 5.91 102.44 5.91 108.57 0.38 150.31 0.38 158.22 5.91 461.65 6.11 469.96 16 469.96 59.72 50.81 59.72 42.7 67.03 7.89 67.03 0.38 59.72 0.38 5.91"/><path class="b6d65f93-d704-4e0f-9007-d69d2b799d7d" d="M65.87,24.68H58.23a15.94,15.94,0,0,0-2.27,8,16,16,0,0,0,2.27,8h2.63v3.95H56.11A17.67,17.67,0,0,1,52,32.63a17.62,17.62,0,0,1,4.1-11.9h9.76V17H69.8v3.73h9.77a17.67,17.67,0,0,1,4.1,11.9,17.72,17.72,0,0,1-4.1,11.91H74.82V40.59h2.64a16.09,16.09,0,0,0,2.26-8,16,16,0,0,0-2.26-8H69.8V38.79H65.87Z" transform="translate(-0.06 -0.03)"/><path class="b6d65f93-d704-4e0f-9007-d69d2b799d7d" d="M116.85,30.66l1.8,2a17.68,17.68,0,0,1-4.1,11.91H91.09a16.6,16.6,0,0,1-3.57-7.09h4.25a17.93,17.93,0,0,0,1.44,3.14h19.23a16.71,16.71,0,0,0,2.12-6H88.78l-1.79-2a17.66,17.66,0,0,1,4.1-11.9h23.46a16.7,16.7,0,0,1,3.56,7.09h-4.25a17.8,17.8,0,0,0-1.42-3.14H93.21a16.93,16.93,0,0,0-2.14,6Z" transform="translate(-0.06 -0.03)"/><path class="b6d65f93-d704-4e0f-9007-d69d2b799d7d" d="M148.79,44.54l-11.45-9.3-11.46,9.3h-6.4l14.66-11.91-14.66-11.9h6.4L137.34,30l11.45-9.3h6.41l-14.66,11.9L155.2,44.54Z" transform="translate(-0.06 -0.03)"/><path class="b6d65f93-d704-4e0f-9007-d69d2b799d7d" d="M169.45,30.66h25.78a16.93,16.93,0,0,0-2.14-6H173.86a17.8,17.8,0,0,0-1.42,3.14h-4.25a16.7,16.7,0,0,1,3.56-7.09h23.46a17.66,17.66,0,0,1,4.1,11.9l-1.79,2H171.74a16.53,16.53,0,0,0,2.12,6h23.91v3.95h-26a17.68,17.68,0,0,1-4.1-11.91Z" transform="translate(-0.06 -0.03)"/></g><g id="b6953e5e-c491-4bec-a230-f27a39f3813b" data-name="microsoft"><path class="a70eebb0-b33b-4b5d-8722-797082d1990f" d="M27.41,33.76v-4.4l.25,0a.81.81,0,0,0,.77-.76,1.85,1.85,0,0,0-.06-.81.94.94,0,0,0-.15-.32.59.59,0,0,0-.88-.06,1,1,0,0,0-.24.41,8.63,8.63,0,0,0-.2.88,3.66,3.66,0,0,1-.71,1.61,1.57,1.57,0,0,1-.93.6,1.88,1.88,0,0,1-.85-.06,2.21,2.21,0,0,1-1.36-1.12,3.47,3.47,0,0,1-.4-1.24,7,7,0,0,1,.09-2.53,2.46,2.46,0,0,1,.4-1,1.4,1.4,0,0,1,1.18-.62h.48c0,.11.05,2.13,0,2.37a2.08,2.08,0,0,1-.25,0,.48.48,0,0,0-.49.33,1.23,1.23,0,0,0,.1,1.16.41.41,0,0,0,.73,0,1.65,1.65,0,0,0,.2-.52c.09-.43.17-.86.27-1.28a3.39,3.39,0,0,1,.38-1,1.61,1.61,0,0,1,1.43-.82,2.42,2.42,0,0,1,2.17,1.23,3.72,3.72,0,0,1,.53,1.47,7.59,7.59,0,0,1,0,2.56,3.88,3.88,0,0,1-.3.93A2.1,2.1,0,0,1,28,32l-.1,0,0,0,.18.1A4.05,4.05,0,0,1,29.6,34a4.51,4.51,0,0,1,.26,2.92A2.71,2.71,0,0,1,27.58,39a3.82,3.82,0,0,1-2.48-.36l-.12,0a1.5,1.5,0,0,0,.16.7,2,2,0,0,0,.61.73,3.86,3.86,0,0,0,1.57.71c.77.16,1.54.34,2.31.51l.13,0v2.34l-2.29-.52-2.27-.53-2.28-.53V39.87l.75.18a3,3,0,0,1-.85-2.26l1.55.42v0l-.09-.07a4.18,4.18,0,0,1-1.59-2.63,4.94,4.94,0,0,1,0-1.67,2.85,2.85,0,0,1,1.16-1.94,2.81,2.81,0,0,1,1.28-.48,4.24,4.24,0,0,1,1.23.05.2.2,0,0,1,.17.15c.27.69.55,1.37.82,2.06l.05.11Zm-2,0a1.72,1.72,0,0,0-.64.1.78.78,0,0,0-.44.31,1,1,0,0,0-.08.94,1.35,1.35,0,0,0,.4.57,3.82,3.82,0,0,0,2.23.94,1.71,1.71,0,0,0,.91-.18.78.78,0,0,0,.44-.71,1.46,1.46,0,0,0-.49-1.13,2.93,2.93,0,0,0-1.1-.62A3.66,3.66,0,0,0,25.42,33.77Z" transform="translate(-0.06 -0.03)"/><path class="a70eebb0-b33b-4b5d-8722-797082d1990f" d="M29.71,54.7v2.61l-4.85-1.08v0l4.86,2.46v1.79l-4.85.15v0l4.85,1.16v2.71L20.6,62.47V58.86l5.06-.11v0L20.6,56.31v-3.7h0l8.94,2.06Z" transform="translate(-0.06 -0.03)"/><path class="a70eebb0-b33b-4b5d-8722-797082d1990f" d="M24.4,11.66v1.41l5.36,1.17v2.45L24.4,15.52v1.22l-1.54-.34V15.18L22.25,15a2.25,2.25,0,0,1-1-.49,2,2,0,0,1-.64-1.24c0-.19,0-.38,0-.57,0-.34,0-.67,0-1v-.18l1.27.28c0,.07,0,.14,0,.21a.66.66,0,0,0,.58.68l.4.08v-1.5L21.21,11V8.69L22.85,9V7.87l1.55.34V9.38l.88.19,2.23.49a1.09,1.09,0,0,0,.25,0,.27.27,0,0,0,.35-.28,3.17,3.17,0,0,0,0-.44V9l1.62.35a.13.13,0,0,1,0,0c0,.53,0,1.07,0,1.59a2,2,0,0,1-.23.87,1.08,1.08,0,0,1-1,.6,3.74,3.74,0,0,1-.88-.13l-3.13-.69Z" transform="translate(-0.06 -0.03)"/><path class="a70eebb0-b33b-4b5d-8722-797082d1990f" d="M25.57,16.65a4.44,4.44,0,0,1,2,.42,4,4,0,0,1,1.93,2,4.77,4.77,0,0,1,.42,2.23,3.26,3.26,0,0,1-1,2.23,2.79,2.79,0,0,1-1.61.76,3.88,3.88,0,0,1-2-.35A4.41,4.41,0,0,1,23,21.8a4.55,4.55,0,0,1-.42-2.09,3.56,3.56,0,0,1,.33-1.48,2.51,2.51,0,0,1,1.9-1.48C25.07,16.7,25.32,16.68,25.57,16.65ZM25.47,19a1.77,1.77,0,0,0-.76.14.79.79,0,0,0-.51.64,1,1,0,0,0,.12.72,2.79,2.79,0,0,0,.34.43,3.71,3.71,0,0,0,2.45.93,1.4,1.4,0,0,0,.82-.26.75.75,0,0,0,.31-.57,1.42,1.42,0,0,0-.51-1.19A3.72,3.72,0,0,0,25.47,19Z" transform="translate(-0.06 -0.03)"/><path class="a70eebb0-b33b-4b5d-8722-797082d1990f" d="M27.28,46V43.42h.07A4.1,4.1,0,0,1,29.26,45a4.22,4.22,0,0,1,.63,1.71,5.38,5.38,0,0,1,.07,1.2,2.65,2.65,0,0,1-2.19,2.54,3.88,3.88,0,0,1-3.08-.64,4.25,4.25,0,0,1-1.82-2.58,4.69,4.69,0,0,1-.09-1.67,4.19,4.19,0,0,1,.23-1A2.29,2.29,0,0,1,25,43l.48,0v2.53H25.3a3,3,0,0,0-.41,0,.67.67,0,0,0-.54.82.93.93,0,0,0,.22.53,2.4,2.4,0,0,0,.39.39,3.71,3.71,0,0,0,2.22.75,1.62,1.62,0,0,0,.44-.07.87.87,0,0,0,.59-1.12,1.26,1.26,0,0,0-.7-.78l-.11,0Z" transform="translate(-0.06 -0.03)"/><path class="a70eebb0-b33b-4b5d-8722-797082d1990f" d="M22.88,52.42V50l6.83,1.49V54Z" transform="translate(-0.06 -0.03)"/><path class="a70eebb0-b33b-4b5d-8722-797082d1990f" d="M21.92,52.2l-1.32-.31V49.5l1.32.29Z" transform="translate(-0.06 -0.03)"/></g></svg>