<svg id="b8396977-7c39-4761-8e14-eba5502f67be" data-name="texte" xmlns="http://www.w3.org/2000/svg" xmlns:xlink="http://www.w3.org/1999/xlink" viewBox="0 0 470.33 67.41"><defs><style>.ace934e5-d68a-4137-b9ff-434ef29d7672{stroke:#9def48;stroke-miterlimit:10;stroke-width:0.75px;fill:url(#e04d9576-1c82-483b-a840-d3f1f3723296);}.a61e462f-c871-47c6-84bf-d2e1cae633a8{fill:#9def48;}</style><linearGradient id="e04d9576-1c82-483b-a840-d3f1f3723296" x1="0.38" y1="33.7" x2="469.96" y2="33.7" gradientUnits="userSpaceOnUse"><stop offset="0" stop-color="#032c02"/><stop offset="1" stop-color="#207a09"/></linearGradient></defs><polygon class="ace934e5-d68a-4137-b9ff-434ef29d7672" points="0.38 5.91 102.44 5.91 108.57 0.38 150.31 0.38 158.22 5.91 461.65 6.11 469.96 16 469.96 59.72 50.81 59.72 42.7 67.03 7.89 67.03 0.38 59.72 0.38 5.91"/><path class="a61e462f-c871-47c6-84bf-d2e1cae633a8" d="M65.8,24.68H58.17a15.86,15.86,0,0,0-2.28,8,15.92,15.92,0,0,0,2.28,8h2.62v3.95H56a17.72,17.72,0,0,1-4.1-11.91A17.67,17.67,0,0,1,56,20.73H65.8V17h3.94v3.73H79.5a17.67,17.67,0,0,1,4.1,11.9,17.72,17.72,0,0,1-4.1,11.91H74.75V40.59h2.64a16,16,0,0,0,2.26-8,15.93,15.93,0,0,0-2.26-8H69.74V38.79H65.8Z" transform="translate(-0.06 -0.03)"/><path class="a61e462f-c871-47c6-84bf-d2e1cae633a8" d="M93.15,40.59h19.22a15.94,15.94,0,0,0,2.26-8,16,16,0,0,0-2.26-8h-2.64V20.73h4.75a17.71,17.71,0,0,1,4.1,11.9,17.68,17.68,0,0,1-4.1,11.91H91a17.68,17.68,0,0,1-4.1-11.91A17.71,17.71,0,0,1,91,20.73h4.75v3.95H93.15a15.91,15.91,0,0,0-2.28,8A15.86,15.86,0,0,0,93.15,40.59Z" transform="translate(-0.06 -0.03)"/><path class="a61e462f-c871-47c6-84bf-d2e1cae633a8" d="M126.68,40.59h17.9l2.27,3.95H122.73V24.1l4-4Z" transform="translate(-0.06 -0.03)"/><path class="a61e462f-c871-47c6-84bf-d2e1cae633a8" d="M158.74,41.17l-4,3.95V24.68H141.87V20.73h29.79v3.95H158.74Z" transform="translate(-0.06 -0.03)"/><path class="a61e462f-c871-47c6-84bf-d2e1cae633a8" d="M180.59,44.54h-4V24.1l4-4Z" transform="translate(-0.06 -0.03)"/><path class="a61e462f-c871-47c6-84bf-d2e1cae633a8" d="M219.83,20.73l-15,23.81h-4.55L185.15,20.73h4.93l12.5,19.87L215,20.73Z" transform="translate(-0.06 -0.03)"/><path class="a61e462f-c871-47c6-84bf-d2e1cae633a8" d="M227.1,44.54h-3.95V24.1l3.95-4Z" transform="translate(-0.06 -0.03)"/><path class="a61e462f-c871-47c6-84bf-d2e1cae633a8" d="M262,30.66l1.79,2a17.63,17.63,0,0,1-4.1,11.91H236.18a16.7,16.7,0,0,1-3.56-7.09h4.25a17.93,17.93,0,0,0,1.44,3.14h19.22a16.74,16.74,0,0,0,2.13-6H233.88l-1.8-2a17.71,17.71,0,0,1,4.1-11.9h23.46a16.6,16.6,0,0,1,3.57,7.09H259a17.17,17.17,0,0,0-1.43-3.14H238.31a16.93,16.93,0,0,0-2.14,6Z" transform="translate(-0.06 -0.03)"/><path class="a61e462f-c871-47c6-84bf-d2e1cae633a8" d="M272.68,44.54h-4V24.1l4-4Z" transform="translate(-0.06 -0.03)"/><path class="a61e462f-c871-47c6-84bf-d2e1cae633a8" d="M305.21,44.54H281.76a17.67,17.67,0,0,1-4.1-11.91,17.62,17.62,0,0,1,4.1-11.9h23.45a17.63,17.63,0,0,1,4.11,11.9A17.67,17.67,0,0,1,305.21,44.54Zm-2.1-3.95a16.08,16.08,0,0,0,2.25-8,16,16,0,0,0-2.25-8H283.88a15.94,15.94,0,0,0-2.27,8,16,16,0,0,0,2.27,8Z" transform="translate(-0.06 -0.03)"/><path class="a61e462f-c871-47c6-84bf-d2e1cae633a8" d="M318.86,24.68a15.84,15.84,0,0,0-2.27,8,15.9,15.9,0,0,0,2.27,8h2.62v3.95h-4.74a17.67,17.67,0,0,1-4.11-11.91,17.63,17.63,0,0,1,4.11-11.9h23.45a17.62,17.62,0,0,1,4.1,11.9,17.67,17.67,0,0,1-4.1,11.91h-4.74V40.59h2.63a16,16,0,0,0,2.26-8,15.93,15.93,0,0,0-2.26-8Z" transform="translate(-0.06 -0.03)"/></svg>