<svg height="199.68089" viewBox="0 0 98.942532 199.68089" width="98.942535" xmlns="http://www.w3.org/2000/svg" xmlns:xlink="http://www.w3.org/1999/xlink"><linearGradient id="a" gradientUnits="userSpaceOnUse" x1="11.20419" x2="87.830895" y1="33.413693" y2="33.413693"/><linearGradient id="b" gradientUnits="userSpaceOnUse" x1="13.413014" x2="85.657372" y1="33.598934" y2="33.598934"/><path d="m2.845839 199.68089c-1.588376 0-2.845839-1.64746-2.845839-3.63287v-192.4151518c0-2.0276474 1.290555-3.6328682 2.845839-3.6328682h93.250862c1.588375 0 2.845838 1.6474558 2.845838 3.6328682v192.4151518c0 2.02765-1.290554 3.63287-2.845838 3.63287z" fill="#0b0b0b" stroke-width="1.36129"/><path d="m96.096701 199.13159h-93.250862c-1.191282 0-2.184016-1.27446-2.184016-2.80383v-193.5058452c0-1.5293507.992734-2.80382726 2.184016-2.80382726h93.250862c1.191281 0 2.184016 1.27447656 2.184016 2.80382726v193.5058452c0 1.52937-.992735 2.80383-2.184016 2.80383z" fill="#282828" stroke-width="1.36514"/><path d="m95.307962 198.60038h-92.092671c-1.191282 0-2.184016-1.27365-2.184016-2.80202v-192.2366705c0-1.5283997.992734-2.80204714 2.184016-2.80204714h92.092671c1.191281 0 2.184016 1.27364744 2.184016 2.80204714v192.2366705c0 1.52837-.992735 2.80202-2.184016 2.80202z" fill="#333" stroke-width="1.3647"/><path d="m4.434214 70.403218h.496367v.76902h-.496367zm89.47847 0h.496368v.76902h-.496368z" fill="#282828" stroke-width="1.09766"/><path d="m51.046511 159.40863c-9.402084 0-17.046058-7.64398-17.046058-17.04606s7.66945-17.04605 17.046058-17.04605c9.3766 0 17.04605 7.64397 17.04605 17.04605s-7.643975 17.04606-17.04605 17.04606z" stroke-width=".927723"/><path d="m51.046511 159.40863c-9.308624 0-16.875135-7.5665-16.875135-16.87513 0-9.30864 7.592517-16.87514 16.875135-16.87514 9.282626 0 16.875143 7.5665 16.875143 16.87514 0 9.30863-7.56651 16.87513-16.875143 16.87513z" fill="#282829" stroke-width=".946723"/><ellipse cx="51.348824" cy="142.94244" fill="#808080" rx="6.661225" ry="6.771445" stroke-width=".462256"/><path d="m51.380374 149.53642c-3.659029 0-6.633854-2.97483-6.633854-6.63387 0-3.65903 2.974825-6.63384 6.633854-6.63384 3.65904 0 6.633865 2.97481 6.633865 6.63384 0 3.65904-2.974825 6.63387-6.633865 6.63387z" fill="#0a0a0a" stroke-width=".361045"/><path d="m51.413574 149.46205c-3.60409 0-6.534251-2.93017-6.534251-6.53427s2.930161-6.53423 6.534251-6.53423c3.604104 0 6.534264 2.93013 6.534264 6.53423s-2.93016 6.53427-6.534264 6.53427z" fill="#1a1a1a" stroke-width=".355624"/><g transform="matrix(.30408544 0 0 .30408544 43.991548 85.731843)"><path d="m-40.715224 200.05516-11.644832-6.65384-11.644833-6.65383 11.584806-6.7578 11.584807-6.75781.06003 13.41164z" fill="#333"/><path d="m-40.713288 200.48778-11.832643-6.76115-11.832644-6.76115 11.771649-6.86679 11.77165-6.8668.06099 13.62794z" fill="#666" transform="matrix(.94643119 0 0 .95348817 -2.511566 8.47812)"/></g><g transform="matrix(-.00031587 .30408528 -.30408528 -.00031587 107.47738 135.77636)"><path d="m-40.715224 200.05516-11.644832-6.65384-11.644833-6.65383 11.584806-6.7578 11.584807-6.75781.06003 13.41164z" fill="#333"/><path d="m-40.713288 200.48778-11.832643-6.76115-11.832644-6.76115 11.771649-6.86679 11.77165-6.8668.06099 13.62794z" fill="#666" transform="matrix(.94643119 0 0 .95348817 -2.511566 8.47812)"/></g><g transform="matrix(-.30405602 -.00422995 .00422995 -.30405602 57.385734 199.10307)"><path d="m-40.715224 200.05516-11.644832-6.65384-11.644833-6.65383 11.584806-6.7578 11.584807-6.75781.06003 13.41164z" fill="#333"/><path d="m-40.713288 200.48778-11.832643-6.76115-11.832644-6.76115 11.771649-6.86679 11.77165-6.8668.06099 13.62794z" fill="#666" transform="matrix(.94643119 0 0 .95348817 -2.511566 8.47812)"/></g><g transform="matrix(-.00104547 -.30408364 .30408364 -.00104547 -5.681165 149.07276)"><path d="m-40.715224 200.05516-11.644832-6.65384-11.644833-6.65383 11.584806-6.7578 11.584807-6.75781.06003 13.41164z" fill="#333"/><path d="m-40.713288 200.48778-11.832643-6.76115-11.832644-6.76115 11.771649-6.86679 11.77165-6.8668.06099 13.62794z" fill="#666" transform="matrix(.94643119 0 0 .95348817 -2.511566 8.47812)"/></g><g fill="#fff" transform="matrix(.16177073 0 0 .16177073 -13.555273 54.606248)"><path d="m186.453 739.369h1.817l1.815.068 1.817.136 1.682.201 1.547.134.74.068.673.134.605.136.541.135.941.269-.201 3.095-.138 2.626v1.076l.069.539.069.536.201.81.202.737.2.676.203.269.136.336.269.473.336.401.337.27.268.339.338.2.2.135.472.202.136.065v.405l.133 1.143.068.875.066.809v1.009l-.066 1.145-.137 1.48-.065 1.345-.202 1.144-.203.94-.202.811-.065.539-.134.468-1.684.607-1.144.405-1.345.536-.741.337-.67.337-1.617.809-1.616.94-.808.538-.942.606-.673.471-.606.539-.604.537-.607.604-.604.541-.539.671-.537.606-.474.604-.471.674-.402.674-.271.672-.203.404-.133.338-.201.737-.204.74-.133.738v1.616l.067.876.133.809.136.737.133.742.202.607.202.673.271.539-.271.13-.403.205-.537.2-.271.136h-.403l-.741.202h-.47l-.538.066h-1.011l-.337-.066h-.402l-.675-.202-.739-.137-.809-.333-.336-.135-.338-.135-.738-.407-.74-.536-.74-.472-.674-.604-.673-.607-.673-.673-.605-.676-.606-.738-.606-.806-.269-.404-.268-.403-.541-.876-.605-1.144-.604-1.213-1.079-2.289-1.009-2.287-.469-1.074-.539-.944-.538-.938-.202-.471-.338-.404-.537-.674-.202-.336-.337-.337-.27-.268-.336-.271-.269-.136-.403-.199-.269-.203-.337-.067h-.405l-.335-.064-.336.064h-.607l-.335.067-.203.134-.268.137-.272.133-.2.069-.403.402-.404.337-.272.405-.4.335-.271.403-.336.34-.335.332-.337.338-.201.138-.202.132-.472.201-.2.068-.271.065h-.874l-.337-.065h-.27l-.333-.135-.271-.136-.27-.201-.538-.405-.27-.199-.269-.271-.27-.203-.203-.269-.402-.604-.203-.336-.203-.336-.336-.676-.404-.671-.604-1.346-1.078-2.355-.135-.338-.269-.335-.402-.675-.539-.605-.537-.604-1.213-1.145-.674-.538-.605-.604-.606-.606-.54-.673-.537-.604-.473-.743-.403-.806-.203-.472-.202-.401-.134-.475-.067-.539-.135-.538-.068-.604h16.487v-23.213h15.478v9.755l.268.203.27.201.336.203.472.2.47.134.606.203.538.134.675.134-1.751 7.806h-4.913l-1.682 6.932h5.048l-1.816 8.48-.268 1.279-.063.74-.134.808v1.614l.066.742.068.335.069.337.201.538.2.474.272.468.269.404.334.471.27.336.406.337.403.27.27.268.538.137.403.202.473.2.468.067.473.066.538.068h1.278l.808-.068.74-.066.809-.134 1.411-.27.675-.203.538-.132.606-.202.538-.138.74-.268.74-.337 1.547-5.921-.201.068-.336.066h-.739l-.742.065-.672.067h-.337l-.27-.067-.2-.065h-.068l-.068-.066-.067-.068-.135-.065-.067-.203-.135-.135-.068-.336-.068-.268.068-.204.068-.675 2.084-9.017h4.914l1.614-6.932h-5.045zm-9.49 2.761h6.056l-4.978 22.07h-5.855zm4.173-8.48h.405l.268.067.335.065.271.069.269.134.269.202.269.134.201.201.403.472.204.27.133.271.068.269.067.403.066.271v.673l-.066.336-.067.27-.067.335-.134.271-.204.2-.132.337-.202.137-.203.269-.269.134-.269.136-.27.134-.269.068-.336.064-.336.067h-.74l-.27-.067-.336-.064-.271-.068-.335-.134-.27-.136-.202-.134-.27-.2-.202-.205-.201-.268-.134-.27-.135-.201-.068-.405-.133-.269-.067-.336v-.673l.067-.271.133-.336.068-.269.135-.271.134-.335.27-.201.132-.2.27-.272.269-.134.27-.201.269-.134.337-.069.269-.066.335-.066zm287.102 28.697.403-.135.406-.201.74-.403.335-.137.136-.133.133-.069.337-.336.203-.202.335-.333.204-.338.135-.27.203-.404.066-.337.067-.336.065-.402-.065-.473-.067-.405-.135-.401-.203-.339-.135-.47-.268-.271-.272-.269-.333-.335-.337-.202-.336-.201-.405-.202-.402-.135-.338-.135-.47-.135-.401-.068h-4.577l-.27.068-.203.135-.27.135-.269.135-.065.202-.136.269-.066.336-.067.271v6.526l.067 3.364v7.4l.066.405.067.405.069.2.063.338.137.266.27.472.133.137.203.202.403.202.271.066.202.134.47.067v.74h-10.5v-.74h.272l.203-.067.265-.134.203-.066.404-.202.137-.202.2-.137.204-.268.066-.204.135-.266.067-.338.132-.2.07-.405v-18.704l-.07-.339-.067-.405-.065-.335-.135-.271-.134-.269-.07-.202-.201-.27-.133-.2-.202-.067-.405-.271-.201-.135-.2-.066-.475-.064v-.74h15.346l1.009.065.942.135.873.136.876.266.403.138.337.064.47.202.338.136.672.403.268.202.337.202.267.271.268.199.203.269.272.27.2.337.203.27.135.339.2.268.068.335.135.471.067.337.068.405.065.403v.472l-.065.471v.471l-.068.403-.135.337-.136.403-.067.405-.133.268-.203.403-.405.472-.203.269-.201.267-.47.406-.337.137-.201.269-.607.268-.538.336-.605.201-.605.203-.607.203-.538.134-.942.201.605.269.539.272.538.334.54.404.47.336.403.406.403.4.405.474.405.471.336.401.74.94.604.945.54 1.012.538.873.54.876.2.4.269.404.539.605.27.337.335.268.27.271.335.199.27.137.337.135.403.067.403.067v.605l-.536.271-.81.268-.471.066-.538.136-.606.066h-1.48l-.403-.066-.337-.067-.809-.135-.673-.201-.605-.27-.541-.338-.536-.267-.473-.474-.402-.402-.337-.403-.403-.403-.267-.538-.338-.472-.203-.541-.471-1.073-.94-2.086-.472-.942-.201-.538-.337-.338-.27-.335-.335-.406-.336-.266-.337-.269-.47-.203-.206-.136-.267-.069-.201-.065h-4.44v.065-.065l-.067-1.011v-2.151h2.893l1.078-.064h1.817zm-102.013-15.611v-.875l-.068-.335-.135-.404-.133-.271-.069-.268-.132-.2-.202-.206-.068-.2-.202-.135-.405-.271-.203-.134-.2-.068-.473-.066v-.738h10.97v.738l-.202.066h-.202l-.472.202-.2.136-.137.135-.132.135-.202.2-.136.206-.203.2-.065.268-.135.271-.068.404-.067.335-.068.402v26.92l.066.401.067.338.068.336.135.268.135.27.133.203.136.271.203.133.132.135.136.135.268.136.404.2h.405v.809h-10.97v-.809h.474l.199-.067.203-.133.405-.27.202-.136.067-.202.334-.404.068-.334.133-.271.204-.605v-26.851zm35.933 30.417h-.943l-17.496-18.506v14.536l.069.334.067.405.066.268.135.271.067.335.134.136.201.268.135.136.203.202.336.269h.269l.271.135.404.066v.808h-8.144v-.808l.271-.066.267-.065.272-.067.2-.067.203-.136.133-.136.203-.134.202-.136.134-.268.135-.205.067-.265.135-.271.068-.269.067-.404.068-.335v-18.439l-.068-.404-.067-.337-.068-.334-.066-.27-.136-.271-.135-.202-.067-.203-.202-.2-.202-.067-.403-.271-.473-.201-.538-.064v-.74h7.468l13.393 14.533v-10.898l-.068-.339-.067-.405-.065-.335-.137-.271v-.269l-.201-.202-.135-.2-.204-.201-.134-.136-.403-.271-.471-.202-.473-.063v-.741h8.143v.741l-.27.063h-.203l-.268.067-.136.135-.47.271-.135.068-.201.199-.203.271-.067.202-.135.269-.136.27-.133.74-.067.339v22.34h.004zm103.026-8.95-.071.736v1.213l-.134.539-.2.605-.203.475-.2.535-.27.472-.269.472-.337.336-.337.404-.265.337-.473.27-.337.336-.403.338-.406.198-.469.271-.403.2-.472.205-.404.2-.943.337-.47.132-.538.137-.94.133-.878.135-.873.07h-1.751l-.943-.07-.939-.135-.942-.133-.943-.269-1.009-.27-.537-.202-.406-.271-.469-.133-.471-.339-.406-.198-.402-.338-.471-.271-.335-.335-.339-.268-.403-.405-.27-.403-.335-.473-.202-.471-.269-.471-.135-.47-.203-.608-.067-.203-.065-.334-.137-.673v-14.332l-.065-.403v-.339l-.07-.338-.133-.402-.135-.27-.137-.335-.268-.406-.202-.199-.133-.136-.203-.132-.203-.137-.202-.068-.201-.068-.473-.063v-.74h10.497v.74l-.47.063-.204.068-.2.068-.405.269-.203.136-.133.199-.336.406-.137.335-.065.27-.135.74-.068.339v13.39l.068.805v.339l.067.337.133.672.203.608.135.199.136.336.335.472.335.404.406.403.538.334.54.271.538.271.539.202.672.135.673.134h2.824l.674-.134.605-.135.607-.202.538-.271.537-.271.471-.334.272-.2.265-.203.137-.203.203-.201.201-.269.134-.203.336-.535.203-.608.203-.672.065-.337.067-.339v-.4l.07-.404v-12.986l-.07-.403v-.339l-.067-.338-.135-.402-.067-.27-.133-.269-.136-.202-.135-.271-.201-.199-.135-.068-.473-.271-.2-.135-.202-.067-.471-.063v-.741h8.075v.741l-.268.063h-.202l-.201.067-.201.135-.407.271-.202.068-.133.199-.203.271-.068.202-.132.269-.136.27-.136.74-.063.339zm-67.296-11.98v-.604l-.067-.405-.133-.336-.135-.203-.202-.201-.268-.135-.268-.068h-1.954l-.674.068h-.538l-.539.065-.469.069-.472.135-.405.066-.336.203-.403.134-.337.202-.336.336-.404.339-.403.402-.806 1.009-.608-.268 1.951-5.854h21.335l2.016 5.854-.674.268-.806-1.009-.335-.402-.405-.339-.338-.336-.335-.202-.405-.134-.337-.203-.404-.066-.47-.135-.471-.069-.472-.065h-.606l-.605-.068h-1.883l-.333.068-.337.135v.067l-.136.135-.133.067-.067.135-.135.338-.067.404v17.896l.133.673.203.536.203.205.066.268.203.203.203.066.335.271.268.135.203.065.54.067v.808h-10.499v-.808l.54-.067.468-.2.272-.136.133-.135.201-.135.137-.204.133-.199.135-.205.068-.267.133-.269.067-.336v-.338l.066-.333zm-20.456-5.515 1.078.066h.471l.538.066.943.136.74.065.738.202.608.203.74.202.27.065.134-.065.066-.067.068-.067.065-.337.067-.136.069-.066.606-.201 1.952 6.124-.74.269-.541-.539-.268-.336-.402-.27-.337-.267-.406-.338-.47-.201-.47-.269-.471-.271-.54-.135-.603-.271-.608-.136-.738-.133-.606-.066-.81-.069-.738-.065h-.405l-.403.065-.806.069-.942.199-.403.069-.406.199-.334.205-.203.066-.203.067-.27.27-.133.134-.203.135-.133.339-.203.401-.136.403v.875l.201.473.203.335.068.135.202.134.201.203.135.135.473.268.47.271.538.201.606.202.607.27 1.278.338 1.412.403 1.481.402 1.479.473.808.269.741.267.604.337.675.338.671.403.538.539.608.469.471.538.404.539.201.406.133.267.338.739.067.403.067.34.135.403.065.471v1.748l-.065.472-.135.403-.067.402-.136.338-.336.806-.405.745-.201.333-.269.269-.268.337-.337.203-.27.336-.403.27-.674.471-.403.271-.473.201-.94.403-.473.135-.47.137-1.141.336h-.54l-.605.135-1.211.137h-2.354l-.942-.071-.943-.133-.875-.067-.875-.136-.808-.199-1.48-.403h-.403l-.134.065-.069.066-.067.068-.066.134-.134.268-.068.137h-.066l-.271.135-.335.064-2.762-7.468.81-.268.471.47.402.471.406.403.471.472.537.405.54.402.605.336.607.336.673.339.603.269.743.268.738.202.809.136.809.135.873.134h1.683l.673-.064.674-.137.605-.135.538-.135.47-.201.338-.202.336-.203.202-.135.135-.199.201-.204.203-.337.203-.269.135-.335v-.271l.068-.333v-.608l-.068-.269v-.202l-.067-.27-.271-.403-.203-.405-.201-.199-.199-.204-.406-.27-.473-.268-.536-.202-.538-.268-.607-.203-1.277-.337-1.414-.472-1.415-.334-1.413-.473-.738-.268-.74-.271-.607-.337-.671-.269-.608-.403-.536-.402-.538-.474-.473-.536-.203-.271-.202-.27-.335-.672-.337-.674-.136-.334-.066-.405v-.471l-.068-.405-.067-.471v-.874l.067-.473.068-.402.066-.404.136-.404.133-.334.204-.405.2-.337.202-.337.203-.271.337-.335.27-.336.336-.271.268-.269.739-.538.337-.201.336-.2.473-.205.402-.199.809-.336.873-.27.473-.134.47-.135.94-.137.942-.066zm123.213 22.004v.872l.068.338.067.268.135.271.203.335.064.203.2.2.206.203.133.135.269.135.202.136.471.133.404.067v.809h-10.631v-.809l.403-.067h.202l.271-.133.337-.27.202-.136.202-.202.268-.404.136-.334.135-.271.068-.605.067-.401v-12.72l-9.356 16.823h-.538l-9.757-17.294v13.591l.135.338.067.268.133.271.202.335.067.203.203.2.202.203.136.135.268.135.203.136.47.133.403.067v.809h-8.208v-.809l.406-.067h.264l.203-.133.405-.27.136-.136.203-.202.27-.404.133-.334.132-.271.137-.605.066-.401v-18.576l-.066-.205-.069-.401v-.201l-.068-.204-.132-.268-.134-.269-.069-.202-.2-.203-.204-.134-.135-.136-.203-.132-.203-.137-.202-.068-.265-.067h-.406v-.805h8.343l8.679 16.822 9.491-16.822h7.066v.805h-.472l-.204.067-.201.068-.202.137-.135.132-.403.27-.136.203-.133.202-.135.269-.135.268-.067.405-.067.402zm54.574 4.441h-1.011l-17.429-18.506v14.938l.135.338.068.268.133.271.07.335.201.203.202.2.135.136.2.202.203.135.203.136.201.067.202.065.47.066v.808h-8.141v-.808l.404-.066.202-.065.2-.067.472-.27.136-.203.135-.135.336-.404.067-.334.136-.271.2-.605v-19.246l-.066-.337-.068-.334-.133-.27-.067-.271-.067-.202-.202-.203-.134-.2-.203-.136-.203-.132-.201-.07-.471-.202-.472-.063v-.741h7.336l13.458 14.533v-10.496l-.067-.402v-.339l-.065-.405-.136-.335-.07-.271-.067-.269-.2-.202-.135-.27-.137-.2-.201-.067-.405-.271-.201-.135-.269-.066-.47-.064v-.74h8.142v.74l-.201.064h-.203l-.27.066-.135.135-.47.271-.135.067-.203.2-.204.27-.064.202-.202.269-.137.271-.064.335-.068.405v22.679zm-48.854-.339v-.808h.269l.27-.067.469-.2.405-.271.2-.134.205-.204.063-.2.139-.204.132-.334.067-.271.137-.605v-19.042l-.069-.338-.135-.334-.067-.269-.135-.338-.134-.202-.135-.2-.204-.202-.201-.135-.133-.135-.268-.136-.407-.203h-.469v-.804h20.117l1.954 5.516-.673.205-.337-.337-.336-.339-.335-.334-.337-.27-.741-.472-.337-.201-.403-.135-.401-.134-.408-.068-.401-.135-.404-.068-.473-.067h-.536l-1.012-.067h-4.913l-.538.067h-.27l-.134.067-.337.136-.273.136-.062.135-.138.134-.065.27-.067.469v5.99h7.535l.743-.066.538-.201.204-.067.201-.135.336-.203.133-.202.137-.133.133-.403.133-.338h.672v6.996h-.672l-.133-.538-.07-.135-.06-.201-.138-.203-.133-.069-.135-.2-.138-.136-.265-.064-.137-.067-.335-.068-.268-.067-.742-.066-.874-.067h-6.663v7.268l.069.471v.203l.064.133.138.203.063.066.138.069.135.133.337.136.403.067h7.535l.875-.067.875-.202.474-.066.402-.136.468-.132.472-.204.403-.203.337-.269.405-.27.468-.404.338-.336.336-.401.674.198-1.951 5.518h-21.599zm61.438-20.591-.067-.604-.07-.405-.067-.336-.2-.203-.135-.201-.268-.135-.335-.068h-1.886l-.605.068h-.605l-.538.065-.471.069-.471.136-.404.066-.336.202-.406.135-.405.203-.334.335-.336.338-.404.403-.808 1.01-.674-.269 2.018-5.854h21.4l1.951 5.854-.606.269-.808-1.009-.471-.403-.337-.338-.267-.335-.405-.203-.337-.135-.336-.202-.471-.066-.403-.136-.47-.068-.538-.066h-.539l-.671-.068h-1.884l-.27.068-.271.135-.135.067-.135.135-.068.067-.067.135-.064.338-.138.404v17.563l.069.334.133.673.067.271.068.266.135.204.2.268.135.203.136.067.405.27.268.135.268.065.473.067v.809h-10.631v-.809l.539-.067.538-.2.203-.135.201-.135.135-.136.203-.203.136-.2.064-.205.136-.266.064-.27.067-.335.07-.338v-.334l.067-.472v-16.488zm27.184-5.515 1.075.066h.473l.471.066.942.136.808.065.672.202.605.203.742.202.269.065.134-.065.066-.067h.067l.068-.067.063-.337v-.136l.07-.066.673-.201 1.884 6.124-.74.269-.54-.539-.268-.336-.335-.27-.403-.267-.405-.338-.403-.201-.472-.269-.54-.271-.538-.135-.605-.271-.605-.136-.672-.133-.675-.066-.67-.069-.808-.065h-.407l-.404.065-.873.069-.875.199-.47.069-.336.199-.404.205-.202.066-.202.067-.271.27-.135.134-.134.135-.2.339-.204.401-.135.403v.405l.065.47.138.473.203.335.134.135.134.134.203.203.203.135.471.268.47.271.539.201.538.202.605.27 1.414.338 1.346.403 1.482.402 1.476.473.743.269.74.267.603.337.744.338.605.403.605.539.538.469.47.538.404.539.201.406.135.267.337.739.134.403.066.34.067.403.067.471v.401l.066.471-.066.876-.067.472-.067.403-.066.402-.131.339-.402.806-.341.744-.2.334-.338.27-.201.336-.336.203-.337.335-.333.271-.743.471-.403.27-.404.202-.941.403-.537.135-.472.137-1.076.335h-.608l-.538.135-1.143.138h-2.422l-1.009-.072-.944-.133-.875-.067-.876-.135-.737-.2-1.549-.402h-.405l-.065.064-.136.066-.064.068-.068.135-.069.268-.065.136h-.067l-.336.135-.336.065-2.694-7.468.808-.268.406.47.403.471.406.402.538.473.471.404.539.403.603.336.608.335.67.339.676.27.74.268.74.202.738.137.808.134.944.133h1.684l.667-.063.676-.137.538-.135.536-.135.473-.201.403-.202.336-.202.135-.136.136-.2.268-.203.202-.338.136-.268.135-.336.067-.271v-1.412l-.134-.27-.204-.403-.267-.405-.203-.199-.201-.204-.404-.27-.471-.268-.473-.202-.605-.268-.605-.203-1.21-.337-1.483-.472-1.41-.334-1.414-.473-.74-.268-.676-.271-.671-.337-.604-.269-.673-.403-.539-.402-.538-.474-.471-.536-.134-.271-.271-.27-.335-.672-.271-.674-.132-.334-.068-.405-.067-.471-.064-.404-.069-.47v-.875l.069-.472.064-.402.067-.406.135-.403.2-.335.202-.404.137-.338.269-.336.203-.271.267-.336.269-.337.336-.27.27-.269.738-.538.338-.202.337-.2.469-.204.406-.2.808-.336.943-.27.47-.134.403-.135.941-.137.943-.064z"/><path d="m322.246 776.009-.47-.268-.538-.269-.405-.47-.471-.406-.337-.402-.2-.27-.068-.202-.266-.472-9.423-22.136h-4.913l-6.124 14.937-3.835 8.813-1.078 1.078.405.875h6.392v-.739h-.269l-.202-.07h-.136l-.267-.064-.202-.065-.134-.137-.204-.136-.2-.134-.066-.27-.135-.268-.067-.201v-.675l.135-.405.067-.403 1.546-3.634h10.767l1.413 3.435.203.47.065.403.069.472v.469l-.069.069-.065.267-.135.271-.201.133-.27.272-.405.131-.402.069h-.269v.74h11.304v-.74zm-20.052-9.957 4.105-10.564 4.172 10.564zm31.628-15.275h1.145l.469.068.541.066.941.135.74.069.74.199.605.136.74.268h.405l.064-.064v-.069l.068-.067.067-.336.066-.135h.066l.608-.202 1.951 6.191-.74.201-.541-.538-.268-.269-.403-.336-.336-.203-.404-.338-.473-.269-.471-.268-.473-.201-.535-.271-.607-.201-.605-.135-.74-.134-.605-.137-.807-.066h-1.547l-.876.136-.941.201-.406.066-.402.135-.338.27-.199.066-.205.069-.267.269-.136.2-.134.067-.202.407-.203.335-.133.403v.942l.2.337.202.337.135.201.133.202.202.134.2.135.404.269.473.204.539.268.607.201.604.201 1.346.405 1.414.402 1.48.403 1.481.539.806.204.74.335.605.335.675.403.673.405.603.337.541.538.471.538.404.604.201.271.133.402.337.672.069.406.066.4.136.405.067.405v1.818l-.067.403-.136.468-.065.338-.07.406-.403.808-.404.672-.201.335-.269.337-.269.337-.337.27-.27.335-.402.204-.674.536-.403.272-.471.131-.941.407-.472.065-.471.204-1.078.268-.606.067-.605.064-1.21.139-1.347.062h-1.078l-.942-.062-.94-.139-.876-.064-.875-.202-.807-.134-1.48-.406h-.471l-.135.137-.067.065-.068.137-.134.269-.066.066v.068l-.337.064-.335.138-2.691-7.405.808-.336.471.471.402.473.402.4.474.405.47.405.538.471.607.337.604.336.675.336.604.27.741.268.805.136.742.203.807.135.875.067.875.066.875-.066.674-.067.672-.068.605-.135.539-.135.47-.203.337-.267.337-.203.199-.133.136-.134.203-.204.201-.336.203-.268.133-.339v-.337l.066-.27v-.604l-.066-.269v-.271l-.07-.136-.2-.47-.268-.405-.203-.132-.2-.204-.405-.268-.472-.338-.539-.203-.536-.271-.607-.268-1.279-.402-1.481-.337-1.412-.336-1.416-.538-.741-.202-.67-.338-.675-.266-.671-.339-.605-.403-.271-.2-.269-.203-.538-.405-.403-.537-.203-.337-.202-.27-.338-.605-.334-.74-.135-.404-.067-.334v-.405l-.068-.472-.068-.472v-.94l.068-.405.068-.402.067-.338.135-.402.134-.336.2-.47.202-.27.205-.336.201-.405.269-.271.268-.337.337-.267.27-.336.74-.471.338-.203.335-.271.473-.135.402-.2.807-.338.941-.336.404-.135.473-.067.942-.136.943-.135zm-90.239 26.042v-.739l.268-.07h.271l.471-.2.336-.268.202-.135.202-.203.067-.268.134-.201.136-.27.066-.27.135-.741.067-.337v-18.37l-.067-.336-.135-.74-.202-.538-.134-.202-.133-.2-.136-.202-.202-.136-.135-.135-.271-.136-.2-.065-.271-.134h-.47v-.808h20.051l1.954 5.517-.675.27-.267-.336-.405-.337-.336-.336-.271-.271-.738-.47-.403-.203-.407-.202-.403-.134-.403-.066-.405-.136-.402-.066-.47-.067-.472-.067h-6.458l-.205.067h-.201l-.336.134-.201.203-.135.134-.067.135-.136.337-.067.472-.065.472v5.517h6.795l.808-.066h.268l.405-.068.539-.135.201-.064.271-.136.133-.137.136-.066.135-.202.135-.201.133-.336.136-.472h.741v7.063h-.741l-.136-.471v-.202l-.133-.2-.068-.136-.201-.202-.136-.136-.133-.135-.204-.067-.201-.067-.335-.067-.27-.067-.673-.067-.808-.065h-6.796v6.729l.066.606.067.471.07.134.065.202.068.136.135.067.067.134.134.134.336.067.407.136h7.467l.944-.136.875-.133.401-.136.403-.066.54-.136.403-.2.405-.203.402-.27.338-.268.473-.403.335-.34.402-.403.607.136-1.952 5.586z"/><path d="m236.585 772.713v.874l.067.337.135.338.136.27.133.334.067.204.205.203.133.2.201.133.135.136.268.137.473.131.204.07h.267v.739h-11.239v-.739l.473-.07.201-.064.203-.065.269-.137.133-.136.203-.134.203-.199.2-.408.136-.334.134-.27.069-.337v-.338l.067-.402v-25.301l-.067-.539v-.335l-.136-.135-.067-.135h-.136l-.2-.069-.068-.065-.2-.068-.405-.066h-3.969l-.807.066-1.413.134-.673.069-.606.066-.537.133-.471.203-.471.202-.405.203-.404.269-.202.134-.202.201-.203.134-.2.204-.336.403-.674-.338 2.021-5.92h28.126l2.019 5.92-.672.338-.136-.202-.202-.201-.335-.338-.471-.335-.135-.135-.27-.135-.203-.137-.201-.065-.469-.203-.473-.202-.536-.133-1.213-.136-1.48-.134-.739-.066h-3.972l-.403.066-.337.134-.066.069h-.134l-.135.135-.067.134-.135.336v25.368h-.006zm47.777-9.421-5.72 1.344-7.47-9.483-.471-.673-.471-.539-.404-.473-.47-.335-.406-.338-.202-.064-.202-.137-.538-.203-.336-.065h-.27v-.741h12.045v.741h-.403l-.268.135-.202.068-.136.135-.134.133-.201.135-.066.202-.068.202v.202l-.067.267.067.271v.27l.135.336.201.269.203.337 3.565 4.979 4.172-5.447.337-.473.135-.472.067-.202.067-.203-.067-.201v-.134l-.067-.202-.066-.135-.136-.133-.202-.135-.202-.068-.134-.135h-.47v-.741h9.556v.741l-.536.065-.539.137-.539.268-.537.201-.54.337-.605.404-.203.338-.335.268-.202.337-.336.337z"/><path d="m284.97 762.956 1.681 2.693.739 1.345.808 1.142.74 1.214.876 1.211.94 1.345 1.011 1.413.538.74.27.27.135.269.807.676 1.48 1.345v.067l-.134.065-.136.067h-10.967v-.74h.337l.402-.069.203-.131.201-.138.136-.136.203-.064.133-.268.067-.202.065-.205v-.268l-.065-.336-.137-.338-.2-.337-.268-.471-3.971-5.448-4.51 5.919-.135.337-.202.271-.134.269-.068.201v.406l.068.267.067.136.066.133.133.136.271.203.202.134h.606v.741h-9.758v-.741h.27l.27-.068.538-.201.608-.267.604-.403.607-.403.605-.54.604-.608.539-.603 6.527-8.546z"/></g><rect fill="#333" height="29.67407" ry="5.070885" stroke="url(#a)" stroke-width=".3" width="76.626709" x="11.20419" y="18.576658"/><g fill="#a00" stroke-width=".9"><rect height="25.763611" ry="5.07089" stroke="url(#b)" width="72.244354" x="13.413014" y="20.717131"/><rect height="21.646749" ry="5.07089" stroke="#860000" width="67.463478" x="15.670651" y="22.841965"/></g></svg>