<svg height="17.163109mm" viewBox="0 0 25.998135 17.163109" width="25.998135mm" xmlns="http://www.w3.org/2000/svg"><path d="m2.0330434 8.767044h22.1146436c.269948 0 .48727.21732.48727.487269v7.421527c0 .269948-.217322.487269-.48727.487269h-22.1146436c-.2699474 0-.4872695-.217321-.4872695-.487269v-7.421527c0-.269949.2173221-.487269.4872695-.487269z" fill="#1a1a1a" stroke-width=".065269"/><path d="m1.7223303 9.046486h.08275c.091687 0 .1654999.236418.1654999.530082v6.966876c0 .293665-.073813.530081-.1654999.530081h-.08275c-.091687 0-.1654999-.236416-.1654999-.530081v-6.966876c0-.293664.073813-.530082.1654999-.530082z" fill="#333" stroke-width=".076966"/><path d="m24.362908 9.136067h.09068c.100477 0 .181368.236415.181368.530082v6.966875c0 .293664-.08089.530082-.181368.530082h-.09068c-.100478 0-.181369-.236418-.181369-.530082v-6.966875c0-.293667.08089-.530082.181369-.530082z" fill="#333" stroke-width=".080571"/><path d="m.656795 2.107122h24.690329c.353009 0 .637203.284192.637203.637203v6.135167c0 .353007-.284194.637201-.637203.637201h-24.690329c-.3530097 0-.6372016-.284194-.6372016-.637201v-6.135167c0-.353011.2841919-.637203.6372016-.637203z" fill="#1a1a1a" stroke-width=".070657"/><path d="m.0750211 0h25.8480939l.07502 3.156631h-25.9981354z" fill="#333" stroke-width=".056066"/><path d="m3.1139777 9.572871h19.8360803c.350943 0 .633471.282526.633471.633469v6.189802c0 .350943-.282528.633472-.633471.633472h-19.8360803c-.3509426 0-.6334705-.282529-.6334705-.633472v-6.189802c0-.350943.2825279-.633469.6334705-.633469z" fill="#b3b3b3" stroke-width=".06554"/><g fill-rule="evenodd" transform="matrix(.02559051 0 0 .02559051 -29.95605468037 29.76458959081)"><path d="m1444.1078-737.79339c11.9745 0 26.2367 1.21096 30.5422 3.36372v15.20385c0 15.33843 8.7456 17.4912 8.7456 17.4912v14.12748c0 9.82198-2.1527 16.4148-2.1527 16.4148-4.4402 1.07636-15.3385 4.30553-27.3134 13.05111-8.7455 6.59282-16.4146 16.4148-16.4146 26.23675 0 6.4583 1.0762 10.89835 3.3636 15.20388 0 0-4.4401 2.15277-12.1091 2.15277-9.6875-1.07636-20.5858-8.74558-27.1787-20.72033-8.7456-15.20385-13.051-33.77141-22.8732-33.77141-9.8217 0-9.8217 9.82194-17.4911 9.82194-8.7456 0-14.1276-14.12748-16.2803-20.72029-5.5163-9.82199-18.5674-13.05112-19.6439-28.38955h41.4405c0-22.87306 0-35.92418 0-58.79724h39.1535v25.02583c1.2108 1.07636 4.4401 2.15276 8.7456 3.22913l-4.3055 19.64393h-11.9749l-4.4401 17.4912h11.9749l-4.3055 21.7967c0 3.22913-1.0765 10.89835 0 14.12748 2.1528 8.74558 7.669 11.97475 15.2038 11.97475 10.8983 0 20.7204-5.38194 20.7204-5.38194l4.4402-14.12748c-2.1528 0-5.5167 0-7.6694 0-2.1528 0-4.3055 0-3.2293-5.51645l5.382-22.87306h11.9749l4.4401-17.4912h-11.9749z" fill="#be372f"/><path d="m1420.1581-731.20053h15.2041l-11.9749 56.77906h-15.2037z" fill="#be372f"/><path d="m1431.0564-751.92087c4.3058 0 8.7459 3.22913 8.7459 8.74558 0 4.30554-4.4401 7.66922-8.7459 7.66922-4.4398 0-8.7456-3.36368-8.7456-7.66922 0-5.51645 4.3058-8.74558 8.7456-8.74558" fill="#be372f"/><g fill="#0f0e0c"><path d="m1810.4807-682.09069c8.7456 0 14.1272 1.07636 15.2038 2.15277 2.1527 0 1.0761-1.07641 2.1527-2.15277h1.2108l5.3821 15.20388-2.1528 1.07637c-3.2293-4.30554-9.8221-8.61103-20.7204-8.61103-4.3055 0-13.0511 1.07636-13.0511 7.53466 0 13.05112 40.3644 5.51645 40.3644 31.61865 0 11.97475-9.8222 20.72033-28.3895 20.72033-6.5928 0-11.9749-1.07636-17.4912-3.22913-1.0765 0-2.1527 1.07636-2.1527 2.15277l-2.1531 1.07636-6.5929-19.64393 2.1532-1.0764c5.5163 6.59285 13.1853 11.97475 26.2367 11.97475 10.8983 0 14.1272-4.30554 14.1272-8.61107 0-15.3384-39.2878-5.51641-39.2878-31.75319 0-11.97472 12.1092-18.43302 25.1606-18.43302"/><path d="m1583.6335-615.62419v-2.15277c4.4401-1.07641 6.5928-2.15277 6.5928-8.74558v-44.6698c0-6.59282-2.1527-7.66922-6.5928-8.74558v-2.15277h51.2626l5.5163 14.12748-2.1527 1.0764c-4.4401-5.3819-8.7456-6.4583-16.4146-6.4583-1.0766 0-11.9749 0-11.9749 0-4.4401 0-5.5163 1.0764-5.5163 4.30554v14.12748h17.4912c6.5929 0 7.669-1.07637 8.7456-4.30554h2.1527v17.4912h-2.1527c-1.0766-3.36368-2.1527-4.44008-8.7456-4.44008h-17.4912v17.4912c0 4.3055 1.0762 4.3055 5.5163 4.3055h15.2038c6.5928 0 11.9749 0 17.4912-6.45827l1.0765 1.07637-4.3054 14.12752z"/><path d="m1567.3532-626.52254c0 6.59281 2.1527 7.66917 5.382 8.74558v2.15277h-28.2552v-2.15277c3.2293-1.07641 6.4586-2.15277 6.4586-8.74558v-63.23737c0-3.22913-2.1528-3.22913-6.4586-3.22913-14.2619 0-19.6439 0-25.1602 5.3819h-1.0766l5.5167-15.20388h70.7719l5.5163 15.20388h-2.1527c-4.4402-5.3819-10.8984-5.3819-25.1602-5.3819-4.3055 0-5.382 0-5.382 3.22913z"/><path d="m1672.0312-648.31928-18.5677-23.94943c-3.2289-5.51645-5.5163-6.59285-9.8218-7.66921v-2.15277h30.5422v2.15277c-3.2293 0-5.5163 3.22913-2.1527 7.66921l8.6109 13.05108 11.033-14.12748c2.1527-3.36368 2.1527-6.59281-2.2874-6.59281v-2.15277h25.1606v2.15277c-4.4402 1.07636-7.6695 2.15276-11.9749 6.59281l-15.3384 21.7967 18.5677 26.10223c2.1527 3.22913 4.3054 5.51645 4.3054 5.51645s3.3636-1.0764 7.6691-11.97475l20.7204-50.18621h13.051l24.0841 56.64451c1.0765 3.22913 4.3054 6.59281 7.5347 7.66922v2.15277h-28.2548v-2.15277c2.1527 0 6.4582-1.07641 3.2289-7.66922l-3.2289-8.74558h-27.3133l-3.2293 8.74558c-3.3636 6.59281 2.1527 7.66922 3.2293 7.66922v2.15277h-42.5171v-2.15277c2.1528 0 7.6694-2.15277 3.2293-7.66922l-10.8983-14.12748-10.8983 15.20385c-3.2293 4.44008 0 6.59285 2.1527 6.59285v2.15277h-25.0259v-2.15277c4.3055-1.07641 8.7456-3.22917 11.9745-8.74558zm69.6957-20.72029-10.8983 26.23674h20.72z"/><path d="m1330.6842-605.80225c0-6.59281-3.2293-7.66922-6.4582-8.74558v-1.07636h28.2548v1.07636c-2.1527 1.07636-5.382 2.15277-5.382 8.74558v66.4665c0 6.59281 3.2293 7.66918 5.382 8.74558v2.15277h-28.2548v-2.15277c3.2289-1.0764 6.4582-2.15277 6.4582-8.74558z"/><path d="m1421.2346-528.4374h-2.1527l-44.8045-46.82257v35.92422c0 6.59281 3.364 7.66918 5.5167 8.74558v2.15277h-19.6443v-2.15277c3.2293-1.0764 5.382-2.15277 5.382-8.74558v-44.6698c0-6.59282-2.1527-7.66922-5.382-8.74558v-2.15277h18.5677l33.7715 37.13513v-26.23678c0-6.59282-2.1527-7.66922-5.382-8.74558v-2.15277h20.5858v2.15277c-3.2289 1.07636-6.4582 2.15276-6.4582 8.74558z"/><path d="m1679.5659-551.3105c0 19.64393-17.3569 23.94946-28.2552 23.94946-11.9744 0-29.4656-4.30553-29.4656-22.87306v-33.77145c0-6.59282-3.2293-8.74558-6.5929-8.74558v-2.15277h27.313v2.15277c-3.2289 0-6.5929 2.15276-6.5929 8.74558v32.69505c0 10.89834 6.5929 15.33843 17.4912 15.33843 9.8221 0 17.4911-4.44009 17.4911-15.33843v-32.69505c0-6.59282-3.3635-7.66922-6.5928-8.74558v-2.15277h20.7204v2.15277c-3.2289 1.07636-5.5163 2.15276-5.5163 8.74558z"/><path d="m1509.4977-581.85278c0-4.30554 0-4.30554-3.2289-4.30554-10.8984 0-13.0515 0-19.6439 7.66922l-1.0766-1.07637 4.3055-15.33843h54.6262l5.382 15.33843-2.1527 1.07637c-5.5163-7.66922-7.6691-7.66922-18.5678-7.66922-3.2289 0-4.3054 0-4.3054 4.30554v42.51703c0 6.59281 2.1527 7.66918 6.4582 8.74558v2.15277h-27.1783v-2.15277c4.3055-1.0764 5.3817-2.15277 5.3817-8.74558z"/><path d="m1459.4462-595.98026c7.5344 0 13.0511 2.15276 14.1272 2.15276 2.1528 1.07637 2.1528-1.0764 2.1528-1.0764l2.1531-1.07636 4.4397 16.41479h-2.287c-3.2293-3.36368-8.6113-7.66921-19.5096-7.66921-5.5163 0-14.2619 1.07636-14.2619 7.66921 0 11.97472 41.4405 5.3819 41.4405 31.4841 0 12.1093-9.8217 19.64397-28.2548 19.64397-7.6694 0-13.1857-1.07641-18.5677-2.15277-1.0762 0-1.0762 1.07636-2.2874 1.07636 0 1.07641-2.1527 1.07641-2.1527 1.07641l-6.4582-18.43302 2.1527-1.21095c5.382 6.59285 13.0511 12.1093 26.1021 12.1093 10.8987 0 14.2623-4.44009 14.2623-8.74558 0-15.33844-39.2878-5.51645-39.2878-31.61868 0-11.97476 13.051-19.64393 26.2367-19.64393"/><path d="m1767.9636-539.33575c0 6.59281 3.2289 7.66918 6.4582 8.74558v2.15277h-27.1786v-2.15277c3.2293-1.0764 6.4582-2.15277 6.4582-8.74558v-31.61869l-23.9494 43.5934h-2.1527l-23.9493-44.66976v32.69505c0 6.59281 3.2288 7.66918 6.4581 8.74558v2.15277h-20.7204v-2.15277c2.2874-1.0764 5.5167-2.15277 5.5167-8.74558v-44.6698c0-6.59282-3.2293-7.66922-5.5167-8.74558v-2.15277h20.7204l21.7967 43.5934 24.084-43.5934h18.433v2.15277c-3.2293 1.07636-6.4582 2.15276-6.4582 8.74558z"/><path d="m1905.3366-528.4374h-2.1527l-44.8045-46.82257v35.92422c0 6.59281 3.364 7.66918 5.5167 8.74558v2.15277h-20.7205v-2.15277c3.2293-1.0764 6.5929-2.15277 6.5929-8.74558v-44.6698c0-6.59282-2.2874-7.66922-6.5929-8.74558v-2.15277h19.6439l33.7715 37.13513v-26.23678c0-6.59282-3.2293-7.66922-6.5928-8.74558v-2.15277h20.8547v2.15277c-2.287 1.07636-5.5163 2.15276-5.5163 8.74558z"/><path d="m1782.0908-528.4374v-2.15277c3.2293-1.0764 5.5167-3.22913 5.5167-8.74558v-44.6698c0-6.59282-2.2874-7.66922-5.5167-8.74558v-2.15277h51.2627l4.4401 14.12748-1.2108 1.21095c-4.3055-5.51645-9.8222-6.59285-16.2803-6.59285-1.0762 0-13.0511 0-13.0511 0-3.3635 0-4.4401 1.0764-4.4401 4.30554v14.26203h16.415c6.4582 0 8.6109-2.28732 8.6109-4.44005h2.2874v17.49116h-2.2874c0-3.22913-2.1527-4.30553-8.6109-4.30553h-16.415v17.35665c0 3.36368 1.0766 4.44005 4.4401 4.44005h15.2038c6.5928 0 13.051 0 17.4911-6.59282l2.1528 1.07637-5.5163 14.12752z"/><path d="m1935.8788-581.85278c0-4.30554-1.0762-4.30554-3.3636-4.30554-11.9748 0-13.051 0-19.5096 7.66922l-1.2108-1.07637 4.4401-15.33843h54.4919l5.5163 15.33843-2.1527 1.07637c-5.5167-7.66922-7.6694-7.66922-18.5677-7.66922-3.3636 0-4.4401 0-4.4401 4.30554v42.51703c0 6.59281 2.1527 7.66918 6.5928 8.74558v2.15277h-27.3129v-2.15277c3.3636-1.0764 5.5163-2.15277 5.5163-8.74558z"/><path d="m2004.4979-595.98026c7.6695 0 13.1858 2.15276 15.3385 2.15276 1.0765 1.07637 1.0765-1.0764 1.0765-1.0764 1.0762 0 2.1528-1.07636 2.1528-1.07636l4.3054 16.41479h-1.0761c-3.2293-3.36368-9.8222-7.66921-20.5858-7.66921-5.5167 0-13.1857 1.07636-13.1857 7.66921 0 11.97472 40.3639 5.3819 40.3639 31.4841 0 12.1093-9.8217 19.64397-28.3895 19.64397-7.5343 0-13.051-1.07641-18.433-2.15277-1.0762 0-1.0762 1.07636-1.0762 1.07636-1.2108 1.07641-2.2874 1.07641-2.2874 1.07641l-7.5347-18.43302 2.1527-1.21095c5.382 6.59285 14.1276 12.1093 26.1025 12.1093 10.8983 0 14.2619-4.44009 14.2619-8.74558 0-15.33844-39.2878-5.51645-39.2878-31.61868 0-11.97476 13.051-19.64393 26.102-19.64393"/><path d="m1585.7862-594.9039c14.2619 0 25.1606 5.51645 25.1606 17.49116 0 13.05112-11.9749 15.20389-18.5677 16.28029 17.4911 6.59281 18.5677 29.46588 29.466 29.46588v1.0764c-2.1527 1.07636-4.3058 2.15277-9.8221 2.15277-23.9494 0-18.5678-29.33137-33.7715-29.33137h-7.6691v18.43302c0 6.59281 2.1528 7.66918 5.5163 8.74558v2.15277h-26.2367v-2.15277c3.2293-1.0764 5.5163-2.15277 5.5163-8.74558v-44.6698c0-6.59282-2.287-7.66922-5.5163-8.74558v-2.15277zm-15.2038 29.46591h8.7456c7.669 0 16.2804-3.22913 16.2804-10.89834 0-4.44009-3.2293-10.89835-13.0515-10.89835h-7.5343c-3.364 0-4.4402 1.07636-4.4402 5.3819z"/></g></g></svg>
