<svg viewBox="-290 382 30 30" xmlns="http://www.w3.org/2000/svg"><ellipse cx="-280" cy="387.7" fill="#fff" rx="1.3" ry="1"/><path d="m-270.83772 411.5098c-.50309-.0601-1.32226-.32566-1.37575-.446-.0155-.0347-.1007-.0632-.18952-.0632-.0888 0-.16143-.038-.16143-.0842s-.0474-.0843-.10527-.0843c-.058 0-.21542-.0949-.35002-.21056-.1346-.11577-.26727-.21088-.29481-.21139-.0677-.002-.99642-.89233-1.33389-1.2799-.54355-.62428-1.42899-2.16215-2.00259-3.47816-.38761-.88929-1.24713-2.60834-1.5083-3.0166-.61106-.95525-1.31115-1.35071-2.12192-1.1986-.44731.0839-.58795.18121-1.39865.96752l-.73461.7125-.54888.035c-.66008.042-1.10508-.13609-1.57365-.62989-.3298-.34754-.84471-1.27535-1.16106-2.09211-.62181-1.60533-.66023-1.65682-2.72972-3.65807-.40384-.39051-.75632-.79797-.78329-.90548-.027-.10748-.0828-.19544-.12416-.19544-.0413 0-.0751-.0695-.0751-.15442 0-.0849-.026-.18039-.0577-.21214-.11625-.11624-.2767-.69482-.27793-1.00216l-.002-.31588h4.04241 4.04241l.0216-5.45386.0216-5.45387 3.43236-.022 3.43236-.0221v2.65122 2.65124l.86336.024.86334.024-.008.37904c-.007.34482-.0509.60167-.29791 1.76882-.044.20846-.099.49274-.12202.63172-.023.13897-.0838.39367-.1352.56599l-.0934.3133-.97605.0236c-.90299.0219-.97777.0363-.99912.19209-.0128.0926-.0618.35798-.109.5896-.0472.23165-.16075.81368-.25222 1.29343-.0915.47974-.18459.90186-.20695.93803-.1087.17587.23909.26117 1.00642.24687.44586-.009.82971.004.85303.0272.0407.0407-.0603.7012-.22887 1.49532-.0922.4348-.16875.82888-.3677 1.89517-.1551.83127-.2668 1.39878-.38963 1.97939-.33561 1.58651-.29609 2.056.2162 2.56829.55342.55342 1.04299.63243 3.91868.63243h2.33461l.0937-.31585c.0941-.31732.12723-.46516.27808-1.24239.045-.23163.12-.61066.16676-.8423.0468-.23163.10656-.54434.13286-.6949l.0477-.27374h-.58854c-.32814 0-.72008-.055-.88586-.12423-.24612-.10283-.30641-.179-.35003-.4422-.029-.17489-.01-.52645.0436-.78125.053-.25478.13178-.63382.17516-.84229.20984-1.0085.33579-1.64083.48508-2.43558.0471-.25091.12194-.49243.16623-.53672.0443-.0444.49561-.074 1.00293-.0658 1.02672.0164.98737.0384 1.11577-.62584.13738-.7108.26788-1.36225.34587-1.7267.0447-.20847.10208-.50222.12776-.65278l.0467-.27374-.91467-.002c-.94758-.002-1.19967-.0628-1.07618-.26266.0388-.0628.0988-.28507.13326-.49374.0344-.20867.0988-.54998.14291-.75844.108-.50974.26445-1.33724.30608-1.61888.0186-.126.0753-.30656.12598-.40123.0903-.16876.14701-.17169 2.8892-.14994l2.79706.0222.0481 2.31632c.0336 1.62263.0809 2.39199.15782 2.569.34245.78877.59805 1.19264.99394 1.57047l.44262.42244v2.84013 2.84013l-.27972.10113c-.15385.0556-.36009.10112-.4583.10112-.0983 0-.20199.0379-.23061.0842-.0286.0463-.14235.0842-.2527.0842-.11033 0-.22405.0379-.25269.0842-.0286.0462-.12613.0842-.21669.0842-.0905 0-.23044.0347-.31089.0771-.0804.0424-.29787.14203-.48318.22135-2.18802.93651-3.54728 1.88956-4.64335 3.25571-.2489.31023-.45254.60082-.45254.64575 0 .045-.0298.0943-.0661.10978-.13454.0571-.60774 1.13754-.69055 1.57676-.18493.98094-.05 2.59148.27512 3.28378.19997.4258.14326.59248-.24074.70765-.53806.16137-1.45307.22639-2.09931.14921zm-3.28495-11.03789c-.0286-.0463-.023-.13143.0128-.18914.0356-.0577.096-.2946.13401-.52644.0671-.40874.13775-.77015.30479-1.55862.10219-.48223.26934-1.33907.30403-1.55825.0147-.0926.0725-.39587.12867-.67384.15789-.78216.22889-1.13705.33704-1.68459.055-.27796.13575-.67594.17968-.88441.044-.20847.11527-.56854.15854-.80017.0433-.23164.1375-.72439.20939-1.09499.0719-.37061.17112-.88231.22049-1.1371.0494-.25479.12694-.63383.17233-.8423.0454-.20846.10262-.54036.12708-.73754.056-.45123.069-.4546 1.62783-.42374l1.22134.0242-.0156.2948c-.0143.27042-.0571.51721-.27765 1.60036-.0968.47505-.2257 1.13764-.2908 1.49417-.0274.15005-.12958.66175-.22703 1.1371-.26032 1.26958-.30576 1.50289-.3652 1.87502-.0296.18531-.087.46959-.12742.63172-.0778.31159-.1464.65146-.43359 2.14786-.0978.50959-.21126 1.09709-.25213 1.30555-.0408.20847-.11005.56856-.15375.80019s-.10495.52538-.13616.65277l-.0567.23165h-1.37499c-.82581 0-1.3958-.0337-1.42707-.0842zm2.68095-13.27328c-.0281-.0734-.007-.32926.0449-.56855.1113-.50434.2669-1.32506.32605-1.7196.0226-.15055.0748-.27479.11605-.27608.0413-.002.67198-.003 1.40162-.004l1.32662-.002-.0118.19317c-.006.10623-.058.42057-.11446.69853-.0565.27797-.14595.76261-.19882 1.07701-.0551.32755-.15005.60572-.22246.65149-.0694.0439-.6866.0805-1.37137.0811-1.0593.00078-1.25267-.0186-1.29625-.13218z" fill="#b3b3b3" stroke-width=".08423"/></svg>