<?xml version="1.0" encoding="utf-8"?>
<!-- Generator: Adobe Illustrator 24.1.2, SVG Export Plug-In . SVG Version: 6.00 Build 0)  -->
<svg version="1.1" id="Calque_1" xmlns="http://www.w3.org/2000/svg" xmlns:xlink="http://www.w3.org/1999/xlink" x="0px" y="0px"
	 viewBox="0 0 470.3 67.4" style="enable-background:new 0 0 470.3 67.4;" xml:space="preserve">
<style type="text/css">
	.st0{fill:url(#SVGID_1_);stroke:#9DEF48;stroke-width:0.75;stroke-miterlimit:10;}
	.st1{enable-background:new    ;}
	.st2{fill:#9DEF48;}
	.st3{fill:#FFFFFF;}
</style>
<g id="afe8d696-74d8-4811-917a-e25ec48b07f8">
	
		<linearGradient id="SVGID_1_" gradientUnits="userSpaceOnUse" x1="0.38" y1="36.295" x2="469.96" y2="36.295" gradientTransform="matrix(1 0 0 -1 0 70)">
		<stop  offset="0" style="stop-color:#032C02"/>
		<stop  offset="1" style="stop-color:#207A09"/>
	</linearGradient>
	<polygon class="st0" points="0.4,5.9 102.4,5.9 108.6,0.4 150.3,0.4 158.2,5.9 461.6,6.1 470,16 470,59.7 50.8,59.7 42.7,67 
		7.9,67 0.4,59.7 	"/>
	<g class="st1">
		<path class="st2" d="M68.6,41.5l-4,4V25H51.8v-4h29.8v4H68.6V41.5z"/>
		<path class="st2" d="M90.5,44.9h-4V24.5l4-4V44.9z"/>
		<path class="st2" d="M111.3,31v3.9H95.4V31H111.3z"/>
		<path class="st2" d="M142.2,21.1c2.7,3.2,4.1,7.2,4.1,11.9c0,4.7-1.4,8.7-4.1,11.9h-23.5c-1.7-2-2.9-4.4-3.6-7.1h4.3
			c0.4,1.1,0.8,2.1,1.4,3.1h19.2c1.1-2,1.8-4,2.1-6h-25.8l-1.8-2c0-4.7,1.4-8.7,4.1-11.9H142.2z M120.9,25c-1.1,2-1.9,4-2.1,6h23.5
			c-0.3-2-1-4-2.1-6H120.9z"/>
		<path class="st2" d="M177.2,21.1c2.7,3.2,4.1,7.2,4.1,11.9c0,4.7-1.4,8.7-4.1,11.9h-23.5c-1.7-2-2.9-4.4-3.6-7.1h4.3
			c0.4,1.1,0.8,2.1,1.4,3.1h19.2c1.1-2,1.8-4,2.1-6h-25.8l-1.8-2c0-4.7,1.4-8.7,4.1-11.9H177.2z M155.8,25c-1.1,2-1.9,4-2.1,6h23.5
			c-0.3-2-1-4-2.1-6H155.8z"/>
	</g>
</g>
<g id="ad0e0a6a-a75c-4b4c-8fc0-e9310dacbc85">
	<path class="st3" d="M23.5,63.1h3.3c0.2,0,0.4,0.1,0.5,0.3c0,0,0,0,0,0h0.1V62h-0.1c0,0.2-0.2,0.4-0.5,0.4c0,0,0,0,0,0h-3.3
		c-0.2,0-0.3-0.1-0.3-0.3c0-0.7,0-1.1,0.4-1.3l0-0.1l-0.9,0.3v3.7l0.9,0.3l0-0.1c-0.4-0.3-0.4-0.6-0.4-1.3
		C23.3,63.2,23.3,63.1,23.5,63.1z M24,61.4c0.1-0.2,0.1-0.3,0.5-0.3h2.4c0.4,0,0.4,0.1,0.5,0.3h0.1v-2.9l-0.8-0.3l-0.1,0.1
		c0.3,0.2,0.5,0.6,0.5,1V60c0,0.2,0,0.3-0.2,0.3h-1v-0.9c0-0.4,0.1-0.4,0.3-0.5v-0.1h-1v0.1c0.2,0.1,0.3,0.1,0.3,0.5v0.9h-0.8
		c-0.2,0-0.2,0-0.2-0.3v-0.6c0-0.4,0.1-0.7,0.4-0.9l-0.1-0.1l-0.8,0.3v2.8L24,61.4z M24.4,57.7l1.3-0.9l1.2,0.8
		c0.2,0.1,0.4,0.4,0.5,0.7h0.1v-1.4h-0.1c0,0.3-0.1,0.4-0.4,0.2L26,56.5l0.9-0.6c0.3-0.2,0.4,0,0.5,0.2h0.1v-2.4h-0.1
		c0,0.2-0.1,0.3-0.5,0.2l-0.4-0.2v-1.5l0.4-0.2c0.3-0.1,0.4-0.1,0.5,0.2h0.1v-1.5h-0.1c-0.1,0.2-0.2,0.3-0.4,0.4l-3,1.2v0.8l2.8,1.1
		c0.2,0.1,0.4,0.2,0.5,0.3c-0.1,0.1-0.2,0.2-0.3,0.3l-1.4,1l-1.1-0.8c-0.2-0.1-0.4-0.3-0.4-0.6h-0.1v1.3h0.1c0-0.3,0.2-0.3,0.4-0.2
		l0.8,0.5l-0.7,0.5c-0.3,0.2-0.4,0.1-0.5-0.2h-0.1v1.7h0.1C24.1,58,24.2,57.8,24.4,57.7z M24.5,53l1.5-0.6v1.2L24.5,53z M27.4,50.6
		c0,0-0.2-0.1-0.2-0.1c0.2-0.3,0.2-0.6,0.2-0.9c0-0.8-0.4-1.4-1.1-1.4s-0.9,0.4-1.1,1.1l-0.1,0.6c-0.1,0.4-0.2,0.5-0.4,0.5
		s-0.4-0.2-0.4-0.7c0-0.5,0.2-0.9,0.6-1.2l-0.1-0.1l-0.9,0.3v0.2c0.1,0,0.2,0,0.2,0.1c-0.1,0.2-0.2,0.5-0.2,0.8c0,0.7,0.4,1.3,1,1.3
		c0.5,0,0.9-0.3,1-1l0.1-0.6c0.1-0.4,0.2-0.5,0.5-0.5s0.5,0.3,0.5,0.7c0,0.6-0.3,1.1-0.7,1.5l0.1,0.1l1-0.3L27.4,50.6L27.4,50.6z"/>
	<path class="st3" d="M22.9,45.9c0.1-0.2,0.1-0.4,0.5-0.4h3.5c0.4,0,0.4,0.2,0.5,0.4h0.1v-1.6h-0.1c-0.1,0.2-0.1,0.4-0.5,0.4h-3.5
		c-0.4,0-0.4-0.2-0.5-0.4h-0.1v1.6H22.9z M24,41.5c0.1-0.2,0.1-0.3,0.5-0.3h1.4l0,0l-2,1.8v1h0.1c0.1-0.2,0.2-0.3,0.5-0.3h2.4
		c0.3,0,0.4,0.1,0.5,0.3h0.1v-1.2h-0.1c0,0.2-0.2,0.4-0.5,0.4h-2.1l0,0l2.7-2.4v-0.1h-3c-0.2,0-0.4-0.1-0.5-0.3h-0.1L24,41.5
		L24,41.5z M25.3,38.4L25.1,39c-0.1,0.4-0.2,0.5-0.4,0.5s-0.4-0.2-0.4-0.7c0-0.5,0.2-0.9,0.6-1.2l-0.1-0.1l-0.9,0.3V38
		c0.1,0,0.2,0,0.2,0.1c-0.1,0.2-0.2,0.5-0.2,0.8c0,0.7,0.4,1.3,1,1.3c0.5,0,0.9-0.3,1-1l0.1-0.6c0.1-0.4,0.2-0.6,0.5-0.6
		s0.5,0.3,0.5,0.8c0,0.6-0.3,1.1-0.7,1.4l0.1,0.1l1-0.3v-0.2c0,0-0.2-0.1-0.2-0.1c0.2-0.3,0.2-0.6,0.2-0.9c0-0.8-0.4-1.4-1.1-1.4
		S25.4,37.7,25.3,38.4L25.3,38.4z M23.9,37.1l0.9,0.3l0.1-0.1c-0.5-0.4-0.5-0.5-0.5-1c0-0.2,0-0.2,0.2-0.2h2.3
		c0.4,0,0.4,0.1,0.5,0.4h0.1V35h-0.1c-0.1,0.3-0.1,0.4-0.5,0.4h-2.4c-0.2,0-0.2,0-0.2-0.2c0-0.5,0-0.6,0.5-1L24.8,34l-0.9,0.3
		L23.9,37.1z M26.4,31c-0.3,0.1-0.5,0.4-0.6,0.7l0,0c-0.1-0.6-0.4-1-0.9-1c-0.7,0-1,0.5-1,1.4V34H24c0.1-0.2,0.1-0.3,0.5-0.3h2.4
		c0.4,0,0.4,0.1,0.5,0.3h0.1v-1.5h-0.1c-0.1,0.2-0.1,0.4-0.5,0.4h-0.9v-0.4c0-0.4,0.2-0.5,0.8-0.8c0.5-0.2,0.8-0.6,0.8-1.1
		c0-0.2,0-0.4-0.1-0.5h-0.1C27.2,30.5,26.8,30.6,26.4,31z M25.6,32.2v0.6h-0.9c-0.2,0-0.3-0.1-0.3-0.2v-0.4c0-0.4,0.2-0.7,0.6-0.7
		c0.3,0,0.6,0.2,0.7,0.6C25.6,32.1,25.6,32.2,25.6,32.2L25.6,32.2z M24,27.8c0-0.2,0.2-0.4,0.5-0.4c0,0,0,0,0,0h1.8
		c0.6,0,0.8,0.2,0.8,0.9s-0.3,1-0.8,1h-1.8c-0.4,0-0.4-0.1-0.5-0.4h-0.1v1.5h0.1c0-0.2,0.1-0.4,0.5-0.4h1.8c1,0,1.2-0.8,1.2-1.6
		S27.2,27,26.2,27h-1.8c-0.4,0-0.4-0.1-0.5-0.3h-0.1L24,27.8L24,27.8z M26.2,24.1l-2.3,1v1.3H24c0.1-0.2,0.1-0.3,0.5-0.3h2.4
		c0.2,0,0.4,0.1,0.5,0.3h0.1v-1.2h-0.1c-0.1,0.2-0.2,0.3-0.5,0.3h-2.2l2.9-1.3v-0.1L24.6,23h2.2c0.4,0,0.4,0.2,0.5,0.3h0.1v-1.4
		h-0.1c-0.1,0.2-0.1,0.3-0.5,0.3h-2.4c-0.4,0-0.4-0.1-0.5-0.3h-0.1v1.3L26.2,24.1z M27,19.5v0.7c0,0.2,0,0.3-0.2,0.3h-1v-0.9
		c0-0.4,0.1-0.4,0.3-0.5V19h-1v0.1c0.2,0,0.3,0.1,0.3,0.5v0.9h-0.8c-0.2,0-0.2,0-0.2-0.3v-0.6c0-0.4,0.1-0.7,0.4-0.9l-0.1-0.1
		l-0.8,0.3v2.8H24c0.1-0.2,0.1-0.3,0.5-0.3h2.4c0.4,0,0.4,0.1,0.5,0.3h0.1v-2.9l-0.8-0.3l-0.1,0.1C26.9,18.7,27,19,27,19.5L27,19.5z
		 M24,15.8c0.1-0.2,0.1-0.3,0.5-0.3h1.5l0,0l-2,1.8v1h0.1c0.1-0.2,0.2-0.4,0.5-0.4h2.4c0.3,0,0.4,0.1,0.5,0.4h0.1v-1.2h-0.1
		c0,0.2-0.2,0.4-0.5,0.4h-2.1l0,0l2.7-2.3V15h-3c-0.2,0-0.4-0.1-0.5-0.3h-0.1L24,15.8L24,15.8z M23.9,14.3l0.9,0.3l0.1-0.1
		c-0.5-0.4-0.5-0.5-0.5-1c0-0.2,0-0.2,0.2-0.2h2.3c0.4,0,0.4,0.1,0.5,0.4h0.1v-1.5h-0.1c-0.1,0.3-0.1,0.4-0.5,0.4h-2.4
		c-0.2,0-0.2-0.1-0.2-0.2c0-0.5,0-0.6,0.5-1l-0.1-0.1l-0.9,0.3L23.9,14.3z M25.3,9.3l-0.1,0.6c-0.1,0.4-0.2,0.5-0.4,0.5
		s-0.4-0.2-0.4-0.7c0-0.5,0.2-0.9,0.6-1.2l-0.1-0.1l-0.9,0.3v0.2c0.1,0,0.2,0,0.2,0.1c-0.1,0.2-0.2,0.5-0.2,0.8c0,0.7,0.4,1.3,1,1.3
		c0.5,0,0.9-0.3,1-1l0.1-0.6c0.1-0.4,0.2-0.6,0.5-0.6s0.5,0.3,0.5,0.8c0,0.6-0.3,1.1-0.7,1.4l0.1,0.1l1-0.3v-0.2
		c0,0-0.2-0.1-0.2-0.1c0.2-0.3,0.2-0.6,0.2-0.9c0-0.8-0.4-1.4-1.1-1.4S25.4,8.6,25.3,9.3L25.3,9.3z"/>
</g>
</svg>
