<svg id="a1b34f5d-5a40-43eb-a4f4-bcef132880ed" data-name="texte" xmlns="http://www.w3.org/2000/svg" xmlns:xlink="http://www.w3.org/1999/xlink" viewBox="0 0 470.33 67.41"><defs><style>.b3a3b067-167e-4d87-920a-f0bd122b44b1{stroke:#9def48;stroke-miterlimit:10;stroke-width:0.75px;fill:url(#fca7b133-0abb-4b14-b9a6-5f8edf0f381d);}.f9d36622-053b-4739-834b-bd89c3d1b128{fill:#9def48;}</style><linearGradient id="fca7b133-0abb-4b14-b9a6-5f8edf0f381d" x1="0.38" y1="33.7" x2="469.96" y2="33.7" gradientUnits="userSpaceOnUse"><stop offset="0" stop-color="#032c02"/><stop offset="1" stop-color="#207a09"/></linearGradient></defs><polygon class="b3a3b067-167e-4d87-920a-f0bd122b44b1" points="0.38 5.91 102.44 5.91 108.57 0.38 150.31 0.38 158.22 5.91 461.65 6.11 469.96 16 469.96 59.72 50.81 59.72 42.7 67.03 7.89 67.03 0.38 59.72 0.38 5.91"/><path class="f9d36622-053b-4739-834b-bd89c3d1b128" d="M78.8,30.78c0,.56.07,1.14.07,1.74A15.6,15.6,0,0,1,75.26,43H54.56a15.6,15.6,0,0,1-3.62-10.5A15.57,15.57,0,0,1,54.56,22h20.7a14.7,14.7,0,0,1,3.15,6.25H74.66A16.61,16.61,0,0,0,73.4,25.5h-17a14.08,14.08,0,0,0-2,7,14.16,14.16,0,0,0,2,7h17a15.23,15.23,0,0,0,1.87-5.29H62.61V30.78Z" transform="translate(-0.06 -0.03)"/><path class="f9d36622-053b-4739-834b-bd89c3d1b128" d="M103.13,34.25H88.63a14.88,14.88,0,0,0,1.89,5.29h17.26l2,3.48H88.65a15,15,0,0,1-3.55-8.77H81.8V30.78h3.3A15,15,0,0,1,88.65,22h21.13l-2,3.48H90.52a14.77,14.77,0,0,0-1.89,5.28h14.5Z" transform="translate(-0.06 -0.03)"/><path class="f9d36622-053b-4739-834b-bd89c3d1b128" d="M137.6,30.78l1.58,1.74A15.52,15.52,0,0,1,135.56,43H114.87a14.53,14.53,0,0,1-3.15-6.25h3.75a16.24,16.24,0,0,0,1.27,2.77h17a14.79,14.79,0,0,0,1.88-5.29H112.83l-1.58-1.73A15.55,15.55,0,0,1,114.87,22h20.69a14.47,14.47,0,0,1,3.15,6.25H135a15.13,15.13,0,0,0-1.26-2.77h-17a15.16,15.16,0,0,0-1.89,5.28Z" transform="translate(-0.06 -0.03)"/><path class="f9d36622-053b-4739-834b-bd89c3d1b128" d="M156.26,40.05l-3.48,3.48v-18h-11.4V22h26.28V25.5h-11.4Z" transform="translate(-0.06 -0.03)"/><path class="f9d36622-053b-4739-834b-bd89c3d1b128" d="M175.54,43h-3.49V25l3.49-3.49Z" transform="translate(-0.06 -0.03)"/><path class="f9d36622-053b-4739-834b-bd89c3d1b128" d="M204.25,43h-20.7a15.6,15.6,0,0,1-3.62-10.5A15.57,15.57,0,0,1,183.55,22h20.7a15.57,15.57,0,0,1,3.62,10.5A15.6,15.6,0,0,1,204.25,43Zm-1.86-3.48a14.15,14.15,0,0,0,2-7,14.06,14.06,0,0,0-2-7h-17a14,14,0,0,0-2,7,14.08,14.08,0,0,0,2,7Z" transform="translate(-0.06 -0.03)"/><path class="f9d36622-053b-4739-834b-bd89c3d1b128" d="M216.29,25.5a14,14,0,0,0-2,7,14.08,14.08,0,0,0,2,7h2.32V43h-4.19a15.55,15.55,0,0,1-3.62-10.5A15.52,15.52,0,0,1,214.42,22h20.69a15.52,15.52,0,0,1,3.62,10.5A15.55,15.55,0,0,1,235.11,43h-4.18V39.54h2.32a14.16,14.16,0,0,0,2-7,14.08,14.08,0,0,0-2-7Z" transform="translate(-0.06 -0.03)"/></svg>