<svg id="e7688c2b-16d8-4654-9421-8747dfe6be10" data-name="texte" xmlns="http://www.w3.org/2000/svg" xmlns:xlink="http://www.w3.org/1999/xlink" viewBox="0 0 470.33 67.41"><defs><style>.aff852ca-2754-4a20-abac-35caeb4dd479{stroke:#9def48;stroke-miterlimit:10;stroke-width:0.75px;fill:url(#bc9ea26b-f907-47e6-8722-f3c35595e353);}.abf5431d-9b41-44b1-b888-d7e94ffd88f7{fill:#9def48;}</style><linearGradient id="bc9ea26b-f907-47e6-8722-f3c35595e353" x1="0.38" y1="33.7" x2="469.96" y2="33.7" gradientUnits="userSpaceOnUse"><stop offset="0" stop-color="#032c02"/><stop offset="1" stop-color="#207a09"/></linearGradient></defs><polygon class="aff852ca-2754-4a20-abac-35caeb4dd479" points="0.38 5.91 102.44 5.91 108.57 0.38 150.31 0.38 158.22 5.91 461.65 6.11 469.96 16 469.96 59.72 50.81 59.72 42.7 67.03 7.89 67.03 0.38 59.72 0.38 5.91"/><path class="abf5431d-9b41-44b1-b888-d7e94ffd88f7" d="M82.69,30.63l1.84,2a18.12,18.12,0,0,1-4.22,12.25H56.16a17.08,17.08,0,0,1-3.67-7.29h4.38a19,19,0,0,0,1.48,3.23H78.14a17.17,17.17,0,0,0,2.19-6.17H53.79l-1.85-2a18.2,18.2,0,0,1,4.22-12.25H80.31A17.09,17.09,0,0,1,84,27.7H79.61a17.47,17.47,0,0,0-1.47-3.23H58.35a17.35,17.35,0,0,0-2.2,6.16Z" transform="translate(-0.06 -0.03)"/><path class="abf5431d-9b41-44b1-b888-d7e94ffd88f7" d="M116.32,44.91H92.17A18.2,18.2,0,0,1,88,32.66a18.17,18.17,0,0,1,4.22-12.25h24.15a18.12,18.12,0,0,1,4.22,12.25A18.15,18.15,0,0,1,116.32,44.91Zm-2.17-4.06a16.51,16.51,0,0,0,2.32-8.19,16.43,16.43,0,0,0-2.32-8.19H94.36A16.35,16.35,0,0,0,92,32.66a16.44,16.44,0,0,0,2.34,8.19Z" transform="translate(-0.06 -0.03)"/><path class="abf5431d-9b41-44b1-b888-d7e94ffd88f7" d="M128.88,40.85H147.3l2.35,4.06H124.81v-21l4.07-4.07Z" transform="translate(-0.06 -0.03)"/><path class="abf5431d-9b41-44b1-b888-d7e94ffd88f7" d="M161.58,38.09l-4.29,6.82h-5.08l15.57-24.5h4.68l15.45,24.5h-5l-4.24-6.82ZM176.14,34l-6-9.58-6,9.58Z" transform="translate(-0.06 -0.03)"/><path class="abf5431d-9b41-44b1-b888-d7e94ffd88f7" d="M213,40.85h2.71a17.7,17.7,0,0,0,2.19-6.17H193.74a17.53,17.53,0,0,0,2.2,6.17h2.7v4.06h-4.88a17.59,17.59,0,0,1-4.14-10.23h-3.85V30.63h3.85a17.51,17.51,0,0,1,4.14-10.22H217.9A17.51,17.51,0,0,1,222,30.64l-1.76,1v2.05l1.76,1a17.59,17.59,0,0,1-4.14,10.23H213ZM193.74,30.63h24.18a17.51,17.51,0,0,0-2.19-6.16H195.94A17.35,17.35,0,0,0,193.74,30.63Z" transform="translate(-0.06 -0.03)"/><path class="abf5431d-9b41-44b1-b888-d7e94ffd88f7" d="M231.87,40.85h19.79A16.56,16.56,0,0,0,254,32.66a16.61,16.61,0,0,0-2.32-8.19h-2.72V20.41h4.89a18.2,18.2,0,0,1,4.22,12.25,18.17,18.17,0,0,1-4.22,12.25H229.68a18.12,18.12,0,0,1-4.22-12.25,18.15,18.15,0,0,1,4.22-12.25h4.89v4.06h-2.7a16.35,16.35,0,0,0-2.35,8.19A16.3,16.3,0,0,0,231.87,40.85Z" transform="translate(-0.06 -0.03)"/><path class="abf5431d-9b41-44b1-b888-d7e94ffd88f7" d="M292.21,30.63l1.85,2a18.12,18.12,0,0,1-4.23,12.25H265.69A17.09,17.09,0,0,1,262,37.62h4.38a19,19,0,0,0,1.48,3.23h19.79a17,17,0,0,0,2.19-6.17H263.31l-1.84-2a18.15,18.15,0,0,1,4.22-12.25h24.14a17.09,17.09,0,0,1,3.68,7.29h-4.38a17.47,17.47,0,0,0-1.47-3.23H267.87a17.54,17.54,0,0,0-2.2,6.16Z" transform="translate(-0.06 -0.03)"/></svg>