<svg xmlns="http://www.w3.org/2000/svg" xmlns:xlink="http://www.w3.org/1999/xlink" viewBox="0 0 746.51 821.74"><defs><radialGradient id="b5e7e69b-c98d-4025-8fc1-622ee1e6b0bf" cx="100.32" cy="382.53" r="5.66" gradientTransform="matrix(1 0 0 .6 0 153.01)" xlink:href="#e12ba325-cb63-4c74-b7b0-622c278e14a1"/><radialGradient id="f8957c29-6b48-4408-9162-2a68603ed447" cx="225.51" cy="404.67" r="5.66" xlink:href="#bbba8db8-3372-4202-867b-379ae589926e"/><radialGradient id="e12ba325-cb63-4c74-b7b0-622c278e14a1" cx="92.36" cy="393.88" r="5.66" gradientTransform="matrix(1 0 0 .6 0 157.55)" gradientUnits="userSpaceOnUse"><stop offset="0" stop-color="#0000ef"/><stop offset=".15" stop-color="#0000e9"/><stop offset=".34" stop-color="#0101d9"/><stop offset=".56" stop-color="#0101be"/><stop offset=".79" stop-color="#02029a"/><stop offset="1" stop-color="#020282"/></radialGradient><radialGradient id="a2afb1d3-7e39-4a4b-9dde-2474ebe84437" cx="114.61" cy="393.88" r="5.66" xlink:href="#e12ba325-cb63-4c74-b7b0-622c278e14a1"/><radialGradient id="b088b1c3-7428-417f-b59a-98a85f3864fc" cx="133.17" cy="400.04" r="5.66" gradientTransform="matrix(1 0 0 .6 0 160.02)" xlink:href="#e12ba325-cb63-4c74-b7b0-622c278e14a1"/><radialGradient id="aa9954b7-4250-4fe5-bdd0-db7de2c3f890" cx="139.21" cy="387.78" r="5.66" gradientTransform="matrix(1 0 0 .6 0 155.11)" xlink:href="#e12ba325-cb63-4c74-b7b0-622c278e14a1"/><radialGradient id="fe37a7ba-4835-4577-84dd-3c7c13e6cd18" cx="121.61" cy="382.1" r="5.66" gradientTransform="matrix(1 0 0 .6 0 152.84)" xlink:href="#e12ba325-cb63-4c74-b7b0-622c278e14a1"/><radialGradient id="b6b819f5-a5da-42bb-935d-296b8f9ff004" cx="195.83" cy="370.99" r="11.47" xlink:href="#bbba8db8-3372-4202-867b-379ae589926e"/><radialGradient id="bbba8db8-3372-4202-867b-379ae589926e" cx="65.88" cy="348.77" r="11.47" gradientUnits="userSpaceOnUse"><stop offset="0" stop-color="#fd6d66"/><stop offset=".78" stop-color="#b50a03"/></radialGradient><radialGradient id="fed23ec4-83c9-4bb3-9dbb-eae53b6a7715" cx="246.79" cy="404.24" r="5.66" xlink:href="#bbba8db8-3372-4202-867b-379ae589926e"/><radialGradient id="aa144c55-d9dd-4bef-9ba0-1dc6ce322dae" cx="264.4" cy="409.93" r="5.66" xlink:href="#bbba8db8-3372-4202-867b-379ae589926e"/><radialGradient id="e273353e-5b84-47a5-874d-80fce4534c26" cx="258.36" cy="422.19" r="5.66" xlink:href="#bbba8db8-3372-4202-867b-379ae589926e"/><radialGradient id="a455c4d8-37f7-4acd-ae5d-17a240c7f26a" cx="239.79" cy="416.02" r="5.66" xlink:href="#bbba8db8-3372-4202-867b-379ae589926e"/><radialGradient id="ab13906e-bc89-4593-a9f9-72067f42eb2f" cx="217.55" cy="416.02" r="5.66" xlink:href="#bbba8db8-3372-4202-867b-379ae589926e"/><linearGradient id="b0fe943c-ddd4-4c1d-80da-dc2dec968549" x1="222.34" y1="1042.96" x2="222.34" y2="1119.43" xlink:href="#ecc3b6bb-631e-4d18-8eee-f922b1821965"/><linearGradient id="ecc3b6bb-631e-4d18-8eee-f922b1821965" x1="267.78" y1="1042.69" x2="267.78" y2="1119.45" gradientTransform="rotate(8.89 6551.117 110.397)" gradientUnits="userSpaceOnUse"><stop offset="0" stop-color="#009ee0"/><stop offset="1" stop-color="#004289"/></linearGradient><linearGradient id="bab1034b-3e27-46b4-8e9c-872fb11967b7" x1="313.77" y1="1042.43" x2="313.77" y2="1119.47" xlink:href="#ecc3b6bb-631e-4d18-8eee-f922b1821965"/><style>.a299891f-b55e-4675-9a67-0176b98fb934,.a377753c-3bb2-4ec5-b667-6f25740940bc,.acbbc783-a1d3-4694-843a-71d3a3f88038,.eff6506d-ca02-4d73-abed-0cc8023cc655{stroke:#b5b5b5}.a299891f-b55e-4675-9a67-0176b98fb934,.a377753c-3bb2-4ec5-b667-6f25740940bc,.acbbc783-a1d3-4694-843a-71d3a3f88038,.bc9e8667-f029-40c6-8d0e-51c41dc44340,.eb0972d5-7cd5-4aee-858f-1f441bd6867a,.eff6506d-ca02-4d73-abed-0cc8023cc655,.f54714b9-a399-4091-9a6b-91a98e8c6f09{stroke-miterlimit:10}.a299891f-b55e-4675-9a67-0176b98fb934,.a377753c-3bb2-4ec5-b667-6f25740940bc,.acbbc783-a1d3-4694-843a-71d3a3f88038,.eff6506d-ca02-4d73-abed-0cc8023cc655,.f54714b9-a399-4091-9a6b-91a98e8c6f09{stroke-width:.5px}.bc9e8667-f029-40c6-8d0e-51c41dc44340{fill:#443840;stroke:#090000}.f54714b9-a399-4091-9a6b-91a98e8c6f09{stroke:#090000}.bc9e8667-f029-40c6-8d0e-51c41dc44340{stroke-width:.75px}.f54714b9-a399-4091-9a6b-91a98e8c6f09{fill:#6b0c05}.e2c9c22a-eb19-42c6-8446-61b99e58100c{fill:#86382f}.eb0972d5-7cd5-4aee-858f-1f441bd6867a{stroke:#373737}.b84793c3-1eac-4d13-9b60-687b6d91eaa9{fill:#509fec}.f032cc6b-5257-4d65-82b2-4f574f939500{fill:#344d7a}.fb2db1cc-98f3-4a67-b97a-1eb104e626cb{fill:#fff}.acbbc783-a1d3-4694-843a-71d3a3f88038{fill:#dc6e05}.f32a6b3e-05be-4f27-b28a-c7ce0254e357{fill:#ffcb08}.eff6506d-ca02-4d73-abed-0cc8023cc655{fill:#12e600}.a299891f-b55e-4675-9a67-0176b98fb934{fill:#0b47ce}.a377753c-3bb2-4ec5-b667-6f25740940bc,.af42359f-d2d5-4c48-9fc7-2979e2eb5d0d{fill:#282826}.fdbc23a2-9e27-4f0b-a538-fb148ae393f7{fill:#ae7a82}.a771c2fe-3bd6-45da-b1c9-ea1b4024d926{fill:url(#bbba8db8-3372-4202-867b-379ae589926e)}.bffd3aea-868d-4735-b9aa-e8c75b51b84e{fill:url(#b6b819f5-a5da-42bb-935d-296b8f9ff004)}.ec353c5a-1986-4156-a95d-af853358f3dd{fill:#0000ef}.e491dd5d-144a-49ee-a947-8b9e8d2e6292{fill:#930303}.aa9f093e-3834-46af-8acb-d796d6ae835e{fill:#e7e7e7}.a5db94f3-5f8b-46d8-95f3-d0c6c7777469{fill:#2c2b29}.e1347e70-2e18-4c36-a303-1fe2e4556f23{fill:#0c4da1}</style></defs><g id="a9155598-24f9-4df0-8ea0-7910157cea51" data-name="Calque 1"><path id="a242224e-811c-4ab7-8249-0e72e70b1ef2" data-name="ombre" style="opacity:.5;fill:#373735" d="m452.03 588.79 21.51-5.91H485.41l1.58 2.96 237.36 43.3h11.08l11.07 31.39-46.41 37.71-46.42 13.19-8.18-1.32.27-1.85-13.98-2.63-83.6 27.95-73.32 51.57-22.83 6.82-7.77-1.16v-2.63l-16.08-3.03-129.99 34.37 153.84-230.73z"/><g id="e62eaa97-425d-4af6-af7a-237c066d931f" data-name="bottom"><path style="fill:#324d7b" d="m36 454.56 224.9 39.62v4.35l25.72 6.13-.4 311.34-248.24-47.27L36 454.56z"/><path d="m202 526.54-78.38-13.74c-3 .19-4.26 3.56-4.26 3.56l.2 85c.69 2.18 3.86 5 3.86 5l74.27 13.46c5.14.49 7.52-5.25 7.52-5.25v-82.69a7.12 7.12 0 0 0-3.21-5.34zm-49.9 22.55-18.69-3.46v-20l2.27-1.88 18.1 3.07-1.78 2.69zm31.45 6.13-18.69-3.46v-20l2.27-1.87 18.1 3.06-1.78 2.67z" transform="translate(-.98 -.52)" style="stroke-width:.5px;stroke-miterlimit:10;stroke:#b5b5b5;fill:#121211"/><path class="bc9e8667-f029-40c6-8d0e-51c41dc44340" d="m134.7 523.25-2.27 1.88v19.98l18.69 3.46-.1-19.58 1.78-2.67-18.1-3.07zM166.15 529.38l-2.27 1.88v19.98l18.69 3.46-.1-19.58 1.78-2.67-18.1-3.07z"/><path class="f54714b9-a399-4091-9a6b-91a98e8c6f09" d="M140.14 543.03v-12.85l8.01 1.78v12.56l-8.01-1.49zM171.2 548.87v-12.86l8.01 1.78v12.56l-8.01-1.48z"/><path d="M135.23 543.16v-15.23l2.05.4v15.16l-2.05-.33zM166.68 548.7v-15.23l2.04.4v15.16l-2.04-.33z"/><path class="e2c9c22a-eb19-42c6-8446-61b99e58100c" d="M140.4 530.69v-.35l7.47 1.8.01.43-7.48-1.88zM171.46 536.62v-.29l7.47 1.64.01.35-7.48-1.7z"/><circle cx="192.4" cy="574.85" r="4.25" style="fill:#8b8b8b;stroke-width:.75px;stroke:#090000;stroke-miterlimit:10"/><path class="eb0972d5-7cd5-4aee-858f-1f441bd6867a" d="M136.29 598.71v-11.27l11.96 2.18v11.3l-11.96-2.21zM167.54 604.25v-11.27l11.96 2.17v10.88l-11.96-1.78z"/></g><g id="b78c88fd-6668-4239-a1e5-77872ea79f94" data-name="t molding"><path class="b84793c3-1eac-4d13-9b60-687b6d91eaa9" d="m11.46 450.59-.79-39.76L1 407.66v45.1l27.89 5.54c.59 103.55 1 207.6 1.58 311.15a6.18 6.18 0 0 0 3.53 2.19 12.58 12.58 0 0 0 5 0l-2-316.56zM272.36 497v-41.27l-10.28-1.19-.2 44.51 25.71 6.13s-1.51 313.85 0 315.69 8.77 1.32 8.77 1.32l.93-319.91z" transform="translate(-.98 -.52)"/><path class="b84793c3-1eac-4d13-9b60-687b6d91eaa9" d="m78.72 346.42-8.15-1.3 16.26-218.56 9.04 1.5-17.15 218.36zM329.24 388.85l9.1 1.28 18.49-224.31h-26.37l-.26-90.92-10.06-1.84v94.84l6.04 1.09h20.27l-17.21 219.86z"/><path class="b84793c3-1eac-4d13-9b60-687b6d91eaa9" d="M88.49 127.19s-28.17-.35-29.11-.85c0-31.21.06-62.83 0-94l9.36 2.64.48 89.02z" transform="translate(-.98 -.52)"/><g id="f9ba4bae-25ac-411a-b11f-c92f63b121ab" data-name="clair"><path class="b84793c3-1eac-4d13-9b60-687b6d91eaa9" d="m0 407.14 9.69 3.17L78 346.25l-8.11-1.94L0 407.14zM261.1 454.02l10.28 1.19 66.96-65.87-8.62-1.6-68.62 66.28zM111.56 0 58.42 31.78l9.36 2.64L120.36 3.3l2.74-1.62-2.57-.36L111.56 0zM383.74 40.62l-11.21-.8-52.39 33.24 10.06 1.84 53.54-34.28z"/></g></g><g id="aaaf18f2-a0bf-449b-89d4-e8f70a7d1717" data-name="side"><path class="f032cc6b-5257-4d65-82b2-4f574f939500" d="m453.13 308.64.63-159.63-70.02-108.39L330.2 74.9l.26 90.92h26.37l-18.49 224.31-66.96 65.08v41.27l24.93 5.28-.93 319.91 8.25-6.32 149.65-543.7-.21 21.51-142.1 516.55-1.61 1.24 6.94-5.32 136.83-496.99zM324.06 799.15l-7.76 6.48 11.99-9.2 124.7-453.24.05-12.13-128.98 468.09zM335.43 790.95l-1.32 1.02 6.87-5.27 111.79-407.64v21.25l.22-57.12-.22 24-117.34 423.76zM343 785.15l108.58-83.28 1.18-299.85L347.4 781.78l-4.4 3.37z"/><path style="fill:#bf0000;stroke-width:.5px;stroke-miterlimit:10;stroke:#b5b5b5" d="m303.63 815.35 5.73-4.4-5.73 4.4z"/><path class="fb2db1cc-98f3-4a67-b97a-1eb104e626cb" d="m453.07 293.16.21-21.51-149.65 543.7 5.73-4.4 1.61-1.24 142.1-516.55z"/><path class="acbbc783-a1d3-4694-843a-71d3a3f88038" d="M453.13 330.74v-22.1l-.09 22.42.09-.32zM316.3 805.63z"/><path class="f32a6b3e-05be-4f27-b28a-c7ce0254e357" d="m453.04 331.06.09-22.42L316.3 805.63l7.76-6.48 128.98-468.09z"/><path class="eff6506d-ca02-4d73-abed-0cc8023cc655" d="M452.99 343.19zM328.29 796.43l5.82-4.46-5.82 4.46z"/><path class="b84793c3-1eac-4d13-9b60-687b6d91eaa9" d="m334.11 791.97 1.32-1.02 117.34-423.76.22-24-124.7 453.24 5.82-4.46z"/><path class="a299891f-b55e-4675-9a67-0176b98fb934" d="m340.98 786.7 2.02-1.55-2.02 1.55zM452.77 402v-1.69l-.01 1.71.01-.02z"/><path style="fill:#0c4da2" d="m340.98 786.7 2.02-1.55 4.4-3.37 105.36-379.76.01-1.71v-21.25L340.98 786.7z"/></g><g id="f7e314e2-ad28-4a20-b3ec-e6f9f5ee4187" data-name="panel"><path class="a377753c-3bb2-4ec5-b667-6f25740940bc" d="m10.48 450.07 250.42 44.11.2-40.16L9.69 410.31l.79 39.76z"/><path style="fill:#373735" d="m79.37 345.21-69.68 65.1 251.41 43.71 68.62-66.28-250.35-42.53z"/></g><g id="e274a59a-1a9f-4d0e-8ea3-291718954002" data-name="ecran"><path class="a377753c-3bb2-4ec5-b667-6f25740940bc" d="M96.84 129.36 79.7 347.72l250.52 42.43L347.82 168zm224.28 67.76c0 .2-.29.32-.48.49l-10.43 144.83a35.43 35.43 0 0 1-4.3 3.78l1.4.29v10.7s-1.4 4.75-11.08 2.64c-11.19-2.44-178.55-31.91-178.55-31.91l8.72-6.78v-1.39s-2.46.52-6-7l-12.48 2.77h-4l11.34-158.77s4-6.85 10.81-6.59 191.16 30.59 191.16 30.59 6.17 1.07 3.89 16.35z" transform="translate(-.98 -.52)"/><path d="M317.28 180S133 149.66 126.12 149.4s-10.81 6.6-10.81 6.6l-11.74 160.08h4.35l12.29-2.68c-.1-.23-.74-1.57-.85-1.8L131 166.54s2.11-5.54 7.12-7.38l177.49 27.16a20.77 20.77 0 0 1 5.11 9.76l-.05.75c.19-.17.62.66.66.47 3.23-14.06-4.05-17.3-4.05-17.3z" transform="translate(-.98 -.52)" style="fill:#151312"/><path d="m125.32 320-8.56 8s164.63 29.3 178.61 32.24c10.36 2.17 14.43-3.58 14.43-3.58l.61-7.37.39-7.71-4.89 3.84a20.85 20.85 0 0 1-7.73 3.87z" transform="translate(-.98 -.52)" style="fill:#555353"/><path d="M319.5 197.81c.45-.36.83-.69 1.14-1l.66-.52a20.31 20.31 0 0 0-5.72-10l-177.49-27.13c-5 1.84-7.12 7.38-7.12 7.38L119.36 311.6l.32.66c3.54 7.52 6.28 8 6.28 8l.44.08 171.78 28.93a20.85 20.85 0 0 0 7.73-3.87c2.57-1.91 4.89-3.84 4.89-3.84l10.5-145.29c-.44.46-1.05.96-1.8 1.54zM143.83 302.35z" transform="translate(-.98 -.52)" style="fill:#008aa6"/></g><g id="ab54b4c1-7914-4210-825e-214d9fe91dc0" data-name="top"><path id="aa5e82e0-19d8-419c-95bd-cc2dc3653b90" data-name="marquee" class="f32a6b3e-05be-4f27-b28a-c7ce0254e357" d="m68.24 123.5 251.47 39.03.43-89.47L67.78 34.42l.46 89.08z"/><path class="f032cc6b-5257-4d65-82b2-4f574f939500" d="m128.84 2.64-5.74-.96-55.32 32.74 252.36 38.64 52.39-33.24L128.84 2.64z"/></g><g id="aa4f55bd-7f94-4bf4-b529-4ccb902bd27c" data-name="stickp1"><path class="af42359f-d2d5-4c48-9fc7-2979e2eb5d0d" d="M68.92 377.27v5.16H62.4v-5.16c-5.06.64-8.77 2.7-8.77 5.16 0 3 5.38 5.35 12 5.35s12-2.39 12-5.35c.06-2.43-3.63-4.52-8.71-5.16z" transform="translate(-.98 -.52)"/><path class="fdbc23a2-9e27-4f0b-a538-fb148ae393f7" d="M68.92 377.27v-17.78a12.18 12.18 0 0 1-3 .39 12.4 12.4 0 0 1-3.48-.49v17.88a26.67 26.67 0 0 1 6.52 0z" transform="translate(-.98 -.52)"/><path class="fdbc23a2-9e27-4f0b-a538-fb148ae393f7" d="M68.92 382.43v-5.16a26.67 26.67 0 0 0-6.52 0v5.16z" transform="translate(-.98 -.52)"/><path class="a771c2fe-3bd6-45da-b1c9-ea1b4024d926" d="M68.92 358.89v.6a11.24 11.24 0 0 0 8.77-10.72c0-6.14-5.29-11.11-11.81-11.11s-11.82 5-11.82 11.11a11.22 11.22 0 0 0 8.34 10.62v-.5z" transform="translate(-.98 -.52)"/><path class="fdbc23a2-9e27-4f0b-a538-fb148ae393f7" d="M68.92 359.49v-.6H62.4v.5a12.4 12.4 0 0 0 3.48.49 12.18 12.18 0 0 0 3.04-.39z" transform="translate(-.98 -.52)"/><path class="a771c2fe-3bd6-45da-b1c9-ea1b4024d926" d="M68.92 359.49v-.6H62.4v.5a12.4 12.4 0 0 0 3.48.49 12.18 12.18 0 0 0 3.04-.39z" transform="translate(-.98 -.52)"/></g><g id="e21c8d14-173d-4609-bba9-77a9bbfddd32" data-name="stickp2"><path class="af42359f-d2d5-4c48-9fc7-2979e2eb5d0d" d="M198.88 399.49v5.16h-6.53v-5.16c-5 .64-8.77 2.7-8.77 5.16 0 3 5.39 5.35 12 5.35s12-2.39 12-5.35c.07-2.46-3.64-4.52-8.7-5.16z" transform="translate(-.98 -.52)"/><path class="fdbc23a2-9e27-4f0b-a538-fb148ae393f7" d="M198.88 399.49v-17.78a12.2 12.2 0 0 1-3 .39 12.83 12.83 0 0 1-3.48-.49v17.88a26.75 26.75 0 0 1 6.53 0z" transform="translate(-.98 -.52)"/><path class="fdbc23a2-9e27-4f0b-a538-fb148ae393f7" d="M198.88 404.65v-5.16a26.75 26.75 0 0 0-6.53 0v5.16z" transform="translate(-.98 -.52)"/><path class="bffd3aea-868d-4735-b9aa-e8c75b51b84e" d="M198.88 381.11v.6a11.24 11.24 0 0 0 8.77-10.71c0-6.14-5.29-11.11-11.82-11.11S184 364.85 184 371a11.22 11.22 0 0 0 8.34 10.62v-.5z" transform="translate(-.98 -.52)"/><path class="fdbc23a2-9e27-4f0b-a538-fb148ae393f7" d="M198.88 381.71v-.6h-6.53v.5a12.83 12.83 0 0 0 3.48.49 12.2 12.2 0 0 0 3.05-.39z" transform="translate(-.98 -.52)"/><path class="bffd3aea-868d-4735-b9aa-e8c75b51b84e" d="M198.88 381.71v-.6h-6.53v.5a12.83 12.83 0 0 0 3.48.49 12.2 12.2 0 0 0 3.05-.39z" transform="translate(-.98 -.52)"/></g><g id="b142e598-4d9c-41a8-aace-05bc49e445ad" data-name="boutons P1"><g id="e4e87bda-6bbd-46a8-b80f-a66d615b240c" data-name="4"><path class="ec353c5a-1986-4156-a95d-af853358f3dd" d="M92.54 389.14c-3.86 0-8.12 1.53-8.12 4.87 0 2.95 4.1 4.62 7.94 4.62 4.11 0 8-1.73 8-4.88-.04-2.35-3.88-4.61-7.82-4.61zm-.18 8.63c-3.86 0-7-1.74-7-3.89s3.13-3.89 7-3.89 7 1.74 7 3.89-3.14 3.89-7 3.89z" transform="translate(-.98 -.52)"/><path d="M92.36 390c-3.86 0-7 1.74-7 3.89s3.13 3.89 7 3.89 7-1.74 7-3.89-3.14-3.89-7-3.89z" transform="translate(-.98 -.52)" style="fill:url(#e12ba325-cb63-4c74-b7b0-622c278e14a1)"/></g><g id="b3d70ff6-c919-47d4-94ee-d80266da095f" data-name="5"><path class="ec353c5a-1986-4156-a95d-af853358f3dd" d="M114.79 389.14c-3.86 0-8.12 1.53-8.12 4.87 0 2.95 4.1 4.62 7.94 4.62 4.11 0 8-1.73 8-4.88-.04-2.35-3.88-4.61-7.82-4.61zm-.18 8.63c-3.86 0-7-1.74-7-3.89s3.13-3.89 7-3.89 7 1.74 7 3.89-3.14 3.89-7 3.89z" transform="translate(-.98 -.52)"/><path d="M114.61 390c-3.86 0-7 1.74-7 3.89s3.13 3.89 7 3.89 7-1.74 7-3.89-3.14-3.89-7-3.89z" transform="translate(-.98 -.52)" style="fill:url(#a2afb1d3-7e39-4a4b-9dde-2474ebe84437)"/></g><g id="b8d90b16-106c-459a-bb47-a081fdd7de91" data-name="6"><path class="ec353c5a-1986-4156-a95d-af853358f3dd" d="M133.35 395.3c-3.86 0-8.13 1.53-8.13 4.87 0 3 4.11 4.62 7.95 4.62 4.1 0 8-1.73 8-4.88-.04-2.35-3.88-4.61-7.82-4.61zm-.18 8.63c-3.86 0-7-1.74-7-3.89s3.13-3.89 7-3.89 7 1.74 7 3.89-3.17 3.89-7 3.89z" transform="translate(-.98 -.52)"/><path d="M133.17 396.15c-3.86 0-7 1.74-7 3.89s3.13 3.89 7 3.89 7-1.74 7-3.89-3.17-3.89-7-3.89z" transform="translate(-.98 -.52)" style="fill:url(#b088b1c3-7428-417f-b59a-98a85f3864fc)"/></g><g id="b71b2a01-2c37-40bc-8f3b-9e9260dac866" data-name="3"><path class="ec353c5a-1986-4156-a95d-af853358f3dd" d="M139.39 383c-3.86 0-8.13 1.53-8.13 4.88 0 2.95 4.11 4.61 8 4.61 4.1 0 8-1.73 8-4.88-.09-2.31-3.93-4.61-7.87-4.61zm-.18 8.63c-3.86 0-7-1.74-7-3.89s3.13-3.89 7-3.89 7 1.75 7 3.89-3.14 3.93-7 3.93z" transform="translate(-.98 -.52)"/><path d="M139.21 383.89c-3.86 0-7 1.75-7 3.89s3.13 3.89 7 3.89 7-1.74 7-3.89-3.14-3.89-7-3.89z" transform="translate(-.98 -.52)" style="fill:url(#aa9954b7-4250-4fe5-bdd0-db7de2c3f890)"/></g><g id="b3eb166b-2f0d-4f39-993f-b6b98d1d2007" data-name="2"><path class="ec353c5a-1986-4156-a95d-af853358f3dd" d="M121.79 377.35c-3.86 0-8.12 1.53-8.12 4.88 0 2.95 4.1 4.61 7.94 4.61 4.11 0 8-1.73 8-4.88-.04-2.34-3.88-4.61-7.82-4.61zm-.18 8.64c-3.86 0-7-1.74-7-3.89s3.13-3.89 7-3.89 7 1.74 7 3.89-3.14 3.9-7 3.9z" transform="translate(-.98 -.52)"/><path d="M121.61 378.21c-3.86 0-7 1.74-7 3.89s3.13 3.89 7 3.89 7-1.74 7-3.89-3.14-3.89-7-3.89z" transform="translate(-.98 -.52)" style="fill:url(#fe37a7ba-4835-4577-84dd-3c7c13e6cd18)"/></g><g id="a83a40b4-f304-4f42-886e-52377272f0a1" data-name="1"><path class="ec353c5a-1986-4156-a95d-af853358f3dd" d="M100.5 377.78c-3.86 0-8.13 1.53-8.13 4.88 0 2.95 4.11 4.62 7.95 4.62 4.1 0 8-1.73 8-4.88-.04-2.35-3.88-4.62-7.82-4.62zm-.18 8.64c-3.86 0-7-1.74-7-3.89s3.13-3.89 7-3.89 7 1.74 7 3.89-3.14 3.89-7 3.89z" transform="translate(-.98 -.52)"/><path d="M100.32 378.64c-3.86 0-7 1.74-7 3.89s3.13 3.89 7 3.89 7-1.74 7-3.89-3.14-3.89-7-3.89z" transform="translate(-.98 -.52)" style="fill:url(#b5e7e69b-c98d-4025-8fc1-622ee1e6b0bf)"/></g></g><g id="a5fe013c-52af-436c-a1d9-2ba131ac1027" data-name="boutons P2"><g id="fca0f9b2-1643-489d-81f0-e1fe89235fdf" data-name="1"><path class="e491dd5d-144a-49ee-a947-8b9e8d2e6292" d="M225.69 399.93c-3.86 0-8.13 1.53-8.13 4.87 0 2.95 4.11 4.62 7.95 4.62 4.1 0 8-1.73 8-4.88-.04-2.35-3.88-4.61-7.82-4.61zm-.18 8.63c-3.86 0-7-1.74-7-3.89s3.13-3.89 7-3.89 7 1.74 7 3.89-3.14 3.89-7 3.89z" transform="translate(-.98 -.52)"/><path d="M225.51 400.78c-3.86 0-7 1.74-7 3.89s3.13 3.89 7 3.89 7-1.74 7-3.89-3.14-3.89-7-3.89z" transform="translate(-.98 -.52)" style="fill:url(#f8957c29-6b48-4408-9162-2a68603ed447)"/></g><g id="b95e1d4c-5f27-46ce-b09a-2da1d6668b42" data-name="2"><path class="e491dd5d-144a-49ee-a947-8b9e8d2e6292" d="M247 399.49c-3.86 0-8.13 1.54-8.13 4.88 0 2.95 4.11 4.62 7.95 4.62 4.1 0 8-1.73 8-4.88-.07-2.35-3.91-4.62-7.82-4.62zm-.18 8.64c-3.86 0-7-1.74-7-3.89s3.13-3.89 7-3.89 7 1.74 7 3.89-3.17 3.89-7.03 3.89z" transform="translate(-.98 -.52)"/><path d="M246.79 400.35c-3.86 0-7 1.74-7 3.89s3.13 3.89 7 3.89 7-1.74 7-3.89-3.14-3.89-7-3.89z" transform="translate(-.98 -.52)" style="fill:url(#fed23ec4-83c9-4bb3-9dbb-eae53b6a7715)"/></g><g id="b0de3685-0bf3-4cd7-bfad-288d9cf09dad" data-name="3"><path class="e491dd5d-144a-49ee-a947-8b9e8d2e6292" d="M264.58 405.18c-3.86 0-8.12 1.53-8.12 4.88 0 2.95 4.1 4.61 7.94 4.61 4.1 0 8-1.73 8-4.88-.04-2.35-3.88-4.61-7.82-4.61zm-.18 8.64c-3.86 0-7-1.75-7-3.89s3.13-3.89 7-3.89 7 1.74 7 3.89-3.14 3.89-7 3.89z" transform="translate(-.98 -.52)"/><path d="M264.4 406c-3.86 0-7 1.74-7 3.89s3.13 3.89 7 3.89 7-1.75 7-3.89-3.14-3.89-7-3.89z" transform="translate(-.98 -.52)" style="fill:url(#aa144c55-d9dd-4bef-9ba0-1dc6ce322dae)"/></g><g id="bdcd14d7-55c3-4913-92bf-55c1e0c0207b" data-name="4"><path class="e491dd5d-144a-49ee-a947-8b9e8d2e6292" d="M258.54 417.44c-3.86 0-8.13 1.53-8.13 4.88 0 2.95 4.11 4.61 8 4.61 4.1 0 8-1.73 8-4.88-.09-2.35-3.93-4.61-7.87-4.61zm-.18 8.64c-3.86 0-7-1.75-7-3.89s3.13-3.89 7-3.89 7 1.74 7 3.89-3.14 3.89-7 3.89z" transform="translate(-.98 -.52)"/><path d="M258.36 418.3c-3.86 0-7 1.74-7 3.89s3.13 3.89 7 3.89 7-1.75 7-3.89-3.14-3.89-7-3.89z" transform="translate(-.98 -.52)" style="fill:url(#e273353e-5b84-47a5-874d-80fce4534c26)"/></g><g id="b7453f5c-dfe5-42f9-98a0-30ac89151e97" data-name="5"><path class="e491dd5d-144a-49ee-a947-8b9e8d2e6292" d="M240 411.28c-3.86 0-8.13 1.53-8.13 4.88 0 2.95 4.11 4.61 7.95 4.61 4.1 0 8-1.73 8-4.88-.07-2.35-3.91-4.61-7.82-4.61zm-.18 8.63c-3.86 0-7-1.74-7-3.89s3.13-3.89 7-3.89 7 1.75 7 3.89-3.17 3.89-7.03 3.89z" transform="translate(-.98 -.52)"/><path d="M239.79 412.13c-3.86 0-7 1.75-7 3.89s3.13 3.89 7 3.89 7-1.74 7-3.89-3.14-3.89-7-3.89z" transform="translate(-.98 -.52)" style="fill:url(#a455c4d8-37f7-4acd-ae5d-17a240c7f26a)"/></g><g id="a332a19a-4a37-41b4-b982-0f071b2453e1" data-name="6"><path class="e491dd5d-144a-49ee-a947-8b9e8d2e6292" d="M217.73 411.28c-3.86 0-8.13 1.53-8.13 4.88 0 2.95 4.11 4.61 8 4.61 4.1 0 8-1.73 8-4.88-.09-2.35-3.93-4.61-7.87-4.61zm-.18 8.63c-3.86 0-7-1.74-7-3.89s3.13-3.89 7-3.89 7 1.75 7 3.89-3.14 3.89-7 3.89z" transform="translate(-.98 -.52)"/><path d="M217.55 412.13c-3.86 0-7 1.75-7 3.89s3.13 3.89 7 3.89 7-1.74 7-3.89-3.14-3.89-7-3.89z" transform="translate(-.98 -.52)" style="fill:url(#ab13906e-bc89-4593-a9f9-72067f42eb2f)"/></g></g><path class="aa9f093e-3834-46af-8acb-d796d6ae835e" d="M228.57 237.19v.07l-5.92-1v-.08zM236.56 238.53a.13.13 0 0 0 0 .06l-5.72-1v-.06z" transform="translate(-.98 -.52)"/><path class="a5db94f3-5f8b-46d8-95f3-d0c6c7777469" d="m210.17 273.38-65.56-11c-.87-.14-.87-.14-.74-.92.25-1.54.47-3.08.75-4.61.78-4.31 1.48-8.63 2.22-12.95.09-.48.22-1 .29-1.44 0-.18.12-.23.31-.19l.75.13 119.31 19.98a16.13 16.13 0 0 1 4.69 1.42 11.54 11.54 0 0 1 5.67 5.9 8.36 8.36 0 0 1 .63 3.88c0 .38-.08.76-.15 1.14l-1.56 9.36c-.07.39-.13.42-.54.36l-40.11-6.72zm14.68-7.7c-.4 2.35-.79 4.71-1.19 7.07 0 .23 0 .34.3.38 1 .15 1.95.32 2.93.49.51.09.51.09.59-.37q.69-4.22 1.4-8.43c0-.08 0-.21.12-.22s.13.1.17.17c1.69 3.14 3.43 6.26 5.06 9.42a2.38 2.38 0 0 0 3.55.6c.9-.94 1.91-1.79 2.87-2.68l4.89-4.53c.08-.07.15-.22.26-.17s0 .2 0 .31v.12c-.47 2.79-.93 5.58-1.4 8.37 0 .25 0 .35.31.4 1 .16 2 .32 3.06.51.34.07.45 0 .49-.32l2.32-13.83a1.32 1.32 0 0 0-.25-1 2.34 2.34 0 0 0-3.26-.37l-2.16 2-8.12 7.4c-.25.23-.28.22-.45-.08-2.2-4.06-4.42-8.11-6.61-12.17a2.14 2.14 0 0 0-1.43-1.06A1.74 1.74 0 0 0 226 259zm-4.51-.71c.38-2.31.76-4.61 1.16-6.92a1.32 1.32 0 0 0-.45-1.21 2.4 2.4 0 0 0-3.17 0c-2.39 2.24-4.82 4.43-7.24 6.63l-2.95 2.7c-.13.12-.23.25-.37 0l-3.44-6.31c-1.1-2-2.19-4-3.3-6a2.24 2.24 0 0 0-2.21-1 1.52 1.52 0 0 0-1.5 1.37q-1.16 6.86-2.3 13.71c0 .28.05.37.35.41 1 .15 2 .32 3 .5.44.07.45.08.51-.3.46-2.73.91-5.46 1.37-8.19 0-.13 0-.27.06-.4s0-.16.11-.17.1.08.13.14.18.34.28.51c1.63 3 3.29 6 4.88 9.07a2.34 2.34 0 0 0 3.35.6c.47-.47 1-.91 1.48-1.37l6.5-6c.06-.05.09-.14.19-.11s.07.14.06.22c-.14.81-.28 1.62-.41 2.44-.35 2.06-.69 4.13-1 6.2 0 .22 0 .32.29.36l3 .5c.44.07.45.07.52-.31q.51-3.6 1.1-7.04zm33.15 5.67c-.38 2.28-.76 4.57-1.15 6.85-.06.31.06.41.38.45 1 .16 2 .32 3 .5.33.07.45 0 .5-.31.16-1 .35-2.08.51-3.12 0-.23.12-.33.4-.28l12.77 2.14c.33.05.39.18.34.45-.18 1-.34 2.08-.53 3.12-.05.25 0 .35.32.4 1 .15 2 .32 3 .49.45.07.46.07.53-.34l1.22-7.32a6.88 6.88 0 0 0-2.51-6.52 12.61 12.61 0 0 0-6.36-3c-2.38-.41-4.76-.8-7.13-1.19-.72-.12-1.45-.26-2.17-.35a1.6 1.6 0 0 0-1.91 1.29c-.46 2.27-.83 4.5-1.21 6.74zm-62.24-10.42 1.14-6.79a1.24 1.24 0 0 0 0-.47 1.91 1.91 0 0 0-1.63-1.33c-1.55-.26-3.1-.53-4.65-.77-1.84-.3-3.66-.71-5.51-.87a11.55 11.55 0 0 0-7 1.39 6.55 6.55 0 0 0-3.37 4.67q-.63 3.74-1.25 7.47c-.07.4-.07.4.36.47 1 .17 2 .32 2.93.5.33.06.45 0 .5-.31.15-1 .34-2.06.5-3.09 0-.29.17-.35.48-.3l12.67 2.12c.34 0 .42.16.37.46-.19 1-.35 2.08-.54 3.11 0 .26 0 .36.32.4 1 .16 2 .32 3 .51.33.06.44 0 .49-.32.42-2.28.81-4.57 1.19-6.85zm-38.3 1 6.47 1.08a7.76 7.76 0 0 0 2.76 0 3.93 3.93 0 0 0 3.34-2.92c.64-3.78 1.26-7.55 1.9-11.33.05-.27 0-.37-.33-.42-1-.15-2-.32-3-.5-.36-.07-.46 0-.51.33q-.92 5.58-1.86 11.15a1.08 1.08 0 0 1-1.24.95 4.41 4.41 0 0 1-.73-.08c-1-.18-2-.37-3.06-.54l-7-1.15c-.28-.05-.35-.15-.31-.38.11-.59.19-1.18.31-1.76.06-.28 0-.4-.35-.45-.84-.13-1.68-.26-2.52-.42-.34-.07-.44 0-.49.32-.24 1.49-.49 3-.74 4.45-.07.42-.07.42.42.5zM230.83 237.63l5.72 1c.15.09.15.2.13.35-.37 2.17-.73 4.34-1.11 6.51 0 .29 0 .38.34.43 3.09.5 6.18 1 9.27 1.54.32.05.34.16.31.44-.06.67-.23 1.33-.32 2-.22 1.55-.54 3.09-.8 4.63-.1.59-.17 1.19-.26 1.78 0 .2-.12.31-.4.26L228.57 254c-.65-.11-.65-.11-.56-.68q1.29-7.69 2.57-15.38c.02-.15.02-.31.25-.31zm3.94 12.7c-.13.78-.25 1.56-.39 2.34-.05.27 0 .38.33.43 1.06.16 2.11.34 3.16.53.32.06.44 0 .49-.31.25-1.55.51-3.1.78-4.66 0-.24 0-.34-.31-.38q-1.62-.25-3.24-.54c-.28-.05-.39 0-.43.27-.16.78-.26 1.55-.39 2.32zM255.63 249.17c2.55.43 5.09.86 7.64 1.27.34.06.42.17.37.47q-.7 4.14-1.39 8.3c-.07.37-.1.4-.52.33L246.38 257c-.27-.05-.34-.16-.3-.39q.72-4.21 1.41-8.43c0-.28.18-.33.47-.28 2.55.44 5.11.86 7.67 1.29zm1.31 4.88c.14-.8.27-1.6.41-2.4 0-.23 0-.36-.3-.4l-3.44-.58c-.26 0-.38 0-.42.27l-.81 4.85c0 .25.05.36.33.41l3.37.56c.3.06.42 0 .46-.3.13-.8.27-1.6.4-2.41zM173.53 244.78l-7.64-1.27c-.31 0-.37-.15-.33-.42q.72-4.2 1.42-8.42c0-.25.13-.32.4-.27l15.36 2.6c.41.07.43.11.37.49-.26 1.55-.53 3.11-.78 4.66 0 .31-.17.37-.5.32-3.07-.53-6.15-1-9.22-1.55-.46-.08-.46-.08-.52.32s-.11.7-.19 1 0 .35.31.4c2.06.33 4.11.68 6.17 1l3.16.53c.32.05.42.17.37.44s-.14.74-.19 1.11-.18.38-.51.32zm.92-5.45c.56.1 1.13.18 1.69.29.25 0 .35 0 .38-.25 0-.39.12-.78.2-1.17 0-.21 0-.32-.26-.36l-3.41-.57c-.22 0-.33 0-.36.23q-.08.62-.18 1.23c0 .23.06.3.29.33.55.07 1.1.17 1.65.27zM211.28 241.75l7.64 1.28c.44.07.5.14.42.52-.43 2-.7 4-1.05 6-.14.74-.27 1.48-.37 2.23 0 .29-.15.37-.49.31-2.08-.36-4.17-.7-6.26-1l-9-1.51c-.42-.07-.43-.08-.37-.47.26-1.56.53-3.11.77-4.67 0-.32.18-.37.52-.31l9.16 1.54c.46.07.46.07.53-.33s.09-.67.17-1 0-.4-.36-.46c-2.34-.37-4.68-.77-7-1.16l-2.31-.38c-.24 0-.32-.12-.28-.34a10.85 10.85 0 0 0 .21-1.27c0-.27.16-.31.43-.26l5.37.9 2.27.38zm-1.15 7.25c.55.09 1.11.17 1.66.27.21 0 .33 0 .36-.21l.21-1.23c0-.19-.05-.29-.27-.33l-3.33-.56c-.24 0-.35 0-.38.24 0 .4-.11.79-.19 1.17-.05.23.05.33.29.37.52.07 1.1.17 1.65.28zM268.74 251.36c.87.15 1.74.31 2.62.44.31 0 .38.18.34.43-.08.4-.13.8-.21 1.2 0 .21 0 .3.27.34l3.36.56c.28 0 .38 0 .41-.27.06-.41.15-.82.2-1.23 0-.23.15-.27.37-.24l5.4.91c.21 0 .3.13.27.33-.08.43-.16.86-.22 1.29 0 .23-.16.29-.41.25-.44-.09-.89-.15-1.34-.24-.24 0-.33 0-.36.24-.05.4-.13.8-.19 1.2 0 .23-.15.3-.4.25-.47-.08-.94-.15-1.41-.24-.17 0-.24 0-.29.17-.13.44-.08.91-.25 1.34-.07.18.07.24.24.27l1.38.22c.28 0 .38.15.33.41s-.13.78-.21 1.17c0 .21.05.31.28.34l1.34.22c.25 0 .34.13.3.36-.09.42-.17.84-.22 1.27 0 .22-.15.27-.36.24l-.65-.11-4.62-.77c-.45-.08-.45-.08-.38-.49s.12-.76.19-1.14c.05-.21 0-.3-.27-.34l-3.44-.58c-.22 0-.29 0-.31.21-.06.4-.16.8-.19 1.21s-.19.37-.5.32l-4.72-.8c-1.16-.19-.93-.1-.8-1 0-.25.09-.49.12-.74s.16-.29.4-.25c.45.09.9.15 1.34.24.27.05.39 0 .42-.26s.14-.78.19-1.17.16-.31.41-.26c.46.09.92.15 1.37.24.21 0 .3 0 .32-.2.06-.43.13-.85.22-1.27 0-.21-.05-.28-.26-.31l-1.38-.23c-.24 0-.34-.12-.29-.36s.14-.78.21-1.17c0-.23 0-.35-.31-.38-.45-.06-.9-.15-1.35-.22-.25 0-.34-.14-.29-.37q.12-.63.21-1.26c0-.24.16-.29.4-.24zM222.64 236.28l5.92 1a.42.42 0 0 1 .05.36q-1.31 7.77-2.6 15.56c0 .28-.17.37-.48.31s-.88-.19-1.33-.26l-3.89-.62c-.46-.08-.45-.08-.39-.49q1.31-7.74 2.6-15.49c.02-.14 0-.28.12-.37zM191.71 247.82l-7.71-1.28c-.3 0-.4-.14-.35-.43q.72-4.2 1.41-8.4c0-.26.15-.32.42-.27l15.39 2.56c.31.05.42.18.36.45s-.11.72-.19 1.08-.13.41-.55.34l-4.16-.7-5.06-.85c-.28 0-.37 0-.41.25-.22 1.39-.46 2.78-.69 4.17a2.74 2.74 0 0 1 0 .28c-.11.6-.11.6.58.72l8.92 1.49c.42.07.45.11.39.5s-.15.72-.18 1.08-.19.35-.48.3c-.56-.11-1.12-.2-1.68-.29z" transform="translate(-.98 -.52)"/><path d="M291.07 282.1c-.25 1.47-.49 2.94-.74 4.41-.07.42-.07.42-.51.34l-4.27-.71c-.27 0-.37-.13-.3-.37s.07-.41.11-.62-.06-.27-.25-.29l-.49-.05c-.39-.06-.49 0-.51.37v.19c0 .43-.14.5-.63.42-1.39-.23-2.79-.47-4.19-.69-.32-.05-.4-.19-.36-.45.5-3 1-5.91 1.49-8.86.06-.36.14-.42.55-.33 2.95.58 5.92 1 8.87 1.52.52.09 1 .13 1.55.22s.47.1.4.52c-.24 1.46-.49 2.92-.73 4.38zm-8.37-.17 1.58.27c.22 0 .32 0 .35-.22.1-.59.2-1.19.31-1.79 0-.21-.06-.3-.29-.34l-3.13-.52c-.21 0-.31 0-.35.22-.08.59-.18 1.19-.29 1.79 0 .21 0 .31.27.34zm5.47-1.49c-.52-.08-1-.16-1.55-.26-.25-.05-.36 0-.39.24-.09.59-.19 1.19-.29 1.78-.05.23.05.29.28.33 1 .16 2 .33 3 .51.28.05.39 0 .43-.27.08-.56.17-1.13.28-1.69 0-.23 0-.35-.3-.39-.48-.08-.97-.17-1.46-.25z" transform="translate(-.98 -.52)" style="fill:#2785db"/><path d="M292.87 271.31c-.25 1.48-.5 3-.74 4.44-.07.38-.11.4-.52.34l-2.86-.48c-.41-.07-.49-.18-.43-.54.14-.85.28-1.71.43-2.56a.34.34 0 0 1 0-.1c.2-.63.12-.52.72-.43l1.48.25c.26 0 .4 0 .44-.25.09-.59.19-1.18.29-1.76 0-.21 0-.33-.3-.38l-8-1.34c-.26 0-.39.05-.42.28-.09.57-.19 1.14-.28 1.7 0 .23.05.36.31.41l3.06.52a.25.25 0 0 0 .33-.17 1.81 1.81 0 0 0 .12-.64c0-.19.11-.24.27-.29a.45.45 0 0 1 .2 0c.85.09.89.14.77.88-.21 1.26-.43 2.51-.63 3.77 0 .26-.17.34-.43.3l-5.43-.91c-.49-.08-.55-.15-.48-.58.49-3 1-5.91 1.48-8.87 0-.17.09-.23.28-.22s.55 0 .83.08l9.77 1.63c.55.09.55.1.47.6l-.72 4.32z" transform="translate(-.98 -.52)" style="fill:#44c047"/><path d="M289.84 254.78c1.75.29 3.49.59 5.24.87.3 0 .4.13.35.42-.51 3-1 5.95-1.49 8.92-.05.3-.16.38-.49.32-1.4-.25-2.8-.48-4.2-.71-.36-.06-.42-.15-.36-.47 0-.12.06-.23.08-.34.08-.47.08-.47-.46-.56h-.21c-.5-.08-.51-.08-.54.39 0 .18-.1.34-.11.52s-.18.19-.35.16l-4.44-.74c-.23 0-.32-.15-.29-.35.17-1 .35-2 .51-3.06 0-.28.23-.27.45-.23l1.83.3c.8.15 1.61.24 2.4.44.25.06.44 0 .48-.27.07-.57.17-1.14.28-1.7.05-.27 0-.38-.34-.43-1.42-.22-2.83-.47-4.24-.7-.29 0-.4-.12-.35-.4.18-1 .33-2 .48-3 0-.26.15-.33.44-.28 1.77.31 3.55.6 5.33.9zm1.49 6.43c.51.08 1 .16 1.54.26.22 0 .35 0 .39-.21.09-.61.19-1.22.3-1.82 0-.2 0-.32-.27-.35l-3.09-.52c-.22 0-.32 0-.35.21-.09.63-.2 1.25-.31 1.88 0 .18 0 .26.24.29z" transform="translate(-.98 -.52)" style="fill:#eb1416"/><path class="a5db94f3-5f8b-46d8-95f3-d0c6c7777469" d="m156.94 232.66 7.54 1.26c.53.09.53.09.45.57s-.13.7-.17 1-.16.33-.44.28l-9.3-1.57c-.33-.05-.41 0-.45.3-.35 2.17-.72 4.33-1.07 6.49-.05.31-.2.36-.51.31l-5.19-.87c-.3 0-.4-.14-.35-.42q.72-4.19 1.4-8.39c.05-.31.19-.34.48-.29z" transform="translate(-.98 -.52)"/><path class="aa9f093e-3834-46af-8acb-d796d6ae835e" d="M224.85 265.68 226 259a1.74 1.74 0 0 1 2.34-1.33 2.14 2.14 0 0 1 1.43 1.06c2.19 4.06 4.41 8.11 6.61 12.17.17.3.2.31.45.08l8.14-7.43 2.16-2a2.34 2.34 0 0 1 3.26.37 1.32 1.32 0 0 1 .25 1q-1.17 6.91-2.32 13.83c0 .29-.15.39-.49.32-1-.19-2-.35-3.06-.51-.3-.05-.36-.15-.31-.4.47-2.79.93-5.58 1.4-8.37v-.12c0-.04.11-.25 0-.31s-.18.1-.26.17l-4.89 4.53c-1 .89-2 1.74-2.87 2.68a2.38 2.38 0 0 1-3.55-.6c-1.63-3.16-3.37-6.28-5.06-9.42 0-.07-.06-.19-.17-.17s-.11.14-.12.22l-1.4 8.43c-.08.46-.08.46-.59.37-1-.17-1.95-.34-2.93-.49-.28 0-.34-.15-.3-.38.4-2.36.79-4.72 1.19-7.07zM220.34 265q-.59 3.46-1.16 6.95c-.07.38-.08.38-.52.31l-3-.5c-.27 0-.32-.14-.29-.36.36-2.07.7-4.14 1-6.2.13-.82.27-1.63.41-2.44 0-.08.06-.18-.06-.22s-.13.06-.19.11l-6.5 6c-.5.46-1 .9-1.48 1.37a2.34 2.34 0 0 1-3.35-.6c-1.59-3-3.25-6.05-4.88-9.07-.1-.17-.19-.34-.28-.51s-.05-.14-.13-.14-.1.1-.11.17 0 .27-.06.4c-.46 2.73-.91 5.46-1.37 8.19-.06.38-.07.37-.51.3-1-.18-2-.35-3-.5-.3 0-.4-.13-.35-.41q1.16-6.86 2.3-13.71a1.52 1.52 0 0 1 1.5-1.37 2.24 2.24 0 0 1 2.21 1c1.11 2 2.2 4 3.3 6l3.44 6.31c.14.27.24.14.37 0l2.95-2.7c2.42-2.2 4.85-4.39 7.24-6.63a2.4 2.4 0 0 1 3.17 0 1.32 1.32 0 0 1 .45 1.21c-.4 2.31-.78 4.61-1.16 6.92zM253.49 270.64c.38-2.24.75-4.47 1.13-6.7a1.6 1.6 0 0 1 1.91-1.29c.72.09 1.45.23 2.17.35 2.37.39 4.75.78 7.13 1.19a12.61 12.61 0 0 1 6.36 3 6.88 6.88 0 0 1 2.51 6.52q-.6 3.66-1.22 7.32c-.07.41-.08.41-.53.34-1-.17-2-.34-3-.49-.29 0-.37-.15-.32-.4.19-1 .35-2.08.53-3.12.05-.27 0-.4-.34-.45l-12.77-2.14c-.28-.05-.36 0-.4.28-.16 1-.35 2.08-.51 3.12-.05.3-.17.38-.5.31-1-.18-2-.34-3-.5-.32 0-.44-.14-.38-.45.39-2.28.77-4.57 1.15-6.85zM264 273l6.37 1.07c.3 0 .43 0 .46-.28s.08-.52.12-.78a4.27 4.27 0 0 0-1.54-4.2 8.48 8.48 0 0 0-4-1.85c-2.25-.43-4.52-.78-6.77-1.17-.34-.06-.36.12-.4.33q-.44 2.69-.9 5.37c0 .29 0 .4.36.46zM191.25 260.22c-.38 2.28-.77 4.57-1.14 6.85-.05.3-.16.38-.49.32-1-.19-2-.35-3-.51-.29 0-.36-.14-.32-.4.19-1 .35-2.08.54-3.11.05-.3 0-.41-.37-.46l-12.67-2.12c-.31-.05-.44 0-.48.3-.16 1-.35 2.05-.5 3.09 0 .3-.17.37-.5.31-1-.18-1.95-.33-2.93-.5-.43-.07-.43-.07-.36-.47q.62-3.74 1.25-7.47a6.55 6.55 0 0 1 3.37-4.67 11.55 11.55 0 0 1 7-1.39c1.85.16 3.67.57 5.51.87 1.55.24 3.1.51 4.65.77a1.91 1.91 0 0 1 1.59 1.37 1.24 1.24 0 0 1 0 .47l-1.14 6.79zm-10.67-1.14c2.11.35 4.22.7 6.33 1.07.32.05.44 0 .48-.29.3-1.81.6-3.63.91-5.44 0-.26 0-.37-.33-.42q-3-.48-6-1a11.11 11.11 0 0 0-3.77 0 4.85 4.85 0 0 0-3.81 2.54 7.49 7.49 0 0 0-.52 2c-.07.4-.07.41.4.48zM153 261.25l-7-1.17c-.49-.08-.49-.08-.42-.5.25-1.48.5-3 .74-4.45.05-.28.15-.39.49-.32.84.16 1.68.29 2.52.42.31.05.41.17.35.45-.12.58-.2 1.17-.31 1.76 0 .23 0 .33.31.38l7 1.15c1 .17 2 .36 3.06.54a4.41 4.41 0 0 0 .73.08 1.08 1.08 0 0 0 1.24-.95q.94-5.58 1.86-11.15c0-.3.15-.4.51-.33 1 .18 2 .35 3 .5.3.05.38.15.33.42-.64 3.78-1.26 7.55-1.9 11.33a3.93 3.93 0 0 1-3.34 2.92 7.76 7.76 0 0 1-2.76 0l-6.41-1.08z" transform="translate(-.98 -.52)"/><path class="a5db94f3-5f8b-46d8-95f3-d0c6c7777469" d="m264 273-6.33-1c-.34-.06-.41-.17-.36-.46q.47-2.68.9-5.37c0-.21.06-.39.4-.33 2.25.39 4.52.74 6.77 1.17a8.48 8.48 0 0 1 4 1.85 4.27 4.27 0 0 1 1.54 4.2c0 .26-.1.52-.12.78s-.16.33-.46.28zM180.58 259.08l-6.3-1.06c-.47-.07-.47-.08-.4-.48a7.49 7.49 0 0 1 .52-2 4.85 4.85 0 0 1 3.81-2.54 11.11 11.11 0 0 1 3.77 0q3 .51 6 1c.31.05.38.16.33.42-.31 1.81-.61 3.63-.91 5.44 0 .29-.16.34-.48.29-2.11-.37-4.22-.72-6.33-1.07z" transform="translate(-.98 -.52)"/></g><g id="a7963825-bf28-498b-a0f8-e9114badbaa2" data-name="ad7e4005-e0ce-4d23-8f10-edebdf446d08"><path id="fa1e82ac-3a95-45d1-940f-00e76bfad4f7" data-name="e5063c76-c802-4aa4-9716-4e09dff208d5" d="M184.27 68.84s.56-3.1-4.57-5.21a46.23 46.23 0 0 0-5.25-2 23.78 23.78 0 0 0-4.56-1.14l-3-.58v-4.17l52.55 7.92v4s-16.64-2.55-17.51 2.62v58.92s1 4.57 10.15 6.49l3.62 1.06 3.86.6v4l-52.67-8.26V129c1.7.39 3.13.61 4.23.78 1.8.24 3.6.4 5.35.47a16.48 16.48 0 0 0 3.23-.14 6.66 6.66 0 0 0 2.72-.88 5.25 5.25 0 0 0 1.66-1.62l.23-3.15v-53.7" transform="translate(-.98 -.52)" style="fill:url(#ecc3b6bb-631e-4d18-8eee-f922b1821965)"/><path id="b97615cf-1ca1-40ec-bd8e-8631a23753dd" data-name="b22c9bd2-d646-4a1f-ab81-f61a3c4b04ba" d="M229.68 75.72s.51-3-4.61-5.24-13.83-3.64-5.06-1.67-5-1.45-5-1.45l-2.88-.63v-4.17l52.94 8v4s-16.77-2.56-17.7 2.61v59.13s1 4.59 10.23 6.53l3.65 1.06 3.88.61v4l-53-8.31v-4.09c1.72.4 3.16.62 4.27.79 1.81.25 3.62.41 5.39.48a16.71 16.71 0 0 0 3.25-.15 6.61 6.61 0 0 0 2.74-.88 5.32 5.32 0 0 0 1.68-1.62l.23-3.16v-53.9" transform="translate(-.98 -.52)" style="fill:url(#bab1034b-3e27-46b4-8e9c-872fb11967b7)"/><path id="ad4fe098-f7e2-4250-9604-4a60e46a8a31" data-name="fa3cc242-f60c-41c3-8e8f-dc126dbde0c6" d="M139.43 62.05s.51-2.93-4.53-5.19-13.63-3.6-5-1.65-4.9-1.43-4.9-1.43l-2.83-.63V49l52.18 7.86v4s-16.52-2.54-17.39 2.62V122.18s1 4.55 10.07 6.46l3.6 1.05 3.82.6v4l-52.24-8.2V122c1.69.39 3.11.61 4.21.78 1.78.24 3.57.4 5.3.47a16.27 16.27 0 0 0 3.21-.15 6.57 6.57 0 0 0 2.7-.88 5.19 5.19 0 0 0 1.65-1.61l.23-3.13V63.97" transform="translate(-.98 -.52)" style="fill:url(#b0fe943c-ddd4-4c1d-80da-dc2dec968549)"/><path class="e1347e70-2e18-4c36-a303-1fe2e4556f23" d="M273 123.7 116 99.41c-4.52-.7-8.22 2-8.22 6s3.7 7.88 8.22 8.58l157 24.51c4.64.73 8.44-2 8.43-6.08s-3.76-7.99-8.43-8.72z" transform="translate(-.98 -.52)"/><path class="fb2db1cc-98f3-4a67-b97a-1eb104e626cb" d="M148.44 112.28v2.4l-1.84-.29v-7l2.85.44c2 .32 3 1.2 3 2.67a1.7 1.7 0 0 1-.87 1.57 3.44 3.44 0 0 1-2.34.29l-.83-.13zm0-3.33v2.15l.73.11c1 .15 1.47-.13 1.47-.87s-.5-1.13-1.47-1.28zM160.76 116.43l-5.75-.89v-6.67l2.06.32v5l3.67.57zm7.54 1.18-.5-1.26-3-.46-.51 1.1-2.2-.34 3.21-6.22 2 .31 3.23 7.22zm9.27-1v2.53l-2.12-.33v-2.49l-2.87-4.64 2.4.37 1.52 2.68 1.57-2.2 2.35.37zm15.84 2.87c0 1.39-1.2 2-3 1.69a6.67 6.67 0 0 1-3.56-1.66l1.15-1a4.79 4.79 0 0 0 2.45 1.2c.56.08.88 0 .88-.32s-.23-.44-1.29-.85c-1.62-.58-2.87-1.18-2.87-2.57 0-1.22 1.11-2 2.91-1.71a6.14 6.14 0 0 1 3.14 1.39l-1.06 1.14a4.39 4.39 0 0 0-2.13-1c-.5-.08-.74.09-.73.29s.27.49 1.29.85c1.76.64 2.87 1.31 2.87 2.57zm7.45.75v2.53l-2.13-.33v-2.49l-2.87-4.65 2.35.37 1.58 2.69 1.57-2.21 2.36.37zm11.21 2.15c0 1.39-1.25 2-3.06 1.69a6.7 6.7 0 0 1-3.57-1.66l1.16-1a4.82 4.82 0 0 0 2.46 1.2c.55.08.88 0 .88-.32s-.23-.44-1.3-.85c-1.62-.58-2.87-1.18-2.88-2.57 0-1.23 1.11-2 3-1.71a6 6 0 0 1 3.11 1.38l-1.07 1.15a4.32 4.32 0 0 0-2.13-1c-.51-.08-.74.09-.74.29s.27.5 1.29.86c1.81.65 2.88 1.3 2.88 2.57zm8.63-1.64-2.27-.36v5.08l-2.14-.34V120l-2.27-.35V118l6.68 1zm8.19 6.38-6.19-1v-6.72l6.09.94v1.6l-4-.62v1l3.63.57v1.47l-3.63-.56v1l4.09.64zm11.73 1.83-2.15-.34v-3.85l-1.95 2.24h-.05l-1.91-2.91V128l-2.09-.33v-6.72l2.24.35 1.81 2.9 1.82-2.34 2.28.36z" transform="translate(-.98 -.52)"/><path class="e1347e70-2e18-4c36-a303-1fe2e4556f23" d="M125.75 85.58v4.59l.28.12c.18-.34.41-.67.59-1 3.16-6.74 6.27-13.49 9.33-20.3.46-1 1.06-1.42 2.48-1.16q4.53.81 9.08 1.38a2.32 2.32 0 0 1 2.2 1.71c3 7.33 6 14.62 9.06 21.93a6.89 6.89 0 0 0 1.61 2.32 7.16 7.16 0 0 0 .18-1c0-4.56 0-9.07-.05-13.64 0-.65-.64-1.36-1-2.06-.18-.39-.59-.82-.64-1.2-.05-1.75-.09-3.55 0-5.29a1.17 1.17 0 0 1 1-.77c6.67 1 13.35 1.74 20 3.32 6.83 1.61 7.06 1.81 10.76 6.94 9.48-7.33 21.71-5.6 31.55 4.6 4.6-3.64 10.55-4.78 17.16-3.73a26.59 26.59 0 0 1 17 10c0-1.6.09-3.14-.05-4.72-.1-1.37.32-1.8 2-1.5q6.66 1.2 13.33 2c1.59.21 2.39.78 2.72 2.1a17.43 17.43 0 0 0 1 2.25c.42-1 .74-1.74 1-2.48s.65-1.1 1.68-.9c5 .81 10.09 1.58 15.11 2.3 1.13.17 1.6.53 1.55 1.55-.09 1.22 0 2.47 0 3.66 0 1 .14 2-1.13 2.46-.42.18-.46 1.25-.37 1.92.71 4.43 1.47 8.9 2.37 13.32a11.6 11.6 0 0 0 1.5 2.7l.47-.09v7.61l-17.84-2.76v-5.59l-10.11-1.55v5.7L255 118c-2.33-.36-2.33-.36-2.34-2.33V114c-4.85 2.21-9.83 3.57-15.66 2.13a32.12 32.12 0 0 1-14.84-8.63v5.28c-.27.12-.37.19-.46.17-5.48-.93-10.95-1.85-16.47-2.83a20.39 20.39 0 0 1-11.43-6.26c-2-2.1-3.29-4.7-4.81-7.1a9.53 9.53 0 0 1-.74-1.91c-4.21.82-8.36 1.65-12.51 2.48-.28.08-.74.34-.69.43.18.35.46.84.78 1a1.8 1.8 0 0 1 1.25 2v5.22c-.73-.08-1.29-.08-1.84-.17-21.31-3.29-42.54-6.45-63.71-10-7.79-1.29-14.22-5.48-17.86-12.36-5.5-10 1.5-20.65 13.25-20.65 8.4 0 15.25 3.13 20.37 10 .14.22.27.44.41.71L118 81l-6.12-4.67.55-.08c-.14-1 0-2.06-.55-2.75-.77-1-2.6-.77-3.74.24-2.37 2.06-2 4.8-.77 7.66a7.65 7.65 0 0 0 6.52 4.73 6.42 6.42 0 0 0 3.52-1 2.77 2.77 0 0 1 2.14-.53c2 .4 4.01.64 6.2.98zm156.06 15.24.33.1c.14.39.28.78.37 1.12.76 4.39 1.47 8.77 2.27 13.17.24 1.15.24 2-1 2.52-.33.12-.42.68-.47 1.08 0 .17.42.6.66.64 3.33.55 6.62 1.06 10.24 1.62-.15-.6-.29-1.24-.48-1.84a20.85 20.85 0 0 1-1.08-2.68c-1.09-6-2-12.07-3.08-18.15-.19-1-.19-1.92.8-2.51.37-.24.37-.85.61-1.56-3.85-.58-7.37-1.16-10.84-1.61-.38 0-.89.44-1.08.83-.79 1.68-1.49 3.42-2.19 5.13-.52 1.19-1 2.34-1.73 3.88a7.69 7.69 0 0 1-.47-1.14c-1-3-2.07-5.94-3.2-8.91a2.55 2.55 0 0 0-1.31-1.3c-3.28-.58-6.5-1-10.1-1.58.23.77.23 1.59.65 1.86 1.31.86 1.08 1.72.94 2.65-.88 4.83-1.72 9.7-2.74 14.47-.37 1.83 0 4-2.33 5-.33.12-.18 1-.28 1.64 3 .47 5.8.89 8.6 1.29.33 0 .94-.23.94-.48a1.65 1.65 0 0 0-.56-1.19 2.34 2.34 0 0 1-1.13-2.68c.46-2.47.84-5 1.25-7.52.33-1.84.7-3.71 1.07-5.54a1.29 1.29 0 0 1 .66.76c1.27 3.43 2.58 6.84 3.75 10.26a2.18 2.18 0 0 0 2 1.62c4.13.67 4.13.71 5.57-2.39.24-.54.42-1.09.66-1.63.93-2.28 1.82-4.57 2.71-6.9zm-26.2 1.33a13.42 13.42 0 0 0-3-8.74 22.27 22.27 0 0 0-19.16-8c-6.09.55-10.36 3.25-11.56 8.67s.93 10.57 6.37 14.81a22.53 22.53 0 0 0 14.11 4.63c7.7-.04 13.24-4.89 13.24-11.37zm-96.56-2.06a12.56 12.56 0 0 0-.88-2.09 29.21 29.21 0 0 1-2.34-3.41c-2.9-6.91-5.7-13.85-8.51-20.78a2.3 2.3 0 0 0-2.24-1.68 46.47 46.47 0 0 1-4.64-.71c-1.1-.2-1.6.08-2 .92q-4.18 9.48-8.51 18.92a14.09 14.09 0 0 1-1.6 2c-.41.54-.73 1.14-1.23 2l9.61 1.48c-.5-.93-.92-1.56-1.19-2.17s-.69-1.37-.51-1.83c.6-1.57 1-3.5 2.29-4.44.87-.64 3.12.2 4.77.37l.5.08c3.9.59 3.9.59 5.33 4.07a7.36 7.36 0 0 1 .73 1.78 5.6 5.6 0 0 1-.36 2c-.19.58-.42 1.12-.69 1.81l11.44 1.76zm3.43-25c.28.78.56 1.47.83 2.16a9.48 9.48 0 0 1 1 2.43c.1 5.67.1 11.33 0 16.93 0 .82-.78 1.51-1.15 2.31a3.19 3.19 0 0 0-.41 1.32c0 .2.5.61.82.66 3.13.52 6.27 1 9.63 1.52-.14-.79 0-1.59-.37-1.93-1.52-1.25-1.06-2.56-1.25-3.94s.6-1.86 2-2.09A64.41 64.41 0 0 0 184.24 92c3.65-1.36 4.34-4.64 3.46-8.28-.79-3.26-3.65-5.08-6.88-5.69-5.95-1.28-11.94-2-18.34-3zM123 72.94c-.36-.42-.59-.74-.87-1-5.16-5.13-12.92-7.2-19.11-5.1-5.7 1.88-8.61 6.46-7.61 12 1 5.21 6.24 10.92 12.67 12.84 4.42 1.34 9 1.84 13.83 2.79 0-2 0-3.53-.05-5.12 0-.45-.23-1.17-.55-1.3a1.87 1.87 0 0 0-1.46.22c-1.87 1.45-4.2 1.42-6.71.87-7.66-1.66-10.94-8.89-10.22-13.64s4.74-6.85 9.85-5.26c2.74.86 4.07 2.76 3.7 5.1a1.32 1.32 0 0 0 .41 1.12 1.68 1.68 0 0 0 1.42 0c1.64-1.09 3.15-2.32 4.7-3.5zm95.64 29.88a6.79 6.79 0 0 0-2 .46c-2 1.45-4.46 1.36-7.05.75-8.16-2-11.17-9.92-9.92-14.5 1.15-4.2 4.57-5.84 9.44-4.61 3.06.8 4.54 2.74 4.18 5.34a1.63 1.63 0 0 0 .55 1.19 1.25 1.25 0 0 0 1.16 0c1.62-1.18 3.2-2.41 4.83-3.64-.28-.32-.42-.55-.61-.78-5.52-6-15.16-8-21.92-4.49-6 3-7.39 10.26-3.09 16.3a21 21 0 0 0 9 7.23c4.77 2.08 9.73 2.15 14.65 3a.93.93 0 0 0 .84-.56c-.05-1.76-.1-3.57-.1-5.69z" transform="translate(-.98 -.52)"/><path d="M281.86 100.83c-.89 2.33-1.83 4.61-2.71 6.94-.24.54-.43 1.09-.66 1.63-1.45 3.1-1.45 3.06-5.57 2.38a2.15 2.15 0 0 1-2-1.61c-1.17-3.43-2.49-6.83-3.75-10.27a1.33 1.33 0 0 0-.66-.75c-.37 1.83-.74 3.7-1.07 5.54-.42 2.48-.79 5-1.25 7.52a2.33 2.33 0 0 0 1.12 2.68 1.61 1.61 0 0 1 .56 1.19c0 .21-.6.52-.93.47-2.81-.39-5.56-.81-8.6-1.28.09-.68-.05-1.53.28-1.64 2.33-.95 2-3.19 2.33-5 1-4.81 1.86-9.65 2.74-14.47.18-1 .42-1.83-.94-2.65-.37-.26-.37-1.08-.65-1.86 3.59.54 6.87 1 10.1 1.57a2.47 2.47 0 0 1 1.31 1.31c1.13 3 2.11 5.91 3.19 8.91.1.22.19.48.47 1.14.7-1.54 1.22-2.69 1.73-3.89.75-1.69 1.4-3.44 2.2-5.12a1.51 1.51 0 0 1 1.08-.83c3.51.46 7 1 10.83 1.61-.23.66-.23 1.32-.6 1.55-1 .59-1 1.5-.8 2.51 1 6 2 12.07 3.08 18.16a16.79 16.79 0 0 0 1.08 2.67c.19.61.33 1.25.47 1.85-3.61-.56-6.95-1.08-10.23-1.62a1.15 1.15 0 0 1-.66-.64c0-.41.14-1 .47-1.08 1.22-.51 1.21-1.37 1-2.52-.8-4.4-1.51-8.78-2.27-13.17a4.7 4.7 0 0 0-.38-1.13l-.32-.13zm-26.25 1.32c0 6.48-5.54 11.33-13.24 11.33a22.53 22.53 0 0 1-14.11-4.63c-5.44-4.24-7.58-9.35-6.37-14.81s5.47-8.08 11.56-8.67a22.27 22.27 0 0 1 19.16 8 13.35 13.35 0 0 1 3 8.78zm-26.05-4.24a27.63 27.63 0 0 0 .56 4 9.2 9.2 0 0 0 6.33 6.62c3.68 1.1 7.08 1 9.32-1.68 2.56-3 2.46-9.25-.2-12.94-3.22-4.5-9.83-5.92-13.46-2.87-2 1.78-2.56 4.19-2.55 6.89zm-70.51 2.34-11.44-1.76c.27-.69.5-1.22.69-1.81a5.6 5.6 0 0 0 .36-2 5.73 5.73 0 0 0-.73-1.78c-1.43-3.47-1.43-3.47-5.32-4.07l-.51-.08c-1.65-.17-3.9-1-4.77-.37-1.28.94-1.69 2.87-2.28 4.45-.19.45.27 1.22.5 1.82s.69 1.24 1.19 2.17l-9.61-1.48c.5-.82.82-1.42 1.23-2s1.28-1.22 1.6-2q4.33-9.37 8.51-18.91c.37-.84.87-1.13 2-.92a43.7 43.7 0 0 0 4.64.7 2.33 2.33 0 0 1 2.21 1.79c2.76 6.93 5.56 13.86 8.51 20.78a23.83 23.83 0 0 0 2.34 3.42 14 14 0 0 1 .88 2.08zm-20.34-16.09 6 .92-3-7.64h-.42zm23.77-9.1c6.45 1 12.39 1.68 18.34 2.87 3.23.66 6.09 2.44 6.88 5.7.88 3.64.19 6.92-3.46 8.28a59 59 0 0 1-10.65 2.44c-1.43.27-2.21.6-2 2.09s-.23 2.65 1.25 3.94c.37.3.23 1.14.37 1.93-3.36-.52-6.5-1-9.63-1.52-.27-.05-.82-.5-.82-.66a3.19 3.19 0 0 1 .41-1.32c.37-.76 1.15-1.45 1.15-2.31.09-5.64.09-11.3 0-16.93a8 8 0 0 0-1-2.43 17.32 17.32 0 0 1-.83-2.08zm9.13 15.85a12 12 0 0 0 7.88-3.68c2.07-2.58.69-5.64-3.14-6.8a25.73 25.73 0 0 0-3.41-.52c-1.06-.16-1.34.33-1.34 1.14.05 1.56 0 3.14 0 4.69v5.17zM123 72.94c-1.55 1.22-3 2.42-4.61 3.56a1.89 1.89 0 0 1-1.42 0c-.27-.12-.45-.8-.41-1.11.37-2.38-1-4.25-3.7-5.11-5.1-1.59-9.07.48-9.84 5.26s2.5 12 10.21 13.65c2.51.54 4.89.59 6.71-.88a1.71 1.71 0 0 1 1.47-.22c.32.13.54.86.54 1.3v5.12c-4.8-.94-9.41-1.45-13.83-2.78-6.43-1.92-11.71-7.64-12.67-12.84-1-5.54 1.87-10.16 7.56-12 6.25-2.08 14 0 19.12 5.1.24.21.47.53.87.95zm95.64 29.88c0 2.16.05 3.93 0 5.67a.94.94 0 0 1-.84.57c-4.87-.83-9.88-.91-14.65-3a21.22 21.22 0 0 1-9-7.23c-4.26-6.08-2.92-13.3 3.09-16.3C203.88 79 213.52 81 219.05 87a5.69 5.69 0 0 1 .6.79c-1.62 1.22-3.15 2.5-4.82 3.64a1.42 1.42 0 0 1-1.16 0 1.64 1.64 0 0 1-.56-1.18c.37-2.6-1.11-4.55-4.17-5.34-4.87-1.23-8.25.42-9.45 4.6-1.29 4.58 1.77 12.52 9.92 14.51 2.6.65 5.06.7 7.05-.75a9.07 9.07 0 0 1 2.14-.45z" transform="translate(-.98 -.52)" style="fill:#ffca08"/><path class="e1347e70-2e18-4c36-a303-1fe2e4556f23" d="M229.56 97.91c0-2.7.55-5.11 2.6-6.88 3.62-3.09 10.19-1.64 13.46 2.87 2.66 3.69 2.71 10 .19 12.94-2.28 2.64-5.63 2.78-9.31 1.68a9.14 9.14 0 0 1-6.33-6.63 22.12 22.12 0 0 1-.61-3.98zM138.71 84c.91-2.29 1.78-4.52 2.7-6.69h.41l3 7.65zm32.9 6.92v-5.1c0-1.55.05-3.13 0-4.69 0-.85.28-1.34 1.34-1.14a25.73 25.73 0 0 1 3.41.52c3.87 1.16 5.21 4.18 3.14 6.8a12.25 12.25 0 0 1-7.88 3.6zm-6.39 23.69 1.15-2.43 1 2.77" transform="translate(-.98 -.52)"/></g></svg>