<svg id="b98607ad-d5f4-4b68-a845-919daa8ca87b" data-name="ad7e4005-e0ce-4d23-8f10-edebdf446d08" xmlns="http://www.w3.org/2000/svg" viewBox="0 0 60.73 65.42"><defs><style>.a4691683-14ad-4f8e-8ded-d0f211eeca00{fill:#6d6c6a;}</style></defs><path class="a4691683-14ad-4f8e-8ded-d0f211eeca00" d="M239,69.29c-3.4,3.6-6.6,7.1-10.1,10.5a3.8,3.8,0,0,1-3.1.5c-.6-.2-1-1.8-.9-2.6.8-6-2.2-10.1-8.1-11.2-11.2-2-19.9,4.6-21.6,16.7s5.5,28.6,22.4,29.8c5.5.4,10.7-.4,14.7-4.7a3.75,3.75,0,0,1,3.2-1.1c.7.2,1.2,1.9,1.2,3,.1,3.9.1,7.9.1,12.6-10.5-.5-20.6,0-30.3-1.6-14.1-2.3-25.7-14.4-27.8-26.9-2.2-13.3,4.1-25.8,16.6-32.5a35.85,35.85,0,0,1,41.9,5.4C237.72,67.69,238.22,68.39,239,69.29Z" transform="translate(-178.29 -57.37)"/></svg>