<svg id="e458a21d-739d-4fee-aedc-0bd31c910ab9" data-name="e01d979b-4279-4886-81d7-220a5d50c966" xmlns="http://www.w3.org/2000/svg" viewBox="0 0 60.73 65.42"><defs><style>.ec7140f7-672c-40f5-8922-07ee7325218f{fill:#fff;}</style></defs><path class="ec7140f7-672c-40f5-8922-07ee7325218f" d="M60.71,11.92c-3.4,3.6-6.6,7.1-10.1,10.5a3.77,3.77,0,0,1-3.1.5c-.6-.2-1-1.8-.9-2.6.8-6-2.2-10.1-8.1-11.2-11.2-2-19.9,4.6-21.6,16.7s5.5,28.6,22.4,29.8c5.5.4,10.7-.4,14.7-4.7a3.77,3.77,0,0,1,3.2-1.1c.7.2,1.2,1.9,1.2,3,.1,3.9.1,7.9.1,12.6-10.5-.5-20.6,0-30.3-1.6-14.1-2.3-25.7-14.4-27.8-26.9-2.2-13.3,4.1-25.8,16.6-32.5a35.86,35.86,0,0,1,41.9,5.4C59.43,10.32,59.93,11,60.71,11.92Z" transform="translate(0.02 0)"/></svg>