<svg xmlns="http://www.w3.org/2000/svg" xmlns:xlink="http://www.w3.org/1999/xlink" viewBox="0 0 470.58 67.66"><defs><style>.abb0be59-f4bc-49fb-95b2-88b5d9e91fcb{stroke:#9def48;stroke-miterlimit:10;fill:url(#f65e5732-3474-4348-a228-05d225f9725b);}.ba640024-16dc-401b-adfe-c086fd3ad1ef{fill:#9def48;}.eb5250f8-fc81-4ae4-b49a-f222830af0f3{fill:#fff;}</style><linearGradient id="f65e5732-3474-4348-a228-05d225f9725b" x1="0.5" y1="33.83" x2="470.08" y2="33.83" gradientUnits="userSpaceOnUse"><stop offset="0" stop-color="#032c02"/><stop offset="1" stop-color="#207a09"/></linearGradient></defs><g id="e8806243-6440-470d-a7b1-8fba4a9c3109" data-name="calque3"><polygon class="abb0be59-f4bc-49fb-95b2-88b5d9e91fcb" points="0.5 6.04 102.57 6.04 108.7 0.5 150.44 0.5 158.35 6.04 461.77 6.24 470.08 16.13 470.08 59.84 50.94 59.84 42.83 67.16 8.02 67.16 0.5 59.84 0.5 6.04"/><path class="ba640024-16dc-401b-adfe-c086fd3ad1ef" d="M82.89,38.07h4.37a17.11,17.11,0,0,1-3.67,7.3H59.44a18.23,18.23,0,0,1-4.22-12.26,18.22,18.22,0,0,1,4.22-12.25H83.59a17.11,17.11,0,0,1,3.67,7.3H82.89a18.89,18.89,0,0,0-1.47-3.23H61.63a16.32,16.32,0,0,0-2.34,8.18,16.38,16.38,0,0,0,2.34,8.19H81.42A19.62,19.62,0,0,0,82.89,38.07Z"/><path class="ba640024-16dc-401b-adfe-c086fd3ad1ef" d="M123.48,35.13H96.94a17.46,17.46,0,0,0,2.2,6.17h2.7v4.07H97a17.67,17.67,0,0,1-4.13-10.24H89V31.08h3.85A17.56,17.56,0,0,1,97,20.86H121.1a18.13,18.13,0,0,1,4.22,12.25ZM96.94,31.08h24.18a17.67,17.67,0,0,0-2.19-6.15H99.14A17.3,17.3,0,0,0,96.94,31.08Z"/><path class="ba640024-16dc-401b-adfe-c086fd3ad1ef" d="M159.4,31.08l1.85,2A18.15,18.15,0,0,1,157,45.37H132.88a17.13,17.13,0,0,1-3.68-7.3h4.38a19,19,0,0,0,1.48,3.23h19.79A16.92,16.92,0,0,0,157,35.13H130.5l-1.84-2a18.17,18.17,0,0,1,4.22-12.25H157a17.13,17.13,0,0,1,3.68,7.3h-4.38a17.47,17.47,0,0,0-1.47-3.23H135.06a17.49,17.49,0,0,0-2.2,6.15Z"/><path class="ba640024-16dc-401b-adfe-c086fd3ad1ef" d="M177.26,24.93l-2.34-4.07h24.66a17.59,17.59,0,0,1,4.13,10.24l-1.76,1v2l1.76,1a17.67,17.67,0,0,1-4.13,10.24H174.92l2.34-4.07h20.15a17.83,17.83,0,0,0,2.19-6.17H182.68V31.08H199.6a17.67,17.67,0,0,0-2.19-6.15Z"/></g><g id="b61a1a1e-d146-4d15-8603-b06e4ddc3265" data-name="capcom"><path class="eb5250f8-fc81-4ae4-b49a-f222830af0f3" d="M27.54,8.49l0,.34a.13.13,0,0,1,0,.08.41.41,0,0,1-.2.09l-4.27.67c-.21,0-.26,0-.38-.24l-.09-.18H19.93v5.33l.58.17-.58.23v5.16h1.61a5.66,5.66,0,0,0-1.88,4.34,6.52,6.52,0,0,0,1.81,4.61,5.21,5.21,0,0,0-1.79,4.28,5.39,5.39,0,0,0,2,4.28c-1.2.75-1.74,1.62-1.74,3.89v5.12h2.76l.07-.23a.48.48,0,0,1,.07-.15A.16.16,0,0,1,23,46.2h3.76l-6.79,2.62v3.87l6.51,2.45h-.35v2.68l.21.07a.9.9,0,0,1,.56.9c0,.78-.65,1.64-2.06,1.69a1.4,1.4,0,0,1-1.33-.68l-.07-.16a.18.18,0,0,1,.24-.23.66.66,0,0,1,.24.15l.27.28,1.58-2.29-3.17-3-.2.1a5.37,5.37,0,0,0-2.66,4.78,5.46,5.46,0,0,0,5.57,5.73c3,0,5.38-2.72,5.38-6.18V41.13H28l-.05.26s0,.07,0,.1a9.56,9.56,0,0,0-1.42-3,6.18,6.18,0,0,0,4.18-6.15V28.85H29.31a6.8,6.8,0,0,0,1.6-4.22,6.46,6.46,0,0,0-1.14-3.46h.89V16H28.8V13.91h1.85V8.48H27.54Zm2.8.3v4.8H28.48v2.75h1.86v4.52H29.13a6.35,6.35,0,0,1,1.46,3.77,6.68,6.68,0,0,1-2,4.54h1.76v3.2a5.81,5.81,0,0,1-4.42,6,8.71,8.71,0,0,1,1.72,3.47c0,.13.08.19.22.19s.36-.56.36-.56h2.12V59c0,3.25-2.24,5.86-5.07,5.86a5.38,5.38,0,0,1-2.77-9.91l2.82,2.65-1.21,1.75s-.55-.57-.95-.05.35,1.56,1.65,1.51c1.51-.06,2.36-1,2.36-2a1.22,1.22,0,0,0-.77-1.2V55.46h1.78l-7.93-3V49l7.12-2.75a1.38,1.38,0,0,0,.48-.4H23a.59.59,0,0,0-.37.1.89.89,0,0,0-.22.36h-2.2v-4.8c0-2.49.67-3.13,2-3.85A5.13,5.13,0,0,1,20,33.37a4.76,4.76,0,0,1,2-4.25,6.07,6.07,0,0,1-2-4.64,5.24,5.24,0,0,1,2.55-4.66H20.25V15.19l1.24-.49-1.24-.36V9.57H22.4c.17.33.33.47.72.41l4.27-.67a.68.68,0,0,0,.39-.19.48.48,0,0,0,.1-.33Z"/><path class="eb5250f8-fc81-4ae4-b49a-f222830af0f3" d="M21.2,51.83V49.69L28,47.09a2.08,2.08,0,0,0,.51-.32,1.19,1.19,0,0,0,.25-.43h.59v3.14h-.6a.33.33,0,0,0-.15-.3.51.51,0,0,0-.49,0c-.18.08-1.57.6-1.57.6v2.57l1.53.57a.69.69,0,0,0,.45,0c.21-.08.24-.37.24-.37h.59V55h-.59a1.19,1.19,0,0,0-.25-.4,1,1,0,0,0-.39-.25L21.2,51.83m4.09.06V50.24l-2.39.85Z"/><path class="eb5250f8-fc81-4ae4-b49a-f222830af0f3" d="M21.2,45.34v-4c0-1.47.52-3,2.23-3a2.82,2.82,0,0,1,2.74,2,19.75,19.75,0,0,1,.88,2.48h1.3a.52.52,0,0,0,.24-.14.57.57,0,0,0,.19-.26h.6v2.9h-.59a.69.69,0,0,0-.16-.3.54.54,0,0,0-.28-.15h-5.9a.58.58,0,0,0-.35.09,2.36,2.36,0,0,0-.24.33H21.2m1.23-2.5h3.49s-1-2.35-2.36-2.35C21.85,40.49,22.43,42.84,22.43,42.84Z"/><path class="eb5250f8-fc81-4ae4-b49a-f222830af0f3" d="M29.62,24.67a4.44,4.44,0,0,1-4.39,4.64A4.39,4.39,0,0,1,21,24.67,4.39,4.39,0,0,1,25.23,20a4.44,4.44,0,0,1,4.39,4.64m-4.35,2.4c2.41,0,3-1.23,3-2.4s-.75-2.43-3-2.43-3,1.4-3,2.43S22.86,27.07,25.27,27.07Z"/><path class="eb5250f8-fc81-4ae4-b49a-f222830af0f3" d="M21.2,18.82v-3l3.34-1.07L21.2,13.62V10.51h.49a1.1,1.1,0,0,0,.2.3.48.48,0,0,0,.44.08L28.18,10a1.67,1.67,0,0,0,.45-.1c.14,0,.25-.28.25-.28h.51v3h-.55a.66.66,0,0,0-.16-.35.52.52,0,0,0-.4-.1l-4.77.74,4,1.3V15.8l-3.79,1.29,4.47.65a.73.73,0,0,0,.41-.07.51.51,0,0,0,.2-.39h.54v2.59H28.8a.65.65,0,0,0-.2-.36.88.88,0,0,0-.4-.18l-5.9-.94a.58.58,0,0,0-.32,0c-.1.06-.19.42-.19.42H21.2"/><path class="eb5250f8-fc81-4ae4-b49a-f222830af0f3" d="M22.55,56.2,24,57.6a.21.21,0,0,1,0,.28l-.19.23,0,0a1,1,0,0,0-.42-.14c-.24,0-1.23,0-1.23,1.58a2.38,2.38,0,0,0,2.61,2.2,3.17,3.17,0,0,0,3.34-3.1c0-1.39-.78-1.68-.78-1.68v-.47h2v2.6a4.62,4.62,0,0,1-4.2,4.82A4.29,4.29,0,0,1,21,59.49a4.54,4.54,0,0,1,1.58-3.29"/><path class="eb5250f8-fc81-4ae4-b49a-f222830af0f3" d="M22.56,29.73,24,31.13a.19.19,0,0,1,0,.27l-.2.24,0,0a.93.93,0,0,0-.41-.14c-.24,0-1.23.05-1.23,1.57a2.37,2.37,0,0,0,2.61,2.2,3.17,3.17,0,0,0,3.34-3.1c0-1.38-.78-1.67-.78-1.67V30h2v2.6a4.63,4.63,0,0,1-4.19,4.83A4.29,4.29,0,0,1,21,33a4.51,4.51,0,0,1,1.57-3.29"/></g></svg>