<svg enable-background="new 0 0 501 278.5" viewBox="0 0 501 278.5" xmlns="http://www.w3.org/2000/svg" xmlns:xlink="http://www.w3.org/1999/xlink"><linearGradient id="a" gradientUnits="userSpaceOnUse" x1="0" x2="501" y1="31" y2="31"><stop offset="0" stop-color="#131313"/><stop offset=".1284" stop-color="#141414"/><stop offset=".2757" stop-color="#181616"/><stop offset=".4324" stop-color="#1c1919"/><stop offset=".5955" stop-color="#1f1d1d"/><stop offset=".7638" stop-color="#211f20"/><stop offset=".9338" stop-color="#121112"/><stop offset="1"/></linearGradient><linearGradient id="b"><stop offset="0" stop-color="#131313"/><stop offset="1"/></linearGradient><linearGradient id="c" gradientUnits="userSpaceOnUse" x1="0" x2="501" xlink:href="#b" y1="143.2196" y2="143.2196"/><linearGradient id="d" gradientUnits="userSpaceOnUse" x1="74.0259" x2="88.5741" xlink:href="#b" y1="149.6759" y2="135.1277"/><linearGradient id="e" gradientUnits="userSpaceOnUse" x1="40.7708" x2="40.7708" xlink:href="#b" y1="224" y2="62.3889"/><linearGradient id="f" gradientUnits="userSpaceOnUse" x1="3.5016" x2="497.4984" xlink:href="#b" y1="251.4722" y2="251.4722"/><linearGradient id="g"><stop offset="0" stop-color="#131212"/><stop offset="1" stop-color="#1e1b1c"/></linearGradient><linearGradient id="h" gradientUnits="userSpaceOnUse" x1="96.2256" x2="119.9411" xlink:href="#g" y1="89.1911" y2="65.4756"/><linearGradient id="i" gradientUnits="userSpaceOnUse" x1="98.2685" x2="121.984" xlink:href="#g" y1="141.8853" y2="118.1698"/><linearGradient id="j" gradientUnits="userSpaceOnUse" x1="106.3519" x2="130.0674" xlink:href="#g" y1="167.6906" y2="143.9751"/><linearGradient id="k" gradientUnits="userSpaceOnUse" x1="106.3519" x2="130.0674" xlink:href="#g" y1="219.3013" y2="195.5858"/><linearGradient id="l" gradientUnits="userSpaceOnUse" x1="136.144" x2="159.5141" xlink:href="#g" y1="89.0184" y2="65.6483"/><linearGradient id="m" gradientUnits="userSpaceOnUse" x1="175.3714" x2="198.7415" xlink:href="#g" y1="89.0184" y2="65.6483"/><linearGradient id="n" gradientUnits="userSpaceOnUse" x1="214.5988" x2="237.9689" xlink:href="#g" y1="89.0184" y2="65.6483"/><linearGradient id="o" gradientUnits="userSpaceOnUse" x1="253.8262" x2="277.1963" xlink:href="#g" y1="89.0184" y2="65.6483"/><linearGradient id="p" gradientUnits="userSpaceOnUse" x1="293.0536" x2="316.4237" xlink:href="#g" y1="89.0184" y2="65.6483"/><linearGradient id="q" gradientUnits="userSpaceOnUse" x1="332.2809" x2="355.6511" xlink:href="#g" y1="89.0184" y2="65.6483"/><linearGradient id="r" gradientUnits="userSpaceOnUse" x1="371.5083" x2="394.8784" xlink:href="#g" y1="89.0184" y2="65.6483"/><linearGradient id="s" gradientUnits="userSpaceOnUse" x1="410.7357" x2="434.1058" xlink:href="#g" y1="89.0184" y2="65.6483"/><linearGradient id="t" gradientUnits="userSpaceOnUse" x1="453.1983" x2="481.0928" y1="91.2806" y2="63.3861"><stop offset="0" stop-color="#9f1e22"/><stop offset="1" stop-color="#771215"/></linearGradient><linearGradient id="u" gradientUnits="userSpaceOnUse" x1="93.1025" x2="112.0084" xlink:href="#g" y1="113.6751" y2="94.7692"/><linearGradient id="v" gradientUnits="userSpaceOnUse" x1="102.3525" x2="121.2584" xlink:href="#g" y1="191.0911" y2="172.1852"/><linearGradient id="w" gradientUnits="userSpaceOnUse" x1="128.0361" x2="146.942" xlink:href="#g" y1="191.0911" y2="172.1852"/><linearGradient id="x" gradientUnits="userSpaceOnUse" x1="140.6609" x2="159.5668" xlink:href="#g" y1="216.8965" y2="197.9906"/><linearGradient id="y" gradientUnits="userSpaceOnUse" x1="374.9839" x2="398.6995" xlink:href="#g" y1="219.3014" y2="195.5859"/><linearGradient id="z" gradientUnits="userSpaceOnUse" x1="460.3643" x2="484.0798" xlink:href="#g" y1="116.0799" y2="92.3644"/><linearGradient id="A" gradientUnits="userSpaceOnUse" x1="454.6589" x2="478.3744" xlink:href="#g" y1="167.6905" y2="143.975"/><linearGradient id="B" gradientUnits="userSpaceOnUse" x1="468.6581" x2="487.564" xlink:href="#g" y1="139.4806" y2="120.5747"/><linearGradient id="C" gradientUnits="userSpaceOnUse" x1="436.8225" x2="455.7284" xlink:href="#g" y1="191.0912" y2="172.1853"/><linearGradient id="D" gradientUnits="userSpaceOnUse" x1="436.8225" x2="455.7284" xlink:href="#g" y1="216.8965" y2="197.9906"/><linearGradient id="E" gradientUnits="userSpaceOnUse" x1="403.5987" x2="435.4073" xlink:href="#g" y1="210.4453" y2="178.6367"/><linearGradient id="F" gradientUnits="userSpaceOnUse" x1="456.5013" x2="488.3099" xlink:href="#g" y1="210.4453" y2="178.6367"/><path d="m3.042 62v-5.264c0-.568-.46-1.028-1.028-1.028h-2.014v-50.458c0-2.899 2.351-5.25 5.25-5.25h490.5c2.9 0 5.25 2.351 5.25 5.25v56.75z" fill="url(#a)"/><path d="m81.778 224.444h-78.276l-3.502-155.888v-11.223c0-.276.224-.5.5-.5h2.542c.036 1.72.072 3.441.108 5.161 7.184 0 75.017.005 75.017.005s3.611 149.557 3.611 162.445z"/><path d="m501 61.995c-7.184 0-501 .005-501 .005s3.502 149.556 3.502 162.444h493.997l3.501-155.888v-6.556z" fill="url(#c)"/><path d="m88.542 46.333h-72.917c-1.266 0-2.292-1.026-2.292-2.292v-26.25c0-1.266 1.026-2.292 2.292-2.292h72.917c1.266 0 2.292 1.026 2.292 2.292v26.25c-.001 1.266-1.027 2.292-2.292 2.292z" fill="#1c1c1d"/><path d="m82.851 156.028h-2.473l-.629-27.252h2.473z" fill="url(#d)"/><path d="m81.125 224h-77.127l-3.581-159.847c-.022-.968.751-1.764 1.712-1.764h75.414z" fill="url(#e)"/><path d="m90.833 31h-77.5" fill="none" stroke="#fff" stroke-miterlimit="10" stroke-width=".75"/><path d="m488.709 278.5h-476.411c-2.128 0-3.853-1.725-3.853-3.853l-4.943-50.202h493.997l-4.943 50.209c0 2.124-1.723 3.846-3.847 3.846z" fill="url(#f)"/><path d="m102.692 221.444c-2.196 0-3.982-1.786-3.982-3.982v-73.434h-4.102c-2.196 0-3.982-1.736-3.982-3.871v-49.324c-1.233-.686-2.043-1.999-2.043-3.481v-20.036c0-2.196 1.787-3.982 3.982-3.982h394.845c2.377 0 4.312 1.934 4.312 4.311v72.847c0 1.95-1.587 3.537-3.537 3.537h-2.169v73.879c0 1.95-1.586 3.537-3.536 3.537h-379.788z" fill="#0d0d0d"/><path d="m90.083 87.351v-20.035c0-1.371 1.111-2.483 2.483-2.483h31.035c1.371 0 2.483 1.111 2.483 2.483v20.035c0 1.371-1.111 2.483-2.483 2.483h-31.035c-1.371-.001-2.483-1.112-2.483-2.483z" fill="#0d0d0d"/><path d="m121.101 87.003h-26.035c-1.371 0-2.483-1.112-2.483-2.483v-14.374c0-1.371 1.112-2.483 2.483-2.483h26.035c1.371 0 2.483 1.112 2.483 2.483v14.374c-.001 1.372-1.112 2.483-2.483 2.483z" fill="url(#h)"/><path d="m92.126 140.046v-20.036c0-1.371 1.111-2.483 2.483-2.483h31.035c1.371 0 2.483 1.111 2.483 2.483v20.035c0 1.371-1.111 2.483-2.483 2.483h-31.036c-1.37 0-2.482-1.112-2.482-2.482z" fill="#0d0d0d"/><path d="m123.144 139.697h-26.035c-1.371 0-2.483-1.112-2.483-2.483v-14.374c0-1.371 1.112-2.483 2.483-2.483h26.035c1.371 0 2.483 1.112 2.483 2.483v14.374c-.001 1.372-1.112 2.483-2.483 2.483z" fill="url(#i)"/><path d="m100.21 165.851v-20.036c0-1.371 1.111-2.483 2.483-2.483h31.035c1.371 0 2.483 1.111 2.483 2.483v20.035c0 1.371-1.111 2.483-2.483 2.483h-31.035c-1.372 0-2.483-1.111-2.483-2.482z" fill="#0d0d0d"/><path d="m131.227 165.503h-26.035c-1.371 0-2.483-1.112-2.483-2.483v-14.374c0-1.371 1.112-2.483 2.483-2.483h26.035c1.371 0 2.483 1.112 2.483 2.483v14.374c0 1.371-1.112 2.483-2.483 2.483z" fill="url(#j)"/><path d="m100.21 217.462v-20.036c0-1.371 1.111-2.483 2.483-2.483h31.035c1.371 0 2.483 1.111 2.483 2.483v20.035c0 1.371-1.111 2.483-2.483 2.483h-31.035c-1.372 0-2.483-1.112-2.483-2.482z" fill="#0d0d0d"/><path d="m131.227 217.113h-26.035c-1.371 0-2.483-1.112-2.483-2.483v-14.374c0-1.371 1.112-2.483 2.483-2.483h26.035c1.371 0 2.483 1.112 2.483 2.483v14.374c0 1.372-1.112 2.483-2.483 2.483z" fill="url(#k)"/><path d="m130.25 87.381v-20.094c0-1.355 1.098-2.453 2.453-2.453h30.251c1.355 0 2.453 1.098 2.453 2.453v20.093c0 1.355-1.098 2.453-2.453 2.453h-30.252c-1.354 0-2.452-1.098-2.452-2.452z" fill="#0d0d0d"/><path d="m160.513 87.003h-25.368c-1.355 0-2.453-1.098-2.453-2.453v-14.433c0-1.355 1.098-2.453 2.453-2.453h25.368c1.355 0 2.453 1.098 2.453 2.453v14.433c.001 1.355-1.098 2.453-2.453 2.453z" fill="url(#l)"/><path d="m169.478 87.381v-20.094c0-1.355 1.098-2.453 2.453-2.453h30.251c1.355 0 2.453 1.098 2.453 2.453v20.093c0 1.355-1.098 2.453-2.453 2.453h-30.252c-1.354 0-2.452-1.098-2.452-2.452z" fill="#0d0d0d"/><path d="m199.741 87.003h-25.368c-1.355 0-2.453-1.098-2.453-2.453v-14.433c0-1.355 1.098-2.453 2.453-2.453h25.368c1.355 0 2.453 1.098 2.453 2.453v14.433c0 1.355-1.098 2.453-2.453 2.453z" fill="url(#m)"/><path d="m208.705 87.381v-20.094c0-1.355 1.098-2.453 2.453-2.453h30.251c1.355 0 2.453 1.098 2.453 2.453v20.093c0 1.355-1.098 2.453-2.453 2.453h-30.252c-1.354 0-2.452-1.098-2.452-2.452z" fill="#0d0d0d"/><path d="m238.968 87.003h-25.368c-1.355 0-2.453-1.098-2.453-2.453v-14.433c0-1.355 1.098-2.453 2.453-2.453h25.368c1.355 0 2.453 1.098 2.453 2.453v14.433c0 1.355-1.098 2.453-2.453 2.453z" fill="url(#n)"/><path d="m247.932 87.381v-20.094c0-1.355 1.098-2.453 2.453-2.453h30.251c1.355 0 2.453 1.098 2.453 2.453v20.093c0 1.355-1.098 2.453-2.453 2.453h-30.252c-1.353 0-2.452-1.098-2.452-2.452z" fill="#0d0d0d"/><path d="m278.195 87.003h-25.368c-1.355 0-2.453-1.098-2.453-2.453v-14.433c0-1.355 1.098-2.453 2.453-2.453h25.368c1.355 0 2.453 1.098 2.453 2.453v14.433c.001 1.355-1.098 2.453-2.453 2.453z" fill="url(#o)"/><path d="m287.16 87.381v-20.094c0-1.355 1.098-2.453 2.453-2.453h30.251c1.355 0 2.453 1.098 2.453 2.453v20.093c0 1.355-1.098 2.453-2.453 2.453h-30.252c-1.354 0-2.452-1.098-2.452-2.452z" fill="#0d0d0d"/><path d="m317.423 87.003h-25.368c-1.355 0-2.453-1.098-2.453-2.453v-14.433c0-1.355 1.098-2.453 2.453-2.453h25.368c1.355 0 2.453 1.098 2.453 2.453v14.433c0 1.355-1.098 2.453-2.453 2.453z" fill="url(#p)"/><path d="m326.387 87.381v-20.094c0-1.355 1.098-2.453 2.453-2.453h30.251c1.355 0 2.453 1.098 2.453 2.453v20.093c0 1.355-1.098 2.453-2.453 2.453h-30.251c-1.355 0-2.453-1.098-2.453-2.452z" fill="#0d0d0d"/><path d="m356.65 87.003h-25.368c-1.355 0-2.453-1.098-2.453-2.453v-14.433c0-1.355 1.098-2.453 2.453-2.453h25.368c1.355 0 2.453 1.098 2.453 2.453v14.433c.001 1.355-1.098 2.453-2.453 2.453z" fill="url(#q)"/><path d="m365.614 87.381v-20.094c0-1.355 1.098-2.453 2.453-2.453h30.251c1.355 0 2.453 1.098 2.453 2.453v20.093c0 1.355-1.098 2.453-2.453 2.453h-30.252c-1.353 0-2.452-1.098-2.452-2.452z" fill="#0d0d0d"/><path d="m395.877 87.003h-25.368c-1.355 0-2.453-1.098-2.453-2.453v-14.433c0-1.355 1.098-2.453 2.453-2.453h25.368c1.355 0 2.453 1.098 2.453 2.453v14.433c.001 1.355-1.098 2.453-2.453 2.453z" fill="url(#r)"/><path d="m404.842 87.381v-20.094c0-1.355 1.098-2.453 2.453-2.453h30.251c1.355 0 2.453 1.098 2.453 2.453v20.093c0 1.355-1.098 2.453-2.453 2.453h-30.252c-1.354 0-2.452-1.098-2.452-2.452z" fill="#0d0d0d"/><path d="m435.105 87.003h-25.368c-1.355 0-2.453-1.098-2.453-2.453v-14.433c0-1.355 1.098-2.453 2.453-2.453h25.368c1.355 0 2.453 1.098 2.453 2.453v14.433c0 1.355-1.098 2.453-2.453 2.453z" fill="url(#s)"/><path d="m444.069 87.023v-19.379c0-1.552 1.258-2.811 2.811-2.811h40.531c1.552 0 2.811 1.258 2.811 2.811v19.378c0 1.552-1.258 2.811-2.811 2.811h-40.531c-1.552 0-2.811-1.258-2.811-2.81z" fill="#861719"/><path d="m484.206 87.003h-34.121c-1.552 0-2.811-1.259-2.811-2.811v-13.717c0-1.552 1.259-2.811 2.811-2.811h34.121c1.552 0 2.811 1.259 2.811 2.811v13.718c0 1.552-1.259 2.81-2.811 2.81z" fill="url(#t)"/><path d="m90.444 114.686v-20.928c0-1.125.912-2.036 2.036-2.036h20.149c1.125 0 2.036.912 2.036 2.036v20.927c0 1.125-.912 2.036-2.036 2.036h-20.149c-1.124.001-2.036-.91-2.036-2.035z" fill="#0d0d0d"/><path d="m110.948 113.892h-16.785c-1.125 0-2.036-.912-2.036-2.036v-15.267c0-1.125.912-2.036 2.036-2.036h16.785c1.125 0 2.036.912 2.036 2.036v15.267c0 1.124-.911 2.036-2.036 2.036z" fill="url(#u)"/><path d="m99.694 192.102v-20.928c0-1.125.912-2.036 2.036-2.036h20.149c1.125 0 2.036.912 2.036 2.036v20.927c0 1.125-.912 2.036-2.036 2.036h-20.15c-1.123.001-2.035-.91-2.035-2.035z" fill="#0d0d0d"/><path d="m120.198 191.308h-16.785c-1.125 0-2.036-.912-2.036-2.036v-15.267c0-1.125.912-2.036 2.036-2.036h16.785c1.125 0 2.036.912 2.036 2.036v15.267c0 1.124-.911 2.036-2.036 2.036z" fill="url(#v)"/><path d="m125.378 192.102v-20.928c0-1.125.912-2.036 2.036-2.036h20.149c1.125 0 2.036.912 2.036 2.036v20.927c0 1.125-.912 2.036-2.036 2.036h-20.15c-1.123.001-2.035-.91-2.035-2.035z" fill="#0d0d0d"/><path d="m145.882 191.308h-16.785c-1.125 0-2.036-.912-2.036-2.036v-15.267c0-1.125.912-2.036 2.036-2.036h16.785c1.125 0 2.036.912 2.036 2.036v15.267c0 1.124-.912 2.036-2.036 2.036z" fill="url(#w)"/><path d="m117.583 114.733v-21.021c0-1.099.891-1.99 1.99-1.99h19.148c1.099 0 1.99.891 1.99 1.99v21.02c0 1.099-.891 1.99-1.99 1.99h-19.149c-1.098 0-1.989-.89-1.989-1.989z" fill="#cabfa3"/><path d="m137.115 113.892h-15.936c-1.099 0-1.99-.891-1.99-1.99v-15.36c0-1.099.891-1.99 1.99-1.99h15.936c1.099 0 1.99.891 1.99 1.99v15.36c0 1.099-.891 1.99-1.99 1.99z" fill="#ddd6ba"/><path d="m143.496 114.733v-21.021c0-1.099.891-1.99 1.99-1.99h19.148c1.099 0 1.99.891 1.99 1.99v21.02c0 1.099-.891 1.99-1.99 1.99h-19.149c-1.098 0-1.989-.89-1.989-1.989z" fill="#cabfa3"/><path d="m163.028 113.892h-15.936c-1.099 0-1.99-.891-1.99-1.99v-15.36c0-1.099.891-1.99 1.99-1.99h15.936c1.099 0 1.99.891 1.99 1.99v15.36c0 1.099-.891 1.99-1.99 1.99z" fill="#ddd6ba"/><path d="m169.409 114.733v-21.021c0-1.099.891-1.99 1.99-1.99h19.148c1.099 0 1.99.891 1.99 1.99v21.02c0 1.099-.891 1.99-1.99 1.99h-19.149c-1.098 0-1.989-.89-1.989-1.989z" fill="#cabfa3"/><path d="m188.941 113.892h-15.936c-1.099 0-1.99-.891-1.99-1.99v-15.36c0-1.099.891-1.99 1.99-1.99h15.936c1.099 0 1.99.891 1.99 1.99v15.36c0 1.099-.891 1.99-1.99 1.99z" fill="#ddd6ba"/><path d="m195.322 114.733v-21.021c0-1.099.891-1.99 1.99-1.99h19.148c1.099 0 1.99.891 1.99 1.99v21.02c0 1.099-.891 1.99-1.99 1.99h-19.149c-1.098 0-1.989-.89-1.989-1.989z" fill="#cabfa3"/><path d="m214.854 113.892h-15.936c-1.099 0-1.99-.891-1.99-1.99v-15.36c0-1.099.891-1.99 1.99-1.99h15.936c1.099 0 1.99.891 1.99 1.99v15.36c0 1.099-.891 1.99-1.99 1.99z" fill="#ddd6ba"/><path d="m221.235 114.733v-21.021c0-1.099.891-1.99 1.99-1.99h19.148c1.099 0 1.99.891 1.99 1.99v21.02c0 1.099-.891 1.99-1.99 1.99h-19.149c-1.098 0-1.989-.89-1.989-1.989z" fill="#cabfa3"/><path d="m240.767 113.892h-15.936c-1.099 0-1.99-.891-1.99-1.99v-15.36c0-1.099.891-1.99 1.99-1.99h15.936c1.099 0 1.99.891 1.99 1.99v15.36c0 1.099-.891 1.99-1.99 1.99z" fill="#ddd6ba"/><path d="m247.148 114.733v-21.021c0-1.099.891-1.99 1.99-1.99h19.148c1.099 0 1.99.891 1.99 1.99v21.02c0 1.099-.891 1.99-1.99 1.99h-19.149c-1.098 0-1.989-.89-1.989-1.989z" fill="#cabfa3"/><path d="m266.68 113.892h-15.936c-1.099 0-1.99-.891-1.99-1.99v-15.36c0-1.099.891-1.99 1.99-1.99h15.936c1.099 0 1.99.891 1.99 1.99v15.36c0 1.099-.891 1.99-1.99 1.99z" fill="#ddd6ba"/><path d="m273.061 114.733v-21.021c0-1.099.891-1.99 1.99-1.99h19.148c1.099 0 1.99.891 1.99 1.99v21.02c0 1.099-.891 1.99-1.99 1.99h-19.149c-1.098 0-1.989-.89-1.989-1.989z" fill="#cabfa3"/><path d="m292.593 113.892h-15.936c-1.099 0-1.99-.891-1.99-1.99v-15.36c0-1.099.891-1.99 1.99-1.99h15.936c1.099 0 1.99.891 1.99 1.99v15.36c0 1.099-.891 1.99-1.99 1.99z" fill="#ddd6ba"/><path d="m298.974 114.733v-21.021c0-1.099.891-1.99 1.99-1.99h19.148c1.099 0 1.99.891 1.99 1.99v21.02c0 1.099-.891 1.99-1.99 1.99h-19.149c-1.098 0-1.989-.89-1.989-1.989z" fill="#cabfa3"/><path d="m318.506 113.892h-15.936c-1.099 0-1.99-.891-1.99-1.99v-15.36c0-1.099.891-1.99 1.99-1.99h15.936c1.099 0 1.99.891 1.99 1.99v15.36c0 1.099-.891 1.99-1.99 1.99z" fill="#ddd6ba"/><path d="m324.887 114.733v-21.021c0-1.099.891-1.99 1.99-1.99h19.148c1.099 0 1.99.891 1.99 1.99v21.02c0 1.099-.891 1.99-1.99 1.99h-19.149c-1.098 0-1.989-.89-1.989-1.989z" fill="#cabfa3"/><path d="m344.419 113.892h-15.936c-1.099 0-1.99-.891-1.99-1.99v-15.36c0-1.099.891-1.99 1.99-1.99h15.936c1.099 0 1.99.891 1.99 1.99v15.36c0 1.099-.891 1.99-1.99 1.99z" fill="#ddd6ba"/><path d="m350.8 114.733v-21.021c0-1.099.891-1.99 1.99-1.99h19.148c1.099 0 1.99.891 1.99 1.99v21.02c0 1.099-.891 1.99-1.99 1.99h-19.149c-1.098 0-1.989-.89-1.989-1.989z" fill="#cabfa3"/><path d="m370.332 113.892h-15.936c-1.099 0-1.99-.891-1.99-1.99v-15.36c0-1.099.891-1.99 1.99-1.99h15.936c1.099 0 1.99.891 1.99 1.99v15.36c0 1.099-.891 1.99-1.99 1.99z" fill="#ddd6ba"/><path d="m376.713 114.733v-21.021c0-1.099.891-1.99 1.99-1.99h19.148c1.099 0 1.99.891 1.99 1.99v21.02c0 1.099-.891 1.99-1.99 1.99h-19.149c-1.099 0-1.989-.89-1.989-1.989z" fill="#cabfa3"/><path d="m396.245 113.892h-15.936c-1.099 0-1.99-.891-1.99-1.99v-15.36c0-1.099.891-1.99 1.99-1.99h15.936c1.099 0 1.99.891 1.99 1.99v15.36c0 1.099-.891 1.99-1.99 1.99z" fill="#ddd6ba"/><path d="m402.626 114.733v-21.021c0-1.099.891-1.99 1.99-1.99h19.148c1.099 0 1.99.891 1.99 1.99v21.02c0 1.099-.891 1.99-1.99 1.99h-19.149c-1.099 0-1.989-.89-1.989-1.989z" fill="#cabfa3"/><path d="m422.158 113.892h-15.936c-1.099 0-1.99-.891-1.99-1.99v-15.36c0-1.099.891-1.99 1.99-1.99h15.936c1.099 0 1.99.891 1.99 1.99v15.36c0 1.099-.891 1.99-1.99 1.99z" fill="#ddd6ba"/><path d="m428.539 114.733v-21.021c0-1.099.891-1.99 1.99-1.99h19.148c1.099 0 1.99.891 1.99 1.99v21.02c0 1.099-.891 1.99-1.99 1.99h-19.149c-1.099 0-1.989-.89-1.989-1.989z" fill="#cabfa3"/><path d="m448.071 113.892h-15.936c-1.099 0-1.99-.891-1.99-1.99v-15.36c0-1.099.891-1.99 1.99-1.99h15.936c1.099 0 1.99.891 1.99 1.99v15.36c-.001 1.099-.891 1.99-1.99 1.99z" fill="#ddd6ba"/><path d="m130.292 140.538v-21.021c0-1.099.891-1.99 1.99-1.99h19.148c1.099 0 1.99.891 1.99 1.99v21.021c0 1.099-.891 1.99-1.99 1.99h-19.149c-1.098 0-1.989-.891-1.989-1.99z" fill="#cabfa3"/><path d="m149.824 139.697h-15.936c-1.099 0-1.99-.891-1.99-1.99v-15.36c0-1.099.891-1.99 1.99-1.99h15.936c1.099 0 1.99.891 1.99 1.99v15.36c0 1.1-.891 1.99-1.99 1.99z" fill="#ddd6ba"/><path d="m156.205 140.538v-21.021c0-1.099.891-1.99 1.99-1.99h19.148c1.099 0 1.99.891 1.99 1.99v21.021c0 1.099-.891 1.99-1.99 1.99h-19.149c-1.098 0-1.989-.891-1.989-1.99z" fill="#cabfa3"/><path d="m175.737 139.697h-15.936c-1.099 0-1.99-.891-1.99-1.99v-15.36c0-1.099.891-1.99 1.99-1.99h15.936c1.099 0 1.99.891 1.99 1.99v15.36c0 1.1-.891 1.99-1.99 1.99z" fill="#ddd6ba"/><path d="m182.118 140.538v-21.021c0-1.099.891-1.99 1.99-1.99h19.148c1.099 0 1.99.891 1.99 1.99v21.021c0 1.099-.891 1.99-1.99 1.99h-19.149c-1.098 0-1.989-.891-1.989-1.99z" fill="#cabfa3"/><path d="m201.65 139.697h-15.936c-1.099 0-1.99-.891-1.99-1.99v-15.36c0-1.099.891-1.99 1.99-1.99h15.936c1.099 0 1.99.891 1.99 1.99v15.36c0 1.1-.891 1.99-1.99 1.99z" fill="#ddd6ba"/><path d="m208.031 140.538v-21.021c0-1.099.891-1.99 1.99-1.99h19.148c1.099 0 1.99.891 1.99 1.99v21.021c0 1.099-.891 1.99-1.99 1.99h-19.149c-1.098 0-1.989-.891-1.989-1.99z" fill="#cabfa3"/><path d="m227.563 139.697h-15.936c-1.099 0-1.99-.891-1.99-1.99v-15.36c0-1.099.891-1.99 1.99-1.99h15.936c1.099 0 1.99.891 1.99 1.99v15.36c0 1.1-.891 1.99-1.99 1.99z" fill="#ddd6ba"/><path d="m233.944 140.538v-21.021c0-1.099.891-1.99 1.99-1.99h19.148c1.099 0 1.99.891 1.99 1.99v21.021c0 1.099-.891 1.99-1.99 1.99h-19.149c-1.099 0-1.989-.891-1.989-1.99z" fill="#cabfa3"/><path d="m253.476 139.697h-15.936c-1.099 0-1.99-.891-1.99-1.99v-15.36c0-1.099.891-1.99 1.99-1.99h15.936c1.099 0 1.99.891 1.99 1.99v15.36c0 1.1-.891 1.99-1.99 1.99z" fill="#ddd6ba"/><path d="m259.857 140.538v-21.021c0-1.099.891-1.99 1.99-1.99h19.148c1.099 0 1.99.891 1.99 1.99v21.021c0 1.099-.891 1.99-1.99 1.99h-19.149c-1.099 0-1.989-.891-1.989-1.99z" fill="#cabfa3"/><path d="m279.389 139.697h-15.936c-1.099 0-1.99-.891-1.99-1.99v-15.36c0-1.099.891-1.99 1.99-1.99h15.936c1.099 0 1.99.891 1.99 1.99v15.36c0 1.1-.891 1.99-1.99 1.99z" fill="#ddd6ba"/><path d="m285.77 140.538v-21.021c0-1.099.891-1.99 1.99-1.99h19.148c1.099 0 1.99.891 1.99 1.99v21.021c0 1.099-.891 1.99-1.99 1.99h-19.149c-1.099 0-1.989-.891-1.989-1.99z" fill="#cabfa3"/><path d="m305.302 139.697h-15.936c-1.099 0-1.99-.891-1.99-1.99v-15.36c0-1.099.891-1.99 1.99-1.99h15.936c1.099 0 1.99.891 1.99 1.99v15.36c-.001 1.1-.891 1.99-1.99 1.99z" fill="#ddd6ba"/><path d="m311.683 140.538v-21.021c0-1.099.891-1.99 1.99-1.99h19.148c1.099 0 1.99.891 1.99 1.99v21.021c0 1.099-.891 1.99-1.99 1.99h-19.149c-1.099 0-1.989-.891-1.989-1.99z" fill="#cabfa3"/><path d="m331.215 139.697h-15.936c-1.099 0-1.99-.891-1.99-1.99v-15.36c0-1.099.891-1.99 1.99-1.99h15.936c1.099 0 1.99.891 1.99 1.99v15.36c-.001 1.1-.892 1.99-1.99 1.99z" fill="#ddd6ba"/><path d="m337.596 140.538v-21.021c0-1.099.891-1.99 1.99-1.99h19.148c1.099 0 1.99.891 1.99 1.99v21.021c0 1.099-.891 1.99-1.99 1.99h-19.149c-1.099 0-1.989-.891-1.989-1.99z" fill="#cabfa3"/><path d="m357.127 139.697h-15.936c-1.099 0-1.99-.891-1.99-1.99v-15.36c0-1.099.891-1.99 1.99-1.99h15.936c1.099 0 1.99.891 1.99 1.99v15.36c0 1.1-.891 1.99-1.99 1.99z" fill="#ddd6ba"/><path d="m363.508 140.538v-21.021c0-1.099.891-1.99 1.99-1.99h19.148c1.099 0 1.99.891 1.99 1.99v21.021c0 1.099-.891 1.99-1.99 1.99h-19.149c-1.098 0-1.989-.891-1.989-1.99z" fill="#cabfa3"/><path d="m383.04 139.697h-15.936c-1.099 0-1.99-.891-1.99-1.99v-15.36c0-1.099.891-1.99 1.99-1.99h15.936c1.099 0 1.99.891 1.99 1.99v15.36c0 1.1-.891 1.99-1.99 1.99z" fill="#ddd6ba"/><path d="m389.421 140.538v-21.021c0-1.099.891-1.99 1.99-1.99h19.148c1.099 0 1.99.891 1.99 1.99v21.021c0 1.099-.891 1.99-1.99 1.99h-19.149c-1.098 0-1.989-.891-1.989-1.99z" fill="#cabfa3"/><path d="m408.953 139.697h-15.936c-1.099 0-1.99-.891-1.99-1.99v-15.36c0-1.099.891-1.99 1.99-1.99h15.936c1.099 0 1.99.891 1.99 1.99v15.36c0 1.1-.891 1.99-1.99 1.99z" fill="#ddd6ba"/><path d="m415.334 140.538v-21.021c0-1.099.891-1.99 1.99-1.99h19.148c1.099 0 1.99.891 1.99 1.99v21.021c0 1.099-.891 1.99-1.99 1.99h-19.149c-1.098 0-1.989-.891-1.989-1.99z" fill="#cabfa3"/><path d="m434.866 139.697h-15.936c-1.099 0-1.99-.891-1.99-1.99v-15.36c0-1.099.891-1.99 1.99-1.99h15.936c1.099 0 1.99.891 1.99 1.99v15.36c0 1.1-.891 1.99-1.99 1.99z" fill="#ddd6ba"/><path d="m441.247 140.538v-21.021c0-1.099.891-1.99 1.99-1.99h19.148c1.099 0 1.99.891 1.99 1.99v21.021c0 1.099-.891 1.99-1.99 1.99h-19.149c-1.098 0-1.989-.891-1.989-1.99z" fill="#cabfa3"/><path d="m460.779 139.697h-15.936c-1.099 0-1.99-.891-1.99-1.99v-15.36c0-1.099.891-1.99 1.99-1.99h15.936c1.099 0 1.99.891 1.99 1.99v15.36c0 1.1-.891 1.99-1.99 1.99z" fill="#ddd6ba"/><path d="m138.105 166.344v-21.021c0-1.099.891-1.99 1.99-1.99h19.148c1.099 0 1.99.891 1.99 1.99v21.02c0 1.099-.891 1.99-1.99 1.99h-19.149c-1.098 0-1.989-.891-1.989-1.989z" fill="#cabfa3"/><path d="m157.637 165.503h-15.936c-1.099 0-1.99-.891-1.99-1.99v-15.36c0-1.099.891-1.99 1.99-1.99h15.936c1.099 0 1.99.891 1.99 1.99v15.36c0 1.099-.891 1.99-1.99 1.99z" fill="#ddd6ba"/><path d="m164.018 166.344v-21.021c0-1.099.891-1.99 1.99-1.99h19.148c1.099 0 1.99.891 1.99 1.99v21.02c0 1.099-.891 1.99-1.99 1.99h-19.149c-1.098 0-1.989-.891-1.989-1.989z" fill="#cabfa3"/><path d="m183.55 165.503h-15.936c-1.099 0-1.99-.891-1.99-1.99v-15.36c0-1.099.891-1.99 1.99-1.99h15.936c1.099 0 1.99.891 1.99 1.99v15.36c0 1.099-.891 1.99-1.99 1.99z" fill="#ddd6ba"/><path d="m189.931 166.344v-21.021c0-1.099.891-1.99 1.99-1.99h19.148c1.099 0 1.99.891 1.99 1.99v21.02c0 1.099-.891 1.99-1.99 1.99h-19.149c-1.098 0-1.989-.891-1.989-1.989z" fill="#cabfa3"/><path d="m209.463 165.503h-15.936c-1.099 0-1.99-.891-1.99-1.99v-15.36c0-1.099.891-1.99 1.99-1.99h15.936c1.099 0 1.99.891 1.99 1.99v15.36c0 1.099-.891 1.99-1.99 1.99z" fill="#ddd6ba"/><path d="m215.844 166.344v-21.021c0-1.099.891-1.99 1.99-1.99h19.148c1.099 0 1.99.891 1.99 1.99v21.02c0 1.099-.891 1.99-1.99 1.99h-19.149c-1.098 0-1.989-.891-1.989-1.989z" fill="#cabfa3"/><path d="m235.376 165.503h-15.936c-1.099 0-1.99-.891-1.99-1.99v-15.36c0-1.099.891-1.99 1.99-1.99h15.936c1.099 0 1.99.891 1.99 1.99v15.36c0 1.099-.891 1.99-1.99 1.99z" fill="#ddd6ba"/><path d="m241.757 166.344v-21.021c0-1.099.891-1.99 1.99-1.99h19.148c1.099 0 1.99.891 1.99 1.99v21.02c0 1.099-.891 1.99-1.99 1.99h-19.149c-1.098 0-1.989-.891-1.989-1.989z" fill="#cabfa3"/><path d="m261.289 165.503h-15.936c-1.099 0-1.99-.891-1.99-1.99v-15.36c0-1.099.891-1.99 1.99-1.99h15.936c1.099 0 1.99.891 1.99 1.99v15.36c0 1.099-.891 1.99-1.99 1.99z" fill="#ddd6ba"/><path d="m267.67 166.344v-21.021c0-1.099.891-1.99 1.99-1.99h19.148c1.099 0 1.99.891 1.99 1.99v21.02c0 1.099-.891 1.99-1.99 1.99h-19.149c-1.098 0-1.989-.891-1.989-1.989z" fill="#cabfa3"/><path d="m287.202 165.503h-15.936c-1.099 0-1.99-.891-1.99-1.99v-15.36c0-1.099.891-1.99 1.99-1.99h15.936c1.099 0 1.99.891 1.99 1.99v15.36c0 1.099-.891 1.99-1.99 1.99z" fill="#ddd6ba"/><path d="m293.583 166.344v-21.021c0-1.099.891-1.99 1.99-1.99h19.148c1.099 0 1.99.891 1.99 1.99v21.02c0 1.099-.891 1.99-1.99 1.99h-19.149c-1.099 0-1.989-.891-1.989-1.989z" fill="#cabfa3"/><path d="m313.115 165.503h-15.936c-1.099 0-1.99-.891-1.99-1.99v-15.36c0-1.099.891-1.99 1.99-1.99h15.936c1.099 0 1.99.891 1.99 1.99v15.36c0 1.099-.891 1.99-1.99 1.99z" fill="#ddd6ba"/><path d="m319.496 166.344v-21.021c0-1.099.891-1.99 1.99-1.99h19.148c1.099 0 1.99.891 1.99 1.99v21.02c0 1.099-.891 1.99-1.99 1.99h-19.149c-1.099 0-1.989-.891-1.989-1.989z" fill="#cabfa3"/><path d="m339.028 165.503h-15.936c-1.099 0-1.99-.891-1.99-1.99v-15.36c0-1.099.891-1.99 1.99-1.99h15.936c1.099 0 1.99.891 1.99 1.99v15.36c0 1.099-.891 1.99-1.99 1.99z" fill="#ddd6ba"/><path d="m345.409 166.344v-21.021c0-1.099.891-1.99 1.99-1.99h19.148c1.099 0 1.99.891 1.99 1.99v21.02c0 1.099-.891 1.99-1.99 1.99h-19.149c-1.099 0-1.989-.891-1.989-1.989z" fill="#cabfa3"/><path d="m364.941 165.503h-15.936c-1.099 0-1.99-.891-1.99-1.99v-15.36c0-1.099.891-1.99 1.99-1.99h15.936c1.099 0 1.99.891 1.99 1.99v15.36c-.001 1.099-.891 1.99-1.99 1.99z" fill="#ddd6ba"/><path d="m371.322 166.344v-21.021c0-1.099.891-1.99 1.99-1.99h19.148c1.099 0 1.99.891 1.99 1.99v21.02c0 1.099-.891 1.99-1.99 1.99h-19.149c-1.099 0-1.989-.891-1.989-1.989z" fill="#cabfa3"/><path d="m390.854 165.503h-15.936c-1.099 0-1.99-.891-1.99-1.99v-15.36c0-1.099.891-1.99 1.99-1.99h15.936c1.099 0 1.99.891 1.99 1.99v15.36c-.001 1.099-.891 1.99-1.99 1.99z" fill="#ddd6ba"/><path d="m397.235 166.344v-21.021c0-1.099.891-1.99 1.99-1.99h19.148c1.099 0 1.99.891 1.99 1.99v21.02c0 1.099-.891 1.99-1.99 1.99h-19.149c-1.099 0-1.989-.891-1.989-1.989z" fill="#cabfa3"/><path d="m416.766 165.503h-15.936c-1.099 0-1.99-.891-1.99-1.99v-15.36c0-1.099.891-1.99 1.99-1.99h15.936c1.099 0 1.99.891 1.99 1.99v15.36c0 1.099-.891 1.99-1.99 1.99z" fill="#ddd6ba"/><path d="m423.148 166.344v-21.021c0-1.099.891-1.99 1.99-1.99h19.148c1.099 0 1.99.891 1.99 1.99v21.02c0 1.099-.891 1.99-1.99 1.99h-19.149c-1.099 0-1.989-.891-1.989-1.989z" fill="#cabfa3"/><path d="m442.679 165.503h-15.936c-1.099 0-1.99-.891-1.99-1.99v-15.36c0-1.099.891-1.99 1.99-1.99h15.936c1.099 0 1.99.891 1.99 1.99v15.36c0 1.099-.891 1.99-1.99 1.99z" fill="#ddd6ba"/><path d="m346.064 219.944h19.009c1.091 0 1.975-.891 1.975-1.99v-21.02c0-1.099-.884-1.99-1.975-1.99h-19.009-180.071c-1.091 0-1.975.891-1.975 1.99v21.021c0 1.099.884 1.989 1.975 1.989z" fill="#cabfa3"/><path d="m347.659 217.113h15.82c1.091 0 1.975-.891 1.975-1.99v-15.36c0-1.099-.884-1.99-1.975-1.99h-15.82-180.071c-1.091 0-1.975.891-1.975 1.99v15.36c0 1.099.884 1.99 1.975 1.99z" fill="#ddd6ba"/><path d="m151.062 192.159v-21.041c0-1.093.886-1.98 1.98-1.98h18.937c1.093 0 1.98.886 1.98 1.98v21.04c0 1.093-.886 1.98-1.98 1.98h-18.937c-1.094 0-1.98-.886-1.98-1.979z" fill="#cabfa3"/><path d="m170.388 191.308h-15.757c-1.093 0-1.98-.886-1.98-1.98v-15.38c0-1.093.886-1.98 1.98-1.98h15.757c1.093 0 1.98.886 1.98 1.98v15.38c0 1.094-.886 1.98-1.98 1.98z" fill="#ddd6ba"/><path d="m176.715 192.159v-21.041c0-1.093.886-1.98 1.98-1.98h18.937c1.093 0 1.98.886 1.98 1.98v21.04c0 1.093-.886 1.98-1.98 1.98h-18.937c-1.093 0-1.98-.886-1.98-1.979z" fill="#cabfa3"/><path d="m196.042 191.308h-15.757c-1.093 0-1.98-.886-1.98-1.98v-15.38c0-1.093.886-1.98 1.98-1.98h15.757c1.093 0 1.98.886 1.98 1.98v15.38c0 1.094-.887 1.98-1.98 1.98z" fill="#ddd6ba"/><path d="m202.369 192.159v-21.041c0-1.093.886-1.98 1.98-1.98h18.937c1.093 0 1.98.886 1.98 1.98v21.04c0 1.093-.886 1.98-1.98 1.98h-18.937c-1.094 0-1.98-.886-1.98-1.979z" fill="#cabfa3"/><path d="m221.696 191.308h-15.757c-1.093 0-1.98-.886-1.98-1.98v-15.38c0-1.093.886-1.98 1.98-1.98h15.757c1.093 0 1.98.886 1.98 1.98v15.38c0 1.094-.887 1.98-1.98 1.98z" fill="#ddd6ba"/><path d="m228.023 192.159v-21.041c0-1.093.886-1.98 1.98-1.98h18.937c1.093 0 1.98.886 1.98 1.98v21.04c0 1.093-.886 1.98-1.98 1.98h-18.937c-1.094 0-1.98-.886-1.98-1.979z" fill="#cabfa3"/><path d="m247.349 191.308h-15.757c-1.093 0-1.98-.886-1.98-1.98v-15.38c0-1.093.886-1.98 1.98-1.98h15.757c1.093 0 1.98.886 1.98 1.98v15.38c0 1.094-.886 1.98-1.98 1.98z" fill="#ddd6ba"/><path d="m253.677 192.159v-21.041c0-1.093.886-1.98 1.98-1.98h18.937c1.093 0 1.98.886 1.98 1.98v21.04c0 1.093-.886 1.98-1.98 1.98h-18.937c-1.094 0-1.98-.886-1.98-1.979z" fill="#cabfa3"/><path d="m273.003 191.308h-15.757c-1.093 0-1.98-.886-1.98-1.98v-15.38c0-1.093.886-1.98 1.98-1.98h15.757c1.093 0 1.98.886 1.98 1.98v15.38c0 1.094-.886 1.98-1.98 1.98z" fill="#ddd6ba"/><path d="m279.33 192.159v-21.041c0-1.093.886-1.98 1.98-1.98h18.937c1.093 0 1.98.886 1.98 1.98v21.04c0 1.093-.886 1.98-1.98 1.98h-18.937c-1.094 0-1.98-.886-1.98-1.979z" fill="#cabfa3"/><path d="m298.657 191.308h-15.757c-1.093 0-1.98-.886-1.98-1.98v-15.38c0-1.093.886-1.98 1.98-1.98h15.757c1.093 0 1.98.886 1.98 1.98v15.38c0 1.094-.887 1.98-1.98 1.98z" fill="#ddd6ba"/><path d="m304.984 192.159v-21.041c0-1.093.886-1.98 1.98-1.98h18.937c1.093 0 1.98.886 1.98 1.98v21.04c0 1.093-.886 1.98-1.98 1.98h-18.937c-1.094 0-1.98-.886-1.98-1.979z" fill="#cabfa3"/><path d="m324.311 191.308h-15.757c-1.093 0-1.98-.886-1.98-1.98v-15.38c0-1.093.886-1.98 1.98-1.98h15.757c1.093 0 1.98.886 1.98 1.98v15.38c0 1.094-.887 1.98-1.98 1.98z" fill="#ddd6ba"/><path d="m330.638 192.159v-21.041c0-1.093.886-1.98 1.98-1.98h18.937c1.093 0 1.98.886 1.98 1.98v21.04c0 1.093-.886 1.98-1.98 1.98h-18.937c-1.094 0-1.98-.886-1.98-1.979z" fill="#cabfa3"/><path d="m349.964 191.308h-15.757c-1.093 0-1.98-.886-1.98-1.98v-15.38c0-1.093.886-1.98 1.98-1.98h15.757c1.093 0 1.98.886 1.98 1.98v15.38c0 1.094-.886 1.98-1.98 1.98z" fill="#ddd6ba"/><path d="m356.291 192.159v-21.041c0-1.093.886-1.98 1.98-1.98h18.937c1.093 0 1.98.886 1.98 1.98v21.04c0 1.093-.886 1.98-1.98 1.98h-18.937c-1.093 0-1.98-.886-1.98-1.979z" fill="#cabfa3"/><path d="m375.618 191.308h-15.757c-1.093 0-1.98-.886-1.98-1.98v-15.38c0-1.093.886-1.98 1.98-1.98h15.757c1.093 0 1.98.886 1.98 1.98v15.38c0 1.094-.886 1.98-1.98 1.98z" fill="#ddd6ba"/><path d="m381.945 192.159v-21.041c0-1.093.886-1.98 1.98-1.98h18.937c1.093 0 1.98.886 1.98 1.98v21.04c0 1.093-.886 1.98-1.98 1.98h-18.937c-1.094 0-1.98-.886-1.98-1.979z" fill="#cabfa3"/><path d="m401.272 191.308h-15.757c-1.093 0-1.98-.886-1.98-1.98v-15.38c0-1.093.886-1.98 1.98-1.98h15.757c1.093 0 1.98.886 1.98 1.98v15.38c0 1.094-.887 1.98-1.98 1.98z" fill="#ddd6ba"/><path d="m138.003 217.908v-20.928c0-1.125.912-2.036 2.036-2.036h20.15c1.125 0 2.036.912 2.036 2.036v20.927c0 1.125-.912 2.036-2.036 2.036h-20.15c-1.125.001-2.036-.911-2.036-2.035z" fill="#0d0d0d"/><path d="m158.506 217.113h-16.785c-1.125 0-2.036-.912-2.036-2.036v-15.267c0-1.125.912-2.036 2.036-2.036h16.785c1.125 0 2.036.912 2.036 2.036v15.267c.001 1.125-.911 2.036-2.036 2.036z" fill="url(#x)"/><path d="m368.842 217.462v-20.036c0-1.371 1.111-2.483 2.483-2.483h31.035c1.371 0 2.483 1.111 2.483 2.483v20.035c0 1.371-1.111 2.483-2.483 2.483h-31.035c-1.372 0-2.483-1.111-2.483-2.482z" fill="#0d0d0d"/><path d="m399.859 217.113h-26.035c-1.371 0-2.483-1.112-2.483-2.483v-14.374c0-1.371 1.112-2.483 2.483-2.483h26.035c1.371 0 2.483 1.112 2.483 2.483v14.374c0 1.372-1.112 2.483-2.483 2.483z" fill="url(#y)"/><path d="m454.222 114.24v-20.035c0-1.371 1.111-2.483 2.483-2.483h31.035c1.371 0 2.483 1.111 2.483 2.483v20.035c0 1.371-1.111 2.483-2.483 2.483h-31.035c-1.372-.001-2.483-1.112-2.483-2.483z" fill="#0d0d0d"/><path d="m485.239 113.892h-26.035c-1.371 0-2.483-1.112-2.483-2.483v-14.374c0-1.371 1.112-2.483 2.483-2.483h26.035c1.371 0 2.483 1.112 2.483 2.483v14.374c0 1.371-1.111 2.483-2.483 2.483z" fill="url(#z)"/><path d="m448.517 165.851v-20.036c0-1.371 1.111-2.483 2.483-2.483h31.035c1.371 0 2.483 1.111 2.483 2.483v20.035c0 1.371-1.111 2.483-2.483 2.483h-31.035c-1.372 0-2.483-1.111-2.483-2.482z" fill="#0d0d0d"/><path d="m479.534 165.503h-26.035c-1.371 0-2.483-1.112-2.483-2.483v-14.374c0-1.371 1.112-2.483 2.483-2.483h26.035c1.371 0 2.483 1.112 2.483 2.483v14.374c0 1.371-1.112 2.483-2.483 2.483z" fill="url(#A)"/><path d="m466 140.492v-20.928c0-1.125.912-2.036 2.036-2.036h20.15c1.125 0 2.036.912 2.036 2.036v20.927c0 1.125-.912 2.036-2.036 2.036h-20.15c-1.124.001-2.036-.911-2.036-2.035z" fill="#0d0d0d"/><path d="m486.504 139.697h-16.785c-1.125 0-2.036-.912-2.036-2.036v-15.267c0-1.125.912-2.036 2.036-2.036h16.785c1.125 0 2.036.912 2.036 2.036v15.267c0 1.125-.912 2.036-2.036 2.036z" fill="url(#B)"/><path d="m434.164 192.103v-20.928c0-1.125.912-2.036 2.036-2.036h20.15c1.125 0 2.036.912 2.036 2.036v20.927c0 1.125-.912 2.036-2.036 2.036h-20.15c-1.124 0-2.036-.911-2.036-2.035z" fill="#0d0d0d"/><path d="m454.668 191.308h-16.785c-1.125 0-2.036-.912-2.036-2.036v-15.267c0-1.125.912-2.036 2.036-2.036h16.785c1.125 0 2.036.912 2.036 2.036v15.267c0 1.124-.911 2.036-2.036 2.036z" fill="url(#C)"/><path d="m434.164 217.908v-20.928c0-1.125.912-2.036 2.036-2.036h20.15c1.125 0 2.036.912 2.036 2.036v20.927c0 1.125-.912 2.036-2.036 2.036h-20.15c-1.124.001-2.036-.911-2.036-2.035z" fill="#0d0d0d"/><path d="m454.668 217.113h-16.785c-1.125 0-2.036-.912-2.036-2.036v-15.267c0-1.125.912-2.036 2.036-2.036h16.785c1.125 0 2.036.912 2.036 2.036v15.267c0 1.125-.911 2.036-2.036 2.036z" fill="url(#D)"/><path d="m407.392 196.98v20.928c0 1.124.912 2.036 2.036 2.036h20.15c1.125 0 2.036-.912 2.036-2.036v-20.928-25.805c0-1.125-.912-2.036-2.036-2.036h-20.149c-1.125 0-2.036.912-2.036 2.036-.001 0-.001 25.805-.001 25.805z" fill="#0d0d0d"/><path d="m409.074 189.272v25.805c0 1.125.912 2.036 2.036 2.036h16.785c1.125 0 2.036-.912 2.036-2.036v-25.805-15.267c0-1.125-.912-2.036-2.036-2.036h-16.785c-1.125 0-2.036.912-2.036 2.036z" fill="url(#E)"/><path d="m460.295 196.98v20.928c0 1.124.912 2.036 2.036 2.036h20.15c1.125 0 2.036-.912 2.036-2.036v-20.928-25.805c0-1.125-.912-2.036-2.036-2.036h-20.15c-1.125 0-2.036.912-2.036 2.036z" fill="#0d0d0d"/><path d="m461.977 189.272v25.805c0 1.125.912 2.036 2.036 2.036h16.785c1.125 0 2.036-.912 2.036-2.036v-25.805-15.267c0-1.125-.912-2.036-2.036-2.036h-16.785c-1.125 0-2.036.912-2.036 2.036z" fill="url(#F)"/><g fill="#fff"><path d="m18.263 23.413h2.52c-.088-1.043-.738-1.87-1.854-1.87-.433 0-.811.12-1.156.273l-.168-.538c.385-.168.851-.313 1.364-.313 1.702 0 2.568 1.228 2.568 2.801 0 1.774-1.172 2.785-2.608 2.785-.538 0-1.027-.104-1.413-.281l.152-.554c.313.145.763.249 1.164.249 1.196 0 1.91-.867 1.958-1.991h-2.528v-.561z"/><path d="m27.338 21.285v5.177h-.931v-4.439h-1.775v1.348c0 1.455-.139 2.428-.813 2.867-.257.203-.545.321-1.027.321l-.096-.738c.182-.032.385-.107.513-.214.481-.353.535-1.08.535-2.235v-2.086h3.594z"/><path d="m30.526 24.045c.021 1.273.834 1.797 1.775 1.797.674 0 1.081-.118 1.433-.267l.161.674c-.332.15-.898.321-1.722.321-1.594 0-2.546-1.048-2.546-2.61s.92-2.792 2.428-2.792c1.69 0 2.139 1.487 2.139 2.439 0 .192-.021.342-.032.438zm2.759-.674c.011-.599-.246-1.529-1.305-1.529-.952 0-1.369.877-1.444 1.529z"/><path d="m37.414 21.285v2.247h.225l1.947-2.247h1.145l-2.257 2.343c.834.085 1.337.642 1.743 1.572.139.342.321.845.557 1.262h-.984c-.139-.225-.321-.631-.481-1.059-.353-.834-.834-1.219-1.711-1.219h-.182v2.278h-.931v-5.177z"/><path d="m46.41 21.285v.749h-1.615v4.428h-.931v-4.428h-1.615v-.749z"/><path d="m48.357 22.976c0-.664-.021-1.198-.042-1.69h.845l.043.888h.021c.385-.631.995-1.006 1.839-1.006 1.251 0 2.193 1.059 2.193 2.631 0 1.861-1.134 2.781-2.353 2.781-.685 0-1.284-.299-1.594-.813h-.021v2.813h-.931zm.93 1.379c0 .139.021.268.043.385.171.652.738 1.102 1.412 1.102.995 0 1.572-.812 1.572-2 0-1.038-.545-1.925-1.54-1.925-.642 0-1.241.46-1.423 1.166-.032.118-.064.256-.064.385z"/><path d="m60.251 23.831c0 1.915-1.326 2.749-2.578 2.749-1.401 0-2.482-1.027-2.482-2.664 0-1.733 1.134-2.749 2.567-2.749 1.488 0 2.493 1.081 2.493 2.664zm-4.107.054c0 1.134.652 1.989 1.572 1.989.898 0 1.573-.845 1.573-2.011 0-.877-.439-1.99-1.551-1.99s-1.594 1.027-1.594 2.012z"/><path d="m63.471 21.285v2.086h2.46v-2.086h.93v5.177h-.93v-2.342h-2.46v2.342h-.931v-5.177z"/><path d="m70.391 21.285v2.182c0 .824-.011 1.337-.054 2.075l.032.011c.31-.631.492-.995.834-1.594l1.615-2.674h1.102v5.177h-.899v-2.193c0-.845.021-1.284.064-2.118h-.032c-.332.663-.556 1.08-.855 1.604-.492.802-1.059 1.797-1.615 2.706h-1.081v-5.177h.889z"/><path d="m77.505 21.285v2.247h.225l1.947-2.247h1.145l-2.257 2.343c.834.085 1.337.642 1.743 1.572.139.342.321.845.557 1.262h-.984c-.139-.225-.321-.631-.481-1.059-.353-.834-.834-1.219-1.711-1.219h-.182v2.278h-.931v-5.177z"/><path d="m85.794 26.462-.074-.652h-.032c-.289.406-.845.77-1.583.77-1.048 0-1.583-.738-1.583-1.487 0-1.251 1.112-1.936 3.112-1.925v-.107c0-.428-.118-1.198-1.176-1.198-.481 0-.984.15-1.348.385l-.214-.621c.428-.278 1.048-.46 1.701-.46 1.583 0 1.968 1.081 1.968 2.118v1.936c0 .449.021.888.086 1.241zm-.139-2.642c-1.027-.021-2.193.161-2.193 1.166 0 .61.407.898.888.898.674 0 1.102-.428 1.251-.866.032-.097.053-.204.053-.3v-.898z"/><path d="m23.395 33.835v.75h-2.988v1.859c.216-.031.626-.051.853-.051.657 0 1.304.144 1.787.462.524.339.883.883.883 1.694 0 .647-.216 1.14-.575 1.5-.565.555-1.499.77-2.444.77-.626 0-1.099-.041-1.397-.082v-6.901h3.881zm-2.988 6.233c.206.041.441.051.75.051.555 0 1.12-.174 1.458-.534.236-.246.38-.585.38-1.017 0-.534-.226-.893-.565-1.129-.359-.247-.821-.349-1.314-.349-.205 0-.482.021-.708.041v2.937z"/><path d="m27.29 33.835v3.07h.277l2.372-3.07h1.078l-2.619 3.173c1.14.154 1.582.852 1.941 1.787.257.708.452 1.345.76 1.961h-.965c-.247-.472-.442-1.088-.626-1.633-.318-.914-.76-1.541-1.931-1.541h-.287v3.173h-.883v-6.921h.883z"/><path d="m47.887 37.347c0 2.27-.842 3.522-2.321 3.522-1.304 0-2.188-1.222-2.208-3.43 0-2.239.965-3.471 2.321-3.471 1.407 0 2.208 1.253 2.208 3.379zm-3.625.103c0 1.735.534 2.721 1.355 2.721.924 0 1.366-1.078 1.366-2.783 0-1.643-.421-2.722-1.355-2.722-.791 0-1.366.966-1.366 2.784z"/><path d="m54.472 37.347c0 2.27-.842 3.522-2.321 3.522-1.304 0-2.188-1.222-2.208-3.43 0-2.239.965-3.471 2.321-3.471 1.407 0 2.208 1.253 2.208 3.379zm-3.625.103c0 1.735.534 2.721 1.355 2.721.924 0 1.366-1.078 1.366-2.783 0-1.643-.421-2.722-1.355-2.722-.791 0-1.366.966-1.366 2.784z"/><path d="m58.582 34.923h-.021l-1.16.626-.175-.688 1.458-.78h.77v6.675h-.873v-5.833z"/><path d="m67.642 37.347c0 2.27-.842 3.522-2.321 3.522-1.304 0-2.188-1.222-2.208-3.43 0-2.239.965-3.471 2.321-3.471 1.407 0 2.208 1.253 2.208 3.379zm-3.625.103c0 1.735.534 2.721 1.355 2.721.924 0 1.366-1.078 1.366-2.783 0-1.643-.421-2.722-1.355-2.722-.79 0-1.366.966-1.366 2.784z"/><path d="m72.174 37.645v.667h-2.537v-.667z"/><path d="m78.697 37.347c0 2.27-.842 3.522-2.321 3.522-1.304 0-2.188-1.222-2.208-3.43 0-2.239.965-3.471 2.321-3.471 1.406 0 2.208 1.253 2.208 3.379zm-3.625.103c0 1.735.534 2.721 1.355 2.721.924 0 1.366-1.078 1.366-2.783 0-1.643-.421-2.722-1.355-2.722-.791 0-1.366.966-1.366 2.784z"/><path d="m82.806 34.923h-.021l-1.16.626-.175-.688 1.458-.78h.77v6.675h-.873v-5.833z"/></g></svg>