<svg enable-background="new 0 0 30 30" viewBox="0 0 30 30" xmlns="http://www.w3.org/2000/svg"><path d="m20.729 19.102 9.271-6.736h-11.459l-3.541-10.898-3.541 10.898h-11.459l9.271 6.736-3.542 10.898 9.271-6.735 9.271 6.735z" fill="#3d3d3d"/><path d="m15.036 12.427c1.008.359 1.941.925 2.728 1.65.755.703 1.395 1.565 1.7 2.561.207.64.164 1.332.028 1.982-.136.606-.403 1.183-.791 1.668.44.43.876.865 1.317 1.294-.059.22-.149.444-.33.593-.151.13-.345.194-.535.241-.431-.448-.864-.893-1.295-1.34-.537.367-1.185.56-1.832.589-.815.036-1.63-.227-2.295-.693-.359-.246-.682-.541-.978-.859-.051.05-.106.095-.163.137.014.107.029.213.044.32-.111.006-.222.034-.316.096-.288.183-.489.467-.694.733-.254.33-.482.695-.836.929-.214.132-.532.076-.663-.146-.137-.218-.058-.5.09-.692.362-.531 1.007-.759 1.411-1.248.105-.132.185-.284.224-.448.103.007.206.013.31.02.087-.089.175-.177.262-.266.097-.003.196.008.292-.011.1-.088.18-.197.27-.295.099.028.155.121.227.187.443.403.95.755 1.527.934.738.237 1.561.161 2.254-.183-1.387-1.428-2.77-2.861-4.155-4.291-.311.327-.62.655-.935.978-.385-.393-.773-.781-1.16-1.172.729-.73 1.466-1.451 2.199-2.177.634.173 1.267.348 1.901.519-.433.394-.874.779-1.309 1.171 1.445 1.417 2.884 2.842 4.331 4.256.349-.425.546-.967.573-1.515.049-.725-.119-1.447-.358-2.127-.338-.898-.984-1.637-1.686-2.273-.438-.39-.89-.766-1.357-1.122z" fill="#cbcbcb"/></svg>