<svg id="bbd5a224-2cc9-41bc-92a5-517d388e85a5" data-name="texte" xmlns="http://www.w3.org/2000/svg" xmlns:xlink="http://www.w3.org/1999/xlink" viewBox="0 0 470.33 67.41"><defs><style>.b4821903-a461-4d83-8607-b346249bccd6{stroke:#9def48;stroke-miterlimit:10;stroke-width:0.75px;fill:url(#eec0876b-aebb-41a3-9fd5-3ca0cb98fe37);}.fe986e04-1350-455b-982f-504adf7ce3fa{fill:#9def48;}</style><linearGradient id="eec0876b-aebb-41a3-9fd5-3ca0cb98fe37" x1="0.38" y1="33.7" x2="469.96" y2="33.7" gradientUnits="userSpaceOnUse"><stop offset="0" stop-color="#032c02"/><stop offset="1" stop-color="#207a09"/></linearGradient></defs><polygon class="b4821903-a461-4d83-8607-b346249bccd6" points="0.38 5.91 102.44 5.91 108.57 0.38 150.31 0.38 158.22 5.91 461.65 6.11 469.96 16 469.96 59.72 50.81 59.72 42.7 67.03 7.89 67.03 0.38 59.72 0.38 5.91"/><path class="fe986e04-1350-455b-982f-504adf7ce3fa" d="M87.86,34.83a17.62,17.62,0,0,1-4.14,10.24H59.57a17.67,17.67,0,0,1-4.13-10.24H51.59v-4h3.85a17.56,17.56,0,0,1,4.13-10.22H83.72A17.54,17.54,0,0,1,87.86,30.8l-1.76,1v2.05Zm-28.3-4H83.74a17.67,17.67,0,0,0-2.19-6.15H61.76A17.3,17.3,0,0,0,59.56,30.78Zm0,4A17.46,17.46,0,0,0,61.76,41H81.55a17.83,17.83,0,0,0,2.19-6.17Z" transform="translate(-0.13 -0.13)"/><path class="fe986e04-1350-455b-982f-504adf7ce3fa" d="M96.2,34.83V45.07H92.13V24L96.2,20V30.78H103l12.58-10.22h6.59L107.08,32.81l15.09,12.26h-6.59L103,34.83Z" transform="translate(-0.13 -0.13)"/></svg>