<svg id="a9ec744b-125d-4e3c-bf72-950b0c314466" data-name="texte" xmlns="http://www.w3.org/2000/svg" xmlns:xlink="http://www.w3.org/1999/xlink" viewBox="0 0 470.33 67.41"><defs><style>.f696470b-4f42-4f7f-a930-81bc89ec6b92{stroke:#9def48;stroke-miterlimit:10;stroke-width:0.75px;fill:url(#f2ae2b9b-2eb2-408c-9669-f4904f5973ed);}.e2ecbdd2-656a-452f-af10-d081fd3d4989{fill:#9def48;}</style><linearGradient id="f2ae2b9b-2eb2-408c-9669-f4904f5973ed" x1="0.38" y1="33.7" x2="469.96" y2="33.7" gradientUnits="userSpaceOnUse"><stop offset="0" stop-color="#032c02"/><stop offset="1" stop-color="#207a09"/></linearGradient></defs><polygon class="f696470b-4f42-4f7f-a930-81bc89ec6b92" points="0.38 5.91 102.44 5.91 108.57 0.38 150.31 0.38 158.22 5.91 461.65 6.11 469.96 16 469.96 59.72 50.81 59.72 42.7 67.03 7.89 67.03 0.38 59.72 0.38 5.91"/><path class="e2ecbdd2-656a-452f-af10-d081fd3d4989" d="M65.82,39.79l-3.48,3.49v-18H50.94V21.76H77.22v3.49H65.82Z" transform="translate(-0.06 -0.03)"/><path class="e2ecbdd2-656a-452f-af10-d081fd3d4989" d="M108.67,34a15.07,15.07,0,0,1-3.55,8.78H84.43A15.14,15.14,0,0,1,80.88,34H77.59V30.52h3.29a15,15,0,0,1,3.55-8.76h20.69a15,15,0,0,1,3.55,8.77l-1.51.85v1.76ZM84.41,30.52h20.73a14.82,14.82,0,0,0-1.88-5.27h-17A15,15,0,0,0,84.41,30.52Zm0,3.47a15.28,15.28,0,0,0,1.89,5.29h17A15.05,15.05,0,0,0,105.14,34Z" transform="translate(-0.06 -0.03)"/><path class="e2ecbdd2-656a-452f-af10-d081fd3d4989" d="M138,30.52l1.58,1.74a15.6,15.6,0,0,1-3.61,10.51h-20.7a14.57,14.57,0,0,1-3.15-6.26h3.75a16.67,16.67,0,0,0,1.27,2.77h17A14.7,14.7,0,0,0,135.93,34H113.18l-1.58-1.73a15.6,15.6,0,0,1,3.62-10.5h20.7A14.75,14.75,0,0,1,139.07,28h-3.75a16.52,16.52,0,0,0-1.26-2.76h-17a15,15,0,0,0-1.89,5.27Z" transform="translate(-0.06 -0.03)"/></svg>