<svg id="a0a7918b-30ad-45ca-b348-527c25fa14ab" data-name="texte" xmlns="http://www.w3.org/2000/svg" xmlns:xlink="http://www.w3.org/1999/xlink" viewBox="0 0 470.33 67.41"><defs><style>.bdfa389c-6d12-4034-b0c1-56e9803bb71b{stroke:#9def48;stroke-miterlimit:10;stroke-width:0.75px;fill:url(#f74c6482-9caa-4ea8-aa5e-8773908e8133);}.b8161cba-da4e-44cf-bfba-01e1f978c6b8{fill:#9def48;}</style><linearGradient id="f74c6482-9caa-4ea8-aa5e-8773908e8133" x1="0.38" y1="33.7" x2="469.96" y2="33.7" gradientUnits="userSpaceOnUse"><stop offset="0" stop-color="#032c02"/><stop offset="1" stop-color="#207a09"/></linearGradient></defs><polygon class="bdfa389c-6d12-4034-b0c1-56e9803bb71b" points="0.38 5.91 102.44 5.91 108.57 0.38 150.31 0.38 158.22 5.91 461.65 6.11 469.96 16 469.96 59.72 50.81 59.72 42.7 67.03 7.89 67.03 0.38 59.72 0.38 5.91"/><path class="b8161cba-da4e-44cf-bfba-01e1f978c6b8" d="M77.83,31.74l1.53,1.68a15,15,0,0,1-3.5,10.15h-20a14.17,14.17,0,0,1-3-6h3.62a16.39,16.39,0,0,0,1.24,2.67H74.06a14.12,14.12,0,0,0,1.82-5.11h-22l-1.53-1.67a15.08,15.08,0,0,1,3.49-10.15h20a14.19,14.19,0,0,1,3,6H75.28a15.07,15.07,0,0,0-1.22-2.67H57.67a14.36,14.36,0,0,0-1.83,5.1Z" transform="translate(-0.06 -0.03)"/><path class="b8161cba-da4e-44cf-bfba-01e1f978c6b8" d="M110.78,35.09h-22a14.4,14.4,0,0,0,1.83,5.11h2.23v3.37h-4a14.57,14.57,0,0,1-3.42-8.48H82.19V31.74h3.19a14.51,14.51,0,0,1,3.42-8.47h20a15.05,15.05,0,0,1,3.5,10.15Zm-22-3.35h20a14.52,14.52,0,0,0-1.82-5.1H90.62A14.36,14.36,0,0,0,88.79,31.74Z" transform="translate(-0.06 -0.03)"/><path class="b8161cba-da4e-44cf-bfba-01e1f978c6b8" d="M138.58,43.57h-20a15.07,15.07,0,0,1-3.5-10.15,15.05,15.05,0,0,1,3.5-10.15h20a15.05,15.05,0,0,1,3.5,10.15A15.07,15.07,0,0,1,138.58,43.57Zm-1.8-3.37a13.65,13.65,0,0,0,1.92-6.78,13.62,13.62,0,0,0-1.92-6.78h-16.4a13.55,13.55,0,0,0-1.94,6.78,13.58,13.58,0,0,0,1.94,6.78Z" transform="translate(-0.06 -0.03)"/><path class="b8161cba-da4e-44cf-bfba-01e1f978c6b8" d="M167.48,40.2h2.25a14.55,14.55,0,0,0,1.81-5.11h-20a14.38,14.38,0,0,0,1.82,5.11h2.24v3.37h-4a14.64,14.64,0,0,1-3.43-8.48h-3.18V31.74h3.18a14.59,14.59,0,0,1,3.43-8.47h20A14.54,14.54,0,0,1,175,31.75l-1.45.82v1.7l1.45.82a14.57,14.57,0,0,1-3.42,8.48h-4.05Zm-16-8.46h20a14.5,14.5,0,0,0-1.81-5.1h-16.4A14.33,14.33,0,0,0,151.51,31.74Z" transform="translate(-0.06 -0.03)"/><path class="b8161cba-da4e-44cf-bfba-01e1f978c6b8" d="M191.47,40.7l-3.37,3.37V26.64h-11V23.27h25.4v3.37h-11Z" transform="translate(-0.06 -0.03)"/><path class="b8161cba-da4e-44cf-bfba-01e1f978c6b8" d="M214.52,23.27h22.37a15.05,15.05,0,0,1,3.5,10.15,15.07,15.07,0,0,1-3.5,10.15H214.52Zm3.37,16.93h17.2A13.57,13.57,0,0,0,237,33.42a13.54,13.54,0,0,0-1.93-6.78h-17.2Z" transform="translate(-0.06 -0.03)"/><path class="b8161cba-da4e-44cf-bfba-01e1f978c6b8" d="M263.84,35.09h-14a14.21,14.21,0,0,0,1.83,5.11h16.68l1.94,3.37H249.83a14.57,14.57,0,0,1-3.42-8.48h-3.19V31.74h3.19a14.51,14.51,0,0,1,3.42-8.47h20.44l-1.94,3.37H251.65a14.16,14.16,0,0,0-1.83,5.1h14Z" transform="translate(-0.06 -0.03)"/><path class="b8161cba-da4e-44cf-bfba-01e1f978c6b8" d="M304.52,37.53h3.63a14.19,14.19,0,0,1-3,6h-20a15.06,15.06,0,0,1-3.49-10.15,15.08,15.08,0,0,1,3.49-10.15h20a14.19,14.19,0,0,1,3,6h-3.63a15.07,15.07,0,0,0-1.22-2.67H286.91A13.45,13.45,0,0,0,285,33.42a13.48,13.48,0,0,0,1.94,6.78H303.3A15.07,15.07,0,0,0,304.52,37.53Z" transform="translate(-0.06 -0.03)"/><path class="b8161cba-da4e-44cf-bfba-01e1f978c6b8" d="M334.48,43.57h-20A15,15,0,0,1,311,33.42a15,15,0,0,1,3.5-10.15h20A15,15,0,0,1,338,33.42,15,15,0,0,1,334.48,43.57Zm-1.8-3.37a13.57,13.57,0,0,0,1.93-6.78,13.54,13.54,0,0,0-1.93-6.78H316.29a13.45,13.45,0,0,0-1.94,6.78,13.48,13.48,0,0,0,1.94,6.78Z" transform="translate(-0.06 -0.03)"/><path class="b8161cba-da4e-44cf-bfba-01e1f978c6b8" d="M352.64,26.64h-6.52a13.55,13.55,0,0,0-1.94,6.78,13.58,13.58,0,0,0,1.94,6.78h2.24v3.37h-4.05a15.07,15.07,0,0,1-3.5-10.15,15.05,15.05,0,0,1,3.5-10.15h8.33V20.08H356v3.19h8.33a15.05,15.05,0,0,1,3.5,10.15,15.07,15.07,0,0,1-3.5,10.15h-4.05V40.2h2.25a13.67,13.67,0,0,0,1.93-6.78,13.64,13.64,0,0,0-1.93-6.78H356v12h-3.35Z" transform="translate(-0.06 -0.03)"/><path class="b8161cba-da4e-44cf-bfba-01e1f978c6b8" d="M400.7,35.09a14.64,14.64,0,0,1-3.43,8.48h-20a14.64,14.64,0,0,1-3.43-8.48h-3.18V31.74h3.18a14.59,14.59,0,0,1,3.43-8.47h20a14.62,14.62,0,0,1,3.43,8.48l-1.46.82v1.7Zm-23.45-3.35h20a14.5,14.5,0,0,0-1.81-5.1h-16.4A14.33,14.33,0,0,0,377.25,31.74Zm0,3.35a14.38,14.38,0,0,0,1.82,5.11h16.4a14.55,14.55,0,0,0,1.81-5.11Z" transform="translate(-0.06 -0.03)"/><path class="b8161cba-da4e-44cf-bfba-01e1f978c6b8" d="M409.16,37.92l-3.55,5.65H401.4l12.9-20.3h3.88L431,43.57h-4.15l-3.52-5.65Zm12.07-3.35-5-7.94-5,7.94Z" transform="translate(-0.06 -0.03)"/><path class="b8161cba-da4e-44cf-bfba-01e1f978c6b8" d="M441.12,40.7l-3.37,3.37V26.64h-11V23.27h25.4v3.37h-11Z" transform="translate(-0.06 -0.03)"/></svg>