<svg xmlns="http://www.w3.org/2000/svg" xmlns:xlink="http://www.w3.org/1999/xlink" viewBox="0 0 470.33 67.41"><defs><style>.fbc7a9d7-df77-48c0-a9aa-b2a0ba77480a{stroke:#9def48;stroke-miterlimit:10;stroke-width:0.75px;fill:url(#e2b3f809-eb46-436a-9967-061de71e1f20);}.fc9f7004-28c4-48e1-abff-ce99ccbe9a1c{fill:#9def48;}.b6258032-f791-4f87-a8ab-079db6efb277{fill:#fff;}.fdb4bd8d-c73d-4e64-9f4b-895b798eb0ba{fill:#3d3832;}.ee47ed03-5b9b-4a8e-bd40-d4789562625b{fill:#fcfcfc;}</style><linearGradient id="e2b3f809-eb46-436a-9967-061de71e1f20" x1="0.38" y1="33.7" x2="469.96" y2="33.7" gradientUnits="userSpaceOnUse"><stop offset="0" stop-color="#032c02"/><stop offset="1" stop-color="#207a09"/></linearGradient></defs><g id="e78273a7-9b95-4b3c-b3eb-f890b70cd8e7" data-name="texte"><polygon class="fbc7a9d7-df77-48c0-a9aa-b2a0ba77480a" points="0.38 5.91 102.44 5.91 108.57 0.38 150.31 0.38 158.22 5.91 461.65 6.11 469.96 16 469.96 59.72 50.81 59.72 42.7 67.03 7.89 67.03 0.38 59.72 0.38 5.91"/><path class="fc9f7004-28c4-48e1-abff-ce99ccbe9a1c" d="M56.58,40.47H75l2.35,4.07H52.51v-21l4.07-4.07Z" transform="translate(-0.13 -0.13)"/><path class="fc9f7004-28c4-48e1-abff-ce99ccbe9a1c" d="M80.9,34.3l-1.85-2A18.18,18.18,0,0,1,83.28,20h4.88V24.1h-2.7a17.3,17.3,0,0,0-2.2,6.15h24.18a17.47,17.47,0,0,0-2.19-6.15h-2.71V20h4.88a18.18,18.18,0,0,1,4.23,12.25,18.15,18.15,0,0,1-4.23,12.26H83.28a17.13,17.13,0,0,1-3.68-7.3H84a19,19,0,0,0,1.48,3.23h19.79a16.92,16.92,0,0,0,2.19-6.17Z" transform="translate(-0.13 -0.13)"/><path class="fc9f7004-28c4-48e1-abff-ce99ccbe9a1c" d="M121.47,24.1a16.32,16.32,0,0,0-2.34,8.18,16.38,16.38,0,0,0,2.34,8.19h2.7v4.07h-4.89a18.23,18.23,0,0,1-4.22-12.26A18.18,18.18,0,0,1,119.28,20h24.15a18.13,18.13,0,0,1,4.22,12.25,18.18,18.18,0,0,1-4.22,12.26h-4.89V40.47h2.72a16.47,16.47,0,0,0,2.33-8.19,16.41,16.41,0,0,0-2.33-8.18Z" transform="translate(-0.13 -0.13)"/><path class="fc9f7004-28c4-48e1-abff-ce99ccbe9a1c" d="M178.69,44.54,166.9,35l-11.8,9.57h-6.59L163.6,32.28,148.51,20h6.59l11.8,9.57L178.69,20h6.6L170.2,32.28l15.09,12.26Z" transform="translate(-0.13 -0.13)"/></g><g id="effc70ed-6f91-4cb2-ba04-dc4d3aa996e6" data-name="atari"><path class="b6258032-f791-4f87-a8ab-079db6efb277" d="M18.85,43.45a1.7,1.7,0,0,1-.22-2.38,1.68,1.68,0,0,1,.86-.57c4.32-1.23,8.57-2.52,12.88-3.75V39c-1.15.35-2.37.71-3.52,1v4.25c1.15.36,2.37.72,3.52,1v2.23c-4.1-1.15-8.2-2.37-12.3-3.52a3.14,3.14,0,0,1-1.22-.5m2.59-1.3c1.8.5,3.59,1,5.32,1.51V40.57C25,41.07,23.24,41.58,21.44,42.15ZM18.92,27.91a1.73,1.73,0,0,1-.65-1.8,1.76,1.76,0,0,1,1.22-1.23c4.32-1.22,8.57-2.51,12.88-3.74v2.23l-3.6,1.08V28.7c1.16.36,2.38.72,3.53,1v2.16c-4.1-1.15-8.2-2.37-12.3-3.59a2.08,2.08,0,0,1-1.08-.36m7.84.21V25c-1.8.5-3.6,1-5.32,1.51C23.24,27,25,27.62,26.76,28.12ZM18.2,38.41v-8h2.16v2.95H32.3v2.09H20.36v2.95Zm.14-19.57a2.17,2.17,0,0,1-.14-.65V15.67a4,4,0,0,1,2.16-3.38A4.85,4.85,0,0,1,23,11.93a3.89,3.89,0,0,1,2.52,1.23,8.27,8.27,0,0,1,.86,1.29c.14.22.5.22.72.15,1.73-1.08,3.38-2.31,5.11-3.39v2.52c-1.66,1.08-3.31,2.16-4.89,3.24a1.8,1.8,0,0,1-1.59.22,1.42,1.42,0,0,1-.86-.94,3.58,3.58,0,0,0-1.44-1.94,2.58,2.58,0,0,0-1.8-.15,1.71,1.71,0,0,0-1.29,1.66v1.65c0,.22.21.51.43.51H32.3v2.08H19.93a1.69,1.69,0,0,1-1.59-1.22Zm-.14-8.78V7.83H32.3v2.23Z" transform="translate(-0.13 -0.13)"/><path class="fdb4bd8d-c73d-4e64-9f4b-895b798eb0ba" d="M30.79,65.46a1.6,1.6,0,0,0,1.58-1.58v-11a1.6,1.6,0,0,0-1.58-1.58h-11a1.6,1.6,0,0,0-1.58,1.58v11a1.6,1.6,0,0,0,1.58,1.58Z" transform="translate(-0.13 -0.13)"/><path class="b6258032-f791-4f87-a8ab-079db6efb277" d="M20.86,60v-.72h3a9.25,9.25,0,0,1,1.95.22,4.66,4.66,0,0,1,1.29.43,5.22,5.22,0,0,1,1.73,1.37A4,4,0,0,1,29.78,63a5.41,5.41,0,0,1,.29,1.08H28.7a4.35,4.35,0,0,0-.43-1.29,3.19,3.19,0,0,0-1-1.22,5.61,5.61,0,0,0-1.36-.87,5.09,5.09,0,0,0-1.8-.5c-.79-.14-1.58-.14-2.38-.22Zm0-.93v-1.3h9.21v1.3H20.86Zm0-1.58v-.72a17.65,17.65,0,0,0,2.81-.15,7.68,7.68,0,0,0,2.16-.5A5.7,5.7,0,0,0,27.55,55a5.36,5.36,0,0,0,1-1.73c.07-.14.07-.36.14-.58h1.37a5.41,5.41,0,0,1-.29,1.08A9.06,9.06,0,0,1,29.21,55a3.11,3.11,0,0,1-.58.72,7.83,7.83,0,0,1-1.22,1,5.73,5.73,0,0,1-1.15.51L25,57.4a15.74,15.74,0,0,1-2.66.08Z" transform="translate(-0.13 -0.13)"/><path class="ee47ed03-5b9b-4a8e-bd40-d4789562625b" d="M20.86,59.06h9.21v-1.3H20.86v1.3m0-1.58h1.51c.87,0,1.8,0,2.66-.08a7.36,7.36,0,0,0,1.23-.21,5.73,5.73,0,0,0,1.15-.51,5.2,5.2,0,0,0,1.22-1,5.91,5.91,0,0,0,.58-.72,6.32,6.32,0,0,0,.57-1.23,5.41,5.41,0,0,0,.29-1.08H28.7a1.76,1.76,0,0,1-.14.58,5.36,5.36,0,0,1-1,1.73,4.65,4.65,0,0,1-1.72,1.15,6.7,6.7,0,0,1-2.16.5,17.65,17.65,0,0,1-2.81.15v.72" transform="translate(-0.13 -0.13)"/></g></svg>