<svg height="249.81821" viewBox="0 0 53.454588 66.097731" width="202.0331" xmlns="http://www.w3.org/2000/svg"><g fill-rule="evenodd" transform="translate(-30.46524 -53.486224)"><rect fill="#808080" height="63.512718" ry="5.497767" stroke-width=".202666" width="51.462021" x="31.519159" y="56.071236"/><rect fill="#bdb7a7" height="62.5751" ry="5.416605" width="49.706577" x="32.433147" y="56.566711"/><rect fill="#808080" height="37.832733" ry="3.274864" stroke-width=".146326" width="45.036785" x="34.731781" y="77.839119"/><rect fill="#bdb7a7" height="91.392174" ry="7.911059" transform="matrix(.43516253 0 0 .4002308 77.189719 49.792337)" width="100.48048" x="-96.061157" y="71.398674"/><circle cx="57.286434" cy="97.182404" fill="#808080" r="12.372616"/><circle cx="57.250172" cy="97.204796" fill="#bdb7a7" r="11.877711"/><circle cx="41.037334" cy="64.058319" fill="#808080" r="10.572095"/><circle cx="41.370083" cy="64.711067" fill="#bdb7a7" r="10.448519"/><ellipse cx="41.18663" cy="64.659058" fill="#500" rx="9.910728" ry="10.022844"/><ellipse cx="41.161602" cy="64.623703" fill="#d40000" rx="8.613088" ry="8.714882"/><g transform="rotate(90)"><circle cx="64.136169" cy="-73.425919" fill="#808080" r="10.493911"/><circle cx="64.710732" cy="-73.130257" fill="#bdb7a7" r="10.448519"/><ellipse cx="64.527275" cy="-73.182266" fill="#500" rx="9.910728" ry="10.022844"/><ellipse cx="64.502251" cy="-73.217621" fill="#d40000" rx="8.613088" ry="8.714882"/></g><circle cx="57.250172" cy="97.349358" fill="#333" r="9.806994"/><circle cx="57.250172" cy="97.336197" r="9.363269"/></g></svg>