<svg viewBox="-290 382 30 30" xmlns="http://www.w3.org/2000/svg"><ellipse cx="-280" cy="387.7" fill="#fff" rx="1.3" ry="1"/><path d="m-290.14282 382.05518h30.164009v30.287064h-30.164009z" fill="#1f0200" stroke-width=".567667"/><g fill="#f9f8e1" stroke-width=".53959562899"><circle cx="-285.54915473502" cy="383.94499340479" r="1.00526540775"/><circle cx="-282.89597337665" cy="383.94499340479" r="1.00526540775"/><circle cx="-280.24277863546" cy="383.94499340479" r="1.00526540775"/><circle cx="-277.58905304208" cy="383.94499340479" r="1.00526540775"/><circle cx="-274.93586722277" cy="383.94499340479" r="1.00526540775"/><circle cx="-272.28267694252" cy="383.94499340479" r="1.00526540775"/><circle cx="-269.62949112321" cy="383.94499340479" r="1.00526540775"/><circle cx="-266.97630084296" cy="383.94499340479" r="1.00526540775"/><circle cx="-264.32311948459" cy="383.94499340479" r="1.00526540775"/><circle cx="-284.24010002159" cy="385.46395331603" r="1.00526540775"/><circle cx="-276.27999832865" cy="385.46395331603" r="1.00526540775"/><circle cx="-273.6268080484" cy="385.46395331603" r="1.00526540775"/><circle cx="-265.66724612953" cy="385.46395331603" r="1.00526540775"/><circle cx="-285.54915473502" cy="386.93704670661" r="1.00526540775"/><circle cx="-280.24277863546" cy="386.93704670661" r="1.00526540775"/><circle cx="-274.93586722277" cy="386.93704670661" r="1.00526540775"/><circle cx="-269.62949112321" cy="386.93704670661" r="1.00526540775"/><circle cx="-264.32311948459" cy="386.93704670661" r="1.00526540775"/><circle cx="-281.58690974134" cy="388.45654639191" r="1.00526540775"/><circle cx="-278.93318414796" cy="388.45654639191" r="1.00526540775"/><circle cx="-270.97362222909" cy="388.45654639191" r="1.00526540775"/><circle cx="-268.32043194884" cy="388.45654639191" r="1.00526540775"/><circle cx="-285.54915473502" cy="389.85895346885" r="1.00526540775"/><circle cx="-280.24277863546" cy="389.85895346885" r="1.00526540775"/><circle cx="-269.62949112321" cy="389.85895346885" r="1.00526540775"/><circle cx="-264.32311948459" cy="389.85895346885" r="1.00526540775"/><circle cx="-284.24010002159" cy="391.37845270806" r="1.00526540775"/><circle cx="-276.27999832865" cy="391.37845270806" r="1.00526540775"/><circle cx="-273.6268080484" cy="391.37845270806" r="1.00526540775"/><circle cx="-265.66724612953" cy="391.37845270806" r="1.00526540775"/><circle cx="-285.54915473502" cy="392.85100766286" r="1.00526540775"/><circle cx="-282.89597337665" cy="392.85100766286" r="1.00526540775"/><circle cx="-274.93586722277" cy="392.85100766286" r="1.00526540775"/><circle cx="-266.97630084296" cy="392.85100766286" r="1.00526540775"/><circle cx="-264.32311948459" cy="392.85100766286" r="1.00526540775"/><circle cx="-284.24010002159" cy="394.37050690206" r="1.00526540775"/><circle cx="-281.58690974134" cy="394.37050690206" r="1.00526540775"/><circle cx="-278.93318414796" cy="394.37050690206" r="1.00526540775"/><circle cx="-276.27999832865" cy="394.37050690206" r="1.00526540775"/><circle cx="-273.6268080484" cy="394.37050690206" r="1.00526540775"/><circle cx="-270.97362222909" cy="394.37050690206" r="1.00526540775"/><circle cx="-268.32043194884" cy="394.37050690206" r="1.00526540775"/><circle cx="-285.54915473502" cy="395.91374817051" r="1.00526540775"/><circle cx="-282.89597337665" cy="395.91374817051" r="1.00526540775"/><circle cx="-280.24277863546" cy="395.91374817051" r="1.00526540775"/><circle cx="-277.58905304208" cy="395.91374817051" r="1.00526540775"/><circle cx="-274.93586722277" cy="395.91374817051" r="1.00526540775"/><circle cx="-264.32311948459" cy="395.91374817051" r="1.00526540775"/><circle cx="-284.24010002159" cy="397.43324696362" r="1.00526540775"/><circle cx="-281.58690974134" cy="397.43324696362" r="1.00526540775"/><circle cx="-278.93318414796" cy="397.43324696362" r="1.00526540775"/><circle cx="-276.27999832865" cy="397.43324696362" r="1.00526540775"/><circle cx="-273.6268080484" cy="397.43324696362" r="1.00526540775"/><circle cx="-282.89597337665" cy="398.90580013404" r="1.00526540775"/><circle cx="-280.24277863546" cy="398.90580013404" r="1.00526540775"/><circle cx="-277.58905304208" cy="398.90580013404" r="1.00526540775"/><circle cx="-274.93586722277" cy="398.90580013404" r="1.00526540775"/><circle cx="-264.32311948459" cy="398.90580013404" r="1.00526540775"/><circle cx="-281.58690974134" cy="400.42530160372" r="1.00526540775"/><circle cx="-278.93318414796" cy="400.42530160372" r="1.00526540775"/><circle cx="-276.27999832865" cy="400.42530160372" r="1.00526540775"/><circle cx="-273.6268080484" cy="400.42530160372" r="1.00526540775"/><circle cx="-280.24277863546" cy="401.82824622425" r="1.00526540775"/><circle cx="-277.58905304208" cy="401.82824622425" r="1.00526540775"/><circle cx="-274.93586722277" cy="401.82824622425" r="1.00526540775"/><circle cx="-272.28267694252" cy="401.82824622425" r="1.00526540775"/><circle cx="-264.32311948459" cy="401.82824622425" r="1.00526540775"/><circle cx="-278.93318414796" cy="403.3472052433" r="1.00526540775"/><circle cx="-276.27999832865" cy="403.3472052433" r="1.00526540775"/><circle cx="-273.6268080484" cy="403.3472052433" r="1.00526540775"/><circle cx="-270.97362222909" cy="403.3472052433" r="1.00526540775"/><circle cx="-277.58905304208" cy="404.82030131045" r="1.00526540775"/><circle cx="-274.93586722277" cy="404.82030131045" r="1.00526540775"/><circle cx="-272.28267694252" cy="404.82030131045" r="1.00526540775"/><circle cx="-269.62949112321" cy="404.82030131045" r="1.00526540775"/><circle cx="-264.32311948459" cy="404.82030131045" r="1.00526540775"/><circle cx="-276.27999832865" cy="406.3392603295" r="1.00526540775"/><circle cx="-270.97362222909" cy="406.3392603295" r="1.00526540775"/><circle cx="-268.32043194884" cy="406.3392603295" r="1.00526540775"/><circle cx="-277.58905304208" cy="407.81990832654" r="1.00526540775"/><circle cx="-272.28267694252" cy="407.81990832654" r="1.00526540775"/><circle cx="-266.97630084296" cy="407.81990832654" r="1.00526540775"/><circle cx="-264.32311948459" cy="407.81990832654" r="1.00526540775"/><circle cx="-284.24010002159" cy="409.339948232" r="1.00526540775"/><circle cx="-281.58690974134" cy="409.339948232" r="1.00526540775"/><circle cx="-278.93318414796" cy="409.339948232" r="1.00526540775"/><circle cx="-276.27999832865" cy="409.339948232" r="1.00526540775"/><circle cx="-273.6268080484" cy="409.339948232" r="1.00526540775"/><circle cx="-270.97362222909" cy="409.339948232" r="1.00526540775"/><circle cx="-265.66724612953" cy="409.339948232" r="1.00526540775"/><circle cx="-264.32311948459" cy="410.81196162836" r="1.00526540775"/></g></svg>