<svg id="f6203f19-3671-4966-96d6-4a8a6e89d79f" data-name="texte" xmlns="http://www.w3.org/2000/svg" xmlns:xlink="http://www.w3.org/1999/xlink" viewBox="0 0 470.33 67.41"><defs><style>.bd2cfaf5-9d60-43a3-b257-613c78d6f595{stroke:#9def48;stroke-miterlimit:10;stroke-width:0.75px;fill:url(#a6c8c30d-5d80-4149-a519-09af8b014822);}.b84bc242-ffda-4669-b73f-161a88a61b94{fill:#9def48;}</style><linearGradient id="a6c8c30d-5d80-4149-a519-09af8b014822" x1="0.38" y1="33.7" x2="469.96" y2="33.7" gradientUnits="userSpaceOnUse"><stop offset="0" stop-color="#032c02"/><stop offset="1" stop-color="#207a09"/></linearGradient></defs><polygon class="bd2cfaf5-9d60-43a3-b257-613c78d6f595" points="0.38 5.91 102.44 5.91 108.57 0.38 150.31 0.38 158.22 5.91 461.65 6.11 469.96 16 469.96 59.72 50.81 59.72 42.7 67.03 7.89 67.03 0.38 59.72 0.38 5.91"/><path class="b84bc242-ffda-4669-b73f-161a88a61b94" d="M87.86,34.83a17.62,17.62,0,0,1-4.14,10.24H59.57a17.67,17.67,0,0,1-4.13-10.24H51.59v-4h3.85a17.56,17.56,0,0,1,4.13-10.22H83.72A17.54,17.54,0,0,1,87.86,30.8l-1.76,1v2.05Zm-28.3-4H83.74a17.67,17.67,0,0,0-2.19-6.15H61.76A17.3,17.3,0,0,0,59.56,30.78Zm0,4A17.46,17.46,0,0,0,61.76,41H81.55a17.83,17.83,0,0,0,2.19-6.17Z" transform="translate(-0.13 -0.13)"/><path class="b84bc242-ffda-4669-b73f-161a88a61b94" d="M127.54,34.83a17.67,17.67,0,0,1-4.13,10.24H99.26a17.62,17.62,0,0,1-4.14-10.24H91.28v-4h3.84a17.51,17.51,0,0,1,4.14-10.22h24.15a17.59,17.59,0,0,1,4.13,10.24l-1.76,1v2.05Zm-28.3-4h24.18a17.27,17.27,0,0,0-2.19-6.15H101.44A17.49,17.49,0,0,0,99.24,30.78Zm0,4a17.66,17.66,0,0,0,2.2,6.17h19.79a17.43,17.43,0,0,0,2.19-6.17Z" transform="translate(-0.13 -0.13)"/><path class="b84bc242-ffda-4669-b73f-161a88a61b94" d="M158.63,37.77H163a17.11,17.11,0,0,1-3.67,7.3H135.18A18.25,18.25,0,0,1,131,32.81a18.22,18.22,0,0,1,4.22-12.25h24.15a17.11,17.11,0,0,1,3.67,7.3h-4.37a18.55,18.55,0,0,0-1.47-3.23H137.37A16.32,16.32,0,0,0,135,32.81,16.41,16.41,0,0,0,137.37,41h19.79A19.62,19.62,0,0,0,158.63,37.77Z" transform="translate(-0.13 -0.13)"/><path class="b84bc242-ffda-4669-b73f-161a88a61b94" d="M190.94,24.63h-7.86a16.32,16.32,0,0,0-2.34,8.18A16.41,16.41,0,0,0,183.08,41h2.7v4.07H180.9a18.2,18.2,0,0,1-4.23-12.26,18.12,18.12,0,0,1,4.23-12.25h10V16.71H195v3.85h10a18.12,18.12,0,0,1,4.22,12.25A18.2,18.2,0,0,1,205,45.07h-4.88V41h2.71a16.5,16.5,0,0,0,2.33-8.19,16.41,16.41,0,0,0-2.33-8.18H195V39.15h-4.05Z" transform="translate(-0.13 -0.13)"/><path class="b84bc242-ffda-4669-b73f-161a88a61b94" d="M218.46,45.07h-4.07V24L218.46,20Z" transform="translate(-0.13 -0.13)"/><path class="b84bc242-ffda-4669-b73f-161a88a61b94" d="M251.25,37.77h4.38a17.13,17.13,0,0,1-3.68,7.3H227.81a18.2,18.2,0,0,1-4.22-12.26,18.17,18.17,0,0,1,4.22-12.25H252a17.13,17.13,0,0,1,3.68,7.3h-4.38a17.18,17.18,0,0,0-1.47-3.23H230a16.32,16.32,0,0,0-2.34,8.18A16.41,16.41,0,0,0,230,41h19.79A18.09,18.09,0,0,0,251.25,37.77Z" transform="translate(-0.13 -0.13)"/><path class="b84bc242-ffda-4669-b73f-161a88a61b94" d="M284.58,41h2.72a17.83,17.83,0,0,0,2.19-6.17H265.3A17.49,17.49,0,0,0,267.51,41h2.7v4.07h-4.89a17.68,17.68,0,0,1-4.14-10.24h-3.84v-4h3.84a17.57,17.57,0,0,1,4.14-10.22h24.15A17.59,17.59,0,0,1,293.6,30.8l-1.76,1v2.05l1.76,1a17.67,17.67,0,0,1-4.13,10.24h-4.89ZM265.3,30.78h24.19a17.67,17.67,0,0,0-2.19-6.15H267.51A17.33,17.33,0,0,0,265.3,30.78Z" transform="translate(-0.13 -0.13)"/><path class="b84bc242-ffda-4669-b73f-161a88a61b94" d="M325.39,45.07H301.24A18.25,18.25,0,0,1,297,32.81a18.17,18.17,0,0,1,4.22-12.25h24.15a18.17,18.17,0,0,1,4.22,12.25A18.25,18.25,0,0,1,325.39,45.07ZM323.22,41a16.48,16.48,0,0,0,2.32-8.19,16.39,16.39,0,0,0-2.32-8.18H303.43a16.32,16.32,0,0,0-2.34,8.18A16.41,16.41,0,0,0,303.43,41Z" transform="translate(-0.13 -0.13)"/></svg>