<svg id="a6e22fa9-527c-4592-8417-f06c81e4f2a6" data-name="Calque 1" xmlns="http://www.w3.org/2000/svg" xmlns:xlink="http://www.w3.org/1999/xlink" viewBox="0 0 747.48 822.76"><defs><radialGradient id="ad9e3a5f-baa1-466c-8931-49b9bee22879" cx="121.61" cy="382.1" r="5.66" gradientTransform="matrix(1 0 0 .6 0 152.84)" xlink:href="#ae8e2387-f7b9-4449-96b2-7448b1415d0f"/><radialGradient id="ff87bf0a-1e8e-47c4-97c7-e1c57f527ca1" cx="217.55" cy="416.02" r="5.66" xlink:href="#b6a9ec8d-0cff-46ab-91d1-27d32a12da88"/><radialGradient id="fc32e86a-2984-4466-afa9-f017eafcb54b" cx="195.83" cy="370.99" r="11.47" xlink:href="#b6a9ec8d-0cff-46ab-91d1-27d32a12da88"/><radialGradient id="ae8e2387-f7b9-4449-96b2-7448b1415d0f" cx="92.36" cy="393.88" r="5.66" gradientTransform="matrix(1 0 0 .6 0 157.55)" gradientUnits="userSpaceOnUse"><stop offset="0" stop-color="#0000ef"/><stop offset=".15" stop-color="#0000e9"/><stop offset=".34" stop-color="#0101d9"/><stop offset=".56" stop-color="#0101be"/><stop offset=".79" stop-color="#02029a"/><stop offset="1" stop-color="#020282"/></radialGradient><radialGradient id="b0676aef-20ac-43e1-a910-afa1c35088e6" cx="114.61" cy="393.88" r="5.66" xlink:href="#ae8e2387-f7b9-4449-96b2-7448b1415d0f"/><radialGradient id="bff73da4-d03e-4381-8321-f4cf6c1bb002" cx="133.17" cy="400.04" r="5.66" gradientTransform="matrix(1 0 0 .6 0 160.02)" xlink:href="#ae8e2387-f7b9-4449-96b2-7448b1415d0f"/><radialGradient id="a61149ec-6d60-4d94-ab95-84fb80afc5fa" cx="139.21" cy="387.78" r="5.66" gradientTransform="matrix(1 0 0 .6 0 155.11)" xlink:href="#ae8e2387-f7b9-4449-96b2-7448b1415d0f"/><radialGradient id="b6a9ec8d-0cff-46ab-91d1-27d32a12da88" cx="65.88" cy="348.77" r="11.47" gradientUnits="userSpaceOnUse"><stop offset="0" stop-color="#fd6d66"/><stop offset=".78" stop-color="#b50a03"/></radialGradient><radialGradient id="af843977-3ebb-4d77-8785-659ff7a26d0d" cx="100.32" cy="382.53" r="5.66" gradientTransform="matrix(1 0 0 .6 0 153.01)" xlink:href="#ae8e2387-f7b9-4449-96b2-7448b1415d0f"/><radialGradient id="aa50c69e-a411-4be1-a822-4f5ab8817b08" cx="225.51" cy="404.67" r="5.66" xlink:href="#b6a9ec8d-0cff-46ab-91d1-27d32a12da88"/><radialGradient id="a4634513-02e8-46ec-a32b-6cc9eed1bc8b" cx="246.79" cy="404.24" r="5.66" xlink:href="#b6a9ec8d-0cff-46ab-91d1-27d32a12da88"/><radialGradient id="bf51b6d4-127e-4bf2-939c-160c89663a5d" cx="264.4" cy="409.93" r="5.66" xlink:href="#b6a9ec8d-0cff-46ab-91d1-27d32a12da88"/><radialGradient id="bf9deeba-25b7-4adc-8d44-3234889afe69" cx="258.36" cy="422.19" r="5.66" xlink:href="#b6a9ec8d-0cff-46ab-91d1-27d32a12da88"/><radialGradient id="be6fc4df-d485-41c3-bf80-cecfe0a76e0f" cx="239.79" cy="416.02" r="5.66" xlink:href="#b6a9ec8d-0cff-46ab-91d1-27d32a12da88"/><style>.ba804f25-373d-449b-9af7-b8006624263a{fill:#373735}.f9413af8-ad61-4632-ae9f-40f215fc539b{fill:#121211}.a533f908-13ed-4fe4-9b81-d79f9f8e09c1,.aae76000-eae6-4e7e-86a8-bec6d3f24c41,.ab84daa6-db24-4c04-ad24-96b6abebb012,.af54e711-0e62-400c-a151-46ad7d7bf1a6,.be883e19-13f9-4a59-a8c7-49292dfef9c9,.f9413af8-ad61-4632-ae9f-40f215fc539b{stroke:#b5b5b5}.a533f908-13ed-4fe4-9b81-d79f9f8e09c1,.aae76000-eae6-4e7e-86a8-bec6d3f24c41,.ab84daa6-db24-4c04-ad24-96b6abebb012,.af26a2c4-fc21-426b-be84-f0214d508df4,.af54e711-0e62-400c-a151-46ad7d7bf1a6,.be883e19-13f9-4a59-a8c7-49292dfef9c9,.e96ad3fb-7e62-4ed5-b894-bbde4f96324b,.f9413af8-ad61-4632-ae9f-40f215fc539b,.ffd55eb0-35e6-4fcd-9442-b720d6aedf61{stroke-miterlimit:10}.a533f908-13ed-4fe4-9b81-d79f9f8e09c1,.aae76000-eae6-4e7e-86a8-bec6d3f24c41,.ab84daa6-db24-4c04-ad24-96b6abebb012,.af26a2c4-fc21-426b-be84-f0214d508df4,.be883e19-13f9-4a59-a8c7-49292dfef9c9,.f9413af8-ad61-4632-ae9f-40f215fc539b{stroke-width:.5px}.e96ad3fb-7e62-4ed5-b894-bbde4f96324b{fill:#443840}.af26a2c4-fc21-426b-be84-f0214d508df4,.e96ad3fb-7e62-4ed5-b894-bbde4f96324b{stroke:#090000}.e96ad3fb-7e62-4ed5-b894-bbde4f96324b{stroke-width:.75px}.af26a2c4-fc21-426b-be84-f0214d508df4{fill:#6b0c05}.fca96364-0def-4790-bd16-8589d8eb9fad{fill:#86382f}.ffd55eb0-35e6-4fcd-9442-b720d6aedf61{stroke:#373737}.ab84daa6-db24-4c04-ad24-96b6abebb012{fill:#dc6e05}.be883e19-13f9-4a59-a8c7-49292dfef9c9{fill:#12e600}.aae76000-eae6-4e7e-86a8-bec6d3f24c41{fill:#0b47ce}.a533f908-13ed-4fe4-9b81-d79f9f8e09c1,.a62f4864-b9ad-47cd-99f7-89816f5ed6f9{fill:#282826}.a28bfa21-9c87-40ff-8dcf-9bda235899d6{fill:#ae7a82}.a892d202-e2b5-40fa-a1ec-054dfb3c7017{fill:url(#b6a9ec8d-0cff-46ab-91d1-27d32a12da88)}.aab915f0-6c57-4d4e-b4f4-6dae58302bfb{fill:url(#fc32e86a-2984-4466-afa9-f017eafcb54b)}.aed9c92d-795d-4375-86dc-381688ca7759{fill:#0000ef}.e5129ac5-ad3c-4a2a-8e0d-9cd0639f4793{fill:#930303}.a426da3b-4488-4bbc-bc2c-d33de8c2d094{fill:#e7e7e7}.fcbacbd2-d96a-42f1-9d59-1a18dd65872e{fill:#2c2b29}.bed37d46-3030-476c-a246-9bc9216e931d{fill:#020202}.b2370990-41a4-4698-ae5d-814b7ad36b30{fill:#fe2403}</style></defs><path id="a4509eb9-afaf-4700-8d5e-ca15218719ce" data-name="ombre" style="opacity:.5;fill:#373735" d="m453 589.31 21.52-5.91h11.86l1.59 2.96 237.36 43.3h11.08l11.07 31.39-46.41 37.71-46.42 13.19-8.18-1.32.27-1.85-13.98-2.63-83.61 27.95-73.32 51.57-22.83 6.82-7.76-1.16v-2.63l-16.09-3.03-129.99 34.37L453 589.31z"/><g id="ac7c271c-fbcf-4742-a764-ada588a117b3" data-name="bottom"><path class="ba804f25-373d-449b-9af7-b8006624263a" d="m36.97 455.08 224.91 39.62v4.35l25.71 6.13-.39 311.34-248.24-47.27-1.99-314.17z"/><path class="f9413af8-ad61-4632-ae9f-40f215fc539b" d="m202 526.54-78.38-13.74c-3 .19-4.26 3.56-4.26 3.56l.2 85c.69 2.18 3.86 5 3.86 5l74.27 13.46c5.14.49 7.52-5.25 7.52-5.25v-82.69a7.12 7.12 0 0 0-3.21-5.34zm-49.9 22.55-18.69-3.46v-20l2.27-1.88 18.1 3.07-1.78 2.69zm31.45 6.13-18.69-3.46v-20l2.27-1.87 18.1 3.06-1.78 2.67z"/><path class="e96ad3fb-7e62-4ed5-b894-bbde4f96324b" d="m135.68 523.77-2.27 1.88v19.98l18.69 3.46-.1-19.58 1.78-2.67-18.1-3.07zM167.13 529.9l-2.27 1.88v19.98l18.69 3.46-.1-19.58 1.78-2.67-18.1-3.07z"/><path class="af26a2c4-fc21-426b-be84-f0214d508df4" d="M141.12 543.55V530.7l8.01 1.78v12.56l-8.01-1.49zM172.18 549.39v-12.86l8.01 1.78v12.56l-8.01-1.48z"/><path d="M136.21 543.68v-15.22l2.04.39v15.16l-2.04-.33zM167.66 549.22v-15.23l2.04.4v15.16l-2.04-.33z"/><path class="fca96364-0def-4790-bd16-8589d8eb9fad" d="M141.38 531.21v-.35l7.47 1.8.01.43-7.48-1.88zM172.44 537.14v-.29l7.46 1.64.02.35-7.48-1.7z"/><circle cx="193.37" cy="575.37" r="4.25" style="fill:#8b8b8b;stroke-width:.75px;stroke:#090000;stroke-miterlimit:10"/><path class="ffd55eb0-35e6-4fcd-9442-b720d6aedf61" d="M137.26 599.24v-11.28l11.97 2.18v11.3l-11.97-2.2zM168.52 604.77V593.5l11.96 2.17v10.88l-11.96-1.78z"/></g><g id="b1730e31-bcb6-4e77-945b-c6cda5095db5" data-name="t molding"><path class="af54e711-0e62-400c-a151-46ad7d7bf1a6" d="m11.46 450.59-.79-39.76L1 407.66v45.1l27.89 5.54c.59 103.55 1 207.6 1.58 311.15a6.18 6.18 0 0 0 3.53 2.19 12.58 12.58 0 0 0 5 0l-2-316.56zM272.36 497v-41.27l-10.28-1.19-.2 44.51 25.71 6.13s-1.51 313.85 0 315.69 8.77 1.32 8.77 1.32l.93-319.91zM79.7 346.94l-8.15-1.3 16.26-218.56 9.03 1.51L79.7 346.94zM330.22 389.37l9.1 1.28 18.49-224.31h-26.37l-.26-90.92-10.06-1.84v94.84l6.03 1.09h20.28l-17.21 219.86z"/><path class="af54e711-0e62-400c-a151-46ad7d7bf1a6" d="M88.49 127.19s-28.17-.35-29.11-.85c0-31.21.06-62.83 0-94l9.36 2.64.48 89.02z"/><g id="e3fd4b3a-20f4-47c9-a4f9-94dc62e8046f" data-name="clair"><path class="af54e711-0e62-400c-a151-46ad7d7bf1a6" d="m.98 407.66 9.69 3.17 68.31-64.06-8.11-1.94L.98 407.66zM262.08 454.54l10.28 1.19 66.96-65.87-8.62-1.6-68.62 66.28zM112.54.52 59.4 32.3l9.36 2.64 52.58-31.12 2.74-1.62-2.58-.36-8.96-1.32zM384.71 41.14l-11.21-.8-52.38 33.24 10.06 1.84 53.53-34.28z"/></g></g><g id="aca511e0-e139-46e4-9c8d-9f1765a2d856" data-name="side"><path class="f9413af8-ad61-4632-ae9f-40f215fc539b" d="m454.11 309.16.63-159.63-70.03-108.39-53.53 34.28.26 90.92h26.37l-18.49 224.31-66.96 65.08V497l24.93 5.28-.93 319.91 8.25-6.32 149.64-543.7-.21 21.51-142.09 516.55-1.61 1.24 6.94-5.32 136.83-496.99zM325.04 799.67l-7.76 6.48 11.99-9.2 124.7-453.24.05-12.13-128.98 468.09zM336.41 791.47l-1.32 1.02 6.86-5.27 111.8-407.64v21.25l.22-57.12-.22 24-117.34 423.76zM343.97 785.67l108.59-83.28 1.18-299.84L348.38 782.3l-4.41 3.37z"/><path style="fill:#bf0000;stroke-width:.5px;stroke-miterlimit:10;stroke:#b5b5b5" d="m304.61 815.87 5.73-4.4-5.73 4.4z"/><path style="stroke-width:.5px;stroke-miterlimit:10;stroke:#b5b5b5" d="m454.04 293.68.21-21.51-149.64 543.7 5.73-4.4 1.61-1.24 142.09-516.55z"/><path class="ab84daa6-db24-4c04-ad24-96b6abebb012" d="M454.11 331.26v-22.1l-.09 22.42.09-.32zM317.28 806.15z"/><path style="fill:#ff2100;stroke-width:.5px;stroke-miterlimit:10;stroke:#b5b5b5" d="m454.02 331.58.09-22.42-136.83 496.99 7.76-6.48 128.98-468.09z"/><path class="be883e19-13f9-4a59-a8c7-49292dfef9c9" d="M453.97 343.71zM329.27 796.95l5.82-4.46-5.82 4.46z"/><path style="fill:#f9f9f9;stroke-width:.5px;stroke-miterlimit:10;stroke:#b5b5b5" d="m335.09 792.49 1.32-1.02 117.34-423.76.22-24-124.7 453.24 5.82-4.46z"/><path class="aae76000-eae6-4e7e-86a8-bec6d3f24c41" d="m341.95 787.22 2.02-1.55-2.02 1.55zM453.75 402.52v-1.69l-.01 1.72.01-.03z"/><path style="fill:#959595;stroke-width:.5px;stroke-miterlimit:10;stroke:#b5b5b5" d="m341.95 787.22 2.02-1.55 4.41-3.37 105.36-379.75.01-1.72v-21.25l-111.8 407.64z"/></g><g id="af9931d1-ea34-40df-acae-375beac54585" data-name="panel"><path class="a533f908-13ed-4fe4-9b81-d79f9f8e09c1" d="m11.46 450.59 250.42 44.11.2-40.16-251.41-43.71.79 39.76z"/><path class="ba804f25-373d-449b-9af7-b8006624263a" d="m80.35 345.73-69.68 65.1 251.41 43.71 68.62-66.28-250.35-42.53z"/></g><g id="a6291644-dd35-4abc-b27b-0cdf34ff536c" data-name="ecran"><path class="a533f908-13ed-4fe4-9b81-d79f9f8e09c1" d="M96.84 129.36 79.7 347.72l250.52 42.43L347.82 168zm224.28 67.76c0 .2-.29.32-.48.49l-10.43 144.83a35.43 35.43 0 0 1-4.3 3.78l1.4.29v10.7s-1.4 4.75-11.08 2.64c-11.19-2.44-178.55-31.91-178.55-31.91l8.72-6.78v-1.39s-2.46.52-6-7l-12.48 2.77h-4l11.34-158.77s4-6.85 10.81-6.59 191.16 30.59 191.16 30.59 6.17 1.07 3.89 16.35z"/><path d="M317.28 180S133 149.66 126.12 149.4s-10.81 6.6-10.81 6.6l-11.74 160.08h4.35l12.29-2.68c-.1-.23-.74-1.57-.85-1.8L131 166.54s2.11-5.54 7.12-7.38l177.49 27.16a20.77 20.77 0 0 1 5.11 9.76l-.05.75c.19-.17.62.66.66.47 3.23-14.06-4.05-17.3-4.05-17.3z" style="fill:#151312"/><path d="m125.32 320-8.56 8s164.63 29.3 178.61 32.24c10.36 2.17 14.43-3.58 14.43-3.58l.61-7.37.39-7.71-4.89 3.84a20.85 20.85 0 0 1-7.73 3.87z" style="fill:#555353"/><path d="M319.5 197.81c.45-.36.83-.69 1.14-1l.66-.52a20.31 20.31 0 0 0-5.72-10l-177.49-27.13c-5 1.84-7.12 7.38-7.12 7.38L119.36 311.6l.32.66c3.54 7.52 6.28 8 6.28 8l.44.08 171.78 28.93a20.85 20.85 0 0 0 7.73-3.87c2.57-1.91 4.89-3.84 4.89-3.84l10.5-145.29c-.44.46-1.05.96-1.8 1.54z" style="fill:#008aa6"/></g><g id="b306dcba-1d51-4f99-ace0-2477c110a497" data-name="top"><path id="bc70e77d-26cb-4656-b768-69a3031bd8cc" data-name="marquee" class="a533f908-13ed-4fe4-9b81-d79f9f8e09c1" d="m69.22 124.02 251.47 39.03.43-89.47L68.76 34.94l.46 89.08z"/><path style="stroke-miterlimit:10;stroke:#b5b5b5;fill:#373735" d="m129.81 3.16-5.73-.96-55.32 32.74 252.36 38.64 52.38-33.24L129.81 3.16z"/></g><g id="a829ee98-d578-4df7-b5b1-e70aca29c3cf" data-name="stickp1"><path class="a62f4864-b9ad-47cd-99f7-89816f5ed6f9" d="M68.92 377.27v5.16H62.4v-5.16c-5.06.64-8.77 2.7-8.77 5.16 0 3 5.38 5.35 12 5.35s12-2.39 12-5.35c.06-2.43-3.63-4.52-8.71-5.16z"/><path class="a28bfa21-9c87-40ff-8dcf-9bda235899d6" d="M68.92 377.27v-17.78a12.18 12.18 0 0 1-3 .39 12.4 12.4 0 0 1-3.48-.49v17.88a26.67 26.67 0 0 1 6.52 0z"/><path class="a28bfa21-9c87-40ff-8dcf-9bda235899d6" d="M68.92 382.43v-5.16a26.67 26.67 0 0 0-6.52 0v5.16z"/><path class="a892d202-e2b5-40fa-a1ec-054dfb3c7017" d="M68.92 358.89v.6a11.24 11.24 0 0 0 8.77-10.72c0-6.14-5.29-11.11-11.81-11.11s-11.82 5-11.82 11.11a11.22 11.22 0 0 0 8.34 10.62v-.5z"/><path class="a28bfa21-9c87-40ff-8dcf-9bda235899d6" d="M68.92 359.49v-.6H62.4v.5a12.4 12.4 0 0 0 3.48.49 12.18 12.18 0 0 0 3.04-.39z"/><path class="a892d202-e2b5-40fa-a1ec-054dfb3c7017" d="M68.92 359.49v-.6H62.4v.5a12.4 12.4 0 0 0 3.48.49 12.18 12.18 0 0 0 3.04-.39z"/></g><g id="ac65a245-2555-45f1-83ab-1d59fb179d56" data-name="stickp2"><path class="a62f4864-b9ad-47cd-99f7-89816f5ed6f9" d="M198.88 399.49v5.16h-6.53v-5.16c-5 .64-8.77 2.7-8.77 5.16 0 3 5.39 5.35 12 5.35s12-2.39 12-5.35c.07-2.46-3.64-4.52-8.7-5.16z"/><path class="a28bfa21-9c87-40ff-8dcf-9bda235899d6" d="M198.88 399.49v-17.78a12.2 12.2 0 0 1-3 .39 12.83 12.83 0 0 1-3.48-.49v17.88a26.75 26.75 0 0 1 6.53 0z"/><path class="a28bfa21-9c87-40ff-8dcf-9bda235899d6" d="M198.88 404.65v-5.16a26.75 26.75 0 0 0-6.53 0v5.16z"/><path class="aab915f0-6c57-4d4e-b4f4-6dae58302bfb" d="M198.88 381.11v.6a11.24 11.24 0 0 0 8.77-10.71c0-6.14-5.29-11.11-11.82-11.11S184 364.85 184 371a11.22 11.22 0 0 0 8.34 10.62v-.5z"/><path class="a28bfa21-9c87-40ff-8dcf-9bda235899d6" d="M198.88 381.71v-.6h-6.53v.5a12.83 12.83 0 0 0 3.48.49 12.2 12.2 0 0 0 3.05-.39z"/><path class="aab915f0-6c57-4d4e-b4f4-6dae58302bfb" d="M198.88 381.71v-.6h-6.53v.5a12.83 12.83 0 0 0 3.48.49 12.2 12.2 0 0 0 3.05-.39z"/></g><g id="f5357071-cf0b-48fa-b92f-c45091bf750d" data-name="boutons P1"><g id="be9ec9da-3db8-4dbf-a336-fa94e8110494" data-name="4"><path class="aed9c92d-795d-4375-86dc-381688ca7759" d="M92.54 389.14c-3.86 0-8.12 1.53-8.12 4.87 0 2.95 4.1 4.62 7.94 4.62 4.11 0 8-1.73 8-4.88-.04-2.35-3.88-4.61-7.82-4.61zm-.18 8.63c-3.86 0-7-1.74-7-3.89s3.13-3.89 7-3.89 7 1.74 7 3.89-3.14 3.89-7 3.89z"/><path d="M92.36 390c-3.86 0-7 1.74-7 3.89s3.13 3.89 7 3.89 7-1.74 7-3.89-3.14-3.89-7-3.89z" style="fill:url(#ae8e2387-f7b9-4449-96b2-7448b1415d0f)"/></g><g id="fbabb015-5a80-47ff-b6aa-76775beaf687" data-name="5"><path class="aed9c92d-795d-4375-86dc-381688ca7759" d="M114.79 389.14c-3.86 0-8.12 1.53-8.12 4.87 0 2.95 4.1 4.62 7.94 4.62 4.11 0 8-1.73 8-4.88-.04-2.35-3.88-4.61-7.82-4.61zm-.18 8.63c-3.86 0-7-1.74-7-3.89s3.13-3.89 7-3.89 7 1.74 7 3.89-3.14 3.89-7 3.89z"/><path d="M114.61 390c-3.86 0-7 1.74-7 3.89s3.13 3.89 7 3.89 7-1.74 7-3.89-3.14-3.89-7-3.89z" style="fill:url(#b0676aef-20ac-43e1-a910-afa1c35088e6)"/></g><g id="ade098f1-4763-4eb2-a97a-8efdea8ddfde" data-name="6"><path class="aed9c92d-795d-4375-86dc-381688ca7759" d="M133.35 395.3c-3.86 0-8.13 1.53-8.13 4.87 0 3 4.11 4.62 7.95 4.62 4.1 0 8-1.73 8-4.88-.04-2.35-3.88-4.61-7.82-4.61zm-.18 8.63c-3.86 0-7-1.74-7-3.89s3.13-3.89 7-3.89 7 1.74 7 3.89-3.17 3.89-7 3.89z"/><path d="M133.17 396.15c-3.86 0-7 1.74-7 3.89s3.13 3.89 7 3.89 7-1.74 7-3.89-3.17-3.89-7-3.89z" style="fill:url(#bff73da4-d03e-4381-8321-f4cf6c1bb002)"/></g><g id="a2692045-b956-4fc9-919d-1689c2598eec" data-name="3"><path class="aed9c92d-795d-4375-86dc-381688ca7759" d="M139.39 383c-3.86 0-8.13 1.53-8.13 4.88 0 2.95 4.11 4.61 8 4.61 4.1 0 8-1.73 8-4.88-.09-2.31-3.93-4.61-7.87-4.61zm-.18 8.63c-3.86 0-7-1.74-7-3.89s3.13-3.89 7-3.89 7 1.75 7 3.89-3.14 3.93-7 3.93z"/><path d="M139.21 383.89c-3.86 0-7 1.75-7 3.89s3.13 3.89 7 3.89 7-1.74 7-3.89-3.14-3.89-7-3.89z" style="fill:url(#a61149ec-6d60-4d94-ab95-84fb80afc5fa)"/></g><g id="e2a1d8fd-f673-4132-9d78-89a3cce11d3b" data-name="2"><path class="aed9c92d-795d-4375-86dc-381688ca7759" d="M121.79 377.35c-3.86 0-8.12 1.53-8.12 4.88 0 2.95 4.1 4.61 7.94 4.61 4.11 0 8-1.73 8-4.88-.04-2.34-3.88-4.61-7.82-4.61zm-.18 8.64c-3.86 0-7-1.74-7-3.89s3.13-3.89 7-3.89 7 1.74 7 3.89-3.14 3.9-7 3.9z"/><path d="M121.61 378.21c-3.86 0-7 1.74-7 3.89s3.13 3.89 7 3.89 7-1.74 7-3.89-3.14-3.89-7-3.89z" style="fill:url(#ad9e3a5f-baa1-466c-8931-49b9bee22879)"/></g><g id="a4e11d16-3101-4de9-8e31-45759167eca2" data-name="1"><path class="aed9c92d-795d-4375-86dc-381688ca7759" d="M100.5 377.78c-3.86 0-8.13 1.53-8.13 4.88 0 2.95 4.11 4.62 7.95 4.62 4.1 0 8-1.73 8-4.88-.04-2.35-3.88-4.62-7.82-4.62zm-.18 8.64c-3.86 0-7-1.74-7-3.89s3.13-3.89 7-3.89 7 1.74 7 3.89-3.14 3.89-7 3.89z"/><path d="M100.32 378.64c-3.86 0-7 1.74-7 3.89s3.13 3.89 7 3.89 7-1.74 7-3.89-3.14-3.89-7-3.89z" style="fill:url(#af843977-3ebb-4d77-8785-659ff7a26d0d)"/></g></g><g id="f3481f0d-6d0d-4df1-ba1e-8c86c5b25b1c" data-name="boutons P2"><g id="a5def57d-4baf-4025-801a-c9b096d0b009" data-name="1"><path class="e5129ac5-ad3c-4a2a-8e0d-9cd0639f4793" d="M225.69 399.93c-3.86 0-8.13 1.53-8.13 4.87 0 2.95 4.11 4.62 7.95 4.62 4.1 0 8-1.73 8-4.88-.04-2.35-3.88-4.61-7.82-4.61zm-.18 8.63c-3.86 0-7-1.74-7-3.89s3.13-3.89 7-3.89 7 1.74 7 3.89-3.14 3.89-7 3.89z"/><path d="M225.51 400.78c-3.86 0-7 1.74-7 3.89s3.13 3.89 7 3.89 7-1.74 7-3.89-3.14-3.89-7-3.89z" style="fill:url(#aa50c69e-a411-4be1-a822-4f5ab8817b08)"/></g><g id="bc0fdc37-92ee-4a46-a071-14161eb82a00" data-name="2"><path class="e5129ac5-ad3c-4a2a-8e0d-9cd0639f4793" d="M247 399.49c-3.86 0-8.13 1.54-8.13 4.88 0 2.95 4.11 4.62 7.95 4.62 4.1 0 8-1.73 8-4.88-.07-2.35-3.91-4.62-7.82-4.62zm-.18 8.64c-3.86 0-7-1.74-7-3.89s3.13-3.89 7-3.89 7 1.74 7 3.89-3.17 3.89-7.03 3.89z"/><path d="M246.79 400.35c-3.86 0-7 1.74-7 3.89s3.13 3.89 7 3.89 7-1.74 7-3.89-3.14-3.89-7-3.89z" style="fill:url(#a4634513-02e8-46ec-a32b-6cc9eed1bc8b)"/></g><g id="f44d4448-0c94-4ca7-a2be-ff097c3141f9" data-name="3"><path class="e5129ac5-ad3c-4a2a-8e0d-9cd0639f4793" d="M264.58 405.18c-3.86 0-8.12 1.53-8.12 4.88 0 2.95 4.1 4.61 7.94 4.61 4.1 0 8-1.73 8-4.88-.04-2.35-3.88-4.61-7.82-4.61zm-.18 8.64c-3.86 0-7-1.75-7-3.89s3.13-3.89 7-3.89 7 1.74 7 3.89-3.14 3.89-7 3.89z"/><path d="M264.4 406c-3.86 0-7 1.74-7 3.89s3.13 3.89 7 3.89 7-1.75 7-3.89-3.14-3.89-7-3.89z" style="fill:url(#bf51b6d4-127e-4bf2-939c-160c89663a5d)"/></g><g id="e0b62892-a19d-42fb-bd42-7ae3c5c1f08f" data-name="4"><path class="e5129ac5-ad3c-4a2a-8e0d-9cd0639f4793" d="M258.54 417.44c-3.86 0-8.13 1.53-8.13 4.88 0 2.95 4.11 4.61 8 4.61 4.1 0 8-1.73 8-4.88-.09-2.35-3.93-4.61-7.87-4.61zm-.18 8.64c-3.86 0-7-1.75-7-3.89s3.13-3.89 7-3.89 7 1.74 7 3.89-3.14 3.89-7 3.89z"/><path d="M258.36 418.3c-3.86 0-7 1.74-7 3.89s3.13 3.89 7 3.89 7-1.75 7-3.89-3.14-3.89-7-3.89z" style="fill:url(#bf9deeba-25b7-4adc-8d44-3234889afe69)"/></g><g id="eca02336-5e1c-477b-98e5-bb5bffc650a1" data-name="5"><path class="e5129ac5-ad3c-4a2a-8e0d-9cd0639f4793" d="M240 411.28c-3.86 0-8.13 1.53-8.13 4.88 0 2.95 4.11 4.61 7.95 4.61 4.1 0 8-1.73 8-4.88-.07-2.35-3.91-4.61-7.82-4.61zm-.18 8.63c-3.86 0-7-1.74-7-3.89s3.13-3.89 7-3.89 7 1.75 7 3.89-3.17 3.89-7.03 3.89z"/><path d="M239.79 412.13c-3.86 0-7 1.75-7 3.89s3.13 3.89 7 3.89 7-1.74 7-3.89-3.14-3.89-7-3.89z" style="fill:url(#be6fc4df-d485-41c3-bf80-cecfe0a76e0f)"/></g><g id="ec7023f7-8c57-4524-a0bc-1fe6c0c26eaa" data-name="6"><path class="e5129ac5-ad3c-4a2a-8e0d-9cd0639f4793" d="M217.73 411.28c-3.86 0-8.13 1.53-8.13 4.88 0 2.95 4.11 4.61 8 4.61 4.1 0 8-1.73 8-4.88-.09-2.35-3.93-4.61-7.87-4.61zm-.18 8.63c-3.86 0-7-1.74-7-3.89s3.13-3.89 7-3.89 7 1.75 7 3.89-3.14 3.89-7 3.89z"/><path d="M217.55 412.13c-3.86 0-7 1.75-7 3.89s3.13 3.89 7 3.89 7-1.74 7-3.89-3.14-3.89-7-3.89z" style="fill:url(#ff87bf0a-1e8e-47c4-97c7-e1c57f527ca1)"/></g></g><path class="a426da3b-4488-4bbc-bc2c-d33de8c2d094" d="M228.57 237.19v.07l-5.92-1v-.08zM236.56 238.53a.13.13 0 0 0 0 .06l-5.72-1v-.06z"/><path class="fcbacbd2-d96a-42f1-9d59-1a18dd65872e" d="m210.17 273.38-65.56-11c-.87-.14-.87-.14-.74-.92.25-1.54.47-3.08.75-4.61.78-4.31 1.48-8.63 2.22-12.95.09-.48.22-1 .29-1.44 0-.18.12-.23.31-.19l.75.13 119.31 19.98a16.13 16.13 0 0 1 4.69 1.42 11.54 11.54 0 0 1 5.67 5.9 8.36 8.36 0 0 1 .63 3.88c0 .38-.08.76-.15 1.14l-1.56 9.36c-.07.39-.13.42-.54.36l-40.11-6.72zm14.68-7.7c-.4 2.35-.79 4.71-1.19 7.07 0 .23 0 .34.3.38 1 .15 1.95.32 2.93.49.51.09.51.09.59-.37q.69-4.22 1.4-8.43c0-.08 0-.21.12-.22s.13.1.17.17c1.69 3.14 3.43 6.26 5.06 9.42a2.38 2.38 0 0 0 3.55.6c.9-.94 1.91-1.79 2.87-2.68l4.89-4.53c.08-.07.15-.22.26-.17s0 .2 0 .31v.12c-.47 2.79-.93 5.58-1.4 8.37 0 .25 0 .35.31.4 1 .16 2 .32 3.06.51.34.07.45 0 .49-.32l2.32-13.83a1.32 1.32 0 0 0-.25-1 2.34 2.34 0 0 0-3.26-.37l-2.16 2-8.12 7.4c-.25.23-.28.22-.45-.08-2.2-4.06-4.42-8.11-6.61-12.17a2.14 2.14 0 0 0-1.43-1.06A1.74 1.74 0 0 0 226 259zm-4.51-.71c.38-2.31.76-4.61 1.16-6.92a1.32 1.32 0 0 0-.45-1.21 2.4 2.4 0 0 0-3.17 0c-2.39 2.24-4.82 4.43-7.24 6.63l-2.95 2.7c-.13.12-.23.25-.37 0l-3.44-6.31c-1.1-2-2.19-4-3.3-6a2.24 2.24 0 0 0-2.21-1 1.52 1.52 0 0 0-1.5 1.37q-1.16 6.86-2.3 13.71c0 .28.05.37.35.41 1 .15 2 .32 3 .5.44.07.45.08.51-.3.46-2.73.91-5.46 1.37-8.19 0-.13 0-.27.06-.4s0-.16.11-.17.1.08.13.14.18.34.28.51c1.63 3 3.29 6 4.88 9.07a2.34 2.34 0 0 0 3.35.6c.47-.47 1-.91 1.48-1.37l6.5-6c.06-.05.09-.14.19-.11s.07.14.06.22c-.14.81-.28 1.62-.41 2.44-.35 2.06-.69 4.13-1 6.2 0 .22 0 .32.29.36l3 .5c.44.07.45.07.52-.31q.51-3.6 1.1-7.04zm33.15 5.67c-.38 2.28-.76 4.57-1.15 6.85-.06.31.06.41.38.45 1 .16 2 .32 3 .5.33.07.45 0 .5-.31.16-1 .35-2.08.51-3.12 0-.23.12-.33.4-.28l12.77 2.14c.33.05.39.18.34.45-.18 1-.34 2.08-.53 3.12-.05.25 0 .35.32.4 1 .15 2 .32 3 .49.45.07.46.07.53-.34l1.22-7.32a6.88 6.88 0 0 0-2.51-6.52 12.61 12.61 0 0 0-6.36-3c-2.38-.41-4.76-.8-7.13-1.19-.72-.12-1.45-.26-2.17-.35a1.6 1.6 0 0 0-1.91 1.29c-.46 2.27-.83 4.5-1.21 6.74zm-62.24-10.42 1.14-6.79a1.24 1.24 0 0 0 0-.47 1.91 1.91 0 0 0-1.63-1.33c-1.55-.26-3.1-.53-4.65-.77-1.84-.3-3.66-.71-5.51-.87a11.55 11.55 0 0 0-7 1.39 6.55 6.55 0 0 0-3.37 4.67q-.63 3.74-1.25 7.47c-.07.4-.07.4.36.47 1 .17 2 .32 2.93.5.33.06.45 0 .5-.31.15-1 .34-2.06.5-3.09 0-.29.17-.35.48-.3l12.67 2.12c.34 0 .42.16.37.46-.19 1-.35 2.08-.54 3.11 0 .26 0 .36.32.4 1 .16 2 .32 3 .51.33.06.44 0 .49-.32.42-2.28.81-4.57 1.19-6.85zm-38.3 1 6.47 1.08a7.76 7.76 0 0 0 2.76 0 3.93 3.93 0 0 0 3.34-2.92c.64-3.78 1.26-7.55 1.9-11.33.05-.27 0-.37-.33-.42-1-.15-2-.32-3-.5-.36-.07-.46 0-.51.33q-.92 5.58-1.86 11.15a1.08 1.08 0 0 1-1.24.95 4.41 4.41 0 0 1-.73-.08c-1-.18-2-.37-3.06-.54l-7-1.15c-.28-.05-.35-.15-.31-.38.11-.59.19-1.18.31-1.76.06-.28 0-.4-.35-.45-.84-.13-1.68-.26-2.52-.42-.34-.07-.44 0-.49.32-.24 1.49-.49 3-.74 4.45-.07.42-.07.42.42.5zM230.83 237.63l5.72 1c.15.09.15.2.13.35-.37 2.17-.73 4.34-1.11 6.51 0 .29 0 .38.34.43 3.09.5 6.18 1 9.27 1.54.32.05.34.16.31.44-.06.67-.23 1.33-.32 2-.22 1.55-.54 3.09-.8 4.63-.1.59-.17 1.19-.26 1.78 0 .2-.12.31-.4.26L228.57 254c-.65-.11-.65-.11-.56-.68q1.29-7.69 2.57-15.38c.02-.15.02-.31.25-.31zm3.94 12.7c-.13.78-.25 1.56-.39 2.34-.05.27 0 .38.33.43 1.06.16 2.11.34 3.16.53.32.06.44 0 .49-.31.25-1.55.51-3.1.78-4.66 0-.24 0-.34-.31-.38q-1.62-.25-3.24-.54c-.28-.05-.39 0-.43.27-.16.78-.26 1.55-.39 2.32zM255.63 249.17c2.55.43 5.09.86 7.64 1.27.34.06.42.17.37.47q-.7 4.14-1.39 8.3c-.07.37-.1.4-.52.33L246.38 257c-.27-.05-.34-.16-.3-.39q.72-4.21 1.41-8.43c0-.28.18-.33.47-.28 2.55.44 5.11.86 7.67 1.29zm1.31 4.88c.14-.8.27-1.6.41-2.4 0-.23 0-.36-.3-.4l-3.44-.58c-.26 0-.38 0-.42.27l-.81 4.85c0 .25.05.36.33.41l3.37.56c.3.06.42 0 .46-.3.13-.8.27-1.6.4-2.41zM173.53 244.78l-7.64-1.27c-.31 0-.37-.15-.33-.42q.72-4.2 1.42-8.42c0-.25.13-.32.4-.27l15.36 2.6c.41.07.43.11.37.49-.26 1.55-.53 3.11-.78 4.66 0 .31-.17.37-.5.32-3.07-.53-6.15-1-9.22-1.55-.46-.08-.46-.08-.52.32s-.11.7-.19 1 0 .35.31.4c2.06.33 4.11.68 6.17 1l3.16.53c.32.05.42.17.37.44s-.14.74-.19 1.11-.18.38-.51.32zm.92-5.45c.56.1 1.13.18 1.69.29.25 0 .35 0 .38-.25 0-.39.12-.78.2-1.17 0-.21 0-.32-.26-.36l-3.41-.57c-.22 0-.33 0-.36.23q-.08.62-.18 1.23c0 .23.06.3.29.33.55.07 1.1.17 1.65.27zM211.28 241.75l7.64 1.28c.44.07.5.14.42.52-.43 2-.7 4-1.05 6-.14.74-.27 1.48-.37 2.23 0 .29-.15.37-.49.31-2.08-.36-4.17-.7-6.26-1l-9-1.51c-.42-.07-.43-.08-.37-.47.26-1.56.53-3.11.77-4.67 0-.32.18-.37.52-.31l9.16 1.54c.46.07.46.07.53-.33s.09-.67.17-1 0-.4-.36-.46c-2.34-.37-4.68-.77-7-1.16l-2.31-.38c-.24 0-.32-.12-.28-.34a10.85 10.85 0 0 0 .21-1.27c0-.27.16-.31.43-.26l5.37.9 2.27.38zm-1.15 7.25c.55.09 1.11.17 1.66.27.21 0 .33 0 .36-.21l.21-1.23c0-.19-.05-.29-.27-.33l-3.33-.56c-.24 0-.35 0-.38.24 0 .4-.11.79-.19 1.17-.05.23.05.33.29.37.52.07 1.1.17 1.65.28zM268.74 251.36c.87.15 1.74.31 2.62.44.31 0 .38.18.34.43-.08.4-.13.8-.21 1.2 0 .21 0 .3.27.34l3.36.56c.28 0 .38 0 .41-.27.06-.41.15-.82.2-1.23 0-.23.15-.27.37-.24l5.4.91c.21 0 .3.13.27.33-.08.43-.16.86-.22 1.29 0 .23-.16.29-.41.25-.44-.09-.89-.15-1.34-.24-.24 0-.33 0-.36.24-.05.4-.13.8-.19 1.2 0 .23-.15.3-.4.25-.47-.08-.94-.15-1.41-.24-.17 0-.24 0-.29.17-.13.44-.08.91-.25 1.34-.07.18.07.24.24.27l1.38.22c.28 0 .38.15.33.41s-.13.78-.21 1.17c0 .21.05.31.28.34l1.34.22c.25 0 .34.13.3.36-.09.42-.17.84-.22 1.27 0 .22-.15.27-.36.24l-.65-.11-4.62-.77c-.45-.08-.45-.08-.38-.49s.12-.76.19-1.14c.05-.21 0-.3-.27-.34l-3.44-.58c-.22 0-.29 0-.31.21-.06.4-.16.8-.19 1.21s-.19.37-.5.32l-4.72-.8c-1.16-.19-.93-.1-.8-1 0-.25.09-.49.12-.74s.16-.29.4-.25c.45.09.9.15 1.34.24.27.05.39 0 .42-.26s.14-.78.19-1.17.16-.31.41-.26c.46.09.92.15 1.37.24.21 0 .3 0 .32-.2.06-.43.13-.85.22-1.27 0-.21-.05-.28-.26-.31l-1.38-.23c-.24 0-.34-.12-.29-.36s.14-.78.21-1.17c0-.23 0-.35-.31-.38-.45-.06-.9-.15-1.35-.22-.25 0-.34-.14-.29-.37q.12-.63.21-1.26c0-.24.16-.29.4-.24zM222.64 236.28l5.92 1a.42.42 0 0 1 .05.36q-1.31 7.77-2.6 15.56c0 .28-.17.37-.48.31s-.88-.19-1.33-.26l-3.89-.62c-.46-.08-.45-.08-.39-.49q1.31-7.74 2.6-15.49c.02-.14 0-.28.12-.37zM191.71 247.82l-7.71-1.28c-.3 0-.4-.14-.35-.43q.72-4.2 1.41-8.4c0-.26.15-.32.42-.27l15.39 2.56c.31.05.42.18.36.45s-.11.72-.19 1.08-.13.41-.55.34l-4.16-.7-5.06-.85c-.28 0-.37 0-.41.25-.22 1.39-.46 2.78-.69 4.17a2.74 2.74 0 0 1 0 .28c-.11.6-.11.6.58.72l8.92 1.49c.42.07.45.11.39.5s-.15.72-.18 1.08-.19.35-.48.3c-.56-.11-1.12-.2-1.68-.29z"/><path d="M291.07 282.1c-.25 1.47-.49 2.94-.74 4.41-.07.42-.07.42-.51.34l-4.27-.71c-.27 0-.37-.13-.3-.37s.07-.41.11-.62-.06-.27-.25-.29l-.49-.05c-.39-.06-.49 0-.51.37v.19c0 .43-.14.5-.63.42-1.39-.23-2.79-.47-4.19-.69-.32-.05-.4-.19-.36-.45.5-3 1-5.91 1.49-8.86.06-.36.14-.42.55-.33 2.95.58 5.92 1 8.87 1.52.52.09 1 .13 1.55.22s.47.1.4.52c-.24 1.46-.49 2.92-.73 4.38zm-8.37-.17 1.58.27c.22 0 .32 0 .35-.22.1-.59.2-1.19.31-1.79 0-.21-.06-.3-.29-.34l-3.13-.52c-.21 0-.31 0-.35.22-.08.59-.18 1.19-.29 1.79 0 .21 0 .31.27.34zm5.47-1.49c-.52-.08-1-.16-1.55-.26-.25-.05-.36 0-.39.24-.09.59-.19 1.19-.29 1.78-.05.23.05.29.28.33 1 .16 2 .33 3 .51.28.05.39 0 .43-.27.08-.56.17-1.13.28-1.69 0-.23 0-.35-.3-.39-.48-.08-.97-.17-1.46-.25z" style="fill:#2785db"/><path d="M292.87 271.31c-.25 1.48-.5 3-.74 4.44-.07.38-.11.4-.52.34l-2.86-.48c-.41-.07-.49-.18-.43-.54.14-.85.28-1.71.43-2.56a.34.34 0 0 1 0-.1c.2-.63.12-.52.72-.43l1.48.25c.26 0 .4 0 .44-.25.09-.59.19-1.18.29-1.76 0-.21 0-.33-.3-.38l-8-1.34c-.26 0-.39.05-.42.28-.09.57-.19 1.14-.28 1.7 0 .23.05.36.31.41l3.06.52a.25.25 0 0 0 .33-.17 1.81 1.81 0 0 0 .12-.64c0-.19.11-.24.27-.29a.45.45 0 0 1 .2 0c.85.09.89.14.77.88-.21 1.26-.43 2.51-.63 3.77 0 .26-.17.34-.43.3l-5.43-.91c-.49-.08-.55-.15-.48-.58.49-3 1-5.91 1.48-8.87 0-.17.09-.23.28-.22s.55 0 .83.08l9.77 1.63c.55.09.55.1.47.6l-.72 4.32z" style="fill:#44c047"/><path d="M289.84 254.78c1.75.29 3.49.59 5.24.87.3 0 .4.13.35.42-.51 3-1 5.95-1.49 8.92-.05.3-.16.38-.49.32-1.4-.25-2.8-.48-4.2-.71-.36-.06-.42-.15-.36-.47 0-.12.06-.23.08-.34.08-.47.08-.47-.46-.56h-.21c-.5-.08-.51-.08-.54.39 0 .18-.1.34-.11.52s-.18.19-.35.16l-4.44-.74c-.23 0-.32-.15-.29-.35.17-1 .35-2 .51-3.06 0-.28.23-.27.45-.23l1.83.3c.8.15 1.61.24 2.4.44.25.06.44 0 .48-.27.07-.57.17-1.14.28-1.7.05-.27 0-.38-.34-.43-1.42-.22-2.83-.47-4.24-.7-.29 0-.4-.12-.35-.4.18-1 .33-2 .48-3 0-.26.15-.33.44-.28 1.77.31 3.55.6 5.33.9zm1.49 6.43c.51.08 1 .16 1.54.26.22 0 .35 0 .39-.21.09-.61.19-1.22.3-1.82 0-.2 0-.32-.27-.35l-3.09-.52c-.22 0-.32 0-.35.21-.09.63-.2 1.25-.31 1.88 0 .18 0 .26.24.29z" style="fill:#eb1416"/><path class="fcbacbd2-d96a-42f1-9d59-1a18dd65872e" d="m156.94 232.66 7.54 1.26c.53.09.53.09.45.57s-.13.7-.17 1-.16.33-.44.28l-9.3-1.57c-.33-.05-.41 0-.45.3-.35 2.17-.72 4.33-1.07 6.49-.05.31-.2.36-.51.31l-5.19-.87c-.3 0-.4-.14-.35-.42q.72-4.19 1.4-8.39c.05-.31.19-.34.48-.29z"/><path class="a426da3b-4488-4bbc-bc2c-d33de8c2d094" d="M224.85 265.68 226 259a1.74 1.74 0 0 1 2.34-1.33 2.14 2.14 0 0 1 1.43 1.06c2.19 4.06 4.41 8.11 6.61 12.17.17.3.2.31.45.08l8.14-7.43 2.16-2a2.34 2.34 0 0 1 3.26.37 1.32 1.32 0 0 1 .25 1q-1.17 6.91-2.32 13.83c0 .29-.15.39-.49.32-1-.19-2-.35-3.06-.51-.3-.05-.36-.15-.31-.4.47-2.79.93-5.58 1.4-8.37v-.12c0-.04.11-.25 0-.31s-.18.1-.26.17l-4.89 4.53c-1 .89-2 1.74-2.87 2.68a2.38 2.38 0 0 1-3.55-.6c-1.63-3.16-3.37-6.28-5.06-9.42 0-.07-.06-.19-.17-.17s-.11.14-.12.22l-1.4 8.43c-.08.46-.08.46-.59.37-1-.17-1.95-.34-2.93-.49-.28 0-.34-.15-.3-.38.4-2.36.79-4.72 1.19-7.07zM220.34 265q-.59 3.46-1.16 6.95c-.07.38-.08.38-.52.31l-3-.5c-.27 0-.32-.14-.29-.36.36-2.07.7-4.14 1-6.2.13-.82.27-1.63.41-2.44 0-.08.06-.18-.06-.22s-.13.06-.19.11l-6.5 6c-.5.46-1 .9-1.48 1.37a2.34 2.34 0 0 1-3.35-.6c-1.59-3-3.25-6.05-4.88-9.07-.1-.17-.19-.34-.28-.51s-.05-.14-.13-.14-.1.1-.11.17 0 .27-.06.4c-.46 2.73-.91 5.46-1.37 8.19-.06.38-.07.37-.51.3-1-.18-2-.35-3-.5-.3 0-.4-.13-.35-.41q1.16-6.86 2.3-13.71a1.52 1.52 0 0 1 1.5-1.37 2.24 2.24 0 0 1 2.21 1c1.11 2 2.2 4 3.3 6l3.44 6.31c.14.27.24.14.37 0l2.95-2.7c2.42-2.2 4.85-4.39 7.24-6.63a2.4 2.4 0 0 1 3.17 0 1.32 1.32 0 0 1 .45 1.21c-.4 2.31-.78 4.61-1.16 6.92zM253.49 270.64c.38-2.24.75-4.47 1.13-6.7a1.6 1.6 0 0 1 1.91-1.29c.72.09 1.45.23 2.17.35 2.37.39 4.75.78 7.13 1.19a12.61 12.61 0 0 1 6.36 3 6.88 6.88 0 0 1 2.51 6.52q-.6 3.66-1.22 7.32c-.07.41-.08.41-.53.34-1-.17-2-.34-3-.49-.29 0-.37-.15-.32-.4.19-1 .35-2.08.53-3.12.05-.27 0-.4-.34-.45l-12.77-2.14c-.28-.05-.36 0-.4.28-.16 1-.35 2.08-.51 3.12-.05.3-.17.38-.5.31-1-.18-2-.34-3-.5-.32 0-.44-.14-.38-.45.39-2.28.77-4.57 1.15-6.85zM264 273l6.37 1.07c.3 0 .43 0 .46-.28s.08-.52.12-.78a4.27 4.27 0 0 0-1.54-4.2 8.48 8.48 0 0 0-4-1.85c-2.25-.43-4.52-.78-6.77-1.17-.34-.06-.36.12-.4.33q-.44 2.69-.9 5.37c0 .29 0 .4.36.46zM191.25 260.22c-.38 2.28-.77 4.57-1.14 6.85-.05.3-.16.38-.49.32-1-.19-2-.35-3-.51-.29 0-.36-.14-.32-.4.19-1 .35-2.08.54-3.11.05-.3 0-.41-.37-.46l-12.67-2.12c-.31-.05-.44 0-.48.3-.16 1-.35 2.05-.5 3.09 0 .3-.17.37-.5.31-1-.18-1.95-.33-2.93-.5-.43-.07-.43-.07-.36-.47q.62-3.74 1.25-7.47a6.55 6.55 0 0 1 3.37-4.67 11.55 11.55 0 0 1 7-1.39c1.85.16 3.67.57 5.51.87 1.55.24 3.1.51 4.65.77a1.91 1.91 0 0 1 1.59 1.37 1.24 1.24 0 0 1 0 .47l-1.14 6.79zm-10.67-1.14c2.11.35 4.22.7 6.33 1.07.32.05.44 0 .48-.29.3-1.81.6-3.63.91-5.44 0-.26 0-.37-.33-.42q-3-.48-6-1a11.11 11.11 0 0 0-3.77 0 4.85 4.85 0 0 0-3.81 2.54 7.49 7.49 0 0 0-.52 2c-.07.4-.07.41.4.48zM153 261.25l-7-1.17c-.49-.08-.49-.08-.42-.5.25-1.48.5-3 .74-4.45.05-.28.15-.39.49-.32.84.16 1.68.29 2.52.42.31.05.41.17.35.45-.12.58-.2 1.17-.31 1.76 0 .23 0 .33.31.38l7 1.15c1 .17 2 .36 3.06.54a4.41 4.41 0 0 0 .73.08 1.08 1.08 0 0 0 1.24-.95q.94-5.58 1.86-11.15c0-.3.15-.4.51-.33 1 .18 2 .35 3 .5.3.05.38.15.33.42-.64 3.78-1.26 7.55-1.9 11.33a3.93 3.93 0 0 1-3.34 2.92 7.76 7.76 0 0 1-2.76 0l-6.41-1.08z"/><path class="fcbacbd2-d96a-42f1-9d59-1a18dd65872e" d="m264 273-6.33-1c-.34-.06-.41-.17-.36-.46q.47-2.68.9-5.37c0-.21.06-.39.4-.33 2.25.39 4.52.74 6.77 1.17a8.48 8.48 0 0 1 4 1.85 4.27 4.27 0 0 1 1.54 4.2c0 .26-.1.52-.12.78s-.16.33-.46.28zM180.58 259.08l-6.3-1.06c-.47-.07-.47-.08-.4-.48a7.49 7.49 0 0 1 .52-2 4.85 4.85 0 0 1 3.81-2.54 11.11 11.11 0 0 1 3.77 0q3 .51 6 1c.31.05.38.16.33.42-.31 1.81-.61 3.63-.91 5.44 0 .29-.16.34-.48.29-2.11-.37-4.22-.72-6.33-1.07z"/><path class="bed37d46-3030-476c-a246-9bc9216e931d" d="M139.67 131.1c0-1.07.05-2.18 0-3.26-.08-.8.12-1 1-.83 7.15 1.17 14.25 2.2 21.44 3.31.35.05.77.25.77-.35s-.22-.7-.78-.78l-17.1-2.65c-.9-.27-1.87 0-2.71-.75a8.57 8.57 0 0 1-2.53-4.1 5.12 5.12 0 0 1 2.7-5.61 1.28 1.28 0 0 1 .7 0l24.46 3.72c.56.08.63.23.64.7a20.39 20.39 0 0 0 0 2.93c.08.61-.2.7-.76.62l-19.75-3c-.34 0-.76-.38-.83.34 0 .53.15.75.71.83l18.6 2.78a2.17 2.17 0 0 1 1.41.75c3.26 3.3 3.3 7 .18 9.29-.21.17-.49.19-.56.45-9.16-1.56-18.43-3-27.59-4.42zm107 16.62a3.67 3.67 0 0 1-2.07-3.71l-.13-9.5c.18-2.27 1.11-2.94 3.65-2.56l24.61 3.74c2 .3 3.6.89 4.28 2.9l.18 12.1a2.73 2.73 0 0 1-2.25 1.42l-28.27-4.39zm14.42-2.72 7.52 1.16c.73.12 1.09 0 1.08-.85a41.37 41.37 0 0 1-.06-4.16c0-.75-.31-1.07-1.11-1.19l-15.08-2.31c-.8-.12-1.09.17-1.08.85l.06 4c0 1 .16 1.18 1.18 1.34l7.49 1.15z"/><path class="b2370990-41a4-4698-ae5d-814b7ad36b30" d="m107.68 126.13-.15-14.83c0-.59.13-.77.82-.67l26.72 4.07a1.66 1.66 0 0 1 1.11.56c3.29 3.68 3.27 8.51.06 11.2a1.43 1.43 0 0 1-1.24.27l-18.94-2.93c-.68-.1-.89 0-.88.66.08.93 0 1.91 0 2.84l-7.53-1.17zm15.66-8.47-6.25-1c-2-.31-2-.31-2 1.61 0 .53.14.68.69.76l15 2.31a1.15 1.15 0 0 0 1.44-1.11 1.63 1.63 0 0 0-1.46-1.48z"/><path class="bed37d46-3030-476c-a246-9bc9216e931d" d="M212.25 142.37c-.16-1.37 0-2.7-.12-4.06 0-.27.07-.39.35-.35l21.74 3.36c1.94.3 1.72-.14 1.7-1.63 0-.27-.15-.36-.36-.39L215 136.12c-1.93-.29-2.79-1.1-2.82-2.92-.09-2.1 0-4.24-.15-6.34 0-.41.14-.45.57-.39l6.36 1c.43.06.57.22.58.63v3.84c0 .41.15.56.58.63l15.23 2.33c.51.08.65-.1.57-.52v-3.72c0-.48.06-.67.64-.58l6.14.93c.5.08.58.29.58.7l.17 12.48a2.42 2.42 0 0 1-1.84 2.7c-9.81-1.46-19.58-3-29.31-4.49zm-32.27-5c0-.81-.09-1.55-.1-2.36l-.15-12.71c0-.61.06-.8.76-.69 2.12.39 4.16.7 6.28 1 .64.1.78.32.79.86 0 2.33.05 4.69.08 7 .36.12.5-.06.71-.16l12.74-5.16a2.89 2.89 0 0 1 1.55-.16c3 .45 6 .91 9.12 1.52-4.46 1.94-8.84 3.82-13.28 5.76a1.88 1.88 0 0 0 .79.66c4 2.89 7.95 5.79 12 8.7.22.17.65.17.51.62l-9.9-1.54-.29-.32c-4.51-3.18-9-6.29-13.42-9.44a2.8 2.8 0 0 0-.42-.27l.09 7.78c-2.61-.27-5.22-.68-7.83-1.08zm-8.72-1.37-.11-9.62c0-.53.06-.79.76-.62 2.18.4 4.29.66 6.47 1 .42.07.56.16.57.63 0 3.27.08 6.62 0 9.89-2.6-.47-5.2-.87-7.73-1.27z"/><path class="b2370990-41a4-4698-ae5d-814b7ad36b30" d="M189.38 93.59a7.84 7.84 0 0 1-1.38 4.34c-3 4.57-5.94 9.07-9.9 12.82a17.44 17.44 0 0 1-7.53 4.27c-.62.17-1.46.64-1.89 0s.55-.92 1-1.25c6.32-4.45 10.32-10.73 13.69-17.44a25.59 25.59 0 0 0 1.84-4.4c.54-2.06-.17-2.9-2.42-2.76a10.27 10.27 0 0 0-5.79 2.09 4 4 0 0 1-.9.67c-.77.49-1.26.21-1.48-.75a8.2 8.2 0 0 1 .23-4 18.45 18.45 0 0 1 4.75-7.91 47.19 47.19 0 0 0 3.19-3.62 6 6 0 0 0 .89-1.67c.34-1.15-.09-1.81-1.43-2a6.73 6.73 0 0 0-4.69.93 19.91 19.91 0 0 0-1.88 1.53 1.36 1.36 0 0 1-1.82.21 1.56 1.56 0 0 1-.79-1.64 12.46 12.46 0 0 1 1.22-4 70.76 70.76 0 0 1 5-9c.62-1 1.46-1 2.53 0a20.51 20.51 0 0 1 2 2.15 1 1 0 0 1-.12 1.51c-1 1.06-2 2-3 3.11-.83.89-1.66 1.84-2.49 2.72a5.68 5.68 0 0 0-.69.9c-.14.31-.63.71-.27 1s.7-.11 1-.33c1.81-1.15 4-1 6.17-.4a4.88 4.88 0 0 1 2.28 1.66 2.48 2.48 0 0 1 0 3.48 68.93 68.93 0 0 0-6.31 7.7 10 10 0 0 0-1.39 2.84 1 1 0 0 0 0 .87c.28.3.56.15.84.12a12.15 12.15 0 0 1 4.93.25c2.89.55 4.61 2.6 4.58 6zm26.62 2c-.07-.07-.07-.07-.15-.08-2.5-.77-2.64-.72-3.18 1.55-.14.51-.34 1.09-1.06 1.12a1.58 1.58 0 0 1-1.36-1c-2.32-3.62-4.07-7.3-3.7-11.33a3.52 3.52 0 0 1 .13-.79c.07-.32.14-.78.63-.78s.72.37.94.74a26.68 26.68 0 0 1 3.36 7.4c.23 1.1.23 1.1 1.29.92a17.55 17.55 0 0 1 3.42-.17 4.45 4.45 0 0 0 3.06-1c1.84-1.35 3.1-3.19 4.65-4.71.36-.36.21-.78-.23-1.18a4.09 4.09 0 0 0-3.8-1.22 28.38 28.38 0 0 0-4.19 1.22 4.44 4.44 0 0 1-3.71-.2 3.19 3.19 0 0 1-.79-.45c-.43-.33-.36-.79.13-.72 2.71.26 4.62-1.22 6.82-2 3.41-1.26 8.22.36 10.63 3.6 1.09 1.44 1.11 2.38 0 3.44-.49.54-1.13 1-1.69 1.58a8.15 8.15 0 0 0-2.4 2.95 3.23 3.23 0 0 1-3.69 1.88c-.93-.13-1.86-.13-2.79-.34s-.86.08-.92.75a31.15 31.15 0 0 0 .87 6.24 59.57 59.57 0 0 1 .95 12.72 3 3 0 0 1-2 3 10.59 10.59 0 0 0-1.27.62c-.85.34-1.21.15-1.22-.79 0-.61.05-1.2 0-1.81a8.58 8.58 0 0 0-1.49-4.93 4.33 4.33 0 0 0-1.37-1.48c-.21-.1-.5-.21-.5-.48s.28-.36.56-.38c.85-.21 1.71-.42 2.49-.64 1.49-.39 1.7-.69 1.25-2.3a19.39 19.39 0 0 1-.85-5.57 29.94 29.94 0 0 1 1.18-5.38zm-56.67-12.82c-.76.49-1.45 1-2.14 1.42-2.56 1.75-5.18 3.49-7.66 5.25a3.66 3.66 0 0 1-2.83.64c-1-.14-1.87-.34-2.85-.55a.83.83 0 0 1-.76-.44c-.14-.35.13-.51.34-.68a25.92 25.92 0 0 1 4-2.73c3.79-2.36 7.59-4.66 11.53-6.82a.91.91 0 0 0 .55-.71 3.21 3.21 0 0 1 .53-1.59c.55-.65 1.39-.53 1.75.39a1.29 1.29 0 0 0 1 .8 6.61 6.61 0 0 1 2 1c1.19.7 1.27 1 .51 1.87a10.86 10.86 0 0 1-1.52 1.64 4.73 4.73 0 0 0-1.62 4.28c.16 1.55 0 3.13.05 4.79 1.67-.55 2.92-1.63 4.66-2-.07.65-.48.86-.83 1.14-1 .84-2.07 1.62-3.11 2.4a1.41 1.41 0 0 0-.68 1.36l.12 11.13a4.91 4.91 0 0 1-.32 2.27 1 1 0 0 1-1.11.7c-.49-.07-.7-.5-.91-.87a15.72 15.72 0 0 1-1.59-4.48c-.07-.35-.08-.81.34-1s.7.24 1 .48.29.5.63.36.14-.38.14-.58q-.25-3.52-.51-7.25c-.34.21-.55.38-.76.48-2.34 1.72-4.62 3.44-7 5.15-.42.27-.83.74-1.46.38s-.56-1-.57-1.48a6.83 6.83 0 0 1 1.4-5.3c2.6-3.2 5-6.56 7.47-9.92.34-.35.48-.73.19-1.5zm.4 5a27.87 27.87 0 0 0-3.55 5.59c-.07.12-.21.3-.07.45s.35.05.56 0a21 21 0 0 0 3-1.23c.14-.11.28-.15.27-.42-.1-1.41-.19-2.89-.21-4.35zm64.73-11.5a29 29 0 0 0-11 1.4 25.59 25.59 0 0 0-6.58 3c-2.39 1.61-5.09 1.49-8 .6a17.59 17.59 0 0 1-3.56-1.38c-.28-.17-.71-.36-.71-.7s.35-.48.7-.57c9.32-2.22 18.52-4.81 28.36-5.7a15.39 15.39 0 0 1 8 .84 18.12 18.12 0 0 1 6.33 4.86 1.16 1.16 0 0 1-.19 1.93 3.41 3.41 0 0 1-4.31-.21 5 5 0 0 0-4.39-.89c-1.07.25-2.21.56-3.35.8-.29.1-.72.31-.93 0s.2-.58.41-.82a4.36 4.36 0 0 1 1.49-1.07c.64-.31.56-.93-.16-1.37a3.91 3.91 0 0 0-2.08-.69zm3.87 27.34a17.56 17.56 0 0 1 9.91 5.58 2.93 2.93 0 0 1-1.15 4.82 2.19 2.19 0 0 1-1.45-.21c-.58-.29-1.23-.52-1.81-.88a7.74 7.74 0 0 0-6.18-.78 4.21 4.21 0 0 1-2.79.06c-.21 0-.43-.07-.5-.28s.13-.38.35-.42c1.78-.61 3.34-1.86 5.64-1.52.29 0 .72.1.79-.22s-.16-.56-.45-.81a22.76 22.76 0 0 1-3.85-3.94 2.63 2.63 0 0 0-1.51-.76c-.29 0-.65-.16-.65-.43s.35-.29.57-.32a15.91 15.91 0 0 1 3.08.11zm-65.06-36c-.07.12-.07.25-.14.31-1.24 1.08-1.43 2.72-1.55 4.36a5 5 0 0 1-.26 1.36c-.2.76-.41.8-1.19.29a10.94 10.94 0 0 1-2-2.15c-1.2-1.56-1.89-1.59-2.57 0-.54 1.25-1.09 2.56-1.63 3.81a5.25 5.25 0 0 1-.82 1.41c-.61.77-1.1.7-1.94-.08a5.71 5.71 0 0 1-1.79-4.76 7.17 7.17 0 0 1 1.42-3.71c.14-.18.34-.48.62-.37s.21.49.21.69c0 .66-.26 1.42.44 1.92s1.32-.15 1.87-.47a8.85 8.85 0 0 1 3.61-.88 2 2 0 0 0 2-1.24 6.53 6.53 0 0 1 1.51-2c.14-.18.27-.43.55-.26s.15.42.15.62c0 .47-.2 1 .09 1.34.49.4.83-.35 1.46-.12zM201 111.44a2 2 0 0 1-1.43-.89 28.81 28.81 0 0 1-2.39-3.77 2.32 2.32 0 0 1 .32-3.1 4.34 4.34 0 0 0 1.52-3.12c0-.34.06-.8.48-.8s.57.42.79.72c1.52 2.43 3.09 3 5.41 1.8.43-.21.85-.48 1.27-.69.22-.1.5-.26.72 0a.47.47 0 0 1-.07.59c-.14.25-.35.49-.49.74a57.24 57.24 0 0 0-3.83 5.53c-.42.75-.69 1.51-1 2.26-.27.5-.62.85-1.26.69zm-34.95-50.55c-.28-.11-.63-.16-.91-.26a6.47 6.47 0 0 0-4.81.32c-2.76 1.4-5.6 2.66-8.43 4-.42.2-1 .59-1.32.21s.34-.75.62-1c2.67-2.61 5.35-5.15 8.11-7.74a5.09 5.09 0 0 1 .69-.64c1.1-1 1.73-.89 2.93.34s2.39 2.39 3.59 3.62c.29.31.71.63.58 1.08s-.63.11-1 .12zm49.75 2.52a4.67 4.67 0 0 1 3.2 1.44c1 1.08 2 2.1 3 3.18s1 2.22-.25 2.85a13.79 13.79 0 0 1-2.41 1A1.85 1.85 0 0 1 217 71c-.79-1-1.45-2.08-2.25-3.07a7.54 7.54 0 0 0-3.38-2.75.79.79 0 0 1-.57-.68.59.59 0 0 1 .49-.6 9.41 9.41 0 0 1 3.76-.55 3.29 3.29 0 0 0 .79 0zM169 124.72c.68-1.49 1.36-2.86 2-4.23.13-.24.35-.21.63-.17l6.74 1c.5.07.5.2.36.58-.62 1.25-1.16 2.43-1.78 3.67a.49.49 0 0 1-.56.32c-2.39-.41-4.84-.78-7.39-1.17zM165.55 66a13.15 13.15 0 0 1 4.92 2.48c1 .88 1 1.21 0 1.8-1.94 1.26-3.81 2.52-5.61 3.92-.21.17-.55.59-.84.35s0-.6.13-.91a28.42 28.42 0 0 1 2.67-4.6c.28-.36.2-.64-.15-1-.49-.53-1.06-1-1.55-1.54-.14-.16-.42-.33-.29-.51s.42-.07.7 0z"/></svg>