<svg id="f1463190-175d-4730-b81d-399374ed8451" data-name="Calque 1" xmlns="http://www.w3.org/2000/svg" xmlns:xlink="http://www.w3.org/1999/xlink" viewBox="0 0 88.59 237.77"><defs><style>.b7ab0a3e-3fd3-456a-92b0-41bb2d08713d,.e3f11caf-0497-446e-a516-31afb591317c{fill:#211c1d;}.fcee4e51-440d-40e7-b0cc-a138f89efe55{opacity:0.1;}.ac4882a0-7543-45af-9052-5276dcf1430d{fill:#808094;}.a109bc40-59d3-4249-a7e0-5c35dbcae9aa{fill:#6d6e6f;}.a908eac6-6d0a-4260-bbeb-fc3bf5f06042{fill:url(#a46f8b2c-4651-485a-9f5b-04cc4e1493b5);}.e3f11caf-0497-446e-a516-31afb591317c{opacity:0.3;}.a709166f-be4d-4807-bbe2-7c7da8943031,.ad044a72-4ef1-4af9-80c8-eaf280d16e5f,.e3f11caf-0497-446e-a516-31afb591317c{isolation:isolate;}.a709166f-be4d-4807-bbe2-7c7da8943031{opacity:0.15;fill:url(#ade4a889-c4d1-4e30-9f63-9c75c31a11dd);}.ad044a72-4ef1-4af9-80c8-eaf280d16e5f{opacity:0.4;fill:url(#a047413b-0c25-4678-b583-e86630eb8ccd);}.bfed9df1-3ba6-4d1d-95d0-2cce51da6a60{fill:#ff2100;}.bf8674c7-8000-4cba-bc1a-cf154554e6ca{fill:#959595;}.bf2d72b5-d4f3-43a7-b6df-784efaaf458d{fill:#fff;}</style><linearGradient id="a46f8b2c-4651-485a-9f5b-04cc4e1493b5" x1="362.1" y1="-353.94" x2="341.14" y2="-332.98" gradientTransform="matrix(0, -1, -1, 0, -299.63, 395.42)" gradientUnits="userSpaceOnUse"><stop offset="0" stop-color="#a4a5a9"/><stop offset="1" stop-color="#e6e6e7"/></linearGradient><linearGradient id="ade4a889-c4d1-4e30-9f63-9c75c31a11dd" x1="341.21" y1="-353.94" x2="362.09" y2="-333.06" gradientTransform="matrix(0, -1, -1, 0, -299.63, 395.42)" gradientUnits="userSpaceOnUse"><stop offset="0" stop-color="#211c1d" stop-opacity="0"/><stop offset="0.04" stop-color="#211c1d" stop-opacity="0.09"/><stop offset="0.5" stop-color="#211c1d"/><stop offset="0.95" stop-color="#211c1d" stop-opacity="0.09"/><stop offset="1" stop-color="#211c1d" stop-opacity="0"/></linearGradient><linearGradient id="a047413b-0c25-4678-b583-e86630eb8ccd" x1="-4466.76" y1="2694.35" x2="-4445.88" y2="2715.23" gradientTransform="matrix(0, 1, 1, 0, -2660.92, 4500.08)" gradientUnits="userSpaceOnUse"><stop offset="0" stop-color="#fff" stop-opacity="0"/><stop offset="0.5" stop-color="#fff"/><stop offset="1" stop-color="#fff" stop-opacity="0"/></linearGradient></defs><circle class="b7ab0a3e-3fd3-456a-92b0-41bb2d08713d" cx="43.8" cy="43.8" r="43.8"/><g class="fcee4e51-440d-40e7-b0cc-a138f89efe55"><path class="ac4882a0-7543-45af-9052-5276dcf1430d" d="M43.8,3.22l-8.89,8.59h4.34v9.83h9.1V11.81h4.34ZM15.1,15.1l-.21,12.37L18,24.4l7,7,6.43-6.44L24.39,18l3.08-3.07ZM3.22,43.8l8.59,8.89V48.35h9.83v-9.1H11.81V34.91ZM15.1,72.5l12.37.21-3.08-3.07,7-7-6.43-6.44L18,63.2l-3.07-3.07ZM43.8,84.38l8.89-8.59H48.35V66h-9.1v9.83H34.91ZM72.5,72.5l.21-12.37L69.64,63.2l-7-7-6.44,6.44,7,7-3.07,3.07ZM84.38,43.8l-8.59-8.89v4.34H66v9.1h9.83v4.34ZM72.5,15.1l-12.37-.21L63.2,18l-7,7,6.44,6.44,7-7,3.07,3.07Z" transform="translate(0 0)"/></g><path class="a109bc40-59d3-4249-a7e0-5c35dbcae9aa" d="M44.29,0a43.8,43.8,0,0,1,0,87.59h.5a43.8,43.8,0,0,0,0-87.6Z" transform="translate(0 0)"/><circle class="a908eac6-6d0a-4260-bbeb-fc3bf5f06042" cx="43.83" cy="43.8" r="14.82"/><circle class="e3f11caf-0497-446e-a516-31afb591317c" cx="43.83" cy="43.8" r="11.81"/><path class="a709166f-be4d-4807-bbe2-7c7da8943031" d="M29.11,43.77A14.76,14.76,0,1,0,43.87,29,14.76,14.76,0,0,0,29.11,43.77ZM57.83,44A14.15,14.15,0,1,1,43.69,29.8,14.15,14.15,0,0,1,57.83,44Z" transform="translate(0 0)"/><path class="ad044a72-4ef1-4af9-80c8-eaf280d16e5f" d="M58.63,43.77A14.76,14.76,0,1,0,43.87,58.53,14.76,14.76,0,0,0,58.63,43.77ZM29.9,43.58A14.15,14.15,0,1,1,44.05,57.73,14.15,14.15,0,0,1,29.9,43.58Z" transform="translate(0 0)"/><circle cx="32.85" cy="43.97" r="20.51"/><circle cx="27.19" cy="141.09" r="17.46"/><circle class="bfed9df1-3ba6-4d1d-95d0-2cce51da6a60" cx="27.71" cy="141.09" r="13.88"/><circle cx="61.36" cy="196.3" r="17.45"/><circle class="bf8674c7-8000-4cba-bc1a-cf154554e6ca" cx="61.88" cy="196.3" r="13.88"/><circle cx="27.36" cy="178.07" r="17.45"/><circle class="bf2d72b5-d4f3-43a7-b6df-784efaaf458d" cx="27.89" cy="178.07" r="13.88"/><circle cx="61.4" cy="121.99" r="17.46"/><circle class="bfed9df1-3ba6-4d1d-95d0-2cce51da6a60" cx="61.92" cy="121.99" r="13.88"/><circle cx="61.1" cy="159.32" r="17.46"/><circle class="bf2d72b5-d4f3-43a7-b6df-784efaaf458d" cx="61.63" cy="159.32" r="13.88"/><circle cx="27.62" cy="220.31" r="17.46"/><circle class="bf8674c7-8000-4cba-bc1a-cf154554e6ca" cx="28.15" cy="220.31" r="13.88"/></svg>