<svg id="b2b21d88-6f5a-4407-871c-96c2740fa597" data-name="Calque 1" xmlns="http://www.w3.org/2000/svg" viewBox="0 0 135.65 103.19"><defs><style>.b5c9e309-6c4b-40f7-8ea6-c00389fb9bfa{fill:#6b6b6b;}</style></defs><path class="b5c9e309-6c4b-40f7-8ea6-c00389fb9bfa" d="M296.6,413.4a14,14,0,0,1-2.1,6.8c-4.3,7.5-8.6,14.9-14.3,21.4a30.75,30.75,0,0,1-10.8,8.1c-.9.4-2.1,1.3-2.7.4-.5-.7.8-1.5,1.4-2.1,9.1-8.1,14.9-18.4,19.8-29.2a45.93,45.93,0,0,0,2.7-7c.8-3.2-.2-4.3-3.4-3.6a17,17,0,0,0-8.1,4.4,7.41,7.41,0,0,1-1.3,1.2c-1.1.9-1.8.6-2.1-.8a13.49,13.49,0,0,1,.4-6,34.27,34.27,0,0,1,6.9-12.9c1.6-2,3.2-4,4.6-6.1a11.26,11.26,0,0,0,1.3-2.7c.5-1.8-.1-2.7-2-2.7a10.39,10.39,0,0,0-6.7,2.4,34.39,34.39,0,0,0-2.7,2.7,2,2,0,0,1-3.7-1.6,22.1,22.1,0,0,1,1.8-6.2,132.53,132.53,0,0,1,7.3-14.6q1.35-2.4,3.6-.6a24.67,24.67,0,0,1,2.8,2.8,1.61,1.61,0,0,1-.2,2.3c-1.4,1.8-2.9,3.5-4.3,5.3-1.2,1.5-2.4,3.1-3.6,4.6a13,13,0,0,0-1,1.5c-.2.5-.9,1.2-.4,1.6s1-.3,1.4-.7c2.6-2.1,5.7-2.4,8.8-1.9a5.5,5.5,0,0,1,3.2,2,3.84,3.84,0,0,1,0,5.2,130.1,130.1,0,0,0-9.1,12.9,18.47,18.47,0,0,0-2.1,4.5c-.1.4-.3.9,0,1.3s.8.1,1.2,0a16.6,16.6,0,0,1,7-.7c4.1.2,6.5,2.9,6.4,8Zm37.5-2.8c-.1-.1-.1-.1-.2-.1-3.5-.6-3.7-.5-4.5,3-.2.8-.5,1.7-1.5,1.9s-1.5-.5-1.9-1.2c-3.2-4.9-5.6-10-5-16.1a5,5,0,0,1,.2-1.2c.1-.5.2-1.2.9-1.3s1,.4,1.3.9c1.9,3.2,3.8,6.5,4.6,10.3.3,1.6.3,1.6,1.8,1.1a25.57,25.57,0,0,1,4.8-1,7,7,0,0,0,4.3-2.1c2.6-2.4,4.4-5.4,6.6-8,.5-.6.3-1.2-.3-1.7a4.94,4.94,0,0,0-5.3-1,44.69,44.69,0,0,0-5.9,2.7,6,6,0,0,1-5.2.5,3.7,3.7,0,0,1-1.1-.5c-.6-.4-.5-1.1.2-1.1,3.8-.2,6.5-2.8,9.6-4.5a12.12,12.12,0,0,1,14.8,3.1c1.5,1.9,1.5,3.3,0,5.1-.7.9-1.6,1.8-2.4,2.7a15.38,15.38,0,0,0-3.4,4.9,5.41,5.41,0,0,1-5.2,3.6c-1.3,0-2.6.2-3.9.1s-1.2.3-1.3,1.3a46.2,46.2,0,0,0,1.1,9.1,90,90,0,0,1,1.1,18.7,5.44,5.44,0,0,1-2.9,4.9,18.76,18.76,0,0,0-1.8,1.2c-1.2.7-1.7.5-1.7-.9,0-.9.1-1.8.1-2.7a11.67,11.67,0,0,0-2-7,5,5,0,0,0-1.9-1.9c-.3-.1-.7-.2-.7-.6s.4-.6.8-.7c1.2-.5,2.4-1,3.5-1.5,2.1-.9,2.4-1.4,1.8-3.7a28.24,28.24,0,0,1-1.1-8.1,51.72,51.72,0,0,1,1.7-8.2Zm-80.2-6.9c-1.1.9-2.1,1.8-3.1,2.6-3.7,3.2-7.5,6.4-11.1,9.6a5.91,5.91,0,0,1-4.1,1.6c-1.4,0-2.7-.1-4.1-.2-.4,0-.9,0-1.1-.5s.2-.8.5-1.1a46.28,46.28,0,0,1,5.8-5c5.5-4.4,11-8.7,16.7-12.8a1.64,1.64,0,0,0,.8-1.2,5.66,5.66,0,0,1,.8-2.5c.8-1.1,2-1.1,2.5.2a1.5,1.5,0,0,0,1.4,1,7.71,7.71,0,0,1,2.9,1c1.7.8,1.8,1.2.7,2.7a20.93,20.93,0,0,1-2.2,2.8,8.46,8.46,0,0,0-2.4,6.8c.2,2.3,0,4.7,0,7.2,2.4-1.2,4.2-3.1,6.7-4.1a2.88,2.88,0,0,1-1.2,1.9c-1.5,1.5-3,2.9-4.5,4.3a2.57,2.57,0,0,0-1,2.2v16.7a8.28,8.28,0,0,1-.5,3.5,1.81,1.81,0,0,1-1.6,1.3c-.7,0-1-.6-1.3-1.1a21.14,21.14,0,0,1-2.2-6.4,1.28,1.28,0,0,1,.5-1.5c.6-.3,1,.2,1.4.5s.4.7.9.4c.3-.2.2-.6.2-.9q-.3-5.25-.6-10.8c-.5.4-.8.7-1.1.9-3.4,3.1-6.7,6.2-10.1,9.3-.6.5-1.2,1.3-2.1.9s-.8-1.3-.8-2.1a11.85,11.85,0,0,1,2.1-8.3c3.8-5.4,7.3-11,10.9-16.6a2,2,0,0,0,.3-2.3Zm.5,7.5a52.72,52.72,0,0,0-5.2,9.2c-.1.2-.3.5-.1.7s.5,0,.8-.1a37,37,0,0,0,4.3-2.5c.2-.2.4-.3.4-.7C254.5,415.6,254.4,413.4,254.4,411.2Zm91.9-31.1a48.46,48.46,0,0,0-24.7,10.2c-3.4,2.9-7.2,3.3-11.3,2.6a21.66,21.66,0,0,1-5-1.3c-.4-.2-1-.4-1-.9s.5-.8,1-1c13.2-5.3,26.2-11.1,40-14.5,3.7-.9,7.3-1.6,11.1-.4a20.16,20.16,0,0,1,8.7,5.9c.9,1,.7,2-.3,2.9-1.9,1.6-3.8,2-6,.6a6.3,6.3,0,0,0-6.1-.4c-1.5.6-3.1,1.3-4.7,1.9-.4.2-1,.6-1.3.2s.3-.9.6-1.3a7.56,7.56,0,0,1,2.1-1.9c.9-.6.8-1.5-.2-2a4.62,4.62,0,0,0-2.9-.6Zm4.9,39.8a19.77,19.77,0,0,1,13.7,6.1c2.1,2.1,1,6.2-1.7,7.4a2.76,2.76,0,0,1-2,0,25,25,0,0,1-2.5-.9,10,10,0,0,0-8.6.2,5.85,5.85,0,0,1-3.9.7c-.3,0-.6,0-.7-.3s.2-.6.5-.7c2.5-1.3,4.7-3.5,7.9-3.5.4,0,1,0,1.1-.5s-.2-.8-.6-1.1a25.17,25.17,0,0,1-5.3-5,3,3,0,0,0-2.1-.8c-.4,0-.9-.1-.9-.5s.5-.5.8-.6a21,21,0,0,1,4.3-.5Zm-91.4-39.8c-.1.2-.1.4-.2.5-1.8,1.9-2.1,4.4-2.3,6.9a7.79,7.79,0,0,1-.4,2.1c-.3,1.2-.6,1.3-1.7.7a12.85,12.85,0,0,1-2.9-2.8c-1.7-2.1-2.7-2-3.7.5-.8,2-1.6,4.1-2.4,6.1a10.08,10.08,0,0,1-1.2,2.3c-.9,1.3-1.6,1.3-2.8.3a7.64,7.64,0,0,1-2.5-6.8,12.73,12.73,0,0,1,2.1-5.9c.2-.3.5-.8.9-.7s.3.7.3,1c0,1-.4,2.2.6,2.8s1.9-.5,2.7-1.1a13.91,13.91,0,0,1,5.2-2.1,3.48,3.48,0,0,0,2.9-2.3,12.38,12.38,0,0,1,2.2-3.4c.2-.3.4-.7.8-.5s.2.6.2.9c0,.7-.3,1.5.1,2,.7.5,1.2-.7,2.1-.5Zm52.9,57.4a2.33,2.33,0,0,1-2-1,34.18,34.18,0,0,1-3.3-5.1,3.77,3.77,0,0,1,.5-4.7,7.9,7.9,0,0,0,2.2-5c0-.5.1-1.2.7-1.3s.8.5,1.1.9c2.1,3.3,4.3,3.8,7.6,1.5.6-.4,1.2-.9,1.8-1.3.3-.2.7-.5,1-.1a.76.76,0,0,1-.1.9c-.2.4-.5.8-.7,1.2a104.69,104.69,0,0,0-5.5,9.1c-.6,1.2-1,2.4-1.5,3.6-.4.8-.9,1.4-1.8,1.3Zm-48.8-68.2c-.4-.1-.9-.1-1.3-.2a9.46,9.46,0,0,0-6.9,1.5c-4,2.7-8.1,5.2-12.2,7.8-.6.4-1.4,1.1-1.9.6s.5-1.2.9-1.7c3.9-4.5,7.8-8.9,11.8-13.4a11,11,0,0,1,1-1.1c1.6-1.7,2.5-1.7,4.2-.1s3.4,3.1,5.1,4.7c.4.4,1,.8.8,1.5s-.9.3-1.5.4Zm70.5-6.6a5.44,5.44,0,0,1,4.4,1.5c1.4,1.4,2.8,2.7,4.2,4.1s1.3,3.1-.4,4.3a23.29,23.29,0,0,1-3.4,2c-1.5.7-2.3.5-3.3-.8s-2-2.8-3.1-4.1c-1.3-1.5-2.6-3-4.7-3.4a1,1,0,0,1-.8-.9,1.09,1.09,0,0,1,.7-1,14.17,14.17,0,0,1,5.3-1.6,4.48,4.48,0,0,0,1.1-.1ZM267.1,464.6c1-2.4,2-4.6,2.9-6.8.2-.4.5-.4.9-.4h9.6c.7,0,.7.2.5.8-.9,2-1.7,3.9-2.6,5.9-.2.4-.4.6-.8.6C274.2,464.6,270.7,464.6,267.1,464.6Zm-4-87.5a15.51,15.51,0,0,1,7,2.7c1.4,1.1,1.4,1.6,0,2.7-2.8,2.3-5.5,4.6-8.1,7.1-.3.3-.8,1-1.2.7s0-.9.2-1.4a53.35,53.35,0,0,1,3.9-7.5.9.9,0,0,0-.2-1.4c-.7-.7-1.5-1.3-2.2-2-.2-.2-.6-.4-.4-.7s.6-.2,1-.2Z" transform="translate(-230.35 -361.51)"/></svg>