<svg xmlns="http://www.w3.org/2000/svg" xmlns:xlink="http://www.w3.org/1999/xlink" viewBox="0 0 470.58 67.66"><defs><style>.bcaa2a76-4522-43fd-a9f8-b2f1e9d91647{stroke:#9def48;stroke-miterlimit:10;fill:url(#e0d65a72-9f5c-4bb1-b8ce-06c8d65be809);}.fc3b0ff9-dcd2-4c44-83a8-adb1eda5e758{fill:#9def48;}.a3c9b121-e297-44de-b410-5e244e995cf2{fill:none;stroke:#000;stroke-width:2px;}.a9c9b08e-c042-47b5-82f5-cabdb0e1ab94{fill:#ff2100;}.fe1a19a3-f9ad-4671-95da-6e0bc4673a4f{fill:#fcfcfc;}</style><linearGradient id="e0d65a72-9f5c-4bb1-b8ce-06c8d65be809" x1="0.5" y1="33.83" x2="470.08" y2="33.83" gradientUnits="userSpaceOnUse"><stop offset="0" stop-color="#032c02"/><stop offset="1" stop-color="#207a09"/></linearGradient></defs><g id="a7202316-72f1-422a-abc1-4fb4685c6530" data-name="texte"><polygon class="bcaa2a76-4522-43fd-a9f8-b2f1e9d91647" points="0.5 6.04 102.57 6.04 108.7 0.5 150.44 0.5 158.35 6.04 461.77 6.24 470.08 16.13 470.08 59.84 50.94 59.84 42.83 67.16 8.02 67.16 0.5 59.84 0.5 6.04"/><path class="fc3b0ff9-dcd2-4c44-83a8-adb1eda5e758" d="M87.15,34.49H60.61a17.49,17.49,0,0,0,2.21,6.17h2.7v4.07H60.63a17.66,17.66,0,0,1-4.14-10.24H52.65V30.44h3.84a17.6,17.6,0,0,1,4.14-10.22H84.78A18.19,18.19,0,0,1,89,32.48ZM60.61,30.44H84.8a17.67,17.67,0,0,0-2.19-6.15H62.82A17.33,17.33,0,0,0,60.61,30.44Z"/><path class="fc3b0ff9-dcd2-4c44-83a8-adb1eda5e758" d="M123.08,30.44l1.84,2a18.17,18.17,0,0,1-4.22,12.25H96.55a17.11,17.11,0,0,1-3.67-7.3h4.37a19.45,19.45,0,0,0,1.49,3.23h19.79a17.23,17.23,0,0,0,2.19-6.17H94.18l-1.85-2a18.25,18.25,0,0,1,4.22-12.26H120.7a17.13,17.13,0,0,1,3.68,7.3H120a17.47,17.47,0,0,0-1.47-3.23H98.74a17.3,17.3,0,0,0-2.2,6.15Z"/><path class="fc3b0ff9-dcd2-4c44-83a8-adb1eda5e758" d="M134.12,44.73h-4.07v-21l4.07-4.06Z"/><path class="fc3b0ff9-dcd2-4c44-83a8-adb1eda5e758" d="M144.17,34.49V44.73H140.1v-21l4.07-4.06V30.44H151l12.58-10.22h6.59L155.05,32.48l15.09,12.25h-6.59L150.93,34.49Z"/><path class="fc3b0ff9-dcd2-4c44-83a8-adb1eda5e758" d="M172.84,34.49l-1.84-2a18.2,18.2,0,0,1,4.22-12.26h4.89v4.07h-2.7a17.33,17.33,0,0,0-2.21,6.15h24.18a17.44,17.44,0,0,0-2.18-6.15h-2.72V20.22h4.89a18.25,18.25,0,0,1,4.22,12.26,18.17,18.17,0,0,1-4.22,12.25H175.22a17.13,17.13,0,0,1-3.68-7.3h4.38a18,18,0,0,0,1.49,3.23H197.2a17,17,0,0,0,2.18-6.17Z"/><path class="fc3b0ff9-dcd2-4c44-83a8-adb1eda5e758" d="M235.37,44.73H211.23A18.18,18.18,0,0,1,207,32.48a18.15,18.15,0,0,1,4.23-12.26h24.14a18.14,18.14,0,0,1,4.22,12.26A18.17,18.17,0,0,1,235.37,44.73Zm-2.17-4.07a16.46,16.46,0,0,0,2.33-8.18,16.41,16.41,0,0,0-2.33-8.19H213.41a16.33,16.33,0,0,0-2.34,8.19,16.37,16.37,0,0,0,2.34,8.18Z"/></g><g id="be7eed1b-8e83-4f5a-947a-726f0ba64042" data-name="psikyo"><path class="a3c9b121-e297-44de-b410-5e244e995cf2" d="M31.75,37.7h.07"/><path class="a9c9b08e-c042-47b5-82f5-cabdb0e1ab94" d="M15.9,42a6.65,6.65,0,0,1,.84-.9c.15,0,.2,0,.16.16a1.38,1.38,0,0,0,.17,1.16c.39.6.78,1.22,1.16,1.83.06.09,0,.23-.11.11-.73-.62-1.46-1.27-2.2-2A.26.26,0,0,1,15.9,42Z"/><path class="a9c9b08e-c042-47b5-82f5-cabdb0e1ab94" d="M16.28,32.56A1.62,1.62,0,0,1,16,31.43c.07-.43.43-.69.75-1s.79.25.9.57a.31.31,0,0,1-.12.38c-.39.28-.94.63-1.06,1.11a.11.11,0,0,1-.14.08A.05.05,0,0,1,16.28,32.56Z"/><path class="a9c9b08e-c042-47b5-82f5-cabdb0e1ab94" d="M21.94,38.83a.07.07,0,0,0,.06-.07h0c-.55-1.66.51-2.37,2-1.64l.86.51a7.23,7.23,0,0,1,3.27,3.1c.1.24,0,.32-.2.12a12.71,12.71,0,0,0-5-3.16,1,1,0,0,0-.39-.08.26.26,0,0,0-.26.34,2.49,2.49,0,0,0,.66,1.29,1,1,0,0,1,.19.26c.06.12,0,.18-.11.2a4.08,4.08,0,0,1-2.91-1.18c-.28-.23-1.57-1.25-1.36-.15a1.65,1.65,0,0,0,.59,1,.87.87,0,0,1,.22.24c.1.25-.15.36-.36.33a9.36,9.36,0,0,1-2.89-1.29.24.24,0,0,1-.09-.37,1.37,1.37,0,0,1,.45-.48.23.23,0,0,1,.26,0,11.4,11.4,0,0,0,1.75,1.31.08.08,0,0,0,.08,0,.09.09,0,0,0,0-.1c-.39-.46-.62-1.47.07-1.84.26-.14.47,0,.7.16C19.93,37.7,21.41,38.85,21.94,38.83Z"/><path class="a9c9b08e-c042-47b5-82f5-cabdb0e1ab94" d="M18.66,29.47a.11.11,0,0,0-.16,0l0,0c-.46,1,.78,3.21,1.43,4a2.17,2.17,0,0,1,.12,2,.61.61,0,0,1-.1.18.1.1,0,0,1-.14,0s0,0,0,0a50.39,50.39,0,0,1-1.83-4.74c-.38-1.17-.64-2.35.31-3.34.23-.24.39-.47.67-.12.43.54-.09.67-.09,1.15a1.65,1.65,0,0,0,.15.61c.08.19.27.62.2.66a.08.08,0,0,1-.09,0Z"/><path class="a9c9b08e-c042-47b5-82f5-cabdb0e1ab94" d="M18,41.49a1.93,1.93,0,0,1,.5-1.11.14.14,0,0,1,.19,0l1.11,1.25c.12.13.1.17-.07.1a9.64,9.64,0,0,1-1.11-.56.16.16,0,0,0-.2,0s-.33.41-.39.37S18,41.52,18,41.49Z"/><path class="a9c9b08e-c042-47b5-82f5-cabdb0e1ab94" d="M18.76,42.72c-.08,0-.78-.42-.69-.52l.08,0h.24s.06,0,.06-.06a0,0,0,0,0,0,0c-.12-.27,0-.18.12-.1a2.4,2.4,0,0,0,1.13.29c.17,0,.2.12.09.25s-.94.65-.35.87.83.33,1.15.48.25.27.07.45a1.37,1.37,0,0,1-1.65.07c-.5-.35.27-.1.38-.33a.08.08,0,0,0,0-.08,7.23,7.23,0,0,1-.55-1.21A.13.13,0,0,0,18.76,42.72Z"/><path class="a9c9b08e-c042-47b5-82f5-cabdb0e1ab94" d="M22.29,32.39c-.13-.48-.14-1.11-.51-1.46a8.36,8.36,0,0,0-1.14-.9.06.06,0,0,0-.08,0c-.88.58.59,1.63.14,2.46-.06.12-.11.11-.13,0a15.65,15.65,0,0,0-.74-1.58,1.63,1.63,0,0,1,.62-1.84.59.59,0,0,1,.81.2,3.75,3.75,0,0,0,1,.73c.42.21.36.87.35,1.27a.08.08,0,0,0,.07.08,4.74,4.74,0,0,0,1.13-.08A11.66,11.66,0,0,1,25.93,31c.77,0,1.22-.05,1.55.66.09.19,0,.27-.22.24a1.77,1.77,0,0,0-1.39.38s0,0-.06.07a.91.91,0,0,1-.11.16s-.05,0-.06,0h0a2.88,2.88,0,0,1-.28-.62.27.27,0,0,0-.37-.2,4.09,4.09,0,0,1-2.3,0,0,0,0,0,0-.06,0c-.24.6.23.49.54.65s.15.24-.08.41a3.13,3.13,0,0,1-2.43.65c-.2,0-.2-.13,0-.26a4.69,4.69,0,0,1,1.62-.71s0,0,0,0Z"/><path class="a9c9b08e-c042-47b5-82f5-cabdb0e1ab94" d="M25.83,42.57a7.3,7.3,0,0,0-1.52,0c-.08,0-.09,0,0,.09l1.45,1.56c.11.11.09.19-.07.24a1.59,1.59,0,0,1-1.43-.3L22,42.78a.76.76,0,0,0-.26-.11c-.13,0-.15,0-.05.12.52.6,1,1.2,1.56,1.79a1.21,1.21,0,0,1,.29,1.06c0,.15,0,.55-.3.21-.84-1-1.64-2-2.41-3.06a.2.2,0,0,0-.16-.09.7.7,0,0,1-.46-.23c-.09-.12-.05-.19.11-.23s.26-.59.36-.74a.12.12,0,0,1,.17,0h0c.33.23.84.74,1.24.72h1.13c.08,0,.1,0,.05-.09-.17-.23-.32-.46-.46-.69s.06-.1.1-.06c.25.25.48.48.69.71a.4.4,0,0,0,.32.13q1.32,0,2.49,0a.52.52,0,0,1,.42.17c.09.1.07.18,0,.25a2.26,2.26,0,0,1-.9.32c-.22,0-.4-.08-.14-.27A.06.06,0,0,0,25.83,42.57Zm-3,.17,1.19.63c.15.09.18.05.09-.11l-.34-.56a.16.16,0,0,0-.17-.08l-.74,0C22.69,42.65,22.68,42.68,22.79,42.74Z"/><path class="a9c9b08e-c042-47b5-82f5-cabdb0e1ab94" d="M25.15,28.83a.13.13,0,0,0-.15,0l0,0a4.82,4.82,0,0,1-.68.74c-.07.07-.23.66-.29.32a2.52,2.52,0,0,1,.42-2.06c.35-.49.66-.8,1.24-.36a.36.36,0,0,1,.15.36,3,3,0,0,1-.19.6c-.19.68.25,1.05.18,1.6,0,.11-.06.12-.12,0a4,4,0,0,1-.45-.77C25.17,29.12,25.2,28.94,25.15,28.83Z"/><path class="a9c9b08e-c042-47b5-82f5-cabdb0e1ab94" d="M24.14,35c-.27,0-.28-.11-.05-.23.71-.35.34-.86,0-1.3,0-.05-.06-.21.07-.13a13.44,13.44,0,0,0,1.9,1.06c.62.24,0,.62-.22.77s-.64.43-1,.14A1.34,1.34,0,0,0,24.14,35Z"/><path class="a9c9b08e-c042-47b5-82f5-cabdb0e1ab94" d="M34.53,65H29l0-9.66a.12.12,0,0,1,0-.08,2.78,2.78,0,0,1,4.15,0,.35.35,0,0,1,.08.22v6.87a.07.07,0,0,0,.07.06h1.14a.09.09,0,0,1,.09.09h0Zm-3.85-8.18v5.5a0,0,0,0,0,0,.05h.82a0,0,0,0,0,.05,0V56.85a.24.24,0,0,0-.07-.16.48.48,0,0,0-.81,0A.14.14,0,0,0,30.68,56.79Z"/><path class="fe1a19a3-f9ad-4671-95da-6e0bc4673a4f" d="M30.57,51.43h.27a.06.06,0,0,0,.06-.06V44.72a.24.24,0,0,1,.07-.18,2.1,2.1,0,0,1,3.52,0,.33.33,0,0,1,.07.21v9.13a.1.1,0,0,1-.09.1h0l-1.35,0a0,0,0,0,1,0,0h0v-7.7a.08.08,0,0,0,0-.07.47.47,0,0,0-.33,0,.07.07,0,0,0,0,.07v6.68a.11.11,0,0,1,0,.08,2.11,2.11,0,0,1-3.56.07.3.3,0,0,1-.07-.19V44.28a.08.08,0,0,1,.08-.08H30.4a.11.11,0,0,1,.1.1l0,7a.1.1,0,0,0,.09.1Z"/><path class="a9c9b08e-c042-47b5-82f5-cabdb0e1ab94" d="M29.31,40.73l1.35.59a.05.05,0,0,1,0,0v2.5a.06.06,0,0,1-.06.05h0l-1.55-.68a.12.12,0,0,1-.07-.11V40.87c0-.09,0-.33.12-.23Z"/><path class="fe1a19a3-f9ad-4671-95da-6e0bc4673a4f" d="M31.75,37.7H34.5a.05.05,0,0,1,.06.06h0v2.47a.09.09,0,0,1-.08.09H29.05a.07.07,0,0,1-.06-.07h0V37.77a.06.06,0,0,1,.06-.06Z"/><path class="fe1a19a3-f9ad-4671-95da-6e0bc4673a4f" d="M31.82,37.7h-.07c0-.11-2.43-4.19-2.71-4.69a.26.26,0,0,1-.05-.17V29.78c0-.17,0-.18.13,0L31.75,34a.06.06,0,0,0,.07,0l0,0,2.62-4.32c.07-.1.1-.09.1,0V32.8a.5.5,0,0,1-.07.27q-1.29,2.2-2.59,4.47C31.86,37.59,31.81,37.61,31.82,37.7Z"/><path class="fe1a19a3-f9ad-4671-95da-6e0bc4673a4f" d="M32.25,21.74v6.38c0,1.1,0,1.44-1.21,1.44h-2a.08.08,0,0,1-.07-.08h0V27.16a.06.06,0,0,1,.06-.06h1.58a.08.08,0,0,0,.08-.08h0V21.75a.06.06,0,0,0-.06-.06H29.08A.09.09,0,0,1,29,21.6h0V19.36a.08.08,0,0,1,.08-.08h4.15c.77,0,1.35.1,1.35,1,0,3,0,6.05,0,9.17a.13.13,0,0,1-.13.13H33.08a.06.06,0,0,1,0-.06c0-2.33,0-4.64,0-6.91a5.37,5.37,0,0,0,0-.7.19.19,0,0,0-.21-.19H32.3A.06.06,0,0,0,32.25,21.74Z"/><path class="fe1a19a3-f9ad-4671-95da-6e0bc4673a4f" d="M30.06,8.27h3.61c.7,0,.87.46.87,1.11q0,4.06,0,8.13c0,.55,0,1.26-.74,1.32-.33,0-1.25,0-2.75,0-1,0-2.06.2-2.07-1.13,0-2.76,0-5.52,0-8.28A1,1,0,0,1,30.06,8.27Zm.87,2.44a.21.21,0,0,0-.22.21v5.14a.22.22,0,0,0,.22.22h1.69a.22.22,0,0,0,.22-.22V10.92a.21.21,0,0,0-.22-.21Z"/><rect class="fe1a19a3-f9ad-4671-95da-6e0bc4673a4f" x="30.9" y="40.63" width="3.66" height="2.62" rx="0.05"/></g></svg>