<svg enable-background="new 0 0 741.471 448.416" viewBox="0 0 741.471 448.416" xmlns="http://www.w3.org/2000/svg" xmlns:xlink="http://www.w3.org/1999/xlink"><linearGradient id="a"><stop offset=".3872" stop-color="#fff"/><stop offset=".4523" stop-color="#f7f7f7"/><stop offset=".554" stop-color="#e1e1e1"/><stop offset=".6797" stop-color="#bcbcbc"/><stop offset=".8244" stop-color="#8a8a8a"/><stop offset=".9833" stop-color="#4a4a4a"/><stop offset="1" stop-color="#434343"/></linearGradient><linearGradient id="b" gradientUnits="userSpaceOnUse" x1="3.6223" x2="26.3922" xlink:href="#a" y1="102.0018" y2="102.0018"/><linearGradient id="c" gradientTransform="matrix(1 0 0 -1 0 450.0007)" gradientUnits="userSpaceOnUse" x1="18.5768" x2="716.3586" y1="220.3363" y2="220.3363"><stop offset="0" stop-color="#1c1c1b"/><stop offset=".1785" stop-color="#292928"/><stop offset=".1882" stop-color="#2d2d2c"/><stop offset=".2639" stop-color="#4b4a48"/><stop offset=".3483" stop-color="#63615f"/><stop offset=".4435" stop-color="#757470"/><stop offset=".5556" stop-color="#82807d"/><stop offset=".7009" stop-color="#8a8884"/><stop offset="1" stop-color="#8c8a86"/></linearGradient><linearGradient id="d"><stop offset="0" stop-color="#343638"/><stop offset=".0007231024" stop-color="#353739"/><stop offset=".0148" stop-color="#434648"/><stop offset=".0311" stop-color="#4b4f51"/><stop offset=".055" stop-color="#4e5254"/><stop offset=".1253" stop-color="#9ca1a4"/><stop offset=".1828" stop-color="#d8dee1"/><stop offset=".1978" stop-color="#c3c9cc"/><stop offset=".2241" stop-color="#a4aaad"/><stop offset=".2497" stop-color="#8e9496"/><stop offset=".274" stop-color="#818789"/><stop offset=".2957" stop-color="#7c8284"/><stop offset=".3217" stop-color="#818789"/><stop offset=".4474" stop-color="#979c9f"/><stop offset=".5864" stop-color="#a6abae"/><stop offset=".7478" stop-color="#afb4b7"/><stop offset=".9839" stop-color="#b2b7ba"/></linearGradient><linearGradient id="e" gradientTransform="matrix(1 0 0 -1 0 450.0007)" gradientUnits="userSpaceOnUse" x1="27.5821" x2="259.1234" xlink:href="#d" y1="223.8264" y2="223.8264"/><linearGradient id="f" gradientTransform="matrix(1 0 0 -1 0 450.0007)" gradientUnits="userSpaceOnUse" x1="314.8917" x2="347.5592" y1="428.2748" y2="428.2748"><stop offset="0" stop-color="#4e5052"/><stop offset=".2018" stop-color="#717476"/><stop offset=".4085" stop-color="#8d9194"/><stop offset=".6129" stop-color="#a2a6a9"/><stop offset=".8121" stop-color="#aeb3b6"/><stop offset="1" stop-color="#b2b7ba"/></linearGradient><linearGradient id="g" gradientTransform="matrix(1 0 0 -1 0 450.0007)" gradientUnits="userSpaceOnUse" x1="314.5579" x2="354.9137" y1="428.8373" y2="428.8373"><stop offset="0" stop-color="#343638"/><stop offset=".0103" stop-color="#3c3e40"/><stop offset=".0917" stop-color="#737679"/><stop offset=".167" stop-color="#9fa3a6"/><stop offset=".2338" stop-color="#bec3c6"/><stop offset=".2896" stop-color="#d1d7da"/><stop offset=".3276" stop-color="#d8dee1"/><stop offset=".3339" stop-color="#d6dcdf"/><stop offset=".4076" stop-color="#c6cbce"/><stop offset=".4988" stop-color="#bac0c3"/><stop offset=".6273" stop-color="#b4b9bc"/><stop offset=".9839" stop-color="#b2b7ba"/></linearGradient><linearGradient id="h" gradientTransform="matrix(1 0 0 -1 0 450.0007)" gradientUnits="userSpaceOnUse" x1="718.3429" x2="506.7123" xlink:href="#d" y1="23.1038" y2="23.1038"/><linearGradient id="i" gradientTransform="matrix(1 0 0 -1 0 450.0007)" gradientUnits="userSpaceOnUse" x1="483.6963" x2="715.0793" y1="359.4573" y2="359.4573"><stop offset=".0161" stop-color="#b2b7ba"/><stop offset=".2522" stop-color="#afb4b7"/><stop offset=".4136" stop-color="#a6abae"/><stop offset=".5526" stop-color="#979c9f"/><stop offset=".6783" stop-color="#818789"/><stop offset=".7043" stop-color="#7c8284"/><stop offset=".726" stop-color="#818789"/><stop offset=".7503" stop-color="#8e9496"/><stop offset=".7759" stop-color="#a4aaad"/><stop offset=".8022" stop-color="#c3c9cc"/><stop offset=".8172" stop-color="#d8dee1"/><stop offset=".8747" stop-color="#9ca1a4"/><stop offset=".945" stop-color="#4e5254"/><stop offset=".9689" stop-color="#4b4f51"/><stop offset=".9852" stop-color="#434648"/><stop offset=".9993" stop-color="#353739"/><stop offset="1" stop-color="#343638"/></linearGradient><linearGradient id="j" gradientTransform="matrix(1 0 0 -1 0 450.0007)" gradientUnits="userSpaceOnUse" x1="355.1222" x2="355.1222" y1="421.637" y2="378.893"><stop offset="0" stop-color="#787576"/><stop offset=".1202" stop-color="#838081"/><stop offset=".3322" stop-color="#a09e9f"/><stop offset=".4242" stop-color="#afadae"/><stop offset=".6731" stop-color="#cfcecf"/><stop offset="1" stop-color="#fff"/></linearGradient><linearGradient id="k" gradientTransform="matrix(1 0 0 -1 0 450.0007)" gradientUnits="userSpaceOnUse" x1="355.1208" x2="355.1208" y1="414.2603" y2="387.07"><stop offset="0" stop-color="#0a100e"/><stop offset=".4595" stop-color="#0b1030"/><stop offset=".9946" stop-color="#1d1e54"/></linearGradient><mask id="l" height="9.727" maskUnits="userSpaceOnUse" width="15.419" x="347.412" y="37.468"><path d="m362.831 42.331c0 2.686-3.451 4.864-7.709 4.864-4.257 0-7.71-2.179-7.71-4.864 0-2.687 3.453-4.863 7.71-4.863 4.258 0 7.709 2.177 7.709 4.863z" fill="url(#m)"/></mask><radialGradient id="m" cx="355.3422" cy="412.8368" gradientTransform="matrix(1 0 0 -1 0 450.0007)" gradientUnits="userSpaceOnUse" r="10.2581"><stop offset="0" stop-color="#cdcdcd"/><stop offset=".2767" stop-color="#8d8d8d"/><stop offset=".6257" stop-color="#414141"/><stop offset=".8757" stop-color="#121212"/><stop offset="1"/></radialGradient><linearGradient id="n" gradientTransform="matrix(1 0 0 -1 0 450.0007)" gradientUnits="userSpaceOnUse" x1="25.7522" x2="710.5212" y1="166.6188" y2="166.6188"><stop offset="0"/><stop offset=".0741" stop-color="#333537"/><stop offset=".165"/><stop offset=".2963" stop-color="#242424"/><stop offset=".6599" stop-color="#272729"/><stop offset=".7232" stop-color="#222224"/><stop offset=".7971" stop-color="#151516"/><stop offset=".8721"/><stop offset=".9529" stop-color="#333537"/><stop offset="1"/></linearGradient><linearGradient id="o"><stop offset="0" stop-color="#6b6864"/><stop offset=".4838" stop-color="#6a6762"/><stop offset="1" stop-color="#5c5954"/></linearGradient><linearGradient id="p" gradientTransform="matrix(1 0 0 -1 0 450.0007)" gradientUnits="userSpaceOnUse" x1="78.8354" x2="758.409" xlink:href="#o" y1="431.8741" y2="129.969"/><linearGradient id="q" gradientTransform="matrix(1 0 0 -1 0 450.0007)" gradientUnits="userSpaceOnUse" x1="-18.5615" x2="662.0186" xlink:href="#o" y1="205.3061" y2="-97.0462"/><linearGradient id="r" gradientTransform="matrix(1 0 0 -1 0 450.0007)" gradientUnits="userSpaceOnUse" x1="78.6482" x2="146.8302" y1="444.3203" y2="444.3203"><stop offset="0" stop-color="#262623"/><stop offset=".0632" stop-color="#353532"/><stop offset=".1857" stop-color="#5e5c59"/><stop offset=".3538" stop-color="#9f9b97"/><stop offset=".5219" stop-color="#e6e0dc"/><stop offset=".7576" stop-color="#b4b0ac"/><stop offset="1" stop-color="#242321"/></linearGradient><linearGradient id="s"><stop offset="0" stop-color="#232526"/><stop offset=".0303" stop-color="#26292a"/><stop offset=".0577" stop-color="#313335"/><stop offset=".084" stop-color="#434647"/><stop offset=".1096" stop-color="#5c5f61"/><stop offset=".1348" stop-color="#7c8082"/><stop offset=".1595" stop-color="#a4a9ab"/><stop offset=".1835" stop-color="#d1d8db"/><stop offset=".1886" stop-color="#dce3e6"/><stop offset=".4175" stop-color="#3b4041"/><stop offset=".5185" stop-color="#4a504e"/><stop offset=".67" stop-color="#caced4"/><stop offset=".7374" stop-color="#acafb4"/><stop offset="1" stop-color="#212324"/></linearGradient><linearGradient id="t" gradientTransform="matrix(1 0 0 -1 0 450.0007)" gradientUnits="userSpaceOnUse" x1="60.5862" x2="164.2746" xlink:href="#s" y1="435.1837" y2="435.1837"/><linearGradient id="u" gradientTransform="matrix(1 0 0 -1 0 450.0007)" gradientUnits="userSpaceOnUse" x1="58.2002" x2="165.5832" xlink:href="#s" y1="420.0911" y2="420.0911"/><linearGradient id="v" gradientTransform="matrix(1 0 0 -1 0 450.0007)" gradientUnits="userSpaceOnUse" x1="245.8922" x2="249.8922" y1="429.6823" y2="429.6823"><stop offset="0" stop-color="#e4dfdb"/><stop offset="1" stop-color="#b8b3af"/></linearGradient><linearGradient id="w"><stop offset="0" stop-color="#c7c3bf"/><stop offset=".2804" stop-color="#aeaaa7"/><stop offset=".7512" stop-color="#888583"/><stop offset="1" stop-color="#7a7775"/></linearGradient><linearGradient id="x" gradientTransform="matrix(1 0 0 -1 0 450.0007)" gradientUnits="userSpaceOnUse" x1="238.8922" x2="241.8922" xlink:href="#w" y1="429.6823" y2="429.6823"/><linearGradient id="y" gradientTransform="matrix(1 0 0 -1 0 450.0007)" gradientUnits="userSpaceOnUse" x1="253.8922" x2="256.8922" xlink:href="#w" y1="429.6823" y2="429.6823"/><linearGradient id="z" gradientTransform="matrix(1 0 0 -1 0 450.0007)" gradientUnits="userSpaceOnUse" x1="260.8922" x2="263.8922" xlink:href="#w" y1="429.6823" y2="429.6823"/><linearGradient id="A"><stop offset="0" stop-color="#9b9a96"/><stop offset=".2514" stop-color="#bbb7b4"/><stop offset=".5662" stop-color="#ddd5d4"/><stop offset=".8271" stop-color="#f1e8e7"/><stop offset="1" stop-color="#f9efee"/></linearGradient><linearGradient id="B" gradientTransform="matrix(1 0 0 -1 0 450.0007)" gradientUnits="userSpaceOnUse" x1="293.9542" x2="297.0269" xlink:href="#A" y1="429.0763" y2="429.0763"/><linearGradient id="C" gradientTransform="matrix(1 0 0 -1 0 450.0007)" gradientUnits="userSpaceOnUse" x1="297.9334" x2="299.9819" xlink:href="#A" y1="429.1278" y2="429.1278"/><linearGradient id="D" gradientTransform="matrix(1 0 0 -1 0 450.0007)" gradientUnits="userSpaceOnUse" x1="299.9542" x2="303.0269" xlink:href="#A" y1="429.0763" y2="429.0763"/><linearGradient id="E" gradientTransform="matrix(1 0 0 -1 0 450.0007)" gradientUnits="userSpaceOnUse" x1="303.9334" x2="305.9819" xlink:href="#A" y1="429.3818" y2="429.3818"/><linearGradient id="F" gradientTransform="matrix(-1 0 0 -1 -4648.2163 450.0007)" gradientUnits="userSpaceOnUse" x1="-4848.0669" x2="-4846.0181" xlink:href="#A" y1="429.1278" y2="429.1278"/><linearGradient id="G" gradientTransform="matrix(-1 0 0 -1 -4648.2163 450.0007)" gradientUnits="userSpaceOnUse" x1="-4845.0669" x2="-4843.0181" xlink:href="#A" y1="429.1278" y2="429.1278"/><linearGradient id="H" gradientTransform="matrix(-1 0 0 -1 -4648.2163 450.0007)" gradientUnits="userSpaceOnUse" x1="-4842.0669" x2="-4840.0181" xlink:href="#A" y1="429.1278" y2="429.1278"/><linearGradient id="I" gradientTransform="matrix(-1 0 0 -1 -4648.2163 450.0007)" gradientUnits="userSpaceOnUse" x1="-4839.0669" x2="-4837.0181" xlink:href="#A" y1="429.2133" y2="429.2133"/><linearGradient id="J" gradientTransform="matrix(1 -.0074 -.0068 -.9238 4.8023 375.7857)" gradientUnits="userSpaceOnUse" x1="263.0818" x2="265.2303" xlink:href="#A" y1="382.6866" y2="382.6866"/><linearGradient id="K"><stop offset="0" stop-color="#969390"/><stop offset=".0797" stop-color="#908d8a"/><stop offset=".6873" stop-color="#676562"/><stop offset="1" stop-color="#575553"/></linearGradient><linearGradient id="L" gradientTransform="matrix(1 0 0 -1 0 450.0007)" gradientUnits="userSpaceOnUse" x1="267.8922" x2="270.8922" xlink:href="#K" y1="429.6823" y2="429.6823"/><linearGradient id="M"><stop offset="0" stop-color="#7a7a76"/><stop offset=".1552" stop-color="#8b8986"/><stop offset=".5106" stop-color="#ada8a6"/><stop offset=".8049" stop-color="#c1baba"/><stop offset="1" stop-color="#c9c1c1"/></linearGradient><linearGradient id="N" gradientTransform="matrix(1 -.0074 -.0068 -.9238 4.8023 375.7857)" gradientUnits="userSpaceOnUse" x1="269.7221" x2="271.8707" xlink:href="#M" y1="382.6335" y2="382.6335"/><linearGradient id="O"><stop offset="0" stop-color="#969390"/><stop offset=".1556" stop-color="#868481"/><stop offset=".4852" stop-color="#6b6866"/><stop offset=".7753" stop-color="#5a5856"/><stop offset=".9933" stop-color="#545250"/></linearGradient><linearGradient id="P" gradientTransform="matrix(1 0 0 -1 0 450.0007)" gradientUnits="userSpaceOnUse" x1="274.8922" x2="277.8922" xlink:href="#O" y1="429.6823" y2="429.6823"/><linearGradient id="Q"><stop offset="0" stop-color="#595956"/><stop offset=".0189" stop-color="#5c5c59"/><stop offset=".3355" stop-color="#8b8786"/><stop offset=".6158" stop-color="#ada7a6"/><stop offset=".8469" stop-color="#c1baba"/><stop offset="1" stop-color="#c9c1c1"/></linearGradient><linearGradient id="R" gradientTransform="matrix(1 -.0074 -.0068 -.9238 4.8023 375.7857)" gradientUnits="userSpaceOnUse" x1="276.7119" x2="278.86" xlink:href="#Q" y1="382.5775" y2="382.5775"/><linearGradient id="S"><stop offset="0" stop-color="#7d7a78"/><stop offset=".6371" stop-color="#555351"/><stop offset=".9731" stop-color="#454342"/></linearGradient><linearGradient id="T" gradientTransform="matrix(1 0 0 -1 0 450.0007)" gradientUnits="userSpaceOnUse" x1="281.8922" x2="284.8922" xlink:href="#S" y1="429.6823" y2="429.6823"/><linearGradient id="U"><stop offset="0" stop-color="#3b3b39"/><stop offset=".0482" stop-color="#434341"/><stop offset=".3553" stop-color="#726f6d"/><stop offset=".6273" stop-color="#948e8e"/><stop offset=".8515" stop-color="#a8a2a2"/><stop offset="1" stop-color="#b0a9a9"/></linearGradient><linearGradient id="V" gradientTransform="matrix(1 -.0074 -.0068 -.9238 4.8024 375.7855)" gradientUnits="userSpaceOnUse" x1="283.3251" x2="285.1626" xlink:href="#U" y1="382.5181" y2="382.5181"/><linearGradient id="W" gradientTransform="matrix(1 0 0 -1 0 450.0007)" gradientUnits="userSpaceOnUse" x1="287.8917" x2="290.8917" xlink:href="#S" y1="429.6023" y2="429.6023"/><linearGradient id="X" gradientTransform="matrix(.8302 -.0061 -.0072 -.966 61.7925 399.0817)" gradientUnits="userSpaceOnUse" x1="280.9001" x2="283.0492" xlink:href="#U" y1="389.7998" y2="389.7998"/><linearGradient id="Y" gradientTransform="matrix(-1 0 0 -1 -4546.0796 450.0007)" gradientUnits="userSpaceOnUse" x1="-4780.9717" x2="-4777.9717" xlink:href="#w" y1="429.6823" y2="429.6823"/><linearGradient id="Z" gradientTransform="matrix(-1 -.0074 .0068 -.9238 -4550.8813 375.7857)" gradientUnits="userSpaceOnUse" x1="-4779.0166" x2="-4776.8677" xlink:href="#A" y1="423.0758" y2="423.0758"/><linearGradient id="aa" gradientTransform="matrix(-1 0 0 -1 -4546.0796 450.0007)" gradientUnits="userSpaceOnUse" x1="-4773.9717" x2="-4770.9717" xlink:href="#K" y1="429.6823" y2="429.6823"/><linearGradient id="ab" gradientTransform="matrix(-1 -.0074 .0068 -.9238 -4550.8813 375.7855)" gradientUnits="userSpaceOnUse" x1="-4772.3755" x2="-4770.2275" xlink:href="#M" y1="422.9656" y2="422.9656"/><linearGradient id="ac" gradientTransform="matrix(-1 0 0 -1 -4546.0796 450.0007)" gradientUnits="userSpaceOnUse" x1="-4766.9717" x2="-4763.9717" xlink:href="#O" y1="429.6823" y2="429.6823"/><linearGradient id="ad" gradientTransform="matrix(-1 -.0074 .0068 -.9238 -4550.8813 375.7855)" gradientUnits="userSpaceOnUse" x1="-4765.3853" x2="-4763.2378" xlink:href="#Q" y1="422.8982" y2="422.8982"/><linearGradient id="ae" gradientTransform="matrix(-1 0 0 -1 -4546.0796 450.0007)" gradientUnits="userSpaceOnUse" x1="-4759.9717" x2="-4756.9717" xlink:href="#S" y1="429.6823" y2="429.6823"/><linearGradient id="af" gradientTransform="matrix(-1 -.0074 .0068 -.9238 -4550.8813 375.7855)" gradientUnits="userSpaceOnUse" x1="-4757.7456" x2="-4755.5981" xlink:href="#U" y1="422.8603" y2="422.8603"/><linearGradient id="ag" gradientTransform="matrix(-1 0 0 -1 -4546.0796 450.0007)" gradientUnits="userSpaceOnUse" x1="-4752.9717" x2="-4749.9717" xlink:href="#S" y1="429.6823" y2="429.6823"/><linearGradient id="ah" gradientTransform="matrix(-1 -.0084 .0064 -.9875 -4551.2031 409.2144)" gradientUnits="userSpaceOnUse" x1="-4751.5273" x2="-4749.3789" xlink:href="#U" y1="433.8605" y2="433.8605"/><linearGradient id="ai" gradientTransform="matrix(1 0 0 -1 0 450.0007)" gradientUnits="userSpaceOnUse" x1="28.0872" x2="35.4069" y1="206.3873" y2="206.3873"><stop offset=".0034" stop-color="#464a4d"/><stop offset="1" stop-color="#878e91"/></linearGradient><linearGradient id="aj" gradientTransform="matrix(1 0 0 -1 0 450.0007)" gradientUnits="userSpaceOnUse" x1="199.8922" x2="301.2292" y1="357.9768" y2="357.9768"><stop offset="0" stop-color="#868d93"/><stop offset="1" stop-color="#fff"/></linearGradient><linearGradient id="ak" gradientTransform="matrix(1 0 0 -1 0 450.0007)" gradientUnits="userSpaceOnUse" x1="202.8912" x2="296.3922" y1="357.3098" y2="357.3098"><stop offset="0" stop-color="#1d2528"/><stop offset="1" stop-color="#626c73"/></linearGradient><linearGradient id="al"><stop offset="0" stop-color="#fff"/><stop offset=".234" stop-color="#cccecf"/><stop offset=".4809" stop-color="#9da0a3"/><stop offset=".6999" stop-color="#7b7f84"/><stop offset=".8804" stop-color="#676b70"/><stop offset="1" stop-color="#5f6469"/></linearGradient><linearGradient id="am" gradientTransform="matrix(1 0 0 -1 0 450.0007)" gradientUnits="userSpaceOnUse" x1="289.8922" x2="293.8922" xlink:href="#al" y1="356.9773" y2="356.9773"/><linearGradient id="an" gradientTransform="matrix(1 0 0 -1 0 450.0007)" gradientUnits="userSpaceOnUse" x1="283.8922" x2="287.8922" xlink:href="#al" y1="356.9773" y2="356.9773"/><linearGradient id="ao" gradientTransform="matrix(1 0 0 -1 0 450.0007)" gradientUnits="userSpaceOnUse" x1="277.8922" x2="281.8922" xlink:href="#al" y1="356.9773" y2="356.9773"/><linearGradient id="ap" gradientTransform="matrix(1 0 0 -1 0 450.0007)" gradientUnits="userSpaceOnUse" x1="271.8922" x2="275.8922" xlink:href="#al" y1="356.9773" y2="356.9773"/><linearGradient id="aq" gradientTransform="matrix(1 0 0 -1 0 450.0007)" gradientUnits="userSpaceOnUse" x1="265.8922" x2="269.8922" xlink:href="#al" y1="356.9773" y2="356.9773"/><linearGradient id="ar" gradientTransform="matrix(1 0 0 -1 0 450.0007)" gradientUnits="userSpaceOnUse" x1="259.8922" x2="263.8922" xlink:href="#al" y1="356.9773" y2="356.9773"/><linearGradient id="as" gradientTransform="matrix(1 0 0 -1 0 450.0007)" gradientUnits="userSpaceOnUse" x1="253.8922" x2="257.8922" xlink:href="#al" y1="356.9773" y2="356.9773"/><linearGradient id="at" gradientTransform="matrix(1 0 0 -1 0 450.0007)" gradientUnits="userSpaceOnUse" x1="247.8922" x2="251.8922" xlink:href="#al" y1="356.9773" y2="356.9773"/><linearGradient id="au" gradientTransform="matrix(1 0 0 -1 0 450.0007)" gradientUnits="userSpaceOnUse" x1="241.8922" x2="245.8922" xlink:href="#al" y1="356.9773" y2="356.9773"/><linearGradient id="av" gradientTransform="matrix(1 0 0 -1 0 450.0007)" gradientUnits="userSpaceOnUse" x1="235.8922" x2="239.8922" xlink:href="#al" y1="356.9773" y2="356.9773"/><linearGradient id="aw" gradientTransform="matrix(1 0 0 -1 0 450.0007)" gradientUnits="userSpaceOnUse" x1="229.8922" x2="233.8922" xlink:href="#al" y1="356.9773" y2="356.9773"/><linearGradient id="ax" gradientTransform="matrix(1 0 0 -1 0 450.0007)" gradientUnits="userSpaceOnUse" x1="223.8922" x2="227.8922" xlink:href="#al" y1="356.9773" y2="356.9773"/><linearGradient id="ay" gradientTransform="matrix(1 0 0 -1 0 450.0007)" gradientUnits="userSpaceOnUse" x1="217.8922" x2="221.8922" xlink:href="#al" y1="356.9773" y2="356.9773"/><linearGradient id="az" gradientTransform="matrix(1 0 0 -1 0 450.0007)" gradientUnits="userSpaceOnUse" x1="211.8922" x2="215.8922" xlink:href="#al" y1="356.9773" y2="356.9773"/><linearGradient id="aA" gradientTransform="matrix(1 0 0 -1 0 450.0007)" gradientUnits="userSpaceOnUse" x1="205.8922" x2="209.8922" xlink:href="#al" y1="356.9773" y2="356.9773"/><mask id="aB" height="13" maskUnits="userSpaceOnUse" width="88" x="205.892" y="77.023"><path d="m205.892 77.023h88v13h-88z" fill="url(#aC)"/></mask><linearGradient id="aC" gradientTransform="matrix(1 0 0 -1 0 450.0007)" gradientUnits="userSpaceOnUse" x1="249.8922" x2="249.8922" y1="374.9759" y2="359.9358"><stop offset="0" stop-color="#fff"/><stop offset="1"/></linearGradient><linearGradient id="aD" gradientTransform="matrix(1 0 0 -1 0 450.0007)" gradientUnits="userSpaceOnUse" x1="483.8922" x2="659.8923" y1="375.9773" y2="375.9773"><stop offset="0" stop-color="#b2b7ba"/><stop offset=".0808" stop-color="#c1c7c9"/><stop offset=".1014" stop-color="#b2b8ba"/><stop offset=".1549" stop-color="#8e9496"/><stop offset=".3215" stop-color="#92989a"/><stop offset=".9192" stop-color="#9ea4a6"/><stop offset=".9514" stop-color="#878d8e"/><stop offset="1" stop-color="#686d6e"/></linearGradient><linearGradient id="aE" gradientTransform="matrix(1 0 0 -1 0 450.0007)" gradientUnits="userSpaceOnUse" x1="523.8923" x2="639.8923" y1="377.2648" y2="377.2648"><stop offset=".0673" stop-color="#0d1215"/><stop offset=".0731" stop-color="#13191c"/><stop offset=".0842" stop-color="#1c2326"/><stop offset=".6229" stop-color="#32383d"/><stop offset=".9125" stop-color="#282e32"/><stop offset="1" stop-color="#0d1215"/></linearGradient><mask id="aF" height="42" maskUnits="userSpaceOnUse" width="42" x="556.892" y="50.523"><circle cx="577.892" cy="71.523" fill="url(#aH)" r="21"/></mask><linearGradient id="aG"><stop offset="0"/><stop offset="1" stop-color="#fff"/></linearGradient><radialGradient id="aH" cx="583.2248" cy="377.6434" gradientTransform="matrix(1 0 0 -1 0 450.0007)" gradientUnits="userSpaceOnUse" r="37.668" xlink:href="#aG"/><linearGradient id="aI"><stop offset="0" stop-color="#fff"/><stop offset=".0243" stop-color="#f2f2f2"/><stop offset=".1377" stop-color="#bababa"/><stop offset=".2547" stop-color="#888"/><stop offset=".3727" stop-color="#5e5e5e"/><stop offset=".4919" stop-color="#3c3c3c"/><stop offset=".6129" stop-color="#222"/><stop offset=".7362" stop-color="#0f0f0f"/><stop offset=".8632" stop-color="#040404"/><stop offset="1"/></linearGradient><linearGradient id="aJ" gradientTransform="matrix(1 0 0 -1 0 450.0007)" gradientUnits="userSpaceOnUse" x1="556.8923" x2="598.8923" xlink:href="#aI" y1="378.4773" y2="378.4773"/><mask id="aK" height="25.316" maskUnits="userSpaceOnUse" width="34.668" x="558.558" y="58.865"><ellipse cx="575.892" cy="71.523" fill="url(#aL)" rx="17.334" ry="12.658"/></mask><radialGradient id="aL" cx="580.2939" cy="266.5404" gradientTransform="matrix(1 0 0 -.7303 0 266.6806)" gradientUnits="userSpaceOnUse" r="31.091" xlink:href="#aG"/><linearGradient id="aM" gradientTransform="matrix(1 0 0 -1 0 450.0007)" gradientUnits="userSpaceOnUse" x1="558.5583" x2="593.2263" xlink:href="#aI" y1="378.4773" y2="378.4773"/><radialGradient id="aN" cx="251.5628" cy="166.4678" gradientTransform="matrix(1 0 0 -1 0 450.0007)" gradientUnits="userSpaceOnUse" r="45.167"><stop offset=".4732" stop-color="#121714"/><stop offset=".5404" stop-color="#3a3e3c"/><stop offset=".6658" stop-color="#7f8280"/><stop offset=".779" stop-color="#b6b8b7"/><stop offset=".876" stop-color="#dedfde"/><stop offset=".9528" stop-color="#f6f6f6"/><stop offset="1" stop-color="#fff"/></radialGradient><linearGradient id="aO" gradientTransform="matrix(1 0 0 -1 0 450.0007)" gradientUnits="userSpaceOnUse" x1="224.2312" x2="278.8932" y1="170.4043" y2="170.4043"><stop offset="0" stop-color="#3b3936"/><stop offset=".3199" stop-color="#fff"/><stop offset=".6431" stop-color="#666563"/><stop offset=".8013" stop-color="#fff"/><stop offset="1" stop-color="#3b3a38"/></linearGradient><linearGradient id="aP" gradientTransform="matrix(1 0 0 -1 0 450.0007)" gradientUnits="userSpaceOnUse" x1="251.5617" x2="251.5617" y1="192.7163" y2="147.6941"><stop offset="0" stop-color="#fff"/><stop offset=".6397" stop-color="#a4a29e"/><stop offset="1" stop-color="#474542"/></linearGradient><linearGradient id="aQ" gradientTransform="matrix(1 0 0 -1 0 450.0007)" gradientUnits="userSpaceOnUse" x1="234.2621" x2="268.982" y1="170.4048" y2="170.4048"><stop offset="0" stop-color="#706d68"/><stop offset=".4916" stop-color="#fff"/><stop offset="1" stop-color="#5e5d59"/></linearGradient><linearGradient id="aR" gradientTransform="matrix(1 0 0 -1 0 450.0007)" gradientUnits="userSpaceOnUse" x1="251.5627" x2="251.5627" y1="184.3633" y2="158.2242"><stop offset="0" stop-color="#fff"/><stop offset="1" stop-color="#5e5d59"/></linearGradient><linearGradient id="aS" gradientTransform="matrix(1 0 0 -1 0 450.0007)" gradientUnits="userSpaceOnUse" x1="238.6772" x2="264.4472" y1="170.4043" y2="170.4043"><stop offset="0" stop-color="#bab7b2"/><stop offset="1" stop-color="#999691"/></linearGradient><linearGradient id="aT" gradientTransform="matrix(1 0 0 -1 0 450.0007)" gradientUnits="userSpaceOnUse" x1="418.2962" x2="418.2962" y1="331.5303" y2="15.3423"><stop offset="0" stop-color="#e0e4e7"/><stop offset="1" stop-color="#a9aeb2"/></linearGradient><linearGradient id="aU" gradientTransform="matrix(1 0 0 -1 0 450.0007)" gradientUnits="userSpaceOnUse" x1="478.8426" x2="356.7523" y1="307.5741" y2="37.0846"><stop offset="0" stop-color="#686968"/><stop offset=".1637" stop-color="#4d4d4c"/><stop offset=".3732" stop-color="#313130"/><stop offset=".5833" stop-color="#1d1d1c"/><stop offset=".7926" stop-color="#111110"/><stop offset="1" stop-color="#0d0d0c"/></linearGradient><linearGradient id="aV" gradientTransform="matrix(1 0 0 -1 0 450.0007)" gradientUnits="userSpaceOnUse" x1="418.2977" x2="418.2977" y1="317.4803" y2="31.959"><stop offset="0" stop-color="#b7babd"/><stop offset=".9973" stop-color="#8f9396"/></linearGradient><linearGradient id="aW" gradientTransform="matrix(1 0 0 -1 0 450.0007)" gradientUnits="userSpaceOnUse" x1="487.3131" x2="347.3675" y1="288.4633" y2="55.2209"><stop offset="0" stop-color="#636365"/><stop offset="1" stop-color="#323234"/></linearGradient><radialGradient id="aX" cx="416.2287" cy="166.8867" gradientTransform="matrix(1 0 0 -1 0 450.0007)" gradientUnits="userSpaceOnUse" r="140.3079"><stop offset=".0081" stop-color="#2c2c2c"/><stop offset=".7895" stop-color="#727677"/><stop offset=".8809" stop-color="#707475"/><stop offset=".9138" stop-color="#6a6d6e"/><stop offset=".9373" stop-color="#5e6263"/><stop offset=".9563" stop-color="#4e5152"/><stop offset=".9726" stop-color="#393b3c"/><stop offset=".9867" stop-color="#202121"/><stop offset=".9994" stop-color="#020202"/><stop offset="1"/></radialGradient><linearGradient id="aY" gradientTransform="matrix(1 0 0 -1 0 450.0007)" gradientUnits="userSpaceOnUse" x1="360.8874" x2="473.6648" y1="40.2857" y2="301.8527"><stop offset="0" stop-color="#545454"/><stop offset=".1156" stop-color="#5b5b5b"/><stop offset=".2829" stop-color="#6e6e6e"/><stop offset=".4816" stop-color="#8e8e8e"/><stop offset=".7046" stop-color="#bababa"/><stop offset=".9448" stop-color="#f1f1f1"/><stop offset="1" stop-color="#fff"/></linearGradient><linearGradient id="aZ" gradientTransform="matrix(1 0 0 -1 0 450.0007)" gradientUnits="userSpaceOnUse" x1="448.9669" x2="387.4393" y1="282.9695" y2="63.2273"><stop offset="0" stop-color="#0a0a0a"/><stop offset=".1513" stop-color="#101010"/><stop offset=".3625" stop-color="#222322"/><stop offset=".6088" stop-color="#404040"/><stop offset=".8798" stop-color="#696969"/><stop offset="1" stop-color="#7d7e7d"/></linearGradient><linearGradient id="a0" gradientTransform="matrix(1 0 0 -1 0 450.0007)" gradientUnits="userSpaceOnUse" x1="454.4731" x2="382.1194" y1="275.2458" y2="69.5549"><stop offset="0" stop-color="#272725"/><stop offset=".2353" stop-color="#2d2d2b"/><stop offset=".5635" stop-color="#403f3d"/><stop offset=".9449" stop-color="#5d5c5a"/><stop offset="1" stop-color="#62615f"/></linearGradient><linearGradient id="a1" gradientTransform="matrix(1 0 0 -1 0 450.0007)" gradientUnits="userSpaceOnUse" x1="453.1225" x2="384.3019" y1="274.2566" y2="72.9696"><stop offset="0" stop-color="#252829"/><stop offset=".2849" stop-color="#2b2e2f"/><stop offset=".6816" stop-color="#3a403f"/><stop offset="1" stop-color="#4b5451"/></linearGradient><linearGradient id="a2" gradientTransform="matrix(1 0 0 -1 0 450.0007)" gradientUnits="userSpaceOnUse" x1="452.8828" x2="384.5358" y1="274.3732" y2="74.4716"><stop offset="0" stop-color="#252829"/><stop offset=".2065" stop-color="#2b2e2f"/><stop offset=".4947" stop-color="#3a4140"/><stop offset=".8294" stop-color="#545e5b"/><stop offset="1" stop-color="#64706c"/></linearGradient><linearGradient id="a3" gradientTransform="matrix(1 0 0 -1 0 450.0007)" gradientUnits="userSpaceOnUse" x1="452.2754" x2="385.1282" y1="271.7802" y2="75.3875"><stop offset="0" stop-color="#252829"/><stop offset="1" stop-color="#282b2b"/></linearGradient><linearGradient id="a4" gradientTransform="matrix(1 0 0 -1 0 450.0007)" gradientUnits="userSpaceOnUse" x1="451.7098" x2="385.6803" y1="270.1266" y2="77.0026"><stop offset="0" stop-color="#252829"/><stop offset=".3084" stop-color="#2a2e2f"/><stop offset=".7376" stop-color="#3a403f"/><stop offset="1" stop-color="#464f4c"/></linearGradient><linearGradient id="a5" gradientTransform="matrix(1 0 0 -1 0 450.0007)" gradientUnits="userSpaceOnUse" x1="451.3047" x2="386.075" y1="268.9423" y2="78.1581"><stop offset="0" stop-color="#252829"/><stop offset=".5754" stop-color="#2b2e2f"/><stop offset="1" stop-color="#333738"/></linearGradient><linearGradient id="a6" gradientTransform="matrix(1 0 0 -1 0 450.0007)" gradientUnits="userSpaceOnUse" x1="451.3722" x2="386.0077" y1="268.9094" y2="77.7305"><stop offset="0" stop-color="#252829"/><stop offset=".2406" stop-color="#2b2e2f"/><stop offset=".5764" stop-color="#3a413f"/><stop offset=".9664" stop-color="#545e5a"/><stop offset="1" stop-color="#56615d"/></linearGradient><radialGradient id="a7" cx="317.407" cy="101.2558" gradientTransform="matrix(1 0 0 -1 0 450.0007)" gradientUnits="userSpaceOnUse" r="5.8178"><stop offset=".004" stop-color="#0d0d0d"/><stop offset=".1923" stop-color="#101010"/><stop offset="1" stop-color="#1a1a1a"/></radialGradient><linearGradient id="a8" gradientTransform="matrix(1 0 0 -1 0 450.0007)" gradientUnits="userSpaceOnUse" x1="385.2559" x2="451.7379" y1="113.605" y2="237.0713"><stop offset="0" stop-color="#8b8c87"/><stop offset="1" stop-color="#383838"/></linearGradient><radialGradient id="a9" cx="418.7599" cy="176.8756" gradientTransform="matrix(1 0 0 -1 0 450.0007)" gradientUnits="userSpaceOnUse" r="54.1866"><stop offset=".0024"/><stop offset=".8947"/><stop offset=".9433" stop-color="#2d2d59"/><stop offset=".9538" stop-color="#2a2a53"/><stop offset=".9671" stop-color="#224"/><stop offset=".982" stop-color="#151529"/><stop offset=".998" stop-color="#030305"/><stop offset="1"/></radialGradient><linearGradient id="ba" gradientTransform="matrix(1 0 0 -1 0 450.0007)" gradientUnits="userSpaceOnUse" x1="434.3133" x2="404.943" y1="231.847" y2="128.7602"><stop offset="0" stop-color="#4a4a4a"/><stop offset="1" stop-color="#fff"/></linearGradient><radialGradient id="bb" cx="418.5072" cy="176.3693" gradientTransform="matrix(1 0 0 -1 0 450.0007)" gradientUnits="userSpaceOnUse" r="27.4651"><stop offset=".587" stop-color="#656c7d"/><stop offset=".7342" stop-color="#636a7b"/><stop offset=".8047" stop-color="#5d6473"/><stop offset=".8589" stop-color="#535866"/><stop offset=".9047" stop-color="#444854"/><stop offset=".9453" stop-color="#30343c"/><stop offset=".9816" stop-color="#191a1f"/><stop offset="1" stop-color="#0a0b0d"/></radialGradient><radialGradient id="bc" cx="421.208" cy="179.7455" gradientTransform="matrix(1 0 0 -1 0 450.0007)" gradientUnits="userSpaceOnUse" r="27.3936"><stop offset="0" stop-color="#484d59"/><stop offset=".2978" stop-color="#363a43"/><stop offset=".7388" stop-color="#212429"/><stop offset="1" stop-color="#191b1f"/></radialGradient><radialGradient id="bd" cx="419.5502" cy="177.672" gradientTransform="matrix(1 0 0 -1 0 450.0007)" gradientUnits="userSpaceOnUse" r="10.5751"><stop offset=".004" stop-color="#343740"/><stop offset=".0361" stop-color="#33363e"/><stop offset=".6416" stop-color="#1d1f24"/><stop offset="1" stop-color="#15161a"/></radialGradient><mask id="be" height="62.608" maskUnits="userSpaceOnUse" width="118.367" x="341.117" y="191.743"><path d="m420.21 191.743c-17.88 0-34.507 5.352-48.376 14.535.408 8.542 1.851 25.195 6.846 47.9 0 0 24.791 3.659 62.101-22.719l-20.149-39.711c-.143 0-.281-.005-.422-.005z" fill="url(#bg)"/><path d="m459.484 203.832c-8.79-5.224-18.609-8.964-29.143-10.857l6.06 18.768c4.557-.33 18.308-5.921 23.083-7.911z" fill="url(#bh)"/><path d="m341.117 250.765c5.619-.044 21.479-.435 29.455-3.375l-6.877-33.777c-10.428 10.225-18.262 22.983-22.578 37.152z" fill="url(#bi)"/></mask><linearGradient id="bf"><stop offset="0" stop-color="#fff"/><stop offset=".0833" stop-color="#e0e0e0"/><stop offset=".2778" stop-color="#9d9d9d"/><stop offset=".4625" stop-color="#656565"/><stop offset=".6321" stop-color="#393939"/><stop offset=".7835" stop-color="#1a1a1a"/><stop offset=".9113" stop-color="#070707"/><stop offset="1"/></linearGradient><linearGradient id="bg" gradientTransform="matrix(1 0 0 -1 0 450.0007)" gradientUnits="userSpaceOnUse" x1="392.2725" x2="413.1846" xlink:href="#bf" y1="261.4701" y2="196.4417"/><linearGradient id="bh" gradientTransform="matrix(1 0 0 -1 0 450.0007)" gradientUnits="userSpaceOnUse" x1="437.1017" x2="458.0134" xlink:href="#bf" y1="275.886" y2="210.859"/><linearGradient id="bi" gradientTransform="matrix(1 0 0 -1 0 450.0007)" gradientUnits="userSpaceOnUse" x1="343.4186" x2="364.3302" xlink:href="#bf" y1="245.7592" y2="180.7327"/><linearGradient id="bj" gradientTransform="matrix(-1 0 0 1 1446.3922 0)" gradientUnits="userSpaceOnUse" x1="708.5431" x2="731.313" xlink:href="#a" y1="102.0018" y2="102.0018"/><path d="m.523 95.526s-1.401 4.777.382 10.086c1.204 3.582 2.956 5.659 5.815 7.981 0 0 6.755 5.378 14.17 7.904.59.201 3.529 1.195 5.502 1.419v-40.92c-3.764.357-22.523 2.671-25.869 13.53zm14.812 10.829c-3.421.271-6.415-2.283-6.686-5.704s2.282-6.415 5.703-6.687c3.422-.272 6.416 2.283 6.687 5.704s-2.282 6.415-5.704 6.687z"/><path d="m4.104 96.008s-1.265 4.047.304 8.533c1.059 3.025 2.612 4.777 5.15 6.732 0 0 5.257 3.833 12.588 6.638.383.146 3.626 1.146 4.246 1.054v-33.933c-3.691.243-19.646 1.82-22.288 10.976zm11.231 10.347c-3.421.271-6.415-2.283-6.686-5.704s2.282-6.415 5.703-6.687c3.422-.272 6.416 2.283 6.687 5.704s-2.282 6.415-5.704 6.687z" fill="url(#b)"/><path d="m716.119 420.903s-.006-.551-.826-1.313l-5.543-5.066-.556-264.122 5.877-5.813-.338-127.184s.188-2.25-2.419-3.799c-.641-.38-1.159-.49-2.458-.661 0 0-21.065-1.663-36.733-1.837 0 0-155.36.028-217.396-.002 0 0-107.647-.436-133.76 0-.613-.025-1.22.028-1.832.098-1.074.121-2.258.479-3.153 1.152-.951.717-1.531 1.809-1.787 3.023-.352 1.666-.232 3.363-.233 5.047-.002 1.857-.007 3.717-.011 5.576-.003 2.024 0 4.05-.003 6.075-.003 1.67.002 3.34-.002 5.01-.003.781.016 1.565-.001 2.347 0 .006-.002.068-.002.068-.001 0-270.045 1.137-270.045 1.137s-12.961 0-19.145 1.281v406.49c7.72.082 558.749-.715 558.749-.715 35.134-.555 97.986-1.483 116.882-1.359 0 0 5.809-.06 8.953-.352 0 0 3.729-.186 4.837-1.759 0 0 .376-.421.704-1.069.254-.505.481-1.238.481-1.834z" fill="url(#c)"/><path d="m716.119 419.156s-.006-.552-.826-1.314l-5.543-5.065-.556-262.375 5.881-6.564-.342-128.179s.188-2.251-2.419-3.799c-.641-.38-1.159-.491-2.458-.661 0 0-21.065-1.663-36.733-1.838 0 0-155.36.029-217.396-.001 0 0-107.647-.437-133.76-.001-.613-.024-1.22.029-1.832.098-1.074.121-2.258.479-3.153 1.153-.951.716-1.531 1.808-1.787 3.022-.352 1.666-.232 3.363-.233 5.047-.002 1.858-.007 3.717-.011 5.576-.003 2.025 0 4.051-.003 6.076-.003 1.67.002 3.34-.002 5.01-.003.781.016 1.565-.001 2.346 0 .006-.002.069-.002.069-.001 0-270.045 1.136-270.045 1.136s-12.961 0-19.145 1.281v406.488c7.72.082 68.392-.715 68.392-.715h490.357c35.134-.554 97.986-1.482 116.882-1.359 0 0 5.809-.061 8.953-.352 0 0 3.729-.187 4.837-1.759 0 0 .376-.422.704-1.07.254-.504.481-1.237.481-1.834z" fill="#dbd8d2"/><path d="m716.119 417.408s-.006-.551-.826-1.313l-5.808-4.25-.269-261.082 5.862-6.883-.346-129.969s.188-2.252-2.419-3.799c-.641-.381-1.159-.492-2.458-.662 0 0-21.065-1.662-36.733-1.838 0 0-155.36.029-217.396 0 0 0-107.647-.438-133.76-.001-.613-.024-1.22.028-1.832.097-1.074.121-2.258.481-3.153 1.154-.951.715-1.531 1.808-1.787 3.023-.352 1.665-.232 3.362-.233 5.047-.002 1.858-.007 3.717-.011 5.575-.003 2.025 0 4.051-.003 6.076-.003 1.67.002 3.34-.002 5.01-.003.781.016 1.566-.001 2.347 0 .006-.002.069-.002.069-.001 0-270.045 1.135-270.045 1.135s-12.961.001-19.145 1.281v406.489c7.72.082 68.392-.715 68.392-.715h490.357c35.134-.555 97.986-1.483 116.882-1.359 0 0 5.809-.061 8.953-.353 0 0 3.729-.186 4.837-1.759 0 0 .376-.421.704-1.069.254-.505.481-1.237.481-1.834z" fill="#b2b7ba"/><path d="m355.122 7.427c-14.302.018-26.433.073-33.156.185-.613-.024-1.22.028-1.832.097-1.074.121-2.258.481-3.153 1.154-.951.715-1.531 1.808-1.787 3.023-.352 1.665-.232 3.362-.233 5.047-.002 1.858-.007 3.717-.011 5.575-.003 2.025 0 4.051-.003 6.076-.003 1.67.002 3.34-.002 5.01-.003.781.016 1.566-.001 2.347 0 .006-.002.069-.002.069-.001 0-270.045 1.135-270.045 1.135s-12.961.001-19.145 1.281v406.489c7.72.082 68.392-.715 68.392-.715h260.978z" fill="url(#e)"/><path d="m355.122 36.023v-28.596c-14.302.018-26.433.073-33.156.185-.613-.024-1.22.028-1.832.097-1.074.121-2.258.481-3.153 1.154-.951.715-1.531 1.808-1.787 3.023-.352 1.665-.232 3.362-.233 5.047-.002 1.858-.007 3.717-.011 5.575-.003 2.025 0 4.051-.003 6.076-.003 1.67.002 3.34-.002 5.01-.003.781.016 1.566-.001 2.347 0 .006-.002.069-.002.069s-1.138.005-3.251.014h43.431z" fill="url(#f)"/><path d="m314.948 28.584c-.003 1.67.002 3.34-.002 5.01-.002.435 0 .869 0 1.305h40.176v-27.472c-14.302.018-26.433.073-33.156.185-.613-.024-1.22.028-1.832.097-1.074.121-2.258.481-3.153 1.154-.951.715-1.531 1.808-1.787 3.023-.352 1.665-.232 3.362-.233 5.047-.002 1.858-.007 3.717-.011 5.575-.002 2.025.001 4.051-.002 6.076z" fill="url(#g)"/><path d="m716.119 417.408s-.006-.551-.826-1.313l-6.276-4.593.729-1.909h-357.674v34.607h232.429c35.134-.555 97.986-1.483 116.882-1.359 0 0 5.809-.061 8.953-.353 0 0 3.729-.186 4.837-1.759 0 0 .376-.421.704-1.069.254-.505.481-1.237.481-1.834z" fill="url(#h)"/><path d="m715.079 143.881-.346-129.969s.188-2.252-2.419-3.799c-.641-.381-1.159-.492-2.458-.662 0 0-21.065-1.662-36.733-1.838 0 0-118.044.023-189.427.008v165.852h225.567l-.047-22.709z" fill="url(#i)"/><path d="m376.269 50.024c0 11.678-9.468 21.146-21.147 21.146s-21.147-9.469-21.147-21.146c0-11.68 9.467-21.148 21.147-21.148s21.147 9.469 21.147 21.148z" fill="url(#j)"/><path d="m374.374 50.024c0 10.633-8.62 19.252-19.252 19.252-10.633 0-19.253-8.619-19.253-19.252 0-10.634 8.621-19.253 19.253-19.253s19.252 8.62 19.252 19.253z" fill="#0a1010"/><path d="m370.27 50.241c0 8.487-6.782 15.367-15.149 15.367s-15.15-6.88-15.15-15.367c0-8.486 6.784-15.368 15.15-15.368s15.149 6.882 15.149 15.368z" fill="#f2f2f2"/><path d="m370.27 50.024c0 8.365-6.782 15.149-15.149 15.149s-15.15-6.784-15.15-15.149c0-8.368 6.784-15.151 15.15-15.151s15.149 6.783 15.149 15.151z" fill="url(#k)"/><path d="m362.831 42.331c0 2.686-3.451 4.864-7.709 4.864-4.257 0-7.71-2.179-7.71-4.864 0-2.687 3.453-4.863 7.71-4.863 4.258 0 7.709 2.177 7.709 4.863z" fill="#fff" mask="url(#l)"/><path d="m357.647 40.002c0 .784-1.131 1.421-2.525 1.421-1.396 0-2.525-.637-2.525-1.421s1.13-1.42 2.525-1.42c1.394 0 2.525.636 2.525 1.42z" fill="#fff"/><path d="m25.752 149.09h684.769v268.583h-684.769z" fill="url(#n)"/><path d="m714.154 143.648c-18.512-2.22-60.633-.743-60.633-.743l-131.814.413h-296.097s-136.758-.243-200.218-.356v6.529l204.416-.173h417.682s52.24-.418 60.659 1.445v.004c1.231-1.045 4.766-3.03 6.188-4.758.827-1.003 1.192-2.196-.183-2.361z" fill="#f2f2f2"/><path d="m715.77 416.699c-.481-.499-5.633-3.806-5.633-3.806l-684.413 2.744v5.075l690.394-2.869c.001.001.135-.646-.348-1.144z" fill="#f2f2f2"/><path d="m713.621 143.454c-18.574-1.986-60.203-1.967-60.203-1.967l-132.046.831h-296.611s-135.337-.483-199.369-.713v6.512l203.574.201h418.408s52.357-1.252 60.776.613v.004c.175 2.071 10.436-4.951 5.471-5.481z"/><path d="m712.787 414.024c-1.108-.741-3.765-2.881-3.765-2.881l-683.297 2.74v5.156l690.411-1.378c0 .001.547-1.033-3.349-3.637z"/><path d="m25.704 419.659 689.582-2.959-6.253-4.854-683.329 2.743z"/><path d="m713.618 144.24c-18.512-2.221-60.097-2.359-60.097-2.359l-131.814.438h-296.097s-136.758-.258-200.218-.377v6.528l204.416-.151h417.682s52.24-.467 60.659 1.398v.004c0-.666 9.578-4.989 5.469-5.481z"/><path d="m713.751 145.178c-18.916-2.309-60.579-2.297-60.579-2.297l-131.847.438h-295.876s-138.378-.245-200.057-.368v6.514l204.252-.146h417.371s52.716-.477 61.135 1.383v.004c-.001-.664 8.37-5.19 5.601-5.528z" fill="url(#p)"/><path d="m25.725 420.157 690.062-2.951-6.27-4.846-683.792 2.737z" fill="url(#q)"/><path d="m140.365 1.281c-23.77-2.883-55.775 0-55.775 0l-5.942 5.137 68.182.456z" fill="#0a0702"/><path d="m80.883 4.486-2.235 1.932 68.182.456-2.762-2.388z" fill="url(#r)"/><path d="m62.583 22.734v12.975h99.286l.497-12.975z" fill="#0a0702"/><path d="m158.714 5.318s-91.689 0-91.744 0c-1.717 0-4.097-.066-5.46.609-.521.258-.924.826-.924 1.353v17.037h103.131l.557-16.693c0 .001.141-2.306-5.56-2.306z" fill="url(#t)"/><path d="m58.2 26.271v8.047h107.383v-8.396c-44.147-1.121-107.383.349-107.383.349z" fill="url(#u)"/><path d="m200.892 32.318h93v4h-93z"/><path d="m305.692 9.97c-1.215-.988-2.812-1.189-4.312-1.351-.457-.049-.878-.1-1.335-.124 0 0-29.87-1.556-52.32-1.302-22.451-.254-52.33 1.302-52.33 1.302-.457.024-.911.075-1.367.124-1.501.161-3.373.362-4.588 1.351-.73.596-1.549 1.761-1.549 2.72v17.824c0 2.447 3.902 3.805 3.902 3.805h54.232 3.438 54.231s3.197-1.357 3.197-3.805c0 0 0-17.785 0-17.824.001-.96-.468-2.125-1.199-2.72z" fill="#191813"/><path d="m245.892 8.318h4v24h-4z" fill="url(#v)"/><path d="m242.892 9.318h1.937v20h-1.937z" fill="#f7f2ee"/><path d="m235.892 9.318h2v20h-2z" fill="#d2cfca"/><path d="m257.892 9.318h2v20h-2z" fill="#d2cfca"/><path d="m250.892 9.318h2v20h-2z" fill="#f7f2ee"/><path d="m238.892 8.318h3v24h-3z" fill="url(#x)"/><path d="m253.892 8.318h3v24h-3z" fill="url(#y)"/><path d="m260.892 8.318h3v24h-3z" fill="url(#z)"/><path d="m294.642 9.237v23.374c.673-.383 1.644-1.268 2.25-3.311v-16.446s-.751-2.524-2.25-3.617z" fill="url(#B)"/><path d="m297.892 8.845v24.055s2-.229 2-3.6v-16.446s0-3.372-2-4.009z" fill="url(#C)"/><path d="m300.642 9.237v23.374c.673-.383 1.644-1.268 2.25-3.311v-16.446s-.751-2.524-2.25-3.617z" fill="url(#D)"/><path d="m303.892 9.325v22.587s2-.214 2-3.379v-15.443s0-3.166-2-3.765z" fill="url(#E)"/><path d="m199.892 8.845v24.055s-1-.229-2-3.6v-16.446s1-3.372 2-4.009z" fill="url(#F)"/><path d="m196.892 8.845v24.055s-2-.229-2-3.6v-16.446s0-3.372 2-4.009z" fill="url(#G)"/><path d="m193.892 8.845v24.055s-1-.229-2-3.6v-16.446s1-3.372 2-4.009z" fill="url(#H)"/><path d="m190.892 9.662v22.25s-2-.211-2-3.329v-15.212s0-3.119 2-3.709z" fill="url(#I)"/><path d="m265.156 9.202.164 22.222s1.746-.224 2.072-3.34l-.111-15.193s-.285-3.114-2.125-3.689z" fill="url(#J)"/><path d="m267.892 8.318h3v24h-3z" fill="url(#L)"/><path d="m271.797 9.202.164 22.222s1.746-.224 2.072-3.34l-.111-15.193s-.285-3.114-2.125-3.689z" fill="url(#N)"/><path d="m274.892 8.318h3v24h-3z" fill="url(#P)"/><path d="m278.787 9.202.164 22.222s1.746-.224 2.072-3.34l-.112-15.193s-.284-3.114-2.124-3.689z" fill="url(#R)"/><path d="m281.892 8.318h3v24h-3z" fill="url(#T)"/><path d="m287.228 12.891s-.239-3.08-1.774-3.678v3.561l.117 18.65s1.477-.224 1.753-3.34z" fill="url(#V)"/><path d="m287.954 8.398h2.625v24h-2.625z" fill="url(#W)"/><path d="m292.067 9.202.172 23.239s1.449-.232 1.715-3.49l-.118-15.889c.001.001-.241-3.255-1.769-3.86z" fill="url(#X)"/><path d="m231.892 8.318h3v24h-3z" fill="url(#Y)"/><path d="m231.137 9.202-.164 22.222s-1.746-.224-2.072-3.34l.111-15.193s.285-3.114 2.125-3.689z" fill="url(#Z)"/><path d="m224.892 8.318h3v24h-3z" fill="url(#aa)"/><path d="m224.142 9.355c-1.522.836-1.771 3.535-1.771 3.535l-.111 15.193c.26 2.486 1.422 3.129 1.882 3.289z" fill="url(#ab)"/><path d="m217.892 8.318h3v24h-3z" fill="url(#ac)"/><path d="m217.079 9.402c-1.455.881-1.697 3.488-1.697 3.488l-.112 15.193c.247 2.363 1.31 3.062 1.81 3.262z" fill="url(#ad)"/><path d="m210.892 8.318h3v24h-3z" fill="url(#ae)"/><path d="m209.642 9.295c-1.636.749-1.9 3.596-1.9 3.596l-.112 15.193c.291 2.783 1.711 3.258 2.013 3.328v-22.117z" fill="url(#af)"/><path d="m203.892 8.318h3v24h-3z" fill="url(#ag)"/><path d="m203.221 8.813-.153 23.754s-1.746-.24-2.074-3.572l.105-16.24c0-.001.282-3.329 2.122-3.942z" fill="url(#ah)"/><path d="m38.306 245.539c0 5.807-.418 10.514-.933 10.514-.516 0-.933-4.707-.933-10.514s.417-10.515.933-10.515c.515 0 .933 4.708.933 10.515z"/><path d="m29.002 237.341v16.395c.213-1.927.35-4.881.35-8.197 0-3.317-.137-6.271-.35-8.198z" fill="#fff"/><path d="m32.662 207.88c-1.463 0-2.811 1.318-3.66 3.585v64.167c.849 2.31 2.197 3.838 3.66 3.838 2.441 0 4.575-3.653 4.575-9.31v-52.971c0-5.067-2.134-9.309-4.575-9.309z"/><path d="m32.204 208.484c-1.235 0-2.422 1.217-3.202 3.32v63.373c.78 2.153 1.967 3.565 3.202 3.565 2.127 0 4.117-3.586 4.117-9.137v-51.984c0-4.975-1.99-9.137-4.117-9.137z" fill="#fff"/><path d="m31.747 208.484c-1.012 0-2.038 1.125-2.745 3.089v63.841c.707 2.022 1.733 3.328 2.745 3.328 1.809 0 3.66-3.586 3.66-9.137v-51.984c0-4.975-1.852-9.137-3.66-9.137z" fill="url(#ai)"/><path d="m302.225 107.375c0 2.827-1.163 5.648-3.208 5.648h-95.42c-2.047 0-3.706-2.821-3.706-5.648v-29.435c0-2.827 1.659-5.119 3.706-5.119h95.42c2.045 0 3.208 2.292 3.208 5.119z"/><path d="m301.229 105.685c0 2.672-1.15 5.339-3.177 5.339h-94.491c-2.026 0-3.669-2.667-3.669-5.339v-27.823c0-2.673 1.643-4.839 3.669-4.839h94.491c2.027 0 3.177 2.166 3.177 4.839z" fill="url(#aj)"/><path d="m294.025 75.023h-87.727c-1.882 0-3.407 1.938-3.407 4.329v24.894c0 2.391 1.525 4.777 3.407 4.777h87.727c1.881 0 2.95-2.387 2.95-4.777v-24.893c0-2.391-1.069-4.33-2.95-4.33z" fill="#171c1f"/><path d="m296.392 104.434c0 2.297-1.062 4.59-2.932 4.59h-87.183c-1.87 0-3.386-2.293-3.386-4.59v-23.918c0-2.297 1.516-4.159 3.386-4.159h87.183c1.87 0 2.932 1.862 2.932 4.159z" fill="#5e5e5e"/><path d="m296.392 104.434c0 2.297-1.062 4.59-2.932 4.59h-87.183c-1.87 0-3.386-2.293-3.386-4.59v-23.918c0-2.297 1.516-4.159 3.386-4.159h87.183c1.87 0 2.932 1.862 2.932 4.159z" fill="url(#ak)"/><g opacity=".5"><path d="m289.892 78.023h4v30h-4z" fill="url(#am)"/><path d="m283.892 78.023h4v30h-4z" fill="url(#an)"/><path d="m277.892 78.023h4v30h-4z" fill="url(#ao)"/><path d="m271.892 78.023h4v30h-4z" fill="url(#ap)"/><path d="m265.892 78.023h4v30h-4z" fill="url(#aq)"/><path d="m259.892 78.023h4v30h-4z" fill="url(#ar)"/><path d="m253.892 78.023h4v30h-4z" fill="url(#as)"/><path d="m247.892 78.023h4v30h-4z" fill="url(#at)"/><path d="m241.892 78.023h4v30h-4z" fill="url(#au)"/><path d="m235.892 78.023h4v30h-4z" fill="url(#av)"/><path d="m229.892 78.023h4v30h-4z" fill="url(#aw)"/><path d="m223.892 78.023h4v30h-4z" fill="url(#ax)"/><path d="m217.892 78.023h4v30h-4z" fill="url(#ay)"/><path d="m211.892 78.023h4v30h-4z" fill="url(#az)"/><path d="m205.892 78.023h4v30h-4z" fill="url(#aA)"/></g><path d="m205.892 77.023h88v13h-88z" fill="#e8f6ff" mask="url(#aB)"/><path d="m483.892 17.023h176v114h-176z" fill="url(#aD)"/><path d="m523.892 30.625v85.01h116v-85.799z" fill="url(#aE)"/><path d="m541.892 43.023h79v58h-79z" fill="#020608"/><circle cx="577.892" cy="71.523" fill="url(#aJ)" mask="url(#aF)" r="21"/><ellipse cx="575.892" cy="71.523" fill="url(#aM)" mask="url(#aK)" rx="17.334" ry="12.658"/><path d="m564.559 71.357c0 2.025-.97 3.667-2.167 3.667-1.196 0-2.166-1.642-2.166-3.667s.97-3.667 2.166-3.667c1.197 0 2.167 1.642 2.167 3.667z" fill="#fff"/><path d="m276.455 217.165c-1.676 4.291-5.564 6.782-8.686 5.563-3.122-1.218-4.296-5.684-2.622-9.975 1.675-4.291 5.564-6.782 8.686-5.563 3.122 1.218 4.296 5.685 2.622 9.975z" fill="#d20106"/><path d="m266.316 215.987c.574-.049 1.112.739 1.2 1.758.089 1.023-.304 1.891-.878 1.94-.575.05-1.112-.737-1.202-1.758-.088-1.022.306-1.89.88-1.94z" fill="#fff"/><path d="m296.729 283.533c0 24.945-20.223 45.167-45.167 45.167s-45.166-20.222-45.166-45.167 20.222-45.168 45.166-45.168 45.167 20.223 45.167 45.168z" fill="url(#aN)"/><path d="m280.445 279.596c0 15.952-12.931 28.882-28.883 28.882s-28.882-12.93-28.882-28.882c0-15.951 12.93-28.882 28.882-28.882s28.883 12.931 28.883 28.882z"/><circle cx="251.562" cy="279.596" fill="url(#aO)" r="27.331"/><ellipse cx="251.563" cy="279.613" fill="#0c0d05" rx="26.258" ry="26.258" transform="matrix(.9264 -.3766 .3766 .9264 -86.7798 115.322)"/><path d="m273.873 279.596c0 12.322-9.989 22.313-22.312 22.313-12.321 0-22.311-9.99-22.311-22.313 0-12.321 9.989-22.312 22.311-22.312 12.323 0 22.312 9.99 22.312 22.312z" fill="url(#aP)"/><path d="m270.294 279.596c0 10.346-8.387 18.732-18.732 18.732s-18.732-8.387-18.732-18.732 8.387-18.731 18.732-18.731 18.732 8.385 18.732 18.731z" fill="#333"/><path d="m269.578 279.596c0 9.95-8.066 18.016-18.016 18.016s-18.016-8.065-18.016-18.016c0-9.95 8.066-18.017 18.016-18.017s18.016 8.067 18.016 18.017z" fill="url(#aQ)"/><path d="m265.999 279.477c0 8.039-6.465 14.557-14.438 14.557s-14.436-6.518-14.436-14.557c0-8.04 6.463-14.557 14.436-14.557 7.974 0 14.438 6.517 14.438 14.557z" fill="#333"/><path d="m265.522 279.596c0 7.71-6.25 13.96-13.96 13.96-7.709 0-13.959-6.25-13.959-13.96 0-7.709 6.25-13.959 13.959-13.959 7.71 0 13.96 6.25 13.96 13.959z" fill="url(#aR)"/><circle cx="251.562" cy="279.596" fill="url(#aS)" r="12.885"/><ellipse cx="418.27" cy="276.575" rx="158.933" ry="158.932" transform="matrix(.3295 -.9441 .9441 .3295 19.3151 580.3483)"/><circle cx="418.296" cy="276.564" fill="url(#aT)" r="158.094"/><path d="m566.965 276.564c0 82.107-66.561 148.668-148.669 148.668-82.106 0-148.667-66.561-148.667-148.668 0-82.108 66.561-148.668 148.667-148.668 82.108 0 148.669 66.561 148.669 148.668z" fill="url(#aU)"/><circle cx="418.296" cy="276.564" fill="#b3b3b3" r="145.736"/><path d="m560.554 276.564c0 78.567-63.69 142.258-142.258 142.258-78.565 0-142.255-63.69-142.255-142.258 0-78.567 63.69-142.256 142.255-142.256 78.567 0 142.258 63.69 142.258 142.256z" fill="url(#aV)"/><ellipse cx="418.321" cy="276.564" fill="#111" rx="138.126" ry="138.126"/><circle cx="418.296" cy="276.565" fill="url(#aW)" r="135.982"/><circle cx="418.296" cy="276.565" fill="url(#aX)" r="135.982"/><circle cx="418.296" cy="276.565" fill="url(#aY)" r="135.982"/><path d="m533.081 276.564c0 63.395-51.392 114.782-114.785 114.782-63.391 0-114.782-51.388-114.782-114.782s51.392-114.783 114.782-114.783c63.393 0 114.785 51.389 114.785 114.783z" fill="url(#aZ)"/><circle cx="418.296" cy="276.564" fill="#0a0a0a" r="113.646"/><circle cx="418.296" cy="277.6" fill="url(#a0)" r="108.993"/><ellipse cx="418.317" cy="277.61" fill="#333738" rx="108.998" ry="108.999" transform="matrix(1 -.0096 .0096 1 -2.6457 4.0285)"/><path d="m524.632 277.6c0 58.726-47.607 106.334-106.336 106.334-58.726 0-106.333-47.608-106.333-106.334 0-58.728 47.607-106.335 106.333-106.335 58.728 0 106.336 47.607 106.336 106.335z" fill="url(#a1)"/><path d="m524.632 276.782c0 58.274-47.607 105.516-106.336 105.516-58.726 0-106.333-47.241-106.333-105.516s47.607-105.518 106.333-105.518c58.728.001 106.336 47.243 106.336 105.518z" fill="url(#a2)"/><path d="m522.046 277.6c0 57.299-46.449 103.748-103.75 103.748-57.298 0-103.748-46.449-103.748-103.748 0-57.301 46.45-103.749 103.748-103.749 57.301-.001 103.75 46.447 103.75 103.749z" fill="url(#a3)"/><path d="m520.319 277.6c0 56.344-45.678 102.021-102.023 102.021-56.344 0-102.021-45.677-102.021-102.021 0-56.346 45.676-102.023 102.021-102.023 56.346-.001 102.023 45.676 102.023 102.023z" fill="url(#a4)"/><path d="m519.083 277.6c0 55.661-45.121 100.785-100.787 100.785-55.662 0-100.786-45.124-100.786-100.785 0-55.663 45.124-100.787 100.786-100.787 55.666 0 100.787 45.124 100.787 100.787z" fill="url(#a5)"/><ellipse cx="418.296" cy="277.832" fill="url(#a6)" rx="100.786" ry="101.019"/><path d="m518.451 277.6c0 55.311-44.839 100.152-100.155 100.152-55.312 0-100.153-44.841-100.153-100.152 0-55.313 44.841-100.154 100.153-100.154 55.316-.001 100.155 44.84 100.155 100.154z" fill="#0a0a08"/><path d="m514.881 277.6c0 53.34-43.242 96.582-96.585 96.582-53.34 0-96.583-43.242-96.583-96.582 0-53.344 43.244-96.585 96.583-96.585 53.343-.001 96.585 43.241 96.585 96.585z" fill="#0b0d0c"/><path d="m469.328 275.429c0 27.142-22.285 49.142-49.771 49.142-27.487 0-49.771-22-49.771-49.142 0-27.141 22.284-49.143 49.771-49.143 27.486 0 49.771 22.002 49.771 49.143z" fill="#0e0d09"/><path d="m465.93 275.429c0 25.289-20.761 45.789-46.373 45.789-25.613 0-46.375-20.5-46.375-45.789s20.762-45.788 46.375-45.788c25.612 0 46.373 20.499 46.373 45.788z" fill="#0e0f11"/><path d="m460.761 275.429c0 22.47-18.447 40.683-41.204 40.683-22.756 0-41.203-18.213-41.203-40.683s18.447-40.683 41.203-40.683 41.204 18.213 41.204 40.683z" fill="#131517"/><ellipse cx="419.557" cy="275.429" fill="#0e0f11" rx="38.566" ry="38.078"/><path d="m322.176 349.766c0 2.972-2.286 5.378-5.107 5.378s-5.106-2.406-5.106-5.378c0-2.971 2.286-5.377 5.106-5.377s5.107 2.406 5.107 5.377z" fill="#0d0d0d"/><path d="m321.712 349.465c0 2.691-2.182 4.875-4.875 4.875s-4.875-2.184-4.875-4.875c0-2.692 2.182-4.875 4.875-4.875s4.875 2.182 4.875 4.875z" fill="url(#a7)"/><path d="m491.966 275.758c0 41.255-33.439 74.694-74.691 74.694s-74.694-33.439-74.694-74.694 33.441-74.694 74.694-74.694 74.691 33.439 74.691 74.694z" fill="#5a5c5b"/><path d="m489.499 275.758c0 39.89-32.337 72.225-72.225 72.225-39.89 0-72.227-32.335-72.227-72.225 0-39.892 32.338-72.227 72.227-72.227 39.888 0 72.225 32.335 72.225 72.227z" fill="#3d3f3e"/><path d="m417.274 204.917c-39.124 0-70.84 31.713-70.84 70.84 0 39.123 31.716 70.837 70.84 70.837 39.122 0 70.837-31.714 70.837-70.837 0-39.126-31.715-70.84-70.837-70.84z" fill="#2a2a28"/><path d="m489.126 274.644c0 38.51-31.617 69.728-70.619 69.728-39.001 0-70.621-31.218-70.621-69.728s31.62-69.726 70.621-69.726c39.002-.001 70.619 31.216 70.619 69.726z" fill="url(#a8)"/><ellipse cx="418.507" cy="273.631" fill="url(#a9)" rx="54.53" ry="53.842"/><ellipse cx="418.507" cy="273.631" fill="url(#ba)" rx="54.53" ry="53.842"/><path d="m467.251 273.631c0 26.581-21.823 48.13-48.744 48.13s-48.744-21.549-48.744-48.13 21.823-48.129 48.744-48.129 48.744 21.548 48.744 48.129z" fill="#0e0d09"/><path d="m465.882 273.631c0 25.835-21.211 46.775-47.375 46.775-26.163 0-47.374-20.94-47.374-46.775s21.211-46.775 47.374-46.775c26.164 0 47.375 20.94 47.375 46.775z" fill="#3d3b40"/><ellipse cx="418.507" cy="273.631" fill="#0e0f11" rx="45.418" ry="44.845"/><path d="m458.86 273.631c0 22.007-18.065 39.845-40.354 39.845-22.287 0-40.354-17.838-40.354-39.845 0-22.006 18.066-39.844 40.354-39.844 22.289 0 40.354 17.838 40.354 39.844z" fill="#131517"/><path d="m456.278 273.631c0 20.597-16.912 37.292-37.771 37.292s-37.771-16.695-37.771-37.292c0-20.596 16.912-37.293 37.771-37.293s37.771 16.697 37.771 37.293z" fill="#0e0f11"/><path d="m453.052 273.631c0 18.839-15.465 34.108-34.545 34.108-19.078 0-34.544-15.27-34.544-34.108s15.466-34.107 34.544-34.107c19.08-.001 34.545 15.269 34.545 34.107z" fill="#131517"/><path d="m449.154 273.631c0 16.712-13.723 30.26-30.647 30.26-16.926 0-30.647-13.548-30.647-30.26 0-16.711 13.722-30.259 30.647-30.259s30.647 13.548 30.647 30.259z" fill="#2e3138"/><ellipse cx="418.507" cy="273.631" fill="url(#bb)" rx="27.639" ry="27.29"/><path d="m441.644 273.631c0 12.618-10.359 22.844-23.138 22.844-12.777 0-23.138-10.226-23.138-22.844 0-12.617 10.36-22.845 23.138-22.845 12.779 0 23.138 10.228 23.138 22.845z" fill="url(#bc)"/><path d="m427.439 273.631c0 4.871-3.999 8.819-8.933 8.819-4.933 0-8.932-3.948-8.932-8.819 0-4.87 3.999-8.818 8.932-8.818 4.934 0 8.933 3.948 8.933 8.818z" fill="url(#bd)"/><g fill="#fff" mask="url(#be)"><path d="m420.21 191.743c-17.88 0-34.507 5.352-48.376 14.535.408 8.542 1.851 25.195 6.846 47.9 0 0 24.791 3.659 62.101-22.719l-20.149-39.711c-.143 0-.281-.005-.422-.005z"/><path d="m459.484 203.832c-8.79-5.224-18.609-8.964-29.143-10.857l6.06 18.768c4.557-.33 18.308-5.921 23.083-7.911z"/><path d="m341.117 250.765c5.619-.044 21.479-.435 29.455-3.375l-6.877-33.777c-10.428 10.225-18.262 22.983-22.578 37.152z"/></g><g fill="#a3a1ab"><path d="m302.083 304.167-6.362 1.22-.369-1.922 4.119-1.986-4.559-.311-.369-1.926 6.362-1.22.228 1.193-5.007.96 5.249.305.238 1.233-4.768 2.22 5.008-.959z"/><path d="m299.964 291.04.186 1.41-1.384.753.338 2.567 1.529.337.181 1.375-6.752-1.653-.181-1.371zm-2.225 2.723-2.267 1.198 2.498.554z"/><path d="m293.461 290.945-.185-2.382c-.043-.538-.033-.949.028-1.239.082-.387.255-.729.519-1.021.265-.291.596-.523.998-.697.402-.172.905-.283 1.51-.331.532-.04.996-.009 1.39.094.482.123.881.324 1.195.603.236.208.433.5.587.876.113.28.189.66.226 1.143l.19 2.454zm.992-1.388 4.277-.333-.076-.972c-.028-.364-.068-.627-.122-.784-.07-.207-.173-.376-.31-.505-.137-.13-.353-.229-.65-.294-.296-.065-.693-.078-1.192-.039-.499.037-.88.11-1.14.22-.26.109-.46.249-.597.419-.137.172-.223.38-.257.627-.027.186-.021.544.022 1.076z"/><path d="m299.457 283.997-6.476.169-.125-4.8 1.095-.03.092 3.496 1.435-.037-.085-3.251 1.09-.03.086 3.25 1.763-.045-.095-3.618 1.091-.028z"/><path d="m299.385 275.582-6.475-.186.038-1.306 6.475.185z"/><path d="m299.444 273.061-6.464-.424.085-1.271 4.489-2.361-4.315-.283.08-1.212 6.464.425-.086 1.309-4.387 2.328 4.215.277z"/><path d="m294.073 260.998.173-1.292 4.064.547c.531.071.934.173 1.207.306.357.174.626.441.808.805.183.359.236.81.164 1.349-.085.635-.329 1.099-.729 1.392-.401.293-.944.396-1.63.307l.023-1.241c.37.036.637.017.802-.056.25-.109.393-.308.431-.593.04-.29-.016-.505-.165-.646-.148-.144-.483-.25-1.002-.319z"/><path d="m301.908 253.517-.257 1.399-1.549.291-.467 2.546 1.351.792-.25 1.364-5.916-3.651.25-1.359zm-2.955 1.906-2.525.442 2.206 1.296z"/><path d="m302.056 252.922-6.301-1.499.485-2.041c.185-.773.336-1.273.455-1.491.18-.339.458-.593.832-.761.376-.168.813-.191 1.315-.072.387.091.695.239.925.442s.396.432.494.683c.099.253.147.496.142.731-.012.318-.087.766-.225 1.342l-.197.829 2.377.563zm-4.932-2.517 1.788.425.165-.696c.119-.502.167-.845.14-1.029-.026-.186-.097-.343-.214-.472-.118-.129-.269-.216-.456-.261-.229-.055-.434-.032-.614.067-.182.1-.315.247-.402.443-.064.146-.152.447-.262.907z"/><path d="m304.908 242.157-.394 1.365-1.57.137-.717 2.488 1.267.922-.384 1.333-5.525-4.217.382-1.331zm-3.129 1.603-2.558.192 2.067 1.507z"/><path d="m305.107 241.582-6.117-2.127.416-1.201 4.958-1.084-4.086-1.421.399-1.148 6.117 2.127-.43 1.24-4.847 1.079 3.989 1.387z"/><path d="m388 162.844-1.196.33-1.248-4.509c-.323.529-.756.974-1.294 1.334l-.302-1.086c.284-.188.571-.475.857-.862.289-.387.446-.79.479-1.209l.971-.268z"/><path d="m389.427 158.917-.29-1.207 1.206-.291.292 1.207zm.809 3.355-.291-1.208 1.207-.289.291 1.206z"/><path d="m396.497 159.717.233 1.13-4.263.879c-.042-.436.012-.871.166-1.301.151-.43.503-1.031 1.053-1.802.443-.624.709-1.04.795-1.246.115-.286.148-.553.097-.797-.056-.271-.171-.464-.347-.58-.176-.115-.392-.147-.648-.094-.255.051-.439.17-.56.354-.118.184-.152.455-.103.815l-1.236.128c-.065-.684.061-1.21.383-1.582.32-.369.768-.613 1.337-.731.628-.128 1.153-.063 1.581.202s.691.647.796 1.15c.059.284.065.566.016.847-.05.278-.157.583-.321.911-.107.217-.316.542-.628.974-.313.431-.507.715-.585.851-.08.136-.14.266-.18.388z"/><path d="m397.756 160.674-.213-1.223 1.223-.212.214 1.222z"/><path d="m400.489 156.679c-.338-.09-.594-.243-.771-.456-.179-.214-.286-.462-.326-.741-.068-.478.042-.898.33-1.258.291-.358.743-.583 1.359-.67.607-.085 1.104.002 1.485.266.382.266.606.636.674 1.114.042.298.002.574-.12.826-.12.255-.313.463-.576.627.378.092.677.261.901.509.224.247.362.552.413.91.084.592-.036 1.1-.36 1.525-.326.423-.802.681-1.43.771-.582.083-1.09-.002-1.521-.253-.509-.297-.809-.761-.898-1.391-.05-.346-.009-.678.122-.992.132-.315.372-.577.718-.787zm.078-1.276c.036.245.133.427.29.544.158.119.352.161.583.127.233-.034.408-.13.529-.288.12-.159.164-.361.128-.606-.032-.229-.128-.403-.286-.523-.158-.119-.352-.161-.578-.13-.235.034-.414.13-.535.291-.119.16-.163.357-.131.585zm.277 2.764c.049.338.173.591.375.755.199.165.43.23.69.193.254-.036.449-.157.59-.364.141-.206.187-.482.137-.824-.041-.301-.161-.53-.354-.69-.195-.156-.423-.217-.682-.179-.302.042-.511.177-.629.406-.119.227-.161.461-.127.703z"/><path d="m534.87 312.824-1.11-.31 1.172-4.191c.407.162.766.408 1.077.743.313.33.688.917 1.122 1.761.352.679.6 1.103.743 1.277.203.233.422.384.665.451.265.075.491.061.673-.042.185-.105.312-.282.382-.534.068-.25.049-.471-.059-.659-.11-.191-.337-.345-.678-.464l.451-1.158c.638.254 1.05.608 1.229 1.064.183.453.194.962.038 1.523-.172.616-.473 1.054-.903 1.313-.43.26-.892.32-1.388.182-.278-.079-.532-.203-.759-.375-.225-.172-.446-.405-.663-.701-.144-.197-.336-.532-.575-1.007-.243-.473-.404-.776-.491-.908-.086-.133-.172-.246-.263-.338z"/><path d="m539.077 317.252c-.193.595-.557.992-1.094 1.189-.634.237-1.535.168-2.705-.212-1.164-.38-1.935-.853-2.314-1.421-.312-.473-.37-1.005-.178-1.601.195-.601.582-1.01 1.163-1.227.579-.217 1.46-.134 2.643.251 1.16.376 1.929.849 2.309 1.419.311.47.371 1.003.176 1.602zm-.977-.32c.046-.142.041-.285-.015-.427-.055-.141-.188-.281-.404-.419-.279-.181-.779-.389-1.502-.622-.722-.235-1.229-.36-1.526-.374-.294-.015-.503.017-.629.099-.125.081-.211.194-.257.337-.047.141-.042.285.011.427.056.142.191.282.407.419.275.181.774.387 1.498.622.722.233 1.231.359 1.523.374.296.016.506-.018.633-.099.126-.081.214-.194.261-.337z"/><path d="m532.693 321.047 1.159.447-.879 2.275-1.159-.448z"/><path d="m530.699 326.028-.357 1.156c-.296-.09-.552-.091-.768-.005-.218.086-.374.239-.472.457-.104.234-.104.471.002.71s.31.427.609.563c.285.127.547.151.78.074.234-.079.403-.229.501-.449.066-.146.115-.331.149-.559l.866.54c-.145.302-.182.565-.113.79.068.225.219.389.453.493.197.088.385.102.557.036.171-.064.3-.195.387-.393.088-.192.094-.387.021-.584-.072-.198-.23-.369-.477-.515l.646-.964c.324.232.561.47.71.712.148.242.224.522.228.839.006.316-.065.639-.211.964-.249.556-.626.923-1.131 1.099-.416.147-.808.14-1.171-.025-.52-.234-.805-.701-.86-1.405-.225.305-.509.503-.852.591-.344.091-.692.054-1.05-.104-.521-.232-.876-.621-1.073-1.164-.196-.542-.167-1.096.087-1.661.24-.534.592-.908 1.058-1.123s.961-.239 1.481-.073z"/><path d="m528.538 330.644-.429 1.166c-.268-.092-.513-.095-.735-.012-.224.085-.385.228-.484.433-.115.232-.117.475-.006.73.109.253.356.475.736.66.357.176.665.227.92.155.259-.071.448-.237.576-.495.156-.319.153-.676-.003-1.067l.573-.841 2.747 2.056-1.446 2.947-1.042-.512 1.031-2.102-.904-.658c.004.308-.059.592-.186.852-.243.495-.629.824-1.155.991-.529.168-1.081.112-1.653-.17-.479-.233-.839-.583-1.08-1.045-.326-.628-.325-1.279.004-1.951.265-.538.624-.905 1.077-1.102s.941-.209 1.459-.035z"/><path d="m527.648 339.056-.585.984-.552-.327c.22.606.185 1.152-.105 1.639-.152.258-.339.45-.556.577-.221.127-.474.186-.762.182.11.304.156.592.143.859-.016.268-.093.52-.23.752-.176.296-.385.512-.628.646-.241.134-.511.181-.803.145-.216-.028-.517-.156-.903-.386l-2.578-1.531.634-1.068 2.307 1.369c.4.238.682.355.841.352.209-.01.376-.117.498-.32.089-.151.127-.317.113-.504-.014-.186-.091-.361-.229-.523-.144-.163-.403-.357-.783-.582l-1.938-1.15.634-1.067 2.213 1.311c.392.232.655.365.791.395.138.03.257.022.36-.025.102-.047.196-.14.276-.274.099-.165.143-.34.131-.523-.009-.186-.079-.357-.214-.513-.133-.155-.396-.349-.782-.579l-1.96-1.163.635-1.066z"/><path d="m523.394 346.133-.647.942-.528-.362c.179.618.108 1.162-.213 1.628-.171.247-.369.429-.597.541-.226.11-.483.153-.769.128.089.313.118.601.084.868-.033.268-.127.511-.279.736-.195.283-.418.483-.668.6-.251.12-.521.148-.812.093-.212-.042-.505-.191-.874-.444l-2.473-1.699.702-1.022 2.212 1.518c.383.263.655.396.815.404.21.005.383-.09.519-.286.098-.143.148-.309.148-.494-.002-.188-.067-.366-.198-.537-.13-.172-.378-.384-.743-.635l-1.856-1.274.703-1.023 2.119 1.455c.377.259.631.407.766.446.135.038.255.038.361-.001.105-.04.205-.126.294-.257.108-.158.164-.329.164-.515.003-.184-.058-.357-.179-.523-.125-.164-.371-.375-.743-.63l-1.879-1.29.703-1.024z"/><path d="m461.655 390.305.393 1.114-1.802 5.096 2.845-1.009.366 1.033-4.469 1.585-.34-.958 1.884-5.305-3.473 1.231-.366-1.027z"/><path d="m457.152 395.292c.189.633.252 1.192.191 1.677-.048.36-.156.701-.327 1.023-.169.326-.381.592-.636.798-.338.278-.762.493-1.265.644-.915.272-1.731.205-2.448-.198-.718-.404-1.227-1.112-1.529-2.123-.298-1.002-.257-1.867.12-2.596.377-.728 1.02-1.228 1.933-1.497.924-.275 1.742-.211 2.453.19.711.398 1.215 1.096 1.508 2.082zm-1.279.427c-.209-.702-.528-1.188-.963-1.454-.433-.266-.897-.325-1.396-.177-.501.15-.857.451-1.071.907-.213.455-.213 1.041.002 1.761.212.713.524 1.197.94 1.454.417.258.883.31 1.398.156.519-.154.881-.455 1.092-.902.211-.448.211-1.03-.002-1.745z"/><path d="m450.309 397.301c.151.644.182 1.204.092 1.684-.067.354-.196.69-.384 1.003-.189.314-.416.567-.681.76-.355.257-.788.449-1.302.568-.929.22-1.74.105-2.432-.34-.694-.445-1.161-1.181-1.402-2.208-.24-1.017-.15-1.879.268-2.585.418-.703 1.088-1.165 2.017-1.383.936-.222 1.75-.11 2.437.332.688.442 1.151 1.163 1.387 2.169zm-1.301.35c-.169-.714-.461-1.216-.879-1.507-.415-.291-.877-.376-1.385-.258-.506.12-.88.4-1.12.842-.24.441-.274 1.03-.101 1.761.168.723.454 1.223.855 1.507.399.279.862.359 1.387.234.525-.122.906-.403 1.141-.838.238-.434.271-1.014.102-1.741z"/><path d="m442.568 395.805 1.105 6.382-1.93.335-1.911-4.154-.392 4.553-1.933.334-1.104-6.384 1.197-.206.869 5.023.397-5.242 1.24-.216 2.133 4.805-.869-5.022z"/><path d="m430.227 397.596.498 6.405-1.305.101-.413-5.315-3.241.251-.085-1.088z"/><path d="m424.82 397.991.194 6.476-4.801.145-.031-1.097 3.492-.104-.043-1.434-3.25.096-.031-1.092 3.248-.096-.054-1.763-3.616.109-.033-1.092z"/><path d="m418.868 398.146-.142 6.475-1.27-.026-2.558-4.382-.093 4.324-1.215-.027.14-6.476 1.312.029 2.521 4.279.091-4.223z"/><path d="m412.602 400.092-1.278.029c-.045-.432-.177-.756-.395-.973-.22-.218-.528-.34-.924-.369-.42-.03-.743.034-.969.197-.227.161-.348.36-.366.599-.011.153.023.287.105.402.082.111.231.217.449.311.149.066.491.185 1.024.36.685.224 1.16.474 1.424.749.37.383.535.831.498 1.343-.025.329-.14.629-.347.903-.208.271-.493.469-.855.594-.363.123-.792.167-1.289.13-.81-.06-1.407-.281-1.791-.668-.383-.386-.563-.876-.541-1.471l1.309.038c.032.336.135.584.307.743.174.158.444.253.81.279.381.028.683-.026.907-.167.146-.091.225-.22.238-.387.011-.152-.044-.288-.166-.405-.152-.151-.541-.325-1.166-.521-.623-.198-1.081-.387-1.373-.57-.293-.182-.514-.417-.665-.71-.152-.288-.213-.639-.183-1.047.027-.37.156-.708.386-1.018.229-.309.539-.525.926-.656.388-.13.862-.173 1.423-.131.816.061 1.431.295 1.839.706.411.411.633.98.663 1.71z"/></g><path d="m22.285 99.569c-.326-4.11-3.921-7.177-8.031-6.852s-7.177 3.921-6.851 8.031c.326 4.111 3.922 7.178 8.031 6.852 4.11-.326 7.177-3.922 6.851-8.031zm-6.95 6.786c-3.421.271-6.415-2.283-6.686-5.704s2.282-6.415 5.703-6.687c3.422-.272 6.416 2.283 6.687 5.704s-2.282 6.415-5.704 6.687z"/><path d="m715.079 81.996v40.92c1.973-.224 4.912-1.218 5.502-1.419 7.415-2.526 14.17-7.904 14.17-7.904 2.859-2.322 4.611-4.399 5.815-7.981 1.783-5.309.382-10.086.382-10.086-3.346-10.859-22.105-13.173-25.869-13.53zm5.353 17.672c.271-3.421 3.265-5.976 6.687-5.704 3.421.272 5.974 3.266 5.703 6.687s-3.265 5.975-6.686 5.704c-3.422-.272-5.975-3.266-5.704-6.687z"/><path d="m715.079 85.032v33.933c.62.092 3.863-.908 4.246-1.054 7.331-2.805 12.588-6.638 12.588-6.638 2.538-1.955 4.091-3.707 5.15-6.732 1.569-4.486.304-8.533.304-8.533-2.642-9.156-18.597-10.733-22.288-10.976zm5.353 14.636c.271-3.421 3.265-5.976 6.687-5.704 3.421.272 5.974 3.266 5.703 6.687s-3.265 5.975-6.686 5.704c-3.422-.272-5.975-3.266-5.704-6.687z" fill="url(#bj)"/><path d="m726.037 107.6c4.109.326 7.705-2.741 8.031-6.852.326-4.11-2.741-7.706-6.851-8.031s-7.705 2.742-8.031 6.852c-.326 4.109 2.741 7.705 6.851 8.031zm-5.605-7.932c.271-3.421 3.265-5.976 6.687-5.704 3.421.272 5.974 3.266 5.703 6.687s-3.265 5.975-6.686 5.704c-3.422-.272-5.975-3.266-5.704-6.687z"/></svg>