<svg height="171.5856mm" viewBox="0 0 148.9744 171.5856" width="148.9744mm" xmlns="http://www.w3.org/2000/svg"><g stroke-width=".264583" transform="matrix(2.2376732 0 0 2.2376732 -64.221905 -64.557488)"><path d="m52.782762 58.699387c-3.67771 0-6.69396-2.98979-6.69396-6.69396 0-3.70416 2.98979-6.69396 6.69396-6.69396s6.69396 2.9898 6.69396 6.69396c0 3.70417-2.98979 6.69396-6.69396 6.69396zm0-10.63625c-2.16958 0-3.94229 1.77271-3.94229 3.94229 0 2.16959 1.77271 3.94229 3.94229 3.94229s3.94229-1.7727 3.94229-3.94229c0-2.16958-1.77271-3.94229-3.94229-3.94229z" fill="#f00"/><path d="m75.166512 59.122717c-.0529 0-.13229 0-.18521 0l-10.16-1.32291c-.37041-.0529-.68791-.23813-.89958-.52917s-.3175-.66146-.26458-1.00542l1.32291-10.16c.10584-.74083.79375-1.29645 1.53459-1.19062l10.16 1.32292c.37041.0529.68791.23812.89958.52916s.3175.66146.26458 1.00542l-1.32291 10.16c-.0794.68792-.66146 1.19062-1.34938 1.19062zm-8.59896-3.88937 7.40834.97896.97895-7.40834-7.40833-.97895z" fill="#ff5ddc"/><path d="m52.967972 41.977717c-.0794 0-.18521 0-.29104-.0265-.74084-.15875-1.21709-.87312-1.05834-1.61396l2.16959-10.39812c.15875-.74083.87312-1.21708 1.61396-1.05833.74083.15875 1.21708.87312 1.05833 1.61396l-2.16958 10.39812c-.10584.635-.68792 1.08479-1.32292 1.08479z" fill="#027fe1"/><path d="m59.265052 37.850217c-.0794 0-.18521 0-.29104-.0264l-10.39812-2.16959c-.74084-.15875-1.21709-.87312-1.05834-1.61396.15875-.74083.87313-1.21708 1.61396-1.05833l10.39813 2.16958c.74083.15875 1.21708.87313 1.05833 1.61396-.13229.635-.68792 1.08479-1.32292 1.08479z" fill="#027fe1"/><path d="m66.408802 41.236887c-.34396 0-.66146-.13229-.89958-.34396-.37042-.3175-.52917-.82021-.42333-1.29646l1.87854-8.94291c.10583-.47625.44979-.87313.89958-1.00542.47625-.15875.97896-.0529 1.34938.26458l6.8527 6.0325c.37042.3175.52917.82021.42334 1.29646-.10584.47625-.44979.87313-.89959 1.03188l-8.73125 2.88396c-.15875.0529-.3175.0794-.44979.0794zm2.72521-7.72583-.89958 4.31271 4.20687-1.4023z" fill="#8aee49"/><path d="m95.221932 88.888347c-.10584-4.94771-.23813-6.50875-.68792-8.41375-1.56104-6.50875-4.18042-11.50938-8.12271-15.42521-5.26521-5.23875-11.53583-5.715-19.05-1.42875l-2.09021 1.19063s-6.90562-.0794-7.4877-.50271c-.39688-.26459-1.53459-.89959-2.54-1.40229-5.10646-2.54-9.68375-2.83105-13.73188-.84667-5.450415 2.67229-10.239373 10.05417-12.223748 18.81187-.555625 2.51355-.608542 3.3073-.582084 9.73667.02646 7.22313.15875 8.44021 1.217084 10.530423.9525 1.93146 2.407708 3.20146 4.550833 4.04812 3.466045 1.34938 9.286875-2.35479 14.075835-8.995833l1.61396-2.2225h23.57437l1.61396 2.2225c3.78354 5.238753 9.12812 9.339793 12.17083 9.339793 2.51354 0 5.18584-1.85208 6.48229-4.55083 1.13771-2.328343 1.4023-4.841883 1.21709-12.091463zm-41.98938-9.47208h-3.57187v3.57187c0 1.11125-.92604 2.03729-2.03729 2.03729s-2.0373-.92604-2.0373-2.03729v-3.57187h-3.57187c-1.11125 0-2.03729-.92605-2.03729-2.0373s.92604-2.03729 2.03729-2.03729h3.57187v-3.57187c0-1.11125.92605-2.0373 2.0373-2.0373s2.03729.92605 2.03729 2.0373v3.57187h3.57187c1.11125 0 2.03729.92604 2.03729 2.03729-.0265 1.13771-.92604 2.0373-2.03729 2.0373zm26.29959-11.16542c1.71979 0 3.12208 1.40229 3.12208 3.12208s-1.40229 3.12209-3.12208 3.12209c-1.7198 0-3.12209-1.4023-3.12209-3.12209.0265-1.71979 1.40229-3.12208 3.12209-3.12208zm-10.13355 6.0325c0-1.71979 1.4023-3.12208 3.12209-3.12208s3.12208 1.40229 3.12208 3.12208-1.40229 3.12208-3.12208 3.12208-3.12209-1.40229-3.12209-3.12208zm6.4823 10.55687c-1.7198 0-3.12209-1.40229-3.12209-3.12208s1.40229-3.12208 3.12209-3.12208c1.71979 0 3.12208 1.40229 3.12208 3.12208s-1.40229 3.12208-3.12208 3.12208zm6.56166-3.12208c-1.71979 0-3.12208-1.40229-3.12208-3.12208s1.40229-3.12209 3.12208-3.12209 3.12209 1.4023 3.12209 3.12209c0 1.74625-1.4023 3.12208-3.12209 3.12208z" fill="#808080"/></g></svg>