<svg enable-background="new 0 0 30 30" viewBox="0 0 30 30" xmlns="http://www.w3.org/2000/svg"><path d="m2.914 10.337h4.797c.344 0 .622.279.622.622v1.653c0 .344-.279.622-.622.622h-4.797c-.344 0-.622-.279-.622-.622v-1.653c0-.343.278-.622.622-.622z" fill="#a3a3a3"/><path d="m1.659 11.786h7.61l1.748-1.449h17.324c.916 0 1.659.743 1.659 1.659v15.308c0 .916-.743 1.659-1.659 1.659h-26.682c-.916 0-1.659-.742-1.659-1.659v-13.859c0-.916.743-1.659 1.659-1.659z" fill="#545252"/><path d="m30 15.511h-30v-2.066c0-.916.743-1.659 1.659-1.659h7.61l1.748-1.449h17.324c.916 0 1.659.743 1.659 1.659z" fill="#d8d8d8"/><path d="m30 27.101h-30v.203c0 .916.743 1.659 1.659 1.659h26.682c.916 0 1.659-.743 1.659-1.659z" fill="#d8d8d8"/><ellipse cx="16.563" cy="22.444" fill="#666161" rx="6.771" ry="6.726"/><path d="m16.563 30c-4.191 0-7.601-3.389-7.601-7.556 0-4.166 3.41-7.555 7.601-7.555 4.19 0 7.6 3.389 7.6 7.555 0 4.167-3.41 7.556-7.6 7.556zm0-13.452c-3.276 0-5.942 2.645-5.942 5.896 0 3.252 2.666 5.897 5.942 5.897 3.275 0 5.941-2.645 5.941-5.897 0-3.251-2.666-5.896-5.941-5.896z" fill="#c4c4c4"/><ellipse cx="16.563" cy="22.444" fill="#1cb0f6" rx="4.896" ry="4.864"/><path d="m23.432 11.477h3.344c.344 0 .622.279.622.622v1.651c0 .344-.279.622-.622.622h-3.344c-.344 0-.622-.279-.622-.622v-1.651c0-.344.279-.622.622-.622z" fill="#1cb0f6" stroke="#4f4c4c" stroke-width="1.037"/><path d="m17.289 11.579h2.922c.344 0 .622.279.622.622v.618c0 .344-.279.622-.622.622h-2.922c-.344 0-.622-.279-.622-.622v-.618c0-.344.278-.622.622-.622z" fill="#a3a3a3"/><g fill="none" stroke-linecap="round" stroke-width="1.6592"><path d="m16.067 19.11c-1.027.077-1.937.693-2.391 1.618l-.144.294" stroke="#7af0f2"/><path d="m17.073 25.782c1.027-.077 1.937-.693 2.391-1.618l.144-.294" stroke="#1ca2f6"/></g></svg>