<svg id="bb7f1cb3-fb47-4e97-aa3a-5017e68dac56" data-name="texte" xmlns="http://www.w3.org/2000/svg" xmlns:xlink="http://www.w3.org/1999/xlink" viewBox="0 0 470.33 67.41"><defs><style>.bc02a8c2-b626-4d88-bff8-35e044993e9f{stroke:#9def48;stroke-miterlimit:10;stroke-width:0.75px;fill:url(#e4d97372-7fbf-4809-970b-297bbe8630f8);}.ae4c8111-4fef-42b7-9a8b-93844a4f5272{fill:#9def48;}</style><linearGradient id="e4d97372-7fbf-4809-970b-297bbe8630f8" x1="0.38" y1="33.7" x2="469.96" y2="33.7" gradientUnits="userSpaceOnUse"><stop offset="0" stop-color="#032c02"/><stop offset="1" stop-color="#207a09"/></linearGradient></defs><polygon class="bc02a8c2-b626-4d88-bff8-35e044993e9f" points="0.38 5.91 102.44 5.91 108.57 0.38 150.31 0.38 158.22 5.91 461.65 6.11 469.96 16 469.96 59.72 50.81 59.72 42.7 67.03 7.89 67.03 0.38 59.72 0.38 5.91"/><path class="ae4c8111-4fef-42b7-9a8b-93844a4f5272" d="M82.34,30.25l1.84,2A18.14,18.14,0,0,1,80,44.54H55.82a17,17,0,0,1-3.68-7.3h4.38A19,19,0,0,0,58,40.47H77.79A16.92,16.92,0,0,0,80,34.3H53.44l-1.85-2A18.18,18.18,0,0,1,55.82,20H80a17.13,17.13,0,0,1,3.68,7.3H79.26a17.47,17.47,0,0,0-1.47-3.23H58a17.3,17.3,0,0,0-2.2,6.15Z" transform="translate(-0.13 -0.13)"/><path class="ae4c8111-4fef-42b7-9a8b-93844a4f5272" d="M115.27,37.24h4.38a17.13,17.13,0,0,1-3.68,7.3H91.82A18.23,18.23,0,0,1,87.6,32.28,18.22,18.22,0,0,1,91.82,20H116a17.13,17.13,0,0,1,3.68,7.3h-4.38a17.47,17.47,0,0,0-1.47-3.23H94a16.32,16.32,0,0,0-2.34,8.18A16.38,16.38,0,0,0,94,40.47H113.8A18.09,18.09,0,0,0,115.27,37.24Z" transform="translate(-0.13 -0.13)"/><path class="ae4c8111-4fef-42b7-9a8b-93844a4f5272" d="M148.6,40.47h2.71a17.63,17.63,0,0,0,2.19-6.17H129.32a17.46,17.46,0,0,0,2.2,6.17h2.7v4.07h-4.88A17.62,17.62,0,0,1,125.2,34.3h-3.85v-4h3.85A17.53,17.53,0,0,1,129.34,20h24.14a17.56,17.56,0,0,1,4.14,10.24l-1.76,1v2.05l1.76,1a17.62,17.62,0,0,1-4.14,10.24H148.6ZM129.32,30.25H153.5a17.47,17.47,0,0,0-2.19-6.15H131.52A17.3,17.3,0,0,0,129.32,30.25Z" transform="translate(-0.13 -0.13)"/><path class="ae4c8111-4fef-42b7-9a8b-93844a4f5272" d="M185.92,34.3H169a17.49,17.49,0,0,0,2.21,6.17h20.13l2.34,4.07H169a17.62,17.62,0,0,1-4.14-10.24H161v-4h3.84A17.53,17.53,0,0,1,169,20h24.66l-2.34,4.07H171.21A17.33,17.33,0,0,0,169,30.25h16.92Z" transform="translate(-0.13 -0.13)"/><path class="ae4c8111-4fef-42b7-9a8b-93844a4f5272" d="M217.71,34.3H200.79a17.46,17.46,0,0,0,2.2,6.17h20.13l2.35,4.07H200.81a17.62,17.62,0,0,1-4.14-10.24h-3.85v-4h3.85A17.53,17.53,0,0,1,200.81,20h24.66l-2.35,4.07H203a17.3,17.3,0,0,0-2.2,6.15h16.92Z" transform="translate(-0.13 -0.13)"/><path class="ae4c8111-4fef-42b7-9a8b-93844a4f5272" d="M233.58,24.1a16.32,16.32,0,0,0-2.34,8.18,16.38,16.38,0,0,0,2.34,8.19h2.7v4.07H231.4a18.18,18.18,0,0,1-4.22-12.26A18.13,18.13,0,0,1,231.4,20h24.14a18.14,18.14,0,0,1,4.23,12.25,18.19,18.19,0,0,1-4.23,12.26h-4.88V40.47h2.71a16.47,16.47,0,0,0,2.33-8.19,16.41,16.41,0,0,0-2.33-8.18Z" transform="translate(-0.13 -0.13)"/><path class="ae4c8111-4fef-42b7-9a8b-93844a4f5272" d="M293.93,30.25l1.84,2a18.14,18.14,0,0,1-4.22,12.26H267.4a17.11,17.11,0,0,1-3.67-7.3h4.38a19,19,0,0,0,1.48,3.23h19.79a17.11,17.11,0,0,0,2.19-6.17H265l-1.85-2A18.22,18.22,0,0,1,267.4,20h24.15a17.13,17.13,0,0,1,3.68,7.3h-4.38a17.47,17.47,0,0,0-1.47-3.23H269.59a17.3,17.3,0,0,0-2.2,6.15Z" transform="translate(-0.13 -0.13)"/><path class="ae4c8111-4fef-42b7-9a8b-93844a4f5272" d="M303.4,34.3a17.46,17.46,0,0,0,2.2,6.17h2.7v4.07h-4.89a18.23,18.23,0,0,1-4.22-12.26A18.18,18.18,0,0,1,303.41,20h4.89V24.1h-2.7a17.3,17.3,0,0,0-2.2,6.15h24.18a17.67,17.67,0,0,0-2.19-6.15h-2.72V20h4.89a18.18,18.18,0,0,1,4.22,12.25,18.23,18.23,0,0,1-4.22,12.26h-4.89V40.47h2.72a17.83,17.83,0,0,0,2.19-6.17Z" transform="translate(-0.13 -0.13)"/><path class="ae4c8111-4fef-42b7-9a8b-93844a4f5272" d="M363.57,44.54H339.42a18.23,18.23,0,0,1-4.22-12.26A18.18,18.18,0,0,1,339.42,20h24.15a18.18,18.18,0,0,1,4.22,12.25A18.23,18.23,0,0,1,363.57,44.54Zm-2.17-4.07a16.45,16.45,0,0,0,2.32-8.19,16.39,16.39,0,0,0-2.32-8.18H341.61a16.32,16.32,0,0,0-2.34,8.18,16.38,16.38,0,0,0,2.34,8.19Z" transform="translate(-0.13 -0.13)"/><path class="ae4c8111-4fef-42b7-9a8b-93844a4f5272" d="M387.72,41.07l-4.07,4.07v-21h-13.3V20H401V24.1H387.72Z" transform="translate(-0.13 -0.13)"/><path class="ae4c8111-4fef-42b7-9a8b-93844a4f5272" d="M434.32,30.25l1.85,2A18.19,18.19,0,0,1,432,44.54H407.8a17.13,17.13,0,0,1-3.68-7.3h4.38A19,19,0,0,0,410,40.47h19.8A17.08,17.08,0,0,0,432,34.3H405.42l-1.84-2A18.17,18.17,0,0,1,407.8,20H432a17.23,17.23,0,0,1,3.67,7.3h-4.38a18.09,18.09,0,0,0-1.46-3.23H410a17.49,17.49,0,0,0-2.2,6.15Z" transform="translate(-0.13 -0.13)"/></svg>