<svg xmlns="http://www.w3.org/2000/svg" xmlns:xlink="http://www.w3.org/1999/xlink" viewBox="0 0 470.33 67.41"><defs><style>.b410ef33-359f-4f8d-a187-4881f36288d3{stroke:#9def48;stroke-miterlimit:10;stroke-width:0.75px;fill:url(#b97d65a9-6498-4f1a-97ac-ec2fa9d4e0ef);}.e8f6fd3b-1268-45fa-a26b-9d86cfb83b9c{fill:#9def48;}.f7b24b20-3bf4-4c66-a78c-8544df9776aa{fill:#fff;}</style><linearGradient id="b97d65a9-6498-4f1a-97ac-ec2fa9d4e0ef" x1="0.38" y1="33.7" x2="469.96" y2="33.7" gradientUnits="userSpaceOnUse"><stop offset="0" stop-color="#032c02"/><stop offset="1" stop-color="#207a09"/></linearGradient></defs><g id="fbcf5e99-7671-4b1c-8507-4405437e191b" data-name="texte"><polygon class="b410ef33-359f-4f8d-a187-4881f36288d3" points="0.38 5.91 102.44 5.91 108.57 0.38 150.31 0.38 158.22 5.91 461.65 6.11 469.96 16 469.96 59.72 50.81 59.72 42.7 67.03 7.89 67.03 0.38 59.72 0.38 5.91"/><path class="e8f6fd3b-1268-45fa-a26b-9d86cfb83b9c" d="M75.7,41.88,66.61,34.5l-9.1,7.38H52.42l11.64-9.45L52.42,23h5.09l9.1,7.38L75.7,23h5.09L69.15,32.43l11.64,9.45Z" transform="translate(-0.06 -0.03)"/><path class="e8f6fd3b-1268-45fa-a26b-9d86cfb83b9c" d="M86.26,26.11H82.77V23H89.4V39.21l-3.14,3.13Z" transform="translate(-0.06 -0.03)"/></g><g id="ab18c0b3-ef7f-47d0-9069-ecdc292b0fd6" data-name="Calque 1"><path class="f7b24b20-3bf4-4c66-a78c-8544df9776aa" d="M22.05,54.09l1.44.87c.09.06,0,.12,0,.19-.23.68-.48,1.36-.67,2.05a10.22,10.22,0,0,0-.35,2.53A3.37,3.37,0,0,0,22.62,61a.36.36,0,0,0,0,.09c.08.16.17.3.37.31a.37.37,0,0,0,.37-.29,13.07,13.07,0,0,0,.37-1.26,36.78,36.78,0,0,1,.85-3.74,5.54,5.54,0,0,1,.58-1.29,1.91,1.91,0,0,1,3.31.08,5.13,5.13,0,0,1,.59,1.86,14.7,14.7,0,0,1-.22,5.12,22.63,22.63,0,0,1-.81,2.78l-.06.13-.13-.07-1.41-.85c-.09-.06-.1-.1-.06-.19a12.56,12.56,0,0,0,1-2.76,9,9,0,0,0,.27-3.11,1.74,1.74,0,0,0-.2-.58.39.39,0,0,0-.73,0,3.78,3.78,0,0,0-.39,1.19c-.28,1.3-.52,2.61-.9,3.88a4.91,4.91,0,0,1-.66,1.41A1.67,1.67,0,0,1,22,63.6a4.36,4.36,0,0,1-.6-1.62,14.85,14.85,0,0,1-.07-4.61,16.36,16.36,0,0,1,.67-3Z" transform="translate(-0.06 -0.03)"/><path class="f7b24b20-3bf4-4c66-a78c-8544df9776aa" d="M26,22.46,29,19a1.25,1.25,0,0,1,0,.15v3.24a.29.29,0,0,1-.07.19l-3.35,3.78c-.09.1-.14.09-.25,0-.3-.13-.36-.31-.31-.63a6,6,0,0,0,0-2,2.11,2.11,0,0,0-.48-1.15,1,1,0,0,0-1.66.16A3.08,3.08,0,0,0,22.52,24a9.1,9.1,0,0,0,.11,2.85l0,0H29c0,.07,0,.11,0,.16v2.28c0,.13,0,.17-.16.17H21.64c-.12,0-.16,0-.18-.15a25.62,25.62,0,0,1-.28-5.25,10,10,0,0,1,.59-3.2,2.73,2.73,0,0,1,.73-1.13,1.72,1.72,0,0,1,2.42.17,3.84,3.84,0,0,1,.85,1.71C25.84,21.91,25.89,22.17,26,22.46Z" transform="translate(-0.06 -0.03)"/><path class="f7b24b20-3bf4-4c66-a78c-8544df9776aa" d="M26,45.37v5h2.86c.15,0,.18,0,.18.19v2.25c0,.13,0,.16-.16.16H21.55c-.14,0-.18-.05-.17-.18,0-.76,0-1.51,0-2.26,0-.14.05-.17.18-.17h2.74v-.22c0-1.53,0-3.06,0-4.59,0-.13,0-.17-.17-.17H21.55c-.13,0-.18,0-.17-.17V42.94c0-.13,0-.16.16-.16h7.29c.13,0,.16,0,.16.16v2.28c0,.12,0,.16-.15.16H26Z" transform="translate(-0.06 -0.03)"/><path class="f7b24b20-3bf4-4c66-a78c-8544df9776aa" d="M26.26,15.7h.19c.79,0,1.59,0,2.38,0,.12,0,.16,0,.16.16v2.27c0,.14,0,.17-.17.17q-3.59,0-7.17,0c-.12,0-.17,0-.19-.16a26,26,0,0,1-.28-5.36,9.39,9.39,0,0,1,.59-3.14,2.9,2.9,0,0,1,.76-1.13,1.86,1.86,0,0,1,2.4,0A3.25,3.25,0,0,1,26,10.1a8.71,8.71,0,0,1,.42,2.53,16,16,0,0,1-.17,2.93A.57.57,0,0,0,26.26,15.7Zm-3.63,0h2.09c.1,0,.11,0,.13-.12A9,9,0,0,0,25,12.53a2,2,0,0,0-.58-1.28,1,1,0,0,0-1.5.21,3,3,0,0,0-.33.75A8.68,8.68,0,0,0,22.63,15.69Z" transform="translate(-0.06 -0.03)"/><path class="f7b24b20-3bf4-4c66-a78c-8544df9776aa" d="M29,30v3a.24.24,0,0,1-.14.24L27.6,34a.28.28,0,0,0-.17.28q0,2.49,0,5a.29.29,0,0,0,.15.27l1.28.77a.23.23,0,0,1,.13.23v1.69s0,.07,0,.13l-.3-.17-5.42-3.3-1.77-1.08a.2.2,0,0,1-.11-.22c0-.92,0-1.84,0-2.77a.27.27,0,0,1,.15-.25l7.3-4.43Zm-3.07,5L23,36.68l2.93,1.78Z" transform="translate(-0.06 -0.03)"/></g></svg>