<svg width="94" height="103" viewBox="0 0 94 103" fill="none" xmlns="http://www.w3.org/2000/svg">
<path d="M24.9684 51.2703C24.9684 51.7229 24.771 52.153 24.428 52.4483L2.56824 71.2606C1.91765 71.8206 0.936133 71.747 0.37627 71.0964C-0.183793 70.4458 -0.110164 69.4645 0.540628 68.9044L21.0314 51.2703L0.540627 33.6361C-0.109964 33.076 -0.183594 32.0945 0.376269 31.4441C0.936131 30.7935 1.91765 30.7199 2.56824 31.28L24.428 50.0922C24.771 50.3875 24.9684 50.8176 24.9684 51.2703Z" fill="#707070"/>
<path d="M18.9875 10.2834C17.1039 37.7609 17.1039 65.2387 18.9875 92.7162C19.2935 97.1798 22.7295 100.808 27.173 101.33C46.1138 103.557 65.0546 103.557 83.9953 101.33C88.4388 100.808 91.8748 97.1798 92.1808 92.7164C94.0644 65.2389 94.0644 37.7611 92.1808 10.2836C91.8748 5.82002 88.4388 2.19188 83.9953 1.66964C65.0545 -0.556533 46.1138 -0.556533 27.173 1.66964C22.7295 2.19148 19.2935 5.81982 18.9875 10.2834Z" fill="#9A9A9A"/>
<path d="M92.3257 90.5381C92.2796 91.2625 92.2315 91.9892 92.1813 92.7158C91.8735 97.178 88.4372 100.807 83.9939 101.33C65.0544 103.556 46.1126 103.556 27.173 101.33C22.7298 100.807 19.2935 97.178 18.9879 92.7158C18.9377 91.9914 18.8896 91.2667 18.8435 90.5423C20.2674 93.3167 22.9979 95.3143 26.2539 95.6976C45.807 97.9945 65.3602 97.9945 84.9133 95.6976C88.1693 95.3143 90.9018 93.3147 92.3257 90.5381Z" fill="#707070"/>
<path d="M26.4405 15.0738C24.7643 39.3577 24.7643 63.6418 26.4405 87.9257C26.6217 90.5526 28.6268 92.6975 31.2374 93.0417C47.4684 95.1828 63.6994 95.1828 79.9304 93.0417C82.541 92.6973 84.5461 90.5526 84.7273 87.9257C86.4037 63.6418 86.4037 39.3577 84.7273 15.0737C84.5461 12.4468 82.541 10.3019 79.9304 9.95774C63.6994 7.81666 47.4684 7.81666 31.2374 9.95774C28.627 10.3021 26.6217 12.4468 26.4405 15.0738Z" fill="#E4E4E4"/>
<path d="M85.0872 82.258C84.9784 84.1489 84.8569 86.0377 84.7271 87.9263C84.5469 90.5544 82.541 92.6985 79.9298 93.0419C63.6998 95.184 47.4676 95.184 31.2375 93.0419C28.6262 92.6985 26.6224 90.5544 26.4403 87.9265C26.3105 86.0356 26.189 84.1448 26.0802 82.254C26.9241 83.8559 28.5049 85.0139 30.3915 85.2629C47.187 87.4783 63.9802 87.4783 80.7757 85.2629C82.6603 85.0137 84.2413 83.858 85.0872 82.258Z" fill="#CFCFCF"/>
<path d="M87.5334 51.4998C87.5334 63.7059 87.1151 75.9121 86.2785 88.0329C86.0467 91.3892 83.4627 94.1439 80.1341 94.5829C63.8439 96.7318 47.3245 96.7318 31.0345 94.5829C27.706 94.1437 25.1219 91.389 24.8901 88.0329C23.2168 63.7914 23.2168 39.2084 24.8901 14.9669C25.1219 11.6106 27.7059 8.85592 31.0345 8.41696C47.3245 6.26804 63.8439 6.26804 80.1341 8.41696C83.4627 8.85592 86.0467 11.6106 86.2785 14.9669C87.1149 27.0876 87.5334 39.2937 87.5334 51.4998ZM26.7435 51.4998C26.7435 63.6343 27.1594 75.769 27.9912 87.8186C28.1216 89.7058 29.5722 91.2543 31.4409 91.5009C47.4611 93.6142 63.7071 93.6142 79.7273 91.5009C81.596 91.2545 83.0466 89.7058 83.177 87.8186C84.8407 63.7194 84.8407 39.2804 83.177 15.181C83.0468 13.2938 81.596 11.7454 79.7275 11.4987C63.7071 9.3854 47.4613 9.3854 31.4409 11.4987C29.5722 11.7452 28.1216 13.2938 27.9912 15.181C27.1594 27.2306 26.7435 39.3653 26.7435 51.4998Z" fill="#707070"/>
</svg>
