<svg width="622" height="130" viewBox="0 0 622 130" fill="none" xmlns="http://www.w3.org/2000/svg">
<path d="M133.519 49.7827H152.61V90H133.519V49.7827ZM119.158 34.9243H166.971V46.9189H119.158V34.9243ZM202.747 83.9819H184.734L188.553 73.0664H198.514L183.78 34.9243H201.668L223.624 90H205.071L202.747 83.9819ZM179.837 90H162.115L181.788 37.4146L189.922 59.2871L179.837 90ZM234.954 49.7827H254.046V90H234.954V49.7827ZM220.594 34.9243H268.406V46.9189H220.594V34.9243ZM293.765 67.3804V90H275.42V34.9243H293.765V56.7554H311.321V67.3804H293.765ZM296.67 45.5908V34.9243H325.35V50.8618H308.084V45.5908H296.67ZM296.67 90V79.0015H307.005V73.4814H325.35V90H296.67ZM356.229 34.9243H375.735L390.511 59.4116L402.132 39.4897V67.2144L388.892 90L356.229 34.9243ZM404.83 90V34.9243H423.174V90H404.83ZM356.187 90V40.0293L373.328 68.7915V90H356.187ZM449.986 78.7939H456.875V90H442.764L431.6 79.0015V45.9229L442.764 34.9243H456.875V46.0889H449.986V78.7939ZM466.795 46.0889H459.781V34.9243H474.017L485.14 45.9229V79.0015L474.017 90H459.781V78.7939H466.795V46.0889ZM514.898 90V79.0015H528.511V45.9229H514.898V34.9243H535.857L546.897 45.9229V79.0015L535.857 90H514.898ZM493.648 34.9243H511.993V90H493.648V34.9243ZM573.667 67.3804V90H555.323V34.9243H573.667V56.7554H591.224V67.3804H573.667ZM576.573 45.5908V34.9243H605.252V50.8618H587.986V45.5908H576.573ZM576.573 90V79.0015H586.907V73.4814H605.252V90H576.573Z" fill="black"/>
<path d="M131.519 51.7827H150.61V92H131.519V51.7827ZM117.158 36.9243H164.971V48.9189H117.158V36.9243ZM200.747 85.9819H182.734L186.553 75.0664H196.514L181.78 36.9243H199.668L221.624 92H203.071L200.747 85.9819ZM177.837 92H160.115L179.788 39.4146L187.922 61.2871L177.837 92ZM232.954 51.7827H252.046V92H232.954V51.7827ZM218.594 36.9243H266.406V48.9189H218.594V36.9243ZM291.765 69.3804V92H273.42V36.9243H291.765V58.7554H309.321V69.3804H291.765ZM294.67 47.5908V36.9243H323.35V52.8618H306.084V47.5908H294.67ZM294.67 92V81.0015H305.005V75.4814H323.35V92H294.67ZM354.229 36.9243H373.735L388.511 61.4116L400.132 41.4897V69.2144L386.892 92L354.229 36.9243ZM402.83 92V36.9243H421.174V92H402.83ZM354.187 92V42.0293L371.328 70.7915V92H354.187ZM447.986 80.7939H454.875V92H440.764L429.6 81.0015V47.9229L440.764 36.9243H454.875V48.0889H447.986V80.7939ZM464.795 48.0889H457.781V36.9243H472.017L483.14 47.9229V81.0015L472.017 92H457.781V80.7939H464.795V48.0889ZM512.898 92V81.0015H526.511V47.9229H512.898V36.9243H533.857L544.897 47.9229V81.0015L533.857 92H512.898ZM491.648 36.9243H509.993V92H491.648V36.9243ZM571.667 69.3804V92H553.323V36.9243H571.667V58.7554H589.224V69.3804H571.667ZM574.573 47.5908V36.9243H603.252V52.8618H585.986V47.5908H574.573ZM574.573 92V81.0015H584.907V75.4814H603.252V92H574.573Z" fill="black" fill-opacity="0.15"/>
<path d="M39.9684 64.2703C39.9684 64.7229 39.771 65.153 39.428 65.4483L17.5682 84.2606C16.9176 84.8206 15.9361 84.747 15.3763 84.0964C14.8162 83.4458 14.8898 82.4645 15.5406 81.9044L36.0314 64.2703L15.5406 46.6361C14.89 46.076 14.8164 45.0945 15.3763 44.4441C15.9361 43.7935 16.9176 43.7199 17.5682 44.28L39.428 63.0922C39.771 63.3875 39.9684 63.8176 39.9684 64.2703Z" fill="#3342AA"/>
<path d="M33.9875 23.2834C32.1039 50.7609 32.1039 78.2387 33.9875 105.716C34.2935 110.18 37.7295 113.808 42.173 114.33C61.1138 116.557 80.0545 116.557 98.9953 114.33C103.439 113.808 106.875 110.18 107.181 105.716C109.064 78.2389 109.064 50.7611 107.181 23.2836C106.875 18.82 103.439 15.1919 98.9953 14.6696C80.0545 12.4435 61.1138 12.4435 42.173 14.6696C37.7295 15.1915 34.2935 18.8198 33.9875 23.2834Z" fill="#5766CB"/>
<path d="M107.326 103.538C107.28 104.263 107.231 104.989 107.181 105.716C106.873 110.178 103.437 113.807 98.9939 114.33C80.0543 116.556 61.1126 116.556 42.173 114.33C37.7297 113.807 34.2935 110.178 33.9879 105.716C33.9376 104.991 33.8895 104.267 33.8435 103.542C35.2674 106.317 37.9979 108.314 41.2538 108.698C60.807 110.995 80.3601 110.995 99.9133 108.698C103.169 108.314 105.902 106.315 107.326 103.538Z" fill="#3342AA"/>
<path d="M41.4405 28.0738C39.7644 52.3577 39.7644 76.6418 41.4405 100.926C41.6218 103.553 43.6269 105.697 46.2375 106.042C62.4685 108.183 78.6994 108.183 94.9304 106.042C97.541 105.697 99.5461 103.553 99.7274 100.926C101.404 76.6418 101.404 52.3577 99.7274 28.0737C99.5461 25.4468 97.541 23.3019 94.9304 22.9577C78.6994 20.8167 62.4685 20.8167 46.2375 22.9577C43.6271 23.3021 41.6218 25.4468 41.4405 28.0738Z" fill="#BED8FB"/>
<path d="M100.087 95.258C99.9784 97.1489 99.8569 99.0377 99.7272 100.926C99.5469 103.554 97.541 105.698 94.9298 106.042C78.6998 108.184 62.4677 108.184 46.2375 106.042C43.6263 105.698 41.6224 103.554 41.4403 100.926C41.3106 99.0356 41.1891 97.1448 41.0802 95.254C41.9241 96.8559 43.505 98.0139 45.3916 98.2629C62.187 100.478 78.9803 100.478 95.7757 98.2629C97.6603 98.0137 99.2413 96.858 100.087 95.258Z" fill="#9DC6FB"/>
<path d="M102.533 64.4998C102.533 76.7059 102.115 88.9121 101.278 101.033C101.047 104.389 98.4626 107.144 95.134 107.583C78.8439 109.732 62.3244 109.732 46.0345 107.583C42.7059 107.144 40.1218 104.389 39.8901 101.033C38.2167 76.7914 38.2167 52.2084 39.8901 27.9669C40.1218 24.6106 42.7059 21.8559 46.0345 21.417C62.3244 19.268 78.8439 19.268 95.134 21.417C98.4626 21.8559 101.047 24.6106 101.278 27.9669C102.115 40.0876 102.533 52.2937 102.533 64.4998ZM41.7435 64.4998C41.7435 76.6343 42.1593 88.769 42.9912 100.819C43.1215 102.706 44.5722 104.254 46.4409 104.501C62.461 106.614 78.7071 106.614 94.7272 104.501C96.5959 104.254 98.0466 102.706 98.1769 100.819C99.8406 76.7194 99.8406 52.2804 98.1769 28.181C98.0468 26.2938 96.5959 24.7454 94.7274 24.4987C78.7071 22.3854 62.4612 22.3854 46.4409 24.4987C44.5722 24.7452 43.1215 26.2938 42.9912 28.181C42.1593 40.2306 41.7435 52.3653 41.7435 64.4998Z" fill="#3342AA"/>
</svg>
