<svg id="a3805d40-3888-4369-8ed3-84138e2f0246" data-name="texte" xmlns="http://www.w3.org/2000/svg" xmlns:xlink="http://www.w3.org/1999/xlink" viewBox="0 0 470.33 67.41"><defs><style>.f46e9a3b-1a8f-4a90-b554-dfe9baeba6b1{stroke:#9def48;stroke-miterlimit:10;stroke-width:0.75px;fill:url(#f5b7bdb9-6876-446f-9cc5-f422624c03f2);}.be401bcd-8d59-498d-a024-407b9c050574{fill:#9def48;}</style><linearGradient id="f5b7bdb9-6876-446f-9cc5-f422624c03f2" x1="0.38" y1="33.7" x2="469.96" y2="33.7" gradientUnits="userSpaceOnUse"><stop offset="0" stop-color="#032c02"/><stop offset="1" stop-color="#207a09"/></linearGradient></defs><polygon class="f46e9a3b-1a8f-4a90-b554-dfe9baeba6b1" points="0.38 5.91 102.44 5.91 108.57 0.38 150.31 0.38 158.22 5.91 461.65 6.11 469.96 16 469.96 59.72 50.81 59.72 42.7 67.03 7.89 67.03 0.38 59.72 0.38 5.91"/><path class="be401bcd-8d59-498d-a024-407b9c050574" d="M80.52,35.35H57.77a14.88,14.88,0,0,0,1.89,5.29H62v3.49H57.78a15.1,15.1,0,0,1-3.54-8.78h-3.3V31.88h3.3a15,15,0,0,1,3.54-8.76h20.7a15.58,15.58,0,0,1,3.62,10.5ZM57.77,31.88H78.49a15.06,15.06,0,0,0-1.87-5.27h-17A14.72,14.72,0,0,0,57.77,31.88Z" transform="translate(-0.06 -0.03)"/><path class="be401bcd-8d59-498d-a024-407b9c050574" d="M87.85,38.28l-3.67,5.85H79.83l13.34-21h4l13.25,21h-4.29l-3.64-5.85Zm12.49-3.47-5.13-8.22L90,34.81Z" transform="translate(-0.06 -0.03)"/><path class="be401bcd-8d59-498d-a024-407b9c050574" d="M132,40.64h2.33a15.23,15.23,0,0,0,1.87-5.29H115.42a15.28,15.28,0,0,0,1.89,5.29h2.32v3.49h-4.19a15.18,15.18,0,0,1-3.55-8.78H108.6V31.88h3.29a15.09,15.09,0,0,1,3.55-8.76h20.7a15,15,0,0,1,3.54,8.78l-1.51.85V34.5l1.51.85a15.1,15.1,0,0,1-3.54,8.78H132Zm-16.53-8.76h20.73a15.06,15.06,0,0,0-1.87-5.27h-17A15.11,15.11,0,0,0,115.42,31.88Z" transform="translate(-0.06 -0.03)"/><path class="be401bcd-8d59-498d-a024-407b9c050574" d="M156.76,41.15l-3.49,3.49v-18H141.88V23.12h26.28v3.49h-11.4Z" transform="translate(-0.06 -0.03)"/><path class="be401bcd-8d59-498d-a024-407b9c050574" d="M171.94,35.35l-1.59-1.73A15.6,15.6,0,0,1,174,23.12h4.19v3.49h-2.31A14.72,14.72,0,0,0,174,31.88h20.73a15.09,15.09,0,0,0-1.88-5.27h-2.33V23.12h4.19a15.6,15.6,0,0,1,3.62,10.5,15.59,15.59,0,0,1-3.62,10.51H174a14.73,14.73,0,0,1-3.15-6.26h3.75a16.74,16.74,0,0,0,1.28,2.77h17a14.72,14.72,0,0,0,1.88-5.29Z" transform="translate(-0.06 -0.03)"/><path class="be401bcd-8d59-498d-a024-407b9c050574" d="M237.87,31.88c0,.57.07,1.15.07,1.74a15.58,15.58,0,0,1-3.62,10.51H213.63A15.58,15.58,0,0,1,210,33.62a15.53,15.53,0,0,1,3.62-10.5h20.69a14.51,14.51,0,0,1,3.15,6.26h-3.75a15.13,15.13,0,0,0-1.26-2.77h-17a14,14,0,0,0-2,7,14,14,0,0,0,2,7h17a15.25,15.25,0,0,0,1.88-5.29H221.68V31.88Z" transform="translate(-0.06 -0.03)"/><path class="be401bcd-8d59-498d-a024-407b9c050574" d="M246.7,38.28,243,44.13h-4.35l13.34-21h4l13.25,21H265l-3.63-5.85Zm12.48-3.47-5.12-8.22-5.18,8.22Z" transform="translate(-0.06 -0.03)"/><path class="be401bcd-8d59-498d-a024-407b9c050574" d="M282.24,26.61H275.5a14,14,0,0,0-2,7,14,14,0,0,0,2,7h2.31v3.49h-4.18A15.58,15.58,0,0,1,270,33.62a15.53,15.53,0,0,1,3.62-10.5h8.61V19.83h3.47v3.29h8.61a15.53,15.53,0,0,1,3.62,10.5,15.58,15.58,0,0,1-3.62,10.51h-4.19V40.64h2.33a14.11,14.11,0,0,0,2-7,14,14,0,0,0-2-7h-6.75V39.06h-3.47Z" transform="translate(-0.06 -0.03)"/><path class="be401bcd-8d59-498d-a024-407b9c050574" d="M322.2,35.35H307.7a14.88,14.88,0,0,0,1.89,5.29h17.25l2,3.49H307.71a15.1,15.1,0,0,1-3.54-8.78h-3.3V31.88h3.3a15,15,0,0,1,3.54-8.76h21.14l-2,3.49H309.59a14.72,14.72,0,0,0-1.89,5.27h14.5Z" transform="translate(-0.06 -0.03)"/></svg>