<svg height="409.9397" viewBox="0 0 105.1047 108.46321" width="397.24612" xmlns="http://www.w3.org/2000/svg"><g transform="matrix(.26517796 0 0 .26517796 66.75118 59.0008)"><path d="m39.047808 104.8667 84.011942.0176-12.62152 81.41714-62.424012.22389zm0 0 8.966401 81.65863 62.424021-.22389 12.62152-81.41714z" fill="#808080"/><path d="m-91.730316-221.56474h70.762062v36.230179h-70.762062z" fill="#a00" fill-rule="evenodd" stroke="#800000" stroke-width="1.86075"/><path d="m-102.84914-214.36626h98.605576v50.486057h-98.605576z" fill="#a00" fill-rule="evenodd" stroke="#800000" stroke-width="2.59292"/><path d="m-71.009528 168.79543-123.031252-.16348-2.38125-1.30476c-2.80002-1.53423-5.61063-3.66251-7.42212-5.62026l-1.29665-1.40137-23.21743-171.76406c-12.76958-94.47023-23.22013-172.23497-23.22343-172.81054-.003-.57557.11445-1.51565.26165-2.08905.14721-.5734.39211-1.9136.54422-2.97822.15212-1.06462.475-2.60902.71751-3.432.2425-.82298.42192-1.57136.39869-1.66306-.0232-.0917.527-1.3675 1.22272-2.83513 1.3919-2.93616 2.54268-4.17689 4.7043-5.07198.70017-.28993 1.92789-.85955 2.72825-1.26582l1.45521-.73869 185.690012.20039 185.690028.20039 2.67785 1.20336c1.47283.66183 3.04199 1.49176 3.48708 1.84425 2.05581 1.62825 3.58915 4.2714 5.41242 9.32985l1.08072 2.99832-1.44124 9.83437c-17.14125 116.963543-49.158078 334.90266-49.360218 335.99585-.22194 1.20031-.54425 1.76566-1.78642 3.13357-6.14561 6.76763-9.52905 7.6955-30.05389 8.24163-3.47271.0924-7.10411.20219-8.06979.24397-.96565.0417-57.1197805.003-124.78697-.0875z" stroke="#1a1a1a" stroke-width=".280999"/><path d="m-70.453031 162.85173-119.110639-.15827-2.30537-1.26318c-2.71079-1.48535-5.43184-3.5458-7.1856-5.44117l-1.25533-1.3567-22.47756-166.29068c-12.36266-91.45965-22.48018-166.7462-22.48338-167.30343-.003-.55723.11081-1.46735.25331-2.02248.14252-.55512.37962-1.85262.52688-2.88331.14727-1.03069.45987-2.52588.69465-3.32264.23477-.79675.40847-1.52128.38598-1.61005-.0225-.0888.51021-1.32394 1.18376-2.74479 1.34754-2.8426 2.46165-4.04379 4.55439-4.91035.67785-.28069 1.86645-.83217 2.64131-1.22549l1.40883-.71515 179.772669.19401 179.772671.194 2.59252 1.16501c1.42589.64074 2.94505 1.44422 3.37596 1.78549 1.99029 1.57635 3.47477 4.13528 5.23994 9.03253l1.04628 2.90277-1.39531 9.52099c-16.59502 113.236097-47.591565 324.23038-47.787263 325.28872-.214868 1.16207-.526907 1.7094-1.729493 3.03372-5.949769 6.55196-9.225389 7.45027-29.096168 7.97899-3.362045.0894-6.877724.19576-7.812631.23619-.934878.0404-55.2995544.003-120.810406-.0847z" fill="#1a1a1a" stroke-width=".272045"/><path d="m-113.14077-163.8802c0 2.19393 1.77874 3.97269 3.97268 3.97269 2.19424 0 3.97298-1.77876 3.97298-3.97269 0-2.19423-1.77874-3.97298-3.97298-3.97298-2.19394 0-3.97268 1.77844-3.97268 3.97298zm115.2155437-3.97298c-2.19363205 0-3.973086 1.77875-3.973086 3.97298 0 2.19393 1.77915255 3.97269 3.973086 3.97269 2.1941337 0 3.9729835-1.77876 3.9729835-3.97269.0003032-2.19454-1.7785484-3.97298-3.9729835-3.97298zm-138.2588837 0c-2.19424 0-3.97297 1.77875-3.97297 3.97298 0 2.19393 1.77883 3.97269 3.97297 3.97269 2.19424 0 3.97309-1.77876 3.97309-3.97269 0-2.19454-1.77885-3.97298-3.97309-3.97298zm-18.27546 12.71343-4.76777-7.94597v7.94597h-9.53532v-30.19482h14.30278c4.76747 0 9.53504 3.17861 9.53504 9.53532s-4.76757 7.94607-6.35683 7.94607l7.94606 12.71373zm15.89173 0c-3.1785 0-6.35672-3.17851-6.35672-7.94597 0-5.41598 4.76748-6.35682 6.35672-6.3362.57904.007 2.70804-.0201 3.17852-.0201 3.1783 0 1.58924-3.1785 0-3.1785h-6.35672v-6.35703h12.71353c3.1785 0 4.37028 3.17851 4.37028 6.35703 0 3.1785.39709 17.48128.39709 17.48128zm41.319103 0h-12.713223c-9.53563 0-11.12458-7.94597-11.12458-12.71343 0-2.92347 1.58925-11.12489 11.12458-11.12489h3.1785v-6.35681h9.535313v30.19513zm11.124278 0h-7.946068v-23.83801h7.946068zm13.508005 0c-6.582704 0-11.91905-5.33605-11.91905-11.91896 0-6.58271 5.336346-11.91905 11.91905-11.91905 6.582603 0 11.918955 5.33634 11.918955 11.91905 0 6.58291-5.336352 11.91896-11.918955 11.91896zm40.524223-20.6595c-3.178509 0-4.767762 1.58926-4.767762 4.76776v6.35681c0 6.35671-1.588953 9.53523-14.302485 9.53523v-9.53523c3.178509 0 6.356715 0 6.356715-4.76756v-7.94597c0-3.17821 1.589255-7.94608 12.713532-7.94608zm23.8375047 20.6595h-9.5350217v-14.30279c0-1.58925-3.178509-1.58925-3.178509 0v14.30279h-7.946069v-30.19482h7.946069v7.94606c3.178509-3.17821 12.7135307-1.58925 12.7135307 4.76776zm7.94596975 0c-3.17850775 0-6.35671475-3.17851-6.35671475-7.94597 0-5.41598 4.767762-6.35682 6.35671475-6.3362.579044.007 2.70803505-.0201 3.17860905-.0201 3.1785084 0 1.5889522-3.1785 0-3.1785h-6.3568148v-6.35703h12.7132285c3.1785078 0 4.3705748 3.17851 4.3705748 6.35703 0 3.1785.397088 17.48128.397088 17.48128zm39.66038155-10.62626-8.356326-.007c-.672535-1.2382-1.985034-2.07892-3.493564-2.07892-2.193832 0-3.972985 1.77885-3.972985 3.97308 0 2.19384 1.779153 3.97269 3.972985 3.97269 1.531149 0 2.859933-.86556 3.523019-2.13462l7.292232-.00061c-1.893553 4.07612-6.024468 6.90299-10.815251 6.90299-6.582603 0-11.918954-5.33605-11.918954-11.91905 0-6.58261 5.33605-11.91896 11.918954-11.91896 6.582401 0 11.919054 5.33635 11.919054 11.91896.000301.43629-.02011.86756-.07037 1.29279zm12.782997 10.62626-3.178509-9.53493h-1.589254v9.53493h-6.356514v-30.19482h6.356716v12.71382h1.589355l3.178507-4.76776h7.945969l-4.767762 7.94597 6.356816 14.30279zm-210.567172-19.07055c-2.19425 0-3.97299 1.77885-3.97299 3.97299 0 2.19423 1.77874 3.97308 3.97299 3.97308 2.19393 0 3.97298-1.77885 3.97298-3.97308 0-2.19414-1.77905-3.97299-3.97298-3.97299zm85.816096 6.35712c-2.193932 0-3.973085 1.77875-3.973085 3.97298 0 2.19393 1.779153 3.97269 3.973085 3.97269 2.194133 0 3.972985-1.77876 3.972985-3.97269 0-2.19454-1.778852-3.97298-3.972985-3.97298z" stroke="#808080" stroke-width="1.779"/><g fill-rule="evenodd"><circle cx="-53.546356" cy="22.176189" fill="#333" r="120.29881" stroke="#000" stroke-width="3.3"/><circle cx="-53.546356" cy="24.527269" fill="#333" r="75.369751" stroke="#000" stroke-width="2.641"/><circle cx="-53.546356" cy="24.537058" fill="#333" r="71.881073" stroke="#000" stroke-width="2.51876"/><circle cx="-53.546356" cy="24.421932" fill="#333" r="68.004768" stroke="#000" stroke-width="2.38293"/><circle cx="-53.546356" cy="24.826185" fill="#333" r="63.740829" stroke="#000" stroke-width="2.23351"/><circle cx="-53.546356" cy="25.210814" fill="#333" r="59.864521" stroke="#000" stroke-width="2.09768"/><circle cx="-53.546356" cy="25.605238" fill="#4d4d4d" r="44.482052"/><circle cx="-53.546356" cy="26.519011" fill="#333" r="35.015915"/><circle cx="-53.546356" cy="26.394064" r="31.466114"/><circle cx="-53.546356" cy="25.843409" r="18.055756" stroke="#4d4d4d" stroke-width="2.03729"/></g></g></svg>