<svg height="318.46356" viewBox="0 0 118.78646 84.260154" width="448.9567" xmlns="http://www.w3.org/2000/svg"><g transform="matrix(.29223999 0 0 .29223999 23.93818 20.872014)"><path d="m95.717697 216.67099c-26.265856-.11631-61.090432-.35337-77.38792-.52682-33.129821-.3526-62.831432-.40223-77.100248-.12885-10.510202.20135-13.151493-.0482-16.049078-1.51654-2.802507-1.42014-5.024651-4.06427-5.888349-7.00658-1.201587-4.09335-1.27366-5.0769-1.172508-16.00059.0865-9.34081.157027-10.71821.589408-11.51062.270136-.49507.675625-.97091.901086-1.05743.225462-.0866 1.768528-.24831 3.429035-.35953l3.019102-.20225.197773-15.85774c.108787-8.72175.156379-18.90003.105797-22.61839l-.09199-6.76065-2.589183-.21841c-3.134708-.26443-3.705522-.48776-4.373396-1.71102-.484988-.88828-.52367-2.58231-.619447-27.12701-.108395-27.779281.412156-125.305614.811123-151.96457l.237778-15.888406.856785-1.804379c1.224392-2.578553 2.388956-4.036196 3.990866-4.995193l1.39779-.836814h195.195969 195.19594l1.32629.613336c1.93039.892682 4.46774 3.563222 5.53718 5.827876l.89811 1.901728.22221 15.678965c.12223 8.623436.18832 52.3806938.14686 97.238366l-.0754 81.559401-.60263 1.15075c-.51964.99235-.79683 1.19644-2.01381 1.48274-.77615.1826-2.20412.34443-3.17327.35961-1.73556.0272-1.76479.0411-1.94189.92664-.24229 1.21148-.18882 41.47875.0573 43.11716l.19444 1.29459 2.88271.1754c3.31221.20154 4.019.37341 4.35188 1.05823.13168.27087.28107 5.86506.33194 12.43153.09 11.60889.075 11.99869-.54218 14.09668-.84393 2.86882-1.97226 4.80624-3.81295 6.54707-2.59529 2.4545-2.63649 2.46563-9.97205 2.69395-8.25416.2569-151.81015.21524-214.471025-.0622z" fill="#1a1a1a" stroke-width=".287687"/><g fill-rule="evenodd"><path d="m-682.75434-512.81111-232.02067 2.74797-237.47319-.0169 113.6305-202.30978 118.75126-205.64939 118.39015 199.56181z" stroke-width="1.7" transform="matrix(.25612641 0 0 .13421231 356.31804 74.929929)"/><path d="m-682.75434-512.81111-232.02067 2.74797-237.47319-.0169 113.6305-202.30978 118.75126-205.64939 118.39015 199.56181z" fill="#4d4d4d" stroke-width="1.7" transform="matrix(.2391043 0 0 .12529258 340.70022 69.136163)"/><path d="m-682.75434-512.81111-232.02067 2.74797-237.47319-.0169 113.6305-202.30978 118.75126-205.64939 118.39015 199.56181z" fill="#1a1a1a" stroke-width="1.7" transform="matrix(.22906056 0 0 .12002957 331.48509 65.598782)"/><rect height="183.88162" ry="13.98178" stroke-width=".408768" width="351.16684" x="-54.2617" y="31.958941"/><path d="m-54.261688 52.672455h351.16684v163.16811h-351.16684z" stroke-width=".385057"/><rect fill="#1a1a1a" height="179.76170149009" ry="13.66851293519" stroke-width=".40148738304" width="346.53376758399" x="-51.94515585538" y="34.38496495653"/><path d="m-51.49271326865 51.21801644119h345.62888675982v162.09594783674h-345.62888675982z" fill="#1a1a1a" stroke-width=".38075105183"/><rect fill="#b3b3b3" height="174.30316" ry="13.253462" stroke-width=".389295" width="336.01111" x="-46.683819" y="39.843517"/><path d="m-46.541298 56.364201h335.7088v159.6945h-335.7088z" fill="#b3b3b3" stroke-width=".372459"/></g><g transform="matrix(13.271652 0 0 13.271652 -790.34191 -4648.4882)"><g stroke-width=".029644"><path d="m57.389595 360.51324h7.113798v1.58085h-7.113798z" fill="#ce2027"/><path d="m65.135638 360.51324h7.113767v1.58085h-7.113767z" fill="#0f7c3e"/><path d="m72.881739 360.51324h7.113768v1.58085h-7.113768z" fill="#233d98"/></g><g transform="matrix(.02964391 0 0 .02964391 27.499433 354.0873)"><path d="m1141.032 112.394h78.116v15.623h-31.246v54.682h-15.624v-54.682h-31.246z"/><path d="m1254.104 155.357v27.341h-15.623v-70.305h54.681c15.624 0 23.436 7.135 23.436 21.404 0 6.771-1.12 11.744-3.358 14.92 2.238 3.698 3.358 8.515 3.358 14.452v19.529h-15.623v-19.529c0-5.208-2.604-7.812-7.813-7.812zm0-15.623h46.869v-11.718h-46.869z"/><path d="m1431.596 155.357v-11.717h26.988v11.717z"/><path d="m1553.785 128.017h-62.025v11.718h39.061c15.623 0 23.435 7.161 23.435 21.482 0 14.322-7.812 21.482-23.435 21.482h-31.247c-13.228 0-20.856-5.207-22.888-15.624h61.945v-11.717h-39.059c-15.623 0-23.436-7.056-23.436-21.169 0-14.53 7.813-21.794 23.436-21.794h31.247c13.331-.001 20.988 5.207 22.966 15.622zm-77.099 39.058c-.366-1.875-.547-3.931-.547-6.171 0-5.52 1.196-9.972 3.592-13.358 3.75 5.208 10.363 7.812 19.843 7.812h-7.813v11.717zm73.897-19.529c2.446-3.437 3.671-7.993 3.671-13.67 0-2.083-.156-4.036-.469-5.859h-15.154v11.718h-7.813c9.427-.001 16.015 2.603 19.765 7.811z"/><path d="m1566.867 159.264v-23.435c0-15.624 7.812-23.435 23.435-23.435h23.437c15.623 0 23.435 7.812 23.435 23.435v23.435c0 15.623-7.812 23.435-23.435 23.435h-23.437c-15.623-.001-23.435-7.812-23.435-23.435zm46.87 7.811c5.204 0 7.811-2.603 7.811-7.811v-23.435c0-5.208-2.604-7.812-7.811-7.812h-23.437c-5.209 0-7.812 2.604-7.812 7.812v23.435c0 5.208 2.603 7.811 7.812 7.811z"/><path d="m1333.125 159.36h20.171c0 5.042 2.837 8.51 6.775 8.51h36.327c2.836 0 3.781-2.049 3.781-4.886 0-2.836 1.26-8.981-4.412-8.981-5.674 0-38.848 0-44.363 0s-18.437-4.57-18.437-20.013 10.085-21.116 17.177-21.116h53.576c6.461 0 12.447 2.994 12.447 19.54-4.727 0-19.064 0-19.064 0 0-3.624-1.893-6.183-8.511-6.183-6.616 0-23.719 0-28.445 0-4.728 0-6.46.353-6.46 7.759s4.254 6.813 7.404 6.813h44.992c7.721 0 14.971 7.841 14.971 19.975 0 12.133-5.832 22.458-18.278 22.458-12.449 0-47.116 0-53.421 0-6.301.001-16.23-3.075-16.23-23.876z"/></g></g></g></svg>