<svg id="b4b5e2b1-8cf0-4bea-9d2e-75be4eea94a7" data-name="texte" xmlns="http://www.w3.org/2000/svg" xmlns:xlink="http://www.w3.org/1999/xlink" viewBox="0 0 470.33 67.41"><defs><style>.b652756b-38c4-4b55-9b7e-747b5e6b6707{stroke:#9def48;stroke-miterlimit:10;stroke-width:0.75px;fill:url(#aaeb8b87-1fcd-4d80-bb0b-50fe75d78185);}.ad38e532-5cba-476f-bbd5-5f20b4b8423b{fill:#9def48;}</style><linearGradient id="aaeb8b87-1fcd-4d80-bb0b-50fe75d78185" x1="0.38" y1="33.7" x2="469.96" y2="33.7" gradientUnits="userSpaceOnUse"><stop offset="0" stop-color="#032c02"/><stop offset="1" stop-color="#207a09"/></linearGradient></defs><polygon class="b652756b-38c4-4b55-9b7e-747b5e6b6707" points="0.38 5.91 102.44 5.91 108.57 0.38 150.31 0.38 158.22 5.91 461.65 6.11 469.96 16 469.96 59.72 50.81 59.72 42.7 67.03 7.89 67.03 0.38 59.72 0.38 5.91"/><path class="ad38e532-5cba-476f-bbd5-5f20b4b8423b" d="M69.47,41.27l-4,3.95V24.79H52.6V20.84H82.38v3.95H69.47Z" transform="translate(-0.06 -0.03)"/><path class="ad38e532-5cba-476f-bbd5-5f20b4b8423b" d="M109.26,40.69h2.64a17.22,17.22,0,0,0,2.13-6H90.53a17.08,17.08,0,0,0,2.15,6H95.3v4H90.55a17.15,17.15,0,0,1-4-9.94H82.8V30.76h3.73a17.06,17.06,0,0,1,4-9.92H114a17,17,0,0,1,4,9.94l-1.71,1v2l1.71,1a17.09,17.09,0,0,1-4,9.94h-4.75ZM90.53,30.76H114a17.06,17.06,0,0,0-2.13-6H92.68A16.91,16.91,0,0,0,90.53,30.76Z" transform="translate(-0.06 -0.03)"/><path class="ad38e532-5cba-476f-bbd5-5f20b4b8423b" d="M151.21,30.76l1.8,2a17.64,17.64,0,0,1-4.1,11.9H125.45a16.6,16.6,0,0,1-3.57-7.09h4.25a18.33,18.33,0,0,0,1.44,3.14H146.8a16.48,16.48,0,0,0,2.12-6H123.14l-1.79-2a17.62,17.62,0,0,1,4.1-11.9h23.46a16.79,16.79,0,0,1,3.57,7.08h-4.25a17.78,17.78,0,0,0-1.43-3.13H127.57a16.89,16.89,0,0,0-2.14,6Z" transform="translate(-0.06 -0.03)"/><path class="ad38e532-5cba-476f-bbd5-5f20b4b8423b" d="M170.31,44.64a17.09,17.09,0,0,1-4-9.94l1.71-1v-2l-1.71-1a17,17,0,0,1,4-9.94h23.45a17,17,0,0,1,4,9.94l-1.71,1v2l1.71,1a17.09,17.09,0,0,1-4,9.94Zm23.47-13.88a17.23,17.23,0,0,0-2.12-6H172.41a17,17,0,0,0-2.12,6Zm-2.12,9.93a17.4,17.4,0,0,0,2.12-6H170.29a17.2,17.2,0,0,0,2.12,6Z" transform="translate(-0.06 -0.03)"/><path class="ad38e532-5cba-476f-bbd5-5f20b4b8423b" d="M228.66,44.64H205.2a17.69,17.69,0,0,1-4.1-11.9,17.64,17.64,0,0,1,4.1-11.9h23.46a17.64,17.64,0,0,1,4.1,11.9A17.69,17.69,0,0,1,228.66,44.64Zm-2.11-4a16,16,0,0,0,2.26-7.95,15.87,15.87,0,0,0-2.26-8H207.33a15.8,15.8,0,0,0-2.28,8,15.89,15.89,0,0,0,2.28,7.95Zm-11.59-5v-6h3.94v6Z" transform="translate(-0.06 -0.03)"/><path class="ad38e532-5cba-476f-bbd5-5f20b4b8423b" d="M272.92,37.55h4.25a16.6,16.6,0,0,1-3.57,7.09H250.14a17.69,17.69,0,0,1-4.1-11.9,17.67,17.67,0,0,1,4.1-11.9H273.6a16.57,16.57,0,0,1,3.57,7.08h-4.25a17.08,17.08,0,0,0-1.43-3.13H252.27a15.8,15.8,0,0,0-2.28,8,15.89,15.89,0,0,0,2.28,7.95h19.22A17.8,17.8,0,0,0,272.92,37.55Z" transform="translate(-0.06 -0.03)"/><path class="ad38e532-5cba-476f-bbd5-5f20b4b8423b" d="M308.05,44.64H284.59a17.69,17.69,0,0,1-4.1-11.9,17.64,17.64,0,0,1,4.1-11.9h23.46a17.64,17.64,0,0,1,4.1,11.9A17.69,17.69,0,0,1,308.05,44.64Zm-2.11-4a16,16,0,0,0,2.26-7.95,15.87,15.87,0,0,0-2.26-8H286.72a15.8,15.8,0,0,0-2.28,8,15.89,15.89,0,0,0,2.28,7.95Z" transform="translate(-0.06 -0.03)"/><path class="ad38e532-5cba-476f-bbd5-5f20b4b8423b" d="M342.35,37.55h4.25A16.6,16.6,0,0,1,343,44.64H319.57a17.69,17.69,0,0,1-4.1-11.9,17.67,17.67,0,0,1,4.1-11.9H343a16.57,16.57,0,0,1,3.57,7.08h-4.25a17.78,17.78,0,0,0-1.43-3.13H321.7a15.8,15.8,0,0,0-2.28,8,15.89,15.89,0,0,0,2.28,7.95h19.22A18.55,18.55,0,0,0,342.35,37.55Z" transform="translate(-0.06 -0.03)"/><path class="ad38e532-5cba-476f-bbd5-5f20b4b8423b" d="M377.48,44.64H354a17.64,17.64,0,0,1-4.1-11.9,17.59,17.59,0,0,1,4.1-11.9h23.46a17.64,17.64,0,0,1,4.1,11.9A17.69,17.69,0,0,1,377.48,44.64Zm-2.11-4a16.06,16.06,0,0,0,2.26-7.95,16,16,0,0,0-2.26-8H356.14a15.89,15.89,0,0,0-2.27,8,16,16,0,0,0,2.27,7.95Z" transform="translate(-0.06 -0.03)"/></svg>