<svg id="fd4bd48f-78ec-4eee-a222-593978103f46" data-name="texte" xmlns="http://www.w3.org/2000/svg" xmlns:xlink="http://www.w3.org/1999/xlink" viewBox="0 0 470.33 67.41"><defs><style>.f1af5bd0-b31e-48f7-b783-b9a9bca7eea3{stroke:#9def48;stroke-miterlimit:10;stroke-width:0.75px;fill:url(#bf1a62b6-fc8e-4765-b20c-fe9c7245b14e);}.aa10cba5-aa9e-412f-90bf-0ab9843d66b2{fill:#9def48;}</style><linearGradient id="bf1a62b6-fc8e-4765-b20c-fe9c7245b14e" x1="0.38" y1="33.7" x2="469.96" y2="33.7" gradientUnits="userSpaceOnUse"><stop offset="0" stop-color="#032c02"/><stop offset="1" stop-color="#207a09"/></linearGradient></defs><polygon class="f1af5bd0-b31e-48f7-b783-b9a9bca7eea3" points="0.38 5.91 102.44 5.91 108.57 0.38 150.31 0.38 158.22 5.91 461.65 6.11 469.96 16 469.96 59.72 50.81 59.72 42.7 67.03 7.89 67.03 0.38 59.72 0.38 5.91"/><path class="aa10cba5-aa9e-412f-90bf-0ab9843d66b2" d="M80.52,34.25H57.77a14.88,14.88,0,0,0,1.89,5.29H62V43H57.78a15.1,15.1,0,0,1-3.54-8.77h-3.3V30.78h3.3A15,15,0,0,1,57.78,22h20.7a15.57,15.57,0,0,1,3.62,10.5ZM57.77,30.78H78.49a15.11,15.11,0,0,0-1.87-5.28h-17A14.77,14.77,0,0,0,57.77,30.78Z" transform="translate(-0.06 -0.03)"/><path class="aa10cba5-aa9e-412f-90bf-0ab9843d66b2" d="M89.17,39.54H105L107,43H85.69V25l3.48-3.49Z" transform="translate(-0.06 -0.03)"/><path class="aa10cba5-aa9e-412f-90bf-0ab9843d66b2" d="M117.2,37.18,113.52,43h-4.35l13.34-21h4l13.24,21h-4.29l-3.64-5.84Zm12.48-3.47-5.13-8.22-5.17,8.22Z" transform="translate(-0.06 -0.03)"/><path class="aa10cba5-aa9e-412f-90bf-0ab9843d66b2" d="M150.26,40.05l-3.49,3.48v-18h-11.4V22h26.28V25.5H150.26Z" transform="translate(-0.06 -0.03)"/><path class="aa10cba5-aa9e-412f-90bf-0ab9843d66b2" d="M183.35,34.25h-14.5a14.88,14.88,0,0,0,1.89,5.29H188L190,43H168.86a15.1,15.1,0,0,1-3.54-8.77H162V30.78h3.3A15,15,0,0,1,168.86,22H190l-2,3.48H170.74a14.77,14.77,0,0,0-1.89,5.28h14.5Z" transform="translate(-0.06 -0.03)"/><path class="aa10cba5-aa9e-412f-90bf-0ab9843d66b2" d="M200.22,37.18,196.55,43H192.2l13.34-21h4L222.8,43h-4.3l-3.63-5.84Zm12.48-3.47-5.12-8.22-5.18,8.22Z" transform="translate(-0.06 -0.03)"/><path class="aa10cba5-aa9e-412f-90bf-0ab9843d66b2" d="M229,39.54h17a14.11,14.11,0,0,0,2-7,14.13,14.13,0,0,0-2-7h-2.33V22h4.19a15.55,15.55,0,0,1,3.62,10.5A15.52,15.52,0,0,1,247.84,43H227.15a15.52,15.52,0,0,1-3.62-10.5A15.55,15.55,0,0,1,227.15,22h4.19V25.5H229a14,14,0,0,0-2,7A14,14,0,0,0,229,39.54Z" transform="translate(-0.06 -0.03)"/></svg>