<svg id="fed49f9f-34fe-46ad-8c82-47504ebe8c38" data-name="texte" xmlns="http://www.w3.org/2000/svg" xmlns:xlink="http://www.w3.org/1999/xlink" viewBox="0 0 470.33 67.41"><defs><style>.a132cfd9-4395-4333-a2b5-c5dbf495734c{stroke:#9def48;stroke-miterlimit:10;stroke-width:0.75px;fill:url(#eef1e270-828f-4094-b846-54137a48bee7);}.a0b64798-0d80-40e9-99cd-acfe97ea1ab7{fill:#9def48;}</style><linearGradient id="eef1e270-828f-4094-b846-54137a48bee7" x1="0.38" y1="33.7" x2="469.96" y2="33.7" gradientUnits="userSpaceOnUse"><stop offset="0" stop-color="#032c02"/><stop offset="1" stop-color="#207a09"/></linearGradient></defs><polygon class="a132cfd9-4395-4333-a2b5-c5dbf495734c" points="0.38 5.91 102.44 5.91 108.57 0.38 150.31 0.38 158.22 5.91 461.65 6.11 469.96 16 469.96 59.72 50.81 59.72 42.7 67.03 7.89 67.03 0.38 59.72 0.38 5.91"/><path class="a0b64798-0d80-40e9-99cd-acfe97ea1ab7" d="M74.93,39.91h2.25A14.66,14.66,0,0,0,79,34.79H59a14.72,14.72,0,0,0,1.83,5.12H63v3.37H59a14.67,14.67,0,0,1-3.43-8.49H52.36V31.44h3.18A14.61,14.61,0,0,1,59,23H79a14.54,14.54,0,0,1,3.42,8.48L81,32.28V34l1.45.82A14.6,14.6,0,0,1,79,43.28h-4ZM59,31.44H79a14.5,14.5,0,0,0-1.81-5.1H60.78A14.55,14.55,0,0,0,59,31.44Z" transform="translate(-0.06 -0.03)"/><path class="a0b64798-0d80-40e9-99cd-acfe97ea1ab7" d="M113.83,34.79h-22a14.72,14.72,0,0,0,1.83,5.12H95.9v3.37H91.85a14.67,14.67,0,0,1-3.43-8.49H85.24V31.44h3.18A14.61,14.61,0,0,1,91.85,23h20a15.05,15.05,0,0,1,3.49,10.16Zm-22-3.35h20a14.5,14.5,0,0,0-1.81-5.1H93.66A14.55,14.55,0,0,0,91.83,31.44Z" transform="translate(-0.06 -0.03)"/><path class="a0b64798-0d80-40e9-99cd-acfe97ea1ab7" d="M145.05,31.44c0,.55.07,1.11.07,1.69a15.09,15.09,0,0,1-3.5,10.15h-20a15.08,15.08,0,0,1-3.49-10.15A15.05,15.05,0,0,1,121.61,23h20a14.22,14.22,0,0,1,3,6.05H141a14.83,14.83,0,0,0-1.22-2.68H123.43a13.49,13.49,0,0,0-1.94,6.79,13.53,13.53,0,0,0,1.94,6.78h16.39a14.69,14.69,0,0,0,1.82-5.12H129.4V31.44Z" transform="translate(-0.06 -0.03)"/><path class="a0b64798-0d80-40e9-99cd-acfe97ea1ab7" d="M167.11,43.28h-4.05a14.67,14.67,0,0,1-3.43-8.49h-3.18V31.44h3.18A14.61,14.61,0,0,1,163.06,23h20.43l-1.94,3.37H164.87a14.33,14.33,0,0,0-1.82,5.1h14v3.35h-14a14.49,14.49,0,0,0,1.82,5.12h2.24Z" transform="translate(-0.06 -0.03)"/><path class="a0b64798-0d80-40e9-99cd-acfe97ea1ab7" d="M189.7,43.28h-3.37V25.85l3.37-3.37Z" transform="translate(-0.06 -0.03)"/><path class="a0b64798-0d80-40e9-99cd-acfe97ea1ab7" d="M216.51,39.91h2.26a14.87,14.87,0,0,0,1.81-5.12h-20a14.72,14.72,0,0,0,1.83,5.12h2.24v3.37h-4.05a14.54,14.54,0,0,1-3.43-8.49h-3.19V31.44h3.19A14.48,14.48,0,0,1,200.56,23h20A14.49,14.49,0,0,1,224,31.45l-1.46.83V34l1.46.82a14.54,14.54,0,0,1-3.43,8.49h-4.05Zm-16-8.47h20a14.7,14.7,0,0,0-1.81-5.1h-16.4A14.55,14.55,0,0,0,200.54,31.44Z" transform="translate(-0.06 -0.03)"/><path class="a0b64798-0d80-40e9-99cd-acfe97ea1ab7" d="M252.3,31.44l1.53,1.69a15.07,15.07,0,0,1-3.5,10.15h-20a14.09,14.09,0,0,1-3-6.05h3.62a15.62,15.62,0,0,0,1.23,2.68h16.4a14.14,14.14,0,0,0,1.81-5.12h-22l-1.53-1.66A15.1,15.1,0,0,1,230.32,23h20a14.09,14.09,0,0,1,3,6.05h-3.62a14.83,14.83,0,0,0-1.22-2.68h-16.4a14.33,14.33,0,0,0-1.82,5.1Z" transform="translate(-0.06 -0.03)"/><path class="a0b64798-0d80-40e9-99cd-acfe97ea1ab7" d="M270.34,40.4,267,43.77V26.34H256V23h25.4v3.37h-11Z" transform="translate(-0.06 -0.03)"/><path class="a0b64798-0d80-40e9-99cd-acfe97ea1ab7" d="M321.27,34.79h-22a14.52,14.52,0,0,0,1.83,5.12h2.23v3.37h-4a14.6,14.6,0,0,1-3.42-8.49h-3.19V31.44h3.19A14.54,14.54,0,0,1,299.29,23h20a15.06,15.06,0,0,1,3.5,10.16Zm-22-3.35h20a14.52,14.52,0,0,0-1.82-5.1H301.11A14.36,14.36,0,0,0,299.28,31.44Z" transform="translate(-0.06 -0.03)"/><path class="a0b64798-0d80-40e9-99cd-acfe97ea1ab7" d="M328.37,37.63l-3.56,5.65h-4.2L333.51,23h3.88l12.8,20.31H346l-3.51-5.65Zm12.06-3.36-5-7.94-5,7.94Z" transform="translate(-0.06 -0.03)"/><path class="a0b64798-0d80-40e9-99cd-acfe97ea1ab7" d="M371,39.91h2.25a14.66,14.66,0,0,0,1.81-5.12H355a14.72,14.72,0,0,0,1.83,5.12h2.24v3.37H355a14.61,14.61,0,0,1-3.43-8.49h-3.18V31.44h3.18A14.55,14.55,0,0,1,355,23h20a14.54,14.54,0,0,1,3.42,8.48l-1.45.83V34l1.45.82A14.6,14.6,0,0,1,375,43.28H371Zm-16-8.47h20a14.5,14.5,0,0,0-1.81-5.1h-16.4A14.55,14.55,0,0,0,355,31.44Z" transform="translate(-0.06 -0.03)"/><path class="a0b64798-0d80-40e9-99cd-acfe97ea1ab7" d="M395,40.4l-3.37,3.37V26.34h-11V23H406v3.37H395Z" transform="translate(-0.06 -0.03)"/><path class="a0b64798-0d80-40e9-99cd-acfe97ea1ab7" d="M409.64,34.79l-1.52-1.66A15.09,15.09,0,0,1,411.61,23h4.05v3.37h-2.23a14.16,14.16,0,0,0-1.83,5.1h20a14.5,14.5,0,0,0-1.81-5.1h-2.25V23h4.05a15.1,15.1,0,0,1,3.5,10.16,15.07,15.07,0,0,1-3.5,10.15h-20a14.21,14.21,0,0,1-3-6.05h3.62a15.68,15.68,0,0,0,1.24,2.68h16.39a14.14,14.14,0,0,0,1.81-5.12Z" transform="translate(-0.06 -0.03)"/></svg>