<?xml version="1.0" encoding="utf-8"?>
<!-- Generator: Adobe Illustrator 24.1.2, SVG Export Plug-In . SVG Version: 6.00 Build 0)  -->
<svg version="1.1" xmlns="http://www.w3.org/2000/svg" xmlns:xlink="http://www.w3.org/1999/xlink" x="0px" y="0px"
	 viewBox="0 0 746.5 822.2" style="enable-background:new 0 0 746.5 822.2;" xml:space="preserve">
<style type="text/css">
	.st0{opacity:0.5;fill:#373735;enable-background:new    ;}
	.st1{fill:#373735;}
	.st2{fill:#121211;stroke:#B5B5B5;stroke-width:0.5;stroke-miterlimit:10;}
	.st3{fill:#443840;stroke:#090000;stroke-width:0.75;stroke-miterlimit:10;}
	.st4{fill:#6B0C05;stroke:#090000;stroke-width:0.5;stroke-miterlimit:10;}
	.st5{fill:#86382F;}
	.st6{fill:#8B8B8B;stroke:#090000;stroke-width:0.75;stroke-miterlimit:10;}
	.st7{stroke:#373737;stroke-miterlimit:10;}
	.st8{fill:#E94B46;}
	.st9{fill:#BF0000;stroke:#B5B5B5;stroke-width:0.5;stroke-miterlimit:10;}
	.st10{fill:#DC6E05;stroke:#B5B5B5;stroke-width:0.5;stroke-miterlimit:10;}
	.st11{fill:#3A459A;}
	.st12{fill:#12E600;stroke:#B5B5B5;stroke-width:0.5;stroke-miterlimit:10;}
	.st13{fill:#0B47CE;stroke:#B5B5B5;stroke-width:0.5;stroke-miterlimit:10;}
	.st14{fill:#FFFFFF;}
	.st15{fill:#282826;stroke:#B5B5B5;stroke-width:0.5;stroke-miterlimit:10;}
	.st16{fill:#151312;}
	.st17{fill:#555353;}
	.st18{fill:#008AA6;}
	.st19{fill:#373735;stroke:#B5B5B5;stroke-miterlimit:10;}
	.st20{fill:#282826;}
	.st21{fill:#AE7A82;}
	.st22{fill:url(#SVGID_1_);}
	.st23{fill:url(#SVGID_2_);}
	.st24{fill:url(#SVGID_3_);}
	.st25{fill:url(#SVGID_4_);}
	.st26{fill:#0000EF;}
	.st27{fill:url(#SVGID_5_);}
	.st28{fill:url(#SVGID_6_);}
	.st29{fill:url(#SVGID_7_);}
	.st30{fill:url(#SVGID_8_);}
	.st31{fill:url(#SVGID_9_);}
	.st32{fill:url(#SVGID_10_);}
	.st33{fill:#930303;}
	.st34{fill:url(#SVGID_11_);}
	.st35{fill:url(#SVGID_12_);}
	.st36{fill:url(#SVGID_13_);}
	.st37{fill:url(#SVGID_14_);}
	.st38{fill:url(#SVGID_15_);}
	.st39{fill:url(#SVGID_16_);}
	.st40{fill:#E7E7E7;}
	.st41{fill:#2C2B29;}
	.st42{fill:#2785DB;}
	.st43{fill:#44C047;}
	.st44{fill:#EB1416;}
	.st45{stroke:#000000;stroke-width:2;stroke-linecap:round;stroke-miterlimit:33.3909;}
	.st46{fill:#0099CC;stroke:#000000;stroke-width:2;stroke-linecap:round;stroke-miterlimit:33.3909;}
	.st47{fill:#00FF00;stroke:#000000;stroke-width:2;stroke-linecap:round;stroke-miterlimit:33.3909;}
	.st48{fill:#FFFFFF;stroke:#000000;stroke-width:2;stroke-linecap:round;stroke-miterlimit:33.3909;}
</style>
<g id="Calque_1">
	<g id="adc57691-b68e-42f7-bd47-5a6910724f6e">
		<path id="a2115b91-34f1-4b7d-9285-cdd6904dacf7" class="st0" d="M452,588.8l21.5-5.9h11.9l1.6,3l237.4,43.3h11.1l11.1,31.4
			l-46.4,37.7l-46.4,13.2l-8.2-1.3l0.3-1.8l-14-2.6l-83.6,28l-73.3,51.6L452,792l-7.8-1.2v-2.6l-16.1-3l-130,34.4L452,588.8
			L452,588.8z"/>
		<g id="b42a3f03-70c3-4a2c-9662-915c634c9868">
			<path class="st1" d="M36,454.6l224.9,39.6v4.4l25.7,6.1L286.2,816L38,768.7L36,454.6z"/>
			<path class="st2" d="M201,526l-78.4-13.7c-3,0.2-4.3,3.6-4.3,3.6l0.2,85c0.7,2.2,3.9,5,3.9,5l74.3,13.5c5.1,0.5,7.5-5.3,7.5-5.3
				v-82.7C204,529.2,202.9,527.2,201,526z M151.1,548.6l-18.7-3.5v-20l2.3-1.9l18.1,3.1L151,529L151.1,548.6z M182.6,554.7
				l-18.7-3.5v-20l2.3-1.9l18.1,3.1l-1.8,2.7L182.6,554.7z"/>
			<path class="st3" d="M134.7,523.3l-2.3,1.9v20l18.7,3.5L151,529l1.8-2.7L134.7,523.3L134.7,523.3z M166.1,529.4l-2.3,1.9v20
				l18.7,3.5l-0.1-19.6l1.8-2.7L166.1,529.4L166.1,529.4z"/>
			<path class="st4" d="M140.1,543v-12.8l8,1.8v12.6L140.1,543L140.1,543z M171.2,548.9V536l8,1.8v12.6L171.2,548.9L171.2,548.9z"/>
			<path d="M135.2,543.2v-15.2l2.1,0.4v15.2L135.2,543.2z M166.7,548.7v-15.2l2,0.4V549L166.7,548.7z"/>
			<path class="st5" d="M140.4,530.7v-0.3l7.5,1.8l0,0.4L140.4,530.7z M171.5,536.6v-0.3l7.5,1.6l0,0.3L171.5,536.6z"/>
			<circle class="st6" cx="192.4" cy="574.8" r="4.3"/>
			<path class="st7" d="M136.3,598.7v-11.3l12,2.2v11.3L136.3,598.7L136.3,598.7z M167.5,604.3V593l12,2.2V606L167.5,604.3
				L167.5,604.3z"/>
		</g>
		<g id="e4788904-777b-411d-9f66-b5ab5d4166a4">
			<path class="st8" d="M10.5,450.1l-0.8-39.8L0,407.1v45.1l27.9,5.5c0.6,103.5,1,207.6,1.6,311.1c0.9,1.1,2.1,1.9,3.5,2.2
				c1.6,0.3,3.4,0.3,5,0l-2-316.6L10.5,450.1z M271.4,496.5v-41.3l-10.3-1.2l-0.2,44.5l25.7,6.1c0,0-1.5,313.8,0,315.7
				s8.8,1.3,8.8,1.3l0.9-319.9L271.4,496.5z"/>
			<path class="st8" d="M78.7,346.4l-8.2-1.3l16.3-218.6l9,1.5L78.7,346.4L78.7,346.4z M329.2,388.9l9.1,1.3l18.5-224.3h-26.4
				l-0.3-90.9l-10.1-1.8v94.8l6,1.1h20.3L329.2,388.9z"/>
			<path class="st8" d="M87.5,126.7c0,0-28.2-0.3-29.1-0.8c0-31.2,0.1-62.8,0-94l9.4,2.6l0.5,89L87.5,126.7z"/>
			<g id="f83cddbd-5d12-4049-9bba-b8c68db0049c">
				<path class="st8" d="M0,407.1l9.7,3.2L78,346.3l-8.1-1.9L0,407.1z M261.1,454l10.3,1.2l67-65.9l-8.6-1.6L261.1,454z M111.6,0
					L58.4,31.8l9.4,2.6l52.6-31.1l2.7-1.6l-2.6-0.4L111.6,0z M383.7,40.6l-11.2-0.8l-52.4,33.2l10.1,1.8L383.7,40.6L383.7,40.6z"/>
			</g>
		</g>
		<g id="f5b309d1-f765-4d7f-b147-7fbe2c79a36e">
			<path class="st2" d="M453.1,308.6l0.6-159.6l-70-108.4l-53.5,34.3l0.3,90.9h26.4l-18.5,224.3l-67,65.1v41.3l24.9,5.3l-0.9,319.9
				l8.3-6.3l149.6-543.7l-0.2,21.5L311,809.7l-1.6,1.2l6.9-5.3L453.1,308.6L453.1,308.6z M324.1,799.2l-7.8,6.5l12-9.2L453,343.2
				l0-12.1L324.1,799.2z M335.4,791l-1.3,1l6.9-5.3l111.8-407.6v21.3l0.2-57.1l-0.2,24L335.4,791z M343,785.2l108.6-83.3l1.2-299.9
				L347.4,781.8L343,785.2z"/>
			<path class="st9" d="M303.6,815.3l5.7-4.4L303.6,815.3z"/>
			<path class="st8" d="M453.1,293.2l0.2-21.5L303.6,815.3l5.7-4.4l1.6-1.2L453.1,293.2L453.1,293.2z"/>
			<path class="st10" d="M453.1,330.7v-22.1l-0.1,22.4L453.1,330.7z"/>
			<path class="st11" d="M453,331.1l0.1-22.4l-136.8,497l7.8-6.5L453,331.1L453,331.1z"/>
			<path class="st12" d="M328.3,796.4l5.8-4.5L328.3,796.4z"/>
			<path d="M334.1,792l1.3-1l117.3-423.8l0.2-24L328.3,796.4L334.1,792L334.1,792z"/>
			<path class="st13" d="M341,786.7l2-1.5L341,786.7z M452.8,402v-1.7V402L452.8,402z"/>
			<path class="st14" d="M341,786.7l2-1.5l4.4-3.4L452.8,402l0-1.7v-21.3L341,786.7z"/>
		</g>
		<g id="faf2f235-0930-4d3e-80ab-e31c335dd9f1">
			<path class="st15" d="M10.5,450.1l250.4,44.1l0.2-40.2L9.7,410.3L10.5,450.1z"/>
			<path class="st1" d="M79.4,345.2L9.7,410.3L261.1,454l68.6-66.3C329.7,387.7,79.4,345.2,79.4,345.2z"/>
		</g>
		<g id="b9e21801-d8bc-45df-bcf8-02b826b308c5">
			<path class="st15" d="M95.9,128.8L78.7,347.2l250.5,42.4l17.6-222.2L95.9,128.8z M320.1,196.6c0,0.2-0.3,0.3-0.5,0.5l-10.4,144.8
				c-1.3,1.4-2.8,2.6-4.3,3.8l1.4,0.3v10.7c0,0-1.4,4.8-11.1,2.6c-11.2-2.4-178.5-31.9-178.5-31.9l8.7-6.8v-1.4c0,0-2.5,0.5-6-7
				l-12.5,2.8h-4l11.3-158.8c0,0,4-6.9,10.8-6.6c6.8,0.3,191.2,30.6,191.2,30.6S322.4,181.3,320.1,196.6L320.1,196.6z"/>
			<path class="st16" d="M316.3,179.5c0,0-184.3-30.3-191.2-30.6c-6.9-0.3-10.8,6.6-10.8,6.6l-11.7,160.1h4.3l12.3-2.7
				c-0.1-0.2-0.7-1.6-0.8-1.8L130,166c0,0,2.1-5.5,7.1-7.4l177.5,27.2c2.6,2.7,4.3,6.1,5.1,9.8l0,0.8c0.2-0.2,0.6,0.7,0.7,0.5
				C323.6,182.7,316.3,179.5,316.3,179.5L316.3,179.5z"/>
			<path class="st17" d="M124.3,319.5l-8.6,8c0,0,164.6,29.3,178.6,32.2c10.4,2.2,14.4-3.6,14.4-3.6l0.6-7.4l0.4-7.7l-4.9,3.8
				c-2.3,1.8-4.9,3.1-7.7,3.9L124.3,319.5z"/>
			<path class="st18" d="M318.5,197.3c0.5-0.4,0.8-0.7,1.1-1l0.7-0.5c-0.9-3.8-2.9-7.3-5.7-10l-177.5-27.1c-5,1.8-7.1,7.4-7.1,7.4
				l-11.6,145.1l0.3,0.7c3.5,7.5,6.3,8,6.3,8l0.4,0.1l171.8,28.9c2.8-0.7,5.5-2.1,7.7-3.9c2.6-1.9,4.9-3.8,4.9-3.8l10.5-145.3
				C319.9,196.2,319.3,196.7,318.5,197.3L318.5,197.3z"/>
		</g>
		<g id="b33d15d7-af17-4269-b0f8-2cf8739cb0a9">
			<path id="bafa277a-8baa-4356-8028-e5dcef560208" class="st15" d="M68.2,123.5l251.5,39l0.4-89.5L67.8,34.4L68.2,123.5z"/>
			<path class="st19" d="M128.8,2.6l-5.7-1L67.8,34.4l252.4,38.6l52.4-33.2L128.8,2.6z"/>
		</g>
		<g id="a2240b1b-787e-43d9-a686-9c564343bcd0">
			<path class="st20" d="M67.9,376.8v5.2h-6.5v-5.2c-5.1,0.6-8.8,2.7-8.8,5.2c0,3,5.4,5.4,12,5.4s12-2.4,12-5.4
				C76.7,379.5,73,377.4,67.9,376.8z"/>
			<path class="st21" d="M67.9,376.8V359c-1,0.3-2,0.4-3,0.4c-1.2,0-2.3-0.2-3.5-0.5v17.9C63.6,376.5,65.8,376.5,67.9,376.8
				L67.9,376.8z"/>
			<path class="st21" d="M67.9,381.9v-5.2c-2.2-0.3-4.4-0.3-6.5,0v5.2H67.9z"/>
			
				<radialGradient id="SVGID_1_" cx="65.875" cy="475.23" r="11.4679" gradientTransform="matrix(1 0 0 -1 -0.98 823.48)" gradientUnits="userSpaceOnUse">
				<stop  offset="0" style="stop-color:#FD6D66"/>
				<stop  offset="0.78" style="stop-color:#B50A03"/>
			</radialGradient>
			<path class="st22" d="M67.9,358.4v0.6c5-1.1,8.7-5.6,8.8-10.7c0-6.1-5.3-11.1-11.8-11.1s-11.8,5-11.8,11.1
				c0.1,5,3.5,9.3,8.3,10.6v-0.5H67.9z"/>
			<path class="st21" d="M67.9,359v-0.6h-6.5v0.5c1.1,0.3,2.3,0.5,3.5,0.5C65.9,359.4,66.9,359.2,67.9,359L67.9,359z"/>
			
				<radialGradient id="SVGID_2_" cx="65.88" cy="475.23" r="11.47" gradientTransform="matrix(1 0 0 -1 -0.98 823.48)" gradientUnits="userSpaceOnUse">
				<stop  offset="0" style="stop-color:#FD6D66"/>
				<stop  offset="0.78" style="stop-color:#B50A03"/>
			</radialGradient>
			<path class="st23" d="M67.9,359v-0.6h-6.5v0.5c1.1,0.3,2.3,0.5,3.5,0.5C65.9,359.4,66.9,359.2,67.9,359L67.9,359z"/>
		</g>
		<g id="fcd0d3ae-30db-4a6b-bcc7-bf09ae7bb9dc">
			<path class="st20" d="M197.9,399v5.2h-6.5V399c-5,0.6-8.8,2.7-8.8,5.2c0,3,5.4,5.4,12,5.4s12-2.4,12-5.4
				C206.7,401.7,203,399.6,197.9,399z"/>
			<path class="st21" d="M197.9,399v-17.8c-1,0.3-2,0.4-3,0.4c-1.2,0-2.3-0.2-3.5-0.5V399C193.6,398.7,195.8,398.7,197.9,399
				L197.9,399z"/>
			<path class="st21" d="M197.9,404.1V399c-2.2-0.3-4.4-0.3-6.5,0v5.2H197.9z"/>
			
				<radialGradient id="SVGID_3_" cx="195.825" cy="453.01" r="11.4682" gradientTransform="matrix(1 0 0 -1 -0.98 823.48)" gradientUnits="userSpaceOnUse">
				<stop  offset="0" style="stop-color:#FD6D66"/>
				<stop  offset="0.78" style="stop-color:#B50A03"/>
			</radialGradient>
			<path class="st24" d="M197.9,380.6v0.6c5-1.1,8.7-5.5,8.8-10.7c0-6.1-5.3-11.1-11.8-11.1s-11.8,5-11.8,11.1
				c0.1,5,3.5,9.3,8.3,10.6v-0.5L197.9,380.6z"/>
			<path class="st21" d="M197.9,381.2v-0.6h-6.5v0.5c1.1,0.3,2.3,0.5,3.5,0.5C195.9,381.6,196.9,381.4,197.9,381.2L197.9,381.2z"/>
			
				<radialGradient id="SVGID_4_" cx="195.83" cy="453.01" r="11.47" gradientTransform="matrix(1 0 0 -1 -0.98 823.48)" gradientUnits="userSpaceOnUse">
				<stop  offset="0" style="stop-color:#FD6D66"/>
				<stop  offset="0.78" style="stop-color:#B50A03"/>
			</radialGradient>
			<path class="st25" d="M197.9,381.2v-0.6h-6.5v0.5c1.1,0.3,2.3,0.5,3.5,0.5C195.9,381.6,196.9,381.4,197.9,381.2L197.9,381.2z"/>
		</g>
		<g id="a91deb89-5713-4b6c-8559-fe300242065b">
			<g id="a40a1204-03cf-4a27-a179-63cede72a576">
				<path class="st26" d="M91.6,388.6c-3.9,0-8.1,1.5-8.1,4.9c0,3,4.1,4.6,7.9,4.6c4.1,0,8-1.7,8-4.9
					C99.3,390.9,95.5,388.6,91.6,388.6z M91.4,397.3c-3.9,0-7-1.7-7-3.9s3.1-3.9,7-3.9s7,1.7,7,3.9S95.2,397.3,91.4,397.3z"/>
				
					<radialGradient id="SVGID_5_" cx="92.36" cy="344.7867" r="5.66" gradientTransform="matrix(1 0 0 -0.6 -0.98 600.23)" gradientUnits="userSpaceOnUse">
					<stop  offset="0" style="stop-color:#0000EF"/>
					<stop  offset="0.15" style="stop-color:#0000E9"/>
					<stop  offset="0.34" style="stop-color:#0101D9"/>
					<stop  offset="0.56" style="stop-color:#0101BE"/>
					<stop  offset="0.79" style="stop-color:#02029A"/>
					<stop  offset="1" style="stop-color:#020282"/>
				</radialGradient>
				<path class="st27" d="M91.4,389.5c-3.9,0-7,1.7-7,3.9s3.1,3.9,7,3.9s7-1.7,7-3.9S95.2,389.5,91.4,389.5z"/>
			</g>
			<g id="b9c9aa76-ecd9-4ab8-9726-789db0a23cb1">
				<path class="st26" d="M113.8,388.6c-3.9,0-8.1,1.5-8.1,4.9c0,3,4.1,4.6,7.9,4.6c4.1,0,8-1.7,8-4.9
					C121.6,390.9,117.8,388.6,113.8,388.6z M113.6,397.3c-3.9,0-7-1.7-7-3.9s3.1-3.9,7-3.9s7,1.7,7,3.9S117.5,397.3,113.6,397.3z"/>
				
					<radialGradient id="SVGID_6_" cx="114.61" cy="430.12" r="5.6593" gradientTransform="matrix(1 0 0 -1 -0.98 823.48)" gradientUnits="userSpaceOnUse">
					<stop  offset="0" style="stop-color:#0000EF"/>
					<stop  offset="0.15" style="stop-color:#0000E9"/>
					<stop  offset="0.34" style="stop-color:#0101D9"/>
					<stop  offset="0.56" style="stop-color:#0101BE"/>
					<stop  offset="0.79" style="stop-color:#02029A"/>
					<stop  offset="1" style="stop-color:#020282"/>
				</radialGradient>
				<path class="st28" d="M113.6,389.5c-3.9,0-7,1.7-7,3.9s3.1,3.9,7,3.9s7-1.7,7-3.9S117.5,389.5,113.6,389.5z"/>
			</g>
			<g id="ef039329-bc18-4cf1-a2a7-ea60af13bfa7">
				<path class="st26" d="M132.4,394.8c-3.9,0-8.1,1.5-8.1,4.9c0,3,4.1,4.6,8,4.6c4.1,0,8-1.7,8-4.9
					C140.2,397,136.3,394.8,132.4,394.8z M132.2,403.4c-3.9,0-7-1.7-7-3.9s3.1-3.9,7-3.9s7,1.7,7,3.9S136,403.4,132.2,403.4z"/>
				
					<radialGradient id="SVGID_7_" cx="133.17" cy="338.6334" r="5.6573" gradientTransform="matrix(1 0 0 -0.6 -0.98 602.7)" gradientUnits="userSpaceOnUse">
					<stop  offset="0" style="stop-color:#0000EF"/>
					<stop  offset="0.15" style="stop-color:#0000E9"/>
					<stop  offset="0.34" style="stop-color:#0101D9"/>
					<stop  offset="0.56" style="stop-color:#0101BE"/>
					<stop  offset="0.79" style="stop-color:#02029A"/>
					<stop  offset="1" style="stop-color:#020282"/>
				</radialGradient>
				<path class="st29" d="M132.2,395.6c-3.9,0-7,1.7-7,3.9s3.1,3.9,7,3.9s7-1.7,7-3.9S136,395.6,132.2,395.6z"/>
			</g>
			<g id="a57c414c-d50c-49a2-93d8-e504acfecc5d">
				<path class="st26" d="M138.4,382.5c-3.9,0-8.1,1.5-8.1,4.9c0,3,4.1,4.6,8,4.6c4.1,0,8-1.7,8-4.9
					C146.2,384.8,142.4,382.5,138.4,382.5z M138.2,391.1c-3.9,0-7-1.7-7-3.9s3.1-3.9,7-3.9s7,1.8,7,3.9S142.1,391.1,138.2,391.1
					L138.2,391.1z"/>
				
					<radialGradient id="SVGID_8_" cx="139.21" cy="350.8833" r="5.6614" gradientTransform="matrix(1 0 0 -0.6 -0.98 597.79)" gradientUnits="userSpaceOnUse">
					<stop  offset="0" style="stop-color:#0000EF"/>
					<stop  offset="0.15" style="stop-color:#0000E9"/>
					<stop  offset="0.34" style="stop-color:#0101D9"/>
					<stop  offset="0.56" style="stop-color:#0101BE"/>
					<stop  offset="0.79" style="stop-color:#02029A"/>
					<stop  offset="1" style="stop-color:#020282"/>
				</radialGradient>
				<path class="st30" d="M138.2,383.4c-3.9,0-7,1.8-7,3.9s3.1,3.9,7,3.9s7-1.7,7-3.9S142.1,383.4,138.2,383.4z"/>
			</g>
			<g id="f52f7620-e5a9-487e-a003-4ef534f0d5a2">
				<path class="st26" d="M120.8,376.8c-3.9,0-8.1,1.5-8.1,4.9c0,3,4.1,4.6,7.9,4.6c4.1,0,8-1.7,8-4.9
					C128.6,379.1,124.8,376.8,120.8,376.8z M120.6,385.5c-3.9,0-7-1.7-7-3.9s3.1-3.9,7-3.9s7,1.7,7,3.9S124.5,385.5,120.6,385.5
					L120.6,385.5z"/>
				
					<radialGradient id="SVGID_9_" cx="121.61" cy="356.5667" r="5.66" gradientTransform="matrix(1 0 0 -0.6 -0.98 595.52)" gradientUnits="userSpaceOnUse">
					<stop  offset="0" style="stop-color:#0000EF"/>
					<stop  offset="0.15" style="stop-color:#0000E9"/>
					<stop  offset="0.34" style="stop-color:#0101D9"/>
					<stop  offset="0.56" style="stop-color:#0101BE"/>
					<stop  offset="0.79" style="stop-color:#02029A"/>
					<stop  offset="1" style="stop-color:#020282"/>
				</radialGradient>
				<path class="st31" d="M120.6,377.7c-3.9,0-7,1.7-7,3.9s3.1,3.9,7,3.9s7-1.7,7-3.9S124.5,377.7,120.6,377.7z"/>
			</g>
			<g id="b4d1e7a2-1bea-4ef1-9125-7bbe3684640f">
				<path class="st26" d="M99.5,377.3c-3.9,0-8.1,1.5-8.1,4.9c0,3,4.1,4.6,7.9,4.6c4.1,0,8-1.7,8-4.9
					C107.3,379.5,103.5,377.3,99.5,377.3z M99.3,385.9c-3.9,0-7-1.7-7-3.9s3.1-3.9,7-3.9s7,1.7,7,3.9S103.2,385.9,99.3,385.9z"/>
				
					<radialGradient id="SVGID_10_" cx="100.32" cy="356.1333" r="5.6614" gradientTransform="matrix(1 0 0 -0.6 -0.98 595.69)" gradientUnits="userSpaceOnUse">
					<stop  offset="0" style="stop-color:#0000EF"/>
					<stop  offset="0.15" style="stop-color:#0000E9"/>
					<stop  offset="0.34" style="stop-color:#0101D9"/>
					<stop  offset="0.56" style="stop-color:#0101BE"/>
					<stop  offset="0.79" style="stop-color:#02029A"/>
					<stop  offset="1" style="stop-color:#020282"/>
				</radialGradient>
				<path class="st32" d="M99.3,378.1c-3.9,0-7,1.7-7,3.9s3.1,3.9,7,3.9s7-1.7,7-3.9S103.2,378.1,99.3,378.1z"/>
			</g>
		</g>
		<g id="ba1703e1-fcb2-422a-bfc1-9de6af68a564">
			<g id="fbb46f82-21be-4a89-994b-bd47be1917a9">
				<path class="st33" d="M224.7,399.4c-3.9,0-8.1,1.5-8.1,4.9c0,3,4.1,4.6,7.9,4.6c4.1,0,8-1.7,8-4.9
					C232.5,401.7,228.6,399.4,224.7,399.4L224.7,399.4z M224.5,408c-3.9,0-7-1.7-7-3.9s3.1-3.9,7-3.9s7,1.7,7,3.9
					S228.4,408,224.5,408z"/>
				
					<radialGradient id="SVGID_11_" cx="225.51" cy="419.33" r="5.6627" gradientTransform="matrix(1 0 0 -1 -0.98 823.48)" gradientUnits="userSpaceOnUse">
					<stop  offset="0" style="stop-color:#FD6D66"/>
					<stop  offset="0.78" style="stop-color:#B50A03"/>
				</radialGradient>
				<path class="st34" d="M224.5,400.3c-3.9,0-7,1.7-7,3.9s3.1,3.9,7,3.9s7-1.7,7-3.9S228.4,400.3,224.5,400.3z"/>
			</g>
			<g id="adc4cff8-a582-4a6a-bbb0-9144ba747afc">
				<path class="st33" d="M246,399c-3.9,0-8.1,1.5-8.1,4.9c0,3,4.1,4.6,7.9,4.6c4.1,0,8-1.7,8-4.9C253.8,401.2,249.9,399,246,399
					L246,399z M245.8,407.6c-3.9,0-7-1.7-7-3.9s3.1-3.9,7-3.9s7,1.7,7,3.9S249.7,407.6,245.8,407.6L245.8,407.6z"/>
				
					<radialGradient id="SVGID_12_" cx="246.79" cy="419.76" r="5.6627" gradientTransform="matrix(1 0 0 -1 -0.98 823.48)" gradientUnits="userSpaceOnUse">
					<stop  offset="0" style="stop-color:#FD6D66"/>
					<stop  offset="0.78" style="stop-color:#B50A03"/>
				</radialGradient>
				<path class="st35" d="M245.8,399.8c-3.9,0-7,1.7-7,3.9s3.1,3.9,7,3.9s7-1.7,7-3.9S249.7,399.8,245.8,399.8z"/>
			</g>
			<g id="f3398265-df41-4a6b-8d2c-da5d1592fd35">
				<path class="st33" d="M263.6,404.7c-3.9,0-8.1,1.5-8.1,4.9c0,3,4.1,4.6,7.9,4.6c4.1,0,8-1.7,8-4.9
					C271.4,406.9,267.5,404.7,263.6,404.7z M263.4,413.3c-3.9,0-7-1.8-7-3.9s3.1-3.9,7-3.9s7,1.7,7,3.9S267.3,413.3,263.4,413.3z"/>
				
					<radialGradient id="SVGID_13_" cx="264.4" cy="414.07" r="5.66" gradientTransform="matrix(1 0 0 -1 -0.98 823.48)" gradientUnits="userSpaceOnUse">
					<stop  offset="0" style="stop-color:#FD6D66"/>
					<stop  offset="0.78" style="stop-color:#B50A03"/>
				</radialGradient>
				<path class="st36" d="M263.4,405.5c-3.9,0-7,1.7-7,3.9s3.1,3.9,7,3.9s7-1.8,7-3.9S267.3,405.5,263.4,405.5z"/>
			</g>
			<g id="a4c76601-21e6-42f2-b05d-bfe9536969ab">
				<path class="st33" d="M257.6,416.9c-3.9,0-8.1,1.5-8.1,4.9c0,3,4.1,4.6,8,4.6c4.1,0,8-1.7,8-4.9
					C265.3,419.2,261.5,416.9,257.6,416.9z M257.4,425.6c-3.9,0-7-1.8-7-3.9s3.1-3.9,7-3.9c3.9,0,7,1.7,7,3.9
					S261.2,425.6,257.4,425.6z"/>
				
					<radialGradient id="SVGID_14_" cx="258.36" cy="401.81" r="5.6627" gradientTransform="matrix(1 0 0 -1 -0.98 823.48)" gradientUnits="userSpaceOnUse">
					<stop  offset="0" style="stop-color:#FD6D66"/>
					<stop  offset="0.78" style="stop-color:#B50A03"/>
				</radialGradient>
				<path class="st37" d="M257.4,417.8c-3.9,0-7,1.7-7,3.9s3.1,3.9,7,3.9c3.9,0,7-1.8,7-3.9S261.2,417.8,257.4,417.8z"/>
			</g>
			<g id="acf9e352-aab6-43a2-91d2-0a8fac449101">
				<path class="st33" d="M239,410.8c-3.9,0-8.1,1.5-8.1,4.9c0,3,4.1,4.6,7.9,4.6c4.1,0,8-1.7,8-4.9
					C246.8,413,242.9,410.8,239,410.8L239,410.8z M238.8,419.4c-3.9,0-7-1.7-7-3.9s3.1-3.9,7-3.9s7,1.8,7,3.9
					S242.7,419.4,238.8,419.4L238.8,419.4z"/>
				
					<radialGradient id="SVGID_15_" cx="239.79" cy="407.98" r="5.6627" gradientTransform="matrix(1 0 0 -1 -0.98 823.48)" gradientUnits="userSpaceOnUse">
					<stop  offset="0" style="stop-color:#FD6D66"/>
					<stop  offset="0.78" style="stop-color:#B50A03"/>
				</radialGradient>
				<path class="st38" d="M238.8,411.6c-3.9,0-7,1.8-7,3.9s3.1,3.9,7,3.9s7-1.7,7-3.9S242.7,411.6,238.8,411.6z"/>
			</g>
			<g id="b4134e8e-d838-4b30-8cac-2b0120bd24ee">
				<path class="st33" d="M216.8,410.8c-3.9,0-8.1,1.5-8.1,4.9c0,3,4.1,4.6,8,4.6c4.1,0,8-1.7,8-4.9
					C224.5,413,220.7,410.8,216.8,410.8z M216.6,419.4c-3.9,0-7-1.7-7-3.9s3.1-3.9,7-3.9s7,1.8,7,3.9S220.4,419.4,216.6,419.4z"/>
				
					<radialGradient id="SVGID_16_" cx="217.55" cy="407.98" r="5.6627" gradientTransform="matrix(1 0 0 -1 -0.98 823.48)" gradientUnits="userSpaceOnUse">
					<stop  offset="0" style="stop-color:#FD6D66"/>
					<stop  offset="0.78" style="stop-color:#B50A03"/>
				</radialGradient>
				<path class="st39" d="M216.6,411.6c-3.9,0-7,1.8-7,3.9s3.1,3.9,7,3.9s7-1.7,7-3.9S220.4,411.6,216.6,411.6z"/>
			</g>
		</g>
		<path class="st40" d="M227.6,236.7L227.6,236.7l-5.9-0.9v-0.1L227.6,236.7z M235.6,238C235.6,238,235.6,238.1,235.6,238l-5.7-0.9
			V237L235.6,238z"/>
		<path class="st41" d="M209.2,272.9l-65.6-11c-0.9-0.1-0.9-0.1-0.7-0.9c0.3-1.5,0.5-3.1,0.8-4.6c0.8-4.3,1.5-8.6,2.2-13
			c0.1-0.5,0.2-1,0.3-1.4c0-0.2,0.1-0.2,0.3-0.2l0.8,0.1l119.3,20c1.6,0.2,3.2,0.7,4.7,1.4c2.5,1.2,4.6,3.3,5.7,5.9
			c0.5,1.2,0.7,2.6,0.6,3.9c0,0.4-0.1,0.8-0.1,1.1l-1.6,9.4c-0.1,0.4-0.1,0.4-0.5,0.4l-40.1-6.7L209.2,272.9z M223.9,265.2
			c-0.4,2.4-0.8,4.7-1.2,7.1c0,0.2,0,0.3,0.3,0.4c1,0.1,1.9,0.3,2.9,0.5c0.5,0.1,0.5,0.1,0.6-0.4c0.5-2.8,0.9-5.6,1.4-8.4
			c0-0.1,0-0.2,0.1-0.2s0.1,0.1,0.2,0.2c1.7,3.1,3.4,6.3,5.1,9.4c0.7,1.1,2.1,1.5,3.3,0.8c0.1-0.1,0.2-0.1,0.3-0.2
			c0.9-0.9,1.9-1.8,2.9-2.7l4.9-4.5c0.1-0.1,0.1-0.2,0.3-0.2s0,0.2,0,0.3v0.1c-0.5,2.8-0.9,5.6-1.4,8.4c0,0.3,0,0.4,0.3,0.4
			c1,0.2,2,0.3,3.1,0.5c0.3,0.1,0.4,0,0.5-0.3l2.3-13.8c0.1-0.4,0-0.7-0.3-1c-0.8-1-2.3-1.2-3.3-0.4l-2.2,2l-8.1,7.4
			c-0.3,0.2-0.3,0.2-0.4-0.1c-2.2-4.1-4.4-8.1-6.6-12.2c-0.3-0.5-0.8-0.9-1.4-1.1c-0.9-0.3-1.9,0.1-2.2,1c0,0.1-0.1,0.2-0.1,0.3
			L223.9,265.2z M219.4,264.5c0.4-2.3,0.8-4.6,1.2-6.9c0.1-0.5-0.1-0.9-0.4-1.2c-0.9-0.8-2.3-0.8-3.2,0c-2.4,2.2-4.8,4.4-7.2,6.6
			l-2.9,2.7c-0.1,0.1-0.2,0.3-0.4,0l-3.4-6.3c-1.1-2-2.2-4-3.3-6c-0.5-0.7-1.3-1.1-2.2-1c-0.8,0-1.4,0.6-1.5,1.4
			c-0.8,4.6-1.5,9.1-2.3,13.7c0,0.3,0.1,0.4,0.4,0.4c1,0.1,2,0.3,3,0.5c0.4,0.1,0.4,0.1,0.5-0.3c0.5-2.7,0.9-5.5,1.4-8.2
			c0-0.1,0-0.3,0.1-0.4s0-0.2,0.1-0.2s0.1,0.1,0.1,0.1s0.2,0.3,0.3,0.5c1.6,3,3.3,6,4.9,9.1c0.7,1.1,2.2,1.4,3.2,0.7
			c0,0,0.1-0.1,0.1-0.1c0.5-0.5,1-0.9,1.5-1.4l6.5-6c0.1,0,0.1-0.1,0.2-0.1s0.1,0.1,0.1,0.2c-0.1,0.8-0.3,1.6-0.4,2.4
			c-0.4,2.1-0.7,4.1-1,6.2c0,0.2,0,0.3,0.3,0.4l3,0.5c0.4,0.1,0.4,0.1,0.5-0.3C218.6,269.1,219,266.8,219.4,264.5L219.4,264.5z
			 M252.5,270.1c-0.4,2.3-0.8,4.6-1.1,6.9c-0.1,0.3,0.1,0.4,0.4,0.5c1,0.2,2,0.3,3,0.5c0.3,0.1,0.5,0,0.5-0.3c0.2-1,0.4-2.1,0.5-3.1
			c0-0.2,0.1-0.3,0.4-0.3l12.8,2.1c0.3,0,0.4,0.2,0.3,0.5c-0.2,1-0.3,2.1-0.5,3.1c0,0.3,0,0.4,0.3,0.4c1,0.1,2,0.3,3,0.5
			c0.5,0.1,0.5,0.1,0.5-0.3l1.2-7.3c0.4-2.5-0.6-5-2.5-6.5c-1.8-1.6-4-2.6-6.4-3c-2.4-0.4-4.8-0.8-7.1-1.2c-0.7-0.1-1.5-0.3-2.2-0.4
			c-0.9-0.2-1.7,0.4-1.9,1.2c0,0,0,0,0,0.1C253.3,265.7,252.9,267.9,252.5,270.1L252.5,270.1z M190.3,259.7l1.1-6.8
			c0-0.2,0-0.3,0-0.5c-0.2-0.7-0.9-1.3-1.6-1.3c-1.6-0.3-3.1-0.5-4.6-0.8c-1.8-0.3-3.7-0.7-5.5-0.9c-2.4-0.3-4.9,0.2-7,1.4
			c-1.8,1-3,2.7-3.4,4.7c-0.4,2.5-0.8,5-1.3,7.5c-0.1,0.4-0.1,0.4,0.4,0.5c1,0.2,2,0.3,2.9,0.5c0.3,0.1,0.4,0,0.5-0.3
			c0.1-1,0.3-2.1,0.5-3.1c0-0.3,0.2-0.4,0.5-0.3l12.7,2.1c0.3,0,0.4,0.2,0.4,0.5c-0.2,1-0.4,2.1-0.5,3.1c0,0.3,0,0.4,0.3,0.4
			c1,0.2,2,0.3,3,0.5c0.3,0.1,0.4,0,0.5-0.3C189.5,264.3,189.9,262,190.3,259.7L190.3,259.7z M152,260.7l6.5,1.1
			c0.9,0.2,1.8,0.2,2.8,0c1.6-0.2,2.9-1.4,3.3-2.9c0.6-3.8,1.3-7.6,1.9-11.3c0.1-0.3,0-0.4-0.3-0.4c-1-0.1-2-0.3-3-0.5
			c-0.4-0.1-0.5,0-0.5,0.3c-0.6,3.7-1.2,7.4-1.9,11.2c-0.1,0.6-0.6,1-1.2,1c0,0,0,0,0,0c-0.2,0-0.5,0-0.7-0.1c-1-0.2-2-0.4-3.1-0.5
			l-7-1.1c-0.3,0-0.4-0.1-0.3-0.4c0.1-0.6,0.2-1.2,0.3-1.8c0.1-0.3,0-0.4-0.4-0.4c-0.8-0.1-1.7-0.3-2.5-0.4c-0.3-0.1-0.4,0-0.5,0.3
			c-0.2,1.5-0.5,3-0.7,4.5c-0.1,0.4-0.1,0.4,0.4,0.5L152,260.7z M229.9,237.1l5.7,1c0.1,0.1,0.1,0.2,0.1,0.4
			c-0.4,2.2-0.7,4.3-1.1,6.5c0,0.3,0,0.4,0.3,0.4c3.1,0.5,6.2,1,9.3,1.5c0.3,0.1,0.3,0.2,0.3,0.4c-0.1,0.7-0.2,1.3-0.3,2
			c-0.2,1.6-0.5,3.1-0.8,4.6c-0.1,0.6-0.2,1.2-0.3,1.8c0,0.2-0.1,0.3-0.4,0.3l-15.1-2.6c-0.6-0.1-0.6-0.1-0.6-0.7
			c0.9-5.1,1.7-10.3,2.6-15.4C229.6,237.3,229.6,237.1,229.9,237.1L229.9,237.1z M233.8,249.8c-0.1,0.8-0.3,1.6-0.4,2.3
			c-0.1,0.3,0,0.4,0.3,0.4c1.1,0.2,2.1,0.3,3.2,0.5c0.3,0.1,0.4,0,0.5-0.3c0.3-1.6,0.5-3.1,0.8-4.7c0-0.2,0-0.3-0.3-0.4
			c-1.1-0.2-2.2-0.3-3.2-0.5c-0.3-0.1-0.4,0-0.4,0.3C234,248.3,233.9,249,233.8,249.8L233.8,249.8z M254.7,248.6
			c2.5,0.4,5.1,0.9,7.6,1.3c0.3,0.1,0.4,0.2,0.4,0.5c-0.5,2.8-0.9,5.5-1.4,8.3c-0.1,0.4-0.1,0.4-0.5,0.3l-15.3-2.5
			c-0.3,0-0.3-0.2-0.3-0.4c0.5-2.8,1-5.6,1.4-8.4c0-0.3,0.2-0.3,0.5-0.3C249.5,247.8,252.1,248.2,254.7,248.6L254.7,248.6z
			 M256,253.5c0.1-0.8,0.3-1.6,0.4-2.4c0-0.2,0-0.4-0.3-0.4l-3.4-0.6c-0.3,0-0.4,0-0.4,0.3l-0.8,4.9c0,0.3,0.1,0.4,0.3,0.4l3.4,0.6
			c0.3,0.1,0.4,0,0.5-0.3C255.7,255.1,255.8,254.3,256,253.5L256,253.5z M172.6,244.3l-7.6-1.3c-0.3,0-0.4-0.1-0.3-0.4
			c0.5-2.8,1-5.6,1.4-8.4c0-0.3,0.1-0.3,0.4-0.3l15.4,2.6c0.4,0.1,0.4,0.1,0.4,0.5c-0.3,1.6-0.5,3.1-0.8,4.7c0,0.3-0.2,0.4-0.5,0.3
			c-3.1-0.5-6.1-1-9.2-1.6c-0.5-0.1-0.5-0.1-0.5,0.3s-0.1,0.7-0.2,1s0,0.4,0.3,0.4c2.1,0.3,4.1,0.7,6.2,1l3.2,0.5
			c0.3,0.1,0.4,0.2,0.4,0.4s-0.1,0.7-0.2,1.1s-0.2,0.4-0.5,0.3L172.6,244.3z M173.5,238.8c0.6,0.1,1.1,0.2,1.7,0.3
			c0.3,0,0.4,0,0.4-0.3c0-0.4,0.1-0.8,0.2-1.2c0-0.2,0-0.3-0.3-0.4l-3.4-0.6c-0.2,0-0.3,0-0.4,0.2c-0.1,0.4-0.1,0.8-0.2,1.2
			c0,0.2,0.1,0.3,0.3,0.3C172.4,238.6,172.9,238.7,173.5,238.8L173.5,238.8z M210.3,241.2l7.6,1.3c0.4,0.1,0.5,0.1,0.4,0.5
			c-0.4,2-0.7,4-1.1,6c-0.1,0.7-0.3,1.5-0.4,2.2c0,0.3-0.1,0.4-0.5,0.3c-2.1-0.4-4.2-0.7-6.3-1l-9-1.5c-0.4-0.1-0.4-0.1-0.4-0.5
			c0.3-1.6,0.5-3.1,0.8-4.7c0-0.3,0.2-0.4,0.5-0.3l9.2,1.5c0.5,0.1,0.5,0.1,0.5-0.3s0.1-0.7,0.2-1s0-0.4-0.4-0.5
			c-2.3-0.4-4.7-0.8-7-1.2l-2.3-0.4c-0.2,0-0.3-0.1-0.3-0.3c0.1-0.4,0.2-0.8,0.2-1.3c0-0.3,0.2-0.3,0.4-0.3l5.4,0.9L210.3,241.2
			L210.3,241.2z M209.2,248.5c0.6,0.1,1.1,0.2,1.7,0.3c0.2,0,0.3,0,0.4-0.2l0.2-1.2c0-0.2-0.1-0.3-0.3-0.3l-3.3-0.6
			c-0.2,0-0.4,0-0.4,0.2c0,0.4-0.1,0.8-0.2,1.2c-0.1,0.2,0.1,0.3,0.3,0.4C208,248.3,208.6,248.4,209.2,248.5L209.2,248.5z
			 M267.8,250.8c0.9,0.1,1.7,0.3,2.6,0.4c0.3,0,0.4,0.2,0.3,0.4c-0.1,0.4-0.1,0.8-0.2,1.2c0,0.2,0,0.3,0.3,0.3l3.4,0.6
			c0.3,0,0.4,0,0.4-0.3c0.1-0.4,0.1-0.8,0.2-1.2c0-0.2,0.1-0.3,0.4-0.2l5.4,0.9c0.2,0,0.3,0.1,0.3,0.3c-0.1,0.4-0.2,0.9-0.2,1.3
			c0,0.2-0.2,0.3-0.4,0.3c-0.4-0.1-0.9-0.1-1.3-0.2c-0.2,0-0.3,0-0.4,0.2c0,0.4-0.1,0.8-0.2,1.2c0,0.2-0.1,0.3-0.4,0.3
			c-0.5-0.1-0.9-0.1-1.4-0.2c-0.2,0-0.2,0-0.3,0.2c-0.1,0.4-0.1,0.9-0.3,1.3c-0.1,0.2,0.1,0.2,0.2,0.3l1.4,0.2
			c0.3,0,0.4,0.1,0.3,0.4s-0.1,0.8-0.2,1.2c0,0.2,0,0.3,0.3,0.3l1.3,0.2c0.3,0,0.3,0.1,0.3,0.4c-0.1,0.4-0.2,0.8-0.2,1.3
			c0,0.2-0.1,0.3-0.4,0.2l-0.6-0.1l-4.6-0.8c-0.5-0.1-0.5-0.1-0.4-0.5s0.1-0.8,0.2-1.1c0-0.2,0-0.3-0.3-0.3l-3.4-0.6
			c-0.2,0-0.3,0-0.3,0.2c-0.1,0.4-0.2,0.8-0.2,1.2s-0.2,0.4-0.5,0.3l-4.7-0.8c-1.2-0.2-0.9-0.1-0.8-1c0-0.3,0.1-0.5,0.1-0.7
			s0.2-0.3,0.4-0.3c0.5,0.1,0.9,0.1,1.3,0.2c0.3,0,0.4,0,0.4-0.3s0.1-0.8,0.2-1.2s0.2-0.3,0.4-0.3c0.5,0.1,0.9,0.1,1.4,0.2
			c0.2,0,0.3,0,0.3-0.2c0.1-0.4,0.1-0.9,0.2-1.3c0-0.2,0-0.3-0.3-0.3l-1.4-0.2c-0.2,0-0.3-0.1-0.3-0.4s0.1-0.8,0.2-1.2
			c0-0.2,0-0.4-0.3-0.4c-0.5-0.1-0.9-0.1-1.4-0.2c-0.3,0-0.3-0.1-0.3-0.4c0.1-0.4,0.1-0.8,0.2-1.3c0-0.2,0.2-0.3,0.4-0.2
			L267.8,250.8z M221.7,235.8l5.9,1c0.1,0.1,0.1,0.2,0.1,0.4c-0.9,5.2-1.7,10.4-2.6,15.6c0,0.3-0.2,0.4-0.5,0.3s-0.9-0.2-1.3-0.3
			l-3.9-0.6c-0.5-0.1-0.4-0.1-0.4-0.5c0.9-5.2,1.7-10.3,2.6-15.5C221.6,236,221.5,235.8,221.7,235.8z M190.7,247.3L183,246
			c-0.3,0-0.4-0.1-0.4-0.4c0.5-2.8,0.9-5.6,1.4-8.4c0-0.3,0.1-0.3,0.4-0.3l15.4,2.6c0.3,0.1,0.4,0.2,0.4,0.4s-0.1,0.7-0.2,1.1
			s-0.1,0.4-0.6,0.3l-4.2-0.7l-5.1-0.9c-0.3,0-0.4,0-0.4,0.3c-0.2,1.4-0.5,2.8-0.7,4.2c0,0.1,0,0.2,0,0.3c-0.1,0.6-0.1,0.6,0.6,0.7
			l8.9,1.5c0.4,0.1,0.4,0.1,0.4,0.5s-0.1,0.7-0.2,1.1s-0.2,0.4-0.5,0.3c-0.6-0.1-1.1-0.2-1.7-0.3L190.7,247.3z"/>
		<path class="st42" d="M290.1,281.6c-0.3,1.5-0.5,2.9-0.7,4.4c-0.1,0.4-0.1,0.4-0.5,0.3l-4.3-0.7c-0.3,0-0.4-0.1-0.3-0.4
			s0.1-0.4,0.1-0.6s-0.1-0.3-0.3-0.3l-0.5,0c-0.4-0.1-0.5,0-0.5,0.4v0.2c0,0.4-0.1,0.5-0.6,0.4c-1.4-0.2-2.8-0.5-4.2-0.7
			c-0.3,0-0.4-0.2-0.4-0.5c0.5-3,1-5.9,1.5-8.9c0.1-0.4,0.1-0.4,0.5-0.3c3,0.6,5.9,1,8.9,1.5c0.5,0.1,1,0.1,1.5,0.2s0.5,0.1,0.4,0.5
			C290.6,278.7,290.3,280.1,290.1,281.6L290.1,281.6z M281.7,281.4l1.6,0.3c0.2,0,0.3,0,0.4-0.2c0.1-0.6,0.2-1.2,0.3-1.8
			c0-0.2-0.1-0.3-0.3-0.3l-3.1-0.5c-0.2,0-0.3,0-0.4,0.2c-0.1,0.6-0.2,1.2-0.3,1.8c0,0.2,0,0.3,0.3,0.3L281.7,281.4z M287.2,279.9
			c-0.5-0.1-1-0.2-1.5-0.3c-0.3,0-0.4,0-0.4,0.2c-0.1,0.6-0.2,1.2-0.3,1.8c0,0.2,0,0.3,0.3,0.3c1,0.2,2,0.3,3,0.5
			c0.3,0,0.4,0,0.4-0.3c0.1-0.6,0.2-1.1,0.3-1.7c0-0.2,0-0.4-0.3-0.4C288.2,280.1,287.7,280,287.2,279.9L287.2,279.9z"/>
		<path class="st43" d="M291.9,270.8c-0.3,1.5-0.5,3-0.7,4.4c-0.1,0.4-0.1,0.4-0.5,0.3l-2.9-0.5c-0.4-0.1-0.5-0.2-0.4-0.5
			c0.1-0.9,0.3-1.7,0.4-2.6c0,0,0-0.1,0-0.1c0.2-0.6,0.1-0.5,0.7-0.4l1.5,0.3c0.3,0,0.4,0,0.4-0.3c0.1-0.6,0.2-1.2,0.3-1.8
			c0-0.2,0-0.3-0.3-0.4l-8-1.3c-0.3,0-0.4,0-0.4,0.3c-0.1,0.6-0.2,1.1-0.3,1.7c0,0.2,0,0.4,0.3,0.4l3.1,0.5c0.1,0,0.3,0,0.3-0.1
			c0,0,0,0,0,0c0.1-0.2,0.1-0.4,0.1-0.6c0-0.2,0.1-0.2,0.3-0.3c0.1,0,0.1,0,0.2,0c0.9,0.1,0.9,0.1,0.8,0.9c-0.2,1.3-0.4,2.5-0.6,3.8
			c0,0.3-0.2,0.3-0.4,0.3l-5.4-0.9c-0.5-0.1-0.5-0.1-0.5-0.6c0.5-3,1-5.9,1.5-8.9c0-0.2,0.1-0.2,0.3-0.2s0.5,0,0.8,0.1l9.8,1.6
			c0.5,0.1,0.5,0.1,0.5,0.6L291.9,270.8L291.9,270.8z"/>
		<path class="st44" d="M288.9,254.3c1.8,0.3,3.5,0.6,5.2,0.9c0.3,0,0.4,0.1,0.4,0.4c-0.5,3-1,6-1.5,8.9c0,0.3-0.2,0.4-0.5,0.3
			c-1.4-0.3-2.8-0.5-4.2-0.7c-0.4-0.1-0.4-0.1-0.4-0.5c0-0.1,0.1-0.2,0.1-0.3c0.1-0.5,0.1-0.5-0.5-0.6h-0.2
			c-0.5-0.1-0.5-0.1-0.5,0.4c0,0.2-0.1,0.3-0.1,0.5s-0.2,0.2-0.4,0.2l-4.4-0.7c-0.2,0-0.3-0.1-0.3-0.4c0.2-1,0.4-2,0.5-3.1
			c0-0.3,0.2-0.3,0.5-0.2l1.8,0.3c0.8,0.1,1.6,0.2,2.4,0.4c0.3,0.1,0.4,0,0.5-0.3c0.1-0.6,0.2-1.1,0.3-1.7c0-0.3,0-0.4-0.3-0.4
			c-1.4-0.2-2.8-0.5-4.2-0.7c-0.3,0-0.4-0.1-0.4-0.4c0.2-1,0.3-2,0.5-3c0-0.3,0.1-0.3,0.4-0.3C285.3,253.7,287.1,254,288.9,254.3
			L288.9,254.3z M290.3,260.7c0.5,0.1,1,0.2,1.5,0.3c0.2,0,0.4,0,0.4-0.2c0.1-0.6,0.2-1.2,0.3-1.8c0-0.2,0-0.3-0.3-0.4l-3.1-0.5
			c-0.2,0-0.3,0-0.4,0.2c-0.1,0.6-0.2,1.3-0.3,1.9c0,0.2,0,0.3,0.2,0.3L290.3,260.7z"/>
		<path class="st41" d="M156,232.1l7.5,1.3c0.5,0.1,0.5,0.1,0.4,0.6s-0.1,0.7-0.2,1s-0.2,0.3-0.4,0.3l-9.3-1.6
			c-0.3-0.1-0.4,0-0.4,0.3c-0.4,2.2-0.7,4.3-1.1,6.5c-0.1,0.3-0.2,0.4-0.5,0.3l-5.2-0.9c-0.3,0-0.4-0.1-0.4-0.4
			c0.5-2.8,0.9-5.6,1.4-8.4c0.1-0.3,0.2-0.3,0.5-0.3L156,232.1z"/>
		<path class="st40" d="M223.9,265.2l1.1-6.7c0.2-0.9,1.1-1.6,2-1.4c0.1,0,0.2,0,0.3,0.1c0.6,0.1,1.1,0.5,1.4,1.1
			c2.2,4.1,4.4,8.1,6.6,12.2c0.2,0.3,0.2,0.3,0.4,0.1l8.1-7.4l2.2-2c1-0.8,2.5-0.6,3.3,0.4c0.2,0.3,0.3,0.6,0.3,1
			c-0.8,4.6-1.6,9.2-2.3,13.8c0,0.3-0.1,0.4-0.5,0.3c-1-0.2-2-0.4-3.1-0.5c-0.3,0-0.4-0.1-0.3-0.4c0.5-2.8,0.9-5.6,1.4-8.4v-0.1
			c0,0,0.1-0.3,0-0.3s-0.2,0.1-0.3,0.2l-4.9,4.5c-1,0.9-2,1.7-2.9,2.7c-1,0.8-2.5,0.7-3.4-0.3c-0.1-0.1-0.1-0.2-0.2-0.3
			c-1.6-3.2-3.4-6.3-5.1-9.4c0-0.1-0.1-0.2-0.2-0.2s-0.1,0.1-0.1,0.2l-1.4,8.4c-0.1,0.5-0.1,0.5-0.6,0.4c-1-0.2-1.9-0.3-2.9-0.5
			c-0.3,0-0.3-0.1-0.3-0.4C223.1,269.8,223.5,267.5,223.9,265.2L223.9,265.2z M219.4,264.5c-0.4,2.3-0.8,4.6-1.2,7
			c-0.1,0.4-0.1,0.4-0.5,0.3l-3-0.5c-0.3,0-0.3-0.1-0.3-0.4c0.4-2.1,0.7-4.1,1-6.2c0.1-0.8,0.3-1.6,0.4-2.4c0-0.1,0.1-0.2-0.1-0.2
			s-0.1,0.1-0.2,0.1l-6.5,6c-0.5,0.5-1,0.9-1.5,1.4c-1,0.8-2.5,0.5-3.3-0.5c0,0-0.1-0.1-0.1-0.1c-1.6-3-3.3-6-4.9-9.1
			c-0.1-0.2-0.2-0.3-0.3-0.5s-0.1-0.1-0.1-0.1s-0.1,0.1-0.1,0.2s0,0.3-0.1,0.4c-0.5,2.7-0.9,5.5-1.4,8.2c-0.1,0.4-0.1,0.4-0.5,0.3
			c-1-0.2-2-0.4-3-0.5c-0.3,0-0.4-0.1-0.4-0.4c0.8-4.6,1.5-9.1,2.3-13.7c0.1-0.8,0.7-1.4,1.5-1.4c0.9-0.1,1.7,0.3,2.2,1
			c1.1,2,2.2,4,3.3,6l3.4,6.3c0.1,0.3,0.2,0.1,0.4,0l2.9-2.7c2.4-2.2,4.9-4.4,7.2-6.6c0.9-0.8,2.3-0.8,3.2,0
			c0.4,0.3,0.5,0.8,0.4,1.2c-0.4,2.3-0.8,4.6-1.2,6.9L219.4,264.5z M252.5,270.1c0.4-2.2,0.8-4.5,1.1-6.7c0.2-0.9,1-1.5,1.9-1.3
			c0,0,0,0,0.1,0c0.7,0.1,1.4,0.2,2.2,0.4c2.4,0.4,4.8,0.8,7.1,1.2c2.4,0.4,4.6,1.4,6.4,3c2,1.6,2.9,4.1,2.5,6.5
			c-0.4,2.4-0.8,4.9-1.2,7.3c-0.1,0.4-0.1,0.4-0.5,0.3c-1-0.2-2-0.3-3-0.5c-0.3,0-0.4-0.1-0.3-0.4c0.2-1,0.4-2.1,0.5-3.1
			c0-0.3,0-0.4-0.3-0.5l-12.8-2.1c-0.3,0-0.4,0-0.4,0.3c-0.2,1-0.4,2.1-0.5,3.1c0,0.3-0.2,0.4-0.5,0.3c-1-0.2-2-0.3-3-0.5
			c-0.3,0-0.4-0.1-0.4-0.5C251.7,274.7,252.1,272.4,252.5,270.1L252.5,270.1z M263,272.5l6.4,1.1c0.3,0,0.4,0,0.5-0.3
			s0.1-0.5,0.1-0.8c0.3-1.6-0.3-3.2-1.5-4.2c-1.1-1-2.5-1.6-4-1.9c-2.3-0.4-4.5-0.8-6.8-1.2c-0.3-0.1-0.4,0.1-0.4,0.3
			c-0.3,1.8-0.6,3.6-0.9,5.4c0,0.3,0,0.4,0.4,0.5L263,272.5z M190.3,259.7c-0.4,2.3-0.8,4.6-1.1,6.9c-0.1,0.3-0.2,0.4-0.5,0.3
			c-1-0.2-2-0.4-3-0.5c-0.3,0-0.4-0.1-0.3-0.4c0.2-1,0.4-2.1,0.5-3.1c0.1-0.3,0-0.4-0.4-0.5l-12.7-2.1c-0.3,0-0.4,0-0.5,0.3
			c-0.2,1-0.4,2-0.5,3.1c0,0.3-0.2,0.4-0.5,0.3c-1-0.2-1.9-0.3-2.9-0.5c-0.4-0.1-0.4-0.1-0.4-0.5c0.4-2.5,0.8-5,1.3-7.5
			c0.3-2,1.6-3.7,3.4-4.7c2.1-1.2,4.6-1.7,7-1.4c1.9,0.2,3.7,0.6,5.5,0.9c1.6,0.2,3.1,0.5,4.6,0.8c0.8,0.1,1.4,0.6,1.6,1.4
			c0,0.2,0,0.3,0,0.5L190.3,259.7L190.3,259.7z M179.6,258.6c2.1,0.4,4.2,0.7,6.3,1.1c0.3,0,0.4,0,0.5-0.3c0.3-1.8,0.6-3.6,0.9-5.4
			c0-0.3,0-0.4-0.3-0.4c-2-0.3-4-0.7-6-1c-1.2-0.2-2.5-0.2-3.8,0c-1.6,0.2-3,1.1-3.8,2.5c-0.3,0.6-0.4,1.3-0.5,2
			c-0.1,0.4-0.1,0.4,0.4,0.5L179.6,258.6z M152,260.7l-7-1.2c-0.5-0.1-0.5-0.1-0.4-0.5c0.3-1.5,0.5-3,0.7-4.5
			c0.1-0.3,0.1-0.4,0.5-0.3c0.8,0.2,1.7,0.3,2.5,0.4c0.3,0.1,0.4,0.2,0.4,0.4c-0.1,0.6-0.2,1.2-0.3,1.8c0,0.2,0,0.3,0.3,0.4l7,1.1
			c1,0.2,2,0.4,3.1,0.5c0.2,0,0.5,0.1,0.7,0.1c0.6,0.1,1.1-0.3,1.2-0.9c0,0,0,0,0,0c0.6-3.7,1.2-7.4,1.9-11.2c0-0.3,0.1-0.4,0.5-0.3
			c1,0.2,2,0.4,3,0.5c0.3,0.1,0.4,0.1,0.3,0.4c-0.6,3.8-1.3,7.6-1.9,11.3c-0.4,1.6-1.7,2.7-3.3,2.9c-0.9,0.2-1.8,0.2-2.8,0
			L152,260.7L152,260.7z"/>
		<path class="st41" d="M263,272.5l-6.3-1c-0.3-0.1-0.4-0.2-0.4-0.5c0.3-1.8,0.6-3.6,0.9-5.4c0-0.2,0.1-0.4,0.4-0.3
			c2.3,0.4,4.5,0.7,6.8,1.2c1.5,0.3,2.9,0.9,4,1.9c1.3,1,1.9,2.6,1.5,4.2c0,0.3-0.1,0.5-0.1,0.8s-0.2,0.3-0.5,0.3L263,272.5z
			 M179.6,258.6l-6.3-1.1c-0.5-0.1-0.5-0.1-0.4-0.5c0.1-0.7,0.3-1.4,0.5-2c0.8-1.4,2.2-2.4,3.8-2.5c1.2-0.2,2.5-0.2,3.8,0
			c2,0.3,4,0.7,6,1c0.3,0.1,0.4,0.2,0.3,0.4c-0.3,1.8-0.6,3.6-0.9,5.4c0,0.3-0.2,0.3-0.5,0.3C183.8,259.3,181.7,258.9,179.6,258.6
			L179.6,258.6z"/>
	</g>
</g>
<g id="svg2">
	<g id="layer1">
		<g id="g3830" transform="matrix(8.3477313,0,0,8.3477313,-2531.0043,2845.1357)">
			<polygon id="rect3820" class="st45" points="315.5,-334.5 318.2,-334.1 318.1,-331.7 315.4,-332.1 			"/>
			<polygon id="rect3822" class="st45" points="315.4,-332.1 318.1,-331.7 317.9,-326.1 315.2,-326.6 			"/>
			<path id="path3824" class="st45" d="M318.1-331.7l-0.1,2.6l-0.1,2.9l2.7,0.4l0.1-2.9l3,0.5l0-2.6l-2.9-0.5L318.1-331.7z"/>
			<path id="path3826" class="st45" d="M323.7-330.8l-0.1,5.6l5.7,0.9l0-1.7l-3.7-0.6l0,0l3.7,0.6l0-3.9L323.7-330.8z M325.6-328.8
				l1.7,0.3l0,0L325.6-328.8L325.6-328.8z"/>
			<path id="path3828" class="st45" d="M329.3-330l0,5.6l3,0.5l0-2.9l0,0l0,2.9l2.9,0.5l0-2.9l0,0l0,2.9l2.7,0.4l-0.1-5.6L329.3-330
				z"/>
		</g>
		<g id="g3837" transform="matrix(8.3477313,0,0,8.3477313,-1970.9091,3120.7934)">
			<polygon id="rect3738" class="st46" points="248.2,-367.8 250.8,-367.4 250.8,-365 248.1,-365.4 			"/>
			<polygon id="rect3740" class="st47" points="248.1,-365.4 250.8,-365 250.6,-359.4 247.9,-359.9 			"/>
			<path id="rect3742" class="st48" d="M250.8-365l-0.1,2.6l-0.1,2.9l2.7,0.4l0.1-2.9l2.9,0.5l0-2.6l-2.9-0.5L250.8-365z"/>
			<path id="rect3746" class="st48" d="M256.4-364.1l-0.1,5.6l5.6,0.9l0-1.7l-3.7-0.6l0,0l3.7,0.6l0-3.8L256.4-364.1z M258.3-362.1
				l1.7,0.3l0,0L258.3-362.1L258.3-362.1z"/>
			<path id="rect3748" class="st48" d="M261.9-363.3l0,5.6l3,0.5l0-2.9l0,0l0,2.9l2.9,0.5l0-2.9l0,0l0,2.9l2.7,0.4l-0.1-5.6
				L261.9-363.3z"/>
		</g>
	</g>
</g>
</svg>
