<svg id="ad753972-4df1-488d-a652-17069dbfc43e" data-name="a03febbd-2d48-47ec-9aef-7385e0924d0b" xmlns="http://www.w3.org/2000/svg" viewBox="0 0 66.78 169.35"><defs><style>.be254705-3903-4f57-bd7e-149f22491202{fill:#e74b46;}.e7f87fe4-ce4e-4b08-be4b-c6fdf1fb341d{fill:#3b469a;}</style></defs><path class="be254705-3903-4f57-bd7e-149f22491202" d="M93.49,167.25c0,1.57-.75,2.08-2.31,2.08q-15.44-.09-30.88,0c-1.54,0-2.33-.54-2.41-2.07,0-11.95.13-23.89.15-35.84,0-17,.07-34.11-.06-51.16,0-2.79.7-3.6,3.53-3.54q14.21.25,28.43,0c2.82,0,3.55.74,3.54,3.53-.11,27.51-.07,55-.06,82.53,0,1.47,0,3,.07,4.47Z" transform="translate(-41.41 0.02)"/><path class="e7f87fe4-ce4e-4b08-be4b-c6fdf1fb341d" d="M74.86,67.65c-.63-.54-1.21-1-1.72-1.51L42.51,35.55c-1.3-1.29-1.58-2.1-.14-3.57Q57.58,16.59,72.61,1c1.45-1.51,2.27-1.17,3.56.13Q91.53,16.62,107,32c1.2,1.2,1.77,2,.22,3.5C97,45.66,86.81,55.91,76.61,66.12,76.09,66.66,75.5,67.1,74.86,67.65Z" transform="translate(-41.41 0.02)"/></svg>