<svg xmlns="http://www.w3.org/2000/svg" xmlns:xlink="http://www.w3.org/1999/xlink" viewBox="0 0 470.58 67.66"><defs><style>.a83e32f1-3b37-48b4-8b63-d16245aed976{stroke:#9def48;fill:url(#b1995d47-195a-4e7e-a52f-3bf5f3f5d818);}.a83e32f1-3b37-48b4-8b63-d16245aed976,.eda2590e-0582-439e-88f7-b65a208097d4{stroke-miterlimit:10;}.ea8c3258-67dc-4733-b844-37a87eedde93{fill:#9def48;}.bb269d38-db1e-4b6c-a1de-6265702e0f6e,.eda2590e-0582-439e-88f7-b65a208097d4{fill:none;stroke:#fff;stroke-width:0.75px;}.bb269d38-db1e-4b6c-a1de-6265702e0f6e{stroke-miterlimit:14.01;}</style><linearGradient id="b1995d47-195a-4e7e-a52f-3bf5f3f5d818" x1="0.5" y1="33.83" x2="470.08" y2="33.83" gradientUnits="userSpaceOnUse"><stop offset="0" stop-color="#032c02"/><stop offset="1" stop-color="#207a09"/></linearGradient></defs><g id="b80ae27d-0327-4ce6-8cb3-313ac4834ede" data-name="calque3"><polygon class="a83e32f1-3b37-48b4-8b63-d16245aed976" points="0.5 6.04 102.57 6.04 108.7 0.5 150.44 0.5 158.35 6.04 461.77 6.24 470.08 16.13 470.08 59.84 50.94 59.84 42.83 67.16 8.02 67.16 0.5 59.84 0.5 6.04"/><path class="ea8c3258-67dc-4733-b844-37a87eedde93" d="M56.45,44.91H52.38v-21l4.07-4.07Z"/><path class="ea8c3258-67dc-4733-b844-37a87eedde93" d="M88.82,40.84h2.71a17.63,17.63,0,0,0,2.19-6.17H69.54a17.46,17.46,0,0,0,2.2,6.17h2.7v4.07H69.56a17.62,17.62,0,0,1-4.14-10.24H61.57V30.62h3.85A17.51,17.51,0,0,1,69.56,20.4H93.7a17.54,17.54,0,0,1,4.14,10.24l-1.76,1v2.05l1.76,1A17.62,17.62,0,0,1,93.7,44.91H88.82ZM69.54,30.62H93.72a17.47,17.47,0,0,0-2.19-6.15H71.74A17.3,17.3,0,0,0,69.54,30.62Z"/><path class="ea8c3258-67dc-4733-b844-37a87eedde93" d="M126.14,34.67H109.22a17.49,17.49,0,0,0,2.21,6.17h20.13l2.34,4.07H109.24a17.62,17.62,0,0,1-4.14-10.24h-3.84V30.62h3.84a17.51,17.51,0,0,1,4.14-10.22H133.9l-2.34,4.07H111.43a17.33,17.33,0,0,0-2.21,6.15h16.92Z"/><path class="ea8c3258-67dc-4733-b844-37a87eedde93" d="M149.88,24.47H142a16.32,16.32,0,0,0-2.34,8.18A16.38,16.38,0,0,0,142,40.84h2.7v4.07h-4.89a18.18,18.18,0,0,1-4.22-12.26,18.13,18.13,0,0,1,4.22-12.25h10V16.56h4.05V20.4h10a18.18,18.18,0,0,1,4.22,12.25A18.23,18.23,0,0,1,164,44.91h-4.89V40.84h2.72a16.45,16.45,0,0,0,2.32-8.19,16.39,16.39,0,0,0-2.32-8.18h-7.88V39h-4.05Z"/><path class="ea8c3258-67dc-4733-b844-37a87eedde93" d="M196.14,24.47h-7.86a16.32,16.32,0,0,0-2.34,8.18,16.38,16.38,0,0,0,2.34,8.19H191v4.07h-4.89a18.23,18.23,0,0,1-4.22-12.26,18.18,18.18,0,0,1,4.22-12.25h10V16.56h4.05V20.4h10.05a18.18,18.18,0,0,1,4.22,12.25,18.23,18.23,0,0,1-4.22,12.26h-4.89V40.84h2.72a16.45,16.45,0,0,0,2.32-8.19,16.39,16.39,0,0,0-2.32-8.18h-7.88V39h-4.05Z"/><path class="ea8c3258-67dc-4733-b844-37a87eedde93" d="M231.6,30.62h14.12a17.33,17.33,0,0,0-2.21-6.15H223.72a18.89,18.89,0,0,0-1.47,3.23h-4.37a17.11,17.11,0,0,1,3.67-7.3H245.7a18.22,18.22,0,0,1,4.22,12.25l-1.84,2H235.67V44.91H231.6Z"/><path class="ea8c3258-67dc-4733-b844-37a87eedde93" d="M255.19,30.62h26.54a17.52,17.52,0,0,0-2.21-6.15H259.73a18.89,18.89,0,0,0-1.47,3.23h-4.37a17.11,17.11,0,0,1,3.67-7.3h24.15a18.22,18.22,0,0,1,4.22,12.25l-1.85,2H257.54a17.3,17.3,0,0,0,2.19,6.17h24.61v4.07H257.56a18.19,18.19,0,0,1-4.22-12.26Z"/></g><g id="becbf2c9-fc0d-4c56-b2e5-df88803d9514" data-name="irem"><g id="f4660c87-4a0b-4483-8838-abf481a00fb4" data-name="Calque 1-2"><path class="eda2590e-0582-439e-88f7-b65a208097d4" d="M21.91,43.92V8.47H35.65V43.92Z"/><path class="eda2590e-0582-439e-88f7-b65a208097d4" d="M14.79,64.83V58.21h6.7v6.62Z"/><path class="eda2590e-0582-439e-88f7-b65a208097d4" d="M21.78,65V58.08H35.52V65Z"/><polygon class="eda2590e-0582-439e-88f7-b65a208097d4" points="21.61 43.96 21.61 51.98 21.87 51.98 21.87 57.83 35.61 57.83 35.61 51 28.49 51 28.49 43.96 21.61 43.96"/><path class="bb269d38-db1e-4b6c-a1de-6265702e0f6e" d="M14.81,65H35.68L35.78,51h-7V44h7V8.52H21.72V58.14H14.81Z"/><path class="bb269d38-db1e-4b6c-a1de-6265702e0f6e" d="M21.68,65.16v-7H35.5M21.78,44h7M26.42,38.8V35m4.86,3.93V29.8m-9.51-.2H35.63m-7-6.86h6.91m-6.85-6.95h6.9"/></g></g></svg>