<svg xmlns="http://www.w3.org/2000/svg" xmlns:xlink="http://www.w3.org/1999/xlink" viewBox="0 0 470.33 67.41"><defs><style>.a9f113ee-dfeb-4151-b870-abd4088240f7{stroke:#9def48;stroke-miterlimit:10;stroke-width:0.75px;fill:url(#b90ee3a9-685b-4035-93c6-5f1edb8b28c1);}.fb3137e4-08a8-4132-8da3-c87f3917a906{fill:#9def48;}.a1e2db42-cefc-42df-a00f-f3eed983d04d{fill:#e60012;}.bd5cf331-b989-4044-9aa1-f54bc540fb1f{fill:#fff;}</style><linearGradient id="b90ee3a9-685b-4035-93c6-5f1edb8b28c1" x1="0.38" y1="33.7" x2="469.96" y2="33.7" gradientUnits="userSpaceOnUse"><stop offset="0" stop-color="#032c02"/><stop offset="1" stop-color="#207a09"/></linearGradient></defs><g id="bc537cc4-a82a-4dd2-a50c-2c18c7503cef" data-name="texte"><polygon class="a9f113ee-dfeb-4151-b870-abd4088240f7" points="0.38 5.91 102.44 5.91 108.57 0.38 150.31 0.38 158.22 5.91 461.65 6.11 469.96 16 469.96 59.72 50.81 59.72 42.7 67.03 7.89 67.03 0.38 59.72 0.38 5.91"/><path class="fb3137e4-08a8-4132-8da3-c87f3917a906" d="M84.1,30.78c.06.66.08,1.34.08,2A18.2,18.2,0,0,1,80,45.07H55.81a18.25,18.25,0,0,1-4.22-12.26,18.17,18.17,0,0,1,4.22-12.25H80a17.13,17.13,0,0,1,3.68,7.3H79.26a17.18,17.18,0,0,0-1.47-3.23H58a16.32,16.32,0,0,0-2.34,8.18A16.41,16.41,0,0,0,58,41H77.79A17.83,17.83,0,0,0,80,34.83H65.21v-4Z" transform="translate(-0.13 -0.13)"/><path class="fb3137e4-08a8-4132-8da3-c87f3917a906" d="M94.4,38.25l-4.29,6.82H85l15.57-24.51h4.68l15.45,24.51h-5l-4.24-6.82Zm14.56-4-6-9.59L97,34.2Z" transform="translate(-0.13 -0.13)"/><path class="fb3137e4-08a8-4132-8da3-c87f3917a906" d="M135.86,24.63H128a16.32,16.32,0,0,0-2.34,8.18A16.41,16.41,0,0,0,128,41h2.7v4.07h-4.89a18.25,18.25,0,0,1-4.22-12.26,18.17,18.17,0,0,1,4.22-12.25h10.05V16.71h4v3.85H150a18.12,18.12,0,0,1,4.22,12.25A18.2,18.2,0,0,1,150,45.07h-4.88V41h2.71a16.5,16.5,0,0,0,2.33-8.19,16.41,16.41,0,0,0-2.33-8.18h-7.88V39.15h-4Z" transform="translate(-0.13 -0.13)"/><path class="fb3137e4-08a8-4132-8da3-c87f3917a906" d="M182.48,34.83H165.57a17.46,17.46,0,0,0,2.2,6.17H187.9l2.34,4.07H165.58a17.67,17.67,0,0,1-4.13-10.24H157.6v-4h3.85a17.56,17.56,0,0,1,4.13-10.22h24.66l-2.34,4.07H167.77a17.3,17.3,0,0,0-2.2,6.15h16.91Z" transform="translate(-0.13 -0.13)"/><path class="fb3137e4-08a8-4132-8da3-c87f3917a906" d="M240.18,34.83A17.62,17.62,0,0,1,236,45.07H211.9a17.62,17.62,0,0,1-4.14-10.24h-3.84v-4h3.84a17.51,17.51,0,0,1,4.14-10.22H236a17.54,17.54,0,0,1,4.14,10.24l-1.76,1v2.05Zm-28.3-4h24.18a17.47,17.47,0,0,0-2.19-6.15H214.08A17.49,17.49,0,0,0,211.88,30.78Zm0,4a17.66,17.66,0,0,0,2.2,6.17h19.79a17.63,17.63,0,0,0,2.19-6.17Z" transform="translate(-0.13 -0.13)"/><path class="fb3137e4-08a8-4132-8da3-c87f3917a906" d="M272,45.07H247.82a18.2,18.2,0,0,1-4.22-12.26,18.12,18.12,0,0,1,4.22-12.25H272a18.17,18.17,0,0,1,4.22,12.25A18.25,18.25,0,0,1,272,45.07ZM269.8,41a16.48,16.48,0,0,0,2.32-8.19,16.39,16.39,0,0,0-2.32-8.18H250a16.32,16.32,0,0,0-2.34,8.18A16.41,16.41,0,0,0,250,41Z" transform="translate(-0.13 -0.13)"/><path class="fb3137e4-08a8-4132-8da3-c87f3917a906" d="M281.45,34.83l-1.84-2a18.17,18.17,0,0,1,4.22-12.25h4.89v4.07H286a17.33,17.33,0,0,0-2.21,6.15H308a17.44,17.44,0,0,0-2.18-6.15h-2.72V20.56H308a18.22,18.22,0,0,1,4.22,12.25A18.21,18.21,0,0,1,308,45.07H283.83a17.13,17.13,0,0,1-3.68-7.3h4.38A19,19,0,0,0,286,41h19.79A17.08,17.08,0,0,0,308,34.83Z" transform="translate(-0.13 -0.13)"/></g><g id="f39634af-f8e2-45ed-8de9-2fd76b5124b2" data-name="nintendo"><path class="a1e2db42-cefc-42df-a00f-f3eed983d04d" d="M25.59,23.22A2.08,2.08,0,0,0,27.48,21a2.08,2.08,0,0,0-1.89-2.22A2.08,2.08,0,0,0,23.7,21,2.08,2.08,0,0,0,25.59,23.22Zm-.72-2.83H26.3c.53,0,.75.32.75.62s-.22.62-.75.62H24.87c-.53,0-.75-.32-.75-.62S24.34,20.39,24.87,20.39Z" transform="translate(-0.13 -0.13)"/><path class="a1e2db42-cefc-42df-a00f-f3eed983d04d" d="M23.8,26.07A1.82,1.82,0,0,0,25.56,28a1.77,1.77,0,0,0,1.66-1,1.84,1.84,0,0,0-.12-1.75h.19v-1.5H22.24v1.5H24.1A2,2,0,0,0,23.8,26.07ZM25,25.2h1.19a.6.6,0,1,1,0,1.19H25a.6.6,0,1,1,0-1.19Z" transform="translate(-0.13 -0.13)"/><polygon class="bd5cf331-b989-4044-9aa1-f54bc540fb1f" points="39.05 19.13 39.05 19.13 39.05 19.13 39.05 19.13"/><polygon class="a1e2db42-cefc-42df-a00f-f3eed983d04d" points="23.82 38.35 23.82 37.52 23.32 37.52 23.32 38.35 22.64 38.35 22.64 39.87 23.32 39.86 23.32 40.69 23.82 40.69 23.82 39.87 27.17 39.87 27.17 38.34 23.82 38.35"/><path class="a1e2db42-cefc-42df-a00f-f3eed983d04d" d="M26.12,33.46V35h.2c.61,0,.75.41.75.63a.66.66,0,0,1-.75.64h-.69V33.37a2.27,2.27,0,0,0,0,4.48,2.08,2.08,0,0,0,1.88-2.24A2.21,2.21,0,0,0,26.12,33.46Zm-1,2.77a1.13,1.13,0,0,1-.65-.1.6.6,0,0,1-.31-.53h0a.6.6,0,0,1,.31-.53,1.22,1.22,0,0,1,.65-.1Z" transform="translate(-0.13 -0.13)"/><rect class="a1e2db42-cefc-42df-a00f-f3eed983d04d" x="23.81" y="45.97" width="3.36" height="1.52"/><path class="a1e2db42-cefc-42df-a00f-f3eed983d04d" d="M25.08,30h2.21V28.48H25.46a1.64,1.64,0,0,0-1.68,1.72h0a1.84,1.84,0,0,0,.5,1.21h-.35v1.5h3.36v-1.5H25.08a.7.7,0,0,1-.61-.72A.67.67,0,0,1,25.08,30Z" transform="translate(-0.13 -0.13)"/><path class="a1e2db42-cefc-42df-a00f-f3eed983d04d" d="M24.78,14.57a5.39,5.39,0,0,0-5.37,5.69V52.42a5.37,5.37,0,1,0,10.73,0V20.26A5.38,5.38,0,0,0,24.78,14.57Zm4,37.83a4.06,4.06,0,1,1-8.09,0V20.27a4.06,4.06,0,1,1,8.09,0Z" transform="translate(-0.13 -0.13)"/><path class="a1e2db42-cefc-42df-a00f-f3eed983d04d" d="M25.08,42.33h2.21V40.82H25.46a1.64,1.64,0,0,0-1.68,1.72h0a1.84,1.84,0,0,0,.5,1.21h-.35v1.5h3.36v-1.5H25.08a.7.7,0,0,1-.61-.72A.67.67,0,0,1,25.08,42.33Z" transform="translate(-0.13 -0.13)"/><rect class="a1e2db42-cefc-42df-a00f-f3eed983d04d" x="22.12" y="45.97" width="1.03" height="1.52"/><polygon class="a1e2db42-cefc-42df-a00f-f3eed983d04d" points="22.12 49.91 25.64 49.91 22.12 52.09 22.12 53.66 27.17 53.66 27.17 52.1 23.64 52.1 27.17 49.91 27.17 48.35 22.12 48.35 22.12 49.91"/></g></svg>