<svg id="b467bc73-c416-4793-a254-bf8a12982107" data-name="texte" xmlns="http://www.w3.org/2000/svg" xmlns:xlink="http://www.w3.org/1999/xlink" viewBox="0 0 470.33 67.41"><defs><style>.afc6bae3-6ad2-430b-a589-eeaf0b3beea2{stroke:#9def48;stroke-miterlimit:10;stroke-width:0.75px;fill:url(#a5bacaeb-dc22-4e0c-b043-62a9b0a1f03c);}.ac779c5d-0f93-4129-aece-ec5a4b006147{fill:#9def48;}</style><linearGradient id="a5bacaeb-dc22-4e0c-b043-62a9b0a1f03c" x1="0.38" y1="33.7" x2="469.96" y2="33.7" gradientUnits="userSpaceOnUse"><stop offset="0" stop-color="#032c02"/><stop offset="1" stop-color="#207a09"/></linearGradient></defs><polygon class="afc6bae3-6ad2-430b-a589-eeaf0b3beea2" points="0.38 5.91 102.44 5.91 108.57 0.38 150.31 0.38 158.22 5.91 461.65 6.11 469.96 16 469.96 59.72 50.81 59.72 42.7 67.03 7.89 67.03 0.38 59.72 0.38 5.91"/><path class="ac779c5d-0f93-4129-aece-ec5a4b006147" d="M79.26,37.77h4.38A17.13,17.13,0,0,1,80,45.07H55.81a18.25,18.25,0,0,1-4.22-12.26,18.22,18.22,0,0,1,4.22-12.25H80a17.13,17.13,0,0,1,3.68,7.3H79.26a17.18,17.18,0,0,0-1.47-3.23H58a16.32,16.32,0,0,0-2.34,8.18A16.41,16.41,0,0,0,58,41H77.79A18.09,18.09,0,0,0,79.26,37.77Z" transform="translate(-0.13 -0.13)"/><path class="ac779c5d-0f93-4129-aece-ec5a4b006147" d="M91.26,34.83A17.46,17.46,0,0,0,93.46,41h2.7v4.07H91.28a18.2,18.2,0,0,1-4.23-12.26,18.12,18.12,0,0,1,4.23-12.25h4.88v4.07h-2.7a17.3,17.3,0,0,0-2.2,6.15h24.18a17.47,17.47,0,0,0-2.19-6.15h-2.71V20.56h4.88a18.12,18.12,0,0,1,4.23,12.25,18.2,18.2,0,0,1-4.23,12.26h-4.88V41h2.71a17.63,17.63,0,0,0,2.19-6.17Z" transform="translate(-0.13 -0.13)"/><path class="ac779c5d-0f93-4129-aece-ec5a4b006147" d="M129.87,38.25l-4.29,6.82H120.5l15.57-24.51h4.68L156.2,45.07h-5L147,38.25Zm14.56-4-6-9.59-6,9.59Z" transform="translate(-0.13 -0.13)"/><path class="ac779c5d-0f93-4129-aece-ec5a4b006147" d="M163.46,24.63a16.32,16.32,0,0,0-2.34,8.18A16.41,16.41,0,0,0,163.46,41h2.7v4.07h-4.88a18.2,18.2,0,0,1-4.23-12.26,18.12,18.12,0,0,1,4.23-12.25h24.14a18.12,18.12,0,0,1,4.23,12.25,18.2,18.2,0,0,1-4.23,12.26h-4.88V41h2.71a16.5,16.5,0,0,0,2.33-8.19,16.41,16.41,0,0,0-2.33-8.18Z" transform="translate(-0.13 -0.13)"/><path class="ac779c5d-0f93-4129-aece-ec5a4b006147" d="M199.47,24.63a16.32,16.32,0,0,0-2.34,8.18A16.41,16.41,0,0,0,199.47,41h2.7v4.07h-4.89a18.25,18.25,0,0,1-4.22-12.26,18.17,18.17,0,0,1,4.22-12.25h24.15a18.12,18.12,0,0,1,4.22,12.25,18.2,18.2,0,0,1-4.22,12.26h-4.89V41h2.72a16.5,16.5,0,0,0,2.33-8.19,16.41,16.41,0,0,0-2.33-8.18Z" transform="translate(-0.13 -0.13)"/><path class="ac779c5d-0f93-4129-aece-ec5a4b006147" d="M254,34.83H237a17.46,17.46,0,0,0,2.2,6.17h20.13l2.34,4.07H237.05a17.67,17.67,0,0,1-4.13-10.24h-3.85v-4h3.85a17.56,17.56,0,0,1,4.13-10.22h24.66l-2.34,4.07H239.24a17.3,17.3,0,0,0-2.2,6.15H254Z" transform="translate(-0.13 -0.13)"/><path class="ac779c5d-0f93-4129-aece-ec5a4b006147" d="M270.05,41h18.43l2.34,4.07H266V24L270.05,20Z" transform="translate(-0.13 -0.13)"/><path class="ac779c5d-0f93-4129-aece-ec5a4b006147" d="M320.83,30.78v4H304.49v-4Z" transform="translate(-0.13 -0.13)"/><path class="ac779c5d-0f93-4129-aece-ec5a4b006147" d="M347.37,45.07h-4.89a17.67,17.67,0,0,1-4.13-10.24H334.5v-4h3.85a17.56,17.56,0,0,1,4.13-10.22h24.66l-2.34,4.07H344.67a17.33,17.33,0,0,0-2.21,6.15h16.92v4H342.46A17.49,17.49,0,0,0,344.67,41h2.7Z" transform="translate(-0.13 -0.13)"/></svg>