<?xml version="1.0" encoding="utf-8"?>
<!-- Generator: Adobe Illustrator 24.1.2, SVG Export Plug-In . SVG Version: 6.00 Build 0)  -->
<svg version="1.1" id="Calque_1" xmlns="http://www.w3.org/2000/svg" xmlns:xlink="http://www.w3.org/1999/xlink" x="0px" y="0px"
	 viewBox="0 0 470.3 67.4" style="enable-background:new 0 0 470.3 67.4;" xml:space="preserve">
<style type="text/css">
	.st0{fill:url(#SVGID_1_);stroke:#9DEF48;stroke-width:0.75;stroke-miterlimit:10;}
	.st1{enable-background:new    ;}
	.st2{fill:#9DEF48;}
	.st3{fill:#FFFFFF;}
</style>
<g id="a4998e13-e2c4-4832-8279-5ff6246bf130">
	
		<linearGradient id="SVGID_1_" gradientUnits="userSpaceOnUse" x1="0.38" y1="36.295" x2="469.96" y2="36.295" gradientTransform="matrix(1 0 0 -1 0 70)">
		<stop  offset="0" style="stop-color:#032C02"/>
		<stop  offset="1" style="stop-color:#207A09"/>
	</linearGradient>
	<polygon class="st0" points="0.4,5.9 102.4,5.9 108.6,0.4 150.3,0.4 158.2,5.9 461.6,6.1 470,16 470,59.7 50.8,59.7 42.7,67 
		7.9,67 0.4,59.7 	"/>
	<g class="st1">
		<path class="st2" d="M65.8,24.7h-7.6c-1.5,2.6-2.3,5.3-2.3,8c0,2.6,0.8,5.3,2.3,8h2.6v4h-4.7c-2.7-3.2-4.1-7.2-4.1-11.9
			c0-4.7,1.4-8.7,4.1-11.9h9.8V17h3.9v3.7h9.8c2.7,3.2,4.1,7.2,4.1,11.9c0,4.7-1.4,8.7-4.1,11.9h-4.7v-4h2.6c1.5-2.7,2.3-5.3,2.3-8
			c0-2.7-0.8-5.3-2.3-8h-7.7v14.1h-3.9V24.7z"/>
	</g>
	<g class="st1">
		<path class="st2" d="M116.8,30.6l1.8,2c0,4.7-1.4,8.7-4.1,11.9H91c-1.7-2-2.9-4.4-3.6-7.1h4.3c0.4,1.1,0.8,2.1,1.4,3.1h19.2
			c1.1-2,1.8-4,2.1-6H88.7l-1.8-2c0-4.7,1.4-8.7,4.1-11.9h23.5c1.7,2,2.9,4.4,3.6,7.1h-4.3c-0.4-1.1-0.8-2.1-1.4-3.1H93.2
			c-1.1,2-1.9,4-2.1,6H116.8z"/>
	</g>
	<g class="st1">
		<path class="st2" d="M148.7,44.5l-11.5-9.3l-11.5,9.3h-6.4l14.7-11.9l-14.7-11.9h6.4l11.5,9.3l11.5-9.3h6.4l-14.7,11.9l14.7,11.9
			H148.7z"/>
	</g>
</g>
<g id="a51b9f7d-5b2d-4927-b441-62df0e19f6cd">
	<path class="st3" d="M27.4,33.7v-4.4h0.3c0.4,0,0.7-0.3,0.8-0.8c0-0.3,0-0.5-0.1-0.8c0-0.1-0.1-0.2-0.1-0.3
		c-0.2-0.3-0.6-0.3-0.8-0.1c0,0,0,0-0.1,0c-0.1,0.1-0.2,0.3-0.2,0.4c-0.1,0.3-0.1,0.6-0.2,0.9c-0.1,0.6-0.3,1.1-0.7,1.6
		c-0.2,0.3-0.6,0.5-0.9,0.6c-0.3,0-0.6,0-0.9-0.1c-0.6-0.2-1.1-0.6-1.4-1.1c-0.2-0.4-0.3-0.8-0.4-1.2c-0.1-0.8-0.1-1.7,0.1-2.5
		c0.1-0.4,0.2-0.7,0.4-1c0.3-0.4,0.7-0.6,1.2-0.6h0.5c0,0.1,0,2.1,0,2.4c-0.1,0-0.2,0-0.3,0c-0.2,0-0.4,0.1-0.5,0.3
		c-0.2,0.4-0.1,0.8,0.1,1.2c0.1,0.2,0.4,0.3,0.6,0.2c0.1,0,0.1-0.1,0.2-0.2c0.1-0.2,0.2-0.3,0.2-0.5c0.1-0.4,0.2-0.9,0.3-1.3
		c0.1-0.4,0.2-0.7,0.4-1c0.3-0.5,0.8-0.8,1.4-0.8c0.9,0,1.7,0.5,2.2,1.2c0.3,0.4,0.5,0.9,0.5,1.5c0.1,0.8,0.1,1.7,0,2.6
		c-0.1,0.3-0.2,0.6-0.3,0.9c-0.3,0.6-0.9,1.1-1.6,1.2h-0.1l0,0l0.2,0.1c0.7,0.5,1.2,1.1,1.5,1.9c0.4,0.9,0.5,1.9,0.3,2.9
		c-0.3,1.1-1.2,1.9-2.3,2.1c-0.8,0.2-1.7,0-2.5-0.4h-0.1c0,0.2,0.1,0.5,0.2,0.7c0.1,0.3,0.4,0.5,0.6,0.7c0.5,0.4,1,0.6,1.6,0.7
		c0.8,0.2,1.5,0.3,2.3,0.5h0.1v2.3l-2.3-0.5l-2.3-0.5L22.9,42v-2.2l0.8,0.2c-0.6-0.6-0.9-1.4-0.9-2.3l1.5,0.4l0,0l-0.1-0.1
		c-0.8-0.6-1.4-1.6-1.6-2.6c-0.1-0.6-0.1-1.1,0-1.7c0.1-0.8,0.5-1.5,1.2-1.9c0.4-0.3,0.8-0.4,1.3-0.5c0.4,0,0.8,0,1.2,0
		c0.1,0,0.1,0.1,0.2,0.1C26.7,32.3,27,33,27.4,33.7L27.4,33.7L27.4,33.7z M25.4,33.7c-0.2,0-0.4,0-0.6,0.1c-0.2,0-0.3,0.2-0.4,0.3
		c-0.2,0.3-0.2,0.6-0.1,0.9c0.1,0.2,0.2,0.4,0.4,0.6c0.6,0.5,1.4,0.9,2.2,0.9c0.3,0,0.6,0,0.9-0.2c0.3-0.1,0.4-0.4,0.4-0.7
		c0-0.4-0.2-0.8-0.5-1.1c-0.3-0.3-0.7-0.5-1.1-0.6C26.2,33.8,25.8,33.7,25.4,33.7L25.4,33.7z"/>
	<path class="st3" d="M29.6,54.7v2.6l-4.9-1.1l0,0l4.9,2.5v1.8l-4.9,0.2l0,0l4.9,1.2v2.7l-9.1-2v-3.6l5.1-0.1l0,0l-5.1-2.4v-3.7l0,0
		l8.9,2.1L29.6,54.7z"/>
	<path class="st3" d="M24.3,11.6V13l5.4,1.2v2.4l-5.4-1.2v1.2l-1.5-0.3v-1.2L22.2,15c-0.4-0.1-0.7-0.2-1-0.5
		c-0.4-0.3-0.6-0.8-0.6-1.2c0-0.2,0-0.4,0-0.6c0-0.3,0-0.7,0-1v-0.2l1.3,0.3c0,0.1,0,0.1,0,0.2c0,0.3,0.2,0.6,0.6,0.7l0.4,0.1v-1.5
		L21.1,11V8.7L22.8,9V7.8l1.5,0.3v1.2l0.9,0.2l2.2,0.5c0.1,0,0.2,0,0.3,0c0.1,0,0.3,0,0.3-0.2c0,0,0-0.1,0-0.1c0-0.1,0-0.3,0-0.4V9
		l1.6,0.4l0,0c0,0.5,0,1.1,0,1.6c0,0.3-0.1,0.6-0.2,0.9c-0.2,0.4-0.6,0.6-1,0.6c-0.3,0-0.6-0.1-0.9-0.1L24.3,11.6L24.3,11.6z"/>
	<path class="st3" d="M25.5,16.6c0.7,0,1.4,0.1,2,0.4c0.9,0.4,1.5,1.1,1.9,2c0.3,0.7,0.5,1.5,0.4,2.2c0,0.8-0.4,1.6-1,2.2
		c-0.4,0.4-1,0.7-1.6,0.8c-0.7,0.1-1.4-0.1-2-0.4c-1-0.4-1.8-1.2-2.3-2.1c-0.3-0.7-0.4-1.4-0.4-2.1c0-0.5,0.1-1,0.3-1.5
		c0.3-0.8,1.1-1.3,1.9-1.5C25,16.7,25.3,16.6,25.5,16.6z M25.4,19c-0.3,0-0.5,0-0.8,0.1c-0.3,0.1-0.5,0.3-0.5,0.6
		c-0.1,0.2,0,0.5,0.1,0.7c0.1,0.2,0.2,0.3,0.3,0.4c0.7,0.6,1.5,0.9,2.5,0.9c0.3,0,0.6-0.1,0.8-0.3c0.2-0.1,0.3-0.3,0.3-0.6
		c0-0.5-0.2-0.9-0.5-1.2C27,19.3,26.2,19,25.4,19z"/>
	<path class="st3" d="M27.2,46v-2.6h0.1c0.8,0.3,1.5,0.9,1.9,1.6c0.3,0.5,0.5,1.1,0.6,1.7c0.1,0.4,0.1,0.8,0.1,1.2
		c0,1.3-0.9,2.3-2.2,2.5c-1.1,0.2-2.2,0-3.1-0.6c-0.9-0.6-1.6-1.5-1.8-2.6c-0.1-0.5-0.2-1.1-0.1-1.7c0-0.3,0.1-0.7,0.2-1
		c0.3-0.9,1.1-1.5,2-1.6h0.5v2.5h-0.2c-0.1,0-0.3,0-0.4,0c-0.4,0.1-0.6,0.4-0.5,0.8c0,0,0,0,0,0c0,0.2,0.1,0.4,0.2,0.5
		c0.1,0.1,0.2,0.3,0.4,0.4c0.6,0.5,1.4,0.7,2.2,0.8c0.1,0,0.3,0,0.4-0.1c0.5-0.1,0.7-0.6,0.6-1.1c0,0,0,0,0,0
		c-0.1-0.3-0.4-0.6-0.7-0.8h-0.1L27.2,46z"/>
	<path class="st3" d="M22.8,52.4V50l6.8,1.5V54L22.8,52.4z"/>
	<path class="st3" d="M21.9,52.2l-1.3-0.3v-2.4l1.3,0.3V52.2z"/>
</g>
</svg>
