<svg xmlns="http://www.w3.org/2000/svg" xmlns:xlink="http://www.w3.org/1999/xlink" viewBox="0 0 470.33 67.41"><defs><style>.bb89e224-a09e-461a-a236-49a86e5b6b7e{stroke:#9def48;stroke-miterlimit:10;stroke-width:0.75px;fill:url(#f15b1130-017b-4a65-bd66-1b9fe0d5592e);}.bc9269ee-5a6a-41de-b23d-27f0d70f0de6{fill:#9def48;}.fbd4314c-fd3a-4f0f-8a7c-884ced418b74{fill:#e60012;}.bcb5e6cf-cca6-4465-8254-3fbe6d5896a0{fill:#fff;}</style><linearGradient id="f15b1130-017b-4a65-bd66-1b9fe0d5592e" x1="0.38" y1="33.7" x2="469.96" y2="33.7" gradientUnits="userSpaceOnUse"><stop offset="0" stop-color="#032c02"/><stop offset="1" stop-color="#207a09"/></linearGradient></defs><g id="a38cca07-03f4-4a17-a094-abb5c593e9bc" data-name="texte"><polygon class="bb89e224-a09e-461a-a236-49a86e5b6b7e" points="0.38 5.91 102.44 5.91 108.57 0.38 150.31 0.38 158.22 5.91 461.65 6.11 469.96 16 469.96 59.72 50.81 59.72 42.7 67.03 7.89 67.03 0.38 59.72 0.38 5.91"/><path class="bc9269ee-5a6a-41de-b23d-27f0d70f0de6" d="M81.35,30.66l1.79,2A17.68,17.68,0,0,1,79,44.54H55.58A16.6,16.6,0,0,1,52,37.45h4.25a19.52,19.52,0,0,0,1.44,3.14H76.93a16.53,16.53,0,0,0,2.12-6H53.27l-1.79-2a17.71,17.71,0,0,1,4.1-11.9H79a16.6,16.6,0,0,1,3.57,7.09H78.36a17.86,17.86,0,0,0-1.43-3.14H57.7a16.93,16.93,0,0,0-2.14,6Z" transform="translate(-0.06 -0.03)"/><path class="bc9269ee-5a6a-41de-b23d-27f0d70f0de6" d="M93.07,37.91,88.9,44.54H84L99.09,20.73h4.55l15,23.81h-4.87l-4.11-6.63ZM107.21,34l-5.81-9.31L95.54,34Z" transform="translate(-0.06 -0.03)"/><path class="bc9269ee-5a6a-41de-b23d-27f0d70f0de6" d="M130.54,41.17l-4,3.95V24.68H113.67V20.73h29.78v3.95H130.54Z" transform="translate(-0.06 -0.03)"/><path class="bc9269ee-5a6a-41de-b23d-27f0d70f0de6" d="M168,34.59H151.6a17.1,17.1,0,0,0,2.14,6H173.3l2.28,3.95h-24a17.11,17.11,0,0,1-4-9.95h-3.73V30.66h3.73a17,17,0,0,1,4-9.93h24l-2.28,3.95H153.74a16.93,16.93,0,0,0-2.14,6H168Z" transform="translate(-0.06 -0.03)"/><path class="bc9269ee-5a6a-41de-b23d-27f0d70f0de6" d="M183.68,40.59h17.89l2.28,3.95H179.73V24.1l4-4Z" transform="translate(-0.06 -0.03)"/><path class="bc9269ee-5a6a-41de-b23d-27f0d70f0de6" d="M212,40.59h17.9l2.27,3.95H208V24.1l3.95-4Z" transform="translate(-0.06 -0.03)"/><path class="bc9269ee-5a6a-41de-b23d-27f0d70f0de6" d="M243.71,37.91l-4.17,6.63h-4.93l15.12-23.81h4.55l15,23.81h-4.86l-4.12-6.63ZM257.85,34,252,24.67,246.18,34Z" transform="translate(-0.06 -0.03)"/><path class="bc9269ee-5a6a-41de-b23d-27f0d70f0de6" d="M298.16,20.73l-15,23.81h-4.55L263.48,20.73h4.93l12.5,19.87L293.3,20.73Z" transform="translate(-0.06 -0.03)"/><path class="bc9269ee-5a6a-41de-b23d-27f0d70f0de6" d="M305.43,44.54h-3.95V24.1l3.95-4Z" transform="translate(-0.06 -0.03)"/><path class="bc9269ee-5a6a-41de-b23d-27f0d70f0de6" d="M334.58,34.59H318.15a17.1,17.1,0,0,0,2.14,6h19.56l2.27,3.95H318.17a17.11,17.11,0,0,1-4-9.95h-3.74V30.66h3.74a17,17,0,0,1,4-9.93h23.95l-2.27,3.95H320.29a16.93,16.93,0,0,0-2.14,6h16.43Z" transform="translate(-0.06 -0.03)"/><path class="bc9269ee-5a6a-41de-b23d-27f0d70f0de6" d="M357.64,40.59V26.48h3.94V40.59h7.65a15.94,15.94,0,0,0,2.26-8,16,16,0,0,0-2.26-8h-2.64V20.73h4.75a17.71,17.71,0,0,1,4.1,11.9,17.68,17.68,0,0,1-4.1,11.91h-9.76v3.73h-3.94V44.54h-9.76a17.68,17.68,0,0,1-4.1-11.91,17.71,17.71,0,0,1,4.1-11.9h4.75v3.95H350a15.91,15.91,0,0,0-2.28,8,15.86,15.86,0,0,0,2.28,8Z" transform="translate(-0.06 -0.03)"/></g><g id="e2aa4c38-e682-4985-87b3-d7a76307a3d9" data-name="nintendo"><path class="fbd4314c-fd3a-4f0f-8a7c-884ced418b74" d="M25.59,23.22A2.08,2.08,0,0,0,27.48,21a2.08,2.08,0,0,0-1.89-2.22A2.08,2.08,0,0,0,23.7,21,2.08,2.08,0,0,0,25.59,23.22Zm-.72-2.83H26.3c.53,0,.75.32.75.62s-.22.62-.75.62H24.87c-.53,0-.75-.32-.75-.62S24.34,20.39,24.87,20.39Z" transform="translate(-0.06 -0.03)"/><path class="fbd4314c-fd3a-4f0f-8a7c-884ced418b74" d="M23.8,26.07A1.82,1.82,0,0,0,25.56,28a1.77,1.77,0,0,0,1.66-1,1.84,1.84,0,0,0-.12-1.75h.19v-1.5H22.24v1.5H24.1A2,2,0,0,0,23.8,26.07ZM25,25.2h1.19a.6.6,0,1,1,0,1.19H25a.6.6,0,1,1,0-1.19Z" transform="translate(-0.06 -0.03)"/><polygon class="bcb5e6cf-cca6-4465-8254-3fbe6d5896a0" points="39.11 19.23 39.11 19.23 39.11 19.23 39.11 19.23"/><polygon class="fbd4314c-fd3a-4f0f-8a7c-884ced418b74" points="23.88 38.45 23.88 37.62 23.38 37.62 23.38 38.45 22.7 38.45 22.7 39.96 23.38 39.96 23.38 40.79 23.88 40.79 23.88 39.96 27.23 39.96 27.23 38.44 23.88 38.45"/><path class="fbd4314c-fd3a-4f0f-8a7c-884ced418b74" d="M26.12,33.46V35h.2c.61,0,.75.41.75.63a.66.66,0,0,1-.75.64h-.69V33.37a2.27,2.27,0,0,0,0,4.48,2.08,2.08,0,0,0,1.88-2.24A2.21,2.21,0,0,0,26.12,33.46Zm-1,2.77a1.13,1.13,0,0,1-.65-.1.6.6,0,0,1-.31-.53h0a.6.6,0,0,1,.31-.53,1.22,1.22,0,0,1,.65-.1Z" transform="translate(-0.06 -0.03)"/><rect class="fbd4314c-fd3a-4f0f-8a7c-884ced418b74" x="23.87" y="46.06" width="3.36" height="1.52"/><path class="fbd4314c-fd3a-4f0f-8a7c-884ced418b74" d="M25.08,30h2.21V28.48H25.46a1.64,1.64,0,0,0-1.68,1.72h0a1.84,1.84,0,0,0,.5,1.21h-.35v1.5h3.36v-1.5H25.08a.7.7,0,0,1-.61-.72A.67.67,0,0,1,25.08,30Z" transform="translate(-0.06 -0.03)"/><path class="fbd4314c-fd3a-4f0f-8a7c-884ced418b74" d="M24.78,14.57a5.39,5.39,0,0,0-5.37,5.69V52.42a5.37,5.37,0,1,0,10.73,0V20.26A5.38,5.38,0,0,0,24.78,14.57Zm4,37.83a4.06,4.06,0,1,1-8.09,0V20.27a4.06,4.06,0,1,1,8.09,0Z" transform="translate(-0.06 -0.03)"/><path class="fbd4314c-fd3a-4f0f-8a7c-884ced418b74" d="M25.08,42.33h2.21V40.82H25.46a1.64,1.64,0,0,0-1.68,1.72h0a1.84,1.84,0,0,0,.5,1.21h-.35v1.5h3.36v-1.5H25.08a.7.7,0,0,1-.61-.72A.67.67,0,0,1,25.08,42.33Z" transform="translate(-0.06 -0.03)"/><rect class="fbd4314c-fd3a-4f0f-8a7c-884ced418b74" x="22.18" y="46.06" width="1.03" height="1.52"/><polygon class="fbd4314c-fd3a-4f0f-8a7c-884ced418b74" points="22.18 50.01 25.7 50.01 22.18 52.19 22.18 53.76 27.23 53.76 27.23 52.2 23.71 52.2 27.23 50.01 27.23 48.45 22.18 48.45 22.18 50.01"/></g></svg>