<svg id="fdb348bb-53d5-49cf-92f7-4a56e919cccf" data-name="texte" xmlns="http://www.w3.org/2000/svg" xmlns:xlink="http://www.w3.org/1999/xlink" viewBox="0 0 470.33 67.41"><defs><style>.a3dda800-1fd4-434f-9f09-e638642ea3f8{stroke:#9def48;stroke-miterlimit:10;stroke-width:0.75px;fill:url(#a61623a6-dff3-40ed-93b1-4a633a9333da);}.bbc9464e-e491-4b69-b5b6-e64003a816ad{fill:#9def48;}</style><linearGradient id="a61623a6-dff3-40ed-93b1-4a633a9333da" x1="0.38" y1="33.7" x2="469.96" y2="33.7" gradientUnits="userSpaceOnUse"><stop offset="0" stop-color="#032c02"/><stop offset="1" stop-color="#207a09"/></linearGradient></defs><polygon class="a3dda800-1fd4-434f-9f09-e638642ea3f8" points="0.38 5.91 102.44 5.91 108.57 0.38 150.31 0.38 158.22 5.91 461.65 6.11 469.96 16 469.96 59.72 50.81 59.72 42.7 67.03 7.89 67.03 0.38 59.72 0.38 5.91"/><path class="bbc9464e-e491-4b69-b5b6-e64003a816ad" d="M77.83,31.8l1.53,1.69a15.05,15.05,0,0,1-3.5,10.15h-20a14.21,14.21,0,0,1-3-6h3.62a16.48,16.48,0,0,0,1.24,2.68H74.06a14.12,14.12,0,0,0,1.82-5.11h-22l-1.53-1.67a15.11,15.11,0,0,1,3.49-10.16h20a14.28,14.28,0,0,1,3,6.05H75.28a14.83,14.83,0,0,0-1.22-2.68H57.67a14.36,14.36,0,0,0-1.83,5.1Z" transform="translate(-0.06 -0.03)"/><path class="bbc9464e-e491-4b69-b5b6-e64003a816ad" d="M110.78,35.16h-22a14.47,14.47,0,0,0,1.83,5.11h2.23v3.37h-4a14.59,14.59,0,0,1-3.42-8.48H82.19V31.8h3.19a14.57,14.57,0,0,1,3.42-8.47h20a15.08,15.08,0,0,1,3.5,10.16Zm-22-3.36h20A14.52,14.52,0,0,0,107,26.7H90.62A14.36,14.36,0,0,0,88.79,31.8Z" transform="translate(-0.06 -0.03)"/><path class="bbc9464e-e491-4b69-b5b6-e64003a816ad" d="M138.58,43.64h-20a15.09,15.09,0,0,1-3.5-10.15,15.08,15.08,0,0,1,3.5-10.16h20a15.08,15.08,0,0,1,3.5,10.16A15.09,15.09,0,0,1,138.58,43.64Zm-1.8-3.37a13.71,13.71,0,0,0,1.92-6.78,13.66,13.66,0,0,0-1.92-6.79h-16.4a13.59,13.59,0,0,0-1.94,6.79,13.64,13.64,0,0,0,1.94,6.78Z" transform="translate(-0.06 -0.03)"/><path class="bbc9464e-e491-4b69-b5b6-e64003a816ad" d="M167.48,40.27h2.25a14.61,14.61,0,0,0,1.81-5.11h-20a14.44,14.44,0,0,0,1.82,5.11h2.24v3.37h-4a14.67,14.67,0,0,1-3.43-8.48h-3.18V31.8h3.18a14.64,14.64,0,0,1,3.43-8.47h20A14.57,14.57,0,0,1,175,31.82l-1.45.82v1.7l1.45.82a14.59,14.59,0,0,1-3.42,8.48h-4.05Zm-16-8.47h20a14.5,14.5,0,0,0-1.81-5.1h-16.4A14.33,14.33,0,0,0,151.51,31.8Z" transform="translate(-0.06 -0.03)"/><path class="bbc9464e-e491-4b69-b5b6-e64003a816ad" d="M191.47,40.77l-3.37,3.37V26.7h-11V23.33h25.4V26.7h-11Z" transform="translate(-0.06 -0.03)"/><path class="bbc9464e-e491-4b69-b5b6-e64003a816ad" d="M214.52,23.33h22.37a15.08,15.08,0,0,1,3.5,10.16,15.09,15.09,0,0,1-3.5,10.15H214.52Zm3.37,16.94h17.2A13.62,13.62,0,0,0,237,33.49a13.57,13.57,0,0,0-1.93-6.79h-17.2Z" transform="translate(-0.06 -0.03)"/><path class="bbc9464e-e491-4b69-b5b6-e64003a816ad" d="M263.84,35.16h-14a14.47,14.47,0,0,0,1.83,5.11h16.68l1.94,3.37H249.83a14.59,14.59,0,0,1-3.42-8.48h-3.19V31.8h3.19a14.57,14.57,0,0,1,3.42-8.47h20.44l-1.94,3.37H251.65a14.36,14.36,0,0,0-1.83,5.1h14Z" transform="translate(-0.06 -0.03)"/><path class="bbc9464e-e491-4b69-b5b6-e64003a816ad" d="M304.52,37.59h3.63a14.22,14.22,0,0,1-3,6h-20a15.08,15.08,0,0,1-3.49-10.15,15.11,15.11,0,0,1,3.49-10.16h20a14.28,14.28,0,0,1,3,6.05h-3.63a14.83,14.83,0,0,0-1.22-2.68H286.91A13.49,13.49,0,0,0,285,33.49a13.53,13.53,0,0,0,1.94,6.78H303.3A15.48,15.48,0,0,0,304.52,37.59Z" transform="translate(-0.06 -0.03)"/><path class="bbc9464e-e491-4b69-b5b6-e64003a816ad" d="M334.48,43.64h-20A15,15,0,0,1,311,33.49a15,15,0,0,1,3.5-10.16h20A15,15,0,0,1,338,33.49,15,15,0,0,1,334.48,43.64Zm-1.79-3.37a13.71,13.71,0,0,0,1.92-6.78,13.66,13.66,0,0,0-1.92-6.79h-16.4a13.49,13.49,0,0,0-1.94,6.79,13.53,13.53,0,0,0,1.94,6.78Z" transform="translate(-0.06 -0.03)"/><path class="bbc9464e-e491-4b69-b5b6-e64003a816ad" d="M346.12,40.27h16.4a13.67,13.67,0,0,0,1.93-6.78,13.73,13.73,0,0,0-1.93-6.79h-2.25V23.33h4.05a15.12,15.12,0,0,1,3.5,10.16,15.05,15.05,0,0,1-3.5,10.15h-20a15.05,15.05,0,0,1-3.5-10.15,15.12,15.12,0,0,1,3.5-10.16h4.05V26.7h-2.24a13.64,13.64,0,0,0-1.94,6.79A13.58,13.58,0,0,0,346.12,40.27Z" transform="translate(-0.06 -0.03)"/><path class="bbc9464e-e491-4b69-b5b6-e64003a816ad" d="M393.22,40.27h2.25a14.61,14.61,0,0,0,1.81-5.11h-20a14.44,14.44,0,0,0,1.82,5.11h2.24v3.37h-4.05a14.67,14.67,0,0,1-3.43-8.48h-3.18V31.8h3.18a14.64,14.64,0,0,1,3.43-8.47h20a14.65,14.65,0,0,1,3.43,8.49l-1.46.82v1.7l1.46.82a14.67,14.67,0,0,1-3.43,8.48h-4Zm-16-8.47h20a14.5,14.5,0,0,0-1.81-5.1h-16.4A14.33,14.33,0,0,0,377.25,31.8Z" transform="translate(-0.06 -0.03)"/><path class="bbc9464e-e491-4b69-b5b6-e64003a816ad" d="M429,31.8l1.53,1.69A15,15,0,0,1,427,43.64H407a14.11,14.11,0,0,1-3-6h3.63a15.62,15.62,0,0,0,1.23,2.68h16.4a14.28,14.28,0,0,0,1.81-5.11h-22l-1.53-1.67A15.12,15.12,0,0,1,407,23.33h20a14.17,14.17,0,0,1,3.05,6.05h-3.63a14.77,14.77,0,0,0-1.21-2.68h-16.4A14.55,14.55,0,0,0,407,31.8Z" transform="translate(-0.06 -0.03)"/><path class="bbc9464e-e491-4b69-b5b6-e64003a816ad" d="M454,35.16H440a14.67,14.67,0,0,0,1.83,5.11h16.68l1.94,3.37H440a14.6,14.6,0,0,1-3.43-8.48h-3.19V31.8h3.19A14.58,14.58,0,0,1,440,23.33h20.43l-1.94,3.37H441.79A14.55,14.55,0,0,0,440,31.8h14Z" transform="translate(-0.06 -0.03)"/></svg>