<svg id="befd651d-5588-4ed5-bbc7-fc74f6a5ba8f" data-name="texte" xmlns="http://www.w3.org/2000/svg" xmlns:xlink="http://www.w3.org/1999/xlink" viewBox="0 0 470.33 67.41"><defs><style>.bcd59942-f6c6-4c11-b984-430ce9de5d1e{stroke:#9def48;stroke-miterlimit:10;stroke-width:0.75px;fill:url(#bdaea8cf-bca0-410a-875a-6c414d2040b3);}.ec6f224c-bab9-48a3-86b2-0ad13df2c6a4{fill:#9def48;}</style><linearGradient id="bdaea8cf-bca0-410a-875a-6c414d2040b3" x1="0.38" y1="33.7" x2="469.96" y2="33.7" gradientUnits="userSpaceOnUse"><stop offset="0" stop-color="#032c02"/><stop offset="1" stop-color="#207a09"/></linearGradient></defs><polygon class="bcd59942-f6c6-4c11-b984-430ce9de5d1e" points="0.38 5.91 102.44 5.91 108.57 0.38 150.31 0.38 158.22 5.91 461.65 6.11 469.96 16 469.96 59.72 50.81 59.72 42.7 67.03 7.89 67.03 0.38 59.72 0.38 5.91"/><path class="ec6f224c-bab9-48a3-86b2-0ad13df2c6a4" d="M62,44.41H57.78a15.07,15.07,0,0,1-3.54-8.77h-3.3V32.17h3.3a15,15,0,0,1,3.54-8.76H78.92l-2,3.48H59.66a14.77,14.77,0,0,0-1.89,5.28h14.5v3.47H57.77a14.88,14.88,0,0,0,1.89,5.29H62Z" transform="translate(-0.06 -0.03)"/><path class="ec6f224c-bab9-48a3-86b2-0ad13df2c6a4" d="M85.33,44.41H81.85v-18l3.48-3.49Z" transform="translate(-0.06 -0.03)"/><path class="ec6f224c-bab9-48a3-86b2-0ad13df2c6a4" d="M94.68,40.93h15.79l2,3.48H91.19v-18l3.49-3.49Z" transform="translate(-0.06 -0.03)"/><path class="ec6f224c-bab9-48a3-86b2-0ad13df2c6a4" d="M125.44,26.89H118.7a14.11,14.11,0,0,0-2,7,14.16,14.16,0,0,0,2,7H121v3.48h-4.19a15.6,15.6,0,0,1-3.62-10.5,15.57,15.57,0,0,1,3.62-10.5h8.61v-3.3h3.47v3.3h8.62a15.57,15.57,0,0,1,3.62,10.5,15.6,15.6,0,0,1-3.62,10.5h-4.19V40.93h2.33a14.25,14.25,0,0,0,2-7,14.19,14.19,0,0,0-2-7h-6.76V39.34h-3.47Z" transform="translate(-0.06 -0.03)"/><path class="ec6f224c-bab9-48a3-86b2-0ad13df2c6a4" d="M157.82,44.41h-3.49v-18l3.49-3.49Z" transform="translate(-0.06 -0.03)"/><path class="ec6f224c-bab9-48a3-86b2-0ad13df2c6a4" d="M167.7,26.89a14,14,0,0,0-2,7,14.06,14.06,0,0,0,2,7H170v3.48h-4.19a15.6,15.6,0,0,1-3.62-10.5,15.57,15.57,0,0,1,3.62-10.5h20.7a15.56,15.56,0,0,1,3.61,10.5,15.6,15.6,0,0,1-3.61,10.5h-4.19V40.93h2.33a14.25,14.25,0,0,0,2-7,14.19,14.19,0,0,0-2-7Z" transform="translate(-0.06 -0.03)"/><path class="ec6f224c-bab9-48a3-86b2-0ad13df2c6a4" d="M207.22,41.44l-3.48,3.49v-18h-11.4V23.41h26.28v3.48h-11.4Z" transform="translate(-0.06 -0.03)"/><path class="ec6f224c-bab9-48a3-86b2-0ad13df2c6a4" d="M240.32,35.64H225.81a15.28,15.28,0,0,0,1.89,5.29H245l2,3.48H225.83a15.15,15.15,0,0,1-3.55-8.77H219V32.17h3.29a15.09,15.09,0,0,1,3.55-8.76H247l-2,3.48H227.7a15.16,15.16,0,0,0-1.89,5.28h14.51Z" transform="translate(-0.06 -0.03)"/><path class="ec6f224c-bab9-48a3-86b2-0ad13df2c6a4" d="M269.58,40.93h2.33a15.25,15.25,0,0,0,1.88-5.29H253.06A14.88,14.88,0,0,0,255,40.93h2.31v3.48h-4.19a15.07,15.07,0,0,1-3.54-8.77h-3.3V32.17h3.3a15,15,0,0,1,3.54-8.76h20.7a15.09,15.09,0,0,1,3.55,8.77l-1.51.85v1.76l1.51.85a15.15,15.15,0,0,1-3.55,8.77h-4.19Zm-16.52-8.76h20.73a15.13,15.13,0,0,0-1.88-5.28H255A14.77,14.77,0,0,0,253.06,32.17Z" transform="translate(-0.06 -0.03)"/><path class="ec6f224c-bab9-48a3-86b2-0ad13df2c6a4" d="M286.08,38.57l-3.68,5.84h-4.35l13.34-21h4l13.24,21h-4.29l-3.63-5.84Zm12.48-3.47-5.13-8.22-5.17,8.22Z" transform="translate(-0.06 -0.03)"/><path class="ec6f224c-bab9-48a3-86b2-0ad13df2c6a4" d="M333.1,38.16h3.75a14.7,14.7,0,0,1-3.15,6.25H313a15.6,15.6,0,0,1-3.62-10.5A15.6,15.6,0,0,1,313,23.41h20.7a14.7,14.7,0,0,1,3.15,6.25H333.1a15.13,15.13,0,0,0-1.26-2.77h-17a14,14,0,0,0-2,7,14.08,14.08,0,0,0,2,7h17A15.77,15.77,0,0,0,333.1,38.16Z" transform="translate(-0.06 -0.03)"/><path class="ec6f224c-bab9-48a3-86b2-0ad13df2c6a4" d="M353.93,41.44l-3.49,3.49v-18H339.05V23.41h26.27v3.48H353.93Z" transform="translate(-0.06 -0.03)"/><path class="ec6f224c-bab9-48a3-86b2-0ad13df2c6a4" d="M373.21,44.41h-3.49v-18l3.49-3.49Z" transform="translate(-0.06 -0.03)"/><path class="ec6f224c-bab9-48a3-86b2-0ad13df2c6a4" d="M388.63,44.41h-4.19a15.07,15.07,0,0,1-3.54-8.77h-3.3V32.17h3.3a15,15,0,0,1,3.54-8.76h21.14l-2,3.48H386.32a14.77,14.77,0,0,0-1.89,5.28h14.5v3.47h-14.5a14.88,14.88,0,0,0,1.89,5.29h2.31Z" transform="translate(-0.06 -0.03)"/></svg>