<svg id="a1111437-5afb-4994-8319-569bbc569472" data-name="texte" xmlns="http://www.w3.org/2000/svg" xmlns:xlink="http://www.w3.org/1999/xlink" viewBox="0 0 470.33 67.41"><defs><style>.abca020e-5dea-4f0c-8fab-2a7264437342{stroke:#9def48;stroke-miterlimit:10;stroke-width:0.75px;fill:url(#b9cdb035-f569-4bc8-ab13-b41beb6cce9a);}.a73f4d6a-4b5b-47a6-b575-dec4d9289bb7{fill:#9def48;}</style><linearGradient id="b9cdb035-f569-4bc8-ab13-b41beb6cce9a" x1="0.38" y1="33.7" x2="469.96" y2="33.7" gradientUnits="userSpaceOnUse"><stop offset="0" stop-color="#032c02"/><stop offset="1" stop-color="#207a09"/></linearGradient></defs><polygon class="abca020e-5dea-4f0c-8fab-2a7264437342" points="0.38 5.91 102.44 5.91 108.57 0.38 150.31 0.38 158.22 5.91 461.65 6.11 469.96 16 469.96 59.72 50.81 59.72 42.7 67.03 7.89 67.03 0.38 59.72 0.38 5.91"/><path class="a73f4d6a-4b5b-47a6-b575-dec4d9289bb7" d="M77.29,30.52l1.58,1.74a15.6,15.6,0,0,1-3.61,10.51H54.56a14.79,14.79,0,0,1-3.15-6.26h3.75a16.67,16.67,0,0,0,1.27,2.77h17A14.7,14.7,0,0,0,75.27,34H52.52l-1.58-1.73a15.6,15.6,0,0,1,3.62-10.5h20.7A14.75,14.75,0,0,1,78.41,28H74.66a16.52,16.52,0,0,0-1.26-2.76h-17a15,15,0,0,0-1.89,5.27Z" transform="translate(-0.06 -0.03)"/><path class="a73f4d6a-4b5b-47a6-b575-dec4d9289bb7" d="M111.38,34H88.63a14.88,14.88,0,0,0,1.89,5.29h2.31v3.49H88.65A15.07,15.07,0,0,1,85.1,34H81.8V30.52h3.3a15,15,0,0,1,3.55-8.76h20.69A15.52,15.52,0,0,1,113,32.26ZM88.63,30.52h20.73a15,15,0,0,0-1.88-5.27h-17A14.66,14.66,0,0,0,88.63,30.52Z" transform="translate(-0.06 -0.03)"/><path class="a73f4d6a-4b5b-47a6-b575-dec4d9289bb7" d="M140.13,42.77H119.44a15.6,15.6,0,0,1-3.62-10.51,15.52,15.52,0,0,1,3.62-10.5h20.69a15.52,15.52,0,0,1,3.62,10.5A15.6,15.6,0,0,1,140.13,42.77Zm-1.86-3.49a14.13,14.13,0,0,0,2-7,14,14,0,0,0-2-7h-17a14,14,0,0,0-2,7,14,14,0,0,0,2,7Z" transform="translate(-0.06 -0.03)"/><path class="a73f4d6a-4b5b-47a6-b575-dec4d9289bb7" d="M170,39.28h2.33A15.25,15.25,0,0,0,174.24,34H153.51a14.88,14.88,0,0,0,1.89,5.29h2.31v3.49h-4.19A15.13,15.13,0,0,1,150,34h-3.3V30.52H150a15,15,0,0,1,3.54-8.76h20.7a15.12,15.12,0,0,1,3.55,8.77l-1.51.85v1.76l1.51.85a15.2,15.2,0,0,1-3.55,8.78H170Zm-16.52-8.76h20.73a15,15,0,0,0-1.88-5.27h-17A14.66,14.66,0,0,0,153.51,30.52Z" transform="translate(-0.06 -0.03)"/><path class="a73f4d6a-4b5b-47a6-b575-dec4d9289bb7" d="M194.85,39.79l-3.49,3.49v-18H180V21.76h26.28v3.49H194.85Z" transform="translate(-0.06 -0.03)"/></svg>