<svg xmlns="http://www.w3.org/2000/svg" xmlns:xlink="http://www.w3.org/1999/xlink" viewBox="0 0 470.58 67.66"><defs><style>.b3469eee-0476-44c3-afff-f444c084ab06{stroke:#9def48;stroke-miterlimit:10;fill:url(#bada1925-0a3e-4410-9b93-e13c64fc4cd2);}.a6ec5f5e-4b35-472d-80df-0a4b4c01fdb6{fill:#9def48;}.a23418a2-4267-40b9-ab13-d11367caf4a1{fill:#fff;}</style><linearGradient id="bada1925-0a3e-4410-9b93-e13c64fc4cd2" x1="0.5" y1="33.83" x2="470.08" y2="33.83" gradientUnits="userSpaceOnUse"><stop offset="0" stop-color="#032c02"/><stop offset="1" stop-color="#207a09"/></linearGradient></defs><g id="f653fe75-e33f-4af9-942a-d3bcdae5e020" data-name="calque3"><polygon class="b3469eee-0476-44c3-afff-f444c084ab06" points="0.5 6.04 102.57 6.04 108.7 0.5 150.44 0.5 158.35 6.04 461.77 6.24 470.08 16.13 470.08 59.84 50.94 59.84 42.83 67.16 8.02 67.16 0.5 59.84 0.5 6.04"/><path class="a6ec5f5e-4b35-472d-80df-0a4b4c01fdb6" d="M63.73,38,59.44,44.8H54.37L69.93,20.29h4.69L90.07,44.8h-5L80.82,38Zm14.56-4-6-9.59-6,9.59Z"/><path class="a6ec5f5e-4b35-472d-80df-0a4b4c01fdb6" d="M122,34.56H95.47a17.46,17.46,0,0,0,2.2,6.17h2.7V44.8H95.48a17.67,17.67,0,0,1-4.13-10.24H87.5V30.51h3.85a17.59,17.59,0,0,1,4.13-10.22h24.15a18.14,18.14,0,0,1,4.22,12.26ZM95.47,30.51h24.18a17.67,17.67,0,0,0-2.19-6.15H97.67A17.3,17.3,0,0,0,95.47,30.51Z"/><path class="a6ec5f5e-4b35-472d-80df-0a4b4c01fdb6" d="M161.69,34.56H135.15a17.66,17.66,0,0,0,2.2,6.17h2.7V44.8h-4.88A17.62,17.62,0,0,1,131,34.56h-3.84V30.51H131a17.53,17.53,0,0,1,4.14-10.22h24.14a18.15,18.15,0,0,1,4.23,12.26Zm-26.54-4.05h24.18a17.27,17.27,0,0,0-2.19-6.15H137.35A17.49,17.49,0,0,0,135.15,30.51Z"/><path class="a6ec5f5e-4b35-472d-80df-0a4b4c01fdb6" d="M171.79,40.73h18.42l2.34,4.07H167.72v-21l4.07-4.07Z"/><path class="a6ec5f5e-4b35-472d-80df-0a4b4c01fdb6" d="M215.73,34.56H198.81a17.66,17.66,0,0,0,2.2,6.17h20.14l2.34,4.07H198.83a17.62,17.62,0,0,1-4.14-10.24h-3.84V30.51h3.84a17.53,17.53,0,0,1,4.14-10.22h24.66l-2.34,4.07H201a17.49,17.49,0,0,0-2.2,6.15h16.92Z"/><path class="a6ec5f5e-4b35-472d-80df-0a4b4c01fdb6" d="M242.94,44.8h-4.07v-21l4.07-4.07Z"/><path class="a6ec5f5e-4b35-472d-80df-0a4b4c01fdb6" d="M253.84,44.8h-4.07v-21l4.07-4.07Z"/></g><g id="aff49dee-bced-47f9-949e-3f8b78e12ef7" data-name="apple"><rect class="a23418a2-4267-40b9-ab13-d11367caf4a1" x="17.4" y="21.77" width="12.72" height="3.08"/><path class="a23418a2-4267-40b9-ab13-d11367caf4a1" d="M23,11.74a.39.39,0,0,1,.39,0L26.21,14V10.61L23,8.27H20.44v6a6.26,6.26,0,0,0,1.49,4.18,4.2,4.2,0,0,0,3.31,1.75,4.28,4.28,0,0,0,3.58-1.77,6.58,6.58,0,0,0,1.31-4.15V8.27h-2.3V14a2.8,2.8,0,0,1-.74,2,2.49,2.49,0,0,1-1.88.83A2.33,2.33,0,0,1,23.43,16a2.94,2.94,0,0,1-.69-2v-2A.36.36,0,0,1,23,11.74Z"/><path class="a23418a2-4267-40b9-ab13-d11367caf4a1" d="M20.44,59.91a4.86,4.86,0,0,0,1.45,3.59A4.52,4.52,0,0,0,25.23,65a4.6,4.6,0,0,0,3.38-1.54,4.89,4.89,0,0,0,1.52-3.55v-2h-2.3v.84a2.85,2.85,0,0,1-.73,2,2.45,2.45,0,0,1-1.84.82,2.39,2.39,0,0,1-1.83-.81,2.84,2.84,0,0,1-.69-1.94v-2.1a.36.36,0,0,1,.11-.25.38.38,0,0,1,.26-.11h7V53.24H20.44Z"/><path class="a23418a2-4267-40b9-ab13-d11367caf4a1" d="M22.85,34.91a.36.36,0,0,1-.11-.26V32.7a3,3,0,0,1,.83-2.11,2.49,2.49,0,0,1,1.82-.82,2.22,2.22,0,0,1,1.79.89,3.27,3.27,0,0,1,.65,2v.72h2.3V31.36a5,5,0,0,0-1.39-3.57,4.37,4.37,0,0,0-3.36-1.45,4.67,4.67,0,0,0-3.49,1.45,4.72,4.72,0,0,0-1.45,3.5v6.8H33.17V35H23.11A.37.37,0,0,1,22.85,34.91Z"/><path class="a23418a2-4267-40b9-ab13-d11367caf4a1" d="M22.85,48.15a.34.34,0,0,1-.11-.25V46a3,3,0,0,1,.83-2.11A2.49,2.49,0,0,1,25.39,43a2.22,2.22,0,0,1,1.79.88A3.3,3.3,0,0,1,27.83,46v.72h2.3V44.61A5,5,0,0,0,28.74,41a4.4,4.4,0,0,0-3.36-1.45A4.67,4.67,0,0,0,21.89,41a4.73,4.73,0,0,0-1.45,3.5v6.81H33.17V48.26H23.11A.38.38,0,0,1,22.85,48.15Z"/></g></svg>