<svg xmlns="http://www.w3.org/2000/svg" xmlns:xlink="http://www.w3.org/1999/xlink" viewBox="0 0 746.51 822.18"><defs><radialGradient id="a52d4336-387f-4844-8b35-76a7bf599abe" cx="121.61" cy="382.1" r="5.66" gradientTransform="matrix(1 0 0 .6 0 152.84)" xlink:href="#aad456cf-857f-49d6-931e-67102528fe71"/><radialGradient id="a919fc04-fdb0-455e-a95a-06887983eaee" cx="217.55" cy="416.02" r="5.66" xlink:href="#e0df7766-4582-4b3f-accc-b39dd52e4120"/><radialGradient id="e8191f29-3908-49a1-9256-375c42a82e7a" cx="195.83" cy="370.99" r="11.47" xlink:href="#e0df7766-4582-4b3f-accc-b39dd52e4120"/><radialGradient id="aad456cf-857f-49d6-931e-67102528fe71" cx="92.36" cy="393.88" r="5.66" gradientTransform="matrix(1 0 0 .6 0 157.55)" gradientUnits="userSpaceOnUse"><stop offset="0" stop-color="#0000ef"/><stop offset=".15" stop-color="#0000e9"/><stop offset=".34" stop-color="#0101d9"/><stop offset=".56" stop-color="#0101be"/><stop offset=".79" stop-color="#02029a"/><stop offset="1" stop-color="#020282"/></radialGradient><radialGradient id="bdc16d4e-34a2-4e3e-bfba-e0d93bef6231" cx="114.61" cy="393.88" r="5.66" xlink:href="#aad456cf-857f-49d6-931e-67102528fe71"/><radialGradient id="e6307b04-89ca-48d6-b07b-727bc365cd50" cx="133.17" cy="400.04" r="5.66" gradientTransform="matrix(1 0 0 .6 0 160.02)" xlink:href="#aad456cf-857f-49d6-931e-67102528fe71"/><radialGradient id="bdffe6fc-02a0-44ed-bc9e-fbed7a2326f8" cx="139.21" cy="387.78" r="5.66" gradientTransform="matrix(1 0 0 .6 0 155.11)" xlink:href="#aad456cf-857f-49d6-931e-67102528fe71"/><radialGradient id="e0df7766-4582-4b3f-accc-b39dd52e4120" cx="65.88" cy="348.77" r="11.47" gradientUnits="userSpaceOnUse"><stop offset="0" stop-color="#fd6d66"/><stop offset=".78" stop-color="#b50a03"/></radialGradient><radialGradient id="f0f29417-65ba-4065-b3a7-4bed05c5ee07" cx="100.32" cy="382.53" r="5.66" gradientTransform="matrix(1 0 0 .6 0 153.01)" xlink:href="#aad456cf-857f-49d6-931e-67102528fe71"/><radialGradient id="b5bd6058-7e2a-4fa7-96a5-9285bea30983" cx="225.51" cy="404.67" r="5.66" xlink:href="#e0df7766-4582-4b3f-accc-b39dd52e4120"/><radialGradient id="a7cc2842-5eb3-4d7f-bbf3-1c6a3a5d9e47" cx="246.79" cy="404.24" r="5.66" xlink:href="#e0df7766-4582-4b3f-accc-b39dd52e4120"/><radialGradient id="b2fcf91f-bd9b-4e71-8adc-542d1e3955e4" cx="264.4" cy="409.93" r="5.66" xlink:href="#e0df7766-4582-4b3f-accc-b39dd52e4120"/><radialGradient id="bfe33f86-373a-4650-b8f9-c9c8c444a82a" cx="258.36" cy="422.19" r="5.66" xlink:href="#e0df7766-4582-4b3f-accc-b39dd52e4120"/><radialGradient id="aa8dbf5d-766c-4a5d-baf0-c4523e10c955" cx="239.79" cy="416.02" r="5.66" xlink:href="#e0df7766-4582-4b3f-accc-b39dd52e4120"/><style>.ad608267-a09d-4a8b-885f-4e737213a227{fill:#373735}.ff452f55-bf25-4b1c-b811-e5b98c74ed32{fill:#121211}.acb93704-0206-48dd-9998-0d20765877cc,.b2c7fa87-f736-413d-a4b9-8f17b04b64d6,.bef7fa4f-28e2-4834-945e-0353d8571d31,.bf8cb9d7-9356-4b71-9904-ec3fc7520232,.ff452f55-bf25-4b1c-b811-e5b98c74ed32{stroke:#b5b5b5}.a5dc3703-1ac6-47a6-b98c-8a7e9b6c2f33,.a87bbcb3-98e0-4212-8b30-f50f9e67918d,.acb93704-0206-48dd-9998-0d20765877cc,.b2c7fa87-f736-413d-a4b9-8f17b04b64d6,.be81ab2d-cef7-45f7-bf79-8136471d7a63,.bef7fa4f-28e2-4834-945e-0353d8571d31,.bf8cb9d7-9356-4b71-9904-ec3fc7520232,.ff452f55-bf25-4b1c-b811-e5b98c74ed32{stroke-miterlimit:10}.acb93704-0206-48dd-9998-0d20765877cc,.b2c7fa87-f736-413d-a4b9-8f17b04b64d6,.be81ab2d-cef7-45f7-bf79-8136471d7a63,.bef7fa4f-28e2-4834-945e-0353d8571d31,.bf8cb9d7-9356-4b71-9904-ec3fc7520232,.ff452f55-bf25-4b1c-b811-e5b98c74ed32{stroke-width:.5px}.a87bbcb3-98e0-4212-8b30-f50f9e67918d{fill:#443840;stroke:#090000}.be81ab2d-cef7-45f7-bf79-8136471d7a63{stroke:#090000}.a87bbcb3-98e0-4212-8b30-f50f9e67918d{stroke-width:.75px}.be81ab2d-cef7-45f7-bf79-8136471d7a63{fill:#6b0c05}.a3404522-afb7-47f6-b619-7a8b06903c69{fill:#86382f}.a5dc3703-1ac6-47a6-b98c-8a7e9b6c2f33{stroke:#373737}.a109e733-d491-4ec6-92a3-8133c7617a70{fill:#207820}.acb93704-0206-48dd-9998-0d20765877cc{fill:#dc6e05}.bef7fa4f-28e2-4834-945e-0353d8571d31{fill:#12e600}.b2c7fa87-f736-413d-a4b9-8f17b04b64d6{fill:#0b47ce}.a81e13a8-5871-47d0-aa42-09ec3142bcde,.bf8cb9d7-9356-4b71-9904-ec3fc7520232{fill:#282826}.bd4551f9-1068-4b67-8fab-df6352497762{fill:#ae7a82}.f831ef47-0fee-46a8-b3f9-9727a4ca6f28{fill:url(#e0df7766-4582-4b3f-accc-b39dd52e4120)}.acb15d02-9f7c-4d3d-af96-f19aa7db033d{fill:url(#e8191f29-3908-49a1-9256-375c42a82e7a)}.a47c5966-abe4-4ad1-8cb0-45b8fdcffe63{fill:#0000ef}.bf2aac29-5cc2-426d-9535-16b5b194865d{fill:#930303}.be7f5f26-31e2-4ed6-8be7-51a0eb70be89{fill:#e7e7e7}.bae9943a-8948-4f66-a05c-6c813d35e3c7{fill:#2c2b29}.b0f189df-d04c-40f4-be78-90cb033eb660{fill:#030303}.ba1fc2b3-5a19-430d-b0ea-b4a1b5248a8d{fill:#020202}</style></defs><g id="b902e7d5-55a9-426c-97a4-1417101f55fa" data-name="Calque 1"><path id="a94359d0-b6d7-48d4-bdf7-19716adaa276" data-name="ombre" style="opacity:.5;fill:#373735" d="m452.03 588.79 21.51-5.91H485.41l1.58 2.96 237.36 43.3h11.08l11.07 31.39-46.41 37.71-46.42 13.19-8.18-1.32.27-1.85-13.98-2.63-83.6 27.95-73.32 51.57-22.83 6.82-7.77-1.16v-2.63l-16.08-3.03-129.99 34.37 153.84-230.73z"/><g id="bfcdfa93-b3b4-4ba3-9060-8aead240b965" data-name="bottom"><path class="ad608267-a09d-4a8b-885f-4e737213a227" d="m36 454.56 224.9 39.62v4.35l25.72 6.13-.4 311.34-248.24-47.27L36 454.56z"/><path class="ff452f55-bf25-4b1c-b811-e5b98c74ed32" d="m202 526.54-78.38-13.74c-3 .19-4.26 3.56-4.26 3.56l.2 85c.69 2.18 3.86 5 3.86 5l74.27 13.46c5.14.49 7.52-5.25 7.52-5.25v-82.69a7.12 7.12 0 0 0-3.21-5.34zm-49.9 22.55-18.69-3.46v-20l2.27-1.88 18.1 3.07-1.78 2.69zm31.45 6.13-18.69-3.46v-20l2.27-1.87 18.1 3.06-1.78 2.67z" transform="translate(-.98 -.52)"/><path class="a87bbcb3-98e0-4212-8b30-f50f9e67918d" d="m134.7 523.25-2.27 1.88v19.98l18.69 3.46-.1-19.58 1.78-2.67-18.1-3.07zM166.15 529.38l-2.27 1.88v19.98l18.69 3.46-.1-19.58 1.78-2.67-18.1-3.07z"/><path class="be81ab2d-cef7-45f7-bf79-8136471d7a63" d="M140.14 543.03v-12.85l8.01 1.78v12.56l-8.01-1.49zM171.2 548.87v-12.86l8.01 1.78v12.56l-8.01-1.48z"/><path d="M135.23 543.16v-15.23l2.05.4v15.16l-2.05-.33zM166.68 548.7v-15.23l2.04.4v15.16l-2.04-.33z"/><path class="a3404522-afb7-47f6-b619-7a8b06903c69" d="M140.4 530.69v-.35l7.47 1.8.01.43-7.48-1.88zM171.46 536.62v-.29l7.47 1.64.01.35-7.48-1.7z"/><circle cx="192.4" cy="574.85" r="4.25" style="fill:#8b8b8b;stroke-width:.75px;stroke:#090000;stroke-miterlimit:10"/><path class="a5dc3703-1ac6-47a6-b98c-8a7e9b6c2f33" d="M136.29 598.71v-11.27l11.96 2.18v11.3l-11.96-2.21zM167.54 604.25v-11.27l11.96 2.17v10.88l-11.96-1.78z"/></g><g id="b4589ffa-d4b4-493b-980e-82411e8074c9" data-name="t molding"><path class="a109e733-d491-4ec6-92a3-8133c7617a70" d="m11.46 450.59-.79-39.76L1 407.66v45.1l27.89 5.54c.59 103.55 1 207.6 1.58 311.15a6.18 6.18 0 0 0 3.53 2.19 12.58 12.58 0 0 0 5 0l-2-316.56zM272.36 497v-41.27l-10.28-1.19-.2 44.51 25.71 6.13s-1.51 313.85 0 315.69 8.77 1.32 8.77 1.32l.93-319.91z" transform="translate(-.98 -.52)"/><path class="a109e733-d491-4ec6-92a3-8133c7617a70" d="m78.72 346.42-8.15-1.3 16.26-218.56 9.04 1.5-17.15 218.36zM329.24 388.85l9.1 1.28 18.49-224.31h-26.37l-.26-90.92-10.06-1.84v94.84l6.04 1.09h20.27l-17.21 219.86z"/><path class="a109e733-d491-4ec6-92a3-8133c7617a70" d="M88.49 127.19s-28.17-.35-29.11-.85c0-31.21.06-62.83 0-94l9.36 2.64.48 89.02z" transform="translate(-.98 -.52)"/><g id="fa185bd0-52b8-4461-8635-3bcf1cb0b072" data-name="clair"><path class="a109e733-d491-4ec6-92a3-8133c7617a70" d="m0 407.14 9.69 3.17L78 346.25l-8.11-1.94L0 407.14zM261.1 454.02l10.28 1.19 66.96-65.87-8.62-1.6-68.62 66.28zM111.56 0 58.42 31.78l9.36 2.64L120.36 3.3l2.74-1.62-2.57-.36L111.56 0zM383.74 40.62l-11.21-.8-52.39 33.24 10.06 1.84 53.54-34.28z"/></g></g><g id="b76a904c-7e7d-4f34-9328-00dae1d51404" data-name="side"><path class="ff452f55-bf25-4b1c-b811-e5b98c74ed32" d="m453.13 308.64.63-159.63-70.02-108.39L330.2 74.9l.26 90.92h26.37l-18.49 224.31-66.96 65.08v41.27l24.93 5.28-.93 319.91 8.25-6.32 149.65-543.7-.21 21.51-142.1 516.55-1.61 1.24 6.94-5.32 136.83-496.99zM324.06 799.15l-7.76 6.48 11.99-9.2 124.7-453.24.05-12.13-128.98 468.09zM335.43 790.95l-1.32 1.02 6.87-5.27 111.79-407.64v21.25l.22-57.12-.22 24-117.34 423.76zM343 785.15l108.58-83.28 1.18-299.85L347.4 781.78l-4.4 3.37z"/><path style="fill:#bf0000;stroke-width:.5px;stroke-miterlimit:10;stroke:#b5b5b5" d="m303.63 815.35 5.73-4.4-5.73 4.4z"/><path class="a109e733-d491-4ec6-92a3-8133c7617a70" d="m453.07 293.16.21-21.51-149.65 543.7 5.73-4.4 1.61-1.24 142.1-516.55z"/><path class="acb93704-0206-48dd-9998-0d20765877cc" d="M453.13 330.74v-22.1l-.09 22.42.09-.32zM316.3 805.63z"/><path style="fill:#54d401" d="m453.04 331.06.09-22.42L316.3 805.63l7.76-6.48 128.98-468.09z"/><path class="bef7fa4f-28e2-4834-945e-0353d8571d31" d="M452.99 343.19zM328.29 796.43l5.82-4.46-5.82 4.46z"/><path d="m334.11 791.97 1.32-1.02 117.34-423.76.22-24-124.7 453.24 5.82-4.46z"/><path class="b2c7fa87-f736-413d-a4b9-8f17b04b64d6" d="m340.98 786.7 2.02-1.55-2.02 1.55zM452.77 402v-1.69l-.01 1.71.01-.02z"/><path style="fill:#fff" d="m340.98 786.7 2.02-1.55 4.4-3.37 105.36-379.76.01-1.71v-21.25L340.98 786.7z"/></g><g id="afb30454-3487-4b07-a81c-49b19c1e8617" data-name="panel"><path class="bf8cb9d7-9356-4b71-9904-ec3fc7520232" d="m10.48 450.07 250.42 44.11.2-40.16L9.69 410.31l.79 39.76z"/><path class="ad608267-a09d-4a8b-885f-4e737213a227" d="m79.37 345.21-69.68 65.1 251.41 43.71 68.62-66.28-250.35-42.53z"/></g><g id="a6d35d81-f12a-4293-b41c-d1a427260343" data-name="ecran"><path class="bf8cb9d7-9356-4b71-9904-ec3fc7520232" d="M96.84 129.36 79.7 347.72l250.52 42.43L347.82 168zm224.28 67.76c0 .2-.29.32-.48.49l-10.43 144.83a35.43 35.43 0 0 1-4.3 3.78l1.4.29v10.7s-1.4 4.75-11.08 2.64c-11.19-2.44-178.55-31.91-178.55-31.91l8.72-6.78v-1.39s-2.46.52-6-7l-12.48 2.77h-4l11.34-158.77s4-6.85 10.81-6.59 191.16 30.59 191.16 30.59 6.17 1.07 3.89 16.35z" transform="translate(-.98 -.52)"/><path d="M317.28 180S133 149.66 126.12 149.4s-10.81 6.6-10.81 6.6l-11.74 160.08h4.35l12.29-2.68c-.1-.23-.74-1.57-.85-1.8L131 166.54s2.11-5.54 7.12-7.38l177.49 27.16a20.77 20.77 0 0 1 5.11 9.76l-.05.75c.19-.17.62.66.66.47 3.23-14.06-4.05-17.3-4.05-17.3z" transform="translate(-.98 -.52)" style="fill:#151312"/><path d="m125.32 320-8.56 8s164.63 29.3 178.61 32.24c10.36 2.17 14.43-3.58 14.43-3.58l.61-7.37.39-7.71-4.89 3.84a20.85 20.85 0 0 1-7.73 3.87z" transform="translate(-.98 -.52)" style="fill:#555353"/><path d="M319.5 197.81c.45-.36.83-.69 1.14-1l.66-.52a20.31 20.31 0 0 0-5.72-10l-177.49-27.13c-5 1.84-7.12 7.38-7.12 7.38L119.36 311.6l.32.66c3.54 7.52 6.28 8 6.28 8l.44.08 171.78 28.93a20.85 20.85 0 0 0 7.73-3.87c2.57-1.91 4.89-3.84 4.89-3.84l10.5-145.29c-.44.46-1.05.96-1.8 1.54zM143.83 302.35z" transform="translate(-.98 -.52)" style="fill:#008aa6"/></g><g id="bd1bbb7e-519b-4487-b79c-a13ebcd26412" data-name="top"><path id="f1cfe84b-eccc-4810-a02b-4b4ffc215c93" data-name="marquee" class="bf8cb9d7-9356-4b71-9904-ec3fc7520232" d="m68.24 123.5 251.47 39.03.43-89.47L67.78 34.42l.46 89.08z"/><path style="stroke-miterlimit:10;stroke:#b5b5b5;fill:#373735" d="m128.84 2.64-5.74-.96-55.32 32.74 252.36 38.64 52.39-33.24L128.84 2.64z"/></g><g id="b260fa4c-e177-48a1-82ed-be7c3975a2b0" data-name="stickp1"><path class="a81e13a8-5871-47d0-aa42-09ec3142bcde" d="M68.92 377.27v5.16H62.4v-5.16c-5.06.64-8.77 2.7-8.77 5.16 0 3 5.38 5.35 12 5.35s12-2.39 12-5.35c.06-2.43-3.63-4.52-8.71-5.16z" transform="translate(-.98 -.52)"/><path class="bd4551f9-1068-4b67-8fab-df6352497762" d="M68.92 377.27v-17.78a12.18 12.18 0 0 1-3 .39 12.4 12.4 0 0 1-3.48-.49v17.88a26.67 26.67 0 0 1 6.52 0z" transform="translate(-.98 -.52)"/><path class="bd4551f9-1068-4b67-8fab-df6352497762" d="M68.92 382.43v-5.16a26.67 26.67 0 0 0-6.52 0v5.16z" transform="translate(-.98 -.52)"/><path class="f831ef47-0fee-46a8-b3f9-9727a4ca6f28" d="M68.92 358.89v.6a11.24 11.24 0 0 0 8.77-10.72c0-6.14-5.29-11.11-11.81-11.11s-11.82 5-11.82 11.11a11.22 11.22 0 0 0 8.34 10.62v-.5z" transform="translate(-.98 -.52)"/><path class="bd4551f9-1068-4b67-8fab-df6352497762" d="M68.92 359.49v-.6H62.4v.5a12.4 12.4 0 0 0 3.48.49 12.18 12.18 0 0 0 3.04-.39z" transform="translate(-.98 -.52)"/><path class="f831ef47-0fee-46a8-b3f9-9727a4ca6f28" d="M68.92 359.49v-.6H62.4v.5a12.4 12.4 0 0 0 3.48.49 12.18 12.18 0 0 0 3.04-.39z" transform="translate(-.98 -.52)"/></g><g id="a468d028-e42d-4249-96db-d9d933a77786" data-name="stickp2"><path class="a81e13a8-5871-47d0-aa42-09ec3142bcde" d="M198.88 399.49v5.16h-6.53v-5.16c-5 .64-8.77 2.7-8.77 5.16 0 3 5.39 5.35 12 5.35s12-2.39 12-5.35c.07-2.46-3.64-4.52-8.7-5.16z" transform="translate(-.98 -.52)"/><path class="bd4551f9-1068-4b67-8fab-df6352497762" d="M198.88 399.49v-17.78a12.2 12.2 0 0 1-3 .39 12.83 12.83 0 0 1-3.48-.49v17.88a26.75 26.75 0 0 1 6.53 0z" transform="translate(-.98 -.52)"/><path class="bd4551f9-1068-4b67-8fab-df6352497762" d="M198.88 404.65v-5.16a26.75 26.75 0 0 0-6.53 0v5.16z" transform="translate(-.98 -.52)"/><path class="acb15d02-9f7c-4d3d-af96-f19aa7db033d" d="M198.88 381.11v.6a11.24 11.24 0 0 0 8.77-10.71c0-6.14-5.29-11.11-11.82-11.11S184 364.85 184 371a11.22 11.22 0 0 0 8.34 10.62v-.5z" transform="translate(-.98 -.52)"/><path class="bd4551f9-1068-4b67-8fab-df6352497762" d="M198.88 381.71v-.6h-6.53v.5a12.83 12.83 0 0 0 3.48.49 12.2 12.2 0 0 0 3.05-.39z" transform="translate(-.98 -.52)"/><path class="acb15d02-9f7c-4d3d-af96-f19aa7db033d" d="M198.88 381.71v-.6h-6.53v.5a12.83 12.83 0 0 0 3.48.49 12.2 12.2 0 0 0 3.05-.39z" transform="translate(-.98 -.52)"/></g><g id="ba6a492f-0cef-4809-a0a7-a8e009fd8ba7" data-name="boutons P1"><g id="ed58e3bf-ec02-4592-9eb2-540554136e3e" data-name="4"><path class="a47c5966-abe4-4ad1-8cb0-45b8fdcffe63" d="M92.54 389.14c-3.86 0-8.12 1.53-8.12 4.87 0 2.95 4.1 4.62 7.94 4.62 4.11 0 8-1.73 8-4.88-.04-2.35-3.88-4.61-7.82-4.61zm-.18 8.63c-3.86 0-7-1.74-7-3.89s3.13-3.89 7-3.89 7 1.74 7 3.89-3.14 3.89-7 3.89z" transform="translate(-.98 -.52)"/><path d="M92.36 390c-3.86 0-7 1.74-7 3.89s3.13 3.89 7 3.89 7-1.74 7-3.89-3.14-3.89-7-3.89z" transform="translate(-.98 -.52)" style="fill:url(#aad456cf-857f-49d6-931e-67102528fe71)"/></g><g id="b7d465ea-845a-4e83-825b-3606a02302da" data-name="5"><path class="a47c5966-abe4-4ad1-8cb0-45b8fdcffe63" d="M114.79 389.14c-3.86 0-8.12 1.53-8.12 4.87 0 2.95 4.1 4.62 7.94 4.62 4.11 0 8-1.73 8-4.88-.04-2.35-3.88-4.61-7.82-4.61zm-.18 8.63c-3.86 0-7-1.74-7-3.89s3.13-3.89 7-3.89 7 1.74 7 3.89-3.14 3.89-7 3.89z" transform="translate(-.98 -.52)"/><path d="M114.61 390c-3.86 0-7 1.74-7 3.89s3.13 3.89 7 3.89 7-1.74 7-3.89-3.14-3.89-7-3.89z" transform="translate(-.98 -.52)" style="fill:url(#bdc16d4e-34a2-4e3e-bfba-e0d93bef6231)"/></g><g id="f1c69ed4-bda8-4e99-8c55-32bc5184a80d" data-name="6"><path class="a47c5966-abe4-4ad1-8cb0-45b8fdcffe63" d="M133.35 395.3c-3.86 0-8.13 1.53-8.13 4.87 0 3 4.11 4.62 7.95 4.62 4.1 0 8-1.73 8-4.88-.04-2.35-3.88-4.61-7.82-4.61zm-.18 8.63c-3.86 0-7-1.74-7-3.89s3.13-3.89 7-3.89 7 1.74 7 3.89-3.17 3.89-7 3.89z" transform="translate(-.98 -.52)"/><path d="M133.17 396.15c-3.86 0-7 1.74-7 3.89s3.13 3.89 7 3.89 7-1.74 7-3.89-3.17-3.89-7-3.89z" transform="translate(-.98 -.52)" style="fill:url(#e6307b04-89ca-48d6-b07b-727bc365cd50)"/></g><g id="b0f46d16-89ee-49c3-91ed-ee23917e17f8" data-name="3"><path class="a47c5966-abe4-4ad1-8cb0-45b8fdcffe63" d="M139.39 383c-3.86 0-8.13 1.53-8.13 4.88 0 2.95 4.11 4.61 8 4.61 4.1 0 8-1.73 8-4.88-.09-2.31-3.93-4.61-7.87-4.61zm-.18 8.63c-3.86 0-7-1.74-7-3.89s3.13-3.89 7-3.89 7 1.75 7 3.89-3.14 3.93-7 3.93z" transform="translate(-.98 -.52)"/><path d="M139.21 383.89c-3.86 0-7 1.75-7 3.89s3.13 3.89 7 3.89 7-1.74 7-3.89-3.14-3.89-7-3.89z" transform="translate(-.98 -.52)" style="fill:url(#bdffe6fc-02a0-44ed-bc9e-fbed7a2326f8)"/></g><g id="b7feaab6-af7a-42ab-bcd8-d5b522bc76ff" data-name="2"><path class="a47c5966-abe4-4ad1-8cb0-45b8fdcffe63" d="M121.79 377.35c-3.86 0-8.12 1.53-8.12 4.88 0 2.95 4.1 4.61 7.94 4.61 4.11 0 8-1.73 8-4.88-.04-2.34-3.88-4.61-7.82-4.61zm-.18 8.64c-3.86 0-7-1.74-7-3.89s3.13-3.89 7-3.89 7 1.74 7 3.89-3.14 3.9-7 3.9z" transform="translate(-.98 -.52)"/><path d="M121.61 378.21c-3.86 0-7 1.74-7 3.89s3.13 3.89 7 3.89 7-1.74 7-3.89-3.14-3.89-7-3.89z" transform="translate(-.98 -.52)" style="fill:url(#a52d4336-387f-4844-8b35-76a7bf599abe)"/></g><g id="fa8cf242-08cd-4ffe-86c7-dc0b4348077f" data-name="1"><path class="a47c5966-abe4-4ad1-8cb0-45b8fdcffe63" d="M100.5 377.78c-3.86 0-8.13 1.53-8.13 4.88 0 2.95 4.11 4.62 7.95 4.62 4.1 0 8-1.73 8-4.88-.04-2.35-3.88-4.62-7.82-4.62zm-.18 8.64c-3.86 0-7-1.74-7-3.89s3.13-3.89 7-3.89 7 1.74 7 3.89-3.14 3.89-7 3.89z" transform="translate(-.98 -.52)"/><path d="M100.32 378.64c-3.86 0-7 1.74-7 3.89s3.13 3.89 7 3.89 7-1.74 7-3.89-3.14-3.89-7-3.89z" transform="translate(-.98 -.52)" style="fill:url(#f0f29417-65ba-4065-b3a7-4bed05c5ee07)"/></g></g><g id="bd5d12aa-7893-4f28-9723-349c65c020c4" data-name="boutons P2"><g id="b7146d22-d20e-4ad8-8810-153513d3053c" data-name="1"><path class="bf2aac29-5cc2-426d-9535-16b5b194865d" d="M225.69 399.93c-3.86 0-8.13 1.53-8.13 4.87 0 2.95 4.11 4.62 7.95 4.62 4.1 0 8-1.73 8-4.88-.04-2.35-3.88-4.61-7.82-4.61zm-.18 8.63c-3.86 0-7-1.74-7-3.89s3.13-3.89 7-3.89 7 1.74 7 3.89-3.14 3.89-7 3.89z" transform="translate(-.98 -.52)"/><path d="M225.51 400.78c-3.86 0-7 1.74-7 3.89s3.13 3.89 7 3.89 7-1.74 7-3.89-3.14-3.89-7-3.89z" transform="translate(-.98 -.52)" style="fill:url(#b5bd6058-7e2a-4fa7-96a5-9285bea30983)"/></g><g id="b0efb90c-d80e-44c7-b546-e2ea3c6ec614" data-name="2"><path class="bf2aac29-5cc2-426d-9535-16b5b194865d" d="M247 399.49c-3.86 0-8.13 1.54-8.13 4.88 0 2.95 4.11 4.62 7.95 4.62 4.1 0 8-1.73 8-4.88-.07-2.35-3.91-4.62-7.82-4.62zm-.18 8.64c-3.86 0-7-1.74-7-3.89s3.13-3.89 7-3.89 7 1.74 7 3.89-3.17 3.89-7.03 3.89z" transform="translate(-.98 -.52)"/><path d="M246.79 400.35c-3.86 0-7 1.74-7 3.89s3.13 3.89 7 3.89 7-1.74 7-3.89-3.14-3.89-7-3.89z" transform="translate(-.98 -.52)" style="fill:url(#a7cc2842-5eb3-4d7f-bbf3-1c6a3a5d9e47)"/></g><g id="b48b9c66-38ba-4db5-ad9d-d45bd8990ad0" data-name="3"><path class="bf2aac29-5cc2-426d-9535-16b5b194865d" d="M264.58 405.18c-3.86 0-8.12 1.53-8.12 4.88 0 2.95 4.1 4.61 7.94 4.61 4.1 0 8-1.73 8-4.88-.04-2.35-3.88-4.61-7.82-4.61zm-.18 8.64c-3.86 0-7-1.75-7-3.89s3.13-3.89 7-3.89 7 1.74 7 3.89-3.14 3.89-7 3.89z" transform="translate(-.98 -.52)"/><path d="M264.4 406c-3.86 0-7 1.74-7 3.89s3.13 3.89 7 3.89 7-1.75 7-3.89-3.14-3.89-7-3.89z" transform="translate(-.98 -.52)" style="fill:url(#b2fcf91f-bd9b-4e71-8adc-542d1e3955e4)"/></g><g id="fb622945-7bb1-4929-bd67-814240625531" data-name="4"><path class="bf2aac29-5cc2-426d-9535-16b5b194865d" d="M258.54 417.44c-3.86 0-8.13 1.53-8.13 4.88 0 2.95 4.11 4.61 8 4.61 4.1 0 8-1.73 8-4.88-.09-2.35-3.93-4.61-7.87-4.61zm-.18 8.64c-3.86 0-7-1.75-7-3.89s3.13-3.89 7-3.89 7 1.74 7 3.89-3.14 3.89-7 3.89z" transform="translate(-.98 -.52)"/><path d="M258.36 418.3c-3.86 0-7 1.74-7 3.89s3.13 3.89 7 3.89 7-1.75 7-3.89-3.14-3.89-7-3.89z" transform="translate(-.98 -.52)" style="fill:url(#bfe33f86-373a-4650-b8f9-c9c8c444a82a)"/></g><g id="f061757d-d7a9-448b-b69d-fee199763aa5" data-name="5"><path class="bf2aac29-5cc2-426d-9535-16b5b194865d" d="M240 411.28c-3.86 0-8.13 1.53-8.13 4.88 0 2.95 4.11 4.61 7.95 4.61 4.1 0 8-1.73 8-4.88-.07-2.35-3.91-4.61-7.82-4.61zm-.18 8.63c-3.86 0-7-1.74-7-3.89s3.13-3.89 7-3.89 7 1.75 7 3.89-3.17 3.89-7.03 3.89z" transform="translate(-.98 -.52)"/><path d="M239.79 412.13c-3.86 0-7 1.75-7 3.89s3.13 3.89 7 3.89 7-1.74 7-3.89-3.14-3.89-7-3.89z" transform="translate(-.98 -.52)" style="fill:url(#aa8dbf5d-766c-4a5d-baf0-c4523e10c955)"/></g><g id="b2b887a3-b392-4714-866c-e9f0d3e1d42a" data-name="6"><path class="bf2aac29-5cc2-426d-9535-16b5b194865d" d="M217.73 411.28c-3.86 0-8.13 1.53-8.13 4.88 0 2.95 4.11 4.61 8 4.61 4.1 0 8-1.73 8-4.88-.09-2.35-3.93-4.61-7.87-4.61zm-.18 8.63c-3.86 0-7-1.74-7-3.89s3.13-3.89 7-3.89 7 1.75 7 3.89-3.14 3.89-7 3.89z" transform="translate(-.98 -.52)"/><path d="M217.55 412.13c-3.86 0-7 1.75-7 3.89s3.13 3.89 7 3.89 7-1.74 7-3.89-3.14-3.89-7-3.89z" transform="translate(-.98 -.52)" style="fill:url(#a919fc04-fdb0-455e-a95a-06887983eaee)"/></g></g><path class="be7f5f26-31e2-4ed6-8be7-51a0eb70be89" d="M228.57 237.19v.07l-5.92-1v-.08zM236.56 238.53a.13.13 0 0 0 0 .06l-5.72-1v-.06z" transform="translate(-.98 -.52)"/><path class="bae9943a-8948-4f66-a05c-6c813d35e3c7" d="m210.17 273.38-65.56-11c-.87-.14-.87-.14-.74-.92.25-1.54.47-3.08.75-4.61.78-4.31 1.48-8.63 2.22-12.95.09-.48.22-1 .29-1.44 0-.18.12-.23.31-.19l.75.13 119.31 19.98a16.13 16.13 0 0 1 4.69 1.42 11.54 11.54 0 0 1 5.67 5.9 8.36 8.36 0 0 1 .63 3.88c0 .38-.08.76-.15 1.14l-1.56 9.36c-.07.39-.13.42-.54.36l-40.11-6.72zm14.68-7.7c-.4 2.35-.79 4.71-1.19 7.07 0 .23 0 .34.3.38 1 .15 1.95.32 2.93.49.51.09.51.09.59-.37q.69-4.22 1.4-8.43c0-.08 0-.21.12-.22s.13.1.17.17c1.69 3.14 3.43 6.26 5.06 9.42a2.38 2.38 0 0 0 3.55.6c.9-.94 1.91-1.79 2.87-2.68l4.89-4.53c.08-.07.15-.22.26-.17s0 .2 0 .31v.12c-.47 2.79-.93 5.58-1.4 8.37 0 .25 0 .35.31.4 1 .16 2 .32 3.06.51.34.07.45 0 .49-.32l2.32-13.83a1.32 1.32 0 0 0-.25-1 2.34 2.34 0 0 0-3.26-.37l-2.16 2-8.12 7.4c-.25.23-.28.22-.45-.08-2.2-4.06-4.42-8.11-6.61-12.17a2.14 2.14 0 0 0-1.43-1.06A1.74 1.74 0 0 0 226 259zm-4.51-.71c.38-2.31.76-4.61 1.16-6.92a1.32 1.32 0 0 0-.45-1.21 2.4 2.4 0 0 0-3.17 0c-2.39 2.24-4.82 4.43-7.24 6.63l-2.95 2.7c-.13.12-.23.25-.37 0l-3.44-6.31c-1.1-2-2.19-4-3.3-6a2.24 2.24 0 0 0-2.21-1 1.52 1.52 0 0 0-1.5 1.37q-1.16 6.86-2.3 13.71c0 .28.05.37.35.41 1 .15 2 .32 3 .5.44.07.45.08.51-.3.46-2.73.91-5.46 1.37-8.19 0-.13 0-.27.06-.4s0-.16.11-.17.1.08.13.14.18.34.28.51c1.63 3 3.29 6 4.88 9.07a2.34 2.34 0 0 0 3.35.6c.47-.47 1-.91 1.48-1.37l6.5-6c.06-.05.09-.14.19-.11s.07.14.06.22c-.14.81-.28 1.62-.41 2.44-.35 2.06-.69 4.13-1 6.2 0 .22 0 .32.29.36l3 .5c.44.07.45.07.52-.31q.51-3.6 1.1-7.04zm33.15 5.67c-.38 2.28-.76 4.57-1.15 6.85-.06.31.06.41.38.45 1 .16 2 .32 3 .5.33.07.45 0 .5-.31.16-1 .35-2.08.51-3.12 0-.23.12-.33.4-.28l12.77 2.14c.33.05.39.18.34.45-.18 1-.34 2.08-.53 3.12-.05.25 0 .35.32.4 1 .15 2 .32 3 .49.45.07.46.07.53-.34l1.22-7.32a6.88 6.88 0 0 0-2.51-6.52 12.61 12.61 0 0 0-6.36-3c-2.38-.41-4.76-.8-7.13-1.19-.72-.12-1.45-.26-2.17-.35a1.6 1.6 0 0 0-1.91 1.29c-.46 2.27-.83 4.5-1.21 6.74zm-62.24-10.42 1.14-6.79a1.24 1.24 0 0 0 0-.47 1.91 1.91 0 0 0-1.63-1.33c-1.55-.26-3.1-.53-4.65-.77-1.84-.3-3.66-.71-5.51-.87a11.55 11.55 0 0 0-7 1.39 6.55 6.55 0 0 0-3.37 4.67q-.63 3.74-1.25 7.47c-.07.4-.07.4.36.47 1 .17 2 .32 2.93.5.33.06.45 0 .5-.31.15-1 .34-2.06.5-3.09 0-.29.17-.35.48-.3l12.67 2.12c.34 0 .42.16.37.46-.19 1-.35 2.08-.54 3.11 0 .26 0 .36.32.4 1 .16 2 .32 3 .51.33.06.44 0 .49-.32.42-2.28.81-4.57 1.19-6.85zm-38.3 1 6.47 1.08a7.76 7.76 0 0 0 2.76 0 3.93 3.93 0 0 0 3.34-2.92c.64-3.78 1.26-7.55 1.9-11.33.05-.27 0-.37-.33-.42-1-.15-2-.32-3-.5-.36-.07-.46 0-.51.33q-.92 5.58-1.86 11.15a1.08 1.08 0 0 1-1.24.95 4.41 4.41 0 0 1-.73-.08c-1-.18-2-.37-3.06-.54l-7-1.15c-.28-.05-.35-.15-.31-.38.11-.59.19-1.18.31-1.76.06-.28 0-.4-.35-.45-.84-.13-1.68-.26-2.52-.42-.34-.07-.44 0-.49.32-.24 1.49-.49 3-.74 4.45-.07.42-.07.42.42.5zM230.83 237.63l5.72 1c.15.09.15.2.13.35-.37 2.17-.73 4.34-1.11 6.51 0 .29 0 .38.34.43 3.09.5 6.18 1 9.27 1.54.32.05.34.16.31.44-.06.67-.23 1.33-.32 2-.22 1.55-.54 3.09-.8 4.63-.1.59-.17 1.19-.26 1.78 0 .2-.12.31-.4.26L228.57 254c-.65-.11-.65-.11-.56-.68q1.29-7.69 2.57-15.38c.02-.15.02-.31.25-.31zm3.94 12.7c-.13.78-.25 1.56-.39 2.34-.05.27 0 .38.33.43 1.06.16 2.11.34 3.16.53.32.06.44 0 .49-.31.25-1.55.51-3.1.78-4.66 0-.24 0-.34-.31-.38q-1.62-.25-3.24-.54c-.28-.05-.39 0-.43.27-.16.78-.26 1.55-.39 2.32zM255.63 249.17c2.55.43 5.09.86 7.64 1.27.34.06.42.17.37.47q-.7 4.14-1.39 8.3c-.07.37-.1.4-.52.33L246.38 257c-.27-.05-.34-.16-.3-.39q.72-4.21 1.41-8.43c0-.28.18-.33.47-.28 2.55.44 5.11.86 7.67 1.29zm1.31 4.88c.14-.8.27-1.6.41-2.4 0-.23 0-.36-.3-.4l-3.44-.58c-.26 0-.38 0-.42.27l-.81 4.85c0 .25.05.36.33.41l3.37.56c.3.06.42 0 .46-.3.13-.8.27-1.6.4-2.41zM173.53 244.78l-7.64-1.27c-.31 0-.37-.15-.33-.42q.72-4.2 1.42-8.42c0-.25.13-.32.4-.27l15.36 2.6c.41.07.43.11.37.49-.26 1.55-.53 3.11-.78 4.66 0 .31-.17.37-.5.32-3.07-.53-6.15-1-9.22-1.55-.46-.08-.46-.08-.52.32s-.11.7-.19 1 0 .35.31.4c2.06.33 4.11.68 6.17 1l3.16.53c.32.05.42.17.37.44s-.14.74-.19 1.11-.18.38-.51.32zm.92-5.45c.56.1 1.13.18 1.69.29.25 0 .35 0 .38-.25 0-.39.12-.78.2-1.17 0-.21 0-.32-.26-.36l-3.41-.57c-.22 0-.33 0-.36.23q-.08.62-.18 1.23c0 .23.06.3.29.33.55.07 1.1.17 1.65.27zM211.28 241.75l7.64 1.28c.44.07.5.14.42.52-.43 2-.7 4-1.05 6-.14.74-.27 1.48-.37 2.23 0 .29-.15.37-.49.31-2.08-.36-4.17-.7-6.26-1l-9-1.51c-.42-.07-.43-.08-.37-.47.26-1.56.53-3.11.77-4.67 0-.32.18-.37.52-.31l9.16 1.54c.46.07.46.07.53-.33s.09-.67.17-1 0-.4-.36-.46c-2.34-.37-4.68-.77-7-1.16l-2.31-.38c-.24 0-.32-.12-.28-.34a10.85 10.85 0 0 0 .21-1.27c0-.27.16-.31.43-.26l5.37.9 2.27.38zm-1.15 7.25c.55.09 1.11.17 1.66.27.21 0 .33 0 .36-.21l.21-1.23c0-.19-.05-.29-.27-.33l-3.33-.56c-.24 0-.35 0-.38.24 0 .4-.11.79-.19 1.17-.05.23.05.33.29.37.52.07 1.1.17 1.65.28zM268.74 251.36c.87.15 1.74.31 2.62.44.31 0 .38.18.34.43-.08.4-.13.8-.21 1.2 0 .21 0 .3.27.34l3.36.56c.28 0 .38 0 .41-.27.06-.41.15-.82.2-1.23 0-.23.15-.27.37-.24l5.4.91c.21 0 .3.13.27.33-.08.43-.16.86-.22 1.29 0 .23-.16.29-.41.25-.44-.09-.89-.15-1.34-.24-.24 0-.33 0-.36.24-.05.4-.13.8-.19 1.2 0 .23-.15.3-.4.25-.47-.08-.94-.15-1.41-.24-.17 0-.24 0-.29.17-.13.44-.08.91-.25 1.34-.07.18.07.24.24.27l1.38.22c.28 0 .38.15.33.41s-.13.78-.21 1.17c0 .21.05.31.28.34l1.34.22c.25 0 .34.13.3.36-.09.42-.17.84-.22 1.27 0 .22-.15.27-.36.24l-.65-.11-4.62-.77c-.45-.08-.45-.08-.38-.49s.12-.76.19-1.14c.05-.21 0-.3-.27-.34l-3.44-.58c-.22 0-.29 0-.31.21-.06.4-.16.8-.19 1.21s-.19.37-.5.32l-4.72-.8c-1.16-.19-.93-.1-.8-1 0-.25.09-.49.12-.74s.16-.29.4-.25c.45.09.9.15 1.34.24.27.05.39 0 .42-.26s.14-.78.19-1.17.16-.31.41-.26c.46.09.92.15 1.37.24.21 0 .3 0 .32-.2.06-.43.13-.85.22-1.27 0-.21-.05-.28-.26-.31l-1.38-.23c-.24 0-.34-.12-.29-.36s.14-.78.21-1.17c0-.23 0-.35-.31-.38-.45-.06-.9-.15-1.35-.22-.25 0-.34-.14-.29-.37q.12-.63.21-1.26c0-.24.16-.29.4-.24zM222.64 236.28l5.92 1a.42.42 0 0 1 .05.36q-1.31 7.77-2.6 15.56c0 .28-.17.37-.48.31s-.88-.19-1.33-.26l-3.89-.62c-.46-.08-.45-.08-.39-.49q1.31-7.74 2.6-15.49c.02-.14 0-.28.12-.37zM191.71 247.82l-7.71-1.28c-.3 0-.4-.14-.35-.43q.72-4.2 1.41-8.4c0-.26.15-.32.42-.27l15.39 2.56c.31.05.42.18.36.45s-.11.72-.19 1.08-.13.41-.55.34l-4.16-.7-5.06-.85c-.28 0-.37 0-.41.25-.22 1.39-.46 2.78-.69 4.17a2.74 2.74 0 0 1 0 .28c-.11.6-.11.6.58.72l8.92 1.49c.42.07.45.11.39.5s-.15.72-.18 1.08-.19.35-.48.3c-.56-.11-1.12-.2-1.68-.29z" transform="translate(-.98 -.52)"/><path d="M291.07 282.1c-.25 1.47-.49 2.94-.74 4.41-.07.42-.07.42-.51.34l-4.27-.71c-.27 0-.37-.13-.3-.37s.07-.41.11-.62-.06-.27-.25-.29l-.49-.05c-.39-.06-.49 0-.51.37v.19c0 .43-.14.5-.63.42-1.39-.23-2.79-.47-4.19-.69-.32-.05-.4-.19-.36-.45.5-3 1-5.91 1.49-8.86.06-.36.14-.42.55-.33 2.95.58 5.92 1 8.87 1.52.52.09 1 .13 1.55.22s.47.1.4.52c-.24 1.46-.49 2.92-.73 4.38zm-8.37-.17 1.58.27c.22 0 .32 0 .35-.22.1-.59.2-1.19.31-1.79 0-.21-.06-.3-.29-.34l-3.13-.52c-.21 0-.31 0-.35.22-.08.59-.18 1.19-.29 1.79 0 .21 0 .31.27.34zm5.47-1.49c-.52-.08-1-.16-1.55-.26-.25-.05-.36 0-.39.24-.09.59-.19 1.19-.29 1.78-.05.23.05.29.28.33 1 .16 2 .33 3 .51.28.05.39 0 .43-.27.08-.56.17-1.13.28-1.69 0-.23 0-.35-.3-.39-.48-.08-.97-.17-1.46-.25z" transform="translate(-.98 -.52)" style="fill:#2785db"/><path d="M292.87 271.31c-.25 1.48-.5 3-.74 4.44-.07.38-.11.4-.52.34l-2.86-.48c-.41-.07-.49-.18-.43-.54.14-.85.28-1.71.43-2.56a.34.34 0 0 1 0-.1c.2-.63.12-.52.72-.43l1.48.25c.26 0 .4 0 .44-.25.09-.59.19-1.18.29-1.76 0-.21 0-.33-.3-.38l-8-1.34c-.26 0-.39.05-.42.28-.09.57-.19 1.14-.28 1.7 0 .23.05.36.31.41l3.06.52a.25.25 0 0 0 .33-.17 1.81 1.81 0 0 0 .12-.64c0-.19.11-.24.27-.29a.45.45 0 0 1 .2 0c.85.09.89.14.77.88-.21 1.26-.43 2.51-.63 3.77 0 .26-.17.34-.43.3l-5.43-.91c-.49-.08-.55-.15-.48-.58.49-3 1-5.91 1.48-8.87 0-.17.09-.23.28-.22s.55 0 .83.08l9.77 1.63c.55.09.55.1.47.6l-.72 4.32z" transform="translate(-.98 -.52)" style="fill:#44c047"/><path d="M289.84 254.78c1.75.29 3.49.59 5.24.87.3 0 .4.13.35.42-.51 3-1 5.95-1.49 8.92-.05.3-.16.38-.49.32-1.4-.25-2.8-.48-4.2-.71-.36-.06-.42-.15-.36-.47 0-.12.06-.23.08-.34.08-.47.08-.47-.46-.56h-.21c-.5-.08-.51-.08-.54.39 0 .18-.1.34-.11.52s-.18.19-.35.16l-4.44-.74c-.23 0-.32-.15-.29-.35.17-1 .35-2 .51-3.06 0-.28.23-.27.45-.23l1.83.3c.8.15 1.61.24 2.4.44.25.06.44 0 .48-.27.07-.57.17-1.14.28-1.7.05-.27 0-.38-.34-.43-1.42-.22-2.83-.47-4.24-.7-.29 0-.4-.12-.35-.4.18-1 .33-2 .48-3 0-.26.15-.33.44-.28 1.77.31 3.55.6 5.33.9zm1.49 6.43c.51.08 1 .16 1.54.26.22 0 .35 0 .39-.21.09-.61.19-1.22.3-1.82 0-.2 0-.32-.27-.35l-3.09-.52c-.22 0-.32 0-.35.21-.09.63-.2 1.25-.31 1.88 0 .18 0 .26.24.29z" transform="translate(-.98 -.52)" style="fill:#eb1416"/><path class="bae9943a-8948-4f66-a05c-6c813d35e3c7" d="m156.94 232.66 7.54 1.26c.53.09.53.09.45.57s-.13.7-.17 1-.16.33-.44.28l-9.3-1.57c-.33-.05-.41 0-.45.3-.35 2.17-.72 4.33-1.07 6.49-.05.31-.2.36-.51.31l-5.19-.87c-.3 0-.4-.14-.35-.42q.72-4.19 1.4-8.39c.05-.31.19-.34.48-.29z" transform="translate(-.98 -.52)"/><path class="be7f5f26-31e2-4ed6-8be7-51a0eb70be89" d="M224.85 265.68 226 259a1.74 1.74 0 0 1 2.34-1.33 2.14 2.14 0 0 1 1.43 1.06c2.19 4.06 4.41 8.11 6.61 12.17.17.3.2.31.45.08l8.14-7.43 2.16-2a2.34 2.34 0 0 1 3.26.37 1.32 1.32 0 0 1 .25 1q-1.17 6.91-2.32 13.83c0 .29-.15.39-.49.32-1-.19-2-.35-3.06-.51-.3-.05-.36-.15-.31-.4.47-2.79.93-5.58 1.4-8.37v-.12c0-.04.11-.25 0-.31s-.18.1-.26.17l-4.89 4.53c-1 .89-2 1.74-2.87 2.68a2.38 2.38 0 0 1-3.55-.6c-1.63-3.16-3.37-6.28-5.06-9.42 0-.07-.06-.19-.17-.17s-.11.14-.12.22l-1.4 8.43c-.08.46-.08.46-.59.37-1-.17-1.95-.34-2.93-.49-.28 0-.34-.15-.3-.38.4-2.36.79-4.72 1.19-7.07zM220.34 265q-.59 3.46-1.16 6.95c-.07.38-.08.38-.52.31l-3-.5c-.27 0-.32-.14-.29-.36.36-2.07.7-4.14 1-6.2.13-.82.27-1.63.41-2.44 0-.08.06-.18-.06-.22s-.13.06-.19.11l-6.5 6c-.5.46-1 .9-1.48 1.37a2.34 2.34 0 0 1-3.35-.6c-1.59-3-3.25-6.05-4.88-9.07-.1-.17-.19-.34-.28-.51s-.05-.14-.13-.14-.1.1-.11.17 0 .27-.06.4c-.46 2.73-.91 5.46-1.37 8.19-.06.38-.07.37-.51.3-1-.18-2-.35-3-.5-.3 0-.4-.13-.35-.41q1.16-6.86 2.3-13.71a1.52 1.52 0 0 1 1.5-1.37 2.24 2.24 0 0 1 2.21 1c1.11 2 2.2 4 3.3 6l3.44 6.31c.14.27.24.14.37 0l2.95-2.7c2.42-2.2 4.85-4.39 7.24-6.63a2.4 2.4 0 0 1 3.17 0 1.32 1.32 0 0 1 .45 1.21c-.4 2.31-.78 4.61-1.16 6.92zM253.49 270.64c.38-2.24.75-4.47 1.13-6.7a1.6 1.6 0 0 1 1.91-1.29c.72.09 1.45.23 2.17.35 2.37.39 4.75.78 7.13 1.19a12.61 12.61 0 0 1 6.36 3 6.88 6.88 0 0 1 2.51 6.52q-.6 3.66-1.22 7.32c-.07.41-.08.41-.53.34-1-.17-2-.34-3-.49-.29 0-.37-.15-.32-.4.19-1 .35-2.08.53-3.12.05-.27 0-.4-.34-.45l-12.77-2.14c-.28-.05-.36 0-.4.28-.16 1-.35 2.08-.51 3.12-.05.3-.17.38-.5.31-1-.18-2-.34-3-.5-.32 0-.44-.14-.38-.45.39-2.28.77-4.57 1.15-6.85zM264 273l6.37 1.07c.3 0 .43 0 .46-.28s.08-.52.12-.78a4.27 4.27 0 0 0-1.54-4.2 8.48 8.48 0 0 0-4-1.85c-2.25-.43-4.52-.78-6.77-1.17-.34-.06-.36.12-.4.33q-.44 2.69-.9 5.37c0 .29 0 .4.36.46zM191.25 260.22c-.38 2.28-.77 4.57-1.14 6.85-.05.3-.16.38-.49.32-1-.19-2-.35-3-.51-.29 0-.36-.14-.32-.4.19-1 .35-2.08.54-3.11.05-.3 0-.41-.37-.46l-12.67-2.12c-.31-.05-.44 0-.48.3-.16 1-.35 2.05-.5 3.09 0 .3-.17.37-.5.31-1-.18-1.95-.33-2.93-.5-.43-.07-.43-.07-.36-.47q.62-3.74 1.25-7.47a6.55 6.55 0 0 1 3.37-4.67 11.55 11.55 0 0 1 7-1.39c1.85.16 3.67.57 5.51.87 1.55.24 3.1.51 4.65.77a1.91 1.91 0 0 1 1.59 1.37 1.24 1.24 0 0 1 0 .47l-1.14 6.79zm-10.67-1.14c2.11.35 4.22.7 6.33 1.07.32.05.44 0 .48-.29.3-1.81.6-3.63.91-5.44 0-.26 0-.37-.33-.42q-3-.48-6-1a11.11 11.11 0 0 0-3.77 0 4.85 4.85 0 0 0-3.81 2.54 7.49 7.49 0 0 0-.52 2c-.07.4-.07.41.4.48zM153 261.25l-7-1.17c-.49-.08-.49-.08-.42-.5.25-1.48.5-3 .74-4.45.05-.28.15-.39.49-.32.84.16 1.68.29 2.52.42.31.05.41.17.35.45-.12.58-.2 1.17-.31 1.76 0 .23 0 .33.31.38l7 1.15c1 .17 2 .36 3.06.54a4.41 4.41 0 0 0 .73.08 1.08 1.08 0 0 0 1.24-.95q.94-5.58 1.86-11.15c0-.3.15-.4.51-.33 1 .18 2 .35 3 .5.3.05.38.15.33.42-.64 3.78-1.26 7.55-1.9 11.33a3.93 3.93 0 0 1-3.34 2.92 7.76 7.76 0 0 1-2.76 0l-6.41-1.08z" transform="translate(-.98 -.52)"/><path class="bae9943a-8948-4f66-a05c-6c813d35e3c7" d="m264 273-6.33-1c-.34-.06-.41-.17-.36-.46q.47-2.68.9-5.37c0-.21.06-.39.4-.33 2.25.39 4.52.74 6.77 1.17a8.48 8.48 0 0 1 4 1.85 4.27 4.27 0 0 1 1.54 4.2c0 .26-.1.52-.12.78s-.16.33-.46.28zM180.58 259.08l-6.3-1.06c-.47-.07-.47-.08-.4-.48a7.49 7.49 0 0 1 .52-2 4.85 4.85 0 0 1 3.81-2.54 11.11 11.11 0 0 1 3.77 0q3 .51 6 1c.31.05.38.16.33.42-.31 1.81-.61 3.63-.91 5.44 0 .29-.16.34-.48.29-2.11-.37-4.22-.72-6.33-1.07z" transform="translate(-.98 -.52)"/></g><g id="fd3a2e98-0e96-434a-b8a1-9497deac4163" data-name="ef429889-34ab-4a4a-af95-084304242605"><path d="M113.9 51.1a31 31 0 0 1 15.53 12.07c6.29 9.22 5.15 20.32-2.63 26.47-10.93 8.65-29.92 4.59-39.58-8.43a26.67 26.67 0 0 1-3.43-6.36c-.2-.51-.15-1.11-.77-1.43v-1.07l15.52-10.69c2.72 5.25 7.3 7.84 12.61 7.19 3.31-.4 5.76-2.84 5.73-5.72 0-2.7-2.19-5.5-5.5-7-1-.45-2-.75-3.34-1.25l5.64-3.88.09.1z" transform="translate(-.98 -.52)" style="fill:#02a54b"/><path class="b0f189df-d04c-40f4-be78-90cb033eb660" d="M208.12 78.79c5-4.51 10.76-2.4 13.45 1.69 3.58-3 7-3.19 10.82-.56 2.21 1.51 3.48 3.42 3.48 5.84 0 8 0 15.9.07 23.85 0 1-.42 1-1.23.86-2.17-.37-4.33-.76-6.48-1-1.21-.13-1.42-.6-1.41-1.65.05-5.72 0-11.46 0-17.2 0-1-.09-1.94-.14-2.9-.07-1.36-.54-2.49-2.16-2.66s-2.26.53-2.25 2.1c0 6.45-.08 12.88 0 19.34 0 1.66-.42 2.12-2.11 1.7a36.88 36.88 0 0 0-5.18-.8c-1.4-.13-1.88-.53-1.86-2 .07-6.48 0-13 0-19.51 0-1.51-.47-2.47-2.19-2.74s-2 .73-2 2.1c0 6.5-.09 13 0 19.5 0 1.5-.47 1.73-1.86 1.44-2-.43-4.06-.71-6.09-1-1-.12-1.26-.46-1.26-1.4V75.87c0-1.09.42-1.2 1.39-1a38.07 38.07 0 0 0 4.81.74c1.82.14 3.06.56 2.24 3.18z" transform="translate(-.98 -.52)"/><path class="ba1fc2b3-5a19-430d-b0ea-b4a1b5248a8d" d="M249.29 85.2c4.64-3.9 9.81-3.11 13.31 1.68 2.88-2.7 6.34-3.2 10.46-.89 2.58 1.46 4.05 3.56 4.05 6.32v23.54c0 .93-.25 1.23-1.25 1-2.17-.4-4.34-.76-6.51-1-1.16-.13-1.47-.53-1.45-1.63.05-5.5 0-11 0-16.53 0-1.25-.15-2.53-.15-3.78a2 2 0 0 0-2-2.3c-1.37-.17-2.2.2-2.26 1.68-.29 6.48-.14 13-.09 19.55 0 1.79-.5 2.18-2.27 1.74a24.41 24.41 0 0 0-4.82-.76c-1.82-.08-2.08-.85-2.06-2.39.06-6.45 0-12.92 0-19.39a2.23 2.23 0 0 0-1.3-2.32c-1.57-.72-2.73-.23-2.8 1.38-.13 2.67-.17 5.35-.19 8v12.38c0 1-.14 1.47-1.38 1.23-2.22-.46-4.46-.77-6.68-1-.9-.12-1.14-.44-1.14-1.29V82.26c0-.87.29-1.09 1.17-.93 1.67.32 3.34.61 5 .77s3.16.39 2.34 3.07z" transform="translate(-.98 -.52)"/><path class="b0f189df-d04c-40f4-be78-90cb033eb660" d="M146 83.24h.18c1.29.2 2.78 0 3.8.71s.26 2.18.59 3.35a5.13 5.13 0 0 0 2.16 3.26c1.55 1 3.44 1 4.24.15 1-1.14.66-4.38-.81-5.91a41.56 41.56 0 0 0-3.67-3.23 71.51 71.51 0 0 1-5.95-4.78c-4.83-4.94-6-12-2.8-17a6.08 6.08 0 0 1 1.2-1.38c4.09-3.28 9-2.44 14.07-.33 4.53 1.88 6.73 5.54 7.46 10 .61 3.76.58 3.76-3.27 3.16l-1.2-.18c-1.22-.19-2.59-.09-3.63-.68s-.4-2.07-.81-3.16c-.52-1.39-1.18-2.57-2.72-3-1.13-.32-2.26-.35-2.94.6a3.63 3.63 0 0 0-.06 3.89 10.43 10.43 0 0 0 3.01 3.29c2.4 1.91 4.92 3.69 7.13 5.82 5.31 5.07 6.64 14.3 2.79 19.27a6.34 6.34 0 0 1-4.65 2.23 22.26 22.26 0 0 1-9.64-1.32c-5-1.73-7.65-5.22-8.7-10.09-1.15-5.53-1.21-5.53 4.26-4.68zm49.07 21.51-7.81-1.22c-.56-.09-1.16-.12-1.35-.82-.59-2.26-1.66-1.32-2.67-.81-3.75 1.94-8.37.95-11.6-2.51a8.45 8.45 0 0 1-1.26-1.72c-2.85-5.26-.13-12.26 5.19-13.42 2.4-.53 4.85-.92 7.2-1.56 2-.54 2.55-2 1.7-3.82a2.92 2.92 0 0 0-2.63-1.94 2.17 2.17 0 0 0-2.39 1.52 5.19 5.19 0 0 0-.25 1.55c0 .8-.33 1.1-1.22.94-2.46-.44-4.93-.82-7.39-1.14-1-.16-1.07-.58-1-1.35.43-5.09 3.29-7.85 8.53-8a27.81 27.81 0 0 1 8.88 1.33c4.82 1.49 7.21 4.56 7.27 9.32.1 6.1.06 12.17.1 18.26a14.67 14.67 0 0 0 .79 5.39zM185 88.33c-1.56.51-2.88.91-4.16 1.38a3.66 3.66 0 0 0-1.11.74 3.47 3.47 0 0 0-.69 4.18 3.4 3.4 0 0 0 2.81 2.07c1.65.26 2.92-.75 3.12-2.87a52.1 52.1 0 0 0 0-5.48z" transform="translate(-.98 -.52)"/><path d="M113.9 51.1h-.13l-.1-.09c-3.18-3-6.66-3.23-10.19-2.57a2.27 2.27 0 0 0-2 2.4c0 1.22 1 2 2 2.6a11.06 11.06 0 0 0 3.92 1.4c.26.65-.31.69-.57.87q-3.54 2.53-7.1 5c-.48.33-.87.85-1.71.34-3.38-2-6.26-4.34-6.82-8.47-.34-2.56.87-4.08 2.58-5.3a16 16 0 0 1 9.53-2.65 29.33 29.33 0 0 1 14.07 3.48c-1.07 1.26-2.68 1.7-3.52 3z" transform="translate(-.98 -.52)" style="fill:#58cc36"/><path class="b0f189df-d04c-40f4-be78-90cb033eb660" d="M303.57 90.57q-3.75-.54-7.49-1.16c-.68-.1-1 0-1.13.71q-1.33 8.23-2.7 16.45l-.41-.06c-.75-5.7-1.51-11.4-2.22-17.1-.11-.92-.57-1.13-1.36-1.24-2.36-.33-4.73-.66-7.09-1.09-1.22-.23-1.25.16-1 1.2.93 3.87 1.72 7.75 2.58 11.62 1.38 6.23 2.79 12.47 4.15 18.69.64 3 .1 3.58-2.73 3-1-.2-1.13.17-1.1 1a27.89 27.89 0 0 1 0 3.77 2.15 2.15 0 0 0 1.69 2.51l3.9.56h.31c3.8.15 5.72-2.24 7.06-5a15.79 15.79 0 0 0 1.08-2.88c1-3.81 1.89-7.64 2.82-11.47q2.18-9 4.3-17.94c.12-.53.84-1.38-.66-1.57z" transform="translate(-.98 -.52)"/><path class="ba1fc2b3-5a19-430d-b0ea-b4a1b5248a8d" d="m108.46 101.16 56.83 8.93 26.23 4.07 96.86 15.14a20.86 20.86 0 0 1 7.11 2.16l.42.38c5 3.15 7.58 8.92 6.29 13.92s-6 8-11.52 7.28l-192.81-30.4c-7.47-1.18-12.94-7.18-12.64-14a9.36 9.36 0 0 1 6.29-8.91 10.32 10.32 0 0 1 2.09-.42 22.11 22.11 0 0 1 5.23.38zm136 33.18v4.32a3.8 3.8 0 0 0 1 2.55c2.6 3 12 4.47 14.71 2.32 1.32-1.05 1.22-4.54 1.22-4.54l-3.17-.49c-.06 0-2.63-.39-2.4 1.69.2 1.92-1.49 1.69-2.86 1.47s-2.84-.44-2.8-2.43c0-2.68.05-5.37 0-8.06 0-1.86 1.32-1.79 2.62-1.6s3.13.36 3.06 2.4l.07 1.3c.55 0 4.53.68 5.08.77l-.08-3a4.78 4.78 0 0 0-2.34-2.29 19.23 19.23 0 0 0-11.3-1.8c-2.12.34-2.82 1.43-2.83 3.66v3.77zm35.12-3.14a12.29 12.29 0 0 0-5.78 0c-2.93.82-3.35 3.69-.85 6a23.35 23.35 0 0 0 3.17 2.34c1.58 1.06 3.22 2 4.78 3.09.88.62 1.74 1.47 1.28 2.5-.54 1.22-1.91.91-3.05.66s-2.4-.35-2.42-1.74v-1.44l-3.66-.58s-2.4.24-1.61 2.2a4 4 0 0 0 1.74 2.06c4.26 2.35 8.6 3.13 12.8 2 2.49-.69 2.72-3.38.7-5.52a20.26 20.26 0 0 0-4.48-3.21 24.43 24.43 0 0 1-4.24-2.86c-.8-.74-1.3-1.64-.66-2.44s2-.62 3.07-.33 2.08.58 2.11 1.88c0 .85 1.19 1.12 1.19 1.12.75.07 2.23.32 2.23.32l2.14.33a8.57 8.57 0 0 0-.74-2.85 6.35 6.35 0 0 0-2.57-2.08 15.25 15.25 0 0 0-5.2-1.4z" transform="translate(-.98 -.52)"/><path d="m169 130.71-2.95-.44-2.41-.38-1.48-3.46-6.14-1-1.46 3-5.05-.82.19-.45c1.71-4.9 3.43-9.79 5.12-14.69l.18-.59 4.06.67 3.93.58 2.35 6.44s2.36 7.09 3.46 10.64zm-12.64-7.45 5.17.82c-.83-2.72-1.63-5.32-2.42-7.92h-.38c-.73 2.31-1.52 4.65-2.34 7.1zM100 111.51v-3.73a3 3 0 0 1 2.61-3.43 18.41 18.41 0 0 1 11.39 1.83 4.65 4.65 0 0 1 2.18 2.73 11.77 11.77 0 0 1 .3 2.49l-5.32-.81v-1.27c.06-2-1.66-2.17-3-2.38s-2.61-.26-2.57 1.58c.07 2.68.07 5.34 0 8 0 2 1.44 2.2 2.76 2.42s3 .43 2.81-1.47v-2.09l5.47.83v.4c.13 1.39-.35 3.49-1.18 4.16-2.63 2.14-11.9.69-14.47-2.27a3.92 3.92 0 0 1-1-2.74v-4.25zm144.65 22.88v-3.76c0-2.23.72-3.32 2.84-3.66a19.2 19.2 0 0 1 11.29 1.8 5 5 0 0 1 1.89 1.51 4.17 4.17 0 0 1 .46.79 3.57 3.57 0 0 1 .23 1.5 9.8 9.8 0 0 1-.15 1.54l-5.09-.77-.06-1.3c.07-2-1.69-2.19-3.07-2.4s-2.65-.27-2.61 1.59q.07 4 0 8.06c0 2 1.46 2.22 2.79 2.44s3.08.44 2.86-1.47v-2.11l2.61.44 3 .47s.42 3.25-1.22 4.53c-2.71 2.12-12.12.67-14.71-2.31a3.83 3.83 0 0 1-1-2.58c-.06-1.44-.07-2.87-.07-4.31zm-59.39-.79a14.37 14.37 0 0 1-5.66-1.71A4.29 4.29 0 0 1 177 128v-1.07l5.33.88v.8a1.8 1.8 0 0 0 1.27 2.05c1.36.52 2.75.86 3.86.17s.45-1.67-.36-2.48a20.41 20.41 0 0 0-4.16-2.87 21.32 21.32 0 0 1-4.44-3.16c-2.17-2.23-1.93-5 .76-5.68a16.4 16.4 0 0 1 12.15 1.9 4.47 4.47 0 0 1 1.63 1.66 3.85 3.85 0 0 1 .58 2.29v.36l-5.54-.91v-1.09c-.2-1.47-1.57-1.57-2.63-1.75s-2.23-.41-2.6.77.53 2 1.48 2.62c1.4 1 2.84 1.85 4.27 2.74a18.34 18.34 0 0 1 3.62 2.66c2.17 2.25 1.83 4.81-.78 5.7a12.15 12.15 0 0 1-6.23 0zm25.49 4.08a18.26 18.26 0 0 1-4.57-1.2 8 8 0 0 1-3.1-2.29 3.8 3.8 0 0 1-.72-2.8V131l5.5.78V133c-.08 1.43 1.22 1.7 2.21 1.93 1.19.29 2.62.68 3.24-.56.54-1.08-.42-2-1.35-2.6-1.93-1.33-3.95-2.5-5.9-3.83s-3.82-2.64-3.43-5.07 2.46-2.69 4.6-2.7a21.52 21.52 0 0 1 8.06 1.43c2.24.87 3.59 2.41 3.74 4a7.77 7.77 0 0 1 0 1.18l-5.49-.86v-1.21c-.21-1.43-1.62-1.52-2.68-1.7s-2.11-.33-2.51.69.39 2 1.34 2.65c1.89 1.28 3.86 2.43 5.75 3.71s4 2.64 3.57 5.18-2.66 2.61-4.79 2.68a27.74 27.74 0 0 1-3.49-.31zm69-6.5a15.63 15.63 0 0 1 5.18 1.41 6.31 6.31 0 0 1 2.57 2.09c.54.8 1.05 2.12.74 2.85l-5.55-.8v-1c-.22-1.55-1.13-1.62-2.12-1.89s-2.35-.53-3.06.34-.14 1.69.65 2.43a25.3 25.3 0 0 0 4.25 2.86 21.23 21.23 0 0 1 4.48 3.21c2 2.14 1.8 4.83-.71 5.52-4.2 1.15-8.53.36-12.79-2a4 4 0 0 1-1.9-2.11 7 7 0 0 1-.11-1.37 5.28 5.28 0 0 1 .12-1.05l5.39.85V144c0 1.39 1.43 1.53 2.42 1.74s2.49.56 3.05-.66c.46-1-.41-1.89-1.28-2.5-1.56-1.09-3.21-2-4.79-3.09a23.89 23.89 0 0 1-3.16-2.34c-2.49-2.31-2.09-5.2.85-6a12.24 12.24 0 0 1 5.77 0zm-152.68-15.43v-8.42l5.72.9v14.29l7.91 1.2 1.25.19v2.58l-14.83-2.34v-1.28zm107.44 16.88v8.47c0 .05-5.8-.91-5.8-.91v-16.93l5.83.91s-.04 7.03-.03 8.46z" transform="translate(-.98 -.52)" style="fill:#fefefe"/><path class="ba1fc2b3-5a19-430d-b0ea-b4a1b5248a8d" d="M156.39 123.26c.82-2.45 1.6-4.79 2.37-7.13h.38c.79 2.6 1.59 5.2 2.42 7.92z" transform="translate(-.98 -.52)"/></g></svg>