<svg xmlns="http://www.w3.org/2000/svg" xmlns:xlink="http://www.w3.org/1999/xlink" viewBox="0 0 470.58 67.66"><defs><style>.b7e1366e-514e-41fb-8acd-a4db5bcba10c{stroke:#9def48;stroke-miterlimit:10;fill:url(#a3b73d42-c7cf-491a-8d07-0dbdcb435cbd);}.f432853e-8217-42d1-a4dd-b23b76d8d175{fill:#9def48;}.b7f2b683-5840-417d-9f0d-0f04b9dfb5b1{fill:#02a54b;}.a150b00a-3202-460b-a1ef-f46d1a61479d{fill:#f3ffe6;}.a9345132-b151-4688-9656-7ed6797f2faa{fill:#58cc36;}</style><linearGradient id="a3b73d42-c7cf-491a-8d07-0dbdcb435cbd" x1="0.5" y1="33.83" x2="470.08" y2="33.83" gradientUnits="userSpaceOnUse"><stop offset="0" stop-color="#032c02"/><stop offset="1" stop-color="#207a09"/></linearGradient></defs><g id="fab65229-84ae-4ab7-b12e-4b7a946d63a2" data-name="texte"><polygon class="b7e1366e-514e-41fb-8acd-a4db5bcba10c" points="0.5 6.04 102.57 6.04 108.7 0.5 150.44 0.5 158.35 6.04 461.77 6.24 470.08 16.13 470.08 59.84 50.94 59.84 42.83 67.16 8.02 67.16 0.5 59.84 0.5 6.04"/><path class="f432853e-8217-42d1-a4dd-b23b76d8d175" d="M83.39,30.44l1.85,2A18.17,18.17,0,0,1,81,44.73H56.87a17.11,17.11,0,0,1-3.67-7.3h4.37a18.67,18.67,0,0,0,1.49,3.23H78.85A17.23,17.23,0,0,0,81,34.49H54.49l-1.84-2a18.25,18.25,0,0,1,4.22-12.26H81a17.11,17.11,0,0,1,3.67,7.3H80.32a18.89,18.89,0,0,0-1.47-3.23H59.06a17.33,17.33,0,0,0-2.21,6.15Z"/><path class="f432853e-8217-42d1-a4dd-b23b76d8d175" d="M95.46,37.91l-4.29,6.82H86.09l15.57-24.51h4.69l15.44,24.51h-5l-4.24-6.82Zm14.56-4-6-9.59-6,9.59Z"/><path class="f432853e-8217-42d1-a4dd-b23b76d8d175" d="M136.92,24.29h-7.86a16.33,16.33,0,0,0-2.34,8.19,16.37,16.37,0,0,0,2.34,8.18h2.7v4.07h-4.89a18.22,18.22,0,0,1-4.22-12.25,18.19,18.19,0,0,1,4.22-12.26h10V16.38H141v3.84H151a18.19,18.19,0,0,1,4.22,12.26A18.22,18.22,0,0,1,151,44.73h-4.89V40.66h2.72a16.45,16.45,0,0,0,2.32-8.18,16.4,16.4,0,0,0-2.32-8.19H141V38.82h-4.05Z"/><path class="f432853e-8217-42d1-a4dd-b23b76d8d175" d="M172.93,24.29h-7.86a16.34,16.34,0,0,0-2.35,8.19,16.39,16.39,0,0,0,2.35,8.18h2.7v4.07h-4.89a18.17,18.17,0,0,1-4.22-12.25,18.14,18.14,0,0,1,4.22-12.26h10.05V16.38h4v3.84H187a18.19,18.19,0,0,1,4.22,12.26A18.22,18.22,0,0,1,187,44.73h-4.89V40.66h2.72a16.45,16.45,0,0,0,2.32-8.18,16.4,16.4,0,0,0-2.32-8.19H177V38.82h-4Z"/><path class="f432853e-8217-42d1-a4dd-b23b76d8d175" d="M196.51,34.49l-1.84-2a18.2,18.2,0,0,1,4.22-12.26h4.88v4.07h-2.7a17.49,17.49,0,0,0-2.2,6.15h24.18a17.27,17.27,0,0,0-2.19-6.15h-2.71V20.22H223a18.2,18.2,0,0,1,4.23,12.26A18.12,18.12,0,0,1,223,44.73H198.89a17.13,17.13,0,0,1-3.68-7.3h4.38a18.61,18.61,0,0,0,1.48,3.23h19.79a16.86,16.86,0,0,0,2.19-6.17Z"/></g><g id="a4d903d0-43b4-4434-bebe-bbb53bed27d6" data-name="sammy"><path class="b7f2b683-5840-417d-9f0d-0f04b9dfb5b1" d="M19.51,55.89A6.12,6.12,0,0,1,22,52.09a5.1,5.1,0,0,1,6.76.66,6.77,6.77,0,0,1-.57,9.74,5.24,5.24,0,0,1-1.47.84c-.12.05-.27,0-.33.19h-.27l-3.31-3.84a2.53,2.53,0,0,0,1.33-3.1,1.86,1.86,0,0,0-1.67-1.41,1.73,1.73,0,0,0-1.55,1.34c-.07.25-.11.5-.18.82L19.49,56l0,0Z"/><path class="a150b00a-3202-460b-a1ef-f46d1a61479d" d="M22.82,32.87c-1.32-1.22-1-2.61-.09-3.27A2,2,0,0,1,22.17,27a1.44,1.44,0,0,1,1.33-.85h6c.24,0,.26.1.26.3,0,.52,0,1,0,1.57,0,.29-.1.34-.36.34H25.06c-.24,0-.48,0-.72,0s-.6.13-.58.53a.53.53,0,0,0,.61.55c1.62,0,3.23,0,4.85,0,.41,0,.54.1.51.51a6.63,6.63,0,0,0,0,1.26c0,.34-.06.46-.44.45-1.63,0-3.26,0-4.89,0-.38,0-.6.11-.6.53s.26.48.6.48c1.63,0,3.26,0,4.89,0,.38,0,.46.11.44.45a14.81,14.81,0,0,0,0,1.49c0,.24-.07.3-.3.3-2.34,0-4.67,0-7,0-.27,0-.31-.1-.3-.34a11.42,11.42,0,0,0,0-1.17c0-.44,0-.74.7-.54Z"/><path class="a150b00a-3202-460b-a1ef-f46d1a61479d" d="M22.84,22.88c-1.15-1.12-1.15-2.37-.09-3.22a2,2,0,0,1-.63-2.52,1.45,1.45,0,0,1,1.42-1h5.88c.23,0,.32.06.31.3,0,.52,0,1.05,0,1.57,0,.28-.08.36-.35.36-1.38,0-2.75,0-4.13,0l-.94,0c-.34,0-.51.15-.5.48s.14.53.51.55c1.63.07,3.26,0,4.89,0,.45,0,.57.12.52.55a5.62,5.62,0,0,0,0,1.16c.05.44-.13.51-.52.5-1.61,0-3.23,0-4.85,0-.24,0-.44.05-.52.31s0,.66.45.68c.67,0,1.34,0,2,0q1.55,0,3.09,0c.26,0,.38,0,.36.33,0,.54,0,1.08,0,1.62,0,.22-.06.28-.27.28h-7c-.22,0-.28-.07-.28-.29a9.77,9.77,0,0,0,0-1.21c0-.4,0-.77.68-.57Z"/><path class="a150b00a-3202-460b-a1ef-f46d1a61479d" d="M26.35,48V48a2.21,2.21,0,0,1,0-.93c.13-.25.54-.06.82-.14a1,1,0,0,0,.73-.53.88.88,0,0,0-.12-1,1.31,1.31,0,0,0-1.46.19,7.51,7.51,0,0,0-.67.9,12.63,12.63,0,0,1-1,1.45,3.35,3.35,0,0,1-4.16.68,1.68,1.68,0,0,1-.4-.3,3.29,3.29,0,0,1-.62-3.44A2.47,2.47,0,0,1,21.75,43c.92-.15.92-.14.92.8v.32a2.34,2.34,0,0,1,0,.88c-.12.28-.5.1-.76.2s-.6.29-.65.66a.67.67,0,0,0,.26.72.94.94,0,0,0,1,0,2,2,0,0,0,.7-.75,20.56,20.56,0,0,1,1.19-1.74,3.8,3.8,0,0,1,4.73-.67,1.9,1.9,0,0,1,.75,1.14A5.09,5.09,0,0,1,29.89,47a2.55,2.55,0,0,1-2.19,2.12c-1.35.29-1.35.3-1.35-1Zm3.49-12V38c0,.14,0,.28-.15.33-.55.14-.27.4-.1.65a2.19,2.19,0,0,1-.18,2.83,1.61,1.61,0,0,1-.38.31,2.67,2.67,0,0,1-3.58-1.28c-.22-.58-.42-1.18-.67-1.75a.7.7,0,0,0-1-.42.59.59,0,0,0-.39.64.64.64,0,0,0,.48.58,1.29,1.29,0,0,0,.39.08c.2,0,.29.08.28.3q0,.9,0,1.8c0,.24-.1.26-.3.24a2.37,2.37,0,0,1-2.33-2.09,6.74,6.74,0,0,1,0-2.15,1.9,1.9,0,0,1,2.06-1.77c1.53,0,3,0,4.58,0a3.68,3.68,0,0,0,1.32-.19ZM26.11,38.5c.19.39.34.71.51,1a1.18,1.18,0,0,0,.23.27.94.94,0,0,0,1.08.17.69.69,0,0,0,.41-.68c0-.41-.31-.72-.84-.77s-.88,0-1.38,0Z"/><path class="a9345132-b151-4688-9656-7ed6797f2faa" d="M19.51,55.89v0l0,0a2.43,2.43,0,0,0-.26,2.5.71.71,0,0,0,.68.5c.31,0,.46-.25.58-.5a2.48,2.48,0,0,0,.2-1c.16-.06.19.08.24.15.52.58,1,1.16,1.54,1.75.11.12.25.21.16.42a2.4,2.4,0,0,1-1.87,1.67,1.58,1.58,0,0,1-1.44-.64,4.47,4.47,0,0,1-1-2.35A6.49,6.49,0,0,1,18.63,55c.36.27.53.66.88.87Z"/><path class="a150b00a-3202-460b-a1ef-f46d1a61479d" d="M22.09,9.79q0,.9,0,1.8c0,.16.05.25.22.27l4.21.64v.1l-4.18.54c-.23,0-.26.14-.26.33,0,.57,0,1.14,0,1.71,0,.3.09.3.34.24.93-.22,1.87-.42,2.8-.62l4.51-1c.72-.15.89,0,.85.66,0,.24.09.27.29.27a4.92,4.92,0,0,1,.94,0,.46.46,0,0,0,.56-.41v-1a2.16,2.16,0,0,0-1.54-1.7,4.86,4.86,0,0,0-.76-.26l-3-.67-4.64-1C22.32,9.6,22.08,9.43,22.09,9.79Z"/></g></svg>