<svg xmlns="http://www.w3.org/2000/svg" xmlns:xlink="http://www.w3.org/1999/xlink" viewBox="0 0 746.51 822.18"><defs><radialGradient id="abb0eb07-67bd-46ec-912e-e462bff3624e" cx="100.32" cy="382.53" r="5.66" gradientTransform="matrix(1 0 0 .6 0 153.01)" xlink:href="#a82c96d5-5bf5-4ee8-88bc-7c83c8ee8f59"/><radialGradient id="fae51bb0-a017-4958-8c36-ca392cb73bc7" cx="217.55" cy="416.02" r="5.66" xlink:href="#be78e50d-c8d0-493d-b550-6d37976ad990"/><radialGradient id="a82c96d5-5bf5-4ee8-88bc-7c83c8ee8f59" cx="92.36" cy="393.88" r="5.66" gradientTransform="matrix(1 0 0 .6 0 157.55)" gradientUnits="userSpaceOnUse"><stop offset="0" stop-color="#0000ef"/><stop offset=".15" stop-color="#0000e9"/><stop offset=".34" stop-color="#0101d9"/><stop offset=".56" stop-color="#0101be"/><stop offset=".79" stop-color="#02029a"/><stop offset="1" stop-color="#020282"/></radialGradient><radialGradient id="f3a182f0-a4d3-4036-bb4e-43d62df7773b" cx="114.61" cy="393.88" r="5.66" xlink:href="#a82c96d5-5bf5-4ee8-88bc-7c83c8ee8f59"/><radialGradient id="a2ce1b17-5921-4679-829d-f01609769793" cx="133.17" cy="400.04" r="5.66" gradientTransform="matrix(1 0 0 .6 0 160.02)" xlink:href="#a82c96d5-5bf5-4ee8-88bc-7c83c8ee8f59"/><radialGradient id="aaf3f5cb-293b-4c9e-90d1-347a90732031" cx="139.21" cy="387.78" r="5.66" gradientTransform="matrix(1 0 0 .6 0 155.11)" xlink:href="#a82c96d5-5bf5-4ee8-88bc-7c83c8ee8f59"/><radialGradient id="a4b8221d-53c7-4c24-8532-0733ab2c0331" cx="121.61" cy="382.1" r="5.66" gradientTransform="matrix(1 0 0 .6 0 152.84)" xlink:href="#a82c96d5-5bf5-4ee8-88bc-7c83c8ee8f59"/><radialGradient id="ac048eb2-7b09-4c96-97a4-6bb41257527a" cx="195.83" cy="370.99" r="11.47" xlink:href="#be78e50d-c8d0-493d-b550-6d37976ad990"/><radialGradient id="b3b58ae2-f6ff-4b11-aa72-a126d4549a4b" cx="225.51" cy="404.67" r="5.66" xlink:href="#be78e50d-c8d0-493d-b550-6d37976ad990"/><radialGradient id="afa66178-63ca-42ac-a842-b749f67883a3" cx="246.79" cy="404.24" r="5.66" xlink:href="#be78e50d-c8d0-493d-b550-6d37976ad990"/><radialGradient id="aa20afab-03ea-4466-bfd5-0011f1771316" cx="264.4" cy="409.93" r="5.66" xlink:href="#be78e50d-c8d0-493d-b550-6d37976ad990"/><radialGradient id="a78bb0a7-ac8a-4f62-95bc-1badbe09d96b" cx="258.36" cy="422.19" r="5.66" xlink:href="#be78e50d-c8d0-493d-b550-6d37976ad990"/><radialGradient id="aa26b530-ee00-4ac2-82d4-e261f7e52438" cx="239.79" cy="416.02" r="5.66" xlink:href="#be78e50d-c8d0-493d-b550-6d37976ad990"/><radialGradient id="be78e50d-c8d0-493d-b550-6d37976ad990" cx="65.88" cy="348.77" r="11.47" gradientUnits="userSpaceOnUse"><stop offset="0" stop-color="#fd6d66"/><stop offset=".78" stop-color="#b50a03"/></radialGradient><linearGradient id="f641f0e6-99bc-4d28-a140-f5e6403ef101" x1="380.22" y1="429.77" x2="404.99" y2="429.77" gradientTransform="matrix(.99 .16 .16 -.99 -219.14 440.03)" gradientUnits="userSpaceOnUse"><stop offset="0" stop-color="#f5c5c5"/><stop offset="1" stop-color="#e3aeae"/></linearGradient><linearGradient id="aed10ac9-e47a-4eb2-a3c8-f52a1dd85a45" x1="313.93" y1="408.82" x2="313.93" y2="382.56" gradientTransform="matrix(.99 .16 .16 -.99 -219.14 440.03)" gradientUnits="userSpaceOnUse"><stop offset="0" stop-color="#f59f9f"/><stop offset=".42" stop-color="#f5a1a1"/><stop offset=".62" stop-color="#f5a9a9"/><stop offset=".78" stop-color="#f5b6b6"/><stop offset=".92" stop-color="#f6c9c9"/><stop offset="1" stop-color="#f6d8d8"/></linearGradient><linearGradient id="ed90e7ba-cf64-415e-9075-34b987b24ffe" x1="324.29" y1="405.52" x2="324.29" y2="382.33" gradientTransform="matrix(.99 .16 .16 -.99 -219.14 440.03)" gradientUnits="userSpaceOnUse"><stop offset="0" stop-color="#e20000"/><stop offset=".3" stop-color="#e20202"/><stop offset=".45" stop-color="#e30a0a"/><stop offset=".56" stop-color="#e41717"/><stop offset=".65" stop-color="#e62929"/><stop offset=".73" stop-color="#e84141"/><stop offset=".81" stop-color="#eb5e5e"/><stop offset=".88" stop-color="#ee8282"/><stop offset=".94" stop-color="#f2a9a9"/><stop offset="1" stop-color="#f6d6d6"/><stop offset="1" stop-color="#f6d8d8"/></linearGradient><linearGradient id="edc521d6-170e-457d-b56c-861b01caf097" x1="309.44" y1="405.52" x2="309.44" y2="428.29" gradientTransform="matrix(.99 .16 .16 -.99 -219.14 440.03)" gradientUnits="userSpaceOnUse"><stop offset="0" stop-color="#f6cfd0"/><stop offset=".36" stop-color="#f5cccd"/><stop offset=".62" stop-color="#f2c3c4"/><stop offset=".85" stop-color="#eeb3b4"/><stop offset="1" stop-color="#e9a4a5"/></linearGradient><linearGradient id="b567ba87-1021-42b8-b205-007e51d36648" x1="319.61" y1="402.37" x2="319.61" y2="428.51" gradientTransform="matrix(.99 .16 .16 -.99 -219.14 440.03)" gradientUnits="userSpaceOnUse"><stop offset="0" stop-color="#ec7878"/><stop offset=".33" stop-color="#ec7b7b"/><stop offset=".57" stop-color="#ec8484"/><stop offset=".78" stop-color="#eb9494"/><stop offset=".97" stop-color="#ebaaaa"/><stop offset="1" stop-color="#ebaeae"/></linearGradient><linearGradient id="a40898a5-fa1e-4628-b346-86a5527acd54" x1="362.46" y1="383.24" x2="368.5" y2="383.24" gradientTransform="matrix(.99 .16 .16 -.99 -219.14 440.03)" gradientUnits="userSpaceOnUse"><stop offset="0" stop-color="#bb0508"/><stop offset=".44" stop-color="#bd0609"/><stop offset=".65" stop-color="#c5080b"/><stop offset=".81" stop-color="#d20c0f"/><stop offset=".94" stop-color="#e41215"/><stop offset="1" stop-color="#ef1518"/></linearGradient><linearGradient id="b4647f2e-19a8-4414-9f20-e0ff5a6fd34d" x1="355.25" y1="373.12" x2="371.67" y2="373.12" gradientTransform="matrix(.99 .16 .16 -.99 -219.14 440.03)" gradientUnits="userSpaceOnUse"><stop offset="0" stop-color="#f2b2b2"/><stop offset=".4" stop-color="#f2b0b0"/><stop offset=".59" stop-color="#f3a8aa"/><stop offset=".74" stop-color="#f39b9f"/><stop offset=".86" stop-color="#f4898f"/><stop offset=".97" stop-color="#f6717a"/><stop offset="1" stop-color="#f66a74"/></linearGradient><linearGradient id="e4d73efe-2508-41f6-8fec-0c37c4035148" x1="343.92" y1="379.82" x2="356.92" y2="379.82" gradientTransform="matrix(.99 .16 .16 -.99 -219.14 440.03)" gradientUnits="userSpaceOnUse"><stop offset="0" stop-color="#e80001"/><stop offset=".27" stop-color="#eb191c"/><stop offset=".84" stop-color="#f45760"/><stop offset="1" stop-color="#f66a74"/></linearGradient><linearGradient id="b951cdaa-db32-4825-837e-d97b7a6965f5" x1="339.71" y1="389.38" x2="366.25" y2="389.38" gradientTransform="matrix(.99 .16 .16 -.99 -219.14 440.03)" gradientUnits="userSpaceOnUse"><stop offset="0" stop-color="#f33248"/><stop offset=".13" stop-color="#f44d5e"/><stop offset=".4" stop-color="#f89196"/><stop offset=".49" stop-color="#f9a8a9"/><stop offset="1" stop-color="#fccdce"/></linearGradient><linearGradient id="b52bf671-9ced-4ec8-a6e1-d9d6f1cfbc2f" x1="343.93" y1="401.32" x2="367.86" y2="401.32" gradientTransform="matrix(.99 .16 .16 -.99 -219.14 440.03)" gradientUnits="userSpaceOnUse"><stop offset="0" stop-color="#e82121"/><stop offset=".18" stop-color="#e53b3c"/><stop offset=".49" stop-color="#e07071"/><stop offset=".96" stop-color="#f9c5c6"/><stop offset="1" stop-color="#fccdce"/></linearGradient><linearGradient id="af5d4ce7-be68-44d4-bfd2-0136eeff5265" x1="381.5" y1="400.97" x2="409.08" y2="400.97" xlink:href="#b52bf671-9ced-4ec8-a6e1-d9d6f1cfbc2f"/><linearGradient id="b27abde3-e1c9-423e-ae9c-c0fde3019199" x1="381.15" y1="420.76" x2="395.53" y2="445.66" gradientTransform="matrix(.99 .16 .16 -.99 -219.14 440.03)" gradientUnits="userSpaceOnUse"><stop offset="0" stop-color="#f0aeae"/><stop offset=".2" stop-color="#f5c9c9"/><stop offset=".49" stop-color="#fdf6f6"/><stop offset="1" stop-color="#fdf6f6"/></linearGradient><linearGradient id="fc7e16b4-421c-44c3-977e-f811f7e9b1fc" x1="403.59" y1="407.63" x2="394" y2="424.24" gradientTransform="matrix(.99 .16 .16 -.99 -219.14 440.03)" gradientUnits="userSpaceOnUse"><stop offset="0" stop-color="#e82b2b"/><stop offset=".24" stop-color="#e94646"/><stop offset=".76" stop-color="#ed8a8a"/><stop offset="1" stop-color="#efabab"/></linearGradient><style>.a4ca1850-e957-4170-8785-592e56333db2{fill:#373735}.f0cd514a-872f-47cb-9924-d882ffbb5d44{fill:#121211}.a6b9c982-b621-4cc1-883f-9ef4d257c7d0,.be7b9110-52a5-451e-8b97-015a1fb37dee,.e961dbab-6d2d-48c8-907d-61be551dd000,.ed2b4069-93ba-4338-9ae9-e57c268e86e2,.f0cd514a-872f-47cb-9924-d882ffbb5d44{stroke:#b5b5b5}.a114a007-d6ba-4fb7-b7ec-12085822f51e,.a6b9c982-b621-4cc1-883f-9ef4d257c7d0,.bca2760f-89f6-4aec-8302-d24c5ce26d87,.be7b9110-52a5-451e-8b97-015a1fb37dee,.e3c844f0-2d37-4baf-a92f-7e169ae32c29,.e961dbab-6d2d-48c8-907d-61be551dd000,.ed2b4069-93ba-4338-9ae9-e57c268e86e2,.f0cd514a-872f-47cb-9924-d882ffbb5d44{stroke-miterlimit:10}.a6b9c982-b621-4cc1-883f-9ef4d257c7d0,.bca2760f-89f6-4aec-8302-d24c5ce26d87,.be7b9110-52a5-451e-8b97-015a1fb37dee,.e961dbab-6d2d-48c8-907d-61be551dd000,.ed2b4069-93ba-4338-9ae9-e57c268e86e2,.f0cd514a-872f-47cb-9924-d882ffbb5d44{stroke-width:.5px}.a114a007-d6ba-4fb7-b7ec-12085822f51e{fill:#443840;stroke:#090000}.bca2760f-89f6-4aec-8302-d24c5ce26d87{stroke:#090000}.a114a007-d6ba-4fb7-b7ec-12085822f51e{stroke-width:.75px}.bca2760f-89f6-4aec-8302-d24c5ce26d87{fill:#6b0c05}.e1f3810e-f2ed-424a-8487-ad86227b4648{fill:#86382f}.e3c844f0-2d37-4baf-a92f-7e169ae32c29{stroke:#373737}.b66e063c-2ed5-4470-b178-c9a82172aa71{fill:#fff}.e961dbab-6d2d-48c8-907d-61be551dd000{fill:#dc6e05}.ed2b4069-93ba-4338-9ae9-e57c268e86e2{fill:#12e600}.a6b9c982-b621-4cc1-883f-9ef4d257c7d0{fill:#0b47ce}.be7b9110-52a5-451e-8b97-015a1fb37dee,.f3c7d8c6-610b-46ab-89d8-5299ae1602a4{fill:#282826}.f9e33d5d-959c-4e16-868c-a8c22bcd6440{fill:#ae7a82}.fe793f11-d08c-4f94-aa8e-d223edd7c1e4{fill:url(#be78e50d-c8d0-493d-b550-6d37976ad990)}.a8c3fb04-7ddb-4e8d-9c3f-155e1930f47e{fill:url(#ac048eb2-7b09-4c96-97a4-6bb41257527a)}.aa09279d-4c13-4166-be5a-8630a2033f58{fill:#0000ef}.a154271e-5667-418b-b6cc-a5c04b708f3e{fill:#930303}.e5cf8e69-1f96-4241-b7b5-a3b0900604c0{fill:#e7e7e7}.b4c246f8-3b56-4652-b03b-2612f87bfddd{fill:#2c2b29}</style></defs><g id="b050cd75-adbf-4362-85f7-55243e2c0abd" data-name="Calque 1"><path id="a95f08b6-df4c-4919-9986-20152464245d" data-name="ombre" style="opacity:.5;fill:#373735" d="m452.03 588.79 21.51-5.91H485.41l1.58 2.96 237.36 43.3h11.08l11.07 31.39-46.41 37.71-46.42 13.19-8.18-1.32.27-1.85-13.98-2.63-83.6 27.95-73.32 51.57-22.83 6.82-7.77-1.16v-2.63l-16.08-3.03-129.99 34.37 153.84-230.73z"/><g id="bdbf1416-c18a-4729-9cf3-d3506366e11f" data-name="bottom"><path class="a4ca1850-e957-4170-8785-592e56333db2" d="m36 454.56 224.9 39.62v4.35l25.72 6.13-.4 311.34-248.24-47.27L36 454.56z"/><path class="f0cd514a-872f-47cb-9924-d882ffbb5d44" d="m202 526.54-78.38-13.74c-3 .19-4.26 3.56-4.26 3.56l.2 85c.69 2.18 3.86 5 3.86 5l74.27 13.46c5.14.49 7.52-5.25 7.52-5.25v-82.69a7.12 7.12 0 0 0-3.21-5.34zm-49.9 22.55-18.69-3.46v-20l2.27-1.88 18.1 3.07-1.78 2.69zm31.45 6.13-18.69-3.46v-20l2.27-1.87 18.1 3.06-1.78 2.67z" transform="translate(-.98 -.52)"/><path class="a114a007-d6ba-4fb7-b7ec-12085822f51e" d="m134.7 523.25-2.27 1.88v19.98l18.69 3.46-.1-19.58 1.78-2.67-18.1-3.07zM166.15 529.38l-2.27 1.88v19.98l18.69 3.46-.1-19.58 1.78-2.67-18.1-3.07z"/><path class="bca2760f-89f6-4aec-8302-d24c5ce26d87" d="M140.14 543.03v-12.85l8.01 1.78v12.56l-8.01-1.49zM171.2 548.87v-12.86l8.01 1.78v12.56l-8.01-1.48z"/><path d="M135.23 543.16v-15.23l2.05.4v15.16l-2.05-.33zM166.68 548.7v-15.23l2.04.4v15.16l-2.04-.33z"/><path class="e1f3810e-f2ed-424a-8487-ad86227b4648" d="M140.4 530.69v-.35l7.47 1.8.01.43-7.48-1.88zM171.46 536.62v-.29l7.47 1.64.01.35-7.48-1.7z"/><circle cx="192.4" cy="574.85" r="4.25" style="fill:#8b8b8b;stroke-width:.75px;stroke:#090000;stroke-miterlimit:10"/><path class="e3c844f0-2d37-4baf-a92f-7e169ae32c29" d="M136.29 598.71v-11.27l11.96 2.18v11.3l-11.96-2.21zM167.54 604.25v-11.27l11.96 2.17v10.88l-11.96-1.78z"/></g><g id="af241060-8802-4667-88a2-5e02f86c75e0" data-name="t molding"><path class="b66e063c-2ed5-4470-b178-c9a82172aa71" d="m11.46 450.59-.79-39.76L1 407.66v45.1l27.89 5.54c.59 103.55 1 207.6 1.58 311.15a6.18 6.18 0 0 0 3.53 2.19 12.58 12.58 0 0 0 5 0l-2-316.56zM272.36 497v-41.27l-10.28-1.19-.2 44.51 25.71 6.13s-1.51 313.85 0 315.69 8.77 1.32 8.77 1.32l.93-319.91z" transform="translate(-.98 -.52)"/><path class="b66e063c-2ed5-4470-b178-c9a82172aa71" d="m78.72 346.42-8.15-1.3 16.26-218.56 9.04 1.5-17.15 218.36zM329.24 388.85l9.1 1.28 18.49-224.31h-26.37l-.26-90.92-10.06-1.84v94.84l6.04 1.09h20.27l-17.21 219.86z"/><path class="b66e063c-2ed5-4470-b178-c9a82172aa71" d="M88.49 127.19s-28.17-.35-29.11-.85c0-31.21.06-62.83 0-94l9.36 2.64.48 89.02z" transform="translate(-.98 -.52)"/><g id="bdadf30f-aa03-4b3e-8112-17b88b58311f" data-name="clair"><path class="b66e063c-2ed5-4470-b178-c9a82172aa71" d="m0 407.14 9.69 3.17L78 346.25l-8.11-1.94L0 407.14zM261.1 454.02l10.28 1.19 66.96-65.87-8.62-1.6-68.62 66.28zM111.56 0 58.42 31.78l9.36 2.64L120.36 3.3l2.74-1.62-2.57-.36L111.56 0zM383.74 40.62l-11.21-.8-52.39 33.24 10.06 1.84 53.54-34.28z"/></g></g><g id="a1db16ac-a7b2-47ac-bd59-afbdd51d151f" data-name="side"><path class="f0cd514a-872f-47cb-9924-d882ffbb5d44" d="m453.13 308.64.63-159.63-70.02-108.39L330.2 74.9l.26 90.92h26.37l-18.49 224.31-66.96 65.08v41.27l24.93 5.28-.93 319.91 8.25-6.32 149.65-543.7-.21 21.51-142.1 516.55-1.61 1.24 6.94-5.32 136.83-496.99zM324.06 799.15l-7.76 6.48 11.99-9.2 124.7-453.24.05-12.13-128.98 468.09zM335.43 790.95l-1.32 1.02 6.87-5.27 111.79-407.64v21.25l.22-57.12-.22 24-117.34 423.76zM343 785.15l108.58-83.28 1.18-299.85L347.4 781.78l-4.4 3.37z"/><path style="fill:#bf0000;stroke-width:.5px;stroke-miterlimit:10;stroke:#b5b5b5" d="m303.63 815.35 5.73-4.4-5.73 4.4z"/><path class="b66e063c-2ed5-4470-b178-c9a82172aa71" d="m453.07 293.16.21-21.51-149.65 543.7 5.73-4.4 1.61-1.24 142.1-516.55z"/><path class="e961dbab-6d2d-48c8-907d-61be551dd000" d="M453.13 330.74v-22.1l-.09 22.42.09-.32zM316.3 805.63z"/><path style="fill:#7a7a7a" d="m453.04 331.06.09-22.42L316.3 805.63l7.76-6.48 128.98-468.09z"/><path class="ed2b4069-93ba-4338-9ae9-e57c268e86e2" d="M452.99 343.19zM328.29 796.43l5.82-4.46-5.82 4.46z"/><path style="fill:#fe848d" d="m334.11 791.97 1.32-1.02 117.34-423.76.22-24-124.7 453.24 5.82-4.46z"/><path class="a6b9c982-b621-4cc1-883f-9ef4d257c7d0" d="m340.98 786.7 2.02-1.55-2.02 1.55zM452.77 402v-1.69l-.01 1.71.01-.02z"/><path style="fill:#c2020e" d="m340.98 786.7 2.02-1.55 4.4-3.37 105.36-379.76.01-1.71v-21.25L340.98 786.7z"/></g><g id="fd794d02-0d1c-4b8d-9b92-ef7c15fa4c6a" data-name="panel"><path class="be7b9110-52a5-451e-8b97-015a1fb37dee" d="m10.48 450.07 250.42 44.11.2-40.16L9.69 410.31l.79 39.76z"/><path class="a4ca1850-e957-4170-8785-592e56333db2" d="m79.37 345.21-69.68 65.1 251.41 43.71 68.62-66.28-250.35-42.53z"/></g><g id="be1d1acd-a6f5-4121-9c8d-76c1067233b5" data-name="ecran"><path class="be7b9110-52a5-451e-8b97-015a1fb37dee" d="M96.84 129.36 79.7 347.72l250.52 42.43L347.82 168zm224.28 67.76c0 .2-.29.32-.48.49l-10.43 144.83a35.43 35.43 0 0 1-4.3 3.78l1.4.29v10.7s-1.4 4.75-11.08 2.64c-11.19-2.44-178.55-31.91-178.55-31.91l8.72-6.78v-1.39s-2.46.52-6-7l-12.48 2.77h-4l11.34-158.77s4-6.85 10.81-6.59 191.16 30.59 191.16 30.59 6.17 1.07 3.89 16.35z" transform="translate(-.98 -.52)"/><path d="M317.28 180S133 149.66 126.12 149.4s-10.81 6.6-10.81 6.6l-11.74 160.08h4.35l12.29-2.68c-.1-.23-.74-1.57-.85-1.8L131 166.54s2.11-5.54 7.12-7.38l177.49 27.16a20.77 20.77 0 0 1 5.11 9.76l-.05.75c.19-.17.62.66.66.47 3.23-14.06-4.05-17.3-4.05-17.3z" transform="translate(-.98 -.52)" style="fill:#151312"/><path d="m125.32 320-8.56 8s164.63 29.3 178.61 32.24c10.36 2.17 14.43-3.58 14.43-3.58l.61-7.37.39-7.71-4.89 3.84a20.85 20.85 0 0 1-7.73 3.87z" transform="translate(-.98 -.52)" style="fill:#555353"/><path d="M319.5 197.81c.45-.36.83-.69 1.14-1l.66-.52a20.31 20.31 0 0 0-5.72-10l-177.49-27.13c-5 1.84-7.12 7.38-7.12 7.38L119.36 311.6l.32.66c3.54 7.52 6.28 8 6.28 8l.44.08 171.78 28.93a20.85 20.85 0 0 0 7.73-3.87c2.57-1.91 4.89-3.84 4.89-3.84l10.5-145.29c-.44.46-1.05.96-1.8 1.54zM143.83 302.35z" transform="translate(-.98 -.52)" style="fill:#008aa6"/></g><g id="a6b1e1dc-af5f-4361-9b55-281b09fefbfe" data-name="top"><path id="a19b0dd0-82d0-4f23-b8c4-3f05b85462b6" data-name="marquee" class="be7b9110-52a5-451e-8b97-015a1fb37dee" d="m68.24 123.5 251.47 39.03.43-89.47L67.78 34.42l.46 89.08z"/><path style="stroke-miterlimit:10;stroke:#b5b5b5;fill:#373735" d="m128.84 2.64-5.74-.96-55.32 32.74 252.36 38.64 52.39-33.24L128.84 2.64z"/></g><g id="a72d2884-e373-4ca1-873f-4ef65aab0262" data-name="stickp1"><path class="f3c7d8c6-610b-46ab-89d8-5299ae1602a4" d="M68.92 377.27v5.16H62.4v-5.16c-5.06.64-8.77 2.7-8.77 5.16 0 3 5.38 5.35 12 5.35s12-2.39 12-5.35c.06-2.43-3.63-4.52-8.71-5.16z" transform="translate(-.98 -.52)"/><path class="f9e33d5d-959c-4e16-868c-a8c22bcd6440" d="M68.92 377.27v-17.78a12.18 12.18 0 0 1-3 .39 12.4 12.4 0 0 1-3.48-.49v17.88a26.67 26.67 0 0 1 6.52 0z" transform="translate(-.98 -.52)"/><path class="f9e33d5d-959c-4e16-868c-a8c22bcd6440" d="M68.92 382.43v-5.16a26.67 26.67 0 0 0-6.52 0v5.16z" transform="translate(-.98 -.52)"/><path class="fe793f11-d08c-4f94-aa8e-d223edd7c1e4" d="M68.92 358.89v.6a11.24 11.24 0 0 0 8.77-10.72c0-6.14-5.29-11.11-11.81-11.11s-11.82 5-11.82 11.11a11.22 11.22 0 0 0 8.34 10.62v-.5z" transform="translate(-.98 -.52)"/><path class="f9e33d5d-959c-4e16-868c-a8c22bcd6440" d="M68.92 359.49v-.6H62.4v.5a12.4 12.4 0 0 0 3.48.49 12.18 12.18 0 0 0 3.04-.39z" transform="translate(-.98 -.52)"/><path class="fe793f11-d08c-4f94-aa8e-d223edd7c1e4" d="M68.92 359.49v-.6H62.4v.5a12.4 12.4 0 0 0 3.48.49 12.18 12.18 0 0 0 3.04-.39z" transform="translate(-.98 -.52)"/></g><g id="e8b2b5f1-e193-47b1-8952-ca4d7174eac3" data-name="stickp2"><path class="f3c7d8c6-610b-46ab-89d8-5299ae1602a4" d="M198.88 399.49v5.16h-6.53v-5.16c-5 .64-8.77 2.7-8.77 5.16 0 3 5.39 5.35 12 5.35s12-2.39 12-5.35c.07-2.46-3.64-4.52-8.7-5.16z" transform="translate(-.98 -.52)"/><path class="f9e33d5d-959c-4e16-868c-a8c22bcd6440" d="M198.88 399.49v-17.78a12.2 12.2 0 0 1-3 .39 12.83 12.83 0 0 1-3.48-.49v17.88a26.75 26.75 0 0 1 6.53 0z" transform="translate(-.98 -.52)"/><path class="f9e33d5d-959c-4e16-868c-a8c22bcd6440" d="M198.88 404.65v-5.16a26.75 26.75 0 0 0-6.53 0v5.16z" transform="translate(-.98 -.52)"/><path class="a8c3fb04-7ddb-4e8d-9c3f-155e1930f47e" d="M198.88 381.11v.6a11.24 11.24 0 0 0 8.77-10.71c0-6.14-5.29-11.11-11.82-11.11S184 364.85 184 371a11.22 11.22 0 0 0 8.34 10.62v-.5z" transform="translate(-.98 -.52)"/><path class="f9e33d5d-959c-4e16-868c-a8c22bcd6440" d="M198.88 381.71v-.6h-6.53v.5a12.83 12.83 0 0 0 3.48.49 12.2 12.2 0 0 0 3.05-.39z" transform="translate(-.98 -.52)"/><path class="a8c3fb04-7ddb-4e8d-9c3f-155e1930f47e" d="M198.88 381.71v-.6h-6.53v.5a12.83 12.83 0 0 0 3.48.49 12.2 12.2 0 0 0 3.05-.39z" transform="translate(-.98 -.52)"/></g><g id="b6dc84fb-c6f0-4903-99fd-e82117ce54cb" data-name="boutons P1"><g id="a0169b4f-04dd-4a58-a13f-bc35fd0f250d" data-name="4"><path class="aa09279d-4c13-4166-be5a-8630a2033f58" d="M92.54 389.14c-3.86 0-8.12 1.53-8.12 4.87 0 2.95 4.1 4.62 7.94 4.62 4.11 0 8-1.73 8-4.88-.04-2.35-3.88-4.61-7.82-4.61zm-.18 8.63c-3.86 0-7-1.74-7-3.89s3.13-3.89 7-3.89 7 1.74 7 3.89-3.14 3.89-7 3.89z" transform="translate(-.98 -.52)"/><path d="M92.36 390c-3.86 0-7 1.74-7 3.89s3.13 3.89 7 3.89 7-1.74 7-3.89-3.14-3.89-7-3.89z" transform="translate(-.98 -.52)" style="fill:url(#a82c96d5-5bf5-4ee8-88bc-7c83c8ee8f59)"/></g><g id="a2c83096-a5a5-4256-b24d-803395ce6004" data-name="5"><path class="aa09279d-4c13-4166-be5a-8630a2033f58" d="M114.79 389.14c-3.86 0-8.12 1.53-8.12 4.87 0 2.95 4.1 4.62 7.94 4.62 4.11 0 8-1.73 8-4.88-.04-2.35-3.88-4.61-7.82-4.61zm-.18 8.63c-3.86 0-7-1.74-7-3.89s3.13-3.89 7-3.89 7 1.74 7 3.89-3.14 3.89-7 3.89z" transform="translate(-.98 -.52)"/><path d="M114.61 390c-3.86 0-7 1.74-7 3.89s3.13 3.89 7 3.89 7-1.74 7-3.89-3.14-3.89-7-3.89z" transform="translate(-.98 -.52)" style="fill:url(#f3a182f0-a4d3-4036-bb4e-43d62df7773b)"/></g><g id="b758a2c6-30f4-4635-beaf-48ae4bb5a6e6" data-name="6"><path class="aa09279d-4c13-4166-be5a-8630a2033f58" d="M133.35 395.3c-3.86 0-8.13 1.53-8.13 4.87 0 3 4.11 4.62 7.95 4.62 4.1 0 8-1.73 8-4.88-.04-2.35-3.88-4.61-7.82-4.61zm-.18 8.63c-3.86 0-7-1.74-7-3.89s3.13-3.89 7-3.89 7 1.74 7 3.89-3.17 3.89-7 3.89z" transform="translate(-.98 -.52)"/><path d="M133.17 396.15c-3.86 0-7 1.74-7 3.89s3.13 3.89 7 3.89 7-1.74 7-3.89-3.17-3.89-7-3.89z" transform="translate(-.98 -.52)" style="fill:url(#a2ce1b17-5921-4679-829d-f01609769793)"/></g><g id="a7609a1f-9fda-45f5-93b6-36b9968e9d60" data-name="3"><path class="aa09279d-4c13-4166-be5a-8630a2033f58" d="M139.39 383c-3.86 0-8.13 1.53-8.13 4.88 0 2.95 4.11 4.61 8 4.61 4.1 0 8-1.73 8-4.88-.09-2.31-3.93-4.61-7.87-4.61zm-.18 8.63c-3.86 0-7-1.74-7-3.89s3.13-3.89 7-3.89 7 1.75 7 3.89-3.14 3.93-7 3.93z" transform="translate(-.98 -.52)"/><path d="M139.21 383.89c-3.86 0-7 1.75-7 3.89s3.13 3.89 7 3.89 7-1.74 7-3.89-3.14-3.89-7-3.89z" transform="translate(-.98 -.52)" style="fill:url(#aaf3f5cb-293b-4c9e-90d1-347a90732031)"/></g><g id="bce72e1e-aac5-4c36-b3fb-8b358afc329c" data-name="2"><path class="aa09279d-4c13-4166-be5a-8630a2033f58" d="M121.79 377.35c-3.86 0-8.12 1.53-8.12 4.88 0 2.95 4.1 4.61 7.94 4.61 4.11 0 8-1.73 8-4.88-.04-2.34-3.88-4.61-7.82-4.61zm-.18 8.64c-3.86 0-7-1.74-7-3.89s3.13-3.89 7-3.89 7 1.74 7 3.89-3.14 3.9-7 3.9z" transform="translate(-.98 -.52)"/><path d="M121.61 378.21c-3.86 0-7 1.74-7 3.89s3.13 3.89 7 3.89 7-1.74 7-3.89-3.14-3.89-7-3.89z" transform="translate(-.98 -.52)" style="fill:url(#a4b8221d-53c7-4c24-8532-0733ab2c0331)"/></g><g id="ad3b8149-de0c-46c4-9e63-36edacaa9bf5" data-name="1"><path class="aa09279d-4c13-4166-be5a-8630a2033f58" d="M100.5 377.78c-3.86 0-8.13 1.53-8.13 4.88 0 2.95 4.11 4.62 7.95 4.62 4.1 0 8-1.73 8-4.88-.04-2.35-3.88-4.62-7.82-4.62zm-.18 8.64c-3.86 0-7-1.74-7-3.89s3.13-3.89 7-3.89 7 1.74 7 3.89-3.14 3.89-7 3.89z" transform="translate(-.98 -.52)"/><path d="M100.32 378.64c-3.86 0-7 1.74-7 3.89s3.13 3.89 7 3.89 7-1.74 7-3.89-3.14-3.89-7-3.89z" transform="translate(-.98 -.52)" style="fill:url(#abb0eb07-67bd-46ec-912e-e462bff3624e)"/></g></g><g id="afa13845-4cc3-42fe-8b25-9b1e18a9aca2" data-name="boutons P2"><g id="aa90adf1-500d-4e6f-a61c-36be1b00790e" data-name="1"><path class="a154271e-5667-418b-b6cc-a5c04b708f3e" d="M225.69 399.93c-3.86 0-8.13 1.53-8.13 4.87 0 2.95 4.11 4.62 7.95 4.62 4.1 0 8-1.73 8-4.88-.04-2.35-3.88-4.61-7.82-4.61zm-.18 8.63c-3.86 0-7-1.74-7-3.89s3.13-3.89 7-3.89 7 1.74 7 3.89-3.14 3.89-7 3.89z" transform="translate(-.98 -.52)"/><path d="M225.51 400.78c-3.86 0-7 1.74-7 3.89s3.13 3.89 7 3.89 7-1.74 7-3.89-3.14-3.89-7-3.89z" transform="translate(-.98 -.52)" style="fill:url(#b3b58ae2-f6ff-4b11-aa72-a126d4549a4b)"/></g><g id="aef10762-1a6a-466d-9735-2be8b8853364" data-name="2"><path class="a154271e-5667-418b-b6cc-a5c04b708f3e" d="M247 399.49c-3.86 0-8.13 1.54-8.13 4.88 0 2.95 4.11 4.62 7.95 4.62 4.1 0 8-1.73 8-4.88-.07-2.35-3.91-4.62-7.82-4.62zm-.18 8.64c-3.86 0-7-1.74-7-3.89s3.13-3.89 7-3.89 7 1.74 7 3.89-3.17 3.89-7.03 3.89z" transform="translate(-.98 -.52)"/><path d="M246.79 400.35c-3.86 0-7 1.74-7 3.89s3.13 3.89 7 3.89 7-1.74 7-3.89-3.14-3.89-7-3.89z" transform="translate(-.98 -.52)" style="fill:url(#afa66178-63ca-42ac-a842-b749f67883a3)"/></g><g id="b991af2b-9502-4ec5-9084-70e81b63fd51" data-name="3"><path class="a154271e-5667-418b-b6cc-a5c04b708f3e" d="M264.58 405.18c-3.86 0-8.12 1.53-8.12 4.88 0 2.95 4.1 4.61 7.94 4.61 4.1 0 8-1.73 8-4.88-.04-2.35-3.88-4.61-7.82-4.61zm-.18 8.64c-3.86 0-7-1.75-7-3.89s3.13-3.89 7-3.89 7 1.74 7 3.89-3.14 3.89-7 3.89z" transform="translate(-.98 -.52)"/><path d="M264.4 406c-3.86 0-7 1.74-7 3.89s3.13 3.89 7 3.89 7-1.75 7-3.89-3.14-3.89-7-3.89z" transform="translate(-.98 -.52)" style="fill:url(#aa20afab-03ea-4466-bfd5-0011f1771316)"/></g><g id="ff8222fc-6460-4ee5-9a7d-8712998e8150" data-name="4"><path class="a154271e-5667-418b-b6cc-a5c04b708f3e" d="M258.54 417.44c-3.86 0-8.13 1.53-8.13 4.88 0 2.95 4.11 4.61 8 4.61 4.1 0 8-1.73 8-4.88-.09-2.35-3.93-4.61-7.87-4.61zm-.18 8.64c-3.86 0-7-1.75-7-3.89s3.13-3.89 7-3.89 7 1.74 7 3.89-3.14 3.89-7 3.89z" transform="translate(-.98 -.52)"/><path d="M258.36 418.3c-3.86 0-7 1.74-7 3.89s3.13 3.89 7 3.89 7-1.75 7-3.89-3.14-3.89-7-3.89z" transform="translate(-.98 -.52)" style="fill:url(#a78bb0a7-ac8a-4f62-95bc-1badbe09d96b)"/></g><g id="b139dc19-2447-4d71-9207-bd87a1d2ab36" data-name="5"><path class="a154271e-5667-418b-b6cc-a5c04b708f3e" d="M240 411.28c-3.86 0-8.13 1.53-8.13 4.88 0 2.95 4.11 4.61 7.95 4.61 4.1 0 8-1.73 8-4.88-.07-2.35-3.91-4.61-7.82-4.61zm-.18 8.63c-3.86 0-7-1.74-7-3.89s3.13-3.89 7-3.89 7 1.75 7 3.89-3.17 3.89-7.03 3.89z" transform="translate(-.98 -.52)"/><path d="M239.79 412.13c-3.86 0-7 1.75-7 3.89s3.13 3.89 7 3.89 7-1.74 7-3.89-3.14-3.89-7-3.89z" transform="translate(-.98 -.52)" style="fill:url(#aa26b530-ee00-4ac2-82d4-e261f7e52438)"/></g><g id="e5bf7863-e8b4-4179-b17c-60409fd1d190" data-name="6"><path class="a154271e-5667-418b-b6cc-a5c04b708f3e" d="M217.73 411.28c-3.86 0-8.13 1.53-8.13 4.88 0 2.95 4.11 4.61 8 4.61 4.1 0 8-1.73 8-4.88-.09-2.35-3.93-4.61-7.87-4.61zm-.18 8.63c-3.86 0-7-1.74-7-3.89s3.13-3.89 7-3.89 7 1.75 7 3.89-3.14 3.89-7 3.89z" transform="translate(-.98 -.52)"/><path d="M217.55 412.13c-3.86 0-7 1.75-7 3.89s3.13 3.89 7 3.89 7-1.74 7-3.89-3.14-3.89-7-3.89z" transform="translate(-.98 -.52)" style="fill:url(#fae51bb0-a017-4958-8c36-ca392cb73bc7)"/></g></g><path class="e5cf8e69-1f96-4241-b7b5-a3b0900604c0" d="M228.57 237.19v.07l-5.92-1v-.08zM236.56 238.53a.13.13 0 0 0 0 .06l-5.72-1v-.06z" transform="translate(-.98 -.52)"/><path class="b4c246f8-3b56-4652-b03b-2612f87bfddd" d="m210.17 273.38-65.56-11c-.87-.14-.87-.14-.74-.92.25-1.54.47-3.08.75-4.61.78-4.31 1.48-8.63 2.22-12.95.09-.48.22-1 .29-1.44 0-.18.12-.23.31-.19l.75.13 119.31 19.98a16.13 16.13 0 0 1 4.69 1.42 11.54 11.54 0 0 1 5.67 5.9 8.36 8.36 0 0 1 .63 3.88c0 .38-.08.76-.15 1.14l-1.56 9.36c-.07.39-.13.42-.54.36l-40.11-6.72zm14.68-7.7c-.4 2.35-.79 4.71-1.19 7.07 0 .23 0 .34.3.38 1 .15 1.95.32 2.93.49.51.09.51.09.59-.37q.69-4.22 1.4-8.43c0-.08 0-.21.12-.22s.13.1.17.17c1.69 3.14 3.43 6.26 5.06 9.42a2.38 2.38 0 0 0 3.55.6c.9-.94 1.91-1.79 2.87-2.68l4.89-4.53c.08-.07.15-.22.26-.17s0 .2 0 .31v.12c-.47 2.79-.93 5.58-1.4 8.37 0 .25 0 .35.31.4 1 .16 2 .32 3.06.51.34.07.45 0 .49-.32l2.32-13.83a1.32 1.32 0 0 0-.25-1 2.34 2.34 0 0 0-3.26-.37l-2.16 2-8.12 7.4c-.25.23-.28.22-.45-.08-2.2-4.06-4.42-8.11-6.61-12.17a2.14 2.14 0 0 0-1.43-1.06A1.74 1.74 0 0 0 226 259zm-4.51-.71c.38-2.31.76-4.61 1.16-6.92a1.32 1.32 0 0 0-.45-1.21 2.4 2.4 0 0 0-3.17 0c-2.39 2.24-4.82 4.43-7.24 6.63l-2.95 2.7c-.13.12-.23.25-.37 0l-3.44-6.31c-1.1-2-2.19-4-3.3-6a2.24 2.24 0 0 0-2.21-1 1.52 1.52 0 0 0-1.5 1.37q-1.16 6.86-2.3 13.71c0 .28.05.37.35.41 1 .15 2 .32 3 .5.44.07.45.08.51-.3.46-2.73.91-5.46 1.37-8.19 0-.13 0-.27.06-.4s0-.16.11-.17.1.08.13.14.18.34.28.51c1.63 3 3.29 6 4.88 9.07a2.34 2.34 0 0 0 3.35.6c.47-.47 1-.91 1.48-1.37l6.5-6c.06-.05.09-.14.19-.11s.07.14.06.22c-.14.81-.28 1.62-.41 2.44-.35 2.06-.69 4.13-1 6.2 0 .22 0 .32.29.36l3 .5c.44.07.45.07.52-.31q.51-3.6 1.1-7.04zm33.15 5.67c-.38 2.28-.76 4.57-1.15 6.85-.06.31.06.41.38.45 1 .16 2 .32 3 .5.33.07.45 0 .5-.31.16-1 .35-2.08.51-3.12 0-.23.12-.33.4-.28l12.77 2.14c.33.05.39.18.34.45-.18 1-.34 2.08-.53 3.12-.05.25 0 .35.32.4 1 .15 2 .32 3 .49.45.07.46.07.53-.34l1.22-7.32a6.88 6.88 0 0 0-2.51-6.52 12.61 12.61 0 0 0-6.36-3c-2.38-.41-4.76-.8-7.13-1.19-.72-.12-1.45-.26-2.17-.35a1.6 1.6 0 0 0-1.91 1.29c-.46 2.27-.83 4.5-1.21 6.74zm-62.24-10.42 1.14-6.79a1.24 1.24 0 0 0 0-.47 1.91 1.91 0 0 0-1.63-1.33c-1.55-.26-3.1-.53-4.65-.77-1.84-.3-3.66-.71-5.51-.87a11.55 11.55 0 0 0-7 1.39 6.55 6.55 0 0 0-3.37 4.67q-.63 3.74-1.25 7.47c-.07.4-.07.4.36.47 1 .17 2 .32 2.93.5.33.06.45 0 .5-.31.15-1 .34-2.06.5-3.09 0-.29.17-.35.48-.3l12.67 2.12c.34 0 .42.16.37.46-.19 1-.35 2.08-.54 3.11 0 .26 0 .36.32.4 1 .16 2 .32 3 .51.33.06.44 0 .49-.32.42-2.28.81-4.57 1.19-6.85zm-38.3 1 6.47 1.08a7.76 7.76 0 0 0 2.76 0 3.93 3.93 0 0 0 3.34-2.92c.64-3.78 1.26-7.55 1.9-11.33.05-.27 0-.37-.33-.42-1-.15-2-.32-3-.5-.36-.07-.46 0-.51.33q-.92 5.58-1.86 11.15a1.08 1.08 0 0 1-1.24.95 4.41 4.41 0 0 1-.73-.08c-1-.18-2-.37-3.06-.54l-7-1.15c-.28-.05-.35-.15-.31-.38.11-.59.19-1.18.31-1.76.06-.28 0-.4-.35-.45-.84-.13-1.68-.26-2.52-.42-.34-.07-.44 0-.49.32-.24 1.49-.49 3-.74 4.45-.07.42-.07.42.42.5zM230.83 237.63l5.72 1c.15.09.15.2.13.35-.37 2.17-.73 4.34-1.11 6.51 0 .29 0 .38.34.43 3.09.5 6.18 1 9.27 1.54.32.05.34.16.31.44-.06.67-.23 1.33-.32 2-.22 1.55-.54 3.09-.8 4.63-.1.59-.17 1.19-.26 1.78 0 .2-.12.31-.4.26L228.57 254c-.65-.11-.65-.11-.56-.68q1.29-7.69 2.57-15.38c.02-.15.02-.31.25-.31zm3.94 12.7c-.13.78-.25 1.56-.39 2.34-.05.27 0 .38.33.43 1.06.16 2.11.34 3.16.53.32.06.44 0 .49-.31.25-1.55.51-3.1.78-4.66 0-.24 0-.34-.31-.38q-1.62-.25-3.24-.54c-.28-.05-.39 0-.43.27-.16.78-.26 1.55-.39 2.32zM255.63 249.17c2.55.43 5.09.86 7.64 1.27.34.06.42.17.37.47q-.7 4.14-1.39 8.3c-.07.37-.1.4-.52.33L246.38 257c-.27-.05-.34-.16-.3-.39q.72-4.21 1.41-8.43c0-.28.18-.33.47-.28 2.55.44 5.11.86 7.67 1.29zm1.31 4.88c.14-.8.27-1.6.41-2.4 0-.23 0-.36-.3-.4l-3.44-.58c-.26 0-.38 0-.42.27l-.81 4.85c0 .25.05.36.33.41l3.37.56c.3.06.42 0 .46-.3.13-.8.27-1.6.4-2.41zM173.53 244.78l-7.64-1.27c-.31 0-.37-.15-.33-.42q.72-4.2 1.42-8.42c0-.25.13-.32.4-.27l15.36 2.6c.41.07.43.11.37.49-.26 1.55-.53 3.11-.78 4.66 0 .31-.17.37-.5.32-3.07-.53-6.15-1-9.22-1.55-.46-.08-.46-.08-.52.32s-.11.7-.19 1 0 .35.31.4c2.06.33 4.11.68 6.17 1l3.16.53c.32.05.42.17.37.44s-.14.74-.19 1.11-.18.38-.51.32zm.92-5.45c.56.1 1.13.18 1.69.29.25 0 .35 0 .38-.25 0-.39.12-.78.2-1.17 0-.21 0-.32-.26-.36l-3.41-.57c-.22 0-.33 0-.36.23q-.08.62-.18 1.23c0 .23.06.3.29.33.55.07 1.1.17 1.65.27zM211.28 241.75l7.64 1.28c.44.07.5.14.42.52-.43 2-.7 4-1.05 6-.14.74-.27 1.48-.37 2.23 0 .29-.15.37-.49.31-2.08-.36-4.17-.7-6.26-1l-9-1.51c-.42-.07-.43-.08-.37-.47.26-1.56.53-3.11.77-4.67 0-.32.18-.37.52-.31l9.16 1.54c.46.07.46.07.53-.33s.09-.67.17-1 0-.4-.36-.46c-2.34-.37-4.68-.77-7-1.16l-2.31-.38c-.24 0-.32-.12-.28-.34a10.85 10.85 0 0 0 .21-1.27c0-.27.16-.31.43-.26l5.37.9 2.27.38zm-1.15 7.25c.55.09 1.11.17 1.66.27.21 0 .33 0 .36-.21l.21-1.23c0-.19-.05-.29-.27-.33l-3.33-.56c-.24 0-.35 0-.38.24 0 .4-.11.79-.19 1.17-.05.23.05.33.29.37.52.07 1.1.17 1.65.28zM268.74 251.36c.87.15 1.74.31 2.62.44.31 0 .38.18.34.43-.08.4-.13.8-.21 1.2 0 .21 0 .3.27.34l3.36.56c.28 0 .38 0 .41-.27.06-.41.15-.82.2-1.23 0-.23.15-.27.37-.24l5.4.91c.21 0 .3.13.27.33-.08.43-.16.86-.22 1.29 0 .23-.16.29-.41.25-.44-.09-.89-.15-1.34-.24-.24 0-.33 0-.36.24-.05.4-.13.8-.19 1.2 0 .23-.15.3-.4.25-.47-.08-.94-.15-1.41-.24-.17 0-.24 0-.29.17-.13.44-.08.91-.25 1.34-.07.18.07.24.24.27l1.38.22c.28 0 .38.15.33.41s-.13.78-.21 1.17c0 .21.05.31.28.34l1.34.22c.25 0 .34.13.3.36-.09.42-.17.84-.22 1.27 0 .22-.15.27-.36.24l-.65-.11-4.62-.77c-.45-.08-.45-.08-.38-.49s.12-.76.19-1.14c.05-.21 0-.3-.27-.34l-3.44-.58c-.22 0-.29 0-.31.21-.06.4-.16.8-.19 1.21s-.19.37-.5.32l-4.72-.8c-1.16-.19-.93-.1-.8-1 0-.25.09-.49.12-.74s.16-.29.4-.25c.45.09.9.15 1.34.24.27.05.39 0 .42-.26s.14-.78.19-1.17.16-.31.41-.26c.46.09.92.15 1.37.24.21 0 .3 0 .32-.2.06-.43.13-.85.22-1.27 0-.21-.05-.28-.26-.31l-1.38-.23c-.24 0-.34-.12-.29-.36s.14-.78.21-1.17c0-.23 0-.35-.31-.38-.45-.06-.9-.15-1.35-.22-.25 0-.34-.14-.29-.37q.12-.63.21-1.26c0-.24.16-.29.4-.24zM222.64 236.28l5.92 1a.42.42 0 0 1 .05.36q-1.31 7.77-2.6 15.56c0 .28-.17.37-.48.31s-.88-.19-1.33-.26l-3.89-.62c-.46-.08-.45-.08-.39-.49q1.31-7.74 2.6-15.49c.02-.14 0-.28.12-.37zM191.71 247.82l-7.71-1.28c-.3 0-.4-.14-.35-.43q.72-4.2 1.41-8.4c0-.26.15-.32.42-.27l15.39 2.56c.31.05.42.18.36.45s-.11.72-.19 1.08-.13.41-.55.34l-4.16-.7-5.06-.85c-.28 0-.37 0-.41.25-.22 1.39-.46 2.78-.69 4.17a2.74 2.74 0 0 1 0 .28c-.11.6-.11.6.58.72l8.92 1.49c.42.07.45.11.39.5s-.15.72-.18 1.08-.19.35-.48.3c-.56-.11-1.12-.2-1.68-.29z" transform="translate(-.98 -.52)"/><path d="M291.07 282.1c-.25 1.47-.49 2.94-.74 4.41-.07.42-.07.42-.51.34l-4.27-.71c-.27 0-.37-.13-.3-.37s.07-.41.11-.62-.06-.27-.25-.29l-.49-.05c-.39-.06-.49 0-.51.37v.19c0 .43-.14.5-.63.42-1.39-.23-2.79-.47-4.19-.69-.32-.05-.4-.19-.36-.45.5-3 1-5.91 1.49-8.86.06-.36.14-.42.55-.33 2.95.58 5.92 1 8.87 1.52.52.09 1 .13 1.55.22s.47.1.4.52c-.24 1.46-.49 2.92-.73 4.38zm-8.37-.17 1.58.27c.22 0 .32 0 .35-.22.1-.59.2-1.19.31-1.79 0-.21-.06-.3-.29-.34l-3.13-.52c-.21 0-.31 0-.35.22-.08.59-.18 1.19-.29 1.79 0 .21 0 .31.27.34zm5.47-1.49c-.52-.08-1-.16-1.55-.26-.25-.05-.36 0-.39.24-.09.59-.19 1.19-.29 1.78-.05.23.05.29.28.33 1 .16 2 .33 3 .51.28.05.39 0 .43-.27.08-.56.17-1.13.28-1.69 0-.23 0-.35-.3-.39-.48-.08-.97-.17-1.46-.25z" transform="translate(-.98 -.52)" style="fill:#2785db"/><path d="M292.87 271.31c-.25 1.48-.5 3-.74 4.44-.07.38-.11.4-.52.34l-2.86-.48c-.41-.07-.49-.18-.43-.54.14-.85.28-1.71.43-2.56a.34.34 0 0 1 0-.1c.2-.63.12-.52.72-.43l1.48.25c.26 0 .4 0 .44-.25.09-.59.19-1.18.29-1.76 0-.21 0-.33-.3-.38l-8-1.34c-.26 0-.39.05-.42.28-.09.57-.19 1.14-.28 1.7 0 .23.05.36.31.41l3.06.52a.25.25 0 0 0 .33-.17 1.81 1.81 0 0 0 .12-.64c0-.19.11-.24.27-.29a.45.45 0 0 1 .2 0c.85.09.89.14.77.88-.21 1.26-.43 2.51-.63 3.77 0 .26-.17.34-.43.3l-5.43-.91c-.49-.08-.55-.15-.48-.58.49-3 1-5.91 1.48-8.87 0-.17.09-.23.28-.22s.55 0 .83.08l9.77 1.63c.55.09.55.1.47.6l-.72 4.32z" transform="translate(-.98 -.52)" style="fill:#44c047"/><path d="M289.84 254.78c1.75.29 3.49.59 5.24.87.3 0 .4.13.35.42-.51 3-1 5.95-1.49 8.92-.05.3-.16.38-.49.32-1.4-.25-2.8-.48-4.2-.71-.36-.06-.42-.15-.36-.47 0-.12.06-.23.08-.34.08-.47.08-.47-.46-.56h-.21c-.5-.08-.51-.08-.54.39 0 .18-.1.34-.11.52s-.18.19-.35.16l-4.44-.74c-.23 0-.32-.15-.29-.35.17-1 .35-2 .51-3.06 0-.28.23-.27.45-.23l1.83.3c.8.15 1.61.24 2.4.44.25.06.44 0 .48-.27.07-.57.17-1.14.28-1.7.05-.27 0-.38-.34-.43-1.42-.22-2.83-.47-4.24-.7-.29 0-.4-.12-.35-.4.18-1 .33-2 .48-3 0-.26.15-.33.44-.28 1.77.31 3.55.6 5.33.9zm1.49 6.43c.51.08 1 .16 1.54.26.22 0 .35 0 .39-.21.09-.61.19-1.22.3-1.82 0-.2 0-.32-.27-.35l-3.09-.52c-.22 0-.32 0-.35.21-.09.63-.2 1.25-.31 1.88 0 .18 0 .26.24.29z" transform="translate(-.98 -.52)" style="fill:#eb1416"/><path class="b4c246f8-3b56-4652-b03b-2612f87bfddd" d="m156.94 232.66 7.54 1.26c.53.09.53.09.45.57s-.13.7-.17 1-.16.33-.44.28l-9.3-1.57c-.33-.05-.41 0-.45.3-.35 2.17-.72 4.33-1.07 6.49-.05.31-.2.36-.51.31l-5.19-.87c-.3 0-.4-.14-.35-.42q.72-4.19 1.4-8.39c.05-.31.19-.34.48-.29z" transform="translate(-.98 -.52)"/><path class="e5cf8e69-1f96-4241-b7b5-a3b0900604c0" d="M224.85 265.68 226 259a1.74 1.74 0 0 1 2.34-1.33 2.14 2.14 0 0 1 1.43 1.06c2.19 4.06 4.41 8.11 6.61 12.17.17.3.2.31.45.08l8.14-7.43 2.16-2a2.34 2.34 0 0 1 3.26.37 1.32 1.32 0 0 1 .25 1q-1.17 6.91-2.32 13.83c0 .29-.15.39-.49.32-1-.19-2-.35-3.06-.51-.3-.05-.36-.15-.31-.4.47-2.79.93-5.58 1.4-8.37v-.12c0-.04.11-.25 0-.31s-.18.1-.26.17l-4.89 4.53c-1 .89-2 1.74-2.87 2.68a2.38 2.38 0 0 1-3.55-.6c-1.63-3.16-3.37-6.28-5.06-9.42 0-.07-.06-.19-.17-.17s-.11.14-.12.22l-1.4 8.43c-.08.46-.08.46-.59.37-1-.17-1.95-.34-2.93-.49-.28 0-.34-.15-.3-.38.4-2.36.79-4.72 1.19-7.07zM220.34 265q-.59 3.46-1.16 6.95c-.07.38-.08.38-.52.31l-3-.5c-.27 0-.32-.14-.29-.36.36-2.07.7-4.14 1-6.2.13-.82.27-1.63.41-2.44 0-.08.06-.18-.06-.22s-.13.06-.19.11l-6.5 6c-.5.46-1 .9-1.48 1.37a2.34 2.34 0 0 1-3.35-.6c-1.59-3-3.25-6.05-4.88-9.07-.1-.17-.19-.34-.28-.51s-.05-.14-.13-.14-.1.1-.11.17 0 .27-.06.4c-.46 2.73-.91 5.46-1.37 8.19-.06.38-.07.37-.51.3-1-.18-2-.35-3-.5-.3 0-.4-.13-.35-.41q1.16-6.86 2.3-13.71a1.52 1.52 0 0 1 1.5-1.37 2.24 2.24 0 0 1 2.21 1c1.11 2 2.2 4 3.3 6l3.44 6.31c.14.27.24.14.37 0l2.95-2.7c2.42-2.2 4.85-4.39 7.24-6.63a2.4 2.4 0 0 1 3.17 0 1.32 1.32 0 0 1 .45 1.21c-.4 2.31-.78 4.61-1.16 6.92zM253.49 270.64c.38-2.24.75-4.47 1.13-6.7a1.6 1.6 0 0 1 1.91-1.29c.72.09 1.45.23 2.17.35 2.37.39 4.75.78 7.13 1.19a12.61 12.61 0 0 1 6.36 3 6.88 6.88 0 0 1 2.51 6.52q-.6 3.66-1.22 7.32c-.07.41-.08.41-.53.34-1-.17-2-.34-3-.49-.29 0-.37-.15-.32-.4.19-1 .35-2.08.53-3.12.05-.27 0-.4-.34-.45l-12.77-2.14c-.28-.05-.36 0-.4.28-.16 1-.35 2.08-.51 3.12-.05.3-.17.38-.5.31-1-.18-2-.34-3-.5-.32 0-.44-.14-.38-.45.39-2.28.77-4.57 1.15-6.85zM264 273l6.37 1.07c.3 0 .43 0 .46-.28s.08-.52.12-.78a4.27 4.27 0 0 0-1.54-4.2 8.48 8.48 0 0 0-4-1.85c-2.25-.43-4.52-.78-6.77-1.17-.34-.06-.36.12-.4.33q-.44 2.69-.9 5.37c0 .29 0 .4.36.46zM191.25 260.22c-.38 2.28-.77 4.57-1.14 6.85-.05.3-.16.38-.49.32-1-.19-2-.35-3-.51-.29 0-.36-.14-.32-.4.19-1 .35-2.08.54-3.11.05-.3 0-.41-.37-.46l-12.67-2.12c-.31-.05-.44 0-.48.3-.16 1-.35 2.05-.5 3.09 0 .3-.17.37-.5.31-1-.18-1.95-.33-2.93-.5-.43-.07-.43-.07-.36-.47q.62-3.74 1.25-7.47a6.55 6.55 0 0 1 3.37-4.67 11.55 11.55 0 0 1 7-1.39c1.85.16 3.67.57 5.51.87 1.55.24 3.1.51 4.65.77a1.91 1.91 0 0 1 1.59 1.37 1.24 1.24 0 0 1 0 .47l-1.14 6.79zm-10.67-1.14c2.11.35 4.22.7 6.33 1.07.32.05.44 0 .48-.29.3-1.81.6-3.63.91-5.44 0-.26 0-.37-.33-.42q-3-.48-6-1a11.11 11.11 0 0 0-3.77 0 4.85 4.85 0 0 0-3.81 2.54 7.49 7.49 0 0 0-.52 2c-.07.4-.07.41.4.48zM153 261.25l-7-1.17c-.49-.08-.49-.08-.42-.5.25-1.48.5-3 .74-4.45.05-.28.15-.39.49-.32.84.16 1.68.29 2.52.42.31.05.41.17.35.45-.12.58-.2 1.17-.31 1.76 0 .23 0 .33.31.38l7 1.15c1 .17 2 .36 3.06.54a4.41 4.41 0 0 0 .73.08 1.08 1.08 0 0 0 1.24-.95q.94-5.58 1.86-11.15c0-.3.15-.4.51-.33 1 .18 2 .35 3 .5.3.05.38.15.33.42-.64 3.78-1.26 7.55-1.9 11.33a3.93 3.93 0 0 1-3.34 2.92 7.76 7.76 0 0 1-2.76 0l-6.41-1.08z" transform="translate(-.98 -.52)"/><path class="b4c246f8-3b56-4652-b03b-2612f87bfddd" d="m264 273-6.33-1c-.34-.06-.41-.17-.36-.46q.47-2.68.9-5.37c0-.21.06-.39.4-.33 2.25.39 4.52.74 6.77 1.17a8.48 8.48 0 0 1 4 1.85 4.27 4.27 0 0 1 1.54 4.2c0 .26-.1.52-.12.78s-.16.33-.46.28zM180.58 259.08l-6.3-1.06c-.47-.07-.47-.08-.4-.48a7.49 7.49 0 0 1 .52-2 4.85 4.85 0 0 1 3.81-2.54 11.11 11.11 0 0 1 3.77 0q3 .51 6 1c.31.05.38.16.33.42-.31 1.81-.61 3.63-.91 5.44 0 .29-.16.34-.48.29-2.11-.37-4.22-.72-6.33-1.07z" transform="translate(-.98 -.52)"/></g><g id="fed50f63-23f4-47ff-abb8-cda33d054ea6" data-name="fead6128-a5fc-4d48-889a-a78c9da12c9f"><path d="M247.82 66.34c.13.1.41.11.59.33l.14 4.64.09 4.26.11 7.35v1.22a.65.65 0 0 1-.48.16 2.36 2.36 0 0 1-2.43-1.5 38.67 38.67 0 0 0-4.41-8.8 10.8 10.8 0 0 0-3.58-3.5 9.45 9.45 0 0 0-4.52-1.19c-1 0-3.52 0-4.77 1.88a4.8 4.8 0 0 0-.26 4.18 7.45 7.45 0 0 0 1.7 2.46 28.86 28.86 0 0 0 5.84 4.86c5.19 2.68 9.92 5.9 13.43 10.55A17.94 17.94 0 0 1 252.9 107c-.53 3.11-1.06 5.15-3.43 7.29-3.7 3.36-8.53 3.67-13.95 2.39a15.28 15.28 0 0 1-7.44-3.69c-2.39-2.2-4.1-1.29-4.5.81-.37 1.92-.34 1.86-2.28 1.61-1.23-.15-1.54-.64-1.53-1.68.07-6 .06-12 .11-18 0-2.15.17-2.19 2.51-1.73a1.48 1.48 0 0 1 1.35 1.34 31.08 31.08 0 0 0 4.45 10.87c1.87 2.72 4.33 5.45 7.85 5.88 4.31.53 6.49-.45 6.78-4.12.35-4.24-2.75-8.2-6.95-10.28-6.27-3.11-7.53-3.26-11.48-7.11A20 20 0 0 1 219 81s-1.75-7.26 2.58-13a10 10 0 0 1 3.24-2.86 12.14 12.14 0 0 1 8.09-1c-.1 0 .76.16 1.81.3l.67.17a43.81 43.81 0 0 1 8.95 4.1c.62.36.86-.28 1.05-.78.23-.65.22-1.41.77-1.83.12-.09.59 0 .81 0 .4 0 .52.11.88.16zm-102.55-3.53v-.52l1.74.26c6.88 1.12 13.76 2.19 20.66 3.28.73.11 1.5.19 1.35 1.14s.59 2.14-1.21 2.08c-3.29-.12-4.68 1.15-4.7 4.1l-.25 32.77c0 3.26 1 4.69 4.47 6.16.49.21 1.24.2 1.25.91a6.07 6.07 0 0 1-.16 2.52c-.14.29-.52.12-.8.08l-22.06-3.47a2.82 2.82 0 0 1-.68-.32v-2.71a3.79 3.79 0 0 1 2.16-.47c2.79-.26 3.38-.87 3.4-3.46l.16-27.3v-7.7c0-2.42-1.14-3.63-3.82-4.3a4.84 4.84 0 0 1-1.54-.6z" transform="translate(-.98 -.52)" style="fill:#a41414"/><path d="M204.29 136.28c-2.34 1.58-4.49 3.06-7.25 3.51-5.12.83-9.57-1.26-13.36-5s-5.38-8.18-6.54-12.72a37 37 0 0 1 1.78-24.38c1.56-3.59 3.78-6.82 7.75-8.57 4.34-1.9 10.45-.64 14.37 3 .52.48 1.05 1.19 1.76 1.1s.93-.94.92-1.58c0-1.62 1.25-1.15 2.3-1 1.38.17 1 1.07 1 1.7 0 5.13-.11 10.25-.13 15.38 0 .91-.25 1.29-1.34 1.09s-1.79-.33-1.95-1.6a22.74 22.74 0 0 0-2.6-8 10.83 10.83 0 0 0-4-4.34 5.43 5.43 0 0 0-7.45 1.42 18.62 18.62 0 0 0-2.86 7.91 53.5 53.5 0 0 0 .64 21.41 18.65 18.65 0 0 0 2.37 5.91c2.34 3.57 6.82 4.37 9.42 1.67 1.44-1.51 1.86-3.5 2.16-5.53a25.61 25.61 0 0 0-.1-6 2.8 2.8 0 0 0-2.33-2.76c-2-.45-1.3-1.69-1.39-2.67s.84-.93 1.67-.8c4.26.66 8.53 1.31 12.8 2 .81.13 1.87.13 1.69 1.36-.15 1 .65 2.55-1.58 2.15-1.24-.22-2.19.85-2.22 2.42-.05 2.63 0 5.27-.05 7.91v10c0 1-.35 1.22-1.39 1.06-2.53-.37-2.51-.33-3.07-2.59-.26-1.07-.6-2.12-1-3.4z" transform="translate(-.98 -.52)" style="fill:#a51414"/><path d="M146.88 110.42s8.07-1.06 9.66-2.55a26.92 26.92 0 0 0 10.12 5.83z" transform="translate(-.98 -.52)" style="fill:#e50515"/><path d="m168.32 115.37-23.08-3.63 1.57-1.28 19.85 3.24z" transform="translate(-.98 -.52)" style="fill:#ca2126"/><path d="M145.24 111.74v-2.69l1.62 1.37-1.64 1.32z" transform="translate(-.98 -.52)" style="fill:#d89595"/><path d="m146.88 110.42-1.62-1.37s5.25.4 6.11-3l.14-21.5 5.37 4.19-.34 19.11s-.51 1.27-9.66 2.55z" transform="translate(-.98 -.52)" style="fill:url(#aed10ac9-e47a-4eb2-a3c8-f52a1dd85a45)"/><path d="M166.64 113.77a29.24 29.24 0 0 1-10.12-5.83c-.15-.14.36-19.18.36-19.18l5.5 4v15.64a1.24 1.24 0 0 0 0 .33 1.39 1.39 0 0 0 .3.47 17.7 17.7 0 0 0 5.62 3.57z" transform="translate(-.98 -.52)" style="fill:url(#ed90e7ba-cf64-415e-9075-34b987b24ffe)"/><path d="m168.32 115.37-1.66-1.67 1.68-.94z" transform="translate(-.98 -.52)" style="fill:#ba1216"/><path d="m151.52 84.57.08-15.83s-.29-3-5.82-3.63l.95-1s10.34 2.38 10.28 5.72l-.15 18.94z" transform="translate(-.98 -.52)" style="fill:url(#edc521d6-170e-457d-b56c-861b01caf097)"/><path d="m156.88 88.76.12-18.94s3.52-3 10.27-2.69l1.37 1.25s-4.22-.81-6 2.18l-.25 22.26z" transform="translate(-.98 -.52)" style="fill:url(#b567ba87-1021-42b8-b205-007e51d36648)"/><path class="b66e063c-2ed5-4470-b178-c9a82172aa71" d="m146.6 64.16-.87-1.37 22.94 3.61-1.39.78a14.33 14.33 0 0 0-5 .41 11.78 11.78 0 0 0-5.21 2.23c-2.38-3.34-6.82-4.82-10.46-5.66z" transform="translate(-.98 -.52)"/><path d="M145.78 65.11v-2.32l.86 1.37zm22.88 3.27-1.3-1.19 1.32-.79z" transform="translate(-.98 -.52)" style="fill:#8d1111"/><path d="M206 120.49c.33.28-.75-1.37-6.37-3.53l-1.07-1.26 14.78 2.3-1 1a9.15 9.15 0 0 0-6.34 1.49z" transform="translate(-.98 -.52)" style="fill:#fccdce"/><path d="m198.55 115.71 1.07 1.25-1.08 1z" transform="translate(-.98 -.52)" style="fill:#ebaeae"/><path d="m212.34 119 1-1v2.2z" transform="translate(-.98 -.52)" style="fill:#b31314"/><path d="m205.62 132.13.36-3.24v-8.38a9.1 9.1 0 0 1 6.35-1.46l1 1.2a8.26 8.26 0 0 0-4.08.87v20.3l-1.19-1.42-.09-2.53-.55-2.16z" transform="translate(-.98 -.52)" style="fill:#eb0110"/><path d="m209.24 141.41-2.36-.34 1.17-1.1 1.19 1.44z" transform="translate(-.98 -.52)" style="fill:#d32034"/><path d="m206.88 141.07-1.63-5 2.07-.93.62 2.25a.36.36 0 0 1 0 .14l.09 2.46z" transform="translate(-.98 -.52)" style="fill:#e6767d"/><path d="m203.86 96.57 1.19-1.43.66-1.21.9-2.92v17l-.81-1s-1.6-9.4-1.94-10.44z" transform="translate(-.98 -.52)" style="fill:#e84949"/><path d="m198.54 117.91 1.08-1a37.73 37.73 0 0 1 4.82 2.26l-2.82.23a5.1 5.1 0 0 0-3.08-1.49z" transform="translate(-.98 -.52)" style="fill:url(#a40898a5-fa1e-4628-b346-86a5527acd54)"/><path d="M204.45 119.22s.54.08 1.54 1.27v8.78l-.33 2.87-.9.33s-5.07 5.93-10.33 4.81c0 0-4.37-.7-5.75-2.8l1.88-1.25a6 6 0 0 0 4.06 1.8c3 .26 5-.78 6.15-2.56 0 0 1.68-1.71 1.91-8.18v-1.33l-.2-1.86-.33-1-.33-.66z" transform="translate(-.98 -.52)" style="fill:url(#b4647f2e-19a8-4414-9f20-e0ff5a6fd34d)"/><path d="m205.62 132.13 1.79 3.15-2.16.76-1.28.39a14.22 14.22 0 0 1-10.87 3.1 17 17 0 0 1-11.3-8.45l4.56.72s2.54 4.45 7.1 5.23c0 0 4.24 1.77 9.89-3.19l1.37-1.37z" transform="translate(-.98 -.52)" style="fill:#e4061f"/><path d="M190.52 133.2s-5.53-4.6-5.39-16c.07-5.65 0-5.65 0-6.28a33.58 33.58 0 0 1 .44-5.53l-3.57-1.33s-3.41 16 4.38 27.73l.75 1.09 1 1.15.52.42z" transform="translate(-.98 -.52)" style="fill:url(#e4d73efe-2508-41f6-8fec-0c37c4035148)"/><path d="M181.8 131.08a40.2 40.2 0 0 1-4.89-19.54 32 32 0 0 1 7-19.78 12.59 12.59 0 0 1 3.09-2.05 11.3 11.3 0 0 1 2.27-.8 11.72 11.72 0 0 1 4-.15 14.52 14.52 0 0 1 6.87 3c.15.11.26.22.34.28l1.38 1.15a2.27 2.27 0 0 0 .57.31 2.34 2.34 0 0 0 .56.12h.72l.43-.67.2-.62a.22.22 0 0 0 0-.08v-.76l.21-.74 2 .35-.14.44s-.68 3.91-2.61 5.13a19.18 19.18 0 0 1-3.28-2.67c-3.36-4.12-10.33-2.71-10.33-2.71s-6.55 2.19-8.24 12.81.05 16.9.05 16.9a31.68 31.68 0 0 0 4.35 10.81z" transform="translate(-.98 -.52)" style="fill:url(#b951cdaa-db32-4825-837e-d97b7a6965f5)"/><path d="m182.37 104.21-.4-.15c.35-2.75 3.06-14.78 12.51-13a15.73 15.73 0 0 1 2.12.46 9.56 9.56 0 0 1 1.78.67 7.21 7.21 0 0 1 1.29.89 9.94 9.94 0 0 1 .79.8 10.34 10.34 0 0 0 1.72 1.51l1.18.85.38.26a.51.51 0 0 1 .19.25l.48 1.45.42 2.11.39 2.39.23 1.7.2 1.55.09.81a.31.31 0 0 1-.12.3l-1.27.49-.28-1.07c-.76-2.72-3.06-11.71-8.53-12.78-4.08-.8-5.71 1.23-5.71 1.23a11.8 11.8 0 0 0-2 3.19 19.56 19.56 0 0 0-2.19 7.28l-.51-.19z" transform="translate(-.98 -.52)" style="fill:url(#b52bf671-9ced-4ec8-a6e1-d9d6f1cfbc2f)"/><path d="m204.35 107.58 1.41-.6.82 1z" transform="translate(-.98 -.52)" style="fill:#bc1c1f"/><path d="m219.89 114.41.1-20.25 1.35 1.36s1.17 9.32 2.56 11.8a7.61 7.61 0 0 0-2.12 2.59 9.69 9.69 0 0 0-.63 3.74z" transform="translate(-.98 -.52)" style="fill:#ea9f9f"/><path d="M221.34 95.52 220 94.16l2.69.41z" transform="translate(-.98 -.52)" style="fill:#f6dcdc"/><path d="m219.89 114.41 1.26-.77 1.43 1.19z" transform="translate(-.98 -.52)" style="fill:#b72629"/><path d="M221.13 113.64s.24-4.55 3-4.18a5.65 5.65 0 0 1 3.64 2.15 18.59 18.59 0 0 0 8.8 4.31 31.63 31.63 0 0 0 6.13.25c2.88-.17 5.86-3.17 6.51-3.88a1.15 1.15 0 0 0 .21-.33c.25-.67 2.24-3.63 2.29-7.4a20.71 20.71 0 0 0-1.12-7.31l-5.13 1.41a12.74 12.74 0 0 1 2 7.72c-.29 4.57-2.57 6.66-2.57 6.66-4.19 3.33-11 2.74-15.81-1.36a7.28 7.28 0 0 1-.73-.74L227 109.6l-1.49-1.18-1.61-1.11-1.08 1-.92 1.28-.36 1.1-.29 1.59z" transform="translate(-.98 -.52)" style="fill:#e20000"/><path d="m221.34 95.52 1.34-1a19 19 0 0 0 3.88 10.74 41.06 41.06 0 0 0 3.59 4.34 12.58 12.58 0 0 0 6.12 3.49c3.44.61 4.9-1 4.9-1a5.69 5.69 0 0 0 2.34-4.71c.18-3.45-1.14-4.67-1.14-4.67l4.47-1.24a13.74 13.74 0 0 1 .65 3.91 11.87 11.87 0 0 1-.52 3.83 7.73 7.73 0 0 1-2.82 4.37 6.73 6.73 0 0 1-2.11 1 10 10 0 0 1-6 .38 17.3 17.3 0 0 1-3.18-.95 13.14 13.14 0 0 1-3-1.72 22.34 22.34 0 0 1-2.78-2.54l-1.93-1.59-1.26-.87a9.72 9.72 0 0 1-.51-1.21 9.59 9.59 0 0 1-.4-1.36l-.63-2.82-.62-3.38z" transform="translate(-.98 -.52)" style="fill:url(#af5d4ce7-be68-44d4-bfd2-0136eeff5265)"/><path d="M242.37 102.79s-1.7-4.16-13.19-9.46c-4.47-2.06-8.75-9.5-8.75-9.5l-.55-1.35-.28-1.41 1.32 1.1 1.59 1L224 84l1.33.61 1.44.61 1.63.69 1.8.92 2.64 1.63 3.63 2.19 2.57 1.66 2.64 2 1.76 1.61 1.26 1.54.76 1.28.8 1.47.56 1.41z" transform="translate(-.98 -.52)" style="fill:#d10000"/><path d="M219.6 81.07V81c-.09-1-.71-8.41 1.81-11.81 2.7-3.65 4.25-3.56 4.25-3.56a12.43 12.43 0 0 1 8.16-.83 21.86 21.86 0 0 1 7.78 3.07l1.28.72 1.17.76a1.63 1.63 0 0 0 .53.12 2 2 0 0 0 .35 0l.43-.45.62-.87.27-.8.22-.64 1.21.19v.28l-.38 1-.46 1.49-.46 1.28-.61.87-.45.58-.68.38-1.58-1.19c-.95-.72-2.72-2.06-4.51-3.22a9.31 9.31 0 0 0-1.32-.71 10.33 10.33 0 0 0-1.61-.5 15.78 15.78 0 0 0-5.3-.47c-4 1.15-5.3 2.68-5.83 3.83-1 2.08-.89 2.65-.89 2.65l.06 3.9s2.29 6.69 6.56 9.81l-4.87-2.23-2.28-1.14-1.41-.83-.73-.44z" transform="translate(-.98 -.52)" style="fill:url(#b27abde3-e1c9-423e-ae9c-c0fde3019199)"/><path d="m245.1 72.4 1.26-1.52 1.3-3.78-.06 15.9-.5-.08-2.48-10.17" transform="translate(-.98 -.52)" style="fill:#e1a2a2"/><path d="M245.48 98.67s-2-3.85-9-8c-3.63-2.18-4.36-2.64-4.36-2.64l-1.91-1.18-1.21-.94-.57-.68 5.32.6 3.85.3 3.76.58a33.15 33.15 0 0 1 7 6.57l1.21 1.89 1 2.07z" transform="translate(-.98 -.52)" style="fill:url(#fc7e16b4-421c-44c3-977e-f811f7e9b1fc)"/><path d="M228.42 85.23a11.26 11.26 0 0 1-3.89-4.53 12.11 12.11 0 0 1-.82-3.37 8.33 8.33 0 0 1-.07-2.28c.05-1-.13-1.48 0-2.19a6 6 0 0 1 .41-1.37 7.41 7.41 0 0 1 1.82-2.85 7.13 7.13 0 0 1 2.66-1.54 8.47 8.47 0 0 1 2.47-.63 11.24 11.24 0 0 1 3.89.34 13.65 13.65 0 0 1 2.65.92 21 21 0 0 1 3.91 2.47l3.2 2.5 2.49 10.18-.73-.5s-.51-5.2-5.57-10.78S229 69 229 69s-1.92.86-2.26 4.32 4.61 7.16 4.61 7.16l2.18 1.67 3 1.51 2 1.14 1.49 1 1.34 1-9.88-1.12z" transform="translate(-.98 -.52)" style="fill:url(#f641f0e6-99bc-4d28-a140-f5e6403ef101)"/></g></svg>