<svg id="faff74ca-2739-4413-ab77-df66f66a9177" data-name="bae51f9f-9ab5-4723-91c1-5de94dc4635e" xmlns="http://www.w3.org/2000/svg" xmlns:xlink="http://www.w3.org/1999/xlink" viewBox="0 0 87.6 88.6"><defs><style>.b045cf83-39f1-4051-b6ef-f3791d5dfebb,.b41c6184-6a91-4574-b21b-8dab049871fc{fill:#211c1d;}.b1b96ac5-ca05-49aa-8c93-8445978d1fc0{opacity:0.1;}.eec320d4-e69e-467a-b0e3-b0fc3ab89c09{fill:#808094;}.eb9f27f9-8359-4bc0-b67e-63a7098a54e1{fill:#6d6e6f;}.eefa0367-4830-4242-af26-d82b340dca1f{fill:url(#aa8245d5-e771-4b8b-9f1f-c07474def180);}.b41c6184-6a91-4574-b21b-8dab049871fc{opacity:0.3;}.b41c6184-6a91-4574-b21b-8dab049871fc,.b4767b92-8a29-4fe1-a7d7-31441d2e934e,.f6e663b0-9242-4473-8745-09bdc7bd67b2{isolation:isolate;}.f6e663b0-9242-4473-8745-09bdc7bd67b2{opacity:0.15;fill:url(#bc88498c-5ea6-4991-a939-1af95802f155);}.b4767b92-8a29-4fe1-a7d7-31441d2e934e{opacity:0.4;fill:url(#a832226b-4d9f-4125-9087-f5f2a4912834);}.f04c6af0-c379-4038-b6ba-5239eabb234f{fill:#fe848d;}</style><linearGradient id="aa8245d5-e771-4b8b-9f1f-c07474def180" x1="-747.89" y1="2455.81" x2="-768.82" y2="2434.88" gradientTransform="translate(802.18 -2401.52)" gradientUnits="userSpaceOnUse"><stop offset="0" stop-color="#a4a5a9"/><stop offset="1" stop-color="#e6e6e7"/></linearGradient><linearGradient id="bc88498c-5ea6-4991-a939-1af95802f155" x1="-768.76" y1="2455.8" x2="-747.88" y2="2434.93" gradientTransform="translate(802.18 -2401.52)" gradientUnits="userSpaceOnUse"><stop offset="0" stop-color="#211c1d" stop-opacity="0"/><stop offset="0.04" stop-color="#211c1d" stop-opacity="0.09"/><stop offset="0.5" stop-color="#211c1d"/><stop offset="0.95" stop-color="#211c1d" stop-opacity="0.09"/><stop offset="1" stop-color="#211c1d" stop-opacity="0"/></linearGradient><linearGradient id="a832226b-4d9f-4125-9087-f5f2a4912834" x1="-5886.68" y1="-3866.42" x2="-5865.8" y2="-3887.31" gradientTransform="translate(-5832.48 -3833.03) rotate(180)" gradientUnits="userSpaceOnUse"><stop offset="0" stop-color="#fff" stop-opacity="0"/><stop offset="0.5" stop-color="#fff"/><stop offset="1" stop-color="#fff" stop-opacity="0"/></linearGradient></defs><circle class="b045cf83-39f1-4051-b6ef-f3791d5dfebb" cx="43.8" cy="43.8" r="43.8"/><g class="b1b96ac5-ca05-49aa-8c93-8445978d1fc0"><path class="eec320d4-e69e-467a-b0e3-b0fc3ab89c09" d="M84.4,43.8l-8.6-8.9v4.3H66v9.1h9.8v4.3ZM72.5,15.1l-12.4-.2L63.2,18l-7,7,6.4,6.4,7-7,3.1,3.1ZM43.8,3.2l-8.9,8.6h4.3v9.8h9.1V11.8h4.3ZM15.1,15.1l-.2,12.4L18,24.4l7,7L31.4,25l-7-7,3.1-3.1ZM3.2,43.8l8.6,8.9V48.4h9.8V39.3H11.8V35ZM15.1,72.5l12.4.2-3.1-3.1,7-7L25,56.2l-7,7-3.1-3.1ZM43.8,84.4l8.9-8.6H48.4V66H39.3v9.8H35ZM72.5,72.5l.2-12.4-3.1,3.1-7-7-6.4,6.4,7,7-3.1,3.1Z" transform="translate(0 0)"/></g><path class="eb9f27f9-8359-4bc0-b67e-63a7098a54e1" d="M87.6,44.3A43.81,43.81,0,0,1,0,44.3v.5a43.8,43.8,0,0,0,87.6,0Z" transform="translate(0 0)"/><circle class="eefa0367-4830-4242-af26-d82b340dca1f" cx="43.8" cy="43.8" r="14.8"/><circle class="b41c6184-6a91-4574-b21b-8dab049871fc" cx="43.8" cy="43.8" r="11.8"/><path class="f6e663b0-9242-4473-8745-09bdc7bd67b2" d="M43.8,29.1A14.75,14.75,0,1,0,58.6,43.9,14.75,14.75,0,0,0,43.8,29.1Zm-.2,28.7A14.15,14.15,0,1,1,57.8,43.7,14.16,14.16,0,0,1,43.6,57.8Z" transform="translate(0 0)"/><path class="b4767b92-8a29-4fe1-a7d7-31441d2e934e" d="M43.8,58.6A14.75,14.75,0,1,0,29,43.9,14.75,14.75,0,0,0,43.8,58.6ZM44,29.9a14.1,14.1,0,0,1,0,28.2h0A14,14,0,0,1,29.9,44.2h0V44h0A14.08,14.08,0,0,1,44,29.9Z" transform="translate(0 0)"/><circle class="f04c6af0-c379-4038-b6ba-5239eabb234f" cx="43.6" cy="32.8" r="20.5"/></svg>