<?xml version="1.0" encoding="utf-8"?>
<!-- Generator: Adobe Illustrator 24.1.2, SVG Export Plug-In . SVG Version: 6.00 Build 0)  -->
<svg version="1.1" id="bae51f9f-9ab5-4723-91c1-5de94dc4635e"
	 xmlns="http://www.w3.org/2000/svg" xmlns:xlink="http://www.w3.org/1999/xlink" x="0px" y="0px" viewBox="0 0 87.6 88.6"
	 style="enable-background:new 0 0 87.6 88.6;" xml:space="preserve">
<style type="text/css">
	.st0{fill:#211C1D;}
	.st1{opacity:0.1;}
	.st2{fill:#808094;}
	.st3{fill:#6D6E6F;}
	.st4{fill:url(#SVGID_1_);}
	.st5{opacity:0.3;fill:#211C1D;enable-background:new    ;}
	.st6{opacity:0.15;fill:url(#SVGID_2_);enable-background:new    ;}
	.st7{opacity:0.4;fill:url(#SVGID_3_);enable-background:new    ;}
	.st8{fill:#F7F5F5;}
</style>
<circle class="st0" cx="43.8" cy="43.8" r="43.8"/>
<g class="st1">
	<path class="st2" d="M84.4,43.8l-8.6-8.9v4.3H66v9.1h9.8v4.3L84.4,43.8z M72.5,15.1l-12.4-0.2l3.1,3.1l-7,7l6.4,6.4l7-7l3.1,3.1
		L72.5,15.1z M43.8,3.2l-8.9,8.6h4.3v9.8h9.1v-9.8h4.3L43.8,3.2z M15.1,15.1l-0.2,12.4l3.1-3.1l7,7l6.4-6.4l-7-7l3.1-3.1L15.1,15.1z
		 M3.2,43.8l8.6,8.9v-4.3h9.8v-9.1h-9.8V35L3.2,43.8z M15.1,72.5l12.4,0.2l-3.1-3.1l7-7L25,56.2l-7,7l-3.1-3.1L15.1,72.5z
		 M43.8,84.4l8.9-8.6h-4.3V66h-9.1v9.8H35L43.8,84.4z M72.5,72.5l0.2-12.4l-3.1,3.1l-7-7l-6.4,6.4l7,7l-3.1,3.1L72.5,72.5z"/>
</g>
<path class="st3" d="M87.6,44.3c-0.5,24.2-20.5,43.4-44.7,42.9C19.4,86.7,0.5,67.8,0,44.3v0.5C0,69,19.6,88.6,43.8,88.6
	C68,88.6,87.6,69,87.6,44.8V44.3z"/>
<linearGradient id="SVGID_1_" gradientUnits="userSpaceOnUse" x1="-747.89" y1="2455.8098" x2="-768.8203" y2="2434.8794" gradientTransform="matrix(1 0 0 1 802.18 -2401.5198)">
	<stop  offset="0" style="stop-color:#A4A5A9"/>
	<stop  offset="1" style="stop-color:#E6E6E7"/>
</linearGradient>
<circle class="st4" cx="43.8" cy="43.8" r="14.8"/>
<circle class="st5" cx="43.8" cy="43.8" r="11.8"/>
<linearGradient id="SVGID_2_" gradientUnits="userSpaceOnUse" x1="-768.7622" y1="2455.7971" x2="-747.8822" y2="2434.927" gradientTransform="matrix(1 0 0 1 802.18 -2401.5198)">
	<stop  offset="0" style="stop-color:#211C1D;stop-opacity:0"/>
	<stop  offset="4.000000e-02" style="stop-color:#211C1D;stop-opacity:9.000000e-02"/>
	<stop  offset="0.5" style="stop-color:#211C1D"/>
	<stop  offset="0.95" style="stop-color:#211C1D;stop-opacity:9.000000e-02"/>
	<stop  offset="1" style="stop-color:#211C1D;stop-opacity:0"/>
</linearGradient>
<path class="st6" d="M43.8,29.1c-8.1,0-14.7,6.7-14.7,14.8s6.7,14.7,14.8,14.7c8.1,0,14.7-6.6,14.7-14.7
	C58.6,35.7,52,29.1,43.8,29.1z M43.6,57.8c-7.8,0-14.1-6.4-14.1-14.2c0-7.8,6.4-14.1,14.2-14.1c7.8,0,14.1,6.4,14.1,14.2
	C57.8,51.5,51.4,57.8,43.6,57.8z"/>
<linearGradient id="SVGID_3_" gradientUnits="userSpaceOnUse" x1="-5886.6826" y1="-3866.4229" x2="-5865.8022" y2="-3887.3127" gradientTransform="matrix(-1 0 0 -1 -5832.48 -3833.0303)">
	<stop  offset="0" style="stop-color:#FFFFFF;stop-opacity:0"/>
	<stop  offset="0.5" style="stop-color:#FFFFFF"/>
	<stop  offset="1" style="stop-color:#FFFFFF;stop-opacity:0"/>
</linearGradient>
<path class="st7" d="M43.8,58.6c8.1,0,14.7-6.7,14.7-14.8s-6.7-14.7-14.8-14.7c-8.1,0-14.7,6.7-14.7,14.8
	C29.1,52,35.7,58.6,43.8,58.6z M44,29.9c7.8,0,14.1,6.3,14.1,14.1c0,7.8-6.3,14.1-14.1,14.1l0,0c-7.7,0.1-14-6.2-14.1-13.9
	c0,0,0,0,0,0V44l0,0C29.9,36.2,36.2,29.9,44,29.9C44,29.9,44,29.9,44,29.9z"/>
<circle class="st8" cx="43.6" cy="32.8" r="20.5"/>
</svg>
