<svg xmlns="http://www.w3.org/2000/svg" xmlns:xlink="http://www.w3.org/1999/xlink" viewBox="0 0 470.58 67.66"><defs><style>.ffe13df2-0a24-40c7-a7d7-4221ae9bd422{stroke:#9def48;stroke-miterlimit:10;fill:url(#bababa74-eef5-4916-9792-41765e71f193);}.b66c2971-0478-4d5d-ac70-28920812adeb{fill:#9def48;}.ed6853aa-cfdc-4d3c-aa26-12f407e5314d{fill:#fff;}</style><linearGradient id="bababa74-eef5-4916-9792-41765e71f193" x1="0.5" y1="33.83" x2="470.08" y2="33.83" gradientUnits="userSpaceOnUse"><stop offset="0" stop-color="#032c02"/><stop offset="1" stop-color="#207a09"/></linearGradient></defs><g id="b3ac9aaa-f68b-4121-a407-e31efa09deb7" data-name="calque3"><polygon class="ffe13df2-0a24-40c7-a7d7-4221ae9bd422" points="0.5 6.04 102.57 6.04 108.7 0.5 150.44 0.5 158.35 6.04 461.77 6.24 470.08 16.13 470.08 59.84 50.94 59.84 42.83 67.16 8.02 67.16 0.5 59.84 0.5 6.04"/><path class="b66c2971-0478-4d5d-ac70-28920812adeb" d="M56.49,44.91H52.42v-21l4.07-4.07Z"/><path class="b66c2971-0478-4d5d-ac70-28920812adeb" d="M94.12,30.62c.06.66.09,1.34.09,2A18.23,18.23,0,0,1,90,44.91H65.84a18.18,18.18,0,0,1-4.22-12.26A18.13,18.13,0,0,1,65.84,20.4H90a17.23,17.23,0,0,1,3.67,7.3H89.28a17.47,17.47,0,0,0-1.47-3.23H68a16.32,16.32,0,0,0-2.34,8.18A16.38,16.38,0,0,0,68,40.84H87.81A17.43,17.43,0,0,0,90,34.67H75.24V30.62Z"/><path class="b66c2971-0478-4d5d-ac70-28920812adeb" d="M128.37,30.62l1.84,2A18.14,18.14,0,0,1,126,44.91H101.85a17,17,0,0,1-3.68-7.3h4.38A19,19,0,0,0,104,40.84h19.79A16.92,16.92,0,0,0,126,34.67H99.47l-1.85-2a18.18,18.18,0,0,1,4.23-12.25H126a17.13,17.13,0,0,1,3.68,7.3h-4.38a17.47,17.47,0,0,0-1.47-3.23H104a17.3,17.3,0,0,0-2.2,6.15Z"/></g><g id="e2d6460a-1430-4aa0-98b3-d33ec722e91e" data-name="igs"><path class="ed6853aa-cfdc-4d3c-aa26-12f407e5314d" d="M35.29,37.86c.64,0,1.08-.32,1.08-.79,0-1,.65-1.3,3.16-1.31,3.09,0,4.92.62,5.82,2l.43.65v2.14l-.47.5c-2.14,2.27-9.93,3.44-16.21,2.45-3-.48-5.14-1.29-6-2.27-2.12-2.49.08-5.3,5-6.41l1.65-.37V32.88H19.37l0,.74,0,.74.28.08.79.18c.88.18.91.4.15,1.44a8.19,8.19,0,0,0-1,1.91l-.33,1,.05,1.39,0,1.4.41.91c1.62,3.61,7.26,6.18,14,6.39l2.61.09,1.7-.27c6-.93,9.66-3.33,10.71-6.94A8.06,8.06,0,0,0,49,39.68l0-1.27-.52-1A9.46,9.46,0,0,0,47.56,36c-.2-.21-.62-.71-.94-1.12L46,34.1l1.3-.34,1.5-.41c.15-.05.2-.36.16-1.06l0-1-6-.08-6-.08-.33-.3a1,1,0,0,1-.34-.66c0-.75-.14-.86-1.12-.86h-.93V33.4C34.32,37.89,34.31,37.86,35.29,37.86Z"/><path class="ed6853aa-cfdc-4d3c-aa26-12f407e5314d" d="M35.09,54a2.72,2.72,0,0,1-1.54,1.81l-.54.23H12.15l-.55-.26a2.79,2.79,0,0,1-1.39-2c-.11-.82-.22-.9-1.13-.85L8.3,53l0,6.07c0,6.8-.09,6.55,1.06,6.47l.72,0,.14-.64c.24-1.11.46-1.53,1-1.83l.49-.3H34l.4.35a3.36,3.36,0,0,1,.69,1.39l.29,1,.76.05a3.8,3.8,0,0,0,1,0l.22-.08,0-6.22,0-6.21-.77-.05C35.56,52.86,35.47,52.93,35.09,54Z"/><path class="ed6853aa-cfdc-4d3c-aa26-12f407e5314d" d="M12.4,17.43c-.89,2-1.73,3.11-2.88,3.78l-.74.44H6.51l-.45-.33a3.89,3.89,0,0,1-.82-1l-.38-.68V18.57c0-2.44,2.12-4.44,6-5.61l1.12-.35V10.9H1.82l-.05.68c-.06.82.14,1.09.85,1.23s.91.38.54,1.11a18.74,18.74,0,0,0-1.41,3.94l-.18.95.23,1.33c.77,4.28,4.22,6.66,9.35,6.45,4.18-.17,6.72-2.24,9.18-7.47,1.35-2.89,1.34-2.87,2.08-3.62a4.2,4.2,0,0,1,3.29-1.44h1.12l.78.41a3.68,3.68,0,0,1,1.26,1.08l.48.67,0,1.09c-.08,3.05-2.82,5.35-8,6.73L20,24.37l-.05.84c0,.56,0,.88.16,1s12,.18,12.2,0h0a2.27,2.27,0,0,0,.07-.9l0-.8-.94-.2c-1.72-.38-1.75-.53-.45-2.47C34,17.22,32.22,11.31,27.2,9.57,20.84,7.37,15.66,10.12,12.4,17.43Z"/></g></svg>