<svg id="ab550ff4-c315-4da9-bc56-5233c53cff2e" data-name="texte" xmlns="http://www.w3.org/2000/svg" xmlns:xlink="http://www.w3.org/1999/xlink" viewBox="0 0 470.33 67.41"><defs><style>.e17d4a7d-0c99-4085-af43-1de23f698f70{stroke:#9def48;stroke-miterlimit:10;stroke-width:0.75px;fill:url(#bae1be72-4ac2-4ea9-9e63-ede5f71f43e8);}.bbf04590-1d91-44ec-b92e-32c0be6341bf{fill:#9def48;}</style><linearGradient id="bae1be72-4ac2-4ea9-9e63-ede5f71f43e8" x1="0.38" y1="33.7" x2="469.96" y2="33.7" gradientUnits="userSpaceOnUse"><stop offset="0" stop-color="#032c02"/><stop offset="1" stop-color="#207a09"/></linearGradient></defs><polygon class="e17d4a7d-0c99-4085-af43-1de23f698f70" points="0.38 5.91 102.44 5.91 108.57 0.38 150.31 0.38 158.22 5.91 461.65 6.11 469.96 16 469.96 59.72 50.81 59.72 42.7 67.03 7.89 67.03 0.38 59.72 0.38 5.91"/><path class="bbf04590-1d91-44ec-b92e-32c0be6341bf" d="M80.51,34.25H57.77a14.88,14.88,0,0,0,1.89,5.29H62V43H57.78a15.1,15.1,0,0,1-3.54-8.77h-3.3V30.78h3.3A15,15,0,0,1,57.78,22h20.7a15.57,15.57,0,0,1,3.62,10.5ZM57.77,30.78H78.49a15.11,15.11,0,0,0-1.87-5.28h-17A14.77,14.77,0,0,0,57.77,30.78Z" transform="translate(-0.06 -0.03)"/><path class="bbf04590-1d91-44ec-b92e-32c0be6341bf" d="M109.27,43H88.57A15.6,15.6,0,0,1,85,32.52,15.57,15.57,0,0,1,88.57,22h20.7a15.57,15.57,0,0,1,3.62,10.5A15.6,15.6,0,0,1,109.27,43Zm-1.86-3.48a14.15,14.15,0,0,0,2-7,14.06,14.06,0,0,0-2-7h-17a14,14,0,0,0-2,7,14.08,14.08,0,0,0,2,7Z" transform="translate(-0.06 -0.03)"/><path class="bbf04590-1d91-44ec-b92e-32c0be6341bf" d="M120.77,43h-3.49V25l3.49-3.49Z" transform="translate(-0.06 -0.03)"/><path class="bbf04590-1d91-44ec-b92e-32c0be6341bf" d="M130.66,25.5a14,14,0,0,0-2,7,14.08,14.08,0,0,0,2,7H133V43h-4.19a15.6,15.6,0,0,1-3.62-10.5A15.57,15.57,0,0,1,128.78,22h20.7a15.57,15.57,0,0,1,3.62,10.5A15.6,15.6,0,0,1,149.48,43h-4.19V39.54h2.33a14.15,14.15,0,0,0,2-7,14.06,14.06,0,0,0-2-7Z" transform="translate(-0.06 -0.03)"/><path class="bbf04590-1d91-44ec-b92e-32c0be6341bf" d="M170.18,40.05l-3.49,3.48v-18H155.3V22h26.27V25.5H170.18Z" transform="translate(-0.06 -0.03)"/><path class="bbf04590-1d91-44ec-b92e-32c0be6341bf" d="M198.79,25.5a14,14,0,0,0-2,7,14.08,14.08,0,0,0,2,7h2.31V43h-4.19a15.6,15.6,0,0,1-3.62-10.5A15.57,15.57,0,0,1,196.91,22h20.7a15.57,15.57,0,0,1,3.62,10.5A15.6,15.6,0,0,1,217.61,43h-4.19V39.54h2.33a14.15,14.15,0,0,0,2-7,14.06,14.06,0,0,0-2-7Z" transform="translate(-0.06 -0.03)"/><path class="bbf04590-1d91-44ec-b92e-32c0be6341bf" d="M256.66,36.77h3.75A14.53,14.53,0,0,1,257.26,43h-20.7A15.6,15.6,0,0,1,233,32.52,15.6,15.6,0,0,1,236.56,22h20.7a14.47,14.47,0,0,1,3.15,6.25h-3.75a15.13,15.13,0,0,0-1.26-2.77h-17a14,14,0,0,0-2,7,14.08,14.08,0,0,0,2,7h17A16.1,16.1,0,0,0,256.66,36.77Z" transform="translate(-0.06 -0.03)"/><path class="bbf04590-1d91-44ec-b92e-32c0be6341bf" d="M267.56,39.54h15.79l2,3.48H264.07V25l3.49-3.49Z" transform="translate(-0.06 -0.03)"/><path class="bbf04590-1d91-44ec-b92e-32c0be6341bf" d="M293.24,43h-3.49V25l3.49-3.49Z" transform="translate(-0.06 -0.03)"/><path class="bbf04590-1d91-44ec-b92e-32c0be6341bf" d="M321.35,36.77h3.75A14.75,14.75,0,0,1,322,43h-20.7a15.6,15.6,0,0,1-3.62-10.5A15.6,15.6,0,0,1,301.25,22H322a14.7,14.7,0,0,1,3.15,6.25h-3.75a15.13,15.13,0,0,0-1.26-2.77h-17a14,14,0,0,0-2,7,14.08,14.08,0,0,0,2,7h17A16.1,16.1,0,0,0,321.35,36.77Z" transform="translate(-0.06 -0.03)"/><path class="bbf04590-1d91-44ec-b92e-32c0be6341bf" d="M332.25,34.25V43h-3.49V25l3.49-3.49v9.28h5.83L348.86,22h5.65l-12.93,10.5L354.51,43h-5.65l-10.81-8.77Z" transform="translate(-0.06 -0.03)"/></svg>