<svg id="b4cec813-4528-4564-bcb7-b5080d0acc07" data-name="texte" xmlns="http://www.w3.org/2000/svg" xmlns:xlink="http://www.w3.org/1999/xlink" viewBox="0 0 470.33 67.41"><defs><style>.a0cd0c60-a6d6-4026-9bfe-b597783fbc54{stroke:#9def48;stroke-miterlimit:10;stroke-width:0.75px;fill:url(#ad8ee72c-8241-4474-8803-5f6214ac181d);}.aafa5047-7c36-4b3c-85b6-58dcff2c9752{fill:#9def48;}</style><linearGradient id="ad8ee72c-8241-4474-8803-5f6214ac181d" x1="0.38" y1="33.7" x2="469.96" y2="33.7" gradientUnits="userSpaceOnUse"><stop offset="0" stop-color="#032c02"/><stop offset="1" stop-color="#207a09"/></linearGradient></defs><polygon class="a0cd0c60-a6d6-4026-9bfe-b597783fbc54" points="0.38 5.91 102.44 5.91 108.57 0.38 150.31 0.38 158.22 5.91 461.65 6.11 469.96 16 469.96 59.72 50.81 59.72 42.7 67.03 7.89 67.03 0.38 59.72 0.38 5.91"/><path class="aafa5047-7c36-4b3c-85b6-58dcff2c9752" d="M76.41,30.83l1.53,1.69a15,15,0,0,1-3.49,10.15h-20a14.22,14.22,0,0,1-3-6.05H55a15.62,15.62,0,0,0,1.23,2.68h16.4a14.28,14.28,0,0,0,1.81-5.11h-22l-1.53-1.67a15.07,15.07,0,0,1,3.5-10.15h20a14.17,14.17,0,0,1,3,6H73.87a15.13,15.13,0,0,0-1.22-2.67H56.25a14.44,14.44,0,0,0-1.83,5.09Z" transform="translate(-0.06 -0.03)"/><path class="aafa5047-7c36-4b3c-85b6-58dcff2c9752" d="M94.45,39.8l-3.37,3.37V25.74h-11V22.37h25.4v3.37h-11Z" transform="translate(-0.06 -0.03)"/><path class="aafa5047-7c36-4b3c-85b6-58dcff2c9752" d="M128.4,39.3h2.25a14.82,14.82,0,0,0,1.81-5.11h-20a14.67,14.67,0,0,0,1.83,5.11h2.24v3.37h-4A14.6,14.6,0,0,1,109,34.19h-3.19V30.83H109a14.52,14.52,0,0,1,3.43-8.46h20a14.51,14.51,0,0,1,3.42,8.48l-1.46.82v1.7l1.46.82a14.59,14.59,0,0,1-3.42,8.48h-4Zm-16-8.47h20a14.58,14.58,0,0,0-1.81-5.09h-16.4A14.44,14.44,0,0,0,112.42,30.83Z" transform="translate(-0.06 -0.03)"/><path class="aafa5047-7c36-4b3c-85b6-58dcff2c9752" d="M144.34,37l-3.55,5.65h-4.21l12.9-20.3h3.88l12.8,20.3H162L158.5,37Zm12.06-3.35-5-8-5,8Z" transform="translate(-0.06 -0.03)"/><path class="aafa5047-7c36-4b3c-85b6-58dcff2c9752" d="M176.3,39.8l-3.37,3.37V25.74h-11V22.37h25.41v3.37h-11Z" transform="translate(-0.06 -0.03)"/><path class="aafa5047-7c36-4b3c-85b6-58dcff2c9752" d="M208.29,34.19h-14a14.28,14.28,0,0,0,1.83,5.11h16.68l1.94,3.37H194.28a14.59,14.59,0,0,1-3.42-8.48h-3.19V30.83h3.19a14.51,14.51,0,0,1,3.42-8.46h20.44l-1.94,3.37H196.1a14.05,14.05,0,0,0-1.83,5.09h14Z" transform="translate(-0.06 -0.03)"/><path class="aafa5047-7c36-4b3c-85b6-58dcff2c9752" d="M243.07,30.83c0,.55.07,1.11.07,1.69a15.09,15.09,0,0,1-3.5,10.15h-20a15.09,15.09,0,0,1-3.5-10.15,15,15,0,0,1,3.5-10.15h20a14.17,14.17,0,0,1,3,6h-3.62a14.44,14.44,0,0,0-1.22-2.67h-16.4a13.52,13.52,0,0,0-1.94,6.78,13.61,13.61,0,0,0,1.94,6.78h16.4a14.61,14.61,0,0,0,1.81-5.11H227.42V30.83Z" transform="translate(-0.06 -0.03)"/><path class="aafa5047-7c36-4b3c-85b6-58dcff2c9752" d="M250.75,42.67h-3.37V25.24l3.37-3.37Z" transform="translate(-0.06 -0.03)"/><path class="aafa5047-7c36-4b3c-85b6-58dcff2c9752" d="M275.62,34.19h-14a14.47,14.47,0,0,0,1.83,5.11h16.68l1.94,3.37H261.61a14.59,14.59,0,0,1-3.42-8.48H255V30.83h3.19a14.51,14.51,0,0,1,3.42-8.46h20.44l-1.94,3.37H263.43a14.24,14.24,0,0,0-1.83,5.09h14Z" transform="translate(-0.06 -0.03)"/></svg>