<svg viewBox="0 0 149.383 128.702" xmlns="http://www.w3.org/2000/svg" xmlns:xlink="http://www.w3.org/1999/xlink"><radialGradient id="a" cx="142.213" cy="-654.038" gradientTransform="matrix(1 0 0 -1 0 -572.052)" gradientUnits="userSpaceOnUse" r="6.724"><stop offset="0" stop-color="#f3e32d"/><stop offset="1" stop-color="#f3e32d" stop-opacity="0"/></radialGradient><g fill="#422817"><ellipse cx="23.928" cy="66.628" opacity=".3" rx="22.404" ry="2.801"/><ellipse cx="75.446" cy="66.628" opacity=".3" rx="22.404" ry="2.801"/><ellipse cx="126.979" cy="66.628" opacity=".3" rx="22.404" ry="2.801"/><ellipse cx="126.979" cy="125.902" opacity=".3" rx="22.404" ry="2.801"/><ellipse cx="74.692" cy="125.902" opacity=".3" rx="22.404" ry="2.801"/><ellipse cx="22.404" cy="125.902" opacity=".3" rx="22.404" ry="2.801"/></g><path d="m40.962 42.87s2.893 2.2 3.693-.354-.277-5.247-3.693-4.97" fill="#efd6bc"/><path d="m44.901 21.127v45.501h-2.324v-38.469s-7.478-6.37-3.139-13.126 11.571 4.262 7.078 5.709c-4.509 1.446-5.309-.862-4.509-2.924s2.939.062 2.016.985" fill="#a98f72" stroke="#856953" stroke-miterlimit="10" stroke-width=".154"/><path d="m41.901 38.577s1.554.323 1.554 1.446-2.17 2.247-3.37-.723" fill="#efd6bc"/><path d="m28.421 33.514 13.587 2.17-.477 12.295-14.495-7.586" fill="#679ea3"/><path d="m13.51 48.625s-.908 5.232 3.431 5.232-1.446-7.232-1.446-7.232" fill="#efd6bc"/><path d="m18.85 32.006-3.693 34.622h17.526l-3.077-33.191" fill="#679ea3"/><path d="m28.821 22.02s2.493 1.923 1.693 4.416c0 0-.8-1.693-1.693-1.693 0 0 2.416 2.324 1.293 7.478 0 0-1.923-2.97-2.893.477 0 0-1.816-2.093-1.4-4.262.431-2.17.692-5.386 0-6.832" fill="#fff"/><path d="m19.419 18.804h8.786v16.88h-8.786z" fill="#efd6bc"/><path d="m23.174 29.498s-5.109.077-5.109 5.063 5.109 8.525 5.109 12.295c0 0 1.4-2.17.831-4.339 0 0 2.816 5.063 1.847 8.756 0 0 4.509-6.186 3.293-10.894 0 0 1.2 1.493 1.2 3.093.015.013 4.462-13.974-7.171-13.974z" fill="#fff"/><path d="m24.466 26.097 5.14 4.124-5.14-.661z" fill="#e4b9bf"/><path d="m21.974 25.113c.816 0 1.477-.662 1.477-1.477h-2.954a1.477 1.477 0 0 0 1.477 1.477z" fill="#493019"/><path d="m17.496 22.02s-2.493 1.923-1.693 4.416c0 0 .8-1.693 1.693-1.693 0 0-2.416 2.324-1.293 7.478 0 0 1.923-2.97 2.893.477 0 0 1.816-2.093 1.4-4.262-.431-2.17-.692-5.386 0-6.832" fill="#fff"/><path d="m26.144 25.113c.816 0 1.477-.662 1.477-1.477h-2.954a1.477 1.477 0 0 0 1.477 1.477z" fill="#493019"/><path d="m11.956 22.02h25.467l-6.632-2.57h-14.188zm5.617-5.586.492-9.848-4.016.969-3.078-4.247-2.892 2.647 3.139-5.955 4.601 3.77 8.817-1.2 5.324 13.587s-2.662 3.539-12.387.277z" fill="#679ea3"/><path d="m16.603 19.45-.8-2.97 14.988-.323v3.293z" fill="#f3f1a5"/><path d="m19.019 31.191-7.063 16.141 5.54 4.586" fill="#679ea3"/><path d="m45.686 38.577c-.292-.4-1.816-1.508-1.816.8s-.585 5.139.539 5.139c1.108.016 2.893-3.785 1.277-5.939z" fill="#efd6bc"/><path d="m94.249 35.268 2.093-24.435 2.908-2.016 2.478 3.047-5.032 24.143" fill="#7e8fa0"/><path d="m66.828 30.683 3.694 34.561 2.969-.601 1.308-8.663h1.785l2.355 9.094 1.708.231 3.123-34.622z" fill="#424f58"/><path d="m65.167 47.286s-.908 5.232 3.431 5.232-1.446-7.232-1.446-7.232" fill="#efd6bc"/><path d="m64.213 33.499s-1.277 12.741 1.108 15.126l3.739-1.339s-3.847-9.571-2.247-14.218" fill="#424f58"/><path d="m92.618 36.207c3.416-.277 4.493 2.4 3.693 4.97s-3.693.354-3.693.354" fill="#efd6bc"/><path d="m75.584 13.48s-6.601-1.046-7.432 2.862c-.616 2.939 2.924 18.019 2.924 18.019l2.554-10.494m20.404 11.401-.846 8.171 2.877.585 1.293-7.832z" fill="#424f58"/><path d="m93.557 37.253s1.554.323 1.554 1.446-2.17 2.247-3.37-.723" fill="#efd6bc"/><path d="m83.878 32.745s5.893 3.078 8.74 3.462v5.34s-2.77-.123-9.848-7.186" fill="#424f58"/><path d="m76.123 30.683s9.602-3.278 9.602 2.708l-7.54.969m-5.294-3.677s-9.602-3.278-9.602 2.708l7.802.969" fill="#7e8fa0"/><path d="m71.091 17.48h8.786v16.88h-8.786z" fill="#efd6bc"/><path d="m73.63 23.774c.816 0 1.477-.662 1.477-1.477h-2.954c0 .815.661 1.477 1.477 1.477zm4.17 0c.816 0 1.477-.662 1.477-1.477h-2.954c0 .815.661 1.477 1.477 1.477z" fill="#493019"/><path d="m97.342 37.253c-.292-.4-1.816-1.508-1.816.8s-.585 5.139.539 5.139c1.123.001 2.893-3.8 1.277-5.939z" fill="#efd6bc"/><path d="m81.908 19.327h-12.941l6.478-6.894c-.015 0 7.063-.092 6.463 6.894zm5.786 14.895-2.262 3.231 1.123 1.108 2.355-3.816zm4.924 7.802v-6.14l-.877-.231-.277 5.894m-21.912-.693h6.032l.539-4.662.907 4.662 4.909.693-5.324.153-.323-1.046-.539 1.37zm-.954 8.94 13.418.4.754 2.893-15.942-.569z" fill="#7e8fa0"/><path d="m80.647 65.305 2.123.908h-3.755l-.6-3.154m-7.893 2.185-2.432.969h5.14l.261-1.57" fill="#424f58"/><circle cx="68.598" cy="49.794" fill="#7e8fa0" r="10.264"/><circle cx="68.598" cy="49.794" fill="#424f58" r="9.14"/><path d="m58.781 46.763 8.863 12.51-6.217-16.08 9.664 15.757-8.602-17.403 12.957 15.156 2.262-3.046-9.618-13.741-3.785.938-4.416 3.493" fill="#7e8fa0" opacity=".3"/><path d="m59.104 47.225 8.032 12.464.785.077-8.048-14.48 1.139-2.401 9.894 15.773-9.002-16.234 1.124-.877 11.771 15.587 1.724-1.877-11.033-14.695-4.247 2.062" fill="#7e8fa0" opacity=".4"/><circle cx="68.598" cy="49.794" fill="#424f58" r="4.909"/><circle cx="68.598" cy="49.794" fill="#7e8fa0" r="3.862"/><circle cx="68.598" cy="49.794" fill="#424f58" r="2.354"/><path d="m92.218 35.192 6.909 1.923.108-1.293-6.786-1.723z" fill="#424f58"/><path d="m96.973 11.202 1.4.646-2.647 22.513 3.509-22.143 1.969-.169z" fill="#97aec3"/><path d="m77.107 14.295 3.601 4.201-2.647-5.063m-3.308 1.97 3.601 3.093-2.647-3.739m-2.446 2.046 2.323 1.693-1.723-2.047" fill="#424f58"/><path d="m76.123 24.759 3.154 1.154-3.154 2.308z" fill="#e4b9bf"/><path d="m107.375 26.005-.708-.2.6 1.108.831.262m-.538-1.262.215-.708.6 1.123-.246.831" fill="#6e754b"/><path d="m108.437 27.99-1.062-1.985.2-.108 1.631 3.032" fill="#493019"/><path d="m109.314 24.959-.693-.2.6 1.108.831.261m-.538-1.262.2-.707.6 1.123-.246.831" fill="#6e754b"/><path d="m110.375 26.944-1.061-1.985.215-.108 1.631 3.031" fill="#493019"/><path d="m111.268 23.912-.708-.2.6 1.108.831.262m-.538-1.262.215-.708.6 1.124-.246.83" fill="#6e754b"/><path d="m112.33 25.897-1.062-1.985.215-.107 1.631 3.031" fill="#493019"/><path d="m105.667 25.266-1.031-.307.892 1.662 1.231.369m-.8-1.877.308-1.047.908 1.678-.385 1.231" fill="#8a9667"/><path d="m107.252 28.221-1.585-2.955.323-.169 2.431 4.54" fill="#493019"/><path d="m107.606 24.22-1.031-.308.892 1.662 1.231.385m-.8-1.893.308-1.031.908 1.662-.385 1.247" fill="#8a9667"/><path d="m109.191 27.175-1.585-2.955.323-.169 2.431 4.539" fill="#493019"/><path d="m109.545 23.189-1.031-.323.892 1.677 1.231.37m-.8-1.878.308-1.046.892 1.677-.369 1.231" fill="#8a9667"/><path d="m111.129 26.128-1.584-2.939.323-.169 2.431 4.524" fill="#493019"/><path d="m111.483 22.143-1.031-.308.893 1.662 1.231.369m-.8-1.877.308-1.031.892 1.662-.369 1.231" fill="#8a9667"/><path d="m113.068 25.097-1.585-2.954.324-.169 2.431 4.539" fill="#493019"/><path d="m107.839 29.903 6.575-3.53 7.75 14.437-6.574 3.53z" fill="#c85231"/><circle cx="118.9" cy="42.578" fill="#e1a842" r="3.724"/><path d="m105.706 28.633 8.838-4.745 2.009 3.741-8.838 4.745z" fill="#e1a842"/><path d="m116.5 19.788s-3.278 5.817-1.477 11.941l15.034 1s-2.893-5.57-2.17-13.51" fill="#f9f3ac"/><path d="m116.361 17.065h-2l-.216-.4-1.169-.493.262-.2-1.401-.738-.338-1 1.785.169.831.769v-.585l1.123.908.292-.323.97 1.493m-2.924 14.095 3.693 34.56 2.97-.615 1.308-8.648h1.785l2.354 9.094 1.724.216 3.108-34.607z" fill="#8a9667"/><path d="m115.346 49.871 13.418.4 2.308 6.632-17.496.216z" fill="#6e754b"/><path d="m111.914 47.363s-.908 5.232 3.431 5.232-1.446-7.232-1.446-7.232" fill="#efd6bc"/><path d="m113.576 30.76s-6.601 12.849-1.508 17.942l3.739-1.339s-3.985-5.263 0-12.941" fill="#8a9667"/><path d="m139.366 36.284c3.416-.277 4.493 2.4 3.693 4.97s-3.693.354-3.693.354" fill="#efd6bc"/><path d="m134.442 19.788s20.281 16.203 0 44.332c0 0 14.51-24.928 0-44.332z" fill="#493019"/><path d="m140.304 37.315s1.554.323 1.554 1.446-2.17 2.247-3.37-.723" fill="#efd6bc"/><path d="m130.518 30.76s6.001 5.139 8.848 5.524v5.34s-2.77-.123-9.848-7.186" fill="#8a9667"/><path d="m126.625 34.422h-8.787v-16.88l8.787.123z" fill="#efd6bc"/><path d="m120.377 23.851c.816 0 1.477-.662 1.477-1.477h-2.954c0 .815.662 1.477 1.477 1.477zm4.171 0c.816 0 1.477-.662 1.477-1.477h-2.954a1.477 1.477 0 0 0 1.477 1.477z" fill="#493019"/><path d="m144.09 37.315c-.292-.4-1.816-1.508-1.816.8s-.585 5.139.539 5.139c1.123.016 2.892-3.785 1.277-5.939z" fill="#efd6bc"/><path d="m127.41 65.367 2.108.923h-3.755l-.6-3.17m-7.894 2.2-2.431.97h5.155l.246-1.585" fill="#8a9667"/><path d="m122.87 24.836 3.155 1.154-3.155 2.308z" fill="#e4b9bf"/><path d="m115.238 19.788h15.834l-12.68-6.247-1.169 4.539z" fill="#6e754b"/><path d="m118.023 18.004-5.493-3.093 5.678 2.631" fill="#6e754b"/><path d="m117.161 30.76h3.555v5.955h-3.555zm6.571 0h3.493v5.955h-3.493z" fill="#8a9667"/><path d="m121.439 34.422h1.508v4.678h-1.508z" fill="#6e754b"/><path d="m113.576 30.76 15.188 19.511.492-5.493-11.571-14.018" fill="#e1a842"/><path d="m134.442 19.788v44.332l.492-43.639" fill="#493019"/><path d="m117.838 23.451-3.601-3.985s.077 5.509 3.601 6.863m8.187-2.509 3.139-3.478s-.062 4.801-3.139 5.986" fill="#efd6bc"/><path d="m94.957 86.555-.523-3.8 2.6-5.232.985 6.093-1.2 3.57zm-22.435-4h3.631v1.708h-3.631z" fill="#9fb4c5"/><path d="m34.591 87.971c-2.677 0-5.693-2.093-5.693-2.093-.508-.523-1.093-1-1.708-1.416 2.647-.446 3.555-2.077 3.555-2.077-1.493 1.493-7.632.323-7.632.323-3.539-.831-7.371-.138-9.556 2.57 0 0-4.447 1.277-5.463 6.017-.154.739-.231 1.57-.2 2.493-.246 1.877-.785 4.309-1.954 5.493 0 0 1.293-1.139 2.4-2.647.431 1.677 1.169 3.585 2.37 5.755l17.142-1.631s1.046-1.323 1.985-3.293c.092.877.369 1.723.908 2.416 0 0-.339-2.231.215-5.54.092-.369.169-.754.215-1.139v-.015c.231-1.646.108-3.401-.692-5.063-.046-.108-.108-.215-.169-.323 2.292.786 4.277.17 4.277.17z" fill="#d78a2d"/><path d="m10.694 101.589 4.324 23.359 3.478-.416 1.523-5.847h2.078l2.769 6.139 2.001.154 3.647-23.389z" fill="#905f37"/><path d="m8.125 103.743s-3.785 13.126-1.4 15.511l4.939-1.908s-.185-9.017 1.416-13.68" fill="#905f37"/><path d="m37.915 107.113c3.416-.277 4.493 2.4 3.693 4.97s-3.693.354-3.693.354" fill="#efd6bc"/><path d="m41.27 87.171-2.786 27.174 2.893.585 3.432-27.22z" fill="#493019"/><path d="m38.869 108.16s1.554.323 1.554 1.446-2.17 2.247-3.37-.723" fill="#efd6bc"/><path d="m29.883 101.589s5.201 5.139 8.048 5.524v5.34s-5.447 1.539-12.526-5.54" fill="#905f37"/><path d="m21.235 103.113s9.463-6.478 11.295-.769l-7.925 3.555m-8.079-4.31s-9.602-3.278-9.602 2.708l7.802.969" fill="#c49a66"/><path d="m13.726 88.387h14.11v16.88h-14.11z" fill="#efd6bc"/><path d="m18.942 94.68c.816 0 1.477-.662 1.477-1.477h-2.954c0 .815.662 1.477 1.477 1.477zm6.74 0c.816 0 1.477-.662 1.477-1.477h-2.954c0 .815.661 1.477 1.477 1.477z" fill="#493019"/><path d="m42.639 108.16c-.292-.4-1.816-1.508-1.816.8s-.585 5.139.539 5.139c1.123 0 2.908-3.8 1.277-5.939z" fill="#efd6bc"/><path d="m37.915 112.93v-6.14l-.862-.231-.292 5.894m-22.881-4.001h7.063l.63-3.139 1.062 3.139 5.74.477-6.232.108-.369-.708-.647.923zm-1.124 6.047 15.711.277.893 1.955-18.666-.385z" fill="#c49a66"/><path d="m26.867 124.978 2.493.631h-4.417l-.692-2.139" fill="#905f37"/><path d="m7.678 113.838s-.723 4.139 2.708 4.139-1.139-5.724-1.139-5.724" fill="#efd6bc"/><path d="m11.264 119.177-2.247.523h4.77l.231-.846" fill="#424f58"/><circle cx="10.387" cy="115.823" fill="#c49a66" r="8.125"/><circle cx="10.387" cy="115.823" fill="#7a4e25" r="7.232"/><path d="m2.616 113.422 7.017 9.894-4.924-12.725 7.647 12.464-6.801-13.772 10.263 12.002 1.77-2.416-7.601-10.863-2.986.738-3.493 2.77" fill="#c49a66" opacity=".3"/><path d="m2.877 113.792 6.356 9.863.615.046-6.37-11.448.907-1.908 7.833 12.479-7.125-12.833.893-.708 9.309 12.341 1.37-1.493-8.725-11.633-3.37 1.647" fill="#c49a66" opacity=".4"/><circle cx="10.387" cy="115.823" fill="#7a4e25" r="3.893"/><circle cx="10.387" cy="115.823" fill="#c49a66" r="3.047"/><circle cx="10.387" cy="115.823" fill="#7a4e25" r="1.862"/><path d="m29.083 88.833s-3.416 1.6-6.786 1.923l.262-.969s-4.647-.154-5.509 1.231c0 0-.138-.877.415-1.77 0 0-3.139 1.77-6.617 1.77s2.539-4.232 2.539-4.232l12.833-.908" fill="#d78a2d"/><path d="m12.956 96.48s.816 2.554 3.308 2.816 4.216-1.785 6.047-.585c.616.4 1.4 1.97-2.185 1.97-3.6.016-8.585.016-7.17-4.201z" fill="#e1a842"/><path d="m29.483 98.866s-.569 1.416-3.262.646c-2.031-.569-1.923-2-3.462-.785-.523.4-1.185 1.97 1.847 1.97s4.877.384 4.877-1.831z" fill="#e1a842"/><path d="m13.557 98.419s-2.185 4.216-1.77 5.555l1.169-.646s-.462 3.139 1.416 4.216l.923-.985s3.739 2.662 6.709 3.462c0 0 2.601-1.754 3.401-3.108v1.246s1.539-.477 2.185-1.985c0 0 1.046.354 1.493 1.369 0 0 .923-5.924-1.646-7.632h-.169l-2.385-.323s-.292 2-2.047 2c-1.754 0-2.4-1.954-2.4-1.954l-1.6.754" fill="#e1a842"/><path d="m24.866 96.957c.123.831-1.646 2.585-2.447 2.308-.923-.308-1.508-3.385-.646-3.862.739-.415 2.955.708 3.093 1.554z" fill="#e4b9bf"/><path d="m18.496 124.532-.154 1.077h-4.893l1.569-.661" fill="#905f37"/><path d="m49.733 88.956.062-.492c-3.201 3.278-11.525.769-11.525.769l-.477 4.801c5.124-.862 8.971 2.447 10.617 4.216 3.662-3.647 1.877-8.155 1.323-9.294z" fill="#7e8fa0"/><path d="m50.333 87.802a4.524 4.524 0 0 1 -.539.677l-.292.262c.554 1.154 2.554 5.863-1.093 9.51.585.616.892 1.046.892 1.046 4.925-5.525 1.032-11.495 1.032-11.495z" fill="#9fb4c5"/><path d="m64.243 101.589 4.34 23.359 3.462-.416 1.539-5.847h2.077l2.77 6.139 2 .154 3.647-23.389z" fill="#424f58"/><path d="m64.243 101.589s-6.355 15.28-3.97 17.665l4.939-1.908s-.185-9.017 1.416-13.68m24.851 3.447c3.416-.277 4.493 2.4 3.693 4.97s-3.693.354-3.693.354" fill="#424f58"/><path d="m94.711 87.171-2.416 38.731h1.554l3.124-38.192z" fill="#c49a66"/><path d="m92.418 108.16s1.554.323 1.554 1.446-2.17 2.247-3.37-.723" fill="#424f58"/><path d="m84.078 101.589s4.555 5.139 7.401 5.524v5.34s-4.047.862-11.125-6.217" fill="#424f58"/><path d="m67.29 88.387h14.11v16.88h-14.11z" fill="#424f58"/><path d="m72.507 94.68c.816 0 1.477-.662 1.477-1.477h-2.954a1.477 1.477 0 0 0 1.477 1.477zm6.739 0c.816 0 1.477-.662 1.477-1.477h-2.954c0 .815.662 1.477 1.477 1.477z" fill="#c22e2c"/><path d="m96.203 108.16c-.292-.4-1.816-1.508-1.816.8s-.585 5.139.539 5.139 2.893-3.8 1.277-5.939z" fill="#424f58"/><path d="m91.479 112.93v-6.14l-.877-.231-.277 5.894" fill="#c49a66"/><path d="m67.429 108.452h7.078l.615-3.139 1.078 3.139 5.739.477-6.232.108-.369-.708-.646.923z" fill="#556770"/><path d="m66.321 114.499 15.71.708.878 5.094-18.666-1.016z" fill="#7e8fa0"/><path d="m80.431 124.978 2.478.631h-4.401l-.693-2.139" fill="#424f58"/><path d="m61.227 113.838s-.723 4.139 2.708 4.139-1.139-5.724-1.139-5.724" fill="#efd6bc"/><path d="m64.828 119.177-2.262.523h4.786l.23-.846" fill="#424f58"/><circle cx="63.951" cy="115.823" fill="#c49a66" r="8.125"/><circle cx="63.951" cy="115.823" fill="#ac7c4a" r="7.232"/><path d="m56.18 113.422 7.017 9.894-4.924-12.725 7.648 12.464-6.802-13.772 10.264 12.002 1.769-2.416-7.601-10.863-3.001.738-3.493 2.77" fill="#c49a66" opacity=".3"/><path d="m56.442 113.792 6.355 9.863.615.046-6.37-11.448.908-1.908 7.832 12.479-7.124-12.833.877-.708 9.325 12.341 1.369-1.493-8.725-11.633-3.37 1.647" fill="#c49a66" opacity=".4"/><circle cx="63.951" cy="115.823" fill="#c49a66" r="3.893"/><circle cx="63.951" cy="115.823" fill="#ac7c4a" r="3.047"/><circle cx="63.951" cy="115.823" fill="#c49a66" r="1.862"/><path d="m81.601 90.956a7.824 7.824 0 0 0 .339-2.262c0-4.201-3.401-5.293-7.601-5.293s-7.601 1.093-7.601 5.293c0 .785.123 1.539.339 2.262z" fill="#7e8fa0"/><path d="m72.045 124.532-.154 1.077h-4.893l1.585-.661" fill="#424f58"/><path d="m75.43 96.296s-.954 1.185-.523 1.6c.431.416 1.123-1.015.523-1.6zm1.416 0s.954 1.185.523 1.6c-.431.416-1.123-1.015-.523-1.6z" fill="#493019"/><path d="m65.998 88.694h16.68v3.001h-16.68z" fill="#9fb4c5"/><path d="m73.491 82.555.862-3.432.877 3.432m18.342 8.17 3.724 1.185.477-4.724-3.955-1.061z" fill="#7e8fa0"/><path d="m109.36 111.93s-3.078 2.17-.908 4.339c2.185 2.185 2.908-4.355 2.908-4.355" fill="#efd6bc"/><path d="m126.84 94.649-4.293 5.894-5.032-5.894 3.078-2.169-3.847 8.324-5.693 13.003-1.955-1.416 7.017-20.388h3.139l1.416 1.985" fill="#efd6bc"/><path d="m122.501 75.861s-5.263-1.631-5.955 2.385 0 21.358 0 21.358h12.187s.323-20.85-.662-22.05c-.985-1.216-1.369-2.785-5.57-1.693z" fill="#eeedec"/><path d="m139.581 101.374s2.893 1.754 3.693-.292c.8-2.031-.277-4.17-3.693-3.955" fill="#efd6bc"/><path d="m141.012 125.594h2.693l-1.339-46.671z" fill="#4aa6bc"/><path d="m141.212 97.896s1.154.231 1.154 1.062-1.6 1.662-2.493-.539" fill="#efd6bc"/><path d="m128.225 92.403 12.403 2.246-.477 12.295-14.496-7.586" fill="#93627f"/><path d="m116.115 92.003-2.323 33.591h17.511l-3.078-33.191" fill="#93627f"/><path d="m118.039 77.769h8.786v16.88h-8.786z" fill="#efd6bc"/><path d="m123.086 85.063 1.677 1.354-1.677 2.108z" fill="#e4b9bf"/><path d="m120.593 84.078c.816 0 1.477-.662 1.477-1.477h-2.954c0 .815.661 1.477 1.477 1.477zm4.17 0c.816 0 1.477-.662 1.477-1.477h-2.954c0 .815.661 1.477 1.477 1.477z" fill="#493019"/><path d="m144.044 98.573c-.185-.246-1.123-.923-1.123.492s-.354 3.154.323 3.154c.707.001 1.8-2.322.8-3.646z" fill="#efd6bc"/><path d="m124.901 100.512c-1 0-1.877-.539-2.354-1.339a2.741 2.741 0 0 1 -2.354 1.339 2.726 2.726 0 0 1 -2.708-2.385c-.015.123-.031.231-.031.354a2.745 2.745 0 0 0 2.739 2.739c1 0 1.877-.539 2.354-1.339a2.741 2.741 0 0 0 2.354 1.339 2.745 2.745 0 0 0 2.739-2.739c0-.123-.015-.246-.031-.354a2.727 2.727 0 0 1 -2.708 2.385z" fill="#815875"/><path d="m117.454 81.985h10.187s1.462-3.508 0-4.97-9.402-1.77-10.525.477.338 4.493.338 4.493z" fill="#fff"/><path d="m118.039 92.126 4.508 2.523 4.293-2.246.8 2.523-4.831 1.124-4.832-.585" fill="#93627f"/><circle cx="142.213" cy="81.985" fill="#f3e32d" r="3.647"/><circle cx="142.213" cy="81.985" fill="url(#a)" r="6.724"/><circle cx="142.213" cy="81.985" fill="#e1a842" r="2.231"/><circle cx="142.213" cy="81.985" fill="#fff" r="1.308"/><path d="m126.286 92.403c-.308 2.293-1.862 4.047-3.739 4.047s-3.462-2-3.77-4.293l-.939-.108c.323 2.831 2.308 5.355 4.709 5.355s4.385-2.293 4.709-5.124z" fill="#4aa6bc"/><circle cx="122.547" cy="96.957" fill="#f3e32d" r="1.493"/><circle cx="123.193" cy="96.311" fill="#fff" r=".446"/><circle cx="121.778" cy="97.727" fill="#fff" r=".308"/></svg>