<svg enable-background="new 0 0 742.107 129.709" viewBox="0 0 742.107 129.709" xmlns="http://www.w3.org/2000/svg"><g fill="#fbaf5d"><path d="m62.588 0v4.545h4.471v53.573h-4.471v4.471h-13.412v-4.471h-4.471v-13.412h-4.471v4.471h-4.471v-4.471h-4.471v13.412h-4.471v4.471h-22.35v-4.471h-4.471v-53.573h4.471v-4.545h22.353v4.545h4.471v17.808h4.471v4.471h4.471v-4.471h4.471v-17.808h4.471v-4.545zm-58.117 4.545v8.867h4.471v-4.47h4.471v-4.397z"/><path d="m134.117 0v4.545h4.471v49.102h-4.471v4.471h-4.471v4.471h-44.705v-4.471h-4.471v-4.471h-4.47v-49.102h4.471v-4.545h22.353v4.545h4.471v40.161h8.942v-40.161h4.471v-4.545zm-53.647 4.545v8.867h4.471v-4.47h4.471v-4.397z"/><path d="m201.175 44.706v4.471h4.471v8.941h-4.471v4.471h-49.176v-4.471h-4.471v-53.573h4.471v-4.545h22.353v4.545h4.471v40.161zm-49.176-40.161v8.867h4.471v-4.47h4.471v-4.397z"/><path d="m219.056 4.545v-4.545h53.647v4.545h4.471v8.792h-4.471v4.545h-13.412v40.235h-4.471v4.471h-17.883v-4.471h-4.471v-40.234h-13.412v-4.545h-4.471v-8.793zm0 8.792h4.471v-4.395h4.471v-4.397h-8.941v8.792z"/><path d="m312.938 0v4.545h4.471v53.573h-4.471v4.471h-22.354v-4.471h-4.471v-53.573h4.471v-4.545zm-22.354 4.545v8.867h4.471v-4.47h4.47v-4.397z"/><path d="m384.466 8.942h4.471v26.823h-4.471v4.471h-4.471v4.471h-22.352v13.412h-4.471v4.471h-22.354v-4.471h-4.47v-53.574h4.47v-4.545h49.176v4.545h4.471v4.397zm-53.647-4.397v8.867h4.471v-4.47h4.471v-4.397zm26.824 8.867v17.882h8.94v-17.882z"/><path d="m451.523 44.706v4.471h4.47v8.941h-4.47v4.471h-49.177v-4.471h-4.471v-53.573h4.471v-4.545h22.354v4.545h4.471v40.161zm-49.177-40.161v8.867h4.471v-4.47h4.471v-4.397z"/><path d="m523.052 13.412h4.471v44.706h-4.471v4.471h-8.941v-4.471h-4.471v-26.824h-13.412v26.824h-4.471v4.471h-22.354v-4.471h-4.471v-49.102h4.471v4.396h4.471v-4.396h4.471v-4.545h-4.471v-4.471h40.236v4.471h4.471v4.545h4.471zm-26.824 8.941h13.412v-8.941h-13.412z"/><path d="m590.109 22.353v4.471h-4.471v4.471h-4.471v26.824h-4.471v4.471h-17.882v-4.471h-4.472v-26.825h-4.471v-4.471h-4.471v-4.471h-4.471v-4.471h-4.471v-13.41h4.471v-4.471h17.883v4.471h4.471v4.471h8.941v-4.471h4.471v-4.471h17.882v4.471h4.47v13.412h-4.47v4.471h-4.468zm-49.177-17.882v8.942h4.471v-4.471h4.471v-4.471z"/><path d="m666.108 0v4.396h4.471v4.545h-4.471v4.471h-26.823v8.941h26.823v4.471h4.471v4.545h-4.471v4.471h-26.823v8.867h26.823v4.471h4.471v8.941h-4.471v4.471h-53.647v-4.471h-4.471v-53.723h4.471v-4.396zm-53.647 4.396v9.016h4.471v-4.47h4.471v-4.546z"/><path d="m737.636 4.545v4.396h4.471v17.882h-4.471v4.471h-4.471v4.471h4.471v4.471h4.471v17.883h-4.471v4.471h-8.941v-4.471h-4.471v-4.471h-4.47v-4.471h-4.471v-4.471h-4.471v13.412h-4.471v4.471h-22.354v-4.471h-4.471v-53.573h4.471v-4.545h49.177v4.545zm-53.647 0v8.867h4.471v-4.47h4.471v-4.397zm40.236 17.808v-8.941h-13.411v8.941z"/></g><path d="m197.243 129.709h-12.38c-2.56 0-4.642-2.082-4.642-4.642v-8.253h-8.253c-2.56 0-4.642-2.082-4.642-4.642v-12.38c0-2.56 2.082-4.642 4.642-4.642h8.253v-8.253c0-2.56 2.082-4.642 4.642-4.642h12.38c2.56 0 4.642 2.082 4.642 4.642v8.253h8.253c2.56 0 4.642 2.082 4.642 4.642v12.38c0 2.56-2.082 4.642-4.642 4.642h-8.253v8.253c.001 2.56-2.082 4.642-4.642 4.642z" fill="#5e5f65"/><path d="m210.139 95.149h-8.253v-8.253c0-2.56-2.082-4.642-4.642-4.642h-6.19v47.455h6.19c2.56 0 4.642-2.082 4.642-4.642v-8.253h8.253c2.56 0 4.642-2.082 4.642-4.642v-12.38c0-2.56-2.082-4.643-4.642-4.643z" fill="#55575c"/><path d="m178.158 110.624c-.396 0-.792-.151-1.094-.453l-3.095-3.095c-.604-.604-.604-1.584 0-2.188l3.095-3.095c.604-.604 1.584-.604 2.188 0s.604 1.584 0 2.188l-2.001 2.001 2.001 2.001c.604.604.604 1.584 0 2.188-.302.302-.698.453-1.094.453z" fill="#e3e7f4"/><path d="m203.949 110.624c-.396 0-.792-.151-1.094-.453-.604-.604-.604-1.584 0-2.188l2.001-2.001-2.001-2.001c-.604-.604-.604-1.584 0-2.188s1.584-.604 2.188 0l3.095 3.095c.604.604.604 1.584 0 2.188l-3.095 3.095c-.302.302-.698.453-1.094.453z" fill="#d6dceb"/><path d="m191.053 123.519c-.396 0-.792-.151-1.094-.453l-3.095-3.095c-.604-.604-.604-1.584 0-2.188s1.584-.604 2.188 0l2.001 2.001 2.001-2.001c.604-.604 1.584-.604 2.188 0s.604 1.584 0 2.188l-3.095 3.095c-.302.302-.698.453-1.094.453z" fill="#e3e7f4"/><path d="m195.242 117.783c-.604-.604-1.584-.604-2.188 0l-2.001 2.001v3.736c.396 0 .792-.151 1.094-.453l3.095-3.095c.605-.605.605-1.585 0-2.189z" fill="#d6dceb"/><path d="m194.148 94.633c-.396 0-.792-.151-1.094-.453l-2.001-2.001-2.001 2.001c-.604.604-1.584.604-2.188 0s-.604-1.584 0-2.188l3.095-3.095c.604-.604 1.584-.604 2.188 0l3.095 3.095c.604.604.604 1.584 0 2.188-.302.302-.698.453-1.094.453z" fill="#e3e7f4"/><path d="m195.242 91.992-3.095-3.095c-.302-.302-.698-.453-1.094-.453v3.736l2.001 2.001c.302.302.698.453 1.094.453s.792-.151 1.094-.453c.605-.605.605-1.585 0-2.189z" fill="#d6dceb"/><path d="m191.053 110.624c-2.56 0-4.642-2.082-4.642-4.642s2.082-4.642 4.642-4.642 4.642 2.082 4.642 4.642-2.082 4.642-4.642 4.642z" fill="#7f8086"/><path d="m191.053 101.339v9.285c2.56 0 4.642-2.082 4.642-4.642s-2.082-4.643-4.642-4.643z" fill="#74777e"/><path d="m287.243 129.709h-12.38c-2.56 0-4.642-2.082-4.642-4.642v-8.253h-8.253c-2.56 0-4.642-2.082-4.642-4.642v-12.38c0-2.56 2.082-4.642 4.642-4.642h8.253v-8.253c0-2.56 2.082-4.642 4.642-4.642h12.38c2.56 0 4.642 2.082 4.642 4.642v8.253h8.253c2.56 0 4.642 2.082 4.642 4.642v12.38c0 2.56-2.082 4.642-4.642 4.642h-8.253v8.253c.001 2.56-2.082 4.642-4.642 4.642z" fill="#5e5f65"/><path d="m300.139 95.149h-8.253v-8.253c0-2.56-2.082-4.642-4.642-4.642h-6.19v47.455h6.19c2.56 0 4.642-2.082 4.642-4.642v-8.253h8.253c2.56 0 4.642-2.082 4.642-4.642v-12.38c0-2.56-2.082-4.643-4.642-4.643z" fill="#55575c"/><path d="m268.158 110.624c-.396 0-.792-.151-1.094-.453l-3.095-3.095c-.604-.604-.604-1.584 0-2.188l3.095-3.095c.604-.604 1.584-.604 2.188 0s.604 1.584 0 2.188l-2.001 2.001 2.001 2.001c.604.604.604 1.584 0 2.188-.302.302-.698.453-1.094.453z" fill="#e3e7f4"/><path d="m293.949 110.624c-.396 0-.792-.151-1.094-.453-.604-.604-.604-1.584 0-2.188l2.001-2.001-2.001-2.001c-.604-.604-.604-1.584 0-2.188s1.584-.604 2.188 0l3.095 3.095c.604.604.604 1.584 0 2.188l-3.095 3.095c-.302.302-.698.453-1.094.453z" fill="#d6dceb"/><path d="m281.053 123.519c-.396 0-.792-.151-1.094-.453l-3.095-3.095c-.604-.604-.604-1.584 0-2.188s1.584-.604 2.188 0l2.001 2.001 2.001-2.001c.604-.604 1.584-.604 2.188 0s.604 1.584 0 2.188l-3.095 3.095c-.302.302-.698.453-1.094.453z" fill="#e3e7f4"/><path d="m285.242 117.783c-.604-.604-1.584-.604-2.188 0l-2.001 2.001v3.736c.396 0 .792-.151 1.094-.453l3.095-3.095c.605-.605.605-1.585 0-2.189z" fill="#d6dceb"/><path d="m284.148 94.633c-.396 0-.792-.151-1.094-.453l-2.001-2.001-2.001 2.001c-.604.604-1.584.604-2.188 0s-.604-1.584 0-2.188l3.095-3.095c.604-.604 1.584-.604 2.188 0l3.095 3.095c.604.604.604 1.584 0 2.188-.302.302-.698.453-1.094.453z" fill="#e3e7f4"/><path d="m285.242 91.992-3.095-3.095c-.302-.302-.698-.453-1.094-.453v3.736l2.001 2.001c.302.302.698.453 1.094.453s.792-.151 1.094-.453c.605-.605.605-1.585 0-2.189z" fill="#d6dceb"/><path d="m281.053 110.624c-2.56 0-4.642-2.082-4.642-4.642s2.082-4.642 4.642-4.642 4.642 2.082 4.642 4.642-2.082 4.642-4.642 4.642z" fill="#7f8086"/><path d="m281.053 101.339v9.285c2.56 0 4.642-2.082 4.642-4.642s-2.082-4.643-4.642-4.643z" fill="#74777e"/><path d="m377.243 129.709h-12.38c-2.56 0-4.642-2.082-4.642-4.642v-8.253h-8.253c-2.56 0-4.642-2.082-4.642-4.642v-12.38c0-2.56 2.082-4.642 4.642-4.642h8.253v-8.253c0-2.56 2.082-4.642 4.642-4.642h12.38c2.56 0 4.642 2.082 4.642 4.642v8.253h8.253c2.56 0 4.642 2.082 4.642 4.642v12.38c0 2.56-2.082 4.642-4.642 4.642h-8.253v8.253c.001 2.56-2.082 4.642-4.642 4.642z" fill="#5e5f65"/><path d="m390.139 95.149h-8.253v-8.253c0-2.56-2.082-4.642-4.642-4.642h-6.19v47.455h6.19c2.56 0 4.642-2.082 4.642-4.642v-8.253h8.253c2.56 0 4.642-2.082 4.642-4.642v-12.38c0-2.56-2.082-4.643-4.642-4.643z" fill="#55575c"/><path d="m358.158 110.624c-.396 0-.792-.151-1.094-.453l-3.095-3.095c-.604-.604-.604-1.584 0-2.188l3.095-3.095c.604-.604 1.584-.604 2.188 0s.604 1.584 0 2.188l-2.001 2.001 2.001 2.001c.604.604.604 1.584 0 2.188-.302.302-.698.453-1.094.453z" fill="#e3e7f4"/><path d="m383.949 110.624c-.396 0-.792-.151-1.094-.453-.604-.604-.604-1.584 0-2.188l2.001-2.001-2.001-2.001c-.604-.604-.604-1.584 0-2.188s1.584-.604 2.188 0l3.095 3.095c.604.604.604 1.584 0 2.188l-3.095 3.095c-.302.302-.698.453-1.094.453z" fill="#d6dceb"/><path d="m371.053 123.519c-.396 0-.792-.151-1.094-.453l-3.095-3.095c-.604-.604-.604-1.584 0-2.188s1.584-.604 2.188 0l2.001 2.001 2.001-2.001c.604-.604 1.584-.604 2.188 0s.604 1.584 0 2.188l-3.095 3.095c-.302.302-.698.453-1.094.453z" fill="#e3e7f4"/><path d="m375.242 117.783c-.604-.604-1.584-.604-2.188 0l-2.001 2.001v3.736c.396 0 .792-.151 1.094-.453l3.095-3.095c.605-.605.605-1.585 0-2.189z" fill="#d6dceb"/><path d="m374.148 94.633c-.396 0-.792-.151-1.094-.453l-2.001-2.001-2.001 2.001c-.604.604-1.584.604-2.188 0s-.604-1.584 0-2.188l3.095-3.095c.604-.604 1.584-.604 2.188 0l3.095 3.095c.604.604.604 1.584 0 2.188-.302.302-.698.453-1.094.453z" fill="#e3e7f4"/><path d="m375.242 91.992-3.095-3.095c-.302-.302-.698-.453-1.094-.453v3.736l2.001 2.001c.302.302.698.453 1.094.453s.792-.151 1.094-.453c.605-.605.605-1.585 0-2.189z" fill="#d6dceb"/><path d="m371.053 110.624c-2.56 0-4.642-2.082-4.642-4.642s2.082-4.642 4.642-4.642 4.642 2.082 4.642 4.642-2.082 4.642-4.642 4.642z" fill="#7f8086"/><path d="m371.053 101.339v9.285c2.56 0 4.642-2.082 4.642-4.642s-2.082-4.643-4.642-4.643z" fill="#74777e"/><path d="m467.243 129.709h-12.38c-2.56 0-4.642-2.082-4.642-4.642v-8.253h-8.253c-2.56 0-4.642-2.082-4.642-4.642v-12.38c0-2.56 2.082-4.642 4.642-4.642h8.253v-8.253c0-2.56 2.082-4.642 4.642-4.642h12.38c2.56 0 4.642 2.082 4.642 4.642v8.253h8.253c2.56 0 4.642 2.082 4.642 4.642v12.38c0 2.56-2.082 4.642-4.642 4.642h-8.253v8.253c.001 2.56-2.082 4.642-4.642 4.642z" fill="#5e5f65"/><path d="m480.139 95.149h-8.253v-8.253c0-2.56-2.082-4.642-4.642-4.642h-6.19v47.455h6.19c2.56 0 4.642-2.082 4.642-4.642v-8.253h8.253c2.56 0 4.642-2.082 4.642-4.642v-12.38c0-2.56-2.082-4.643-4.642-4.643z" fill="#55575c"/><path d="m448.158 110.624c-.396 0-.792-.151-1.094-.453l-3.095-3.095c-.604-.604-.604-1.584 0-2.188l3.095-3.095c.604-.604 1.584-.604 2.188 0s.604 1.584 0 2.188l-2.001 2.001 2.001 2.001c.604.604.604 1.584 0 2.188-.302.302-.698.453-1.094.453z" fill="#e3e7f4"/><path d="m473.949 110.624c-.396 0-.792-.151-1.094-.453-.604-.604-.604-1.584 0-2.188l2.001-2.001-2.001-2.001c-.604-.604-.604-1.584 0-2.188s1.584-.604 2.188 0l3.095 3.095c.604.604.604 1.584 0 2.188l-3.095 3.095c-.302.302-.698.453-1.094.453z" fill="#d6dceb"/><path d="m461.053 123.519c-.396 0-.792-.151-1.094-.453l-3.095-3.095c-.604-.604-.604-1.584 0-2.188s1.584-.604 2.188 0l2.001 2.001 2.001-2.001c.604-.604 1.584-.604 2.188 0s.604 1.584 0 2.188l-3.095 3.095c-.302.302-.698.453-1.094.453z" fill="#e3e7f4"/><path d="m465.242 117.783c-.604-.604-1.584-.604-2.188 0l-2.001 2.001v3.736c.396 0 .792-.151 1.094-.453l3.095-3.095c.605-.605.605-1.585 0-2.189z" fill="#d6dceb"/><path d="m464.148 94.633c-.396 0-.792-.151-1.094-.453l-2.001-2.001-2.001 2.001c-.604.604-1.584.604-2.188 0s-.604-1.584 0-2.188l3.095-3.095c.604-.604 1.584-.604 2.188 0l3.095 3.095c.604.604.604 1.584 0 2.188-.302.302-.698.453-1.094.453z" fill="#e3e7f4"/><path d="m465.242 91.992-3.095-3.095c-.302-.302-.698-.453-1.094-.453v3.736l2.001 2.001c.302.302.698.453 1.094.453s.792-.151 1.094-.453c.605-.605.605-1.585 0-2.189z" fill="#d6dceb"/><path d="m461.053 110.624c-2.56 0-4.642-2.082-4.642-4.642s2.082-4.642 4.642-4.642 4.642 2.082 4.642 4.642-2.082 4.642-4.642 4.642z" fill="#7f8086"/><path d="m461.053 101.339v9.285c2.56 0 4.642-2.082 4.642-4.642s-2.082-4.643-4.642-4.643z" fill="#74777e"/><path d="m557.243 129.709h-12.38c-2.56 0-4.642-2.082-4.642-4.642v-8.253h-8.253c-2.56 0-4.642-2.082-4.642-4.642v-12.38c0-2.56 2.082-4.642 4.642-4.642h8.253v-8.253c0-2.56 2.083-4.642 4.642-4.642h12.38c2.56 0 4.642 2.082 4.642 4.642v8.253h8.253c2.56 0 4.642 2.082 4.642 4.642v12.38c0 2.56-2.083 4.642-4.642 4.642h-8.253v8.253c.001 2.56-2.082 4.642-4.642 4.642z" fill="#5e5f65"/><path d="m570.139 95.149h-8.253v-8.253c0-2.56-2.082-4.642-4.642-4.642h-6.19v47.455h6.19c2.56 0 4.642-2.082 4.642-4.642v-8.253h8.253c2.56 0 4.642-2.082 4.642-4.642v-12.38c0-2.56-2.082-4.643-4.642-4.643z" fill="#55575c"/><path d="m538.158 110.624c-.396 0-.792-.151-1.094-.453l-3.095-3.095c-.604-.604-.604-1.584 0-2.188l3.095-3.095c.604-.604 1.584-.604 2.188 0s.604 1.584 0 2.188l-2.001 2.001 2.001 2.001c.604.604.604 1.584 0 2.188-.302.302-.698.453-1.094.453z" fill="#e3e7f4"/><path d="m563.949 110.624c-.396 0-.792-.151-1.094-.453-.604-.604-.604-1.584 0-2.188l2.001-2.001-2.001-2.001c-.604-.604-.604-1.584 0-2.188s1.584-.604 2.188 0l3.095 3.095c.604.604.604 1.584 0 2.188l-3.095 3.095c-.302.302-.698.453-1.094.453z" fill="#d6dceb"/><path d="m551.053 123.519c-.396 0-.792-.151-1.094-.453l-3.095-3.095c-.604-.604-.604-1.584 0-2.188s1.584-.604 2.188 0l2.001 2.001 2.001-2.001c.604-.604 1.584-.604 2.188 0s.604 1.584 0 2.188l-3.095 3.095c-.302.302-.698.453-1.094.453z" fill="#e3e7f4"/><path d="m555.242 117.783c-.604-.604-1.584-.604-2.188 0l-2.001 2.001v3.736c.396 0 .792-.151 1.094-.453l3.095-3.095c.605-.605.605-1.585 0-2.189z" fill="#d6dceb"/><path d="m554.148 94.633c-.396 0-.792-.151-1.094-.453l-2.001-2.001-2.001 2.001c-.604.604-1.584.604-2.188 0s-.604-1.584 0-2.188l3.095-3.095c.604-.604 1.584-.604 2.188 0l3.095 3.095c.604.604.604 1.584 0 2.188-.302.302-.698.453-1.094.453z" fill="#e3e7f4"/><path d="m555.242 91.992-3.095-3.095c-.302-.302-.698-.453-1.094-.453v3.736l2.001 2.001c.302.302.698.453 1.094.453s.792-.151 1.094-.453c.605-.605.605-1.585 0-2.189z" fill="#d6dceb"/><path d="m551.053 110.624c-2.56 0-4.642-2.082-4.642-4.642s2.082-4.642 4.642-4.642 4.642 2.082 4.642 4.642-2.082 4.642-4.642 4.642z" fill="#7f8086"/><path d="m551.053 101.339v9.285c2.56 0 4.642-2.082 4.642-4.642s-2.082-4.643-4.642-4.643z" fill="#74777e"/></svg>