<svg id="b2b254b6-877b-42fb-bc08-232b76d2a8ee" data-name="texte" xmlns="http://www.w3.org/2000/svg" xmlns:xlink="http://www.w3.org/1999/xlink" viewBox="0 0 470.33 67.41"><defs><style>.ff69c539-ba92-4a08-a55c-fc9ba1d8932c{stroke:#9def48;stroke-miterlimit:10;stroke-width:0.75px;fill:url(#e333a374-b48c-45d9-bbed-8647673d204f);}.beb5aa19-fbe5-42df-ae99-edaf78dac119{fill:#9def48;}</style><linearGradient id="e333a374-b48c-45d9-bbed-8647673d204f" x1="0.38" y1="33.7" x2="469.96" y2="33.7" gradientUnits="userSpaceOnUse"><stop offset="0" stop-color="#032c02"/><stop offset="1" stop-color="#207a09"/></linearGradient></defs><polygon class="ff69c539-ba92-4a08-a55c-fc9ba1d8932c" points="0.38 5.91 102.44 5.91 108.57 0.38 150.31 0.38 158.22 5.91 461.65 6.11 469.96 16 469.96 59.72 50.81 59.72 42.7 67.03 7.89 67.03 0.38 59.72 0.38 5.91"/><path class="beb5aa19-fbe5-42df-ae99-edaf78dac119" d="M63.17,26.89H56.43a14.11,14.11,0,0,0-2,7,14.16,14.16,0,0,0,2,7h2.32v3.48H54.56a15.6,15.6,0,0,1-3.62-10.5,15.57,15.57,0,0,1,3.62-10.5h8.61v-3.3h3.47v3.3h8.62a15.56,15.56,0,0,1,3.61,10.5,15.6,15.6,0,0,1-3.61,10.5H71.07V40.93H73.4a14.25,14.25,0,0,0,2-7,14.19,14.19,0,0,0-2-7H66.64V39.34H63.17Z" transform="translate(-0.06 -0.03)"/><path class="beb5aa19-fbe5-42df-ae99-edaf78dac119" d="M87.3,40.93h17a14.09,14.09,0,0,0,2-7,14.15,14.15,0,0,0-2-7h-2.33V23.41h4.19a15.6,15.6,0,0,1,3.62,10.5,15.57,15.57,0,0,1-3.62,10.5H85.42a15.57,15.57,0,0,1-3.62-10.5,15.6,15.6,0,0,1,3.62-10.5h4.19v3.48H87.3a14.08,14.08,0,0,0-2,7A14,14,0,0,0,87.3,40.93Z" transform="translate(-0.06 -0.03)"/><path class="beb5aa19-fbe5-42df-ae99-edaf78dac119" d="M116.89,40.93h15.79l2,3.48H113.4v-18l3.49-3.49Z" transform="translate(-0.06 -0.03)"/><path class="beb5aa19-fbe5-42df-ae99-edaf78dac119" d="M145.17,41.44l-3.48,3.49v-18h-11.4V23.41h26.28v3.48h-11.4Z" transform="translate(-0.06 -0.03)"/><path class="beb5aa19-fbe5-42df-ae99-edaf78dac119" d="M164.45,44.41H161v-18l3.49-3.49Z" transform="translate(-0.06 -0.03)"/><path class="beb5aa19-fbe5-42df-ae99-edaf78dac119" d="M174.34,40.93h15.5a14.19,14.19,0,0,0,2-7,14.25,14.25,0,0,0-2-7h-2.33V23.41h4.19a15.6,15.6,0,0,1,3.62,10.5,15.57,15.57,0,0,1-3.62,10.5H172.46a15.56,15.56,0,0,1-3.61-10.5h3.48A14,14,0,0,0,174.34,40.93Z" transform="translate(-0.06 -0.03)"/><path class="beb5aa19-fbe5-42df-ae99-edaf78dac119" d="M222.56,44.41h-20.7a15.6,15.6,0,0,1-3.62-10.5,15.57,15.57,0,0,1,3.62-10.5h20.7a15.57,15.57,0,0,1,3.62,10.5A15.6,15.6,0,0,1,222.56,44.41Zm-1.86-3.48a14.15,14.15,0,0,0,2-7,14.09,14.09,0,0,0-2-7h-17a14,14,0,0,0-2,7,14.08,14.08,0,0,0,2,7Z" transform="translate(-0.06 -0.03)"/><path class="beb5aa19-fbe5-42df-ae99-edaf78dac119" d="M234.6,40.93h17a14.19,14.19,0,0,0,2-7,14.25,14.25,0,0,0-2-7h-2.33V23.41h4.19A15.6,15.6,0,0,1,257,33.91a15.56,15.56,0,0,1-3.61,10.5h-20.7a15.57,15.57,0,0,1-3.62-10.5,15.6,15.6,0,0,1,3.62-10.5h4.19v3.48H234.6a14.06,14.06,0,0,0-2,7A14,14,0,0,0,234.6,40.93Z" transform="translate(-0.06 -0.03)"/><path class="beb5aa19-fbe5-42df-ae99-edaf78dac119" d="M281.3,35.64H266.8a14.88,14.88,0,0,0,1.89,5.29H286l2,3.48H266.81a15.07,15.07,0,0,1-3.54-8.77H260V32.17h3.3a15,15,0,0,1,3.54-8.76H288l-2,3.48H268.69a14.77,14.77,0,0,0-1.89,5.28h14.5Z" transform="translate(-0.06 -0.03)"/><path class="beb5aa19-fbe5-42df-ae99-edaf78dac119" d="M294.91,40.93h17a14.09,14.09,0,0,0,2-7,14.15,14.15,0,0,0-2-7h-2.33V23.41h4.19a15.55,15.55,0,0,1,3.62,10.5,15.52,15.52,0,0,1-3.62,10.5H293a15.56,15.56,0,0,1-3.61-10.5A15.6,15.6,0,0,1,293,23.41h4.19v3.48h-2.31a14.08,14.08,0,0,0-2,7A14,14,0,0,0,294.91,40.93Z" transform="translate(-0.06 -0.03)"/><path class="beb5aa19-fbe5-42df-ae99-edaf78dac119" d="M343.63,40.93H346a15,15,0,0,0,1.87-5.29H327.11A14.88,14.88,0,0,0,329,40.93h2.31v3.48h-4.19a15.07,15.07,0,0,1-3.54-8.77h-3.3V32.17h3.3a15,15,0,0,1,3.54-8.76h20.7a15,15,0,0,1,3.54,8.77l-1.5.85v1.76l1.5.85a15.07,15.07,0,0,1-3.54,8.77h-4.19Zm-16.52-8.76h20.72A14.91,14.91,0,0,0,346,26.89H329A14.77,14.77,0,0,0,327.11,32.17Z" transform="translate(-0.06 -0.03)"/><path class="beb5aa19-fbe5-42df-ae99-edaf78dac119" d="M380.65,32.17l1.58,1.74a15.57,15.57,0,0,1-3.62,10.5h-20.7a14.7,14.7,0,0,1-3.15-6.25h3.75a16.74,16.74,0,0,0,1.28,2.77h17a14.72,14.72,0,0,0,1.88-5.29H355.88l-1.59-1.73a15.6,15.6,0,0,1,3.62-10.5h20.7a14.7,14.7,0,0,1,3.15,6.25H378a15.13,15.13,0,0,0-1.26-2.77h-17a14.77,14.77,0,0,0-1.89,5.28Z" transform="translate(-0.06 -0.03)"/></svg>