<?xml version="1.0" encoding="utf-8"?>
<!-- Generator: Adobe Illustrator 24.1.2, SVG Export Plug-In . SVG Version: 6.00 Build 0)  -->
<svg version="1.1" id="Calque_1" xmlns="http://www.w3.org/2000/svg" xmlns:xlink="http://www.w3.org/1999/xlink" x="0px" y="0px"
	 viewBox="0 0 400 411.9" style="enable-background:new 0 0 400 411.9;" xml:space="preserve">
<style type="text/css">
	.st0{fill:#F1F1F2;}
	.st1{fill:#58595B;}
	.st2{fill:none;stroke:#231F20;stroke-width:0.4506;stroke-miterlimit:10;}
	.st3{fill:#77787B;}
	.st4{fill:#4C4C4E;}
	.st5{fill:#231F20;}
	.st6{fill:none;stroke:#231F20;stroke-width:17.4833;}
	.st7{fill:#B2B4B6;}
	.st8{fill:#939598;}
	.st9{fill:#BBBDC0;}
	.st10{fill:#808285;}
	.st11{fill:none;stroke:#231F20;stroke-width:0.7043;stroke-miterlimit:10;}
</style>
<g>
	<path class="st0" d="M397.7,216.5c-0.1-0.8-0.5-1.4-0.8-2.1c-0.5-1.3-0.8-2.6-0.8-4v-4.6c0-9.4-5.9-15.5-12.3-17.6l0,0V16.4
		c0-8.9-7.2-16.1-16.1-16.1H32.3c-8.9,0-16,7.2-16,16.1v171.8c-6.4,2.2-12.3,8.2-12.3,17.6v4.6c0,1.4-0.2,2.7-0.8,4
		c-0.3,0.7-0.7,1.3-0.8,2.1c-0.1,0.7-1.2,7.2-1.2,16.7l0,151.8c0,13.1,10.3,23.9,23.4,24.4c29.5,1.3,59,2.6,88.6,1.9
		c0.7,0,1.6,0,2.5-0.2c2.4-0.4,4.9-0.8,7.3-1.3c0.9-0.2,2.8-0.3,2.8-0.3h148.6c0,0,1.9,0.1,2.8,0.3c2.4,0.5,4.9,0.9,7.3,1.3
		c0.9,0.2,1.8,0.2,2.5,0.2c29.5,0.6,59-0.7,88.5-1.9c13.1-0.6,23.4-11.3,23.4-24.4V233.2C398.8,223.8,397.8,217.2,397.7,216.5z
		 M283.6,344c0,0.8-0.6,1.5-1.4,1.5H117.8c-0.7,0-1.4-0.7-1.4-1.5V220.6c0-0.8,0.6-1.5,1.4-1.5h164.5c0.8,0,1.4,0.6,1.4,1.5V344z
		 M293.3,174.7c0,2.2-1.8,4-4,4H110.7c-2.2,0-4-1.8-4-4V27.6c0-2.2,1.8-4,4-4h178.7c2.2,0,4,1.8,4,4V174.7z"/>
	<path class="st1" d="M289.3,23.6H110.7c-2.2,0-4,1.8-4,4v147.1c0,2.2,1.8,4,4,4h178.7c2.2,0,4-1.8,4-4V27.6
		C293.3,25.4,291.5,23.6,289.3,23.6z M283.6,162.8c0,0.8-0.6,1.5-1.4,1.5H117.8c-0.7,0-1.4-0.7-1.4-1.5V39.5c0-0.8,0.6-1.5,1.4-1.5
		h164.5c0.8,0,1.4,0.7,1.4,1.5V162.8z"/>
</g>
<path class="st1" d="M16,188.2c-6.4,2.2-12.3,8.2-12.3,17.6v4.5c0,0.9-0.1,1.8-0.3,2.7H1.5c-1.1,0-1.4-0.7-1.4-2l0.4-11
	c0-10,6.7-16.2,15.5-16.4L16,188.2 M383.5,188.2v-4.5c8.8,0.2,15.5,6.4,15.5,16.4l0.4,11c0,1.3-0.3,2-1.4,2h-1.9
	c-0.2-0.9-0.3-1.7-0.3-2.7v-4.5C395.8,196.4,389.9,190.4,383.5,188.2"/>
<path class="st2" d="M16.3,197.7c0,5.7,4.5,10.5,10.3,10.7c29.3,1.2,58.6,1.9,87.9,1.9v-28.4h171.2v28.4c29.3,0,58.6-0.6,87.9-1.9
	c5.7-0.2,10.2-5,10.2-10.7V16.4c0-8.9-7.2-16.1-16.1-16.1H32.3c-8.9,0-16,7.2-16,16.1L16.3,197.7L16.3,197.7L16.3,197.7z"/>
<path class="st3" d="M360.2,310.4c0,5.4-4.4,9.8-9.8,9.8c-5.4,0-9.7-4.4-9.7-9.8c0-5.4,4.4-9.8,9.7-9.8
	C355.9,300.7,360.2,305,360.2,310.4"/>
<path class="st2" d="M350.5,300.7c5.4,0,9.7,4.4,9.7,9.7c0,5.4-4.4,9.8-9.7,9.8c-5.4,0-9.7-4.4-9.7-9.8
	C340.7,305,345.1,300.7,350.5,300.7z"/>
<path class="st1" d="M360.2,268.2c0,5.4-4.4,9.7-9.8,9.7c-5.4,0-9.8-4.4-9.8-9.7c0-5.4,4.4-9.8,9.8-9.8
	C355.9,258.4,360.2,262.8,360.2,268.2"/>
<path class="st2" d="M350.5,258.4c5.4,0,9.8,4.4,9.8,9.8c0,5.4-4.4,9.8-9.8,9.8s-9.8-4.4-9.8-9.8
	C340.7,262.8,345.1,258.4,350.5,258.4z"/>
<path class="st3" d="M381.5,289.3c0,5.4-4.4,9.7-9.8,9.7c-5.4,0-9.7-4.4-9.7-9.7s4.4-9.8,9.7-9.8
	C377.2,279.5,381.5,283.9,381.5,289.3"/>
<path class="st2" d="M371.8,279.5c5.4,0,9.8,4.4,9.8,9.8c0,5.4-4.4,9.8-9.8,9.8c-5.4,0-9.8-4.4-9.8-9.8
	C362,283.9,366.4,279.5,371.8,279.5z"/>
<path class="st1" d="M339.2,289.3c0,5.4-4.4,9.7-9.7,9.7c-5.4,0-9.7-4.4-9.7-9.7s4.4-9.8,9.7-9.8S339.2,283.9,339.2,289.3"/>
<path class="st2" d="M338.5,310.4v-8c0-0.8-0.3-1.1-1.1-1.1h-8c-6.6,0-12-5.4-12-12c0-6.6,5.4-12,12-12h8c0.8,0,1.1-0.3,1.1-1.1v-8
	c0-6.6,5.4-12,12-12c6.6,0,12,5.4,12,12v8c0,0.8,0.3,1.1,1.1,1.1h8c6.6,0,12,5.4,12,12c0,6.6-5.4,12-12,12h-8
	c-0.8,0-1.1,0.3-1.1,1.1v8c0,6.6-5.4,12-12,12C343.9,322.5,338.5,317.1,338.5,310.4L338.5,310.4z M339.2,289.3
	c0,5.4-4.4,9.7-9.7,9.7c-5.4,0-9.7-4.4-9.7-9.7c0-5.4,4.4-9.8,9.7-9.8C334.9,279.5,339.2,283.9,339.2,289.3z"/>
<path class="st1" d="M353.8,237.3h19.6c2.8,0,5-2.2,5-5c0-2.8-2.2-5-5-5h-19.6c-0.4,0-0.5,0.2-0.5,0.5v8.9
	C353.3,237.2,353.4,237.3,353.8,237.3"/>
<path class="st2" d="M353.8,237.3h19.6c2.8,0,5-2.2,5-5c0-2.8-2.2-5-5-5h-19.6c-0.4,0-0.5,0.2-0.5,0.5v8.9
	C353.3,237.2,353.4,237.3,353.8,237.3z"/>
<path class="st1" d="M347.5,237.3h-19.7c-2.7,0-5-2.2-5-5c0-2.8,2.2-5,5-5h19.7c0.4,0,0.5,0.2,0.5,0.5v8.9
	C348,237.2,347.8,237.3,347.5,237.3"/>
<path class="st2" d="M373.4,226.4h-45.7c-3.2,0-5.9,2.6-5.9,5.9c0,3.3,2.7,5.9,5.9,5.9h45.7c3.2,0,5.9-2.6,5.9-5.9
	C379.3,229.1,376.7,226.4,373.4,226.4z M347.5,237.3h-19.7c-2.7,0-5-2.2-5-5c0-2.8,2.2-5,5-5h19.7c0.4,0,0.5,0.2,0.5,0.5v8.9
	C348,237.2,347.8,237.3,347.5,237.3z"/>
<path class="st4" d="M119.8,393.4c0,0.4-0.4,0.8-0.8,0.8h-1.6c-0.4,0-0.8-0.4-0.8-0.8v-6.3c0-0.4,0.4-0.8,0.8-0.8h1.6
	c0.4,0,0.8,0.4,0.8,0.8V393.4 M273.8,393.4c0,0.4-0.4,0.8-0.8,0.8h-1.6c-0.4,0-0.8-0.4-0.8-0.8v-6.3c0-0.4,0.4-0.8,0.8-0.8h1.6
	c0.4,0,0.8,0.4,0.8,0.8V393.4 M283.5,393.4c0,0.4-0.4,0.8-0.8,0.8H281c-0.4,0-0.8-0.4-0.8-0.8v-6.3c0-0.4,0.4-0.8,0.8-0.8h1.6
	c0.4,0,0.8,0.4,0.8,0.8L283.5,393.4"/>
<path class="st2" d="M19.2,299.1c-2.5-6.3-2.5-13.3,0-19.6c0.3-0.8,0.8-1.2,1.7-1.2h16.4c0.7,0,1.1-0.3,1.1-1.1v-16.4
	c0-0.9,0.3-1.4,1.2-1.7c6.3-2.5,13.3-2.5,19.6,0c0.9,0.3,1.2,0.8,1.2,1.7v16.4c0,0.8,0.3,1.1,1.1,1.1h16.4c0.9,0,1.4,0.3,1.7,1.2
	c2.5,6.3,2.5,13.3,0,19.6c-0.3,0.9-0.8,1.2-1.7,1.2H61.5c-0.8,0-1.1,0.3-1.1,1.1v16.4c0,0.9-0.3,1.4-1.2,1.7
	c-6.3,2.5-13.3,2.5-19.6,0c-0.9-0.3-1.2-0.8-1.2-1.7v-16.4c0-0.8-0.3-1.1-1.1-1.1H21C20,300.3,19.6,299.9,19.2,299.1z M38.3,297.9
	c1.5,0,2.6,1.1,2.6,2.6 M273,192.8v-10.9 M259.4,192.8v-10.9 M200,192.8v-10.9 M127,192.8v-10.9 M258.2,186.2v24.1h-57.1v-24.1
	C201.2,186.2,258.2,186.2,258.2,186.2z M284.4,210.7v-26.4h-10.2v26.4C274.2,210.7,284.4,210.7,284.4,210.7z M115.4,210.7v-26.4
	h10.4v26.4C125.8,210.7,115.4,210.7,115.4,210.7z M383.7,188.2c6.4,2.2,12.3,8.2,12.3,17.6v4.6c0,1.4,0.2,2.7,0.8,4
	c0.3,0.7,0.7,1.3,0.8,2.1c0.1,0.7,1.2,7.2,1.2,16.7V385c0,13.1-10.3,23.9-23.4,24.4c-29.5,1.3-59,2.6-88.5,1.9c-0.7,0-1.6,0-2.5-0.2
	c-2.4-0.4-4.9-0.8-7.3-1.3c-0.9-0.2-2.8-0.3-2.8-0.3H125.7c0,0-1.9,0.1-2.8,0.3c-2.4,0.5-4.9,0.9-7.3,1.3c-0.9,0.2-1.8,0.2-2.5,0.2
	c-29.5,0.6-59-0.7-88.6-1.9C11.5,408.9,1.1,398.1,1.2,385l0-151.8c0-9.5,1.1-16,1.2-16.7c0.1-0.8,0.5-1.4,0.8-2.1
	c0.5-1.3,0.8-2.6,0.8-4v-4.6c0-9.4,5.9-15.5,12.3-17.6 M259.4,210.3v-17.6H273v17.6H259.4z M127,210.3v-17.6h73v17.5L127,210.3
	L127,210.3z M383.7,190.3c4.4,2.4,7.5,7,7.5,13.3v180.8c0,7.4-6.7,17-16.8,17c-27.4-0.1-54.8-0.1-82.2,0.1c-2.2,0-4.5,0-6.7,0H114.4
	c-2.2,0-4.5,0-6.7,0c-27.4-0.1-54.8-0.2-82.2-0.1c-10.1,0-16.8-9.5-16.8-17V203.6c0-6.3,3.1-10.9,7.6-13.3"/>
<path class="st1" d="M38.3,297.9H22.6c-1,0-1.5-0.4-1.8-1.3c-1.6-5-1.6-9.5,0-14.5c0.3-0.9,0.8-1.3,1.8-1.3l15.6,0
	c1.5,0,2.7-1.2,2.7-2.7l0-15.6c0-1,0.3-1.5,1.3-1.8c5-1.6,9.5-1.6,14.5,0c0.9,0.3,1.3,0.8,1.3,1.8l0,15.6c0,1.6,1.1,2.6,2.7,2.6
	h15.6c1,0,1.5,0.4,1.8,1.3c1.6,5,1.6,9.5,0,14.5c-0.3,0.9-0.8,1.3-1.8,1.3H60.6c-1.5,0-2.6,1.1-2.6,2.6v15.6c0,1-0.4,1.5-1.3,1.8
	c-5,1.6-9.5,1.6-14.5,0c-0.9-0.3-1.3-0.8-1.3-1.8v-15.6"/>
<path class="st2" d="M69.1,237.7c0,0.7-0.6,1.3-1.3,1.3H31.1c-0.7,0-1.3-0.6-1.3-1.3V227c0-0.7,0.6-1.3,1.3-1.3h36.6
	c0.7,0,1.3,0.6,1.3,1.3L69.1,237.7L69.1,237.7z M290.9,371.7H109.1c-1.7,0-2.7-1-2.7-2.7V218.4c0-1.6,1.3-2.7,2.7-2.7h181.9
	c1.9,0,2.7,1.3,2.7,2.7V369C293.6,370.8,292.3,371.7,290.9,371.7z M58,289.3c0,4.8-3.9,8.6-8.6,8.6c-4.8,0-8.6-3.9-8.6-8.6
	c0-4.7,3.9-8.6,8.6-8.6C54.1,280.7,58,284.5,58,289.3L58,289.3z M38.3,297.9H22.6c-1,0-1.5-0.4-1.8-1.3c-1.6-5-1.6-9.5,0-14.5
	c0.3-0.9,0.8-1.3,1.8-1.3l15.6,0c1.5,0,2.7-1.2,2.7-2.7l0-15.6c0-1,0.3-1.5,1.3-1.8c5-1.6,9.5-1.6,14.5,0c0.9,0.3,1.3,0.8,1.3,1.8
	l0,15.6c0,1.6,1.1,2.6,2.7,2.6h15.6c1,0,1.5,0.4,1.8,1.3c1.6,5,1.6,9.5,0,14.5c-0.3,0.9-0.8,1.3-1.8,1.3H60.6
	c-1.5,0-2.6,1.1-2.6,2.6v15.6c0,1-0.4,1.5-1.3,1.8c-5,1.6-9.5,1.6-14.5,0c-0.9-0.3-1.3-0.8-1.3-1.8v-15.6"/>
<path class="st1" d="M62.6,236.7c0,0.4-0.4,0.8-0.8,0.8H37c-0.4,0-0.8-0.4-0.8-0.8v-8.8c0-0.4,0.4-0.8,0.8-0.8h24.8
	c0.4,0,0.8,0.4,0.8,0.8V236.7"/>
<path class="st2" d="M62.6,236.7c0,0.4-0.4,0.8-0.8,0.8H37c-0.4,0-0.8-0.4-0.8-0.8v-8.8c0-0.4,0.4-0.8,0.8-0.8h24.8
	c0.4,0,0.8,0.4,0.8,0.8V236.7z"/>
<path class="st2" d="M311.8,184.2v-6.2c0-1.1,0.9-2,2-2h6.2c1.1,0,2,0.9,2,2v6.2c0,1.1-0.9,2-2,2h-6.2
	C312.7,186.2,311.8,185.3,311.8,184.2z M311.8,23.5v-6.2c0-1.1,0.9-2,2-2h6.2c1.1,0,2,0.9,2,2v6.2c0,1.1-0.9,2-2,2h-6.2
	C312.7,25.5,311.8,24.6,311.8,23.5z M78.1,184.2v-6.2c0-1.1,0.9-2,2-2h6.2c1.1,0,2,0.9,2,2v6.2c0,1.1-0.9,2-2,2h-6.2
	C78.9,186.2,78.1,185.3,78.1,184.2z M78.1,23.5v-6.2c0-1.1,0.9-2,2-2h6.2c1.1,0,2,0.9,2,2v6.2c0,1.1-0.9,2-2,2h-6.2
	C78.9,25.5,78.1,24.6,78.1,23.5z M390.6,372.4c0,0-12,0.1-18,0.1h-62.7c-3.1,0-6.6-1.2-6.6-4.6V219.4c0-2,1.6-4.5,6.6-4.5h62.7
	c0,0,12,0,18,0.1c0,1.3-2.9,1.5-4.2,1.5h-75c-1.4,0-2.2,1.7-2.2,2.5v149.4c0,1.3,0.9,2.5,2.2,2.5h75
	C389.3,370.9,390.6,371.7,390.6,372.4z M9.4,372.4c0,0,12,0.1,18.1,0.1h62.7c3.1,0,6.6-1.2,6.6-4.6V219.4c0-2-1.6-4.5-6.6-4.5H27.5
	c0,0-12,0-18.1,0.1c0,1.3,2.9,1.5,4.2,1.5h75c1.4,0,2.2,1.7,2.2,2.5v149.4c0,1.3-0.9,2.5-2.2,2.5h-75
	C10.7,370.9,9.4,371.7,9.4,372.4z M110.7,23.6c-2.2,0-4,1.8-4,4v147.1c0,2.2,1.8,4,4,4h178.7c2.2,0,4-1.8,4-4V27.6c0-2.2-1.8-4-4-4
	H110.7z"/>
<path class="st5" d="M40.3,127.4c0-0.7-0.6-1.3-1.3-1.3c-0.7,0-1.3,0.6-1.3,1.3c0,0.7,0.6,1.3,1.3,1.3
	C39.7,128.7,40.3,128.1,40.3,127.4 M49.2,127.4c0-0.7-0.6-1.3-1.3-1.3c-0.7,0-1.3,0.6-1.3,1.3c0,0.7,0.6,1.3,1.3,1.3
	C48.6,128.7,49.2,128.1,49.2,127.4 M58,127.4c0-0.7-0.6-1.3-1.3-1.3c-0.7,0-1.3,0.6-1.3,1.3c0,0.7,0.6,1.3,1.3,1.3
	C57.4,128.7,58,128.1,58,127.4 M66.8,127.4c0-0.7-0.6-1.3-1.3-1.3c-0.7,0-1.3,0.6-1.3,1.3c0,0.7,0.6,1.3,1.3,1.3
	C66.2,128.7,66.8,128.1,66.8,127.4 M75.6,127.4c0-0.7-0.6-1.3-1.3-1.3c-0.8,0-1.3,0.6-1.3,1.3c0,0.7,0.6,1.3,1.3,1.3
	C75,128.7,75.6,128.1,75.6,127.4 M84.5,127.4c0-0.7-0.6-1.3-1.3-1.3c-0.7,0-1.3,0.6-1.3,1.3c0,0.7,0.6,1.3,1.3,1.3
	C83.9,128.7,84.5,128.1,84.5,127.4 M93.3,127.4c0-0.7-0.6-1.3-1.3-1.3c-0.7,0-1.3,0.6-1.3,1.3c0,0.7,0.6,1.3,1.3,1.3
	C92.7,128.7,93.3,128.1,93.3,127.4 M40.3,139.7c0-0.7-0.6-1.3-1.3-1.3c-0.7,0-1.3,0.6-1.3,1.3c0,0.7,0.6,1.3,1.3,1.3
	C39.7,141,40.3,140.4,40.3,139.7 M49.2,139.7c0-0.7-0.6-1.3-1.3-1.3c-0.7,0-1.3,0.6-1.3,1.3c0,0.7,0.6,1.3,1.3,1.3
	C48.6,141,49.2,140.4,49.2,139.7 M58,139.7c0-0.7-0.6-1.3-1.3-1.3c-0.7,0-1.3,0.6-1.3,1.3c0,0.7,0.6,1.3,1.3,1.3
	C57.4,141,58,140.4,58,139.7 M66.8,139.7c0-0.7-0.6-1.3-1.3-1.3c-0.7,0-1.3,0.6-1.3,1.3c0,0.7,0.6,1.3,1.3,1.3
	C66.2,141,66.8,140.4,66.8,139.7 M75.6,139.7c0-0.7-0.6-1.3-1.3-1.3c-0.8,0-1.3,0.6-1.3,1.3c0,0.7,0.6,1.3,1.3,1.3
	C75,141,75.6,140.4,75.6,139.7 M84.5,139.7c0-0.7-0.6-1.3-1.3-1.3c-0.7,0-1.3,0.6-1.3,1.3c0,0.7,0.6,1.3,1.3,1.3
	C83.9,141,84.5,140.4,84.5,139.7 M93.3,139.7c0-0.7-0.6-1.3-1.3-1.3c-0.7,0-1.3,0.6-1.3,1.3c0,0.7,0.6,1.3,1.3,1.3
	C92.7,141,93.3,140.4,93.3,139.7 M40.3,152c0-0.7-0.6-1.3-1.3-1.3c-0.7,0-1.3,0.6-1.3,1.3c0,0.7,0.6,1.3,1.3,1.3
	C39.7,153.3,40.3,152.7,40.3,152 M49.2,152c0-0.7-0.6-1.3-1.3-1.3c-0.7,0-1.3,0.6-1.3,1.3c0,0.7,0.6,1.3,1.3,1.3
	C48.6,153.3,49.2,152.7,49.2,152 M58,152c0-0.7-0.6-1.3-1.3-1.3c-0.7,0-1.3,0.6-1.3,1.3c0,0.7,0.6,1.3,1.3,1.3
	C57.4,153.3,58,152.7,58,152 M66.8,152c0-0.7-0.6-1.3-1.3-1.3c-0.7,0-1.3,0.6-1.3,1.3c0,0.7,0.6,1.3,1.3,1.3
	C66.2,153.3,66.8,152.7,66.8,152 M75.6,152c0-0.7-0.6-1.3-1.3-1.3c-0.8,0-1.3,0.6-1.3,1.3c0,0.7,0.6,1.3,1.3,1.3
	C75,153.3,75.6,152.7,75.6,152 M84.5,152c0-0.7-0.6-1.3-1.3-1.3c-0.7,0-1.3,0.6-1.3,1.3c0,0.7,0.6,1.3,1.3,1.3
	C83.9,153.3,84.5,152.7,84.5,152 M93.3,152c0-0.7-0.6-1.3-1.3-1.3c-0.7,0-1.3,0.6-1.3,1.3c0,0.7,0.6,1.3,1.3,1.3
	C92.7,153.3,93.3,152.7,93.3,152 M40.3,164.3c0-0.7-0.6-1.3-1.3-1.3c-0.7,0-1.3,0.6-1.3,1.3c0,0.7,0.6,1.3,1.3,1.3
	C39.7,165.6,40.3,165,40.3,164.3 M49.2,164.3c0-0.7-0.6-1.3-1.3-1.3c-0.7,0-1.3,0.6-1.3,1.3c0,0.7,0.6,1.3,1.3,1.3
	C48.6,165.6,49.2,165,49.2,164.3 M58,164.3c0-0.7-0.6-1.3-1.3-1.3c-0.7,0-1.3,0.6-1.3,1.3c0,0.7,0.6,1.3,1.3,1.3
	C57.4,165.6,58,165,58,164.3 M66.8,164.3c0-0.7-0.6-1.3-1.3-1.3c-0.7,0-1.3,0.6-1.3,1.3c0,0.7,0.6,1.3,1.3,1.3
	C66.2,165.6,66.8,165,66.8,164.3 M75.6,164.3c0-0.7-0.6-1.3-1.3-1.3c-0.8,0-1.3,0.6-1.3,1.3c0,0.7,0.6,1.3,1.3,1.3
	C75,165.6,75.6,165,75.6,164.3 M84.5,164.3c0-0.7-0.6-1.3-1.3-1.3c-0.7,0-1.3,0.6-1.3,1.3c0,0.7,0.6,1.3,1.3,1.3
	C83.9,165.6,84.5,165,84.5,164.3 M93.3,164.3c0-0.7-0.6-1.3-1.3-1.3c-0.7,0-1.3,0.6-1.3,1.3c0,0.7,0.6,1.3,1.3,1.3
	C92.7,165.6,93.3,165,93.3,164.3 M309.4,127.4c0-0.7-0.6-1.3-1.3-1.3c-0.7,0-1.3,0.6-1.3,1.3c0,0.7,0.6,1.3,1.3,1.3
	C308.8,128.7,309.4,128.1,309.4,127.4 M318.2,127.4c0-0.7-0.6-1.3-1.3-1.3c-0.7,0-1.3,0.6-1.3,1.3c0,0.7,0.6,1.3,1.3,1.3
	C317.6,128.7,318.2,128.1,318.2,127.4 M327.1,127.4c0-0.7-0.6-1.3-1.3-1.3s-1.3,0.6-1.3,1.3c0,0.7,0.6,1.3,1.3,1.3
	C326.4,128.7,327.1,128.1,327.1,127.4 M335.9,127.4c0-0.7-0.6-1.3-1.3-1.3c-0.7,0-1.3,0.6-1.3,1.3c0,0.7,0.6,1.3,1.3,1.3
	C335.3,128.7,335.9,128.1,335.9,127.4 M344.7,127.4c0-0.7-0.6-1.3-1.3-1.3c-0.7,0-1.3,0.6-1.3,1.3c0,0.7,0.6,1.3,1.3,1.3
	C344.1,128.7,344.7,128.1,344.7,127.4 M353.5,127.4c0-0.7-0.6-1.3-1.3-1.3c-0.7,0-1.3,0.6-1.3,1.3c0,0.7,0.6,1.3,1.3,1.3
	C352.9,128.7,353.5,128.1,353.5,127.4 M362.3,127.4c0-0.7-0.6-1.3-1.3-1.3c-0.7,0-1.3,0.6-1.3,1.3c0,0.7,0.6,1.3,1.3,1.3
	C361.7,128.7,362.3,128.1,362.3,127.4 M309.4,139.7c0-0.7-0.6-1.3-1.3-1.3c-0.7,0-1.3,0.6-1.3,1.3c0,0.7,0.6,1.3,1.3,1.3
	C308.8,141,309.4,140.4,309.4,139.7 M318.2,139.7c0-0.7-0.6-1.3-1.3-1.3c-0.7,0-1.3,0.6-1.3,1.3c0,0.7,0.6,1.3,1.3,1.3
	C317.6,141,318.2,140.4,318.2,139.7 M327.1,139.7c0-0.7-0.6-1.3-1.3-1.3s-1.3,0.6-1.3,1.3c0,0.7,0.6,1.3,1.3,1.3
	C326.4,141,327.1,140.4,327.1,139.7 M335.9,139.7c0-0.7-0.6-1.3-1.3-1.3c-0.7,0-1.3,0.6-1.3,1.3c0,0.7,0.6,1.3,1.3,1.3
	C335.3,141,335.9,140.4,335.9,139.7 M344.7,139.7c0-0.7-0.6-1.3-1.3-1.3c-0.7,0-1.3,0.6-1.3,1.3c0,0.7,0.6,1.3,1.3,1.3
	C344.1,141,344.7,140.4,344.7,139.7 M353.5,139.7c0-0.7-0.6-1.3-1.3-1.3c-0.7,0-1.3,0.6-1.3,1.3c0,0.7,0.6,1.3,1.3,1.3
	C352.9,141,353.5,140.4,353.5,139.7 M362.3,139.7c0-0.7-0.6-1.3-1.3-1.3c-0.7,0-1.3,0.6-1.3,1.3c0,0.7,0.6,1.3,1.3,1.3
	C361.7,141,362.3,140.4,362.3,139.7 M309.4,152c0-0.7-0.6-1.3-1.3-1.3c-0.7,0-1.3,0.6-1.3,1.3c0,0.7,0.6,1.3,1.3,1.3
	C308.8,153.3,309.4,152.7,309.4,152 M318.2,152c0-0.7-0.6-1.3-1.3-1.3c-0.7,0-1.3,0.6-1.3,1.3c0,0.7,0.6,1.3,1.3,1.3
	C317.6,153.3,318.2,152.7,318.2,152 M327.1,152c0-0.7-0.6-1.3-1.3-1.3s-1.3,0.6-1.3,1.3c0,0.7,0.6,1.3,1.3,1.3
	C326.4,153.3,327.1,152.7,327.1,152 M335.9,152c0-0.7-0.6-1.3-1.3-1.3c-0.7,0-1.3,0.6-1.3,1.3c0,0.7,0.6,1.3,1.3,1.3
	C335.3,153.3,335.9,152.7,335.9,152 M344.7,152c0-0.7-0.6-1.3-1.3-1.3c-0.7,0-1.3,0.6-1.3,1.3c0,0.7,0.6,1.3,1.3,1.3
	C344.1,153.3,344.7,152.7,344.7,152 M353.5,152c0-0.7-0.6-1.3-1.3-1.3c-0.7,0-1.3,0.6-1.3,1.3c0,0.7,0.6,1.3,1.3,1.3
	C352.9,153.3,353.5,152.7,353.5,152 M362.3,152c0-0.7-0.6-1.3-1.3-1.3c-0.7,0-1.3,0.6-1.3,1.3c0,0.7,0.6,1.3,1.3,1.3
	C361.7,153.3,362.3,152.7,362.3,152 M309.4,164.3c0-0.7-0.6-1.3-1.3-1.3c-0.7,0-1.3,0.6-1.3,1.3c0,0.7,0.6,1.3,1.3,1.3
	C308.8,165.6,309.4,165,309.4,164.3 M318.2,164.3c0-0.7-0.6-1.3-1.3-1.3c-0.7,0-1.3,0.6-1.3,1.3c0,0.7,0.6,1.3,1.3,1.3
	C317.6,165.6,318.2,165,318.2,164.3 M327.1,164.3c0-0.7-0.6-1.3-1.3-1.3s-1.3,0.6-1.3,1.3c0,0.7,0.6,1.3,1.3,1.3
	C326.4,165.6,327.1,165,327.1,164.3 M335.9,164.3c0-0.7-0.6-1.3-1.3-1.3c-0.7,0-1.3,0.6-1.3,1.3c0,0.7,0.6,1.3,1.3,1.3
	C335.3,165.6,335.9,165,335.9,164.3 M344.7,164.3c0-0.7-0.6-1.3-1.3-1.3c-0.7,0-1.3,0.6-1.3,1.3c0,0.7,0.6,1.3,1.3,1.3
	C344.1,165.6,344.7,165,344.7,164.3 M353.5,164.3c0-0.7-0.6-1.3-1.3-1.3c-0.7,0-1.3,0.6-1.3,1.3c0,0.7,0.6,1.3,1.3,1.3
	C352.9,165.6,353.5,165,353.5,164.3 M362.3,164.3c0-0.7-0.6-1.3-1.3-1.3c-0.7,0-1.3,0.6-1.3,1.3c0,0.7,0.6,1.3,1.3,1.3
	C361.7,165.6,362.3,165,362.3,164.3"/>
<path class="st6" d="M282.9,345.3l8.7,24.9 M291.5,217.3l-7.4,2.6 M116.8,345.3l-8.7,24.9 M108.1,217.3l7.4,2.6 M7679.6,7915.2"/>
<path class="st7" d="M125.4,387.6l0.5,3.1h0l0.4-3.1h1.4l0.5,5.2h-1.1l-0.2-3.8h0l-0.2,1.3l-0.4,2.5h-0.8l-0.5-2.5l-0.2-1.1v-0.1h0
	l-0.1,3.8h-1.1l0.5-5.2L125.4,387.6 M129.3,387.6h1v5.2h-1V387.6z M134.1,388.6c-0.1,0-0.3-0.1-0.4-0.1c-0.9,0-1.3,0.8-1.3,1.6
	c0,0.8,0.4,1.7,1.3,1.7c0.1,0,0.3,0,0.4-0.1v1c-0.2,0.1-0.3,0.1-0.5,0.1c-1.5,0-2.3-1.3-2.3-2.7c0-1.3,0.9-2.6,2.3-2.6
	c0.2,0,0.3,0,0.5,0.1L134.1,388.6 M136.2,392.2c0,0.4-0.3,0.7-0.7,0.7c-0.4,0-0.7-0.3-0.7-0.7c0-0.4,0.3-0.6,0.7-0.6
	C135.9,391.6,136.2,391.9,136.2,392.2"/>
<path class="st8" d="M349.5,263.6l0.5,1.3c0.2,0.4,0.3,0.9,0.4,1.4h0c0.1-0.5,0.2-0.9,0.4-1.4l0.6-1.3h2l-2,4.4l2.1,4.7h-2.1
	l-0.6-1.4c-0.2-0.5-0.3-0.9-0.4-1.4h0c-0.1,0.5-0.2,0.9-0.4,1.4l-0.5,1.4h-2.1l2-4.7l-2-4.4H349.5 M329.4,288.3l0.2-0.7l0.9-2.6h2.1
	l-2.2,5.1v4h-1.9v-4l-2.3-5.1h2.1l1,2.8L329.4,288.3"/>
<path class="st9" d="M370.6,284.3l-2.2,9.1h1.9l0.3-1.5h1.9l0.3,1.5h2l-2.3-9.1H370.6 M372.2,290.5h-1.3l0.4-2.4l0.2-1.4h0l0.2,1.4
	L372.2,290.5z M351.4,308.5c0,0.7-0.4,1.1-1.2,1.1v-2.2C351,307.3,351.4,307.8,351.4,308.5 M350.2,315c1.8,0,3.2-0.8,3.2-2.6
	c0-0.8-0.4-1.8-1.2-2.1c0.7-0.5,1-1.1,1-1.9c0-0.8-0.4-1.6-1-2.1c-0.6-0.5-1.3-0.5-2-0.5h-1.9v9.1H350.2z M351.5,312.2
	c0,0.8-0.5,1.3-1.2,1.3V311C351,311,351.5,311.5,351.5,312.2L351.5,312.2z"/>
<path class="st10" d="M329.4,231c-0.2-0.2-0.4-0.3-0.7-0.3c-0.3,0-0.5,0.2-0.5,0.5c0,0.8,1.5,0.9,1.5,2.2c0,0.9-0.5,1.5-1.4,1.5
	c-0.3,0-0.6-0.1-0.8-0.3v-0.9c0.2,0.2,0.4,0.3,0.7,0.3c0.3,0,0.6-0.2,0.6-0.5c0-0.4-0.3-0.5-0.6-0.7c-0.5-0.4-0.9-0.8-0.9-1.5
	c0-0.8,0.4-1.5,1.3-1.5c0.3,0,0.6,0.1,0.9,0.2L329.4,231 M332.5,229.9v0.9h-1v1.1h0.9v0.9h-0.9v1.1h1v0.9h-2v-4.9H332.5
	 M334.7,229.9v4h0.9v0.9h-1.9v-4.9H334.7 M338.5,229.9v0.9h-1v1.1h0.9v0.9h-0.9v1.1h1v0.9h-2v-4.9H338.5 M341.8,230.8
	c-0.1,0-0.2-0.1-0.3-0.1c-0.8,0-1.2,0.8-1.2,1.5c0,0.7,0.3,1.6,1.2,1.6c0.1,0,0.2,0,0.4-0.1v0.9c-0.1,0.1-0.3,0.1-0.4,0.1
	c-1.3,0-2.1-1.3-2.1-2.5c0-1.2,0.8-2.5,2-2.5c0.2,0,0.3,0,0.5,0.1L341.8,230.8 M345.2,229.9v0.9h-0.8v4h-1v-4h-0.8v-0.9H345.2
	 M358.9,231c-0.2-0.2-0.4-0.3-0.7-0.3c-0.3,0-0.5,0.2-0.5,0.5c0,0.8,1.5,0.9,1.5,2.2c0,0.9-0.5,1.5-1.4,1.5c-0.3,0-0.6-0.1-0.8-0.3
	v-0.9c0.2,0.2,0.4,0.3,0.7,0.3c0.3,0,0.6-0.2,0.6-0.5c0-0.4-0.3-0.5-0.6-0.7c-0.6-0.4-0.9-0.8-0.9-1.5c0-0.8,0.5-1.5,1.3-1.5
	c0.3,0,0.6,0.1,0.9,0.2L358.9,231 M362.3,229.9v0.9h-0.8v4h-1v-4h-0.7v-0.9H362.3 M363.8,229.9l-1.1,4.9h1l0.2-0.8h1l0.2,0.8h1
	l-1.2-4.9H363.8 M364.7,233.2H364l0.2-1.3l0.1-0.8h0l0.1,0.8L364.7,233.2L364.7,233.2z M367.8,234.8v-2.3h0l0.9,2.3h1l-0.9-2.2
	c0.5-0.3,0.7-0.7,0.7-1.3c0-1.3-1.1-1.4-1.7-1.4h-1v4.9H367.8 M367.8,230.7h0.1c0.5,0,0.7,0.3,0.7,0.6c0,0.4-0.2,0.7-0.6,0.7l-0.2,0
	V230.7L367.8,230.7z M372.8,229.9v0.9H372v4h-1v-4h-0.8v-0.9H372.8 M41.5,234.9v-2l0.2,0c0.9,0,1.4-0.5,1.4-1.4
	c0-1.6-1.4-1.5-1.6-1.5h-1v4.9H41.5 M41.5,230.8h0.2c0.4,0,0.5,0.3,0.5,0.6c0,0.5-0.3,0.7-0.7,0.7L41.5,230.8L41.5,230.8L41.5,230.8
	z M45.4,229.9c-0.8,0-1.6,0.7-1.6,2.5c0,1.9,0.8,2.5,1.6,2.5c0.8,0,1.6-0.7,1.6-2.5C47.1,230.6,46.3,229.9,45.4,229.9 M44.8,232.5
	c0-0.4,0-1.6,0.6-1.6c0.6,0,0.7,1.2,0.7,1.6c0,0.4-0.1,1.6-0.7,1.6C44.8,234.1,44.8,232.9,44.8,232.5z M48.5,230l0.4,2.4
	c0.1,0.3,0.1,0.7,0.1,1.1h0c0-0.4,0.1-0.7,0.1-1.1l0.5-2.4h0.7l0.6,3.4h0c0-0.4,0-0.7,0.1-1l0.4-2.4h1l-1,4.9h-0.8l-0.5-2.6
	c0-0.3-0.1-0.6-0.1-0.9h0c0,0.3-0.1,0.6-0.1,0.9l-0.5,2.6h-0.8l-0.9-4.9L48.5,230 M55.1,230v0.9h-0.9v1.1h0.8v0.9h-0.8v1.1h0.9v0.9
	h-1.9V230H55.1 M57,234.9v-2.3h0l0.8,2.3h1l-0.8-2.2c0.5-0.3,0.7-0.7,0.7-1.3c0-1.3-1-1.4-1.6-1.4h-0.9v4.9L57,234.9 M57,230.8h0.1
	c0.5,0,0.6,0.3,0.6,0.6c0,0.4-0.2,0.7-0.6,0.7l-0.2,0L57,230.8L57,230.8L57,230.8z"/>
<path class="st11" d="M399.6,211.1l-0.4-11c0-10-6.7-16.2-15.5-16.4V16.4c0-8.9-7.2-16-16.1-16H32.3c-8.9,0-16,7.2-16,16v167.3
	c-8.8,0.2-15.5,6.4-15.5,16.4l-0.4,11c0,1.3,0.3,1.9,1.4,1.9h1.8c-0.1,0.4-0.2,0.9-0.4,1.3c-0.3,0.7-0.7,1.3-0.8,2.1
	c-0.1,0.7-1.2,7.3-1.2,16.7l0,151.8c0,13.1,10.3,23.9,23.4,24.4c29.5,1.3,59,2.6,88.6,1.9c0.7,0,1.6,0,2.5-0.2
	c2.4-0.4,4.9-0.8,7.3-1.3c0.9-0.2,2.8-0.3,2.8-0.3h148.6c0,0,1.9,0.1,2.8,0.3c2.4,0.4,4.9,0.9,7.3,1.3c0.9,0.2,1.8,0.2,2.5,0.2
	c29.5,0.6,59-0.7,88.5-1.9c13.1-0.6,23.4-11.3,23.4-24.4V233.2c0-9.5-1.1-16-1.2-16.7c-0.1-0.8-0.5-1.4-0.8-2.1
	c-0.2-0.4-0.3-0.9-0.4-1.3h1.8C399.3,213.1,399.7,212.4,399.6,211.1L399.6,211.1z"/>
<path class="st4" d="M29.9,289.3c0-3,0.7-5.9,2-8.5l-9.2,0c-1,0-1.5,0.3-1.8,1.3c-1.6,5-1.6,9.5,0,14.5c0.3,1,0.8,1.3,1.8,1.3h9.2
	C30.6,295.3,29.9,292.4,29.9,289.3"/>
<path class="st2" d="M29.9,289.3c0-3,0.7-5.9,2-8.5l-9.2,0c-1,0-1.5,0.3-1.8,1.3c-1.6,5-1.6,9.5,0,14.5c0.3,1,0.8,1.3,1.8,1.3h9.2
	C30.6,295.3,29.9,292.4,29.9,289.3z"/>
<path class="st4" d="M78,282c-0.3-0.9-0.8-1.3-1.8-1.3h-9.3c1.3,2.6,2,5.5,2,8.5c0,3.1-0.7,6-2,8.6h9.3c1,0,1.5-0.4,1.8-1.3
	C79.6,291.5,79.6,287.1,78,282"/>
<path class="st2" d="M78,282c-0.3-0.9-0.8-1.3-1.8-1.3h-9.3c1.3,2.6,2,5.5,2,8.6c0,3.1-0.7,6-2,8.6h9.3c1,0,1.5-0.4,1.8-1.3
	C79.6,291.5,79.6,287.1,78,282z"/>
<path class="st4" d="M49.4,269.8c3.1,0,5.9,0.7,8.5,2l0-9.2c0-1-0.3-1.5-1.3-1.8c-5-1.6-9.5-1.6-14.5,0c-0.9,0.3-1.3,0.8-1.3,1.8
	l0,9.2C43.5,270.5,46.4,269.8,49.4,269.8"/>
<path class="st2" d="M49.4,269.8c3.1,0,5.9,0.7,8.5,2l0-9.2c0-1-0.3-1.5-1.3-1.8c-5-1.6-9.5-1.6-14.5,0c-0.9,0.3-1.3,0.8-1.3,1.8
	l0,9.2C43.5,270.5,46.4,269.8,49.4,269.8z"/>
<path class="st4" d="M49.4,308.8c-3.1,0-5.9-0.7-8.5-2v9.2c0,1,0.4,1.5,1.3,1.8c5,1.6,9.5,1.6,14.5,0c0.9-0.3,1.3-0.8,1.3-1.8v-9.3
	C55.4,308.1,52.5,308.8,49.4,308.8"/>
<path class="st2" d="M283.6,342.6V222.1c0-1.9-1.5-2.8-2.8-2.8H119.2c-1.3,0-2.8,0.7-2.8,2.8v120.6c0,2.1,1.4,2.8,2.8,2.8h161.7
	C282.2,345.4,283.6,344.3,283.6,342.6L283.6,342.6z M49.4,308.8c-3.1,0-5.9-0.7-8.5-2v9.2c0,1,0.4,1.5,1.3,1.8c5,1.6,9.5,1.6,14.5,0
	c0.9-0.3,1.3-0.8,1.3-1.8v-9.3C55.4,308.1,52.5,308.8,49.4,308.8z"/>
</svg>
