<svg xmlns="http://www.w3.org/2000/svg" xmlns:xlink="http://www.w3.org/1999/xlink" viewBox="0 0 470.33 67.41"><defs><style>.ae16e824-cd2d-4cf7-ac3d-eeb873eec131{stroke:#9def48;stroke-miterlimit:10;stroke-width:0.75px;fill:url(#b04159a5-a1a5-421e-9737-16fb835dac05);}.f27a1890-65f3-4d7b-9aae-a530134f5289{fill:#9def48;}.abd24bd5-197b-40a3-b133-45f58fb89c2d{fill:#e60012;}.bc47027b-1497-4146-8266-c4957c437084{fill:#fff;}</style><linearGradient id="b04159a5-a1a5-421e-9737-16fb835dac05" x1="0.38" y1="33.7" x2="469.96" y2="33.7" gradientUnits="userSpaceOnUse"><stop offset="0" stop-color="#032c02"/><stop offset="1" stop-color="#207a09"/></linearGradient></defs><g id="e24565de-e7d9-41b8-9647-d924548c7f3a" data-name="texte"><polygon class="ae16e824-cd2d-4cf7-ac3d-eeb873eec131" points="0.38 5.91 102.44 5.91 108.57 0.38 150.31 0.38 158.22 5.91 461.65 6.11 469.96 16 469.96 59.72 50.81 59.72 42.7 67.03 7.89 67.03 0.38 59.72 0.38 5.91"/><path class="f27a1890-65f3-4d7b-9aae-a530134f5289" d="M58.17,24.68a15.86,15.86,0,0,0-2.28,8,15.92,15.92,0,0,0,2.28,8h2.62v3.95H56a17.72,17.72,0,0,1-4.1-11.91A17.67,17.67,0,0,1,56,20.73H79.5a17.67,17.67,0,0,1,4.1,11.9,17.72,17.72,0,0,1-4.1,11.91H74.75V40.59h2.64a16,16,0,0,0,2.26-8,15.93,15.93,0,0,0-2.26-8Z" transform="translate(-0.06 -0.03)"/><path class="f27a1890-65f3-4d7b-9aae-a530134f5289" d="M92.53,44.54h-4V24.1l4-4Z" transform="translate(-0.06 -0.03)"/><path class="f27a1890-65f3-4d7b-9aae-a530134f5289" d="M103.74,24.68a15.86,15.86,0,0,0-2.28,8,15.92,15.92,0,0,0,2.28,8h2.62v3.95h-4.75a17.72,17.72,0,0,1-4.1-11.91,17.67,17.67,0,0,1,4.1-11.9h23.46a17.67,17.67,0,0,1,4.1,11.9,17.72,17.72,0,0,1-4.1,11.91h-4.75V40.59H123a16,16,0,0,0,2.26-8,15.93,15.93,0,0,0-2.26-8Z" transform="translate(-0.06 -0.03)"/><path class="f27a1890-65f3-4d7b-9aae-a530134f5289" d="M148.53,41.17l-3.95,3.95V24.68H131.66V20.73h29.79v3.95H148.53Z" transform="translate(-0.06 -0.03)"/><path class="f27a1890-65f3-4d7b-9aae-a530134f5289" d="M186,34.59H169.6a16.9,16.9,0,0,0,2.14,6h19.55l2.28,3.95h-24a17.17,17.17,0,0,1-4-9.95h-3.74V30.66h3.74a17.06,17.06,0,0,1,4-9.93h24l-2.28,3.95H171.74a16.74,16.74,0,0,0-2.14,6H186Z" transform="translate(-0.06 -0.03)"/><path class="f27a1890-65f3-4d7b-9aae-a530134f5289" d="M201.45,24.68a15.94,15.94,0,0,0-2.27,8,16,16,0,0,0,2.27,8h2.63v3.95h-4.75a17.72,17.72,0,0,1-4.1-11.91,17.67,17.67,0,0,1,4.1-11.9h23.46a17.67,17.67,0,0,1,4.1,11.9,17.72,17.72,0,0,1-4.1,11.91H218V40.59h2.64a16.09,16.09,0,0,0,2.26-8,16,16,0,0,0-2.26-8Z" transform="translate(-0.06 -0.03)"/><path class="f27a1890-65f3-4d7b-9aae-a530134f5289" d="M231,20.73h26.23a17.67,17.67,0,0,1,4.1,11.9,17.72,17.72,0,0,1-4.1,11.91H231Zm4,19.86h20.17a16,16,0,0,0,2.26-8,15.93,15.93,0,0,0-2.26-8H235Z" transform="translate(-0.06 -0.03)"/><path class="f27a1890-65f3-4d7b-9aae-a530134f5289" d="M292.25,44.54H268.79a17.72,17.72,0,0,1-4.1-11.91,17.67,17.67,0,0,1,4.1-11.9h23.46a17.67,17.67,0,0,1,4.1,11.9A17.72,17.72,0,0,1,292.25,44.54Zm-2.11-3.95a16.09,16.09,0,0,0,2.26-8,16,16,0,0,0-2.26-8H270.91a15.94,15.94,0,0,0-2.27,8,16,16,0,0,0,2.27,8Z" transform="translate(-0.06 -0.03)"/><path class="f27a1890-65f3-4d7b-9aae-a530134f5289" d="M310.46,20.73h26.23a17.67,17.67,0,0,1,4.1,11.9,17.72,17.72,0,0,1-4.1,11.91H310.46Zm4,19.86h20.17a16,16,0,0,0,2.26-8,15.93,15.93,0,0,0-2.26-8H314.41Z" transform="translate(-0.06 -0.03)"/><path class="f27a1890-65f3-4d7b-9aae-a530134f5289" d="M374,30.66l1.79,2a17.68,17.68,0,0,1-4.1,11.91H348.21a16.6,16.6,0,0,1-3.57-7.09h4.25a18.75,18.75,0,0,0,1.45,3.14h19.22a16.74,16.74,0,0,0,2.13-6H345.9l-1.79-2a17.71,17.71,0,0,1,4.1-11.9h23.46a16.6,16.6,0,0,1,3.57,7.09H371a17.86,17.86,0,0,0-1.43-3.14H350.34a16.74,16.74,0,0,0-2.14,6Z" transform="translate(-0.06 -0.03)"/></g><g id="bf64546c-9c0a-4a29-9b9e-81d2f5cc94ed" data-name="nintendo"><path class="abd24bd5-197b-40a3-b133-45f58fb89c2d" d="M25.59,23.22A2.08,2.08,0,0,0,27.48,21a2.08,2.08,0,0,0-1.89-2.22A2.08,2.08,0,0,0,23.7,21,2.08,2.08,0,0,0,25.59,23.22Zm-.72-2.83H26.3c.53,0,.75.32.75.62s-.22.62-.75.62H24.87c-.53,0-.75-.32-.75-.62S24.34,20.39,24.87,20.39Z" transform="translate(-0.06 -0.03)"/><path class="abd24bd5-197b-40a3-b133-45f58fb89c2d" d="M23.8,26.07A1.82,1.82,0,0,0,25.56,28a1.77,1.77,0,0,0,1.66-1,1.84,1.84,0,0,0-.12-1.75h.19v-1.5H22.24v1.5H24.1A2,2,0,0,0,23.8,26.07ZM25,25.2h1.19a.6.6,0,1,1,0,1.19H25a.6.6,0,1,1,0-1.19Z" transform="translate(-0.06 -0.03)"/><polygon class="bc47027b-1497-4146-8266-c4957c437084" points="39.11 19.23 39.11 19.23 39.11 19.23 39.11 19.23"/><polygon class="abd24bd5-197b-40a3-b133-45f58fb89c2d" points="23.88 38.45 23.88 37.62 23.38 37.62 23.38 38.45 22.7 38.45 22.7 39.96 23.38 39.96 23.38 40.79 23.88 40.79 23.88 39.96 27.23 39.96 27.23 38.44 23.88 38.45"/><path class="abd24bd5-197b-40a3-b133-45f58fb89c2d" d="M26.12,33.46V35h.2c.61,0,.75.41.75.63a.66.66,0,0,1-.75.64h-.69V33.37a2.27,2.27,0,0,0,0,4.48,2.08,2.08,0,0,0,1.88-2.24A2.21,2.21,0,0,0,26.12,33.46Zm-1,2.77a1.13,1.13,0,0,1-.65-.1.6.6,0,0,1-.31-.53h0a.6.6,0,0,1,.31-.53,1.22,1.22,0,0,1,.65-.1Z" transform="translate(-0.06 -0.03)"/><rect class="abd24bd5-197b-40a3-b133-45f58fb89c2d" x="23.87" y="46.06" width="3.36" height="1.52"/><path class="abd24bd5-197b-40a3-b133-45f58fb89c2d" d="M25.08,30h2.21V28.48H25.46a1.64,1.64,0,0,0-1.68,1.72h0a1.84,1.84,0,0,0,.5,1.21h-.35v1.5h3.36v-1.5H25.08a.7.7,0,0,1-.61-.72A.67.67,0,0,1,25.08,30Z" transform="translate(-0.06 -0.03)"/><path class="abd24bd5-197b-40a3-b133-45f58fb89c2d" d="M24.78,14.57a5.39,5.39,0,0,0-5.37,5.69V52.42a5.37,5.37,0,1,0,10.73,0V20.26A5.38,5.38,0,0,0,24.78,14.57Zm4,37.83a4.06,4.06,0,1,1-8.09,0V20.27a4.06,4.06,0,1,1,8.09,0Z" transform="translate(-0.06 -0.03)"/><path class="abd24bd5-197b-40a3-b133-45f58fb89c2d" d="M25.08,42.33h2.21V40.82H25.46a1.64,1.64,0,0,0-1.68,1.72h0a1.84,1.84,0,0,0,.5,1.21h-.35v1.5h3.36v-1.5H25.08a.7.7,0,0,1-.61-.72A.67.67,0,0,1,25.08,42.33Z" transform="translate(-0.06 -0.03)"/><rect class="abd24bd5-197b-40a3-b133-45f58fb89c2d" x="22.18" y="46.06" width="1.03" height="1.52"/><polygon class="abd24bd5-197b-40a3-b133-45f58fb89c2d" points="22.18 50.01 25.7 50.01 22.18 52.19 22.18 53.76 27.23 53.76 27.23 52.2 23.71 52.2 27.23 50.01 27.23 48.45 22.18 48.45 22.18 50.01"/></g></svg>