<svg id="ab6f99a7-b72f-4a33-8f48-244ca2350f2e" data-name="texte" xmlns="http://www.w3.org/2000/svg" xmlns:xlink="http://www.w3.org/1999/xlink" viewBox="0 0 470.33 67.41"><defs><style>.b03f9b8d-6386-49ac-aaa3-e2a17c58d84c{stroke:#9def48;stroke-miterlimit:10;stroke-width:0.75px;fill:url(#bd19c47c-c9cd-491e-a1d5-8bca7b62b476);}.b544b171-9647-4aab-818f-83565bdeb411{fill:#9def48;}</style><linearGradient id="bd19c47c-c9cd-491e-a1d5-8bca7b62b476" x1="0.38" y1="33.7" x2="469.96" y2="33.7" gradientUnits="userSpaceOnUse"><stop offset="0" stop-color="#032c02"/><stop offset="1" stop-color="#207a09"/></linearGradient></defs><polygon class="b03f9b8d-6386-49ac-aaa3-e2a17c58d84c" points="0.38 5.91 102.44 5.91 108.57 0.38 150.31 0.38 158.22 5.91 461.65 6.11 469.96 16 469.96 59.72 50.81 59.72 42.7 67.03 7.89 67.03 0.38 59.72 0.38 5.91"/><path class="b544b171-9647-4aab-818f-83565bdeb411" d="M81.35,30.66l1.79,2A17.68,17.68,0,0,1,79,44.54H55.58A16.6,16.6,0,0,1,52,37.45h4.25a19.52,19.52,0,0,0,1.44,3.14H76.93a16.53,16.53,0,0,0,2.12-6H53.27l-1.79-2a17.71,17.71,0,0,1,4.1-11.9H79a16.6,16.6,0,0,1,3.57,7.09H78.36a17.86,17.86,0,0,0-1.43-3.14H57.7a16.93,16.93,0,0,0-2.14,6Z" transform="translate(-0.06 -0.03)"/><path class="b544b171-9647-4aab-818f-83565bdeb411" d="M93.07,37.91,88.9,44.54H84L99.09,20.73h4.55l15,23.81h-4.87l-4.11-6.63ZM107.21,34l-5.81-9.31L95.54,34Z" transform="translate(-0.06 -0.03)"/><path class="b544b171-9647-4aab-818f-83565bdeb411" d="M133.34,24.68H125.7a15.94,15.94,0,0,0-2.27,8,16,16,0,0,0,2.27,8h2.63v3.95h-4.75a17.72,17.72,0,0,1-4.1-11.91,17.67,17.67,0,0,1,4.1-11.9h9.76V17h3.94v3.73H147a17.67,17.67,0,0,1,4.1,11.9A17.72,17.72,0,0,1,147,44.54h-4.75V40.59h2.64a16.09,16.09,0,0,0,2.26-8,16,16,0,0,0-2.26-8h-7.65V38.79h-3.94Z" transform="translate(-0.06 -0.03)"/><path class="b544b171-9647-4aab-818f-83565bdeb411" d="M181.34,37.45h4.25A16.6,16.6,0,0,1,182,44.54H158.56a17.72,17.72,0,0,1-4.1-11.91,17.71,17.71,0,0,1,4.1-11.9H182a16.6,16.6,0,0,1,3.57,7.09h-4.25a17.86,17.86,0,0,0-1.43-3.14H160.68a15.94,15.94,0,0,0-2.27,8,16,16,0,0,0,2.27,8h19.23A18.55,18.55,0,0,0,181.34,37.45Z" transform="translate(-0.06 -0.03)"/><path class="b544b171-9647-4aab-818f-83565bdeb411" d="M216.47,44.54H193a17.67,17.67,0,0,1-4.1-11.91,17.62,17.62,0,0,1,4.1-11.9h23.46a17.67,17.67,0,0,1,4.1,11.9A17.72,17.72,0,0,1,216.47,44.54Zm-2.11-3.95a16.08,16.08,0,0,0,2.25-8,16,16,0,0,0-2.25-8H195.13a15.94,15.94,0,0,0-2.27,8,16,16,0,0,0,2.27,8Z" transform="translate(-0.06 -0.03)"/><path class="b544b171-9647-4aab-818f-83565bdeb411" d="M230.11,40.59h19.23a16,16,0,0,0,2.25-8,16.07,16.07,0,0,0-2.25-8H246.7V20.73h4.74a17.66,17.66,0,0,1,4.11,11.9,17.64,17.64,0,0,1-4.11,11.91H228a17.63,17.63,0,0,1-4.1-11.91,17.66,17.66,0,0,1,4.1-11.9h4.74v3.95h-2.62a16,16,0,0,0-2.27,8A16,16,0,0,0,230.11,40.59Z" transform="translate(-0.06 -0.03)"/><path class="b544b171-9647-4aab-818f-83565bdeb411" d="M292.38,34.59H266.6a17.1,17.1,0,0,0,2.14,6h2.63v3.95h-4.75a17.11,17.11,0,0,1-4-9.95h-3.73V30.66h3.73a17,17,0,0,1,4-9.93h23.46a17.67,17.67,0,0,1,4.1,11.9ZM266.6,30.66h23.49a16.88,16.88,0,0,0-2.12-6H268.74A16.93,16.93,0,0,0,266.6,30.66Z" transform="translate(-0.06 -0.03)"/><path class="b544b171-9647-4aab-818f-83565bdeb411" d="M321.59,34.59H305.15a17.1,17.1,0,0,0,2.14,6h19.56l2.27,3.95H305.17a17.11,17.11,0,0,1-4-9.95h-3.74V30.66h3.74a17,17,0,0,1,4-9.93h23.95l-2.27,3.95H307.29a16.93,16.93,0,0,0-2.14,6h16.44Z" transform="translate(-0.06 -0.03)"/></svg>