<svg id="bf9066c1-d5d4-4113-867d-bf70f22b556d" data-name="bae51f9f-9ab5-4723-91c1-5de94dc4635e" xmlns="http://www.w3.org/2000/svg" xmlns:xlink="http://www.w3.org/1999/xlink" viewBox="0 0 87.6 88.6"><defs><style>.ada14466-72ba-42c0-9816-5c582c777dc0,.f96f13e7-cfa4-4a24-a80a-b4c8e3ac6f34{fill:#211c1d;}.aa7fbdd8-19dc-4500-b5a6-4531b6c15de5{opacity:0.1;}.a557ad8e-9449-4167-8e29-9dcb2799b0e0{fill:#808094;}.fd8c3d7f-b1bd-43d1-877c-66e96d8a93f9{fill:#6d6e6f;}.e0f2ab47-be70-478e-afdd-f472f11a6714{fill:url(#fa0048d6-1f7a-4717-82fb-6b7dfe934d59);}.f96f13e7-cfa4-4a24-a80a-b4c8e3ac6f34{opacity:0.3;}.ad8568b9-9e88-4940-b955-f0c096385c9a,.b71e29ca-b247-41b2-90e9-e74a0398c078,.f96f13e7-cfa4-4a24-a80a-b4c8e3ac6f34{isolation:isolate;}.ad8568b9-9e88-4940-b955-f0c096385c9a{opacity:0.15;fill:url(#ec0d29bd-f133-40c6-984a-805b1ce2bf75);}.b71e29ca-b247-41b2-90e9-e74a0398c078{opacity:0.4;fill:url(#a3b35132-2e72-4d2d-aa30-b1f455355b03);}.a158abfc-6199-4e0d-bf1d-fce1c7ae56a3{fill:#959595;}</style><linearGradient id="fa0048d6-1f7a-4717-82fb-6b7dfe934d59" x1="-747.89" y1="2455.81" x2="-768.82" y2="2434.88" gradientTransform="translate(802.18 -2401.52)" gradientUnits="userSpaceOnUse"><stop offset="0" stop-color="#a4a5a9"/><stop offset="1" stop-color="#e6e6e7"/></linearGradient><linearGradient id="ec0d29bd-f133-40c6-984a-805b1ce2bf75" x1="-768.76" y1="2455.8" x2="-747.88" y2="2434.93" gradientTransform="translate(802.18 -2401.52)" gradientUnits="userSpaceOnUse"><stop offset="0" stop-color="#211c1d" stop-opacity="0"/><stop offset="0.04" stop-color="#211c1d" stop-opacity="0.09"/><stop offset="0.5" stop-color="#211c1d"/><stop offset="0.95" stop-color="#211c1d" stop-opacity="0.09"/><stop offset="1" stop-color="#211c1d" stop-opacity="0"/></linearGradient><linearGradient id="a3b35132-2e72-4d2d-aa30-b1f455355b03" x1="-5886.68" y1="-3866.42" x2="-5865.8" y2="-3887.31" gradientTransform="translate(-5832.48 -3833.03) rotate(180)" gradientUnits="userSpaceOnUse"><stop offset="0" stop-color="#fff" stop-opacity="0"/><stop offset="0.5" stop-color="#fff"/><stop offset="1" stop-color="#fff" stop-opacity="0"/></linearGradient></defs><circle class="ada14466-72ba-42c0-9816-5c582c777dc0" cx="43.8" cy="43.8" r="43.8"/><g class="aa7fbdd8-19dc-4500-b5a6-4531b6c15de5"><path class="a557ad8e-9449-4167-8e29-9dcb2799b0e0" d="M84.4,43.8l-8.6-8.9v4.3H66v9.1h9.8v4.3ZM72.5,15.1l-12.4-.2L63.2,18l-7,7,6.4,6.4,7-7,3.1,3.1ZM43.8,3.2l-8.9,8.6h4.3v9.8h9.1V11.8h4.3ZM15.1,15.1l-.2,12.4L18,24.4l7,7L31.4,25l-7-7,3.1-3.1ZM3.2,43.8l8.6,8.9V48.4h9.8V39.3H11.8V35ZM15.1,72.5l12.4.2-3.1-3.1,7-7L25,56.2l-7,7-3.1-3.1ZM43.8,84.4l8.9-8.6H48.4V66H39.3v9.8H35ZM72.5,72.5l.2-12.4-3.1,3.1-7-7-6.4,6.4,7,7-3.1,3.1Z" transform="translate(0 0)"/></g><path class="fd8c3d7f-b1bd-43d1-877c-66e96d8a93f9" d="M87.6,44.3A43.81,43.81,0,0,1,0,44.3v.5a43.8,43.8,0,0,0,87.6,0Z" transform="translate(0 0)"/><circle class="e0f2ab47-be70-478e-afdd-f472f11a6714" cx="43.8" cy="43.8" r="14.8"/><circle class="f96f13e7-cfa4-4a24-a80a-b4c8e3ac6f34" cx="43.8" cy="43.8" r="11.8"/><path class="ad8568b9-9e88-4940-b955-f0c096385c9a" d="M43.8,29.1A14.75,14.75,0,1,0,58.6,43.9,14.75,14.75,0,0,0,43.8,29.1Zm-.2,28.7A14.15,14.15,0,1,1,57.8,43.7,14.16,14.16,0,0,1,43.6,57.8Z" transform="translate(0 0)"/><path class="b71e29ca-b247-41b2-90e9-e74a0398c078" d="M43.8,58.6A14.75,14.75,0,1,0,29,43.9,14.75,14.75,0,0,0,43.8,58.6ZM44,29.9a14.1,14.1,0,0,1,0,28.2h0A14,14,0,0,1,29.9,44.2h0V44h0A14.08,14.08,0,0,1,44,29.9Z" transform="translate(0 0)"/><circle class="a158abfc-6199-4e0d-bf1d-fce1c7ae56a3" cx="43.6" cy="32.8" r="20.5"/></svg>