<svg xmlns="http://www.w3.org/2000/svg" xmlns:xlink="http://www.w3.org/1999/xlink" viewBox="0 0 470.58 67.66"><defs><style>.edd59d6d-85aa-4e8f-b49c-25e4237347da{stroke:#9def48;stroke-miterlimit:10;fill:url(#f9cf090d-283c-4acd-b539-57ddf1005ad6);}.aa994399-b287-4281-b121-efc2f8f18ecb{fill:#9def48;}.f003a968-94fd-4fa9-9a7c-bacbad46e68e{fill:#e51e2b;}</style><linearGradient id="f9cf090d-283c-4acd-b539-57ddf1005ad6" x1="0.5" y1="33.83" x2="470.08" y2="33.83" gradientUnits="userSpaceOnUse"><stop offset="0" stop-color="#032c02"/><stop offset="1" stop-color="#207a09"/></linearGradient></defs><g id="bed09f7f-ac53-4698-9f7b-761befcab4ac" data-name="calque3"><polygon class="edd59d6d-85aa-4e8f-b49c-25e4237347da" points="0.5 6.04 102.57 6.04 108.7 0.5 150.44 0.5 158.35 6.04 461.77 6.24 470.08 16.13 470.08 59.84 50.94 59.84 42.83 67.16 8.02 67.16 0.5 59.84 0.5 6.04"/><path class="aa994399-b287-4281-b121-efc2f8f18ecb" d="M80.32,37.14h4.37A17.11,17.11,0,0,1,81,44.44H56.87a18.22,18.22,0,0,1-4.22-12.25,18.25,18.25,0,0,1,4.22-12.26H81a17.11,17.11,0,0,1,3.67,7.3H80.32A18.89,18.89,0,0,0,78.85,24H59.06a16.33,16.33,0,0,0-2.34,8.19,16.37,16.37,0,0,0,2.34,8.18H78.85A19.62,19.62,0,0,0,80.32,37.14Z"/><path class="aa994399-b287-4281-b121-efc2f8f18ecb" d="M93,40.37h18.43l2.34,4.07H89v-21L93,19.33Z"/><path class="aa994399-b287-4281-b121-efc2f8f18ecb" d="M125.73,37.62l-4.29,6.82h-5.08l15.57-24.51h4.68l15.45,24.51h-5l-4.23-6.82Zm14.56-4-6-9.59-6,9.59Z"/><path class="aa994399-b287-4281-b121-efc2f8f18ecb" d="M183.66,30.15l1.85,2a18.14,18.14,0,0,1-4.23,12.25H157.14a17.13,17.13,0,0,1-3.68-7.3h4.38a19,19,0,0,0,1.48,3.23h19.79a16.92,16.92,0,0,0,2.19-6.17H154.76l-1.84-2a18.2,18.2,0,0,1,4.22-12.26h24.14a17.13,17.13,0,0,1,3.68,7.3h-4.38A17.47,17.47,0,0,0,179.11,24H159.32a17.49,17.49,0,0,0-2.2,6.15Z"/><path class="aa994399-b287-4281-b121-efc2f8f18ecb" d="M219.67,30.15l1.84,2a18.13,18.13,0,0,1-4.22,12.25H193.14a17.11,17.11,0,0,1-3.67-7.3h4.38a19,19,0,0,0,1.48,3.23h19.79a17.11,17.11,0,0,0,2.19-6.17H190.77l-1.85-2a18.25,18.25,0,0,1,4.22-12.26h24.15a17.13,17.13,0,0,1,3.68,7.3h-4.38A17.47,17.47,0,0,0,215.12,24H195.33a17.3,17.3,0,0,0-2.2,6.15Z"/><path class="aa994399-b287-4281-b121-efc2f8f18ecb" d="M230.71,44.44h-4.07v-21l4.07-4.07Z"/><path class="aa994399-b287-4281-b121-efc2f8f18ecb" d="M263.5,37.14h4.38a17.13,17.13,0,0,1-3.68,7.3H240.06a18.17,18.17,0,0,1-4.22-12.25,18.2,18.2,0,0,1,4.22-12.26H264.2a17.13,17.13,0,0,1,3.68,7.3H263.5A17.47,17.47,0,0,0,262,24H242.24a16.33,16.33,0,0,0-2.34,8.19,16.37,16.37,0,0,0,2.34,8.18H262A18.09,18.09,0,0,0,263.5,37.14Z"/><path class="aa994399-b287-4281-b121-efc2f8f18ecb" d="M302,30.15l1.85,2a18.18,18.18,0,0,1-4.22,12.25H275.52a17.13,17.13,0,0,1-3.68-7.3h4.38a19,19,0,0,0,1.48,3.23h19.8a17.08,17.08,0,0,0,2.18-6.17H273.14l-1.84-2a18.2,18.2,0,0,1,4.22-12.26h24.15a17.11,17.11,0,0,1,3.67,7.3H299A18.09,18.09,0,0,0,297.5,24H277.7a17.49,17.49,0,0,0-2.2,6.15Z"/></g><g id="e3f7c62e-76f6-4d01-955d-e6b6644f4d56" data-name="konami"><g id="a255d8a2-b94f-4bf5-ad33-53e15d7a98b3" data-name="g2993"><g id="bfdee4f3-b194-4951-8f44-9f1c2c408dff" data-name="g2998"><g id="ebbeb8dc-b8a9-4b5b-b881-3aeb688396f9" data-name="g3065"><path id="a455aeda-43a8-45e0-b617-7d9fd7f8209e" data-name="path3067" class="f003a968-94fd-4fa9-9a7c-bacbad46e68e" d="M29.73,54.9a3.88,3.88,0,0,1-1.19,2c-.73.72-3.75,3.27-3.75,3.27l-3.88-4.08v2.21L24.55,62a5,5,0,0,0,.37.35v0H21.63a.72.72,0,0,0-.72.72v1.93a.07.07,0,0,0,.13,0,.77.77,0,0,1,.82-.52h8V62.4h-4.4v0c.12-.08.26-.21.43-.35,0,0,2.67-2.27,2.92-2.51,1-1,1.36-2.31,1.14-4.62,0-.12-.14-.12-.17,0"/></g><g id="a957aa87-243f-439b-9a64-1287cffd3dfc" data-name="g3069"><path id="b93f3aeb-94b7-45cd-8ddc-fa191db94032" data-name="path3071" class="f003a968-94fd-4fa9-9a7c-bacbad46e68e" d="M29.23,50.7c0,1.79-1.75,2.81-3.75,2.81-2.31,0-4-1-4-2.81s1.75-2.81,3.75-2.81c2.36,0,4,1,4,2.81m-8.64,0a4.91,4.91,0,0,0,4.77,5.22c2.69,0,4.78-2,4.78-5.22a4.9,4.9,0,0,0-4.78-5.21c-2.68,0-4.77,2-4.77,5.21"/></g><g id="e21f272b-13a0-4600-b2eb-27ea3e46c2d6" data-name="g3073"><path id="fc9a3931-76ec-45c9-9181-018ac1cd7bc1" data-name="path3075" class="f003a968-94fd-4fa9-9a7c-bacbad46e68e" d="M29.81,12.42l-8.12,1.33a.94.94,0,0,0-.78.91v1.25L26,18.09c.23.1.4.16.54.21h0c-.14.05-.31.11-.51.2l-4.52,1.92h0a1,1,0,0,0-.58.86v1.91a.07.07,0,0,0,.13,0c.12-.26.31-.44.81-.36l8,1.3V22.81l-5.61-.87c-.29-.05-.64-.1-.82-.11h0l.8-.32,5.63-2.4v-.71L24.08,16c-.34-.14-.58-.24-.76-.3h0l.89-.12,5.6-.9Z"/></g><g id="a9c38e50-f240-4caf-8a53-f17ead1aa48a" data-name="g3077"><path id="a036f1af-b907-47c5-ac7e-e5e957e16e1d" data-name="path3079" class="f003a968-94fd-4fa9-9a7c-bacbad46e68e" d="M20.91,9.15v2a.07.07,0,0,0,.13,0,.76.76,0,0,1,.82-.53h8V8.43H21.63a.72.72,0,0,0-.72.72"/></g><g id="ae845229-6874-4920-b504-ba6adbb5d036" data-name="g3081"><path id="e94d4dfa-8689-42f5-ba7f-1246327f56f8" data-name="path3083" class="f003a968-94fd-4fa9-9a7c-bacbad46e68e" d="M20.91,36.86H26l.63,0v0c-.24.17-.49.36-.82.64l-4.42,3.83a1.22,1.22,0,0,0-.48,1.09v1.94a.07.07,0,0,0,.13,0,.76.76,0,0,1,.82-.53h8V42.42H24.09l-.8,0v0c.36-.27.84-.64,1.19-.94l5.33-4.59v-.76a.72.72,0,0,0-.72-.72H20.91Z"/></g><g id="b71c53b3-a1b2-4373-bb80-3e4c4a7cf920" data-name="g3085"><path id="b7684f29-7b5b-4c55-a62e-afd93a813a5f" data-name="path3087" class="f003a968-94fd-4fa9-9a7c-bacbad46e68e" d="M26.69,31.66l-3.07-1.39-.37-.15v0l.37-.15,3.07-1.36Zm3.12-4.46V24.75l-8.35,3.87a.94.94,0,0,0-.55.85v1.69a.07.07,0,0,0,.13,0,.61.61,0,0,1,.77-.2l8,3.74V33.08l-2-.93v-4l2-.91Z"/></g></g></g></g></svg>