<svg id="aa82c1ac-b5d3-48d1-b8ee-a813876eebad" data-name="texte" xmlns="http://www.w3.org/2000/svg" xmlns:xlink="http://www.w3.org/1999/xlink" viewBox="0 0 470.33 67.41"><defs><style>.a1b504a7-90cb-48a5-bda9-8758c594e21d{stroke:#9def48;stroke-miterlimit:10;stroke-width:0.75px;fill:url(#f4855ddb-75b6-4d6d-9123-ba313bf36020);}.b4e565d2-1600-4c36-9984-2b5d518acc5f{fill:#9def48;}</style><linearGradient id="f4855ddb-75b6-4d6d-9123-ba313bf36020" x1="0.38" y1="33.7" x2="469.96" y2="33.7" gradientUnits="userSpaceOnUse"><stop offset="0" stop-color="#032c02"/><stop offset="1" stop-color="#207a09"/></linearGradient></defs><polygon class="a1b504a7-90cb-48a5-bda9-8758c594e21d" points="0.38 5.91 102.44 5.91 108.57 0.38 150.31 0.38 158.22 5.91 461.65 6.11 469.96 16 469.96 59.72 50.81 59.72 42.7 67.03 7.89 67.03 0.38 59.72 0.38 5.91"/><path class="b4e565d2-1600-4c36-9984-2b5d518acc5f" d="M74.66,37h3.75a14.73,14.73,0,0,1-3.15,6.26H54.56a15.62,15.62,0,0,1-3.62-10.5,15.63,15.63,0,0,1,3.62-10.51h20.7a14.73,14.73,0,0,1,3.15,6.26H74.66a16.61,16.61,0,0,0-1.26-2.77h-17a14,14,0,0,0-2,7,14.1,14.1,0,0,0,2,7h17A17.37,17.37,0,0,0,74.66,37Z" transform="translate(-0.06 -0.03)"/><path class="b4e565d2-1600-4c36-9984-2b5d518acc5f" d="M87.17,37.43l-3.68,5.85H79.14l13.34-21h4l13.24,21h-4.29l-3.64-5.85ZM99.65,34l-5.13-8.22L89.35,34Z" transform="translate(-0.06 -0.03)"/><path class="b4e565d2-1600-4c36-9984-2b5d518acc5f" d="M136.82,31l1.59,1.75a15.58,15.58,0,0,1-3.62,10.5h-20.7A14.73,14.73,0,0,1,110.94,37h3.75A16.67,16.67,0,0,0,116,39.79h17a14.7,14.7,0,0,0,1.87-5.29H112.05l-1.58-1.72a15.63,15.63,0,0,1,3.62-10.51h20.7a14.73,14.73,0,0,1,3.15,6.26h-3.75a16.61,16.61,0,0,0-1.26-2.77H116A15.11,15.11,0,0,0,114.07,31Z" transform="translate(-0.06 -0.03)"/><path class="b4e565d2-1600-4c36-9984-2b5d518acc5f" d="M146.29,43.28H142.8v-18l3.49-3.49Z" transform="translate(-0.06 -0.03)"/><path class="b4e565d2-1600-4c36-9984-2b5d518acc5f" d="M156.17,25.76a14,14,0,0,0-2,7,14.1,14.1,0,0,0,2,7h2.32v3.49H154.3a15.62,15.62,0,0,1-3.62-10.5,15.59,15.59,0,0,1,3.62-10.51H175a15.59,15.59,0,0,1,3.62,10.51A15.62,15.62,0,0,1,175,43.28h-4.19V39.79h2.33a14.08,14.08,0,0,0,2-7,14,14,0,0,0-2-7Z" transform="translate(-0.06 -0.03)"/><path class="b4e565d2-1600-4c36-9984-2b5d518acc5f" d="M205.86,43.28h-20.7a15.61,15.61,0,0,1-3.61-10.5,15.59,15.59,0,0,1,3.61-10.51h20.7a15.59,15.59,0,0,1,3.62,10.51A15.62,15.62,0,0,1,205.86,43.28ZM204,39.79a14.08,14.08,0,0,0,2-7,14,14,0,0,0-2-7H187a14,14,0,0,0-2,7,14,14,0,0,0,2,7Z" transform="translate(-0.06 -0.03)"/></svg>