<svg id="a3564470-24d5-4b4b-8836-41f8041dfe70" data-name="texte" xmlns="http://www.w3.org/2000/svg" xmlns:xlink="http://www.w3.org/1999/xlink" viewBox="0 0 470.33 67.41"><defs><style>.fa5b2e90-a202-448e-947b-3b88a2199eb4{stroke:#9def48;stroke-miterlimit:10;stroke-width:0.75px;fill:url(#b22c3940-1a16-4577-a9e2-c3b99bb5ea4f);}.edd57c55-f161-4a61-9639-f31c7a0f8a30{fill:#9def48;}</style><linearGradient id="b22c3940-1a16-4577-a9e2-c3b99bb5ea4f" x1="0.38" y1="33.7" x2="469.96" y2="33.7" gradientUnits="userSpaceOnUse"><stop offset="0" stop-color="#032c02"/><stop offset="1" stop-color="#207a09"/></linearGradient></defs><polygon class="fa5b2e90-a202-448e-947b-3b88a2199eb4" points="0.38 5.91 102.44 5.91 108.57 0.38 150.31 0.38 158.22 5.91 461.65 6.11 469.96 16 469.96 59.72 50.81 59.72 42.7 67.03 7.89 67.03 0.38 59.72 0.38 5.91"/><path class="edd57c55-f161-4a61-9639-f31c7a0f8a30" d="M52.45,20.56h27a18.17,18.17,0,0,1,4.22,12.25,18.25,18.25,0,0,1-4.22,12.26h-27ZM56.52,41H77.28a16.48,16.48,0,0,0,2.32-8.19,16.39,16.39,0,0,0-2.32-8.18H56.52Z" transform="translate(-0.13 -0.13)"/><path class="edd57c55-f161-4a61-9639-f31c7a0f8a30" d="M115.46,45.07H91.31a18.25,18.25,0,0,1-4.22-12.26,18.17,18.17,0,0,1,4.22-12.25h24.15a18.17,18.17,0,0,1,4.22,12.25A18.25,18.25,0,0,1,115.46,45.07ZM113.29,41a16.48,16.48,0,0,0,2.32-8.19,16.39,16.39,0,0,0-2.32-8.18H93.5a16.32,16.32,0,0,0-2.34,8.18A16.41,16.41,0,0,0,93.5,41Z" transform="translate(-0.13 -0.13)"/><path class="edd57c55-f161-4a61-9639-f31c7a0f8a30" d="M151.47,45.07H127.32a18.2,18.2,0,0,1-4.22-12.26,18.12,18.12,0,0,1,4.22-12.25h24.15a18.17,18.17,0,0,1,4.22,12.25A18.25,18.25,0,0,1,151.47,45.07ZM149.3,41a16.48,16.48,0,0,0,2.32-8.19,16.39,16.39,0,0,0-2.32-8.18H129.51a16.33,16.33,0,0,0-2.35,8.18A16.43,16.43,0,0,0,129.51,41Z" transform="translate(-0.13 -0.13)"/><path class="edd57c55-f161-4a61-9639-f31c7a0f8a30" d="M173.38,24.63h-7.87a16.32,16.32,0,0,0-2.34,8.18A16.41,16.41,0,0,0,165.51,41h2.7v4.07h-4.88a18.2,18.2,0,0,1-4.22-12.26,18.12,18.12,0,0,1,4.22-12.25h10V16.71h4.05v3.85h10a18.12,18.12,0,0,1,4.23,12.25,18.2,18.2,0,0,1-4.23,12.26h-4.88V41h2.71a16.5,16.5,0,0,0,2.33-8.19,16.41,16.41,0,0,0-2.33-8.18h-7.87V39.15h-4.05Z" transform="translate(-0.13 -0.13)"/></svg>