<svg id="ae09a7b9-fe85-457e-a675-5df1795209a5" data-name="Calque 1" xmlns="http://www.w3.org/2000/svg" xmlns:xlink="http://www.w3.org/1999/xlink" viewBox="0 0 746.51 822.18"><defs><radialGradient id="ac7797c5-c857-49b0-8c79-d2d8d0b1738a" cx="65.88" cy="348.77" r="11.47" gradientUnits="userSpaceOnUse"><stop offset="0" stop-color="#fd6d66"/><stop offset=".78" stop-color="#b50a03"/></radialGradient><radialGradient id="a4b0e282-2b2e-4968-8da3-c708f0051fcc" cx="100.32" cy="382.53" r="5.66" gradientTransform="matrix(1 0 0 .6 0 153.01)" xlink:href="#eb7ee5b3-6e31-447f-b607-605d7fdaa078"/><radialGradient id="eb7ee5b3-6e31-447f-b607-605d7fdaa078" cx="92.36" cy="393.88" r="5.66" gradientTransform="matrix(1 0 0 .6 0 157.55)" gradientUnits="userSpaceOnUse"><stop offset="0" stop-color="#0000ef"/><stop offset=".15" stop-color="#0000e9"/><stop offset=".34" stop-color="#0101d9"/><stop offset=".56" stop-color="#0101be"/><stop offset=".79" stop-color="#02029a"/><stop offset="1" stop-color="#020282"/></radialGradient><radialGradient id="b22a04ee-923b-4fb2-bf47-ff4a7bfb29a4" cx="114.61" cy="393.88" r="5.66" xlink:href="#eb7ee5b3-6e31-447f-b607-605d7fdaa078"/><radialGradient id="e3235f8b-4bbb-48a4-a934-e2972fb9f634" cx="133.17" cy="400.04" r="5.66" gradientTransform="matrix(1 0 0 .6 0 160.02)" xlink:href="#eb7ee5b3-6e31-447f-b607-605d7fdaa078"/><radialGradient id="be4ed588-9e8a-410e-bfb7-2ff7663ba654" cx="139.21" cy="387.78" r="5.66" gradientTransform="matrix(1 0 0 .6 0 155.11)" xlink:href="#eb7ee5b3-6e31-447f-b607-605d7fdaa078"/><radialGradient id="bc9c03b7-df46-4a22-8054-b379cf8b0e86" cx="121.61" cy="382.1" r="5.66" gradientTransform="matrix(1 0 0 .6 0 152.84)" xlink:href="#eb7ee5b3-6e31-447f-b607-605d7fdaa078"/><radialGradient id="b0b63564-dfa2-4987-9279-1522635069d7" cx="195.83" cy="370.99" r="11.47" xlink:href="#ac7797c5-c857-49b0-8c79-d2d8d0b1738a"/><radialGradient id="b1d2cfe9-798d-4284-ac26-7a1fb5df1536" cx="225.51" cy="404.67" r="5.66" xlink:href="#ac7797c5-c857-49b0-8c79-d2d8d0b1738a"/><radialGradient id="bf7b7fab-0473-4aea-a7bb-2e32dacb9b68" cx="246.79" cy="404.24" r="5.66" xlink:href="#ac7797c5-c857-49b0-8c79-d2d8d0b1738a"/><radialGradient id="b5067167-5496-4fee-9201-8a563792eb0e" cx="264.4" cy="409.93" r="5.66" xlink:href="#ac7797c5-c857-49b0-8c79-d2d8d0b1738a"/><radialGradient id="b3041ad4-b595-4131-b1d3-a543894ffa7d" cx="258.36" cy="422.19" r="5.66" xlink:href="#ac7797c5-c857-49b0-8c79-d2d8d0b1738a"/><radialGradient id="a553e3f9-b3be-4ccd-946f-d6235f82ce1d" cx="239.79" cy="416.02" r="5.66" xlink:href="#ac7797c5-c857-49b0-8c79-d2d8d0b1738a"/><radialGradient id="be23abbf-abd3-4bba-8fdb-aa8fd3a9bf5d" cx="217.55" cy="416.02" r="5.66" xlink:href="#ac7797c5-c857-49b0-8c79-d2d8d0b1738a"/><linearGradient id="a6b79db3-70b8-4e8a-9018-80e2bd9a75bb" x1="167.83" y1="401.94" x2="328.33" y2="401.94" gradientTransform="matrix(.99 .15 .15 -.99 -121.45 456.86)" gradientUnits="userSpaceOnUse"><stop offset="0" stop-color="#3c409a"/><stop offset=".25" stop-color="#4e69b4"/><stop offset=".51" stop-color="#54bdec"/><stop offset=".75" stop-color="#89ccef"/><stop offset="1" stop-color="#ceeffb"/></linearGradient><style>.a9e9f0ac-f628-4279-9bff-4706817c0075{fill:#373735}.ad848336-2863-44fd-b67f-25c1c3888d42{fill:#121211}.aa8a67ee-a236-4df5-b7f5-d71d0291f8f9,.ad848336-2863-44fd-b67f-25c1c3888d42,.af1d736b-a7f2-4996-92c1-f7a90af65384,.b569fd6b-ddd5-4bd4-ba7b-8e69d1a193ce,.b7e33eda-b3ef-414f-9717-6028f960af29{stroke:#b5b5b5}.a20ca4ac-dae4-4eb1-8e4a-3459c5a8d252,.a7e3803d-7b63-48c1-a7ba-07d3fdb64335,.aa8a67ee-a236-4df5-b7f5-d71d0291f8f9,.ad848336-2863-44fd-b67f-25c1c3888d42,.af1d736b-a7f2-4996-92c1-f7a90af65384,.b569fd6b-ddd5-4bd4-ba7b-8e69d1a193ce,.b7e33eda-b3ef-414f-9717-6028f960af29,.e85803c1-944a-4edb-bdf2-b5a786f4c1d3{stroke-miterlimit:10}.aa8a67ee-a236-4df5-b7f5-d71d0291f8f9,.ad848336-2863-44fd-b67f-25c1c3888d42,.af1d736b-a7f2-4996-92c1-f7a90af65384,.b569fd6b-ddd5-4bd4-ba7b-8e69d1a193ce,.b7e33eda-b3ef-414f-9717-6028f960af29,.e85803c1-944a-4edb-bdf2-b5a786f4c1d3{stroke-width:.5px}.a7e3803d-7b63-48c1-a7ba-07d3fdb64335{fill:#443840;stroke:#090000}.e85803c1-944a-4edb-bdf2-b5a786f4c1d3{stroke:#090000}.a7e3803d-7b63-48c1-a7ba-07d3fdb64335{stroke-width:.75px}.e85803c1-944a-4edb-bdf2-b5a786f4c1d3{fill:#6b0c05}.f17103b8-9beb-48a1-accc-0b19f0fcfbbd{fill:#86382f}.a20ca4ac-dae4-4eb1-8e4a-3459c5a8d252{stroke:#373737}.a294bb56-57e9-4c8e-bacc-6526a9383dcf{fill:#3c409a}.aa8a67ee-a236-4df5-b7f5-d71d0291f8f9{fill:#dc6e05}.b569fd6b-ddd5-4bd4-ba7b-8e69d1a193ce{fill:#12e600}.af1d736b-a7f2-4996-92c1-f7a90af65384{fill:#0b47ce}.b7e33eda-b3ef-414f-9717-6028f960af29,.fa003121-2b52-45f9-94bb-f0a7e0e0bbfe{fill:#282826}.fa1c6baf-464f-4be9-bc77-c522c4f5dce3{fill:#ae7a82}.af6eaa2a-0720-45c4-8e7e-3ee72361b97f{fill:url(#ac7797c5-c857-49b0-8c79-d2d8d0b1738a)}.b8d1386b-737a-4f86-b342-745306f2b1e9{fill:url(#b0b63564-dfa2-4987-9279-1522635069d7)}.a243654a-66c9-4054-a4a7-16d27f8ea0b8{fill:#0000ef}.b74c08eb-7711-46f0-bcf2-c67ebecf059c{fill:#930303}.b88fe7c5-a9cd-4217-9e43-a3bf26579c87{fill:#e7e7e7}.f41897ce-5ab3-475d-9276-a73bdac6ae77{fill:#2c2b29}</style></defs><path id="aca7924e-bbf2-4562-b5b5-188c6cfcc645" data-name="ombre" style="opacity:.5;fill:#373735" d="m452.03 588.79 21.51-5.91H485.41l1.58 2.96 237.36 43.3h11.08l11.07 31.39-46.41 37.71-46.42 13.19-8.18-1.32.27-1.85-13.98-2.63-83.6 27.95-73.32 51.57-22.83 6.82-7.77-1.16v-2.63l-16.08-3.03-129.99 34.37 153.84-230.73z"/><g id="be21166f-3e70-46d8-b329-43dd8e1b7a52" data-name="bottom"><path class="a9e9f0ac-f628-4279-9bff-4706817c0075" d="m36 454.56 224.9 39.62v4.35l25.72 6.13-.4 311.34-248.24-47.27L36 454.56z"/><path class="ad848336-2863-44fd-b67f-25c1c3888d42" d="m202 526.54-78.38-13.74c-3 .19-4.26 3.56-4.26 3.56l.2 85c.69 2.18 3.86 5 3.86 5l74.27 13.46c5.14.49 7.52-5.25 7.52-5.25v-82.69a7.12 7.12 0 0 0-3.21-5.34zm-49.9 22.55-18.69-3.46v-20l2.27-1.88 18.1 3.07-1.78 2.69zm31.45 6.13-18.69-3.46v-20l2.27-1.87 18.1 3.06-1.78 2.67z" transform="translate(-.98 -.52)"/><path class="a7e3803d-7b63-48c1-a7ba-07d3fdb64335" d="m134.7 523.25-2.27 1.88v19.98l18.69 3.46-.1-19.58 1.78-2.67-18.1-3.07zM166.15 529.38l-2.27 1.88v19.98l18.69 3.46-.1-19.58 1.78-2.67-18.1-3.07z"/><path class="e85803c1-944a-4edb-bdf2-b5a786f4c1d3" d="M140.14 543.03v-12.85l8.01 1.78v12.56l-8.01-1.49zM171.2 548.87v-12.86l8.01 1.78v12.56l-8.01-1.48z"/><path d="M135.23 543.16v-15.23l2.05.4v15.16l-2.05-.33zM166.68 548.7v-15.23l2.04.4v15.16l-2.04-.33z"/><path class="f17103b8-9beb-48a1-accc-0b19f0fcfbbd" d="M140.4 530.69v-.35l7.47 1.8.01.43-7.48-1.88zM171.46 536.62v-.29l7.47 1.64.01.35-7.48-1.7z"/><circle cx="192.4" cy="574.85" r="4.25" style="fill:#8b8b8b;stroke-width:.75px;stroke:#090000;stroke-miterlimit:10"/><path class="a20ca4ac-dae4-4eb1-8e4a-3459c5a8d252" d="M136.29 598.71v-11.27l11.96 2.18v11.3l-11.96-2.21zM167.54 604.25v-11.27l11.96 2.17v10.88l-11.96-1.78z"/></g><g id="b35e1024-9200-4fec-8c76-b577d42959bb" data-name="t molding"><path class="a294bb56-57e9-4c8e-bacc-6526a9383dcf" d="m11.46 450.59-.79-39.76L1 407.66v45.1l27.89 5.54c.59 103.55 1 207.6 1.58 311.15a6.18 6.18 0 0 0 3.53 2.19 12.58 12.58 0 0 0 5 0l-2-316.56zM272.36 497v-41.27l-10.28-1.19-.2 44.51 25.71 6.13s-1.51 313.85 0 315.69 8.77 1.32 8.77 1.32l.93-319.91z" transform="translate(-.98 -.52)"/><path class="a294bb56-57e9-4c8e-bacc-6526a9383dcf" d="m78.72 346.42-8.15-1.3 16.26-218.56 9.04 1.5-17.15 218.36zM329.24 388.85l9.1 1.28 18.49-224.31h-26.37l-.26-90.92-10.06-1.84v94.84l6.04 1.09h20.27l-17.21 219.86z"/><path class="a294bb56-57e9-4c8e-bacc-6526a9383dcf" d="M88.49 127.19s-28.17-.35-29.11-.85c0-31.21.06-62.83 0-94l9.36 2.64.48 89.02z" transform="translate(-.98 -.52)"/><g id="e9b6984b-4be3-4303-87d6-063329af9c72" data-name="clair"><path class="a294bb56-57e9-4c8e-bacc-6526a9383dcf" d="m0 407.14 9.69 3.17L78 346.25l-8.11-1.94L0 407.14zM261.1 454.02l10.28 1.19 66.96-65.87-8.62-1.6-68.62 66.28zM111.56 0 58.42 31.78l9.36 2.64L120.36 3.3l2.74-1.62-2.57-.36L111.56 0zM383.74 40.62l-11.21-.8-52.39 33.24 10.06 1.84 53.54-34.28z"/></g></g><g id="f95d48f0-61ab-42ed-b966-7974db865170" data-name="side"><path class="ad848336-2863-44fd-b67f-25c1c3888d42" d="m453.13 308.64.63-159.63-70.02-108.39L330.2 74.9l.26 90.92h26.37l-18.49 224.31-66.96 65.08v41.27l24.93 5.28-.93 319.91 8.25-6.32 149.65-543.7-.21 21.51-142.1 516.55-1.61 1.24 6.94-5.32 136.83-496.99zM324.06 799.15l-7.76 6.48 11.99-9.2 124.7-453.24.05-12.13-128.98 468.09zM335.43 790.95l-1.32 1.02 6.87-5.27 111.79-407.64v21.25l.22-57.12-.22 24-117.34 423.76zM343 785.15l108.58-83.28 1.18-299.85L347.4 781.78l-4.4 3.37z"/><path style="fill:#bf0000;stroke-width:.5px;stroke-miterlimit:10;stroke:#b5b5b5" d="m303.63 815.35 5.73-4.4-5.73 4.4z"/><path class="a294bb56-57e9-4c8e-bacc-6526a9383dcf" d="m453.07 293.16.21-21.51-149.65 543.7 5.73-4.4 1.61-1.24 142.1-516.55z"/><path class="aa8a67ee-a236-4df5-b7f5-d71d0291f8f9" d="M453.13 330.74v-22.1l-.09 22.42.09-.32zM316.3 805.63z"/><path style="fill:#3dc0f0" d="m453.04 331.06.09-22.42L316.3 805.63l7.76-6.48 128.98-468.09z"/><path class="b569fd6b-ddd5-4bd4-ba7b-8e69d1a193ce" d="M452.99 343.19zM328.29 796.43l5.82-4.46-5.82 4.46z"/><path d="m334.11 791.97 1.32-1.02 117.34-423.76.22-24-124.7 453.24 5.82-4.46z"/><path class="af1d736b-a7f2-4996-92c1-f7a90af65384" d="m340.98 786.7 2.02-1.55-2.02 1.55zM452.77 402v-1.69l-.01 1.71.01-.02z"/><path style="fill:#9fa5a3" d="m340.98 786.7 2.02-1.55 4.4-3.37 105.36-379.76.01-1.71v-21.25L340.98 786.7z"/></g><g id="f2d9bd63-d233-45da-844a-a1652ad73c7d" data-name="panel"><path class="b7e33eda-b3ef-414f-9717-6028f960af29" d="m10.48 450.07 250.42 44.11.2-40.16L9.69 410.31l.79 39.76z"/><path class="a9e9f0ac-f628-4279-9bff-4706817c0075" d="m79.37 345.21-69.68 65.1 251.41 43.71 68.62-66.28-250.35-42.53z"/></g><g id="b3229063-be28-42fd-bee4-bfd1989e9089" data-name="ecran"><path class="b7e33eda-b3ef-414f-9717-6028f960af29" d="M96.84 129.36 79.7 347.72l250.52 42.43L347.82 168zm224.28 67.76c0 .2-.29.32-.48.49l-10.43 144.83a35.43 35.43 0 0 1-4.3 3.78l1.4.29v10.7s-1.4 4.75-11.08 2.64c-11.19-2.44-178.55-31.91-178.55-31.91l8.72-6.78v-1.39s-2.46.52-6-7l-12.48 2.77h-4l11.34-158.77s4-6.85 10.81-6.59 191.16 30.59 191.16 30.59 6.17 1.07 3.89 16.35z" transform="translate(-.98 -.52)"/><path d="M317.28 180S133 149.66 126.12 149.4s-10.81 6.6-10.81 6.6l-11.74 160.08h4.35l12.29-2.68c-.1-.23-.74-1.57-.85-1.8L131 166.54s2.11-5.54 7.12-7.38l177.49 27.16a20.77 20.77 0 0 1 5.11 9.76l-.05.75c.19-.17.62.66.66.47 3.23-14.06-4.05-17.3-4.05-17.3z" transform="translate(-.98 -.52)" style="fill:#151312"/><path d="m125.32 320-8.56 8s164.63 29.3 178.61 32.24c10.36 2.17 14.43-3.58 14.43-3.58l.61-7.37.39-7.71-4.89 3.84a20.85 20.85 0 0 1-7.73 3.87z" transform="translate(-.98 -.52)" style="fill:#555353"/><path d="M319.5 197.81c.45-.36.83-.69 1.14-1l.66-.52a20.31 20.31 0 0 0-5.72-10l-177.49-27.13c-5 1.84-7.12 7.38-7.12 7.38L119.36 311.6l.32.66c3.54 7.52 6.28 8 6.28 8l.44.08 171.78 28.93a20.85 20.85 0 0 0 7.73-3.87c2.57-1.91 4.89-3.84 4.89-3.84l10.5-145.29c-.44.46-1.05.96-1.8 1.54zM143.83 302.35z" transform="translate(-.98 -.52)" style="fill:#008aa6"/></g><g id="aa990b57-04d2-4dde-ba57-843e8d55d98c" data-name="top"><path id="b501f205-13d5-453a-92c2-26d65534298a" data-name="marquee" class="b7e33eda-b3ef-414f-9717-6028f960af29" d="m68.24 123.5 251.47 39.03.43-89.47L67.78 34.42l.46 89.08z"/><path style="stroke-miterlimit:10;stroke:#b5b5b5;fill:#373735" d="m128.84 2.64-5.74-.96-55.32 32.74 252.36 38.64 52.39-33.24L128.84 2.64z"/></g><g id="ae968eb0-592c-4ef8-bad9-3044d0d442c2" data-name="stickp1"><path class="fa003121-2b52-45f9-94bb-f0a7e0e0bbfe" d="M68.92 377.27v5.16H62.4v-5.16c-5.06.64-8.77 2.7-8.77 5.16 0 3 5.38 5.35 12 5.35s12-2.39 12-5.35c.06-2.43-3.63-4.52-8.71-5.16z" transform="translate(-.98 -.52)"/><path class="fa1c6baf-464f-4be9-bc77-c522c4f5dce3" d="M68.92 377.27v-17.78a12.18 12.18 0 0 1-3 .39 12.4 12.4 0 0 1-3.48-.49v17.88a26.67 26.67 0 0 1 6.52 0z" transform="translate(-.98 -.52)"/><path class="fa1c6baf-464f-4be9-bc77-c522c4f5dce3" d="M68.92 382.43v-5.16a26.67 26.67 0 0 0-6.52 0v5.16z" transform="translate(-.98 -.52)"/><path class="af6eaa2a-0720-45c4-8e7e-3ee72361b97f" d="M68.92 358.89v.6a11.24 11.24 0 0 0 8.77-10.72c0-6.14-5.29-11.11-11.81-11.11s-11.82 5-11.82 11.11a11.22 11.22 0 0 0 8.34 10.62v-.5z" transform="translate(-.98 -.52)"/><path class="fa1c6baf-464f-4be9-bc77-c522c4f5dce3" d="M68.92 359.49v-.6H62.4v.5a12.4 12.4 0 0 0 3.48.49 12.18 12.18 0 0 0 3.04-.39z" transform="translate(-.98 -.52)"/><path class="af6eaa2a-0720-45c4-8e7e-3ee72361b97f" d="M68.92 359.49v-.6H62.4v.5a12.4 12.4 0 0 0 3.48.49 12.18 12.18 0 0 0 3.04-.39z" transform="translate(-.98 -.52)"/></g><g id="a9a34675-036e-433f-b4bb-3f28ee3f19a9" data-name="stickp2"><path class="fa003121-2b52-45f9-94bb-f0a7e0e0bbfe" d="M198.88 399.49v5.16h-6.53v-5.16c-5 .64-8.77 2.7-8.77 5.16 0 3 5.39 5.35 12 5.35s12-2.39 12-5.35c.07-2.46-3.64-4.52-8.7-5.16z" transform="translate(-.98 -.52)"/><path class="fa1c6baf-464f-4be9-bc77-c522c4f5dce3" d="M198.88 399.49v-17.78a12.2 12.2 0 0 1-3 .39 12.83 12.83 0 0 1-3.48-.49v17.88a26.75 26.75 0 0 1 6.53 0z" transform="translate(-.98 -.52)"/><path class="fa1c6baf-464f-4be9-bc77-c522c4f5dce3" d="M198.88 404.65v-5.16a26.75 26.75 0 0 0-6.53 0v5.16z" transform="translate(-.98 -.52)"/><path class="b8d1386b-737a-4f86-b342-745306f2b1e9" d="M198.88 381.11v.6a11.24 11.24 0 0 0 8.77-10.71c0-6.14-5.29-11.11-11.82-11.11S184 364.85 184 371a11.22 11.22 0 0 0 8.34 10.62v-.5z" transform="translate(-.98 -.52)"/><path class="fa1c6baf-464f-4be9-bc77-c522c4f5dce3" d="M198.88 381.71v-.6h-6.53v.5a12.83 12.83 0 0 0 3.48.49 12.2 12.2 0 0 0 3.05-.39z" transform="translate(-.98 -.52)"/><path class="b8d1386b-737a-4f86-b342-745306f2b1e9" d="M198.88 381.71v-.6h-6.53v.5a12.83 12.83 0 0 0 3.48.49 12.2 12.2 0 0 0 3.05-.39z" transform="translate(-.98 -.52)"/></g><g id="b898df9f-539f-4313-980f-69561b52ad8b" data-name="boutons P1"><g id="f14a0438-e394-415c-9923-c04ed408b665" data-name="4"><path class="a243654a-66c9-4054-a4a7-16d27f8ea0b8" d="M92.54 389.14c-3.86 0-8.12 1.53-8.12 4.87 0 2.95 4.1 4.62 7.94 4.62 4.11 0 8-1.73 8-4.88-.04-2.35-3.88-4.61-7.82-4.61zm-.18 8.63c-3.86 0-7-1.74-7-3.89s3.13-3.89 7-3.89 7 1.74 7 3.89-3.14 3.89-7 3.89z" transform="translate(-.98 -.52)"/><path d="M92.36 390c-3.86 0-7 1.74-7 3.89s3.13 3.89 7 3.89 7-1.74 7-3.89-3.14-3.89-7-3.89z" transform="translate(-.98 -.52)" style="fill:url(#eb7ee5b3-6e31-447f-b607-605d7fdaa078)"/></g><g id="a4426b06-5a7a-46f0-9c69-6b8899d1ba4f" data-name="5"><path class="a243654a-66c9-4054-a4a7-16d27f8ea0b8" d="M114.79 389.14c-3.86 0-8.12 1.53-8.12 4.87 0 2.95 4.1 4.62 7.94 4.62 4.11 0 8-1.73 8-4.88-.04-2.35-3.88-4.61-7.82-4.61zm-.18 8.63c-3.86 0-7-1.74-7-3.89s3.13-3.89 7-3.89 7 1.74 7 3.89-3.14 3.89-7 3.89z" transform="translate(-.98 -.52)"/><path d="M114.61 390c-3.86 0-7 1.74-7 3.89s3.13 3.89 7 3.89 7-1.74 7-3.89-3.14-3.89-7-3.89z" transform="translate(-.98 -.52)" style="fill:url(#b22a04ee-923b-4fb2-bf47-ff4a7bfb29a4)"/></g><g id="a26d3776-02b7-47aa-80fb-7537daa4b5f0" data-name="6"><path class="a243654a-66c9-4054-a4a7-16d27f8ea0b8" d="M133.35 395.3c-3.86 0-8.13 1.53-8.13 4.87 0 3 4.11 4.62 7.95 4.62 4.1 0 8-1.73 8-4.88-.04-2.35-3.88-4.61-7.82-4.61zm-.18 8.63c-3.86 0-7-1.74-7-3.89s3.13-3.89 7-3.89 7 1.74 7 3.89-3.17 3.89-7 3.89z" transform="translate(-.98 -.52)"/><path d="M133.17 396.15c-3.86 0-7 1.74-7 3.89s3.13 3.89 7 3.89 7-1.74 7-3.89-3.17-3.89-7-3.89z" transform="translate(-.98 -.52)" style="fill:url(#e3235f8b-4bbb-48a4-a934-e2972fb9f634)"/></g><g id="bb3bc65a-9377-4986-a802-3f31452baf21" data-name="3"><path class="a243654a-66c9-4054-a4a7-16d27f8ea0b8" d="M139.39 383c-3.86 0-8.13 1.53-8.13 4.88 0 2.95 4.11 4.61 8 4.61 4.1 0 8-1.73 8-4.88-.09-2.31-3.93-4.61-7.87-4.61zm-.18 8.63c-3.86 0-7-1.74-7-3.89s3.13-3.89 7-3.89 7 1.75 7 3.89-3.14 3.93-7 3.93z" transform="translate(-.98 -.52)"/><path d="M139.21 383.89c-3.86 0-7 1.75-7 3.89s3.13 3.89 7 3.89 7-1.74 7-3.89-3.14-3.89-7-3.89z" transform="translate(-.98 -.52)" style="fill:url(#be4ed588-9e8a-410e-bfb7-2ff7663ba654)"/></g><g id="f27b7e74-f59b-4390-bb63-f985373f9211" data-name="2"><path class="a243654a-66c9-4054-a4a7-16d27f8ea0b8" d="M121.79 377.35c-3.86 0-8.12 1.53-8.12 4.88 0 2.95 4.1 4.61 7.94 4.61 4.11 0 8-1.73 8-4.88-.04-2.34-3.88-4.61-7.82-4.61zm-.18 8.64c-3.86 0-7-1.74-7-3.89s3.13-3.89 7-3.89 7 1.74 7 3.89-3.14 3.9-7 3.9z" transform="translate(-.98 -.52)"/><path d="M121.61 378.21c-3.86 0-7 1.74-7 3.89s3.13 3.89 7 3.89 7-1.74 7-3.89-3.14-3.89-7-3.89z" transform="translate(-.98 -.52)" style="fill:url(#bc9c03b7-df46-4a22-8054-b379cf8b0e86)"/></g><g id="e909e0f4-2683-4538-b141-8cf583e01a03" data-name="1"><path class="a243654a-66c9-4054-a4a7-16d27f8ea0b8" d="M100.5 377.78c-3.86 0-8.13 1.53-8.13 4.88 0 2.95 4.11 4.62 7.95 4.62 4.1 0 8-1.73 8-4.88-.04-2.35-3.88-4.62-7.82-4.62zm-.18 8.64c-3.86 0-7-1.74-7-3.89s3.13-3.89 7-3.89 7 1.74 7 3.89-3.14 3.89-7 3.89z" transform="translate(-.98 -.52)"/><path d="M100.32 378.64c-3.86 0-7 1.74-7 3.89s3.13 3.89 7 3.89 7-1.74 7-3.89-3.14-3.89-7-3.89z" transform="translate(-.98 -.52)" style="fill:url(#a4b0e282-2b2e-4968-8da3-c708f0051fcc)"/></g></g><g id="a6756d10-f04f-4166-a47c-b78fc5ba3e26" data-name="boutons P2"><g id="b270f681-5f08-445a-87ee-d17834c330ff" data-name="1"><path class="b74c08eb-7711-46f0-bcf2-c67ebecf059c" d="M225.69 399.93c-3.86 0-8.13 1.53-8.13 4.87 0 2.95 4.11 4.62 7.95 4.62 4.1 0 8-1.73 8-4.88-.04-2.35-3.88-4.61-7.82-4.61zm-.18 8.63c-3.86 0-7-1.74-7-3.89s3.13-3.89 7-3.89 7 1.74 7 3.89-3.14 3.89-7 3.89z" transform="translate(-.98 -.52)"/><path d="M225.51 400.78c-3.86 0-7 1.74-7 3.89s3.13 3.89 7 3.89 7-1.74 7-3.89-3.14-3.89-7-3.89z" transform="translate(-.98 -.52)" style="fill:url(#b1d2cfe9-798d-4284-ac26-7a1fb5df1536)"/></g><g id="f22da8a1-da86-405d-9452-d6f139906877" data-name="2"><path class="b74c08eb-7711-46f0-bcf2-c67ebecf059c" d="M247 399.49c-3.86 0-8.13 1.54-8.13 4.88 0 2.95 4.11 4.62 7.95 4.62 4.1 0 8-1.73 8-4.88-.07-2.35-3.91-4.62-7.82-4.62zm-.18 8.64c-3.86 0-7-1.74-7-3.89s3.13-3.89 7-3.89 7 1.74 7 3.89-3.17 3.89-7.03 3.89z" transform="translate(-.98 -.52)"/><path d="M246.79 400.35c-3.86 0-7 1.74-7 3.89s3.13 3.89 7 3.89 7-1.74 7-3.89-3.14-3.89-7-3.89z" transform="translate(-.98 -.52)" style="fill:url(#bf7b7fab-0473-4aea-a7bb-2e32dacb9b68)"/></g><g id="ef99f6e2-b208-419c-a6bb-32b65cde54da" data-name="3"><path class="b74c08eb-7711-46f0-bcf2-c67ebecf059c" d="M264.58 405.18c-3.86 0-8.12 1.53-8.12 4.88 0 2.95 4.1 4.61 7.94 4.61 4.1 0 8-1.73 8-4.88-.04-2.35-3.88-4.61-7.82-4.61zm-.18 8.64c-3.86 0-7-1.75-7-3.89s3.13-3.89 7-3.89 7 1.74 7 3.89-3.14 3.89-7 3.89z" transform="translate(-.98 -.52)"/><path d="M264.4 406c-3.86 0-7 1.74-7 3.89s3.13 3.89 7 3.89 7-1.75 7-3.89-3.14-3.89-7-3.89z" transform="translate(-.98 -.52)" style="fill:url(#b5067167-5496-4fee-9201-8a563792eb0e)"/></g><g id="ab640d52-6004-4f9b-8be2-833a4d11616b" data-name="4"><path class="b74c08eb-7711-46f0-bcf2-c67ebecf059c" d="M258.54 417.44c-3.86 0-8.13 1.53-8.13 4.88 0 2.95 4.11 4.61 8 4.61 4.1 0 8-1.73 8-4.88-.09-2.35-3.93-4.61-7.87-4.61zm-.18 8.64c-3.86 0-7-1.75-7-3.89s3.13-3.89 7-3.89 7 1.74 7 3.89-3.14 3.89-7 3.89z" transform="translate(-.98 -.52)"/><path d="M258.36 418.3c-3.86 0-7 1.74-7 3.89s3.13 3.89 7 3.89 7-1.75 7-3.89-3.14-3.89-7-3.89z" transform="translate(-.98 -.52)" style="fill:url(#b3041ad4-b595-4131-b1d3-a543894ffa7d)"/></g><g id="f307e0f1-0dcb-471a-98e4-51f9fa65c723" data-name="5"><path class="b74c08eb-7711-46f0-bcf2-c67ebecf059c" d="M240 411.28c-3.86 0-8.13 1.53-8.13 4.88 0 2.95 4.11 4.61 7.95 4.61 4.1 0 8-1.73 8-4.88-.07-2.35-3.91-4.61-7.82-4.61zm-.18 8.63c-3.86 0-7-1.74-7-3.89s3.13-3.89 7-3.89 7 1.75 7 3.89-3.17 3.89-7.03 3.89z" transform="translate(-.98 -.52)"/><path d="M239.79 412.13c-3.86 0-7 1.75-7 3.89s3.13 3.89 7 3.89 7-1.74 7-3.89-3.14-3.89-7-3.89z" transform="translate(-.98 -.52)" style="fill:url(#a553e3f9-b3be-4ccd-946f-d6235f82ce1d)"/></g><g id="f498ab48-b769-4b8a-aed8-b19d6efcdec3" data-name="6"><path class="b74c08eb-7711-46f0-bcf2-c67ebecf059c" d="M217.73 411.28c-3.86 0-8.13 1.53-8.13 4.88 0 2.95 4.11 4.61 8 4.61 4.1 0 8-1.73 8-4.88-.09-2.35-3.93-4.61-7.87-4.61zm-.18 8.63c-3.86 0-7-1.74-7-3.89s3.13-3.89 7-3.89 7 1.75 7 3.89-3.14 3.89-7 3.89z" transform="translate(-.98 -.52)"/><path d="M217.55 412.13c-3.86 0-7 1.75-7 3.89s3.13 3.89 7 3.89 7-1.74 7-3.89-3.14-3.89-7-3.89z" transform="translate(-.98 -.52)" style="fill:url(#be23abbf-abd3-4bba-8fdb-aa8fd3a9bf5d)"/></g></g><path class="b88fe7c5-a9cd-4217-9e43-a3bf26579c87" d="M228.57 237.19v.07l-5.92-1v-.08zM236.56 238.53a.13.13 0 0 0 0 .06l-5.72-1v-.06z" transform="translate(-.98 -.52)"/><path class="f41897ce-5ab3-475d-9276-a73bdac6ae77" d="m210.17 273.38-65.56-11c-.87-.14-.87-.14-.74-.92.25-1.54.47-3.08.75-4.61.78-4.31 1.48-8.63 2.22-12.95.09-.48.22-1 .29-1.44 0-.18.12-.23.31-.19l.75.13 119.31 19.98a16.13 16.13 0 0 1 4.69 1.42 11.54 11.54 0 0 1 5.67 5.9 8.36 8.36 0 0 1 .63 3.88c0 .38-.08.76-.15 1.14l-1.56 9.36c-.07.39-.13.42-.54.36l-40.11-6.72zm14.68-7.7c-.4 2.35-.79 4.71-1.19 7.07 0 .23 0 .34.3.38 1 .15 1.95.32 2.93.49.51.09.51.09.59-.37q.69-4.22 1.4-8.43c0-.08 0-.21.12-.22s.13.1.17.17c1.69 3.14 3.43 6.26 5.06 9.42a2.38 2.38 0 0 0 3.55.6c.9-.94 1.91-1.79 2.87-2.68l4.89-4.53c.08-.07.15-.22.26-.17s0 .2 0 .31v.12c-.47 2.79-.93 5.58-1.4 8.37 0 .25 0 .35.31.4 1 .16 2 .32 3.06.51.34.07.45 0 .49-.32l2.32-13.83a1.32 1.32 0 0 0-.25-1 2.34 2.34 0 0 0-3.26-.37l-2.16 2-8.12 7.4c-.25.23-.28.22-.45-.08-2.2-4.06-4.42-8.11-6.61-12.17a2.14 2.14 0 0 0-1.43-1.06A1.74 1.74 0 0 0 226 259zm-4.51-.71c.38-2.31.76-4.61 1.16-6.92a1.32 1.32 0 0 0-.45-1.21 2.4 2.4 0 0 0-3.17 0c-2.39 2.24-4.82 4.43-7.24 6.63l-2.95 2.7c-.13.12-.23.25-.37 0l-3.44-6.31c-1.1-2-2.19-4-3.3-6a2.24 2.24 0 0 0-2.21-1 1.52 1.52 0 0 0-1.5 1.37q-1.16 6.86-2.3 13.71c0 .28.05.37.35.41 1 .15 2 .32 3 .5.44.07.45.08.51-.3.46-2.73.91-5.46 1.37-8.19 0-.13 0-.27.06-.4s0-.16.11-.17.1.08.13.14.18.34.28.51c1.63 3 3.29 6 4.88 9.07a2.34 2.34 0 0 0 3.35.6c.47-.47 1-.91 1.48-1.37l6.5-6c.06-.05.09-.14.19-.11s.07.14.06.22c-.14.81-.28 1.62-.41 2.44-.35 2.06-.69 4.13-1 6.2 0 .22 0 .32.29.36l3 .5c.44.07.45.07.52-.31q.51-3.6 1.1-7.04zm33.15 5.67c-.38 2.28-.76 4.57-1.15 6.85-.06.31.06.41.38.45 1 .16 2 .32 3 .5.33.07.45 0 .5-.31.16-1 .35-2.08.51-3.12 0-.23.12-.33.4-.28l12.77 2.14c.33.05.39.18.34.45-.18 1-.34 2.08-.53 3.12-.05.25 0 .35.32.4 1 .15 2 .32 3 .49.45.07.46.07.53-.34l1.22-7.32a6.88 6.88 0 0 0-2.51-6.52 12.61 12.61 0 0 0-6.36-3c-2.38-.41-4.76-.8-7.13-1.19-.72-.12-1.45-.26-2.17-.35a1.6 1.6 0 0 0-1.91 1.29c-.46 2.27-.83 4.5-1.21 6.74zm-62.24-10.42 1.14-6.79a1.24 1.24 0 0 0 0-.47 1.91 1.91 0 0 0-1.63-1.33c-1.55-.26-3.1-.53-4.65-.77-1.84-.3-3.66-.71-5.51-.87a11.55 11.55 0 0 0-7 1.39 6.55 6.55 0 0 0-3.37 4.67q-.63 3.74-1.25 7.47c-.07.4-.07.4.36.47 1 .17 2 .32 2.93.5.33.06.45 0 .5-.31.15-1 .34-2.06.5-3.09 0-.29.17-.35.48-.3l12.67 2.12c.34 0 .42.16.37.46-.19 1-.35 2.08-.54 3.11 0 .26 0 .36.32.4 1 .16 2 .32 3 .51.33.06.44 0 .49-.32.42-2.28.81-4.57 1.19-6.85zm-38.3 1 6.47 1.08a7.76 7.76 0 0 0 2.76 0 3.93 3.93 0 0 0 3.34-2.92c.64-3.78 1.26-7.55 1.9-11.33.05-.27 0-.37-.33-.42-1-.15-2-.32-3-.5-.36-.07-.46 0-.51.33q-.92 5.58-1.86 11.15a1.08 1.08 0 0 1-1.24.95 4.41 4.41 0 0 1-.73-.08c-1-.18-2-.37-3.06-.54l-7-1.15c-.28-.05-.35-.15-.31-.38.11-.59.19-1.18.31-1.76.06-.28 0-.4-.35-.45-.84-.13-1.68-.26-2.52-.42-.34-.07-.44 0-.49.32-.24 1.49-.49 3-.74 4.45-.07.42-.07.42.42.5zM230.83 237.63l5.72 1c.15.09.15.2.13.35-.37 2.17-.73 4.34-1.11 6.51 0 .29 0 .38.34.43 3.09.5 6.18 1 9.27 1.54.32.05.34.16.31.44-.06.67-.23 1.33-.32 2-.22 1.55-.54 3.09-.8 4.63-.1.59-.17 1.19-.26 1.78 0 .2-.12.31-.4.26L228.57 254c-.65-.11-.65-.11-.56-.68q1.29-7.69 2.57-15.38c.02-.15.02-.31.25-.31zm3.94 12.7c-.13.78-.25 1.56-.39 2.34-.05.27 0 .38.33.43 1.06.16 2.11.34 3.16.53.32.06.44 0 .49-.31.25-1.55.51-3.1.78-4.66 0-.24 0-.34-.31-.38q-1.62-.25-3.24-.54c-.28-.05-.39 0-.43.27-.16.78-.26 1.55-.39 2.32zM255.63 249.17c2.55.43 5.09.86 7.64 1.27.34.06.42.17.37.47q-.7 4.14-1.39 8.3c-.07.37-.1.4-.52.33L246.38 257c-.27-.05-.34-.16-.3-.39q.72-4.21 1.41-8.43c0-.28.18-.33.47-.28 2.55.44 5.11.86 7.67 1.29zm1.31 4.88c.14-.8.27-1.6.41-2.4 0-.23 0-.36-.3-.4l-3.44-.58c-.26 0-.38 0-.42.27l-.81 4.85c0 .25.05.36.33.41l3.37.56c.3.06.42 0 .46-.3.13-.8.27-1.6.4-2.41zM173.53 244.78l-7.64-1.27c-.31 0-.37-.15-.33-.42q.72-4.2 1.42-8.42c0-.25.13-.32.4-.27l15.36 2.6c.41.07.43.11.37.49-.26 1.55-.53 3.11-.78 4.66 0 .31-.17.37-.5.32-3.07-.53-6.15-1-9.22-1.55-.46-.08-.46-.08-.52.32s-.11.7-.19 1 0 .35.31.4c2.06.33 4.11.68 6.17 1l3.16.53c.32.05.42.17.37.44s-.14.74-.19 1.11-.18.38-.51.32zm.92-5.45c.56.1 1.13.18 1.69.29.25 0 .35 0 .38-.25 0-.39.12-.78.2-1.17 0-.21 0-.32-.26-.36l-3.41-.57c-.22 0-.33 0-.36.23q-.08.62-.18 1.23c0 .23.06.3.29.33.55.07 1.1.17 1.65.27zM211.28 241.75l7.64 1.28c.44.07.5.14.42.52-.43 2-.7 4-1.05 6-.14.74-.27 1.48-.37 2.23 0 .29-.15.37-.49.31-2.08-.36-4.17-.7-6.26-1l-9-1.51c-.42-.07-.43-.08-.37-.47.26-1.56.53-3.11.77-4.67 0-.32.18-.37.52-.31l9.16 1.54c.46.07.46.07.53-.33s.09-.67.17-1 0-.4-.36-.46c-2.34-.37-4.68-.77-7-1.16l-2.31-.38c-.24 0-.32-.12-.28-.34a10.85 10.85 0 0 0 .21-1.27c0-.27.16-.31.43-.26l5.37.9 2.27.38zm-1.15 7.25c.55.09 1.11.17 1.66.27.21 0 .33 0 .36-.21l.21-1.23c0-.19-.05-.29-.27-.33l-3.33-.56c-.24 0-.35 0-.38.24 0 .4-.11.79-.19 1.17-.05.23.05.33.29.37.52.07 1.1.17 1.65.28zM268.74 251.36c.87.15 1.74.31 2.62.44.31 0 .38.18.34.43-.08.4-.13.8-.21 1.2 0 .21 0 .3.27.34l3.36.56c.28 0 .38 0 .41-.27.06-.41.15-.82.2-1.23 0-.23.15-.27.37-.24l5.4.91c.21 0 .3.13.27.33-.08.43-.16.86-.22 1.29 0 .23-.16.29-.41.25-.44-.09-.89-.15-1.34-.24-.24 0-.33 0-.36.24-.05.4-.13.8-.19 1.2 0 .23-.15.3-.4.25-.47-.08-.94-.15-1.41-.24-.17 0-.24 0-.29.17-.13.44-.08.91-.25 1.34-.07.18.07.24.24.27l1.38.22c.28 0 .38.15.33.41s-.13.78-.21 1.17c0 .21.05.31.28.34l1.34.22c.25 0 .34.13.3.36-.09.42-.17.84-.22 1.27 0 .22-.15.27-.36.24l-.65-.11-4.62-.77c-.45-.08-.45-.08-.38-.49s.12-.76.19-1.14c.05-.21 0-.3-.27-.34l-3.44-.58c-.22 0-.29 0-.31.21-.06.4-.16.8-.19 1.21s-.19.37-.5.32l-4.72-.8c-1.16-.19-.93-.1-.8-1 0-.25.09-.49.12-.74s.16-.29.4-.25c.45.09.9.15 1.34.24.27.05.39 0 .42-.26s.14-.78.19-1.17.16-.31.41-.26c.46.09.92.15 1.37.24.21 0 .3 0 .32-.2.06-.43.13-.85.22-1.27 0-.21-.05-.28-.26-.31l-1.38-.23c-.24 0-.34-.12-.29-.36s.14-.78.21-1.17c0-.23 0-.35-.31-.38-.45-.06-.9-.15-1.35-.22-.25 0-.34-.14-.29-.37q.12-.63.21-1.26c0-.24.16-.29.4-.24zM222.64 236.28l5.92 1a.42.42 0 0 1 .05.36q-1.31 7.77-2.6 15.56c0 .28-.17.37-.48.31s-.88-.19-1.33-.26l-3.89-.62c-.46-.08-.45-.08-.39-.49q1.31-7.74 2.6-15.49c.02-.14 0-.28.12-.37zM191.71 247.82l-7.71-1.28c-.3 0-.4-.14-.35-.43q.72-4.2 1.41-8.4c0-.26.15-.32.42-.27l15.39 2.56c.31.05.42.18.36.45s-.11.72-.19 1.08-.13.41-.55.34l-4.16-.7-5.06-.85c-.28 0-.37 0-.41.25-.22 1.39-.46 2.78-.69 4.17a2.74 2.74 0 0 1 0 .28c-.11.6-.11.6.58.72l8.92 1.49c.42.07.45.11.39.5s-.15.72-.18 1.08-.19.35-.48.3c-.56-.11-1.12-.2-1.68-.29z" transform="translate(-.98 -.52)"/><path d="M291.07 282.1c-.25 1.47-.49 2.94-.74 4.41-.07.42-.07.42-.51.34l-4.27-.71c-.27 0-.37-.13-.3-.37s.07-.41.11-.62-.06-.27-.25-.29l-.49-.05c-.39-.06-.49 0-.51.37v.19c0 .43-.14.5-.63.42-1.39-.23-2.79-.47-4.19-.69-.32-.05-.4-.19-.36-.45.5-3 1-5.91 1.49-8.86.06-.36.14-.42.55-.33 2.95.58 5.92 1 8.87 1.52.52.09 1 .13 1.55.22s.47.1.4.52c-.24 1.46-.49 2.92-.73 4.38zm-8.37-.17 1.58.27c.22 0 .32 0 .35-.22.1-.59.2-1.19.31-1.79 0-.21-.06-.3-.29-.34l-3.13-.52c-.21 0-.31 0-.35.22-.08.59-.18 1.19-.29 1.79 0 .21 0 .31.27.34zm5.47-1.49c-.52-.08-1-.16-1.55-.26-.25-.05-.36 0-.39.24-.09.59-.19 1.19-.29 1.78-.05.23.05.29.28.33 1 .16 2 .33 3 .51.28.05.39 0 .43-.27.08-.56.17-1.13.28-1.69 0-.23 0-.35-.3-.39-.48-.08-.97-.17-1.46-.25z" transform="translate(-.98 -.52)" style="fill:#2785db"/><path d="M292.87 271.31c-.25 1.48-.5 3-.74 4.44-.07.38-.11.4-.52.34l-2.86-.48c-.41-.07-.49-.18-.43-.54.14-.85.28-1.71.43-2.56a.34.34 0 0 1 0-.1c.2-.63.12-.52.72-.43l1.48.25c.26 0 .4 0 .44-.25.09-.59.19-1.18.29-1.76 0-.21 0-.33-.3-.38l-8-1.34c-.26 0-.39.05-.42.28-.09.57-.19 1.14-.28 1.7 0 .23.05.36.31.41l3.06.52a.25.25 0 0 0 .33-.17 1.81 1.81 0 0 0 .12-.64c0-.19.11-.24.27-.29a.45.45 0 0 1 .2 0c.85.09.89.14.77.88-.21 1.26-.43 2.51-.63 3.77 0 .26-.17.34-.43.3l-5.43-.91c-.49-.08-.55-.15-.48-.58.49-3 1-5.91 1.48-8.87 0-.17.09-.23.28-.22s.55 0 .83.08l9.77 1.63c.55.09.55.1.47.6l-.72 4.32z" transform="translate(-.98 -.52)" style="fill:#44c047"/><path d="M289.84 254.78c1.75.29 3.49.59 5.24.87.3 0 .4.13.35.42-.51 3-1 5.95-1.49 8.92-.05.3-.16.38-.49.32-1.4-.25-2.8-.48-4.2-.71-.36-.06-.42-.15-.36-.47 0-.12.06-.23.08-.34.08-.47.08-.47-.46-.56h-.21c-.5-.08-.51-.08-.54.39 0 .18-.1.34-.11.52s-.18.19-.35.16l-4.44-.74c-.23 0-.32-.15-.29-.35.17-1 .35-2 .51-3.06 0-.28.23-.27.45-.23l1.83.3c.8.15 1.61.24 2.4.44.25.06.44 0 .48-.27.07-.57.17-1.14.28-1.7.05-.27 0-.38-.34-.43-1.42-.22-2.83-.47-4.24-.7-.29 0-.4-.12-.35-.4.18-1 .33-2 .48-3 0-.26.15-.33.44-.28 1.77.31 3.55.6 5.33.9zm1.49 6.43c.51.08 1 .16 1.54.26.22 0 .35 0 .39-.21.09-.61.19-1.22.3-1.82 0-.2 0-.32-.27-.35l-3.09-.52c-.22 0-.32 0-.35.21-.09.63-.2 1.25-.31 1.88 0 .18 0 .26.24.29z" transform="translate(-.98 -.52)" style="fill:#eb1416"/><path class="f41897ce-5ab3-475d-9276-a73bdac6ae77" d="m156.94 232.66 7.54 1.26c.53.09.53.09.45.57s-.13.7-.17 1-.16.33-.44.28l-9.3-1.57c-.33-.05-.41 0-.45.3-.35 2.17-.72 4.33-1.07 6.49-.05.31-.2.36-.51.31l-5.19-.87c-.3 0-.4-.14-.35-.42q.72-4.19 1.4-8.39c.05-.31.19-.34.48-.29z" transform="translate(-.98 -.52)"/><path class="b88fe7c5-a9cd-4217-9e43-a3bf26579c87" d="M224.85 265.68 226 259a1.74 1.74 0 0 1 2.34-1.33 2.14 2.14 0 0 1 1.43 1.06c2.19 4.06 4.41 8.11 6.61 12.17.17.3.2.31.45.08l8.14-7.43 2.16-2a2.34 2.34 0 0 1 3.26.37 1.32 1.32 0 0 1 .25 1q-1.17 6.91-2.32 13.83c0 .29-.15.39-.49.32-1-.19-2-.35-3.06-.51-.3-.05-.36-.15-.31-.4.47-2.79.93-5.58 1.4-8.37v-.12c0-.04.11-.25 0-.31s-.18.1-.26.17l-4.89 4.53c-1 .89-2 1.74-2.87 2.68a2.38 2.38 0 0 1-3.55-.6c-1.63-3.16-3.37-6.28-5.06-9.42 0-.07-.06-.19-.17-.17s-.11.14-.12.22l-1.4 8.43c-.08.46-.08.46-.59.37-1-.17-1.95-.34-2.93-.49-.28 0-.34-.15-.3-.38.4-2.36.79-4.72 1.19-7.07zM220.34 265q-.59 3.46-1.16 6.95c-.07.38-.08.38-.52.31l-3-.5c-.27 0-.32-.14-.29-.36.36-2.07.7-4.14 1-6.2.13-.82.27-1.63.41-2.44 0-.08.06-.18-.06-.22s-.13.06-.19.11l-6.5 6c-.5.46-1 .9-1.48 1.37a2.34 2.34 0 0 1-3.35-.6c-1.59-3-3.25-6.05-4.88-9.07-.1-.17-.19-.34-.28-.51s-.05-.14-.13-.14-.1.1-.11.17 0 .27-.06.4c-.46 2.73-.91 5.46-1.37 8.19-.06.38-.07.37-.51.3-1-.18-2-.35-3-.5-.3 0-.4-.13-.35-.41q1.16-6.86 2.3-13.71a1.52 1.52 0 0 1 1.5-1.37 2.24 2.24 0 0 1 2.21 1c1.11 2 2.2 4 3.3 6l3.44 6.31c.14.27.24.14.37 0l2.95-2.7c2.42-2.2 4.85-4.39 7.24-6.63a2.4 2.4 0 0 1 3.17 0 1.32 1.32 0 0 1 .45 1.21c-.4 2.31-.78 4.61-1.16 6.92zM253.49 270.64c.38-2.24.75-4.47 1.13-6.7a1.6 1.6 0 0 1 1.91-1.29c.72.09 1.45.23 2.17.35 2.37.39 4.75.78 7.13 1.19a12.61 12.61 0 0 1 6.36 3 6.88 6.88 0 0 1 2.51 6.52q-.6 3.66-1.22 7.32c-.07.41-.08.41-.53.34-1-.17-2-.34-3-.49-.29 0-.37-.15-.32-.4.19-1 .35-2.08.53-3.12.05-.27 0-.4-.34-.45l-12.77-2.14c-.28-.05-.36 0-.4.28-.16 1-.35 2.08-.51 3.12-.05.3-.17.38-.5.31-1-.18-2-.34-3-.5-.32 0-.44-.14-.38-.45.39-2.28.77-4.57 1.15-6.85zM264 273l6.37 1.07c.3 0 .43 0 .46-.28s.08-.52.12-.78a4.27 4.27 0 0 0-1.54-4.2 8.48 8.48 0 0 0-4-1.85c-2.25-.43-4.52-.78-6.77-1.17-.34-.06-.36.12-.4.33q-.44 2.69-.9 5.37c0 .29 0 .4.36.46zM191.25 260.22c-.38 2.28-.77 4.57-1.14 6.85-.05.3-.16.38-.49.32-1-.19-2-.35-3-.51-.29 0-.36-.14-.32-.4.19-1 .35-2.08.54-3.11.05-.3 0-.41-.37-.46l-12.67-2.12c-.31-.05-.44 0-.48.3-.16 1-.35 2.05-.5 3.09 0 .3-.17.37-.5.31-1-.18-1.95-.33-2.93-.5-.43-.07-.43-.07-.36-.47q.62-3.74 1.25-7.47a6.55 6.55 0 0 1 3.37-4.67 11.55 11.55 0 0 1 7-1.39c1.85.16 3.67.57 5.51.87 1.55.24 3.1.51 4.65.77a1.91 1.91 0 0 1 1.59 1.37 1.24 1.24 0 0 1 0 .47l-1.14 6.79zm-10.67-1.14c2.11.35 4.22.7 6.33 1.07.32.05.44 0 .48-.29.3-1.81.6-3.63.91-5.44 0-.26 0-.37-.33-.42q-3-.48-6-1a11.11 11.11 0 0 0-3.77 0 4.85 4.85 0 0 0-3.81 2.54 7.49 7.49 0 0 0-.52 2c-.07.4-.07.41.4.48zM153 261.25l-7-1.17c-.49-.08-.49-.08-.42-.5.25-1.48.5-3 .74-4.45.05-.28.15-.39.49-.32.84.16 1.68.29 2.52.42.31.05.41.17.35.45-.12.58-.2 1.17-.31 1.76 0 .23 0 .33.31.38l7 1.15c1 .17 2 .36 3.06.54a4.41 4.41 0 0 0 .73.08 1.08 1.08 0 0 0 1.24-.95q.94-5.58 1.86-11.15c0-.3.15-.4.51-.33 1 .18 2 .35 3 .5.3.05.38.15.33.42-.64 3.78-1.26 7.55-1.9 11.33a3.93 3.93 0 0 1-3.34 2.92 7.76 7.76 0 0 1-2.76 0l-6.41-1.08z" transform="translate(-.98 -.52)"/><path class="f41897ce-5ab3-475d-9276-a73bdac6ae77" d="m264 273-6.33-1c-.34-.06-.41-.17-.36-.46q.47-2.68.9-5.37c0-.21.06-.39.4-.33 2.25.39 4.52.74 6.77 1.17a8.48 8.48 0 0 1 4 1.85 4.27 4.27 0 0 1 1.54 4.2c0 .26-.1.52-.12.78s-.16.33-.46.28zM180.58 259.08l-6.3-1.06c-.47-.07-.47-.08-.4-.48a7.49 7.49 0 0 1 .52-2 4.85 4.85 0 0 1 3.81-2.54 11.11 11.11 0 0 1 3.77 0q3 .51 6 1c.31.05.38.16.33.42-.31 1.81-.61 3.63-.91 5.44 0 .29-.16.34-.48.29-2.11-.37-4.22-.72-6.33-1.07z" transform="translate(-.98 -.52)"/><path d="M112 96.43a27.43 27.43 0 0 1 4.68 1.3 22.4 22.4 0 0 0 3.17 1.38l1 .56 4.2.63s7.81.23 11.33-2.32L147 93.12l6.35-3.45 6.29-3.4 5-3.18 4.1-3 4.9-3.91 3.36-3 3.87-3.51 2.51-2.54 3-3.16 1.93-2 1-.8s5.21-4.31 11.17-.73c0 0 6.07 3.2 6.26 8.67 0 0-.21 5.42-1.65 7.18l-2.65 4.11-2.44 4.13-1 2.86-.6 2.14-.49 2v2.37s.63 4.44 3.54 6.76a16.42 16.42 0 0 0 5.19 2.4s3.67.55 5.31-.41a15.51 15.51 0 0 0 5.29-3.36l3.55-4.09 2.81-4.08 1.69-2.21s3.06-3.48 7.26-2.66a8.15 8.15 0 0 1 5.64 3.79s1.83 3.12 1.62 5.77v2.46l-.55 2.12-1 3.21-.62 2.52v3.21a7.62 7.62 0 0 0 4 5.32 5.69 5.69 0 0 0 5.49-.12l1.57-1.16 1.59-1.39 2.33-2.6 1.58-1.31a5.12 5.12 0 0 1 4.61-.41 6.34 6.34 0 0 1 4.86 5.38l-.06 2.67-.86 2.74-1.93 3.55-2.42 3.34-3 3-4.3 3-2.93 1.33-4.12.62-3.56-.54-3.36-1-2.24-1-2.89-1.45-1.21-.83-2.23-2.24-1.67-2.7-1.55-2.53-1.28-1.81-1.27-1-2.83-.76-1.87.24-1.73 1.33-2.32 2.1-2.24 2.14-3.44 2.23-2.91 1.08-4.38.52-4.54.11-3.58-.43-2.75-.6s-7-2.15-10.78-8.24c0 0-3.54-6.93-3.38-9.8l-.6-2.5-.75-1.43-1.12-.44-1.75-.41-1.67.24-1.47.77-2.19 1.74-2.22 2.33-2.58 2.59-3.58 3.18-4.28 3.75-3.73 3.19-3.25 2.32-4.24 1.91s-13.48 4.91-18.43 3a30.73 30.73 0 0 1-13.46-5.56s-6-4.45-7.77-15.18v-3.34s.52-7.2 7.91-7.83z" transform="translate(-.98 -.52)" style="fill:url(#a6b79db3-70b8-4e8a-9018-80e2bd9a75bb)"/><path d="m160.45 123.91.32-.3a.5.5 0 0 1 .32-.18c.09 0 .16 0 .19.09a1 1 0 0 1 .07.38l.15 1.84v.26c0 .15-.08.22-.23.19s-.19-.09-.25-.23a6.36 6.36 0 0 0-1.02-1.56 3.15 3.15 0 0 0-1.94-1.05 2.31 2.31 0 0 0-1.46.19 2.11 2.11 0 0 0-.92 1 3.76 3.76 0 0 0-.33 1.64 4.4 4.4 0 0 0 .92 2.83 3.56 3.56 0 0 0 2.29 1.34 3 3 0 0 0 2.72-1 .36.36 0 0 1 .29-.13c.15 0 .23.1.23.22s-.38.61-1.14 1.06a4.24 4.24 0 0 1-2.85.41 6.17 6.17 0 0 1-3.59-1.68 4.19 4.19 0 0 1-1.32-3 3.22 3.22 0 0 1 1.33-2.66 4.27 4.27 0 0 1 3.35-.7 8 8 0 0 1 2.92 1.1zm7.47.49a7.1 7.1 0 0 1 2.56.85 5.53 5.53 0 0 1 1.76 1.64 3.72 3.72 0 0 1 .66 2.06 3.1 3.1 0 0 1-1.51 2.67 5.06 5.06 0 0 1-3.75.7 6.7 6.7 0 0 1-3.48-1.57 3.94 3.94 0 0 1-1.44-3 3 3 0 0 1 1.49-2.66 5.15 5.15 0 0 1 3.71-.64zm2.52 4.36a4.49 4.49 0 0 0-.74-2.77 2.63 2.63 0 0 0-3.28-1 1.69 1.69 0 0 0-.49.39 3.57 3.57 0 0 0-.75 2.54 4.77 4.77 0 0 0 .72 2.74 2.76 2.76 0 0 0 1.91 1.22 2.14 2.14 0 0 0 1.85-.56 3.48 3.48 0 0 0 .78-2.6zm8.77 1.24a5 5 0 0 1 1.61.72 2.91 2.91 0 0 1 .94 1.61 4 4 0 0 0 .65 1.44 1.64 1.64 0 0 0 1 .5c.23 0 .34.12.34.23s-.18.14-.55.08l-2.79-.48a2.39 2.39 0 0 1-.59-1.34 8.46 8.46 0 0 0-.4-1.69 1.7 1.7 0 0 0-.65-.78 2.73 2.73 0 0 0-1-.36c-.11 0-.26 0-.46-.05v2.54a1.12 1.12 0 0 0 .24.72 1.48 1.48 0 0 0 .8.35c.22 0 .33.12.33.22s-.09.15-.28.12l-2.22-.38c-.3 0-.69-.11-1.16-.15s-.7-.07-.8-.09-.3-.1-.3-.22.09-.15.26-.12a1.57 1.57 0 0 0 .75-.05c.23-.07.35-.52.35-1.33v-3.19a6.46 6.46 0 0 0-.18-2 1.14 1.14 0 0 0-.95-.52c-.21 0-.31-.11-.31-.22s.14-.15.4-.11c1.37.2 2.52.36 3.47.45.42 0 .8.09 1.13.14a5.86 5.86 0 0 1 2.58.92 1.87 1.87 0 0 1 .94 1.53 1.26 1.26 0 0 1-.45 1 2.24 2.24 0 0 1-1.1.51 6.08 6.08 0 0 1-1.54.05zm-2-.54h.28a4.16 4.16 0 0 0 1.27 0 1.31 1.31 0 0 0 .91-.47 1.5 1.5 0 0 0 .26-.86 1.6 1.6 0 0 0-.53-1.22 2.57 2.57 0 0 0-1.39-.61 3.58 3.58 0 0 0-.8 0zm10.34 2.12v2.22a1.29 1.29 0 0 0 .25.95 1.39 1.39 0 0 0 .74.33 1.63 1.63 0 0 1 .42.11.16.16 0 0 1 .09.15c0 .11-.14.13-.41.09-.12 0-.4-.06-.87-.16l-1.3-.24c-.25 0-.64-.1-1.12-.13l-.85-.09c-.18 0-.24-.09-.24-.2s.14-.13.41-.12a1.05 1.05 0 0 0 .56-.08.59.59 0 0 0 .25-.38 10.52 10.52 0 0 0 .08-1.59v-4.15a1 1 0 0 0-.22-.63 1.35 1.35 0 0 0-.81-.35c-.17 0-.25-.09-.25-.2s.15-.17.45-.12l1.13.17 3 .41a7.26 7.26 0 0 1 3.13 1 2 2 0 0 1 .89 1.65 1.48 1.48 0 0 1-1 1.41 5.76 5.76 0 0 1-3.11.12c-.32-.02-.72-.08-1.19-.17zm0-.41.64.12A2.19 2.19 0 0 0 190 131a1.55 1.55 0 0 0 .57-1.25 1.47 1.47 0 0 0-.53-1.18 2.48 2.48 0 0 0-1.29-.58 10.52 10.52 0 0 0-1.12-.07zm11.73-2a7.12 7.12 0 0 1 2.56.86 5.22 5.22 0 0 1 1.76 1.64 3.57 3.57 0 0 1 .66 2.06 3.11 3.11 0 0 1-1.52 2.67 5.08 5.08 0 0 1-3.76.7 6.7 6.7 0 0 1-3.48-1.57 3.92 3.92 0 0 1-1.45-3.05 3.08 3.08 0 0 1 1.51-2.67 5.17 5.17 0 0 1 3.72-.64zm2.52 4.36a4.45 4.45 0 0 0-.74-2.77 2.63 2.63 0 0 0-3.28-1 1.73 1.73 0 0 0-.5.39 3.6 3.6 0 0 0-.75 2.55 4.73 4.73 0 0 0 .71 2.73 2.74 2.74 0 0 0 1.92 1.23 2.14 2.14 0 0 0 1.85-.56 3.47 3.47 0 0 0 .82-2.6zm8.79 1.25a4.86 4.86 0 0 1 1.61.72 2.93 2.93 0 0 1 1 1.61 3.71 3.71 0 0 0 .64 1.44 1.66 1.66 0 0 0 1 .5c.22 0 .34.13.34.23s-.19.14-.55.09l-2.8-.49a2.29 2.29 0 0 1-.59-1.34 8.63 8.63 0 0 0-.4-1.69 1.72 1.72 0 0 0-.66-.78 2.68 2.68 0 0 0-1-.36c-.12 0-.27 0-.46-.05v2.54a1.1 1.1 0 0 0 .24.72 1.55 1.55 0 0 0 .83.36c.21 0 .32.12.32.22s-.09.15-.28.12l-2.23-.39c-.3 0-.68-.1-1.15-.14s-.71-.08-.81-.09-.29-.11-.29-.22.08-.15.25-.12a1.75 1.75 0 0 0 .76 0c.23-.08.35-.52.35-1.34v-3.19a6.46 6.46 0 0 0-.18-2 1.18 1.18 0 0 0-1-.53q-.3 0-.3-.21c0-.12.14-.15.41-.11 1.36.2 2.51.36 3.47.45l1.14.14a6 6 0 0 1 2.58.92 1.91 1.91 0 0 1 .93 1.53 1.23 1.23 0 0 1-.44 1 2.23 2.23 0 0 1-1.11.51 5.49 5.49 0 0 1-1.57.05zm-2-.54h.28a4.16 4.16 0 0 0 1.27 0 1.31 1.31 0 0 0 .91-.47 1.51 1.51 0 0 0 .27-.86 1.6 1.6 0 0 0-.54-1.22 2.51 2.51 0 0 0-1.38-.61 3.14 3.14 0 0 0-.81 0zm11.46-2 .51.07q.94 1.83 2.69 5.68a14.26 14.26 0 0 0 1.1 2.17 1.68 1.68 0 0 0 1 .57c.15 0 .23.11.23.19s-.1.17-.29.14-.36-.06-.81-.16-.92-.2-1.27-.25-.77-.12-1.31-.15l-.8-.09c-.23 0-.34-.1-.34-.22s.08-.12.23-.11c.6 0 .9-.09.9-.43a3.29 3.29 0 0 0-.26-.9 12 12 0 0 0-.55-1.22l-3-.46a5.18 5.18 0 0 0-.63 1.74.63.63 0 0 0 .31.54 1.91 1.91 0 0 0 .68.31c.18 0 .27.12.27.22s-.1.15-.3.12l-.61-.13-.93-.18a10 10 0 0 0-1.09-.1h-.22c-.18 0-.27-.09-.26-.21s.06-.13.17-.14a1.93 1.93 0 0 0 .68-.15 1.44 1.44 0 0 0 .54-.47 7 7 0 0 0 .69-1.22q.93-1.91 2.73-5.12zm-.52 2-1.27 2.43 2.57.36c-.13-.33-.34-.78-.62-1.36s-.53-1.1-.68-1.43zm5.18-1.11q3.78.66 5.59.93 1.38.21 3 .39c.4.07.71.09 1 .12l.49.08a9.3 9.3 0 0 1 .13 1l.11.94a.18.18 0 0 1-.19.2c-.12 0-.24-.13-.35-.33a3.49 3.49 0 0 0-.71-.92 2.87 2.87 0 0 0-1-.61 12.44 12.44 0 0 0-1.89-.39 16.34 16.34 0 0 0-.12 2.22v2.67a7.61 7.61 0 0 0 .16 1.57.83.83 0 0 0 .31.43 3.72 3.72 0 0 0 1.06.33c.19 0 .29.11.29.2s-.09.16-.25.13h-.2l-1.51-.26-2.14-.32-.92-.11-.45-.07a.18.18 0 0 1-.12-.33c0-.07.1-.16.28-.13a1.63 1.63 0 0 0 1-.07.81.81 0 0 0 .4-.62 17.22 17.22 0 0 0 .09-2 35 35 0 0 0-.18-4.08 12.85 12.85 0 0 0-1.73-.18 2 2 0 0 0-1 .28 2.12 2.12 0 0 0-.81.79c-.09.14-.18.19-.29.18s-.24-.1-.24-.21 0-.29.09-.75a11 11 0 0 1 .21-1.17zm11.38 1.76c.17 0 .51.08 1 .19.32.07.64.12 1 .17l2.24.3c.19 0 .29.09.29.2s-.09.13-.26.12a1.65 1.65 0 0 0-.77.06.76.76 0 0 0-.3.54 10.71 10.71 0 0 0-.11 2c0 1.23 0 2.19.06 2.87a2.69 2.69 0 0 0 .28 1.29 1.2 1.2 0 0 0 .74.35c.24 0 .36.1.36.2s-.13.19-.41.15l-.31-.05c-.92-.19-1.54-.31-1.87-.36-.74-.11-1.27-.19-1.62-.2a3.13 3.13 0 0 1-.4 0q-.27 0-.27-.21c0-.12.08-.13.23-.13a1.24 1.24 0 0 0 .83-.15 1.47 1.47 0 0 0 .26-1q0-.81.06-2.52c0-1.21 0-2-.07-2.43a1.33 1.33 0 0 0-.27-.8 1.54 1.54 0 0 0-.7-.29c-.19 0-.28-.11-.28-.22s.09-.14.29-.11zm10.91 1.45a7.37 7.37 0 0 1 2.57.86 5.28 5.28 0 0 1 1.76 1.66 3.67 3.67 0 0 1 .66 2.06 3.13 3.13 0 0 1-1.54 2.67 5.14 5.14 0 0 1-3.78.7 6.69 6.69 0 0 1-3.49-1.57 3.88 3.88 0 0 1-1.44-3.06 3.06 3.06 0 0 1 1.51-2.67 5.26 5.26 0 0 1 3.75-.65zm2.52 4.37a4.43 4.43 0 0 0-.74-2.77 2.65 2.65 0 0 0-3.3-1 1.87 1.87 0 0 0-.49.39 3.57 3.57 0 0 0-.76 2.55 4.65 4.65 0 0 0 .7 2.74 2.75 2.75 0 0 0 1.92 1.24 2.19 2.19 0 0 0 1.87-.57 3.51 3.51 0 0 0 .77-2.58zm6.15-3q3.48 3.72 5.79 6v-2.83a4.4 4.4 0 0 0-.11-1.19 1.21 1.21 0 0 0-.5-.64 2.43 2.43 0 0 0-.88-.37c-.17 0-.26-.12-.26-.22s.08-.16.25-.13a2.41 2.41 0 0 1 .35.07c.28.07.69.14 1.22.22s1.18.18 1.53.19l.37.06c.18 0 .28.09.28.21s-.13.15-.38.13a1.48 1.48 0 0 0-.86.19 1.08 1.08 0 0 0-.41 1v3.32l-.07 2.49c0 .21-.08.31-.25.28a.39.39 0 0 1-.15-.06c-.35-.31-.68-.63-1-1-.6-.6-1.51-1.54-2.7-2.82s-2-2.19-2.52-2.73v3a8.87 8.87 0 0 0 .08 1.36 1.15 1.15 0 0 0 .57.8 2.48 2.48 0 0 0 .86.35c.16 0 .24.09.24.19s-.08.16-.26.14a3.15 3.15 0 0 1-.42-.09c-.37-.09-.74-.16-1.12-.22a10.74 10.74 0 0 0-1.57-.18h-.44c-.19 0-.28-.11-.28-.23s.16-.13.46-.1c.55 0 .89-.06 1-.31a2.11 2.11 0 0 0 .22-1.06v-3.71a2.49 2.49 0 0 0-1.68-2.12c-.19-.06-.29-.14-.29-.23s.1-.18.3-.15l.82.12 1.78.3zm30.14-5.62L285 137l-15-2.27c2.84 0 2.31-2.07 2.33-3.77l.08-11.71c0-2.61 0-2.61-2.62-4.09l9.35 1.4c0 .13 0 .28-.06.28-2.58.19-2.58.19-2.6 2.81l-.09 12.69c0 1.8.26 2.07 2.18 2.38 4.09.65 5.11.07 6.36-3.49a6.77 6.77 0 0 1 .87-1.35zm-145.93-23.4c1.52-4 2.94-7.69 4.29-11.39a1.34 1.34 0 0 1 1.81-1c1.45.3 2.9.44 4.35.69a3.22 3.22 0 0 1 1.18.49c-3-.18-2.51 1.88-2.51 3.61v11.67c0 2.6 0 2.6 2.38 4l-8.66-1.31c0-.14 0-.29.08-.3 2.19-.27 2.19-.27 2.19-2.44 0-4.67 0-9.34-.19-14.07l-6.39 16.25h-.31l-6.47-18.06h-.17v14.73c0 1.46 1.35 1.83 2.57 2.24l-.14.33-5.73-.86c2.31-.34 2.28-2 2.26-3.78V97.42c0-2.37 0-2.37-2.28-3.51l6.74 1zm87.08 19.5-8.7-1.32c2.8 0 2.29-2.08 2.31-3.78s0-3.45 0-5.25l-6.14-.93c0 2.52-.17 5 .07 7.55.07.69 1.36 1.45 2 2.11l-8.5-1.24v-.25c2.27-.24 2.29-.24 2.29-2.5v-12.67c0-2.65 0-2.65-2.75-4.07l9.48 1.42c-2.75.64-2.75.64-2.76 3.3v4.82l6.25 1a56.61 56.61 0 0 0-.07-6.65c-.09-.72-1.28-1.49-1.91-2.18l8.73 1.31c-2.71.64-2.71.64-2.72 3.26v12.25c0 2.61 0 2.61 2.34 3.91zm9.88-16.6v7.44c3.44.73 3.25-1.95 4.12-3.63v10c-.94-2.24-.62-4.93-4.11-5.23v7c0 1 .6 1.48 1.74 1.74 3.95.9 6.12-.6 7.3-3.79-.11 1-.19 1.91-.32 2.86s-.28 1.9-.42 2.92l-14.68-2.21-.06-.24a3 3 0 0 1 .68-.13c1.24.08 1.74-.49 1.75-1.61 0-5 0-10 .06-14.94 0-1.55-1.19-2-2.35-2.59l14.16 2.12v5.51c-.79-4.19-3.79-5.31-7.72-5.24zm-56.94 9.45-9.38-1.41c2.75-.54 2.77-.57 2.78-3.16v-14.29c-2.92-1.18-3.8-.72-5.5 3.1V99.8l15.13 2.27v5.48c-.62-1.3-.93-2.7-1.83-3.59s-2.29-1.11-3.81-1.81v14.6c0 2.81 0 2.81 2.64 4.33zm86 5.93c-.25 2.3-.51 4.6-.76 6.94l-15.47-2.34c2.75-.58 2.75-.58 2.77-3.27l.06-12c0-2.69 0-2.69-2.7-4.23l9.35 1.4c0 .12 0 .27-.06.27-2.58.2-2.58.2-2.6 2.79l-.07 12.54c0 2 .2 2.24 2.28 2.56 3.91.59 5.05 0 6.19-3.32.18-.52.37-1 .55-1.55zm-62.39-6.47a7 7 0 0 1-.95 1.82c-3.13 3-8.87 2-12.26-1.7-4.39-4.73-3.66-13.21 1.31-15.92 2.77-1.51 5.73-1.43 8.87.49 1.24.76 2.37 1.36 3-.24v6.57a37.15 37.15 0 0 0-1.64-3.43c-2-3.22-6.05-3.92-8.17-1.42-1.81 2.12-2 4.85-1.79 7.67a17.91 17.91 0 0 0 .8 4.1c1.27 3.9 5.19 5.54 8.48 3.6.68-.42 1.34-.87 2.35-1.54zM155 97.92l8.7 1.31c-2.39.69-2.39.69-2.39 3.35v12.49c0 2.3.11 2.45 2.37 3.55l-9-1.36c.4-.19.56-.33.7-.3 1.56.26 1.94-.59 1.95-1.81 0-4.86-.06-9.73 0-14.59 0-1.63-1.19-2-2.33-2.64z" transform="translate(-.98 -.52)"/></svg>