<svg id="b0f1e499-3c95-42ad-b14e-9971f81596b7" data-name="bae51f9f-9ab5-4723-91c1-5de94dc4635e" xmlns="http://www.w3.org/2000/svg" xmlns:xlink="http://www.w3.org/1999/xlink" viewBox="0 0 87.6 88.6"><defs><style>.b36bdb7d-69ac-438e-9b23-7929237b21f4,.bd5de8fd-97d2-42c3-b72b-24f87073a28a{fill:#211c1d;}.a62651f2-9b8e-49ab-ba81-3b20df548997{opacity:0.1;}.be772d20-a07a-4da5-81f3-4929f3205fff{fill:#808094;}.f5dad8e3-9a52-47d3-a81d-1673b2361b5e{fill:#6d6e6f;}.af83588c-f576-4f89-bee1-a0dd3582c598{fill:url(#b4d2363b-d871-4e71-a28a-767ac0c07288);}.b36bdb7d-69ac-438e-9b23-7929237b21f4{opacity:0.3;}.a202571e-dbb5-4050-91d2-e6fbfb8da870,.b36bdb7d-69ac-438e-9b23-7929237b21f4,.ba633638-784a-4689-b942-cae1139e3b9d{isolation:isolate;}.a202571e-dbb5-4050-91d2-e6fbfb8da870{opacity:0.15;fill:url(#b5f60ffc-1923-420a-b1f9-d6fb8cc2b3b6);}.ba633638-784a-4689-b942-cae1139e3b9d{opacity:0.4;fill:url(#b6d2bcdb-fe4c-4acd-9b61-e346bb86739b);}.b0829898-8c26-45aa-a909-a9b50b51bac7{fill:#3dc0f0;}</style><linearGradient id="b4d2363b-d871-4e71-a28a-767ac0c07288" x1="-747.89" y1="2455.81" x2="-768.82" y2="2434.88" gradientTransform="translate(802.18 -2401.52)" gradientUnits="userSpaceOnUse"><stop offset="0" stop-color="#a4a5a9"/><stop offset="1" stop-color="#e6e6e7"/></linearGradient><linearGradient id="b5f60ffc-1923-420a-b1f9-d6fb8cc2b3b6" x1="-768.76" y1="2455.8" x2="-747.88" y2="2434.93" gradientTransform="translate(802.18 -2401.52)" gradientUnits="userSpaceOnUse"><stop offset="0" stop-color="#211c1d" stop-opacity="0"/><stop offset="0.04" stop-color="#211c1d" stop-opacity="0.09"/><stop offset="0.5" stop-color="#211c1d"/><stop offset="0.95" stop-color="#211c1d" stop-opacity="0.09"/><stop offset="1" stop-color="#211c1d" stop-opacity="0"/></linearGradient><linearGradient id="b6d2bcdb-fe4c-4acd-9b61-e346bb86739b" x1="-5886.68" y1="-3866.42" x2="-5865.8" y2="-3887.31" gradientTransform="translate(-5832.48 -3833.03) rotate(180)" gradientUnits="userSpaceOnUse"><stop offset="0" stop-color="#fff" stop-opacity="0"/><stop offset="0.5" stop-color="#fff"/><stop offset="1" stop-color="#fff" stop-opacity="0"/></linearGradient></defs><circle class="bd5de8fd-97d2-42c3-b72b-24f87073a28a" cx="43.8" cy="43.8" r="43.8"/><g class="a62651f2-9b8e-49ab-ba81-3b20df548997"><path class="be772d20-a07a-4da5-81f3-4929f3205fff" d="M84.4,43.8l-8.6-8.9v4.3H66v9.1h9.8v4.3ZM72.5,15.1l-12.4-.2L63.2,18l-7,7,6.4,6.4,7-7,3.1,3.1ZM43.8,3.2l-8.9,8.6h4.3v9.8h9.1V11.8h4.3ZM15.1,15.1l-.2,12.4L18,24.4l7,7L31.4,25l-7-7,3.1-3.1ZM3.2,43.8l8.6,8.9V48.4h9.8V39.3H11.8V35ZM15.1,72.5l12.4.2-3.1-3.1,7-7L25,56.2l-7,7-3.1-3.1ZM43.8,84.4l8.9-8.6H48.4V66H39.3v9.8H35ZM72.5,72.5l.2-12.4-3.1,3.1-7-7-6.4,6.4,7,7-3.1,3.1Z" transform="translate(0 0)"/></g><path class="f5dad8e3-9a52-47d3-a81d-1673b2361b5e" d="M87.6,44.3A43.81,43.81,0,0,1,0,44.3v.5a43.8,43.8,0,0,0,87.6,0Z" transform="translate(0 0)"/><circle class="af83588c-f576-4f89-bee1-a0dd3582c598" cx="43.8" cy="43.8" r="14.8"/><circle class="b36bdb7d-69ac-438e-9b23-7929237b21f4" cx="43.8" cy="43.8" r="11.8"/><path class="a202571e-dbb5-4050-91d2-e6fbfb8da870" d="M43.8,29.1A14.75,14.75,0,1,0,58.6,43.9,14.75,14.75,0,0,0,43.8,29.1Zm-.2,28.7A14.15,14.15,0,1,1,57.8,43.7,14.16,14.16,0,0,1,43.6,57.8Z" transform="translate(0 0)"/><path class="ba633638-784a-4689-b942-cae1139e3b9d" d="M43.8,58.6A14.75,14.75,0,1,0,29,43.9,14.75,14.75,0,0,0,43.8,58.6ZM44,29.9a14.1,14.1,0,0,1,0,28.2h0A14,14,0,0,1,29.9,44.2h0V44h0A14.08,14.08,0,0,1,44,29.9Z" transform="translate(0 0)"/><circle class="b0829898-8c26-45aa-a909-a9b50b51bac7" cx="43.6" cy="32.8" r="20.5"/></svg>