<svg xmlns="http://www.w3.org/2000/svg" xmlns:xlink="http://www.w3.org/1999/xlink" viewBox="0 0 470.58 67.66"><defs><style>.f6c5f949-6b12-4f1a-b213-3bd5536f2cd5{stroke:#9def48;stroke-miterlimit:10;fill:url(#bd6534b0-5aa4-45dc-b514-0ba1e3506b81);}.a79659ec-5473-4516-8a6c-51bf5eab1cf5{fill:#9def48;}.ec6f1332-8e6d-41cb-9857-0472d6e3af24{fill:url(#a11d7a9d-3ea3-4004-9d49-63a43e181e70);}.ad8ada2e-63c4-48e8-af8a-fee1a48ebae0{fill:#fcfcfc;}</style><linearGradient id="bd6534b0-5aa4-45dc-b514-0ba1e3506b81" x1="0.5" y1="33.83" x2="470.08" y2="33.83" gradientUnits="userSpaceOnUse"><stop offset="0" stop-color="#032c02"/><stop offset="1" stop-color="#207a09"/></linearGradient><linearGradient id="a11d7a9d-3ea3-4004-9d49-63a43e181e70" x1="89.75" y1="-242.54" x2="139.62" y2="-242.54" gradientTransform="matrix(0, -1, -1, 0, -217.25, 154.23)" gradientUnits="userSpaceOnUse"><stop offset="0" stop-color="#3c409a"/><stop offset="0.25" stop-color="#4e69b4"/><stop offset="0.51" stop-color="#54bdec"/><stop offset="0.75" stop-color="#89ccef"/><stop offset="1" stop-color="#ceeffb"/></linearGradient></defs><g id="e3dc7400-2229-4211-b847-d2ee9a6582e1" data-name="calque3"><polygon class="f6c5f949-6b12-4f1a-b213-3bd5536f2cd5" points="0.5 6.04 102.57 6.04 108.7 0.5 150.44 0.5 158.35 6.04 461.77 6.24 470.08 16.13 470.08 59.84 50.94 59.84 42.83 67.16 8.02 67.16 0.5 59.84 0.5 6.04"/><path class="a79659ec-5473-4516-8a6c-51bf5eab1cf5" d="M66.92,24.64H59.06a16.32,16.32,0,0,0-2.34,8.18A16.41,16.41,0,0,0,59.06,41h2.7v4.07H56.87a18.25,18.25,0,0,1-4.22-12.26,18.18,18.18,0,0,1,4.22-12.25H66.92V16.72h4v3.85H81a18.18,18.18,0,0,1,4.22,12.25A18.25,18.25,0,0,1,81,45.08H76.13V41h2.72a16.48,16.48,0,0,0,2.32-8.19,16.39,16.39,0,0,0-2.32-8.18H71V39.16h-4Z"/><path class="a79659ec-5473-4516-8a6c-51bf5eab1cf5" d="M94.43,45.08H90.37V24L94.43,20Z"/><path class="a79659ec-5473-4516-8a6c-51bf5eab1cf5" d="M116.92,41.61l-4.06,4.06v-21H99.56V20.57h30.66v4.07h-13.3Z"/><path class="a79659ec-5473-4516-8a6c-51bf5eab1cf5" d="M160.45,37.78h4.38a17.13,17.13,0,0,1-3.68,7.3H137a18.25,18.25,0,0,1-4.22-12.26A18.22,18.22,0,0,1,137,20.57h24.15a17.13,17.13,0,0,1,3.68,7.3h-4.38A17.18,17.18,0,0,0,159,24.64H139.19a16.32,16.32,0,0,0-2.34,8.18A16.41,16.41,0,0,0,139.19,41H159A18.09,18.09,0,0,0,160.45,37.78Z"/><path class="a79659ec-5473-4516-8a6c-51bf5eab1cf5" d="M172.45,34.84a17.66,17.66,0,0,0,2.2,6.17h2.7v4.07h-4.88a18.2,18.2,0,0,1-4.22-12.26,18.13,18.13,0,0,1,4.22-12.25h4.88v4.07h-2.7a17.49,17.49,0,0,0-2.2,6.15h24.18a17.27,17.27,0,0,0-2.19-6.15h-2.71V20.57h4.88a18.14,18.14,0,0,1,4.23,12.25,18.2,18.2,0,0,1-4.23,12.26h-4.88V41h2.71a17.43,17.43,0,0,0,2.19-6.17Z"/><path class="a79659ec-5473-4516-8a6c-51bf5eab1cf5" d="M229.14,34.84H212.22a17.46,17.46,0,0,0,2.2,6.17h20.13l2.34,4.07H212.23a17.67,17.67,0,0,1-4.13-10.24h-3.85V30.79h3.85a17.56,17.56,0,0,1,4.13-10.22h24.66l-2.34,4.07H214.42a17.3,17.3,0,0,0-2.2,6.15h16.92Z"/><path class="a79659ec-5473-4516-8a6c-51bf5eab1cf5" d="M245.23,41h18.43L266,45.08H241.17V24L245.23,20Z"/><path class="a79659ec-5473-4516-8a6c-51bf5eab1cf5" d="M274.34,41h18.42l2.34,4.07H270.27V24L274.34,20Z"/></g><g id="a7843e81-d3c0-416a-9fa2-9ccc4eb21292" data-name="mitchell"><path class="ec6f1332-8e6d-41cb-9857-0472d6e3af24" d="M28.51,61.65a7.78,7.78,0,0,1,.19-1.46,5.46,5.46,0,0,0,.3-1l.14-.3V57.59a7.86,7.86,0,0,0-1.33-3.53l-2.12-3.34-1.45-2-1.42-2-1.29-1.55L20.33,44l-1.52-1.52-1.15-1-1.33-1.2-.95-.78-1.18-.91-.74-.59-.31-.31S11.5,36,12.37,34.17a3.13,3.13,0,0,1,2.53-1.94,6.5,6.5,0,0,1,2.42.5l1.47.82,1.48.72,1,.33.73.19.68.14h.78a3.3,3.3,0,0,0,2-1.1,4.15,4.15,0,0,0,.53-1.6,3.46,3.46,0,0,0-.39-1.65A5.91,5.91,0,0,0,24.27,29l-1.51-1.09L21.29,27l-.81-.52a3,3,0,0,1-1.22-2.23,2.08,2.08,0,0,1,1-1.75A3.54,3.54,0,0,1,22,22h.8l.72.16,1.1.31.85.19,1.05,0A2,2,0,0,0,28.1,21.4a1.71,1.71,0,0,0-.31-1.7l-.46-.48-.53-.49-1-.71-.51-.49A1.65,1.65,0,0,1,25,16.11a1.67,1.67,0,0,1,1.52-1.5h.88l.94.26,1.25.57,1.21.74,1.12.93,1.19,1.32.58.9.41,1.28v1.1l-.15,1-.22.69-.33.89-.21.37-.63.7-.8.52-.74.48-.53.39-.26.4-.12.87.18.58.5.54.81.71.81.7.91,1.06.5.9.38,1.36.26,1.41,0,1.11-.06.86a5.42,5.42,0,0,1-2.18,3.35,9.39,9.39,0,0,1-3,1.05l-.79.18-.43.24-.09.34-.05.55.16.52.33.45.68.68.87.69,1,.81,1.22,1.11,1.45,1.34,1.24,1.16.92,1,.84,1.33s2.3,4.21,1.91,5.76a8.08,8.08,0,0,1-1.16,4.2s-1.18,1.85-4.63,2.41h-1.1a3.4,3.4,0,0,1-3-2.48Z"/><path class="ad8ada2e-63c4-48e8-af8a-fee1a48ebae0" d="M35.15,46.55l-.11-.1s-.08-.08-.08-.1,0-.05,0-.06l.12,0,.6,0h.08s.07,0,.07.07,0,.06-.06.08a1.63,1.63,0,0,0-.45.33.79.79,0,0,0-.25.61.72.72,0,0,0,.13.45.87.87,0,0,0,.37.29,1.3,1.3,0,0,0,.56.1,1.24,1.24,0,0,0,.88-.29.91.91,0,0,0,.33-.71,1.1,1.1,0,0,0-.48-.85.15.15,0,0,1-.06-.09.06.06,0,0,1,.07-.07c.08,0,.21.12.4.36a1.41,1.41,0,0,1,.28.89,1.57,1.57,0,0,1-.38,1.11,1.15,1.15,0,0,1-.92.41,1.22,1.22,0,0,1-.94-.41,1.45,1.45,0,0,1-.4-1,2.18,2.18,0,0,1,.22-.91Zm-.21-2.33a2,2,0,0,1,.15-.79,1.36,1.36,0,0,1,.46-.55,1,1,0,0,1,.64-.21,1.29,1.29,0,0,1,1,.47,1.66,1.66,0,0,1,.41,1.17,1.74,1.74,0,0,1-.34,1.08,1.11,1.11,0,0,1-.93.45,1.22,1.22,0,0,1-1-.46,1.75,1.75,0,0,1-.39-1.16Zm1.31-.78a1.38,1.38,0,0,0-.88.23.73.73,0,0,0-.15,1,.71.71,0,0,0,.15.15,1.38,1.38,0,0,0,.88.23,1.44,1.44,0,0,0,.86-.22.68.68,0,0,0,.31-.59.72.72,0,0,0-.28-.58,1.33,1.33,0,0,0-.89-.24Zm0-2.73a1.23,1.23,0,0,1,.16-.5.8.8,0,0,1,.48-.3,1,1,0,0,0,.44-.2.4.4,0,0,0,.12-.29c0-.07,0-.11.06-.11s.05.06.05.17l0,.87a.62.62,0,0,1-.41.18,3.16,3.16,0,0,0-.53.13.45.45,0,0,0-.23.2.88.88,0,0,0-.07.32.82.82,0,0,0,0,.14h.84a.35.35,0,0,0,.22-.08.44.44,0,0,0,.08-.25c0-.06,0-.1,0-.1s.06,0,.06.09l0,.69c0,.09,0,.21,0,.36s0,.22,0,.25,0,.09-.06.09,0,0,0-.08a.59.59,0,0,0-.05-.23c0-.07-.19-.11-.46-.11h-1a2,2,0,0,0-.65.06c-.08,0-.13.13-.13.29s0,.1,0,.1-.06,0-.06-.13c0-.42,0-.78,0-1.07s0-.25,0-.36a1.49,1.49,0,0,1,.17-.8.51.51,0,0,1,.46-.29.47.47,0,0,1,.33.14.79.79,0,0,1,.23.34,2,2,0,0,1,.09.48Zm-.08.61v-.09a1.32,1.32,0,0,0-.06-.39.45.45,0,0,0-.2-.28.51.51,0,0,0-.29-.08.45.45,0,0,0-.38.16.68.68,0,0,0-.13.43,1,1,0,0,0,0,.25Zm.18-3.21h.74a.47.47,0,0,0,.3-.08.39.39,0,0,0,.07-.23.53.53,0,0,1,0-.13.05.05,0,0,1,.05,0s0,0,0,.13,0,.12,0,.27,0,.32,0,.4a2.51,2.51,0,0,0,0,.35c0,.12,0,.21,0,.26s0,.08,0,.08-.05,0-.06-.13a.27.27,0,0,0-.06-.17.22.22,0,0,0-.14-.08,3,3,0,0,0-.52,0H35.34a.26.26,0,0,0-.2.07.37.37,0,0,0-.07.25c0,.05,0,.07,0,.07S35,39.08,35,39V37.71a1.88,1.88,0,0,1,.18-1,.57.57,0,0,1,.5-.28.59.59,0,0,1,.51.3,1.82,1.82,0,0,1,.2,1C36.33,37.84,36.33,38,36.32,38.11Zm-.13,0c0-.07,0-.14,0-.2a.72.72,0,0,0-.19-.54.63.63,0,0,0-.44-.18.46.46,0,0,0-.36.17.71.71,0,0,0-.13.4c0,.12,0,.23,0,.35Zm-1.25-3.64a2,2,0,0,1,.15-.8,1.36,1.36,0,0,1,.46-.55,1.1,1.1,0,0,1,.64-.2,1.26,1.26,0,0,1,1,.47,1.66,1.66,0,0,1,.41,1.16,1.79,1.79,0,0,1-.34,1.09,1.14,1.14,0,0,1-.93.45,1.26,1.26,0,0,1-1-.47,1.71,1.71,0,0,1-.39-1.15Zm1.31-.79a1.44,1.44,0,0,0-.88.23.73.73,0,0,0-.15,1,.71.71,0,0,0,.15.15,1.38,1.38,0,0,0,.88.24,1.44,1.44,0,0,0,.86-.22.7.7,0,0,0,.31-.6.74.74,0,0,0-.28-.58A1.33,1.33,0,0,0,36.25,33.68Zm0-2.73a1.33,1.33,0,0,1,.16-.5.78.78,0,0,1,.48-.29,1,1,0,0,0,.44-.2.42.42,0,0,0,.12-.3c0-.07,0-.11.06-.11s.05.06.05.18l0,.86a.63.63,0,0,1-.41.19,2.4,2.4,0,0,0-.53.12.43.43,0,0,0-.23.21.78.78,0,0,0-.07.31.82.82,0,0,0,0,.14h.84a.29.29,0,0,0,.22-.07.42.42,0,0,0,.08-.26c0-.07,0-.1,0-.1s.06,0,.06.09l0,.69c0,.09,0,.21,0,.36s0,.22,0,.25,0,.09-.06.09,0,0,0-.08a.69.69,0,0,0-.05-.24c0-.07-.19-.1-.46-.1h-1a2.49,2.49,0,0,0-.65.05c-.08,0-.13.14-.13.3s0,.09,0,.09-.06,0-.06-.12c0-.42,0-.78,0-1.08,0-.13,0-.25,0-.35a1.47,1.47,0,0,1,.17-.8.5.5,0,0,1,.79-.16.89.89,0,0,1,.23.35,1.94,1.94,0,0,1,.09.48Zm-.08.62v-.09a1.34,1.34,0,0,0-.06-.4.51.51,0,0,0-.2-.28.6.6,0,0,0-.29-.08.43.43,0,0,0-.38.17.65.65,0,0,0-.13.43,1.13,1.13,0,0,0,0,.25ZM34.9,28v-.15q.56-.3,1.74-.84a4.17,4.17,0,0,0,.66-.35.45.45,0,0,0,.14-.3s0-.06.05-.06a.08.08,0,0,1,.06.08,1.52,1.52,0,0,1,0,.25c0,.16,0,.29,0,.4a3,3,0,0,0,0,.4c0,.13,0,.21,0,.25s0,.11,0,.11-.05,0-.05-.07c0-.19-.08-.28-.19-.28a.9.9,0,0,0-.28.08l-.38.17v.94a2.16,2.16,0,0,0,.61.19.18.18,0,0,0,.16-.09.58.58,0,0,0,.07-.21q0-.09.06-.09s0,0,0,.09a1.77,1.77,0,0,1,0,.19c0,.13,0,.23,0,.29a1.94,1.94,0,0,0,0,.34v.07s0,.08-.06.08,0,0-.06-.05a.58.58,0,0,0-.08-.22.69.69,0,0,0-.18-.16,2.58,2.58,0,0,0-.44-.22c-.45-.19-1-.47-1.82-.84Zm.68.16.86.39v-.79L36,28l-.43.21ZM35,26.57c0-.78,0-1.36,0-1.73s0-.6,0-.94c0-.12,0-.22,0-.3v-.15l.33,0,.3,0a.07.07,0,0,1,.08.05v0s0,.07-.1.11a.78.78,0,0,0-.26.22.6.6,0,0,0-.15.31,3.77,3.77,0,0,0,0,.58,6.12,6.12,0,0,0,.74,0l.87,0a2.94,2.94,0,0,0,.51-.05.26.26,0,0,0,.13-.1,1.2,1.2,0,0,0,0-.33c0-.06,0-.09.05-.09s.06,0,.06.08v1.62a0,0,0,0,1-.05.05s0,0,0-.09a.54.54,0,0,0-.08-.3.3.3,0,0,0-.22-.12c-.23,0-.45,0-.68,0-.44,0-.88,0-1.33.06a4.89,4.89,0,0,0,0,.54.71.71,0,0,0,.14.32.91.91,0,0,0,.3.25.09.09,0,0,1,.07.09c0,.05,0,.07,0,.07l-.25,0a2.76,2.76,0,0,1-.4-.06Zm0-3.52c0-.06,0-.16,0-.33s0-.2,0-.29l0-.7c0-.05,0-.08.05-.08s0,0,.06.07a.6.6,0,0,0,.05.24.28.28,0,0,0,.19.09,5.27,5.27,0,0,0,.68,0c.41,0,.72,0,.94,0a.71.71,0,0,0,.41-.09.27.27,0,0,0,.08-.23c0-.07,0-.11,0-.11s.07,0,.07.13v.1c0,.28,0,.47,0,.58a3.34,3.34,0,0,0,0,.5.57.57,0,0,1,0,.12c0,.06,0,.08-.06.08s0,0-.05-.07a.38.38,0,0,0-.09-.25.57.57,0,0,0-.34-.08l-.83,0a6.77,6.77,0,0,0-.8,0,.46.46,0,0,0-.25.08.34.34,0,0,0-.05.22c0,.06,0,.09-.06.09s-.05,0-.05-.09Zm0-3.35a2,2,0,0,1,.15-.8,1.27,1.27,0,0,1,.46-.54,1.07,1.07,0,0,1,.64-.21,1.26,1.26,0,0,1,1,.47,1.72,1.72,0,0,1,.42,1.17,1.69,1.69,0,0,1-.35,1.08,1.1,1.1,0,0,1-.93.45,1.21,1.21,0,0,1-.95-.46,1.76,1.76,0,0,1-.4-1.16Zm1.31-.79a1.38,1.38,0,0,0-.88.24.73.73,0,0,0-.15,1l.15.15a1.79,1.79,0,0,0,1.74,0,.69.69,0,0,0,.31-.6.74.74,0,0,0-.27-.57A1.33,1.33,0,0,0,36.25,18.91ZM35,17q1.05-1.08,1.68-1.8h-.93a1.2,1.2,0,0,0-.38,0,.32.32,0,0,0-.19.15.84.84,0,0,0-.08.27c0,.06,0,.08-.06.08s0,0,0-.07a.37.37,0,0,1,0-.11c0-.09,0-.21,0-.38a3,3,0,0,0,0-.47v-.12s0-.08.06-.08.06,0,.06.11a.54.54,0,0,0,.11.27.41.41,0,0,0,.35.12h1.09l.82,0c.07,0,.11,0,.11.08a.08.08,0,0,1,0,0,3.88,3.88,0,0,1-.26.31c-.17.19-.43.47-.79.84s-.62.64-.77.79h1l.44,0a.3.3,0,0,0,.23-.18.61.61,0,0,0,.08-.26c0-.06,0-.08.05-.08s0,0,0,.08v.13a2.06,2.06,0,0,0,0,.35,3,3,0,0,0,0,.48c0,.05,0,.09,0,.14s0,.08-.07.08,0,0,0-.14a.35.35,0,0,0-.15-.32.91.91,0,0,0-.36-.06H35.7a.71.71,0,0,0-.4.16.58.58,0,0,0-.21.37c0,.05,0,.08-.06.08s-.07,0-.07-.09v-.25c0-.2,0-.38,0-.55ZM31.64,7.74,33.26,8V12.6c-.14-.87-.79-.71-1.35-.71H28.08c-.86,0-.86,0-1.21.82V9.82l.09,0c.19.8.19.8,1.05.8h4.16c.58,0,.66-.09.67-.68,0-1.26-.23-1.58-1.46-2a2.62,2.62,0,0,1-.49-.27ZM31.17,53l-4-1.35a.48.48,0,0,1-.41-.56c0-.45,0-.9,0-1.36a.78.78,0,0,1,.1-.36c.09.93.74.78,1.31.78h3.84c.85,0,.85,0,1.19-.74v2.7s-.1,0-.11,0c-.2-.68-.2-.68-.91-.68-1.54,0-3.07,0-4.62,0l5.66,2,0,.1-5.62,2v.06h4.85c.48,0,.53-.42.61-.8l.11,0V56.6c-.22-.72-.77-.71-1.35-.71-1.33,0-2.65,0-4,0-.78,0-.78,0-1,.71v-2.1Zm2.1-27V28.6c-.15-.87-.8-.7-1.36-.71H30.19v1.9c.82,0,1.65.05,2.47,0,.22,0,.41-.42.59-.62v2.62s-.08,0-.08,0C33,31,33,31,32.23,31H28.07c-.86,0-.86,0-1.2.85V29c.35.85.35.85,1.22.85h1.58V27.87a19.54,19.54,0,0,0-2.17,0c-.23,0-.43.4-.62.6V25.8c.34.83.34.83,1.2.83h4c.86,0,.86,0,1.17-.72Zm-5.93-3h2.44c.07-1.06-.8-1-1.4-1.26h3.3c-.69.29-1.59.2-1.51,1.28h2.29c.32,0,.45-.19.48-.54a2,2,0,0,0-1.6-2.25l.95.09,1,.13v4.54l-.07,0a.9.9,0,0,1-.08-.21.54.54,0,0,0-.62-.54c-1.63,0-3.26,0-4.9,0-.51,0-.58.37-.73.73V20.48h1.8c-1.33.25-1.55,1.18-1.33,2.39Zm5.91,17.64v2.91c-.31-.85-.32-.86-1.17-.86H27.37c-.25.9-.05,1.18,1.29,1.71h-1.8v-4.7h1.8a3.61,3.61,0,0,0-1.09.57c-.25.28-.25.71-.41,1.18H32c.92,0,.92,0,1.29-.81ZM30.94,13.89l2.32.22v4.78c-.33-.85-.33-.85-1.21-.85H28.12c-.88,0-.88,0-1.25.84V16S27,16,27,16c.19.8.19.8,1,.8h4.11c.66,0,.73-.06.73-.71,0-1.2-.25-1.56-1.4-1.9L30.91,14Zm1,19.3a2.6,2.6,0,0,1,.64.29,2.63,2.63,0,0,1,.05,3.81,3.76,3.76,0,0,1-5.29-.41A2.51,2.51,0,0,1,27,34.13c.19-.38.33-.73-.23-.93H29a11.53,11.53,0,0,0-1.05.51,1.5,1.5,0,0,0-.06,2.54,3.86,3.86,0,0,0,2.61.55,6.36,6.36,0,0,0,1.3-.25,1.59,1.59,0,0,0,.77-2.64c-.17-.21-.36-.41-.62-.72Zm-5,15.06V45.54c.35.75.35.75,1.22.75H32.2c.76,0,.8,0,1-.74v2.81c-.08-.13-.14-.18-.14-.22,0-.49-.29-.61-.69-.61-1.6,0-3.2,0-4.8,0-.53,0-.58.37-.75.73Z"/></g></svg>