<svg id="ee377d42-d152-4f5c-8866-c39e135ea78d" data-name="Calque 1" xmlns="http://www.w3.org/2000/svg" xmlns:xlink="http://www.w3.org/1999/xlink" viewBox="0 0 470.58 67.66"><defs><style>.b4a78229-df98-487e-80e3-db425bbd539b{stroke:#9def48;stroke-miterlimit:10;fill:url(#bc42302a-0a83-4de5-98ae-2d691f2c6c67);}.bc0e4823-d29d-41e8-9029-4b75aee83bdf{fill:#9def48;}</style><linearGradient id="bc42302a-0a83-4de5-98ae-2d691f2c6c67" x1="0.5" y1="33.83" x2="470.08" y2="33.83" gradientUnits="userSpaceOnUse"><stop offset="0" stop-color="#032c02"/><stop offset="1" stop-color="#207a09"/></linearGradient></defs><polygon class="b4a78229-df98-487e-80e3-db425bbd539b" points="461.77 6.24 158.35 6.04 150.44 0.5 108.7 0.5 102.57 6.04 0.5 6.04 0.5 59.84 8.02 67.16 42.83 67.16 50.94 59.84 470.08 59.84 470.08 16.13 461.77 6.24"/><path class="bc0e4823-d29d-41e8-9029-4b75aee83bdf" d="M52.29,31.19H78.07a17,17,0,0,0-2.14-6H56.7a18.14,18.14,0,0,0-1.42,3.14H51a16.6,16.6,0,0,1,3.57-7.09H78.05a17.67,17.67,0,0,1,4.1,11.91l-1.79,2H54.58a16.67,16.67,0,0,0,2.12,6H80.61v4h-26a17.62,17.62,0,0,1-4.1-11.9Z" transform="translate(0 0)"/><path class="bc0e4823-d29d-41e8-9029-4b75aee83bdf" d="M106.63,25.21V21.26h4.74a17.06,17.06,0,0,1,4,9.93h3.74v3.94h-3.74a17.09,17.09,0,0,1-4,9.94h-4.74v-4h2.62a17,17,0,0,0,2.14-6H87.27l-1.8-2a17.64,17.64,0,0,1,4.11-11.91h4.74v3.95H91.68a17.15,17.15,0,0,0-2.12,6h21.83a17,17,0,0,0-2.14-6Z" transform="translate(0 0)"/><path class="bc0e4823-d29d-41e8-9029-4b75aee83bdf" d="M150,45.07H126.55a17.66,17.66,0,0,1-4.1-11.9,17.63,17.63,0,0,1,4.1-11.91H150a17.68,17.68,0,0,1,4.1,11.91A17.71,17.71,0,0,1,150,45.07Zm-2.11-4a16.07,16.07,0,0,0,2.25-7.95,16,16,0,0,0-2.25-8H128.67a16,16,0,0,0-2.27,8,16,16,0,0,0,2.27,7.95Zm-11.59-5v-6h3.93v6Z" transform="translate(0 0)"/><path class="bc0e4823-d29d-41e8-9029-4b75aee83bdf" d="M190.94,35.13H165.16a17,17,0,0,0,2.14,6h2.63v4h-4.75a17.09,17.09,0,0,1-4-9.94h-3.73V31.19h3.73a17.06,17.06,0,0,1,4-9.93h23.46a17.68,17.68,0,0,1,4.1,11.91Zm-25.78-3.94h23.49a17,17,0,0,0-2.12-6H167.3A17,17,0,0,0,165.16,31.19Z" transform="translate(0 0)"/><path class="bc0e4823-d29d-41e8-9029-4b75aee83bdf" d="M222.8,41.7l-4,3.95V25.21H205.94V21.26h29.78v3.95H222.8Z" transform="translate(0 0)"/><path class="bc0e4823-d29d-41e8-9029-4b75aee83bdf" d="M260.31,35.13H243.87a17,17,0,0,0,2.14,6h19.56l2.27,4H243.89a17.09,17.09,0,0,1-4-9.94h-3.74V31.19h3.74a17.06,17.06,0,0,1,4-9.93h23.95l-2.27,3.95H246a17,17,0,0,0-2.14,6h16.44Z" transform="translate(0 0)"/><path class="bc0e4823-d29d-41e8-9029-4b75aee83bdf" d="M299.37,31.19l1.79,2a17.67,17.67,0,0,1-4.1,11.9H273.6A16.6,16.6,0,0,1,270,38h4.25a18.75,18.75,0,0,0,1.45,3.14H295a16.69,16.69,0,0,0,2.13-6H271.3l-1.8-2a17.72,17.72,0,0,1,4.1-11.91h23.46a16.6,16.6,0,0,1,3.57,7.09h-4.25A17.48,17.48,0,0,0,295,25.21H275.73a16.81,16.81,0,0,0-2.14,6Z" transform="translate(0 0)"/><path class="bc0e4823-d29d-41e8-9029-4b75aee83bdf" d="M320.52,41.7l-3.95,3.95V25.21H303.65V21.26h29.79v3.95H320.52Z" transform="translate(0 0)"/></svg>