<svg enable-background="new 0 0 535.779 376.05" viewBox="0 0 535.779 376.05" xmlns="http://www.w3.org/2000/svg" xmlns:xlink="http://www.w3.org/1999/xlink"><linearGradient id="a"><stop offset="0" stop-color="#dfdede"/><stop offset="1" stop-color="#292b29"/></linearGradient><linearGradient id="b" gradientUnits="userSpaceOnUse" x1="436.1246" x2="502.674" xlink:href="#a" y1="45.9245" y2="86.4302"/><linearGradient id="c"><stop offset="0" stop-color="#524f4f"/><stop offset="1" stop-color="#2e2d2d"/></linearGradient><linearGradient id="d" gradientUnits="userSpaceOnUse" x1="456.5164" x2="486.9943" xlink:href="#c" y1="20.528" y2="41.1212"/><linearGradient id="e"><stop offset="0" stop-color="#fff"/><stop offset="1" stop-color="#333"/></linearGradient><linearGradient id="f" gradientUnits="userSpaceOnUse" x1="463.9594" x2="465.0309" xlink:href="#e" y1="-2.7833" y2="338.4741"/><linearGradient id="g" gradientUnits="userSpaceOnUse" x1="463.311" x2="526.7501" xlink:href="#e" y1="5.9323" y2="4.8608"/><linearGradient id="h" gradientUnits="userSpaceOnUse" x1="459.0566" x2="527.8199" y1="-2.2514" y2="6.284"><stop offset="0" stop-color="#878787"/><stop offset="1" stop-color="#070308"/></linearGradient><linearGradient id="i"><stop offset="0" stop-color="#383838"/><stop offset="1" stop-color="#595959"/></linearGradient><linearGradient id="j" gradientUnits="userSpaceOnUse" x1="495.6654" x2="495.6654" xlink:href="#i" y1="349.5531" y2="344.1219"/><linearGradient id="k" gradientUnits="userSpaceOnUse" x1="-23.0108" x2="43.5383" xlink:href="#a" y1="46.6395" y2="87.1447"/><linearGradient id="l" gradientUnits="userSpaceOnUse" x1="-2.6201" x2="27.8582" xlink:href="#c" y1="21.2443" y2="41.8367"/><linearGradient id="m" gradientUnits="userSpaceOnUse" x1="4.8223" x2="5.8938" xlink:href="#e" y1="-2.0673" y2="339.1896"/><linearGradient id="n" gradientUnits="userSpaceOnUse" x1="4.1785" x2="67.6171" xlink:href="#e" y1="6.6482" y2="5.5767"/><linearGradient id="o" gradientUnits="userSpaceOnUse" x1="-.0757" x2="68.6877" y1="-1.5343" y2="7.0006"><stop offset="0" stop-color="#8f8f8f"/><stop offset="1" stop-color="#070308"/></linearGradient><linearGradient id="p" gradientUnits="userSpaceOnUse" x1="36.5307" x2="36.5307" xlink:href="#i" y1="350.2695" y2="344.8384"/><linearGradient id="q" gradientUnits="userSpaceOnUse" x1="267.1699" x2="267.1725" y1="327.3629" y2="303.7258"><stop offset="0" stop-color="#474747"/><stop offset="1" stop-color="#969696"/></linearGradient><linearGradient id="r" gradientUnits="userSpaceOnUse" x1="267.1691" x2="267.1691" y1="328.0609" y2="337.3727"><stop offset="0" stop-color="#383838"/><stop offset="1" stop-color="#818080"/></linearGradient><linearGradient id="s" gradientUnits="userSpaceOnUse" x1="55.1543" x2="479.1884" y1="345.9662" y2="345.9662"><stop offset="0" stop-color="#b6b5b5"/><stop offset=".48" stop-color="#626161"/><stop offset="1" stop-color="#a3a3a4"/></linearGradient><linearGradient id="t" gradientUnits="userSpaceOnUse" x1="267.1713" x2="267.1713" y1="354.5619" y2="365.0661"><stop offset="0" stop-color="#5e5c5b"/><stop offset="1" stop-color="#100f10"/></linearGradient><linearGradient id="u"><stop offset="0" stop-color="#fff"/><stop offset="1" stop-color="#afb0b0"/></linearGradient><linearGradient id="v" gradientUnits="userSpaceOnUse" x1="62.6735" x2="62.6735" xlink:href="#u" y1="327.345" y2="337.3706"/><linearGradient id="w" gradientUnits="userSpaceOnUse" x1="471.671" x2="471.671" xlink:href="#u" y1="327.345" y2="337.3706"/><linearGradient id="x" gradientUnits="userSpaceOnUse" x1="57.7424" x2="351.4183" y1="43.0339" y2="230.7002"><stop offset="0" stop-color="#383838"/><stop offset="1" stop-color="#292b29"/></linearGradient><linearGradient id="y" gradientUnits="userSpaceOnUse" x1="76.4931" x2="191.0985" xlink:href="#a" y1="30.175" y2="159.8232"/><linearGradient id="z" gradientUnits="userSpaceOnUse" x1="69.1488" x2="469.4399" y1="65.6868" y2="291.8628"><stop offset="0" stop-color="#070308"/><stop offset="1" stop-color="#384245"/></linearGradient><linearGradient id="A" gradientUnits="userSpaceOnUse" x1="70.5283" x2="469.4323" y1="67.0305" y2="290.4532"><stop offset="0" stop-color="#747575"/><stop offset="1" stop-color="#171b1e"/></linearGradient><linearGradient id="B" gradientUnits="userSpaceOnUse" x1="267.1711" x2="267.1711" y1="302.2679" y2="305.8554"><stop offset="0" stop-color="#404040"/><stop offset="1" stop-color="#8c8c8c"/></linearGradient><linearGradient id="C" gradientUnits="userSpaceOnUse" x1="50.4884" x2="51.2051" xlink:href="#e" y1="45.1045" y2="287.9241"/><linearGradient id="D"><stop offset="0" stop-color="#fff"/><stop offset="1" stop-color="#292b29"/></linearGradient><linearGradient id="E" gradientUnits="userSpaceOnUse" x1="44.4323" x2="464.1738" xlink:href="#D" y1="50.5088" y2="49.7922"/><linearGradient id="F" gradientUnits="userSpaceOnUse" x1="267.8873" x2="267.8873" y1="318.0352" y2="327.347"><stop offset="0" stop-color="#7e7d7d"/><stop offset="1" stop-color="#3d3d3d"/></linearGradient><linearGradient id="G" gradientUnits="userSpaceOnUse" x1="57.6497" x2="58.3663" xlink:href="#e" y1="52.2612" y2="295.0808"/><linearGradient id="H" gradientUnits="userSpaceOnUse" x1="52.3096" x2="472.0511" xlink:href="#D" y1="58.388" y2="57.6714"/><linearGradient id="I" gradientUnits="userSpaceOnUse" x1="46.0118" x2="186.3557" y1="107.8903" y2="192.3568"><stop offset="0" stop-color="#adadad"/><stop offset="1" stop-color="#575959"/></linearGradient><g clip-rule="evenodd" fill-rule="evenodd"><path d="m453.403 352.055c0 3.755 3.415 6.803 7.624 6.803h67.132c4.205 0 7.62-3.048 7.62-6.803 0-3.755-3.415-6.803-7.62-6.803h-67.132c-4.209 0-7.624 3.048-7.624 6.803z" fill="#f0f0f0"/><path d="m455.408 351.13c0 2.912 3.105 5.279 6.926 5.279h64.918c3.821 0 6.926-2.367 6.926-5.279 0-2.912-3.105-5.275-6.926-5.275h-64.918c-3.822 0-6.926 2.362-6.926 5.275z" fill="#cac9c9"/><path d="m456.932 350.422v.004c0 2.271 2.869 4.114 6.397 4.114h63.232c3.528 0 6.397-1.843 6.397-4.114v-.004c0-2.271-2.869-4.113-6.397-4.113h-63.232c-3.528 0-6.397 1.842-6.397 4.113z" fill="#a2a1a1"/><path d="m458.133 349.868v.004c0 1.764 2.681 3.196 5.982 3.196h61.9c3.301 0 5.982-1.432 5.982-3.196v-.004c0-1.764-2.681-3.196-5.982-3.196h-61.9c-3.301-.001-5.982 1.432-5.982 3.196z" fill="#797878"/><path d="m459.102 349.422c0 1.358 2.528 2.463 5.642 2.463h60.835c3.113 0 5.642-1.105 5.642-2.463 0-1.358-2.528-2.463-5.642-2.463h-60.835c-3.114.001-5.642 1.105-5.642 2.463z" fill="#4f4f4f"/><path d="m459.897 349.051v.004c0 1.022 2.406 1.852 5.371 1.852h59.949c2.961 0 5.367-.83 5.367-1.852v-.004c0-1.022-2.406-1.852-5.367-1.852h-59.949c-2.965.001-5.371.831-5.371 1.852z" fill="#262525"/><path d="m460.569 348.741v.004c0 .738 2.301 1.341 5.135 1.341h59.211c2.834 0 5.135-.603 5.135-1.341v-.004c0-.738-2.301-1.341-5.135-1.341h-59.211c-2.833 0-5.135.603-5.135 1.341z"/><path d="m461.285 0h70.913v344.54h-70.913z"/><path d="m460.565.009v164.742l70.909-164.742z" fill="url(#b)"/><path d="m463.434 4.301h64.464v342.384h-64.464z" fill="#2e2e2e"/><path d="m463.757 4.484v73.595l46.949-73.595z" fill="url(#d)"/><path d="m496.379 28.658c10.676 0 19.344 8.663 19.344 19.34s-8.668 19.34-19.344 19.34c-10.672 0-19.339-8.663-19.339-19.34s8.668-19.34 19.339-19.34z" fill="#333"/><path d="m496.379 38.683c5.144 0 9.314 4.175 9.314 9.314 0 5.14-4.17 9.31-9.314 9.31-5.139 0-9.309-4.17-9.309-9.31 0-5.139 4.17-9.314 9.309-9.314z" fill="#2e2e2e"/><path d="m496.379 85.961c10.676 0 19.344 8.663 19.344 19.34 0 10.676-8.668 19.34-19.344 19.34-10.672 0-19.339-8.664-19.339-19.34 0-10.677 8.668-19.34 19.339-19.34z" fill="#333"/><path d="m496.379 95.986c5.144 0 9.314 4.174 9.314 9.314 0 5.139-4.17 9.309-9.314 9.309-5.139 0-9.309-4.17-9.309-9.309s4.17-9.314 9.309-9.314z" fill="#2e2e2e"/><path d="m496.379 145.411c10.676 0 19.344 8.663 19.344 19.34 0 10.676-8.668 19.34-19.344 19.34-10.672 0-19.339-8.663-19.339-19.34 0-10.676 8.668-19.34 19.339-19.34z" fill="#333"/><path d="m496.379 155.437c5.144 0 9.314 4.175 9.314 9.314 0 5.14-4.17 9.31-9.314 9.31-5.139 0-9.309-4.17-9.309-9.31 0-5.139 4.17-9.314 9.309-9.314z" fill="#2e2e2e"/><path d="m496.379 202.714c10.676 0 19.344 8.663 19.344 19.34 0 10.676-8.668 19.34-19.344 19.34-10.672 0-19.339-8.663-19.339-19.34s8.668-19.34 19.339-19.34z" fill="#333"/><path d="m496.379 212.74c5.144 0 9.314 4.174 9.314 9.314 0 5.139-4.17 9.309-9.314 9.309-5.139 0-9.309-4.17-9.309-9.309 0-5.14 4.17-9.314 9.309-9.314z" fill="#2e2e2e"/><path d="m497.1 263.597c10.672 0 19.34 8.663 19.34 19.34s-8.668 19.34-19.34 19.34c-10.676 0-19.344-8.663-19.344-19.34s8.668-19.34 19.344-19.34z" fill="#333"/><path d="m497.1 273.627c5.139 0 9.31 4.17 9.31 9.31s-4.17 9.314-9.31 9.314c-5.144 0-9.314-4.174-9.314-9.314 0-5.139 4.17-9.31 9.314-9.31z" fill="#2e2e2e"/><path d="m463.434 4.306h2.148v335.222h-2.148z" fill="url(#f)"/><path d="m464.866 4.306h62.315v2.148h-62.315z" fill="url(#g)"/><path d="m460.565.009 2.869 5.013h64.464l3.58-5.013z" fill="url(#h)"/><path d="m459.132 344.536 4.302 5.017h64.464l4.3-5.017z" fill="url(#j)"/><path d="m.712 352.771v.005c0 3.755 3.415 6.803 7.624 6.803h67.132c4.205 0 7.62-3.048 7.62-6.803v-.005c0-3.755-3.415-6.803-7.62-6.803h-67.132c-4.209 0-7.624 3.048-7.624 6.803z" fill="#f0f0f0"/><path d="m2.716 351.846c0 2.913 3.105 5.28 6.925 5.28h64.918c3.821 0 6.925-2.367 6.925-5.28 0-2.912-3.105-5.274-6.925-5.274h-64.918c-3.82-.001-6.925 2.361-6.925 5.274z" fill="#cac9c9"/><path d="m4.24 351.143c0 2.271 2.869 4.113 6.397 4.113h63.232c3.528 0 6.397-1.843 6.397-4.113 0-2.271-2.869-4.118-6.397-4.118h-63.232c-3.528 0-6.397 1.847-6.397 4.118z" fill="#a2a1a1"/><path d="m5.441 350.588c0 1.764 2.681 3.201 5.982 3.201h61.9c3.301 0 5.982-1.437 5.982-3.201 0-1.768-2.681-3.201-5.982-3.201h-61.9c-3.301 0-5.982 1.433-5.982 3.201z" fill="#797878"/><path d="m6.41 350.139c0 1.358 2.528 2.463 5.642 2.463h60.835c3.113 0 5.642-1.105 5.642-2.463 0-1.358-2.528-2.463-5.642-2.463h-60.835c-3.114 0-5.642 1.104-5.642 2.463z" fill="#4f4f4f"/><path d="m7.209 349.767v.004c0 1.022 2.402 1.852 5.367 1.852h59.949c2.965 0 5.367-.829 5.367-1.852v-.004c0-1.022-2.402-1.852-5.367-1.852h-59.949c-2.965.001-5.367.83-5.367 1.852z" fill="#262525"/><path d="m7.877 349.461c0 .742 2.301 1.341 5.135 1.341h59.211c2.834 0 5.135-.598 5.135-1.341 0-.742-2.301-1.345-5.135-1.345h-59.211c-2.833.001-5.135.603-5.135 1.345z"/><path d="m52.285 369.242v.004c0 3.755 3.415 6.803 7.62 6.803h415.24c4.205 0 7.62-3.048 7.62-6.803v-.004c0-3.756-3.415-6.803-7.62-6.803h-415.24c-4.205 0-7.62 3.048-7.62 6.803z" fill="#fff"/><path d="m54.818 368.251c0 3.205 3.332 5.807 7.441 5.807l410.659.005c4.109 0 7.445-2.607 7.445-5.812 0-3.205-3.336-5.812-7.445-5.812h-410.659c-4.109 0-7.441 2.607-7.441 5.812z" fill="#eeedec"/><path d="m56.639 367.535c0 2.812 3.279 5.096 7.314 5.096h407.362c4.039 0 7.314-2.284 7.314-5.096 0-2.812-3.279-5.092-7.314-5.092l-407.362-.004c-4.035 0-7.314 2.284-7.314 5.096z" fill="#dfdede"/><path d="m58.014 366.993v.004c0 2.511 3.236 4.55 7.218 4.55l404.873.005c3.982 0 7.218-2.044 7.218-4.555 0-2.515-3.236-4.554-7.218-4.554l-404.873-.004c-3.982 0-7.218 2.044-7.218 4.554z" fill="#cfcfce"/><path d="m59.088 366.574c0 2.279 3.201 4.131 7.144 4.131h402.93c3.939 0 7.14-1.852 7.14-4.131 0-2.279-3.201-4.131-7.144-4.131l-402.926-.004c-3.943 0-7.144 1.856-7.144 4.135z" fill="#bdbdbc"/><path d="m59.984 366.221c0 2.087 3.175 3.781 7.082 3.781h401.306c3.908 0 7.078-1.694 7.078-3.777v-.004c0-2.083-3.17-3.777-7.078-3.777h-401.31c-3.904-.001-7.078 1.689-7.078 3.777z" fill="#adadad"/><path d="m60.8 365.902c0 1.908 3.148 3.458 7.021 3.458l399.835.004c3.873 0 7.022-1.55 7.022-3.463 0-1.908-3.148-3.458-7.022-3.458h-399.834c-3.878 0-7.022 1.55-7.022 3.459z" fill="#9f9f9f"/><path d="m61.547 365.609c0 1.747 3.122 3.166 6.969 3.166l398.485.004c3.842 0 6.969-1.419 6.969-3.17 0-1.747-3.127-3.166-6.973-3.166h-398.481c-3.847 0-6.969 1.42-6.969 3.166z" fill="#8f8f8f"/><path d="m62.232 365.338c0 1.602 3.1 2.899 6.921 2.899h397.245c3.816 0 6.921-1.297 6.921-2.895 0-1.602-3.105-2.899-6.926-2.899h-397.239c-3.821 0-6.922 1.297-6.922 2.895z" fill="#818080"/><path d="m62.861 365.094c0 1.463 3.083 2.65 6.877 2.65h396.102c3.799 0 6.877-1.188 6.877-2.65 0-1.463-3.083-2.651-6.877-2.651h-396.101c-3.795 0-6.878 1.188-6.878 2.651z" fill="#6e6e6e"/><path d="m63.446 364.863c0 1.336 3.061 2.423 6.834 2.423h395.049c3.773 0 6.833-1.083 6.833-2.419 0-1.336-3.061-2.423-6.838-2.423h-395.044c-3.773-.001-6.834 1.082-6.834 2.419z" fill="#5f5e5e"/><path d="m63.988 364.648v.004c0 1.218 3.048 2.205 6.799 2.205l394.066.004c3.751 0 6.798-.991 6.798-2.21 0-1.218-3.048-2.209-6.803-2.209h-394.066c-3.751.001-6.794.988-6.794 2.206z" fill="#4f4f4f"/><path d="m64.49 364.452c0 1.109 3.03 2.013 6.764 2.013h393.158c3.729 0 6.76-.899 6.76-2.008 0-1.109-3.031-2.013-6.764-2.013h-393.159c-3.729-.001-6.759.899-6.759 2.008z" fill="#404040"/><path d="m64.957 364.269c0 1.009 3.017 1.826 6.733 1.826l392.307.004c3.716 0 6.728-.821 6.728-1.825 0-1.009-3.017-1.83-6.728-1.83h-392.311c-3.712-.001-6.729.816-6.729 1.825z" fill="#2e2d2d"/><path d="m65.398 364.098c0 .913 3 1.655 6.698 1.655h391.516c3.694 0 6.698-.742 6.698-1.655 0-.913-3.005-1.655-6.703-1.655h-391.51c-3.699 0-6.699.743-6.699 1.655z" fill="#1f1e1e"/><path d="m65.809 363.937c0 .825 2.987 1.493 6.668 1.493h390.773c3.681 0 6.668-.668 6.668-1.493 0-.821-2.987-1.493-6.668-1.493h-390.774c-3.681-.001-6.667.668-6.667 1.493z" fill="#100f10"/><path d="m66.193 363.784c0 .742 2.978 1.345 6.642 1.345h390.08c3.663 0 6.642-.603 6.642-1.341 0-.742-2.978-1.345-6.646-1.345h-390.077c-3.667 0-6.641.603-6.641 1.341z"/><path d="m1.432.716h71.629v344.54h-71.629z"/><path d="m1.432.725v164.742l70.909-164.742z" fill="url(#k)"/><path d="m4.297 5.017h64.464v342.383h-64.464z" fill="#2e2e2e"/><path d="m4.62 5.201v73.594l46.954-73.594z" fill="url(#l)"/><path d="m37.247 29.374c10.672 0 19.34 8.664 19.34 19.34s-8.667 19.34-19.34 19.34c-10.676 0-19.344-8.663-19.344-19.34s8.668-19.34 19.344-19.34z" fill="#333"/><path d="m37.247 39.4c5.139 0 9.31 4.174 9.31 9.314s-4.17 9.31-9.31 9.31c-5.144 0-9.314-4.17-9.314-9.31s4.17-9.314 9.314-9.314z" fill="#2e2e2e"/><path d="m37.247 86.677c10.672 0 19.34 8.663 19.34 19.34s-8.667 19.34-19.34 19.34c-10.676 0-19.344-8.663-19.344-19.34s8.668-19.34 19.344-19.34z" fill="#333"/><path d="m37.247 96.702c5.139 0 9.31 4.174 9.31 9.314 0 5.139-4.17 9.31-9.31 9.31-5.144 0-9.314-4.17-9.314-9.31s4.17-9.314 9.314-9.314z" fill="#2e2e2e"/><path d="m37.247 146.128c10.672 0 19.34 8.663 19.34 19.34 0 10.676-8.667 19.34-19.34 19.34-10.676 0-19.344-8.664-19.344-19.34 0-10.677 8.668-19.34 19.344-19.34z" fill="#333"/><path d="m37.247 156.153c5.139 0 9.31 4.174 9.31 9.314 0 5.139-4.17 9.309-9.31 9.309-5.144 0-9.314-4.17-9.314-9.309s4.17-9.314 9.314-9.314z" fill="#2e2e2e"/><path d="m37.247 203.43c10.672 0 19.34 8.663 19.34 19.34 0 10.676-8.667 19.34-19.34 19.34-10.676 0-19.344-8.663-19.344-19.34s8.668-19.34 19.344-19.34z" fill="#333"/><path d="m37.247 213.46c5.139 0 9.31 4.17 9.31 9.31s-4.17 9.31-9.31 9.31c-5.144 0-9.314-4.17-9.314-9.31s4.17-9.31 9.314-9.31z" fill="#2e2e2e"/><path d="m37.963 264.313c10.676 0 19.34 8.664 19.34 19.34s-8.663 19.34-19.34 19.34c-10.676 0-19.344-8.663-19.344-19.34 0-10.676 8.668-19.34 19.344-19.34z" fill="#333"/><path d="m37.963 274.344c5.14 0 9.31 4.17 9.31 9.309 0 5.14-4.17 9.314-9.31 9.314-5.139 0-9.314-4.174-9.314-9.314s4.175-9.309 9.314-9.309z" fill="#2e2e2e"/><path d="m4.297 5.022h2.148v335.222h-2.148z" fill="url(#m)"/><path d="m5.729 5.022h62.32v2.148h-62.32z" fill="url(#n)"/><path d="m1.432.725 2.865 5.013h64.464l3.58-5.013z" fill="url(#o)"/><path d="m0 345.252 4.297 5.018h64.464l4.3-5.018z" fill="url(#p)"/><path d="m68.044 302.988h398.254v24.353h-398.254z" fill="url(#q)"/><path d="m55.15 337.371h424.038l-12.894-10.026h-398.25z" fill="url(#r)"/><path d="m55.154 337.371h424.034v17.191h-424.034z" fill="url(#s)"/><path d="m55.15 354.562 9.266 8.597h406.524l8.253-8.597z" fill="url(#t)"/><path d="m55.87 337.371 12.174-10.026 1.433 10.026z" fill="url(#v)"/><path d="m478.476 337.371-12.178-10.026-1.432 10.026z" fill="url(#w)"/><path d="m48.233 47.277h433.824v256.249h-433.824z" fill="#808080"/><path d="m50.141 49.43h429.767v252.126h-429.767z" fill="url(#x)"/><path d="m50.137 49.43v162.415l230.324-162.415z" fill="url(#y)"/><path d="m58.735 58.735h413.297v235.66h-413.297z" fill="url(#z)"/><path d="m60.167 60.171h411.86v232.791h-411.86z" fill="url(#A)"/><path d="m55.154 337.371h422.602v1.437h-422.602z" fill="#5e5e5e"/><path d="m56.586 336.659h421.89v.712h-421.89z" fill="#949191"/><path d="m55.154 338.803h422.602v1.432h-422.602z" fill="#b0b0b0"/><path d="m55.15 337.375h1.437v17.191h-1.437z" fill="#404040"/><path d="m477.76 337.375h1.432v17.191h-1.432z" fill="#4f4f4f"/><path d="m68.044 303.704h1.437v23.641h-1.437z" fill="#404040"/><path d="m464.866 303.709h1.432v23.636h-1.432z" fill="#404040"/><path d="m472.027 58.735h1.437v234.944h-1.437z" fill="#616161"/><path d="m58.735 291.53h414.725v1.432h-414.725z" fill="#696969"/><path d="m69.477 326.629h395.389v.716h-395.389z" fill="#575757"/><path d="m69.477 303.704h395.389v2.153h-395.389z" fill="url(#B)"/><path d="m56.586 338.807h1.432v15.755h-1.432z" fill="#bfbfbf"/><path d="m68.044 327.345h398.254v1.432h-398.254z" fill="#333"/><path d="m50.137 50.146h1.437v238.524h-1.437z" fill="url(#C)"/><path d="m50.853 49.425h414.729v1.437h-414.729z" fill="url(#E)"/><path d="m56.582 353.845h421.174v1.432h-421.174z" fill="#8c8c8c"/><path d="m68.761 327.345h398.253l-12.894-7.161h-372.465z" fill="url(#F)"/><path d="m57.298 57.303h1.436v238.524h-1.436z" fill="url(#G)"/><path d="m58.735 57.307h414.725v1.432h-414.725z" fill="url(#H)"/><path d="m60.167 60.171v232.791h51.277l148.629-232.791z" fill="url(#I)"/></g></svg>