<svg enable-background="new 0 0 812.23 376.05" viewBox="0 0 812.23 376.05" xmlns="http://www.w3.org/2000/svg" xmlns:xlink="http://www.w3.org/1999/xlink"><linearGradient id="a"><stop offset="0" stop-color="#dfdede"/><stop offset="1" stop-color="#292b29"/></linearGradient><linearGradient id="b" gradientUnits="userSpaceOnUse" x1="436.1246" x2="502.674" xlink:href="#a" y1="45.9245" y2="86.4302"/><linearGradient id="c"><stop offset="0" stop-color="#524f4f"/><stop offset="1" stop-color="#2e2d2d"/></linearGradient><linearGradient id="d" gradientUnits="userSpaceOnUse" x1="456.5164" x2="486.9943" xlink:href="#c" y1="20.528" y2="41.1212"/><linearGradient id="e"><stop offset="0" stop-color="#fff"/><stop offset="1" stop-color="#333"/></linearGradient><linearGradient id="f" gradientUnits="userSpaceOnUse" x1="463.9594" x2="465.0309" xlink:href="#e" y1="-2.7833" y2="338.4741"/><linearGradient id="g" gradientUnits="userSpaceOnUse" x1="463.311" x2="526.7501" xlink:href="#e" y1="5.9323" y2="4.8608"/><linearGradient id="h" gradientUnits="userSpaceOnUse" x1="459.0566" x2="527.8199" y1="-2.2514" y2="6.284"><stop offset="0" stop-color="#878787"/><stop offset="1" stop-color="#070308"/></linearGradient><linearGradient id="i"><stop offset="0" stop-color="#383838"/><stop offset="1" stop-color="#595959"/></linearGradient><linearGradient id="j" gradientUnits="userSpaceOnUse" x1="495.6654" x2="495.6654" xlink:href="#i" y1="349.5531" y2="344.1219"/><linearGradient id="k" gradientUnits="userSpaceOnUse" x1="-23.0108" x2="43.5383" xlink:href="#a" y1="46.6395" y2="87.1447"/><linearGradient id="l" gradientUnits="userSpaceOnUse" x1="-2.6201" x2="27.8582" xlink:href="#c" y1="21.2443" y2="41.8367"/><linearGradient id="m" gradientUnits="userSpaceOnUse" x1="4.8223" x2="5.8938" xlink:href="#e" y1="-2.0673" y2="339.1896"/><linearGradient id="n" gradientUnits="userSpaceOnUse" x1="4.1785" x2="67.6171" xlink:href="#e" y1="6.6482" y2="5.5767"/><linearGradient id="o" gradientUnits="userSpaceOnUse" x1="-.0757" x2="68.6877" y1="-1.5343" y2="7.0006"><stop offset="0" stop-color="#8f8f8f"/><stop offset="1" stop-color="#070308"/></linearGradient><linearGradient id="p" gradientUnits="userSpaceOnUse" x1="36.5307" x2="36.5307" xlink:href="#i" y1="350.2695" y2="344.8384"/><linearGradient id="q" gradientUnits="userSpaceOnUse" x1="267.1699" x2="267.1725" y1="327.3629" y2="303.7258"><stop offset="0" stop-color="#474747"/><stop offset="1" stop-color="#969696"/></linearGradient><linearGradient id="r" gradientUnits="userSpaceOnUse" x1="267.1691" x2="267.1691" y1="328.0609" y2="337.3727"><stop offset="0" stop-color="#383838"/><stop offset="1" stop-color="#818080"/></linearGradient><linearGradient id="s" gradientUnits="userSpaceOnUse" x1="55.1543" x2="479.1884" y1="345.9662" y2="345.9662"><stop offset="0" stop-color="#b6b5b5"/><stop offset=".48" stop-color="#626161"/><stop offset="1" stop-color="#a3a3a4"/></linearGradient><linearGradient id="t" gradientUnits="userSpaceOnUse" x1="267.1713" x2="267.1713" y1="354.5619" y2="365.0661"><stop offset="0" stop-color="#5e5c5b"/><stop offset="1" stop-color="#100f10"/></linearGradient><linearGradient id="u"><stop offset="0" stop-color="#fff"/><stop offset="1" stop-color="#afb0b0"/></linearGradient><linearGradient id="v" gradientUnits="userSpaceOnUse" x1="62.6735" x2="62.6735" xlink:href="#u" y1="327.345" y2="337.3706"/><linearGradient id="w" gradientUnits="userSpaceOnUse" x1="471.671" x2="471.671" xlink:href="#u" y1="327.345" y2="337.3706"/><linearGradient id="x" gradientUnits="userSpaceOnUse" x1="57.7424" x2="351.4183" y1="43.0339" y2="230.7002"><stop offset="0" stop-color="#383838"/><stop offset="1" stop-color="#292b29"/></linearGradient><linearGradient id="y" gradientUnits="userSpaceOnUse" x1="76.4931" x2="191.0985" xlink:href="#a" y1="30.175" y2="159.8232"/><linearGradient id="z" gradientUnits="userSpaceOnUse" x1="69.1488" x2="469.4399" y1="65.6868" y2="291.8628"><stop offset="0" stop-color="#070308"/><stop offset="1" stop-color="#384245"/></linearGradient><linearGradient id="A" gradientUnits="userSpaceOnUse" x1="70.5283" x2="469.4323" y1="67.0305" y2="290.4532"><stop offset="0" stop-color="#747575"/><stop offset="1" stop-color="#171b1e"/></linearGradient><linearGradient id="B" gradientUnits="userSpaceOnUse" x1="267.1711" x2="267.1711" y1="302.2679" y2="305.8554"><stop offset="0" stop-color="#404040"/><stop offset="1" stop-color="#8c8c8c"/></linearGradient><linearGradient id="C" gradientUnits="userSpaceOnUse" x1="50.4884" x2="51.2051" xlink:href="#e" y1="45.1045" y2="287.9241"/><linearGradient id="D"><stop offset="0" stop-color="#fff"/><stop offset="1" stop-color="#292b29"/></linearGradient><linearGradient id="E" gradientUnits="userSpaceOnUse" x1="44.4323" x2="464.1738" xlink:href="#D" y1="50.5088" y2="49.7922"/><linearGradient id="F" gradientUnits="userSpaceOnUse" x1="267.8873" x2="267.8873" y1="318.0352" y2="327.347"><stop offset="0" stop-color="#7e7d7d"/><stop offset="1" stop-color="#3d3d3d"/></linearGradient><linearGradient id="G" gradientUnits="userSpaceOnUse" x1="57.6497" x2="58.3663" xlink:href="#e" y1="52.2612" y2="295.0808"/><linearGradient id="H" gradientUnits="userSpaceOnUse" x1="52.3096" x2="472.0511" xlink:href="#D" y1="58.388" y2="57.6714"/><linearGradient id="I" gradientUnits="userSpaceOnUse" x1="46.0118" x2="186.3557" y1="107.8903" y2="192.3568"><stop offset="0" stop-color="#adadad"/><stop offset="1" stop-color="#575959"/></linearGradient><linearGradient id="J"><stop offset=".55" stop-color="#070308"/><stop offset="1" stop-color="#070308" stop-opacity="0"/></linearGradient><radialGradient id="K" cx="1406.1641" cy="325.5735" gradientTransform="matrix(.707 .707 -.707 .707 -76.617 -972.3382)" gradientUnits="userSpaceOnUse" r="64.025" xlink:href="#J"/><radialGradient id="L" cx="1406.1632" cy="835.1195" gradientTransform="matrix(.707 .707 .707 -.707 -1008.4307 -40.5234)" gradientUnits="userSpaceOnUse" r="64.0263" xlink:href="#J"/><linearGradient id="M" gradientUnits="userSpaceOnUse" x1="616.5168" x2="647.8623" y1="323.8615" y2="292.5159"><stop offset="0" stop-color="#fff" stop-opacity="0"/><stop offset=".429" stop-color="#fff" stop-opacity=".214"/><stop offset=".5" stop-color="#fff" stop-opacity=".25"/><stop offset=".572" stop-color="#fff" stop-opacity=".214"/><stop offset="1" stop-color="#fff" stop-opacity="0"/></linearGradient><radialGradient id="N" cx="632.1833" cy="425.5707" gradientTransform="matrix(1 0 0 -1 0 733.7662)" gradientUnits="userSpaceOnUse" r="24.6519"><stop offset="0" stop-color="#c23435"/><stop offset="1" stop-color="#b32215"/></radialGradient><radialGradient id="O" cx="1454.8597" cy="277.1006" gradientTransform="matrix(.707 .707 -.707 .707 -76.617 -972.3382)" gradientUnits="userSpaceOnUse" r="64.0243" xlink:href="#J"/><radialGradient id="P" cx="1454.8601" cy="883.5925" gradientTransform="matrix(.707 .707 .707 -.707 -1008.4307 -40.5234)" gradientUnits="userSpaceOnUse" r="64.0243" xlink:href="#J"/><linearGradient id="Q" gradientUnits="userSpaceOnUse" x1="685.1999" x2="716.577" y1="324.044" y2="292.6663"><stop offset="0" stop-color="#221e1f" stop-opacity="0"/><stop offset=".5" stop-color="#fff" stop-opacity=".25"/><stop offset="1" stop-color="#221e1f" stop-opacity="0"/></linearGradient><radialGradient id="R" cx="700.8896" cy="425.4129" gradientTransform="matrix(1 0 0 -1 0 733.7662)" gradientUnits="userSpaceOnUse" r="24.6519"><stop offset="0" stop-color="#309dcd"/><stop offset="1" stop-color="#186aac"/></radialGradient><linearGradient id="S"><stop offset="0" stop-color="#87888c"/><stop offset=".0788" stop-color="#969eaf"/><stop offset=".0955" stop-color="#828793"/><stop offset=".1256" stop-color="#656970"/><stop offset=".1588" stop-color="#515457"/><stop offset=".1958" stop-color="#434545"/><stop offset=".2386" stop-color="#3a3b3a"/><stop offset=".2927" stop-color="#343634"/><stop offset=".3941" stop-color="#323433"/><stop offset=".5961" stop-color="#353635"/><stop offset=".6725" stop-color="#323232"/><stop offset=".7881" stop-color="#2c292a"/><stop offset=".8916" stop-color="#231c20"/><stop offset=".9803" stop-color="#2f2c2f"/></linearGradient><linearGradient id="T" gradientTransform="matrix(0 -1 1 0 46.7164 242.43)" gradientUnits="userSpaceOnUse" x1="-75.0298" x2="-75.0298" xlink:href="#S" y1="748.4536" y2="765.4582"/><linearGradient id="U" gradientTransform="matrix(0 -1 1 0 46.7164 242.43)" gradientUnits="userSpaceOnUse" x1="-92.2868" x2="-92.2868" y1="750.992" y2="762.9194"><stop offset="0" stop-color="#b2b3b0"/><stop offset=".0788" stop-color="#fefdee"/><stop offset=".0811" stop-color="#fdfded"/><stop offset=".1301" stop-color="#f0ece1"/><stop offset=".187" stop-color="#e5dfd7"/><stop offset=".2589" stop-color="#dfd8d2"/><stop offset=".3941" stop-color="#ddd5d0"/><stop offset=".5961" stop-color="#cac3bf"/><stop offset=".8404" stop-color="#d0c9c6"/><stop offset=".8916" stop-color="#d2cbc8"/><stop offset=".9803" stop-color="#7a7575"/></linearGradient><linearGradient id="V" gradientTransform="matrix(0 -1 1 0 46.7164 242.43)" gradientUnits="userSpaceOnUse" x1="-115.5356" x2="-115.5356" xlink:href="#S" y1="748.4598" y2="765.5134"/><g clip-rule="evenodd" fill-rule="evenodd"><path d="m453.403 352.055c0 3.755 3.415 6.803 7.624 6.803h67.132c4.205 0 7.62-3.048 7.62-6.803 0-3.755-3.415-6.803-7.62-6.803h-67.132c-4.209 0-7.624 3.048-7.624 6.803z" fill="#f0f0f0"/><path d="m455.408 351.13c0 2.912 3.105 5.279 6.926 5.279h64.918c3.821 0 6.926-2.367 6.926-5.279 0-2.912-3.105-5.275-6.926-5.275h-64.918c-3.822 0-6.926 2.362-6.926 5.275z" fill="#cac9c9"/><path d="m456.932 350.422v.004c0 2.271 2.869 4.114 6.397 4.114h63.232c3.528 0 6.397-1.843 6.397-4.114v-.004c0-2.271-2.869-4.113-6.397-4.113h-63.232c-3.528 0-6.397 1.842-6.397 4.113z" fill="#a2a1a1"/><path d="m458.133 349.868v.004c0 1.764 2.681 3.196 5.982 3.196h61.9c3.301 0 5.982-1.432 5.982-3.196v-.004c0-1.764-2.681-3.196-5.982-3.196h-61.9c-3.301-.001-5.982 1.432-5.982 3.196z" fill="#797878"/><path d="m459.102 349.422c0 1.358 2.528 2.463 5.642 2.463h60.835c3.113 0 5.642-1.105 5.642-2.463 0-1.358-2.528-2.463-5.642-2.463h-60.835c-3.114.001-5.642 1.105-5.642 2.463z" fill="#4f4f4f"/><path d="m459.897 349.051v.004c0 1.022 2.406 1.852 5.371 1.852h59.949c2.961 0 5.367-.83 5.367-1.852v-.004c0-1.022-2.406-1.852-5.367-1.852h-59.949c-2.965.001-5.371.831-5.371 1.852z" fill="#262525"/><path d="m460.569 348.741v.004c0 .738 2.301 1.341 5.135 1.341h59.211c2.834 0 5.135-.603 5.135-1.341v-.004c0-.738-2.301-1.341-5.135-1.341h-59.211c-2.833 0-5.135.603-5.135 1.341z"/><path d="m461.285 0h70.913v344.54h-70.913z"/><path d="m460.565.009v164.742l70.909-164.742z" fill="url(#b)"/><path d="m463.434 4.301h64.464v342.384h-64.464z" fill="#2e2e2e"/><path d="m463.757 4.484v73.595l46.949-73.595z" fill="url(#d)"/><path d="m496.379 28.658c10.676 0 19.344 8.663 19.344 19.34s-8.668 19.34-19.344 19.34c-10.672 0-19.339-8.663-19.339-19.34s8.668-19.34 19.339-19.34z" fill="#333"/><path d="m496.379 38.683c5.144 0 9.314 4.175 9.314 9.314 0 5.14-4.17 9.31-9.314 9.31-5.139 0-9.309-4.17-9.309-9.31 0-5.139 4.17-9.314 9.309-9.314z" fill="#2e2e2e"/><path d="m496.379 85.961c10.676 0 19.344 8.663 19.344 19.34 0 10.676-8.668 19.34-19.344 19.34-10.672 0-19.339-8.664-19.339-19.34 0-10.677 8.668-19.34 19.339-19.34z" fill="#333"/><path d="m496.379 95.986c5.144 0 9.314 4.174 9.314 9.314 0 5.139-4.17 9.309-9.314 9.309-5.139 0-9.309-4.17-9.309-9.309s4.17-9.314 9.309-9.314z" fill="#2e2e2e"/><path d="m496.379 145.411c10.676 0 19.344 8.663 19.344 19.34 0 10.676-8.668 19.34-19.344 19.34-10.672 0-19.339-8.663-19.339-19.34 0-10.676 8.668-19.34 19.339-19.34z" fill="#333"/><path d="m496.379 155.437c5.144 0 9.314 4.175 9.314 9.314 0 5.14-4.17 9.31-9.314 9.31-5.139 0-9.309-4.17-9.309-9.31 0-5.139 4.17-9.314 9.309-9.314z" fill="#2e2e2e"/><path d="m496.379 202.714c10.676 0 19.344 8.663 19.344 19.34 0 10.676-8.668 19.34-19.344 19.34-10.672 0-19.339-8.663-19.339-19.34s8.668-19.34 19.339-19.34z" fill="#333"/><path d="m496.379 212.74c5.144 0 9.314 4.174 9.314 9.314 0 5.139-4.17 9.309-9.314 9.309-5.139 0-9.309-4.17-9.309-9.309 0-5.14 4.17-9.314 9.309-9.314z" fill="#2e2e2e"/><path d="m497.1 263.597c10.672 0 19.34 8.663 19.34 19.34s-8.668 19.34-19.34 19.34c-10.676 0-19.344-8.663-19.344-19.34s8.668-19.34 19.344-19.34z" fill="#333"/><path d="m497.1 273.627c5.139 0 9.31 4.17 9.31 9.31s-4.17 9.314-9.31 9.314c-5.144 0-9.314-4.174-9.314-9.314 0-5.139 4.17-9.31 9.314-9.31z" fill="#2e2e2e"/><path d="m463.434 4.306h2.148v335.222h-2.148z" fill="url(#f)"/><path d="m464.866 4.306h62.315v2.148h-62.315z" fill="url(#g)"/><path d="m460.565.009 2.869 5.013h64.464l3.58-5.013z" fill="url(#h)"/><path d="m459.132 344.536 4.302 5.017h64.464l4.3-5.017z" fill="url(#j)"/><path d="m.712 352.771v.005c0 3.755 3.415 6.803 7.624 6.803h67.132c4.205 0 7.62-3.048 7.62-6.803v-.005c0-3.755-3.415-6.803-7.62-6.803h-67.132c-4.209 0-7.624 3.048-7.624 6.803z" fill="#f0f0f0"/><path d="m2.716 351.846c0 2.913 3.105 5.28 6.925 5.28h64.918c3.821 0 6.925-2.367 6.925-5.28 0-2.912-3.105-5.274-6.925-5.274h-64.918c-3.82-.001-6.925 2.361-6.925 5.274z" fill="#cac9c9"/><path d="m4.24 351.143c0 2.271 2.869 4.113 6.397 4.113h63.232c3.528 0 6.397-1.843 6.397-4.113 0-2.271-2.869-4.118-6.397-4.118h-63.232c-3.528 0-6.397 1.847-6.397 4.118z" fill="#a2a1a1"/><path d="m5.441 350.588c0 1.764 2.681 3.201 5.982 3.201h61.9c3.301 0 5.982-1.437 5.982-3.201 0-1.768-2.681-3.201-5.982-3.201h-61.9c-3.301 0-5.982 1.433-5.982 3.201z" fill="#797878"/><path d="m6.41 350.139c0 1.358 2.528 2.463 5.642 2.463h60.835c3.113 0 5.642-1.105 5.642-2.463 0-1.358-2.528-2.463-5.642-2.463h-60.835c-3.114 0-5.642 1.104-5.642 2.463z" fill="#4f4f4f"/><path d="m7.209 349.767v.004c0 1.022 2.402 1.852 5.367 1.852h59.949c2.965 0 5.367-.829 5.367-1.852v-.004c0-1.022-2.402-1.852-5.367-1.852h-59.949c-2.965.001-5.367.83-5.367 1.852z" fill="#262525"/><path d="m7.877 349.461c0 .742 2.301 1.341 5.135 1.341h59.211c2.834 0 5.135-.598 5.135-1.341 0-.742-2.301-1.345-5.135-1.345h-59.211c-2.833.001-5.135.603-5.135 1.345z"/><path d="m52.285 369.242v.004c0 3.755 3.415 6.803 7.62 6.803h415.24c4.205 0 7.62-3.048 7.62-6.803v-.004c0-3.756-3.415-6.803-7.62-6.803h-415.24c-4.205 0-7.62 3.048-7.62 6.803z" fill="#fff"/><path d="m54.818 368.251c0 3.205 3.332 5.807 7.441 5.807l410.659.005c4.109 0 7.445-2.607 7.445-5.812 0-3.205-3.336-5.812-7.445-5.812h-410.659c-4.109 0-7.441 2.607-7.441 5.812z" fill="#eeedec"/><path d="m56.639 367.535c0 2.812 3.279 5.096 7.314 5.096h407.362c4.039 0 7.314-2.284 7.314-5.096 0-2.812-3.279-5.092-7.314-5.092l-407.362-.004c-4.035 0-7.314 2.284-7.314 5.096z" fill="#dfdede"/><path d="m58.014 366.993v.004c0 2.511 3.236 4.55 7.218 4.55l404.873.005c3.982 0 7.218-2.044 7.218-4.555 0-2.515-3.236-4.554-7.218-4.554l-404.873-.004c-3.982 0-7.218 2.044-7.218 4.554z" fill="#cfcfce"/><path d="m59.088 366.574c0 2.279 3.201 4.131 7.144 4.131h402.93c3.939 0 7.14-1.852 7.14-4.131 0-2.279-3.201-4.131-7.144-4.131l-402.926-.004c-3.943 0-7.144 1.856-7.144 4.135z" fill="#bdbdbc"/><path d="m59.984 366.221c0 2.087 3.175 3.781 7.082 3.781h401.306c3.908 0 7.078-1.694 7.078-3.777v-.004c0-2.083-3.17-3.777-7.078-3.777h-401.31c-3.904-.001-7.078 1.689-7.078 3.777z" fill="#adadad"/><path d="m60.8 365.902c0 1.908 3.148 3.458 7.021 3.458l399.835.004c3.873 0 7.022-1.55 7.022-3.463 0-1.908-3.148-3.458-7.022-3.458h-399.834c-3.878 0-7.022 1.55-7.022 3.459z" fill="#9f9f9f"/><path d="m61.547 365.609c0 1.747 3.122 3.166 6.969 3.166l398.485.004c3.842 0 6.969-1.419 6.969-3.17 0-1.747-3.127-3.166-6.973-3.166h-398.481c-3.847 0-6.969 1.42-6.969 3.166z" fill="#8f8f8f"/><path d="m62.232 365.338c0 1.602 3.1 2.899 6.921 2.899h397.245c3.816 0 6.921-1.297 6.921-2.895 0-1.602-3.105-2.899-6.926-2.899h-397.239c-3.821 0-6.922 1.297-6.922 2.895z" fill="#818080"/><path d="m62.861 365.094c0 1.463 3.083 2.65 6.877 2.65h396.102c3.799 0 6.877-1.188 6.877-2.65 0-1.463-3.083-2.651-6.877-2.651h-396.101c-3.795 0-6.878 1.188-6.878 2.651z" fill="#6e6e6e"/><path d="m63.446 364.863c0 1.336 3.061 2.423 6.834 2.423h395.049c3.773 0 6.833-1.083 6.833-2.419 0-1.336-3.061-2.423-6.838-2.423h-395.044c-3.773-.001-6.834 1.082-6.834 2.419z" fill="#5f5e5e"/><path d="m63.988 364.648v.004c0 1.218 3.048 2.205 6.799 2.205l394.066.004c3.751 0 6.798-.991 6.798-2.21 0-1.218-3.048-2.209-6.803-2.209h-394.066c-3.751.001-6.794.988-6.794 2.206z" fill="#4f4f4f"/><path d="m64.49 364.452c0 1.109 3.03 2.013 6.764 2.013h393.158c3.729 0 6.76-.899 6.76-2.008 0-1.109-3.031-2.013-6.764-2.013h-393.159c-3.729-.001-6.759.899-6.759 2.008z" fill="#404040"/><path d="m64.957 364.269c0 1.009 3.017 1.826 6.733 1.826l392.307.004c3.716 0 6.728-.821 6.728-1.825 0-1.009-3.017-1.83-6.728-1.83h-392.311c-3.712-.001-6.729.816-6.729 1.825z" fill="#2e2d2d"/><path d="m65.398 364.098c0 .913 3 1.655 6.698 1.655h391.516c3.694 0 6.698-.742 6.698-1.655 0-.913-3.005-1.655-6.703-1.655h-391.51c-3.699 0-6.699.743-6.699 1.655z" fill="#1f1e1e"/><path d="m65.809 363.937c0 .825 2.987 1.493 6.668 1.493h390.773c3.681 0 6.668-.668 6.668-1.493 0-.821-2.987-1.493-6.668-1.493h-390.774c-3.681-.001-6.667.668-6.667 1.493z" fill="#100f10"/><path d="m66.193 363.784c0 .742 2.978 1.345 6.642 1.345h390.08c3.663 0 6.642-.603 6.642-1.341 0-.742-2.978-1.345-6.646-1.345h-390.077c-3.667 0-6.641.603-6.641 1.341z"/><path d="m1.432.716h71.629v344.54h-71.629z"/><path d="m1.432.725v164.742l70.909-164.742z" fill="url(#k)"/><path d="m4.297 5.017h64.464v342.383h-64.464z" fill="#2e2e2e"/><path d="m4.62 5.201v73.594l46.954-73.594z" fill="url(#l)"/><path d="m37.247 29.374c10.672 0 19.34 8.664 19.34 19.34s-8.667 19.34-19.34 19.34c-10.676 0-19.344-8.663-19.344-19.34s8.668-19.34 19.344-19.34z" fill="#333"/><path d="m37.247 39.4c5.139 0 9.31 4.174 9.31 9.314s-4.17 9.31-9.31 9.31c-5.144 0-9.314-4.17-9.314-9.31s4.17-9.314 9.314-9.314z" fill="#2e2e2e"/><path d="m37.247 86.677c10.672 0 19.34 8.663 19.34 19.34s-8.667 19.34-19.34 19.34c-10.676 0-19.344-8.663-19.344-19.34s8.668-19.34 19.344-19.34z" fill="#333"/><path d="m37.247 96.702c5.139 0 9.31 4.174 9.31 9.314 0 5.139-4.17 9.31-9.31 9.31-5.144 0-9.314-4.17-9.314-9.31s4.17-9.314 9.314-9.314z" fill="#2e2e2e"/><path d="m37.247 146.128c10.672 0 19.34 8.663 19.34 19.34 0 10.676-8.667 19.34-19.34 19.34-10.676 0-19.344-8.664-19.344-19.34 0-10.677 8.668-19.34 19.344-19.34z" fill="#333"/><path d="m37.247 156.153c5.139 0 9.31 4.174 9.31 9.314 0 5.139-4.17 9.309-9.31 9.309-5.144 0-9.314-4.17-9.314-9.309s4.17-9.314 9.314-9.314z" fill="#2e2e2e"/><path d="m37.247 203.43c10.672 0 19.34 8.663 19.34 19.34 0 10.676-8.667 19.34-19.34 19.34-10.676 0-19.344-8.663-19.344-19.34s8.668-19.34 19.344-19.34z" fill="#333"/><path d="m37.247 213.46c5.139 0 9.31 4.17 9.31 9.31s-4.17 9.31-9.31 9.31c-5.144 0-9.314-4.17-9.314-9.31s4.17-9.31 9.314-9.31z" fill="#2e2e2e"/><path d="m37.963 264.313c10.676 0 19.34 8.664 19.34 19.34s-8.663 19.34-19.34 19.34c-10.676 0-19.344-8.663-19.344-19.34 0-10.676 8.668-19.34 19.344-19.34z" fill="#333"/><path d="m37.963 274.344c5.14 0 9.31 4.17 9.31 9.309 0 5.14-4.17 9.314-9.31 9.314-5.139 0-9.314-4.174-9.314-9.314s4.175-9.309 9.314-9.309z" fill="#2e2e2e"/><path d="m4.297 5.022h2.148v335.222h-2.148z" fill="url(#m)"/><path d="m5.729 5.022h62.32v2.148h-62.32z" fill="url(#n)"/><path d="m1.432.725 2.865 5.013h64.464l3.58-5.013z" fill="url(#o)"/><path d="m0 345.252 4.297 5.018h64.464l4.3-5.018z" fill="url(#p)"/><path d="m68.044 302.988h398.254v24.353h-398.254z" fill="url(#q)"/><path d="m55.15 337.371h424.038l-12.894-10.026h-398.25z" fill="url(#r)"/><path d="m55.154 337.371h424.034v17.191h-424.034z" fill="url(#s)"/><path d="m55.15 354.562 9.266 8.597h406.524l8.253-8.597z" fill="url(#t)"/><path d="m55.87 337.371 12.174-10.026 1.433 10.026z" fill="url(#v)"/><path d="m478.476 337.371-12.178-10.026-1.432 10.026z" fill="url(#w)"/><path d="m48.233 47.277h433.824v256.249h-433.824z" fill="#808080"/><path d="m50.141 49.43h429.767v252.126h-429.767z" fill="url(#x)"/><path d="m50.137 49.43v162.415l230.324-162.415z" fill="url(#y)"/><path d="m58.735 58.735h413.297v235.66h-413.297z" fill="url(#z)"/><path d="m60.167 60.171h411.86v232.791h-411.86z" fill="url(#A)"/><path d="m55.154 337.371h422.602v1.437h-422.602z" fill="#5e5e5e"/><path d="m56.586 336.659h421.89v.712h-421.89z" fill="#949191"/><path d="m55.154 338.803h422.602v1.432h-422.602z" fill="#b0b0b0"/><path d="m55.15 337.375h1.437v17.191h-1.437z" fill="#404040"/><path d="m477.76 337.375h1.432v17.191h-1.432z" fill="#4f4f4f"/><path d="m68.044 303.704h1.437v23.641h-1.437z" fill="#404040"/><path d="m464.866 303.709h1.432v23.636h-1.432z" fill="#404040"/><path d="m472.027 58.735h1.437v234.944h-1.437z" fill="#616161"/><path d="m58.735 291.53h414.725v1.432h-414.725z" fill="#696969"/><path d="m69.477 326.629h395.389v.716h-395.389z" fill="#575757"/><path d="m69.477 303.704h395.389v2.153h-395.389z" fill="url(#B)"/><path d="m56.586 338.807h1.432v15.755h-1.432z" fill="#bfbfbf"/><path d="m68.044 327.345h398.254v1.432h-398.254z" fill="#333"/><path d="m50.137 50.146h1.437v238.524h-1.437z" fill="url(#C)"/><path d="m50.853 49.425h414.729v1.437h-414.729z" fill="url(#E)"/><path d="m56.582 353.845h421.174v1.432h-421.174z" fill="#8c8c8c"/><path d="m68.761 327.345h398.253l-12.894-7.161h-372.465z" fill="url(#F)"/><path d="m57.298 57.303h1.436v238.524h-1.436z" fill="url(#G)"/><path d="m58.735 57.307h414.725v1.432h-414.725z" fill="url(#H)"/><path d="m60.167 60.171v232.791h51.277l148.629-232.791z" fill="url(#I)"/></g><path d="m679.24 261.138c-12.57-12.57-29.281-19.492-47.056-19.492s-34.488 6.922-47.056 19.492c-12.57 12.57-19.492 29.281-19.492 47.056 0 17.777 6.922 34.489 19.492 47.058 12.57 12.57 29.281 19.492 47.056 19.492s34.487-6.921 47.056-19.49c12.55-12.55 19.462-29.263 19.462-47.059-.001-17.795-6.913-34.507-19.462-47.057zm-47.401 48.821c-1.07 0-1.936-.866-1.936-1.936s.868-1.936 1.936-1.936 1.936.868 1.936 1.936c0 1.07-.868 1.936-1.936 1.936z" fill="#333"/><path d="m632.183 242.95c17.427 0 33.811 6.787 46.135 19.11 25.439 25.439 25.439 66.831 0 92.27-12.324 12.322-28.707 19.109-46.135 19.109s-33.812-6.786-46.135-19.11c-12.323-12.323-19.109-28.707-19.109-46.135 0-17.427 6.786-33.81 19.109-46.133 12.324-12.323 28.708-19.111 46.135-19.111m0-2.609c-18.125 0-35.164 7.058-47.98 19.875-12.816 12.814-19.873 29.854-19.873 47.978 0 18.125 7.058 35.165 19.873 47.98 12.816 12.816 29.855 19.875 47.98 19.875 18.123 0 35.162-7.058 47.979-19.874 12.796-12.796 19.844-29.836 19.844-47.981 0-18.143-7.048-35.183-19.844-47.979-12.816-12.815-29.855-19.874-47.979-19.874z" fill="#070308"/><path d="m678.307 261.9c-25.472-25.474-66.773-25.474-92.247 0l92.247 92.247c25.474-25.474 25.474-66.774 0-92.247z" fill="url(#K)"/><path d="m586.06 354.148c-25.475-25.474-25.474-66.775 0-92.248l92.247 92.247c-25.473 25.474-66.774 25.474-92.247.001z" fill="url(#L)"/><circle cx="632.183" cy="308.195" fill="none" r="58" stroke="#070308" stroke-width=".3261"/><circle cx="632.183" cy="308.195" fill="none" r="52.333" stroke="#070308" stroke-width=".3261"/><circle cx="632.183" cy="308.195" fill="none" r="42.95" stroke="#070308" stroke-width=".3261"/><circle cx="632.183" cy="308.195" fill="none" r="36.033" stroke="#070308" stroke-width=".3261"/><path d="m632.183 277.326c-17.048 0-30.869 13.821-30.869 30.869 0 17.049 13.821 30.869 30.869 30.869s30.869-13.821 30.869-30.869-13.82-30.869-30.869-30.869zm-.344 32.633c-1.07 0-1.936-.866-1.936-1.936s.868-1.936 1.936-1.936 1.936.868 1.936 1.936c0 1.07-.868 1.936-1.936 1.936z" fill="#070308"/><path d="m604.449 249.103c-6.402 3.01-12.323 7.084-17.551 12.129l-1.678 1.678c-5.04 5.222-9.111 11.138-12.12 17.532l86.834 86.836c6.379-3.001 12.283-7.06 17.496-12.082l1.717-1.717c5.105-5.293 9.141-11.242 12.103-17.571zm27.39 60.856c-1.07 0-1.936-.866-1.936-1.936s.868-1.936 1.936-1.936 1.936.868 1.936 1.936c0 1.07-.868 1.936-1.936 1.936z" fill="url(#M)"/><path d="m632.183 283.544c-13.615 0-24.652 11.037-24.652 24.651s11.037 24.652 24.652 24.652 24.652-11.037 24.652-24.652-11.036-24.651-24.652-24.651zm-.344 26.415c-1.07 0-1.936-.866-1.936-1.936s.868-1.936 1.936-1.936 1.936.868 1.936 1.936c0 1.07-.868 1.936-1.936 1.936z" fill="url(#N)" stroke="#070308" stroke-width=".3261"/><path d="m640.978 306.981c-.309-.003-.543.085-.703.264-.055.057-.098.086-.132.086-.02 0-.037-.009-.05-.027-.015-.018-.022-.039-.022-.064 0-.048.052-.107.155-.176.21-.142.493-.212.848-.212.267 0 .488.05.664.15.096.052.172.124.224.212.052.089.078.187.078.294 0 .179-.072.322-.217.425-.134.096-.3.157-.497.179-.104.012-.171.02-.199.026l.316.044c.237.029.422.104.556.228.115.104.172.237.172.398 0 .157-.054.297-.163.423-.212.245-.561.367-1.048.367-.37 0-.665-.073-.883-.22-.143-.095-.215-.185-.215-.269 0-.022.007-.04.023-.054s.035-.022.057-.022c.028 0 .049.007.063.021.013.013.036.048.068.103.043.078.117.143.224.191.183.083.381.124.596.124l.087-.001v-1.275h-.288c-.063 0-.103-.003-.119-.01s-.024-.025-.024-.052c0-.031.008-.05.025-.059.015-.007.056-.011.121-.011h.287l-.001-1.083zm2.529 0c-.308-.003-.541.085-.703.264-.055.057-.098.086-.132.086-.018 0-.036-.009-.05-.027-.015-.018-.022-.039-.022-.064 0-.048.052-.107.155-.176.21-.142.493-.212.848-.212.267 0 .488.05.664.15.097.052.172.124.224.212.052.089.078.187.078.294 0 .179-.072.322-.215.425-.134.096-.3.157-.498.179-.104.012-.171.02-.199.026l.315.044c.237.029.422.104.556.228.115.104.172.237.172.398 0 .157-.055.297-.164.423-.211.245-.561.367-1.047.367-.37 0-.665-.073-.883-.22-.145-.095-.217-.185-.217-.269 0-.022.008-.04.023-.054.016-.014.035-.022.057-.022.029 0 .05.007.064.021s.037.048.068.103c.043.078.117.143.224.191.183.083.381.124.596.124l.086-.001v-1.275h-.288c-.064 0-.104-.003-.119-.01-.016-.007-.024-.025-.024-.052 0-.031.008-.05.024-.059.015-.007.056-.011.121-.011h.287zm2.33-.084-.008.545.008.748v.031h-.551v-.031l.008-.76v-.322l-.018.007-.138.042c-.013.005-.026.008-.036.008-.02 0-.029-.011-.029-.033 0-.016.005-.026.014-.033.01-.007.039-.014.087-.026l.239-.063.091-.024zm1.145-.287c.023-.001.043.005.061.02.016.015.026.033.026.051 0 .013-.015.052-.044.114-.029.061-.128.272-.299.631l-.771 1.628-.21.444c-.039.083-.063.137-.072.16-.033.082-.072.123-.116.123-.02 0-.038-.008-.052-.021-.016-.013-.023-.03-.023-.048 0-.02.015-.06.046-.123l.074-.16.602-1.264.376-.797.176-.369c.096-.21.152-.327.166-.352.015-.023.034-.036.06-.037zm.199 1.645c-.155-.002-.271.042-.352.132-.027.029-.049.043-.065.043-.01 0-.018-.004-.026-.013-.007-.009-.011-.02-.011-.033 0-.023.026-.052.077-.087.106-.07.248-.106.424-.106.133 0 .244.025.333.074.048.026.085.062.111.106s.039.093.039.147c0 .091-.036.161-.108.213-.067.048-.15.078-.248.09-.052.007-.086.01-.1.013l.158.022c.119.014.211.053.278.113.057.052.087.119.087.2 0 .078-.028.15-.083.211-.106.122-.281.183-.524.183-.185 0-.333-.037-.441-.11-.072-.048-.108-.093-.108-.135 0-.012.004-.02.013-.028.007-.007.016-.011.027-.011.013 0 .024.003.031.011.007.007.018.024.035.051.021.04.059.072.112.095.091.042.189.063.297.063h.043v-.638h-.145c-.033 0-.052-.001-.06-.005s-.013-.013-.013-.026c0-.016.005-.026.013-.03.008-.003.029-.005.061-.005h.145zm2.083 1.056c.061.042.127.078.198.108.07.029.147.052.228.069.02.004.029.013.029.029 0 .02-.013.031-.043.031-.068 0-.162-.029-.282-.089-.1-.048-.215-.124-.346-.227v.039l.001.163v.091h-.582v-.042l.001-.313.003-.372-.002-.577h.385c.172 0 .301.005.389.014.088.01.163.027.224.053.101.042.181.111.239.209.054.089.081.181.081.28 0 .104-.029.202-.09.295-.096.15-.241.229-.433.239zm-.091-.058h.046c.13 0 .241-.037.333-.11.057-.046.1-.103.13-.173.029-.063.044-.127.044-.192 0-.112-.036-.211-.109-.3-.055-.067-.124-.115-.209-.144-.083-.027-.2-.042-.351-.044l-.009.639v.174l.001.044c.039.037.081.072.124.106zm1.374.039v.234h-.582v-.059l.005-.672-.004-.318v-.217l-.002-.039h.437c.176 0 .313.008.404.023.093.014.17.042.232.082.085.052.15.127.196.22.035.072.052.147.052.226 0 .085-.02.167-.059.245-.048.094-.115.164-.202.215-.085.05-.185.074-.299.074-.041 0-.102-.005-.179-.017zm0-1.004v.064l-.003.639.002.237c.05.013.116.02.196.02.072 0 .14-.013.205-.042s.119-.068.163-.121c.076-.089.115-.191.115-.309 0-.111-.039-.213-.114-.302-.053-.065-.123-.111-.207-.141-.085-.029-.194-.043-.327-.043h-.029v-.002zm2.233-.11.207.711.095.316.085.285.012.037h-.581l-.183-.676-.395.594-.404-.564c-.039.137-.082.307-.128.507-.016.076-.029.122-.036.135-.007.014-.022.022-.044.022-.028 0-.042-.01-.042-.029 0-.007.008-.039.026-.097l.059-.204.104-.351.202-.687.522.759.5-.759v.001z" fill="#fff"/><path d="m619.159 310.03c.048-.048.121-.072.219-.072.104 0 .185.028.239.082.048.048.072.104.072.17h-.117c0-.042-.014-.074-.042-.102-.031-.031-.078-.046-.143-.046-.07 0-.12.014-.147.042-.023.023-.036.05-.036.082 0 .031.008.052.021.067.017.016.048.034.091.051.078.034.167.072.266.117.026.01.052.027.076.051.038.038.056.082.056.132 0 .068-.023.124-.072.173-.05.05-.134.076-.249.076-.112 0-.199-.031-.26-.091-.044-.044-.067-.111-.067-.194h.117c0 .061.013.104.041.132.038.038.095.057.174.057.07 0 .124-.018.157-.051.028-.029.042-.055.042-.082 0-.031-.01-.056-.031-.076-.017-.017-.044-.035-.082-.051-.034-.018-.078-.039-.132-.062-.062-.028-.111-.049-.149-.067-.027-.011-.051-.026-.072-.046-.03-.03-.046-.07-.046-.122.001-.065.025-.121.072-.17zm.652-.061h.698v.097h-.29v.775h-.117v-.775h-.29v-.097zm.82 0h.561v.097h-.444v.27h.413v.097h-.413v.311h.47v.096h-.587zm.76-.005h.428c.068 0 .124.022.17.067.044.044.065.106.065.183 0 .08-.022.141-.065.184-.024.023-.059.039-.102.046l.199.393h-.127l-.183-.377h-.265v.377h-.117v-.871zm.118.097v.3h.3c.035 0 .064-.013.087-.035.023-.024.035-.061.035-.112 0-.048-.013-.085-.041-.112-.026-.028-.059-.041-.096-.041zm.677-.092h.561v.097h-.444v.27h.412v.097h-.413v.311h.47v.096h-.587zm.852.097c.07-.072.156-.107.259-.107.102 0 .189.036.26.107.082.082.123.194.123.337s-.041.256-.123.337c-.072.07-.158.106-.26.106s-.189-.036-.26-.106c-.082-.082-.124-.194-.124-.337s.042-.255.125-.337zm.085.067c-.057.059-.086.149-.086.27 0 .123.029.212.087.27.052.051.11.076.174.076s.123-.026.174-.076c.059-.059.087-.148.087-.27s-.029-.211-.087-.27c-.051-.051-.109-.076-.174-.076s-.123.025-.174.076z" fill="#fff"/><path d="m612.015 308.836c.02 0 .044.015.072.047.087.095.192.17.317.227.124.057.248.086.371.086.134 0 .202-.041.202-.123 0-.052-.023-.111-.07-.176s-.16-.194-.339-.386c-.224-.243-.374-.424-.448-.541-.1-.155-.15-.303-.15-.444 0-.211.095-.385.284-.519.185-.132.414-.198.685-.198.191 0 .365.039.524.115.059.03.111.065.153.104.044.039.065.072.065.098 0 .013-.007.024-.018.035-.013.01-.025.016-.037.016-.02 0-.048-.018-.086-.053-.063-.059-.143-.108-.245-.146s-.199-.059-.292-.059c-.059 0-.104.013-.141.038-.038.025-.055.057-.055.096 0 .047.023.104.068.173.045.068.121.158.228.271.338.361.545.603.621.729.08.132.119.26.119.383 0 .104-.028.204-.085.296-.056.095-.134.17-.235.23-.19.115-.424.171-.698.171-.254 0-.476-.067-.669-.197-.135-.093-.202-.164-.202-.217 0-.014.007-.028.017-.04.012-.013.026-.02.042-.02zm3.024-1.485v.05l-.004.269-.003.417-.005.637.007.357.004.157h-.887l.008-.637.005-.561-.004-.296-.005-.327.002-.065zm-.448-.604c.304 0 .457.08.457.238 0 .077-.041.137-.121.181-.08.043-.193.065-.338.065-.289 0-.434-.082-.434-.246 0-.156.146-.235.436-.238zm3.095.133-.003.845-.002.598.005.838v.078h-.883v-.225c-.095.095-.186.163-.274.202-.089.041-.188.062-.3.062-.219 0-.414-.081-.584-.243-.211-.2-.316-.45-.316-.757 0-.298.102-.539.307-.724.179-.165.384-.248.609-.248.1 0 .197.02.291.057s.184.095.272.171l-.006-.652h.884zm-.877.795c-.09-.082-.172-.144-.243-.183-.072-.041-.135-.061-.19-.061-.044 0-.073.016-.089.048-.014.031-.023.091-.023.179l.002.076v1.161c0 .094.005.15.013.174.013.05.046.075.099.075.057 0 .119-.022.183-.065.064-.044.148-.117.249-.226v-1.178zm1.967.675v.535c0 .102.007.17.02.196.023.053.08.08.17.08.134 0 .266-.037.398-.11.129-.073.243-.175.339-.303.031-.042.052-.069.067-.082.013-.013.028-.016.044-.016.02 0 .036.007.048.022.013.013.02.033.02.053 0 .048-.039.115-.115.196-.101.104-.227.19-.378.257-.149.065-.296.098-.439.098-.245 0-.462-.083-.649-.248-.11-.097-.194-.217-.252-.359-.052-.124-.078-.248-.078-.372 0-.121.023-.24.069-.36.046-.121.11-.224.189-.312.095-.102.205-.183.333-.239.125-.055.257-.083.394-.083.213 0 .406.063.579.189.269.196.402.479.401.851h-.402l-.519.001-.236.003v.003zm.442-.114v-.502c-.003-.109-.005-.174-.007-.194-.003-.022-.011-.041-.025-.059-.033-.046-.098-.068-.197-.068-.101 0-.164.026-.189.078-.016.031-.025.112-.025.243v.502l.211.008.231-.007zm3.096-1.498 1.381 2.5h-1.198l-.166-.315h-.579l-.509-.003-.087-.001-.114.211c-.033.065-.056.103-.069.119s-.03.023-.05.023c-.039 0-.059-.016-.059-.052 0-.013.011-.042.033-.083.023-.041.102-.175.236-.402l1.046-1.761.135-.234zm-.537 1.135-.302.507-.241.417.515.008.517-.008-.489-.926z" fill="#fff"/><circle cx="632.183" cy="308.195" fill="none" r="22.187" stroke="#c23435" stroke-width=".3261"/><path d="m631.838 301.389c-3.664 0-6.634 2.971-6.634 6.634 0 3.665 2.971 6.635 6.634 6.635 3.665 0 6.635-2.971 6.635-6.635 0-3.665-2.971-6.634-6.634-6.634zm.001 8.571c-1.07 0-1.936-.868-1.936-1.937 0-1.068.868-1.935 1.936-1.935s1.936.868 1.936 1.936c0 1.069-.868 1.935-1.936 1.936z" fill="#be2518" stroke="#c23435" stroke-width=".3261"/><path d="m747.613 261.113c-12.572-12.572-29.288-19.497-47.067-19.497-17.78 0-34.496 6.925-47.068 19.497-25.953 25.953-25.953 68.181 0 94.135 12.572 12.572 29.288 19.497 47.068 19.497 17.779 0 34.495-6.924 47.067-19.497 12.553-12.553 19.468-29.268 19.468-47.068s-6.914-34.515-19.468-47.067zm-47.067 49.004c-1.07 0-1.936-.866-1.936-1.936s.868-1.936 1.936-1.936c1.07 0 1.937.868 1.937 1.936-.001 1.07-.867 1.936-1.937 1.936z" fill="#333"/><path d="m700.546 242.92c17.431 0 33.819 6.789 46.145 19.115 25.446 25.445 25.446 66.845 0 92.291-12.326 12.326-28.714 19.115-46.145 19.115-17.432 0-33.82-6.788-46.146-19.114-25.446-25.446-25.446-66.845 0-92.289 12.325-12.327 28.713-19.118 46.146-19.118m-.001-2.609c-18.127 0-35.172 7.06-47.99 19.879-26.461 26.461-26.461 69.518 0 95.981 12.819 12.818 29.862 19.879 47.991 19.879 18.127 0 35.172-7.059 47.989-19.879 12.801-12.8 19.849-29.844 19.849-47.99 0-18.148-7.049-35.191-19.849-47.99-12.819-12.819-29.862-19.879-47.99-19.88z" fill="#070308"/><path d="m747.013 262.057c-25.472-25.474-66.773-25.474-92.247 0l92.247 92.247c25.475-25.474 25.475-66.773 0-92.247z" fill="url(#O)"/><path d="m654.765 354.306c-25.473-25.474-25.472-66.775.001-92.248l92.247 92.247c-25.473 25.474-66.774 25.474-92.248.001z" fill="url(#P)"/><circle cx="700.89" cy="308.353" fill="none" r="58" stroke="#070308" stroke-width=".3261"/><circle cx="700.89" cy="308.353" fill="none" r="52.333" stroke="#070308" stroke-width=".3261"/><circle cx="700.889" cy="308.353" fill="none" r="42.949" stroke="#070308" stroke-width=".3261"/><circle cx="700.89" cy="308.353" fill="none" r="36.033" stroke="#070308" stroke-width=".3261"/><path d="m700.89 277.484c-17.049 0-30.869 13.821-30.869 30.869 0 17.049 13.821 30.869 30.869 30.869s30.869-13.821 30.869-30.869-13.821-30.869-30.869-30.869zm-.344 32.633c-1.07 0-1.936-.866-1.936-1.936s.868-1.936 1.936-1.936c1.07 0 1.937.868 1.937 1.936-.001 1.07-.867 1.936-1.937 1.936z" fill="#070308"/><path d="m673.154 249.244c-6.192 2.911-11.937 6.816-17.038 11.634l-2.702 2.704c-4.873 5.164-8.743 10.934-11.609 17.061l86.817 86.821c6.19-2.909 11.937-6.813 17.036-11.63l2.712-2.711c4.871-5.162 8.738-10.931 11.604-17.055zm27.392 60.872c-1.07 0-1.936-.866-1.936-1.935s.868-1.936 1.936-1.936c1.07 0 1.937.868 1.937 1.936-.001 1.07-.867 1.936-1.937 1.935z" fill="url(#Q)"/><path d="m700.89 283.702c-13.615 0-24.652 11.037-24.652 24.651s11.037 24.652 24.652 24.652 24.652-11.037 24.652-24.652-11.037-24.651-24.652-24.651zm-.344 26.415c-1.07 0-1.936-.866-1.936-1.936s.868-1.936 1.936-1.936c1.07 0 1.937.868 1.937 1.936-.001 1.07-.867 1.936-1.937 1.936z" fill="url(#R)" stroke="#070308" stroke-width=".3261"/><path d="m709.699 307.14c-.309-.004-.543.085-.703.264-.055.057-.098.086-.13.086-.02 0-.038-.009-.052-.027-.013-.018-.021-.039-.021-.064 0-.048.051-.107.154-.176.21-.142.493-.212.848-.212.267 0 .489.05.665.15.096.052.172.124.224.212.052.089.078.187.078.294 0 .179-.072.322-.217.425-.133.097-.3.157-.497.179-.104.012-.171.02-.199.026l.315.044c.237.029.422.104.556.228.116.104.174.237.174.398 0 .157-.055.297-.164.424-.211.244-.56.367-1.046.367-.371 0-.665-.073-.883-.22-.145-.095-.215-.185-.215-.269 0-.022.006-.039.023-.054.016-.015.036-.022.057-.022.028 0 .049.008.064.021.013.013.037.048.068.102.042.078.117.143.224.191.183.085.381.126.596.126l.086-.002v-1.275h-.289c-.064 0-.103-.003-.119-.01s-.023-.025-.023-.052c0-.031.008-.05.023-.059.015-.007.057-.011.122-.011h.287l-.003-1.083zm2.531 0c-.309-.004-.543.085-.703.264-.055.057-.098.086-.13.086-.02 0-.038-.009-.052-.027-.013-.018-.021-.039-.021-.064 0-.048.052-.107.154-.176.211-.142.494-.212.85-.212.265 0 .487.05.663.15.097.052.172.124.224.212.052.089.078.187.078.294 0 .179-.072.322-.215.425-.134.097-.3.157-.498.179-.104.012-.171.02-.199.026l.315.044c.236.029.421.104.556.228.115.104.173.237.173.398 0 .157-.055.297-.164.424-.211.244-.56.367-1.046.367-.372 0-.667-.073-.884-.22-.144-.095-.215-.185-.215-.269 0-.022.007-.039.023-.054s.035-.022.057-.022c.028 0 .049.008.064.021.013.013.037.048.068.102.042.078.117.143.223.191.183.085.381.126.596.126l.087-.002v-1.275h-.29c-.064 0-.103-.003-.119-.01s-.024-.025-.024-.052c0-.031.008-.05.024-.059.014-.007.056-.011.121-.011h.287v-1.084zm2.329-.084-.008.545.008.748v.031h-.551v-.031l.008-.76.001-.28v-.04l-.02.007-.137.042c-.014.005-.026.008-.037.008-.02 0-.029-.011-.029-.033 0-.016.005-.026.014-.033.01-.007.039-.014.087-.026l.239-.063.091-.025.333-.091v.001zm1.144-.288c.023-.001.044.005.062.02.016.015.025.033.025.051 0 .013-.014.052-.042.113-.029.061-.128.272-.3.631l-.77 1.628-.211.444c-.039.083-.064.137-.072.16-.034.082-.07.123-.117.123-.02 0-.037-.008-.052-.021-.014-.013-.022-.03-.022-.048 0-.02.016-.06.046-.123l.074-.16.603-1.264.376-.797.176-.369c.096-.21.153-.327.167-.352.012-.022.032-.035.057-.036zm.2 1.644c-.154-.002-.271.042-.352.132-.027.029-.049.043-.065.043-.011 0-.018-.004-.026-.013-.007-.009-.012-.02-.012-.033 0-.023.026-.052.078-.087.104-.07.247-.106.423-.106.133 0 .244.025.333.074.048.026.085.062.111.106s.04.093.04.147c0 .091-.037.161-.108.213-.067.048-.15.078-.248.09-.052.007-.086.01-.1.013l.157.022c.119.014.212.053.279.113.057.052.087.119.087.2 0 .078-.028.15-.083.211-.106.122-.281.183-.524.183-.185 0-.333-.037-.441-.11-.072-.048-.108-.093-.108-.135 0-.012.004-.02.013-.028.008-.007.016-.011.028-.011.014 0 .024.003.031.011.008.007.018.024.035.051.022.04.061.072.114.095.091.042.19.063.298.063h.043v-.638h-.145c-.033 0-.052-.001-.06-.005s-.013-.013-.013-.026c0-.016.005-.026.013-.03s.029-.005.061-.005h.143zm2.083 1.057c.062.042.127.078.198.108.07.029.147.052.228.069.02.004.03.013.03.029 0 .02-.013.031-.043.031-.067 0-.161-.029-.282-.089-.1-.048-.215-.124-.346-.227v.039l.001.163v.091h-.582v-.042l.001-.313.003-.372-.003-.577h.385c.172 0 .3.005.389.014.088.01.162.027.224.053.1.042.179.111.238.209.055.089.082.181.082.28 0 .104-.031.202-.091.295-.095.15-.241.23-.432.239zm-.091-.059h.046c.13 0 .241-.037.331-.11.057-.046.102-.103.132-.173.029-.063.043-.127.043-.192 0-.112-.036-.211-.109-.3-.056-.067-.125-.115-.209-.143-.083-.027-.201-.042-.351-.044l-.01.639v.174l.001.044c.04.038.082.072.126.105zm1.373.04v.234h-.582l.001-.059.005-.672-.004-.318v-.217l-.002-.039h.437c.176 0 .313.008.404.023.093.014.17.042.232.082.083.052.149.127.194.22.035.072.052.147.052.226 0 .085-.02.167-.059.245-.048.094-.115.164-.202.215-.086.05-.185.074-.299.074-.039 0-.101-.005-.179-.017zm0-1.004v.064l-.003.639.003.237c.05.013.116.02.196.02.072 0 .141-.013.205-.042.065-.029.119-.069.163-.121.076-.089.115-.191.115-.309 0-.111-.039-.213-.113-.302-.054-.065-.123-.111-.207-.141-.085-.029-.194-.043-.326-.043h-.03zm2.234-.11.207.711.095.315.085.285.012.037h-.582l-.183-.675-.394.594-.404-.564c-.039.137-.082.307-.127.506-.015.076-.028.121-.036.135s-.022.022-.044.022c-.028 0-.041-.01-.041-.029 0-.007.009-.038.026-.097l.059-.204.104-.352.202-.686.523.759z" fill="#fff"/><path d="m687.881 310.188c.048-.048.121-.072.219-.072.106 0 .185.028.239.082.048.048.072.104.072.17h-.117c0-.042-.014-.074-.042-.102-.031-.031-.078-.046-.143-.046-.07 0-.12.014-.148.042-.023.023-.036.05-.036.082 0 .031.008.052.02.067.017.016.048.034.093.051.078.034.167.072.265.117.027.01.052.027.076.051.037.038.055.082.055.132 0 .068-.023.124-.072.173-.05.05-.134.076-.249.076-.112 0-.199-.031-.26-.091-.043-.044-.067-.111-.067-.194h.117c0 .061.013.104.041.132.038.038.095.057.174.057.072 0 .124-.018.158-.051.027-.029.041-.055.041-.082 0-.031-.011-.056-.031-.076-.017-.017-.044-.035-.082-.051-.035-.018-.078-.039-.132-.062-.061-.028-.111-.049-.149-.067-.027-.011-.051-.026-.07-.046-.031-.03-.046-.07-.046-.122 0-.065.023-.121.072-.17zm.652-.061h.698v.097h-.29v.775h-.117v-.775h-.29v-.097zm.82 0h.56v.097h-.444v.27h.413v.097h-.413v.311h.47v.096h-.586zm.761-.005h.427c.068 0 .124.022.168.067.044.044.067.106.067.183 0 .08-.022.141-.067.184-.023.023-.057.039-.102.046l.2.393h-.127l-.184-.377h-.265v.377h-.117v-.873h-.001zm.116.097v.3h.3c.035 0 .064-.013.087-.035.023-.024.036-.061.036-.112 0-.048-.013-.085-.041-.112-.027-.028-.06-.041-.097-.041zm.678-.092h.561v.097h-.445v.27h.413v.097h-.413v.311h.47v.096h-.586zm.851.097c.072-.072.158-.107.26-.107s.189.036.259.107c.082.082.123.194.123.337s-.041.256-.123.337c-.07.07-.157.106-.259.106s-.189-.036-.26-.106c-.082-.082-.123-.194-.123-.337s.041-.255.123-.337zm.087.066c-.059.059-.087.149-.087.27 0 .123.029.212.087.27.051.051.109.076.174.076s.124-.026.175-.076c.059-.059.087-.148.087-.27s-.028-.211-.086-.27c-.051-.051-.109-.076-.174-.076-.064 0-.122.025-.173.076z" fill="#fff"/><path d="m680.721 308.994c.02 0 .043.015.072.047.086.095.192.17.314.227.124.057.25.086.37.086.133 0 .202-.041.202-.123 0-.052-.021-.111-.068-.176s-.16-.194-.339-.386c-.226-.243-.374-.424-.45-.541-.098-.155-.149-.303-.149-.444 0-.211.095-.385.285-.519.186-.132.415-.198.686-.198.19 0 .365.039.524.115.06.03.111.065.153.104.044.039.065.072.065.098 0 .013-.007.024-.017.035-.014.01-.026.016-.039.016-.02 0-.047-.018-.086-.053-.063-.059-.145-.108-.245-.146-.101-.039-.199-.059-.292-.059-.059 0-.104.013-.141.038-.039.025-.055.057-.055.096 0 .047.023.104.068.173.042.068.121.159.228.271.339.361.545.603.621.729.078.132.119.261.119.383 0 .104-.028.203-.085.297-.056.094-.134.17-.235.23-.19.115-.421.171-.698.171-.254 0-.476-.065-.667-.196-.134-.094-.204-.165-.204-.217 0-.013.008-.028.018-.041s.025-.02.04-.02zm3.024-1.485v.05l-.004.269-.003.417-.005.637.007.357.004.157h-.887l.01-.637.005-.561-.004-.296-.007-.327.003-.065zm-.448-.604c.303 0 .455.08.455.238 0 .077-.041.137-.122.181-.08.043-.192.065-.339.065-.287 0-.433-.082-.433-.246.003-.156.15-.235.439-.238zm3.094.133-.003.845-.003.598.005.838v.078h-.883v-.225c-.096.095-.187.163-.274.202-.091.041-.189.062-.3.062-.219 0-.415-.081-.585-.243-.211-.2-.314-.45-.314-.758 0-.297.101-.538.307-.724.179-.163.386-.247.612-.247.098 0 .197.02.29.057.095.038.183.095.274.171l-.01-.652h.885zm-.876.795c-.09-.082-.172-.143-.243-.183-.07-.041-.135-.061-.189-.061-.044 0-.074.016-.091.048-.013.031-.022.091-.022.179l.002.076v1.161c.001.094.005.15.013.174.014.05.046.075.098.075.059 0 .121-.022.183-.065.065-.044.15-.117.25-.226zm1.967.675v.535c0 .102.006.17.02.196.023.053.08.08.17.08.134 0 .265-.037.395-.11s.244-.175.341-.303c.033-.042.053-.069.068-.082.013-.012.029-.017.046-.017.018 0 .035.007.046.02.013.015.02.033.02.055 0 .048-.039.114-.117.196-.1.104-.226.189-.377.256-.15.065-.296.098-.44.098-.245 0-.462-.082-.649-.247-.111-.097-.194-.217-.253-.359-.052-.124-.078-.248-.078-.373 0-.12.023-.24.068-.36.046-.121.11-.224.189-.312.096-.102.205-.183.333-.239.125-.055.259-.083.395-.083.213 0 .406.063.581.189.269.196.402.479.4.851h-.401l-.519.001-.235.005v.003zm.442-.115v-.502c-.003-.109-.005-.174-.008-.194 0-.022-.01-.041-.023-.059-.033-.046-.098-.069-.197-.069-.101 0-.164.026-.189.078-.016.031-.025.112-.025.243v.502l.21.008zm3.096-1.497 1.38 2.5h-1.198l-.167-.315h-.581l-.507-.003-.088-.001-.114.211c-.033.065-.056.103-.068.119-.013.016-.029.023-.05.023-.041 0-.059-.016-.059-.052 0-.013.012-.042.033-.083l.236-.403 1.046-1.761.135-.233v-.002zm-.537 1.135-.302.507-.241.417.515.007.517-.007z" fill="#fff"/><circle cx="700.89" cy="308.353" fill="none" r="22.187" stroke="#59accc" stroke-width=".3261"/><path d="m700.544 301.546c-3.663 0-6.634 2.971-6.634 6.635s2.971 6.635 6.634 6.635c3.666 0 6.636-2.971 6.636-6.635s-2.971-6.635-6.636-6.635zm.002 8.571c-1.07 0-1.936-.866-1.936-1.936s.868-1.936 1.936-1.936c1.07 0 1.937.868 1.937 1.936-.001 1.07-.867 1.936-1.937 1.936z" fill="#1f5ea4" stroke="#59accc" stroke-width=".3261"/><path d="m811.512 325.478h-15.672s-.67.039-.67-.897v.63c0 .936.67.896.67.896h15.672c.585-.039.663-.478.663-.478v-.63s-.078.44-.663.479z" fill="#373737"/><path d="m795.17 311.745s.358-.834.865-1.223c0 0 7.017-2.378 15.204-.078 0 0 .702.663.936 1.364v13.191s-.078.439-.663.478h-15.672s-.67.039-.67-.897z" fill="url(#T)"/><path d="m809.426 328.799c.115 0 .21.095.21.21v11.415c0 .115-.094.21-.21.21h-11.508c-.115 0-.21-.094-.21-.21v-11.415c0-.115.094-.21.21-.21z" fill="url(#U)"/><path d="m803.703 328.799v1.739h-1.176v2.03h1.176v4.304h-1.176v1.995h1.145l.031 1.767" fill="none" stroke="#817c7c" stroke-miterlimit="10" stroke-width=".105"/><path d="m795.181 373.664v-33.363s-.072-.42.365-.42h16.237s.447-.008.447.537v33.246s-.667 1.184-1.155 1.334c0 0-6.874 2.366-14.912 0 0 0-.537-.302-.982-1.334z" fill="url(#V)"/><path d="m801.863 332.816c.058 0 .105.047.105.105v1.975c0 .058-.047.105-.105.105h-2.42c-.058 0-.105-.047-.105-.105v-1.975c0-.058.047-.105.105-.105z" fill="#070308"/><path d="m799.558 334.581c0 .058.047.105.105.105h2.305v-1.766c0-.058-.047-.105-.105-.105h-2.305z" fill="#363536"/><path d="m807.9 332.816c.058 0 .105.047.105.105v1.975c0 .058-.047.105-.105.105h-2.42c-.058 0-.105-.047-.105-.105v-1.975c0-.058.047-.105.105-.105z" fill="#070308"/><path d="m805.596 334.581c0 .058.047.105.105.105h2.305v-1.766c0-.058-.047-.105-.105-.105h-2.305z" fill="#363536"/><path d="m803.764 344.981-1.342 2.382h.953v6.699c-1.109-.038-1.382-.697-1.382-.697-.312-.697-.299-1.505-.276-1.841.473-.174.811-.627.811-1.16 0-.683-.554-1.237-1.237-1.237s-1.237.554-1.237 1.237c0 .558.37 1.029.877 1.183-.053.922.157 1.699.157 1.699.296 1.366 1.653 1.577 2.287 1.6v1.914c-.492.163-.847.626-.847 1.173 0 .683.554 1.237 1.237 1.237s1.237-.554 1.237-1.237c0-.544-.352-1.005-.841-1.171v-3.189c2.52-.114 2.43-2.317 2.43-2.317v-1.203h.667v-2.025h-2.025v2.025h.572v1.167c-.02 1.401-1.251 1.574-1.644 1.594v-5.453h1.072z" fill="#5a605f"/></svg>