<svg enable-background="new 0 0 247.9 135.739" viewBox="0 0 247.9 135.739" xmlns="http://www.w3.org/2000/svg" xmlns:xlink="http://www.w3.org/1999/xlink"><linearGradient id="a"><stop offset=".55" stop-color="#070308"/><stop offset="1" stop-color="#070308" stop-opacity="0"/></linearGradient><radialGradient id="b" cx="841.6136" cy="547.3396" gradientTransform="matrix(.707 .707 -.707 .707 -85.0212 -970.3008)" gradientUnits="userSpaceOnUse" r="64.025" xlink:href="#a"/><radialGradient id="c" cx="841.6127" cy="595.1022" gradientTransform="matrix(.707 .707 .707 -.707 -1003.9313 -51.3897)" gradientUnits="userSpaceOnUse" r="64.0263" xlink:href="#a"/><linearGradient id="d" gradientUnits="userSpaceOnUse" x1="52.1867" x2="83.5322" y1="83.5502" y2="52.2047"><stop offset="0" stop-color="#fff" stop-opacity="0"/><stop offset=".429" stop-color="#fff" stop-opacity=".214"/><stop offset=".5" stop-color="#fff" stop-opacity=".25"/><stop offset=".572" stop-color="#fff" stop-opacity=".214"/><stop offset="1" stop-color="#fff" stop-opacity="0"/></linearGradient><radialGradient id="e" cx="67.8533" cy="647.6307" gradientTransform="matrix(1 0 0 -1 0 715.515)" gradientUnits="userSpaceOnUse" r="24.6519"><stop offset="0" stop-color="#c23435"/><stop offset="1" stop-color="#b32215"/></radialGradient><radialGradient id="f" cx="890.3092" cy="498.8666" gradientTransform="matrix(.707 .707 -.707 .707 -85.0212 -970.3008)" gradientUnits="userSpaceOnUse" r="64.0243" xlink:href="#a"/><radialGradient id="g" cx="890.3096" cy="643.5751" gradientTransform="matrix(.707 .707 .707 -.707 -1003.9313 -51.3897)" gradientUnits="userSpaceOnUse" r="64.0243" xlink:href="#a"/><linearGradient id="h" gradientUnits="userSpaceOnUse" x1="120.8698" x2="152.2469" y1="83.7328" y2="52.3551"><stop offset="0" stop-color="#221e1f" stop-opacity="0"/><stop offset=".5" stop-color="#fff" stop-opacity=".25"/><stop offset="1" stop-color="#221e1f" stop-opacity="0"/></linearGradient><radialGradient id="i" cx="136.5595" cy="647.4728" gradientTransform="matrix(1 0 0 -1 0 715.515)" gradientUnits="userSpaceOnUse" r="24.6519"><stop offset="0" stop-color="#309dcd"/><stop offset="1" stop-color="#186aac"/></radialGradient><linearGradient id="j"><stop offset="0" stop-color="#87888c"/><stop offset=".0788" stop-color="#969eaf"/><stop offset=".0955" stop-color="#828793"/><stop offset=".1256" stop-color="#656970"/><stop offset=".1588" stop-color="#515457"/><stop offset=".1958" stop-color="#434545"/><stop offset=".2386" stop-color="#3a3b3a"/><stop offset=".2927" stop-color="#343634"/><stop offset=".3941" stop-color="#323433"/><stop offset=".5961" stop-color="#353635"/><stop offset=".6725" stop-color="#323232"/><stop offset=".7881" stop-color="#2c292a"/><stop offset=".8916" stop-color="#231c20"/><stop offset=".9803" stop-color="#2f2c2f"/></linearGradient><linearGradient id="k" gradientTransform="matrix(0 -1 1 0 49.1784 226.6407)" gradientUnits="userSpaceOnUse" x1="149.4922" x2="149.4922" xlink:href="#j" y1="181.6615" y2="198.6661"/><linearGradient id="l" gradientTransform="matrix(0 -1 1 0 49.1784 226.6407)" gradientUnits="userSpaceOnUse" x1="132.2352" x2="132.2352" y1="184.1999" y2="196.1273"><stop offset="0" stop-color="#b2b3b0"/><stop offset=".0788" stop-color="#fefdee"/><stop offset=".0811" stop-color="#fdfded"/><stop offset=".1301" stop-color="#f0ece1"/><stop offset=".187" stop-color="#e5dfd7"/><stop offset=".2589" stop-color="#dfd8d2"/><stop offset=".3941" stop-color="#ddd5d0"/><stop offset=".5961" stop-color="#cac3bf"/><stop offset=".8404" stop-color="#d0c9c6"/><stop offset=".8916" stop-color="#d2cbc8"/><stop offset=".9803" stop-color="#7a7575"/></linearGradient><linearGradient id="m" gradientTransform="matrix(0 -1 1 0 49.1784 226.6407)" gradientUnits="userSpaceOnUse" x1="108.9864" x2="108.9864" xlink:href="#j" y1="181.6677" y2="198.7213"/><path d="m114.91 20.826c-12.57-12.569-29.282-19.491-47.057-19.491s-34.488 6.922-47.056 19.491c-12.57 12.57-19.492 29.282-19.492 47.057 0 17.777 6.922 34.489 19.492 47.058 12.57 12.57 29.281 19.492 47.056 19.492s34.487-6.921 47.056-19.49c12.55-12.55 19.462-29.263 19.462-47.059 0-17.795-6.912-34.507-19.461-47.058zm-47.401 48.822c-1.07 0-1.936-.866-1.936-1.936s.868-1.936 1.936-1.936 1.936.868 1.936 1.936c0 1.069-.868 1.936-1.936 1.936z" fill="#333"/><path d="m67.853 2.639c17.427 0 33.811 6.787 46.135 19.11 25.439 25.439 25.439 66.831 0 92.27-12.324 12.322-28.707 19.109-46.135 19.109s-33.812-6.786-46.135-19.11c-12.322-12.323-19.109-28.707-19.109-46.135s6.786-33.81 19.11-46.133c12.323-12.324 28.707-19.111 46.134-19.111m0-2.609c-18.125 0-35.164 7.058-47.98 19.875-12.815 12.815-19.873 29.854-19.873 47.978 0 18.125 7.058 35.165 19.873 47.98 12.816 12.816 29.855 19.875 47.98 19.875 18.123 0 35.162-7.058 47.979-19.874 12.796-12.796 19.844-29.836 19.844-47.981 0-18.143-7.048-35.183-19.844-47.979-12.816-12.815-29.855-19.874-47.979-19.874z" fill="#070308"/><path d="m113.977 21.588c-25.472-25.474-66.773-25.474-92.247 0l92.247 92.247c25.474-25.474 25.474-66.773 0-92.247z" fill="url(#b)"/><path d="m21.73 113.837c-25.475-25.474-25.474-66.775 0-92.248l92.247 92.247c-25.473 25.474-66.774 25.474-92.247.001z" fill="url(#c)"/><g fill="none" stroke="#070308" stroke-width=".3261"><circle cx="67.853" cy="67.884" r="58"/><circle cx="67.853" cy="67.884" r="52.333"/><circle cx="67.853" cy="67.884" r="42.95"/><circle cx="67.853" cy="67.884" r="36.033"/></g><path d="m67.853 37.015c-17.048 0-30.869 13.821-30.869 30.869 0 17.049 13.821 30.869 30.869 30.869s30.869-13.821 30.869-30.869-13.82-30.869-30.869-30.869zm-.344 32.633c-1.07 0-1.936-.866-1.936-1.936s.868-1.936 1.936-1.936 1.936.868 1.936 1.936c0 1.069-.868 1.936-1.936 1.936z" fill="#070308"/><path d="m40.119 8.792c-6.402 3.01-12.323 7.084-17.551 12.129l-1.678 1.678c-5.04 5.222-9.111 11.138-12.12 17.532l86.834 86.836c6.379-3.001 12.283-7.06 17.496-12.082l1.717-1.717c5.105-5.293 9.141-11.242 12.103-17.571zm27.39 60.856c-1.07 0-1.936-.866-1.936-1.936s.868-1.936 1.936-1.936 1.936.868 1.936 1.936c0 1.069-.868 1.936-1.936 1.936z" fill="url(#d)"/><path d="m67.853 43.233c-13.615 0-24.652 11.037-24.652 24.651s11.037 24.652 24.652 24.652 24.652-11.037 24.652-24.652-11.036-24.651-24.652-24.651zm-.344 26.415c-1.07 0-1.936-.866-1.936-1.936s.868-1.936 1.936-1.936 1.936.868 1.936 1.936c0 1.069-.868 1.936-1.936 1.936z" fill="url(#e)" stroke="#070308" stroke-width=".3261"/><path d="m76.647 66.669c-.309-.003-.543.085-.703.264-.055.057-.098.086-.132.086-.02 0-.037-.009-.05-.027-.015-.018-.022-.039-.022-.064 0-.048.052-.107.155-.176.21-.142.493-.212.848-.212.267 0 .488.05.664.15.097.052.172.124.224.212.052.089.078.187.078.294 0 .179-.072.322-.217.425-.134.096-.3.157-.497.179-.104.012-.171.02-.199.026l.316.044c.237.029.422.104.556.228.115.104.172.237.172.398 0 .157-.054.297-.163.423-.212.245-.561.367-1.048.367-.371 0-.665-.073-.883-.22-.144-.095-.215-.185-.215-.269 0-.022.007-.04.023-.054s.035-.022.057-.022c.028 0 .049.007.063.021.013.013.037.048.068.103.043.078.117.144.224.191.183.083.381.124.596.124l.087-.001v-1.275h-.288c-.063 0-.103-.003-.119-.01s-.024-.025-.024-.052c0-.031.008-.05.025-.059.015-.007.056-.011.121-.011h.287l-.001-1.083zm2.53 0c-.308-.003-.541.085-.703.264-.055.057-.098.086-.132.086-.018 0-.036-.009-.05-.027-.015-.018-.022-.039-.022-.064 0-.048.052-.107.155-.176.21-.142.493-.212.848-.212.267 0 .488.05.664.15.097.052.172.124.224.212.052.089.078.187.078.294 0 .179-.072.322-.215.425-.134.096-.3.157-.498.179-.104.012-.171.02-.199.026l.315.044c.237.029.422.104.556.228.115.104.172.237.172.398 0 .157-.055.297-.164.423-.211.245-.561.367-1.047.367-.37 0-.665-.073-.883-.22-.145-.095-.217-.185-.217-.269 0-.022.008-.04.023-.054.016-.014.035-.022.057-.022.029 0 .05.007.064.021s.037.048.068.103c.043.078.117.144.224.191.183.083.381.124.596.124l.086-.001v-1.275h-.288c-.064 0-.104-.003-.119-.01-.016-.007-.024-.025-.024-.052 0-.031.008-.05.024-.059.015-.007.056-.011.121-.011h.287zm2.33-.083-.008.545.008.748v.031h-.551v-.031l.008-.76v-.322l-.018.007-.138.042c-.013.005-.026.008-.037.008-.02 0-.029-.011-.029-.033 0-.016.005-.026.014-.033.01-.007.039-.014.087-.026l.239-.063.091-.024zm1.145-.287c.023-.001.043.005.061.02.016.015.026.033.026.051 0 .013-.015.052-.044.114-.029.061-.128.272-.299.631l-.771 1.628-.21.444c-.039.083-.063.137-.072.16-.033.082-.072.123-.116.123-.02 0-.038-.008-.052-.021-.016-.013-.023-.03-.023-.048 0-.02.015-.06.046-.123l.074-.16.602-1.264.376-.797.176-.369c.097-.21.152-.327.166-.352.015-.023.034-.036.06-.037zm.199 1.644c-.155-.002-.271.042-.352.132-.027.029-.049.043-.065.043-.01 0-.018-.004-.026-.013-.007-.009-.011-.02-.011-.033 0-.023.026-.052.077-.087.106-.07.248-.106.424-.106.133 0 .244.025.333.074.048.026.085.062.111.106s.039.093.039.147c0 .091-.036.161-.108.213-.067.048-.15.078-.248.09-.052.007-.086.01-.1.013l.158.022c.119.014.211.053.278.114.057.052.087.119.087.2 0 .078-.028.15-.083.211-.106.122-.28.183-.524.183-.185 0-.333-.037-.441-.11-.072-.048-.108-.093-.108-.135 0-.012.004-.02.013-.028.007-.007.016-.011.027-.011.013 0 .024.003.031.011.007.007.018.024.035.051.022.04.059.072.112.095.091.042.189.063.297.063h.043v-.638h-.145c-.033 0-.052-.001-.06-.005s-.013-.013-.013-.026c0-.016.005-.026.013-.03.008-.003.029-.005.061-.005h.145zm2.083 1.057c.061.042.127.078.198.108.07.029.147.052.228.069.02.004.029.013.029.029 0 .02-.013.031-.043.031-.068 0-.162-.029-.282-.089-.1-.048-.215-.124-.346-.227v.039l.001.163v.091h-.583v-.042l.001-.313.003-.372-.002-.577h.385c.172 0 .301.005.389.014.088.01.163.027.224.053.101.042.181.111.239.209.054.089.081.181.081.28 0 .104-.029.202-.09.295-.095.15-.24.229-.432.239zm-.091-.059h.046c.13 0 .241-.037.333-.11.057-.046.1-.103.13-.173.029-.063.044-.127.044-.192 0-.112-.037-.211-.109-.3-.055-.067-.124-.115-.209-.144-.083-.027-.2-.042-.351-.044l-.009.639v.174l.001.044c.039.038.081.073.124.106zm1.374.04v.234h-.582v-.059l.005-.672-.004-.318v-.216l-.002-.039h.437c.176 0 .313.008.404.023.093.014.17.042.232.082.085.052.15.127.196.22.035.072.052.147.052.226 0 .085-.02.167-.059.245-.048.094-.115.164-.202.215-.085.05-.185.074-.299.074-.041 0-.102-.005-.179-.017zm0-1.004v.064l-.003.639.002.237c.05.013.116.02.196.02.072 0 .14-.013.205-.042s.119-.068.163-.121c.076-.089.115-.191.115-.309 0-.111-.039-.213-.113-.302-.053-.065-.123-.111-.207-.141-.085-.029-.194-.043-.327-.043h-.029v-.002zm2.233-.111.207.711.095.316.085.285.012.037h-.581l-.183-.676-.395.594-.404-.564c-.039.137-.082.307-.128.507-.016.076-.029.122-.036.135-.007.014-.022.022-.044.022-.028 0-.042-.01-.042-.029 0-.007.008-.039.026-.097l.059-.204.104-.351.202-.687.522.759.5-.759z" fill="#fff"/><path d="m54.829 69.719c.048-.048.121-.072.219-.072.104 0 .185.028.239.082.048.048.072.104.072.17h-.117c0-.042-.014-.074-.042-.102-.031-.031-.078-.046-.144-.046-.07 0-.12.014-.147.042-.023.023-.036.05-.036.082 0 .031.008.052.021.067.017.016.048.034.091.051.078.034.167.072.265.117.026.01.052.027.076.051.038.038.056.082.056.132 0 .068-.023.124-.072.174-.05.05-.134.076-.249.076-.112 0-.199-.031-.26-.091-.044-.044-.067-.111-.067-.194h.117c0 .061.013.104.041.132.038.038.095.057.174.057.07 0 .124-.018.157-.051.028-.029.042-.055.042-.082 0-.031-.01-.056-.031-.076-.017-.017-.044-.035-.082-.051-.034-.018-.078-.039-.132-.062-.062-.028-.111-.049-.149-.067-.027-.011-.051-.026-.072-.046-.03-.03-.046-.07-.046-.122.001-.065.025-.121.072-.17zm.652-.061h.698v.097h-.29v.775h-.117v-.775h-.29v-.097zm.82 0h.561v.097h-.444v.27h.413v.097h-.413v.311h.47v.096h-.587zm.76-.005h.428c.068 0 .124.022.17.067.044.044.065.106.065.183 0 .08-.022.141-.065.184-.024.023-.059.039-.102.046l.199.393h-.127l-.183-.377h-.266v.377h-.117v-.871zm.118.097v.3h.3c.035 0 .064-.013.087-.035.023-.024.035-.061.035-.112 0-.048-.013-.085-.041-.112-.026-.028-.059-.041-.096-.041zm.677-.092h.561v.097h-.444v.27h.412v.097h-.413v.311h.47v.096h-.587zm.852.097c.07-.072.157-.107.259-.107s.189.036.26.107c.082.082.123.194.123.337s-.041.256-.123.337c-.072.07-.158.106-.26.106s-.189-.036-.26-.106c-.082-.082-.124-.194-.124-.337s.042-.255.125-.337zm.085.066c-.057.059-.086.149-.086.27 0 .123.029.212.087.27.052.051.11.076.174.076s.123-.026.174-.076c.059-.059.087-.148.087-.27s-.029-.211-.087-.27c-.051-.051-.109-.076-.174-.076s-.123.025-.174.076z" fill="#fff"/><path d="m47.684 68.525c.02 0 .044.015.072.047.087.095.192.17.317.227.124.057.248.086.37.086.134 0 .202-.041.202-.123 0-.052-.023-.111-.07-.176s-.16-.194-.339-.386c-.224-.243-.374-.424-.448-.541-.1-.155-.15-.303-.15-.444 0-.211.095-.385.284-.519.185-.132.414-.198.685-.198.191 0 .365.039.524.115.059.03.111.065.153.104.044.039.065.072.065.098 0 .013-.007.024-.018.035-.013.01-.025.016-.037.016-.02 0-.048-.018-.086-.053-.063-.059-.144-.108-.245-.146-.102-.038-.199-.059-.292-.059-.059 0-.104.013-.141.038-.038.025-.055.057-.055.096 0 .047.023.104.068.173.045.068.121.159.228.271.338.361.545.603.621.729.08.132.119.26.119.383 0 .104-.028.204-.085.296-.056.095-.134.17-.235.23-.19.115-.424.171-.698.171-.254 0-.476-.067-.669-.197-.135-.093-.202-.164-.202-.217 0-.014.007-.028.017-.04.012-.013.026-.02.042-.02zm3.024-1.485v.05l-.004.269-.003.417-.005.637.007.357.004.157h-.887l.008-.637.005-.561-.004-.296-.005-.327.002-.065zm-.447-.604c.304 0 .457.08.457.238 0 .077-.041.137-.121.181-.08.043-.193.065-.338.065-.289 0-.434-.082-.434-.246 0-.157.146-.235.436-.238zm3.095.133-.003.845-.002.598.005.838v.078h-.883v-.225c-.095.095-.186.163-.274.202-.089.041-.188.062-.3.062-.219 0-.414-.081-.584-.243-.211-.2-.316-.45-.316-.757 0-.298.102-.539.307-.724.179-.165.384-.248.609-.248.1 0 .197.02.291.057s.184.095.272.171l-.007-.652h.884zm-.877.794c-.09-.082-.172-.144-.243-.183-.072-.041-.135-.061-.19-.061-.044 0-.073.016-.089.048-.014.031-.023.091-.023.179l.002.076v1.161c0 .094.005.15.013.174.013.05.046.075.099.075.057 0 .119-.022.183-.065.064-.044.148-.117.249-.226zm1.967.676v.535c0 .102.007.17.02.196.023.053.08.08.17.08.134 0 .266-.037.398-.11.129-.073.243-.175.339-.303.031-.042.052-.069.067-.082.013-.013.028-.016.044-.016.02 0 .036.007.048.022.013.013.02.033.02.053 0 .048-.039.115-.115.196-.101.104-.227.19-.378.257-.149.065-.296.098-.439.098-.245 0-.462-.083-.649-.248-.11-.097-.194-.217-.252-.359-.052-.124-.078-.248-.078-.372 0-.121.023-.24.069-.36.046-.121.11-.224.189-.312.095-.102.205-.183.333-.239.125-.055.257-.083.394-.083.213 0 .406.063.579.189.269.196.402.479.401.851h-.402l-.519.001-.236.003zm.442-.115v-.502c-.003-.109-.005-.174-.007-.194-.003-.022-.011-.041-.025-.059-.033-.046-.098-.068-.197-.068-.101 0-.164.026-.189.078-.016.031-.025.112-.025.243v.502l.211.008.231-.007zm3.096-1.497 1.381 2.5h-1.198l-.166-.315h-.579l-.509-.003-.087-.001-.114.211c-.033.065-.056.103-.069.119s-.03.023-.05.023c-.039 0-.059-.016-.059-.052 0-.013.011-.042.033-.083.023-.041.102-.175.236-.402l1.046-1.761.135-.234zm-.537 1.135-.302.507-.241.417.515.008.517-.008-.489-.926z" fill="#fff"/><circle cx="67.853" cy="67.884" fill="none" r="22.187" stroke="#c23435" stroke-width=".3261"/><path d="m67.508 61.077c-3.664 0-6.634 2.971-6.634 6.634 0 3.665 2.971 6.635 6.634 6.635 3.665 0 6.635-2.971 6.635-6.635 0-3.665-2.971-6.634-6.634-6.634zm.001 8.571c-1.07 0-1.936-.868-1.936-1.937 0-1.068.868-1.935 1.936-1.935s1.936.868 1.936 1.936c0 1.069-.868 1.936-1.936 1.936z" fill="#be2518" stroke="#c23435" stroke-width=".3261"/><path d="m183.283 20.802c-12.572-12.573-29.288-19.497-47.067-19.497-17.78 0-34.496 6.925-47.068 19.497-25.953 25.953-25.953 68.181 0 94.135 12.572 12.572 29.288 19.497 47.068 19.497 17.779 0 34.495-6.924 47.067-19.497 12.553-12.553 19.468-29.268 19.468-47.068s-6.915-34.515-19.468-47.067zm-47.067 49.004c-1.07 0-1.936-.866-1.936-1.936s.868-1.936 1.936-1.936c1.07 0 1.937.868 1.937 1.936-.001 1.069-.868 1.936-1.937 1.936z" fill="#333"/><path d="m136.216 2.609c17.431 0 33.819 6.789 46.145 19.115 25.446 25.445 25.446 66.845 0 92.291-12.326 12.326-28.714 19.115-46.145 19.115-17.432 0-33.82-6.788-46.146-19.114-25.446-25.446-25.446-66.845 0-92.289 12.325-12.327 28.713-19.118 46.146-19.118m-.001-2.609c-18.127 0-35.172 7.06-47.99 19.879-26.461 26.461-26.461 69.518 0 95.981 12.819 12.818 29.862 19.879 47.991 19.879 18.127 0 35.172-7.059 47.989-19.879 12.801-12.8 19.849-29.844 19.849-47.99 0-18.148-7.049-35.191-19.849-47.99-12.819-12.82-29.862-19.879-47.99-19.88z" fill="#070308"/><path d="m182.683 21.746c-25.472-25.474-66.773-25.474-92.247 0l92.247 92.247c25.475-25.474 25.475-66.774 0-92.247z" fill="url(#f)"/><path d="m90.435 113.994c-25.474-25.474-25.472-66.775.001-92.248l92.247 92.247c-25.473 25.475-66.774 25.475-92.248.001z" fill="url(#g)"/><circle cx="136.559" cy="68.042" fill="none" r="58" stroke="#070308" stroke-width=".3261"/><circle cx="136.559" cy="68.042" fill="none" r="52.333" stroke="#070308" stroke-width=".3261"/><circle cx="136.559" cy="68.042" fill="none" r="42.949" stroke="#070308" stroke-width=".3261"/><circle cx="136.559" cy="68.042" fill="none" r="36.033" stroke="#070308" stroke-width=".3261"/><path d="m136.559 37.173c-17.049 0-30.869 13.821-30.869 30.869 0 17.049 13.821 30.869 30.869 30.869s30.869-13.821 30.869-30.869-13.82-30.869-30.869-30.869zm-.343 32.633c-1.07 0-1.936-.866-1.936-1.936s.868-1.936 1.936-1.936c1.07 0 1.937.868 1.937 1.936-.001 1.069-.868 1.936-1.937 1.936z" fill="#070308"/><path d="m108.824 8.933c-6.192 2.911-11.937 6.816-17.038 11.634l-2.702 2.704c-4.873 5.164-8.743 10.934-11.609 17.061l86.817 86.821c6.19-2.909 11.937-6.813 17.036-11.63l2.712-2.711c4.871-5.162 8.738-10.931 11.604-17.055zm27.392 60.872c-1.07 0-1.936-.866-1.936-1.935 0-1.07.868-1.936 1.936-1.936 1.07 0 1.937.868 1.937 1.936-.001 1.069-.868 1.936-1.937 1.935z" fill="url(#h)"/><path d="m136.559 43.39c-13.615 0-24.652 11.037-24.652 24.651s11.037 24.652 24.652 24.652 24.652-11.037 24.652-24.652-11.036-24.651-24.652-24.651zm-.343 26.416c-1.07 0-1.936-.866-1.936-1.936s.868-1.936 1.936-1.936c1.07 0 1.937.868 1.937 1.936-.001 1.069-.868 1.936-1.937 1.936z" fill="url(#i)" stroke="#070308" stroke-width=".3261"/><path d="m145.369 66.829c-.309-.004-.543.085-.703.264-.055.057-.098.086-.13.086-.02 0-.038-.009-.052-.027-.013-.018-.021-.039-.021-.064 0-.048.051-.107.154-.176.21-.142.493-.212.848-.212.267 0 .489.05.665.15.096.052.172.124.224.212.052.089.078.187.078.294 0 .179-.072.322-.217.425-.133.097-.3.157-.497.179-.104.012-.171.02-.199.026l.315.044c.237.029.422.104.556.228.116.104.174.237.174.398 0 .157-.055.297-.164.424-.211.244-.56.367-1.046.367-.37 0-.665-.073-.883-.22-.145-.095-.215-.185-.215-.269 0-.022.007-.039.023-.054s.036-.022.057-.022c.028 0 .049.008.064.021.013.013.037.048.068.102.042.078.117.144.224.191.183.085.381.126.596.126l.086-.002v-1.275h-.289c-.064 0-.103-.003-.119-.01s-.023-.025-.023-.052c0-.031.008-.05.023-.059.015-.007.057-.011.122-.011h.287l-.003-1.083zm2.531 0c-.309-.004-.543.085-.703.264-.055.057-.098.086-.13.086-.02 0-.038-.009-.052-.027-.013-.018-.021-.039-.021-.064 0-.048.052-.107.154-.176.211-.142.494-.212.85-.212.265 0 .487.05.663.15.097.052.172.124.224.212.052.089.078.187.078.294 0 .179-.072.322-.215.425-.134.097-.3.157-.498.179-.104.012-.171.02-.199.026l.315.044c.236.029.421.104.556.228.115.104.173.237.173.398 0 .157-.055.297-.164.424-.211.244-.56.367-1.046.367-.372 0-.667-.073-.884-.22-.143-.095-.215-.185-.215-.269 0-.022.007-.039.023-.054s.035-.022.057-.022c.028 0 .049.008.064.021.013.013.037.048.068.102.042.078.117.144.223.191.183.085.381.126.596.126l.087-.002v-1.275h-.29c-.064 0-.103-.003-.119-.01s-.024-.025-.024-.052c0-.031.008-.05.024-.059.014-.007.056-.011.121-.011h.287v-1.084zm2.329-.085-.008.545.008.748v.031h-.551v-.031l.008-.76.001-.28v-.04l-.02.007-.137.042c-.014.005-.026.008-.037.008-.02 0-.029-.011-.029-.033 0-.016.005-.026.014-.033.01-.007.039-.014.087-.026l.239-.063.091-.025.333-.091zm1.144-.287c.023-.001.044.005.062.02.016.015.025.033.025.051 0 .013-.014.052-.042.114-.029.061-.128.272-.3.631l-.77 1.628-.211.444c-.039.083-.064.137-.072.16-.034.082-.07.123-.117.123-.02 0-.037-.008-.052-.021-.014-.013-.022-.03-.022-.048 0-.02.016-.06.046-.123l.074-.16.603-1.264.376-.797.176-.369c.097-.21.153-.327.167-.352.012-.024.032-.037.057-.037zm.2 1.644c-.154-.002-.271.042-.352.132-.027.029-.049.043-.065.043-.011 0-.018-.004-.026-.013-.007-.009-.012-.02-.012-.033 0-.023.026-.052.078-.087.104-.07.247-.106.423-.106.133 0 .244.025.333.074.048.026.085.062.111.106s.04.093.04.147c0 .091-.037.161-.108.213-.067.048-.15.078-.248.09-.052.007-.086.01-.1.013l.157.022c.119.014.212.053.279.114.057.052.087.119.087.2 0 .078-.028.15-.083.211-.106.122-.28.183-.524.183-.185 0-.333-.037-.441-.11-.072-.048-.108-.093-.108-.135 0-.012.004-.02.013-.028.008-.007.016-.011.028-.011.014 0 .024.003.031.011.008.007.018.024.035.051.022.04.061.072.113.095.091.042.19.063.298.063h.043v-.638h-.145c-.033 0-.052-.001-.06-.005s-.013-.013-.013-.026c0-.016.005-.026.013-.03s.029-.005.061-.005h.144zm2.083 1.057c.062.042.127.078.198.108.07.029.147.052.228.069.02.004.03.013.03.029 0 .02-.013.031-.043.031-.067 0-.161-.029-.282-.089-.1-.048-.215-.124-.346-.227v.039l.001.163v.091h-.582v-.042l.001-.313.003-.372-.003-.577h.385c.172 0 .3.005.389.014.088.01.162.027.224.053.1.042.179.111.238.209.055.089.082.181.082.28 0 .104-.031.202-.091.295-.095.15-.241.23-.432.239zm-.091-.059h.046c.13 0 .241-.037.331-.11.057-.046.102-.103.132-.173.029-.063.043-.127.043-.192 0-.112-.037-.211-.109-.3-.056-.067-.125-.115-.209-.144-.083-.027-.201-.042-.351-.044l-.01.639v.174l.001.044c.04.039.082.073.126.106zm1.373.04v.234h-.582l.001-.059.005-.672-.004-.318v-.217l-.002-.039h.437c.176 0 .313.008.404.023.093.014.17.042.232.082.083.052.149.127.194.22.035.072.052.147.052.226 0 .085-.02.167-.059.245-.048.094-.115.164-.202.215-.086.05-.185.074-.299.074-.039 0-.101-.005-.179-.017zm0-1.005v.064l-.003.639.003.237c.05.013.116.02.196.02.072 0 .141-.013.205-.042.065-.029.119-.068.163-.121.076-.089.115-.191.115-.309 0-.111-.039-.213-.114-.302-.053-.065-.123-.111-.207-.141-.085-.029-.194-.043-.326-.043h-.03zm2.234-.109.207.711.095.315.085.285.012.037h-.582l-.183-.675-.394.594-.404-.564c-.039.137-.082.307-.127.506-.015.076-.028.121-.036.135s-.022.022-.044.022c-.028 0-.041-.01-.041-.029 0-.007.009-.038.026-.097l.059-.204.104-.352.202-.686.523.759z" fill="#fff"/><path d="m123.551 69.877c.048-.048.121-.072.219-.072.106 0 .185.028.239.082.048.048.072.104.072.17h-.117c0-.042-.014-.074-.042-.102-.031-.031-.078-.046-.144-.046-.07 0-.12.014-.148.042-.023.023-.037.05-.037.082 0 .031.008.052.02.067.017.016.048.034.093.051.078.034.167.072.265.117.027.01.052.027.076.051.037.038.055.082.055.132 0 .068-.023.124-.072.174-.05.05-.134.076-.249.076-.112 0-.199-.031-.26-.091-.043-.044-.067-.111-.067-.194h.117c0 .061.013.104.041.132.038.038.095.057.174.057.072 0 .124-.018.158-.051.027-.029.041-.055.041-.082 0-.031-.011-.056-.031-.076-.017-.017-.044-.035-.082-.051-.035-.018-.078-.039-.132-.062-.061-.028-.111-.049-.149-.067-.027-.011-.051-.026-.07-.046-.031-.03-.046-.07-.046-.122 0-.065.023-.121.072-.17zm.652-.061h.698v.097h-.29v.775h-.117v-.775h-.29v-.097zm.82 0h.56v.097h-.444v.27h.413v.097h-.413v.311h.47v.096h-.586zm.761-.005h.427c.068 0 .124.022.168.067.044.044.067.106.067.183 0 .08-.022.141-.067.184-.023.023-.057.039-.102.046l.2.393h-.127l-.184-.377h-.265v.377h-.117v-.873h-.001zm.116.096v.3h.3c.035 0 .064-.013.087-.035.023-.024.036-.061.036-.112 0-.048-.013-.085-.041-.112-.027-.028-.06-.041-.097-.041zm.677-.091h.561v.097h-.445v.27h.413v.097h-.413v.311h.47v.096h-.586zm.852.097c.072-.072.158-.107.26-.107s.189.036.259.107c.082.082.123.194.123.337s-.041.256-.123.337c-.07.07-.157.106-.259.106s-.189-.036-.26-.106c-.082-.082-.123-.194-.123-.337s.041-.255.123-.337zm.086.066c-.059.059-.087.149-.087.27 0 .123.029.212.087.27.051.051.109.076.174.076s.124-.026.175-.076c.059-.059.087-.148.087-.27s-.028-.211-.086-.27c-.051-.051-.109-.076-.174-.076-.064 0-.122.025-.173.076z" fill="#fff"/><path d="m116.391 68.683c.02 0 .043.015.072.047.086.095.192.17.314.227.124.057.25.086.37.086.133 0 .202-.041.202-.123 0-.052-.022-.111-.068-.176-.047-.065-.16-.194-.339-.386-.226-.243-.374-.424-.45-.541-.098-.155-.149-.303-.149-.444 0-.211.095-.385.285-.519.186-.132.415-.198.686-.198.19 0 .365.039.524.115.06.03.111.065.153.104.044.039.065.072.065.098 0 .013-.007.024-.017.035-.014.01-.026.016-.039.016-.02 0-.047-.018-.086-.053-.063-.059-.145-.108-.245-.146-.101-.039-.199-.059-.292-.059-.059 0-.104.013-.141.038-.039.025-.055.057-.055.096 0 .047.023.104.068.173.042.068.121.159.228.271.339.361.545.603.621.729.078.132.119.261.119.383 0 .104-.028.204-.085.297-.056.094-.134.17-.235.23-.19.115-.421.171-.698.171-.254 0-.476-.065-.667-.196-.134-.094-.204-.165-.204-.217 0-.013.008-.028.018-.041s.025-.02.04-.02zm3.024-1.485v.05l-.004.269-.003.417-.005.637.007.357.004.157h-.887l.01-.637.005-.561-.004-.296-.007-.327.003-.065zm-.448-.604c.303 0 .455.08.455.238 0 .077-.041.137-.122.181-.08.043-.192.065-.339.065-.287 0-.433-.082-.433-.246.003-.157.15-.235.439-.238zm3.094.133-.003.845-.003.598.005.838v.078h-.883v-.226c-.096.095-.187.163-.274.202-.091.041-.189.062-.3.062-.219 0-.415-.081-.585-.243-.211-.2-.314-.45-.314-.758 0-.297.101-.538.307-.724.179-.163.386-.247.612-.247.098 0 .197.02.29.057.095.038.183.095.274.171l-.01-.652h.885zm-.876.794c-.09-.082-.172-.144-.243-.183-.07-.041-.135-.061-.189-.061-.044 0-.074.016-.091.048-.013.031-.022.091-.022.179l.002.076v1.161c.001.094.005.15.013.174.014.05.046.075.098.075.059 0 .121-.022.183-.065.065-.044.15-.117.25-.226zm1.967.676v.535c0 .102.007.17.02.196.023.053.08.08.17.08.134 0 .265-.037.395-.11s.244-.175.34-.303c.033-.042.053-.069.068-.082.013-.012.029-.017.046-.017.018 0 .035.007.046.02.013.015.02.033.02.055 0 .048-.039.114-.117.196-.1.104-.226.189-.377.256-.15.065-.296.098-.44.098-.245 0-.462-.082-.649-.247-.111-.097-.194-.217-.253-.359-.052-.124-.078-.248-.078-.373 0-.12.023-.24.068-.36.046-.121.11-.224.189-.312.096-.102.205-.183.333-.239.125-.055.259-.083.395-.083.213 0 .406.063.581.189.269.196.402.479.4.851h-.401l-.519.001-.235.005zm.442-.115v-.502c-.003-.109-.005-.174-.008-.194 0-.022-.01-.041-.023-.059-.033-.046-.098-.068-.197-.068-.101 0-.164.026-.189.078-.016.031-.025.112-.025.243v.502l.21.008.232-.007zm3.096-1.497 1.38 2.5h-1.198l-.167-.315h-.581l-.507-.003-.088-.001-.113.211c-.033.065-.056.103-.068.119-.013.016-.029.023-.05.023-.041 0-.059-.016-.059-.052 0-.013.012-.042.033-.083l.236-.403 1.046-1.761.135-.233zm-.537 1.135-.302.507-.241.417.515.007.517-.007z" fill="#fff"/><circle cx="136.559" cy="68.042" fill="none" r="22.187" stroke="#59accc" stroke-width=".3261"/><path d="m136.214 61.234c-3.663 0-6.634 2.971-6.634 6.635 0 3.665 2.971 6.635 6.634 6.635 3.666 0 6.636-2.971 6.636-6.635s-2.971-6.635-6.636-6.635zm.002 8.572c-1.07 0-1.936-.866-1.936-1.936s.868-1.936 1.936-1.936c1.07 0 1.937.868 1.937 1.936-.001 1.069-.868 1.936-1.937 1.936z" fill="#1f5ea4" stroke="#59accc" stroke-width=".3261"/><path d="m247.182 85.167h-15.672s-.67.039-.67-.897v.63c0 .936.67.896.67.896h15.672c.585-.039.663-.478.663-.478v-.63s-.078.44-.663.479z" fill="#373737"/><path d="m230.84 71.434s.358-.834.865-1.223c0 0 7.017-2.378 15.204-.078 0 0 .702.663.936 1.364v13.191s-.078.439-.663.478h-15.672s-.67.039-.67-.897z" fill="url(#k)"/><path d="m245.096 88.488c.115 0 .21.095.21.21v11.415c0 .115-.094.21-.21.21h-11.508c-.115 0-.21-.094-.21-.21v-11.415c0-.115.094-.21.21-.21z" fill="url(#l)"/><path d="m239.373 88.488v1.739h-1.176v2.029h1.176v4.305h-1.176v1.994h1.145l.031 1.768" fill="none" stroke="#817c7c" stroke-miterlimit="10" stroke-width=".105"/><path d="m230.851 133.353v-33.363s-.072-.42.365-.42h16.237s.447-.008.447.537v33.246s-.667 1.184-1.155 1.334c0 0-6.874 2.366-14.912 0-.001 0-.537-.302-.982-1.334z" fill="url(#m)"/><path d="m237.533 92.504c.058 0 .105.047.105.105v1.975c0 .058-.047.105-.105.105h-2.42c-.058 0-.105-.047-.105-.105v-1.975c0-.058.047-.105.105-.105z" fill="#070308"/><path d="m235.228 94.27c0 .058.047.105.105.105h2.305v-1.766c0-.058-.047-.105-.105-.105h-2.305z" fill="#363536"/><path d="m243.57 92.504c.058 0 .105.047.105.105v1.975c0 .058-.047.105-.105.105h-2.42c-.058 0-.105-.047-.105-.105v-1.975c0-.058.047-.105.105-.105z" fill="#070308"/><path d="m241.266 94.27c0 .058.047.105.105.105h2.305v-1.766c0-.058-.047-.105-.105-.105h-2.305z" fill="#363536"/><path d="m239.434 104.67-1.342 2.382h.953v6.699c-1.109-.038-1.382-.697-1.382-.697-.312-.696-.299-1.505-.276-1.841.473-.174.811-.627.811-1.16 0-.683-.554-1.237-1.237-1.237s-1.237.554-1.237 1.237c0 .558.37 1.029.877 1.183-.053.922.157 1.699.157 1.699.296 1.366 1.653 1.577 2.287 1.6v1.914c-.492.163-.847.626-.847 1.173 0 .683.554 1.237 1.237 1.237s1.237-.554 1.237-1.237c0-.544-.352-1.005-.84-1.171v-3.189c2.52-.114 2.43-2.317 2.43-2.317v-1.203h.667v-2.025h-2.025v2.025h.572v1.167c-.02 1.401-1.251 1.574-1.644 1.594v-5.453h1.072z" fill="#5a605f"/></svg>