<svg xmlns="http://www.w3.org/2000/svg" xmlns:xlink="http://www.w3.org/1999/xlink" viewBox="0 0 470.33 67.41"><defs><style>.b0728c7f-27c6-44ac-b13a-0fbba75ec619{stroke:#9def48;stroke-miterlimit:10;stroke-width:0.75px;fill:url(#b41ebc79-ed0a-4ebe-a35f-7d18e93a1b6a);}.f0a267d4-5010-4130-8676-b5de091e4a13{fill:#9def48;}.bafd7aaa-b678-4e4d-94ff-60959b27e178{fill:#17b2e7;}</style><linearGradient id="b41ebc79-ed0a-4ebe-a35f-7d18e93a1b6a" x1="0.38" y1="33.7" x2="469.96" y2="33.7" gradientUnits="userSpaceOnUse"><stop offset="0" stop-color="#032c02"/><stop offset="1" stop-color="#207a09"/></linearGradient></defs><g id="e00c5c22-ea01-41ce-a60e-f2092048bade" data-name="texte"><polygon class="b0728c7f-27c6-44ac-b13a-0fbba75ec619" points="0.38 5.91 102.44 5.91 108.57 0.38 150.31 0.38 158.22 5.91 461.65 6.11 469.96 16 469.96 59.72 50.81 59.72 42.7 67.03 7.89 67.03 0.38 59.72 0.38 5.91"/><path class="f0a267d4-5010-4130-8676-b5de091e4a13" d="M56.52,34.3V44.54H52.45v-21l4.07-4.07V30.25h6.8L75.9,20h6.59L67.4,32.28,82.49,44.54H75.9L63.28,34.3Z" transform="translate(-0.13 -0.13)"/><path class="f0a267d4-5010-4130-8676-b5de091e4a13" d="M111.72,44.54H87.57a18.18,18.18,0,0,1-4.22-12.26A18.13,18.13,0,0,1,87.57,20h24.15a18.18,18.18,0,0,1,4.22,12.25A18.23,18.23,0,0,1,111.72,44.54Zm-2.17-4.07a16.45,16.45,0,0,0,2.32-8.19,16.39,16.39,0,0,0-2.32-8.18H89.76a16.23,16.23,0,0,0-2.35,8.18,16.3,16.3,0,0,0,2.35,8.19Z" transform="translate(-0.13 -0.13)"/><path class="f0a267d4-5010-4130-8676-b5de091e4a13" d="M120.21,20h27a18.13,18.13,0,0,1,4.22,12.25,18.18,18.18,0,0,1-4.22,12.26h-27Zm4.07,20.44H145a16.47,16.47,0,0,0,2.33-8.19A16.41,16.41,0,0,0,145,24.1H124.28Z" transform="translate(-0.13 -0.13)"/><path class="f0a267d4-5010-4130-8676-b5de091e4a13" d="M160.63,44.54h-4.07v-21l4.07-4.07Z" transform="translate(-0.13 -0.13)"/></g><g id="bc08dce4-ced2-4e9f-b353-1a214adcde35" data-name="kodi"><path class="bafd7aaa-b678-4e4d-94ff-60959b27e178" d="M47.2,37.9l-6.91,6.9a1.61,1.61,0,0,1-2.54,0l-7.12-7.14a1.59,1.59,0,0,1,0-2.49L37.79,28a1.61,1.61,0,0,1,2.47,0l6.93,7a1.8,1.8,0,0,1,0,2.95Z" transform="translate(-0.13 -0.13)"/><path class="bafd7aaa-b678-4e4d-94ff-60959b27e178" d="M24,58.16,17.1,51.25a1.61,1.61,0,0,1,0-2.53l7.14-7.13a1.58,1.58,0,0,1,2.48,0l7.13,7.13a1.6,1.6,0,0,1,0,2.53l-6.94,7c-1,1-1.95.9-2.92-.07Z" transform="translate(-0.13 -0.13)"/><path class="bafd7aaa-b678-4e4d-94ff-60959b27e178" d="M16.78,22.78a2.25,2.25,0,0,1,.76-1.87c2.22-2.17,4.61-4.59,6.57-6.55a1.59,1.59,0,0,1,2.52,0l7.12,7.12a1.62,1.62,0,0,1,0,2.53L17.9,39.87c-.93.5-1.07-.17-1.09-.91C16.76,33.4,16.86,28,16.78,22.78Z" transform="translate(-0.13 -0.13)"/><path class="bafd7aaa-b678-4e4d-94ff-60959b27e178" d="M11.13,43.75c0,.61-.44,1.29-.91.82L3,37.37a1.23,1.23,0,0,1-.08-1.74L3,35.55l7.11-7.21c.65-.66,1,.19,1,.79Z" transform="translate(-0.13 -0.13)"/></g></svg>