<svg enable-background="new 0 0 263.1 318.5" viewBox="0 0 263.1 318.5" xmlns="http://www.w3.org/2000/svg" xmlns:xlink="http://www.w3.org/1999/xlink"><pattern id="a" height="2.1" overflow="visible" patternUnits="userSpaceOnUse" viewBox="0 -2.1 2.1 2.1" width="2.1" y="318.5"><path d="m0-2.1h2.1v2.1h-2.1z" fill="none"/><circle cx="1" cy="-1" fill="#4272b7" r=".4"/><path d="m0-2.1v.4c.2 0 .4-.2.4-.4z" fill="#4272b7"/><path d="m.4 0c0-.2-.2-.4-.4-.4v.4z" fill="#4272b7"/><path d="m2.1-.4c-.3 0-.5.2-.5.4h.4v-.4z" fill="#4272b7"/><path d="m2.1-2.1h-.5c0 .2.2.4.4.4v-.4z" fill="#4272b7"/></pattern><pattern id="b" patternTransform="translate(-.844 1.268)" xlink:href="#a"/><pattern id="c" patternTransform="translate(-.844 1.268)" xlink:href="#a"/><pattern id="d" patternTransform="translate(-.844 1.268)" xlink:href="#a"/><linearGradient id="e"><stop offset="0" stop-color="#ff0"/><stop offset="1" stop-color="#f00"/></linearGradient><linearGradient id="f" gradientTransform="matrix(1 0 0 -1 0 320)" gradientUnits="userSpaceOnUse" x1="7.1" x2="133.3" xlink:href="#e" y1="291.5" y2="291.5"/><linearGradient id="g" gradientTransform="matrix(-1 0 0 1 -1361.627 -946.999)" gradientUnits="userSpaceOnUse" x1="-1617.327" x2="-1491.127" xlink:href="#e" y1="975.499" y2="975.499"/><path d="m6.1 76h250.8v164.5h-250.8z" fill="#2e393f" stroke="#fff" stroke-miterlimit="10"/><path d="m231.6 162.2 7.2 2.6 8.6-2.7 4.1-9v-64.4l-2.2-5.1-2.9-1.3h-231.6l-2.9 1.3-2.2 5.1v64.4l4.1 9 8.6 2.7 6.7-2.4c28-16.3 63.2-26 101.4-26 38.1 0 73.1 9.7 101.1 25.8z" fill="#26645b"/><path d="m242.1 84.6h-27.1-4.7-159.8-4.7-27c-2.8 0-5.1 2.3-5.1 5.1v62.9c0 4.4 3.8 8 8.5 8 1.6 0 3.9-1 5.9-1.8l1.5-.6c2.4-1 17.5-7.5 17.7-7.6l2.1-.9v.1c24.7-10.3 52.7-15.7 81.1-15.7s56.4 5.4 81.1 15.7v-.1l2.1.9c.2.1 15.3 6.6 17.7 7.6l1.5.6c2 .8 4.2 1.8 5.9 1.8 4.7 0 8.5-3.6 8.5-8v-62.9c-.1-2.8-2.4-5.1-5.2-5.1zm3.6 68c0 3.6-3.1 6.5-6.9 6.5-1.3 0-3.5-.9-5.3-1.7h-.1c-.5-.2-1-.4-1.5-.6-2.4-1-17.5-7.5-17.6-7.6l-2.1-.9-1.5-.6v.1c-24.5-10-52.2-15.2-80.2-15.2s-55.7 5.3-80.2 15.2v-.1l-1.5.6-2.1.9c-.1.1-15.3 6.6-17.6 7.6-.5.2-1 .4-1.5.6h-.1c-1.8.7-3.9 1.7-5.3 1.7-3.8 0-6.9-2.9-6.9-6.5v-62.9c0-2 1.6-3.5 3.5-3.5h27.1 4.7 159.8 4.7 27.1c2 0 3.5 1.6 3.5 3.5z" fill="#fff"/><path d="m32.3 89.6c-4.3 0-9.3 4.2-9.3 19.5 0 12.6 4.8 14.1 7.4 15.2 5.9 2.5 7.2 2.6 7.2 7.7 0 4.9-2.4 7.9-6 7.9-1 0-3.8-.5-4-8.4l-5.1.9c-.2 4.8.7 17.8 7.9 17.8 7.6 0 12.4-8.2 12.4-19.7 0-4.9.6-12.5-7.4-15.7-6.3-2.8-7.5-2.9-7.5-8.5 0-1.6.9-6.5 4.6-6.5 1.6 0 4.3 1.2 4.5 8.2l5.2-.4c0-7.3-1.7-18-9.9-18z" fill="#fff"/><path d="m65.4 137.9v-9.1l-13.7 4.7.1-13 12-2.5v-8.7l-12 1.8.1-10.6 13-.9v-8.5h-18.3l-.4 53.7c6.4-2.6 12.8-4.9 19.2-6.9z" fill="#fff"/><path d="m79.8 134.1c2 0 5.8-2 7.4-6.4.1.8.3 2.8.5 4.6 1.2-.2 2.4-.5 3.6-.7.1-7.1.1-21.5.1-21.5l-10.6.2.1 7.2 5.7-.2c-.7 5.7-3.4 9.1-6 9.1s-6.9-1.9-6.9-14.5c0-9.7 3.5-14.5 6.8-14.5 1.6 0 4.6 1.2 5.5 6.7 0 .1 5.3-.1 5.3-.1-.4-5.7-3-14.1-11.4-14.1-3.2 0-11.7 3.3-11.7 22.7.1 16 6 21.5 11.6 21.5z" fill="#fff"/><path d="m158.6 129.8 1.7-8.2 8.9 1.2 1.9 9c1.8.4 3.7.7 5.5 1.1l-8.8-41.9h-6.1l-8.8 38.1c1.9.3 3.8.5 5.7.7zm6-29 3.1 14.8-6-.6z" fill="#fff"/><path d="m117.8 128.4-8.7-37.3h-6.2l-8.9 40c1.8-.3 3.7-.6 5.5-.9l1.7-8.1 9-.9 1.6 7.6c2-.2 4-.3 6-.4zm-9-13.9-6.1.5 3.1-14.7z" fill="#fff"/><path d="m198 138.5-.1-8.8-12.2-2.8v-35.8h-5.5v42.5c6 1.4 11.9 3 17.8 4.9z" fill="#fff"/><path d="m219.6 146.5v-11.3l-12.3-3.5v-40.6h-5.4v48.7c6 2 11.9 4.2 17.7 6.7z" fill="#fff"/><path d="m235.3 91.1-4.8 24.5-5.2-24.5h-6.2l8.6 35.6v21.9l5.4 2 .1-23.2 8.2-36.3z" fill="#fff"/><path d="m130.4 128h4.2v-4.8-9.5s5.5.2 5.7.2c2.1 0 3.3 1.1 3.3 4.7 0 3 .1 8.4.7 9.7 2 .1 4 .3 5.9.5 0-.2 0-1.3 0-1.3-1-.5-1.2-2.2-1.2-5.3s.6-9.9-3-11.6c2.4-1.7 3.7-4.6 3.7-8.7 0-7.6-3.9-10.9-8.8-10.9-.5 0-11.7 0-11.7 0v37zm4.3-30.2h6.4c1.5 0 3.3 1.1 3.3 4.7 0 2.6-1 4.7-2.9 4.7-.2 0-6.8 0-6.8 0z" fill="#fff"/><path d="m213.5 176.4.2-.5-.5-.1c-3-.5-9.8-2.8-11.7-4.2l-.3-.2v-9.8c0-.4 0-1.7-7.4-5.4-4.4-2.2-10.2-4.6-15.8-6.5-6.7-2.3-24.7-7.6-47.5-7.6h-.2c-22.8 0-40.8 5.3-47.5 7.6-5.6 1.9-11.3 4.3-15.8 6.5-7.4 3.7-7.4 5-7.4 5.4v9.8l-.3.2c-1.9 1.4-8.7 3.7-11.7 4.2l-.5.1.2.5c.8 2 2.9 4.3 4.8 5.1-.4 1.3-1.9 3.6-4.2 6.6l-.6.7.9-.1c3.5-.3 16.3-3.1 16.3-8.2 0-.4 0-9.3 0-9.3 2.8-1.8 6.6-3.5 10.9-5.4l.3-.1c7.5-3.3 14.5-5.2 24.9-7.4 12-2.6 29-2.6 29.8-2.6h.1c.7 0 17.8 0 29.8 2.6 10.3 2.2 17.4 4.1 24.9 7.4l.3.1c4.3 1.9 8.1 3.6 10.9 5.4v9.3c0 5 12.8 7.9 16.3 8.2l.9.1-.6-.7c-2.2-2.9-3.7-5.3-4.2-6.6 1.8-.8 3.9-3.1 4.7-5.1z"/><path d="m199.1 177.3c1.3-.3 1.6-1.2 1.7-1.7l-.4-.6c-.9-1.2-2.1-2.3-3.7-3.4v7.3c.4-.8 1.2-1.3 2.4-1.6z" fill="#fff"/><path d="m213.1 176.3c-2.9-.5-9.8-2.8-11.9-4.3v3.2c0 .5-.2 2.1-2.1 2.5s-2.5 1.4-2.5 2.9c0 4.5 12.3 7.4 15.9 7.8-1.2-1.5-3.9-5.3-4.3-7.1 1.8-.6 4.1-2.9 4.9-5z" fill="#fff"/><path d="m61.7 177.3c-1.3-.3-1.6-1.2-1.7-1.7l.4-.6c.9-1.2 2.1-2.3 3.7-3.4v7.3c-.5-.8-1.2-1.3-2.4-1.6z" fill="#fff"/><path d="m177.8 150.1c-9.7-3.3-27.2-7.6-47.3-7.6h-.2c-20.1 0-37.6 4.3-47.3 7.6-11.4 4-22.9 9.5-22.9 11.5s0 13.1 0 13.1c2.5-3.6 8.3-6.1 15.5-9.3s13.8-5 24.9-7.4 26.8-2.6 29.8-2.6h.1c3.1 0 18.7.2 29.8 2.6s17.7 4.2 24.9 7.4 13 5.7 15.5 9.3c0 0 0-11.1 0-13.1s-11.4-7.5-22.8-11.5z" fill="#fff"/><path d="m47.6 176.3c2.9-.5 9.8-2.8 11.9-4.3v3.2c0 .5.2 2.1 2.1 2.5s2.5 1.4 2.5 2.9c0 4.5-12.3 7.4-15.9 7.8 1.2-1.5 3.9-5.3 4.3-7.1-1.8-.6-4-2.9-4.9-5z" fill="#fff"/><path d="m73.9 154.7c-.6 0-4.9 1-4.9 5.9 0 4 3.2 3.8 3.5 3.8.6 0 5.2-.6 5.4-4.7l-2 .6c0 1.2-1.5 2.4-2.6 2.4-1.2 0-2.3-.9-2.3-2.5 0-2.1 1.2-3.7 2.7-3.7s1.8.9 1.8 1l2-.6c-.4-1.2-.9-2.2-3.6-2.2z"/><path d="m89.2 149.4-1.9.6v3.4l-3.7 1.2c0-1.5 0-3.6 0-3.6l-2 .6-.1 9.4 2.1-.7v-4.1l3.8-1.1.1 4.1 2-.7z"/><path d="m101.9 155.7-3.3-8.5-2.2.5-3.8 10.2 2.2-.5.7-2.1 3.5-.9.6 1.8zm-5.8-2.1 1.3-4 1.2 3.4z"/><path d="m113.8 154.3-.1-9.3-2.7.4-1.8 7.4-1.5-7-2.8.3-.4 9.4 1.9-.3.2-7.6 1.6 7.3 1.9-.2 1.9-7.9v7.6z"/><path d="m123.8 145.1c-.7-.7-1.6-.7-1.8-.7-.3 0-4.3.2-4.3.2l-.3 9.3h2l.1-3.4c.4 0 1.9-.1 2.5-.2.8-.1 1.3-.3 1.9-.8.6-.6.8-1.6.8-2.1s-.2-1.5-.9-2.3zm-2.1 3.8c-.6.1-1.7.1-2.2.1l.1-2.8h2c.6 0 1.2.3 1.2 1.1.1.9-.4 1.5-1.1 1.6z"/><path d="m127.9 144.1v9.3h2v-9.3z"/><path d="m137.6 144.2c-2.5 0-4.6 1.5-4.6 5 0 3.1 2.1 5 4.6 5 3 0 4.4-2.2 4.4-5 0-2.7-1.8-5-4.4-5zm0 8.3c-1.4 0-2.6-1.2-2.6-3.3 0-2.3 1.2-3.3 2.6-3.3s2.5 1.5 2.5 3.3-.8 3.3-2.5 3.3z"/><path d="m153.2 155.2-.5-9.5-1.7-.2.2 6.5-3.9-6.8-2-.2.1 9.4 1.8.2-.1-6.7 4.1 7z"/><path d="m159.6 146.9c-1.6-.3-3.2.4-3.2 2.3 0 1.8.9 2.5 2.8 3.2 1.8.8 3 1.1 3 2 0 .7-.4.9-1.2.9s-2.7-.3-2.7-2c0 0-1.9-.3-1.9-.3-.1 2.2 2.1 4 4.9 4s2.9-1.6 2.9-2.5-.1-2.2-3.6-3.5c-2.4-.8-2.2-1.3-2.2-1.7 0-.2.2-.8 1.1-.8s2.3.4 2.4 1.8l1.9.3c-.6-2-1.4-3.2-4.2-3.7z"/><path d="m173.2 159.7 2.1.5-.4-9.5-1.9-.5.1 3.6-3.7-1.1-.1-3.5-1.9-.6v9.5l2 .6v-4.3l3.7 1z"/><path d="m178.9 152.4v9.3l2 .4v-9.3z"/><path d="m188.6 155.9c-2.2-.7-4.2-1.3-4.2-1.3l.1 9.3 2.1.5v-3.3c1.2.4 3 .9 3.6.9s1.9-.2 1.9-2.1c0-1.6-1.2-3.3-3.5-4zm.6 4.3c-.2 0-2.1-.5-2.7-.7v-2.7c1 .3 2.6.8 3.1 1.3.4.4.5 1 .5 1.2-.1.2-.1.9-.9.9z"/><path d="m245.3 211.4c-.3 0-1.4 0-1.4 0 .1-.4.3-.9.3-2s.3-1.7.3-3.1c0-1.2-.4-1.6-.7-1.8 0-.1 0-.1 0-.2.1-.6.1-1.6.1-2.6 0-.9 0-1.7-.1-2.2-.1-1.2-1-1.5-1.5-1.7s-1.6-.6-2-.9c-.3-.2-.5-1.2-.6-1.8s0-.5 0-1.9c0-1.3-.2-6.1-.3-7.7.2-1.4.6-3 .9-4.3.4-1.5.7-2.6.7-2.8 0-.3-.2-.3-.4-.4-.5-.2-1.5-.2-2.1-.3 0-.1 0-.3 0-.4 0-1-.2-3.5-.2-4.9s.8-2.7 1.4-3.6c.6-.8 2.6-3.1 3.1-3.6.3-.3.5-.5.6-.7s.2-.3.2-.5c0-.3-.1-.5-.2-.6s-.3-.2-.5-.2c-.4 0-.7.3-1.8 1.1-.4.3-2.4.8-4.3 1.2s-3.9.7-4.5.8c-1.4.2-1.8.9-2.2 1.3-.4.5-2.5 2.6-3.3 3.2-.7.6-1.9 1-2.2 1-.3.1-3.6 1.3-5.4 2.1-.5.2-1 .5-1.3.8-6-2.4-26.1-9-33.8-11.1-4.9-2.1-15.2-3.4-23.6-4 0 0-.1-.1-.1-.1s0-.1 0-.2 0-.1-.1-.2 0 0 0-.1c.1-.1.1-.2.1-.3v-.1-.1c0-.1 0-.2-.1-.3 0 0 0-.1.1-.2v-.1c0-.1 0-.2-.1-.2h-.1c.5-2.6 3.1-12.8 3.9-15.3 0 0 0-.1-.1-.1 0 0-.1 0-.1.1-.8 2.5-3.5 12.8-3.9 15.4-.1 0-.2.2-.2.3 0 .2-.1.3-.2.4s-.1.2-.1.3v.1.1c0 .1.1.3.1.4l-.1.1c-.1 0-.2.1-.3.1h-.1v.1c-4.9-.4-8.9-.5-10.4-.5-2 0-6 .3-10.1.7-.1-.1-.2-.2-.3-.3-1.5-1-7-2.9-11.2-2.9-1.4 0-3.8.6-5.2 3.4v.2c0 .1 0 .2.1.3s.2.2.3.2c.2 0 .3-.1.4-.2s.1-.1.2-.1.1 0 .2.1c.1 0 .3.1.5.1s.5-.1.8-.1c-.7.7-.9 1.7-1 2.2-11.1 3.8-27.2 12.1-37.6 17.7-.3.2-.7.2-2.2.2-.3 0-.5 0-.7 0-1.5-.1-3.1-.2-4.9-.2-.7 0-1.4 0-2.1 0-14 .5-22.9 1-35 3.4-.5.1-.8.2-1.4.2-.1 0-.3 0-.4 0-.5 0-1 0-1.8.4-1 .4-3.3 1.9-5.1 3.6-3.3 1.2-7.5 2.8-12.5 5.8-.3.1-.4.4-.4.6s.3.3.3.7c0 .3-2.2 3.7-2.5 4.2s-.4.5-1.1 1c-.1.1-.2.4-.2 1.8 0 .8.4 2.1 1.2 2.5s.8.5.9 1.5c.1.9.3 2.5.3 3.8s-.2 3-.3 3.3c-.2.3-.4.6-.7.7-.3 0-.4.1-.4.7s-.2.9.5 1.1c.6.2 4.7 1.2 5.1 1.3s3.4.1 7 .4c3.5.3 14.9 1.8 19.4 2.7 1.9 3.4 4.9 6.2 8.5 7.7 2.1.9 4.4 1.4 6.8 1.4 6.5 0 12.2-3.6 15.2-9l3.4-.3v.6c0 .2 0 .5.1.6.1.3.4.4.7.4h.1c.2 2.2.8 4.4 1.8 6.9.3 0 .9-.3 1-.4-1.1-2.2-1.7-4.6-1.8-6.8.1-.6.7-1.1.8-1.1.6 0 .1.7 1.1.7.8 0 2.9-.3 12.9-.1s13.2-.2 13.8-.2.6-.5.6-.8.1-.4.5-.4 1.5-.1 4.2.4 4.6.9 4.6.9c1.3.1 12.6.1 13 .1s.8-.2 1-.3h1.8c.5.2 1.2.5 1.4.5s.7.5.9.5h16.6c.5-.4 1.1-.7 1.3-.7s1.8.3 2.1.5c.8.1 13.8-.1 14.3-.3.4-.2 3.6-1.4 4.1-1.5s.6-.1.7-.4l2.3-.3c2.7 5.8 8.3 9.9 15 10.3.4 0 .9.1 1.3.1 6.9 0 12.8-4.1 15.6-10 .5-1 .9-2 1.2-3.1 1.2.2 3 .6 3 .6 0 .1.3.2.5.2.1 0 .4-.1.7-.2.3.6.6 1 .9 1.4.9.9 4.3 4.9 6.3 8.1 0 0 .1.1.2.2s.2.1.5.2c.5.1 1.5.4 1.8.5.1 0 .2.1.3.1s.1 0 .2-.1c.1 0 .1-.2.1-.2 0-.2-.1-.3-.3-.6-.5-.7-3.2-4.2-5.1-6.2-1.4-1.4-2.6-2.5-3.4-3.7.9-.3 2.2-.7 3.7-1.1 1 0 19.1-.2 19.4-.2s.2 0 .3-.4c0-.5 0-2.2 0-2.5.8-.8.8-.8.5-.8z" style="fill-rule:evenodd;clip-rule:evenodd;fill:#fff;stroke:#fff;stroke-width:6;stroke-miterlimit:10"/><path d="m226.1 191.6c.2 1.1.3 2.2 1.3 2.9 1.1.7 8.2.2 8.2.2l-1.2-7.5s-6.2 1.6-6.9 1.9c-.8.3-1.6 1.1-1.4 2.5z" fill="#cd6f46"/><path clip-rule="evenodd" d="m19.8 204.5v.1l.1.8.2 2.4.3.2 8.9.1.5-.4.2-1.1.3-1.6-.4-.5z" fill="#cd6f46" fill-rule="evenodd"/><path d="m32.3 190.9c3.1-1.9 8.2-4 12.4-5 2.9-.7 17.1-3.7 32.1-4.4.6 0 1.7-.1-.1-.6 1.2 0 7.4-.3 7.4-.3-.1.4.5.6-2.3 1-6.1.5-14.8 1.1-23.6 2.5-8.8 1.5-12 2.7-12.6 3.3s-.8 1.6-.8 1.9.3 1.7 1 2.2c.7.4 2.8 1.4 3.4 1.6s1.1.6 1.1 1.2 0 1.3-2.5 1.9c-2.6.6-3.2.7-4.8.7-1.7 0-6.1-.4-7.4-.9.6-.5 1.4-1.9 1.5-2.5s.1-1.9-.6-2.4-2.7-.5-4.2-.2z" fill="#26645b"/><path d="m75.4 196.8c2.8-1 12.2.2 14.8 2.8s4.3 5.1 4.3 7.5c0 .8-.5 2-.8 2.3 0 .5-.3 6.8-7.7 9.6-1.3.2-1.8-6.1-1.5-6.6 1.4-1.2 2.4-2.8 2.4-4 0-1-1.1-4.5-4.5-5.2-.8-.6-7-6.4-7-6.4z" fill="#26645b"/><path d="m131.5 160.6c-.6.4-1.6 1.2-1.2 1.8.4.5 1.2.5 1.8.5s5.6-1.1 15.5-1.1 18.4 1 24.3 2.7c7.5 2.1 17 6 21.2 10.2 2.1 2.1 2.1 3.8 2.1 4.3 0 2.4-2.6 3.2-6.1 3.2s-5.8-.8-6.4-1.5c1.7 0 6-.9 6-.9l2.3-.9.3-1-.9-1.4-5.3-3.8-8.4-4.1-10.7-3.4-8.9-1.5-9.3-.4-5.7.3-9 .8-5.8 1.4-5.7 2.2c-.4-.5-.9-1.3-.5-1.9.3-.5 1.9-1 1.9-1l1.2-1v-.7l-.3-.8.5-.3s3.1-1 4-1.2c1-.1 3.1-.5 3.1-.5z" fill="#26645b"/><path d="m168.6 206.6c0 1.3 1.6 4.4 12.3 9.3l6.4-17.6c-6.9 1.3-11.9 2.6-15.7 4.5-2.9 1.4-3 3.5-3 3.8z" fill="#26645b"/><path d="m211.3 197.1c7.9 0 13.9-1.8 13.9-7.5 0-3.6-4-7.8-8.8-8.7 1-.1 8.4.4 8.4.4 1.8.5 4.8 1.2 7.8 6.2-6.6 2-6.2 2-6.6 3.4 0 .5.4 1.6 1.2 3 .4.6.1.8 4.8 1-1.6 2.3-3.7 4.9-8 5.3-4.9.5-9.3.6-9.3.6z" fill="#26645b"/><path d="m24.6 192.9c-.7.8-1.8 1.7-2 3.7.2-.1 1.9-1.6 2.7-2.6s1.2-1.6.9-2.1c-.7.4-1.6 1-1.6 1z" fill="#26645b"/><path d="m34.4 190.7c-1.6 0-4.8.4-8.3 3.2-1.2 1-2.7 2.4-2.7 4 0 1.4 1 2.1 2.7 2.1 1.4 0 2.5.1 5.6-1.2-.8 0-1.6-.1-2.1-.5s-.8-1.2-.7-2.1c.1-1 .3-3.7 5.6-5.2z" fill="#bd2e27"/><path d="m41.6 186.5c-2.2.9-10 3.6-11.8 5.1-.7.4-3.1 1.4-4.8 3.3-.2.2-.6.6 0-.3.7-.8 1.6-1.9 1.3-2.6.4-.4 5.4-2.6 7.1-3.1 1.5-.6 6.5-2.1 8.2-2.4z" fill="#bd2e27"/><path d="m90.5 196.6c-1.1 0-1.5.4-1.3.6 1.1 1.1 5.1 3.6 6.6 9.2 0 2-.7 2.4-.7 3.1s-.6 5-3.8 7.5c-.6.5-.6 1-.2 1.3s1.8.3 5-1 6-2.6 8.3-7.8c.8-2 1.1-3.1 1.1-3.8 0-.5-1.6-3.8-3.1-5.1s-5.9-4-11.9-4z" fill="#bd2e27"/><path d="m135.5 160-3.3.4c-.7.7-1 1.1-.8 1.7.1.3 1.3.2 2 0s8.6-1.3 12.5-1.3c2.1 0 10.6.6 15.1.9 4.6.3 6.9 1.1 9.7 1.7s10.5 2.9 12.5 3.7 6.4 2.8 8.7 4.5c2.4 1.6 3.6 3.5 5.1 6.3.7 1.3 1.4 1.5 2 1.5s2.1-.4 3.1-2.1 1.2-4.2 1.2-4.2l-13.2-4.8-5.6-1.9s-1-.5-1-1 .1-1.3.1-1.3c-3-1.1-12.9-4-27.1-4.2-1.8 0-7.4-.3-10-.3s-8.1.5-10.8.8c-.2 0-.3-.1-.2-.3.1-.1 0-.1 0-.1z" fill="#bd2e27"/><path d="m151.6 207c0 1.2.8 3.8 6.4 6.2s14.4 4.2 19.4 4.2c1.2 0 2.3 0 2.3-.6 0-.3.1-.4-1.4-1.1-1.5-.8-10.6-5.7-10.6-9.2 0-1.6 1.9-6.4 21.1-8.9 6.2-2.6 29 .9 33.6-3.7 1.7-1.7 1.9-3.2 1.9-4.4 0-1.9-1.5-7.1-11.1-8.6-4.6-.7-7.1-.5-7.8-.5s-1.5.4-1.5.5 1 .2 2.3.6c1.4.4 6 2.2 6 6.3 0 2.3-1.2 3.9-14.5 5.5-13.2 1.3-27.2 4.3-33.6 6.3-6.4 1.9-12.5 3.6-12.5 7.4z" fill="#bd2e27"/><path d="m86.1 228-.1-.1c-.5-1.2-1-2.8-1.6-4.9-.5-2.2-.6-6.8-.6-10.6 0-5.5-2.2-9.3-4.1-11.9 0-.1-.1-.1-.1-.1-.1-.2 0-.2.1-.4.1-.1.1-.1.2-.1.2 0 .2.1.4.3l.1.1c4.2 5.4 4.1 11.7 4 13.7v.5c0 1.5.5 3.5 1.1 4.5v.1l-.1.1c-.4.6-.6 1.3-.6 2.2 0 1.5.5 3.2 1.7 6.3v.1l-.1.1s-.2.1-.4.2z" fill="#bd2e27"/><path d="m219.3 206.8s-1.1-2.7-1.4-3.2c-.2-.5-.7-1.1-.9-1.1-.1 0-.1.4 0 .7.2.4 1.1 2.1 1.6 4s.9 2.3 1.4 6.6c.2 1.9.9 3 1.3 3.5s2.5 2.7 3.9 4.6 2.6 3.7 2.7 3.8c0 .1.2.1.5.2s1.9.5 2 .5c.2 0 .4-.3.1-.6s-2.2-2.8-3.2-4c-1-1.1-2.8-3-3.6-3.8s-1.8-2-2.2-2.8c-.4-.9-.8-2-1-3.5s-.8-3.9-1.2-4.9z" fill="#bd2e27"/><path d="m239.2 185.9-5.1 1.3 1.3 7.3h4.3v-2.9s-1.4.2-2.3.2c-.1-.4-.4-3-.4-3l2.6-.4z" fill="#bd2e27"/><path d="m70.4 181.1c.1.1.3.2.3.4 0 .3-.8.5-1.5.7-.6.2-1.1.3-1.1.3l2.1-.2 3.4-.3c1-.4 1.5-.5 1.5-.9 0-.2-.2-.3-.2-.3z" fill="#bd2e27"/><path d="m86 180.6c1.7.1 4.4.3 5.2.2.8-.2 2.1-.3 4.9-2 2.9-1.7 16.9-9.2 25.4-13 1.6-.8 2.8-1.4 2.3-3.2-.2-.1-.5 0-.5 0l-6.6 2.6s-7.8 3.4-10.9 4.9-13.1 6.5-13.1 6.5l-6.8 3.6c.2.1-.3.4.1.4z" fill="#9bd9e9"/><path d="m110.1 174.7c.5.6 1 1.5 1 1.8v6l28 .2 15.7-.2 8.7-.5s20.5-1.4 22.7-1.7c2.2-.4 4.8-.6 4.8-1.7s-3.4-4.4-8-6.7-14.8-7.1-24.8-7.8-23.2-.3-27.9 1-11.4 4.4-16.3 7c-3.9 2.1-4 2.4-3.9 2.6z" fill="#9bd9e9"/><path clip-rule="evenodd" d="m184.3 163.6-.5 1.6 1 1.4 7.9 2.7 18.9 6.6 4.5 1.8.8-1.6 1.2-1.2c-8.9-3.3-15-5.3-15-5.3l-10.4-3.3z" fill="#9bd9e9" fill-rule="evenodd"/><path d="m86 180.6c1.7.1 4.4.3 5.2.2.8-.2 2.1-.3 4.9-2 2.9-1.7 16.9-9.2 25.4-13 1.6-.8 2.8-1.4 2.3-3.2-.2-.1-.5 0-.5 0l-6.6 2.6s-7.8 3.4-10.9 4.9-13.1 6.5-13.1 6.5l-6.8 3.6c.2.1-.3.4.1.4z" fill="url(#b)"/><path d="m110.1 174.7c.5.6 1 1.5 1 1.8v6l28 .2 15.7-.2 8.7-.5s20.5-1.4 22.7-1.7c2.2-.4 4.8-.6 4.8-1.7s-3.4-4.4-8-6.7-14.8-7.1-24.8-7.8-23.2-.3-27.9 1-11.4 4.4-16.3 7c-3.9 2.1-4 2.4-3.9 2.6z" fill="url(#c)"/><path clip-rule="evenodd" d="m184.3 163.6-.5 1.6 1 1.4 7.9 2.7 18.9 6.6 4.5 1.8.8-1.6 1.2-1.2c-8.9-3.3-15-5.3-15-5.3l-10.4-3.3z" fill="url(#d)" fill-rule="evenodd"/><path d="m190.1 176.5c-2.1-1.7-7.4-5.9-17.2-8.9s-16.3-3.7-16.3-3.7l-1.6 18.4c6.3-.3 20.7-1.1 23.5-1.3 2.8-.3 9.1-.5 12.2-1.8.2-.3 1.5-1-.6-2.7zm-4 .7c0 .6-.8 1.3-1.5 1.6s-6.7.8-11.4 1.1-12.2.5-13.4.5c-1.1 0-1.2-.6-1.1-1.1 0-.5.9-10.6 1.1-12.3.1-.6.6-.7.8-.7 4.5 0 18.1 5.1 21.9 7.4 3.8 2.2 3.6 2.8 3.6 3.5z" fill="#2f3234"/><path d="m111.1 176.4c-.9.1-2.3.3-2.6.4s-1.2.3-2.7 1.1-4 2.1-5.1 2.6-3 1.6-3 1.6l.1.5 7.1-.2h6.2z" fill="#2f3234"/><path d="m213.1 182.2s-1.1.3-1.4.7-.6.8-.5 1.3c0 .4.4 1.4.6 1.5.1.1 1 .8 1.2 1s.8.3 1.2.3.9-.3 1.1-.5c.3-.2.9-.9.9-1.3s.1-1.2-.1-1.5-.7-.9-1.2-1.2c-.4-.3-1.2-.4-1.8-.3z" fill="#fff"/><path d="m154.2 186.9c-.2 0-.4 0-.8 0-.6 0-1.5 0-1.9 0-.3 0-1.2.1-2 .2s-1.6.3-1.9.6-.4.6-.4 1 .1.7.3.9c.4.3 1.6.7 3 .8h.9c1.3 0 3-.1 3.4-.1.5 0 1.3-.2 1.4-.8 0-.5 0-1.6 0-1.6-.1-.6-1-1-2-1zm1.7 1.7v1c0 .2-.1.3-.4.4-.2.1-.6.2-.8.2-.4 0-2 .1-3.4.1-.3 0-.6 0-.9 0-1.3 0-2.5-.5-2.8-.7-.1-.1-.3-.4-.3-.8 0-.3.1-.6.3-.8s1-.4 1.8-.5 1.7-.2 2-.2h1.9.8c.5 0 .9.1 1.2.3s.5.4.5.6c.1-.2.1 0 .1.4z" fill="#120b14"/><path d="m152.6 187.3c-.1 0-.2 0-.4 0-.7 0-1.9 0-2.9.2-.6.1-1 .2-1.2.4-.3.1-.4.4-.4.6 0 .3.2.6.5.7s1.4.3 2.5.4h1.5.5c.1 0 .5-.3.5-.9h.5v-.1c0-.1 0-.1 0-.2 0-.2 0-.5-.2-.7-.1-.2-.5-.4-.9-.4zm.1 2.2c-.1 0-.2 0-.4 0-.3 0-.9 0-1.5 0-1.1 0-2.2-.3-2.5-.4-.2-.1-.3-.2-.4-.3h5.1c.1.5-.2.7-.3.7zm.9-1h-5.7c0-.2.1-.3.2-.4.2-.1.6-.2 1.2-.4.9-.2 2.2-.2 2.9-.2h.4c.3 0 .7.2.9.3.1.2.1.5.1.7z" fill="#120b14"/><path d="m154.9 188.4c-.4 0-.7.3-.7.7s.3.7.7.7.7-.3.7-.7-.3-.7-.7-.7zm0 1.3c-.3 0-.6-.3-.6-.6s.3-.6.6-.6.6.3.6.6c-.1.3-.3.6-.6.6z" fill="#120b14"/><path d="m48.3 199.4-3.7.1v.2l3.7-.1c.1 0 .1-.1.1-.1s-.1-.1-.1-.1z" fill="#120b14"/><path d="m35.2 195.7.7-.9" fill="none" stroke="#120b14" stroke-linecap="round" stroke-width=".6"/><path d="m36.4 192.1h-1.7c.1-.1.3-.2.4-.2s.1-.1 0-.1c0-.1-.1-.1-.1 0-.3.1-.5.3-.7.4h-.6c.4-.3.7-.5 1-.6.1 0 .1-.1 0-.2 0-.1-.1-.1-.1 0-.3.2-.7.4-1.2.8h-.5c.4-.3.8-.5 1.1-.6.1 0 .1-.1.1-.1 0-.1-.1-.1-.1-.1-.3.2-.8.4-1.3.8h-1c-.1 0-.1 0-.1.1s0 .1.1.1h.7c-.3.3-.7.6-1.1 1h-.6c-.1 0-.1 0-.1.1s0 .1.1.1h.4c-.3.3-.6.7-.9 1.1h-.6s-.1 0-.1.1c0 0 0 .1.1.1h.5c-.3.5-.6 1-.9 1.6 0 .1 0 .1.1.1s.1 0 .1-.1c.3-.6.6-1.2 1-1.7h.5c-.1.2-.2.3-.3.5v.2h.1s.1 0 .1-.1c.1-.2.3-.4.4-.6h2.4c-.1.2-.4.5-.6.9-.2.3-.4.5-.5.7s-.2.3-.3.4h-.2c.3-.4.9-1.4 1.1-1.6 0 0 0-.1 0-.2 0 0-.1 0-.2 0-.2.3-1 1.4-1.2 1.8h-1.6c-.1 0-.1 0-.1.1s0 .1.1.1h1.7 1.8.4c.1 0 .1 0 .1-.1v-.1c.1-.2.5-.7.8-1.1s.6-.8.7-.9h.4s.1 0 .1-.1c0 0 0-.1-.1-.1h-.3s-.1 0-.2 0h-1.2-.1-.5-.1-.2c.3-.4.6-.8 1-1.1h1c.1 0 .1 0 .1-.1s0-.1-.1-.1h-.8c.3-.2.5-.4.7-.6.1 0 .1-.1 0-.2 0 0-.1-.1-.2 0-.3.2-.6.4-.9.7h-1.2c.4-.4.9-.7 1.4-1h2c.1 0 .1 0 .1-.1 0 0 0 0-.1 0zm-3.9.2h.5c-.4.3-.7.6-1.1 1h-.5c.4-.4.8-.7 1.1-1zm-2.2 2.3c.3-.4.6-.8.9-1.1h.5c-.3.3-.6.7-.9 1.1zm2.1 1.9c.4-.6 1.2-1.7 1.2-1.7h.3c-.3.4-1.1 1.4-1.4 2h-.4c.1-.1.2-.2.3-.3zm2.2-1.7c-.4.5-1.2 1.7-1.3 2h-.4c.4-.7 1.3-1.8 1.4-2zm-.8 2h-.4c.1-.2.3-.5.5-.8.3-.5.7-1.1.8-1.2h.4c-.2.5-1 1.6-1.3 2zm.1-3.3c-.3.3-.6.7-.9 1.1h-2c.3-.4.6-.8.9-1.1h.5c-.2.2-.4.4-.5.6v.2h.1.1c.2-.3.4-.5.7-.8zm-1.2-.2h-.5c.4-.4.8-.7 1.2-1h.6c-.5.3-.9.6-1.3 1z" fill="#120b14"/><path d="m29.6 206.4h-.4v-.2h.4s.1 0 .1-.1c0 0 0-.1-.1-.1h-.4v-.3h.4s.1 0 .1-.1c0 0 0-.1-.1-.1h-.4v-.3h.4s.1 0 .1-.1c0 0 0-.1-.1-.1h-.4.3s.1 0 .1-.1c0 0 0-.1-.1-.1h-.7-.4-.4-1.7l-6.1-.1s-.1 0-.1.1c0 0 0 .1.1.1h.4v.3h-.4c0-.1 0-.1 0-.1s0-.1-.1-.1c0 0-.1 0-.1.1s0 .4.1.9v.7.3.1c0 .1 0 .2.2.2h.1v.2h-.1s-.1 0-.1.1c0 0 0 .1.1.1h.2.3s0 .1.1.1c0 0 .1 0 .1-.1h.3s0 .1.1.1c0 0 .1 0 .1-.1h.3s0 .1.1.1c0 0 .1 0 .1-.1h.3s0 .1.1.1c0 0 .1 0 .1-.1h.3.1.1.3.4.3.3.4l4.2.1s.1 0 .1-.1c0 0 0-.1-.1-.1h-1.9v-.2h2s.1 0 .1-.1c0 0 0-.1-.1-.1h-1.3v-.3h.3v.1s0 .1.1.1.1 0 .1-.1v-.1h.9s.1 0 .1-.1c0 0 0-.1-.1-.1h-.9v-.2h1s.1 0 .1-.1c0 0 0-.1-.1-.1h-.6v-.3h.7c.4.5.4.5.3.4.1 0 .1 0 0 0zm-.5-.4h-.2v-.3h.2zm-2.7 1.4v-.3h.4v.3zm-6-1.1h.3v.3h-.3c0-.1 0-.2 0-.3zm.4 0h.3v.3h-.3zm6.8-.7h-.3v-.3h.3zm.1-.2h.3v.3h-.3zm-1.4.6h-.3v-.3h.3zm.1-.3h.4v.3h-.4zm-.5.3h-.4v-.3h.4zm-4.3 0h.3v.2h-.3zm-.1.2h-.3v-.2h.3zm.5-.2h.3v.2h-.3zm.4 0h.3v.2h-.3zm.4 0h.3v.2h-.3zm.5 0h.4v.2h-.4zm.4 0h.3v.2h-.3zm.5 0h.3v.2h-.3zm.3.4v.3h-.3v-.3zm.1 0h.3v.3h-.3zm0-.1v-.2h.3v.2zm.4-.2h.4v.2h-.4zm.5 0h.4v.2h-.4zm-.1-.1h-.4v-.3h.4zm-.5 0h-.3v-.3h.3zm-.4-.1h-.3v-.3h.3zm-.4 0h-.3v-.3h.3zm-.5 0h-.4v-.3h.4zm-.4 0h-.3v-.3h.3zm-.5 0h-.3v-.3h.3zm-.4 0h-.3v-.3h.3zm-.4 0h-.3v-.3h.3zm-.4 0h-.3v-.3h.3zm-.3.4h.3v.3h-.3zm.4 0h.3v.3h-.3zm.4.1h.3v.3h-.3zm.4 0h.3v.3h-.3zm.4 0h.3v.3h-.3zm.5 0h.4v.3h-.4zm.4 0h.3v.3h-.3zm.3.3v.2h-.3v-.2zm.2 0h.3v.2h-.3zm.4.1h.3v.2h-.3zm.4 0h.4v.2h-.4zm0-.1v-.3h.4v.3zm.5-.3h.4v.3h-.4zm.5 0h.3v.3h-.3zm0-.1v-.2h.3v.2zm.4-.2h.4v.2h-.4zm.5 0h.3v.2h-.3zm0-.1v-.3h.3v.3zm.4-.3h.3v.3h-.3zm-.1-.1h-.3v-.3h.3zm-.4 0h-.4v-.3h.4zm-.5 0h-.3v-.3h.3zm-.4 0h-.4v-.3h.4zm-.5 0h-.4v-.3h.4zm-.5 0h-.3v-.3h.3zm-.4 0h-.3v-.3h.3zm-.4 0h-.3v-.3h.3zm-.5 0h-.4v-.3h.4zm-.4 0h-.3v-.3h.3zm-.5-.1h-.3v-.3h.3zm-.4 0h-.3v-.3h.3zm-.4 0h-.3v-.3h.3zm-.4 0h-.3v-.3h.3zm-.4.7h-.3v-.2h.3zm.1.5h.3v.2h-.3zm.4 0h.3v.2h-.3zm.4 0h.3v.2h-.3zm.4 0h.3v.2h-.3zm.4 0h.3v.2h-.3zm.5 0h.4v.2h-.4zm.3.4v.3h-.4v-.3zm.1 0h.3v.3h-.3zm.5 0h.3v.3h-.3zm.4 0h.3v.3h-.3zm.4 0h.4v.3h-.4zm.5 0h.4v.3h-.4zm0-.1v-.2h.4v.2zm.5-.2h.3v.2h-.3zm.4 0h.4v.2h-.4zm0-.1v-.3h.4v.3zm.5-.3h.3v.3h-.3zm.4 0h.3v.3h-.3zm0-.1v-.2h.3v.2zm.4-.2h.3v.2h-.3zm0-.1v-.3h.3v.3zm.4-.3h.3v.3h-.3zm0-.1v-.3h.3v.3zm.4-.2h.3v.3h-.3zm0-.1v-.3h.3v.3zm-.1 0h-.3v-.3h.3zm-.4 0h-.3v-.3h.3zm-.4-.1h-.3v-.3h.3zm-.4 0h-.3v-.3h.3zm-.4 0h-.4v-.3h.4zm-.5 0h-.3v-.3h.3zm-.4 0h-.4v-.3h.4zm-.5 0h-.4v-.3h.4zm-.5 0h-.3v-.3h.3zm-.4 0h-.3v-.3h.3zm-.4 0h-.3v-.3h.3zm-.5 0h-.4v-.3h.4zm-.4 0h-.3v-.3h.3zm-.5 0h-.3v-.3h.3zm-.4-.3v.3h-.3v-.3zm-.4 0v.3h-.3v-.2zm-.4 0v.2h-.3v-.2zm-.4.6h-.3v-.3h.3zm0 .1v.3h-.3v-.3zm-.4.3h-.3c0-.1 0-.2 0-.3h.3zm0 .1v.2h-.3c0-.1 0-.2 0-.2zm0 .7v.3h-.2c0-.1 0-.2 0-.3zm.1 0h.3v.2h-.3zm.3.4v.2h-.3v-.2zm.1 0h.3v.2h-.3zm.4 0h.3v.2h-.3zm.4 0h.3v.2h-.3zm.4 0h.3v.2h-.3zm.4 0h.3v.3h-.3zm.4.3v.2h-.3v-.2zm.1.1h.4v.2h-.4zm.4 0h.3v.2h-.3zm.5 0h.3v.2h-.3zm.4 0h.3v.2h-.3zm.4 0h.4v.2h-.4zm.5 0h.4v.2h-.4zm.5 0h.3v.2h-.3zm0-.1v-.3h.3v.3zm.9-.3h.3v.3h-.3zm0-.1v-.2h.3v.2zm.4-.2h.3v.2h-.3zm.4 0h.3v.2h-.3zm0-.1v-.3h.3v.3zm.4-.2h.3v.3h-.3zm0-.2v-.2h.3v.2zm.4-.2h.3v.2h-.3zm0-.1v-.3h.3v.3zm.6-.4h-.2v-.3h.2zm0-.3h-.2v-.3h.2zm-8.3-.4h.3v.3h-.3zm-.1.3v.3h-.3c0-.1 0-.2 0-.3zm-.1 2.1c-.1 0-.1-.1-.1-.2 0 0 0 0 0-.1h.2v.2zm.2.1h.3v.2h-.3zm.4.2v-.2h.3v.2zm.4 0v-.2h.3v.2zm.4 0v-.2h.3v.2zm.4-.2h.3v.2h-.3zm4.8.3h-.8v-.2h.4.4zm.1-.5h.3v.3h-.3zm.6.2h-.3v-.3h.3zm.5-.3h-.3v-.2h.3zm.4-.4h-.3v-.3h.3zm.1-.6h.2v.2h-.2z" fill="#120b14"/><path d="m44.7 208.5c-.1 0-.1-.1-.1-.2 1.8-9.4 10-16.4 19.8-16.4 6.2 0 11.8 2.9 15.5 7.3v.2c-.1 0-.1 0-.2 0-3.6-4.4-9.1-7.2-15.3-7.2-9.7 0-17.7 7-19.5 16.2-.1.1-.1.1-.2.1z" fill="#120b14"/><path d="m215.4 182.1c-.1 0-.1 0-.1.1s0 .1.1.1c0 0 .3.2.7.6.3.4.7 1 .7 1.9s-.6 1.4-1.2 1.7c-.1.1-.3.1-.4.2.7-.5 1.1-1.1 1.1-2.2 0-1.9-2.2-2.4-2.8-2.4-.4 0-.8.1-1.3.4.5-.5 1.2-.6 1.7-.6.3 0 .6.1.8.1.1 0 .1 0 .1-.1s0-.1-.1-.1c-.2 0-.5-.1-.8-.1-.6 0-1.3.1-1.9.7-.5.5-.8 1.1-.8 1.7v.3c0 .2.1.3.1.5.1.2.2.4.3.7.2.4.5.7.9.9.2.1.4.2.6.3.5.2.9.2 1 .2.2 0 .8-.1 1.5-.4s1.3-.9 1.3-1.9c0-1.9-1.5-2.6-1.5-2.6zm-2.8 4.2c-.3-.3-.8-.7-1-1.3 0-.1-.1-.2-.1-.3 0 0 0 0 0-.1 0-1.4 1.4-1.7 1.7-1.7.2 0 .7.1 1.2.4s.9.7.9 1.4c0 1.1-.8 1.8-1.9 1.8-.1 0-.3 0-.4 0-.2-.1-.3-.1-.4-.2zm2.4-3.6c.6.3 1.1.9 1.1 1.7 0 1.3-.5 1.8-1.6 2.3 0 0-.1 0-.2 0-.2 0-.4 0-.6-.1 1-.1 1.8-.8 1.8-2 0-1.5-1.8-2-2.3-2-.2 0-1.4.2-1.8 1.2 0-.4.2-.7.2-.7.6-.8 1.3-1.1 1.9-1.1.2.2.9.4 1.5.7z" fill="#120b14"/><path d="m214.7 184.2c-.1-.2-.3-.2-.5-.2-.1 0-1.3 0-1.3 0-.5 0-.8.2-.9.5v.1c0 .2.2.3.4.4h.7 1.5c.1-.1.1-.2.1-.3.2-.2.1-.4 0-.5zm-.1.5c-.3 0-.9 0-1.4 0-.3 0-.6 0-.7 0-.2-.1-.2-.1-.2-.2 0 0 0 0 0-.1s.2-.3.7-.3h1.3c.1 0 .2 0 .3.1 0 0 .1.2.1.3 0 .2 0 .2-.1.2z" fill="#120b14"/><path d="m238.5 186.9c-.1-.1-.2 0-.2 0l.2 1.4s0 .1.1.1.1 0 .1-.1z" fill="#120b14"/><path d="m239 186.8s0 .1 0 0l.1 1.3s0 .1.1.1.1 0 .1-.1l-.3-1.3c.1.1.1 0 0 0z" fill="#120b14"/><path d="m245.3 211.4c-.3 0-1.4 0-1.4 0 .1-.4.3-.9.3-2s.3-1.7.3-3.1c0-1.2-.4-1.6-.7-1.8 0-.1 0-.1 0-.2.1-.6.1-1.6.1-2.6 0-.9 0-1.7-.1-2.2-.1-1.2-1-1.5-1.5-1.7s-1.6-.6-2-.9c-.3-.2-.5-1.2-.6-1.8s0-.5 0-1.9c0-1.3-.2-6.1-.3-7.7.2-1.4.6-3 .9-4.3.4-1.5.7-2.6.7-2.8 0-.3-.2-.3-.4-.4-.5-.2-1.5-.2-2.1-.3 0-.1 0-.3 0-.4 0-1-.2-3.5-.2-4.9s.8-2.7 1.4-3.6c.6-.8 2.6-3.1 3.1-3.6.3-.3.5-.5.6-.7s.2-.3.2-.5c0-.3-.1-.5-.2-.6s-.3-.2-.5-.2c-.4 0-.7.3-1.8 1.1-.4.3-2.4.8-4.3 1.2s-3.9.7-4.5.8c-1.4.2-1.8.9-2.2 1.3-.4.5-2.5 2.6-3.3 3.2-.7.6-1.9 1-2.2 1-.3.1-3.6 1.3-5.4 2.1-.5.2-1 .5-1.3.8-6-2.4-26.1-9-33.8-11.1-8-3.5-31.2-4.7-35.2-4.7-2 0-6 .3-10.1.7-.1-.1-.2-.2-.3-.3-1.5-1-7-2.9-11.2-2.9-1.4 0-3.8.6-5.2 3.4v.2c0 .1 0 .2.1.3s.2.2.3.2c.2 0 .3-.1.4-.2s.1-.1.2-.1.1 0 .2.1c.1 0 .3.1.5.1s.5-.1.8-.1c-.7.7-.9 1.7-1 2.2-11.1 3.8-27.2 12.1-37.6 17.7-.3.2-.7.2-2.2.2-.3 0-.5 0-.7 0-1.5-.1-3.1-.2-4.9-.2-.7 0-1.4 0-2.1 0-14 .5-22.9 1-35 3.4-.5.1-.8.2-1.4.2-.1 0-.3 0-.4 0-.5 0-1 0-1.8.4-1 .4-3.3 1.9-5.1 3.6-3.3 1.2-7.5 2.8-12.5 5.8-.3.1-.4.4-.4.6s.3.3.3.7c0 .3-2.2 3.7-2.5 4.2s-.4.5-1.1 1c-.1.1-.2.4-.2 1.8 0 .8.4 2.1 1.2 2.5s.8.5.9 1.5c.1.9.3 2.5.3 3.8s-.2 3-.3 3.3c-.2.3-.4.6-.7.7-.3 0-.4.1-.4.7s-.2.9.5 1.1c.6.2 4.7 1.2 5.1 1.3s3.4.1 7 .4c3.5.3 15.1 1.8 19.5 2.7 3 5.4 8.7 9 15.2 9s12.2-3.6 15.2-9l3.4-.3v.6c0 .2 0 .5.1.6.1.3.4.4.7.4h.1c.2 2.2.8 4.4 1.8 6.9.3 0 .9-.3 1-.4-1.1-2.2-1.7-4.6-1.8-6.8.1-.6.7-1.1.8-1.1.6 0 .1.7 1.1.7.8 0 2.9-.3 12.9-.1 10.1.2 13.2-.2 13.8-.2s.6-.5.6-.8.1-.4.5-.4 1.5-.1 4.2.4 4.6.9 4.6.9c1.3.1 12.6.1 13 .1s.8-.2 1-.3h1.8c.5.2 1.2.5 1.4.5s.7.5.9.5h16.6c.5-.4 1.1-.7 1.3-.7s1.8.3 2.1.5c.8.1 13.8-.1 14.3-.3.4-.2 3.6-1.4 4.1-1.5s.6-.1.7-.4l2.3-.3c2.8 6.1 8.9 10.3 16 10.3 8.1 0 15-5.5 17-13.1 1.2.2 3 .6 3 .6 0 .1.3.2.5.2.1 0 .4-.1.7-.2.3.6.6 1 .9 1.4.9.9 4.3 4.9 6.3 8.1 0 0 .1.1.2.2s.2.1.5.2c.5.1 1.5.4 1.8.5.1 0 .2.1.3.1s.1 0 .2-.1c.1 0 .1-.2.1-.2 0-.2-.1-.3-.3-.6-.5-.7-3.2-4.2-5.1-6.2-1.4-1.4-2.6-2.5-3.4-3.7.9-.3 2.2-.7 3.7-1.1 1 0 19.1-.2 19.4-.2s.2 0 .3-.4c0-.5 0-2.2 0-2.5.7-.3.7-.3.4-.3zm-1.4-5.7-16.8.2v-.1l16-.8c.3-.1.7.1.8.7zm-5.9-18.9c0 .4.2 1.6.2 1.9-.1 0-.2 0-.3.1-.2-1.1-.3-1.8-.4-2 .6-.1 1.1-.2 1.6-.3v.2c-.3-.1-1.1.1-1.1.1zm.6 0 .3 1.7c-.2 0-.4.1-.5.1 0-.3-.2-1.3-.3-1.7.1 0 .3-.1.5-.1zm1 7.5s-.1 0-.2 0l-.2-2.4h.4zm-.4 0c-.1 0-.1 0-.2 0 0-.3-.2-2.2-.2-2.2s0-.1-.1-.1c0 0-.1 0-.1.1 0 0 .2 1.9.2 2.2-.1 0-.2 0-.3 0-.1-.9-.1-1.6-.2-2.3.2 0 .5 0 .7-.1zm-.9 0c-.1 0-.3 0-.4 0 0-.6-.1-1.4-.2-2.3h.5c0 .7.1 1.4.1 2.3zm-2.7.1c-.2-2.1-.7-5.9-.8-6.7h.2c.1.5.7 3.6.9 6.8-.1-.1-.2-.1-.3-.1zm.4 0c-.2-3.2-.8-6.4-.9-6.8.1 0 .2 0 .2-.1.1.7.7 5 .9 6.9-.1 0-.1 0-.2 0zm.4-.1c-.2-1.9-.7-6.2-.9-6.9h.2c.1.4.7 3.7.9 6.9-.1 0-.1 0-.2 0zm.4 0c-.2-3.3-.8-6.6-.9-7 .1 0 .2 0 .2-.1.1.6.7 5.2.9 7-.1.1-.2.1-.2.1zm.4 0c-.1-1.8-.8-6.4-.9-7h.2v.1s.7 3.5.9 7c-.1-.1-.2-.1-.2-.1zm-.1-5.5c-.1 0-.2 0-.2 0-.2-1-.3-1.6-.3-1.6.1 0 .2 0 .3-.1 0 .2.1.8.2 1.7zm-.1-1.7h.1c.1.3.2 1.5.3 1.7-.1 0-.1 0-.1 0-.1-.9-.2-1.5-.3-1.7zm.7 7.2h-.1c0-.8-.1-1.5-.2-2.3h.1c.1.9.2 1.7.2 2.3zm-.3-2.5c-.1-.4-.3-2.3-.4-2.9h.1.1c.1 0 .3-.1.5-.1.1.8.2 1.7.4 2.9-.3.1-.5.1-.7.1zm0-5.1c.1.3.2.8.3 1.8v.3c-.1 0-.1 0-.2 0 0-.2-.3-1.7-.3-1.8v-.1h-.1c-.2.1-2.5.6-2.5.6h-.1v.1c.1.6.6 4.6.8 6.7-.2-1.1-.4-2.8-.7-4.3-.2-1.2-.4-2.2-.5-2.7 1.2-.2 2.3-.4 3.3-.6zm-3.3.7c.1.5.3 1.5.5 2.7.2 1.5.5 3.2.7 4.3-.1 0-.1 0-.2 0-.2-1.5-.9-5.8-1.2-6.6v-.1h-.1c-.4.1-2.1.5-3.9 1.1-.2.1-.4.1-.7.2-.8.2-1.5.5-2.2.8 0 0-.1.1 0 .1 0 0 .1.1.1 0 0 0 .1 0 .1-.1.1.4.5 2.6.6 3.8 0 0 0 .1.1.1s.1 0 .1-.1c-.1-1.2-.6-3.5-.6-3.8.1 0 .2-.1.3-.1.1.4.4 2.4.7 4.3 0 0 0 .1.1.1s.1 0 .1-.1c-.3-1.9-.6-4-.7-4.3.1 0 .1 0 .2-.1.1.4.5 2.7.7 4.4 0 0 0 .1.1.1s.1 0 .1-.1c-.2-1.8-.7-4.1-.7-4.4.1 0 .2-.1.3-.1.1.5.5 2.9.7 4.5 0 0 0 .1.1.1s.1 0 .1-.1c-.2-1.6-.6-4.1-.7-4.6.1 0 .1 0 .2-.1.1.4.6 3.5.7 4.6 0 0 0 .1.1.1s.1 0 .1-.1c-.1-1.2-.7-4.3-.8-4.7.1 0 .2-.1.3-.1.1.4.4 2.5.7 4.8 0 0 0 .1.1.1s.1 0 .1-.1c-.2-1.3-.4-2.5-.5-3.4-.1-.7-.2-1.2-.2-1.4.1 0 .1 0 .2-.1.1.5.6 3.7.7 4.9 0 0 0 .1.1.1s.1 0 .1-.1c-.1-1.2-.6-4.3-.7-4.9.1 0 .1 0 .2-.1.1.6.6 3.5.8 5 0 0 0 .1.1.1s.1 0 .1-.1c-.2-1.6-.7-4.5-.8-5.1.1 0 .1 0 .2-.1.1.5.6 3.7.8 5.2 0 0 0 .1.1.1s.1 0 .1-.1c-.2-1.5-.7-4.7-.8-5.2.1 0 .1 0 .2-.1.1.4.7 3.7.9 5.4 0 0 0 .1.1.1s.1 0 .1-.1c-.2-1.7-.8-5.2-.9-5.4.1 0 .2-.1.3-.1.2.6.7 4.3.9 5.6 0 0 0 .1.1.1s.1 0 .1-.1c-.1-1.3-.7-4.9-.9-5.6.1 0 .1 0 .2-.1.2 1.1.8 4.8.9 5.9-1.7 0-3.1.1-3.2.1-.3 0-.7.1-1.2-.2-1.1-.9-1.6-2.9-1.6-3.5 0-1.2 1.6-1.7 4-2.4.5-.2 1.8-.5 3.3-.9zm-1.7 7.1c-.1-1.1-.7-4.8-.9-5.9.1 0 .1 0 .2-.1.2.7.7 3.7.9 6-.1 0-.1 0-.2 0zm.3 0c-.2-2.3-.6-5.2-.9-6 .1 0 .1 0 .2-.1.1.4.6 3.2.9 6.1 0-.1-.1-.1-.2 0zm.4-.1c-.3-2.9-.9-5.7-.9-6.1.2-.1.4-.1.6-.2.1.5.8 4.3.9 6.3-.1 0-.1 0-.2 0-.2-1.8-.9-5.7-1-6 0 0-.1-.1-.1 0 0 0-.1.1 0 .1.1.3.8 4.2 1 6-.1-.1-.2-.1-.3-.1zm.8 0c-.2-2-.9-5.9-1-6.3h.1c0 .1.1.5.2 1 .3 1.6.8 4.4.9 5.3-.1 0-.1 0-.2 0zm.4 0c-.1-.6-.3-1.9-.5-3.3-.1-.8-.3-1.5-.4-2.1-.1-.5-.2-.8-.2-1 .1 0 .2 0 .3-.1.1.5.8 4.6 1 6.4-.1.1-.1.1-.2.1zm.3 0c-.2-1.8-.9-6-1-6.5h.1c.3.9 1 5 1.1 6.5 0 0-.1 0-.2 0zm8.8 5.2c0 .4.1 1.3.1 2.1v1.9c0 .3 0 .5-.1.7v.2s-.1.2-.1.3l-16.1.8.1-6.3c.1-.1.2-.2.3-.2h15.8zm-3.2-2.4c.5.5 1.6.8 2.1 1 .4.2.8.3 1 .7h-15.8c-.1.1-.1.1-.2.2v-1.9h12.9c-.1-.1-.1 0 0 0zm-.2-.2-12.7.1v-2.2s.1 0 .1.1c1.1.5 2 .4 2.6.4.5 0 8.2-.1 9.4-.2.1.4.2 1.2.6 1.8zm-.5-5.4c-.2 0-.8.1-1.3.1-.1-1.2-.2-2.2-.4-3 .5-.1 1-.2 1.5-.2v-.2c-.1 0-.2 0-.3 0l-.3-1.7c.2 0 .3-.1.4-.1.3 1.2.4 3.1.4 5.1zm-.9-10.5c0-.3 0-2 .1-3.2.4.1.9.1 1.4.2.2 0 .3.1.4.1-.7 1.5-1.3 2.5-1.9 3.1 0-.1 0-.1 0-.2zm2.1-2.8c0 .2-.3 1.4-.7 2.8-.3 1.2-.6 2.5-.8 3.8-.2-1-.5-2.3-.7-3.1.6-.6 1.3-1.7 2.2-3.5zm-21-4.1c1.7-.8 5.1-2 5.3-2.1.3-.1 1.6-.4 2.4-1.1.7-.7 2.9-2.8 3.3-3.3s.7-1 2-1.2c.7-.1 2.6-.4 4.5-.8 1.1-.2 2.1-.5 3-.7-1.8 1.3-6.4 4.2-12.5 6-.1 0-.1.1-.1.2s.1.1.1.1c7.1-2.2 12.1-5.6 13.2-6.5.3-.1.6-.2.7-.3 1.1-.8 1.4-1 1.5-1 .2 0 .3 0 .3.4 0 0 0 .1-.2.3-.1.2-.3.4-.6.7-.5.6-2.5 2.8-3.1 3.7-.6.8-1.5 2.2-1.5 3.8v1.1c-10.5 1.4-18.5 2.8-21.2 3.4 0-.1.1-.1.1-.1.3-.7 1.1-1.8 2.8-2.6zm-4.3 6.4c-.1-.1-.1-.2-.1-.3s0-.3.1-.5c.2-.4.9-2 1.3-2.8 2.4-.5 10.6-2 21.4-3.5 0 1.4.1 2.9.1 3.6 0 1-.1 3.6-.1 4 0 .1-.1.4-.2.6s-.3.4-.6.4c-.1 0-.3 0-.4 0-8.6-.8-17-1.4-21.5-1.5zm-.4 0c-.1 0-.1 0 0 0-.5 0-.9 0-1.2 0-.5 0-2-.6-5.2-2.2s-11.3-5.7-16.4-7.9c-5.1-2.1-9.1-3.8-9.7-4-.3-.1-1-.5-1.3-1.3.7.2 1.3.4 2 .6.2.4.5.7 1.2 1l31.3 11.3c-.3.6-.5 1.1-.7 1.4-.1.2-.1.4-.1.6 0 .3 0 .4.1.5zm-30.5-16.7c7.6 2.1 27.3 8.6 33.4 11-.7.6-1.1 1.2-1.3 1.5-.1.1-.2.4-.4.7-.4-.1-2.1-.7-4.6-1.6-8.4-2.9-25.3-8.9-26.2-9.3-.6-.2-.9-.4-1.1-.6s-.2-.4-.2-.5c.1-.3.2-.9.4-1.2zm-.7-.3c-.3.5-.4 1.1-.4 1.6 0 .3.1.7.4 1s.7.6 1.4.9c1.2.5 28.4 10 30.7 10.8-.1.1-.1.2-.2.3l-31.3-11.3c-.9-.5-1.2-.8-1.2-1.4 0-.4.2-1 .4-1.9zm-.3-.1c-.2.9-.4 1.5-.4 2 0 .2 0 .3.1.4-.7-.2-1.3-.4-2-.6-.1-.2-.1-.5-.1-.8 0-.1 0-.1 0-.2.6.2 1.2.3 1.8.5v-.1c-.6-.2-1.2-.3-1.9-.5 0-.4.2-.8.4-1.3.8.1 1.5.4 2.1.6zm-59.5-3.5c-.2 0-.3 0-.3-.1-.1 0-.2-.1-.4-.1s-.3.1-.4.2-.1.1-.2.1-.1 0-.1-.1v-.1c1.3-2.7 3.6-3.2 4.9-3.2 2.3 0 5.1.6 7.4 1.4 1.1.4 2.1.7 2.8 1.1.4.2.6.3.8.4h.1-.7c-1.7-.3-3.5-.5-5.2-.5-3.7 0-7 .5-7.3.6-.5.1-1.1.3-1.4.3zm1.6 0c.7-.1 3.7-.6 7.1-.6 1.4 0 2.9.1 4.3.3-3.3.4-6.4.8-8.4 1.3-1.3.3-2.8.8-4.4 1.3 0-.6.3-1.7 1.4-2.3zm-1.6 4.7c.3-.4.4-.7.4-1.1 0-.5-.1-.8-.3-1 1.6-.5 3.1-1 4.4-1.3 5-1.2 16.6-2.1 20.6-2.1 3.6 0 22.2.9 31.9 3.6-.2.5-.4.9-.4 1.3-12.2-3-22.1-3.4-28.3-3.4-1.2 0-2.3 0-3.2 0-5.9.1-17.8.3-24.5 3.7-.1.1-.1.1 0 .1 5.6-2 13.7-3.1 24.7-3.1 10.2 0 20.9.7 31.4 3.8.3 1.1 1.2 1.6 1.6 1.7.5.2 4.6 1.8 9.6 4 5 2.1 13.1 6.2 16.3 7.9 3.2 1.6 4.6 2.2 5.4 2.3h1.2c4.3 0 12.9.6 21.8 1.4-1.8.3-4.8.4-8.1.4-5.9 0-12.6-.3-15.1-.5-7.6.1-23.5 1.2-32.7 1.8-7.9.5-17.5 1-23.4 1.1-.2-.5-.7-1.2-1.2-1.8-.2-.2-.3-.4-.5-.6 2.2-.1 4.1-.1 5.3-.1 5.6-.2 23.3-1.5 25.5-1.8 1.1-.2 2.1-.3 3.1-.7.5-.2 1.3-.4 1.6-.7.3-.2.5-.7.5-1.1 0-.3-.1-.7-.3-1-.7-1-2.2-2.3-5.1-4.1s-7-3.8-12.4-5.8c-13.4-4.8-21.6-4.3-28.1-4.3-.2 0-.3 0-.5 0-8.2.1-15.6.3-24.6 4.9-8.8 3.8-23.3 13.3-23.3 13.3-.2.2-1.1.8-1.1.8s-.1.1-.1.2c-1-1.2-1.9-1.7-2.5-1.8 17-9.4 27-13.9 28.6-14.6 1-.7 1.5-1 1.8-1.4zm56.8.4c-10.5-3.1-21.2-3.8-31.4-3.8-10.4 0-18.2 1-23.8 2.8 6.8-3 17.9-3.2 23.6-3.3h3.2c6.2 0 16.1.4 28.3 3.4v.3c0 .2 0 .4.1.6zm-46.6 44.3c-7.9 0-14.7 0-20.6 0-3.1 0-5.9 0-8.6 0-4.6 0-8.7 0-12.6 0-.1-.6-.1-1.3-.2-2.2 3.6-.7 8.4-1.3 13.8-1.3h24.6 19.7c2.4 0 4.6 0 6.8.1-.1.9-.2 1.8-.3 2.5-.1.4-.2.7-.3 1-6.8-.1-14.5-.1-22.3-.1zm22.2.3c-1.1 3-3.8 4.2-6.5 4.2 0 0-3 0-7.6 0-13.8.1-41.7.2-44.5.2-3.7 0-4.9-2.3-5.2-3.8 0-.2-.1-.5-.1-.8h12.6 8.6 20.6c7.6.2 15.3.2 22.1.2zm.7-1.2c.1-.7.3-1.6.4-2.6 8.7.2 15.9 1 21.8 3.5-2.4 0-6.9 0-12.6 0-3 0-6.3 0-9.9 0 .2-.2.3-.6.3-.9zm0-2.8c-2.2 0-4.4-.1-6.8-.1 0 0-37.8 0-44.3 0-5.5 0-10.2.6-13.9 1.3-.2-2.2-.3-5.2-.3-8.3 0-1.5 0-3 .1-4.4.2-3.8 1.3-6.7 2.5-8.7 4.7.1 13.8.4 30.1.4 6.7 0 14.6 0 24-.1v-.2c-9.4.1-17.3.1-24 .1-16.2 0-25.3-.2-30-.4.7-1.1 1.3-1.9 1.9-2.5.1.2.4.3.4.3.2.1.8 0 1 .1h1.1.4c2.7 0 33.2-.1 35.8-.1 2 0 12.6-.2 20.1-.4 0 0 0 0 .1.1.5.6 1.3 1.8 1.6 2.4-.8 0-1.5 0-2.1 0v.3h2.2c.4 1 .6 3.7.6 7 .1 2.8 0 8.8-.5 13.2zm-65 3.6c-2.3 0-4.4 0-6.6-.1 1-.6 3.3-1.4 6.4-2 0 .9.1 1.6.2 2.1zm62.4-27.4c-7.3.2-17.4.4-19.3.4-1.6 0-14.2-.1-24-.2 0-.7 0-2 0-3.3 0-1.2 0-2.2 0-2.4 0-.4-.5-1.2-.8-1.7 3.7-2.1 7.6-4.3 10.8-5.9 7.6-3.9 17.7-4.7 24.5-4.8h.5c3.2 0 6.5 0 10 .3-.2 1.4-.3 2.5-1.7 17.6zm2.6-17.5c4.7.4 10 1.5 16.6 3.8 6.1 2.2 10.1 4.4 12.9 6.3 1.4 1 2.7 2 3.3 2.7.3.3.3.4.5.6.1.1.1.2.2.3v.1c0 .1-.1.2-.3.4-.7.5-2.6 1-4.2 1.2-2.1.3-19.8 1.7-25.3 1.9-1.3 0-3.2.1-5.4.2.4-4.4 1.5-15.6 1.7-17.5zm-46.7 10.9c.3.4.5.9.5 1.1v2.4 2.4.8c-5.6 0-10.1-.1-11.1 0-.1 0-.1 0-.2 0-.2 0-.3-.1-.1-.2.2-.2 2.7-2.2 3.7-2.8 2-1.2 4.4-2.7 7-4.1 0 .1.1.2.2.4zm13.2-12.5c.1.2.2.4.2.8 0 .2 0 .4-.2.6s-.6.5-1.4.9c-1.6.8-16.8 7.9-28.6 14.6-.8.4-1.9.8-3.5.8-1.3 0-2.5-.1-3.7-.2 10.1-5.3 26.1-13.6 37.2-17.5zm-85.6 21.5c.7-.3 1.2-.4 1.6-.4h.4c.7 0 1-.1 1.4-.2 12.1-2.4 20.9-2.9 34.9-3.3h2.1c1.3 0 2.5 0 3.7.1-28.5.9-38.4 3.8-49 7.2 1.8-1.6 4-2.9 4.9-3.4zm46-3.7c1.3.1 2.6.2 3.9.2-1 .7-4.7.7-7.3.7-4.5 0-17.7 1.6-22.7 2.1-5.2.5-9.3 1-16.6 2.8-2.7.7-5.4 1.4-8 2.3 0-.3-.1-.7-.3-.9 10.8-3.3 20.9-6.3 51-7.2zm-52.2 17.9c-.3.1-.6.1-1 .1-.6 0-2.1-.3-2.1-2.2 0-.8.7-4.9 6.7-5.5 1 .1 1.8.5 1.8 1.8-.1 2.3-2.7 4.4-5.4 5.8zm2.8 10.3-5.6-.1c.3-.1.5-.2.7-.4v.1h.1c.1 0 .3 0 .6-.2.6-.2 3.4-1.3 4.1-1.5zm0-9.1-5.7.1c1.8-.4 3.9-1.3 5.6-2.6zm22.2-15.7c-15.3 2.6-17.7 4.2-22 6.3-.1-.4-.1-.7-1-1.5 2.3-.8 4.9-1.6 7.8-2.2 4.7-1.1 10.3-2 15.2-2.6zm-39.3 19.8c-.4-.3-.6-.8-.7-1.3-.1-.6 0-1.7 0-2 .1-.3 0-.3.4-.5s.5-.3 1-1.1 1.8-2.9 2-3.3c.3-.4.3-.5.3-.8s-.3-.4-.3-.6 4.5-3.2 12.1-6c.2.2.4.5.3.9-3.7 1.3-7.2 2.8-9.8 4.7-1.8 1.2-4.8 5-4.4 5.4s2.8-.9 4.9-2.9c2.1-2.1 3.1-3.2 3.1-3.8 0-.1-.1-.3-.2-.4 1.8-.9 4.1-2 6.9-3 .4.1 1.1.5 1.2 1.6-5.6 0-10.8 4.7-11.2 7h.2c.3-2.5 5.8-6.8 11-6.8-1.6 0-6 1.8-6 5.7 0 1 .6 2.7 2.9 2.3-1.3.6-2.6.9-3.6 1.1h-1.5c-1-.1-2.6-.4-2.7-1.9-.1 0-.1 0-.2 0 0 .9.5 1.6 1.9 1.9l-7.8.1c-.1 0-.1.1-.1.1 0 .1.1.1.1.1l9.8-.2 7.4-.1v6.8c-.6.2-3.5 1.3-4.2 1.5-.3.1-.4.1-.5.1s0 0 0-.1c.1-.1.2-.1.2-.2.1-.1.1-.1 0-.2s-.1-.1-.2 0c-.2.2-.9.7-1.7.8 0 0-.1 0-.1.1l-8.4-.1.6-.5h.1s8 .1 8.8.1c.4 0 .6-.2.7-.4v-.1c.1 0 .3 0 .3-.1.1-.1.1-.1.1-.1.1-.4.4-2 .4-2.5 0-.6-.5-.9-1-1-.2-.2-10.2-.3-12.1-.3zm8-11.4c.2-.1.4-.2.6-.3.3.3-.3 1.6-2.9 3.9-.2.1-.3.2-.4.4 0-.7.6-2.5 2.7-4zm-3.2 4.3c-2.3 1.9-3.4 2.4-3.6 2.2-.1-.1 1.5-2.7 3.5-4.4.4-.3.9-.7 1.6-1.2-.5.8-1.4 2-1.5 3.4zm7.3 8c.1 0 .2 0 .4.1.1.1.2.1.2.3 0 .3-.1.9-.3 1.7-.1.4-.1.8-.2 1s-.1.3-.5.3c-.7 0-8.7-.1-8.7-.1-.1 0-.3 0-.3-.3 0-.2 0-.8-.1-1.5 0-.3 0-.6-.1-.9 0-.3 0-.4-.1-.5 0 0 0 0 0-.1v-.1c.6-.1 9.5.1 9.7.1zm-9.7 2.9c0 .2.1.3.2.4l-.7.6v.1h-.2l.6-3.3c0 .6.1 2 .1 2.2zm-2-3.5c-.1-.1-.1-.1-.2-.1 2.3 0 11.7.1 12.1.1s.8.3.8.8c0 .3-.1.9-.2 1.5-.1.3-.1.6-.2.7 0 .1 0 .2-.1.2v.1c-.1 0-.1 0-.2 0 0-.2.1-.5.2-.7.2-.8.3-1.4.3-1.8 0-.3-.2-.5-.4-.5-.2-.1-.4-.1-.5-.1-.2 0-9.1-.1-9.7-.1-.1 0-.2 0-.2.1v.1zm.3.2 1.4.2c0 .1 0 .2.1.3l-.6 3.3c-.1-1.2-.1-2.2-.2-2.6-.2-.5-.4-.9-.7-1.2zm.8 8c.1-.5.1-1.5.1-2.7l1 .6c0 .9-.1 2.2-.1 2.3v.2l-1.1.6s-.1.1-.1.1c-.1 0-.2 0-.3 0 .3 0 .4-.4.5-1.1zm9.6-2.3c-.6 0-8.5 0-8.5 0v.1l-.7-.4 9.5.1c.4 0 .6.3.6.5 0 .6-.3 1.2-1.9 1.8-1.4.5-4 1-8.2 1.5l.8-.5c.1 0 .2.1.3.1 6-.4 8.7-1.7 8.7-2.5 0-.4 0-.7-.6-.7zm-10.3 5.2c-.4 0-.5-.2-.5-.5 0 0 0-.2 0-.3 0-.2 0-.3.4-.5.1 0 .2-.1.3-.1 4.8-.5 7.6-1 9.2-1.6s2-1.3 2-1.9c0-.3-.3-.6-.8-.6l-9.7-.1c0-.2 0-.4 0-.7l9.1.1h.1.2l6.2.1v6.9c-5.3-.4-10.3-.8-16.5-.8zm61.2-15.4c-3.6-4.4-9.1-7.3-15.2-7.3-10.9 0-19.8 8.7-19.7 20.8v3.9c-3.3-.6-6.3-1.1-9.5-1.4v-6.9h9.5s.1 0 .1-.1c0 0 0-.1-.1-.1h-.1s-.1-.1-.2-.1c-.3-.2-1.5-.6-1.5-.6l1.2.7h-9v-2.1c.8.1 5.3.4 6.2.4 0 0 .1 0 .1-.1 0 0 0-.1-.1-.1-.9 0-5.6-.3-6.2-.4v-6.6h1.5v-.2h-1.5v-2.9c1.4-1.2 2.4-2.6 2.4-4.2 0-1.4-.7-1.9-2.4-2 5.1-3.4 13.8-5 23-6.7 5.7-.7 16.8-2.2 22.6-2.2 3.3 0 4-.1 4.8-.1.7 0 2.3-.3 3-.7h1.7c.7 0 2.5-.1 3.4-.3.7.1 1.6.3 2.8 1.9-.6.6-1.3 1.5-2 2.8-2.1-.1-3.2-.1-3.8-.1-27.9 0-42.8 2.3-53.2 6l.1.2c10.4-3.7 25.3-6 53.2-6 .6 0 1.7 0 3.7.1-1.2 2.1-2.3 5-2.5 8.7-.1 1.5-.1 3-.1 4.5 0 3.2.2 6.2.3 8.4-3.6.8-6 1.7-6.9 2.3-.1 0-.3 0-.4 0-.2-1.6-.6-3.2-1.2-4.7-1.5-3.2-3-5.1-3.1-5.1-.3 0-.6.2-.9.3zm4.6 21.3c-.3 0-.4-.1-.5-.3-.1-.1-.1-.3-.1-.5 0-.3 0-.6.1-.9l.1-.4.3-.1c0 .7.1 1.5.1 2.2zm.7.2c0 1.6.6 3.4 1.8 6.3 0 0-.2.1-.4.2-.5-1.1-1-2.6-1.6-4.9s-.6-7.5-.6-10.6c0-5.9-2.5-9.8-4.1-12-.1-.2-.2-.1 0-.3s.3 0 .5.3c4.6 5.9 4 12.7 4 14.2 0 1.4.5 3.5 1.1 4.6-.4.5-.7 1.2-.7 2.2zm95.8-2.4c-4 0-19.3-.4-35.4-.4s-53.4-.2-53.4-.2c-3.4 0-5.8 1.1-6 1.4-.1.1 0-.5.3-.7-.3-.2-1.3-1.9-1.3-4.4 0-1.3 0-3.2-.2-5.1 2.5 0 5 .1 7.5.1 0 .4.1.7.1.9.3 1.6 1.7 4.1 5.6 4.1 3.8 0 52.1-.3 52.1-.3 2.8 0 5.8-1.3 6.9-4.6h23.1.8c-.1.8-.2 1.7-.2 2.5.1 1-.3 4.4.1 6.7zm39.5-2.7c-.1 0-.2 0-.3 0s-.1 0-.2-.1h-.1c0-.8 0-2.7-.3-5-.1-1.1-.2-2.2-.5-3.2.4 1.5.9 3.4 1.1 5.3.1 1 .3 2 .6 2.8-.1.1-.2.2-.3.2zm5.2 3.7c1.8 1.9 4.6 5.4 5.1 6.1.1.1.1.2.2.3h-.1c-.3-.1-1.3-.3-1.8-.5-.2-.1-.3-.1-.4-.1-2-3.3-5.4-7.2-6.3-8.1-.8-.8-1.4-2.4-1.6-4.3-.4-3.9-1.7-7.6-2.2-8.7-.3-.8-.7-1.5-.8-1.8.1.1.4.5.5.8.3.5.5 1 .7 1.3.1.2 1.2 3.3 1.5 4.3.6 1.9.2 2.9 1.2 5.6.4 1.8 2.1 3.1 4 5.1zm1.4-14h-2.8l2.8-.1zm0-.3-6.9.4c-.2 0-.2.2 0 .2l6.9-.1-.1 8.2c-.3.1-.6.2-.9.2-1.7.5-2.9.8-3.7 1.1-.2-.3-.4-.7-.5-1-1-2.6-.6-3.5-1.2-5.5-.3-1-1.5-4.3-1.5-4.3-.2-.3-.4-.9-.7-1.4-.1-.3-.3-.5-.4-.7s-.3-.3-.5-.3h-.1c-.1.1-.2.2-.2.3s0 .2.1.3c-.4-.7-.8-1.4-1.3-2.1 2.8-.1 8.2-.4 9.2-.6.8-.1 1.5-.4 2-.7zm.1-6.2c-.5.3-1.2.5-2 .7-1.1.2-6.6.5-9.3.6-3.5-4.7-9.1-7.8-15.5-7.8-9.7 0-17.8 7.2-19.1 16.6-.2 0-.5 0-.8 0-6.1-2.8-13.5-3.6-22.5-3.8.4-4.4.6-10.4.6-13.2 0-3.2-.2-5.8-.6-7 5.9-.1 15.5-.6 23.4-1.1 9.2-.6 25.1-1.8 32.7-1.8 2.5.2 9.2.5 15.1.5 3.6 0 7-.1 8.7-.5.3-.1.5-.2.6-.3.3 1 .6 2.4.7 3.3-3.6.8-10.1 2.7-11.7 3.4-1.2.5-1.6 1.3-1.6 2.3 0 .4.6 2.3 1.4 3.2zm16.9 10.2c-.6.3-1.8.6-2.7.7 1.2-.4 2.1-.9 2.7-1.3zm-3.6.8c-.2 0-.2.2 0 .2.6 0 2.7-.3 3.6-.8 0 .5 0 1.1-.2 1.4s-.4.5-.9.7c-1.1.3-9.5.9-15.6 2.3l.1-8.1 16.8-.2v.2c0 .9-.2 2.3-.2 2.8-.6.4-1.8 1.1-3.6 1.5z" fill="#120b14"/><path d="m226.9 190.1.4 3.1s0 .1.1.1.1 0 .1-.1l-.6-3.1c.1 0 .1 0 0 0z" fill="#120b14"/><path d="m226.7 190.8c-.1 0-.1 0 0 0l.1.9s0 .1.1.1.1-.1.1-.1z" fill="#120b14"/><path d="m160.8 159.4s0-.1 0-.2 0-.1-.1-.2 0 0 0-.1c.1-.1.1-.2.1-.3v-.1-.1c0-.1 0-.2-.1-.3 0 0 0-.1.1-.2v-.1c0-.1 0-.2-.1-.2h-.1c.5-2.6 3.1-12.8 3.9-15.3 0 0 0-.1-.1-.1 0 0-.1 0-.1.1-.8 2.5-3.5 12.8-3.9 15.4-.1 0-.2.2-.2.3 0 .2-.1.3-.2.4s-.1.2-.1.3v.1.1c0 .1.1.3.1.4l-.1.1c-.1 0-.2.1-.3.1h-.1v.1.2.1l1.4.1v-.1c0-.3 0-.4-.1-.5zm-.6-1.2.3.1v.1c-.1 0-.1.1-.2.1 0 0-.1 0-.1-.1 0 0-.1-.1-.1-.1.1 0 .1-.1.1-.1zm.1.4h.2s-.1.1-.1.1c-.1 0-.3-.1-.4-.1v-.1s0 0 0-.1c.1.1.2.2.3.2zm.1.3s0 .1 0 0c0 .1 0 .1 0 0-.1.1-.2.1-.2.1s0 0-.1 0c0 0 0-.1-.1-.2.2.1.3.1.4.1z" fill="#120b14"/><ellipse clip-rule="evenodd" cx="64.4" cy="211.5" fill="#879095" fill-rule="evenodd" rx="17.2" ry="17.4" stroke="#120b14" stroke-miterlimit="1"/><ellipse clip-rule="evenodd" cx="64.1" cy="211.4" fill="none" rx="12.8" ry="13" stroke="#120b14" stroke-miterlimit="1"/><ellipse clip-rule="evenodd" cx="64.1" cy="211.4" fill="#fff" fill-rule="evenodd" rx="11.1" ry="11.3"/><ellipse clip-rule="evenodd" cx="64.1" cy="211.4" fill="#120b14" fill-rule="evenodd" rx="9.4" ry="9.6"/><path clip-rule="evenodd" d="m64.1 203.7c-2.4 0-4.6 1.2-6 3l-1-.7c-.5.9-1.2 1.6-1.2 7.3.7 1.2 1.3 1.8 1.3 1.8l-.2.9 1.6 1.2.2-.2c1.4 1.4 3.3 2.2 5.3 2.2 4.2 0 7.6-3.5 7.6-7.8s-3.4-7.7-7.6-7.7z" fill="#879095" fill-rule="evenodd"/><path clip-rule="evenodd" d="m64.1 199.2c-6.6 0-12 5.5-12 12.2s5.4 12.2 12 12.2 12-5.5 12-12.2-5.4-12.2-12-12.2zm7.7 6.4c.3-.2 1-.6 1.4-.1.3.5 1 1.8 1 1.8s.5 1.4.6 1.9c.1.6-.6.9-1 .9s-2.2-.1-3-.2c-.7-.1-1-.4-1.2-.8s-.1-.8.3-1.4c.4-.5 1.6-1.9 1.9-2.1zm-6.1-3.8c.1-.4.4-1.1.9-1 .6.1 1.9.6 1.9.6s1.3.7 1.7 1c.5.4.1 1.1-.1 1.4s-1.7 1.5-2.3 1.9-1 .5-1.4.3-.6-.5-.7-1.2c0-.7-.1-2.6 0-3zm-7.4.4c.5-.3 1.8-.9 1.8-.9s1.4-.5 1.9-.5c.6-.1.9.6.9 1s-.1 2.2-.2 3c-.1.7-.4 1-.8 1.2s-.8.1-1.4-.3c-.6-.5-2-1.7-2.2-2-.2-.4-.5-1.1 0-1.5zm-4.9 7.1c.1-.6.5-1.9.5-1.9s.6-1.3.9-1.8 1.1-.2 1.4.1c.3.2 1.6 1.6 2 2.2s.5 1 .3 1.4-.4.6-1.2.8c-.7.1-2.6.3-3 .2-.2-.1-1-.4-.9-1zm3 8.1c-.3.2-1 .6-1.4.1-.3-.5-1-1.8-1-1.8s-.5-1.4-.6-1.9c-.1-.6.6-.9 1-.9s2.2 0 3 .2c.7.1 1 .4 1.2.7.2.4.1.8-.3 1.4-.4.5-1.6 1.9-1.9 2.2zm6.1 3.6c-.1.4-.4 1.1-.9 1-.6-.1-1.9-.6-1.9-.6s-1.3-.7-1.7-1c-.5-.4-.1-1.1.1-1.4s1.6-1.5 2.3-1.9c.6-.4 1-.5 1.4-.3s.6.5.7 1.2c0 .8.1 2.6 0 3zm-.9-9.6c0-1.4 1.1-2.5 2.5-2.5s2.5 1.1 2.5 2.5-1.1 2.5-2.5 2.5-2.5-1.1-2.5-2.5zm8.2 9.3c-.5.3-1.8.9-1.8.9s-1.4.4-1.9.5c-.6.1-.9-.7-.9-1 0-.4.1-2.2.3-3 .1-.7.4-1 .8-1.2s.8-.1 1.4.4 1.9 1.7 2.2 2c.1.3.4 1.1-.1 1.4zm4.9-6.8c-.1.6-.6 1.9-.6 1.9s-.7 1.3-1 1.7c-.4.5-1.1.1-1.4-.1s-1.5-1.6-1.9-2.3c-.4-.6-.5-1-.3-1.4s.5-.6 1.2-.7c.8-.1 2.6-.2 3-.1.4.2 1.1.5 1 1z" fill="#fff" fill-rule="evenodd" stroke="#120b14" stroke-miterlimit="1"/><ellipse clip-rule="evenodd" cx="64.1" cy="211.4" fill="none" rx="4.7" ry="4.8" stroke="#120b14" stroke-miterlimit="1" stroke-width=".6"/><ellipse clip-rule="evenodd" cx="64.1" cy="211.4" fill="none" rx="1.4" ry="1.5" stroke="#120b14" stroke-miterlimit="1" stroke-width=".4"/><ellipse clip-rule="evenodd" cx="64.1" cy="211.4" fill="none" rx=".8" ry=".8" stroke="#120b14" stroke-miterlimit="1" stroke-width=".4"/><path d="m60.3 212.4c-.1-.3-.1-.6-.1-.9 0-1.3.7-2.5 1.6-3.2" style="clip-rule:evenodd;fill:none;stroke:#120b14;stroke-width:.4;stroke-linecap:round;stroke-miterlimit:1"/><path d="m64.8 215.3c-.2 0-.5.1-.7.1-1.2 0-2.3-.6-3-1.5" style="clip-rule:evenodd;fill:none;stroke:#120b14;stroke-width:.4;stroke-linecap:round;stroke-miterlimit:1"/><path d="m67.9 210.9v.5c0 1.3-.6 2.5-1.6 3.2" style="clip-rule:evenodd;fill:none;stroke:#120b14;stroke-width:.4;stroke-linecap:round;stroke-miterlimit:1"/><path d="m63.5 207.5h.6c1.4 0 2.6.7 3.3 1.9" style="clip-rule:evenodd;fill:none;stroke:#120b14;stroke-width:.4;stroke-linecap:round;stroke-miterlimit:1"/><path d="m63.5 208.4c0-.2-.1-.5-.2-.5-.1-.1-.5-.5-.8-.5h-.1c-.1.1-.2.3-.2.5s0 .5.1.5c0 .1.3.5.6.5.1 0 .2 0 .2-.1.3-.1.4-.2.4-.4zm-1.1-.5c0-.2 0-.3.1-.4h.1c.2 0 .6.4.7.4v.1c-.1-.1-.2-.1-.3-.1s-.2 0-.2.1c-.2.1-.2.3-.2.4-.2-.1-.2-.3-.2-.5z" fill="#120b14"/><path d="m61 212.2c-.3 0-.5.2-.5.2-.1.1-.5.5-.5.8v.1c.1.1.3.2.5.2s.5-.1.5-.1c.1 0 .5-.3.5-.7 0-.1 0-.2-.1-.3 0-.1-.2-.2-.4-.2zm-.5 1.2c-.2 0-.4 0-.4-.1 0 0 0 0 0-.1 0-.2.4-.7.4-.7s0 0 .1-.1c0 .1-.1.2-.1.4 0 .1 0 .2.1.3.1.2.3.2.5.2 0 0 0 0-.1 0 0 .1-.2.1-.5.1z" fill="#120b14"/><path d="m64.7 214.5c0 .3.1.5.2.6s.5.5.8.5h.1c.1-.1.2-.3.2-.5s0-.5-.1-.5c0-.1-.3-.5-.6-.5-.1 0-.2 0-.3.1-.2 0-.3.2-.3.3zm1.2.6c0 .2 0 .3-.1.4 0 0 0 0-.1 0-.2 0-.7-.4-.7-.5 0 0 0 0 0-.1.1.1.2.1.4.1.1 0 .2 0 .3-.1.2-.1.2-.3.3-.5v.1c-.2.1-.1.4-.1.6z" fill="#120b14"/><path d="m67.3 210.7c.2 0 .5-.1.5-.2.1-.1.5-.4.5-.8v-.1c-.1-.1-.3-.2-.5-.2s-.5 0-.5.1c-.1 0-.5.3-.5.6 0 .1 0 .2.1.2 0 .4.2.4.4.4zm.5-1.1c.2 0 .3 0 .4.1v.1c0 .2-.4.6-.4.7 0 0 0 0-.1 0 .1-.1.1-.2.1-.3s0-.2-.1-.2c-.1-.2-.3-.2-.4-.2 0-.1.3-.2.5-.2z" fill="#120b14"/><path d="m55.4 205c.6-.8 1.3-1.6 2.1-2.2" style="clip-rule:evenodd;fill:none;stroke:#120b14;stroke-width:.6;stroke-linecap:round;stroke-miterlimit:1"/><path d="m53.4 212.9c-.1-.5-.1-1-.1-1.5 0-.4 0-.9.1-1.3" style="clip-rule:evenodd;fill:none;stroke:#120b14;stroke-width:.6;stroke-linecap:round;stroke-miterlimit:1"/><path d="m57.3 220c-.7-.6-1.3-1.2-1.8-2" style="clip-rule:evenodd;fill:none;stroke:#120b14;stroke-width:.6;stroke-linecap:round;stroke-miterlimit:1"/><path d="m65.3 222.4c-.4 0-.8.1-1.3.1s-1.1 0-1.6-.1" style="clip-rule:evenodd;fill:none;stroke:#120b14;stroke-width:.6;stroke-linecap:round;stroke-miterlimit:1"/><path d="m72.6 218.3c-.6.8-1.3 1.4-2 2" style="clip-rule:evenodd;fill:none;stroke:#120b14;stroke-width:.6;stroke-linecap:round;stroke-miterlimit:1"/><path d="m74.8 210c.1.5.1 1 .1 1.5 0 .6 0 1.2-.1 1.8" style="clip-rule:evenodd;fill:none;stroke:#120b14;stroke-width:.6;stroke-linecap:round;stroke-miterlimit:1"/><path d="m71 202.9c.7.6 1.3 1.2 1.8 1.9" style="clip-rule:evenodd;fill:none;stroke:#120b14;stroke-width:.6;stroke-linecap:round;stroke-miterlimit:1"/><path d="m62.7 200.5c.4-.1.9-.1 1.4-.1.6 0 1.2.1 1.8.2" style="clip-rule:evenodd;fill:none;stroke:#120b14;stroke-width:.6;stroke-linecap:round;stroke-miterlimit:1"/><path d="m56.2 204.9c.4-.5.8-1 1.3-1.4" style="clip-rule:evenodd;fill:none;stroke:#120b14;stroke-width:.4;stroke-linecap:round;stroke-miterlimit:1"/><path d="m54 212.6c0-.4-.1-.7-.1-1.1 0-.3 0-.6 0-.9" style="clip-rule:evenodd;fill:none;stroke:#120b14;stroke-width:.4;stroke-linecap:round;stroke-miterlimit:1"/><path d="m57.4 219.2c-.5-.4-.9-.8-1.2-1.3" style="clip-rule:evenodd;fill:none;stroke:#120b14;stroke-width:.4;stroke-linecap:round;stroke-miterlimit:1"/><path d="m64.9 221.7c-.3 0-.5 0-.8 0s-.7 0-1-.1" style="clip-rule:evenodd;fill:none;stroke:#120b14;stroke-width:.4;stroke-linecap:round;stroke-miterlimit:1"/><path d="m71.9 218.1c-.4.5-.9 1-1.4 1.4" style="clip-rule:evenodd;fill:none;stroke:#120b14;stroke-width:.4;stroke-linecap:round;stroke-miterlimit:1"/><path d="m74.2 210.5v.9c0 .4 0 .8-.1 1.2" style="clip-rule:evenodd;fill:none;stroke:#120b14;stroke-width:.4;stroke-linecap:round;stroke-miterlimit:1"/><path d="m70.8 203.7c.5.4.9.9 1.3 1.4" style="clip-rule:evenodd;fill:none;stroke:#120b14;stroke-width:.4;stroke-linecap:round;stroke-miterlimit:1"/><path d="m63.4 201.1h.7c.5 0 .9 0 1.4.1" style="clip-rule:evenodd;fill:none;stroke:#120b14;stroke-width:.4;stroke-linecap:round;stroke-miterlimit:1"/><path d="m57.3 204.5-.2-.2v.1h.1l-.2.2.2-.2v.1z" fill="#ae3327"/><path d="m57.9 205.1-.2.1.1-.2-.1-.1-.2.2.1.1.1-.2-.1.2.1.1.2-.1-.2.1.1.1.2-.2z" fill="#ae3327"/><path d="m57.2 204.7h.1v.1l.1-.1h-.1l.1-.1v.1l.1-.1-.2-.1-.2.2.1.1h.1z" fill="#ae3327"/><path d="m58 205.5h.1.1l-.1-.1.1.1.1-.1-.2-.1-.2.2.1.1h.1z" fill="#ae3327"/><path d="m59.1 206.6h.1.1l-.1-.1.1.1.1-.1-.2-.1-.2.2.1.1h.1z" fill="#ae3327"/><path d="m57.5 205.1.2-.2h-.1l-.3.1v.1h.1z" fill="#ae3327"/><path d="m58.4 205.6-.2.2s-.1 0-.1-.1l.3-.1-.1-.1-.2.2v.1s.1.1.1 0z" fill="#ae3327"/><path d="m58.5 206.1v-.1h.1s.1-.1 0-.1c0 0 0 0-.1-.1l-.2.2zm0-.3s.1 0 0 0c.1.1.1.1 0 0 .1.1 0 .1 0 0 0 .1 0 .1 0 0z" fill="#ae3327"/><path d="m58.9 206c-.1-.1-.2-.1-.2 0-.1.1-.1.2 0 .2.1.1.2.1.2 0 0 0 0-.1 0-.2zm-.2.2v-.1h.1v.1z" fill="#ae3327"/><path d="m59.1 206.4s.1-.1 0-.1c0 0 0 0-.1-.1l-.2.2c.2.1.3.1.3 0zm-.1-.1c.1 0 .1.1 0 0 .1.1 0 .1 0 0z" fill="#ae3327"/><path clip-rule="evenodd" d="m58.5 205.2c.1-.1.3-.1.4 0s.1.3 0 .4-.3.1-.4 0-.1-.3 0-.4zm.1.3c.1.1.2.1.2 0 .1-.1.1-.2 0-.2-.1-.1-.2-.1-.2 0-.1 0-.1.1 0 .2z" fill="#ae3327" fill-rule="evenodd"/><path clip-rule="evenodd" d="m59.3 205.7-.4.3v-.1l.3-.3-.1-.1v-.1l.3.3v.1z" fill="#ae3327" fill-rule="evenodd"/><path clip-rule="evenodd" d="m59.2 206.1h-.1l-.1-.1.5-.2.1.1.1.1-.2.5-.1-.1.1-.1zm.2 0 .1-.1z" fill="#ae3327" fill-rule="evenodd"/><path clip-rule="evenodd" d="m57.7 204.2-.3.2h-.1l.3-.3-.1-.1.1-.1.3.3-.1.1z" fill="#ae3327" fill-rule="evenodd"/><path clip-rule="evenodd" d="m57.7 204.4c.1-.1.3-.1.4 0s.1.3 0 .4-.3.1-.4 0-.1-.3 0-.4zm.1.3c.1.1.2.1.2 0 .1-.1.1-.2 0-.2-.1-.1-.2-.1-.2 0z" fill="#ae3327" fill-rule="evenodd"/><path clip-rule="evenodd" d="m58.1 205.2h.1l.1-.1.4-.1-.1-.1-.2.1v-.3l-.1-.1-.1.4-.1.1z" fill="#ae3327" fill-rule="evenodd"/><path d="m59.2 207.1 1.2-.3-.3-.2-1.2.3z" fill="#ae3327"/><path d="m59.8 207.7 1.3-.3-.6-.5-1.3.3z" fill="#ae3327"/><path clip-rule="evenodd" d="m69 217.9c0-.2.1-.5.4-.9-.3-.4-.4-.8-.2-1-.2 0-.3.1-.4.2-.4.4-.3 1.1.2 1.7zm-.4-1.8c.4-.4 1.2-.2 1.8.4s.8 1.5.4 1.9-1.2.2-1.8-.4-.8-1.5-.4-1.9zm1.7.5c.1.1 0 .4-.2.7.3.2.5.3.6.2s-.1-.5-.4-.9-.7-.6-.8-.5 0 .4.2.6c.2-.1.5-.2.6-.1zm-1.2 1.4c.5.5 1.2.6 1.5.2.1-.1.2-.3.2-.5-.2.2-.5.1-.9-.2-.3.4-.6.5-.8.5zm.7-.9.2.2c.1-.2.2-.4.1-.4-.1-.1-.2 0-.4.1s.1 0 .1.1zm-.5.6c.1.1.3 0 .6-.3-.1-.1-.1-.1-.2-.2s-.1-.1-.2-.2c-.2.3-.3.6-.2.7z" fill="#ae3327" fill-rule="evenodd"/><path clip-rule="evenodd" d="m74.7 202.4h1.5v.5h-1.5z" fill="#fff" fill-rule="evenodd" transform="matrix(.8001 -.5998 .5998 .8001 -106.4491 85.7336)"/><path clip-rule="evenodd" d="m77.4 209h1.5v.5h-1.5z" fill="#fff" fill-rule="evenodd" transform="matrix(.9851 -.1719 .1719 .9851 -34.8079 16.5598)"/><path clip-rule="evenodd" d="m74.4 200.9-.6 1 .3.2.6-.4-.5.6.4.4 1.1-1.1-.5-.5-.8.4.5-.7-.6-.6-1 1.1.4.4z" fill="#fff" fill-rule="evenodd"/><path clip-rule="evenodd" d="m77.8 205-.6.2-.1-.3.5-.2-.1-.4-1.5.5.2.5.6-.2.1.2-.6.3.2.4 1.4-.6z" fill="#fff" fill-rule="evenodd"/><path clip-rule="evenodd" d="m78 207.1.5-.1-.4-1.1-1.4.5.3 1.1.4-.2-.2-.6h.1l.2.6.3-.1-.2-.6.2-.1z" fill="#fff" fill-rule="evenodd"/><path clip-rule="evenodd" d="m77.7 208.3 1-.3-.1-.4-1.5.3.2.9.5-.1z" fill="#fff" fill-rule="evenodd"/><path clip-rule="evenodd" d="m76.1 203.5c.1-.1.4 0 .5.4.2-.1.5-.3.5-.3-.1-.3-.4-1.1-1.2-.6l-.1.1c-.8.5-.2 1.1 0 1.3 0 0 .3-.2.5-.3-.5-.2-.4-.4-.2-.6-.1.1 0 0 0 0z" fill="#fff" fill-rule="evenodd"/><path clip-rule="evenodd" d="m79.1 210.8h-.6l.6-.2-.1-.7-1.5.1v.6h.6l-.6.2.1.6h1.5z" fill="#fff" fill-rule="evenodd"/><ellipse clip-rule="evenodd" cx="199.6" cy="211.5" fill="#879095" fill-rule="evenodd" rx="17.2" ry="17.4" stroke="#120b14" stroke-miterlimit="1"/><ellipse clip-rule="evenodd" cx="199.3" cy="211.4" fill="none" rx="12.8" ry="13" stroke="#120b14" stroke-miterlimit="1"/><ellipse clip-rule="evenodd" cx="199.3" cy="211.4" fill="#fff" fill-rule="evenodd" rx="11.1" ry="11.3"/><ellipse clip-rule="evenodd" cx="199.3" cy="211.4" fill="#120b14" fill-rule="evenodd" rx="9.4" ry="9.6"/><path clip-rule="evenodd" d="m199.3 203.7c-2.4 0-4.6 1.2-6 3l-1-.7c-.5.9-1.2 1.6-1.2 7.3.7 1.2 1.3 1.8 1.3 1.8l-.2.9 1.6 1.2.2-.2c1.4 1.4 3.3 2.2 5.3 2.2 4.2 0 7.6-3.5 7.6-7.8s-3.4-7.7-7.6-7.7z" fill="#879095" fill-rule="evenodd"/><path clip-rule="evenodd" d="m199.3 199.2c-6.6 0-12 5.5-12 12.2s5.4 12.2 12 12.2 12-5.5 12-12.2-5.4-12.2-12-12.2zm7.8 6.4c.3-.2 1-.6 1.4-.1.3.5 1 1.8 1 1.8s.5 1.4.6 1.9c.1.6-.6.9-1 .9s-2.2-.1-3-.2c-.7-.1-1-.4-1.2-.8s-.1-.8.3-1.4c.3-.5 1.6-1.9 1.9-2.1zm-6.2-3.8c.1-.4.4-1.1.9-1 .6.1 1.9.6 1.9.6s1.3.7 1.7 1c.5.4.1 1.1-.1 1.4s-1.7 1.5-2.3 1.9-1 .5-1.4.3-.6-.5-.7-1.2c0-.7 0-2.6 0-3zm-7.4.4c.5-.3 1.8-.9 1.8-.9s1.4-.5 1.9-.5c.6-.1.9.6.9 1s-.1 2.2-.2 3c-.1.7-.4 1-.8 1.2s-.8.1-1.4-.3c-.6-.5-2-1.7-2.2-2-.2-.4-.5-1.1 0-1.5zm-4.8 7.1c.1-.6.5-1.9.5-1.9s.6-1.3.9-1.8 1.1-.2 1.4.1c.3.2 1.6 1.6 2 2.2s.5 1 .3 1.4-.4.6-1.2.8c-.7.1-2.6.3-3 .2-.3-.1-1-.4-.9-1zm2.9 8.1c-.3.2-1 .6-1.4.1-.3-.5-1-1.8-1-1.8s-.5-1.4-.6-1.9c-.1-.6.6-.9 1-.9s2.2 0 3 .2c.7.1 1 .4 1.2.7.2.4.1.8-.3 1.4-.4.5-1.6 1.9-1.9 2.2zm6.2 3.6c-.1.4-.4 1.1-.9 1-.6-.1-1.9-.6-1.9-.6s-1.3-.7-1.7-1c-.5-.4-.1-1.1.1-1.4s1.6-1.5 2.3-1.9c.6-.4 1-.5 1.4-.3s.6.5.7 1.2zm-.9-9.6c0-1.4 1.1-2.5 2.5-2.5s2.5 1.1 2.5 2.5-1.1 2.5-2.5 2.5-2.5-1.1-2.5-2.5zm8.1 9.3c-.5.3-1.8.9-1.8.9s-1.4.4-1.9.5c-.6.1-.9-.7-.9-1 0-.4.1-2.2.3-3 .1-.7.4-1 .8-1.2s.8-.1 1.4.4 1.9 1.7 2.2 2c.1.3.4 1.1-.1 1.4zm4.9-6.8c-.1.6-.6 1.9-.6 1.9s-.7 1.3-1 1.7c-.4.5-1.1.1-1.4-.1s-1.5-1.6-1.9-2.3c-.4-.6-.5-1-.3-1.4s.5-.6 1.2-.7c.8-.1 2.6-.2 3-.1.4.2 1.1.5 1 1z" fill="#fff" fill-rule="evenodd" stroke="#120b14" stroke-miterlimit="1"/><ellipse clip-rule="evenodd" cx="199.3" cy="211.4" fill="none" rx="4.7" ry="4.8" stroke="#120b14" stroke-miterlimit="1" stroke-width=".6"/><ellipse clip-rule="evenodd" cx="199.3" cy="211.4" fill="none" rx="1.4" ry="1.5" stroke="#120b14" stroke-miterlimit="1" stroke-width=".4"/><ellipse clip-rule="evenodd" cx="199.3" cy="211.4" fill="none" rx=".8" ry=".8" stroke="#120b14" stroke-miterlimit="1" stroke-width=".4"/><path d="m195.6 212.4c-.1-.3-.1-.6-.1-.9 0-1.3.7-2.5 1.6-3.2" style="clip-rule:evenodd;fill:none;stroke:#120b14;stroke-width:.4;stroke-linecap:round;stroke-miterlimit:1"/><path d="m200 215.3c-.2 0-.5.1-.7.1-1.2 0-2.3-.6-3-1.5" style="clip-rule:evenodd;fill:none;stroke:#120b14;stroke-width:.4;stroke-linecap:round;stroke-miterlimit:1"/><path d="m203.2 210.9v.5c0 1.3-.6 2.5-1.6 3.2" style="clip-rule:evenodd;fill:none;stroke:#120b14;stroke-width:.4;stroke-linecap:round;stroke-miterlimit:1"/><path d="m198.8 207.5h.6c1.4 0 2.6.7 3.3 1.9" style="clip-rule:evenodd;fill:none;stroke:#120b14;stroke-width:.4;stroke-linecap:round;stroke-miterlimit:1"/><path d="m198.7 208.4c0-.2-.1-.5-.2-.5-.1-.1-.5-.5-.8-.5h-.1c-.1.1-.2.3-.2.5s0 .5.1.5c0 .1.3.5.6.5.1 0 .2 0 .2-.1.3-.1.4-.2.4-.4zm-1.1-.5c0-.2 0-.3.1-.4h.1c.2 0 .6.4.7.4v.1c-.1-.1-.2-.1-.3-.1s-.2 0-.2.1c-.2.1-.2.3-.2.4-.2-.1-.2-.3-.2-.5z" fill="#120b14"/><path d="m196.3 212.2c-.3 0-.5.2-.5.2-.1.1-.5.5-.5.8v.1c.1.1.3.2.5.2s.5-.1.5-.1c.1 0 .5-.3.5-.7 0-.1 0-.2-.1-.3-.1-.1-.3-.2-.4-.2zm-.5 1.2c-.2 0-.4 0-.4-.1 0 0 0 0 0-.1 0-.2.4-.7.4-.7s0 0 .1-.1c0 .1-.1.2-.1.4 0 .1 0 .2.1.3.1.2.3.2.5.2 0 0 0 0-.1 0-.1.1-.3.1-.5.1z" fill="#120b14"/><path d="m200 214.5c0 .3.1.5.2.6s.5.5.8.5h.1c.1-.1.2-.3.2-.5s0-.5-.1-.5c0-.1-.3-.5-.6-.5-.1 0-.2 0-.3.1-.3 0-.3.2-.3.3zm1.1.6c0 .2 0 .3-.1.4 0 0 0 0-.1 0-.2 0-.7-.4-.7-.5 0 0 0 0 0-.1.1.1.2.1.4.1.1 0 .2 0 .3-.1.2-.1.2-.3.3-.5v.1c-.1.1-.1.4-.1.6z" fill="#120b14"/><path d="m202.5 210.7c.2 0 .5-.1.5-.2.1-.1.5-.4.5-.8v-.1c-.1-.1-.3-.2-.5-.2s-.5 0-.5.1c-.1 0-.5.3-.5.6 0 .1 0 .2.1.2 0 .4.2.4.4.4zm.5-1.1c.2 0 .3 0 .4.1v.1c0 .2-.4.6-.4.7 0 0 0 0-.1 0 .1-.1.1-.2.1-.3s0-.2-.1-.2c-.1-.2-.3-.2-.4-.2.1-.1.3-.2.5-.2z" fill="#120b14"/><path d="m190.6 205c.6-.8 1.3-1.6 2.1-2.2" style="clip-rule:evenodd;fill:none;stroke:#120b14;stroke-width:.6;stroke-linecap:round;stroke-miterlimit:1"/><path d="m188.6 212.9c-.1-.5-.1-1-.1-1.5 0-.4 0-.9.1-1.3" style="clip-rule:evenodd;fill:none;stroke:#120b14;stroke-width:.6;stroke-linecap:round;stroke-miterlimit:1"/><path d="m192.5 220c-.7-.6-1.3-1.2-1.8-2" style="clip-rule:evenodd;fill:none;stroke:#120b14;stroke-width:.6;stroke-linecap:round;stroke-miterlimit:1"/><path d="m200.6 222.4c-.4 0-.8.1-1.3.1s-1.1 0-1.6-.1" style="clip-rule:evenodd;fill:none;stroke:#120b14;stroke-width:.6;stroke-linecap:round;stroke-miterlimit:1"/><path d="m207.8 218.3c-.6.8-1.3 1.4-2 2" style="clip-rule:evenodd;fill:none;stroke:#120b14;stroke-width:.6;stroke-linecap:round;stroke-miterlimit:1"/><path d="m210 210c.1.5.1 1 .1 1.5 0 .6 0 1.2-.1 1.8" style="clip-rule:evenodd;fill:none;stroke:#120b14;stroke-width:.6;stroke-linecap:round;stroke-miterlimit:1"/><path d="m206.2 202.9c.7.6 1.3 1.2 1.8 1.9" style="clip-rule:evenodd;fill:none;stroke:#120b14;stroke-width:.6;stroke-linecap:round;stroke-miterlimit:1"/><path d="m198 200.5c.4-.1.9-.1 1.4-.1.6 0 1.2.1 1.8.2" style="clip-rule:evenodd;fill:none;stroke:#120b14;stroke-width:.6;stroke-linecap:round;stroke-miterlimit:1"/><path d="m191.5 204.9c.4-.5.8-1 1.3-1.4" style="clip-rule:evenodd;fill:none;stroke:#120b14;stroke-width:.4;stroke-linecap:round;stroke-miterlimit:1"/><path d="m189.3 212.6c0-.4-.1-.7-.1-1.1 0-.3 0-.6 0-.9" style="clip-rule:evenodd;fill:none;stroke:#120b14;stroke-width:.4;stroke-linecap:round;stroke-miterlimit:1"/><path d="m192.7 219.2c-.5-.4-.9-.8-1.2-1.3" style="clip-rule:evenodd;fill:none;stroke:#120b14;stroke-width:.4;stroke-linecap:round;stroke-miterlimit:1"/><path d="m200.1 221.7c-.3 0-.5 0-.8 0s-.7 0-1-.1" style="clip-rule:evenodd;fill:none;stroke:#120b14;stroke-width:.4;stroke-linecap:round;stroke-miterlimit:1"/><path d="m207.1 218.1c-.4.5-.9 1-1.4 1.4" style="clip-rule:evenodd;fill:none;stroke:#120b14;stroke-width:.4;stroke-linecap:round;stroke-miterlimit:1"/><path d="m209.4 210.5v.9c0 .4 0 .8-.1 1.2" style="clip-rule:evenodd;fill:none;stroke:#120b14;stroke-width:.4;stroke-linecap:round;stroke-miterlimit:1"/><path d="m206 203.7c.5.4.9.9 1.3 1.4" style="clip-rule:evenodd;fill:none;stroke:#120b14;stroke-width:.4;stroke-linecap:round;stroke-miterlimit:1"/><path d="m198.7 201.1h.7c.5 0 .9 0 1.4.1" style="clip-rule:evenodd;fill:none;stroke:#120b14;stroke-width:.4;stroke-linecap:round;stroke-miterlimit:1"/><path d="m192.5 204.5-.1-.2-.1.1h.1l-.2.2.2-.2z" fill="#ae3327"/><path d="m193.1 205.1-.1.1v-.2-.1l-.2.2v.1l.2-.2-.1.2v.1l.2-.1-.1.1v.1l.2-.2z" fill="#ae3327"/><path d="m192.4 204.7h.1l.1.1v-.1h-.1l.1-.1.1.1v-.1l-.1-.1-.2.2.1.1z" fill="#ae3327"/><path d="m193.2 205.5h.1.1l-.1-.1h.1v.1l.1-.1-.1-.1-.3.2.2.1z" fill="#ae3327"/><path d="m194.3 206.6h.1.1l-.1-.1h.1v.1l.1-.1-.1-.1-.3.2.2.1z" fill="#ae3327"/><path d="m192.7 205.1.2-.2h-.1l-.3.1v.1h.1z" fill="#ae3327"/><path d="m193.7 205.6-.2.2s-.1 0-.1-.1l.3-.1-.1-.1-.2.2v.1s.1.1.1 0z" fill="#ae3327"/><path d="m193.7 206.1v-.1h.1s.1-.1 0-.1c0 0 0 0-.1-.1l-.2.2zm.1-.3c0 .1 0 .1 0 0-.1.1-.1.1 0 0z" fill="#ae3327"/><path d="m194.1 206c-.1-.1-.2-.1-.2 0-.1.1-.1.2 0 .2.1.1.2.1.2 0 .1 0 .1-.1 0-.2zm-.2.2v-.1h.1v.1z" fill="#ae3327"/><path d="m194.3 206.4s.1-.1 0-.1c0 0 0 0-.1-.1l-.2.2c.2.1.3.1.3 0zm0-.1s0 .1 0 0c0 .1 0 .1 0 0-.1.1-.1 0 0 0z" fill="#ae3327"/><path clip-rule="evenodd" d="m193.8 205.2c.1-.1.3-.1.4 0s.1.3 0 .4-.3.1-.4 0c-.2-.1-.2-.3 0-.4zm0 .3c.1.1.2.1.2 0 .1-.1.1-.2 0-.2-.1-.1-.2-.1-.2 0z" fill="#ae3327" fill-rule="evenodd"/><path clip-rule="evenodd" d="m194.5 205.7-.3.3-.1-.1.3-.3-.1-.1.1-.1.3.3-.1.1z" fill="#ae3327" fill-rule="evenodd"/><path clip-rule="evenodd" d="m194.5 206.1h-.1l-.1-.1.5-.2.1.1.1.1-.2.5-.1-.1.1-.1zm.1 0 .1-.1z" fill="#ae3327" fill-rule="evenodd"/><path clip-rule="evenodd" d="m193 204.2-.4.2.3-.3-.1-.1v-.1l.3.3v.1z" fill="#ae3327" fill-rule="evenodd"/><path clip-rule="evenodd" d="m193 204.4c.1-.1.3-.1.4 0s.1.3 0 .4-.3.1-.4 0-.1-.3 0-.4zm0 .3c.1.1.2.1.2 0 .1-.1.1-.2 0-.2-.1-.1-.2-.1-.2 0z" fill="#ae3327" fill-rule="evenodd"/><path clip-rule="evenodd" d="m193.4 205.2.2-.1.3-.1-.1-.1-.2.1.1-.3-.1-.1-.1.4-.2.1z" fill="#ae3327" fill-rule="evenodd"/><path d="m194.4 207.1 1.3-.3-.3-.2-1.3.3z" fill="#ae3327"/><path d="m195.1 207.7 1.3-.3-.7-.5-1.2.3z" fill="#ae3327"/><path clip-rule="evenodd" d="m204.2 217.9c0-.2.1-.5.4-.9-.3-.4-.4-.8-.2-1-.2 0-.3.1-.4.2-.3.4-.2 1.1.2 1.7zm-.4-1.8c.4-.4 1.2-.2 1.8.4s.8 1.5.4 1.9-1.2.2-1.8-.4-.7-1.5-.4-1.9zm1.7.5c.1.1 0 .4-.2.7.3.2.5.3.6.2s0-.5-.4-.9c-.3-.4-.7-.6-.8-.5s0 .4.2.6c.2-.1.5-.2.6-.1zm-1.1 1.4c.5.5 1.2.6 1.5.2.1-.1.2-.3.2-.5-.2.2-.5.1-.9-.2-.3.4-.7.5-.8.5zm.7-.9.2.2c.1-.2.2-.4.1-.4-.1-.1-.2 0-.4.1s0 0 .1.1zm-.6.6c.1.1.3 0 .6-.3-.1-.1-.1-.1-.2-.2s-.1-.1-.2-.2c-.2.3-.3.6-.2.7z" fill="#ae3327" fill-rule="evenodd"/><path clip-rule="evenodd" d="m209.9 202.4h1.5v.5h-1.5z" fill="#fff" fill-rule="evenodd" transform="matrix(.8001 -.5998 .5998 .8001 -79.4222 166.8456)"/><path clip-rule="evenodd" d="m212.7 209h1.5v.5h-1.5z" fill="#fff" fill-rule="evenodd" transform="matrix(.9851 -.1719 .1719 .9851 -32.7941 39.8103)"/><path clip-rule="evenodd" d="m209.7 200.9-.6 1 .2.2.7-.4-.6.6.4.4 1.1-1.1-.5-.5-.7.4.4-.7-.5-.6-1.1 1.1.4.4z" fill="#fff" fill-rule="evenodd"/><path clip-rule="evenodd" d="m213 205-.5.2-.1-.3.5-.2-.2-.4-1.4.5.1.5.6-.2.1.2-.5.3.1.4 1.5-.6z" fill="#fff" fill-rule="evenodd"/><path clip-rule="evenodd" d="m213.2 207.1.5-.1-.4-1.1-1.4.5.3 1.1.4-.2-.2-.6h.2l.2.6.3-.1-.2-.6.1-.1z" fill="#fff" fill-rule="evenodd"/><path clip-rule="evenodd" d="m213 208.3 1-.3-.1-.4-1.5.3.2.9.5-.1z" fill="#fff" fill-rule="evenodd"/><path clip-rule="evenodd" d="m211.3 203.5c.1-.1.4 0 .5.4.2-.1.5-.3.5-.3-.1-.3-.4-1.1-1.2-.6l-.1.1c-.8.5-.2 1.1 0 1.3 0 0 .3-.2.5-.3-.5-.2-.4-.4-.2-.6z" fill="#fff" fill-rule="evenodd"/><path clip-rule="evenodd" d="m214.3 210.8h-.5l.5-.2v-.7l-1.6.1.1.6h.5l-.5.2v.6h1.5z" fill="#fff" fill-rule="evenodd"/><path d="m36.9 197.3h7.7v7.7h-7.7z" fill="#26645b"/><path clip-rule="evenodd" d="m40.7 197.7c-1.9 0-3.4 1.5-3.4 3.4s1.5 3.4 3.4 3.4 3.4-1.5 3.4-3.4c0-1.8-1.5-3.4-3.4-3.4zm.1.4c1.4 0 2.5.9 3 2.1h-4.5l.5-2c.3 0 .6-.1 1-.1zm0 6.3c-1.7 0-3.2-1.4-3.2-3.1 0-1.1.6-2.1 1.5-2.6l-1 3.6h5.7c-.4 1.2-1.6 2.1-3 2.1z" fill="#fff" fill-rule="evenodd"/><path clip-rule="evenodd" d="m43.8 200.3c0 .1-.1.2-.1.4 0 .1-.1.2-.1.4 0 .1-.1.2-.1.4 0 .1-.1.2-.1.4-.1 0-.2 0-.4 0 0-.1.1-.2.1-.4 0-.1.1-.2.1-.4 0-.1.1-.2.1-.4 0-.1.1-.2.1-.4z" fill="#e82326" fill-rule="evenodd"/><path clip-rule="evenodd" d="m43.2 201c0 .1-.1.2-.1.3s-.1.2-.1.2-.1.1-.1.1-.1.1-.2.1v-.4c0-.1 0-.1 0-.2s0-.2.1-.3c0-.1 0-.1 0-.1v.1.1-.4h.1.2s.1.1.1.1v.1zm-.5.8s-.1 0-.2 0-.1 0-.2 0c0 0-.1 0-.1-.1v-.1s0-.1 0-.2 0-.2.1-.3c0-.1.1-.2.1-.3s.1-.1.2-.1h.1v.4c0 .1 0 .1-.1.2 0 .1 0 .2-.1.3v.1s0 0 0-.1v-.1.3z" fill="#e82326" fill-rule="evenodd"/><path clip-rule="evenodd" d="m42.2 200.6c0 .1 0 .1-.1.2.1-.1.2-.2.3-.2 0 .1 0 .1-.1.2 0 .1 0 .1-.1.2-.1 0-.1 0-.1 0s-.1 0-.1.1c0 0 0 .1-.1.2 0 .1 0 .2-.1.2 0 .1 0 .2-.1.2s-.2 0-.3 0c0-.1 0-.2.1-.3 0-.1 0-.2.1-.3 0-.1 0-.2.1-.3 0-.1 0-.2.1-.3.2.1.3.1.4.1z" fill="#e82326" fill-rule="evenodd"/><path clip-rule="evenodd" d="m41.8 200.4v.2h.1v.2h-.1c0 .1-.1.2-.1.3s-.1.2-.1.3v.1h.1v.2h-.1c-.1 0-.1 0-.2 0h-.1s0 0 0-.1c0 0 0-.1 0-.2s0-.2.1-.3c0-.1 0-.2.1-.3 0 0 0 0-.1 0 0-.1 0-.1 0-.2h.1c0-.1 0-.1 0-.2z" fill="#e82326" fill-rule="evenodd"/><path clip-rule="evenodd" d="m41.1 201c-.1 0-.2 0-.3 0 0 0 0 0 0-.1s0-.1 0-.1v.1.1.1s.1 0 .1.1c.1 0 .1.1.2.1v.2c0 .1-.1.2-.1.2s-.1.1-.1.1c-.1 0-.1 0-.2 0s-.2 0-.2 0c-.1 0-.1-.1-.1-.1s0-.1 0-.2c0 0 0 0 0-.1h.3v.1.1h.1s0 0 0-.1 0-.1 0-.1-.1-.1-.2-.1c-.1-.1-.1-.1-.1-.2 0 0 0-.1 0-.2s0-.2.1-.2c0 0 .1-.1.1-.1h.2.2s.1 0 .1.1v.1s0 0-.1.2c.1-.1.1-.1 0 0 0 0 .1-.1 0 0z" fill="#e82326" fill-rule="evenodd"/><path clip-rule="evenodd" d="m39.9 201v-.4h.2c.1 0 .2 0 .2.1 0 0 .1.1.1.2v.1c0 .1 0 .1-.1.2 0 .1 0 .2-.1.3 0 .1 0 .2-.1.3-.1 0-.2 0-.3 0v-.2-.1c0-.1 0-.2.1-.2 0 0-.1 0-.1.1l.1-.4h.1s0 0 0-.1 0-.1 0-.1v.1c-.1.1-.1.1-.1.1zm-.1 0c-.1 0-.2 0-.3 0v-.1c0-.1 0-.2.1-.2 0 0 .1-.1.2-.1zm0 .8v-.1s-.1.1-.1.1h-.1c-.1 0-.1 0-.2 0 0 0 0-.1 0-.2v-.1c0-.1 0-.1.1-.2 0 0 .1-.1.2-.1h.1v.2.1.1z" fill="#e82326" fill-rule="evenodd"/><path clip-rule="evenodd" d="m39.5 201c-.1 0-.2 0-.4 0 0-.1 0-.2.1-.2 0-.1 0-.1 0-.1h-.1v.1c0 .1 0 .2-.1.3 0 .1-.1.2-.1.3v.1h.1v-.1c0-.1 0-.1 0-.2h.4v.1c0 .1-.1.2-.1.3s-.1.1-.2.2c-.1 0-.2.1-.3.1s-.2 0-.2-.1c-.1 0-.1-.1-.1-.2s0-.2 0-.3 0-.1 0-.2 0-.1 0-.2 0-.2.1-.2c0 0 .1-.1.1-.1s.1-.1.2-.1h.2c.1 0 .2 0 .2.1.1 0 .1.1.1.2v.3c.1-.2.1-.2.1-.1z" fill="#e82326" fill-rule="evenodd"/><path d="m193.9 186.1h6.4v6.4h-6.4z" fill="#26645b" transform="matrix(.995 -.1 .1 .995 -17.9426 20.6647)"/><g fill-rule="evenodd"><path clip-rule="evenodd" d="m196.8 186.4c-1.6.2-2.7 1.6-2.5 3.1.2 1.6 1.6 2.7 3.1 2.6 1.6-.2 2.7-1.6 2.5-3.1-.2-1.6-1.5-2.7-3.1-2.6zm.1.4c1.1-.1 2.2.5 2.6 1.5l-3.7.4.3-1.7c.2-.1.5-.2.8-.2zm.5 5.1c-1.4.1-2.7-.9-2.9-2.3-.1-.9.3-1.8 1-2.3l-.5 3.1 4.7-.5c-.2 1.1-1.1 1.9-2.3 2z" fill="#fff"/><path clip-rule="evenodd" d="m199.6 188.3c0 .1 0 .2-.1.3 0 .1 0 .2-.1.3 0 .1 0 .2-.1.3v.3c-.1 0-.2 0-.3 0 0-.1 0-.2 0-.3s0-.2.1-.3c0-.1 0-.2.1-.3 0-.1 0-.2 0-.3.2.1.3 0 .4 0z" fill="#e82326"/><path clip-rule="evenodd" d="m199.1 188.9v.2.2s0 .1-.1.1c0 0-.1.1-.1.1v-.3-.1c0-.1 0-.2 0-.2v-.1.1.1-.3h.1.2s.1 0 .1.1v.1c-.2-.1-.2 0-.2 0zm-.3.7h-.1c-.1 0-.1 0-.2 0 0 0-.1 0-.1-.1v-.1s0-.1 0-.2 0-.2 0-.3 0-.2.1-.2c0-.1.1-.1.1-.1h.1v.3.2.2.1s0 0 0-.1v-.1z" fill="#e82326"/><path clip-rule="evenodd" d="m198.3 188.7v.1c.1-.1.1-.2.2-.2v.2.2c-.1 0-.1 0-.1 0s0 0-.1.1v.2.2.2c-.1 0-.2 0-.3 0 0-.1 0-.2 0-.2 0-.1 0-.2 0-.2 0-.1 0-.2 0-.2 0-.1 0-.2 0-.3.1-.1.2-.1.3-.1z" fill="#e82326"/><path clip-rule="evenodd" d="m197.9 188.6v.2h.1v.2h-.1v.3.3.1h.1v.2h-.1c-.1 0-.1 0-.1 0h-.1s0 0 0-.1c0 0 0-.1 0-.2s0-.2 0-.3 0-.2 0-.3c0 0 0 0-.1 0 0-.1 0-.1 0-.2h.1s0-.1 0-.2z" fill="#e82326"/><path clip-rule="evenodd" d="m197.4 189.1c-.1 0-.2 0-.3 0 0 0 0 0 0-.1v-.1.1.1s.1 0 .1.1c.1 0 .1.1.1.1v.2c0 .1 0 .1-.1.2 0 0-.1.1-.1.1-.1 0-.1 0-.2 0s-.1 0-.2 0c0 0-.1 0-.1-.1 0 0 0-.1 0-.2h.2v.1.1s0 0 0-.1v-.1s-.1 0-.1-.1c-.1 0-.1-.1-.1-.1v-.1c0-.1 0-.1.1-.2 0 0 .1-.1.1-.1h.2.2s.1 0 .1.1v.1c.2-.2.1-.1.1 0 0-.1 0 0 0 0z" fill="#e82326"/><path clip-rule="evenodd" d="m196.4 189.3-.1-.4h.2.2s.1.1.1.1v.1.2.2.2c-.1 0-.2 0-.2 0v-.2s0 0 0-.1 0-.1 0-.2c0 0-.1 0-.1.1h-.1s.1-.1 0 0c.1 0 .1-.1.1-.1v-.1.1c-.1 0-.1 0-.1.1zm0 0c-.1 0-.2 0-.3 0 0 0 0 0 0-.1s0-.1.1-.2c0 0 .1-.1.1-.1zm0 .5c-.1 0-.2 0-.2 0h-.1s0-.1 0-.2v-.1c0-.1 0-.1.1-.2 0 0 .1-.1.2-.1h.1v.2.1.1z" fill="#e82326"/><path clip-rule="evenodd" d="m196 189.2c-.1 0-.2 0-.3 0 0-.1 0-.1 0-.2s0-.1 0-.1v.1.3.3.1-.1s0-.1 0-.2h.3c0 .1 0 .2-.1.3 0 .1-.1.1-.1.1-.1 0-.1.1-.2.1s-.2 0-.2 0c-.1 0-.1-.1-.1-.1 0-.1 0-.1 0-.3 0-.1 0-.1 0-.2s0-.1 0-.2 0-.2 0-.2 0-.1.1-.1c0 0 .1-.1.1-.1.1 0 .1 0 .2-.1h.2s.1.1.1.1v.2z" fill="#e82326"/><path clip-rule="evenodd" d="m72 191.3h-.9l1-4s.1-.2 0-.4h.9l-1 4c.1 0 0 .2 0 .4z" fill="#ae3327"/><path clip-rule="evenodd" d="m67.7 191.5h-1l.8-3.3s.1-.2 0-.4h.8l-.1.3s.3-.5 1-.4l-.2.8s-.7-.3-1 .8l-.4 1.7c.2 0 .1.4.1.5z" fill="#ae3327"/><path clip-rule="evenodd" d="m66.8 190.7-.2.8s-.3.1-.7.1c-.3 0-.9-.1-.6-1.1l.5-2h-.4l.2-.7h.4l.2-.5.9-.2-.2.7h.6l-.2.7h-.6l-.4 1.7s-.4.9.5.5z" fill="#ae3327"/><path clip-rule="evenodd" d="m62.7 190.3h.9s-.3.6.1.6.4-.3.5-.4c0-.1 0-.3-.4-.5-.4-.1-.7-.3-.7-.7s.3-1.4 1.5-1.5c1.3 0 .8 1.3.8 1.3h-.9s.3-.6-.1-.6c-.3 0-.4.4-.4.5s-.1.2.3.3c.3.1 1 .3.8 1-.2.8-.6 1.3-1.5 1.3-.9.1-1.1-.4-.9-1.3z" fill="#ae3327"/><path clip-rule="evenodd" d="m59.3 190.1h.9s-.2 1.8-1.6 1.8-1.4-1.1-1-2.4.9-2.2 2-2.2 1.3.8.9 1.9h-.9s.4-1.2-.1-1.2c-.4 0-.6.7-.9 1.7s-.2 1.4.1 1.4c.2 0 .3-.1.6-1z" fill="#ae3327"/><path clip-rule="evenodd" d="m70.6 187.6c-1.2.1-1.7 1.3-1.8 2.8 0 .5.3 1.1.9 1.1 1.5-.1 1.7-2 1.8-2.8s-.5-1.1-.9-1.1zm0 1.2c0 .2-.3 2-.7 2-.2 0-.2-.1-.2-.3 0-.3.3-2.1.8-2.1.1-.1.1.1.1.4z" fill="#ae3327"/><path clip-rule="evenodd" d="m62 187.9c-1.2 0-1.4 1.2-1.4 1.2h.8c0-.2.2-.4.2-.4.2-.2.6-.2.5.2s-.5.4-1.1.7c-.7.2-.9.9-.9 1.4s.2.8.7.8.8-.4.8-.4c0 .2-.1.3-.1.3h.9c-.1-.4 0-.7 0-.7s.4-1.3.5-1.7c.1-.5.3-1.4-.9-1.4zm-.4 2.8s-.1.3-.3.3-.2-.1-.2-.3.1-.7.8-.8z" fill="#ae3327"/><path clip-rule="evenodd" d="m190.2 193.4-1.1.2.6-5.4s0-.3 0-.5l1.2-.2-.6 5.3c-.1 0-.1.3-.1.6z" fill="#ae3327"/><path clip-rule="evenodd" d="m184.6 194.4-1.2.2.5-4.4s0-.2 0-.5l1.1-.2v.4s.3-.7 1.2-.7l-.1 1.1s-1-.2-1.2 1.2l-.2 2.3c-.1 0-.1.4-.1.6z" fill="#ae3327"/><path clip-rule="evenodd" d="m183.3 193.5-.1 1s-.3.2-.9.3c-.4.1-1.2 0-1-1.3l.4-2.7-.5.1.2-.9.5-.1.1-.7 1.1-.4-.1.9.8-.1-.2.9-.7.1-.3 2.3c0 .1-.4 1.3.7.6z" fill="#ae3327"/><path clip-rule="evenodd" d="m177.9 193.8 1.1-.2s-.2.9.2.8c.5-.1.5-.5.5-.6 0-.2 0-.4-.6-.5s-.9-.3-1-.8.1-1.9 1.7-2.1c1.7-.3 1.3 1.5 1.3 1.5l-1.1.2s.2-.9-.2-.8-.5.5-.5.7 0 .3.4.4 1.4.2 1.3 1.2-.5 1.8-1.7 2c-1.2-.1-1.5-.7-1.4-1.8z" fill="#ae3327"/><path clip-rule="evenodd" d="m173.4 194 1.1-.2s0 2.3-1.8 2.6-2-1.2-1.8-2.9c.2-1.8.9-3 2.2-3.2 1.4-.2 1.8.8 1.5 2.3l-1.2.2s.3-1.6-.3-1.5c-.5.1-.7 1-.9 2.4-.2 1.3 0 1.9.4 1.8s.5-.3.8-1.5z" fill="#ae3327"/><path clip-rule="evenodd" d="m187.7 188.9c-1.5.3-2 1.9-1.9 3.9 0 .6.6 1.4 1.4 1.2 2-.4 1.9-2.9 1.9-3.9-.1-1-.9-1.3-1.4-1.2zm.2 1.5c0 .3-.1 2.6-.6 2.7-.2 0-.3-.1-.3-.3-.1-.4 0-2.8.6-2.9.3-.1.3.2.3.5z" fill="#ae3327"/><path clip-rule="evenodd" d="m176.5 190.8c-1.6.3-1.6 1.8-1.6 1.8l1-.2c0-.2.2-.5.2-.5.2-.3.7-.4.7.2s-.5.7-1.3 1.1-1 1.3-.9 2c.1.6.4 1 1 .9s.9-.6.9-.6v.4l1.2-.2c-.1-.5-.1-.8-.1-.8s.2-1.8.3-2.3c.1-.8.2-2.1-1.4-1.8zm0 3.7s-.1.4-.4.4c-.3.1-.3-.1-.4-.4 0-.2 0-.9 1-1.1z" fill="#ae3327"/><path clip-rule="evenodd" d="m37.7 207.8h.9v-1.5h-.9z" fill="#120b14"/><path clip-rule="evenodd" d="m41.2 207.8h1v-1.5h-1z" fill="#120b14"/><path clip-rule="evenodd" d="m43.4 206.7h1.2v-.4h-1-1.1v1.5h1.1 1v-.3h-1.2v-.2h1.2v-.4h-1.2z" fill="#120b14"/><path clip-rule="evenodd" d="m39 206.3h1.6c.5 0 .5.5.3.7.3.3.3.8-.3.8h-1.6v-.7-.2zm.7 1.1h.4c.2 0 .2-.3 0-.3h-.4zm0-.5h.4c.2 0 .2-.2 0-.2h-.4z" fill="#120b14"/><path clip-rule="evenodd" d="m37.5 207.8c-.4 0-.8.1-1.2 0-.9-.1-.9-1.4 0-1.6.4-.1.8 0 1.2 0v.5c-.3 0-.6-.1-.9 0s-.3.3 0 .4.6 0 .9 0z" fill="#120b14"/><path clip-rule="evenodd" d="m43 206.2h1.3v-.1h-1.3z" fill="#120b14"/><path clip-rule="evenodd" d="m154 183.7c.1.1.3.2.4.3s.2.2.3.4.1.3.1.4v1.8h-4.3c-.1 0-.3 0-.4-.1s-.3-.2-.4-.3-.2-.3-.3-.4c-.1-.2-.1-.3-.1-.4v-1.8h4.3c.1 0 .3 0 .4.1z" fill="#120b14"/></g><path d="m154 183.7c.1.1.3.2.4.3s.2.2.3.4.1.3.1.4v1.8h-4.3c-.1 0-.3 0-.4-.1s-.3-.2-.4-.3-.2-.3-.3-.4c-.1-.2-.1-.3-.1-.4v-1.8h4.3c.1 0 .3 0 .4.1" style="fill:none;stroke:#120b14;stroke-width:.197;stroke-linecap:round;stroke-linejoin:round;stroke-miterlimit:2.6131"/><path clip-rule="evenodd" d="m153.5 183.7c.2 0 .3 0 .4.1s.3.2.4.3.2.2.3.4c.1.1.1.3.1.4v1.5h-4.1c-.2 0-.3 0-.4-.1s-.3-.2-.4-.3-.2-.2-.3-.4c-.1-.1-.1-.3-.1-.4v-1.5z" fill="#fff" fill-rule="evenodd"/><path d="m153.5 183.7c.2 0 .3 0 .4.1s.3.2.4.3.2.2.3.4c.1.1.1.3.1.4v1.5h-4.1c-.2 0-.3 0-.4-.1s-.3-.2-.4-.3-.2-.2-.3-.4c-.1-.1-.1-.3-.1-.4v-1.5z" style="fill:none;stroke:#120b14;stroke-width:.197;stroke-linecap:round;stroke-linejoin:round;stroke-miterlimit:2.6131"/><path clip-rule="evenodd" d="m154.5 185v1.3h-3.9c-.1 0-.3 0-.4-.1s-.3-.1-.4-.2-.2-.2-.2-.4c-.1-.1-.1-.3-.1-.4v-1.3h3.9c.2 0 .3 0 .4.1s.2.1.4.2c.1.1.2.2.2.4.1.1.1.2.1.4z" fill="#120b14" fill-rule="evenodd"/><path d="m154.5 185v1.3h-3.9c-.1 0-.3 0-.4-.1s-.3-.1-.4-.2-.2-.2-.2-.4c-.1-.1-.1-.3-.1-.4v-1.3h3.9c.2 0 .3 0 .4.1s.2.1.4.2c.1.1.2.2.2.4.1.1.1.2.1.4" style="fill:none;stroke:#120b14;stroke-width:.197;stroke-linecap:round;stroke-linejoin:round;stroke-miterlimit:2.6131"/><path d="m151 184.9v.3c0 .1 0 .2-.1.3 0 .1-.1.1-.1.2-.1.1-.1.1-.2.1s-.2.1-.3.1-.2 0-.3-.1c-.1 0-.2-.1-.2-.1-.1-.1-.1-.1-.1-.2s-.1-.2-.1-.3v-.3c0-.1 0-.2 0-.3s.1-.1.1-.2c.1-.1.1-.1.2-.1s.2-.1.3-.1.2 0 .3.1c.1 0 .1.1.2.1.1.1.1.1.1.2.2.1.2.2.2.3" style="fill:none;stroke:#120b14;stroke-width:.197;stroke-linecap:round;stroke-linejoin:round;stroke-miterlimit:2.6131"/><path clip-rule="evenodd" d="m151 184.6c0-.1-.1-.1-.1-.2-.1-.1-.1-.1-.2-.1s-.2-.1-.3-.1-.2 0-.3.1c-.1 0-.2.1-.2.1-.1.1-.1.1-.1.2v.3.3c0 .1 0 .2.1.3 0 .1.1.1.1.2.1.1.1.1.2.1s.2.1.3.1.2 0 .3-.1c.1 0 .1-.1.2-.1.1-.1.1-.1.1-.2s.1-.2.1-.3v-.3c-.2-.1-.2-.2-.2-.3zm-.5.6s-.1.1-.1.1-.1 0-.1-.1v-.1-.1h.1.1v.1c.1 0 0 0 0 .1z" fill="#fff" fill-rule="evenodd"/><path d="m150.5 185.2s-.1.1-.1.1-.1 0-.1-.1v-.1-.1h.1.1v.1c.1 0 0 0 0 .1" style="fill:none;stroke:#120b14;stroke-width:.197;stroke-linecap:round;stroke-linejoin:round;stroke-miterlimit:2.6131"/><path d="m154.3 184.8v.2c0 .1-.1.1-.1.2-.1.1-.1.1-.2.1s-.1 0-.2 0h-.1-.1v.1.3.1h-.1-.3-.1s0 0 0-.1v-1.4-.1h.1.7.2c.1 0 .1.1.2.1.1.1.1.1.1.2-.1.1-.1.2-.1.3" style="fill:none;stroke:#120b14;stroke-width:.197;stroke-linecap:round;stroke-linejoin:round;stroke-miterlimit:2.6131"/><path clip-rule="evenodd" d="m152.7 184.3s.1.1.1.1v1.3.1s0 0-.1 0h-.3-.1s0 0 0-.1v-.7c-.1.2-.1.3-.2.3s-.2-.1-.2-.3v.7.1s0 0-.1 0h-.3-.1s0 0 0-.1v-1.3s0-.1.1-.1c0 0 .1-.1.2-.1s.2 0 .2.1c0 0 .1.1.1.1v.1.1s.1.1.1.1.1 0 .1-.1v-.1-.1c0-.1.1-.1.1-.1.1 0 .1-.1.2-.1s.1 0 .2.1z" fill="#fff" fill-rule="evenodd"/><path d="m152.7 184.3s.1.1.1.1v1.3.1s0 0-.1 0h-.3-.1s0 0 0-.1v-.7c-.1.2-.1.3-.2.3s-.2-.1-.2-.3v.7.1s0 0-.1 0h-.3-.1s0 0 0-.1v-1.3s0-.1.1-.1c0 0 .1-.1.2-.1s.2 0 .2.1c0 0 .1.1.1.1v.1.1s.1.1.1.1.1 0 .1-.1v-.1-.1c0-.1.1-.1.1-.1.1 0 .1-.1.2-.1s.1 0 .2.1" style="fill:none;stroke:#120b14;stroke-width:.197;stroke-linecap:round;stroke-linejoin:round;stroke-miterlimit:2.6131"/><path clip-rule="evenodd" d="m154.3 184.6c0-.1-.1-.1-.1-.2-.1-.1-.1-.1-.2-.1s-.1 0-.2 0h-.7-.1v.1 1.4.1h.1.3.1s0 0 0-.1v-.3-.1h.1.1.2c.1 0 .1-.1.2-.1.1-.1.1-.1.1-.2s0-.1 0-.2c.1-.2.1-.3.1-.3zm-.5.3s-.1.1-.1.1-.1 0-.1-.1v-.1-.1s.1-.1.1-.1.1 0 .1.1v.1c.1.1.1.1 0 .1z" fill="#fff" fill-rule="evenodd"/><path d="m153.7 184.7s.1 0 .1.1v.1.1s-.1.1-.1.1-.1 0-.1-.1v-.1-.1c0-.1.1-.1.1-.1" style="fill:none;stroke:#120b14;stroke-width:.197;stroke-linecap:round;stroke-linejoin:round;stroke-miterlimit:2.6131"/><path clip-rule="evenodd" d="m150 193h7.1v.5h-7.1zm.5.2c-.1-.1-.1 0 0 0-.1 0-.1 0 0 0-.1 0 0 0 0 0s.1 0 .1.1v.1s0 .1-.1.1h-.1-.1s-.1 0-.1-.1h.1l.2-.2c-.1.1-.1.1-.2.1 0 0-.1 0-.1-.1s0 0 0-.1c.1 0 .2 0 .3.1 0-.1 0-.1 0 0 .1-.1.1 0 .1 0zm.2-.1h.1v.1h.1v-.1h.1v.3-.1h-.1v.1h-.1v-.3zm.7 0h.2s.1.1.1.1 0 .1-.1.1c0 0-.1 0-.2 0s-.1 0-.2 0c0 0-.1-.1-.1-.1s0-.1.1-.1zm0 .1c-.1 0-.1 0 0 0-.1.1-.1.1-.1.1h.1.1s0 0-.1-.1c.1 0 .1 0 0 0zm.6 0c-.1 0-.1 0 0 0-.1 0-.1 0-.1 0v.1.1h.1c-.1-.1-.1-.1 0-.2l.1.1s0 .1-.1.1h-.1c-.1 0-.1 0-.2 0 0 0-.1-.1-.1-.1 0-.1 0-.1.1-.1h.1c.1-.1.2-.1.2 0 .1-.1.1-.1.1-.1zm.1-.1h.1v.1l.1-.1h.2l-.2.1.2.2h-.2l-.1-.1v.1h-.1zm.9 0h.1l.2.3h-.1-.2-.1zm.4 0h.2.1v.1h.1s0 0 0 0v.1h-.1-.2v-.2zm.1.2h.1s0 0-.1 0zm0-.1c.1 0 .1 0 0 0h.1s0 0-.1 0c.1 0 .1 0 0 0zm.5 0c0-.1-.1 0 0 0-.1 0-.1 0 0 0s.1 0 .1.1v.1s0 .1-.1.1h-.1-.1s-.1 0-.1-.1h.1l.2-.2c-.1.1-.1.1-.2.1 0 0-.1 0-.1-.1s0 0 0-.1c.2 0 .2 0 .3.1 0-.1.1-.1 0 0 .1-.1.1 0 .1 0zm.4-.1h.2s.1.1.1.1 0 .1-.1.1c0 0-.1 0-.2 0s-.1 0-.2 0c0 0-.1-.1-.1-.1s0-.1.1-.1zm0 .1c-.1.1-.1.1-.1.1h.1.1s0 0-.1-.1c.1 0 .1 0 0 0zm.3-.1h.2.1v.1.1h.1-.1v.1h-.1v-.3zm.1.1c.1.1.1.1.1 0s0 0-.1 0zm.4-.1h.2.1v.1h.1v.1h-.1-.2v-.2zm.1.2h.1s0 0-.1 0zm0-.1c.1 0 .1 0 0 0h.1s0 0-.1 0c.1 0 .1 0 0 0zm.3-.1h.3v.1h-.2.2v.1h-.2.2v.1h-.4v-.3zm.4 0h.2.1v.1.1h.1-.1v.1h-.3zm.1.1c.1.1.1.1.1 0s0 0-.1 0zm.6 0c-.1-.1-.1 0 0 0-.1 0-.1 0 0 0-.1 0 0 0 0 0s.1 0 .1.1v.1s0 .1-.1.1h-.1-.1s-.1 0-.1-.1h.1l.2-.2c-.1.1-.1.1-.2.1 0 0-.1 0-.1-.1s0 0 0-.1c.1 0 .2 0 .3.1 0-.1 0-.1 0 0 .1-.1.1 0 .1 0zm-1.9-1.5h.4v.2h-.4v.4h.5v.2h-.5-.3v-.2-.3-.2-.3-.2h.3.5v.2h-.5zm-3.1-.5h.3v1.2h.4v.2h-.4-.3v-.2zm4.4 0h.3l.4.8v-.8h.3v1.5h-.3l-.4-.8v.8h-.3zm-2.3 0h.3.2v.2h-.2v1.2h-.3v-1.2h-.2v-.2zm1.7 0h.3v1.5h-.3zm-5.5 0h.7c.1 0 .2.1.2.2v.3c0 .1-.1.2-.2.2.1 0 .2.1.2.2v.4c0 .1-.1.2-.2.2h-.7v-.8zm.3.2v.3h.4v-.3zm0 .6v.4h.4v-.4zm.9-.8h.3v1.5h-.3zm2.2 1.3c0 .1-.1.2-.2.2h-.5c-.1 0-.2-.1-.2-.2v-.2h.3v.2.1h.2s0 0 0-.1v-.5h-.6v-.1-.1-.1-.4c0-.1.1-.2.1-.2h.5c.1 0 .2.1.2.2v.3h-.3v-.2-.1h-.2v.1.3h.2.1.3v.2.1.1.4z" fill="#120b14" fill-rule="evenodd"/><path clip-rule="evenodd" d="m147.3 197.4h9.9v1.9h-9.9z" fill="#120b14" fill-rule="evenodd"/><path clip-rule="evenodd" d="m147.9 197.6h1s.6 0 .6.4-.4.5-.4.5l.4.5v-1.4h1.4v.3h-1v.3h.9s.1-.7.9-.7.9.5.9.5-.3 0-.4.1c0 0-.1-.1-.2-.2s-.4-.1-.5.1c-.4.3-.1.9.3.8.4 0 .4-.3.4-.3h.2l.5-.9h.4l.5 1v-1h1.2.1.1s.1.1.1.1 0 .1.1 0c0-.1.1-.1.2-.2.1 0 .2-.1.3-.1h.2c.3 0 .6.1.8.4.1.3.2.7-.1 1-.1.1-.2.2-.3.2s-.3.1-.4 0c-.3 0-.5-.2-.6-.3s-.2-.2-.2-.3v-.1h-.1-.1l.4.6h-.4l-.4-.6h-.4v.6h-.6l-.1-.3h-.7l-.1.3h-.8s-.1 0-.2 0-.2 0-.3 0-.3-.1-.4-.1c-.1-.1-.2-.2-.2-.1v.3h-1.8l-.4-.6h-.4v.6h-.4zm5 .5.2.5h-.5zm-4.6-.2h.6s.2 0 .2.2-.2.2-.2.2h-.6zm5.7 0h.6s.2 0 .2.2-.2.2-.2.2h-.6zm1.9 0c.3 0 .5.2.5.5s-.2.5-.5.5-.5-.2-.5-.5.2-.5.5-.5zm-6 .6h.9v.1c0 .1 0 .1.1.1 0 0 .1.1 0 .1h-.1-.9z" fill="#fff" fill-rule="evenodd"/><path d="m121.2 184.1v28.3h25.5v-28.3zm24.9 27.6h-24.3v-26.9h24.3z" fill="#120b14"/><path d="m137.7 196.3c0-.1 0-4.9 0-4.9 0-1.1-.9-1.9-1.9-1.9-.5 0-3.3 0-3.8 0-1.1 0-1.9.9-1.9 1.9v4.7h3.3v-3.6c0-.3.2-.5.5-.5s.5.2.5.5v4.1c0 .3-.2.5-.5.5s-1.3 0-1.3 0v2.8h1.3c.3 0 .5.2.5.5v5c0 .3-.2.5-.5.5s-.5-.2-.5-.5v-4.5h-3.4v5.6c0 1.1.9 1.9 1.9 1.9h3.8c1.1 0 1.9-.9 1.9-1.9 0 0 0-6.3 0-6.4 0-1-.8-1.8-1.8-1.8 1.1-.1 1.9-.9 1.9-2z" fill="#120b14"/><path clip-rule="evenodd" d="m179 185.5c-.1-1.1.7-2 1.7-2.2 1.1-.1 2 .7 2.2 1.7.1 1.1-.7 2-1.7 2.2-1.1.2-2.1-.6-2.2-1.7zm2 1c.6-.1 1-.7.9-1.3-.1-.7-.6-1.2-1.2-1.1s-1 .7-.9 1.3c.1.7.6 1.2 1.2 1.1z" fill="#ae3327" fill-rule="evenodd"/><path clip-rule="evenodd" d="m184.9 183.7.4 3-.9.1-.3-3-1.1.1-.1-.6 3.1-.4.1.7z" fill="#ae3327" fill-rule="evenodd"/><path clip-rule="evenodd" d="m187.3 185.7-.2.9-1 .1 1.1-3.8.5-.1.5-.1 1.9 3.5-1 .1-.4-.8-.7.1zm.7-.7.5-.1-.7-1.3-.4 1.4z" fill="#ae3327" fill-rule="evenodd"/><path clip-rule="evenodd" d="m169.9 185.4.3 3-.8.1-.4-3h.1l-1.2.1-.1-.7 3.1-.3.1.7z" fill="#ae3327" fill-rule="evenodd"/><path clip-rule="evenodd" d="m171.3 186.4c-.1-1.1.7-2 1.7-2.2 1.1-.1 2 .7 2.2 1.7.1 1.1-.7 2-1.7 2.2-1.1.1-2-.7-2.2-1.7zm2.1 1c.6-.1 1-.7.9-1.3-.1-.7-.6-1.2-1.2-1.1s-1 .7-.9 1.3.6 1.1 1.2 1.1z" fill="#ae3327" fill-rule="evenodd"/><path clip-rule="evenodd" d="m177.3 187.6.4-.1-.1-1.3 1.1-2.5-.9.1-.7 1.7-1.1-1.5-.9.1 1.6 2.1v.1l.2 1.3z" fill="#ae3327" fill-rule="evenodd"/><path clip-rule="evenodd" d="m163.1 189.9c-.5-.2-.9-1.1-1-2.2v-.1c-1.2-.1-2.2-.5-2.3-1.1-.3.4-.4.8-.3 1.3.1 1.2 1.7 2.2 3.6 2.1zm-4.2-2.1c-.1-1.5 1.6-2.9 3.9-3.1s4.3.8 4.5 2.3c.1 1.5-1.6 2.9-3.9 3.1s-4.3-.8-4.5-2.3zm4-2.7c.4 0 .9.6 1.1 1.5.9-.2 1.4-.6 1.4-.9 0-.5-1.2-.8-2.5-.6-1.4.1-2.4.6-2.4 1s.7.6 1.6.7c0-.9.3-1.6.8-1.7zm.7 4.7c1.9-.3 3.2-1.5 3.1-2.8 0-.4-.3-.9-.6-1.2 0 .6-.8 1.2-2 1.5v.1c.2 1.1-.1 2.1-.5 2.4zm-.5-3c.2 0 .4 0 .6-.1-.2-.6-.4-1-.7-1s-.4.5-.5 1.1zm.2 2.2c.3 0 .5-.7.5-1.6-.2 0-.4.1-.6.1s-.4 0-.6 0c0 .9.3 1.5.7 1.5z" fill="#ae3327" fill-rule="evenodd"/><path d="m114.7 186.1-2.8 5.2-17-.2v1.7l18 .3 3.7-7z" fill="#ae3327"/><path d="m121 186.1h-4l-3.7 7 3.9.1z" fill="#ae3327"/><path d="m96 189.1h-1v.3h.3v1.3h.4v-1.3h.3z" fill="#ae3327"/><path d="m100.9 189.3-.4.9-.4-.9h-.5v1.5h.4v-1l.3.9h.4l.3-.9v1h.4v-1.5z" fill="#ae3327"/><path d="m96.9 190.5v-.4h.5v-.3h-.5v-.4h.5v-.3h-.9v1.7h.9v-.3z" fill="#ae3327"/><path d="m102.8 190.6v-.4h.6v-.2h-.6v-.5h.6v-.2h-.9v1.6h.9v-.3z" fill="#ae3327"/><path d="m111.2 190.8v-.4h.5v-.3h-.5v-.4h.6v-.3h-1l.1 1.6h.9v-.2z" fill="#ae3327"/><path d="m99 190.8h.4l-.6-1.5h-.4l-.6 1.6h.4l.1-.3h.7zm-.7-.6.2-.5.2.5z" fill="#ae3327"/><path d="m104.8 189.3v1.3c0 .1-.5.2-.5 0v-1.2h-.3v1.2c0 .2.2.4.6.4.3 0 .6-.2.6-.4v-1.3z" fill="#ae3327"/><path d="m106.9 191-.3-.5c.2-.1.3-.4.3-.6s-.2-.6-.5-.6c0 0-.2 0-.4 0h-.3v1.6h.3v-.4h.2l.3.4zm-1-1.2h.3c.2 0 .2.1.2.2s0 .2-.1.2-.3 0-.3 0v-.4z" fill="#ae3327"/><path d="m108 189.3c-.5 0-.9.4-.9.9s.4.9.9.9.9-.4.9-.9-.4-.9-.9-.9zm0 1.4c-.3 0-.5-.2-.5-.5s.2-.5.5-.5.5.2.5.5-.2.5-.5.5z" fill="#ae3327"/><path d="m110.5 190c0-.2-.2-.6-.5-.6 0 0-.2 0-.4 0h-.3v1.6h.3v-.4h.2c.6 0 .7-.4.7-.6zm-.9-.2h.3c.2 0 .2.1.2.2s0 .2-.1.2-.3 0-.3 0v-.4z" fill="#ae3327"/><path clip-rule="evenodd" d="m103.5 187.3c0-.8.7-1.5 1.5-1.4.8 0 1.5.7 1.5 1.5s-.7 1.5-1.5 1.4c-.9 0-1.6-.7-1.5-1.5zm1.4 1c.5 0 .8-.4.9-.9 0-.5-.4-.9-.8-1-.5 0-.8.4-.9.9 0 .6.4 1 .8 1z" fill="#ae3327" fill-rule="evenodd"/><path clip-rule="evenodd" d="m108.2 186.6-.1 2.2h-.6v-2.2l-.8-.1v-.5l2.4.1v.5z" fill="#ae3327" fill-rule="evenodd"/><path clip-rule="evenodd" d="m109.8 188.3-.3.6h-.7l1.2-2.8h.4.4l1.1 2.8h-.7l-.2-.6h-.6zm.6-.5h.4l-.4-1-.4 1z" fill="#ae3327" fill-rule="evenodd"/><path clip-rule="evenodd" d="m96.5 186.3v2.3h-.6v-2.3h-.9v-.6l2.4.1v.5z" fill="#ae3327" fill-rule="evenodd"/><path clip-rule="evenodd" d="m97.6 187.2c0-.8.7-1.5 1.5-1.4.8 0 1.5.7 1.5 1.5s-.7 1.5-1.5 1.4c-.9 0-1.6-.7-1.5-1.5zm1.4 1c.5 0 .8-.4.9-.9 0-.5-.4-.9-.8-1-.5 0-.8.4-.9.9 0 .5.4.9.8 1z" fill="#ae3327" fill-rule="evenodd"/><path clip-rule="evenodd" d="m102 188.7h.3v-1l1.2-1.8h-.8l-.7 1.2-.6-1.2h-.8l1.1 1.7v1.1z" fill="#ae3327" fill-rule="evenodd"/><path d="m221.3 178.6h-.1c-.1 0-.2.1-.3.2s-.1.3-.1.5 0 .4.1.5.2.1.3.1c.2 0 1.3.1 1.5.1s.5-.2.5-.4 0-.3 0-.3l-.1-.1h-1.1v.3h1v.2s0 .1-.1.1c0 0-.1.1-.2.1-.2 0-1.3 0-1.5-.1-.1 0-.1 0-.2-.1 0 0-.1-.1-.1-.3s0-.3 0-.4h.1.1c.3 0 1.3.1 2.1.1v-.3c-.6-.1-1.6-.2-1.9-.2z" fill="#120b14"/><path d="m226 179.1v-.3l-2.3-.1v.3l1 .1v.9h.3v-.9z" fill="#120b14"/><path d="m225.7 179.5h.4v.3h-.4z" fill="#120b14"/><path d="m226.8 179.1c-.1.1-.1.2-.1.3v.7h.3v-.4l1.4.1v-.3l-1.4-.1v-.1c0-.1 0-.1 0-.1h.2 1.3v-.3s-1 0-1.3 0c-.2.1-.3.2-.4.2z" fill="#120b14"/><path d="m230 179.1c-.1 0-.2 0-.3 0-.2 0-.4 0-.4 0s-.1 0-.2 0-.2 0-.3 0-.2.1-.2.3v.5c0 .2.2.4.5.4h.9c.1 0 .2 0 .3-.1s.1-.2.1-.3c0-.2 0-.2 0-.4 0-.1-.1-.3-.4-.4zm.2.9c0 .1 0 .1-.1.1-.2 0-.7 0-.9 0-.1 0-.1 0-.2-.1 0 0 0 0 0-.1 0-.1 0-.3 0-.5h.1.2v-.1.1h.4.2c.1 0 .2.1.2.2.1.2.1.2.1.4z" fill="#120b14"/><path d="m232.3 180.1c-.1.1-.1.1-.2.1-.2 0-.7 0-.9 0s-.2-.1-.2-.2v-.7h-.3v.7c0 .2.2.4.4.4h.9c.2 0 .4-.2.4-.4 0-.1.1-.7.1-.7h-.3c.1 0 .1.7.1.8z" fill="#120b14"/><path d="m234.6 180.3c0-.1 0-.1-.1-.2.1-.1.1-.2.1-.3 0-.3-.3-.3-.4-.4-.1 0-.9 0-1.1 0l-.1.1v1h.3v-.3l.9.1h.2c0 .1.1.3.1.4h.3c-.1-.2-.1-.3-.2-.4zm-1.4-.4v-.3h1 .1c0 .1 0 .2-.2.2z" fill="#120b14"/><path d="m109.4 179.3-.8 1.5h-4.7v.5h5l1-2z" fill="#fff"/><path d="m111.1 179.3h-1l-1.1 2h1.1z" fill="#fff"/><path d="m104.2 180.2h-.3v.1h.1v.4h.1v-.4h.1z" fill="#fff"/><path d="m105.5 180.3-.1.2-.1-.2h-.1v.4h.1v-.3l.1.3h.1l.1-.3v.3h.1v-.4z" fill="#fff"/><path d="m104.4 180.6v-.1h.2v-.1h-.2v-.1h.2v-.1h-.3v.5h.3v-.1z" fill="#fff"/><path d="m106.1 180.6v-.1h.1v-.1h-.1v-.1h.1v-.1h-.2v.5h.3v-.1z" fill="#fff"/><path d="m108.4 180.6v-.1h.2v-.1h-.2v-.1h.2-.3v.4h.3v-.1z" fill="#fff"/><path d="m105 180.7-.1-.4h-.1l-.2.4h.1v-.1zm-.2-.2.1-.1.1.1z" fill="#fff"/><path d="m106.6 180.2v.4h-.1v-.3h-.1v.3s.1.1.2.1.2 0 .2-.1z" fill="#fff"/><path d="m107.2 180.7-.1-.1s.1-.1.1-.2-.1-.2-.1-.2 0 0-.1 0h-.1v.5h.1v-.1h.1zm-.2-.3h.1v.1h-.1z" fill="#fff"/><path d="m107.5 180.2c-.1 0-.2.1-.2.3 0 .1.1.2.3.2.1 0 .2-.1.2-.3 0-.1-.1-.2-.3-.2zm0 .4c-.1 0-.1-.1-.1-.1 0-.1.1-.1.1-.1.1 0 .1.1.1.1.1.1 0 .1-.1.1z" fill="#fff"/><path d="m108.2 180.4c0-.1-.1-.2-.1-.2s0 0-.1 0h-.1v.5h.1v-.1h.1c.1 0 .1-.1.1-.2zm-.2 0h.1v.1h-.1z" fill="#fff"/><path clip-rule="evenodd" d="m106.3 179.7c0-.2.2-.4.4-.4s.4.2.4.4-.2.4-.4.4c-.3 0-.5-.2-.4-.4zm.4.3c.1 0 .2-.1.2-.3 0-.1-.1-.3-.2-.3s-.2.1-.2.3c-.1.1 0 .3.2.3z" fill="#fff" fill-rule="evenodd"/><path clip-rule="evenodd" d="m107.6 179.5v.6h-.2v-.6h-.3v-.2h.7v.2z" fill="#fff" fill-rule="evenodd"/><path clip-rule="evenodd" d="m108 179.9-.1.2h-.2l.3-.8h.1.1l.3.8h-.2l-.1-.2zm.2-.1h.1l-.1-.3-.1.3z" fill="#fff" fill-rule="evenodd"/><path clip-rule="evenodd" d="m104.3 179.4v.7h-.2v-.7h-.2v-.1h.7v.1z" fill="#fff" fill-rule="evenodd"/><path clip-rule="evenodd" d="m104.6 179.7c0-.2.2-.4.4-.4s.4.2.4.4-.2.4-.4.4-.4-.2-.4-.4zm.4.3c.1 0 .2-.1.2-.3 0-.1-.1-.3-.2-.3s-.2.1-.2.3c0 .1.1.3.2.3z" fill="#fff" fill-rule="evenodd"/><path clip-rule="evenodd" d="m105.8 180.1h.1v-.3l.3-.5h-.2l-.2.3-.1-.3h-.3l.4.5z" fill="#fff" fill-rule="evenodd"/><path clip-rule="evenodd" d="m231.3 199.8h1v2h-1z" fill="#120b14" fill-rule="evenodd"/><path clip-rule="evenodd" d="m241.8 199.8h1v2h-1z" fill="#120b14" fill-rule="evenodd"/><path clip-rule="evenodd" d="m242.9 199.8h1v2h-1z" fill="#120b14" fill-rule="evenodd"/><path clip-rule="evenodd" d="m228.9 200.4.4 1.4h.6l.3-.9v.9h.9v-2h-1.2l-.3 1.1-.3-1.1h-1.4v2h1z" fill="#120b14" fill-rule="evenodd"/><path clip-rule="evenodd" d="m236.3 199.8v.7h-.6v-.7h-1v2h1v-.7h.6v.7h1v-2z" fill="#120b14" fill-rule="evenodd"/><path clip-rule="evenodd" d="m239.8 200.4v-.6h-2.3v2h2.3v-.5h-1.4v-.2h1.4v-.5h-1.4v-.2z" fill="#120b14" fill-rule="evenodd"/><path clip-rule="evenodd" d="m240.8 201.1v-1.3h-.9v2h1.8v-.7z" fill="#120b14" fill-rule="evenodd"/><path clip-rule="evenodd" d="m233.3 200.7c0-.2.3-.4 1.3-.2 0-.3 0-.7 0-.7-.5-.1-2.3-.3-2.3.9v.2c0 1.2 1.8 1 2.3.9 0 0 0-.4 0-.7-.9.3-1.3 0-1.3-.2 0-.1 0-.1 0-.2z" fill="#120b14" fill-rule="evenodd"/><path clip-rule="evenodd" d="m19.6 201h.6v1.3h-.6z" fill="#120b14" fill-rule="evenodd"/><path clip-rule="evenodd" d="m26.6 201h.6v1.3h-.6z" fill="#120b14" fill-rule="evenodd"/><path clip-rule="evenodd" d="m18 201.4.3.9h.4l.2-.6v.6h.6v-1.3h-.8l-.2.7-.2-.7h-.9v1.3h.6z" fill="#120b14" fill-rule="evenodd"/><path clip-rule="evenodd" d="m22.9 201v.5h-.4v-.5h-.6v1.3h.6v-.5h.4v.5h.6v-1.3z" fill="#120b14" fill-rule="evenodd"/><path clip-rule="evenodd" d="m25.2 201.4v-.4h-1.5v1.3h1.5v-.3h-.9v-.2h.9v-.2h-.9v-.2z" fill="#120b14" fill-rule="evenodd"/><path clip-rule="evenodd" d="m25.9 201.9v-.9h-.6v1.3h1.2v-.4z" fill="#120b14" fill-rule="evenodd"/><path clip-rule="evenodd" d="m20.9 201.6c0-.1.2-.3.8-.1 0-.2 0-.5 0-.5-.4-.1-1.5-.2-1.5.6v.1c0 .8 1.2.7 1.5.6 0 0 0-.3 0-.5-.5.2-.8 0-.8-.2z" fill="#120b14" fill-rule="evenodd"/><path clip-rule="evenodd" d="m28.2 201v.5l-.2-.5h-.7v1.3h.6v-.4l.2.4h.7v-1.3z" fill="#120b14" fill-rule="evenodd"/><path d="m157.2 194.7-.3 1.6c0 .1 0 .2-.1.2h-1.4c-.1 0 0-.1 0-.2l.3-1.7h-.2l-.3 1.6c0 .1-.1.4.1.4h1.5.1c.1 0 .1-.2.1-.3l.3-1.7h-.1z" fill="#120b14"/><path d="m156.8 194.7-.3 1.4c0 .2-.1.2-.1.2s-.1 0-.1 0h-.5c-.1 0-.1-.1 0-.1l.3-1.4h-.2l-.3 1.5c0 .1 0 .2.2.2h.6.3s.1 0 .2-.3l.3-1.4h-.4z" fill="#120b14"/><path d="m147.5 195.8h7.4v.9h-7.4z" fill="#120b14"/><path d="m147.5 194.6h2v.9h-2z" fill="#120b14"/><path d="m150.8 195.1c0 .1 0 .1-.1.2 0 .1-.1.1-.2.1 0 0-.1 0-.2 0s-.1 0-.2 0h-.3v-.8h.3.2.1c.1 0 .1.1.2.1.2.2.2.3.2.4zm-.3 0c0-.1 0-.1 0-.1s-.1-.1-.1-.1h-.1-.1-.1v.5h.1.1.1s.1 0 .1-.1 0-.2 0-.2z"/><path d="m151.7 195.5h-.7v-.8h.7v.2h-.4v.1h.4v.2h-.4v.2h.4z"/><path d="m152.8 195.5h-.2l-.4-.5v.5h-.2v-.8h.3l.4.5v-.5h.2v.8z"/><path d="m154.9 195.1c0 .1 0 .2-.1.3s-.2.1-.4.1-.3 0-.4-.1-.1-.2-.1-.3 0-.2.1-.3.2-.1.4-.1.3 0 .4.1c0 0 .1.1.1.3zm-.4.2c.1-.1.1-.1 0 0 .1-.1.1-.2.1-.2v-.1s0-.1-.1-.1c0 0 0 0-.1 0h-.1-.1-.1s0 0-.1.1v.1.1s0 .1.1.1h.1.1z"/><path d="m153.7 195.1s-.1-.1-.2-.1h-.1-.1c-.1 0-.1 0-.1 0h.1.1.3v-.1-.1h-.3c-.1 0-.2 0-.3.1-.1 0-.1.1-.1.2s0 .1.1.1c0 0 .1.1.2.1h.1.1.1s0 0-.1 0c0 0 0 0-.1 0s-.4 0-.4 0v.1.1h.4c.1 0 .2 0 .3-.1.1 0 .1-.1.1-.2 0 0-.1-.1-.1-.1z"/><path d="m7.1 0h126.2v57h-126.2z" fill="url(#f)"/><path d="m129.5 0h126.2v57h-126.2z" fill="url(#g)"/><path d="m256.9 240.5h-250.8v-164.5h250.8zm-249.8-1h248.8v-162.5h-248.8z"/><path d="m.5.5h6.1v317.5h-6.1z" fill="#1a1818"/><path d="m7.1 318.5h-7.1v-318.5h7.1zm-6.1-1h5.1v-316.5h-5.1z"/><path d="m256.5.5h6.1v317.5h-6.1z" fill="#1a1818"/><path d="m263.1 318.5h-7.1v-318.5h7.1zm-6.1-1h5.1v-316.5h-5.1z"/><path d="m6.6 56.5h249.9v3.4h-249.9z" fill="#1a1818"/><path d="m257 60.4h-250.9v-4.4h250.9zm-249.9-1h248.9v-2.4h-248.9z"/><path d="m6.6 59.9h249.9v16.6h-249.9z" fill="#1a1818"/><path d="m257 77h-250.9v-17.6h250.9zm-249.9-1h248.9v-15.6h-248.9z"/><path d="m6.6 265.5h249.8v48.8h-249.8z" fill="#1a1818"/><path d="m256.9 314.7h-250.8v-49.7h250.8zm-249.8-1h248.8v-47.7h-248.8z"/><path d="m17.8 314.2h15.4v3.8h-15.4zm211.9 0h15.3v3.8h-15.4zm-223.1-55.2h249.8v6.5h-249.8z" fill="#1a1818"/><path d="m256.9 266h-250.8v-7.5h250.8zm-249.8-1h248.8v-5.5h-248.8z"/><path d="m6.6 240h249.8v19h-249.8z" fill="#262323"/><path d="m256.9 259.5h-250.8v-20h250.8zm-249.8-1h248.8v-18h-248.8z"/><path d="m31.5 244.5v-4.1c0 .7-2.7 1.3-6.1 1.3s-6.1-.6-6.1-1.3v4.1-.1c1.6.4 3.7.6 6.1.6s4.6-.3 6.1-.5" fill="#fff"/><path d="m25.4 245.5c-2.3 0-4.5-.2-6.2-.6l.1-.4h-.5v-4.1h1c.2.2 2.1.8 5.6.8s5.4-.6 5.6-.9l1 .1v4.1h-.5l.1.4c-1.6.4-3.8.6-6.2.6zm-5.6-1.5c1.5.3 3.5.5 5.6.5s4.1-.2 5.6-.5v-2.5c-1.6.7-4.8.7-5.6.7s-4 0-5.6-.7z" fill="#020202"/><path d="m19.3 244.4v-2.6c-1.5.3-2.5.8-2.5 1.3s1 .9 2.5 1.3" fill="#fff"/><path d="m19.2 244.9c-2-.4-2.9-1-2.9-1.8s.9-1.4 2.9-1.8l.6-.1v3.2h-.5zm-.4-2.5c-1.1.3-1.4.6-1.5.7 0 0 .4.3 1.5.6z" fill="#020202"/><path d="m31.5 244.4v-2.6c1.5.3 2.5.8 2.5 1.3s-.9.9-2.5 1.3z" fill="#fff"/><path d="m31 245v-3.8l.6.1c2 .4 2.9 1 2.9 1.8s-.9 1.4-2.9 1.8zm1-2.6v1.3c1.1-.3 1.5-.6 1.5-.7 0 0-.4-.3-1.5-.6z" fill="#020202"/><ellipse cx="25.4" cy="240.3" fill="#fff" rx="6.1" ry="1.3"/><path d="m25.4 242.1c-1.1 0-6.6-.1-6.6-1.8s5.5-1.8 6.6-1.8 6.6.1 6.6 1.8-5.5 1.8-6.6 1.8zm-5.5-1.8c.5.3 2.4.8 5.5.8s5-.5 5.5-.8c-.5-.3-2.4-.8-5.5-.8s-5 .5-5.5.8z" fill="#020202"/><path d="m134.1 300.6h-17.7c-1.7 0-3.1-1.4-3.1-3.1v-5h23.8v5c0 1.7-1.3 3.1-3 3.1zm-19.8-7.1v4c0 1.1.9 2.1 2.1 2.1h17.7c1.1 0 2.1-.9 2.1-2.1v-4z" fill="#1a1818"/><path d="m115.2 288.3c-.3 0-.6-.3-.6-.6v-6.4c0-.3.3-.6.6-.6s.6.3.6.6v6.4c0 .4-.3.6-.6.6z" fill="#191919"/><path d="m50.4 307.7h-1.4c-.4 0-.7-.3-.7-.7v-34.3c0-.4.3-.7.7-.7h1.4c.4 0 .7.3.7.7v34.3c0 .4-.3.7-.7.7z" fill="#46423c"/><path d="m50.4 308.2h-1.4c-.7 0-1.2-.5-1.2-1.2v-34.3c0-.7.5-1.2 1.2-1.2h1.4c.7 0 1.2.5 1.2 1.2v34.3c0 .7-.5 1.2-1.2 1.2zm-1.4-35.7c-.1 0-.2.1-.2.2v34.3c0 .1.1.2.2.2h1.4c.1 0 .2-.1.2-.2v-34.3c0-.1-.1-.2-.2-.2z" fill="#1a1818"/><path d="m55.9 306.8h-1.4c-.4 0-.7-.3-.7-.7v-32.6c0-.4.3-.7.7-.7h1.4c.4 0 .7.3.7.7v32.6c0 .4-.3.7-.7.7z" fill="#46423c"/><path d="m55.9 307.3h-1.4c-.7 0-1.2-.5-1.2-1.2v-32.6c0-.7.5-1.2 1.2-1.2h1.4c.7 0 1.2.5 1.2 1.2v32.6c0 .7-.5 1.2-1.2 1.2zm-1.4-34c-.1 0-.2.1-.2.2v32.6c0 .1.1.2.2.2h1.4c.1 0 .2-.1.2-.2v-32.6c0-.1-.1-.2-.2-.2z" fill="#1a1818"/><path d="m61.4 303.9h-1.4c-.4 0-.7-.3-.7-.7v-26.8c0-.4.3-.7.7-.7h1.4c.4 0 .7.3.7.7v26.8c0 .4-.3.7-.7.7z" fill="#46423c"/><path d="m61.4 304.4h-1.4c-.7 0-1.2-.5-1.2-1.2v-26.8c0-.7.5-1.2 1.2-1.2h1.4c.7 0 1.2.5 1.2 1.2v26.8c0 .7-.5 1.2-1.2 1.2zm-1.4-28.2c-.1 0-.2.1-.2.2v26.8c0 .1.1.2.2.2h1.4c.1 0 .2-.1.2-.2v-26.8c0-.1-.1-.2-.2-.2z" fill="#1a1818"/><path d="m66.9 296.8h-1.4c-.4 0-.7-.3-.7-.7v-12.6c0-.4.3-.7.7-.7h1.4c.4 0 .7.3.7.7v12.6c0 .4-.3.7-.7.7z" fill="#46423c"/><path d="m66.9 297.3h-1.4c-.7 0-1.2-.5-1.2-1.2v-12.6c0-.7.5-1.2 1.2-1.2h1.4c.7 0 1.2.5 1.2 1.2v12.6c0 .7-.6 1.2-1.2 1.2zm-1.4-14c-.1 0-.2.1-.2.2v12.6c0 .1.1.2.2.2h1.4c.1 0 .2-.1.2-.2v-12.6c0-.1-.1-.2-.2-.2z" fill="#1a1818"/><path d="m43.5 306.8h1.5c.4 0 .7-.3.7-.7v-32.6c0-.4-.3-.7-.7-.7h-1.4c-.4 0-.7.3-.7.7v32.6c-.1.4.2.7.6.7z" fill="#46423c"/><path d="m45 307.3h-1.4c-.7 0-1.2-.5-1.2-1.2v-32.6c0-.7.5-1.2 1.2-1.2h1.4c.7 0 1.2.5 1.2 1.2v32.6c0 .7-.6 1.2-1.2 1.2zm-1.5-34c-.1 0-.2.1-.2.2v32.6c0 .1.1.2.2.2h1.5c.1 0 .2-.1.2-.2v-32.6c0-.1-.1-.2-.2-.2z" fill="#1a1818"/><path d="m38.1 303.9h1.4c.4 0 .7-.3.7-.7v-26.8c0-.4-.3-.7-.7-.7h-1.4c-.4 0-.7.3-.7.7v26.8c0 .4.3.7.7.7z" fill="#46423c"/><path d="m39.5 304.4h-1.4c-.7 0-1.2-.5-1.2-1.2v-26.8c0-.7.5-1.2 1.2-1.2h1.4c.7 0 1.2.5 1.2 1.2v26.8c0 .7-.5 1.2-1.2 1.2zm-1.4-28.2c-.1 0-.2.1-.2.2v26.8c0 .1.1.2.2.2h1.4c.1 0 .2-.1.2-.2v-26.8c0-.1-.1-.2-.2-.2z" fill="#1a1818"/><path d="m32.6 296.8h1.4c.4 0 .7-.3.7-.7v-12.6c0-.4-.3-.7-.7-.7h-1.4c-.4 0-.7.3-.7.7v12.6c0 .4.3.7.7.7z" fill="#46423c"/><path d="m34 297.3h-1.4c-.7 0-1.2-.5-1.2-1.2v-12.6c0-.7.5-1.2 1.2-1.2h1.4c.7 0 1.2.5 1.2 1.2v12.6c0 .7-.5 1.2-1.2 1.2zm-1.4-14c-.1 0-.2.1-.2.2v12.6c0 .1.1.2.2.2h1.4c.1 0 .2-.1.2-.2v-12.6c0-.1-.1-.2-.2-.2z" fill="#1a1818"/><path d="m173.8 22.6v-.1c-.1.1-.2.2-.2.2.1-.1.2-.1.2-.1z" fill="#e3001c"/><path d="m139.4 37.5v-.4l-.5.1z" fill="#dde217"/><path d="m214.1 307.7h-1.4c-.4 0-.7-.3-.7-.7v-34.3c0-.4.3-.7.7-.7h1.4c.4 0 .7.3.7.7v34.3c0 .4-.3.7-.7.7z" fill="#46423c"/><path d="m214.1 308.2h-1.4c-.7 0-1.2-.5-1.2-1.2v-34.3c0-.7.5-1.2 1.2-1.2h1.4c.7 0 1.2.5 1.2 1.2v34.3c0 .6-.5 1.2-1.2 1.2zm-1.4-35.7c-.1 0-.2.1-.2.2v34.3c0 .1.1.2.2.2h1.4c.1 0 .2-.1.2-.2v-34.3c0-.1-.1-.2-.2-.2z" fill="#1a1818"/><path d="m219.6 306.8h-1.4c-.4 0-.7-.3-.7-.7v-32.6c0-.4.3-.7.7-.7h1.4c.4 0 .7.3.7.7v32.6c0 .4-.3.7-.7.7z" fill="#46423c"/><path d="m219.6 307.3h-1.4c-.7 0-1.2-.5-1.2-1.2v-32.6c0-.7.5-1.2 1.2-1.2h1.4c.7 0 1.2.5 1.2 1.2v32.6c0 .7-.5 1.2-1.2 1.2zm-1.4-34c-.1 0-.2.1-.2.2v32.6c0 .1.1.2.2.2h1.4c.1 0 .2-.1.2-.2v-32.6c0-.1-.1-.2-.2-.2z" fill="#1a1818"/><path d="m225.1 303.9h-1.4c-.4 0-.7-.3-.7-.7v-26.8c0-.4.3-.7.7-.7h1.4c.4 0 .7.3.7.7v26.8c0 .4-.3.7-.7.7z" fill="#46423c"/><path d="m225.1 304.4h-1.4c-.7 0-1.2-.5-1.2-1.2v-26.8c0-.7.5-1.2 1.2-1.2h1.4c.7 0 1.2.5 1.2 1.2v26.8c0 .7-.6 1.2-1.2 1.2zm-1.5-28.2c-.1 0-.2.1-.2.2v26.8c0 .1.1.2.2.2h1.4c.1 0 .2-.1.2-.2v-26.8c0-.1-.1-.2-.2-.2z" fill="#1a1818"/><path d="m230.5 296.8h-1.4c-.4 0-.7-.3-.7-.7v-12.6c0-.4.3-.7.7-.7h1.4c.4 0 .7.3.7.7v12.6c.1.4-.3.7-.7.7z" fill="#46423c"/><path d="m230.5 297.3h-1.4c-.7 0-1.2-.5-1.2-1.2v-12.6c0-.7.5-1.2 1.2-1.2h1.4c.7 0 1.2.5 1.2 1.2v12.6c.1.7-.5 1.2-1.2 1.2zm-1.4-14c-.1 0-.2.1-.2.2v12.6c0 .1.1.2.2.2h1.4c.1 0 .2-.1.2-.2v-12.6c0-.1-.1-.2-.2-.2z" fill="#1a1818"/><path d="m207.2 306.8h1.4c.4 0 .7-.3.7-.7v-32.6c0-.4-.3-.7-.7-.7h-1.4c-.4 0-.7.3-.7.7v32.6c0 .4.3.7.7.7z" fill="#46423c"/><path d="m208.6 307.3h-1.4c-.7 0-1.2-.5-1.2-1.2v-32.6c0-.7.5-1.2 1.2-1.2h1.4c.7 0 1.2.5 1.2 1.2v32.6c0 .7-.5 1.2-1.2 1.2zm-1.4-34c-.1 0-.2.1-.2.2v32.6c0 .1.1.2.2.2h1.4c.1 0 .2-.1.2-.2v-32.6c0-.1-.1-.2-.2-.2z" fill="#1a1818"/><path d="m201.7 303.9h1.4c.4 0 .7-.3.7-.7v-26.8c0-.4-.3-.7-.7-.7h-1.4c-.4 0-.7.3-.7.7v26.8c0 .4.3.7.7.7z" fill="#46423c"/><path d="m203.2 304.4h-1.4c-.7 0-1.2-.5-1.2-1.2v-26.8c0-.7.5-1.2 1.2-1.2h1.4c.7 0 1.2.5 1.2 1.2v26.8c0 .7-.6 1.2-1.2 1.2zm-1.5-28.2c-.1 0-.2.1-.2.2v26.8c0 .1.1.2.2.2h1.4c.1 0 .2-.1.2-.2v-26.8c0-.1-.1-.2-.2-.2z" fill="#1a1818"/><path d="m196.3 296.8h1.4c.4 0 .7-.3.7-.7v-12.6c0-.4-.3-.7-.7-.7h-1.4c-.4 0-.7.3-.7.7v12.6c-.1.4.3.7.7.7z" fill="#46423c"/><path d="m197.7 297.3h-1.4c-.7 0-1.2-.5-1.2-1.2v-12.6c0-.7.5-1.2 1.2-1.2h1.4c.7 0 1.2.5 1.2 1.2v12.6c0 .7-.6 1.2-1.2 1.2zm-1.4-14c-.1 0-.2.1-.2.2v12.6c0 .1.1.2.2.2h1.4c.1 0 .2-.1.2-.2v-12.6c0-.1-.1-.2-.2-.2z" fill="#1a1818"/><path d="m191.8 242.5c-2.4-11.7-10.5-20.5-21.4-26.9-10.3-6-23.6-9.6-37.7-9.6s-27.3 3.6-37.6 9.5c-10.8 6.3-18.9 15-21.6 26.5s1.6 23.9 11.5 33.2c10.6 9.9 27.2 16.5 46.6 16.7 19.3.2 36.3-6.1 47.4-16 10.5-9.2 15.3-21.7 12.8-33.4zm-25.1 24.5c-4.8 4-11 7.2-18.1 9.1l-5.7-15.7h-20.6l-5.7 15.8c-7.6-2-14.1-5.4-19.1-9.8-7.7-6.7-11.4-15.8-9.8-24.5.5-2.7 1.4-5.1 2.6-7.5l21.7 16.6 7-11.2-24.8-10.9c2.5-2.9 5.7-5.4 9.3-7.6 7.9-4.8 18.2-7.6 29.3-7.6s21.4 2.9 29.3 7.7c3.5 2.2 6.6 4.7 9.1 7.6l-24.9 11 7 11.2 21.5-16.5c1.2 2.4 2.1 5 2.5 7.7 1.4 8.9-2.6 18-10.6 24.6z" fill="#4d4441" stroke="#000" stroke-miterlimit="10"/><path d="m132.6 240c6.4 0 12.2 1.5 16.5 3.8h6.8v9.2c0 7.2-10.4 13.1-23.3 13.1s-23.3-5.8-23.3-13.1v-9.2h6.8c4.3-2.4 10.1-3.8 16.5-3.8z" fill="#4d4441" stroke="#000" stroke-miterlimit="10"/><ellipse cx="132.6" cy="243.8" fill="#7d706a" rx="23.3" ry="13.1" stroke="#000" stroke-miterlimit="10"/><path d="m130.6 46c2.4 2.3 5.6 3.7 9.2 3.7h56.3l-12.1-36.3c-1.7-3.9-5.6-6.6-10.2-6.6-4.7 0-8.6 2.8-10.2 6.6l-4.1 11.8v-17.8h-19.7c-3.6 0-6.7 1.4-9.1 3.7v-3.7h-20.1c-3.8 0-7.2 1.6-9.5 4.1v-4h-19c-8.2 0-14.9 6.4-14.9 14.9 0 3.9 1.7 7.5 4.2 10.1h-4.3v17.2h19.1c5.4 0 10.7-3.2 12.5-7.1l.1-.2c2.1 4.3 6.6 7.3 11.8 7.3h20.1z" fill="#fff"/><path d="m70 46.7h16.1c6.6 0 11.9-5.3 11.9-11.9s-5.3-11.9-11.9-11.9h-4.2c-.3 0-.6-.3-.6-.6s.3-.6.6-.6h16.1v-5h-16.1c-3.1 0-5.6 2.5-5.6 5.6s2.5 5.6 5.6 5.6l4.2.1c3.8 0 6.8 3 6.8 6.8s-3.1 6.8-6.8 6.8h-16.1z" fill="#0060a8"/><path d="m70 40.5h16.1c3.1 0 5.6-2.5 5.6-5.6s-2.5-5.6-5.6-5.6h-4.2c-3.8 0-6.8-3.1-6.8-6.8 0-3.8 3.1-6.8 6.8-6.8h16.1v-5.1h-16.1c-6.6 0-11.9 5.3-11.9 11.9s5.4 11.9 11.9 11.9h4.2c.3 0 .6.3.6.6s-.3.6-.6.6h-16.1z" fill="#0060a8"/><path d="m110.6 41.7c-2.8 0-5.1-2.2-5.1-5.1v-16.1c0-2.7 2.3-5 5.1-5h17.2v-5.1h-17.2c-5.6 0-10.1 4.5-10.1 10.1v16.1c0 5.6 4.5 10.1 10.1 10.1h17.1v-5z" fill="#0060a8"/><path d="m106.7 20.5c0-2.1 1.7-3.9 3.9-3.9h17.2v5.1h-14.8c-1.2 0-1.2 1.2-1.2 1.2h12.4v5h-17.4z" fill="#0060a8"/><path d="m110.6 40.4c-2.1 0-3.9-1.7-3.9-3.8v-7.4h17.4v5.1h-12.4c0 1.2 1.2 1.2 1.2 1.2h14.8v5z" fill="#0060a8"/><path d="m139.8 41.7c-2.8 0-5.1-2.3-5.1-5.1v-16.1c0-2.8 2.3-5 5.1-5h16.7v-5.1h-16.7c-5.6 0-10.1 4.5-10.1 10.1v16.1c0 5.6 4.6 10.1 10.2 10.1h16.7v-23.8h-14.3v5h9.3v13.7z" fill="#0060a8"/><path d="m136 36.6c0 2.1 1.7 3.9 3.9 3.9h10.4v-11.3h-8.1v5.1h3v1.2h-3c-.6 0-1.2-.5-1.2-1.2v-11.3s0-1.2 1.2-1.2h14.3v-5h-16.7c-2.1 0-3.9 1.7-3.9 3.9z" fill="#0060a8"/><path d="m172.2 16.6c.2-.6.8-1.1 1.6-1.1.7 0 1.3.5 1.6 1.1l8.1 23.9h-11.8v-5.6h4l-1.8-5.3-5.8 17.1h-6z" fill="#0060a8"/><path d="m185 41.7h-13.5v5h20.5l-10.7-31.5c-.9-3.1-4-5.3-7.7-5.3-3.6 0-6.7 2.3-7.7 5.3l-10.8 31.5h5.4l10.4-30.7c.4-1 1.4-1.7 2.6-1.7s2.2.7 2.6 1.7z" fill="#0060a8"/><path d="m188.2 14.5c1 0 1.9-.4 2.5-1 .7-.7 1-1.6 1-2.5s-.4-1.8-1-2.5c-.7-.7-1.6-1-2.5-1-2 0-3.6 1.6-3.6 3.5 0 1 .4 1.8 1.1 2.5.6.6 1.5 1 2.5 1m-3.1-3.6c0-.8.3-1.6.9-2.2s1.4-.9 2.2-.9 1.6.3 2.2.9.9 1.3.9 2.2c0 1.7-1.4 3.1-3.1 3.1-.8 0-1.6-.3-2.2-.9s-.9-1.4-.9-2.2z" fill="#231f20"/><path d="m187.2 11.2v1.7h-.5v-4h1.5c.6 0 .9 0 1.2.2s.4.5.4.9c0 .9-.8 1-.9 1.1l1.1 1.7h-.6l-1.1-1.7h-1.1m0-.3h1 .5c.4-.1.5-.3.5-.6 0-.1 0-.4-.2-.6s-.5-.2-.8-.2h-1z" fill="#231f20"/></svg>