<?xml version="1.0" encoding="utf-8"?>
<!-- Generator: Adobe Illustrator 24.1.2, SVG Export Plug-In . SVG Version: 6.00 Build 0)  -->
<svg version="1.1" id="Calque_1" xmlns="http://www.w3.org/2000/svg" xmlns:xlink="http://www.w3.org/1999/xlink" x="0px" y="0px"
	 viewBox="0 0 175.7 297.7" style="enable-background:new 0 0 175.7 297.7;" xml:space="preserve">
<style type="text/css">
	.st0{fill:#C9C9C9;}
	.st1{fill:#BDBEC0;}
	.st2{fill:#AEADAB;}
	.st3{fill:#D9D9D9;}
	.st4{fill:url(#SVGID_1_);}
	.st5{fill:#C6C6C6;}
	.st6{fill:#39509C;}
	.st7{fill:#3D3D3D;}
	.st8{opacity:0.85;fill:#C2AA33;}
	.st9{fill:#D6D6D6;}
	.st10{fill:url(#SVGID_2_);}
	.st11{fill:url(#SVGID_3_);}
	.st12{fill:none;}
	.st13{fill:#C7C7C7;}
	.st14{fill:#AAABAF;}
	.st15{fill:#34308E;}
	.st16{fill:none;stroke:#04004D;stroke-miterlimit:10;}
	.st17{fill:none;stroke:#760D50;stroke-miterlimit:10;}
	.st18{fill:#EEEEEC;}
	.st19{fill:#939598;}
	.st20{fill:#9B2063;}
	.st21{fill:#212121;}
	.st22{fill:#191919;}
</style>
<path class="st0" d="M77.1,292.7h12.4v4.9H77.1V292.7z"/>
<path class="st1" d="M36.7,2.7c-0.8-2.1-3.1-3.3-5.2-2.5c-1.2,0.4-2.1,1.3-2.5,2.5H36.7z"/>
<path class="st2" d="M163,1.5H12.8l-12,12.1v3.7H175v-3.7L163,1.5z"/>
<path class="st3" d="M12.8,1.4H7.6C3.4,1.4,0,4.8,0,9v5.5h12.8V1.4z M168.1,1.4H163v13.2h12.8V9C175.7,4.8,172.3,1.4,168.1,1.4
	L168.1,1.4z"/>
<linearGradient id="SVGID_1_" gradientUnits="userSpaceOnUse" x1="-263.271" y1="186.782" x2="-261.129" y2="183.073" gradientTransform="matrix(1 0 0 -1 404.8 459.02)">
	<stop  offset="0" style="stop-color:#C9C9C9"/>
	<stop  offset="1" style="stop-color:#A8A8A8"/>
</linearGradient>
<path class="st4" d="M164.5,259.2l-45.9,26.2L164.5,259.2z"/>
<path class="st5" d="M162.8,287c13-11.5,13-29.9,13-29.9v-4.3l-78.4,44.9h38C135.3,297.7,149.8,298.4,162.8,287z"/>
<path class="st6" d="M63.8,258.3L63.8,258.3L63.8,258.3z"/>
<path class="st0" d="M35.4,174.9c15.4,0,28,12.5,28,28c0,15.4-12.5,28-28,28s-28-12.5-28-28C7.5,187.4,20,174.9,35.4,174.9z"/>
<g>
	<path class="st3" d="M9.5,203l2.7,1.7v-3.4L9.5,203z M61.4,203l-2.7,1.7v-3.4L61.4,203z M35.4,229.4l1.7-2.7h-3.4L35.4,229.4z
		 M35.4,176.3l1.7,2.7h-3.4L35.4,176.3z"/>
</g>
<path class="st7" d="M55.4,194.7H43.7v-12.4c0-1.2-0.9-2.1-2.1-2.1c0,0,0,0,0,0H30c-1.2,0-2.1,0.9-2.1,2.1c0,0,0,0,0,0v12.4H15.5
	c-1.2,0-2.1,0.9-2.1,2.1c0,0,0,0,0,0v11.7c0,1.2,0.9,2.1,2.1,2.1h12.4v12.8c0,1.2,0.9,2.1,2.1,2.1h11.7c1.2,0,2.1-0.9,2.1-2.1l0,0
	v-12.8h11.6c1.2,0,2.1-0.9,2.1-2.1v-11.7C57.5,195.7,56.5,194.7,55.4,194.7z"/>
<path class="st8" d="M39.3,37.7h95.7v88.8H39.3V37.7z"/>
<g>
	<path class="st9" d="M0,16.2v273.9c0,4.2,3.4,7.6,7.6,7.6c0,0,0,0,0,0h70c0.1,0,0.2-0.2,0.2-0.4v-4.6h11.3v4.6
		c0,0.2,0.1,0.4,0.2,0.4h46c0,0,14.5,0.7,27.4-10.7c13-11.5,13-29.9,13-29.9V16.2H0z M161.9,115.2c0,3.1-0.6,11.3-7,17.7
		c-6.4,6.4-16.1,7.1-17.7,7.1H18.3c-2.9,0-5.3-2.4-5.3-5.3V29.8c0-2.9,2.4-5.3,5.3-5.3h138.2c2.9,0,5.3,2.4,5.3,5.3V115.2z"/>
	<path class="st9" d="M156.5,24.5H18.3c-2.9,0-5.3,2.4-5.3,5.3v104.8c0,2.9,2.4,5.3,5.3,5.3h118.9c1.6,0,11.3-0.7,17.7-7.1
		c6.4-6.4,7-14.6,7-17.7V29.8C161.9,26.9,159.5,24.5,156.5,24.5z M134.9,126.5H39.3V37.7h95.7V126.5z"/>
	
		<linearGradient id="SVGID_2_" gradientUnits="userSpaceOnUse" x1="-352.0577" y1="451.1228" x2="-285.3997" y2="308.1748" gradientTransform="matrix(1 0 0 -1 404.8 459.02)">
		<stop  offset="0" style="stop-color:#7C7F81"/>
		<stop  offset="1.500000e-02" style="stop-color:#7C7E81"/>
		<stop  offset="0.625" style="stop-color:#676B7C"/>
		<stop  offset="1" style="stop-color:#60657A"/>
	</linearGradient>
	<path class="st10" d="M156.5,24.5H18.3c-2.9,0-5.3,2.4-5.3,5.3v104.8c0,2.9,2.4,5.3,5.3,5.3h118.9c1.6,0,11.3-0.7,17.7-7.1
		c6.4-6.4,7-14.6,7-17.7V29.8C161.9,26.9,159.5,24.5,156.5,24.5z M134.9,126.5H39.3V37.7h95.7V126.5z"/>
</g>
<linearGradient id="SVGID_3_" gradientUnits="userSpaceOnUse" x1="-382.3995" y1="391.6039" x2="-380.3583" y2="387.2274" gradientTransform="matrix(1 0 0 -1 404.8 459.02)">
	<stop  offset="0" style="stop-color:#EF4237"/>
	<stop  offset="1" style="stop-color:#CD3634"/>
</linearGradient>
<path class="st11" d="M23.4,67.2c1.3,0,2.4,1,2.5,2.4c0,1.3-1,2.4-2.4,2.5c0,0-0.1,0-0.1,0C22,72,21,70.9,21,69.6
	C21,68.3,22.1,67.2,23.4,67.2z"/>
<path class="st12" d="M156.5,25.5H18.3c-2.4,0-4.4,2-4.4,4.4v104.8c0,2.4,2,4.4,4.4,4.4h118.9c0.1,0,10.4-0.2,17-6.8
	c6.1-6.1,6.7-13.9,6.7-17V29.8C160.9,27.4,159,25.5,156.5,25.5z"/>
<path class="st13" d="M88.4,290.6c0,0,0-0.1,0-0.2l-0.2,0C88.2,290.5,88.3,290.6,88.4,290.6L88.4,290.6z"/>
<g>
	<path class="st14" d="M123.5,292.7c-0.6,0-1.1-0.3-1.3-0.8l-12.7-23.5c-0.4-0.7-0.1-1.7,0.7-2.1c0.7-0.4,1.6-0.1,2,0.6l12.7,23.5
		c0.4,0.7,0.1,1.7-0.6,2.1C124,292.7,123.8,292.7,123.5,292.7L123.5,292.7z M132.1,287.8c-0.6,0-1.1-0.3-1.3-0.8l-12.7-23.5
		c-0.4-0.7-0.1-1.7,0.7-2.1c0.7-0.4,1.6-0.1,2,0.6l12.7,23.5c0.4,0.7,0.1,1.7-0.6,2.1C132.6,287.7,132.4,287.8,132.1,287.8z
		 M140.8,282.8c-0.6,0-1.1-0.3-1.3-0.8l-12.7-23.5c-0.4-0.7-0.1-1.7,0.6-2.1c0.7-0.4,1.7-0.1,2.1,0.6l12.7,23.5
		c0.4,0.7,0.1,1.7-0.6,2.1C141.3,282.8,141,282.8,140.8,282.8L140.8,282.8z M149.4,277.9c-0.6,0-1.1-0.3-1.3-0.8l-12.7-23.5
		c-0.4-0.8-0.1-1.7,0.7-2c0.7-0.4,1.6-0.1,2,0.6l12.7,23.5c0.4,0.7,0.1,1.7-0.6,2.1C149.9,277.8,149.7,277.9,149.4,277.9z
		 M158.1,272.9c-0.6,0-1.1-0.3-1.3-0.8L144,248.6c-0.4-0.8-0.1-1.7,0.7-2c0.7-0.4,1.6-0.1,2,0.6l12.7,23.5c0.4,0.7,0.1,1.7-0.6,2.1
		C158.6,272.9,158.3,272.9,158.1,272.9L158.1,272.9z M166.7,268c-0.6,0-1.1-0.3-1.3-0.8l-12.7-23.5c-0.4-0.7-0.1-1.7,0.6-2.1
		c0.7-0.4,1.7-0.1,2.1,0.6l12.7,23.5c0.4,0.7,0.1,1.7-0.6,2.1C167.2,267.9,167,268,166.7,268L166.7,268z"/>
</g>
<g>
	<path class="st15" d="M61.5,153.1l-0.5,3.2c-1,0.5-1.9,0.8-2.9,0.8c-1.1,0-2-0.4-2.7-1.1c-0.7-0.7-1-1.7-1-2.8
		c0-1.4,0.5-2.6,1.6-3.7s2.6-1.5,4.5-1.5c0.4,0,0.9,0,1.5,0.1l-0.1,1.1c-0.7-0.1-1.2-0.1-1.6-0.1c-1.5,0-2.6,0.4-3.4,1.2
		s-1.2,1.8-1.2,2.9c0,0.8,0.2,1.5,0.7,2.1s1.1,0.8,1.8,0.8c0.6,0,1.1-0.1,1.7-0.4l0.2-1.5H59l0.1-0.9
		C59.1,153.1,61.6,153.1,61.5,153.1z M66.5,148l1.7,8.9h-1.1l-0.5-2.8h-2.8l-1.2,2.8h-1.2l3.9-8.9C65.4,148,66.5,148,66.5,148z
		 M64.2,153.2h2.2l-0.7-3.6C65.7,149.6,64.2,153.2,64.2,153.2z M78.3,148.1v8.9h-1.2l0-6.8l-3.6,6.8l-1.6-6.8l-2.2,6.8h-1.2l2.9-8.9
		h1l1.4,6l3.2-6H78.3z M85.7,148.1l-0.1,1.1H82l-0.4,2.8h3.1l-0.1,1.1h-3.2l-0.4,2.9h4.7l-0.2,1.1h-5.8l1.3-8.9L85.7,148.1
		L85.7,148.1z M91.2,148.1h1.3c0.9,0,1.6,0.2,2.1,0.6c0.5,0.4,0.7,1,0.7,1.6c0,0.8-0.4,1.4-1.2,1.8c1.2,0.4,1.8,1.2,1.8,2.4
		c0,0.7-0.3,1.3-0.9,1.8c-0.6,0.5-1.4,0.7-2.3,0.7H90L91.2,148.1L91.2,148.1z M91.8,152.6l-0.5,3.3h1.3c0.7,0,1.2-0.1,1.6-0.4
		c0.4-0.3,0.5-0.6,0.5-1.1c0-0.5-0.2-0.9-0.6-1.3s-0.9-0.5-1.5-0.5L91.8,152.6L91.8,152.6z M92.2,149.1l-0.4,2.5h0.6
		c0.5,0,0.9-0.1,1.2-0.4s0.4-0.6,0.4-1c0-0.8-0.5-1.2-1.5-1.2C92.5,149.1,92.4,149.1,92.2,149.1L92.2,149.1z M101.1,148
		c0.9,0,1.7,0.3,2.3,1c0.6,0.7,0.9,1.6,0.9,2.7c0,1.5-0.4,2.8-1.3,3.8s-1.8,1.5-3,1.5c-0.9,0-1.7-0.3-2.3-1
		c-0.6-0.7-0.9-1.6-0.9-2.7c0-1.4,0.4-2.6,1.2-3.7S99.8,148,101.1,148z M100,156c0.8,0,1.5-0.4,2.1-1.3c0.6-0.9,0.9-1.9,0.9-3.2
		c0-0.8-0.2-1.4-0.5-1.8s-0.8-0.7-1.4-0.7c-0.9,0-1.7,0.5-2.2,1.4c-0.6,0.9-0.9,1.9-0.9,3.1c0,0.8,0.2,1.4,0.5,1.8S99.4,156,100,156
		z M110.7,148.1l-3.1,4.5l-0.6,4.4h-1.2l0.6-4.4l-2.1-4.4h1.2l1.5,3.2l2.3-3.2C109.4,148.1,110.7,148.1,110.7,148.1z M112.4,154.2
		v0.5h-1v2.2h-0.7v-2.2h-1v-0.5H112.4z M114.3,155.2l0.9-1h0.6v2.7h-0.7v-1.7l-0.7,0.9h-0.1l-0.7-0.9v1.7h-0.7v-2.7h0.6L114.3,155.2
		z"/>
</g>
<g>
	<path class="st15" d="M12.3,150.9h1.8l2.5,4.1l0-4.1h1.8v5.9h-1.8l-2.5-4.1v4.1h-1.8L12.3,150.9z M27.9,151.5h1.7v0.8h0.9v0.6h-0.9
		l0,3.9h-1.7l0-3.9H27v-0.6l0.9,0C28,152.3,27.9,151.5,27.9,151.5z M19.3,152.9H21v3.9h-1.7V152.9z M19.3,150.9H21v1.2h-1.7V150.9z
		 M49.5,152.6c-1.4,0-2.5,1-2.5,2.2c0,1.2,1.1,2.2,2.5,2.2c1.4,0,2.5-1,2.5-2.2C52,153.6,50.8,152.6,49.5,152.6 M50.1,154.8l0,0.8
		c0,0.6-0.4,0.9-0.7,0.9c-0.3,0-0.7-0.3-0.7-0.9l0-0.8l0-0.8c0-0.6,0.4-0.9,0.7-0.9c0.3,0,0.7,0.3,0.7,0.9
		C50.1,154.2,50.1,154.7,50.1,154.8L50.1,154.8L50.1,154.8z M44.7,154.9v-0.7c0-0.6-0.4-0.8-0.7-0.8c-0.3,0-0.7,0.2-0.7,0.8v1.4
		c0,0.6,0.4,0.8,0.7,0.8c0.3,0,0.7-0.2,0.7-0.8V154.9z M44.7,150.9h1.7v5.9h-1.7l0-0.2c-0.7,0.4-1.4,0.4-2,0.1
		c-0.7-0.4-1.2-1.1-1.2-1.9c0-1,0.9-2.2,2.2-2c0.4,0,0.7,0.2,1,0.4V150.9L44.7,150.9z M25.1,152.7c0.6,0,1.9,0.4,1.9,2
		c0,0.3,0,2.1,0,2.1h-1.7v-2.6c0-0.3-0.3-0.7-0.8-0.7c-0.5,0-0.8,0.4-0.8,0.7l0,2.6H22l0-3.9l1.7,0c0,0,0,0.3,0,0.4
		C24.1,153,24.6,152.8,25.1,152.7 M39,152.7c0.6,0,1.9,0.4,1.9,2c0,0.3,0,2.1,0,2.1h-1.7v-2.6c0-0.3-0.3-0.7-0.8-0.7
		c-0.5,0-0.8,0.4-0.8,0.7l0,2.6H36v-3.9l1.7,0c0,0,0,0.3,0,0.4C38,153,38.5,152.8,39,152.7 M33.6,155.5l0,0.2c0,0.7-0.5,0.9-0.7,0.9
		c-0.3,0-0.7-0.2-0.7-0.9l0-0.8c0,0,3.2,0,3.2,0c0-1.2-1.1-2.2-2.5-2.2c-1.4,0-2.5,1-2.5,2.2s1.1,2.2,2.5,2.2c1.2,0,2.1-0.7,2.4-1.6
		L33.6,155.5L33.6,155.5z M32.2,154.3c0-0.3,0-0.6,0.1-0.8c0.1-0.2,0.4-0.4,0.6-0.4c0.2,0,0.5,0.1,0.6,0.4c0.1,0.2,0.1,0.4,0.1,0.8
		C33.6,154.3,32.2,154.3,32.2,154.3z"/>
</g>
<path class="st16" d="M19.7,32.5h38.6"/>
<path class="st17" d="M19.7,29.1h38.6"/>
<path class="st16" d="M138,32.5h16.3"/>
<path class="st17" d="M138,29.1h16.3"/>
<g>
	<path class="st18" d="M62.4,32.5v-3.1h1c0.2,0,0.4,0,0.5,0c0.2,0,0.3,0.1,0.4,0.2c0.2,0.1,0.3,0.3,0.4,0.5c0.1,0.2,0.1,0.5,0.1,0.7
		c0,0.2,0,0.4-0.1,0.6c0,0.2-0.1,0.3-0.2,0.5c-0.1,0.1-0.2,0.2-0.3,0.3c-0.1,0.1-0.2,0.1-0.4,0.2c-0.2,0-0.3,0.1-0.5,0.1H62.4z
		 M62.8,32.1h0.6c0.2,0,0.4,0,0.5-0.1c0.1,0,0.2-0.1,0.3-0.2c0.1-0.1,0.2-0.2,0.2-0.4c0.1-0.2,0.1-0.4,0.1-0.6
		c0-0.3-0.1-0.6-0.2-0.8c-0.1-0.2-0.2-0.3-0.4-0.4c-0.1,0-0.3-0.1-0.5-0.1h-0.6C62.8,29.7,62.8,32.1,62.8,32.1z M65.3,31
		c0-0.5,0.1-0.9,0.4-1.2s0.6-0.4,1-0.4c0.3,0,0.5,0.1,0.8,0.2c0.2,0.1,0.4,0.3,0.5,0.6c0.1,0.2,0.2,0.5,0.2,0.8
		c0,0.3-0.1,0.6-0.2,0.9c-0.1,0.3-0.3,0.4-0.5,0.6s-0.5,0.2-0.7,0.2c-0.5,0-1-0.3-1.3-0.8C65.4,31.5,65.3,31.2,65.3,31z M65.8,31
		c0,0.4,0.1,0.7,0.3,0.9c0.2,0.2,0.5,0.3,0.7,0.3c0.3,0,0.6-0.1,0.7-0.3s0.3-0.5,0.3-0.9c0-0.3,0-0.5-0.1-0.7
		c-0.2-0.4-0.5-0.6-0.9-0.6c-0.3,0-0.5,0.1-0.7,0.3C65.9,30.2,65.8,30.5,65.8,31z M69.5,32.5v-2.8h-1v-0.4h2.4v0.4h-1v2.8H69.5z
		 M72.5,32.5v-3.1h0.6l0.7,2.2c0.1,0.2,0.1,0.4,0.1,0.5c0-0.1,0.1-0.3,0.2-0.5l0.7-2.2h0.5v3.1H75v-2.6l-0.9,2.6h-0.4l-0.9-2.7v2.7
		C72.9,32.5,72.5,32.5,72.5,32.5z M75.7,32.5l1.2-3.1h0.4l1.2,3.1h-0.5l-0.4-0.9h-1.3l-0.3,0.9H75.7z M76.6,31.2h1l-0.3-0.9
		c-0.1-0.2-0.2-0.4-0.2-0.6c0,0.2-0.1,0.4-0.2,0.6C76.9,30.3,76.6,31.2,76.6,31.2z M79.6,32.5v-2.8h-1v-0.4H81v0.4h-1v2.8H79.6
		L79.6,32.5z M81.5,32.5v-3.1h1.3c0.3,0,0.5,0,0.6,0.1c0.1,0.1,0.3,0.2,0.3,0.3c0.1,0.1,0.1,0.3,0.1,0.5c0,0.2-0.1,0.4-0.2,0.6
		c-0.1,0.2-0.4,0.2-0.6,0.3c0.1,0.1,0.2,0.1,0.2,0.2c0.1,0.1,0.2,0.2,0.3,0.4l0.5,0.9h-0.5l-0.4-0.6c-0.1-0.2-0.2-0.3-0.3-0.4
		s-0.1-0.2-0.2-0.2c-0.1,0-0.1-0.1-0.2-0.1c-0.1,0-0.1,0-0.2,0h-0.5v1.4L81.5,32.5z M81.9,30.7h0.9c0.2,0,0.3,0,0.4-0.1
		c0.1,0,0.2-0.1,0.2-0.2c0.1-0.1,0.1-0.2,0.1-0.3c0-0.1-0.1-0.3-0.2-0.4c-0.1-0.1-0.3-0.1-0.5-0.1h-1L81.9,30.7L81.9,30.7z
		 M84.6,32.5v-3.1H85v3.1H84.6z M85.4,32.5l1.2-1.6l-1-1.5H86l0.6,0.8c0.1,0.2,0.2,0.3,0.2,0.4c0.1-0.1,0.1-0.2,0.2-0.4l0.6-0.8h0.4
		L87,30.8l1.1,1.6h-0.5l-0.8-1.1c0-0.1-0.1-0.1-0.1-0.2c0,0.1-0.1,0.2-0.1,0.2l-0.8,1.1L85.4,32.5L85.4,32.5z M90.2,32.5l-0.8-3.1
		h0.4l0.5,2c0,0.2,0.1,0.4,0.1,0.6c0.1-0.3,0.1-0.5,0.1-0.6l0.6-2.1h0.5l0.4,1.6c0.1,0.4,0.2,0.8,0.2,1.1c0-0.2,0.1-0.4,0.2-0.7
		l0.5-2h0.4l-0.8,3.1h-0.4l-0.6-2.4c-0.1-0.2-0.1-0.3-0.1-0.4c0,0.1-0.1,0.2-0.1,0.4l-0.6,2.4H90.2z M93.7,32.5v-3.1h0.4v3.1H93.7z
		 M95.6,32.5v-2.8h-1v-0.4H97v0.4h-1v2.8H95.6z M97.4,32.5v-3.1h0.4v1.3h1.6v-1.3h0.4v3.1h-0.4V31h-1.6v1.5H97.4z M101.5,31.5l0.4,0
		c0,0.2,0.1,0.3,0.1,0.4c0.1,0.1,0.2,0.2,0.3,0.2s0.3,0.1,0.5,0.1c0.2,0,0.3,0,0.4-0.1c0.1,0,0.2-0.1,0.3-0.2c0.1-0.2,0.1-0.4,0-0.5
		c-0.1-0.1-0.2-0.1-0.3-0.2c-0.2-0.1-0.4-0.1-0.5-0.2c-0.3-0.1-0.5-0.1-0.6-0.2c-0.1-0.1-0.2-0.2-0.3-0.3c-0.1-0.1-0.1-0.3-0.1-0.4
		c0-0.3,0.2-0.6,0.5-0.8c0.2-0.1,0.4-0.1,0.6-0.1c0.2,0,0.4,0,0.6,0.1c0.2,0.1,0.3,0.2,0.4,0.3c0.1,0.1,0.1,0.3,0.1,0.5l-0.4,0
		c0-0.2-0.1-0.3-0.2-0.4c-0.1-0.1-0.3-0.1-0.5-0.1c-0.2,0-0.4,0-0.5,0.1c-0.1,0.1-0.2,0.2-0.2,0.3c0,0.1,0,0.2,0.1,0.3
		c0.1,0.1,0.3,0.1,0.6,0.2c0.3,0.1,0.5,0.1,0.7,0.2c0.2,0.1,0.3,0.2,0.4,0.3c0.1,0.1,0.1,0.3,0.1,0.4c0,0.2,0,0.3-0.1,0.5
		c-0.1,0.2-0.2,0.3-0.4,0.3c-0.2,0.1-0.4,0.1-0.6,0.1c-0.3,0-0.5,0-0.7-0.1c-0.2-0.1-0.3-0.2-0.4-0.4
		C101.6,31.9,101.5,31.7,101.5,31.5L101.5,31.5z M105.2,32.5v-2.8h-1v-0.4h2.4v0.4h-1v2.8H105.2z M107.1,32.5v-3.1h2.2v0.4h-1.8v1
		h1.7V31h-1.7v1.1h1.9v0.4H107.1z M109.9,32.5v-3.1h1.3c0.3,0,0.5,0,0.6,0.1c0.1,0.1,0.3,0.2,0.3,0.3c0.1,0.1,0.1,0.3,0.1,0.5
		c0,0.2-0.1,0.4-0.2,0.6c-0.1,0.2-0.4,0.2-0.6,0.3c0.1,0.1,0.2,0.1,0.2,0.2c0.1,0.1,0.2,0.2,0.3,0.4l0.5,0.9H112l-0.4-0.6
		c-0.1-0.1-0.2-0.3-0.3-0.4c-0.1-0.1-0.1-0.2-0.2-0.2c-0.1,0-0.1-0.1-0.2-0.1c-0.1,0-0.1,0-0.2,0h-0.5v1.4L109.9,32.5z M110.3,30.7
		h0.9c0.2,0,0.3,0,0.4-0.1c0.1,0,0.2-0.1,0.2-0.2c0.1-0.1,0.1-0.2,0.1-0.3c0-0.1-0.1-0.3-0.2-0.4c-0.1-0.1-0.3-0.1-0.5-0.1h-1
		L110.3,30.7L110.3,30.7z M112.9,32.5v-3.1h2.2v0.4h-1.8v1h1.7V31h-1.7v1.1h1.9v0.4H112.9z M115.6,31c0-0.5,0.1-0.9,0.4-1.2
		s0.6-0.4,1-0.4c0.3,0,0.5,0.1,0.8,0.2c0.2,0.1,0.4,0.3,0.5,0.6s0.2,0.5,0.2,0.8c0,0.3-0.1,0.6-0.2,0.9c-0.1,0.3-0.3,0.4-0.5,0.6
		c-0.2,0.1-0.5,0.2-0.7,0.2c-0.3,0-0.5-0.1-0.8-0.2c-0.2-0.1-0.4-0.3-0.5-0.6C115.7,31.5,115.6,31.2,115.6,31z M116,31
		c0,0.4,0.1,0.7,0.3,0.9c0.2,0.2,0.5,0.3,0.7,0.3c0.3,0,0.6-0.1,0.7-0.3c0.2-0.2,0.3-0.5,0.3-0.9c0-0.3,0-0.5-0.1-0.7
		c-0.2-0.4-0.5-0.6-0.9-0.6c-0.3,0-0.5,0.1-0.7,0.3C116.2,30.2,116,30.5,116,31z M120.1,31.5l0.4,0c0,0.2,0.1,0.3,0.1,0.4
		c0.1,0.1,0.2,0.2,0.3,0.2c0.1,0.1,0.3,0.1,0.5,0.1c0.2,0,0.3,0,0.4-0.1c0.1,0,0.2-0.1,0.3-0.2c0.1-0.2,0.1-0.4,0-0.5
		c-0.1-0.1-0.2-0.1-0.3-0.2c-0.2-0.1-0.4-0.1-0.5-0.2c-0.3-0.1-0.5-0.1-0.6-0.2c-0.1-0.1-0.2-0.2-0.3-0.3c-0.1-0.1-0.1-0.3-0.1-0.4
		c0-0.3,0.2-0.6,0.5-0.8c0.2-0.1,0.4-0.1,0.6-0.1c0.2,0,0.4,0,0.6,0.1c0.2,0.1,0.3,0.2,0.4,0.3c0.1,0.1,0.1,0.3,0.1,0.5l-0.4,0
		c0-0.2-0.1-0.3-0.2-0.4c-0.1-0.1-0.3-0.1-0.5-0.1c-0.2,0-0.4,0-0.5,0.1c-0.1,0.1-0.2,0.2-0.2,0.3c0,0.1,0,0.2,0.1,0.3
		c0.1,0.1,0.3,0.1,0.6,0.2c0.3,0.1,0.5,0.1,0.7,0.2c0.2,0.1,0.3,0.2,0.4,0.3c0.1,0.1,0.1,0.3,0.1,0.4c0,0.2,0,0.3-0.1,0.5
		c-0.1,0.2-0.2,0.3-0.4,0.3c-0.2,0.1-0.4,0.1-0.6,0.1c-0.3,0-0.5,0-0.7-0.1c-0.2-0.1-0.3-0.2-0.4-0.4
		C120.1,31.9,120.1,31.7,120.1,31.5L120.1,31.5z M122.9,31c0-0.5,0.1-0.9,0.4-1.2s0.6-0.4,1-0.4c0.3,0,0.5,0.1,0.8,0.2
		c0.2,0.1,0.4,0.3,0.5,0.6c0.1,0.2,0.2,0.5,0.2,0.8c0,0.3-0.1,0.6-0.2,0.9c-0.1,0.3-0.3,0.4-0.5,0.6c-0.2,0.1-0.5,0.2-0.7,0.2
		c-0.3,0-0.5-0.1-0.8-0.2c-0.2-0.1-0.4-0.3-0.5-0.6C123,31.5,122.9,31.2,122.9,31z M123.3,31c0,0.4,0.1,0.7,0.3,0.9
		c0.2,0.2,0.5,0.3,0.7,0.3c0.3,0,0.6-0.1,0.7-0.3s0.3-0.5,0.3-0.9c0-0.3,0-0.5-0.1-0.7c-0.2-0.4-0.5-0.6-0.9-0.6
		c-0.3,0-0.5,0.1-0.7,0.3C123.4,30.2,123.3,30.5,123.3,31z M128.3,29.4h0.4v1.8c0,0.3,0,0.6-0.1,0.7c-0.1,0.2-0.2,0.3-0.4,0.5
		c-0.2,0.1-0.4,0.2-0.7,0.2c-0.3,0-0.5,0-0.7-0.2c-0.2-0.1-0.3-0.3-0.4-0.4c-0.1-0.2-0.1-0.5-0.1-0.8v-1.8h0.4v1.8
		c0,0.3,0,0.5,0.1,0.6c0.1,0.1,0.1,0.2,0.3,0.3c0.1,0.1,0.3,0.1,0.4,0.1c0.3,0,0.5-0.1,0.6-0.2c0.1-0.1,0.2-0.4,0.2-0.8V29.4
		L128.3,29.4z M129.4,32.5v-3.1h0.4l1.6,2.5v-2.5h0.4v3.1h-0.4l-1.6-2.5v2.5H129.4L129.4,32.5z M132.4,32.5v-3.1h1
		c0.2,0,0.4,0,0.5,0c0.2,0,0.3,0.1,0.4,0.2c0.2,0.1,0.3,0.3,0.4,0.5c0.1,0.2,0.1,0.5,0.1,0.7c0,0.2,0,0.4-0.1,0.6
		c-0.1,0.2-0.1,0.3-0.2,0.5s-0.2,0.2-0.3,0.3c-0.1,0.1-0.2,0.1-0.4,0.2c-0.2,0-0.3,0.1-0.5,0.1H132.4L132.4,32.5z M132.8,32.1h0.6
		c0.2,0,0.4,0,0.5-0.1c0.1,0,0.2-0.1,0.3-0.2c0.1-0.1,0.2-0.2,0.2-0.4c0.1-0.2,0.1-0.4,0.1-0.6c0-0.3-0.1-0.6-0.2-0.8
		c-0.1-0.2-0.2-0.3-0.4-0.4c-0.1,0-0.3-0.1-0.5-0.1h-0.6L132.8,32.1L132.8,32.1z"/>
</g>
<g>
	<path class="st18" d="M17.5,79.9v-2.8h1c0.2,0,0.4,0,0.5,0.1c0.1,0.1,0.2,0.1,0.3,0.3c0.1,0.1,0.1,0.2,0.1,0.4c0,0.1,0,0.2-0.1,0.3
		c-0.1,0.1-0.2,0.2-0.3,0.3c0.2,0.1,0.3,0.1,0.4,0.3c0.1,0.1,0.1,0.3,0.1,0.4c0,0.1,0,0.3-0.1,0.4s-0.1,0.2-0.2,0.3
		c-0.1,0.1-0.2,0.1-0.3,0.1c-0.1,0-0.3,0-0.4,0L17.5,79.9L17.5,79.9z M17.9,78.3h0.6c0.2,0,0.3,0,0.3,0c0.1,0,0.2-0.1,0.2-0.1
		s0.1-0.1,0.1-0.2c0-0.1,0-0.2-0.1-0.2c0-0.1-0.1-0.1-0.2-0.1c-0.1,0-0.3,0-0.4,0h-0.5L17.9,78.3L17.9,78.3z M17.9,79.5h0.7
		c0.1,0,0.2,0,0.2,0c0.1,0,0.1,0,0.2-0.1c0.1,0,0.1-0.1,0.1-0.2s0.1-0.1,0.1-0.2c0-0.1,0-0.2-0.1-0.3c0-0.1-0.1-0.1-0.2-0.2
		c-0.1,0-0.3-0.1-0.4,0h-0.6L17.9,79.5L17.9,79.5z M19.8,79.9l1-2.8h0.4l1.1,2.8h-0.4L21.6,79h-1.1l-0.3,0.8
		C20.2,79.9,19.8,79.9,19.8,79.9z M20.5,78.7h0.9L21.2,78c-0.1-0.2-0.1-0.4-0.2-0.6c0,0.2-0.1,0.4-0.1,0.5
		C20.8,77.9,20.5,78.7,20.5,78.7z M23.3,79.9v-2.5h-0.9v-0.3h2.1v0.3h-0.9v2.5H23.3L23.3,79.9z M25.7,79.9v-2.5h-0.9v-0.3h2.1v0.3
		H26v2.5H25.7L25.7,79.9z M27.1,79.9v-2.8h1.9v0.3h-1.6v0.9H29v0.3h-1.5v0.9h1.6v0.3L27.1,79.9L27.1,79.9z M29.5,79.9v-2.8h1.2
		c0.2,0,0.4,0,0.5,0.1c0.1,0.1,0.2,0.1,0.3,0.3c0.1,0.1,0.1,0.3,0.1,0.4c0,0.2-0.1,0.4-0.2,0.5s-0.3,0.2-0.6,0.3
		c0.1,0,0.1,0.1,0.2,0.1c0.1,0.1,0.2,0.2,0.3,0.4l0.5,0.8h-0.4L31,79.3c-0.1-0.1-0.2-0.3-0.3-0.4c0-0.1-0.1-0.1-0.2-0.2
		c0,0-0.1-0.1-0.2-0.1c-0.1,0-0.1,0-0.2,0h-0.4v1.2L29.5,79.9L29.5,79.9z M29.8,78.3h0.8c0.2,0,0.3,0,0.4-0.1c0.1,0,0.2-0.1,0.2-0.2
		c0-0.1,0.1-0.2,0.1-0.3c0-0.1,0-0.2-0.1-0.3c-0.1-0.1-0.2-0.1-0.4-0.1h-0.8L29.8,78.3L29.8,78.3z M32.7,79.9v-1.2l-1-1.6h0.4
		l0.5,0.8c0.1,0.2,0.2,0.3,0.3,0.5c0.1-0.1,0.2-0.3,0.3-0.5l0.5-0.8h0.4L33,78.7v1.2C33,79.9,32.7,79.9,32.7,79.9z"/>
</g>
<g>
	<path class="st15" d="M58.2,257.2c0.1-0.1,0.3,0,0.3,0.1c0,0.1,0,0.2-0.1,0.3l-2.3,1.2c-0.2,0.1-0.3,0.3-0.2,0.4l0.2,0.4
		c0.1,0.1,0.3,0.2,0.5,0.1l1.7-0.9c0.4-0.2,1-0.2,1.1,0.2l0.2,0.4c0.2,0.3,0,0.8-0.5,1l-2.3,1.2c-0.1,0.1-0.3,0-0.3-0.1
		c-0.1-0.1,0-0.2,0.1-0.3L59,260c0.2-0.1,0.3-0.3,0.2-0.4l-0.2-0.4c-0.1-0.1-0.3-0.2-0.5-0.1l-1.7,0.9c-0.5,0.2-1,0.2-1.1-0.2
		l-0.2-0.4c-0.2-0.3,0-0.8,0.5-1L58.2,257.2L58.2,257.2z M63.8,257.4c0.1-0.1,0.3,0,0.3,0c0.1,0.1,0,0.2-0.1,0.3l-2.2,1.1
		c-0.4,0.2-1,0.2-1.1-0.2l-0.9-1.6c-0.2-0.3,0-0.8,0.5-1l2.2-1.1c0.1-0.1,0.3,0,0.3,0.1c0,0.1,0,0.2-0.1,0.3l-2.2,1.1
		c-0.2,0.1-0.3,0.3-0.2,0.4l0.3,0.6l2.4-1.3c0.1-0.1,0.3,0,0.3,0.1c0.1,0.1,0,0.2-0.1,0.3l-2.4,1.3l0.3,0.6c0.1,0.1,0.3,0.2,0.5,0.1
		L63.8,257.4L63.8,257.4z M63.9,254.4c-0.1-0.1,0-0.2,0.1-0.3c0.1-0.1,0.3,0,0.3,0.1l1.1,2c0.1,0.1,0.3,0.2,0.5,0.1l2.2-1.2
		c0.1-0.1,0.3,0,0.3,0.1c0.1,0.1,0,0.2-0.1,0.3l-2.2,1.2c-0.4,0.2-1,0.2-1.1-0.2L63.9,254.4L63.9,254.4z M72.2,253
		c0.1-0.1,0.3,0,0.3,0.1c0.1,0.1,0,0.2-0.1,0.3l-2.2,1.1c-0.4,0.2-1,0.2-1.1-0.2l-0.9-1.6c-0.2-0.3,0-0.8,0.5-1l2.2-1.1
		c0.1-0.1,0.3,0,0.3,0.1c0.1,0.1,0,0.2-0.1,0.3l-2.2,1.1c-0.2,0.1-0.3,0.3-0.2,0.4L69,253l2.4-1.3c0.1-0.1,0.3,0,0.3,0.1
		c0.1,0.1,0,0.2-0.1,0.3l-2.4,1.3l0.3,0.6c0.1,0.1,0.3,0.2,0.4,0.1L72.2,253L72.2,253z M75.1,248.3c0.1-0.1,0.3-0.1,0.3,0.1
		c0.1,0.1,0,0.2-0.1,0.3l-2.2,1.1c-0.2,0.1-0.3,0.3-0.2,0.4l0.9,1.6c0.1,0.1,0.3,0.2,0.5,0.1l2.2-1.1c0.1-0.1,0.3,0,0.3,0.1
		c0.1,0.1,0,0.2-0.1,0.3l-2.2,1.1c-0.4,0.2-1,0.2-1.1-0.2l-0.9-1.6c-0.2-0.3,0-0.8,0.5-1L75.1,248.3L75.1,248.3z M79.7,245.9
		c0.1-0.1,0.3,0,0.3,0.1c0.1,0.1,0,0.2-0.1,0.3l-1.3,0.7l1.2,2.3c0.1,0.1,0,0.2-0.1,0.3c-0.1,0.1-0.3,0-0.3-0.1l-1.2-2.3l-1.3,0.7
		c-0.1,0.1-0.3,0-0.3-0.1c-0.1-0.1,0-0.2,0.1-0.3L79.7,245.9z"/>
</g>
<g>
	<path class="st15" d="M89.2,257.2c0.1-0.1,0.3,0,0.3,0.1c0.1,0.1,0,0.2-0.1,0.3l-2.3,1.2c-0.2,0.1-0.3,0.3-0.2,0.4l0.2,0.4
		c0.1,0.1,0.3,0.2,0.5,0.1l1.7-0.9c0.4-0.2,1-0.2,1.1,0.2l0.2,0.4c0.2,0.3,0,0.8-0.5,1l-2.3,1.2c-0.1,0.1-0.3,0-0.3-0.1
		c-0.1-0.1,0-0.2,0.1-0.3l2.3-1.2c0.2-0.1,0.3-0.3,0.2-0.4l-0.2-0.4c-0.1-0.1-0.3-0.2-0.5-0.1l-1.7,0.9c-0.4,0.2-1,0.2-1.1-0.2
		l-0.2-0.4c-0.2-0.3,0-0.8,0.5-1L89.2,257.2L89.2,257.2z M93.5,254.9c0.1-0.1,0.3,0,0.3,0.1c0.1,0.1,0,0.2-0.1,0.3l-1.3,0.7l1.2,2.3
		c0.1,0.1,0,0.2-0.1,0.3c-0.1,0.1-0.3,0-0.3-0.1l-1.2-2.3l-1.3,0.7c-0.1,0.1-0.3,0-0.3-0.1c-0.1-0.1,0-0.2,0.1-0.3L93.5,254.9
		L93.5,254.9z M97.3,252.9c0.4-0.2,1-0.2,1.1,0.2l1.1,2c0.1,0.1,0,0.2-0.1,0.3c-0.1,0.1-0.3,0-0.3-0.1l-0.6-1.1l-2.4,1.3l0.6,1.1
		c0.1,0.1,0,0.2-0.1,0.3c-0.1,0.1-0.3,0-0.3-0.1l-1.1-2c-0.2-0.3,0-0.8,0.5-1C95.5,253.8,97.3,252.9,97.3,252.9z M95.8,255.2
		l2.4-1.3l-0.3-0.6c-0.1-0.1-0.3-0.2-0.4-0.1l-1.8,0.9c-0.2,0.1-0.3,0.3-0.2,0.4L95.8,255.2L95.8,255.2z M103,250.7l0.3,0.6
		c0.2,0.3,0,0.8-0.5,1c0.2,0.1,0.6,0.4,0.8,0.6c0,0,0,0,0.1,0.1c0,0.1,0,0.2-0.1,0.3c0,0-0.1,0-0.1,0.1c-0.1,0.1-0.2,0.1-0.3,0
		l-1-0.7l-1.7,0.9l0.5,0.9c0.1,0.1,0,0.2-0.1,0.3c-0.1,0.1-0.3,0.1-0.3-0.1l-1.1-2c-0.2-0.3,0-0.8,0.5-1l1.9-1
		C102.3,250.3,102.8,250.3,103,250.7L103,250.7z M102.5,250.9c-0.1-0.1-0.3-0.2-0.5-0.1l-1.9,1c-0.2,0.1-0.3,0.3-0.2,0.4l0.4,0.8
		l2.2-1.2c0.2-0.1,0.3-0.3,0.2-0.4L102.5,250.9z M107,247.8c0.1-0.1,0.3,0,0.3,0.1c0.1,0.1,0,0.2-0.1,0.3l-1.3,0.7l1.2,2.3
		c0.1,0.1,0,0.2-0.1,0.3c-0.1,0.1-0.3,0.1-0.3-0.1l-1.2-2.3l-1.3,0.7c-0.1,0.1-0.3,0-0.3-0.1c-0.1-0.1,0-0.2,0.1-0.3L107,247.8z"/>
</g>
<path class="st15" d="M132.4,224.3c0.5-0.3,1.3-0.5,1.6,0.1l0.3,0.5c0.1,0.2,0.1,0.5,0,0.7c0.2,0,0.5,0.2,0.6,0.4l0.2,0.4
	c0.2,0.4-0.1,1-0.6,1.3l-2.9,1.5c-0.2,0.1-0.4,0.1-0.4-0.1l-1.3-2.5c-0.2-0.4,0-1,0.6-1.3L132.4,224.3L132.4,224.3z M133.5,225.8
	c0.2-0.1,0.3-0.4,0.3-0.5l-0.3-0.5c-0.1-0.2-0.4-0.2-0.6-0.1l-2.2,1.1c-0.2,0.1-0.3,0.4-0.2,0.6l0.4,0.8L133.5,225.8z M134.3,227.3
	c0.2-0.1,0.3-0.4,0.2-0.5l-0.2-0.4c-0.1-0.2-0.3-0.2-0.6-0.1l-2.6,1.4l0.6,1L134.3,227.3L134.3,227.3z M158.8,210.3
	c0.6-0.3,1.2-0.2,1.4,0.2l1.3,2.5c0.1,0.1,0,0.3-0.2,0.4c-0.2,0.1-0.4,0.1-0.4-0.1l-0.7-1.3l-3,1.6l0.7,1.3c0.1,0.1,0,0.3-0.2,0.4
	c-0.2,0.1-0.4,0.1-0.4-0.1l-1.4-2.5c-0.2-0.4,0.1-1,0.6-1.3L158.8,210.3L158.8,210.3z M157,213.2l3-1.6l-0.4-0.8
	c-0.1-0.2-0.3-0.2-0.6-0.1l-2.2,1.2c-0.2,0.1-0.3,0.4-0.2,0.5L157,213.2L157,213.2z"/>
<path class="st19" d="M72.6,245.8l-14.7,7.8c-1.5,0.8-3.4,0.2-4.2-1.3l-0.4-0.7c-0.8-1.5-0.2-3.4,1.3-4.2l14.7-7.8
	c1.5-0.8,3.4-0.2,4.2,1.3l0.4,0.7C74.7,243.1,74.1,245,72.6,245.8z M102.3,245.8l-14.7,7.8c-1.5,0.8-3.4,0.2-4.2-1.3l-0.4-0.7
	c-0.8-1.5-0.2-3.4,1.3-4.2l14.7-7.8c1.5-0.8,3.4-0.2,4.2,1.3l0.4,0.7C104.4,243.1,103.8,245,102.3,245.8z"/>
<path class="st0" d="M157.4,205.2l-28.6,15.2c-6.3,3.3-14.1,0.9-17.5-5.4l-1.1-2.1c-3.3-6.3-0.9-14.1,5.4-17.5l28.6-15.2
	c6.3-3.3,14.1-0.9,17.5,5.4l1.1,2.1C166.1,194,163.7,201.9,157.4,205.2L157.4,205.2z"/>
<g>
	<path class="st20" d="M118.4,197.7c-5.3,2.8-7.3,9.3-4.5,14.6c2.8,5.3,9.3,7.3,14.6,4.5c5.3-2.8,7.3-9.3,4.5-14.6
		C130.2,196.9,123.7,194.9,118.4,197.7L118.4,197.7z M144.5,183.9c-5.3,2.8-7.3,9.3-4.5,14.6c2.8,5.3,9.3,7.3,14.6,4.5
		c5.3-2.8,7.3-9.3,4.5-14.6C156.3,183.1,149.7,181.1,144.5,183.9L144.5,183.9z"/>
</g>
<path class="st0" d="M16.7,1.5h37.4v10.2H16.7V1.5z"/>
<path class="st3" d="M22.5,1.6v2.2c0,0.1,0.1,0.2,0.2,0.2h1.6c0.1,0,0.2-0.1,0.2-0.2c0,0,0,0,0,0V1.6c0-0.1-0.1-0.2-0.2-0.2h-1.6
	C22.6,1.4,22.5,1.5,22.5,1.6z M26.9,1.6v2.2C26.9,3.9,27,4,27.1,4h1.6c0.1,0,0.2-0.1,0.2-0.2V1.6c0-0.1-0.1-0.2-0.2-0.2h-1.6
	C27,1.4,26.9,1.5,26.9,1.6C26.9,1.6,26.9,1.6,26.9,1.6z"/>
<g>
	<path class="st3" d="M26.9,5.8c0.6,0,1.1,0.2,1.5,0.6s0.6,0.9,0.6,1.5s-0.2,1.1-0.6,1.5c-0.4,0.4-0.9,0.6-1.5,0.6
		c-0.6,0-1.1-0.2-1.5-0.6c-0.4-0.4-0.6-0.9-0.6-1.5c0-0.6,0.2-1.1,0.6-1.5S26.3,5.8,26.9,5.8z M26.9,6.3c-0.4,0-0.8,0.1-1.1,0.4
		c-0.3,0.3-0.4,0.7-0.4,1.1c0,0.4,0.1,0.8,0.4,1.1s0.6,0.4,1.1,0.4c0.4,0,0.8-0.1,1.1-0.4s0.4-0.7,0.4-1.1c0-0.4-0.1-0.8-0.4-1.1
		C27.7,6.5,27.3,6.3,26.9,6.3z M29.6,5.8h2.1v0.5h-1.5v1.1h1.5V8h-1.5v1.9h-0.6C29.6,9.9,29.6,5.8,29.6,5.8z M32.3,5.8h2.1v0.5h-1.5
		v1.1h1.5V8h-1.5v1.9h-0.6C32.3,9.9,32.3,5.8,32.3,5.8z M36.5,7.6c0,0.3-0.3,0.6-0.6,0.6S35.3,8,35.3,7.6S35.6,7,35.9,7
		C36.2,7,36.5,7.3,36.5,7.6z M39.6,5.8c0.6,0,1.1,0.2,1.5,0.6s0.6,0.9,0.6,1.5s-0.2,1.1-0.6,1.5c-0.4,0.4-0.9,0.6-1.5,0.6
		c-0.6,0-1.1-0.2-1.5-0.6c-0.4-0.4-0.6-0.9-0.6-1.5c0-0.6,0.2-1.1,0.6-1.5S39,5.8,39.6,5.8z M39.6,6.3c-0.4,0-0.8,0.1-1.1,0.4
		c-0.3,0.3-0.4,0.7-0.4,1.1c0,0.4,0.1,0.8,0.4,1.1s0.6,0.4,1.1,0.4c0.4,0,0.8-0.1,1.1-0.4c0.3-0.3,0.4-0.7,0.4-1.1
		c0-0.4-0.1-0.8-0.4-1.1C40.4,6.5,40,6.3,39.6,6.3z M45.4,5.8H46v4.1h-0.5l-2.6-3.1v3.1h-0.5V5.8h0.4L45.4,9L45.4,5.8L45.4,5.8z"/>
	<g>
		<path class="st3" d="M23.3,5.4v4.9l-3.8-2.4L23.3,5.4z M47.6,5.4v4.9l3.8-2.4L47.6,5.4z"/>
	</g>
</g>
<path class="st3" d="M31.3,1.6V4h19c2.1,0,3.8,1.7,3.8,3.8c0,2.1-1.7,3.8-3.8,3.8H20.5c-2.1,0-3.8-1.7-3.8-3.8
	c0-1.9,1.4-3.5,3.3-3.8V1.6c0-0.1-0.1-0.2-0.2-0.2l0,0h-4.4v13.2h144.9V1.4H31.5C31.4,1.4,31.3,1.5,31.3,1.6z M80.3,293.1v4.3
	c0,0.2,0.1,0.4,0.2,0.4h1.6c0.1,0,0.2-0.2,0.2-0.4v-4.3c0-0.2-0.1-0.4-0.2-0.4h-1.6C80.4,292.7,80.3,292.9,80.3,293.1L80.3,293.1z
	 M84.7,293.1v4.3c0,0.2,0.1,0.4,0.2,0.4h1.6c0.1,0,0.2-0.2,0.2-0.4v-4.3c0-0.2-0.1-0.4-0.2-0.4h-1.6
	C84.8,292.7,84.7,292.9,84.7,293.1z"/>
<path class="st0" d="M89.4,292.7H68.3c-1.8,0-3.3-1.5-3.3-3.3V289c0-1.8,1.5-3.3,3.3-3.3h21.1c1.8,0,3.3,1.5,3.3,3.3v0.4
	C92.7,291.2,91.2,292.7,89.4,292.7z"/>
<g>
	<path class="st3" d="M72.5,290.9v-3.3h1c0.3,0,0.6,0.1,0.8,0.3c0.2,0.2,0.3,0.4,0.3,0.7c0,0.2,0,0.4-0.1,0.5
		c-0.1,0.1-0.2,0.3-0.4,0.3c-0.2,0.1-0.4,0.1-0.7,0.1H73v1.4L72.5,290.9L72.5,290.9z M73.5,288H73v1h0.5c0.2,0,0.3,0,0.4-0.1
		s0.2-0.2,0.2-0.4C74.1,288.2,73.9,288,73.5,288z M77.4,287.6h0.5v3.3h-0.5v-1.4h-1.9v1.4H75v-3.3h0.5v1.4h1.9L77.4,287.6
		L77.4,287.6z M80.2,287.6c0.5,0,0.9,0.2,1.3,0.5c0.3,0.3,0.5,0.7,0.5,1.2s-0.2,0.9-0.5,1.2c-0.3,0.3-0.8,0.5-1.3,0.5
		c-0.5,0-0.9-0.2-1.2-0.5c-0.3-0.3-0.5-0.7-0.5-1.2c0-0.5,0.2-0.9,0.5-1.2S79.7,287.6,80.2,287.6L80.2,287.6z M80.2,288
		c-0.4,0-0.7,0.1-0.9,0.4c-0.2,0.2-0.4,0.5-0.4,0.9c0,0.4,0.1,0.7,0.4,0.9c0.2,0.2,0.6,0.4,0.9,0.4c0.4,0,0.7-0.1,0.9-0.4
		c0.2-0.2,0.4-0.5,0.4-0.9c0-0.4-0.1-0.6-0.4-0.9C80.9,288.1,80.5,288,80.2,288z M85.2,287.6h0.4v3.3h-0.4l-2.2-2.5v2.5h-0.4v-3.3
		H83l2.2,2.6C85.2,290.2,85.2,287.6,85.2,287.6z M86.3,287.6h1.9v0.4h-1.4v1h1.4v0.4h-1.4v1h1.4v0.4h-1.9V287.6L86.3,287.6z
		 M89.6,289.5l-0.4-0.2c-0.2-0.1-0.4-0.3-0.5-0.4c-0.1-0.1-0.1-0.3-0.1-0.5c0-0.3,0.1-0.5,0.3-0.6c0.2-0.2,0.4-0.2,0.7-0.2
		c0.3,0,0.5,0.1,0.8,0.2v0.5c-0.2-0.2-0.5-0.3-0.8-0.3c-0.1,0-0.3,0-0.4,0.1c-0.1,0.1-0.1,0.2-0.1,0.3c0,0.1,0,0.2,0.1,0.3
		c0.1,0.1,0.2,0.2,0.4,0.3l0.4,0.2c0.4,0.2,0.6,0.5,0.6,0.9c0,0.3-0.1,0.5-0.3,0.6c-0.2,0.2-0.4,0.2-0.7,0.2c-0.3,0-0.6-0.1-0.9-0.3
		V290c0.3,0.3,0.6,0.5,0.9,0.5c0.1,0,0.3,0,0.4-0.1c0.1-0.1,0.2-0.2,0.1-0.3C90,289.9,89.9,289.7,89.6,289.5L89.6,289.5z"/>
	<g>
		<path class="st3" d="M69.3,287.2c1.1,0,2.1,0.9,2.1,2.1c0,0.2,0,0.4-0.1,0.7c0,0-0.1,0.1-0.1,0.1c-0.1,0-0.1-0.1-0.1-0.2
			c0.3-0.9-0.2-2-1.1-2.3c-0.2-0.1-0.4-0.1-0.6-0.1c-1,0-1.8,0.8-1.8,1.8c0,0.2,0,0.4,0.1,0.6c0,0.1-0.1,0.2-0.1,0.2
			c0,0-0.1,0-0.1-0.1c-0.4-1.1,0.2-2.2,1.3-2.6C68.9,287.2,69.1,287.2,69.3,287.2z"/>
		<path class="st3" d="M68,291.2v-1.3c-0.4,0-0.6,0.3-0.6,0.6C67.4,290.9,67.7,291.2,68,291.2z M70.6,291.2v-1.3
			c0.4,0,0.6,0.3,0.6,0.6C71.3,290.9,71,291.2,70.6,291.2z"/>
	</g>
</g>
<g>
	<path class="st21" d="M40.4,223.8H31c-1,0-1.9-0.8-1.9-1.9v-12.7H16.8c-1,0-1.9-0.8-1.9-1.9V198c0-1,0.8-1.9,1.9-1.9h12.4v-12.4
		c0-1,0.8-1.9,1.9-1.9h9.4c1,0,1.9,0.8,1.9,1.9v12.4h11.8c1,0,1.9,0.8,1.9,1.9v9.4c0,1-0.8,1.9-1.9,1.9H42.3V222
		C42.3,223,41.4,223.8,40.4,223.8L40.4,223.8z"/>
	<circle class="st22" cx="35.4" cy="202.9" r="5.5"/>
	<g>
		<path class="st22" d="M44.2,208.3h-0.9c-0.6,0-1-0.5-1-1v-8.9c0-0.6,0.5-1,1-1h0.9c0.6,0,1,0.5,1,1v8.9
			C45.2,207.9,44.7,208.3,44.2,208.3z M48.3,208.3h-0.9c-0.6,0-1-0.5-1-1v-8.9c0-0.6,0.5-1,1-1h0.9c0.6,0,1,0.5,1,1v8.9
			C49.3,207.9,48.9,208.3,48.3,208.3z M52.4,208.3h-0.9c-0.6,0-1-0.5-1-1v-8.9c0-0.6,0.5-1,1-1h0.9c0.6,0,1,0.5,1,1v8.9
			C53.5,207.9,53,208.3,52.4,208.3z M40.9,194.1v0.9c0,0.6-0.5,1-1,1H31c-0.6,0-1-0.5-1-1v-0.9c0-0.6,0.5-1,1-1h8.9
			C40.4,193.1,40.9,193.6,40.9,194.1z M40.9,190v0.9c0,0.6-0.5,1-1,1H31c-0.6,0-1-0.5-1-1V190c0-0.6,0.5-1,1-1h8.9
			C40.4,189,40.9,189.4,40.9,190z M40.9,185.8v0.9c0,0.6-0.5,1-1,1H31c-0.6,0-1-0.5-1-1v-0.9c0-0.6,0.5-1,1-1h8.9
			C40.4,184.8,40.9,185.3,40.9,185.8z M30,211.6v-0.9c0-0.6,0.5-1,1-1h8.9c0.6,0,1,0.5,1,1v0.9c0,0.6-0.5,1-1,1H31
			C30.4,212.6,30,212.1,30,211.6z M30,215.7v-0.9c0-0.6,0.5-1,1-1h8.9c0.6,0,1,0.5,1,1v0.9c0,0.6-0.5,1-1,1H31
			C30.4,216.7,30,216.3,30,215.7z M30,219.9V219c0-0.6,0.5-1,1-1h8.9c0.6,0,1,0.5,1,1v0.9c0,0.6-0.5,1-1,1H31
			C30.4,220.9,30,220.4,30,219.9z M26.7,197.4h0.9c0.6,0,1,0.5,1,1v8.9c0,0.6-0.5,1-1,1h-0.9c-0.6,0-1-0.5-1-1v-8.9
			C25.7,197.8,26.1,197.4,26.7,197.4z M22.5,197.4h0.9c0.6,0,1,0.5,1,1v8.9c0,0.6-0.5,1-1,1h-0.9c-0.6,0-1-0.5-1-1v-8.9
			C21.5,197.8,22,197.4,22.5,197.4z M18.4,197.4h0.9c0.6,0,1,0.5,1,1v8.9c0,0.6-0.5,1-1,1h-0.9c-0.6,0-1-0.5-1-1v-8.9
			C17.4,197.8,17.8,197.4,18.4,197.4z"/>
	</g>
</g>
</svg>
