<svg xmlns="http://www.w3.org/2000/svg" xmlns:xlink="http://www.w3.org/1999/xlink" viewBox="0 0 470.58 67.66"><defs><style>.ff9b3afd-94d5-49b8-8a40-16c3214f45ff{stroke:#9def48;stroke-miterlimit:10;fill:url(#a8aee6ba-502e-4080-bf3f-e61bc3ec05f1);}.a78bde98-7229-423d-84b7-358cba6ced47{fill:#9def48;}.b97ad827-3a06-4f33-8ec3-d8b7a5927729{fill:#f91b20;}</style><linearGradient id="a8aee6ba-502e-4080-bf3f-e61bc3ec05f1" x1="0.5" y1="33.83" x2="470.08" y2="33.83" gradientUnits="userSpaceOnUse"><stop offset="0" stop-color="#032c02"/><stop offset="1" stop-color="#207a09"/></linearGradient></defs><g id="b6fc997d-d772-411a-aea8-828c1be1c29d" data-name="calque3"><polygon class="ff9b3afd-94d5-49b8-8a40-16c3214f45ff" points="0.5 6.04 102.57 6.04 108.7 0.5 150.44 0.5 158.35 6.04 461.77 6.24 470.08 16.13 470.08 59.84 50.94 59.84 42.83 67.16 8.02 67.16 0.5 59.84 0.5 6.04"/><path class="a78bde98-7229-423d-84b7-358cba6ced47" d="M59.06,24.64a16.32,16.32,0,0,0-2.34,8.18A16.41,16.41,0,0,0,59.06,41h2.7v4.07H56.87a18.25,18.25,0,0,1-4.22-12.26,18.18,18.18,0,0,1,4.22-12.25H81a18.18,18.18,0,0,1,4.22,12.25A18.25,18.25,0,0,1,81,45.08H76.13V41h2.72a16.48,16.48,0,0,0,2.32-8.19,16.39,16.39,0,0,0-2.32-8.18Z"/><path class="a78bde98-7229-423d-84b7-358cba6ced47" d="M95.46,38.26l-4.29,6.82H86.09l15.57-24.51h4.69l15.44,24.51h-5l-4.24-6.82Zm14.56-4-6-9.59-6,9.59Z"/></g><g id="ba0d639d-1a13-4c7d-bbfe-d7e08588f393" data-name="namco"><path id="f6948d7c-1fd4-4168-a98a-c82b5e6fb6df" data-name="rect4393" class="b97ad827-3a06-4f33-8ec3-d8b7a5927729" d="M21.49,16.56a2,2,0,0,0,2,2h3.54a2,2,0,0,0,2-2V10.15a2,2,0,0,0-2-2H23.51a2,2,0,0,0-2,2Zm2.15-.46V10.65h3.28V16.1Z"/><path id="b5b58253-f165-4380-93b9-b09dab75ebdc" data-name="rect4348" class="b97ad827-3a06-4f33-8ec3-d8b7a5927729" d="M21.64,64.82h7.44V62.33H23.79V57.65h5.29V55.21H23.66a2,2,0,0,0-2,2Z"/><path id="bf2e7b4e-e495-4d98-9605-717984d1f792" data-name="path4359" class="b97ad827-3a06-4f33-8ec3-d8b7a5927729" d="M21.64,53.53h2V46.78h.53v5.27a2,2,0,0,0,2,2h.9a2,2,0,0,0,2-2v-7.7H23.66a2,2,0,0,0-2,2v7.16Zm4.47-2V46.79h1.06v4.75Z"/><path id="f9c134e0-a820-4059-80b7-882f86f9d80b" data-name="path4384" class="b97ad827-3a06-4f33-8ec3-d8b7a5927729" d="M21.64,42.82h7.44V40.33H23.79V37.78h5.29V35.29H23.79v-2.6h5.29V30.25H23.66a2,2,0,0,0-2,2Z"/><path id="a8d8715b-365a-4928-9ee3-9247a53076f1" data-name="rect4389" class="b97ad827-3a06-4f33-8ec3-d8b7a5927729" d="M21.49,26.79a2,2,0,0,0,2,2h3.54a2,2,0,0,0,2-2V20H26.92v6.3H23.64V20H21.49Z"/></g></svg>