<svg xmlns="http://www.w3.org/2000/svg" xmlns:xlink="http://www.w3.org/1999/xlink" viewBox="0 0 746.51 822.18"><defs><style>.a1446669-faa5-4d56-9aa9-11dc93261801,.b9635e93-767c-46d8-87d2-4ec9168c61d0,.f421ddce-fdd2-4310-a743-68fbfe9a5a5b{fill:#373735;}.a1446669-faa5-4d56-9aa9-11dc93261801{opacity:0.5;}.b8f3a1be-4acd-4c65-afc5-db673d06fb09{fill:#121211;}.a0b6e5fb-e5e6-4034-8206-31e3953ebef5,.a4aa6f65-c62a-4cc7-aebe-fe4c0e9ccebb,.a8cc0c20-e204-4817-9ef7-0770354a7349,.b8f3a1be-4acd-4c65-afc5-db673d06fb09,.f2badcd7-5130-44f4-aa7e-498b6360d4f7,.f421ddce-fdd2-4310-a743-68fbfe9a5a5b,.f91988e8-52e0-4bde-8281-ad74e6a3bf80{stroke:#b5b5b5;}.a0b6e5fb-e5e6-4034-8206-31e3953ebef5,.a4aa6f65-c62a-4cc7-aebe-fe4c0e9ccebb,.a8cc0c20-e204-4817-9ef7-0770354a7349,.ad6c5335-7b43-4248-9042-c7f600947be7,.b7eb3deb-9236-4154-b019-a39a06194c13,.b8f3a1be-4acd-4c65-afc5-db673d06fb09,.bf3b7eb9-e270-48f0-8815-379ec77b02fa,.bff78c10-65dc-44a7-9421-4257e2485349,.f2badcd7-5130-44f4-aa7e-498b6360d4f7,.f421ddce-fdd2-4310-a743-68fbfe9a5a5b,.f91988e8-52e0-4bde-8281-ad74e6a3bf80,.ff64eb6a-b324-4dca-a193-8ea009a40957{stroke-miterlimit:10;}.a0b6e5fb-e5e6-4034-8206-31e3953ebef5,.a4aa6f65-c62a-4cc7-aebe-fe4c0e9ccebb,.a8cc0c20-e204-4817-9ef7-0770354a7349,.ad6c5335-7b43-4248-9042-c7f600947be7,.b8f3a1be-4acd-4c65-afc5-db673d06fb09,.f2badcd7-5130-44f4-aa7e-498b6360d4f7,.f421ddce-fdd2-4310-a743-68fbfe9a5a5b,.f91988e8-52e0-4bde-8281-ad74e6a3bf80{stroke-width:0.5px;}.ff64eb6a-b324-4dca-a193-8ea009a40957{fill:#443840;}.ad6c5335-7b43-4248-9042-c7f600947be7,.b7eb3deb-9236-4154-b019-a39a06194c13,.ff64eb6a-b324-4dca-a193-8ea009a40957{stroke:#090000;}.b7eb3deb-9236-4154-b019-a39a06194c13,.ff64eb6a-b324-4dca-a193-8ea009a40957{stroke-width:0.75px;}.ad6c5335-7b43-4248-9042-c7f600947be7{fill:#6b0c05;}.b5a69de7-995c-43f5-8c7f-fbaa49e8f636{fill:#86382f;}.b7eb3deb-9236-4154-b019-a39a06194c13{fill:#8b8b8b;}.bff78c10-65dc-44a7-9421-4257e2485349{stroke:#373737;}.e1637b87-10b0-4698-a0c9-402f6bc7069b{fill:#e50308;}.f2badcd7-5130-44f4-aa7e-498b6360d4f7{fill:#bf0000;}.a4aa6f65-c62a-4cc7-aebe-fe4c0e9ccebb{fill:#dc6e05;}.f2c57c06-c573-46ae-95aa-df075dfa892c{fill:#fc363a;}.a8cc0c20-e204-4817-9ef7-0770354a7349{fill:#12e600;}.a0b6e5fb-e5e6-4034-8206-31e3953ebef5{fill:#0b47ce;}.f9436f55-2c2f-4923-9eeb-f0aec92e3998{fill:#fff;}.a316b4dc-50b7-4f4c-93f0-e883d94d5178,.f91988e8-52e0-4bde-8281-ad74e6a3bf80{fill:#282826;}.fc924c46-8350-4e87-8bcc-a136479c2e2e{fill:#151312;}.a077bdd1-f226-49b9-aebc-8a454e320393{fill:#555353;}.adcdb41e-4ab0-43ce-81f3-293e1b29ebed{fill:#008aa6;}.edd73818-78fa-4633-8954-d085cd335f2d{fill:#ae7a82;}.a578bafc-223c-450e-b955-9c3a572e38c1{fill:url(#bfa118fb-8f80-4cf3-b861-b048a157cc3d);}.b72066a5-e4e0-4a08-9909-59ee21a76b8e{fill:url(#a6a8de6b-6f92-4e1a-a4e0-a50d21e7b1c8);}.ae5b38b3-ec95-4809-a024-be80b8f96b00{fill:#0000ef;}.a6f8d3bf-1006-4340-81f5-8d4f97654ee8{fill:url(#bf988957-8a6b-4245-a244-f761c0f3ca69);}.b31144eb-1629-4967-b464-d652dbbb7a90{fill:url(#a3344e56-0168-40a2-a32e-7b1ba744d994);}.adfcbdea-8500-4afc-a419-8d9c7af6e439{fill:url(#b60b30ca-d1da-494f-9801-43f831182714);}.bce80f7c-a4e3-4cb3-9534-8898d54bc878{fill:url(#f18cfd0a-3b34-4bcd-9d04-ca2c1d41c07b);}.e61489c5-e2d8-4d3f-bc6c-91b66170c929{fill:url(#b711d722-d64d-4cb5-be2d-fa506bc75187);}.a105f20a-a416-4094-9662-13e86ce0dc45{fill:url(#bb7671b3-e340-4176-b52b-383ba2396661);}.fc3f5b07-5054-4b90-8b1e-f2a9b4247ea0{fill:#930303;}.f3fad693-079f-438c-9a32-e3719ef9f75b{fill:url(#ed5d933c-27e6-42bb-8359-0fd5983b4f97);}.b32c62ed-e285-4454-b5d4-d2a642fe3996{fill:url(#ad2c8cb3-60f2-40b6-9843-ce08be1e45f0);}.ade8879f-fd17-467f-842b-45cecc725a2e{fill:url(#fbec3ba3-c189-44ce-bcc9-b98495dd7924);}.b9f2aa73-ee03-4533-833b-15ee7245030a{fill:url(#a023cff5-88c3-48b6-b1f1-4f7b1ca1e2bc);}.f319711f-d186-4473-bbe1-b4cd6064ff5c{fill:url(#babaaafb-fccb-4979-9958-e07dd9576878);}.bf4db84b-1819-43b6-9ddc-9c48f4154216{fill:url(#f6f25584-cf5f-4d02-b13b-aaa4892b9c8a);}.af3ae4af-0d32-4518-af49-d3087f9b2cb1{fill:#e7e7e7;}.e9298b04-3709-415d-a339-ad81948f77f4{fill:#2c2b29;}.b8941680-5994-4b25-81de-af4be1025b1d{fill:#2785db;}.a2395db2-52e0-4348-a8ca-54d04e2db1ff{fill:#44c047;}.b288dc71-9ac1-400a-b099-06b088700cff{fill:#eb1416;}.bf3b7eb9-e270-48f0-8815-379ec77b02fa,.ff51645e-9d64-4082-8f90-d7024c635456{fill:#f91b20;}.bf3b7eb9-e270-48f0-8815-379ec77b02fa{stroke:#fff;}</style><radialGradient id="bfa118fb-8f80-4cf3-b861-b048a157cc3d" cx="65.88" cy="348.77" r="11.47" gradientUnits="userSpaceOnUse"><stop offset="0" stop-color="#fd6d66"/><stop offset="0.78" stop-color="#b50a03"/></radialGradient><radialGradient id="a6a8de6b-6f92-4e1a-a4e0-a50d21e7b1c8" cx="195.83" cy="370.99" r="11.47" xlink:href="#bfa118fb-8f80-4cf3-b861-b048a157cc3d"/><radialGradient id="bf988957-8a6b-4245-a244-f761c0f3ca69" cx="92.36" cy="393.88" r="5.66" gradientTransform="translate(0 157.55) scale(1 0.6)" gradientUnits="userSpaceOnUse"><stop offset="0" stop-color="#0000ef"/><stop offset="0.15" stop-color="#0000e9"/><stop offset="0.34" stop-color="#0101d9"/><stop offset="0.56" stop-color="#0101be"/><stop offset="0.79" stop-color="#02029a"/><stop offset="1" stop-color="#020282"/></radialGradient><radialGradient id="a3344e56-0168-40a2-a32e-7b1ba744d994" cx="114.61" cy="393.88" r="5.66" xlink:href="#bf988957-8a6b-4245-a244-f761c0f3ca69"/><radialGradient id="b60b30ca-d1da-494f-9801-43f831182714" cx="133.17" cy="400.04" r="5.66" gradientTransform="translate(0 160.02) scale(1 0.6)" xlink:href="#bf988957-8a6b-4245-a244-f761c0f3ca69"/><radialGradient id="f18cfd0a-3b34-4bcd-9d04-ca2c1d41c07b" cx="139.21" cy="387.78" r="5.66" gradientTransform="translate(0 155.11) scale(1 0.6)" xlink:href="#bf988957-8a6b-4245-a244-f761c0f3ca69"/><radialGradient id="b711d722-d64d-4cb5-be2d-fa506bc75187" cx="121.61" cy="382.1" r="5.66" gradientTransform="translate(0 152.84) scale(1 0.6)" xlink:href="#bf988957-8a6b-4245-a244-f761c0f3ca69"/><radialGradient id="bb7671b3-e340-4176-b52b-383ba2396661" cx="100.32" cy="382.53" r="5.66" gradientTransform="translate(0 153.01) scale(1 0.6)" xlink:href="#bf988957-8a6b-4245-a244-f761c0f3ca69"/><radialGradient id="ed5d933c-27e6-42bb-8359-0fd5983b4f97" cx="225.51" cy="404.67" r="5.66" xlink:href="#bfa118fb-8f80-4cf3-b861-b048a157cc3d"/><radialGradient id="ad2c8cb3-60f2-40b6-9843-ce08be1e45f0" cx="246.79" cy="404.24" r="5.66" xlink:href="#bfa118fb-8f80-4cf3-b861-b048a157cc3d"/><radialGradient id="fbec3ba3-c189-44ce-bcc9-b98495dd7924" cx="264.4" cy="409.93" r="5.66" xlink:href="#bfa118fb-8f80-4cf3-b861-b048a157cc3d"/><radialGradient id="a023cff5-88c3-48b6-b1f1-4f7b1ca1e2bc" cx="258.36" cy="422.19" r="5.66" xlink:href="#bfa118fb-8f80-4cf3-b861-b048a157cc3d"/><radialGradient id="babaaafb-fccb-4979-9958-e07dd9576878" cx="239.79" cy="416.02" r="5.66" xlink:href="#bfa118fb-8f80-4cf3-b861-b048a157cc3d"/><radialGradient id="f6f25584-cf5f-4d02-b13b-aaa4892b9c8a" cx="217.55" cy="416.02" r="5.66" xlink:href="#bfa118fb-8f80-4cf3-b861-b048a157cc3d"/></defs><g id="b6826576-d26a-40b4-970a-333fda65fb98" data-name="Calque 1"><polygon id="a5af15b4-fe57-4f7a-943a-1a5cdeba5870" data-name="ombre" class="a1446669-faa5-4d56-9aa9-11dc93261801" points="452.03 588.79 473.54 582.88 481.45 582.88 485.41 582.88 486.99 585.84 724.35 629.14 735.43 629.14 746.5 660.53 700.09 698.24 653.67 711.43 645.49 710.11 645.76 708.26 631.78 705.63 548.18 733.58 474.86 785.15 452.03 791.97 444.26 790.81 444.26 788.18 428.18 785.15 298.19 819.52 452.03 588.79"/><g id="b8bde50f-f553-4b04-b81d-21c93609aaef" data-name="bottom"><polygon class="b9635e93-767c-46d8-87d2-4ec9168c61d0" points="36 454.56 260.9 494.18 260.9 498.53 286.62 504.66 286.22 816 37.98 768.73 36 454.56"/><path class="b8f3a1be-4acd-4c65-afc5-db673d06fb09" d="M202,526.54,123.62,512.8c-3,.19-4.26,3.56-4.26,3.56l.2,85c.69,2.18,3.86,5,3.86,5l74.27,13.46c5.14.49,7.52-5.25,7.52-5.25V531.88A7.12,7.12,0,0,0,202,526.54ZM152.1,549.09l-18.69-3.46v-20l2.27-1.88,18.1,3.07L152,529.51Zm31.45,6.13-18.69-3.46v-20l2.27-1.87,18.1,3.06-1.78,2.67Z" transform="translate(-0.98 -0.52)"/><polygon class="ff64eb6a-b324-4dca-a193-8ea009a40957" points="134.7 523.25 132.43 525.13 132.43 545.11 151.12 548.57 151.02 528.99 152.8 526.32 134.7 523.25"/><polygon class="ff64eb6a-b324-4dca-a193-8ea009a40957" points="166.15 529.38 163.88 531.26 163.88 551.24 182.57 554.7 182.47 535.12 184.25 532.45 166.15 529.38"/><polygon class="ad6c5335-7b43-4248-9042-c7f600947be7" points="140.14 543.03 140.14 530.18 148.15 531.96 148.15 544.52 140.14 543.03"/><polygon class="ad6c5335-7b43-4248-9042-c7f600947be7" points="171.2 548.87 171.2 536.01 179.21 537.79 179.21 550.35 171.2 548.87"/><polygon points="135.23 543.16 135.23 527.93 137.28 528.33 137.28 543.49 135.23 543.16"/><polygon points="166.68 548.7 166.68 533.47 168.72 533.87 168.72 549.03 166.68 548.7"/><polygon class="b5a69de7-995c-43f5-8c7f-fbaa49e8f636" points="140.4 530.69 140.4 530.34 147.87 532.14 147.88 532.57 140.4 530.69"/><polygon class="b5a69de7-995c-43f5-8c7f-fbaa49e8f636" points="171.46 536.62 171.46 536.33 178.93 537.97 178.94 538.32 171.46 536.62"/><circle class="b7eb3deb-9236-4154-b019-a39a06194c13" cx="192.4" cy="574.85" r="4.25"/><polygon class="bff78c10-65dc-44a7-9421-4257e2485349" points="136.29 598.71 136.29 587.44 148.25 589.62 148.25 600.92 136.29 598.71"/><polygon class="bff78c10-65dc-44a7-9421-4257e2485349" points="167.54 604.25 167.54 592.98 179.5 595.15 179.5 606.03 167.54 604.25"/></g><g id="b192e1e4-de3a-458e-a675-9c18c001265c" data-name="t molding"><path class="e1637b87-10b0-4698-a0c9-402f6bc7069b" d="M11.46,450.59l-.79-39.76L1,407.66v45.1l27.89,5.54c.59,103.55,1,207.6,1.58,311.15A6.18,6.18,0,0,0,34,771.64a12.58,12.58,0,0,0,5,0L37,455.08Z" transform="translate(-0.98 -0.52)"/><path class="e1637b87-10b0-4698-a0c9-402f6bc7069b" d="M272.36,497V455.73l-10.28-1.19-.2,44.51,25.71,6.13s-1.51,313.85,0,315.69,8.77,1.32,8.77,1.32l.93-319.91Z" transform="translate(-0.98 -0.52)"/><polygon class="e1637b87-10b0-4698-a0c9-402f6bc7069b" points="78.72 346.42 70.57 345.12 86.83 126.56 95.87 128.06 78.72 346.42"/><polygon class="e1637b87-10b0-4698-a0c9-402f6bc7069b" points="329.24 388.85 338.34 390.13 356.83 165.82 330.46 165.82 330.2 74.9 320.14 73.06 320.14 167.9 326.18 168.99 346.45 168.99 329.24 388.85"/><path class="e1637b87-10b0-4698-a0c9-402f6bc7069b" d="M88.49,127.19s-28.17-.35-29.11-.85c0-31.21.06-62.83,0-94l9.36,2.64L69.22,124Z" transform="translate(-0.98 -0.52)"/><g id="b81ada6e-a070-4c34-8f55-da1f68866a7b" data-name="clair"><polygon class="e1637b87-10b0-4698-a0c9-402f6bc7069b" points="0 407.14 9.69 410.31 78 346.25 69.89 344.31 0 407.14"/><polygon class="e1637b87-10b0-4698-a0c9-402f6bc7069b" points="261.1 454.02 271.38 455.21 338.34 389.34 329.72 387.74 261.1 454.02"/><polygon class="e1637b87-10b0-4698-a0c9-402f6bc7069b" points="111.56 0 58.42 31.78 67.78 34.42 120.36 3.3 123.1 1.68 120.53 1.32 111.56 0"/><polygon class="e1637b87-10b0-4698-a0c9-402f6bc7069b" points="383.74 40.62 372.53 39.82 320.14 73.06 330.2 74.9 383.74 40.62"/></g></g><g id="b1beb459-2626-45ca-831e-85cf71ffc9fa" data-name="side"><polygon class="b8f3a1be-4acd-4c65-afc5-db673d06fb09" points="453.13 308.64 453.76 149.01 383.74 40.62 330.2 74.9 330.46 165.82 356.83 165.82 338.34 390.13 271.38 455.21 271.38 496.48 296.31 501.76 295.38 821.67 303.63 815.35 453.28 271.65 453.07 293.16 310.97 809.71 309.36 810.95 316.3 805.63 453.13 308.64 453.13 308.64"/><polygon class="b8f3a1be-4acd-4c65-afc5-db673d06fb09" points="324.06 799.15 316.3 805.63 328.29 796.43 452.99 343.19 453.04 331.06 324.06 799.15"/><polygon class="b8f3a1be-4acd-4c65-afc5-db673d06fb09" points="335.43 790.95 334.11 791.97 340.98 786.7 452.77 379.06 452.77 400.31 452.99 343.19 452.77 367.19 335.43 790.95"/><polygon class="b8f3a1be-4acd-4c65-afc5-db673d06fb09" points="343 785.15 451.58 701.87 452.76 402.02 347.4 781.78 343 785.15"/><polygon class="f2badcd7-5130-44f4-aa7e-498b6360d4f7" points="303.63 815.35 309.36 810.95 303.63 815.35 303.63 815.35"/><polygon class="e1637b87-10b0-4698-a0c9-402f6bc7069b" points="453.07 293.16 453.28 271.65 303.63 815.35 309.36 810.95 310.97 809.71 453.07 293.16"/><polygon class="a4aa6f65-c62a-4cc7-aebe-fe4c0e9ccebb" points="453.13 330.74 453.13 308.64 453.04 331.06 453.13 330.74"/><polygon class="a4aa6f65-c62a-4cc7-aebe-fe4c0e9ccebb" points="316.3 805.63 316.3 805.63 316.3 805.63 316.3 805.63"/><polygon class="f2c57c06-c573-46ae-95aa-df075dfa892c" points="453.04 331.06 453.13 308.64 453.13 308.64 316.3 805.63 316.3 805.63 324.06 799.15 453.04 331.06"/><polygon class="a8cc0c20-e204-4817-9ef7-0770354a7349" points="452.99 343.19 452.99 343.19 452.99 343.19 452.99 343.19"/><polygon class="a8cc0c20-e204-4817-9ef7-0770354a7349" points="328.29 796.43 334.11 791.97 328.29 796.43 328.29 796.43"/><polygon points="334.11 791.97 335.43 790.95 452.77 367.19 452.99 343.19 452.99 343.19 328.29 796.43 334.11 791.97"/><polygon class="a0b6e5fb-e5e6-4034-8206-31e3953ebef5" points="340.98 786.7 343 785.15 340.98 786.7 340.98 786.7"/><polygon class="a0b6e5fb-e5e6-4034-8206-31e3953ebef5" points="452.77 402 452.77 400.31 452.76 402.02 452.77 402"/><polygon class="f9436f55-2c2f-4923-9eeb-f0aec92e3998" points="340.98 786.7 343 785.15 347.4 781.78 452.76 402.02 452.77 400.31 452.77 379.06 340.98 786.7"/></g><g id="bf780fe0-e356-4ea7-99d1-3aee11a0f802" data-name="panel"><polygon class="f91988e8-52e0-4bde-8281-ad74e6a3bf80" points="10.48 450.07 260.9 494.18 261.1 454.02 9.69 410.31 10.48 450.07"/><polygon class="b9635e93-767c-46d8-87d2-4ec9168c61d0" points="79.37 345.21 9.69 410.31 261.1 454.02 329.72 387.74 79.37 345.21"/></g><g id="f072c9a9-2c7d-4f3f-8a85-95fb135fca29" data-name="ecran"><path class="f91988e8-52e0-4bde-8281-ad74e6a3bf80" d="M96.84,129.36,79.7,347.72l250.52,42.43L347.82,168Zm224.28,67.76c0,.2-.29.32-.48.49L310.21,342.44a35.43,35.43,0,0,1-4.3,3.78l1.4.29v10.7s-1.4,4.75-11.08,2.64c-11.19-2.44-178.55-31.91-178.55-31.91l8.72-6.78v-1.39s-2.46.52-6-7l-12.48,2.77h-4l11.34-158.77s4-6.85,10.81-6.59,191.16,30.59,191.16,30.59S323.4,181.84,321.12,197.12Z" transform="translate(-0.98 -0.52)"/><path class="fc924c46-8350-4e87-8bcc-a136479c2e2e" d="M317.28,180S133,149.66,126.12,149.4,115.31,156,115.31,156L103.57,316.08h4.35l12.29-2.68c-.1-.23-.74-1.57-.85-1.8L131,166.54s2.11-5.54,7.12-7.38l177.49,27.16a20.77,20.77,0,0,1,5.11,9.76l-.05.75c.19-.17.62.66.66.47C324.56,183.24,317.28,180,317.28,180Z" transform="translate(-0.98 -0.52)"/><path class="a077bdd1-f226-49b9-aebc-8a454e320393" d="M125.32,320l-8.56,8s164.63,29.3,178.61,32.24c10.36,2.17,14.43-3.58,14.43-3.58l.61-7.37.39-7.71-4.89,3.84a20.85,20.85,0,0,1-7.73,3.87Z" transform="translate(-0.98 -0.52)"/><path class="adcdb41e-4ab0-43ce-81f3-293e1b29ebed" d="M319.5,197.81c.45-.36.83-.69,1.14-1l.66-.52a20.31,20.31,0,0,0-5.72-10L138.09,159.16c-5,1.84-7.12,7.38-7.12,7.38L119.36,311.6l.32.66c3.54,7.52,6.28,8,6.28,8l.44.08,171.78,28.93a20.85,20.85,0,0,0,7.73-3.87c2.57-1.91,4.89-3.84,4.89-3.84l10.5-145.29C320.86,196.73,320.25,197.23,319.5,197.81ZM143.83,302.35l0,0Z" transform="translate(-0.98 -0.52)"/></g><g id="a20c13f2-d682-4715-8414-78dbca1aec3a" data-name="top"><polygon id="f9e07236-8e1c-47de-822f-591f3e257286" data-name="marquee" class="f91988e8-52e0-4bde-8281-ad74e6a3bf80" points="68.24 123.84 319.71 162.87 320.14 73.4 67.78 34.76 68.24 123.84"/><polygon class="f421ddce-fdd2-4310-a743-68fbfe9a5a5b" points="128.84 2.64 123.1 1.68 67.78 34.42 320.14 73.06 372.53 39.82 128.84 2.64"/></g><g id="aff4df69-d303-4b45-ab2b-12b307075efd" data-name="stickp1"><path class="a316b4dc-50b7-4f4c-93f0-e883d94d5178" d="M68.92,377.27v5.16H62.4v-5.16c-5.06.64-8.77,2.7-8.77,5.16,0,3,5.38,5.35,12,5.35s12-2.39,12-5.35C77.69,380,74,377.91,68.92,377.27Z" transform="translate(-0.98 -0.52)"/><path class="edd73818-78fa-4633-8954-d085cd335f2d" d="M68.92,377.27V359.49a12.18,12.18,0,0,1-3,.39,12.4,12.4,0,0,1-3.48-.49v17.88a26.67,26.67,0,0,1,6.52,0Z" transform="translate(-0.98 -0.52)"/><path class="edd73818-78fa-4633-8954-d085cd335f2d" d="M68.92,382.43v-5.16a26.67,26.67,0,0,0-6.52,0v5.16Z" transform="translate(-0.98 -0.52)"/><path class="a578bafc-223c-450e-b955-9c3a572e38c1" d="M68.92,358.89v.6a11.24,11.24,0,0,0,8.77-10.72c0-6.14-5.29-11.11-11.81-11.11s-11.82,5-11.82,11.11a11.22,11.22,0,0,0,8.34,10.62v-.5Z" transform="translate(-0.98 -0.52)"/><path class="edd73818-78fa-4633-8954-d085cd335f2d" d="M68.92,359.49v-.6H62.4v.5a12.4,12.4,0,0,0,3.48.49A12.18,12.18,0,0,0,68.92,359.49Z" transform="translate(-0.98 -0.52)"/><path class="a578bafc-223c-450e-b955-9c3a572e38c1" d="M68.92,359.49v-.6H62.4v.5a12.4,12.4,0,0,0,3.48.49A12.18,12.18,0,0,0,68.92,359.49Z" transform="translate(-0.98 -0.52)"/></g><g id="a3b83a35-f2c0-4b48-b62c-711ed3d2682b" data-name="stickp2"><path class="a316b4dc-50b7-4f4c-93f0-e883d94d5178" d="M198.88,399.49v5.16h-6.53v-5.16c-5,.64-8.77,2.7-8.77,5.16,0,3,5.39,5.35,12,5.35s12-2.39,12-5.35C207.65,402.19,203.94,400.13,198.88,399.49Z" transform="translate(-0.98 -0.52)"/><path class="edd73818-78fa-4633-8954-d085cd335f2d" d="M198.88,399.49V381.71a12.2,12.2,0,0,1-3,.39,12.83,12.83,0,0,1-3.48-.49v17.88a26.75,26.75,0,0,1,6.53,0Z" transform="translate(-0.98 -0.52)"/><path class="edd73818-78fa-4633-8954-d085cd335f2d" d="M198.88,404.65v-5.16a26.75,26.75,0,0,0-6.53,0v5.16Z" transform="translate(-0.98 -0.52)"/><path class="b72066a5-e4e0-4a08-9909-59ee21a76b8e" d="M198.88,381.11v.6A11.24,11.24,0,0,0,207.65,371c0-6.14-5.29-11.11-11.82-11.11S184,364.85,184,371a11.22,11.22,0,0,0,8.34,10.62v-.5Z" transform="translate(-0.98 -0.52)"/><path class="edd73818-78fa-4633-8954-d085cd335f2d" d="M198.88,381.71v-.6h-6.53v.5a12.83,12.83,0,0,0,3.48.49A12.2,12.2,0,0,0,198.88,381.71Z" transform="translate(-0.98 -0.52)"/><path class="b72066a5-e4e0-4a08-9909-59ee21a76b8e" d="M198.88,381.71v-.6h-6.53v.5a12.83,12.83,0,0,0,3.48.49A12.2,12.2,0,0,0,198.88,381.71Z" transform="translate(-0.98 -0.52)"/></g><g id="b8a31ace-c88c-44af-ad2c-477626fa5ac9" data-name="boutons P1"><g id="a7ff316d-98d9-4c31-bd2a-0aa87226788f" data-name="4"><path class="ae5b38b3-ec95-4809-a024-be80b8f96b00" d="M92.54,389.14c-3.86,0-8.12,1.53-8.12,4.87,0,2.95,4.1,4.62,7.94,4.62,4.11,0,8-1.73,8-4.88C100.32,391.4,96.48,389.14,92.54,389.14Zm-.18,8.63c-3.86,0-7-1.74-7-3.89s3.13-3.89,7-3.89,7,1.74,7,3.89S96.22,397.77,92.36,397.77Z" transform="translate(-0.98 -0.52)"/><path class="a6f8d3bf-1006-4340-81f5-8d4f97654ee8" d="M92.36,390c-3.86,0-7,1.74-7,3.89s3.13,3.89,7,3.89,7-1.74,7-3.89S96.22,390,92.36,390Z" transform="translate(-0.98 -0.52)"/></g><g id="face6c8f-a062-415a-93b0-5702ca525a5e" data-name="5"><path class="ae5b38b3-ec95-4809-a024-be80b8f96b00" d="M114.79,389.14c-3.86,0-8.12,1.53-8.12,4.87,0,2.95,4.1,4.62,7.94,4.62,4.11,0,8-1.73,8-4.88C122.57,391.4,118.73,389.14,114.79,389.14Zm-.18,8.63c-3.86,0-7-1.74-7-3.89s3.13-3.89,7-3.89,7,1.74,7,3.89S118.47,397.77,114.61,397.77Z" transform="translate(-0.98 -0.52)"/><path class="b31144eb-1629-4967-b464-d652dbbb7a90" d="M114.61,390c-3.86,0-7,1.74-7,3.89s3.13,3.89,7,3.89,7-1.74,7-3.89S118.47,390,114.61,390Z" transform="translate(-0.98 -0.52)"/></g><g id="a925b203-c150-4369-945b-0d90d9c7fe52" data-name="6"><path class="ae5b38b3-ec95-4809-a024-be80b8f96b00" d="M133.35,395.3c-3.86,0-8.13,1.53-8.13,4.87,0,3,4.11,4.62,7.95,4.62,4.1,0,8-1.73,8-4.88C141.13,397.56,137.29,395.3,133.35,395.3Zm-.18,8.63c-3.86,0-7-1.74-7-3.89s3.13-3.89,7-3.89,7,1.74,7,3.89S137,403.93,133.17,403.93Z" transform="translate(-0.98 -0.52)"/><path class="adfcbdea-8500-4afc-a419-8d9c7af6e439" d="M133.17,396.15c-3.86,0-7,1.74-7,3.89s3.13,3.89,7,3.89,7-1.74,7-3.89S137,396.15,133.17,396.15Z" transform="translate(-0.98 -0.52)"/></g><g id="a8cdce0f-e699-4964-b355-b6fbc31f0d64" data-name="3"><path class="ae5b38b3-ec95-4809-a024-be80b8f96b00" d="M139.39,383c-3.86,0-8.13,1.53-8.13,4.88,0,2.95,4.11,4.61,8,4.61,4.1,0,8-1.73,8-4.88C147.17,385.3,143.33,383,139.39,383Zm-.18,8.63c-3.86,0-7-1.74-7-3.89s3.13-3.89,7-3.89,7,1.75,7,3.89S143.07,391.67,139.21,391.67Z" transform="translate(-0.98 -0.52)"/><path class="bce80f7c-a4e3-4cb3-9534-8898d54bc878" d="M139.21,383.89c-3.86,0-7,1.75-7,3.89s3.13,3.89,7,3.89,7-1.74,7-3.89S143.07,383.89,139.21,383.89Z" transform="translate(-0.98 -0.52)"/></g><g id="fe786460-3565-427f-978d-775759405806" data-name="2"><path class="ae5b38b3-ec95-4809-a024-be80b8f96b00" d="M121.79,377.35c-3.86,0-8.12,1.53-8.12,4.88,0,2.95,4.1,4.61,7.94,4.61,4.11,0,8-1.73,8-4.88C129.57,379.62,125.73,377.35,121.79,377.35Zm-.18,8.64c-3.86,0-7-1.74-7-3.89s3.13-3.89,7-3.89,7,1.74,7,3.89S125.47,386,121.61,386Z" transform="translate(-0.98 -0.52)"/><path class="e61489c5-e2d8-4d3f-bc6c-91b66170c929" d="M121.61,378.21c-3.86,0-7,1.74-7,3.89s3.13,3.89,7,3.89,7-1.74,7-3.89S125.47,378.21,121.61,378.21Z" transform="translate(-0.98 -0.52)"/></g><g id="a8483496-50ef-4cd7-8dee-4df4e2d0ae3b" data-name="1"><path class="ae5b38b3-ec95-4809-a024-be80b8f96b00" d="M100.5,377.78c-3.86,0-8.13,1.53-8.13,4.88,0,2.95,4.11,4.62,7.95,4.62,4.1,0,8-1.73,8-4.88C108.28,380.05,104.44,377.78,100.5,377.78Zm-.18,8.64c-3.86,0-7-1.74-7-3.89s3.13-3.89,7-3.89,7,1.74,7,3.89S104.18,386.42,100.32,386.42Z" transform="translate(-0.98 -0.52)"/><path class="a105f20a-a416-4094-9662-13e86ce0dc45" d="M100.32,378.64c-3.86,0-7,1.74-7,3.89s3.13,3.89,7,3.89,7-1.74,7-3.89S104.18,378.64,100.32,378.64Z" transform="translate(-0.98 -0.52)"/></g></g><g id="bdd9aa5d-390c-49a7-ab36-6ab8c18eab3d" data-name="boutons P2"><g id="b9dde990-2f32-40fd-b020-a505aebc01a2" data-name="1"><path class="fc3f5b07-5054-4b90-8b1e-f2a9b4247ea0" d="M225.69,399.93c-3.86,0-8.13,1.53-8.13,4.87,0,2.95,4.11,4.62,7.95,4.62,4.1,0,8-1.73,8-4.88C233.47,402.19,229.63,399.93,225.69,399.93Zm-.18,8.63c-3.86,0-7-1.74-7-3.89s3.13-3.89,7-3.89,7,1.74,7,3.89S229.37,408.56,225.51,408.56Z" transform="translate(-0.98 -0.52)"/><path class="f3fad693-079f-438c-9a32-e3719ef9f75b" d="M225.51,400.78c-3.86,0-7,1.74-7,3.89s3.13,3.89,7,3.89,7-1.74,7-3.89S229.37,400.78,225.51,400.78Z" transform="translate(-0.98 -0.52)"/></g><g id="a5c05a3d-86f4-41d9-9ce8-8339c73ec635" data-name="2"><path class="fc3f5b07-5054-4b90-8b1e-f2a9b4247ea0" d="M247,399.49c-3.86,0-8.13,1.54-8.13,4.88,0,2.95,4.11,4.62,7.95,4.62,4.1,0,8-1.73,8-4.88C254.75,401.76,250.91,399.49,247,399.49Zm-.18,8.64c-3.86,0-7-1.74-7-3.89s3.13-3.89,7-3.89,7,1.74,7,3.89S250.65,408.13,246.79,408.13Z" transform="translate(-0.98 -0.52)"/><path class="b32c62ed-e285-4454-b5d4-d2a642fe3996" d="M246.79,400.35c-3.86,0-7,1.74-7,3.89s3.13,3.89,7,3.89,7-1.74,7-3.89S250.65,400.35,246.79,400.35Z" transform="translate(-0.98 -0.52)"/></g><g id="b1063d3d-f4f3-4719-a5f4-ce4a0acf2e7f" data-name="3"><path class="fc3f5b07-5054-4b90-8b1e-f2a9b4247ea0" d="M264.58,405.18c-3.86,0-8.12,1.53-8.12,4.88,0,2.95,4.1,4.61,7.94,4.61,4.1,0,8-1.73,8-4.88C272.36,407.44,268.52,405.18,264.58,405.18Zm-.18,8.64c-3.86,0-7-1.75-7-3.89s3.13-3.89,7-3.89,7,1.74,7,3.89S268.26,413.82,264.4,413.82Z" transform="translate(-0.98 -0.52)"/><path class="ade8879f-fd17-467f-842b-45cecc725a2e" d="M264.4,406c-3.86,0-7,1.74-7,3.89s3.13,3.89,7,3.89,7-1.75,7-3.89S268.26,406,264.4,406Z" transform="translate(-0.98 -0.52)"/></g><g id="bae3f5a2-7df8-4c03-b356-e94dea1a4e87" data-name="4"><path class="fc3f5b07-5054-4b90-8b1e-f2a9b4247ea0" d="M258.54,417.44c-3.86,0-8.13,1.53-8.13,4.88,0,2.95,4.11,4.61,8,4.61,4.1,0,8-1.73,8-4.88C266.32,419.7,262.48,417.44,258.54,417.44Zm-.18,8.64c-3.86,0-7-1.75-7-3.89s3.13-3.89,7-3.89,7,1.74,7,3.89S262.22,426.08,258.36,426.08Z" transform="translate(-0.98 -0.52)"/><path class="b9f2aa73-ee03-4533-833b-15ee7245030a" d="M258.36,418.3c-3.86,0-7,1.74-7,3.89s3.13,3.89,7,3.89,7-1.75,7-3.89S262.22,418.3,258.36,418.3Z" transform="translate(-0.98 -0.52)"/></g><g id="bf04edef-0846-419e-84d4-20d6bc372dd0" data-name="5"><path class="fc3f5b07-5054-4b90-8b1e-f2a9b4247ea0" d="M240,411.28c-3.86,0-8.13,1.53-8.13,4.88,0,2.95,4.11,4.61,7.95,4.61,4.1,0,8-1.73,8-4.88C247.75,413.54,243.91,411.28,240,411.28Zm-.18,8.63c-3.86,0-7-1.74-7-3.89s3.13-3.89,7-3.89,7,1.75,7,3.89S243.65,419.91,239.79,419.91Z" transform="translate(-0.98 -0.52)"/><path class="f319711f-d186-4473-bbe1-b4cd6064ff5c" d="M239.79,412.13c-3.86,0-7,1.75-7,3.89s3.13,3.89,7,3.89,7-1.74,7-3.89S243.65,412.13,239.79,412.13Z" transform="translate(-0.98 -0.52)"/></g><g id="ef87aea0-6a70-4343-b523-82e6d1d90d83" data-name="6"><path class="fc3f5b07-5054-4b90-8b1e-f2a9b4247ea0" d="M217.73,411.28c-3.86,0-8.13,1.53-8.13,4.88,0,2.95,4.11,4.61,8,4.61,4.1,0,8-1.73,8-4.88C225.51,413.54,221.67,411.28,217.73,411.28Zm-.18,8.63c-3.86,0-7-1.74-7-3.89s3.13-3.89,7-3.89,7,1.75,7,3.89S221.41,419.91,217.55,419.91Z" transform="translate(-0.98 -0.52)"/><path class="bf4db84b-1819-43b6-9ddc-9c48f4154216" d="M217.55,412.13c-3.86,0-7,1.75-7,3.89s3.13,3.89,7,3.89,7-1.74,7-3.89S221.41,412.13,217.55,412.13Z" transform="translate(-0.98 -0.52)"/></g></g><path class="af3ae4af-0d32-4518-af49-d3087f9b2cb1" d="M228.57,237.19v.07l-5.92-1v-.08Z" transform="translate(-0.98 -0.52)"/><path class="af3ae4af-0d32-4518-af49-d3087f9b2cb1" d="M236.56,238.53a.13.13,0,0,0,0,.06l-5.72-1s0,0,0-.06Z" transform="translate(-0.98 -0.52)"/><path class="e9298b04-3709-415d-a339-ad81948f77f4" d="M210.17,273.38l-65.56-11c-.87-.14-.87-.14-.74-.92.25-1.54.47-3.08.75-4.61.78-4.31,1.48-8.63,2.22-12.95.09-.48.22-1,.29-1.44,0-.18.12-.23.31-.19l.75.13L267.5,262.38a16.13,16.13,0,0,1,4.69,1.42,11.54,11.54,0,0,1,5.67,5.9,8.36,8.36,0,0,1,.63,3.88c0,.38-.08.76-.15,1.14l-1.56,9.36c-.07.39-.13.42-.54.36l-40.11-6.72Zm14.68-7.7h0c-.4,2.35-.79,4.71-1.19,7.07,0,.23,0,.34.3.38,1,.15,1.95.32,2.93.49.51.09.51.09.59-.37q.69-4.22,1.4-8.43c0-.08,0-.21.12-.22s.13.1.17.17c1.69,3.14,3.43,6.26,5.06,9.42a2.38,2.38,0,0,0,3.55.6c.9-.94,1.91-1.79,2.87-2.68l4.89-4.53c.08-.07.15-.22.26-.17s0,.2,0,.31,0,.08,0,.12c-.47,2.79-.93,5.58-1.4,8.37,0,.25,0,.35.31.4,1,.16,2,.32,3.06.51.34.07.45,0,.49-.32q1.16-6.92,2.32-13.83a1.32,1.32,0,0,0-.25-1,2.34,2.34,0,0,0-3.26-.37l-2.16,2L236.79,271c-.25.23-.28.22-.45-.08-2.2-4.06-4.42-8.11-6.61-12.17a2.14,2.14,0,0,0-1.43-1.06A1.74,1.74,0,0,0,226,259Zm-4.51-.71h0c.38-2.31.76-4.61,1.16-6.92a1.32,1.32,0,0,0-.45-1.21,2.4,2.4,0,0,0-3.17,0c-2.39,2.24-4.82,4.43-7.24,6.63l-2.95,2.7c-.13.12-.23.25-.37,0l-3.44-6.31c-1.1-2-2.19-4-3.3-6a2.24,2.24,0,0,0-2.21-1,1.52,1.52,0,0,0-1.5,1.37q-1.16,6.86-2.3,13.71c0,.28.05.37.35.41,1,.15,2,.32,3,.5.44.07.45.08.51-.3.46-2.73.91-5.46,1.37-8.19,0-.13,0-.27.06-.4s0-.16.11-.17.1.08.13.14.18.34.28.51c1.63,3,3.29,6,4.88,9.07a2.34,2.34,0,0,0,3.35.6c.47-.47,1-.91,1.48-1.37l6.5-6c.06-.05.09-.14.19-.11s.07.14.06.22c-.14.81-.28,1.62-.41,2.44-.35,2.06-.69,4.13-1,6.2,0,.22,0,.32.29.36l3,.5c.44.07.45.07.52-.31Q219.75,268.44,220.34,265Zm33.15,5.67h0c-.38,2.28-.76,4.57-1.15,6.85-.06.31.06.41.38.45,1,.16,2,.32,3,.5.33.07.45,0,.5-.31.16-1,.35-2.08.51-3.12,0-.23.12-.33.4-.28l12.77,2.14c.33.05.39.18.34.45-.18,1-.34,2.08-.53,3.12-.05.25,0,.35.32.4,1,.15,2,.32,3,.49.45.07.46.07.53-.34q.61-3.66,1.22-7.32a6.88,6.88,0,0,0-2.51-6.52,12.61,12.61,0,0,0-6.36-3c-2.38-.41-4.76-.8-7.13-1.19-.72-.12-1.45-.26-2.17-.35a1.6,1.6,0,0,0-1.91,1.29C254.24,266.17,253.87,268.4,253.49,270.64Zm-62.24-10.42h0l1.14-6.79a1.24,1.24,0,0,0,0-.47,1.91,1.91,0,0,0-1.63-1.33c-1.55-.26-3.1-.53-4.65-.77-1.84-.3-3.66-.71-5.51-.87a11.55,11.55,0,0,0-7,1.39,6.55,6.55,0,0,0-3.37,4.67q-.63,3.74-1.25,7.47c-.07.4-.07.4.36.47,1,.17,2,.32,2.93.5.33.06.45,0,.5-.31.15-1,.34-2.06.5-3.09,0-.29.17-.35.48-.3l12.67,2.12c.34,0,.42.16.37.46-.19,1-.35,2.08-.54,3.11,0,.26,0,.36.32.4,1,.16,2,.32,3,.51.33.06.44,0,.49-.32C190.48,264.79,190.87,262.5,191.25,260.22Zm-38.3,1h0l6.47,1.08a7.76,7.76,0,0,0,2.76,0,3.93,3.93,0,0,0,3.34-2.92c.64-3.78,1.26-7.55,1.9-11.33.05-.27,0-.37-.33-.42-1-.15-2-.32-3-.5-.36-.07-.46,0-.51.33q-.92,5.58-1.86,11.15a1.08,1.08,0,0,1-1.24.95,4.41,4.41,0,0,1-.73-.08c-1-.18-2-.37-3.06-.54l-7-1.15c-.28-.05-.35-.15-.31-.38.11-.59.19-1.18.31-1.76.06-.28,0-.4-.35-.45-.84-.13-1.68-.26-2.52-.42-.34-.07-.44,0-.49.32-.24,1.49-.49,3-.74,4.45-.07.42-.07.42.42.5Z" transform="translate(-0.98 -0.52)"/><path class="e9298b04-3709-415d-a339-ad81948f77f4" d="M230.83,237.63l5.72,1c.15.09.15.2.13.35-.37,2.17-.73,4.34-1.11,6.51,0,.29,0,.38.34.43,3.09.5,6.18,1,9.27,1.54.32.05.34.16.31.44-.06.67-.23,1.33-.32,2-.22,1.55-.54,3.09-.8,4.63-.1.59-.17,1.19-.26,1.78,0,.2-.12.31-.4.26L228.57,254c-.65-.11-.65-.11-.56-.68q1.29-7.69,2.57-15.38C230.6,237.79,230.6,237.63,230.83,237.63Zm3.94,12.7h0c-.13.78-.25,1.56-.39,2.34-.05.27,0,.38.33.43,1.06.16,2.11.34,3.16.53.32.06.44,0,.49-.31.25-1.55.51-3.1.78-4.66,0-.24,0-.34-.31-.38q-1.62-.25-3.24-.54c-.28-.05-.39,0-.43.27C235,248.79,234.9,249.56,234.77,250.33Z" transform="translate(-0.98 -0.52)"/><path class="e9298b04-3709-415d-a339-ad81948f77f4" d="M255.63,249.17c2.55.43,5.09.86,7.64,1.27.34.06.42.17.37.47q-.7,4.14-1.39,8.3c-.07.37-.1.4-.52.33L246.38,257c-.27-.05-.34-.16-.3-.39q.72-4.21,1.41-8.43c0-.28.18-.33.47-.28,2.55.44,5.11.86,7.67,1.29Zm1.31,4.88h0c.14-.8.27-1.6.41-2.4,0-.23,0-.36-.3-.4l-3.44-.58c-.26,0-.38,0-.42.27l-.81,4.85c0,.25.05.36.33.41l3.37.56c.3.06.42,0,.46-.3C256.67,255.66,256.81,254.86,256.94,254.05Z" transform="translate(-0.98 -0.52)"/><path class="e9298b04-3709-415d-a339-ad81948f77f4" d="M173.53,244.78l-7.64-1.27c-.31,0-.37-.15-.33-.42q.72-4.2,1.42-8.42c0-.25.13-.32.4-.27L182.74,237c.41.07.43.11.37.49-.26,1.55-.53,3.11-.78,4.66,0,.31-.17.37-.5.32-3.07-.53-6.15-1-9.22-1.55-.46-.08-.46-.08-.52.32s-.11.7-.19,1,0,.35.31.4c2.06.33,4.11.68,6.17,1l3.16.53c.32.05.42.17.37.44s-.14.74-.19,1.11-.18.38-.51.32Zm.92-5.45h0c.56.1,1.13.18,1.69.29.25,0,.35,0,.38-.25,0-.39.12-.78.2-1.17,0-.21,0-.32-.26-.36l-3.41-.57c-.22,0-.33,0-.36.23q-.08.62-.18,1.23c0,.23.06.3.29.33C173.35,239.13,173.9,239.23,174.45,239.33Z" transform="translate(-0.98 -0.52)"/><path class="e9298b04-3709-415d-a339-ad81948f77f4" d="M211.28,241.75l7.64,1.28c.44.07.5.14.42.52-.43,2-.7,4-1.05,6-.14.74-.27,1.48-.37,2.23,0,.29-.15.37-.49.31-2.08-.36-4.17-.7-6.26-1l-9-1.51c-.42-.07-.43-.08-.37-.47.26-1.56.53-3.11.77-4.67,0-.32.18-.37.52-.31l9.16,1.54c.46.07.46.07.53-.33s.09-.67.17-1,0-.4-.36-.46c-2.34-.37-4.68-.77-7-1.16l-2.31-.38c-.24,0-.32-.12-.28-.34a10.85,10.85,0,0,0,.21-1.27c0-.27.16-.31.43-.26l5.37.9,2.27.38ZM210.13,249h0c.55.09,1.11.17,1.66.27.21,0,.33,0,.36-.21l.21-1.23c0-.19-.05-.29-.27-.33l-3.33-.56c-.24,0-.35,0-.38.24,0,.4-.11.79-.19,1.17-.05.23.05.33.29.37C209,248.79,209.58,248.89,210.13,249Z" transform="translate(-0.98 -0.52)"/><path class="e9298b04-3709-415d-a339-ad81948f77f4" d="M268.74,251.36c.87.15,1.74.31,2.62.44.31,0,.38.18.34.43-.08.4-.13.8-.21,1.2,0,.21,0,.3.27.34l3.36.56c.28,0,.38,0,.41-.27.06-.41.15-.82.2-1.23,0-.23.15-.27.37-.24l5.4.91c.21,0,.3.13.27.33-.08.43-.16.86-.22,1.29,0,.23-.16.29-.41.25-.44-.09-.89-.15-1.34-.24-.24,0-.33,0-.36.24-.05.4-.13.8-.19,1.2,0,.23-.15.3-.4.25-.47-.08-.94-.15-1.41-.24-.17,0-.24,0-.29.17-.13.44-.08.91-.25,1.34-.07.18.07.24.24.27l1.38.22c.28,0,.38.15.33.41s-.13.78-.21,1.17c0,.21.05.31.28.34l1.34.22c.25,0,.34.13.3.36-.09.42-.17.84-.22,1.27,0,.22-.15.27-.36.24l-.65-.11-4.62-.77c-.45-.08-.45-.08-.38-.49s.12-.76.19-1.14c.05-.21,0-.3-.27-.34l-3.44-.58c-.22,0-.29,0-.31.21-.06.4-.16.8-.19,1.21s-.19.37-.5.32l-4.72-.8c-1.16-.19-.93-.1-.8-1,0-.25.09-.49.12-.74s.16-.29.4-.25c.45.09.9.15,1.34.24.27.05.39,0,.42-.26s.14-.78.19-1.17.16-.31.41-.26c.46.09.92.15,1.37.24.21,0,.3,0,.32-.2.06-.43.13-.85.22-1.27,0-.21-.05-.28-.26-.31l-1.38-.23c-.24,0-.34-.12-.29-.36s.14-.78.21-1.17c0-.23,0-.35-.31-.38-.45-.06-.9-.15-1.35-.22-.25,0-.34-.14-.29-.37q.12-.63.21-1.26c0-.24.16-.29.4-.24Z" transform="translate(-0.98 -0.52)"/><path class="e9298b04-3709-415d-a339-ad81948f77f4" d="M222.64,236.28l5.92,1a.42.42,0,0,1,.05.36q-1.31,7.77-2.6,15.56c0,.28-.17.37-.48.31s-.88-.19-1.33-.26l-3.89-.62c-.46-.08-.45-.08-.39-.49q1.31-7.74,2.6-15.49C222.54,236.51,222.52,236.37,222.64,236.28Z" transform="translate(-0.98 -0.52)"/><path class="e9298b04-3709-415d-a339-ad81948f77f4" d="M191.71,247.82,184,246.54c-.3,0-.4-.14-.35-.43q.72-4.2,1.41-8.4c0-.26.15-.32.42-.27L200.87,240c.31.05.42.18.36.45s-.11.72-.19,1.08-.13.41-.55.34l-4.16-.7-5.06-.85c-.28,0-.37,0-.41.25-.22,1.39-.46,2.78-.69,4.17a2.74,2.74,0,0,1,0,.28c-.11.6-.11.6.58.72l8.92,1.49c.42.07.45.11.39.5s-.15.72-.18,1.08-.19.35-.48.3c-.56-.11-1.12-.2-1.68-.29Z" transform="translate(-0.98 -0.52)"/><path class="b8941680-5994-4b25-81de-af4be1025b1d" d="M291.07,282.1c-.25,1.47-.49,2.94-.74,4.41-.07.42-.07.42-.51.34l-4.27-.71c-.27,0-.37-.13-.3-.37s.07-.41.11-.62-.06-.27-.25-.29l-.49-.05c-.39-.06-.49,0-.51.37,0,.06,0,.12,0,.19,0,.43-.14.5-.63.42-1.39-.23-2.79-.47-4.19-.69-.32-.05-.4-.19-.36-.45.5-3,1-5.91,1.49-8.86.06-.36.14-.42.55-.33,2.95.58,5.92,1,8.87,1.52.52.09,1,.13,1.55.22s.47.1.4.52c-.24,1.46-.49,2.92-.73,4.38Zm-8.37-.17h0l1.58.27c.22,0,.32,0,.35-.22.1-.59.2-1.19.31-1.79,0-.21-.06-.3-.29-.34l-3.13-.52c-.21,0-.31,0-.35.22-.08.59-.18,1.19-.29,1.79,0,.21,0,.31.27.34Zm5.47-1.49h0c-.52-.08-1-.16-1.55-.26-.25-.05-.36,0-.39.24-.09.59-.19,1.19-.29,1.78-.05.23.05.29.28.33,1,.16,2,.33,3,.51.28.05.39,0,.43-.27.08-.56.17-1.13.28-1.69,0-.23,0-.35-.3-.39C289.15,280.61,288.66,280.52,288.17,280.44Z" transform="translate(-0.98 -0.52)"/><path class="a2395db2-52e0-4348-a8ca-54d04e2db1ff" d="M292.87,271.31c-.25,1.48-.5,3-.74,4.44-.07.38-.11.4-.52.34l-2.86-.48c-.41-.07-.49-.18-.43-.54.14-.85.28-1.71.43-2.56a.34.34,0,0,1,0-.1c.2-.63.12-.52.72-.43l1.48.25c.26,0,.4,0,.44-.25.09-.59.19-1.18.29-1.76,0-.21,0-.33-.3-.38l-8-1.34c-.26,0-.39.05-.42.28-.09.57-.19,1.14-.28,1.7,0,.23.05.36.31.41l3.06.52a.25.25,0,0,0,.33-.17,1.81,1.81,0,0,0,.12-.64c0-.19.11-.24.27-.29a.45.45,0,0,1,.2,0c.85.09.89.14.77.88-.21,1.26-.43,2.51-.63,3.77,0,.26-.17.34-.43.3l-5.43-.91c-.49-.08-.55-.15-.48-.58.49-3,1-5.91,1.48-8.87,0-.17.09-.23.28-.22s.55,0,.83.08l9.77,1.63c.55.09.55.1.47.6l-.72,4.32Z" transform="translate(-0.98 -0.52)"/><path class="b288dc71-9ac1-400a-b099-06b088700cff" d="M289.84,254.78c1.75.29,3.49.59,5.24.87.3,0,.4.13.35.42-.51,3-1,5.95-1.49,8.92-.05.3-.16.38-.49.32-1.4-.25-2.8-.48-4.2-.71-.36-.06-.42-.15-.36-.47,0-.12.06-.23.08-.34.08-.47.08-.47-.46-.56l-.21,0c-.5-.08-.51-.08-.54.39,0,.18-.1.34-.11.52s-.18.19-.35.16l-4.44-.74c-.23,0-.32-.15-.29-.35.17-1,.35-2,.51-3.06,0-.28.23-.27.45-.23l1.83.3c.8.15,1.61.24,2.4.44.25.06.44,0,.48-.27.07-.57.17-1.14.28-1.7.05-.27,0-.38-.34-.43-1.42-.22-2.83-.47-4.24-.7-.29,0-.4-.12-.35-.4.18-1,.33-2,.48-3,0-.26.15-.33.44-.28C286.28,254.19,288.06,254.48,289.84,254.78Zm1.49,6.43h0c.51.08,1,.16,1.54.26.22,0,.35,0,.39-.21.09-.61.19-1.22.3-1.82,0-.2,0-.32-.27-.35l-3.09-.52c-.22,0-.32,0-.35.21-.09.63-.2,1.25-.31,1.88,0,.18,0,.26.24.29Z" transform="translate(-0.98 -0.52)"/><path class="e9298b04-3709-415d-a339-ad81948f77f4" d="M156.94,232.66l7.54,1.26c.53.09.53.09.45.57s-.13.7-.17,1-.16.33-.44.28l-9.3-1.57c-.33-.05-.41,0-.45.3-.35,2.17-.72,4.33-1.07,6.49-.05.31-.2.36-.51.31l-5.19-.87c-.3,0-.4-.14-.35-.42q.72-4.19,1.4-8.39c.05-.31.19-.34.48-.29Z" transform="translate(-0.98 -0.52)"/><path class="af3ae4af-0d32-4518-af49-d3087f9b2cb1" d="M224.85,265.68,226,259a1.74,1.74,0,0,1,2.34-1.33,2.14,2.14,0,0,1,1.43,1.06c2.19,4.06,4.41,8.11,6.61,12.17.17.3.2.31.45.08l8.14-7.43,2.16-2a2.34,2.34,0,0,1,3.26.37,1.32,1.32,0,0,1,.25,1q-1.17,6.91-2.32,13.83c0,.29-.15.39-.49.32-1-.19-2-.35-3.06-.51-.3-.05-.36-.15-.31-.4.47-2.79.93-5.58,1.4-8.37,0,0,0-.08,0-.12s.11-.25,0-.31-.18.1-.26.17l-4.89,4.53c-1,.89-2,1.74-2.87,2.68a2.38,2.38,0,0,1-3.55-.6c-1.63-3.16-3.37-6.28-5.06-9.42,0-.07-.06-.19-.17-.17s-.11.14-.12.22q-.7,4.21-1.4,8.43c-.08.46-.08.46-.59.37-1-.17-1.95-.34-2.93-.49-.28,0-.34-.15-.3-.38.4-2.36.79-4.72,1.19-7.07Z" transform="translate(-0.98 -0.52)"/><path class="af3ae4af-0d32-4518-af49-d3087f9b2cb1" d="M220.34,265q-.59,3.46-1.16,6.95c-.07.38-.08.38-.52.31l-3-.5c-.27,0-.32-.14-.29-.36.36-2.07.7-4.14,1-6.2.13-.82.27-1.63.41-2.44,0-.08.06-.18-.06-.22s-.13.06-.19.11l-6.5,6c-.5.46-1,.9-1.48,1.37a2.34,2.34,0,0,1-3.35-.6c-1.59-3-3.25-6.05-4.88-9.07-.1-.17-.19-.34-.28-.51s-.05-.14-.13-.14-.1.1-.11.17,0,.27-.06.4c-.46,2.73-.91,5.46-1.37,8.19-.06.38-.07.37-.51.3-1-.18-2-.35-3-.5-.3,0-.4-.13-.35-.41q1.16-6.86,2.3-13.71a1.52,1.52,0,0,1,1.5-1.37,2.24,2.24,0,0,1,2.21,1c1.11,2,2.2,4,3.3,6l3.44,6.31c.14.27.24.14.37,0l2.95-2.7c2.42-2.2,4.85-4.39,7.24-6.63a2.4,2.4,0,0,1,3.17,0,1.32,1.32,0,0,1,.45,1.21c-.4,2.31-.78,4.61-1.16,6.92Z" transform="translate(-0.98 -0.52)"/><path class="af3ae4af-0d32-4518-af49-d3087f9b2cb1" d="M253.49,270.64c.38-2.24.75-4.47,1.13-6.7a1.6,1.6,0,0,1,1.91-1.29c.72.09,1.45.23,2.17.35,2.37.39,4.75.78,7.13,1.19a12.61,12.61,0,0,1,6.36,3,6.88,6.88,0,0,1,2.51,6.52q-.6,3.66-1.22,7.32c-.07.41-.08.41-.53.34-1-.17-2-.34-3-.49-.29,0-.37-.15-.32-.4.19-1,.35-2.08.53-3.12.05-.27,0-.4-.34-.45l-12.77-2.14c-.28-.05-.36,0-.4.28-.16,1-.35,2.08-.51,3.12-.05.3-.17.38-.5.31-1-.18-2-.34-3-.5-.32,0-.44-.14-.38-.45.39-2.28.77-4.57,1.15-6.85ZM264,273l6.37,1.07c.3,0,.43,0,.46-.28s.08-.52.12-.78a4.27,4.27,0,0,0-1.54-4.2,8.48,8.48,0,0,0-4-1.85c-2.25-.43-4.52-.78-6.77-1.17-.34-.06-.36.12-.4.33q-.44,2.69-.9,5.37c0,.29,0,.4.36.46Z" transform="translate(-0.98 -0.52)"/><path class="af3ae4af-0d32-4518-af49-d3087f9b2cb1" d="M191.25,260.22c-.38,2.28-.77,4.57-1.14,6.85-.05.3-.16.38-.49.32-1-.19-2-.35-3-.51-.29,0-.36-.14-.32-.4.19-1,.35-2.08.54-3.11.05-.3,0-.41-.37-.46l-12.67-2.12c-.31-.05-.44,0-.48.3-.16,1-.35,2.05-.5,3.09,0,.3-.17.37-.5.31-1-.18-1.95-.33-2.93-.5-.43-.07-.43-.07-.36-.47q.62-3.74,1.25-7.47a6.55,6.55,0,0,1,3.37-4.67,11.55,11.55,0,0,1,7-1.39c1.85.16,3.67.57,5.51.87,1.55.24,3.1.51,4.65.77A1.91,1.91,0,0,1,192.4,253a1.24,1.24,0,0,1,0,.47l-1.14,6.79Zm-10.67-1.14h0c2.11.35,4.22.7,6.33,1.07.32.05.44,0,.48-.29.3-1.81.6-3.63.91-5.44,0-.26,0-.37-.33-.42q-3-.48-6-1a11.11,11.11,0,0,0-3.77,0,4.85,4.85,0,0,0-3.81,2.54,7.49,7.49,0,0,0-.52,2c-.07.4-.07.41.4.48Z" transform="translate(-0.98 -0.52)"/><path class="af3ae4af-0d32-4518-af49-d3087f9b2cb1" d="M153,261.25l-7-1.17c-.49-.08-.49-.08-.42-.5.25-1.48.5-3,.74-4.45.05-.28.15-.39.49-.32.84.16,1.68.29,2.52.42.31.05.41.17.35.45-.12.58-.2,1.17-.31,1.76,0,.23,0,.33.31.38l7,1.15c1,.17,2,.36,3.06.54a4.41,4.41,0,0,0,.73.08,1.08,1.08,0,0,0,1.24-.95q.94-5.58,1.86-11.15c0-.3.15-.4.51-.33,1,.18,2,.35,3,.5.3.05.38.15.33.42-.64,3.78-1.26,7.55-1.9,11.33a3.93,3.93,0,0,1-3.34,2.92,7.76,7.76,0,0,1-2.76,0L153,261.25Z" transform="translate(-0.98 -0.52)"/><path class="e9298b04-3709-415d-a339-ad81948f77f4" d="M264,273l-6.33-1c-.34-.06-.41-.17-.36-.46q.47-2.68.9-5.37c0-.21.06-.39.4-.33,2.25.39,4.52.74,6.77,1.17a8.48,8.48,0,0,1,4,1.85,4.27,4.27,0,0,1,1.54,4.2c0,.26-.1.52-.12.78s-.16.33-.46.28Z" transform="translate(-0.98 -0.52)"/><path class="e9298b04-3709-415d-a339-ad81948f77f4" d="M180.58,259.08l-6.3-1.06c-.47-.07-.47-.08-.4-.48a7.49,7.49,0,0,1,.52-2,4.85,4.85,0,0,1,3.81-2.54,11.11,11.11,0,0,1,3.77,0q3,.51,6,1c.31.05.38.16.33.42-.31,1.81-.61,3.63-.91,5.44,0,.29-.16.34-.48.29-2.11-.37-4.22-.72-6.33-1.07Z" transform="translate(-0.98 -0.52)"/></g><g id="bbbeaae6-b53e-426a-b0ba-c740b837ab9d" data-name="Calque 2"><g id="bfe3d982-4c58-4553-8bf0-16044d2320ff" data-name="Calque 1-2"><g id="ab68e38e-c0b9-4189-bb50-732f19b23163" data-name="layer1"><path id="ab024b62-de7a-4ad9-bdb8-f57296b2b294" data-name="rect4393" class="ff51645e-9d64-4082-8f90-d7024c635456" d="M267.2,76.61c-4.28-.67-7.92,2.9-8,7.81l-.14,15.83c0,4.9,3.51,9.58,7.79,10.25l25.1,3.92c4.28.67,7.93-2.89,8-7.79l.18-15.84c.06-4.91-3.5-9.6-7.8-10.27Zm1.76,10,21.33,3.32-.16,14.72-21.31-3.33Z" transform="translate(-0.98 -0.52)"/><path id="af78492d-4df0-46bf-a61a-417ea4ee49a4" data-name="rect4348" class="ff51645e-9d64-4082-8f90-d7024c635456" d="M78.71,47.94V81.29l9.65,1.51V59.13L106.64,62l0,23.68,9.46,1.48.05-24.24c0-4.9-3.57-9.57-7.82-10.24C108.2,52.53,78.71,47.94,78.71,47.94Z" transform="translate(-0.98 -0.52)"/><path id="a61d47be-f0cb-48a0-a152-4cb2d5221c7c" data-name="path4359" class="ff51645e-9d64-4082-8f90-d7024c635456" d="M122.62,54.77l0,8.8,26.33,4.1V70l-20.52-3.2c-4.26-.66-7.85,2.9-7.86,7.91v4c0,4.89,3.56,9.56,7.91,10.24l30,4.69.1-24.15c0-4.9-3.55-9.58-7.91-10.26l-28-4.47ZM130.31,76l18.48,2.88v4.79L130.3,80.8Z" transform="translate(-0.98 -0.52)"/><path id="aa2750b4-ecdb-4e12-918e-9a1dae885fe4" data-name="path4384" class="ff51645e-9d64-4082-8f90-d7024c635456" d="M164.47,61.29l-.14,33.39L174,96.2l.11-23.71,10,1.56L184,97.76l9.69,1.51.14-23.71L204,77.15l-.15,23.71,9.5,1.49.17-24.27c0-4.91-3.54-9.6-7.81-10.26C205.62,67.69,164.47,61.29,164.47,61.29Z" transform="translate(-0.98 -0.52)"/><path id="b4f2dcee-b78c-46b4-8524-8170b46c20e4" data-name="rect4389" class="ff51645e-9d64-4082-8f90-d7024c635456" d="M227.11,70.37c-4.28-.67-7.91,2.9-7.94,7.81L219.06,94c0,4.9,3.52,9.58,7.79,10.25l26.61,4.16.09-9.69-24.68-3.85L229,80.37l24.7,3.85.08-9.71Z" transform="translate(-0.98 -0.52)"/><path id="e9919a1d-2a34-4593-ab33-33e054ba9210" data-name="text4406" class="f9436f55-2c2f-4923-9eeb-f0aec92e3998" d="M306.58,83.07a5.36,5.36,0,0,1,3.3,2.08,6.48,6.48,0,0,1,1.32,4,5.23,5.23,0,0,1-1.41,3.59,3.83,3.83,0,0,1-3.33,1,5.36,5.36,0,0,1-3.3-2.08,6.46,6.46,0,0,1-1.32-4,5,5,0,0,1,1.41-3.58,3.79,3.79,0,0,1,3.33-1.05Zm-.11,9.83a3,3,0,0,0,2.74-.92A3.92,3.92,0,0,0,310.42,89a5.15,5.15,0,0,0-1.13-3.31A4.15,4.15,0,0,0,306.57,84a3,3,0,0,0-2.75.91,3.94,3.94,0,0,0-1.2,3,5.13,5.13,0,0,0,1.13,3.3,4.14,4.14,0,0,0,2.72,1.77Zm2.06-1.24-.87-.14-.38-1.29a1.58,1.58,0,0,0-1.35-1.33l-.59-.09,0,2.34-.78-.12.06-5.69,1.85.29c1.37.21,1.95.86,1.94,1.86S308,89,307.1,89a1.84,1.84,0,0,1,1,1.27C308.06,90.13,308.53,91.66,308.53,91.66ZM305.35,88l1,.15c.78.12,1.17-.15,1.18-.71s-.38-1-1.26-1.09l-1-.15,0,1.78Z" transform="translate(-0.98 -0.52)"/></g></g><path class="bf3b7eb9-e270-48f0-8815-379ec77b02fa" d="M82.57,113v-5.76l20.24,3.18v-4L88.93,104.3v-.12l-.58-.09c-.19,0-.29-.15-.38-.17a.36.36,0,0,1-.29-.15.38.38,0,0,1-.29-.16c-.1,0-.2-.14-.29-.16s-.19-.14-.29-.15-.19-.14-.29-.16-.19-.14-.29-.15-.19-.15-.29-.16-.19-.14-.29-.27-.19-.14-.29-.26-.19-.15-.29-.27-.19-.14-.28-.27l-.29-.38-.29-.37c-.1-.13-.29-.27-.48-.52h0L83,99l-.19-.81a.54.54,0,0,1-.19-.47v-5.1c0-.11.1-.21.1-.32s.09-.21.09-.32.1-.2.1-.31.1-.21.1-.32.09-.21.19-.3a.5.5,0,0,0,.19-.31c.1-.09.2-.19.2-.3a5.24,5.24,0,0,1,.38-.49h0L85.66,89l1-.3a.82.82,0,0,1,.48,0,1.28,1.28,0,0,1,.58,0h.1a4.64,4.64,0,0,0,.48,0l.29,0,.29.05h.1v-.11l20.75,3.25v5.77L89.32,94.49v4l13.89,2.18.09.13.48.07c.2,0,.29.16.39.17a.39.39,0,0,1,.29.16.38.38,0,0,1,.29.15,24968346650149.74,24968346650149.74,0,0,1,.58.32c.09,0,.19.14.29.15s.19.14.29.16.19.14.29.16.19.14.29.15.19.14.28.27.2.14.29.27.2.14.29.26.2.14.29.27l.29.38.29.38.29.37v.11l.77,1.57c.29.15.29.26.29.37a1.06,1.06,0,0,0,.09.46v.11l.1.13v4.54c0,.22-.1.32-.1.43a.43.43,0,0,1-.09.32.37.37,0,0,0-.1.31c0,.11-.1.21-.1.32a.46.46,0,0,1-.19.3c-.1.1-.1.21-.19.3s-.1.21-.2.31l-.29.28-.19.19h-.1L106.08,116l-.77.21c-.19.08-.29.06-.39.16s-.29,0-.38,0l-.1,0c-.19,0-.29.07-.39,0l-.28,0-.29-.05h-.1Z" transform="translate(-0.98 -0.52)"/><path class="bf3b7eb9-e270-48f0-8815-379ec77b02fa" d="M122,119.23l0-7.86-3.76-.59h0l-.58-.09c-.2,0-.29-.16-.39-.17a.39.39,0,0,1-.29-.16.41.41,0,0,1-.29-.16c-.09,0-.19-.14-.29-.15s-.19-.14-.29-.16-.19-.14-.29-.27-.19-.14-.28-.26-.2-.26-.29-.27-.2-.14-.29-.27-.2-.14-.29-.26l-.29-.38c-.1-.13-.19-.25-.29-.27l-.29-.38h0l-1.44-2.77a2.24,2.24,0,0,1-.19-.59c0-.11-.1-.23-.1-.35s-.1-.34-.09-.45v-.89h0V92.27l6.76,1.06,0,9.76,13.72,2.15,0-9.76,6.77,1.06,0,10.21-.1,0v.67c0,.22-.1.31-.1.43a.37.37,0,0,1-.1.31c0,.11-.09.21-.09.32s-.1.21-.1.32-.1.2-.2.3-.09.21-.19.3-.1.21-.19.31-.1.2-.2.3-.1.2-.19.3-.1.21-.2.3l-.29.29c-.09.1-.19.19-.19.3s-.1.21-.2.19h-.09l-2.32,1.41c-.2.08-.3.17-.39.16s-.2.08-.29.06a2.68,2.68,0,0,0-.48,0l-.29,0-.2,0h-.09l-.1,0-3.77-.59,0,7.87L122,119.12Z" transform="translate(-0.98 -0.52)"/><path class="bf3b7eb9-e270-48f0-8815-379ec77b02fa" d="M141,122.22v-5.76l20.39,3.2,0-4-13.92-2.19v-.11l-.58-.09c-.19,0-.29-.15-.38-.17a.38.38,0,0,1-.29-.16.36.36,0,0,1-.29-.15c-.1,0-.2-.14-.29-.16s-.2-.14-.29-.16-.2-.14-.29-.15-.2-.14-.29-.16-.19-.14-.29-.15-.19-.15-.29-.27-.19-.14-.29-.27-.19-.14-.29-.27-.19-.14-.29-.26l-.29-.38-.29-.38c-.09-.13-.28-.27-.48-.52h0l-.86-1.35-.19-.81a5.76,5.76,0,0,0-.1-.57v-.56l0-4a5.41,5.41,0,0,1,.09-.54c0-.11.1-.21.1-.32s.1-.2.1-.32.1-.2.1-.31.09-.21.1-.32.09-.21.19-.3A.5.5,0,0,0,142,100c.1-.09.2-.19.2-.3s.19-.3.39-.49h0l1.74-1,1-.29a.76.76,0,0,1,.48,0c.1,0,.2-.08.39-.05h.1c.19,0,.38,0,.48,0l.29,0,.29,0,.1,0v-.12l20.8,3.26,0,5.77-20.4-3.19,0,4,13.92,2.18.1.13.58.09c.19,0,.29.16.39.17a.41.41,0,0,1,.29.16.39.39,0,0,1,.29.15.45.45,0,0,1,.29.16.41.41,0,0,1,.29.16c.09,0,.19.14.29.15s.19.15.29.16.19.14.29.16.19.14.29.15.19.14.28.27.2.14.29.27.2.14.29.27.2.14.29.26l.29.38.29.38.29.38v.11l.76,1.56a1,1,0,0,1,.1.46,1.11,1.11,0,0,0,.09.46v.11l.1.13,0,4.54c0,.22-.1.32-.1.43a.4.4,0,0,1-.1.32.4.4,0,0,0-.1.31c0,.12-.09.21-.09.32s-.1.21-.2.3-.1.21-.19.31-.1.2-.2.3l-.29.29-.19.19-.1,0-1.94,1.36-.78.21c-.19.08-.29.07-.38.16s-.29,0-.39,0H163c-.19,0-.29.06-.38.05l-.29-.05-.29,0h0l-.1,0Z" transform="translate(-0.98 -0.52)"/><path class="bf3b7eb9-e270-48f0-8815-379ec77b02fa" d="M180.53,128.43l.09-17.64-10.26-1.61,0-7.88,27.41,4.29-.05,7.89-10.26-1.61-.1,17.63Z" transform="translate(-0.98 -0.52)"/><path class="bf3b7eb9-e270-48f0-8815-379ec77b02fa" d="M205.38,132.88a4,4,0,0,1-1.59-.69,5.49,5.49,0,0,1-.81-.63,18.62,18.62,0,0,1-1.62-1.77l-.64-1a8.27,8.27,0,0,1-1.48-5l0-.48c.05-1.09.11-10.47.26-11.29a6,6,0,0,1,.39-1.27,14.33,14.33,0,0,1,1.67-2.63l.31-.36a6.11,6.11,0,0,1,3.19-1.09c2,0,4.06.6,6.11.84,3.78.78,7.77.8,11.44,2.13.24.2.53.19.78.34a10.63,10.63,0,0,1,2.41,2.38v.11l1.34,2.77c.77,3.76.16,7.55.3,11.39L207,123.37l0,3.88,20.44,3.21,0,5.88L205.88,133Zm14.76-14,0-3.77L206.5,113l0,3.77Z" transform="translate(-0.98 -0.52)"/><path class="bf3b7eb9-e270-48f0-8815-379ec77b02fa" d="M229,136l.19-25.42,31.08,4.86v.12l.58.09c.2,0,.39.17.49.18a.41.41,0,0,1,.29.16c.09.13.19,0,.29.16a.36.36,0,0,0,.29.15c.09,0,.19.15.29.27s.19.14.29.27.19.14.29.27.19.14.29.27.19.14.28.26.2.26.29.27l.29.38c.1.13.29.27.48.52V119l1.44,2.9a3.89,3.89,0,0,0,.18.59c.1.12.1.23.1.46V124a.94.94,0,0,0,.19.58l-.17,17.66-6.89-1.09.16-18-8.54-1.34-.16,17.65-6.89-1.08.15-17.65-8.54-1.34-.14,17.65Z" transform="translate(-0.98 -0.52)"/><path class="bf3b7eb9-e270-48f0-8815-379ec77b02fa" d="M279.78,144l.11-10a4.91,4.91,0,0,1,.1-.54,4.91,4.91,0,0,0,.1-.54l.5-.92v-.11l.79-.88.09,0,2.94-1.55.1,0c.19-.08.39-.05.49-.15a4.64,4.64,0,0,1,.48,0l.3,0a.82.82,0,0,1,.48,0l.39.06.29,0,.3.05.39.06.38.06.3,0,.29,0,.39.06.39.07.29,0,.29.05.39.06.39.06.29,0,.29,0,.39.06.39.06.29.05.29,0,.39.06.39.07.29,0,.29,0,.39.06.39.06.29,0,.3.05.38.06.39.06.3,0,.29,0,.39.06.39.07.29,0,.29.05.39.06.39.06.29,0,.29,0,.39.06a.75.75,0,0,0,.49,0l0-3.78-20.62-3.23.06-5.9,20.82,3.26a3.37,3.37,0,0,1,.49.19l.29,0a.43.43,0,0,1,.29.16.79.79,0,0,1,.39.17.77.77,0,0,1,.39.18c.09,0,.19.14.29.15a.38.38,0,0,0,.29.16c.1,0,.19.14.39.17s.19.14.38.17.2.15.29.27.2.26.29.27a.6.6,0,0,0,.39.28,1.61,1.61,0,0,0,.39.4c.19.14.19.25.28.38s.29.27.49.52v.11l.77,1.57a2,2,0,0,1,.18.59v.33a.54.54,0,0,0,.09.35l0,4.33a1.26,1.26,0,0,0-.1.55.37.37,0,0,1-.1.31c0,.11-.1.21-.1.43s-.1.21-.2.42a.77.77,0,0,1-.2.3c-.1.1-.1.21-.2.3a1.25,1.25,0,0,0-.3.4.71.71,0,0,1-.39.39l-.1,0-1.86,1.15-.88.31c-.2.08-.39.05-.49.15s-.3.06-.49,0l-.39-.06a2.91,2.91,0,0,0-.49,0l-.29,0-.29-.05-.39-.06-.39-.06-.29,0-.29-.05-.39-.06-.39-.06-.29-.05-.29,0-.39-.06-.39-.06-.29-.05-.3,0-.39-.06-.38-.06-.3,0-.29,0-.39-.06-.39-.06-.29-.05-.29,0-.39-.06-.39-.07-.39-.06-.29,0-.29-.05-.39-.06-.39-.06-.29,0-.29,0-.39-.06-.39-.06-.29-.05-.29,0-.39-.07-.39-.06-.29,0-.29,0-.39-.06c-.2,0-.29,0-.39,0l0,3.78,20.52,3.22-.07,5.88-27.31-4.29Z" transform="translate(-0.98 -0.52)"/></g></svg>