<svg id="a6f361d2-70ec-4392-ad76-08d5c065c4b0" data-name="texte" xmlns="http://www.w3.org/2000/svg" xmlns:xlink="http://www.w3.org/1999/xlink" viewBox="0 0 470.33 67.41"><defs><style>.f6ea0a74-6899-4e5e-80ee-6cfb4b2b0fe5{stroke:#9def48;stroke-miterlimit:10;stroke-width:0.75px;fill:url(#bbd5e8fb-1ed7-42fb-bb52-3d86fe17dea1);}.ffd70bc2-717e-4e1e-a6b7-0a351cd15c7f{fill:#9def48;}</style><linearGradient id="bbd5e8fb-1ed7-42fb-bb52-3d86fe17dea1" x1="0.38" y1="33.7" x2="469.96" y2="33.7" gradientUnits="userSpaceOnUse"><stop offset="0" stop-color="#032c02"/><stop offset="1" stop-color="#207a09"/></linearGradient></defs><polygon class="f6ea0a74-6899-4e5e-80ee-6cfb4b2b0fe5" points="0.38 5.91 102.44 5.91 108.57 0.38 150.31 0.38 158.22 5.91 461.65 6.11 469.96 16 469.96 59.72 50.81 59.72 42.7 67.03 7.89 67.03 0.38 59.72 0.38 5.91"/><path class="ffd70bc2-717e-4e1e-a6b7-0a351cd15c7f" d="M72.9,32.23l1.32,1.45a13,13,0,0,1-3,8.75H54a12.15,12.15,0,0,1-2.63-5.21h3.13a13.19,13.19,0,0,0,1.06,2.31H69.65a12.4,12.4,0,0,0,1.57-4.41h-19l-1.32-1.44a13,13,0,0,1,3-8.75H71.2a12.21,12.21,0,0,1,2.63,5.21H70.7a13.12,13.12,0,0,0-1-2.31H55.52a12.38,12.38,0,0,0-1.58,4.4Z" transform="translate(-0.06 -0.03)"/><path class="ffd70bc2-717e-4e1e-a6b7-0a351cd15c7f" d="M80.79,42.43H77.88v-15l2.91-2.9Z" transform="translate(-0.06 -0.03)"/><path class="ffd70bc2-717e-4e1e-a6b7-0a351cd15c7f" d="M94.64,27.83H89a11.66,11.66,0,0,0-1.68,5.85A11.71,11.71,0,0,0,89,39.53H91v2.9H87.46a13,13,0,0,1-3-8.75,13,13,0,0,1,3-8.75h7.18V22.18h2.89v2.75h7.18a13,13,0,0,1,3,8.75,13,13,0,0,1-3,8.75h-3.49v-2.9h1.94a11.78,11.78,0,0,0,1.66-5.85,11.73,11.73,0,0,0-1.66-5.85H97.53V38.21H94.64Z" transform="translate(-0.06 -0.03)"/><path class="ffd70bc2-717e-4e1e-a6b7-0a351cd15c7f" d="M114.75,39.53h14.13a11.14,11.14,0,0,0,0-11.7h-1.94v-2.9h3.49a13,13,0,0,1,3,8.75,13,13,0,0,1-3,8.75H113.18a13,13,0,0,1-3-8.75,13,13,0,0,1,3-8.75h3.5v2.9h-1.93a11.66,11.66,0,0,0-1.68,5.85A11.66,11.66,0,0,0,114.75,39.53Z" transform="translate(-0.06 -0.03)"/><path class="ffd70bc2-717e-4e1e-a6b7-0a351cd15c7f" d="M139.4,39.53h13.16l1.68,2.9H136.5v-15l2.9-2.9Z" transform="translate(-0.06 -0.03)"/><path class="ffd70bc2-717e-4e1e-a6b7-0a351cd15c7f" d="M162.76,37.56l-3.07,4.87h-3.62l11.12-17.5h3.34l11,17.5H178l-3-4.87Zm10.4-2.89-4.28-6.85-4.3,6.85Z" transform="translate(-0.06 -0.03)"/><path class="ffd70bc2-717e-4e1e-a6b7-0a351cd15c7f" d="M190.31,40l-2.91,2.91v-15h-9.49v-2.9H199.8v2.9h-9.49Z" transform="translate(-0.06 -0.03)"/><path class="ffd70bc2-717e-4e1e-a6b7-0a351cd15c7f" d="M206.37,42.43h-2.9v-15l2.9-2.9Z" transform="translate(-0.06 -0.03)"/><path class="ffd70bc2-717e-4e1e-a6b7-0a351cd15c7f" d="M230.3,42.43H213.05a13,13,0,0,1-3-8.75,13,13,0,0,1,3-8.75H230.3a13,13,0,0,1,3,8.75A13,13,0,0,1,230.3,42.43Zm-1.55-2.9a11.89,11.89,0,0,0,1.66-5.85,11.83,11.83,0,0,0-1.66-5.85H214.61a11.74,11.74,0,0,0-1.67,5.85,11.8,11.8,0,0,0,1.67,5.85Z" transform="translate(-0.06 -0.03)"/><path class="ffd70bc2-717e-4e1e-a6b7-0a351cd15c7f" d="M240.33,27.83a11.74,11.74,0,0,0-1.67,5.85,11.8,11.8,0,0,0,1.67,5.85h1.93v2.9h-3.49a13,13,0,0,1-3-8.75,13,13,0,0,1,3-8.75H256a13,13,0,0,1,3,8.75,13,13,0,0,1-3,8.75h-3.49v-2.9h1.94a11.89,11.89,0,0,0,1.66-5.85,11.83,11.83,0,0,0-1.66-5.85Z" transform="translate(-0.06 -0.03)"/><path class="ffd70bc2-717e-4e1e-a6b7-0a351cd15c7f" d="M269.41,24.93H288.7a13,13,0,0,1,3,8.75,13,13,0,0,1-3,8.75H269.41Zm2.91,14.6h14.83a11.89,11.89,0,0,0,1.66-5.85,11.83,11.83,0,0,0-1.66-5.85H272.32Z" transform="translate(-0.06 -0.03)"/><path class="ffd70bc2-717e-4e1e-a6b7-0a351cd15c7f" d="M311.93,35.12H299.84a12.57,12.57,0,0,0,1.58,4.41H315.8l1.67,2.9H299.85a12.59,12.59,0,0,1-3-7.31h-2.75V32.23h2.75a12.53,12.53,0,0,1,3-7.3h17.62l-1.67,2.9H301.42a12.38,12.38,0,0,0-1.58,4.4h12.09Z" transform="translate(-0.06 -0.03)"/><path class="ffd70bc2-717e-4e1e-a6b7-0a351cd15c7f" d="M349.2,32.23l1.31,1.45a13,13,0,0,1-3,8.75H330.25a12.26,12.26,0,0,1-2.63-5.21h3.13a14,14,0,0,0,1.06,2.31H346a12.19,12.19,0,0,0,1.56-4.41h-19l-1.32-1.44a13,13,0,0,1,3-8.75H347.5a12.19,12.19,0,0,1,2.62,5.21H347A13.12,13.12,0,0,0,346,27.83H331.81a12.36,12.36,0,0,0-1.57,4.4Z" transform="translate(-0.06 -0.03)"/><path class="ffd70bc2-717e-4e1e-a6b7-0a351cd15c7f" d="M377.6,35.12h-19a12.57,12.57,0,0,0,1.58,4.41h1.93v2.9h-3.5a12.59,12.59,0,0,1-2.95-7.31H353V32.23h2.75a12.53,12.53,0,0,1,2.95-7.3H375.9a13,13,0,0,1,3,8.75Zm-19-2.89h17.27a12.53,12.53,0,0,0-1.56-4.4H360.22A12.38,12.38,0,0,0,358.64,32.23Z" transform="translate(-0.06 -0.03)"/><path class="ffd70bc2-717e-4e1e-a6b7-0a351cd15c7f" d="M401.56,42.43H384.32a13,13,0,0,1-3-8.75,12.92,12.92,0,0,1,3-8.75h17.24a13,13,0,0,1,3,8.75A13,13,0,0,1,401.56,42.43ZM400,39.53a11.78,11.78,0,0,0,1.66-5.85A11.73,11.73,0,0,0,400,27.83H385.88a11.66,11.66,0,0,0-1.68,5.85,11.71,11.71,0,0,0,1.68,5.85Z" transform="translate(-0.06 -0.03)"/><path class="ffd70bc2-717e-4e1e-a6b7-0a351cd15c7f" d="M426.48,39.53h1.94A12.71,12.71,0,0,0,430,35.12H412.71a12.54,12.54,0,0,0,1.57,4.41h1.93v2.9h-3.49a12.53,12.53,0,0,1-3-7.31H407V32.23h2.75a12.47,12.47,0,0,1,3-7.3H430a12.54,12.54,0,0,1,2.95,7.31l-1.25.71v1.46l1.25.71A12.59,12.59,0,0,1,430,42.43h-3.49Zm-13.77-7.3H430a12.53,12.53,0,0,0-1.56-4.4H414.28A12.36,12.36,0,0,0,412.71,32.23Z" transform="translate(-0.06 -0.03)"/><path class="ffd70bc2-717e-4e1e-a6b7-0a351cd15c7f" d="M447.16,40l-2.91,2.91v-15h-9.5v-2.9h21.9v2.9h-9.49Z" transform="translate(-0.06 -0.03)"/></svg>