<svg xmlns="http://www.w3.org/2000/svg" xmlns:xlink="http://www.w3.org/1999/xlink" viewBox="0 0 470.58 67.66"><defs><style>.ad18870e-f7f5-4807-8c16-cbfbf6cb23f2{stroke:#9def48;stroke-miterlimit:10;fill:url(#bd42911d-a154-4ede-ab3c-d3d39e24f507);}.fc4e9275-de4f-421d-a5a7-eeda9e0a3755{fill:#9def48;}.a4da252e-8d0e-4282-804e-a39533f35914{fill:#e60012;}.fce97965-c817-4fc3-bd2d-bc9280bf72a4{fill:#fff;}</style><linearGradient id="bd42911d-a154-4ede-ab3c-d3d39e24f507" x1="0.5" y1="33.83" x2="470.08" y2="33.83" gradientUnits="userSpaceOnUse"><stop offset="0" stop-color="#032c02"/><stop offset="1" stop-color="#207a09"/></linearGradient></defs><g id="eba4f737-81d9-4435-a901-416891f61072" data-name="calque3"><polygon class="ad18870e-f7f5-4807-8c16-cbfbf6cb23f2" points="0.5 6.04 102.57 6.04 108.7 0.5 150.44 0.5 158.35 6.04 461.77 6.24 470.08 16.13 470.08 59.84 50.94 59.84 42.83 67.16 8.02 67.16 0.5 59.84 0.5 6.04"/><path class="fc4e9275-de4f-421d-a5a7-eeda9e0a3755" d="M60,30.88H86.49l1.85,2a18.22,18.22,0,0,1-4.22,12.25H60a18.22,18.22,0,0,1-4.22-12.25A18.21,18.21,0,0,1,60,20.66H84.12A17.11,17.11,0,0,1,87.79,28H83.42A18.89,18.89,0,0,0,82,24.73H62.16A17.33,17.33,0,0,0,60,30.88Zm0,4.05a17.49,17.49,0,0,0,2.21,6.17H82a17.6,17.6,0,0,0,2.18-6.17Z"/><path class="fc4e9275-de4f-421d-a5a7-eeda9e0a3755" d="M113.53,24.73V20.66h4.89a17.59,17.59,0,0,1,4.13,10.22h3.85v4.05h-3.85a17.65,17.65,0,0,1-4.13,10.24h-4.89V41.1h2.7a17.46,17.46,0,0,0,2.2-6.17H93.6l-1.84-2A18.16,18.16,0,0,1,96,20.66h4.89v4.07H98.15A17.67,17.67,0,0,0,96,30.88h22.47a17.3,17.3,0,0,0-2.2-6.15Z"/><path class="fc4e9275-de4f-421d-a5a7-eeda9e0a3755" d="M140.92,20.66h27a18.21,18.21,0,0,1,4.22,12.26,18.22,18.22,0,0,1-4.22,12.25h-27ZM145,41.1h20.77a16.55,16.55,0,0,0,2.32-8.18,16.5,16.5,0,0,0-2.32-8.19H145Z"/><path class="fc4e9275-de4f-421d-a5a7-eeda9e0a3755" d="M176.42,20.66h27a18.16,18.16,0,0,1,4.22,12.26,18.17,18.17,0,0,1-4.22,12.25h-27Zm4.07,20.44h20.76a16.46,16.46,0,0,0,2.33-8.18,16.41,16.41,0,0,0-2.33-8.19H180.49Z"/></g><g id="a476cf93-45ca-4549-817d-eaafa2618b22" data-name="nintendo"><path class="a4da252e-8d0e-4282-804e-a39533f35914" d="M25.59,23.22A2.08,2.08,0,0,0,27.48,21a2.08,2.08,0,0,0-1.89-2.22A2.08,2.08,0,0,0,23.7,21,2.08,2.08,0,0,0,25.59,23.22Zm-.72-2.83H26.3c.53,0,.75.32.75.62s-.22.62-.75.62H24.87c-.53,0-.75-.32-.75-.62S24.34,20.39,24.87,20.39Z"/><path class="a4da252e-8d0e-4282-804e-a39533f35914" d="M23.8,26.07A1.82,1.82,0,0,0,25.56,28a1.77,1.77,0,0,0,1.66-1,1.84,1.84,0,0,0-.12-1.75h.19v-1.5H22.24v1.5H24.1A2,2,0,0,0,23.8,26.07ZM25,25.2h1.19a.6.6,0,1,1,0,1.19H25a.6.6,0,1,1,0-1.19Z"/><polygon class="fce97965-c817-4fc3-bd2d-bc9280bf72a4" points="39.17 19.26 39.17 19.26 39.17 19.26 39.17 19.26"/><polygon class="a4da252e-8d0e-4282-804e-a39533f35914" points="23.94 38.47 23.94 37.65 23.44 37.65 23.44 38.47 22.76 38.47 22.76 39.99 23.44 39.99 23.44 40.82 23.94 40.82 23.94 39.99 27.29 39.99 27.29 38.47 23.94 38.47"/><path class="a4da252e-8d0e-4282-804e-a39533f35914" d="M26.12,33.46V35h.2c.61,0,.75.41.75.63a.66.66,0,0,1-.75.64h-.69V33.37a2.27,2.27,0,0,0,0,4.48,2.08,2.08,0,0,0,1.88-2.24A2.21,2.21,0,0,0,26.12,33.46Zm-1,2.77a1.13,1.13,0,0,1-.65-.1.6.6,0,0,1-.31-.53h0a.6.6,0,0,1,.31-.53,1.22,1.22,0,0,1,.65-.1Z"/><rect class="a4da252e-8d0e-4282-804e-a39533f35914" x="23.93" y="46.09" width="3.36" height="1.52"/><path class="a4da252e-8d0e-4282-804e-a39533f35914" d="M25.08,30h2.21V28.48H25.46a1.64,1.64,0,0,0-1.68,1.72h0a1.84,1.84,0,0,0,.5,1.21h-.35v1.5h3.36v-1.5H25.08a.7.7,0,0,1-.61-.72A.67.67,0,0,1,25.08,30Z"/><path class="a4da252e-8d0e-4282-804e-a39533f35914" d="M24.78,14.57a5.39,5.39,0,0,0-5.37,5.69V52.42a5.37,5.37,0,1,0,10.73,0V20.26A5.38,5.38,0,0,0,24.78,14.57Zm4,37.83a4.06,4.06,0,1,1-8.09,0V20.27a4.06,4.06,0,1,1,8.09,0Z"/><path class="a4da252e-8d0e-4282-804e-a39533f35914" d="M25.08,42.33h2.21V40.82H25.46a1.64,1.64,0,0,0-1.68,1.72h0a1.84,1.84,0,0,0,.5,1.21h-.35v1.5h3.36v-1.5H25.08a.7.7,0,0,1-.61-.72A.67.67,0,0,1,25.08,42.33Z"/><rect class="a4da252e-8d0e-4282-804e-a39533f35914" x="22.24" y="46.09" width="1.03" height="1.52"/><polygon class="a4da252e-8d0e-4282-804e-a39533f35914" points="22.24 50.04 25.76 50.04 22.24 52.21 22.24 53.79 27.29 53.79 27.29 52.22 23.77 52.22 27.29 50.04 27.29 48.48 22.24 48.48 22.24 50.04"/></g></svg>