<svg id="af1de50c-37c8-4144-82cc-3bb30975a6f3" data-name="texte" xmlns="http://www.w3.org/2000/svg" xmlns:xlink="http://www.w3.org/1999/xlink" viewBox="0 0 470.33 67.41"><defs><style>.a1f4d0d4-a63f-4bcf-aa68-5914939059d4{stroke:#9def48;stroke-miterlimit:10;stroke-width:0.75px;fill:url(#f1c547f9-0c19-4d2f-a651-a9929549fcdb);}.a510b01f-5cca-4410-8642-0d3a75ab723d{fill:#9def48;}</style><linearGradient id="f1c547f9-0c19-4d2f-a651-a9929549fcdb" x1="0.38" y1="33.7" x2="469.96" y2="33.7" gradientUnits="userSpaceOnUse"><stop offset="0" stop-color="#032c02"/><stop offset="1" stop-color="#207a09"/></linearGradient></defs><polygon class="a1f4d0d4-a63f-4bcf-aa68-5914939059d4" points="0.38 5.91 102.44 5.91 108.57 0.38 150.31 0.38 158.22 5.91 461.65 6.11 469.96 16 469.96 59.72 50.81 59.72 42.7 67.03 7.89 67.03 0.38 59.72 0.38 5.91"/><path class="a510b01f-5cca-4410-8642-0d3a75ab723d" d="M65.87,24.68H58.23a15.94,15.94,0,0,0-2.27,8,16,16,0,0,0,2.27,8h2.63v3.95H56.11A17.67,17.67,0,0,1,52,32.63a17.62,17.62,0,0,1,4.1-11.9h9.76V17H69.8v3.73h9.77a17.67,17.67,0,0,1,4.1,11.9,17.72,17.72,0,0,1-4.1,11.91H74.82V40.59h2.64a16.08,16.08,0,0,0,2.25-8,16,16,0,0,0-2.25-8H69.8V38.79H65.87Z" transform="translate(-0.06 -0.03)"/><path class="a510b01f-5cca-4410-8642-0d3a75ab723d" d="M114.54,44.54H91.09A17.67,17.67,0,0,1,87,32.63a17.62,17.62,0,0,1,4.1-11.9h23.45a17.63,17.63,0,0,1,4.11,11.9A17.67,17.67,0,0,1,114.54,44.54Zm-2.1-3.95a16.08,16.08,0,0,0,2.25-8,16,16,0,0,0-2.25-8H93.21a15.94,15.94,0,0,0-2.27,8,16,16,0,0,0,2.27,8Z" transform="translate(-0.06 -0.03)"/><path class="a510b01f-5cca-4410-8642-0d3a75ab723d" d="M149.52,44.54H126.07A17.67,17.67,0,0,1,122,32.63a17.62,17.62,0,0,1,4.1-11.9h23.45a17.62,17.62,0,0,1,4.1,11.9A17.67,17.67,0,0,1,149.52,44.54Zm-2.1-3.95a16.08,16.08,0,0,0,2.25-8,16,16,0,0,0-2.25-8H128.19a15.84,15.84,0,0,0-2.27,8,15.9,15.9,0,0,0,2.27,8Z" transform="translate(-0.06 -0.03)"/><path class="a510b01f-5cca-4410-8642-0d3a75ab723d" d="M163.17,24.68a15.84,15.84,0,0,0-2.27,8,15.9,15.9,0,0,0,2.27,8h2.62v3.95h-4.74A17.67,17.67,0,0,1,157,32.63a17.62,17.62,0,0,1,4.1-11.9H184.5a17.62,17.62,0,0,1,4.1,11.9,17.67,17.67,0,0,1-4.1,11.91h-4.74V40.59h2.64a16.08,16.08,0,0,0,2.25-8,16,16,0,0,0-2.25-8Z" transform="translate(-0.06 -0.03)"/><path class="a510b01f-5cca-4410-8642-0d3a75ab723d" d="M196.71,40.59H214.6l2.28,3.95H192.75V24.1l4-4Z" transform="translate(-0.06 -0.03)"/><path class="a510b01f-5cca-4410-8642-0d3a75ab723d" d="M225.81,44.54h-3.95V24.1l3.95-4Z" transform="translate(-0.06 -0.03)"/><path class="a510b01f-5cca-4410-8642-0d3a75ab723d" d="M262.37,30.66c.05.64.08,1.3.08,2a17.72,17.72,0,0,1-4.1,11.91H234.89a17.72,17.72,0,0,1-4.1-11.91,17.67,17.67,0,0,1,4.1-11.9h23.46a16.6,16.6,0,0,1,3.57,7.09h-4.25a17.86,17.86,0,0,0-1.43-3.14H237a15.94,15.94,0,0,0-2.27,8,16,16,0,0,0,2.27,8h19.23a17,17,0,0,0,2.12-6H244V30.66Z" transform="translate(-0.06 -0.03)"/><path class="a510b01f-5cca-4410-8642-0d3a75ab723d" d="M269.85,34.59a17.1,17.1,0,0,0,2.14,6h2.63v3.95h-4.75a17.72,17.72,0,0,1-4.1-11.91,17.67,17.67,0,0,1,4.1-11.9h4.75v3.95H272a16.93,16.93,0,0,0-2.14,6h23.49a16.88,16.88,0,0,0-2.12-6h-2.64V20.73h4.75a17.67,17.67,0,0,1,4.1,11.9,17.72,17.72,0,0,1-4.1,11.91h-4.75V40.59h2.64a17,17,0,0,0,2.12-6Z" transform="translate(-0.06 -0.03)"/><path class="a510b01f-5cca-4410-8642-0d3a75ab723d" d="M316.78,41.17l-3.95,3.95V24.68H299.92V20.73H329.7v3.95H316.78Z" transform="translate(-0.06 -0.03)"/></svg>