<svg xmlns="http://www.w3.org/2000/svg" xmlns:xlink="http://www.w3.org/1999/xlink" viewBox="0 0 470.58 67.66"><defs><style>.ecd9caf9-a9fe-437b-bbca-7d698026f1eb{stroke:#9def48;stroke-miterlimit:10;fill:url(#fd02282c-564d-4d2f-bd53-1409ff68cd56);}.ace46302-7ad1-4ca1-8116-c063f265b14c{fill:#9def48;}.f477dfe1-900e-4e2c-b97f-53532c652d14{fill:#9c2249;}.e197ac97-9611-42f9-b786-21e7eb70dcfd{fill:#fff;}</style><linearGradient id="fd02282c-564d-4d2f-bd53-1409ff68cd56" x1="0.5" y1="33.83" x2="470.08" y2="33.83" gradientUnits="userSpaceOnUse"><stop offset="0" stop-color="#032c02"/><stop offset="1" stop-color="#207a09"/></linearGradient></defs><g id="ab3c7b27-5d4f-45af-add7-3ac026b797b5" data-name="calque3"><polygon class="ecd9caf9-a9fe-437b-bbca-7d698026f1eb" points="0.5 6.04 102.57 6.04 108.7 0.5 150.44 0.5 158.35 6.04 461.77 6.24 470.08 16.13 470.08 59.84 50.94 59.84 42.83 67.16 8.02 67.16 0.5 59.84 0.5 6.04"/><path class="ace46302-7ad1-4ca1-8116-c063f265b14c" d="M84.27,37.25h4.38A17.09,17.09,0,0,1,85,44.54H60.83a18.15,18.15,0,0,1-4.22-12.25A18.15,18.15,0,0,1,60.83,20H85a17.15,17.15,0,0,1,3.68,7.29H84.27A17.77,17.77,0,0,0,82.8,24.1H63a16.38,16.38,0,0,0-2.34,8.19A16.44,16.44,0,0,0,63,40.48H82.8A18.41,18.41,0,0,0,84.27,37.25Z"/><path class="ace46302-7ad1-4ca1-8116-c063f265b14c" d="M124.86,34.31H98.32a17.56,17.56,0,0,0,2.21,6.17h2.7v4.06H98.34A17.56,17.56,0,0,1,94.2,34.31H90.36V30.26H94.2A17.51,17.51,0,0,1,98.34,20h24.15a18.17,18.17,0,0,1,4.22,12.25ZM98.32,30.26H122.5a17.56,17.56,0,0,0-2.18-6.16H100.53A17.44,17.44,0,0,0,98.32,30.26Z"/><path class="ace46302-7ad1-4ca1-8116-c063f265b14c" d="M157.71,37.25h4.37a17.08,17.08,0,0,1-3.67,7.29H134.26A18.2,18.2,0,0,1,130,32.29,18.2,18.2,0,0,1,134.26,20h24.15a17.13,17.13,0,0,1,3.67,7.29h-4.37a19.25,19.25,0,0,0-1.47-3.23H136.45a16.38,16.38,0,0,0-2.34,8.19,16.44,16.44,0,0,0,2.34,8.19h19.79A20,20,0,0,0,157.71,37.25Z"/></g><g id="e849da34-be63-4ede-a9c2-fdc879d8389b" data-name="amstrad"><path class="f477dfe1-900e-4e2c-b97f-53532c652d14" d="M14,29V16.73L36.7,28.16V40.42Z"/><path class="e197ac97-9611-42f9-b786-21e7eb70dcfd" d="M18,62.57l14.7,1.74v-2.7l-3-.27V60.06l3-.22V56.91L18,58.92Zm2.54-1.85,6.71-.42v.85ZM18,56.36l14.69,0V53.51H24.1l8.59-1.16V50.57L24.1,49.44h8.59V46.59H18v4l6.54.91L18,52.23Zm.12-17.8H20.4v-1.5H32.64V33.94H20.4v-1.6H18.12Zm0,4.09c0,1.78-.24,2.44.46,3,.89.68,2.72.41,4.86.4,1.72,0,2.61-3.93,3.65-4H30c.45,0,.3,1-.11,1H26.7v3l2.47,0c3.11.06,3.57,0,3.55-3.63,0-1.74,0-2.15-.22-2.48a2.14,2.14,0,0,0-.81-.68c-.53-.25-.78-.27-3.22-.23H26c-.62,0-1.69,1.44-2.09,2.21s-.5,1.84-2.06,1.86c-1.27,0-1.5,0-1.51-.52s.26-.43,2.63-.47V38.93C17.93,38.93,18.14,39.12,18.13,42.65Zm0-10.95,14.52-.09v-3l-5.87,0c0-1.07-.35-1,5.92-.92l0-3.15c-5.77.11-6.1-.12-7.28,1.31-.8-1.28-1.29-1.16-3.69-1.19s-2.62.05-3.24.72S18.07,26.53,18.15,31.7Zm2.26-3.07c0-1.16.33-.94,1.83-.94s1.89-.2,1.9.95ZM18.33,15.82s14.17.21,14.4.11h0l0-5.4c0-2-1.33-1.67-7-1.71-6.53,0-7.43,0-7.43,1.49Zm7.12-3.92c4.77,0,4.89-.09,4.92.81l-9.86.06C20.51,11.81,21.28,11.93,25.45,11.9ZM18.17,22.14l14.71,1.73V21.18l-3-.27V19.63l3-.22V16.48l-14.7,2Zm2.54-1.85,6.71-.42v.85Z"/></g></svg>