<?xml version="1.0" encoding="utf-8"?>
<!-- Generator: Adobe Illustrator 24.1.2, SVG Export Plug-In . SVG Version: 6.00 Build 0)  -->
<svg version="1.1" id="Calque_1" xmlns="http://www.w3.org/2000/svg" xmlns:xlink="http://www.w3.org/1999/xlink" x="0px" y="0px"
	 viewBox="0 0 173.1 298" style="enable-background:new 0 0 173.1 298;" xml:space="preserve">
<style type="text/css">
	.st0{fill:none;}
	.st1{fill:#7942BA;}
	.st2{fill:#7042B2;}
	.st3{fill:#333333;}
	.st4{fill:#272727;}
	.st5{fill:#2B2B2B;}
	.st6{fill:#3A3A3A;}
	.st7{fill:#C1C1C1;}
	.st8{fill:#FF004F;}
	.st9{fill:#F9E52D;}
	.st10{fill:#00B3DD;}
	.st11{fill:#AAE000;}
	.st12{fill:#414042;}
	.st13{fill:#BAC2C5;}
	.st14{fill:#E50016;}
	.st15{fill:#593E9B;}
</style>
<g>
	<rect x="36.3" y="26.7" class="st0" width="100.6" height="88.3"/>
	<path class="st1" d="M172.6,37.5c0.3,0,0.5-0.4,0.5-0.9s-0.2-0.9-0.5-0.9h-0.1v-8h0.1c0.3,0,0.5-0.4,0.5-0.9c0-0.5-0.2-0.9-0.5-0.9
		h-0.1V7.2c0,0,0-7.8-8.4-7.1H9.2C0.8-0.6,0.8,7.2,0.8,7.2v18.7H0.5c-0.3,0-0.5,0.4-0.5,0.9c0,0.5,0.2,0.9,0.5,0.9h0.3v8H0.5
		c-0.3,0-0.5,0.4-0.5,0.9c0,0.5,0.2,0.9,0.5,0.9h0.3v8H0.5c-0.3,0-0.5,0.4-0.5,0.9s0.2,0.9,0.5,0.9h0.3v8H0.5
		c-0.3,0-0.5,0.4-0.5,0.9S0.2,57,0.5,57h0.3v219.5v0c0,0,0.6,17.5,81.8,21.4h8.2c81.1-3.9,81.8-21.4,81.8-21.4V57h0.1
		c0.3,0,0.5-0.4,0.5-0.9s-0.2-0.9-0.5-0.9h-0.1v-8h0.1c0.3,0,0.5-0.4,0.5-0.9s-0.2-0.9-0.5-0.9h-0.1v-8H172.6z M126.6,282.2
		c-0.6,0-1-0.5-1-1c0,0,0,0,0,0c0-0.6,0.5-1,1-1c0.6,0,1,0.5,1,1c0,0,0,0,0,0C127.6,281.8,127.1,282.2,126.6,282.2z M126.6,272
		c-0.6,0-1-0.5-1-1c0-0.6,0.5-1,1-1c0.6,0,1,0.5,1,1C127.6,271.5,127.1,272,126.6,272z M126.6,266.9c-0.6,0-1-0.4-1.1-1
		c0,0,0,0,0-0.1c0-0.6,0.5-1,1.1-1c0.5,0,1,0.5,1,1C127.6,266.4,127.2,266.8,126.6,266.9z M131.7,286.3c-0.6,0-1-0.5-1-1.1
		c0-0.5,0.4-0.9,1-1c0.6,0,1,0.5,1,1C132.7,285.9,132.3,286.3,131.7,286.3z M131.7,281.2c-0.6,0-1-0.5-1-1s0.5-1,1-1s1,0.5,1,1
		S132.3,281.2,131.7,281.2z M131.7,276.1c-0.6,0-1-0.5-1-1c0-0.6,0.5-1,1-1c0.6,0,1,0.5,1,1C132.7,275.6,132.3,276.1,131.7,276.1z
		 M131.7,270.9c-0.6,0-1-0.5-1-1c0-0.6,0.5-1,1-1s1,0.5,1,1h0C132.7,270.5,132.3,270.9,131.7,270.9z M131.7,265.8
		c-0.6,0-1-0.5-1-1.1c0-0.5,0.4-1,1-1c0.6,0,1,0.5,1,1C132.7,265.3,132.3,265.8,131.7,265.8z M136.8,285.3c-0.6,0-1-0.5-1-1
		c0-0.6,0.5-1,1-1c0.6,0,1,0.5,1,1C137.9,284.8,137.4,285.3,136.8,285.3z M137.9,279.1c0,0.6-0.4,1-1,1.1c-0.6,0-1-0.4-1.1-1
		c0,0,0,0,0-0.1c0-0.6,0.5-1,1-1C137.4,278.1,137.9,278.6,137.9,279.1C137.9,279.1,137.9,279.1,137.9,279.1z M136.8,275
		c-0.6,0-1-0.5-1-1s0.5-1,1-1s1,0.5,1,1S137.4,275,136.8,275z M137.9,268.9c0,0.6-0.5,1-1,1c-0.6,0-1-0.5-1-1s0.5-1,1-1
		S137.9,268.3,137.9,268.9C137.9,268.9,137.9,268.9,137.9,268.9z M136.9,264.8c-0.6,0-1-0.4-1.1-1c0,0,0,0,0-0.1c0-0.6,0.5-1,1-1
		c0.6,0,1,0.5,1,1C137.9,264.3,137.4,264.8,136.9,264.8z M142,284.1c-0.6,0-1-0.5-1-1s0.5-1,1-1s1,0.5,1,1S142.5,284.1,142,284.1z
		 M142,279c-0.6,0-1-0.5-1-1c0-0.6,0.5-1,1-1c0.6,0,1,0.5,1,1C143,278.5,142.5,279,142,279z M143,272.8c0,0.6-0.5,1-1.1,1
		c-0.5,0-1-0.4-1-1c0-0.6,0.4-1,1-1.1C142.5,271.7,143,272.2,143,272.8C143,272.8,143,272.8,143,272.8z M142,268.7c-0.6,0-1-0.5-1-1
		c0,0,0,0,0,0c0-0.6,0.5-1,1-1s1,0.5,1,1C143,268.3,142.5,268.7,142,268.7z M142,263.6c-0.6,0-1-0.5-1-1c0-0.6,0.5-1,1-1
		c0.6,0,1,0.5,1,1C143,263.1,142.5,263.6,142,263.6z M147.1,283.1c-0.6,0-1-0.5-1-1c0-0.6,0.5-1,1-1c0.6,0,1,0.5,1,1
		C148.1,282.6,147.6,283.1,147.1,283.1z M147.1,277.9c-0.6,0-1-0.4-1.1-1c0-0.6,0.4-1,1-1.1c0,0,0.1,0,0.1,0c0.6,0,1,0.5,1,1
		C148.1,277.5,147.6,277.9,147.1,277.9z M147.1,272.8c-0.6,0-1-0.5-1-1c0-0.6,0.5-1,1-1c0.6,0,1,0.5,1,1
		C148.1,272.4,147.7,272.8,147.1,272.8z M147.1,267.7c-0.6,0-1-0.5-1-1c0-0.6,0.5-1,1.1-1c0.5,0,1,0.4,1,1
		C148.1,267.2,147.6,267.7,147.1,267.7z M147.1,262.6c-0.6,0-1-0.4-1.1-1c0-0.6,0.4-1,1-1.1c0,0,0.1,0,0.1,0c0.6,0,1,0.5,1,1
		C148.1,262.1,147.6,262.6,147.1,262.6z M147.1,257.4c-0.6,0-1-0.5-1-1c0-0.6,0.5-1,1.1-1c0.5,0,1,0.4,1,1
		C148.1,257,147.6,257.4,147.1,257.4z M147.1,252.3c-0.6,0-1-0.5-1-1s0.5-1,1-1c0.6,0,1,0.5,1,1
		C148.1,251.8,147.7,252.3,147.1,252.3z M147.1,247.2c-0.6,0-1-0.5-1-1c0-0.6,0.5-1,1.1-1c0.5,0,1,0.4,1,1
		C148.1,246.7,147.6,247.2,147.1,247.2z M153.2,281c0,0.6-0.5,1-1,1c-0.6,0-1-0.5-1-1c0-0.6,0.5-1,1-1
		C152.8,280,153.2,280.4,153.2,281C153.2,281,153.2,281,153.2,281z M152.2,276.9c-0.6,0-1-0.5-1-1s0.5-1,1-1s1,0.5,1,1
		S152.8,276.9,152.2,276.9z M153.2,270.8c0,0.6-0.5,1-1,1c-0.6,0-1-0.5-1-1s0.5-1,1-1C152.8,269.7,153.2,270.2,153.2,270.8
		C153.2,270.8,153.2,270.8,153.2,270.8z M153.2,265.6c0,0.6-0.5,1-1.1,1c-0.5,0-0.9-0.4-1-1c0-0.6,0.5-1,1-1
		C152.8,264.6,153.2,265.1,153.2,265.6C153.2,265.6,153.2,265.6,153.2,265.6z M152.2,261.6c-0.6,0-1-0.4-1.1-1c0,0,0,0,0-0.1
		c0-0.6,0.5-1,1.1-1c0.5,0,1,0.5,1,1C153.3,261.1,152.8,261.5,152.2,261.6z M153.2,255.4c0,0.6-0.5,1-1,1c-0.6,0-1-0.5-1-1
		s0.5-1,1-1S153.2,254.8,153.2,255.4C153.2,255.4,153.2,255.4,153.2,255.4z M152.2,251.3c-0.6,0-1-0.5-1-1.1c0-0.5,0.5-1,1-1
		c0.6,0,1,0.5,1,1C153.2,250.8,152.8,251.3,152.2,251.3z M152.2,246.1c-0.6,0-1-0.5-1-1s0.5-1,1-1c0.6,0,1,0.5,1,1
		C153.2,245.7,152.8,246.1,152.2,246.1z M158.4,280c0,0.6-0.5,1-1,1c0,0,0,0,0,0c-0.6,0-1-0.5-1-1c0-0.6,0.5-1,1-1
		C157.9,279,158.4,279.4,158.4,280C158.4,280,158.4,280,158.4,280z M158.4,274.9c0,0.6-0.4,1-1,1.1c-0.6,0-1-0.4-1.1-1
		c0,0,0,0,0-0.1c0-0.6,0.5-1,1-1C157.9,273.8,158.4,274.3,158.4,274.9C158.4,274.9,158.4,274.9,158.4,274.9z M157.3,270.8
		c-0.6,0-1-0.5-1-1s0.5-1,1-1s1,0.5,1,1S157.9,270.8,157.3,270.8z M157.3,265.6c-0.6,0-1-0.5-1-1c0-0.6,0.5-1,1-1c0.6,0,1,0.5,1,1
		C158.4,265.2,157.9,265.6,157.3,265.6z M157.3,260.5c-0.6,0-1-0.5-1-1s0.5-1,1-1c0.6,0,1,0.5,1,1S157.9,260.5,157.3,260.5z
		 M157.3,255.4c-0.6,0-1-0.5-1-1s0.5-1,1-1s1,0.5,1,1S157.9,255.4,157.3,255.4z M158.4,249.2c0,0.6-0.5,1-1,1s-1-0.5-1-1
		c0-0.6,0.4-1,1-1.1C157.9,248.2,158.3,248.6,158.4,249.2C158.4,249.2,158.4,249.2,158.4,249.2z M158.4,244.1c0,0.6-0.5,1-1,1
		s-1-0.5-1-1c0-0.6,0.5-1,1-1C157.9,243.1,158.4,243.5,158.4,244.1C158.4,244.1,158.4,244.1,158.4,244.1z M162.5,274.9
		c-0.6,0-1-0.5-1-1c0-0.6,0.5-1,1-1c0.6,0,1,0.5,1,1C163.5,274.4,163,274.9,162.5,274.9z M162.4,269.7c-0.5,0-0.9-0.4-1-1
		c0-0.6,0.5-1,1-1c0.6,0,1,0.5,1,1C163.5,269.3,163,269.7,162.4,269.7z M162.5,264.6c-0.6,0-1-0.5-1-1c0-0.6,0.5-1,1-1
		c0.6,0,1,0.5,1,1C163.5,264.1,163,264.6,162.5,264.6z M162.5,259.5c-0.6,0-1-0.5-1-1s0.5-1,1-1c0.6,0,1,0.5,1,1
		C163.5,259,163,259.5,162.5,259.5z M162.5,254.4c-0.6,0-1-0.4-1.1-1c0-0.6,0.4-1,1-1.1c0,0,0.1,0,0.1,0c0.6,0,1,0.5,1,1
		C163.5,253.9,163,254.4,162.5,254.4z M163.5,248.2c0,0.6-0.5,1-1,1c-0.6,0-1-0.5-1-1s0.5-1,1-1S163.5,247.6,163.5,248.2
		C163.5,248.2,163.5,248.2,163.5,248.2z M165,133.8c0,3-1.8,9-8.7,10.4l-1,0.2c-3,0.6-5.6,1.2-11,1.7v37c0.8-0.2,1.7-0.3,2.6-0.3
		c5.7,0,10.3,4.6,10.3,10.3s-4.6,10.3-10.3,10.3c-0.9,0-1.7-0.1-2.6-0.3v43h0v2.9c0,2.8-0.8,5.3-2.2,7.5c0.5,0,0.9,0.5,0.9,1
		c0,0.6-0.4,1-1,1.1c-0.5,0-0.9-0.3-1-0.7c-1.6,1.9-3.7,3.2-6.1,3.9c-5.6,2-18.5,1.8-47.6,1.8c-46.2,0-52.7-3.5-52.7-3.5v0
		c-3.5-2.4-5.8-6.5-5.8-11.1v-31.9c-0.3-0.4-0.5-0.8-0.5-1.3c0,0,0,0,0,0v-12.9H15.5c-1.1,0-2-0.9-2-2c0,0,0,0,0,0v-9.5
		c0-1.1,0.9-2.1,2-2.1c0,0,0,0,0,0h12.9v-12.9c0-0.5,0.2-1,0.5-1.3v-28.9c-5.1-0.5-7.6-1.1-10.5-1.7l-1.1-0.2
		c-7-1.4-8.8-7.5-8.7-10.5V16.6c0-0.4,0-4.6,2.8-7.3c1.5-1.5,3.6-2.3,6-2.3h11.5V0.1h115.5V7h11.9c2.4,0,4.5,0.8,6,2.3
		c2.8,2.8,2.8,6.9,2.8,7.3V133.8z"/>
	<path class="st2" d="M48.5,2c-0.9,0-1.4,0.8-1.4,1.7c0,0.9,0.5,1.6,1.4,1.6c0.9,0,1.4-0.8,1.4-1.7C49.9,2.8,49.5,2,48.5,2z"/>
	<path class="st2" d="M144.3,0.1H28.8V7h115.5V0.1z M33,5.6l2.8-3.9l2.8,3.9H33z M45.2,5.3c0.3,0,0.7-0.1,0.9-0.2l0.1,0.4
		c-0.2,0.1-0.6,0.2-1.2,0.2c-1.2,0-2.2-0.7-2.2-2c0-1.3,0.9-2.1,2.3-2.1c0.5,0,0.9,0.1,1,0.2l-0.1,0.4C45.8,2,45.5,2,45.2,2
		c-1,0-1.7,0.6-1.7,1.7C43.5,4.6,44.1,5.3,45.2,5.3z M48.5,5.7c-1.2,0-2-0.8-2-2.1c0-1.3,0.9-2.1,2-2.1c1.2,0,2,0.8,2,2
		C50.5,5,49.6,5.7,48.5,5.7z M55,5.7l-0.1-1.8c0-0.6-0.1-1.2-0.1-1.7h0c-0.1,0.5-0.3,1-0.6,1.5l-0.8,2h-0.4l-0.7-1.9
		c-0.2-0.5-0.4-1-0.5-1.6h0c0,0.6,0,1.2-0.1,1.8l-0.1,1.7h-0.5l0.3-4h0.7l0.7,2c0.2,0.5,0.3,0.9,0.4,1.4h0c0.1-0.4,0.3-0.9,0.5-1.4
		l0.8-2h0.7l0.3,4H55z M60.2,5.7l-0.1-1.8c0-0.6-0.1-1.2-0.1-1.7h0c-0.1,0.5-0.3,1-0.6,1.5l-0.8,2h-0.4l-0.7-1.9
		c-0.2-0.5-0.4-1-0.5-1.6h0c0,0.6,0,1.2-0.1,1.8l-0.1,1.7h-0.5l0.3-4h0.7l0.7,2c0.2,0.5,0.3,0.9,0.4,1.4h0c0.1-0.4,0.3-0.9,0.5-1.4
		l0.8-2h0.7l0.3,4H60.2z"/>
	<path class="st2" d="M86.7,149.1L86.7,149.1L86.7,149.1c-34.4-1.2-49.5-2.1-57.8-2.9V175c0.4-0.4,0.9-0.7,1.6-0.7h9.5
		c1.1,0,2.1,0.9,2.1,2.1c0,0,0,7.2,0,12.9h12.9c1.1,0,2.1,0.9,2.1,2.1v9.5c0,1.1-0.9,2.1-2,2.1c0,0,0,0,0,0H42c0,5.7,0,12.9,0,12.9
		c0,1.1-0.9,2.1-2,2.1c0,0,0,0,0,0h-9.5c-0.6,0-1.2-0.3-1.6-0.7V249c0,4.6,2.3,8.7,5.8,11.1v0c0,0,6.5,3.5,52.7,3.5
		c29.1,0,42,0.2,47.6-1.8c2.4-0.7,4.5-2.1,6.1-3.9c0-0.1-0.1-0.2-0.1-0.3c0,0,0-0.1,0-0.1c0-0.6,0.5-1,1-1c0,0,0.1,0,0.1,0
		c1.4-2.1,2.2-4.7,2.2-7.5v-2.9h0v-43c-4.5-1.1-7.8-5.2-7.8-10s3.3-8.8,7.8-10v-37C135.9,147,120.7,147.9,86.7,149.1L86.7,149.1z
		 M140.9,247.2c0-0.6,0.5-1,1-1s1,0.5,1,1c0,0.6-0.5,1-1,1C141.4,248.2,140.9,247.7,140.9,247.2
		C140.9,247.2,140.9,247.2,140.9,247.2z M142,251.3c0.6,0,1,0.5,1,1c0,0,0,0,0,0c0,0.6-0.5,1-1,1c-0.6,0-1-0.5-1-1
		S141.4,251.3,142,251.3z M136.8,247.3c0.6,0,1,0.5,1,1s-0.5,1-1,1s-1-0.5-1-1S136.3,247.3,136.8,247.3z M136.8,252.5
		c0.6,0,1,0.5,1,1c0,0.6-0.5,1-1,1c-0.6,0-1-0.5-1-1C135.8,252.9,136.3,252.5,136.8,252.5z M136.8,257.6c0.6,0,1,0.5,1,1s-0.5,1-1,1
		s-1-0.5-1-1S136.3,257.6,136.8,257.6z M63.4,258c-0.5,0-0.9-0.1-1.3-0.4v-0.9c0.3,0.4,0.8,0.7,1.3,0.7c0.5,0,0.8-0.3,0.8-0.6
		c0-1-2.1-1.1-2.1-2.4c0-0.8,0.6-1.3,1.5-1.3c0.4,0,0.7,0.1,1.1,0.3v0.8c0,0,0,0,0,0h0v0c-0.4-0.4-0.8-0.5-1.1-0.5
		c-0.4,0-0.8,0.2-0.8,0.6c0,0.9,2.1,0.9,2.1,2.4C64.7,257.4,64.2,258,63.4,258z M68.2,257.9h-2.8v-4.8h2.7v0.6h0h-2v1.4h2v0.6h-2
		v1.5h2.1V257.9z M71.8,257.9H69v-4.8h0.7v4.2h2.2V257.9z M75.2,257.9h-2.8v-4.8h2.7v0.6h0h-2v1.4h2v0.6h-2v1.5h2.1V257.9z
		 M80,257.5c-0.5,0.2-1,0.4-1.7,0.4c-1.8,0-2.6-1.4-2.6-2.4c0-1.5,1.1-2.5,2.6-2.5c0.5,0,1,0.1,1.6,0.4v0.7h0
		c-0.6-0.3-1.1-0.5-1.6-0.5c-1.1,0-1.9,0.8-1.9,1.8c0,1.1,0.8,1.8,1.9,1.8c0.5,0,1.1-0.2,1.7-0.5V257.5z M78.8,249.2h-11
		c-1.1,0-1.9-0.9-1.9-2.1v-0.5c0-1.1,0.9-2.1,1.9-2.1h11c1.1,0,1.9,0.9,1.9,2.1v0.5h0C80.7,248.3,79.8,249.2,78.8,249.2z
		 M84.4,253.7h-1.7v4.2h-0.7v-4.2h-1.7v-0.6h4V253.7z M92.1,258c-0.5,0-0.9-0.1-1.3-0.4v-0.9c0.3,0.4,0.8,0.7,1.3,0.7
		c0.5,0,0.8-0.3,0.8-0.6c0-1-2.1-1.1-2.1-2.4c0-0.8,0.6-1.3,1.4-1.3c0.4,0,0.7,0.1,1.1,0.3v0.8c0,0,0,0,0,0h0v0
		c-0.4-0.4-0.8-0.5-1.1-0.5c-0.4,0-0.8,0.2-0.8,0.6c0,0.9,2.1,0.9,2.1,2.4C93.4,257.4,92.9,258,92.1,258z M92.5,247.2v-0.5
		c0-1.1,0.9-2.1,1.9-2.1h11c1.1,0,1.9,0.9,1.9,2.1v0.5h0c0,1.1-0.9,2.1-1.9,2.1h-11C93.3,249.2,92.5,248.3,92.5,247.2z M96.1,257.9
		h-0.7v-4.2h-1.7v-0.6h4v0.6h-1.7V257.9z M101.2,257.9l-0.6-1.4h-2l-0.6,1.4h-0.7l2.1-4.8h0.5l2.1,4.8H101.2z M105.3,257.9l-0.6-1
		c-0.6-1-0.9-1.1-1.3-1.1h-0.3v2.1h-0.7v-4.8c0,0,1.2,0,1.2,0c1,0,1.6,0.5,1.6,1.3c0,0.6-0.3,1-0.8,1.2c0.4,0.3,0.7,0.7,1.1,1.3
		c0.2,0.3,0.3,0.5,0.7,0.9H105.3z M109.6,253.7h-1.7v4.2h-0.7v-4.2h-1.7v-0.6h4V253.7z M131.7,260.7c-0.6,0-1-0.5-1-1s0.5-1,1-1
		c0.6,0,1,0.5,1,1C132.7,260.2,132.3,260.7,131.7,260.7z M131.7,255.5c-0.6,0-1-0.5-1-1s0.5-1,1-1c0.6,0,1,0.5,1,1
		C132.7,255.1,132.3,255.5,131.7,255.5z M131.7,248.4c0.6,0,1,0.5,1,1c0,0.6-0.5,1-1,1c-0.6,0-1-0.5-1-1
		C130.7,248.8,131.1,248.4,131.7,248.4z M127.6,255.5c0,0.6-0.5,1-1,1c-0.6,0-1-0.5-1-1c0-0.6,0.5-1,1.1-1
		C127.1,254.6,127.6,255,127.6,255.5z M126.7,202.5c0,5.7-4.6,10.3-10.3,10.3s-10.3-4.6-10.3-10.3s4.6-10.3,10.3-10.3
		S126.7,196.8,126.7,202.5z M110,168c0,3.2-2.5,5.8-6.1,5.8H69.2c-3.7,0-6.1-2.6-6.1-5.8s2.5-5.9,6.1-5.9h34.7
		C107.6,162.1,110,164.8,110,168z"/>
	<path class="st2" d="M64.5,168c0,2.4,1.8,4.4,4.7,4.4h34.6c2.9,0,4.7-2,4.7-4.4c0-2.4-1.8-4.4-4.7-4.4H69.3
		C66.3,163.6,64.5,165.6,64.5,168z M76.1,170.7h-1.6v-3.7h1.6V170.7z M104.8,165.9c0-0.6,0.5-1.1,1.1-1.1c0.6,0,1.1,0.5,1.1,1.1
		c0,0.6-0.5,1.1-1.1,1.1C105.3,167,104.8,166.6,104.8,165.9C104.8,165.9,104.8,165.9,104.8,165.9z M103.1,166.8
		c1.3,0,2.4,0.9,2.4,2.1c0,1.1-1.1,2.1-2.4,2.1c-1.3,0-2.4-0.9-2.4-2.1C100.7,167.8,101.8,166.8,103.1,166.8z M97.6,166.9
		c0.4,0,0.7,0.2,0.9,0.3c0-0.8,0-2,0-2h1.6v5.5h-1.6l0-0.2c-0.6,0.4-1.3,0.4-1.9,0.1c-0.1-0.1-1.1-0.5-1.1-1.8
		C95.6,167.9,96.5,166.8,97.6,166.9z M90.3,167.1l1.6,0c0,0,0,0.3,0,0.4c0.3-0.3,0.8-0.5,1.3-0.6c0.6,0,1.9,0.4,1.8,1.8
		c0,0.3,0,2,0,2h-1.6v-2.4c0-0.3-0.3-0.7-0.7-0.7c-0.4,0-0.8,0.4-0.8,0.7l0,2.4h-1.6L90.3,167.1z M87.4,166.9c1.3,0,2.4,0.9,2.4,2.1
		h0v0c0,0,0,0,0,0h-3.1l0,0.8c0,0.7,0.4,0.8,0.7,0.8c0.2,0,0.7-0.1,0.7-0.8l0-0.2l1.6,0c-0.3,0.9-1.2,1.5-2.3,1.5
		c-1.3,0-2.4-0.9-2.4-2.1C84.9,167.8,86,166.9,87.4,166.9z M81.7,166.5h0.9l0-0.7h1.6v0.7h0.9v0.5h-0.9l0,3.7h-1.6l0-3.7h-0.9V166.5
		z M78.6,167.1c0,0,0,0.3,0,0.4c0.3-0.3,0.8-0.5,1.3-0.6c0.6,0,1.9,0.4,1.8,1.8c0,0.3,0,2,0,2h-1.6v-2.4c0-0.3-0.3-0.7-0.7-0.7
		c-0.4,0-0.8,0.4-0.8,0.7l0,2.4H77l0-3.7L78.6,167.1z M74.4,165.2h1.6v1.1h-1.6V165.2z M67.8,165.2h1.7l2.3,3.8l0-3.8h1.7v5.5h-1.7
		l-2.4-3.8v3.8h-1.7V165.2z"/>
	<path class="st2" d="M103.5,253.7h-0.4v1.5h0.4c0.7,0,0.9-0.4,0.9-0.8C104.5,254,104.2,253.7,103.5,253.7z"/>
	<path class="st2" d="M103.1,170.5c0.3,0,0.7-0.2,0.7-0.8v-0.8l0-0.8c0-0.6-0.3-0.8-0.7-0.8s-0.7,0.2-0.7,0.8l0,0.8l0,0.8
		C102.4,170.2,102.8,170.5,103.1,170.5z"/>
	<path class="st2" d="M87.9,167.6c-0.1-0.2-0.3-0.3-0.6-0.3c-0.2,0-0.5,0.1-0.6,0.3c-0.1,0.2-0.1,0.4-0.1,0.7H88
		C88.1,168,88,167.8,87.9,167.6z"/>
	<path class="st2" d="M97.9,170.3c0.3,0,0.6-0.1,0.6-0.7v-0.6v-0.7c0-0.6-0.4-0.7-0.6-0.7c-0.3,0-0.6,0.1-0.6,0.7l0,0.7l0,0.6
		C97.3,170.1,97.7,170.3,97.9,170.3z"/>
	<path class="st2" d="M106.1,165.6c0-0.2-0.1-0.2-0.3-0.2h-0.3v0.4c0,0,0.2,0,0.2,0C106,165.8,106.1,165.8,106.1,165.6z"/>
	<path class="st2" d="M105.8,166.8c0.5,0,0.9-0.4,0.9-0.9c0-0.5-0.4-0.9-0.9-0.9c-0.5,0-0.9,0.4-0.9,0.9
		C105,166.4,105.4,166.8,105.8,166.8z M105.4,165.3h0.5c0.3,0,0.4,0.1,0.4,0.4c0,0.2-0.1,0.3-0.3,0.3l0.4,0.6h-0.2l-0.3-0.5h-0.2
		v0.5h-0.2V165.3z"/>
	<polygon class="st2" points="98.8,255.9 100.2,255.9 99.5,254.1 	"/>
	<path class="st3" d="M156.2,11.1c0,0-10,0-11.9,0c-18.1,0-97.9,0-115.5,0c-1.8,0-11.5,0-11.5,0c-1.3,0-2.3,0.4-3.1,1.1
		c-1.3,1.3-1.6,3.7-1.6,4.4v117.1c0,0.5,0.2,5.3,5.5,6.4l1.1,0.2c2.7,0.6,5.1,1.1,9.7,1.6c8.1,0.9,22.9,1.8,57.8,3
		c34.5-1.2,49.5-2.1,57.7-2.9c4.9-0.5,7.3-1,10.1-1.6l1-0.2c5.3-1.1,5.5-5.9,5.5-6.4V16.6C160.9,15.7,160.7,11.1,156.2,11.1z
		 M19,60.5c-0.1,0.1-0.1,0.2-0.2,0.3c-0.1,0.1-0.2,0.1-0.3,0.1c-0.1,0-0.2,0-0.3,0h-0.6v1.4h-0.4v-3H18c0.1,0,0.3,0,0.4,0
		c0.1,0,0.2,0.1,0.3,0.1s0.2,0.1,0.2,0.3c0.1,0.1,0.1,0.3,0.1,0.4C19.1,60.2,19,60.4,19,60.5z M16.8,55.2c0-1.5,1.3-2.8,2.8-2.8
		c1.5,0,2.8,1.3,2.8,2.8S21.2,58,19.6,58C18.1,58,16.8,56.8,16.8,55.2z M22.4,61.4c-0.1,0.2-0.2,0.4-0.3,0.5
		c-0.1,0.1-0.3,0.3-0.5,0.3c-0.2,0.1-0.4,0.1-0.6,0.1c-0.2,0-0.4,0-0.6-0.1c-0.4-0.2-0.7-0.5-0.8-0.8c-0.1-0.2-0.1-0.4-0.1-0.6
		c0-0.2,0-0.4,0.1-0.6s0.2-0.4,0.3-0.5c0.1-0.1,0.3-0.3,0.5-0.3c0.2-0.1,0.4-0.1,0.6-0.1c0.2,0,0.4,0,0.6,0.1
		c0.4,0.2,0.7,0.5,0.8,0.8c0.1,0.2,0.1,0.4,0.1,0.6C22.5,61,22.5,61.2,22.4,61.4z M25.9,62.3h-0.4l-0.7-2.6h0L24,62.3h-0.4l-0.9-3
		h0.4l0.7,2.5h0l0.7-2.5h0.4l0.7,2.5h0l0.7-2.5h0.4L25.9,62.3z M29.1,62.3h-0.3h-1.7l0-3h1.7H29v0.3h-0.2h-1.3v0.9h1.3h0.1v0.3h-0.1
		h-1.3v1.1h1.3h0.3V62.3z M31.3,62.3l-0.8-1.4H30v1.4h-0.4v-3h0.8c0.1,0,0.3,0,0.4,0c0.1,0,0.3,0.1,0.4,0.1c0.1,0.1,0.2,0.1,0.3,0.3
		c0.1,0.1,0.1,0.3,0.1,0.4c0,0.2-0.1,0.4-0.2,0.5c-0.2,0.1-0.3,0.2-0.6,0.3l0.9,1.4H31.3z M62.4,133.8l0.6-3.8c0.1-0.8,0.3-2,0.6-3
		h0c-0.5,1-1.1,2-1.6,2.9l-2.4,3.8h-1.3l-0.5-3.8c-0.1-1-0.2-1.9-0.3-2.9h0c-0.3,0.9-0.5,2.2-0.8,3l-1.1,3.8h-0.3h-1.2h-0.5
		l-0.3-2.3c0,0-3,0-3,0l-1.3,2.3h-1.8l0.1-0.2c-0.6,0.1-1.5,0.3-2.3,0.3c-1.3,0-2.4-0.3-3.2-1c-0.8-0.6-1.1-1.5-1.1-2.4
		c0-1.4,0.7-2.8,1.9-3.7c1.1-0.8,2.5-1.2,4.1-1.2c1.2,0,2.1,0.2,2.4,0.4l-0.5,1.2c-0.5-0.2-1.2-0.3-2.1-0.3c-1,0-2,0.3-2.7,0.8
		c-0.9,0.6-1.4,1.7-1.4,2.8c0,1.5,0.9,2.3,2.8,2.3c0.5,0,0.9-0.1,1.2-0.2l0.5-2h-1.7l0.3-1.1h3.3l-0.6,2.7l3.8-6.4h2.1l0.8,5.4
		l1.6-5.4h2.2l0.5,3.8c0.1,0.7,0.2,1.6,0.2,2.3h0.1c0.3-0.8,0.8-1.6,1.2-2.3l2.3-3.8h2.2l-1.3,8.1H62.4z M71,126.9h-3.7l-0.5,2.1
		h3.5l-0.3,1.2h-3.5l-0.5,2.4H70l-0.3,1.2h-5.6l1.8-8.1h5.4L71,126.9z M79.5,133.2c-0.8,0.5-2,0.7-3.4,0.7c-1,0-1.8,0-2.2-0.1
		l1.8-7.9c0.8-0.1,1.5-0.2,2.3-0.2c1,0,1.7,0.1,2.3,0.5c0.6,0.3,0.9,0.8,0.9,1.4c0,1-0.9,1.7-2,2v0c0.9,0.2,1.5,0.9,1.5,1.8
		C80.8,132.2,80.2,132.8,79.5,133.2z M88.1,132.8c-0.9,0.7-2.1,1.1-3.5,1.1c-2.5,0-3.8-1.5-3.8-3.3c0-1.4,0.6-3,1.8-3.9
		c0.9-0.7,2.1-1.1,3.4-1.1c2.6,0,3.8,1.5,3.8,3.4C89.9,130.4,89.2,131.9,88.1,132.8z M93,130.5l-0.8,3.4h-1.7l0.8-3.3l-1.9-4.8h1.8
		L92,128c0.2,0.7,0.3,1.1,0.4,1.4h0c0.3-0.4,0.6-0.8,1-1.4l1.7-2.3h2L93,130.5z M126.8,130c-0.2,0.5-0.4,0.9-0.6,1.4
		c-0.2,0.5-0.6,0.9-0.9,1.2c-0.4,0.4-0.8,0.7-1.3,0.9c-0.5,0.2-1,0.3-1.7,0.3c-0.3,0-0.6,0-1-0.1c-0.2-0.1-0.5-0.1-0.7-0.2
		c-0.4-0.1-0.7-0.3-1-0.5c0,0,0,0,0,0c0,0,0,0,0,0c-0.1,0.1-0.3,0.3-0.5,0.3c-0.1,0-0.3,0.1-0.4,0.1c-0.2,0-0.4,0-0.7,0.1
		c-0.3,0-0.7,0.1-1.2,0.1c-0.5,0-1,0.1-1.7,0.2c-0.2,0-0.3,0-0.5,0.1c-0.2,0-0.3,0-0.5-0.1c-0.1-0.1-0.2-0.2-0.3-0.4
		c-0.1-0.2-0.1-0.4-0.1-0.5c0-0.2,0-0.4-0.1-0.6c0-0.2,0-0.4,0-0.5c0-0.3,0-0.6-0.1-0.9c0-0.3,0-0.7-0.1-1c0-0.1,0-0.1,0-0.2
		c0,0.2,0,0.5-0.1,0.7c-0.2,0.5-0.3,0.9-0.6,1.3c-0.2,0.4-0.5,0.8-0.9,1.1c-0.3,0.3-0.7,0.6-1.2,0.8c-0.5,0.2-1,0.3-1.5,0.3
		c-0.3,0-0.6,0-0.9-0.1c-0.2,0-0.4-0.1-0.6-0.2c-0.3-0.1-0.7-0.2-0.9-0.5c-0.3-0.2-0.5-0.5-0.7-0.7c-0.1-0.2-0.2-0.3-0.3-0.5
		c-0.1,0.2-0.2,0.3-0.3,0.4c-0.2,0.2-0.3,0.3-0.5,0.5c-0.4,0.4-0.8,0.6-1.2,0.8c-0.5,0.2-0.9,0.2-1.4,0.2c-0.5,0-0.9-0.1-1.4-0.3
		c-0.5-0.2-0.9-0.5-1.2-0.9c-0.2-0.2-0.4-0.5-0.5-0.7c-0.1-0.2-0.3-0.5-0.3-0.8c-0.1-0.4-0.2-0.8-0.2-1.3c0-0.4,0.1-0.9,0.2-1.3
		c0.1-0.4,0.3-0.8,0.6-1.2c0.3-0.4,0.6-0.7,1-0.9c0.3-0.2,0.6-0.4,0.8-0.5c0.3-0.1,0.6-0.3,0.9-0.4c0.2-0.1,0.4-0.1,0.6-0.2
		c0.2-0.1,0.4-0.1,0.6-0.2c0.2,0,0.4,0,0.6,0c0.2,0,0.4,0,0.6,0.1c0.1,0.1,0.3,0.1,0.4,0.2c0.3,0.2,0.5,0.4,0.7,0.7
		c0.1,0.1,0.1,0.2,0.2,0.4c0,0.1,0,0.2,0,0.3c0,0.1-0.1,0.2-0.1,0.3c-0.1,0.2-0.4,0.3-0.6,0.4c-0.2,0-0.4,0-0.5-0.1
		c-0.1-0.1-0.2-0.2-0.3-0.3l-0.2-0.3c-0.1-0.1-0.2-0.2-0.3-0.2c-0.1,0-0.1,0-0.2,0c-0.3,0.1-0.7,0.2-1,0.3c-0.3,0.1-0.6,0.3-0.9,0.5
		c-0.3,0.2-0.5,0.4-0.7,0.7c-0.2,0.2-0.4,0.5-0.5,0.8c-0.1,0.4-0.2,0.7-0.1,1.1c0,0.4,0.1,0.7,0.3,1.1c0.1,0.2,0.3,0.4,0.5,0.5
		c0.2,0.1,0.4,0.3,0.6,0.3c0.2,0.1,0.5,0.1,0.7,0.1c0.2,0,0.5-0.1,0.7-0.2c0.2-0.1,0.4-0.3,0.5-0.4c0.2-0.2,0.3-0.4,0.4-0.5
		c0.1-0.1,0.3-0.2,0.5-0.2c0.2,0,0.4,0,0.5,0.1c0.1,0,0.1,0.1,0.1,0.1c0-0.1-0.1-0.2-0.1-0.4c0-0.5,0-1.1,0.1-1.6
		c0.1-0.5,0.4-1,0.7-1.5c0.3-0.5,0.7-0.9,1.2-1.2c0.5-0.3,1-0.5,1.6-0.6c0.3,0,0.6-0.1,1,0c0.3,0,0.6,0.1,0.9,0.2
		c0.3,0.1,0.5,0.2,0.7,0.3c0.2,0.1,0.4,0.2,0.6,0.4c0.3,0.2,0.5,0.4,0.7,0.7c0.2,0.2,0.3,0.5,0.4,0.8c0,0,0-0.1,0-0.1
		c0-0.4-0.1-0.7-0.1-1.1c0-0.2,0-0.4,0-0.7c0-0.2,0.1-0.3,0.1-0.4c0.1-0.1,0.2-0.2,0.3-0.2c0.1-0.1,0.2-0.1,0.4-0.1
		c0.1,0,0.3,0,0.4,0.1c0.1,0,0.2,0.1,0.3,0.2c0.1,0.1,0.1,0.2,0.1,0.3c0.1,1,0.2,2.1,0.2,3.1c0.1,1,0.1,2,0.2,3.1
		c0.6,0,1.2-0.1,1.8-0.2c0.5-0.1,1-0.1,1.6-0.2c-0.1-0.2-0.1-0.3-0.2-0.5c-0.1-0.3-0.2-0.6-0.2-1c0-0.6,0-1.1,0.2-1.7
		c0.1-0.6,0.4-1.1,0.7-1.6c0.3-0.5,0.8-0.9,1.3-1.2c0.5-0.4,1.1-0.6,1.7-0.7c0.3,0,0.7-0.1,1,0c0.3,0,0.7,0.1,1,0.2
		c0.3,0.1,0.5,0.2,0.7,0.3c0.2,0.1,0.5,0.2,0.7,0.4c0.3,0.2,0.5,0.5,0.7,0.8c0.2,0.3,0.3,0.6,0.4,0.9c0.1,0.4,0.2,0.8,0.1,1.2
		C126.9,129.2,126.8,129.6,126.8,130z M134,133.4c-0.1,0.1-0.2,0.2-0.3,0.3c-0.1,0.1-0.3,0.1-0.4,0.1c-0.2,0-0.3-0.1-0.5-0.1
		c-0.2-0.1-0.3-0.3-0.5-0.4c-0.1-0.2-0.3-0.3-0.4-0.5c-0.3-0.3-0.6-0.6-0.9-0.9c-0.3-0.3-0.6-0.6-0.9-0.9c-0.2,0-0.4,0.1-0.6,0.1
		c-0.2,0-0.4,0-0.6,0v1.9l0,0c0,0.2-0.1,0.4-0.3,0.5c-0.2,0.1-0.4,0.2-0.6,0.3c-0.2,0-0.4,0-0.6-0.1c-0.2-0.1-0.3-0.2-0.3-0.5
		c0-1-0.1-2.1-0.1-3.1v-3.2c-0.1,0-0.3-0.1-0.3-0.2c-0.1-0.1-0.1-0.2-0.1-0.3c0-0.1,0-0.3,0-0.4c0-0.1,0.1-0.2,0.2-0.3
		c0.1-0.1,0.2-0.2,0.4-0.3c0.4-0.2,0.8-0.3,1.2-0.4c0.2,0,0.4-0.1,0.5-0.1c0.6-0.1,1.2-0.1,1.8,0c0.6,0.1,1.1,0.3,1.6,0.6
		c0.5,0.3,0.8,0.7,1,1.2c0.2,0.5,0.3,1,0.1,1.7c-0.1,0.2-0.1,0.4-0.2,0.5c-0.1,0.2-0.2,0.3-0.3,0.5c-0.2,0.2-0.4,0.4-0.6,0.6
		c-0.2,0.2-0.5,0.3-0.7,0.5c0.2,0.2,0.4,0.4,0.5,0.5c0.2,0.2,0.3,0.4,0.5,0.5c0.1,0.1,0.2,0.2,0.3,0.3c0.3,0.3,0.6,0.5,0.8,0.9
		c0.1,0.1,0.2,0.3,0.1,0.4C134.1,133.1,134.1,133.2,134,133.4z M136.9,114.9H36.3V26.7h100.6V114.9z"/>
	<path class="st3" d="M21.8,59.9c-0.2-0.2-0.5-0.4-0.9-0.4c-0.3,0-0.6,0.1-0.9,0.4c-0.1,0.1-0.2,0.3-0.2,0.4
		c-0.1,0.2-0.1,0.3-0.1,0.5c0,0.2,0,0.3,0.1,0.5c0.1,0.2,0.1,0.3,0.2,0.4c0.2,0.2,0.5,0.4,0.9,0.4c0.3,0,0.6-0.1,0.9-0.4
		c0.1-0.1,0.2-0.3,0.2-0.4c0.1-0.2,0.1-0.3,0.1-0.5c0-0.2,0-0.3-0.1-0.5C22,60.1,21.9,60,21.8,59.9z"/>
	<path class="st3" d="M18.1,59.6h-0.6v1h0.6c0.2,0,0.3,0,0.4-0.1s0.2-0.2,0.2-0.4c0-0.2-0.1-0.3-0.2-0.4
		C18.4,59.6,18.2,59.6,18.1,59.6z"/>
	<path class="st3" d="M78,126.8c-0.4,0-0.7,0-0.9,0.1l-0.5,2.2h0.8c1.3,0,2.2-0.5,2.2-1.3C79.5,127.1,78.9,126.8,78,126.8z"/>
	<path class="st3" d="M77.1,130.1h-0.8l-0.6,2.7c0.3,0,0.6,0,0.9,0c1.2,0,2.4-0.4,2.4-1.5C79,130.4,78.1,130.1,77.1,130.1z"/>
	<path class="st3" d="M85.9,126.8c-0.7,0-1.4,0.2-1.9,0.7c-0.8,0.7-1.3,2-1.3,3.1c0,1.2,0.7,2.2,2.3,2.2c0.7,0,1.4-0.3,1.9-0.7
		c0.8-0.7,1.3-2.1,1.3-3.1C88.1,127.9,87.6,126.8,85.9,126.8z"/>
	<path class="st3" d="M131.8,127.2c-0.1-0.2-0.2-0.3-0.5-0.5v0c-0.4-0.2-0.8-0.3-1.3-0.3c-0.4,0-0.9,0-1.3,0.2v2.9
		c0.4,0,0.9-0.1,1.3-0.2c0.4-0.1,0.8-0.2,1.2-0.5c0.2-0.1,0.4-0.3,0.5-0.5c0.1-0.2,0.2-0.4,0.2-0.6
		C132,127.5,131.9,127.3,131.8,127.2z"/>
	<path class="st3" d="M124.3,127c-0.3-0.2-0.6-0.3-0.9-0.4c-0.3-0.1-0.7-0.1-1,0c-0.3,0-0.6,0.2-0.9,0.3c-0.3,0.3-0.6,0.6-0.9,0.9
		c-0.2,0.3-0.4,0.7-0.5,1.1c-0.1,0.3-0.2,0.7-0.2,1c0,0.4,0.1,0.7,0.2,1c0.1,0.2,0.3,0.5,0.5,0.7c0.4,0.4,0.9,0.6,1.5,0.6
		c0.3,0,0.6,0,0.9-0.1c0.3-0.1,0.5-0.3,0.8-0.4c0.2-0.2,0.4-0.4,0.6-0.6c0.2-0.2,0.3-0.5,0.4-0.7c0.1-0.3,0.2-0.5,0.3-0.8
		c0.1-0.3,0.1-0.7,0.1-1c0-0.3-0.1-0.7-0.2-1C124.8,127.4,124.6,127.2,124.3,127z"/>
	<path class="st3" d="M52.8,126.9L52.8,126.9c-0.3,0.5-0.5,1.1-0.8,1.5l-1.2,2h2.4l-0.3-2C52.9,128,52.8,127.4,52.8,126.9z"/>
	<path class="st3" d="M31.2,60.4c0.1-0.1,0.1-0.2,0.1-0.3c0-0.1,0-0.2-0.1-0.3c0-0.1-0.1-0.1-0.2-0.2c-0.1,0-0.1-0.1-0.2-0.1
		c-0.1,0-0.2,0-0.3,0H30l0,1h0.3c0.1,0,0.2,0,0.3,0c0.1,0,0.2,0,0.3-0.1C31,60.5,31.1,60.4,31.2,60.4z"/>
	<path class="st3" d="M111,127.5c-0.3-0.2-0.5-0.3-0.8-0.4c-0.3-0.1-0.6-0.1-0.9,0c-0.3,0-0.6,0.1-0.8,0.3c-0.3,0.2-0.6,0.5-0.8,0.9
		c-0.4,0.6-0.6,1.3-0.6,2c0,0.3,0,0.7,0.2,1c0.1,0.2,0.2,0.4,0.4,0.6c0.4,0.4,0.9,0.6,1.4,0.6c0.3,0,0.5,0,0.8-0.1v0
		c0.3-0.1,0.5-0.2,0.7-0.4c0.4-0.3,0.7-0.8,0.9-1.2c0.1-0.2,0.2-0.5,0.3-0.7c0.1-0.3,0.1-0.6,0.1-0.9c0-0.3-0.1-0.6-0.2-0.9
		C111.5,127.8,111.3,127.6,111,127.5z"/>
	<path class="st4" d="M156.2,7h-11.9H28.8H17.3c-2.4,0-4.5,0.8-6,2.3c-2.8,2.8-2.8,6.9-2.8,7.3v117.1c0,3,1.8,9,8.7,10.5l1.1,0.2
		c2.9,0.6,5.4,1.1,10.5,1.7c8.3,0.9,23.4,1.8,57.8,2.9l0.1,0v0l0.1,0c33.9-1.2,49.1-2,57.6-2.9c5.3-0.6,8-1.1,11-1.7l1-0.2
		c7-1.4,8.8-7.5,8.7-10.4V16.7c0-0.5,0-4.6-2.8-7.3C160.7,7.8,158.7,7,156.2,7z M160.9,133.8c0,0.5-0.2,5.3-5.5,6.4l-1,0.2
		c-2.8,0.6-5.3,1.1-10.1,1.6c-8.2,0.9-23.1,1.8-57.7,2.9c-34.9-1.2-49.8-2.1-57.8-3c-4.6-0.5-7-1-9.7-1.6l-1.1-0.2
		c-5.3-1.1-5.5-5.9-5.5-6.4V16.6c0-0.7,0.3-3.1,1.6-4.4c0.8-0.8,1.8-1.1,3.1-1.1c0,0,9.8,0,11.5,0c17.6,0,97.4,0,115.5,0
		c1.9,0,11.9,0,11.9,0c4.5,0,4.7,4.6,4.7,5.6V133.8z"/>
	<path class="st5" d="M39.9,217.8C39.9,217.8,39.9,217.8,39.9,217.8c1.1,0,2.1-0.9,2.1-2.1c0,0,0-7.2,0-12.9h12.9c0,0,0,0,0,0
		c1.1,0,2-0.9,2-2.1v-9.5c0-1.1-0.9-2.1-2.1-2.1H42c0-5.7,0-12.9,0-12.9c0-1.1-0.9-2.1-2.1-2.1h-9.5c-0.6,0-1.2,0.3-1.6,0.7
		c-0.3,0.4-0.5,0.8-0.5,1.3v12.9H15.5c0,0,0,0,0,0c-1.1,0-2,0.9-2,2.1v9.5c0,0,0,0,0,0c0,1.1,0.9,2,2,2h12.9v12.9c0,0,0,0,0,0
		c0,0.5,0.2,1,0.5,1.3c0.4,0.4,0.9,0.7,1.6,0.7H39.9z M46.9,191.3l8.6,4.6l-8.6,4.6V191.3z M23.1,200.5l-8.6-4.6l8.6-4.6V200.5z
		 M35,216.9l-4.6-8.6h9.3L35,216.9z M30.4,196.4C30.4,196.4,30.4,196.4,30.4,196.4c0-2.7,2.2-4.9,4.9-4.9c2.7,0,4.9,2.2,4.9,4.9
		c0,2.7-2.2,4.9-4.9,4.9C32.6,201.3,30.4,199.1,30.4,196.4z M35,176l4.6,8.6h-9.3L35,176z"/>
	<polygon class="st6" points="35,216.9 39.7,208.3 30.4,208.3 	"/>
	<polygon class="st6" points="35,176 30.4,184.5 39.7,184.5 	"/>
	<polygon class="st6" points="23.1,200.5 23.1,191.3 14.6,195.9 	"/>
	<polygon class="st6" points="46.9,191.3 46.9,200.5 55.5,195.9 	"/>
	<path class="st6" d="M40.2,196.4c0-2.7-2.2-4.9-4.9-4.9c-2.7,0-4.9,2.2-4.9,4.9c0,0,0,0,0,0c0,2.7,2.2,4.9,4.9,4.9
		C38,201.3,40.2,199.1,40.2,196.4z"/>
	<path class="st7" d="M79.2,129.5L79.2,129.5c1.1-0.3,2-1,2-2c0-0.6-0.4-1.1-0.9-1.4c-0.6-0.3-1.3-0.5-2.3-0.5
		c-0.8,0-1.6,0.1-2.3,0.2l-1.8,7.9c0.5,0.1,1.3,0.1,2.2,0.1c1.5,0,2.6-0.2,3.4-0.7c0.7-0.4,1.2-1,1.2-1.9
		C80.8,130.4,80.1,129.8,79.2,129.5z M76.6,132.8c-0.3,0-0.6,0-0.9,0l0.6-2.7h0.8c1,0,1.9,0.3,1.9,1.2
		C79,132.3,77.9,132.8,76.6,132.8z M77.4,129h-0.8l0.5-2.2c0.2,0,0.5-0.1,0.9-0.1c0.9,0,1.5,0.3,1.5,0.9
		C79.5,128.5,78.6,129,77.4,129z"/>
	<path class="st7" d="M63.1,125.7l-2.3,3.8c-0.4,0.7-0.9,1.6-1.2,2.3h-0.1c0-0.8-0.1-1.6-0.2-2.3l-0.5-3.8h-2.2l-1.6,5.4l-0.8-5.4
		H52l-3.8,6.4l0.6-2.7h-3.3l-0.3,1.1h1.7l-0.5,2c-0.3,0.1-0.7,0.2-1.2,0.2c-1.8,0-2.8-0.8-2.8-2.3c0-1.1,0.5-2.1,1.4-2.8
		c0.7-0.5,1.7-0.8,2.7-0.8c0.9,0,1.6,0.1,2.1,0.3l0.5-1.2c-0.3-0.2-1.2-0.4-2.4-0.4c-1.6,0-3.1,0.4-4.1,1.2
		c-1.3,0.9-1.9,2.3-1.9,3.7c0,0.9,0.3,1.8,1.1,2.4c0.8,0.6,1.9,1,3.2,1c0.9,0,1.7-0.1,2.3-0.3l-0.1,0.2h1.8l1.3-2.3c0,0,3,0,3,0
		l0.3,2.3h0.5h1.2h0.3l1.1-3.8c0.2-0.8,0.5-2,0.8-3h0c0.1,1,0.1,1.9,0.3,2.9l0.5,3.8h1.3l2.4-3.8c0.5-0.9,1.1-1.9,1.6-2.9h0
		c-0.2,1-0.4,2.1-0.6,3l-0.6,3.8H64l1.3-8.1H63.1z M50.8,130.4l1.2-2c0.3-0.5,0.5-1.1,0.8-1.5h0c0,0.5,0.1,1.1,0.1,1.5l0.3,2H50.8z"
		/>
	<polygon class="st7" points="64.1,133.8 69.7,133.8 70,132.6 66.1,132.6 66.6,130.2 70.1,130.2 70.3,129 66.9,129 67.3,126.9 
		71,126.9 71.3,125.7 65.9,125.7 	"/>
	<path class="st7" d="M86.1,125.6c-1.3,0-2.5,0.4-3.4,1.1c-1.2,0.9-1.8,2.5-1.8,3.9c0,1.8,1.3,3.3,3.8,3.3c1.4,0,2.6-0.4,3.5-1.1
		c1.1-0.9,1.8-2.4,1.8-3.9C89.9,127.1,88.6,125.6,86.1,125.6z M86.8,132.1c-0.5,0.4-1.2,0.7-1.9,0.7c-1.6,0-2.3-1-2.3-2.2
		c0-1,0.5-2.4,1.3-3.1c0.5-0.5,1.2-0.7,1.9-0.7c1.8,0,2.2,1.2,2.2,2.2C88.1,130,87.6,131.4,86.8,132.1z"/>
	<path class="st7" d="M93.4,128c-0.4,0.6-0.7,1.1-1,1.4h0c-0.1-0.4-0.2-0.7-0.4-1.4l-0.8-2.3h-1.8l1.9,4.8l-0.8,3.3h1.7l0.8-3.4
		l4.1-4.8h-2L93.4,128z"/>
	<path class="st8" d="M105.5,130.9c0,0-0.1-0.1-0.1-0.1c-0.2-0.1-0.3-0.1-0.5-0.1c-0.2,0-0.4,0.1-0.5,0.2c-0.1,0.2-0.3,0.4-0.4,0.5
		c-0.2,0.2-0.3,0.3-0.5,0.4c-0.2,0.1-0.4,0.2-0.7,0.2c-0.2,0-0.5,0-0.7-0.1c-0.2-0.1-0.4-0.2-0.6-0.3c-0.2-0.1-0.3-0.3-0.5-0.5
		c-0.2-0.3-0.3-0.7-0.3-1.1c0-0.4,0-0.8,0.1-1.1c0.1-0.3,0.3-0.6,0.5-0.8c0.2-0.3,0.5-0.5,0.7-0.7c0.3-0.2,0.6-0.4,0.9-0.5
		c0.3-0.1,0.7-0.2,1-0.3c0.1,0,0.1,0,0.2,0c0.1,0,0.2,0.1,0.3,0.2l0.2,0.3c0.1,0.1,0.2,0.2,0.3,0.3c0.1,0.1,0.3,0.1,0.5,0.1
		c0.2,0,0.5-0.2,0.6-0.4c0.1-0.1,0.1-0.2,0.1-0.3c0-0.1,0-0.2,0-0.3c0-0.1-0.1-0.3-0.2-0.4c-0.2-0.3-0.4-0.5-0.7-0.7
		c-0.1-0.1-0.3-0.2-0.4-0.2c-0.2-0.1-0.4-0.1-0.6-0.1c-0.2,0-0.4,0-0.6,0c-0.2,0-0.4,0.1-0.6,0.2c-0.2,0.1-0.4,0.1-0.6,0.2
		c-0.3,0.1-0.6,0.3-0.9,0.4c-0.3,0.1-0.6,0.3-0.8,0.5c-0.4,0.3-0.7,0.6-1,0.9c-0.3,0.4-0.5,0.8-0.6,1.2c-0.1,0.4-0.2,0.8-0.2,1.3
		c0,0.4,0,0.9,0.2,1.3c0.1,0.3,0.2,0.5,0.3,0.8c0.2,0.3,0.3,0.5,0.5,0.7c0.3,0.4,0.7,0.7,1.2,0.9c0.4,0.2,0.9,0.3,1.4,0.3
		c0.5,0,0.9-0.1,1.4-0.2c0.5-0.2,0.9-0.4,1.2-0.8c0.2-0.2,0.3-0.3,0.5-0.5c0.1-0.1,0.2-0.3,0.3-0.4c-0.1-0.1-0.1-0.2-0.1-0.4
		C105.5,131.3,105.5,131.1,105.5,130.9z"/>
	<path class="st1" d="M113.2,128c-0.1-0.3-0.2-0.5-0.4-0.8c-0.2-0.3-0.4-0.5-0.7-0.7c-0.2-0.2-0.4-0.3-0.6-0.4
		c-0.2-0.1-0.4-0.2-0.7-0.3c-0.3-0.1-0.6-0.2-0.9-0.2c-0.3,0-0.6,0-1,0c-0.6,0.1-1.1,0.3-1.6,0.6c-0.5,0.3-0.9,0.7-1.2,1.2
		c-0.3,0.5-0.5,1-0.7,1.5c-0.1,0.5-0.2,1.1-0.1,1.6c0,0.1,0.1,0.2,0.1,0.4c0,0.2,0.1,0.4,0.1,0.6c0,0.1,0.1,0.2,0.1,0.4
		c0.1,0.2,0.2,0.4,0.3,0.5c0.2,0.3,0.4,0.5,0.7,0.7c0.3,0.2,0.6,0.4,0.9,0.5c0.2,0.1,0.4,0.2,0.6,0.2c0.3,0.1,0.6,0.1,0.9,0.1
		c0.6,0,1.1-0.1,1.5-0.3c0.4-0.2,0.8-0.5,1.2-0.8c0.3-0.3,0.6-0.7,0.9-1.1c0.2-0.4,0.4-0.9,0.6-1.3c0-0.2,0.1-0.5,0.1-0.7
		c0-0.3,0-0.6-0.1-0.8C113.3,128.4,113.3,128.2,113.2,128z M111.7,129.9c-0.1,0.2-0.2,0.5-0.3,0.7c-0.2,0.5-0.5,0.9-0.9,1.2
		c-0.2,0.2-0.4,0.3-0.7,0.4v0c-0.3,0.1-0.5,0.2-0.8,0.1c-0.5,0-1-0.2-1.4-0.6c-0.2-0.2-0.3-0.4-0.4-0.6c-0.1-0.3-0.2-0.6-0.2-1
		c0-0.7,0.2-1.4,0.6-2c0.2-0.3,0.5-0.6,0.8-0.9c0.2-0.2,0.5-0.3,0.8-0.3c0.3,0,0.6,0,0.9,0c0.3,0.1,0.6,0.2,0.8,0.4
		c0.2,0.2,0.4,0.4,0.6,0.6c0.1,0.3,0.2,0.6,0.2,0.9C111.8,129.3,111.8,129.6,111.7,129.9z"/>
	<path class="st9" d="M126.3,126.7c-0.2-0.3-0.4-0.5-0.7-0.8c-0.2-0.2-0.4-0.3-0.7-0.4c-0.2-0.1-0.5-0.2-0.7-0.3
		c-0.3-0.1-0.7-0.2-1-0.2c-0.3,0-0.7,0-1,0c-0.6,0.1-1.2,0.3-1.7,0.7c-0.5,0.3-0.9,0.8-1.3,1.2c-0.3,0.5-0.6,1-0.7,1.6
		c-0.2,0.6-0.2,1.1-0.2,1.7c0,0.3,0.1,0.7,0.2,1c0.1,0.2,0.1,0.4,0.2,0.5c0.1,0,0.2,0,0.2,0l0.1,0c0.2,0.1,0.4,0.2,0.5,0.3
		c0.1,0.1,0.2,0.3,0.2,0.4c0,0.2-0.1,0.3-0.2,0.4c0,0,0,0,0,0c0.3,0.2,0.6,0.4,1,0.5c0.2,0.1,0.4,0.2,0.7,0.2c0.3,0.1,0.6,0.1,1,0.1
		c0.6,0,1.2-0.1,1.7-0.3c0.5-0.2,0.9-0.5,1.3-0.9c0.4-0.4,0.7-0.8,0.9-1.2c0.3-0.5,0.5-0.9,0.6-1.4c0.1-0.4,0.1-0.8,0.1-1.2
		c0-0.4,0-0.8-0.1-1.2C126.6,127.3,126.5,127,126.3,126.7z M125.1,129.6c-0.1,0.3-0.2,0.5-0.3,0.8c-0.1,0.3-0.2,0.5-0.4,0.7
		c-0.2,0.2-0.4,0.4-0.6,0.6c-0.2,0.2-0.5,0.3-0.8,0.4c-0.3,0.1-0.6,0.2-0.9,0.1c-0.6,0-1.1-0.3-1.5-0.6c-0.2-0.2-0.4-0.4-0.5-0.7
		c-0.1-0.3-0.2-0.7-0.2-1c0-0.3,0.1-0.7,0.2-1c0.1-0.4,0.3-0.8,0.5-1.1c0.2-0.4,0.5-0.7,0.9-0.9c0.3-0.2,0.6-0.3,0.9-0.3
		c0.3,0,0.7,0,1,0c0.3,0.1,0.6,0.2,0.9,0.4c0.3,0.2,0.5,0.4,0.6,0.7c0.2,0.3,0.2,0.6,0.2,1C125.2,129,125.1,129.3,125.1,129.6z"/>
	<path class="st10" d="M133.2,131.7c-0.2-0.1-0.3-0.2-0.3-0.3c-0.2-0.2-0.4-0.3-0.5-0.5c-0.2-0.2-0.3-0.4-0.5-0.5
		c0.3-0.1,0.5-0.3,0.7-0.5c0.2-0.2,0.4-0.4,0.6-0.6c0.1-0.1,0.2-0.3,0.3-0.5c0.1-0.2,0.2-0.3,0.2-0.5c0.2-0.6,0.2-1.2-0.1-1.7
		c-0.2-0.5-0.6-0.9-1-1.2c-0.5-0.3-1-0.5-1.6-0.6c-0.6-0.1-1.2-0.1-1.8,0c-0.2,0-0.4,0.1-0.5,0.1c-0.4,0.1-0.8,0.2-1.2,0.4
		c-0.2,0.1-0.3,0.2-0.4,0.3c-0.1,0.1-0.2,0.2-0.2,0.3c0,0.1-0.1,0.3,0,0.4c0,0.1,0.1,0.2,0.1,0.3c0.1,0.1,0.2,0.2,0.3,0.2v3.2
		c0,1,0,2.1,0.1,3.1c0,0.2,0.1,0.4,0.3,0.5c0.2,0.1,0.4,0.1,0.6,0.1c0.2,0,0.4-0.1,0.6-0.3c0.2-0.1,0.3-0.3,0.3-0.5l0,0V131
		c0.2,0,0.4,0,0.6,0c0.2,0,0.4,0,0.6-0.1c0.3,0.3,0.6,0.6,0.9,0.9c0.3,0.3,0.6,0.6,0.9,0.9c0.2,0.1,0.3,0.3,0.4,0.5
		c0.1,0.2,0.3,0.3,0.5,0.4c0.1,0.1,0.3,0.1,0.5,0.1c0.1,0,0.3,0,0.4-0.1c0.1-0.1,0.2-0.2,0.3-0.3c0.1-0.1,0.1-0.3,0.2-0.4
		c0-0.1,0-0.2-0.1-0.4C133.8,132.3,133.5,132,133.2,131.7z M131.2,128.8c-0.3,0.2-0.7,0.4-1.2,0.5c-0.4,0.1-0.8,0.1-1.3,0.2v-2.9
		c0.4-0.1,0.9-0.2,1.3-0.2c0.4,0,0.9,0.1,1.3,0.3v0c0.2,0.1,0.4,0.3,0.5,0.5c0.1,0.2,0.1,0.4,0.1,0.6c0,0.2-0.1,0.4-0.2,0.6
		C131.6,128.5,131.4,128.7,131.2,128.8z"/>
	<path class="st11" d="M119.6,132.1c-0.1-0.1-0.3-0.2-0.5-0.3l-0.1,0c-0.1,0-0.2,0-0.2,0c-0.5,0.1-1.1,0.1-1.6,0.2
		c-0.6,0.1-1.2,0.1-1.8,0.2c-0.1-1-0.1-2-0.2-3.1c-0.1-1-0.1-2-0.2-3.1c0-0.1-0.1-0.2-0.1-0.3c-0.1-0.1-0.2-0.2-0.3-0.2
		c-0.1,0-0.3-0.1-0.4-0.1c-0.1,0-0.3,0-0.4,0.1c-0.1,0.1-0.2,0.1-0.3,0.2c-0.1,0.1-0.1,0.2-0.1,0.4c0,0.2,0,0.4,0,0.7
		c0,0.4,0,0.7,0.1,1.1c0,0,0,0.1,0,0.1c0,0.2,0,0.5,0.1,0.8c0,0.3,0,0.5,0.1,0.8c0,0.1,0,0.1,0,0.2c0,0.3,0,0.7,0.1,1
		c0,0.3,0,0.6,0.1,0.9c0,0.1,0,0.3,0,0.5c0,0.2,0,0.4,0.1,0.6c0,0.2,0.1,0.4,0.1,0.5c0.1,0.2,0.2,0.3,0.3,0.4
		c0.1,0.1,0.3,0.1,0.5,0.1c0.2,0,0.4,0,0.5-0.1c0.7-0.1,1.3-0.1,1.7-0.2c0.5,0,0.9-0.1,1.2-0.1c0.3,0,0.5,0,0.7-0.1
		c0.1,0,0.3,0,0.4-0.1c0.2-0.1,0.4-0.2,0.5-0.3c0,0,0,0,0,0c0.1-0.1,0.2-0.3,0.2-0.4C119.8,132.4,119.7,132.3,119.6,132.1z"/>
	<path class="st5" d="M115.2,200.7c0-0.9-0.5-1.3-1.2-1.3h-1.1v2.6h1.1C114.7,202,115.2,201.6,115.2,200.7z"/>
	<path class="st5" d="M106.1,202.5c0,5.7,4.6,10.3,10.3,10.3s10.3-4.6,10.3-10.3s-4.6-10.3-10.3-10.3S106.1,196.8,106.1,202.5z
		 M111.6,198.1h2.4c1.5,0,2.6,0.7,2.6,2.5c0,0.8-0.4,1.6-1.1,2c0.8,0.3,1.3,1.1,1.3,2.2c0,1.9-1.1,2.9-2.7,2.9h-2.5V198.1z"/>
	<path class="st5" d="M115.4,204.8c0-1.1-0.6-1.5-1.5-1.5h-1.1v3.1h1.2C114.9,206.3,115.4,205.9,115.4,204.8z"/>
	<path class="st12" d="M116.8,204.8c0-1-0.5-1.9-1.3-2.2c0.8-0.4,1.1-1.2,1.1-2c0-1.8-1.1-2.5-2.6-2.5h-2.4v9.5h2.5
		C115.7,207.6,116.8,206.7,116.8,204.8z M112.9,199.4h1.1c0.7,0,1.2,0.3,1.2,1.3c0,0.9-0.6,1.3-1.3,1.3h-1.1V199.4z M112.9,206.3
		v-3.1h1.1c0.8,0,1.5,0.4,1.5,1.5c0,1.1-0.5,1.6-1.3,1.6H112.9z"/>
	<path class="st5" d="M145.8,194.5l-0.4-1.6c-0.1-0.6-0.3-1.7-0.4-2.1c-0.1,0.4-0.3,1.4-0.4,2.1l-0.3,1.6l0,0h0H145.8z"/>
	<path class="st5" d="M136.6,193.1c0,4.8,3.3,8.8,7.8,10c0.8,0.2,1.7,0.3,2.6,0.3c5.7,0,10.3-4.6,10.3-10.3s-4.6-10.3-10.3-10.3
		c-0.9,0-1.7,0.1-2.6,0.3C139.9,184.2,136.6,188.3,136.6,193.1z M144.3,189.2l0.1-0.4h1.4l2.3,9.5h-1.4l-0.6-2.5h-1.8H144l-0.5,2.5
		h-1.4L144.3,189.2z"/>
	<path class="st12" d="M144,195.8h0.3h1.8l0.6,2.5h1.4l-2.3-9.5h-1.4l-0.1,0.4l-2.2,9.1h1.4L144,195.8z M144.3,194.5l0.3-1.6
		c0.1-0.6,0.3-1.7,0.4-2.1c0.1,0.4,0.3,1.5,0.4,2.1l0.4,1.6L144.3,194.5L144.3,194.5L144.3,194.5z"/>
	<polygon class="st13" points="25.7,61.8 25.7,61.8 24.9,59.3 24.5,59.3 23.8,61.8 23.8,61.8 23.1,59.3 22.7,59.3 23.6,62.3 
		24,62.3 24.7,59.7 24.7,59.7 25.5,62.3 25.9,62.3 26.7,59.3 26.4,59.3 	"/>
	<path class="st13" d="M18.7,59.4c-0.1-0.1-0.2-0.1-0.3-0.1c-0.1,0-0.3,0-0.4,0h-0.9v3h0.4v-1.4h0.6c0.1,0,0.2,0,0.3,0
		c0.1,0,0.2-0.1,0.3-0.1c0.1-0.1,0.2-0.1,0.2-0.3c0.1-0.1,0.1-0.2,0.1-0.4c0-0.1,0-0.3-0.1-0.4C18.9,59.6,18.8,59.5,18.7,59.4z
		 M18.5,60.5c-0.1,0.1-0.3,0.1-0.4,0.1h-0.6v-1h0.6c0.2,0,0.3,0,0.4,0.1c0.1,0.1,0.2,0.2,0.2,0.4C18.7,60.3,18.6,60.4,18.5,60.5z"/>
	<path class="st13" d="M21.6,59.3c-0.2-0.1-0.4-0.1-0.6-0.1c-0.2,0-0.4,0-0.6,0.1c-0.2,0.1-0.4,0.2-0.5,0.3
		c-0.1,0.1-0.3,0.3-0.3,0.5s-0.1,0.4-0.1,0.6c0,0.2,0,0.4,0.1,0.6c0.1,0.4,0.4,0.7,0.8,0.8c0.2,0.1,0.4,0.1,0.6,0.1
		c0.2,0,0.4,0,0.6-0.1c0.2-0.1,0.4-0.2,0.5-0.3c0.1-0.1,0.3-0.3,0.3-0.5c0.1-0.2,0.1-0.4,0.1-0.6c0-0.2,0-0.4-0.1-0.6
		C22.3,59.8,22,59.4,21.6,59.3z M22.1,61.3c-0.1,0.1-0.1,0.3-0.2,0.4C21.6,61.9,21.3,62,21,62c-0.3,0-0.6-0.1-0.9-0.4
		c-0.1-0.1-0.2-0.2-0.2-0.4c-0.1-0.2-0.1-0.3-0.1-0.5c0-0.2,0-0.3,0.1-0.5c0.1-0.1,0.1-0.3,0.2-0.4c0.2-0.2,0.5-0.4,0.9-0.4
		c0.3,0,0.6,0.1,0.9,0.4c0.1,0.1,0.2,0.3,0.2,0.4c0.1,0.2,0.1,0.3,0.1,0.5C22.2,60.9,22.1,61.1,22.1,61.3z"/>
	<polygon class="st13" points="27.5,61.9 27.5,60.9 28.8,60.9 28.9,60.9 28.9,60.5 28.8,60.5 27.5,60.5 27.5,59.6 28.8,59.6 
		29,59.6 29,59.3 28.8,59.3 27.1,59.3 27.1,62.3 28.8,62.3 29.1,62.3 29.1,61.9 28.8,61.9 	"/>
	<path class="st13" d="M31.5,60.6c0.1-0.1,0.2-0.3,0.2-0.5c0-0.2,0-0.3-0.1-0.4c-0.1-0.1-0.2-0.2-0.3-0.3c-0.1-0.1-0.2-0.1-0.4-0.1
		c-0.1,0-0.3,0-0.4,0h-0.8v3H30v-1.4h0.5l0.8,1.4h0.4l-0.9-1.4C31.1,60.9,31.3,60.8,31.5,60.6z M30.4,60.6H30l0-1h0.5
		c0.1,0,0.2,0,0.3,0c0.1,0,0.2,0,0.2,0.1c0.1,0,0.1,0.1,0.2,0.2c0,0.1,0.1,0.2,0.1,0.3c0,0.1,0,0.2-0.1,0.3
		c-0.1,0.1-0.1,0.1-0.2,0.1c-0.1,0-0.2,0-0.3,0.1C30.6,60.6,30.5,60.6,30.4,60.6z"/>
	<path class="st14" d="M22.4,55.2c0-1.5-1.3-2.8-2.8-2.8c-1.5,0-2.8,1.3-2.8,2.8s1.3,2.8,2.8,2.8C21.2,58,22.4,56.8,22.4,55.2z"/>
	<path class="st5" d="M126.6,280.2c-0.6,0-1,0.5-1,1c0,0,0,0,0,0c0,0.6,0.5,1,1,1c0.6,0,1-0.5,1-1c0,0,0,0,0,0
		C127.6,280.6,127.1,280.2,126.6,280.2z"/>
	<path class="st5" d="M147.1,255.4c-0.6,0-1,0.4-1.1,1c0,0.6,0.5,1,1,1c0.6,0,1-0.5,1-1C148.1,255.9,147.7,255.4,147.1,255.4z"/>
	<path class="st5" d="M147.1,260.5C147.1,260.5,147,260.5,147.1,260.5c-0.7,0-1.1,0.5-1.1,1.1c0,0.6,0.5,1,1.1,1c0.6,0,1-0.5,1-1
		C148.1,261,147.6,260.5,147.1,260.5z"/>
	<path class="st5" d="M157.3,279c-0.6,0-1,0.5-1,1c0,0.6,0.5,1,1,1c0,0,0,0,0,0c0.6,0,1-0.5,1-1c0,0,0,0,0,0
		C158.4,279.4,157.9,279,157.3,279z"/>
	<path class="st5" d="M157.3,273.8c-0.6,0-1,0.5-1,1c0,0,0,0,0,0.1c0,0.6,0.5,1,1.1,1c0.6,0,1-0.5,1-1.1c0,0,0,0,0,0
		C158.4,274.3,157.9,273.8,157.3,273.8z"/>
	<path class="st5" d="M157.3,268.7c-0.6,0-1,0.5-1,1s0.5,1,1,1s1-0.5,1-1S157.9,268.7,157.3,268.7z"/>
	<path class="st5" d="M152.2,244.1c-0.6,0-1,0.5-1,1s0.5,1,1,1c0.6,0,1-0.5,1-1C153.2,244.6,152.8,244.1,152.2,244.1z"/>
	<path class="st5" d="M152.2,254.4c-0.6,0-1,0.5-1,1s0.5,1,1,1c0.6,0,1-0.5,1-1c0,0,0,0,0,0C153.2,254.8,152.8,254.4,152.2,254.4z"
		/>
	<path class="st5" d="M152.2,249.2c-0.5,0-1,0.5-1,1c0,0.6,0.4,1,1,1.1c0.6,0,1-0.5,1-1C153.2,249.7,152.8,249.2,152.2,249.2z"/>
	<path class="st5" d="M147.1,250.2c-0.6,0-1,0.5-1,1s0.5,1,1,1c0.6,0,1-0.5,1-1C148.1,250.7,147.6,250.2,147.1,250.2z"/>
	<path class="st5" d="M152.2,269.7c-0.6,0-1,0.5-1,1s0.5,1,1,1c0.6,0,1-0.5,1-1c0,0,0,0,0,0C153.2,270.2,152.8,269.7,152.2,269.7z"
		/>
	<path class="st5" d="M152.2,259.5c-0.6,0-1,0.4-1.1,1c0,0,0,0,0,0.1c0,0.6,0.5,1,1.1,1s1-0.5,1-1.1
		C153.2,260,152.8,259.5,152.2,259.5z"/>
	<path class="st5" d="M152.2,280c-0.6,0-1,0.5-1,1c0,0.6,0.5,1,1,1c0.6,0,1-0.5,1-1c0,0,0,0,0,0C153.2,280.4,152.8,280,152.2,280z"
		/>
	<path class="st5" d="M152.2,264.6c-0.6,0-1,0.5-1,1c0,0.5,0.4,0.9,1,1c0.6,0,1.1-0.4,1.1-1c0,0,0,0,0,0
		C153.2,265.1,152.8,264.6,152.2,264.6z"/>
	<path class="st5" d="M147.1,245.2c-0.6,0-1,0.4-1.1,1c0,0.6,0.5,1,1,1c0.6,0,1-0.5,1-1C148.1,245.6,147.7,245.2,147.1,245.2z"/>
	<path class="st5" d="M126.6,269.9c-0.6,0-1,0.5-1,1c0,0.6,0.5,1,1,1c0.6,0,1-0.5,1-1C127.6,270.4,127.1,269.9,126.6,269.9z"/>
	<path class="st5" d="M142,266.7c-0.6,0-1,0.5-1,1c0,0,0,0,0,0c0,0.6,0.5,1,1,1c0.6,0,1-0.5,1-1C143,267.1,142.5,266.7,142,266.7z"
		/>
	<path class="st5" d="M142,261.5c-0.6,0-1,0.5-1,1c0,0.6,0.5,1,1,1c0.6,0,1-0.5,1-1C143,262,142.5,261.5,142,261.5z"/>
	<circle class="st5" cx="142" cy="283.1" r="1"/>
	<path class="st5" d="M142,276.9c-0.6,0-1,0.5-1,1c0,0.6,0.5,1,1,1c0.6,0,1-0.5,1-1C143,277.4,142.5,276.9,142,276.9z"/>
	<path class="st5" d="M141.9,271.7c-0.6,0-1,0.5-1,1.1c0,0.5,0.4,1,1,1c0.6,0,1-0.4,1.1-1c0,0,0-0.1,0-0.1
		C143,272.2,142.5,271.7,141.9,271.7z"/>
	<path class="st5" d="M147.1,281c-0.6,0-1,0.5-1,1c0,0.6,0.5,1,1,1c0.6,0,1-0.5,1-1C148.1,281.5,147.7,281,147.1,281z"/>
	<path class="st5" d="M147.1,265.7c-0.6,0-1,0.4-1.1,1c0,0.6,0.5,1,1,1c0.6,0,1-0.5,1-1C148.1,266.1,147.7,265.7,147.1,265.7z"/>
	<path class="st5" d="M147.1,275.9C147.1,275.9,147,275.9,147.1,275.9c-0.7,0-1.1,0.5-1.1,1.1c0,0.6,0.5,1,1.1,1c0.6,0,1-0.5,1-1
		C148.1,276.4,147.6,275.9,147.1,275.9z"/>
	<path class="st5" d="M157.3,263.6c-0.6,0-1,0.5-1,1c0,0.6,0.5,1,1,1c0.6,0,1-0.5,1-1C158.4,264,157.9,263.6,157.3,263.6z"/>
	<path class="st5" d="M147.1,270.8c-0.6,0-1,0.5-1,1c0,0.6,0.5,1,1,1c0.6,0,1-0.5,1-1C148.1,271.2,147.6,270.8,147.1,270.8z"/>
	<path class="st5" d="M136.8,267.9c-0.6,0-1,0.5-1,1s0.5,1,1,1c0.6,0,1-0.5,1-1c0,0,0,0,0,0C137.9,268.3,137.4,267.9,136.8,267.9z"
		/>
	<path class="st5" d="M131.7,263.7c-0.5,0-1,0.5-1,1c0,0.6,0.4,1,1,1.1c0.6,0,1-0.5,1-1C132.7,264.2,132.3,263.7,131.7,263.7z"/>
	<path class="st5" d="M131.7,268.9c-0.6,0-1,0.5-1,1c0,0.6,0.5,1,1,1s1-0.5,1-1h0C132.7,269.3,132.3,268.9,131.7,268.9z"/>
	<path class="st5" d="M131.7,274c-0.6,0-1,0.5-1,1c0,0.6,0.5,1,1,1c0.6,0,1-0.5,1-1C132.7,274.5,132.3,274,131.7,274z"/>
	<path class="st5" d="M131.7,284.3c-0.5,0-0.9,0.4-1,1c0,0.6,0.4,1.1,1,1.1c0.6,0,1-0.5,1-1C132.7,284.7,132.3,284.3,131.7,284.3z"
		/>
	<path class="st5" d="M131.7,279.1c-0.6,0-1,0.5-1,1s0.5,1,1,1s1-0.5,1-1S132.3,279.1,131.7,279.1z"/>
	<path class="st5" d="M136.8,283.2c-0.6,0-1,0.5-1,1c0,0.6,0.5,1,1,1c0.6,0,1-0.5,1-1C137.9,283.7,137.4,283.2,136.8,283.2z"/>
	<path class="st5" d="M136.8,273c-0.6,0-1,0.5-1,1s0.5,1,1,1s1-0.5,1-1S137.4,273,136.8,273z"/>
	<path class="st5" d="M126.6,264.8c-0.6,0-1,0.4-1.1,1c0,0,0,0,0,0.1c0,0.6,0.5,1,1.1,1s1-0.5,1-1.1
		C127.6,265.3,127.1,264.8,126.6,264.8z"/>
	<path class="st5" d="M136.8,278.1c-0.6,0-1,0.5-1,1c0,0,0,0,0,0.1c0,0.6,0.5,1,1.1,1c0.6,0,1-0.5,1-1.1c0,0,0,0,0,0
		C137.9,278.6,137.4,278.1,136.8,278.1z"/>
	<path class="st5" d="M136.8,262.7c-0.6,0-1,0.5-1,1c0,0,0,0,0,0.1c0,0.6,0.5,1,1.1,1c0.6,0,1-0.5,1-1.1
		C137.9,263.2,137.4,262.7,136.8,262.7z"/>
	<path class="st5" d="M152.2,274.9c-0.6,0-1,0.5-1,1s0.5,1,1,1s1-0.5,1-1S152.8,274.9,152.2,274.9z"/>
	<path class="st5" d="M162.5,252.3C162.4,252.3,162.4,252.3,162.5,252.3c-0.7,0-1.1,0.5-1.1,1.1c0,0.6,0.5,1,1.1,1c0.6,0,1-0.5,1-1
		C163.5,252.8,163,252.3,162.5,252.3z"/>
	<path class="st5" d="M162.5,247.2c-0.6,0-1,0.5-1,1s0.5,1,1,1c0.6,0,1-0.5,1-1c0,0,0,0,0,0C163.5,247.6,163,247.2,162.5,247.2z"/>
	<path class="st5" d="M162.5,257.4c-0.6,0-1,0.5-1,1s0.5,1,1,1c0.6,0,1-0.5,1-1C163.5,257.9,163,257.4,162.5,257.4z"/>
	<path class="st5" d="M162.5,262.6c-0.6,0-1,0.5-1,1c0,0.6,0.5,1,1,1c0.6,0,1-0.5,1-1C163.5,263,163,262.6,162.5,262.6z"/>
	<path class="st5" d="M157.3,258.5c-0.6,0-1,0.5-1,1s0.5,1,1,1c0.6,0,1-0.5,1-1S157.9,258.5,157.3,258.5z"/>
	<path class="st5" d="M157.3,243.1c-0.6,0-1,0.5-1,1c0,0.6,0.5,1,1,1s1-0.5,1-1c0,0,0,0,0,0C158.4,243.5,157.9,243.1,157.3,243.1z"
		/>
	<path class="st5" d="M157.3,248.2c-0.6,0-1,0.5-1,1.1c0,0.6,0.5,1,1,1s1-0.5,1-1c0,0,0,0,0-0.1
		C158.3,248.6,157.9,248.2,157.3,248.2z"/>
	<path class="st5" d="M157.3,253.3c-0.6,0-1,0.5-1,1s0.5,1,1,1s1-0.5,1-1S157.9,253.3,157.3,253.3z"/>
	<circle class="st5" cx="162.5" cy="273.8" r="1"/>
	<path class="st5" d="M162.5,267.7c-0.6,0-1,0.5-1,1c0,0.5,0.4,0.9,1,1c0.6,0,1.1-0.4,1.1-1C163.5,268.1,163,267.7,162.5,267.7z"/>
	<path class="st5" d="M136.8,259.6c0.6,0,1-0.5,1-1s-0.5-1-1-1s-1,0.5-1,1S136.3,259.6,136.8,259.6z"/>
	<path class="st5" d="M136.8,249.4c0.6,0,1-0.5,1-1s-0.5-1-1-1s-1,0.5-1,1S136.3,249.4,136.8,249.4z"/>
	<path class="st5" d="M136.8,254.5c0.6,0,1-0.5,1-1c0-0.6-0.5-1-1-1c-0.6,0-1,0.5-1,1C135.8,254.1,136.3,254.5,136.8,254.5z"/>
	<path class="st5" d="M131.7,253.5c-0.6,0-1,0.5-1,1s0.5,1,1,1c0.6,0,1-0.5,1-1C132.7,254,132.3,253.5,131.7,253.5z"/>
	<path class="st5" d="M125.5,255.5c0,0.6,0.5,1,1,1c0.6,0,1-0.5,1-1c0-0.5-0.5-1-1-1C126,254.5,125.6,255,125.5,255.5z"/>
	<path class="st5" d="M142,253.3c0.6,0,1-0.5,1-1c0,0,0,0,0,0c0-0.6-0.5-1-1-1c-0.6,0-1,0.5-1,1S141.4,253.3,142,253.3z"/>
	<path class="st5" d="M131.7,250.4c0.6,0,1-0.5,1-1c0-0.6-0.5-1-1-1s-1,0.5-1,1C130.7,250,131.1,250.4,131.7,250.4z"/>
	<path class="st5" d="M131.7,258.6c-0.6,0-1,0.5-1,1s0.5,1,1,1c0.6,0,1-0.5,1-1C132.7,259.1,132.3,258.6,131.7,258.6z"/>
	<path class="st5" d="M140.9,257.4C140.9,257.5,140.9,257.5,140.9,257.4c0,0.2,0,0.3,0.1,0.4c0.1,0.4,0.5,0.7,1,0.7
		c0.6,0,1-0.5,1-1.1c0-0.5-0.4-1-0.9-1c0,0-0.1,0-0.1,0C141.4,256.4,140.9,256.9,140.9,257.4z"/>
	<path class="st5" d="M142,248.2c0.6,0,1-0.5,1-1c0-0.6-0.5-1-1-1s-1,0.5-1,1c0,0,0,0,0,0C140.9,247.7,141.4,248.2,142,248.2z"/>
	<path class="st15" d="M63.1,168c0,3.2,2.5,5.8,6.1,5.8h34.7c3.7,0,6.1-2.6,6.1-5.8c0-3.2-2.5-5.9-6.1-5.9H69.2
		C65.6,162.1,63.1,164.8,63.1,168z M103.9,163.6c2.9,0,4.7,2,4.7,4.4c0,2.4-1.8,4.4-4.7,4.4H69.3c-2.9,0-4.7-2-4.7-4.4
		s1.8-4.4,4.7-4.4H103.9z"/>
	<path class="st15" d="M91.9,168.3c0-0.3,0.3-0.7,0.8-0.7c0.4,0,0.7,0.4,0.7,0.7v2.4H95c0,0,0-1.7,0-2c0-1.5-1.2-1.9-1.8-1.8
		c-0.5,0-1,0.3-1.3,0.6c0-0.1,0-0.4,0-0.4l-1.6,0l0,3.7h1.6L91.9,168.3z"/>
	<path class="st15" d="M105.6,166h0.2l0.3,0.5h0.2L106,166c0.2,0,0.3-0.1,0.3-0.3c0-0.2-0.1-0.4-0.4-0.4h-0.5v1.3h0.2V166z
		 M105.6,165.5h0.3c0.1,0,0.3,0,0.3,0.2c0,0.2-0.1,0.2-0.3,0.2c0,0-0.2,0-0.2,0V165.5z"/>
	<path class="st15" d="M96.7,170.7c0.6,0.3,1.3,0.3,1.9-0.1l0,0.2h1.6v-5.5h-1.6c0,0,0,1.2,0,2c-0.3-0.1-0.5-0.3-0.9-0.3
		c-1.2-0.1-2.1,0.9-2.1,1.9C95.6,170.1,96.5,170.6,96.7,170.7z M97.3,168.2c0-0.6,0.4-0.7,0.6-0.7c0.3,0,0.6,0.1,0.6,0.7v0.7v0.6
		c0,0.6-0.4,0.7-0.6,0.7c-0.3,0-0.6-0.1-0.6-0.7l0-0.6L97.3,168.2z"/>
	<polygon class="st15" points="89.8,168.9 89.8,168.9 89.8,168.9 	"/>
	<path class="st15" d="M87.4,171c1.1,0,2-0.6,2.3-1.5l-1.6,0l0,0.2c0,0.7-0.4,0.8-0.7,0.8c-0.2,0-0.7-0.1-0.7-0.8l0-0.8h3.1
		c0-1.1-1.1-2.1-2.4-2.1c-1.3,0-2.4,0.9-2.4,2.1C84.9,170,86,171,87.4,171z M86.8,167.6c0.1-0.2,0.3-0.3,0.6-0.3
		c0.2,0,0.5,0.1,0.6,0.3c0.1,0.2,0.1,0.4,0.1,0.7h-1.4C86.7,168,86.7,167.8,86.8,167.6z"/>
	<path class="st15" d="M103.1,170.9c1.3,0,2.4-0.9,2.4-2.1c0-1.1-1.1-2.1-2.4-2.1c-1.3,0-2.4,0.9-2.4,2.1
		C100.7,170,101.8,170.9,103.1,170.9z M102.4,168.9l0-0.8c0-0.6,0.3-0.8,0.7-0.8s0.7,0.2,0.7,0.8l0,0.8v0.8c0,0.6-0.3,0.8-0.7,0.8
		c-0.3,0-0.7-0.2-0.7-0.8L102.4,168.9z"/>
	<rect x="74.4" y="167.1" class="st15" width="1.6" height="3.7"/>
	<rect x="74.4" y="165.2" class="st15" width="1.6" height="1.1"/>
	<polygon class="st15" points="69.4,166.9 71.8,170.7 73.5,170.7 73.5,165.2 71.8,165.2 71.8,169.1 69.5,165.2 67.8,165.2 
		67.8,170.7 69.4,170.7 	"/>
	<polygon class="st15" points="82.6,170.7 84.3,170.7 84.3,167.1 85.2,167.1 85.2,166.5 84.3,166.5 84.3,165.8 82.6,165.8 
		82.6,166.5 81.7,166.5 81.7,167.1 82.6,167.1 	"/>
	<path class="st15" d="M78.6,170.7l0-2.4c0-0.3,0.3-0.7,0.8-0.7c0.4,0,0.7,0.4,0.7,0.7v2.4h1.6c0,0,0-1.7,0-2c0-1.5-1.2-1.9-1.8-1.8
		c-0.5,0-1,0.3-1.3,0.6c0-0.1,0-0.4,0-0.4l-1.6,0l0,3.7H78.6z"/>
	<path class="st15" d="M105.8,167c0.6,0,1.1-0.5,1.1-1.1c0-0.6-0.5-1.1-1.1-1.1c-0.6,0-1.1,0.5-1.1,1.1c0,0,0,0,0,0
		C104.8,166.6,105.3,167,105.8,167z M105.8,165c0.5,0,0.9,0.4,0.9,0.9c0,0.5-0.4,0.9-0.9,0.9c-0.5,0-0.9-0.4-0.9-0.9
		C105,165.4,105.4,165,105.8,165z"/>
	<polygon class="st15" points="33,5.6 38.5,5.6 35.7,1.7 	"/>
	<path class="st15" d="M45.2,2c0.3,0,0.6,0.1,0.9,0.2l0.1-0.4c-0.1-0.1-0.5-0.2-1-0.2c-1.4,0-2.3,0.9-2.3,2.1c0,1.3,0.9,2,2.2,2
		c0.5,0,0.9-0.1,1.2-0.2l-0.1-0.4c-0.2,0.1-0.6,0.2-0.9,0.2c-1.1,0-1.7-0.6-1.7-1.6C43.5,2.6,44.2,2,45.2,2z"/>
	<path class="st15" d="M48.5,1.5c-1.2,0-2,0.8-2,2.1c0,1.2,0.8,2.1,2,2.1c1.1,0,2-0.7,2-2.1C50.5,2.4,49.7,1.5,48.5,1.5z M48.5,5.3
		c-0.9,0-1.4-0.8-1.4-1.6c0-0.9,0.5-1.7,1.4-1.7c0.9,0,1.4,0.8,1.4,1.6C49.9,4.5,49.4,5.3,48.5,5.3z"/>
	<path class="st15" d="M54.6,1.6l-0.8,2c-0.2,0.5-0.4,1-0.5,1.4h0c-0.1-0.4-0.3-0.9-0.4-1.4l-0.7-2h-0.7l-0.3,4h0.5l0.1-1.7
		c0-0.6,0.1-1.2,0.1-1.8h0c0.1,0.5,0.3,1.1,0.5,1.6l0.7,1.9h0.4l0.8-2c0.2-0.6,0.4-1.1,0.6-1.5h0c0,0.6,0,1.2,0.1,1.7L55,5.7h0.6
		l-0.3-4H54.6z"/>
	<path class="st15" d="M59.8,1.6l-0.8,2c-0.2,0.5-0.4,1-0.5,1.4h0c-0.1-0.4-0.3-0.9-0.4-1.4l-0.7-2h-0.7l-0.3,4h0.5L57,3.9
		c0-0.6,0.1-1.2,0.1-1.8h0c0.1,0.5,0.3,1.1,0.5,1.6l0.7,1.9h0.4l0.8-2c0.2-0.6,0.4-1.1,0.6-1.5h0c0,0.6,0,1.2,0.1,1.7l0.1,1.8h0.6
		l-0.3-4H59.8z"/>
	<path class="st5" d="M80.7,247.2v-0.5c0-1.1-0.9-2.1-1.9-2.1h-11c-1.1,0-1.9,0.9-1.9,2.1v0.5c0,1.1,0.9,2.1,1.9,2.1h11
		C79.8,249.2,80.7,248.3,80.7,247.2L80.7,247.2z"/>
	<path class="st5" d="M105.4,249.2c1.1,0,1.9-0.9,1.9-2.1h0v-0.5c0-1.1-0.9-2.1-1.9-2.1h-11c-1.1,0-1.9,0.9-1.9,2.1v0.5
		c0,1.1,0.9,2.1,1.9,2.1H105.4z"/>
	<polygon class="st15" points="64.5,254.2 64.5,254.2 64.5,254.2 	"/>
	<polygon class="st15" points="80.5,253.7 82.1,253.7 82.1,257.9 82.8,257.9 82.8,253.7 84.4,253.7 84.4,253.1 80.5,253.1 	"/>
	<polygon class="st15" points="73.1,255.8 75,255.8 75,255.2 73.1,255.2 73.1,253.7 75.1,253.7 75.1,253.7 75.1,253.1 72.4,253.1 
		72.4,257.9 75.2,257.9 75.2,257.3 73.1,257.3 	"/>
	<path class="st15" d="M76.4,255.5c0-1.1,0.8-1.8,1.9-1.8c0.6,0,1.1,0.2,1.6,0.5h0v-0.7c-0.7-0.3-1.1-0.4-1.6-0.4
		c-1.5,0-2.6,1.1-2.6,2.5c0,1,0.8,2.4,2.6,2.4c0.7,0,1.3-0.2,1.7-0.4v-0.7c-0.5,0.3-1.1,0.5-1.7,0.5
		C77.2,257.3,76.4,256.6,76.4,255.5z"/>
	<polygon class="st15" points="69.7,253.1 69,253.1 69,257.9 71.8,257.9 71.8,257.3 69.7,257.3 	"/>
	<polygon class="st15" points="66.2,255.8 68.1,255.8 68.1,255.2 66.2,255.2 66.2,253.7 68.2,253.7 68.2,253.7 68.2,253.1 
		65.5,253.1 65.5,257.9 68.2,257.9 68.2,257.3 66.2,257.3 	"/>
	<path class="st15" d="M62.7,254.2c0-0.3,0.3-0.6,0.8-0.6c0.3,0,0.7,0.1,1.1,0.5v-0.8c-0.3-0.2-0.7-0.3-1.1-0.3
		c-0.9,0-1.5,0.5-1.5,1.3c0,1.3,2.1,1.4,2.1,2.4c0,0.3-0.2,0.6-0.8,0.6c-0.5,0-0.9-0.2-1.3-0.7v0.9c0.4,0.3,0.8,0.4,1.3,0.4
		c0.8,0,1.3-0.5,1.3-1.3C64.7,255.1,62.7,255.2,62.7,254.2z"/>
	<polygon class="st15" points="105.6,253.7 107.2,253.7 107.2,257.9 107.9,257.9 107.9,253.7 109.6,253.7 109.6,253.1 105.6,253.1 	
		"/>
	<g>
		<polygon class="st0" points="98.8,255.9 100.2,255.9 99.5,254.1 		"/>
		<path class="st0" d="M103.5,253.7h-0.4v1.5h0.4c0.7,0,0.9-0.4,0.9-0.8C104.5,254,104.2,253.7,103.5,253.7z"/>
		<polygon class="st15" points="93.3,254.2 93.3,254.2 93.3,254.2 		"/>
		<path class="st15" d="M99.2,253.1l-2.1,4.8h0.7l0.6-1.4h2l0.6,1.4h0.7l-2.1-4.8H99.2z M98.8,255.9l0.7-1.7l0.8,1.7H98.8z"/>
		<path class="st15" d="M105.4,257c-0.4-0.6-0.6-1-1.1-1.3c0.5-0.2,0.8-0.6,0.8-1.2c0-0.8-0.6-1.3-1.6-1.3c0,0-1.2,0-1.2,0v4.8h0.7
			v-2.1h0.3c0.4,0,0.6,0.1,1.3,1.1l0.6,1h0.8C105.8,257.4,105.6,257.3,105.4,257z M103.5,255.2h-0.4v-1.5h0.4c0.7,0,0.9,0.3,0.9,0.7
			C104.5,254.8,104.3,255.2,103.5,255.2z"/>
		<polygon class="st15" points="97.8,253.1 93.8,253.1 93.8,253.7 95.4,253.7 95.4,257.9 96.1,257.9 96.1,253.7 97.8,253.7 		"/>
		<path class="st15" d="M91.4,254.2c0-0.3,0.3-0.6,0.8-0.6c0.3,0,0.7,0.1,1.1,0.5v-0.8c-0.3-0.2-0.7-0.3-1.1-0.3
			c-0.9,0-1.4,0.5-1.4,1.3c0,1.3,2.1,1.4,2.1,2.4c0,0.3-0.2,0.6-0.8,0.6c-0.5,0-0.9-0.2-1.3-0.7v0.9c0.4,0.3,0.8,0.4,1.3,0.4
			c0.8,0,1.3-0.5,1.3-1.3C93.4,255.1,91.4,255.2,91.4,254.2z"/>
	</g>
</g>
</svg>
