<svg xmlns="http://www.w3.org/2000/svg" xmlns:xlink="http://www.w3.org/1999/xlink" viewBox="0 0 746.51 822.18"><defs><radialGradient id="a89d9925-72cc-47f1-99c1-8a1741b6444a" cx="121.61" cy="382.1" r="5.66" gradientTransform="matrix(1 0 0 .6 0 152.84)" xlink:href="#b80ab31a-0a83-4905-accc-3bde940f0dbc"/><radialGradient id="a689a3e2-60e2-4b77-9f61-d326a20d04f8" cx="217.55" cy="416.02" r="5.66" xlink:href="#a9fae91b-aa7f-4a79-81cb-8d04cfe9d518"/><radialGradient id="b475c9ff-8fa8-4b6f-8e31-1426817a586d" cx="195.83" cy="370.99" r="11.47" xlink:href="#a9fae91b-aa7f-4a79-81cb-8d04cfe9d518"/><radialGradient id="b80ab31a-0a83-4905-accc-3bde940f0dbc" cx="92.36" cy="393.88" r="5.66" gradientTransform="matrix(1 0 0 .6 0 157.55)" gradientUnits="userSpaceOnUse"><stop offset="0" stop-color="#0000ef"/><stop offset=".15" stop-color="#0000e9"/><stop offset=".34" stop-color="#0101d9"/><stop offset=".56" stop-color="#0101be"/><stop offset=".79" stop-color="#02029a"/><stop offset="1" stop-color="#020282"/></radialGradient><radialGradient id="bef29a89-fb2b-43c1-ac34-8b05537bcc21" cx="114.61" cy="393.88" r="5.66" xlink:href="#b80ab31a-0a83-4905-accc-3bde940f0dbc"/><radialGradient id="bd147cc5-0e79-407e-92b8-1e6610bb4d0c" cx="133.17" cy="400.04" r="5.66" gradientTransform="matrix(1 0 0 .6 0 160.02)" xlink:href="#b80ab31a-0a83-4905-accc-3bde940f0dbc"/><radialGradient id="acb8f5f8-0263-4d5f-86e5-0a85c0686055" cx="139.21" cy="387.78" r="5.66" gradientTransform="matrix(1 0 0 .6 0 155.11)" xlink:href="#b80ab31a-0a83-4905-accc-3bde940f0dbc"/><radialGradient id="a9fae91b-aa7f-4a79-81cb-8d04cfe9d518" cx="65.88" cy="348.77" r="11.47" gradientUnits="userSpaceOnUse"><stop offset="0" stop-color="#fd6d66"/><stop offset=".78" stop-color="#b50a03"/></radialGradient><radialGradient id="f4235d52-a5be-445b-bd3f-4540e56118dc" cx="100.32" cy="382.53" r="5.66" gradientTransform="matrix(1 0 0 .6 0 153.01)" xlink:href="#b80ab31a-0a83-4905-accc-3bde940f0dbc"/><radialGradient id="b234ab4f-0bc0-4f5d-8104-f4da72e98672" cx="225.51" cy="404.67" r="5.66" xlink:href="#a9fae91b-aa7f-4a79-81cb-8d04cfe9d518"/><radialGradient id="e1706bcc-3d71-41e3-b329-865314a280ff" cx="246.79" cy="404.24" r="5.66" xlink:href="#a9fae91b-aa7f-4a79-81cb-8d04cfe9d518"/><radialGradient id="b9e510de-82c6-42c7-a8d4-fcdc94719639" cx="264.4" cy="409.93" r="5.66" xlink:href="#a9fae91b-aa7f-4a79-81cb-8d04cfe9d518"/><radialGradient id="b5a76cc8-b124-4ee4-a818-f316aa8d13ed" cx="258.36" cy="422.19" r="5.66" xlink:href="#a9fae91b-aa7f-4a79-81cb-8d04cfe9d518"/><radialGradient id="ab4c4154-36da-4777-9345-af1f9a0c9f21" cx="239.79" cy="416.02" r="5.66" xlink:href="#a9fae91b-aa7f-4a79-81cb-8d04cfe9d518"/><style>.b9a4ace8-c5b0-4618-af1e-fa45c724a2ec{fill:#373735}.ab392d39-2107-4460-97f0-63ffce014f85{fill:#121211;stroke:#b5b5b5}.b20cc79c-7ea1-4df1-8b37-f169d08cc3fa,.b4132cb6-eb21-4813-b8be-1dcdf7c4d891,.b56c2604-e84d-48cd-824c-8e5ace5e5fed,.f3472c59-31f0-424f-a6c8-f522db068442{stroke:#b5b5b5}.ab392d39-2107-4460-97f0-63ffce014f85,.b20cc79c-7ea1-4df1-8b37-f169d08cc3fa,.b4132cb6-eb21-4813-b8be-1dcdf7c4d891,.b56c2604-e84d-48cd-824c-8e5ace5e5fed,.bd857c98-47f7-46c5-b018-651fc5df380b,.ead5b681-1718-4353-8e9e-5a9bc77aeacc,.ed447497-bb77-4b93-a17c-10c3b05f5b76,.f3472c59-31f0-424f-a6c8-f522db068442{stroke-miterlimit:10}.ab392d39-2107-4460-97f0-63ffce014f85,.b20cc79c-7ea1-4df1-8b37-f169d08cc3fa,.b4132cb6-eb21-4813-b8be-1dcdf7c4d891,.b56c2604-e84d-48cd-824c-8e5ace5e5fed,.ed447497-bb77-4b93-a17c-10c3b05f5b76,.f3472c59-31f0-424f-a6c8-f522db068442{stroke-width:.5px}.bd857c98-47f7-46c5-b018-651fc5df380b{fill:#443840;stroke:#090000}.ed447497-bb77-4b93-a17c-10c3b05f5b76{stroke:#090000}.bd857c98-47f7-46c5-b018-651fc5df380b{stroke-width:.75px}.ed447497-bb77-4b93-a17c-10c3b05f5b76{fill:#6b0c05}.a4d50e84-41b7-4d0c-8407-255d51e2abdc{fill:#86382f}.ead5b681-1718-4353-8e9e-5a9bc77aeacc{stroke:#373737}.e91fbb38-f473-47d6-9d0c-bfed45cfdc65{fill:#010205}.b4132cb6-eb21-4813-b8be-1dcdf7c4d891{fill:#dc6e05}.f3472c59-31f0-424f-a6c8-f522db068442{fill:#12e600}.b56c2604-e84d-48cd-824c-8e5ace5e5fed{fill:#0b47ce}.b20cc79c-7ea1-4df1-8b37-f169d08cc3fa,.be87e771-f572-49fc-85d2-3f42defec948{fill:#282826}.a724040e-aa58-4c20-a2c0-9ff1068791de{fill:#ae7a82}.bec06d35-ae5a-4b2d-9139-a0f0132db2ef{fill:url(#a9fae91b-aa7f-4a79-81cb-8d04cfe9d518)}.fdb6bed8-a54a-4b29-8f11-491402e7b95f{fill:url(#b475c9ff-8fa8-4b6f-8e31-1426817a586d)}.a22e60fc-48d4-421c-8bbd-92ea06f76e72{fill:#0000ef}.bb97eb16-f8d9-47b6-a488-fcde8a24247e{fill:#930303}.eacc1ea8-134d-4e8c-b196-fa14912440af{fill:#e7e7e7}.aaad1b95-c4d3-4cad-9ac9-ea8d68174d35{fill:#2c2b29}</style></defs><g id="b9cd3217-7492-4340-93ce-efe16043d0ac" data-name="Calque 1"><path id="a56b0af0-06b0-44b5-a9a7-94a33487d41b" data-name="ombre" style="opacity:.5;fill:#373735" d="m452.03 588.79 21.51-5.91H485.41l1.58 2.96 237.36 43.3h11.08l11.07 31.39-46.41 37.71-46.42 13.19-8.18-1.32.27-1.85-13.98-2.63-83.6 27.95-73.32 51.57-22.83 6.82-7.77-1.16v-2.63l-16.08-3.03-129.99 34.37 153.84-230.73z"/><g id="ad923708-30d5-408f-b078-a1b71411f497" data-name="bottom"><path class="b9a4ace8-c5b0-4618-af1e-fa45c724a2ec" d="m36 454.56 224.9 39.62v4.35l25.72 6.13-.4 311.34-248.24-47.27L36 454.56z"/><path class="ab392d39-2107-4460-97f0-63ffce014f85" d="m202 526.54-78.38-13.74c-3 .19-4.26 3.56-4.26 3.56l.2 85c.69 2.18 3.86 5 3.86 5l74.27 13.46c5.14.49 7.52-5.25 7.52-5.25v-82.69a7.12 7.12 0 0 0-3.21-5.34zm-49.9 22.55-18.69-3.46v-20l2.27-1.88 18.1 3.07-1.78 2.69zm31.45 6.13-18.69-3.46v-20l2.27-1.87 18.1 3.06-1.78 2.67z" transform="translate(-.98 -.52)"/><path class="bd857c98-47f7-46c5-b018-651fc5df380b" d="m134.7 523.25-2.27 1.88v19.98l18.69 3.46-.1-19.58 1.78-2.67-18.1-3.07zM166.15 529.38l-2.27 1.88v19.98l18.69 3.46-.1-19.58 1.78-2.67-18.1-3.07z"/><path class="ed447497-bb77-4b93-a17c-10c3b05f5b76" d="M140.14 543.03v-12.85l8.01 1.78v12.56l-8.01-1.49zM171.2 548.87v-12.86l8.01 1.78v12.56l-8.01-1.48z"/><path d="M135.23 543.16v-15.23l2.05.4v15.16l-2.05-.33zM166.68 548.7v-15.23l2.04.4v15.16l-2.04-.33z"/><path class="a4d50e84-41b7-4d0c-8407-255d51e2abdc" d="M140.4 530.69v-.35l7.47 1.8.01.43-7.48-1.88zM171.46 536.62v-.29l7.47 1.64.01.35-7.48-1.7z"/><circle cx="192.4" cy="574.85" r="4.25" style="fill:#8b8b8b;stroke-width:.75px;stroke:#090000;stroke-miterlimit:10"/><path class="ead5b681-1718-4353-8e9e-5a9bc77aeacc" d="M136.29 598.71v-11.27l11.96 2.18v11.3l-11.96-2.21zM167.54 604.25v-11.27l11.96 2.17v10.88l-11.96-1.78z"/></g><g id="b44564a2-0184-4aa1-859c-3fbb0b93f8d2" data-name="t molding"><path class="e91fbb38-f473-47d6-9d0c-bfed45cfdc65" d="m11.46 450.59-.79-39.76L1 407.66v45.1l27.89 5.54c.59 103.55 1 207.6 1.58 311.15a6.18 6.18 0 0 0 3.53 2.19 12.58 12.58 0 0 0 5 0l-2-316.56zM272.36 497v-41.27l-10.28-1.19-.2 44.51 25.71 6.13s-1.51 313.85 0 315.69 8.77 1.32 8.77 1.32l.93-319.91z" transform="translate(-.98 -.52)"/><path class="e91fbb38-f473-47d6-9d0c-bfed45cfdc65" d="m78.72 346.42-8.15-1.3 16.26-218.56 9.04 1.5-17.15 218.36zM329.24 388.85l9.1 1.28 18.49-224.31h-26.37l-.26-90.92-10.06-1.84v94.84l6.04 1.09h20.27l-17.21 219.86z"/><path class="e91fbb38-f473-47d6-9d0c-bfed45cfdc65" d="M88.49 127.19s-28.17-.35-29.11-.85c0-31.21.06-62.83 0-94l9.36 2.64.48 89.02z" transform="translate(-.98 -.52)"/><g id="aed36f67-80c6-47e1-a816-e690bdff516d" data-name="clair"><path class="e91fbb38-f473-47d6-9d0c-bfed45cfdc65" d="m0 407.14 9.69 3.17L78 346.25l-8.11-1.94L0 407.14zM261.1 454.02l10.28 1.19 66.96-65.87-8.62-1.6-68.62 66.28zM111.56 0 58.42 31.78l9.36 2.64L120.36 3.3l2.74-1.62-2.57-.36L111.56 0zM383.74 40.62l-11.21-.8-52.39 33.24 10.06 1.84 53.54-34.28z"/></g></g><g id="f3da78c5-5101-4fb1-9d52-c931538d1e36" data-name="side"><path class="ab392d39-2107-4460-97f0-63ffce014f85" d="m453.13 308.64.63-159.63-70.02-108.39L330.2 74.9l.26 90.92h26.37l-18.49 224.31-66.96 65.08v41.27l24.93 5.28-.93 319.91 8.25-6.32 149.65-543.7-.21 21.51-142.1 516.55-1.61 1.24 6.94-5.32 136.83-496.99zM324.06 799.15l-7.76 6.48 11.99-9.2 124.7-453.24.05-12.13-128.98 468.09zM335.43 790.95l-1.32 1.02 6.87-5.27 111.79-407.64v21.25l.22-57.12-.22 24-117.34 423.76zM343 785.15l108.58-83.28 1.18-299.85L347.4 781.78l-4.4 3.37z"/><path style="fill:#bf0000;stroke-width:.5px;stroke-miterlimit:10;stroke:#b5b5b5" d="m303.63 815.35 5.73-4.4-5.73 4.4z"/><path class="e91fbb38-f473-47d6-9d0c-bfed45cfdc65" d="m453.07 293.16.21-21.51-149.65 543.7 5.73-4.4 1.61-1.24 142.1-516.55z"/><path class="b4132cb6-eb21-4813-b8be-1dcdf7c4d891" d="M453.13 330.74v-22.1l-.09 22.42.09-.32zM316.3 805.63z"/><path style="fill:#246bbd" d="m453.04 331.06.09-22.42L316.3 805.63l7.76-6.48 128.98-468.09z"/><path class="f3472c59-31f0-424f-a6c8-f522db068442" d="M452.99 343.19zM328.29 796.43l5.82-4.46-5.82 4.46z"/><path style="fill:#498ddd" d="m334.11 791.97 1.32-1.02 117.34-423.76.22-24-124.7 453.24 5.82-4.46z"/><path class="b56c2604-e84d-48cd-824c-8e5ace5e5fed" d="m340.98 786.7 2.02-1.55-2.02 1.55zM452.77 402v-1.69l-.01 1.71.01-.02z"/><path style="fill:#f7fafd" d="m340.98 786.7 2.02-1.55 4.4-3.37 105.36-379.76.01-1.71v-21.25L340.98 786.7z"/></g><g id="ee609a29-de1e-49c1-91bb-466f3bb2cc9f" data-name="panel"><path class="b20cc79c-7ea1-4df1-8b37-f169d08cc3fa" d="m10.48 450.07 250.42 44.11.2-40.16L9.69 410.31l.79 39.76z"/><path class="b9a4ace8-c5b0-4618-af1e-fa45c724a2ec" d="m79.37 345.21-69.68 65.1 251.41 43.71 68.62-66.28-250.35-42.53z"/></g><g id="a058c0ad-1edf-4f5c-8f70-ed5aae02e3e2" data-name="ecran"><path class="b20cc79c-7ea1-4df1-8b37-f169d08cc3fa" d="M96.84 129.36 79.7 347.72l250.52 42.43L347.82 168zm224.28 67.76c0 .2-.29.32-.48.49l-10.43 144.83a35.43 35.43 0 0 1-4.3 3.78l1.4.29v10.7s-1.4 4.75-11.08 2.64c-11.19-2.44-178.55-31.91-178.55-31.91l8.72-6.78v-1.39s-2.46.52-6-7l-12.48 2.77h-4l11.34-158.77s4-6.85 10.81-6.59 191.16 30.59 191.16 30.59 6.17 1.07 3.89 16.35z" transform="translate(-.98 -.52)"/><path d="M317.28 180S133 149.66 126.12 149.4s-10.81 6.6-10.81 6.6l-11.74 160.08h4.35l12.29-2.68c-.1-.23-.74-1.57-.85-1.8L131 166.54s2.11-5.54 7.12-7.38l177.49 27.16a20.77 20.77 0 0 1 5.11 9.76l-.05.75c.19-.17.62.66.66.47 3.23-14.06-4.05-17.3-4.05-17.3z" transform="translate(-.98 -.52)" style="fill:#151312"/><path d="m125.32 320-8.56 8s164.63 29.3 178.61 32.24c10.36 2.17 14.43-3.58 14.43-3.58l.61-7.37.39-7.71-4.89 3.84a20.85 20.85 0 0 1-7.73 3.87z" transform="translate(-.98 -.52)" style="fill:#555353"/><path d="M319.5 197.81c.45-.36.83-.69 1.14-1l.66-.52a20.31 20.31 0 0 0-5.72-10l-177.49-27.13c-5 1.84-7.12 7.38-7.12 7.38L119.36 311.6l.32.66c3.54 7.52 6.28 8 6.28 8l.44.08 171.78 28.93a20.85 20.85 0 0 0 7.73-3.87c2.57-1.91 4.89-3.84 4.89-3.84l10.5-145.29c-.44.46-1.05.96-1.8 1.54zM143.83 302.35z" transform="translate(-.98 -.52)" style="fill:#008aa6"/></g><g id="b97c27f7-7c95-4dbe-982c-e436439db2aa" data-name="top"><path id="e49139aa-645c-4b64-a007-9c6e6723955a" data-name="marquee" class="b20cc79c-7ea1-4df1-8b37-f169d08cc3fa" d="m68.24 123.5 251.47 39.03.43-89.47L67.78 34.42l.46 89.08z"/><path style="stroke-miterlimit:10;stroke:#b5b5b5;fill:#373735" d="m128.84 2.64-5.74-.96-55.32 32.74 252.36 38.64 52.39-33.24L128.84 2.64z"/></g><g id="fd5af98a-c298-4acd-b933-4cda1faed369" data-name="stickp1"><path class="be87e771-f572-49fc-85d2-3f42defec948" d="M68.92 377.27v5.16H62.4v-5.16c-5.06.64-8.77 2.7-8.77 5.16 0 3 5.38 5.35 12 5.35s12-2.39 12-5.35c.06-2.43-3.63-4.52-8.71-5.16z" transform="translate(-.98 -.52)"/><path class="a724040e-aa58-4c20-a2c0-9ff1068791de" d="M68.92 377.27v-17.78a12.18 12.18 0 0 1-3 .39 12.4 12.4 0 0 1-3.48-.49v17.88a26.67 26.67 0 0 1 6.52 0z" transform="translate(-.98 -.52)"/><path class="a724040e-aa58-4c20-a2c0-9ff1068791de" d="M68.92 382.43v-5.16a26.67 26.67 0 0 0-6.52 0v5.16z" transform="translate(-.98 -.52)"/><path class="bec06d35-ae5a-4b2d-9139-a0f0132db2ef" d="M68.92 358.89v.6a11.24 11.24 0 0 0 8.77-10.72c0-6.14-5.29-11.11-11.81-11.11s-11.82 5-11.82 11.11a11.22 11.22 0 0 0 8.34 10.62v-.5z" transform="translate(-.98 -.52)"/><path class="a724040e-aa58-4c20-a2c0-9ff1068791de" d="M68.92 359.49v-.6H62.4v.5a12.4 12.4 0 0 0 3.48.49 12.18 12.18 0 0 0 3.04-.39z" transform="translate(-.98 -.52)"/><path class="bec06d35-ae5a-4b2d-9139-a0f0132db2ef" d="M68.92 359.49v-.6H62.4v.5a12.4 12.4 0 0 0 3.48.49 12.18 12.18 0 0 0 3.04-.39z" transform="translate(-.98 -.52)"/></g><g id="b0bc9102-117d-4415-93fb-3298bf734ebc" data-name="stickp2"><path class="be87e771-f572-49fc-85d2-3f42defec948" d="M198.88 399.49v5.16h-6.53v-5.16c-5 .64-8.77 2.7-8.77 5.16 0 3 5.39 5.35 12 5.35s12-2.39 12-5.35c.07-2.46-3.64-4.52-8.7-5.16z" transform="translate(-.98 -.52)"/><path class="a724040e-aa58-4c20-a2c0-9ff1068791de" d="M198.88 399.49v-17.78a12.2 12.2 0 0 1-3 .39 12.83 12.83 0 0 1-3.48-.49v17.88a26.75 26.75 0 0 1 6.53 0z" transform="translate(-.98 -.52)"/><path class="a724040e-aa58-4c20-a2c0-9ff1068791de" d="M198.88 404.65v-5.16a26.75 26.75 0 0 0-6.53 0v5.16z" transform="translate(-.98 -.52)"/><path class="fdb6bed8-a54a-4b29-8f11-491402e7b95f" d="M198.88 381.11v.6a11.24 11.24 0 0 0 8.77-10.71c0-6.14-5.29-11.11-11.82-11.11S184 364.85 184 371a11.22 11.22 0 0 0 8.34 10.62v-.5z" transform="translate(-.98 -.52)"/><path class="a724040e-aa58-4c20-a2c0-9ff1068791de" d="M198.88 381.71v-.6h-6.53v.5a12.83 12.83 0 0 0 3.48.49 12.2 12.2 0 0 0 3.05-.39z" transform="translate(-.98 -.52)"/><path class="fdb6bed8-a54a-4b29-8f11-491402e7b95f" d="M198.88 381.71v-.6h-6.53v.5a12.83 12.83 0 0 0 3.48.49 12.2 12.2 0 0 0 3.05-.39z" transform="translate(-.98 -.52)"/></g><g id="e6e157cf-113a-4a8a-888b-ccddc17f132f" data-name="boutons P1"><g id="e67143bf-fe17-471c-91ae-ef9c44cdf201" data-name="4"><path class="a22e60fc-48d4-421c-8bbd-92ea06f76e72" d="M92.54 389.14c-3.86 0-8.12 1.53-8.12 4.87 0 2.95 4.1 4.62 7.94 4.62 4.11 0 8-1.73 8-4.88-.04-2.35-3.88-4.61-7.82-4.61zm-.18 8.63c-3.86 0-7-1.74-7-3.89s3.13-3.89 7-3.89 7 1.74 7 3.89-3.14 3.89-7 3.89z" transform="translate(-.98 -.52)"/><path d="M92.36 390c-3.86 0-7 1.74-7 3.89s3.13 3.89 7 3.89 7-1.74 7-3.89-3.14-3.89-7-3.89z" transform="translate(-.98 -.52)" style="fill:url(#b80ab31a-0a83-4905-accc-3bde940f0dbc)"/></g><g id="ac7b857c-fa97-40ad-9ff8-fe755280bdea" data-name="5"><path class="a22e60fc-48d4-421c-8bbd-92ea06f76e72" d="M114.79 389.14c-3.86 0-8.12 1.53-8.12 4.87 0 2.95 4.1 4.62 7.94 4.62 4.11 0 8-1.73 8-4.88-.04-2.35-3.88-4.61-7.82-4.61zm-.18 8.63c-3.86 0-7-1.74-7-3.89s3.13-3.89 7-3.89 7 1.74 7 3.89-3.14 3.89-7 3.89z" transform="translate(-.98 -.52)"/><path d="M114.61 390c-3.86 0-7 1.74-7 3.89s3.13 3.89 7 3.89 7-1.74 7-3.89-3.14-3.89-7-3.89z" transform="translate(-.98 -.52)" style="fill:url(#bef29a89-fb2b-43c1-ac34-8b05537bcc21)"/></g><g id="af2e516e-ac13-4eee-92ff-b4f61a17eec7" data-name="6"><path class="a22e60fc-48d4-421c-8bbd-92ea06f76e72" d="M133.35 395.3c-3.86 0-8.13 1.53-8.13 4.87 0 3 4.11 4.62 7.95 4.62 4.1 0 8-1.73 8-4.88-.04-2.35-3.88-4.61-7.82-4.61zm-.18 8.63c-3.86 0-7-1.74-7-3.89s3.13-3.89 7-3.89 7 1.74 7 3.89-3.17 3.89-7 3.89z" transform="translate(-.98 -.52)"/><path d="M133.17 396.15c-3.86 0-7 1.74-7 3.89s3.13 3.89 7 3.89 7-1.74 7-3.89-3.17-3.89-7-3.89z" transform="translate(-.98 -.52)" style="fill:url(#bd147cc5-0e79-407e-92b8-1e6610bb4d0c)"/></g><g id="a71a99d4-f5b2-483b-b3f3-0f6201f8a08c" data-name="3"><path class="a22e60fc-48d4-421c-8bbd-92ea06f76e72" d="M139.39 383c-3.86 0-8.13 1.53-8.13 4.88 0 2.95 4.11 4.61 8 4.61 4.1 0 8-1.73 8-4.88-.09-2.31-3.93-4.61-7.87-4.61zm-.18 8.63c-3.86 0-7-1.74-7-3.89s3.13-3.89 7-3.89 7 1.75 7 3.89-3.14 3.93-7 3.93z" transform="translate(-.98 -.52)"/><path d="M139.21 383.89c-3.86 0-7 1.75-7 3.89s3.13 3.89 7 3.89 7-1.74 7-3.89-3.14-3.89-7-3.89z" transform="translate(-.98 -.52)" style="fill:url(#acb8f5f8-0263-4d5f-86e5-0a85c0686055)"/></g><g id="b614705f-fd8e-4946-8db8-2adca252a475" data-name="2"><path class="a22e60fc-48d4-421c-8bbd-92ea06f76e72" d="M121.79 377.35c-3.86 0-8.12 1.53-8.12 4.88 0 2.95 4.1 4.61 7.94 4.61 4.11 0 8-1.73 8-4.88-.04-2.34-3.88-4.61-7.82-4.61zm-.18 8.64c-3.86 0-7-1.74-7-3.89s3.13-3.89 7-3.89 7 1.74 7 3.89-3.14 3.9-7 3.9z" transform="translate(-.98 -.52)"/><path d="M121.61 378.21c-3.86 0-7 1.74-7 3.89s3.13 3.89 7 3.89 7-1.74 7-3.89-3.14-3.89-7-3.89z" transform="translate(-.98 -.52)" style="fill:url(#a89d9925-72cc-47f1-99c1-8a1741b6444a)"/></g><g id="fc5bb806-9312-4ea6-8635-689285f36f13" data-name="1"><path class="a22e60fc-48d4-421c-8bbd-92ea06f76e72" d="M100.5 377.78c-3.86 0-8.13 1.53-8.13 4.88 0 2.95 4.11 4.62 7.95 4.62 4.1 0 8-1.73 8-4.88-.04-2.35-3.88-4.62-7.82-4.62zm-.18 8.64c-3.86 0-7-1.74-7-3.89s3.13-3.89 7-3.89 7 1.74 7 3.89-3.14 3.89-7 3.89z" transform="translate(-.98 -.52)"/><path d="M100.32 378.64c-3.86 0-7 1.74-7 3.89s3.13 3.89 7 3.89 7-1.74 7-3.89-3.14-3.89-7-3.89z" transform="translate(-.98 -.52)" style="fill:url(#f4235d52-a5be-445b-bd3f-4540e56118dc)"/></g></g><g id="b93f7bf7-cc38-487d-bc70-db1130690480" data-name="boutons P2"><g id="b0452668-008a-48f0-afd2-78c4f79e0f03" data-name="1"><path class="bb97eb16-f8d9-47b6-a488-fcde8a24247e" d="M225.69 399.93c-3.86 0-8.13 1.53-8.13 4.87 0 2.95 4.11 4.62 7.95 4.62 4.1 0 8-1.73 8-4.88-.04-2.35-3.88-4.61-7.82-4.61zm-.18 8.63c-3.86 0-7-1.74-7-3.89s3.13-3.89 7-3.89 7 1.74 7 3.89-3.14 3.89-7 3.89z" transform="translate(-.98 -.52)"/><path d="M225.51 400.78c-3.86 0-7 1.74-7 3.89s3.13 3.89 7 3.89 7-1.74 7-3.89-3.14-3.89-7-3.89z" transform="translate(-.98 -.52)" style="fill:url(#b234ab4f-0bc0-4f5d-8104-f4da72e98672)"/></g><g id="efb7925d-52ee-4aa0-8958-d20b19e9f22f" data-name="2"><path class="bb97eb16-f8d9-47b6-a488-fcde8a24247e" d="M247 399.49c-3.86 0-8.13 1.54-8.13 4.88 0 2.95 4.11 4.62 7.95 4.62 4.1 0 8-1.73 8-4.88-.07-2.35-3.91-4.62-7.82-4.62zm-.18 8.64c-3.86 0-7-1.74-7-3.89s3.13-3.89 7-3.89 7 1.74 7 3.89-3.17 3.89-7.03 3.89z" transform="translate(-.98 -.52)"/><path d="M246.79 400.35c-3.86 0-7 1.74-7 3.89s3.13 3.89 7 3.89 7-1.74 7-3.89-3.14-3.89-7-3.89z" transform="translate(-.98 -.52)" style="fill:url(#e1706bcc-3d71-41e3-b329-865314a280ff)"/></g><g id="e3c1a90f-c932-4fe7-9115-75587f34831e" data-name="3"><path class="bb97eb16-f8d9-47b6-a488-fcde8a24247e" d="M264.58 405.18c-3.86 0-8.12 1.53-8.12 4.88 0 2.95 4.1 4.61 7.94 4.61 4.1 0 8-1.73 8-4.88-.04-2.35-3.88-4.61-7.82-4.61zm-.18 8.64c-3.86 0-7-1.75-7-3.89s3.13-3.89 7-3.89 7 1.74 7 3.89-3.14 3.89-7 3.89z" transform="translate(-.98 -.52)"/><path d="M264.4 406c-3.86 0-7 1.74-7 3.89s3.13 3.89 7 3.89 7-1.75 7-3.89-3.14-3.89-7-3.89z" transform="translate(-.98 -.52)" style="fill:url(#b9e510de-82c6-42c7-a8d4-fcdc94719639)"/></g><g id="e77e5b08-0424-4466-bfe3-3e1a4fa0b0a3" data-name="4"><path class="bb97eb16-f8d9-47b6-a488-fcde8a24247e" d="M258.54 417.44c-3.86 0-8.13 1.53-8.13 4.88 0 2.95 4.11 4.61 8 4.61 4.1 0 8-1.73 8-4.88-.09-2.35-3.93-4.61-7.87-4.61zm-.18 8.64c-3.86 0-7-1.75-7-3.89s3.13-3.89 7-3.89 7 1.74 7 3.89-3.14 3.89-7 3.89z" transform="translate(-.98 -.52)"/><path d="M258.36 418.3c-3.86 0-7 1.74-7 3.89s3.13 3.89 7 3.89 7-1.75 7-3.89-3.14-3.89-7-3.89z" transform="translate(-.98 -.52)" style="fill:url(#b5a76cc8-b124-4ee4-a818-f316aa8d13ed)"/></g><g id="fe5c56a6-f60b-40c8-a85a-021af229e727" data-name="5"><path class="bb97eb16-f8d9-47b6-a488-fcde8a24247e" d="M240 411.28c-3.86 0-8.13 1.53-8.13 4.88 0 2.95 4.11 4.61 7.95 4.61 4.1 0 8-1.73 8-4.88-.07-2.35-3.91-4.61-7.82-4.61zm-.18 8.63c-3.86 0-7-1.74-7-3.89s3.13-3.89 7-3.89 7 1.75 7 3.89-3.17 3.89-7.03 3.89z" transform="translate(-.98 -.52)"/><path d="M239.79 412.13c-3.86 0-7 1.75-7 3.89s3.13 3.89 7 3.89 7-1.74 7-3.89-3.14-3.89-7-3.89z" transform="translate(-.98 -.52)" style="fill:url(#ab4c4154-36da-4777-9345-af1f9a0c9f21)"/></g><g id="b66e0e24-d23e-4ee3-9e74-17965e6714d2" data-name="6"><path class="bb97eb16-f8d9-47b6-a488-fcde8a24247e" d="M217.73 411.28c-3.86 0-8.13 1.53-8.13 4.88 0 2.95 4.11 4.61 8 4.61 4.1 0 8-1.73 8-4.88-.09-2.35-3.93-4.61-7.87-4.61zm-.18 8.63c-3.86 0-7-1.74-7-3.89s3.13-3.89 7-3.89 7 1.75 7 3.89-3.14 3.89-7 3.89z" transform="translate(-.98 -.52)"/><path d="M217.55 412.13c-3.86 0-7 1.75-7 3.89s3.13 3.89 7 3.89 7-1.74 7-3.89-3.14-3.89-7-3.89z" transform="translate(-.98 -.52)" style="fill:url(#a689a3e2-60e2-4b77-9f61-d326a20d04f8)"/></g></g><path class="eacc1ea8-134d-4e8c-b196-fa14912440af" d="M228.57 237.19v.07l-5.92-1v-.08zM236.56 238.53a.13.13 0 0 0 0 .06l-5.72-1v-.06z" transform="translate(-.98 -.52)"/><path class="aaad1b95-c4d3-4cad-9ac9-ea8d68174d35" d="m210.17 273.38-65.56-11c-.87-.14-.87-.14-.74-.92.25-1.54.47-3.08.75-4.61.78-4.31 1.48-8.63 2.22-12.95.09-.48.22-1 .29-1.44 0-.18.12-.23.31-.19l.75.13 119.31 19.98a16.13 16.13 0 0 1 4.69 1.42 11.54 11.54 0 0 1 5.67 5.9 8.36 8.36 0 0 1 .63 3.88c0 .38-.08.76-.15 1.14l-1.56 9.36c-.07.39-.13.42-.54.36l-40.11-6.72zm14.68-7.7c-.4 2.35-.79 4.71-1.19 7.07 0 .23 0 .34.3.38 1 .15 1.95.32 2.93.49.51.09.51.09.59-.37q.69-4.22 1.4-8.43c0-.08 0-.21.12-.22s.13.1.17.17c1.69 3.14 3.43 6.26 5.06 9.42a2.38 2.38 0 0 0 3.55.6c.9-.94 1.91-1.79 2.87-2.68l4.89-4.53c.08-.07.15-.22.26-.17s0 .2 0 .31v.12c-.47 2.79-.93 5.58-1.4 8.37 0 .25 0 .35.31.4 1 .16 2 .32 3.06.51.34.07.45 0 .49-.32l2.32-13.83a1.32 1.32 0 0 0-.25-1 2.34 2.34 0 0 0-3.26-.37l-2.16 2-8.12 7.4c-.25.23-.28.22-.45-.08-2.2-4.06-4.42-8.11-6.61-12.17a2.14 2.14 0 0 0-1.43-1.06A1.74 1.74 0 0 0 226 259zm-4.51-.71c.38-2.31.76-4.61 1.16-6.92a1.32 1.32 0 0 0-.45-1.21 2.4 2.4 0 0 0-3.17 0c-2.39 2.24-4.82 4.43-7.24 6.63l-2.95 2.7c-.13.12-.23.25-.37 0l-3.44-6.31c-1.1-2-2.19-4-3.3-6a2.24 2.24 0 0 0-2.21-1 1.52 1.52 0 0 0-1.5 1.37q-1.16 6.86-2.3 13.71c0 .28.05.37.35.41 1 .15 2 .32 3 .5.44.07.45.08.51-.3.46-2.73.91-5.46 1.37-8.19 0-.13 0-.27.06-.4s0-.16.11-.17.1.08.13.14.18.34.28.51c1.63 3 3.29 6 4.88 9.07a2.34 2.34 0 0 0 3.35.6c.47-.47 1-.91 1.48-1.37l6.5-6c.06-.05.09-.14.19-.11s.07.14.06.22c-.14.81-.28 1.62-.41 2.44-.35 2.06-.69 4.13-1 6.2 0 .22 0 .32.29.36l3 .5c.44.07.45.07.52-.31q.51-3.6 1.1-7.04zm33.15 5.67c-.38 2.28-.76 4.57-1.15 6.85-.06.31.06.41.38.45 1 .16 2 .32 3 .5.33.07.45 0 .5-.31.16-1 .35-2.08.51-3.12 0-.23.12-.33.4-.28l12.77 2.14c.33.05.39.18.34.45-.18 1-.34 2.08-.53 3.12-.05.25 0 .35.32.4 1 .15 2 .32 3 .49.45.07.46.07.53-.34l1.22-7.32a6.88 6.88 0 0 0-2.51-6.52 12.61 12.61 0 0 0-6.36-3c-2.38-.41-4.76-.8-7.13-1.19-.72-.12-1.45-.26-2.17-.35a1.6 1.6 0 0 0-1.91 1.29c-.46 2.27-.83 4.5-1.21 6.74zm-62.24-10.42 1.14-6.79a1.24 1.24 0 0 0 0-.47 1.91 1.91 0 0 0-1.63-1.33c-1.55-.26-3.1-.53-4.65-.77-1.84-.3-3.66-.71-5.51-.87a11.55 11.55 0 0 0-7 1.39 6.55 6.55 0 0 0-3.37 4.67q-.63 3.74-1.25 7.47c-.07.4-.07.4.36.47 1 .17 2 .32 2.93.5.33.06.45 0 .5-.31.15-1 .34-2.06.5-3.09 0-.29.17-.35.48-.3l12.67 2.12c.34 0 .42.16.37.46-.19 1-.35 2.08-.54 3.11 0 .26 0 .36.32.4 1 .16 2 .32 3 .51.33.06.44 0 .49-.32.42-2.28.81-4.57 1.19-6.85zm-38.3 1 6.47 1.08a7.76 7.76 0 0 0 2.76 0 3.93 3.93 0 0 0 3.34-2.92c.64-3.78 1.26-7.55 1.9-11.33.05-.27 0-.37-.33-.42-1-.15-2-.32-3-.5-.36-.07-.46 0-.51.33q-.92 5.58-1.86 11.15a1.08 1.08 0 0 1-1.24.95 4.41 4.41 0 0 1-.73-.08c-1-.18-2-.37-3.06-.54l-7-1.15c-.28-.05-.35-.15-.31-.38.11-.59.19-1.18.31-1.76.06-.28 0-.4-.35-.45-.84-.13-1.68-.26-2.52-.42-.34-.07-.44 0-.49.32-.24 1.49-.49 3-.74 4.45-.07.42-.07.42.42.5zM230.83 237.63l5.72 1c.15.09.15.2.13.35-.37 2.17-.73 4.34-1.11 6.51 0 .29 0 .38.34.43 3.09.5 6.18 1 9.27 1.54.32.05.34.16.31.44-.06.67-.23 1.33-.32 2-.22 1.55-.54 3.09-.8 4.63-.1.59-.17 1.19-.26 1.78 0 .2-.12.31-.4.26L228.57 254c-.65-.11-.65-.11-.56-.68q1.29-7.69 2.57-15.38c.02-.15.02-.31.25-.31zm3.94 12.7c-.13.78-.25 1.56-.39 2.34-.05.27 0 .38.33.43 1.06.16 2.11.34 3.16.53.32.06.44 0 .49-.31.25-1.55.51-3.1.78-4.66 0-.24 0-.34-.31-.38q-1.62-.25-3.24-.54c-.28-.05-.39 0-.43.27-.16.78-.26 1.55-.39 2.32zM255.63 249.17c2.55.43 5.09.86 7.64 1.27.34.06.42.17.37.47q-.7 4.14-1.39 8.3c-.07.37-.1.4-.52.33L246.38 257c-.27-.05-.34-.16-.3-.39q.72-4.21 1.41-8.43c0-.28.18-.33.47-.28 2.55.44 5.11.86 7.67 1.29zm1.31 4.88c.14-.8.27-1.6.41-2.4 0-.23 0-.36-.3-.4l-3.44-.58c-.26 0-.38 0-.42.27l-.81 4.85c0 .25.05.36.33.41l3.37.56c.3.06.42 0 .46-.3.13-.8.27-1.6.4-2.41zM173.53 244.78l-7.64-1.27c-.31 0-.37-.15-.33-.42q.72-4.2 1.42-8.42c0-.25.13-.32.4-.27l15.36 2.6c.41.07.43.11.37.49-.26 1.55-.53 3.11-.78 4.66 0 .31-.17.37-.5.32-3.07-.53-6.15-1-9.22-1.55-.46-.08-.46-.08-.52.32s-.11.7-.19 1 0 .35.31.4c2.06.33 4.11.68 6.17 1l3.16.53c.32.05.42.17.37.44s-.14.74-.19 1.11-.18.38-.51.32zm.92-5.45c.56.1 1.13.18 1.69.29.25 0 .35 0 .38-.25 0-.39.12-.78.2-1.17 0-.21 0-.32-.26-.36l-3.41-.57c-.22 0-.33 0-.36.23q-.08.62-.18 1.23c0 .23.06.3.29.33.55.07 1.1.17 1.65.27zM211.28 241.75l7.64 1.28c.44.07.5.14.42.52-.43 2-.7 4-1.05 6-.14.74-.27 1.48-.37 2.23 0 .29-.15.37-.49.31-2.08-.36-4.17-.7-6.26-1l-9-1.51c-.42-.07-.43-.08-.37-.47.26-1.56.53-3.11.77-4.67 0-.32.18-.37.52-.31l9.16 1.54c.46.07.46.07.53-.33s.09-.67.17-1 0-.4-.36-.46c-2.34-.37-4.68-.77-7-1.16l-2.31-.38c-.24 0-.32-.12-.28-.34a10.85 10.85 0 0 0 .21-1.27c0-.27.16-.31.43-.26l5.37.9 2.27.38zm-1.15 7.25c.55.09 1.11.17 1.66.27.21 0 .33 0 .36-.21l.21-1.23c0-.19-.05-.29-.27-.33l-3.33-.56c-.24 0-.35 0-.38.24 0 .4-.11.79-.19 1.17-.05.23.05.33.29.37.52.07 1.1.17 1.65.28zM268.74 251.36c.87.15 1.74.31 2.62.44.31 0 .38.18.34.43-.08.4-.13.8-.21 1.2 0 .21 0 .3.27.34l3.36.56c.28 0 .38 0 .41-.27.06-.41.15-.82.2-1.23 0-.23.15-.27.37-.24l5.4.91c.21 0 .3.13.27.33-.08.43-.16.86-.22 1.29 0 .23-.16.29-.41.25-.44-.09-.89-.15-1.34-.24-.24 0-.33 0-.36.24-.05.4-.13.8-.19 1.2 0 .23-.15.3-.4.25-.47-.08-.94-.15-1.41-.24-.17 0-.24 0-.29.17-.13.44-.08.91-.25 1.34-.07.18.07.24.24.27l1.38.22c.28 0 .38.15.33.41s-.13.78-.21 1.17c0 .21.05.31.28.34l1.34.22c.25 0 .34.13.3.36-.09.42-.17.84-.22 1.27 0 .22-.15.27-.36.24l-.65-.11-4.62-.77c-.45-.08-.45-.08-.38-.49s.12-.76.19-1.14c.05-.21 0-.3-.27-.34l-3.44-.58c-.22 0-.29 0-.31.21-.06.4-.16.8-.19 1.21s-.19.37-.5.32l-4.72-.8c-1.16-.19-.93-.1-.8-1 0-.25.09-.49.12-.74s.16-.29.4-.25c.45.09.9.15 1.34.24.27.05.39 0 .42-.26s.14-.78.19-1.17.16-.31.41-.26c.46.09.92.15 1.37.24.21 0 .3 0 .32-.2.06-.43.13-.85.22-1.27 0-.21-.05-.28-.26-.31l-1.38-.23c-.24 0-.34-.12-.29-.36s.14-.78.21-1.17c0-.23 0-.35-.31-.38-.45-.06-.9-.15-1.35-.22-.25 0-.34-.14-.29-.37q.12-.63.21-1.26c0-.24.16-.29.4-.24zM222.64 236.28l5.92 1a.42.42 0 0 1 .05.36q-1.31 7.77-2.6 15.56c0 .28-.17.37-.48.31s-.88-.19-1.33-.26l-3.89-.62c-.46-.08-.45-.08-.39-.49q1.31-7.74 2.6-15.49c.02-.14 0-.28.12-.37zM191.71 247.82l-7.71-1.28c-.3 0-.4-.14-.35-.43q.72-4.2 1.41-8.4c0-.26.15-.32.42-.27l15.39 2.56c.31.05.42.18.36.45s-.11.72-.19 1.08-.13.41-.55.34l-4.16-.7-5.06-.85c-.28 0-.37 0-.41.25-.22 1.39-.46 2.78-.69 4.17a2.74 2.74 0 0 1 0 .28c-.11.6-.11.6.58.72l8.92 1.49c.42.07.45.11.39.5s-.15.72-.18 1.08-.19.35-.48.3c-.56-.11-1.12-.2-1.68-.29z" transform="translate(-.98 -.52)"/><path d="M291.07 282.1c-.25 1.47-.49 2.94-.74 4.41-.07.42-.07.42-.51.34l-4.27-.71c-.27 0-.37-.13-.3-.37s.07-.41.11-.62-.06-.27-.25-.29l-.49-.05c-.39-.06-.49 0-.51.37v.19c0 .43-.14.5-.63.42-1.39-.23-2.79-.47-4.19-.69-.32-.05-.4-.19-.36-.45.5-3 1-5.91 1.49-8.86.06-.36.14-.42.55-.33 2.95.58 5.92 1 8.87 1.52.52.09 1 .13 1.55.22s.47.1.4.52c-.24 1.46-.49 2.92-.73 4.38zm-8.37-.17 1.58.27c.22 0 .32 0 .35-.22.1-.59.2-1.19.31-1.79 0-.21-.06-.3-.29-.34l-3.13-.52c-.21 0-.31 0-.35.22-.08.59-.18 1.19-.29 1.79 0 .21 0 .31.27.34zm5.47-1.49c-.52-.08-1-.16-1.55-.26-.25-.05-.36 0-.39.24-.09.59-.19 1.19-.29 1.78-.05.23.05.29.28.33 1 .16 2 .33 3 .51.28.05.39 0 .43-.27.08-.56.17-1.13.28-1.69 0-.23 0-.35-.3-.39-.48-.08-.97-.17-1.46-.25z" transform="translate(-.98 -.52)" style="fill:#2785db"/><path d="M292.87 271.31c-.25 1.48-.5 3-.74 4.44-.07.38-.11.4-.52.34l-2.86-.48c-.41-.07-.49-.18-.43-.54.14-.85.28-1.71.43-2.56a.34.34 0 0 1 0-.1c.2-.63.12-.52.72-.43l1.48.25c.26 0 .4 0 .44-.25.09-.59.19-1.18.29-1.76 0-.21 0-.33-.3-.38l-8-1.34c-.26 0-.39.05-.42.28-.09.57-.19 1.14-.28 1.7 0 .23.05.36.31.41l3.06.52a.25.25 0 0 0 .33-.17 1.81 1.81 0 0 0 .12-.64c0-.19.11-.24.27-.29a.45.45 0 0 1 .2 0c.85.09.89.14.77.88-.21 1.26-.43 2.51-.63 3.77 0 .26-.17.34-.43.3l-5.43-.91c-.49-.08-.55-.15-.48-.58.49-3 1-5.91 1.48-8.87 0-.17.09-.23.28-.22s.55 0 .83.08l9.77 1.63c.55.09.55.1.47.6l-.72 4.32z" transform="translate(-.98 -.52)" style="fill:#44c047"/><path d="M289.84 254.78c1.75.29 3.49.59 5.24.87.3 0 .4.13.35.42-.51 3-1 5.95-1.49 8.92-.05.3-.16.38-.49.32-1.4-.25-2.8-.48-4.2-.71-.36-.06-.42-.15-.36-.47 0-.12.06-.23.08-.34.08-.47.08-.47-.46-.56h-.21c-.5-.08-.51-.08-.54.39 0 .18-.1.34-.11.52s-.18.19-.35.16l-4.44-.74c-.23 0-.32-.15-.29-.35.17-1 .35-2 .51-3.06 0-.28.23-.27.45-.23l1.83.3c.8.15 1.61.24 2.4.44.25.06.44 0 .48-.27.07-.57.17-1.14.28-1.7.05-.27 0-.38-.34-.43-1.42-.22-2.83-.47-4.24-.7-.29 0-.4-.12-.35-.4.18-1 .33-2 .48-3 0-.26.15-.33.44-.28 1.77.31 3.55.6 5.33.9zm1.49 6.43c.51.08 1 .16 1.54.26.22 0 .35 0 .39-.21.09-.61.19-1.22.3-1.82 0-.2 0-.32-.27-.35l-3.09-.52c-.22 0-.32 0-.35.21-.09.63-.2 1.25-.31 1.88 0 .18 0 .26.24.29z" transform="translate(-.98 -.52)" style="fill:#eb1416"/><path class="aaad1b95-c4d3-4cad-9ac9-ea8d68174d35" d="m156.94 232.66 7.54 1.26c.53.09.53.09.45.57s-.13.7-.17 1-.16.33-.44.28l-9.3-1.57c-.33-.05-.41 0-.45.3-.35 2.17-.72 4.33-1.07 6.49-.05.31-.2.36-.51.31l-5.19-.87c-.3 0-.4-.14-.35-.42q.72-4.19 1.4-8.39c.05-.31.19-.34.48-.29z" transform="translate(-.98 -.52)"/><path class="eacc1ea8-134d-4e8c-b196-fa14912440af" d="M224.85 265.68 226 259a1.74 1.74 0 0 1 2.34-1.33 2.14 2.14 0 0 1 1.43 1.06c2.19 4.06 4.41 8.11 6.61 12.17.17.3.2.31.45.08l8.14-7.43 2.16-2a2.34 2.34 0 0 1 3.26.37 1.32 1.32 0 0 1 .25 1q-1.17 6.91-2.32 13.83c0 .29-.15.39-.49.32-1-.19-2-.35-3.06-.51-.3-.05-.36-.15-.31-.4.47-2.79.93-5.58 1.4-8.37v-.12c0-.04.11-.25 0-.31s-.18.1-.26.17l-4.89 4.53c-1 .89-2 1.74-2.87 2.68a2.38 2.38 0 0 1-3.55-.6c-1.63-3.16-3.37-6.28-5.06-9.42 0-.07-.06-.19-.17-.17s-.11.14-.12.22l-1.4 8.43c-.08.46-.08.46-.59.37-1-.17-1.95-.34-2.93-.49-.28 0-.34-.15-.3-.38.4-2.36.79-4.72 1.19-7.07zM220.34 265q-.59 3.46-1.16 6.95c-.07.38-.08.38-.52.31l-3-.5c-.27 0-.32-.14-.29-.36.36-2.07.7-4.14 1-6.2.13-.82.27-1.63.41-2.44 0-.08.06-.18-.06-.22s-.13.06-.19.11l-6.5 6c-.5.46-1 .9-1.48 1.37a2.34 2.34 0 0 1-3.35-.6c-1.59-3-3.25-6.05-4.88-9.07-.1-.17-.19-.34-.28-.51s-.05-.14-.13-.14-.1.1-.11.17 0 .27-.06.4c-.46 2.73-.91 5.46-1.37 8.19-.06.38-.07.37-.51.3-1-.18-2-.35-3-.5-.3 0-.4-.13-.35-.41q1.16-6.86 2.3-13.71a1.52 1.52 0 0 1 1.5-1.37 2.24 2.24 0 0 1 2.21 1c1.11 2 2.2 4 3.3 6l3.44 6.31c.14.27.24.14.37 0l2.95-2.7c2.42-2.2 4.85-4.39 7.24-6.63a2.4 2.4 0 0 1 3.17 0 1.32 1.32 0 0 1 .45 1.21c-.4 2.31-.78 4.61-1.16 6.92zM253.49 270.64c.38-2.24.75-4.47 1.13-6.7a1.6 1.6 0 0 1 1.91-1.29c.72.09 1.45.23 2.17.35 2.37.39 4.75.78 7.13 1.19a12.61 12.61 0 0 1 6.36 3 6.88 6.88 0 0 1 2.51 6.52q-.6 3.66-1.22 7.32c-.07.41-.08.41-.53.34-1-.17-2-.34-3-.49-.29 0-.37-.15-.32-.4.19-1 .35-2.08.53-3.12.05-.27 0-.4-.34-.45l-12.77-2.14c-.28-.05-.36 0-.4.28-.16 1-.35 2.08-.51 3.12-.05.3-.17.38-.5.31-1-.18-2-.34-3-.5-.32 0-.44-.14-.38-.45.39-2.28.77-4.57 1.15-6.85zM264 273l6.37 1.07c.3 0 .43 0 .46-.28s.08-.52.12-.78a4.27 4.27 0 0 0-1.54-4.2 8.48 8.48 0 0 0-4-1.85c-2.25-.43-4.52-.78-6.77-1.17-.34-.06-.36.12-.4.33q-.44 2.69-.9 5.37c0 .29 0 .4.36.46zM191.25 260.22c-.38 2.28-.77 4.57-1.14 6.85-.05.3-.16.38-.49.32-1-.19-2-.35-3-.51-.29 0-.36-.14-.32-.4.19-1 .35-2.08.54-3.11.05-.3 0-.41-.37-.46l-12.67-2.12c-.31-.05-.44 0-.48.3-.16 1-.35 2.05-.5 3.09 0 .3-.17.37-.5.31-1-.18-1.95-.33-2.93-.5-.43-.07-.43-.07-.36-.47q.62-3.74 1.25-7.47a6.55 6.55 0 0 1 3.37-4.67 11.55 11.55 0 0 1 7-1.39c1.85.16 3.67.57 5.51.87 1.55.24 3.1.51 4.65.77a1.91 1.91 0 0 1 1.59 1.37 1.24 1.24 0 0 1 0 .47l-1.14 6.79zm-10.67-1.14c2.11.35 4.22.7 6.33 1.07.32.05.44 0 .48-.29.3-1.81.6-3.63.91-5.44 0-.26 0-.37-.33-.42q-3-.48-6-1a11.11 11.11 0 0 0-3.77 0 4.85 4.85 0 0 0-3.81 2.54 7.49 7.49 0 0 0-.52 2c-.07.4-.07.41.4.48zM153 261.25l-7-1.17c-.49-.08-.49-.08-.42-.5.25-1.48.5-3 .74-4.45.05-.28.15-.39.49-.32.84.16 1.68.29 2.52.42.31.05.41.17.35.45-.12.58-.2 1.17-.31 1.76 0 .23 0 .33.31.38l7 1.15c1 .17 2 .36 3.06.54a4.41 4.41 0 0 0 .73.08 1.08 1.08 0 0 0 1.24-.95q.94-5.58 1.86-11.15c0-.3.15-.4.51-.33 1 .18 2 .35 3 .5.3.05.38.15.33.42-.64 3.78-1.26 7.55-1.9 11.33a3.93 3.93 0 0 1-3.34 2.92 7.76 7.76 0 0 1-2.76 0l-6.41-1.08z" transform="translate(-.98 -.52)"/><path class="aaad1b95-c4d3-4cad-9ac9-ea8d68174d35" d="m264 273-6.33-1c-.34-.06-.41-.17-.36-.46q.47-2.68.9-5.37c0-.21.06-.39.4-.33 2.25.39 4.52.74 6.77 1.17a8.48 8.48 0 0 1 4 1.85 4.27 4.27 0 0 1 1.54 4.2c0 .26-.1.52-.12.78s-.16.33-.46.28zM180.58 259.08l-6.3-1.06c-.47-.07-.47-.08-.4-.48a7.49 7.49 0 0 1 .52-2 4.85 4.85 0 0 1 3.81-2.54 11.11 11.11 0 0 1 3.77 0q3 .51 6 1c.31.05.38.16.33.42-.31 1.81-.61 3.63-.91 5.44 0 .29-.16.34-.48.29-2.11-.37-4.22-.72-6.33-1.07z" transform="translate(-.98 -.52)"/></g><g id="b2d3efb0-608d-401f-8210-1eef5e2ab1ca" data-name="faa35eb7-fab4-4ac9-b0d6-495a1d79af60"><path d="M83.37 77.83c1-2.4 1.3-5.14 2.45-7.48 4.85-9.91 12.91-14.89 23.46-15.57 13.14-.85 24.72 4.45 34.07 16.54a33.83 33.83 0 0 1 6.88 16.62c1.46 11.56-2.74 19.9-10.58 25.8-14.18 10.67-36.87 5.35-49.11-11.21a35.87 35.87 0 0 1-6.69-15.46c-.1-.6 0-1.32-.55-1.84zM145.71 94c-.05-.54-.44-.84-.72-1.2-1.59-2-3.17-4-4.77-5.91-1.12-1.36-2.17-3.46-3.44-3.84-1.53-.47-2.46 1.65-3.62 2.68-.82.73-1.26.8-2.12-.33-2.81-3.6-2.9-3.62-5.79-.95-.94.87-1.47 1-2.5-.35-3.37-4.4-3.44-4.35-6.91-1.23a1.42 1.42 0 0 0-.25.24c-.56.7-1 .72-1.71-.22-.77-1.11-1.69-2.11-2.51-3.19s-1.4-1-2.14-.3c-.93.9-1.92 1.7-2.82 2.61-.58.59-1 .62-1.57-.22-1-1.37-2.11-2.63-3.14-4-.67-.89-1.24-1-2-.35-1.14 1-2.1 3-3.4 2.65S94 77.69 93 76.3c-.74-1-1.32-1.11-2.08-.36-1 1-2.11 2-3.22 2.93-.83.7-.73 1.31.09 2.22 1.9 2.13 3.78 4.35 5.67 6.53 3.16 3.64 3.19 3.64 6.24.83.77-.72 1.23-.93 2.09.24 1 1.4 2 3.51 3.4 3.8 1.59.32 2.51-1.64 3.61-2.71s1.5-.75 2.42.41c3.09 3.91 3.16 3.92 6.4 1 .94-.87 1.41-.64 2.25.43 3.43 4.34 3.5 4.36 6.91 1.06 1-.93 1.47-1 2.48.32 3.44 4.42 3.49 4.38 7 1.26a.49.49 0 0 0 .13-.12c.49-.67.85-.6 1.55.15 1.2 1.27 1.94 3.84 3.64 3.57 1.4-.23 2.43-1.93 3.62-3 .23-.24.54-.44.53-.87zm-8.26-18c-.15-.26-.31-.5-.48-.74l-8.29-10.31a.79.79 0 0 0-1-.38.76.76 0 0 0-.21.19c-.41.41-.86.79-1.29 1.19-2.55 2.33-2.54 2.33-5-.69a8.67 8.67 0 0 1-.76-.94c-.8-1.33-1.51-1.34-2.43-.41s-2 2.9-3.25 2.61-2.27-2.29-3.2-3.69-1.69-1.42-2.64-.41-2.1 2.82-3.24 2.72c-1.32-.11-2.3-2.34-3.35-3.71-.84-1.13-1.37-1.07-2.13-.26a23 23 0 0 1-2.82 2.59c-1 .74-1 1.38-.06 2.48 2.15 2.57 4.27 5.19 6.26 7.91 1 1.39 1.69 1.47 2.68.42s2-2.65 3.12-2.56c1.31.1 2.18 2.29 3.25 3.56 1.69 2 1.66 2 3.29.55a16.73 16.73 0 0 0 2.06-1.89c.88-1.08 1.47-.82 2.37.37 3.16 4.1 3.24 4.11 6.45 1 .92-.87 1.42-1 2.36.33 1.1 1.51 2.23 4 3.64 4s2.51-1.88 3.74-3c.34-.34.63-.71 1-1.08zm0 34.43c-.24-.45-.51-.89-.79-1.31-2.73-3.42-5.47-6.82-8.18-10.24-.59-.75-1-.63-1.5-.16-.93.9-1.94 1.7-2.83 2.64-.65.69-1.09.57-1.71-.28-.84-1.16-1.82-2.2-2.66-3.35-.63-.87-1.09-1-1.75-.32-.81.85-1.77 1.54-2.56 2.39s-1.23.86-2-.27-1.88-2.31-2.76-3.52c-.62-.85-1.07-1-1.73-.27-.93 1-2 1.77-2.93 2.74-.63.65-1 .63-1.72-.24-1.1-1.43-2.17-3.88-3.45-3.89s-2.47 1.87-3.69 2.93a3.25 3.25 0 0 1-.39.35c-.81.54-.8 1.14 0 2 1.67 2 3.27 4.14 4.9 6.21 2.87 3.62 2.93 3.74 5.8.89 1.3-1.29 2.07-1.24 3.28.53 1 1.38 1.91 3.47 3.24 3.68s2.35-1.54 3.3-2.62c1.23-1.41 2-1 3.13.58 2.76 3.65 2.93 3.7 5.71.93 1.29-1.3 1.92-1.07 3.14.54 3.13 4.12 3.19 4 6.54 1.06a11.94 11.94 0 0 1 1.65-1.07z" transform="translate(-.98 -.52)" style="fill:#186dd1"/><path d="m190.39 78.77 2.42.37c3.34.52 3.41.53 4.18 4.06 2.57 11.82 5.07 23.67 7.64 35.55.25 1.15-.13 1.46-1 1.39l-.38-.06c-4.74-.48-4.75-.48-5.77-5.59-.7-3.47-1.37-6.94-2-10.4-.19-1-.47-1.53-1.55-1.65-2.3-.24-4.61-.64-6.9-1.09-1.07-.21-1.5.06-1.71 1.2-.82 4.12-1.82 8.22-2.63 12.36-.26 1.36-.85 1.71-2.12 1.5-6-1-4.8-.5-3.68-5.38 2.39-10.48 5-20.88 7.38-31.34.33-1.42.88-1.87 2.25-1.55s2.58.43 3.89.63zm0 16.37a9.44 9.44 0 0 1 1.49.24c1.74.58 1.9-.11 1.51-1.82-.92-4.11-1.62-8.23-2.42-12.35-.08-.42 0-1.06-.6-1.07-.44 0-.39.53-.48.9-.72 3.42-1.48 6.83-2.19 10.29-.68 3.28-.66 3.28 2.71 3.82zm117.29 22.07c-.35 3.91-.1 8.31-1.75 12.16-2 4.74-5.93 6.93-10.9 6.08a14.16 14.16 0 0 1-10.54-9.85 39.14 39.14 0 0 1-.24-24c1.6-5.11 6.09-7.55 11.26-6.7 4.78.77 8.89 4.66 10.7 10.17 1.25 3.93 1.26 7.86 1.47 12.14zm-18.44-3.13c.26 3.36.1 6.73 1.06 10.16.8 2.84 2.68 4.83 4.91 5.21s4-.84 4.88-3.57a26 26 0 0 0 .83-6.28 43.86 43.86 0 0 0-1-14c-.79-3-2.69-4.56-5.33-4.76-2-.16-3.75 1.3-4.44 3.74-.85 3-.66 6.3-.92 9.51zm-56.87-8.94c0-5.68.07-11.33 0-17 0-1.92.59-2.49 2.42-2.17q8.53 1.46 17.1 2.64c1.82.25 2.3 1.06 2.26 2.84-.08 3.44 0 3.46-3.23 3-3.57-.55-7.13-1.06-10.66-1.69-1.16-.21-1.52 0-1.47 1.32.1 2.28.08 4.56 0 6.81 0 1.18.22 1.64 1.45 1.81 3.42.43 6.85 1.11 10.28 1.55 1.8.22 2.67 1 2.41 2.9a5.54 5.54 0 0 0 0 1.41c.14 1.51-.48 2-1.88 1.71-3.63-.64-7.25-1.15-10.86-1.77-1-.16-1.44 0-1.4 1.18.1 3 .06 6 0 9 0 1.08.26 1.39 1.28 1.54 4.32.62 8.66 1.43 13 2 2.19.3 2.27 1.63 2.25 3.35s.05 3.08-2.19 2.69c-6.23-1.09-12.46-2.06-18.67-3-1.52-.25-2.1-1-2.08-2.63.07-5.83 0-11.65.05-17.45zm24.2 4.73c.22-5.56.62-11 4-15.22s8.42-5 13.35-2.15c4.49 2.62 7.76 9.15 7.18 14.29-.1.82-.37 1.42-1.23 1.32a36.43 36.43 0 0 1-3.84-.6c-1-.22-1.21-1.06-1.21-1.94a16.05 16.05 0 0 0-.52-4.27c-.48-1.74-1.29-3.37-3.08-4-2-.72-3.93-.8-5.37.9-1.62 1.9-2 4.38-2.31 7a44.88 44.88 0 0 0 .52 14.12 9.4 9.4 0 0 0 1.52 3.46c2.57 3.66 7.08 3.62 8.46-.16a15.14 15.14 0 0 0 .76-5.65c0-1.4.58-1.86 1.84-1.68 5.82.86 4.85.77 4.34 5.47s-2.39 8.7-6.94 10.23c-5.6 1.88-12.48-2.13-15.39-9-1.7-4-2-8.06-2.07-12.11zm-80.8-18.3c0 4 0 8.07-.08 12.08s-1 7.65-4.34 9.56c-3.66 2.09-7.55 1.79-11.53-1-3.83-2.67-5.24-6.51-5.58-10.86v-.79c.1-4.78-.91-4.56 4.54-3.69a1.84 1.84 0 0 1 1.66 2.13c0 1.38-.06 2.76.06 4.15.22 2.74 1.78 4.53 4.2 4.92 2.87.46 4.28-.58 4.64-3.46a65.11 65.11 0 0 0 .24-7.67c0-6.27.1-12.52.09-18.79 0-1.59.41-2.22 2-1.94 4.68.82 4.22.17 4.2 5.07l-.05 10.29zm31.14 9.43c0-5.64.08-11.27 0-16.91 0-1.78.51-2.41 2.28-2.1 4.4.79 4 .19 4 4.92 0 9 0 18.08-.1 27.11 0 1.55.38 1.92 1.77 2.11 4.27.56 8.56 1.31 12.84 2 2.07.33 2.29.7 2.27 3.46 0 2.53-.24 2.79-2.32 2.46-6.24-1-12.46-2-18.67-3-1.68-.28-2.19-1.09-2.17-2.74q.06-8.67.07-17.35z" transform="translate(-.98 -.52)" style="fill:#050505"/></g></svg>