<svg id="e26591f8-0f81-4ef5-ad06-9ced89010035" data-name="bae51f9f-9ab5-4723-91c1-5de94dc4635e" xmlns="http://www.w3.org/2000/svg" xmlns:xlink="http://www.w3.org/1999/xlink" viewBox="0 0 87.6 88.6"><defs><style>.a2c2930d-6be1-41a0-9cf6-1382e1b9d959,.b69a8735-812d-430e-92af-0c2c49245220{fill:#211c1d;}.fd4b7516-e804-439c-bf20-6e921936ce5a{opacity:0.1;}.e81bbb96-fca5-455c-801e-cd4ced45fcc7{fill:#808094;}.a467bc9f-8506-494e-9c53-75a189f3dbad{fill:#6d6e6f;}.a035d8f8-7c2d-444a-b5e2-6b9145df699f{fill:url(#a18a4be6-7c43-4c0c-b47e-afa74a994e6f);}.a2c2930d-6be1-41a0-9cf6-1382e1b9d959{opacity:0.3;}.a2c2930d-6be1-41a0-9cf6-1382e1b9d959,.ada28184-9915-4c47-bf4a-c0496b50eeb0,.b9b4a429-e8fe-4dd2-9125-937e5b7bf659{isolation:isolate;}.b9b4a429-e8fe-4dd2-9125-937e5b7bf659{opacity:0.15;fill:url(#a97bcbaf-3063-409d-b923-3583c2297b8b);}.ada28184-9915-4c47-bf4a-c0496b50eeb0{opacity:0.4;fill:url(#fff3ab67-1daf-4ad8-95b1-b7682dfaf917);}.a30a61bb-6e04-4036-a096-8c1f8e9cb681{fill:#186dd1;}</style><linearGradient id="a18a4be6-7c43-4c0c-b47e-afa74a994e6f" x1="-747.89" y1="2455.81" x2="-768.82" y2="2434.88" gradientTransform="translate(802.18 -2401.52)" gradientUnits="userSpaceOnUse"><stop offset="0" stop-color="#a4a5a9"/><stop offset="1" stop-color="#e6e6e7"/></linearGradient><linearGradient id="a97bcbaf-3063-409d-b923-3583c2297b8b" x1="-768.76" y1="2455.8" x2="-747.88" y2="2434.93" gradientTransform="translate(802.18 -2401.52)" gradientUnits="userSpaceOnUse"><stop offset="0" stop-color="#211c1d" stop-opacity="0"/><stop offset="0.04" stop-color="#211c1d" stop-opacity="0.09"/><stop offset="0.5" stop-color="#211c1d"/><stop offset="0.95" stop-color="#211c1d" stop-opacity="0.09"/><stop offset="1" stop-color="#211c1d" stop-opacity="0"/></linearGradient><linearGradient id="fff3ab67-1daf-4ad8-95b1-b7682dfaf917" x1="-5886.68" y1="-3866.42" x2="-5865.8" y2="-3887.31" gradientTransform="translate(-5832.48 -3833.03) rotate(180)" gradientUnits="userSpaceOnUse"><stop offset="0" stop-color="#fff" stop-opacity="0"/><stop offset="0.5" stop-color="#fff"/><stop offset="1" stop-color="#fff" stop-opacity="0"/></linearGradient></defs><circle class="b69a8735-812d-430e-92af-0c2c49245220" cx="43.8" cy="43.8" r="43.8"/><g class="fd4b7516-e804-439c-bf20-6e921936ce5a"><path class="e81bbb96-fca5-455c-801e-cd4ced45fcc7" d="M84.4,43.8l-8.6-8.9v4.3H66v9.1h9.8v4.3ZM72.5,15.1l-12.4-.2L63.2,18l-7,7,6.4,6.4,7-7,3.1,3.1ZM43.8,3.2l-8.9,8.6h4.3v9.8h9.1V11.8h4.3ZM15.1,15.1l-.2,12.4L18,24.4l7,7L31.4,25l-7-7,3.1-3.1ZM3.2,43.8l8.6,8.9V48.4h9.8V39.3H11.8V35ZM15.1,72.5l12.4.2-3.1-3.1,7-7L25,56.2l-7,7-3.1-3.1ZM43.8,84.4l8.9-8.6H48.4V66H39.3v9.8H35ZM72.5,72.5l.2-12.4-3.1,3.1-7-7-6.4,6.4,7,7-3.1,3.1Z" transform="translate(0 0)"/></g><path class="a467bc9f-8506-494e-9c53-75a189f3dbad" d="M87.6,44.3A43.81,43.81,0,0,1,0,44.3v.5a43.8,43.8,0,0,0,87.6,0Z" transform="translate(0 0)"/><circle class="a035d8f8-7c2d-444a-b5e2-6b9145df699f" cx="43.8" cy="43.8" r="14.8"/><circle class="a2c2930d-6be1-41a0-9cf6-1382e1b9d959" cx="43.8" cy="43.8" r="11.8"/><path class="b9b4a429-e8fe-4dd2-9125-937e5b7bf659" d="M43.8,29.1A14.75,14.75,0,1,0,58.6,43.9,14.75,14.75,0,0,0,43.8,29.1Zm-.2,28.7A14.15,14.15,0,1,1,57.8,43.7,14.16,14.16,0,0,1,43.6,57.8Z" transform="translate(0 0)"/><path class="ada28184-9915-4c47-bf4a-c0496b50eeb0" d="M43.8,58.6A14.75,14.75,0,1,0,29,43.9,14.75,14.75,0,0,0,43.8,58.6ZM44,29.9a14.1,14.1,0,0,1,0,28.2h0A14,14,0,0,1,29.9,44.2h0V44h0A14.08,14.08,0,0,1,44,29.9Z" transform="translate(0 0)"/><circle class="a30a61bb-6e04-4036-a096-8c1f8e9cb681" cx="43.6" cy="32.8" r="20.5"/></svg>