<svg id="ba270cef-b7f8-4b65-84f6-ca48eafc60ca" data-name="bae51f9f-9ab5-4723-91c1-5de94dc4635e" xmlns="http://www.w3.org/2000/svg" xmlns:xlink="http://www.w3.org/1999/xlink" viewBox="0 0 87.6 88.6"><defs><style>.ea9617de-9513-42e2-a027-62d39f0f7bc5,.f45f8031-b137-41b3-9c23-e8f3988c393c{fill:#211c1d;}.ad045a71-35ac-4b45-b87a-24001f967c6b{opacity:0.1;}.b1639919-e269-405d-b802-aa2af9cdd621{fill:#808094;}.eb317aa4-deab-480d-8a90-173fd2538f88{fill:#6d6e6f;}.ba462541-4bb0-4967-b02f-060c9fde75a7{fill:url(#a3647153-8f5b-4848-ad7c-76b002416e4a);}.f45f8031-b137-41b3-9c23-e8f3988c393c{opacity:0.3;}.ab43f473-bdcb-4dd5-b6ec-d8e4f54ffe06,.ba18050f-0feb-4691-812f-0281444a68e6,.f45f8031-b137-41b3-9c23-e8f3988c393c{isolation:isolate;}.ba18050f-0feb-4691-812f-0281444a68e6{opacity:0.15;fill:url(#a29bc7b5-94ce-436a-bcf2-1665e9268e3e);}.ab43f473-bdcb-4dd5-b6ec-d8e4f54ffe06{opacity:0.4;fill:url(#a6b1e098-a0f2-4112-be61-19255b393aa1);}</style><linearGradient id="a3647153-8f5b-4848-ad7c-76b002416e4a" x1="-747.89" y1="2455.81" x2="-768.82" y2="2434.88" gradientTransform="translate(802.18 -2401.52)" gradientUnits="userSpaceOnUse"><stop offset="0" stop-color="#a4a5a9"/><stop offset="1" stop-color="#e6e6e7"/></linearGradient><linearGradient id="a29bc7b5-94ce-436a-bcf2-1665e9268e3e" x1="-768.76" y1="2455.8" x2="-747.88" y2="2434.93" gradientTransform="translate(802.18 -2401.52)" gradientUnits="userSpaceOnUse"><stop offset="0" stop-color="#211c1d" stop-opacity="0"/><stop offset="0.04" stop-color="#211c1d" stop-opacity="0.09"/><stop offset="0.5" stop-color="#211c1d"/><stop offset="0.95" stop-color="#211c1d" stop-opacity="0.09"/><stop offset="1" stop-color="#211c1d" stop-opacity="0"/></linearGradient><linearGradient id="a6b1e098-a0f2-4112-be61-19255b393aa1" x1="-5886.68" y1="-3866.42" x2="-5865.8" y2="-3887.31" gradientTransform="translate(-5832.48 -3833.03) rotate(180)" gradientUnits="userSpaceOnUse"><stop offset="0" stop-color="#fff" stop-opacity="0"/><stop offset="0.5" stop-color="#fff"/><stop offset="1" stop-color="#fff" stop-opacity="0"/></linearGradient></defs><circle class="ea9617de-9513-42e2-a027-62d39f0f7bc5" cx="43.8" cy="43.8" r="43.8"/><g class="ad045a71-35ac-4b45-b87a-24001f967c6b"><path class="b1639919-e269-405d-b802-aa2af9cdd621" d="M84.4,43.8l-8.6-8.9v4.3H66v9.1h9.8v4.3ZM72.5,15.1l-12.4-.2L63.2,18l-7,7,6.4,6.4,7-7,3.1,3.1ZM43.8,3.2l-8.9,8.6h4.3v9.8h9.1V11.8h4.3ZM15.1,15.1l-.2,12.4L18,24.4l7,7L31.4,25l-7-7,3.1-3.1ZM3.2,43.8l8.6,8.9V48.4h9.8V39.3H11.8V35ZM15.1,72.5l12.4.2-3.1-3.1,7-7L25,56.2l-7,7-3.1-3.1ZM43.8,84.4l8.9-8.6H48.4V66H39.3v9.8H35ZM72.5,72.5l.2-12.4-3.1,3.1-7-7-6.4,6.4,7,7-3.1,3.1Z" transform="translate(0 0)"/></g><path class="eb317aa4-deab-480d-8a90-173fd2538f88" d="M87.6,44.3A43.81,43.81,0,0,1,0,44.3v.5a43.8,43.8,0,0,0,87.6,0Z" transform="translate(0 0)"/><circle class="ba462541-4bb0-4967-b02f-060c9fde75a7" cx="43.8" cy="43.8" r="14.8"/><circle class="f45f8031-b137-41b3-9c23-e8f3988c393c" cx="43.8" cy="43.8" r="11.8"/><path class="ba18050f-0feb-4691-812f-0281444a68e6" d="M43.8,29.1A14.75,14.75,0,1,0,58.6,43.9,14.75,14.75,0,0,0,43.8,29.1Zm-.2,28.7A14.15,14.15,0,1,1,57.8,43.7,14.16,14.16,0,0,1,43.6,57.8Z" transform="translate(0 0)"/><path class="ab43f473-bdcb-4dd5-b6ec-d8e4f54ffe06" d="M43.8,58.6A14.75,14.75,0,1,0,29,43.9,14.75,14.75,0,0,0,43.8,58.6ZM44,29.9a14.1,14.1,0,0,1,0,28.2h0A14,14,0,0,1,29.9,44.2h0V44h0A14.08,14.08,0,0,1,44,29.9Z" transform="translate(0 0)"/><circle cx="43.6" cy="32.8" r="20.5"/></svg>