<svg xmlns="http://www.w3.org/2000/svg" xmlns:xlink="http://www.w3.org/1999/xlink" viewBox="0 0 470.58 67.66"><defs><style>.e15db200-ac38-491c-97b1-50b501d4e01b{stroke:#9def48;stroke-miterlimit:10;fill:url(#fbd47339-1c80-4584-9a2d-1ff7d800d3d7);}.b098ce17-2485-47dc-b131-69a634841033{fill:#9def48;}.bbac33ba-2777-4cc6-84e9-948153bd11f2{fill:#fff;}</style><linearGradient id="fbd47339-1c80-4584-9a2d-1ff7d800d3d7" x1="0.5" y1="33.83" x2="470.08" y2="33.83" gradientUnits="userSpaceOnUse"><stop offset="0" stop-color="#032c02"/><stop offset="1" stop-color="#207a09"/></linearGradient></defs><g id="b59368c1-6501-4ee1-adf3-c003eb93aaef" data-name="calque3"><polygon class="e15db200-ac38-491c-97b1-50b501d4e01b" points="0.5 6.04 102.57 6.04 108.7 0.5 150.44 0.5 158.35 6.04 461.77 6.24 470.08 16.13 470.08 59.84 50.94 59.84 42.83 67.16 8.02 67.16 0.5 59.84 0.5 6.04"/><path class="b098ce17-2485-47dc-b131-69a634841033" d="M62.16,39.74H80.24a16.45,16.45,0,0,0,2.32-8.19,16.51,16.51,0,0,0-2.32-8.19H77.52V19.3h4.89a18.2,18.2,0,0,1,4.22,12.25A18.17,18.17,0,0,1,82.41,43.8H60a18.12,18.12,0,0,1-4.22-12.25h4.07A16.38,16.38,0,0,0,62.16,39.74Z"/><path class="b098ce17-2485-47dc-b131-69a634841033" d="M96.85,37,92.56,43.8H87.48l15.57-24.5h4.69l15.44,24.5h-5L113.94,37Zm14.56-4-6-9.58-6,9.58Z"/><path class="b098ce17-2485-47dc-b131-69a634841033" d="M130.67,39.74h18.42l2.34,4.06H126.6v-21l4.07-4.07Z"/><path class="b098ce17-2485-47dc-b131-69a634841033" d="M174.61,33.57H157.69a17.53,17.53,0,0,0,2.2,6.17H180l2.34,4.06H157.71a17.59,17.59,0,0,1-4.14-10.23h-3.85V29.52h3.85a17.51,17.51,0,0,1,4.14-10.22h24.66L180,23.36H159.89a17.28,17.28,0,0,0-2.2,6.16h16.92Z"/><path class="b098ce17-2485-47dc-b131-69a634841033" d="M211.74,36.51h4.38a17.09,17.09,0,0,1-3.68,7.29H188.3a18.15,18.15,0,0,1-4.22-12.25A18.15,18.15,0,0,1,188.3,19.3h24.14a17.09,17.09,0,0,1,3.68,7.29h-4.38a17.47,17.47,0,0,0-1.47-3.23H190.48a16.35,16.35,0,0,0-2.34,8.19,16.44,16.44,0,0,0,2.34,8.19h19.79A18.41,18.41,0,0,0,211.74,36.51Z"/><path class="b098ce17-2485-47dc-b131-69a634841033" d="M247.91,43.8H223.76a18.15,18.15,0,0,1-4.22-12.25,18.12,18.12,0,0,1,4.22-12.25h24.15a18.17,18.17,0,0,1,4.22,12.25A18.2,18.2,0,0,1,247.91,43.8Zm-2.17-4.06a16.51,16.51,0,0,0,2.32-8.19,16.43,16.43,0,0,0-2.32-8.19H226a16.37,16.37,0,0,0-2.35,8.19A16.45,16.45,0,0,0,226,39.74Z"/></g><g id="ac278cf6-80cb-44ec-944c-84212db91a31" data-name="jaleco"><g id="b1fa4c59-2e4d-40a2-af89-8ab0ab9ed087" data-name="g1"><path id="aaea2979-ef04-42c2-a011-5625ea19363f" data-name="path1" class="bbac33ba-2777-4cc6-84e9-948153bd11f2" d="M32.82,57.81a10.21,10.21,0,0,1-1.9,4.33,8.22,8.22,0,0,1-4.08,2.62,8.56,8.56,0,0,1-3.11,0,8.59,8.59,0,0,1-3-1.55,8.7,8.7,0,0,1-2.5-3.63,7.51,7.51,0,0,1-.52-3.34A7.23,7.23,0,0,1,18,53.71a8.44,8.44,0,0,1,4.29-5.43,6,6,0,0,1,3-.71,6.08,6.08,0,0,1,3,.71,7.68,7.68,0,0,1,3.55,3.57,8.22,8.22,0,0,1,1,4.1,13,13,0,0,1,0,1.86ZM30.7,56.23l-.6-.59.58-.58.57-.57-.56-.57-.57-.57.61-.62.61-.61-.61-.62a3.17,3.17,0,0,0-.71-.61,12.41,12.41,0,0,0-1.32,1.23l-1.23,1.23.59.59.59.6-.57.56-.57.57.57.57.57.57-.57.57a4.31,4.31,0,0,0-.57.63,4.31,4.31,0,0,0,.57.63l.56.55-.52.51a2.79,2.79,0,0,0-.51.61,3.23,3.23,0,0,0,.64.73l.63.64,1.17-1.14c.63-.62,1.16-1.15,1.16-1.18a4.72,4.72,0,0,0-.58-.6l-.58-.55.63-.6a3.84,3.84,0,0,0,.62-.69,3.76,3.76,0,0,0-.6-.69Zm-4.06,2.36-.59-.6.56-.57.56-.57-.56-.56-.56-.57.61-.62.6-.61-.58-.58a5.5,5.5,0,0,1-.59-.64,4.33,4.33,0,0,1,.53-.59c.62-.63.62-.73,0-1.32-.47-.43-.47-.44.06-1s.56-.52-.05-1.14a2.46,2.46,0,0,0-.71-.56,14.7,14.7,0,0,0-2.37,2.36,2.38,2.38,0,0,0,.52.67l.53.53-.43.42a1.57,1.57,0,0,0-.43.56,1.88,1.88,0,0,0,.48.62l.47.47-.57.57a3.73,3.73,0,0,0-.57.67,4,4,0,0,0,.54.63l.55.55-.55.55a3.44,3.44,0,0,0-.54.64,3.47,3.47,0,0,0,.57.66l.57.56-.64.64-.63.64L24,61l.56.57-.54.53a2.59,2.59,0,0,0-.54.64,5.45,5.45,0,0,0,1.29,1.29,5.76,5.76,0,0,0,.95-.92l.88-1,.33-.36.28-.31L26.63,61l-.54-.55.57-.56a7,7,0,0,0,.57-.61,5.64,5.64,0,0,0-.59-.64Zm-4.13-3.51.59-.59-.56-.57L22,53.35l.61-.62.62-.61-.62-.62a3.5,3.5,0,0,0-.7-.61,11.06,11.06,0,0,0-1.33,1.23l-1.23,1.23.54.55a4.93,4.93,0,0,1,.55.6,4.46,4.46,0,0,1-.55.59l-.54.53.59.59.59.6-.57.57a2.7,2.7,0,0,0-.56.66,2.73,2.73,0,0,0,.55.63l.55.54-.57.56-.56.57L20,61l.68.69,1.17-1.17,1.18-1.17-.59-.6-.59-.59.63-.64.64-.63-.61-.62-.62-.62Zm7.37-10.41A2.51,2.51,0,0,1,28,46.38a3.25,3.25,0,0,1-1.82,0,1.5,1.5,0,0,1-.11-.69A1.56,1.56,0,0,1,26.2,45a1.83,1.83,0,0,1,.83-.11c1.14,0,1.58-.38,1.5-1.25a1,1,0,0,0-.64-1,32.25,32.25,0,0,0-3.69-.16l-3.46,0V41.08H28l.57.29a2.64,2.64,0,0,1,1.28,3.3Zm.05-26.4a3.08,3.08,0,0,1-.9,1.39c-.84.75-1.8,1-3.62,1a6.54,6.54,0,0,1-3-.56,2.77,2.77,0,0,1,.93-5.38c.8-.06.93,0,.93.71s-.12.78-.6.78a2.12,2.12,0,0,0-1.4.46c-.24.21-.28.33-.29.74,0,.71.32,1.1,1.2,1.41a12.32,12.32,0,0,0,3.69.15c1.17-.21,1.76-.69,1.76-1.43s-.59-1.21-1.73-1.3a2.77,2.77,0,0,1-.81-.15,2,2,0,0,1,0-1.39,4.16,4.16,0,0,1,2.1.29,2.92,2.92,0,0,1,1.64,1.63,2.35,2.35,0,0,1,.06,1.65Zm0-6.23a3.11,3.11,0,0,1-2.35,2,7.39,7.39,0,0,1-2.28.21c-2.16,0-3.21-.33-4-1.22A2.8,2.8,0,0,1,22.69,8.5a10.51,10.51,0,0,1,5.74.23A2.73,2.73,0,0,1,29.91,12Zm-1.5-1.49c-.33-.4-.87-.58-2.06-.71a9.22,9.22,0,0,0-2.1,0C22.53,10,22,10.33,22,11.2a1,1,0,0,0,.29.79c.35.4.68.5,2,.62a9.23,9.23,0,0,0,3.58-.3,1.14,1.14,0,0,0,.54-1.76Zm1.48,30.28c-.07.1-.47,0-2.15-.36-5-1.18-6.92-1.65-7-1.74s-.11-.47-.11-1.45V35.91l.26-.1c.28-.1,2.27-.59,6.36-1.56,2-.47,2.62-.58,2.67-.49a2.53,2.53,0,0,1,0,1.42,10.61,10.61,0,0,1-1.83.49l-1.81.4c-.1,0-.12.32-.1,1.24l0,1.21.33.07,1.84.4a7.1,7.1,0,0,1,1.58.45,3.11,3.11,0,0,1,0,1.39Zm-5.56-4.34a5.17,5.17,0,0,0-.73.14L22.06,37,21,37.21c-.24.08,0,.21.75.36.39.08,1.17.24,1.73.37l1,.22v-.84C24.48,36.63,24.45,36.49,24.33,36.49ZM29.85,33a34.31,34.31,0,0,1-4.62.08l-4.49,0V31.61l3.91,0,3.9,0v-2c0-2.3,0-2.23.75-2.23s.67,0,.67,2.93C30,32.34,30,32.88,29.85,33Zm0-6.41c-.09.16-.4.17-4.52.17-2.43,0-4.48,0-4.54-.08s-.12-.66-.1-2.68l0-2.59.58,0c.52,0,.6,0,.7.17a8.27,8.27,0,0,1,.08,1.87v1.68l1.15,0,1.14,0V23.48a5.36,5.36,0,0,1,.12-1.75,1.63,1.63,0,0,1,1.19,0,5.36,5.36,0,0,1,.12,1.75v1.64h2.74V23.19a7,7,0,0,1,.12-2,1.25,1.25,0,0,1,.61-.12c.4,0,.52,0,.6.19A36.47,36.47,0,0,1,29.87,26.56Z"/></g></g></svg>