<svg id="e0871da1-eefc-4645-a0c2-242c9740fd51" data-name="texte" xmlns="http://www.w3.org/2000/svg" xmlns:xlink="http://www.w3.org/1999/xlink" viewBox="0 0 470.33 67.41"><defs><style>.a6196367-111d-443f-8dea-aec9e96a16d2{stroke:#9def48;stroke-miterlimit:10;stroke-width:0.75px;fill:url(#a6ce3473-5378-4b3b-925a-db0af015b83a);}.a6df17a5-a788-48ee-90a8-15ffc8adf9b1{fill:#9def48;}</style><linearGradient id="a6ce3473-5378-4b3b-925a-db0af015b83a" x1="0.38" y1="33.7" x2="469.96" y2="33.7" gradientUnits="userSpaceOnUse"><stop offset="0" stop-color="#032c02"/><stop offset="1" stop-color="#207a09"/></linearGradient></defs><polygon class="a6196367-111d-443f-8dea-aec9e96a16d2" points="0.38 5.91 102.44 5.91 108.57 0.38 150.31 0.38 158.22 5.91 461.65 6.11 469.96 16 469.96 59.72 50.81 59.72 42.7 67.03 7.89 67.03 0.38 59.72 0.38 5.91"/><path class="a6df17a5-a788-48ee-90a8-15ffc8adf9b1" d="M79.26,37.77h4.38A17.13,17.13,0,0,1,80,45.07H55.81a18.25,18.25,0,0,1-4.22-12.26,18.22,18.22,0,0,1,4.22-12.25H80a17.13,17.13,0,0,1,3.68,7.3H79.26a17.18,17.18,0,0,0-1.47-3.23H58a16.32,16.32,0,0,0-2.34,8.18A16.41,16.41,0,0,0,58,41H77.79A18.09,18.09,0,0,0,79.26,37.77Z" transform="translate(-0.13 -0.13)"/><path class="a6df17a5-a788-48ee-90a8-15ffc8adf9b1" d="M115.42,45.07H91.28a18.2,18.2,0,0,1-4.23-12.26,18.12,18.12,0,0,1,4.23-12.25h24.14a18.12,18.12,0,0,1,4.23,12.25A18.2,18.2,0,0,1,115.42,45.07ZM113.25,41a16.5,16.5,0,0,0,2.33-8.19,16.41,16.41,0,0,0-2.33-8.18H93.46a16.32,16.32,0,0,0-2.34,8.18A16.41,16.41,0,0,0,93.46,41Z" transform="translate(-0.13 -0.13)"/><path class="a6df17a5-a788-48ee-90a8-15ffc8adf9b1" d="M128,41h18.42l2.34,4.07H123.92V24L128,20Z" transform="translate(-0.13 -0.13)"/><path class="a6df17a5-a788-48ee-90a8-15ffc8adf9b1" d="M171.92,34.83H155A17.49,17.49,0,0,0,157.21,41h20.13l2.34,4.07H155a17.67,17.67,0,0,1-4.13-10.24H147v-4h3.85A17.56,17.56,0,0,1,155,20.56h24.66l-2.34,4.07H157.21A17.33,17.33,0,0,0,155,30.78h16.92Z" transform="translate(-0.13 -0.13)"/><path class="a6df17a5-a788-48ee-90a8-15ffc8adf9b1" d="M209.06,37.77h4.37a17.11,17.11,0,0,1-3.67,7.3H185.61a18.25,18.25,0,0,1-4.22-12.26,18.22,18.22,0,0,1,4.22-12.25h24.15a17.11,17.11,0,0,1,3.67,7.3h-4.37a18.55,18.55,0,0,0-1.47-3.23H187.8a16.32,16.32,0,0,0-2.34,8.18A16.41,16.41,0,0,0,187.8,41h19.79A19.62,19.62,0,0,0,209.06,37.77Z" transform="translate(-0.13 -0.13)"/><path class="a6df17a5-a788-48ee-90a8-15ffc8adf9b1" d="M245.22,45.07H221.07a18.25,18.25,0,0,1-4.22-12.26,18.17,18.17,0,0,1,4.22-12.25h24.15a18.12,18.12,0,0,1,4.22,12.25A18.2,18.2,0,0,1,245.22,45.07ZM243.05,41a16.5,16.5,0,0,0,2.33-8.19,16.41,16.41,0,0,0-2.33-8.18H223.26a16.32,16.32,0,0,0-2.34,8.18A16.41,16.41,0,0,0,223.26,41Z" transform="translate(-0.13 -0.13)"/><path class="a6df17a5-a788-48ee-90a8-15ffc8adf9b1" d="M286,20.56,270.53,45.07h-4.68L250.3,20.56h5.07L268.24,41,281,20.56Z" transform="translate(-0.13 -0.13)"/><path class="a6df17a5-a788-48ee-90a8-15ffc8adf9b1" d="M293.48,45.07h-4.06V24L293.48,20Z" transform="translate(-0.13 -0.13)"/><path class="a6df17a5-a788-48ee-90a8-15ffc8adf9b1" d="M329.36,30.78l1.84,2A18.21,18.21,0,0,1,327,45.07H302.83a17.11,17.11,0,0,1-3.67-7.3h4.37A19,19,0,0,0,305,41h19.79A17.3,17.3,0,0,0,327,34.83H300.46l-1.85-2a18.22,18.22,0,0,1,4.22-12.25H327a17,17,0,0,1,3.67,7.3h-4.37a17.84,17.84,0,0,0-1.47-3.23H305a17.3,17.3,0,0,0-2.2,6.15Z" transform="translate(-0.13 -0.13)"/><path class="a6df17a5-a788-48ee-90a8-15ffc8adf9b1" d="M340.4,45.07h-4.07V24L340.4,20Z" transform="translate(-0.13 -0.13)"/><path class="a6df17a5-a788-48ee-90a8-15ffc8adf9b1" d="M373.89,45.07H349.74a18.25,18.25,0,0,1-4.22-12.26,18.17,18.17,0,0,1,4.22-12.25h24.15a18.17,18.17,0,0,1,4.22,12.25A18.25,18.25,0,0,1,373.89,45.07ZM371.72,41a16.5,16.5,0,0,0,2.33-8.19,16.41,16.41,0,0,0-2.33-8.18H351.93a16.32,16.32,0,0,0-2.34,8.18A16.41,16.41,0,0,0,351.93,41Z" transform="translate(-0.13 -0.13)"/><path class="a6df17a5-a788-48ee-90a8-15ffc8adf9b1" d="M387.94,24.63a16.32,16.32,0,0,0-2.34,8.18A16.41,16.41,0,0,0,387.94,41h2.7v4.07h-4.89a18.25,18.25,0,0,1-4.22-12.26,18.17,18.17,0,0,1,4.22-12.25H409.9a18.17,18.17,0,0,1,4.22,12.25,18.25,18.25,0,0,1-4.22,12.26H405V41h2.72a16.48,16.48,0,0,0,2.32-8.19,16.39,16.39,0,0,0-2.32-8.18Z" transform="translate(-0.13 -0.13)"/></svg>