<?xml version="1.0" encoding="utf-8"?>
<!-- Generator: Adobe Illustrator 24.1.2, SVG Export Plug-In . SVG Version: 6.00 Build 0)  -->
<svg version="1.1" id="Calque_1" xmlns="http://www.w3.org/2000/svg" xmlns:xlink="http://www.w3.org/1999/xlink" x="0px" y="0px"
	 viewBox="0 0 178 221.7" style="enable-background:new 0 0 178 221.7;" xml:space="preserve">
<style type="text/css">
	.st0{fill:#918F8B;}
	.st1{fill:#7B7677;}
	.st2{fill:#898784;stroke:#4C4C4C;stroke-width:1.000000e-02;stroke-miterlimit:10;}
	.st3{fill:#837C6F;}
	.st4{fill:#5E4C3F;}
	.st5{fill:#939393;}
	.st6{fill:#91918B;}
	.st7{fill:#84817E;}
	.st8{fill:#004F8A;}
	.st9{fill:#014577;}
	.st10{fill:#91918F;}
	.st11{fill:#878786;}
	.st12{fill:#8C8C8C;}
	.st13{fill:#FFFFFF;}
	.st14{fill:#F1D941;}
	.st15{fill:#898888;}
	.st16{fill:#636A75;}
	.st17{fill:#5E717C;}
	.st18{fill:#093F72;}
	.st19{fill:url(#SVGID_1_);}
	.st20{fill:#065D93;}
</style>
<circle class="st0" cx="90.8" cy="154.5" r="14"/>
<g>
	<path class="st1" d="M92.2,147.2c2.9,0.6,5.2,2.8,5.8,5.7h2.5c-0.7-4.2-4-7.6-8.3-8.2V147.2z M89.3,147.3c-2.9,0.6-5.1,2.8-5.7,5.7
		h-2.5c0.7-4.2,4-7.6,8.3-8.2L89.3,147.3C89.4,147.2,89.3,147.3,89.3,147.3z M89.4,161.7c-3-0.6-5.3-2.9-5.8-5.9h-2.5
		c0.6,4.3,4,7.7,8.3,8.4V161.7z M92.2,161.7c3-0.6,5.3-2.9,5.8-5.9h2.5c-0.6,4.3-4,7.7-8.3,8.4V161.7z"/>
</g>
<g>
	<path class="st2" d="M80.3,141.1v-4.4h1.3c0.4,0,0.7,0.1,1,0.3c0.2,0.2,0.4,0.5,0.4,0.9c0,0.3-0.1,0.5-0.2,0.7
		c-0.1,0.2-0.3,0.3-0.5,0.4c-0.2,0.1-0.5,0.1-0.9,0.1h-0.4v1.9L80.3,141.1L80.3,141.1z M81.6,137.3h-0.6v1.4h0.7
		c0.2,0,0.4-0.1,0.6-0.2c0.1-0.1,0.2-0.3,0.2-0.5C82.4,137.5,82.1,137.3,81.6,137.3z M85.6,136.7c0.7,0,1.2,0.2,1.6,0.6
		s0.7,1,0.7,1.6c0,0.7-0.2,1.2-0.7,1.6c-0.4,0.4-1,0.6-1.7,0.6c-0.6,0-1.2-0.2-1.6-0.6c-0.4-0.4-0.6-1-0.6-1.6
		c0-0.7,0.2-1.2,0.6-1.6S85,136.7,85.6,136.7z M85.6,137.3c-0.5,0-0.9,0.2-1.2,0.5c-0.3,0.3-0.5,0.7-0.5,1.2c0,0.5,0.2,0.9,0.5,1.2
		s0.7,0.5,1.2,0.5c0.5,0,0.9-0.2,1.2-0.5c0.3-0.3,0.5-0.7,0.5-1.2c0-0.5-0.2-0.9-0.5-1.2S86.1,137.3,85.6,137.3z M93.8,136.7h0.6
		l-1.7,4.4h-0.1l-1.4-3.6l-1.4,3.6h-0.1l-1.7-4.4h0.6l1.2,3l1.2-3h0.6l1.2,3L93.8,136.7z M94.9,136.7h2.4v0.6h-1.8v1.3h1.7v0.6h-1.7
		v1.4h1.9v0.6h-2.5V136.7z M98,141.1v-4.4h1.1c0.4,0,0.8,0.1,1,0.3c0.3,0.2,0.4,0.5,0.4,0.9c0,0.3-0.1,0.5-0.2,0.7
		c-0.1,0.2-0.3,0.3-0.5,0.4c0.1,0.1,0.3,0.2,0.4,0.4c0.1,0.2,0.3,0.4,0.5,0.8c0.1,0.3,0.3,0.4,0.4,0.6l0.2,0.3h-0.7l-0.2-0.3
		c0,0,0,0,0-0.1l-0.1-0.2l-0.2-0.3l-0.2-0.3c-0.1-0.2-0.2-0.3-0.3-0.4c-0.1-0.1-0.2-0.2-0.3-0.2s-0.2-0.1-0.4-0.1h-0.2v1.9L98,141.1
		L98,141.1z M98.8,137.3h-0.2v1.4h0.2c0.3,0,0.5,0,0.6-0.1s0.2-0.1,0.3-0.2c0.1-0.1,0.1-0.2,0.1-0.4c0-0.1,0-0.3-0.1-0.4
		s-0.2-0.2-0.3-0.2S99.1,137.3,98.8,137.3L98.8,137.3z"/>
</g>
<circle class="st3" cx="90.8" cy="154.4" r="5"/>
<circle class="st0" cx="90.8" cy="181" r="11.2"/>
<g>
	<path class="st1" d="M91.9,175.2c2.3,0.5,4.1,2.3,4.6,4.6h2c-0.5-3.4-3.2-6.1-6.6-6.6L91.9,175.2z M89.6,175.2
		c-2.3,0.5-4.1,2.3-4.6,4.6h-2c0.5-3.4,3.2-6.1,6.6-6.6L89.6,175.2L89.6,175.2z M89.7,186.8c-2.4-0.5-4.2-2.3-4.7-4.7h-2
		c0.5,3.5,3.2,6.2,6.6,6.7V186.8z M91.9,186.8c2.4-0.5,4.2-2.3,4.7-4.7h2c-0.5,3.5-3.2,6.2-6.6,6.7V186.8z"/>
</g>
<circle class="st4" cx="90.8" cy="180.9" r="4"/>
<g>
	<path class="st2" d="M82.8,174.2v-4.4h1.1c0.4,0,0.8,0.1,1,0.3c0.3,0.2,0.4,0.5,0.4,0.9c0,0.3-0.1,0.5-0.2,0.7
		c-0.1,0.2-0.3,0.3-0.5,0.4c0.1,0.1,0.3,0.2,0.4,0.4c0.1,0.2,0.3,0.4,0.5,0.8c0.1,0.3,0.3,0.4,0.4,0.6l0.2,0.3h-0.7l-0.2-0.3
		c0,0,0,0,0-0.1l-0.1-0.2l-0.2-0.3l-0.2-0.3c-0.1-0.2-0.2-0.3-0.3-0.4c-0.1-0.1-0.2-0.2-0.3-0.2s-0.2-0.1-0.4-0.1h-0.2v1.9
		L82.8,174.2L82.8,174.2z M83.6,170.3h-0.2v1.4h0.2c0.3,0,0.5,0,0.6-0.1s0.2-0.1,0.3-0.2c0.1-0.1,0.1-0.2,0.1-0.4
		c0-0.1,0-0.3-0.1-0.4s-0.2-0.2-0.3-0.2S83.9,170.3,83.6,170.3L83.6,170.3z M86.5,169.8H89v0.6h-1.8v1.3h1.7v0.6h-1.7v1.4H89v0.6
		h-2.5V169.8z M90.7,172.4l-0.5-0.3c-0.3-0.2-0.5-0.4-0.6-0.5s-0.2-0.4-0.2-0.6c0-0.3,0.1-0.6,0.3-0.8c0.2-0.2,0.5-0.3,0.9-0.3
		c0.4,0,0.7,0.1,1,0.3v0.7c-0.3-0.3-0.6-0.5-1-0.5c-0.2,0-0.3,0-0.5,0.1c-0.1,0.1-0.2,0.2-0.2,0.4c0,0.1,0.1,0.3,0.1,0.4
		c0.1,0.1,0.2,0.2,0.5,0.4l0.5,0.3c0.5,0.3,0.8,0.7,0.8,1.2c0,0.4-0.1,0.6-0.3,0.9c-0.2,0.2-0.5,0.3-0.9,0.3c-0.4,0-0.8-0.1-1.1-0.4
		v-0.8c0.3,0.4,0.7,0.6,1.1,0.6c0.2,0,0.3-0.1,0.5-0.2s0.2-0.2,0.2-0.4C91.3,172.9,91.1,172.6,90.7,172.4L90.7,172.4z M92.5,169.8
		h2.4v0.6h-1.8v1.3h1.7v0.6h-1.7v1.4H95v0.6h-2.5V169.8z M95.3,169.8h3.5v0.6h-1.5v3.9h-0.6v-3.9h-1.5V169.8z"/>
</g>
<path class="st5" d="M89,27c-0.7,0-1.2-0.6-1.2-1.2V9.1c0-0.7,0.6-1.2,1.2-1.2c0.7,0,1.2,0.6,1.2,1.2v16.7C90.2,26.5,89.7,27,89,27z
	 M65.4,14.3l1.1,3.9c0.2,0.7,0.9,1.1,1.6,0.9c0.7-0.2,1.1-0.9,0.9-1.6l-1.1-3.9v-4c0-0.7-0.6-1.3-1.3-1.3c-0.7,0-1.3,0.6-1.3,1.3
	C65.3,9.6,65.4,14.3,65.4,14.3z M112.6,14.3l-1.1,3.9c-0.2,0.7-0.9,1.1-1.6,0.9c-0.7-0.2-1.1-0.9-0.9-1.6l1.1-3.9v-4
	c0-0.7,0.6-1.3,1.3-1.3c0.7,0,1.3,0.6,1.3,1.3C112.7,9.6,112.6,14.3,112.6,14.3z M0.6,121.4h17.6v-3.6H0.8 M162.3,99.3h3.3v14.6
	h-3.3V99.3z"/>
<path class="st5" d="M175.5,102.6h-13.2v-3.3h12.9 M175.8,107.8h-13.5v-3.3h13.3 M158.1,221.1v-27.7H155v28.2"/>
<path class="st5" d="M176.6,191.8h-20v3.1h19.6"/>
<g>
	<path class="st6" d="M138.2,127.5l-4.2,4.6c-1.1,1.2-1,3.1,0.2,4.3l5.4,4.9l8.2-9.1l-5.4-4.9C141.2,126.2,139.3,126.3,138.2,127.5
		L138.2,127.5z M143.9,132.7l-4.1,4.6l-2.7-2.4c-0.6-0.6-0.7-1.5-0.1-2.1l2.1-2.3c0.6-0.6,1.5-0.7,2.1-0.1L143.9,132.7L143.9,132.7z
		 M135.5,156.4l4.4,4.4c1.2,1.2,3.1,1.2,4.3,0l5.2-5.2l-8.7-8.7l-5.2,5.2C134.4,153.3,134.4,155.2,135.5,156.4z M141,151l4.3,4.3
		l-2.6,2.6c-0.6,0.6-1.5,0.6-2.1,0l-2.2-2.2c-0.6-0.6-0.6-1.5,0-2.1L141,151z"/>
	<path class="st6" d="M152.8,158.4c-8.3,0-15.1-6.8-15.1-15.1c0-8.3,6.8-15.1,15.1-15.1s15.1,6.8,15.1,15.1
		C167.9,151.6,161.1,158.4,152.8,158.4z"/>
	<path class="st6" d="M164.2,162.3l4.4-4.4c1.2-1.2,1.2-3.1,0-4.3l-5.2-5.2l-8.7,8.7l5.2,5.2C161.2,163.5,163.1,163.5,164.2,162.3z
		 M158.8,156.8l4.3-4.3l2.6,2.6c0.6,0.6,0.6,1.5,0,2.1l-2.2,2.2c-0.6,0.6-1.5,0.6-2.1,0L158.8,156.8z"/>
</g>
<g>
	<path class="st7" d="M123.8,146h-6.2c-1.7,0-3,1.4-3,3v7.3h12.3V149C126.8,147.3,125.5,146,123.8,146z M123.8,153.7h-6.1v-3.7
		c0-0.8,0.7-1.5,1.5-1.5h3.1c0.8,0,1.5,0.7,1.5,1.5C123.8,150.1,123.8,153.7,123.8,153.7z M105.5,183.1l4.8,4
		c1.3,1.1,3.2,0.9,4.2-0.4l4.7-5.6l-9.4-7.8l-4.7,5.6C104,180.1,104.2,182,105.5,183.1z M110.5,177.1l4.7,3.9l-2.3,2.8
		c-0.5,0.6-1.5,0.7-2.1,0.2l-2.4-2c-0.6-0.5-0.7-1.5-0.2-2.1L110.5,177.1L110.5,177.1z"/>
	<path class="st7" d="M121.6,182.3c-8.3,0-15.1-6.8-15.1-15.1c0-8.3,6.8-15.1,15.1-15.1s15.1,6.8,15.1,15.1
		C136.7,175.5,129.9,182.3,121.6,182.3z"/>
</g>
<circle class="st8" cx="121.6" cy="167.5" r="11.2"/>
<path class="st9" d="M119.1,173h-2.7v-10.3h2.6c1.6,0,2.8,0.8,2.8,2.7c0,0.8-0.4,1.7-1.2,2.1c0.9,0.3,1.4,1.2,1.4,2.3
	C122,172,120.8,173,119.1,173z M119,164.1h-1.2v2.8h1.2c0.8,0,1.4-0.4,1.4-1.4C120.4,164.5,119.8,164.1,119,164.1L119,164.1z
	 M119,168.3h-1.1v3.3h1.3c0.9,0,1.4-0.5,1.4-1.7C120.5,168.8,119.9,168.3,119,168.3L119,168.3z"/>
<circle class="st10" cx="18.2" cy="119.6" r="6.3"/>
<circle class="st10" cx="164" cy="113.9" r="5.9"/>
<circle class="st10" cx="156.6" cy="193.3" r="5.5"/>
<ellipse transform="matrix(2.628852e-02 -0.9997 0.9997 2.628852e-02 -161.2612 209.8443)" class="st10" cx="27.1" cy="187.7" rx="5.8" ry="5.8"/>
<circle class="st10" cx="52.4" cy="10.8" r="6.3"/>
<circle class="st10" cx="125.6" cy="10.8" r="6.3"/>
<circle class="st10" cx="148.9" cy="21.6" r="4.5"/>
<circle class="st10" cx="29.2" cy="21.5" r="4.5"/>
<g>
	<circle class="st11" cx="18.2" cy="119.6" r="1.8"/>
	<circle class="st11" cx="164" cy="113.9" r="1.7"/>
	<circle class="st11" cx="156.6" cy="193.3" r="1.6"/>
	<circle class="st11" cx="27.1" cy="187.7" r="1.6"/>
	<circle class="st11" cx="52.4" cy="10.8" r="1.8"/>
	<circle class="st11" cx="125.6" cy="10.8" r="1.8"/>
	<circle class="st11" cx="148.9" cy="21.6" r="1.3"/>
	<circle class="st11" cx="29.2" cy="21.5" r="1.3"/>
</g>
<g>
	<circle class="st8" cx="152.9" cy="143.2" r="11.2"/>
	<path class="st9" d="M152.6,148.8l-0.6-2.7h-2.2l-0.6,2.7h-1.5l2.5-10.3h1.5l2.5,10.3H152.6z M151.4,143c-0.1-0.7-0.4-1.9-0.4-2.2
		c-0.1,0.4-0.3,1.6-0.4,2.2l-0.4,1.7h1.6L151.4,143L151.4,143z"/>
</g>
<g>
	<path class="st12" d="M173.8,77.8c-0.1-1.2-0.2-3.1-0.5-5.6c-1-10.1-4.1-40.4-17-56.2C143.3,0.2,121.1,0.2,86.8,0
		C63.7-0.1,29.2-0.2,15.4,21.3c-1.9,2.9-3.1,5.8-5.3,15C3.6,62.8,2.4,84.2,1.4,105c-2.6,52.3-2.7,69.8,10.2,84.4
		c0.5,0.5,0.9,1,0.9,1c7.8,8.3,18.9,9.8,25.8,10.6c19.3,2.3,30.3,3,30.3,3c25.1,1.5,37.4,3,45,4.5c16.3,3.1,18.3,4.4,25.1,8
		c0.6,0.3,8.9,4.3,11.3,4.8c0,0,7.7,1.7,16.6-4C183.1,207,178.1,140.7,173.8,77.8z M89,125.6c-37.2,0-67.4-22.6-67.4-50.5
		S51.8,24.6,89,24.6c37.2,0,67.4,22.6,67.4,50.5S126.2,125.6,89,125.6z"/>
	<path d="M60,110.5h-1v1.7h1c0,0,0.4-0.1,0.4-0.6v-0.6C60.5,111.1,60.5,110.7,60,110.5z"/>
	<path d="M89.5,112.1c0,0-1-0.1-1,1.2c0,1.1,1,1.1,1,1.1s0.9,0.1,0.9-1.1C90.5,112,89.5,112.1,89.5,112.1z"/>
	<path d="M75.4,37.8h27.3c2.3,0,3.7-1.6,3.7-3.5c0-1.9-1.4-3.5-3.7-3.5H75.4c-2.3,0-3.7,1.6-3.7,3.5C71.7,36.3,73.1,37.8,75.4,37.8z
		 M80.7,36.5h-1.3v-2.9h1.3V36.5z M103.3,32.7c0-0.5,0.4-0.8,0.9-0.8c0,0,0,0,0,0c0.5,0,0.8,0.4,0.8,0.9c0,0,0,0,0,0
		c0,0.5-0.4,0.8-0.9,0.8c0,0,0,0,0,0C103.7,33.6,103.3,33.2,103.3,32.7C103.3,32.7,103.3,32.7,103.3,32.7z M102,33.4
		c1,0,1.9,0.7,1.9,1.6c0,0.9-0.8,1.6-1.9,1.6s-1.9-0.7-1.9-1.6C100.1,34.1,101,33.4,102,33.4z M97.7,33.5c0.3,0,0.5,0.1,0.7,0.3
		c0-0.7,0-1.6,0-1.6h1.3v4.3h-1.3l0-0.2c-0.5,0.3-1,0.3-1.5,0.1c-0.1-0.1-0.9-0.4-0.9-1.4C96.1,34.3,96.8,33.4,97.7,33.5z
		 M91.9,33.6l1.3,0c0,0,0,0.2,0,0.3c0.3-0.3,0.6-0.4,1-0.4c0.5,0,1.5,0.3,1.5,1.4c0,0.2,0,1.6,0,1.6h-1.3v-1.9
		c0-0.3-0.2-0.5-0.6-0.5c-0.3,0-0.6,0.3-0.6,0.5l0,1.9h-1.3L91.9,33.6z M89.6,33.4c1,0,1.9,0.7,1.9,1.6h-2.4l0,0.6
		c0,0.5,0.3,0.6,0.5,0.6c0.2,0,0.5-0.1,0.5-0.6l0-0.2l1.3,0c-0.2,0.7-1,1.2-1.8,1.2c-1,0-1.9-0.7-1.9-1.6
		C87.7,34.2,88.6,33.4,89.6,33.4z M85.2,33.2h0.7l0-0.6h1.3v0.6h0.7v0.4h-0.7l0,2.9h-1.3v-2.9h-0.7V33.2z M82.7,33.6v0.3
		c0.3-0.3,0.6-0.4,1-0.4c0.5,0,1.5,0.3,1.5,1.4v1.6h-1.3v-1.9c0-0.3-0.2-0.5-0.6-0.5s-0.6,0.3-0.6,0.5l0,1.9h-1.3l0-2.9L82.7,33.6z
		 M79.5,32.2h1.3v0.9h-1.3V32.2z M74.2,32.2h1.3l1.8,3l0-3h1.3v4.3h-1.3l-1.9-3v3h-1.3L74.2,32.2z"/>
	<path d="M75.8,111.9c-0.8,0-0.8,0.3-0.8,0.3v0.8h1.6v-0.8C76.6,112.2,76.6,111.9,75.8,111.9z"/>
	<path d="M90.1,34.1c-0.1-0.2-0.3-0.3-0.5-0.3h0c-0.2,0-0.4,0.1-0.5,0.3c-0.1,0.1-0.1,0.3-0.1,0.6h1.1
		C90.2,34.4,90.2,34.2,90.1,34.1z"/>
	<path d="M65.2,112.1c0,0-1-0.1-1,1.2c0,1.1,1,1.1,1,1.1s0.9,0.1,0.9-1.1C66.1,112,65.2,112.1,65.2,112.1z"/>
	<path d="M104.4,32.5c0-0.1-0.1-0.1-0.2-0.1H104v0.3v0h0.2C104.3,32.6,104.4,32.6,104.4,32.5z"/>
	<path d="M98,36.1c0.2,0,0.5-0.1,0.5-0.6V35v-0.5c0-0.4-0.3-0.6-0.5-0.6c-0.2,0-0.5,0.1-0.5,0.6l0,0.5l0,0.5
		C97.5,36,97.8,36.1,98,36.1z"/>
	<path d="M89,24.6c-37.2,0-67.4,22.6-67.4,50.5s30.2,50.5,67.4,50.5c37.2,0,67.4-22.6,67.4-50.5S126.2,24.6,89,24.6z M75.4,29.7
		h27.3c2.9,0,4.8,2.1,4.8,4.6c0,2.5-1.9,4.6-4.8,4.6H75.4c-2.9,0-4.8-2.1-4.8-4.6C70.6,31.8,72.5,29.7,75.4,29.7z M62.3,112.1
		c0,1.3-1.8,1.4-1.8,1.4h-1.4v2.4h-1.8v-6.7c0,0,1.4,0,3.2,0c1.8,0,1.8,1.6,1.8,1.6V112.1z M65.2,115.9c0,0-2.6,0.2-2.6-2.6
		c0-2.4,2-2.5,2.5-2.5h0.1c0,0,2.5,0,2.5,2.5C67.7,115.9,65.2,115.9,65.2,115.9z M73.1,115.9h-1.7l-1.3-2.4v2.4h-1.6v-7.1h1.6v3.9
		l1.3-1.9h1.7l-1.7,2.2L73.1,115.9z M78,113.9h-3c0,0-0.1,0.8,0.6,0.8c0.7,0,2,0,2,0v0.9c0,0-0.1,0.3-1.8,0.3
		c-1.6,0-2.5-1.3-2.5-2.6c0-1.2,0.4-2.5,2.4-2.5c2.3,0,2.3,2.2,2.3,2.2V113.9z M74.1,109.5L74.1,109.5l2.2-1.3l0.7,0.8l-2.3,1.2
		L74.1,109.5z M86.1,112.2v3.7h-1.4V113c0,0,0-0.8-0.7-0.8s-0.8,0.8-0.8,0.8v2.9h-1.4V113c0,0,0-0.8-0.7-0.8s-0.8,0.8-0.8,0.8v2.9
		h-1.4h0v-5.1h0.8c0.7,0,0.7,0.5,0.6,0.7c0.1-0.2,0.3-0.7,1.5-0.7c1.3,0,1.4,0.6,1.4,0.8c0-0.2,0.2-0.8,1.5-0.8
		C86.2,110.8,86.1,112.2,86.1,112.2z M89.5,115.9c0,0-2.6,0.2-2.6-2.6c0-2.4,2-2.5,2.5-2.5h0.1c0,0,2.5,0,2.5,2.5
		C92.1,115.9,89.5,115.9,89.5,115.9z M97.6,115.9h-1.5V113c0,0,0-0.8-0.9-0.8s-0.8,0.8-0.8,0.8v2.9h-1.6h0h0v-5.1H94
		c0.6,0,0.4,0.8,0.4,0.8s0.2-0.8,1.7-0.8c1.5,0,1.5,1.4,1.5,1.4V115.9z M108.7,115.6c0,0,0,0.3-0.3,0.3h-1c0,0-0.3,0-0.3-0.3V113
		c0,0,0-0.3-0.3-0.3h-1c0,0-0.3,0-0.3,0.3v2.6c0,0,0,0.3-0.3,0.3h-0.9c0,0-0.4,0-0.4-0.3V113c0,0,0.1-0.3-0.3-0.3h-0.9
		c0,0-0.3,0-0.3,0.3v2.6c0,0,0,0.3-0.3,0.3h-1c0,0-0.3,0-0.3-0.3v-4.3c0,0,0-0.5,0.6-0.5h6.7c0,0,0.6,0,0.6,0.5V115.6z M111.5,115.6
		c0,0,0,0.3-0.3,0.3h-0.7c0,0-0.3,0-0.3-0.3v-2c0,0,0-0.3,0.3-0.3c0.3,0,0.6,0,0.6,0c0,0,0.3,0,0.3,0.3V115.6z M111.5,112.2
		c0,0,0,0.3-0.3,0.3s-0.6,0-0.6,0c0,0-0.3,0-0.3-0.3v-0.9c0,0,0-0.3,0.3-0.3h0.6c0,0,0.3,0,0.3,0.3V112.2z M117.6,115.6
		c0,0.3-0.3,0.3-0.3,0.3h-0.6c-0.3,0-0.3-0.3-0.3-0.3V113c0-0.4-0.3-0.3-0.3-0.3h-1c-0.3,0-0.3,0.3-0.3,0.3v2.6
		c0,0.3-0.3,0.3-0.3,0.3h-0.9c-0.3,0-0.3-0.3-0.3-0.3c0,0,0-3.4,0-4c0-0.6,0.6-0.6,0.6-0.6h3.2c0.6,0,0.6,0.6,0.6,0.6V115.6z
		 M120.8,115.6c0,0,0,0.3-0.3,0.3h-0.7c0,0-0.3,0-0.3-0.3v-2c0,0,0-0.3,0.3-0.3c0.3,0,0.6,0,0.6,0c0,0,0.3,0,0.3,0.3V115.6z
		 M120.8,112.2c0,0,0,0.3-0.3,0.3c-0.3,0-0.6,0-0.6,0c0,0-0.3,0-0.3-0.3v-0.9c0,0,0-0.3,0.3-0.3h0.6c0,0,0.3,0,0.3,0.3V112.2z
		 M134.1,103.1c-0.1,1.2-1.5,1.6-9.6,2c-7,0.3-15.4,0.5-35.5,0.5s-28.5-0.2-35.5-0.5c-8-0.4-9.5-0.7-9.6-2
		c-0.4-6.2-0.3-12.4-0.5-28.7c0.2-16.3,0.2-22.5,0.5-28.7c0.1-1.2,1.5-1.6,9.6-2c7-0.3,15.4-0.5,35.5-0.5s28.5,0.2,35.5,0.5
		c8,0.4,9.5,0.7,9.6,2c0.4,6.2,0.3,12.4,0.5,28.7C134.4,90.8,134.5,96.9,134.1,103.1z"/>
	<path d="M104.2,33.4c0.4,0,0.7-0.3,0.7-0.7c0-0.4-0.3-0.7-0.7-0.7c-0.4,0-0.7,0.3-0.7,0.7C103.5,33.1,103.8,33.4,104.2,33.4z
		 M103.9,32.2h0.4c0.2,0,0.3,0.1,0.3,0.3c0,0.2-0.1,0.3-0.3,0.3l0.3,0.4h-0.2l-0.3-0.4H104v0.4h-0.1V32.2z"/>
	<path d="M102,36.3c0.3,0,0.5-0.2,0.5-0.6l0-0.6l0-0.6c0-0.5-0.3-0.6-0.5-0.6s-0.5,0.2-0.5,0.6l0,0.6l0,0.6
		C101.5,36.1,101.8,36.3,102,36.3z"/>
	<polygon class="st13" points="71.3,110.8 70.1,112.7 70.1,108.8 68.5,108.8 68.5,115.9 70.1,115.9 70.1,113.6 71.3,115.9 
		73.1,115.9 71.3,113.1 73.1,110.8 	"/>
	<path class="st13" d="M60.5,109.2c-1.8,0-3.2,0-3.2,0v6.7h1.8v-2.4h1.4c0,0,1.8-0.1,1.8-1.4v-1.3C62.3,110.8,62.3,109.2,60.5,109.2
		z M60.5,111.1v0.6c0,0.5-0.4,0.6-0.4,0.6h-1v-1.7h1C60.5,110.7,60.5,111.1,60.5,111.1z"/>
	<path class="st13" d="M65.2,110.8h-0.1c-0.5,0-2.5,0.1-2.5,2.5c0,2.7,2.6,2.6,2.6,2.6s2.5,0,2.5-2.6
		C67.7,110.8,65.2,110.8,65.2,110.8z M65.2,114.5c0,0-1,0-1-1.1c0-1.4,1-1.2,1-1.2c0,0,0.9-0.1,0.9,1.2
		C66.1,114.6,65.2,114.5,65.2,114.5z"/>
	<path class="st13" d="M80.3,111.6C80.3,111.6,80.3,111.7,80.3,111.6C80.3,111.7,80.3,111.6,80.3,111.6z"/>
	<path class="st13" d="M89.5,110.8h-0.1c-0.5,0-2.5,0.1-2.5,2.5c0,2.7,2.6,2.6,2.6,2.6s2.5,0,2.5-2.6
		C92.1,110.8,89.6,110.8,89.5,110.8z M89.5,114.5c0,0-1,0-1-1.1c0-1.4,1-1.2,1-1.2c0,0,0.9-0.1,0.9,1.2
		C90.5,114.6,89.5,114.5,89.5,114.5z"/>
	<path class="st13" d="M96.1,110.8c-1.5,0-1.7,0.8-1.7,0.8s0.1-0.8-0.4-0.8h-1.1v5.1h1.6V113c0,0,0-0.8,0.8-0.8s0.9,0.8,0.9,0.8v2.9
		h1.5v-3.7C97.6,112.2,97.6,110.8,96.1,110.8z"/>
	<path class="st13" d="M75.7,110.8c-1.9,0-2.4,1.3-2.4,2.5c0,1.2,0.8,2.6,2.5,2.6c1.6,0,1.8-0.3,1.8-0.3v-0.9c0,0-1.3,0-2,0
		c-0.7,0-0.6-0.8-0.6-0.8h3V113C78,113,78,110.8,75.7,110.8z M76.6,113H75v-0.8c0,0,0-0.3,0.8-0.3s0.8,0.3,0.8,0.3V113z"/>
	<path class="st13" d="M83.2,111.6C83.2,111.6,83.2,111.7,83.2,111.6C83.2,111.7,83.2,111.6,83.2,111.6z"/>
	<polygon class="st13" points="77,109.1 76.3,108.3 74.1,109.5 74.1,109.5 74.7,110.3 	"/>
	<path class="st13" d="M84.7,110.8c-1.3,0-1.5,0.6-1.5,0.8c0,0,0,0,0,0s0,0,0,0c0-0.2,0-0.8-1.4-0.8c-1.2,0-1.5,0.5-1.5,0.7
		c0,0.1,0,0.1,0,0.1s0,0,0-0.1c0-0.2,0-0.7-0.6-0.7h-0.8v5.1h0h1.4V113c0,0,0.1-0.8,0.8-0.8s0.7,0.8,0.7,0.8v2.9h1.4V113
		c0,0,0-0.8,0.8-0.8s0.7,0.8,0.7,0.8v2.9h1.4v-3.7C86.1,112.2,86.2,110.8,84.7,110.8z"/>
	<path class="st14" d="M120.4,113.4c0,0-0.3,0-0.6,0c-0.3,0-0.3,0.3-0.3,0.3v2c0,0.3,0.3,0.3,0.3,0.3h0.7c0.3,0,0.3-0.3,0.3-0.3v-2
		C120.8,113.4,120.4,113.4,120.4,113.4z"/>
	<path class="st14" d="M116.9,111.1h-3.2c0,0-0.6,0-0.6,0.6c0,0.6,0,4,0,4c0,0,0,0.3,0.3,0.3h0.9c0,0,0.3,0,0.3-0.3V113
		c0,0,0-0.3,0.3-0.3h1c0,0,0.3,0,0.3,0.3v2.6c0,0,0,0.3,0.3,0.3h0.6c0,0,0.3,0,0.3-0.3v-4C117.6,111.7,117.5,111.1,116.9,111.1z"/>
	<path class="st14" d="M111.2,111.1h-0.6c-0.3,0-0.3,0.3-0.3,0.3v0.9c0,0.3,0.3,0.3,0.3,0.3c0,0,0.3,0,0.6,0s0.3-0.3,0.3-0.3v-0.9
		C111.5,111.1,111.2,111.1,111.2,111.1z"/>
	<path class="st14" d="M111.2,113.4c0,0-0.3,0-0.6,0c-0.3,0-0.3,0.3-0.3,0.3v2c0,0.3,0.3,0.3,0.3,0.3h0.7c0.3,0,0.3-0.3,0.3-0.3v-2
		C111.5,113.4,111.2,113.4,111.2,113.4z"/>
	<path class="st14" d="M120.4,111.1h-0.6c-0.3,0-0.3,0.3-0.3,0.3v0.9c0,0.3,0.3,0.3,0.3,0.3c0,0,0.3,0,0.6,0c0.3,0,0.3-0.3,0.3-0.3
		v-0.9C120.8,111.1,120.4,111.1,120.4,111.1z"/>
	<path class="st14" d="M108,110.8h-6.7c-0.6,0-0.6,0.5-0.6,0.5v4.3c0,0.3,0.3,0.3,0.3,0.3h1c0.3,0,0.3-0.3,0.3-0.3V113
		c0-0.4,0.3-0.3,0.3-0.3h0.9c0.4,0,0.3,0.3,0.3,0.3v2.6c0,0.3,0.4,0.3,0.4,0.3h0.9c0.3,0,0.3-0.3,0.3-0.3V113c0-0.4,0.3-0.3,0.3-0.3
		h1c0.3,0,0.3,0.3,0.3,0.3v2.6c0,0.3,0.3,0.3,0.3,0.3h1c0.3,0,0.3-0.3,0.3-0.3v-4.3C108.7,110.8,108,110.8,108,110.8z"/>
	<path class="st13" d="M75.4,38.9h27.3c2.9,0,4.8-2.1,4.8-4.6c0-2.5-1.9-4.6-4.8-4.6H75.4c-2.9,0-4.8,2.1-4.8,4.6
		C70.6,36.9,72.5,38.9,75.4,38.9z M75.4,30.9h27.3c2.3,0,3.7,1.6,3.7,3.5c0,1.9-1.4,3.5-3.7,3.5H75.4c-2.3,0-3.7-1.6-3.7-3.5
		C71.7,32.4,73.1,30.9,75.4,30.9z"/>
	<path class="st13" d="M102,36.7c1,0,1.9-0.7,1.9-1.6c0-0.9-0.8-1.6-1.9-1.6s-1.9,0.7-1.9,1.6C100.1,35.9,101,36.7,102,36.7z
		 M101.5,35l0-0.6c0-0.5,0.3-0.6,0.5-0.6s0.5,0.2,0.5,0.6l0,0.6l0,0.6c0,0.5-0.3,0.6-0.5,0.6s-0.5-0.2-0.5-0.6L101.5,35z"/>
	<path class="st13" d="M104,32.8h0.2l0.3,0.4h0.2l-0.3-0.4c0.1,0,0.3-0.1,0.3-0.3c0-0.2-0.1-0.3-0.3-0.3h-0.4v1h0.1V32.8z M104,32.6
		v-0.3h0.2c0.1,0,0.2,0,0.2,0.1c0,0.2-0.1,0.2-0.2,0.2L104,32.6L104,32.6z"/>
	<rect x="79.5" y="33.6" class="st13" width="1.3" height="2.9"/>
	<path class="st13" d="M89.6,36.7c0.9,0,1.6-0.5,1.8-1.2l-1.3,0l0,0.2c0,0.5-0.3,0.6-0.5,0.6c-0.2,0-0.5-0.1-0.5-0.6l0-0.6h2.4
		c0-0.9-0.9-1.6-1.9-1.6c-1,0-1.9,0.7-1.9,1.6C87.7,36,88.6,36.7,89.6,36.7z M89.2,34.1c0.1-0.2,0.3-0.3,0.5-0.3h0
		c0.2,0,0.4,0.1,0.5,0.3c0.1,0.1,0.1,0.3,0.1,0.6h-1.1C89.1,34.4,89.1,34.2,89.2,34.1z"/>
	<rect x="79.5" y="32.2" class="st13" width="1.3" height="0.9"/>
	<path class="st13" d="M82.7,36.5l0-1.9c0-0.3,0.3-0.5,0.6-0.5s0.6,0.3,0.6,0.5v1.9h1.3v-1.6c0-1.1-1-1.5-1.5-1.4
		c-0.4,0-0.8,0.2-1,0.4v-0.3l-1.3,0l0,2.9H82.7z"/>
	<polygon class="st13" points="75.5,33.5 77.4,36.5 78.7,36.5 78.7,32.2 77.4,32.2 77.4,35.2 75.6,32.2 74.2,32.2 74.2,36.5 
		75.5,36.5 	"/>
	<path class="st13" d="M93.2,34.6c0-0.3,0.3-0.5,0.6-0.5c0.4,0,0.6,0.3,0.6,0.5v1.9h1.3c0,0,0-1.4,0-1.6c0-1.1-1-1.5-1.5-1.4
		c-0.4,0-0.8,0.2-1,0.4c0-0.1,0-0.3,0-0.3l-1.3,0l0,2.9h1.3L93.2,34.6z"/>
	<path class="st13" d="M97,36.4c0.4,0.2,1,0.2,1.5-0.1l0,0.2h1.3v-4.3h-1.3c0,0,0,0.9,0,1.6c-0.2-0.1-0.4-0.2-0.7-0.3
		c-0.9-0.1-1.6,0.7-1.6,1.5C96.1,36,96.9,36.4,97,36.4z M97.5,34.5c0-0.4,0.3-0.6,0.5-0.6c0.2,0,0.5,0.1,0.5,0.6V35v0.5
		c0,0.4-0.3,0.6-0.5,0.6c-0.2,0-0.5-0.1-0.5-0.6l0-0.5L97.5,34.5z"/>
	<polygon class="st13" points="85.9,36.5 87.2,36.5 87.2,33.6 87.9,33.6 87.9,33.2 87.2,33.2 87.2,32.6 85.9,32.6 85.9,33.2 
		85.2,33.2 85.2,33.6 85.9,33.6 	"/>
	<path class="st13" d="M104.2,33.6C104.2,33.6,104.2,33.6,104.2,33.6c0.5,0,0.9-0.4,0.9-0.8c0,0,0,0,0,0c0-0.5-0.4-0.8-0.8-0.9
		c0,0,0,0,0,0c-0.5,0-0.9,0.4-0.9,0.8c0,0,0,0,0,0C103.3,33.2,103.7,33.6,104.2,33.6z M104.2,32c0.4,0,0.7,0.3,0.7,0.7
		c0,0.4-0.3,0.7-0.7,0.7c-0.4,0-0.7-0.3-0.7-0.7C103.5,32.3,103.8,32,104.2,32z"/>
</g>
<path class="st5" d="M22.2,51.9l3.9,1c0.7,0.2,1.1,0.9,0.9,1.6c-0.2,0.7-0.9,1.1-1.6,0.9l-3.9-1L8.1,54.4c-0.7,0-1.3-0.6-1.3-1.3
	c0-0.7,0.6-1.3,1.3-1.3C8.1,51.9,22.2,51.9,22.2,51.9z M16.5,73.3l3.9,1c0.7,0.2,1.1,0.9,0.9,1.6c-0.2,0.7-0.9,1.1-1.6,0.9l-3.9-1
	L5.1,75.9c-0.7,0-1.3-0.6-1.3-1.3c0-0.7,0.6-1.3,1.3-1.3L16.5,73.3z M155.6,52l-3.7,1c-0.7,0.2-1,0.8-0.9,1.5c0.2,0.7,0.9,1,1.5,0.9
	l3.7-1l12.8,0c0.7,0,1.2-0.5,1.3-1.2c0-0.7-0.5-1.2-1.2-1.2c0,0,0,0,0,0L155.6,52L155.6,52z M161.3,73.4l-3.7,1
	c-0.7,0.2-1.1,0.8-0.9,1.5c0.2,0.7,0.9,1,1.5,0.9l3.7-1l10.2,0c0.7,0,1.2-0.5,1.3-1.2c0-0.7-0.5-1.2-1.2-1.2c0,0,0,0,0,0L161.3,73.4
	z"/>
<circle class="st15" cx="44.7" cy="159.1" r="32"/>
<circle class="st16" cx="44.7" cy="159.1" r="27.2"/>
<path class="st17" d="M41,185.5c-3.1,0-5.7-2.6-5.7-5.7v-11.3H24c-3.1,0-5.7-2.6-5.7-5.7v-7.3c0-3.1,2.6-5.7,5.7-5.7h11.3v-11.3
	c0-3.1,2.6-5.7,5.7-5.7h7.3c3.1,0,5.7,2.6,5.7,5.7v11.3h11.3c3.1,0,5.7,2.6,5.7,5.7v7.3c0,3.1-2.6,5.7-5.7,5.7H54v11.3
	c0,3.1-2.6,5.7-5.7,5.7H41z"/>
<g>
	<path class="st8" d="M37.3,150.5v-12.1c0-2.1,1.7-3.7,3.7-3.7h7.3c2.1,0,3.7,1.7,3.7,3.7v12.1c0,0.7,0.5,1.2,1.2,1.2h12.1
		c2.1,0,3.7,1.7,3.7,3.7v7.3c0,2.1-1.7,3.7-3.7,3.7H53.2c-0.7,0-1.2,0.5-1.2,1.2v12.1c0,2.1-1.7,3.7-3.7,3.7H41
		c-2.1,0-3.7-1.7-3.7-3.7v-12.1c0-0.7-0.5-1.2-1.2-1.2H24c-2.1,0-3.7-1.7-3.7-3.7v-7.3c0-2.1,1.7-3.7,3.7-3.7h12.1
		C36.7,151.7,37.3,151.2,37.3,150.5z"/>
	<path class="st18" d="M41.5,146.6h6.7c0.5,0,0.9-0.4,0.9-0.9c0-0.2,0-0.3-0.1-0.4l-3.3-5.8c-0.2-0.4-0.8-0.6-1.2-0.3
		c-0.1,0.1-0.2,0.2-0.3,0.3l-3.3,5.8c-0.2,0.4-0.1,1,0.3,1.2C41.1,146.6,41.3,146.6,41.5,146.6z"/>
	<path class="st9" d="M41.3,146.5H48c0.5,0,0.9-0.4,0.9-0.9c0-0.2,0-0.3-0.1-0.4l-3.3-5.8c-0.2-0.4-0.8-0.6-1.2-0.3
		c-0.1,0.1-0.2,0.2-0.3,0.3l-3.3,5.8c-0.2,0.4-0.1,1,0.3,1.2C41,146.5,41.2,146.5,41.3,146.5z"/>
	<path class="st18" d="M32.2,162.3v-6.7c0-0.5-0.4-0.9-0.9-0.9c-0.2,0-0.3,0-0.4,0.1l-5.8,3.3c-0.4,0.2-0.6,0.8-0.3,1.2
		c0.1,0.1,0.2,0.2,0.3,0.3l5.8,3.3c0.4,0.2,1,0.1,1.2-0.3C32.2,162.6,32.2,162.4,32.2,162.3z"/>
	<path class="st9" d="M32.1,162.4v-6.7c0-0.5-0.4-0.9-0.9-0.9c-0.2,0-0.3,0-0.4,0.1l-5.8,3.3c-0.4,0.2-0.6,0.8-0.3,1.2
		c0.1,0.1,0.2,0.2,0.3,0.3l5.8,3.3c0.4,0.2,1,0.1,1.2-0.3C32,162.7,32.1,162.6,32.1,162.4z"/>
	<path class="st18" d="M47.8,171.5h-6.7c-0.5,0-0.9,0.4-0.9,0.9c0,0.2,0,0.3,0.1,0.4l3.3,5.8c0.2,0.4,0.8,0.6,1.2,0.3
		c0.1-0.1,0.2-0.2,0.3-0.3l3.3-5.8c0.2-0.4,0.1-1-0.3-1.2C48.2,171.6,48,171.5,47.8,171.5z"/>
	<path class="st9" d="M48,171.7h-6.7c-0.5,0-0.9,0.4-0.9,0.9c0,0.2,0,0.3,0.1,0.4l3.3,5.8c0.2,0.4,0.8,0.6,1.2,0.3
		c0.1-0.1,0.2-0.2,0.3-0.3l3.3-5.8c0.2-0.4,0.1-1-0.3-1.2C48.3,171.7,48.1,171.7,48,171.7z"/>
	<g>
		<path class="st18" d="M57.1,155.9v6.7c0,0.5,0.4,0.9,0.9,0.9c0.2,0,0.3,0,0.4-0.1l5.8-3.3c0.4-0.2,0.6-0.8,0.3-1.2
			c-0.1-0.1-0.2-0.2-0.3-0.3l-5.8-3.3c-0.4-0.2-1-0.1-1.2,0.3C57.1,155.6,57.1,155.7,57.1,155.9z"/>
		<path class="st9" d="M57.2,155.7v6.7c0,0.5,0.4,0.9,0.9,0.9c0.2,0,0.3,0,0.4-0.1l5.8-3.3c0.4-0.2,0.6-0.8,0.3-1.2
			c-0.1-0.1-0.2-0.2-0.3-0.3l-5.8-3.3c-0.4-0.2-1-0.1-1.2,0.3C57.3,155.4,57.2,155.6,57.2,155.7z"/>
	</g>
	
		<linearGradient id="SVGID_1_" gradientUnits="userSpaceOnUse" x1="40.4275" y1="62.482" x2="48.8725" y2="67.358" gradientTransform="matrix(1 0 0 -1 0 224)">
		<stop  offset="0" style="stop-color:#004C8A"/>
		<stop  offset="0.628" style="stop-color:#004B88"/>
		<stop  offset="0.854" style="stop-color:#004981"/>
		<stop  offset="1" style="stop-color:#014577"/>
	</linearGradient>
	<circle class="st19" cx="44.7" cy="159.1" r="4.9"/>
</g>
<path class="st20" d="M172.6,65.4c0.1-16.6-1.9-29-3.5-35.3c-1.1-4.3-5.9-12.7-9-16.4c-0.9-1-1.8-2.1-3.4-2.5
	c-0.3-0.1-0.7-0.2-2.4-0.2c-1.7,0-2,0.1-2.9,0.2c1.8,1.5,3.4,3.1,4.9,4.9C167,29.1,170.9,52.2,172.6,65.4L172.6,65.4z"/>
</svg>
