<svg id="b3276271-5ce2-4311-bd49-e87db4982e54" data-name="texte" xmlns="http://www.w3.org/2000/svg" xmlns:xlink="http://www.w3.org/1999/xlink" viewBox="0 0 470.33 67.41"><defs><style>.b045f222-4880-4622-bf90-309c0d4c752c{stroke:#9def48;stroke-miterlimit:10;stroke-width:0.75px;fill:url(#fecfb385-5b4a-43a9-9f3a-6222775c62b5);}.b080d168-62db-4a40-88a5-e239a956a5ff{fill:#9def48;}</style><linearGradient id="fecfb385-5b4a-43a9-9f3a-6222775c62b5" x1="0.38" y1="33.7" x2="469.96" y2="33.7" gradientUnits="userSpaceOnUse"><stop offset="0" stop-color="#032c02"/><stop offset="1" stop-color="#207a09"/></linearGradient></defs><polygon class="b045f222-4880-4622-bf90-309c0d4c752c" points="0.38 5.91 102.44 5.91 108.57 0.38 150.31 0.38 158.22 5.91 461.65 6.11 469.96 16 469.96 59.72 50.81 59.72 42.7 67.03 7.89 67.03 0.38 59.72 0.38 5.91"/><path class="b080d168-62db-4a40-88a5-e239a956a5ff" d="M85.13,34.59H59.35a17.1,17.1,0,0,0,2.14,6h2.62v3.95H59.36a17.17,17.17,0,0,1-4-9.95H51.61V30.66h3.74a17.06,17.06,0,0,1,4-9.93H82.82a17.62,17.62,0,0,1,4.1,11.9ZM59.35,30.66H82.84a17.1,17.1,0,0,0-2.13-6H61.49A16.93,16.93,0,0,0,59.35,30.66Z" transform="translate(-0.06 -0.03)"/><path class="b080d168-62db-4a40-88a5-e239a956a5ff" d="M117.72,44.54H94.26a17.72,17.72,0,0,1-4.1-11.91,17.67,17.67,0,0,1,4.1-11.9h23.46a17.67,17.67,0,0,1,4.1,11.9A17.72,17.72,0,0,1,117.72,44.54Zm-2.11-3.95a16,16,0,0,0,2.26-8,15.93,15.93,0,0,0-2.26-8H96.39a15.86,15.86,0,0,0-2.28,8,15.92,15.92,0,0,0,2.28,8Z" transform="translate(-0.06 -0.03)"/><path class="b080d168-62db-4a40-88a5-e239a956a5ff" d="M129.92,34.59v9.95H126V24.1l3.95-4V30.66h6.61l12.22-9.93h6.41L140.5,32.63l14.66,11.91h-6.41l-12.26-9.95Z" transform="translate(-0.06 -0.03)"/><path class="b080d168-62db-4a40-88a5-e239a956a5ff" d="M176.84,34.59H160.4a17.1,17.1,0,0,0,2.14,6H182.1l2.27,3.95h-24a17.11,17.11,0,0,1-4-9.95h-3.74V30.66h3.74a17,17,0,0,1,4-9.93h24l-2.27,3.95H162.54a16.93,16.93,0,0,0-2.14,6h16.44Z" transform="translate(-0.06 -0.03)"/><path class="b080d168-62db-4a40-88a5-e239a956a5ff" d="M199.9,24.68h-7.64a15.84,15.84,0,0,0-2.27,8,15.9,15.9,0,0,0,2.27,8h2.62v3.95h-4.75A17.72,17.72,0,0,1,186,32.63a17.67,17.67,0,0,1,4.1-11.9h9.77V17h3.93v3.73h9.76a17.62,17.62,0,0,1,4.1,11.9,17.67,17.67,0,0,1-4.1,11.91h-4.75V40.59h2.64a16,16,0,0,0,2.26-8,15.93,15.93,0,0,0-2.26-8h-7.65V38.79H199.9Z" transform="translate(-0.06 -0.03)"/><path class="b080d168-62db-4a40-88a5-e239a956a5ff" d="M226.62,44.54h-4V24.1l4-4Z" transform="translate(-0.06 -0.03)"/><path class="b080d168-62db-4a40-88a5-e239a956a5ff" d="M237.83,24.68a15.84,15.84,0,0,0-2.27,8,15.9,15.9,0,0,0,2.27,8h2.62v3.95h-4.74a17.67,17.67,0,0,1-4.1-11.91,17.62,17.62,0,0,1,4.1-11.9h23.45a17.62,17.62,0,0,1,4.1,11.9,17.67,17.67,0,0,1-4.1,11.91h-4.74V40.59h2.64a16.08,16.08,0,0,0,2.25-8,16,16,0,0,0-2.25-8Z" transform="translate(-0.06 -0.03)"/><path class="b080d168-62db-4a40-88a5-e239a956a5ff" d="M272.2,44.54h-4V24.1l4-4Z" transform="translate(-0.06 -0.03)"/></svg>