<svg id="ae1f9f56-9e5a-4c39-9e58-8e8958047438" data-name="texte" xmlns="http://www.w3.org/2000/svg" xmlns:xlink="http://www.w3.org/1999/xlink" viewBox="0 0 470.33 67.41"><defs><style>.e24470ba-f51b-4902-a4e9-76cca98908ea{stroke:#9def48;stroke-miterlimit:10;stroke-width:0.75px;fill:url(#e01e463a-ad80-4730-8349-da5f4116f04e);}.a44a4797-6007-402b-805a-34a36d6cd2d0{fill:#9def48;}</style><linearGradient id="e01e463a-ad80-4730-8349-da5f4116f04e" x1="0.38" y1="33.7" x2="469.96" y2="33.7" gradientUnits="userSpaceOnUse"><stop offset="0" stop-color="#032c02"/><stop offset="1" stop-color="#207a09"/></linearGradient></defs><polygon class="e24470ba-f51b-4902-a4e9-76cca98908ea" points="0.38 5.91 102.44 5.91 108.57 0.38 150.31 0.38 158.22 5.91 461.65 6.11 469.96 16 469.96 59.72 50.81 59.72 42.7 67.03 7.89 67.03 0.38 59.72 0.38 5.91"/><path class="a44a4797-6007-402b-805a-34a36d6cd2d0" d="M52.45,20.56h27a18.17,18.17,0,0,1,4.22,12.25,18.25,18.25,0,0,1-4.22,12.26h-27ZM56.52,41H77.28a16.48,16.48,0,0,0,2.32-8.19,16.39,16.39,0,0,0-2.32-8.18H56.52Z" transform="translate(-0.13 -0.13)"/><path class="a44a4797-6007-402b-805a-34a36d6cd2d0" d="M93.89,38.25,89.6,45.07H84.53l15.56-24.51h4.69l15.45,24.51h-5L111,38.25Zm14.56-4-6-9.59-6,9.59Z" transform="translate(-0.13 -0.13)"/><path class="a44a4797-6007-402b-805a-34a36d6cd2d0" d="M152.17,34.83H125.63a17.46,17.46,0,0,0,2.2,6.17h2.7v4.07h-4.89a17.67,17.67,0,0,1-4.13-10.24h-3.85v-4h3.85a17.56,17.56,0,0,1,4.13-10.22h24.15A18.12,18.12,0,0,1,154,32.81Zm-26.54-4h24.18a17.67,17.67,0,0,0-2.19-6.15H127.83A17.3,17.3,0,0,0,125.63,30.78Z" transform="translate(-0.13 -0.13)"/><path class="a44a4797-6007-402b-805a-34a36d6cd2d0" d="M161.55,34.83a17.66,17.66,0,0,0,2.2,6.17h2.7v4.07h-4.88a18.2,18.2,0,0,1-4.22-12.26,18.12,18.12,0,0,1,4.22-12.25h4.88v4.07h-2.7a17.49,17.49,0,0,0-2.2,6.15h24.18a17.27,17.27,0,0,0-2.19-6.15h-2.71V20.56h4.88a18.12,18.12,0,0,1,4.23,12.25,18.2,18.2,0,0,1-4.23,12.26h-4.88V41h2.71a17.43,17.43,0,0,0,2.19-6.17Z" transform="translate(-0.13 -0.13)"/><path class="a44a4797-6007-402b-805a-34a36d6cd2d0" d="M199.76,24.63a16.32,16.32,0,0,0-2.34,8.18A16.41,16.41,0,0,0,199.76,41h2.7v4.07h-4.88a18.2,18.2,0,0,1-4.23-12.26,18.12,18.12,0,0,1,4.23-12.25h24.14a18.12,18.12,0,0,1,4.22,12.25,18.2,18.2,0,0,1-4.22,12.26h-4.88V41h2.71a16.5,16.5,0,0,0,2.33-8.19,16.41,16.41,0,0,0-2.33-8.18Z" transform="translate(-0.13 -0.13)"/><path class="a44a4797-6007-402b-805a-34a36d6cd2d0" d="M254.24,34.83H237.33a17.46,17.46,0,0,0,2.2,6.17h20.13L262,45.07H237.34a17.67,17.67,0,0,1-4.13-10.24h-3.85v-4h3.85a17.56,17.56,0,0,1,4.13-10.22H262l-2.34,4.07H239.53a17.3,17.3,0,0,0-2.2,6.15h16.91Z" transform="translate(-0.13 -0.13)"/></svg>