<svg id="bc02477c-145e-41d3-9206-cdf740264257" data-name="texte" xmlns="http://www.w3.org/2000/svg" xmlns:xlink="http://www.w3.org/1999/xlink" viewBox="0 0 470.33 67.41"><defs><style>.fdf55c7e-3141-4de5-b6d6-981ea115f4b9{stroke:#9def48;stroke-miterlimit:10;stroke-width:0.75px;fill:url(#a96dcd0d-553a-46a2-a5fd-ab037a818b76);}.be158d84-d9b2-478b-9ded-bb7dbeedf5ca{fill:#9def48;}</style><linearGradient id="a96dcd0d-553a-46a2-a5fd-ab037a818b76" x1="0.38" y1="33.7" x2="469.96" y2="33.7" gradientUnits="userSpaceOnUse"><stop offset="0" stop-color="#032c02"/><stop offset="1" stop-color="#207a09"/></linearGradient></defs><polygon class="fdf55c7e-3141-4de5-b6d6-981ea115f4b9" points="0.38 5.91 102.44 5.91 108.57 0.38 150.31 0.38 158.22 5.91 461.65 6.11 469.96 16 469.96 59.72 50.81 59.72 42.7 67.03 7.89 67.03 0.38 59.72 0.38 5.91"/><path class="be158d84-d9b2-478b-9ded-bb7dbeedf5ca" d="M77.29,32.17l1.58,1.74a15.56,15.56,0,0,1-3.61,10.5H54.56a14.7,14.7,0,0,1-3.15-6.25h3.75a16.67,16.67,0,0,0,1.27,2.77h17a14.7,14.7,0,0,0,1.87-5.29H52.52l-1.58-1.73a15.6,15.6,0,0,1,3.62-10.5h20.7a14.7,14.7,0,0,1,3.15,6.25H74.66a16.61,16.61,0,0,0-1.26-2.77h-17a15.16,15.16,0,0,0-1.89,5.28Z" transform="translate(-0.06 -0.03)"/><path class="be158d84-d9b2-478b-9ded-bb7dbeedf5ca" d="M86.76,44.41H83.27v-18l3.49-3.49Z" transform="translate(-0.06 -0.03)"/><path class="be158d84-d9b2-478b-9ded-bb7dbeedf5ca" d="M103.38,26.89H96.64a14.11,14.11,0,0,0-2,7,14.16,14.16,0,0,0,2,7H99v3.48H94.77a15.6,15.6,0,0,1-3.62-10.5,15.57,15.57,0,0,1,3.62-10.5h8.61v-3.3h3.47v3.3h8.62a15.56,15.56,0,0,1,3.61,10.5,15.6,15.6,0,0,1-3.61,10.5h-4.19V40.93h2.33a14.25,14.25,0,0,0,2-7,14.19,14.19,0,0,0-2-7h-6.76V39.35h-3.47Z" transform="translate(-0.06 -0.03)"/><path class="be158d84-d9b2-478b-9ded-bb7dbeedf5ca" d="M127.51,40.93h17a14.09,14.09,0,0,0,2-7,14.15,14.15,0,0,0-2-7h-2.33V23.41h4.19A15.6,15.6,0,0,1,150,33.91a15.57,15.57,0,0,1-3.62,10.5h-20.7A15.57,15.57,0,0,1,122,33.91a15.6,15.6,0,0,1,3.62-10.5h4.19v3.48h-2.31a14.08,14.08,0,0,0-2,7A14,14,0,0,0,127.51,40.93Z" transform="translate(-0.06 -0.03)"/><path class="be158d84-d9b2-478b-9ded-bb7dbeedf5ca" d="M157.1,40.93h15.79l2,3.48H153.61v-18l3.49-3.49Z" transform="translate(-0.06 -0.03)"/><path class="be158d84-d9b2-478b-9ded-bb7dbeedf5ca" d="M185.12,38.57l-3.68,5.84h-4.35l13.35-21h4l13.24,21H203.4l-3.63-5.84ZM197.6,35.1l-5.13-8.22L187.3,35.1Z" transform="translate(-0.06 -0.03)"/><path class="be158d84-d9b2-478b-9ded-bb7dbeedf5ca" d="M218.18,41.44l-3.48,3.49v-18H203.3V23.41h26.28v3.48h-11.4Z" transform="translate(-0.06 -0.03)"/><path class="be158d84-d9b2-478b-9ded-bb7dbeedf5ca" d="M237.46,44.41H234v-18l3.49-3.49Z" transform="translate(-0.06 -0.03)"/><path class="be158d84-d9b2-478b-9ded-bb7dbeedf5ca" d="M266.17,44.41h-20.7a15.6,15.6,0,0,1-3.62-10.5,15.57,15.57,0,0,1,3.62-10.5h20.7a15.57,15.57,0,0,1,3.62,10.5A15.6,15.6,0,0,1,266.17,44.41Zm-1.86-3.48a14.15,14.15,0,0,0,2-7,14.09,14.09,0,0,0-2-7h-17a14,14,0,0,0-2,7,14.08,14.08,0,0,0,2,7Z" transform="translate(-0.06 -0.03)"/><path class="be158d84-d9b2-478b-9ded-bb7dbeedf5ca" d="M278.21,26.89a14,14,0,0,0-2,7,14.08,14.08,0,0,0,2,7h2.32v3.48h-4.19a15.55,15.55,0,0,1-3.62-10.5,15.52,15.52,0,0,1,3.62-10.5H297a15.52,15.52,0,0,1,3.62,10.5A15.55,15.55,0,0,1,297,44.41h-4.19V40.93h2.33a14.16,14.16,0,0,0,2-7,14.11,14.11,0,0,0-2-7Z" transform="translate(-0.06 -0.03)"/><path class="be158d84-d9b2-478b-9ded-bb7dbeedf5ca" d="M319.67,38.57,316,44.41h-4.35l13.34-21h4l13.24,21H338l-3.63-5.84Zm12.48-3.47L327,26.88l-5.17,8.22Z" transform="translate(-0.06 -0.03)"/><path class="be158d84-d9b2-478b-9ded-bb7dbeedf5ca" d="M348.46,40.93h17a14.09,14.09,0,0,0,2-7,14.15,14.15,0,0,0-2-7H363.1V23.41h4.19a15.6,15.6,0,0,1,3.62,10.5,15.57,15.57,0,0,1-3.62,10.5h-20.7A15.57,15.57,0,0,1,343,33.91a15.6,15.6,0,0,1,3.62-10.5h4.19v3.48h-2.32a14.16,14.16,0,0,0-2,7A14.11,14.11,0,0,0,348.46,40.93Z" transform="translate(-0.06 -0.03)"/><path class="be158d84-d9b2-478b-9ded-bb7dbeedf5ca" d="M388,41.44l-3.49,3.49v-18H373.1V23.41h26.28v3.48H388Z" transform="translate(-0.06 -0.03)"/><path class="be158d84-d9b2-478b-9ded-bb7dbeedf5ca" d="M425.9,44.41H405.2a15.6,15.6,0,0,1-3.62-10.5,15.57,15.57,0,0,1,3.62-10.5h20.7a15.57,15.57,0,0,1,3.62,10.5A15.6,15.6,0,0,1,425.9,44.41ZM424,40.93a14.25,14.25,0,0,0,2-7,14.19,14.19,0,0,0-2-7h-17a14.11,14.11,0,0,0-2,7,14.16,14.16,0,0,0,2,7Z" transform="translate(-0.06 -0.03)"/></svg>