<svg xmlns="http://www.w3.org/2000/svg" xmlns:xlink="http://www.w3.org/1999/xlink" viewBox="0 0 746.51 822.18"><defs><style>.a4466cc2-f1be-46da-8234-64cd560ddb7e,.bb6a0b86-59be-4047-8d04-49f23c6866e5,.f7f77611-245c-4bb6-bf84-dac92ca25b1d{fill:#373735;}.a4466cc2-f1be-46da-8234-64cd560ddb7e{opacity:0.5;}.b28542fc-21c7-409d-8596-a412736b67af{fill:#121211;}.a0e37941-0de4-44d8-9426-b6ffc6de893e,.acc27827-1c07-4758-9c2d-de74e7b98460,.b28542fc-21c7-409d-8596-a412736b67af,.b3f5a128-a648-4eb4-a96d-0b8de4ff6afc,.b5582f18-b22b-4416-a3e3-7cde60e77c7f,.b7745ea9-57bf-42b4-bbf1-f00155ab72db,.bb6a0b86-59be-4047-8d04-49f23c6866e5{stroke:#b5b5b5;}.a0e37941-0de4-44d8-9426-b6ffc6de893e,.abd64f12-a47e-49b3-92ea-fd74cf659726,.acc27827-1c07-4758-9c2d-de74e7b98460,.ae8414bb-acde-47c4-a95c-e0b723b74970,.b28542fc-21c7-409d-8596-a412736b67af,.b3f5a128-a648-4eb4-a96d-0b8de4ff6afc,.b5582f18-b22b-4416-a3e3-7cde60e77c7f,.b7745ea9-57bf-42b4-bbf1-f00155ab72db,.bb6a0b86-59be-4047-8d04-49f23c6866e5,.e56ca8e4-3883-4eb5-ac47-c3daed179041,.edb9b5f4-0af0-4e13-9325-9b2dd7cb71e4,.ee7304c1-0be0-4318-bdb0-f017354eee7b{stroke-miterlimit:10;}.a0e37941-0de4-44d8-9426-b6ffc6de893e,.acc27827-1c07-4758-9c2d-de74e7b98460,.b28542fc-21c7-409d-8596-a412736b67af,.b3f5a128-a648-4eb4-a96d-0b8de4ff6afc,.b5582f18-b22b-4416-a3e3-7cde60e77c7f,.b7745ea9-57bf-42b4-bbf1-f00155ab72db,.bb6a0b86-59be-4047-8d04-49f23c6866e5,.ee7304c1-0be0-4318-bdb0-f017354eee7b{stroke-width:0.5px;}.e56ca8e4-3883-4eb5-ac47-c3daed179041{fill:#443840;}.e56ca8e4-3883-4eb5-ac47-c3daed179041,.edb9b5f4-0af0-4e13-9325-9b2dd7cb71e4,.ee7304c1-0be0-4318-bdb0-f017354eee7b{stroke:#090000;}.e56ca8e4-3883-4eb5-ac47-c3daed179041,.edb9b5f4-0af0-4e13-9325-9b2dd7cb71e4{stroke-width:0.75px;}.ee7304c1-0be0-4318-bdb0-f017354eee7b{fill:#6b0c05;}.e13a24e4-b0bf-4761-a29f-192c2df6876f{fill:#86382f;}.edb9b5f4-0af0-4e13-9325-9b2dd7cb71e4{fill:#8b8b8b;}.ae8414bb-acde-47c4-a95c-e0b723b74970{stroke:#373737;}.e8e0b2a7-24f9-496e-8774-ab95cc7ab2ff{fill:#e50308;}.b7745ea9-57bf-42b4-bbf1-f00155ab72db{fill:#bf0000;}.b5582f18-b22b-4416-a3e3-7cde60e77c7f{fill:#dc6e05;}.eb3ecc70-961d-494a-b128-377204ff126f{fill:#fc363a;}.acc27827-1c07-4758-9c2d-de74e7b98460{fill:#12e600;}.b3f5a128-a648-4eb4-a96d-0b8de4ff6afc{fill:#0b47ce;}.a7ace136-35e6-4c1e-ac39-259c98bcdefe{fill:#fff;}.a0e37941-0de4-44d8-9426-b6ffc6de893e,.b54d36b8-2306-42fc-bf36-c042c999cb84{fill:#282826;}.ad089b66-8c1f-4f15-93cd-18195e4ae8b5{fill:#151312;}.ec30ef42-2143-46c0-a295-3700c7e8046c{fill:#555353;}.e4f0553e-9818-4325-b87d-9746c1ffb901{fill:#008aa6;}.b9af2e70-e632-44ed-8f3e-c4023e5cdded{fill:#ae7a82;}.b3503b4a-5509-4bb5-9904-a03b8ed7ca23{fill:url(#ab81247e-99d2-444d-878b-eefad0659f0a);}.bea472ac-17d9-4519-a6c3-bae75a92fdaa{fill:url(#bca377bd-b367-4d9a-86f3-a67847121c9c);}.ef20c6df-fdc0-4bb8-840e-887afbe82496{fill:#0000ef;}.bc135be6-8da6-4836-bac4-907c1e817a39{fill:url(#be94c17b-9ce3-4f6f-ac91-6026923ed6be);}.e9715e74-44c9-4a9b-a13b-12dec163d2a5{fill:url(#e637a1a5-4b1c-48cb-8894-d652e9d9618e);}.ab791d74-f95e-42cc-97eb-0c56a07391d1{fill:url(#e13cc52d-2a58-45ed-9628-336ee7912cb2);}.a04169df-b785-4a25-9d9b-d91f005b5d8b{fill:url(#a90f249e-6f60-462c-a0b5-79be21602c96);}.bab22263-a88b-4b36-bccb-8685097ae499{fill:url(#a4b35cf9-7d0a-4c07-ac2f-73e4b0540ed4);}.ea094889-ecdb-4e7b-b9d7-cd5baeaf3ce2{fill:url(#bec7ca18-e552-499b-836b-1669fdc38280);}.a9897b73-5668-4d59-af1e-0532fa43d925{fill:#930303;}.a2eccfd8-7dba-4d93-8514-c8bd9c785ce9{fill:url(#afb152bd-9e05-4c8b-a87a-20748a79e47f);}.eccb5dbd-a549-4f27-8b3e-713db0411951{fill:url(#b6cd83f0-8c53-4dd8-9bce-8990f810180b);}.ba050749-6dc9-4bd0-9fdd-2355fe443309{fill:url(#b67e31cf-666b-483b-b80a-3a1e36e75e95);}.a877fe70-7937-425e-86bd-9fa3d6abd955{fill:url(#aa51d960-4bba-43c8-b762-ad872f4bd5f6);}.e7cd8ff2-e1b2-4230-8564-18fe3c57383e{fill:url(#e5c23c4d-22e9-495c-b270-693ae86b889c);}.ef480f7a-7d51-419c-afd5-c22c384a1591{fill:url(#ad71269d-04dd-41ed-9491-2370f44c27b2);}.b472ff74-4748-44d2-a20c-0d1386c0849f{fill:#e7e7e7;}.a88b2f76-ee9a-4703-b60d-cb6b2cb903da{fill:#2c2b29;}.fb6d571c-0dde-4a9a-b4ef-c2e52bbf47f3{fill:#2785db;}.f77ed94f-1f22-4d21-a490-5616b1b196a6{fill:#44c047;}.bc09d52e-1c04-412e-ba9e-cfac44cd8b7f{fill:#eb1416;}.abd64f12-a47e-49b3-92ea-fd74cf659726,.ba30cb2b-1def-4d5b-95ce-08e2bfb6689d{fill:#f91b20;}.abd64f12-a47e-49b3-92ea-fd74cf659726{stroke:#fff;}</style><radialGradient id="ab81247e-99d2-444d-878b-eefad0659f0a" cx="65.88" cy="348.77" r="11.47" gradientUnits="userSpaceOnUse"><stop offset="0" stop-color="#fd6d66"/><stop offset="0.78" stop-color="#b50a03"/></radialGradient><radialGradient id="bca377bd-b367-4d9a-86f3-a67847121c9c" cx="195.83" cy="370.99" r="11.47" xlink:href="#ab81247e-99d2-444d-878b-eefad0659f0a"/><radialGradient id="be94c17b-9ce3-4f6f-ac91-6026923ed6be" cx="92.36" cy="393.88" r="5.66" gradientTransform="translate(0 157.55) scale(1 0.6)" gradientUnits="userSpaceOnUse"><stop offset="0" stop-color="#0000ef"/><stop offset="0.15" stop-color="#0000e9"/><stop offset="0.34" stop-color="#0101d9"/><stop offset="0.56" stop-color="#0101be"/><stop offset="0.79" stop-color="#02029a"/><stop offset="1" stop-color="#020282"/></radialGradient><radialGradient id="e637a1a5-4b1c-48cb-8894-d652e9d9618e" cx="114.61" cy="393.88" r="5.66" xlink:href="#be94c17b-9ce3-4f6f-ac91-6026923ed6be"/><radialGradient id="e13cc52d-2a58-45ed-9628-336ee7912cb2" cx="133.17" cy="400.04" r="5.66" gradientTransform="translate(0 160.02) scale(1 0.6)" xlink:href="#be94c17b-9ce3-4f6f-ac91-6026923ed6be"/><radialGradient id="a90f249e-6f60-462c-a0b5-79be21602c96" cx="139.21" cy="387.78" r="5.66" gradientTransform="translate(0 155.11) scale(1 0.6)" xlink:href="#be94c17b-9ce3-4f6f-ac91-6026923ed6be"/><radialGradient id="a4b35cf9-7d0a-4c07-ac2f-73e4b0540ed4" cx="121.61" cy="382.1" r="5.66" gradientTransform="translate(0 152.84) scale(1 0.6)" xlink:href="#be94c17b-9ce3-4f6f-ac91-6026923ed6be"/><radialGradient id="bec7ca18-e552-499b-836b-1669fdc38280" cx="100.32" cy="382.53" r="5.66" gradientTransform="translate(0 153.01) scale(1 0.6)" xlink:href="#be94c17b-9ce3-4f6f-ac91-6026923ed6be"/><radialGradient id="afb152bd-9e05-4c8b-a87a-20748a79e47f" cx="225.51" cy="404.67" r="5.66" xlink:href="#ab81247e-99d2-444d-878b-eefad0659f0a"/><radialGradient id="b6cd83f0-8c53-4dd8-9bce-8990f810180b" cx="246.79" cy="404.24" r="5.66" xlink:href="#ab81247e-99d2-444d-878b-eefad0659f0a"/><radialGradient id="b67e31cf-666b-483b-b80a-3a1e36e75e95" cx="264.4" cy="409.93" r="5.66" xlink:href="#ab81247e-99d2-444d-878b-eefad0659f0a"/><radialGradient id="aa51d960-4bba-43c8-b762-ad872f4bd5f6" cx="258.36" cy="422.19" r="5.66" xlink:href="#ab81247e-99d2-444d-878b-eefad0659f0a"/><radialGradient id="e5c23c4d-22e9-495c-b270-693ae86b889c" cx="239.79" cy="416.02" r="5.66" xlink:href="#ab81247e-99d2-444d-878b-eefad0659f0a"/><radialGradient id="ad71269d-04dd-41ed-9491-2370f44c27b2" cx="217.55" cy="416.02" r="5.66" xlink:href="#ab81247e-99d2-444d-878b-eefad0659f0a"/></defs><g id="aaaa01a0-3410-43f5-a89b-6da0f8e49bdc" data-name="Calque 1"><polygon id="a730ef42-8be9-4b49-80c9-be3ba363724e" data-name="ombre" class="a4466cc2-f1be-46da-8234-64cd560ddb7e" points="452.03 588.79 473.54 582.88 481.45 582.88 485.41 582.88 486.99 585.84 724.35 629.14 735.43 629.14 746.5 660.53 700.09 698.24 653.67 711.43 645.49 710.11 645.76 708.26 631.78 705.63 548.18 733.58 474.86 785.15 452.03 791.97 444.26 790.81 444.26 788.18 428.18 785.15 298.19 819.52 452.03 588.79"/><g id="e87c493d-a2eb-428e-bc20-1b6ec9d0035e" data-name="bottom"><polygon class="f7f77611-245c-4bb6-bf84-dac92ca25b1d" points="36 454.56 260.9 494.18 260.9 498.53 286.62 504.66 286.22 816 37.98 768.73 36 454.56"/><path class="b28542fc-21c7-409d-8596-a412736b67af" d="M202,526.54,123.62,512.8c-3,.19-4.26,3.56-4.26,3.56l.2,85c.69,2.18,3.86,5,3.86,5l74.27,13.46c5.14.49,7.52-5.25,7.52-5.25V531.88A7.12,7.12,0,0,0,202,526.54ZM152.1,549.09l-18.69-3.46v-20l2.27-1.88,18.1,3.07L152,529.51Zm31.45,6.13-18.69-3.46v-20l2.27-1.87,18.1,3.06-1.78,2.67Z" transform="translate(-0.98 -0.52)"/><polygon class="e56ca8e4-3883-4eb5-ac47-c3daed179041" points="134.7 523.25 132.43 525.13 132.43 545.11 151.12 548.57 151.02 528.99 152.8 526.32 134.7 523.25"/><polygon class="e56ca8e4-3883-4eb5-ac47-c3daed179041" points="166.15 529.38 163.88 531.26 163.88 551.24 182.57 554.7 182.47 535.12 184.25 532.45 166.15 529.38"/><polygon class="ee7304c1-0be0-4318-bdb0-f017354eee7b" points="140.14 543.03 140.14 530.18 148.15 531.96 148.15 544.52 140.14 543.03"/><polygon class="ee7304c1-0be0-4318-bdb0-f017354eee7b" points="171.2 548.87 171.2 536.01 179.21 537.79 179.21 550.35 171.2 548.87"/><polygon points="135.23 543.16 135.23 527.93 137.28 528.33 137.28 543.49 135.23 543.16"/><polygon points="166.68 548.7 166.68 533.47 168.72 533.87 168.72 549.03 166.68 548.7"/><polygon class="e13a24e4-b0bf-4761-a29f-192c2df6876f" points="140.4 530.69 140.4 530.34 147.87 532.14 147.88 532.57 140.4 530.69"/><polygon class="e13a24e4-b0bf-4761-a29f-192c2df6876f" points="171.46 536.62 171.46 536.33 178.93 537.97 178.94 538.32 171.46 536.62"/><circle class="edb9b5f4-0af0-4e13-9325-9b2dd7cb71e4" cx="192.4" cy="574.85" r="4.25"/><polygon class="ae8414bb-acde-47c4-a95c-e0b723b74970" points="136.29 598.71 136.29 587.44 148.25 589.62 148.25 600.92 136.29 598.71"/><polygon class="ae8414bb-acde-47c4-a95c-e0b723b74970" points="167.54 604.25 167.54 592.98 179.5 595.15 179.5 606.03 167.54 604.25"/></g><g id="e33845c5-36a4-4320-b267-177953263e58" data-name="t molding"><path class="e8e0b2a7-24f9-496e-8774-ab95cc7ab2ff" d="M11.46,450.59l-.79-39.76L1,407.66v45.1l27.89,5.54c.59,103.55,1,207.6,1.58,311.15A6.18,6.18,0,0,0,34,771.64a12.58,12.58,0,0,0,5,0L37,455.08Z" transform="translate(-0.98 -0.52)"/><path class="e8e0b2a7-24f9-496e-8774-ab95cc7ab2ff" d="M272.36,497V455.73l-10.28-1.19-.2,44.51,25.71,6.13s-1.51,313.85,0,315.69,8.77,1.32,8.77,1.32l.93-319.91Z" transform="translate(-0.98 -0.52)"/><polygon class="e8e0b2a7-24f9-496e-8774-ab95cc7ab2ff" points="78.72 346.42 70.57 345.12 86.83 126.56 95.87 128.06 78.72 346.42"/><polygon class="e8e0b2a7-24f9-496e-8774-ab95cc7ab2ff" points="329.24 388.85 338.34 390.13 356.83 165.82 330.46 165.82 330.2 74.9 320.14 73.06 320.14 167.9 326.18 168.99 346.45 168.99 329.24 388.85"/><path class="e8e0b2a7-24f9-496e-8774-ab95cc7ab2ff" d="M88.49,127.19s-28.17-.35-29.11-.85c0-31.21.06-62.83,0-94l9.36,2.64L69.22,124Z" transform="translate(-0.98 -0.52)"/><g id="bdc1b283-5d53-45ee-89c3-60692a2d847c" data-name="clair"><polygon class="e8e0b2a7-24f9-496e-8774-ab95cc7ab2ff" points="0 407.14 9.69 410.31 78 346.25 69.89 344.31 0 407.14"/><polygon class="e8e0b2a7-24f9-496e-8774-ab95cc7ab2ff" points="261.1 454.02 271.38 455.21 338.34 389.34 329.72 387.74 261.1 454.02"/><polygon class="e8e0b2a7-24f9-496e-8774-ab95cc7ab2ff" points="111.56 0 58.42 31.78 67.78 34.42 120.36 3.3 123.1 1.68 120.53 1.32 111.56 0"/><polygon class="e8e0b2a7-24f9-496e-8774-ab95cc7ab2ff" points="383.74 40.62 372.53 39.82 320.14 73.06 330.2 74.9 383.74 40.62"/></g></g><g id="bde153df-1572-4839-9fa7-0ec918e7e032" data-name="side"><polygon class="b28542fc-21c7-409d-8596-a412736b67af" points="453.13 308.64 453.76 149.01 383.74 40.62 330.2 74.9 330.46 165.82 356.83 165.82 338.34 390.13 271.38 455.21 271.38 496.48 296.31 501.76 295.38 821.67 303.63 815.35 453.28 271.65 453.07 293.16 310.97 809.71 309.36 810.95 316.3 805.63 453.13 308.64 453.13 308.64"/><polygon class="b28542fc-21c7-409d-8596-a412736b67af" points="324.06 799.15 316.3 805.63 328.29 796.43 452.99 343.19 453.04 331.06 324.06 799.15"/><polygon class="b28542fc-21c7-409d-8596-a412736b67af" points="335.43 790.95 334.11 791.97 340.98 786.7 452.77 379.06 452.77 400.31 452.99 343.19 452.77 367.19 335.43 790.95"/><polygon class="b28542fc-21c7-409d-8596-a412736b67af" points="343 785.15 451.58 701.87 452.76 402.02 347.4 781.78 343 785.15"/><polygon class="b7745ea9-57bf-42b4-bbf1-f00155ab72db" points="303.63 815.35 309.36 810.95 303.63 815.35 303.63 815.35"/><polygon class="e8e0b2a7-24f9-496e-8774-ab95cc7ab2ff" points="453.07 293.16 453.28 271.65 303.63 815.35 309.36 810.95 310.97 809.71 453.07 293.16"/><polygon class="b5582f18-b22b-4416-a3e3-7cde60e77c7f" points="453.13 330.74 453.13 308.64 453.04 331.06 453.13 330.74"/><polygon class="b5582f18-b22b-4416-a3e3-7cde60e77c7f" points="316.3 805.63 316.3 805.63 316.3 805.63 316.3 805.63"/><polygon class="eb3ecc70-961d-494a-b128-377204ff126f" points="453.04 331.06 453.13 308.64 453.13 308.64 316.3 805.63 316.3 805.63 324.06 799.15 453.04 331.06"/><polygon class="acc27827-1c07-4758-9c2d-de74e7b98460" points="452.99 343.19 452.99 343.19 452.99 343.19 452.99 343.19"/><polygon class="acc27827-1c07-4758-9c2d-de74e7b98460" points="328.29 796.43 334.11 791.97 328.29 796.43 328.29 796.43"/><polygon points="334.11 791.97 335.43 790.95 452.77 367.19 452.99 343.19 452.99 343.19 328.29 796.43 334.11 791.97"/><polygon class="b3f5a128-a648-4eb4-a96d-0b8de4ff6afc" points="340.98 786.7 343 785.15 340.98 786.7 340.98 786.7"/><polygon class="b3f5a128-a648-4eb4-a96d-0b8de4ff6afc" points="452.77 402 452.77 400.31 452.76 402.02 452.77 402"/><polygon class="a7ace136-35e6-4c1e-ac39-259c98bcdefe" points="340.98 786.7 343 785.15 347.4 781.78 452.76 402.02 452.77 400.31 452.77 379.06 340.98 786.7"/></g><g id="e9a45a66-2c73-435f-a058-2744586415e9" data-name="panel"><polygon class="a0e37941-0de4-44d8-9426-b6ffc6de893e" points="10.48 450.07 260.9 494.18 261.1 454.02 9.69 410.31 10.48 450.07"/><polygon class="f7f77611-245c-4bb6-bf84-dac92ca25b1d" points="79.37 345.21 9.69 410.31 261.1 454.02 329.72 387.74 79.37 345.21"/></g><g id="f5912a1f-be8d-4958-b96a-3af126ac1737" data-name="ecran"><path class="a0e37941-0de4-44d8-9426-b6ffc6de893e" d="M96.84,129.36,79.7,347.72l250.52,42.43L347.82,168Zm224.28,67.76c0,.2-.29.32-.48.49L310.21,342.44a35.43,35.43,0,0,1-4.3,3.78l1.4.29v10.7s-1.4,4.75-11.08,2.64c-11.19-2.44-178.55-31.91-178.55-31.91l8.72-6.78v-1.39s-2.46.52-6-7l-12.48,2.77h-4l11.34-158.77s4-6.85,10.81-6.59,191.16,30.59,191.16,30.59S323.4,181.84,321.12,197.12Z" transform="translate(-0.98 -0.52)"/><path class="ad089b66-8c1f-4f15-93cd-18195e4ae8b5" d="M317.28,180S133,149.66,126.12,149.4,115.31,156,115.31,156L103.57,316.08h4.35l12.29-2.68c-.1-.23-.74-1.57-.85-1.8L131,166.54s2.11-5.54,7.12-7.38l177.49,27.16a20.77,20.77,0,0,1,5.11,9.76l-.05.75c.19-.17.62.66.66.47C324.56,183.24,317.28,180,317.28,180Z" transform="translate(-0.98 -0.52)"/><path class="ec30ef42-2143-46c0-a295-3700c7e8046c" d="M125.32,320l-8.56,8s164.63,29.3,178.61,32.24c10.36,2.17,14.43-3.58,14.43-3.58l.61-7.37.39-7.71-4.89,3.84a20.85,20.85,0,0,1-7.73,3.87Z" transform="translate(-0.98 -0.52)"/><path class="e4f0553e-9818-4325-b87d-9746c1ffb901" d="M319.5,197.81c.45-.36.83-.69,1.14-1l.66-.52a20.31,20.31,0,0,0-5.72-10L138.09,159.16c-5,1.84-7.12,7.38-7.12,7.38L119.36,311.6l.32.66c3.54,7.52,6.28,8,6.28,8l.44.08,171.78,28.93a20.85,20.85,0,0,0,7.73-3.87c2.57-1.91,4.89-3.84,4.89-3.84l10.5-145.29C320.86,196.73,320.25,197.23,319.5,197.81ZM143.83,302.35l0,0Z" transform="translate(-0.98 -0.52)"/></g><g id="a47e0439-5f00-4ec8-9a3e-6a3b7c5b3079" data-name="top"><polygon id="b8e58ebd-c03f-4749-b405-5dd8b2ad6051" data-name="marquee" class="a0e37941-0de4-44d8-9426-b6ffc6de893e" points="68.24 123.84 319.71 162.87 320.14 73.4 67.78 34.76 68.24 123.84"/><polygon class="bb6a0b86-59be-4047-8d04-49f23c6866e5" points="128.84 2.64 123.1 1.68 67.78 34.42 320.14 73.06 372.53 39.82 128.84 2.64"/></g><g id="a7bad424-226c-4e6d-b947-90b4bc84c1c6" data-name="stickp1"><path class="b54d36b8-2306-42fc-bf36-c042c999cb84" d="M68.92,377.27v5.16H62.4v-5.16c-5.06.64-8.77,2.7-8.77,5.16,0,3,5.38,5.35,12,5.35s12-2.39,12-5.35C77.69,380,74,377.91,68.92,377.27Z" transform="translate(-0.98 -0.52)"/><path class="b9af2e70-e632-44ed-8f3e-c4023e5cdded" d="M68.92,377.27V359.49a12.18,12.18,0,0,1-3,.39,12.4,12.4,0,0,1-3.48-.49v17.88a26.67,26.67,0,0,1,6.52,0Z" transform="translate(-0.98 -0.52)"/><path class="b9af2e70-e632-44ed-8f3e-c4023e5cdded" d="M68.92,382.43v-5.16a26.67,26.67,0,0,0-6.52,0v5.16Z" transform="translate(-0.98 -0.52)"/><path class="b3503b4a-5509-4bb5-9904-a03b8ed7ca23" d="M68.92,358.89v.6a11.24,11.24,0,0,0,8.77-10.72c0-6.14-5.29-11.11-11.81-11.11s-11.82,5-11.82,11.11a11.22,11.22,0,0,0,8.34,10.62v-.5Z" transform="translate(-0.98 -0.52)"/><path class="b9af2e70-e632-44ed-8f3e-c4023e5cdded" d="M68.92,359.49v-.6H62.4v.5a12.4,12.4,0,0,0,3.48.49A12.18,12.18,0,0,0,68.92,359.49Z" transform="translate(-0.98 -0.52)"/><path class="b3503b4a-5509-4bb5-9904-a03b8ed7ca23" d="M68.92,359.49v-.6H62.4v.5a12.4,12.4,0,0,0,3.48.49A12.18,12.18,0,0,0,68.92,359.49Z" transform="translate(-0.98 -0.52)"/></g><g id="af5acb60-e666-43e0-b1db-da8993b97a77" data-name="stickp2"><path class="b54d36b8-2306-42fc-bf36-c042c999cb84" d="M198.88,399.49v5.16h-6.53v-5.16c-5,.64-8.77,2.7-8.77,5.16,0,3,5.39,5.35,12,5.35s12-2.39,12-5.35C207.65,402.19,203.94,400.13,198.88,399.49Z" transform="translate(-0.98 -0.52)"/><path class="b9af2e70-e632-44ed-8f3e-c4023e5cdded" d="M198.88,399.49V381.71a12.2,12.2,0,0,1-3,.39,12.83,12.83,0,0,1-3.48-.49v17.88a26.75,26.75,0,0,1,6.53,0Z" transform="translate(-0.98 -0.52)"/><path class="b9af2e70-e632-44ed-8f3e-c4023e5cdded" d="M198.88,404.65v-5.16a26.75,26.75,0,0,0-6.53,0v5.16Z" transform="translate(-0.98 -0.52)"/><path class="bea472ac-17d9-4519-a6c3-bae75a92fdaa" d="M198.88,381.11v.6A11.24,11.24,0,0,0,207.65,371c0-6.14-5.29-11.11-11.82-11.11S184,364.85,184,371a11.22,11.22,0,0,0,8.34,10.62v-.5Z" transform="translate(-0.98 -0.52)"/><path class="b9af2e70-e632-44ed-8f3e-c4023e5cdded" d="M198.88,381.71v-.6h-6.53v.5a12.83,12.83,0,0,0,3.48.49A12.2,12.2,0,0,0,198.88,381.71Z" transform="translate(-0.98 -0.52)"/><path class="bea472ac-17d9-4519-a6c3-bae75a92fdaa" d="M198.88,381.71v-.6h-6.53v.5a12.83,12.83,0,0,0,3.48.49A12.2,12.2,0,0,0,198.88,381.71Z" transform="translate(-0.98 -0.52)"/></g><g id="e303d546-c467-41aa-bb78-5372aa29b3ea" data-name="boutons P1"><g id="e143cdbc-7a63-4561-a2b9-48fae3caa9cf" data-name="4"><path class="ef20c6df-fdc0-4bb8-840e-887afbe82496" d="M92.54,389.14c-3.86,0-8.12,1.53-8.12,4.87,0,2.95,4.1,4.62,7.94,4.62,4.11,0,8-1.73,8-4.88C100.32,391.4,96.48,389.14,92.54,389.14Zm-.18,8.63c-3.86,0-7-1.74-7-3.89s3.13-3.89,7-3.89,7,1.74,7,3.89S96.22,397.77,92.36,397.77Z" transform="translate(-0.98 -0.52)"/><path class="bc135be6-8da6-4836-bac4-907c1e817a39" d="M92.36,390c-3.86,0-7,1.74-7,3.89s3.13,3.89,7,3.89,7-1.74,7-3.89S96.22,390,92.36,390Z" transform="translate(-0.98 -0.52)"/></g><g id="a32ce6c6-3d8e-4422-a069-38a441a9f5d1" data-name="5"><path class="ef20c6df-fdc0-4bb8-840e-887afbe82496" d="M114.79,389.14c-3.86,0-8.12,1.53-8.12,4.87,0,2.95,4.1,4.62,7.94,4.62,4.11,0,8-1.73,8-4.88C122.57,391.4,118.73,389.14,114.79,389.14Zm-.18,8.63c-3.86,0-7-1.74-7-3.89s3.13-3.89,7-3.89,7,1.74,7,3.89S118.47,397.77,114.61,397.77Z" transform="translate(-0.98 -0.52)"/><path class="e9715e74-44c9-4a9b-a13b-12dec163d2a5" d="M114.61,390c-3.86,0-7,1.74-7,3.89s3.13,3.89,7,3.89,7-1.74,7-3.89S118.47,390,114.61,390Z" transform="translate(-0.98 -0.52)"/></g><g id="e5252226-2426-4f72-839e-86502640c751" data-name="6"><path class="ef20c6df-fdc0-4bb8-840e-887afbe82496" d="M133.35,395.3c-3.86,0-8.13,1.53-8.13,4.87,0,3,4.11,4.62,7.95,4.62,4.1,0,8-1.73,8-4.88C141.13,397.56,137.29,395.3,133.35,395.3Zm-.18,8.63c-3.86,0-7-1.74-7-3.89s3.13-3.89,7-3.89,7,1.74,7,3.89S137,403.93,133.17,403.93Z" transform="translate(-0.98 -0.52)"/><path class="ab791d74-f95e-42cc-97eb-0c56a07391d1" d="M133.17,396.15c-3.86,0-7,1.74-7,3.89s3.13,3.89,7,3.89,7-1.74,7-3.89S137,396.15,133.17,396.15Z" transform="translate(-0.98 -0.52)"/></g><g id="b302ce62-8234-4c72-91ef-a293b1032517" data-name="3"><path class="ef20c6df-fdc0-4bb8-840e-887afbe82496" d="M139.39,383c-3.86,0-8.13,1.53-8.13,4.88,0,2.95,4.11,4.61,8,4.61,4.1,0,8-1.73,8-4.88C147.17,385.3,143.33,383,139.39,383Zm-.18,8.63c-3.86,0-7-1.74-7-3.89s3.13-3.89,7-3.89,7,1.75,7,3.89S143.07,391.67,139.21,391.67Z" transform="translate(-0.98 -0.52)"/><path class="a04169df-b785-4a25-9d9b-d91f005b5d8b" d="M139.21,383.89c-3.86,0-7,1.75-7,3.89s3.13,3.89,7,3.89,7-1.74,7-3.89S143.07,383.89,139.21,383.89Z" transform="translate(-0.98 -0.52)"/></g><g id="f1533347-9fca-48de-9d63-8f11b62e3909" data-name="2"><path class="ef20c6df-fdc0-4bb8-840e-887afbe82496" d="M121.79,377.35c-3.86,0-8.12,1.53-8.12,4.88,0,2.95,4.1,4.61,7.94,4.61,4.11,0,8-1.73,8-4.88C129.57,379.62,125.73,377.35,121.79,377.35Zm-.18,8.64c-3.86,0-7-1.74-7-3.89s3.13-3.89,7-3.89,7,1.74,7,3.89S125.47,386,121.61,386Z" transform="translate(-0.98 -0.52)"/><path class="bab22263-a88b-4b36-bccb-8685097ae499" d="M121.61,378.21c-3.86,0-7,1.74-7,3.89s3.13,3.89,7,3.89,7-1.74,7-3.89S125.47,378.21,121.61,378.21Z" transform="translate(-0.98 -0.52)"/></g><g id="bbf59301-1ef8-4dc1-970e-f2eb9e2ac636" data-name="1"><path class="ef20c6df-fdc0-4bb8-840e-887afbe82496" d="M100.5,377.78c-3.86,0-8.13,1.53-8.13,4.88,0,2.95,4.11,4.62,7.95,4.62,4.1,0,8-1.73,8-4.88C108.28,380.05,104.44,377.78,100.5,377.78Zm-.18,8.64c-3.86,0-7-1.74-7-3.89s3.13-3.89,7-3.89,7,1.74,7,3.89S104.18,386.42,100.32,386.42Z" transform="translate(-0.98 -0.52)"/><path class="ea094889-ecdb-4e7b-b9d7-cd5baeaf3ce2" d="M100.32,378.64c-3.86,0-7,1.74-7,3.89s3.13,3.89,7,3.89,7-1.74,7-3.89S104.18,378.64,100.32,378.64Z" transform="translate(-0.98 -0.52)"/></g></g><g id="fa109477-1ef4-4aeb-9d6f-f62c3e7cb4e0" data-name="boutons P2"><g id="b60c0600-919c-4c39-a1ee-86974e69f89c" data-name="1"><path class="a9897b73-5668-4d59-af1e-0532fa43d925" d="M225.69,399.93c-3.86,0-8.13,1.53-8.13,4.87,0,2.95,4.11,4.62,7.95,4.62,4.1,0,8-1.73,8-4.88C233.47,402.19,229.63,399.93,225.69,399.93Zm-.18,8.63c-3.86,0-7-1.74-7-3.89s3.13-3.89,7-3.89,7,1.74,7,3.89S229.37,408.56,225.51,408.56Z" transform="translate(-0.98 -0.52)"/><path class="a2eccfd8-7dba-4d93-8514-c8bd9c785ce9" d="M225.51,400.78c-3.86,0-7,1.74-7,3.89s3.13,3.89,7,3.89,7-1.74,7-3.89S229.37,400.78,225.51,400.78Z" transform="translate(-0.98 -0.52)"/></g><g id="b33c0f43-2d58-481f-bf91-aec3d98b3bda" data-name="2"><path class="a9897b73-5668-4d59-af1e-0532fa43d925" d="M247,399.49c-3.86,0-8.13,1.54-8.13,4.88,0,2.95,4.11,4.62,7.95,4.62,4.1,0,8-1.73,8-4.88C254.75,401.76,250.91,399.49,247,399.49Zm-.18,8.64c-3.86,0-7-1.74-7-3.89s3.13-3.89,7-3.89,7,1.74,7,3.89S250.65,408.13,246.79,408.13Z" transform="translate(-0.98 -0.52)"/><path class="eccb5dbd-a549-4f27-8b3e-713db0411951" d="M246.79,400.35c-3.86,0-7,1.74-7,3.89s3.13,3.89,7,3.89,7-1.74,7-3.89S250.65,400.35,246.79,400.35Z" transform="translate(-0.98 -0.52)"/></g><g id="e2e1e1ac-20fe-4b01-9d14-67c6685c45ae" data-name="3"><path class="a9897b73-5668-4d59-af1e-0532fa43d925" d="M264.58,405.18c-3.86,0-8.12,1.53-8.12,4.88,0,2.95,4.1,4.61,7.94,4.61,4.1,0,8-1.73,8-4.88C272.36,407.44,268.52,405.18,264.58,405.18Zm-.18,8.64c-3.86,0-7-1.75-7-3.89s3.13-3.89,7-3.89,7,1.74,7,3.89S268.26,413.82,264.4,413.82Z" transform="translate(-0.98 -0.52)"/><path class="ba050749-6dc9-4bd0-9fdd-2355fe443309" d="M264.4,406c-3.86,0-7,1.74-7,3.89s3.13,3.89,7,3.89,7-1.75,7-3.89S268.26,406,264.4,406Z" transform="translate(-0.98 -0.52)"/></g><g id="bceacbbd-22d5-4720-b4d7-3751f7f7e82c" data-name="4"><path class="a9897b73-5668-4d59-af1e-0532fa43d925" d="M258.54,417.44c-3.86,0-8.13,1.53-8.13,4.88,0,2.95,4.11,4.61,8,4.61,4.1,0,8-1.73,8-4.88C266.32,419.7,262.48,417.44,258.54,417.44Zm-.18,8.64c-3.86,0-7-1.75-7-3.89s3.13-3.89,7-3.89,7,1.74,7,3.89S262.22,426.08,258.36,426.08Z" transform="translate(-0.98 -0.52)"/><path class="a877fe70-7937-425e-86bd-9fa3d6abd955" d="M258.36,418.3c-3.86,0-7,1.74-7,3.89s3.13,3.89,7,3.89,7-1.75,7-3.89S262.22,418.3,258.36,418.3Z" transform="translate(-0.98 -0.52)"/></g><g id="fa9d2052-ad6a-4b0a-8e7d-c7f7bd11cd72" data-name="5"><path class="a9897b73-5668-4d59-af1e-0532fa43d925" d="M240,411.28c-3.86,0-8.13,1.53-8.13,4.88,0,2.95,4.11,4.61,7.95,4.61,4.1,0,8-1.73,8-4.88C247.75,413.54,243.91,411.28,240,411.28Zm-.18,8.63c-3.86,0-7-1.74-7-3.89s3.13-3.89,7-3.89,7,1.75,7,3.89S243.65,419.91,239.79,419.91Z" transform="translate(-0.98 -0.52)"/><path class="e7cd8ff2-e1b2-4230-8564-18fe3c57383e" d="M239.79,412.13c-3.86,0-7,1.75-7,3.89s3.13,3.89,7,3.89,7-1.74,7-3.89S243.65,412.13,239.79,412.13Z" transform="translate(-0.98 -0.52)"/></g><g id="bea160e8-0b56-4049-ba41-291f32d455a9" data-name="6"><path class="a9897b73-5668-4d59-af1e-0532fa43d925" d="M217.73,411.28c-3.86,0-8.13,1.53-8.13,4.88,0,2.95,4.11,4.61,8,4.61,4.1,0,8-1.73,8-4.88C225.51,413.54,221.67,411.28,217.73,411.28Zm-.18,8.63c-3.86,0-7-1.74-7-3.89s3.13-3.89,7-3.89,7,1.75,7,3.89S221.41,419.91,217.55,419.91Z" transform="translate(-0.98 -0.52)"/><path class="ef480f7a-7d51-419c-afd5-c22c384a1591" d="M217.55,412.13c-3.86,0-7,1.75-7,3.89s3.13,3.89,7,3.89,7-1.74,7-3.89S221.41,412.13,217.55,412.13Z" transform="translate(-0.98 -0.52)"/></g></g><path class="b472ff74-4748-44d2-a20c-0d1386c0849f" d="M228.57,237.19v.07l-5.92-1v-.08Z" transform="translate(-0.98 -0.52)"/><path class="b472ff74-4748-44d2-a20c-0d1386c0849f" d="M236.56,238.53a.13.13,0,0,0,0,.06l-5.72-1s0,0,0-.06Z" transform="translate(-0.98 -0.52)"/><path class="a88b2f76-ee9a-4703-b60d-cb6b2cb903da" d="M210.17,273.38l-65.56-11c-.87-.14-.87-.14-.74-.92.25-1.54.47-3.08.75-4.61.78-4.31,1.48-8.63,2.22-12.95.09-.48.22-1,.29-1.44,0-.18.12-.23.31-.19l.75.13L267.5,262.38a16.13,16.13,0,0,1,4.69,1.42,11.54,11.54,0,0,1,5.67,5.9,8.36,8.36,0,0,1,.63,3.88c0,.38-.08.76-.15,1.14l-1.56,9.36c-.07.39-.13.42-.54.36l-40.11-6.72Zm14.68-7.7h0c-.4,2.35-.79,4.71-1.19,7.07,0,.23,0,.34.3.38,1,.15,1.95.32,2.93.49.51.09.51.09.59-.37q.69-4.22,1.4-8.43c0-.08,0-.21.12-.22s.13.1.17.17c1.69,3.14,3.43,6.26,5.06,9.42a2.38,2.38,0,0,0,3.55.6c.9-.94,1.91-1.79,2.87-2.68l4.89-4.53c.08-.07.15-.22.26-.17s0,.2,0,.31,0,.08,0,.12c-.47,2.79-.93,5.58-1.4,8.37,0,.25,0,.35.31.4,1,.16,2,.32,3.06.51.34.07.45,0,.49-.32q1.16-6.92,2.32-13.83a1.32,1.32,0,0,0-.25-1,2.34,2.34,0,0,0-3.26-.37l-2.16,2L236.79,271c-.25.23-.28.22-.45-.08-2.2-4.06-4.42-8.11-6.61-12.17a2.14,2.14,0,0,0-1.43-1.06A1.74,1.74,0,0,0,226,259Zm-4.51-.71h0c.38-2.31.76-4.61,1.16-6.92a1.32,1.32,0,0,0-.45-1.21,2.4,2.4,0,0,0-3.17,0c-2.39,2.24-4.82,4.43-7.24,6.63l-2.95,2.7c-.13.12-.23.25-.37,0l-3.44-6.31c-1.1-2-2.19-4-3.3-6a2.24,2.24,0,0,0-2.21-1,1.52,1.52,0,0,0-1.5,1.37q-1.16,6.86-2.3,13.71c0,.28.05.37.35.41,1,.15,2,.32,3,.5.44.07.45.08.51-.3.46-2.73.91-5.46,1.37-8.19,0-.13,0-.27.06-.4s0-.16.11-.17.1.08.13.14.18.34.28.51c1.63,3,3.29,6,4.88,9.07a2.34,2.34,0,0,0,3.35.6c.47-.47,1-.91,1.48-1.37l6.5-6c.06-.05.09-.14.19-.11s.07.14.06.22c-.14.81-.28,1.62-.41,2.44-.35,2.06-.69,4.13-1,6.2,0,.22,0,.32.29.36l3,.5c.44.07.45.07.52-.31Q219.75,268.44,220.34,265Zm33.15,5.67h0c-.38,2.28-.76,4.57-1.15,6.85-.06.31.06.41.38.45,1,.16,2,.32,3,.5.33.07.45,0,.5-.31.16-1,.35-2.08.51-3.12,0-.23.12-.33.4-.28l12.77,2.14c.33.05.39.18.34.45-.18,1-.34,2.08-.53,3.12-.05.25,0,.35.32.4,1,.15,2,.32,3,.49.45.07.46.07.53-.34q.61-3.66,1.22-7.32a6.88,6.88,0,0,0-2.51-6.52,12.61,12.61,0,0,0-6.36-3c-2.38-.41-4.76-.8-7.13-1.19-.72-.12-1.45-.26-2.17-.35a1.6,1.6,0,0,0-1.91,1.29C254.24,266.17,253.87,268.4,253.49,270.64Zm-62.24-10.42h0l1.14-6.79a1.24,1.24,0,0,0,0-.47,1.91,1.91,0,0,0-1.63-1.33c-1.55-.26-3.1-.53-4.65-.77-1.84-.3-3.66-.71-5.51-.87a11.55,11.55,0,0,0-7,1.39,6.55,6.55,0,0,0-3.37,4.67q-.63,3.74-1.25,7.47c-.07.4-.07.4.36.47,1,.17,2,.32,2.93.5.33.06.45,0,.5-.31.15-1,.34-2.06.5-3.09,0-.29.17-.35.48-.3l12.67,2.12c.34,0,.42.16.37.46-.19,1-.35,2.08-.54,3.11,0,.26,0,.36.32.4,1,.16,2,.32,3,.51.33.06.44,0,.49-.32C190.48,264.79,190.87,262.5,191.25,260.22Zm-38.3,1h0l6.47,1.08a7.76,7.76,0,0,0,2.76,0,3.93,3.93,0,0,0,3.34-2.92c.64-3.78,1.26-7.55,1.9-11.33.05-.27,0-.37-.33-.42-1-.15-2-.32-3-.5-.36-.07-.46,0-.51.33q-.92,5.58-1.86,11.15a1.08,1.08,0,0,1-1.24.95,4.41,4.41,0,0,1-.73-.08c-1-.18-2-.37-3.06-.54l-7-1.15c-.28-.05-.35-.15-.31-.38.11-.59.19-1.18.31-1.76.06-.28,0-.4-.35-.45-.84-.13-1.68-.26-2.52-.42-.34-.07-.44,0-.49.32-.24,1.49-.49,3-.74,4.45-.07.42-.07.42.42.5Z" transform="translate(-0.98 -0.52)"/><path class="a88b2f76-ee9a-4703-b60d-cb6b2cb903da" d="M230.83,237.63l5.72,1c.15.09.15.2.13.35-.37,2.17-.73,4.34-1.11,6.51,0,.29,0,.38.34.43,3.09.5,6.18,1,9.27,1.54.32.05.34.16.31.44-.06.67-.23,1.33-.32,2-.22,1.55-.54,3.09-.8,4.63-.1.59-.17,1.19-.26,1.78,0,.2-.12.31-.4.26L228.57,254c-.65-.11-.65-.11-.56-.68q1.29-7.69,2.57-15.38C230.6,237.79,230.6,237.63,230.83,237.63Zm3.94,12.7h0c-.13.78-.25,1.56-.39,2.34-.05.27,0,.38.33.43,1.06.16,2.11.34,3.16.53.32.06.44,0,.49-.31.25-1.55.51-3.1.78-4.66,0-.24,0-.34-.31-.38q-1.62-.25-3.24-.54c-.28-.05-.39,0-.43.27C235,248.79,234.9,249.56,234.77,250.33Z" transform="translate(-0.98 -0.52)"/><path class="a88b2f76-ee9a-4703-b60d-cb6b2cb903da" d="M255.63,249.17c2.55.43,5.09.86,7.64,1.27.34.06.42.17.37.47q-.7,4.14-1.39,8.3c-.07.37-.1.4-.52.33L246.38,257c-.27-.05-.34-.16-.3-.39q.72-4.21,1.41-8.43c0-.28.18-.33.47-.28,2.55.44,5.11.86,7.67,1.29Zm1.31,4.88h0c.14-.8.27-1.6.41-2.4,0-.23,0-.36-.3-.4l-3.44-.58c-.26,0-.38,0-.42.27l-.81,4.85c0,.25.05.36.33.41l3.37.56c.3.06.42,0,.46-.3C256.67,255.66,256.81,254.86,256.94,254.05Z" transform="translate(-0.98 -0.52)"/><path class="a88b2f76-ee9a-4703-b60d-cb6b2cb903da" d="M173.53,244.78l-7.64-1.27c-.31,0-.37-.15-.33-.42q.72-4.2,1.42-8.42c0-.25.13-.32.4-.27L182.74,237c.41.07.43.11.37.49-.26,1.55-.53,3.11-.78,4.66,0,.31-.17.37-.5.32-3.07-.53-6.15-1-9.22-1.55-.46-.08-.46-.08-.52.32s-.11.7-.19,1,0,.35.31.4c2.06.33,4.11.68,6.17,1l3.16.53c.32.05.42.17.37.44s-.14.74-.19,1.11-.18.38-.51.32Zm.92-5.45h0c.56.1,1.13.18,1.69.29.25,0,.35,0,.38-.25,0-.39.12-.78.2-1.17,0-.21,0-.32-.26-.36l-3.41-.57c-.22,0-.33,0-.36.23q-.08.62-.18,1.23c0,.23.06.3.29.33C173.35,239.13,173.9,239.23,174.45,239.33Z" transform="translate(-0.98 -0.52)"/><path class="a88b2f76-ee9a-4703-b60d-cb6b2cb903da" d="M211.28,241.75l7.64,1.28c.44.07.5.14.42.52-.43,2-.7,4-1.05,6-.14.74-.27,1.48-.37,2.23,0,.29-.15.37-.49.31-2.08-.36-4.17-.7-6.26-1l-9-1.51c-.42-.07-.43-.08-.37-.47.26-1.56.53-3.11.77-4.67,0-.32.18-.37.52-.31l9.16,1.54c.46.07.46.07.53-.33s.09-.67.17-1,0-.4-.36-.46c-2.34-.37-4.68-.77-7-1.16l-2.31-.38c-.24,0-.32-.12-.28-.34a10.85,10.85,0,0,0,.21-1.27c0-.27.16-.31.43-.26l5.37.9,2.27.38ZM210.13,249h0c.55.09,1.11.17,1.66.27.21,0,.33,0,.36-.21l.21-1.23c0-.19-.05-.29-.27-.33l-3.33-.56c-.24,0-.35,0-.38.24,0,.4-.11.79-.19,1.17-.05.23.05.33.29.37C209,248.79,209.58,248.89,210.13,249Z" transform="translate(-0.98 -0.52)"/><path class="a88b2f76-ee9a-4703-b60d-cb6b2cb903da" d="M268.74,251.36c.87.15,1.74.31,2.62.44.31,0,.38.18.34.43-.08.4-.13.8-.21,1.2,0,.21,0,.3.27.34l3.36.56c.28,0,.38,0,.41-.27.06-.41.15-.82.2-1.23,0-.23.15-.27.37-.24l5.4.91c.21,0,.3.13.27.33-.08.43-.16.86-.22,1.29,0,.23-.16.29-.41.25-.44-.09-.89-.15-1.34-.24-.24,0-.33,0-.36.24-.05.4-.13.8-.19,1.2,0,.23-.15.3-.4.25-.47-.08-.94-.15-1.41-.24-.17,0-.24,0-.29.17-.13.44-.08.91-.25,1.34-.07.18.07.24.24.27l1.38.22c.28,0,.38.15.33.41s-.13.78-.21,1.17c0,.21.05.31.28.34l1.34.22c.25,0,.34.13.3.36-.09.42-.17.84-.22,1.27,0,.22-.15.27-.36.24l-.65-.11-4.62-.77c-.45-.08-.45-.08-.38-.49s.12-.76.19-1.14c.05-.21,0-.3-.27-.34l-3.44-.58c-.22,0-.29,0-.31.21-.06.4-.16.8-.19,1.21s-.19.37-.5.32l-4.72-.8c-1.16-.19-.93-.1-.8-1,0-.25.09-.49.12-.74s.16-.29.4-.25c.45.09.9.15,1.34.24.27.05.39,0,.42-.26s.14-.78.19-1.17.16-.31.41-.26c.46.09.92.15,1.37.24.21,0,.3,0,.32-.2.06-.43.13-.85.22-1.27,0-.21-.05-.28-.26-.31l-1.38-.23c-.24,0-.34-.12-.29-.36s.14-.78.21-1.17c0-.23,0-.35-.31-.38-.45-.06-.9-.15-1.35-.22-.25,0-.34-.14-.29-.37q.12-.63.21-1.26c0-.24.16-.29.4-.24Z" transform="translate(-0.98 -0.52)"/><path class="a88b2f76-ee9a-4703-b60d-cb6b2cb903da" d="M222.64,236.28l5.92,1a.42.42,0,0,1,.05.36q-1.31,7.77-2.6,15.56c0,.28-.17.37-.48.31s-.88-.19-1.33-.26l-3.89-.62c-.46-.08-.45-.08-.39-.49q1.31-7.74,2.6-15.49C222.54,236.51,222.52,236.37,222.64,236.28Z" transform="translate(-0.98 -0.52)"/><path class="a88b2f76-ee9a-4703-b60d-cb6b2cb903da" d="M191.71,247.82,184,246.54c-.3,0-.4-.14-.35-.43q.72-4.2,1.41-8.4c0-.26.15-.32.42-.27L200.87,240c.31.05.42.18.36.45s-.11.72-.19,1.08-.13.41-.55.34l-4.16-.7-5.06-.85c-.28,0-.37,0-.41.25-.22,1.39-.46,2.78-.69,4.17a2.74,2.74,0,0,1,0,.28c-.11.6-.11.6.58.72l8.92,1.49c.42.07.45.11.39.5s-.15.72-.18,1.08-.19.35-.48.3c-.56-.11-1.12-.2-1.68-.29Z" transform="translate(-0.98 -0.52)"/><path class="fb6d571c-0dde-4a9a-b4ef-c2e52bbf47f3" d="M291.07,282.1c-.25,1.47-.49,2.94-.74,4.41-.07.42-.07.42-.51.34l-4.27-.71c-.27,0-.37-.13-.3-.37s.07-.41.11-.62-.06-.27-.25-.29l-.49-.05c-.39-.06-.49,0-.51.37,0,.06,0,.12,0,.19,0,.43-.14.5-.63.42-1.39-.23-2.79-.47-4.19-.69-.32-.05-.4-.19-.36-.45.5-3,1-5.91,1.49-8.86.06-.36.14-.42.55-.33,2.95.58,5.92,1,8.87,1.52.52.09,1,.13,1.55.22s.47.1.4.52c-.24,1.46-.49,2.92-.73,4.38Zm-8.37-.17h0l1.58.27c.22,0,.32,0,.35-.22.1-.59.2-1.19.31-1.79,0-.21-.06-.3-.29-.34l-3.13-.52c-.21,0-.31,0-.35.22-.08.59-.18,1.19-.29,1.79,0,.21,0,.31.27.34Zm5.47-1.49h0c-.52-.08-1-.16-1.55-.26-.25-.05-.36,0-.39.24-.09.59-.19,1.19-.29,1.78-.05.23.05.29.28.33,1,.16,2,.33,3,.51.28.05.39,0,.43-.27.08-.56.17-1.13.28-1.69,0-.23,0-.35-.3-.39C289.15,280.61,288.66,280.52,288.17,280.44Z" transform="translate(-0.98 -0.52)"/><path class="f77ed94f-1f22-4d21-a490-5616b1b196a6" d="M292.87,271.31c-.25,1.48-.5,3-.74,4.44-.07.38-.11.4-.52.34l-2.86-.48c-.41-.07-.49-.18-.43-.54.14-.85.28-1.71.43-2.56a.34.34,0,0,1,0-.1c.2-.63.12-.52.72-.43l1.48.25c.26,0,.4,0,.44-.25.09-.59.19-1.18.29-1.76,0-.21,0-.33-.3-.38l-8-1.34c-.26,0-.39.05-.42.28-.09.57-.19,1.14-.28,1.7,0,.23.05.36.31.41l3.06.52a.25.25,0,0,0,.33-.17,1.81,1.81,0,0,0,.12-.64c0-.19.11-.24.27-.29a.45.45,0,0,1,.2,0c.85.09.89.14.77.88-.21,1.26-.43,2.51-.63,3.77,0,.26-.17.34-.43.3l-5.43-.91c-.49-.08-.55-.15-.48-.58.49-3,1-5.91,1.48-8.87,0-.17.09-.23.28-.22s.55,0,.83.08l9.77,1.63c.55.09.55.1.47.6l-.72,4.32Z" transform="translate(-0.98 -0.52)"/><path class="bc09d52e-1c04-412e-ba9e-cfac44cd8b7f" d="M289.84,254.78c1.75.29,3.49.59,5.24.87.3,0,.4.13.35.42-.51,3-1,5.95-1.49,8.92-.05.3-.16.38-.49.32-1.4-.25-2.8-.48-4.2-.71-.36-.06-.42-.15-.36-.47,0-.12.06-.23.08-.34.08-.47.08-.47-.46-.56l-.21,0c-.5-.08-.51-.08-.54.39,0,.18-.1.34-.11.52s-.18.19-.35.16l-4.44-.74c-.23,0-.32-.15-.29-.35.17-1,.35-2,.51-3.06,0-.28.23-.27.45-.23l1.83.3c.8.15,1.61.24,2.4.44.25.06.44,0,.48-.27.07-.57.17-1.14.28-1.7.05-.27,0-.38-.34-.43-1.42-.22-2.83-.47-4.24-.7-.29,0-.4-.12-.35-.4.18-1,.33-2,.48-3,0-.26.15-.33.44-.28C286.28,254.19,288.06,254.48,289.84,254.78Zm1.49,6.43h0c.51.08,1,.16,1.54.26.22,0,.35,0,.39-.21.09-.61.19-1.22.3-1.82,0-.2,0-.32-.27-.35l-3.09-.52c-.22,0-.32,0-.35.21-.09.63-.2,1.25-.31,1.88,0,.18,0,.26.24.29Z" transform="translate(-0.98 -0.52)"/><path class="a88b2f76-ee9a-4703-b60d-cb6b2cb903da" d="M156.94,232.66l7.54,1.26c.53.09.53.09.45.57s-.13.7-.17,1-.16.33-.44.28l-9.3-1.57c-.33-.05-.41,0-.45.3-.35,2.17-.72,4.33-1.07,6.49-.05.31-.2.36-.51.31l-5.19-.87c-.3,0-.4-.14-.35-.42q.72-4.19,1.4-8.39c.05-.31.19-.34.48-.29Z" transform="translate(-0.98 -0.52)"/><path class="b472ff74-4748-44d2-a20c-0d1386c0849f" d="M224.85,265.68,226,259a1.74,1.74,0,0,1,2.34-1.33,2.14,2.14,0,0,1,1.43,1.06c2.19,4.06,4.41,8.11,6.61,12.17.17.3.2.31.45.08l8.14-7.43,2.16-2a2.34,2.34,0,0,1,3.26.37,1.32,1.32,0,0,1,.25,1q-1.17,6.91-2.32,13.83c0,.29-.15.39-.49.32-1-.19-2-.35-3.06-.51-.3-.05-.36-.15-.31-.4.47-2.79.93-5.58,1.4-8.37,0,0,0-.08,0-.12s.11-.25,0-.31-.18.1-.26.17l-4.89,4.53c-1,.89-2,1.74-2.87,2.68a2.38,2.38,0,0,1-3.55-.6c-1.63-3.16-3.37-6.28-5.06-9.42,0-.07-.06-.19-.17-.17s-.11.14-.12.22q-.7,4.21-1.4,8.43c-.08.46-.08.46-.59.37-1-.17-1.95-.34-2.93-.49-.28,0-.34-.15-.3-.38.4-2.36.79-4.72,1.19-7.07Z" transform="translate(-0.98 -0.52)"/><path class="b472ff74-4748-44d2-a20c-0d1386c0849f" d="M220.34,265q-.59,3.46-1.16,6.95c-.07.38-.08.38-.52.31l-3-.5c-.27,0-.32-.14-.29-.36.36-2.07.7-4.14,1-6.2.13-.82.27-1.63.41-2.44,0-.08.06-.18-.06-.22s-.13.06-.19.11l-6.5,6c-.5.46-1,.9-1.48,1.37a2.34,2.34,0,0,1-3.35-.6c-1.59-3-3.25-6.05-4.88-9.07-.1-.17-.19-.34-.28-.51s-.05-.14-.13-.14-.1.1-.11.17,0,.27-.06.4c-.46,2.73-.91,5.46-1.37,8.19-.06.38-.07.37-.51.3-1-.18-2-.35-3-.5-.3,0-.4-.13-.35-.41q1.16-6.86,2.3-13.71a1.52,1.52,0,0,1,1.5-1.37,2.24,2.24,0,0,1,2.21,1c1.11,2,2.2,4,3.3,6l3.44,6.31c.14.27.24.14.37,0l2.95-2.7c2.42-2.2,4.85-4.39,7.24-6.63a2.4,2.4,0,0,1,3.17,0,1.32,1.32,0,0,1,.45,1.21c-.4,2.31-.78,4.61-1.16,6.92Z" transform="translate(-0.98 -0.52)"/><path class="b472ff74-4748-44d2-a20c-0d1386c0849f" d="M253.49,270.64c.38-2.24.75-4.47,1.13-6.7a1.6,1.6,0,0,1,1.91-1.29c.72.09,1.45.23,2.17.35,2.37.39,4.75.78,7.13,1.19a12.61,12.61,0,0,1,6.36,3,6.88,6.88,0,0,1,2.51,6.52q-.6,3.66-1.22,7.32c-.07.41-.08.41-.53.34-1-.17-2-.34-3-.49-.29,0-.37-.15-.32-.4.19-1,.35-2.08.53-3.12.05-.27,0-.4-.34-.45l-12.77-2.14c-.28-.05-.36,0-.4.28-.16,1-.35,2.08-.51,3.12-.05.3-.17.38-.5.31-1-.18-2-.34-3-.5-.32,0-.44-.14-.38-.45.39-2.28.77-4.57,1.15-6.85ZM264,273l6.37,1.07c.3,0,.43,0,.46-.28s.08-.52.12-.78a4.27,4.27,0,0,0-1.54-4.2,8.48,8.48,0,0,0-4-1.85c-2.25-.43-4.52-.78-6.77-1.17-.34-.06-.36.12-.4.33q-.44,2.69-.9,5.37c0,.29,0,.4.36.46Z" transform="translate(-0.98 -0.52)"/><path class="b472ff74-4748-44d2-a20c-0d1386c0849f" d="M191.25,260.22c-.38,2.28-.77,4.57-1.14,6.85-.05.3-.16.38-.49.32-1-.19-2-.35-3-.51-.29,0-.36-.14-.32-.4.19-1,.35-2.08.54-3.11.05-.3,0-.41-.37-.46l-12.67-2.12c-.31-.05-.44,0-.48.3-.16,1-.35,2.05-.5,3.09,0,.3-.17.37-.5.31-1-.18-1.95-.33-2.93-.5-.43-.07-.43-.07-.36-.47q.62-3.74,1.25-7.47a6.55,6.55,0,0,1,3.37-4.67,11.55,11.55,0,0,1,7-1.39c1.85.16,3.67.57,5.51.87,1.55.24,3.1.51,4.65.77A1.91,1.91,0,0,1,192.4,253a1.24,1.24,0,0,1,0,.47l-1.14,6.79Zm-10.67-1.14h0c2.11.35,4.22.7,6.33,1.07.32.05.44,0,.48-.29.3-1.81.6-3.63.91-5.44,0-.26,0-.37-.33-.42q-3-.48-6-1a11.11,11.11,0,0,0-3.77,0,4.85,4.85,0,0,0-3.81,2.54,7.49,7.49,0,0,0-.52,2c-.07.4-.07.41.4.48Z" transform="translate(-0.98 -0.52)"/><path class="b472ff74-4748-44d2-a20c-0d1386c0849f" d="M153,261.25l-7-1.17c-.49-.08-.49-.08-.42-.5.25-1.48.5-3,.74-4.45.05-.28.15-.39.49-.32.84.16,1.68.29,2.52.42.31.05.41.17.35.45-.12.58-.2,1.17-.31,1.76,0,.23,0,.33.31.38l7,1.15c1,.17,2,.36,3.06.54a4.41,4.41,0,0,0,.73.08,1.08,1.08,0,0,0,1.24-.95q.94-5.58,1.86-11.15c0-.3.15-.4.51-.33,1,.18,2,.35,3,.5.3.05.38.15.33.42-.64,3.78-1.26,7.55-1.9,11.33a3.93,3.93,0,0,1-3.34,2.92,7.76,7.76,0,0,1-2.76,0L153,261.25Z" transform="translate(-0.98 -0.52)"/><path class="a88b2f76-ee9a-4703-b60d-cb6b2cb903da" d="M264,273l-6.33-1c-.34-.06-.41-.17-.36-.46q.47-2.68.9-5.37c0-.21.06-.39.4-.33,2.25.39,4.52.74,6.77,1.17a8.48,8.48,0,0,1,4,1.85,4.27,4.27,0,0,1,1.54,4.2c0,.26-.1.52-.12.78s-.16.33-.46.28Z" transform="translate(-0.98 -0.52)"/><path class="a88b2f76-ee9a-4703-b60d-cb6b2cb903da" d="M180.58,259.08l-6.3-1.06c-.47-.07-.47-.08-.4-.48a7.49,7.49,0,0,1,.52-2,4.85,4.85,0,0,1,3.81-2.54,11.11,11.11,0,0,1,3.77,0q3,.51,6,1c.31.05.38.16.33.42-.31,1.81-.61,3.63-.91,5.44,0,.29-.16.34-.48.29-2.11-.37-4.22-.72-6.33-1.07Z" transform="translate(-0.98 -0.52)"/></g><g id="ea1a9e8b-27d6-4340-84d6-693f12143636" data-name="Calque 2"><g id="a9a3c1dc-c910-4afe-9b3e-87e93e2516e5" data-name="Calque 1-2"><g id="b9eeec32-07f0-49dc-a824-cfb13b2ea358" data-name="layer1"><path id="a82fad55-ef21-47e2-b321-a4506edec060" data-name="rect4393" class="ba30cb2b-1def-4d5b-95ce-08e2bfb6689d" d="M264.64,78.34c-4.3-.68-7.91,2.83-7.9,7.67v15.64c0,4.85,3.61,9.5,7.91,10.2l25.27,4.07c4.33.7,8-2.81,8-7.68V92.53c0-4.86-3.64-9.53-8-10.21Zm1.86,9.88L288,91.62v14.59l-21.45-3.44Z" transform="translate(-0.98 -0.52)"/><path id="e063c92a-1154-4871-9651-1355c3ead708" data-name="rect4348" class="ba30cb2b-1def-4d5b-95ce-08e2bfb6689d" d="M78.75,49.71l0,32.38,9.39,1.52,0-23,17.78,2.82V86.47L115.15,88V64.33c0-4.76-3.48-9.32-7.64-10C107.43,54.23,78.75,49.71,78.75,49.71Z" transform="translate(-0.98 -0.52)"/><path id="eea5b6e5-0a08-4b73-bbb5-3e0afd5fff43" data-name="path4359" class="ba30cb2b-1def-4d5b-95ce-08e2bfb6689d" d="M121.5,56.45V65l25.81,4.1v2.28l-20.13-3.2c-4.17-.66-7.67,2.8-7.68,7.68v3.9c0,4.77,3.5,9.35,7.76,10l29.47,4.75V70.93c0-4.79-3.52-9.38-7.81-10.05L121.5,56.45Zm7.57,20.73,18.14,2.9v4.68l-18.15-2.91Z" transform="translate(-0.98 -0.52)"/><path id="ec0a6ba3-d398-4965-8e85-b2b4ceb6b615" data-name="path4384" class="ba30cb2b-1def-4d5b-95ce-08e2bfb6689d" d="M162.56,62.92V95.61l9.56,1.54V73.91L182,75.48V98.74l9.6,1.55V77l10.1,1.6v23.32l9.45,1.52V79.55c0-4.82-3.57-9.43-7.81-10.1C203.23,69.33,162.56,62.92,162.56,62.92Z" transform="translate(-0.98 -0.52)"/><path id="ba330583-d076-4172-b564-37b7edf4ab51" data-name="rect4389" class="ba30cb2b-1def-4d5b-95ce-08e2bfb6689d" d="M224.58,72c-4.26-.67-7.84,2.82-7.84,7.64V95.24c0,4.83,3.58,9.46,7.84,10.15l26.61,4.29V100.1l-24.67-3.95V81.88l24.67,3.91V76.22Z" transform="translate(-0.98 -0.52)"/><path id="a5a7175c-4a72-4831-815c-09e638d56cc2" data-name="text4406" class="a7ace136-35e6-4c1e-ac39-259c98bcdefe" d="M304.27,84.91A5.61,5.61,0,0,1,307.62,87,6.47,6.47,0,0,1,309,91a5,5,0,0,1-1.38,3.55,3.83,3.83,0,0,1-3.35,1,5.57,5.57,0,0,1-3.35-2.08,6.54,6.54,0,0,1-1.38-4,4.84,4.84,0,0,1,1.38-3.55,3.86,3.86,0,0,1,3.35-1Zm0,9.74a3,3,0,0,0,2.76-.89,3.8,3.8,0,0,0,1.18-2.91A5.15,5.15,0,0,0,307,87.56a4.29,4.29,0,0,0-2.76-1.76,3.05,3.05,0,0,0-2.76.89,3.81,3.81,0,0,0-1.18,2.91,5.21,5.21,0,0,0,1.18,3.29,4.29,4.29,0,0,0,2.76,1.76Zm2.07-1.22-.89-.14L305.06,92a1.61,1.61,0,0,0-1.38-1.32l-.59-.1v2.33l-.79-.13V87.15l1.87.29c1.38.22,2,.87,2,1.86s-.39,1.49-1.28,1.46a1.9,1.9,0,0,1,1,1.27C305.85,91.91,306.34,93.43,306.34,93.43Zm-3.25-3.61,1,.15c.79.13,1.18-.14,1.18-.7s-.39-.94-1.28-1.08L303,88V89.8Z" transform="translate(-0.98 -0.52)"/></g></g><path class="abd64f12-a47e-49b3-92ea-fd74cf659726" d="M79.54,112.25v-5.4l19,3.11v-3.68l-13-2.12v-.11l-.65-.1c-.19,0-.29-.16-.38-.17a.38.38,0,0,1-.28-.16.35.35,0,0,1-.28-.15.36.36,0,0,1-.28-.16c-.1,0-.19-.13-.29-.15s-.18-.14-.28-.15-.18-.14-.28-.16-.19-.14-.28-.15-.19-.14-.28-.26c0,.1-.09.09-.19,0s-.19-.14-.28-.27-.19-.14-.28-.26l-.28-.37-.28-.37-.38-.49h0l-.75-1.42-.18-.68a4.74,4.74,0,0,0-.1-.55V93.78c0-.21.09-.31.09-.41a.37.37,0,0,1,.1-.31c0-.11.09-.2.09-.31s.09-.2.09-.31.1-.2.1-.31.09-.2.19-.29a.48.48,0,0,0,.18-.3l.28-.27.38-.38h0l1.6-.92.84-.3a.79.79,0,0,1,.47,0c.09,0,.19-.08.38,0l.09,0c.19,0,.28-.07.37,0l.29,0,.28.05h.09v-.1l19.38,3.14v5.41L85.84,95V98.8l13,2.12.09.12.47.08c.19,0,.28.15.38.17a.36.36,0,0,1,.28.15.38.38,0,0,1,.28.16.35.35,0,0,1,.28.15.39.39,0,0,1,.29.16c.09,0,.19.13.28.15s.19.14.28.15.19.14.28.16.19.14.29.15.19.14.28.27.19.13.28.26.19.14.28.26.19.14.29.26l.28.37.28.38.29.37v.11l.75,1.53a1,1,0,0,1,.09.44,1,1,0,0,0,.1.45v.11l.09.13v4.22c0,.22-.1.31-.1.42a.41.41,0,0,1-.09.31c0,.11-.1.2-.1.31s-.09.2-.09.31-.1.2-.19.29-.09.2-.19.29-.09.21-.19.3l-.28.28-.19.18h-.09l-2,1.19-.76-.23c-.19.07-.28.06-.38.15a.53.53,0,0,0-.37,0l-.1,0c-.18,0-.28.06-.37,0l-.29,0-.28,0H98.9Z" transform="translate(-0.98 -0.52)"/><path class="abd64f12-a47e-49b3-92ea-fd74cf659726" d="M116.35,118.31v-7.37l-3.5-.58h0l-.56-.09c-.19,0-.29-.15-.38-.17a.38.38,0,0,1-.28-.15.43.43,0,0,1-.29-.16c-.09,0-.19-.14-.28-.15s-.19-.14-.28-.16-.19-.14-.29-.26-.19-.14-.28-.27-.19-.13-.28-.26-.19-.14-.29-.26-.19-.14-.28-.26l-.28-.38c-.1-.12-.19-.13-.29-.26l-.28-.37h0l-1.32-2.6c-.09-.23-.09-.45-.19-.57s-.09-.23-.09-.34a3.16,3.16,0,0,0-.09-.45v-.65h0V93l6.33,1v9.21l12.87,2.1V96.12l6.36,1v9.56h-.1v.65c0,.22-.09.31-.09.42a.38.38,0,0,1-.1.31c0,.11-.09.2-.09.31s-.1.2-.1.31-.09.2-.19.29-.09.21-.19.3-.09.2-.19.29-.09.21-.19.3-.09.2-.19.29-.09.21-.19.3l-.28.28c-.09.09-.19.18-.19.29s-.09.2-.19.19l-.09,0-2.19,1.28c-.19.07-.28.06-.38.15s-.18.08-.28.06-.28.07-.38,0l-.28,0-.19,0h-.1l-.09,0-3.51-.57v7.38l-6.25-1Z" transform="translate(-0.98 -0.52)"/><path class="abd64f12-a47e-49b3-92ea-fd74cf659726" d="M134.26,121.26v-5.44L153.48,119v-3.71l-13.14-2.15V113l-.57-.09c-.19,0-.28-.15-.38-.17a.39.39,0,0,1-.28-.15.43.43,0,0,1-.29-.16.38.38,0,0,1-.28-.16c-.1,0-.19-.14-.29-.15s-.19-.14-.28-.16-.19-.14-.29-.15-.19-.14-.28-.16-.19-.14-.29-.26-.19-.14-.28-.26-.19-.14-.29-.27-.19-.14-.28-.26l-.29-.38-.28-.37-.38-.49h0l-.76-1.43-.19-.47c0-.22-.09-.45-.09-.56v-4.24c0-.21.1-.31.1-.41a.43.43,0,0,1,.09-.32c0-.1.1-.2.1-.31s.09-.2.09-.31.1-.2.1-.31.09-.2.19-.29.19-.19.19-.3.19-.18.19-.29l.38-.38h0l1.61-.93.86-.3a1,1,0,0,1,.47,0c.1,0,.19-.08.38,0h.1c.19,0,.28-.06.38,0l.28,0,.29.05h.09v-.11l19.62,3.18V107l-19.15-3.11v3.8l13.14,2.14.09.13.48.08c.19,0,.29.15.38.17a23.48,23.48,0,0,0,.86.46.41.41,0,0,1,.29.16c.09,0,.19.14.28.15s.19.14.29.16.19.14.28.16.19.14.29.15.19.14.29.27.19.14.28.26.19.14.29.26.19.14.28.27l.29.37.29.38.28.37v.11l.77,1.54a1,1,0,0,1,.09.45,1,1,0,0,0,.1.45v.11l.09.13v4.25c0,.22-.1.31-.1.42a.39.39,0,0,1-.09.31c0,.11-.1.2-.1.31s-.09.2-.09.31-.1.21-.19.3-.1.2-.19.29-.1.21-.2.3l-.28.28-.19.19-.1,0-2,1.2-.77-.24c-.19.08-.28.06-.38.16a.6.6,0,0,0-.38,0h-.09c-.19,0-.29.06-.39,0l-.28,0-.29,0h0l-.09,0Z" transform="translate(-0.98 -0.52)"/><path class="abd64f12-a47e-49b3-92ea-fd74cf659726" d="M171.63,127.41V110.93l-9.75-1.59v-7.41l25.86,4.19v7.43L178,112v16.6l-6.32-1Z" transform="translate(-0.98 -0.52)"/><path class="abd64f12-a47e-49b3-92ea-fd74cf659726" d="M195.62,131.36a4.78,4.78,0,0,1-.48-.19.82.82,0,0,1-.39-.17c-.09-.13-.19-.14-.38-.18s-.19-.14-.39-.17-.19-.14-.38-.17-.19-.14-.39-.17-.19-.15-.38-.29a1.8,1.8,0,0,0-.39-.28,18673582370821,18673582370821,0,0,0-.76-.78,1.79,1.79,0,0,0-.39-.39,1.52,1.52,0,0,0-.38-.39l-.2-.25v-.11l-1-2-.38-1.27v-1.75l-.1-.12v-9.19a5.11,5.11,0,0,1,.09-.53v-.44c0-.11.1-.2.1-.42s.09-.2.19-.4.1-.21.1-.43.09-.2.09-.42.1-.2.19-.4.1-.21.2-.41.09-.2.19-.41a1.09,1.09,0,0,0,.29-.39,1.22,1.22,0,0,0,.29-.39l.48-.47.09,0,2-1.1,1.16-.14.09,0a.82.82,0,0,1,.48,0l.39.06.38.06.39.06.38.07.39.06.38.06.39.06.38.07.39.06.38.06.39.06.38.07.39.06.38.06.39.06.39.07.38.06.39.06.38.06.39.06.38.07.39.06.38.06.39.06.38.07.39.06.39.06.38.06.39.07.38.06.39.06.39.06.38.07.39.06.38.06.39.06.39.07.38.06.39.06a3.67,3.67,0,0,1,.48.19l.39.06c.09,0,.19.14.38.17s.2.14.39.18a.51.51,0,0,0,.38.17c.1,0,.2.14.39.17s.19.14.39.28.19.14.38.28a.65.65,0,0,0,.39.29,1.78,1.78,0,0,0,.39.39,1.7,1.7,0,0,0,.38.39c.1.12.29.27.49.52v.11l1.35,2.63v.11a2.1,2.1,0,0,1,.19.58,5.47,5.47,0,0,1,.1.56v.11a5.76,5.76,0,0,0,.1.57v8.88L197.45,123v3.61l19.49,3.2v5.48l-21.32-3.5Zm13.49-12.69v-3.5l-12.91-2.1v3.5Z" transform="translate(-0.98 -0.52)"/><path class="abd64f12-a47e-49b3-92ea-fd74cf659726" d="M217.61,135V111l29.69,4.81v.11l.58.1c.19,0,.29.15.39.17a12.26,12.26,0,0,0,.58.31c.1,0,.2.14.29.16s.2.14.3.27.19.14.29.27.19.14.29.26.2.14.29.27.2.14.3.27.19.25.29.27l.29.37c.1.13.29.27.49.52v.11L253,122a3.8,3.8,0,0,0,.2.58,3.07,3.07,0,0,1,.09.46v1.1a1,1,0,0,0,.19.58v16.74L247,140.37V123.2l-8.17-1.33v16.71l-6.6-1.09v-16.7l-8.14-1.32v16.68l-6.49-1.06Z" transform="translate(-0.98 -0.52)"/><path class="abd64f12-a47e-49b3-92ea-fd74cf659726" d="M272.87,144.07V127.41l-6.55-1.07v-7.5l6.85,1.11h0l.39.06c.1,0,.2.14.29.16s.1,0,.2.14l.1,0c.1,0,.19.14.29.16s.1,0,.2.14h.1l1.27.87h0l2.06,2h0l1,2,.19.8a.5.5,0,0,1,.1.35c0,.11,0,.11.1.24v.44c0,.11,0,.11.1.24v.33h0v17.12l-6.67-1.1Z" transform="translate(-0.98 -0.52)"/><path class="abd64f12-a47e-49b3-92ea-fd74cf659726" d="M281.69,145.52V136a4.65,4.65,0,0,1,.1-.53c0-.12.09-.32.09-.54l.49-.92v-.11l.79-.86h.1l2.74-1.43.1,0c.2-.08.39,0,.49-.14a3.1,3.1,0,0,1,.49,0l.3,0a1,1,0,0,1,.49,0l.29.05.3,0,.29.05.3,0,.29.05.3,0,.29.05.3,0,.29.05.3.05.29,0,.3.05.29,0,.29.05.3,0,.29,0,.3,0,.29.05.3,0,.29.05.3,0,.29.05.3.05.29,0,.3.05.29,0,.3.05.29,0,.3.05.3,0,.29,0,.3,0,.29.05.3,0,.29.05.3.05.29,0,.3.05.29,0,.3.05a1,1,0,0,0,.49,0v-3.55l-19.85-3.22V121l20.14,3.26a3.37,3.37,0,0,1,.49.19l.3,0a.38.38,0,0,1,.29.15.45.45,0,0,1,.3.16.38.38,0,0,1,.29.16c.1,0,.2.14.3.16a.41.41,0,0,0,.3.16c.09,0,.19.14.29.16s.2.14.3.16.19.14.29.26.2.15.3.27.2.26.29.27l.3.38.3.38a2.32,2.32,0,0,1,.39.51v.22l.79,1.46a2.24,2.24,0,0,1,.2.59v.33a.5.5,0,0,0,.1.35v4.09a2.44,2.44,0,0,1,0,.63l-.22.49c-.06.14,0,.24-.19.4s-.64,2.62-2.93,2.92c0,0-.69,0-.79,0l-.29,0-.3,0-.29-.05L301,139l-.29,0-.3-.05-.3,0-.29-.05-.3,0-.29-.05-.3,0-.29-.05-.3,0-.29-.05-.3-.05-.29,0-.3-.05-.29,0-.3,0-.29,0-.3-.05-.29,0-.3-.05-.29-.05-.3,0-.29-.05-.3,0-.29-.05-.3,0-.29,0-.3,0-.29-.05-.3,0-.29-.05-.3-.05-.29,0-.3,0-.29-.05-.3-.05-.29,0c-.1,0-.3,0-.4,0v3.54l17.94,2.94-.05,5.64-26.14-4.3Z" transform="translate(-0.98 -0.52)"/></g></svg>