<svg xmlns="http://www.w3.org/2000/svg" xmlns:xlink="http://www.w3.org/1999/xlink" viewBox="0 0 470.33 67.41"><defs><style>.b699111f-a2aa-45da-bd7f-edb5a96a9419{stroke:#9def48;stroke-miterlimit:10;stroke-width:0.75px;fill:url(#ba86925c-fab4-47ab-89de-8c50f62b3233);}.b36f10d8-77d0-4d6d-a6bb-7bd1c08b9aaa{fill:#9def48;}.ab7b553a-4dc9-4d10-9eec-eaf8f0157b87{fill:#e60012;}.bbc47f96-7fd8-4785-84d7-684a3314fad9{fill:#fff;}</style><linearGradient id="ba86925c-fab4-47ab-89de-8c50f62b3233" x1="0.38" y1="33.7" x2="469.96" y2="33.7" gradientUnits="userSpaceOnUse"><stop offset="0" stop-color="#032c02"/><stop offset="1" stop-color="#207a09"/></linearGradient></defs><g id="b04bc523-de02-488b-a3d3-6b7a00d2d185" data-name="texte"><polygon class="b699111f-a2aa-45da-bd7f-edb5a96a9419" points="0.38 5.91 102.44 5.91 108.57 0.38 150.31 0.38 158.22 5.91 461.65 6.11 469.96 16 469.96 59.72 50.81 59.72 42.7 67.03 7.89 67.03 0.38 59.72 0.38 5.91"/><path class="b36f10d8-77d0-4d6d-a6bb-7bd1c08b9aaa" d="M86.45,20.58l-15,23.81H66.88L51.77,20.58H56.7L69.2,40.45,81.59,20.58Z" transform="translate(-0.06 -0.03)"/><path class="b36f10d8-77d0-4d6d-a6bb-7bd1c08b9aaa" d="M93.72,44.39h-4V24l4-3.95Z" transform="translate(-0.06 -0.03)"/><path class="b36f10d8-77d0-4d6d-a6bb-7bd1c08b9aaa" d="M125.17,40.43h2.64a17.4,17.4,0,0,0,2.12-6H106.44a17,17,0,0,0,2.14,6h2.62v4h-4.74a17.11,17.11,0,0,1-4-10H98.7V30.51h3.74a17,17,0,0,1,4-9.93h23.45a17,17,0,0,1,4,9.94l-1.71,1v2l1.71,1a17.11,17.11,0,0,1-4,10h-4.74Zm-18.73-9.92h23.49a17.21,17.21,0,0,0-2.12-6H108.58A16.86,16.86,0,0,0,106.44,30.51Z" transform="translate(-0.06 -0.03)"/><path class="b36f10d8-77d0-4d6d-a6bb-7bd1c08b9aaa" d="M153.29,41,149.34,45V24.53H136.42v-4H166.2v4H153.29Z" transform="translate(-0.06 -0.03)"/><path class="b36f10d8-77d0-4d6d-a6bb-7bd1c08b9aaa" d="M174.92,40.43h19.23a16,16,0,0,0,2.25-8,16.07,16.07,0,0,0-2.25-7.95h-2.64v-4h4.74a17.66,17.66,0,0,1,4.1,11.9,17.63,17.63,0,0,1-4.1,11.91H172.8a17.63,17.63,0,0,1-4.1-11.91,17.66,17.66,0,0,1,4.1-11.9h4.74v4h-2.62a15.9,15.9,0,0,0-2.27,7.95A15.79,15.79,0,0,0,174.92,40.43Z" transform="translate(-0.06 -0.03)"/><path class="b36f10d8-77d0-4d6d-a6bb-7bd1c08b9aaa" d="M210.28,37.76l-4.16,6.63h-4.94l15.13-23.81h4.55l15,23.81H231l-4.12-6.63Zm14.15-3.93-5.81-9.32-5.86,9.32Z" transform="translate(-0.06 -0.03)"/><path class="b36f10d8-77d0-4d6d-a6bb-7bd1c08b9aaa" d="M243.14,40.43H261l2.28,4H239.19V24L243.14,20Z" transform="translate(-0.06 -0.03)"/><path class="b36f10d8-77d0-4d6d-a6bb-7bd1c08b9aaa" d="M311.82,34.44a17.11,17.11,0,0,1-4,10H284.34a17.18,17.18,0,0,1-4-10h-3.73V30.51h3.73a17.07,17.07,0,0,1,4-9.93H307.8a17,17,0,0,1,4,9.94l-1.71,1v2Zm-27.49-3.93h23.49a17,17,0,0,0-2.13-6H286.47A16.67,16.67,0,0,0,284.33,30.51Zm0,3.93a16.85,16.85,0,0,0,2.14,6h19.22a17.22,17.22,0,0,0,2.13-6Z" transform="translate(-0.06 -0.03)"/><path class="b36f10d8-77d0-4d6d-a6bb-7bd1c08b9aaa" d="M342.7,44.39H319.24a17.67,17.67,0,0,1-4.1-11.91,17.6,17.6,0,0,1,4.1-11.9H342.7a17.65,17.65,0,0,1,4.1,11.9A17.72,17.72,0,0,1,342.7,44.39Zm-2.11-4a16,16,0,0,0,2.26-8,16,16,0,0,0-2.26-7.95H321.36a15.94,15.94,0,0,0-2.27,7.95,15.94,15.94,0,0,0,2.27,8Z" transform="translate(-0.06 -0.03)"/><path class="b36f10d8-77d0-4d6d-a6bb-7bd1c08b9aaa" d="M351.91,34.44l-1.79-2a17.66,17.66,0,0,1,4.1-11.9H359v4h-2.63a16.86,16.86,0,0,0-2.14,6h23.49a17,17,0,0,0-2.12-6h-2.64v-4h4.75a17.71,17.71,0,0,1,4.1,11.9,17.68,17.68,0,0,1-4.1,11.91H354.22a16.6,16.6,0,0,1-3.57-7.09h4.25a17.84,17.84,0,0,0,1.44,3.13h19.23a16.48,16.48,0,0,0,2.12-6Z" transform="translate(-0.06 -0.03)"/></g><g id="e4270adb-b372-4f33-8b22-2278059cfaff" data-name="nintendo"><path class="ab7b553a-4dc9-4d10-9eec-eaf8f0157b87" d="M25.59,23.22A2.08,2.08,0,0,0,27.48,21a2.08,2.08,0,0,0-1.89-2.22A2.08,2.08,0,0,0,23.7,21,2.08,2.08,0,0,0,25.59,23.22Zm-.72-2.83H26.3c.53,0,.75.32.75.62s-.22.62-.75.62H24.87c-.53,0-.75-.32-.75-.62S24.34,20.39,24.87,20.39Z" transform="translate(-0.06 -0.03)"/><path class="ab7b553a-4dc9-4d10-9eec-eaf8f0157b87" d="M23.8,26.07A1.82,1.82,0,0,0,25.56,28a1.77,1.77,0,0,0,1.66-1,1.84,1.84,0,0,0-.12-1.75h.19v-1.5H22.24v1.5H24.1A2,2,0,0,0,23.8,26.07ZM25,25.2h1.19a.6.6,0,1,1,0,1.19H25a.6.6,0,1,1,0-1.19Z" transform="translate(-0.06 -0.03)"/><polygon class="bbc47f96-7fd8-4785-84d7-684a3314fad9" points="39.11 19.23 39.11 19.23 39.11 19.23 39.11 19.23"/><polygon class="ab7b553a-4dc9-4d10-9eec-eaf8f0157b87" points="23.88 38.45 23.88 37.62 23.38 37.62 23.38 38.45 22.7 38.45 22.7 39.96 23.38 39.96 23.38 40.79 23.88 40.79 23.88 39.96 27.23 39.96 27.23 38.44 23.88 38.45"/><path class="ab7b553a-4dc9-4d10-9eec-eaf8f0157b87" d="M26.12,33.46V35h.2c.61,0,.75.41.75.63a.66.66,0,0,1-.75.64h-.69V33.37a2.27,2.27,0,0,0,0,4.48,2.08,2.08,0,0,0,1.88-2.24A2.21,2.21,0,0,0,26.12,33.46Zm-1,2.77a1.13,1.13,0,0,1-.65-.1.6.6,0,0,1-.31-.53h0a.6.6,0,0,1,.31-.53,1.22,1.22,0,0,1,.65-.1Z" transform="translate(-0.06 -0.03)"/><rect class="ab7b553a-4dc9-4d10-9eec-eaf8f0157b87" x="23.87" y="46.06" width="3.36" height="1.52"/><path class="ab7b553a-4dc9-4d10-9eec-eaf8f0157b87" d="M25.08,30h2.21V28.48H25.46a1.64,1.64,0,0,0-1.68,1.72h0a1.84,1.84,0,0,0,.5,1.21h-.35v1.5h3.36v-1.5H25.08a.7.7,0,0,1-.61-.72A.67.67,0,0,1,25.08,30Z" transform="translate(-0.06 -0.03)"/><path class="ab7b553a-4dc9-4d10-9eec-eaf8f0157b87" d="M24.78,14.57a5.39,5.39,0,0,0-5.37,5.69V52.42a5.37,5.37,0,1,0,10.73,0V20.26A5.38,5.38,0,0,0,24.78,14.57Zm4,37.83a4.06,4.06,0,1,1-8.09,0V20.27a4.06,4.06,0,1,1,8.09,0Z" transform="translate(-0.06 -0.03)"/><path class="ab7b553a-4dc9-4d10-9eec-eaf8f0157b87" d="M25.08,42.33h2.21V40.82H25.46a1.64,1.64,0,0,0-1.68,1.72h0a1.84,1.84,0,0,0,.5,1.21h-.35v1.5h3.36v-1.5H25.08a.7.7,0,0,1-.61-.72A.67.67,0,0,1,25.08,42.33Z" transform="translate(-0.06 -0.03)"/><rect class="ab7b553a-4dc9-4d10-9eec-eaf8f0157b87" x="22.18" y="46.06" width="1.03" height="1.52"/><polygon class="ab7b553a-4dc9-4d10-9eec-eaf8f0157b87" points="22.18 50.01 25.7 50.01 22.18 52.19 22.18 53.76 27.23 53.76 27.23 52.2 23.71 52.2 27.23 50.01 27.23 48.45 22.18 48.45 22.18 50.01"/></g></svg>