<svg id="b029640c-de9f-4b86-9065-67af52e066a5" data-name="Calque 1" xmlns="http://www.w3.org/2000/svg" xmlns:xlink="http://www.w3.org/1999/xlink" viewBox="0 0 470.58 67.66"><defs><style>.a85f440e-1b60-4eb9-80b7-d6c46e6375d8,.ae0798a9-16e4-4e35-a956-5446b5ab4052,.b5c7d0db-91c2-41ab-9a90-1a692ff5263b,.f6692726-4f05-4e34-a346-792666210a83{stroke:#9def48;stroke-miterlimit:10;}.ae0798a9-16e4-4e35-a956-5446b5ab4052{fill:url(#b3a62b56-f395-4363-9807-65157202515c);}.a85f440e-1b60-4eb9-80b7-d6c46e6375d8{fill:url(#bbf21d54-12a4-4d64-813b-6edea22594a4);}.f6692726-4f05-4e34-a346-792666210a83{fill:url(#e0cc605a-dbaa-40ea-b7fb-1744da350ccf);}.b5c7d0db-91c2-41ab-9a90-1a692ff5263b{fill:url(#f867cc1a-520d-47e7-bbcd-8cbd13443eed);}.f0d0382f-bf0b-48bb-ac50-6672fc987d1a{fill:#9def48;}</style><linearGradient id="b3a62b56-f395-4363-9807-65157202515c" x1="0.5" y1="33.47" x2="470.08" y2="33.47" gradientUnits="userSpaceOnUse"><stop offset="0" stop-color="#032c02"/><stop offset="1" stop-color="#207a09"/></linearGradient><linearGradient id="bbf21d54-12a4-4d64-813b-6edea22594a4" x1="0.5" y1="27.33" x2="470.08" y2="27.33" xlink:href="#b3a62b56-f395-4363-9807-65157202515c"/><linearGradient id="e0cc605a-dbaa-40ea-b7fb-1744da350ccf" x1="0.5" y1="29.37" x2="470.08" y2="29.37" xlink:href="#b3a62b56-f395-4363-9807-65157202515c"/><linearGradient id="f867cc1a-520d-47e7-bbcd-8cbd13443eed" x1="0.5" y1="33.83" x2="470.08" y2="33.83" xlink:href="#b3a62b56-f395-4363-9807-65157202515c"/></defs><path class="ae0798a9-16e4-4e35-a956-5446b5ab4052" d="M168.77,23.64A19.53,19.53,0,0,0,166,33.47a19.61,19.61,0,0,0,2.81,9.82h23.74a19.78,19.78,0,0,0,2.79-9.82,19.7,19.7,0,0,0-2.79-9.83Z" transform="translate(0 0)"/><path class="a85f440e-1b60-4eb9-80b7-d6c46e6375d8" d="M216.49,23.64A20.88,20.88,0,0,0,213.84,31h29a21,21,0,0,0-2.62-7.39Z" transform="translate(0 0)"/><polygon class="f6692726-4f05-4e34-a346-792666210a83" points="95.84 35.13 110.26 35.13 103.08 23.62 95.84 35.13"/><path class="b5c7d0db-91c2-41ab-9a90-1a692ff5263b" d="M461.78,6.24,158.35,6,150.43.5H108.7L102.57,6H.5v53.8L8,67.16H42.83l8.11-7.32H470.08V16.13ZM81.47,35.89H61.16a21.06,21.06,0,0,0,2.65,7.4h3.24v4.88H61.18a21.13,21.13,0,0,1-5-12.28H51.61V31h4.61a21.08,21.08,0,0,1,5-12.27h29.6L88,23.64H63.81A20.88,20.88,0,0,0,61.16,31H81.47Zm36.91,12.28L113.29,40H92.79l-5.15,8.18H81.55l18.68-29.41h5.62l18.54,29.41Zm23.11,0h-5.62L117.21,18.76h6.09l15.44,24.55L154,18.76h6Zm53.63,0h-29a21.81,21.81,0,0,1-5.06-14.7,21.79,21.79,0,0,1,5.06-14.71h29a21.79,21.79,0,0,1,5.06,14.71A21.81,21.81,0,0,1,195.12,48.17ZM247.8,35.89a21.13,21.13,0,0,1-5,12.28H237V43.29h3.26a21.18,21.18,0,0,0,2.62-7.4h-29a21.06,21.06,0,0,0,2.65,7.4h3.24v4.88h-5.87a21.2,21.2,0,0,1-5-12.28h-4.61V31h4.61a21.14,21.14,0,0,1,5-12.27h29a21.08,21.08,0,0,1,5,12.29l-2.11,1.19V34.7Zm11,12.28H254V22.93L258.84,18Zm40.19,0h-29a20.53,20.53,0,0,1-4.4-8.76h5.25a22.73,22.73,0,0,0,1.78,3.88h23.75a20.47,20.47,0,0,0,2.62-7.4H267.2L265,33.47a21.87,21.87,0,0,1,5.06-14.71h29a20.55,20.55,0,0,1,4.41,8.76h-5.25a21.86,21.86,0,0,0-1.76-3.88H272.68A20.88,20.88,0,0,0,270,31h31.85l2.22,2.44A21.79,21.79,0,0,1,299,48.17Z" transform="translate(0 0)"/><path class="f0d0382f-bf0b-48bb-ac50-6672fc987d1a" d="M63.81,23.64H88l2.81-4.88H61.18a21.08,21.08,0,0,0-5,12.27H51.61v4.86h4.61a21.13,21.13,0,0,0,5,12.28h5.87V43.29H63.81a21.06,21.06,0,0,1-2.65-7.4H81.47V31H61.16A20.88,20.88,0,0,1,63.81,23.64Z" transform="translate(0 0)"/><path class="f0d0382f-bf0b-48bb-ac50-6672fc987d1a" d="M100.23,18.76,81.55,48.17h6.09L92.79,40h20.5l5.09,8.18h6L105.85,18.76ZM95.84,35.13l7.24-11.51,7.18,11.51Z" transform="translate(0 0)"/><polygon class="f0d0382f-bf0b-48bb-ac50-6672fc987d1a" points="138.74 43.31 123.3 18.76 117.21 18.76 135.87 48.17 141.49 48.17 160.05 18.76 154.04 18.76 138.74 43.31"/><path class="f0d0382f-bf0b-48bb-ac50-6672fc987d1a" d="M166.14,18.76a21.79,21.79,0,0,0-5.06,14.71,21.81,21.81,0,0,0,5.06,14.7h29a21.81,21.81,0,0,0,5.06-14.7,21.79,21.79,0,0,0-5.06-14.71Zm26.37,24.53H168.77A19.61,19.61,0,0,1,166,33.47a19.53,19.53,0,0,1,2.81-9.83h23.74a19.7,19.7,0,0,1,2.79,9.83A19.78,19.78,0,0,1,192.51,43.29Z" transform="translate(0 0)"/><path class="f0d0382f-bf0b-48bb-ac50-6672fc987d1a" d="M247.8,31.05a21.08,21.08,0,0,0-5-12.29h-29a21.14,21.14,0,0,0-5,12.27h-4.61v4.86h4.61a21.2,21.2,0,0,0,5,12.28h5.87V43.29h-3.24a21.06,21.06,0,0,1-2.65-7.4h29a21.18,21.18,0,0,1-2.62,7.4H237v4.88h5.86a21.13,21.13,0,0,0,5-12.28l-2.11-1.19V32.24Zm-34,0a20.88,20.88,0,0,1,2.65-7.39h23.75A21,21,0,0,1,242.86,31Z" transform="translate(0 0)"/><polygon class="f0d0382f-bf0b-48bb-ac50-6672fc987d1a" points="253.96 48.17 258.84 48.17 258.84 18.04 253.96 22.93 253.96 48.17"/><path class="f0d0382f-bf0b-48bb-ac50-6672fc987d1a" d="M270,31a20.88,20.88,0,0,1,2.65-7.39h23.75a21.86,21.86,0,0,1,1.76,3.88h5.25A20.55,20.55,0,0,0,299,18.76h-29A21.87,21.87,0,0,0,265,33.47l2.21,2.42h31.85a20.47,20.47,0,0,1-2.62,7.4H272.68a22.73,22.73,0,0,1-1.78-3.88h-5.25a20.53,20.53,0,0,0,4.4,8.76h29a21.79,21.79,0,0,0,5.07-14.7L301.88,31Z" transform="translate(0 0)"/></svg>