<svg id="bd3d3a32-bb00-4279-8600-578f9c82f9c6" data-name="texte" xmlns="http://www.w3.org/2000/svg" xmlns:xlink="http://www.w3.org/1999/xlink" viewBox="0 0 470.33 67.41"><defs><style>.a6b7a196-f323-46c1-9a9c-02983a5b6313{stroke:#9def48;stroke-miterlimit:10;stroke-width:0.75px;fill:url(#e27184d1-60e0-4864-9727-4cf9ffb4b733);}.a99438a6-6780-4bb9-837b-003f41090a2a{fill:#9def48;}</style><linearGradient id="e27184d1-60e0-4864-9727-4cf9ffb4b733" x1="0.38" y1="33.7" x2="469.96" y2="33.7" gradientUnits="userSpaceOnUse"><stop offset="0" stop-color="#032c02"/><stop offset="1" stop-color="#207a09"/></linearGradient></defs><polygon class="a6b7a196-f323-46c1-9a9c-02983a5b6313" points="0.38 5.91 102.44 5.91 108.57 0.38 150.31 0.38 158.22 5.91 461.65 6.11 469.96 16 469.96 59.72 50.81 59.72 42.7 67.03 7.89 67.03 0.38 59.72 0.38 5.91"/><path class="a99438a6-6780-4bb9-837b-003f41090a2a" d="M53.06,22.94H75.44a15,15,0,0,1,3.49,10.15,15.06,15.06,0,0,1-3.49,10.15H53.06Zm3.37,16.94H73.64a13.72,13.72,0,0,0,1.92-6.79,13.62,13.62,0,0,0-1.92-6.78H56.43Z" transform="translate(-0.06 -0.03)"/><path class="a99438a6-6780-4bb9-837b-003f41090a2a" d="M87.08,39.88h16.39a13.57,13.57,0,0,0,1.93-6.79,13.59,13.59,0,0,0-1.93-6.78h-2.25V22.94h4a15.09,15.09,0,0,1,3.5,10.15,15,15,0,0,1-3.5,10.15h-20a15,15,0,0,1-3.49-10.15,15.08,15.08,0,0,1,3.49-10.15h4v3.37H87.08a13.51,13.51,0,0,0-1.94,6.78A13.49,13.49,0,0,0,87.08,39.88Z" transform="translate(-0.06 -0.03)"/><path class="a99438a6-6780-4bb9-837b-003f41090a2a" d="M116.91,26.31A13.55,13.55,0,0,0,115,33.09a13.64,13.64,0,0,0,1.94,6.79h2.24v3.36H115.1a15.07,15.07,0,0,1-3.5-10.15,15.05,15.05,0,0,1,3.5-10.15h20a15.05,15.05,0,0,1,3.5,10.15,15.07,15.07,0,0,1-3.5,10.15h-4.05V39.88h2.25a13.73,13.73,0,0,0,1.93-6.79,13.64,13.64,0,0,0-1.93-6.78Z" transform="translate(-0.06 -0.03)"/><path class="a99438a6-6780-4bb9-837b-003f41090a2a" d="M168.37,31.41c0,.54.07,1.11.07,1.68a15,15,0,0,1-3.5,10.15h-20a15,15,0,0,1-3.5-10.15,15,15,0,0,1,3.5-10.15h20A14.13,14.13,0,0,1,168,29h-3.63a15,15,0,0,0-1.21-2.67h-16.4a13.45,13.45,0,0,0-1.94,6.78,13.54,13.54,0,0,0,1.94,6.79h16.4A14.87,14.87,0,0,0,165,34.76H152.72V31.41Z" transform="translate(-0.06 -0.03)"/><path class="a99438a6-6780-4bb9-837b-003f41090a2a" d="M191.89,34.76h-14a14.72,14.72,0,0,0,1.83,5.12h16.68l1.94,3.36H177.89a14.51,14.51,0,0,1-3.43-8.48h-3.19V31.41h3.19a14.46,14.46,0,0,1,3.43-8.47h20.43l-1.94,3.37H179.7a14.55,14.55,0,0,0-1.83,5.1h14Z" transform="translate(-0.06 -0.03)"/><path class="a99438a6-6780-4bb9-837b-003f41090a2a" d="M223.24,43.24h-20a15.06,15.06,0,0,1-3.49-10.15,15,15,0,0,1,3.49-10.15h20a15.05,15.05,0,0,1,3.5,10.15A15.07,15.07,0,0,1,223.24,43.24Zm-1.8-3.36a13.63,13.63,0,0,0,1.93-6.79,13.54,13.54,0,0,0-1.93-6.78H205.05a13.45,13.45,0,0,0-1.94,6.78,13.54,13.54,0,0,0,1.94,6.79Z" transform="translate(-0.06 -0.03)"/><path class="a99438a6-6780-4bb9-837b-003f41090a2a" d="M234.88,26.31a13.55,13.55,0,0,0-1.94,6.78,13.64,13.64,0,0,0,1.94,6.79h2.24v3.36h-4.05a15.07,15.07,0,0,1-3.5-10.15,15.05,15.05,0,0,1,3.5-10.15h20a15.05,15.05,0,0,1,3.5,10.15,15.07,15.07,0,0,1-3.5,10.15H249V39.88h2.25a13.72,13.72,0,0,0,1.92-6.79,13.62,13.62,0,0,0-1.92-6.78Z" transform="translate(-0.06 -0.03)"/><path class="a99438a6-6780-4bb9-837b-003f41090a2a" d="M290.83,37.2h3.62a14.17,14.17,0,0,1-3,6h-20a15.07,15.07,0,0,1-3.5-10.15,15.09,15.09,0,0,1,3.5-10.15h20a14.23,14.23,0,0,1,3,6h-3.62a15.07,15.07,0,0,0-1.22-2.67h-16.4a13.55,13.55,0,0,0-1.94,6.78,13.64,13.64,0,0,0,1.94,6.79h16.4A15.48,15.48,0,0,0,290.83,37.2Z" transform="translate(-0.06 -0.03)"/><path class="a99438a6-6780-4bb9-837b-003f41090a2a" d="M318.44,39.88h2.25a14.66,14.66,0,0,0,1.81-5.12h-20a14.49,14.49,0,0,0,1.82,5.12h2.24v3.36h-4a14.64,14.64,0,0,1-3.43-8.48h-3.18V31.41h3.18a14.59,14.59,0,0,1,3.43-8.47h20a14.62,14.62,0,0,1,3.43,8.48l-1.46.82v1.7l1.46.82a14.64,14.64,0,0,1-3.43,8.48h-4.05Zm-16-8.47h20a14.5,14.5,0,0,0-1.81-5.1h-16.4A14.33,14.33,0,0,0,302.47,31.41Z" transform="translate(-0.06 -0.03)"/><path class="a99438a6-6780-4bb9-837b-003f41090a2a" d="M334.38,37.59l-3.55,5.65h-4.21l12.9-20.3h3.89l12.8,20.3h-4.15l-3.52-5.65Zm12.07-3.35-5-7.94-5,7.94Z" transform="translate(-0.06 -0.03)"/><path class="a99438a6-6780-4bb9-837b-003f41090a2a" d="M368.74,39.88v-12h3.35v12h6.53a13.67,13.67,0,0,0,1.93-6.79,13.7,13.7,0,0,0-1.93-6.78h-2.25V22.94h4.05a15.09,15.09,0,0,1,3.5,10.15,15,15,0,0,1-3.5,10.15h-8.33v3.19h-3.35V43.24h-8.33a15,15,0,0,1-3.5-10.15,15.09,15.09,0,0,1,3.5-10.15h4v3.37h-2.24a13.61,13.61,0,0,0-1.94,6.78,13.59,13.59,0,0,0,1.94,6.79Z" transform="translate(-0.06 -0.03)"/><path class="a99438a6-6780-4bb9-837b-003f41090a2a" d="M390.83,39.88h15.26L408,43.24H387.46V25.81l3.37-3.37Z" transform="translate(-0.06 -0.03)"/><path class="a99438a6-6780-4bb9-837b-003f41090a2a" d="M427.23,34.76h-14A14.72,14.72,0,0,0,415,39.88h16.68l1.94,3.36H413.23a14.58,14.58,0,0,1-3.43-8.48h-3.18V31.41h3.18a14.52,14.52,0,0,1,3.43-8.47h20.43l-1.94,3.37H415a14.55,14.55,0,0,0-1.83,5.1h14Z" transform="translate(-0.06 -0.03)"/><path class="a99438a6-6780-4bb9-837b-003f41090a2a" d="M455.52,39.88h2.26a14.87,14.87,0,0,0,1.81-5.12h-20a14.72,14.72,0,0,0,1.83,5.12h2.24v3.36h-4.05a14.51,14.51,0,0,1-3.43-8.48H433V31.41h3.19a14.46,14.46,0,0,1,3.43-8.47h20A14.49,14.49,0,0,1,463,31.42l-1.46.82v1.7l1.46.82a14.51,14.51,0,0,1-3.43,8.48h-4.05Zm-16-8.47h20a14.7,14.7,0,0,0-1.81-5.1h-16.4A14.55,14.55,0,0,0,439.55,31.41Z" transform="translate(-0.06 -0.03)"/></svg>