<svg id="a1bc118c-a042-40ae-905f-28d40417d6c5" data-name="texte" xmlns="http://www.w3.org/2000/svg" xmlns:xlink="http://www.w3.org/1999/xlink" viewBox="0 0 470.33 67.41"><defs><style>.bf6b8ade-eb54-484d-89ea-ad5573686e2c{stroke:#9def48;stroke-miterlimit:10;stroke-width:0.75px;fill:url(#aa03392a-9b3d-4ecf-b83f-c364b7b807c5);}.b63c27a1-fbce-4438-9cdb-84dd276c8e9b{fill:#9def48;}</style><linearGradient id="aa03392a-9b3d-4ecf-b83f-c364b7b807c5" x1="0.38" y1="33.7" x2="469.96" y2="33.7" gradientUnits="userSpaceOnUse"><stop offset="0" stop-color="#032c02"/><stop offset="1" stop-color="#207a09"/></linearGradient></defs><polygon class="bf6b8ade-eb54-484d-89ea-ad5573686e2c" points="0.38 5.91 102.44 5.91 108.57 0.38 150.31 0.38 158.22 5.91 461.65 6.11 469.96 16 469.96 59.72 50.81 59.72 42.7 67.03 7.89 67.03 0.38 59.72 0.38 5.91"/><path class="b63c27a1-fbce-4438-9cdb-84dd276c8e9b" d="M82.69,30.63l1.84,2a18.12,18.12,0,0,1-4.22,12.25H56.16a17.08,17.08,0,0,1-3.67-7.29h4.38a19,19,0,0,0,1.48,3.23H78.14a17.17,17.17,0,0,0,2.19-6.17H53.79l-1.85-2a18.2,18.2,0,0,1,4.22-12.25H80.31A17.09,17.09,0,0,1,84,27.7H79.61a17.47,17.47,0,0,0-1.47-3.23H58.35a17.35,17.35,0,0,0-2.2,6.16Z" transform="translate(-0.06 -0.03)"/><path class="b63c27a1-fbce-4438-9cdb-84dd276c8e9b" d="M122.46,34.68H95.92a17.53,17.53,0,0,0,2.2,6.17h2.7v4.06H95.93A17.64,17.64,0,0,1,91.8,34.68H88V30.63H91.8a17.56,17.56,0,0,1,4.13-10.22h24.15a18.17,18.17,0,0,1,4.22,12.25ZM95.92,30.63H120.1a17.72,17.72,0,0,0-2.19-6.16H98.12A17.35,17.35,0,0,0,95.92,30.63Z" transform="translate(-0.06 -0.03)"/><path class="b63c27a1-fbce-4438-9cdb-84dd276c8e9b" d="M152.52,34.68H135.6a17.53,17.53,0,0,0,2.2,6.17h20.13l2.35,4.06H135.62a17.59,17.59,0,0,1-4.14-10.23h-3.85V30.63h3.85a17.51,17.51,0,0,1,4.14-10.22h24.66l-2.35,4.06H137.8a17.35,17.35,0,0,0-2.2,6.16h16.92Z" transform="translate(-0.06 -0.03)"/><path class="b63c27a1-fbce-4438-9cdb-84dd276c8e9b" d="M189.65,37.62H194a17.09,17.09,0,0,1-3.68,7.29H166.21A18.15,18.15,0,0,1,162,32.66a18.15,18.15,0,0,1,4.22-12.25h24.14A17.09,17.09,0,0,1,194,27.7h-4.38a17.47,17.47,0,0,0-1.47-3.23H168.39a16.35,16.35,0,0,0-2.34,8.19,16.44,16.44,0,0,0,2.34,8.19h19.79A18.41,18.41,0,0,0,189.65,37.62Z" transform="translate(-0.06 -0.03)"/><path class="b63c27a1-fbce-4438-9cdb-84dd276c8e9b" d="M214,41.44l-4.07,4.07v-21h-13.3V20.41h30.66v4.06H214Z" transform="translate(-0.06 -0.03)"/><path class="b63c27a1-fbce-4438-9cdb-84dd276c8e9b" d="M254.92,40.85h2.72a17.91,17.91,0,0,0,2.19-6.17H235.64a17.56,17.56,0,0,0,2.21,6.17h2.7v4.06h-4.89a17.65,17.65,0,0,1-4.14-10.23h-3.84V30.63h3.84a17.57,17.57,0,0,1,4.14-10.22h24.15a17.56,17.56,0,0,1,4.13,10.23l-1.76,1v2.05l1.76,1a17.64,17.64,0,0,1-4.13,10.23h-4.89ZM235.64,30.63h24.19a17.72,17.72,0,0,0-2.19-6.16H237.85A17.37,17.37,0,0,0,235.64,30.63Z" transform="translate(-0.06 -0.03)"/><path class="b63c27a1-fbce-4438-9cdb-84dd276c8e9b" d="M274.16,38.09l-4.29,6.82H264.8l15.57-24.5h4.68l15.45,24.5h-5l-4.24-6.82ZM288.72,34l-6-9.58-6,9.58Z" transform="translate(-0.06 -0.03)"/><path class="b63c27a1-fbce-4438-9cdb-84dd276c8e9b" d="M330.22,20.41l-15.47,24.5h-4.68l-15.55-24.5h5.07l12.87,20.45,12.75-20.45Z" transform="translate(-0.06 -0.03)"/><path class="b63c27a1-fbce-4438-9cdb-84dd276c8e9b" d="M337.7,44.91h-4.06v-21l4.06-4.07Z" transform="translate(-0.06 -0.03)"/><path class="b63c27a1-fbce-4438-9cdb-84dd276c8e9b" d="M343.68,20.41h27a18.17,18.17,0,0,1,4.22,12.25,18.2,18.2,0,0,1-4.22,12.25h-27Zm4.07,20.44h20.77a16.51,16.51,0,0,0,2.32-8.19,16.43,16.43,0,0,0-2.32-8.19H347.75Z" transform="translate(-0.06 -0.03)"/><path class="b63c27a1-fbce-4438-9cdb-84dd276c8e9b" d="M403.21,34.68H386.29a17.53,17.53,0,0,0,2.2,6.17h20.14L411,44.91H386.31a17.59,17.59,0,0,1-4.14-10.23h-3.84V30.63h3.84a17.51,17.51,0,0,1,4.14-10.22H411l-2.34,4.06H388.49a17.35,17.35,0,0,0-2.2,6.16h16.92Z" transform="translate(-0.06 -0.03)"/><path class="b63c27a1-fbce-4438-9cdb-84dd276c8e9b" d="M441.05,44.91H416.9a18.15,18.15,0,0,1-4.22-12.25,18.12,18.12,0,0,1,4.22-12.25h24.15a18.17,18.17,0,0,1,4.22,12.25A18.2,18.2,0,0,1,441.05,44.91Zm-2.17-4.06a16.61,16.61,0,0,0,2.32-8.19,16.53,16.53,0,0,0-2.32-8.19h-19.8a16.35,16.35,0,0,0-2.34,8.19,16.44,16.44,0,0,0,2.34,8.19Z" transform="translate(-0.06 -0.03)"/></svg>