<svg enable-background="new 0 0 227.578 114.541" viewBox="0 0 227.578 114.541" xmlns="http://www.w3.org/2000/svg" xmlns:xlink="http://www.w3.org/1999/xlink"><linearGradient id="a" gradientUnits="userSpaceOnUse" x1="206.8531" x2="206.8531" y1="7.3249" y2=".7919"><stop offset="0" stop-color="#a42f21"/><stop offset=".0646" stop-color="#ab392b"/><stop offset=".1703" stop-color="#b34335"/><stop offset=".3021" stop-color="#b84a3c"/><stop offset=".4869" stop-color="#bb4e40"/><stop offset="1" stop-color="#bc4f41"/></linearGradient><linearGradient id="b" gradientUnits="userSpaceOnUse" x1="119.6048" x2="119.6048" y1="29.8118" y2="3.6242"><stop offset=".00000020541" stop-color="#b96046"/><stop offset=".5" stop-color="#bc4f41"/><stop offset=".5548" stop-color="#bc4f41"/><stop offset=".888" stop-color="#bc4f41"/><stop offset="1" stop-color="#a42f21"/></linearGradient><linearGradient id="c" gradientUnits="userSpaceOnUse" x1="27.7671" x2="27.7671" y1="3.6242" y2="0"><stop offset=".00000020541" stop-color="#a42f21"/><stop offset=".0646" stop-color="#ab392b"/><stop offset=".1703" stop-color="#b34335"/><stop offset=".3021" stop-color="#b84a3c"/><stop offset=".4869" stop-color="#bb4e40"/><stop offset="1" stop-color="#bc4f41"/></linearGradient><linearGradient id="d"><stop offset="0" stop-color="#aea9af"/><stop offset="1" stop-color="#c0bac0"/></linearGradient><linearGradient id="e" gradientUnits="userSpaceOnUse" x1="95.3723" x2="97.3603" xlink:href="#d" y1="12.4516" y2="11.3945"/><linearGradient id="f" gradientUnits="userSpaceOnUse" x1="92.8323" x2="94.8204" xlink:href="#d" y1="12.4658" y2="11.4087"/><linearGradient id="g" gradientUnits="userSpaceOnUse" x1="90.2924" x2="92.2804" xlink:href="#d" y1="12.48" y2="11.423"/><linearGradient id="h" gradientUnits="userSpaceOnUse" x1="87.7524" x2="89.7405" xlink:href="#d" y1="12.4943" y2="11.4372"/><linearGradient id="i" gradientUnits="userSpaceOnUse" x1="85.2125" x2="87.2005" xlink:href="#d" y1="12.5085" y2="11.4514"/><linearGradient id="j" gradientUnits="userSpaceOnUse" x1="82.6725" x2="84.6606" xlink:href="#d" y1="12.5227" y2="11.4656"/><linearGradient id="k" gradientUnits="userSpaceOnUse" x1="80.1326" x2="82.1207" xlink:href="#d" y1="12.5369" y2="11.4799"/><linearGradient id="l" gradientUnits="userSpaceOnUse" x1="77.5927" x2="79.5807" xlink:href="#d" y1="12.5512" y2="11.4941"/><linearGradient id="m" gradientUnits="userSpaceOnUse" x1="75.0527" x2="77.0408" xlink:href="#d" y1="12.5654" y2="11.5083"/><linearGradient id="n" gradientUnits="userSpaceOnUse" x1="72.5141" x2="74.4997" xlink:href="#d" y1="12.5793" y2="11.5231"/><linearGradient id="o" gradientUnits="userSpaceOnUse" x1="78.5892" x2="78.5892" y1="39.5588" y2="10.02"><stop offset="0" stop-color="#cfcacf"/><stop offset=".7034" stop-color="#cec8ce"/><stop offset=".74" stop-color="#c7c2c7"/><stop offset=".8088" stop-color="#c1bcc0"/><stop offset="1" stop-color="#c0babf"/></linearGradient><linearGradient id="p" gradientUnits="userSpaceOnUse" x1="110.1283" x2="110.1283" y1="39.5588" y2="33.5878"><stop offset="0" stop-color="#c0babd"/><stop offset="1" stop-color="#cec9ce"/></linearGradient><linearGradient id="q"><stop offset="0" stop-color="#c1bbc1"/><stop offset="1" stop-color="#827e80"/></linearGradient><linearGradient id="r" gradientUnits="userSpaceOnUse" x1="18.1209" x2="22.393" xlink:href="#q" y1="13.5715" y2="17.8436"/><linearGradient id="s" gradientUnits="userSpaceOnUse" x1="66.7914" x2="71.0635" xlink:href="#q" y1="16.0049" y2="20.277"/><linearGradient id="t" gradientUnits="userSpaceOnUse" x1="137.8027" x2="142.0748" y1="21.0089" y2="25.281"><stop offset=".00000020541" stop-color="#c1bbc1"/><stop offset="1" stop-color="#827e80"/></linearGradient><linearGradient id="u" gradientUnits="userSpaceOnUse" x1="184.3587" x2="184.3587" y1="27.9466" y2="23.9992"><stop offset="0" stop-color="#bc4f41"/><stop offset=".4158" stop-color="#bc5345"/><stop offset=".9495" stop-color="#ba5e51"/><stop offset="1" stop-color="#ba5f52"/></linearGradient><path d="m215.51 3.113-3.671-2.208c-.216-.13-.48-.149-.712-.052l-15.526 6.472h22.311c.134 0 .298-.31.106-.588l-1.807-2.932c-.175-.283-.415-.52-.701-.692z" fill="url(#a)"/><path d="m69.444 29.812h-52.562c-.04.28-.085.892.219 1.547.053.114.248.513.672.891.82.732 1.869.825 2.781.906.298.027.505.029.594.031 1.707.048 3.492 1.438 4.25 2.047 2.579 2.072 3.868 3.108 4.875 4.594.736 1.085 2.232 3.353 2.484 6.672.067.88.145 3.136-.875 5.688-.942 2.357-2.332 3.746-3.812 5.25-.449.456-6.645 6.758-9.958 10.542-2.921 3.336-4.844 6.133-5.458 7.042-3.254 4.812-5.055 8.857-6.418 11.956-1.716 3.904-4.175 9.507-5.401 16.13-.698 3.769-.797 6.578-.828 7.016-.025.353.025.697.047.844.017.117.036.208.078.313.115.283.315.449.359.484.272.218.471.219.546.368.043.086.059.292-.197.307-.3.038-.672.12-.752.442-.204.82.525 1.208 1.606 1.43 1.304.268 6.861.33 14.469.031.515-.02 1.032-.1 1.529-.235l23.814-6.484c.9-.23 1.604-.784 1.618-1.306.002-.072.013-.514-.25-.75-.073-.065-.217-.16-.292-.208-.127-.083-.236-.145-.313-.188-.028-.009-.133-.083-.163-.142-.043-.086.009-.185.035-.235.067-.127.132-.119.212-.224.147-.192.107-.451.094-.518-.026-.133-.086-.224-.098-.243-.166-.261-.568-1.617-.594-2.969-.037-1.953.718-3.547 1-4.094l31.938-57.938z" fill="#c74f42"/><path d="m65.051 56.305h15.648c.724 0 1.217-.73.942-1.4-.298-.724-.617-1.564-.884-2.375-.514-1.556-1.374-4.233-1.375-7.75 0-1.304.082-3.392.621-5.56l-3.931.333c-.55.047-1.077-.227-1.355-.704 0 0-.022-.038-.022-.038z" fill="#181913"/><path d="m11.632 10.02 5.25 19.792 199.306-2.792c.546-.008 1.045-.31 1.304-.791l1.202-2.23h8.312c.175-.038.286-.109.354-.167 1.052-.896-1.862-8.179-5.917-13.146-1.221-1.496-2.344-2.608-3.056-3.276-.062-.058-.14-.086-.225-.086h-147.677l-6.375-3.606c-.11-.062-.233-.095-.359-.095h-41.932z" fill="url(#b)"/><path d="m33.715 3.624-5.625-3.531c-.197-.124-.448-.124-.646 0l-5.625 3.531z" fill="url(#c)"/><circle cx="211.882" cy="4.28" fill="#c24f48" r="2.641"/><path d="m212.538 4.28c0 .362-.294.656-.656.656s-.656-.294-.656-.656.294-.656.656-.656.656.294.656.656z" fill="#a54e48"/><path d="m91.938 5.993 1.832-.974c.085-.045.19-.014.235.07l6.79 12.765-2.54.014z" fill="url(#e)"/><path d="m89.398 6.007 1.832-.974c.085-.045.19-.014.235.07l6.79 12.765-2.54.014z" fill="url(#f)"/><path d="m86.858 6.021 1.832-.974c.085-.045.19-.014.235.07l6.79 12.765-2.54.014z" fill="url(#g)"/><path d="m84.318 6.036 1.832-.974c.085-.045.19-.014.235.07l6.79 12.765-2.54.014z" fill="url(#h)"/><path d="m81.778 6.05 1.832-.974c.085-.045.19-.014.235.07l6.79 12.765-2.54.014z" fill="url(#i)"/><path d="m79.238 6.064 1.832-.974c.085-.045.19-.014.235.07l6.79 12.765-2.54.014z" fill="url(#j)"/><path d="m76.699 6.078 1.832-.974c.085-.045.19-.014.235.07l6.79 12.765-2.54.014z" fill="url(#k)"/><path d="m74.159 6.093 1.832-.974c.085-.045.19-.014.235.07l6.79 12.765-2.54.014z" fill="url(#l)"/><path d="m71.619 6.107 1.832-.974c.085-.045.19-.014.235.07l6.79 12.765-2.54.014z" fill="url(#m)"/><path d="m69.079 6.121 1.832-.974c.085-.045.19-.014.235.07l6.79 12.765-2.54.014z" fill="url(#n)"/><path d="m.466 111.744c1.304.268 8.09.57 15.697.272.515-.02 1.032-.1 1.529-.235l23.26-6.481c.442-.17 1.175-.601 1.467-.84-.016.039-.037.077-.064.112-.08.104-.145.097-.212.224-.027.051-.079.149-.035.235.03.059.136.133.163.142.02.011.042.023.066.037-.292.239-.943.598-1.385.769l-23.26 6.481c-.497.135-1.014.215-1.529.235-7.607.298-15.497-.241-15.397-.245.025-.004.049-.007.073-.01.256-.015.24-.221.197-.307-.075-.149-.273-.149-.546-.368" fill="#b24b3f"/><path d="m3.194 108.616c-.173.012-1.312.074-2.036-.623-.229-.22-.317-.468-.317-.71.594-4.435 1.843-10.607 5.145-17.428 4.647-9.6 10.612-15.56 14-18.333 3.745-3.066 9.277-7.088 16.021-10.958l20.863-12.523c2.828-1.697 6.056 1.492 4.394 4.34l-30.078 51.531c-.367.629-.97 1.085-1.674 1.268l-12.552 3.254c-.48.124-.973.187-1.468.187h-12.298" fill="#b24b3f"/><path d="m13.4 78.872c.495-.618 1.007-1.23 1.529-1.826h31.459l-1.065 1.826z" fill="#c74f42"/><path d="m7.257 88.352c.323-.625.65-1.235.982-1.825h32.615l-1.066 1.825z" fill="#c74f42"/><path d="m11.054 82.032c.431-.623.872-1.235 1.315-1.826h32.174l-1.065 1.826z" fill="#c74f42"/><path d="m9.021 85.192c.375-.628.754-1.239 1.136-1.826h32.542l-1.066 1.826z" fill="#c74f42"/><path d="m5.737 91.512c.24-.546.487-1.096.756-1.653l.087-.172h32.43l-1.065 1.825z" fill="#c74f42"/><path d="m48.419 53.59 3.043-1.826h9.562c-.068.255-.17.5-.306.731l-.638 1.095z" fill="#c74f42"/><path d="m1.883 104.153c.106-.589.226-1.197.359-1.826h29.389l-.691 1.184c-.143.244-.326.46-.546.642z" fill="#c74f42"/><path d="m4.452 94.673c.222-.601.46-1.209.714-1.826h32l-1.066 1.826z" fill="#c74f42"/><path d="m3.4 97.833c.181-.598.376-1.207.587-1.826h31.334l-1.066 1.826z" fill="#c74f42"/><path d="m2.537 100.993c.143-.594.302-1.204.472-1.826h30.467l-1.066 1.826z" fill="#c74f42"/><path d="m43.153 56.75 3.043-1.826h13.105l-1.066 1.826z" fill="#c74f42"/><path d="m37.887 59.91 3.043-1.825h16.526l-1.066 1.825z" fill="#c74f42"/><path d="m53.685 50.429 3.075-1.845c.474-.285.974-.429 1.485-.429 1.314 0 2.511.994 2.806 2.273h-7.366z" fill="#c74f42"/><path d="m3.759 108.033v-.02s-.398.02-.487.02c-.392 0-1.124-.071-1.616-.544-.152-.147-.227-.31-.227-.499.063-.458.138-.969.222-1.502h24.517l-9.137 2.369c-.452.117-.917.176-1.383.176z" fill="#c74f42"/><path d="m16.134 75.712c.59-.628 1.196-1.241 1.808-1.826h30.292l-1.066 1.826z" fill="#c74f42"/><path d="m32.607 63.07c1.009-.624 2.031-1.236 3.048-1.826h19.956l-1.065 1.826z" fill="#c74f42"/><path d="m19.398 72.551c.31-.271.604-.52.881-.746.425-.348.875-.708 1.345-1.079h28.454l-1.066 1.825z" fill="#c74f42"/><path d="m23.361 69.391c.799-.603 1.633-1.215 2.488-1.825h26.073l-1.065 1.825z" fill="#c74f42"/><path d="m27.75 66.231c.855-.583 1.776-1.195 2.751-1.826h23.266l-1.065 1.826z" fill="#c74f42"/><path d="m69.858 30.521 4.859 8.329c.278.477.806.751 1.355.704l70.365-5.966c.496-.042.935-.339 1.158-.785l6.876-13.753c.275-.55-.125-1.197-.74-1.197h-78.196c-.133 0-.255-.073-.317-.19l-3.87-7.276c-.12-.226-.355-.367-.611-.367h-64.551c-.617 0-1.164.396-1.357.981l-2.138 6.481c-.13.394-.082.825.131 1.181l6.248 10.453c.258.432.724.696 1.227.696h58.327c.508 0 .978.27 1.234.709z" fill="url(#o)"/><path d="m73.82 37.312.897 1.538c.278.477.806.751 1.355.704l70.365-5.966z" fill="url(#p)"/><g fill="#a3362a" transform="translate(0 33.072917)"><path d="m22.569-9.676h-.985l.001-3.18h.99l1.371 2.218-.001-2.218h.983v3.18h-.981l-1.378-2.217z"/><path d="m31.231-9.676h-.958v-2.11h-.52v-.314h.521l-.001-.429h.957v.428h.518v.315h-.518z"/><path d="m26.432-9.676h-.956v-2.115l.956.001z"/><path d="m26.432-12.206h-.959v-.65h.959z"/><path d="m42.617-10.75v.448c0 .337-.199.476-.391.476s-.392-.139-.392-.476c0-.128 0-.456 0-.456s.001-.313.001-.441c0-.336.2-.474.391-.474s.391.138.391.474c0 .128 0 .365.001.45zm-.384-1.185c-.772 0-1.398.532-1.398 1.187s.626 1.187 1.398 1.187 1.398-.532 1.398-1.187-.626-1.187-1.398-1.187z"/><path d="m39.581-12.856h.944v3.18h-.945s0-.103 0-.122c-.366.23-.779.229-1.1.079-.086-.04-.654-.312-.654-1.048 0-.558.527-1.168 1.216-1.107.227.02.388.103.541.189-.003-.49-.003-1.171-.002-1.171zm.006 2.112s0-.265 0-.378c0-.327-.226-.41-.374-.41-.152 0-.375.083-.375.41v.377s0 .264 0 .376c0 .327.223.412.375.412.149 0 .375-.086.375-.412 0-.135-.001-.375-.001-.375z"/><path d="m28.671-11.888c.358-.01 1.083.224 1.078 1.061-.001.149 0 1.151 0 1.151h-.95s0-1.257 0-1.389c0-.184-.176-.389-.437-.389-.26 0-.454.205-.454.389 0 .09.001 1.389.001 1.389h-.949v-2.114l.95-.001s-.001.17 0 .222c.181-.175.444-.31.761-.319z"/><path d="m36.442-11.888c.358-.01 1.083.224 1.078 1.061-.001.149 0 1.151 0 1.151h-.95s0-1.257 0-1.389c0-.184-.176-.389-.437-.389-.26 0-.454.205-.454.389 0 .09.001 1.389.001 1.389h-.95l.001-2.114.949-.001s-.001.17 0 .222c.182-.175.446-.31.762-.319z"/><path d="m32.638-11.053c-.001-.185.003-.309.063-.415.075-.13.212-.192.336-.193.125.001.262.063.336.193.061.106.063.23.062.415zm.795.637s.001.009.001.128c0 .387-.255.473-.396.473s-.4-.086-.4-.473c0-.116.001-.437.001-.437s1.801.001 1.801 0c0-.656-.633-1.199-1.411-1.199s-1.408.532-1.408 1.187.63 1.187 1.408 1.187c.645 0 1.19-.368 1.357-.867z"/><path d="m44.886-12.947c.27 0 .404.091.404.272 0 .124-.077.218-.206.251l.211.422h-.256l-.181-.387h-.112v.387h-.23v-.945zm-.021-.37c-.471 0-.853.382-.853.853s.382.853.853.853.853-.382.853-.853-.382-.853-.853-.853zm.69.854c0 .381-.309.69-.69.69s-.69-.309-.69-.69.309-.69.69-.69.69.309.69.69zm-.809-.065h.112c.131 0 .195-.04.195-.134 0-.098-.068-.141-.206-.141h-.101z"/></g><path d="m13.345 21.831c.008.007.012.017.012.027v1.492c0 .027-.015.04-.043.04h-.554c-.012 0-.021-.003-.03-.011-.009-.007-.013-.017-.013-.029v-1.02l-.312.104c-.013 0-.023-.004-.032-.012-.008-.008-.012-.018-.012-.028v-.43c0-.011 0-.029.043-.04l.312-.104h.598c.012 0 .023.003.031.011z" fill="#a3362a"/><path d="m14.433 22.854c-.143 0-.259-.001-.349-.003-.089-.002-.162-.007-.219-.015-.061-.009-.112-.021-.156-.037-.043-.016-.083-.035-.119-.059-.038-.029-.068-.076-.091-.141-.023-.064-.035-.147-.035-.247 0-.103.009-.184.028-.245s.05-.11.093-.149c.038-.033.079-.06.124-.079s.095-.032.152-.039c.055-.009.126-.015.214-.017s.204-.003.346-.003c.074 0 .139 0 .196.001.057 0 .107.002.15.004s.081.004.114.008c.032.003.061.008.085.013h-.002c.03.005.058.011.082.018.023.006.047.015.069.024s.044.021.066.034c.021.013.045.028.071.046.023.017.043.039.061.065s.032.055.043.086.021.063.027.097c.006.033.009.066.009.098v.558c0 .1-.014.183-.043.249s-.071.119-.127.159c-.055.04-.125.068-.207.085-.083.017-.177.025-.284.025h-1.183c-.027 0-.041-.013-.041-.04v-.398c0-.027.014-.04.041-.04h1.046c.055 0 .095 0 .121-.002.025-.001.043-.005.055-.012.004-.004.007-.01.01-.02.002-.009.004-.017.007-.024zm.28-.454c.024 0 .046-.005.066-.017s.03-.025.031-.041c-.001-.019-.013-.034-.034-.044-.021-.011-.045-.016-.072-.016h-.583c-.027 0-.051.005-.072.016-.02.01-.03.025-.03.044.001.016.012.029.03.041.019.011.042.017.067.017z" fill="#a3362a"/><path d="m17.493 22.322c0 .022-.002.046-.005.072-.004.025-.011.05-.022.074s-.026.047-.045.07c-.02.023-.044.043-.075.062.035.02.062.042.081.066s.035.049.044.075c.01.026.017.052.019.079.002.026.003.053.003.078 0 .06-.002.109-.005.148-.004.039-.01.072-.02.098-.01.027-.022.05-.038.069s-.035.039-.059.059c-.036.032-.076.057-.121.074s-.102.031-.171.04c-.057.005-.127.009-.212.012-.042.001-.093.002-.155.003-.062 0-.133.001-.215.001-.083 0-.154 0-.216-.001-.061-.001-.112-.002-.152-.003-.042-.001-.083-.003-.122-.005s-.072-.005-.1-.009c-.063-.009-.117-.023-.161-.04-.044-.018-.085-.042-.125-.072-.021-.019-.04-.038-.055-.058s-.027-.044-.037-.071c-.009-.027-.016-.06-.021-.099-.004-.039-.006-.086-.006-.144 0-.024.001-.049.004-.076s.009-.053.02-.08c.01-.027.025-.053.045-.078s.047-.048.082-.068c-.033-.02-.06-.042-.08-.068-.02-.025-.036-.051-.046-.078s-.018-.053-.021-.08c-.003-.026-.004-.052-.004-.076 0-.105.01-.18.03-.226.009-.023.018-.04.028-.052s.023-.027.039-.046l.013-.018c.042-.031.086-.057.133-.078s.101-.035.161-.042c.027-.004.062-.007.102-.009.041-.002.082-.004.124-.005.042 0 .094 0 .157-.001s.131-.001.205-.001c.08 0 .15 0 .211.001.061 0 .113.001.155.001.042.001.083.003.122.005.04.002.073.005.099.009h-.002c.065.007.12.02.167.04s.089.047.128.08c.023.023.042.043.055.061s.025.039.034.061c.02.048.03.121.03.22zm-1.298.492c-.029 0-.055.008-.078.024-.016.012-.024.024-.024.036 0 .023.011.041.033.053.022.013.048.019.077.019h.567c.027 0 .052-.006.074-.018.021-.012.033-.029.035-.052-.003-.013-.012-.026-.026-.038-.026-.016-.051-.024-.076-.024zm.583-.414c.024 0 .047-.005.067-.017s.031-.025.032-.041c-.001-.019-.013-.033-.035-.043-.021-.01-.045-.015-.071-.015h-.55c-.027 0-.051.005-.072.015s-.032.024-.034.043c.003.006.007.013.012.02.005.006.009.011.012.014.024.016.05.024.078.024z" fill="#a3362a"/><path d="m19.242 22.376c.083.021.149.053.196.094s.079.093.095.156c.017.063.025.136.025.22 0 .021 0 .04-.001.056s-.002.031-.003.045-.003.028-.006.043-.007.032-.013.052l.002-.002c-.009.043-.025.082-.05.116-.025.035-.057.071-.098.11-.055.047-.135.08-.239.098s-.227.028-.367.028h-1.139c-.012 0-.022-.003-.03-.011-.009-.007-.013-.017-.013-.029v-.366c0-.011.004-.02.013-.027.008-.007.019-.011.03-.011h1.163c.071 0 .114-.007.13-.022l.013-.012c0-.001 0-.003.001-.007.001-.003.001-.012.001-.027 0-.043-.007-.069-.021-.08-.016-.015-.058-.022-.125-.022h-1.116c-.012 0-.021-.004-.029-.011s-.012-.016-.012-.027v-.882c0-.01.004-.02.012-.028s.018-.012.029-.012h1.769c.012 0 .021.004.029.012s.012.018.012.028v.398c0 .01-.004.02-.012.028s-.018.012-.029.012h-1.262v.046h.719c.133.001.242.013.326.034z" fill="#a3362a"/><path d="m11.572 21.966c.185.18.277.395.277.646 0 .249-.093.463-.277.643-.185.18-.408.27-.671.27-.262 0-.488-.089-.676-.269-.188-.179-.282-.394-.282-.644 0-.252.094-.468.282-.646.188-.179.414-.269.676-.269.263-.001.486.089.671.269zm-1.234.102c-.154.152-.23.333-.23.543 0 .208.077.389.23.542.154.153.341.23.562.23s.408-.077.561-.23c.153-.154.229-.334.229-.542 0-.21-.076-.391-.229-.543-.153-.153-.34-.229-.561-.229s-.409.076-.562.229zm.907.954c-.091.079-.206.118-.343.118-.16 0-.287-.051-.381-.154-.095-.102-.142-.228-.142-.375 0-.15.047-.278.143-.383.095-.106.223-.159.383-.159.117 0 .224.032.32.098s.151.157.162.275h-.158c-.02-.072-.061-.124-.124-.156s-.13-.048-.203-.048c-.107 0-.187.039-.24.117s-.08.163-.08.256c0 .092.027.175.081.25s.133.112.239.112c.09 0 .165-.022.227-.067s.099-.111.111-.197h.159c-.012.131-.063.235-.154.313z" fill="#a3362a"/><circle cx="20.257" cy="15.708" fill="url(#r)" r="3.021"/><circle cx="68.927" cy="18.141" fill="url(#s)" r="3.021"/><circle cx="139.939" cy="23.145" fill="url(#t)" r="3.021"/><path d="m150.023 27.947 1.974-3.947h66.698l-1.202 2.23c-.259.481-.758.783-1.304.791z" fill="url(#u)"/><circle cx="214.437" cy="24.452" fill="#a5413a" r=".453"/><path d="m37.319 25.288.805-.105-1.357 2.432 2.357-.403v-.358l-1.179.209 1.335-2.402-1.999.284z" fill="#a3362a"/><path d="m41.373 24.859c-1.087-.145-1.614.156-1.824.31-.103.075-.318.233-.283.328.043.12.49.153.768-.045.083-.059.089-.094.194-.157.039-.023.352-.209.5-.082.111.095.1.34.015.388-.034.019-.076.005-.09 0-.269-.089-1.228-.031-1.387.336-.012.027-.015.046-.022.157-.013.202-.022.443-.018.719.001.089.06.168.145.194.043.013.085.025.112.029.733.102 1.296.003 1.841-.213.095-.038.158-.128.159-.23l.02-1.587c-.001-.075-.056-.138-.13-.147zm-.532 1.809c-.023.032-.062.033-.14.039-.249.02-.508.011-.543-.028-.02-.022-.05-.072.006-.341.038-.184.039-.244.083-.31.101-.152.388-.306.411-.214.034.132 0 .531.014.677.005.054.113-.012.158.037.033.036.039.102.011.14z" fill="#a3362a"/><path d="m43.986 24.435c-.106-.073-.235-.049-.432-.005-.4.089-.964.236-1.656.485v2.26l.743-.099.003-.654c.476.039 1.28.063 1.402-.261.015-.039.015-.07.015-.097.008-.968.173-1.46-.075-1.629zm-.723 1.233c-.01.578-.237.621-.276.634-.087.029-.219.009-.276-.067-.037-.049-.032-.11-.03-.142.053-.727.02-.989.045-1.059.002-.005.01-.026 0-.039-.009-.012-.026-.011-.038-.013-.05-.006-.099-.064-.096-.094.005-.047.142-.068.196-.076.208-.031.478-.015.483.116.008.21-.003.42-.008.74z" fill="#a3362a"/><path d="m46.492 23.988c-.106-.073-.235-.049-.432-.005-.4.089-.964.236-1.656.485v2.26l.743-.099.003-.654c.476.039 1.28.063 1.402-.261.015-.039.015-.07.015-.097.008-.968.173-1.46-.075-1.629zm-.723 1.233c-.01.578-.237.621-.276.634-.087.029-.219.009-.276-.067-.037-.049-.032-.11-.03-.142.053-.727.02-.989.045-1.059.002-.005.01-.026 0-.039-.009-.012-.026-.011-.038-.013-.05-.006-.099-.064-.096-.094.005-.047.142-.068.196-.076.208-.031.478-.015.483.116.008.209-.003.419-.008.74z" fill="#a3362a"/><path d="m47.794 24.99s.128.005.559-.006c.302-.007.591-.306.71-.593.094-.227.161-.64-.05-.845-.062-.06-.141-.095-1.398.145-.121.023-.34.068-.537.241-.033.029-.108.096-.173.201-.211.343-.109.765.009 1.254.033.136.045.155.053.167.23.338 1.164.13 1.734-.106.007-.003.043-.008.078-.034.065-.046.119-.143.089-.201-.037-.073-.188-.056-.241-.05-.127.014-.155.06-.308.112-.07.024-.203.068-.364.056-.083-.006-.261-.019-.319-.134-.024-.048-.029-.119.006-.162.041-.05.119-.047.152-.045zm-.023-.898c0-.128.104-.232.232-.232s.232.001.232.129v.557c0 .128-.104.232-.232.232s-.232.005-.232-.123z" fill="#a3362a"/><path d="m50.296 23.654v1.521h-.917v-1.521c.174-.175.343-.279.462-.339 0 0 .733-.374 1.548-.037.028.011.082.036.138.086.093.083.206.252.16.406-.06.201-.34.308-.522.231-.134-.057-.225-.219-.246-.351-.008-.053-.001-.073-.019-.097-.07-.094-.355-.001-.604.101z" fill="#a3362a"/><path d="m52.326 23.33-.052-.149-.083-.221-.086-.216-.035.01-.032.01-.03.009-.113.037c-.018-.049-.032-.086-.043-.111.095-.027.195-.056.299-.086l.178-.052.095-.028c.017.048.031.085.042.111-.061.015-.119.03-.174.046l-.037.01.034.093.138.356.024.059c.01.024.021.05.032.076l-.076.021c-.008.003-.035.011-.081.025z" fill="#a3362a"/><path d="m52.701 23.222-.184-.717c.048-.013.153-.044.199-.058.017.025.36.465.36.465s-.025-.533-.028-.562c.04-.011.159-.046.203-.059.054.104.305.631.324.672-.033.009-.149.045-.177.054-.013-.035-.223-.55-.223-.55l.033.606c-.033.009-.105.03-.136.04 0 0-.374-.48-.388-.5 0 0 .188.525.2.555-.001 0-.151.044-.183.054z" fill="#a3362a"/><g fill="#c0bac0"><path d="m113.945 30.859h.387l.446 1.111h.006l.435-1.111h.381v1.418h-.257v-1.094h-.004l-.448 1.094h-.233l-.449-1.094h-.004v1.094h-.257v-1.418z"/><path d="m116.392 30.859h.301l.622 1.418h-.303l-.151-.375h-.645l-.151.375h-.292zm-.099.854h.493l-.242-.609h-.007z"/><path d="m117.47 30.859h.67c.24 0 .421.069.543.208.113.126.17.293.17.502 0 .208-.057.375-.17.502-.125.138-.305.208-.543.208h-.67zm.283 1.216h.278c.203 0 .348-.049.435-.146.069-.079.103-.2.103-.362s-.034-.282-.103-.36c-.084-.097-.229-.146-.435-.146h-.278z"/><path d="m119.103 30.859h1.162v.214h-.879v.372h.814v.203h-.814v.415h.896v.214h-1.179z"/><path d="m121.157 30.859h.283v1.418h-.283z"/><path d="m121.773 30.859h.287l.738 1.045h.004v-1.045h.258v1.418h-.286l-.737-1.043h-.007v1.043h-.258v-1.418z"/><path d="m124.918 31.821c0 .149-.031.262-.092.338-.081.102-.228.153-.44.153-.161 0-.283-.041-.364-.124-.08-.083-.12-.193-.118-.331v-.076h.283v.074c0 .081.015.144.046.188s.089.066.175.066c.127 0 .2-.052.218-.157.006-.034.009-.073.009-.117v-.975h.283z"/><path d="m125.694 30.859h.301l.622 1.418h-.303l-.151-.375h-.645l-.151.375h-.292zm-.099.854h.493l-.242-.609h-.007z"/><path d="m126.771 30.859h.713c.207 0 .356.051.447.152.068.076.102.172.102.287s-.034.21-.102.283c-.09.101-.239.151-.447.151h-.43v.544h-.283zm.283.672h.413c.123 0 .209-.041.257-.122.017-.03.025-.068.025-.113-.001-.085-.026-.146-.075-.18-.049-.035-.117-.052-.202-.052h-.419v.467z"/><path d="m128.545 30.859h.301l.622 1.418h-.303l-.151-.375h-.645l-.151.375h-.292zm-.1.854h.493l-.242-.609h-.007z"/><path d="m129.61 30.859h.287l.738 1.045h.004v-1.045h.258v1.418h-.286l-.737-1.043h-.007v1.043h-.258v-1.418z"/><path d="m133.141 30.859h.713c.207 0 .356.051.447.152.068.076.102.172.102.287s-.034.21-.102.283c-.09.101-.239.151-.447.151h-.43v.544h-.283zm.283.672h.413c.123 0 .209-.041.257-.122.017-.03.025-.068.025-.113-.001-.085-.026-.146-.075-.18-.049-.035-.117-.052-.202-.052h-.419v.467z"/><path d="m134.915 30.859h.301l.622 1.418h-.303l-.151-.375h-.645l-.151.375h-.292zm-.1.854h.493l-.242-.609h-.007z"/><path d="m135.63 30.859h1.308v.214h-.514v1.204h-.283v-1.204h-.512v-.214z"/><path d="m136.858 32.01h.315v.268h-.315z"/><path d="m138.133 30.859h.713c.207 0 .356.051.447.152.068.076.102.172.102.287s-.034.21-.102.283c-.09.101-.239.151-.447.151h-.43v.544h-.283zm.283.672h.413c.123 0 .209-.041.257-.122.017-.03.025-.068.025-.113-.001-.085-.026-.146-.075-.18-.049-.035-.117-.052-.202-.052h-.419v.467z"/><path d="m139.642 30.859h1.162v.214h-.879v.372h.814v.203h-.814v.415h.896v.214h-1.179z"/><path d="m141.055 30.859h.287l.738 1.045h.004v-1.045h.258v1.418h-.286l-.737-1.043h-.007v1.043h-.258v-1.418z"/><path d="m142.7 30.859h.67c.24 0 .421.069.543.208.113.126.17.293.17.502 0 .208-.057.375-.17.502-.125.138-.305.208-.543.208h-.67zm.283 1.216h.278c.203 0 .348-.049.435-.146.069-.079.103-.2.103-.362s-.034-.282-.103-.36c-.084-.097-.229-.146-.435-.146h-.278z"/><path d="m144.317 32.01h.315v.268h-.315z"/><path d="m113.945 28.82h.395l.455 1.031h.006l.443-1.031h.389v1.317h-.263v-1.016h-.005l-.457 1.016h-.238l-.458-1.016h-.005v1.016h-.263v-1.317z"/><path d="m116.703 28.789c.24 0 .431.067.575.2s.215.297.215.491c0 .195-.071.358-.214.49-.143.131-.334.198-.575.198-.241.001-.433-.065-.576-.197s-.214-.295-.214-.49.07-.357.21-.487c.068-.062.15-.112.248-.149.097-.038.207-.057.331-.056zm-.377 1.044c.083.098.208.148.377.148.168 0 .294-.05.377-.149s.125-.217.125-.353-.042-.254-.125-.353-.209-.149-.376-.149c-.168 0-.293.05-.378.149-.084.1-.126.218-.125.354.001.137.042.254.125.353z"/><path d="m117.756 28.82h.683c.245 0 .43.064.554.193.116.117.174.272.174.466s-.058.349-.174.466c-.127.128-.312.193-.554.193h-.683zm.288 1.129h.284c.208 0 .356-.045.444-.135.07-.073.105-.185.105-.336s-.035-.262-.105-.334c-.086-.09-.234-.135-.444-.135h-.284z"/><path d="m119.422 28.82h1.186v.199h-.897v.345h.831v.188h-.831v.385h.914v.199h-1.203z"/><path d="m120.877 28.82h.289v1.118h.838v.199h-1.126v-1.317z"/><path d="m122.831 28.82h.293l.753.97h.005v-.97h.263v1.317h-.292l-.752-.968h-.007v.968h-.263z"/><path d="m125.211 28.789c.24 0 .431.067.575.2s.215.297.215.491c0 .195-.071.358-.214.49-.143.131-.334.198-.575.198-.241.001-.433-.065-.576-.197s-.214-.295-.214-.49.07-.357.21-.487c.068-.062.15-.112.248-.149.097-.038.208-.057.331-.056zm-.377 1.044c.083.098.208.148.377.148.168 0 .294-.05.377-.149s.125-.217.125-.353-.042-.254-.125-.353-.209-.149-.376-.149c-.168 0-.293.05-.378.149-.084.1-.126.218-.125.354.001.137.042.254.125.353z"/><path d="m126.247 29.888h.321v.249h-.321z"/><path d="m128.176 28.82h.293l.753.97h.005v-.97h.263v1.317h-.292l-.752-.968h-.007v.968h-.263z"/><path d="m129.855 28.82h1.186v.199h-.897v.345h.831v.188h-.831v.385h.914v.199h-1.203z"/><path d="m131.5 29.698c0 .096.039.167.116.213s.176.069.296.069.209-.019.266-.057.086-.084.087-.138-.013-.092-.042-.116c-.029-.025-.067-.042-.114-.053-.047-.01-.109-.024-.186-.041s-.162-.036-.254-.056-.161-.043-.208-.067c-.126-.065-.188-.158-.188-.279s.06-.216.179-.283c.12-.067.264-.101.434-.101s.317.037.439.111.182.177.182.31h-.289c-.014-.155-.132-.232-.356-.232-.129 0-.22.03-.274.089-.02.023-.029.055-.029.095s.018.074.055.1c.036.027.082.047.14.061.18.036.339.069.476.1.103.026.183.07.238.13s.083.128.084.202c.002.137-.067.243-.205.317-.12.064-.275.096-.465.096s-.345-.038-.466-.113c-.134-.082-.202-.201-.205-.358h.289z"/><path d="m132.742 29.536h.672v.199h-.672z"/><path d="m134.169 28.82c.209 0 .36.075.453.226.07.114.105.262.105.445 0 .3-.092.503-.275.607-.073.043-.167.064-.283.064s-.21-.021-.283-.064c-.183-.107-.275-.31-.275-.607 0-.186.035-.335.105-.445.041-.067.097-.121.17-.163s.167-.063.283-.063zm.295.672c0-.331-.099-.496-.295-.496-.197 0-.295.165-.295.496 0 .233.05.385.151.456.038.026.086.04.144.04.196 0 .295-.166.295-.496z"/><path d="m135.452 28.82c.209 0 .36.075.453.226.07.114.105.262.105.445 0 .3-.092.503-.275.607-.073.043-.167.064-.283.064s-.21-.021-.283-.064c-.183-.107-.275-.31-.275-.607 0-.186.035-.335.105-.445.041-.067.097-.121.17-.163s.167-.063.283-.063zm.295.672c0-.331-.099-.496-.295-.496-.197 0-.295.165-.295.496 0 .233.05.385.151.456.038.026.086.04.144.04.197 0 .295-.166.295-.496z"/><path d="m136.5 29.366c.072-.065.176-.098.313-.098.067 0 .132.011.195.032.124.043.21.119.257.228.023.053.034.107.034.164 0 .124-.044.229-.131.317-.103.103-.24.154-.412.154s-.31-.034-.415-.102-.161-.165-.167-.292h.263c.007.071.038.125.09.162.053.037.122.056.208.056.197 0 .297-.095.301-.284 0-.121-.057-.204-.17-.248-.039-.015-.085-.022-.138-.022-.138 0-.224.039-.26.118h-.264l.174-.707h.835v.188h-.639l-.078.33z"/></g></svg>