<svg enable-background="new 0 0 30 30" viewBox="0 0 30 30" xmlns="http://www.w3.org/2000/svg"><path d="m24.689 15.208h-.622v-.195h-1.194v.344h-.92v2.957h.92v.622h1.194v-.622h.622z" fill="#eaeaea"/><path d="m17.869 17.313h.96v2.248h-.96z" fill="#eaeaea"/><path d="m16.946 9.767h-1.16v.577h-.629v.577h-1.096v-.577h-.668v.577.383h-.976v.249h-.323-.614v-.872h-1.066-.173-.004l-3.277.113 3.277.112h.004v.674h.694v1.989h-.929v1.924h-.095-.156-.346-.173-.004l-3.277.112 3.277.113h.004v1.554h-.002l-3.277.112 3.277.113h.002.175.344v.901h-.318v5.09h-.635v.947h.947v-.893h.922v.981h.264.562v1.254h.597.57v-1.254h.729.11v-.561h.422 1.121.72v-1.989h-.72v-.89h-1.171v-2.058h.186.519v-3.156h.765v-3.372h1.046v-1.85h.555z" fill="#eaeaea"/><path d="m6.065 24.435v-.594-.353h-.246-1.144v-.648h-.899v.648.128h-.004l-3.277.112 3.277.113h.004.173.726 1.144v.594.091.091h.613v-.182z" fill="#eaeaea"/><path d="m14.242 13.483h-.972-1.057v.317.383l1.057.201v.804h1.303v-1.705z" fill="#a0a0a0"/><path d="m12.033 19.457h1.288v.683h-1.288z" fill="#a0a0a0"/><path d="m22.873 18.212h1.193v.724h-1.193z" fill="#b4b4b4"/><path d="m17.869 20.131v-1.106-.835-.953h-1.091v.953h-1.329v-1.128h.683v-3.493h1.028v-.994h.64v-1.848h.528v-.96-.934-.791h-1.382v.791h-1.491v-.292h-1.2v.292.551h-.194-.668-.149v.96.629h-.827v-.357h-.937v.357.331.249h.937v-.249h.827.149v-.331-.629h.668v.577h1.096v-.577h.298.331v-.577h1.16v.88h-.555v1.85h-.259-.787v1.072 2.3h-.765v2.321.835h-.705v2.058h.705.471v.89h1.727 1.091.96v-1.842z" fill="#515151"/><path d="m23.853 15.575h.735v1.491h-.735z" fill="#515151"/><path d="m10.183 11.58h-.177l-3.277.113 3.277.112v1.539l-3.277.113 3.277.112h.177.752v-1.989z" fill="#515151"/><path d="m8.188 18.398h-.177l-3.277.112 3.277.113v.521h-1.946-.62-.177l-3.277.112 3.277.112v.878h-.59-1.868v.674h-.856v-.713h-1.673v.83h1.517v.882h1.012.467v.696l-3.277.112 3.277.113h.177 1.224v.648h.59.797v.947h2.737v-.947h.635v-.648-.921-.999-.674-1.102-.746z" fill="#515151"/><path d="m6.432 24.617h-.613v-.72h-1.783v.774l-3.275.112 3.275.112v.001h.002.177.145v.592l-3.271.112 3.271.112v.001h.006.177.534v.354l-3.27.112 3.27.113h.007.177.828v-.579h.343z" fill="#d9d9d9"/><g fill="#929292"><path d="m19.709 19.718h-.597-.283v-.157h-.96v.57h.754.206v.695.377.577h.731v-.577h.149z"/><path d="m17.446 21.973h-1.68v.432.668.921h.947v-.921h.733z"/><path d="m15.766 23.962h-2.263v.561h-.839v1.254h1.583v-.942h1.519z"/><path d="m10.671 24.523v-.981h-.92v.893h-1.937v.088.627.627h3.683v-1.254z"/><path d="m4.952 23.841h.867v1.141h-.867z"/></g><path d="m6.432 24.435h1.382v1.342h-1.382z" fill="#737373"/><path d="m8.134 25.777v.398l-1.904.065 1.904.065v.536h4.409v-1.064z" fill="#737373"/><path d="m20.351 19.675v-1.342h-1.522v1.401h.88v.972h1.031v-1.031z" fill="#383838"/><path d="m25.642 18.873h-.953v-.559h-.622v.972h-1.887v.389h-.785v-.389h-1.044v.389h.389v1.031h1.44 2.04.878v-1.059h.544z" fill="#4b4b4b"/><path d="m27.529 18.802v-.709h-1.887v1.417h1.297.59 2.471v-.708z" fill="#686868"/><path d="m25.642 18.495h.778v1.015h-.778z" fill="#525252"/><path d="m28.496 17.607v-.541h-1.661v-.523h-1.193v1.55h.96.233.694v.709h2.471v-1.195z" fill="#767676"/><path d="m10.196 26.841h-.843-.149-.973v1.854h1.122v-.985h.843z" fill="#525252"/><path d="m6.714 26.841h1.517v1.375h-1.517z" fill="#686868"/><path d="m24.951 15.419v-.211-.14-.06-.114-.114h-2.078-.343-.577-.478-.027-.137-.014l-3.276.112 3.276.112h.014v.415h-.674v-.004h-.177l-3.277.112 3.277.112h.003v.628h-.764v-.003h-.07l-1.306.055 1.293.055v.982h-.787v.977h1.522v.953h1.044v.389h.785v-.389h.41.283 1.194v-.35h-1.194v-.603h-.92v-.398-.579-.164-.925-.692-.156-.062h.92v-.349h1.194v.2h.622v.211.303 3.151h.953v-3.454z" fill="#5d5d5d"/><path d="m6.714 28.216v-1.375h-.604-.177-.004l-3.273.112 3.273.113v.549h-.117-.177-.004l-3.273.112 3.273.112v.632l-3.273.112 3.273.112h.004.177.117.065v.519l-3.273.113 3.273.112h.004.177.506v.389l-3.277.113 3.277.112h.177.844v-.614h.529v-1.223z" fill="#767676"/></svg>