<svg enable-background="new 0 0 30 30" viewBox="0 0 30 30" xmlns="http://www.w3.org/2000/svg"><path d="m24.7 15.2h-.6v-.2h-1.2v.4h-.9v2.9h.9v.6h1.2v-.6h.6z" fill="#fff"/><path d="m17.9 17.3h1v2.2h-1z" fill="#fff"/><path d="m16.9 9.8h-1.1v.5h-.6v.6h-1.1v-.6h-.7v.6.4h-1v.3h-.3-.6v-.9h-1.1-.2l-3.2.1 3.2.1v.7h.7v2h-.9v1.9h-.1-.1-.4-.2l-3.2.1 3.2.1v1.6l-3.2.1 3.2.1h.2.4v.9h-.4v5.1h-.6v.9h.9v-.9h1v1h.2.6v1.3h.6.6v-1.3h.7.1v-.5h.4 1.1.8v-2h-.8v-.9h-1.1v-2.1h.2.5v-3.1h.7v-3.4h1.1v-1.9h.5z" fill="#fff"/><path d="m6.1 24.4v-.6-.3h-.3-1.1v-.7h-.9v.7.1l-3.3.1 3.3.1h.1.8 1.1v.6.1.1h.6v-.2z" fill="#fff"/><path d="m14.2 13.5h-.9-1.1v.3.4l1.1.2v.8h1.3v-1.7z" fill="#9fa392"/><path d="m12 19.5h1.3v.7h-1.3z" fill="#9fa392"/><path d="m22.9 18.2h1.2v.7h-1.2z" fill="#b1b6b4"/><path d="m17.9 20.1v-1.1-.8-1h-1.1v1h-1.4v-1.1h.7v-3.5h1.1v-1h.6v-1.9h.5v-.9-1-.8h-1.4v.8h-1.4v-.3h-1.2v.3.6h-.2-.7-.2v.9.7h-.8v-.4h-.9v.4.3.3h.9v-.3h.8.2v-.3-.7h.7v.6h1.1v-.6h.3.3v-.5h1.1v.8h-.5v1.9h-.3-.8v1.1 2.3h-.7v2.3.8h-.7v2.1h.7.5v.9h1.7 1.1.9v-1.9z"/><path d="m23.9 15.6h.7v1.5h-.7z"/><path d="m10.2 11.6h-.2l-3.3.1 3.3.1v1.5l-3.3.2 3.3.1h.2.7v-2z"/><path d="m8.2 18.4h-.2l-3.3.1 3.3.1v.5h-1.9-.7-.1l-3.3.2 3.3.1v.8h-.6-1.9v.7h-.8v-.7h-1.7v.8h1.5v.9h1 .5v.7l-3.3.1 3.3.1h.2 1.2v.7h.6.8v.9h2.7v-.9h.6v-.7-.9-1-.7-1.1-.7z"/><path d="m6.4 24.6h-.6v-.7h-1.8v.8l-3.2.1 3.2.1h.2.2v.6l-3.3.1 3.3.1h.1.6v.4l-3.3.1 3.3.1h.2.8v-.6h.3z" fill="#d8d7e2"/><g fill="#8e9491"><path d="m19.7 19.7h-.6-.3v-.1h-.9v.5h.7.2v.7.4.6h.8v-.6h.1z"/><path d="m17.4 22h-1.6v.4.7.9h.9v-.9h.7z"/><path d="m15.8 24h-2.3v.5h-.8v1.3h1.5v-1h1.6z"/><path d="m10.7 24.5v-1h-.9v.9h-2v.1.7.6h3.7v-1.3z"/><path d="m5 23.8h.9v1.1h-.9z"/></g><path d="m6.4 24.4h1.4v1.3h-1.4z" fill="#6e776d"/><path d="m8.1 25.8v.4h-1.9l1.9.1v.5h4.4v-1z" fill="#6e776d"/><path d="m20.4 19.7v-1.4h-1.6v1.4h.9v1h1v-1z" fill="#284328"/><path d="m25.6 18.9h-.9v-.6h-.6v1h-1.9v.4h-.8v-.4h-1v.4h.3v1h1.5 2 .9v-1.1h.5z" fill="#345b33"/><path d="m27.5 18.8v-.7h-1.9v1.4h1.3.6 2.5v-.7z" fill="#d64017"/><path d="m25.6 18.5h.8v1h-.8z" fill="#ca220f"/><path d="m28.5 17.6v-.5h-1.7v-.6h-1.2v1.6h1 .2.7v.7h2.5v-1.2z" fill="#d65717"/><path d="m10.2 26.8h-.8-.2-1v1.9h1.2v-1h.8z" fill="#ca220f"/><path d="m6.7 26.8h1.5v1.4h-1.5z" fill="#d64017"/><path d="m25 15.4v-.2-.1-.1-.1-.1h-2.1-.4-.5-.5-.1-.1l-3.3.1 3.3.1v.4h-.7-.1l-3.3.1 3.3.1v.7h-.8-.1-1.3l1.3.1v1h-.8v.9h1.6v1h1v.4h.8v-.4h.4.3 1.2v-.4h-1.2v-.6h-.9v-.4-.5-.2-.9-.7-.2h.9v-.4h1.2v.2h.6v.2.3 3.2h.9v-3.5z" fill="#417239"/><path d="m6.7 28.2v-1.4h-.6-.2l-3.2.2 3.2.1v.5h-.1-.2l-3.2.1 3.2.1v.7l-3.2.1 3.2.1h.2.1.1v.5l-3.3.1 3.3.1h.2.5v.4l-3.3.1 3.3.2h.2.8v-.7h.5v-1.2z" fill="#d55719"/></svg>