<svg enable-background="new 0 0 527.524 129.709" viewBox="0 0 527.524 129.709" xmlns="http://www.w3.org/2000/svg"><path d="m53.647 44.706v4.47h4.47v8.941h-4.47v4.47h-49.177v-4.47h-4.47v-53.572h4.47v-4.545h22.353v4.545h4.47v40.161zm-49.177-40.161v8.867h4.471v-4.47h4.47v-4.397z" fill="#dfa562"/><path d="m93.881 0v4.545h4.47v53.573h-4.47v4.47h-22.353v-4.47h-4.47v-53.573h4.47v-4.545zm-22.353 4.545v8.867h4.471v-4.47h4.47v-4.397z" fill="#dfa562"/><path d="m165.41 4.47h4.471v4.471h-4.471v4.47h-26.824v31.294h13.412v-8.941h-4.47v-4.471h-4.47v-4.47h4.47v-4.47h17.882v4.47h4.471v26.824h-4.471v4.471h-4.47v4.47h-44.706v-4.47h-4.471v-4.471h-4.47v-44.632h4.47v4.396h4.471v-4.396h4.47v-4.545h-4.47v-4.47h49.176z" fill="#dfa562"/><path d="m236.939 4.545h4.471v53.573h-4.471v4.47h-13.412v-4.47h-4.47v-22.353h-8.941v22.353h-4.47v4.47h-22.353v-4.47h-4.47v-53.573h4.47v-4.545h22.353v4.545h4.47v17.808h8.941v-17.808h4.47v-4.545h13.412zm-53.647 0v8.867h4.471v-4.47h4.47v-4.397z" fill="#dfa562"/><path d="m254.82 4.545v-4.545h53.647v4.545h4.471v8.792h-4.471v4.545h-13.412v40.236h-4.47v4.47h-17.882v-4.47h-4.471v-40.236h-13.412v-4.545h-4.47v-8.792zm0 8.792h4.471v-4.396h4.47v-4.396h-8.941z" fill="#dfa562"/><path d="m379.996 4.47h4.47v4.471h-4.47v4.47h-26.824v31.294h13.411v-8.941h-4.47v-4.471h-4.47v-4.47h4.47v-4.47h17.883v4.47h4.47v26.824h-4.47v4.471h-4.47v4.47h-44.706v-4.47h-4.471v-4.471h-4.47v-44.632h4.47v4.396h4.471v-4.396h4.47v-4.545h-4.47v-4.47h49.177v4.47z" fill="#dfa562"/><path d="m451.525 0v4.545h4.47v49.102h-4.47v4.471h-4.47v4.47h-44.706v-4.47h-4.47v-4.471h-4.471v-49.102h4.471v-4.545h22.352v4.545h4.471v40.161h8.941v-40.161h4.47v-4.545zm-53.647 4.545v8.867h4.47v-4.47h4.47v-4.397z" fill="#dfa562"/><path d="m523.054 0v4.545h4.47v53.573h-4.47v4.47h-13.412v-4.47h-4.47v-13.412h-4.47v-4.471h-4.47v17.883h-4.471v4.47h-22.352v-4.47h-4.471v-53.573h4.471v-4.545h22.352v4.545h4.471v17.808h4.47v4.47h4.47v-22.278h4.47v-4.545zm-53.647 4.545v8.867h4.47v-4.47h4.47v-4.397z" fill="#dfa562"/><g fill="#c23234"><path d="m83.762 84.624c-11.777 0-21.358 9.581-21.358 21.358s9.581 21.358 21.358 21.358 21.358-9.581 21.358-21.358-9.581-21.358-21.358-21.358zm0 38.924c-9.686 0-17.566-7.88-17.566-17.566s7.88-17.566 17.566-17.566 17.566 7.88 17.566 17.566-7.88 17.566-17.566 17.566z"/><path d="m83.762 93.758c-6.74 0-12.224 5.484-12.224 12.224s5.484 12.224 12.224 12.224 12.224-5.484 12.224-12.224-5.484-12.224-12.224-12.224zm0 21.001c-4.84 0-8.777-3.937-8.777-8.777s3.937-8.777 8.777-8.777 8.777 3.937 8.777 8.777-3.937 8.777-8.777 8.777z"/><circle cx="83.762" cy="105.981" r="3.952"/><path d="m82.508 82.254h2.508v47.455h-2.508z"/><path d="m82.508 82.254h2.508v47.455h-2.508z" transform="matrix(0 -1 1 0 -22.2195 189.7435)"/><path d="m263.762 84.624c-11.777 0-21.358 9.581-21.358 21.358s9.581 21.358 21.358 21.358 21.358-9.581 21.358-21.358-9.581-21.358-21.358-21.358zm0 38.924c-9.686 0-17.566-7.88-17.566-17.566s7.88-17.566 17.566-17.566 17.566 7.88 17.566 17.566-7.88 17.566-17.566 17.566z"/><path d="m263.762 93.758c-6.74 0-12.224 5.484-12.224 12.224s5.484 12.224 12.224 12.224 12.224-5.484 12.224-12.224-5.484-12.224-12.224-12.224zm0 21.001c-4.84 0-8.777-3.937-8.777-8.777s3.937-8.777 8.777-8.777 8.777 3.937 8.777 8.777-3.937 8.777-8.777 8.777z"/><circle cx="263.762" cy="105.981" r="3.952"/><path d="m262.508 82.254h2.508v47.455h-2.508z"/><path d="m262.508 82.254h2.508v47.455h-2.508z" transform="matrix(0 -1 1 0 157.7805 369.7435)"/><path d="m353.762 84.624c-11.777 0-21.358 9.581-21.358 21.358s9.581 21.358 21.358 21.358 21.358-9.581 21.358-21.358-9.581-21.358-21.358-21.358zm0 38.924c-9.686 0-17.566-7.88-17.566-17.566s7.88-17.566 17.566-17.566 17.566 7.88 17.566 17.566-7.88 17.566-17.566 17.566z"/><path d="m353.762 93.758c-6.74 0-12.224 5.484-12.224 12.224s5.484 12.224 12.224 12.224 12.224-5.484 12.224-12.224-5.484-12.224-12.224-12.224zm0 21.001c-4.84 0-8.777-3.937-8.777-8.777s3.937-8.777 8.777-8.777 8.777 3.937 8.777 8.777-3.937 8.777-8.777 8.777z"/><circle cx="353.762" cy="105.981" r="3.952"/><path d="m352.508 82.254h2.508v47.455h-2.508z"/><path d="m352.508 82.254h2.508v47.455h-2.508z" transform="matrix(0 -1 1 0 247.7805 459.7435)"/><path d="m443.762 84.624c-11.777 0-21.358 9.581-21.358 21.358s9.581 21.358 21.358 21.358 21.358-9.581 21.358-21.358-9.581-21.358-21.358-21.358zm0 38.924c-9.686 0-17.566-7.88-17.566-17.566s7.88-17.566 17.566-17.566 17.566 7.88 17.566 17.566-7.88 17.566-17.566 17.566z"/><path d="m443.762 93.758c-6.74 0-12.224 5.484-12.224 12.224s5.484 12.224 12.224 12.224 12.224-5.484 12.224-12.224-5.484-12.224-12.224-12.224zm0 21.001c-4.84 0-8.777-3.937-8.777-8.777s3.937-8.777 8.777-8.777 8.777 3.937 8.777 8.777-3.937 8.777-8.777 8.777z"/><circle cx="443.762" cy="105.981" r="3.952"/><path d="m442.508 82.254h2.508v47.455h-2.508z"/><path d="m442.508 82.254h2.508v47.455h-2.508z" transform="matrix(0 -1 1 0 337.7805 549.7435)"/><path d="m173.762 84.624c-11.777 0-21.358 9.581-21.358 21.358s9.581 21.358 21.358 21.358 21.358-9.581 21.358-21.358-9.581-21.358-21.358-21.358zm0 38.924c-9.686 0-17.566-7.88-17.566-17.566s7.88-17.566 17.566-17.566 17.566 7.88 17.566 17.566-7.88 17.566-17.566 17.566z"/><path d="m173.762 93.758c-6.74 0-12.224 5.484-12.224 12.224s5.484 12.224 12.224 12.224 12.224-5.484 12.224-12.224c0-6.741-5.484-12.224-12.224-12.224zm0 21.001c-4.84 0-8.777-3.937-8.777-8.777s3.937-8.777 8.777-8.777 8.777 3.937 8.777 8.777-3.937 8.777-8.777 8.777z"/><circle cx="173.762" cy="105.981" r="3.952"/><path d="m172.508 82.254h2.508v47.455h-2.508z"/><path d="m172.508 82.254h2.508v47.455h-2.508z" transform="matrix(0 -1 1 0 67.7805 279.7435)"/></g></svg>