<svg xmlns="http://www.w3.org/2000/svg" xmlns:xlink="http://www.w3.org/1999/xlink" viewBox="0 0 470.58 67.66"><defs><style>.ace5a71f-1794-452f-ae54-b2f2c715c422{stroke:#9def48;fill:url(#b7589209-e983-417d-86b8-31faaefad529);}.a5ddc10f-e6f3-4578-b421-7ab750b9a846,.ace5a71f-1794-452f-ae54-b2f2c715c422{stroke-miterlimit:10;}.a16c804f-14fe-4631-a395-62e87a5c18d4{fill:#9def48;}.a5ddc10f-e6f3-4578-b421-7ab750b9a846,.f1fc125e-672e-46b0-925f-fe2d16469ee8{fill:none;stroke:#fff;stroke-width:0.75px;}.f1fc125e-672e-46b0-925f-fe2d16469ee8{stroke-miterlimit:14.01;}</style><linearGradient id="b7589209-e983-417d-86b8-31faaefad529" x1="0.5" y1="33.83" x2="470.08" y2="33.83" gradientUnits="userSpaceOnUse"><stop offset="0" stop-color="#032c02"/><stop offset="1" stop-color="#207a09"/></linearGradient></defs><g id="a2502536-539e-4f8c-a533-338b29d1a6a8" data-name="calque3"><polygon class="ace5a71f-1794-452f-ae54-b2f2c715c422" points="0.5 6.04 102.57 6.04 108.7 0.5 150.44 0.5 158.35 6.04 461.77 6.24 470.08 16.13 470.08 59.84 50.94 59.84 42.83 67.16 8.02 67.16 0.5 59.84 0.5 6.04"/><path class="a16c804f-14fe-4631-a395-62e87a5c18d4" d="M56.45,44.91H52.38v-21l4.07-4.07Z"/><path class="a16c804f-14fe-4631-a395-62e87a5c18d4" d="M88.82,40.84h2.71a17.63,17.63,0,0,0,2.19-6.17H69.54a17.46,17.46,0,0,0,2.2,6.17h2.7v4.07H69.56a17.62,17.62,0,0,1-4.14-10.24H61.57V30.62h3.85A17.51,17.51,0,0,1,69.56,20.4H93.7a17.54,17.54,0,0,1,4.14,10.24l-1.76,1v2.05l1.76,1A17.62,17.62,0,0,1,93.7,44.91H88.82ZM69.54,30.62H93.72a17.47,17.47,0,0,0-2.19-6.15H71.74A17.3,17.3,0,0,0,69.54,30.62Z"/><path class="a16c804f-14fe-4631-a395-62e87a5c18d4" d="M126.14,34.67H109.22a17.49,17.49,0,0,0,2.21,6.17h20.13l2.34,4.07H109.24a17.62,17.62,0,0,1-4.14-10.24h-3.84V30.62h3.84a17.51,17.51,0,0,1,4.14-10.22H133.9l-2.34,4.07H111.43a17.33,17.33,0,0,0-2.21,6.15h16.92Z"/><path class="a16c804f-14fe-4631-a395-62e87a5c18d4" d="M149.88,24.47H142a16.32,16.32,0,0,0-2.34,8.18A16.38,16.38,0,0,0,142,40.84h2.7v4.07h-4.89a18.18,18.18,0,0,1-4.22-12.26,18.13,18.13,0,0,1,4.22-12.25h10V16.56h4.05V20.4h10a18.18,18.18,0,0,1,4.22,12.25A18.23,18.23,0,0,1,164,44.91h-4.89V40.84h2.72a16.45,16.45,0,0,0,2.32-8.19,16.39,16.39,0,0,0-2.32-8.18h-7.88V39h-4.05Z"/><path class="a16c804f-14fe-4631-a395-62e87a5c18d4" d="M209.54,37.61h4.37a17.11,17.11,0,0,1-3.67,7.3H186.09a18.23,18.23,0,0,1-4.22-12.26,18.22,18.22,0,0,1,4.22-12.25h24.15a17.11,17.11,0,0,1,3.67,7.3h-4.37a18.89,18.89,0,0,0-1.47-3.23H188.28a16.32,16.32,0,0,0-2.34,8.18,16.38,16.38,0,0,0,2.34,8.19h19.79A19.62,19.62,0,0,0,209.54,37.61Z"/><path class="a16c804f-14fe-4631-a395-62e87a5c18d4" d="M222.25,40.84h18.43L243,44.91H218.19v-21l4.06-4.07Z"/><path class="a16c804f-14fe-4631-a395-62e87a5c18d4" d="M255,38.09l-4.29,6.82h-5.08L261.15,20.4h4.68l15.45,24.51h-5L272,38.09ZM269.51,34l-6-9.59-6,9.59Z"/><path class="a16c804f-14fe-4631-a395-62e87a5c18d4" d="M312.88,30.62l1.85,2a18.15,18.15,0,0,1-4.23,12.26H286.36a17.13,17.13,0,0,1-3.68-7.3h4.38a19,19,0,0,0,1.48,3.23h19.79a16.92,16.92,0,0,0,2.19-6.17H284l-1.84-2a18.17,18.17,0,0,1,4.22-12.25H310.5a17.13,17.13,0,0,1,3.68,7.3H309.8a17.47,17.47,0,0,0-1.47-3.23H288.54a17.49,17.49,0,0,0-2.2,6.15Z"/><path class="a16c804f-14fe-4631-a395-62e87a5c18d4" d="M348.89,30.62l1.84,2a18.14,18.14,0,0,1-4.22,12.26H322.37a17.13,17.13,0,0,1-3.68-7.3h4.38a19,19,0,0,0,1.48,3.23h19.79a16.92,16.92,0,0,0,2.19-6.17H320l-1.85-2a18.18,18.18,0,0,1,4.23-12.25h24.14a17.13,17.13,0,0,1,3.68,7.3h-4.38a17.47,17.47,0,0,0-1.47-3.23H324.55a17.3,17.3,0,0,0-2.2,6.15Z"/><path class="a16c804f-14fe-4631-a395-62e87a5c18d4" d="M359.93,44.91h-4.07v-21l4.07-4.07Z"/><path class="a16c804f-14fe-4631-a395-62e87a5c18d4" d="M392.72,37.61h4.38a17.13,17.13,0,0,1-3.68,7.3H369.28a18.18,18.18,0,0,1-4.22-12.26,18.17,18.17,0,0,1,4.22-12.25h24.14a17.13,17.13,0,0,1,3.68,7.3h-4.38a17.47,17.47,0,0,0-1.47-3.23H371.46a16.32,16.32,0,0,0-2.34,8.18,16.38,16.38,0,0,0,2.34,8.19h19.79A18.09,18.09,0,0,0,392.72,37.61Z"/><path class="a16c804f-14fe-4631-a395-62e87a5c18d4" d="M431.26,30.62l1.85,2a18.19,18.19,0,0,1-4.22,12.26H404.74a17.13,17.13,0,0,1-3.68-7.3h4.38a19,19,0,0,0,1.49,3.23h19.79a17.08,17.08,0,0,0,2.18-6.17H402.36l-1.84-2a18.17,18.17,0,0,1,4.22-12.25h24.15a17.11,17.11,0,0,1,3.67,7.3h-4.37a18.89,18.89,0,0,0-1.47-3.23H406.93a17.33,17.33,0,0,0-2.21,6.15Z"/></g><g id="a67751b9-ba51-452d-b7d4-f72674d97f01" data-name="irem"><g id="aee8c7f7-4e02-4fe0-8cfa-aa2918772e40" data-name="Calque 1-2"><path class="a5ddc10f-e6f3-4578-b421-7ab750b9a846" d="M21.91,43.92V8.47H35.65V43.92Z"/><path class="a5ddc10f-e6f3-4578-b421-7ab750b9a846" d="M14.79,64.83V58.21h6.7v6.62Z"/><path class="a5ddc10f-e6f3-4578-b421-7ab750b9a846" d="M21.78,65V58.08H35.52V65Z"/><polygon class="a5ddc10f-e6f3-4578-b421-7ab750b9a846" points="21.61 43.96 21.61 51.98 21.87 51.98 21.87 57.83 35.61 57.83 35.61 51 28.49 51 28.49 43.96 21.61 43.96"/><path class="f1fc125e-672e-46b0-925f-fe2d16469ee8" d="M14.81,65H35.68L35.78,51h-7V44h7V8.52H21.72V58.14H14.81Z"/><path class="f1fc125e-672e-46b0-925f-fe2d16469ee8" d="M21.68,65.16v-7H35.5M21.78,44h7M26.42,38.8V35m4.86,3.93V29.8m-9.51-.2H35.63m-7-6.86h6.91m-6.85-6.95h6.9"/></g></g></svg>