<svg id="a32929de-32fb-4631-bc09-f8a1e8904bee" data-name="texte" xmlns="http://www.w3.org/2000/svg" xmlns:xlink="http://www.w3.org/1999/xlink" viewBox="0 0 470.33 67.41"><defs><style>.e256ad4c-a696-49f5-b10c-8ed0c81b3a55{stroke:#9def48;stroke-miterlimit:10;stroke-width:0.75px;fill:url(#b0a867bf-f2b1-41b9-8aae-7d104fe5ed8a);}.b58b88a0-6014-4546-b1dd-2d586611827d{fill:#9def48;}</style><linearGradient id="b0a867bf-f2b1-41b9-8aae-7d104fe5ed8a" x1="0.38" y1="33.7" x2="469.96" y2="33.7" gradientUnits="userSpaceOnUse"><stop offset="0" stop-color="#032c02"/><stop offset="1" stop-color="#207a09"/></linearGradient></defs><polygon class="e256ad4c-a696-49f5-b10c-8ed0c81b3a55" points="0.38 5.91 102.44 5.91 108.57 0.38 150.31 0.38 158.22 5.91 461.65 6.11 469.96 16 469.96 59.72 50.81 59.72 42.7 67.03 7.89 67.03 0.38 59.72 0.38 5.91"/><path class="b58b88a0-6014-4546-b1dd-2d586611827d" d="M77.29,32.42l1.58,1.75a15.56,15.56,0,0,1-3.61,10.5H54.56a14.73,14.73,0,0,1-3.15-6.26h3.75a16.31,16.31,0,0,0,1.27,2.77h17a14.65,14.65,0,0,0,1.87-5.28H52.52l-1.58-1.73a15.65,15.65,0,0,1,3.62-10.51h20.7a14.79,14.79,0,0,1,3.15,6.26H74.66a16.61,16.61,0,0,0-1.26-2.77h-17a15.19,15.19,0,0,0-1.89,5.27Z" transform="translate(-0.06 -0.03)"/><path class="b58b88a0-6014-4546-b1dd-2d586611827d" d="M105.52,38.41h3.75a14.73,14.73,0,0,1-3.15,6.26H85.42a15.6,15.6,0,0,1-3.62-10.5,15.65,15.65,0,0,1,3.62-10.51h20.7a14.79,14.79,0,0,1,3.15,6.26h-3.75a15.13,15.13,0,0,0-1.26-2.77h-17a14,14,0,0,0-2,7,14,14,0,0,0,2,7h17A15.44,15.44,0,0,0,105.52,38.41Z" transform="translate(-0.06 -0.03)"/><path class="b58b88a0-6014-4546-b1dd-2d586611827d" d="M132.06,35.9h-14.5a15.23,15.23,0,0,0,1.89,5.28h17.26l2,3.49H117.58A15.11,15.11,0,0,1,114,35.9h-3.29V32.42H114a15.08,15.08,0,0,1,3.55-8.76h21.13l-2,3.49H119.45a15.19,15.19,0,0,0-1.89,5.27h14.5Z" transform="translate(-0.06 -0.03)"/><path class="b58b88a0-6014-4546-b1dd-2d586611827d" d="M145.67,27.15a14,14,0,0,0-2,7,14,14,0,0,0,2,7H148v3.49H143.8a15.55,15.55,0,0,1-3.62-10.5,15.56,15.56,0,0,1,3.62-10.51h20.69a15.56,15.56,0,0,1,3.62,10.51,15.55,15.55,0,0,1-3.62,10.5h-4.18V41.18h2.32a14.1,14.1,0,0,0,2-7,14,14,0,0,0-2-7Z" transform="translate(-0.06 -0.03)"/><path class="b58b88a0-6014-4546-b1dd-2d586611827d" d="M192.37,35.9h-14.5a14.84,14.84,0,0,0,1.89,5.28H197l2,3.49H177.88a15.1,15.1,0,0,1-3.54-8.77H171V32.42h3.3a15.07,15.07,0,0,1,3.54-8.76H199l-2,3.49H179.76a14.79,14.79,0,0,0-1.89,5.27h14.5Z" transform="translate(-0.06 -0.03)"/><path class="b58b88a0-6014-4546-b1dd-2d586611827d" d="M211.47,23.66h23.15a15.6,15.6,0,0,1,3.61,10.51,15.6,15.6,0,0,1-3.61,10.5H211.47ZM215,41.18h17.8a14.19,14.19,0,0,0,2-7,14.14,14.14,0,0,0-2-7H215Z" transform="translate(-0.06 -0.03)"/><path class="b58b88a0-6014-4546-b1dd-2d586611827d" d="M262.49,35.9H248a14.84,14.84,0,0,0,1.89,5.28h17.26l2,3.49H248a15,15,0,0,1-3.55-8.77h-3.3V32.42h3.3A15,15,0,0,1,248,23.66h21.13l-2,3.49H249.88A14.79,14.79,0,0,0,248,32.42h14.5Z" transform="translate(-0.06 -0.03)"/><path class="b58b88a0-6014-4546-b1dd-2d586611827d" d="M282.84,27.15H276.1a14,14,0,0,0-2,7,14,14,0,0,0,2,7h2.32v3.49h-4.19a15.55,15.55,0,0,1-3.62-10.5,15.56,15.56,0,0,1,3.62-10.51h8.61V20.37h3.47v3.29h8.61a15.56,15.56,0,0,1,3.62,10.51,15.55,15.55,0,0,1-3.62,10.5h-4.19V41.18h2.33a14.1,14.1,0,0,0,2-7,14,14,0,0,0-2-7h-6.75V39.6h-3.47Z" transform="translate(-0.06 -0.03)"/><path class="b58b88a0-6014-4546-b1dd-2d586611827d" d="M325.79,44.67h-20.7a15.6,15.6,0,0,1-3.62-10.5,15.61,15.61,0,0,1,3.62-10.51h20.7a15.61,15.61,0,0,1,3.62,10.51A15.6,15.6,0,0,1,325.79,44.67Zm-1.86-3.49a14.08,14.08,0,0,0,2-7,14,14,0,0,0-2-7H307a14,14,0,0,0-2,7,14,14,0,0,0,2,7Z" transform="translate(-0.06 -0.03)"/></svg>