<svg id="bcd56b04-8318-4049-b1fd-31145b0613c7" data-name="texte" xmlns="http://www.w3.org/2000/svg" xmlns:xlink="http://www.w3.org/1999/xlink" viewBox="0 0 470.33 67.41"><defs><style>.abd968d6-6b1a-471d-b860-79e9b92792fd{stroke:#9def48;stroke-miterlimit:10;stroke-width:0.75px;fill:url(#a49e1c03-5137-41d7-a2d5-f352cf0a6dcd);}.bd9fea41-ede8-4a67-b761-f581bd7f1557{fill:#9def48;}</style><linearGradient id="a49e1c03-5137-41d7-a2d5-f352cf0a6dcd" x1="0.38" y1="33.7" x2="469.96" y2="33.7" gradientUnits="userSpaceOnUse"><stop offset="0" stop-color="#032c02"/><stop offset="1" stop-color="#207a09"/></linearGradient></defs><polygon class="abd968d6-6b1a-471d-b860-79e9b92792fd" points="0.38 5.91 102.44 5.91 108.57 0.38 150.31 0.38 158.22 5.91 461.65 6.11 469.96 16 469.96 59.72 50.81 59.72 42.7 67.03 7.89 67.03 0.38 59.72 0.38 5.91"/><path class="bd9fea41-ede8-4a67-b761-f581bd7f1557" d="M81.35,30.66l1.79,2A17.68,17.68,0,0,1,79,44.54H55.58A16.6,16.6,0,0,1,52,37.45h4.25a19.52,19.52,0,0,0,1.44,3.14H76.93a16.53,16.53,0,0,0,2.12-6H53.27l-1.79-2a17.71,17.71,0,0,1,4.1-11.9H79a16.6,16.6,0,0,1,3.57,7.09H78.36a17.86,17.86,0,0,0-1.43-3.14H57.7a16.93,16.93,0,0,0-2.14,6Z" transform="translate(-0.06 -0.03)"/><path class="bd9fea41-ede8-4a67-b761-f581bd7f1557" d="M113.34,37.45h4.25A16.6,16.6,0,0,1,114,44.54H90.56a17.72,17.72,0,0,1-4.1-11.91,17.71,17.71,0,0,1,4.1-11.9H114a16.6,16.6,0,0,1,3.57,7.09h-4.25a17.86,17.86,0,0,0-1.43-3.14H92.68a15.94,15.94,0,0,0-2.27,8,16,16,0,0,0,2.27,8h19.23A18.55,18.55,0,0,0,113.34,37.45Z" transform="translate(-0.06 -0.03)"/><path class="bd9fea41-ede8-4a67-b761-f581bd7f1557" d="M127.13,40.59h19.23a16,16,0,0,0,2.26-8,16.09,16.09,0,0,0-2.26-8h-2.64V20.73h4.75a17.71,17.71,0,0,1,4.1,11.9,17.68,17.68,0,0,1-4.1,11.91H125a17.63,17.63,0,0,1-4.1-11.91,17.66,17.66,0,0,1,4.1-11.9h4.75v3.95h-2.63a16,16,0,0,0-2.27,8A16,16,0,0,0,127.13,40.59Z" transform="translate(-0.06 -0.03)"/><path class="bd9fea41-ede8-4a67-b761-f581bd7f1557" d="M169.75,24.68h-7.64a15.94,15.94,0,0,0-2.27,8,16,16,0,0,0,2.27,8h2.63v3.95H160a17.67,17.67,0,0,1-4.1-11.91,17.62,17.62,0,0,1,4.1-11.9h9.76V17h3.93v3.73h9.77a17.67,17.67,0,0,1,4.1,11.9,17.72,17.72,0,0,1-4.1,11.91H178.7V40.59h2.64a16.08,16.08,0,0,0,2.25-8,16,16,0,0,0-2.25-8h-7.66V38.79h-3.93Z" transform="translate(-0.06 -0.03)"/><path class="bd9fea41-ede8-4a67-b761-f581bd7f1557" d="M204.73,24.68h-7.64a15.94,15.94,0,0,0-2.27,8,16,16,0,0,0,2.27,8h2.62v3.95H195a17.67,17.67,0,0,1-4.1-11.91,17.62,17.62,0,0,1,4.1-11.9h9.76V17h3.93v3.73h9.77a17.66,17.66,0,0,1,4.09,11.9,17.71,17.71,0,0,1-4.09,11.91h-4.75V40.59h2.64a16.08,16.08,0,0,0,2.25-8,16,16,0,0,0-2.25-8h-7.66V38.79h-3.93Z" transform="translate(-0.06 -0.03)"/><path class="bd9fea41-ede8-4a67-b761-f581bd7f1557" d="M258,20.73,243,44.54h-4.55L223.35,20.73h4.94l12.5,19.87,12.38-19.87Z" transform="translate(-0.06 -0.03)"/><path class="bd9fea41-ede8-4a67-b761-f581bd7f1557" d="M272.73,24.68h-7.64a15.94,15.94,0,0,0-2.27,8,16,16,0,0,0,2.27,8h2.63v3.95H263a17.67,17.67,0,0,1-4.1-11.91,17.62,17.62,0,0,1,4.1-11.9h9.76V17h3.93v3.73h9.76a17.63,17.63,0,0,1,4.11,11.9,17.67,17.67,0,0,1-4.11,11.91h-4.74V40.59h2.64a16.08,16.08,0,0,0,2.25-8,16,16,0,0,0-2.25-8h-7.66V38.79h-3.93Z" transform="translate(-0.06 -0.03)"/></svg>