<svg xmlns="http://www.w3.org/2000/svg" xmlns:xlink="http://www.w3.org/1999/xlink" viewBox="0 0 470.33 67.41"><defs><style>.bb9364f1-c1d9-4643-8f5b-a05871d9a3d7{stroke:#9def48;stroke-miterlimit:10;stroke-width:0.75px;fill:url(#e68d1e20-fe73-41fa-b551-6f3ab0c0fc90);}.b83bd610-f81e-4b41-b07f-498d051e375b{fill:#9def48;}.b4a59802-516e-48ab-93b5-e2b6bcce6d08{fill:#e60012;}.a8f1ee26-8f64-4d4f-902c-96e4944c86d5{fill:#fff;}</style><linearGradient id="e68d1e20-fe73-41fa-b551-6f3ab0c0fc90" x1="0.38" y1="33.7" x2="469.96" y2="33.7" gradientUnits="userSpaceOnUse"><stop offset="0" stop-color="#032c02"/><stop offset="1" stop-color="#207a09"/></linearGradient></defs><g id="ba1d3467-a2cf-43cc-8896-3dcefe2fc3b7" data-name="texte"><polygon class="bb9364f1-c1d9-4643-8f5b-a05871d9a3d7" points="0.38 5.91 102.44 5.91 108.57 0.38 150.31 0.38 158.22 5.91 461.65 6.11 469.96 16 469.96 59.72 50.81 59.72 42.7 67.03 7.89 67.03 0.38 59.72 0.38 5.91"/><path class="b83bd610-f81e-4b41-b07f-498d051e375b" d="M58.83,24.53a15.86,15.86,0,0,0-2.28,7.95,15.86,15.86,0,0,0,2.28,8h2.62v4H56.7a17.72,17.72,0,0,1-4.1-11.91,17.65,17.65,0,0,1,4.1-11.9H80.16a17.65,17.65,0,0,1,4.1,11.9,17.72,17.72,0,0,1-4.1,11.91H75.41v-4h2.64a15.93,15.93,0,0,0,2.26-8,15.93,15.93,0,0,0-2.26-7.95Z" transform="translate(-0.06 -0.03)"/><path class="b83bd610-f81e-4b41-b07f-498d051e375b" d="M93.19,44.39h-4V24l4-3.95Z" transform="translate(-0.06 -0.03)"/><path class="b83bd610-f81e-4b41-b07f-498d051e375b" d="M104.4,24.53a15.86,15.86,0,0,0-2.28,7.95,15.86,15.86,0,0,0,2.28,8H107v4h-4.75a17.72,17.72,0,0,1-4.1-11.91,17.65,17.65,0,0,1,4.1-11.9h23.46a17.65,17.65,0,0,1,4.1,11.9,17.72,17.72,0,0,1-4.1,11.91H121v-4h2.64a15.93,15.93,0,0,0,2.26-8,15.93,15.93,0,0,0-2.26-7.95Z" transform="translate(-0.06 -0.03)"/><path class="b83bd610-f81e-4b41-b07f-498d051e375b" d="M149.19,41,145.24,45V24.53H132.32v-4H162.1v4H149.19Z" transform="translate(-0.06 -0.03)"/><path class="b83bd610-f81e-4b41-b07f-498d051e375b" d="M186.69,34.44H170.26a16.85,16.85,0,0,0,2.14,6H192l2.28,4h-24a17.25,17.25,0,0,1-4-10h-3.73V30.51h3.73a17.13,17.13,0,0,1,4-9.93h24l-2.28,4H172.4a16.67,16.67,0,0,0-2.14,6h16.43Z" transform="translate(-0.06 -0.03)"/><path class="b83bd610-f81e-4b41-b07f-498d051e375b" d="M202.11,24.53a15.94,15.94,0,0,0-2.27,7.95,15.94,15.94,0,0,0,2.27,8h2.63v4H200a17.72,17.72,0,0,1-4.1-11.91,17.65,17.65,0,0,1,4.1-11.9h23.46a17.65,17.65,0,0,1,4.1,11.9,17.72,17.72,0,0,1-4.1,11.91H218.7v-4h2.64a16,16,0,0,0,2.26-8,16,16,0,0,0-2.26-7.95Z" transform="translate(-0.06 -0.03)"/><path class="b83bd610-f81e-4b41-b07f-498d051e375b" d="M231.7,20.58h26.23a17.65,17.65,0,0,1,4.1,11.9,17.72,17.72,0,0,1-4.1,11.91H231.7Zm4,19.85h20.17a15.93,15.93,0,0,0,2.26-8,15.93,15.93,0,0,0-2.26-7.95H235.65Z" transform="translate(-0.06 -0.03)"/><path class="b83bd610-f81e-4b41-b07f-498d051e375b" d="M292.91,44.39H269.45a17.72,17.72,0,0,1-4.1-11.91,17.65,17.65,0,0,1,4.1-11.9h23.46a17.65,17.65,0,0,1,4.1,11.9A17.72,17.72,0,0,1,292.91,44.39Zm-2.11-4a16,16,0,0,0,2.26-8,16,16,0,0,0-2.26-7.95H271.58a15.86,15.86,0,0,0-2.28,7.95,15.86,15.86,0,0,0,2.28,8Z" transform="translate(-0.06 -0.03)"/><path class="b83bd610-f81e-4b41-b07f-498d051e375b" d="M324.15,40.43V26.32h3.94V40.43h7.65a16,16,0,0,0,2.26-8,16.09,16.09,0,0,0-2.26-7.95H333.1v-4h4.75a17.71,17.71,0,0,1,4.1,11.9,17.68,17.68,0,0,1-4.1,11.91h-9.76v3.73h-3.94V44.39h-9.76a17.68,17.68,0,0,1-4.1-11.91,17.71,17.71,0,0,1,4.1-11.9h4.75v4h-2.62a15.91,15.91,0,0,0-2.28,7.95,15.8,15.8,0,0,0,2.28,8Z" transform="translate(-0.06 -0.03)"/><path class="b83bd610-f81e-4b41-b07f-498d051e375b" d="M350.88,44.39h-3.95V24L350.88,20Z" transform="translate(-0.06 -0.03)"/><path class="b83bd610-f81e-4b41-b07f-498d051e375b" d="M361.47,44.39h-4V24l4-3.95Z" transform="translate(-0.06 -0.03)"/></g><g id="e685b262-c0aa-4d62-be30-159eff37fef7" data-name="nintendo"><path class="b4a59802-516e-48ab-93b5-e2b6bcce6d08" d="M25.59,23.22A2.08,2.08,0,0,0,27.48,21a2.08,2.08,0,0,0-1.89-2.22A2.08,2.08,0,0,0,23.7,21,2.08,2.08,0,0,0,25.59,23.22Zm-.72-2.83H26.3c.53,0,.75.32.75.62s-.22.62-.75.62H24.87c-.53,0-.75-.32-.75-.62S24.34,20.39,24.87,20.39Z" transform="translate(-0.06 -0.03)"/><path class="b4a59802-516e-48ab-93b5-e2b6bcce6d08" d="M23.8,26.07A1.82,1.82,0,0,0,25.56,28a1.77,1.77,0,0,0,1.66-1,1.84,1.84,0,0,0-.12-1.75h.19v-1.5H22.24v1.5H24.1A2,2,0,0,0,23.8,26.07ZM25,25.2h1.19a.6.6,0,1,1,0,1.19H25a.6.6,0,1,1,0-1.19Z" transform="translate(-0.06 -0.03)"/><polygon class="a8f1ee26-8f64-4d4f-902c-96e4944c86d5" points="39.11 19.23 39.11 19.23 39.11 19.23 39.11 19.23"/><polygon class="b4a59802-516e-48ab-93b5-e2b6bcce6d08" points="23.88 38.45 23.88 37.62 23.38 37.62 23.38 38.45 22.7 38.45 22.7 39.96 23.38 39.96 23.38 40.79 23.88 40.79 23.88 39.96 27.23 39.96 27.23 38.44 23.88 38.45"/><path class="b4a59802-516e-48ab-93b5-e2b6bcce6d08" d="M26.12,33.46V35h.2c.61,0,.75.41.75.63a.66.66,0,0,1-.75.64h-.69V33.37a2.27,2.27,0,0,0,0,4.48,2.08,2.08,0,0,0,1.88-2.24A2.21,2.21,0,0,0,26.12,33.46Zm-1,2.77a1.13,1.13,0,0,1-.65-.1.6.6,0,0,1-.31-.53h0a.6.6,0,0,1,.31-.53,1.22,1.22,0,0,1,.65-.1Z" transform="translate(-0.06 -0.03)"/><rect class="b4a59802-516e-48ab-93b5-e2b6bcce6d08" x="23.87" y="46.06" width="3.36" height="1.52"/><path class="b4a59802-516e-48ab-93b5-e2b6bcce6d08" d="M25.08,30h2.21V28.48H25.46a1.64,1.64,0,0,0-1.68,1.72h0a1.84,1.84,0,0,0,.5,1.21h-.35v1.5h3.36v-1.5H25.08a.7.7,0,0,1-.61-.72A.67.67,0,0,1,25.08,30Z" transform="translate(-0.06 -0.03)"/><path class="b4a59802-516e-48ab-93b5-e2b6bcce6d08" d="M24.78,14.57a5.39,5.39,0,0,0-5.37,5.69V52.42a5.37,5.37,0,1,0,10.73,0V20.26A5.38,5.38,0,0,0,24.78,14.57Zm4,37.83a4.06,4.06,0,1,1-8.09,0V20.27a4.06,4.06,0,1,1,8.09,0Z" transform="translate(-0.06 -0.03)"/><path class="b4a59802-516e-48ab-93b5-e2b6bcce6d08" d="M25.08,42.33h2.21V40.82H25.46a1.64,1.64,0,0,0-1.68,1.72h0a1.84,1.84,0,0,0,.5,1.21h-.35v1.5h3.36v-1.5H25.08a.7.7,0,0,1-.61-.72A.67.67,0,0,1,25.08,42.33Z" transform="translate(-0.06 -0.03)"/><rect class="b4a59802-516e-48ab-93b5-e2b6bcce6d08" x="22.18" y="46.06" width="1.03" height="1.52"/><polygon class="b4a59802-516e-48ab-93b5-e2b6bcce6d08" points="22.18 50.01 25.7 50.01 22.18 52.19 22.18 53.76 27.23 53.76 27.23 52.2 23.71 52.2 27.23 50.01 27.23 48.45 22.18 48.45 22.18 50.01"/></g></svg>