<svg id="bb66f647-7f53-476e-8183-37cada9a4d7e" data-name="Calque 1" xmlns="http://www.w3.org/2000/svg" xmlns:xlink="http://www.w3.org/1999/xlink" viewBox="0 0 747.48 822.76"><defs><style>.a91d17b8-f94b-46bd-a233-e392934dcf88,.aa01291e-ef56-4966-ab1c-3669b5b6ea15,.e00e5a65-bca9-46c1-8ca6-13a373bc91bd{fill:#373735;}.a91d17b8-f94b-46bd-a233-e392934dcf88{opacity:0.5;}.a48822d1-cb22-45e0-adbb-fc56f1c6f211{fill:#121211;}.a48822d1-cb22-45e0-adbb-fc56f1c6f211,.a64e12d9-5e25-4560-8a76-d022be3c3325,.aa01291e-ef56-4966-ab1c-3669b5b6ea15,.b4cd3129-470e-47a6-a41f-77b0f27d87b1,.b72ffa81-9300-4058-851d-ffcd6e66243c,.b9296a19-dc8e-4f79-8131-fb9dcd0173a3,.e7714756-865d-4afb-bd55-d6465d2950d7,.e8a7f703-a92f-4962-8324-b3369a21c4c7,.eaf6022e-1d75-4a05-8786-341dde921d72,.eda3aecd-6226-46e8-9a10-4da2b4f96f74,.f20c3dbb-6c87-45c0-b4b7-90d622bd6f1c,.f6807c87-a4db-417b-a549-41694b1a6004{stroke:#b5b5b5;}.a2c61c9f-0a57-4270-ba34-31d6614832f5,.a48822d1-cb22-45e0-adbb-fc56f1c6f211,.a5f1019a-59c7-4045-a453-d7475f95b0b7,.a64e12d9-5e25-4560-8a76-d022be3c3325,.a6cfdbe9-14f5-49f9-9657-da3b999a36b1,.aa01291e-ef56-4966-ab1c-3669b5b6ea15,.b4cd3129-470e-47a6-a41f-77b0f27d87b1,.b72ffa81-9300-4058-851d-ffcd6e66243c,.b74eb100-29d4-4a93-ac01-6e414e900656,.b9296a19-dc8e-4f79-8131-fb9dcd0173a3,.e7714756-865d-4afb-bd55-d6465d2950d7,.e8a7f703-a92f-4962-8324-b3369a21c4c7,.eaf6022e-1d75-4a05-8786-341dde921d72,.eda3aecd-6226-46e8-9a10-4da2b4f96f74,.f20c3dbb-6c87-45c0-b4b7-90d622bd6f1c,.f6807c87-a4db-417b-a549-41694b1a6004{stroke-miterlimit:10;}.a48822d1-cb22-45e0-adbb-fc56f1c6f211,.a64e12d9-5e25-4560-8a76-d022be3c3325,.b4cd3129-470e-47a6-a41f-77b0f27d87b1,.b72ffa81-9300-4058-851d-ffcd6e66243c,.b74eb100-29d4-4a93-ac01-6e414e900656,.b9296a19-dc8e-4f79-8131-fb9dcd0173a3,.e7714756-865d-4afb-bd55-d6465d2950d7,.e8a7f703-a92f-4962-8324-b3369a21c4c7,.eaf6022e-1d75-4a05-8786-341dde921d72,.eda3aecd-6226-46e8-9a10-4da2b4f96f74,.f20c3dbb-6c87-45c0-b4b7-90d622bd6f1c{stroke-width:0.5px;}.a6cfdbe9-14f5-49f9-9657-da3b999a36b1{fill:#443840;}.a5f1019a-59c7-4045-a453-d7475f95b0b7,.a6cfdbe9-14f5-49f9-9657-da3b999a36b1,.b74eb100-29d4-4a93-ac01-6e414e900656{stroke:#090000;}.a5f1019a-59c7-4045-a453-d7475f95b0b7,.a6cfdbe9-14f5-49f9-9657-da3b999a36b1{stroke-width:0.75px;}.b74eb100-29d4-4a93-ac01-6e414e900656{fill:#6b0c05;}.fe8bd4fe-1d9a-4a88-b101-2e7015aab26f{fill:#86382f;}.a5f1019a-59c7-4045-a453-d7475f95b0b7{fill:#8b8b8b;}.a2c61c9f-0a57-4270-ba34-31d6614832f5{stroke:#373737;}.e8a7f703-a92f-4962-8324-b3369a21c4c7,.f6807c87-a4db-417b-a549-41694b1a6004{fill:#fdb813;}.e7714756-865d-4afb-bd55-d6465d2950d7{fill:#bf0000;}.b72ffa81-9300-4058-851d-ffcd6e66243c{fill:#dc6e05;}.eaf6022e-1d75-4a05-8786-341dde921d72{fill:#12e600;}.f20c3dbb-6c87-45c0-b4b7-90d622bd6f1c{fill:#fff500;}.eda3aecd-6226-46e8-9a10-4da2b4f96f74{fill:#0b47ce;}.a64e12d9-5e25-4560-8a76-d022be3c3325{fill:#f9f9f9;}.b4cd3129-470e-47a6-a41f-77b0f27d87b1,.f294f9f0-88ca-423e-bc09-36ca876b71d5{fill:#282826;}.a1f6ee1c-ce43-4a7d-992a-cd3e109e1aef{fill:#151312;}.f172ea75-9689-4db9-a171-57a05c6f3e90{fill:#555353;}.a43d1790-95ed-41b5-8cc9-a79b39f822ba{fill:#008aa6;}.fd260a38-1977-4d54-8988-adf72eb451bf{fill:#ae7a82;}.a8ecb537-08f4-4ecb-ae62-dcc3ae399347{fill:url(#f2a70c0a-69e2-4f17-b4a3-8a9a9d376b72);}.bb479a7d-c416-426a-bd20-8d5576fd3585{fill:url(#a2766d0e-027a-4091-8b1b-2797ae9ea37e);}.b8638fdf-1067-4dd0-8182-a81e97683389{fill:#0000ef;}.f5ee58c1-e134-4223-a80e-0870f7c50077{fill:url(#fab0f4e0-8983-4ffb-b122-e1a6c93e8a88);}.a0e2bf14-5f84-452a-bc2c-34b960ea55b2{fill:url(#f703e10a-1411-427f-859e-f7781f84898d);}.a857f66b-93a9-492c-82df-39721af061d8{fill:url(#ac1f9462-696d-4cb3-a8fe-10c6071c6bfd);}.b5d515e7-2678-46e2-b59a-244aa118d463{fill:url(#ff52deb5-f56f-4e58-b702-8b5d056afde6);}.b0e62815-9d38-4788-9fba-f9a6d5d2bf36{fill:url(#bc4c1607-1c17-4c5f-a0d0-dac745f5b206);}.b3be416a-f581-4b8c-b2d7-bbe34a76989d{fill:url(#bf67133e-1de9-487a-a537-e684aac393ca);}.e4e63f10-c76f-49a3-99c9-4f0d7afcc366{fill:#930303;}.a6667b6b-0d2c-4d75-a260-623375318592{fill:url(#e3e709ca-aafe-4268-866b-836da6447699);}.b833b00b-917a-4908-8e13-b497627aa430{fill:url(#a2e7aaac-fde1-4820-8405-397a11953ce8);}.ff7aa0a1-49c1-40a2-a6bf-727d794e6609{fill:url(#a379b5df-80ee-412c-9770-1cca660794d0);}.f8655223-31ca-4c88-aebb-0a71889c9f3d{fill:url(#ae10ebfc-1d13-447a-acb9-67dc45ac9336);}.a0757d1e-01d5-496c-825c-8d2281d1253a{fill:url(#e1603c02-4e16-48df-b71e-b5abb5d4507c);}.e4c05bcc-678a-443b-9137-d80205cac252{fill:url(#a951986d-1804-4fb4-81c9-4e1f9f8bc3c2);}.f28f57bd-edf7-4b47-b4fc-b8c8507ce4f2{fill:#030303;}.a464c857-5097-45e8-8eb2-887f162c98f9{fill:#fdfdfd;}.a48e482a-ffb8-44a9-96aa-8a29ca4abd4e{fill:#f6cb14;}.b4fe7eb8-9a93-47c5-afe3-5df3279f957a{fill:#e7e7e7;}.afb66bb4-860d-4def-8f6f-3e2a8a08ffb2{fill:#2c2b29;}.bfdb734a-4a16-481b-a9d0-ebe4ee6d4a51{fill:#2785db;}.bdf669e3-1b59-482e-9844-c374945b2991{fill:#44c047;}.bfe243e3-cdfb-4493-867f-10cd4ca771b2{fill:#eb1416;}</style><radialGradient id="f2a70c0a-69e2-4f17-b4a3-8a9a9d376b72" cx="65.88" cy="348.77" r="11.47" gradientUnits="userSpaceOnUse"><stop offset="0" stop-color="#fd6d66"/><stop offset="0.78" stop-color="#b50a03"/></radialGradient><radialGradient id="a2766d0e-027a-4091-8b1b-2797ae9ea37e" cx="195.83" cy="370.99" r="11.47" xlink:href="#f2a70c0a-69e2-4f17-b4a3-8a9a9d376b72"/><radialGradient id="fab0f4e0-8983-4ffb-b122-e1a6c93e8a88" cx="92.36" cy="393.88" r="5.66" gradientTransform="translate(0 157.55) scale(1 0.6)" gradientUnits="userSpaceOnUse"><stop offset="0" stop-color="#0000ef"/><stop offset="0.15" stop-color="#0000e9"/><stop offset="0.34" stop-color="#0101d9"/><stop offset="0.56" stop-color="#0101be"/><stop offset="0.79" stop-color="#02029a"/><stop offset="1" stop-color="#020282"/></radialGradient><radialGradient id="f703e10a-1411-427f-859e-f7781f84898d" cx="114.61" cy="393.88" r="5.66" xlink:href="#fab0f4e0-8983-4ffb-b122-e1a6c93e8a88"/><radialGradient id="ac1f9462-696d-4cb3-a8fe-10c6071c6bfd" cx="133.17" cy="400.04" r="5.66" gradientTransform="translate(0 160.02) scale(1 0.6)" xlink:href="#fab0f4e0-8983-4ffb-b122-e1a6c93e8a88"/><radialGradient id="ff52deb5-f56f-4e58-b702-8b5d056afde6" cx="139.21" cy="387.78" r="5.66" gradientTransform="translate(0 155.11) scale(1 0.6)" xlink:href="#fab0f4e0-8983-4ffb-b122-e1a6c93e8a88"/><radialGradient id="bc4c1607-1c17-4c5f-a0d0-dac745f5b206" cx="121.61" cy="382.1" r="5.66" gradientTransform="translate(0 152.84) scale(1 0.6)" xlink:href="#fab0f4e0-8983-4ffb-b122-e1a6c93e8a88"/><radialGradient id="bf67133e-1de9-487a-a537-e684aac393ca" cx="100.32" cy="382.53" r="5.66" gradientTransform="translate(0 153.01) scale(1 0.6)" xlink:href="#fab0f4e0-8983-4ffb-b122-e1a6c93e8a88"/><radialGradient id="e3e709ca-aafe-4268-866b-836da6447699" cx="225.51" cy="404.67" r="5.66" xlink:href="#f2a70c0a-69e2-4f17-b4a3-8a9a9d376b72"/><radialGradient id="a2e7aaac-fde1-4820-8405-397a11953ce8" cx="246.79" cy="404.24" r="5.66" xlink:href="#f2a70c0a-69e2-4f17-b4a3-8a9a9d376b72"/><radialGradient id="a379b5df-80ee-412c-9770-1cca660794d0" cx="264.4" cy="409.93" r="5.66" xlink:href="#f2a70c0a-69e2-4f17-b4a3-8a9a9d376b72"/><radialGradient id="ae10ebfc-1d13-447a-acb9-67dc45ac9336" cx="258.36" cy="422.19" r="5.66" xlink:href="#f2a70c0a-69e2-4f17-b4a3-8a9a9d376b72"/><radialGradient id="e1603c02-4e16-48df-b71e-b5abb5d4507c" cx="239.79" cy="416.02" r="5.66" xlink:href="#f2a70c0a-69e2-4f17-b4a3-8a9a9d376b72"/><radialGradient id="a951986d-1804-4fb4-81c9-4e1f9f8bc3c2" cx="217.55" cy="416.02" r="5.66" xlink:href="#f2a70c0a-69e2-4f17-b4a3-8a9a9d376b72"/></defs><polygon id="a25b7203-9a5b-4a0b-a63b-90a013d2205d" data-name="ombre" class="a91d17b8-f94b-46bd-a233-e392934dcf88" points="453 589.31 474.52 583.4 482.43 583.4 486.38 583.4 487.97 586.36 725.33 629.66 736.41 629.66 747.48 661.05 701.07 698.76 654.65 711.95 646.47 710.63 646.74 708.78 632.76 706.15 549.15 734.1 475.83 785.67 453 792.49 445.24 791.33 445.24 788.7 429.15 785.67 299.16 820.04 453 589.31"/><g id="f8a4a609-b0e5-4910-b75b-f23148cd32a9" data-name="bottom"><polygon class="e00e5a65-bca9-46c1-8ca6-13a373bc91bd" points="36.97 455.08 261.88 494.7 261.88 499.05 287.59 505.18 287.2 816.52 38.96 769.25 36.97 455.08"/><path class="a48822d1-cb22-45e0-adbb-fc56f1c6f211" d="M202,526.54,123.62,512.8c-3,.19-4.26,3.56-4.26,3.56l.2,85c.69,2.18,3.86,5,3.86,5l74.27,13.46c5.14.49,7.52-5.25,7.52-5.25V531.88A7.12,7.12,0,0,0,202,526.54ZM152.1,549.09l-18.69-3.46v-20l2.27-1.88,18.1,3.07L152,529.51Zm31.45,6.13-18.69-3.46v-20l2.27-1.87,18.1,3.06-1.78,2.67Z"/><polygon class="a6cfdbe9-14f5-49f9-9657-da3b999a36b1" points="135.68 523.77 133.41 525.65 133.41 545.63 152.1 549.09 152 529.51 153.78 526.84 135.68 523.77"/><polygon class="a6cfdbe9-14f5-49f9-9657-da3b999a36b1" points="167.13 529.9 164.86 531.78 164.86 551.76 183.55 555.22 183.45 535.64 185.23 532.97 167.13 529.9"/><polygon class="b74eb100-29d4-4a93-ac01-6e414e900656" points="141.12 543.55 141.12 530.7 149.13 532.48 149.13 545.04 141.12 543.55"/><polygon class="b74eb100-29d4-4a93-ac01-6e414e900656" points="172.18 549.39 172.18 536.53 180.19 538.31 180.19 550.87 172.18 549.39"/><polygon points="136.21 543.68 136.21 528.46 138.25 528.85 138.25 544.01 136.21 543.68"/><polygon points="167.66 549.22 167.66 533.99 169.7 534.39 169.7 549.55 167.66 549.22"/><polygon class="fe8bd4fe-1d9a-4a88-b101-2e7015aab26f" points="141.38 531.21 141.38 530.86 148.85 532.66 148.86 533.09 141.38 531.21"/><polygon class="fe8bd4fe-1d9a-4a88-b101-2e7015aab26f" points="172.44 537.14 172.44 536.85 179.9 538.49 179.92 538.84 172.44 537.14"/><circle class="a5f1019a-59c7-4045-a453-d7475f95b0b7" cx="193.37" cy="575.37" r="4.25"/><polygon class="a2c61c9f-0a57-4270-ba34-31d6614832f5" points="137.26 599.24 137.26 587.96 149.23 590.14 149.23 601.44 137.26 599.24"/><polygon class="a2c61c9f-0a57-4270-ba34-31d6614832f5" points="168.52 604.77 168.52 593.5 180.48 595.67 180.48 606.55 168.52 604.77"/></g><g id="fab89f95-9b2b-4a67-b32f-e8657ac33a6a" data-name="t molding"><path class="f6807c87-a4db-417b-a549-41694b1a6004" d="M11.46,450.59l-.79-39.76L1,407.66v45.1l27.89,5.54c.59,103.55,1,207.6,1.58,311.15A6.18,6.18,0,0,0,34,771.64a12.58,12.58,0,0,0,5,0L37,455.08Z"/><path class="f6807c87-a4db-417b-a549-41694b1a6004" d="M272.36,497V455.73l-10.28-1.19-.2,44.51,25.71,6.13s-1.51,313.85,0,315.69,8.77,1.32,8.77,1.32l.93-319.91Z"/><polygon class="f6807c87-a4db-417b-a549-41694b1a6004" points="79.7 346.94 71.55 345.64 87.81 127.08 96.84 128.59 79.7 346.94"/><polygon class="f6807c87-a4db-417b-a549-41694b1a6004" points="330.22 389.37 339.32 390.65 357.81 166.34 331.44 166.34 331.18 75.42 321.12 73.58 321.12 168.42 327.15 169.51 347.43 169.51 330.22 389.37"/><path class="f6807c87-a4db-417b-a549-41694b1a6004" d="M88.49,127.19s-28.17-.35-29.11-.85c0-31.21.06-62.83,0-94l9.36,2.64L69.22,124Z"/><g id="f09c9062-7bc9-4589-b9b7-b75dd839ae07" data-name="clair"><polygon class="f6807c87-a4db-417b-a549-41694b1a6004" points="0.98 407.66 10.67 410.83 78.98 346.77 70.87 344.83 0.98 407.66"/><polygon class="f6807c87-a4db-417b-a549-41694b1a6004" points="262.08 454.54 272.36 455.73 339.32 389.86 330.7 388.26 262.08 454.54"/><polygon class="f6807c87-a4db-417b-a549-41694b1a6004" points="112.54 0.52 59.4 32.3 68.76 34.94 121.34 3.82 124.08 2.2 121.5 1.84 112.54 0.52"/><polygon class="f6807c87-a4db-417b-a549-41694b1a6004" points="384.71 41.14 373.5 40.34 321.12 73.58 331.18 75.42 384.71 41.14"/></g></g><g id="b58e6e50-7f5e-49fb-9ab4-bd6ab88155a1" data-name="side"><polygon class="a48822d1-cb22-45e0-adbb-fc56f1c6f211" points="454.11 309.16 454.74 149.53 384.71 41.14 331.18 75.42 331.44 166.34 357.81 166.34 339.32 390.65 272.36 455.73 272.36 497 297.29 502.28 296.36 822.19 304.61 815.87 454.25 272.17 454.04 293.68 311.95 810.23 310.34 811.47 317.28 806.15 454.11 309.16 454.11 309.16"/><polygon class="a48822d1-cb22-45e0-adbb-fc56f1c6f211" points="325.04 799.67 317.28 806.15 329.27 796.95 453.97 343.71 454.02 331.58 325.04 799.67"/><polygon class="a48822d1-cb22-45e0-adbb-fc56f1c6f211" points="336.41 791.47 335.09 792.49 341.95 787.22 453.75 379.58 453.75 400.83 453.97 343.71 453.75 367.71 336.41 791.47"/><polygon class="a48822d1-cb22-45e0-adbb-fc56f1c6f211" points="343.97 785.67 452.56 702.39 453.74 402.55 348.38 782.3 343.97 785.67"/><polygon class="e7714756-865d-4afb-bd55-d6465d2950d7" points="304.61 815.87 310.34 811.47 304.61 815.87 304.61 815.87"/><polygon class="e8a7f703-a92f-4962-8324-b3369a21c4c7" points="454.04 293.68 454.25 272.17 304.61 815.87 310.34 811.47 311.95 810.23 454.04 293.68"/><polygon class="b72ffa81-9300-4058-851d-ffcd6e66243c" points="454.11 331.26 454.11 309.16 454.02 331.58 454.11 331.26"/><polygon class="b72ffa81-9300-4058-851d-ffcd6e66243c" points="317.28 806.15 317.28 806.15 317.28 806.15 317.28 806.15"/><polygon class="b9296a19-dc8e-4f79-8131-fb9dcd0173a3" points="454.02 331.58 454.11 309.16 454.11 309.16 317.28 806.15 317.28 806.15 325.04 799.67 454.02 331.58"/><polygon class="eaf6022e-1d75-4a05-8786-341dde921d72" points="453.97 343.71 453.97 343.71 453.97 343.71 453.97 343.71"/><polygon class="eaf6022e-1d75-4a05-8786-341dde921d72" points="329.27 796.95 335.09 792.49 329.27 796.95 329.27 796.95"/><polygon class="f20c3dbb-6c87-45c0-b4b7-90d622bd6f1c" points="335.09 792.49 336.41 791.47 453.75 367.71 453.97 343.71 453.97 343.71 329.27 796.95 335.09 792.49"/><polygon class="eda3aecd-6226-46e8-9a10-4da2b4f96f74" points="341.95 787.22 343.97 785.67 341.95 787.22 341.95 787.22"/><polygon class="eda3aecd-6226-46e8-9a10-4da2b4f96f74" points="453.75 402.52 453.75 400.83 453.74 402.55 453.75 402.52"/><polygon class="a64e12d9-5e25-4560-8a76-d022be3c3325" points="341.95 787.22 343.97 785.67 348.38 782.3 453.74 402.55 453.75 400.83 453.75 379.58 341.95 787.22"/></g><g id="b09247f7-3b5d-4b73-bef7-73c72845a163" data-name="panel"><polygon class="b4cd3129-470e-47a6-a41f-77b0f27d87b1" points="11.46 450.59 261.88 494.7 262.08 454.54 10.67 410.83 11.46 450.59"/><polygon class="e00e5a65-bca9-46c1-8ca6-13a373bc91bd" points="80.35 345.73 10.67 410.83 262.08 454.54 330.7 388.26 80.35 345.73"/></g><g id="bfec9d63-6aa1-4145-bf4b-18e82a8d4916" data-name="ecran"><path class="b4cd3129-470e-47a6-a41f-77b0f27d87b1" d="M96.84,129.36,79.7,347.72l250.52,42.43L347.82,168Zm224.28,67.76c0,.2-.29.32-.48.49L310.21,342.44a35.43,35.43,0,0,1-4.3,3.78l1.4.29v10.7s-1.4,4.75-11.08,2.64c-11.19-2.44-178.55-31.91-178.55-31.91l8.72-6.78v-1.39s-2.46.52-6-7l-12.48,2.77h-4l11.34-158.77s4-6.85,10.81-6.59,191.16,30.59,191.16,30.59S323.4,181.84,321.12,197.12Z"/><path class="a1f6ee1c-ce43-4a7d-992a-cd3e109e1aef" d="M317.28,180S133,149.66,126.12,149.4,115.31,156,115.31,156L103.57,316.08h4.35l12.29-2.68c-.1-.23-.74-1.57-.85-1.8L131,166.54s2.11-5.54,7.12-7.38l177.49,27.16a20.77,20.77,0,0,1,5.11,9.76l-.05.75c.19-.17.62.66.66.47C324.56,183.24,317.28,180,317.28,180Z"/><path class="f172ea75-9689-4db9-a171-57a05c6f3e90" d="M125.32,320l-8.56,8s164.63,29.3,178.61,32.24c10.36,2.17,14.43-3.58,14.43-3.58l.61-7.37.39-7.71-4.89,3.84a20.85,20.85,0,0,1-7.73,3.87Z"/><path class="a43d1790-95ed-41b5-8cc9-a79b39f822ba" d="M319.5,197.81c.45-.36.83-.69,1.14-1l.66-.52a20.31,20.31,0,0,0-5.72-10L138.09,159.16c-5,1.84-7.12,7.38-7.12,7.38L119.36,311.6l.32.66c3.54,7.52,6.28,8,6.28,8l.44.08,171.78,28.93a20.85,20.85,0,0,0,7.73-3.87c2.57-1.91,4.89-3.84,4.89-3.84l10.5-145.29C320.86,196.73,320.25,197.23,319.5,197.81Z"/></g><g id="be912e4e-2342-4d54-8ae8-6792422a0aad" data-name="top"><polygon id="ac7f1a7e-1bed-44bd-8945-cac2848aa134" data-name="marquee" class="b4cd3129-470e-47a6-a41f-77b0f27d87b1" points="69.22 124.02 320.69 163.05 321.12 73.58 68.76 34.94 69.22 124.02"/><polygon class="aa01291e-ef56-4966-ab1c-3669b5b6ea15" points="129.81 3.16 124.08 2.2 68.76 34.94 321.12 73.58 373.5 40.34 129.81 3.16"/></g><g id="adbbbc5d-3c7a-492f-9242-53eb87652984" data-name="stickp1"><path class="f294f9f0-88ca-423e-bc09-36ca876b71d5" d="M68.92,377.27v5.16H62.4v-5.16c-5.06.64-8.77,2.7-8.77,5.16,0,3,5.38,5.35,12,5.35s12-2.39,12-5.35C77.69,380,74,377.91,68.92,377.27Z"/><path class="fd260a38-1977-4d54-8988-adf72eb451bf" d="M68.92,377.27V359.49a12.18,12.18,0,0,1-3,.39,12.4,12.4,0,0,1-3.48-.49v17.88a26.67,26.67,0,0,1,6.52,0Z"/><path class="fd260a38-1977-4d54-8988-adf72eb451bf" d="M68.92,382.43v-5.16a26.67,26.67,0,0,0-6.52,0v5.16Z"/><path class="a8ecb537-08f4-4ecb-ae62-dcc3ae399347" d="M68.92,358.89v.6a11.24,11.24,0,0,0,8.77-10.72c0-6.14-5.29-11.11-11.81-11.11s-11.82,5-11.82,11.11a11.22,11.22,0,0,0,8.34,10.62v-.5Z"/><path class="fd260a38-1977-4d54-8988-adf72eb451bf" d="M68.92,359.49v-.6H62.4v.5a12.4,12.4,0,0,0,3.48.49A12.18,12.18,0,0,0,68.92,359.49Z"/><path class="a8ecb537-08f4-4ecb-ae62-dcc3ae399347" d="M68.92,359.49v-.6H62.4v.5a12.4,12.4,0,0,0,3.48.49A12.18,12.18,0,0,0,68.92,359.49Z"/></g><g id="ed4941df-daaa-4c02-bb28-11f6ad66a603" data-name="stickp2"><path class="f294f9f0-88ca-423e-bc09-36ca876b71d5" d="M198.88,399.49v5.16h-6.53v-5.16c-5,.64-8.77,2.7-8.77,5.16,0,3,5.39,5.35,12,5.35s12-2.39,12-5.35C207.65,402.19,203.94,400.13,198.88,399.49Z"/><path class="fd260a38-1977-4d54-8988-adf72eb451bf" d="M198.88,399.49V381.71a12.2,12.2,0,0,1-3,.39,12.83,12.83,0,0,1-3.48-.49v17.88a26.75,26.75,0,0,1,6.53,0Z"/><path class="fd260a38-1977-4d54-8988-adf72eb451bf" d="M198.88,404.65v-5.16a26.75,26.75,0,0,0-6.53,0v5.16Z"/><path class="bb479a7d-c416-426a-bd20-8d5576fd3585" d="M198.88,381.11v.6A11.24,11.24,0,0,0,207.65,371c0-6.14-5.29-11.11-11.82-11.11S184,364.85,184,371a11.22,11.22,0,0,0,8.34,10.62v-.5Z"/><path class="fd260a38-1977-4d54-8988-adf72eb451bf" d="M198.88,381.71v-.6h-6.53v.5a12.83,12.83,0,0,0,3.48.49A12.2,12.2,0,0,0,198.88,381.71Z"/><path class="bb479a7d-c416-426a-bd20-8d5576fd3585" d="M198.88,381.71v-.6h-6.53v.5a12.83,12.83,0,0,0,3.48.49A12.2,12.2,0,0,0,198.88,381.71Z"/></g><g id="e8844e9d-6224-47a5-82cf-c1e675f7ea6d" data-name="boutons P1"><g id="e88c13c5-36b6-4fe2-8ca8-504d3682ad1c" data-name="4"><path class="b8638fdf-1067-4dd0-8182-a81e97683389" d="M92.54,389.14c-3.86,0-8.12,1.53-8.12,4.87,0,2.95,4.1,4.62,7.94,4.62,4.11,0,8-1.73,8-4.88C100.32,391.4,96.48,389.14,92.54,389.14Zm-.18,8.63c-3.86,0-7-1.74-7-3.89s3.13-3.89,7-3.89,7,1.74,7,3.89S96.22,397.77,92.36,397.77Z"/><path class="f5ee58c1-e134-4223-a80e-0870f7c50077" d="M92.36,390c-3.86,0-7,1.74-7,3.89s3.13,3.89,7,3.89,7-1.74,7-3.89S96.22,390,92.36,390Z"/></g><g id="f6992244-54f9-4b9b-8412-07cffb809654" data-name="5"><path class="b8638fdf-1067-4dd0-8182-a81e97683389" d="M114.79,389.14c-3.86,0-8.12,1.53-8.12,4.87,0,2.95,4.1,4.62,7.94,4.62,4.11,0,8-1.73,8-4.88C122.57,391.4,118.73,389.14,114.79,389.14Zm-.18,8.63c-3.86,0-7-1.74-7-3.89s3.13-3.89,7-3.89,7,1.74,7,3.89S118.47,397.77,114.61,397.77Z"/><path class="a0e2bf14-5f84-452a-bc2c-34b960ea55b2" d="M114.61,390c-3.86,0-7,1.74-7,3.89s3.13,3.89,7,3.89,7-1.74,7-3.89S118.47,390,114.61,390Z"/></g><g id="f49a12ec-640c-4532-9ec9-ce7e4ff516a0" data-name="6"><path class="b8638fdf-1067-4dd0-8182-a81e97683389" d="M133.35,395.3c-3.86,0-8.13,1.53-8.13,4.87,0,3,4.11,4.62,7.95,4.62,4.1,0,8-1.73,8-4.88C141.13,397.56,137.29,395.3,133.35,395.3Zm-.18,8.63c-3.86,0-7-1.74-7-3.89s3.13-3.89,7-3.89,7,1.74,7,3.89S137,403.93,133.17,403.93Z"/><path class="a857f66b-93a9-492c-82df-39721af061d8" d="M133.17,396.15c-3.86,0-7,1.74-7,3.89s3.13,3.89,7,3.89,7-1.74,7-3.89S137,396.15,133.17,396.15Z"/></g><g id="f9f71417-1f3c-488a-a31a-944ed2437d3b" data-name="3"><path class="b8638fdf-1067-4dd0-8182-a81e97683389" d="M139.39,383c-3.86,0-8.13,1.53-8.13,4.88,0,2.95,4.11,4.61,8,4.61,4.1,0,8-1.73,8-4.88C147.17,385.3,143.33,383,139.39,383Zm-.18,8.63c-3.86,0-7-1.74-7-3.89s3.13-3.89,7-3.89,7,1.75,7,3.89S143.07,391.67,139.21,391.67Z"/><path class="b5d515e7-2678-46e2-b59a-244aa118d463" d="M139.21,383.89c-3.86,0-7,1.75-7,3.89s3.13,3.89,7,3.89,7-1.74,7-3.89S143.07,383.89,139.21,383.89Z"/></g><g id="abed5ae1-4390-4011-bb8d-afdae23968c3" data-name="2"><path class="b8638fdf-1067-4dd0-8182-a81e97683389" d="M121.79,377.35c-3.86,0-8.12,1.53-8.12,4.88,0,2.95,4.1,4.61,7.94,4.61,4.11,0,8-1.73,8-4.88C129.57,379.62,125.73,377.35,121.79,377.35Zm-.18,8.64c-3.86,0-7-1.74-7-3.89s3.13-3.89,7-3.89,7,1.74,7,3.89S125.47,386,121.61,386Z"/><path class="b0e62815-9d38-4788-9fba-f9a6d5d2bf36" d="M121.61,378.21c-3.86,0-7,1.74-7,3.89s3.13,3.89,7,3.89,7-1.74,7-3.89S125.47,378.21,121.61,378.21Z"/></g><g id="a5ca644e-b276-4198-b695-68291d919e3d" data-name="1"><path class="b8638fdf-1067-4dd0-8182-a81e97683389" d="M100.5,377.78c-3.86,0-8.13,1.53-8.13,4.88,0,2.95,4.11,4.62,7.95,4.62,4.1,0,8-1.73,8-4.88C108.28,380.05,104.44,377.78,100.5,377.78Zm-.18,8.64c-3.86,0-7-1.74-7-3.89s3.13-3.89,7-3.89,7,1.74,7,3.89S104.18,386.42,100.32,386.42Z"/><path class="b3be416a-f581-4b8c-b2d7-bbe34a76989d" d="M100.32,378.64c-3.86,0-7,1.74-7,3.89s3.13,3.89,7,3.89,7-1.74,7-3.89S104.18,378.64,100.32,378.64Z"/></g></g><g id="f00ff8c6-0092-4948-a351-80657341d38f" data-name="boutons P2"><g id="b920f6f3-30ee-4c03-9d28-a786cb11c03d" data-name="1"><path class="e4e63f10-c76f-49a3-99c9-4f0d7afcc366" d="M225.69,399.93c-3.86,0-8.13,1.53-8.13,4.87,0,2.95,4.11,4.62,7.95,4.62,4.1,0,8-1.73,8-4.88C233.47,402.19,229.63,399.93,225.69,399.93Zm-.18,8.63c-3.86,0-7-1.74-7-3.89s3.13-3.89,7-3.89,7,1.74,7,3.89S229.37,408.56,225.51,408.56Z"/><path class="a6667b6b-0d2c-4d75-a260-623375318592" d="M225.51,400.78c-3.86,0-7,1.74-7,3.89s3.13,3.89,7,3.89,7-1.74,7-3.89S229.37,400.78,225.51,400.78Z"/></g><g id="b9e6c512-74c8-4051-94a8-e0fed0f967d9" data-name="2"><path class="e4e63f10-c76f-49a3-99c9-4f0d7afcc366" d="M247,399.49c-3.86,0-8.13,1.54-8.13,4.88,0,2.95,4.11,4.62,7.95,4.62,4.1,0,8-1.73,8-4.88C254.75,401.76,250.91,399.49,247,399.49Zm-.18,8.64c-3.86,0-7-1.74-7-3.89s3.13-3.89,7-3.89,7,1.74,7,3.89S250.65,408.13,246.79,408.13Z"/><path class="b833b00b-917a-4908-8e13-b497627aa430" d="M246.79,400.35c-3.86,0-7,1.74-7,3.89s3.13,3.89,7,3.89,7-1.74,7-3.89S250.65,400.35,246.79,400.35Z"/></g><g id="b704d8de-b14b-46a6-abf2-181f2b484c69" data-name="3"><path class="e4e63f10-c76f-49a3-99c9-4f0d7afcc366" d="M264.58,405.18c-3.86,0-8.12,1.53-8.12,4.88,0,2.95,4.1,4.61,7.94,4.61,4.1,0,8-1.73,8-4.88C272.36,407.44,268.52,405.18,264.58,405.18Zm-.18,8.64c-3.86,0-7-1.75-7-3.89s3.13-3.89,7-3.89,7,1.74,7,3.89S268.26,413.82,264.4,413.82Z"/><path class="ff7aa0a1-49c1-40a2-a6bf-727d794e6609" d="M264.4,406c-3.86,0-7,1.74-7,3.89s3.13,3.89,7,3.89,7-1.75,7-3.89S268.26,406,264.4,406Z"/></g><g id="addb58e8-2a3c-42a8-8c9d-0e837515ae69" data-name="4"><path class="e4e63f10-c76f-49a3-99c9-4f0d7afcc366" d="M258.54,417.44c-3.86,0-8.13,1.53-8.13,4.88,0,2.95,4.11,4.61,8,4.61,4.1,0,8-1.73,8-4.88C266.32,419.7,262.48,417.44,258.54,417.44Zm-.18,8.64c-3.86,0-7-1.75-7-3.89s3.13-3.89,7-3.89,7,1.74,7,3.89S262.22,426.08,258.36,426.08Z"/><path class="f8655223-31ca-4c88-aebb-0a71889c9f3d" d="M258.36,418.3c-3.86,0-7,1.74-7,3.89s3.13,3.89,7,3.89,7-1.75,7-3.89S262.22,418.3,258.36,418.3Z"/></g><g id="beaf9ec2-534f-4c84-8f99-9ef794576d65" data-name="5"><path class="e4e63f10-c76f-49a3-99c9-4f0d7afcc366" d="M240,411.28c-3.86,0-8.13,1.53-8.13,4.88,0,2.95,4.11,4.61,7.95,4.61,4.1,0,8-1.73,8-4.88C247.75,413.54,243.91,411.28,240,411.28Zm-.18,8.63c-3.86,0-7-1.74-7-3.89s3.13-3.89,7-3.89,7,1.75,7,3.89S243.65,419.91,239.79,419.91Z"/><path class="a0757d1e-01d5-496c-825c-8d2281d1253a" d="M239.79,412.13c-3.86,0-7,1.75-7,3.89s3.13,3.89,7,3.89,7-1.74,7-3.89S243.65,412.13,239.79,412.13Z"/></g><g id="a9b28215-f84f-4bd0-9300-68c573180646" data-name="6"><path class="e4e63f10-c76f-49a3-99c9-4f0d7afcc366" d="M217.73,411.28c-3.86,0-8.13,1.53-8.13,4.88,0,2.95,4.11,4.61,8,4.61,4.1,0,8-1.73,8-4.88C225.51,413.54,221.67,411.28,217.73,411.28Zm-.18,8.63c-3.86,0-7-1.74-7-3.89s3.13-3.89,7-3.89,7,1.75,7,3.89S221.41,419.91,217.55,419.91Z"/><path class="e4c05bcc-678a-443b-9137-d80205cac252" d="M217.55,412.13c-3.86,0-7,1.75-7,3.89s3.13,3.89,7,3.89,7-1.74,7-3.89S221.41,412.13,217.55,412.13Z"/></g></g><path class="f28f57bd-edf7-4b47-b4fc-b8c8507ce4f2" d="M303.06,144l-9-1.41c-.71-.12-.71-.12-.71-.77v-.65a18.77,18.77,0,0,1-2.2.31,12.34,12.34,0,0,1-2.42-.11c-2.28-.35-4.56-.67-6.84-1.08a11.37,11.37,0,0,1-8.35-5.51,4.22,4.22,0,0,0-.9-1.09,8.67,8.67,0,0,1-3.32-6.65q-.11-17.46-.15-34.95c0-3.91,3.05-6.62,7.41-6.63a15.52,15.52,0,0,1,2.44.19c3.66.58,7.32,1.14,11,1.73a12.45,12.45,0,0,1,6.9,3.29A8.68,8.68,0,0,1,298.72,93a3.62,3.62,0,0,0,.86,1.06,8.79,8.79,0,0,1,3.13,5.11c0,.14.1.16.21.19l0,13.49-2.77-.45c-.27,0-.38,0-.37.27,0,.58,0,1.15,0,1.72,0,.26.09.35.37.39.92.13,1.85.29,2.77.43Zm-12-7.93c0,.56,0,1,0,1.53,0,.3.06.42.43.48,2.38.35,4.75.73,7.12,1.11.31.05.43,0,.42-.3q-.06-13.23-.09-26.46c0-.32-.06-.45-.46-.51q-7.69-1.19-15.38-2.41c-.39-.06-.48,0-.47.37,0,2.09,0,4.17,0,6.25,0,.34.09.45.47.51,2.47.37,4.93.77,7.4,1.14.37,0,.49.15.49.5q0,5.85,0,11.7c0,.3-.07.37-.42.32q-6-1-12-1.88c-.34-.05-.45-.13-.45-.47q0-17-.14-34c0-.41.17-.41.53-.35q5.91.94,11.81,1.85c.44.07.56.17.56.58,0,3.43,0,6.87,0,10.3,0,.23-.1.46.37.52,2.41.36,4.82.75,7.23,1.13.27,0,.37,0,.37-.26,0-3.86,0-7.71-.09-11.58A6.89,6.89,0,0,0,297.09,92a10.7,10.7,0,0,0-6.68-3.71c-3.76-.64-7.51-1.19-11.27-1.78a16,16,0,0,0-1.68-.18c-4.45-.26-7.41,2.21-7.4,6.26q.06,17.31.15,34.61a7.38,7.38,0,0,0,1.47,4.36,10.28,10.28,0,0,0,6.69,4.1c2.49.48,5,.81,7.49,1.19a10.22,10.22,0,0,0,2.87,0A8.56,8.56,0,0,0,291.09,136.08Zm-9-32.64c0,1.57,0,3.15,0,4.72,0,.24,0,.43.37.49L293,110.29c.26,0,.34,0,.33-.25,0-.58,0-1.15,0-1.72,0-.3-.12-.37-.41-.41-.74-.1-1.49-.26-2.23-.33-.44,0-.53-.2-.53-.58,0-2.32,0-4.65,0-7,0-.33-.06-.46-.47-.52-2.37-.35-4.75-.72-7.12-1.11-.4-.07-.48,0-.47.37C282.07,100.32,282.07,101.88,282.07,103.44Zm.08,19.27c0,1.69,0,3.37,0,5.06,0,.31,0,.46.46.53,2.39.35,4.78.73,7.17,1.11.33.06.43,0,.42-.3q0-3.45,0-6.88c0-.3-.08-.4-.42-.45-1.43-.2-2.86-.45-4.29-.65-.42-.06-.52-.19-.51-.55,0-.84,0-1.7,0-2.55,0-.26-.09-.35-.37-.39-.67-.09-1.34-.18-2-.31-.4-.08-.48,0-.48.37C282.15,119.37,282.14,121,282.15,122.71Z"/><path class="f28f57bd-edf7-4b47-b4fc-b8c8507ce4f2" d="M85,55.24c5,.78,9.91,1.55,14.86,2.34a19.64,19.64,0,0,1,9.7,4.19,15.06,15.06,0,0,1,3.13,3.51,5.78,5.78,0,0,0,.92,1.12,12.52,12.52,0,0,1,4.2,9.08c0,3.19,0,6.38.1,9.58.13,5.16-3.33,8.44-7.77,9.44-.64.14-.64.14-.36.78q4.13,9.7,8.25,19.39c.16.37.13.45-.3.38q-4.29-.69-8.56-1.33a.63.63,0,0,1-.58-.47c-.39-.94-.81-1.88-1.2-2.82a.61.61,0,0,0-.54-.44c-1.29-.21-1.28-.22-1.78-1.37-2.36-5.57-4.73-11.14-7.12-16.75-.16.15-.1.34-.1.5q.09,9.52.21,19c0,.48-.13.56-.65.47q-4-.66-8.07-1.26c-.51-.07-.63-.23-.61-.66,0-.8,0-1.62,0-2.42,0-.3-.1-.4-.43-.44-.91-.12-1.82-.27-2.73-.41Zm1.15,25.85c.08,8.16.18,16.32.25,24.47,0,.36.08.5.53.57,2.21.32,4.43.67,6.65,1,.33,0,.46,0,.45-.33q-.21-18.83-.4-37.7c0-1.36,0-2.73-.05-4.1,0-.27.05-.36.38-.31,2.58.42,5.17.82,7.75,1.23a4.17,4.17,0,0,1,2.36,1.27,6.09,6.09,0,0,1,1.71,3.65,59.76,59.76,0,0,1,.14,7.07,5.27,5.27,0,0,1-.58,2.39c-.78,1.57-2,2.12-4,1.81-1.15-.18-2.3-.34-3.44-.55-.35-.06-.42,0-.41.32,0,1.3.11,2.62,0,3.9a10.93,10.93,0,0,0,1.32,6.09c.08.16.14.32.21.48q3.49,8.2,7,16.4a.52.52,0,0,0,.46.39l6.92,1.08c.31,0,.37,0,.23-.29-.46-1-.88-2.08-1.32-3.11q-3.47-8.13-6.93-16.26c-.16-.36-.11-.47.29-.52a10.24,10.24,0,0,0,3.19-.93c3-1.45,4.88-3.77,5-7.14.11-3.59,0-7.23-.07-10.86a11.4,11.4,0,0,0-3.87-8.07,17.71,17.71,0,0,0-9.65-4.65C95.6,57.66,91,57,86.34,56.23c-.44-.07-.48.05-.48.4Q86,68.87,86.14,81.09Zm11.52-6c0,1.76,0,3.52,0,5.28,0,.3.08.4.42.45,1.19.17,2.37.36,3.55.55a2.43,2.43,0,0,0,2.17-.6A3.6,3.6,0,0,0,105,78.49a68.16,68.16,0,0,0,0-7.29c0-.06,0-.13,0-.2,0-.33-.16-.45-.53-.51-2.11-.31-4.22-.63-6.33-1-.44-.07-.5,0-.5.4C97.63,71.65,97.64,73.39,97.66,75.14Z"/><path class="f28f57bd-edf7-4b47-b4fc-b8c8507ce4f2" d="M163.08,54.15l.06,7.47L166.22,58l.14,17.3.11,0c1.68-2.14,3.35-4.29,5.1-6.53l.06,7.61.12,0,2.94-3.75c.15.15.08.3.08.42q.21,25.55.41,51a1,1,0,0,1-.18.62l-8.86,11.48c-.08.1-.18.2-.35.38l-.06-7.59-.11-.05-3,3.87L162.42,107l-.13,0-5.74,7.45-.06-7.65-.11-.06-2.95,3.81a1,1,0,0,1-.07-.56q-.18-21.74-.38-43.51a1.19,1.19,0,0,1,.29-.82q4.75-5.57,9.49-11.14c.09-.11.26-.16.21-.35Zm-.52,27.7-.13,0-.2-25.21c-.11.07-.16.08-.19.11L154.11,66a1.1,1.1,0,0,0-.27.78q.18,20.28.35,40.51v.55l.09,0q4.38-5.7,8.77-11.38l.14.07.27,33.54c.19,0,.21-.1.26-.17q3.54-4.6,7.1-9.2a1.38,1.38,0,0,0,.31-1q-.19-24-.38-48c0-.1.05-.21-.09-.37Z"/><path class="f28f57bd-edf7-4b47-b4fc-b8c8507ce4f2" d="M220.47,63.15l.05,7.33.1,0,3-3.49.1,17.27.12,0c1.68-2.14,3.36-4.29,5.11-6.54l.05,7.6.11.07,3-3.85v.76q.15,25.37.29,50.67a1.09,1.09,0,0,1-.19.71l-8.87,11.46c-.07.1-.16.19-.3.35L223,138l-.13-.07-3,3.87L219.73,116l-.13,0-5.77,7.48-.05-7.64-.11-.06-2.89,3.73c-.18,0-.11-.17-.11-.25q-.13-21.9-.29-43.86a.9.9,0,0,1,.25-.64q4.77-5.56,9.51-11.14c.09-.11.27-.18.22-.38Zm-.86,2.53-.12-.09s0,.12-.08.16c-2.65,3.11-5.29,6.22-7.95,9.32a1.09,1.09,0,0,0-.24.75q.14,19.79.26,39.53v1.5l.1,0,8.8-11.41.14.07.21,33.61.17-.14c2.39-3.09,4.76-6.18,7.16-9.26a1.62,1.62,0,0,0,.34-1q-.15-24-.28-48c0-.07,0-.16-.13-.22l-8.1,10.38-.14-.08Z"/><path class="f28f57bd-edf7-4b47-b4fc-b8c8507ce4f2" d="M119.56,89.8c-.07-6.91-.07-13.81-.23-20.74-.1-4.78,3.61-7.42,8.37-7.05,1.58.12,3.16.44,4.75.68,2.14.32,4.29.65,6.44,1A12.61,12.61,0,0,1,145.78,67a9.28,9.28,0,0,1,1.86,2.46,2.73,2.73,0,0,0,.71.85,8.75,8.75,0,0,1,3.46,6.64Q152,98.5,152.2,120c0,.33-.08.41-.44.35-3-.49-6.07-1-9.1-1.42-.35-.06-.47-.15-.46-.48,0-.84,0-1.68,0-2.51,0-.39-.13-.48-.52-.53-.7-.08-1.41-.23-2.12-.31-.42-.05-.5-.18-.5-.54,0-5-.09-10-.12-15,0-.46-.14-.58-.63-.65q-2.9-.42-5.78-.91c-.45-.07-.57,0-.56.42.07,6.12.11,12.23.19,18.34,0,.45-.12.55-.62.46q-4-.66-8.06-1.26c-.43-.06-.56-.17-.55-.57,0-.8,0-1.61,0-2.41,0-.35-.07-.5-.5-.54-.72-.08-1.45-.24-2.18-.33-.38,0-.48-.17-.48-.51,0-2.91-.05-5.81-.08-8.72q-.06-6.54-.13-13.07Zm.84-.21h0q.11,10.69.19,21.39c0,.35.11.42.45.47,2.17.33,4.33.66,6.49,1,.46.08.56,0,.56-.42q-.12-9-.18-18.09c0-.78,0-.78.89-.64,2.12.33,4.25.65,6.38,1,.38.06.48,0,.47-.35q-.06-3.14-.06-6.27c0-.36-.08-.48-.5-.54-2.25-.33-4.51-.71-6.76-1-.35,0-.51-.11-.51-.49q0-7.58-.14-15.16c0-.38.11-.44.51-.37,3.57.57,7.13,1.14,10.7,1.67.51.08.61.22.61.66q.17,19.81.35,39.61c0,.67,0,1.35,0,2,0,.3.11.37.41.42,2.48.38,5,.76,7.46,1.16.32,0,.43,0,.42-.3q-.19-21-.37-42a7.46,7.46,0,0,0-.46-2.64,10.12,10.12,0,0,0-7.84-6.07c-3.67-.64-7.35-1.24-11-1.73-4.76-.63-8.38,1.74-8.27,6.43C120.34,76.07,120.34,82.83,120.4,89.59Zm18.37-6.5c0-2.27-.05-4.54-.05-6.81,0-.31-.08-.43-.46-.48-2-.31-4.07-.63-6.1-1-.34,0-.42,0-.42.32q.07,5.16.1,10.31c0,.31.07.43.44.49,1.17.15,2.33.39,3.49.52.6.07.75.28.69.76a7.8,7.8,0,0,0,0,1.08c0,.52-.19,1.2.11,1.54s1.13.22,1.72.37.55,0,.54-.43C138.8,87.56,138.79,85.33,138.77,83.09Z"/><path class="f28f57bd-edf7-4b47-b4fc-b8c8507ce4f2" d="M247,113.78v.68q.06,10.14.12,20.27c0,.44-.12.52-.6.44q-4.43-.72-8.86-1.39c-.42-.06-.56-.17-.54-.57,0-.81,0-1.64,0-2.45,0-.36-.12-.45-.49-.49-.76-.1-1.52-.25-2.28-.35-.32,0-.41-.15-.4-.42s0-.79,0-1.18q-.13-24.55-.29-49.17c0-.48.1-.61.67-.52,2.87.49,5.74.92,8.6,1.36a.67.67,0,0,1,.64.48c.37.92.81,1.84,1.17,2.77a.73.73,0,0,0,.68.51c1.13.16,1.13.17,1.56,1.18q3.85,9,7.7,18a.66.66,0,0,0,.25.34,4.29,4.29,0,0,0,0-.62q0-10.08-.11-20.17c0-.48.1-.61.66-.51,2.94.49,5.88.94,8.82,1.39.41.06.53.16.52.53,0,.78,0,1.58,0,2.37,0,.4.07.59.58.64.69.06,1.38.23,2.07.3.41,0,.51.17.51.54,0,2.79,0,5.59,0,8.38q.09,21,.2,41.88c0,.49-.16.55-.66.47-2.84-.47-5.69-.91-8.53-1.34a.78.78,0,0,1-.71-.54c-.37-.93-.79-1.84-1.16-2.77-.11-.28-.26-.43-.56-.41-1,0-1.37-.48-1.72-1.32-2.57-6.1-5.2-12.19-7.81-18.28Zm8.87-2.75c-.21-.1-.21-.25-.26-.37Q249.28,95.93,243,81.18a.72.72,0,0,0-.67-.5c-2.42-.36-4.83-.74-7.25-1.14-.44-.07-.57,0-.56.42q.15,24.44.27,48.81c0,.37.11.48.51.53q3.61.54,7.23,1.14c.47.08.55,0,.55-.43q-.1-13.5-.16-27v-.7a2.6,2.6,0,0,1,.41.71q6.24,14.58,12.45,29.14a.62.62,0,0,0,.59.45c2.46.38,4.92.76,7.39,1.16.33.05.46,0,.46-.33q-.1-17.32-.17-34.69c0-4.73-.05-9.46-.06-14.2,0-.35-.07-.47-.5-.54-2.43-.35-4.86-.74-7.29-1.14-.43-.07-.5,0-.5.39q.09,13,.14,26.07C255.83,109.88,255.84,110.44,255.84,111Z"/><path class="f28f57bd-edf7-4b47-b4fc-b8c8507ce4f2" d="M192.48,114.55l12.17,1.9c.81.13.81.13.82.89s0,1.51,0,2.26c0,.26.08.35.37.39.8.1,1.59.25,2.39.36.3,0,.41.12.41.42,0,2.7,0,5.41.05,8.11,0,.32-.1.36-.43.31Q194,127,179.8,124.75c-.35-.06-.47-.15-.46-.48,0-.83,0-1.68,0-2.51,0-.39-.14-.48-.52-.52-.75-.09-1.49-.24-2.24-.34-.3,0-.4-.14-.4-.42,0-2.54,0-5.09-.06-7.63a1.06,1.06,0,0,1,.19-.58L191.9,86c.31-.54.63-1.07.95-1.62a.92.92,0,0,0-.48-.13c-4-.62-8-1.26-11.94-1.85-.51-.08-.59-.24-.58-.64,0-.8,0-1.62,0-2.42,0-.3,0-.44-.44-.48-.78-.09-1.56-.25-2.35-.35-.28,0-.37-.14-.37-.4q0-4.1-.07-8.19c0-.43.27-.3.53-.26l20.12,3.15c2.72.43,5.45.87,8.18,1.27.5.08.6.23.58.64,0,.82,0,1.65,0,2.47,0,.28.08.38.39.42.78.1,1.56.25,2.34.36.31,0,.4.13.4.41,0,2.57,0,5.13.05,7.7a1.12,1.12,0,0,1-.2.57l-16.44,27.66A2.24,2.24,0,0,0,192.48,114.55Zm3.58-33.82c-.14.26-.23.46-.34.64l-18.54,31.21a1.31,1.31,0,0,0-.2.76c0,2.14.05,4.27,0,6.4,0,.37.1.48.51.54q13.31,2.07,26.61,4.16c.46.07.52-.06.52-.42,0-2.1-.06-4.2,0-6.29,0-.41-.11-.53-.56-.6l-17.31-2.69-.61-.1a1,1,0,0,1,0-.18l5.95-10q6.45-10.86,12.93-21.73a1.27,1.27,0,0,0,.16-.64c0-2.17,0-4.34,0-6.51,0-.35-.1-.45-.48-.51Q191.33,72.71,178,70.59c-.44-.07-.49.06-.49.41,0,2.09.06,4.18,0,6.27,0,.43.1.59.61.67,4.09.61,8.18,1.26,12.27,1.91Z"/><path class="a464c857-5097-45e8-8eb2-887f162c98f9" d="M291.09,136.08a8.56,8.56,0,0,1-2.36.72,10.22,10.22,0,0,1-2.87,0c-2.5-.38-5-.71-7.49-1.19a10.28,10.28,0,0,1-6.69-4.1,7.38,7.38,0,0,1-1.47-4.36q-.09-17.3-.15-34.61c0-4.05,2.95-6.52,7.4-6.26a16,16,0,0,1,1.68.18c3.76.59,7.51,1.14,11.27,1.78A10.7,10.7,0,0,1,297.09,92a6.89,6.89,0,0,1,1.78,4.24c.08,3.87.06,7.72.09,11.58,0,.27-.1.31-.37.26-2.41-.38-4.82-.77-7.23-1.13-.47-.06-.37-.29-.37-.52,0-3.43,0-6.87,0-10.3,0-.41-.12-.51-.56-.58q-5.91-.9-11.81-1.85c-.36-.06-.53-.06-.53.35q.09,17,.14,34c0,.34.11.42.45.47q6,.93,12,1.88c.35.05.42,0,.42-.32q0-5.85,0-11.7c0-.35-.12-.45-.49-.5-2.47-.37-4.93-.77-7.4-1.14-.38-.06-.47-.17-.47-.51,0-2.08,0-4.16,0-6.25,0-.34.08-.43.47-.37q7.69,1.23,15.38,2.41c.4.06.46.19.46.51q0,13.25.09,26.46c0,.33-.11.35-.42.3-2.37-.38-4.74-.76-7.12-1.11-.37-.06-.44-.18-.43-.48C291.11,137.13,291.09,136.64,291.09,136.08Z"/><path class="a464c857-5097-45e8-8eb2-887f162c98f9" d="M86.14,81.09Q86,68.86,85.86,56.63c0-.35,0-.47.48-.4,4.63.74,9.26,1.43,13.88,2.19a17.71,17.71,0,0,1,9.65,4.65,11.4,11.4,0,0,1,3.87,8.07c.06,3.63.18,7.27.07,10.86-.1,3.37-2,5.69-5,7.14a10.24,10.24,0,0,1-3.19.93c-.4.05-.45.16-.29.52q3.48,8.13,6.93,16.26c.44,1,.86,2.07,1.32,3.11.14.3.08.34-.23.29l-6.92-1.08a.52.52,0,0,1-.46-.39q-3.48-8.2-7-16.4c-.07-.16-.13-.32-.21-.48a10.93,10.93,0,0,1-1.32-6.09c.08-1.28,0-2.6,0-3.9,0-.3.06-.38.41-.32,1.14.21,2.29.37,3.44.55,2,.31,3.24-.24,4-1.81a5.27,5.27,0,0,0,.58-2.39,59.76,59.76,0,0,0-.14-7.07,6.09,6.09,0,0,0-1.71-3.65A4.17,4.17,0,0,0,101.7,66c-2.58-.41-5.17-.81-7.75-1.23-.33,0-.39,0-.38.31,0,1.37,0,2.74.05,4.1q.19,18.87.4,37.7c0,.36-.12.38-.45.33-2.22-.36-4.44-.71-6.65-1-.45-.07-.52-.21-.53-.57C86.32,97.41,86.22,89.25,86.14,81.09Z"/><path class="a48e482a-ffb8-44a9-96aa-8a29ca4abd4e" d="M162.56,81.85l8.11-10.41c.14.16.08.27.09.37q.18,24,.38,48a1.38,1.38,0,0,1-.31,1q-3.57,4.59-7.1,9.2c0,.07-.07.17-.26.17l-.27-33.54-.14-.07q-4.38,5.68-8.77,11.38l-.09,0v-.55q-.16-20.23-.35-40.51a1.1,1.1,0,0,1,.27-.78L162,56.71s.08,0,.19-.11l.2,25.21Z"/><path class="a48e482a-ffb8-44a9-96aa-8a29ca4abd4e" d="M219.61,65.68l.15,25.09.14.08L228,80.47c.17.06.13.15.13.22q.13,24,.28,48a1.62,1.62,0,0,1-.34,1c-2.4,3.08-4.77,6.17-7.16,9.26l-.17.14-.21-33.61-.14-.07-8.8,11.41-.1,0v-1.5q-.14-19.75-.26-39.53a1.09,1.09,0,0,1,.24-.75c2.66-3.1,5.3-6.21,7.95-9.32,0,0,.05-.11.08-.16Z"/><path class="a464c857-5097-45e8-8eb2-887f162c98f9" d="M120.4,89.59c-.06-6.76-.06-13.52-.21-20.3-.11-4.69,3.51-7.06,8.27-6.43,3.68.49,7.36,1.09,11,1.73a10.12,10.12,0,0,1,7.84,6.07,7.46,7.46,0,0,1,.46,2.64q.18,21,.37,42c0,.32-.1.35-.42.3-2.49-.4-5-.78-7.46-1.16-.3,0-.42-.12-.41-.42,0-.66,0-1.34,0-2q-.18-19.8-.35-39.61c0-.44-.1-.58-.61-.66-3.57-.53-7.13-1.1-10.7-1.67-.4-.07-.52,0-.51.37q.09,7.59.14,15.16c0,.38.16.44.51.49,2.25.34,4.51.72,6.76,1,.42.06.5.18.5.54q0,3.14.06,6.27c0,.34-.09.41-.47.35-2.13-.35-4.26-.67-6.38-1-.9-.14-.9-.14-.89.64q.08,9.06.18,18.09c0,.41-.1.5-.56.42-2.16-.36-4.32-.69-6.49-1-.34,0-.44-.12-.45-.47q-.07-10.68-.19-21.39Z"/><path class="a464c857-5097-45e8-8eb2-887f162c98f9" d="M255.84,111c0-.59,0-1.15,0-1.72q-.06-13-.14-26.07c0-.36.07-.46.5-.39,2.43.4,4.86.79,7.29,1.14.43.07.5.19.5.54,0,4.74,0,9.47.06,14.2q.07,17.35.17,34.69c0,.36-.13.38-.46.33-2.47-.4-4.93-.78-7.39-1.16a.62.62,0,0,1-.59-.45q-6.21-14.56-12.45-29.14a2.6,2.6,0,0,0-.41-.71v.7q.08,13.52.16,27c0,.39-.08.51-.55.43q-3.61-.6-7.23-1.14c-.4-.05-.51-.16-.51-.53q-.12-24.38-.27-48.81c0-.42.12-.49.56-.42,2.42.4,4.83.78,7.25,1.14a.72.72,0,0,1,.67.5q6.28,14.75,12.59,29.48C255.63,110.78,255.63,110.93,255.84,111Z"/><path class="a464c857-5097-45e8-8eb2-887f162c98f9" d="M196.06,80.73l-5.64-.88c-4.09-.65-8.18-1.3-12.27-1.91-.51-.08-.62-.24-.61-.67,0-2.09,0-4.18,0-6.27,0-.35,0-.48.49-.41q13.36,2.11,26.72,4.19c.38.06.48.16.48.51,0,2.17,0,4.34,0,6.51a1.27,1.27,0,0,1-.16.64q-6.48,10.86-12.93,21.73l-5.95,10a1,1,0,0,0,0,.18l.61.1,17.31,2.69c.45.07.56.19.56.6,0,2.09,0,4.19,0,6.29,0,.36-.06.49-.52.42q-13.3-2.1-26.61-4.16c-.41-.06-.51-.17-.51-.54,0-2.13,0-4.26,0-6.4a1.31,1.31,0,0,1,.2-.76l18.54-31.21C195.83,81.19,195.92,81,196.06,80.73Z"/><path class="b4fe7eb8-9a93-47c5-afe3-5df3279f957a" d="M229.27,235.71v.06l-5.91-1v-.08Z"/><path class="b4fe7eb8-9a93-47c5-afe3-5df3279f957a" d="M237.26,237.05a.11.11,0,0,1,0,0l-5.71-.95a.13.13,0,0,1,0-.06Z"/><path class="afb66bb4-860d-4def-8f6f-3e2a8a08ffb2" d="M210.87,271.89l-65.55-11c-.88-.15-.87-.15-.74-.93.25-1.53.47-3.07.74-4.6.78-4.31,1.49-8.64,2.23-13,.08-.48.21-.95.29-1.44,0-.17.12-.22.3-.19l.76.13,119.31,20a15.84,15.84,0,0,1,4.68,1.41,11.57,11.57,0,0,1,5.68,5.91,8.21,8.21,0,0,1,.62,3.87c0,.39-.08.77-.14,1.15-.52,3.12-1,6.23-1.57,9.35-.06.39-.12.43-.53.36l-40.11-6.71Zm14.69-7.7h0q-.59,3.54-1.18,7.07c0,.24,0,.34.3.39l2.92.48c.52.09.52.09.59-.36q.7-4.22,1.4-8.43c0-.09,0-.22.12-.23s.13.1.17.18c1.7,3.13,3.44,6.25,5.06,9.42a2.4,2.4,0,0,0,3.56.59c.9-.94,1.91-1.79,2.87-2.68l4.89-4.53c.08-.07.14-.21.26-.17s0,.21,0,.31a.51.51,0,0,1,0,.13q-.69,4.18-1.4,8.36c0,.25,0,.36.31.4,1,.16,2,.33,3.07.52.34.06.44,0,.49-.32l2.31-13.83a1.29,1.29,0,0,0-.25-1,2.32,2.32,0,0,0-3.25-.36c-.73.65-1.44,1.31-2.16,2l-8.14,7.44c-.25.23-.28.22-.45-.09q-3.31-6.09-6.62-12.17A2.08,2.08,0,0,0,229,256.2a1.73,1.73,0,0,0-2.34,1.32Zm-4.52-.71h0c.39-2.3.77-4.61,1.16-6.91a1.28,1.28,0,0,0-.45-1.21,2.38,2.38,0,0,0-3.16,0c-2.39,2.23-4.83,4.42-7.25,6.63l-3,2.7c-.12.11-.22.24-.37,0-1.14-2.11-2.29-4.21-3.43-6.31l-3.3-6.06a2.26,2.26,0,0,0-2.21-1,1.5,1.5,0,0,0-1.5,1.38c-.77,4.57-1.53,9.14-2.31,13.71,0,.27.06.36.35.41,1,.15,2,.32,3,.49.45.08.46.08.52-.3.46-2.73.91-5.46,1.37-8.18,0-.14,0-.27.05-.41s0-.16.11-.16.11.07.14.13l.27.51c1.63,3,3.29,6,4.89,9.08a2.33,2.33,0,0,0,3.34.59c.48-.47,1-.91,1.48-1.37l6.51-6c.05-.05.09-.14.18-.11s.08.14.06.22c-.13.81-.27,1.63-.41,2.44q-.51,3.1-1,6.21c0,.21,0,.32.28.36,1,.15,2,.32,3,.49.43.08.45.07.51-.31C220.27,268.11,220.66,265.8,221,263.48Zm33.16,5.67h0c-.38,2.29-.76,4.57-1.16,6.85,0,.31.06.41.38.46,1,.15,2,.31,3,.5.34.06.46,0,.5-.31.16-1,.35-2.08.52-3.12,0-.24.11-.33.39-.29q6.39,1.08,12.78,2.14c.32.06.39.18.34.45-.19,1-.35,2.08-.53,3.12-.05.26,0,.36.32.4,1,.15,2,.32,3,.49.45.08.46.08.53-.34.4-2.44.82-4.87,1.22-7.31a6.91,6.91,0,0,0-2.51-6.53,12.51,12.51,0,0,0-6.37-3c-2.37-.42-4.75-.8-7.12-1.2-.73-.12-1.45-.25-2.18-.35a1.62,1.62,0,0,0-1.91,1.29C255,264.69,254.57,266.92,254.2,269.15ZM192,258.73h0l1.14-6.79a1.48,1.48,0,0,0,0-.47,1.91,1.91,0,0,0-1.62-1.33l-4.65-.77c-1.84-.29-3.66-.71-5.52-.86a11.53,11.53,0,0,0-7,1.38,6.55,6.55,0,0,0-3.37,4.67L169.7,262c-.06.39-.06.4.37.47,1,.16,2,.31,2.92.49.34.06.46,0,.5-.31.16-1,.35-2.06.51-3.09,0-.29.16-.35.48-.3q6.33,1.08,12.67,2.12c.33.06.42.17.36.46-.18,1-.34,2.08-.53,3.12,0,.25,0,.35.32.4,1,.15,2,.32,3,.5.33.07.44,0,.49-.31C191.19,263.3,191.58,261,192,258.73Zm-38.31,1h0l6.47,1.08a7.81,7.81,0,0,0,2.77,0,3.9,3.9,0,0,0,3.33-2.92c.65-3.77,1.27-7.55,1.91-11.32.05-.27,0-.38-.34-.42-1-.16-2-.32-3-.51-.35-.07-.45,0-.5.34-.61,3.71-1.24,7.43-1.86,11.14a1.09,1.09,0,0,1-1.25,1,4.41,4.41,0,0,1-.72-.08l-3.06-.53-7-1.16c-.27,0-.35-.14-.3-.38.11-.58.19-1.17.3-1.76.06-.28,0-.4-.35-.45-.84-.12-1.68-.26-2.51-.42-.34-.06-.45,0-.49.33-.24,1.48-.49,3-.74,4.44-.07.42-.07.42.42.5Z"/><path class="afb66bb4-860d-4def-8f6f-3e2a8a08ffb2" d="M231.54,236.15l5.71.95c.16.09.16.21.13.36-.37,2.17-.72,4.34-1.1,6.51-.05.29,0,.37.34.42l9.26,1.54c.33,0,.35.16.32.44-.06.68-.23,1.33-.33,2-.22,1.55-.53,3.09-.79,4.64-.11.59-.18,1.18-.27,1.78,0,.2-.12.3-.39.26l-15.15-2.54c-.65-.11-.65-.12-.55-.69q1.28-7.68,2.57-15.37C231.31,236.3,231.3,236.14,231.54,236.15Zm3.93,12.69h0c-.13.78-.25,1.57-.4,2.35,0,.26,0,.37.33.42,1.06.17,2.12.34,3.17.53.32.06.44,0,.48-.3l.78-4.66c0-.24,0-.35-.3-.39q-1.62-.25-3.24-.54c-.28-.05-.4,0-.44.28C235.74,247.3,235.6,248.07,235.47,248.84Z"/><path class="afb66bb4-860d-4def-8f6f-3e2a8a08ffb2" d="M256.34,247.69,264,249c.33,0,.42.17.37.46-.48,2.77-.93,5.54-1.4,8.3-.06.38-.1.41-.51.34l-15.35-2.57c-.27,0-.34-.15-.3-.39.47-2.81,1-5.61,1.41-8.42,0-.29.18-.33.46-.28l7.68,1.28Zm1.31,4.88h0c.13-.8.26-1.61.41-2.41,0-.22,0-.36-.3-.4l-3.44-.58c-.27,0-.39,0-.42.28-.27,1.61-.54,3.23-.82,4.84,0,.25.06.37.34.41,1.12.18,2.25.37,3.37.57.3.05.42,0,.46-.3C257.37,254.17,257.51,253.37,257.65,252.57Z"/><path class="afb66bb4-860d-4def-8f6f-3e2a8a08ffb2" d="M174.24,243.3,166.6,242c-.31-.05-.38-.14-.33-.41q.72-4.22,1.41-8.43c0-.24.14-.31.41-.27l15.35,2.58c.42.07.44.11.37.48-.26,1.56-.52,3.11-.77,4.67,0,.3-.17.37-.5.31l-9.23-1.55c-.45-.08-.45-.08-.52.32s-.1.7-.18,1.05,0,.35.31.39c2.05.33,4.11.68,6.16,1,1.06.17,2.11.36,3.17.52.32,0,.42.18.37.45a10.73,10.73,0,0,0-.19,1.11c0,.3-.19.37-.51.32Zm.92-5.46h0l1.68.28c.26,0,.36,0,.39-.25.05-.39.12-.78.2-1.17,0-.21,0-.32-.27-.36l-3.4-.56c-.22,0-.33,0-.36.22-.06.41-.11.83-.19,1.24,0,.22.07.29.29.33C174.06,237.65,174.61,237.75,175.16,237.84Z"/><path class="afb66bb4-860d-4def-8f6f-3e2a8a08ffb2" d="M212,240.26l7.64,1.28c.44.08.5.15.42.53-.43,2-.69,4-1,6-.13.74-.26,1.48-.36,2.22,0,.29-.15.38-.49.32-2.09-.37-4.18-.71-6.26-1.06l-9-1.5c-.43-.07-.44-.09-.37-.48.26-1.55.53-3.11.77-4.66.05-.33.18-.38.52-.32l9.15,1.54c.46.08.46.08.53-.33s.09-.66.17-1,0-.4-.35-.45l-7-1.17-2.3-.38c-.24,0-.33-.12-.28-.33.08-.42.16-.85.21-1.27s.15-.32.43-.27l5.37.9,2.27.38Zm-1.14,7.24h0l1.65.28c.21,0,.34,0,.37-.21l.21-1.24c0-.19,0-.29-.27-.33l-3.34-.55c-.24,0-.34,0-.37.24-.06.39-.12.78-.2,1.17,0,.23.05.33.3.36Z"/><path class="afb66bb4-860d-4def-8f6f-3e2a8a08ffb2" d="M269.45,249.88c.87.14,1.74.3,2.61.43.32.05.39.18.34.43s-.13.8-.2,1.2c-.05.21,0,.31.27.35,1.12.17,2.24.36,3.35.56.29.05.38,0,.42-.27.06-.41.14-.82.19-1.24,0-.22.15-.27.37-.23l5.41.9c.21,0,.3.13.26.33-.08.43-.15.86-.21,1.3,0,.23-.16.29-.41.24-.45-.08-.9-.14-1.34-.23-.24-.05-.33,0-.36.23,0,.41-.14.81-.19,1.21,0,.23-.15.3-.4.25l-1.41-.24c-.17,0-.24,0-.29.16-.14.44-.08.91-.25,1.35-.07.17.07.23.24.26.46.07.92.16,1.38.22.28,0,.38.15.32.41s-.12.78-.2,1.17c0,.22,0,.31.28.34.44.07.89.16,1.34.22.24,0,.34.13.29.37-.08.41-.16.84-.21,1.26,0,.23-.15.28-.36.25L280,261l-4.61-.78c-.45-.07-.45-.07-.38-.48s.11-.77.19-1.14,0-.31-.27-.35c-1.15-.18-2.3-.38-3.44-.57-.22,0-.29,0-.32.2-.06.41-.15.8-.19,1.21s-.18.37-.5.32l-4.71-.79c-1.16-.19-.93-.11-.8-1,0-.25.08-.5.11-.75s.16-.29.41-.24c.44.08.9.14,1.34.23.26.05.39,0,.42-.25s.14-.79.18-1.18.16-.3.41-.25c.46.08.92.14,1.38.23.21,0,.29,0,.32-.2q.09-.63.21-1.26c0-.21,0-.28-.26-.32-.46-.06-.91-.15-1.37-.22-.25,0-.34-.13-.29-.36.09-.39.13-.78.21-1.17,0-.23,0-.35-.32-.39-.45-.06-.89-.15-1.34-.21-.25,0-.34-.15-.3-.37.08-.42.16-.84.21-1.27,0-.24.17-.28.41-.24Z"/><path class="afb66bb4-860d-4def-8f6f-3e2a8a08ffb2" d="M223.35,234.8l5.91,1a.39.39,0,0,1,.05.36q-1.31,7.78-2.6,15.56c0,.28-.16.38-.47.31s-.89-.19-1.34-.26l-3.89-.62c-.45-.07-.45-.08-.38-.48q1.29-7.75,2.59-15.5C223.24,235,223.23,234.89,223.35,234.8Z"/><path class="afb66bb4-860d-4def-8f6f-3e2a8a08ffb2" d="M192.42,246.34l-7.68-1.28c-.31-.05-.41-.14-.36-.43.49-2.8,1-5.6,1.41-8.4,0-.26.15-.33.43-.28l15.35,2.57c.31,0,.42.17.37.45s-.12.72-.19,1.08-.13.4-.55.33l-4.17-.69c-1.69-.29-3.37-.56-5.06-.86-.27,0-.36,0-.4.26-.22,1.39-.46,2.78-.69,4.17,0,.09,0,.18,0,.27-.12.6-.12.6.58.72l8.91,1.49c.42.07.46.11.39.5s-.14.72-.17,1.09-.19.34-.48.29l-1.69-.29Z"/><path class="bfdb734a-4a16-481b-a9d0-ebe4ee6d4a51" d="M291.78,280.62c-.25,1.47-.5,2.94-.74,4.41-.07.41-.07.41-.52.34-1.42-.24-2.84-.49-4.27-.71-.27-.05-.36-.13-.3-.38s.08-.41.12-.61-.06-.27-.26-.29-.32,0-.48-.06c-.39-.06-.49,0-.51.37,0,.06,0,.13,0,.19,0,.44-.14.51-.62.43l-4.2-.7c-.32-.05-.4-.18-.35-.45.49-3,1-5.9,1.48-8.86.06-.36.15-.41.56-.33,2.94.59,5.91,1,8.87,1.52.51.09,1,.14,1.55.23s.47.1.4.51c-.25,1.46-.49,2.92-.74,4.39Zm-8.38-.18h0l1.59.27c.22,0,.32,0,.35-.22.09-.6.19-1.2.3-1.79,0-.22-.05-.31-.28-.34l-3.13-.53c-.22,0-.32,0-.35.22-.09.6-.19,1.19-.3,1.79,0,.21,0,.31.28.34Zm5.47-1.49h0c-.51-.09-1-.16-1.54-.26-.25-.05-.36,0-.4.23-.09.6-.18,1.19-.29,1.79,0,.22.06.29.29.32,1,.16,2,.33,3,.51.27,0,.39,0,.42-.26.09-.57.18-1.13.28-1.7.05-.23,0-.35-.3-.39Z"/><path class="bdf669e3-1b59-482e-9844-c374945b2991" d="M293.58,269.82l-.75,4.45c-.06.37-.1.4-.52.33l-2.85-.48c-.41-.07-.5-.17-.44-.54.14-.85.29-1.7.43-2.56,0,0,0-.06,0-.09.2-.63.11-.53.72-.44l1.48.25c.25.05.4,0,.43-.25l.3-1.76c0-.21,0-.33-.3-.37l-8-1.34c-.27,0-.39.05-.43.28-.08.57-.18,1.13-.28,1.7,0,.22.05.36.31.4l3.07.52a.25.25,0,0,0,.33-.17,2,2,0,0,0,.12-.63c0-.19.11-.24.27-.29a.45.45,0,0,1,.2,0c.85.1.89.14.76.89-.21,1.25-.42,2.51-.62,3.76,0,.26-.17.35-.43.3l-5.43-.91c-.49-.08-.55-.14-.48-.58.49-2.95,1-5.91,1.48-8.86,0-.17.09-.24.28-.22s.55,0,.82.07l9.78,1.64c.54.09.55.1.47.59-.24,1.44-.48,2.88-.73,4.32Z"/><path class="bfe243e3-cdfb-4493-867f-10cd4ca771b2" d="M290.55,253.29c1.74.3,3.49.59,5.23.87.31.05.41.13.36.43q-.76,4.46-1.5,8.92c0,.29-.15.37-.49.31-1.39-.25-2.8-.47-4.2-.71-.35-.06-.42-.15-.35-.47,0-.11,0-.22.07-.34.08-.46.08-.46-.46-.55l-.2,0c-.51-.08-.51-.08-.55.4,0,.17-.09.33-.11.51s-.18.2-.34.17l-4.45-.74c-.22,0-.32-.15-.28-.36.17-1,.34-2,.5-3.06.05-.27.24-.26.46-.23l1.82.31c.8.14,1.61.23,2.4.43.26.07.45,0,.48-.27.08-.57.17-1.14.28-1.7.06-.27,0-.37-.34-.42-1.41-.23-2.82-.48-4.24-.7-.28-.05-.4-.12-.34-.41.17-1,.33-2,.48-3,0-.25.15-.32.43-.27Zm1.48,6.43h0l1.55.26c.22,0,.35,0,.38-.21.09-.61.2-1.21.31-1.82,0-.2,0-.31-.27-.35l-3.1-.52c-.21,0-.31,0-.34.21-.1.63-.2,1.26-.31,1.88,0,.19,0,.27.24.3C291,259.54,291.52,259.64,292,259.72Z"/><path class="afb66bb4-860d-4def-8f6f-3e2a8a08ffb2" d="M157.65,231.17l7.54,1.26c.52.09.53.1.44.58s-.12.69-.17,1.05-.15.32-.44.27l-9.29-1.56c-.33-.06-.41,0-.45.3-.36,2.16-.73,4.32-1.07,6.48-.05.31-.2.37-.51.32q-2.59-.45-5.2-.87c-.29-.05-.39-.14-.35-.42q.72-4.2,1.41-8.4c.05-.3.19-.34.48-.29Z"/><path class="b4fe7eb8-9a93-47c5-afe3-5df3279f957a" d="M225.56,264.19l1.11-6.67A1.73,1.73,0,0,1,229,256.2a2.08,2.08,0,0,1,1.42,1.05q3.3,6.09,6.62,12.17c.17.31.2.32.45.09l8.14-7.44c.72-.66,1.43-1.32,2.16-2a2.32,2.32,0,0,1,3.25.36,1.29,1.29,0,0,1,.25,1L249,275.32c-.05.29-.15.38-.49.32-1-.19-2-.36-3.07-.52-.3,0-.35-.15-.31-.4q.7-4.17,1.4-8.36a.51.51,0,0,0,0-.13c0-.1.11-.25,0-.31s-.18.1-.26.17l-4.89,4.53c-1,.89-2,1.74-2.87,2.68a2.4,2.4,0,0,1-3.56-.59c-1.62-3.17-3.36-6.29-5.06-9.42,0-.08-.05-.19-.17-.18s-.1.14-.12.23q-.69,4.21-1.4,8.43c-.07.45-.07.45-.59.36l-2.92-.48c-.28,0-.34-.15-.3-.39q.6-3.52,1.18-7.07Z"/><path class="b4fe7eb8-9a93-47c5-afe3-5df3279f957a" d="M221,263.48c-.38,2.32-.77,4.63-1.16,6.95-.06.38-.08.39-.51.31-1-.17-2-.34-3-.49-.27,0-.32-.15-.28-.36q.52-3.11,1-6.21c.14-.81.28-1.63.41-2.44,0-.08.07-.18-.06-.22s-.13.06-.18.11l-6.51,6c-.49.46-1,.9-1.48,1.37a2.33,2.33,0,0,1-3.34-.59c-1.6-3-3.26-6.05-4.89-9.08l-.27-.51c0-.06-.05-.14-.14-.13s-.09.1-.11.16,0,.27-.05.41c-.46,2.72-.91,5.45-1.37,8.18-.06.38-.07.38-.52.3-1-.17-2-.34-3-.49-.29,0-.39-.14-.35-.41.78-4.57,1.54-9.14,2.31-13.71a1.5,1.5,0,0,1,1.5-1.38,2.26,2.26,0,0,1,2.21,1l3.3,6.06c1.14,2.1,2.29,4.2,3.43,6.31.15.26.25.13.37,0l3-2.7c2.42-2.21,4.86-4.4,7.25-6.63a2.38,2.38,0,0,1,3.16,0,1.28,1.28,0,0,1,.45,1.21c-.39,2.3-.77,4.61-1.16,6.91Z"/><path class="b4fe7eb8-9a93-47c5-afe3-5df3279f957a" d="M254.2,269.15c.37-2.23.75-4.46,1.12-6.7a1.62,1.62,0,0,1,1.91-1.29c.73.1,1.45.23,2.18.35,2.37.4,4.75.78,7.12,1.2a12.51,12.51,0,0,1,6.37,3,6.91,6.91,0,0,1,2.51,6.53c-.4,2.44-.82,4.87-1.22,7.31-.07.42-.08.42-.53.34-1-.17-2-.34-3-.49-.29,0-.37-.14-.32-.4.18-1,.34-2.08.53-3.12,0-.27,0-.39-.34-.45q-6.39-1-12.78-2.14c-.28,0-.36.05-.39.29-.17,1-.36,2.07-.52,3.12,0,.29-.16.37-.5.31-1-.19-2-.35-3-.5-.32,0-.43-.15-.38-.46.4-2.28.78-4.56,1.16-6.85Zm10.47,2.4c2.12.35,4.24.7,6.36,1.07.3.05.44,0,.46-.29s.08-.51.13-.77a4.3,4.3,0,0,0-1.54-4.21,8.57,8.57,0,0,0-4-1.85c-2.25-.43-4.51-.78-6.77-1.17-.33-.06-.36.13-.39.33-.3,1.8-.59,3.59-.9,5.37-.05.29,0,.41.36.46C260.45,270.83,262.56,271.19,264.67,271.55Z"/><path class="b4fe7eb8-9a93-47c5-afe3-5df3279f957a" d="M192,258.73c-.38,2.29-.77,4.57-1.14,6.86,0,.29-.16.38-.49.31-1-.18-2-.35-3-.5-.29,0-.37-.15-.32-.4.19-1,.35-2.08.53-3.12.06-.29,0-.4-.36-.46q-6.35-1.05-12.67-2.12c-.32-.05-.44,0-.48.3-.16,1-.35,2.06-.51,3.09,0,.3-.16.37-.5.31-1-.18-2-.33-2.92-.49-.43-.07-.43-.08-.37-.47l1.26-7.48a6.55,6.55,0,0,1,3.37-4.67,11.53,11.53,0,0,1,7-1.38c1.86.15,3.68.57,5.52.86l4.65.77a1.91,1.91,0,0,1,1.62,1.33,1.48,1.48,0,0,1,0,.47L192,258.73Zm-10.68-1.14h0l6.34,1.06c.31.06.43,0,.48-.29.29-1.81.6-3.62.91-5.43,0-.26,0-.37-.34-.42-2-.32-4-.66-6-1a11.36,11.36,0,0,0-3.77,0,4.86,4.86,0,0,0-3.8,2.54,7.14,7.14,0,0,0-.52,2c-.07.41-.07.41.39.49Z"/><path class="b4fe7eb8-9a93-47c5-afe3-5df3279f957a" d="M153.65,259.76l-7-1.17c-.49-.08-.49-.08-.42-.5.25-1.48.5-3,.74-4.44,0-.29.15-.39.49-.33.83.16,1.67.3,2.51.42.32,0,.41.17.35.45-.11.59-.19,1.18-.3,1.76,0,.24,0,.34.3.38l7,1.16,3.06.53a4.41,4.41,0,0,0,.72.08,1.09,1.09,0,0,0,1.25-1c.62-3.71,1.25-7.43,1.86-11.14.05-.31.15-.41.5-.34,1,.19,2,.35,3,.51.3,0,.39.15.34.42-.64,3.77-1.26,7.55-1.91,11.32a3.9,3.9,0,0,1-3.33,2.92,7.81,7.81,0,0,1-2.77,0l-6.47-1.08Z"/><path class="afb66bb4-860d-4def-8f6f-3e2a8a08ffb2" d="M264.67,271.55c-2.11-.36-4.22-.72-6.33-1.06-.35-.05-.41-.17-.36-.46.31-1.78.6-3.57.9-5.37,0-.2.06-.39.39-.33,2.26.39,4.52.74,6.77,1.17a8.57,8.57,0,0,1,4,1.85,4.3,4.3,0,0,1,1.54,4.21c-.05.26-.1.51-.13.77s-.16.34-.46.29C268.91,272.25,266.79,271.9,264.67,271.55Z"/><path class="afb66bb4-860d-4def-8f6f-3e2a8a08ffb2" d="M181.28,257.59l-6.3-1c-.46-.08-.46-.08-.39-.49a7.14,7.14,0,0,1,.52-2,4.86,4.86,0,0,1,3.8-2.54,11.36,11.36,0,0,1,3.77,0c2,.34,4,.68,6,1,.31,0,.38.16.34.42-.31,1.81-.62,3.62-.91,5.43,0,.29-.17.35-.48.29l-6.34-1.06Z"/></svg>