<svg id="baa59f73-6cd0-44c4-928e-978fe42a1816" data-name="b6ddcd02-f928-4e67-9a53-31319260ed2a" xmlns="http://www.w3.org/2000/svg" xmlns:xlink="http://www.w3.org/1999/xlink" viewBox="0 0 88.6 232.52"><defs><style>.abab995a-c3d6-40ed-8c4e-176c1fd37a3a,.e8225a2d-2454-4a5c-8ad6-2fb09d3d4e8b{fill:#211c1d;}.e228dfc2-3cdb-4fdf-b8e7-f740661875d5{opacity:0.1;}.eb015ee8-d478-4763-a813-56d16097289c{fill:#808094;}.a53f911d-f6a2-4e7f-918e-527d7043a93b{fill:#6d6e6f;}.bd42e9a6-7def-4d65-addd-7dce8fafbf09{fill:url(#ea5a6121-3f7b-4e8d-9143-2b5cf93fe4f0);}.e8225a2d-2454-4a5c-8ad6-2fb09d3d4e8b{opacity:0.3;}.a1b32bf8-a8c1-4261-9181-eed11adac4da,.e80b884e-fcc1-4197-badf-9e9580798a17,.e8225a2d-2454-4a5c-8ad6-2fb09d3d4e8b{isolation:isolate;}.e80b884e-fcc1-4197-badf-9e9580798a17{opacity:0.15;fill:url(#a770f632-e5ad-4169-b046-96a7cf0f1db0);}.a1b32bf8-a8c1-4261-9181-eed11adac4da{opacity:0.4;fill:url(#a9169476-b574-4162-824b-2a29240d57b5);}.b2b86f26-2ba6-464c-924d-81293023cb19{fill:#fdb813;}.ac68e894-bcf8-4783-af56-f812b59a23c3{fill:#fff;}.b14ced28-4c0c-466e-9334-914466e0db29{fill:#fff500;}</style><linearGradient id="ea5a6121-3f7b-4e8d-9143-2b5cf93fe4f0" x1="-248.89" y1="-982.81" x2="-269.84" y2="-961.86" gradientTransform="matrix(0, -1, -1, 0, -928.52, -215.58)" gradientUnits="userSpaceOnUse"><stop offset="0" stop-color="#a4a5a9"/><stop offset="1" stop-color="#e6e6e7"/></linearGradient><linearGradient id="a770f632-e5ad-4169-b046-96a7cf0f1db0" x1="-269.8" y1="-982.8" x2="-248.92" y2="-961.93" gradientTransform="matrix(0, -1, -1, 0, -928.52, -215.58)" gradientUnits="userSpaceOnUse"><stop offset="0" stop-color="#211c1d" stop-opacity="0"/><stop offset="0.04" stop-color="#211c1d" stop-opacity="0.09"/><stop offset="0.5" stop-color="#211c1d"/><stop offset="0.95" stop-color="#211c1d" stop-opacity="0.09"/><stop offset="1" stop-color="#211c1d" stop-opacity="0"/></linearGradient><linearGradient id="a9169476-b574-4162-824b-2a29240d57b5" x1="-4491.71" y1="2701.45" x2="-4470.83" y2="2722.34" gradientTransform="matrix(0, 1, 1, 0, -2668.03, 4525.08)" gradientUnits="userSpaceOnUse"><stop offset="0" stop-color="#fff" stop-opacity="0"/><stop offset="0.5" stop-color="#fff"/><stop offset="1" stop-color="#fff" stop-opacity="0"/></linearGradient></defs><circle class="abab995a-c3d6-40ed-8c4e-176c1fd37a3a" cx="43.8" cy="43.8" r="43.8"/><g class="e228dfc2-3cdb-4fdf-b8e7-f740661875d5"><path class="eb015ee8-d478-4763-a813-56d16097289c" d="M43.8,3.2l-8.9,8.6h4.3v9.8h9.1V11.8h4.3ZM15.1,15.1l-.2,12.4L18,24.4l7,7L31.4,25l-7-7,3.1-3.1ZM3.2,43.8l8.6,8.9V48.4h9.8V39.3H11.8V35ZM15.1,72.5l12.4.2-3.1-3.1,7-7L25,56.2l-7,7-3.1-3.1ZM43.8,84.4l8.9-8.6H48.4V66H39.3v9.8H35ZM72.5,72.5l.2-12.4-3.1,3.1-7-7-6.4,6.4,7,7-3.1,3.1ZM84.4,43.8l-8.6-8.9v4.3H66v9.1h9.8v4.3ZM72.5,15.1l-12.4-.2L63.2,18l-7,7,6.4,6.4,7-7,3.1,3.1Z"/></g><path class="a53f911d-f6a2-4e7f-918e-527d7043a93b" d="M44.3,0a43.81,43.81,0,0,1,0,87.6h.5A43.8,43.8,0,0,0,44.8,0Z"/><circle class="bd42e9a6-7def-4d65-addd-7dce8fafbf09" cx="43.8" cy="43.8" r="14.8"/><circle class="e8225a2d-2454-4a5c-8ad6-2fb09d3d4e8b" cx="43.8" cy="43.8" r="11.8"/><path class="e80b884e-fcc1-4197-badf-9e9580798a17" d="M29.1,43.8A14.75,14.75,0,1,0,43.9,29,14.77,14.77,0,0,0,29.1,43.8Zm28.7.2A14.15,14.15,0,1,1,43.7,29.8,14.17,14.17,0,0,1,57.8,44Z"/><path class="a1b32bf8-a8c1-4261-9181-eed11adac4da" d="M58.6,43.8A14.75,14.75,0,1,0,43.9,58.6,14.75,14.75,0,0,0,58.6,43.8Zm-28.7-.2a14.1,14.1,0,1,1,28.2,0A14,14,0,0,1,44,57.7h0A14.08,14.08,0,0,1,29.9,43.6Z"/><circle class="b2b86f26-2ba6-464c-924d-81293023cb19" cx="32.8" cy="44" r="20.5"/><circle class="b2b86f26-2ba6-464c-924d-81293023cb19" cx="27.2" cy="141.1" r="17.5"/><circle cx="27.2" cy="141.2" r="13.9"/><circle class="b2b86f26-2ba6-464c-924d-81293023cb19" cx="61.4" cy="196.3" r="17.4"/><circle class="ac68e894-bcf8-4783-af56-f812b59a23c3" cx="61.4" cy="196.4" r="13.9"/><circle class="b2b86f26-2ba6-464c-924d-81293023cb19" cx="27.4" cy="178.1" r="17.4"/><circle class="b14ced28-4c0c-466e-9334-914466e0db29" cx="27.4" cy="178.2" r="13.9"/><circle class="b2b86f26-2ba6-464c-924d-81293023cb19" cx="61.4" cy="122" r="17.5"/><circle cx="61.4" cy="122.1" r="13.9"/><circle class="b2b86f26-2ba6-464c-924d-81293023cb19" cx="61.1" cy="159.3" r="17.5"/><circle class="b14ced28-4c0c-466e-9334-914466e0db29" cx="61.1" cy="159.5" r="13.9"/><circle class="b2b86f26-2ba6-464c-924d-81293023cb19" cx="27.43" cy="215.02" r="17.5"/><circle class="ac68e894-bcf8-4783-af56-f812b59a23c3" cx="27.4" cy="215.2" r="13.9"/></svg>