<svg id="ed24a5dc-fcfa-4660-8b87-169ec53f3e13" data-name="texte" xmlns="http://www.w3.org/2000/svg" xmlns:xlink="http://www.w3.org/1999/xlink" viewBox="0 0 470.33 67.41"><defs><style>.ec7072c7-4c9f-482f-9735-0d5f43e56847{stroke:#9def48;stroke-miterlimit:10;stroke-width:0.75px;fill:url(#ea049577-8511-421e-bfd7-d27274b3a7fd);}.ef178ab5-5e70-4c00-adc0-ab84c31b18b7{fill:#9def48;}</style><linearGradient id="ea049577-8511-421e-bfd7-d27274b3a7fd" x1="0.38" y1="33.7" x2="469.96" y2="33.7" gradientUnits="userSpaceOnUse"><stop offset="0" stop-color="#032c02"/><stop offset="1" stop-color="#207a09"/></linearGradient></defs><polygon class="ec7072c7-4c9f-482f-9735-0d5f43e56847" points="0.38 5.91 102.44 5.91 108.57 0.38 150.31 0.38 158.22 5.91 461.65 6.11 469.96 16 469.96 59.72 50.81 59.72 42.7 67.03 7.89 67.03 0.38 59.72 0.38 5.91"/><path class="ef178ab5-5e70-4c00-adc0-ab84c31b18b7" d="M85.6,39.42h2.33a15.25,15.25,0,0,0,1.88-5.29H69.08A14.88,14.88,0,0,0,71,39.42h2.31v3.49H69.09a15.13,15.13,0,0,1-3.54-8.78h-3.3V30.66h3.3a15,15,0,0,1,3.54-8.76h20.7a15.12,15.12,0,0,1,3.55,8.77l-1.51.85v1.76l1.51.85a15.2,15.2,0,0,1-3.55,8.78H85.6ZM69.08,30.66H89.81a15,15,0,0,0-1.88-5.27H71A14.66,14.66,0,0,0,69.08,30.66Z" transform="translate(-0.06 -0.03)"/><path class="ef178ab5-5e70-4c00-adc0-ab84c31b18b7" d="M102.1,37.06l-3.68,5.85H94.07l13.34-21h4l13.24,21h-4.29l-3.63-5.85Zm12.48-3.47-5.13-8.22-5.17,8.22Z" transform="translate(-0.06 -0.03)"/><path class="ef178ab5-5e70-4c00-adc0-ab84c31b18b7" d="M131.82,42.91h-3.49v-18l3.49-3.48Z" transform="translate(-0.06 -0.03)"/><path class="ef178ab5-5e70-4c00-adc0-ab84c31b18b7" d="M137.8,30.66h22.74a14.66,14.66,0,0,0-1.89-5.27h-17a14.84,14.84,0,0,0-1.26,2.77h-3.75a14.73,14.73,0,0,1,3.15-6.26h20.7a15.6,15.6,0,0,1,3.62,10.5l-1.58,1.73H139.82a14.7,14.7,0,0,0,1.87,5.29h17a16,16,0,0,0,1.28-2.77h3.75a14.79,14.79,0,0,1-3.15,6.26h-20.7a15.61,15.61,0,0,1-3.62-10.51Z" transform="translate(-0.06 -0.03)"/><path class="ef178ab5-5e70-4c00-adc0-ab84c31b18b7" d="M172,42.91h-3.49v-18L172,21.39Z" transform="translate(-0.06 -0.03)"/><path class="ef178ab5-5e70-4c00-adc0-ab84c31b18b7" d="M181.92,25.39a14,14,0,0,0-2,7,14,14,0,0,0,2,7h2.31v3.49H180a15.65,15.65,0,0,1-3.62-10.51A15.57,15.57,0,0,1,180,21.9h20.7a15.57,15.57,0,0,1,3.62,10.5,15.65,15.65,0,0,1-3.62,10.51h-4.19V39.42h2.33a14.09,14.09,0,0,0,2-7,14,14,0,0,0-2-7Z" transform="translate(-0.06 -0.03)"/><path class="ef178ab5-5e70-4c00-adc0-ab84c31b18b7" d="M235.15,30.66c0,.57.07,1.15.07,1.74a15.6,15.6,0,0,1-3.62,10.51H210.91a15.6,15.6,0,0,1-3.62-10.51,15.52,15.52,0,0,1,3.62-10.5H231.6a14.51,14.51,0,0,1,3.15,6.26H231a14.84,14.84,0,0,0-1.26-2.77h-17a14,14,0,0,0-2,7,14,14,0,0,0,2,7h17a15.25,15.25,0,0,0,1.88-5.29H219V30.66Z" transform="translate(-0.06 -0.03)"/></svg>