<svg id="fc400fdc-faad-4ba8-9047-64cafac201a0" data-name="texte" xmlns="http://www.w3.org/2000/svg" xmlns:xlink="http://www.w3.org/1999/xlink" viewBox="0 0 470.33 67.41"><defs><style>.b2fa32cb-d6ed-4732-9997-2f5b7ef58f83{stroke:#9def48;stroke-miterlimit:10;stroke-width:0.75px;fill:url(#b8eefa82-2fa4-4309-a8d9-3887f9d3bad8);}.b75dfa0e-70c1-4c02-b183-8f3f71a08149{fill:#9def48;}</style><linearGradient id="b8eefa82-2fa4-4309-a8d9-3887f9d3bad8" x1="0.38" y1="33.7" x2="469.96" y2="33.7" gradientUnits="userSpaceOnUse"><stop offset="0" stop-color="#032c02"/><stop offset="1" stop-color="#207a09"/></linearGradient></defs><polygon class="b2fa32cb-d6ed-4732-9997-2f5b7ef58f83" points="0.38 5.91 102.44 5.91 108.57 0.38 150.31 0.38 158.22 5.91 461.65 6.11 469.96 16 469.96 59.72 50.81 59.72 42.7 67.03 7.89 67.03 0.38 59.72 0.38 5.91"/><path class="b75dfa0e-70c1-4c02-b183-8f3f71a08149" d="M59.41,37.46l-3.56,5.65h-4.2l12.9-20.3h3.88l12.8,20.3H77.08l-3.51-5.65Zm12.06-3.35-5-7.95-5,8Z" transform="translate(-0.06 -0.03)"/><path class="b75dfa0e-70c1-4c02-b183-8f3f71a08149" d="M87.25,39.74h16.39A13.51,13.51,0,0,0,105.57,33a13.57,13.57,0,0,0-1.93-6.78h-2.25V22.81h4A15.09,15.09,0,0,1,108.94,33a15.05,15.05,0,0,1-3.5,10.15h-20A15,15,0,0,1,81.94,33a15.08,15.08,0,0,1,3.49-10.15h4v3.37H87.25A13.48,13.48,0,0,0,85.31,33,13.42,13.42,0,0,0,87.25,39.74Z" transform="translate(-0.06 -0.03)"/><path class="b75dfa0e-70c1-4c02-b183-8f3f71a08149" d="M125.45,40.24l-3.37,3.37V26.18h-11V22.81h25.41v3.37h-11Z" transform="translate(-0.06 -0.03)"/><path class="b75dfa0e-70c1-4c02-b183-8f3f71a08149" d="M162.1,43.11h-20A15.09,15.09,0,0,1,138.59,33a15.05,15.05,0,0,1,3.5-10.15h20A15.05,15.05,0,0,1,165.6,33,15.09,15.09,0,0,1,162.1,43.11Zm-1.8-3.37A13.65,13.65,0,0,0,162.22,33a13.62,13.62,0,0,0-1.92-6.78H143.9A13.55,13.55,0,0,0,142,33a13.58,13.58,0,0,0,1.94,6.78Z" transform="translate(-0.06 -0.03)"/><path class="b75dfa0e-70c1-4c02-b183-8f3f71a08149" d="M207,34.63a14.51,14.51,0,0,1-3.43,8.48h-20a14.51,14.51,0,0,1-3.43-8.48h-3.19V31.28h3.19a14.46,14.46,0,0,1,3.43-8.47h20A14.49,14.49,0,0,1,207,31.29l-1.46.82v1.7Zm-23.45-3.35h20a14.7,14.7,0,0,0-1.81-5.1h-16.4A14.55,14.55,0,0,0,183.52,31.28Zm0,3.35a14.67,14.67,0,0,0,1.83,5.11h16.4a14.82,14.82,0,0,0,1.81-5.11Z" transform="translate(-0.06 -0.03)"/><path class="b75dfa0e-70c1-4c02-b183-8f3f71a08149" d="M215.44,37.46l-3.56,5.65h-4.2l12.9-20.3h3.88l12.8,20.3h-4.15l-3.51-5.65Zm12.06-3.35-4.95-7.95-5,8Z" transform="translate(-0.06 -0.03)"/><path class="b75dfa0e-70c1-4c02-b183-8f3f71a08149" d="M247.4,40.24,244,43.61V26.18H233V22.81h25.4v3.37h-11Z" transform="translate(-0.06 -0.03)"/><path class="b75dfa0e-70c1-4c02-b183-8f3f71a08149" d="M275.63,40.24l-3.37,3.37V26.18h-11V22.81h25.4v3.37h-11Z" transform="translate(-0.06 -0.03)"/><path class="b75dfa0e-70c1-4c02-b183-8f3f71a08149" d="M293.56,39.74h15.27l1.94,3.37H290.19V25.68l3.37-3.37Z" transform="translate(-0.06 -0.03)"/><path class="b75dfa0e-70c1-4c02-b183-8f3f71a08149" d="M330,34.63H316a14.44,14.44,0,0,0,1.82,5.11h16.68l1.94,3.37H316a14.64,14.64,0,0,1-3.43-8.48h-3.18V31.28h3.18A14.59,14.59,0,0,1,316,22.81h20.43l-1.94,3.37H317.77a14.33,14.33,0,0,0-1.82,5.1h14Z" transform="translate(-0.06 -0.03)"/><path class="b75dfa0e-70c1-4c02-b183-8f3f71a08149" d="M358.26,39.74h2.25a14.61,14.61,0,0,0,1.81-5.11h-20a14.67,14.67,0,0,0,1.83,5.11h2.24v3.37H342.3a14.64,14.64,0,0,1-3.43-8.48h-3.18V31.28h3.18a14.59,14.59,0,0,1,3.43-8.47h20a14.54,14.54,0,0,1,3.42,8.48l-1.45.82v1.7l1.45.82a14.57,14.57,0,0,1-3.42,8.48h-4.05Zm-16-8.46h20a14.5,14.5,0,0,0-1.81-5.1h-16.4A14.55,14.55,0,0,0,342.28,31.28Z" transform="translate(-0.06 -0.03)"/></svg>