<?xml version="1.0" encoding="utf-8"?>
<!-- Generator: Adobe Illustrator 24.1.2, SVG Export Plug-In . SVG Version: 6.00 Build 0)  -->
<svg version="1.1" id="Calque_1" xmlns="http://www.w3.org/2000/svg" xmlns:xlink="http://www.w3.org/1999/xlink" x="0px" y="0px"
	 viewBox="0 0 523.4 301.6" style="enable-background:new 0 0 523.4 301.6;" xml:space="preserve">
<style type="text/css">
	.st0{fill:#002C4D;}
	.st1{fill:#F6F0DA;}
	.st2{fill:#9E8A62;}
	.st3{fill:#49587E;}
	.st4{fill:#9DA9B5;}
	.st5{fill:#00325D;}
	.st6{fill:#CF6F2E;}
	.st7{fill:#D1D2D2;}
	.st8{fill:#00386B;}
	.st9{fill:#0A1F30;}
	.st10{fill:#A48850;}
	.st11{fill:#2A3163;}
	.st12{fill:#638CB4;}
</style>
<g>
	<path class="st0" d="M513.6,75.3l-0.1-3.5l-0.2-4.7l-0.1-3.2l-0.2-5.5l-0.1-2.7l-0.2-6l-0.1-1.7l-0.2-6.3l-0.1-1.9l-0.2-6.4
		l-0.3-8.2C506.6,9.5,493.7,1,473.4,1C405,0.9,337.2,0,268.8,0h-1.4L65,3.1C40.5,3.1,30.4,6,21.6,28.5C-2.7,90.7-6.4,170.5,10,249.1
		c7.2,34.4,30.5,52.8,64.3,52c31.1-0.7,59-0.2,89.8-4.7c22.9-3.3,66.4-7.1,83.2-5.3c65,7,106.3,14.7,170.3,7.7
		c27.9-3.1,46.6-8.8,72.5-19.7c16.3-6.8,31.9-16.6,32.8-34.7h0C525.9,185.7,513.7,134.1,513.6,75.3z M433.1,230.5
		c-2.9,13.7-2.3,16.5-16.8,18.2c-15.9,1.8-51.8,7.4-67.8,8.5c-5.1,0.4-36.1,5.4-43.8,4.6c-5.8-0.6-2-7.8-10-12.8
		c-3.9-2.5-14.9-1.9-22.4-2.3c-4.8-0.3-8.3,0.7-10.7,2.2c-0.4,0.2-0.8,0.5-1.1,0.8c-2,1.6-3.1,3.5-3.3,5c-0.3,1.6-6.7,3.9-8.6,0
		c-1.8-3.8-6-7.8-11.7-7.7c-22.5,0.3-34.8,0-57.3,0.1c-6,0-12.5-1.3-17.5,3.2c-5,4.6-3.8,9.2-5.6,12.6c-1.2,2.3-10.5,2.7-16.2,1.5
		c-7.6-1.6-9-8.2-10.9-16.2c-7.7-31.5-12.5-64.2-13.3-96.1c-0.2-5.8,0-16,0-21.9c-0.2-33.6,5.5-61.5,13.5-94.3
		c6-24.4,6.8-26.6,31.9-26.6c85.1,0,157,2.1,237.6,12.5c19.6,2.5,24.8,3.7,28,15.3c5.2,18.5,9.3,40.7,11.5,59.3
		C444,142,442.8,184.8,433.1,230.5L433.1,230.5z"/>
	<path class="st1" d="M438.6,96.5c-2.2-18.6-6.3-40.8-11.5-59.3c-3.3-11.7-8.4-12.8-28-15.3C318.5,11.4,246.6,9.2,161.6,9.2
		c-25.2,0-25.9,2.2-31.9,26.6c-8,32.7-13.7,60.7-13.5,94.3c0,5.8-0.2,16,0,21.9c0.9,32,5.7,64.7,13.3,96.1c1.9,8,3.3,14.6,10.9,16.2
		c5.7,1.2,15,0.7,16.2-1.5c1.8-3.3,0.6-8,5.6-12.6c5-4.5,11.5-3.1,17.5-3.2c22.5-0.1,34.8,0.3,57.3-0.1c5.6-0.1,9.8,3.9,11.7,7.7
		c1.9,3.9,8.3,1.6,8.6,0c0.3-1.6,1.3-3.5,3.3-5c0.3-0.3,0.7-0.5,1.1-0.8c2.4-1.5,5.9-2.4,10.7-2.2c7.5,0.4,18.5-0.2,22.4,2.3
		c8,5,4.3,12.2,10,12.8c7.7,0.8,38.8-4.2,43.8-4.6c15.9-1.1,51.8-6.7,67.8-8.5c14.5-1.6,13.8-4.5,16.8-18.2l0,0
		C442.8,184.8,444,142,438.6,96.5z M418,216.3c-1.4,5.3-2.3,5-5,5h0l-266.2,0.6c-2.8,0-4.6-0.7-5.1-4.7c-1.6-11.9-3.8-23.8-5.9-44.1
		c-2.1-19.5-1.4-60.6,1.4-82.4c2.8-21.8,4.1-25.8,7.6-38c1-3.5,1.9-5.4,4.7-5.4h257.3c2.8,0,4.8,0.9,6.6,4.6
		c1.8,3.8,5.9,24.9,7.7,41.8c1.8,16.9,3.8,41.7,3.8,60.8C424.6,154.4,424,193,418,216.3z"/>
	<path class="st2" d="M413.2,51.9c-1.8-3.8-3.8-4.6-6.6-4.6H149.4c-2.8,0-3.7,2-4.7,5.4c-3.5,12.1-4.8,16.2-7.6,38
		c-2.8,21.8-3.5,62.9-1.4,82.4c2.2,20.3,4.3,32.2,5.9,44.1c0.5,4,2.3,4.7,5.1,4.7l266.2-0.6h0c2.8,0,3.6,0.3,5-5
		c6-23.2,6.7-61.9,6.7-61.9c0.1-19-2-43.9-3.8-60.8C419.1,76.8,415,55.6,413.2,51.9z M406.3,212.6c0,0.6-0.5,1.2-1.2,1.2H153.4
		c-0.6,0-1.2-0.5-1.2-1.2V53.9c0-0.6,0.5-1.2,1.2-1.2h251.7c0.6,0,1.2,0.5,1.2,1.2V212.6z"/>
</g>
<circle class="st3" cx="65" cy="206.3" r="44"/>
<circle class="st3" cx="70.2" cy="65.1" r="44"/>
<path class="st4" d="M507.2,199.6c0,3.8,0.7,15.4-9.3,16.7c-4.6,0.6-17.1-13.5-17.3-16.9c-0.3-4.1,12.6-17,17.1-16.4
	C507.7,184.4,507.2,195.8,507.2,199.6z"/>
<path class="st4" d="M481,229.3c-1.6,9.4-11.5,9.3-17,9.3c-5.5,0-15.4,0.5-16.8-9.2c-0.6-4.2,12.3-17.5,17.6-17.5
	C470.5,211.8,481.8,225.2,481,229.3L481,229.3z"/>
<path class="st5" d="M41.3,185l-4.1-5.9c0,0-0.8-2.4,0-2.2s0.8,0.3,0.8,0.3s2.6,1.4,3.3,2.2s11.2,10.1,12.8,11.5
	c1.6,1.4,7.7,7.1,11.2,7.1c3.8,0,6.7-2.6,8.8-4.1s19-14.7,19-14.7s1.9-1.2,2.8-0.4s-0.5,3-0.5,3s-20.5,20-21.4,22.1
	s-1.4,4.2,0.1,6.8c2.1,3.7,6.1,7,9.1,9.9c0,0,10.1,10.7,10.8,11.6s1.5,2.6,0.5,3.3s-8.8-5.8-8.8-5.8s-13.1-10.3-15-11.6
	s-6.1-3.9-11.2-0.4s-22.8,17.9-22.8,17.9s-2,0.7-2.5,0s20.3-21.8,20.3-21.8s3.1-3.2,3-6.7c-0.1-3.7-0.1-4.1-3-7.3
	C51.6,196.4,41.3,185,41.3,185z"/>
<path class="st5" d="M46.7,43.8l-4.1-5.9c0,0-0.8-2.4,0-2.2s0.8,0.3,0.8,0.3s2.6,1.4,3.3,2.2c0.8,0.8,11.2,10.1,12.8,11.5
	c1.6,1.4,7.7,7.1,11.2,7.2c3.8,0,6.7-2.6,8.8-4.1s19-14.7,19-14.7s1.9-1.2,2.8-0.4s-0.5,3-0.5,3s-20.5,20-21.4,22.1
	s-1.4,4.2,0.1,6.8c2.1,3.7,6.1,7,9.1,9.9c0,0,10.1,10.7,10.8,11.6s1.5,2.6,0.5,3.3s-8.8-5.8-8.8-5.8S78.1,78,76.3,76.7
	s-6.1-3.9-11.2-0.4S42.3,94.2,42.3,94.2s-2,0.7-2.5,0c-0.5-0.7,20.3-21.8,20.3-21.8s3.1-3.2,3-6.7c-0.1-3.7-0.1-4.1-3-7.3
	C57,55.2,46.7,43.8,46.7,43.8L46.7,43.8z"/>
<path class="st1" d="M189.6,265.8h-17.9c-3.4,0-6.2-2.8-6.2-6.2c0-3.4,2.8-6.2,6.2-6.2h17.9c3.4,0,6.2,2.8,6.2,6.2
	S193,265.8,189.6,265.8z"/>
<path class="st1" d="M236.4,265.8h-17.9c-3.4,0-6.2-2.8-6.2-6.2c0-3.4,2.8-6.2,6.2-6.2h17.9c3.4,0,6.2,2.8,6.2,6.2
	S239.8,265.8,236.4,265.8z"/>
<path class="st6" d="M287.4,265.8h-17.9c-3.4,0-6.2-2.8-6.2-6.2c0-3.4,2.8-6.2,6.2-6.2h17.9c3.4,0,6.2,2.8,6.2,6.2
	S290.8,265.8,287.4,265.8z"/>
<path class="st4" d="M71.1,192.9c0,0,3.6-3.3,9.5-9.5c5-5.2,2.9-11.8-0.8-13.7c-3.4-1.8-4.3-2.2-13.2-2.2c-10.2,0-11.9,0.4-15.4,2.5
	c-3.9,2.3-5,8.5-1.4,12.6l10,10C62.7,195.7,67.9,195.8,71.1,192.9z"/>
<path class="st4" d="M51.7,200.4c0,0-3.3-3.6-9.5-9.5c-5.2-5-11.8-2.9-13.7,0.8c-1.8,3.4-2.2,4.3-2.2,13.2c0,10.2,0.4,11.9,2.5,15.4
	c2.3,3.9,8.5,5,12.6,1.4l10-10C54.5,208.8,54.6,203.6,51.7,200.4L51.7,200.4z"/>
<path class="st4" d="M59.5,220.3c0,0-3.6,3.3-9.5,9.5c-5,5.2-2.9,11.8,0.8,13.7c3.4,1.8,4.3,2.2,13.2,2.2c10.2,0,11.9-0.4,15.4-2.5
	c3.9-2.3,5-8.5,1.4-12.6l-10-10C67.9,217.6,62.7,217.5,59.5,220.3z"/>
<path class="st4" d="M78.9,212.8c0,0,3.3,3.6,9.5,9.5c5.2,5,11.8,2.9,13.7-0.8c1.8-3.4,2.2-4.3,2.2-13.2c0-10.2-0.4-11.9-2.5-15.4
	c-2.3-3.9-8.5-5-12.6-1.4l-10,10C76.1,204.4,76,209.6,78.9,212.8L78.9,212.8z"/>
<path class="st4" d="M76.6,51.5c0,0,3.6-3.3,9.5-9.5c5-5.2,2.9-11.8-0.8-13.7c-3.4-1.8-4.3-2.2-13.2-2.2c-10.2,0-11.9,0.4-15.4,2.5
	c-3.9,2.3-5,8.5-1.4,12.6l10,10C68.3,54.3,73.4,54.4,76.6,51.5z"/>
<path class="st4" d="M57.3,59.1c0,0-3.3-3.6-9.5-9.5c-5.2-5-11.8-2.9-13.7,0.8c-1.8,3.4-2.2,4.3-2.2,13.2c0,10.2,0.4,11.9,2.5,15.4
	c2.3,3.9,8.5,5,12.6,1.4l10-10C60,67.5,60.1,62.3,57.3,59.1z"/>
<path class="st4" d="M65.1,78.9c0,0-3.6,3.3-9.5,9.5c-5,5.2-2.9,11.8,0.8,13.7c3.4,1.8,4.3,2.2,13.2,2.2c10.2,0,11.9-0.4,15.4-2.5
	c3.9-2.3,5-8.5,1.4-12.6l-10-10C73.5,76.2,68.3,76.1,65.1,78.9L65.1,78.9z"/>
<path class="st4" d="M84.4,71.4c0,0,3.3,3.6,9.5,9.5c5.2,5,11.8,2.9,13.7-0.8c1.8-3.4,2.2-4.3,2.2-13.2c0-10.2-0.4-11.9-2.5-15.4
	c-2.3-3.9-8.5-5-12.6-1.4l-10,10C81.7,63,81.6,68.2,84.4,71.4z"/>
<path class="st7" d="M512.6,38L476,35.6c-1.1,0-2-0.9-2-2c0-0.5,0.2-1.1,0.6-1.4c0.4-0.4,0.9-0.6,1.4-0.6h36.4L512.6,38z"/>
<path class="st7" d="M512.9,46.3c-0.1,0-0.2,0.1-0.3,0.1L476,44c-1.1,0-2-0.9-2-2c0-0.5,0.2-1,0.6-1.4c0.4-0.4,0.9-0.6,1.4-0.6h36.6
	c0,0,0.1,0,0.1,0L512.9,46.3z"/>
<path class="st7" d="M513.2,54c-0.2,0.2-0.4,0.3-0.6,0.3L476,51.9c-1.1,0-2-0.9-2-2c0-0.5,0.2-1.1,0.6-1.4s0.9-0.6,1.4-0.6h36.6
	c0.1,0,0.3,0,0.4,0L513.2,54z"/>
<path class="st7" d="M513.5,62.2c-0.3,0.4-0.6,0.7-0.9,0.7L476,60.6c-1.1,0-2-0.9-2-2c0-0.5,0.2-1,0.6-1.4c0.4-0.4,0.9-0.6,1.4-0.6
	h36.6c0.3,0,0.5,0.1,0.8,0.1L513.5,62.2z"/>
<path class="st7" d="M513.8,70.1c-0.3,0.8-0.7,1.3-1.2,1.3L476,69.1c-1.1,0-2-0.9-2-2c0-0.5,0.2-1,0.6-1.4c0.4-0.4,0.9-0.6,1.4-0.6
	h36.6c0.4,0,0.8,0.1,1.1,0.3L513.8,70.1z"/>
<path class="st8" d="M504.3,33.1h7.5v3.2h-7.5V33.1z"/>
<path class="st8" d="M504.3,41.5h7.5v3.2h-7.5V41.5z"/>
<path class="st8" d="M504.3,49.5h7.5v3.2h-7.5V49.5z"/>
<path class="st8" d="M504.3,58.2h7.5v3.2h-7.5V58.2z"/>
<path class="st8" d="M504.3,66.7h7.5v3.2h-7.5V66.7z"/>
<path class="st9" d="M475.3,108.2c0,0,9.3,16.5,20.6,26.3c11.3,9.8,14.7,19.8,14.7,29.4v41c0,0,0.3,30.7-25.2,39.9
	c-29.6,10.7-176.5,22.9-176.5,22.9s132.7-8.5,178-20.6c25.7-6.9,30.2-32.8,30.5-56.2c0.2-17.9-1.3-34.6-2.2-38.6
	c-1.5-7.2-13.1-16.5-19.3-21.9C489.8,124.9,478.9,114.4,475.3,108.2L475.3,108.2z"/>
<g>
	<path class="st10" d="M156,17.5c0.9-0.6,1.5-1.9,2.8-1.8c0.5,0,0.9,0,1.5,0c-0.6,2.9-1.3,5.6-1.9,8.4c1.5-0.5,1.4-0.6,1.9-2.1
		c0.5-1.5,0.9-3.1,1.2-4.7c0.2-0.7,1.3-1.6,2-1.6c0.8,0,1.6-0.1,2.4,0.1c-0.6,2.8-1.2,5.5-1.9,8.4c1-0.6,1.7-1.2,1.9-2.3
		c0.2-1.3,0.5-2.6,0.8-3.9c0.2-0.9,1-1.3,1.5-2c0.3-0.4,0.7-0.2,1.1-0.2c0.6,0,1.2,0,1.8,0c-0.6,2.7-1.3,5.3-1.9,7.9
		c-0.1,0.6-0.1,0.5-0.8,1.3c-0.9,0.8,0,0-0.9,0.8c-0.6,0.5-1.1,0.8-1.9,0.8c-3.8,0-7.7,0-11.5,0C154.1,26.2,155.9,17.5,156,17.5z"/>
	<path class="st10" d="M269.7,25.9c-1.2,0-2.5,0-3.8,0c0.3-1.1,0.5-2.1,0.8-3.2c0.4-1.4,0-1.8-1.3-1.8c-0.3,0-0.6,0-1,0
		c-0.3,1.1-0.6,2.3-0.9,3.4c-0.4,1.3-1.2,1.9-2.4,1.9c-0.7,0-1.4,0.2-2.1-0.1c0.3-1.5,1.7-6,1.9-6.6h5.7c0.7,0,1.4,0,2,0
		c0.8,0,1.4,0.3,1.9,0.9C270.6,21,270,24.7,269.7,25.9z"/>
	<path class="st10" d="M212.8,21.6c0.9-0.9,1.8-1.3,2.7-1.9c0.4-0.3,0.8-0.3,1.2-0.3c1.6,0,3.2,0,4.8,0c0.5,0,1,0.1,1.4,0.4
		c0.8,0.5,1,1.1,0.5,1.9c-0.3,0.5-0.7,0.8-1.3,1c-1,0.3-2,0.3-3,0c0-0.2,0-0.3,0.1-0.3c0.1-0.4,0.6-0.7,0.2-1.2
		c-0.2-0.2-1.1-0.2-1.5,0c-0.9,0.4-1.2,1.3-1.4,2.2c-0.2,1-0.6,1.9-0.7,2.8c-1.3,0-2.6,0-3.9,0c0.3-1.4,0.6-2.9,0.9-4.3
		c-0.5,0.2-0.8,0.6-1,0.9c-1.2,1.2-2.6,1.5-4.1,1.3c-0.6-0.1-1.2,0-1.8,0c-0.2,0.3-0.1,0.5-0.1,0.8h5c-0.7,0.9-1.5,1.6-2.6,1.6
		c-1.5,0-3,0-4.5,0c-0.3,0-0.6,0-0.9-0.1c-1-0.5-1.4-0.8-1-2.2c0.3-1.1,0.4-2.2,1.3-3c0.6-0.5,1.2-1,1.8-1.5
		c0.3-0.2,0.5-0.1,0.8-0.1c1.9,0,3.8,0,5.8,0c1,0,1.3,0.2,1.3,1.4C212.9,21,212.8,21.2,212.8,21.6L212.8,21.6z M209.7,20.9
		c-2.8-0.1-3.3,0.2-3.5,1.4C208.3,22.6,208.4,22.6,209.7,20.9z"/>
	<path class="st10" d="M218.8,26.3c0.7-0.7,1.3-1.4,2-2.1c0.2-0.3,0.5-0.2,0.8-0.2c2.7,0.1,5.3-0.1,8,0.1c0.6,0.1,0.8-0.3,1-1.4
		c-1.2,0-2.3-0.1-3.5,0c-1.3,0.1-2.2-0.7-2.1-2.3c0.1-1.8,0.9-3.1,2.2-4.1c0.2-0.2,0.5-0.3,0.9-0.3c2.7,0,5.5,0,8.4,0
		c-0.6,0.7-1.1,1.2-1.6,1.7c-0.3,0.3-0.5,0.2-0.8,0.2c-1.1,0-2.2,0-3.3,0c-1.1,0-1.5,0.4-1.8,1.8c1.2,0,2.4,0,3.6,0
		c0.8,0,1.5,0.3,1.9,1s0.4,1.5,0.2,2.2c-0.2,1.4-0.9,2.5-2.2,3.2c-0.3,0.2-0.6,0.3-1,0.3c-4.2,0-8.3,0-12.5,0
		C219,26.4,219,26.4,218.8,26.3z"/>
	<path class="st10" d="M243.9,24.4c0.9-0.5,1.6-1.1,1.8-2.3c0.3-1.4,0.8-1.7,1.5-2.5c0.4-0.4,0.9-0.2,1.4-0.2c0.3,0,0.7,0,1,0
		c-0.1,1.6-0.7,3-0.9,4.5c-0.1,0.7-2.2,1.9-2.6,2.4c-0.2,0.2-0.4,0.2-0.6,0.2c-3.7,0-7.3,0-11,0c-0.1,0-0.1-0.1-0.2-0.1
		c0.2-1.6,0.6-3.1,0.9-4.6c0.2-0.9,1.1-1.4,1.7-2.1c0.4-0.4,0.8-0.1,1.3-0.2c0.4,0,0.7,0,1.2,0c-0.1,1.8-0.7,3.4-1,5.1
		c0.1,0.2,0.2,0,0.3,0c1.5-0.5,1.6-1.8,1.8-3.1c0.2-1,1.1-2,2.1-2c0.7,0,1.3,0,2,0c0.1,0,0.1,0,0.2,0.1
		C244.5,21.1,243.8,24.5,243.9,24.4z"/>
	<path class="st10" d="M204.1,17c-0.6,0.8-1,1.6-1.5,2.2c-0.6,0.7-0.7,1.6-0.9,2.5c-0.3,1.5-0.7,3.1-1,4.7c-1.4,0-2.7,0-4.1,0
		c-1.2,0-2.3,0-3.5,0c-1.4,0-2.1-0.8-1.8-2.3c0.1-0.7,0.3-1.3,0.5-1.9c0.2-0.6,0.3-0.9,0.8-1.3c0.4-0.3,0,0,1.4-1
		c0.9-0.6,0.8-0.5,1.3-0.5c0.9,0,1.7,0,2.6,0c0.5,0,0.9-0.1,1.2-0.6c0.9-1.3,0.5-0.8,0.9-1.3c0.2-0.2,0.3-0.5,0.7-0.5
		C201.7,17,202.8,17,204.1,17z M198.5,21.1c-0.6-0.2-1-0.1-1.4-0.1c-0.7,0-1.5,0.4-1.7,1.4c-0.2,0.7-0.5,1.6-0.2,2.5
		c1.5,0.1,2.4-0.1,2.9-1.6C198.4,22.7,198.5,21.8,198.5,21.1z"/>
	<path class="st10" d="M180.1,23.5c-0.1,0.6-0.4,1-0.9,1.3c-0.7,0.5-1.4,0.9-2.1,1.4c-0.3,0.2-0.6,0.2-0.9,0.2c-1.6,0-3.3,0.1-4.9,0
		c-1.5-0.1-2-1-1.7-2.3c0.1-0.5,0.2-1,0.4-1.4c0.2-0.6,0.4-1.3,1.1-1.8c1.2-1,0.8-0.7,1.2-1c0.4-0.3,0.9-0.5,1.5-0.5
		c1.8,0.1,3.5,0,5.3,0c1.3,0,1.9,0.8,1.5,2.2C180.5,21.9,180.1,23.1,180.1,23.5L180.1,23.5z M173.7,24.8c2.2,0,3-1.6,2.9-3.9
		C174.6,20.6,173.3,21.7,173.7,24.8z"/>
	<path class="st10" d="M258.7,26c-2.7,0-5.4,0-8.1,0c-0.7,0-1.4-1-1.5-1.9c-0.2-1.9,0.7-3.1,2.2-4.1c0.7-0.5,1.4-0.7,2.3-0.6
		c2.3,0,4.7,0,7,0C260.5,20,259.2,24.5,258.7,26z M256.3,21.1c-0.9-0.3-1.7-0.4-2.4,0.5c-0.3,0.4-0.6,0.8-0.8,1.2
		c-0.2,0.4-0.4,0.9,0,1.4c0.4,0.5,0.9,0.8,1.5,0.9c0.4,0.1,0.6-0.1,0.7-0.6C255.6,23.4,256,22.3,256.3,21.1z"/>
	<path class="st10" d="M181.2,20.1c0.2-0.5,0.4-0.7,0.8-0.7c2.4,0,4.9,0,7.3,0c1,0,1.6,0.6,1.6,1.7c0,1.4-0.5,2.6-0.8,4
		c-0.1,0.3,0,0.6-0.2,0.9c-1.1,0-2.2,0-3.5,0c0.2-1,0.3-2,0.5-2.9c0.1-0.4,0.1-0.7,0.1-1.1c0-0.7-0.3-1-0.9-1c-0.5,0-1,0-1.5,0
		c-0.3,1.1-0.5,2.2-0.8,3.3c-0.4,1.3-1.3,2-2.5,2c-1.8,0-1.8,0-1.4-1.8C180.3,23.7,180.9,20.9,181.2,20.1z"/>
	<path class="st10" d="M208.2,247.1L187,225.8l0.8-0.8l22.1,22.1L208.2,247.1z"/>
	<path class="st10" d="M141.4,225.7l22.7,22.7l-1,1l-22.7-22.7L141.4,225.7z"/>
</g>
<path class="st11" d="M261.7,248.8c-0.4,0.2-0.8,0.5-1.1,0.8l-23.4-23.4l0.9-0.9L261.7,248.8z"/>
<path class="st10" d="M147.3,230.1c-0.7-0.7-0.8-1.6-0.1-2.3l0.7,0.7c-0.3,0.3-0.3,0.6,0.1,1c0.3,0.3,0.7,0.3,0.9,0.1
	c0.1-0.1,0.2-0.3,0.2-0.5s-0.1-0.2-0.4-0.9c-0.3-0.7-0.2-1.3,0.2-1.8c0.6-0.6,1.5-0.5,2.1,0.1s0.7,1.5,0.1,2.1l-0.7-0.7
	c0.2-0.3,0.2-0.5,0-0.8c-0.2-0.2-0.5-0.2-0.7,0c-0.1,0.1-0.2,0.3-0.1,0.5c0,0.1,0,0.1,0.3,0.6c0.5,1,0.4,1.6-0.1,2
	C149,230.8,147.9,230.8,147.3,230.1L147.3,230.1z"/>
<path class="st10" d="M150.7,233.6c-1.1-1.1-1.1-2.8-0.1-3.8c1.1-1,2.7-1,3.8,0.1c1.1,1.1,1.1,2.8,0.1,3.8
	C153.4,234.7,151.8,234.7,150.7,233.6z M153.8,230.5c-0.7-0.7-1.8-0.7-2.5,0c-0.7,0.7-0.7,1.8,0,2.5s1.8,0.7,2.4,0
	C154.5,232.3,154.5,231.2,153.8,230.5z"/>
<path class="st10" d="M154.4,237.3c-0.7-0.7-0.8-1.7,0.1-2.6l2.3-2.3l0.7,0.7l-2.3,2.3c-0.6,0.6-0.5,1-0.2,1.3
	c0.3,0.3,0.7,0.4,1.3-0.2l2.3-2.3l0.7,0.7l-2.3,2.3C156.1,238.1,155.2,238,154.4,237.3L154.4,237.3z"/>
<path class="st10" d="M158.7,241.5l1.1-4.2l-2.6,2.6l-0.7-0.7l3.6-3.6l0.8,0.8l-1.1,4.2l2.6-2.6l0.7,0.7l-3.6,3.6L158.7,241.5z"/>
<path class="st10" d="M162.4,244.8c-0.4-0.2-0.8-0.4-1.4-1l-0.9-0.9l3.6-3.6l0.9,0.9c0.6,0.6,0.9,1.1,1.1,1.6
	c0.2,0.8-0.1,1.7-0.7,2.4C164.2,244.9,163.3,245.1,162.4,244.8L162.4,244.8z M164.7,241.9c-0.1-0.3-0.3-0.6-0.7-1l-0.1-0.1l-2.3,2.3
	l0.2,0.2c0.4,0.4,0.7,0.7,1.1,0.8c0.5,0.2,1.1,0,1.5-0.4C164.7,243,164.9,242.4,164.7,241.9L164.7,241.9z"/>
<path class="st12" d="M220.5,41c0.1,0.6-0.2,1-0.8,1.4c-1,0.7-2.1,0.7-3.2,0.7c-1,0-2-0.3-2.8-0.8c-0.5-0.3-0.8-0.8-0.8-1.4
	c-0.1-1.7,0.4-3.2,0.9-4.8c0.4-1.6,0.9-3.3,1.4-4.9c0.3-1,0.9-1.8,1.7-2.5c0.6-0.5,1.2-0.4,1.9-0.1c0.6,0.3,1,0.6,1,1.3
	c0,1.1-0.4,2.1-0.8,3.1c-0.8,2.1-1.4,4.2-2,6.4c-0.4,1.2,0.4,1.8,1.8,1.5C219.3,40.7,220,40.3,220.5,41L220.5,41z"/>
<path class="st12" d="M202.3,43.4c-0.1-0.2-0.3-0.2-0.5-0.2c-1.8-0.1-3.3-1.4-3.5-3.2c-0.1-1.1,0-2.1,0.2-3.1
	c0.4-1.8,1.8-2.7,3.5-3.3c0.6-0.2,1.2-0.4,1.8-0.4c0.7,0,0.9,0.2,0.7,0.9c-0.3,0.8-0.7,1.6-1,2.5c-0.3,0.8-0.6,1.7-0.6,2.6
	c0,1.2,0.6,1.9,1.6,2.3c1.1,0.4,2.5-0.1,3.2-1c0.4-0.5,0.5-1.1,0.6-1.7c0.2-0.7-0.1-1.4-0.2-2.1c-0.1-0.7-0.5-1.1-1.2-1.3
	c-0.3-0.1-0.6-0.2-0.8-0.5c1.3-0.9,2.9-1.2,4.5-1c0.6,0.1,1.2,0.4,1.5,1c0.4,0.9,0.6,1.7,0.3,2.7c-0.1,0.3-0.1,0.6-0.1,0.9
	c-0.6,2.1-2.2,3.3-4.2,4c-1.1,0.4-2.3,0.7-3.5,0.7c-0.1,0-0.2,0.1-0.2,0.2C203.7,43.4,203,43.4,202.3,43.4L202.3,43.4z"/>
<path class="st12" d="M224.5,43.4c-0.3-0.3-0.7-0.1-1-0.2c-1.2-0.3-2.1-0.9-2.7-1.9c-0.1-0.1-0.1-0.3-0.3-0.3l0,0
	c-0.2-0.8-0.2-1.7-0.2-2.5c0.1-2.4,1.5-4.2,3.9-4.9c0.5-0.1,1.1-0.3,1.6-0.3c0.5,0,0.7,0.2,0.7,0.6c0,0.7-0.4,1.2-0.7,1.8
	c-0.5,1.1-0.8,2.2-1,3.4c-0.2,0.9,0.6,2,1.6,2.3c1.9,0.5,3.6-0.3,3.9-2.5c0.1-0.6,0-1.2-0.1-1.8c-0.2-1-0.8-1.6-1.8-1.8
	c-0.1,0-0.1-0.1-0.3-0.2c0.1-0.2,0.3-0.4,0.6-0.5c1.2-0.6,2.5-0.8,3.8-0.7c0.9,0.1,1.9,0.9,2,1.8c0,0.9,0.1,1.8-0.1,2.7
	c-0.4,1.8-1.6,2.9-3.2,3.7c-1.4,0.8-2.8,1.2-4.4,1.2c-0.2,0-0.3,0-0.4,0.2C225.8,43.4,225.2,43.4,224.5,43.4L224.5,43.4z"/>
<path class="st12" d="M190.3,43.3c-2.6,0-4.7-0.6-6.3-2.2c-1.1-1.1-1.6-2.4-1.8-3.9c-0.2-1.6,0.2-3.1,1.2-4.3c0.9-1.1,2-1.9,3.3-2.5
	c1.5-0.8,3.1-1.4,4.8-1.7c1.6-0.3,3.1-0.4,4.7-0.1c0.7,0.1,1.5,0.1,2.2,0.2c0.4,0,0.7,0.2,0.6,0.6c-0.3,1.2-0.3,2.4-0.7,3.5
	c-0.2,0.5-0.4,0.9-0.6,1.3c-0.3,0.5-1,0.5-1.3,0c-0.3-0.5-0.6-1.1-0.8-1.7c-0.1-0.3-0.2-0.6-0.4-0.9c-0.6-0.8-1.3-1.1-2.4-0.9
	c-2.6,0.5-4,2.2-5.1,4.2c-0.5,0.9-0.7,1.8-0.6,2.8c0.1,1.4,0.9,2.7,2.5,3.1c0.6,0.1,1.1,0.1,1.7,0c1.4-0.3,2.5-0.8,3.5-1.7
	c0.5-0.5,1.2-0.6,1.8-0.7c0.3-0.1,0.5,0.1,0.6,0.4c0.2,1.1-0.3,2-1.1,2.6C194.7,42.4,192.1,43.5,190.3,43.3z"/>
<path class="st12" d="M246.3,39c-0.4-0.3-0.5-0.6-0.6-0.8c-0.6-0.8-1.3-1-2.3-0.8c-1.7,0.4-2.8,1.6-3.6,2.9c-0.3,0.5-0.5,1-0.8,1.5
	c-0.5,0.8-1.9,1.3-2.8,0.9c-0.3-0.2-0.7-0.4-0.7-0.9c0-0.8,0-1.5,0.3-2.2c0.5-1.3,0.9-2.6,1.3-3.9c0.1-0.4,0.4-0.9,0.6-1.2
	c0.5-0.7,2.4-0.8,3-0.2c0.5,0.5,0.3,1.1,0.3,1.7c0,0.1-0.2,0.2,0,0.5c2.1-1.6,4.2-3.2,7.3-2.9C248.1,35.4,247.1,37.1,246.3,39
	L246.3,39z"/>
<path class="st10" d="M194.1,228.7c0.1,0.4,0.3,0.9,0.7,1.3c0.6,0.6,1.2,0.6,1.6,0.2c0.4-0.4,0.4-0.8,0-1.6c-0.5-0.9-0.5-1.7,0-2.3
	c0.7-0.7,1.7-0.6,2.5,0.2c0.4,0.4,0.7,0.9,0.8,1.2l-0.6,0.3c-0.1-0.2-0.2-0.6-0.6-1c-0.6-0.6-1.2-0.5-1.4-0.2
	c-0.4,0.4-0.3,0.8,0.1,1.7c0.5,1,0.5,1.7-0.1,2.3c-0.6,0.6-1.7,0.7-2.7-0.3c-0.4-0.4-0.8-1-0.8-1.4L194.1,228.7z"/>
<path class="st10" d="M201.2,229.6l-1.3-1.3l0.5-0.5l3.2,3.2l-0.5,0.5l-1.3-1.3l-3.7,3.8l-0.6-0.6L201.2,229.6z"/>
<path class="st10" d="M201.4,234.6l-1.8,0.9l-0.6-0.6l5.7-2.8l0.7,0.7l-2.7,5.7l-0.6-0.6l0.9-1.8L201.4,234.6z M203.2,235.6l0.8-1.6
	c0.2-0.4,0.4-0.7,0.5-1l0,0c-0.3,0.2-0.6,0.4-1,0.5l-1.6,0.8L203.2,235.6z"/>
<path class="st10" d="M207.4,235c0.3,0.2,0.8,0.6,1.2,1c0.6,0.6,0.9,1.1,0.9,1.6c0,0.4-0.1,0.8-0.5,1.1c-0.6,0.6-1.3,0.6-1.9,0.3
	l0,0c0.2,0.4,0.1,0.9-0.2,1.5c-0.4,0.7-0.7,1.2-0.8,1.5l-0.6-0.6c0-0.2,0.3-0.6,0.7-1.3c0.4-0.7,0.4-1.2-0.1-1.7l-0.5-0.5l-1.8,1.8
	l-0.6-0.6L207.4,235z M206.1,237.5l0.6,0.6c0.6,0.6,1.3,0.6,1.8,0.2c0.5-0.5,0.4-1.2-0.2-1.8c-0.3-0.3-0.5-0.4-0.6-0.5L206.1,237.5z
	"/>
<path class="st10" d="M211.4,239.7l-1.3-1.3l0.5-0.5l3.2,3.2l-0.5,0.5l-1.3-1.3l-3.7,3.8l-0.6-0.6L211.4,239.7z"/>
<path class="st11" d="M248.5,223.7c0.3,0.2,0.7,0.5,1.1,1c0.5,0.5,0.8,1.1,0.8,1.5c0,0.4-0.1,0.8-0.5,1.2c-0.4,0.4-0.8,0.5-1.2,0.5
	c-0.6,0-1.2-0.3-1.7-0.8c-0.2-0.2-0.3-0.3-0.4-0.5l-1.6,1.6l-0.5-0.5L248.5,223.7z M247,226.2c0.1,0.1,0.2,0.3,0.4,0.5
	c0.6,0.7,1.3,0.8,1.9,0.2c0.5-0.5,0.4-1.2-0.2-1.8c-0.2-0.2-0.4-0.4-0.5-0.5L247,226.2z"/>
<path class="st11" d="M253.2,232.6c-1.4,1.4-3,1.2-4.1,0.1c-1.1-1.1-1-2.7,0.2-3.9c1.3-1.3,3-1.3,4.1-0.1
	C254.6,229.8,254.5,231.4,253.2,232.6z M250,229.4c-0.9,0.9-1.2,2.1-0.4,3c0.8,0.9,2.1,0.6,3-0.3c0.8-0.8,1.2-2.1,0.4-3
	C252.2,228.2,250.9,228.5,250,229.4L250,229.4z"/>
<path class="st11" d="M252.5,236l3.1-5.1l0.6,0.6l-1.6,2.5c-0.4,0.6-0.8,1.2-1.1,1.7l0,0c0.5-0.3,1.1-0.7,1.8-1l2.6-1.5l0.6,0.6
	l-1.6,2.5c-0.4,0.6-0.8,1.2-1.1,1.7l0,0c0.5-0.4,1.1-0.7,1.7-1l2.6-1.5l0.5,0.6l-5.3,2.8l-0.6-0.6l1.6-2.6c0.4-0.6,0.7-1.1,1.1-1.6
	l0,0c-0.5,0.3-1,0.6-1.7,1l-2.7,1.5L252.5,236z"/>
<path class="st11" d="M261,240.9l-1.6-1.6l-1.5,1.4l1.8,1.8l-0.4,0.4l-2.3-2.4l4.1-4l2.2,2.3l-0.4,0.4l-1.7-1.7l-1.3,1.3l1.6,1.6
	L261,240.9z"/>
<path class="st11" d="M264,239.7c0.3,0.2,0.7,0.6,1.1,1c0.6,0.6,0.8,1.1,0.8,1.5c0,0.4-0.1,0.8-0.5,1.1c-0.5,0.5-1.2,0.5-1.8,0.2
	l0,0c0.2,0.4,0.1,0.9-0.2,1.4c-0.4,0.7-0.7,1.2-0.8,1.4l-0.5-0.6c0-0.2,0.3-0.6,0.7-1.2c0.4-0.7,0.4-1.1,0-1.6l-0.5-0.5l-1.8,1.7
	l-0.5-0.5L264,239.7z M262.7,242.1l0.5,0.6c0.6,0.6,1.2,0.6,1.7,0.2c0.5-0.5,0.4-1.1-0.2-1.7c-0.3-0.3-0.5-0.4-0.6-0.5L262.7,242.1z
	"/>
<path d="M499.5,202.9h-1.9l-0.5-2.6h-3.2l-1.4,2.6h-1.8l5.1-9h1.6L499.5,202.9z M496.8,198.9l-0.6-2.9l-1.5,2.9H496.8z"/>
<path d="M469,228c-0.1,0.9-0.5,1.6-1.2,2c-0.6,0.5-1.5,0.7-2.7,0.7h-3.5l1.3-9h3.3c0.5,0,0.9,0.1,1.3,0.2s0.7,0.3,0.9,0.5
	s0.4,0.5,0.5,0.8s0.1,0.6,0.1,1c-0.1,0.4-0.2,0.7-0.4,1s-0.4,0.5-0.8,0.8c0.2,0.1,0.4,0.2,0.5,0.4s0.2,0.3,0.3,0.5
	c0.1,0.2,0.1,0.4,0.2,0.6S469,227.8,469,228L469,228z M464.2,225.3h1.6c0.5,0,0.9-0.1,1.2-0.2s0.4-0.4,0.5-0.8c0-0.2,0-0.3,0-0.4
	s-0.1-0.2-0.2-0.3s-0.3-0.1-0.5-0.2c-0.2,0-0.5-0.1-0.8-0.1h-1.5L464.2,225.3z M463.6,229.2h1.8c1.2,0,1.8-0.4,1.9-1.2
	c0-0.2,0-0.4,0-0.5s-0.1-0.3-0.3-0.4s-0.3-0.2-0.5-0.2s-0.5-0.1-0.9-0.1H464L463.6,229.2z"/>
<path d="M74.4,36.7l-5.3,1L66.8,40l-1-1l2.3-2.3l1-5.3l1.2,1.2l-0.8,3.7l3.7-0.8L74.4,36.7z"/>
<path d="M72,45.3l-1-1l3.9-3.9c-0.4-0.2-0.8-0.5-1.4-1l0.8-0.8c0.8,0.8,1.6,1,2.3,0.5l0.8,0.8L72,45.3z"/>
<path d="M46.5,62.2l-5.3,1l-2.3,2.3l-1-1l2.3-2.3l1-5.3l1.2,1.2l-0.8,3.7l3.7-0.8L46.5,62.2z"/>
<path d="M46.4,70.6l-0.7-0.7l-1.2,1.2l-1-1l1.2-1.2l-2.2-2.2l0.8-0.8l5.9-1.2l0.8,0.8L46.6,69l0.7,0.7L46.4,70.6z M45.6,68.1
	l1.7-1.7L44.6,67L45.6,68.1z"/>
<path d="M72.9,88.6l-5.3,1l-2.3,2.3l-1-1l2.3-2.3l1-5.3l1.2,1.2L68,88.2l3.7-0.8L72.9,88.6z"/>
<path d="M75.3,93.8c-0.1,0.1-0.2,0.2-0.3,0.3c-0.1,0.1-0.3,0.1-0.4,0.2s-0.3,0.1-0.4,0.1c-0.1,0-0.3,0-0.4,0
	c0.1,0.2,0.1,0.4,0.1,0.6s0,0.4-0.1,0.6c-0.1,0.2-0.1,0.4-0.2,0.5s-0.2,0.3-0.4,0.5c-0.3,0.3-0.5,0.4-0.8,0.6s-0.6,0.2-0.9,0.2
	s-0.6-0.1-0.9-0.2c-0.3-0.1-0.6-0.3-0.8-0.6c-0.3-0.3-0.5-0.5-0.6-0.8s-0.2-0.6-0.2-0.9c0-0.3,0-0.6,0.2-0.9s0.3-0.6,0.6-0.9l1,1
	c-0.1,0.1-0.2,0.3-0.3,0.4S70,94.6,70,94.7c0,0.2,0,0.3,0.1,0.4c0.1,0.1,0.1,0.3,0.3,0.4c0.1,0.1,0.3,0.2,0.4,0.3s0.3,0.1,0.4,0.1
	s0.3,0,0.4-0.1s0.3-0.2,0.4-0.3c0.1-0.1,0.2-0.3,0.3-0.4c0.1-0.2,0.1-0.3,0.1-0.5s0-0.3-0.1-0.5c-0.1-0.2-0.2-0.3-0.3-0.5l-0.4-0.4
	l0.8-0.8l0.3,0.3c0.3,0.3,0.5,0.4,0.8,0.4s0.5-0.1,0.8-0.4c0.2-0.2,0.3-0.4,0.3-0.6s-0.1-0.4-0.3-0.6c-0.4-0.4-0.9-0.4-1.5,0.1l-1-1
	c0.3-0.2,0.6-0.4,0.9-0.5C73,90,73.3,90,73.6,90s0.6,0.1,0.8,0.2s0.5,0.3,0.7,0.5c0.2,0.2,0.4,0.5,0.6,0.8c0.1,0.3,0.2,0.5,0.2,0.8
	s0,0.5-0.1,0.8C75.7,93.3,75.5,93.6,75.3,93.8L75.3,93.8z"/>
<path d="M64,182.2l-1.3-1.3l0.6-3.5l-3.5,0.6l-1.3-1.3l5-0.8l0.7-4.5l1.2,1.2l-0.5,3l3-0.5l1.2,1.2l-4.5,0.7L64,182.2z"/>
<path d="M67.1,185.3l-1-1l3.9-3.9c-0.4-0.2-0.8-0.5-1.4-1l0.8-0.8c0.8,0.8,1.6,1,2.3,0.5l0.8,0.8L67.1,185.3z"/>
<path d="M91.3,210.5l-1.3-1.3l0.6-3.5l-3.5,0.6l-1.3-1.3l5-0.8l0.7-4.5l1.2,1.2l-0.5,3l3-0.5l1.2,1.2l-4.5,0.7L91.3,210.5z"/>
<path d="M95.3,214.6l-3.7-3.7c0.5-0.5,1-0.8,1.4-0.9c0.3-0.1,0.6-0.1,0.9-0.1s0.8,0,1.3,0.1c0.4,0,0.8,0.1,1.1,0.1s0.6,0,0.8,0
	s0.4-0.1,0.6-0.2s0.3-0.2,0.5-0.3c0.2-0.2,0.3-0.5,0.3-0.7s-0.1-0.5-0.4-0.8c-0.1-0.1-0.2-0.2-0.3-0.2s-0.3-0.1-0.4-0.1
	s-0.3,0.1-0.5,0.1s-0.3,0.2-0.5,0.3l-1-1c0.3-0.2,0.6-0.4,0.9-0.6c0.3-0.1,0.6-0.2,0.9-0.2s0.6,0.1,0.9,0.2c0.3,0.1,0.6,0.3,0.8,0.6
	c0.3,0.3,0.5,0.6,0.6,0.9c0.1,0.3,0.2,0.6,0.2,0.9s0,0.6-0.2,0.8c-0.1,0.3-0.3,0.5-0.5,0.7c-0.2,0.2-0.4,0.4-0.7,0.5
	c-0.2,0.1-0.5,0.2-0.7,0.2c-0.2,0-0.6,0.1-1,0.1s-0.9,0-1.5-0.1c-0.2,0-0.4,0-0.6,0s-0.6,0-0.9,0.1l2.3,2.3L95.3,214.6z"/>
<path d="M64,238.4l-1.3-1.3l0.6-3.5l-3.5,0.6l-1.3-1.3l5-0.8l0.7-4.5l1.2,1.2l-0.5,3l3-0.5l1.2,1.2l-4.5,0.7L64,238.4z"/>
<path d="M71.9,238.1c-0.1,0.1-0.2,0.2-0.3,0.3c-0.1,0.1-0.3,0.1-0.4,0.2c-0.1,0.1-0.3,0.1-0.4,0.1c-0.1,0-0.3,0-0.4,0
	c0.1,0.2,0.1,0.4,0.1,0.6s0,0.4-0.1,0.6c-0.1,0.2-0.1,0.4-0.2,0.5s-0.2,0.3-0.4,0.5c-0.3,0.3-0.5,0.4-0.8,0.6
	c-0.3,0.1-0.6,0.2-0.9,0.2s-0.6-0.1-0.9-0.2c-0.3-0.1-0.6-0.3-0.8-0.6c-0.3-0.3-0.5-0.5-0.6-0.8c-0.1-0.3-0.2-0.6-0.2-0.9
	s0-0.6,0.2-0.9s0.3-0.6,0.6-0.9l1,1c-0.1,0.1-0.2,0.3-0.3,0.4s-0.1,0.3-0.1,0.4c0,0.2,0,0.3,0.1,0.4c0.1,0.1,0.1,0.3,0.3,0.4
	c0.1,0.1,0.3,0.2,0.4,0.3s0.3,0.1,0.4,0.1c0.2,0,0.3,0,0.4-0.1s0.3-0.2,0.4-0.3c0.1-0.1,0.2-0.3,0.3-0.4s0.1-0.3,0.1-0.5
	s0-0.3-0.1-0.5c-0.1-0.2-0.2-0.3-0.3-0.5l-0.4-0.4l0.8-0.8l0.3,0.3c0.3,0.3,0.5,0.4,0.8,0.4s0.5-0.1,0.8-0.4
	c0.2-0.2,0.3-0.4,0.3-0.6s-0.1-0.4-0.3-0.6c-0.4-0.4-0.9-0.4-1.5,0.1l-1-1c0.3-0.2,0.6-0.4,0.9-0.5s0.6-0.2,0.9-0.1s0.6,0.1,0.8,0.2
	s0.5,0.3,0.7,0.5c0.2,0.2,0.4,0.5,0.6,0.8c0.1,0.3,0.2,0.5,0.2,0.8s0,0.5-0.1,0.8C72.3,237.6,72.1,237.9,71.9,238.1L71.9,238.1z"/>
<path d="M36,208.7l-1.3-1.3l0.6-3.5l-3.5,0.6l-1.3-1.3l5-0.8l0.7-4.5l1.2,1.2l-0.5,3l3-0.5l1.2,1.2l-4.5,0.7L36,208.7z"/>
<path d="M41.3,211.6l-0.7-0.7l-1.2,1.2l-1-1l1.2-1.2l-2.2-2.1l0.8-0.8l5.9-1.2l0.8,0.8l-3.4,3.4l0.7,0.7L41.3,211.6z M40.5,209.1
	l1.7-1.7l-2.8,0.6L40.5,209.1z"/>
<path d="M100.4,62.8l-5.3,1l-2.3,2.3l-1-1l2.3-2.3l1-5.3l1.2,1.2l-0.8,3.7l3.7-0.8L100.4,62.8z"/>
<path d="M99,72.3l-3.7-3.7c0.5-0.5,1-0.8,1.4-0.9c0.3-0.1,0.6-0.1,0.9-0.1c0.4,0,0.8,0,1.3,0.1c0.4,0,0.8,0.1,1.1,0.1s0.6,0,0.8,0
	s0.4-0.1,0.6-0.2s0.3-0.2,0.5-0.3c0.2-0.2,0.3-0.5,0.3-0.7s-0.1-0.5-0.4-0.8c-0.1-0.1-0.2-0.2-0.3-0.2s-0.3-0.1-0.4-0.1
	s-0.3,0.1-0.5,0.1s-0.3,0.2-0.5,0.3l-1-1c0.3-0.2,0.6-0.4,0.9-0.6s0.6-0.2,0.9-0.2s0.6,0.1,0.9,0.2s0.6,0.3,0.8,0.6
	c0.3,0.3,0.5,0.6,0.6,0.9s0.2,0.6,0.2,0.9c0,0.3,0,0.6-0.2,0.8c-0.1,0.3-0.3,0.5-0.5,0.7c-0.2,0.2-0.4,0.4-0.7,0.5
	c-0.2,0.1-0.5,0.2-0.7,0.2c-0.2,0-0.6,0.1-1,0.1s-0.9,0-1.5-0.1c-0.2,0-0.4,0-0.6,0s-0.6,0-0.9,0.1l2.3,2.3L99,72.3z"/>
</svg>
