<svg xmlns="http://www.w3.org/2000/svg" xmlns:xlink="http://www.w3.org/1999/xlink" viewBox="0 0 470.33 67.41"><defs><style>.a4d1061a-96d3-41c4-92ee-6091ffff478c{stroke:#9def48;stroke-miterlimit:10;stroke-width:0.75px;fill:url(#ef137b5b-466e-402e-8fa3-4586056115e5);}.b5848080-88ef-4e6e-a376-21a02f6bd62a{fill:#9def48;}.aa12955a-cfb3-4e4f-ae45-90e38c10eba9{fill:#ed1c24;}.bad25465-704a-42b8-bf68-699eee31c079{fill:#fff;}</style><linearGradient id="ef137b5b-466e-402e-8fa3-4586056115e5" x1="0.38" y1="33.7" x2="469.96" y2="33.7" gradientUnits="userSpaceOnUse"><stop offset="0" stop-color="#032c02"/><stop offset="1" stop-color="#207a09"/></linearGradient></defs><g id="bd202f58-507c-4b98-a14d-9c276396b25e" data-name="texte"><polygon class="a4d1061a-96d3-41c4-92ee-6091ffff478c" points="0.38 5.91 102.44 5.91 108.57 0.38 150.31 0.38 158.22 5.91 461.65 6.11 469.96 16 469.96 59.72 50.81 59.72 42.7 67.03 7.89 67.03 0.38 59.72 0.38 5.91"/><path class="b5848080-88ef-4e6e-a376-21a02f6bd62a" d="M62.77,38.74V27.54H65.9v11.2H72a12.61,12.61,0,0,0,1.8-6.31A12.7,12.7,0,0,0,72,26.11H69.88V23h3.77a14,14,0,0,1,3.25,9.45,14,14,0,0,1-3.25,9.45H65.9v3H62.77v-3H55a14,14,0,0,1-3.26-9.45A14,14,0,0,1,55,23h3.77v3.13H56.71a12.61,12.61,0,0,0-1.81,6.32,12.52,12.52,0,0,0,1.81,6.31Z" transform="translate(-0.06 -0.03)"/><path class="b5848080-88ef-4e6e-a376-21a02f6bd62a" d="M101.43,41.88H82.8a14,14,0,0,1-3.26-9.45A14,14,0,0,1,82.8,23h18.63a14,14,0,0,1,3.25,9.45A14,14,0,0,1,101.43,41.88Zm-1.68-3.14a12.65,12.65,0,0,0,1.79-6.31,12.63,12.63,0,0,0-1.79-6.32H84.49a12.56,12.56,0,0,0-1.81,6.32,12.58,12.58,0,0,0,1.81,6.31Z" transform="translate(-0.06 -0.03)"/><path class="b5848080-88ef-4e6e-a376-21a02f6bd62a" d="M112.26,26.11a12.64,12.64,0,0,0-1.8,6.32,12.66,12.66,0,0,0,1.8,6.31h2.09v3.14h-3.77a14,14,0,0,1-3.26-9.45A14,14,0,0,1,110.58,23H129.2a14,14,0,0,1,3.26,9.45,14,14,0,0,1-3.26,9.45h-3.77V38.74h2.1a12.75,12.75,0,0,0,1.79-6.31,12.73,12.73,0,0,0-1.79-6.32Z" transform="translate(-0.06 -0.03)"/><path class="b5848080-88ef-4e6e-a376-21a02f6bd62a" d="M135.76,23h20.83a14,14,0,0,1,3.25,9.45,14,14,0,0,1-3.25,9.45H135.76Zm3.13,15.76h16a12.65,12.65,0,0,0,1.79-6.31,12.63,12.63,0,0,0-1.79-6.32h-16Z" transform="translate(-0.06 -0.03)"/><path class="b5848080-88ef-4e6e-a376-21a02f6bd62a" d="M181.67,34h-13a13.6,13.6,0,0,0,1.7,4.76h15.53l1.81,3.14h-19a13.53,13.53,0,0,1-3.19-7.9h-3V30.86h3A13.45,13.45,0,0,1,168.64,23h19l-1.81,3.13H170.32a13.62,13.62,0,0,0-1.7,4.75h13Z" transform="translate(-0.06 -0.03)"/><path class="b5848080-88ef-4e6e-a376-21a02f6bd62a" d="M208,38.74h2.09A13.57,13.57,0,0,0,211.8,34H193.14a13.43,13.43,0,0,0,1.71,4.76h2.08v3.14h-3.77A13.53,13.53,0,0,1,190,34h-3V30.86h3A13.45,13.45,0,0,1,193.16,23h18.63A13.61,13.61,0,0,1,215,30.87l-1.36.77v1.58L215,34a13.66,13.66,0,0,1-3.19,7.9H208Zm-14.88-7.88H211.8a13.6,13.6,0,0,0-1.69-4.75H194.85A13.45,13.45,0,0,0,193.14,30.86Z" transform="translate(-0.06 -0.03)"/><path class="b5848080-88ef-4e6e-a376-21a02f6bd62a" d="M241.33,30.86l1.42,1.57a14,14,0,0,1-3.25,9.45H220.87A13.3,13.3,0,0,1,218,36.25h3.38a13.89,13.89,0,0,0,1.15,2.49h15.26A13.06,13.06,0,0,0,239.51,34H219l-1.43-1.55A14,14,0,0,1,220.87,23H239.5a13.11,13.11,0,0,1,2.83,5.63H239a13.55,13.55,0,0,0-1.14-2.5H222.56a13.23,13.23,0,0,0-1.7,4.75Z" transform="translate(-0.06 -0.03)"/><path class="b5848080-88ef-4e6e-a376-21a02f6bd62a" d="M256.4,38.74V27.54h3.12v11.2h6.08a12.59,12.59,0,0,0,1.79-6.31,12.68,12.68,0,0,0-1.79-6.32h-2.09V23h3.77a14,14,0,0,1,3.25,9.45,14,14,0,0,1-3.25,9.45h-7.76v3H256.4v-3h-7.75a14,14,0,0,1-3.26-9.45A14,14,0,0,1,248.65,23h3.77v3.13h-2.09a12.7,12.7,0,0,0-1.8,6.32,12.61,12.61,0,0,0,1.8,6.31Z" transform="translate(-0.06 -0.03)"/><path class="b5848080-88ef-4e6e-a376-21a02f6bd62a" d="M278.42,36.62l-3.31,5.26h-3.92l12-18.9h3.61l11.92,18.9h-3.86l-3.27-5.26Zm11.23-3.12L285,26.1l-4.65,7.4Z" transform="translate(-0.06 -0.03)"/><path class="b5848080-88ef-4e6e-a376-21a02f6bd62a" d="M304.33,26.11a12.64,12.64,0,0,0-1.8,6.32,12.66,12.66,0,0,0,1.8,6.31h2.09v3.14h-3.77a14,14,0,0,1-3.26-9.45A14,14,0,0,1,302.65,23h18.63a14,14,0,0,1,3.25,9.45,14,14,0,0,1-3.25,9.45h-3.77V38.74h2.09a12.66,12.66,0,0,0,1.8-6.31,12.64,12.64,0,0,0-1.8-6.32Z" transform="translate(-0.06 -0.03)"/><path class="b5848080-88ef-4e6e-a376-21a02f6bd62a" d="M356.42,36.25h3.38A13.19,13.19,0,0,1,357,41.88H338.34a14,14,0,0,1-3.26-9.45A14,14,0,0,1,338.34,23H357a13.13,13.13,0,0,1,2.84,5.63h-3.38a13.49,13.49,0,0,0-1.13-2.5H340a12.64,12.64,0,0,0-1.8,6.32,12.66,12.66,0,0,0,1.8,6.31h15.27A13.71,13.71,0,0,0,356.42,36.25Z" transform="translate(-0.06 -0.03)"/><path class="b5848080-88ef-4e6e-a376-21a02f6bd62a" d="M384.32,41.88H365.69a14,14,0,0,1-3.25-9.45A14,14,0,0,1,365.69,23h18.63a14,14,0,0,1,3.26,9.45A14,14,0,0,1,384.32,41.88Zm-1.67-3.14a12.75,12.75,0,0,0,1.79-6.31,12.73,12.73,0,0,0-1.79-6.32H367.38a12.56,12.56,0,0,0-1.81,6.32,12.58,12.58,0,0,0,1.81,6.31Z" transform="translate(-0.06 -0.03)"/><path class="b5848080-88ef-4e6e-a376-21a02f6bd62a" d="M394,38.74h14.21L410,41.88H390.87V25.65L394,22.51Z" transform="translate(-0.06 -0.03)"/><path class="b5848080-88ef-4e6e-a376-21a02f6bd62a" d="M433.23,41.88H414.6a14,14,0,0,1-3.25-9.45A14,14,0,0,1,414.6,23h18.63a14,14,0,0,1,3.26,9.45A14,14,0,0,1,433.23,41.88Zm-1.67-3.14a12.75,12.75,0,0,0,1.79-6.31,12.73,12.73,0,0,0-1.79-6.32H416.29a12.66,12.66,0,0,0-1.81,6.32,12.68,12.68,0,0,0,1.81,6.31Z" transform="translate(-0.06 -0.03)"/><path class="b5848080-88ef-4e6e-a376-21a02f6bd62a" d="M460.14,38.74h2.1A13.75,13.75,0,0,0,463.92,34H445.27a13.4,13.4,0,0,0,1.7,4.76h2.08v3.14h-3.77a13.66,13.66,0,0,1-3.19-7.9h-3V30.86h3A13.58,13.58,0,0,1,445.28,23h18.63a13.54,13.54,0,0,1,3.19,7.89l-1.36.77v1.58l1.36.76a13.6,13.6,0,0,1-3.19,7.9h-3.77Zm-14.87-7.88h18.65a13.77,13.77,0,0,0-1.68-4.75H447A13.42,13.42,0,0,0,445.27,30.86Z" transform="translate(-0.06 -0.03)"/></g><g id="f664628d-c368-415a-9270-9e8fc51ad1b1" data-name="bandai"><rect class="aa12955a-cfb3-4e4f-ae45-90e38c10eba9" x="3.21" y="14.07" width="44.03" height="45.35" rx="3.31"/><path class="bad25465-704a-42b8-bf68-699eee31c079" d="M21.38,49.19c0-.9-.33-2.06-1.46-2.06-1.32,0-1.49,1.23-1.49,2v1.49H15.72V49.29c0-1.2-.37-1.79-1.39-1.79s-1.39.73-1.39,1.79v2.48h8.44Zm-2.32-5.43a4.73,4.73,0,0,1,1.29-.14,3.87,3.87,0,0,1,1.82.43,4,4,0,0,1,1.66,1.56A4.29,4.29,0,0,1,24.29,47a12.28,12.28,0,0,1,.17,2v6.19H10.09V47.66a4.88,4.88,0,0,1,.4-1.88,3.53,3.53,0,0,1,1.09-1.3,4.18,4.18,0,0,1,2.15-.66,3.66,3.66,0,0,1,2,.53,2.93,2.93,0,0,1,.79.53,3.36,3.36,0,0,1,.47.9,2.39,2.39,0,0,1,.86-1.39,3,3,0,0,1,1.25-.67m-4-6.85L24.49,34V30.38l-14.37,5v3.51l14.34,5V35.75H21.35v3.5l-6.23-2-.63-.17Zm-5-18.54h14.4v3.51L17,26.24l-.56.27h8V30H10.09v-3.5L17.87,22l.46-.23H10.09Zm23.51,28c-3,0-4.24,1.42-4.24,4.14v1.26h8.28V49.52c0-1.23-.47-3.15-4-3.15m.1-3.47c5.06,0,7,3.64,7,6.29v6H26.38v-6c0-2.26,1.06-6.29,7.35-6.29m-2.35-6L40.71,34V30.38l-14.33,5v3.51l14.33,5V35.75H37.6v3.5l-6.22-2-.6-.17Zm9.33-10.36V30H26.38V26.54Z" transform="translate(-0.06 -0.03)"/></g></svg>