<svg xmlns="http://www.w3.org/2000/svg" xmlns:xlink="http://www.w3.org/1999/xlink" viewBox="0 0 746.51 822.18"><defs><radialGradient id="be3d6996-d5d2-4d54-b1d2-64f00a28bd3e" cx="121.61" cy="382.1" r="5.66" gradientTransform="matrix(1 0 0 .6 0 152.84)" xlink:href="#be361661-84f0-4764-83ff-00434142e5a8"/><radialGradient id="b3e82f53-638f-48fb-a3f5-323271fb7dd7" cx="217.55" cy="416.02" r="5.66" xlink:href="#a79b328f-976c-4b83-a136-cea8b67ee3d6"/><radialGradient id="baaf85c3-864b-488a-b422-732f6ed8f79b" cx="195.83" cy="370.99" r="11.47" xlink:href="#a79b328f-976c-4b83-a136-cea8b67ee3d6"/><radialGradient id="be361661-84f0-4764-83ff-00434142e5a8" cx="92.36" cy="393.88" r="5.66" gradientTransform="matrix(1 0 0 .6 0 157.55)" gradientUnits="userSpaceOnUse"><stop offset="0" stop-color="#0000ef"/><stop offset=".15" stop-color="#0000e9"/><stop offset=".34" stop-color="#0101d9"/><stop offset=".56" stop-color="#0101be"/><stop offset=".79" stop-color="#02029a"/><stop offset="1" stop-color="#020282"/></radialGradient><radialGradient id="fda3df57-fba1-4789-bcce-31842cbfda5d" cx="114.61" cy="393.88" r="5.66" xlink:href="#be361661-84f0-4764-83ff-00434142e5a8"/><radialGradient id="fde74791-c3fa-4602-87fe-81cb9814e2e4" cx="133.17" cy="400.04" r="5.66" gradientTransform="matrix(1 0 0 .6 0 160.02)" xlink:href="#be361661-84f0-4764-83ff-00434142e5a8"/><radialGradient id="ab47d69d-0e4c-4688-8443-881562da7c02" cx="139.21" cy="387.78" r="5.66" gradientTransform="matrix(1 0 0 .6 0 155.11)" xlink:href="#be361661-84f0-4764-83ff-00434142e5a8"/><radialGradient id="a79b328f-976c-4b83-a136-cea8b67ee3d6" cx="65.88" cy="348.77" r="11.47" gradientUnits="userSpaceOnUse"><stop offset="0" stop-color="#fd6d66"/><stop offset=".78" stop-color="#b50a03"/></radialGradient><radialGradient id="e4642e57-c195-4b6f-9948-0bc7d13c0b67" cx="100.32" cy="382.53" r="5.66" gradientTransform="matrix(1 0 0 .6 0 153.01)" xlink:href="#be361661-84f0-4764-83ff-00434142e5a8"/><radialGradient id="b43bfb28-1265-435e-b1b2-15b0af6b8c4e" cx="225.51" cy="404.67" r="5.66" xlink:href="#a79b328f-976c-4b83-a136-cea8b67ee3d6"/><radialGradient id="b81e56aa-cff0-44af-b384-7daa789fa41f" cx="246.79" cy="404.24" r="5.66" xlink:href="#a79b328f-976c-4b83-a136-cea8b67ee3d6"/><radialGradient id="acc3182a-0705-40b6-a14e-20b8350c5708" cx="264.4" cy="409.93" r="5.66" xlink:href="#a79b328f-976c-4b83-a136-cea8b67ee3d6"/><radialGradient id="acca9f84-1415-44c3-b8be-44097bedb134" cx="258.36" cy="422.19" r="5.66" xlink:href="#a79b328f-976c-4b83-a136-cea8b67ee3d6"/><radialGradient id="faf51d3a-b363-41d8-a72b-e4276cc593ea" cx="239.79" cy="416.02" r="5.66" xlink:href="#a79b328f-976c-4b83-a136-cea8b67ee3d6"/><style>.b788af49-ac79-49ae-bc9e-1eb51edef0ed{fill:#373735}.a7c45144-25e8-49ec-ab5b-7a9d3e10d9ff{fill:#121211;stroke:#b5b5b5}.afcbe064-8a8b-4a2f-9ad2-faaab7a425fa,.b003229a-ca14-4dd1-9fa2-62c6bd089733,.b5630bfd-cb8f-4f53-a6b9-9b041976764b,.ba5f84ea-f1c6-44bc-bf6e-7dd7b24826f7{stroke:#b5b5b5}.a7c45144-25e8-49ec-ab5b-7a9d3e10d9ff,.afcbe064-8a8b-4a2f-9ad2-faaab7a425fa,.b003229a-ca14-4dd1-9fa2-62c6bd089733,.b2052ac2-56ff-4378-a482-c1e6221553f4,.b5630bfd-cb8f-4f53-a6b9-9b041976764b,.ba5f84ea-f1c6-44bc-bf6e-7dd7b24826f7,.e0130705-a13d-4462-a12a-374c7dbb47e8,.fa2a53c1-4c1b-42d2-b8f7-216315925150{stroke-miterlimit:10}.a7c45144-25e8-49ec-ab5b-7a9d3e10d9ff,.afcbe064-8a8b-4a2f-9ad2-faaab7a425fa,.b003229a-ca14-4dd1-9fa2-62c6bd089733,.b5630bfd-cb8f-4f53-a6b9-9b041976764b,.ba5f84ea-f1c6-44bc-bf6e-7dd7b24826f7,.e0130705-a13d-4462-a12a-374c7dbb47e8{stroke-width:.5px}.fa2a53c1-4c1b-42d2-b8f7-216315925150{fill:#443840}.e0130705-a13d-4462-a12a-374c7dbb47e8,.fa2a53c1-4c1b-42d2-b8f7-216315925150{stroke:#090000}.fa2a53c1-4c1b-42d2-b8f7-216315925150{stroke-width:.75px}.e0130705-a13d-4462-a12a-374c7dbb47e8{fill:#6b0c05}.f51e6eb8-d41f-4779-ba1c-09deeef5e548{fill:#86382f}.b2052ac2-56ff-4378-a482-c1e6221553f4{stroke:#373737}.f1593b24-a838-4eb2-83e8-165da6c43452{fill:#fe0001}.afcbe064-8a8b-4a2f-9ad2-faaab7a425fa{fill:#dc6e05}.b5630bfd-cb8f-4f53-a6b9-9b041976764b{fill:#12e600}.b003229a-ca14-4dd1-9fa2-62c6bd089733{fill:#0b47ce}.e11ff801-3cc3-465b-9ecd-3f464927afee{fill:#fff}.ba5f84ea-f1c6-44bc-bf6e-7dd7b24826f7,.f4102304-28d8-42e8-8e8c-e9b9b2248268{fill:#282826}.a27e0129-aaf5-4352-bd65-9225c156adff{fill:#ae7a82}.ea36bc7d-5d0c-49de-9c16-466e44aa6711{fill:url(#a79b328f-976c-4b83-a136-cea8b67ee3d6)}.fdfea29c-5fdb-409f-9b79-33d524024294{fill:url(#baaf85c3-864b-488a-b422-732f6ed8f79b)}.bb5014e4-ccfb-4f75-b083-be74a69764dc{fill:#0000ef}.a2a228af-13ef-48c1-ac9f-65d884bf64b6{fill:#930303}.e81dcfc8-b994-41fe-9593-4d047a46e6f2{fill:#e7e7e7}.a0a12946-2d92-4b6f-9943-16dba4e815e5{fill:#2c2b29}.fef39d12-b1c9-42ee-a6f2-986c0ce64892{fill:#fd0101}.f17a70cb-b7da-4751-9a40-7de60cca86f3{fill:#fc0303}.e6525091-66dc-4448-bc84-25c26972f5cf{fill:#7e0303}.bfc1b126-3604-4924-9fa1-b9712ce27b3f{fill:#831111}</style></defs><g id="ae2836bc-9604-454e-a724-c8f397c05fb3" data-name="Calque 1"><path id="b081a401-7ca2-4a68-b8a0-e7b0b5e3426f" data-name="ombre" style="opacity:.5;fill:#373735" d="m452.03 588.79 21.51-5.91H485.41l1.58 2.96 237.36 43.3h11.08l11.07 31.39-46.41 37.71-46.42 13.19-8.18-1.32.27-1.85-13.98-2.63-83.6 27.95-73.32 51.57-22.83 6.82-7.77-1.16v-2.63l-16.08-3.03-129.99 34.37 153.84-230.73z"/><g id="ed9d7c15-a08d-40e6-8dfe-71732a625fe5" data-name="bottom"><path class="b788af49-ac79-49ae-bc9e-1eb51edef0ed" d="m36 454.56 224.9 39.62v4.35l25.72 6.13-.4 311.34-248.24-47.27L36 454.56z"/><path class="a7c45144-25e8-49ec-ab5b-7a9d3e10d9ff" d="m202 526.54-78.38-13.74c-3 .19-4.26 3.56-4.26 3.56l.2 85c.69 2.18 3.86 5 3.86 5l74.27 13.46c5.14.49 7.52-5.25 7.52-5.25v-82.69a7.12 7.12 0 0 0-3.21-5.34zm-49.9 22.55-18.69-3.46v-20l2.27-1.88 18.1 3.07-1.78 2.69zm31.45 6.13-18.69-3.46v-20l2.27-1.87 18.1 3.06-1.78 2.67z" transform="translate(-.98 -.52)"/><path class="fa2a53c1-4c1b-42d2-b8f7-216315925150" d="m134.7 523.25-2.27 1.88v19.98l18.69 3.46-.1-19.58 1.78-2.67-18.1-3.07zM166.15 529.38l-2.27 1.88v19.98l18.69 3.46-.1-19.58 1.78-2.67-18.1-3.07z"/><path class="e0130705-a13d-4462-a12a-374c7dbb47e8" d="M140.14 543.03v-12.85l8.01 1.78v12.56l-8.01-1.49zM171.2 548.87v-12.86l8.01 1.78v12.56l-8.01-1.48z"/><path d="M135.23 543.16v-15.23l2.05.4v15.16l-2.05-.33zM166.68 548.7v-15.23l2.04.4v15.16l-2.04-.33z"/><path class="f51e6eb8-d41f-4779-ba1c-09deeef5e548" d="M140.4 530.69v-.35l7.47 1.8.01.43-7.48-1.88zM171.46 536.62v-.29l7.47 1.64.01.35-7.48-1.7z"/><circle cx="192.4" cy="574.85" r="4.25" style="fill:#8b8b8b;stroke-width:.75px;stroke:#090000;stroke-miterlimit:10"/><path class="b2052ac2-56ff-4378-a482-c1e6221553f4" d="M136.29 598.71v-11.27l11.96 2.18v11.3l-11.96-2.21zM167.54 604.25v-11.27l11.96 2.17v10.88l-11.96-1.78z"/></g><g id="ba432919-d22e-4573-8d54-3545b9bb4af4" data-name="t molding"><path class="f1593b24-a838-4eb2-83e8-165da6c43452" d="m11.46 450.59-.79-39.76L1 407.66v45.1l27.89 5.54c.59 103.55 1 207.6 1.58 311.15a6.18 6.18 0 0 0 3.53 2.19 12.58 12.58 0 0 0 5 0l-2-316.56zM272.36 497v-41.27l-10.28-1.19-.2 44.51 25.71 6.13s-1.51 313.85 0 315.69 8.77 1.32 8.77 1.32l.93-319.91z" transform="translate(-.98 -.52)"/><path class="f1593b24-a838-4eb2-83e8-165da6c43452" d="m78.72 346.42-8.15-1.3 16.26-218.56 9.04 1.5-17.15 218.36zM329.24 388.85l9.1 1.28 18.49-224.31h-26.37l-.26-90.92-10.06-1.84v94.84l6.04 1.09h20.27l-17.21 219.86z"/><path class="f1593b24-a838-4eb2-83e8-165da6c43452" d="M88.49 127.19s-28.17-.35-29.11-.85c0-31.21.06-62.83 0-94l9.36 2.64.48 89.02z" transform="translate(-.98 -.52)"/><g id="fafe87ce-7e46-4c77-b9df-e8305e2acbcf" data-name="clair"><path class="f1593b24-a838-4eb2-83e8-165da6c43452" d="m0 407.14 9.69 3.17L78 346.25l-8.11-1.94L0 407.14zM261.1 454.02l10.28 1.19 66.96-65.87-8.62-1.6-68.62 66.28zM111.56 0 58.42 31.78l9.36 2.64L120.36 3.3l2.74-1.62-2.57-.36L111.56 0zM383.74 40.62l-11.21-.8-52.39 33.24 10.06 1.84 53.54-34.28z"/></g></g><g id="bfec32eb-cd67-4cfd-b90e-9a0026a84252" data-name="side"><path class="a7c45144-25e8-49ec-ab5b-7a9d3e10d9ff" d="m453.13 308.64.63-159.63-70.02-108.39L330.2 74.9l.26 90.92h26.37l-18.49 224.31-66.96 65.08v41.27l24.93 5.28-.93 319.91 8.25-6.32 149.65-543.7-.21 21.51-142.1 516.55-1.61 1.24 6.94-5.32 136.83-496.99zM324.06 799.15l-7.76 6.48 11.99-9.2 124.7-453.24.05-12.13-128.98 468.09zM335.43 790.95l-1.32 1.02 6.87-5.27 111.79-407.64v21.25l.22-57.12-.22 24-117.34 423.76zM343 785.15l108.58-83.28 1.18-299.85L347.4 781.78l-4.4 3.37z"/><path style="fill:#bf0000;stroke-width:.5px;stroke-miterlimit:10;stroke:#b5b5b5" d="m303.63 815.35 5.73-4.4-5.73 4.4z"/><path class="f1593b24-a838-4eb2-83e8-165da6c43452" d="m453.07 293.16.21-21.51-149.65 543.7 5.73-4.4 1.61-1.24 142.1-516.55z"/><path class="afcbe064-8a8b-4a2f-9ad2-faaab7a425fa" d="M453.13 330.74v-22.1l-.09 22.42.09-.32zM316.3 805.63z"/><path style="fill:#06ff06" d="m453.04 331.06.09-22.42L316.3 805.63l7.76-6.48 128.98-468.09z"/><path class="b5630bfd-cb8f-4f53-a6b9-9b041976764b" d="M452.99 343.19zM328.29 796.43l5.82-4.46-5.82 4.46z"/><path style="fill:#000cf7" d="m334.11 791.97 1.32-1.02 117.34-423.76.22-24-124.7 453.24 5.82-4.46z"/><path class="b003229a-ca14-4dd1-9fa2-62c6bd089733" d="m340.98 786.7 2.02-1.55-2.02 1.55zM452.77 402v-1.69l-.01 1.71.01-.02z"/><path class="e11ff801-3cc3-465b-9ecd-3f464927afee" d="m340.98 786.7 2.02-1.55 4.4-3.37 105.36-379.76.01-1.71v-21.25L340.98 786.7z"/></g><g id="fcb16e0c-be1c-4df2-b46a-fdb05511bb6f" data-name="panel"><path class="ba5f84ea-f1c6-44bc-bf6e-7dd7b24826f7" d="m10.48 450.07 250.42 44.11.2-40.16L9.69 410.31l.79 39.76z"/><path class="b788af49-ac79-49ae-bc9e-1eb51edef0ed" d="m79.37 345.21-69.68 65.1 251.41 43.71 68.62-66.28-250.35-42.53z"/></g><g id="bebe5ba1-1ec9-4768-be84-5e753eb2b664" data-name="ecran"><path class="ba5f84ea-f1c6-44bc-bf6e-7dd7b24826f7" d="M96.84 129.36 79.7 347.72l250.52 42.43L347.82 168zm224.28 67.76c0 .2-.29.32-.48.49l-10.43 144.83a35.43 35.43 0 0 1-4.3 3.78l1.4.29v10.7s-1.4 4.75-11.08 2.64c-11.19-2.44-178.55-31.91-178.55-31.91l8.72-6.78v-1.39s-2.46.52-6-7l-12.48 2.77h-4l11.34-158.77s4-6.85 10.81-6.59 191.16 30.59 191.16 30.59 6.17 1.07 3.89 16.35z" transform="translate(-.98 -.52)"/><path d="M317.28 180S133 149.66 126.12 149.4s-10.81 6.6-10.81 6.6l-11.74 160.08h4.35l12.29-2.68c-.1-.23-.74-1.57-.85-1.8L131 166.54s2.11-5.54 7.12-7.38l177.49 27.16a20.77 20.77 0 0 1 5.11 9.76l-.05.75c.19-.17.62.66.66.47 3.23-14.06-4.05-17.3-4.05-17.3z" transform="translate(-.98 -.52)" style="fill:#151312"/><path d="m125.32 320-8.56 8s164.63 29.3 178.61 32.24c10.36 2.17 14.43-3.58 14.43-3.58l.61-7.37.39-7.71-4.89 3.84a20.85 20.85 0 0 1-7.73 3.87z" transform="translate(-.98 -.52)" style="fill:#555353"/><path d="M319.5 197.81c.45-.36.83-.69 1.14-1l.66-.52a20.31 20.31 0 0 0-5.72-10l-177.49-27.13c-5 1.84-7.12 7.38-7.12 7.38L119.36 311.6l.32.66c3.54 7.52 6.28 8 6.28 8l.44.08 171.78 28.93a20.85 20.85 0 0 0 7.73-3.87c2.57-1.91 4.89-3.84 4.89-3.84l10.5-145.29c-.44.46-1.05.96-1.8 1.54zM143.83 302.35z" transform="translate(-.98 -.52)" style="fill:#008aa6"/></g><g id="e7fef0c5-b3b9-431d-9ae7-6cdcf25d5e7f" data-name="top"><path id="b07a6c0f-b44f-4d49-a5dd-d5b41cbb61e5" data-name="marquee" class="ba5f84ea-f1c6-44bc-bf6e-7dd7b24826f7" d="m68.24 123.5 251.47 39.03.43-89.47L67.78 34.42l.46 89.08z"/><path style="stroke-miterlimit:10;stroke:#b5b5b5;fill:#373735" d="m128.84 2.64-5.74-.96-55.32 32.74 252.36 38.64 52.39-33.24L128.84 2.64z"/></g><g id="a42cde81-0b74-41c1-af1e-76f4ee43f276" data-name="stickp1"><path class="f4102304-28d8-42e8-8e8c-e9b9b2248268" d="M68.92 377.27v5.16H62.4v-5.16c-5.06.64-8.77 2.7-8.77 5.16 0 3 5.38 5.35 12 5.35s12-2.39 12-5.35c.06-2.43-3.63-4.52-8.71-5.16z" transform="translate(-.98 -.52)"/><path class="a27e0129-aaf5-4352-bd65-9225c156adff" d="M68.92 377.27v-17.78a12.18 12.18 0 0 1-3 .39 12.4 12.4 0 0 1-3.48-.49v17.88a26.67 26.67 0 0 1 6.52 0z" transform="translate(-.98 -.52)"/><path class="a27e0129-aaf5-4352-bd65-9225c156adff" d="M68.92 382.43v-5.16a26.67 26.67 0 0 0-6.52 0v5.16z" transform="translate(-.98 -.52)"/><path class="ea36bc7d-5d0c-49de-9c16-466e44aa6711" d="M68.92 358.89v.6a11.24 11.24 0 0 0 8.77-10.72c0-6.14-5.29-11.11-11.81-11.11s-11.82 5-11.82 11.11a11.22 11.22 0 0 0 8.34 10.62v-.5z" transform="translate(-.98 -.52)"/><path class="a27e0129-aaf5-4352-bd65-9225c156adff" d="M68.92 359.49v-.6H62.4v.5a12.4 12.4 0 0 0 3.48.49 12.18 12.18 0 0 0 3.04-.39z" transform="translate(-.98 -.52)"/><path class="ea36bc7d-5d0c-49de-9c16-466e44aa6711" d="M68.92 359.49v-.6H62.4v.5a12.4 12.4 0 0 0 3.48.49 12.18 12.18 0 0 0 3.04-.39z" transform="translate(-.98 -.52)"/></g><g id="bcdfbafc-1630-48eb-922e-023e2ae33f74" data-name="stickp2"><path class="f4102304-28d8-42e8-8e8c-e9b9b2248268" d="M198.88 399.49v5.16h-6.53v-5.16c-5 .64-8.77 2.7-8.77 5.16 0 3 5.39 5.35 12 5.35s12-2.39 12-5.35c.07-2.46-3.64-4.52-8.7-5.16z" transform="translate(-.98 -.52)"/><path class="a27e0129-aaf5-4352-bd65-9225c156adff" d="M198.88 399.49v-17.78a12.2 12.2 0 0 1-3 .39 12.83 12.83 0 0 1-3.48-.49v17.88a26.75 26.75 0 0 1 6.53 0z" transform="translate(-.98 -.52)"/><path class="a27e0129-aaf5-4352-bd65-9225c156adff" d="M198.88 404.65v-5.16a26.75 26.75 0 0 0-6.53 0v5.16z" transform="translate(-.98 -.52)"/><path class="fdfea29c-5fdb-409f-9b79-33d524024294" d="M198.88 381.11v.6a11.24 11.24 0 0 0 8.77-10.71c0-6.14-5.29-11.11-11.82-11.11S184 364.85 184 371a11.22 11.22 0 0 0 8.34 10.62v-.5z" transform="translate(-.98 -.52)"/><path class="a27e0129-aaf5-4352-bd65-9225c156adff" d="M198.88 381.71v-.6h-6.53v.5a12.83 12.83 0 0 0 3.48.49 12.2 12.2 0 0 0 3.05-.39z" transform="translate(-.98 -.52)"/><path class="fdfea29c-5fdb-409f-9b79-33d524024294" d="M198.88 381.71v-.6h-6.53v.5a12.83 12.83 0 0 0 3.48.49 12.2 12.2 0 0 0 3.05-.39z" transform="translate(-.98 -.52)"/></g><g id="ff821391-d2c5-4d4d-afa1-b565ec8cf1ac" data-name="boutons P1"><g id="e1d7aaec-8ea4-47bd-a4be-3e70bca432d9" data-name="4"><path class="bb5014e4-ccfb-4f75-b083-be74a69764dc" d="M92.54 389.14c-3.86 0-8.12 1.53-8.12 4.87 0 2.95 4.1 4.62 7.94 4.62 4.11 0 8-1.73 8-4.88-.04-2.35-3.88-4.61-7.82-4.61zm-.18 8.63c-3.86 0-7-1.74-7-3.89s3.13-3.89 7-3.89 7 1.74 7 3.89-3.14 3.89-7 3.89z" transform="translate(-.98 -.52)"/><path d="M92.36 390c-3.86 0-7 1.74-7 3.89s3.13 3.89 7 3.89 7-1.74 7-3.89-3.14-3.89-7-3.89z" transform="translate(-.98 -.52)" style="fill:url(#be361661-84f0-4764-83ff-00434142e5a8)"/></g><g id="b762ca93-54b0-4625-b0d0-ce6028594851" data-name="5"><path class="bb5014e4-ccfb-4f75-b083-be74a69764dc" d="M114.79 389.14c-3.86 0-8.12 1.53-8.12 4.87 0 2.95 4.1 4.62 7.94 4.62 4.11 0 8-1.73 8-4.88-.04-2.35-3.88-4.61-7.82-4.61zm-.18 8.63c-3.86 0-7-1.74-7-3.89s3.13-3.89 7-3.89 7 1.74 7 3.89-3.14 3.89-7 3.89z" transform="translate(-.98 -.52)"/><path d="M114.61 390c-3.86 0-7 1.74-7 3.89s3.13 3.89 7 3.89 7-1.74 7-3.89-3.14-3.89-7-3.89z" transform="translate(-.98 -.52)" style="fill:url(#fda3df57-fba1-4789-bcce-31842cbfda5d)"/></g><g id="e8cb5baf-c581-4afd-9203-a395465998f4" data-name="6"><path class="bb5014e4-ccfb-4f75-b083-be74a69764dc" d="M133.35 395.3c-3.86 0-8.13 1.53-8.13 4.87 0 3 4.11 4.62 7.95 4.62 4.1 0 8-1.73 8-4.88-.04-2.35-3.88-4.61-7.82-4.61zm-.18 8.63c-3.86 0-7-1.74-7-3.89s3.13-3.89 7-3.89 7 1.74 7 3.89-3.17 3.89-7 3.89z" transform="translate(-.98 -.52)"/><path d="M133.17 396.15c-3.86 0-7 1.74-7 3.89s3.13 3.89 7 3.89 7-1.74 7-3.89-3.17-3.89-7-3.89z" transform="translate(-.98 -.52)" style="fill:url(#fde74791-c3fa-4602-87fe-81cb9814e2e4)"/></g><g id="ed0bf84a-4143-403b-9c93-e05c4a673402" data-name="3"><path class="bb5014e4-ccfb-4f75-b083-be74a69764dc" d="M139.39 383c-3.86 0-8.13 1.53-8.13 4.88 0 2.95 4.11 4.61 8 4.61 4.1 0 8-1.73 8-4.88-.09-2.31-3.93-4.61-7.87-4.61zm-.18 8.63c-3.86 0-7-1.74-7-3.89s3.13-3.89 7-3.89 7 1.75 7 3.89-3.14 3.93-7 3.93z" transform="translate(-.98 -.52)"/><path d="M139.21 383.89c-3.86 0-7 1.75-7 3.89s3.13 3.89 7 3.89 7-1.74 7-3.89-3.14-3.89-7-3.89z" transform="translate(-.98 -.52)" style="fill:url(#ab47d69d-0e4c-4688-8443-881562da7c02)"/></g><g id="eb279f88-e020-4356-ab74-7cf353ba3b29" data-name="2"><path class="bb5014e4-ccfb-4f75-b083-be74a69764dc" d="M121.79 377.35c-3.86 0-8.12 1.53-8.12 4.88 0 2.95 4.1 4.61 7.94 4.61 4.11 0 8-1.73 8-4.88-.04-2.34-3.88-4.61-7.82-4.61zm-.18 8.64c-3.86 0-7-1.74-7-3.89s3.13-3.89 7-3.89 7 1.74 7 3.89-3.14 3.9-7 3.9z" transform="translate(-.98 -.52)"/><path d="M121.61 378.21c-3.86 0-7 1.74-7 3.89s3.13 3.89 7 3.89 7-1.74 7-3.89-3.14-3.89-7-3.89z" transform="translate(-.98 -.52)" style="fill:url(#be3d6996-d5d2-4d54-b1d2-64f00a28bd3e)"/></g><g id="b4273ccb-b49d-4719-98a2-942c970e4df4" data-name="1"><path class="bb5014e4-ccfb-4f75-b083-be74a69764dc" d="M100.5 377.78c-3.86 0-8.13 1.53-8.13 4.88 0 2.95 4.11 4.62 7.95 4.62 4.1 0 8-1.73 8-4.88-.04-2.35-3.88-4.62-7.82-4.62zm-.18 8.64c-3.86 0-7-1.74-7-3.89s3.13-3.89 7-3.89 7 1.74 7 3.89-3.14 3.89-7 3.89z" transform="translate(-.98 -.52)"/><path d="M100.32 378.64c-3.86 0-7 1.74-7 3.89s3.13 3.89 7 3.89 7-1.74 7-3.89-3.14-3.89-7-3.89z" transform="translate(-.98 -.52)" style="fill:url(#e4642e57-c195-4b6f-9948-0bc7d13c0b67)"/></g></g><g id="a03b36e7-f48e-4ff6-8827-20f7bd04a317" data-name="boutons P2"><g id="f8aba35d-9fb3-4017-94d0-7370a39a8148" data-name="1"><path class="a2a228af-13ef-48c1-ac9f-65d884bf64b6" d="M225.69 399.93c-3.86 0-8.13 1.53-8.13 4.87 0 2.95 4.11 4.62 7.95 4.62 4.1 0 8-1.73 8-4.88-.04-2.35-3.88-4.61-7.82-4.61zm-.18 8.63c-3.86 0-7-1.74-7-3.89s3.13-3.89 7-3.89 7 1.74 7 3.89-3.14 3.89-7 3.89z" transform="translate(-.98 -.52)"/><path d="M225.51 400.78c-3.86 0-7 1.74-7 3.89s3.13 3.89 7 3.89 7-1.74 7-3.89-3.14-3.89-7-3.89z" transform="translate(-.98 -.52)" style="fill:url(#b43bfb28-1265-435e-b1b2-15b0af6b8c4e)"/></g><g id="af3617db-fc47-4b47-ae2e-78c26c40db2c" data-name="2"><path class="a2a228af-13ef-48c1-ac9f-65d884bf64b6" d="M247 399.49c-3.86 0-8.13 1.54-8.13 4.88 0 2.95 4.11 4.62 7.95 4.62 4.1 0 8-1.73 8-4.88-.07-2.35-3.91-4.62-7.82-4.62zm-.18 8.64c-3.86 0-7-1.74-7-3.89s3.13-3.89 7-3.89 7 1.74 7 3.89-3.17 3.89-7.03 3.89z" transform="translate(-.98 -.52)"/><path d="M246.79 400.35c-3.86 0-7 1.74-7 3.89s3.13 3.89 7 3.89 7-1.74 7-3.89-3.14-3.89-7-3.89z" transform="translate(-.98 -.52)" style="fill:url(#b81e56aa-cff0-44af-b384-7daa789fa41f)"/></g><g id="f984dc03-bb69-45f1-862e-2de2902e442c" data-name="3"><path class="a2a228af-13ef-48c1-ac9f-65d884bf64b6" d="M264.58 405.18c-3.86 0-8.12 1.53-8.12 4.88 0 2.95 4.1 4.61 7.94 4.61 4.1 0 8-1.73 8-4.88-.04-2.35-3.88-4.61-7.82-4.61zm-.18 8.64c-3.86 0-7-1.75-7-3.89s3.13-3.89 7-3.89 7 1.74 7 3.89-3.14 3.89-7 3.89z" transform="translate(-.98 -.52)"/><path d="M264.4 406c-3.86 0-7 1.74-7 3.89s3.13 3.89 7 3.89 7-1.75 7-3.89-3.14-3.89-7-3.89z" transform="translate(-.98 -.52)" style="fill:url(#acc3182a-0705-40b6-a14e-20b8350c5708)"/></g><g id="b5e8cfa7-2ff0-4d03-8fc5-90a0132ffe10" data-name="4"><path class="a2a228af-13ef-48c1-ac9f-65d884bf64b6" d="M258.54 417.44c-3.86 0-8.13 1.53-8.13 4.88 0 2.95 4.11 4.61 8 4.61 4.1 0 8-1.73 8-4.88-.09-2.35-3.93-4.61-7.87-4.61zm-.18 8.64c-3.86 0-7-1.75-7-3.89s3.13-3.89 7-3.89 7 1.74 7 3.89-3.14 3.89-7 3.89z" transform="translate(-.98 -.52)"/><path d="M258.36 418.3c-3.86 0-7 1.74-7 3.89s3.13 3.89 7 3.89 7-1.75 7-3.89-3.14-3.89-7-3.89z" transform="translate(-.98 -.52)" style="fill:url(#acca9f84-1415-44c3-b8be-44097bedb134)"/></g><g id="fe9b1b84-c0a8-49a9-9e09-1dd3fa175703" data-name="5"><path class="a2a228af-13ef-48c1-ac9f-65d884bf64b6" d="M240 411.28c-3.86 0-8.13 1.53-8.13 4.88 0 2.95 4.11 4.61 7.95 4.61 4.1 0 8-1.73 8-4.88-.07-2.35-3.91-4.61-7.82-4.61zm-.18 8.63c-3.86 0-7-1.74-7-3.89s3.13-3.89 7-3.89 7 1.75 7 3.89-3.17 3.89-7.03 3.89z" transform="translate(-.98 -.52)"/><path d="M239.79 412.13c-3.86 0-7 1.75-7 3.89s3.13 3.89 7 3.89 7-1.74 7-3.89-3.14-3.89-7-3.89z" transform="translate(-.98 -.52)" style="fill:url(#faf51d3a-b363-41d8-a72b-e4276cc593ea)"/></g><g id="a543b732-d256-4671-b5b5-83bbf7bc27f2" data-name="6"><path class="a2a228af-13ef-48c1-ac9f-65d884bf64b6" d="M217.73 411.28c-3.86 0-8.13 1.53-8.13 4.88 0 2.95 4.11 4.61 8 4.61 4.1 0 8-1.73 8-4.88-.09-2.35-3.93-4.61-7.87-4.61zm-.18 8.63c-3.86 0-7-1.74-7-3.89s3.13-3.89 7-3.89 7 1.75 7 3.89-3.14 3.89-7 3.89z" transform="translate(-.98 -.52)"/><path d="M217.55 412.13c-3.86 0-7 1.75-7 3.89s3.13 3.89 7 3.89 7-1.74 7-3.89-3.14-3.89-7-3.89z" transform="translate(-.98 -.52)" style="fill:url(#b3e82f53-638f-48fb-a3f5-323271fb7dd7)"/></g></g><path class="e81dcfc8-b994-41fe-9593-4d047a46e6f2" d="M228.57 237.19v.07l-5.92-1v-.08zM236.56 238.53a.13.13 0 0 0 0 .06l-5.72-1v-.06z" transform="translate(-.98 -.52)"/><path class="a0a12946-2d92-4b6f-9943-16dba4e815e5" d="m210.17 273.38-65.56-11c-.87-.14-.87-.14-.74-.92.25-1.54.47-3.08.75-4.61.78-4.31 1.48-8.63 2.22-12.95.09-.48.22-1 .29-1.44 0-.18.12-.23.31-.19l.75.13 119.31 19.98a16.13 16.13 0 0 1 4.69 1.42 11.54 11.54 0 0 1 5.67 5.9 8.36 8.36 0 0 1 .63 3.88c0 .38-.08.76-.15 1.14l-1.56 9.36c-.07.39-.13.42-.54.36l-40.11-6.72zm14.68-7.7c-.4 2.35-.79 4.71-1.19 7.07 0 .23 0 .34.3.38 1 .15 1.95.32 2.93.49.51.09.51.09.59-.37q.69-4.22 1.4-8.43c0-.08 0-.21.12-.22s.13.1.17.17c1.69 3.14 3.43 6.26 5.06 9.42a2.38 2.38 0 0 0 3.55.6c.9-.94 1.91-1.79 2.87-2.68l4.89-4.53c.08-.07.15-.22.26-.17s0 .2 0 .31v.12c-.47 2.79-.93 5.58-1.4 8.37 0 .25 0 .35.31.4 1 .16 2 .32 3.06.51.34.07.45 0 .49-.32l2.32-13.83a1.32 1.32 0 0 0-.25-1 2.34 2.34 0 0 0-3.26-.37l-2.16 2-8.12 7.4c-.25.23-.28.22-.45-.08-2.2-4.06-4.42-8.11-6.61-12.17a2.14 2.14 0 0 0-1.43-1.06A1.74 1.74 0 0 0 226 259zm-4.51-.71c.38-2.31.76-4.61 1.16-6.92a1.32 1.32 0 0 0-.45-1.21 2.4 2.4 0 0 0-3.17 0c-2.39 2.24-4.82 4.43-7.24 6.63l-2.95 2.7c-.13.12-.23.25-.37 0l-3.44-6.31c-1.1-2-2.19-4-3.3-6a2.24 2.24 0 0 0-2.21-1 1.52 1.52 0 0 0-1.5 1.37q-1.16 6.86-2.3 13.71c0 .28.05.37.35.41 1 .15 2 .32 3 .5.44.07.45.08.51-.3.46-2.73.91-5.46 1.37-8.19 0-.13 0-.27.06-.4s0-.16.11-.17.1.08.13.14.18.34.28.51c1.63 3 3.29 6 4.88 9.07a2.34 2.34 0 0 0 3.35.6c.47-.47 1-.91 1.48-1.37l6.5-6c.06-.05.09-.14.19-.11s.07.14.06.22c-.14.81-.28 1.62-.41 2.44-.35 2.06-.69 4.13-1 6.2 0 .22 0 .32.29.36l3 .5c.44.07.45.07.52-.31q.51-3.6 1.1-7.04zm33.15 5.67c-.38 2.28-.76 4.57-1.15 6.85-.06.31.06.41.38.45 1 .16 2 .32 3 .5.33.07.45 0 .5-.31.16-1 .35-2.08.51-3.12 0-.23.12-.33.4-.28l12.77 2.14c.33.05.39.18.34.45-.18 1-.34 2.08-.53 3.12-.05.25 0 .35.32.4 1 .15 2 .32 3 .49.45.07.46.07.53-.34l1.22-7.32a6.88 6.88 0 0 0-2.51-6.52 12.61 12.61 0 0 0-6.36-3c-2.38-.41-4.76-.8-7.13-1.19-.72-.12-1.45-.26-2.17-.35a1.6 1.6 0 0 0-1.91 1.29c-.46 2.27-.83 4.5-1.21 6.74zm-62.24-10.42 1.14-6.79a1.24 1.24 0 0 0 0-.47 1.91 1.91 0 0 0-1.63-1.33c-1.55-.26-3.1-.53-4.65-.77-1.84-.3-3.66-.71-5.51-.87a11.55 11.55 0 0 0-7 1.39 6.55 6.55 0 0 0-3.37 4.67q-.63 3.74-1.25 7.47c-.07.4-.07.4.36.47 1 .17 2 .32 2.93.5.33.06.45 0 .5-.31.15-1 .34-2.06.5-3.09 0-.29.17-.35.48-.3l12.67 2.12c.34 0 .42.16.37.46-.19 1-.35 2.08-.54 3.11 0 .26 0 .36.32.4 1 .16 2 .32 3 .51.33.06.44 0 .49-.32.42-2.28.81-4.57 1.19-6.85zm-38.3 1 6.47 1.08a7.76 7.76 0 0 0 2.76 0 3.93 3.93 0 0 0 3.34-2.92c.64-3.78 1.26-7.55 1.9-11.33.05-.27 0-.37-.33-.42-1-.15-2-.32-3-.5-.36-.07-.46 0-.51.33q-.92 5.58-1.86 11.15a1.08 1.08 0 0 1-1.24.95 4.41 4.41 0 0 1-.73-.08c-1-.18-2-.37-3.06-.54l-7-1.15c-.28-.05-.35-.15-.31-.38.11-.59.19-1.18.31-1.76.06-.28 0-.4-.35-.45-.84-.13-1.68-.26-2.52-.42-.34-.07-.44 0-.49.32-.24 1.49-.49 3-.74 4.45-.07.42-.07.42.42.5zM230.83 237.63l5.72 1c.15.09.15.2.13.35-.37 2.17-.73 4.34-1.11 6.51 0 .29 0 .38.34.43 3.09.5 6.18 1 9.27 1.54.32.05.34.16.31.44-.06.67-.23 1.33-.32 2-.22 1.55-.54 3.09-.8 4.63-.1.59-.17 1.19-.26 1.78 0 .2-.12.31-.4.26L228.57 254c-.65-.11-.65-.11-.56-.68q1.29-7.69 2.57-15.38c.02-.15.02-.31.25-.31zm3.94 12.7c-.13.78-.25 1.56-.39 2.34-.05.27 0 .38.33.43 1.06.16 2.11.34 3.16.53.32.06.44 0 .49-.31.25-1.55.51-3.1.78-4.66 0-.24 0-.34-.31-.38q-1.62-.25-3.24-.54c-.28-.05-.39 0-.43.27-.16.78-.26 1.55-.39 2.32zM255.63 249.17c2.55.43 5.09.86 7.64 1.27.34.06.42.17.37.47q-.7 4.14-1.39 8.3c-.07.37-.1.4-.52.33L246.38 257c-.27-.05-.34-.16-.3-.39q.72-4.21 1.41-8.43c0-.28.18-.33.47-.28 2.55.44 5.11.86 7.67 1.29zm1.31 4.88c.14-.8.27-1.6.41-2.4 0-.23 0-.36-.3-.4l-3.44-.58c-.26 0-.38 0-.42.27l-.81 4.85c0 .25.05.36.33.41l3.37.56c.3.06.42 0 .46-.3.13-.8.27-1.6.4-2.41zM173.53 244.78l-7.64-1.27c-.31 0-.37-.15-.33-.42q.72-4.2 1.42-8.42c0-.25.13-.32.4-.27l15.36 2.6c.41.07.43.11.37.49-.26 1.55-.53 3.11-.78 4.66 0 .31-.17.37-.5.32-3.07-.53-6.15-1-9.22-1.55-.46-.08-.46-.08-.52.32s-.11.7-.19 1 0 .35.31.4c2.06.33 4.11.68 6.17 1l3.16.53c.32.05.42.17.37.44s-.14.74-.19 1.11-.18.38-.51.32zm.92-5.45c.56.1 1.13.18 1.69.29.25 0 .35 0 .38-.25 0-.39.12-.78.2-1.17 0-.21 0-.32-.26-.36l-3.41-.57c-.22 0-.33 0-.36.23q-.08.62-.18 1.23c0 .23.06.3.29.33.55.07 1.1.17 1.65.27zM211.28 241.75l7.64 1.28c.44.07.5.14.42.52-.43 2-.7 4-1.05 6-.14.74-.27 1.48-.37 2.23 0 .29-.15.37-.49.31-2.08-.36-4.17-.7-6.26-1l-9-1.51c-.42-.07-.43-.08-.37-.47.26-1.56.53-3.11.77-4.67 0-.32.18-.37.52-.31l9.16 1.54c.46.07.46.07.53-.33s.09-.67.17-1 0-.4-.36-.46c-2.34-.37-4.68-.77-7-1.16l-2.31-.38c-.24 0-.32-.12-.28-.34a10.85 10.85 0 0 0 .21-1.27c0-.27.16-.31.43-.26l5.37.9 2.27.38zm-1.15 7.25c.55.09 1.11.17 1.66.27.21 0 .33 0 .36-.21l.21-1.23c0-.19-.05-.29-.27-.33l-3.33-.56c-.24 0-.35 0-.38.24 0 .4-.11.79-.19 1.17-.05.23.05.33.29.37.52.07 1.1.17 1.65.28zM268.74 251.36c.87.15 1.74.31 2.62.44.31 0 .38.18.34.43-.08.4-.13.8-.21 1.2 0 .21 0 .3.27.34l3.36.56c.28 0 .38 0 .41-.27.06-.41.15-.82.2-1.23 0-.23.15-.27.37-.24l5.4.91c.21 0 .3.13.27.33-.08.43-.16.86-.22 1.29 0 .23-.16.29-.41.25-.44-.09-.89-.15-1.34-.24-.24 0-.33 0-.36.24-.05.4-.13.8-.19 1.2 0 .23-.15.3-.4.25-.47-.08-.94-.15-1.41-.24-.17 0-.24 0-.29.17-.13.44-.08.91-.25 1.34-.07.18.07.24.24.27l1.38.22c.28 0 .38.15.33.41s-.13.78-.21 1.17c0 .21.05.31.28.34l1.34.22c.25 0 .34.13.3.36-.09.42-.17.84-.22 1.27 0 .22-.15.27-.36.24l-.65-.11-4.62-.77c-.45-.08-.45-.08-.38-.49s.12-.76.19-1.14c.05-.21 0-.3-.27-.34l-3.44-.58c-.22 0-.29 0-.31.21-.06.4-.16.8-.19 1.21s-.19.37-.5.32l-4.72-.8c-1.16-.19-.93-.1-.8-1 0-.25.09-.49.12-.74s.16-.29.4-.25c.45.09.9.15 1.34.24.27.05.39 0 .42-.26s.14-.78.19-1.17.16-.31.41-.26c.46.09.92.15 1.37.24.21 0 .3 0 .32-.2.06-.43.13-.85.22-1.27 0-.21-.05-.28-.26-.31l-1.38-.23c-.24 0-.34-.12-.29-.36s.14-.78.21-1.17c0-.23 0-.35-.31-.38-.45-.06-.9-.15-1.35-.22-.25 0-.34-.14-.29-.37q.12-.63.21-1.26c0-.24.16-.29.4-.24zM222.64 236.28l5.92 1a.42.42 0 0 1 .05.36q-1.31 7.77-2.6 15.56c0 .28-.17.37-.48.31s-.88-.19-1.33-.26l-3.89-.62c-.46-.08-.45-.08-.39-.49q1.31-7.74 2.6-15.49c.02-.14 0-.28.12-.37zM191.71 247.82l-7.71-1.28c-.3 0-.4-.14-.35-.43q.72-4.2 1.41-8.4c0-.26.15-.32.42-.27l15.39 2.56c.31.05.42.18.36.45s-.11.72-.19 1.08-.13.41-.55.34l-4.16-.7-5.06-.85c-.28 0-.37 0-.41.25-.22 1.39-.46 2.78-.69 4.17a2.74 2.74 0 0 1 0 .28c-.11.6-.11.6.58.72l8.92 1.49c.42.07.45.11.39.5s-.15.72-.18 1.08-.19.35-.48.3c-.56-.11-1.12-.2-1.68-.29z" transform="translate(-.98 -.52)"/><path d="M291.07 282.1c-.25 1.47-.49 2.94-.74 4.41-.07.42-.07.42-.51.34l-4.27-.71c-.27 0-.37-.13-.3-.37s.07-.41.11-.62-.06-.27-.25-.29l-.49-.05c-.39-.06-.49 0-.51.37v.19c0 .43-.14.5-.63.42-1.39-.23-2.79-.47-4.19-.69-.32-.05-.4-.19-.36-.45.5-3 1-5.91 1.49-8.86.06-.36.14-.42.55-.33 2.95.58 5.92 1 8.87 1.52.52.09 1 .13 1.55.22s.47.1.4.52c-.24 1.46-.49 2.92-.73 4.38zm-8.37-.17 1.58.27c.22 0 .32 0 .35-.22.1-.59.2-1.19.31-1.79 0-.21-.06-.3-.29-.34l-3.13-.52c-.21 0-.31 0-.35.22-.08.59-.18 1.19-.29 1.79 0 .21 0 .31.27.34zm5.47-1.49c-.52-.08-1-.16-1.55-.26-.25-.05-.36 0-.39.24-.09.59-.19 1.19-.29 1.78-.05.23.05.29.28.33 1 .16 2 .33 3 .51.28.05.39 0 .43-.27.08-.56.17-1.13.28-1.69 0-.23 0-.35-.3-.39-.48-.08-.97-.17-1.46-.25z" transform="translate(-.98 -.52)" style="fill:#2785db"/><path d="M292.87 271.31c-.25 1.48-.5 3-.74 4.44-.07.38-.11.4-.52.34l-2.86-.48c-.41-.07-.49-.18-.43-.54.14-.85.28-1.71.43-2.56a.34.34 0 0 1 0-.1c.2-.63.12-.52.72-.43l1.48.25c.26 0 .4 0 .44-.25.09-.59.19-1.18.29-1.76 0-.21 0-.33-.3-.38l-8-1.34c-.26 0-.39.05-.42.28-.09.57-.19 1.14-.28 1.7 0 .23.05.36.31.41l3.06.52a.25.25 0 0 0 .33-.17 1.81 1.81 0 0 0 .12-.64c0-.19.11-.24.27-.29a.45.45 0 0 1 .2 0c.85.09.89.14.77.88-.21 1.26-.43 2.51-.63 3.77 0 .26-.17.34-.43.3l-5.43-.91c-.49-.08-.55-.15-.48-.58.49-3 1-5.91 1.48-8.87 0-.17.09-.23.28-.22s.55 0 .83.08l9.77 1.63c.55.09.55.1.47.6l-.72 4.32z" transform="translate(-.98 -.52)" style="fill:#44c047"/><path d="M289.84 254.78c1.75.29 3.49.59 5.24.87.3 0 .4.13.35.42-.51 3-1 5.95-1.49 8.92-.05.3-.16.38-.49.32-1.4-.25-2.8-.48-4.2-.71-.36-.06-.42-.15-.36-.47 0-.12.06-.23.08-.34.08-.47.08-.47-.46-.56h-.21c-.5-.08-.51-.08-.54.39 0 .18-.1.34-.11.52s-.18.19-.35.16l-4.44-.74c-.23 0-.32-.15-.29-.35.17-1 .35-2 .51-3.06 0-.28.23-.27.45-.23l1.83.3c.8.15 1.61.24 2.4.44.25.06.44 0 .48-.27.07-.57.17-1.14.28-1.7.05-.27 0-.38-.34-.43-1.42-.22-2.83-.47-4.24-.7-.29 0-.4-.12-.35-.4.18-1 .33-2 .48-3 0-.26.15-.33.44-.28 1.77.31 3.55.6 5.33.9zm1.49 6.43c.51.08 1 .16 1.54.26.22 0 .35 0 .39-.21.09-.61.19-1.22.3-1.82 0-.2 0-.32-.27-.35l-3.09-.52c-.22 0-.32 0-.35.21-.09.63-.2 1.25-.31 1.88 0 .18 0 .26.24.29z" transform="translate(-.98 -.52)" style="fill:#eb1416"/><path class="a0a12946-2d92-4b6f-9943-16dba4e815e5" d="m156.94 232.66 7.54 1.26c.53.09.53.09.45.57s-.13.7-.17 1-.16.33-.44.28l-9.3-1.57c-.33-.05-.41 0-.45.3-.35 2.17-.72 4.33-1.07 6.49-.05.31-.2.36-.51.31l-5.19-.87c-.3 0-.4-.14-.35-.42q.72-4.19 1.4-8.39c.05-.31.19-.34.48-.29z" transform="translate(-.98 -.52)"/><path class="e81dcfc8-b994-41fe-9593-4d047a46e6f2" d="M224.85 265.68 226 259a1.74 1.74 0 0 1 2.34-1.33 2.14 2.14 0 0 1 1.43 1.06c2.19 4.06 4.41 8.11 6.61 12.17.17.3.2.31.45.08l8.14-7.43 2.16-2a2.34 2.34 0 0 1 3.26.37 1.32 1.32 0 0 1 .25 1q-1.17 6.91-2.32 13.83c0 .29-.15.39-.49.32-1-.19-2-.35-3.06-.51-.3-.05-.36-.15-.31-.4.47-2.79.93-5.58 1.4-8.37v-.12c0-.04.11-.25 0-.31s-.18.1-.26.17l-4.89 4.53c-1 .89-2 1.74-2.87 2.68a2.38 2.38 0 0 1-3.55-.6c-1.63-3.16-3.37-6.28-5.06-9.42 0-.07-.06-.19-.17-.17s-.11.14-.12.22l-1.4 8.43c-.08.46-.08.46-.59.37-1-.17-1.95-.34-2.93-.49-.28 0-.34-.15-.3-.38.4-2.36.79-4.72 1.19-7.07zM220.34 265q-.59 3.46-1.16 6.95c-.07.38-.08.38-.52.31l-3-.5c-.27 0-.32-.14-.29-.36.36-2.07.7-4.14 1-6.2.13-.82.27-1.63.41-2.44 0-.08.06-.18-.06-.22s-.13.06-.19.11l-6.5 6c-.5.46-1 .9-1.48 1.37a2.34 2.34 0 0 1-3.35-.6c-1.59-3-3.25-6.05-4.88-9.07-.1-.17-.19-.34-.28-.51s-.05-.14-.13-.14-.1.1-.11.17 0 .27-.06.4c-.46 2.73-.91 5.46-1.37 8.19-.06.38-.07.37-.51.3-1-.18-2-.35-3-.5-.3 0-.4-.13-.35-.41q1.16-6.86 2.3-13.71a1.52 1.52 0 0 1 1.5-1.37 2.24 2.24 0 0 1 2.21 1c1.11 2 2.2 4 3.3 6l3.44 6.31c.14.27.24.14.37 0l2.95-2.7c2.42-2.2 4.85-4.39 7.24-6.63a2.4 2.4 0 0 1 3.17 0 1.32 1.32 0 0 1 .45 1.21c-.4 2.31-.78 4.61-1.16 6.92zM253.49 270.64c.38-2.24.75-4.47 1.13-6.7a1.6 1.6 0 0 1 1.91-1.29c.72.09 1.45.23 2.17.35 2.37.39 4.75.78 7.13 1.19a12.61 12.61 0 0 1 6.36 3 6.88 6.88 0 0 1 2.51 6.52q-.6 3.66-1.22 7.32c-.07.41-.08.41-.53.34-1-.17-2-.34-3-.49-.29 0-.37-.15-.32-.4.19-1 .35-2.08.53-3.12.05-.27 0-.4-.34-.45l-12.77-2.14c-.28-.05-.36 0-.4.28-.16 1-.35 2.08-.51 3.12-.05.3-.17.38-.5.31-1-.18-2-.34-3-.5-.32 0-.44-.14-.38-.45.39-2.28.77-4.57 1.15-6.85zM264 273l6.37 1.07c.3 0 .43 0 .46-.28s.08-.52.12-.78a4.27 4.27 0 0 0-1.54-4.2 8.48 8.48 0 0 0-4-1.85c-2.25-.43-4.52-.78-6.77-1.17-.34-.06-.36.12-.4.33q-.44 2.69-.9 5.37c0 .29 0 .4.36.46zM191.25 260.22c-.38 2.28-.77 4.57-1.14 6.85-.05.3-.16.38-.49.32-1-.19-2-.35-3-.51-.29 0-.36-.14-.32-.4.19-1 .35-2.08.54-3.11.05-.3 0-.41-.37-.46l-12.67-2.12c-.31-.05-.44 0-.48.3-.16 1-.35 2.05-.5 3.09 0 .3-.17.37-.5.31-1-.18-1.95-.33-2.93-.5-.43-.07-.43-.07-.36-.47q.62-3.74 1.25-7.47a6.55 6.55 0 0 1 3.37-4.67 11.55 11.55 0 0 1 7-1.39c1.85.16 3.67.57 5.51.87 1.55.24 3.1.51 4.65.77a1.91 1.91 0 0 1 1.59 1.37 1.24 1.24 0 0 1 0 .47l-1.14 6.79zm-10.67-1.14c2.11.35 4.22.7 6.33 1.07.32.05.44 0 .48-.29.3-1.81.6-3.63.91-5.44 0-.26 0-.37-.33-.42q-3-.48-6-1a11.11 11.11 0 0 0-3.77 0 4.85 4.85 0 0 0-3.81 2.54 7.49 7.49 0 0 0-.52 2c-.07.4-.07.41.4.48zM153 261.25l-7-1.17c-.49-.08-.49-.08-.42-.5.25-1.48.5-3 .74-4.45.05-.28.15-.39.49-.32.84.16 1.68.29 2.52.42.31.05.41.17.35.45-.12.58-.2 1.17-.31 1.76 0 .23 0 .33.31.38l7 1.15c1 .17 2 .36 3.06.54a4.41 4.41 0 0 0 .73.08 1.08 1.08 0 0 0 1.24-.95q.94-5.58 1.86-11.15c0-.3.15-.4.51-.33 1 .18 2 .35 3 .5.3.05.38.15.33.42-.64 3.78-1.26 7.55-1.9 11.33a3.93 3.93 0 0 1-3.34 2.92 7.76 7.76 0 0 1-2.76 0l-6.41-1.08z" transform="translate(-.98 -.52)"/><path class="a0a12946-2d92-4b6f-9943-16dba4e815e5" d="m264 273-6.33-1c-.34-.06-.41-.17-.36-.46q.47-2.68.9-5.37c0-.21.06-.39.4-.33 2.25.39 4.52.74 6.77 1.17a8.48 8.48 0 0 1 4 1.85 4.27 4.27 0 0 1 1.54 4.2c0 .26-.1.52-.12.78s-.16.33-.46.28zM180.58 259.08l-6.3-1.06c-.47-.07-.47-.08-.4-.48a7.49 7.49 0 0 1 .52-2 4.85 4.85 0 0 1 3.81-2.54 11.11 11.11 0 0 1 3.77 0q3 .51 6 1c.31.05.38.16.33.42-.31 1.81-.61 3.63-.91 5.44 0 .29-.16.34-.48.29-2.11-.37-4.22-.72-6.33-1.07z" transform="translate(-.98 -.52)"/></g><g id="f0e7900d-7e3b-4464-962e-fdd701d6c155" data-name="b8132af9-c47d-4ffc-9350-b3ba4d488c8f"><path class="e11ff801-3cc3-465b-9ecd-3f464927afee" d="m161.34 85.42-9.5 45.4 21.76 3.47-9.95-48.51zm7.17-28.93L166 66.9l15.16 68.59 21.1 3.37L184.63 59zm28.73 4.45L194 71.13 209.35 140l21.65 3.44-17.71-80.18zm40.5 6.27 21.68 3.36.08 77.43-21.62-3.44zm59.13 9.16-32.64-5.05.07 77.9 32.55 4.72-30-44.71zM90.44 74.31l.35 46.77L115.1 125 92.72 74.67zm-.22-30.11.08 11.41 31.7 70.44 23.15 3.69-.06-10.87-31.25-71zm52.39 55.3 2.35.38-.25-47.24-24.32-3.76z" transform="translate(-.98 -.52)"/><path d="m162.63 92.17-.85 2.88 1.64.26zm26-5.07-16.57-2.59L175 97.13l16.39 2.57-2.75-12.6zm-5.87-26-11.93-1.85-2.41 8 2.66 12.49 16.48 2.58zm-5.63 46.1 2.66 12.38 16.61 2.63-3-12.44-16.25-2.57zm45.11 7.12-16.62-2.62 2.65 12.39 16.62 2.64-2.65-12.41zm-5.07-22.76L200.81 89l2.71 12.6 16.48 2.6zm-5.7-26-12.26-1.9-2.23 8 2.67 12.49 16.41 2.56zm-51.41 39-2.59 11.53 10.53 1.64-2.47-12.34-5.52-.87z" transform="translate(-.98 -.52)" style="fill:green"/><path d="m159.37 107.25-1.91 8.8 8.16 1.4-2.14-9.55zm18.39 2.9 2 9.44 14.12 2.35-2-9.55zm8.9-20.77-14-2.19 2.34 9.94 14 2.3zm-5.56-26.94-11-1.71-1.65 6.51 2.66 12.49 14.1 2.27-4.11-19.6zm28.34 4.39-10.66-1.65-1.78 6.53 2.67 12.49 14 2.15zm5.73 27-13.78-2.16 2.13 9.92 14 2.3zm5.25 23-14.18-2.24 2 9.45 14.33 2.32z" transform="translate(-.98 -.52)" style="fill:#09cc09"/><path d="m240.18 129.21 16.75 2.79v-12.2l-16.76-2.64zm0-33.89 16.73 2.62v12.16l-16.73-2.63zm0-25.15 16.75 2.6V93.2l-16.74-2.61zm51.25 7.94-25-3.87v20.44L275 96zm-25 21.31v6.08l5.22-5.26zm0 34 15.45 2.45-15.47-22.83z" transform="translate(-.98 -.52)" style="fill:#000078"/><path d="M240.18 129.21v.16l15 2.36v-9.32l-15-2.37zm0-21.74 15 2.36v-9.73l-15-2.35zm-.13-35.95.1 19.07 15 2.31-.15-19.06zM288.3 79l-22-3.41v19.09l6.93 1 15-16.7zm-20.9 23-1-.16v1.14zm-1 31.41 11.86 1.87-11.85-17.4v15.53z" transform="translate(-.98 -.52)" style="fill:#00f"/><path class="fef39d12-b1c9-42ee-a6f2-986c0ce64892" d="M118.26 71.09c-6.31-1-12.6-2-18.9-2.87l-1-.16S93.77 58.15 92.57 56v-7.49c5.22.81 11.53 1.76 16.76 2.53l.53 1.11q4.14 9.46 8.4 18.94z" transform="translate(-.98 -.52)"/><path d="M140.11 74.5s-6.49-.94-6.47-1l-3.29-6.5s-4-9.19-5.92-13.65l1.32.23L140 55.77v1.73q0 8.52.07 17z" transform="translate(-.98 -.52)" style="fill:#fb0101"/><path class="fef39d12-b1c9-42ee-a6f2-986c0ce64892" d="M126.22 89c-6.32-1-13.6-2.1-19.91-3l-.37-.87c-1.33-3.13-4.08-9.36-4.08-9.36 6.24 1 13.63 2.13 19.87 3.06l.46 1c1.32 3.07 2.68 6.13 4 9.2z" transform="translate(-.98 -.52)"/><path class="f17a70cb-b7da-4751-9a40-7de60cca86f3" d="M136.59 112.18c-6.37-1-13.58-2.12-19.93-3.07l-.43-.91-3.89-8.85c6.18 1 13.77 2.14 19.95 3.06l.6 1.41q1.83 4.19 3.7 8.36z" transform="translate(-.98 -.52)"/><path class="e6525091-66dc-4448-bc84-25c26972f5cf" d="M126.22 89c-1.35-3.06-2.71-6.13-4-9.21l-.47-1c-6.24-.94-13.63-2.1-19.86-3.06l-1.15-2.55 1.59.25c6.59 1 21.34 3.3 21.34 3.3l.67 1.46 4.94 11.31zm-8-17.94q-4.23-9.47-8.45-19l-.5-1.06c-5.24-.77-11.54-1.73-16.77-2.53v-1.63l19 2.95.52 1.06c2.95 6.7 6 13.39 9 20.08l.27.63z" transform="translate(-.98 -.52)"/><path class="f17a70cb-b7da-4751-9a40-7de60cca86f3" d="m101.74 106.66-8.89-1.35v-9.07l4.68.68.74 1.78z" transform="translate(-.98 -.52)"/><path class="e6525091-66dc-4448-bc84-25c26972f5cf" d="M140.11 74.5 140 55.78c-4.33-.63-10-1.55-14.28-2.18l-1.32-.24-.73-1.61 1 .13 15.55 2.36 1.5.24.11 20.29z" transform="translate(-.98 -.52)"/><path class="f17a70cb-b7da-4751-9a40-7de60cca86f3" d="m136.59 81.16 3.48.52v7.42z" transform="translate(-.98 -.52)"/><path class="e6525091-66dc-4448-bc84-25c26972f5cf" d="m94.6 84-1.8-.28v-3.83z" transform="translate(-.98 -.52)"/><path class="bfc1b126-3604-4924-9fa1-b9712ce27b3f" d="m135.3 103.19-.36-.81s-.33-.77-.33-.76l-.34-.76-.44-.92-22.78-3.59.47 1.13.81 1.89c6.18 1 13.77 2.14 20 3.06l.6 1.41c1.2 2.79 2.45 5.57 3.68 8.35l3 .49c-1.48-3.32-2.9-6.41-4.3-9.49zm-36.08-8.47-.1-.28-5.29-.84-1-.13v2.76c.95.15 4.68.67 4.68.67l.74 1.79 3.45 8 3 .48zm35.4 6.89-.34-.77z" transform="translate(-.98 -.52)"/><path class="bfc1b126-3604-4924-9fa1-b9712ce27b3f" d="M135 102.39c-.42-.15-.43-.46-.34-.79.07.27.18.53.34.79zM135.3 103.19a.62.62 0 0 1-.36-.82z" transform="translate(-.98 -.52)"/><path class="e6525091-66dc-4448-bc84-25c26972f5cf" d="m141.93 90.69-.06-11.11-6.5-1c.46 1 .84 1.81 1.21 2.56l3.47.52v7.42l.91 2.25.95.15z" transform="translate(-.98 -.52)"/></g></svg>