<svg id="b464c694-d25b-4ddf-978f-28baf597bcdc" data-name="bae51f9f-9ab5-4723-91c1-5de94dc4635e" xmlns="http://www.w3.org/2000/svg" xmlns:xlink="http://www.w3.org/1999/xlink" viewBox="0 0 87.6 88.6"><defs><style>.bd1c64fe-008f-4203-82e4-487e04390f05,.ed3e01ad-5c41-4265-8357-5d54df76d7bc{fill:#211c1d;}.a7030137-8e93-48f2-8009-067a4e990ebc{opacity:0.1;}.be6ce9c0-9b77-41d5-aa34-a81e035e8d72{fill:#808094;}.a46bb8a4-5ca0-4b42-a89c-25f84ad15ca1{fill:#6d6e6f;}.a08c9dd1-c053-42f9-803f-b50d08c43dec{fill:url(#a894d04d-f0b1-4104-873e-47d787cc7ce6);}.ed3e01ad-5c41-4265-8357-5d54df76d7bc{opacity:0.3;}.a9cc29d3-f0a4-4548-bb50-d5294582a67f,.b07d0c06-22d4-4e15-9426-cb9925b6d1d9,.ed3e01ad-5c41-4265-8357-5d54df76d7bc{isolation:isolate;}.a9cc29d3-f0a4-4548-bb50-d5294582a67f{opacity:0.15;fill:url(#a3e70ad1-e456-40e1-a18d-77fa15057ba0);}.b07d0c06-22d4-4e15-9426-cb9925b6d1d9{opacity:0.4;fill:url(#b928b78d-5bd4-492c-98d3-6f17a6833cc7);}.f324757c-c0b5-4d3f-b67f-a291ed3a123f{fill:#000cf7;}</style><linearGradient id="a894d04d-f0b1-4104-873e-47d787cc7ce6" x1="-747.89" y1="2455.81" x2="-768.82" y2="2434.88" gradientTransform="translate(802.18 -2401.52)" gradientUnits="userSpaceOnUse"><stop offset="0" stop-color="#a4a5a9"/><stop offset="1" stop-color="#e6e6e7"/></linearGradient><linearGradient id="a3e70ad1-e456-40e1-a18d-77fa15057ba0" x1="-768.76" y1="2455.8" x2="-747.88" y2="2434.93" gradientTransform="translate(802.18 -2401.52)" gradientUnits="userSpaceOnUse"><stop offset="0" stop-color="#211c1d" stop-opacity="0"/><stop offset="0.04" stop-color="#211c1d" stop-opacity="0.09"/><stop offset="0.5" stop-color="#211c1d"/><stop offset="0.95" stop-color="#211c1d" stop-opacity="0.09"/><stop offset="1" stop-color="#211c1d" stop-opacity="0"/></linearGradient><linearGradient id="b928b78d-5bd4-492c-98d3-6f17a6833cc7" x1="-5886.68" y1="-3866.42" x2="-5865.8" y2="-3887.31" gradientTransform="translate(-5832.48 -3833.03) rotate(180)" gradientUnits="userSpaceOnUse"><stop offset="0" stop-color="#fff" stop-opacity="0"/><stop offset="0.5" stop-color="#fff"/><stop offset="1" stop-color="#fff" stop-opacity="0"/></linearGradient></defs><circle class="bd1c64fe-008f-4203-82e4-487e04390f05" cx="43.8" cy="43.8" r="43.8"/><g class="a7030137-8e93-48f2-8009-067a4e990ebc"><path class="be6ce9c0-9b77-41d5-aa34-a81e035e8d72" d="M84.4,43.8l-8.6-8.9v4.3H66v9.1h9.8v4.3ZM72.5,15.1l-12.4-.2L63.2,18l-7,7,6.4,6.4,7-7,3.1,3.1ZM43.8,3.2l-8.9,8.6h4.3v9.8h9.1V11.8h4.3ZM15.1,15.1l-.2,12.4L18,24.4l7,7L31.4,25l-7-7,3.1-3.1ZM3.2,43.8l8.6,8.9V48.4h9.8V39.3H11.8V35ZM15.1,72.5l12.4.2-3.1-3.1,7-7L25,56.2l-7,7-3.1-3.1ZM43.8,84.4l8.9-8.6H48.4V66H39.3v9.8H35ZM72.5,72.5l.2-12.4-3.1,3.1-7-7-6.4,6.4,7,7-3.1,3.1Z" transform="translate(0 0)"/></g><path class="a46bb8a4-5ca0-4b42-a89c-25f84ad15ca1" d="M87.6,44.3A43.81,43.81,0,0,1,0,44.3v.5a43.8,43.8,0,0,0,87.6,0Z" transform="translate(0 0)"/><circle class="a08c9dd1-c053-42f9-803f-b50d08c43dec" cx="43.8" cy="43.8" r="14.8"/><circle class="ed3e01ad-5c41-4265-8357-5d54df76d7bc" cx="43.8" cy="43.8" r="11.8"/><path class="a9cc29d3-f0a4-4548-bb50-d5294582a67f" d="M43.8,29.1A14.75,14.75,0,1,0,58.6,43.9,14.75,14.75,0,0,0,43.8,29.1Zm-.2,28.7A14.15,14.15,0,1,1,57.8,43.7,14.16,14.16,0,0,1,43.6,57.8Z" transform="translate(0 0)"/><path class="b07d0c06-22d4-4e15-9426-cb9925b6d1d9" d="M43.8,58.6A14.75,14.75,0,1,0,29,43.9,14.75,14.75,0,0,0,43.8,58.6ZM44,29.9a14.1,14.1,0,0,1,0,28.2h0A14,14,0,0,1,29.9,44.2h0V44h0A14.08,14.08,0,0,1,44,29.9Z" transform="translate(0 0)"/><circle class="f324757c-c0b5-4d3f-b67f-a291ed3a123f" cx="43.6" cy="32.8" r="20.5"/></svg>