<svg id="b789d024-e290-4c23-b068-d588f74f20e7" data-name="bae51f9f-9ab5-4723-91c1-5de94dc4635e" xmlns="http://www.w3.org/2000/svg" xmlns:xlink="http://www.w3.org/1999/xlink" viewBox="0 0 87.6 88.6"><defs><style>.a3d41085-b0c1-419b-a01f-72f18f36aaa4,.f24714d6-714d-45b7-8e6a-ebc8526c6deb{fill:#211c1d;}.e1dd2d08-c766-40fc-b7ae-b99f8f7688e1{opacity:0.1;}.f736119d-d4ef-4ee8-abf5-c2c387930c22{fill:#808094;}.ebdaa7be-eee5-4c31-acc4-0f07eed13ea8{fill:#6d6e6f;}.a3672243-17b1-49b2-9b2f-a0624957d37b{fill:url(#a61be150-9a2e-4e19-8587-4b2602e39df1);}.f24714d6-714d-45b7-8e6a-ebc8526c6deb{opacity:0.3;}.a0cdac44-c97b-46c7-937d-943b7ef60d2e,.f24714d6-714d-45b7-8e6a-ebc8526c6deb,.fc95dee5-73b6-40ef-9b1f-f9e97ea74831{isolation:isolate;}.fc95dee5-73b6-40ef-9b1f-f9e97ea74831{opacity:0.15;fill:url(#f1027c80-296d-457c-b663-45c8816d757a);}.a0cdac44-c97b-46c7-937d-943b7ef60d2e{opacity:0.4;fill:url(#ed08a9ce-86df-41da-a758-36224f56359d);}.ecb9d5a3-1d61-4a3e-bd2f-546b0c7cd5ea{fill:#06ff06;}</style><linearGradient id="a61be150-9a2e-4e19-8587-4b2602e39df1" x1="-747.89" y1="2455.81" x2="-768.82" y2="2434.88" gradientTransform="translate(802.18 -2401.52)" gradientUnits="userSpaceOnUse"><stop offset="0" stop-color="#a4a5a9"/><stop offset="1" stop-color="#e6e6e7"/></linearGradient><linearGradient id="f1027c80-296d-457c-b663-45c8816d757a" x1="-768.76" y1="2455.8" x2="-747.88" y2="2434.93" gradientTransform="translate(802.18 -2401.52)" gradientUnits="userSpaceOnUse"><stop offset="0" stop-color="#211c1d" stop-opacity="0"/><stop offset="0.04" stop-color="#211c1d" stop-opacity="0.09"/><stop offset="0.5" stop-color="#211c1d"/><stop offset="0.95" stop-color="#211c1d" stop-opacity="0.09"/><stop offset="1" stop-color="#211c1d" stop-opacity="0"/></linearGradient><linearGradient id="ed08a9ce-86df-41da-a758-36224f56359d" x1="-5886.68" y1="-3866.42" x2="-5865.8" y2="-3887.31" gradientTransform="translate(-5832.48 -3833.03) rotate(180)" gradientUnits="userSpaceOnUse"><stop offset="0" stop-color="#fff" stop-opacity="0"/><stop offset="0.5" stop-color="#fff"/><stop offset="1" stop-color="#fff" stop-opacity="0"/></linearGradient></defs><circle class="a3d41085-b0c1-419b-a01f-72f18f36aaa4" cx="43.8" cy="43.8" r="43.8"/><g class="e1dd2d08-c766-40fc-b7ae-b99f8f7688e1"><path class="f736119d-d4ef-4ee8-abf5-c2c387930c22" d="M84.4,43.8l-8.6-8.9v4.3H66v9.1h9.8v4.3ZM72.5,15.1l-12.4-.2L63.2,18l-7,7,6.4,6.4,7-7,3.1,3.1ZM43.8,3.2l-8.9,8.6h4.3v9.8h9.1V11.8h4.3ZM15.1,15.1l-.2,12.4L18,24.4l7,7L31.4,25l-7-7,3.1-3.1ZM3.2,43.8l8.6,8.9V48.4h9.8V39.3H11.8V35ZM15.1,72.5l12.4.2-3.1-3.1,7-7L25,56.2l-7,7-3.1-3.1ZM43.8,84.4l8.9-8.6H48.4V66H39.3v9.8H35ZM72.5,72.5l.2-12.4-3.1,3.1-7-7-6.4,6.4,7,7-3.1,3.1Z" transform="translate(0 0)"/></g><path class="ebdaa7be-eee5-4c31-acc4-0f07eed13ea8" d="M87.6,44.3A43.81,43.81,0,0,1,0,44.3v.5a43.8,43.8,0,0,0,87.6,0Z" transform="translate(0 0)"/><circle class="a3672243-17b1-49b2-9b2f-a0624957d37b" cx="43.8" cy="43.8" r="14.8"/><circle class="f24714d6-714d-45b7-8e6a-ebc8526c6deb" cx="43.8" cy="43.8" r="11.8"/><path class="fc95dee5-73b6-40ef-9b1f-f9e97ea74831" d="M43.8,29.1A14.75,14.75,0,1,0,58.6,43.9,14.75,14.75,0,0,0,43.8,29.1Zm-.2,28.7A14.15,14.15,0,1,1,57.8,43.7,14.16,14.16,0,0,1,43.6,57.8Z" transform="translate(0 0)"/><path class="a0cdac44-c97b-46c7-937d-943b7ef60d2e" d="M43.8,58.6A14.75,14.75,0,1,0,29,43.9,14.75,14.75,0,0,0,43.8,58.6ZM44,29.9a14.1,14.1,0,0,1,0,28.2h0A14,14,0,0,1,29.9,44.2h0V44h0A14.08,14.08,0,0,1,44,29.9Z" transform="translate(0 0)"/><circle class="ecb9d5a3-1d61-4a3e-bd2f-546b0c7cd5ea" cx="43.6" cy="32.8" r="20.5"/></svg>