<svg xmlns="http://www.w3.org/2000/svg" xmlns:xlink="http://www.w3.org/1999/xlink" viewBox="0 0 470.58 67.66"><defs><style>.ac42023d-6bcc-4457-b362-bea459be0fc5{stroke:#9def48;stroke-miterlimit:10;fill:url(#a115c729-67f1-4216-bda1-f807089326f3);}.b6d2ce5a-ce17-4560-909d-f46469b333a2{fill:#9def48;}.aba672a1-1550-4439-abc4-36125b9d1c4a{fill:#fff;}.ba07aea7-ba63-479c-ab16-df17b7c9fc58{fill:green;}.e8df52a5-5014-4822-87c0-0b32bcbe2b24{fill:#09cc09;}.bfac4157-db4d-4891-afbd-35fde201e58f{fill:#000078;}.a45013d4-6f75-4e54-9cf5-2932786e9f9e{fill:blue;}.b096f7c6-fc1e-4f8f-ab5a-49e1f9a9e3fa{fill:#fd0101;}.b0efb610-fe45-4b61-ab4e-818e86981628{fill:#fb0101;}.eb46b6cf-10c0-4d56-9805-c4b2140d0c95{fill:#fc0303;}.f04e80ca-fcc8-48e9-b694-bc8a8400a9dd{fill:#7e0303;}.fd69e1be-ccb6-47e6-8eb3-9f937999edab{fill:#831111;}</style><linearGradient id="a115c729-67f1-4216-bda1-f807089326f3" x1="0.5" y1="33.83" x2="470.08" y2="33.83" gradientUnits="userSpaceOnUse"><stop offset="0" stop-color="#032c02"/><stop offset="1" stop-color="#207a09"/></linearGradient></defs><g id="eb5ab2ef-7f68-4da0-933f-d2c129c422d0" data-name="texte"><polygon class="ac42023d-6bcc-4457-b362-bea459be0fc5" points="0.5 6.04 102.57 6.04 108.7 0.5 150.44 0.5 158.35 6.04 461.77 6.24 470.08 16.13 470.08 59.84 50.94 59.84 42.83 67.16 8.02 67.16 0.5 59.84 0.5 6.04"/><path class="b6d2ce5a-ce17-4560-909d-f46469b333a2" d="M59.06,24.29a16.33,16.33,0,0,0-2.34,8.19,16.37,16.37,0,0,0,2.34,8.18h2.7v4.07H56.87a18.22,18.22,0,0,1-4.22-12.25,18.19,18.19,0,0,1,4.22-12.26H81a18.19,18.19,0,0,1,4.22,12.26A18.22,18.22,0,0,1,81,44.73H76.13V40.66h2.72a16.45,16.45,0,0,0,2.32-8.18,16.4,16.4,0,0,0-2.32-8.19Z"/><path class="b6d2ce5a-ce17-4560-909d-f46469b333a2" d="M113.18,24.29h-7.86A16.33,16.33,0,0,0,103,32.48a16.37,16.37,0,0,0,2.34,8.18H108v4.07h-4.89a18.22,18.22,0,0,1-4.22-12.25,18.19,18.19,0,0,1,4.22-12.26h10.05V16.38h4v3.84h10a18.19,18.19,0,0,1,4.22,12.26,18.22,18.22,0,0,1-4.22,12.25h-4.89V40.66h2.72a16.45,16.45,0,0,0,2.32-8.18,16.4,16.4,0,0,0-2.32-8.19h-7.88V38.82h-4Z"/><path class="b6d2ce5a-ce17-4560-909d-f46469b333a2" d="M150.1,34.49V44.73H146v-21l4.07-4.06V30.44h6.8l12.57-10.22h6.6L161,32.48l15.09,12.25h-6.6L156.86,34.49Z"/></g><g id="ba4a43c8-5aa8-44d2-90ff-f811e3e932ae" data-name="nmk"><path class="aba672a1-1550-4439-abc4-36125b9d1c4a" d="M22.91,45.29,35.47,48V42L22.91,44.65Zm-8-2,2.88.7,17.7-4.09V34.08L14.89,38.85Zm0-7.89,2.85.89,17.73-4.15V26.19L14.85,31Zm0-11.08V18.4H35.47v5.91Zm0-16.08v8.86H35.6l-.13-8.86L24.85,16.39Zm8,56.69H35.47V58.16L22.91,64.29Zm-8.06,0h3l17.57-8.67V49.84H32.55l-17.7,8.54ZM27.47,50.49v-.65H14.85v6.72Z"/><path class="ba07aea7-ba63-479c-ab16-df17b7c9fc58" d="M24.66,44.94l.81.24v-.45Zm-2.44-7.16v4.56l3.25-.8V37l-3.25.74Zm-6.69,1.59v3.28l2.23.67L21,42.6V38.07ZM28.07,41l3.2-.72V35.68l-3.2.82V41Zm0-12.39v4.56l3.2-.72V27.86l-3.2.72ZM22.22,30v4.48l3.25-.73V29.19Zm-6.69,1.54v3.36l2.24.62L21,34.75v-4.5ZM28.07,45.67l3.2.73V43.48l-3.2.67v1.52Z"/><path class="e8df52a5-5014-4822-87c0-0b32bcbe2b24" d="M28.83,45.86l2.44.54,0-2.25-2.47.58Zm0-5.06,2.44-.55,0-3.89-2.47.54Zm-5.92-2.48v3.85l2.56-.63,0-3.85ZM16,39.82v3l1.8.46L21,42.6l0-3.89L16,39.82Zm0-7.77V35l1.81.5L21,34.75V30.91Zm7-1.55v3.78l2.56-.58,0-3.83Zm5.92-1.42V33l2.44-.55V28.49Z"/><path class="bfac4157-db4d-4891-afbd-35fde201e58f" d="M31.28,23.67l0-4.57H28.07v4.57Zm-9,0V19.1h3.23v4.56Zm-6.68,0V19.1H21v4.56Zm0-13.94v6.8H21V14.15Zm6.68,6.8h1.62L22.26,15.1Zm9,0V12.31l-5.42,4.21Z"/><path class="a45013d4-6f75-4e54-9cf5-2932786e9f9e" d="M31.28,23.67h0V19.58H28.84v4.09Zm-5.79,0V19.58H22.91v4.09Zm-9.55,0,5.06,0v-4.1l-5,0Zm0-13.13v6H21l0-1.89-5-4.08Zm7,5.69v.28h.3Zm8.39.28V13.29l-4.13,3.22Z"/><path class="b096f7c6-fc1e-4f8f-ab5a-49e1f9a9e3fa" d="M20.88,57.19c0,1.74,0,3.49,0,5.24v.28s-2.46,1.25-3,1.58h-2c0-1.45,0-3.2,0-4.65l.28-.14Z"/><path class="b0efb610-fe45-4b61-ab4e-818e86981628" d="M20.88,51.14s0,1.8,0,1.79l-1.6.9-3.4,1.62V51.14h5Z"/><path class="b096f7c6-fc1e-4f8f-ab5a-49e1f9a9e3fa" d="M25.35,55c0,1.75,0,3.77,0,5.52l-.21.1-2.35,1.12c0-1.73,0-3.78,0-5.51l.26-.13L25.35,55Z"/><path class="eb46b6cf-10c0-4d56-9805-c4b2140d0c95" d="M31.12,52.18c0,1.76,0,3.76,0,5.52l-.22.12-2.21,1.06c0-1.71,0-3.82,0-5.53l.35-.16,2.09-1Z"/><path class="f04e80ca-fcc8-48e9-b694-bc8a8400a9dd" d="M25.35,55l-2.3,1.1-.25.13c0,1.73,0,3.78,0,5.51l-.63.31v-.44c0-1.83,0-5.91,0-5.91l.36-.19,2.82-1.35Zm-4.47,2.18L16.16,59.5l-.28.14c0,1.46,0,3.2,0,4.66h-.44V59l.26-.15c1.67-.8,3.33-1.64,5-2.45l.16-.07Z"/><path class="eb46b6cf-10c0-4d56-9805-c4b2140d0c95" d="M31.12,61.84l0,2.48h-.28l-2.17,0V63l.44-.2Z"/><path class="f04e80ca-fcc8-48e9-b694-bc8a8400a9dd" d="M20.88,51.14h-5c0,1.2,0,2.75,0,4v.36l-.4.2v-5h5.42Z"/><path class="eb46b6cf-10c0-4d56-9805-c4b2140d0c95" d="M22.81,52.13v-1h2Z"/><path class="f04e80ca-fcc8-48e9-b694-bc8a8400a9dd" d="M25.34,63.79v.5h-1Z"/><path class="fd69e1be-ccb6-47e6-8eb3-9f937999edab" d="M28.76,52.52l-.2.1-.19.09-.19.09-.23.12v6.31l.29-.12.47-.23c0-1.71,0-3.82,0-5.53l.35-.16,2.08-1v-.84l-2.36,1.18Zm-.74,10-.07,0v1.74h.74c0-.26,0-1.3,0-1.3l.44-.2,2-.95V61Zm.35-9.82-.19.1Z"/><path class="fd69e1be-ccb6-47e6-8eb3-9f937999edab" d="M28.56,52.61c0,.12-.1.12-.19.09Z"/><path class="fd69e1be-ccb6-47e6-8eb3-9f937999edab" d="M28.76,52.52c0,.11-.11.12-.2.1Z"/><path class="f04e80ca-fcc8-48e9-b694-bc8a8400a9dd" d="M25.13,50.66h-3v1.8l.64-.33v-1h2l.56-.25v-.26Z"/></g></svg>