<svg id="f43dbdf7-1e61-4f03-88c2-04d402f837e8" data-name="texte" xmlns="http://www.w3.org/2000/svg" xmlns:xlink="http://www.w3.org/1999/xlink" viewBox="0 0 470.33 67.41"><defs><style>.b0e54e69-0133-4a07-b032-7bcf22866a31{stroke:#9def48;stroke-miterlimit:10;stroke-width:0.75px;fill:url(#a44593a1-814a-4de0-b64d-3c9302f938f3);}.a28de322-40bb-457b-900e-7d7c1df9044b{fill:#9def48;}</style><linearGradient id="a44593a1-814a-4de0-b64d-3c9302f938f3" x1="0.38" y1="33.7" x2="469.96" y2="33.7" gradientUnits="userSpaceOnUse"><stop offset="0" stop-color="#032c02"/><stop offset="1" stop-color="#207a09"/></linearGradient></defs><polygon class="b0e54e69-0133-4a07-b032-7bcf22866a31" points="0.38 5.91 102.44 5.91 108.57 0.38 150.31 0.38 158.22 5.91 461.65 6.11 469.96 16 469.96 59.72 50.81 59.72 42.7 67.03 7.89 67.03 0.38 59.72 0.38 5.91"/><path class="a28de322-40bb-457b-900e-7d7c1df9044b" d="M77.29,30.52l1.58,1.74a15.6,15.6,0,0,1-3.61,10.51H54.56a14.79,14.79,0,0,1-3.15-6.26h3.75a16.67,16.67,0,0,0,1.27,2.77h17A14.7,14.7,0,0,0,75.27,34H52.52l-1.58-1.73a15.6,15.6,0,0,1,3.62-10.5h20.7A14.75,14.75,0,0,1,78.41,28H74.66a16.52,16.52,0,0,0-1.26-2.76h-17a15,15,0,0,0-1.89,5.27Z" transform="translate(-0.06 -0.03)"/><path class="a28de322-40bb-457b-900e-7d7c1df9044b" d="M85.41,34a14.88,14.88,0,0,0,1.89,5.29h2.31v3.49H85.42A15.65,15.65,0,0,1,81.8,32.26a15.57,15.57,0,0,1,3.62-10.5h4.19v3.49H87.3a14.66,14.66,0,0,0-1.89,5.27h20.73a15,15,0,0,0-1.88-5.27h-2.33V21.76h4.19a15.57,15.57,0,0,1,3.62,10.5,15.65,15.65,0,0,1-3.62,10.51h-4.19V39.28h2.33A15.25,15.25,0,0,0,106.14,34Z" transform="translate(-0.06 -0.03)"/><path class="a28de322-40bb-457b-900e-7d7c1df9044b" d="M137,42.77h-20.7a15.6,15.6,0,0,1-3.62-10.51,15.52,15.52,0,0,1,3.62-10.5H137a15.56,15.56,0,0,1,3.61,10.5A15.64,15.64,0,0,1,137,42.77Zm-1.87-3.49a14.11,14.11,0,0,0,2-7,14,14,0,0,0-2-7h-17a14,14,0,0,0-2,7,14,14,0,0,0,2,7Z" transform="translate(-0.06 -0.03)"/><path class="a28de322-40bb-457b-900e-7d7c1df9044b" d="M167.85,42.77h-20.7a15.65,15.65,0,0,1-3.62-10.51,15.57,15.57,0,0,1,3.62-10.5h20.7a15.57,15.57,0,0,1,3.62,10.5A15.65,15.65,0,0,1,167.85,42.77ZM166,39.28a14.09,14.09,0,0,0,2-7,14,14,0,0,0-2-7H149a14,14,0,0,0-2,7,14,14,0,0,0,2,7Z" transform="translate(-0.06 -0.03)"/><path class="a28de322-40bb-457b-900e-7d7c1df9044b" d="M188.55,39.79l-3.49,3.49v-18h-11.4V21.76h26.28v3.49H188.55Z" transform="translate(-0.06 -0.03)"/><path class="a28de322-40bb-457b-900e-7d7c1df9044b" d="M221.64,34h-14.5A14.88,14.88,0,0,0,209,39.28h17.25l2,3.49H207.15A15.13,15.13,0,0,1,203.61,34h-3.3V30.52h3.3a15,15,0,0,1,3.54-8.76h21.14l-2,3.49H209a14.66,14.66,0,0,0-1.89,5.27h14.5Z" transform="translate(-0.06 -0.03)"/><path class="a28de322-40bb-457b-900e-7d7c1df9044b" d="M250.91,39.28h2.32A15.05,15.05,0,0,0,255.11,34H234.38a15.28,15.28,0,0,0,1.89,5.29h2.32v3.49H234.4A15.2,15.2,0,0,1,230.85,34h-3.29V30.52h3.29a15.09,15.09,0,0,1,3.55-8.76h20.7a15,15,0,0,1,3.54,8.77l-1.51.85v1.76l1.51.85a15.13,15.13,0,0,1-3.54,8.78h-4.19Zm-16.53-8.76h20.73a14.82,14.82,0,0,0-1.88-5.27h-17A15,15,0,0,0,234.38,30.52Z" transform="translate(-0.06 -0.03)"/></svg>