<svg id="ab29f223-ca43-4454-b799-ea35122c24a9" data-name="texte" xmlns="http://www.w3.org/2000/svg" xmlns:xlink="http://www.w3.org/1999/xlink" viewBox="0 0 470.33 67.41"><defs><style>.f2720193-61f6-4f2f-a213-f302a8ceefd8{stroke:#9def48;stroke-miterlimit:10;stroke-width:0.75px;fill:url(#a6d4c581-0aa9-49e5-b7be-14e15e81ebf3);}.fd12194c-46de-4b69-bb5f-e00a79fa6ccb{fill:#9def48;}</style><linearGradient id="a6d4c581-0aa9-49e5-b7be-14e15e81ebf3" x1="0.38" y1="33.7" x2="469.96" y2="33.7" gradientUnits="userSpaceOnUse"><stop offset="0" stop-color="#032c02"/><stop offset="1" stop-color="#207a09"/></linearGradient></defs><polygon class="f2720193-61f6-4f2f-a213-f302a8ceefd8" points="0.38 5.91 102.44 5.91 108.57 0.38 150.31 0.38 158.22 5.91 461.65 6.11 469.96 16 469.96 59.72 50.81 59.72 42.7 67.03 7.89 67.03 0.38 59.72 0.38 5.91"/><path class="fd12194c-46de-4b69-bb5f-e00a79fa6ccb" d="M77.29,31l1.58,1.75a15.58,15.58,0,0,1-3.61,10.5H54.56A14.73,14.73,0,0,1,51.41,37h3.75a16.67,16.67,0,0,0,1.27,2.77h17a14.7,14.7,0,0,0,1.87-5.29H52.52l-1.58-1.72a15.63,15.63,0,0,1,3.62-10.51h20.7a14.73,14.73,0,0,1,3.15,6.26H74.66a16.61,16.61,0,0,0-1.26-2.77h-17A15.11,15.11,0,0,0,54.54,31Z" transform="translate(-0.06 -0.03)"/><path class="fd12194c-46de-4b69-bb5f-e00a79fa6ccb" d="M87.3,39.79h17a14,14,0,0,0,2-7,14.09,14.09,0,0,0-2-7h-2.33V22.27h4.19a15.63,15.63,0,0,1,3.62,10.51,15.58,15.58,0,0,1-3.62,10.5H85.42a15.58,15.58,0,0,1-3.62-10.5,15.63,15.63,0,0,1,3.62-10.51h4.19v3.49H87.3a14,14,0,0,0-2,7A14,14,0,0,0,87.3,39.79Z" transform="translate(-0.06 -0.03)"/><path class="fd12194c-46de-4b69-bb5f-e00a79fa6ccb" d="M136,39.79h2.33a15.23,15.23,0,0,0,1.87-5.29H119.49a15.28,15.28,0,0,0,1.89,5.29h2.32v3.49h-4.19A15.18,15.18,0,0,1,116,34.5h-3.29V31H116a15.09,15.09,0,0,1,3.55-8.76h20.7a15,15,0,0,1,3.54,8.78l-1.51.85v1.75l1.51.85a15.1,15.1,0,0,1-3.54,8.78H136ZM119.49,31h20.73a15.06,15.06,0,0,0-1.87-5.27h-17A15.11,15.11,0,0,0,119.49,31Z" transform="translate(-0.06 -0.03)"/><path class="fd12194c-46de-4b69-bb5f-e00a79fa6ccb" d="M175.09,22.27l-13.26,21h-4l-13.33-21h4.35l11,17.54,10.92-17.54Z" transform="translate(-0.06 -0.03)"/><path class="fd12194c-46de-4b69-bb5f-e00a79fa6ccb" d="M181.5,43.28H178v-18l3.48-3.49Z" transform="translate(-0.06 -0.03)"/><path class="fd12194c-46de-4b69-bb5f-e00a79fa6ccb" d="M207.22,34.5h-14.5a15.28,15.28,0,0,0,1.89,5.29h17.26l2,3.49H192.74a15.18,15.18,0,0,1-3.55-8.78H185.9V31h3.29a15.09,15.09,0,0,1,3.55-8.76h21.13l-2,3.49H194.61A15.11,15.11,0,0,0,192.72,31h14.5Z" transform="translate(-0.06 -0.03)"/></svg>