<svg xmlns="http://www.w3.org/2000/svg" xmlns:xlink="http://www.w3.org/1999/xlink" viewBox="0 0 746.51 822.18"><defs><radialGradient id="ae578a9d-5c7b-422d-857d-09f70dc44170" cx="121.61" cy="382.1" r="5.66" gradientTransform="matrix(1 0 0 .6 0 152.84)" xlink:href="#b09c7e06-3bad-4c65-9a2d-2c431c49f4ea"/><radialGradient id="b2d953ff-ed33-486e-9270-abe7bb1a90af" cx="217.55" cy="416.02" r="5.66" xlink:href="#ae4bca0b-a93e-4389-a112-790390cccb32"/><radialGradient id="be4193c5-e9bd-495b-b984-a2dd26360f98" cx="195.83" cy="370.99" r="11.47" xlink:href="#ae4bca0b-a93e-4389-a112-790390cccb32"/><radialGradient id="b09c7e06-3bad-4c65-9a2d-2c431c49f4ea" cx="92.36" cy="393.88" r="5.66" gradientTransform="matrix(1 0 0 .6 0 157.55)" gradientUnits="userSpaceOnUse"><stop offset="0" stop-color="#0000ef"/><stop offset=".15" stop-color="#0000e9"/><stop offset=".34" stop-color="#0101d9"/><stop offset=".56" stop-color="#0101be"/><stop offset=".79" stop-color="#02029a"/><stop offset="1" stop-color="#020282"/></radialGradient><radialGradient id="f29d6138-2ead-498f-8906-7b29c8d4a2db" cx="114.61" cy="393.88" r="5.66" xlink:href="#b09c7e06-3bad-4c65-9a2d-2c431c49f4ea"/><radialGradient id="a7eb14d5-77e1-4327-bca1-9b1747d9a7a0" cx="133.17" cy="400.04" r="5.66" gradientTransform="matrix(1 0 0 .6 0 160.02)" xlink:href="#b09c7e06-3bad-4c65-9a2d-2c431c49f4ea"/><radialGradient id="f044a19d-ca1b-429a-8eb2-4f11de6b7f52" cx="139.21" cy="387.78" r="5.66" gradientTransform="matrix(1 0 0 .6 0 155.11)" xlink:href="#b09c7e06-3bad-4c65-9a2d-2c431c49f4ea"/><radialGradient id="ae4bca0b-a93e-4389-a112-790390cccb32" cx="65.88" cy="348.77" r="11.47" gradientUnits="userSpaceOnUse"><stop offset="0" stop-color="#fd6d66"/><stop offset=".78" stop-color="#b50a03"/></radialGradient><radialGradient id="a48d4ac5-5079-47c7-bea8-c8ee559f9b45" cx="100.32" cy="382.53" r="5.66" gradientTransform="matrix(1 0 0 .6 0 153.01)" xlink:href="#b09c7e06-3bad-4c65-9a2d-2c431c49f4ea"/><radialGradient id="b5b241f1-c904-4070-92ef-99566a0c59ac" cx="225.51" cy="404.67" r="5.66" xlink:href="#ae4bca0b-a93e-4389-a112-790390cccb32"/><radialGradient id="b2b62e66-6904-4fc2-a064-9b3529794ea3" cx="246.79" cy="404.24" r="5.66" xlink:href="#ae4bca0b-a93e-4389-a112-790390cccb32"/><radialGradient id="bf8561f8-3a41-4971-a491-10a6c2622fd0" cx="264.4" cy="409.93" r="5.66" xlink:href="#ae4bca0b-a93e-4389-a112-790390cccb32"/><radialGradient id="e35ce504-4bdc-495e-9429-4979020330e0" cx="258.36" cy="422.19" r="5.66" xlink:href="#ae4bca0b-a93e-4389-a112-790390cccb32"/><radialGradient id="a03b7f29-1dd1-4a64-8df8-dfe27bb194e5" cx="239.79" cy="416.02" r="5.66" xlink:href="#ae4bca0b-a93e-4389-a112-790390cccb32"/><style>.a0b5145c-e881-4b3d-a79c-9367eacc9854{fill:#373735}.f3f994e4-93dd-4c3f-acb5-654abe490ef6{fill:#121211}.a254e7b3-03eb-40f3-b939-da63f4031acc,.ac5520f8-fe88-4de8-ab58-02df6740938e,.bec3f7b0-48f1-4395-ae6d-e2c88cce3c96,.e7715ab3-e29b-4036-94f1-2dcfd89c4a06,.f3f994e4-93dd-4c3f-acb5-654abe490ef6{stroke:#b5b5b5}.a254e7b3-03eb-40f3-b939-da63f4031acc,.ac5520f8-fe88-4de8-ab58-02df6740938e,.b1dc52d3-2993-4773-83d8-af67ed42d4b1,.bec3f7b0-48f1-4395-ae6d-e2c88cce3c96,.e37611ff-d23a-4cbb-91f9-d3666637b1ad,.e458e1d5-ea02-4bcd-8941-3139c4ef7e2c,.e7715ab3-e29b-4036-94f1-2dcfd89c4a06,.f3f994e4-93dd-4c3f-acb5-654abe490ef6{stroke-miterlimit:10}.a254e7b3-03eb-40f3-b939-da63f4031acc,.ac5520f8-fe88-4de8-ab58-02df6740938e,.bec3f7b0-48f1-4395-ae6d-e2c88cce3c96,.e37611ff-d23a-4cbb-91f9-d3666637b1ad,.e7715ab3-e29b-4036-94f1-2dcfd89c4a06,.f3f994e4-93dd-4c3f-acb5-654abe490ef6{stroke-width:.5px}.e458e1d5-ea02-4bcd-8941-3139c4ef7e2c{fill:#443840}.e37611ff-d23a-4cbb-91f9-d3666637b1ad,.e458e1d5-ea02-4bcd-8941-3139c4ef7e2c{stroke:#090000}.e458e1d5-ea02-4bcd-8941-3139c4ef7e2c{stroke-width:.75px}.e37611ff-d23a-4cbb-91f9-d3666637b1ad{fill:#6b0c05}.fd29cdea-1111-4038-b45a-aab990568b83{fill:#86382f}.b1dc52d3-2993-4773-83d8-af67ed42d4b1{stroke:#373737}.ef6cc522-1634-487e-a86c-43e68a10a61a{fill:#9a9a9a}.e7715ab3-e29b-4036-94f1-2dcfd89c4a06{fill:#dc6e05}.ac5520f8-fe88-4de8-ab58-02df6740938e{fill:#12e600}.bec3f7b0-48f1-4395-ae6d-e2c88cce3c96{fill:#0b47ce}.a254e7b3-03eb-40f3-b939-da63f4031acc,.b8227fe1-21c0-4105-8462-7c7029187e35{fill:#282826}.bba79b5a-9a72-47d6-80d7-b270213360b3{fill:#ae7a82}.a22c1316-79db-4416-bad5-45a898ec1e5f{fill:url(#ae4bca0b-a93e-4389-a112-790390cccb32)}.ac911769-5b22-4d8d-a2be-47e814c9e092{fill:url(#be4193c5-e9bd-495b-b984-a2dd26360f98)}.ebb9c925-0021-4f02-9396-3f6f54725579{fill:#0000ef}.b80d9d33-0bb1-4cf0-89c5-1272040827a7{fill:#930303}.b737232f-599b-450a-93d0-804214b3fbbf{fill:#e7e7e7}.b35fad50-7aa0-46b4-b35a-c444a75df692{fill:#2c2b29}.eb2d4fc9-235c-41da-b42e-2d6c5661b909{fill:#020202}.a1dab154-15e1-403c-9f56-c70db954a7bb{fill:#1c1c1c}.ae8836d3-5401-476a-94fc-6f34dc6fc5c5{fill:#037cce}</style></defs><g id="a146e912-4919-4dc3-b911-398b696cca7f" data-name="Calque 1"><path id="eda3381a-a5f0-419a-b62a-50147428d90d" data-name="ombre" style="opacity:.5;fill:#373735" d="m452.03 588.79 21.51-5.91H485.41l1.58 2.96 237.36 43.3h11.08l11.07 31.39-46.41 37.71-46.42 13.19-8.18-1.32.27-1.85-13.98-2.63-83.6 27.95-73.32 51.57-22.83 6.82-7.77-1.16v-2.63l-16.08-3.03-129.99 34.37 153.84-230.73z"/><g id="b0616c3d-982d-47fc-af7c-54a2dd1f41f8" data-name="bottom"><path class="a0b5145c-e881-4b3d-a79c-9367eacc9854" d="m36 454.56 224.9 39.62v4.35l25.72 6.13-.4 311.34-248.24-47.27L36 454.56z"/><path class="f3f994e4-93dd-4c3f-acb5-654abe490ef6" d="m202 526.54-78.38-13.74c-3 .19-4.26 3.56-4.26 3.56l.2 85c.69 2.18 3.86 5 3.86 5l74.27 13.46c5.14.49 7.52-5.25 7.52-5.25v-82.69a7.12 7.12 0 0 0-3.21-5.34zm-49.9 22.55-18.69-3.46v-20l2.27-1.88 18.1 3.07-1.78 2.69zm31.45 6.13-18.69-3.46v-20l2.27-1.87 18.1 3.06-1.78 2.67z" transform="translate(-.98 -.52)"/><path class="e458e1d5-ea02-4bcd-8941-3139c4ef7e2c" d="m134.7 523.25-2.27 1.88v19.98l18.69 3.46-.1-19.58 1.78-2.67-18.1-3.07zM166.15 529.38l-2.27 1.88v19.98l18.69 3.46-.1-19.58 1.78-2.67-18.1-3.07z"/><path class="e37611ff-d23a-4cbb-91f9-d3666637b1ad" d="M140.14 543.03v-12.85l8.01 1.78v12.56l-8.01-1.49zM171.2 548.87v-12.86l8.01 1.78v12.56l-8.01-1.48z"/><path d="M135.23 543.16v-15.23l2.05.4v15.16l-2.05-.33zM166.68 548.7v-15.23l2.04.4v15.16l-2.04-.33z"/><path class="fd29cdea-1111-4038-b45a-aab990568b83" d="M140.4 530.69v-.35l7.47 1.8.01.43-7.48-1.88zM171.46 536.62v-.29l7.47 1.64.01.35-7.48-1.7z"/><circle cx="192.4" cy="574.85" r="4.25" style="fill:#8b8b8b;stroke-width:.75px;stroke:#090000;stroke-miterlimit:10"/><path class="b1dc52d3-2993-4773-83d8-af67ed42d4b1" d="M136.29 598.71v-11.27l11.96 2.18v11.3l-11.96-2.21zM167.54 604.25v-11.27l11.96 2.17v10.88l-11.96-1.78z"/></g><g id="e5dd210d-a51e-4247-8dde-ccf477ff182f" data-name="t molding"><path class="ef6cc522-1634-487e-a86c-43e68a10a61a" d="m11.46 450.59-.79-39.76L1 407.66v45.1l27.89 5.54c.59 103.55 1 207.6 1.58 311.15a6.18 6.18 0 0 0 3.53 2.19 12.58 12.58 0 0 0 5 0l-2-316.56zM272.36 497v-41.27l-10.28-1.19-.2 44.51 25.71 6.13s-1.51 313.85 0 315.69 8.77 1.32 8.77 1.32l.93-319.91z" transform="translate(-.98 -.52)"/><path class="ef6cc522-1634-487e-a86c-43e68a10a61a" d="m78.72 346.42-8.15-1.3 16.26-218.56 9.04 1.5-17.15 218.36zM329.24 388.85l9.1 1.28 18.49-224.31h-26.37l-.26-90.92-10.06-1.84v94.84l6.04 1.09h20.27l-17.21 219.86z"/><path class="ef6cc522-1634-487e-a86c-43e68a10a61a" d="M88.49 127.19s-28.17-.35-29.11-.85c0-31.21.06-62.83 0-94l9.36 2.64.48 89.02z" transform="translate(-.98 -.52)"/><g id="abf690b4-39dc-4029-a14f-a02d9a2e62af" data-name="clair"><path class="ef6cc522-1634-487e-a86c-43e68a10a61a" d="m0 407.14 9.69 3.17L78 346.25l-8.11-1.94L0 407.14zM261.1 454.02l10.28 1.19 66.96-65.87-8.62-1.6-68.62 66.28zM111.56 0 58.42 31.78l9.36 2.64L120.36 3.3l2.74-1.62-2.57-.36L111.56 0zM383.74 40.62l-11.21-.8-52.39 33.24 10.06 1.84 53.54-34.28z"/></g></g><g id="f738a304-10c4-49f3-b697-443135b37c4e" data-name="side"><path class="f3f994e4-93dd-4c3f-acb5-654abe490ef6" d="m453.13 308.64.63-159.63-70.02-108.39L330.2 74.9l.26 90.92h26.37l-18.49 224.31-66.96 65.08v41.27l24.93 5.28-.93 319.91 8.25-6.32 149.65-543.7-.21 21.51-142.1 516.55-1.61 1.24 6.94-5.32 136.83-496.99zM324.06 799.15l-7.76 6.48 11.99-9.2 124.7-453.24.05-12.13-128.98 468.09zM335.43 790.95l-1.32 1.02 6.87-5.27 111.79-407.64v21.25l.22-57.12-.22 24-117.34 423.76zM343 785.15l108.58-83.28 1.18-299.85L347.4 781.78l-4.4 3.37z"/><path style="fill:#bf0000;stroke-width:.5px;stroke-miterlimit:10;stroke:#b5b5b5" d="m303.63 815.35 5.73-4.4-5.73 4.4z"/><path class="ef6cc522-1634-487e-a86c-43e68a10a61a" d="m453.07 293.16.21-21.51-149.65 543.7 5.73-4.4 1.61-1.24 142.1-516.55z"/><path class="e7715ab3-e29b-4036-94f1-2dcfd89c4a06" d="M453.13 330.74v-22.1l-.09 22.42.09-.32zM316.3 805.63z"/><path d="m453.04 331.06.09-22.42L316.3 805.63l7.76-6.48 128.98-468.09z"/><path class="ac5520f8-fe88-4de8-ab58-02df6740938e" d="M452.99 343.19zM328.29 796.43l5.82-4.46-5.82 4.46z"/><path style="fill:#fff" d="m334.11 791.97 1.32-1.02 117.34-423.76.22-24-124.7 453.24 5.82-4.46z"/><path class="bec3f7b0-48f1-4395-ae6d-e2c88cce3c96" d="m340.98 786.7 2.02-1.55-2.02 1.55zM452.77 402v-1.69l-.01 1.71.01-.02z"/><path style="fill:#127bca" d="m340.98 786.7 2.02-1.55 4.4-3.37 105.36-379.76.01-1.71v-21.25L340.98 786.7z"/></g><g id="b132b093-5799-4c03-94a4-9011a92afb66" data-name="panel"><path class="a254e7b3-03eb-40f3-b939-da63f4031acc" d="m10.48 450.07 250.42 44.11.2-40.16L9.69 410.31l.79 39.76z"/><path class="a0b5145c-e881-4b3d-a79c-9367eacc9854" d="m79.37 345.21-69.68 65.1 251.41 43.71 68.62-66.28-250.35-42.53z"/></g><g id="a7b65c73-6b2d-4bc8-a310-90cc6c69d6ee" data-name="ecran"><path class="a254e7b3-03eb-40f3-b939-da63f4031acc" d="M96.84 129.36 79.7 347.72l250.52 42.43L347.82 168zm224.28 67.76c0 .2-.29.32-.48.49l-10.43 144.83a35.43 35.43 0 0 1-4.3 3.78l1.4.29v10.7s-1.4 4.75-11.08 2.64c-11.19-2.44-178.55-31.91-178.55-31.91l8.72-6.78v-1.39s-2.46.52-6-7l-12.48 2.77h-4l11.34-158.77s4-6.85 10.81-6.59 191.16 30.59 191.16 30.59 6.17 1.07 3.89 16.35z" transform="translate(-.98 -.52)"/><path d="M317.28 180S133 149.66 126.12 149.4s-10.81 6.6-10.81 6.6l-11.74 160.08h4.35l12.29-2.68c-.1-.23-.74-1.57-.85-1.8L131 166.54s2.11-5.54 7.12-7.38l177.49 27.16a20.77 20.77 0 0 1 5.11 9.76l-.05.75c.19-.17.62.66.66.47 3.23-14.06-4.05-17.3-4.05-17.3z" transform="translate(-.98 -.52)" style="fill:#151312"/><path d="m125.32 320-8.56 8s164.63 29.3 178.61 32.24c10.36 2.17 14.43-3.58 14.43-3.58l.61-7.37.39-7.71-4.89 3.84a20.85 20.85 0 0 1-7.73 3.87z" transform="translate(-.98 -.52)" style="fill:#555353"/><path d="M319.5 197.81c.45-.36.83-.69 1.14-1l.66-.52a20.31 20.31 0 0 0-5.72-10l-177.49-27.13c-5 1.84-7.12 7.38-7.12 7.38L119.36 311.6l.32.66c3.54 7.52 6.28 8 6.28 8l.44.08 171.78 28.93a20.85 20.85 0 0 0 7.73-3.87c2.57-1.91 4.89-3.84 4.89-3.84l10.5-145.29c-.44.46-1.05.96-1.8 1.54zM143.83 302.35z" transform="translate(-.98 -.52)" style="fill:#008aa6"/></g><g id="ac51f322-c976-41e6-af29-f1d6d57e71c7" data-name="top"><path id="aa2254cd-e3fb-4145-ad8c-63c97e71698a" data-name="marquee" class="a254e7b3-03eb-40f3-b939-da63f4031acc" d="m68.24 123.5 251.47 39.03.43-89.47L67.78 34.42l.46 89.08z"/><path style="stroke-miterlimit:10;stroke:#b5b5b5;fill:#373735" d="m128.84 2.64-5.74-.96-55.32 32.74 252.36 38.64 52.39-33.24L128.84 2.64z"/></g><g id="fcca2004-2a91-4a07-b83d-248f138546b5" data-name="stickp1"><path class="b8227fe1-21c0-4105-8462-7c7029187e35" d="M68.92 377.27v5.16H62.4v-5.16c-5.06.64-8.77 2.7-8.77 5.16 0 3 5.38 5.35 12 5.35s12-2.39 12-5.35c.06-2.43-3.63-4.52-8.71-5.16z" transform="translate(-.98 -.52)"/><path class="bba79b5a-9a72-47d6-80d7-b270213360b3" d="M68.92 377.27v-17.78a12.18 12.18 0 0 1-3 .39 12.4 12.4 0 0 1-3.48-.49v17.88a26.67 26.67 0 0 1 6.52 0z" transform="translate(-.98 -.52)"/><path class="bba79b5a-9a72-47d6-80d7-b270213360b3" d="M68.92 382.43v-5.16a26.67 26.67 0 0 0-6.52 0v5.16z" transform="translate(-.98 -.52)"/><path class="a22c1316-79db-4416-bad5-45a898ec1e5f" d="M68.92 358.89v.6a11.24 11.24 0 0 0 8.77-10.72c0-6.14-5.29-11.11-11.81-11.11s-11.82 5-11.82 11.11a11.22 11.22 0 0 0 8.34 10.62v-.5z" transform="translate(-.98 -.52)"/><path class="bba79b5a-9a72-47d6-80d7-b270213360b3" d="M68.92 359.49v-.6H62.4v.5a12.4 12.4 0 0 0 3.48.49 12.18 12.18 0 0 0 3.04-.39z" transform="translate(-.98 -.52)"/><path class="a22c1316-79db-4416-bad5-45a898ec1e5f" d="M68.92 359.49v-.6H62.4v.5a12.4 12.4 0 0 0 3.48.49 12.18 12.18 0 0 0 3.04-.39z" transform="translate(-.98 -.52)"/></g><g id="eb41a7c5-f324-4cd9-b9b4-a6e30e3b8004" data-name="stickp2"><path class="b8227fe1-21c0-4105-8462-7c7029187e35" d="M198.88 399.49v5.16h-6.53v-5.16c-5 .64-8.77 2.7-8.77 5.16 0 3 5.39 5.35 12 5.35s12-2.39 12-5.35c.07-2.46-3.64-4.52-8.7-5.16z" transform="translate(-.98 -.52)"/><path class="bba79b5a-9a72-47d6-80d7-b270213360b3" d="M198.88 399.49v-17.78a12.2 12.2 0 0 1-3 .39 12.83 12.83 0 0 1-3.48-.49v17.88a26.75 26.75 0 0 1 6.53 0z" transform="translate(-.98 -.52)"/><path class="bba79b5a-9a72-47d6-80d7-b270213360b3" d="M198.88 404.65v-5.16a26.75 26.75 0 0 0-6.53 0v5.16z" transform="translate(-.98 -.52)"/><path class="ac911769-5b22-4d8d-a2be-47e814c9e092" d="M198.88 381.11v.6a11.24 11.24 0 0 0 8.77-10.71c0-6.14-5.29-11.11-11.82-11.11S184 364.85 184 371a11.22 11.22 0 0 0 8.34 10.62v-.5z" transform="translate(-.98 -.52)"/><path class="bba79b5a-9a72-47d6-80d7-b270213360b3" d="M198.88 381.71v-.6h-6.53v.5a12.83 12.83 0 0 0 3.48.49 12.2 12.2 0 0 0 3.05-.39z" transform="translate(-.98 -.52)"/><path class="ac911769-5b22-4d8d-a2be-47e814c9e092" d="M198.88 381.71v-.6h-6.53v.5a12.83 12.83 0 0 0 3.48.49 12.2 12.2 0 0 0 3.05-.39z" transform="translate(-.98 -.52)"/></g><g id="b22aeb20-fc2e-438b-aea6-ce7e92a5b048" data-name="boutons P1"><g id="f6ca8fa0-8f00-4d65-982a-65a01c5c1e54" data-name="4"><path class="ebb9c925-0021-4f02-9396-3f6f54725579" d="M92.54 389.14c-3.86 0-8.12 1.53-8.12 4.87 0 2.95 4.1 4.62 7.94 4.62 4.11 0 8-1.73 8-4.88-.04-2.35-3.88-4.61-7.82-4.61zm-.18 8.63c-3.86 0-7-1.74-7-3.89s3.13-3.89 7-3.89 7 1.74 7 3.89-3.14 3.89-7 3.89z" transform="translate(-.98 -.52)"/><path d="M92.36 390c-3.86 0-7 1.74-7 3.89s3.13 3.89 7 3.89 7-1.74 7-3.89-3.14-3.89-7-3.89z" transform="translate(-.98 -.52)" style="fill:url(#b09c7e06-3bad-4c65-9a2d-2c431c49f4ea)"/></g><g id="b45e72aa-154d-46b2-b56c-a1c19e9bbd58" data-name="5"><path class="ebb9c925-0021-4f02-9396-3f6f54725579" d="M114.79 389.14c-3.86 0-8.12 1.53-8.12 4.87 0 2.95 4.1 4.62 7.94 4.62 4.11 0 8-1.73 8-4.88-.04-2.35-3.88-4.61-7.82-4.61zm-.18 8.63c-3.86 0-7-1.74-7-3.89s3.13-3.89 7-3.89 7 1.74 7 3.89-3.14 3.89-7 3.89z" transform="translate(-.98 -.52)"/><path d="M114.61 390c-3.86 0-7 1.74-7 3.89s3.13 3.89 7 3.89 7-1.74 7-3.89-3.14-3.89-7-3.89z" transform="translate(-.98 -.52)" style="fill:url(#f29d6138-2ead-498f-8906-7b29c8d4a2db)"/></g><g id="ff1e69e7-cf29-41a9-b258-0874dfca842b" data-name="6"><path class="ebb9c925-0021-4f02-9396-3f6f54725579" d="M133.35 395.3c-3.86 0-8.13 1.53-8.13 4.87 0 3 4.11 4.62 7.95 4.62 4.1 0 8-1.73 8-4.88-.04-2.35-3.88-4.61-7.82-4.61zm-.18 8.63c-3.86 0-7-1.74-7-3.89s3.13-3.89 7-3.89 7 1.74 7 3.89-3.17 3.89-7 3.89z" transform="translate(-.98 -.52)"/><path d="M133.17 396.15c-3.86 0-7 1.74-7 3.89s3.13 3.89 7 3.89 7-1.74 7-3.89-3.17-3.89-7-3.89z" transform="translate(-.98 -.52)" style="fill:url(#a7eb14d5-77e1-4327-bca1-9b1747d9a7a0)"/></g><g id="a3c35b26-86c5-4d3b-a337-4824dee54938" data-name="3"><path class="ebb9c925-0021-4f02-9396-3f6f54725579" d="M139.39 383c-3.86 0-8.13 1.53-8.13 4.88 0 2.95 4.11 4.61 8 4.61 4.1 0 8-1.73 8-4.88-.09-2.31-3.93-4.61-7.87-4.61zm-.18 8.63c-3.86 0-7-1.74-7-3.89s3.13-3.89 7-3.89 7 1.75 7 3.89-3.14 3.93-7 3.93z" transform="translate(-.98 -.52)"/><path d="M139.21 383.89c-3.86 0-7 1.75-7 3.89s3.13 3.89 7 3.89 7-1.74 7-3.89-3.14-3.89-7-3.89z" transform="translate(-.98 -.52)" style="fill:url(#f044a19d-ca1b-429a-8eb2-4f11de6b7f52)"/></g><g id="e22f56fe-b854-41bd-b0ef-3c61899777bd" data-name="2"><path class="ebb9c925-0021-4f02-9396-3f6f54725579" d="M121.79 377.35c-3.86 0-8.12 1.53-8.12 4.88 0 2.95 4.1 4.61 7.94 4.61 4.11 0 8-1.73 8-4.88-.04-2.34-3.88-4.61-7.82-4.61zm-.18 8.64c-3.86 0-7-1.74-7-3.89s3.13-3.89 7-3.89 7 1.74 7 3.89-3.14 3.9-7 3.9z" transform="translate(-.98 -.52)"/><path d="M121.61 378.21c-3.86 0-7 1.74-7 3.89s3.13 3.89 7 3.89 7-1.74 7-3.89-3.14-3.89-7-3.89z" transform="translate(-.98 -.52)" style="fill:url(#ae578a9d-5c7b-422d-857d-09f70dc44170)"/></g><g id="a8fd25d9-f758-4fe2-9f75-28c4795a1cd0" data-name="1"><path class="ebb9c925-0021-4f02-9396-3f6f54725579" d="M100.5 377.78c-3.86 0-8.13 1.53-8.13 4.88 0 2.95 4.11 4.62 7.95 4.62 4.1 0 8-1.73 8-4.88-.04-2.35-3.88-4.62-7.82-4.62zm-.18 8.64c-3.86 0-7-1.74-7-3.89s3.13-3.89 7-3.89 7 1.74 7 3.89-3.14 3.89-7 3.89z" transform="translate(-.98 -.52)"/><path d="M100.32 378.64c-3.86 0-7 1.74-7 3.89s3.13 3.89 7 3.89 7-1.74 7-3.89-3.14-3.89-7-3.89z" transform="translate(-.98 -.52)" style="fill:url(#a48d4ac5-5079-47c7-bea8-c8ee559f9b45)"/></g></g><g id="b7312dd8-a846-439f-b5e9-7da05d62cf25" data-name="boutons P2"><g id="b1e282e4-ac09-42ef-84e5-84660d91fe49" data-name="1"><path class="b80d9d33-0bb1-4cf0-89c5-1272040827a7" d="M225.69 399.93c-3.86 0-8.13 1.53-8.13 4.87 0 2.95 4.11 4.62 7.95 4.62 4.1 0 8-1.73 8-4.88-.04-2.35-3.88-4.61-7.82-4.61zm-.18 8.63c-3.86 0-7-1.74-7-3.89s3.13-3.89 7-3.89 7 1.74 7 3.89-3.14 3.89-7 3.89z" transform="translate(-.98 -.52)"/><path d="M225.51 400.78c-3.86 0-7 1.74-7 3.89s3.13 3.89 7 3.89 7-1.74 7-3.89-3.14-3.89-7-3.89z" transform="translate(-.98 -.52)" style="fill:url(#b5b241f1-c904-4070-92ef-99566a0c59ac)"/></g><g id="a47fb9ba-4fb1-4371-9672-1376235b744d" data-name="2"><path class="b80d9d33-0bb1-4cf0-89c5-1272040827a7" d="M247 399.49c-3.86 0-8.13 1.54-8.13 4.88 0 2.95 4.11 4.62 7.95 4.62 4.1 0 8-1.73 8-4.88-.07-2.35-3.91-4.62-7.82-4.62zm-.18 8.64c-3.86 0-7-1.74-7-3.89s3.13-3.89 7-3.89 7 1.74 7 3.89-3.17 3.89-7.03 3.89z" transform="translate(-.98 -.52)"/><path d="M246.79 400.35c-3.86 0-7 1.74-7 3.89s3.13 3.89 7 3.89 7-1.74 7-3.89-3.14-3.89-7-3.89z" transform="translate(-.98 -.52)" style="fill:url(#b2b62e66-6904-4fc2-a064-9b3529794ea3)"/></g><g id="f727a27f-708b-4d72-8f8c-eede5e7a376a" data-name="3"><path class="b80d9d33-0bb1-4cf0-89c5-1272040827a7" d="M264.58 405.18c-3.86 0-8.12 1.53-8.12 4.88 0 2.95 4.1 4.61 7.94 4.61 4.1 0 8-1.73 8-4.88-.04-2.35-3.88-4.61-7.82-4.61zm-.18 8.64c-3.86 0-7-1.75-7-3.89s3.13-3.89 7-3.89 7 1.74 7 3.89-3.14 3.89-7 3.89z" transform="translate(-.98 -.52)"/><path d="M264.4 406c-3.86 0-7 1.74-7 3.89s3.13 3.89 7 3.89 7-1.75 7-3.89-3.14-3.89-7-3.89z" transform="translate(-.98 -.52)" style="fill:url(#bf8561f8-3a41-4971-a491-10a6c2622fd0)"/></g><g id="ffd572cb-a67e-43cb-abf1-a7175d891348" data-name="4"><path class="b80d9d33-0bb1-4cf0-89c5-1272040827a7" d="M258.54 417.44c-3.86 0-8.13 1.53-8.13 4.88 0 2.95 4.11 4.61 8 4.61 4.1 0 8-1.73 8-4.88-.09-2.35-3.93-4.61-7.87-4.61zm-.18 8.64c-3.86 0-7-1.75-7-3.89s3.13-3.89 7-3.89 7 1.74 7 3.89-3.14 3.89-7 3.89z" transform="translate(-.98 -.52)"/><path d="M258.36 418.3c-3.86 0-7 1.74-7 3.89s3.13 3.89 7 3.89 7-1.75 7-3.89-3.14-3.89-7-3.89z" transform="translate(-.98 -.52)" style="fill:url(#e35ce504-4bdc-495e-9429-4979020330e0)"/></g><g id="e26f2cb8-48c2-4263-bdb5-c928c3bf7cf9" data-name="5"><path class="b80d9d33-0bb1-4cf0-89c5-1272040827a7" d="M240 411.28c-3.86 0-8.13 1.53-8.13 4.88 0 2.95 4.11 4.61 7.95 4.61 4.1 0 8-1.73 8-4.88-.07-2.35-3.91-4.61-7.82-4.61zm-.18 8.63c-3.86 0-7-1.74-7-3.89s3.13-3.89 7-3.89 7 1.75 7 3.89-3.17 3.89-7.03 3.89z" transform="translate(-.98 -.52)"/><path d="M239.79 412.13c-3.86 0-7 1.75-7 3.89s3.13 3.89 7 3.89 7-1.74 7-3.89-3.14-3.89-7-3.89z" transform="translate(-.98 -.52)" style="fill:url(#a03b7f29-1dd1-4a64-8df8-dfe27bb194e5)"/></g><g id="a1594817-8efc-4740-a1af-93b2f896c662" data-name="6"><path class="b80d9d33-0bb1-4cf0-89c5-1272040827a7" d="M217.73 411.28c-3.86 0-8.13 1.53-8.13 4.88 0 2.95 4.11 4.61 8 4.61 4.1 0 8-1.73 8-4.88-.09-2.35-3.93-4.61-7.87-4.61zm-.18 8.63c-3.86 0-7-1.74-7-3.89s3.13-3.89 7-3.89 7 1.75 7 3.89-3.14 3.89-7 3.89z" transform="translate(-.98 -.52)"/><path d="M217.55 412.13c-3.86 0-7 1.75-7 3.89s3.13 3.89 7 3.89 7-1.74 7-3.89-3.14-3.89-7-3.89z" transform="translate(-.98 -.52)" style="fill:url(#b2d953ff-ed33-486e-9270-abe7bb1a90af)"/></g></g><path class="b737232f-599b-450a-93d0-804214b3fbbf" d="M228.57 237.19v.07l-5.92-1v-.08zM236.56 238.53a.13.13 0 0 0 0 .06l-5.72-1v-.06z" transform="translate(-.98 -.52)"/><path class="b35fad50-7aa0-46b4-b35a-c444a75df692" d="m210.17 273.38-65.56-11c-.87-.14-.87-.14-.74-.92.25-1.54.47-3.08.75-4.61.78-4.31 1.48-8.63 2.22-12.95.09-.48.22-1 .29-1.44 0-.18.12-.23.31-.19l.75.13 119.31 19.98a16.13 16.13 0 0 1 4.69 1.42 11.54 11.54 0 0 1 5.67 5.9 8.36 8.36 0 0 1 .63 3.88c0 .38-.08.76-.15 1.14l-1.56 9.36c-.07.39-.13.42-.54.36l-40.11-6.72zm14.68-7.7c-.4 2.35-.79 4.71-1.19 7.07 0 .23 0 .34.3.38 1 .15 1.95.32 2.93.49.51.09.51.09.59-.37q.69-4.22 1.4-8.43c0-.08 0-.21.12-.22s.13.1.17.17c1.69 3.14 3.43 6.26 5.06 9.42a2.38 2.38 0 0 0 3.55.6c.9-.94 1.91-1.79 2.87-2.68l4.89-4.53c.08-.07.15-.22.26-.17s0 .2 0 .31v.12c-.47 2.79-.93 5.58-1.4 8.37 0 .25 0 .35.31.4 1 .16 2 .32 3.06.51.34.07.45 0 .49-.32l2.32-13.83a1.32 1.32 0 0 0-.25-1 2.34 2.34 0 0 0-3.26-.37l-2.16 2-8.12 7.4c-.25.23-.28.22-.45-.08-2.2-4.06-4.42-8.11-6.61-12.17a2.14 2.14 0 0 0-1.43-1.06A1.74 1.74 0 0 0 226 259zm-4.51-.71c.38-2.31.76-4.61 1.16-6.92a1.32 1.32 0 0 0-.45-1.21 2.4 2.4 0 0 0-3.17 0c-2.39 2.24-4.82 4.43-7.24 6.63l-2.95 2.7c-.13.12-.23.25-.37 0l-3.44-6.31c-1.1-2-2.19-4-3.3-6a2.24 2.24 0 0 0-2.21-1 1.52 1.52 0 0 0-1.5 1.37q-1.16 6.86-2.3 13.71c0 .28.05.37.35.41 1 .15 2 .32 3 .5.44.07.45.08.51-.3.46-2.73.91-5.46 1.37-8.19 0-.13 0-.27.06-.4s0-.16.11-.17.1.08.13.14.18.34.28.51c1.63 3 3.29 6 4.88 9.07a2.34 2.34 0 0 0 3.35.6c.47-.47 1-.91 1.48-1.37l6.5-6c.06-.05.09-.14.19-.11s.07.14.06.22c-.14.81-.28 1.62-.41 2.44-.35 2.06-.69 4.13-1 6.2 0 .22 0 .32.29.36l3 .5c.44.07.45.07.52-.31q.51-3.6 1.1-7.04zm33.15 5.67c-.38 2.28-.76 4.57-1.15 6.85-.06.31.06.41.38.45 1 .16 2 .32 3 .5.33.07.45 0 .5-.31.16-1 .35-2.08.51-3.12 0-.23.12-.33.4-.28l12.77 2.14c.33.05.39.18.34.45-.18 1-.34 2.08-.53 3.12-.05.25 0 .35.32.4 1 .15 2 .32 3 .49.45.07.46.07.53-.34l1.22-7.32a6.88 6.88 0 0 0-2.51-6.52 12.61 12.61 0 0 0-6.36-3c-2.38-.41-4.76-.8-7.13-1.19-.72-.12-1.45-.26-2.17-.35a1.6 1.6 0 0 0-1.91 1.29c-.46 2.27-.83 4.5-1.21 6.74zm-62.24-10.42 1.14-6.79a1.24 1.24 0 0 0 0-.47 1.91 1.91 0 0 0-1.63-1.33c-1.55-.26-3.1-.53-4.65-.77-1.84-.3-3.66-.71-5.51-.87a11.55 11.55 0 0 0-7 1.39 6.55 6.55 0 0 0-3.37 4.67q-.63 3.74-1.25 7.47c-.07.4-.07.4.36.47 1 .17 2 .32 2.93.5.33.06.45 0 .5-.31.15-1 .34-2.06.5-3.09 0-.29.17-.35.48-.3l12.67 2.12c.34 0 .42.16.37.46-.19 1-.35 2.08-.54 3.11 0 .26 0 .36.32.4 1 .16 2 .32 3 .51.33.06.44 0 .49-.32.42-2.28.81-4.57 1.19-6.85zm-38.3 1 6.47 1.08a7.76 7.76 0 0 0 2.76 0 3.93 3.93 0 0 0 3.34-2.92c.64-3.78 1.26-7.55 1.9-11.33.05-.27 0-.37-.33-.42-1-.15-2-.32-3-.5-.36-.07-.46 0-.51.33q-.92 5.58-1.86 11.15a1.08 1.08 0 0 1-1.24.95 4.41 4.41 0 0 1-.73-.08c-1-.18-2-.37-3.06-.54l-7-1.15c-.28-.05-.35-.15-.31-.38.11-.59.19-1.18.31-1.76.06-.28 0-.4-.35-.45-.84-.13-1.68-.26-2.52-.42-.34-.07-.44 0-.49.32-.24 1.49-.49 3-.74 4.45-.07.42-.07.42.42.5zM230.83 237.63l5.72 1c.15.09.15.2.13.35-.37 2.17-.73 4.34-1.11 6.51 0 .29 0 .38.34.43 3.09.5 6.18 1 9.27 1.54.32.05.34.16.31.44-.06.67-.23 1.33-.32 2-.22 1.55-.54 3.09-.8 4.63-.1.59-.17 1.19-.26 1.78 0 .2-.12.31-.4.26L228.57 254c-.65-.11-.65-.11-.56-.68q1.29-7.69 2.57-15.38c.02-.15.02-.31.25-.31zm3.94 12.7c-.13.78-.25 1.56-.39 2.34-.05.27 0 .38.33.43 1.06.16 2.11.34 3.16.53.32.06.44 0 .49-.31.25-1.55.51-3.1.78-4.66 0-.24 0-.34-.31-.38q-1.62-.25-3.24-.54c-.28-.05-.39 0-.43.27-.16.78-.26 1.55-.39 2.32zM255.63 249.17c2.55.43 5.09.86 7.64 1.27.34.06.42.17.37.47q-.7 4.14-1.39 8.3c-.07.37-.1.4-.52.33L246.38 257c-.27-.05-.34-.16-.3-.39q.72-4.21 1.41-8.43c0-.28.18-.33.47-.28 2.55.44 5.11.86 7.67 1.29zm1.31 4.88c.14-.8.27-1.6.41-2.4 0-.23 0-.36-.3-.4l-3.44-.58c-.26 0-.38 0-.42.27l-.81 4.85c0 .25.05.36.33.41l3.37.56c.3.06.42 0 .46-.3.13-.8.27-1.6.4-2.41zM173.53 244.78l-7.64-1.27c-.31 0-.37-.15-.33-.42q.72-4.2 1.42-8.42c0-.25.13-.32.4-.27l15.36 2.6c.41.07.43.11.37.49-.26 1.55-.53 3.11-.78 4.66 0 .31-.17.37-.5.32-3.07-.53-6.15-1-9.22-1.55-.46-.08-.46-.08-.52.32s-.11.7-.19 1 0 .35.31.4c2.06.33 4.11.68 6.17 1l3.16.53c.32.05.42.17.37.44s-.14.74-.19 1.11-.18.38-.51.32zm.92-5.45c.56.1 1.13.18 1.69.29.25 0 .35 0 .38-.25 0-.39.12-.78.2-1.17 0-.21 0-.32-.26-.36l-3.41-.57c-.22 0-.33 0-.36.23q-.08.62-.18 1.23c0 .23.06.3.29.33.55.07 1.1.17 1.65.27zM211.28 241.75l7.64 1.28c.44.07.5.14.42.52-.43 2-.7 4-1.05 6-.14.74-.27 1.48-.37 2.23 0 .29-.15.37-.49.31-2.08-.36-4.17-.7-6.26-1l-9-1.51c-.42-.07-.43-.08-.37-.47.26-1.56.53-3.11.77-4.67 0-.32.18-.37.52-.31l9.16 1.54c.46.07.46.07.53-.33s.09-.67.17-1 0-.4-.36-.46c-2.34-.37-4.68-.77-7-1.16l-2.31-.38c-.24 0-.32-.12-.28-.34a10.85 10.85 0 0 0 .21-1.27c0-.27.16-.31.43-.26l5.37.9 2.27.38zm-1.15 7.25c.55.09 1.11.17 1.66.27.21 0 .33 0 .36-.21l.21-1.23c0-.19-.05-.29-.27-.33l-3.33-.56c-.24 0-.35 0-.38.24 0 .4-.11.79-.19 1.17-.05.23.05.33.29.37.52.07 1.1.17 1.65.28zM268.74 251.36c.87.15 1.74.31 2.62.44.31 0 .38.18.34.43-.08.4-.13.8-.21 1.2 0 .21 0 .3.27.34l3.36.56c.28 0 .38 0 .41-.27.06-.41.15-.82.2-1.23 0-.23.15-.27.37-.24l5.4.91c.21 0 .3.13.27.33-.08.43-.16.86-.22 1.29 0 .23-.16.29-.41.25-.44-.09-.89-.15-1.34-.24-.24 0-.33 0-.36.24-.05.4-.13.8-.19 1.2 0 .23-.15.3-.4.25-.47-.08-.94-.15-1.41-.24-.17 0-.24 0-.29.17-.13.44-.08.91-.25 1.34-.07.18.07.24.24.27l1.38.22c.28 0 .38.15.33.41s-.13.78-.21 1.17c0 .21.05.31.28.34l1.34.22c.25 0 .34.13.3.36-.09.42-.17.84-.22 1.27 0 .22-.15.27-.36.24l-.65-.11-4.62-.77c-.45-.08-.45-.08-.38-.49s.12-.76.19-1.14c.05-.21 0-.3-.27-.34l-3.44-.58c-.22 0-.29 0-.31.21-.06.4-.16.8-.19 1.21s-.19.37-.5.32l-4.72-.8c-1.16-.19-.93-.1-.8-1 0-.25.09-.49.12-.74s.16-.29.4-.25c.45.09.9.15 1.34.24.27.05.39 0 .42-.26s.14-.78.19-1.17.16-.31.41-.26c.46.09.92.15 1.37.24.21 0 .3 0 .32-.2.06-.43.13-.85.22-1.27 0-.21-.05-.28-.26-.31l-1.38-.23c-.24 0-.34-.12-.29-.36s.14-.78.21-1.17c0-.23 0-.35-.31-.38-.45-.06-.9-.15-1.35-.22-.25 0-.34-.14-.29-.37q.12-.63.21-1.26c0-.24.16-.29.4-.24zM222.64 236.28l5.92 1a.42.42 0 0 1 .05.36q-1.31 7.77-2.6 15.56c0 .28-.17.37-.48.31s-.88-.19-1.33-.26l-3.89-.62c-.46-.08-.45-.08-.39-.49q1.31-7.74 2.6-15.49c.02-.14 0-.28.12-.37zM191.71 247.82l-7.71-1.28c-.3 0-.4-.14-.35-.43q.72-4.2 1.41-8.4c0-.26.15-.32.42-.27l15.39 2.56c.31.05.42.18.36.45s-.11.72-.19 1.08-.13.41-.55.34l-4.16-.7-5.06-.85c-.28 0-.37 0-.41.25-.22 1.39-.46 2.78-.69 4.17a2.74 2.74 0 0 1 0 .28c-.11.6-.11.6.58.72l8.92 1.49c.42.07.45.11.39.5s-.15.72-.18 1.08-.19.35-.48.3c-.56-.11-1.12-.2-1.68-.29z" transform="translate(-.98 -.52)"/><path d="M291.07 282.1c-.25 1.47-.49 2.94-.74 4.41-.07.42-.07.42-.51.34l-4.27-.71c-.27 0-.37-.13-.3-.37s.07-.41.11-.62-.06-.27-.25-.29l-.49-.05c-.39-.06-.49 0-.51.37v.19c0 .43-.14.5-.63.42-1.39-.23-2.79-.47-4.19-.69-.32-.05-.4-.19-.36-.45.5-3 1-5.91 1.49-8.86.06-.36.14-.42.55-.33 2.95.58 5.92 1 8.87 1.52.52.09 1 .13 1.55.22s.47.1.4.52c-.24 1.46-.49 2.92-.73 4.38zm-8.37-.17 1.58.27c.22 0 .32 0 .35-.22.1-.59.2-1.19.31-1.79 0-.21-.06-.3-.29-.34l-3.13-.52c-.21 0-.31 0-.35.22-.08.59-.18 1.19-.29 1.79 0 .21 0 .31.27.34zm5.47-1.49c-.52-.08-1-.16-1.55-.26-.25-.05-.36 0-.39.24-.09.59-.19 1.19-.29 1.78-.05.23.05.29.28.33 1 .16 2 .33 3 .51.28.05.39 0 .43-.27.08-.56.17-1.13.28-1.69 0-.23 0-.35-.3-.39-.48-.08-.97-.17-1.46-.25z" transform="translate(-.98 -.52)" style="fill:#2785db"/><path d="M292.87 271.31c-.25 1.48-.5 3-.74 4.44-.07.38-.11.4-.52.34l-2.86-.48c-.41-.07-.49-.18-.43-.54.14-.85.28-1.71.43-2.56a.34.34 0 0 1 0-.1c.2-.63.12-.52.72-.43l1.48.25c.26 0 .4 0 .44-.25.09-.59.19-1.18.29-1.76 0-.21 0-.33-.3-.38l-8-1.34c-.26 0-.39.05-.42.28-.09.57-.19 1.14-.28 1.7 0 .23.05.36.31.41l3.06.52a.25.25 0 0 0 .33-.17 1.81 1.81 0 0 0 .12-.64c0-.19.11-.24.27-.29a.45.45 0 0 1 .2 0c.85.09.89.14.77.88-.21 1.26-.43 2.51-.63 3.77 0 .26-.17.34-.43.3l-5.43-.91c-.49-.08-.55-.15-.48-.58.49-3 1-5.91 1.48-8.87 0-.17.09-.23.28-.22s.55 0 .83.08l9.77 1.63c.55.09.55.1.47.6l-.72 4.32z" transform="translate(-.98 -.52)" style="fill:#44c047"/><path d="M289.84 254.78c1.75.29 3.49.59 5.24.87.3 0 .4.13.35.42-.51 3-1 5.95-1.49 8.92-.05.3-.16.38-.49.32-1.4-.25-2.8-.48-4.2-.71-.36-.06-.42-.15-.36-.47 0-.12.06-.23.08-.34.08-.47.08-.47-.46-.56h-.21c-.5-.08-.51-.08-.54.39 0 .18-.1.34-.11.52s-.18.19-.35.16l-4.44-.74c-.23 0-.32-.15-.29-.35.17-1 .35-2 .51-3.06 0-.28.23-.27.45-.23l1.83.3c.8.15 1.61.24 2.4.44.25.06.44 0 .48-.27.07-.57.17-1.14.28-1.7.05-.27 0-.38-.34-.43-1.42-.22-2.83-.47-4.24-.7-.29 0-.4-.12-.35-.4.18-1 .33-2 .48-3 0-.26.15-.33.44-.28 1.77.31 3.55.6 5.33.9zm1.49 6.43c.51.08 1 .16 1.54.26.22 0 .35 0 .39-.21.09-.61.19-1.22.3-1.82 0-.2 0-.32-.27-.35l-3.09-.52c-.22 0-.32 0-.35.21-.09.63-.2 1.25-.31 1.88 0 .18 0 .26.24.29z" transform="translate(-.98 -.52)" style="fill:#eb1416"/><path class="b35fad50-7aa0-46b4-b35a-c444a75df692" d="m156.94 232.66 7.54 1.26c.53.09.53.09.45.57s-.13.7-.17 1-.16.33-.44.28l-9.3-1.57c-.33-.05-.41 0-.45.3-.35 2.17-.72 4.33-1.07 6.49-.05.31-.2.36-.51.31l-5.19-.87c-.3 0-.4-.14-.35-.42q.72-4.19 1.4-8.39c.05-.31.19-.34.48-.29z" transform="translate(-.98 -.52)"/><path class="b737232f-599b-450a-93d0-804214b3fbbf" d="M224.85 265.68 226 259a1.74 1.74 0 0 1 2.34-1.33 2.14 2.14 0 0 1 1.43 1.06c2.19 4.06 4.41 8.11 6.61 12.17.17.3.2.31.45.08l8.14-7.43 2.16-2a2.34 2.34 0 0 1 3.26.37 1.32 1.32 0 0 1 .25 1q-1.17 6.91-2.32 13.83c0 .29-.15.39-.49.32-1-.19-2-.35-3.06-.51-.3-.05-.36-.15-.31-.4.47-2.79.93-5.58 1.4-8.37v-.12c0-.04.11-.25 0-.31s-.18.1-.26.17l-4.89 4.53c-1 .89-2 1.74-2.87 2.68a2.38 2.38 0 0 1-3.55-.6c-1.63-3.16-3.37-6.28-5.06-9.42 0-.07-.06-.19-.17-.17s-.11.14-.12.22l-1.4 8.43c-.08.46-.08.46-.59.37-1-.17-1.95-.34-2.93-.49-.28 0-.34-.15-.3-.38.4-2.36.79-4.72 1.19-7.07zM220.34 265q-.59 3.46-1.16 6.95c-.07.38-.08.38-.52.31l-3-.5c-.27 0-.32-.14-.29-.36.36-2.07.7-4.14 1-6.2.13-.82.27-1.63.41-2.44 0-.08.06-.18-.06-.22s-.13.06-.19.11l-6.5 6c-.5.46-1 .9-1.48 1.37a2.34 2.34 0 0 1-3.35-.6c-1.59-3-3.25-6.05-4.88-9.07-.1-.17-.19-.34-.28-.51s-.05-.14-.13-.14-.1.1-.11.17 0 .27-.06.4c-.46 2.73-.91 5.46-1.37 8.19-.06.38-.07.37-.51.3-1-.18-2-.35-3-.5-.3 0-.4-.13-.35-.41q1.16-6.86 2.3-13.71a1.52 1.52 0 0 1 1.5-1.37 2.24 2.24 0 0 1 2.21 1c1.11 2 2.2 4 3.3 6l3.44 6.31c.14.27.24.14.37 0l2.95-2.7c2.42-2.2 4.85-4.39 7.24-6.63a2.4 2.4 0 0 1 3.17 0 1.32 1.32 0 0 1 .45 1.21c-.4 2.31-.78 4.61-1.16 6.92zM253.49 270.64c.38-2.24.75-4.47 1.13-6.7a1.6 1.6 0 0 1 1.91-1.29c.72.09 1.45.23 2.17.35 2.37.39 4.75.78 7.13 1.19a12.61 12.61 0 0 1 6.36 3 6.88 6.88 0 0 1 2.51 6.52q-.6 3.66-1.22 7.32c-.07.41-.08.41-.53.34-1-.17-2-.34-3-.49-.29 0-.37-.15-.32-.4.19-1 .35-2.08.53-3.12.05-.27 0-.4-.34-.45l-12.77-2.14c-.28-.05-.36 0-.4.28-.16 1-.35 2.08-.51 3.12-.05.3-.17.38-.5.31-1-.18-2-.34-3-.5-.32 0-.44-.14-.38-.45.39-2.28.77-4.57 1.15-6.85zM264 273l6.37 1.07c.3 0 .43 0 .46-.28s.08-.52.12-.78a4.27 4.27 0 0 0-1.54-4.2 8.48 8.48 0 0 0-4-1.85c-2.25-.43-4.52-.78-6.77-1.17-.34-.06-.36.12-.4.33q-.44 2.69-.9 5.37c0 .29 0 .4.36.46zM191.25 260.22c-.38 2.28-.77 4.57-1.14 6.85-.05.3-.16.38-.49.32-1-.19-2-.35-3-.51-.29 0-.36-.14-.32-.4.19-1 .35-2.08.54-3.11.05-.3 0-.41-.37-.46l-12.67-2.12c-.31-.05-.44 0-.48.3-.16 1-.35 2.05-.5 3.09 0 .3-.17.37-.5.31-1-.18-1.95-.33-2.93-.5-.43-.07-.43-.07-.36-.47q.62-3.74 1.25-7.47a6.55 6.55 0 0 1 3.37-4.67 11.55 11.55 0 0 1 7-1.39c1.85.16 3.67.57 5.51.87 1.55.24 3.1.51 4.65.77a1.91 1.91 0 0 1 1.59 1.37 1.24 1.24 0 0 1 0 .47l-1.14 6.79zm-10.67-1.14c2.11.35 4.22.7 6.33 1.07.32.05.44 0 .48-.29.3-1.81.6-3.63.91-5.44 0-.26 0-.37-.33-.42q-3-.48-6-1a11.11 11.11 0 0 0-3.77 0 4.85 4.85 0 0 0-3.81 2.54 7.49 7.49 0 0 0-.52 2c-.07.4-.07.41.4.48zM153 261.25l-7-1.17c-.49-.08-.49-.08-.42-.5.25-1.48.5-3 .74-4.45.05-.28.15-.39.49-.32.84.16 1.68.29 2.52.42.31.05.41.17.35.45-.12.58-.2 1.17-.31 1.76 0 .23 0 .33.31.38l7 1.15c1 .17 2 .36 3.06.54a4.41 4.41 0 0 0 .73.08 1.08 1.08 0 0 0 1.24-.95q.94-5.58 1.86-11.15c0-.3.15-.4.51-.33 1 .18 2 .35 3 .5.3.05.38.15.33.42-.64 3.78-1.26 7.55-1.9 11.33a3.93 3.93 0 0 1-3.34 2.92 7.76 7.76 0 0 1-2.76 0l-6.41-1.08z" transform="translate(-.98 -.52)"/><path class="b35fad50-7aa0-46b4-b35a-c444a75df692" d="m264 273-6.33-1c-.34-.06-.41-.17-.36-.46q.47-2.68.9-5.37c0-.21.06-.39.4-.33 2.25.39 4.52.74 6.77 1.17a8.48 8.48 0 0 1 4 1.85 4.27 4.27 0 0 1 1.54 4.2c0 .26-.1.52-.12.78s-.16.33-.46.28zM180.58 259.08l-6.3-1.06c-.47-.07-.47-.08-.4-.48a7.49 7.49 0 0 1 .52-2 4.85 4.85 0 0 1 3.81-2.54 11.11 11.11 0 0 1 3.77 0q3 .51 6 1c.31.05.38.16.33.42-.31 1.81-.61 3.63-.91 5.44 0 .29-.16.34-.48.29-2.11-.37-4.22-.72-6.33-1.07z" transform="translate(-.98 -.52)"/></g><g id="b8730b20-7786-490d-a676-c83a1a3f0984" data-name="bd003424-128a-49fb-aad9-f747c7881cf8"><path class="eb2d4fc9-235c-41da-b42e-2d6c5661b909" d="m119.53 108.23 48.9 7.65 22.57 3.48 83.41 13a18.07 18.07 0 0 1 6.13 1.85l.38.32c4.3 2.69 6.6 7.63 5.53 11.91s-5.09 6.87-9.87 6.23l-166.37-26.1c-6.43-1-11.1-6.13-10.76-11.94A8.1 8.1 0 0 1 105 107a9.56 9.56 0 0 1 1.8-.35 19.12 19.12 0 0 1 4.5.33zm117.13 28.38v3.69a3.28 3.28 0 0 0 .87 2.19c2.25 2.55 10.38 3.83 12.69 2 1.13-.9 1-3.87 1-3.87l-2.73-.43c-.05 0-2.27-.36-2.06 1.45.18 1.64-1.28 1.44-2.47 1.25s-2.44-.38-2.42-2.08q.06-3.43 0-6.89c0-1.59 1.13-1.53 2.25-1.36s2.7.31 2.65 2.05l.06 1.11c.48 0 3.91.59 4.39.66l-.09-2.6a4 4 0 0 0-2-1.95 16.59 16.59 0 0 0-9.73-1.54c-1.82.28-2.42 1.21-2.43 3.11v3.23zm30.23-2.61a10.45 10.45 0 0 0-5 0c-2.52.69-2.87 3.15-.7 5.14a21.33 21.33 0 0 0 2.74 2c1.37.91 2.79 1.72 4.14 2.65.76.53 1.51 1.26 1.12 2.14-.46 1-1.64.77-2.62.56s-2.07-.3-2.1-1.49v-1.24l-3.13-.49s-2.07.21-1.37 1.89a3.41 3.41 0 0 0 1.51 1.76 14.76 14.76 0 0 0 11 1.73c2.14-.59 2.32-2.9.57-4.73a18 18 0 0 0-3.88-2.75 20.61 20.61 0 0 1-3.68-2.44c-.69-.64-1.12-1.41-.58-2.09s1.69-.52 2.65-.28 1.79.5 1.83 1.61c0 .73 1 1 1 1 .64.06 1.92.27 1.92.27l1.84.29a7.36 7.36 0 0 0-.66-2.44 5.51 5.51 0 0 0-2.22-1.78 13.37 13.37 0 0 0-4.47-1.22z" transform="translate(-.98 -.52)"/><path d="m171.6 133.47-2.54-.37-2.07-.33-1.26-3-5.29-.83-1.28 2.56-4.35-.7.16-.38c1.5-4.19 3-8.36 4.49-12.54l.16-.5 3.49.57 3.38.5 2 5.49 3 9.09zm-10.87-6.37 4.46.7-2.06-6.75h-.33zM112.15 117c0-1.06.06-2.12 0-3.18a2.55 2.55 0 0 1 2.28-2.91 16 16 0 0 1 9.86 1.57 3.88 3.88 0 0 1 1.85 2.32 10.93 10.93 0 0 1 .24 2.12l-4.57-.69v-1.09c.07-1.72-1.41-1.84-2.58-2s-2.25-.22-2.23 1.35v6.82c0 1.67 1.22 1.88 2.36 2.06s2.6.38 2.43-1.24v-1.79l4.71.71v.35a4.89 4.89 0 0 1-1.05 3.55c-2.28 1.82-10.28.57-12.47-1.95a3.25 3.25 0 0 1-.83-2.34c.02-1.18-.01-2.4 0-3.66zm124.66 19.61v-3.21c0-1.9.6-2.83 2.42-3.12a16.58 16.58 0 0 1 9.73 1.54 4.28 4.28 0 0 1 1.63 1.29 3.88 3.88 0 0 1 .41.67 3 3 0 0 1 .2 1.28 7.2 7.2 0 0 1-.12 1.32l-4.38-.66-.07-1.11c0-1.75-1.46-1.87-2.65-2.05s-2.29-.23-2.24 1.36c.06 2.3.06 4.6 0 6.89 0 1.69 1.27 1.89 2.43 2.08s2.64.39 2.45-1.25v-1.8c.05 0 2.19.36 2.24.38l2.57.4s.38 2.78-1 3.87c-2.32 1.82-10.44.57-12.69-2a3.18 3.18 0 0 1-.86-2.19c0-1.25-.05-2.48-.05-3.71zM185.6 136a12.44 12.44 0 0 1-4.89-1.46 3.69 3.69 0 0 1-2.19-3.36v-.92l4.58.77v.68a1.52 1.52 0 0 0 1.08 1.75c1.18.45 2.38.74 3.33.15s.39-1.43-.29-2.11a17.86 17.86 0 0 0-3.59-2.46 18 18 0 0 1-3.82-2.7c-1.88-1.92-1.65-4.27.66-4.85a14.29 14.29 0 0 1 10.46 1.63 3.78 3.78 0 0 1 1.9 3.37v.3l-4.77-.78V125c-.16-1.24-1.35-1.34-2.26-1.49s-1.92-.34-2.24.66.45 1.7 1.27 2.24c1.19.82 2.43 1.58 3.67 2.34a15.69 15.69 0 0 1 3.11 2.27c1.88 1.93 1.58 4.11-.67 4.87a10.63 10.63 0 0 1-5.35 0zm22 3.5a15.94 15.94 0 0 1-3.94-1 7.13 7.13 0 0 1-2.68-2 3.19 3.19 0 0 1-.61-2.39v-.32l4.74.68v1.06c-.07 1.21 1 1.45 1.9 1.65 1 .24 2.26.57 2.79-.48s-.36-1.69-1.16-2.22c-1.67-1.14-3.4-2.14-5.08-3.27s-3.3-2.26-3-4.33 2.13-2.3 4-2.31a18.57 18.57 0 0 1 6.94 1.23c1.94.74 3.1 2.05 3.24 3.45a6.86 6.86 0 0 1 0 1l-4.73-.73v-1c-.17-1.22-1.39-1.3-2.3-1.45s-1.82-.29-2.17.58.34 1.71 1.16 2.26c1.63 1.1 3.33 2.08 5 3.18s3.44 2.25 3.08 4.43-2.29 2.23-4.13 2.29a25.92 25.92 0 0 1-3-.28zm59.4-5.56a13.63 13.63 0 0 1 4.47 1.2 5.53 5.53 0 0 1 2.22 1.79 3.18 3.18 0 0 1 .66 2.43l-4.79-.68v-.82c-.2-1.32-1-1.39-1.83-1.61s-2-.46-2.64.28-.12 1.44.58 2.08a21.28 21.28 0 0 0 3.67 2.44 18.39 18.39 0 0 1 3.88 2.76c1.75 1.83 1.59 4.13-.57 4.72a14.62 14.62 0 0 1-11-1.71A3.46 3.46 0 0 1 260 145a5.3 5.3 0 0 1-.11-1.18 4.5 4.5 0 0 1 .09-.9l4.65.73v1.23c0 1.19 1.24 1.31 2.09 1.49s2.15.48 2.63-.56c.39-.88-.36-1.62-1.12-2.14-1.35-.93-2.77-1.74-4.14-2.65a21.33 21.33 0 0 1-2.74-2c-2.15-2-1.82-4.44.7-5.15a10.76 10.76 0 0 1 4.95.07zm-131.5-13.25v-7.17l4.93.77-.09 11.07v1.1l6.82 1 1.08.17v2.2l-12.81-2v-1.1zm92.57 14.45v7.26l-5-.79V127.17l5 .78z" transform="translate(-.98 -.52)" style="fill:#fefefe"/><path class="eb2d4fc9-235c-41da-b42e-2d6c5661b909" d="m160.73 127.1 2.06-6.08h.32l2.07 6.75z" transform="translate(-.98 -.52)"/><path class="a1dab154-15e1-403c-9f56-c70db954a7bb" d="m98 62.42 40.56 6.16c1 .16 1.48.38 1.42 1.5a57.42 57.42 0 0 0 0 5.87c0 1-.27 1.23-1.3 1.06-4.4-.72-8.82-1.32-13.19-2.07-1.21-.2-1.46.11-1.46 1.21 0 9.75-.11 19.51-.11 29.29 0 1.13-.23 1.53-1.52 1.27-2.4-.49-4.82-.85-7.22-1.12-1.18-.14-1.47-.48-1.45-1.63.11-9.8.13-19.61.25-29.39 0-1.25-.33-1.62-1.62-1.8-4.8-.68-9.6-1.47-14.39-2.24zm167.84 68.3c-2.57.22-5.2-.74-7.79-.93-.43-.65-1.12-.62-1.72-.83a32.61 32.61 0 0 1-14-9.64c-8.36-9.9-8-22.35.85-29.07 9.7-7.41 25.93-5.48 36.41 4.34 12.51 11.75 11.05 28.74-3 34.42a22.89 22.89 0 0 1-10.68 1.71zM262 93.45c-8.77-1.34-15.58 4.13-15.52 12.45 0 8.14 6.89 15.85 15.43 17.22h.32c8.81 1.34 15.61-4.13 15.53-12.5S270.8 94.77 262 93.45zm-46.67-13.14 19.87 3c1.07.16 1.49.42 1.43 1.52-.09 2-.08 3.94 0 5.92.06 1.06-.32 1.22-1.34 1-4.4-.72-8.81-1.32-13.21-2.07-1.2-.18-1.58 0-1.57 1.23.09 9.83.05 19.66.14 29.52 0 1.2-.3 1.49-1.55 1.25-2.49-.49-5-.87-7.49-1.16-1.09-.14-1.27-.53-1.28-1.48V89.25c0-1.16-.24-1.59-1.54-1.77-4.39-.58-8.78-1.34-13.16-2-1.11-.17-1.61-.39-1.52-1.6a52.12 52.12 0 0 0 0-5.59c-.06-1.05.24-1.32 1.37-1.13 6.57 1 13.18 2 19.82 3z" transform="translate(-.98 -.52)"/><path class="ae8836d3-5401-476a-94fc-6f34dc6fc5c5" d="M180.13 115.33c-.41 0-.82-.06-1.23-.13-8.34-1.29-16.66-2.6-25-3.85-1.19-.19-1.6-.5-1.6-1.73 0-8.12 1.26-15.78 4.92-22.61a19.42 19.42 0 0 1 4.35-5.59c.43-.37.76-.75 1.24.19q8.63 16.64 17.33 33.36a.8.8 0 0 1 0 .36z" transform="translate(-.98 -.52)"/><path class="ae8836d3-5401-476a-94fc-6f34dc6fc5c5" d="m127.7 107.51 26.17-41.94 6.31 11.23c4.45-2.63 8.56-5.7 14.28-6a59.63 59.63 0 0 0-12.35 9.73 7.18 7.18 0 0 1-1.25-2.29c-.42-1-.79-1-1.56-.52a34.14 34.14 0 0 0-8.36 8.51 51 51 0 0 0-8.94 22.38c-.08.53 0 1.13-.88 1-4.42-.72-8.81-1.39-13.42-2.1z" transform="translate(-.98 -.52)"/><path class="a1dab154-15e1-403c-9f56-c70db954a7bb" d="M181.16 95.28v-18.6c0-1 .22-1.35 1.36-1.14 2.58.49 5.17.85 7.75 1.19.91.11 1.29.32 1.26 1.32v37.9c0 .86-.23 1.1-1.15.94-2.69-.48-5.39-.91-8.08-1.26-1.06-.13-1.18-.54-1.18-1.4v-19z" transform="translate(-.98 -.52)"/><path class="ae8836d3-5401-476a-94fc-6f34dc6fc5c5" d="M178 63.76c-.1-4.21 3.36-7.16 7.74-6.6a9.4 9.4 0 0 1 8.14 8.63c.12 4.21-3.36 7.21-7.75 6.61h-.22c-4.32-.66-7.85-4.51-7.91-8.64z" transform="translate(-.98 -.52)"/></g></svg>