<svg xmlns="http://www.w3.org/2000/svg" xmlns:xlink="http://www.w3.org/1999/xlink" viewBox="0 0 470.58 67.66"><defs><style>.baa4905c-0659-44e9-b8d0-4d396d868acc{stroke:#9def48;stroke-miterlimit:10;fill:url(#b7a9b48e-4b5d-4c34-91ee-248d7c4ccbbf);}.ac230c66-0d39-487c-8fd5-28b51808c9b8{fill:#9def48;}.bf087b66-7991-41b6-8001-210154c20c2f{fill:#fff;}.eb940914-d08c-48d7-9541-c134233ff2f1{fill:#037cce;}</style><linearGradient id="b7a9b48e-4b5d-4c34-91ee-248d7c4ccbbf" x1="0.5" y1="33.83" x2="470.08" y2="33.83" gradientUnits="userSpaceOnUse"><stop offset="0" stop-color="#032c02"/><stop offset="1" stop-color="#207a09"/></linearGradient></defs><g id="bb6901ec-55e8-47e5-9248-4a8746a4da8b" data-name="texte"><polygon class="baa4905c-0659-44e9-b8d0-4d396d868acc" points="0.5 6.04 102.57 6.04 108.7 0.5 150.44 0.5 158.35 6.04 461.77 6.24 470.08 16.13 470.08 59.84 50.94 59.84 42.83 67.16 8.02 67.16 0.5 59.84 0.5 6.04"/><path class="ac230c66-0d39-487c-8fd5-28b51808c9b8" d="M80.32,37.43h4.37A17.11,17.11,0,0,1,81,44.73H56.87a18.22,18.22,0,0,1-4.22-12.25,18.25,18.25,0,0,1,4.22-12.26H81a17.11,17.11,0,0,1,3.67,7.3H80.32a18.89,18.89,0,0,0-1.47-3.23H59.06a16.33,16.33,0,0,0-2.34,8.19,16.37,16.37,0,0,0,2.34,8.18H78.85A19.62,19.62,0,0,0,80.32,37.43Z"/><path class="ac230c66-0d39-487c-8fd5-28b51808c9b8" d="M93,40.66h18.43l2.34,4.07H89v-21L93,19.63Z"/><path class="ac230c66-0d39-487c-8fd5-28b51808c9b8" d="M125.73,37.91l-4.29,6.82h-5.08l15.57-24.51h4.68l15.45,24.51h-5l-4.23-6.82Zm14.56-4-6-9.59-6,9.59Z"/><path class="ac230c66-0d39-487c-8fd5-28b51808c9b8" d="M183.66,30.44l1.85,2a18.12,18.12,0,0,1-4.23,12.25H157.14a17.13,17.13,0,0,1-3.68-7.3h4.38a18.61,18.61,0,0,0,1.48,3.23h19.79a16.86,16.86,0,0,0,2.19-6.17H154.76l-1.84-2a18.2,18.2,0,0,1,4.22-12.26h24.14a17.13,17.13,0,0,1,3.68,7.3h-4.38a17.47,17.47,0,0,0-1.47-3.23H159.32a17.49,17.49,0,0,0-2.2,6.15Z"/><path class="ac230c66-0d39-487c-8fd5-28b51808c9b8" d="M219.67,30.44l1.84,2a18.12,18.12,0,0,1-4.22,12.25H193.14a17.11,17.11,0,0,1-3.67-7.3h4.38a18.61,18.61,0,0,0,1.48,3.23h19.79a16.86,16.86,0,0,0,2.19-6.17H190.77l-1.85-2a18.25,18.25,0,0,1,4.22-12.26h24.15a17.13,17.13,0,0,1,3.68,7.3h-4.38a17.47,17.47,0,0,0-1.47-3.23H195.33a17.3,17.3,0,0,0-2.2,6.15Z"/><path class="ac230c66-0d39-487c-8fd5-28b51808c9b8" d="M230.71,44.73h-4.07v-21l4.07-4.06Z"/><path class="ac230c66-0d39-487c-8fd5-28b51808c9b8" d="M263.5,37.43h4.38a17.13,17.13,0,0,1-3.68,7.3H240.06a18.17,18.17,0,0,1-4.22-12.25,18.2,18.2,0,0,1,4.22-12.26H264.2a17.13,17.13,0,0,1,3.68,7.3H263.5A17.47,17.47,0,0,0,262,24.29H242.24a16.33,16.33,0,0,0-2.34,8.19,16.37,16.37,0,0,0,2.34,8.18H262A18.09,18.09,0,0,0,263.5,37.43Z"/><path class="ac230c66-0d39-487c-8fd5-28b51808c9b8" d="M302,30.44l1.85,2a18.17,18.17,0,0,1-4.22,12.25H275.52a17.13,17.13,0,0,1-3.68-7.3h4.38a18.61,18.61,0,0,0,1.48,3.23h19.8a17,17,0,0,0,2.18-6.17H273.14l-1.84-2a18.2,18.2,0,0,1,4.22-12.26h24.15a17.11,17.11,0,0,1,3.67,7.3H299a18.09,18.09,0,0,0-1.46-3.23H277.7a17.49,17.49,0,0,0-2.2,6.15Z"/></g><g id="a113654b-95b5-47be-9045-cc1c087758f7" data-name="taito"><path class="bf087b66-7991-41b6-8001-210154c20c2f" d="M21.41,66.07q0-6.34,0-12.69c0-.32.05-.46.42-.44.63,0,1.27,0,1.91,0,.32,0,.41.08.4.4,0,1.37,0,2.75,0,4.12,0,.37.11.45.46.45,3.17,0,6.33,0,9.49,0,.37,0,.5.07.49.47a21.11,21.11,0,0,0,0,2.25c0,.37-.08.46-.46.46-3.17,0-6.35,0-9.53,0-.41,0-.51.11-.5.51,0,1.5,0,3,0,4.51Zm13.7-52a14.54,14.54,0,0,1,.09,2.38c-.19.13-.15.34-.18.52a8,8,0,0,1-2.39,4.28A6.56,6.56,0,0,1,23.25,21a8.59,8.59,0,0,1-.4-11.17,6.69,6.69,0,0,1,11.18,1,7.58,7.58,0,0,1,1.08,3.27ZM23.35,15.2a4.76,4.76,0,0,0,9.52.08v-.1a4.76,4.76,0,1,0-9.52,0ZM21.41,29.54c0-2,0-4.08,0-6.12,0-.33.06-.46.42-.44.64,0,1.28,0,1.91,0,.34,0,.41.1.4.42,0,1.35,0,2.71,0,4.06,0,.37.08.49.47.49,3.16,0,6.33,0,9.49,0,.38,0,.49.09.47.47,0,.77,0,1.54,0,2.31,0,.33-.1.39-.41.39-3.19,0-6.39,0-9.58,0-.37,0-.5.08-.49.48,0,1.35,0,2.71,0,4.06,0,.35,0,.5-.44.47q-.9,0-1.8,0c-.34,0-.44-.07-.44-.42,0-2,0-4.08,0-6.13Z"/><path class="eb940914-d08c-48d7-9541-c134233ff2f1" d="M34.44,40.42c0,.13,0,.25,0,.38,0,2.58,0,5.16,0,7.74,0,.37-.08.49-.48.49a17,17,0,0,1-7.54-1.5,7.9,7.9,0,0,1-2-1.35c-.14-.13-.28-.23,0-.38l9.9-5.39a.26.26,0,0,1,.12,0Z"/><path class="eb940914-d08c-48d7-9541-c134233ff2f1" d="M34.54,56.68,19.67,48.6l3.33-2c-1.08-1.38-2.27-2.66-2.64-4.44A23.49,23.49,0,0,0,24.12,46a2,2,0,0,1-.68.39c-.29.14-.3.25-.09.49a13.62,13.62,0,0,0,3.17,2.59,19.6,19.6,0,0,0,7.66,2.75c.18,0,.37,0,.37.27C34.54,53.88,34.54,55.25,34.54,56.68Z"/><path class="bf087b66-7991-41b6-8001-210154c20c2f" d="M27.93,40.11c-2,0-4,0-6,0-.33,0-.45-.07-.43-.43,0-.79,0-1.6,0-2.39,0-.29,0-.4.36-.4H34.07c.28,0,.37.07.36.36q0,1.25,0,2.49c0,.33-.11.37-.39.37-2,0-4.07,0-6.11,0Z"/><path class="eb940914-d08c-48d7-9541-c134233ff2f1" d="M17.89,41.1a2.47,2.47,0,1,1,2.4-2.53v.07A2.44,2.44,0,0,1,17.89,41.1Z"/></g></svg>