<svg id="b1090b27-0718-4365-a7e0-a0c062077b96" data-name="Calque 1" xmlns="http://www.w3.org/2000/svg" xmlns:xlink="http://www.w3.org/1999/xlink" viewBox="0 0 470.58 67.66"><defs><style>.b196e72e-1c3e-4247-b8a6-ebadd9b3c5dc{stroke:#9def48;stroke-miterlimit:10;fill:url(#ed53ce4e-494b-4d75-b6c4-e6597f36e395);}.e410b0f0-18b9-464f-a2c5-4014c306f305{fill:#9def48;}</style><linearGradient id="ed53ce4e-494b-4d75-b6c4-e6597f36e395" x1="0.5" y1="33.83" x2="470.08" y2="33.83" gradientUnits="userSpaceOnUse"><stop offset="0" stop-color="#032c02"/><stop offset="1" stop-color="#207a09"/></linearGradient></defs><polygon class="b196e72e-1c3e-4247-b8a6-ebadd9b3c5dc" points="461.77 6.24 158.35 6.04 150.44 0.5 108.7 0.5 102.57 6.04 0.5 6.04 0.5 59.84 8.02 67.16 42.83 67.16 50.94 59.84 470.08 59.84 470.08 16.13 461.77 6.24"/><path class="e410b0f0-18b9-464f-a2c5-4014c306f305" d="M66.73,47.64H60.86a21.13,21.13,0,0,1-5-12.28H51.28V30.5H55.9a21.08,21.08,0,0,1,5-12.27H90.45l-2.81,4.88H63.49a21,21,0,0,0-2.65,7.39h20.3v4.86H60.84a21.06,21.06,0,0,0,2.65,7.4h3.24Z" transform="translate(0 0)"/><path class="e410b0f0-18b9-464f-a2c5-4014c306f305" d="M92.46,39.46l-5.14,8.18h-6.1L99.91,18.23h5.62l18.54,29.41h-6L113,39.46Zm17.48-4.86-7.18-11.51L95.52,34.6Z" transform="translate(0 0)"/><path class="e410b0f0-18b9-464f-a2c5-4014c306f305" d="M159.73,18.23,141.17,47.64h-5.62L116.89,18.23H123l15.44,24.55,15.3-24.55Z" transform="translate(0 0)"/><path class="e410b0f0-18b9-464f-a2c5-4014c306f305" d="M194.8,47.64h-29a21.82,21.82,0,0,1-5.07-14.7,21.79,21.79,0,0,1,5.07-14.71h29a21.84,21.84,0,0,1,5.06,14.71A21.86,21.86,0,0,1,194.8,47.64Zm-2.61-4.88A19.78,19.78,0,0,0,195,32.94a19.73,19.73,0,0,0-2.79-9.83H168.44a19.66,19.66,0,0,0-2.81,9.83,19.71,19.71,0,0,0,2.81,9.82Z" transform="translate(0 0)"/><path class="e410b0f0-18b9-464f-a2c5-4014c306f305" d="M236.65,42.76h3.26a21.21,21.21,0,0,0,2.63-7.4h-29a21.06,21.06,0,0,0,2.65,7.4h3.24v4.88h-5.87a21.13,21.13,0,0,1-5-12.28H204V30.5h4.62a21.08,21.08,0,0,1,5-12.27h29a21.08,21.08,0,0,1,5,12.29l-2.11,1.19v2.46l2.11,1.19a21.13,21.13,0,0,1-5,12.28h-5.87ZM213.52,30.5h29a21.09,21.09,0,0,0-2.63-7.39H216.17A21,21,0,0,0,213.52,30.5Z" transform="translate(0 0)"/><path class="e410b0f0-18b9-464f-a2c5-4014c306f305" d="M258.51,47.64h-4.88V22.4l4.88-4.88Z" transform="translate(0 0)"/><path class="e410b0f0-18b9-464f-a2c5-4014c306f305" d="M285.5,43.48l-4.88,4.88V23.11H264.67V18.23h36.79v4.88h-16Z" transform="translate(0 0)"/><path class="e410b0f0-18b9-464f-a2c5-4014c306f305" d="M331.83,35.36h-20.3a20.84,20.84,0,0,0,2.64,7.4h24.16l2.81,4.88H311.55a21.14,21.14,0,0,1-5-12.28H302V30.5h4.61a21.09,21.09,0,0,1,5-12.27h29.59l-2.81,4.88H314.17a20.73,20.73,0,0,0-2.64,7.39h20.3Z" transform="translate(0 0)"/><path class="e410b0f0-18b9-464f-a2c5-4014c306f305" d="M380.08,30.5l2.22,2.44a21.79,21.79,0,0,1-5.07,14.7h-29a20.55,20.55,0,0,1-4.41-8.76h5.25a22.38,22.38,0,0,0,1.78,3.88h23.75a20.47,20.47,0,0,0,2.62-7.4H345.41l-2.22-2.42a21.85,21.85,0,0,1,5.07-14.71h29A20.55,20.55,0,0,1,381.64,27h-5.25a21.86,21.86,0,0,0-1.76-3.88H350.88a20.73,20.73,0,0,0-2.64,7.39Z" transform="translate(0 0)"/></svg>