<?xml version="1.0" encoding="utf-8"?>
<!-- Generator: Adobe Illustrator 24.1.2, SVG Export Plug-In . SVG Version: 6.00 Build 0)  -->
<svg version="1.1" id="Calque_1" xmlns="http://www.w3.org/2000/svg" xmlns:xlink="http://www.w3.org/1999/xlink" x="0px" y="0px"
	 viewBox="0 0 431.6 257.9" style="enable-background:new 0 0 431.6 257.9;" xml:space="preserve">
<style type="text/css">
	.st0{fill:url(#SVGID_1_);}
	.st1{fill:#576169;}
	.st2{fill:#15191E;}
	.st3{fill:#717175;}
	.st4{fill:#4A4A48;}
	.st5{fill:#C13639;}
	.st6{fill:#2B3947;}
	.st7{fill:#727373;}
	.st8{fill:#908F90;}
	.st9{fill:#485155;}
	.st10{fill:#2C2E2B;}
	.st11{fill:#343532;}
	.st12{fill:#6F7078;}
	.st13{fill:#61615E;}
	.st14{fill:#B81F14;}
</style>
<linearGradient id="SVGID_1_" gradientUnits="userSpaceOnUse" x1="215.812" y1="2.13" x2="215.812" y2="54.48" gradientTransform="matrix(1 0 0 -1 0 260)">
	<stop  offset="0" style="stop-color:#444C4F"/>
	<stop  offset="1" style="stop-color:#566067"/>
</linearGradient>
<path class="st0" d="M431.6,205.5v5.9v14.4c0,0-1.5,10.8-6.6,15.9c-5.1,5.1-18.1,7.4-18.1,7.4l-52.8,4.3l-93.3,4.4h-89.3l-74.4-3.2
	l-69-5.2c0,0-28.1-1.2-28.1-22.8v-21c17,1.9,59.6,5.8,115.1,5.7c1,0.3,1.9,0.3,1.9,0.3l62.3,1h73.3c0,0,54.1-1.1,61.9-1.1
	c1.1,0,1.9-0.1,2.7-0.4C374.4,211.4,416.5,207.2,431.6,205.5L431.6,205.5z"/>
<g>
	<path class="st1" d="M431.6,8.9c0-4.1-2.7-4.3-7-5.5C420.3,2.1,395.1,0,395.1,0H36.6c0,0-13.3,0.9-24.8,2C0.3,3.2,0,8.2,0,8.2v12.7
		c0,0,0,129.3,0,184v0.9c17,1.9,59.6,5.8,115,5.7l0,0c-1.7-0.5-3.9-1.7-3.9-5.1c0-5.5,0-191.9,0-191.9s-0.1-5.5,4.6-5.5
		c4.7,0,100.2,0,100.2,0h100.5c0,0,4.8-0.6,4.8,4.7c0,5.3,0,190.3,0,190.3s0.8,5.8-4,7.3h0c57.3,0.1,99.4-4,114.5-5.7L431.6,8.9
		L431.6,8.9z"/>
	<path class="st2" d="M314.4,211.6c-7.7,0-61.9,1.1-61.9,1.1h0C252.5,212.7,306.7,211.6,314.4,211.6c1.1,0,2-0.1,2.8-0.4
		c0,0,0,0-0.1,0C316.3,211.5,315.4,211.6,314.4,211.6z"/>
	<path class="st2" d="M115.1,211.4C115,211.4,115,211.4,115.1,211.4c1,0.3,1.8,0.3,1.8,0.3l62.3,1h0l-62.3-1
		C116.9,211.7,116.1,211.7,115.1,211.4z"/>
	<path class="st2" d="M321.2,203.9c0,0,0-185,0-190.3c0-5.3-4.8-4.7-4.8-4.7H215.9c0,0-95.5,0-100.2,0c-4.7,0-4.6,5.5-4.6,5.5
		s0,186.4,0,191.9c0,3.4,2.2,4.7,3.9,5.1l0,0c0,0,0,0,0.1,0c1,0.3,1.9,0.3,1.9,0.3l62.3,1h73.3c0,0,54.1-1.1,61.9-1.1
		c1.1,0,1.9-0.1,2.7-0.4c0,0,0,0,0.1,0h0C321.9,209.6,321.2,203.9,321.2,203.9z M305,191H126.5V22.7H305V191z"/>
</g>
<path class="st3" d="M89.4,30.5c0,4.3-3.5,7.8-7.8,7.8c-3.9,0-7.1-2.8-7.7-6.5l-16.5,0c0,0.6-0.1,1.2-0.3,1.8
	c-0.4,2.4-2.5,4.5-4.3,4.5c-4.7,0-26.4,0-26.4,0s-3.9,0.3-5-5c-0.5-2.5,0-5.8,0-5.8s1.2-4,5-4.4h25.4c0,0,4.3,0,5.4,5.5
	c0.1,0.3,0.1,0.5,0.1,0.8l16.5,0c0.6-3.7,3.8-6.5,7.7-6.5C85.9,22.7,89.4,26.2,89.4,30.5z"/>
<path class="st4" d="M28.7,25.4h20.9c0,0,3.6,0,4.4,3.7c0.3,1,0.2,2.1-0.1,3.5c-0.3,1.6-2.1,3-3.5,3c-3.8,0-21.8,0-21.8,0
	s-3.2,0.2-4.1-3.4c-0.5-1.7,0-3.8,0-3.8S25.5,25.7,28.7,25.4z"/>
<circle class="st5" cx="81.5" cy="30.5" r="5.7"/>
<circle class="st6" cx="357.6" cy="114.5" r="17.3"/>
<circle class="st6" cx="400.7" cy="82.7" r="17"/>
<path class="st7" d="M344.9,161.7c0-2.1,1.7-3.8,3.8-3.8s3.8,1.7,3.8,3.8s-1.7,3.8-3.8,3.8S344.9,163.7,344.9,161.7z M348.6,197.7
	c2.1,0,3.8-1.7,3.8-3.8s-1.7-3.8-3.8-3.8s-3.8,1.7-3.8,3.8S346.5,197.7,348.6,197.7z M348.6,222.2c-2.1,0-3.8,1.7-3.8,3.8
	c0,2.1,1.7,3.7,3.8,3.7s3.8-1.7,3.8-3.7C352.4,223.8,350.7,222.2,348.6,222.2z M375.9,162.7c2.1,0,3.8-1.7,3.8-3.8s-1.7-3.8-3.8-3.8
	s-3.8,1.7-3.8,3.8S373.8,162.7,375.9,162.7z M375.9,194.9c2.1,0,3.8-1.7,3.8-3.8s-1.7-3.8-3.8-3.8s-3.8,1.7-3.8,3.8
	S373.8,194.9,375.9,194.9z M375.9,219.4c-2.1,0-3.8,1.7-3.8,3.7c0,2.1,1.7,3.8,3.8,3.8s3.8-1.7,3.8-3.8
	C379.6,221.1,377.9,219.4,375.9,219.4z M403.2,160.7c2.1,0,3.8-1.7,3.8-3.8s-1.7-3.8-3.8-3.8s-3.8,1.7-3.8,3.8
	S401.2,160.7,403.2,160.7z M403.2,192.9c2.1,0,3.8-1.7,3.8-3.8s-1.7-3.8-3.8-3.8s-3.8,1.7-3.8,3.8S401.2,192.9,403.2,192.9z
	 M403.2,217.4c-2.1,0-3.8,1.7-3.8,3.7c0,2.1,1.7,3.8,3.8,3.8c2.1,0,3.7-1.7,3.7-3.8C407,219.1,405.3,217.4,403.2,217.4z"/>
<path class="st2" d="M45.4,177.3c0-1.2,1-2.2,2.2-2.2s2.2,1,2.2,2.2s-1,2.2-2.2,2.2S45.4,178.5,45.4,177.3z M47.6,187
	c1.2,0,2.2-1,2.2-2.2s-1-2.2-2.2-2.2s-2.2,1-2.2,2.2S46.4,187,47.6,187z M47.6,194.5c1.2,0,2.2-1,2.2-2.2s-1-2.2-2.2-2.2
	s-2.2,1-2.2,2.2S46.4,194.5,47.6,194.5z M47.6,201.9c1.2,0,2.2-1,2.2-2.2s-1-2.2-2.2-2.2s-2.2,1-2.2,2.2S46.4,201.9,47.6,201.9z
	 M55.7,179.5c1.2,0,2.2-1,2.2-2.2s-1-2.2-2.2-2.2s-2.2,1-2.2,2.2S54.5,179.5,55.7,179.5z M55.7,187c1.2,0,2.2-1,2.2-2.2
	s-1-2.2-2.2-2.2s-2.2,1-2.2,2.2S54.5,187,55.7,187z M55.7,194.5c1.2,0,2.2-1,2.2-2.2s-1-2.2-2.2-2.2s-2.2,1-2.2,2.2
	S54.5,194.5,55.7,194.5z M55.7,201.9c1.2,0,2.2-1,2.2-2.2s-1-2.2-2.2-2.2s-2.2,1-2.2,2.2S54.5,201.9,55.7,201.9z M64,179.5
	c1.2,0,2.2-1,2.2-2.2s-1-2.2-2.2-2.2s-2.2,1-2.2,2.2S62.8,179.5,64,179.5z M64,187c1.2,0,2.2-1,2.2-2.2s-1-2.2-2.2-2.2
	s-2.2,1-2.2,2.2S62.8,187,64,187z M64,194.5c1.2,0,2.2-1,2.2-2.2s-1-2.2-2.2-2.2s-2.2,1-2.2,2.2S62.8,194.5,64,194.5z M64,201.9
	c1.2,0,2.2-1,2.2-2.2s-1-2.2-2.2-2.2s-2.2,1-2.2,2.2S62.8,201.9,64,201.9z M72.2,179.5c1.2,0,2.2-1,2.2-2.2s-1-2.2-2.2-2.2
	s-2.2,1-2.2,2.2S71,179.5,72.2,179.5z M72.2,187c1.2,0,2.2-1,2.2-2.2s-1-2.2-2.2-2.2s-2.2,1-2.2,2.2S71,187,72.2,187z M72.2,194.5
	c1.2,0,2.2-1,2.2-2.2s-1-2.2-2.2-2.2s-2.2,1-2.2,2.2S71,194.5,72.2,194.5z M72.2,201.9c1.2,0,2.2-1,2.2-2.2s-1-2.2-2.2-2.2
	s-2.2,1-2.2,2.2S71,201.9,72.2,201.9z M80.7,179.5c1.2,0,2.2-1,2.2-2.2s-1-2.2-2.2-2.2c-1.2,0-2.2,1-2.2,2.2S79.5,179.5,80.7,179.5z
	 M80.7,187c1.2,0,2.2-1,2.2-2.2s-1-2.2-2.2-2.2c-1.2,0-2.2,1-2.2,2.2S79.5,187,80.7,187z M80.7,194.5c1.2,0,2.2-1,2.2-2.2
	s-1-2.2-2.2-2.2c-1.2,0-2.2,1-2.2,2.2S79.5,194.5,80.7,194.5z M80.7,201.9c1.2,0,2.2-1,2.2-2.2s-1-2.2-2.2-2.2c-1.2,0-2.2,1-2.2,2.2
	S79.5,201.9,80.7,201.9z"/>
<circle class="st3" cx="404.4" cy="30.6" r="9.4"/>
<circle class="st4" cx="404.4" cy="30.6" r="6.6"/>
<path class="st4" d="M40.5,73.6c-0.8,0.8-1.6,1.6-2.3,2.4l-4.9-4.8c0.8-0.9,1.6-1.7,2.5-2.5L40.5,73.6z M64.1,57.4c-1,0-2,0-3.1,0.1
	v6.9c1-0.1,2-0.1,3.1-0.1c1.1,0,2.3,0.1,3.4,0.2v-6.9C66.4,57.5,65.2,57.4,64.1,57.4z M91.8,68L87,73c0.8,0.7,1.6,1.5,2.4,2.3
	l4.9-4.8C93.6,69.7,92.7,68.8,91.8,68z M105.5,95.8h-6.9c0.1,1,0.1,2,0.1,3.1c0,1.1-0.1,2.3-0.2,3.4h6.9c0.1-1.1,0.1-2.2,0.1-3.4
	C105.6,97.9,105.6,96.9,105.5,95.8z M90,121.9c-0.8,0.8-1.5,1.6-2.3,2.4l4.8,4.9c0.9-0.8,1.7-1.6,2.5-2.5L90,121.9z M64.1,133.5
	c-1.1,0-2.3-0.1-3.4-0.2v6.9c1.1,0.1,2.2,0.1,3.4,0.1c1,0,2.1,0,3.1-0.1v-6.9C66.2,133.5,65.1,133.5,64.1,133.5z M38.8,122.5
	l-4.9,4.8c0.8,0.9,1.7,1.7,2.5,2.5l4.8-4.9C40.3,124.1,39.5,123.3,38.8,122.5z M29.6,95.5h-6.9c-0.1,1.1-0.1,2.2-0.1,3.4
	c0,1,0,2.1,0.1,3.1h6.9c-0.1-1-0.1-2-0.1-3.1C29.5,97.8,29.5,96.6,29.6,95.5z"/>
<path class="st3" d="M29.6,95.5h-6.9c0.8-9.3,4.6-17.8,10.5-24.4l4.9,4.8C33.5,81.3,30.4,88.1,29.6,95.5z M29.6,102h-6.9
	c0.7,9.8,4.8,18.6,11.1,25.3l4.9-4.8C33.7,117,30.3,109.9,29.6,102z M36.4,129.8c6.6,5.9,15,9.8,24.4,10.5v-6.9
	c-7.5-0.7-14.3-3.8-19.6-8.5L36.4,129.8z M61,64.4v-6.9c-9.8,0.7-18.6,4.8-25.3,11.1l4.8,4.9C46,68.5,53.1,65.1,61,64.4z M91.8,68
	c-6.6-5.9-15-9.7-24.4-10.5v6.9c7.5,0.7,14.3,3.8,19.6,8.5L91.8,68z M67.2,133.4v6.9c9.8-0.7,18.6-4.8,25.3-11.1l-4.8-4.9
	C82.2,129.4,75.1,132.7,67.2,133.4L67.2,133.4z M90,121.9l4.9,4.8c5.9-6.6,9.7-15,10.5-24.4h-6.9C97.8,109.8,94.7,116.6,90,121.9z
	 M98.6,95.9h6.9c-0.7-9.8-4.8-18.6-11.1-25.3l-4.9,4.8C94.6,80.8,97.9,87.9,98.6,95.9z"/>
<path class="st8" d="M98.6,95.8c-0.7-7.9-4-15.1-9.1-20.5c-0.8-0.8-1.6-1.6-2.4-2.3c-5.3-4.7-12.1-7.8-19.6-8.5
	c-1.1-0.1-2.2-0.2-3.4-0.2c-1,0-2,0.1-3.1,0.1c-7.9,0.7-15.1,4-20.5,9.2c-0.8,0.8-1.6,1.6-2.3,2.4c-4.7,5.3-7.8,12.1-8.5,19.6
	c-0.1,1.1-0.2,2.2-0.2,3.4c0,1,0,2.1,0.1,3.1c0.7,7.9,4,15.1,9.1,20.5c0.8,0.8,1.6,1.6,2.4,2.3c5.3,4.7,12.1,7.8,19.6,8.5
	c1.1,0.1,2.2,0.2,3.4,0.2c1,0,2.1-0.1,3.1-0.1c7.9-0.7,15.1-4.1,20.6-9.2c0.8-0.8,1.6-1.6,2.3-2.4c4.7-5.3,7.8-12.1,8.5-19.6
	c0.1-1.1,0.2-2.2,0.2-3.4C98.7,97.9,98.7,96.9,98.6,95.8L98.6,95.8z M97.2,102.2c-0.7,7.2-3.7,13.7-8.2,18.8
	c-0.7,0.8-1.5,1.6-2.2,2.3c-5.3,4.9-12.1,8.1-19.7,8.8c-1,0.1-1.9,0.1-2.9,0.1c-1.1,0-2.2,0-3.2-0.1c-7.2-0.7-13.7-3.7-18.8-8.2
	c-0.8-0.7-1.6-1.5-2.3-2.2c-4.9-5.3-8.1-12.1-8.8-19.7c-0.1-1-0.1-1.9-0.1-2.9c0-1.1,0-2.2,0.2-3.2c0.7-7.2,3.7-13.7,8.2-18.8
	c0.7-0.8,1.5-1.6,2.2-2.3c5.3-4.9,12.1-8.1,19.7-8.8c1-0.1,2-0.1,2.9-0.1c1.1,0,2.2,0,3.2,0.2c7.2,0.7,13.7,3.7,18.8,8.2
	c0.8,0.7,1.6,1.5,2.3,2.2c4.9,5.3,8.1,12.1,8.8,19.7c0.1,1,0.1,1.9,0.1,2.9C97.3,100,97.3,101.1,97.2,102.2L97.2,102.2z"/>
<path class="st9" d="M97.3,98.9c0,1.1,0,2.2-0.2,3.2c-0.7,7.2-3.7,13.7-8.2,18.8c-0.7,0.8-1.5,1.6-2.2,2.3
	c-5.3,4.9-12.1,8.1-19.7,8.8c-1,0.1-1.9,0.1-2.9,0.1c-1.1,0-2.2,0-3.2-0.1c-7.2-0.7-13.7-3.7-18.8-8.2c-0.8-0.7-1.6-1.5-2.3-2.2
	c-4.9-5.3-8.1-12.1-8.8-19.7c-0.1-1-0.1-1.9-0.1-2.9c0-1.1,0-2.2,0.2-3.2c0.7-7.2,3.7-13.7,8.2-18.8c0.7-0.8,1.5-1.6,2.2-2.3
	c5.3-4.9,12.1-8.1,19.7-8.8c1-0.1,2-0.1,2.9-0.1c1.1,0,2.2,0,3.2,0.2c7.2,0.7,13.7,3.7,18.8,8.2c0.8,0.7,1.6,1.5,2.3,2.2
	c4.9,5.3,8.1,12.1,8.8,19.7C97.3,96.9,97.3,97.9,97.3,98.9L97.3,98.9z"/>
<circle class="st4" cx="64.1" cy="98.9" r="21.4"/>
<circle class="st10" cx="64.1" cy="98.9" r="17.4"/>
<circle class="st11" cx="64.1" cy="98.9" r="8.8"/>
<path class="st12" d="M245.5,245.1h-5.3l-4.8-4.8l-3.3,3.3v1.5h-4.4V230h4.6v7.7l7.4-7.4h5.7l-7.3,7.3L245.5,245.1z M222.2,230v8.8
	l-8.8-8.8h-4.5v15.1h4v-9.2l9.2,9.2h4.1V230L222.2,230z M206.9,238.3c-0.8-1.6-1.5-2-2.2-2c-0.7,0-11.7,0-11.7,0s-0.5-0.1-0.8-0.6
	c-0.2-0.3-0.1-1.3,0.2-1.7c0.3-0.4,0.8-0.5,1.1-0.5h13.6V230h-15.7c-0.5,0-1,0.2-1.4,0.5c-0.6,0.5-1.4,1.2-1.6,2.1
	c-0.4,1.4-0.5,4.3,0,5.3s2,1.8,2.5,1.8s11.3,0,11.3,0s0.6,0.1,0.8,0.6s0.1,1.4-0.3,1.6c-0.4,0.3-0.5,0.2-1,0.2c-0.4,0-13.7,0-13.7,0
	v3.1h16.9c0,0,2-0.3,2.2-1.7C207.3,242,207.7,239.9,206.9,238.3L206.9,238.3z"/>
<path d="M22.7,11.4c0.5-0.1,1.1-0.1,1.9-0.1c1,0,1.7,0.2,2.1,0.5c0.4,0.3,0.7,0.7,0.7,1.3c0,0.5-0.2,1-0.6,1.3
	c-0.5,0.4-1.4,0.7-2.3,0.7c-0.3,0-0.6,0-0.8-0.1v2.4h-1V11.4z M23.7,14.4c0.2,0,0.5,0.1,0.8,0.1c1.2,0,1.9-0.5,1.9-1.3
	c0-0.8-0.7-1.2-1.8-1.2c-0.4,0-0.7,0-0.9,0.1L23.7,14.4z"/>
<path d="M35.1,14.3c0,2.1-1.6,3.2-3.5,3.2c-2,0-3.4-1.2-3.4-3.1c0-1.9,1.5-3.2,3.5-3.2C33.7,11.3,35.1,12.5,35.1,14.3z M29.2,14.4
	c0,1.3,0.9,2.5,2.4,2.5c1.5,0,2.4-1.1,2.4-2.5c0-1.2-0.8-2.5-2.4-2.5C30,11.9,29.2,13.1,29.2,14.4z"/>
<path d="M37.5,17.4l-1.9-6.1h1l0.9,3.1c0.2,0.8,0.4,1.5,0.6,2.1h0c0.1-0.6,0.4-1.3,0.6-2.1l1-3.1h1l0.9,3.1c0.2,0.7,0.4,1.4,0.5,2.1
	h0c0.2-0.7,0.4-1.3,0.6-2.1l1-3.1h1l-2.1,6.1h-1l-0.9-3.2c-0.2-0.8-0.4-1.4-0.5-2h0c-0.1,0.6-0.3,1.2-0.6,2l-1.1,3.2L37.5,17.4
	L37.5,17.4z"/>
<path d="M49.6,14.6h-2.9v2.2H50v0.7h-4.2v-6.1h4.1V12h-3.1v1.9h2.9V14.6z"/>
<path d="M51.2,11.4c0.5-0.1,1.2-0.1,1.9-0.1c1,0,1.7,0.2,2.2,0.5c0.4,0.3,0.6,0.7,0.6,1.2c0,0.8-0.6,1.3-1.4,1.5v0
	c0.6,0.2,0.9,0.6,1.1,1.2c0.2,0.8,0.4,1.4,0.6,1.7h-1c-0.1-0.2-0.3-0.7-0.5-1.4c-0.2-0.8-0.6-1.2-1.5-1.2h-0.9v2.6h-1V11.4z
	 M52.2,14.2h1c1,0,1.7-0.5,1.7-1.2c0-0.8-0.7-1.1-1.7-1.1c-0.5,0-0.8,0-1,0.1V14.2z"/>
<path d="M357.2,30.2c0,2.1-1.6,3.2-3.5,3.2c-2,0-3.4-1.2-3.4-3.1c0-1.9,1.5-3.2,3.5-3.2C355.9,27.1,357.2,28.4,357.2,30.2z
	 M351.4,30.3c0,1.3,0.9,2.5,2.4,2.5c1.5,0,2.4-1.1,2.4-2.5c0-1.2-0.8-2.5-2.4-2.5C352.2,27.7,351.4,28.9,351.4,30.3z"/>
<path d="M358.5,27.3c0.5-0.1,1.1-0.1,1.9-0.1c1,0,1.7,0.2,2.1,0.5c0.4,0.3,0.7,0.7,0.7,1.3c0,0.5-0.2,1-0.6,1.3
	c-0.5,0.4-1.4,0.7-2.3,0.7c-0.3,0-0.6,0-0.8-0.1v2.4h-1L358.5,27.3L358.5,27.3z M359.4,30.2c0.2,0,0.5,0.1,0.8,0.1
	c1.2,0,1.9-0.5,1.9-1.3c0-0.8-0.7-1.2-1.8-1.2c-0.4,0-0.7,0-0.9,0.1L359.4,30.2L359.4,30.2z"/>
<path d="M365.8,27.9h-2.3v-0.7h5.6v0.7h-2.3v5.4h-1V27.9z"/>
<path d="M370.9,27.2v6.1h-1v-6.1L370.9,27.2z"/>
<path d="M379,30.2c0,2.1-1.6,3.2-3.5,3.2c-2,0-3.4-1.2-3.4-3.1c0-1.9,1.5-3.2,3.5-3.2C377.7,27.1,379,28.4,379,30.2z M373.2,30.3
	c0,1.3,0.9,2.5,2.4,2.5c1.5,0,2.4-1.1,2.4-2.5c0-1.2-0.8-2.5-2.4-2.5C374,27.7,373.2,28.9,373.2,30.3z"/>
<path d="M380.3,33.3v-6.1h1.1l2.4,3.1c0.6,0.7,1,1.4,1.4,2l0,0c-0.1-0.8-0.1-1.5-0.1-2.5v-2.5h0.9v6.1h-1l-2.4-3.1
	c-0.5-0.7-1-1.4-1.4-2l0,0c0.1,0.8,0.1,1.5,0.1,2.5v2.6L380.3,33.3L380.3,33.3z"/>
<path d="M354.6,85.8l-1.3,3.2h-1.7l4.3-10.1h2l4.3,10.1h-1.7l-1.3-3.2H354.6z M358.7,84.8l-1.2-2.9c-0.3-0.7-0.5-1.3-0.6-1.8h0
	c-0.2,0.6-0.4,1.2-0.6,1.8l-1.2,2.9H358.7z"/>
<path d="M396.4,48.3c0.7-0.1,1.8-0.2,3-0.2c1.6,0,2.7,0.2,3.4,0.7c0.6,0.4,1,1,1,1.8c0,1-0.8,1.8-2.1,2.2v0c1.2,0.2,2.6,1,2.6,2.5
	c0,0.9-0.4,1.5-1.1,2c-0.9,0.6-2.3,0.9-4.3,0.9c-1.1,0-2-0.1-2.5-0.1L396.4,48.3L396.4,48.3z M398,52.5h1.5c1.7,0,2.7-0.7,2.7-1.7
	c0-1.2-1.1-1.7-2.8-1.7c-0.7,0-1.2,0-1.4,0.1L398,52.5z M398,57.3c0.3,0,0.8,0.1,1.4,0.1c1.7,0,3.2-0.5,3.2-2c0-1.4-1.5-2-3.2-2H398
	L398,57.3z"/>
<path class="st13" d="M243.1,206.6c0-0.7,0-1.5,0-2.2c0-0.2-0.1-0.3-0.3-0.3c-0.4,0-0.8,0-1.2,0c-0.2,0-0.2-0.1-0.2-0.2
	c0-0.1,0-0.2,0.2-0.2c1.2,0,2.3,0,3.5,0c0.2,0,0.2,0.1,0.2,0.2c0,0.1,0,0.2-0.2,0.2c-0.4,0-0.9,0-1.3,0c-0.2,0-0.2,0.1-0.2,0.2
	c0,1.5,0,3,0,4.5c0,0.1,0,0.2,0,0.2c-0.1,0-0.3,0-0.4,0c-0.1,0,0-0.1,0-0.2C243.1,208.1,243.1,207.4,243.1,206.6L243.1,206.6z"/>
<path class="st13" d="M241.2,208.9c0,0.2,0,0.2-0.2,0.2c-1,0-2.1,0-3.1,0c-0.2,0-0.2-0.1-0.2-0.2c0-0.8,0-1.6,0-2.5
	c0-0.8,0-1.7,0-2.5c0-0.1,0-0.2,0.2-0.2c1,0,2,0,3.1,0c0.2,0,0.2,0.1,0.2,0.2c0,0.2,0,0.2-0.2,0.2c-0.8,0-1.7,0-2.5,0
	c-0.2,0-0.2,0-0.2,0.2c0,0.5,0,1,0,1.5c0,0.2,0.1,0.2,0.2,0.2c0.8,0,1.5,0,2.3,0c0.2,0,0.2,0.1,0.2,0.2c0,0.2,0,0.2-0.2,0.2
	c-0.8,0-1.5,0-2.3,0c-0.2,0-0.2,0.1-0.2,0.2c0,0.6,0,1.1,0,1.7c0,0.2,0,0.2,0.2,0.2c0.9,0,1.7,0,2.6,0
	C241.2,208.7,241.3,208.7,241.2,208.9L241.2,208.9z"/>
<path class="st13" d="M237.5,209.1c-0.2,0-0.4,0-0.6,0c-0.1,0-0.1-0.1-0.2-0.2c-0.6-0.8-1.3-1.7-1.9-2.5c-0.1-0.2-0.2-0.2-0.3,0
	c-0.2,0.2-0.4,0.4-0.7,0.6c-0.1,0.1-0.1,0.2-0.1,0.3c0,0.5,0,1.1,0,1.6c0,0.2-0.1,0.2-0.2,0.2c-0.1,0-0.3,0.1-0.3-0.2
	c0-1.7,0-3.4,0-5c0-0.2,0.1-0.2,0.3-0.2c0.1,0,0.3-0.1,0.3,0.2c0,0.8,0,1.6,0,2.4c0,0.1,0,0.2,0,0.2c0.1,0,0.1-0.1,0.2-0.1
	c0.9-0.8,1.7-1.6,2.6-2.4c0.3-0.3,0.6-0.3,1-0.2c-0.5,0.5-1,0.9-1.4,1.3c-0.3,0.3-0.5,0.5-0.8,0.8c-0.1,0.1-0.1,0.2,0,0.3
	c0.7,0.9,1.5,1.9,2.2,2.8C237.4,208.9,237.4,209,237.5,209.1L237.5,209.1z"/>
<path class="st13" d="M232.1,207.7c-0.4,1-1.1,1.5-2.1,1.5c-1.1,0-1.9-0.5-2.2-1.6c-0.4-1.1-0.3-2.2,0.5-3.1
	c0.8-1.1,3.2-1.3,3.9,0.6c0,0.1,0.1,0.2,0,0.2c-0.1,0-0.3,0.2-0.4,0c-0.2-0.6-0.6-1-1.2-1.1c-0.7-0.1-1.4,0.1-1.8,0.7
	c-0.5,0.6-0.5,1.4-0.5,2.2c0.1,0.5,0.2,1,0.6,1.3c0.9,0.9,2.3,0.7,2.9-0.4c0.1-0.1,0.1-0.2,0.1-0.4c0-0.2,0.1-0.2,0.2-0.1
	C232.2,207.4,232.2,207.4,232.1,207.7L232.1,207.7z"/>
<path class="st13" d="M226.7,206.2c-0.1-1.5-0.9-2.4-2.2-2.5c-1.3-0.2-2.3,0.5-2.7,1.8c-0.2,0.6-0.2,1.2,0,1.8
	c0.2,0.9,0.7,1.6,1.6,1.9c0.9,0.3,1.8,0.2,2.5-0.5c0.6-0.6,0.8-1.3,0.8-2.1C226.7,206.3,226.7,206.3,226.7,206.2L226.7,206.2z
	 M225.8,208c-0.7,1.1-2.4,1.1-3.1,0.1c-0.6-0.9-0.6-2.4,0-3.2c0.7-1.1,2.4-1,3.1,0.1c0.3,0.4,0.4,0.9,0.4,1.6
	C226.2,207,226.1,207.5,225.8,208z"/>
<path class="st14" d="M223.7,197.6c-0.1-0.1-0.1-0.1,0-0.2c0.8-0.7,1.6-1.4,2.4-2.1c0.1-0.1,0.1-0.1,0.2,0c0.2,0.4,0.5,0.8,0.7,1.2
	c0.1,0.1,0.1,0.1,0,0.2c-0.1,0.1-0.2,0.1-0.3,0.2c-0.8,0.5-1.6,1-2.3,1.5c-0.1,0.1-0.2,0.1-0.3-0.1C224,198,223.8,197.8,223.7,197.6
	L223.7,197.6z"/>
<path class="st14" d="M221,192.1C221.1,192.1,221.1,192.1,221,192.1c0.1,0,0.1,0,0.2,0c0,0,0,0,0.1,0c0.1,0,0.1,0,0.2,0
	c0,0,0,0,0.1,0c0,0,0.1,0,0.1,0c0,0,0,0,0.1,0c0,0,0.1,0,0.1,0c0,0,0,0,0.1,0c0.1,0.1,0,0.1,0,0.2c-0.1,0.2-0.1,0.4-0.2,0.6
	c-0.3,0.9-0.6,1.7-1,2.6c0,0.1,0,0.2-0.2,0.1c-0.2,0-0.5-0.1-0.7-0.1c-0.1,0-0.1-0.1-0.1-0.1c0.1-0.7,0.2-1.4,0.3-2
	c0.1-0.3,0.1-0.7,0.1-1c0,0,0,0,0-0.1c0,0,0-0.1,0-0.1c0,0,0,0,0-0.1c0-0.1,0.1-0.1,0.2-0.1c0,0,0.1,0,0.1,0c0,0,0,0,0.1,0
	c0,0,0.1,0,0.1,0c0,0,0.1,0,0.1,0C220.9,192.1,221,192.1,221,192.1L221,192.1z"/>
<path class="st14" d="M222.1,196.1c0-0.1,0-0.1,0.1-0.2c0.5-0.9,1.1-1.9,1.6-2.8c0.1-0.1,0.1-0.1,0.2,0c0.3,0.2,0.7,0.5,1,0.7
	c0.1,0.1,0.1,0.1,0,0.2c-0.1,0.1-0.2,0.2-0.3,0.3c0,0-0.1,0.1-0.1,0.1c-0.6,0.7-1.1,1.4-1.7,2c-0.1,0.1-0.1,0.1-0.2,0
	C222.5,196.4,222.3,196.3,222.1,196.1L222.1,196.1z"/>
<path class="st14" d="M216.4,202.2L216.4,202.2C216.5,202.2,216.5,202.2,216.4,202.2L216.4,202.2c0,0.1,0.1,0.1,0.1,0.1l0,0
	c0,0,0,0.1,0,0.1c0,0,0,0,0,0l0,0l0,0c0,0,0,0,0,0c0,0,0,0.1,0.1,0.1c0.2,0.5,0.4,0.9,0.7,1.4c0.8,1.6,1.6,3.2,2.4,4.8
	c0.1,0.1,0.1,0.2-0.1,0.2c-0.1,0-0.1,0.1-0.2,0.1c0,0,0,0,0,0c0,0,0,0,0,0c-0.2,0.1-0.4,0.2-0.7,0.3c-0.2,0.1-0.2,0.1-0.3-0.1
	c-1.3-2.7-2.7-5.4-4-8.2c-0.3-0.6-0.6-1.1-0.9-1.7c0,0,0,0,0-0.1c-0.1-0.3-0.1-0.3,0.1-0.4c1.2-0.6,2.4-1.2,3.7-1.7
	c0.4-0.2,0.7-0.4,1.1-0.5c2.2-0.7,4.5,0.7,4.8,3c0.3,1.8-0.7,3-0.7,3.1c0,0,0,0,0,0c-0.6,0.8-1.4,1.3-2.3,1.7c-0.1,0-0.2,0-0.3,0
	c-0.2-0.1-0.3-0.3-0.5-0.4c-0.8-0.7-1.7-1.4-2.5-2.1c-0.1-0.1-0.1-0.1-0.1-0.2c0.1-0.3,0.2-0.7,0.4-1c0.1-0.4,0.3-0.7,0.4-1.1
	c0,0,0.2-0.6,0.2-0.6c0,0,0,0,0,0c0.6,0,2.3,0,2.6,0c0.1,0,0.1,0,0.2,0c0,0,0,1.1,0,1.3c-0.2,0-0.3,0-0.5,0c-0.4,0-0.8,0-1.2,0
	c-0.1,0-0.1,0-0.2,0.1c0,0.2-0.1,0.3-0.1,0.5c0,0-0.2,0.5-0.2,0.6c0,0.1,0,0.2,0.1,0.2c0.5,0.3,1,0.7,1.5,1c0.3,0.2,0.4,0.2,0.7,0
	c0.3-0.3,1-1.2,1-1.2c0,0,0-0.1,0.1-0.1c0.4-0.9,0.3-1.7-0.2-2.4c-0.4-0.7-1-1-1.8-1c-0.6,0-1.1,0.2-1.6,0.4
	c-0.8,0.4-1.7,0.9-2.5,1.3c-0.4,0.2-0.4,0.1-0.2,0.5c0,0,0,0,0,0L216.4,202.2z"/>
<g>
	<path class="st13" d="M214.5,206.1c-0.1-1.3-0.8-2.3-2.2-2.5c-1.2-0.1-2.2,0.4-2.6,1.6c-0.1,0.4-0.2,0.8-0.2,1.1c0,0.1,0,0.3,0,0.4
		c0.1,1.2,0.8,2.3,2.2,2.4c1.3,0.1,2.3-0.4,2.7-1.7C214.5,207,214.5,206.6,214.5,206.1L214.5,206.1z M213.4,208.1c-0.8,1-2.3,1-3,0
		c-0.6-0.9-0.6-2.4,0-3.3c0.7-1,2.6-1.1,3.2,0.4c0.2,0.4,0.2,0.8,0.2,1.3C213.9,207,213.8,207.6,213.4,208.1L213.4,208.1z"/>
	<path class="st13" d="M209.3,208.9c0,0.2,0,0.2-0.2,0.2c-1,0-2.1,0-3.1,0c-0.2,0-0.2,0-0.2-0.2c0-0.8,0-1.7,0-2.5
		c0-0.8,0-1.6,0-2.5c0-0.2,0-0.2,0.2-0.2c1,0,2,0,3,0c0.2,0,0.2,0.1,0.2,0.2c0,0.2,0,0.2-0.2,0.2c-0.8,0-1.7,0-2.5,0
		c-0.2,0-0.2,0-0.2,0.2c0,0.5,0,1,0,1.5c0,0.1,0,0.2,0.2,0.2c0.8,0,1.5,0,2.3,0c0.2,0,0.2,0.1,0.2,0.2c0,0.2,0,0.2-0.2,0.2
		c-0.8,0-1.5,0-2.3,0c-0.2,0-0.2,0-0.2,0.2c0,0.6,0,1.1,0,1.7c0,0.2,0,0.2,0.2,0.2c0.9,0,1.7,0,2.6,0
		C209.3,208.7,209.3,208.7,209.3,208.9L209.3,208.9z"/>
	<path class="st13" d="M205.1,208.3c0,0.1,0,0.2-0.1,0.2c-1,0.7-2.1,0.9-3.2,0.5c-1-0.4-1.5-1.1-1.6-2.2c0-0.5,0-1,0.1-1.5
		c0.4-1.3,1.6-1.8,2.9-1.7c0.9,0.1,1.5,0.5,1.8,1.3c0,0.1,0.1,0.2-0.1,0.2c-0.1,0-0.3,0.2-0.4,0c-0.3-0.8-0.9-1.2-1.8-1.1
		c-0.8,0-1.4,0.4-1.8,1.2c-0.4,0.9-0.3,2.3,0.4,3c0.6,0.6,1.4,0.7,2.2,0.6c0.4-0.1,0.7-0.2,1-0.4c0.1-0.1,0.1-0.1,0.1-0.3
		c0-0.3,0-0.7,0-1c0-0.2-0.1-0.2-0.2-0.2c-0.4,0-0.9,0-1.3,0c-0.2,0-0.2-0.1-0.2-0.2c0-0.1,0-0.2,0.2-0.2c0.3,0,0.6,0,0.9,0
		c0.3,0,0.6,0,0.9,0c0.2,0,0.2,0.1,0.2,0.2C205.1,207.2,205.1,207.7,205.1,208.3L205.1,208.3z"/>
	<path class="st13" d="M199.6,206.2c-0.1-1.5-0.9-2.4-2.2-2.5c-1.3-0.2-2.4,0.5-2.7,1.8c-0.2,0.6-0.2,1.2,0,1.8
		c0.2,0.9,0.7,1.6,1.6,1.9c0.9,0.3,1.8,0.2,2.5-0.5c0.6-0.6,0.8-1.3,0.8-2.1C199.6,206.3,199.6,206.3,199.6,206.2L199.6,206.2z
		 M198.7,207.9c-0.7,1.2-2.5,1.2-3.2,0c-0.5-1-0.5-2,0-3c0.7-1.2,2.4-1.2,3.2-0.1c0.3,0.5,0.4,1,0.4,1.6
		C199.1,206.9,198.9,207.5,198.7,207.9L198.7,207.9z"/>
	<path class="st13" d="M194.6,208.9c0,0.2-0.1,0.2-0.2,0.2c-1,0-2.1,0-3.1,0c-0.2,0-0.2-0.1-0.2-0.2c0-0.8,0-1.6,0-2.5s0-1.6,0-2.5
		c0-0.2,0-0.2,0.2-0.2c1,0,2,0,3,0c0.2,0,0.2,0.1,0.2,0.2c0,0.2,0,0.2-0.2,0.2c-0.8,0-1.7,0-2.5,0c-0.2,0-0.2,0.1-0.2,0.2
		c0,0.5,0,1,0,1.5c0,0.2,0.1,0.2,0.2,0.2c0.8,0,1.5,0,2.3,0c0.2,0,0.2,0.1,0.2,0.2c0,0.2,0,0.2-0.2,0.2c-0.8,0-1.5,0-2.3,0
		c-0.2,0-0.2,0-0.2,0.2c0,0.6,0,1.1,0,1.7c0,0.2,0.1,0.2,0.2,0.2c0.9,0,1.7,0,2.6,0C194.6,208.7,194.7,208.7,194.6,208.9
		L194.6,208.9z"/>
	<path class="st13" d="M190.5,208.9c0,0.1,0,0.2-0.2,0.2c-0.2,0-0.4-0.1-0.5-0.3c-0.9-1.3-1.8-2.7-2.7-4c-0.1-0.1-0.1-0.2-0.2-0.2
		c-0.1,0,0,0.1,0,0.1c0,1.4,0,2.7,0,4.1c0,0.2,0,0.3-0.3,0.3c-0.2,0-0.2-0.1-0.2-0.3c0-1.6,0-3.2,0-4.8c0-0.1-0.1-0.2,0.1-0.3
		c0.2,0,0.4-0.1,0.5,0.1c0.3,0.4,0.5,0.8,0.8,1.2c0.7,1,1.4,2.1,2.1,3.1c0,0.1,0.1,0.1,0.2,0.2c0-0.4,0-0.8,0-1.1c0-1.1,0-2.1,0-3.2
		c0-0.2,0.1-0.2,0.3-0.2c0.1,0,0.2,0,0.2,0.2C190.5,205.6,190.5,207.2,190.5,208.9L190.5,208.9z"/>
</g>
</svg>
