<svg xmlns="http://www.w3.org/2000/svg" xmlns:xlink="http://www.w3.org/1999/xlink" viewBox="0 0 470.33 67.41"><defs><style>.b34e481f-6cfb-4cf8-b281-86bc6920ba1d{stroke:#9def48;stroke-miterlimit:10;stroke-width:0.75px;fill:url(#b1fa26cf-65fb-4867-b89e-3fa6ce03acbc);}.b5e4e65d-94d2-4fdc-b795-61cf03595e57{fill:#9def48;}.b2542410-d929-4f57-96f4-9dc823bce929{fill:#0097e0;}.a26fac35-f7f0-4674-983d-aa26bbb32c79{fill:#0096df;}</style><linearGradient id="b1fa26cf-65fb-4867-b89e-3fa6ce03acbc" x1="0.38" y1="33.7" x2="469.96" y2="33.7" gradientUnits="userSpaceOnUse"><stop offset="0" stop-color="#032c02"/><stop offset="1" stop-color="#207a09"/></linearGradient></defs><g id="fcaa2bff-c429-43e5-9bae-55639ed9ee59" data-name="texte"><polygon class="b34e481f-6cfb-4cf8-b281-86bc6920ba1d" points="0.38 5.91 102.44 5.91 108.57 0.38 150.31 0.38 158.22 5.91 461.65 6.11 469.96 16 469.96 59.72 50.81 59.72 42.7 67.03 7.89 67.03 0.38 59.72 0.38 5.91"/><path class="b5e4e65d-94d2-4fdc-b795-61cf03595e57" d="M57.6,25.27A15.38,15.38,0,0,0,55.4,33a15.43,15.43,0,0,0,2.2,7.71h2.55v3.84H55.54a17.19,17.19,0,0,1-4-11.55,17.17,17.17,0,0,1,4-11.56H78.31a17.17,17.17,0,0,1,4,11.56,17.19,17.19,0,0,1-4,11.55H73.7V40.7h2.56A15.53,15.53,0,0,0,78.46,33a15.48,15.48,0,0,0-2.2-7.72Z" transform="translate(-0.06 -0.03)"/><path class="b5e4e65d-94d2-4fdc-b795-61cf03595e57" d="M109,34.89H93A16.44,16.44,0,0,0,95.1,40.7h19l2.21,3.84H93a16.61,16.61,0,0,1-3.9-9.65H85.51V31.07h3.63A16.53,16.53,0,0,1,93,21.43h23.25l-2.21,3.84h-19A16.26,16.26,0,0,0,93,31.07h16Z" transform="translate(-0.06 -0.03)"/><path class="b5e4e65d-94d2-4fdc-b795-61cf03595e57" d="M144.65,44.54H121.88a17.19,17.19,0,0,1-4-11.55,17.17,17.17,0,0,1,4-11.56h22.77a17.17,17.17,0,0,1,4,11.56A17.19,17.19,0,0,1,144.65,44.54ZM142.6,40.7A15.52,15.52,0,0,0,144.79,33a15.47,15.47,0,0,0-2.19-7.72H123.94a15.38,15.38,0,0,0-2.2,7.72,15.43,15.43,0,0,0,2.2,7.71Z" transform="translate(-0.06 -0.03)"/><path class="b5e4e65d-94d2-4fdc-b795-61cf03595e57" d="M192.17,31.07c.05.62.08,1.26.08,1.92a17.19,17.19,0,0,1-4,11.55H165.5a17.19,17.19,0,0,1-4-11.55,17.17,17.17,0,0,1,4-11.56h22.77a16.19,16.19,0,0,1,3.46,6.88h-4.12a17.49,17.49,0,0,0-1.39-3H167.56A15.4,15.4,0,0,0,165.35,33a15.45,15.45,0,0,0,2.21,7.71h18.66a16.59,16.59,0,0,0,2.06-5.81H174.36V31.07Z" transform="translate(-0.06 -0.03)"/><path class="b5e4e65d-94d2-4fdc-b795-61cf03595e57" d="M218.93,34.89H203a16.44,16.44,0,0,0,2.08,5.81h19l2.21,3.84H203a16.66,16.66,0,0,1-3.89-9.65h-3.63V31.07h3.63A16.58,16.58,0,0,1,203,21.43h23.26L224,25.27h-19a16.26,16.26,0,0,0-2.08,5.8h16Z" transform="translate(-0.06 -0.03)"/><path class="b5e4e65d-94d2-4fdc-b795-61cf03595e57" d="M254.61,44.54H231.84a17.14,17.14,0,0,1-4-11.55,17.12,17.12,0,0,1,4-11.56h22.77a17.17,17.17,0,0,1,4,11.56A17.19,17.19,0,0,1,254.61,44.54Zm-2.05-3.84A15.52,15.52,0,0,0,254.75,33a15.47,15.47,0,0,0-2.19-7.72H233.9A15.4,15.4,0,0,0,231.69,33a15.45,15.45,0,0,0,2.21,7.71Z" transform="translate(-0.06 -0.03)"/><path class="b5e4e65d-94d2-4fdc-b795-61cf03595e57" d="M304,34.89H279a16.41,16.41,0,0,0,2.07,5.81h2.55v3.84H279a16.61,16.61,0,0,1-3.9-9.65h-3.62V31.07h3.62a16.53,16.53,0,0,1,3.9-9.64h22.77a17.17,17.17,0,0,1,4,11.56Zm-25-3.82h22.79a16.21,16.21,0,0,0-2.06-5.8H281.06A16.23,16.23,0,0,0,279,31.07Z" transform="translate(-0.06 -0.03)"/><path class="b5e4e65d-94d2-4fdc-b795-61cf03595e57" d="M335.64,44.54H312.87a17.19,17.19,0,0,1-4-11.55,17.17,17.17,0,0,1,4-11.56h22.77a17.17,17.17,0,0,1,4,11.56A17.19,17.19,0,0,1,335.64,44.54Zm-2.05-3.84A15.52,15.52,0,0,0,335.78,33a15.47,15.47,0,0,0-2.19-7.72H314.93a15.38,15.38,0,0,0-2.2,7.72,15.43,15.43,0,0,0,2.2,7.71Z" transform="translate(-0.06 -0.03)"/><path class="b5e4e65d-94d2-4fdc-b795-61cf03595e57" d="M368.93,37.66h4.13a16.21,16.21,0,0,1-3.47,6.88H346.82a17.19,17.19,0,0,1-4-11.55,17.2,17.2,0,0,1,4-11.56h22.77a16.21,16.21,0,0,1,3.47,6.88h-4.13a16.78,16.78,0,0,0-1.39-3H348.89A15.3,15.3,0,0,0,346.68,33a15.35,15.35,0,0,0,2.21,7.71h18.65A17.43,17.43,0,0,0,368.93,37.66Z" transform="translate(-0.06 -0.03)"/><path class="b5e4e65d-94d2-4fdc-b795-61cf03595e57" d="M380.92,34.89v9.65h-3.84V24.7l3.84-3.83v10.2h6.41l11.86-9.64h6.22L391.18,33l14.23,11.55h-6.22L387.3,34.89Z" transform="translate(-0.06 -0.03)"/><path class="b5e4e65d-94d2-4fdc-b795-61cf03595e57" d="M426.45,34.89H410.5a16.44,16.44,0,0,0,2.08,5.81h19l2.21,3.84H410.52a16.61,16.61,0,0,1-3.9-9.65H403V31.07h3.63a16.53,16.53,0,0,1,3.9-9.64h23.25l-2.21,3.84h-19a16.26,16.26,0,0,0-2.08,5.8h15.95Z" transform="translate(-0.06 -0.03)"/><path class="b5e4e65d-94d2-4fdc-b795-61cf03595e57" d="M453.36,41.27l-3.83,3.83V25.27H437V21.43H465.9v3.84H453.36Z" transform="translate(-0.06 -0.03)"/></g><g id="aa09dfdc-c46d-4499-95dc-8a8fec0c47b3" data-name="arcade"><g id="f6221ebb-62c5-40b3-a320-6a487f6eacc7" data-name="snk"><path id="b258ee07-770b-483b-8a91-bd09a4a38586" data-name="S" class="b2542410-d929-4f57-96f4-9dc823bce929" d="M22.94,64.9c2.22,0,4-1.48,4-3.31V52.37a.47.47,0,0,1,.5-.42.45.45,0,0,1,.49.42V64.94h3.57v-14c0-1.84-1.84-3.32-4.06-3.32s-4.06,1.48-4.06,3.32v9.18a.47.47,0,0,1-.5.42.44.44,0,0,1-.49-.42V47.61h-3.5v14c0,1.83,1.8,3.31,4,3.31Z" transform="translate(-0.06 -0.03)"/><polygon id="bb73dd83-6d9e-4548-8ff3-f415139a2db1" data-name="N" class="b2542410-d929-4f57-96f4-9dc823bce929" points="18.86 46.56 31.39 46.56 31.39 42.15 23.52 42.15 31.39 33.74 31.39 29.15 18.86 29.15 18.86 33.57 26.69 33.57 18.86 41.97 18.86 46.56"/><polygon id="b9248fbb-dc63-4184-b290-5effa0ef0194" data-name="K" class="b2542410-d929-4f57-96f4-9dc823bce929" points="24.36 23.72 18.86 23.72 18.86 28.2 31.39 28.2 31.39 23.72 25.84 23.72 31.39 16.59 31.39 10.83 25.14 18.95 18.86 10.83 18.86 16.59 24.36 23.72"/><path id="b24bfc55-18aa-4db9-96ba-1d74d40758af" data-name="mark" class="a26fac35-f7f0-4674-983d-aa26bbb32c79" d="M19.3,8.64a1.29,1.29,0,0,0-.39.91,1.31,1.31,0,0,0,.39.92,1.28,1.28,0,0,0,1.84,0,1.31,1.31,0,0,0,.39-.92,1.33,1.33,0,0,0-1.31-1.3,1.34,1.34,0,0,0-.92.39Zm1.7.14a1.12,1.12,0,0,1,0,1.55,1.13,1.13,0,0,1-.78.32,1.06,1.06,0,0,1-.78-.32,1.09,1.09,0,0,1-.31-.78,1,1,0,0,1,.31-.77,1.11,1.11,0,0,1,1.56,0Z" transform="translate(-0.06 -0.03)"/><path id="bfc7cac7-485e-49df-b0ee-6c84224998b5" data-name="R" class="a26fac35-f7f0-4674-983d-aa26bbb32c79" d="M20,9h0a.4.4,0,0,0-.39.39v.74h1.31V9.87H20.4V9.41a.16.16,0,0,1,.14-.17l.32,0V9l-.32,0a.48.48,0,0,0-.25.11A.27.27,0,0,0,20,9Zm-.21.92V9.34A.17.17,0,0,1,20,9.16H20a.17.17,0,0,1,.18.18v.53Z" transform="translate(-0.06 -0.03)"/></g></g></svg>