<svg xmlns="http://www.w3.org/2000/svg" xmlns:xlink="http://www.w3.org/1999/xlink" viewBox="0 0 747.48 822.76"><defs><radialGradient id="f09c6a29-7262-4e0f-aa3e-a2ad80728fba" cx="121.61" cy="382.1" r="5.66" gradientTransform="matrix(1 0 0 .6 0 152.84)" xlink:href="#ae033f0f-670a-41e1-8298-be392571102a"/><radialGradient id="b2abdfa2-50ff-40e6-9e4b-15bd1778e2b6" cx="217.55" cy="416.02" r="5.66" xlink:href="#ae1c065e-dd16-48c1-87b2-8bf105b9d455"/><radialGradient id="b8061639-6fc9-41ae-b3e5-e58a0463c60c" cx="195.83" cy="370.99" r="11.47" xlink:href="#ae1c065e-dd16-48c1-87b2-8bf105b9d455"/><radialGradient id="ae033f0f-670a-41e1-8298-be392571102a" cx="92.36" cy="393.88" r="5.66" gradientTransform="matrix(1 0 0 .6 0 157.55)" gradientUnits="userSpaceOnUse"><stop offset="0" stop-color="#0000ef"/><stop offset=".15" stop-color="#0000e9"/><stop offset=".34" stop-color="#0101d9"/><stop offset=".56" stop-color="#0101be"/><stop offset=".79" stop-color="#02029a"/><stop offset="1" stop-color="#020282"/></radialGradient><radialGradient id="b2e1a14b-e204-4d38-a264-1e84e6fd6254" cx="114.61" cy="393.88" r="5.66" xlink:href="#ae033f0f-670a-41e1-8298-be392571102a"/><radialGradient id="a22efb0f-3a73-4920-b38c-78dde12424d6" cx="133.17" cy="400.04" r="5.66" gradientTransform="matrix(1 0 0 .6 0 160.02)" xlink:href="#ae033f0f-670a-41e1-8298-be392571102a"/><radialGradient id="ab2597b7-2b37-477c-9a79-495b9fa8166f" cx="139.21" cy="387.78" r="5.66" gradientTransform="matrix(1 0 0 .6 0 155.11)" xlink:href="#ae033f0f-670a-41e1-8298-be392571102a"/><radialGradient id="ae1c065e-dd16-48c1-87b2-8bf105b9d455" cx="65.88" cy="348.77" r="11.47" gradientUnits="userSpaceOnUse"><stop offset="0" stop-color="#fd6d66"/><stop offset=".78" stop-color="#b50a03"/></radialGradient><radialGradient id="a800bf03-acf6-4d7a-8b39-99723b14dd62" cx="100.32" cy="382.53" r="5.66" gradientTransform="matrix(1 0 0 .6 0 153.01)" xlink:href="#ae033f0f-670a-41e1-8298-be392571102a"/><radialGradient id="b5ed2f89-0b66-4399-be3a-e04054c35ca4" cx="225.51" cy="404.67" r="5.66" xlink:href="#ae1c065e-dd16-48c1-87b2-8bf105b9d455"/><radialGradient id="f825ee59-51cb-4843-b464-6eca38c81655" cx="246.79" cy="404.24" r="5.66" xlink:href="#ae1c065e-dd16-48c1-87b2-8bf105b9d455"/><radialGradient id="b748a8c6-b70d-45b4-964a-b6dcc77592bc" cx="264.4" cy="409.93" r="5.66" xlink:href="#ae1c065e-dd16-48c1-87b2-8bf105b9d455"/><radialGradient id="b2b85e5d-8387-4bed-bf84-fcfc553faf26" cx="258.36" cy="422.19" r="5.66" xlink:href="#ae1c065e-dd16-48c1-87b2-8bf105b9d455"/><radialGradient id="b153f8f7-6a66-4a7c-8b50-888f6031f3c7" cx="239.79" cy="416.02" r="5.66" xlink:href="#ae1c065e-dd16-48c1-87b2-8bf105b9d455"/><style>.fb7021b9-8f9c-4155-8356-b2883d40c644{fill:#373735}.b2f9fdfa-df85-43fd-b4b5-c272f0c7681b{fill:#121211}.a4233b21-e152-46e4-908a-e08f16c0e663,.ac1ff14f-7e88-4295-bc9e-e2a6fa38fa93,.b2f9fdfa-df85-43fd-b4b5-c272f0c7681b,.b450fc9e-90ea-44be-a303-c7c5805f4930,.b8733070-781a-45d2-b2ac-71f71ee01c0d,.f1488f26-ece7-4d0d-a914-14d272baff31,.f1531263-381b-4dd4-a940-daf3a2a33ef3{stroke:#b5b5b5}.a4233b21-e152-46e4-908a-e08f16c0e663,.ac1ff14f-7e88-4295-bc9e-e2a6fa38fa93,.b2f9fdfa-df85-43fd-b4b5-c272f0c7681b,.b450fc9e-90ea-44be-a303-c7c5805f4930,.b5998a0f-f591-4f59-93f5-cf98ff408064,.b8733070-781a-45d2-b2ac-71f71ee01c0d,.b93c9888-6a54-4c17-8a06-13597cea245a,.bd4e4976-ba11-4046-86a9-1288172ae74e,.f1488f26-ece7-4d0d-a914-14d272baff31,.f1531263-381b-4dd4-a940-daf3a2a33ef3{stroke-miterlimit:10}.a4233b21-e152-46e4-908a-e08f16c0e663,.ac1ff14f-7e88-4295-bc9e-e2a6fa38fa93,.b2f9fdfa-df85-43fd-b4b5-c272f0c7681b,.b8733070-781a-45d2-b2ac-71f71ee01c0d,.b93c9888-6a54-4c17-8a06-13597cea245a,.f1531263-381b-4dd4-a940-daf3a2a33ef3{stroke-width:.5px}.b5998a0f-f591-4f59-93f5-cf98ff408064{fill:#443840;stroke:#090000}.b93c9888-6a54-4c17-8a06-13597cea245a{stroke:#090000}.b5998a0f-f591-4f59-93f5-cf98ff408064{stroke-width:.75px}.b93c9888-6a54-4c17-8a06-13597cea245a{fill:#6b0c05}.abcb2603-255b-4e61-91c7-931647e3c907{fill:#86382f}.bd4e4976-ba11-4046-86a9-1288172ae74e{stroke:#373737}.b450fc9e-90ea-44be-a303-c7c5805f4930{fill:#bf0000}.f1488f26-ece7-4d0d-a914-14d272baff31{fill:#b74949}.b6fe118c-ccd5-4f0f-bb3a-6a1631532687{fill:#b30000}.ac1ff14f-7e88-4295-bc9e-e2a6fa38fa93{fill:#dc6e05}.f1531263-381b-4dd4-a940-daf3a2a33ef3{fill:#12e600}.b8733070-781a-45d2-b2ac-71f71ee01c0d{fill:#0b47ce}.a4233b21-e152-46e4-908a-e08f16c0e663,.b034a829-e149-444d-841d-6fe80dc91bbf{fill:#282826}.e1e0511f-88d2-46fe-9365-ebf734a7a417{fill:#ae7a82}.bdd45b84-6bc3-49ad-acb9-eea23fe6f6b3{fill:url(#ae1c065e-dd16-48c1-87b2-8bf105b9d455)}.bb567e60-7ac5-476a-b0e8-7978a13babdf{fill:url(#b8061639-6fc9-41ae-b3e5-e58a0463c60c)}.bec68582-982e-489c-a652-67297d3b2943{fill:#0000ef}.b3abb65b-7b79-4b7d-a8ca-8f924a4d8388{fill:#930303}.ad042567-5636-4767-9a1e-1c5171004b8e{fill:#e7e7e7}.b2a7ef1d-bf2c-4fed-81b6-8da484e8fd42{fill:#2c2b29}.b32d6496-15c2-4c35-a46d-938df37d84b8{fill:#020202}</style></defs><g id="eb9cbb27-d5c8-4910-99c0-9dc350c0336d" data-name="Calque 1"><path id="ae0ebe64-06d7-4185-b2b1-01f5b70df290" data-name="ombre" style="opacity:.5;fill:#373735" d="m453 589.31 21.52-5.91h11.86l1.59 2.96 237.36 43.3h11.08l11.07 31.39-46.41 37.71-46.42 13.19-8.18-1.32.27-1.85-13.98-2.63-83.61 27.95-73.32 51.57-22.83 6.82-7.76-1.16v-2.63l-16.09-3.03-129.99 34.37L453 589.31z"/><g id="a14c0a2a-a25f-4bde-94f4-677af6b17857" data-name="bottom"><path class="fb7021b9-8f9c-4155-8356-b2883d40c644" d="m36.97 455.08 224.91 39.62v4.35l25.71 6.13-.39 311.34-248.24-47.27-1.99-314.17z"/><path class="b2f9fdfa-df85-43fd-b4b5-c272f0c7681b" d="m202 526.54-78.38-13.74c-3 .19-4.26 3.56-4.26 3.56l.2 85c.69 2.18 3.86 5 3.86 5l74.27 13.46c5.14.49 7.52-5.25 7.52-5.25v-82.69a7.12 7.12 0 0 0-3.21-5.34zm-49.9 22.55-18.69-3.46v-20l2.27-1.88 18.1 3.07-1.78 2.69zm31.45 6.13-18.69-3.46v-20l2.27-1.87 18.1 3.06-1.78 2.67z"/><path class="b5998a0f-f591-4f59-93f5-cf98ff408064" d="m135.68 523.77-2.27 1.88v19.98l18.69 3.46-.1-19.58 1.78-2.67-18.1-3.07zM167.13 529.9l-2.27 1.88v19.98l18.69 3.46-.1-19.58 1.78-2.67-18.1-3.07z"/><path class="b93c9888-6a54-4c17-8a06-13597cea245a" d="M141.12 543.55V530.7l8.01 1.78v12.56l-8.01-1.49zM172.18 549.39v-12.86l8.01 1.78v12.56l-8.01-1.48z"/><path d="M136.21 543.68v-15.22l2.04.39v15.16l-2.04-.33zM167.66 549.22v-15.23l2.04.4v15.16l-2.04-.33z"/><path class="abcb2603-255b-4e61-91c7-931647e3c907" d="M141.38 531.21v-.35l7.47 1.8.01.43-7.48-1.88zM172.44 537.14v-.29l7.46 1.64.02.35-7.48-1.7z"/><circle cx="193.37" cy="575.37" r="4.25" style="fill:#8b8b8b;stroke-width:.75px;stroke:#090000;stroke-miterlimit:10"/><path class="bd4e4976-ba11-4046-86a9-1288172ae74e" d="M137.26 599.24v-11.28l11.97 2.18v11.3l-11.97-2.2zM168.52 604.77V593.5l11.96 2.17v10.88l-11.96-1.78z"/></g><g id="a5e3050b-11ba-4aff-83d7-a45a9a0531a0" data-name="t molding"><path class="b450fc9e-90ea-44be-a303-c7c5805f4930" d="m11.46 450.59-.79-39.76L1 407.66v45.1l27.89 5.54c.59 103.55 1 207.6 1.58 311.15a6.18 6.18 0 0 0 3.53 2.19 12.58 12.58 0 0 0 5 0l-2-316.56zM272.36 497v-41.27l-10.28-1.19-.2 44.51 25.71 6.13s-1.51 313.85 0 315.69 8.77 1.32 8.77 1.32l.93-319.91zM79.7 346.94l-8.15-1.3 16.26-218.56 9.03 1.51L79.7 346.94zM330.22 389.37l9.1 1.28 18.49-224.31h-26.37l-.26-90.92-10.06-1.84v94.84l6.03 1.09h20.28l-17.21 219.86z"/><path class="b450fc9e-90ea-44be-a303-c7c5805f4930" d="M88.49 127.19s-28.17-.35-29.11-.85c0-31.21.06-62.83 0-94l9.36 2.64.48 89.02z"/><g id="ed833606-02e2-435c-8d9b-a7fec17fa63b" data-name="clair"><path class="f1488f26-ece7-4d0d-a914-14d272baff31" d="m.98 407.66 9.69 3.17 68.31-64.06-8.11-1.94L.98 407.66zM262.08 454.54l10.28 1.19 66.96-65.87-8.62-1.6-68.62 66.28zM112.54.52 59.4 32.3l9.36 2.64 52.58-31.12 2.74-1.62-2.58-.36-8.96-1.32zM384.71 41.14l-11.21-.8-52.38 33.24 10.06 1.84 53.53-34.28z"/></g></g><g id="e5630282-c2da-4a29-abe5-d6fddf174f10" data-name="side"><path class="b2f9fdfa-df85-43fd-b4b5-c272f0c7681b" d="m454.11 309.16.63-159.63-70.03-108.39-53.53 34.28.26 90.92h26.37l-18.49 224.31-66.96 65.08V497l24.93 5.28-.93 319.91 8.25-6.32 149.64-543.7-.21 21.51-142.09 516.55-1.61 1.24 6.94-5.32 136.83-496.99zM325.04 799.67l-7.76 6.48 11.99-9.2 124.7-453.24.05-12.13-128.98 468.09zM336.41 791.47l-1.32 1.02 6.86-5.27 111.8-407.64v21.25l.22-57.12-.22 24-117.34 423.76zM343.97 785.67l108.59-83.28 1.18-299.84L348.38 782.3l-4.41 3.37z"/><path style="fill:#bf0000;stroke-width:.5px;stroke-miterlimit:10;stroke:#b5b5b5" d="m304.61 815.87 5.73-4.4-5.73 4.4z"/><path class="b6fe118c-ccd5-4f0f-bb3a-6a1631532687" d="m454.04 293.68.21-21.51-149.64 543.7 5.73-4.4 1.61-1.24 142.09-516.55z"/><path class="ac1ff14f-7e88-4295-bc9e-e2a6fa38fa93" d="M454.11 331.26v-22.1l-.09 22.42.09-.32zM317.28 806.15z"/><path d="m454.02 331.58.09-22.42-136.83 496.99 7.76-6.48 128.98-468.09z"/><path class="f1531263-381b-4dd4-a940-daf3a2a33ef3" d="M453.97 343.71zM329.27 796.95l5.82-4.46-5.82 4.46z"/><path style="fill:#fff" d="m335.09 792.49 1.32-1.02 117.34-423.76.22-24-124.7 453.24 5.82-4.46z"/><path class="b8733070-781a-45d2-b2ac-71f71ee01c0d" d="m341.95 787.22 2.02-1.55-2.02 1.55zM453.75 402.52v-1.69l-.01 1.72.01-.03z"/><path class="b6fe118c-ccd5-4f0f-bb3a-6a1631532687" d="m341.95 787.22 2.02-1.55 4.41-3.37 105.36-379.75.01-1.72v-21.25l-111.8 407.64z"/></g><g id="af550481-8d67-41aa-a118-037a22768061" data-name="panel"><path class="a4233b21-e152-46e4-908a-e08f16c0e663" d="m11.46 450.59 250.42 44.11.2-40.16-251.41-43.71.79 39.76z"/><path class="fb7021b9-8f9c-4155-8356-b2883d40c644" d="m80.35 345.73-69.68 65.1 251.41 43.71 68.62-66.28-250.35-42.53z"/></g><g id="a8466001-4a1f-46c2-bf5c-b87f166bcc84" data-name="ecran"><path class="a4233b21-e152-46e4-908a-e08f16c0e663" d="M96.84 129.36 79.7 347.72l250.52 42.43L347.82 168zm224.28 67.76c0 .2-.29.32-.48.49l-10.43 144.83a35.43 35.43 0 0 1-4.3 3.78l1.4.29v10.7s-1.4 4.75-11.08 2.64c-11.19-2.44-178.55-31.91-178.55-31.91l8.72-6.78v-1.39s-2.46.52-6-7l-12.48 2.77h-4l11.34-158.77s4-6.85 10.81-6.59 191.16 30.59 191.16 30.59 6.17 1.07 3.89 16.35z"/><path d="M317.28 180S133 149.66 126.12 149.4s-10.81 6.6-10.81 6.6l-11.74 160.08h4.35l12.29-2.68c-.1-.23-.74-1.57-.85-1.8L131 166.54s2.11-5.54 7.12-7.38l177.49 27.16a20.77 20.77 0 0 1 5.11 9.76l-.05.75c.19-.17.62.66.66.47 3.23-14.06-4.05-17.3-4.05-17.3z" style="fill:#151312"/><path d="m125.32 320-8.56 8s164.63 29.3 178.61 32.24c10.36 2.17 14.43-3.58 14.43-3.58l.61-7.37.39-7.71-4.89 3.84a20.85 20.85 0 0 1-7.73 3.87z" style="fill:#555353"/><path d="M319.5 197.81c.45-.36.83-.69 1.14-1l.66-.52a20.31 20.31 0 0 0-5.72-10l-177.49-27.13c-5 1.84-7.12 7.38-7.12 7.38L119.36 311.6l.32.66c3.54 7.52 6.28 8 6.28 8l.44.08 171.78 28.93a20.85 20.85 0 0 0 7.73-3.87c2.57-1.91 4.89-3.84 4.89-3.84l10.5-145.29c-.44.46-1.05.96-1.8 1.54zM143.83 302.35z" style="fill:#008aa6"/></g><g id="fdef2e3b-4a14-4f00-9593-16cadcded45e" data-name="top"><path id="b8c940d9-adbc-40d7-a1ac-f9ba7d3efbd5" data-name="marquee" class="a4233b21-e152-46e4-908a-e08f16c0e663" d="m69.22 124.02 251.47 39.03.43-89.47L68.76 34.94l.46 89.08z"/><path style="stroke-miterlimit:10;stroke:#b5b5b5;fill:#373735" d="m129.81 3.16-5.73-.96-55.32 32.74 252.36 38.64 52.38-33.24L129.81 3.16z"/></g><g id="b1c6908b-d33f-4fff-bc02-ed74159364d3" data-name="stickp1"><path class="b034a829-e149-444d-841d-6fe80dc91bbf" d="M68.92 377.27v5.16H62.4v-5.16c-5.06.64-8.77 2.7-8.77 5.16 0 3 5.38 5.35 12 5.35s12-2.39 12-5.35c.06-2.43-3.63-4.52-8.71-5.16z"/><path class="e1e0511f-88d2-46fe-9365-ebf734a7a417" d="M68.92 377.27v-17.78a12.18 12.18 0 0 1-3 .39 12.4 12.4 0 0 1-3.48-.49v17.88a26.67 26.67 0 0 1 6.52 0z"/><path class="e1e0511f-88d2-46fe-9365-ebf734a7a417" d="M68.92 382.43v-5.16a26.67 26.67 0 0 0-6.52 0v5.16z"/><path class="bdd45b84-6bc3-49ad-acb9-eea23fe6f6b3" d="M68.92 358.89v.6a11.24 11.24 0 0 0 8.77-10.72c0-6.14-5.29-11.11-11.81-11.11s-11.82 5-11.82 11.11a11.22 11.22 0 0 0 8.34 10.62v-.5z"/><path class="e1e0511f-88d2-46fe-9365-ebf734a7a417" d="M68.92 359.49v-.6H62.4v.5a12.4 12.4 0 0 0 3.48.49 12.18 12.18 0 0 0 3.04-.39z"/><path class="bdd45b84-6bc3-49ad-acb9-eea23fe6f6b3" d="M68.92 359.49v-.6H62.4v.5a12.4 12.4 0 0 0 3.48.49 12.18 12.18 0 0 0 3.04-.39z"/></g><g id="b0fa51d4-f13d-4ffa-ab22-d801dc91c899" data-name="stickp2"><path class="b034a829-e149-444d-841d-6fe80dc91bbf" d="M198.88 399.49v5.16h-6.53v-5.16c-5 .64-8.77 2.7-8.77 5.16 0 3 5.39 5.35 12 5.35s12-2.39 12-5.35c.07-2.46-3.64-4.52-8.7-5.16z"/><path class="e1e0511f-88d2-46fe-9365-ebf734a7a417" d="M198.88 399.49v-17.78a12.2 12.2 0 0 1-3 .39 12.83 12.83 0 0 1-3.48-.49v17.88a26.75 26.75 0 0 1 6.53 0z"/><path class="e1e0511f-88d2-46fe-9365-ebf734a7a417" d="M198.88 404.65v-5.16a26.75 26.75 0 0 0-6.53 0v5.16z"/><path class="bb567e60-7ac5-476a-b0e8-7978a13babdf" d="M198.88 381.11v.6a11.24 11.24 0 0 0 8.77-10.71c0-6.14-5.29-11.11-11.82-11.11S184 364.85 184 371a11.22 11.22 0 0 0 8.34 10.62v-.5z"/><path class="e1e0511f-88d2-46fe-9365-ebf734a7a417" d="M198.88 381.71v-.6h-6.53v.5a12.83 12.83 0 0 0 3.48.49 12.2 12.2 0 0 0 3.05-.39z"/><path class="bb567e60-7ac5-476a-b0e8-7978a13babdf" d="M198.88 381.71v-.6h-6.53v.5a12.83 12.83 0 0 0 3.48.49 12.2 12.2 0 0 0 3.05-.39z"/></g><g id="aea83d27-fa5b-4e9e-a718-489b57359003" data-name="boutons P1"><g id="e90bbd67-7dbf-488b-b32b-f5d5a54489ed" data-name="4"><path class="bec68582-982e-489c-a652-67297d3b2943" d="M92.54 389.14c-3.86 0-8.12 1.53-8.12 4.87 0 2.95 4.1 4.62 7.94 4.62 4.11 0 8-1.73 8-4.88-.04-2.35-3.88-4.61-7.82-4.61zm-.18 8.63c-3.86 0-7-1.74-7-3.89s3.13-3.89 7-3.89 7 1.74 7 3.89-3.14 3.89-7 3.89z"/><path d="M92.36 390c-3.86 0-7 1.74-7 3.89s3.13 3.89 7 3.89 7-1.74 7-3.89-3.14-3.89-7-3.89z" style="fill:url(#ae033f0f-670a-41e1-8298-be392571102a)"/></g><g id="ac1f4c04-3877-46c1-b350-f20aa011b4b6" data-name="5"><path class="bec68582-982e-489c-a652-67297d3b2943" d="M114.79 389.14c-3.86 0-8.12 1.53-8.12 4.87 0 2.95 4.1 4.62 7.94 4.62 4.11 0 8-1.73 8-4.88-.04-2.35-3.88-4.61-7.82-4.61zm-.18 8.63c-3.86 0-7-1.74-7-3.89s3.13-3.89 7-3.89 7 1.74 7 3.89-3.14 3.89-7 3.89z"/><path d="M114.61 390c-3.86 0-7 1.74-7 3.89s3.13 3.89 7 3.89 7-1.74 7-3.89-3.14-3.89-7-3.89z" style="fill:url(#b2e1a14b-e204-4d38-a264-1e84e6fd6254)"/></g><g id="f889c750-859f-4a97-8029-35d041c70f8a" data-name="6"><path class="bec68582-982e-489c-a652-67297d3b2943" d="M133.35 395.3c-3.86 0-8.13 1.53-8.13 4.87 0 3 4.11 4.62 7.95 4.62 4.1 0 8-1.73 8-4.88-.04-2.35-3.88-4.61-7.82-4.61zm-.18 8.63c-3.86 0-7-1.74-7-3.89s3.13-3.89 7-3.89 7 1.74 7 3.89-3.17 3.89-7 3.89z"/><path d="M133.17 396.15c-3.86 0-7 1.74-7 3.89s3.13 3.89 7 3.89 7-1.74 7-3.89-3.17-3.89-7-3.89z" style="fill:url(#a22efb0f-3a73-4920-b38c-78dde12424d6)"/></g><g id="b83eef1b-68e9-406a-922f-e932367d46f8" data-name="3"><path class="bec68582-982e-489c-a652-67297d3b2943" d="M139.39 383c-3.86 0-8.13 1.53-8.13 4.88 0 2.95 4.11 4.61 8 4.61 4.1 0 8-1.73 8-4.88-.09-2.31-3.93-4.61-7.87-4.61zm-.18 8.63c-3.86 0-7-1.74-7-3.89s3.13-3.89 7-3.89 7 1.75 7 3.89-3.14 3.93-7 3.93z"/><path d="M139.21 383.89c-3.86 0-7 1.75-7 3.89s3.13 3.89 7 3.89 7-1.74 7-3.89-3.14-3.89-7-3.89z" style="fill:url(#ab2597b7-2b37-477c-9a79-495b9fa8166f)"/></g><g id="b76a40a8-b2c7-434c-bf81-a5a6306d64a6" data-name="2"><path class="bec68582-982e-489c-a652-67297d3b2943" d="M121.79 377.35c-3.86 0-8.12 1.53-8.12 4.88 0 2.95 4.1 4.61 7.94 4.61 4.11 0 8-1.73 8-4.88-.04-2.34-3.88-4.61-7.82-4.61zm-.18 8.64c-3.86 0-7-1.74-7-3.89s3.13-3.89 7-3.89 7 1.74 7 3.89-3.14 3.9-7 3.9z"/><path d="M121.61 378.21c-3.86 0-7 1.74-7 3.89s3.13 3.89 7 3.89 7-1.74 7-3.89-3.14-3.89-7-3.89z" style="fill:url(#f09c6a29-7262-4e0f-aa3e-a2ad80728fba)"/></g><g id="f05897f3-965a-441d-8925-22cefa4e7191" data-name="1"><path class="bec68582-982e-489c-a652-67297d3b2943" d="M100.5 377.78c-3.86 0-8.13 1.53-8.13 4.88 0 2.95 4.11 4.62 7.95 4.62 4.1 0 8-1.73 8-4.88-.04-2.35-3.88-4.62-7.82-4.62zm-.18 8.64c-3.86 0-7-1.74-7-3.89s3.13-3.89 7-3.89 7 1.74 7 3.89-3.14 3.89-7 3.89z"/><path d="M100.32 378.64c-3.86 0-7 1.74-7 3.89s3.13 3.89 7 3.89 7-1.74 7-3.89-3.14-3.89-7-3.89z" style="fill:url(#a800bf03-acf6-4d7a-8b39-99723b14dd62)"/></g></g><g id="e2b8c4bc-f0a7-4977-b72f-3e7a8bd44a76" data-name="boutons P2"><g id="b8cf34b1-d030-444a-a102-3cb5b28786f2" data-name="1"><path class="b3abb65b-7b79-4b7d-a8ca-8f924a4d8388" d="M225.69 399.93c-3.86 0-8.13 1.53-8.13 4.87 0 2.95 4.11 4.62 7.95 4.62 4.1 0 8-1.73 8-4.88-.04-2.35-3.88-4.61-7.82-4.61zm-.18 8.63c-3.86 0-7-1.74-7-3.89s3.13-3.89 7-3.89 7 1.74 7 3.89-3.14 3.89-7 3.89z"/><path d="M225.51 400.78c-3.86 0-7 1.74-7 3.89s3.13 3.89 7 3.89 7-1.74 7-3.89-3.14-3.89-7-3.89z" style="fill:url(#b5ed2f89-0b66-4399-be3a-e04054c35ca4)"/></g><g id="eca048e1-42f8-4ab1-8850-af3cc0cb6528" data-name="2"><path class="b3abb65b-7b79-4b7d-a8ca-8f924a4d8388" d="M247 399.49c-3.86 0-8.13 1.54-8.13 4.88 0 2.95 4.11 4.62 7.95 4.62 4.1 0 8-1.73 8-4.88-.07-2.35-3.91-4.62-7.82-4.62zm-.18 8.64c-3.86 0-7-1.74-7-3.89s3.13-3.89 7-3.89 7 1.74 7 3.89-3.17 3.89-7.03 3.89z"/><path d="M246.79 400.35c-3.86 0-7 1.74-7 3.89s3.13 3.89 7 3.89 7-1.74 7-3.89-3.14-3.89-7-3.89z" style="fill:url(#f825ee59-51cb-4843-b464-6eca38c81655)"/></g><g id="f27f35a1-d78e-4bfe-8b51-993ab61c2ce8" data-name="3"><path class="b3abb65b-7b79-4b7d-a8ca-8f924a4d8388" d="M264.58 405.18c-3.86 0-8.12 1.53-8.12 4.88 0 2.95 4.1 4.61 7.94 4.61 4.1 0 8-1.73 8-4.88-.04-2.35-3.88-4.61-7.82-4.61zm-.18 8.64c-3.86 0-7-1.75-7-3.89s3.13-3.89 7-3.89 7 1.74 7 3.89-3.14 3.89-7 3.89z"/><path d="M264.4 406c-3.86 0-7 1.74-7 3.89s3.13 3.89 7 3.89 7-1.75 7-3.89-3.14-3.89-7-3.89z" style="fill:url(#b748a8c6-b70d-45b4-964a-b6dcc77592bc)"/></g><g id="bfcba2f6-ef4c-4bbd-bbfa-634da7af607a" data-name="4"><path class="b3abb65b-7b79-4b7d-a8ca-8f924a4d8388" d="M258.54 417.44c-3.86 0-8.13 1.53-8.13 4.88 0 2.95 4.11 4.61 8 4.61 4.1 0 8-1.73 8-4.88-.09-2.35-3.93-4.61-7.87-4.61zm-.18 8.64c-3.86 0-7-1.75-7-3.89s3.13-3.89 7-3.89 7 1.74 7 3.89-3.14 3.89-7 3.89z"/><path d="M258.36 418.3c-3.86 0-7 1.74-7 3.89s3.13 3.89 7 3.89 7-1.75 7-3.89-3.14-3.89-7-3.89z" style="fill:url(#b2b85e5d-8387-4bed-bf84-fcfc553faf26)"/></g><g id="b12c2d0c-0da6-47e1-a06e-e42f0ceee9db" data-name="5"><path class="b3abb65b-7b79-4b7d-a8ca-8f924a4d8388" d="M240 411.28c-3.86 0-8.13 1.53-8.13 4.88 0 2.95 4.11 4.61 7.95 4.61 4.1 0 8-1.73 8-4.88-.07-2.35-3.91-4.61-7.82-4.61zm-.18 8.63c-3.86 0-7-1.74-7-3.89s3.13-3.89 7-3.89 7 1.75 7 3.89-3.17 3.89-7.03 3.89z"/><path d="M239.79 412.13c-3.86 0-7 1.75-7 3.89s3.13 3.89 7 3.89 7-1.74 7-3.89-3.14-3.89-7-3.89z" style="fill:url(#b153f8f7-6a66-4a7c-8b50-888f6031f3c7)"/></g><g id="b9e0490f-2182-4a52-9276-8ca23c27c2c8" data-name="6"><path class="b3abb65b-7b79-4b7d-a8ca-8f924a4d8388" d="M217.73 411.28c-3.86 0-8.13 1.53-8.13 4.88 0 2.95 4.11 4.61 8 4.61 4.1 0 8-1.73 8-4.88-.09-2.35-3.93-4.61-7.87-4.61zm-.18 8.63c-3.86 0-7-1.74-7-3.89s3.13-3.89 7-3.89 7 1.75 7 3.89-3.14 3.89-7 3.89z"/><path d="M217.55 412.13c-3.86 0-7 1.75-7 3.89s3.13 3.89 7 3.89 7-1.74 7-3.89-3.14-3.89-7-3.89z" style="fill:url(#b2abdfa2-50ff-40e6-9e4b-15bd1778e2b6)"/></g></g><path class="ad042567-5636-4767-9a1e-1c5171004b8e" d="M228.57 237.19v.07l-5.92-1v-.08zM236.56 238.53a.13.13 0 0 0 0 .06l-5.72-1v-.06z"/><path class="b2a7ef1d-bf2c-4fed-81b6-8da484e8fd42" d="m210.17 273.38-65.56-11c-.87-.14-.87-.14-.74-.92.25-1.54.47-3.08.75-4.61.78-4.31 1.48-8.63 2.22-12.95.09-.48.22-1 .29-1.44 0-.18.12-.23.31-.19l.75.13 119.31 19.98a16.13 16.13 0 0 1 4.69 1.42 11.54 11.54 0 0 1 5.67 5.9 8.36 8.36 0 0 1 .63 3.88c0 .38-.08.76-.15 1.14l-1.56 9.36c-.07.39-.13.42-.54.36l-40.11-6.72zm14.68-7.7c-.4 2.35-.79 4.71-1.19 7.07 0 .23 0 .34.3.38 1 .15 1.95.32 2.93.49.51.09.51.09.59-.37q.69-4.22 1.4-8.43c0-.08 0-.21.12-.22s.13.1.17.17c1.69 3.14 3.43 6.26 5.06 9.42a2.38 2.38 0 0 0 3.55.6c.9-.94 1.91-1.79 2.87-2.68l4.89-4.53c.08-.07.15-.22.26-.17s0 .2 0 .31v.12c-.47 2.79-.93 5.58-1.4 8.37 0 .25 0 .35.31.4 1 .16 2 .32 3.06.51.34.07.45 0 .49-.32l2.32-13.83a1.32 1.32 0 0 0-.25-1 2.34 2.34 0 0 0-3.26-.37l-2.16 2-8.12 7.4c-.25.23-.28.22-.45-.08-2.2-4.06-4.42-8.11-6.61-12.17a2.14 2.14 0 0 0-1.43-1.06A1.74 1.74 0 0 0 226 259zm-4.51-.71c.38-2.31.76-4.61 1.16-6.92a1.32 1.32 0 0 0-.45-1.21 2.4 2.4 0 0 0-3.17 0c-2.39 2.24-4.82 4.43-7.24 6.63l-2.95 2.7c-.13.12-.23.25-.37 0l-3.44-6.31c-1.1-2-2.19-4-3.3-6a2.24 2.24 0 0 0-2.21-1 1.52 1.52 0 0 0-1.5 1.37q-1.16 6.86-2.3 13.71c0 .28.05.37.35.41 1 .15 2 .32 3 .5.44.07.45.08.51-.3.46-2.73.91-5.46 1.37-8.19 0-.13 0-.27.06-.4s0-.16.11-.17.1.08.13.14.18.34.28.51c1.63 3 3.29 6 4.88 9.07a2.34 2.34 0 0 0 3.35.6c.47-.47 1-.91 1.48-1.37l6.5-6c.06-.05.09-.14.19-.11s.07.14.06.22c-.14.81-.28 1.62-.41 2.44-.35 2.06-.69 4.13-1 6.2 0 .22 0 .32.29.36l3 .5c.44.07.45.07.52-.31q.51-3.6 1.1-7.04zm33.15 5.67c-.38 2.28-.76 4.57-1.15 6.85-.06.31.06.41.38.45 1 .16 2 .32 3 .5.33.07.45 0 .5-.31.16-1 .35-2.08.51-3.12 0-.23.12-.33.4-.28l12.77 2.14c.33.05.39.18.34.45-.18 1-.34 2.08-.53 3.12-.05.25 0 .35.32.4 1 .15 2 .32 3 .49.45.07.46.07.53-.34l1.22-7.32a6.88 6.88 0 0 0-2.51-6.52 12.61 12.61 0 0 0-6.36-3c-2.38-.41-4.76-.8-7.13-1.19-.72-.12-1.45-.26-2.17-.35a1.6 1.6 0 0 0-1.91 1.29c-.46 2.27-.83 4.5-1.21 6.74zm-62.24-10.42 1.14-6.79a1.24 1.24 0 0 0 0-.47 1.91 1.91 0 0 0-1.63-1.33c-1.55-.26-3.1-.53-4.65-.77-1.84-.3-3.66-.71-5.51-.87a11.55 11.55 0 0 0-7 1.39 6.55 6.55 0 0 0-3.37 4.67q-.63 3.74-1.25 7.47c-.07.4-.07.4.36.47 1 .17 2 .32 2.93.5.33.06.45 0 .5-.31.15-1 .34-2.06.5-3.09 0-.29.17-.35.48-.3l12.67 2.12c.34 0 .42.16.37.46-.19 1-.35 2.08-.54 3.11 0 .26 0 .36.32.4 1 .16 2 .32 3 .51.33.06.44 0 .49-.32.42-2.28.81-4.57 1.19-6.85zm-38.3 1 6.47 1.08a7.76 7.76 0 0 0 2.76 0 3.93 3.93 0 0 0 3.34-2.92c.64-3.78 1.26-7.55 1.9-11.33.05-.27 0-.37-.33-.42-1-.15-2-.32-3-.5-.36-.07-.46 0-.51.33q-.92 5.58-1.86 11.15a1.08 1.08 0 0 1-1.24.95 4.41 4.41 0 0 1-.73-.08c-1-.18-2-.37-3.06-.54l-7-1.15c-.28-.05-.35-.15-.31-.38.11-.59.19-1.18.31-1.76.06-.28 0-.4-.35-.45-.84-.13-1.68-.26-2.52-.42-.34-.07-.44 0-.49.32-.24 1.49-.49 3-.74 4.45-.07.42-.07.42.42.5zM230.83 237.63l5.72 1c.15.09.15.2.13.35-.37 2.17-.73 4.34-1.11 6.51 0 .29 0 .38.34.43 3.09.5 6.18 1 9.27 1.54.32.05.34.16.31.44-.06.67-.23 1.33-.32 2-.22 1.55-.54 3.09-.8 4.63-.1.59-.17 1.19-.26 1.78 0 .2-.12.31-.4.26L228.57 254c-.65-.11-.65-.11-.56-.68q1.29-7.69 2.57-15.38c.02-.15.02-.31.25-.31zm3.94 12.7c-.13.78-.25 1.56-.39 2.34-.05.27 0 .38.33.43 1.06.16 2.11.34 3.16.53.32.06.44 0 .49-.31.25-1.55.51-3.1.78-4.66 0-.24 0-.34-.31-.38q-1.62-.25-3.24-.54c-.28-.05-.39 0-.43.27-.16.78-.26 1.55-.39 2.32zM255.63 249.17c2.55.43 5.09.86 7.64 1.27.34.06.42.17.37.47q-.7 4.14-1.39 8.3c-.07.37-.1.4-.52.33L246.38 257c-.27-.05-.34-.16-.3-.39q.72-4.21 1.41-8.43c0-.28.18-.33.47-.28 2.55.44 5.11.86 7.67 1.29zm1.31 4.88c.14-.8.27-1.6.41-2.4 0-.23 0-.36-.3-.4l-3.44-.58c-.26 0-.38 0-.42.27l-.81 4.85c0 .25.05.36.33.41l3.37.56c.3.06.42 0 .46-.3.13-.8.27-1.6.4-2.41zM173.53 244.78l-7.64-1.27c-.31 0-.37-.15-.33-.42q.72-4.2 1.42-8.42c0-.25.13-.32.4-.27l15.36 2.6c.41.07.43.11.37.49-.26 1.55-.53 3.11-.78 4.66 0 .31-.17.37-.5.32-3.07-.53-6.15-1-9.22-1.55-.46-.08-.46-.08-.52.32s-.11.7-.19 1 0 .35.31.4c2.06.33 4.11.68 6.17 1l3.16.53c.32.05.42.17.37.44s-.14.74-.19 1.11-.18.38-.51.32zm.92-5.45c.56.1 1.13.18 1.69.29.25 0 .35 0 .38-.25 0-.39.12-.78.2-1.17 0-.21 0-.32-.26-.36l-3.41-.57c-.22 0-.33 0-.36.23q-.08.62-.18 1.23c0 .23.06.3.29.33.55.07 1.1.17 1.65.27zM211.28 241.75l7.64 1.28c.44.07.5.14.42.52-.43 2-.7 4-1.05 6-.14.74-.27 1.48-.37 2.23 0 .29-.15.37-.49.31-2.08-.36-4.17-.7-6.26-1l-9-1.51c-.42-.07-.43-.08-.37-.47.26-1.56.53-3.11.77-4.67 0-.32.18-.37.52-.31l9.16 1.54c.46.07.46.07.53-.33s.09-.67.17-1 0-.4-.36-.46c-2.34-.37-4.68-.77-7-1.16l-2.31-.38c-.24 0-.32-.12-.28-.34a10.85 10.85 0 0 0 .21-1.27c0-.27.16-.31.43-.26l5.37.9 2.27.38zm-1.15 7.25c.55.09 1.11.17 1.66.27.21 0 .33 0 .36-.21l.21-1.23c0-.19-.05-.29-.27-.33l-3.33-.56c-.24 0-.35 0-.38.24 0 .4-.11.79-.19 1.17-.05.23.05.33.29.37.52.07 1.1.17 1.65.28zM268.74 251.36c.87.15 1.74.31 2.62.44.31 0 .38.18.34.43-.08.4-.13.8-.21 1.2 0 .21 0 .3.27.34l3.36.56c.28 0 .38 0 .41-.27.06-.41.15-.82.2-1.23 0-.23.15-.27.37-.24l5.4.91c.21 0 .3.13.27.33-.08.43-.16.86-.22 1.29 0 .23-.16.29-.41.25-.44-.09-.89-.15-1.34-.24-.24 0-.33 0-.36.24-.05.4-.13.8-.19 1.2 0 .23-.15.3-.4.25-.47-.08-.94-.15-1.41-.24-.17 0-.24 0-.29.17-.13.44-.08.91-.25 1.34-.07.18.07.24.24.27l1.38.22c.28 0 .38.15.33.41s-.13.78-.21 1.17c0 .21.05.31.28.34l1.34.22c.25 0 .34.13.3.36-.09.42-.17.84-.22 1.27 0 .22-.15.27-.36.24l-.65-.11-4.62-.77c-.45-.08-.45-.08-.38-.49s.12-.76.19-1.14c.05-.21 0-.3-.27-.34l-3.44-.58c-.22 0-.29 0-.31.21-.06.4-.16.8-.19 1.21s-.19.37-.5.32l-4.72-.8c-1.16-.19-.93-.1-.8-1 0-.25.09-.49.12-.74s.16-.29.4-.25c.45.09.9.15 1.34.24.27.05.39 0 .42-.26s.14-.78.19-1.17.16-.31.41-.26c.46.09.92.15 1.37.24.21 0 .3 0 .32-.2.06-.43.13-.85.22-1.27 0-.21-.05-.28-.26-.31l-1.38-.23c-.24 0-.34-.12-.29-.36s.14-.78.21-1.17c0-.23 0-.35-.31-.38-.45-.06-.9-.15-1.35-.22-.25 0-.34-.14-.29-.37q.12-.63.21-1.26c0-.24.16-.29.4-.24zM222.64 236.28l5.92 1a.42.42 0 0 1 .05.36q-1.31 7.77-2.6 15.56c0 .28-.17.37-.48.31s-.88-.19-1.33-.26l-3.89-.62c-.46-.08-.45-.08-.39-.49q1.31-7.74 2.6-15.49c.02-.14 0-.28.12-.37zM191.71 247.82l-7.71-1.28c-.3 0-.4-.14-.35-.43q.72-4.2 1.41-8.4c0-.26.15-.32.42-.27l15.39 2.56c.31.05.42.18.36.45s-.11.72-.19 1.08-.13.41-.55.34l-4.16-.7-5.06-.85c-.28 0-.37 0-.41.25-.22 1.39-.46 2.78-.69 4.17a2.74 2.74 0 0 1 0 .28c-.11.6-.11.6.58.72l8.92 1.49c.42.07.45.11.39.5s-.15.72-.18 1.08-.19.35-.48.3c-.56-.11-1.12-.2-1.68-.29z"/><path d="M291.07 282.1c-.25 1.47-.49 2.94-.74 4.41-.07.42-.07.42-.51.34l-4.27-.71c-.27 0-.37-.13-.3-.37s.07-.41.11-.62-.06-.27-.25-.29l-.49-.05c-.39-.06-.49 0-.51.37v.19c0 .43-.14.5-.63.42-1.39-.23-2.79-.47-4.19-.69-.32-.05-.4-.19-.36-.45.5-3 1-5.91 1.49-8.86.06-.36.14-.42.55-.33 2.95.58 5.92 1 8.87 1.52.52.09 1 .13 1.55.22s.47.1.4.52c-.24 1.46-.49 2.92-.73 4.38zm-8.37-.17 1.58.27c.22 0 .32 0 .35-.22.1-.59.2-1.19.31-1.79 0-.21-.06-.3-.29-.34l-3.13-.52c-.21 0-.31 0-.35.22-.08.59-.18 1.19-.29 1.79 0 .21 0 .31.27.34zm5.47-1.49c-.52-.08-1-.16-1.55-.26-.25-.05-.36 0-.39.24-.09.59-.19 1.19-.29 1.78-.05.23.05.29.28.33 1 .16 2 .33 3 .51.28.05.39 0 .43-.27.08-.56.17-1.13.28-1.69 0-.23 0-.35-.3-.39-.48-.08-.97-.17-1.46-.25z" style="fill:#2785db"/><path d="M292.87 271.31c-.25 1.48-.5 3-.74 4.44-.07.38-.11.4-.52.34l-2.86-.48c-.41-.07-.49-.18-.43-.54.14-.85.28-1.71.43-2.56a.34.34 0 0 1 0-.1c.2-.63.12-.52.72-.43l1.48.25c.26 0 .4 0 .44-.25.09-.59.19-1.18.29-1.76 0-.21 0-.33-.3-.38l-8-1.34c-.26 0-.39.05-.42.28-.09.57-.19 1.14-.28 1.7 0 .23.05.36.31.41l3.06.52a.25.25 0 0 0 .33-.17 1.81 1.81 0 0 0 .12-.64c0-.19.11-.24.27-.29a.45.45 0 0 1 .2 0c.85.09.89.14.77.88-.21 1.26-.43 2.51-.63 3.77 0 .26-.17.34-.43.3l-5.43-.91c-.49-.08-.55-.15-.48-.58.49-3 1-5.91 1.48-8.87 0-.17.09-.23.28-.22s.55 0 .83.08l9.77 1.63c.55.09.55.1.47.6l-.72 4.32z" style="fill:#44c047"/><path d="M289.84 254.78c1.75.29 3.49.59 5.24.87.3 0 .4.13.35.42-.51 3-1 5.95-1.49 8.92-.05.3-.16.38-.49.32-1.4-.25-2.8-.48-4.2-.71-.36-.06-.42-.15-.36-.47 0-.12.06-.23.08-.34.08-.47.08-.47-.46-.56h-.21c-.5-.08-.51-.08-.54.39 0 .18-.1.34-.11.52s-.18.19-.35.16l-4.44-.74c-.23 0-.32-.15-.29-.35.17-1 .35-2 .51-3.06 0-.28.23-.27.45-.23l1.83.3c.8.15 1.61.24 2.4.44.25.06.44 0 .48-.27.07-.57.17-1.14.28-1.7.05-.27 0-.38-.34-.43-1.42-.22-2.83-.47-4.24-.7-.29 0-.4-.12-.35-.4.18-1 .33-2 .48-3 0-.26.15-.33.44-.28 1.77.31 3.55.6 5.33.9zm1.49 6.43c.51.08 1 .16 1.54.26.22 0 .35 0 .39-.21.09-.61.19-1.22.3-1.82 0-.2 0-.32-.27-.35l-3.09-.52c-.22 0-.32 0-.35.21-.09.63-.2 1.25-.31 1.88 0 .18 0 .26.24.29z" style="fill:#eb1416"/><path class="b2a7ef1d-bf2c-4fed-81b6-8da484e8fd42" d="m156.94 232.66 7.54 1.26c.53.09.53.09.45.57s-.13.7-.17 1-.16.33-.44.28l-9.3-1.57c-.33-.05-.41 0-.45.3-.35 2.17-.72 4.33-1.07 6.49-.05.31-.2.36-.51.31l-5.19-.87c-.3 0-.4-.14-.35-.42q.72-4.19 1.4-8.39c.05-.31.19-.34.48-.29z"/><path class="ad042567-5636-4767-9a1e-1c5171004b8e" d="M224.85 265.68 226 259a1.74 1.74 0 0 1 2.34-1.33 2.14 2.14 0 0 1 1.43 1.06c2.19 4.06 4.41 8.11 6.61 12.17.17.3.2.31.45.08l8.14-7.43 2.16-2a2.34 2.34 0 0 1 3.26.37 1.32 1.32 0 0 1 .25 1q-1.17 6.91-2.32 13.83c0 .29-.15.39-.49.32-1-.19-2-.35-3.06-.51-.3-.05-.36-.15-.31-.4.47-2.79.93-5.58 1.4-8.37v-.12c0-.04.11-.25 0-.31s-.18.1-.26.17l-4.89 4.53c-1 .89-2 1.74-2.87 2.68a2.38 2.38 0 0 1-3.55-.6c-1.63-3.16-3.37-6.28-5.06-9.42 0-.07-.06-.19-.17-.17s-.11.14-.12.22l-1.4 8.43c-.08.46-.08.46-.59.37-1-.17-1.95-.34-2.93-.49-.28 0-.34-.15-.3-.38.4-2.36.79-4.72 1.19-7.07zM220.34 265q-.59 3.46-1.16 6.95c-.07.38-.08.38-.52.31l-3-.5c-.27 0-.32-.14-.29-.36.36-2.07.7-4.14 1-6.2.13-.82.27-1.63.41-2.44 0-.08.06-.18-.06-.22s-.13.06-.19.11l-6.5 6c-.5.46-1 .9-1.48 1.37a2.34 2.34 0 0 1-3.35-.6c-1.59-3-3.25-6.05-4.88-9.07-.1-.17-.19-.34-.28-.51s-.05-.14-.13-.14-.1.1-.11.17 0 .27-.06.4c-.46 2.73-.91 5.46-1.37 8.19-.06.38-.07.37-.51.3-1-.18-2-.35-3-.5-.3 0-.4-.13-.35-.41q1.16-6.86 2.3-13.71a1.52 1.52 0 0 1 1.5-1.37 2.24 2.24 0 0 1 2.21 1c1.11 2 2.2 4 3.3 6l3.44 6.31c.14.27.24.14.37 0l2.95-2.7c2.42-2.2 4.85-4.39 7.24-6.63a2.4 2.4 0 0 1 3.17 0 1.32 1.32 0 0 1 .45 1.21c-.4 2.31-.78 4.61-1.16 6.92zM253.49 270.64c.38-2.24.75-4.47 1.13-6.7a1.6 1.6 0 0 1 1.91-1.29c.72.09 1.45.23 2.17.35 2.37.39 4.75.78 7.13 1.19a12.61 12.61 0 0 1 6.36 3 6.88 6.88 0 0 1 2.51 6.52q-.6 3.66-1.22 7.32c-.07.41-.08.41-.53.34-1-.17-2-.34-3-.49-.29 0-.37-.15-.32-.4.19-1 .35-2.08.53-3.12.05-.27 0-.4-.34-.45l-12.77-2.14c-.28-.05-.36 0-.4.28-.16 1-.35 2.08-.51 3.12-.05.3-.17.38-.5.31-1-.18-2-.34-3-.5-.32 0-.44-.14-.38-.45.39-2.28.77-4.57 1.15-6.85zM264 273l6.37 1.07c.3 0 .43 0 .46-.28s.08-.52.12-.78a4.27 4.27 0 0 0-1.54-4.2 8.48 8.48 0 0 0-4-1.85c-2.25-.43-4.52-.78-6.77-1.17-.34-.06-.36.12-.4.33q-.44 2.69-.9 5.37c0 .29 0 .4.36.46zM191.25 260.22c-.38 2.28-.77 4.57-1.14 6.85-.05.3-.16.38-.49.32-1-.19-2-.35-3-.51-.29 0-.36-.14-.32-.4.19-1 .35-2.08.54-3.11.05-.3 0-.41-.37-.46l-12.67-2.12c-.31-.05-.44 0-.48.3-.16 1-.35 2.05-.5 3.09 0 .3-.17.37-.5.31-1-.18-1.95-.33-2.93-.5-.43-.07-.43-.07-.36-.47q.62-3.74 1.25-7.47a6.55 6.55 0 0 1 3.37-4.67 11.55 11.55 0 0 1 7-1.39c1.85.16 3.67.57 5.51.87 1.55.24 3.1.51 4.65.77a1.91 1.91 0 0 1 1.59 1.37 1.24 1.24 0 0 1 0 .47l-1.14 6.79zm-10.67-1.14c2.11.35 4.22.7 6.33 1.07.32.05.44 0 .48-.29.3-1.81.6-3.63.91-5.44 0-.26 0-.37-.33-.42q-3-.48-6-1a11.11 11.11 0 0 0-3.77 0 4.85 4.85 0 0 0-3.81 2.54 7.49 7.49 0 0 0-.52 2c-.07.4-.07.41.4.48zM153 261.25l-7-1.17c-.49-.08-.49-.08-.42-.5.25-1.48.5-3 .74-4.45.05-.28.15-.39.49-.32.84.16 1.68.29 2.52.42.31.05.41.17.35.45-.12.58-.2 1.17-.31 1.76 0 .23 0 .33.31.38l7 1.15c1 .17 2 .36 3.06.54a4.41 4.41 0 0 0 .73.08 1.08 1.08 0 0 0 1.24-.95q.94-5.58 1.86-11.15c0-.3.15-.4.51-.33 1 .18 2 .35 3 .5.3.05.38.15.33.42-.64 3.78-1.26 7.55-1.9 11.33a3.93 3.93 0 0 1-3.34 2.92 7.76 7.76 0 0 1-2.76 0l-6.41-1.08z"/><path class="b2a7ef1d-bf2c-4fed-81b6-8da484e8fd42" d="m264 273-6.33-1c-.34-.06-.41-.17-.36-.46q.47-2.68.9-5.37c0-.21.06-.39.4-.33 2.25.39 4.52.74 6.77 1.17a8.48 8.48 0 0 1 4 1.85 4.27 4.27 0 0 1 1.54 4.2c0 .26-.1.52-.12.78s-.16.33-.46.28zM180.58 259.08l-6.3-1.06c-.47-.07-.47-.08-.4-.48a7.49 7.49 0 0 1 .52-2 4.85 4.85 0 0 1 3.81-2.54 11.11 11.11 0 0 1 3.77 0q3 .51 6 1c.31.05.38.16.33.42-.31 1.81-.61 3.63-.91 5.44 0 .29-.16.34-.48.29-2.11-.37-4.22-.72-6.33-1.07z"/></g><g id="f78b0f16-1996-4a2e-a3b4-5febda483701" data-name="a7a5c80a-4926-4281-bf23-e0a0a4296e32"><path class="b32d6496-15c2-4c35-a46d-938df37d84b8" d="m87.9 95.17 22.22 3.52c-.14 1.43.42 2.15 2.1 2.22a19.87 19.87 0 0 1 4.28.68c1.69.47 2.21-.15 2.15-1.57l22.06 3.43c1.75.78 3.52 1.46 5.24 2.32 1.56.75 2.39.55 2.48-1l11.11 1.75c-.67 1.51.05 2 1.7 2.12a32.74 32.74 0 0 1 5.13.81c1.68.41 2.77.19 3.12-1.41l20.9 3.28a2.79 2.79 0 0 0 2.93 2.37 33.13 33.13 0 0 1 5.37.85c1.75.41 2.08-.18 1.52-1.64l4.57.68c-.1 1.43.43 2.16 2.12 2.26a25.93 25.93 0 0 1 5.13.8c1.69.43 2.26-.09 2.14-1.58l4.78.78c-.4 1.4.19 2 1.78 2.14a38.11 38.11 0 0 1 5.35.84c1.64.39 2.63.09 2.88-1.45l21.15 3.32c.31 1.6 1.29 2.24 2.94 2.37a33.19 33.19 0 0 1 5.37.87c1.77.45 2.21-.06 1.72-1.61l3.12.44c0 1.12.4 1.73 1.75 1.87a56.61 56.61 0 0 1 6 .94c1.33.27 1.83-.12 1.73-1.31l13.21 2a4.18 4.18 0 0 0 4 2.59 26.49 26.49 0 0 1 5 .79c2.1.53 2-.25 1.19-1.69l3.64.54c0 1.59.89 2.21 2.55 2.32a31.21 31.21 0 0 1 4 .75c5 4.17 7 9.77 5.25 14.71s-6.85 7.5-13.11 6.5L91.06 119.81c-6.15-1-10.88-4.68-12.75-10S78.1 99.66 83 96.68c.25-.16.52-.29.52-.63a15.43 15.43 0 0 0 4.38-.88zm58.87 30.21 4.35.69c.64.1 1.19.15 1.24-.62.16-2.47 1.86-2.53 4-1.92a17.4 17.4 0 0 0 2.76.43c.82.09 1.47.34 1.52 1.24.12 2.28 1.58 2.92 3.59 3a9.7 9.7 0 0 1 2 .31c.93.21 1.32.11 1-1q-2.73-8.18-5.32-16.37a1.59 1.59 0 0 0-1.59-1.2c-2.12-.3-4.24-.6-6.33-1-1.05-.2-1.45.1-1.75 1-1.52 4.3-3.14 8.55-4.71 12.83a6.13 6.13 0 0 0-.73 2.63zm-53.48-17.26v4.64a4 4 0 0 0 1 2.68c2.76 3.19 13 4.74 15.7 2.41a3.84 3.84 0 0 0 .9-4.22c-.31-1-1.85-.55-2.82-.88-.18-.06-.39 0-.58-.09-1.64-.52-2.33-.16-2.18 1.59s-.77 2.13-3 1.77-3-1-3-2.72c0-2.67.1-5.32 0-8-.08-2 1.23-2 2.75-1.88 2.29.22 3.25 1 3.28 2.68 0 1 .42 1.32 1.36 1.39.65 0 1.31.21 2 .31 2.45.39 3.16-.69 2-3a5.18 5.18 0 0 0-2.55-2.31 20.8 20.8 0 0 0-11.77-1.86c-2.24.35-3 1.46-3 3.76v3.7zm156 24.65v4.69a4 4 0 0 0 1.06 2.72c2.82 3.23 13.24 4.81 16.07 2.47a3.87 3.87 0 0 0 .93-4.27c-.32-1.06-1.9-.56-2.88-.9-.2-.06-.41 0-.61-.09-1.66-.53-2.38-.18-2.23 1.6s-.78 2.15-3.08 1.79-3-1-3-2.76c0-2.69.1-5.37 0-8.08-.08-2 1.26-2 2.82-1.9 2.34.24 3.32 1 3.34 2.72 0 1.05.42 1.34 1.39 1.41.67.05 1.35.21 2 .32 2.5.39 3.23-.69 2-3a5.39 5.39 0 0 0-2.61-2.35 21.48 21.48 0 0 0-12-1.89c-2.3.34-3.09 1.47-3.11 3.78v3.75zm-64.46-1c3.53.56 5.35.56 6.91 0 2.82-.93 3.21-3.6.89-6a20.27 20.27 0 0 0-3.89-2.81c-1.54-.94-3.09-1.88-4.59-2.89-1-.66-2-1.56-1.59-2.75s1.72-1 2.81-.81 2.62.32 2.83 1.84c.16 1.15.69 1.4 1.68 1.47.72.06 1.46.28 2.18.32s1.6.67 1.94 0a2.65 2.65 0 0 0-.43-2.38 4.69 4.69 0 0 0-1.74-1.74 18.2 18.2 0 0 0-13.11-2.02c-2.91.69-3.2 3.59-.87 5.93a23.13 23.13 0 0 0 4.77 3.34 22.26 22.26 0 0 1 4.49 3c.85.84 1.47 1.93.37 2.6s-2.69.35-4.16-.2a1.85 1.85 0 0 1-1.36-2.14c.08-.87-.57-1-1.16-1-1.53 0-3.18-1.13-4.62-.24-.1.06 0 .36 0 .54-.06 2 1.17 3.28 2.95 4.23a15.76 15.76 0 0 0 5.7 1.68zm27.47 4.36c3.39.53 5.26.56 6.77.11 3.06-.9 3.5-3.7 1-6.17a23.44 23.44 0 0 0-4.65-3.2A26.88 26.88 0 0 1 211 124c-.86-.76-1.44-1.7-.82-2.55s2.07-.7 3.25-.41c1 .26 2.27.54 2.33 1.91 0 1 .55 1.19 1.4 1.27s1.61.3 2.39.35 1.63.67 2 0a2.63 2.63 0 0 0-.41-2.38 5 5 0 0 0-1.93-1.88c-4.32-2.23-8.73-3-13-2-3 .72-3.25 3.69-.77 6.08a23.62 23.62 0 0 0 4.65 3.21 21.89 21.89 0 0 1 4.5 3c.87.83 1.51 1.92.43 2.61s-2.7.37-4.18-.16a1.85 1.85 0 0 1-1.39-2.13c.09-.85-.53-1-1.14-1-1.55 0-3.19-1.09-4.66-.28-.1.06 0 .36 0 .55-.08 2 1.15 3.28 2.93 4.25a16.05 16.05 0 0 0 5.71 1.7zm75 11.89a14.48 14.48 0 0 0 6.34.15c3.33-.82 3.83-3.82 1-6.39a23.87 23.87 0 0 0-3.08-2.23c-1.78-1.15-3.61-2.2-5.38-3.37-1-.66-1.81-1.51-1.5-2.64s1.58-1 2.62-.89 2.8.26 3 1.66c.27 1.63 1.21 1.64 2.34 1.8a16.68 16.68 0 0 1 2.42.38c1.33.37 1.45-.28 1.27-1.23-.41-2.18-2.11-3.31-4.06-4.08a23.59 23.59 0 0 0-8.8-1.57c-2.32 0-4.6.32-5 2.82s1.7 4 3.75 5.36 4.3 2.66 6.42 4.06c1 .67 2.05 1.64 1.44 2.75-.69 1.29-2.25.87-3.55.56-1.08-.25-2.5-.55-2.39-2.06.09-1.2-.53-1.42-1.56-1.5-.66-.06-1.34-.25-2-.32s-1.93-.71-2.23-.08a3.17 3.17 0 0 0 .58 3.11 7.11 7.11 0 0 0 2.8 2.17 17.64 17.64 0 0 0 5.55 1.54zm-164.85-35.37v7.61c0 1 .29 1.31 1.32 1.47q6.69 1 13.39 2.12c1.16.19 1.25-.3 1.25-1.15s0-1.39-1.23-1.53c-2.43-.3-4.86-.8-7.29-1.11-1.05-.14-1.33-.47-1.3-1.45.07-3.08 0-6.18.05-9.27 0-4.6 0-4.56-4.83-5.18-1-.14-1.33.1-1.31 1.06v7.43zm115.88 18.44v-4.49c0-4.51 0-4.44-4.74-5.16-1.32-.21-1.51.19-1.5 1.27 0 3.93 0 7.85-.05 11.78 0 4.63 0 4.59 4.94 5.21 1.12.14 1.31-.21 1.29-1.13v-7.48z"/><path d="M272.68 124.22c.09 1.19-.4 1.59-1.73 1.31a59.49 59.49 0 0 0-6-.94c-1.35-.14-1.77-.75-1.75-1.86q.1-13.16.19-26.3c0-4.64 0-9.28.06-13.92.08-5.92 3.07-8.35 9.39-7.43 3.48.5 7 .77 10.43 2.1A19.22 19.22 0 0 1 295.69 93a13 13 0 0 1-9.37 13.63c-2.38.73-2.4.73-1 3.09q5.35 9.11 10.75 18.2c.86 1.44.91 2.21-1.19 1.69a26.24 26.24 0 0 0-5-.79 4.16 4.16 0 0 1-4-2.59l-9.63-16.63c-3.31-5.73-1.73-9.35 4.52-10.19a6.34 6.34 0 0 0 5.7-6.35 9.11 9.11 0 0 0-6-8c-2.25-.88-4.55-.84-6.82-1.31-1-.2-.83.47-.83 1zM169.48 108c-.35 1.6-1.45 1.82-3.12 1.41a32.74 32.74 0 0 0-5.13-.81c-1.65-.13-2.37-.61-1.7-2.13q3.81-12.12 7.62-24.26c1.8-5.76 3.56-11.54 5.34-17.32 1-3.34 3.45-4.94 6.81-4.46s5.87 2.77 7 6.56q6.7 22.19 13.4 44.4c.16.5.33 1 .49 1.5.56 1.46.23 2-1.52 1.64a34.27 34.27 0 0 0-5.37-.85 2.78 2.78 0 0 1-2.93-2.36c-.94-3.19-1.9-6.36-2.8-9.55a1.56 1.56 0 0 0-1.45-1.32q-6.37-1-12.7-2c-.7-.11-1.12 0-1.3.63-.88 3-1.76 5.92-2.6 8.91zm5.29-17.55 9.84 1.55-5.15-16.77zm54.15 26.89c-.25 1.54-1.25 1.83-2.89 1.45a37.74 37.74 0 0 0-5.34-.84c-1.6-.15-2.18-.74-1.79-2.14q3.25-10.08 6.45-20.18c2.3-7.26 4.55-14.55 6.84-21.82a5.74 5.74 0 0 1 6.81-4.23c3.34.49 5.79 2.78 6.89 6.3q6.75 22.28 13.48 44.57c.19.62.46 1.23.69 1.83.5 1.56 0 2.07-1.71 1.62a32.46 32.46 0 0 0-5.35-.9c-1.66-.13-2.64-.77-2.94-2.37q-1.41-4.78-2.8-9.59a1.63 1.63 0 0 0-1.54-1.33c-4.22-.62-8.42-1.28-12.63-2-1-.15-1.37.12-1.61 1-.81 2.89-1.71 5.74-2.58 8.62zM239.28 85l-.36-.09q-2.17 7.09-4.38 14.18c-.24.8.45.79 1 .87l8.77 1.37c-1.74-5.53-3.39-10.92-5.03-16.33zm-25.16 30c.14 1.48-.43 2-2.14 1.58a26.73 26.73 0 0 0-5.12-.81c-1.71-.1-2.24-.85-2.13-2.25q.08-19.44.25-38.88c0-1.06-.44-1.29-1.41-1.43-2.85-.41-5.71-.93-8.56-1.32-1.14-.18-1.7-.43-1.6-1.66.12-2 .08-4 0-6 0-.87.11-1.32 1.26-1.13q14.93 2.35 29.93 4.59c1 .15 1.26.49 1.23 1.37-.07 2.05-.1 4.11 0 6.18 0 1.08-.33 1.35-1.47 1.15-2.92-.52-5.88-.91-8.79-1.4-1-.16-1.35.06-1.35 1q0 19.5-.1 39zm92.18 16.52a31.53 31.53 0 0 0-4-.75c-1.67-.1-2.52-.73-2.56-2.32.06-.67.15-1.34.15-2 .08-15.06.2-30.12.2-45.19 0-1.71.51-2.12 2.26-1.68a27.58 27.58 0 0 0 5.05.78c2 .09 2.27.92 2.25 2.55-.13 11-.15 22.1-.21 33.16 0 4.64-.13 9.28 0 13.93 0 1.6-.43 2.11-2.11 1.59a3.68 3.68 0 0 0-1 0zM87.9 95.17a15.36 15.36 0 0 1-4.41.88c-2.76-.43-2.76-.43-2.75-3.25 0-1.79-.51-3.9.18-5.28s3.15-.81 4.76-1.32c11.06-3.52 16.9-11.08 17.39-22.66.2-4.74.1-9.53 0-14.31 0-1.07.18-1.47 1.47-1.27 4.44.68 4.43.61 4.43 4.76 0 5 0 10.05-.05 15.06q-.27 21.54-21.02 27.39zm60.51 9.54c-.09 1.6-.92 1.81-2.48 1.05-1.71-.85-3.49-1.55-5.23-2.32a45.61 45.61 0 0 1-14.1-12.9c-4.2-6.14-6.47-12.57-6.51-19.36 0-6.48.07-12.89 0-19.36 0-1.28.45-1.43 1.67-1.24 4.29.66 4.22.65 4.3 4.69.09 5.34-.62 10.61.32 16 2 11.51 8.91 20 20.19 25.55 1.28.63 1.75 1.16 1.7 2.44a21.45 21.45 0 0 0 .13 5.42zM118.64 100c0 1.43-.46 2-2.15 1.57a19.85 19.85 0 0 0-4.28-.67c-1.67-.07-2.23-.79-2.1-2.23l.2-46.59c0-3.23 0-3.24 3.51-2.69 1.58.25 3.64.06 4.54 1s.32 2.95.32 4.47v45.16z" style="fill:#b30202"/><path d="M146.78 125.36a6.08 6.08 0 0 1 .74-2.64c1.57-4.28 3.2-8.53 4.71-12.83.3-.87.7-1.18 1.76-1 2.11.41 4.23.71 6.32 1 .8.13 1.31.31 1.59 1.21q2.61 8.2 5.32 16.36c.36 1.06 0 1.18-1 1a9.73 9.73 0 0 0-2-.32c-2 0-3.47-.67-3.59-2.94 0-.92-.7-1.16-1.52-1.24a17.42 17.42 0 0 1-2.76-.44c-2.18-.61-3.88-.56-4 1.92-.05.78-.6.73-1.24.63-1.44-.25-2.9-.47-4.35-.7zm7.22-4.61 5.55.88-2.55-8.25-.39-.1-2.61 7.47zm-60.71-12.63v-3.71c0-2.29.79-3.41 3-3.75a20.69 20.69 0 0 1 11.76 1.85 5.24 5.24 0 0 1 2.56 2.31c1.19 2.3.48 3.37-2 3-.65-.11-1.32-.26-2-.31-.94-.07-1.35-.34-1.36-1.39 0-1.73-1-2.46-3.27-2.69-1.52-.15-2.84-.1-2.76 1.88.11 2.68 0 5.32 0 8 0 1.75.71 2.37 3 2.73s3.15 0 3-1.78.53-2.11 2.17-1.59c.2.06.4 0 .59.1 1 .32 2.51-.15 2.82.88a3.85 3.85 0 0 1-.9 4.21c-2.76 2.34-12.94.79-15.7-2.4a3.93 3.93 0 0 1-1-2.68v-4.64zm156 24.65v-3.76c0-2.31.81-3.44 3.11-3.78a21.39 21.39 0 0 1 12 1.89 5.34 5.34 0 0 1 2.61 2.35c1.21 2.32.48 3.4-2 3-.67-.11-1.34-.26-2-.32-1-.07-1.37-.35-1.39-1.41 0-1.74-1-2.49-3.34-2.72-1.56-.15-2.9-.1-2.82 1.9.1 2.71 0 5.38 0 8.08 0 1.76.73 2.4 3 2.76s3.22 0 3.08-1.79.55-2.13 2.23-1.6c.2.06.41 0 .61.09 1 .34 2.56-.14 2.88.9a3.85 3.85 0 0 1-.93 4.26c-2.83 2.35-13.25.77-16.07-2.46a4 4 0 0 1-1.06-2.72v-4.68zm-64.46-1a15.87 15.87 0 0 1-5.71-1.71c-1.78-1-3-2.26-3-4.23 0-.18-.07-.47 0-.54 1.42-.88 3.09.26 4.63.24.59 0 1.24.11 1.16 1a1.84 1.84 0 0 0 1.35 2.14c1.48.55 3 .92 4.17.19s.48-1.75-.38-2.59a22 22 0 0 0-4.49-3 23 23 0 0 1-4.77-3.34c-2.33-2.37-2-5.24.87-5.93a18.24 18.24 0 0 1 13.16 2 4.89 4.89 0 0 1 1.75 1.75 2.64 2.64 0 0 1 .43 2.38c-.33.71-1.28.07-1.94 0s-1.47-.26-2.19-.32c-1-.07-1.52-.32-1.68-1.47-.2-1.53-1.69-1.64-2.83-1.84s-2.41-.43-2.8.81.57 2.07 1.58 2.75c1.5 1 3.05 2 4.6 2.89a19.49 19.49 0 0 1 3.88 2.81c2.33 2.37 1.93 5-.88 6-1.56.56-3.38.56-6.91 0zm27.47 4.36a16 16 0 0 1-5.73-1.72c-1.78-1-3-2.28-2.93-4.25 0-.19-.08-.49 0-.54 1.45-.82 3.11.26 4.66.27.63 0 1.23.16 1.14 1a1.85 1.85 0 0 0 1.39 2.13c1.48.55 3 .92 4.17.16s.45-1.77-.42-2.61a22.9 22.9 0 0 0-4.5-3 23.92 23.92 0 0 1-4.65-3.2c-2.48-2.4-2.22-5.37.77-6.09 4.27-1 8.65-.23 13 2a4.87 4.87 0 0 1 1.92 1.87 2.61 2.61 0 0 1 .42 2.38c-.34.67-1.3.05-2 0s-1.6-.25-2.39-.34-1.36-.3-1.4-1.28c-.06-1.37-1.3-1.65-2.33-1.91s-2.53-.56-3.25.41 0 1.79.82 2.55a26 26 0 0 0 4.37 2.89A24 24 0 0 1 220 130c2.54 2.47 2.11 5.27-1 6.17-1.49.47-3.37.44-6.75-.09zm75 11.89a17.35 17.35 0 0 1-5.56-1.5 6.92 6.92 0 0 1-2.8-2.16 3.15 3.15 0 0 1-.59-3.11c.3-.63 1.46 0 2.24.08s1.34.24 2 .32c1 .08 1.64.3 1.56 1.5-.11 1.5 1.3 1.81 2.38 2.06 1.31.31 2.86.73 3.55-.56.62-1.13-.43-2.08-1.44-2.75-2.11-1.4-4.3-2.66-6.42-4.06s-4.17-2.81-3.75-5.36 2.71-2.82 5-2.82a23.58 23.58 0 0 1 8.79 1.57c1.95.77 3.66 1.9 4.06 4.08.18.95.06 1.6-1.26 1.23a17.12 17.12 0 0 0-2.42-.38c-1.14-.16-2.08-.17-2.35-1.8-.23-1.4-1.86-1.5-3-1.66s-2.29-.32-2.62.89.53 2 1.5 2.64c1.76 1.17 3.6 2.22 5.38 3.37a23.6 23.6 0 0 1 3.07 2.17c2.81 2.56 2.3 5.56-1 6.4a14.65 14.65 0 0 1-6.31-.15zm-164.85-35.37c0-2.49.06-4.94 0-7.42 0-1 .27-1.2 1.31-1.07 4.85.62 4.85.59 4.83 5.18 0 3.1 0 6.2-.05 9.28 0 1 .27 1.31 1.3 1.44 2.43.32 4.86.81 7.29 1.11 1.18.15 1.23.69 1.23 1.54s-.09 1.35-1.25 1.15c-4.46-.78-8.93-1.48-13.39-2.13-1-.17-1.35-.49-1.32-1.47.06-2.53 0-5.08 0-7.61zm115.88 18.44c0 2.51-.06 5 0 7.49 0 .91-.17 1.26-1.29 1.12-5-.61-5-.57-4.94-5.21 0-3.92.07-7.85.05-11.78 0-1.08.18-1.47 1.5-1.27 4.76.73 4.76.67 4.74 5.17z" style="fill:#fefdfd"/><path class="b32d6496-15c2-4c35-a46d-938df37d84b8" d="m154 120.75 2.62-7.47.39.1 2.54 8.25z"/></g></svg>