<svg xmlns="http://www.w3.org/2000/svg" xmlns:xlink="http://www.w3.org/1999/xlink" viewBox="0 0 470.58 67.66"><defs><style>.a01d486e-3480-4dd9-bd78-89258e5c233a{stroke:#9def48;stroke-miterlimit:10;fill:url(#bd80f119-c1a3-442c-870c-e0c7b28fed49);}.abd3ef54-a834-41ce-b163-c0c9bfe685ca{fill:#9def48;}.a7229175-2189-4541-b4a9-c61c2e209ce2{fill:#fff;}.b1db6100-8c7b-4fb7-88d2-1d831874c3dc{fill:#3d3832;}.bf13445c-36b6-429c-9b7c-5801302a9da9{fill:#fcfcfc;}</style><linearGradient id="bd80f119-c1a3-442c-870c-e0c7b28fed49" x1="0.5" y1="33.83" x2="470.08" y2="33.83" gradientUnits="userSpaceOnUse"><stop offset="0" stop-color="#032c02"/><stop offset="1" stop-color="#207a09"/></linearGradient></defs><g id="b5ac97ac-3d11-430b-a380-50a5d1324551" data-name="calque3"><polygon class="a01d486e-3480-4dd9-bd78-89258e5c233a" points="0.5 6.04 102.57 6.04 108.7 0.5 150.44 0.5 158.35 6.04 461.77 6.24 470.08 16.13 470.08 59.84 50.94 59.84 42.83 67.16 8.02 67.16 0.5 59.84 0.5 6.04"/><path class="abd3ef54-a834-41ce-b163-c0c9bfe685ca" d="M61.16,37.3l-4.29,6.82H51.79L67.36,19.61h4.69L87.5,44.12h-5L78.25,37.3Zm14.56-4-6-9.59-6,9.59Z"/><path class="abd3ef54-a834-41ce-b163-c0c9bfe685ca" d="M99.73,40.65l-4.07,4.06v-21H82.37V19.61H113v4.07H99.73Z"/><path class="abd3ef54-a834-41ce-b163-c0c9bfe685ca" d="M117.27,37.3,113,44.12H107.9l15.57-24.51h4.68L143.6,44.12h-5l-4.23-6.82Zm14.56-4-6-9.59-6,9.59Z"/><path class="abd3ef54-a834-41ce-b163-c0c9bfe685ca" d="M168.71,40.05h2.71a17.63,17.63,0,0,0,2.19-6.17H149.43a17.46,17.46,0,0,0,2.2,6.17h2.7v4.07h-4.88a17.62,17.62,0,0,1-4.14-10.24h-3.84V29.83h3.84a17.51,17.51,0,0,1,4.14-10.22h24.14a17.54,17.54,0,0,1,4.14,10.24l-1.76,1v2.05l1.76,1a17.62,17.62,0,0,1-4.14,10.24h-4.88ZM149.43,29.83h24.18a17.47,17.47,0,0,0-2.19-6.15H151.63A17.3,17.3,0,0,0,149.43,29.83Z"/><path class="abd3ef54-a834-41ce-b163-c0c9bfe685ca" d="M186.92,44.12h-4.06v-21L186.92,19Z"/></g><g id="a2e68459-235e-47b6-b721-440a60bbff86" data-name="atari"><path class="a7229175-2189-4541-b4a9-c61c2e209ce2" d="M18.85,43.45a1.7,1.7,0,0,1-.22-2.38,1.68,1.68,0,0,1,.86-.57c4.32-1.23,8.57-2.52,12.88-3.75V39c-1.15.35-2.37.71-3.52,1v4.25c1.15.36,2.37.72,3.52,1v2.23c-4.1-1.15-8.2-2.37-12.3-3.52a3.14,3.14,0,0,1-1.22-.5m2.59-1.3c1.8.5,3.59,1,5.32,1.51V40.57C25,41.07,23.24,41.58,21.44,42.15ZM18.92,27.91a1.73,1.73,0,0,1-.65-1.8,1.76,1.76,0,0,1,1.22-1.23c4.32-1.22,8.57-2.51,12.88-3.74v2.23l-3.6,1.08V28.7c1.16.36,2.38.72,3.53,1v2.16c-4.1-1.15-8.2-2.37-12.3-3.59a2.08,2.08,0,0,1-1.08-.36m7.84.21V25c-1.8.5-3.6,1-5.32,1.51C23.24,27,25,27.62,26.76,28.12ZM18.2,38.41v-8h2.16v2.95H32.3v2.09H20.36v2.95Zm.14-19.57a2.17,2.17,0,0,1-.14-.65V15.67a4,4,0,0,1,2.16-3.38A4.85,4.85,0,0,1,23,11.93a3.89,3.89,0,0,1,2.52,1.23,8.27,8.27,0,0,1,.86,1.29c.14.22.5.22.72.15,1.73-1.08,3.38-2.31,5.11-3.39v2.52c-1.66,1.08-3.31,2.16-4.89,3.24a1.8,1.8,0,0,1-1.59.22,1.42,1.42,0,0,1-.86-.94,3.58,3.58,0,0,0-1.44-1.94,2.58,2.58,0,0,0-1.8-.15,1.71,1.71,0,0,0-1.29,1.66v1.65c0,.22.21.51.43.51H32.3v2.08H19.93a1.69,1.69,0,0,1-1.59-1.22Zm-.14-8.78V7.83H32.3v2.23Z"/><path class="b1db6100-8c7b-4fb7-88d2-1d831874c3dc" d="M30.79,65.46a1.6,1.6,0,0,0,1.58-1.58v-11a1.6,1.6,0,0,0-1.58-1.58h-11a1.6,1.6,0,0,0-1.58,1.58v11a1.6,1.6,0,0,0,1.58,1.58Z"/><path class="a7229175-2189-4541-b4a9-c61c2e209ce2" d="M20.86,60v-.72h3a9.25,9.25,0,0,1,1.95.22,4.66,4.66,0,0,1,1.29.43,5.22,5.22,0,0,1,1.73,1.37A4,4,0,0,1,29.78,63a5.41,5.41,0,0,1,.29,1.08H28.7a4.35,4.35,0,0,0-.43-1.29,3.19,3.19,0,0,0-1-1.22,5.61,5.61,0,0,0-1.36-.87,5.09,5.09,0,0,0-1.8-.5c-.79-.14-1.58-.14-2.38-.22Zm0-.93v-1.3h9.21v1.3H20.86Zm0-1.58v-.72a17.65,17.65,0,0,0,2.81-.15,7.68,7.68,0,0,0,2.16-.5A5.7,5.7,0,0,0,27.55,55a5.36,5.36,0,0,0,1-1.73c.07-.14.07-.36.14-.58h1.37a5.41,5.41,0,0,1-.29,1.08A9.06,9.06,0,0,1,29.21,55a3.11,3.11,0,0,1-.58.72,7.83,7.83,0,0,1-1.22,1,5.73,5.73,0,0,1-1.15.51L25,57.4a15.74,15.74,0,0,1-2.66.08Z"/><path class="bf13445c-36b6-429c-9b7c-5801302a9da9" d="M20.86,59.06h9.21v-1.3H20.86v1.3m0-1.58h1.51c.87,0,1.8,0,2.66-.08a7.36,7.36,0,0,0,1.23-.21,5.73,5.73,0,0,0,1.15-.51,5.2,5.2,0,0,0,1.22-1,5.91,5.91,0,0,0,.58-.72,6.32,6.32,0,0,0,.57-1.23,5.41,5.41,0,0,0,.29-1.08H28.7a1.76,1.76,0,0,1-.14.58,5.36,5.36,0,0,1-1,1.73,4.65,4.65,0,0,1-1.72,1.15,6.7,6.7,0,0,1-2.16.5,17.65,17.65,0,0,1-2.81.15v.72"/></g></svg>