<svg xmlns="http://www.w3.org/2000/svg" xmlns:xlink="http://www.w3.org/1999/xlink" viewBox="0 0 746.51 822.18"><defs><style>.a96d1e38-b698-4394-9eba-beb6273b3de3,.e0bcf5d5-1c5a-411c-99fc-33897bb6e78b,.f1df7ca4-6929-4700-ac87-4deb846bac45{fill:#373735;}.f1df7ca4-6929-4700-ac87-4deb846bac45{opacity:0.5;}.f5f12c39-b3fb-49b7-8efb-81fb1836731b{fill:#121211;}.a21984bd-9a95-443b-88cf-4578124a8ba5,.a96d1e38-b698-4394-9eba-beb6273b3de3,.aa32e4f0-e026-4f02-823a-3039a1ba2430,.ab63f8b7-0164-445a-9a6a-5238526d2a45,.bb40ba72-f579-4e9e-a29a-e68b85170998,.f5f12c39-b3fb-49b7-8efb-81fb1836731b,.fb98016d-daf9-4158-9670-71b30c952e4a{stroke:#b5b5b5;}.a21984bd-9a95-443b-88cf-4578124a8ba5,.a96d1e38-b698-4394-9eba-beb6273b3de3,.aa32e4f0-e026-4f02-823a-3039a1ba2430,.ab63f8b7-0164-445a-9a6a-5238526d2a45,.b75b89ab-d834-4be0-83eb-2310ecc5c1cc,.b9df1035-2c0e-4a70-9533-f8f7edf6b691,.bb40ba72-f579-4e9e-a29a-e68b85170998,.e9984e1d-e89b-4d1f-90d2-8a7826a5ff28,.f5f12c39-b3fb-49b7-8efb-81fb1836731b,.f687b366-7e97-44f9-a1e1-0b32e26ac35a,.fa8cf0ce-fa49-4722-a8d3-d7e0809d234f,.fb98016d-daf9-4158-9670-71b30c952e4a{stroke-miterlimit:10;}.a21984bd-9a95-443b-88cf-4578124a8ba5,.a96d1e38-b698-4394-9eba-beb6273b3de3,.aa32e4f0-e026-4f02-823a-3039a1ba2430,.ab63f8b7-0164-445a-9a6a-5238526d2a45,.bb40ba72-f579-4e9e-a29a-e68b85170998,.f5f12c39-b3fb-49b7-8efb-81fb1836731b,.fa8cf0ce-fa49-4722-a8d3-d7e0809d234f,.fb98016d-daf9-4158-9670-71b30c952e4a{stroke-width:0.5px;}.e9984e1d-e89b-4d1f-90d2-8a7826a5ff28{fill:#443840;}.e9984e1d-e89b-4d1f-90d2-8a7826a5ff28,.f687b366-7e97-44f9-a1e1-0b32e26ac35a,.fa8cf0ce-fa49-4722-a8d3-d7e0809d234f{stroke:#090000;}.e9984e1d-e89b-4d1f-90d2-8a7826a5ff28,.f687b366-7e97-44f9-a1e1-0b32e26ac35a{stroke-width:0.75px;}.fa8cf0ce-fa49-4722-a8d3-d7e0809d234f{fill:#6b0c05;}.f9759716-c9a5-4391-9f67-be8b507dc985{fill:#86382f;}.f687b366-7e97-44f9-a1e1-0b32e26ac35a{fill:#8b8b8b;}.b9df1035-2c0e-4a70-9533-f8f7edf6b691{stroke:#373737;}.a570ad35-bcbc-46ae-8462-8c2126d8f9fa{fill:#e50308;}.ab63f8b7-0164-445a-9a6a-5238526d2a45{fill:#bf0000;}.fb98016d-daf9-4158-9670-71b30c952e4a{fill:#dc6e05;}.f80fa362-89fb-426c-abff-03165ded548e{fill:#fc363a;}.aa32e4f0-e026-4f02-823a-3039a1ba2430{fill:#12e600;}.a21984bd-9a95-443b-88cf-4578124a8ba5{fill:#0b47ce;}.a619fb82-9407-4480-b200-98e8c5b9783b{fill:#fff;}.bb40ba72-f579-4e9e-a29a-e68b85170998,.bc8d85bf-531d-4625-ae2e-621012303015{fill:#282826;}.f397d04e-1848-42bb-a848-f0ed904fc47c{fill:#151312;}.f125456e-2863-4953-95c4-2c3c181ba494{fill:#555353;}.e80e94e2-50ef-4c40-8d2c-3466c86d5e09{fill:#008aa6;}.a91f7143-2f25-4716-ac44-a948cf5dc882{fill:#ae7a82;}.ace364de-eea1-4482-a67d-3061dea5c06c{fill:url(#af366c31-9545-47e7-aa9f-1f6ea82478e5);}.b8852635-536e-4c39-8922-68575b806111{fill:url(#b456b42c-7e1f-4dbe-9de2-a42d7d70a91d);}.b0238d98-b88c-4b35-b581-409d37090dbd{fill:#0000ef;}.fd3de01d-1533-4cb3-a000-9a7536aa95a4{fill:url(#e4e2c3d0-5d2a-4dd9-8eb6-e2464799eaf9);}.b635d661-875c-4d90-abf2-c35cd8e56900{fill:url(#b1ecfc54-8100-4feb-a417-024e26e4e19b);}.ea96f8d3-84e7-4818-8075-fb8dd2834675{fill:url(#b0bac771-5e3d-4b7b-85be-af1c7af884fc);}.e544c068-a636-495f-8e99-b86992c478e6{fill:url(#b93185a5-62da-4634-a3f0-1e7fc8cab389);}.edcb2a88-5830-4b5b-8f00-a00913621658{fill:url(#a7128392-162a-4e93-97c6-820d4f0bef4b);}.b4828700-270f-43ed-9f08-cf2dc9d75e0f{fill:url(#a3a7d9a6-8a03-4f7e-ba48-0b0673049828);}.e236b85a-3db8-4fa1-8080-cd2dd45978f3{fill:#930303;}.e8544371-effc-437a-b71d-f149c3b9b132{fill:url(#a5a9e257-8879-4c2d-91fa-5b747c6c9fa4);}.a26e0dea-3d17-4c0a-b8d4-a033957227e3{fill:url(#b578eaff-2772-476e-9190-a97559210a20);}.a341445e-9fb5-4c04-8be2-03018dad8f16{fill:url(#aeabfc83-67c2-4f54-9cc9-f7a87fabd35b);}.b889c3bb-21b3-4253-abb5-5f9fb93fb595{fill:url(#f3b71805-b79a-4236-b4a1-8b3078814723);}.ed3f40bc-c7eb-4e99-b0c8-54eaa1109211{fill:url(#b7f6f4c7-357a-4de7-87d9-f924b51add36);}.bcc336bf-b8bb-404c-8985-f4273cd55f8e{fill:url(#a08aacc0-7561-4456-ae18-771765d7e7b0);}.ed0e1082-6708-49c1-a424-45e6507dcffc{fill:#e7e7e7;}.b22be402-f52d-48e6-b0bc-a6eff10ac3a7{fill:#2c2b29;}.e964de43-30a9-41e1-bfdc-aab17a9afbee{fill:#2785db;}.b173dbf8-3e85-47f5-8fd4-5ac52aa37289{fill:#44c047;}.bd1965b7-cd16-43a6-b9d8-bd21370ed800{fill:#eb1416;}.b75b89ab-d834-4be0-83eb-2310ecc5c1cc,.be28901e-e27a-4065-99a5-5996130143b5{fill:#f91b20;}.b75b89ab-d834-4be0-83eb-2310ecc5c1cc{stroke:#fff;}</style><radialGradient id="af366c31-9545-47e7-aa9f-1f6ea82478e5" cx="65.88" cy="348.77" r="11.47" gradientUnits="userSpaceOnUse"><stop offset="0" stop-color="#fd6d66"/><stop offset="0.78" stop-color="#b50a03"/></radialGradient><radialGradient id="b456b42c-7e1f-4dbe-9de2-a42d7d70a91d" cx="195.83" cy="370.99" r="11.47" xlink:href="#af366c31-9545-47e7-aa9f-1f6ea82478e5"/><radialGradient id="e4e2c3d0-5d2a-4dd9-8eb6-e2464799eaf9" cx="92.36" cy="393.88" r="5.66" gradientTransform="translate(0 157.55) scale(1 0.6)" gradientUnits="userSpaceOnUse"><stop offset="0" stop-color="#0000ef"/><stop offset="0.15" stop-color="#0000e9"/><stop offset="0.34" stop-color="#0101d9"/><stop offset="0.56" stop-color="#0101be"/><stop offset="0.79" stop-color="#02029a"/><stop offset="1" stop-color="#020282"/></radialGradient><radialGradient id="b1ecfc54-8100-4feb-a417-024e26e4e19b" cx="114.61" cy="393.88" r="5.66" xlink:href="#e4e2c3d0-5d2a-4dd9-8eb6-e2464799eaf9"/><radialGradient id="b0bac771-5e3d-4b7b-85be-af1c7af884fc" cx="133.17" cy="400.04" r="5.66" gradientTransform="translate(0 160.02) scale(1 0.6)" xlink:href="#e4e2c3d0-5d2a-4dd9-8eb6-e2464799eaf9"/><radialGradient id="b93185a5-62da-4634-a3f0-1e7fc8cab389" cx="139.21" cy="387.78" r="5.66" gradientTransform="translate(0 155.11) scale(1 0.6)" xlink:href="#e4e2c3d0-5d2a-4dd9-8eb6-e2464799eaf9"/><radialGradient id="a7128392-162a-4e93-97c6-820d4f0bef4b" cx="121.61" cy="382.1" r="5.66" gradientTransform="translate(0 152.84) scale(1 0.6)" xlink:href="#e4e2c3d0-5d2a-4dd9-8eb6-e2464799eaf9"/><radialGradient id="a3a7d9a6-8a03-4f7e-ba48-0b0673049828" cx="100.32" cy="382.53" r="5.66" gradientTransform="translate(0 153.01) scale(1 0.6)" xlink:href="#e4e2c3d0-5d2a-4dd9-8eb6-e2464799eaf9"/><radialGradient id="a5a9e257-8879-4c2d-91fa-5b747c6c9fa4" cx="225.51" cy="404.67" r="5.66" xlink:href="#af366c31-9545-47e7-aa9f-1f6ea82478e5"/><radialGradient id="b578eaff-2772-476e-9190-a97559210a20" cx="246.79" cy="404.24" r="5.66" xlink:href="#af366c31-9545-47e7-aa9f-1f6ea82478e5"/><radialGradient id="aeabfc83-67c2-4f54-9cc9-f7a87fabd35b" cx="264.4" cy="409.93" r="5.66" xlink:href="#af366c31-9545-47e7-aa9f-1f6ea82478e5"/><radialGradient id="f3b71805-b79a-4236-b4a1-8b3078814723" cx="258.36" cy="422.19" r="5.66" xlink:href="#af366c31-9545-47e7-aa9f-1f6ea82478e5"/><radialGradient id="b7f6f4c7-357a-4de7-87d9-f924b51add36" cx="239.79" cy="416.02" r="5.66" xlink:href="#af366c31-9545-47e7-aa9f-1f6ea82478e5"/><radialGradient id="a08aacc0-7561-4456-ae18-771765d7e7b0" cx="217.55" cy="416.02" r="5.66" xlink:href="#af366c31-9545-47e7-aa9f-1f6ea82478e5"/></defs><g id="bd600b58-1435-4f22-9f67-b25f407122e1" data-name="Calque 1"><polygon id="bea8b2f1-aaac-4e10-8fca-14a93bf800dd" data-name="ombre" class="f1df7ca4-6929-4700-ac87-4deb846bac45" points="452.03 588.79 473.54 582.88 481.45 582.88 485.41 582.88 486.99 585.84 724.35 629.14 735.43 629.14 746.5 660.53 700.09 698.24 653.67 711.43 645.49 710.11 645.76 708.26 631.78 705.63 548.18 733.58 474.86 785.15 452.03 791.97 444.26 790.81 444.26 788.18 428.18 785.15 298.19 819.52 452.03 588.79"/><g id="b9a92496-5b7c-4f13-b1de-e50dbda750d5" data-name="bottom"><polygon class="e0bcf5d5-1c5a-411c-99fc-33897bb6e78b" points="36 454.56 260.9 494.18 260.9 498.53 286.62 504.66 286.22 816 37.98 768.73 36 454.56"/><path class="f5f12c39-b3fb-49b7-8efb-81fb1836731b" d="M202,526.54,123.62,512.8c-3,.19-4.26,3.56-4.26,3.56l.2,85c.69,2.18,3.86,5,3.86,5l74.27,13.46c5.14.49,7.52-5.25,7.52-5.25V531.88A7.12,7.12,0,0,0,202,526.54ZM152.1,549.09l-18.69-3.46v-20l2.27-1.88,18.1,3.07L152,529.51Zm31.45,6.13-18.69-3.46v-20l2.27-1.87,18.1,3.06-1.78,2.67Z" transform="translate(-0.98 -0.52)"/><polygon class="e9984e1d-e89b-4d1f-90d2-8a7826a5ff28" points="134.7 523.25 132.43 525.13 132.43 545.11 151.12 548.57 151.02 528.99 152.8 526.32 134.7 523.25"/><polygon class="e9984e1d-e89b-4d1f-90d2-8a7826a5ff28" points="166.15 529.38 163.88 531.26 163.88 551.24 182.57 554.7 182.47 535.12 184.25 532.45 166.15 529.38"/><polygon class="fa8cf0ce-fa49-4722-a8d3-d7e0809d234f" points="140.14 543.03 140.14 530.18 148.15 531.96 148.15 544.52 140.14 543.03"/><polygon class="fa8cf0ce-fa49-4722-a8d3-d7e0809d234f" points="171.2 548.87 171.2 536.01 179.21 537.79 179.21 550.35 171.2 548.87"/><polygon points="135.23 543.16 135.23 527.93 137.28 528.33 137.28 543.49 135.23 543.16"/><polygon points="166.68 548.7 166.68 533.47 168.72 533.87 168.72 549.03 166.68 548.7"/><polygon class="f9759716-c9a5-4391-9f67-be8b507dc985" points="140.4 530.69 140.4 530.34 147.87 532.14 147.88 532.57 140.4 530.69"/><polygon class="f9759716-c9a5-4391-9f67-be8b507dc985" points="171.46 536.62 171.46 536.33 178.93 537.97 178.94 538.32 171.46 536.62"/><circle class="f687b366-7e97-44f9-a1e1-0b32e26ac35a" cx="192.4" cy="574.85" r="4.25"/><polygon class="b9df1035-2c0e-4a70-9533-f8f7edf6b691" points="136.29 598.71 136.29 587.44 148.25 589.62 148.25 600.92 136.29 598.71"/><polygon class="b9df1035-2c0e-4a70-9533-f8f7edf6b691" points="167.54 604.25 167.54 592.98 179.5 595.15 179.5 606.03 167.54 604.25"/></g><g id="b25a4c5f-a50b-4ba1-bc43-813821c5f4ba" data-name="t molding"><path class="a570ad35-bcbc-46ae-8462-8c2126d8f9fa" d="M11.46,450.59l-.79-39.76L1,407.66v45.1l27.89,5.54c.59,103.55,1,207.6,1.58,311.15A6.18,6.18,0,0,0,34,771.64a12.58,12.58,0,0,0,5,0L37,455.08Z" transform="translate(-0.98 -0.52)"/><path class="a570ad35-bcbc-46ae-8462-8c2126d8f9fa" d="M272.36,497V455.73l-10.28-1.19-.2,44.51,25.71,6.13s-1.51,313.85,0,315.69,8.77,1.32,8.77,1.32l.93-319.91Z" transform="translate(-0.98 -0.52)"/><polygon class="a570ad35-bcbc-46ae-8462-8c2126d8f9fa" points="78.72 346.42 70.57 345.12 86.83 126.56 95.87 128.06 78.72 346.42"/><polygon class="a570ad35-bcbc-46ae-8462-8c2126d8f9fa" points="329.24 388.85 338.34 390.13 356.83 165.82 330.46 165.82 330.2 74.9 320.14 73.06 320.14 167.9 326.18 168.99 346.45 168.99 329.24 388.85"/><path class="a570ad35-bcbc-46ae-8462-8c2126d8f9fa" d="M88.49,127.19s-28.17-.35-29.11-.85c0-31.21.06-62.83,0-94l9.36,2.64L69.22,124Z" transform="translate(-0.98 -0.52)"/><g id="b0a7eb30-574f-4758-a9bb-f7d2265382aa" data-name="clair"><polygon class="a570ad35-bcbc-46ae-8462-8c2126d8f9fa" points="0 407.14 9.69 410.31 78 346.25 69.89 344.31 0 407.14"/><polygon class="a570ad35-bcbc-46ae-8462-8c2126d8f9fa" points="261.1 454.02 271.38 455.21 338.34 389.34 329.72 387.74 261.1 454.02"/><polygon class="a570ad35-bcbc-46ae-8462-8c2126d8f9fa" points="111.56 0 58.42 31.78 67.78 34.42 120.36 3.3 123.1 1.68 120.53 1.32 111.56 0"/><polygon class="a570ad35-bcbc-46ae-8462-8c2126d8f9fa" points="383.74 40.62 372.53 39.82 320.14 73.06 330.2 74.9 383.74 40.62"/></g></g><g id="ae2d9815-8791-49f7-b9fb-0b20c5477eb8" data-name="side"><polygon class="f5f12c39-b3fb-49b7-8efb-81fb1836731b" points="453.13 308.64 453.76 149.01 383.74 40.62 330.2 74.9 330.46 165.82 356.83 165.82 338.34 390.13 271.38 455.21 271.38 496.48 296.31 501.76 295.38 821.67 303.63 815.35 453.28 271.65 453.07 293.16 310.97 809.71 309.36 810.95 316.3 805.63 453.13 308.64 453.13 308.64"/><polygon class="f5f12c39-b3fb-49b7-8efb-81fb1836731b" points="324.06 799.15 316.3 805.63 328.29 796.43 452.99 343.19 453.04 331.06 324.06 799.15"/><polygon class="f5f12c39-b3fb-49b7-8efb-81fb1836731b" points="335.43 790.95 334.11 791.97 340.98 786.7 452.77 379.06 452.77 400.31 452.99 343.19 452.77 367.19 335.43 790.95"/><polygon class="f5f12c39-b3fb-49b7-8efb-81fb1836731b" points="343 785.15 451.58 701.87 452.76 402.02 347.4 781.78 343 785.15"/><polygon class="ab63f8b7-0164-445a-9a6a-5238526d2a45" points="303.63 815.35 309.36 810.95 303.63 815.35 303.63 815.35"/><polygon class="a570ad35-bcbc-46ae-8462-8c2126d8f9fa" points="453.07 293.16 453.28 271.65 303.63 815.35 309.36 810.95 310.97 809.71 453.07 293.16"/><polygon class="fb98016d-daf9-4158-9670-71b30c952e4a" points="453.13 330.74 453.13 308.64 453.04 331.06 453.13 330.74"/><polygon class="fb98016d-daf9-4158-9670-71b30c952e4a" points="316.3 805.63 316.3 805.63 316.3 805.63 316.3 805.63"/><polygon class="f80fa362-89fb-426c-abff-03165ded548e" points="453.04 331.06 453.13 308.64 453.13 308.64 316.3 805.63 316.3 805.63 324.06 799.15 453.04 331.06"/><polygon class="aa32e4f0-e026-4f02-823a-3039a1ba2430" points="452.99 343.19 452.99 343.19 452.99 343.19 452.99 343.19"/><polygon class="aa32e4f0-e026-4f02-823a-3039a1ba2430" points="328.29 796.43 334.11 791.97 328.29 796.43 328.29 796.43"/><polygon points="334.11 791.97 335.43 790.95 452.77 367.19 452.99 343.19 452.99 343.19 328.29 796.43 334.11 791.97"/><polygon class="a21984bd-9a95-443b-88cf-4578124a8ba5" points="340.98 786.7 343 785.15 340.98 786.7 340.98 786.7"/><polygon class="a21984bd-9a95-443b-88cf-4578124a8ba5" points="452.77 402 452.77 400.31 452.76 402.02 452.77 402"/><polygon class="a619fb82-9407-4480-b200-98e8c5b9783b" points="340.98 786.7 343 785.15 347.4 781.78 452.76 402.02 452.77 400.31 452.77 379.06 340.98 786.7"/></g><g id="af255d28-7f3f-491c-a389-ae25796d6fdb" data-name="panel"><polygon class="bb40ba72-f579-4e9e-a29a-e68b85170998" points="10.48 450.07 260.9 494.18 261.1 454.02 9.69 410.31 10.48 450.07"/><polygon class="e0bcf5d5-1c5a-411c-99fc-33897bb6e78b" points="79.37 345.21 9.69 410.31 261.1 454.02 329.72 387.74 79.37 345.21"/></g><g id="aecf9453-232d-4491-8a07-551d84f2c6d1" data-name="ecran"><path class="bb40ba72-f579-4e9e-a29a-e68b85170998" d="M96.84,129.36,79.7,347.72l250.52,42.43L347.82,168Zm224.28,67.76c0,.2-.29.32-.48.49L310.21,342.44a35.43,35.43,0,0,1-4.3,3.78l1.4.29v10.7s-1.4,4.75-11.08,2.64c-11.19-2.44-178.55-31.91-178.55-31.91l8.72-6.78v-1.39s-2.46.52-6-7l-12.48,2.77h-4l11.34-158.77s4-6.85,10.81-6.59,191.16,30.59,191.16,30.59S323.4,181.84,321.12,197.12Z" transform="translate(-0.98 -0.52)"/><path class="f397d04e-1848-42bb-a848-f0ed904fc47c" d="M317.28,180S133,149.66,126.12,149.4,115.31,156,115.31,156L103.57,316.08h4.35l12.29-2.68c-.1-.23-.74-1.57-.85-1.8L131,166.54s2.11-5.54,7.12-7.38l177.49,27.16a20.77,20.77,0,0,1,5.11,9.76l-.05.75c.19-.17.62.66.66.47C324.56,183.24,317.28,180,317.28,180Z" transform="translate(-0.98 -0.52)"/><path class="f125456e-2863-4953-95c4-2c3c181ba494" d="M125.32,320l-8.56,8s164.63,29.3,178.61,32.24c10.36,2.17,14.43-3.58,14.43-3.58l.61-7.37.39-7.71-4.89,3.84a20.85,20.85,0,0,1-7.73,3.87Z" transform="translate(-0.98 -0.52)"/><path class="e80e94e2-50ef-4c40-8d2c-3466c86d5e09" d="M319.5,197.81c.45-.36.83-.69,1.14-1l.66-.52a20.31,20.31,0,0,0-5.72-10L138.09,159.16c-5,1.84-7.12,7.38-7.12,7.38L119.36,311.6l.32.66c3.54,7.52,6.28,8,6.28,8l.44.08,171.78,28.93a20.85,20.85,0,0,0,7.73-3.87c2.57-1.91,4.89-3.84,4.89-3.84l10.5-145.29C320.86,196.73,320.25,197.23,319.5,197.81ZM143.83,302.35l0,0Z" transform="translate(-0.98 -0.52)"/></g><g id="af8aef94-e496-40fb-9f71-c2b33846cefd" data-name="top"><polygon id="a767d165-73b9-469c-b36d-17741e4f50b3" data-name="marquee" class="bb40ba72-f579-4e9e-a29a-e68b85170998" points="68.24 123.84 319.71 162.87 320.14 73.4 67.78 34.76 68.24 123.84"/><polygon class="a96d1e38-b698-4394-9eba-beb6273b3de3" points="128.84 2.64 123.1 1.68 67.78 34.42 320.14 73.06 372.53 39.82 128.84 2.64"/></g><g id="b78dd9dc-6822-4eb5-a239-5a806e9f7cb7" data-name="stickp1"><path class="bc8d85bf-531d-4625-ae2e-621012303015" d="M68.92,377.27v5.16H62.4v-5.16c-5.06.64-8.77,2.7-8.77,5.16,0,3,5.38,5.35,12,5.35s12-2.39,12-5.35C77.69,380,74,377.91,68.92,377.27Z" transform="translate(-0.98 -0.52)"/><path class="a91f7143-2f25-4716-ac44-a948cf5dc882" d="M68.92,377.27V359.49a12.18,12.18,0,0,1-3,.39,12.4,12.4,0,0,1-3.48-.49v17.88a26.67,26.67,0,0,1,6.52,0Z" transform="translate(-0.98 -0.52)"/><path class="a91f7143-2f25-4716-ac44-a948cf5dc882" d="M68.92,382.43v-5.16a26.67,26.67,0,0,0-6.52,0v5.16Z" transform="translate(-0.98 -0.52)"/><path class="ace364de-eea1-4482-a67d-3061dea5c06c" d="M68.92,358.89v.6a11.24,11.24,0,0,0,8.77-10.72c0-6.14-5.29-11.11-11.81-11.11s-11.82,5-11.82,11.11a11.22,11.22,0,0,0,8.34,10.62v-.5Z" transform="translate(-0.98 -0.52)"/><path class="a91f7143-2f25-4716-ac44-a948cf5dc882" d="M68.92,359.49v-.6H62.4v.5a12.4,12.4,0,0,0,3.48.49A12.18,12.18,0,0,0,68.92,359.49Z" transform="translate(-0.98 -0.52)"/><path class="ace364de-eea1-4482-a67d-3061dea5c06c" d="M68.92,359.49v-.6H62.4v.5a12.4,12.4,0,0,0,3.48.49A12.18,12.18,0,0,0,68.92,359.49Z" transform="translate(-0.98 -0.52)"/></g><g id="f5712827-35c3-4c49-8544-fcd8dc5d74b3" data-name="stickp2"><path class="bc8d85bf-531d-4625-ae2e-621012303015" d="M198.88,399.49v5.16h-6.53v-5.16c-5,.64-8.77,2.7-8.77,5.16,0,3,5.39,5.35,12,5.35s12-2.39,12-5.35C207.65,402.19,203.94,400.13,198.88,399.49Z" transform="translate(-0.98 -0.52)"/><path class="a91f7143-2f25-4716-ac44-a948cf5dc882" d="M198.88,399.49V381.71a12.2,12.2,0,0,1-3,.39,12.83,12.83,0,0,1-3.48-.49v17.88a26.75,26.75,0,0,1,6.53,0Z" transform="translate(-0.98 -0.52)"/><path class="a91f7143-2f25-4716-ac44-a948cf5dc882" d="M198.88,404.65v-5.16a26.75,26.75,0,0,0-6.53,0v5.16Z" transform="translate(-0.98 -0.52)"/><path class="b8852635-536e-4c39-8922-68575b806111" d="M198.88,381.11v.6A11.24,11.24,0,0,0,207.65,371c0-6.14-5.29-11.11-11.82-11.11S184,364.85,184,371a11.22,11.22,0,0,0,8.34,10.62v-.5Z" transform="translate(-0.98 -0.52)"/><path class="a91f7143-2f25-4716-ac44-a948cf5dc882" d="M198.88,381.71v-.6h-6.53v.5a12.83,12.83,0,0,0,3.48.49A12.2,12.2,0,0,0,198.88,381.71Z" transform="translate(-0.98 -0.52)"/><path class="b8852635-536e-4c39-8922-68575b806111" d="M198.88,381.71v-.6h-6.53v.5a12.83,12.83,0,0,0,3.48.49A12.2,12.2,0,0,0,198.88,381.71Z" transform="translate(-0.98 -0.52)"/></g><g id="a4f551e1-acda-4713-81fd-6166bd3bbc20" data-name="boutons P1"><g id="be5541c9-cb20-4bd8-b049-53a53eda8695" data-name="4"><path class="b0238d98-b88c-4b35-b581-409d37090dbd" d="M92.54,389.14c-3.86,0-8.12,1.53-8.12,4.87,0,2.95,4.1,4.62,7.94,4.62,4.11,0,8-1.73,8-4.88C100.32,391.4,96.48,389.14,92.54,389.14Zm-.18,8.63c-3.86,0-7-1.74-7-3.89s3.13-3.89,7-3.89,7,1.74,7,3.89S96.22,397.77,92.36,397.77Z" transform="translate(-0.98 -0.52)"/><path class="fd3de01d-1533-4cb3-a000-9a7536aa95a4" d="M92.36,390c-3.86,0-7,1.74-7,3.89s3.13,3.89,7,3.89,7-1.74,7-3.89S96.22,390,92.36,390Z" transform="translate(-0.98 -0.52)"/></g><g id="ac4d1631-b03c-4ab4-b912-8fa16e5bed1e" data-name="5"><path class="b0238d98-b88c-4b35-b581-409d37090dbd" d="M114.79,389.14c-3.86,0-8.12,1.53-8.12,4.87,0,2.95,4.1,4.62,7.94,4.62,4.11,0,8-1.73,8-4.88C122.57,391.4,118.73,389.14,114.79,389.14Zm-.18,8.63c-3.86,0-7-1.74-7-3.89s3.13-3.89,7-3.89,7,1.74,7,3.89S118.47,397.77,114.61,397.77Z" transform="translate(-0.98 -0.52)"/><path class="b635d661-875c-4d90-abf2-c35cd8e56900" d="M114.61,390c-3.86,0-7,1.74-7,3.89s3.13,3.89,7,3.89,7-1.74,7-3.89S118.47,390,114.61,390Z" transform="translate(-0.98 -0.52)"/></g><g id="f017012a-7413-4c4e-b2ab-cd5b23d0a30d" data-name="6"><path class="b0238d98-b88c-4b35-b581-409d37090dbd" d="M133.35,395.3c-3.86,0-8.13,1.53-8.13,4.87,0,3,4.11,4.62,7.95,4.62,4.1,0,8-1.73,8-4.88C141.13,397.56,137.29,395.3,133.35,395.3Zm-.18,8.63c-3.86,0-7-1.74-7-3.89s3.13-3.89,7-3.89,7,1.74,7,3.89S137,403.93,133.17,403.93Z" transform="translate(-0.98 -0.52)"/><path class="ea96f8d3-84e7-4818-8075-fb8dd2834675" d="M133.17,396.15c-3.86,0-7,1.74-7,3.89s3.13,3.89,7,3.89,7-1.74,7-3.89S137,396.15,133.17,396.15Z" transform="translate(-0.98 -0.52)"/></g><g id="b791ba8e-4947-4fd8-a474-7c2929b0a1c4" data-name="3"><path class="b0238d98-b88c-4b35-b581-409d37090dbd" d="M139.39,383c-3.86,0-8.13,1.53-8.13,4.88,0,2.95,4.11,4.61,8,4.61,4.1,0,8-1.73,8-4.88C147.17,385.3,143.33,383,139.39,383Zm-.18,8.63c-3.86,0-7-1.74-7-3.89s3.13-3.89,7-3.89,7,1.75,7,3.89S143.07,391.67,139.21,391.67Z" transform="translate(-0.98 -0.52)"/><path class="e544c068-a636-495f-8e99-b86992c478e6" d="M139.21,383.89c-3.86,0-7,1.75-7,3.89s3.13,3.89,7,3.89,7-1.74,7-3.89S143.07,383.89,139.21,383.89Z" transform="translate(-0.98 -0.52)"/></g><g id="f45f81be-178f-48eb-96cc-f94d76a098ee" data-name="2"><path class="b0238d98-b88c-4b35-b581-409d37090dbd" d="M121.79,377.35c-3.86,0-8.12,1.53-8.12,4.88,0,2.95,4.1,4.61,7.94,4.61,4.11,0,8-1.73,8-4.88C129.57,379.62,125.73,377.35,121.79,377.35Zm-.18,8.64c-3.86,0-7-1.74-7-3.89s3.13-3.89,7-3.89,7,1.74,7,3.89S125.47,386,121.61,386Z" transform="translate(-0.98 -0.52)"/><path class="edcb2a88-5830-4b5b-8f00-a00913621658" d="M121.61,378.21c-3.86,0-7,1.74-7,3.89s3.13,3.89,7,3.89,7-1.74,7-3.89S125.47,378.21,121.61,378.21Z" transform="translate(-0.98 -0.52)"/></g><g id="edbc56d3-a2d6-4d2d-9692-d5210185beaa" data-name="1"><path class="b0238d98-b88c-4b35-b581-409d37090dbd" d="M100.5,377.78c-3.86,0-8.13,1.53-8.13,4.88,0,2.95,4.11,4.62,7.95,4.62,4.1,0,8-1.73,8-4.88C108.28,380.05,104.44,377.78,100.5,377.78Zm-.18,8.64c-3.86,0-7-1.74-7-3.89s3.13-3.89,7-3.89,7,1.74,7,3.89S104.18,386.42,100.32,386.42Z" transform="translate(-0.98 -0.52)"/><path class="b4828700-270f-43ed-9f08-cf2dc9d75e0f" d="M100.32,378.64c-3.86,0-7,1.74-7,3.89s3.13,3.89,7,3.89,7-1.74,7-3.89S104.18,378.64,100.32,378.64Z" transform="translate(-0.98 -0.52)"/></g></g><g id="ff883ba2-3813-4e3c-8d6d-a6a05ec18bbf" data-name="boutons P2"><g id="b3c694ca-ff59-486f-9f65-0152ee10aa82" data-name="1"><path class="e236b85a-3db8-4fa1-8080-cd2dd45978f3" d="M225.69,399.93c-3.86,0-8.13,1.53-8.13,4.87,0,2.95,4.11,4.62,7.95,4.62,4.1,0,8-1.73,8-4.88C233.47,402.19,229.63,399.93,225.69,399.93Zm-.18,8.63c-3.86,0-7-1.74-7-3.89s3.13-3.89,7-3.89,7,1.74,7,3.89S229.37,408.56,225.51,408.56Z" transform="translate(-0.98 -0.52)"/><path class="e8544371-effc-437a-b71d-f149c3b9b132" d="M225.51,400.78c-3.86,0-7,1.74-7,3.89s3.13,3.89,7,3.89,7-1.74,7-3.89S229.37,400.78,225.51,400.78Z" transform="translate(-0.98 -0.52)"/></g><g id="e6aadcd0-a56f-43ba-81f7-698829bc19d0" data-name="2"><path class="e236b85a-3db8-4fa1-8080-cd2dd45978f3" d="M247,399.49c-3.86,0-8.13,1.54-8.13,4.88,0,2.95,4.11,4.62,7.95,4.62,4.1,0,8-1.73,8-4.88C254.75,401.76,250.91,399.49,247,399.49Zm-.18,8.64c-3.86,0-7-1.74-7-3.89s3.13-3.89,7-3.89,7,1.74,7,3.89S250.65,408.13,246.79,408.13Z" transform="translate(-0.98 -0.52)"/><path class="a26e0dea-3d17-4c0a-b8d4-a033957227e3" d="M246.79,400.35c-3.86,0-7,1.74-7,3.89s3.13,3.89,7,3.89,7-1.74,7-3.89S250.65,400.35,246.79,400.35Z" transform="translate(-0.98 -0.52)"/></g><g id="ac738929-459f-44d6-aae1-e157c4b062cf" data-name="3"><path class="e236b85a-3db8-4fa1-8080-cd2dd45978f3" d="M264.58,405.18c-3.86,0-8.12,1.53-8.12,4.88,0,2.95,4.1,4.61,7.94,4.61,4.1,0,8-1.73,8-4.88C272.36,407.44,268.52,405.18,264.58,405.18Zm-.18,8.64c-3.86,0-7-1.75-7-3.89s3.13-3.89,7-3.89,7,1.74,7,3.89S268.26,413.82,264.4,413.82Z" transform="translate(-0.98 -0.52)"/><path class="a341445e-9fb5-4c04-8be2-03018dad8f16" d="M264.4,406c-3.86,0-7,1.74-7,3.89s3.13,3.89,7,3.89,7-1.75,7-3.89S268.26,406,264.4,406Z" transform="translate(-0.98 -0.52)"/></g><g id="a0a5834b-e6e7-4f50-9aa2-dca4c0484b35" data-name="4"><path class="e236b85a-3db8-4fa1-8080-cd2dd45978f3" d="M258.54,417.44c-3.86,0-8.13,1.53-8.13,4.88,0,2.95,4.11,4.61,8,4.61,4.1,0,8-1.73,8-4.88C266.32,419.7,262.48,417.44,258.54,417.44Zm-.18,8.64c-3.86,0-7-1.75-7-3.89s3.13-3.89,7-3.89,7,1.74,7,3.89S262.22,426.08,258.36,426.08Z" transform="translate(-0.98 -0.52)"/><path class="b889c3bb-21b3-4253-abb5-5f9fb93fb595" d="M258.36,418.3c-3.86,0-7,1.74-7,3.89s3.13,3.89,7,3.89,7-1.75,7-3.89S262.22,418.3,258.36,418.3Z" transform="translate(-0.98 -0.52)"/></g><g id="a260ff05-10f6-4d0c-9f72-24f70cd21a68" data-name="5"><path class="e236b85a-3db8-4fa1-8080-cd2dd45978f3" d="M240,411.28c-3.86,0-8.13,1.53-8.13,4.88,0,2.95,4.11,4.61,7.95,4.61,4.1,0,8-1.73,8-4.88C247.75,413.54,243.91,411.28,240,411.28Zm-.18,8.63c-3.86,0-7-1.74-7-3.89s3.13-3.89,7-3.89,7,1.75,7,3.89S243.65,419.91,239.79,419.91Z" transform="translate(-0.98 -0.52)"/><path class="ed3f40bc-c7eb-4e99-b0c8-54eaa1109211" d="M239.79,412.13c-3.86,0-7,1.75-7,3.89s3.13,3.89,7,3.89,7-1.74,7-3.89S243.65,412.13,239.79,412.13Z" transform="translate(-0.98 -0.52)"/></g><g id="e8fc7606-5733-43d0-9e1a-e05af3ad3594" data-name="6"><path class="e236b85a-3db8-4fa1-8080-cd2dd45978f3" d="M217.73,411.28c-3.86,0-8.13,1.53-8.13,4.88,0,2.95,4.11,4.61,8,4.61,4.1,0,8-1.73,8-4.88C225.51,413.54,221.67,411.28,217.73,411.28Zm-.18,8.63c-3.86,0-7-1.74-7-3.89s3.13-3.89,7-3.89,7,1.75,7,3.89S221.41,419.91,217.55,419.91Z" transform="translate(-0.98 -0.52)"/><path class="bcc336bf-b8bb-404c-8985-f4273cd55f8e" d="M217.55,412.13c-3.86,0-7,1.75-7,3.89s3.13,3.89,7,3.89,7-1.74,7-3.89S221.41,412.13,217.55,412.13Z" transform="translate(-0.98 -0.52)"/></g></g><path class="ed0e1082-6708-49c1-a424-45e6507dcffc" d="M228.57,237.19v.07l-5.92-1v-.08Z" transform="translate(-0.98 -0.52)"/><path class="ed0e1082-6708-49c1-a424-45e6507dcffc" d="M236.56,238.53a.13.13,0,0,0,0,.06l-5.72-1s0,0,0-.06Z" transform="translate(-0.98 -0.52)"/><path class="b22be402-f52d-48e6-b0bc-a6eff10ac3a7" d="M210.17,273.38l-65.56-11c-.87-.14-.87-.14-.74-.92.25-1.54.47-3.08.75-4.61.78-4.31,1.48-8.63,2.22-12.95.09-.48.22-1,.29-1.44,0-.18.12-.23.31-.19l.75.13L267.5,262.38a16.13,16.13,0,0,1,4.69,1.42,11.54,11.54,0,0,1,5.67,5.9,8.36,8.36,0,0,1,.63,3.88c0,.38-.08.76-.15,1.14l-1.56,9.36c-.07.39-.13.42-.54.36l-40.11-6.72Zm14.68-7.7h0c-.4,2.35-.79,4.71-1.19,7.07,0,.23,0,.34.3.38,1,.15,1.95.32,2.93.49.51.09.51.09.59-.37q.69-4.22,1.4-8.43c0-.08,0-.21.12-.22s.13.1.17.17c1.69,3.14,3.43,6.26,5.06,9.42a2.38,2.38,0,0,0,3.55.6c.9-.94,1.91-1.79,2.87-2.68l4.89-4.53c.08-.07.15-.22.26-.17s0,.2,0,.31,0,.08,0,.12c-.47,2.79-.93,5.58-1.4,8.37,0,.25,0,.35.31.4,1,.16,2,.32,3.06.51.34.07.45,0,.49-.32q1.16-6.92,2.32-13.83a1.32,1.32,0,0,0-.25-1,2.34,2.34,0,0,0-3.26-.37l-2.16,2L236.79,271c-.25.23-.28.22-.45-.08-2.2-4.06-4.42-8.11-6.61-12.17a2.14,2.14,0,0,0-1.43-1.06A1.74,1.74,0,0,0,226,259Zm-4.51-.71h0c.38-2.31.76-4.61,1.16-6.92a1.32,1.32,0,0,0-.45-1.21,2.4,2.4,0,0,0-3.17,0c-2.39,2.24-4.82,4.43-7.24,6.63l-2.95,2.7c-.13.12-.23.25-.37,0l-3.44-6.31c-1.1-2-2.19-4-3.3-6a2.24,2.24,0,0,0-2.21-1,1.52,1.52,0,0,0-1.5,1.37q-1.16,6.86-2.3,13.71c0,.28.05.37.35.41,1,.15,2,.32,3,.5.44.07.45.08.51-.3.46-2.73.91-5.46,1.37-8.19,0-.13,0-.27.06-.4s0-.16.11-.17.1.08.13.14.18.34.28.51c1.63,3,3.29,6,4.88,9.07a2.34,2.34,0,0,0,3.35.6c.47-.47,1-.91,1.48-1.37l6.5-6c.06-.05.09-.14.19-.11s.07.14.06.22c-.14.81-.28,1.62-.41,2.44-.35,2.06-.69,4.13-1,6.2,0,.22,0,.32.29.36l3,.5c.44.07.45.07.52-.31Q219.75,268.44,220.34,265Zm33.15,5.67h0c-.38,2.28-.76,4.57-1.15,6.85-.06.31.06.41.38.45,1,.16,2,.32,3,.5.33.07.45,0,.5-.31.16-1,.35-2.08.51-3.12,0-.23.12-.33.4-.28l12.77,2.14c.33.05.39.18.34.45-.18,1-.34,2.08-.53,3.12-.05.25,0,.35.32.4,1,.15,2,.32,3,.49.45.07.46.07.53-.34q.61-3.66,1.22-7.32a6.88,6.88,0,0,0-2.51-6.52,12.61,12.61,0,0,0-6.36-3c-2.38-.41-4.76-.8-7.13-1.19-.72-.12-1.45-.26-2.17-.35a1.6,1.6,0,0,0-1.91,1.29C254.24,266.17,253.87,268.4,253.49,270.64Zm-62.24-10.42h0l1.14-6.79a1.24,1.24,0,0,0,0-.47,1.91,1.91,0,0,0-1.63-1.33c-1.55-.26-3.1-.53-4.65-.77-1.84-.3-3.66-.71-5.51-.87a11.55,11.55,0,0,0-7,1.39,6.55,6.55,0,0,0-3.37,4.67q-.63,3.74-1.25,7.47c-.07.4-.07.4.36.47,1,.17,2,.32,2.93.5.33.06.45,0,.5-.31.15-1,.34-2.06.5-3.09,0-.29.17-.35.48-.3l12.67,2.12c.34,0,.42.16.37.46-.19,1-.35,2.08-.54,3.11,0,.26,0,.36.32.4,1,.16,2,.32,3,.51.33.06.44,0,.49-.32C190.48,264.79,190.87,262.5,191.25,260.22Zm-38.3,1h0l6.47,1.08a7.76,7.76,0,0,0,2.76,0,3.93,3.93,0,0,0,3.34-2.92c.64-3.78,1.26-7.55,1.9-11.33.05-.27,0-.37-.33-.42-1-.15-2-.32-3-.5-.36-.07-.46,0-.51.33q-.92,5.58-1.86,11.15a1.08,1.08,0,0,1-1.24.95,4.41,4.41,0,0,1-.73-.08c-1-.18-2-.37-3.06-.54l-7-1.15c-.28-.05-.35-.15-.31-.38.11-.59.19-1.18.31-1.76.06-.28,0-.4-.35-.45-.84-.13-1.68-.26-2.52-.42-.34-.07-.44,0-.49.32-.24,1.49-.49,3-.74,4.45-.07.42-.07.42.42.5Z" transform="translate(-0.98 -0.52)"/><path class="b22be402-f52d-48e6-b0bc-a6eff10ac3a7" d="M230.83,237.63l5.72,1c.15.09.15.2.13.35-.37,2.17-.73,4.34-1.11,6.51,0,.29,0,.38.34.43,3.09.5,6.18,1,9.27,1.54.32.05.34.16.31.44-.06.67-.23,1.33-.32,2-.22,1.55-.54,3.09-.8,4.63-.1.59-.17,1.19-.26,1.78,0,.2-.12.31-.4.26L228.57,254c-.65-.11-.65-.11-.56-.68q1.29-7.69,2.57-15.38C230.6,237.79,230.6,237.63,230.83,237.63Zm3.94,12.7h0c-.13.78-.25,1.56-.39,2.34-.05.27,0,.38.33.43,1.06.16,2.11.34,3.16.53.32.06.44,0,.49-.31.25-1.55.51-3.1.78-4.66,0-.24,0-.34-.31-.38q-1.62-.25-3.24-.54c-.28-.05-.39,0-.43.27C235,248.79,234.9,249.56,234.77,250.33Z" transform="translate(-0.98 -0.52)"/><path class="b22be402-f52d-48e6-b0bc-a6eff10ac3a7" d="M255.63,249.17c2.55.43,5.09.86,7.64,1.27.34.06.42.17.37.47q-.7,4.14-1.39,8.3c-.07.37-.1.4-.52.33L246.38,257c-.27-.05-.34-.16-.3-.39q.72-4.21,1.41-8.43c0-.28.18-.33.47-.28,2.55.44,5.11.86,7.67,1.29Zm1.31,4.88h0c.14-.8.27-1.6.41-2.4,0-.23,0-.36-.3-.4l-3.44-.58c-.26,0-.38,0-.42.27l-.81,4.85c0,.25.05.36.33.41l3.37.56c.3.06.42,0,.46-.3C256.67,255.66,256.81,254.86,256.94,254.05Z" transform="translate(-0.98 -0.52)"/><path class="b22be402-f52d-48e6-b0bc-a6eff10ac3a7" d="M173.53,244.78l-7.64-1.27c-.31,0-.37-.15-.33-.42q.72-4.2,1.42-8.42c0-.25.13-.32.4-.27L182.74,237c.41.07.43.11.37.49-.26,1.55-.53,3.11-.78,4.66,0,.31-.17.37-.5.32-3.07-.53-6.15-1-9.22-1.55-.46-.08-.46-.08-.52.32s-.11.7-.19,1,0,.35.31.4c2.06.33,4.11.68,6.17,1l3.16.53c.32.05.42.17.37.44s-.14.74-.19,1.11-.18.38-.51.32Zm.92-5.45h0c.56.1,1.13.18,1.69.29.25,0,.35,0,.38-.25,0-.39.12-.78.2-1.17,0-.21,0-.32-.26-.36l-3.41-.57c-.22,0-.33,0-.36.23q-.08.62-.18,1.23c0,.23.06.3.29.33C173.35,239.13,173.9,239.23,174.45,239.33Z" transform="translate(-0.98 -0.52)"/><path class="b22be402-f52d-48e6-b0bc-a6eff10ac3a7" d="M211.28,241.75l7.64,1.28c.44.07.5.14.42.52-.43,2-.7,4-1.05,6-.14.74-.27,1.48-.37,2.23,0,.29-.15.37-.49.31-2.08-.36-4.17-.7-6.26-1l-9-1.51c-.42-.07-.43-.08-.37-.47.26-1.56.53-3.11.77-4.67,0-.32.18-.37.52-.31l9.16,1.54c.46.07.46.07.53-.33s.09-.67.17-1,0-.4-.36-.46c-2.34-.37-4.68-.77-7-1.16l-2.31-.38c-.24,0-.32-.12-.28-.34a10.85,10.85,0,0,0,.21-1.27c0-.27.16-.31.43-.26l5.37.9,2.27.38ZM210.13,249h0c.55.09,1.11.17,1.66.27.21,0,.33,0,.36-.21l.21-1.23c0-.19-.05-.29-.27-.33l-3.33-.56c-.24,0-.35,0-.38.24,0,.4-.11.79-.19,1.17-.05.23.05.33.29.37C209,248.79,209.58,248.89,210.13,249Z" transform="translate(-0.98 -0.52)"/><path class="b22be402-f52d-48e6-b0bc-a6eff10ac3a7" d="M268.74,251.36c.87.15,1.74.31,2.62.44.31,0,.38.18.34.43-.08.4-.13.8-.21,1.2,0,.21,0,.3.27.34l3.36.56c.28,0,.38,0,.41-.27.06-.41.15-.82.2-1.23,0-.23.15-.27.37-.24l5.4.91c.21,0,.3.13.27.33-.08.43-.16.86-.22,1.29,0,.23-.16.29-.41.25-.44-.09-.89-.15-1.34-.24-.24,0-.33,0-.36.24-.05.4-.13.8-.19,1.2,0,.23-.15.3-.4.25-.47-.08-.94-.15-1.41-.24-.17,0-.24,0-.29.17-.13.44-.08.91-.25,1.34-.07.18.07.24.24.27l1.38.22c.28,0,.38.15.33.41s-.13.78-.21,1.17c0,.21.05.31.28.34l1.34.22c.25,0,.34.13.3.36-.09.42-.17.84-.22,1.27,0,.22-.15.27-.36.24l-.65-.11-4.62-.77c-.45-.08-.45-.08-.38-.49s.12-.76.19-1.14c.05-.21,0-.3-.27-.34l-3.44-.58c-.22,0-.29,0-.31.21-.06.4-.16.8-.19,1.21s-.19.37-.5.32l-4.72-.8c-1.16-.19-.93-.1-.8-1,0-.25.09-.49.12-.74s.16-.29.4-.25c.45.09.9.15,1.34.24.27.05.39,0,.42-.26s.14-.78.19-1.17.16-.31.41-.26c.46.09.92.15,1.37.24.21,0,.3,0,.32-.2.06-.43.13-.85.22-1.27,0-.21-.05-.28-.26-.31l-1.38-.23c-.24,0-.34-.12-.29-.36s.14-.78.21-1.17c0-.23,0-.35-.31-.38-.45-.06-.9-.15-1.35-.22-.25,0-.34-.14-.29-.37q.12-.63.21-1.26c0-.24.16-.29.4-.24Z" transform="translate(-0.98 -0.52)"/><path class="b22be402-f52d-48e6-b0bc-a6eff10ac3a7" d="M222.64,236.28l5.92,1a.42.42,0,0,1,.05.36q-1.31,7.77-2.6,15.56c0,.28-.17.37-.48.31s-.88-.19-1.33-.26l-3.89-.62c-.46-.08-.45-.08-.39-.49q1.31-7.74,2.6-15.49C222.54,236.51,222.52,236.37,222.64,236.28Z" transform="translate(-0.98 -0.52)"/><path class="b22be402-f52d-48e6-b0bc-a6eff10ac3a7" d="M191.71,247.82,184,246.54c-.3,0-.4-.14-.35-.43q.72-4.2,1.41-8.4c0-.26.15-.32.42-.27L200.87,240c.31.05.42.18.36.45s-.11.72-.19,1.08-.13.41-.55.34l-4.16-.7-5.06-.85c-.28,0-.37,0-.41.25-.22,1.39-.46,2.78-.69,4.17a2.74,2.74,0,0,1,0,.28c-.11.6-.11.6.58.72l8.92,1.49c.42.07.45.11.39.5s-.15.72-.18,1.08-.19.35-.48.3c-.56-.11-1.12-.2-1.68-.29Z" transform="translate(-0.98 -0.52)"/><path class="e964de43-30a9-41e1-bfdc-aab17a9afbee" d="M291.07,282.1c-.25,1.47-.49,2.94-.74,4.41-.07.42-.07.42-.51.34l-4.27-.71c-.27,0-.37-.13-.3-.37s.07-.41.11-.62-.06-.27-.25-.29l-.49-.05c-.39-.06-.49,0-.51.37,0,.06,0,.12,0,.19,0,.43-.14.5-.63.42-1.39-.23-2.79-.47-4.19-.69-.32-.05-.4-.19-.36-.45.5-3,1-5.91,1.49-8.86.06-.36.14-.42.55-.33,2.95.58,5.92,1,8.87,1.52.52.09,1,.13,1.55.22s.47.1.4.52c-.24,1.46-.49,2.92-.73,4.38Zm-8.37-.17h0l1.58.27c.22,0,.32,0,.35-.22.1-.59.2-1.19.31-1.79,0-.21-.06-.3-.29-.34l-3.13-.52c-.21,0-.31,0-.35.22-.08.59-.18,1.19-.29,1.79,0,.21,0,.31.27.34Zm5.47-1.49h0c-.52-.08-1-.16-1.55-.26-.25-.05-.36,0-.39.24-.09.59-.19,1.19-.29,1.78-.05.23.05.29.28.33,1,.16,2,.33,3,.51.28.05.39,0,.43-.27.08-.56.17-1.13.28-1.69,0-.23,0-.35-.3-.39C289.15,280.61,288.66,280.52,288.17,280.44Z" transform="translate(-0.98 -0.52)"/><path class="b173dbf8-3e85-47f5-8fd4-5ac52aa37289" d="M292.87,271.31c-.25,1.48-.5,3-.74,4.44-.07.38-.11.4-.52.34l-2.86-.48c-.41-.07-.49-.18-.43-.54.14-.85.28-1.71.43-2.56a.34.34,0,0,1,0-.1c.2-.63.12-.52.72-.43l1.48.25c.26,0,.4,0,.44-.25.09-.59.19-1.18.29-1.76,0-.21,0-.33-.3-.38l-8-1.34c-.26,0-.39.05-.42.28-.09.57-.19,1.14-.28,1.7,0,.23.05.36.31.41l3.06.52a.25.25,0,0,0,.33-.17,1.81,1.81,0,0,0,.12-.64c0-.19.11-.24.27-.29a.45.45,0,0,1,.2,0c.85.09.89.14.77.88-.21,1.26-.43,2.51-.63,3.77,0,.26-.17.34-.43.3l-5.43-.91c-.49-.08-.55-.15-.48-.58.49-3,1-5.91,1.48-8.87,0-.17.09-.23.28-.22s.55,0,.83.08l9.77,1.63c.55.09.55.1.47.6l-.72,4.32Z" transform="translate(-0.98 -0.52)"/><path class="bd1965b7-cd16-43a6-b9d8-bd21370ed800" d="M289.84,254.78c1.75.29,3.49.59,5.24.87.3,0,.4.13.35.42-.51,3-1,5.95-1.49,8.92-.05.3-.16.38-.49.32-1.4-.25-2.8-.48-4.2-.71-.36-.06-.42-.15-.36-.47,0-.12.06-.23.08-.34.08-.47.08-.47-.46-.56l-.21,0c-.5-.08-.51-.08-.54.39,0,.18-.1.34-.11.52s-.18.19-.35.16l-4.44-.74c-.23,0-.32-.15-.29-.35.17-1,.35-2,.51-3.06,0-.28.23-.27.45-.23l1.83.3c.8.15,1.61.24,2.4.44.25.06.44,0,.48-.27.07-.57.17-1.14.28-1.7.05-.27,0-.38-.34-.43-1.42-.22-2.83-.47-4.24-.7-.29,0-.4-.12-.35-.4.18-1,.33-2,.48-3,0-.26.15-.33.44-.28C286.28,254.19,288.06,254.48,289.84,254.78Zm1.49,6.43h0c.51.08,1,.16,1.54.26.22,0,.35,0,.39-.21.09-.61.19-1.22.3-1.82,0-.2,0-.32-.27-.35l-3.09-.52c-.22,0-.32,0-.35.21-.09.63-.2,1.25-.31,1.88,0,.18,0,.26.24.29Z" transform="translate(-0.98 -0.52)"/><path class="b22be402-f52d-48e6-b0bc-a6eff10ac3a7" d="M156.94,232.66l7.54,1.26c.53.09.53.09.45.57s-.13.7-.17,1-.16.33-.44.28l-9.3-1.57c-.33-.05-.41,0-.45.3-.35,2.17-.72,4.33-1.07,6.49-.05.31-.2.36-.51.31l-5.19-.87c-.3,0-.4-.14-.35-.42q.72-4.19,1.4-8.39c.05-.31.19-.34.48-.29Z" transform="translate(-0.98 -0.52)"/><path class="ed0e1082-6708-49c1-a424-45e6507dcffc" d="M224.85,265.68,226,259a1.74,1.74,0,0,1,2.34-1.33,2.14,2.14,0,0,1,1.43,1.06c2.19,4.06,4.41,8.11,6.61,12.17.17.3.2.31.45.08l8.14-7.43,2.16-2a2.34,2.34,0,0,1,3.26.37,1.32,1.32,0,0,1,.25,1q-1.17,6.91-2.32,13.83c0,.29-.15.39-.49.32-1-.19-2-.35-3.06-.51-.3-.05-.36-.15-.31-.4.47-2.79.93-5.58,1.4-8.37,0,0,0-.08,0-.12s.11-.25,0-.31-.18.1-.26.17l-4.89,4.53c-1,.89-2,1.74-2.87,2.68a2.38,2.38,0,0,1-3.55-.6c-1.63-3.16-3.37-6.28-5.06-9.42,0-.07-.06-.19-.17-.17s-.11.14-.12.22q-.7,4.21-1.4,8.43c-.08.46-.08.46-.59.37-1-.17-1.95-.34-2.93-.49-.28,0-.34-.15-.3-.38.4-2.36.79-4.72,1.19-7.07Z" transform="translate(-0.98 -0.52)"/><path class="ed0e1082-6708-49c1-a424-45e6507dcffc" d="M220.34,265q-.59,3.46-1.16,6.95c-.07.38-.08.38-.52.31l-3-.5c-.27,0-.32-.14-.29-.36.36-2.07.7-4.14,1-6.2.13-.82.27-1.63.41-2.44,0-.08.06-.18-.06-.22s-.13.06-.19.11l-6.5,6c-.5.46-1,.9-1.48,1.37a2.34,2.34,0,0,1-3.35-.6c-1.59-3-3.25-6.05-4.88-9.07-.1-.17-.19-.34-.28-.51s-.05-.14-.13-.14-.1.1-.11.17,0,.27-.06.4c-.46,2.73-.91,5.46-1.37,8.19-.06.38-.07.37-.51.3-1-.18-2-.35-3-.5-.3,0-.4-.13-.35-.41q1.16-6.86,2.3-13.71a1.52,1.52,0,0,1,1.5-1.37,2.24,2.24,0,0,1,2.21,1c1.11,2,2.2,4,3.3,6l3.44,6.31c.14.27.24.14.37,0l2.95-2.7c2.42-2.2,4.85-4.39,7.24-6.63a2.4,2.4,0,0,1,3.17,0,1.32,1.32,0,0,1,.45,1.21c-.4,2.31-.78,4.61-1.16,6.92Z" transform="translate(-0.98 -0.52)"/><path class="ed0e1082-6708-49c1-a424-45e6507dcffc" d="M253.49,270.64c.38-2.24.75-4.47,1.13-6.7a1.6,1.6,0,0,1,1.91-1.29c.72.09,1.45.23,2.17.35,2.37.39,4.75.78,7.13,1.19a12.61,12.61,0,0,1,6.36,3,6.88,6.88,0,0,1,2.51,6.52q-.6,3.66-1.22,7.32c-.07.41-.08.41-.53.34-1-.17-2-.34-3-.49-.29,0-.37-.15-.32-.4.19-1,.35-2.08.53-3.12.05-.27,0-.4-.34-.45l-12.77-2.14c-.28-.05-.36,0-.4.28-.16,1-.35,2.08-.51,3.12-.05.3-.17.38-.5.31-1-.18-2-.34-3-.5-.32,0-.44-.14-.38-.45.39-2.28.77-4.57,1.15-6.85ZM264,273l6.37,1.07c.3,0,.43,0,.46-.28s.08-.52.12-.78a4.27,4.27,0,0,0-1.54-4.2,8.48,8.48,0,0,0-4-1.85c-2.25-.43-4.52-.78-6.77-1.17-.34-.06-.36.12-.4.33q-.44,2.69-.9,5.37c0,.29,0,.4.36.46Z" transform="translate(-0.98 -0.52)"/><path class="ed0e1082-6708-49c1-a424-45e6507dcffc" d="M191.25,260.22c-.38,2.28-.77,4.57-1.14,6.85-.05.3-.16.38-.49.32-1-.19-2-.35-3-.51-.29,0-.36-.14-.32-.4.19-1,.35-2.08.54-3.11.05-.3,0-.41-.37-.46l-12.67-2.12c-.31-.05-.44,0-.48.3-.16,1-.35,2.05-.5,3.09,0,.3-.17.37-.5.31-1-.18-1.95-.33-2.93-.5-.43-.07-.43-.07-.36-.47q.62-3.74,1.25-7.47a6.55,6.55,0,0,1,3.37-4.67,11.55,11.55,0,0,1,7-1.39c1.85.16,3.67.57,5.51.87,1.55.24,3.1.51,4.65.77A1.91,1.91,0,0,1,192.4,253a1.24,1.24,0,0,1,0,.47l-1.14,6.79Zm-10.67-1.14h0c2.11.35,4.22.7,6.33,1.07.32.05.44,0,.48-.29.3-1.81.6-3.63.91-5.44,0-.26,0-.37-.33-.42q-3-.48-6-1a11.11,11.11,0,0,0-3.77,0,4.85,4.85,0,0,0-3.81,2.54,7.49,7.49,0,0,0-.52,2c-.07.4-.07.41.4.48Z" transform="translate(-0.98 -0.52)"/><path class="ed0e1082-6708-49c1-a424-45e6507dcffc" d="M153,261.25l-7-1.17c-.49-.08-.49-.08-.42-.5.25-1.48.5-3,.74-4.45.05-.28.15-.39.49-.32.84.16,1.68.29,2.52.42.31.05.41.17.35.45-.12.58-.2,1.17-.31,1.76,0,.23,0,.33.31.38l7,1.15c1,.17,2,.36,3.06.54a4.41,4.41,0,0,0,.73.08,1.08,1.08,0,0,0,1.24-.95q.94-5.58,1.86-11.15c0-.3.15-.4.51-.33,1,.18,2,.35,3,.5.3.05.38.15.33.42-.64,3.78-1.26,7.55-1.9,11.33a3.93,3.93,0,0,1-3.34,2.92,7.76,7.76,0,0,1-2.76,0L153,261.25Z" transform="translate(-0.98 -0.52)"/><path class="b22be402-f52d-48e6-b0bc-a6eff10ac3a7" d="M264,273l-6.33-1c-.34-.06-.41-.17-.36-.46q.47-2.68.9-5.37c0-.21.06-.39.4-.33,2.25.39,4.52.74,6.77,1.17a8.48,8.48,0,0,1,4,1.85,4.27,4.27,0,0,1,1.54,4.2c0,.26-.1.52-.12.78s-.16.33-.46.28Z" transform="translate(-0.98 -0.52)"/><path class="b22be402-f52d-48e6-b0bc-a6eff10ac3a7" d="M180.58,259.08l-6.3-1.06c-.47-.07-.47-.08-.4-.48a7.49,7.49,0,0,1,.52-2,4.85,4.85,0,0,1,3.81-2.54,11.11,11.11,0,0,1,3.77,0q3,.51,6,1c.31.05.38.16.33.42-.31,1.81-.61,3.63-.91,5.44,0,.29-.16.34-.48.29-2.11-.37-4.22-.72-6.33-1.07Z" transform="translate(-0.98 -0.52)"/></g><g id="e4ae78f6-a271-4228-986f-8816fe1cf8dc" data-name="Calque 2"><g id="fdb776db-b5ff-4fbe-8534-c23fd62b804f" data-name="Calque 1-2"><g id="a19dc77f-3945-449c-ac63-56504d2683cf" data-name="layer1"><path id="ba2d0435-106c-4e67-b553-bd9d6979da9a" data-name="rect4393" class="be28901e-e27a-4065-99a5-5996130143b5" d="M263.88,77.15c-4.24-.64-7.79,2.85-7.79,7.65v15.47c0,4.79,3.56,9.37,7.79,10l24.91,3.9c4.26.67,7.85-2.81,7.86-7.63l0-15.54c0-4.83-3.58-9.43-7.85-10.08Zm1.83,9.78,21.16,3.26v14.43l-21.15-3.29Z" transform="translate(-0.98 -0.52)"/><path id="a89015b0-e037-4b03-8def-b5c7e44a6ae3" data-name="rect4348" class="be28901e-e27a-4065-99a5-5996130143b5" d="M81.09,49.9l.2,32,9.19,1.44L90.34,60.6l17.44,2.68.12,22.78L117,87.48l-.12-23.34c0-4.71-3.47-9.2-7.55-9.82C109.21,54.2,81.09,49.9,81.09,49.9Z" transform="translate(-0.98 -0.52)"/><path id="ed089f52-d424-47a3-8964-ae404cfa1e8b" data-name="path4359" class="be28901e-e27a-4065-99a5-5996130143b5" d="M123,56.31l0,8.47,25.34,3.89v2.26l-19.77-3c-4.09-.63-7.5,2.8-7.48,7.62l0,3.86c0,4.71,3.48,9.21,7.66,9.86l28.91,4.54-.09-23.35c0-4.74-3.49-9.25-7.71-9.89L123,56.31Zm7.52,20.45,17.81,2.76,0,4.62-17.81-2.77Z" transform="translate(-0.98 -0.52)"/><path id="eb54c970-da1d-4007-876f-c17869cb0f50" data-name="path4384" class="be28901e-e27a-4065-99a5-5996130143b5" d="M163.36,62.46l.12,32.31,9.38,1.48-.07-23,9.7,1.49.07,23L192,99.25l-.06-23,9.94,1.53,0,23,9.29,1.46,0-23.61c0-4.77-3.53-9.32-7.7-10C203.37,68.57,163.36,62.46,163.36,62.46Z" transform="translate(-0.98 -0.52)"/><path id="f9cb7b70-0474-40c3-b468-68e01cdef651" data-name="rect4389" class="be28901e-e27a-4065-99a5-5996130143b5" d="M224.39,71.13c-4.2-.64-7.71,2.84-7.71,7.61l0,15.4c0,4.76,3.53,9.32,7.72,10l26.19,4.11V98.76L226.33,95l0-14.11,24.3,3.74V75.13Z" transform="translate(-0.98 -0.52)"/><path id="b5c2174f-b2e8-4f88-adc7-4bf2d2f45861" data-name="text4406" class="a619fb82-9407-4480-b200-98e8c5b9783b" d="M303,83.45a5.53,5.53,0,0,1,3.31,2,6.41,6.41,0,0,1,1.35,3.94A5,5,0,0,1,306.3,93,3.78,3.78,0,0,1,303,94a5.44,5.44,0,0,1-3.3-2A6.44,6.44,0,0,1,298.32,88a4.87,4.87,0,0,1,1.37-3.52,3.82,3.82,0,0,1,3.31-1Zm0,9.65a3,3,0,0,0,2.72-.89,3.86,3.86,0,0,0,1.18-2.9,5.11,5.11,0,0,0-1.17-3.25A4.2,4.2,0,0,0,303,84.33a3,3,0,0,0-2.73.9,3.81,3.81,0,0,0-1.17,2.89,5.14,5.14,0,0,0,1.16,3.25A4.18,4.18,0,0,0,303,93.1Zm2-1.22-.87-.13-.39-1.27a1.56,1.56,0,0,0-1.36-1.3l-.59-.09v2.3l-.78-.12V85.68l1.85.28c1.36.21,1.94.85,1.94,1.83s-.39,1.48-1.26,1.46a1.85,1.85,0,0,1,1,1.24C304.55,90.38,305,91.88,305,91.88Zm-3.21-3.56,1,.15c.78.12,1.17-.15,1.17-.7s-.39-.94-1.27-1.07l-1-.15V88.3Z" transform="translate(-0.98 -0.52)"/></g></g><path class="b75b89ab-d834-4be0-83eb-2310ecc5c1cc" d="M87.81,112.36l0-5.32,18.59,3,0-3.63-12.71-2v-.1l-.55-.09c-.19,0-.28-.15-.37-.17a.32.32,0,0,1-.28-.15.38.38,0,0,1-.28-.15.34.34,0,0,1-.27-.15c-.09,0-.19-.13-.28-.15s-.18-.13-.28-.15-.18-.13-.27-.15-.19-.13-.28-.15-.18-.13-.28-.26-.18-.13-.27-.25-.19-.14-.28-.26-.18-.13-.28-.26l-.27-.36-.28-.36-.37-.49h0L88,99.32l-.19-.46a4.91,4.91,0,0,0-.1-.54v-.53l0-3.62a4.41,4.41,0,0,1,.09-.52.39.39,0,0,1,.09-.31c0-.1.09-.2.09-.3s.09-.2.09-.31.09-.2.09-.3.09-.2.18-.29a.49.49,0,0,0,.18-.29c.18,0,.18-.08.27-.17l.37-.37h0l1.56-.93.82-.29a.75.75,0,0,1,.46,0c.09,0,.18-.08.37,0h.09c.18,0,.28-.06.37,0l.27,0,.28,0h.09V90l19,3,0,5.35-18.64-3,0,3.63,12.72,2,.09.12.47.07c.18,0,.27.15.37.17a20.49,20.49,0,0,0,.55.3.36.36,0,0,1,.28.15.38.38,0,0,1,.28.15c.09,0,.18.14.27.15s.19.14.28.15.19.14.28.15.19.14.28.15.18.14.28.26.18.14.27.26.19.13.28.26.19.13.28.25l.28.37.28.36.28.37v.1l.75,1.51a1,1,0,0,1,.09.44.92.92,0,0,0,.1.44v.11l.09.12,0,4.16c0,.22-.09.31-.09.42a.38.38,0,0,1-.09.3c0,.11-.09.2-.09.31s-.09.19-.09.3a.46.46,0,0,1-.18.29c-.1.09-.1.2-.19.29s-.09.2-.18.29l-.28.28-.18.18h-.09l-1.93,1.18-.74.2c-.19.08-.28.06-.37.15a.6.6,0,0,0-.37,0h-.09c-.19,0-.28.06-.37,0l-.28,0-.27-.05h-.1l-19-3Z" transform="translate(-0.98 -0.52)"/><path class="b75b89ab-d834-4be0-83eb-2310ecc5c1cc" d="M124,118.17l0-7.26-3.43-.55h0l-.55-.09c-.19,0-.28-.15-.38-.16a.38.38,0,0,1-.27-.15.36.36,0,0,1-.28-.16c-.09,0-.19-.13-.28-.15s-.19-.13-.28-.15-.18-.13-.28-.26-.18-.13-.28-.25-.18-.14-.28-.26-.18-.14-.27-.26-.19-.14-.28-.26l-.28-.36c-.1-.12-.19-.14-.28-.26l-.28-.37h0l-1.4-2.57c-.09-.22-.09-.44-.19-.56s-.09-.23-.09-.33-.1-.34-.1-.45v-.64h0l0-9.4,6.21,1,0,9.09,12.63,2,0-9.1,6.24,1,0,9.44-.09,0v.64c0,.22-.09.31-.09.42a.38.38,0,0,1-.09.3c0,.11-.09.2-.09.31s-.1.2-.1.31a.49.49,0,0,1-.18.29c-.09.09-.09.2-.19.29s-.09.2-.18.29-.09.2-.18.29-.1.2-.19.3-.09.19-.18.29l-.28.27c-.09.1-.19.19-.19.3s-.09.19-.18.18l-.09,0-2.14,1.27c-.18.08-.28.06-.37.15s-.18.08-.28.07-.28.06-.37,0l-.28,0-.18,0-.1,0h-.09L130,112l0,7.27-6-1Z" transform="translate(-0.98 -0.52)"/><path class="b75b89ab-d834-4be0-83eb-2310ecc5c1cc" d="M141.44,121l0-5.35,18.86,3V115l-12.9-2.06v-.11l-.56-.09c-.18,0-.28-.15-.37-.16a.38.38,0,0,1-.28-.16,8353198190671.66,8353198190671.66,0,0,0-.56-.3c-.1,0-.19-.14-.28-.15s-.19-.14-.28-.15-.19-.14-.28-.15-.19-.14-.28-.16-.19-.13-.28-.26-.19-.13-.28-.25-.19-.14-.28-.26-.19-.14-.29-.26l-.28-.37-.28-.36-.37-.49h0l-.75-1.41-.19-.45a5.47,5.47,0,0,0-.1-.56v-4.18c0-.21.09-.3.09-.41a.41.41,0,0,1,.09-.31c0-.1.09-.2.09-.3s.09-.2.09-.31.1-.2.09-.31.1-.2.19-.29.19-.18.18-.29a.46.46,0,0,0,.19-.29l.37-.37h0l1.58-.93.84-.3a.79.79,0,0,1,.47,0c.09,0,.18-.08.37,0h.09c.19,0,.28-.06.37,0l.28,0,.28,0,.1,0v-.11l19.27,3,0,5.38-18.8-3v3.65l12.9,2,.09.12.47.07c.19,0,.28.15.38.17a.36.36,0,0,1,.28.15,8353198190697.2,8353198190697.2,0,0,0,.56.3.36.36,0,0,1,.28.16c.1,0,.19.13.28.15s.19.14.29.15.18.14.28.15.19.14.28.16.19.13.28.26.19.13.28.25.19.14.28.26.19.14.29.26l.28.37.28.37.28.37v.1l.76,1.52a1,1,0,0,1,.09.44,1.1,1.1,0,0,0,.1.45v.11l.09.12,0,4.19c0,.21-.09.31-.09.41a.37.37,0,0,1-.1.31c0,.11-.09.2-.09.31s-.09.2-.09.31-.1.2-.19.29-.09.2-.18.29-.1.2-.19.29l-.28.28-.19.18h-.09l-2,1.19-.75.2c-.19.08-.28.06-.38.15a.6.6,0,0,0-.37,0l-.09,0c-.19,0-.28.07-.38,0l-.28,0-.28,0h-.09l-19.23-3.1Z" transform="translate(-0.98 -0.52)"/><path class="b75b89ab-d834-4be0-83eb-2310ecc5c1cc" d="M178.12,126.88l0-16.25-9.59-1.52,0-7.31,25.43,4v7.33l-9.62-1.52,0,16.37-6.21-1Z" transform="translate(-0.98 -0.52)"/><path class="b75b89ab-d834-4be0-83eb-2310ecc5c1cc" d="M201,131.21c-3.43-1.09-5.19-4.77-5.28-9-.12-5.21-1.43-15,4.31-15.25.11,0,14.82,2.3,14.82,2.3,9.5,1.13,8.22,8.24,8.17,16.48l-19.17-3.06v3.56L223,129.34v5.41l-21.35-3.43Zm13.93-13.11v-3.46l-11.42-1.81v3.46Z" transform="translate(-0.98 -0.52)"/><path class="b75b89ab-d834-4be0-83eb-2310ecc5c1cc" d="M223.33,134.15l0-23.71,29.24,4.61v.11l.58.09c.19,0,.29.16.38.17a.39.39,0,0,1,.29.16.38.38,0,0,1,.29.15c.09,0,.19.14.29.15s.19.14.28.27.2.14.29.26.19.14.29.26.19.14.29.27.19.14.29.26.19.25.28.26l.29.37c.1.13.29.27.48.51v.11l1.35,2.72c.09.23.09.45.19.57s.1.23.1.45v.65a1,1,0,0,0,.19.58v16.52l-6.43-1V122.29l-8-1.28V137.5l-6.4-1,0-16.48-8-1.27v16.46Z" transform="translate(-0.98 -0.52)"/><path class="b75b89ab-d834-4be0-83eb-2310ecc5c1cc" d="M277.74,142.89V126.44l-6.46-1V118l6.76,1.07h0l.38.06c.1,0,.2.14.29.15s.1,0,.2.14l.09,0c.1,0,.2.14.29.15s.1,0,.2.14l.09,0,1.26.85h0l1.83,2h0l1,2,.19.8a.46.46,0,0,1,.1.34c0,.11,0,.11.09.23v.44c0,.11,0,.11.1.23V127h0v16.9Z" transform="translate(-0.98 -0.52)"/><path class="b75b89ab-d834-4be0-83eb-2310ecc5c1cc" d="M292.92,145.33l0-16.48-6.49-1V120.4l6.78,1.07h0l.38.06c.1,0,.2.14.3.16s.09,0,.19.14h.1c.09,0,.19.14.29.16s.09,0,.19.14h.1l1.26.86h0l1.84,2h0l1,2,.19.79a.5.5,0,0,1,.1.35c0,.11,0,.11.09.23v.44c0,.11,0,.11.1.23v.33h0l0,16.93Z" transform="translate(-0.98 -0.52)"/></g></svg>