<svg xmlns="http://www.w3.org/2000/svg" xmlns:xlink="http://www.w3.org/1999/xlink" viewBox="0 0 470.58 67.66"><defs><style>.ebd3eb53-6911-4338-afa9-c228627096ac{stroke:#9def48;stroke-miterlimit:10;fill:url(#aa67abc1-977e-4828-9f57-bbd2343c98f9);}.fd723d7a-061c-4f6f-9056-b5f58c051701{fill:#9def48;}.fcc9a733-4b93-4e6f-b0cd-0033fb98e79e{fill:#f91b20;}</style><linearGradient id="aa67abc1-977e-4828-9f57-bbd2343c98f9" x1="0.5" y1="33.83" x2="470.08" y2="33.83" gradientUnits="userSpaceOnUse"><stop offset="0" stop-color="#032c02"/><stop offset="1" stop-color="#207a09"/></linearGradient></defs><g id="a5b0ac8b-76ad-4817-a6a5-400209836fdf" data-name="calque3"><polygon class="ebd3eb53-6911-4338-afa9-c228627096ac" points="0.5 6.04 102.57 6.04 108.7 0.5 150.44 0.5 158.35 6.04 461.77 6.24 470.08 16.13 470.08 59.84 50.94 59.84 42.83 67.16 8.02 67.16 0.5 59.84 0.5 6.04"/><path class="fd723d7a-061c-4f6f-9056-b5f58c051701" d="M83.39,30.79l1.85,2A18.21,18.21,0,0,1,81,45.08H56.87a17.11,17.11,0,0,1-3.67-7.3h4.37A19,19,0,0,0,59.06,41H78.85A17.3,17.3,0,0,0,81,34.84H54.49l-1.84-2a18.22,18.22,0,0,1,4.22-12.25H81a17.11,17.11,0,0,1,3.67,7.3H80.32a18.55,18.55,0,0,0-1.47-3.23H59.06a17.33,17.33,0,0,0-2.21,6.15Z"/><path class="fd723d7a-061c-4f6f-9056-b5f58c051701" d="M90.5,34.84l-1.84-2a18.17,18.17,0,0,1,4.22-12.25h4.89v4.07h-2.7a17.33,17.33,0,0,0-2.21,6.15H117a17.44,17.44,0,0,0-2.18-6.15h-2.72V20.57H117a18.22,18.22,0,0,1,4.22,12.25A18.21,18.21,0,0,1,117,45.08H92.88a17.13,17.13,0,0,1-3.68-7.3h4.38A19,19,0,0,0,95.07,41h19.79A17.08,17.08,0,0,0,117,34.84Z"/><path class="fd723d7a-061c-4f6f-9056-b5f58c051701" d="M155.41,30.79l1.85,2A18.17,18.17,0,0,1,153,45.08H128.89a17.13,17.13,0,0,1-3.68-7.3h4.38A19,19,0,0,0,131.07,41h19.79a16.92,16.92,0,0,0,2.19-6.17H126.51l-1.84-2a18.17,18.17,0,0,1,4.22-12.25H153a17.13,17.13,0,0,1,3.68,7.3h-4.38a17.18,17.18,0,0,0-1.47-3.23H131.07a17.49,17.49,0,0,0-2.2,6.15Z"/><path class="fd723d7a-061c-4f6f-9056-b5f58c051701" d="M177.18,41.61l-4.06,4.06v-21h-13.3V20.57h30.66v4.07h-13.3Z"/><path class="fd723d7a-061c-4f6f-9056-b5f58c051701" d="M215.79,34.84H198.87a17.66,17.66,0,0,0,2.2,6.17h20.14l2.34,4.07H198.89a17.62,17.62,0,0,1-4.14-10.24h-3.84V30.79h3.84a17.51,17.51,0,0,1,4.14-10.22h24.66l-2.34,4.07H201.07a17.49,17.49,0,0,0-2.2,6.15h16.92Z"/><path class="fd723d7a-061c-4f6f-9056-b5f58c051701" d="M239.53,24.64h-7.87a16.32,16.32,0,0,0-2.34,8.18A16.41,16.41,0,0,0,231.66,41h2.71v4.07h-4.89a18.2,18.2,0,0,1-4.22-12.26,18.13,18.13,0,0,1,4.22-12.25h10.05V16.72h4.05v3.85h10a18.18,18.18,0,0,1,4.22,12.25,18.25,18.25,0,0,1-4.22,12.26h-4.89V41h2.72a16.59,16.59,0,0,0,2.32-8.19,16.49,16.49,0,0,0-2.32-8.18h-7.88V39.16h-4.05Z"/><path class="fd723d7a-061c-4f6f-9056-b5f58c051701" d="M276.05,24.64h-4.53V20.57h8.59v21l-4.06,4.06Z"/><path class="fd723d7a-061c-4f6f-9056-b5f58c051701" d="M289.77,24.64h-4.53V20.57h8.6v21l-4.07,4.06Z"/></g><g id="a2a1006b-51d8-442d-8390-86298fb8dba2" data-name="namco"><path id="f4fef489-5eaf-4492-8758-89e740131d30" data-name="rect4393" class="fcc9a733-4b93-4e6f-b0cd-0033fb98e79e" d="M21.49,16.56a2,2,0,0,0,2,2h3.54a2,2,0,0,0,2-2V10.15a2,2,0,0,0-2-2H23.51a2,2,0,0,0-2,2Zm2.15-.46V10.65h3.28V16.1Z"/><path id="b37cdbac-dacf-4275-8ed8-778186b000a9" data-name="rect4348" class="fcc9a733-4b93-4e6f-b0cd-0033fb98e79e" d="M21.64,64.82h7.44V62.33H23.79V57.65h5.29V55.21H23.66a2,2,0,0,0-2,2Z"/><path id="a8576463-3669-4334-b92b-5abae36652da" data-name="path4359" class="fcc9a733-4b93-4e6f-b0cd-0033fb98e79e" d="M21.64,53.53h2V46.78h.53v5.27a2,2,0,0,0,2,2h.9a2,2,0,0,0,2-2v-7.7H23.66a2,2,0,0,0-2,2v7.16Zm4.47-2V46.79h1.06v4.75Z"/><path id="aff4549b-3210-4763-9747-8a3e0199839d" data-name="path4384" class="fcc9a733-4b93-4e6f-b0cd-0033fb98e79e" d="M21.64,42.82h7.44V40.33H23.79V37.78h5.29V35.29H23.79v-2.6h5.29V30.25H23.66a2,2,0,0,0-2,2Z"/><path id="bfda8bae-bba4-4a53-a567-10d6d81c32a5" data-name="rect4389" class="fcc9a733-4b93-4e6f-b0cd-0033fb98e79e" d="M21.49,26.79a2,2,0,0,0,2,2h3.54a2,2,0,0,0,2-2V20H26.92v6.3H23.64V20H21.49Z"/></g></svg>