<svg id="b0bcf37d-c584-4b36-8d77-3c6369c8af9e" data-name="texte" xmlns="http://www.w3.org/2000/svg" xmlns:xlink="http://www.w3.org/1999/xlink" viewBox="0 0 470.33 67.41"><defs><style>.a558f907-1449-4e9b-8820-e20f7761252e{stroke:#9def48;stroke-miterlimit:10;stroke-width:0.75px;fill:url(#a8ef6a05-ce44-4285-9e35-b2ba7e408e42);}.b497d696-5088-417e-b0a9-154a541aacee{fill:#9def48;}</style><linearGradient id="a8ef6a05-ce44-4285-9e35-b2ba7e408e42" x1="0.38" y1="33.7" x2="469.96" y2="33.7" gradientUnits="userSpaceOnUse"><stop offset="0" stop-color="#032c02"/><stop offset="1" stop-color="#207a09"/></linearGradient></defs><polygon class="a558f907-1449-4e9b-8820-e20f7761252e" points="0.38 5.91 102.44 5.91 108.57 0.38 150.31 0.38 158.22 5.91 461.65 6.11 469.96 16 469.96 59.72 50.81 59.72 42.7 67.03 7.89 67.03 0.38 59.72 0.38 5.91"/><path class="b497d696-5088-417e-b0a9-154a541aacee" d="M80.52,35.64H57.77a14.88,14.88,0,0,0,1.89,5.29H62v3.48H57.78a15.07,15.07,0,0,1-3.54-8.77h-3.3V32.17h3.3a15,15,0,0,1,3.54-8.76h20.7a15.57,15.57,0,0,1,3.62,10.5ZM57.77,32.17H78.49a15.11,15.11,0,0,0-1.87-5.28h-17A14.77,14.77,0,0,0,57.77,32.17Z" transform="translate(-0.06 -0.03)"/><path class="b497d696-5088-417e-b0a9-154a541aacee" d="M89.17,40.93H105l2,3.48H85.69v-18l3.48-3.49Z" transform="translate(-0.06 -0.03)"/><path class="b497d696-5088-417e-b0a9-154a541aacee" d="M117.2,38.57l-3.68,5.84h-4.35l13.34-21h4l13.24,21h-4.29l-3.64-5.84Zm12.48-3.47-5.13-8.22-5.17,8.22Z" transform="translate(-0.06 -0.03)"/><path class="b497d696-5088-417e-b0a9-154a541aacee" d="M150.26,41.44l-3.49,3.49v-18h-11.4V23.41h26.28v3.48H150.26Z" transform="translate(-0.06 -0.03)"/><path class="b497d696-5088-417e-b0a9-154a541aacee" d="M183.35,35.64h-14.5a14.88,14.88,0,0,0,1.89,5.29H188l2,3.48H168.86a15.07,15.07,0,0,1-3.54-8.77H162V32.17h3.3a15,15,0,0,1,3.54-8.76H190l-2,3.48H170.74a14.77,14.77,0,0,0-1.89,5.28h14.5Z" transform="translate(-0.06 -0.03)"/><path class="b497d696-5088-417e-b0a9-154a541aacee" d="M200.3,44.41h-4.19a15.08,15.08,0,0,1-3.55-8.77h-3.29V32.17h3.29a15,15,0,0,1,3.55-8.76h21.13l-2,3.48H198a15.16,15.16,0,0,0-1.89,5.28h14.5v3.47h-14.5A15.28,15.28,0,0,0,198,40.93h2.32Z" transform="translate(-0.06 -0.03)"/><path class="b497d696-5088-417e-b0a9-154a541aacee" d="M243,44.41h-20.7a15.55,15.55,0,0,1-3.62-10.5,15.52,15.52,0,0,1,3.62-10.5H243a15.56,15.56,0,0,1,3.61,10.5A15.6,15.6,0,0,1,243,44.41Zm-1.87-3.48a14.16,14.16,0,0,0,2-7,14.11,14.11,0,0,0-2-7h-17a14,14,0,0,0-2,7,14.06,14.06,0,0,0,2,7Z" transform="translate(-0.06 -0.03)"/><path class="b497d696-5088-417e-b0a9-154a541aacee" d="M272.92,40.93h2.33a15.25,15.25,0,0,0,1.88-5.29H256.4a14.88,14.88,0,0,0,1.89,5.29h2.31v3.48h-4.19a15.07,15.07,0,0,1-3.54-8.77h-3.3V32.17h3.3a15,15,0,0,1,3.54-8.76h20.7a15.09,15.09,0,0,1,3.55,8.77l-1.51.85v1.76l1.51.85a15.15,15.15,0,0,1-3.55,8.77h-4.19ZM256.4,32.17h20.73a15.13,15.13,0,0,0-1.88-5.28h-17A14.77,14.77,0,0,0,256.4,32.17Z" transform="translate(-0.06 -0.03)"/><path class="b497d696-5088-417e-b0a9-154a541aacee" d="M295.82,26.89h-6.74a14,14,0,0,0-2,7,14.08,14.08,0,0,0,2,7h2.31v3.48H287.2a15.6,15.6,0,0,1-3.61-10.5,15.56,15.56,0,0,1,3.61-10.5h8.62v-3.3h3.47v3.3h8.61a15.52,15.52,0,0,1,3.62,10.5,15.55,15.55,0,0,1-3.62,10.5h-4.19V40.93H306a14.15,14.15,0,0,0,2-7,14.09,14.09,0,0,0-2-7h-6.75V39.34h-3.47Z" transform="translate(-0.06 -0.03)"/><path class="b497d696-5088-417e-b0a9-154a541aacee" d="M335.78,35.64h-14.5a14.88,14.88,0,0,0,1.89,5.29h17.25l2,3.48H321.29a15.07,15.07,0,0,1-3.54-8.77h-3.3V32.17h3.3a15,15,0,0,1,3.54-8.76h21.14l-2,3.48H323.17a14.77,14.77,0,0,0-1.89,5.28h14.5Z" transform="translate(-0.06 -0.03)"/></svg>