<svg xmlns="http://www.w3.org/2000/svg" xmlns:xlink="http://www.w3.org/1999/xlink" viewBox="0 0 470.33 67.41"><defs><style>.f7f67a77-bb07-4904-9c67-7519a3cbed50{stroke:#9def48;stroke-miterlimit:10;stroke-width:0.75px;fill:url(#b1184115-eed9-4498-86fe-c8c90eebd7e1);}.ec9a9749-1c01-4624-887d-2167a966ab0b{fill:#9def48;}.bb685ef1-4c87-422d-9a58-451f1a14a3f8{fill:#fff;}</style><linearGradient id="b1184115-eed9-4498-86fe-c8c90eebd7e1" x1="0.38" y1="33.7" x2="469.96" y2="33.7" gradientUnits="userSpaceOnUse"><stop offset="0" stop-color="#032c02"/><stop offset="1" stop-color="#207a09"/></linearGradient></defs><g id="f36ebd43-36bb-493e-a98c-8b538c8ce4fc" data-name="texte"><polygon class="f7f67a77-bb07-4904-9c67-7519a3cbed50" points="0.38 5.91 102.44 5.91 108.57 0.38 150.31 0.38 158.22 5.91 461.65 6.11 469.96 16 469.96 59.72 50.81 59.72 42.7 67.03 7.89 67.03 0.38 59.72 0.38 5.91"/><path class="ec9a9749-1c01-4624-887d-2167a966ab0b" d="M85.28,34.64H59.5a17,17,0,0,0,2.14,6h2.62v3.95H59.52a17.09,17.09,0,0,1-4-9.94H51.76V30.7H55.5a17,17,0,0,1,4-9.92H83a17.59,17.59,0,0,1,4.1,11.9ZM59.5,30.7H83a17.23,17.23,0,0,0-2.12-6H61.64A16.89,16.89,0,0,0,59.5,30.7Z" transform="translate(-0.06 -0.03)"/><path class="ec9a9749-1c01-4624-887d-2167a966ab0b" d="M95.09,40.63H113l2.27,3.95H91.14V24.15l4-3.95Z" transform="translate(-0.06 -0.03)"/><path class="ec9a9749-1c01-4624-887d-2167a966ab0b" d="M126.85,38l-4.17,6.62h-4.93l15.13-23.8h4.55l15,23.8h-4.86L143.45,38ZM141,34l-5.81-9.31L129.33,34Z" transform="translate(-0.06 -0.03)"/><path class="ec9a9749-1c01-4624-887d-2167a966ab0b" d="M155.06,34.64l-1.8-2a17.65,17.65,0,0,1,4.11-11.9h4.74v3.95h-2.62a16.89,16.89,0,0,0-2.14,6h23.49a17.06,17.06,0,0,0-2.13-6h-2.63V20.78h4.74a17.64,17.64,0,0,1,4.1,11.9,17.59,17.59,0,0,1-4.1,11.9H157.37a16.57,16.57,0,0,1-3.57-7.08h4.25a17.84,17.84,0,0,0,1.44,3.13h19.22a16.69,16.69,0,0,0,2.13-6Z" transform="translate(-0.06 -0.03)"/><path class="ec9a9749-1c01-4624-887d-2167a966ab0b" d="M218.11,30.7l1.79,2a17.59,17.59,0,0,1-4.1,11.9H192.34a16.66,16.66,0,0,1-3.56-7.08H193a17.84,17.84,0,0,0,1.44,3.13h19.22a16.69,16.69,0,0,0,2.13-6H190l-1.8-2a17.69,17.69,0,0,1,4.1-11.9H215.8a16.55,16.55,0,0,1,3.57,7.09h-4.25a16.87,16.87,0,0,0-1.43-3.14H194.47a16.89,16.89,0,0,0-2.14,6Z" transform="translate(-0.06 -0.03)"/><path class="ec9a9749-1c01-4624-887d-2167a966ab0b" d="M239.26,41.21l-3.95,4V24.73H222.39V20.78h29.79v3.95H239.26Z" transform="translate(-0.06 -0.03)"/><path class="ec9a9749-1c01-4624-887d-2167a966ab0b" d="M256.29,38l-4.16,6.62H247.2l15.12-23.8h4.55l15,23.8H277L272.9,38ZM270.44,34l-5.81-9.31L258.77,34Z" transform="translate(-0.06 -0.03)"/><path class="ec9a9749-1c01-4624-887d-2167a966ab0b" d="M293.76,41.21l-3.95,4V24.73H276.9V20.78h29.78v3.95H293.76Z" transform="translate(-0.06 -0.03)"/><path class="ec9a9749-1c01-4624-887d-2167a966ab0b" d="M315.61,44.58h-3.95V24.15l3.95-3.95Z" transform="translate(-0.06 -0.03)"/><path class="ec9a9749-1c01-4624-887d-2167a966ab0b" d="M348.15,44.58H324.69a17.67,17.67,0,0,1-4.1-11.9,17.64,17.64,0,0,1,4.1-11.9h23.46a17.64,17.64,0,0,1,4.1,11.9A17.67,17.67,0,0,1,348.15,44.58ZM346,40.63a15.93,15.93,0,0,0,2.26-8A15.87,15.87,0,0,0,346,24.73H326.82a15.8,15.8,0,0,0-2.28,8,15.86,15.86,0,0,0,2.28,8Z" transform="translate(-0.06 -0.03)"/><path class="ec9a9749-1c01-4624-887d-2167a966ab0b" d="M361.8,24.73a15.8,15.8,0,0,0-2.28,8,15.86,15.86,0,0,0,2.28,8h2.62v3.95h-4.75a17.67,17.67,0,0,1-4.1-11.9,17.64,17.64,0,0,1,4.1-11.9h23.46a17.64,17.64,0,0,1,4.1,11.9,17.67,17.67,0,0,1-4.1,11.9h-4.75V40.63H381a15.93,15.93,0,0,0,2.26-8A15.87,15.87,0,0,0,381,24.73Z" transform="translate(-0.06 -0.03)"/><path class="ec9a9749-1c01-4624-887d-2167a966ab0b" d="M402.79,24.73l-2.28-3.95h24a17.16,17.16,0,0,1,4,9.94l-1.71,1v2l1.71,1a17.22,17.22,0,0,1-4,9.94h-24l2.28-3.95h19.57a17,17,0,0,0,2.12-6H408.05V30.7h16.43a16.83,16.83,0,0,0-2.12-6Z" transform="translate(-0.06 -0.03)"/></g><g id="b00f6dd6-15c0-4266-a39e-842b4f00c70f" data-name="sony"><g id="b196c2bd-0c78-4a62-85a9-5c7fa5f41a86" data-name="g2357"><g id="a032967d-89ea-48d9-8f49-e29918e236f6" data-name="g2365"><g id="b76dbd0e-f26c-4d9f-b03a-59c7474865c9" data-name="g2373"><g id="a842ec71-88a3-4ac1-b72c-198fd681059f" data-name="g2381"><path id="a4c64fef-77cb-46ad-afc9-dd7226165e36" data-name="path2427" class="bb685ef1-4c87-422d-9a58-451f1a14a3f8" d="M23.57,44.58a7.91,7.91,0,0,1-1.75,5.22,4.3,4.3,0,0,1-3.24,1.42,4.34,4.34,0,0,1-3.21-1.42,8.22,8.22,0,0,1-1.75-5.22,7.46,7.46,0,0,1,1.75-5.23A4.25,4.25,0,0,1,18.58,38a4.51,4.51,0,0,1,3.24,1.4,7.81,7.81,0,0,1,1.75,5.23H22.26a3.93,3.93,0,0,0-1.08-2.8,3.47,3.47,0,0,0-2.6-1,3.65,3.65,0,0,0-2.6,1,4.07,4.07,0,0,0-1.07,2.8A4,4,0,0,0,16,47.38a3.81,3.81,0,0,0,5.21,0,4,4,0,0,0,1.07-2.8" transform="translate(-0.06 -0.03)"/><path id="b8330650-e240-4107-ba5a-14b70c96bebf" data-name="path2429" class="bb685ef1-4c87-422d-9a58-451f1a14a3f8" d="M13.62,59.54a8.44,8.44,0,0,0,.69,3.4,2.54,2.54,0,0,0,2.3,1.78,2.39,2.39,0,0,0,1.65-.66,3.51,3.51,0,0,0,1-1.93c.11-.54.29-1.67.41-2.81s.23-2.25.35-2.7.22-1,.89-1a1,1,0,0,1,.93.75,5.61,5.61,0,0,1,.4,2.25,9.48,9.48,0,0,1-.47,2.68,3.17,3.17,0,0,1-1,1.55,1.78,1.78,0,0,1-1,.32v1.24H23.2V63.06h-.47a.19.19,0,0,1-.16-.3,11,11,0,0,0,.64-2,8.69,8.69,0,0,0,.27-2.09,9.06,9.06,0,0,0-.4-2.81,4.93,4.93,0,0,0-.82-1.68,2.31,2.31,0,0,0-1.84-.89,2.59,2.59,0,0,0-1.8.72,3.17,3.17,0,0,0-.6.89A5.35,5.35,0,0,0,17.64,56a27.66,27.66,0,0,0-.48,3.09,21.29,21.29,0,0,1-.37,2.76.67.67,0,0,1-.62.52.84.84,0,0,1-.72-.47,5.28,5.28,0,0,1-.51-2.54,7.37,7.37,0,0,1,.58-3,3.36,3.36,0,0,1,.41-.7A2.19,2.19,0,0,1,17.09,55V53.9h-3v1.24h.35c.12,0,.26.12.14.34a9.59,9.59,0,0,0-.93,4.06" transform="translate(-0.06 -0.03)"/><path id="fdb75db5-e6de-4165-b2d2-2ad6e39b1a41" data-name="path2431" class="bb685ef1-4c87-422d-9a58-451f1a14a3f8" d="M14.18,32.25l5.48-6.08L16,26.23c-.48,0-.69.09-.69.61V28h-1.1V22.8h1.1v1.11c0,.53.18.57.69.58l7-.1v1.78l-6.24,7h4.43c.48,0,.7,0,.7-.53V31.4H23v5.1H21.91V35.31c0-.45-.42-.43-.73-.43H16c-.33,0-.73,0-.73.75v1h-1.1" transform="translate(-0.06 -0.03)"/><path id="b18e5af7-1525-4832-a3b8-805caa1b0dfa" data-name="path2433" class="bb685ef1-4c87-422d-9a58-451f1a14a3f8" d="M21.91,16.86a1.56,1.56,0,0,0,0-.31.36.36,0,0,0-.21-.24l-.23,0H19.7c-.05,0-.06,0-.16.07l-3.77,3.33a1.28,1.28,0,0,0-.49.95v1.08h-1.1V15.63h1.1v.73c0,.18.16.29.34.14l2.48-2.07s0,0,0-.06-2.47-2.1-2.48-2.12a.22.22,0,0,0-.35.19v.75h-1.1v-5h1.1V9.31a.94.94,0,0,0,.42.87l3.83,3.36a.23.23,0,0,0,.17.05h1.75l.23,0a.36.36,0,0,0,.21-.24,2.85,2.85,0,0,0,0-.31V11.88H23v6H21.91" transform="translate(-0.06 -0.03)"/><polyline id="faf4f239-931e-4ee7-9ca0-34cede31cf1c" data-name="polyline2435" class="bb685ef1-4c87-422d-9a58-451f1a14a3f8" points="32.73 64.63 32.73 61.51 33.2 61.51 33.2 64.03 34.51 64.03 34.51 61.67 34.98 61.67 34.98 64.03 36.42 64.03 36.42 61.45 36.89 61.45 36.89 64.63"/><polyline id="b09e2738-389b-4e7b-8d59-b5ab53d1eb37" data-name="polyline2437" class="bb685ef1-4c87-422d-9a58-451f1a14a3f8" points="32.73 57.2 32.73 56.6 36.89 56.6 36.89 57.42 33.33 59.97 33.33 59.98 36.89 59.98 36.89 60.58 32.73 60.58 32.73 59.77 36.28 57.21 36.28 57.2"/><polyline id="a0b19e37-a489-46c0-94a8-170d14e497e6" data-name="polyline2439" class="bb685ef1-4c87-422d-9a58-451f1a14a3f8" points="33.23 54.36 33.23 56.13 32.73 56.13 32.73 51.99 33.23 51.99 33.23 53.77 36.89 53.77 36.89 54.36"/><polyline id="b6d15acd-1a83-449a-a296-c030ecea7a5a" data-name="polyline2441" class="bb685ef1-4c87-422d-9a58-451f1a14a3f8" points="32.73 51.48 32.73 48.36 33.2 48.36 33.2 50.88 34.51 50.88 34.51 48.52 34.98 48.52 34.98 50.88 36.42 50.88 36.42 48.3 36.89 48.3 36.89 51.48"/><path id="b0e395bf-5939-4397-887c-db0b95f3a552" data-name="path2443" class="bb685ef1-4c87-422d-9a58-451f1a14a3f8" d="M37,46.93v.6H32.78V45.48c0-1.28.44-1.57,1.1-1.57a1,1,0,0,1,1,1h0c.07-.56.29-.71,1-.82A5.52,5.52,0,0,0,37,43.81v.63c-.29.11-.88.17-1.35.28-.29.07-.51.27-.51,1.05v1.16m-.47,0V45.56c0-.63-.15-1-.68-1s-.68.27-.68,1v1.37Z" transform="translate(-0.06 -0.03)"/><polyline id="adee34ec-a75e-44c9-8ba9-c524f3e4df2a" data-name="polyline2445" class="bb685ef1-4c87-422d-9a58-451f1a14a3f8" points="33.23 41.75 33.23 43.52 32.73 43.52 32.73 39.39 33.23 39.39 33.23 41.16 36.89 41.16 36.89 41.75"/><path id="b29e1cd4-ee79-4071-85e1-848265f42a7a" data-name="path2447" class="bb685ef1-4c87-422d-9a58-451f1a14a3f8" d="M35.86,36.44V39l1.09.54v.67l-4.17-2.14v-.71L37,35.21v.69m-1.56.77-2.1,1,2.1,1Z" transform="translate(-0.06 -0.03)"/><rect id="b3e30238-a9bb-467c-bee6-4c3f1cc06d07" data-name="rect2449" class="bb685ef1-4c87-422d-9a58-451f1a14a3f8" x="32.72" y="34.14" width="4.17" height="0.6"/><polyline id="e255f0f7-924b-4e56-9c61-48c9b5c533e4" data-name="polyline2451" class="bb685ef1-4c87-422d-9a58-451f1a14a3f8" points="32.73 29.87 32.73 29.27 36.89 29.27 36.89 30.09 33.33 32.64 33.33 32.65 36.89 32.65 36.89 33.25 32.73 33.25 32.73 32.43 36.28 29.88 36.28 29.87"/><polyline id="b924bf97-89c5-4feb-bb3a-54d2ed539a6a" data-name="polyline2453" class="bb685ef1-4c87-422d-9a58-451f1a14a3f8" points="33.15 27.77 33.15 27.78 36.89 27.78 36.89 28.38 32.73 28.38 32.73 27.42 36.38 25.58 32.73 23.74 32.73 22.79 36.89 22.79 36.89 23.39 33.15 23.39 33.15 23.4 36.89 25.27 36.89 25.9"/><polyline id="e3e9b46d-a1da-441c-9fd7-db3c7ac3600a" data-name="polyline2455" class="bb685ef1-4c87-422d-9a58-451f1a14a3f8" points="32.73 21.9 32.73 18.78 33.2 18.78 33.2 21.3 34.51 21.3 34.51 18.94 34.98 18.94 34.98 21.3 36.42 21.3 36.42 18.71 36.89 18.71 36.89 21.9"/><polyline id="f2bd1d58-4af3-494c-9b44-29b9d6da1306" data-name="polyline2457" class="bb685ef1-4c87-422d-9a58-451f1a14a3f8" points="32.73 14.54 32.73 13.94 36.89 13.94 36.89 14.76 33.33 17.31 33.33 17.32 36.89 17.32 36.89 17.92 32.73 17.92 32.73 17.1 36.28 14.55 36.28 14.54"/><polyline id="b15c00de-3de2-42a5-b51c-5489b6942550" data-name="polyline2459" class="bb685ef1-4c87-422d-9a58-451f1a14a3f8" points="33.23 11.66 33.23 13.43 32.73 13.43 32.73 9.29 33.23 9.29 33.23 11.06 36.89 11.06 36.89 11.66"/><path id="a27dde3f-3a89-460e-bc3f-2a01967098d0" data-name="path2461" class="bb685ef1-4c87-422d-9a58-451f1a14a3f8" d="M29.57,58.59c1.38.2,1.91,1.5,1.91,3a3.09,3.09,0,0,1-3.29,3.27,3.18,3.18,0,0,1-3.29-3.52c0-1.48.74-2.61,1.8-2.69v1c-.8.15-1.1.89-1.1,1.75a2.34,2.34,0,0,0,2.59,2.5,2.33,2.33,0,0,0,2.58-2.5,1.7,1.7,0,0,0-1.2-1.84" transform="translate(-0.06 -0.03)"/><path id="f5a39dd7-f42b-4a1a-a7b3-77eb01d4fe07" data-name="path2463" class="bb685ef1-4c87-422d-9a58-451f1a14a3f8" d="M24.9,54.33a3.3,3.3,0,1,1,6.58,0,3.3,3.3,0,1,1-6.58,0m5.87,0a2.44,2.44,0,0,0-2.58-2.56,2.56,2.56,0,1,0,0,5.12A2.45,2.45,0,0,0,30.77,54.33Z" transform="translate(-0.06 -0.03)"/><polyline id="f12ec81d-304e-4e6b-a27d-0d859f03c8da" data-name="polyline2465" class="bb685ef1-4c87-422d-9a58-451f1a14a3f8" points="25.65 48.93 25.65 48.94 31.25 48.94 31.25 49.84 25 49.84 25 48.41 30.49 45.65 25 42.9 25 41.46 31.25 41.46 31.25 42.37 25.65 42.37 25.65 42.38 31.25 45.18 31.25 46.13"/><path id="bc6ba671-3841-4871-b3eb-c4ba4a955f36" data-name="path2467" class="bb685ef1-4c87-422d-9a58-451f1a14a3f8" d="M25.06,40V37.16c0-1.88.57-2.52,1.7-2.52s1.81.73,1.81,2.24v2.26h2.74V40m-3.46-2.92c0-1-.36-1.51-1.09-1.51s-1,.39-1,1.57v2h2.08v-2Z" transform="translate(-0.06 -0.03)"/><path id="a9b90b6a-5feb-4d74-8a0a-e7d5c33839ec" data-name="path2469" class="bb685ef1-4c87-422d-9a58-451f1a14a3f8" d="M25.05,28.89V28h3.73c1.79,0,2.68,1.21,2.68,2.91s-.89,2.91-2.68,2.91H25.05v-.9h3.77a1.8,1.8,0,0,0,1.94-2,1.81,1.81,0,0,0-1.94-2" transform="translate(-0.06 -0.03)"/><polyline id="b91393e7-2527-4dab-b73d-c0592f2bafa5" data-name="polyline2471" class="bb685ef1-4c87-422d-9a58-451f1a14a3f8" points="25.77 24.73 25.77 27.38 25 27.38 25 21.18 25.77 21.18 25.77 23.83 31.25 23.83 31.25 24.73"/><polyline id="af47bdcc-ae42-445b-8803-c531b4bd0b7b" data-name="polyline2473" class="bb685ef1-4c87-422d-9a58-451f1a14a3f8" points="25 20.59 25 15.91 25.72 15.91 25.72 19.69 27.68 19.69 27.68 16.16 28.4 16.16 28.4 19.69 30.54 19.69 30.54 15.81 31.25 15.81 31.25 20.59"/><path id="ae6021c7-56f8-4efc-957b-8d28aee432c1" data-name="path2475" class="bb685ef1-4c87-422d-9a58-451f1a14a3f8" d="M31.31,14v.9H25.06V11.85c0-1.93.66-2.37,1.65-2.37a1.5,1.5,0,0,1,1.46,1.43h0c.1-.84.44-1.07,1.5-1.23a6.77,6.77,0,0,0,1.62-.36v1c-.44.17-1.32.26-2,.42-.46.11-.77.4-.77,1.58V14m-.72,0V12c0-1-.22-1.53-1-1.53s-1,.41-1,1.51V14Z" transform="translate(-0.06 -0.03)"/></g></g></g></g></g></svg>