<svg enable-background="new 0 0 1258.437 856.457" height="856.457" viewBox="0 0 1258.437 856.457" width="1258.437" xmlns="http://www.w3.org/2000/svg"><path d="m1200.378 797.221c0 .782-.635 1.417-1.417 1.417h-191.166c-.782 0-1.417-.635-1.417-1.417v-191.166c0-.782.635-1.417 1.417-1.417h191.166c.782 0 1.417.635 1.417 1.417z" fill="#61615b" stroke="#000" stroke-miterlimit="10" stroke-width="2"/><path d="m1200.378 256.221c0 .782-.635 1.417-1.417 1.417h-191.166c-.782 0-1.417-.635-1.417-1.417v-191.166c0-.782.635-1.417 1.417-1.417h191.166c.782 0 1.417.635 1.417 1.417z" fill="#61615b" stroke="#000" stroke-miterlimit="10" stroke-width="2"/><path d="m237.378 797.221c0 .782-.635 1.417-1.417 1.417h-191.166c-.782 0-1.417-.635-1.417-1.417v-191.166c0-.782.635-1.417 1.417-1.417h191.166c.782 0 1.417.635 1.417 1.417z" fill="#61615b" stroke="#000" stroke-miterlimit="10" stroke-width="2"/><path d="m237.378 256.221c0 .782-.635 1.417-1.417 1.417h-191.166c-.782 0-1.417-.635-1.417-1.417v-191.166c0-.782.635-1.417 1.417-1.417h191.166c.782 0 1.417.635 1.417 1.417z" fill="#61615b" stroke="#000" stroke-miterlimit="10" stroke-width="2"/><path d="m1188.378 783.694c0 .781-.635 1.416-1.417 1.416h-1129.998c-.783 0-1.417-.635-1.417-1.416v-705.499c0-.783.635-1.417 1.417-1.417h1129.999c.782 0 1.417.635 1.417 1.417v705.499z" fill="#61615b" stroke="#000" stroke-miterlimit="10" stroke-width="4"/><path d="m1188.378 783.694c0 .781-.635 1.416-1.417 1.416h-1129.998c-.783 0-1.417-.635-1.417-1.416v-705.499c0-.783.635-1.417 1.417-1.417h1129.999c.782 0 1.417.635 1.417 1.417v705.499z" fill="#61615b"/><path d="m134.378 149.221h974v568.667h-974z"/><path d="m104.878 433.555c0 157.032 13.208 284.333 29.5 284.333h415.499v-568.667h-415.499c-16.292 0-29.5 127.3-29.5 284.334z" fill="#6b6d65" stroke="#000" stroke-miterlimit="10" stroke-width="6"/><path d="m1108.378 149.221h-553.167v568.667h553.167c16.293 0 29.5-127.301 29.5-284.333 0-157.034-13.207-284.334-29.5-284.334z" fill="#6b6d65" stroke="#000" stroke-miterlimit="10" stroke-width="6"/><path d="m104.878 433.555c0 157.032 13.208 284.333 29.5 284.333h415.499v-568.667h-415.499c-16.292 0-29.5 127.3-29.5 284.334z" fill="#6b6d65"/><path d="m1108.378 149.221h-553.167v568.667h553.167c16.293 0 29.5-127.301 29.5-284.333 0-157.034-13.207-284.334-29.5-284.334z" fill="#6b6d65"/><circle cx="196.545" cy="402.555" r="3.833"/><circle cx="196.545" cy="435.055" r="3.833"/><circle cx="196.545" cy="467.555" r="3.833"/><path d="m413.378 646.138h128v5h-128z" fill="#494944"/><path d="m413.378 599.138h128v5h-128z" fill="#494944"/><path d="m412.378 552.138h128v5h-128z" fill="#494944"/><path d="m411.378 505.138h128v5h-128z" fill="#494944"/><path d="m411.378 457.138h128v5h-128z" fill="#494944"/><path d="m411.378 409.138h128v5h-128z" fill="#494944"/><path d="m412.378 360.138h128v5h-128z" fill="#494944"/><path d="m412.378 312.138h128v5h-128z" fill="#494944"/><path d="m412.378 265.138h128v5h-128z" fill="#494944"/><path d="m413.378 218.138h128v5h-128z" fill="#494944"/><path d="m411.378 644.138h128v5h-128z"/><path d="m411.378 597.138h128v5h-128z"/><path d="m410.378 550.138h128v5h-128z"/><path d="m409.378 503.138h128v5h-128z"/><path d="m409.378 455.138h128v5h-128z"/><path d="m409.378 407.138h128v5h-128z"/><path d="m410.378 358.138h128v5h-128z"/><path d="m410.378 310.138h128v5h-128z"/><path d="m410.378 263.138h128v5h-128z"/><path d="m411.378 216.138h128v5h-128z"/><path d="m1139.211 433.138h-213.999v-21.917h-153.667v21.917h-216.167v4h216.167v23.25h153.667v-23.25h213.999z" fill="#83847b"/><circle cx="776.503" cy="702.513" fill="#83847b" r="2.125"/><circle cx="807.503" cy="702.513" fill="#83847b" r="2.125"/><circle cx="838.503" cy="702.513" fill="#83847b" r="2.125"/><circle cx="869.503" cy="702.513" fill="#83847b" r="2.125"/><circle cx="900.503" cy="702.513" fill="#83847b" r="2.125"/><path d="m831.045 732.055h8.334v53.056h-8.334z" fill="#6b6d65"/><path d="m831.045 732.055h8.334v13.345h-8.334z" fill="#494944"/><path d="m816.408 447.397c-.273.052-.426.104-.577.104-1.967.006-3.933.004-6.009.004 0-7.618 0-15.171 0-22.797h6.532v8.909h6.802c0-2.943 0-5.864 0-8.881h6.62v22.675c-2.162 0-4.301 0-6.563 0 0-2.936 0-5.849 0-8.838-2.308 0-4.49 0-6.805 0z" style="fill-rule:evenodd;clip-rule:evenodd;fill:#f7f8f5;stroke:#000;stroke-width:2;stroke-miterlimit:10"/><path d="m879.555 442.001v5.419c-2.241 0-4.382 0-6.594 0 0-7.568 0-15.098 0-22.765 4.318-.397 8.625-.989 12.914.07 3.743.924 5.663 3.295 6.021 7.177.374 4.074-1.378 7.583-4.741 9.039-1.341.58-2.845.807-4.298 1.029-1.016.156-2.071.031-3.302.031zm.084-4.07c2.063-.055 4.029-.053 5.063-2.135.916-1.843 1.039-3.852-.146-5.607-1.186-1.756-3.042-1.709-4.917-1.554z" style="fill-rule:evenodd;clip-rule:evenodd;fill:#f7f8f5;stroke:#000;stroke-width:2;stroke-miterlimit:10"/><path d="m788.308 424.627c4.098-.315 8.131-.9 12.17-.041 4.565.971 6.775 3.72 6.743 8.337-.03 4.584-2.631 7.96-6.936 8.772-1.719.324-3.495.314-5.404.471v5.251c-2.259 0-4.364 0-6.573 0 0-7.522 0-15.078 0-22.79zm6.61 13.085c1.802.498 3.872-.127 4.819-1.435 1.029-1.422 1.175-4.345.291-5.861-.873-1.495-2.803-2.146-5.11-1.682z" style="fill-rule:evenodd;clip-rule:evenodd;fill:#f7f8f5;stroke:#000;stroke-width:2;stroke-miterlimit:10"/><path d="m909.368 429.636c-1.689-.307-3.218-.646-4.763-.839-.822-.103-1.72-.111-2.496.135-.598.189-1.287.736-1.528 1.31-.354.84.283 1.515.994 1.906.741.406 1.535.711 2.309 1.051 1.253.553 2.553 1.012 3.756 1.664 2.093 1.137 3.204 2.952 3.188 5.484-.017 2.688-.905 4.979-3.302 6.082-1.758.81-3.748 1.393-5.652 1.448-2.369.071-4.763-.469-7.132-.846-.348-.057-.796-.633-.882-1.04-.29-1.378-.437-2.789-.643-4.224 1.878.477 3.663 1.076 5.494 1.348 1.319.193 2.721.081 4.042-.161.494-.09 1.16-.896 1.211-1.433.059-.609-.333-1.463-.799-1.882-.61-.553-1.475-.81-2.25-1.147-.85-.37-1.736-.65-2.58-1.034-3.505-1.591-4.891-3.973-4.44-7.568.353-2.824 2.724-5.156 6.12-5.435 2.653-.218 5.351.085 8.022.243.316.02.804.554.867.917.234 1.308.318 2.646.464 4.021z" style="fill-rule:evenodd;clip-rule:evenodd;fill:#f7f8f5;stroke:#000;stroke-width:2;stroke-miterlimit:10"/><path d="m852.696 442.816h6.352c-.338 1.618-.641 3.073-.961 4.607-3.946 0-7.863 0-11.879 0 0-7.533 0-15.085 0-22.711h6.488z" style="fill-rule:evenodd;clip-rule:evenodd;fill:#f7f8f5;stroke:#000;stroke-width:2;stroke-miterlimit:10"/><path d="m861.391 424.708h6.564v22.724c-2.21 0-4.353 0-6.564 0 0-7.595 0-15.121 0-22.724z" style="fill-rule:evenodd;clip-rule:evenodd;fill:#f7f8f5;stroke:#000;stroke-width:2;stroke-miterlimit:10"/><path d="m834.713 424.694h6.483v22.709c-2.109 0-4.249 0-6.483 0 0-7.54 0-15.094 0-22.709z" style="fill-rule:evenodd;clip-rule:evenodd;fill:#f7f8f5;stroke:#000;stroke-width:2;stroke-miterlimit:10"/><path clip-rule="evenodd" d="m816.408 447.397c-.273.052-.426.104-.577.104-1.967.006-3.933.004-6.009.004 0-7.618 0-15.171 0-22.797h6.532v8.909h6.802c0-2.943 0-5.864 0-8.881h6.62v22.675c-2.162 0-4.301 0-6.563 0 0-2.936 0-5.849 0-8.838-2.308 0-4.49 0-6.805 0z" fill="#f7f8f5" fill-rule="evenodd"/><path clip-rule="evenodd" d="m879.555 442.001v5.419c-2.241 0-4.382 0-6.594 0 0-7.568 0-15.098 0-22.765 4.318-.397 8.625-.989 12.914.07 3.743.924 5.663 3.295 6.021 7.177.374 4.074-1.378 7.583-4.741 9.039-1.341.58-2.845.807-4.298 1.029-1.016.156-2.071.031-3.302.031zm.084-4.07c2.063-.055 4.029-.053 5.063-2.135.916-1.843 1.039-3.852-.146-5.607-1.186-1.756-3.042-1.709-4.917-1.554z" fill="#f7f8f5" fill-rule="evenodd"/><path clip-rule="evenodd" d="m788.308 424.627c4.098-.315 8.131-.9 12.17-.041 4.565.971 6.775 3.72 6.743 8.337-.03 4.584-2.631 7.96-6.936 8.772-1.719.324-3.495.314-5.404.471v5.251c-2.259 0-4.364 0-6.573 0 0-7.522 0-15.078 0-22.79zm6.61 13.085c1.802.498 3.872-.127 4.819-1.435 1.029-1.422 1.175-4.345.291-5.861-.873-1.495-2.803-2.146-5.11-1.682z" fill="#f7f8f5" fill-rule="evenodd"/><path clip-rule="evenodd" d="m909.368 429.636c-1.689-.307-3.218-.646-4.763-.839-.822-.103-1.72-.111-2.496.135-.598.189-1.287.736-1.528 1.31-.354.84.283 1.515.994 1.906.741.406 1.535.711 2.309 1.051 1.253.553 2.553 1.012 3.756 1.664 2.093 1.137 3.204 2.952 3.188 5.484-.017 2.688-.905 4.979-3.302 6.082-1.758.81-3.748 1.393-5.652 1.448-2.369.071-4.763-.469-7.132-.846-.348-.057-.796-.633-.882-1.04-.29-1.378-.437-2.789-.643-4.224 1.878.477 3.663 1.076 5.494 1.348 1.319.193 2.721.081 4.042-.161.494-.09 1.16-.896 1.211-1.433.059-.609-.333-1.463-.799-1.882-.61-.553-1.475-.81-2.25-1.147-.85-.37-1.736-.65-2.58-1.034-3.505-1.591-4.891-3.973-4.44-7.568.353-2.824 2.724-5.156 6.12-5.435 2.653-.218 5.351.085 8.022.243.316.02.804.554.867.917.234 1.308.318 2.646.464 4.021z" fill="#f7f8f5" fill-rule="evenodd"/><path clip-rule="evenodd" d="m852.696 442.816h6.352c-.338 1.618-.641 3.073-.961 4.607-3.946 0-7.863 0-11.879 0 0-7.533 0-15.085 0-22.711h6.488z" fill="#f7f8f5" fill-rule="evenodd"/><path clip-rule="evenodd" d="m861.391 424.708h6.564v22.724c-2.21 0-4.353 0-6.564 0 0-7.595 0-15.121 0-22.724z" fill="#f7f8f5" fill-rule="evenodd"/><path clip-rule="evenodd" d="m834.713 424.694h6.483v22.709c-2.109 0-4.249 0-6.483 0 0-7.54 0-15.094 0-22.709z" fill="#f7f8f5" fill-rule="evenodd"/><path d="m174.872 587.059c-.665.286-2.162.593-4.11.593-5.536 0-8.387-2.962-8.387-6.885 0-4.699 3.896-7.314 8.743-7.314 1.877 0 3.303.326 3.944.612l-.736 2.473c-.736-.266-1.758-.511-3.041-.511-2.875 0-5.108 1.491-5.108 4.556 0 2.759 1.9 4.495 5.132 4.495 1.093 0 2.304-.204 3.017-.449z"/><path d="m177.25 573.86c1.331-.184 3.065-.286 4.895-.286 3.041 0 5.013.47 6.557 1.471 1.663 1.063 2.708 2.759 2.708 5.19 0 2.635-1.116 4.454-2.661 5.577-1.687 1.206-4.253 1.777-7.389 1.777-1.877 0-3.208-.102-4.11-.204zm3.636 11.238c.309.062.808.062 1.259.062 3.278.021 5.417-1.532 5.417-4.822.024-2.86-1.924-4.372-5.037-4.372-.808 0-1.331.062-1.639.122z"/><path d="m197.425 573.677v13.771h-3.635v-13.771z"/><path d="m211.183 587.447v-3.167h-6.842v-2.022l5.845-8.091h4.419v7.784h1.853v2.329h-1.853v3.167zm0-5.496v-2.942c0-.797.047-1.614.119-2.472h-.095c-.499.857-.903 1.634-1.426 2.472l-2.067 2.901v.041z"/><path d="m228.292 576.721h-5.987l-.333 2.043c.333-.041.618-.041.998-.041 1.473 0 2.97.286 4.063.961 1.164.674 1.876 1.777 1.876 3.33 0 2.472-2.471 4.658-6.628 4.658-1.877 0-3.445-.367-4.3-.756l.641-2.329c.689.286 2.091.653 3.493.653 1.497 0 3.088-.612 3.088-2.022 0-1.369-1.259-2.206-4.348-2.206-.855 0-1.449.04-2.091.122l1.021-6.967h8.505v2.554z"/><path d="m242.573 580.746c0 4.106-1.925 6.926-5.869 6.926-3.991 0-5.749-3.085-5.773-6.845 0-3.841 1.901-6.885 5.892-6.885 4.135 0 5.75 3.167 5.75 6.804zm-8.007.081c-.023 3.045.832 4.495 2.233 4.495s2.162-1.512 2.162-4.536c0-2.941-.737-4.494-2.186-4.494-1.329 0-2.232 1.45-2.209 4.535z"/><g fill="#fff"><path d="m167.594 599.958c-.295.152-.886.306-1.644.306-1.754 0-3.074-1.146-3.074-3.258 0-2.015 1.32-3.381 3.25-3.381.775 0 1.265.172 1.477.286l-.194.679c-.305-.153-.739-.268-1.256-.268-1.458 0-2.428.965-2.428 2.655 0 1.576.877 2.589 2.391 2.589.489 0 .988-.105 1.311-.268z"/><path d="m168.597 593.815c.489-.076 1.071-.133 1.708-.133 1.154 0 1.975.276 2.52.802.554.525.877 1.271.877 2.312 0 1.051-.314 1.91-.896 2.503-.582.602-1.542.927-2.751.927-.572 0-1.052-.029-1.458-.077zm.803 5.694c.203.038.499.048.812.048 1.717 0 2.65-.993 2.65-2.731.009-1.52-.822-2.484-2.521-2.484-.416 0-.729.039-.941.086z"/><path d="m176.727 597.273v.621h-2.28v-.621z"/><path d="m178.507 593.729v6.438h-.803v-6.438z"/><path d="m179.973 596.796c0-.478-.009-.869-.037-1.251h.72l.046.764h.019c.221-.439.738-.869 1.477-.869.618 0 1.579.383 1.579 1.968v2.761h-.813v-2.665c0-.745-.268-1.366-1.034-1.366-.535 0-.951.392-1.089.86-.037.104-.055.248-.055.392v2.779h-.813z"/><path d="m186.036 594.217v1.328h1.163v.64h-1.163v2.493c0 .573.157.898.609.898.212 0 .369-.029.471-.058l.037.63c-.157.067-.406.115-.72.115-.378 0-.683-.124-.877-.354-.231-.248-.314-.659-.314-1.204v-2.521h-.692v-.64h.692v-1.108z"/><path d="m188.508 598.009c.018 1.137.72 1.605 1.532 1.605.582 0 .933-.105 1.237-.239l.139.602c-.286.134-.775.287-1.486.287-1.375 0-2.197-.937-2.197-2.331s.794-2.493 2.096-2.493c1.458 0 1.846 1.328 1.846 2.178 0 .172-.018.306-.027.392h-3.14zm2.382-.602c.009-.535-.212-1.365-1.126-1.365-.822 0-1.182.783-1.247 1.365z"/><path d="m192.678 596.987c0-.545-.009-1.013-.037-1.442h.71l.028.907h.037c.203-.621.692-1.013 1.237-1.013.092 0 .157.01.231.029v.792c-.083-.019-.167-.028-.277-.028-.573 0-.979.449-1.089 1.079-.019.115-.037.249-.037.392v2.465h-.803z"/><path d="m198.124 600.168-.064-.583h-.028c-.25.363-.729.688-1.366.688-.905 0-1.366-.659-1.366-1.328 0-1.117.96-1.729 2.686-1.72v-.095c0-.383-.102-1.07-1.015-1.07-.416 0-.85.134-1.163.344l-.185-.554c.37-.248.905-.411 1.468-.411 1.366 0 1.698.965 1.698 1.892v1.729c0 .401.019.793.074 1.108zm-.121-2.359c-.886-.02-1.893.144-1.893 1.041 0 .545.351.803.767.803.582 0 .951-.382 1.08-.773.027-.087.046-.182.046-.268z"/><path d="m203.282 599.996c-.212.114-.683.268-1.283.268-1.348 0-2.225-.946-2.225-2.359 0-1.424.942-2.455 2.4-2.455.48 0 .905.124 1.126.239l-.185.649c-.194-.115-.499-.22-.942-.22-1.025 0-1.579.783-1.579 1.748 0 1.069.665 1.729 1.551 1.729.462 0 .767-.124.997-.229z"/><path d="m205.329 594.217v1.328h1.163v.64h-1.163v2.493c0 .573.157.898.609.898.212 0 .369-.029.471-.058l.037.63c-.157.067-.406.115-.72.115-.378 0-.683-.124-.877-.354-.231-.248-.314-.659-.314-1.204v-2.521h-.692v-.64h.692v-1.108z"/><path d="m208.309 594.246c.009.286-.194.516-.517.516-.286 0-.489-.229-.489-.516 0-.297.212-.525.508-.525.304 0 .498.228.498.525zm-.905 5.922v-4.623h.813v4.623z"/><path d="m209.877 595.545.877 2.598c.148.421.268.803.36 1.185h.028c.102-.382.231-.764.378-1.185l.868-2.598h.85l-1.754 4.623h-.775l-1.699-4.623z"/><path d="m214.362 598.009c.018 1.137.72 1.605 1.532 1.605.582 0 .933-.105 1.237-.239l.139.602c-.286.134-.775.287-1.486.287-1.375 0-2.197-.937-2.197-2.331s.794-2.493 2.096-2.493c1.458 0 1.846 1.328 1.846 2.178 0 .172-.018.306-.027.392h-3.14zm2.381-.602c.009-.535-.212-1.365-1.126-1.365-.822 0-1.182.783-1.247 1.365z"/><path d="m220.488 597.054c0-.592-.019-1.069-.037-1.509h.729l.037.793h.019c.332-.563.858-.898 1.587-.898 1.08 0 1.893.946 1.893 2.35 0 1.662-.979 2.484-2.031 2.484-.591 0-1.108-.268-1.375-.727h-.019v2.513h-.803zm.803 1.232c0 .124.019.239.037.344.147.583.637.984 1.218.984.859 0 1.357-.727 1.357-1.786 0-.927-.471-1.72-1.329-1.72-.554 0-1.071.411-1.228 1.041-.027.105-.055.229-.055.344z"/><path d="m225.738 593.386h.813v6.782h-.813z"/><path d="m230.389 600.168-.064-.583h-.028c-.25.363-.729.688-1.366.688-.905 0-1.366-.659-1.366-1.328 0-1.117.96-1.729 2.686-1.72v-.095c0-.383-.102-1.07-1.015-1.07-.416 0-.85.134-1.163.344l-.185-.554c.37-.248.905-.411 1.468-.411 1.366 0 1.698.965 1.698 1.892v1.729c0 .401.019.793.074 1.108zm-.12-2.359c-.886-.02-1.893.144-1.893 1.041 0 .545.351.803.767.803.582 0 .951-.382 1.08-.773.027-.087.046-.182.046-.268z"/><path d="m232.584 595.545.979 2.731c.102.306.212.669.286.946h.019c.083-.277.175-.631.286-.965l.886-2.713h.858l-1.218 3.295c-.582 1.586-.979 2.397-1.533 2.895-.397.363-.794.507-.997.545l-.203-.707c.203-.067.471-.201.71-.411.222-.182.499-.506.683-.936.037-.086.065-.153.065-.201s-.019-.114-.056-.22l-1.652-4.26h.887z"/><path d="m236.995 598.009c.018 1.137.72 1.605 1.532 1.605.582 0 .933-.105 1.237-.239l.139.602c-.286.134-.775.287-1.486.287-1.375 0-2.197-.937-2.197-2.331s.794-2.493 2.096-2.493c1.458 0 1.846 1.328 1.846 2.178 0 .172-.018.306-.027.392h-3.14zm2.381-.602c.009-.535-.212-1.365-1.126-1.365-.822 0-1.182.783-1.247 1.365z"/><path d="m241.165 596.987c0-.545-.009-1.013-.037-1.442h.71l.028.907h.037c.203-.621.692-1.013 1.237-1.013.092 0 .157.01.231.029v.792c-.083-.019-.167-.028-.277-.028-.573 0-.979.449-1.089 1.079-.019.115-.037.249-.037.392v2.465h-.803z"/></g><path d="m174.241 634.583c-.47.205-1.409.409-2.613.409-2.789 0-4.888-1.533-4.888-4.355 0-2.694 2.099-4.521 5.167-4.521 1.233 0 2.011.23 2.349.384l-.308.906c-.484-.204-1.174-.357-1.997-.357-2.319 0-3.86 1.29-3.86 3.551 0 2.107 1.395 3.461 3.802 3.461.778 0 1.571-.141 2.084-.357z"/><path d="m175.839 626.371c.778-.103 1.703-.179 2.715-.179 1.835 0 3.142.37 4.007 1.073.881.702 1.395 1.698 1.395 3.09 0 1.405-.499 2.555-1.424 3.347-.925.805-2.451 1.238-4.374 1.238-.91 0-1.674-.038-2.319-.102zm1.277 7.612c.323.051.793.063 1.292.063 2.73 0 4.213-1.328 4.213-3.652.015-2.031-1.307-3.321-4.007-3.321-.661 0-1.16.052-1.498.115z"/><path d="m191.676 630.994v.83h-3.625v-.83z"/><path d="m197.943 632.156-1.028 2.708h-1.321l3.361-8.608h1.541l3.376 8.608h-1.365l-1.057-2.708zm3.244-.868-.969-2.478c-.22-.562-.367-1.073-.514-1.571h-.029c-.147.511-.308 1.035-.499 1.559l-.969 2.49z"/><path d="m211.05 633.179c0 .639.015 1.2.059 1.686h-1.145l-.073-1.009h-.029c-.338.498-1.086 1.149-2.349 1.149-1.116 0-2.452-.536-2.452-2.708v-3.614h1.292v3.423c0 1.175.411 1.967 1.585 1.967.866 0 1.468-.523 1.703-1.021.073-.166.117-.37.117-.575v-3.793h1.292z"/><path d="m219.328 625.797v7.471c0 .55.015 1.175.059 1.597h-1.16l-.059-1.073h-.029c-.396.69-1.263 1.214-2.422 1.214-1.717 0-3.039-1.265-3.039-3.142-.015-2.057 1.454-3.321 3.186-3.321 1.086 0 1.82.447 2.143.945h.029v-3.69h1.292zm-1.292 5.402c0-.141-.015-.332-.059-.473-.191-.716-.896-1.303-1.864-1.303-1.336 0-2.128 1.021-2.128 2.388 0 1.252.705 2.286 2.099 2.286.866 0 1.659-.498 1.894-1.341.044-.153.059-.307.059-.485v-1.072z"/><path d="m222.908 626.946c.015.383-.309.689-.822.689-.455 0-.778-.307-.778-.689 0-.396.337-.703.807-.703.485 0 .793.307.793.703zm-1.438 7.918v-6.182h1.292v6.182z"/><path d="m231.333 631.723c0 2.286-1.82 3.282-3.538 3.282-1.923 0-3.406-1.227-3.406-3.181 0-2.068 1.556-3.282 3.523-3.282 2.041 0 3.421 1.29 3.421 3.181zm-5.637.063c0 1.354.896 2.376 2.158 2.376 1.233 0 2.158-1.009 2.158-2.401 0-1.047-.602-2.376-2.128-2.376-1.527 0-2.188 1.226-2.188 2.401z"/><path d="m242.311 634.864c-.279-.242-.543-.485-.925-.843-.851.689-1.806.983-2.892.983-1.923 0-3.039-1.124-3.039-2.414 0-1.175.807-1.979 1.938-2.516v-.039c-.514-.562-.822-1.188-.822-1.801 0-1.047.866-2.12 2.51-2.12 1.233 0 2.188.716 2.188 1.827 0 .906-.602 1.622-2.173 2.299v.038c.837.843 1.776 1.788 2.408 2.401.455-.601.763-1.431.954-2.517h1.174c-.264 1.354-.69 2.427-1.424 3.181.528.485 1.042.971 1.629 1.52h-1.526zm-1.556-1.481c-.587-.562-1.688-1.609-2.789-2.708-.529.294-1.277.844-1.277 1.75 0 .983.837 1.737 2.026 1.737.851 0 1.571-.332 2.04-.779zm-3.009-5.249c0 .613.323 1.085.749 1.545.998-.498 1.644-.958 1.644-1.686 0-.523-.338-1.111-1.145-1.111-.823 0-1.248.588-1.248 1.252z"/><path d="m167.709 640.271c.828-.093 1.913-.172 3.292-.172 1.695 0 2.938.265 3.726.74.729.424 1.163 1.072 1.163 1.865 0 .808-.355 1.442-1.025 1.905-.907.648-2.386.979-4.062.979-.512 0-.985-.014-1.38-.08v3.572h-1.715v-8.809zm1.716 4.299c.375.065.848.092 1.419.092 2.07 0 3.332-.675 3.332-1.904 0-1.178-1.242-1.747-3.135-1.747-.749 0-1.321.04-1.617.093v3.466z"/><path d="m178.037 639.688h1.735v3.995h.04c.276-.331.71-.622 1.242-.82.513-.198 1.124-.331 1.774-.331 1.281 0 3.332.529 3.332 2.738v3.811h-1.735v-3.678c0-1.032-.572-1.905-2.208-1.905-1.124 0-2.011.529-2.326 1.164-.099.159-.119.331-.119.556v3.863h-1.735z"/><path d="m197.609 645.826c0 2.368-2.445 3.4-4.751 3.4-2.583 0-4.574-1.27-4.574-3.294 0-2.144 2.09-3.4 4.731-3.4 2.741 0 4.594 1.337 4.594 3.294zm-7.57.067c0 1.402 1.203 2.461 2.898 2.461 1.656 0 2.898-1.045 2.898-2.487 0-1.085-.808-2.461-2.859-2.461-2.05-.001-2.937 1.27-2.937 2.487z"/><path d="m201.883 640.839v1.839h2.484v.887h-2.484v3.453c0 .794.335 1.243 1.301 1.243.453 0 .789-.04 1.005-.079l.079.873c-.335.093-.867.158-1.538.158-.808 0-1.458-.172-1.873-.489-.493-.344-.67-.912-.67-1.667v-3.492h-1.479v-.887h1.479v-1.534z"/><path d="m214.833 645.826c0 2.368-2.445 3.4-4.751 3.4-2.583 0-4.574-1.27-4.574-3.294 0-2.144 2.09-3.4 4.731-3.4 2.741 0 4.594 1.337 4.594 3.294zm-7.57.067c0 1.402 1.202 2.461 2.898 2.461 1.656 0 2.898-1.045 2.898-2.487 0-1.085-.809-2.461-2.858-2.461-2.051-.001-2.938 1.27-2.938 2.487z"/><path d="m221.335 645.072v.86h-4.87v-.86z"/><path d="m232.983 648.79c-.631.212-1.893.423-3.509.423-3.746 0-6.564-1.587-6.564-4.511 0-2.791 2.819-4.684 6.939-4.684 1.656 0 2.701.238 3.154.397l-.414.939c-.651-.212-1.577-.371-2.681-.371-3.115 0-5.185 1.337-5.185 3.678 0 2.184 1.873 3.586 5.106 3.586 1.045 0 2.109-.146 2.799-.371z"/><path d="m235.128 640.283c1.044-.105 2.287-.185 3.647-.185 2.464 0 4.219.384 5.382 1.111 1.183.728 1.873 1.759 1.873 3.201 0 1.455-.67 2.646-1.913 3.466-1.242.834-3.292 1.283-5.875 1.283-1.222 0-2.248-.039-3.115-.105v-8.771zm1.715 7.885c.434.053 1.064.066 1.735.066 3.667 0 5.658-1.376 5.658-3.783.02-2.104-1.755-3.44-5.382-3.44-.887 0-1.557.054-2.011.119z"/></svg>