<svg height="319.72501" viewBox="0 0 135.36095 84.593907" width="511.6004" xmlns="http://www.w3.org/2000/svg" xmlns:xlink="http://www.w3.org/1999/xlink"><g transform="translate(-10.469506 -109.87213)"><g><g stroke="#000" stroke-miterlimit="10" stroke-width=".217601"><path d="m124.02102 133.95467s5.59146 2.0041 6.82461 9.76526c1.23292 7.76117 1.16046 19.36647-.4352 25.74935-1.59589 6.38288-5.14996 12.18585-9.35683 12.76598-4.2071.58012-6.52824-.0727-8.34151-1.16068-1.81327-1.08801-12.838443-8.77671-17.698122-10.22724-4.859676-1.45052-13.708842-2.61121-16.864054-2.61121-3.155209 0-12.004379 1.16069-16.864055 2.61121-4.859679 1.45053-15.884853 9.13923-17.698119 10.22724-1.813266 1.088-4.134413 1.7408-8.341289 1.16068-4.206875-.58013-7.761165-6.3831-9.356831-12.76598s-1.668345-17.9884-.435201-25.74935c1.233143-7.76094 6.824611-9.76526 6.824611-9.76526" fill="#74666b"/><path d="m78.149914 162.21599c14.68805 0 26.873686 4.78722 29.630036 5.87522 2.75613 1.08801 9.71935 4.78722 13.12851 4.27934 3.40915-.50788 5.14995-3.11887 6.52802-7.83363 1.37806-4.71475 0-20.96213 0-20.96213-.65281-3.77167-1.81327-10.37237-8.55889-14.43411-13.27365-5.87543-33.057252-7.2535-40.727676-7.2535s-27.454029 1.37807-40.727675 7.25329c-6.745621 4.06195-7.906085 10.66243-8.558887 14.43432 0 0-1.378066 16.2476 0 20.96213 1.378065 4.71454 3.118871 7.32575 6.528021 7.83363s10.372374-3.19133 13.128505-4.27934c2.75613-1.088 14.941989-5.87522 29.630036-5.87522z" fill="#74666b"/><path d="m108.28979 131.904-19.050292 14.38601c-3.002018 2.26719-3.621093 6.52607-1.379805 9.49479 2.241722 2.96808 6.507785 3.53819 9.510022 1.27123l19.049855-14.38602c3.00245-2.26718 3.62153-6.5265 1.38024-9.49457-2.24172-2.96829-6.50778-3.53863-9.51002-1.27144z" fill="#55484f"/><circle cx="93.626762" cy="151.50809" fill="#746770" r="5.249618"/><circle cx="103.4188" cy="144.32726" fill="#746770" r="5.249618"/><circle cx="112.77563" cy="137.14644" fill="#746770" r="5.249618"/></g><g transform="matrix(.21760072 0 0 .21760072 19.506521 117.75277)"><circle cx="138.75" cy="131.75" fill="#55484f" r="75.25" stroke="#000" stroke-miterlimit="10"/><path d="m137.875 73.5s.358 0 1.03-.001c.672.02 1.657-.049 2.911.051.627.036 1.323.076 2.08.119.753.081 1.568.168 2.438.262 1.738.222 3.691.545 5.794 1.042 1.052.244 2.131.563 3.257.865 1.102.376 2.267.696 3.419 1.152 2.335.833 4.716 1.928 7.114 3.182 2.37 1.307 4.749 2.787 7.043 4.468 2.276 1.704 4.477 3.583 6.543 5.604 2.023 2.064 3.901 4.266 5.605 6.542 1.681 2.295 3.161 4.673 4.468 7.043 1.253 2.398 2.351 4.778 3.183 7.114.456 1.152.776 2.317 1.152 3.419.302 1.125.621 2.205.865 3.257.496 2.103.82 4.057 1.042 5.794.093.871.181 1.686.261 2.439.043.756.083 1.451.119 2.078.1 1.253.032 2.242.051 2.913 0 .672-.001 1.03-.001 1.03s-.019-.357-.053-1.029c-.05-.67-.049-1.655-.191-2.9-.06-.623-.127-1.313-.2-2.063-.109-.746-.228-1.552-.355-2.414-.291-1.717-.689-3.639-1.219-5.711-.267-1.036-.608-2.097-.933-3.202-.399-1.081-.742-2.224-1.22-3.351-.876-2.287-2.026-4.6-3.263-6.96-1.307-2.325-2.782-4.655-4.454-6.9-1.695-2.228-3.562-4.376-5.563-6.394-2.016-2.003-4.166-3.869-6.393-5.563-2.245-1.672-4.576-3.147-6.9-4.454-2.361-1.237-4.673-2.39-6.96-3.264-1.127-.479-2.27-.821-3.351-1.22-1.105-.325-2.167-.667-3.202-.933-2.073-.529-3.995-.929-5.711-1.219-.862-.127-1.668-.245-2.414-.355-.75-.073-1.438-.139-2.061-.199-1.244-.142-2.233-.141-2.903-.19-.67-.033-1.028-.052-1.028-.052z" fill="#fff"/><path d="m137.875 190.25s-.358 0-1.03.001c-.672-.02-1.657.049-2.911-.051-.627-.036-1.323-.076-2.079-.12-.754-.08-1.568-.168-2.439-.262-1.738-.222-3.691-.545-5.794-1.041-1.052-.244-2.131-.563-3.257-.865-1.102-.376-2.267-.696-3.419-1.152-2.335-.833-4.716-1.929-7.114-3.182-2.37-1.308-4.749-2.787-7.043-4.468-2.276-1.704-4.477-3.583-6.543-5.604-2.023-2.065-3.901-4.267-5.605-6.543-1.681-2.295-3.16-4.674-4.467-7.043-1.253-2.398-2.352-4.778-3.183-7.115-.456-1.152-.776-2.317-1.152-3.419-.302-1.125-.621-2.205-.865-3.257-.496-2.103-.82-4.057-1.042-5.794-.093-.871-.181-1.686-.261-2.439-.043-.756-.083-1.45-.119-2.077-.1-1.253-.032-2.242-.051-2.913 0-.672.001-1.03.001-1.03s.019.357.053 1.029c.05.67.049 1.655.191 2.9.06.623.127 1.313.2 2.063.109.745.228 1.552.355 2.413.291 1.717.689 3.639 1.219 5.711.266 1.036.608 2.098.933 3.202.399 1.081.742 2.224 1.22 3.351.876 2.287 2.026 4.6 3.263 6.96 1.307 2.325 2.783 4.655 4.455 6.901 1.694 2.228 3.561 4.376 5.563 6.393 2.016 2.004 4.166 3.869 6.393 5.563 2.245 1.673 4.576 3.147 6.901 4.454 2.36 1.237 4.672 2.39 6.959 3.265 1.127.479 2.27.821 3.351 1.22 1.105.324 2.167.666 3.202.933 2.072.529 3.995.929 5.711 1.219.862.127 1.668.245 2.414.354.75.073 1.438.14 2.061.2 1.244.142 2.233.14 2.903.19.668.034 1.026.053 1.026.053z" fill="#fff"/><circle cx="138.5" cy="131" fill="#55484f" r="44" stroke="#000" stroke-miterlimit="10"/><circle cx="138.5" cy="131" fill="#55484f" r="44"/><g clip-path="url(#a)"><g fill="#55484f" stroke="#000" stroke-miterlimit="10"><path d="m149.687 169.396c12.633-3.688 22.695-13.446 26.802-25.896h-26.802z"/><path d="m149.687 92.604v26.896h27.12c-3.888-12.926-14.15-23.111-27.12-26.896z"/><path d="m100.511 143.5c3.929 11.91 13.309 21.357 25.176 25.383v-25.383z"/><path d="m125.687 93.117c-12.198 4.137-21.771 14.002-25.494 26.383h25.494z"/><path d="m149.687 92.604c-3.553-1.037-7.304-1.604-11.187-1.604-4.481 0-8.787.752-12.813 2.117v26.383h-25.494c-1.096 3.645-1.693 7.503-1.693 11.5 0 4.365.713 8.564 2.011 12.5h25.176v25.383c4.026 1.365 8.332 2.117 12.813 2.117 3.883 0 7.634-.566 11.187-1.604v-25.896h26.802c1.298-3.936 2.011-8.135 2.011-12.5 0-3.997-.597-7.855-1.693-11.5h-27.12z"/></g><path d="m180.972 119.5h-4.165c1.096 3.645 1.693 7.503 1.693 11.5 0 4.365-.713 8.564-2.011 12.5h4.199c1.172-3.964 1.812-8.156 1.812-12.5 0-3.98-.538-7.833-1.528-11.5z" fill="#746770"/><path d="m180.972 119.5h-4.165c1.096 3.645 1.693 7.503 1.693 11.5 0 4.365-.713 8.564-2.011 12.5h4.199c1.172-3.964 1.812-8.156 1.812-12.5 0-3.98-.538-7.833-1.528-11.5z" fill="none" stroke="#000" stroke-miterlimit="10"/><path d="m138.5 171c-4.481 0-8.787-.752-12.813-2.117v4.216c4.055 1.232 8.355 1.901 12.813 1.901 3.866 0 7.614-.503 11.187-1.439v-4.164c-3.553 1.037-7.304 1.603-11.187 1.603z" fill="#746770"/><path d="m138.5 171c-4.481 0-8.787-.752-12.813-2.117v4.216c4.055 1.232 8.355 1.901 12.813 1.901 3.866 0 7.614-.503 11.187-1.439v-4.164c-3.553 1.037-7.304 1.603-11.187 1.603z" fill="none" stroke="#000" stroke-miterlimit="10"/><path d="m98.5 131c0-3.997.597-7.855 1.693-11.5h-4.165c-.991 3.667-1.528 7.52-1.528 11.5 0 4.344.64 8.536 1.812 12.5h4.199c-1.298-3.936-2.011-8.135-2.011-12.5z" fill="#746770"/><path d="m98.5 131c0-3.997.597-7.855 1.693-11.5h-4.165c-.991 3.667-1.528 7.52-1.528 11.5 0 4.344.64 8.536 1.812 12.5h4.199c-1.298-3.936-2.011-8.135-2.011-12.5z" fill="none" stroke="#000" stroke-miterlimit="10"/><path d="m138.5 91c3.883 0 7.634.567 11.187 1.604v-4.164c-3.573-.937-7.321-1.44-11.187-1.44-4.458 0-8.758.668-12.813 1.901v4.216c4.026-1.365 8.332-2.117 12.813-2.117z" fill="#746770"/><path d="m138.5 91c3.883 0 7.634.567 11.187 1.604v-4.164c-3.573-.937-7.321-1.44-11.187-1.44-4.458 0-8.758.668-12.813 1.901v4.216c4.026-1.365 8.332-2.117 12.813-2.117z" fill="none" stroke="#000" stroke-miterlimit="10"/></g><circle cx="138.5" cy="131" fill="none" r="44" stroke="#000" stroke-miterlimit="10"/><g fill="#746770"><path d="m117.365 112.229-2.131 2.13-1.296-3.422-1.292-3.427 3.426 1.291 3.423 1.297z"/><path d="m157.146 112.229-2.131-2.131 3.423-1.296 3.426-1.292-1.291 3.426-1.297 3.423z"/><path d="m157.146 152.51 2.131-2.13 1.296 3.422 1.292 3.427-3.426-1.291-3.424-1.297z"/><path d="m117.365 152.511 2.13 2.131-3.422 1.296-3.427 1.291 1.292-3.425 1.296-3.424z"/><circle cx="137.125" cy="131.375" r="9" stroke="#000" stroke-miterlimit="10"/></g></g><g fill="#746770" transform="matrix(.21760072 0 0 .21760072 19.506521 117.75277)"><path d="m138.739 69.188h-4.354l2.178-3.772 2.176-3.771 2.178 3.771 2.178 3.772z"/><path d="m182.373 87.627-3.079-3.08 4.206-1.127 4.206-1.127-1.127 4.207-1.127 4.207z"/><path d="m199.768 130.875v-4.355l3.771 2.177 3.772 2.178-3.772 2.177-3.771 2.178z"/><path d="m182.373 179.311 3.08-3.079 1.127 4.206 1.127 4.207-4.206-1.127-4.208-1.127z"/><path d="m138.739 195.271h4.356l-2.177 3.771-2.179 3.771-2.176-3.771-2.179-3.771z"/><path d="m94.334 179.313 3.08 3.08-4.206 1.127-4.207 1.125 1.128-4.206 1.126-4.207z"/><path d="m75.944 130.875v4.355l-3.771-2.177-3.771-2.179 3.771-2.176 3.772-2.178z"/><path d="m94.333 87.627-3.08 3.08-1.126-4.207-1.126-4.207 4.205 1.128 4.207 1.127z"/></g><g fill="#55484f" transform="matrix(.21760072 0 0 .21760072 19.506521 117.75277)"><path d="m251.957 57.302c-1.772.265-5.316.531-9.856.531-10.521 0-18.439-1.991-18.439-5.656 0-3.5 7.918-5.872 19.492-5.872 4.651 0 7.586.299 8.86.498l-1.163 1.178c-1.827-.265-4.43-.464-7.531-.464-8.749 0-14.563 1.675-14.563 4.611 0 2.737 5.261 4.495 14.342 4.495 2.935 0 5.925-.183 7.863-.464z"/><path d="m257.992 46.637c2.935-.133 6.423-.232 10.244-.232 6.922 0 11.85.481 15.117 1.394 3.322.912 5.261 2.206 5.261 4.014 0 1.825-1.883 3.317-5.371 4.346-3.489 1.045-9.248 1.609-16.502 1.609-3.433 0-6.313-.05-8.749-.133zm4.818 9.885c1.218.066 2.99.083 4.873.083 10.3 0 15.893-1.725 15.893-4.744.055-2.637-4.929-4.313-15.117-4.313-2.492 0-4.375.066-5.648.149v8.825z"/><path d="m306.775 52.641v1.078h-13.678v-1.078z"/><path d="m317.462 46.487v11.179h-4.818v-11.179z"/></g><g fill="#8b8187" fill-rule="evenodd" stroke-linecap="round" stroke-linejoin="round" transform="matrix(0 -.21760072 .21760072 0 24.492423 182.55978)"><path d="m172.8984 295.33563a1.4370274 1.4370274 0 0 1 -1.42832-1.44569 1.4370274 1.4370274 0 0 1 1.44569-1.42829 1.4370274 1.4370274 0 0 1 1.42834 1.4457 1.4370274 1.4370274 0 0 1 -1.44573 1.42831z" stroke-width="21.0214"/><g stroke-width="5.56191" transform="matrix(2.212948 3.0639339 -3.0639339 2.212948 439.4199 -250.9867)"><path d="m90.031484 141.79988a.38021349.38021349 0 0 1 -.531354.0824.38021349.38021349 0 0 1 -.08239-.53135.38021349.38021349 0 0 1 .531358-.0824.38021349.38021349 0 0 1 .08239.53136z"/><path d="m91.277575 141.79988a.38021349.38021349 0 0 1 -.531354.0824.38021349.38021349 0 0 1 -.08239-.53135.38021349.38021349 0 0 1 .531359-.0824.38021349.38021349 0 0 1 .08239.53136z"/></g><g stroke-width="21.0214"><path d="m238.71431 386.46094a1.4370274 1.4370274 0 0 1 -1.42834-1.4457 1.4370274 1.4370274 0 0 1 1.44567-1.42832 1.4370274 1.4370274 0 0 1 1.42834 1.4457 1.4370274 1.4370274 0 0 1 -1.4457 1.42834z"/><path d="m241.58099 390.42994a1.4370274 1.4370274 0 0 1 -1.42834-1.44571 1.4370274 1.4370274 0 0 1 1.44567-1.42831 1.4370274 1.4370274 0 0 1 1.42832 1.44567 1.4370274 1.4370274 0 0 1 -1.44567 1.42832z"/><path d="m233.02696 378.58654a1.4370274 1.4370274 0 0 1 -1.42832-1.44569 1.4370274 1.4370274 0 0 1 1.44569-1.42829 1.4370274 1.4370274 0 0 1 1.42833 1.44569 1.4370274 1.4370274 0 0 1 -1.44568 1.42831z"/></g></g><g fill="#aaa3a8" stroke-width=".439425" transform="matrix(.20494818 .07311849 -.07311849 .20494818 19.506522 117.75277)"><path d="m431.14295 60.314607 1.04707-.09155q.0744.62939.34331 1.035633.27464.400521.84681.652277.57217.246034 1.28739.246034.63511 0 1.12146-.188817.48635-.188817.72094-.514956.24031-.33186.24031-.720937 0-.3948-.22887-.686608-.22887-.29753-.75527-.49779-.33758-.1316-1.49337-.406243-1.15579-.280364-1.61925-.526399-.60078-.314695-.89831-.778155-.29181-.469182-.29181-1.047076 0-.635112.36047-1.184398.36047-.555008 1.0528-.841094.69233-.286086 1.53914-.286086.93265 0 1.64214.303251.71522.29753 1.09857.881146.38336.583617.41197 1.32172l-1.06424.0801q-.0858-.79532-.58362-1.201563-.49207-.406243-1.45904-.406243-1.00703 0-1.47049.371913-.45773.36619-.45773.886867 0 .452017.32613.743825.32042.291808 1.67075.600782 1.35605.303251 1.85956.53212.73238.337582 1.08141.85826.34902.514955.34902 1.190119 0 .669442-.38335 1.264502-.38336.589338-1.1043.921198-.71521.326139-1.61352.326139-1.13863 0-1.91106-.33186-.76671-.331861-1.20729-.995581-.43485-.669442-.45773-1.510536z"/><path d="m439.33646 63.009541v-8.388054h3.16412q.83537 0 1.27594.0801.61795.102991 1.03563.394799.41769.286087.66945.806764.25747.520677.25747 1.144346 0 1.069963-.68088 1.813788-.68089.738102-2.46034.738102h-2.15137v3.410151zm1.11002-4.40001h2.16853q1.07569 0 1.5277-.400521.45202-.40052.45202-1.12718 0-.526399-.26892-.898311-.2632-.377634-.69805-.497791-.28037-.07438-1.03564-.07438h-2.14564z"/><path d="m447.17523 63.009541v-8.388054h6.06503v.989859h-4.95502v2.569056h4.64033v.984137h-4.64033v2.855143h5.14956v.989859z"/><path d="m454.99111 63.009541v-8.388054h6.06503v.989859h-4.95501v2.569056h4.64032v.984137h-4.64032v2.855143h5.14955v.989859z"/><path d="m462.7841 63.009541v-8.388054h2.88948q.97841 0 1.49337.120156.72093.16593 1.23017.600782.66372.560729.98986 1.436153.33186.869703.33186 1.991162 0 .955529-.22315 1.693631-.22315.738103-.57217 1.22445-.34903.480625-.76671.76099-.41197.274643-1.00131.417686-.58361.143044-1.3446.143044zm1.11002-.989859h1.7909q.82965 0 1.29883-.154487.4749-.154487.75527-.434851.3948-.3948.61222-1.05852.22315-.669442.22315-1.619249 0-1.315998-.43485-2.01977-.42913-.709495-1.04708-.949807-.44629-.171652-1.43615-.171652h-1.76229z"/></g><g fill="#aaa3a8" transform="matrix(.02721968 .01134041 -.00883328 .02120197 94.849191 167.90436)"><path d="m309.33011-154.25864h24.32812v5.48438h-5.48437v54.421874h5.48437v5.484375h-24.32812v-5.484375h5.48437v-54.421874h-5.48437z"/><path d="m367.59573-154.25864h24.32813v5.48438h-5.48438v54.421874h5.48438v5.484375h-24.32813v-5.484375h5.48438v-54.421874h-5.48438z"/><path d="m391.39261-154.25864h24.32812v5.48438h-5.48437v54.421874h5.48437v5.484375h-24.32812v-5.484375h5.48437v-54.421874h-5.48437z"/><path d="m214.42706-98.402069v-72.406671h6.85636l20.56909 48.08187v-48.08187h8.42852v72.406671h-6.46332l-20.87479-49.479351v49.479351z" stroke-width=".931648" transform="scale(1.107288 .90310741)"/></g><g fill="#aaa3a8" fill-rule="evenodd" stroke-linecap="round" stroke-linejoin="round" stroke-width="8.33512" transform="matrix(.20021889 .08522012 -.08522012 .20021889 73.333362 80.596476)"><path d="m281.80951 324.10513h1.65744v14.36451h-1.65744z"/><path d="m290.66727 324.10513h1.65744v14.36451h-1.65744z"/><path d="m299.52502 324.10513h1.65744v14.36451h-1.65744z"/></g><g fill="#8b8187" fill-rule="evenodd" transform="matrix(.19893972 -.1443127 .1443127 .19893972 -4.577862 89.399493)"><path d="m268.31305 404.05038h1.0254v2.64895h-1.0254z"/><path d="m404.86215-270.15024h1.0254v2.64895h-1.0254z" transform="rotate(90)"/></g></g><path d="m126.03881 151.75285h18.77555c.55384 0 .99971.44587.99971.99972v9.1627c0 .55384-.44587.99971-.99971.99971h-18.77555c-.55384 0-.99971-.44587-.99971-.99971v-9.1627c0-.55385.44587-.99972.99971-.99972z" fill="#f1f1f1" fill-opacity=".8" stroke="#35495e" stroke-width=".167893"/><path d="m205.77431 633.50968h-20.42648l-4.58759 12.72469h-6.63023l18.61823-48.75566h5.62565l18.65172 48.75566h-6.59675zm-18.48429-5.29079h16.57558l-8.30453-22.80399z" fill="#35495e" transform="matrix(.08409344 0 0 .08409344 123.75971 104.96759)"/><g clip-path="url(#b)" fill="#35495e" transform="matrix(.262436 0 0 -.262436 125.68964 162.24978)"><path d="m0 0c-2.826 0-5.118 2.292-5.118 5.119 0 2.826 2.292 5.117 5.118 5.117 2.827 0 5.118-2.291 5.118-5.117 0-2.827-2.291-5.119-5.118-5.119m-10.77 8.397c-2.827 0-5.118 2.292-5.118 5.119 0 2.826 2.291 5.118 5.118 5.118s5.118-2.292 5.118-5.118c0-2.827-2.291-5.119-5.118-5.119m-1.844-18.314c-2.827 0-5.118 2.292-5.118 5.118 0 2.827 2.291 5.118 5.118 5.118 2.826 0 5.118-2.291 5.118-5.118 0-2.826-2.292-5.118-5.118-5.118m-10.639 8.611c-2.827 0-5.118 2.291-5.118 5.119 0 2.826 2.291 5.117 5.118 5.117s5.118-2.291 5.118-5.117c0-2.828-2.291-5.119-5.118-5.119m11.623 24.253c-10.216 0-18.498-8.281-18.498-18.498 0-10.216 8.282-18.498 18.498-18.498 10.216 0 18.498 8.282 18.498 18.498 0 10.217-8.282 18.498-18.498 18.498" transform="translate(30.2305 14.1137)"/><path d="m0 0c0-1.998-1.621-3.619-3.619-3.619-1.999 0-3.619 1.621-3.619 3.619 0 1.999 1.62 3.619 3.619 3.619 1.998 0 3.619-1.62 3.619-3.619" transform="translate(21.2354 9.3149)"/><path d="m0 0c0-2.105-1.707-3.813-3.812-3.813s-3.812 1.708-3.812 3.813 1.707 3.812 3.812 3.812 3.812-1.707 3.812-3.812" transform="translate(10.7891 17.9262)"/><path d="m0 0c0-1.999-1.621-3.619-3.619-3.619-1.999 0-3.619 1.62-3.619 3.619s1.62 3.619 3.619 3.619c1.998 0 3.619-1.62 3.619-3.619" transform="translate(23.0732 27.5258)"/></g><g><rect fill="#f1f1f1" fill-opacity=".8" height="11.12116150228" ry=".99604239546" stroke="#35495e" stroke-width=".20886287693" width="32.26991827628" x="33.36918952256" y="177.26345152256"/><g fill="#35495e"><g transform="matrix(.26791768858 0 0 .26791768858 33.93012320918 177.89099225927)"><path d="m22.085 37.058h-7.111c-2.289 0-3.119-1.866-3.119-3.121v-8.732h-8.734c-2.29 0-3.121-1.866-3.121-3.121v-7.11c0-2.289 1.867-3.12 3.121-3.12h8.734v-8.733c0-2.29 1.865-3.121 3.119-3.121h7.111c2.29 0 3.121 1.867 3.121 3.121v8.733h8.731c1.201 0 2.154.525 2.684 1.48.207.375.456 1.112.429 1.639h.008v7.11c0 2.29-1.866 3.121-3.121 3.121h-8.731v8.732c0 2.291-1.866 3.122-3.121 3.122zm-18.964-23.705c-.376.006-1.621.139-1.621 1.62v7.11c.006.376.139 1.621 1.621 1.621h10.233v10.232c.005.376.139 1.621 1.619 1.621h7.108c.384-.006 1.624-.142 1.624-1.621v-10.231h10.231c.376-.006 1.621-.14 1.621-1.621v-7.121c-.005-.287-.112-1.609-1.62-1.609h-10.23v-10.233c-.006-.376-.139-1.621-1.621-1.621h-7.111c-.376.006-1.619.139-1.619 1.621v10.232z"/><path d="m18.531 22.181c-2.012 0-3.649-1.638-3.649-3.651s1.637-3.65 3.649-3.65c2.013 0 3.65 1.638 3.65 3.65 0 2.014-1.638 3.651-3.65 3.651zm0-5.801c-1.185 0-2.149.965-2.149 2.15 0 1.187.964 2.151 2.149 2.151 1.186 0 2.15-.965 2.15-2.151s-.965-2.15-2.15-2.15z"/><g><path d="m18.53 3.183-3.005 4.684h6.012z"/><path d="m21.536 8.617h-6.012c-.274 0-.526-.15-.658-.39-.131-.241-.121-.534.027-.765l3.005-4.684c.276-.431.987-.43 1.262 0l3.007 4.684c.148.231.159.524.027.765-.131.24-.383.39-.658.39zm-4.639-1.5h3.267l-1.634-2.545z"/></g><g><path d="m3.125 18.53 4.684 3.004v-6.01z"/><path d="m7.809 22.284c-.141 0-.282-.04-.405-.119l-4.684-3.004c-.215-.137-.345-.375-.345-.631s.13-.493.345-.631l4.684-3.006c.23-.147.524-.159.765-.027.24.131.39.384.39.658v6.01c0 .274-.149.526-.39.658-.113.062-.237.092-.36.092zm-3.295-3.754 2.545 1.632v-3.265z"/></g><g><path d="m33.879 18.529-4.685-3.005v6.01z"/><path d="m29.195 22.284c-.124 0-.247-.03-.359-.092-.241-.132-.391-.384-.391-.658v-6.01c0-.274.149-.526.391-.658.239-.132.532-.123.765.027l4.685 3.005c.215.138.345.376.345.631s-.13.493-.345.631l-4.686 3.005c-.123.079-.265.119-.405.119zm.75-5.388v3.266l2.546-1.633z"/></g><g><path d="m18.53 33.876 3.007-4.684h-6.012z"/><path d="m18.53 34.626c-.255 0-.493-.13-.631-.345l-3.005-4.684c-.148-.231-.158-.524-.027-.765.132-.241.384-.391.658-.391h6.012c.274 0 .526.149.658.391.132.24.121.534-.027.765l-3.007 4.684c-.138.215-.376.345-.631.345zm-1.633-4.684 1.633 2.545 1.634-2.545z"/></g></g><g stroke-width="1.71448" transform="matrix(.08409344 0 0 .08409344 33.264758 177.15902)"><path d="m164.63596 90.884216v-48.755661h13.76276q6.36235 0 11.25131 2.812827 4.88896 2.812826 7.53435 8.003161 2.67889 5.190335 2.71237 11.921027v3.114201q0 6.898122-2.67888 12.088457-2.6454 5.190335-7.60133 7.969676-4.92245 2.77934-11.48571 2.846312zm6.42932-43.464868v38.207561h6.76418q7.4339 0 11.55268-4.621072 4.15227-4.621072 4.15227-13.16001v-2.846313q0-8.304535-3.91787-12.892122-3.88438-4.621072-11.05039-4.688044z"/><path d="m221.56221 72.701301h-16.34118v-5.05639h16.34118z"/><path d="m234.95663 71.797179v19.087037h-6.42932v-48.755661h17.982q8.00316 0 12.52378 4.085296 4.5541 4.085296 4.5541 10.815988 0 7.099039-4.45365 10.949932-4.42015 3.817408-12.6912 3.817408zm0-5.257307h11.55268q5.15685 0 7.9027-2.410994 2.74586-2.444481 2.74586-7.032067 0-4.353184-2.74586-6.965094-2.74585-2.611911-7.53435-2.712369h-11.92103z"/><path d="m294.15993 78.159525h-20.42648l-4.58759 12.724691h-6.63023l18.61823-48.755661h5.62565l18.65172 48.755661h-6.59675zm-18.48429-5.290793h16.57558l-8.30453-22.803987z"/><path d="m311.97449 90.884216v-48.755661h13.76276q6.36235 0 11.25131 2.812827 4.88896 2.812826 7.53435 8.003161 2.67889 5.190335 2.71237 11.921027v3.114201q0 6.898122-2.67888 12.088457-2.6454 5.190335-7.60133 7.969676-4.92244 2.77934-11.48571 2.846312zm6.42932-43.464868v38.207561h6.76418q7.4339 0 11.55268-4.621072 4.15227-4.621072 4.15227-13.16001v-2.846313q0-8.304535-3.91787-12.892122-3.88438-4.621072-11.05039-4.688044z"/></g></g></g><path d="m125.0621 144.31592-21.55396.0227" fill="#1a1a1a" stroke="#1a1a1a" stroke-width=".347697"/><ellipse cx="103.41884" cy="144.32729" fill="#1a1a1a" rx=".905306" ry=".885895"/><ellipse cx="93.626793" cy="151.50812" fill="#1a1a1a" rx=".905306" ry=".885895"/><ellipse cx="49.344975" cy="146.34009" fill="#1a1a1a" rx=".905306" ry=".885895"/><rect fill="#f1f1f1" fill-opacity=".8" height="11.162131" ry=".999712" stroke="#35495e" stroke-width=".167893" width="20.774971" x="125.0391" y="138.74622"/><path d="m500.08822 636.40869v-48.75566h15.93935q7.93619 0 11.92102 3.28163 4.01833 3.28163 4.01833 9.71095 0 3.41558-1.94219 6.06097-1.94219 2.61191-5.29079 4.05181 3.95135 1.10504 6.2284 4.21924 2.31053 3.08072 2.31053 7.36693 0 6.56326-4.25272 10.3137-4.25273 3.75043-12.02149 3.75043zm6.42931-22.80399v17.54668h10.61508q4.48712 0 7.06555-2.31053 2.61191-2.34402 2.61191-6.42932 0-8.80683-9.57701-8.80683zm0-5.15684h9.71095q4.21924 0 6.7307-2.10962 2.54493-2.10962 2.54493-5.72612 0-4.01832-2.34402-5.82657-2.34402-1.84173-7.13252-1.84173h-9.51004z" fill="#35495e" transform="matrix(.08409344 0 0 .08409344 96.745807 92.787235)"/><g clip-path="url(#c)" fill="#35495e" transform="matrix(.26803225 0 0 -.26803225 125.52046 149.32213)"><path d="m0 0c-2.826 0-5.118 2.292-5.118 5.119 0 2.826 2.292 5.117 5.118 5.117 2.827 0 5.118-2.291 5.118-5.117 0-2.827-2.291-5.119-5.118-5.119m-10.77 8.397c-2.827 0-5.118 2.292-5.118 5.119 0 2.826 2.291 5.118 5.118 5.118s5.118-2.292 5.118-5.118c0-2.827-2.291-5.119-5.118-5.119m-1.844-18.314c-2.827 0-5.118 2.292-5.118 5.118 0 2.827 2.291 5.118 5.118 5.118 2.826 0 5.118-2.291 5.118-5.118 0-2.826-2.292-5.118-5.118-5.118m-10.639 8.611c-2.827 0-5.118 2.291-5.118 5.119 0 2.826 2.291 5.117 5.118 5.117s5.118-2.291 5.118-5.117c0-2.828-2.291-5.119-5.118-5.119m11.623 24.253c-10.216 0-18.498-8.281-18.498-18.498 0-10.216 8.282-18.498 18.498-18.498 10.216 0 18.498 8.282 18.498 18.498 0 10.217-8.282 18.498-18.498 18.498" transform="translate(30.2305 14.1137)"/><path d="m0 0c0-2.019-1.636-3.655-3.654-3.655-2.019 0-3.655 1.636-3.655 3.655 0 2.018 1.636 3.654 3.655 3.654 2.018 0 3.654-1.636 3.654-3.654" transform="translate(33.8848 19.2324)"/><path d="m0 0c0-2.105-1.707-3.813-3.812-3.813s-3.812 1.708-3.812 3.813 1.707 3.812 3.812 3.812 3.812-1.707 3.812-3.812" transform="translate(10.7891 17.9262)"/><path d="m0 0c0-1.999-1.621-3.619-3.619-3.619-1.999 0-3.619 1.62-3.619 3.619s1.62 3.619 3.619 3.619c1.998 0 3.619-1.62 3.619-3.619" transform="translate(23.0732 27.5258)"/></g><g fill="#1a1a1a"><path d="m125.00672 157.3258-31.359436.0162" stroke="#1a1a1a" stroke-width=".354203"/><path d="m93.661008 157.51903-.06843-5.45991" stroke="#1a1a1a" stroke-width=".303644"/><path d="m49.353376 177.1962-.0168-30.16125" stroke="#1a1a1a" stroke-width=".353618"/><path d="m112.79122 137.42512-.0312-14.94661" stroke="#1a1a1a" stroke-width=".33922"/><ellipse cx="112.77563" cy="137.14644" rx=".905306" ry=".885895"/></g><g transform="matrix(.26458333 0 0 .26458333 10.461968 110.78536)"><rect fill="#f1f1f1" fill-opacity=".8" height="41.992928" ry="3.761004" stroke="#35495e" stroke-width=".829215" width="134.70465" x="319.34497" y="2.253532"/><g fill="#35495e"><g clip-path="url(#c)" transform="matrix(1.0130353 0 0 -1.0130353 397.91676 42.054666)"><path d="m0 0c-2.826 0-5.118 2.292-5.118 5.119 0 2.826 2.292 5.117 5.118 5.117 2.827 0 5.118-2.291 5.118-5.117 0-2.827-2.291-5.119-5.118-5.119m-10.77 8.397c-2.827 0-5.118 2.292-5.118 5.119 0 2.826 2.291 5.118 5.118 5.118s5.118-2.292 5.118-5.118c0-2.827-2.291-5.119-5.118-5.119m-1.844-18.314c-2.827 0-5.118 2.292-5.118 5.118 0 2.827 2.291 5.118 5.118 5.118 2.826 0 5.118-2.291 5.118-5.118 0-2.826-2.292-5.118-5.118-5.118m-10.639 8.611c-2.827 0-5.118 2.291-5.118 5.119 0 2.826 2.291 5.117 5.118 5.117s5.118-2.291 5.118-5.117c0-2.828-2.291-5.119-5.118-5.119m11.623 24.253c-10.216 0-18.498-8.281-18.498-18.498 0-10.216 8.282-18.498 18.498-18.498 10.216 0 18.498 8.282 18.498 18.498 0 10.217-8.282 18.498-18.498 18.498" transform="translate(30.2305 14.1137)"/><path d="m0 0c0-2.019-1.636-3.655-3.654-3.655-2.019 0-3.655 1.636-3.655 3.655 0 2.018 1.636 3.654 3.655 3.654 2.018 0 3.654-1.636 3.654-3.654" transform="translate(33.8848 19.2324)"/><path d="m0 0c0-2.105-1.707-3.813-3.812-3.813s-3.812 1.708-3.812 3.813 1.707 3.812 3.812 3.812 3.812-1.707 3.812-3.812" transform="translate(10.7891 17.9262)"/><path d="m0 0c0-1.999-1.621-3.619-3.619-3.619-1.999 0-3.619 1.62-3.619 3.619s1.62 3.619 3.619 3.619c1.998 0 3.619-1.62 3.619-3.619" transform="translate(23.0732 27.5258)"/></g><g clip-path="url(#b)" transform="matrix(.99188411 0 0 -.99188411 322.80618 41.662043)"><path d="m0 0c-2.826 0-5.118 2.292-5.118 5.119 0 2.826 2.292 5.117 5.118 5.117 2.827 0 5.118-2.291 5.118-5.117 0-2.827-2.291-5.119-5.118-5.119m-10.77 8.397c-2.827 0-5.118 2.292-5.118 5.119 0 2.826 2.291 5.118 5.118 5.118s5.118-2.292 5.118-5.118c0-2.827-2.291-5.119-5.118-5.119m-1.844-18.314c-2.827 0-5.118 2.292-5.118 5.118 0 2.827 2.291 5.118 5.118 5.118 2.826 0 5.118-2.291 5.118-5.118 0-2.826-2.292-5.118-5.118-5.118m-10.639 8.611c-2.827 0-5.118 2.291-5.118 5.119 0 2.826 2.291 5.117 5.118 5.117s5.118-2.291 5.118-5.117c0-2.828-2.291-5.119-5.118-5.119m11.623 24.253c-10.216 0-18.498-8.281-18.498-18.498 0-10.216 8.282-18.498 18.498-18.498 10.216 0 18.498 8.282 18.498 18.498 0 10.217-8.282 18.498-18.498 18.498" transform="translate(30.2305 14.1137)"/><path d="m0 0c0-1.998-1.621-3.619-3.619-3.619-1.999 0-3.619 1.621-3.619 3.619 0 1.999 1.62 3.619 3.619 3.619 1.998 0 3.619-1.62 3.619-3.619" transform="translate(21.2354 9.3149)"/><path d="m0 0c0-2.105-1.707-3.813-3.812-3.813s-3.812 1.708-3.812 3.813 1.707 3.812 3.812 3.812 3.812-1.707 3.812-3.812" transform="translate(10.7891 17.9262)"/><path d="m0 0c0-1.999-1.621-3.619-3.619-3.619-1.999 0-3.619 1.62-3.619 3.619s1.62 3.619 3.619 3.619c1.998 0 3.619-1.62 3.619-3.619" transform="translate(23.0732 27.5258)"/></g><path d="m205.77431 633.50968h-20.42648l-4.58759 12.72469h-6.63023l18.61823-48.75566h5.62565l18.65172 48.75566h-6.59675zm-18.48429-5.29079h16.57558l-8.30453-22.80399z" transform="matrix(.31783348 0 0 .31783348 306.21193 -174.39683)"/><path d="m500.08822 636.40869v-48.75566h15.93935q7.93619 0 11.92102 3.28163 4.01833 3.28163 4.01833 9.71095 0 3.41558-1.94219 6.06097-1.94219 2.61191-5.29079 4.05181 3.95135 1.10504 6.2284 4.21924 2.31053 3.08072 2.31053 7.36693 0 6.56326-4.25272 10.3137-4.25273 3.75043-12.02149 3.75043zm6.42931-22.80399v17.54668h10.61508q4.48712 0 7.06555-2.31053 2.61191-2.34402 2.61191-6.42932 0-8.80683-9.57701-8.80683zm0-5.15684h9.71095q4.21924 0 6.7307-2.10962 2.54493-2.10962 2.54493-5.72612 0-4.01832-2.34402-5.82657-2.34402-1.84173-7.13252-1.84173h-9.51004z" transform="matrix(.31783348 0 0 .31783348 280.38715 -171.2739)"/><path d="m228.174-39.495001h-6.048v-17.472h-16.896v-5.952h16.896v-17.088h6.048v17.088h16.896v5.952h-16.896z" transform="matrix(.32883193 0 0 .32883193 312.89382 42.898033)"/></g></g></g></svg>