<svg enable-background="new 0 0 538 312" height="493.17444" viewBox="0 0 279.32538 493.17444" width="279.32538" xmlns="http://www.w3.org/2000/svg" xmlns:xlink="http://www.w3.org/1999/xlink"><defs><clipPath id="a"><use height="100%" width="100%" xlink:href="#b"/></clipPath><circle id="b" cx="138.5" cy="131" r="44"/></defs><path d="m223.36838 457.39092s-9.21 25.696-44.877 31.363c-35.667 5.666-89 5.333-118.333-2-29.333-7.334-56.001-23.667-58.667-43-2.666-19.334.334-30.001 5.334-38.334s40.334-59 47-81.333 12-63 12-77.5-5.334-55.167-12-77.5-42-73-47-81.333-8-19-5.334-38.333 29.334-35.667 58.667-43c29.333-7.333 82.667-7.667 118.333-2s44.877 31.363 44.877 31.363" fill="#74666b" stroke="#000" stroke-miterlimit="10"/><path d="m93.49138 246.58692c0 67.5-22 123.5-27 136.167-5 12.666-22 44.666-19.666 60.333s14.333 23.667 36 30 96.333 0 96.333 0c17.333-3 47.667-8.333 66.333-39.333 27.001-61 33.334-151.917 33.334-187.167s-6.333-126.167-33.333-187.167c-18.667-31-49-36.333-66.334-39.333 0 0-74.667-6.333-96.333 0s-33.666 14.333-36 30 14.666 47.667 19.666 60.333 27 68.667 27 136.167z" fill="#74666b" stroke="#000" stroke-miterlimit="10"/><g stroke="#000" stroke-miterlimit="10" transform="matrix(0 1 -1 0 297.82538 -22.91308)"><path d="m408.01 65.033-87.547 66.112c-13.796 10.419-16.641 29.991-6.341 43.634 10.302 13.64 29.907 16.26 43.704 5.842l87.545-66.112c13.798-10.419 16.643-29.993 6.343-43.633-10.302-13.641-29.907-16.262-43.704-5.843z" fill="#55484f"/><g fill="#746770"><circle cx="340.625" cy="155.125" r="24.125"/><circle cx="385.625" cy="122.125" r="24.125"/><circle cx="428.625" cy="89.125" r="24.125"/></g></g><g transform="matrix(0 1 -1 0 297.82538 -22.91308)"><circle cx="138.75" cy="131.75" fill="#55484f" r="75.25" stroke="#000" stroke-miterlimit="10"/><path d="m137.875 73.5s.358 0 1.03-.001c.672.02 1.657-.049 2.911.051.627.036 1.323.076 2.08.119.753.081 1.568.168 2.438.262 1.738.222 3.691.545 5.794 1.042 1.052.244 2.131.563 3.257.865 1.102.376 2.267.696 3.419 1.152 2.335.833 4.716 1.928 7.114 3.182 2.37 1.307 4.749 2.787 7.043 4.468 2.276 1.704 4.477 3.583 6.543 5.604 2.023 2.064 3.901 4.266 5.605 6.542 1.681 2.295 3.161 4.673 4.468 7.043 1.253 2.398 2.351 4.778 3.183 7.114.456 1.152.776 2.317 1.152 3.419.302 1.125.621 2.205.865 3.257.496 2.103.82 4.057 1.042 5.794.093.871.181 1.686.261 2.439.043.756.083 1.451.119 2.078.1 1.253.032 2.242.051 2.913 0 .672-.001 1.03-.001 1.03s-.019-.357-.053-1.029c-.05-.67-.049-1.655-.191-2.9-.06-.623-.127-1.313-.2-2.063-.109-.746-.228-1.552-.355-2.414-.291-1.717-.689-3.639-1.219-5.711-.267-1.036-.608-2.097-.933-3.202-.399-1.081-.742-2.224-1.22-3.351-.876-2.287-2.026-4.6-3.263-6.96-1.307-2.325-2.782-4.655-4.454-6.9-1.695-2.228-3.562-4.376-5.563-6.394-2.016-2.003-4.166-3.869-6.393-5.563-2.245-1.672-4.576-3.147-6.9-4.454-2.361-1.237-4.673-2.39-6.96-3.264-1.127-.479-2.27-.821-3.351-1.22-1.105-.325-2.167-.667-3.202-.933-2.073-.529-3.995-.929-5.711-1.219-.862-.127-1.668-.245-2.414-.355-.75-.073-1.438-.139-2.061-.199-1.244-.142-2.233-.141-2.903-.19-.67-.033-1.028-.052-1.028-.052z" fill="#fff"/><path d="m137.875 190.25s-.358 0-1.03.001c-.672-.02-1.657.049-2.911-.051-.627-.036-1.323-.076-2.079-.12-.754-.08-1.568-.168-2.439-.262-1.738-.222-3.691-.545-5.794-1.041-1.052-.244-2.131-.563-3.257-.865-1.102-.376-2.267-.696-3.419-1.152-2.335-.833-4.716-1.929-7.114-3.182-2.37-1.308-4.749-2.787-7.043-4.468-2.276-1.704-4.477-3.583-6.543-5.604-2.023-2.065-3.901-4.267-5.605-6.543-1.681-2.295-3.16-4.674-4.467-7.043-1.253-2.398-2.352-4.778-3.183-7.115-.456-1.152-.776-2.317-1.152-3.419-.302-1.125-.621-2.205-.865-3.257-.496-2.103-.82-4.057-1.042-5.794-.093-.871-.181-1.686-.261-2.439-.043-.756-.083-1.45-.119-2.077-.1-1.253-.032-2.242-.051-2.913 0-.672.001-1.03.001-1.03s.019.357.053 1.029c.05.67.049 1.655.191 2.9.06.623.127 1.313.2 2.063.109.745.228 1.552.355 2.413.291 1.717.689 3.639 1.219 5.711.266 1.036.608 2.098.933 3.202.399 1.081.742 2.224 1.22 3.351.876 2.287 2.026 4.6 3.263 6.96 1.307 2.325 2.783 4.655 4.455 6.901 1.694 2.228 3.561 4.376 5.563 6.393 2.016 2.004 4.166 3.869 6.393 5.563 2.245 1.673 4.576 3.147 6.901 4.454 2.36 1.237 4.672 2.39 6.959 3.265 1.127.479 2.27.821 3.351 1.22 1.105.324 2.167.666 3.202.933 2.072.529 3.995.929 5.711 1.219.862.127 1.668.245 2.414.354.75.073 1.438.14 2.061.2 1.244.142 2.233.14 2.903.19.668.034 1.026.053 1.026.053z" fill="#fff"/><circle cx="138.5" cy="131" fill="#55484f" r="44" stroke="#000" stroke-miterlimit="10"/><use fill="#55484f" height="100%" width="100%" xlink:href="#b"/><g clip-path="url(#a)"><g fill="#55484f"><path d="m149.687 169.396c12.633-3.688 22.695-13.446 26.802-25.896h-26.802z" stroke="#000" stroke-miterlimit="10"/><path d="m149.687 92.604v26.896h27.12c-3.888-12.926-14.15-23.111-27.12-26.896z" stroke="#000" stroke-miterlimit="10"/><path d="m100.511 143.5c3.929 11.91 13.309 21.357 25.176 25.383v-25.383z" stroke="#000" stroke-miterlimit="10"/><path d="m125.687 93.117c-12.198 4.137-21.771 14.002-25.494 26.383h25.494z" stroke="#000" stroke-miterlimit="10"/><path d="m149.687 92.604c-3.553-1.037-7.304-1.604-11.187-1.604-4.481 0-8.787.752-12.813 2.117v26.383h-25.494c-1.096 3.645-1.693 7.503-1.693 11.5 0 4.365.713 8.564 2.011 12.5h25.176v25.383c4.026 1.365 8.332 2.117 12.813 2.117 3.883 0 7.634-.566 11.187-1.604v-25.896h26.802c1.298-3.936 2.011-8.135 2.011-12.5 0-3.997-.597-7.855-1.693-11.5h-27.12z" stroke="#000" stroke-miterlimit="10"/></g><path d="m180.972 119.5h-4.165c1.096 3.645 1.693 7.503 1.693 11.5 0 4.365-.713 8.564-2.011 12.5h4.199c1.172-3.964 1.812-8.156 1.812-12.5 0-3.98-.538-7.833-1.528-11.5z" fill="#746770"/><path d="m180.972 119.5h-4.165c1.096 3.645 1.693 7.503 1.693 11.5 0 4.365-.713 8.564-2.011 12.5h4.199c1.172-3.964 1.812-8.156 1.812-12.5 0-3.98-.538-7.833-1.528-11.5z" fill="none" stroke="#000" stroke-miterlimit="10"/><path d="m138.5 171c-4.481 0-8.787-.752-12.813-2.117v4.216c4.055 1.232 8.355 1.901 12.813 1.901 3.866 0 7.614-.503 11.187-1.439v-4.164c-3.553 1.037-7.304 1.603-11.187 1.603z" fill="#746770"/><path d="m138.5 171c-4.481 0-8.787-.752-12.813-2.117v4.216c4.055 1.232 8.355 1.901 12.813 1.901 3.866 0 7.614-.503 11.187-1.439v-4.164c-3.553 1.037-7.304 1.603-11.187 1.603z" fill="none" stroke="#000" stroke-miterlimit="10"/><path d="m98.5 131c0-3.997.597-7.855 1.693-11.5h-4.165c-.991 3.667-1.528 7.52-1.528 11.5 0 4.344.64 8.536 1.812 12.5h4.199c-1.298-3.936-2.011-8.135-2.011-12.5z" fill="#746770"/><path d="m98.5 131c0-3.997.597-7.855 1.693-11.5h-4.165c-.991 3.667-1.528 7.52-1.528 11.5 0 4.344.64 8.536 1.812 12.5h4.199c-1.298-3.936-2.011-8.135-2.011-12.5z" fill="none" stroke="#000" stroke-miterlimit="10"/><path d="m138.5 91c3.883 0 7.634.567 11.187 1.604v-4.164c-3.573-.937-7.321-1.44-11.187-1.44-4.458 0-8.758.668-12.813 1.901v4.216c4.026-1.365 8.332-2.117 12.813-2.117z" fill="#746770"/><path d="m138.5 91c3.883 0 7.634.567 11.187 1.604v-4.164c-3.573-.937-7.321-1.44-11.187-1.44-4.458 0-8.758.668-12.813 1.901v4.216c4.026-1.365 8.332-2.117 12.813-2.117z" fill="none" stroke="#000" stroke-miterlimit="10"/></g><use fill="none" height="100%" stroke="#000" stroke-miterlimit="10" width="100%" xlink:href="#b"/><g fill="#746770"><path d="m117.365 112.229-2.131 2.13-1.296-3.422-1.292-3.427 3.426 1.291 3.423 1.297z"/><path d="m157.146 112.229-2.131-2.131 3.423-1.296 3.426-1.292-1.291 3.426-1.297 3.423z"/><path d="m157.146 152.51 2.131-2.13 1.296 3.422 1.292 3.427-3.426-1.291-3.424-1.297z"/><path d="m117.365 152.511 2.13 2.131-3.422 1.296-3.427 1.291 1.292-3.425 1.296-3.424z"/><circle cx="137.125" cy="131.375" r="9" stroke="#000" stroke-miterlimit="10"/></g></g><g fill="#746770" transform="matrix(0 1 -1 0 297.82538 -22.91308)"><path d="m138.739 69.188h-4.354l2.178-3.772 2.176-3.771 2.178 3.771 2.178 3.772z"/><path d="m182.373 87.627-3.079-3.08 4.206-1.127 4.206-1.127-1.127 4.207-1.127 4.207z"/><path d="m199.768 130.875v-4.355l3.771 2.177 3.772 2.178-3.772 2.177-3.771 2.178z"/><path d="m182.373 179.311 3.08-3.079 1.127 4.206 1.127 4.207-4.206-1.127-4.208-1.127z"/><path d="m138.739 195.271h4.356l-2.177 3.771-2.179 3.771-2.176-3.771-2.179-3.771z"/><path d="m94.334 179.313 3.08 3.08-4.206 1.127-4.207 1.125 1.128-4.206 1.126-4.207z"/><path d="m75.944 130.875v4.355l-3.771-2.177-3.771-2.179 3.771-2.176 3.772-2.178z"/><path d="m94.333 87.627-3.08 3.08-1.126-4.207-1.126-4.207 4.205 1.128 4.207 1.127z"/></g><g fill="#55484f" transform="matrix(0 1 -1 0 297.82538 -22.91308)"><path d="m251.957 57.302c-1.772.265-5.316.531-9.856.531-10.521 0-18.439-1.991-18.439-5.656 0-3.5 7.918-5.872 19.492-5.872 4.651 0 7.586.299 8.86.498l-1.163 1.178c-1.827-.265-4.43-.464-7.531-.464-8.749 0-14.563 1.675-14.563 4.611 0 2.737 5.261 4.495 14.342 4.495 2.935 0 5.925-.183 7.863-.464z"/><path d="m257.992 46.637c2.935-.133 6.423-.232 10.244-.232 6.922 0 11.85.481 15.117 1.394 3.322.912 5.261 2.206 5.261 4.014 0 1.825-1.883 3.317-5.371 4.346-3.489 1.045-9.248 1.609-16.502 1.609-3.433 0-6.313-.05-8.749-.133zm4.818 9.885c1.218.066 2.99.083 4.873.083 10.3 0 15.893-1.725 15.893-4.744.055-2.637-4.929-4.313-15.117-4.313-2.492 0-4.375.066-5.648.149v8.825z"/><path d="m306.775 52.641v1.078h-13.678v-1.078z"/><path d="m317.462 46.487v11.179h-4.818v-11.179z"/></g><g fill="#8b8187"><path d="m172.8984 295.33563a1.4370274 1.4370274 0 0 1 -1.42832-1.44569 1.4370274 1.4370274 0 0 1 1.44569-1.42829 1.4370274 1.4370274 0 0 1 1.42834 1.4457 1.4370274 1.4370274 0 0 1 -1.44573 1.42831z" fill-rule="evenodd" stroke-linecap="round" stroke-linejoin="round" stroke-width="21.0214"/><g fill-rule="evenodd" stroke-linecap="round" stroke-linejoin="round" stroke-width="5.56191" transform="matrix(2.212948 3.0639339 -3.0639339 2.212948 439.4199 -250.9867)"><path d="m90.031484 141.79988a.38021349.38021349 0 0 1 -.531354.0824.38021349.38021349 0 0 1 -.08239-.53135.38021349.38021349 0 0 1 .531358-.0824.38021349.38021349 0 0 1 .08239.53136z"/><path d="m91.277575 141.79988a.38021349.38021349 0 0 1 -.531354.0824.38021349.38021349 0 0 1 -.08239-.53135.38021349.38021349 0 0 1 .531359-.0824.38021349.38021349 0 0 1 .08239.53136z"/></g><path d="m238.71431 386.46094a1.4370274 1.4370274 0 0 1 -1.42834-1.4457 1.4370274 1.4370274 0 0 1 1.44567-1.42832 1.4370274 1.4370274 0 0 1 1.42834 1.4457 1.4370274 1.4370274 0 0 1 -1.4457 1.42834z" fill-rule="evenodd" stroke-linecap="round" stroke-linejoin="round" stroke-width="21.0214"/><path d="m241.58099 390.42994a1.4370274 1.4370274 0 0 1 -1.42834-1.44571 1.4370274 1.4370274 0 0 1 1.44567-1.42831 1.4370274 1.4370274 0 0 1 1.42832 1.44567 1.4370274 1.4370274 0 0 1 -1.44567 1.42832z" fill-rule="evenodd" stroke-linecap="round" stroke-linejoin="round" stroke-width="21.0214"/><path d="m233.02696 378.58654a1.4370274 1.4370274 0 0 1 -1.42832-1.44569 1.4370274 1.4370274 0 0 1 1.44569-1.42829 1.4370274 1.4370274 0 0 1 1.42833 1.44569 1.4370274 1.4370274 0 0 1 -1.44568 1.42831z" fill-rule="evenodd" stroke-linecap="round" stroke-linejoin="round" stroke-width="21.0214"/></g><g fill="#aaa3a8" stroke-width=".439425" transform="matrix(-.33602139 .94185436 -.94185436 -.33602139 297.825381 -22.913074)"><path d="m431.14295 60.314607 1.04707-.09155q.0744.62939.34331 1.035633.27464.400521.84681.652277.57217.246034 1.28739.246034.63511 0 1.12146-.188817.48635-.188817.72094-.514956.24031-.33186.24031-.720937 0-.3948-.22887-.686608-.22887-.29753-.75527-.49779-.33758-.1316-1.49337-.406243-1.15579-.280364-1.61925-.526399-.60078-.314695-.89831-.778155-.29181-.469182-.29181-1.047076 0-.635112.36047-1.184398.36047-.555008 1.0528-.841094.69233-.286086 1.53914-.286086.93265 0 1.64214.303251.71522.29753 1.09857.881146.38336.583617.41197 1.32172l-1.06424.0801q-.0858-.79532-.58362-1.201563-.49207-.406243-1.45904-.406243-1.00703 0-1.47049.371913-.45773.36619-.45773.886867 0 .452017.32613.743825.32042.291808 1.67075.600782 1.35605.303251 1.85956.53212.73238.337582 1.08141.85826.34902.514955.34902 1.190119 0 .669442-.38335 1.264502-.38336.589338-1.1043.921198-.71521.326139-1.61352.326139-1.13863 0-1.91106-.33186-.76671-.331861-1.20729-.995581-.43485-.669442-.45773-1.510536z"/><path d="m439.33646 63.009541v-8.388054h3.16412q.83537 0 1.27594.0801.61795.102991 1.03563.394799.41769.286087.66945.806764.25747.520677.25747 1.144346 0 1.069963-.68088 1.813788-.68089.738102-2.46034.738102h-2.15137v3.410151zm1.11002-4.40001h2.16853q1.07569 0 1.5277-.400521.45202-.40052.45202-1.12718 0-.526399-.26892-.898311-.2632-.377634-.69805-.497791-.28037-.07438-1.03564-.07438h-2.14564z"/><path d="m447.17523 63.009541v-8.388054h6.06503v.989859h-4.95502v2.569056h4.64033v.984137h-4.64033v2.855143h5.14956v.989859z"/><path d="m454.99111 63.009541v-8.388054h6.06503v.989859h-4.95501v2.569056h4.64032v.984137h-4.64032v2.855143h5.14955v.989859z"/><path d="m462.7841 63.009541v-8.388054h2.88948q.97841 0 1.49337.120156.72093.16593 1.23017.600782.66372.560729.98986 1.436153.33186.869703.33186 1.991162 0 .955529-.22315 1.693631-.22315.738103-.57217 1.22445-.34903.480625-.76671.76099-.41197.274643-1.00131.417686-.58361.143044-1.3446.143044zm1.11002-.989859h1.7909q.82965 0 1.29883-.154487.4749-.154487.75527-.434851.3948-.3948.61222-1.05852.22315-.669442.22315-1.619249 0-1.315998-.43485-2.01977-.42913-.709495-1.04708-.949807-.44629-.171652-1.43615-.171652h-1.76229z"/></g><g fill="#aaa3a8" transform="matrix(-.05211569 .12509002 -.0974352 -.04059399 67.35006 323.32967)"><g><path d="m309.33011-154.25864h24.32812v5.48438h-5.48437v54.421874h5.48437v5.484375h-24.32812v-5.484375h5.48437v-54.421874h-5.48437z"/><path d="m367.59573-154.25864h24.32813v5.48438h-5.48438v54.421874h5.48438v5.484375h-24.32813v-5.484375h5.48438v-54.421874h-5.48438z"/><path d="m391.39261-154.25864h24.32812v5.48438h-5.48437v54.421874h5.48437v5.484375h-24.32812v-5.484375h5.48437v-54.421874h-5.48437z"/></g><path d="m214.42706-98.402069v-72.406671h6.85636l20.56909 48.08187v-48.08187h8.42852v72.406671h-6.46332l-20.87479-49.479351v49.479351z" stroke-width=".931648" transform="scale(1.107288 .90310741)"/></g><g fill="#aaa3a8" fill-rule="evenodd" stroke-linecap="round" stroke-linejoin="round" stroke-width="8.33512" transform="matrix(-.39163529 .92012054 -.92012054 -.39163529 468.579837 224.4521)"><path d="m281.80951 324.10513h1.657444v14.364512h-1.657444z"/><path d="m290.66727 324.10513h1.657444v14.364512h-1.657444z"/><path d="m299.52502 324.10513h1.657444v14.364512h-1.657444z"/></g><g fill="#8b8187" fill-rule="evenodd" transform="matrix(.66319954 .91424204 -.91424204 .66319954 428.12493 -133.59462)"><path d="m268.31305 404.05038h1.0254v2.64895h-1.0254z"/><path d="m404.86215-270.15024h1.0254v2.64895h-1.0254z" transform="rotate(90)"/></g></svg>