<svg height="184.69701" viewBox="0 0 184.698 184.69701" width="184.698" xmlns="http://www.w3.org/2000/svg"><path d="m92.348 0c-50.921 0-92.348 41.427-92.348 92.348s41.428 92.349 92.349 92.349 92.349-41.428 92.349-92.349-41.429-92.348-92.35-92.348zm0 108.782c-9.062 0-16.435-7.373-16.435-16.435s7.373-16.434 16.435-16.434 16.435 7.373 16.435 16.434c0 9.063-7.373 16.435-16.435 16.435z" fill="#6c5353"/><path d="m92.349049 2.8344982c-49.548337 0-89.8609035 40.1560058-89.8609035 89.5140048 0 49.357997 40.3115765 89.514007 89.8609035 89.514007 49.549221 0 89.860801-40.155 89.860801-89.514007 0-49.357999-40.31059-89.5140048-89.860801-89.5140048zm0 105.9480018c-9.097109 0-16.49868-7.37299-16.49868-16.434993s7.401571-16.434007 16.49868-16.434007c9.097101 0 16.498681 7.373001 16.498681 16.434007 0 9.063003-7.40158 16.434993-16.498681 16.434993z" fill="#c8b7b7" stroke-width="1.00193"/><g clip-rule="evenodd" fill="#1a1a1a" fill-rule="evenodd" transform="matrix(.34911542 0 0 .34911542 -246.5258 -59.86823)"><path d="m816.408 447.397c-.273.052-.426.104-.577.104-1.967.006-3.933.004-6.009.004 0-7.618 0-15.171 0-22.797h6.532v8.909h6.802c0-2.943 0-5.864 0-8.881h6.62v22.675c-2.162 0-4.301 0-6.563 0 0-2.936 0-5.849 0-8.838-2.308 0-4.49 0-6.805 0z"/><path d="m879.555 442.001v5.419c-2.241 0-4.382 0-6.594 0 0-7.568 0-15.098 0-22.765 4.318-.397 8.625-.989 12.914.07 3.743.924 5.663 3.295 6.021 7.177.374 4.074-1.378 7.583-4.741 9.039-1.341.58-2.845.807-4.298 1.029-1.016.156-2.071.031-3.302.031zm.084-4.07c2.063-.055 4.029-.053 5.063-2.135.916-1.843 1.039-3.852-.146-5.607-1.186-1.756-3.042-1.709-4.917-1.554z"/><path d="m788.308 424.627c4.098-.315 8.131-.9 12.17-.041 4.565.971 6.775 3.72 6.743 8.337-.03 4.584-2.631 7.96-6.936 8.772-1.719.324-3.495.314-5.404.471v5.251c-2.259 0-4.364 0-6.573 0 0-7.522 0-15.078 0-22.79zm6.61 13.085c1.802.498 3.872-.127 4.819-1.435 1.029-1.422 1.175-4.345.291-5.861-.873-1.495-2.803-2.146-5.11-1.682z"/><path d="m909.368 429.636c-1.689-.307-3.218-.646-4.763-.839-.822-.103-1.72-.111-2.496.135-.598.189-1.287.736-1.528 1.31-.354.84.283 1.515.994 1.906.741.406 1.535.711 2.309 1.051 1.253.553 2.553 1.012 3.756 1.664 2.093 1.137 3.204 2.952 3.188 5.484-.017 2.688-.905 4.979-3.302 6.082-1.758.81-3.748 1.393-5.652 1.448-2.369.071-4.763-.469-7.132-.846-.348-.057-.796-.633-.882-1.04-.29-1.378-.437-2.789-.643-4.224 1.878.477 3.663 1.076 5.494 1.348 1.319.193 2.721.081 4.042-.161.494-.09 1.16-.896 1.211-1.433.059-.609-.333-1.463-.799-1.882-.61-.553-1.475-.81-2.25-1.147-.85-.37-1.736-.65-2.58-1.034-3.505-1.591-4.891-3.973-4.44-7.568.353-2.824 2.724-5.156 6.12-5.435 2.653-.218 5.351.085 8.022.243.316.02.804.554.867.917.234 1.308.318 2.646.464 4.021z"/><path d="m852.696 442.816h6.352c-.338 1.618-.641 3.073-.961 4.607-3.946 0-7.863 0-11.879 0 0-7.533 0-15.085 0-22.711h6.488z"/><path d="m861.391 424.708h6.564v22.724c-2.21 0-4.353 0-6.564 0 0-7.595 0-15.121 0-22.724z"/><path d="m834.713 424.694h6.483v22.709c-2.109 0-4.249 0-6.483 0 0-7.54 0-15.094 0-22.709z"/></g><g fill="#1a1a1a" stroke-width=".264583" transform="matrix(.32474437 0 0 .32474437 4.010964 45.490838)"><path d="m24.337992 164.63432c-4.75095-.79529-9.283423-4.21569-11.370444-8.58062-.58296-1.21924-1.081728-2.79254-1.228637-3.57638-.01972-.10524-.104287-.42453-.122377-.68882-.01809-.26428-.0681-.53916-.08432-.94913s-.03144-.88945-.04555-1.43174c-.01411-.5423-.02711-1.14742-.03887-1.80868s-.02229-1.37866-.03147-2.14552c-.0092-.76687-.01701-1.58319-.02336-2.44229-.0064-.8591-.01124-1.76099-.01454-2.69897s-.005-1.91205-.005-2.91555v-13.58993h15.490814 15.490814l-.0796 14.35364-.0099 1.79421-.01 1.7942-.0099 1.79421-.01 1.79421-.0099 1.7942-.01 1.79421-.03309 1.60866-.18195 1.97577-.202645.87065-.295413.91703c-.219789.68228-.498221 1.31442-.788705 1.94035-.290485.62594-.639404 1.24566-1.000169 1.81033-.360764.56467-.802949 1.07429-1.233579 1.57278-.43063.49848-.89609.96266-1.396171 1.39005-.50008.42739-.935162.84325-1.485435 1.20028s-1.122969.67842-1.712741.96326-1.19662.53313-1.815197.74394c-.618578.21082-1.248884.38417-1.885573.51913-.82463.1748-1.920528.28517-2.993206.32123-1.072677.0361-2.122134-.002-2.85388-.12471zm5.632148-.73607c5.568817-1.18002 10.263957-5.88988 11.450157-11.48606.28946-1.36558.37202-4.64351.3756-14.91332l.005-13.16302h-14.949363-14.948958v13.43817c0 14.79936.01922 15.01186 1.6565 18.31183 1.192003 2.40252 4.23256 5.40445 6.660752 6.57614 3.22187 1.55467 6.366203 1.95334 9.750312 1.23626zm-5.764439-.65631c-4.934826-1.0699-8.950007-4.58769-10.779809-9.44444-.568899-1.51-.585382-1.88183-.669733-15.108l-.08648-13.5599h14.181855 14.181853l-.081 13.5599-.01013 1.69499-.01013 1.69499-.01012 1.69498-.01013 1.69499-.01013 1.69499-.01012 1.69499-.01013 1.69498-.206915 1.59659-.47391 1.82218c-.191895.73783-.574061 1.36809-.877743 2.02147-.303681.65338-.660072 1.23148-1.062803 1.7994-.402732.56792-.712652.88017-1.201697 1.36164-.489044.48147-1.031646.99302-1.594267 1.38704s-1.15322.88885-1.77668 1.19442c-.623461.30558-1.274157.65945-1.945721.87557-.671563.21613-1.363994.38729-2.070924.51297-.706929.12568-1.428358.2059-2.157917.24014-1.236927.0581-2.725208.002-3.307291-.12389zm6.800216-1.30552c5.24323-1.81286 8.69278-6.33068 9.11362-11.93598.28595-3.80851-1.02877-7.40259-3.77136-10.30988-2.59383-2.7496-5.92171-4.24221-9.458309-4.24221-6.207602 0-11.74347 4.40066-13.018978 10.34924-1.017473 4.74519.117239 9.0728 3.255997 12.41787 1.974371 2.10414 3.850007 3.25889 6.425721 3.95602 2.378867.64385 5.165465.55596 7.453309-.23506zm-8.053825-.80351c-4.02493-1.29884-7.714324-5.38391-8.294588-9.18415-.164772-1.07912-.153242-1.09896.826517-1.42231 1.377527-.45463 3.665715-.18556 5.414388.63666 2.024931.95213 3.745576.92262 6.085417-.10434 2.030385-.89114 3.706241-1.02108 5.187401-.40222.68883.28782.90197.51561.80458.8599-.0729.2576-.21418 1.00414-.31403 1.65899-.24346 1.59676-.5024 1.84749-1.94004 1.87846-.673401.0145-1.522026.11338-1.885828.21973-.648807.18966-.644864.19718.206164.39322.831526.19155.860352.24019.692854 1.16933-.236589 1.3124-.20356 1.28132-1.581472 1.48795-1.424775.21366-1.345367.4455.224347.65501l1.119565.14942v1.19063 1.19062l-2.513541.0565c-1.848474.0416-2.915246-.0731-4.031734-.43341zm6.1484-.77964c0-.71308-.08215-.77056-1.33983-.93739-1.188038-.1576-1.330421-.2439-1.256771-.76169.06642-.46695.337511-.6331 1.35289-.82918 1.156765-.22339 1.262778-.30584 1.190625-.92604-.05514-.47396-.260085-.70651-.674518-.76537-.425187-.0604-.595312-.26288-.595312-.70857 0-.64638.06796-.66555 3.571871-1.00735.42151-.0411.57757-.33696.76706-1.45414.2935-1.73038.10785-1.95397-1.74993-2.10767-1.133138-.0937-1.699487.0245-2.985876.62348-1.068208.49737-2.158307.77486-3.332481.84829-1.512976.0946-1.993774-.00006-3.616223-.71216-1.9376-.85042-3.452275-1.02842-4.703423-.55273-.843415.32067-.785833.791.414187 3.38311 1.335232 2.88419 4.728991 5.69482 7.740526 6.41053.468369.11131 1.833846.21457 3.034393.22947l2.182812.0271zm1.058334.66045c0-.20009.07215-.72457.160341-1.16551.14256-.71281.28192-.81397 1.25677-.91228 1.06772-.10768 1.48089.10968 1.48925.78349.002.17945-.5873.62593-1.31007.99219-1.52542.77299-1.596291.7864-1.596291.30211zm1.653641-.95016c.94638-.47209.92744-.74039-.0422-.59807-.47311.0694-.82052.30686-.90136.616-.0724.27666-.0533.46747.0422.42402.0956-.0434.50118-.24232.90136-.44195zm1.66517-2.05948c.10226-.98226.22302-1.82776.26835-1.87888.18099-.20412 3.43769-.49333 3.62606-.32202.22855.20786-3.37677 3.98684-3.80362 3.98684-.18361 0-.21416-.60096-.0908-1.78594zm1.74401-.39687 1.07287-1.12448-.70895-.0859c-1.11179-.13468-1.39105.0991-1.50146 1.25681-.0565.59291-.0651 1.07802-.0191 1.07802.0461 0 .56653-.50601 1.15661-1.12448zm-4.04049.67586c-.53036-.0836-.73639-.30447-.8599-.92204-.280686-1.40343-.218649-1.54002.69746-1.53571 1.20016.006 1.4525.23934 1.55992 1.44454.10047 1.12738-.0375 1.22744-1.39748 1.01321zm.78201-1.20503c-.0838-.59001-1.27518-1.06002-1.27518-.50306 0 .62767.36018 1.09837.84046 1.09837.38716 0 .49776-.15145.43472-.59531zm3.48732-2.03244-1.71979-.15037-.20799-1.68819c-.11439-.92851-.14797-1.74821-.0746-1.82155.0734-.0734.49409.0161.93498.19868.82536.34187 3.41017.26147 4.34818-.13524.44625-.18874.48145-.12823.31387.53948-.27993 1.11532-1.30645 3.14011-1.61024 3.17616-.14552.0173-1.03849-.0363-1.98438-.11897zm2.53514-1.73787c.20202-.58208.3686-1.05833.37016-1.05833h-2.17883-2.18167l.0937 1.13594.0937 1.13594 1.71781-.0776 1.71782-.0776zm-17.458143-3.07894c-1.583642-.70595-2.040381-.7962-3.439583-.67968-.887397.0739-1.881341.21957-2.208763.32371-.978563.31123-.702786-.38364.322231-.81192 1.520346-.63525 3.393027-.48474 5.5056.44247 1.632197.71638 2.094035.80777 3.483931.6894.920285-.0784 2.221706-.4288 3.057509-.82327 1.97625-.93272 3.727558-.92348 5.746848.0303 1.61161.76126 4.15019.98636 5.69638.50511 1.08813-.33868.93006.30248-.18994.77044-1.46467.61198-3.44589.48662-5.14234-.32536-2.27629-1.08953-4.015466-1.12085-6.310244-.11367-2.493814 1.09454-4.053344 1.09273-6.521629-.008zm0-1.57079c-1.594721-.72548-2.030592-.81373-3.439583-.69639-.887397.0739-1.881341.21957-2.208763.32371-.978563.31123-.702786-.38364.322231-.81192 1.518267-.63438 3.393236-.48465 5.497744.43903 2.235218.98104 4.025026.9721 6.152421-.0307.770893-.36339 2.003922-.67096 2.954935-.7371 1.393468-.0969 1.857548-.004 3.174998.63888 1.20781.58893 1.91656.75323 3.26277.75639.94589.002 2.04722-.0979 2.4474-.22243 1.12382-.34978.91213.30997-.25607.79808-1.32973.55559-3.61502.36874-5.11766-.41844-.69441-.36378-1.83804-.66964-2.79708-.74807-1.38259-.11307-1.851841-.0256-3.174998.59147-1.019946.47571-2.142662.7626-3.27242.83621-1.501021.0978-1.95209.006-3.545925-.7187zm1.538455-1.01111c-1.292398-.32884-1.365037-.4437-1.225624-1.93801.208738-2.23737.418953-2.58524 1.5729-2.60286 1.326808-.0203 3.414697-.44027 2.403413-.48349-.911207-.0389-1.003873-.21347-.824275-1.55248.143139-1.06718.183631-1.10674 1.305015-1.2749 1.452715-.21785 1.512638-.64263.09065-.64263-1.145949 0-1.266846-.1386-1.376848-1.57843l-.07006-.91697 1.446395-.23681c1.902199-.31145 4.69421.1491 6.755692 1.11437 3.08751 1.4457 5.65798 4.47918 6.62263 7.81556.42269 1.46196.42351 1.58922.0122 1.88998-.60555.44278-2.64467.71873-3.6713.49682-.46578-.10068-1.42315-.47348-2.12749-.82845-1.77386-.89398-4.054779-.8877-6.031789.0166-1.611552.73714-3.641416 1.03724-4.881529.7217zm4.768668-1.2828c1.917072-.96263 4.55099-.92905 6.48592.0827 1.43996.75294 3.11184.96334 4.54991.57259.64739-.17591.68418-.26109.48816-1.13021-1.20235-5.33108-7.12295-9.57383-12.516807-8.96966-1.206523.13515-1.506545.25672-1.389063.56288.08242.21477.149849.55935.149849.76573 0 .24832.296102.37524.875472.37524 1.092295 0 1.915965.56185 1.689363 1.15236-.107486.2801-.476306.43658-1.035177.43919-1.100324.005-1.404606.21477-1.626252 1.12043-.164561.6724-.117468.7276.62072.7276.614306 0 .79879.11861.79879.51355 0 .69846-.17973.7732-2.343047.97425-1.858264.17271-1.88226.18473-2.039237 1.02149-.30258 1.61289-.06374 2.36565.810409 2.55418 1.233097.26595 3.048131-.0428 4.48099-.76231zm-12.15042-.34827c.107399-.48899.417912-1.40847.690027-2.04329l.494755-1.15421 1.522532.16539c2.664948.28949 2.713158.31259 2.713158 1.30015 0 .48836.07841 1.27999.174246 1.75916.15684.7842.123802.85003-.330729.659-1.390281-.5843-3.586931-.58646-4.966493-.005-.443011.18676-.47305.11797-.297496-.68133zm3.686971-.31564 1.204334.13574v-1.09274c0-1.06475-.02287-1.09274-.892968-1.09274-.491133 0-1.247556-.0709-1.680939-.1576-.727421-.14548-.821453-.0739-1.223698.9314-.597055 1.49219-.565601 1.58101.476605 1.34596.501783-.11317 1.454283-.14468 2.116666-.07zm-1.799148-3.90953c.538588-.92554 3.152218-3.43188 3.578799-3.43188.304019 0 .03974 2.49867-.340915 3.22323-.263403.50137-.612358.62642-2.444134.87582l-1.28369.17478zm2.528005-.32302c.390328-.3078.821187-2.05053.506955-2.05053-.228528 0-2.148144 1.93948-2.148144 2.17037 0 .33201 1.177178.24605 1.641189-.11984zm2.056429.18121c-.141919-.37328-.258035-.98381-.258035-1.35673 0-.64858.04845-.67031 1.114546-.49983.613.098 1.14333.20701 1.17851.24219.03518.0352.144164.5655.242186 1.1785l.178223 1.11455h-1.098698c-.935928 0-1.136925-.10054-1.356732-.67868zm1.660442-.50338c-.06864-.3591-.358764-.72716-.644708-.81791-.684092-.21713-.806289-.0577-.596504.77813.123174.49076.347607.69267.769936.69267.49107 0 .574097-.11502.471276-.65289zm-2.005602-2.29753c-.08356-.31954-.08278-.69288.0017-.82964.211948-.34294 2.47746-1.32439 2.652675-1.14917.184652.18465-.149395 1.96782-.394726 2.10708-.103504.0588-.620092.18465-1.147973.27977-.839078.1512-.978891.0999-1.111716-.40804zm2.022806-.78026c.158735-.607.103744-.61312-.890487-.099-.996687.51541-1.001889.86007-.01078.71461.472877-.0694.820529-.30687.901271-.61563zm17.643487-2.35473v-10.05417h-13.626043-13.626041l.0089 9.98802.0089 9.98802.533334-1.55055c.902448-2.62366 2.4462-4.67702 4.842539-6.4411 2.655552-1.95491 4.946768-2.71592 8.191723-2.72083 5.294898-.008 9.914908 2.88036 12.332168 7.7099.58851 1.1758 1.07001 2.36215 1.07001 2.63635 0 .27419.0595.49852.13229.49852.0728 0 .13229-4.52437.13229-10.05416z"/><path d="m37.107155 133.10738c-.626273-.0918-.712303-.11433-.774037-.20247-.09858-.14075-.09295-1.37003.0067-1.46971.04282-.0428.106637-.0611.16119-.0462.41148.11241.807585.16272 1.115112.14164.385029-.0264.556759-.11577.578995-.30137.01569-.13104-.04975-.16943-.787101-.46167-.374644-.14849-.519622-.23149-.698181-.39972-.711683-.6705-.684711-1.97501.05615-2.71587.431072-.43108.880483-.56189 1.695142-.49342.271876.0228.536459.0418.587963.0422.205368.002.228738.085.228738.81739 0 .57595-.01098.6926-.07089.75249-.0442.0442-.104885.0609-.161191.0442-.453558-.13397-1.110877-.12123-1.267362.0246-.197704.18419-.09893.31111.381849.4907.853538.31881 1.184243.54638 1.393155.95864.304738.60138.240246 1.45177-.155395 2.04908-.174163.26294-.558784.546-.903465.66492-.266749.092-1.063425.15206-1.387406.10456zm-22.6293-.17531c-.08689-.0608-.08782-.0906-.08717-2.79931.00039-1.64762.01687-2.76348.04136-2.80228.07946-.12587 2.010794-.17575 2.484124-.0642.801283.18891 1.351082.78809 1.533498 1.67122.124692.60367.05496 1.14449-.219526 1.7027-.366011.74433-1.032863 1.15096-1.920214 1.17092l-.372472.008-.0026.36675c-.004.58233-.02044.69715-.108886.76182-.11561.0845-1.223403.0713-1.348181-.0161zm1.822239-2.63948c.412533-.10388.614834-.42864.573969-.92142-.03398-.40974-.256224-.61891-.695024-.65412l-.284564-.0229v.2355c0 .12953.01267.49969.02815.82259.03162.65931.01265.63216.377463.5403zm2.627834 2.64425c-.05999-.06-.06755-.37439-.06755-2.81239s.0076-2.7524.06755-2.8124c.05529-.0553.182413-.0675.700642-.0675.435095 0 .649227.0161.684676.0516.0371.0371.05158.32668.05158 1.03161v.98005h.537302.537301v-.96408c0-.81912.01016-.97423.06755-1.03162.05533-.0553.181599-.0674.698492-.0669.34702.00033.657327.0174.689572.0378.04856.0308.05838.51597.05717 2.82361-.0014 2.61592-.0061 2.78987-.07759 2.84213-.120174.0879-1.277955.0778-1.36765-.0118-.05768-.0577-.06755-.21935-.06755-1.10684l-.00001-1.0393-.537292-.004-.537293-.004v1.04336c0 .8912-.0099 1.05321-.06755 1.11091-.09945.0994-1.269899.0994-1.369352 0zm5.013182.016c-.03906-.0391-.05158-.73161-.05158-2.85385 0-2.51564.0069-2.80493.06799-2.82835.0374-.0143.345501-.0261.684676-.0261.503309 0 .629102.0124.684231.0676.05999.06.06755.37439.06755 2.81239s-.0076 2.7524-.06755 2.8124c-.0553.0553-.182413.0676-.700641.0676-.435095 0-.649227-.0161-.684676-.0516zm2.423077-.016c-.06001-.06-.06755-.37584-.06755-2.82836 0-2.08998.01252-2.77334.05158-2.81239.08063-.0806 1.339884-.0715 1.407701.0103.03835.0462.05019.58442.04681 2.12954l-.0045 2.0677.60049-.006c.330269-.003.621055.007.64619.0222.02918.018.0457.27541.0457.71194 0 .63196-.0063.68706-.08314.72819-.05183.0277-.552536.0445-1.32944.0445-1.075683 0-1.255542-.009-1.313841-.0676zm3.184704.0135c-.06859-.0501-.07412-.25478-.07617-2.81762-.0017-2.09319.01033-2.77865.04951-2.82585.07882-.095 1.2965-.0904 1.392126.005.05999.06.06755.37272.06755 2.79397 0 2.66911-.0018 2.72823-.08597 2.81239-.07767.0777-.14328.086-.67953.086-.409054 0-.616553-.0168-.667523-.0541zm2.464641.0228c-.03546-.0135-.07869-.0458-.09606-.0719-.04787-.0717-.03896-5.49457.0091-5.57075.08101-.12826 2.006292-.17679 2.490025-.0628.908604.21417 1.499714.97117 1.57621 2.01854.05182.70952-.209317 1.45882-.668628 1.91854-.402873.40324-.89634.596-1.551842.6062l-.384224.006.0038.53143c.0026.35601-.01319.55198-.04782.5937-.04094.0493-.17802.0616-.658951.0589-.333992-.002-.636274-.0145-.671736-.028zm1.831508-2.69715c.366825-.10894.532621-.3625.532621-.8146 0-.46719-.290673-.75534-.761956-.75534h-.219002l.0013.8167.0013.81671h.115988c.06379 0 .212158-.0286.329701-.0635z"/></g><path d="m92.348 108.782c-9.062 0-16.435-7.373-16.435-16.435s7.373-16.434 16.435-16.434 16.435 7.373 16.435 16.434c0 9.063-7.373 16.435-16.435 16.435zm15.075-16.434c0-8.312-6.762-15.074-15.074-15.074s-15.073 6.762-15.073 15.074 6.762 15.074 15.073 15.074c8.312 0 15.074-6.762 15.074-15.074z" fill="#6c5353" fill-opacity=".913725"/><path d="m92.348 103.436v-.15a10.9 10.9 0 0 1 -7.73-3.207 10.908 10.908 0 0 1 -3.208-7.731c0-3.016 1.227-5.749 3.208-7.73a10.902 10.902 0 0 1 7.73-3.207 10.9 10.9 0 0 1 7.73 3.207 10.907 10.907 0 0 1 3.208 7.73c0 3.016-1.227 5.749-3.208 7.731a10.902 10.902 0 0 1 -7.73 3.207v.3c6.196 0 11.238-5.041 11.238-11.238 0-6.196-5.041-11.237-11.238-11.237-6.196 0-11.238 5.041-11.238 11.237 0 6.197 5.041 11.238 11.238 11.238z" fill="#bcbcbc"/><g transform="matrix(.63520083 0 0 .63520083 81.7736 112.03566)"><path d="m32.491 24.145a.68.68 0 0 0 .68-.68v-5.818a.68.68 0 0 0 -.68-.68h-31.695a.68.68 0 0 0 -.68.68v5.818c0 .375.305.68.68.68z"/><path d="m11.267 19.85c-.298-.312-.717-.478-1.212-.478-.452 0-.847.159-1.144.46-.375.38-.585.977-.575 1.636-.009.608.18 1.14.53 1.495.301.306.712.467 1.189.467.919 0 1.533-.514 1.682-1.409l.009-.055h-.376l-.007.039c-.129.682-.619 1.088-1.309 1.088-.361 0-.663-.121-.897-.36-.285-.289-.445-.742-.447-1.247h3.054l.002-.045c.032-.656-.146-1.221-.499-1.591z" fill="#fff"/><path d="m10.054 19.71c-.788 0-1.264.715-1.339 1.438h2.674c-.033-.723-.493-1.438-1.335-1.438z"/><path d="m1.336 17.987h-.047v5.354h.418v-5.354h-.047zm2.946 1.385c-.577 0-1.085.296-1.323.752v-.663h-.375v3.88h.374v-2.095c0-.492.15-.914.424-1.188.229-.228.538-.348.892-.348.322 0 .572.086.742.256.257.257.286.656.286.935v2.441h.375v-2.389c0-.277 0-.855-.374-1.228-.233-.235-.576-.353-1.021-.353zm2.882.089v-1.179h-.375v1.179h-.699v.337h.699v2.598c-.012.334.062.574.226.732.233.227.615.233.923.213l.044-.002v-.336l-.049.001c-.309.009-.512-.009-.632-.126-.094-.091-.137-.244-.137-.482v-2.598h.824v-.337zm7.06-.023c-.607-.026-1.195.283-1.428.727v-.705h-.374v3.88h.374v-2.117c.03-.571.151-.789.414-1.057a1.232 1.232 0 0 1 1.006-.354l.054.007v-.379z" fill="#fff"/><path d="m17.853 22.982a1.217 1.217 0 0 1 -.199.021c-.059 0-.103-.015-.133-.045-.07-.07-.07-.22-.07-.364v-2.188c0-.285-.086-.517-.257-.687-.23-.231-.605-.348-1.116-.348-.938 0-1.453.449-1.491 1.298l-.002.049h.374l.002-.044c.035-.613.442-.965 1.117-.965.347 0 .616.093.8.277a.677.677 0 0 1 .206.419c0 .565 0 .652-1.26.741-.617.051-1.436.228-1.436 1.167 0 .332.094.595.281.782.222.221.569.333 1.033.333.714 0 1.166-.356 1.375-.713v.025c0 .162.016.345.136.465.091.091.228.134.42.134.071 0 .142-.013.216-.026l.02-.003.039-.007v-.331z" fill="#fff"/><path d="m16.182 21.442a7.795 7.795 0 0 0 -.424.042c-.698.078-.996.326-.996.83 0 .208.071.389.206.523.167.166.423.254.741.254 1.33 0 1.367-1.229 1.367-1.242v-.604c-.199.138-.538.167-.894.197z"/><path d="m21.278 21.914h-.042l-.005.041c-.095.681-.605 1.138-1.272 1.138-.391 0-.711-.122-.95-.361-.302-.302-.461-.774-.461-1.367 0-.508.175-.974.48-1.279.246-.245.567-.375.931-.375.716 0 1.188.373 1.235.973l.003.044h.376l-.005-.052c-.077-.815-.679-1.303-1.609-1.303-1.051 0-1.785.819-1.785 1.992 0 .669.2 1.238.563 1.602.308.308.719.464 1.222.464.877 0 1.522-.574 1.646-1.462l.008-.053h-.335zm1.644-2.453v-1.179h-.374v1.179h-.7v.337h.7v2.598c-.012.334.062.574.225.732.233.227.616.233.923.213l.045-.002v-.336l-.049.001c-.31.009-.512-.009-.632-.126-.094-.091-.138-.244-.138-.482v-2.598h.825v-.337zm1.454 0h-.047v3.88h.374v-3.88h-.047zm0-1.474h-.047v.854h.374v-.854h-.047zm4.14 1.474h-.342l-.012.03-1.246 3.366-1.332-3.367-.012-.029h-.426l.026.064 1.524 3.787.012.029h.411l.012-.03 1.429-3.787.024-.063z" fill="#fff"/><path d="m31.724 19.85c-.298-.312-.717-.478-1.213-.478-.451 0-.848.159-1.144.46-.375.38-.585.977-.576 1.636-.008.608.18 1.14.53 1.495.302.306.713.467 1.189.467.92 0 1.533-.514 1.683-1.409l.009-.055h-.375l-.007.039c-.129.682-.619 1.088-1.31 1.088-.36 0-.662-.121-.896-.36-.285-.289-.445-.742-.447-1.247h3.054l.002-.045c.031-.656-.146-1.221-.499-1.591z" fill="#fff"/><path d="m30.511 19.71c-.788 0-1.264.715-1.339 1.438h2.674c-.033-.723-.493-1.438-1.335-1.438zm-16.783-4.172c.197 0 .357-.16.357-.357v-10.694a.357.357 0 0 0 -.357-.357h-3.154a.357.357 0 0 0 -.357.357v10.694c0 .197.16.357.357.357z"/><path d="m13.226 14.894a.214.214 0 0 0 .214-.214v-9.69a.214.214 0 0 0 -.214-.214h-2.15a.215.215 0 0 0 -.215.214v9.69c0 .118.097.214.215.214z" fill="#fff"/><path d="m0 6.201c0-1.143.926-2.069 2.069-2.069l2.923-.002a.214.214 0 0 0 .214-.214v-3.297c0-.197.16-.357.357-.357h3.154c.197 0 .357.16.357.357v14.562c0 .197-.16.357-.357.357l-6.648-.001a2.07 2.07 0 0 1 -2.069-2.069z"/><path d="m8.216 14.894a.215.215 0 0 0 .215-.214v-13.559a.214.214 0 0 0 -.215-.214h-2.15a.214.214 0 0 0 -.214.214l-.001 3.297c0 .197-.16.356-.357.356l-3.425.001c-.794 0-1.426.631-1.426 1.426v7.267c0 .794.631 1.425 1.426 1.425z" fill="#fff"/><path d="m3.215 7.206a1.322 1.322 0 0 1 2.643 0v5.332a1.3215 1.3215 0 0 1 -2.643 0z"/><path d="m3.87 7.206a.667.667 0 0 1 1.333 0v5.332a.6665.6665 0 0 1 -1.333 0z" fill="#fff"/><path d="m18.821 7.155a.447.447 0 1 0 0 .894l2.685-.003c1.163 0 2.104.942 2.104 2.104v3.286a2.104 2.104 0 0 1 -2.104 2.104l-6.122-.003a.356.356 0 0 1 -.356-.357v-2.31c0-.197.16-.357.356-.357l4.442-.003a.556.556 0 1 0 0-1.11h-2.697a2.104 2.104 0 0 1 -2.104-2.104v-3.064c0-1.162.942-2.104 2.104-2.104l5.737.002c.197 0 .357.16.357.357v2.312c0 .197-.16.357-.357.357z"/><path d="m17.129 4.776c-.804 0-1.456.652-1.456 1.456v3.063c0 .804.652 1.456 1.456 1.456l2.697.003a1.201 1.201 0 0 1 0 2.402l-3.94.001a.214.214 0 0 0 -.214.214v1.308c0 .118.096.214.214.214l5.62-.002c.804 0 1.456-.651 1.456-1.455v-3.286c0-.804-.652-1.456-1.456-1.456l-2.685-.003a1.09 1.09 0 0 1 -1.096-1.09c0-.605.491-1.096 1.096-1.096l3.531.005a.214.214 0 0 0 .214-.214v-1.307a.214.214 0 0 0 -.214-.214z" fill="#fff"/><path d="m33.23 10.737a.357.357 0 0 0 -.357-.357h-2.906a.357.357 0 0 0 -.357.357l-.004 1.708a.715.715 0 1 1 -1.43 0v-5.172a.715.715 0 1 1 1.43 0l.004 1.361c0 .197.16.357.357.357h2.906c.197 0 .357-.16.357-.357l.003-2.402a2.104 2.104 0 0 0 -2.104-2.104h-4.477a2.104 2.104 0 0 0 -2.104 2.104v7.205c0 1.162.942 2.104 2.104 2.104h4.477a2.104 2.104 0 0 0 2.104-2.104z"/><path d="m27.527 7.273a1.363 1.363 0 1 1 2.726 0v.858c0 .118.096.214.214.214h1.902a.215.215 0 0 0 .215-.214l-.002-1.9c0-.804-.651-1.456-1.455-1.456h-4.477c-.804 0-1.456.652-1.456 1.456v7.205c0 .804.652 1.455 1.456 1.455h4.477c.804 0 1.455-.651 1.455-1.455l.002-2.198a.215.215 0 0 0 -.215-.214h-1.902a.214.214 0 0 0 -.214.214v1.206a1.364 1.364 0 1 1 -2.726 0z" fill="#fff"/><path d="m31.807.563h-.85v-.524h2.339v.524h-.847v2.425h-.642zm-14.531-.53h1.083l.844 1.84.844-1.837h1.083v2.949h-.644l.001-2.325-1.07 2.325h-.428l-1.07-2.325v2.325l-.643-.003zm4.875 2.954h.643v-.748h.806c.737 0 1.031-.398 1.031-1.127s-.293-1.073-1.031-1.073h-1.442l.637.547h.75c.329.013.438.305.438.526s-.108.573-.438.586h-.75v-1.113l-.643-.547v2.949zm-6.242-1.477c0-.785-.32-.939-.761-.939-.439 0-.761.154-.761.939s.321.939.761.939c.441.001.761-.154.761-.939l.643.012c0 .999-.19 1.498-1.403 1.498s-1.403-.5-1.403-1.498c0-.999.19-1.522 1.403-1.522s1.403.523 1.403 1.522zm-2.78-.558c-.093-.627-.413-.952-1.369-.952-1.213 0-1.403.523-1.403 1.522s.19 1.498 1.403 1.498c.967 0 1.283-.317 1.373-.951l-.697-.001c-.124.307-.372.382-.676.382-.44 0-.761-.155-.761-.939s.321-.939.761-.939c.303 0 .549.079.673.379zm13.745 1.448.184.582h.643l-.926-2.949h-.983l-.926 2.949h.643l.184-.582.142-.468.222-.787c.034-.11.106-.249.228-.249.121 0 .193.139.227.249l.222.787h-.898l-.143.468zm3.925-1.448c-.093-.627-.414-.952-1.37-.952-1.213 0-1.403.523-1.403 1.522s.19 1.498 1.403 1.498c.967 0 1.284-.317 1.373-.951l-.697-.001c-.124.307-.371.381-.676.381-.439 0-.761-.155-.761-.939s.321-.939.761-.939c.303 0 .549.079.673.379z"/></g><path d="m132.1299 95.68798c-1.8866-.23923-3.4819-.766-4.6045-1.52046-.9669-.64977-1.4066-1.47781-1.2084-2.27564.2347-.94432 1.469-1.9214 3.0907-2.44646 1.7021-.55107 2.1508-.60715 4.8446-.60535 2.3758.002 2.7324.0291 3.6911.28473 1.2236.32629 2.1719.71417 2.8935 1.18352.5989.38953 1.19 1.00762 1.1159 1.16682-.029.062-.5049.11272-1.0579.11272-.9048 0-1.0377-.029-1.3267-.28955-.8924-.80441-2.9442-1.31294-5.319-1.31828-3.0287-.007-5.4962.81651-5.8181 1.94136-.2896 1.01173.7055 1.8277 2.8691 2.35268 1.3549.32874 4.4506.36445 5.6493.0652 1.4793-.36935 2.6102-.88701 2.7922-1.27808.076-.16252 2.2618-.16861 2.2618-.006 0 .12258-.8274.9829-1.1534 1.19936-.6703.44495-2.8338 1.21043-3.7372 1.32231-.2284.0283-.8721.10766-1.4303.17642-1.2392.1526-1.9377.13983-3.5527-.0649zm10.427-.0961c-.025-.0334-.034-1.47194-.02-3.19684l.026-3.13617 3.8956.001c4.1408.001 5.2605.10274 6.6485.60303 1.5207.54815 2.4609 1.49442 2.4609 2.47689 0 .9246-.5088 1.63721-1.5688 2.1974-.6357.33599-.8967.42439-2.2146.75027-.9553.23622-1.4662.26751-5.1217.31369-2.2333.0282-4.0812.024-4.1063-.009zm8.3052-1.36363c1.4965-.27324 2.2022-.61414 2.5751-1.24381.2451-.41402.2451-.78555 0-1.19957-.6177-1.04317-2.3442-1.41959-6.5199-1.42156l-2.6068-.001v2.02257 2.02256l2.7913-.001c1.9196-.00074 3.0941-.0563 3.7603-.17794zm10.6734 1.32304c-.034-.045-.062-.98268-.062-2.08385v-2.00213h.7844.7843v2.08385 2.08385h-.7228c-.3976 0-.7505-.0368-.7844-.0817zm-28.1599-2.41961c-.5656-.1857-1.0212-.49307-1.0915-.73651-.2259-.78214 1.7348-1.34414 3.0576-.8764.5904.20876.7561.37433.7561.75548 0 .37834-.2774.6074-1.0155.83848-.7055.22086-1.079.22501-1.7067.019zm1.7558-.4542c.5633-.18844.6781-.40075.3642-.67396-.1953-.16999-.4465-.21306-1.2289-.21068-1.0662.003-1.5231.1565-1.4741.49451.062.42959 1.5026.66984 2.3388.39013zm21.4374-.11359c.03-.71155.043-.74797.2407-.682.115.0383.4953.12465.845.19181.3498.0672.9841.22265 1.4096.34554l.7736.22344-.6352.15797c-.7451.18529-1.5581.34988-2.2039.44615l-.4614.0688zm4.9052-2.63083v-.67419h.7843.7844v.67419.67419h-.7844-.7843z" stroke-width=".106355"/></svg>