<?xml version="1.0" encoding="utf-8"?>
<!-- Generator: Adobe Illustrator 24.1.2, SVG Export Plug-In . SVG Version: 6.00 Build 0)  -->
<svg version="1.1" id="Calque_1" xmlns="http://www.w3.org/2000/svg" xmlns:xlink="http://www.w3.org/1999/xlink" x="0px" y="0px"
	 viewBox="0 0 141.6 238.7" style="enable-background:new 0 0 141.6 238.7;" xml:space="preserve">
<style type="text/css">
	.st0{fill:url(#SVGID_1_);}
	.st1{fill:url(#SVGID_2_);}
	.st2{fill:url(#SVGID_3_);}
	.st3{fill:url(#SVGID_4_);}
	.st4{fill:url(#SVGID_5_);}
	.st5{fill:url(#SVGID_6_);}
	.st6{fill:url(#SVGID_7_);}
	.st7{fill:url(#SVGID_8_);}
	.st8{fill:url(#SVGID_9_);}
	.st9{fill:url(#SVGID_10_);}
	.st10{fill:url(#SVGID_11_);}
	.st11{fill:url(#SVGID_12_);}
	.st12{fill:url(#SVGID_13_);}
	.st13{fill:url(#SVGID_14_);}
	.st14{opacity:0.45;fill:#68BD45;}
	.st15{fill:#717A76;}
	.st16{fill:#0B0F0D;}
	.st17{fill:none;stroke:#64B0A6;stroke-width:1.2;stroke-miterlimit:10;}
	.st18{fill:#63B0A6;}
	.st19{fill:url(#SVGID_15_);}
	.st20{fill:#7C827F;}
	.st21{fill:#787F7C;}
	.st22{fill:none;stroke:#717774;stroke-width:1.2;stroke-miterlimit:10;}
	.st23{fill:#010101;}
	.st24{fill:#53C5CE;}
	.st25{fill:url(#SVGID_16_);}
	.st26{fill:url(#SVGID_17_);}
	.st27{fill:url(#SVGID_18_);}
	.st28{fill:url(#SVGID_19_);}
	.st29{fill:url(#SVGID_20_);}
	.st30{fill:url(#SVGID_21_);}
	.st31{fill:url(#SVGID_22_);}
	.st32{fill:url(#SVGID_23_);}
	.st33{fill:url(#SVGID_24_);}
	.st34{fill:url(#SVGID_25_);}
	.st35{fill:url(#SVGID_26_);}
	.st36{fill:#161B1A;}
</style>
<linearGradient id="SVGID_1_" gradientUnits="userSpaceOnUse" x1="-22.9963" y1="248.6667" x2="78.3371" y2="248.6667" gradientTransform="matrix(1.05 0 0 -1.3968 41.7241 465.0887)">
	<stop  offset="0" style="stop-color:#414143"/>
	<stop  offset="0.4938" style="stop-color:#686A6B"/>
	<stop  offset="1" style="stop-color:#414243"/>
</linearGradient>
<path class="st0" d="M17.6,117.1H124v1.3H17.6L17.6,117.1z"/>
<linearGradient id="SVGID_2_" gradientUnits="userSpaceOnUse" x1="-809.5236" y1="247.7915" x2="-800.2736" y2="247.7915" gradientTransform="matrix(11.7117 0 0 -1.3968 9497.5098 465.0887)">
	<stop  offset="0" style="stop-color:#414143"/>
	<stop  offset="0.4938" style="stop-color:#686A6B"/>
	<stop  offset="1" style="stop-color:#414243"/>
</linearGradient>
<path class="st1" d="M124.4,119.6H17.2c-0.3,0-0.6-0.3-0.6-0.6v0c0-0.3,0.3-0.6,0.6-0.6h107.2c0.3,0,0.6,0.3,0.6,0.6v0
	C124.9,119.3,124.7,119.6,124.4,119.6z"/>
<linearGradient id="SVGID_3_" gradientUnits="userSpaceOnUse" x1="-22.9963" y1="246.9163" x2="78.3371" y2="246.9163" gradientTransform="matrix(1.05 0 0 -1.3968 41.7241 465.0887)">
	<stop  offset="0" style="stop-color:#414143"/>
	<stop  offset="0.4938" style="stop-color:#686A6B"/>
	<stop  offset="1" style="stop-color:#414243"/>
</linearGradient>
<path class="st2" d="M17.6,119.6H124v1.3H17.6L17.6,119.6z"/>
<linearGradient id="SVGID_4_" gradientUnits="userSpaceOnUse" x1="-809.5236" y1="246.0418" x2="-800.2736" y2="246.0418" gradientTransform="matrix(11.7117 0 0 -1.3968 9497.5098 465.0887)">
	<stop  offset="0" style="stop-color:#414143"/>
	<stop  offset="0.4938" style="stop-color:#686A6B"/>
	<stop  offset="1" style="stop-color:#414243"/>
</linearGradient>
<path class="st3" d="M124.4,122H17.2c-0.3,0-0.6-0.3-0.6-0.6v0c0-0.3,0.3-0.6,0.6-0.6h107.2c0.3,0,0.6,0.3,0.6,0.6v0
	C124.9,121.7,124.7,122,124.4,122z"/>
<linearGradient id="SVGID_5_" gradientUnits="userSpaceOnUse" x1="-22.9963" y1="245.1666" x2="78.3371" y2="245.1666" gradientTransform="matrix(1.05 0 0 -1.3968 41.7241 465.0887)">
	<stop  offset="0" style="stop-color:#414143"/>
	<stop  offset="0.4938" style="stop-color:#686A6B"/>
	<stop  offset="1" style="stop-color:#414243"/>
</linearGradient>
<path class="st4" d="M17.6,122H124v1.3H17.6L17.6,122z"/>
<linearGradient id="SVGID_6_" gradientUnits="userSpaceOnUse" x1="-809.5236" y1="244.2914" x2="-800.2736" y2="244.2914" gradientTransform="matrix(11.7117 0 0 -1.3968 9497.5098 465.0887)">
	<stop  offset="0" style="stop-color:#414143"/>
	<stop  offset="0.4938" style="stop-color:#686A6B"/>
	<stop  offset="1" style="stop-color:#414243"/>
</linearGradient>
<path class="st5" d="M124.4,124.4H17.2c-0.3,0-0.6-0.3-0.6-0.6v0c0-0.3,0.3-0.6,0.6-0.6h107.2c0.3,0,0.6,0.3,0.6,0.6v0
	C124.9,124.2,124.7,124.4,124.4,124.4z"/>
<linearGradient id="SVGID_7_" gradientUnits="userSpaceOnUse" x1="-22.9963" y1="243.4162" x2="78.3371" y2="243.4162" gradientTransform="matrix(1.05 0 0 -1.3968 41.7241 465.0887)">
	<stop  offset="0" style="stop-color:#414143"/>
	<stop  offset="0.4938" style="stop-color:#686A6B"/>
	<stop  offset="1" style="stop-color:#414243"/>
</linearGradient>
<path class="st6" d="M17.6,124.4H124v1.3H17.6L17.6,124.4z"/>
<linearGradient id="SVGID_8_" gradientUnits="userSpaceOnUse" x1="-809.5236" y1="242.5417" x2="-800.2736" y2="242.5417" gradientTransform="matrix(11.7117 0 0 -1.3968 9497.5098 465.0887)">
	<stop  offset="0" style="stop-color:#414143"/>
	<stop  offset="0.4938" style="stop-color:#686A6B"/>
	<stop  offset="1" style="stop-color:#414243"/>
</linearGradient>
<path class="st7" d="M124.4,126.9H17.2c-0.3,0-0.6-0.3-0.6-0.6v0c0-0.3,0.3-0.6,0.6-0.6h107.2c0.3,0,0.6,0.3,0.6,0.6v0
	C124.9,126.6,124.7,126.9,124.4,126.9z"/>
<linearGradient id="SVGID_9_" gradientUnits="userSpaceOnUse" x1="-22.9963" y1="241.6665" x2="78.3371" y2="241.6665" gradientTransform="matrix(1.05 0 0 -1.3968 41.7241 465.0887)">
	<stop  offset="0" style="stop-color:#414143"/>
	<stop  offset="0.4938" style="stop-color:#686A6B"/>
	<stop  offset="1" style="stop-color:#414243"/>
</linearGradient>
<path class="st8" d="M17.6,126.9H124v1.3H17.6L17.6,126.9z"/>
<linearGradient id="SVGID_10_" gradientUnits="userSpaceOnUse" x1="-809.5236" y1="240.792" x2="-800.2736" y2="240.792" gradientTransform="matrix(11.7117 0 0 -1.3968 9497.5098 465.0887)">
	<stop  offset="0" style="stop-color:#414143"/>
	<stop  offset="0.4938" style="stop-color:#686A6B"/>
	<stop  offset="1" style="stop-color:#414243"/>
</linearGradient>
<path class="st9" d="M124.4,129.3H17.2c-0.3,0-0.6-0.3-0.6-0.6v0c0-0.3,0.3-0.6,0.6-0.6h107.2c0.3,0,0.6,0.3,0.6,0.6v0
	C124.9,129.1,124.7,129.3,124.4,129.3z"/>
<linearGradient id="SVGID_11_" gradientUnits="userSpaceOnUse" x1="-22.9963" y1="239.9167" x2="78.3371" y2="239.9167" gradientTransform="matrix(1.05 0 0 -1.3968 41.7241 465.0887)">
	<stop  offset="0" style="stop-color:#414143"/>
	<stop  offset="0.4938" style="stop-color:#686A6B"/>
	<stop  offset="1" style="stop-color:#414243"/>
</linearGradient>
<path class="st10" d="M17.6,129.3H124v1.3H17.6L17.6,129.3z"/>
<linearGradient id="SVGID_12_" gradientUnits="userSpaceOnUse" x1="-809.5236" y1="239.0415" x2="-800.2736" y2="239.0415" gradientTransform="matrix(11.7117 0 0 -1.3968 9497.5098 465.0887)">
	<stop  offset="0" style="stop-color:#414143"/>
	<stop  offset="0.4938" style="stop-color:#686A6B"/>
	<stop  offset="1" style="stop-color:#414243"/>
</linearGradient>
<path class="st11" d="M124.4,131.8H17.2c-0.3,0-0.6-0.3-0.6-0.6v0c0-0.3,0.3-0.6,0.6-0.6h107.2c0.3,0,0.6,0.3,0.6,0.6v0
	C124.9,131.5,124.7,131.8,124.4,131.8z"/>
<linearGradient id="SVGID_13_" gradientUnits="userSpaceOnUse" x1="-22.9963" y1="238.1663" x2="78.3371" y2="238.1663" gradientTransform="matrix(1.05 0 0 -1.3968 41.7241 465.0887)">
	<stop  offset="0" style="stop-color:#414143"/>
	<stop  offset="0.4938" style="stop-color:#686A6B"/>
	<stop  offset="1" style="stop-color:#414243"/>
</linearGradient>
<path class="st12" d="M17.6,131.8H124v1.3H17.6L17.6,131.8z"/>
<linearGradient id="SVGID_14_" gradientUnits="userSpaceOnUse" x1="-809.5236" y1="237.2918" x2="-800.2736" y2="237.2918" gradientTransform="matrix(11.7117 0 0 -1.3968 9497.5098 465.0887)">
	<stop  offset="0" style="stop-color:#414143"/>
	<stop  offset="0.4938" style="stop-color:#686A6B"/>
	<stop  offset="1" style="stop-color:#414243"/>
</linearGradient>
<path class="st13" d="M124.4,134.2H17.2c-0.3,0-0.6-0.3-0.6-0.6v0c0-0.3,0.3-0.6,0.6-0.6h107.2c0.3,0,0.6,0.3,0.6,0.6v0
	C124.9,134,124.7,134.2,124.4,134.2z"/>
<path class="st14" d="M34.1,21.8h73.4v73.4H34.1V21.8z"/>
<g>
	<path class="st15" d="M127.1,0H14.4C6.5,0,0,6.5,0,14.4v88.2c0,8,6.5,14.4,14.4,14.4v0h112.7c8,0,14.4-6.5,14.4-14.4V14.4
		C141.6,6.5,135.1,0,127.1,0z M131.6,99.2c0,4.4-3.5,7.9-7.9,7.9H17.9c-4.4,0-7.9-3.5-7.9-7.9V17.9c0-4.4,3.5-7.9,7.9-7.9h105.8
		c4.4,0,7.9,3.5,7.9,7.9V99.2z"/>
	<path class="st16" d="M123.7,10H17.9c-4.4,0-7.9,3.5-7.9,7.9v81.3c0,4.4,3.5,7.9,7.9,7.9h105.8c4.4,0,7.9-3.5,7.9-7.9V17.9
		C131.6,13.5,128,10,123.7,10z M107.5,95.3H34.1V21.8h73.4V95.3z"/>
</g>
<path class="st17" d="M13.1,17.5H44"/>
<path class="st17" d="M97.5,17.5h30.9"/>
<g>
	<path class="st18" d="M48.4,16.4c0.1,0,0.1,0,0.1,0.1v3h-0.3c0,0-0.1,0-0.1,0s0,0,0-0.1v-1.3h-1v1.4h-0.3c-0.1,0-0.1,0-0.1-0.1v-3
		H47c0,0,0.1,0,0.1,0s0,0,0,0.1v1.2h1v-1.3H48.4z"/>
	<path class="st18" d="M49.2,19.5c-0.1,0-0.1,0-0.1-0.1v-3h0.3c0.1,0,0.1,0,0.1,0.1v3H49.2z"/>
	<path class="st18" d="M51.8,17.9c0.1,0,0.1,0,0.1,0.1v1.5c-0.1,0-0.2,0.1-0.3,0.1c-0.1,0-0.3,0-0.4,0c-0.2,0-0.4,0-0.5-0.1
		s-0.3-0.2-0.3-0.3c-0.1-0.1-0.2-0.3-0.2-0.5S50,18.2,50,17.9c0-0.3,0-0.6,0.1-0.8s0.1-0.4,0.2-0.5c0.1-0.1,0.2-0.2,0.3-0.3
		c0.1-0.1,0.3-0.1,0.5-0.1c0.1,0,0.3,0,0.4,0c0.1,0,0.2,0,0.2,0.1c0,0,0.1,0,0.1,0.1s0,0.1,0,0.1v0.2c-0.1,0-0.2,0-0.3,0
		c-0.1,0-0.2,0-0.3,0c-0.1,0-0.3,0-0.3,0c-0.1,0-0.2,0.1-0.2,0.2s-0.1,0.2-0.1,0.4c0,0.2,0,0.4,0,0.6c0,0.3,0,0.5,0,0.6
		c0,0.2,0.1,0.3,0.1,0.4s0.1,0.1,0.2,0.2s0.2,0,0.3,0c0.1,0,0.1,0,0.2,0c0.1,0,0.1,0,0.1,0v-0.9h-0.3c0,0,0,0-0.1,0s0,0,0-0.1v-0.3
		L51.8,17.9L51.8,17.9z"/>
	<path class="st18" d="M54.2,16.4c0.1,0,0.1,0,0.1,0.1v3h-0.3c0,0-0.1,0-0.1,0s0,0,0-0.1v-1.3h-1v1.4h-0.3c-0.1,0-0.1,0-0.1-0.1v-3
		h0.3c0,0,0.1,0,0.1,0s0,0,0,0.1v1.2h1v-1.3H54.2z"/>
	<path class="st18" d="M57.6,17.9c0,0.2,0,0.4,0,0.5c0,0.2,0,0.3-0.1,0.4s-0.1,0.2-0.1,0.3c-0.1,0.1-0.1,0.1-0.2,0.2
		c0.1,0.1,0.1,0.2,0.2,0.3c0.1,0.1,0.2,0.3,0.2,0.4h-0.4c0,0-0.1,0-0.1,0s0,0-0.1-0.1c0-0.1-0.1-0.2-0.1-0.2s-0.1-0.2-0.1-0.2
		c0,0-0.1,0-0.1,0s-0.1,0-0.1,0c-0.2,0-0.3,0-0.4-0.1s-0.2-0.1-0.3-0.2s-0.2-0.3-0.2-0.5c0-0.2-0.1-0.5-0.1-0.8c0-0.3,0-0.6,0.1-0.8
		c0-0.2,0.1-0.4,0.2-0.5s0.2-0.2,0.3-0.2s0.3-0.1,0.4-0.1s0.3,0,0.4,0.1c0.1,0,0.2,0.1,0.3,0.2c0.1,0.1,0.2,0.3,0.2,0.5
		C57.6,17.3,57.6,17.6,57.6,17.9z M56,17.9c0,0.2,0,0.4,0,0.6s0,0.3,0.1,0.4s0.1,0.2,0.2,0.2s0.2,0.1,0.3,0.1s0.2,0,0.3-0.1
		s0.1-0.1,0.2-0.2s0.1-0.2,0.1-0.4c0-0.2,0-0.3,0-0.6s0-0.4,0-0.6s0-0.3-0.1-0.4s-0.1-0.2-0.2-0.2s-0.2-0.1-0.3-0.1s-0.2,0-0.3,0.1
		c-0.1,0-0.1,0.1-0.2,0.2s-0.1,0.2-0.1,0.4C56,17.5,56,17.7,56,17.9z"/>
	<path class="st18" d="M60,18.4c0,0.4-0.1,0.7-0.2,0.9s-0.4,0.3-0.7,0.3c-0.2,0-0.3,0-0.4-0.1s-0.2-0.1-0.3-0.2
		c-0.1-0.1-0.1-0.2-0.2-0.4c0-0.1-0.1-0.3-0.1-0.6v-2h0.3c0.1,0,0.1,0,0.1,0.1v2c0,0.1,0,0.2,0,0.3s0,0.2,0.1,0.2
		c0,0.1,0.1,0.1,0.2,0.1c0.1,0,0.2,0,0.3,0c0.1,0,0.2,0,0.3,0c0.1,0,0.1-0.1,0.2-0.1s0.1-0.1,0.1-0.2s0-0.2,0-0.3v-2.1h0.3
		c0,0,0.1,0,0.1,0s0,0,0,0.1L60,18.4L60,18.4z"/>
	<path class="st18" d="M61.9,19.4c0-0.1,0-0.3-0.1-0.4c0-0.1,0-0.2-0.1-0.4h-0.9c0,0.1-0.1,0.3-0.1,0.4s0,0.3-0.1,0.4h-0.3
		c-0.1,0-0.1,0-0.1-0.1c0-0.1,0-0.2,0-0.3c0-0.3,0.1-0.6,0.2-0.8c0.1-0.3,0.1-0.5,0.2-0.7s0.1-0.4,0.2-0.6c0.1-0.2,0.1-0.4,0.2-0.5
		h0.4c0,0,0.1,0,0.1,0c0,0,0,0,0,0.1c0.1,0.2,0.1,0.3,0.2,0.5c0.1,0.2,0.1,0.4,0.2,0.7c0.1,0.3,0.1,0.5,0.2,0.8
		c0.1,0.3,0.1,0.6,0.2,0.9H62C61.9,19.5,61.9,19.5,61.9,19.4z M61.3,16.8c-0.1,0.2-0.1,0.4-0.2,0.7S61,18,60.9,18.3h0.8
		c-0.1-0.3-0.1-0.6-0.2-0.8C61.4,17.2,61.4,17,61.3,16.8z"/>
	<path class="st18" d="M62.8,19.5c-0.1,0-0.1,0-0.1-0.1v-3H63c0,0,0.1,0,0.1,0s0,0,0,0.1v2.6h1c0.1,0,0.1,0,0.1,0.1v0.3L62.8,19.5z"
		/>
	<path class="st18" d="M64.7,19.5c-0.1,0-0.1,0-0.1-0.1v-3h0.3c0.1,0,0.1,0,0.1,0.1v3H64.7z"/>
	<path class="st18" d="M66.2,16.8h-0.6c-0.1,0-0.1,0-0.1-0.1v-0.3h1.8c0,0,0.1,0,0.1,0s0,0,0,0.1v0.3h-0.7v2.7h-0.3
		c-0.1,0-0.1,0-0.1-0.1L66.2,16.8z"/>
	<path class="st18" d="M68.4,19.5c-0.1,0-0.1,0-0.1-0.1v-1.1c-0.1-0.2-0.2-0.3-0.3-0.5c-0.1-0.2-0.1-0.3-0.2-0.5s-0.1-0.3-0.2-0.5
		c-0.1-0.2-0.1-0.3-0.1-0.5h0.4c0,0,0.1,0,0.1,0c0,0,0,0,0,0.1c0,0.1,0.1,0.2,0.1,0.3s0.1,0.2,0.1,0.3c0,0.1,0.1,0.2,0.1,0.4
		c0.1,0.1,0.1,0.3,0.2,0.4c0.1-0.1,0.1-0.3,0.2-0.4c0.1-0.1,0.1-0.3,0.2-0.4c0-0.1,0.1-0.3,0.1-0.4s0.1-0.2,0.1-0.3h0.3
		c0,0,0.1,0,0.1,0c0,0,0,0.1,0,0.1c0,0.2-0.1,0.3-0.1,0.5s-0.1,0.3-0.2,0.4c-0.1,0.1-0.1,0.3-0.2,0.4c-0.1,0.1-0.1,0.3-0.2,0.4v1.2
		L68.4,19.5L68.4,19.5z"/>
	<path class="st18" d="M70.6,17.2c0-0.3,0.1-0.5,0.2-0.6c0.1-0.1,0.4-0.2,0.7-0.2c0.1,0,0.2,0,0.3,0s0.2,0,0.3,0.1
		c0,0,0.1,0,0.1,0.1c0,0,0,0.1,0,0.1v0.2c-0.1,0-0.2,0-0.3,0c-0.1,0-0.2,0-0.3,0c-0.1,0-0.2,0-0.3,0c-0.1,0-0.1,0-0.2,0.1
		s-0.1,0.1-0.1,0.1s0,0.1,0,0.2c0,0.1,0,0.1,0,0.2s0.1,0.1,0.1,0.1s0.1,0.1,0.2,0.1c0.1,0,0.2,0.1,0.3,0.1c0.1,0,0.2,0.1,0.3,0.1
		c0.1,0,0.2,0.1,0.2,0.2s0.1,0.1,0.1,0.2s0.1,0.2,0.1,0.4c0,0.3-0.1,0.6-0.2,0.7c-0.2,0.1-0.4,0.2-0.7,0.2c-0.1,0-0.3,0-0.4,0
		c-0.1,0-0.2,0-0.3-0.1c0,0-0.1,0-0.1-0.1c0,0,0-0.1,0-0.1v-0.2c0.1,0,0.2,0,0.3,0s0.2,0,0.4,0c0.1,0,0.2,0,0.3,0s0.1-0.1,0.2-0.1
		c0,0,0.1-0.1,0.1-0.1s0-0.1,0-0.2c0-0.1,0-0.2,0-0.2c0-0.1,0-0.1-0.1-0.1c0,0-0.1-0.1-0.2-0.1c-0.1,0-0.2-0.1-0.3-0.1
		c-0.1,0-0.2-0.1-0.3-0.1c-0.1,0-0.2-0.1-0.2-0.2c-0.1-0.1-0.1-0.1-0.1-0.2C70.6,17.4,70.6,17.3,70.6,17.2L70.6,17.2z"/>
	<path class="st18" d="M73.3,16.8h-0.6c-0.1,0-0.1,0-0.1-0.1v-0.3h1.8c0,0,0.1,0,0.1,0s0,0,0,0.1v0.3h-0.7v2.7h-0.3
		c-0.1,0-0.1,0-0.1-0.1L73.3,16.8z"/>
	<path class="st18" d="M76.3,16.4c0.1,0,0.1,0,0.1,0.1v0.3h-1.2v1h1c0.1,0,0.1,0,0.1,0.1v0.3h-1.1v1h1.1c0,0,0.1,0,0.1,0s0,0,0,0.1
		v0.3H75c-0.1,0-0.1,0-0.1-0.1v-3L76.3,16.4L76.3,16.4z"/>
	<path class="st18" d="M77,19.5c-0.1,0-0.1,0-0.1-0.1v-3c0.1,0,0.3,0,0.4-0.1c0.1,0,0.3,0,0.4,0c0.3,0,0.6,0.1,0.7,0.2
		c0.1,0.2,0.2,0.4,0.2,0.7c0,0.2,0,0.4-0.1,0.5s-0.2,0.2-0.4,0.3c0.1,0.1,0.1,0.2,0.2,0.3c0.1,0.1,0.1,0.2,0.2,0.4s0.1,0.2,0.2,0.4
		c0,0.1,0.1,0.2,0.1,0.3h-0.4c0,0-0.1,0-0.1,0c0,0,0,0,0-0.1c0-0.1-0.1-0.2-0.1-0.3c0-0.1-0.1-0.2-0.1-0.3c-0.1-0.1-0.1-0.2-0.2-0.3
		s-0.1-0.2-0.2-0.3h-0.4v1.2L77,19.5L77,19.5z M77.4,17.9h0.4c0.1,0,0.1,0,0.2,0s0.1,0,0.2-0.1s0.1-0.1,0.1-0.2c0-0.1,0-0.2,0-0.3
		s0-0.2,0-0.3c0-0.1-0.1-0.1-0.1-0.2s-0.1-0.1-0.2-0.1c-0.1,0-0.1,0-0.2,0c-0.1,0-0.2,0-0.2,0s-0.1,0-0.2,0L77.4,17.9z"/>
	<path class="st18" d="M80.7,16.4c0.1,0,0.1,0,0.1,0.1v0.3h-1.2v1h1c0.1,0,0.1,0,0.1,0.1v0.3h-1.1v1h1.1c0,0,0.1,0,0.1,0s0,0,0,0.1
		v0.3h-1.5c-0.1,0-0.1,0-0.1-0.1v-3L80.7,16.4L80.7,16.4z"/>
	<path class="st18" d="M83.2,17.9c0,0.3,0,0.6-0.1,0.8c0,0.2-0.1,0.4-0.2,0.5s-0.2,0.2-0.3,0.2s-0.3,0.1-0.4,0.1s-0.3,0-0.4-0.1
		c-0.1,0-0.2-0.1-0.3-0.2s-0.2-0.3-0.2-0.5c0-0.2-0.1-0.5-0.1-0.8c0-0.3,0-0.6,0.1-0.8c0-0.2,0.1-0.4,0.2-0.5s0.2-0.2,0.3-0.2
		s0.3-0.1,0.4-0.1s0.3,0,0.4,0.1c0.1,0,0.2,0.1,0.3,0.2c0.1,0.1,0.2,0.3,0.2,0.5C83.2,17.3,83.2,17.6,83.2,17.9z M81.6,17.9
		c0,0.2,0,0.4,0,0.6s0,0.3,0.1,0.4s0.1,0.2,0.2,0.2s0.2,0.1,0.3,0.1s0.2,0,0.3-0.1s0.1-0.1,0.2-0.2s0.1-0.2,0.1-0.4
		c0-0.2,0-0.3,0-0.6s0-0.4,0-0.6s-0.1-0.3-0.1-0.4s-0.1-0.2-0.2-0.2s-0.2-0.1-0.3-0.1s-0.2,0-0.3,0.1c-0.1,0-0.1,0.1-0.2,0.2
		s-0.1,0.2-0.1,0.4C81.6,17.5,81.6,17.7,81.6,17.9z"/>
	<path class="st18" d="M84.5,17.2c0-0.3,0.1-0.5,0.2-0.6c0.1-0.1,0.4-0.2,0.7-0.2c0.1,0,0.2,0,0.3,0s0.2,0,0.3,0.1
		c0,0,0.1,0,0.1,0.1c0,0,0,0.1,0,0.1v0.2c-0.1,0-0.2,0-0.3,0c-0.1,0-0.2,0-0.3,0c-0.1,0-0.2,0-0.3,0c-0.1,0-0.1,0-0.2,0.1
		s-0.1,0.1-0.1,0.1s0,0.1,0,0.2c0,0.1,0,0.1,0,0.2s0.1,0.1,0.1,0.1s0.1,0.1,0.2,0.1c0.1,0,0.2,0.1,0.3,0.1c0.1,0,0.2,0.1,0.3,0.1
		c0.1,0,0.2,0.1,0.2,0.2s0.1,0.1,0.1,0.2s0.1,0.2,0.1,0.4c0,0.3-0.1,0.6-0.2,0.7c-0.2,0.1-0.4,0.2-0.7,0.2c-0.1,0-0.3,0-0.4,0
		c-0.1,0-0.2,0-0.3-0.1c0,0-0.1,0-0.1-0.1c0,0,0-0.1,0-0.1v-0.2c0.1,0,0.2,0,0.3,0s0.2,0,0.4,0c0.1,0,0.2,0,0.3,0s0.1-0.1,0.2-0.1
		c0,0,0.1-0.1,0.1-0.1s0-0.1,0-0.2c0-0.1,0-0.2,0-0.2c0-0.1,0-0.1-0.1-0.1c0,0-0.1-0.1-0.2-0.1c-0.1,0-0.2-0.1-0.3-0.1
		c-0.1,0-0.2-0.1-0.3-0.1c-0.1,0-0.2-0.1-0.2-0.2c-0.1-0.1-0.1-0.1-0.1-0.2C84.5,17.4,84.5,17.3,84.5,17.2L84.5,17.2z"/>
	<path class="st18" d="M88.6,17.9c0,0.3,0,0.6-0.1,0.8c0,0.2-0.1,0.4-0.2,0.5s-0.2,0.2-0.3,0.2s-0.3,0.1-0.4,0.1s-0.3,0-0.4-0.1
		s-0.2-0.1-0.3-0.2s-0.2-0.3-0.2-0.5c0-0.2-0.1-0.5-0.1-0.8c0-0.3,0-0.6,0.1-0.8c0-0.2,0.1-0.4,0.2-0.5s0.2-0.2,0.3-0.2
		s0.3-0.1,0.4-0.1s0.3,0,0.4,0.1c0.1,0,0.2,0.1,0.3,0.2c0.1,0.1,0.2,0.3,0.2,0.5C88.6,17.3,88.6,17.6,88.6,17.9z M87,17.9
		c0,0.2,0,0.4,0,0.6s0,0.3,0.1,0.4s0.1,0.2,0.2,0.2s0.2,0.1,0.3,0.1s0.2,0,0.3-0.1S88,19,88,18.9s0.1-0.2,0.1-0.4c0-0.2,0-0.3,0-0.6
		s0-0.4,0-0.6S88.1,17.1,88,17c0-0.1-0.1-0.2-0.2-0.2s-0.2-0.1-0.3-0.1s-0.2,0-0.3,0.1c-0.1,0-0.1,0.1-0.2,0.2s-0.1,0.2-0.1,0.4
		C87,17.5,87,17.7,87,17.9z"/>
	<path class="st18" d="M90.9,18.4c0,0.4-0.1,0.7-0.2,0.9s-0.4,0.3-0.7,0.3c-0.2,0-0.3,0-0.4-0.1s-0.2-0.1-0.3-0.2
		c-0.1-0.1-0.1-0.2-0.2-0.4c0-0.1-0.1-0.3-0.1-0.6v-2h0.3c0.1,0,0.1,0,0.1,0.1v2c0,0.1,0,0.2,0,0.3s0,0.2,0.1,0.2
		c0,0.1,0.1,0.1,0.2,0.1c0.1,0,0.2,0,0.3,0c0.1,0,0.2,0,0.3,0c0.1,0,0.1-0.1,0.2-0.1s0.1-0.1,0.1-0.2s0-0.2,0-0.3v-2.1h0.3
		c0,0,0.1,0,0.1,0s0,0,0,0.1L90.9,18.4L90.9,18.4z"/>
	<path class="st18" d="M93.4,19.5h-0.3c0,0-0.1,0-0.1-0.1c0-0.1-0.1-0.2-0.2-0.4c-0.1-0.1-0.1-0.3-0.2-0.4s-0.1-0.3-0.2-0.4
		c-0.1-0.1-0.1-0.3-0.2-0.4c-0.1-0.1-0.1-0.3-0.2-0.4c-0.1-0.1-0.1-0.2-0.1-0.3v2.4h-0.3c-0.1,0-0.1,0-0.1-0.1v-3h0.3
		c0,0,0.1,0,0.1,0s0,0,0,0.1c0,0.1,0.1,0.2,0.1,0.3c0.1,0.1,0.1,0.2,0.2,0.3s0.1,0.3,0.2,0.4s0.1,0.3,0.2,0.4
		c0.1,0.1,0.1,0.3,0.2,0.4s0.1,0.2,0.2,0.4v-2.3h0.3c0.1,0,0.1,0,0.1,0.1L93.4,19.5L93.4,19.5z"/>
	<path class="st18" d="M94.1,19.5c-0.1,0-0.1,0-0.1-0.1v-3c0.1,0,0.1,0,0.2,0c0.1,0,0.1,0,0.2,0s0.1,0,0.2,0s0.1,0,0.2,0
		c0.2,0,0.4,0,0.5,0.1c0.1,0.1,0.3,0.1,0.3,0.3s0.2,0.3,0.2,0.5s0.1,0.4,0.1,0.7c0,0.3,0,0.5-0.1,0.7c0,0.2-0.1,0.4-0.2,0.5
		c-0.1,0.1-0.2,0.2-0.3,0.3c-0.1,0.1-0.3,0.1-0.5,0.1L94.1,19.5L94.1,19.5z M94.8,16.7c-0.1,0-0.1,0-0.2,0s-0.1,0-0.2,0v2.4h0.4
		c0.1,0,0.2,0,0.3,0c0.1,0,0.2-0.1,0.2-0.2s0.1-0.2,0.1-0.4c0-0.2,0-0.4,0-0.6c0-0.2,0-0.4,0-0.6S95.4,17,95.3,17s-0.1-0.1-0.2-0.2
		C95,16.7,94.9,16.7,94.8,16.7z"/>
</g>
<radialGradient id="SVGID_15_" cx="115.903" cy="175.181" r="1.708" gradientTransform="matrix(1 0 0 -1 0 240)" gradientUnits="userSpaceOnUse">
	<stop  offset="0" style="stop-color:#EC7BAA"/>
	<stop  offset="0.44" style="stop-color:#ED578F"/>
	<stop  offset="0.7896" style="stop-color:#ED3981"/>
	<stop  offset="1" style="stop-color:#EE2A7B"/>
</radialGradient>
<circle class="st19" cx="115.9" cy="64.8" r="1.7"/>
<path class="st20" d="M84.4,238.7H57.1c-27.1,0-49-21.9-49-49v-49.3c0-3.4,2.7-6.1,6.1-6.1h113.1c3.4,0,6.1,2.7,6.1,6.1v49.3
	C133.4,216.7,111.5,238.7,84.4,238.7L84.4,238.7z"/>
<path class="st21" d="M82.8,233.4H58.7c-24.3,0-43.9-19.7-43.9-43.9V145c0-3,2.5-5.5,5.5-5.5h101c3,0,5.5,2.5,5.5,5.5v44.6
	C126.8,213.8,107.1,233.4,82.8,233.4z"/>
<path class="st22" d="M8.1,165.8h6.7v23.7c0,24.3,19.7,43.9,43.9,43.9h24.1c24.3,0,43.9-19.7,43.9-43.9v-23.7h6.7"/>
<path class="st23" d="M76.8,208h1.5v-4.7L82,208h1.1v-7.2h-1.5v4.8l-3.8-4.8h-1.1L76.8,208z"/>
<path class="st24" d="M72.7,203l2.6,5h-5.2L72.7,203z"/>
<path class="st23" d="M69.1,204.8c0,0.9,0.3,1.8,0.8,2.5l0.9-1.7c-0.1-0.3-0.1-0.5-0.1-0.8c0-1.3,0.9-2.3,2-2.3c1.1,0,2,1,2,2.3
	c0,0.3,0,0.5-0.1,0.8l0.9,1.8c0.5-0.7,0.8-1.5,0.8-2.4c0-2.1-1.6-3.9-3.6-3.9C70.7,200.9,69.1,202.6,69.1,204.8L69.1,204.8z"/>
<path class="st23" d="M67,200.9h1.5v7.2H67V200.9z"/>
<path class="st23" d="M28.3,205.9l-0.8,0.9c1.5,2,4.5,1.6,4.5-0.9c0-1.4-0.9-1.8-2.1-2.3c-1.8-0.7-0.4-2.4,1.1-1.1l0.7-0.9
	c-0.5-0.5-1.2-0.8-1.9-0.7c-1.3,0.1-2.1,0.8-2.1,2.1c0,2.2,3,1.7,3,3C30.7,207.2,29.1,207,28.3,205.9L28.3,205.9z"/>
<path class="st23" d="M59.6,200.9H61v7.2h-1.5V200.9z"/>
<path class="st23" d="M59.3,200.9h-1.6l-1.6,4.6l-1.6-4.6h-1.6l2.8,7.2h0.8L59.3,200.9z"/>
<path class="st23" d="M51.5,205.3c0.6-0.2,1.2-0.8,1.3-1.5c0-0.1,0.1-0.4,0.1-0.7s-0.1-0.6-0.1-0.7c-0.2-0.8-1.1-1.6-2-1.6h-2.4v7.2
	h1.5v-2.7H50l1.6,2.7h1.8L51.5,205.3z M50.4,204.1h-0.5v-2.1h0.5c0.6,0,1.1,0.4,1.1,1C51.5,203.7,51,204.1,50.4,204.1z"/>
<path class="st23" d="M43.8,200.9v7.2h3.8v-1.2h-2.3v-1.9h2.2v-1.2h-2.2v-1.6h2.2v-1.2H43.8z"/>
<path class="st23" d="M38.9,200.9v7.2h1.5v-2.7h1c0.9,0,1.7-0.7,1.8-1.6c0-0.1,0.1-0.4,0.1-0.7s-0.1-0.6-0.1-0.7
	c-0.2-0.8-1.1-1.6-2-1.6H38.9z M40.3,204.1v-2.1h0.5c0.6,0,1.1,0.4,1.1,1s-0.5,1.1-1.1,1.1H40.3z"/>
<path class="st23" d="M62.6,205.9l-0.8,0.9c1.5,2,4.5,1.6,4.5-0.9c0-1.4-0.9-1.8-2.1-2.3c-1.8-0.7-0.4-2.4,1.1-1.1l0.7-0.9
	c-0.5-0.5-1.2-0.8-1.9-0.7c-1.3,0.1-2.1,0.8-2.1,2.1c0,2.2,3,1.7,3,3C65,207.2,63.3,207,62.6,205.9L62.6,205.9z"/>
<path class="st23" d="M36.5,200.9v4.6c0,0.7-0.6,1.2-1.2,1.2c-0.7,0-1.2-0.6-1.2-1.2v-4.6h-1.5v4.5c0,1.5,1.2,2.7,2.7,2.7
	s2.7-1.2,2.7-2.7v-4.5H36.5z"/>
<path d="M85.1,201.1h-0.5v1.3h-0.4v-1.3h-0.5v-0.2h1.4V201.1z"/>
<path d="M87.3,202.4h-0.3v-1.3l-0.4,1.3h-0.3l-0.4-1.3v1.3h-0.3v-1.5H86l0.4,1.1l0.4-1.1h0.6L87.3,202.4L87.3,202.4z"/>
<radialGradient id="SVGID_16_" cx="83.819" cy="57.152" r="8.515" gradientTransform="matrix(1 0 0 -1 0 240)" gradientUnits="userSpaceOnUse">
	<stop  offset="0" style="stop-color:#54C5CD"/>
	<stop  offset="0.5364" style="stop-color:#54C3CB"/>
	<stop  offset="0.7296" style="stop-color:#52BDC5"/>
	<stop  offset="0.8668" style="stop-color:#4EB4BC"/>
	<stop  offset="0.9775" style="stop-color:#47A9B0"/>
	<stop  offset="1" style="stop-color:#45A6AD"/>
</radialGradient>
<circle class="st25" cx="83.8" cy="182.8" r="8.5"/>
<radialGradient id="SVGID_17_" cx="108.208" cy="70.347" r="8.515" gradientTransform="matrix(1 0 0 -1 0 240)" gradientUnits="userSpaceOnUse">
	<stop  offset="0" style="stop-color:#54C5CD"/>
	<stop  offset="0.5364" style="stop-color:#54C3CB"/>
	<stop  offset="0.7296" style="stop-color:#52BDC5"/>
	<stop  offset="0.8668" style="stop-color:#4EB4BC"/>
	<stop  offset="0.9775" style="stop-color:#47A9B0"/>
	<stop  offset="1" style="stop-color:#45A6AD"/>
</radialGradient>
<circle class="st26" cx="108.2" cy="169.7" r="8.5"/>
<linearGradient id="SVGID_18_" gradientUnits="userSpaceOnUse" x1="73.3105" y1="88.222" x2="73.3105" y2="91.972" gradientTransform="matrix(1 0 0 -1 0 240)">
	<stop  offset="0" style="stop-color:#000000"/>
	<stop  offset="0.3975" style="stop-color:#020202"/>
	<stop  offset="0.5406" style="stop-color:#0C0C0C"/>
	<stop  offset="0.6427" style="stop-color:#181718"/>
	<stop  offset="0.7253" style="stop-color:#222122"/>
	<stop  offset="0.796" style="stop-color:#292829"/>
	<stop  offset="0.8586" style="stop-color:#2B2829"/>
	<stop  offset="0.9152" style="stop-color:#292728"/>
	<stop  offset="0.9656" style="stop-color:#252424"/>
	<stop  offset="1" style="stop-color:#202021"/>
</linearGradient>
<path class="st27" d="M78.5,151.8H68.2c-1,0-1.9-0.8-1.9-1.9s0.8-1.9,1.9-1.9h10.3c1,0,1.9,0.8,1.9,1.9
	C80.3,150.9,79.5,151.8,78.5,151.8z"/>
<linearGradient id="SVGID_19_" gradientUnits="userSpaceOnUse" x1="97.9355" y1="88.222" x2="97.9355" y2="91.972" gradientTransform="matrix(1 0 0 -1 0 240)">
	<stop  offset="0" style="stop-color:#000000"/>
	<stop  offset="0.3975" style="stop-color:#020202"/>
	<stop  offset="0.5406" style="stop-color:#0C0C0C"/>
	<stop  offset="0.6427" style="stop-color:#181718"/>
	<stop  offset="0.7253" style="stop-color:#222122"/>
	<stop  offset="0.796" style="stop-color:#292829"/>
	<stop  offset="0.8586" style="stop-color:#2B2829"/>
	<stop  offset="0.9152" style="stop-color:#292728"/>
	<stop  offset="0.9656" style="stop-color:#252424"/>
	<stop  offset="1" style="stop-color:#202021"/>
</linearGradient>
<path class="st28" d="M103.1,151.8H92.8c-1,0-1.9-0.8-1.9-1.9s0.8-1.9,1.9-1.9h10.3c1,0,1.9,0.8,1.9,1.9
	C105,150.9,104.1,151.8,103.1,151.8z"/>
<linearGradient id="SVGID_20_" gradientUnits="userSpaceOnUse" x1="31.37" y1="54.632" x2="51.759" y2="75.021" gradientTransform="matrix(1 0 0 -1 0 240)">
	<stop  offset="0" style="stop-color:#000000"/>
	<stop  offset="0.1082" style="stop-color:#0B0A0B"/>
	<stop  offset="0.2712" style="stop-color:#1D1D1D"/>
	<stop  offset="0.4687" style="stop-color:#2A2829"/>
	<stop  offset="0.6931" style="stop-color:#2A2828"/>
	<stop  offset="0.9374" style="stop-color:#232223"/>
	<stop  offset="1" style="stop-color:#202021"/>
</linearGradient>
<path class="st29" d="M57.9,179.2l-12.3,12.3c-2.2,2.2-5.8,2.2-8.1,0l-12.3-12.3c-2.2-2.2-2.2-5.8,0-8.1l12.3-12.3
	c2.2-2.2,5.8-2.2,8.1,0l12.3,12.3C60.1,173.4,60.1,177,57.9,179.2z"/>
<linearGradient id="SVGID_21_" gradientUnits="userSpaceOnUse" x1="38.143" y1="64.8272" x2="44.986" y2="64.8272" gradientTransform="matrix(1 0 0 -1 0 240)">
	<stop  offset="0" style="stop-color:#000000"/>
	<stop  offset="0.3975" style="stop-color:#020202"/>
	<stop  offset="0.5406" style="stop-color:#0C0C0C"/>
	<stop  offset="0.6427" style="stop-color:#181718"/>
	<stop  offset="0.7253" style="stop-color:#222122"/>
	<stop  offset="0.796" style="stop-color:#292829"/>
	<stop  offset="0.8586" style="stop-color:#2B2829"/>
	<stop  offset="0.9152" style="stop-color:#292728"/>
	<stop  offset="0.9656" style="stop-color:#252424"/>
	<stop  offset="1" style="stop-color:#202021"/>
</linearGradient>
<path class="st30" d="M38.1,175.2V191c0,0.7,0.4,1.3,0.9,1.6c1.6,0.8,3.4,0.8,5,0c0.5-0.3,0.9-0.9,0.9-1.6v-15.8v-15.8
	c0-0.7-0.4-1.3-0.9-1.6c-1.6-0.8-3.4-0.8-5,0c-0.5,0.3-0.9,0.9-0.9,1.6V175.2z"/>
<linearGradient id="SVGID_22_" gradientUnits="userSpaceOnUse" x1="41.5648" y1="61.406" x2="41.5648" y2="68.249" gradientTransform="matrix(1 0 0 -1 0 240)">
	<stop  offset="0" style="stop-color:#000000"/>
	<stop  offset="0.3975" style="stop-color:#020202"/>
	<stop  offset="0.5406" style="stop-color:#0C0C0C"/>
	<stop  offset="0.6427" style="stop-color:#181718"/>
	<stop  offset="0.7253" style="stop-color:#222122"/>
	<stop  offset="0.796" style="stop-color:#292829"/>
	<stop  offset="0.8586" style="stop-color:#2B2829"/>
	<stop  offset="0.9152" style="stop-color:#292728"/>
	<stop  offset="0.9656" style="stop-color:#252424"/>
	<stop  offset="1" style="stop-color:#202021"/>
</linearGradient>
<path class="st31" d="M41.6,178.6h15.8c0.7,0,1.3-0.4,1.6-0.9c0.8-1.6,0.8-3.4,0-5c-0.3-0.5-0.9-0.9-1.6-0.9H41.6H25.8
	c-0.7,0-1.3,0.4-1.6,0.9c-0.8,1.6-0.8,3.4,0,5c0.3,0.5,0.9,0.9,1.6,0.9H41.6z"/>
<radialGradient id="SVGID_23_" cx="41.565" cy="64.827" r="4.2266" fx="44.3895" fy="61.6827" gradientTransform="matrix(1 0 0 -1 0 240)" gradientUnits="userSpaceOnUse">
	<stop  offset="7.080000e-02" style="stop-color:#1D1D1E"/>
	<stop  offset="0.8739" style="stop-color:#000000"/>
</radialGradient>
<circle class="st32" cx="41.6" cy="175.2" r="3.1"/>
<linearGradient id="SVGID_24_" gradientUnits="userSpaceOnUse" x1="105.972" y1="38.378" x2="105.972" y2="41.056" gradientTransform="matrix(1 0 0 -1 0 240)">
	<stop  offset="0" style="stop-color:#717774"/>
	<stop  offset="0.4887" style="stop-color:#737976"/>
	<stop  offset="0.6648" style="stop-color:#79807C"/>
	<stop  offset="0.7902" style="stop-color:#848B88"/>
	<stop  offset="0.891" style="stop-color:#969E9A"/>
	<stop  offset="0.9222" style="stop-color:#9FA8A4"/>
</linearGradient>
<path class="st33" d="M114.2,201.6H97.8c-0.7,0-1.3-0.6-1.3-1.3c0-0.7,0.6-1.3,1.3-1.3h16.4c0.7,0,1.3,0.6,1.3,1.3
	C115.5,201,114.9,201.6,114.2,201.6z"/>
<linearGradient id="SVGID_25_" gradientUnits="userSpaceOnUse" x1="102.43" y1="34.626" x2="102.43" y2="37.304" gradientTransform="matrix(1 0 0 -1 0 240)">
	<stop  offset="0" style="stop-color:#717774"/>
	<stop  offset="0.4887" style="stop-color:#737976"/>
	<stop  offset="0.6648" style="stop-color:#79807C"/>
	<stop  offset="0.7902" style="stop-color:#848B88"/>
	<stop  offset="0.891" style="stop-color:#969E9A"/>
	<stop  offset="0.9222" style="stop-color:#9FA8A4"/>
</linearGradient>
<path class="st34" d="M110.6,205.4H94.2c-0.7,0-1.3-0.6-1.3-1.3c0-0.7,0.6-1.3,1.3-1.3h16.4c0.7,0,1.3,0.6,1.3,1.3
	S111.4,205.4,110.6,205.4z"/>
<linearGradient id="SVGID_26_" gradientUnits="userSpaceOnUse" x1="98.889" y1="30.873" x2="98.889" y2="33.551" gradientTransform="matrix(1 0 0 -1 0 240)">
	<stop  offset="0" style="stop-color:#717774"/>
	<stop  offset="0.4887" style="stop-color:#737976"/>
	<stop  offset="0.6648" style="stop-color:#79807C"/>
	<stop  offset="0.7902" style="stop-color:#848B88"/>
	<stop  offset="0.891" style="stop-color:#969E9A"/>
	<stop  offset="0.9222" style="stop-color:#9FA8A4"/>
</linearGradient>
<path class="st35" d="M107.1,209.1H90.7c-0.7,0-1.3-0.6-1.3-1.3c0-0.7,0.6-1.3,1.3-1.3h16.4c0.7,0,1.3,0.6,1.3,1.3
	S107.8,209.1,107.1,209.1z"/>
<path class="st36" d="M91.9,155C91.9,155,91.9,155,91.9,155c-0.1,0-0.1,0.1-0.1,0.1s0,0.1,0,0.1s0,0.1,0,0.1c0,0,0,0,0.1,0.1
	s0.1,0,0.1,0c0,0,0.1,0,0.1,0h1c0.1,0,0.2,0,0.2,0s0.2,0.1,0.2,0.1c0.1,0,0.1,0.1,0.2,0.2c0,0.1,0.1,0.2,0.1,0.3s0,0.2-0.1,0.3
	s-0.1,0.1-0.2,0.2c-0.1,0-0.2,0.1-0.2,0.1s-0.2,0-0.2,0h-1.5c-0.1,0-0.1,0-0.2-0.1s-0.1-0.1-0.1-0.1s0-0.1,0.1-0.1
	c0,0,0.1-0.1,0.2-0.1H93c0,0,0.1,0,0.1,0c0,0,0.1,0,0.1,0c0,0,0,0,0.1-0.1c0,0,0-0.1,0-0.1s0-0.1,0-0.1c0,0,0,0-0.1-0.1
	c0,0-0.1,0-0.1,0c0,0-0.1,0-0.1,0h-1c-0.1,0-0.2,0-0.2,0s-0.2-0.1-0.2-0.1s-0.1-0.1-0.2-0.2c0-0.1-0.1-0.2-0.1-0.3s0-0.2,0.1-0.3
	s0.1-0.1,0.2-0.2c0.1,0,0.2-0.1,0.2-0.1s0.2,0,0.2,0h1.5c0.1,0,0.1,0,0.2,0.1c0,0,0.1,0.1,0.1,0.1s0,0.1-0.1,0.1s-0.1,0.1-0.2,0.1
	L91.9,155C92,155,92,155,91.9,155L91.9,155z"/>
<path class="st36" d="M96.4,154.7c0,0,0.1,0.1,0.1,0.1s0,0.1-0.1,0.1s-0.1,0.1-0.2,0.1h-0.7v1.3c0,0.1,0,0.1-0.1,0.1
	c0,0-0.1,0.1-0.2,0.1s-0.1,0-0.2-0.1c0,0-0.1-0.1-0.1-0.1V155h-0.7c-0.1,0-0.1,0-0.2-0.1s-0.1-0.1-0.1-0.1s0-0.1,0.1-0.1
	c0,0,0.1-0.1,0.2-0.1h2C96.3,154.6,96.4,154.6,96.4,154.7z"/>
<path class="st36" d="M98.7,154.7c0.1,0,0.2,0.1,0.2,0.1s0.1,0.1,0.2,0.2c0,0.1,0.1,0.2,0.1,0.3v1.1c0,0.1,0,0.1-0.1,0.1
	c0,0-0.1,0.1-0.2,0.1s-0.1,0-0.2-0.1s-0.1-0.1-0.1-0.1v-0.6h-1.5v0.6c0,0.1,0,0.1-0.1,0.1c0,0-0.1,0.1-0.2,0.1c-0.1,0-0.1,0-0.2-0.1
	s-0.1-0.1-0.1-0.1v-1.1c0-0.1,0-0.1,0-0.2s0.1-0.1,0.1-0.2s0.1-0.1,0.2-0.1c0.1,0,0.2-0.1,0.3-0.1h1
	C98.5,154.6,98.6,154.6,98.7,154.7L98.7,154.7z M98.7,155.4v-0.2c0,0,0-0.1,0-0.1c0,0,0,0-0.1-0.1c0,0-0.1,0-0.1,0c0,0-0.1,0-0.1,0
	h-1c0,0-0.1,0-0.1,0s-0.1,0-0.1,0c0,0,0,0,0,0.1s0,0,0,0.1v0.2L98.7,155.4L98.7,155.4z"/>
<path class="st36" d="M101.8,155.5c-0.1,0.1-0.1,0.1-0.2,0.2c0.1,0.1,0.2,0.2,0.2,0.3s0.1,0.2,0.1,0.4c0,0.1,0,0.1-0.1,0.1
	c0,0-0.1,0.1-0.2,0.1s-0.1,0-0.2-0.1s-0.1-0.1-0.1-0.1c0-0.1,0-0.2,0-0.2c0-0.1-0.1-0.1-0.1-0.2s-0.1-0.1-0.2-0.1
	c-0.1,0-0.1,0-0.2-0.1s-0.1,0-0.1,0c0,0-0.1,0-0.1,0h-0.7v0.6c0,0.1,0,0.1-0.1,0.1c0,0-0.1,0.1-0.2,0.1c-0.1,0-0.1,0-0.2-0.1
	s-0.1-0.1-0.1-0.1v-1.5c0-0.1,0-0.1,0.1-0.1c0,0,0.1-0.1,0.2-0.1h1.5c0.1,0,0.2,0,0.2,0c0.1,0,0.2,0.1,0.2,0.1s0.1,0.1,0.2,0.2
	c0,0.1,0.1,0.2,0.1,0.3C101.9,155.3,101.9,155.4,101.8,155.5L101.8,155.5z M101.2,155.4C101.2,155.4,101.2,155.4,101.2,155.4
	c0.1,0,0.1,0,0.2,0c0,0,0,0,0.1-0.1c0,0,0-0.1,0-0.1s0-0.1,0-0.1c0,0,0,0-0.1-0.1c0,0-0.1,0-0.1,0c0,0-0.1,0-0.1,0h-1.2v0.4
	L101.2,155.4L101.2,155.4z"/>
<path class="st36" d="M104.5,154.7c0,0,0.1,0.1,0.1,0.1s0,0.1-0.1,0.1s-0.1,0.1-0.2,0.1h-0.7v1.3c0,0.1,0,0.1-0.1,0.1
	c0,0-0.1,0.1-0.2,0.1s-0.1,0-0.2-0.1c0,0-0.1-0.1-0.1-0.1V155h-0.7c-0.1,0-0.1,0-0.2-0.1s-0.1-0.1-0.1-0.1s0-0.1,0.1-0.1
	c0,0,0.1-0.1,0.2-0.1h2C104.4,154.6,104.5,154.6,104.5,154.7z"/>
<path class="st36" d="M93.2,144.4c0.1,0,0.2,0.1,0.2,0.1s0.1,0.1,0.2,0.2c0,0.1,0.1,0.2,0.1,0.3s0,0.2-0.1,0.3
	c-0.1,0.1-0.1,0.1-0.2,0.2s-0.2,0.1-0.2,0.1s-0.2,0-0.2,0h-1.2v0.6c0,0.1,0,0.1-0.1,0.1c0,0-0.1,0.1-0.2,0.1c-0.1,0-0.1,0-0.2-0.1
	s-0.1-0.1-0.1-0.1v-1.5c0-0.1,0-0.1,0.1-0.1c0,0,0.1-0.1,0.2-0.1h1.5C93,144.3,93.1,144.3,93.2,144.4L93.2,144.4z M93,145.1
	C93,145.1,93.1,145.1,93,145.1c0.1,0,0.1-0.1,0.1-0.1c0,0,0-0.1,0-0.1s0-0.1,0-0.1c0,0,0,0-0.1-0.1c0,0-0.1,0-0.1,0c0,0-0.1,0-0.1,0
	h-1.2v0.4L93,145.1C92.9,145.1,93,145.1,93,145.1L93,145.1z"/>
<path class="st36" d="M95.9,144.4c0.1,0,0.2,0.1,0.2,0.1s0.1,0.1,0.2,0.2c0,0.1,0.1,0.2,0.1,0.3v1.1c0,0.1,0,0.1-0.1,0.1
	c0,0-0.1,0.1-0.2,0.1s-0.1,0-0.2-0.1s-0.1-0.1-0.1-0.1v-0.6h-1.5v0.6c0,0.1,0,0.1-0.1,0.1c0,0-0.1,0.1-0.2,0.1c-0.1,0-0.1,0-0.2-0.1
	s-0.1-0.1-0.1-0.1v-1.1c0-0.1,0-0.1,0-0.2s0.1-0.1,0.1-0.2s0.1-0.1,0.2-0.1c0.1,0,0.2-0.1,0.3-0.1h1
	C95.7,144.3,95.8,144.3,95.9,144.4L95.9,144.4z M95.9,145.1v-0.2c0,0,0-0.1,0-0.1c0,0,0,0-0.1-0.1c0,0-0.1,0-0.1,0c0,0-0.1,0-0.1,0
	h-1c0,0-0.1,0-0.1,0s-0.1,0-0.1,0c0,0,0,0,0,0.1s0,0,0,0.1v0.2L95.9,145.1L95.9,145.1z"/>
<path class="st36" d="M99.1,144.4c0,0,0.1,0.1,0.1,0.1v1.1c0,0.1,0,0.2-0.1,0.3s-0.1,0.1-0.2,0.2c-0.1,0-0.2,0.1-0.2,0.1
	s-0.2,0-0.2,0h-1c-0.1,0-0.3,0-0.3-0.1s-0.2-0.1-0.2-0.1s-0.1-0.1-0.1-0.2s0-0.1,0-0.2v-1.1c0-0.1,0-0.1,0.1-0.1
	c0,0,0.1-0.1,0.2-0.1c0.1,0,0.1,0,0.2,0.1s0.1,0.1,0.1,0.1v1.1c0,0,0,0,0,0.1c0,0,0,0,0,0.1s0,0,0.1,0s0.1,0,0.1,0h1
	c0,0,0.1,0,0.1,0c0,0,0.1,0,0.1,0c0,0,0,0,0.1-0.1c0,0,0-0.1,0-0.1v-1.1c0-0.1,0-0.1,0.1-0.1c0,0,0.1-0.1,0.2-0.1
	S99.1,144.4,99.1,144.4L99.1,144.4z"/>
<path class="st36" d="M100.1,144.7C100.1,144.7,100.1,144.7,100.1,144.7c-0.1,0-0.1,0.1-0.1,0.1s0,0.1,0,0.1s0,0.1,0,0.1
	c0,0,0,0,0.1,0.1s0.1,0,0.1,0c0,0,0.1,0,0.1,0h1c0.1,0,0.2,0,0.2,0s0.2,0.1,0.2,0.1c0.1,0,0.1,0.1,0.2,0.2c0,0.1,0.1,0.2,0.1,0.3
	s0,0.2-0.1,0.3s-0.1,0.1-0.2,0.2c-0.1,0-0.2,0.1-0.2,0.1s-0.2,0-0.2,0h-1.5c-0.1,0-0.1,0-0.2-0.1s-0.1-0.1-0.1-0.1s0-0.1,0.1-0.1
	c0,0,0.1-0.1,0.2-0.1h1.5c0,0,0.1,0,0.1,0c0,0,0.1,0,0.1,0c0,0,0,0,0.1-0.1c0,0,0-0.1,0-0.1s0-0.1,0-0.1c0,0,0,0-0.1-0.1
	c0,0-0.1,0-0.1,0c0,0-0.1,0-0.1,0h-1c-0.1,0-0.2,0-0.2,0s-0.2-0.1-0.2-0.1s-0.1-0.1-0.2-0.2c0-0.1-0.1-0.2-0.1-0.3s0-0.2,0.1-0.3
	s0.1-0.1,0.2-0.2c0.1,0,0.2-0.1,0.2-0.1s0.2,0,0.2,0h1.5c0.1,0,0.1,0,0.2,0.1c0,0,0.1,0.1,0.1,0.1s0,0.1-0.1,0.1s-0.1,0.1-0.2,0.1
	L100.1,144.7C100.2,144.7,100.1,144.7,100.1,144.7L100.1,144.7z"/>
<path class="st36" d="M102.8,144.7C102.8,144.7,102.8,144.8,102.8,144.7c-0.1,0.1-0.1,0.1-0.1,0.1s0,0,0,0.1v0.2h0.7
	c0.1,0,0.1,0,0.2,0.1c0,0,0.1,0.1,0.1,0.1s0,0.1-0.1,0.1c0,0-0.1,0.1-0.2,0.1h-0.7v0.2c0,0,0,0.1,0,0.1s0,0,0.1,0.1c0,0,0.1,0,0.1,0
	c0,0,0.1,0,0.1,0h1.5c0.1,0,0.1,0,0.2,0.1c0,0,0.1,0.1,0.1,0.1s0,0.1-0.1,0.1c0,0-0.1,0.1-0.2,0.1H103c-0.1,0-0.2,0-0.2,0
	s-0.2-0.1-0.2-0.1c-0.1,0-0.1-0.1-0.2-0.2s-0.1-0.2-0.1-0.3v-0.8c0-0.1,0-0.1,0-0.2s0.1-0.1,0.1-0.2s0.1-0.1,0.2-0.1
	c0.1,0,0.2-0.1,0.3-0.1h1.5c0.1,0,0.1,0,0.2,0.1c0,0,0.1,0.1,0.1,0.1s0,0.1-0.1,0.1s-0.1,0.1-0.2,0.1h-1.5
	C102.9,144.7,102.9,144.7,102.8,144.7L102.8,144.7z"/>
<path class="st36" d="M66.4,154.4C66.4,154.4,66.3,154.4,66.4,154.4c-0.1,0-0.1,0.1-0.1,0.1c0,0,0,0.1,0,0.1s0,0.1,0,0.1
	c0,0,0,0,0.1,0.1s0,0,0.1,0s0.1,0,0.1,0h0.9c0.1,0,0.1,0,0.2,0s0.2,0.1,0.2,0.1c0.1,0,0.1,0.1,0.2,0.2c0,0.1,0.1,0.2,0.1,0.3
	s0,0.2-0.1,0.3s-0.1,0.1-0.2,0.2c-0.1,0-0.1,0.1-0.2,0.1c-0.1,0-0.2,0-0.2,0H66c-0.1,0-0.1,0-0.2-0.1s-0.1-0.1-0.1-0.1
	s0-0.1,0.1-0.1c0,0,0.1-0.1,0.2-0.1h1.4c0,0,0.1,0,0.1,0s0.1,0,0.1,0c0,0,0,0,0.1-0.1s0-0.1,0-0.1s0-0.1,0-0.1s0,0-0.1-0.1
	c0,0,0,0-0.1,0s-0.1,0-0.1,0h-0.9c-0.1,0-0.1,0-0.2,0s-0.2-0.1-0.2-0.1s-0.1-0.1-0.2-0.2c0-0.1-0.1-0.2-0.1-0.3s0-0.2,0.1-0.3
	s0.1-0.1,0.2-0.2c0.1,0,0.1-0.1,0.2-0.1s0.2,0,0.2,0h1.4c0.1,0,0.1,0,0.2,0.1s0.1,0.1,0.1,0.1s0,0.1-0.1,0.1s-0.1,0.1-0.2,0.1
	L66.4,154.4C66.5,154.4,66.4,154.4,66.4,154.4L66.4,154.4z"/>
<path class="st36" d="M68.9,154.4C68.9,154.4,68.9,154.5,68.9,154.4c-0.1,0.1-0.1,0.1-0.1,0.1c0,0,0,0,0,0.1v0.2h0.7
	c0.1,0,0.1,0,0.2,0.1s0.1,0.1,0.1,0.1s0,0.1-0.1,0.1c0,0-0.1,0.1-0.2,0.1h-0.7v0.2c0,0,0,0.1,0,0.1s0,0,0.1,0.1c0,0,0,0,0.1,0
	s0.1,0,0.1,0h1.4c0.1,0,0.1,0,0.2,0.1s0.1,0.1,0.1,0.1s0,0.1-0.1,0.1s-0.1,0.1-0.2,0.1H69c-0.1,0-0.1,0-0.2,0s-0.2-0.1-0.2-0.1
	c-0.1,0-0.1-0.1-0.2-0.2s-0.1-0.2-0.1-0.3v-0.8c0-0.1,0-0.1,0-0.2c0-0.1,0.1-0.1,0.1-0.2s0.1-0.1,0.2-0.1c0.1,0,0.2-0.1,0.3-0.1h1.4
	c0.1,0,0.1,0,0.2,0.1s0.1,0.1,0.1,0.1s0,0.1-0.1,0.1s-0.1,0.1-0.2,0.1H69C69,154.4,69,154.4,68.9,154.4L68.9,154.4z"/>
<path class="st36" d="M73.2,155.6c0,0,0.1,0.1,0.1,0.1s0,0.1-0.1,0.1s-0.1,0.1-0.2,0.1h-1.8c-0.1,0-0.1,0-0.2-0.1s-0.1-0.1-0.1-0.1
	v-1.5c0-0.1,0-0.1,0.1-0.1c0,0,0.1-0.1,0.2-0.1s0.1,0,0.2,0.1s0.1,0.1,0.1,0.1v1.3H73C73.1,155.5,73.1,155.6,73.2,155.6z"/>
<path class="st36" d="M74,154.4C73.9,154.4,73.9,154.5,74,154.4c-0.1,0.1-0.1,0.1-0.1,0.1c0,0,0,0,0,0.1v0.2h0.7
	c0.1,0,0.1,0,0.2,0.1s0.1,0.1,0.1,0.1s0,0.1-0.1,0.1c0,0-0.1,0.1-0.2,0.1h-0.7v0.2c0,0,0,0.1,0,0.1s0,0,0.1,0.1c0,0,0,0,0.1,0
	s0.1,0,0.1,0h1.4c0.1,0,0.1,0,0.2,0.1s0.1,0.1,0.1,0.1s0,0.1-0.1,0.1s-0.1,0.1-0.2,0.1h-1.4c-0.1,0-0.1,0-0.2,0s-0.2-0.1-0.2-0.1
	c-0.1,0-0.1-0.1-0.2-0.2s-0.1-0.2-0.1-0.3v-0.8c0-0.1,0-0.1,0-0.2c0-0.1,0.1-0.1,0.1-0.2s0.1-0.1,0.2-0.1c0.1,0,0.2-0.1,0.3-0.1h1.4
	c0.1,0,0.1,0,0.2,0.1s0.1,0.1,0.1,0.1s0,0.1-0.1,0.1s-0.1,0.1-0.2,0.1h-1.4C74,154.4,74,154.4,74,154.4L74,154.4z"/>
<path class="st36" d="M76.5,154.4C76.5,154.4,76.5,154.5,76.5,154.4c-0.1,0.1-0.1,0.1-0.1,0.1c0,0,0,0,0,0.1v0.8c0,0,0,0.1,0,0.1
	s0,0,0.1,0.1c0,0,0,0,0.1,0s0.1,0,0.1,0H78c0.1,0,0.1,0,0.2,0.1s0.1,0.1,0.1,0.1s0,0.1-0.1,0.1s-0.1,0.1-0.2,0.1h-1.4
	c-0.1,0-0.1,0-0.2,0s-0.2-0.1-0.2-0.1c-0.1,0-0.1-0.1-0.2-0.2s-0.1-0.2-0.1-0.3v-0.8c0-0.1,0-0.1,0-0.2c0-0.1,0.1-0.1,0.1-0.2
	s0.1-0.1,0.2-0.1c0.1,0,0.2-0.1,0.3-0.1H78c0.1,0,0.1,0,0.2,0.1s0.1,0.1,0.1,0.1s0,0.1-0.1,0.1s-0.1,0.1-0.2,0.1h-1.4
	C76.6,154.4,76.6,154.4,76.5,154.4L76.5,154.4z"/>
<path class="st36" d="M80.8,154.1c0,0,0.1,0.1,0.1,0.1s0,0.1-0.1,0.1s-0.1,0.1-0.2,0.1h-0.7v1.3c0,0.1,0,0.1-0.1,0.1
	c0,0-0.1,0.1-0.2,0.1s-0.1,0-0.2-0.1s-0.1-0.1-0.1-0.1v-1.3h-0.7c-0.1,0-0.1,0-0.2-0.1s-0.1-0.1-0.1-0.1s0-0.1,0.1-0.1
	c0,0,0.1-0.1,0.2-0.1h1.8C80.7,154,80.7,154.1,80.8,154.1z"/>
<path class="st36" d="M108.8,181.3c0.1,0,0.2,0.1,0.3,0.1c0.1,0.1,0.2,0.2,0.3,0.3s0.1,0.2,0.1,0.4v1.7c0,0.1,0,0.1-0.1,0.2
	s-0.1,0.1-0.2,0.1s-0.2,0-0.2-0.1c-0.1-0.1-0.1-0.1-0.1-0.2V183h-2v0.8c0,0.1,0,0.1-0.1,0.2s-0.1,0.1-0.2,0.1s-0.2,0-0.2-0.1
	c-0.1-0.1-0.1-0.1-0.1-0.2v-1.7c0-0.1,0-0.2,0.1-0.3s0.1-0.2,0.2-0.3s0.2-0.2,0.3-0.2s0.3-0.1,0.5-0.1h1.3
	C108.6,181.3,108.7,181.3,108.8,181.3L108.8,181.3z M108.9,182.4v-0.3c0-0.1,0-0.1,0-0.1c0,0,0-0.1-0.1-0.1c0,0-0.1,0-0.1,0
	s-0.1,0-0.1,0h-1.3c-0.1,0-0.1,0-0.2,0s-0.1,0-0.1,0.1s0,0.1-0.1,0.1s0,0.1,0,0.1v0.3L108.9,182.4z"/>
<path class="st36" d="M84.9,195.5c0.1,0,0.2,0.1,0.3,0.1c0.1,0.1,0.2,0.2,0.3,0.3s0.1,0.2,0.1,0.4c0,0.1,0,0.2-0.1,0.3
	s-0.1,0.2-0.2,0.2c0.1,0.1,0.1,0.1,0.2,0.2s0.1,0.2,0.1,0.3c0,0.2,0,0.3-0.1,0.4s-0.2,0.2-0.3,0.3c-0.1,0.1-0.2,0.1-0.3,0.1
	s-0.2,0-0.3,0h-2c-0.1,0-0.2,0-0.2-0.1c-0.1-0.1-0.1-0.1-0.1-0.2v-2.2c0-0.1,0-0.1,0.1-0.2c0.1-0.1,0.1-0.1,0.2-0.1h2
	C84.7,195.4,84.8,195.5,84.9,195.5L84.9,195.5z M84.9,196.1C84.9,196.1,84.9,196.1,84.9,196.1c-0.1-0.1-0.2-0.1-0.2-0.1
	s-0.1,0-0.1,0h-1.7v0.6h1.7c0,0,0.1,0,0.1,0s0.1,0,0.1,0c0,0,0.1-0.1,0.1-0.1s0-0.1,0-0.1C85,196.2,84.9,196.2,84.9,196.1
	L84.9,196.1z M84.7,197.7c0,0,0.1,0,0.1,0c0,0,0.1-0.1,0.1-0.1c0,0,0-0.1,0-0.1s0-0.1,0-0.1c0,0,0-0.1-0.1-0.1c0,0-0.1,0-0.1,0
	s-0.1,0-0.1,0h-1.7v0.6h1.7C84.7,197.7,84.7,197.7,84.7,197.7z"/>
</svg>
