<svg enable-background="new 0 0 233.924 238.667" viewBox="0 0 233.924 238.667" xmlns="http://www.w3.org/2000/svg" xmlns:xlink="http://www.w3.org/1999/xlink"><linearGradient id="a"><stop offset="0" stop-color="#414143"/><stop offset=".4938" stop-color="#686a6b"/><stop offset="1" stop-color="#414243"/></linearGradient><linearGradient id="b" gradientTransform="matrix(1.05 0 0 1.3968 -5.5499 -36.7993)" gradientUnits="userSpaceOnUse" x1="76.7689" x2="178.1022" xlink:href="#a" y1="110.6454" y2="110.6454"/><linearGradient id="c" gradientTransform="matrix(11.7117 0 0 1.3968 -630.1852 -36.7993)" gradientUnits="userSpaceOnUse" x1="60.1343" x2="69.3843" xlink:href="#a" y1="111.5204" y2="111.5204"/><linearGradient id="d" gradientTransform="matrix(1.05 0 0 1.3968 -5.5499 -36.7993)" gradientUnits="userSpaceOnUse" x1="76.7689" x2="178.1022" xlink:href="#a" y1="112.3954" y2="112.3954"/><linearGradient id="e" gradientTransform="matrix(11.7117 0 0 1.3968 -630.1852 -36.7993)" gradientUnits="userSpaceOnUse" x1="60.1343" x2="69.3843" xlink:href="#a" y1="113.2704" y2="113.2704"/><linearGradient id="f" gradientTransform="matrix(1.05 0 0 1.3968 -5.5499 -36.7993)" gradientUnits="userSpaceOnUse" x1="76.7689" x2="178.1022" xlink:href="#a" y1="114.1454" y2="114.1454"/><linearGradient id="g" gradientTransform="matrix(11.7117 0 0 1.3968 -630.1852 -36.7993)" gradientUnits="userSpaceOnUse" x1="60.1343" x2="69.3843" xlink:href="#a" y1="115.0204" y2="115.0204"/><linearGradient id="h" gradientTransform="matrix(1.05 0 0 1.3968 -5.5499 -36.7993)" gradientUnits="userSpaceOnUse" x1="76.7689" x2="178.1022" xlink:href="#a" y1="115.8954" y2="115.8954"/><linearGradient id="i" gradientTransform="matrix(11.7117 0 0 1.3968 -630.1852 -36.7993)" gradientUnits="userSpaceOnUse" x1="60.1343" x2="69.3843" xlink:href="#a" y1="116.7704" y2="116.7704"/><linearGradient id="j" gradientTransform="matrix(1.05 0 0 1.3968 -5.5499 -36.7993)" gradientUnits="userSpaceOnUse" x1="76.7689" x2="178.1022" xlink:href="#a" y1="117.6454" y2="117.6454"/><linearGradient id="k" gradientTransform="matrix(11.7117 0 0 1.3968 -630.1852 -36.7993)" gradientUnits="userSpaceOnUse" x1="60.1343" x2="69.3843" xlink:href="#a" y1="118.5204" y2="118.5204"/><linearGradient id="l" gradientTransform="matrix(1.05 0 0 1.3968 -5.5499 -36.7993)" gradientUnits="userSpaceOnUse" x1="76.7689" x2="178.1022" xlink:href="#a" y1="119.3954" y2="119.3954"/><linearGradient id="m" gradientTransform="matrix(11.7117 0 0 1.3968 -630.1852 -36.7993)" gradientUnits="userSpaceOnUse" x1="60.1343" x2="69.3843" xlink:href="#a" y1="120.2704" y2="120.2704"/><linearGradient id="n" gradientTransform="matrix(1.05 0 0 1.3968 -5.5499 -36.7993)" gradientUnits="userSpaceOnUse" x1="76.7689" x2="178.1022" xlink:href="#a" y1="121.1454" y2="121.1454"/><linearGradient id="o" gradientTransform="matrix(11.7117 0 0 1.3968 -630.1852 -36.7993)" gradientUnits="userSpaceOnUse" x1="60.1343" x2="69.3843" xlink:href="#a" y1="122.0204" y2="122.0204"/><radialGradient id="p" cx="173.3826" cy="64.8195" gradientUnits="userSpaceOnUse" r="1.7083"><stop offset="0" stop-color="#ec7baa"/><stop offset=".44" stop-color="#ed578f"/><stop offset=".7896" stop-color="#ed3981"/><stop offset="1" stop-color="#ee2a7b"/></radialGradient><linearGradient id="q"><stop offset="0" stop-color="#54c5cd"/><stop offset=".5364" stop-color="#54c3cb"/><stop offset=".7296" stop-color="#52bdc5"/><stop offset=".8668" stop-color="#4eb4bc"/><stop offset=".9775" stop-color="#47a9b0"/><stop offset="1" stop-color="#45a6ad"/></linearGradient><radialGradient id="r" cx="141.2981" cy="182.8482" gradientUnits="userSpaceOnUse" r="8.5148" xlink:href="#q"/><radialGradient id="s" cx="165.688" cy="169.6528" gradientUnits="userSpaceOnUse" r="8.5148" xlink:href="#q"/><linearGradient id="t"><stop offset="0"/><stop offset=".3975" stop-color="#020202"/><stop offset=".5406" stop-color="#0c0c0c"/><stop offset=".6427" stop-color="#181718"/><stop offset=".7253" stop-color="#222122"/><stop offset=".796" stop-color="#292829"/><stop offset=".8586" stop-color="#2b2829"/><stop offset=".9152" stop-color="#292728"/><stop offset=".9656" stop-color="#252424"/><stop offset="1" stop-color="#202021"/></linearGradient><linearGradient id="u" gradientUnits="userSpaceOnUse" x1="130.7903" x2="130.7903" xlink:href="#t" y1="151.7778" y2="148.0278"/><linearGradient id="v" gradientUnits="userSpaceOnUse" x1="155.4153" x2="155.4153" xlink:href="#t" y1="151.7778" y2="148.0278"/><linearGradient id="w" gradientUnits="userSpaceOnUse" x1="88.8499" x2="109.239" y1="185.3675" y2="164.9783"><stop offset="0"/><stop offset=".1082" stop-color="#0b0a0b"/><stop offset=".2712" stop-color="#1d1d1d"/><stop offset=".4687" stop-color="#2a2829"/><stop offset=".6931" stop-color="#2a2828"/><stop offset=".9374" stop-color="#232223"/><stop offset="1" stop-color="#202021"/></linearGradient><linearGradient id="x" gradientUnits="userSpaceOnUse" x1="95.6228" x2="102.466" xlink:href="#t" y1="175.1729" y2="175.1729"/><linearGradient id="y" gradientUnits="userSpaceOnUse" x1="99.0444" x2="99.0444" xlink:href="#t" y1="178.5945" y2="171.7513"/><radialGradient id="z" cx="99.0444" cy="175.1729" fx="101.8689" fy="172.0285" gradientUnits="userSpaceOnUse" r="4.2267"><stop offset=".0708" stop-color="#1d1d1e"/><stop offset=".8739"/></radialGradient><linearGradient id="A"><stop offset="0" stop-color="#717774"/><stop offset=".4887" stop-color="#737976"/><stop offset=".6648" stop-color="#79807c"/><stop offset=".7902" stop-color="#848b88"/><stop offset=".891" stop-color="#969e9a"/><stop offset=".9222" stop-color="#9fa8a4"/></linearGradient><linearGradient id="B" gradientUnits="userSpaceOnUse" x1="163.4518" x2="163.4518" xlink:href="#A" y1="201.6217" y2="198.9445"/><linearGradient id="C" gradientUnits="userSpaceOnUse" x1="159.9102" x2="159.9102" xlink:href="#A" y1="205.3744" y2="202.6972"/><linearGradient id="D" gradientUnits="userSpaceOnUse" x1="156.3685" x2="156.3685" xlink:href="#A" y1="209.127" y2="206.4499"/><clipPath id="E"><path d="m192.75 159.939h19.642v19.642h-19.642z"/></clipPath><clipPath id="F"><path d="m192.408 190.309h20.06v20.061h-20.06z"/></clipPath><path d="m75.057 117.111h106.4v1.28h-106.4z" fill="url(#b)"/><path d="m181.843 119.556h-107.172c-.321 0-.581-.26-.581-.581v-.003c0-.321.26-.581.581-.581h107.172c.321 0 .581.26.581.581v.003c0 .321-.26.581-.581.581z" fill="url(#c)"/><path d="m75.057 119.556h106.4v1.28h-106.4z" fill="url(#d)"/><path d="m181.843 122h-107.172c-.321 0-.581-.26-.581-.581v-.003c0-.321.26-.581.581-.581h107.172c.321 0 .581.26.581.581v.003c0 .321-.26.581-.581.581z" fill="url(#e)"/><path d="m75.057 122h106.4v1.28h-106.4z" fill="url(#f)"/><path d="m181.843 124.445h-107.172c-.321 0-.581-.26-.581-.581v-.003c0-.321.26-.581.581-.581h107.172c.321 0 .581.26.581.581v.003c0 .321-.26.581-.581.581z" fill="url(#g)"/><path d="m75.057 124.445h106.4v1.28h-106.4z" fill="url(#h)"/><path d="m181.843 126.889h-107.172c-.321 0-.581-.26-.581-.581v-.003c0-.321.26-.581.581-.581h107.172c.321 0 .581.26.581.581v.003c0 .321-.26.581-.581.581z" fill="url(#i)"/><path d="m75.057 126.889h106.4v1.28h-106.4z" fill="url(#j)"/><path d="m181.843 129.333h-107.172c-.321 0-.581-.26-.581-.581v-.003c0-.321.26-.581.581-.581h107.172c.321 0 .581.26.581.581v.003c0 .322-.26.581-.581.581z" fill="url(#k)"/><path d="m75.057 129.333h106.4v1.28h-106.4z" fill="url(#l)"/><path d="m181.843 131.778h-107.172c-.321 0-.581-.26-.581-.581v-.003c0-.321.26-.581.581-.581h107.172c.321 0 .581.26.581.581v.003c0 .321-.26.581-.581.581z" fill="url(#m)"/><path d="m75.057 131.778h106.4v1.28h-106.4z" fill="url(#n)"/><path d="m181.843 134.222h-107.172c-.321 0-.581-.26-.581-.581v-.003c0-.321.26-.581.581-.581h107.172c.321 0 .581.26.581.581v.003c0 .321-.26.581-.581.581z" fill="url(#o)"/><path d="m71.924 117.111c-7.978 0-14.445-6.467-14.445-14.445v-88.221c.001-7.978 6.468-14.445 14.445-14.445h112.666c7.978 0 14.445 6.467 14.445 14.445v88.223c0 7.977-6.467 14.444-14.444 14.444h-112.667z" fill="#717a76"/><path d="m181.146 107.111h-105.777c-4.357 0-7.889-3.532-7.889-7.889v-81.333c0-4.357 3.532-7.889 7.889-7.889h105.778c4.357 0 7.889 3.532 7.889 7.889v81.333c-.001 4.357-3.533 7.889-7.89 7.889z" fill="#0b0f0d"/><path d="m91.535 21.833h73.444v73.444h-73.444z" fill="#68bd45"/><path d="m70.605 17.528h30.889" fill="none" stroke="#64b0a6" stroke-miterlimit="10" stroke-width="1.2"/><path d="m155.021 17.528h30.889" fill="none" stroke="#64b0a6" stroke-miterlimit="10" stroke-width="1.2"/><g fill="#63b0a6"><path d="m105.895 16.383c.064 0 .097.035.097.104v3.008h-.328c-.03 0-.053-.009-.071-.027s-.026-.043-.026-.077v-1.293h-1.039v1.396h-.328c-.064 0-.097-.034-.097-.104v-3.008h.327c.03 0 .053.009.071.027s.026.043.026.077v1.217h1.039v-1.32z"/><path d="m106.654 19.495c-.064 0-.097-.034-.097-.104v-3.008h.327c.065 0 .097.035.097.104v3.008z"/><path d="m109.254 17.852c.065 0 .097.035.097.104v1.455c-.1.042-.211.075-.333.099-.123.024-.255.036-.398.036-.21 0-.388-.03-.532-.09s-.26-.155-.348-.285c-.087-.13-.151-.295-.19-.496s-.059-.443-.059-.728c0-.299.021-.551.062-.756s.107-.371.196-.496c.089-.126.202-.216.339-.272.138-.055.303-.083.498-.083.137 0 .258.011.362.034.104.022.18.046.229.07.032.015.053.033.062.054s.014.052.014.094v.202c-.078-.012-.173-.023-.285-.034-.112-.01-.216-.016-.313-.016-.138 0-.253.016-.348.047-.094.032-.169.091-.226.178s-.098.207-.124.359c-.025.153-.039.351-.039.593 0 .264.015.476.045.635.029.16.074.285.133.373s.134.147.224.177.196.045.317.045c.062 0 .121-.002.176-.007.055-.004.104-.011.147-.02v-.885h-.348c-.024 0-.044-.009-.061-.027s-.024-.043-.024-.076v-.283h.727z"/><path d="m111.652 16.383c.064 0 .097.035.097.104v3.008h-.328c-.03 0-.053-.009-.071-.027s-.026-.043-.026-.077v-1.293h-1.039v1.396h-.328c-.064 0-.097-.034-.097-.104v-3.008h.327c.03 0 .053.009.071.027s.026.043.026.077v1.217h1.039v-1.32z"/><path d="m115.101 17.941c0 .207-.009.388-.028.543-.019.156-.046.292-.083.409s-.081.215-.134.294c-.052.08-.111.145-.176.195.067.084.142.187.225.31.082.123.156.25.22.381h-.368c-.038 0-.064-.009-.079-.027s-.033-.043-.055-.076c-.041-.075-.089-.155-.146-.24s-.106-.153-.149-.205c-.038.009-.078.015-.12.018s-.083.004-.123.004c-.151 0-.289-.021-.413-.065s-.23-.124-.319-.24-.158-.28-.206-.489c-.049-.209-.073-.48-.073-.813 0-.332.024-.603.073-.812.048-.209.117-.373.206-.49s.195-.197.319-.24.262-.065.413-.065.289.022.415.065c.125.043.232.124.321.24.089.117.158.28.206.49.05.21.074.481.074.813zm-1.593 0c0 .23.009.423.026.577s.048.278.093.373.104.162.178.202.168.061.281.061.207-.02.281-.061.134-.108.178-.202.076-.218.095-.373c.019-.154.028-.347.028-.577s-.009-.423-.028-.577-.05-.279-.095-.373-.104-.162-.178-.202-.167-.061-.281-.061-.207.021-.281.061c-.074.041-.133.108-.178.202s-.076.219-.093.373c-.017.155-.026.347-.026.577z"/><path d="m117.442 18.395c0 .395-.072.686-.216.871s-.381.278-.709.278c-.151 0-.285-.019-.402-.056s-.216-.1-.295-.188c-.08-.088-.141-.206-.182-.353-.042-.146-.062-.331-.062-.552v-2.012h.327c.065 0 .097.035.097.104v1.958c0 .108.007.205.022.292s.041.161.079.222c.038.062.089.108.156.139.066.032.151.047.257.047.102 0 .186-.016.25-.047.065-.031.116-.077.154-.137s.064-.133.079-.22.022-.187.022-.301v-2.057h.327c.03 0 .053.009.071.027s.026.043.026.077v1.908z"/><path d="m119.342 19.392c-.019-.134-.039-.264-.059-.388-.021-.124-.042-.249-.063-.375h-.902c-.027.144-.052.289-.074.436s-.042.291-.062.431h-.311c-.06 0-.088-.038-.085-.112.008-.09.021-.178.037-.265.049-.291.103-.568.162-.833.06-.265.121-.514.183-.746s.125-.445.189-.64c.063-.195.124-.367.181-.517h.404c.033 0 .057.008.073.022.016.015.03.039.041.072.057.153.119.335.187.548.067.213.134.449.2.709.066.261.129.54.188.837.06.298.111.605.154.923h-.344c-.059.001-.091-.033-.099-.102zm-.576-2.622c-.064.212-.131.442-.199.689s-.133.514-.195.801h.796c-.062-.287-.128-.555-.197-.801-.069-.247-.137-.477-.205-.689z"/><path d="m120.272 19.495c-.064 0-.097-.034-.097-.104v-3.008h.327c.03 0 .053.009.071.027s.026.043.026.077v2.613h.995c.065 0 .097.034.097.103v.292z"/><path d="m122.181 19.495c-.064 0-.097-.034-.097-.104v-3.008h.327c.065 0 .097.035.097.104v3.008z"/><path d="m123.64 16.778h-.643c-.064 0-.097-.034-.097-.103v-.292h1.811c.03 0 .053.009.071.027s.026.043.026.077v.292h-.744v2.717h-.327c-.065 0-.097-.034-.097-.104z"/><path d="m125.921 19.495c-.065 0-.097-.034-.097-.104v-1.078c-.092-.17-.175-.334-.25-.491-.076-.157-.145-.314-.207-.472s-.119-.315-.172-.474c-.052-.159-.1-.323-.144-.494h.368c.041 0 .067.01.079.029.012.02.024.05.035.092.024.096.054.199.089.31s.073.227.115.348c.041.121.088.245.14.373.051.127.107.254.169.379.062-.128.122-.266.18-.411.058-.146.11-.288.158-.427.047-.139.088-.27.123-.391s.06-.222.073-.303h.315c.038 0 .065.014.081.043.016.028.018.063.004.105-.048.17-.098.331-.149.48s-.106.295-.166.438c-.059.143-.123.284-.192.424-.069.141-.144.288-.225.44v1.181h-.327z"/><path d="m128.108 17.196c0-.285.073-.499.219-.642.146-.144.371-.216.675-.216.113 0 .227.008.34.025s.201.037.263.061c.043.021.069.044.079.07.009.025.014.054.014.087v.207c-.1-.015-.202-.028-.308-.038-.105-.011-.213-.016-.323-.016-.105 0-.193.01-.263.029-.07.02-.126.047-.168.083s-.071.081-.089.135-.026.117-.026.189c0 .081.009.147.028.2s.051.098.095.137.102.074.174.105c.071.032.16.068.265.11.108.045.206.09.293.135.088.044.163.101.227.168s.112.15.146.247.051.221.051.371c0 .323-.078.554-.234.694-.157.139-.383.208-.68.208-.129 0-.254-.01-.376-.029-.121-.02-.215-.042-.283-.069-.035-.015-.06-.035-.073-.059-.014-.024-.021-.054-.021-.09v-.224c.094.015.199.03.313.045s.236.022.366.022c.113 0 .207-.011.281-.034s.132-.054.174-.095c.042-.04.071-.09.087-.15s.024-.127.024-.202c0-.084-.009-.153-.026-.207-.018-.054-.048-.1-.091-.137-.043-.038-.1-.072-.171-.105-.072-.033-.161-.07-.269-.112-.113-.045-.214-.091-.301-.139-.088-.048-.162-.105-.222-.173-.061-.067-.107-.148-.14-.243-.033-.094-.05-.21-.05-.348z"/><path d="m130.785 16.778h-.643c-.064 0-.097-.034-.097-.103v-.292h1.811c.03 0 .053.009.071.027s.026.043.026.077v.292h-.744v2.717h-.327c-.065 0-.097-.034-.097-.104z"/><path d="m133.829 16.383c.062 0 .093.035.093.104v.283h-1.156v.957h.958c.062 0 .093.034.093.103v.288h-1.051v.992h1.108c.03 0 .053.009.071.027s.026.043.026.077v.283h-1.533c-.064 0-.097-.034-.097-.104v-3.008h1.488z"/><path d="m134.512 19.495c-.064 0-.097-.034-.097-.104v-2.954c.119-.024.252-.044.4-.061.148-.016.298-.024.449-.024.323 0 .558.079.703.236.146.157.219.394.219.711 0 .225-.047.407-.14.548s-.216.241-.37.301c.065.087.13.188.196.306.066.117.128.236.186.359s.11.244.158.364c.047.12.084.226.111.319h-.351c-.038 0-.065-.008-.083-.025-.018-.016-.032-.041-.042-.074-.024-.075-.058-.161-.099-.258-.042-.097-.088-.198-.138-.301-.05-.104-.104-.207-.164-.31s-.12-.197-.182-.28h-.433v1.248h-.323zm.324-1.612h.445c.07 0 .135-.008.196-.025s.113-.045.158-.087.079-.101.103-.177c.024-.077.037-.173.037-.29s-.011-.212-.032-.287c-.022-.075-.053-.135-.095-.18s-.095-.076-.16-.092c-.064-.017-.14-.025-.227-.025-.091 0-.174.003-.247.009s-.132.014-.178.022z"/><path d="m138.196 16.383c.062 0 .093.035.093.104v.283h-1.156v.957h.958c.062 0 .093.034.093.103v.288h-1.051v.992h1.108c.03 0 .053.009.071.027s.026.043.026.077v.283h-1.533c-.064 0-.097-.034-.097-.104v-3.008h1.488z"/><path d="m140.707 17.941c0 .333-.024.604-.073.813-.048.209-.117.373-.206.489s-.196.197-.321.24-.264.065-.415.065-.289-.021-.413-.065-.23-.124-.319-.24-.158-.28-.206-.489c-.049-.209-.073-.48-.073-.813 0-.332.024-.603.073-.812.048-.209.117-.373.206-.49s.195-.197.319-.24.262-.065.413-.065.289.022.415.065c.125.043.232.124.321.24.089.117.158.28.206.49.049.209.073.48.073.812zm-1.593 0c0 .23.009.423.026.577s.048.278.093.373.104.162.178.202.168.061.281.061.207-.02.281-.061.134-.108.178-.202.076-.218.095-.373c.019-.154.028-.347.028-.577s-.009-.423-.028-.577-.05-.279-.095-.373-.104-.162-.178-.202-.167-.061-.281-.061-.207.021-.281.061c-.074.041-.133.108-.178.202s-.076.219-.093.373c-.017.155-.026.347-.026.577z"/><path d="m141.944 17.196c0-.285.073-.499.219-.642.146-.144.371-.216.675-.216.113 0 .227.008.34.025s.201.037.263.061c.043.021.069.044.079.07.009.025.014.054.014.087v.207c-.1-.015-.202-.028-.308-.038-.105-.011-.213-.016-.323-.016-.105 0-.193.01-.263.029-.07.02-.126.047-.168.083s-.071.081-.089.135-.026.117-.026.189c0 .081.009.147.028.2s.051.098.095.137.102.074.174.105c.071.032.16.068.265.11.108.045.206.09.293.135.088.044.163.101.227.168s.112.15.146.247.051.221.051.371c0 .323-.078.554-.234.694-.157.139-.383.208-.68.208-.129 0-.254-.01-.376-.029-.121-.02-.215-.042-.283-.069-.035-.015-.06-.035-.073-.059-.014-.024-.021-.054-.021-.09v-.224c.094.015.199.03.313.045s.236.022.366.022c.113 0 .207-.011.281-.034s.132-.054.174-.095c.042-.04.071-.09.087-.15s.024-.127.024-.202c0-.084-.009-.153-.026-.207-.018-.054-.048-.1-.091-.137-.043-.038-.1-.072-.171-.105-.072-.033-.161-.07-.269-.112-.113-.045-.214-.091-.301-.139-.088-.048-.162-.105-.222-.173-.061-.067-.107-.148-.14-.243-.033-.094-.05-.21-.05-.348z"/><path d="m146.084 17.941c0 .333-.024.604-.073.813-.048.209-.117.373-.206.489s-.196.197-.321.24-.264.065-.415.065-.289-.021-.413-.065-.23-.124-.319-.24-.158-.28-.206-.489c-.049-.209-.073-.48-.073-.813 0-.332.024-.603.073-.812.048-.209.117-.373.206-.49s.195-.197.319-.24.262-.065.413-.065.289.022.415.065c.125.043.232.124.321.24.089.117.158.28.206.49.049.209.073.48.073.812zm-1.593 0c0 .23.009.423.026.577s.048.278.093.373.104.162.178.202.168.061.281.061.207-.02.281-.061.134-.108.178-.202.076-.218.095-.373c.019-.154.028-.347.028-.577s-.009-.423-.028-.577-.05-.279-.095-.373-.104-.162-.178-.202-.167-.061-.281-.061-.207.021-.281.061c-.074.041-.133.108-.178.202s-.076.219-.093.373c-.017.155-.026.347-.026.577z"/><path d="m148.425 18.395c0 .395-.072.686-.216.871s-.381.278-.709.278c-.151 0-.285-.019-.402-.056s-.216-.1-.295-.188c-.08-.088-.141-.206-.182-.353-.042-.146-.062-.331-.062-.552v-2.012h.327c.065 0 .097.035.097.104v1.958c0 .108.007.205.022.292s.041.161.079.222c.038.062.089.108.156.139.066.032.151.047.257.047.102 0 .186-.016.25-.047.065-.031.116-.077.154-.137s.064-.133.079-.22.022-.187.022-.301v-2.057h.327c.03 0 .053.009.071.027s.026.043.026.077v1.908z"/><path d="m150.888 19.495h-.335c-.046 0-.082-.034-.109-.104-.043-.102-.095-.218-.154-.35-.06-.131-.123-.27-.19-.413s-.136-.29-.207-.438c-.07-.148-.137-.289-.202-.422-.064-.133-.124-.254-.178-.364-.054-.109-.099-.198-.133-.267v2.357h-.308c-.064 0-.097-.034-.097-.104v-3.008h.339c.03 0 .053.01.069.029s.032.044.048.074c.035.069.079.156.131.26.053.105.111.22.174.346s.128.259.196.4.134.28.2.419c.066.14.129.274.19.404s.114.248.16.353v-2.286h.308c.064 0 .097.035.097.104v3.01z"/><path d="m151.551 19.495c-.064 0-.097-.034-.097-.104v-2.954c.062-.012.128-.023.2-.034.071-.011.144-.02.218-.027s.146-.013.216-.018.136-.007.198-.007c.191 0 .356.027.494.081.137.054.25.143.339.265s.154.284.196.485.062.446.062.736c0 .291-.021.536-.062.736-.042.201-.106.363-.192.487-.086.125-.198.214-.334.27-.136.055-.298.083-.487.083h-.751zm.72-2.766c-.062 0-.13.003-.206.009s-.138.013-.186.022v2.357h.384c.116 0 .217-.014.303-.043.086-.028.158-.086.214-.173s.098-.21.125-.371c.027-.16.041-.372.041-.635 0-.233-.011-.426-.034-.577s-.061-.271-.113-.359-.122-.149-.208-.182c-.087-.031-.193-.048-.32-.048z"/></g><circle cx="173.383" cy="64.819" fill="url(#p)" r="1.708"/><path d="m141.924 238.667h-27.333c-27.062 0-49-21.938-49-49v-49.306c0-3.39 2.748-6.139 6.139-6.139h113.056c3.39 0 6.139 2.748 6.139 6.139v49.306c-.001 27.062-21.939 49-49.001 49z" fill="#7c827f"/><path d="m140.314 233.445h-24.113c-24.269 0-43.943-19.674-43.943-43.943v-44.552c0-3.041 2.465-5.505 5.505-5.505h100.989c3.041 0 5.505 2.465 5.505 5.505v44.551c0 24.269-19.674 43.944-43.943 43.944z" fill="#787f7c"/><path d="m65.591 165.778h6.667v23.723c0 24.269 19.674 43.943 43.943 43.943h24.113c24.269 0 43.943-19.674 43.943-43.943v-23.723h6.667" fill="none" stroke="#717774" stroke-miterlimit="10" stroke-width="1.2"/><path d="m134.265 208.034h1.453v-4.69l3.754 4.69h1.091v-7.173h-1.453v4.81l-3.755-4.81h-1.09z" fill="#010101"/><path d="m130.177 203.019 2.606 4.982h-5.212z" fill="#53c5ce"/><path d="m126.574 204.75c0 .933.302 1.79.805 2.46l.908-1.735c-.09-.263-.138-.547-.138-.846 0-1.275.895-2.309 1.998-2.309 1.104 0 1.998 1.034 1.998 2.309 0 .272-.04.533-.115.774l.92 1.759c.482-.663.769-1.501.769-2.412 0-2.148-1.6-3.889-3.573-3.889s-3.572 1.741-3.572 3.889z" fill="#010101"/><path d="m124.454 200.861h1.453v7.171h-1.453z" fill="#010101"/><path d="m85.817 205.89-.848.863c1.493 2.016 4.538 1.603 4.538-.924 0-1.375-.929-1.828-2.121-2.275-1.752-.659-.351-2.374 1.095-1.074l.714-.874c-.486-.452-1.245-.777-1.925-.743-1.273.064-2.116.754-2.116 2.079 0 2.181 3.021 1.719 3.021 3.002.001 1.217-1.611 1.092-2.358-.054z" fill="#010101"/><path d="m117.066 200.861h1.453v7.171h-1.453z" fill="#010101"/><path d="m116.823 200.861h-1.574l-1.635 4.61-1.635-4.61h-1.575l2.786 7.171h.848z" fill="#010101"/><path d="m108.933 205.269c.644-.219 1.188-.817 1.319-1.482.02-.1.084-.439.084-.677s-.065-.571-.086-.669c-.182-.842-1.103-1.58-1.958-1.58h-2.37v7.171h1.453v-2.674h.139l1.557 2.674h1.817zm-1.072-1.127h-.485v-2.066h.485c.602 0 1.09.368 1.09.972 0 .605-.488 1.094-1.09 1.094z" fill="#010101"/><path d="m101.32 200.861v7.171h3.755v-1.216h-2.302v-1.944h2.181v-1.216h-2.181v-1.579h2.181v-1.216z" fill="#010101"/><path d="m96.354 200.861v7.171h1.453v-2.674h1.038c.852 0 1.674-.733 1.839-1.571.02-.1.085-.439.085-.677s-.065-.571-.086-.669c-.182-.842-1.103-1.58-1.958-1.58zm1.454 3.281v-2.066h.484c.602 0 1.09.368 1.09.972s-.488 1.094-1.09 1.094z" fill="#010101"/><path d="m120.077 205.89-.848.863c1.493 2.016 4.538 1.603 4.538-.924 0-1.375-.929-1.828-2.121-2.275-1.752-.659-.351-2.374 1.095-1.074l.714-.874c-.486-.452-1.245-.777-1.925-.743-1.273.064-2.116.754-2.116 2.079 0 2.181 3.021 1.719 3.021 3.002.001 1.217-1.611 1.092-2.358-.054z" fill="#010101"/><path d="m94.004 200.861v4.636c0 .689-.558 1.247-1.247 1.247-.689 0-1.247-.558-1.247-1.247v-4.636h-1.453v4.469c0 1.492 1.209 2.701 2.701 2.701s2.701-1.209 2.701-2.701v-4.469z" fill="#010101"/><path d="m142.61 201.111h-.504v1.271h-.355v-1.271h-.504v-.241h1.363z"/><path d="m144.749 202.382h-.332v-1.257l-.433 1.257h-.341l-.433-1.257v1.257h-.331v-1.512h.568l.367 1.093.367-1.102h.568z"/><circle cx="141.298" cy="182.848" fill="url(#r)" r="8.515"/><circle cx="165.688" cy="169.653" fill="url(#s)" r="8.515"/><path d="m135.938 151.778h-10.295c-1.036 0-1.875-.839-1.875-1.875 0-1.036.839-1.875 1.875-1.875h10.295c1.036 0 1.875.839 1.875 1.875 0 1.035-.84 1.875-1.875 1.875z" fill="url(#u)"/><path d="m160.563 151.778h-10.295c-1.036 0-1.875-.839-1.875-1.875 0-1.036.839-1.875 1.875-1.875h10.295c1.036 0 1.875.839 1.875 1.875 0 1.035-.84 1.875-1.875 1.875z" fill="url(#v)"/><path d="m115.395 179.212-12.312 12.312c-2.23 2.23-5.847 2.23-8.077 0l-12.312-12.312c-2.23-2.231-2.23-5.847 0-8.077l12.312-12.312c2.23-2.23 5.847-2.23 8.077 0l12.312 12.312c2.23 2.23 2.23 5.846 0 8.077z" fill="url(#w)"/><path d="m95.623 175.173v15.812c0 .69.365 1.296.913 1.633 1.579.772 3.441.771 5.019-.001.547-.338.911-.942.911-1.632v-15.812-15.812c0-.69-.364-1.294-.911-1.632-1.579-.773-3.44-.773-5.019-.001-.548.337-.913.943-.913 1.633z" fill="url(#x)"/><path d="m99.044 178.594h15.812c.69 0 1.296-.365 1.633-.913.772-1.579.771-3.441-.001-5.019-.338-.547-.942-.911-1.632-.911h-15.812-15.811c-.69 0-1.294.364-1.632.911-.773 1.579-.773 3.44-.001 5.019.337.548.943.913 1.633.913z" fill="url(#y)"/><circle cx="99.044" cy="175.173" fill="url(#z)" r="3.079"/><path d="m171.641 201.622h-16.378c-.739 0-1.339-.599-1.339-1.339 0-.739.599-1.339 1.339-1.339h16.378c.739 0 1.339.599 1.339 1.339 0 .739-.6 1.339-1.339 1.339z" fill="url(#B)"/><path d="m168.099 205.374h-16.378c-.739 0-1.339-.599-1.339-1.339 0-.739.599-1.339 1.339-1.339h16.378c.739 0 1.339.599 1.339 1.339 0 .74-.599 1.339-1.339 1.339z" fill="url(#C)"/><path d="m164.558 209.127h-16.378c-.739 0-1.339-.599-1.339-1.339 0-.739.599-1.339 1.339-1.339h16.378c.739 0 1.339.599 1.339 1.339-.001.74-.6 1.339-1.339 1.339z" fill="url(#D)"/><path d="m149.424 155.013c-.029.005-.056.016-.081.03s-.045.034-.06.058-.023.055-.023.093.008.068.023.093c.015.024.035.043.06.058s.052.024.081.03c.03.005.057.008.083.008h.989c.073 0 .153.01.24.03s.168.052.242.097c.074.044.136.103.186.174.049.072.074.16.074.264s-.024.191-.074.263-.111.13-.186.174c-.074.045-.155.077-.242.097s-.167.03-.24.03h-1.483c-.071 0-.13-.018-.177-.054s-.071-.081-.071-.134.023-.099.071-.134c.047-.036.106-.054.177-.054h1.483c.026 0 .053-.003.083-.008.029-.005.056-.015.081-.029.024-.015.044-.034.06-.058.015-.024.023-.055.023-.092s-.008-.069-.023-.093c-.016-.024-.036-.043-.06-.058-.025-.014-.052-.024-.081-.029-.03-.005-.057-.008-.083-.008h-.989c-.075 0-.156-.01-.242-.029s-.166-.052-.24-.097-.136-.103-.186-.175c-.049-.071-.074-.159-.074-.263s.025-.191.074-.263.111-.13.186-.175c.074-.044.154-.077.24-.097s.167-.029.242-.029h1.483c.071 0 .129.018.177.054.047.036.07.081.07.134s-.023.098-.07.134-.106.054-.177.054h-1.483c-.026-.004-.054-.002-.083.004z" fill="#161b1a"/><path d="m153.922 154.683c.047.036.07.081.07.134s-.023.098-.07.134-.106.054-.177.054h-.742v1.316c0 .054-.023.099-.07.134-.047.036-.106.054-.177.054s-.129-.018-.177-.054c-.047-.036-.07-.081-.07-.134v-1.316h-.742c-.071 0-.13-.018-.177-.054s-.071-.081-.071-.134.023-.099.071-.134c.047-.036.106-.054.177-.054h1.978c.071 0 .129.017.177.054z" fill="#161b1a"/><path d="m156.146 154.658c.087.02.168.052.242.097s.136.103.186.175c.049.072.074.159.074.263v1.128c0 .054-.023.099-.07.134-.047.036-.106.054-.177.054s-.129-.018-.176-.054-.071-.081-.071-.134v-.564h-1.483v.564c0 .054-.023.099-.071.134-.047.036-.106.054-.176.054-.071 0-.13-.018-.177-.054s-.071-.081-.071-.134v-1.128c0-.056.013-.116.039-.183s.068-.127.127-.184.136-.104.229-.141c.094-.038.21-.056.346-.056h.989c.073 0 .153.01.24.029zm.008.723v-.188c0-.038-.008-.068-.023-.093-.016-.024-.036-.043-.06-.058-.025-.014-.052-.024-.081-.03-.03-.005-.057-.008-.083-.008h-.989c-.049 0-.09.006-.122.018s-.057.027-.076.045c-.019.019-.032.04-.039.062s-.011.043-.011.063v.188h1.484z" fill="#161b1a"/><path d="m159.309 155.481c-.062.076-.139.137-.228.182.097.073.174.164.233.27s.088.236.088.388c0 .054-.023.099-.07.134-.047.036-.106.054-.177.054s-.129-.018-.176-.054-.071-.081-.071-.134c0-.088-.016-.163-.046-.226-.031-.063-.07-.115-.118-.157s-.102-.075-.161-.1c-.059-.024-.115-.042-.169-.054s-.104-.019-.148-.023c-.044-.003-.078-.005-.099-.005h-.742v.564c0 .054-.023.099-.071.134-.047.036-.106.054-.176.054-.071 0-.13-.018-.177-.054s-.071-.081-.071-.134v-1.504c0-.054.023-.099.071-.134.047-.036.106-.054.177-.054h1.483c.073 0 .153.01.24.029.087.02.168.052.242.097s.136.103.186.175c.049.072.074.159.074.263 0 .117-.031.214-.094.289zm-.648-.1c.026 0 .053-.002.083-.008.029-.005.056-.015.081-.03.024-.014.044-.034.06-.058.015-.024.023-.055.023-.093s-.008-.068-.023-.093c-.016-.024-.036-.043-.06-.058-.025-.014-.052-.024-.081-.03-.03-.005-.057-.008-.083-.008h-1.236v.376h1.236z" fill="#161b1a"/><path d="m161.995 154.683c.047.036.07.081.07.134s-.023.098-.07.134-.106.054-.177.054h-.742v1.316c0 .054-.023.099-.07.134-.047.036-.106.054-.177.054s-.129-.018-.177-.054c-.047-.036-.07-.081-.07-.134v-1.316h-.742c-.071 0-.13-.018-.177-.054s-.071-.081-.071-.134.023-.099.071-.134c.047-.036.106-.054.177-.054h1.978c.071 0 .13.017.177.054z" fill="#161b1a"/><path d="m150.64 144.365c.087.02.168.052.242.097s.136.103.186.175c.049.072.074.159.074.263s-.024.192-.074.263c-.05.072-.111.13-.186.175s-.155.077-.242.097-.167.029-.24.029h-1.236v.564c0 .054-.023.099-.071.134-.047.036-.106.054-.176.054-.071 0-.13-.018-.177-.054s-.071-.081-.071-.134v-1.504c0-.054.023-.099.071-.134.047-.036.106-.054.177-.054h1.483c.073-.001.153.009.24.029zm-.156.715c.029-.005.056-.015.081-.03.024-.014.044-.034.06-.058.015-.024.023-.055.023-.093s-.008-.068-.023-.093c-.016-.024-.036-.043-.06-.058-.025-.014-.052-.024-.081-.03-.03-.005-.057-.008-.083-.008h-1.236v.376h1.236c.025.001.053-.001.083-.006z" fill="#161b1a"/><path d="m153.395 144.365c.087.02.168.052.242.097s.136.103.186.175c.049.072.074.159.074.263v1.128c0 .054-.023.099-.07.134-.047.036-.106.054-.177.054s-.129-.018-.176-.054-.071-.081-.071-.134v-.564h-1.483v.564c0 .054-.023.099-.071.134-.047.036-.106.054-.176.054-.071 0-.13-.018-.177-.054s-.071-.081-.071-.134v-1.128c0-.056.013-.116.039-.183s.068-.127.127-.184.136-.104.229-.141c.094-.038.21-.056.346-.056h.989c.073-.001.153.009.24.029zm.008.722v-.188c0-.038-.008-.068-.023-.093-.016-.024-.036-.043-.06-.058-.025-.014-.052-.024-.081-.03-.03-.005-.057-.008-.083-.008h-.989c-.049 0-.09.006-.122.018s-.057.027-.076.045c-.019.019-.032.04-.039.062s-.011.043-.011.063v.188h1.484z" fill="#161b1a"/><path d="m156.581 144.389c.047.036.07.081.07.134v1.128c0 .104-.024.191-.074.263s-.111.13-.186.174c-.074.045-.155.077-.242.097s-.167.03-.24.03h-.989c-.136 0-.252-.019-.346-.057s-.17-.084-.229-.141-.101-.118-.127-.183-.039-.126-.039-.184v-1.128c0-.054.023-.099.071-.134.047-.036.106-.054.177-.054.07 0 .129.018.176.054s.071.081.071.134v1.128c0 .02.003.041.011.063.007.022.02.043.039.062s.044.034.076.046.072.018.122.018h.989c.026 0 .053-.003.083-.008.029-.005.056-.015.081-.029.024-.015.044-.034.06-.058.015-.024.023-.055.023-.092v-1.128c0-.054.023-.099.071-.134.047-.036.105-.054.176-.054s.129.017.176.053z" fill="#161b1a"/><path d="m157.593 144.719c-.029.005-.056.016-.081.03s-.045.034-.06.058-.023.055-.023.093.008.068.023.093c.015.024.035.043.06.058s.052.024.081.03c.03.005.057.008.083.008h.989c.073 0 .153.01.24.03s.168.052.242.097c.074.044.136.103.186.174.049.072.074.16.074.264s-.024.191-.074.263-.111.13-.186.174c-.074.045-.155.077-.242.097s-.167.03-.24.03h-1.483c-.071 0-.13-.018-.177-.054s-.071-.081-.071-.134.023-.099.071-.134c.047-.036.106-.054.177-.054h1.483c.026 0 .053-.003.083-.008.029-.005.056-.015.081-.029.024-.015.044-.034.06-.058.015-.024.023-.055.023-.092s-.008-.069-.023-.093c-.016-.024-.036-.043-.06-.058-.025-.014-.052-.024-.081-.029-.03-.005-.057-.008-.083-.008h-.989c-.075 0-.156-.01-.242-.029s-.166-.052-.24-.097-.136-.103-.186-.175c-.049-.071-.074-.159-.074-.263s.025-.191.074-.263.111-.13.186-.175c.074-.044.154-.077.24-.097s.167-.029.242-.029h1.483c.071 0 .129.018.177.054.047.036.07.081.07.134s-.023.098-.07.134-.106.054-.177.054h-1.483c-.026-.004-.054-.001-.083.004z" fill="#161b1a"/><path d="m160.309 144.729c-.032.012-.057.027-.076.045-.019.019-.032.04-.039.062s-.011.043-.011.063v.188h.742c.071 0 .129.018.177.054.047.036.07.081.07.134s-.023.099-.07.134c-.047.036-.106.054-.177.054h-.742v.188c0 .038.008.068.023.092s.035.043.06.058c.025.014.052.024.081.029.03.005.057.008.083.008h1.483c.071 0 .129.018.177.054.047.036.07.081.07.134s-.023.099-.07.134c-.047.036-.106.054-.177.054h-1.483c-.075 0-.156-.01-.242-.03s-.166-.052-.24-.097c-.074-.044-.136-.103-.186-.174s-.074-.16-.074-.263v-.752c0-.056.013-.116.039-.183s.068-.127.127-.184.136-.104.229-.141c.094-.038.21-.056.346-.056h1.483c.071 0 .129.018.177.054.047.036.07.081.07.134s-.023.098-.07.134-.106.054-.177.054h-1.483c-.048.001-.088.007-.12.019z" fill="#161b1a"/><path d="m123.882 154.428c-.027.005-.053.016-.076.03s-.042.034-.056.058c-.015.024-.021.055-.021.093s.007.068.021.093c.014.024.033.043.056.058s.048.024.076.03.053.008.078.008h.921c.068 0 .143.01.224.03s.156.052.225.097c.069.044.127.103.173.174.046.072.069.16.069.264s-.023.191-.069.263-.104.13-.173.174c-.069.045-.144.077-.225.097-.082.02-.156.03-.224.03h-1.382c-.066 0-.121-.018-.165-.054s-.065-.081-.065-.134.021-.099.065-.134c.044-.036.099-.054.165-.054h1.382c.024 0 .05-.003.078-.008s.053-.015.076-.029c.023-.015.042-.034.056-.058s.021-.055.021-.092-.007-.069-.021-.093-.033-.043-.056-.058c-.023-.014-.048-.024-.076-.029s-.053-.008-.078-.008h-.921c-.07 0-.146-.01-.226-.029s-.155-.052-.224-.097-.127-.103-.173-.175c-.046-.071-.069-.159-.069-.263s.023-.191.069-.263.104-.13.173-.175c.069-.044.144-.077.224-.097s.155-.029.226-.029h1.382c.066 0 .121.018.165.054s.065.081.065.134-.021.098-.065.134-.099.054-.165.054h-1.382c-.024-.004-.05-.002-.078.004z" fill="#161b1a"/><path d="m126.413 154.438c-.029.012-.053.027-.071.045-.018.019-.029.04-.036.062-.006.022-.01.043-.01.063v.188h.691c.066 0 .121.018.165.054s.066.081.066.134-.022.099-.066.134c-.044.036-.099.054-.165.054h-.691v.188c0 .038.007.068.021.092s.033.043.056.058c.023.014.048.024.076.029s.053.008.078.008h1.382c.066 0 .121.018.165.054s.065.081.065.134-.021.099-.065.134-.099.054-.165.054h-1.382c-.07 0-.146-.01-.226-.03s-.155-.052-.224-.097c-.069-.044-.127-.103-.173-.174s-.069-.16-.069-.263v-.752c0-.056.012-.116.036-.183.024-.066.063-.127.118-.184s.126-.104.214-.141c.088-.038.195-.056.323-.056h1.382c.066 0 .121.018.165.054s.065.081.065.134-.021.098-.065.134-.099.054-.165.054h-1.382c-.046.001-.084.007-.113.019z" fill="#161b1a"/><path d="m130.639 155.602c.044.036.065.081.065.134s-.021.099-.065.134-.099.054-.165.054h-1.843c-.066 0-.121-.018-.165-.054s-.065-.081-.065-.134v-1.504c0-.054.021-.099.065-.134.044-.036.099-.054.165-.054s.121.018.165.054.066.081.066.134v1.316h1.612c.067 0 .121.018.165.054z" fill="#161b1a"/><path d="m131.453 154.438c-.029.012-.053.027-.071.045-.018.019-.029.04-.036.062-.006.022-.01.043-.01.063v.188h.691c.066 0 .121.018.165.054s.066.081.066.134-.022.099-.066.134c-.044.036-.099.054-.165.054h-.691v.188c0 .038.007.068.021.092s.033.043.056.058c.023.014.048.024.076.029s.053.008.078.008h1.382c.066 0 .121.018.165.054s.065.081.065.134-.021.099-.065.134-.099.054-.165.054h-1.382c-.07 0-.146-.01-.226-.03s-.155-.052-.224-.097c-.069-.044-.127-.103-.173-.174s-.069-.16-.069-.263v-.752c0-.056.012-.116.036-.183.024-.066.063-.127.118-.184s.126-.104.214-.141c.088-.038.195-.056.323-.056h1.382c.066 0 .121.018.165.054s.065.081.065.134-.021.098-.065.134-.099.054-.165.054h-1.382c-.046.001-.083.007-.113.019z" fill="#161b1a"/><path d="m134.02 154.438c-.029.012-.053.027-.071.045-.018.019-.029.04-.036.062-.006.022-.01.043-.01.063v.752c0 .038.007.068.021.092s.033.043.056.058c.023.014.048.024.076.029s.053.008.078.008h1.382c.066 0 .121.018.165.054s.065.081.065.134-.021.099-.065.134-.099.054-.165.054h-1.382c-.07 0-.146-.01-.226-.03s-.155-.052-.224-.097c-.069-.044-.127-.103-.173-.174s-.069-.16-.069-.263v-.752c0-.056.012-.116.036-.183.024-.066.063-.127.118-.184s.126-.104.214-.141c.088-.038.195-.056.323-.056h1.382c.066 0 .121.018.165.054s.065.081.065.134-.021.098-.065.134-.099.054-.165.054h-1.382c-.046.001-.084.007-.113.019z" fill="#161b1a"/><path d="m138.246 154.098c.044.036.065.081.065.134s-.021.098-.065.134-.099.054-.165.054h-.691v1.316c0 .054-.022.099-.066.134-.044.036-.099.054-.165.054s-.121-.018-.165-.054-.066-.081-.066-.134v-1.316h-.691c-.066 0-.121-.018-.165-.054s-.065-.081-.065-.134.021-.099.065-.134c.044-.036.099-.054.165-.054h1.843c.067 0 .122.018.166.054z" fill="#161b1a"/><path d="m166.327 181.349c.119.029.229.077.329.144.101.067.185.153.252.26s.101.237.101.391v1.677c0 .08-.032.146-.096.2s-.144.08-.24.08-.176-.026-.241-.08c-.064-.053-.096-.12-.096-.2v-.838h-2.02v.838c0 .08-.032.146-.096.2s-.144.08-.24.08-.176-.026-.24-.08c-.064-.053-.096-.12-.096-.2v-1.677c0-.083.018-.173.053-.271s.093-.189.173-.273.184-.154.312-.21.285-.083.471-.083h1.347c.099-.002.208.013.327.042zm.01 1.074v-.28c0-.056-.011-.102-.031-.138-.021-.036-.048-.064-.082-.086-.034-.021-.07-.036-.11-.044s-.078-.012-.113-.012h-1.346c-.067 0-.123.009-.166.026s-.078.04-.104.068-.043.059-.053.092-.015.064-.015.094v.28z" fill="#161b1a"/><path d="m142.427 195.493c.119.029.229.077.329.144.101.067.185.153.252.26s.101.237.101.391c0 .123-.022.23-.067.322s-.101.171-.168.237c.067.067.123.146.168.238s.067.199.067.321c0 .155-.034.285-.101.392s-.151.193-.252.26c-.101.066-.21.114-.329.144s-.228.044-.327.044h-2.019c-.096 0-.176-.026-.24-.08-.064-.053-.096-.12-.096-.2v-2.236c0-.08.032-.146.096-.2.064-.053.144-.08.24-.08h2.019c.1-.001.209.013.327.043zm-.021.656c-.021-.036-.048-.064-.082-.086-.034-.021-.07-.036-.11-.044s-.078-.012-.113-.012h-1.683v.559h1.683c.039 0 .078-.004.118-.012s.076-.022.108-.044c.032-.021.059-.05.08-.086s.031-.082.031-.138c-.001-.055-.012-.1-.032-.137zm-.192 1.524c.04-.008.077-.022.11-.044.034-.021.061-.05.082-.085.021-.036.031-.082.031-.138s-.011-.102-.031-.138c-.021-.036-.048-.064-.082-.086-.034-.021-.07-.036-.11-.044s-.078-.012-.113-.012h-1.683v.559h1.683c.035 0 .072-.004.113-.012z" fill="#161b1a"/><path d="m231.372 158.382h-37.917c-1.115 0-2.019.904-2.019 2.019v18.504c0 1.115.904 2.019 2.019 2.019h37.917c1.115 0 2.019-.904 2.019-2.019v-18.504c-.001-1.115-.904-2.019-2.019-2.019" fill="#edeceb"/><path d="m193.455 158.382v.533h37.917c.82.001 1.484.665 1.485 1.486v18.504c-.001.82-.665 1.484-1.485 1.485h-37.917c-.82-.001-1.484-.665-1.485-1.485v-18.504c.001-.821.665-1.484 1.485-1.486v-.533-.533c-1.41 0-2.552 1.143-2.552 2.552v18.504c0 1.41 1.142 2.552 2.552 2.552h37.917c1.41 0 2.552-1.143 2.552-2.552v-18.504c0-1.41-1.142-2.552-2.552-2.552h-37.917z" fill="#354960"/><path d="m223.798 171.486h-3.469l-.779 2.161h-1.126l3.162-8.28h.955l3.168 8.28h-1.12zm-3.139-.899h2.815l-1.41-3.873z" fill="#354960"/><path clip-path="url(#E)" d="m208.772 172.1c-1.498 0-2.713-1.215-2.713-2.713s1.215-2.712 2.713-2.712 2.712 1.214 2.712 2.712c0 1.499-1.215 2.713-2.712 2.713m-5.709-4.45c-1.498 0-2.712-1.215-2.712-2.713s1.214-2.713 2.712-2.713 2.713 1.215 2.713 2.713-1.214 2.713-2.713 2.713m-.977 9.706c-1.498 0-2.713-1.215-2.713-2.713s1.214-2.712 2.713-2.712c1.498 0 2.713 1.214 2.713 2.712 0 1.499-1.215 2.713-2.713 2.713m-5.639-4.564c-1.498 0-2.712-1.214-2.712-2.713 0-1.498 1.214-2.712 2.712-2.712s2.713 1.214 2.713 2.712c0 1.499-1.214 2.713-2.713 2.713m6.161-12.853c-5.414 0-9.803 4.389-9.803 9.804 0 5.414 4.389 9.804 9.803 9.804s9.803-4.389 9.803-9.804-4.389-9.804-9.803-9.804" fill="#354960"/><path clip-path="url(#E)" d="m204.004 174.644c0 1.059-.859 1.918-1.918 1.918-1.06 0-1.918-.859-1.918-1.918 0-1.06.858-1.918 1.918-1.918 1.059 0 1.918.858 1.918 1.918" fill="#354960"/><path clip-path="url(#E)" d="m198.467 170.08c0 1.116-.904 2.021-2.02 2.021s-2.021-.905-2.021-2.021c0-1.115.905-2.02 2.021-2.02 1.116-.001 2.02.904 2.02 2.02" fill="#354960"/><path clip-path="url(#E)" d="m204.978 164.992c0 1.06-.859 1.918-1.918 1.918-1.06 0-1.918-.858-1.918-1.918s.858-1.918 1.918-1.918c1.059 0 1.918.859 1.918 1.918" fill="#354960"/><path d="m231.371 189.012h-37.917c-1.115 0-2.019.904-2.019 2.019v18.504c0 1.115.904 2.019 2.019 2.019h37.917c1.115 0 2.019-.904 2.019-2.019v-18.504c.001-1.115-.903-2.019-2.019-2.019" fill="#edeceb"/><path d="m193.454 189.012v.533h37.917c.82.001 1.484.666 1.486 1.486v18.504c-.001.82-.665 1.484-1.486 1.485h-37.917c-.82-.001-1.484-.665-1.485-1.485v-18.504c.001-.821.665-1.485 1.485-1.486v-.533-.533c-1.41 0-2.552 1.143-2.552 2.553v18.504c0 1.41 1.142 2.552 2.552 2.552h37.917c1.41 0 2.552-1.142 2.553-2.552v-18.504c0-1.41-1.143-2.552-2.553-2.553h-37.917z" fill="#354960"/><path d="m219.226 204.278v-8.28h2.707c.899 0 1.574.186 2.025.558.455.372.682.921.682 1.649 0 .386-.11.729-.33 1.029-.219.296-.519.525-.898.688.447.125.8.364 1.058.717.262.348.393.765.393 1.251 0 .743-.241 1.327-.723 1.752-.481.424-1.162.637-2.041.637h-2.873zm1.092-3.874v2.98h1.802c.508 0 .908-.131 1.2-.392.296-.266.443-.63.443-1.092 0-.997-.542-1.496-1.626-1.496zm0-.875h1.649c.477 0 .859-.12 1.143-.358.288-.239.432-.563.432-.973 0-.455-.133-.784-.399-.989-.265-.208-.669-.313-1.211-.313h-1.615v2.633z" fill="#354960"/><path clip-path="url(#F)" d="m208.771 202.731c-1.53 0-2.77-1.24-2.77-2.771 0-1.53 1.24-2.77 2.77-2.77s2.77 1.24 2.77 2.77-1.239 2.771-2.77 2.771m-5.829-4.545c-1.53 0-2.771-1.241-2.771-2.771s1.24-2.77 2.771-2.77c1.53 0 2.77 1.24 2.77 2.77s-1.241 2.771-2.77 2.771m-.999 9.913c-1.53 0-2.77-1.24-2.77-2.77s1.24-2.77 2.77-2.77 2.77 1.24 2.77 2.77c.001 1.529-1.24 2.77-2.77 2.77m-5.758-4.662c-1.53 0-2.771-1.24-2.771-2.771 0-1.53 1.24-2.77 2.771-2.77 1.53 0 2.77 1.24 2.77 2.77 0 1.532-1.24 2.771-2.77 2.771m6.291-13.127c-5.53 0-10.012 4.482-10.012 10.012s4.483 10.012 10.012 10.012 10.013-4.483 10.013-10.012c0-5.53-4.483-10.012-10.013-10.012" fill="#354960"/><path clip-path="url(#F)" d="m210.749 199.96c0 1.093-.885 1.978-1.978 1.978s-1.978-.885-1.978-1.978.886-1.978 1.978-1.978 1.978.885 1.978 1.978" fill="#354960"/><path clip-path="url(#F)" d="m198.248 200.667c0 1.139-.924 2.063-2.063 2.063s-2.063-.924-2.063-2.063c0-1.14.924-2.063 2.063-2.063s2.063.924 2.063 2.063" fill="#354960"/><path clip-path="url(#F)" d="m204.897 195.471c0 1.082-.877 1.959-1.959 1.959s-1.959-.877-1.959-1.959.877-1.959 1.959-1.959 1.959.877 1.959 1.959" fill="#354960"/><path d="m77.208 132.64c-.206.915-1.003 1.596-1.955 1.596h-15.334c-.951 0-1.748-.681-1.955-1.596v6.78h19.245v-6.78m-15.792-4.399v-3.761h2.566v.589h-1.945v.95h1.865v.589h-1.865v1.043h1.977v.589h-2.598m3.271.001v-3.761h.62v3.141h1.794v.62zm2.965 0 .001-3.761h2.562v.589h-1.943v.95h1.865v.589h-1.865v1.043h1.977v.589h-2.597m4.682.107c-1.066 0-1.577-.928-1.577-1.986 0-1.061.489-1.986 1.651-1.986 1.016 0 1.546.684 1.612 1.495l-.668-.001c-.062-.57-.43-.907-.952-.907-.572 0-.996.486-.996 1.466 0 .786.424 1.329 1.038 1.329.644 0 .858-.559.91-.955h.668c-.087.751-.471 1.545-1.686 1.545m4.873-8.171h-19.244v6.847h.625c.017.496.338.735.848.735.377 0 .728-.143.728-.556 0-.934-2.176-.12-2.176-1.664 0-.838.583-1.163 1.302-1.163.455 0 1.365.104 1.445 1.195h-.67c-.021-.291-.229-.607-.746-.607-.412 0-.685.164-.685.517 0 .883 2.199.036 2.199 1.643 0 .97-.789 1.223-1.418 1.223-.876 0-1.319-.361-1.452-.931v4.285c.207-.914 1.004-1.596 1.955-1.596h15.335c.952 0 1.748.681 1.955 1.596v-6.632h-1.054v3.172h-.619v-3.172h-1.108v-.589h2.781v-4.303m-19.298 11.994v-12.047h19.349v4.357h.003v.589h-.003v14.402h-19.349zm68.825-13.193h-67.957c-.988.002-1.786.8-1.788 1.788v18.418c.002.987.801 1.786 1.788 1.788h67.956c.988-.002 1.786-.801 1.788-1.788v-18.418c-.001-.988-.8-1.787-1.787-1.788" fill="#edeceb"/><path d="m58.779 118.755v.221h67.956c.988.002 1.786.8 1.788 1.788v18.418c-.002.987-.801 1.786-1.788 1.788h-67.956c-.988-.002-1.786-.801-1.788-1.788v-18.418c.002-.988.8-1.786 1.788-1.788v-.221-.222c-1.232 0-2.231.998-2.231 2.231v18.418c0 1.232.999 2.231 2.231 2.231h67.956c1.232 0 2.231-.999 2.231-2.231v-18.418c0-1.233-.999-2.231-2.231-2.231h-67.956z" fill="#354960"/><path d="m75.253 130.105h-15.334c-1.108 0-2.007.925-2.007 2.066s.899 2.066 2.007 2.066h15.335c1.108 0 2.007-.924 2.007-2.066s-.899-2.066-2.008-2.066" fill="#354960"/><path d="m75.536 128.241h.619v-3.172h1.109v-.589h-2.837v.589h1.108v3.172m-1.515-2.371c-.066-.812-.595-1.495-1.612-1.495-1.162 0-1.651.926-1.651 1.986 0 1.058.511 1.986 1.577 1.986 1.215 0 1.599-.794 1.686-1.544h-.668c-.052.396-.266.955-.91.955-.614 0-1.038-.543-1.038-1.329 0-.98.424-1.466.996-1.466.522 0 .89.337.952.907zm-6.367 2.371h2.596v-.589h-1.977v-1.043h1.865v-.589h-1.865v-.95h1.943v-.589h-2.562zm-2.965 0h2.415v-.62h-1.794v-3.141h-.62v3.761m-3.272 0h2.597v-.589h-1.977v-1.043h1.865v-.589h-1.865v-.95h1.945v-.589h-2.566v3.76m-3.427-2.703c0 1.543 2.176.73 2.176 1.664 0 .413-.352.556-.728.556-.51 0-.831-.238-.848-.735h-.669c.008.791.434 1.324 1.497 1.324.629 0 1.418-.253 1.418-1.223 0-1.607-2.199-.76-2.199-1.643 0-.353.273-.517.685-.517.517 0 .725.316.746.607h.67c-.079-1.091-.99-1.195-1.445-1.195-.719-.001-1.303.325-1.303 1.162" fill="#354960"/><path d="m77.26 125.069h-.052v6.632c.034.151.052.308.052.469s-.018.319-.052.469v6.78h-19.244v-6.78c-.034-.151-.052-.308-.052-.47v7.301h19.348zm0-4.946h-19.349v12.047c0-.162.018-.319.052-.47v-4.285c-.029-.122-.043-.253-.044-.392h.044v-6.847h19.245v4.304h.052z" fill="#edeceb"/><path d="m77.208 131.701v.939c.034-.151.052-.308.052-.469 0-.162-.018-.319-.052-.47m-19.244-.001c-.034.151-.052.308-.052.47 0 .162.018.319.052.47z" fill="#354960"/><path d="m57.964 127.023h-.044c.001.139.016.271.044.392zm19.296-2.543h-.052v.589h.052z" fill="#354960"/><path d="m86.947 130.277c-.936-.269-1.619-.599-2.047-.99-.425-.394-.637-.879-.637-1.456 0-.652.26-1.19.779-1.615.523-.429 1.202-.643 2.036-.643.569 0 1.075.11 1.518.33.448.22.792.523 1.035.91.246.387.37.809.37 1.268h-1.097c0-.5-.159-.893-.478-1.177-.319-.288-.768-.432-1.348-.432-.538 0-.959.119-1.262.358-.3.235-.449.563-.449.984 0 .337.142.624.427.859.288.231.775.443 1.461.637.69.193 1.228.407 1.615.643.39.231.679.502.864.813.19.311.284.677.284 1.097 0 .671-.262 1.209-.785 1.615-.523.402-1.223.603-2.099.603-.569 0-1.1-.108-1.592-.324-.493-.22-.874-.52-1.143-.899-.265-.379-.398-.809-.398-1.291h1.097c0 .501.184.897.552 1.189.371.289.866.432 1.484.432.576 0 1.018-.117 1.325-.352s.46-.556.46-.961c0-.406-.142-.718-.426-.938-.283-.224-.799-.444-1.546-.66z" fill="#354960"/><path d="m96.103 130.141h-3.588v2.934h4.168v.893h-5.26v-8.28h5.203v.898h-4.111v2.661h3.588z" fill="#354960"/><path d="m99.14 133.075h3.924v.893h-5.022v-8.28h1.098z" fill="#354960"/><path d="m109.001 130.141h-3.589v2.934h4.169v.893h-5.261v-8.28h5.204v.898h-4.112v2.661h3.589z" fill="#354960"/><path d="m117.03 131.34c-.102.876-.426 1.553-.972 2.03-.542.474-1.264.711-2.167.711-.978 0-1.763-.351-2.354-1.052-.588-.701-.882-1.64-.882-2.815v-.797c0-.769.137-1.446.41-2.03.277-.584.667-1.031 1.171-1.343.504-.314 1.088-.472 1.752-.472.879 0 1.585.247 2.115.74.531.489.84 1.168.927 2.036h-1.097c-.095-.66-.301-1.138-.62-1.433-.315-.296-.756-.444-1.325-.444-.698 0-1.245.258-1.644.773-.394.515-.591 1.249-.591 2.201v.802c0 .899.188 1.613.563 2.144s.901.796 1.575.796c.607 0 1.071-.136 1.393-.409.326-.277.542-.756.648-1.439h1.098z" fill="#354960"/><path d="m124.076 126.586h-2.661v7.382h-1.086v-7.382h-2.656v-.898h6.403z" fill="#354960"/><path d="m197.17 118.746h-62.548c-1.111 0-2.011.9-2.011 2.011v18.432c0 1.111.9 2.011 2.011 2.011h62.548c1.111 0 2.011-.901 2.011-2.011v-18.432c0-1.111-.9-2.011-2.011-2.011" fill="#edeceb"/><path d="m134.622 118.746v.213h62.548c.993.002 1.796.805 1.798 1.798v18.432c-.002.993-.805 1.796-1.798 1.798h-62.548c-.993-.002-1.796-.805-1.798-1.798v-18.432c.002-.993.805-1.796 1.798-1.798v-.213-.213c-1.229 0-2.224.995-2.224 2.224v18.432c0 1.229.996 2.224 2.224 2.225h62.548c1.228 0 2.224-.996 2.224-2.225v-18.432c0-1.229-.996-2.224-2.224-2.224h-62.548z" fill="#354960"/><path d="m151.509 128.241h.767v-3.24h1.366v-.602h-3.499v.602h1.366zm-4.645-2.119v-1.121h1.323c.403 0 .654.156.654.554 0 .431-.23.567-.654.567zm-.765 2.119h.765v-1.517h1.303c.561 0 .633.388.633.936 0 .28.036.474.093.581h.827c-.15-.21-.155-.64-.155-.824 0-.544-.096-.942-.53-1.037v-.011c.343-.112.602-.425.602-.926 0-.597-.3-1.042-1.229-1.042h-2.307zm-4.737 0h.827l.378-.952h1.715l.383.952h.854l-1.623-3.842h-.909zm1.435-1.555.633-1.621.622 1.621zm-3.588 1.555h.765v-3.24h1.368v-.602h-3.501v.602h1.369v3.24zm-5.227-2.761c0 1.576 2.685.746 2.685 1.7 0 .422-.433.567-.898.567-.628 0-1.025-.243-1.046-.75h-.826c.011.808.536 1.353 1.849 1.353.776 0 1.749-.259 1.749-1.25 0-1.642-2.715-.775-2.715-1.678 0-.36.337-.526.847-.526.638 0 .894.322.92.619h.827c-.099-1.116-1.221-1.222-1.783-1.222-.89-.002-1.609.331-1.609 1.187" fill="#354960"/><path d="m151.59 130.144h-15.658c-1.132 0-2.05.945-2.05 2.109 0 1.165.918 2.11 2.05 2.11h15.658c1.132 0 2.049-.945 2.049-2.11s-.917-2.109-2.049-2.109z" fill="#354960"/><path d="m162.797 130.277c-.937-.269-1.619-.599-2.047-.99-.425-.394-.637-.879-.637-1.456 0-.652.26-1.19.779-1.615.523-.428 1.202-.643 2.036-.643.569 0 1.075.11 1.518.33.448.22.793.523 1.035.91.246.387.37.809.37 1.268h-1.097c0-.5-.159-.893-.478-1.177-.318-.288-.768-.432-1.348-.432-.538 0-.959.119-1.262.358-.299.235-.449.563-.449.984 0 .337.142.624.426.859.288.231.775.443 1.461.637.69.193 1.228.407 1.615.643.391.231.679.502.864.813.19.311.284.677.284 1.097 0 .671-.261 1.209-.785 1.615-.523.402-1.223.603-2.099.603-.569 0-1.099-.108-1.592-.325-.493-.219-.874-.519-1.143-.898-.265-.379-.398-.809-.398-1.291h1.097c0 .501.184.897.552 1.189.371.289.866.432 1.484.432.577 0 1.018-.117 1.325-.352s.461-.556.461-.961c0-.406-.142-.718-.426-.938-.284-.224-.799-.444-1.546-.66z" fill="#354960"/><path d="m172.993 126.586h-2.661v7.382h-1.086v-7.382h-2.656v-.899h6.403z" fill="#354960"/><path d="m178.35 131.807h-3.469l-.779 2.161h-1.126l3.162-8.28h.955l3.168 8.28h-1.12zm-3.139-.899h2.815l-1.41-3.872z" fill="#354960"/><path d="m184.413 130.618h-1.945v3.35h-1.097v-8.28h2.741c.933 0 1.649.213 2.15.637.504.425.756 1.042.756 1.854 0 .515-.14.965-.421 1.347-.277.383-.663.669-1.16.859l1.945 3.514v.068h-1.171zm-1.945-.892h1.678c.542 0 .972-.141 1.291-.421.322-.281.483-.656.483-1.126 0-.512-.153-.904-.46-1.177-.304-.273-.743-.411-1.319-.415h-1.672v3.139z" fill="#354960"/><path d="m193.807 126.586h-2.661v7.382h-1.086v-7.382h-2.656v-.899h6.403z" fill="#354960"/><path d="m63.368 162.785h-61.146c-1.111 0-2.011.901-2.011 2.011v18.436c0 1.111.901 2.011 2.011 2.011h61.146c1.111 0 2.012-.901 2.012-2.011v-18.436c0-1.11-.901-2.011-2.012-2.011" fill="#edeceb"/><path d="m2.222 162.785v.211h61.146c.994.002 1.799.806 1.801 1.801v18.436c-.002.994-.807 1.799-1.801 1.801h-61.146c-.994-.002-1.799-.806-1.801-1.801v-18.436c.002-.994.806-1.799 1.801-1.801v-.211-.211c-1.227 0-2.222.995-2.222 2.222v18.436c0 1.227.995 2.222 2.222 2.222h61.146c1.227 0 2.222-.995 2.223-2.222v-18.436c0-1.227-.995-2.222-2.223-2.222h-61.146z" fill="#354960"/><path d="m13.293 184.103h-3.848c-1.238 0-1.687-1.01-1.687-1.689v-4.724h-4.726c-1.239 0-1.689-1.01-1.689-1.689v-3.847c0-1.238 1.01-1.688 1.689-1.688h4.726v-4.725c0-1.239 1.009-1.689 1.687-1.689h3.848c1.239 0 1.689 1.01 1.689 1.689v4.725h4.724c.65 0 1.166.284 1.452.801.112.203.247.602.232.887h.004v3.847c0 1.239-1.01 1.689-1.689 1.689h-4.724v4.724c.001 1.239-1.009 1.689-1.688 1.689zm-10.261-12.826c-.204.003-.877.075-.877.876v3.847c.003.203.075.877.877.877h5.537v5.536c.003.204.075.877.876.877h3.846c.208-.003.879-.077.879-.877v-5.535h5.535c.204-.003.877-.076.877-.877v-3.853c-.003-.155-.061-.871-.877-.871h-5.535v-5.537c-.003-.204-.075-.877-.877-.877h-3.847c-.203.003-.876.075-.876.877v5.536h-5.538z" fill="#354960"/><path d="m11.37 176.053c-1.089 0-1.974-.886-1.974-1.975s.886-1.975 1.974-1.975c1.089 0 1.975.886 1.975 1.975 0 1.09-.886 1.975-1.975 1.975zm0-3.138c-.641 0-1.163.522-1.163 1.163 0 .642.522 1.164 1.163 1.164.642 0 1.163-.522 1.163-1.164s-.522-1.163-1.163-1.163z" fill="#354960"/><path d="m11.369 165.774-1.625 2.535h3.253z" fill="#354960"/><path d="m12.996 168.714h-3.253c-.148 0-.285-.081-.356-.211s-.065-.289.015-.414l1.626-2.534c.149-.233.534-.233.683 0l1.627 2.534c.08.125.086.284.014.414-.071.13-.207.211-.356.211zm-2.51-.811h1.767l-.884-1.377z" fill="#354960"/><path d="m3.035 174.078 2.534 1.625v-3.251z" fill="#354960"/><path d="m5.569 176.109c-.076 0-.153-.022-.219-.064l-2.534-1.625c-.116-.074-.186-.203-.186-.341s.07-.267.186-.341l2.534-1.626c.124-.079.283-.086.414-.015.13.071.211.208.211.356v3.252c0 .148-.081.285-.211.356-.061.032-.129.048-.195.048zm-1.783-2.031 1.377.883v-1.767z" fill="#354960"/><path d="m19.674 174.077-2.535-1.625v3.251z" fill="#354960"/><path d="m17.14 176.109c-.067 0-.134-.017-.194-.05-.131-.072-.212-.208-.212-.356v-3.252c0-.148.08-.285.212-.356.129-.072.288-.067.414.015l2.535 1.626c.116.075.187.204.187.341 0 .138-.071.267-.187.341l-2.535 1.626c-.068.044-.144.065-.22.065zm.406-2.915v1.767l1.378-.884z" fill="#354960"/><path d="m11.369 182.381 1.628-2.534h-3.253z" fill="#354960"/><path d="m11.369 182.787c-.138 0-.267-.07-.341-.186l-1.626-2.534c-.08-.125-.086-.283-.015-.414.072-.13.208-.212.356-.212h3.253c.148 0 .285.081.356.212.072.13.065.289-.015.414l-1.627 2.534c-.074.115-.202.186-.341.186zm-.883-2.534.883 1.377.884-1.377z" fill="#354960"/><path d="m27.959 178.009v-8.28h2.337c.721 0 1.357.159 1.911.477.554.319.98.772 1.28 1.359.303.588.457 1.262.46 2.025v.529c0 .781-.152 1.465-.455 2.053-.3.588-.73 1.039-1.291 1.354-.557.315-1.207.476-1.951.483zm1.092-7.382v6.489h1.149c.842 0 1.496-.262 1.962-.785.47-.523.705-1.268.705-2.235v-.483c0-.94-.222-1.67-.665-2.19-.44-.523-1.065-.788-1.877-.796z" fill="#354960"/><path d="m34.852 174.062h2.775v.859h-2.775z" fill="#354960"/><path d="m39.902 174.767v3.242h-1.092v-8.28h3.054c.906 0 1.615.231 2.127.694.516.463.773 1.075.773 1.837 0 .804-.252 1.424-.756 1.859-.5.432-1.219.648-2.155.648zm0-.893h1.962c.584 0 1.031-.136 1.342-.409.311-.277.466-.675.466-1.194 0-.493-.155-.887-.466-1.183s-.738-.449-1.28-.461h-2.025v3.247z" fill="#354960"/><path d="m49.956 175.848h-3.469l-.779 2.161h-1.126l3.162-8.28h.955l3.168 8.28h-1.12zm-3.139-.899h2.815l-1.41-3.872z" fill="#354960"/><path d="m52.981 178.009v-8.28h2.337c.72 0 1.357.159 1.911.477.554.319.98.772 1.28 1.359.303.588.457 1.262.461 2.025v.529c0 .781-.152 1.465-.455 2.053-.3.588-.73 1.039-1.291 1.354-.557.315-1.207.476-1.951.483zm1.092-7.382v6.489h1.149c.842 0 1.496-.262 1.962-.785.47-.523.705-1.268.705-2.235v-.483c0-.94-.222-1.67-.665-2.19-.44-.523-1.065-.788-1.877-.796z" fill="#354960"/><path d="m145.121 182.139c.723 0 1.31.574 1.31 1.283s-.587 1.282-1.31 1.282c-.724 0-1.311-.574-1.311-1.282s.587-1.283 1.311-1.283z" fill="#43444b"/><path d="m165.75 168.424c.724 0 1.311.574 1.311 1.283 0 .708-.587 1.282-1.311 1.282s-1.311-.574-1.311-1.282c0-.709.587-1.283 1.311-1.283z" fill="#43444b"/><path d="m99.194 173.794c.724 0 1.31.574 1.31 1.282s-.587 1.283-1.31 1.283-1.311-.574-1.311-1.283c.001-.708.588-1.282 1.311-1.282z" fill="#43444b"/><path d="m130.705 148.62c.724 0 1.31.574 1.31 1.283 0 .708-.587 1.283-1.31 1.283-.724 0-1.311-.575-1.311-1.283 0-.709.587-1.283 1.311-1.283z" fill="#43444b"/><ellipse cx="155.614" cy="149.903" fill="#43444b" rx="1.31" ry="1.283"/><path d="m191.251 169.419-25.84.036v.48l25.841-.036" fill="#43444b"/><path d="m190.902 197.071-45.646.036v.633l45.646-.036" fill="#43444b"/><path d="m99.114 174.67-33.523.036v.564l33.524-.037" fill="#43444b"/><path d="m130.704 149.553-31.984.036.001.664 31.984-.036" fill="#43444b"/><path d="m144.864 182.576.036 15.109h.51l-.036-15.11" fill="#43444b"/><path d="m155.209 141.415.037 8.488.368-.001-.037-8.488" fill="#43444b"/><path d="m98.684 141.415.036 8.488.368-.001-.036-8.488" fill="#43444b"/></svg>