<svg enable-background="new 0 0 67.889 70.718" viewBox="0 0 67.889 70.718" xmlns="http://www.w3.org/2000/svg" xmlns:xlink="http://www.w3.org/1999/xlink"><linearGradient id="a" gradientUnits="userSpaceOnUse" x1="33.9444" x2="33.9444" y1="14.1843" y2="0"><stop offset="0" stop-color="#6b6b6b"/><stop offset=".2802" stop-color="#6a6a6a"/><stop offset=".4589" stop-color="#656565"/><stop offset=".6091" stop-color="#5d5d5c"/><stop offset=".7437" stop-color="#525151"/><stop offset=".8678" stop-color="#434342"/><stop offset=".9826" stop-color="#333332"/><stop offset="1" stop-color="#30302f"/></linearGradient><linearGradient id="b" gradientUnits="userSpaceOnUse" x1="3.9969" x2="63.8919" y1="36.0265" y2="36.0265"><stop offset="0" stop-color="#bddeb1"/><stop offset="1" stop-color="#91c2e8"/></linearGradient><path d="m37.745 57.49h-7.538c-.403 0-.563.52-.231.747l3.769 2.574c.139.095.322.095.462 0l3.769-2.574c.332-.227.171-.747-.231-.747z" fill="none" stroke="#000" stroke-miterlimit="10" stroke-width=".0773"/><path d="m4.444 64.129h-1.428c-.143 0-.259.116-.259.259v5.096c0 .681.552 1.234 1.234 1.234h59.908c.681 0 1.234-.552 1.234-1.234v-5.096c0-.143-.116-.259-.259-.259h-1.428v-1.472h-59v1.472z" fill="#715853"/><g fill="#523e38"><path d="m4.986 62.657h1.535v7.229h-1.535z"/><path d="m7.996 62.657h1.535v7.229h-1.535z"/><path d="m11.006 62.657h1.535v7.229h-1.535z"/><path d="m14.017 62.657h1.535v7.229h-1.535z"/><path d="m17.027 62.657h1.535v7.229h-1.535z"/><path d="m20.037 62.657h1.535v7.229h-1.535z"/><path d="m23.047 62.657h1.535v7.229h-1.535z"/><path d="m26.057 62.657h1.535v7.229h-1.535z"/><path d="m29.068 62.657h1.535v7.229h-1.535z"/><path d="m32.078 62.657h1.535v7.229h-1.535z"/><path d="m35.088 62.657h1.535v7.229h-1.535z"/><path d="m38.098 62.657h1.535v7.229h-1.535z"/><path d="m41.108 62.657h1.535v7.229h-1.535z"/><path d="m44.119 62.657h1.535v7.229h-1.535z"/><path d="m47.129 62.657h1.535v7.229h-1.535z"/><path d="m50.139 62.657h1.535v7.229h-1.535z"/><path d="m53.149 62.657h1.535v7.229h-1.535z"/><path d="m56.159 62.657h1.535v7.229h-1.535z"/><path d="m59.17 62.657h1.535v7.229h-1.535z"/><path d="m63.444 62.657h-1.264v7.229h1.535v-5.757h-.271z"/></g><path d="m3.694 64.129h-.678c-.143 0-.259.116-.259.259v5.096c0 .141.024.276.067.402h.871z" fill="#397466"/><path d="m64.194 64.129h.678c.143 0 .259.116.259.259v5.096c0 .141-.024.276-.067.402h-.871v-5.757z" fill="#397466"/><path d="m0 14.184h6.222c.512 0 .889-.256 1.181-.694.314-.472.497-.771.75-1.083.637-.785 1.389-1.372 1.722-1.556.916-.506 1.424-.569 2.431-.569h21.639 21.639c1.007 0 1.514.064 2.431.569.333.184 1.086.771 1.722 1.556.253.312.436.611.75 1.083.292.438.668.694 1.181.694h6.222v47.213c0 .695-.564 1.259-1.259 1.259h-65.372c-.695.001-1.259-.563-1.259-1.258z" fill="#5f6060"/><path d="m67.889 14.184h-6.049v-1.757c0-3.555-2.882-6.438-6.438-6.438h-42.916c-3.555 0-6.437 2.882-6.437 6.438v1.757h-6.049v-12.925c0-.695.564-1.259 1.259-1.259h65.371c.695 0 1.259.564 1.259 1.259z" fill="url(#a)"/><path d="m61.84 14.184v-1.757c0-3.555-2.882-6.438-6.438-6.438h-42.916c-3.555 0-6.437 2.882-6.437 6.438v1.757h.174c.512 0 .889-.256 1.181-.694.314-.472.497-.771.75-1.083.637-.785 1.389-1.372 1.722-1.556.916-.506 1.424-.569 2.431-.569h21.639 21.639c1.007 0 1.514.064 2.431.569.333.184 1.086.771 1.722 1.556.253.312.436.611.75 1.083.292.438.668.694 1.181.694z" fill="#696969"/><path d="m51.709 8.258h-35.167c-.23 0-.417-.187-.417-.417 0-.23.187-.417.417-.417h35.167c.23 0 .417.187.417.417-.001.23-.187.417-.417.417z" fill="#575757"/><path d="m51.583 8.157h-35.166c-.23 0-.417-.187-.417-.417 0-.23.187-.417.417-.417h35.167c.229 0 .416.187.416.417 0 .23-.187.417-.417.417z" fill="#6d6d6d"/><path d="m51.709 9.976h-35.167c-.23 0-.417-.187-.417-.417 0-.23.187-.417.417-.417h35.167c.23 0 .417.187.417.417-.001.231-.187.417-.417.417z" fill="#575757"/><path d="m51.583 9.875h-35.166c-.23 0-.417-.186-.417-.416 0-.23.187-.417.417-.417h35.167c.23 0 .417.187.417.417-.001.23-.188.416-.418.416z" fill="#6d6d6d"/><path d="m59.882 55.823h-51.875c-2.382 0-4.312-1.931-4.312-4.312v-31.459c0-2.382 1.931-4.312 4.312-4.312h51.875c2.382 0 4.312 1.931 4.312 4.312v31.458c0 2.382-1.93 4.313-4.312 4.313z" fill="#4f4e4f"/><path d="m59.644 55.667h-51.399c-2.346 0-4.248-1.902-4.248-4.248v-30.786c0-2.346 1.902-4.248 4.248-4.248h51.399c2.346 0 4.248 1.902 4.248 4.248v30.787c0 2.346-1.902 4.247-4.248 4.247z" fill="url(#b)"/></svg>