<svg id="af467987-b330-4383-8283-bd4220e5122c" data-name="texte" xmlns="http://www.w3.org/2000/svg" xmlns:xlink="http://www.w3.org/1999/xlink" viewBox="0 0 470.33 67.41"><defs><style>.b0b24444-82d6-4e2b-addc-d955c1f0a2ff{stroke:#9def48;stroke-miterlimit:10;stroke-width:0.75px;fill:url(#ec304df2-73e8-4612-a68d-338f8d0b0e70);}.bf325070-98d4-45d7-b31c-3bb5d084f6f3{fill:#9def48;}</style><linearGradient id="ec304df2-73e8-4612-a68d-338f8d0b0e70" x1="0.38" y1="33.7" x2="469.96" y2="33.7" gradientUnits="userSpaceOnUse"><stop offset="0" stop-color="#032c02"/><stop offset="1" stop-color="#207a09"/></linearGradient></defs><polygon class="b0b24444-82d6-4e2b-addc-d955c1f0a2ff" points="0.38 5.91 102.44 5.91 108.57 0.38 150.31 0.38 158.22 5.91 461.65 6.11 469.96 16 469.96 59.72 50.81 59.72 42.7 67.03 7.89 67.03 0.38 59.72 0.38 5.91"/><path class="bf325070-98d4-45d7-b31c-3bb5d084f6f3" d="M81.68,31l1.79,2a17.64,17.64,0,0,1-4.1,11.9H55.91a16.55,16.55,0,0,1-3.57-7.09h4.25A19.13,19.13,0,0,0,58,41H77.26a16.48,16.48,0,0,0,2.12-6H53.6l-1.79-2a17.67,17.67,0,0,1,4.1-11.9H79.37a16.55,16.55,0,0,1,3.57,7.09H78.69a17.54,17.54,0,0,0-1.43-3.14H58a16.89,16.89,0,0,0-2.14,6Z" transform="translate(-0.06 -0.03)"/><path class="bf325070-98d4-45d7-b31c-3bb5d084f6f3" d="M93,41h19.23a16,16,0,0,0,2.26-8,16,16,0,0,0-2.26-7.95H109.6V21.11h4.75a17.67,17.67,0,0,1,4.1,11.9,17.64,17.64,0,0,1-4.1,11.9H90.89A17.64,17.64,0,0,1,86.79,33a17.67,17.67,0,0,1,4.1-11.9h4.75v3.95H93a15.94,15.94,0,0,0-2.27,8A15.89,15.89,0,0,0,93,41Z" transform="translate(-0.06 -0.03)"/><path class="bf325070-98d4-45d7-b31c-3bb5d084f6f3" d="M155.29,35H129.5a17.08,17.08,0,0,0,2.15,6h2.62v3.95h-4.75a17.15,17.15,0,0,1-4-9.94h-3.73V31h3.73a17.06,17.06,0,0,1,4-9.92H153a17.64,17.64,0,0,1,4.1,11.9ZM129.5,31H153a17.06,17.06,0,0,0-2.13-6H131.65A16.91,16.91,0,0,0,129.5,31Z" transform="translate(-0.06 -0.03)"/><path class="bf325070-98d4-45d7-b31c-3bb5d084f6f3" d="M184.49,35H168.05a17,17,0,0,0,2.14,6h19.56L192,44.91h-24a17.09,17.09,0,0,1-4-9.94h-3.73V31h3.73a17,17,0,0,1,4-9.92h24l-2.28,3.95H170.19a16.89,16.89,0,0,0-2.14,6h16.44Z" transform="translate(-0.06 -0.03)"/><path class="bf325070-98d4-45d7-b31c-3bb5d084f6f3" d="M217.66,41h2.64a17,17,0,0,0,2.12-6H198.93a17,17,0,0,0,2.14,6h2.63v3.95H199a17.09,17.09,0,0,1-4-9.94H191.2V31h3.73a17,17,0,0,1,4-9.92h23.46a17.09,17.09,0,0,1,4,9.94l-1.71,1v2l1.71,1a17.14,17.14,0,0,1-4,9.94h-4.75ZM198.93,31h23.49a16.83,16.83,0,0,0-2.12-6H201.07A16.89,16.89,0,0,0,198.93,31Z" transform="translate(-0.06 -0.03)"/><path class="bf325070-98d4-45d7-b31c-3bb5d084f6f3" d="M261.93,21.11l-15,23.8h-4.55l-15.11-23.8h4.93L244.69,41l12.38-19.87Z" transform="translate(-0.06 -0.03)"/><path class="bf325070-98d4-45d7-b31c-3bb5d084f6f3" d="M269.21,44.91h-3.95V24.48l3.95-3.95Z" transform="translate(-0.06 -0.03)"/><path class="bf325070-98d4-45d7-b31c-3bb5d084f6f3" d="M304.05,31l1.8,2a17.64,17.64,0,0,1-4.1,11.9H278.29a16.55,16.55,0,0,1-3.57-7.09H279A18.33,18.33,0,0,0,280.41,41h19.23a16.48,16.48,0,0,0,2.12-6H276l-1.79-2a17.62,17.62,0,0,1,4.1-11.9h23.46a16.77,16.77,0,0,1,3.57,7.09h-4.25a17.54,17.54,0,0,0-1.43-3.14H280.41a16.89,16.89,0,0,0-2.14,6Z" transform="translate(-0.06 -0.03)"/><path class="bf325070-98d4-45d7-b31c-3bb5d084f6f3" d="M314.78,44.91h-3.95V24.48l3.95-3.95Z" transform="translate(-0.06 -0.03)"/><path class="bf325070-98d4-45d7-b31c-3bb5d084f6f3" d="M347.32,44.91H323.86a17.69,17.69,0,0,1-4.1-11.9,17.64,17.64,0,0,1,4.1-11.9h23.46a17.64,17.64,0,0,1,4.1,11.9A17.69,17.69,0,0,1,347.32,44.91ZM345.21,41a16,16,0,0,0,2.26-8,16,16,0,0,0-2.26-7.95H326a15.89,15.89,0,0,0-2.27,8A15.94,15.94,0,0,0,326,41Z" transform="translate(-0.06 -0.03)"/><path class="bf325070-98d4-45d7-b31c-3bb5d084f6f3" d="M361,25.06a15.89,15.89,0,0,0-2.27,8A15.94,15.94,0,0,0,361,41h2.63v3.95h-4.75a17.69,17.69,0,0,1-4.1-11.9,17.64,17.64,0,0,1,4.1-11.9H382.3A17.64,17.64,0,0,1,386.4,33a17.69,17.69,0,0,1-4.1,11.9h-4.75V41h2.64a16,16,0,0,0,2.26-8,16,16,0,0,0-2.26-7.95Z" transform="translate(-0.06 -0.03)"/></svg>