<svg enable-background="new 0 0 66.037 80.081" viewBox="0 0 66.037 80.081" xmlns="http://www.w3.org/2000/svg"><path d="m63.824 80.081h-61.61c-1.218 0-2.214-.996-2.214-2.214v-75.653c0-1.218.996-2.214 2.214-2.214h61.61c1.218 0 2.214.996 2.214 2.214v75.654c-.001 1.217-.997 2.213-2.214 2.213" fill="#1d1d1b"/><path d="m58.835 40.384v-.686-29.986c0-1.549-1.26-2.809-2.808-2.809h-46.017c-1.549 0-2.809 1.26-2.809 2.809v30.329 30.329c0 1.549 1.26 2.809 2.809 2.809h46.017c1.548 0 2.808-1.26 2.808-2.809z" fill="#fff"/><path d="m56.027 7.544h-46.017c-1.233 0-2.241 1.008-2.241 2.241v30.329 30.329c0 1.233 1.008 2.241 2.241 2.241h46.017c1.233 0 2.241-1.008 2.241-2.241v-29.986-.686-29.986c0-1.233-1.008-2.241-2.241-2.241zm-12.36 32.353-2.132 2.132v3.015c0 1.112-.905 2.017-2.017 2.017h-3.015l-2.132 2.132c-.379.38-.886.589-1.426.589s-1.047-.209-1.426-.589l-2.132-2.132h-3.017c-1.112 0-2.017-.905-2.017-2.017v-3.015l-2.132-2.132c-.379-.38-.588-.886-.588-1.426s.209-1.047.588-1.426l2.132-2.132v-3.015c0-1.112.905-2.017 2.017-2.017h3.015l2.132-2.132c.379-.38.886-.588 1.426-.588s1.047.209 1.426.588l2.132 2.132h3.015c1.112 0 2.017.905 2.017 2.017v3.015l2.132 2.132c.379.38.588.886.588 1.426.002.54-.207 1.046-.586 1.426z" fill="#010101"/><path d="m55.877 54.346h-45.717c-.124 0-.224-.1-.224-.224s.1-.224.224-.224h45.718c.124 0 .224.1.224.224-.001.124-.101.224-.225.224m0 3.726h-45.717c-.124 0-.224-.1-.224-.224s.1-.224.224-.224h45.718c.124 0 .224.1.224.224-.001.124-.101.224-.225.224m0 3.726h-45.717c-.124 0-.224-.1-.224-.224s.1-.224.224-.224h45.718c.124 0 .224.1.224.224-.001.123-.101.224-.225.224m0 3.725h-45.717c-.124 0-.224-.1-.224-.224s.1-.224.224-.224h45.718c.124 0 .224.1.224.224-.001.124-.101.224-.225.224m0 3.726h-45.717c-.124 0-.224-.1-.224-.224s.1-.224.224-.224h45.718c.124 0 .224.1.224.224-.001.124-.101.224-.225.224m-.56-59.314h-29.134c-.124 0-.224-.1-.224-.224s.101-.224.224-.224h29.134c.124 0 .224.1.224.224s-.1.224-.224.224m0 2.085h-29.134c-.124 0-.224-.1-.224-.224s.101-.224.224-.224h29.134c.124 0 .224.1.224.224s-.1.224-.224.224m0 2.084h-29.134c-.124 0-.224-.1-.224-.224s.101-.224.224-.224h29.134c.124 0 .224.1.224.224s-.1.224-.224.224m0 2.084h-29.134c-.124 0-.224-.1-.224-.224s.101-.224.224-.224h29.134c.124 0 .224.1.224.224s-.1.224-.224.224m0 2.084h-29.134c-.124 0-.224-.1-.224-.224s.101-.224.224-.224h29.134c.124 0 .224.1.224.224s-.1.224-.224.224m0 2.084h-29.134c-.124 0-.224-.1-.224-.224s.101-.224.224-.224h29.134c.124 0 .224.1.224.224s-.1.224-.224.224" fill="#585856"/><path d="m38.397 38.397c0 3.012-2.441 5.453-5.453 5.453s-5.453-2.441-5.453-5.453 2.441-5.453 5.453-5.453 5.453 2.441 5.453 5.453" fill="#1d1d1b"/><path d="m32.944 35.485c-1.605 0-2.912 1.306-2.912 2.912 0 1.605 1.306 2.912 2.912 2.912s2.912-1.306 2.912-2.912-1.307-2.912-2.912-2.912m0 6.272c-1.853 0-3.36-1.508-3.36-3.36s1.507-3.36 3.36-3.36 3.36 1.508 3.36 3.36-1.508 3.36-3.36 3.36" fill="#fff"/><path d="m23.337 7.544v12.775h-15.568" fill="none" stroke="#fff" stroke-miterlimit="10" stroke-width=".8008"/><path d="m7.769 20.319h15.568v-12.775h-13.327c-1.233 0-2.241 1.008-2.241 2.241z" fill="#010101"/></svg>