<svg enable-background="new 0 0 55.709 90.43" viewBox="0 0 55.709 90.43" xmlns="http://www.w3.org/2000/svg"><path d="m-73.066-146.58h-35.153c-.475 0-.864-.389-.864-.864l.173-15.633c0-.475.389-.864.864-.864h34.807c.475 0 .864.389.864.864l.173 15.633c-.001.475-.389.864-.864.864m10.278-1.024-1.391-18.708c-.24-3.281-1.853-5.013-3.609-5.013h-45.708c-1.756 0-3.369 1.732-3.609 5.013l-1.391 18.708c0 .041.003.069.008.088-.005.038-.008.076-.008.115v65.641c0 .475.389.864.864.864h53.981c.475 0 .864-.388.864-.864v-65.641c0-.039-.003-.077-.008-.115.004-.019.007-.047.007-.088" fill="#333" transform="translate(118.4972 171.3254)"/><path d="m22.607 90.41h-6.737v-8.79h6.737z" fill="#1d1d1b"/><path d="m51.532 76.957h-47.356c-.658 0-1.197-.539-1.197-1.197v-47.356c0-.658.539-1.197 1.197-1.197h47.356c.658 0 1.197.539 1.197 1.197v47.356c0 .658-.538 1.197-1.197 1.197z" fill="#1d1d1b"/><g fill="#ccc" transform="matrix(.15086951 0 0 -.18193242 .75392 193.65277)"><path d="m54.91 862.844-4.286-6.547-16.074 24.572h8.573z"/><path d="m51.696 871.041 6.429 9.829h8.573l-10.716-16.375z"/><path d="m68.884 880.869h7.523l-.021-24.572h-7.501v24.572z"/><path d="m79.6 880.869h7.523l-.021-24.572h-7.502z"/><path d="m89.244 874.726v6.143h3.215c4.143 0 7.68-1.199 10.609-3.598s4.393-5.294 4.393-8.688-1.465-6.289-4.393-8.688c-2.929-2.399-6.466-3.598-10.609-3.598h-3.215v6.143h3.215c2.071 0 3.84.6 5.304 1.799 1.465 1.199 2.196 2.647 2.196 4.344 0 1.696-.732 3.145-2.196 4.344-1.465 1.199-3.233 1.799-5.304 1.799z"/><path d="m110.719 880.869h7.523l-.021-24.572h-7.501v24.572z"/><path d="m120.363 880.869h11.787v-6.143h-11.787z"/><path d="m120.363 862.44h11.787v-6.143h-11.787z"/><path d="m120.363 871.655h11.787v-6.143h-11.787z"/><path d="m157.847 867.706h7.544c-.229-3.019-1.686-5.622-4.372-7.81-2.929-2.399-6.465-3.598-10.609-3.598-4.143 0-7.68 1.199-10.609 3.598-2.672 2.188-4.122 4.791-4.351 7.81h7.544c.214-1.322.921-2.475 2.122-3.458 1.457-1.205 3.221-1.808 5.293-1.808s3.843.603 5.315 1.808c1.202.983 1.91 2.136 2.123 3.458z"/><path d="m142.996 869.461h-7.544c.229 3.019 1.679 5.622 4.351 7.81 2.929 2.399 6.465 3.598 10.609 3.598s7.68-1.199 10.609-3.598c2.686-2.188 4.144-4.792 4.372-7.81h-7.544c-.214 1.322-.921 2.48-2.122 3.475-1.471 1.194-3.243 1.79-5.315 1.79s-3.836-.597-5.293-1.79c-1.202-.995-1.909-2.153-2.123-3.475z"/><path d="m168.671 880.869h7.501v-24.572h-7.501z"/><path d="m178.315 874.726v6.143h4.029c2.586 0 4.794-.749 6.622-2.246 1.829-1.498 2.743-3.305 2.743-5.423 0-2.13-.914-3.943-2.743-5.441s-4.036-2.246-6.622-2.246h-4.029v6.143h4.029c.515 0 .953.149 1.318.447.364.298.546.664.546 1.097 0 .421-.182.781-.546 1.079-.365.298-.804.448-1.318.448z"/><path d="m208.32 866.126-6.43-9.829h-8.573l10.716 16.375z"/><path d="m211.449 864.635-6.344 9.688 4.286 6.547 16.074-24.572h-8.573l-1.436 2.194h-9.987l4.008 6.143z"/><path d="m241.582 862.493v-6.16c-3.686.187-6.865 1.375-9.537 3.563-2.929 2.399-4.393 5.294-4.393 8.688s1.464 6.289 4.393 8.688c2.672 2.188 5.851 3.376 9.537 3.563v-6.16c-1.614-.176-3.022-.754-4.222-1.737-1.471-1.205-2.208-2.656-2.208-4.353 0-1.696.736-3.142 2.208-4.335 1.2-.996 2.608-1.581 4.222-1.757z"/><path d="m248.912 872.006c-.271.328-.586.638-.943.93-1.214.983-2.629 1.562-4.243 1.737v6.16c3.686-.187 6.865-1.375 9.537-3.563.714-.585 1.343-1.205 1.886-1.861z"/><path d="m255.148 861.756c-.543-.655-1.172-1.276-1.886-1.861-2.672-2.188-5.851-3.375-9.537-3.563v6.16c1.615.175 3.029.761 4.243 1.755.357.293.672.597.943.913z"/></g><path d="m50.675 70.072h-3.832v2.73c0 .842.039 1.213.41 1.678.388.482.936.731 1.517.731.548 0 1.13-.249 1.517-.742.36-.454.388-.803.388-1.667zm-3.728.111h3.628v2.647c0 .764-.022 1.124-.393 1.589-.327.41-.842.67-1.418.67-.57 0-1.113-.271-1.445-.698-.36-.465-.371-.786-.371-1.645zm3.539 3.101c0-.941-.764-1.711-1.722-1.711s-1.728.77-1.728 1.711c0 .958.77 1.728 1.717 1.728.958 0 1.733-.776 1.733-1.728zm-2.885-2.476c0-.255-.233-.255-.515-.255v.648h.177v-.144c.222.001.338-.088.338-.249zm.244-.254h-.161v.648h.161v-.244h.172v.244h.172v-.648h-.172v.238h-.172zm.664 0h-.161v.648h.161zm.332 0h-.166v.648h.338v-.144h-.172zm.427 0h-.166v.648h.166zm.681.254c0-.255-.26-.255-.51-.255v.648h.166v-.144c.189.001.344-.06.344-.249zm.067.25v.155c.055.006.089.011.127.011.199 0 .293-.094.293-.233 0-.21-.238-.144-.238-.233 0-.028.039-.044.111-.044h.061v-.161c-.238 0-.377.033-.377.199 0 .227.255.183.255.255 0 .028-.055.05-.133.05h-.099zm-2.853 2.087c.155-.066.26-.094.382-.094.343 0 .449.222.825.222.282 0 .51-.222.836-.222.277 0 .548.216.764.216.205 0 .338-.072.393-.105l.006.066c-.105.078-.205.122-.377.122-.305 0-.487-.222-.792-.222-.327 0-.526.227-.831.227-.338 0-.504-.216-.814-.216-.127 0-.294.039-.393.078v-.072zm.809-1.246c.177-.094.227-.111.36-.15l-.044.277-.288.051zm0 1.152.066-.476.532-.089-.188-.033.044-.299.31-.066-.31-.061-.044-.294c.155-.033.233-.044.366-.044.87 0 1.44.604 1.606 1.351-.083.061-.194.111-.371.111-.316 0-.46-.222-.809-.222-.343 0-.493.233-.82.233-.177 0-.288-.044-.382-.111zm.028-.941.288.044.033.282-.282-.039zm-.842 1.24c.255-.083.288-.094.388-.094.349 0 .482.222.82.222.271 0 .521-.233.831-.233.288 0 .449.221.792.221.116 0 .222-.028.382-.089v.061c-.138.083-.233.111-.399.111-.343 0-.487-.216-.781-.216-.349 0-.504.222-.831.222-.316 0-.504-.216-.831-.216-.083 0-.188.022-.366.078zm.016.183c.15-.055.244-.078.36-.078.332 0 .493.227.82.227.31 0 .504-.227.831-.227.155 0 .266.039.366.105l-.055.443-.537.1.188.044-.033.288-.327.066.327.083.05.26c-.144.033-.233.044-.371.044-.843.002-1.497-.585-1.619-1.355zm0-.515c.044-.233.078-.321.177-.504l.51.061.05.449c-.177-.072-.266-.094-.354-.094-.133-.001-.277.044-.383.088zm2.033 1.141.288.033.028.271-.282-.028zm.017.665.017-.238.288-.055.028.15c-.117.071-.167.093-.333.143zm-1.961-4.11c.1 0 .138.017.138.089 0 .083-.039.105-.138.105zm2.343 0c.1 0 .144.006.144.1 0 .078-.061.094-.144.094zm.011 2.88c.138.044.255.072.388.072.116 0 .183-.017.343-.089-.028.183-.083.332-.166.476l-.526-.05zm.011 1.052.028-.454.476-.066c-.139.238-.238.349-.504.52zm-2.243-2.187c.138-.216.26-.366.532-.532l-.055.471z" fill="#f5f6f6"/><g fill="#f3f3f3" transform="scale(.99906918 1.0009317)"><path d="m6.039 69.788h.835c.248 0 .438.055.571.166.133.11.2.266.2.47 0 .205-.067.362-.2.473-.132.11-.323.165-.571.165h-.332v.677h-.503zm.503.365v.545h.278c.098 0 .173-.024.226-.071.053-.048.08-.115.08-.202s-.027-.154-.08-.201-.128-.071-.226-.071z"/><path d="m7.998 69.788h.503v.743h.742v-.743h.503v1.95h-.503v-.827h-.742v.827h-.503z"/><path d="m10.24 69.788h.503v1.95h-.503z"/><path d="m11.238 69.788h.503v1.57h.883v.38h-1.386z"/><path d="m12.942 69.788h.503v1.95h-.503z"/><path d="m13.94 69.788h.835c.248 0 .438.055.571.166.133.11.2.266.2.47 0 .205-.067.362-.2.473-.132.11-.323.165-.571.165h-.332v.677h-.503zm.503.365v.545h.278c.098 0 .173-.024.226-.071.053-.048.08-.115.08-.202s-.027-.155-.08-.202-.128-.071-.226-.071h-.278z"/><path d="m17.257 69.85v.413c-.107-.048-.212-.084-.314-.108s-.198-.037-.289-.037c-.12 0-.209.017-.266.05s-.086.084-.086.154c0 .052.019.093.057.123.039.029.11.054.212.074l.214.043c.217.044.371.11.462.199s.137.215.137.379c0 .215-.064.375-.192.481-.127.105-.322.157-.584.157-.124 0-.248-.012-.372-.035-.125-.024-.249-.058-.374-.105v-.425c.125.066.245.116.361.15.117.033.229.05.337.05.11 0 .194-.018.252-.055s.088-.089.088-.157c0-.061-.02-.108-.06-.141-.039-.033-.118-.063-.236-.089l-.195-.043c-.195-.042-.338-.108-.428-.2-.09-.091-.135-.215-.135-.37 0-.194.063-.344.188-.448.125-.105.306-.157.541-.157.107 0 .217.008.331.025.112.016.23.039.351.072z"/></g><path d="m27.283 41.491h1.142v28.327h-1.142z" fill="#ccc"/><path d="m33.777 69.818-5.922 6.558-5.924-6.523z" fill="#ccc"/><path d="m45.536 34.741h-1.541v-1.542h-1.778v1.542h-1.542v1.778h1.542v1.541h1.778v-1.541h1.541z" fill="none" stroke="#fff" stroke-miterlimit="10" stroke-width=".25"/></svg>