<svg xmlns="http://www.w3.org/2000/svg" xmlns:xlink="http://www.w3.org/1999/xlink" viewBox="0 0 470.33 67.41"><defs><style>.e9e366cf-cfc9-4614-bb97-469f96734097{stroke:#9def48;stroke-miterlimit:10;fill:url(#b4a8a269-c2af-4e1e-8931-168174ed8fa9);}.b5eac690-e0ca-4a57-b0d9-8109fe8af31c,.e9e366cf-cfc9-4614-bb97-469f96734097{stroke-width:0.75px;}.b0a07bf4-cdd5-4e43-85b0-cbc343769b22{fill:#9def48;}.bb6a269c-802d-4360-a6d3-6e75b3dd4dcf,.e3784cf9-684b-40fb-a0ee-d511a51c7924{fill:#0b5ed8;}.e3784cf9-684b-40fb-a0ee-d511a51c7924{stroke:#000;stroke-width:0.25px;}.b5eac690-e0ca-4a57-b0d9-8109fe8af31c,.e3784cf9-684b-40fb-a0ee-d511a51c7924{stroke-miterlimit:15.12;}.b5eac690-e0ca-4a57-b0d9-8109fe8af31c{fill:#f9f9f9;stroke:#1a1a1a;}</style><linearGradient id="b4a8a269-c2af-4e1e-8931-168174ed8fa9" x1="0.38" y1="33.7" x2="469.96" y2="33.7" gradientUnits="userSpaceOnUse"><stop offset="0" stop-color="#032c02"/><stop offset="1" stop-color="#207a09"/></linearGradient></defs><g id="f0924d4a-4bc4-4106-bee4-430cd04b4899" data-name="texte"><polygon class="e9e366cf-cfc9-4614-bb97-469f96734097" points="0.38 5.91 102.44 5.91 108.57 0.38 150.31 0.38 158.22 5.91 461.65 6.11 469.96 16 469.96 59.72 50.81 59.72 42.7 67.03 7.89 67.03 0.38 59.72 0.38 5.91"/><path class="b0a07bf4-cdd5-4e43-85b0-cbc343769b22" d="M86.45,20.84l-15,23.8H66.88L51.77,20.84H56.7L69.2,40.71,81.59,20.84Z" transform="translate(-0.06 -0.03)"/><path class="b0a07bf4-cdd5-4e43-85b0-cbc343769b22" d="M93.72,44.64h-4V24.21l4-4Z" transform="translate(-0.06 -0.03)"/><path class="b0a07bf4-cdd5-4e43-85b0-cbc343769b22" d="M99.53,20.84h26.23a17.59,17.59,0,0,1,4.1,11.9,17.64,17.64,0,0,1-4.1,11.9H99.53Zm4,19.85h20.18a16,16,0,0,0,2.25-7.95,16,16,0,0,0-2.25-8H103.48Z" transform="translate(-0.06 -0.03)"/><path class="b0a07bf4-cdd5-4e43-85b0-cbc343769b22" d="M157.36,34.7H140.92a17,17,0,0,0,2.14,6h19.56l2.27,4H140.94a17.09,17.09,0,0,1-4-9.94h-3.74V30.76h3.74a17,17,0,0,1,4-9.92h23.95l-2.27,3.95H143.06a16.89,16.89,0,0,0-2.14,6h16.44Z" transform="translate(-0.06 -0.03)"/><path class="b0a07bf4-cdd5-4e43-85b0-cbc343769b22" d="M194.11,44.64H170.65a17.69,17.69,0,0,1-4.1-11.9,17.64,17.64,0,0,1,4.1-11.9h23.46a17.59,17.59,0,0,1,4.1,11.9A17.64,17.64,0,0,1,194.11,44.64Zm-2.11-4a16,16,0,0,0,2.26-7.95,15.87,15.87,0,0,0-2.26-8H172.78a15.8,15.8,0,0,0-2.28,8,15.89,15.89,0,0,0,2.28,7.95Z" transform="translate(-0.06 -0.03)"/><path class="b0a07bf4-cdd5-4e43-85b0-cbc343769b22" d="M235.05,34.7H209.27a17,17,0,0,0,2.14,6H214v4h-4.74a17.09,17.09,0,0,1-4-9.94h-3.74V30.76h3.74a17,17,0,0,1,4-9.92h23.45a17.59,17.59,0,0,1,4.1,11.9Zm-25.78-3.94h23.49a17.23,17.23,0,0,0-2.12-6H211.41A16.89,16.89,0,0,0,209.27,30.76Z" transform="translate(-0.06 -0.03)"/><path class="b0a07bf4-cdd5-4e43-85b0-cbc343769b22" d="M243.37,38l-4.17,6.62h-4.93l15.13-23.8h4.54l15,23.8h-4.86L260,38Zm14.14-3.94-5.81-9.31-5.86,9.31Z" transform="translate(-0.06 -0.03)"/><path class="b0a07bf4-cdd5-4e43-85b0-cbc343769b22" d="M296.66,37.55h4.25a16.6,16.6,0,0,1-3.57,7.09H273.88a17.69,17.69,0,0,1-4.1-11.9,17.67,17.67,0,0,1,4.1-11.9h23.46a16.57,16.57,0,0,1,3.57,7.08h-4.25a17.08,17.08,0,0,0-1.43-3.13H276a15.8,15.8,0,0,0-2.28,8A15.89,15.89,0,0,0,276,40.69h19.22A17.8,17.8,0,0,0,296.66,37.55Z" transform="translate(-0.06 -0.03)"/><path class="b0a07bf4-cdd5-4e43-85b0-cbc343769b22" d="M347.71,34.7H321.93a17,17,0,0,0,2.14,6h2.62v4h-4.75a17.14,17.14,0,0,1-4-9.94h-3.74V30.76h3.74a17.05,17.05,0,0,1,4-9.92H345.4a17.59,17.59,0,0,1,4.1,11.9Zm-25.78-3.94h23.49a17.06,17.06,0,0,0-2.13-6H324.07A16.89,16.89,0,0,0,321.93,30.76Z" transform="translate(-0.06 -0.03)"/><path class="b0a07bf4-cdd5-4e43-85b0-cbc343769b22" d="M357.52,40.69h17.9l2.27,4H353.57V24.21l3.95-4Z" transform="translate(-0.06 -0.03)"/><path class="b0a07bf4-cdd5-4e43-85b0-cbc343769b22" d="M385.58,40.69H404.8a15.87,15.87,0,0,0,2.26-7.95,15.93,15.93,0,0,0-2.26-8h-2.64V20.84h4.75a17.67,17.67,0,0,1,4.1,11.9,17.64,17.64,0,0,1-4.1,11.9H383.45a17.64,17.64,0,0,1-4.1-11.9,17.67,17.67,0,0,1,4.1-11.9h4.75v3.95h-2.62a15.86,15.86,0,0,0-2.28,8A15.8,15.8,0,0,0,385.58,40.69Z" transform="translate(-0.06 -0.03)"/><path class="b0a07bf4-cdd5-4e43-85b0-cbc343769b22" d="M444.2,30.76l1.79,2a17.64,17.64,0,0,1-4.1,11.9H418.43a16.6,16.6,0,0,1-3.57-7.09h4.25a18.39,18.39,0,0,0,1.45,3.14h19.22a16.69,16.69,0,0,0,2.13-6H416.12l-1.79-2a17.67,17.67,0,0,1,4.1-11.9h23.46a16.57,16.57,0,0,1,3.57,7.08h-4.25a17.08,17.08,0,0,0-1.43-3.13H420.56a16.69,16.69,0,0,0-2.14,6Z" transform="translate(-0.06 -0.03)"/></g><g id="a5ecdb98-abc0-45b1-a461-ac3bdace87e1" data-name="philips"><path class="e3784cf9-684b-40fb-a0ee-d511a51c7924" d="M30.35,13.18c-.17,1.14-.21,1.3-.37,1.41a6.43,6.43,0,0,1-2.66,0,.29.29,0,0,1-.08-.29,6.39,6.39,0,0,0,.25-2c0-.7-.21-1-.54-1s-.31.09-.84,1.43a3.39,3.39,0,0,1-.72,1.26,3.57,3.57,0,0,1-4.93-.1,3.36,3.36,0,0,1-.89-3.07c0-.49.07-1,.08-1.07,0-.37.15-.41,1.48-.41,1,0,1.25,0,1.36.13a.29.29,0,0,1,.08.29,3.39,3.39,0,0,0,.05,2.3c.33.36.56.18.88-.69.58-1.55,1-2.15,1.74-2.53A3.93,3.93,0,0,1,29,9a3.57,3.57,0,0,1,1.2,1.64,8,8,0,0,1,.19,2.51ZM30,54.2c-.11.16-.16.16-5.07.16-3,0-5,0-5.08-.08a14.92,14.92,0,0,1-.12-4.5,3.69,3.69,0,0,1,3-2.78,4.54,4.54,0,0,1,3.09.4A3.72,3.72,0,0,1,28,50.88l0,.67h.66c1.06,0,1.27,0,1.38.2a6.27,6.27,0,0,1,0,2.44Zm-4.78-3.3a1.4,1.4,0,0,0-1.67-1,1.19,1.19,0,0,0-1.19,1.26l0,.51h.43c.23,0,.9,0,1.49-.05C25.46,51.52,25.42,51.56,25.25,50.9ZM30,46.13c-.11.11-.68.13-5.1.13s-5,0-5.09-.13-.13-.33-.13-1.27a3.33,3.33,0,0,1,.1-1.24,7.62,7.62,0,0,1,1.87-.09h1.77v-2H21.72c-1.49,0-1.77,0-1.87-.12s-.12-.33-.12-1.27a8.07,8.07,0,0,1,.06-1.25c.06-.08.94-.1,5.12-.1,4.74,0,5.06,0,5.15.14a6.46,6.46,0,0,1,0,2.48c-.1.1-.4.12-2,.12H26.15v2H28c1.61,0,1.91,0,2,.12a5.76,5.76,0,0,1,0,2.48Zm0-9.08a46.14,46.14,0,0,1-5.17.09c-4.56,0-5.09,0-5.13-.12a11,11,0,0,1-.05-1.24c0-.92,0-1.14.13-1.24s.68-.13,5.09-.13,5,0,5.1.13.12.33.12,1.27A3.52,3.52,0,0,1,30.07,37.05Zm0-4.39c-.11.1-.68.12-5.12.12a39.83,39.83,0,0,1-5.1-.1,7.28,7.28,0,0,1,0-2.55,26.33,26.33,0,0,1,3.86-.08h3.74V29a10.19,10.19,0,0,1,0-1.17,4.08,4.08,0,0,1,1.29-.09c1.15,0,1.25,0,1.32.15a17.45,17.45,0,0,1,.08,2.41c0,1.95,0,2.28-.12,2.39Zm0-5.78C30,27,29.6,27,25,27a45.63,45.63,0,0,1-5.12-.09,6.12,6.12,0,0,1,0-2.52c.11-.11.67-.12,5.06-.12,4.84,0,4.95,0,5.1.15s.15.26.15,1.23a3.85,3.85,0,0,1-.09,1.21Zm0-4.46a.59.59,0,0,1-.13.17c-.13.09-10,.07-10.1,0a14.69,14.69,0,0,1-.11-4.51,3.79,3.79,0,0,1,3.66-2.86,4.58,4.58,0,0,1,3.47,1.22A3.81,3.81,0,0,1,28,19.23v.69h1a2.92,2.92,0,0,1,1.07.08c.09.08.11.33.11,1.2,0,.6,0,1.15-.05,1.22ZM25.22,19.1a1.32,1.32,0,0,0-1.48-1,1.28,1.28,0,0,0-1.37,1.38v.4h3v-.21a2.91,2.91,0,0,0-.11-.59Z" transform="translate(-0.06 -0.03)"/><path class="b5eac690-e0ca-4a57-b0d9-8109fe8af31c" d="M30.21,63.27a5.24,5.24,0,0,1-.4.46,4.44,4.44,0,0,1-2.92,1.33c-.17,0-7.06.08-7,0s0,0,0-.08-.1-.9-.13-1.3a42.67,42.67,0,0,1-.07-5.05c0-.91.14-2.15.2-2.52v0h3.5c2.94,0,3.52,0,3.66,0a4.52,4.52,0,0,1,3.14,1.72,4.59,4.59,0,0,1,.06,5.47Z" transform="translate(-0.06 -0.03)"/><path class="bb6a269c-802d-4360-a6d3-6e75b3dd4dcf" d="M31.09,60.85a4.54,4.54,0,0,1-.88,2.42,5.24,5.24,0,0,1-.4.46,4.44,4.44,0,0,1-2.92,1.33c-.17,0-7.06.08-7,0s0,0,0-.08-.1-.9-.13-1.3a42.67,42.67,0,0,1-.07-5.05c0-.91.14-2.15.2-2.52v0h3.5c2.94,0,3.52,0,3.66,0a4.51,4.51,0,0,1,4.08,4.77Zm-.6-.63a4,4,0,0,0-.41-1.43.31.31,0,0,0-.07-.12l-.81.11c-.23,0-.33.08-.4.19a.72.72,0,0,0-.1.35c0,.16-.13.93-.13,1h-.06l-.05-.4a5.05,5.05,0,0,0-.14-.84.22.22,0,0,0-.09-.13c-.08-.09-.15-.11-.4-.15l-1-.12s0,0,0,.21a5.19,5.19,0,0,0,.52,1.2,4.75,4.75,0,0,1,.75,2.25,3.52,3.52,0,0,1-.45,1.92.42.42,0,0,0-.05.1,4.15,4.15,0,0,0,.63-.24,4.07,4.07,0,0,0,1.05-.74,3.94,3.94,0,0,0,1.15-2.49c0-.11,0-.52,0-.64Zm-.27-.62-.49.07a.17.17,0,0,0-.13.15,1.8,1.8,0,0,0,0,.26c0,.18,0,.22,0,.21s0-.1,0-.23,0-.3-.08-.35-.09-.05-.35-.08l-.23,0s0,0,.11,0a2.56,2.56,0,0,0,.43-.08c.07,0,.09-.07.13-.42l0-.18a0,0,0,0,1,0,0s0,0,.06.29,0,.27.09.31a.77.77,0,0,0,.31.07c.25,0,.26,0,.26.05Zm-.4-1.24a3.73,3.73,0,0,0-1.07-1.06l-.14-.08s.07.55.1.75.06.28.14.35a.56.56,0,0,0,.29.12l.77.1s0,0,0,0l-.11-.15Zm-1.5-1.31a3.69,3.69,0,0,0-.6-.23,3.19,3.19,0,0,0-.59-.13c-.08,0-.07,0-.14.17a4.16,4.16,0,0,0-.19,1,3.87,3.87,0,0,0,0,.71s0,0,0,0l1-.14c.27,0,.37-.11.44-.27s.06-.31.11-.71S28.51,57.14,28.32,57.05Zm-.78,5.37a3.33,3.33,0,0,0-.26-1.11c0-.11-.22-.47-.39-.81a7.5,7.5,0,0,1-.59-1.38,3.22,3.22,0,0,1-.1-1,3.33,3.33,0,0,1,.31-1.39,1,1,0,0,0,0-.12,4.05,4.05,0,0,0-.45,0s-.05,0-.1.12a3.73,3.73,0,0,0-.39,1.3c0,.06,0,.22,0,.36a3,3,0,0,0,.13.95,6.36,6.36,0,0,0,.53,1.22l.33.69A3.88,3.88,0,0,1,27,62.51a5.48,5.48,0,0,1,0,.91,3.36,3.36,0,0,1-.28.93l-.06.13h.49l.05-.09a2.84,2.84,0,0,0,.31-.8,3.67,3.67,0,0,0,.1-1.14Zm-1.21.26,0-.11s-.5,0-.87.1-.42.08-.52.17-.11.21-.19.84l0,.3.1.06a4.3,4.3,0,0,0,.76.3,2.52,2.52,0,0,0,.48.09h.08l0-.11a3.82,3.82,0,0,0,.2-1,3.87,3.87,0,0,0,0-.61Zm-.07-.35a5.48,5.48,0,0,0-.57-1.4,8.82,8.82,0,0,1-.45-1,3.56,3.56,0,0,1-.09-2.32,3.61,3.61,0,0,1,.31-.71c.06-.1.05-.1-.13,0a4,4,0,0,0-1.32.76,4.52,4.52,0,0,0-.48.5,4,4,0,0,0-.84,2.05,5.89,5.89,0,0,0,0,.84c0,.16.08.5.09.51s.45-.05.56-.07a.27.27,0,0,0,.19-.12,2.14,2.14,0,0,0,.07-.43c0-.26,0-.27.05-.27s0,0,0,.12a4.21,4.21,0,0,0,.1.58.25.25,0,0,0,.19.12l.53.07s0-.15,0-.33l.05-.34h.06s.11.88.13,1,.06.3.14.38.16.12.52.17l.82.1s0,0,0-.16Zm-1.74,1.3c-.08-.62-.09-.69-.19-.79s-.19-.13-.69-.19l-.39,0a2.26,2.26,0,0,0,.22.33,4.32,4.32,0,0,0,.77.77l.3.2s0,0,0-.27Zm-.05-2.05-.19,0c-.41,0-.48.08-.51.24a5,5,0,0,0-.08.56,3.24,3.24,0,0,0,.46-.07.43.43,0,0,0,.28-.29l.08-.45s0,0,0,0Zm-.86.57a1.29,1.29,0,0,0-.08-.39c0-.06-.1-.1-.23-.12l-.48-.07a1.94,1.94,0,0,0,.19.57,2.22,2.22,0,0,0,.16.32l.24,0c.19,0,.23,0,.23,0s0-.12,0-.25ZM22.08,57a.43.43,0,0,0-.43-.38c-.22,0-.31.09-.43.42-.06.15-.1.21-.15.23s-.09,0-.11-.07a.89.89,0,0,1,0-.39l0-.09-.29,0a1.74,1.74,0,0,0,0,.59.63.63,0,0,0,.14.27.4.4,0,0,0,.54,0,.84.84,0,0,0,.15-.29c.08-.21.12-.26.2-.25s.11.07.11.21a1.34,1.34,0,0,1-.07.39.44.44,0,0,0,0,.08,1.78,1.78,0,0,0,.3,0s0,0,.05-.16a1.4,1.4,0,0,0,0-.54Zm-.17,7h-.17v-.14a.6.6,0,0,0-.28-.59.49.49,0,0,0-.31-.06.4.4,0,0,0-.2,0c-.17.09-.26.25-.28.56a5.24,5.24,0,0,0,0,.58v0h1.37V64Zm-.69,0h-.29V63.9a.27.27,0,0,1,.14-.27.42.42,0,0,1,.25,0,.26.26,0,0,1,.17.26V64Zm.58-1.35h-.27v-.44h.54v-.42H20.7v.42h.54v.44H20.7V63h1.37v-.42ZM21.38,61H20.7v.43h1.37V61ZM22,59.94l-.14,0h0v.4H20.7v.43h1.37V60Zm-.58-.61H20.7v.43h1.37v-.43Zm.53-.73h-.17v-.13a1.41,1.41,0,0,0,0-.22.54.54,0,0,0-.66-.43c-.25,0-.38.23-.4.6a5.06,5.06,0,0,0,0,.58s0,0,.7,0h.68V58.6Zm-.69,0h-.29v-.07c0-.19.08-.28.25-.3a.27.27,0,0,1,.31.28v.09Z" transform="translate(-0.06 -0.03)"/></g></svg>