<svg xmlns="http://www.w3.org/2000/svg" xmlns:xlink="http://www.w3.org/1999/xlink" viewBox="0 0 746.51 822.18"><defs><radialGradient id="a6c1cfe9-92d7-4211-bbc4-d26632232219" cx="121.61" cy="382.1" r="5.66" gradientTransform="matrix(1 0 0 .6 0 152.84)" xlink:href="#b762d3fb-9cfd-4e6f-95bc-f5da9cfe76d9"/><radialGradient id="f17918e3-483b-46f0-86bf-9a0d536cc4c3" cx="217.55" cy="416.02" r="5.66" xlink:href="#aec57d27-d137-4ef1-93cd-676e63efe04a"/><radialGradient id="f6db1853-2f3a-46b7-854e-865308dbb44b" cx="195.83" cy="370.99" r="11.47" xlink:href="#aec57d27-d137-4ef1-93cd-676e63efe04a"/><radialGradient id="b762d3fb-9cfd-4e6f-95bc-f5da9cfe76d9" cx="92.36" cy="393.88" r="5.66" gradientTransform="matrix(1 0 0 .6 0 157.55)" gradientUnits="userSpaceOnUse"><stop offset="0" stop-color="#0000ef"/><stop offset=".15" stop-color="#0000e9"/><stop offset=".34" stop-color="#0101d9"/><stop offset=".56" stop-color="#0101be"/><stop offset=".79" stop-color="#02029a"/><stop offset="1" stop-color="#020282"/></radialGradient><radialGradient id="b4f25c3f-fc75-4cd9-bfb2-c6f62836b854" cx="114.61" cy="393.88" r="5.66" xlink:href="#b762d3fb-9cfd-4e6f-95bc-f5da9cfe76d9"/><radialGradient id="bfeb8ee4-cd94-46c6-9728-061ce936f4db" cx="133.17" cy="400.04" r="5.66" gradientTransform="matrix(1 0 0 .6 0 160.02)" xlink:href="#b762d3fb-9cfd-4e6f-95bc-f5da9cfe76d9"/><radialGradient id="b3738c81-cdca-40ba-8f62-cc9c93fe92ff" cx="139.21" cy="387.78" r="5.66" gradientTransform="matrix(1 0 0 .6 0 155.11)" xlink:href="#b762d3fb-9cfd-4e6f-95bc-f5da9cfe76d9"/><radialGradient id="aec57d27-d137-4ef1-93cd-676e63efe04a" cx="65.88" cy="348.77" r="11.47" gradientUnits="userSpaceOnUse"><stop offset="0" stop-color="#fd6d66"/><stop offset=".78" stop-color="#b50a03"/></radialGradient><radialGradient id="e970b97c-2ec4-4389-a0e0-853ade2cf08b" cx="100.32" cy="382.53" r="5.66" gradientTransform="matrix(1 0 0 .6 0 153.01)" xlink:href="#b762d3fb-9cfd-4e6f-95bc-f5da9cfe76d9"/><radialGradient id="fae19205-a082-41ab-90f1-3193119ee954" cx="225.51" cy="404.67" r="5.66" xlink:href="#aec57d27-d137-4ef1-93cd-676e63efe04a"/><radialGradient id="fa3bb5a8-6255-47b7-ad0a-1ac190e165b2" cx="246.79" cy="404.24" r="5.66" xlink:href="#aec57d27-d137-4ef1-93cd-676e63efe04a"/><radialGradient id="bd423110-5069-487a-a44e-fc599244f981" cx="264.4" cy="409.93" r="5.66" xlink:href="#aec57d27-d137-4ef1-93cd-676e63efe04a"/><radialGradient id="efd9446f-b2df-42b3-9675-76c3eec1dbd8" cx="258.36" cy="422.19" r="5.66" xlink:href="#aec57d27-d137-4ef1-93cd-676e63efe04a"/><radialGradient id="ba438adf-36a0-430a-93d9-e04eb61fca05" cx="239.79" cy="416.02" r="5.66" xlink:href="#aec57d27-d137-4ef1-93cd-676e63efe04a"/><style>.ad87d3ee-dc2c-4ad0-a281-4a28b8119edb{fill:#373735}.eee6b14e-9563-4c9b-9669-ee4a5e6dd3e9{fill:#121211}.a99b9f03-30c6-4d63-9a26-73182c2d1f5a,.ecac108e-c2f0-48b3-ae61-fd07385f8330,.eee6b14e-9563-4c9b-9669-ee4a5e6dd3e9,.efd56bb8-35a9-43a3-a144-9da44e813df1,.f36f9153-af8f-4e9e-a882-f1040f57e217{stroke:#b5b5b5}.a99b9f03-30c6-4d63-9a26-73182c2d1f5a,.b65921bd-c7a8-4132-b686-4e10eb411040,.bd7ee352-c0ff-46f5-8c7f-92d4e247b3b2,.ecac108e-c2f0-48b3-ae61-fd07385f8330,.eee6b14e-9563-4c9b-9669-ee4a5e6dd3e9,.efd56bb8-35a9-43a3-a144-9da44e813df1,.f36f9153-af8f-4e9e-a882-f1040f57e217,.fe6259a6-2c7f-496c-a439-f2f205109191{stroke-miterlimit:10}.a99b9f03-30c6-4d63-9a26-73182c2d1f5a,.bd7ee352-c0ff-46f5-8c7f-92d4e247b3b2,.ecac108e-c2f0-48b3-ae61-fd07385f8330,.eee6b14e-9563-4c9b-9669-ee4a5e6dd3e9,.efd56bb8-35a9-43a3-a144-9da44e813df1,.f36f9153-af8f-4e9e-a882-f1040f57e217{stroke-width:.5px}.b65921bd-c7a8-4132-b686-4e10eb411040{fill:#443840;stroke:#090000}.bd7ee352-c0ff-46f5-8c7f-92d4e247b3b2{stroke:#090000}.b65921bd-c7a8-4132-b686-4e10eb411040{stroke-width:.75px}.bd7ee352-c0ff-46f5-8c7f-92d4e247b3b2{fill:#6b0c05}.e281fbd5-2782-4426-95c6-900adf17abf7{fill:#86382f}.fe6259a6-2c7f-496c-a439-f2f205109191{stroke:#373737}.f36f9153-af8f-4e9e-a882-f1040f57e217{fill:#dc6e05}.a99b9f03-30c6-4d63-9a26-73182c2d1f5a{fill:#12e600}.efd56bb8-35a9-43a3-a144-9da44e813df1{fill:#0b47ce}.ecac108e-c2f0-48b3-ae61-fd07385f8330,.f3b5b520-e67a-4045-9826-3829c3cf62ee{fill:#282826}.f0aa099a-f0fc-4997-9c79-e06f6356f36f{fill:#ae7a82}.b7486df5-5ea4-4c91-8b60-68b6c5975dec{fill:url(#aec57d27-d137-4ef1-93cd-676e63efe04a)}.b9f1237a-6a98-409e-991f-b7263e3c1ed9{fill:url(#f6db1853-2f3a-46b7-854e-865308dbb44b)}.ac25b9e9-fd1d-4f96-9e1a-10895c6a74d5{fill:#0000ef}.a61d8771-f9eb-4804-8fd0-ca1d04ef77a8{fill:#930303}.a0d05001-d234-4705-82ea-a6fa9ae0c434{fill:#e7e7e7}.a948484e-d566-4b72-a129-fb94a02cfb8d{fill:#2c2b29}.b0e01f12-0d64-4450-a974-3e8d99973675{fill:#020202}.ef56cb92-5e42-46ed-9946-ff77c16a5ef0{fill:#ec1d25}</style></defs><g id="ed987f46-a7ac-4434-9f3b-a1dfd32d7af2" data-name="Calque 1"><path id="eddf2b9b-7f8f-45b6-9642-d88b30f98bd1" data-name="ombre" style="opacity:.5;fill:#373735" d="m452.03 588.79 21.51-5.91H485.41l1.58 2.96 237.36 43.3h11.08l11.07 31.39-46.41 37.71-46.42 13.19-8.18-1.32.27-1.85-13.98-2.63-83.6 27.95-73.32 51.57-22.83 6.82-7.77-1.16v-2.63l-16.08-3.03-129.99 34.37 153.84-230.73z"/><g id="bb0497dd-9f62-47ae-be96-447603cb0b1f" data-name="bottom"><path class="ad87d3ee-dc2c-4ad0-a281-4a28b8119edb" d="m36 454.56 224.9 39.62v4.35l25.72 6.13-.4 311.34-248.24-47.27L36 454.56z"/><path class="eee6b14e-9563-4c9b-9669-ee4a5e6dd3e9" d="m202 526.54-78.38-13.74c-3 .19-4.26 3.56-4.26 3.56l.2 85c.69 2.18 3.86 5 3.86 5l74.27 13.46c5.14.49 7.52-5.25 7.52-5.25v-82.69a7.12 7.12 0 0 0-3.21-5.34zm-49.9 22.55-18.69-3.46v-20l2.27-1.88 18.1 3.07-1.78 2.69zm31.45 6.13-18.69-3.46v-20l2.27-1.87 18.1 3.06-1.78 2.67z" transform="translate(-.98 -.52)"/><path class="b65921bd-c7a8-4132-b686-4e10eb411040" d="m134.7 523.25-2.27 1.88v19.98l18.69 3.46-.1-19.58 1.78-2.67-18.1-3.07zM166.15 529.38l-2.27 1.88v19.98l18.69 3.46-.1-19.58 1.78-2.67-18.1-3.07z"/><path class="bd7ee352-c0ff-46f5-8c7f-92d4e247b3b2" d="M140.14 543.03v-12.85l8.01 1.78v12.56l-8.01-1.49zM171.2 548.87v-12.86l8.01 1.78v12.56l-8.01-1.48z"/><path d="M135.23 543.16v-15.23l2.05.4v15.16l-2.05-.33zM166.68 548.7v-15.23l2.04.4v15.16l-2.04-.33z"/><path class="e281fbd5-2782-4426-95c6-900adf17abf7" d="M140.4 530.69v-.35l7.47 1.8.01.43-7.48-1.88zM171.46 536.62v-.29l7.47 1.64.01.35-7.48-1.7z"/><circle cx="192.4" cy="574.85" r="4.25" style="fill:#8b8b8b;stroke-width:.75px;stroke:#090000;stroke-miterlimit:10"/><path class="fe6259a6-2c7f-496c-a439-f2f205109191" d="M136.29 598.71v-11.27l11.96 2.18v11.3l-11.96-2.21zM167.54 604.25v-11.27l11.96 2.17v10.88l-11.96-1.78z"/></g><g id="a3db41cf-a0b5-4aee-9248-8bf9ed4487c2" data-name="t molding"><path d="m11.46 450.59-.79-39.76L1 407.66v45.1l27.89 5.54c.59 103.55 1 207.6 1.58 311.15a6.18 6.18 0 0 0 3.53 2.19 12.58 12.58 0 0 0 5 0l-2-316.56zM272.36 497v-41.27l-10.28-1.19-.2 44.51 25.71 6.13s-1.51 313.85 0 315.69 8.77 1.32 8.77 1.32l.93-319.91z" transform="translate(-.98 -.52)"/><path d="m78.72 346.42-8.15-1.3 16.26-218.56 9.04 1.5-17.15 218.36zM329.24 388.85l9.1 1.28 18.49-224.31h-26.37l-.26-90.92-10.06-1.84v94.84l6.04 1.09h20.27l-17.21 219.86z"/><path d="M88.49 127.19s-28.17-.35-29.11-.85c0-31.21.06-62.83 0-94l9.36 2.64.48 89.02z" transform="translate(-.98 -.52)"/><g id="b1da858a-8316-482d-a149-e18e782a7134" data-name="clair"><path d="m0 407.14 9.69 3.17L78 346.25l-8.11-1.94L0 407.14zM261.1 454.02l10.28 1.19 66.96-65.87-8.62-1.6-68.62 66.28zM111.56 0 58.42 31.78l9.36 2.64L120.36 3.3l2.74-1.62-2.57-.36L111.56 0zM383.74 40.62l-11.21-.8-52.39 33.24 10.06 1.84 53.54-34.28z"/></g></g><g id="a53358d2-4e52-48d6-b0fe-9f857a823bfa" data-name="side"><path class="eee6b14e-9563-4c9b-9669-ee4a5e6dd3e9" d="m453.13 308.64.63-159.63-70.02-108.39L330.2 74.9l.26 90.92h26.37l-18.49 224.31-66.96 65.08v41.27l24.93 5.28-.93 319.91 8.25-6.32 149.65-543.7-.21 21.51-142.1 516.55-1.61 1.24 6.94-5.32 136.83-496.99zM324.06 799.15l-7.76 6.48 11.99-9.2 124.7-453.24.05-12.13-128.98 468.09zM335.43 790.95l-1.32 1.02 6.87-5.27 111.79-407.64v21.25l.22-57.12-.22 24-117.34 423.76zM343 785.15l108.58-83.28 1.18-299.85L347.4 781.78l-4.4 3.37z"/><path style="fill:#bf0000;stroke-width:.5px;stroke-miterlimit:10;stroke:#b5b5b5" d="m303.63 815.35 5.73-4.4-5.73 4.4z"/><path d="m453.07 293.16.21-21.51-149.65 543.7 5.73-4.4 1.61-1.24 142.1-516.55z"/><path class="f36f9153-af8f-4e9e-a882-f1040f57e217" d="M453.13 330.74v-22.1l-.09 22.42.09-.32zM316.3 805.63z"/><path style="fill:red" d="m453.04 331.06.09-22.42L316.3 805.63l7.76-6.48 128.98-468.09z"/><path class="a99b9f03-30c6-4d63-9a26-73182c2d1f5a" d="M452.99 343.19zM328.29 796.43l5.82-4.46-5.82 4.46z"/><path style="fill:#fff" d="m334.11 791.97 1.32-1.02 117.34-423.76.22-24-124.7 453.24 5.82-4.46z"/><path class="efd56bb8-35a9-43a3-a144-9da44e813df1" d="m340.98 786.7 2.02-1.55-2.02 1.55zM452.77 402v-1.69l-.01 1.71.01-.02z"/><path style="fill:#807e7c" d="m340.98 786.7 2.02-1.55 4.4-3.37 105.36-379.76.01-1.71v-21.25L340.98 786.7z"/></g><g id="e297931c-d325-42a7-80fc-1a5702dc32ee" data-name="panel"><path class="ecac108e-c2f0-48b3-ae61-fd07385f8330" d="m10.48 450.07 250.42 44.11.2-40.16L9.69 410.31l.79 39.76z"/><path class="ad87d3ee-dc2c-4ad0-a281-4a28b8119edb" d="m79.37 345.21-69.68 65.1 251.41 43.71 68.62-66.28-250.35-42.53z"/></g><g id="b0a63704-351f-4cfa-9dde-0a6477206261" data-name="ecran"><path class="ecac108e-c2f0-48b3-ae61-fd07385f8330" d="M96.84 129.36 79.7 347.72l250.52 42.43L347.82 168zm224.28 67.76c0 .2-.29.32-.48.49l-10.43 144.83a35.43 35.43 0 0 1-4.3 3.78l1.4.29v10.7s-1.4 4.75-11.08 2.64c-11.19-2.44-178.55-31.91-178.55-31.91l8.72-6.78v-1.39s-2.46.52-6-7l-12.48 2.77h-4l11.34-158.77s4-6.85 10.81-6.59 191.16 30.59 191.16 30.59 6.17 1.07 3.89 16.35z" transform="translate(-.98 -.52)"/><path d="M317.28 180S133 149.66 126.12 149.4s-10.81 6.6-10.81 6.6l-11.74 160.08h4.35l12.29-2.68c-.1-.23-.74-1.57-.85-1.8L131 166.54s2.11-5.54 7.12-7.38l177.49 27.16a20.77 20.77 0 0 1 5.11 9.76l-.05.75c.19-.17.62.66.66.47 3.23-14.06-4.05-17.3-4.05-17.3z" transform="translate(-.98 -.52)" style="fill:#151312"/><path d="m125.32 320-8.56 8s164.63 29.3 178.61 32.24c10.36 2.17 14.43-3.58 14.43-3.58l.61-7.37.39-7.71-4.89 3.84a20.85 20.85 0 0 1-7.73 3.87z" transform="translate(-.98 -.52)" style="fill:#555353"/><path d="M319.5 197.81c.45-.36.83-.69 1.14-1l.66-.52a20.31 20.31 0 0 0-5.72-10l-177.49-27.13c-5 1.84-7.12 7.38-7.12 7.38L119.36 311.6l.32.66c3.54 7.52 6.28 8 6.28 8l.44.08 171.78 28.93a20.85 20.85 0 0 0 7.73-3.87c2.57-1.91 4.89-3.84 4.89-3.84l10.5-145.29c-.44.46-1.05.96-1.8 1.54zM143.83 302.35z" transform="translate(-.98 -.52)" style="fill:#008aa6"/></g><g id="ae2af1db-6b8b-4a9e-b11d-ce7c18ae1539" data-name="top"><path id="b467c52e-d66b-4c80-80b3-54687ed2a68e" data-name="marquee" class="ecac108e-c2f0-48b3-ae61-fd07385f8330" d="m68.24 123.5 251.47 39.03.43-89.47L67.78 34.42l.46 89.08z"/><path style="stroke-miterlimit:10;stroke:#b5b5b5;fill:#373735" d="m128.84 2.64-5.74-.96-55.32 32.74 252.36 38.64 52.39-33.24L128.84 2.64z"/></g><g id="ea6ab775-220e-4d17-96fe-ef529db2ed14" data-name="stickp1"><path class="f3b5b520-e67a-4045-9826-3829c3cf62ee" d="M68.92 377.27v5.16H62.4v-5.16c-5.06.64-8.77 2.7-8.77 5.16 0 3 5.38 5.35 12 5.35s12-2.39 12-5.35c.06-2.43-3.63-4.52-8.71-5.16z" transform="translate(-.98 -.52)"/><path class="f0aa099a-f0fc-4997-9c79-e06f6356f36f" d="M68.92 377.27v-17.78a12.18 12.18 0 0 1-3 .39 12.4 12.4 0 0 1-3.48-.49v17.88a26.67 26.67 0 0 1 6.52 0z" transform="translate(-.98 -.52)"/><path class="f0aa099a-f0fc-4997-9c79-e06f6356f36f" d="M68.92 382.43v-5.16a26.67 26.67 0 0 0-6.52 0v5.16z" transform="translate(-.98 -.52)"/><path class="b7486df5-5ea4-4c91-8b60-68b6c5975dec" d="M68.92 358.89v.6a11.24 11.24 0 0 0 8.77-10.72c0-6.14-5.29-11.11-11.81-11.11s-11.82 5-11.82 11.11a11.22 11.22 0 0 0 8.34 10.62v-.5z" transform="translate(-.98 -.52)"/><path class="f0aa099a-f0fc-4997-9c79-e06f6356f36f" d="M68.92 359.49v-.6H62.4v.5a12.4 12.4 0 0 0 3.48.49 12.18 12.18 0 0 0 3.04-.39z" transform="translate(-.98 -.52)"/><path class="b7486df5-5ea4-4c91-8b60-68b6c5975dec" d="M68.92 359.49v-.6H62.4v.5a12.4 12.4 0 0 0 3.48.49 12.18 12.18 0 0 0 3.04-.39z" transform="translate(-.98 -.52)"/></g><g id="bb6958b3-d0f9-4850-9c79-0a19626dd29e" data-name="stickp2"><path class="f3b5b520-e67a-4045-9826-3829c3cf62ee" d="M198.88 399.49v5.16h-6.53v-5.16c-5 .64-8.77 2.7-8.77 5.16 0 3 5.39 5.35 12 5.35s12-2.39 12-5.35c.07-2.46-3.64-4.52-8.7-5.16z" transform="translate(-.98 -.52)"/><path class="f0aa099a-f0fc-4997-9c79-e06f6356f36f" d="M198.88 399.49v-17.78a12.2 12.2 0 0 1-3 .39 12.83 12.83 0 0 1-3.48-.49v17.88a26.75 26.75 0 0 1 6.53 0z" transform="translate(-.98 -.52)"/><path class="f0aa099a-f0fc-4997-9c79-e06f6356f36f" d="M198.88 404.65v-5.16a26.75 26.75 0 0 0-6.53 0v5.16z" transform="translate(-.98 -.52)"/><path class="b9f1237a-6a98-409e-991f-b7263e3c1ed9" d="M198.88 381.11v.6a11.24 11.24 0 0 0 8.77-10.71c0-6.14-5.29-11.11-11.82-11.11S184 364.85 184 371a11.22 11.22 0 0 0 8.34 10.62v-.5z" transform="translate(-.98 -.52)"/><path class="f0aa099a-f0fc-4997-9c79-e06f6356f36f" d="M198.88 381.71v-.6h-6.53v.5a12.83 12.83 0 0 0 3.48.49 12.2 12.2 0 0 0 3.05-.39z" transform="translate(-.98 -.52)"/><path class="b9f1237a-6a98-409e-991f-b7263e3c1ed9" d="M198.88 381.71v-.6h-6.53v.5a12.83 12.83 0 0 0 3.48.49 12.2 12.2 0 0 0 3.05-.39z" transform="translate(-.98 -.52)"/></g><g id="b95f5568-ea00-445a-ad8f-597c67006b20" data-name="boutons P1"><g id="afcf37ce-c483-46fc-bd7b-21a9dc716c7e" data-name="4"><path class="ac25b9e9-fd1d-4f96-9e1a-10895c6a74d5" d="M92.54 389.14c-3.86 0-8.12 1.53-8.12 4.87 0 2.95 4.1 4.62 7.94 4.62 4.11 0 8-1.73 8-4.88-.04-2.35-3.88-4.61-7.82-4.61zm-.18 8.63c-3.86 0-7-1.74-7-3.89s3.13-3.89 7-3.89 7 1.74 7 3.89-3.14 3.89-7 3.89z" transform="translate(-.98 -.52)"/><path d="M92.36 390c-3.86 0-7 1.74-7 3.89s3.13 3.89 7 3.89 7-1.74 7-3.89-3.14-3.89-7-3.89z" transform="translate(-.98 -.52)" style="fill:url(#b762d3fb-9cfd-4e6f-95bc-f5da9cfe76d9)"/></g><g id="a91a526b-f578-428a-bd15-3b87cbce616c" data-name="5"><path class="ac25b9e9-fd1d-4f96-9e1a-10895c6a74d5" d="M114.79 389.14c-3.86 0-8.12 1.53-8.12 4.87 0 2.95 4.1 4.62 7.94 4.62 4.11 0 8-1.73 8-4.88-.04-2.35-3.88-4.61-7.82-4.61zm-.18 8.63c-3.86 0-7-1.74-7-3.89s3.13-3.89 7-3.89 7 1.74 7 3.89-3.14 3.89-7 3.89z" transform="translate(-.98 -.52)"/><path d="M114.61 390c-3.86 0-7 1.74-7 3.89s3.13 3.89 7 3.89 7-1.74 7-3.89-3.14-3.89-7-3.89z" transform="translate(-.98 -.52)" style="fill:url(#b4f25c3f-fc75-4cd9-bfb2-c6f62836b854)"/></g><g id="a175e711-1154-4a21-931f-ffd83a757daf" data-name="6"><path class="ac25b9e9-fd1d-4f96-9e1a-10895c6a74d5" d="M133.35 395.3c-3.86 0-8.13 1.53-8.13 4.87 0 3 4.11 4.62 7.95 4.62 4.1 0 8-1.73 8-4.88-.04-2.35-3.88-4.61-7.82-4.61zm-.18 8.63c-3.86 0-7-1.74-7-3.89s3.13-3.89 7-3.89 7 1.74 7 3.89-3.17 3.89-7 3.89z" transform="translate(-.98 -.52)"/><path d="M133.17 396.15c-3.86 0-7 1.74-7 3.89s3.13 3.89 7 3.89 7-1.74 7-3.89-3.17-3.89-7-3.89z" transform="translate(-.98 -.52)" style="fill:url(#bfeb8ee4-cd94-46c6-9728-061ce936f4db)"/></g><g id="a5c6abec-6dc4-448a-b5ca-97bfd8f7c734" data-name="3"><path class="ac25b9e9-fd1d-4f96-9e1a-10895c6a74d5" d="M139.39 383c-3.86 0-8.13 1.53-8.13 4.88 0 2.95 4.11 4.61 8 4.61 4.1 0 8-1.73 8-4.88-.09-2.31-3.93-4.61-7.87-4.61zm-.18 8.63c-3.86 0-7-1.74-7-3.89s3.13-3.89 7-3.89 7 1.75 7 3.89-3.14 3.93-7 3.93z" transform="translate(-.98 -.52)"/><path d="M139.21 383.89c-3.86 0-7 1.75-7 3.89s3.13 3.89 7 3.89 7-1.74 7-3.89-3.14-3.89-7-3.89z" transform="translate(-.98 -.52)" style="fill:url(#b3738c81-cdca-40ba-8f62-cc9c93fe92ff)"/></g><g id="b2555f41-af8c-4571-b7aa-277e897252a6" data-name="2"><path class="ac25b9e9-fd1d-4f96-9e1a-10895c6a74d5" d="M121.79 377.35c-3.86 0-8.12 1.53-8.12 4.88 0 2.95 4.1 4.61 7.94 4.61 4.11 0 8-1.73 8-4.88-.04-2.34-3.88-4.61-7.82-4.61zm-.18 8.64c-3.86 0-7-1.74-7-3.89s3.13-3.89 7-3.89 7 1.74 7 3.89-3.14 3.9-7 3.9z" transform="translate(-.98 -.52)"/><path d="M121.61 378.21c-3.86 0-7 1.74-7 3.89s3.13 3.89 7 3.89 7-1.74 7-3.89-3.14-3.89-7-3.89z" transform="translate(-.98 -.52)" style="fill:url(#a6c1cfe9-92d7-4211-bbc4-d26632232219)"/></g><g id="a58df6e7-1636-46a8-ab8a-aec2c7e84f8b" data-name="1"><path class="ac25b9e9-fd1d-4f96-9e1a-10895c6a74d5" d="M100.5 377.78c-3.86 0-8.13 1.53-8.13 4.88 0 2.95 4.11 4.62 7.95 4.62 4.1 0 8-1.73 8-4.88-.04-2.35-3.88-4.62-7.82-4.62zm-.18 8.64c-3.86 0-7-1.74-7-3.89s3.13-3.89 7-3.89 7 1.74 7 3.89-3.14 3.89-7 3.89z" transform="translate(-.98 -.52)"/><path d="M100.32 378.64c-3.86 0-7 1.74-7 3.89s3.13 3.89 7 3.89 7-1.74 7-3.89-3.14-3.89-7-3.89z" transform="translate(-.98 -.52)" style="fill:url(#e970b97c-2ec4-4389-a0e0-853ade2cf08b)"/></g></g><g id="b740a4be-b01f-460b-ab22-1ca1b693003c" data-name="boutons P2"><g id="e01ca985-9a4e-4553-bf99-6e70874d769c" data-name="1"><path class="a61d8771-f9eb-4804-8fd0-ca1d04ef77a8" d="M225.69 399.93c-3.86 0-8.13 1.53-8.13 4.87 0 2.95 4.11 4.62 7.95 4.62 4.1 0 8-1.73 8-4.88-.04-2.35-3.88-4.61-7.82-4.61zm-.18 8.63c-3.86 0-7-1.74-7-3.89s3.13-3.89 7-3.89 7 1.74 7 3.89-3.14 3.89-7 3.89z" transform="translate(-.98 -.52)"/><path d="M225.51 400.78c-3.86 0-7 1.74-7 3.89s3.13 3.89 7 3.89 7-1.74 7-3.89-3.14-3.89-7-3.89z" transform="translate(-.98 -.52)" style="fill:url(#fae19205-a082-41ab-90f1-3193119ee954)"/></g><g id="e286f30c-006e-4c10-a9bc-f712276e1a42" data-name="2"><path class="a61d8771-f9eb-4804-8fd0-ca1d04ef77a8" d="M247 399.49c-3.86 0-8.13 1.54-8.13 4.88 0 2.95 4.11 4.62 7.95 4.62 4.1 0 8-1.73 8-4.88-.07-2.35-3.91-4.62-7.82-4.62zm-.18 8.64c-3.86 0-7-1.74-7-3.89s3.13-3.89 7-3.89 7 1.74 7 3.89-3.17 3.89-7.03 3.89z" transform="translate(-.98 -.52)"/><path d="M246.79 400.35c-3.86 0-7 1.74-7 3.89s3.13 3.89 7 3.89 7-1.74 7-3.89-3.14-3.89-7-3.89z" transform="translate(-.98 -.52)" style="fill:url(#fa3bb5a8-6255-47b7-ad0a-1ac190e165b2)"/></g><g id="fb746f6b-768c-4778-8967-ee4341852a41" data-name="3"><path class="a61d8771-f9eb-4804-8fd0-ca1d04ef77a8" d="M264.58 405.18c-3.86 0-8.12 1.53-8.12 4.88 0 2.95 4.1 4.61 7.94 4.61 4.1 0 8-1.73 8-4.88-.04-2.35-3.88-4.61-7.82-4.61zm-.18 8.64c-3.86 0-7-1.75-7-3.89s3.13-3.89 7-3.89 7 1.74 7 3.89-3.14 3.89-7 3.89z" transform="translate(-.98 -.52)"/><path d="M264.4 406c-3.86 0-7 1.74-7 3.89s3.13 3.89 7 3.89 7-1.75 7-3.89-3.14-3.89-7-3.89z" transform="translate(-.98 -.52)" style="fill:url(#bd423110-5069-487a-a44e-fc599244f981)"/></g><g id="b356f724-3fb1-481d-9def-b1522ee5287e" data-name="4"><path class="a61d8771-f9eb-4804-8fd0-ca1d04ef77a8" d="M258.54 417.44c-3.86 0-8.13 1.53-8.13 4.88 0 2.95 4.11 4.61 8 4.61 4.1 0 8-1.73 8-4.88-.09-2.35-3.93-4.61-7.87-4.61zm-.18 8.64c-3.86 0-7-1.75-7-3.89s3.13-3.89 7-3.89 7 1.74 7 3.89-3.14 3.89-7 3.89z" transform="translate(-.98 -.52)"/><path d="M258.36 418.3c-3.86 0-7 1.74-7 3.89s3.13 3.89 7 3.89 7-1.75 7-3.89-3.14-3.89-7-3.89z" transform="translate(-.98 -.52)" style="fill:url(#efd9446f-b2df-42b3-9675-76c3eec1dbd8)"/></g><g id="a132d4d1-db72-4607-bfde-16a0d5409b18" data-name="5"><path class="a61d8771-f9eb-4804-8fd0-ca1d04ef77a8" d="M240 411.28c-3.86 0-8.13 1.53-8.13 4.88 0 2.95 4.11 4.61 7.95 4.61 4.1 0 8-1.73 8-4.88-.07-2.35-3.91-4.61-7.82-4.61zm-.18 8.63c-3.86 0-7-1.74-7-3.89s3.13-3.89 7-3.89 7 1.75 7 3.89-3.17 3.89-7.03 3.89z" transform="translate(-.98 -.52)"/><path d="M239.79 412.13c-3.86 0-7 1.75-7 3.89s3.13 3.89 7 3.89 7-1.74 7-3.89-3.14-3.89-7-3.89z" transform="translate(-.98 -.52)" style="fill:url(#ba438adf-36a0-430a-93d9-e04eb61fca05)"/></g><g id="f3676cdd-d744-435a-a5ba-b69c7525e560" data-name="6"><path class="a61d8771-f9eb-4804-8fd0-ca1d04ef77a8" d="M217.73 411.28c-3.86 0-8.13 1.53-8.13 4.88 0 2.95 4.11 4.61 8 4.61 4.1 0 8-1.73 8-4.88-.09-2.35-3.93-4.61-7.87-4.61zm-.18 8.63c-3.86 0-7-1.74-7-3.89s3.13-3.89 7-3.89 7 1.75 7 3.89-3.14 3.89-7 3.89z" transform="translate(-.98 -.52)"/><path d="M217.55 412.13c-3.86 0-7 1.75-7 3.89s3.13 3.89 7 3.89 7-1.74 7-3.89-3.14-3.89-7-3.89z" transform="translate(-.98 -.52)" style="fill:url(#f17918e3-483b-46f0-86bf-9a0d536cc4c3)"/></g></g><path class="a0d05001-d234-4705-82ea-a6fa9ae0c434" d="M228.57 237.19v.07l-5.92-1v-.08zM236.56 238.53a.13.13 0 0 0 0 .06l-5.72-1v-.06z" transform="translate(-.98 -.52)"/><path class="a948484e-d566-4b72-a129-fb94a02cfb8d" d="m210.17 273.38-65.56-11c-.87-.14-.87-.14-.74-.92.25-1.54.47-3.08.75-4.61.78-4.31 1.48-8.63 2.22-12.95.09-.48.22-1 .29-1.44 0-.18.12-.23.31-.19l.75.13 119.31 19.98a16.13 16.13 0 0 1 4.69 1.42 11.54 11.54 0 0 1 5.67 5.9 8.36 8.36 0 0 1 .63 3.88c0 .38-.08.76-.15 1.14l-1.56 9.36c-.07.39-.13.42-.54.36l-40.11-6.72zm14.68-7.7c-.4 2.35-.79 4.71-1.19 7.07 0 .23 0 .34.3.38 1 .15 1.95.32 2.93.49.51.09.51.09.59-.37q.69-4.22 1.4-8.43c0-.08 0-.21.12-.22s.13.1.17.17c1.69 3.14 3.43 6.26 5.06 9.42a2.38 2.38 0 0 0 3.55.6c.9-.94 1.91-1.79 2.87-2.68l4.89-4.53c.08-.07.15-.22.26-.17s0 .2 0 .31v.12c-.47 2.79-.93 5.58-1.4 8.37 0 .25 0 .35.31.4 1 .16 2 .32 3.06.51.34.07.45 0 .49-.32l2.32-13.83a1.32 1.32 0 0 0-.25-1 2.34 2.34 0 0 0-3.26-.37l-2.16 2-8.12 7.4c-.25.23-.28.22-.45-.08-2.2-4.06-4.42-8.11-6.61-12.17a2.14 2.14 0 0 0-1.43-1.06A1.74 1.74 0 0 0 226 259zm-4.51-.71c.38-2.31.76-4.61 1.16-6.92a1.32 1.32 0 0 0-.45-1.21 2.4 2.4 0 0 0-3.17 0c-2.39 2.24-4.82 4.43-7.24 6.63l-2.95 2.7c-.13.12-.23.25-.37 0l-3.44-6.31c-1.1-2-2.19-4-3.3-6a2.24 2.24 0 0 0-2.21-1 1.52 1.52 0 0 0-1.5 1.37q-1.16 6.86-2.3 13.71c0 .28.05.37.35.41 1 .15 2 .32 3 .5.44.07.45.08.51-.3.46-2.73.91-5.46 1.37-8.19 0-.13 0-.27.06-.4s0-.16.11-.17.1.08.13.14.18.34.28.51c1.63 3 3.29 6 4.88 9.07a2.34 2.34 0 0 0 3.35.6c.47-.47 1-.91 1.48-1.37l6.5-6c.06-.05.09-.14.19-.11s.07.14.06.22c-.14.81-.28 1.62-.41 2.44-.35 2.06-.69 4.13-1 6.2 0 .22 0 .32.29.36l3 .5c.44.07.45.07.52-.31q.51-3.6 1.1-7.04zm33.15 5.67c-.38 2.28-.76 4.57-1.15 6.85-.06.31.06.41.38.45 1 .16 2 .32 3 .5.33.07.45 0 .5-.31.16-1 .35-2.08.51-3.12 0-.23.12-.33.4-.28l12.77 2.14c.33.05.39.18.34.45-.18 1-.34 2.08-.53 3.12-.05.25 0 .35.32.4 1 .15 2 .32 3 .49.45.07.46.07.53-.34l1.22-7.32a6.88 6.88 0 0 0-2.51-6.52 12.61 12.61 0 0 0-6.36-3c-2.38-.41-4.76-.8-7.13-1.19-.72-.12-1.45-.26-2.17-.35a1.6 1.6 0 0 0-1.91 1.29c-.46 2.27-.83 4.5-1.21 6.74zm-62.24-10.42 1.14-6.79a1.24 1.24 0 0 0 0-.47 1.91 1.91 0 0 0-1.63-1.33c-1.55-.26-3.1-.53-4.65-.77-1.84-.3-3.66-.71-5.51-.87a11.55 11.55 0 0 0-7 1.39 6.55 6.55 0 0 0-3.37 4.67q-.63 3.74-1.25 7.47c-.07.4-.07.4.36.47 1 .17 2 .32 2.93.5.33.06.45 0 .5-.31.15-1 .34-2.06.5-3.09 0-.29.17-.35.48-.3l12.67 2.12c.34 0 .42.16.37.46-.19 1-.35 2.08-.54 3.11 0 .26 0 .36.32.4 1 .16 2 .32 3 .51.33.06.44 0 .49-.32.42-2.28.81-4.57 1.19-6.85zm-38.3 1 6.47 1.08a7.76 7.76 0 0 0 2.76 0 3.93 3.93 0 0 0 3.34-2.92c.64-3.78 1.26-7.55 1.9-11.33.05-.27 0-.37-.33-.42-1-.15-2-.32-3-.5-.36-.07-.46 0-.51.33q-.92 5.58-1.86 11.15a1.08 1.08 0 0 1-1.24.95 4.41 4.41 0 0 1-.73-.08c-1-.18-2-.37-3.06-.54l-7-1.15c-.28-.05-.35-.15-.31-.38.11-.59.19-1.18.31-1.76.06-.28 0-.4-.35-.45-.84-.13-1.68-.26-2.52-.42-.34-.07-.44 0-.49.32-.24 1.49-.49 3-.74 4.45-.07.42-.07.42.42.5zM230.83 237.63l5.72 1c.15.09.15.2.13.35-.37 2.17-.73 4.34-1.11 6.51 0 .29 0 .38.34.43 3.09.5 6.18 1 9.27 1.54.32.05.34.16.31.44-.06.67-.23 1.33-.32 2-.22 1.55-.54 3.09-.8 4.63-.1.59-.17 1.19-.26 1.78 0 .2-.12.31-.4.26L228.57 254c-.65-.11-.65-.11-.56-.68q1.29-7.69 2.57-15.38c.02-.15.02-.31.25-.31zm3.94 12.7c-.13.78-.25 1.56-.39 2.34-.05.27 0 .38.33.43 1.06.16 2.11.34 3.16.53.32.06.44 0 .49-.31.25-1.55.51-3.1.78-4.66 0-.24 0-.34-.31-.38q-1.62-.25-3.24-.54c-.28-.05-.39 0-.43.27-.16.78-.26 1.55-.39 2.32zM255.63 249.17c2.55.43 5.09.86 7.64 1.27.34.06.42.17.37.47q-.7 4.14-1.39 8.3c-.07.37-.1.4-.52.33L246.38 257c-.27-.05-.34-.16-.3-.39q.72-4.21 1.41-8.43c0-.28.18-.33.47-.28 2.55.44 5.11.86 7.67 1.29zm1.31 4.88c.14-.8.27-1.6.41-2.4 0-.23 0-.36-.3-.4l-3.44-.58c-.26 0-.38 0-.42.27l-.81 4.85c0 .25.05.36.33.41l3.37.56c.3.06.42 0 .46-.3.13-.8.27-1.6.4-2.41zM173.53 244.78l-7.64-1.27c-.31 0-.37-.15-.33-.42q.72-4.2 1.42-8.42c0-.25.13-.32.4-.27l15.36 2.6c.41.07.43.11.37.49-.26 1.55-.53 3.11-.78 4.66 0 .31-.17.37-.5.32-3.07-.53-6.15-1-9.22-1.55-.46-.08-.46-.08-.52.32s-.11.7-.19 1 0 .35.31.4c2.06.33 4.11.68 6.17 1l3.16.53c.32.05.42.17.37.44s-.14.74-.19 1.11-.18.38-.51.32zm.92-5.45c.56.1 1.13.18 1.69.29.25 0 .35 0 .38-.25 0-.39.12-.78.2-1.17 0-.21 0-.32-.26-.36l-3.41-.57c-.22 0-.33 0-.36.23q-.08.62-.18 1.23c0 .23.06.3.29.33.55.07 1.1.17 1.65.27zM211.28 241.75l7.64 1.28c.44.07.5.14.42.52-.43 2-.7 4-1.05 6-.14.74-.27 1.48-.37 2.23 0 .29-.15.37-.49.31-2.08-.36-4.17-.7-6.26-1l-9-1.51c-.42-.07-.43-.08-.37-.47.26-1.56.53-3.11.77-4.67 0-.32.18-.37.52-.31l9.16 1.54c.46.07.46.07.53-.33s.09-.67.17-1 0-.4-.36-.46c-2.34-.37-4.68-.77-7-1.16l-2.31-.38c-.24 0-.32-.12-.28-.34a10.85 10.85 0 0 0 .21-1.27c0-.27.16-.31.43-.26l5.37.9 2.27.38zm-1.15 7.25c.55.09 1.11.17 1.66.27.21 0 .33 0 .36-.21l.21-1.23c0-.19-.05-.29-.27-.33l-3.33-.56c-.24 0-.35 0-.38.24 0 .4-.11.79-.19 1.17-.05.23.05.33.29.37.52.07 1.1.17 1.65.28zM268.74 251.36c.87.15 1.74.31 2.62.44.31 0 .38.18.34.43-.08.4-.13.8-.21 1.2 0 .21 0 .3.27.34l3.36.56c.28 0 .38 0 .41-.27.06-.41.15-.82.2-1.23 0-.23.15-.27.37-.24l5.4.91c.21 0 .3.13.27.33-.08.43-.16.86-.22 1.29 0 .23-.16.29-.41.25-.44-.09-.89-.15-1.34-.24-.24 0-.33 0-.36.24-.05.4-.13.8-.19 1.2 0 .23-.15.3-.4.25-.47-.08-.94-.15-1.41-.24-.17 0-.24 0-.29.17-.13.44-.08.91-.25 1.34-.07.18.07.24.24.27l1.38.22c.28 0 .38.15.33.41s-.13.78-.21 1.17c0 .21.05.31.28.34l1.34.22c.25 0 .34.13.3.36-.09.42-.17.84-.22 1.27 0 .22-.15.27-.36.24l-.65-.11-4.62-.77c-.45-.08-.45-.08-.38-.49s.12-.76.19-1.14c.05-.21 0-.3-.27-.34l-3.44-.58c-.22 0-.29 0-.31.21-.06.4-.16.8-.19 1.21s-.19.37-.5.32l-4.72-.8c-1.16-.19-.93-.1-.8-1 0-.25.09-.49.12-.74s.16-.29.4-.25c.45.09.9.15 1.34.24.27.05.39 0 .42-.26s.14-.78.19-1.17.16-.31.41-.26c.46.09.92.15 1.37.24.21 0 .3 0 .32-.2.06-.43.13-.85.22-1.27 0-.21-.05-.28-.26-.31l-1.38-.23c-.24 0-.34-.12-.29-.36s.14-.78.21-1.17c0-.23 0-.35-.31-.38-.45-.06-.9-.15-1.35-.22-.25 0-.34-.14-.29-.37q.12-.63.21-1.26c0-.24.16-.29.4-.24zM222.64 236.28l5.92 1a.42.42 0 0 1 .05.36q-1.31 7.77-2.6 15.56c0 .28-.17.37-.48.31s-.88-.19-1.33-.26l-3.89-.62c-.46-.08-.45-.08-.39-.49q1.31-7.74 2.6-15.49c.02-.14 0-.28.12-.37zM191.71 247.82l-7.71-1.28c-.3 0-.4-.14-.35-.43q.72-4.2 1.41-8.4c0-.26.15-.32.42-.27l15.39 2.56c.31.05.42.18.36.45s-.11.72-.19 1.08-.13.41-.55.34l-4.16-.7-5.06-.85c-.28 0-.37 0-.41.25-.22 1.39-.46 2.78-.69 4.17a2.74 2.74 0 0 1 0 .28c-.11.6-.11.6.58.72l8.92 1.49c.42.07.45.11.39.5s-.15.72-.18 1.08-.19.35-.48.3c-.56-.11-1.12-.2-1.68-.29z" transform="translate(-.98 -.52)"/><path d="M291.07 282.1c-.25 1.47-.49 2.94-.74 4.41-.07.42-.07.42-.51.34l-4.27-.71c-.27 0-.37-.13-.3-.37s.07-.41.11-.62-.06-.27-.25-.29l-.49-.05c-.39-.06-.49 0-.51.37v.19c0 .43-.14.5-.63.42-1.39-.23-2.79-.47-4.19-.69-.32-.05-.4-.19-.36-.45.5-3 1-5.91 1.49-8.86.06-.36.14-.42.55-.33 2.95.58 5.92 1 8.87 1.52.52.09 1 .13 1.55.22s.47.1.4.52c-.24 1.46-.49 2.92-.73 4.38zm-8.37-.17 1.58.27c.22 0 .32 0 .35-.22.1-.59.2-1.19.31-1.79 0-.21-.06-.3-.29-.34l-3.13-.52c-.21 0-.31 0-.35.22-.08.59-.18 1.19-.29 1.79 0 .21 0 .31.27.34zm5.47-1.49c-.52-.08-1-.16-1.55-.26-.25-.05-.36 0-.39.24-.09.59-.19 1.19-.29 1.78-.05.23.05.29.28.33 1 .16 2 .33 3 .51.28.05.39 0 .43-.27.08-.56.17-1.13.28-1.69 0-.23 0-.35-.3-.39-.48-.08-.97-.17-1.46-.25z" transform="translate(-.98 -.52)" style="fill:#2785db"/><path d="M292.87 271.31c-.25 1.48-.5 3-.74 4.44-.07.38-.11.4-.52.34l-2.86-.48c-.41-.07-.49-.18-.43-.54.14-.85.28-1.71.43-2.56a.34.34 0 0 1 0-.1c.2-.63.12-.52.72-.43l1.48.25c.26 0 .4 0 .44-.25.09-.59.19-1.18.29-1.76 0-.21 0-.33-.3-.38l-8-1.34c-.26 0-.39.05-.42.28-.09.57-.19 1.14-.28 1.7 0 .23.05.36.31.41l3.06.52a.25.25 0 0 0 .33-.17 1.81 1.81 0 0 0 .12-.64c0-.19.11-.24.27-.29a.45.45 0 0 1 .2 0c.85.09.89.14.77.88-.21 1.26-.43 2.51-.63 3.77 0 .26-.17.34-.43.3l-5.43-.91c-.49-.08-.55-.15-.48-.58.49-3 1-5.91 1.48-8.87 0-.17.09-.23.28-.22s.55 0 .83.08l9.77 1.63c.55.09.55.1.47.6l-.72 4.32z" transform="translate(-.98 -.52)" style="fill:#44c047"/><path d="M289.84 254.78c1.75.29 3.49.59 5.24.87.3 0 .4.13.35.42-.51 3-1 5.95-1.49 8.92-.05.3-.16.38-.49.32-1.4-.25-2.8-.48-4.2-.71-.36-.06-.42-.15-.36-.47 0-.12.06-.23.08-.34.08-.47.08-.47-.46-.56h-.21c-.5-.08-.51-.08-.54.39 0 .18-.1.34-.11.52s-.18.19-.35.16l-4.44-.74c-.23 0-.32-.15-.29-.35.17-1 .35-2 .51-3.06 0-.28.23-.27.45-.23l1.83.3c.8.15 1.61.24 2.4.44.25.06.44 0 .48-.27.07-.57.17-1.14.28-1.7.05-.27 0-.38-.34-.43-1.42-.22-2.83-.47-4.24-.7-.29 0-.4-.12-.35-.4.18-1 .33-2 .48-3 0-.26.15-.33.44-.28 1.77.31 3.55.6 5.33.9zm1.49 6.43c.51.08 1 .16 1.54.26.22 0 .35 0 .39-.21.09-.61.19-1.22.3-1.82 0-.2 0-.32-.27-.35l-3.09-.52c-.22 0-.32 0-.35.21-.09.63-.2 1.25-.31 1.88 0 .18 0 .26.24.29z" transform="translate(-.98 -.52)" style="fill:#eb1416"/><path class="a948484e-d566-4b72-a129-fb94a02cfb8d" d="m156.94 232.66 7.54 1.26c.53.09.53.09.45.57s-.13.7-.17 1-.16.33-.44.28l-9.3-1.57c-.33-.05-.41 0-.45.3-.35 2.17-.72 4.33-1.07 6.49-.05.31-.2.36-.51.31l-5.19-.87c-.3 0-.4-.14-.35-.42q.72-4.19 1.4-8.39c.05-.31.19-.34.48-.29z" transform="translate(-.98 -.52)"/><path class="a0d05001-d234-4705-82ea-a6fa9ae0c434" d="M224.85 265.68 226 259a1.74 1.74 0 0 1 2.34-1.33 2.14 2.14 0 0 1 1.43 1.06c2.19 4.06 4.41 8.11 6.61 12.17.17.3.2.31.45.08l8.14-7.43 2.16-2a2.34 2.34 0 0 1 3.26.37 1.32 1.32 0 0 1 .25 1q-1.17 6.91-2.32 13.83c0 .29-.15.39-.49.32-1-.19-2-.35-3.06-.51-.3-.05-.36-.15-.31-.4.47-2.79.93-5.58 1.4-8.37v-.12c0-.04.11-.25 0-.31s-.18.1-.26.17l-4.89 4.53c-1 .89-2 1.74-2.87 2.68a2.38 2.38 0 0 1-3.55-.6c-1.63-3.16-3.37-6.28-5.06-9.42 0-.07-.06-.19-.17-.17s-.11.14-.12.22l-1.4 8.43c-.08.46-.08.46-.59.37-1-.17-1.95-.34-2.93-.49-.28 0-.34-.15-.3-.38.4-2.36.79-4.72 1.19-7.07zM220.34 265q-.59 3.46-1.16 6.95c-.07.38-.08.38-.52.31l-3-.5c-.27 0-.32-.14-.29-.36.36-2.07.7-4.14 1-6.2.13-.82.27-1.63.41-2.44 0-.08.06-.18-.06-.22s-.13.06-.19.11l-6.5 6c-.5.46-1 .9-1.48 1.37a2.34 2.34 0 0 1-3.35-.6c-1.59-3-3.25-6.05-4.88-9.07-.1-.17-.19-.34-.28-.51s-.05-.14-.13-.14-.1.1-.11.17 0 .27-.06.4c-.46 2.73-.91 5.46-1.37 8.19-.06.38-.07.37-.51.3-1-.18-2-.35-3-.5-.3 0-.4-.13-.35-.41q1.16-6.86 2.3-13.71a1.52 1.52 0 0 1 1.5-1.37 2.24 2.24 0 0 1 2.21 1c1.11 2 2.2 4 3.3 6l3.44 6.31c.14.27.24.14.37 0l2.95-2.7c2.42-2.2 4.85-4.39 7.24-6.63a2.4 2.4 0 0 1 3.17 0 1.32 1.32 0 0 1 .45 1.21c-.4 2.31-.78 4.61-1.16 6.92zM253.49 270.64c.38-2.24.75-4.47 1.13-6.7a1.6 1.6 0 0 1 1.91-1.29c.72.09 1.45.23 2.17.35 2.37.39 4.75.78 7.13 1.19a12.61 12.61 0 0 1 6.36 3 6.88 6.88 0 0 1 2.51 6.52q-.6 3.66-1.22 7.32c-.07.41-.08.41-.53.34-1-.17-2-.34-3-.49-.29 0-.37-.15-.32-.4.19-1 .35-2.08.53-3.12.05-.27 0-.4-.34-.45l-12.77-2.14c-.28-.05-.36 0-.4.28-.16 1-.35 2.08-.51 3.12-.05.3-.17.38-.5.31-1-.18-2-.34-3-.5-.32 0-.44-.14-.38-.45.39-2.28.77-4.57 1.15-6.85zM264 273l6.37 1.07c.3 0 .43 0 .46-.28s.08-.52.12-.78a4.27 4.27 0 0 0-1.54-4.2 8.48 8.48 0 0 0-4-1.85c-2.25-.43-4.52-.78-6.77-1.17-.34-.06-.36.12-.4.33q-.44 2.69-.9 5.37c0 .29 0 .4.36.46zM191.25 260.22c-.38 2.28-.77 4.57-1.14 6.85-.05.3-.16.38-.49.32-1-.19-2-.35-3-.51-.29 0-.36-.14-.32-.4.19-1 .35-2.08.54-3.11.05-.3 0-.41-.37-.46l-12.67-2.12c-.31-.05-.44 0-.48.3-.16 1-.35 2.05-.5 3.09 0 .3-.17.37-.5.31-1-.18-1.95-.33-2.93-.5-.43-.07-.43-.07-.36-.47q.62-3.74 1.25-7.47a6.55 6.55 0 0 1 3.37-4.67 11.55 11.55 0 0 1 7-1.39c1.85.16 3.67.57 5.51.87 1.55.24 3.1.51 4.65.77a1.91 1.91 0 0 1 1.59 1.37 1.24 1.24 0 0 1 0 .47l-1.14 6.79zm-10.67-1.14c2.11.35 4.22.7 6.33 1.07.32.05.44 0 .48-.29.3-1.81.6-3.63.91-5.44 0-.26 0-.37-.33-.42q-3-.48-6-1a11.11 11.11 0 0 0-3.77 0 4.85 4.85 0 0 0-3.81 2.54 7.49 7.49 0 0 0-.52 2c-.07.4-.07.41.4.48zM153 261.25l-7-1.17c-.49-.08-.49-.08-.42-.5.25-1.48.5-3 .74-4.45.05-.28.15-.39.49-.32.84.16 1.68.29 2.52.42.31.05.41.17.35.45-.12.58-.2 1.17-.31 1.76 0 .23 0 .33.31.38l7 1.15c1 .17 2 .36 3.06.54a4.41 4.41 0 0 0 .73.08 1.08 1.08 0 0 0 1.24-.95q.94-5.58 1.86-11.15c0-.3.15-.4.51-.33 1 .18 2 .35 3 .5.3.05.38.15.33.42-.64 3.78-1.26 7.55-1.9 11.33a3.93 3.93 0 0 1-3.34 2.92 7.76 7.76 0 0 1-2.76 0l-6.41-1.08z" transform="translate(-.98 -.52)"/><path class="a948484e-d566-4b72-a129-fb94a02cfb8d" d="m264 273-6.33-1c-.34-.06-.41-.17-.36-.46q.47-2.68.9-5.37c0-.21.06-.39.4-.33 2.25.39 4.52.74 6.77 1.17a8.48 8.48 0 0 1 4 1.85 4.27 4.27 0 0 1 1.54 4.2c0 .26-.1.52-.12.78s-.16.33-.46.28zM180.58 259.08l-6.3-1.06c-.47-.07-.47-.08-.4-.48a7.49 7.49 0 0 1 .52-2 4.85 4.85 0 0 1 3.81-2.54 11.11 11.11 0 0 1 3.77 0q3 .51 6 1c.31.05.38.16.33.42-.31 1.81-.61 3.63-.91 5.44 0 .29-.16.34-.48.29-2.11-.37-4.22-.72-6.33-1.07z" transform="translate(-.98 -.52)"/></g><g id="aa8ca4cd-2046-401f-bda2-6283aa7a4a8d" data-name="b86ff311-25ef-4061-bcb4-54aa4068691b"><path class="b0e01f12-0d64-4450-a974-3e8d99973675" d="m103.35 99.8 60.52 9.59 28 4.38 104 16.38a23.11 23.11 0 0 1 7.67 2.29l.46.39c5.37 3.3 8.22 9.31 6.86 14.49s-6.4 8.27-12.38 7.44L92.13 121.82c-7.93-1.26-13.74-7.47-13.41-14.48.2-4.5 2.44-7.47 6.67-9.12a10.78 10.78 0 0 1 2.21-.41 23.82 23.82 0 0 1 5.55.42zM248.71 135v4.46a3.93 3.93 0 0 0 1.08 2.65c2.79 3.11 12.93 4.72 15.81 2.52 1.41-1.07 1.29-4.68 1.29-4.68l-3.4-.54c-.06 0-2.83-.43-2.58 1.73.24 2-1.59 1.74-3.07 1.5s-3-.48-3-2.54v-8.34c-.05-1.92 1.4-1.84 2.8-1.63s3.36.39 3.3 2.5L261 134c.59 0 4.86.74 5.47.84l-.11-3.15a5 5 0 0 0-2.52-2.38 21.4 21.4 0 0 0-12.15-2c-2.27.33-3 1.45-3 3.76v3.89zm37.73-3a13.64 13.64 0 0 0-6.22-.09c-3.15.83-3.59 3.79-.89 6.23a28.39 28.39 0 0 0 3.42 2.45c1.7 1.1 3.48 2.1 5.17 3.23.94.65 1.87 1.55 1.38 2.61-.57 1.26-2.05.92-3.27.66s-2.59-.39-2.62-1.83v-1.5l-3.94-.62s-2.58.23-1.72 2.26a4.2 4.2 0 0 0 1.88 2.14c4.58 2.48 9.26 3.33 13.78 2.17 2.68-.68 2.91-3.48.73-5.71a21.93 21.93 0 0 0-4.84-3.36 26.76 26.76 0 0 1-4.58-3c-.86-.78-1.4-1.71-.71-2.52s2.1-.63 3.3-.33 2.24.62 2.28 2c0 .88 1.29 1.16 1.29 1.16.8.09 2.4.35 2.4.35l2.3.37a8.79 8.79 0 0 0-.81-3 6.84 6.84 0 0 0-2.78-2.18 17.39 17.39 0 0 0-5.6-1.5z" transform="translate(-.98 -.52)"/><path d="m167.9 130.68-3.14-.48-2.58-.41-1.59-3.59-6.56-1-1.55 3.08-5.38-.86.2-.46c1.8-5 3.64-10.06 5.43-15.11l.19-.6 4.33.71 4.19.64 2.52 6.65s2.54 7.33 3.72 11zm-13.49-7.78 5.51.88-2.6-8.18h-.41zm-60-12.52v-3.84a3 3 0 0 1 2.77-3.5 20.11 20.11 0 0 1 12.16 2 4.82 4.82 0 0 1 2.32 2.81 12 12 0 0 1 .32 2.57l-5.65-.87v-1.35c.07-2.09-1.76-2.24-3.2-2.47s-2.78-.28-2.73 1.61q.11 4.14 0 8.23c0 2 1.53 2.28 2.93 2.51s3.21.47 3-1.49v-2.15l5.81.89v.42c.14 1.43-.37 3.59-1.25 4.28-2.79 2.18-12.65.61-15.38-2.45a4 4 0 0 1-1.08-2.83v-4.37zm154.51 24.69v-3.89c0-2.31.75-3.43 3-3.76a21.28 21.28 0 0 1 12.14 2 5.3 5.3 0 0 1 2 1.57 4.09 4.09 0 0 1 .5.82 3.52 3.52 0 0 1 .26 1.55 9.33 9.33 0 0 1-.16 1.6l-5.46-.84-.08-1.35c.06-2.11-1.82-2.27-3.3-2.5s-2.86-.3-2.81 1.63c.08 2.79.08 5.57 0 8.34 0 2.05 1.58 2.3 3 2.54s3.3.49 3.07-1.5v-2.18c.06 0 2.73.44 2.79.48l3.21.51s.47 3.37-1.29 4.69c-2.9 2.17-13 .58-15.81-2.52a3.85 3.85 0 0 1-1.07-2.65c0-1.52-.06-3-.06-4.49zm-63.63-1.29a15.87 15.87 0 0 1-6.05-1.8c-1.68-.94-2.79-2.23-2.74-4.08v-1.1l5.7.94v.83a1.87 1.87 0 0 0 1.35 2.12c1.46.55 2.95.92 4.13.21s.47-1.73-.38-2.56a22 22 0 0 0-4.47-3 22.94 22.94 0 0 1-4.74-3.29c-2.34-2.32-2.07-5.18.79-5.86a18.14 18.14 0 0 1 13 2 4.68 4.68 0 0 1 2.38 4.09v.37l-5.93-1v-1.05c-.2-1.51-1.67-1.64-2.81-1.83s-2.38-.43-2.78.78.58 2.06 1.59 2.71c1.49 1 3 1.93 4.57 2.86a19.52 19.52 0 0 1 3.87 2.77c2.33 2.35 2 5-.81 5.88a13.24 13.24 0 0 1-6.65 0zm27.28 4.43a21.44 21.44 0 0 1-4.89-1.3 8.84 8.84 0 0 1-3.33-2.4 3.84 3.84 0 0 1-.77-2.9v-.39l5.88.85v1.27c-.08 1.47 1.31 1.76 2.37 2 1.28.29 2.81.71 3.47-.56s-.45-2.05-1.45-2.7c-2.08-1.39-4.24-2.61-6.33-4s-4.1-2.76-3.68-5.26 2.63-2.77 4.91-2.77a24 24 0 0 1 8.63 1.55c2.41.91 3.85 2.51 4 4.2a8.17 8.17 0 0 1 0 1.21l-5.88-.93v-1.25c-.23-1.47-1.73-1.58-2.87-1.77s-2.26-.36-2.69.68.43 2.08 1.45 2.75c2 1.34 4.14 2.55 6.17 3.88s4.28 2.76 3.84 5.39-2.84 2.67-5.13 2.73a33.61 33.61 0 0 1-3.71-.33zm74.02-6.21a17.21 17.21 0 0 1 5.58 1.5 6.84 6.84 0 0 1 2.78 2.18c.59.83 1.14 2.2.81 3l-6-.88v-1c-.24-1.6-1.22-1.69-2.28-2s-2.53-.57-3.3.32-.14 1.75.72 2.53a28 28 0 0 0 4.58 3 23 23 0 0 1 4.83 3.37c2.19 2.24 2 5-.72 5.72-4.52 1.15-9.19.3-13.78-2.18a4.22 4.22 0 0 1-2.05-2.2 6.19 6.19 0 0 1-.14-1.41 5.7 5.7 0 0 1 .13-1.1l5.8.92v1.5c0 1.44 1.55 1.6 2.61 1.83 1.23.26 2.68.6 3.28-.66.49-1.06-.44-2-1.38-2.6-1.69-1.14-3.47-2.14-5.17-3.25a26.54 26.54 0 0 1-3.42-2.44c-2.68-2.42-2.26-5.41.89-6.24a13.75 13.75 0 0 1 6.21.1zm-163.43-17.1v-8.65l6.1 1v14.72l8.43 1.29 1.33.21v2.65l-15.8-2.51v-1.33zM238 133.15v8.73c0 .05-6.22-1-6.22-1 0-3.88 0-12.11-.06-16v-1.51l6.23 1z" transform="translate(-.98 -.52)" style="fill:#fefefe"/><path class="b0e01f12-0d64-4450-a974-3e8d99973675" d="m154.41 122.9 2.5-7.34h.41l2.6 8.18z" transform="translate(-.98 -.52)"/><path class="ef56cb92-5e42-46ed-9946-ff77c16a5ef0" d="M97.15 98.1a40.55 40.55 0 0 1-11.53-8.57 31.31 31.31 0 0 1-7.53-14.46c-.16-.75-.26-9.74-.12-10.38C80.3 53.29 90.59 46 103.24 46.81q3.66.22 7.37.79l171.2 26.15c8.35 1.27 16 4.41 22.45 10.62 16.47 16 11.87 40-8.44 44.29-.61.13-1.21.3-1.82.43-5.65.67-11.46-.26-17.28-1.18q-82.31-13-163-25.69c-5.57-.87-11.13-1.75-16.54-4.12zm97.5-30.94-85-13a60.02 60.02 0 0 0-5.43-.59c-15.92-1-24.69 13.7-16.6 27.9 4.56 8 11.89 11.89 20.5 13.25q86.34 13.61 174.49 27.39a33.47 33.47 0 0 0 7 .38c9.58-.52 16.38-6.57 17.13-15.23.77-9.38-4.34-18.15-13.49-23.07a36.24 36.24 0 0 0-11.8-3.69z" transform="translate(-.98 -.52)"/><path class="ef56cb92-5e42-46ed-9946-ff77c16a5ef0" d="M289.69 102.6c-2.2-4.25-6.62-7-12.17-7.5-9.59-.9-14.4 7-8.59 14.13a16.36 16.36 0 0 0 6.49 4.59 22 22 0 0 0 4.33.86c8.38.8 13.42-5.33 9.94-12.08zm-9.48 9.9a3 3 0 0 1-3.21-.44c-1.73-1.09-2-2.31-2.07-7.93 0-5.07 0-5.26 1-6.25a3.37 3.37 0 0 1 4.59.08 5 5 0 0 1 .51.52c.93 1.07 1 1.46 1.15 6.34.14 5.79-.19 7.07-2 7.68zM108.85 69.91c0 5.17 0 10.34.11 15.53l.05 1.74-8.41-1.31v-1.26q0-11.51-.11-23v-1.25l1.53.23 6.64 1s2.56 4 3.72 5.89c2.62 4.36 5.24 8.73 8.26 13.08l-.08-17.14 8.63 1.33.24 22.79v2.68l-8.86-1.38-.69-1.28c-3.56-5.89-7-11.68-10.58-17.56zm150.87 14.92-3.88-.6v4.79c0 4.41 0 4.76-.7 4.4-2.85-1.56-4.16-2-6.15-2.14-5.74-.36-9.86 4.1-8.68 9.41a11.23 11.23 0 0 0 7 8.25 11.65 11.65 0 0 0 7 .55c1-.29 1.44-.27 1.56.1s1.38.67 4 1.08l3.85.6-.09-25.85zM254.58 107a3.49 3.49 0 0 1-4.59-.66l-.06-.06c-1.14-1.09-1.15-1.11-1.17-5.84 0-4.51 0-4.79 1-5.58a3.69 3.69 0 0 1 4.86.67l.1.1c.94 1.08 1 1.38 1 5.88 0 4.74 0 4.76-1.12 5.49zm-100-28.14a9.74 9.74 0 0 1 10.25-.1c3.33 1.8 5.23 4.47 5.37 7.89.12 3 0 5.89.1 8.84v1.22l-8.23-1.29V84.93a4.16 4.16 0 0 0-3.68-4.41c-2.39-.4-3.91.87-3.92 3.25v10.48L146.3 93l-.07-17.09 8.3 1.37zm67 10.39a9.89 9.89 0 0 1 10.42-.06c3.37 1.82 5.29 4.49 5.43 7.94.12 3 0 5.92.1 8.89v1.23l-8.34-1.25V95.45a4.21 4.21 0 0 0-3.77-4.45c-2.42-.37-4 .87-4 3.27V104.81l-8.31-1.3-.07-17.19 8.4 1.39zm-19.34 6.64v1.34a2.46 2.46 0 0 1-1.18 2.25c-1.48 1.15-3.2.95-4.77-.54-1.06-1-1.16-1.35-1.31-4.16l-.17-3.06 16 2.48v-.84c0-1.39-1.43-4-3.12-5.73-7.52-7.77-21.3-5.77-21.25 3.12 0 4.32 3.77 8.65 9.17 10.6 5.09 1.84 11.61.55 13.9-2.73l1-1.44-8.21-1.28zM195 87.77c.39-3.23 3.62-4 6-1.45a3.54 3.54 0 0 1 1.2 2.81v1.53l-7.42-1.15zm-53.13-3.84.07 8.39-1.56-.24-6.66-1.08v-1.15c0-4.91 0-10.92-.07-15.82l8.23 1.27V83.93z" transform="translate(-.98 -.52)"/><path class="ef56cb92-5e42-46ed-9946-ff77c16a5ef0" d="M174.81 88.79v-8.68l-4.62-.71v-2.28l4.62.71v-3.39l8.32 1.28v3.4l4.58.71v2.24l-4.58-.7.07 17.4-8.31-1.3zM137.6 66l4.11.64v5.21s-6.27-1-8.2-1.27v-5.15zm160.55 28c0 2.88-2.43 4.84-5.52 4.4a6.59 6.59 0 0 1-5.66-6c0-2.87 2.42-4.83 5.51-4.39a6.59 6.59 0 0 1 5.67 5.99zm-1.15-.09a5.17 5.17 0 0 0-4.25-5c-2.45-.49-4.54 1-4.65 3.21v.2a5.16 5.16 0 0 0 4.24 5c2.46.49 4.55-.94 4.66-3.21z" transform="translate(-.98 -.52)"/><path class="ef56cb92-5e42-46ed-9946-ff77c16a5ef0" d="M295.1 96.54c-1.39-.29-1.44-1.3-2-2-.37-.47-.54-1.17-1.33-1.09s-.33.78-.41 1.2.11.89-.32 1.16c-.47-.65-1-5.36-.56-5.6a4.31 4.31 0 0 1 3.61.47c1 .5 1.32 1.82.73 2.11-2.09 1-.2 2.31.23 3.7zm-2.6-3.74c.78.12 1.51.13 1.54-.63 0-.93-.79-1.07-1.55-1.2s-1.13-.14-1.13.68.39 1.16 1.14 1.15z" transform="translate(-.98 -.52)"/></g></svg>