<svg xmlns="http://www.w3.org/2000/svg" xmlns:xlink="http://www.w3.org/1999/xlink" viewBox="0 0 470.58 67.66"><defs><style>.bbcd0432-16f3-48cf-bc5d-c7dbf280968c{stroke:#9def48;stroke-miterlimit:10;fill:url(#ba324bc7-5f90-417d-8439-927a4ae93ee2);}.a5373548-7707-491b-9e16-0c9e830db5f1{fill:#9def48;}.acc9582b-4fa3-4a92-8679-bfc70d6365d1{fill:#e60012;}.bd137c5e-d2a3-4278-8cd7-3f1cdf8753a1{fill:#fff;}</style><linearGradient id="ba324bc7-5f90-417d-8439-927a4ae93ee2" x1="0.5" y1="33.83" x2="470.08" y2="33.83" gradientUnits="userSpaceOnUse"><stop offset="0" stop-color="#032c02"/><stop offset="1" stop-color="#207a09"/></linearGradient></defs><g id="fa070211-0aa6-4580-bb8b-d7b042d61831" data-name="texte"><polygon class="bbcd0432-16f3-48cf-bc5d-c7dbf280968c" points="0.5 6.04 102.57 6.04 108.7 0.5 150.44 0.5 158.35 6.04 461.77 6.24 470.08 16.13 470.08 59.84 50.94 59.84 42.83 67.16 8.02 67.16 0.5 59.84 0.5 6.04"/><path class="a5373548-7707-491b-9e16-0c9e830db5f1" d="M80.32,37.42h4.37A17.11,17.11,0,0,1,81,44.72H56.87a18.25,18.25,0,0,1-4.22-12.26,18.22,18.22,0,0,1,4.22-12.25H81a17.11,17.11,0,0,1,3.67,7.3H80.32a18.89,18.89,0,0,0-1.47-3.23H59.06a16.32,16.32,0,0,0-2.34,8.18,16.38,16.38,0,0,0,2.34,8.19H78.85A19.62,19.62,0,0,0,80.32,37.42Z"/><path class="a5373548-7707-491b-9e16-0c9e830db5f1" d="M93,40.65h18.42l2.35,4.07H89v-21L93,19.61Z"/><path class="a5373548-7707-491b-9e16-0c9e830db5f1" d="M125.73,37.9l-4.29,6.82h-5.08l15.57-24.51h4.68l15.45,24.51h-5l-4.23-6.82Zm14.56-4-6-9.59-6,9.59Z"/><path class="a5373548-7707-491b-9e16-0c9e830db5f1" d="M183.66,30.43l1.84,2a18.14,18.14,0,0,1-4.22,12.26H157.14a17.13,17.13,0,0,1-3.68-7.3h4.38a19,19,0,0,0,1.48,3.23h19.79a16.92,16.92,0,0,0,2.19-6.17H154.76l-1.85-2a18.18,18.18,0,0,1,4.23-12.25h24.14a17.13,17.13,0,0,1,3.68,7.3h-4.38a17.47,17.47,0,0,0-1.47-3.23H159.32a17.3,17.3,0,0,0-2.2,6.15Z"/><path class="a5373548-7707-491b-9e16-0c9e830db5f1" d="M219.67,30.43l1.84,2a18.14,18.14,0,0,1-4.22,12.26H193.14a17.11,17.11,0,0,1-3.67-7.3h4.38a19,19,0,0,0,1.48,3.23h19.79a16.92,16.92,0,0,0,2.19-6.17H190.77l-1.85-2a18.22,18.22,0,0,1,4.22-12.25h24.15a17.13,17.13,0,0,1,3.68,7.3h-4.38a17.47,17.47,0,0,0-1.47-3.23H195.33a17.3,17.3,0,0,0-2.2,6.15Z"/><path class="a5373548-7707-491b-9e16-0c9e830db5f1" d="M230.71,44.72h-4.07v-21l4.07-4.07Z"/><path class="a5373548-7707-491b-9e16-0c9e830db5f1" d="M263.5,37.42h4.38a17.13,17.13,0,0,1-3.68,7.3H240.06a18.2,18.2,0,0,1-4.23-12.26,18.18,18.18,0,0,1,4.23-12.25H264.2a17.13,17.13,0,0,1,3.68,7.3H263.5A17.47,17.47,0,0,0,262,24.28H242.24a16.32,16.32,0,0,0-2.34,8.18,16.38,16.38,0,0,0,2.34,8.19H262A18.09,18.09,0,0,0,263.5,37.42Z"/><path class="a5373548-7707-491b-9e16-0c9e830db5f1" d="M302,30.43l1.85,2a18.19,18.19,0,0,1-4.22,12.26H275.52a17.13,17.13,0,0,1-3.68-7.3h4.38a19,19,0,0,0,1.48,3.23h19.8a17.08,17.08,0,0,0,2.18-6.17H273.14l-1.84-2a18.17,18.17,0,0,1,4.22-12.25h24.15a17.11,17.11,0,0,1,3.67,7.3H299a18.09,18.09,0,0,0-1.46-3.23H277.7a17.49,17.49,0,0,0-2.2,6.15Z"/></g><g id="b7d2d24f-49ae-4bf7-9cb5-9d1463856ec1" data-name="nintendo"><path class="acc9582b-4fa3-4a92-8679-bfc70d6365d1" d="M25.59,23.22A2.08,2.08,0,0,0,27.48,21a2.08,2.08,0,0,0-1.89-2.22A2.08,2.08,0,0,0,23.7,21,2.08,2.08,0,0,0,25.59,23.22Zm-.72-2.83H26.3c.53,0,.75.32.75.62s-.22.62-.75.62H24.87c-.53,0-.75-.32-.75-.62S24.34,20.39,24.87,20.39Z"/><path class="acc9582b-4fa3-4a92-8679-bfc70d6365d1" d="M23.8,26.07A1.82,1.82,0,0,0,25.56,28a1.77,1.77,0,0,0,1.66-1,1.84,1.84,0,0,0-.12-1.75h.19v-1.5H22.24v1.5H24.1A2,2,0,0,0,23.8,26.07ZM25,25.2h1.19a.6.6,0,1,1,0,1.19H25a.6.6,0,1,1,0-1.19Z"/><polygon class="bd137c5e-d2a3-4278-8cd7-3f1cdf8753a1" points="39.17 19.26 39.17 19.26 39.17 19.26 39.17 19.26"/><polygon class="acc9582b-4fa3-4a92-8679-bfc70d6365d1" points="23.94 38.47 23.94 37.65 23.44 37.65 23.44 38.47 22.76 38.47 22.76 39.99 23.44 39.99 23.44 40.82 23.94 40.82 23.94 39.99 27.29 39.99 27.29 38.47 23.94 38.47"/><path class="acc9582b-4fa3-4a92-8679-bfc70d6365d1" d="M26.12,33.46V35h.2c.61,0,.75.41.75.63a.66.66,0,0,1-.75.64h-.69V33.37a2.27,2.27,0,0,0,0,4.48,2.08,2.08,0,0,0,1.88-2.24A2.21,2.21,0,0,0,26.12,33.46Zm-1,2.77a1.13,1.13,0,0,1-.65-.1.6.6,0,0,1-.31-.53h0a.6.6,0,0,1,.31-.53,1.22,1.22,0,0,1,.65-.1Z"/><rect class="acc9582b-4fa3-4a92-8679-bfc70d6365d1" x="23.93" y="46.09" width="3.36" height="1.52"/><path class="acc9582b-4fa3-4a92-8679-bfc70d6365d1" d="M25.08,30h2.21V28.48H25.46a1.64,1.64,0,0,0-1.68,1.72h0a1.84,1.84,0,0,0,.5,1.21h-.35v1.5h3.36v-1.5H25.08a.7.7,0,0,1-.61-.72A.67.67,0,0,1,25.08,30Z"/><path class="acc9582b-4fa3-4a92-8679-bfc70d6365d1" d="M24.78,14.57a5.39,5.39,0,0,0-5.37,5.69V52.42a5.37,5.37,0,1,0,10.73,0V20.26A5.38,5.38,0,0,0,24.78,14.57Zm4,37.83a4.06,4.06,0,1,1-8.09,0V20.27a4.06,4.06,0,1,1,8.09,0Z"/><path class="acc9582b-4fa3-4a92-8679-bfc70d6365d1" d="M25.08,42.33h2.21V40.82H25.46a1.64,1.64,0,0,0-1.68,1.72h0a1.84,1.84,0,0,0,.5,1.21h-.35v1.5h3.36v-1.5H25.08a.7.7,0,0,1-.61-.72A.67.67,0,0,1,25.08,42.33Z"/><rect class="acc9582b-4fa3-4a92-8679-bfc70d6365d1" x="22.24" y="46.09" width="1.03" height="1.52"/><polygon class="acc9582b-4fa3-4a92-8679-bfc70d6365d1" points="22.24 50.04 25.76 50.04 22.24 52.21 22.24 53.79 27.29 53.79 27.29 52.22 23.77 52.22 27.29 50.04 27.29 48.48 22.24 48.48 22.24 50.04"/></g></svg>