<svg xmlns="http://www.w3.org/2000/svg" xmlns:xlink="http://www.w3.org/1999/xlink" viewBox="0 0 746.51 822.18"><defs><radialGradient id="f89921fd-22d3-43b3-a25c-cd7ee12f2da4" cx="121.61" cy="382.1" r="5.66" gradientTransform="matrix(1 0 0 .6 0 152.84)" xlink:href="#bb756472-5382-42f1-a02e-58eddf956996"/><radialGradient id="e255c244-d800-449a-811f-b3e903a8753f" cx="217.55" cy="416.02" r="5.66" xlink:href="#a5f881dc-683f-4541-915c-b80fe0efd484"/><radialGradient id="adf910ba-8915-47bc-add6-27d5bed133c5" cx="195.83" cy="370.99" r="11.47" xlink:href="#a5f881dc-683f-4541-915c-b80fe0efd484"/><radialGradient id="bb756472-5382-42f1-a02e-58eddf956996" cx="92.36" cy="393.88" r="5.66" gradientTransform="matrix(1 0 0 .6 0 157.55)" gradientUnits="userSpaceOnUse"><stop offset="0" stop-color="#0000ef"/><stop offset=".15" stop-color="#0000e9"/><stop offset=".34" stop-color="#0101d9"/><stop offset=".56" stop-color="#0101be"/><stop offset=".79" stop-color="#02029a"/><stop offset="1" stop-color="#020282"/></radialGradient><radialGradient id="f88461c9-be8d-49ef-b7d3-0b9ddc46325a" cx="114.61" cy="393.88" r="5.66" xlink:href="#bb756472-5382-42f1-a02e-58eddf956996"/><radialGradient id="b5432364-c8d9-409a-b53b-8b1704be8641" cx="133.17" cy="400.04" r="5.66" gradientTransform="matrix(1 0 0 .6 0 160.02)" xlink:href="#bb756472-5382-42f1-a02e-58eddf956996"/><radialGradient id="af727d67-559d-479f-b0c5-4e9999e50a3b" cx="139.21" cy="387.78" r="5.66" gradientTransform="matrix(1 0 0 .6 0 155.11)" xlink:href="#bb756472-5382-42f1-a02e-58eddf956996"/><radialGradient id="a5f881dc-683f-4541-915c-b80fe0efd484" cx="65.88" cy="348.77" r="11.47" gradientUnits="userSpaceOnUse"><stop offset="0" stop-color="#fd6d66"/><stop offset=".78" stop-color="#b50a03"/></radialGradient><radialGradient id="b85f7dbe-f3d3-42b2-b0d0-cc4a88c51459" cx="100.32" cy="382.53" r="5.66" gradientTransform="matrix(1 0 0 .6 0 153.01)" xlink:href="#bb756472-5382-42f1-a02e-58eddf956996"/><radialGradient id="f411c948-d1a0-4858-828f-107de6471166" cx="225.51" cy="404.67" r="5.66" xlink:href="#a5f881dc-683f-4541-915c-b80fe0efd484"/><radialGradient id="b88fc28a-490c-4d24-8493-32a89b7fee98" cx="246.79" cy="404.24" r="5.66" xlink:href="#a5f881dc-683f-4541-915c-b80fe0efd484"/><radialGradient id="baef2d07-31a3-4580-8fb9-7139958d02ca" cx="264.4" cy="409.93" r="5.66" xlink:href="#a5f881dc-683f-4541-915c-b80fe0efd484"/><radialGradient id="fd2695ef-fab4-4bc9-9f6b-6a6f95ed5405" cx="258.36" cy="422.19" r="5.66" xlink:href="#a5f881dc-683f-4541-915c-b80fe0efd484"/><radialGradient id="b7b5f2c7-cf04-4109-b020-5e880b5dd122" cx="239.79" cy="416.02" r="5.66" xlink:href="#a5f881dc-683f-4541-915c-b80fe0efd484"/><style>.ba447e35-0d54-4243-b6bb-292c01dd03d9{fill:#373735}.f366e416-9b79-42c7-8cd3-63878b105ee0{fill:#121211}.a92e69f4-5283-498c-93ae-310067d5c27d,.aa1b62da-768b-4b4b-83dc-3d1e2b9424b7,.ad8c3d47-04d3-48a1-b6cd-3f13a6484aad,.b3d18313-8e47-4274-9942-2d529ee1adcf,.f366e416-9b79-42c7-8cd3-63878b105ee0{stroke:#b5b5b5}.a92e69f4-5283-498c-93ae-310067d5c27d,.aa1b62da-768b-4b4b-83dc-3d1e2b9424b7,.ad8c3d47-04d3-48a1-b6cd-3f13a6484aad,.b3d18313-8e47-4274-9942-2d529ee1adcf,.bb346939-d125-41ec-8b0a-24db3795ea15,.be5a0546-1dfb-490d-bba4-3897ff050125,.e42ab72b-1871-473d-a98f-b87aa714017f,.f366e416-9b79-42c7-8cd3-63878b105ee0{stroke-miterlimit:10}.a92e69f4-5283-498c-93ae-310067d5c27d,.aa1b62da-768b-4b4b-83dc-3d1e2b9424b7,.ad8c3d47-04d3-48a1-b6cd-3f13a6484aad,.b3d18313-8e47-4274-9942-2d529ee1adcf,.bb346939-d125-41ec-8b0a-24db3795ea15,.f366e416-9b79-42c7-8cd3-63878b105ee0{stroke-width:.5px}.e42ab72b-1871-473d-a98f-b87aa714017f{fill:#443840}.bb346939-d125-41ec-8b0a-24db3795ea15,.e42ab72b-1871-473d-a98f-b87aa714017f{stroke:#090000}.e42ab72b-1871-473d-a98f-b87aa714017f{stroke-width:.75px}.bb346939-d125-41ec-8b0a-24db3795ea15{fill:#6b0c05}.b9710bb7-cd3d-4d45-a791-249b1619f5aa{fill:#86382f}.be5a0546-1dfb-490d-bba4-3897ff050125{stroke:#373737}.ad8c3d47-04d3-48a1-b6cd-3f13a6484aad{fill:#dc6e05}.f298702a-8fa3-42c7-8be3-ee7bac764a1f{fill:#fff}.b3d18313-8e47-4274-9942-2d529ee1adcf{fill:#12e600}.a92e69f4-5283-498c-93ae-310067d5c27d{fill:#0b47ce}.aa1b62da-768b-4b4b-83dc-3d1e2b9424b7,.af98d9d3-c188-4b3c-8da9-3e546e825e20{fill:#282826}.b7281578-1b5f-46e1-969d-4de1752c77eb{fill:#ae7a82}.b4e7d57e-7a7f-4852-ac5d-83feaf769bd4{fill:url(#a5f881dc-683f-4541-915c-b80fe0efd484)}.b260e081-06ec-4029-b1d6-ce7ff45ac295{fill:url(#adf910ba-8915-47bc-add6-27d5bed133c5)}.f10efd86-c122-4962-a6e8-c14f92cfeef2{fill:#0000ef}.eb25d836-e850-47c0-92af-fb39b35ee600{fill:#930303}.fc2e61ae-0af9-4cd3-8f36-6b226b4ee439{fill:#e7e7e7}.bd246a29-e6d4-438f-bb89-8d40476d7454{fill:#2c2b29}</style></defs><g id="a49f632a-e725-4ca9-b0b7-8c9e9fc78716" data-name="Calque 1"><path id="b9564143-cc14-4881-8c94-fa46c7ca5a5c" data-name="ombre" style="opacity:.5;fill:#373735" d="m452.03 588.79 21.51-5.91H485.41l1.58 2.96 237.36 43.3h11.08l11.07 31.39-46.41 37.71-46.42 13.19-8.18-1.32.27-1.85-13.98-2.63-83.6 27.95-73.32 51.57-22.83 6.82-7.77-1.16v-2.63l-16.08-3.03-129.99 34.37 153.84-230.73z"/><g id="ace89e00-8911-42bc-bc30-888c7d50aa4f" data-name="bottom"><path class="ba447e35-0d54-4243-b6bb-292c01dd03d9" d="m36 454.56 224.9 39.62v4.35l25.72 6.13-.4 311.34-248.24-47.27L36 454.56z"/><path class="f366e416-9b79-42c7-8cd3-63878b105ee0" d="m202 526.54-78.38-13.74c-3 .19-4.26 3.56-4.26 3.56l.2 85c.69 2.18 3.86 5 3.86 5l74.27 13.46c5.14.49 7.52-5.25 7.52-5.25v-82.69a7.12 7.12 0 0 0-3.21-5.34zm-49.9 22.55-18.69-3.46v-20l2.27-1.88 18.1 3.07-1.78 2.69zm31.45 6.13-18.69-3.46v-20l2.27-1.87 18.1 3.06-1.78 2.67z" transform="translate(-.98 -.52)"/><path class="e42ab72b-1871-473d-a98f-b87aa714017f" d="m134.7 523.25-2.27 1.88v19.98l18.69 3.46-.1-19.58 1.78-2.67-18.1-3.07zM166.15 529.38l-2.27 1.88v19.98l18.69 3.46-.1-19.58 1.78-2.67-18.1-3.07z"/><path class="bb346939-d125-41ec-8b0a-24db3795ea15" d="M140.14 543.03v-12.85l8.01 1.78v12.56l-8.01-1.49zM171.2 548.87v-12.86l8.01 1.78v12.56l-8.01-1.48z"/><path d="M135.23 543.16v-15.23l2.05.4v15.16l-2.05-.33zM166.68 548.7v-15.23l2.04.4v15.16l-2.04-.33z"/><path class="b9710bb7-cd3d-4d45-a791-249b1619f5aa" d="M140.4 530.69v-.35l7.47 1.8.01.43-7.48-1.88zM171.46 536.62v-.29l7.47 1.64.01.35-7.48-1.7z"/><circle cx="192.4" cy="574.85" r="4.25" style="fill:#8b8b8b;stroke-width:.75px;stroke:#090000;stroke-miterlimit:10"/><path class="be5a0546-1dfb-490d-bba4-3897ff050125" d="M136.29 598.71v-11.27l11.96 2.18v11.3l-11.96-2.21zM167.54 604.25v-11.27l11.96 2.17v10.88l-11.96-1.78z"/></g><g id="e266954d-7484-420e-a3e2-5a28b691b927" data-name="t molding"><path d="m11.46 450.59-.79-39.76L1 407.66v45.1l27.89 5.54c.59 103.55 1 207.6 1.58 311.15a6.18 6.18 0 0 0 3.53 2.19 12.58 12.58 0 0 0 5 0l-2-316.56zM272.36 497v-41.27l-10.28-1.19-.2 44.51 25.71 6.13s-1.51 313.85 0 315.69 8.77 1.32 8.77 1.32l.93-319.91z" transform="translate(-.98 -.52)"/><path d="m78.72 346.42-8.15-1.3 16.26-218.56 9.04 1.5-17.15 218.36zM329.24 388.85l9.1 1.28 18.49-224.31h-26.37l-.26-90.92-10.06-1.84v94.84l6.04 1.09h20.27l-17.21 219.86z"/><path d="M88.49 127.19s-28.17-.35-29.11-.85c0-31.21.06-62.83 0-94l9.36 2.64.48 89.02z" transform="translate(-.98 -.52)"/><g id="ad2e5e70-e5ed-429c-bb2d-adb361de039c" data-name="clair"><path d="m0 407.14 9.69 3.17L78 346.25l-8.11-1.94L0 407.14zM261.1 454.02l10.28 1.19 66.96-65.87-8.62-1.6-68.62 66.28zM111.56 0 58.42 31.78l9.36 2.64L120.36 3.3l2.74-1.62-2.57-.36L111.56 0zM383.74 40.62l-11.21-.8-52.39 33.24 10.06 1.84 53.54-34.28z"/></g></g><g id="fd589210-fd28-4737-8a60-4b9f963ab09c" data-name="side"><path class="f366e416-9b79-42c7-8cd3-63878b105ee0" d="m453.13 308.64.63-159.63-70.02-108.39L330.2 74.9l.26 90.92h26.37l-18.49 224.31-66.96 65.08v41.27l24.93 5.28-.93 319.91 8.25-6.32 149.65-543.7-.21 21.51-142.1 516.55-1.61 1.24 6.94-5.32 136.83-496.99zM324.06 799.15l-7.76 6.48 11.99-9.2 124.7-453.24.05-12.13-128.98 468.09zM335.43 790.95l-1.32 1.02 6.87-5.27 111.79-407.64v21.25l.22-57.12-.22 24-117.34 423.76zM343 785.15l108.58-83.28 1.18-299.85L347.4 781.78l-4.4 3.37z"/><path style="fill:#bf0000;stroke-width:.5px;stroke-miterlimit:10;stroke:#b5b5b5" d="m303.63 815.35 5.73-4.4-5.73 4.4z"/><path d="m453.07 293.16.21-21.51-149.65 543.7 5.73-4.4 1.61-1.24 142.1-516.55z"/><path class="ad8c3d47-04d3-48a1-b6cd-3f13a6484aad" d="M453.13 330.74v-22.1l-.09 22.42.09-.32zM316.3 805.63z"/><path class="f298702a-8fa3-42c7-8be3-ee7bac764a1f" d="m453.04 331.06.09-22.42L316.3 805.63l7.76-6.48 128.98-468.09z"/><path class="b3d18313-8e47-4274-9942-2d529ee1adcf" d="M452.99 343.19zM328.29 796.43l5.82-4.46-5.82 4.46z"/><path d="m334.11 791.97 1.32-1.02 117.34-423.76.22-24-124.7 453.24 5.82-4.46z"/><path class="a92e69f4-5283-498c-93ae-310067d5c27d" d="m340.98 786.7 2.02-1.55-2.02 1.55zM452.77 402v-1.69l-.01 1.71.01-.02z"/><path class="f298702a-8fa3-42c7-8be3-ee7bac764a1f" d="m340.98 786.7 2.02-1.55 4.4-3.37 105.36-379.76.01-1.71v-21.25L340.98 786.7z"/></g><g id="afe28363-a315-4377-8b05-f5a89beceb67" data-name="panel"><path class="aa1b62da-768b-4b4b-83dc-3d1e2b9424b7" d="m10.48 450.07 250.42 44.11.2-40.16L9.69 410.31l.79 39.76z"/><path class="ba447e35-0d54-4243-b6bb-292c01dd03d9" d="m79.37 345.21-69.68 65.1 251.41 43.71 68.62-66.28-250.35-42.53z"/></g><g id="aa837113-2446-4ccc-8b40-260a083026f9" data-name="ecran"><path class="aa1b62da-768b-4b4b-83dc-3d1e2b9424b7" d="M96.84 129.36 79.7 347.72l250.52 42.43L347.82 168zm224.28 67.76c0 .2-.29.32-.48.49l-10.43 144.83a35.43 35.43 0 0 1-4.3 3.78l1.4.29v10.7s-1.4 4.75-11.08 2.64c-11.19-2.44-178.55-31.91-178.55-31.91l8.72-6.78v-1.39s-2.46.52-6-7l-12.48 2.77h-4l11.34-158.77s4-6.85 10.81-6.59 191.16 30.59 191.16 30.59 6.17 1.07 3.89 16.35z" transform="translate(-.98 -.52)"/><path d="M317.28 180S133 149.66 126.12 149.4s-10.81 6.6-10.81 6.6l-11.74 160.08h4.35l12.29-2.68c-.1-.23-.74-1.57-.85-1.8L131 166.54s2.11-5.54 7.12-7.38l177.49 27.16a20.77 20.77 0 0 1 5.11 9.76l-.05.75c.19-.17.62.66.66.47 3.23-14.06-4.05-17.3-4.05-17.3z" transform="translate(-.98 -.52)" style="fill:#151312"/><path d="m125.32 320-8.56 8s164.63 29.3 178.61 32.24c10.36 2.17 14.43-3.58 14.43-3.58l.61-7.37.39-7.71-4.89 3.84a20.85 20.85 0 0 1-7.73 3.87z" transform="translate(-.98 -.52)" style="fill:#555353"/><path d="M319.5 197.81c.45-.36.83-.69 1.14-1l.66-.52a20.31 20.31 0 0 0-5.72-10l-177.49-27.13c-5 1.84-7.12 7.38-7.12 7.38L119.36 311.6l.32.66c3.54 7.52 6.28 8 6.28 8l.44.08 171.78 28.93a20.85 20.85 0 0 0 7.73-3.87c2.57-1.91 4.89-3.84 4.89-3.84l10.5-145.29c-.44.46-1.05.96-1.8 1.54zM143.83 302.35z" transform="translate(-.98 -.52)" style="fill:#008aa6"/></g><g id="a62be79b-4357-4e0f-8b93-6b1256fa33f1" data-name="top"><path id="fe1a45a1-aaa2-415e-bb36-68f848522bdf" data-name="marquee" class="aa1b62da-768b-4b4b-83dc-3d1e2b9424b7" d="m68.24 123.5 251.47 39.03.43-89.47L67.78 34.42l.46 89.08z"/><path style="stroke-miterlimit:10;stroke:#b5b5b5;fill:#373735" d="m128.84 2.64-5.74-.96-55.32 32.74 252.36 38.64 52.39-33.24L128.84 2.64z"/></g><g id="b1ed3b7e-9fee-4d83-8d18-e2643a8d7e1c" data-name="stickp1"><path class="af98d9d3-c188-4b3c-8da9-3e546e825e20" d="M68.92 377.27v5.16H62.4v-5.16c-5.06.64-8.77 2.7-8.77 5.16 0 3 5.38 5.35 12 5.35s12-2.39 12-5.35c.06-2.43-3.63-4.52-8.71-5.16z" transform="translate(-.98 -.52)"/><path class="b7281578-1b5f-46e1-969d-4de1752c77eb" d="M68.92 377.27v-17.78a12.18 12.18 0 0 1-3 .39 12.4 12.4 0 0 1-3.48-.49v17.88a26.67 26.67 0 0 1 6.52 0z" transform="translate(-.98 -.52)"/><path class="b7281578-1b5f-46e1-969d-4de1752c77eb" d="M68.92 382.43v-5.16a26.67 26.67 0 0 0-6.52 0v5.16z" transform="translate(-.98 -.52)"/><path class="b4e7d57e-7a7f-4852-ac5d-83feaf769bd4" d="M68.92 358.89v.6a11.24 11.24 0 0 0 8.77-10.72c0-6.14-5.29-11.11-11.81-11.11s-11.82 5-11.82 11.11a11.22 11.22 0 0 0 8.34 10.62v-.5z" transform="translate(-.98 -.52)"/><path class="b7281578-1b5f-46e1-969d-4de1752c77eb" d="M68.92 359.49v-.6H62.4v.5a12.4 12.4 0 0 0 3.48.49 12.18 12.18 0 0 0 3.04-.39z" transform="translate(-.98 -.52)"/><path class="b4e7d57e-7a7f-4852-ac5d-83feaf769bd4" d="M68.92 359.49v-.6H62.4v.5a12.4 12.4 0 0 0 3.48.49 12.18 12.18 0 0 0 3.04-.39z" transform="translate(-.98 -.52)"/></g><g id="eef27e8c-9202-4c67-9bcc-3361108204ea" data-name="stickp2"><path class="af98d9d3-c188-4b3c-8da9-3e546e825e20" d="M198.88 399.49v5.16h-6.53v-5.16c-5 .64-8.77 2.7-8.77 5.16 0 3 5.39 5.35 12 5.35s12-2.39 12-5.35c.07-2.46-3.64-4.52-8.7-5.16z" transform="translate(-.98 -.52)"/><path class="b7281578-1b5f-46e1-969d-4de1752c77eb" d="M198.88 399.49v-17.78a12.2 12.2 0 0 1-3 .39 12.83 12.83 0 0 1-3.48-.49v17.88a26.75 26.75 0 0 1 6.53 0z" transform="translate(-.98 -.52)"/><path class="b7281578-1b5f-46e1-969d-4de1752c77eb" d="M198.88 404.65v-5.16a26.75 26.75 0 0 0-6.53 0v5.16z" transform="translate(-.98 -.52)"/><path class="b260e081-06ec-4029-b1d6-ce7ff45ac295" d="M198.88 381.11v.6a11.24 11.24 0 0 0 8.77-10.71c0-6.14-5.29-11.11-11.82-11.11S184 364.85 184 371a11.22 11.22 0 0 0 8.34 10.62v-.5z" transform="translate(-.98 -.52)"/><path class="b7281578-1b5f-46e1-969d-4de1752c77eb" d="M198.88 381.71v-.6h-6.53v.5a12.83 12.83 0 0 0 3.48.49 12.2 12.2 0 0 0 3.05-.39z" transform="translate(-.98 -.52)"/><path class="b260e081-06ec-4029-b1d6-ce7ff45ac295" d="M198.88 381.71v-.6h-6.53v.5a12.83 12.83 0 0 0 3.48.49 12.2 12.2 0 0 0 3.05-.39z" transform="translate(-.98 -.52)"/></g><g id="ab12b8f8-a5dc-4316-9dda-4b69eb7a21c4" data-name="boutons P1"><g id="a8c2bca9-09d9-4139-9033-312691dcd6f7" data-name="4"><path class="f10efd86-c122-4962-a6e8-c14f92cfeef2" d="M92.54 389.14c-3.86 0-8.12 1.53-8.12 4.87 0 2.95 4.1 4.62 7.94 4.62 4.11 0 8-1.73 8-4.88-.04-2.35-3.88-4.61-7.82-4.61zm-.18 8.63c-3.86 0-7-1.74-7-3.89s3.13-3.89 7-3.89 7 1.74 7 3.89-3.14 3.89-7 3.89z" transform="translate(-.98 -.52)"/><path d="M92.36 390c-3.86 0-7 1.74-7 3.89s3.13 3.89 7 3.89 7-1.74 7-3.89-3.14-3.89-7-3.89z" transform="translate(-.98 -.52)" style="fill:url(#bb756472-5382-42f1-a02e-58eddf956996)"/></g><g id="ab14115c-cc44-4163-b905-9274b8a75118" data-name="5"><path class="f10efd86-c122-4962-a6e8-c14f92cfeef2" d="M114.79 389.14c-3.86 0-8.12 1.53-8.12 4.87 0 2.95 4.1 4.62 7.94 4.62 4.11 0 8-1.73 8-4.88-.04-2.35-3.88-4.61-7.82-4.61zm-.18 8.63c-3.86 0-7-1.74-7-3.89s3.13-3.89 7-3.89 7 1.74 7 3.89-3.14 3.89-7 3.89z" transform="translate(-.98 -.52)"/><path d="M114.61 390c-3.86 0-7 1.74-7 3.89s3.13 3.89 7 3.89 7-1.74 7-3.89-3.14-3.89-7-3.89z" transform="translate(-.98 -.52)" style="fill:url(#f88461c9-be8d-49ef-b7d3-0b9ddc46325a)"/></g><g id="bb2eebae-3804-45ed-a8b6-69ce19b251bf" data-name="6"><path class="f10efd86-c122-4962-a6e8-c14f92cfeef2" d="M133.35 395.3c-3.86 0-8.13 1.53-8.13 4.87 0 3 4.11 4.62 7.95 4.62 4.1 0 8-1.73 8-4.88-.04-2.35-3.88-4.61-7.82-4.61zm-.18 8.63c-3.86 0-7-1.74-7-3.89s3.13-3.89 7-3.89 7 1.74 7 3.89-3.17 3.89-7 3.89z" transform="translate(-.98 -.52)"/><path d="M133.17 396.15c-3.86 0-7 1.74-7 3.89s3.13 3.89 7 3.89 7-1.74 7-3.89-3.17-3.89-7-3.89z" transform="translate(-.98 -.52)" style="fill:url(#b5432364-c8d9-409a-b53b-8b1704be8641)"/></g><g id="ad222396-5caa-4b0d-90c3-59c281a1b1ad" data-name="3"><path class="f10efd86-c122-4962-a6e8-c14f92cfeef2" d="M139.39 383c-3.86 0-8.13 1.53-8.13 4.88 0 2.95 4.11 4.61 8 4.61 4.1 0 8-1.73 8-4.88-.09-2.31-3.93-4.61-7.87-4.61zm-.18 8.63c-3.86 0-7-1.74-7-3.89s3.13-3.89 7-3.89 7 1.75 7 3.89-3.14 3.93-7 3.93z" transform="translate(-.98 -.52)"/><path d="M139.21 383.89c-3.86 0-7 1.75-7 3.89s3.13 3.89 7 3.89 7-1.74 7-3.89-3.14-3.89-7-3.89z" transform="translate(-.98 -.52)" style="fill:url(#af727d67-559d-479f-b0c5-4e9999e50a3b)"/></g><g id="f37c0a0c-54e4-4295-9da8-6b1317395385" data-name="2"><path class="f10efd86-c122-4962-a6e8-c14f92cfeef2" d="M121.79 377.35c-3.86 0-8.12 1.53-8.12 4.88 0 2.95 4.1 4.61 7.94 4.61 4.11 0 8-1.73 8-4.88-.04-2.34-3.88-4.61-7.82-4.61zm-.18 8.64c-3.86 0-7-1.74-7-3.89s3.13-3.89 7-3.89 7 1.74 7 3.89-3.14 3.9-7 3.9z" transform="translate(-.98 -.52)"/><path d="M121.61 378.21c-3.86 0-7 1.74-7 3.89s3.13 3.89 7 3.89 7-1.74 7-3.89-3.14-3.89-7-3.89z" transform="translate(-.98 -.52)" style="fill:url(#f89921fd-22d3-43b3-a25c-cd7ee12f2da4)"/></g><g id="eefd320b-144c-4857-9aff-e974af090291" data-name="1"><path class="f10efd86-c122-4962-a6e8-c14f92cfeef2" d="M100.5 377.78c-3.86 0-8.13 1.53-8.13 4.88 0 2.95 4.11 4.62 7.95 4.62 4.1 0 8-1.73 8-4.88-.04-2.35-3.88-4.62-7.82-4.62zm-.18 8.64c-3.86 0-7-1.74-7-3.89s3.13-3.89 7-3.89 7 1.74 7 3.89-3.14 3.89-7 3.89z" transform="translate(-.98 -.52)"/><path d="M100.32 378.64c-3.86 0-7 1.74-7 3.89s3.13 3.89 7 3.89 7-1.74 7-3.89-3.14-3.89-7-3.89z" transform="translate(-.98 -.52)" style="fill:url(#b85f7dbe-f3d3-42b2-b0d0-cc4a88c51459)"/></g></g><g id="a5ee67ce-cbc4-4905-9589-566585a34c3a" data-name="boutons P2"><g id="ac9fb26a-39eb-4994-9e5f-84f9fa8f44b7" data-name="1"><path class="eb25d836-e850-47c0-92af-fb39b35ee600" d="M225.69 399.93c-3.86 0-8.13 1.53-8.13 4.87 0 2.95 4.11 4.62 7.95 4.62 4.1 0 8-1.73 8-4.88-.04-2.35-3.88-4.61-7.82-4.61zm-.18 8.63c-3.86 0-7-1.74-7-3.89s3.13-3.89 7-3.89 7 1.74 7 3.89-3.14 3.89-7 3.89z" transform="translate(-.98 -.52)"/><path d="M225.51 400.78c-3.86 0-7 1.74-7 3.89s3.13 3.89 7 3.89 7-1.74 7-3.89-3.14-3.89-7-3.89z" transform="translate(-.98 -.52)" style="fill:url(#f411c948-d1a0-4858-828f-107de6471166)"/></g><g id="e245aaf0-12f2-462c-86cb-8b0f47c00f50" data-name="2"><path class="eb25d836-e850-47c0-92af-fb39b35ee600" d="M247 399.49c-3.86 0-8.13 1.54-8.13 4.88 0 2.95 4.11 4.62 7.95 4.62 4.1 0 8-1.73 8-4.88-.07-2.35-3.91-4.62-7.82-4.62zm-.18 8.64c-3.86 0-7-1.74-7-3.89s3.13-3.89 7-3.89 7 1.74 7 3.89-3.17 3.89-7.03 3.89z" transform="translate(-.98 -.52)"/><path d="M246.79 400.35c-3.86 0-7 1.74-7 3.89s3.13 3.89 7 3.89 7-1.74 7-3.89-3.14-3.89-7-3.89z" transform="translate(-.98 -.52)" style="fill:url(#b88fc28a-490c-4d24-8493-32a89b7fee98)"/></g><g id="f0bc51af-5631-4731-94a5-a3ddbe62d32b" data-name="3"><path class="eb25d836-e850-47c0-92af-fb39b35ee600" d="M264.58 405.18c-3.86 0-8.12 1.53-8.12 4.88 0 2.95 4.1 4.61 7.94 4.61 4.1 0 8-1.73 8-4.88-.04-2.35-3.88-4.61-7.82-4.61zm-.18 8.64c-3.86 0-7-1.75-7-3.89s3.13-3.89 7-3.89 7 1.74 7 3.89-3.14 3.89-7 3.89z" transform="translate(-.98 -.52)"/><path d="M264.4 406c-3.86 0-7 1.74-7 3.89s3.13 3.89 7 3.89 7-1.75 7-3.89-3.14-3.89-7-3.89z" transform="translate(-.98 -.52)" style="fill:url(#baef2d07-31a3-4580-8fb9-7139958d02ca)"/></g><g id="b83898ca-6630-41e3-a208-576bbbbf8cdb" data-name="4"><path class="eb25d836-e850-47c0-92af-fb39b35ee600" d="M258.54 417.44c-3.86 0-8.13 1.53-8.13 4.88 0 2.95 4.11 4.61 8 4.61 4.1 0 8-1.73 8-4.88-.09-2.35-3.93-4.61-7.87-4.61zm-.18 8.64c-3.86 0-7-1.75-7-3.89s3.13-3.89 7-3.89 7 1.74 7 3.89-3.14 3.89-7 3.89z" transform="translate(-.98 -.52)"/><path d="M258.36 418.3c-3.86 0-7 1.74-7 3.89s3.13 3.89 7 3.89 7-1.75 7-3.89-3.14-3.89-7-3.89z" transform="translate(-.98 -.52)" style="fill:url(#fd2695ef-fab4-4bc9-9f6b-6a6f95ed5405)"/></g><g id="eceeac55-f55b-46dd-aaff-8e0ab73fa5e0" data-name="5"><path class="eb25d836-e850-47c0-92af-fb39b35ee600" d="M240 411.28c-3.86 0-8.13 1.53-8.13 4.88 0 2.95 4.11 4.61 7.95 4.61 4.1 0 8-1.73 8-4.88-.07-2.35-3.91-4.61-7.82-4.61zm-.18 8.63c-3.86 0-7-1.74-7-3.89s3.13-3.89 7-3.89 7 1.75 7 3.89-3.17 3.89-7.03 3.89z" transform="translate(-.98 -.52)"/><path d="M239.79 412.13c-3.86 0-7 1.75-7 3.89s3.13 3.89 7 3.89 7-1.74 7-3.89-3.14-3.89-7-3.89z" transform="translate(-.98 -.52)" style="fill:url(#b7b5f2c7-cf04-4109-b020-5e880b5dd122)"/></g><g id="e2679743-8774-4e0e-a0c2-2ffdb0878e98" data-name="6"><path class="eb25d836-e850-47c0-92af-fb39b35ee600" d="M217.73 411.28c-3.86 0-8.13 1.53-8.13 4.88 0 2.95 4.11 4.61 8 4.61 4.1 0 8-1.73 8-4.88-.09-2.35-3.93-4.61-7.87-4.61zm-.18 8.63c-3.86 0-7-1.74-7-3.89s3.13-3.89 7-3.89 7 1.75 7 3.89-3.14 3.89-7 3.89z" transform="translate(-.98 -.52)"/><path d="M217.55 412.13c-3.86 0-7 1.75-7 3.89s3.13 3.89 7 3.89 7-1.74 7-3.89-3.14-3.89-7-3.89z" transform="translate(-.98 -.52)" style="fill:url(#e255c244-d800-449a-811f-b3e903a8753f)"/></g></g><path class="fc2e61ae-0af9-4cd3-8f36-6b226b4ee439" d="M228.57 237.19v.07l-5.92-1v-.08zM236.56 238.53a.13.13 0 0 0 0 .06l-5.72-1v-.06z" transform="translate(-.98 -.52)"/><path class="bd246a29-e6d4-438f-bb89-8d40476d7454" d="m210.17 273.38-65.56-11c-.87-.14-.87-.14-.74-.92.25-1.54.47-3.08.75-4.61.78-4.31 1.48-8.63 2.22-12.95.09-.48.22-1 .29-1.44 0-.18.12-.23.31-.19l.75.13 119.31 19.98a16.13 16.13 0 0 1 4.69 1.42 11.54 11.54 0 0 1 5.67 5.9 8.36 8.36 0 0 1 .63 3.88c0 .38-.08.76-.15 1.14l-1.56 9.36c-.07.39-.13.42-.54.36l-40.11-6.72zm14.68-7.7c-.4 2.35-.79 4.71-1.19 7.07 0 .23 0 .34.3.38 1 .15 1.95.32 2.93.49.51.09.51.09.59-.37q.69-4.22 1.4-8.43c0-.08 0-.21.12-.22s.13.1.17.17c1.69 3.14 3.43 6.26 5.06 9.42a2.38 2.38 0 0 0 3.55.6c.9-.94 1.91-1.79 2.87-2.68l4.89-4.53c.08-.07.15-.22.26-.17s0 .2 0 .31v.12c-.47 2.79-.93 5.58-1.4 8.37 0 .25 0 .35.31.4 1 .16 2 .32 3.06.51.34.07.45 0 .49-.32l2.32-13.83a1.32 1.32 0 0 0-.25-1 2.34 2.34 0 0 0-3.26-.37l-2.16 2-8.12 7.4c-.25.23-.28.22-.45-.08-2.2-4.06-4.42-8.11-6.61-12.17a2.14 2.14 0 0 0-1.43-1.06A1.74 1.74 0 0 0 226 259zm-4.51-.71c.38-2.31.76-4.61 1.16-6.92a1.32 1.32 0 0 0-.45-1.21 2.4 2.4 0 0 0-3.17 0c-2.39 2.24-4.82 4.43-7.24 6.63l-2.95 2.7c-.13.12-.23.25-.37 0l-3.44-6.31c-1.1-2-2.19-4-3.3-6a2.24 2.24 0 0 0-2.21-1 1.52 1.52 0 0 0-1.5 1.37q-1.16 6.86-2.3 13.71c0 .28.05.37.35.41 1 .15 2 .32 3 .5.44.07.45.08.51-.3.46-2.73.91-5.46 1.37-8.19 0-.13 0-.27.06-.4s0-.16.11-.17.1.08.13.14.18.34.28.51c1.63 3 3.29 6 4.88 9.07a2.34 2.34 0 0 0 3.35.6c.47-.47 1-.91 1.48-1.37l6.5-6c.06-.05.09-.14.19-.11s.07.14.06.22c-.14.81-.28 1.62-.41 2.44-.35 2.06-.69 4.13-1 6.2 0 .22 0 .32.29.36l3 .5c.44.07.45.07.52-.31q.51-3.6 1.1-7.04zm33.15 5.67c-.38 2.28-.76 4.57-1.15 6.85-.06.31.06.41.38.45 1 .16 2 .32 3 .5.33.07.45 0 .5-.31.16-1 .35-2.08.51-3.12 0-.23.12-.33.4-.28l12.77 2.14c.33.05.39.18.34.45-.18 1-.34 2.08-.53 3.12-.05.25 0 .35.32.4 1 .15 2 .32 3 .49.45.07.46.07.53-.34l1.22-7.32a6.88 6.88 0 0 0-2.51-6.52 12.61 12.61 0 0 0-6.36-3c-2.38-.41-4.76-.8-7.13-1.19-.72-.12-1.45-.26-2.17-.35a1.6 1.6 0 0 0-1.91 1.29c-.46 2.27-.83 4.5-1.21 6.74zm-62.24-10.42 1.14-6.79a1.24 1.24 0 0 0 0-.47 1.91 1.91 0 0 0-1.63-1.33c-1.55-.26-3.1-.53-4.65-.77-1.84-.3-3.66-.71-5.51-.87a11.55 11.55 0 0 0-7 1.39 6.55 6.55 0 0 0-3.37 4.67q-.63 3.74-1.25 7.47c-.07.4-.07.4.36.47 1 .17 2 .32 2.93.5.33.06.45 0 .5-.31.15-1 .34-2.06.5-3.09 0-.29.17-.35.48-.3l12.67 2.12c.34 0 .42.16.37.46-.19 1-.35 2.08-.54 3.11 0 .26 0 .36.32.4 1 .16 2 .32 3 .51.33.06.44 0 .49-.32.42-2.28.81-4.57 1.19-6.85zm-38.3 1 6.47 1.08a7.76 7.76 0 0 0 2.76 0 3.93 3.93 0 0 0 3.34-2.92c.64-3.78 1.26-7.55 1.9-11.33.05-.27 0-.37-.33-.42-1-.15-2-.32-3-.5-.36-.07-.46 0-.51.33q-.92 5.58-1.86 11.15a1.08 1.08 0 0 1-1.24.95 4.41 4.41 0 0 1-.73-.08c-1-.18-2-.37-3.06-.54l-7-1.15c-.28-.05-.35-.15-.31-.38.11-.59.19-1.18.31-1.76.06-.28 0-.4-.35-.45-.84-.13-1.68-.26-2.52-.42-.34-.07-.44 0-.49.32-.24 1.49-.49 3-.74 4.45-.07.42-.07.42.42.5zM230.83 237.63l5.72 1c.15.09.15.2.13.35-.37 2.17-.73 4.34-1.11 6.51 0 .29 0 .38.34.43 3.09.5 6.18 1 9.27 1.54.32.05.34.16.31.44-.06.67-.23 1.33-.32 2-.22 1.55-.54 3.09-.8 4.63-.1.59-.17 1.19-.26 1.78 0 .2-.12.31-.4.26L228.57 254c-.65-.11-.65-.11-.56-.68q1.29-7.69 2.57-15.38c.02-.15.02-.31.25-.31zm3.94 12.7c-.13.78-.25 1.56-.39 2.34-.05.27 0 .38.33.43 1.06.16 2.11.34 3.16.53.32.06.44 0 .49-.31.25-1.55.51-3.1.78-4.66 0-.24 0-.34-.31-.38q-1.62-.25-3.24-.54c-.28-.05-.39 0-.43.27-.16.78-.26 1.55-.39 2.32zM255.63 249.17c2.55.43 5.09.86 7.64 1.27.34.06.42.17.37.47q-.7 4.14-1.39 8.3c-.07.37-.1.4-.52.33L246.38 257c-.27-.05-.34-.16-.3-.39q.72-4.21 1.41-8.43c0-.28.18-.33.47-.28 2.55.44 5.11.86 7.67 1.29zm1.31 4.88c.14-.8.27-1.6.41-2.4 0-.23 0-.36-.3-.4l-3.44-.58c-.26 0-.38 0-.42.27l-.81 4.85c0 .25.05.36.33.41l3.37.56c.3.06.42 0 .46-.3.13-.8.27-1.6.4-2.41zM173.53 244.78l-7.64-1.27c-.31 0-.37-.15-.33-.42q.72-4.2 1.42-8.42c0-.25.13-.32.4-.27l15.36 2.6c.41.07.43.11.37.49-.26 1.55-.53 3.11-.78 4.66 0 .31-.17.37-.5.32-3.07-.53-6.15-1-9.22-1.55-.46-.08-.46-.08-.52.32s-.11.7-.19 1 0 .35.31.4c2.06.33 4.11.68 6.17 1l3.16.53c.32.05.42.17.37.44s-.14.74-.19 1.11-.18.38-.51.32zm.92-5.45c.56.1 1.13.18 1.69.29.25 0 .35 0 .38-.25 0-.39.12-.78.2-1.17 0-.21 0-.32-.26-.36l-3.41-.57c-.22 0-.33 0-.36.23q-.08.62-.18 1.23c0 .23.06.3.29.33.55.07 1.1.17 1.65.27zM211.28 241.75l7.64 1.28c.44.07.5.14.42.52-.43 2-.7 4-1.05 6-.14.74-.27 1.48-.37 2.23 0 .29-.15.37-.49.31-2.08-.36-4.17-.7-6.26-1l-9-1.51c-.42-.07-.43-.08-.37-.47.26-1.56.53-3.11.77-4.67 0-.32.18-.37.52-.31l9.16 1.54c.46.07.46.07.53-.33s.09-.67.17-1 0-.4-.36-.46c-2.34-.37-4.68-.77-7-1.16l-2.31-.38c-.24 0-.32-.12-.28-.34a10.85 10.85 0 0 0 .21-1.27c0-.27.16-.31.43-.26l5.37.9 2.27.38zm-1.15 7.25c.55.09 1.11.17 1.66.27.21 0 .33 0 .36-.21l.21-1.23c0-.19-.05-.29-.27-.33l-3.33-.56c-.24 0-.35 0-.38.24 0 .4-.11.79-.19 1.17-.05.23.05.33.29.37.52.07 1.1.17 1.65.28zM268.74 251.36c.87.15 1.74.31 2.62.44.31 0 .38.18.34.43-.08.4-.13.8-.21 1.2 0 .21 0 .3.27.34l3.36.56c.28 0 .38 0 .41-.27.06-.41.15-.82.2-1.23 0-.23.15-.27.37-.24l5.4.91c.21 0 .3.13.27.33-.08.43-.16.86-.22 1.29 0 .23-.16.29-.41.25-.44-.09-.89-.15-1.34-.24-.24 0-.33 0-.36.24-.05.4-.13.8-.19 1.2 0 .23-.15.3-.4.25-.47-.08-.94-.15-1.41-.24-.17 0-.24 0-.29.17-.13.44-.08.91-.25 1.34-.07.18.07.24.24.27l1.38.22c.28 0 .38.15.33.41s-.13.78-.21 1.17c0 .21.05.31.28.34l1.34.22c.25 0 .34.13.3.36-.09.42-.17.84-.22 1.27 0 .22-.15.27-.36.24l-.65-.11-4.62-.77c-.45-.08-.45-.08-.38-.49s.12-.76.19-1.14c.05-.21 0-.3-.27-.34l-3.44-.58c-.22 0-.29 0-.31.21-.06.4-.16.8-.19 1.21s-.19.37-.5.32l-4.72-.8c-1.16-.19-.93-.1-.8-1 0-.25.09-.49.12-.74s.16-.29.4-.25c.45.09.9.15 1.34.24.27.05.39 0 .42-.26s.14-.78.19-1.17.16-.31.41-.26c.46.09.92.15 1.37.24.21 0 .3 0 .32-.2.06-.43.13-.85.22-1.27 0-.21-.05-.28-.26-.31l-1.38-.23c-.24 0-.34-.12-.29-.36s.14-.78.21-1.17c0-.23 0-.35-.31-.38-.45-.06-.9-.15-1.35-.22-.25 0-.34-.14-.29-.37q.12-.63.21-1.26c0-.24.16-.29.4-.24zM222.64 236.28l5.92 1a.42.42 0 0 1 .05.36q-1.31 7.77-2.6 15.56c0 .28-.17.37-.48.31s-.88-.19-1.33-.26l-3.89-.62c-.46-.08-.45-.08-.39-.49q1.31-7.74 2.6-15.49c.02-.14 0-.28.12-.37zM191.71 247.82l-7.71-1.28c-.3 0-.4-.14-.35-.43q.72-4.2 1.41-8.4c0-.26.15-.32.42-.27l15.39 2.56c.31.05.42.18.36.45s-.11.72-.19 1.08-.13.41-.55.34l-4.16-.7-5.06-.85c-.28 0-.37 0-.41.25-.22 1.39-.46 2.78-.69 4.17a2.74 2.74 0 0 1 0 .28c-.11.6-.11.6.58.72l8.92 1.49c.42.07.45.11.39.5s-.15.72-.18 1.08-.19.35-.48.3c-.56-.11-1.12-.2-1.68-.29z" transform="translate(-.98 -.52)"/><path d="M291.07 282.1c-.25 1.47-.49 2.94-.74 4.41-.07.42-.07.42-.51.34l-4.27-.71c-.27 0-.37-.13-.3-.37s.07-.41.11-.62-.06-.27-.25-.29l-.49-.05c-.39-.06-.49 0-.51.37v.19c0 .43-.14.5-.63.42-1.39-.23-2.79-.47-4.19-.69-.32-.05-.4-.19-.36-.45.5-3 1-5.91 1.49-8.86.06-.36.14-.42.55-.33 2.95.58 5.92 1 8.87 1.52.52.09 1 .13 1.55.22s.47.1.4.52c-.24 1.46-.49 2.92-.73 4.38zm-8.37-.17 1.58.27c.22 0 .32 0 .35-.22.1-.59.2-1.19.31-1.79 0-.21-.06-.3-.29-.34l-3.13-.52c-.21 0-.31 0-.35.22-.08.59-.18 1.19-.29 1.79 0 .21 0 .31.27.34zm5.47-1.49c-.52-.08-1-.16-1.55-.26-.25-.05-.36 0-.39.24-.09.59-.19 1.19-.29 1.78-.05.23.05.29.28.33 1 .16 2 .33 3 .51.28.05.39 0 .43-.27.08-.56.17-1.13.28-1.69 0-.23 0-.35-.3-.39-.48-.08-.97-.17-1.46-.25z" transform="translate(-.98 -.52)" style="fill:#2785db"/><path d="M292.87 271.31c-.25 1.48-.5 3-.74 4.44-.07.38-.11.4-.52.34l-2.86-.48c-.41-.07-.49-.18-.43-.54.14-.85.28-1.71.43-2.56a.34.34 0 0 1 0-.1c.2-.63.12-.52.72-.43l1.48.25c.26 0 .4 0 .44-.25.09-.59.19-1.18.29-1.76 0-.21 0-.33-.3-.38l-8-1.34c-.26 0-.39.05-.42.28-.09.57-.19 1.14-.28 1.7 0 .23.05.36.31.41l3.06.52a.25.25 0 0 0 .33-.17 1.81 1.81 0 0 0 .12-.64c0-.19.11-.24.27-.29a.45.45 0 0 1 .2 0c.85.09.89.14.77.88-.21 1.26-.43 2.51-.63 3.77 0 .26-.17.34-.43.3l-5.43-.91c-.49-.08-.55-.15-.48-.58.49-3 1-5.91 1.48-8.87 0-.17.09-.23.28-.22s.55 0 .83.08l9.77 1.63c.55.09.55.1.47.6l-.72 4.32z" transform="translate(-.98 -.52)" style="fill:#44c047"/><path d="M289.84 254.78c1.75.29 3.49.59 5.24.87.3 0 .4.13.35.42-.51 3-1 5.95-1.49 8.92-.05.3-.16.38-.49.32-1.4-.25-2.8-.48-4.2-.71-.36-.06-.42-.15-.36-.47 0-.12.06-.23.08-.34.08-.47.08-.47-.46-.56h-.21c-.5-.08-.51-.08-.54.39 0 .18-.1.34-.11.52s-.18.19-.35.16l-4.44-.74c-.23 0-.32-.15-.29-.35.17-1 .35-2 .51-3.06 0-.28.23-.27.45-.23l1.83.3c.8.15 1.61.24 2.4.44.25.06.44 0 .48-.27.07-.57.17-1.14.28-1.7.05-.27 0-.38-.34-.43-1.42-.22-2.83-.47-4.24-.7-.29 0-.4-.12-.35-.4.18-1 .33-2 .48-3 0-.26.15-.33.44-.28 1.77.31 3.55.6 5.33.9zm1.49 6.43c.51.08 1 .16 1.54.26.22 0 .35 0 .39-.21.09-.61.19-1.22.3-1.82 0-.2 0-.32-.27-.35l-3.09-.52c-.22 0-.32 0-.35.21-.09.63-.2 1.25-.31 1.88 0 .18 0 .26.24.29z" transform="translate(-.98 -.52)" style="fill:#eb1416"/><path class="bd246a29-e6d4-438f-bb89-8d40476d7454" d="m156.94 232.66 7.54 1.26c.53.09.53.09.45.57s-.13.7-.17 1-.16.33-.44.28l-9.3-1.57c-.33-.05-.41 0-.45.3-.35 2.17-.72 4.33-1.07 6.49-.05.31-.2.36-.51.31l-5.19-.87c-.3 0-.4-.14-.35-.42q.72-4.19 1.4-8.39c.05-.31.19-.34.48-.29z" transform="translate(-.98 -.52)"/><path class="fc2e61ae-0af9-4cd3-8f36-6b226b4ee439" d="M224.85 265.68 226 259a1.74 1.74 0 0 1 2.34-1.33 2.14 2.14 0 0 1 1.43 1.06c2.19 4.06 4.41 8.11 6.61 12.17.17.3.2.31.45.08l8.14-7.43 2.16-2a2.34 2.34 0 0 1 3.26.37 1.32 1.32 0 0 1 .25 1q-1.17 6.91-2.32 13.83c0 .29-.15.39-.49.32-1-.19-2-.35-3.06-.51-.3-.05-.36-.15-.31-.4.47-2.79.93-5.58 1.4-8.37v-.12c0-.04.11-.25 0-.31s-.18.1-.26.17l-4.89 4.53c-1 .89-2 1.74-2.87 2.68a2.38 2.38 0 0 1-3.55-.6c-1.63-3.16-3.37-6.28-5.06-9.42 0-.07-.06-.19-.17-.17s-.11.14-.12.22l-1.4 8.43c-.08.46-.08.46-.59.37-1-.17-1.95-.34-2.93-.49-.28 0-.34-.15-.3-.38.4-2.36.79-4.72 1.19-7.07zM220.34 265q-.59 3.46-1.16 6.95c-.07.38-.08.38-.52.31l-3-.5c-.27 0-.32-.14-.29-.36.36-2.07.7-4.14 1-6.2.13-.82.27-1.63.41-2.44 0-.08.06-.18-.06-.22s-.13.06-.19.11l-6.5 6c-.5.46-1 .9-1.48 1.37a2.34 2.34 0 0 1-3.35-.6c-1.59-3-3.25-6.05-4.88-9.07-.1-.17-.19-.34-.28-.51s-.05-.14-.13-.14-.1.1-.11.17 0 .27-.06.4c-.46 2.73-.91 5.46-1.37 8.19-.06.38-.07.37-.51.3-1-.18-2-.35-3-.5-.3 0-.4-.13-.35-.41q1.16-6.86 2.3-13.71a1.52 1.52 0 0 1 1.5-1.37 2.24 2.24 0 0 1 2.21 1c1.11 2 2.2 4 3.3 6l3.44 6.31c.14.27.24.14.37 0l2.95-2.7c2.42-2.2 4.85-4.39 7.24-6.63a2.4 2.4 0 0 1 3.17 0 1.32 1.32 0 0 1 .45 1.21c-.4 2.31-.78 4.61-1.16 6.92zM253.49 270.64c.38-2.24.75-4.47 1.13-6.7a1.6 1.6 0 0 1 1.91-1.29c.72.09 1.45.23 2.17.35 2.37.39 4.75.78 7.13 1.19a12.61 12.61 0 0 1 6.36 3 6.88 6.88 0 0 1 2.51 6.52q-.6 3.66-1.22 7.32c-.07.41-.08.41-.53.34-1-.17-2-.34-3-.49-.29 0-.37-.15-.32-.4.19-1 .35-2.08.53-3.12.05-.27 0-.4-.34-.45l-12.77-2.14c-.28-.05-.36 0-.4.28-.16 1-.35 2.08-.51 3.12-.05.3-.17.38-.5.31-1-.18-2-.34-3-.5-.32 0-.44-.14-.38-.45.39-2.28.77-4.57 1.15-6.85zM264 273l6.37 1.07c.3 0 .43 0 .46-.28s.08-.52.12-.78a4.27 4.27 0 0 0-1.54-4.2 8.48 8.48 0 0 0-4-1.85c-2.25-.43-4.52-.78-6.77-1.17-.34-.06-.36.12-.4.33q-.44 2.69-.9 5.37c0 .29 0 .4.36.46zM191.25 260.22c-.38 2.28-.77 4.57-1.14 6.85-.05.3-.16.38-.49.32-1-.19-2-.35-3-.51-.29 0-.36-.14-.32-.4.19-1 .35-2.08.54-3.11.05-.3 0-.41-.37-.46l-12.67-2.12c-.31-.05-.44 0-.48.3-.16 1-.35 2.05-.5 3.09 0 .3-.17.37-.5.31-1-.18-1.95-.33-2.93-.5-.43-.07-.43-.07-.36-.47q.62-3.74 1.25-7.47a6.55 6.55 0 0 1 3.37-4.67 11.55 11.55 0 0 1 7-1.39c1.85.16 3.67.57 5.51.87 1.55.24 3.1.51 4.65.77a1.91 1.91 0 0 1 1.59 1.37 1.24 1.24 0 0 1 0 .47l-1.14 6.79zm-10.67-1.14c2.11.35 4.22.7 6.33 1.07.32.05.44 0 .48-.29.3-1.81.6-3.63.91-5.44 0-.26 0-.37-.33-.42q-3-.48-6-1a11.11 11.11 0 0 0-3.77 0 4.85 4.85 0 0 0-3.81 2.54 7.49 7.49 0 0 0-.52 2c-.07.4-.07.41.4.48zM153 261.25l-7-1.17c-.49-.08-.49-.08-.42-.5.25-1.48.5-3 .74-4.45.05-.28.15-.39.49-.32.84.16 1.68.29 2.52.42.31.05.41.17.35.45-.12.58-.2 1.17-.31 1.76 0 .23 0 .33.31.38l7 1.15c1 .17 2 .36 3.06.54a4.41 4.41 0 0 0 .73.08 1.08 1.08 0 0 0 1.24-.95q.94-5.58 1.86-11.15c0-.3.15-.4.51-.33 1 .18 2 .35 3 .5.3.05.38.15.33.42-.64 3.78-1.26 7.55-1.9 11.33a3.93 3.93 0 0 1-3.34 2.92 7.76 7.76 0 0 1-2.76 0l-6.41-1.08z" transform="translate(-.98 -.52)"/><path class="bd246a29-e6d4-438f-bb89-8d40476d7454" d="m264 273-6.33-1c-.34-.06-.41-.17-.36-.46q.47-2.68.9-5.37c0-.21.06-.39.4-.33 2.25.39 4.52.74 6.77 1.17a8.48 8.48 0 0 1 4 1.85 4.27 4.27 0 0 1 1.54 4.2c0 .26-.1.52-.12.78s-.16.33-.46.28zM180.58 259.08l-6.3-1.06c-.47-.07-.47-.08-.4-.48a7.49 7.49 0 0 1 .52-2 4.85 4.85 0 0 1 3.81-2.54 11.11 11.11 0 0 1 3.77 0q3 .51 6 1c.31.05.38.16.33.42-.31 1.81-.61 3.63-.91 5.44 0 .29-.16.34-.48.29-2.11-.37-4.22-.72-6.33-1.07z" transform="translate(-.98 -.52)"/></g><g id="b81e33d0-8740-46eb-9c3a-5fbc2389356d" data-name="be912974-704b-4ee0-ad44-9887023319ef"><path d="M191.87 59.52c1.58 1.86 3.24 3.7 4.77 5.62a2.43 2.43 0 0 1 .53 1.74c-1.07 4.53-2.27 9-3.35 13.55-.24.94-.74 1-1.6.85L161 76.63c-2.2-.32-4 .2-5.15 1.89-.84 1.18-.64 1.69.92 2 4.75.78 9.51 1.48 14.26 2.19l24.86 3.67 1.27.13c-3.22-5.06-2.34-9.46 2.12-11.15a7.11 7.11 0 0 1 7.49 2c2.22 2.33 4.48 4.65 6.46 7.16 1 1.29 1.5 3 2.34 4.76l3.17.52 2.55-10.14a1.64 1.64 0 0 1 2.16-1.44c3.82.63 7.64 1.12 11.47 1.73a2.92 2.92 0 0 1 1.5.83q2.64 2.77 5.14 5.67a1.88 1.88 0 0 1 .27 1.4c-.36 1.7-.81 3.36-1.26 5.15 5.49.81 10.85 1.63 16.21 2.38a3.83 3.83 0 0 1 2.65 1.44c1.48 1.76 3.09 3.41 4.6 5.14a1.55 1.55 0 0 1 .38 1.1c-2 8.32-4.11 16.64-6.22 25.14l-6.14-.88c-2.21-.33-4.4-.64-6.62-1a2.73 2.73 0 0 1-1.37-.72c-1.58-1.68-3.06-3.44-4.64-5.11a2.22 2.22 0 0 1-.72-2.49 29.49 29.49 0 0 0 .78-3l-16-2.42-56.23-8.36-13.12-1.93a4.65 4.65 0 0 0-5.42 3.52 5.49 5.49 0 0 0 4.62 6.52c9.91 1.53 19.8 3 29.71 4.51l1.37.24a8.26 8.26 0 0 1-.1 1c-1.16 4.57-2.34 9.14-3.44 13.74-.24.93-.73 1-1.58.92-11.3-1.72-22.59-3.56-33.86-5.11-6.6-.91-11.88-4.87-16.84-9.31-3.62-3.23-5.18-7.47-4.23-11.83s2-8.75 3.33-13c1.12-3.65 3.84-5.67 7.87-6.08-.54-.62-1-1.15-1.5-1.67a9 9 0 0 1-2.54-8.78c1.22-4.91 2.51-9.79 3.77-14.67C136.94 55.74 143 52 150 53.09q19.4 2.91 38.86 5.71a12.36 12.36 0 0 0 1.36 0zm52.94 66.15c.45.11.78.2 1.1.26 3.46.52 6.91 1 10.37 1.57 1.1.19 1.57 0 1.82-1.08 1.81-7.5 3.7-15 5.55-22.44l.35-1.41-25.47-3.81L241.48 87c-4.44-.65-8.74-1.3-13-1.87-.31 0-.76.47-.86.85-.86 3.22-1.62 6.48-2.49 9.69-.1.42-.59 1-.92 1-4.29-.56-8.58-1.23-13-1.89 3.83-3.35 4.42-6.81 1.79-10-2.28-2.76-6.16-3.54-8.86-1.77a5.79 5.79 0 0 0-2.66 4.42c-.25 2.3.77 4.32 2.8 6.33l-9.17-1.35q-17.62-2.64-35.2-5.26a6.05 6.05 0 0 1-5.16-7.36 5 5 0 0 1 5.84-3.57c10.26 1.49 20.53 3 30.82 4.57 1.51.23 2-.14 2.3-1.48.9-4 2-7.88 3-11.82.1-.41.17-.85.27-1.32-.39-.08-.7-.18-1-.22L156 60c-7-1-12.94 2.75-14.55 9.21-1.08 4.13-2.06 8.31-3.21 12.42-.89 3.19-1.06 6.36 1.19 9.64-3.15 1.86-4.41 3.21-5.07 5.7-1.1 4.14-2.21 8.29-3.2 12.48-1.76 7.62 4.12 16 12.24 17.28 11.9 1.88 23.81 3.6 35.73 5.41.93.14 1.23-.12 1.42-.91 1.05-4.3 2.16-8.54 3.22-12.81.08-.33.12-.68.18-1.07-.53-.09-1-.18-1.39-.24l-28.82-4.32a6.12 6.12 0 0 1-5.51-6.42c.18-3.18 2.82-5.08 6.36-4.55l85.05 12.65c2.51.38 5 .79 7.71 1.22z" transform="translate(-.98 -.52)"/><path class="f298702a-8fa3-42c7-8be3-ee7bac764a1f" d="m244.81 125.67 2.5-10c-2.68-.41-5.2-.83-7.72-1.22l-85-12.65c-3.54-.53-6.19 1.37-6.36 4.55a6.11 6.11 0 0 0 5.5 6.42q14.43 2.19 28.87 4.33l1.38.24c-.06.4-.1.75-.18 1.07-1.08 4.28-2.16 8.54-3.22 12.81-.2.79-.49 1.06-1.41.92-11.92-1.83-23.86-3.54-35.74-5.42-8.12-1.28-14-9.64-12.23-17.28 1-4.2 2.08-8.34 3.19-12.47.66-2.5 1.92-3.85 5.07-5.7-2.25-3.29-2.08-6.45-1.19-9.64 1.15-4.11 2.12-8.3 3.21-12.43C143.07 62.77 149 59 156 60q20 2.91 40 5.9c.28 0 .57.13 1 .22-.1.47-.17.9-.27 1.32-1 3.93-2 7.84-2.95 11.81-.3 1.35-.79 1.72-2.3 1.49-10.3-1.6-20.56-3.08-30.82-4.57a5 5 0 0 0-5.84 3.57 6 6 0 0 0 5.16 7.35q17.6 2.66 35.2 5.25l9.17 1.35c-2-2-3.05-4-2.79-6.32a5.77 5.77 0 0 1 2.58-4.37c2.7-1.76 6.59-1 8.86 1.77 2.63 3.2 2 6.65-1.79 10 4.38.65 8.68 1.33 13 1.89.33.05.81-.54.93-1 .86-3.21 1.62-6.47 2.49-9.68.09-.38.55-.9.86-.86 4.29.57 8.59 1.22 13 1.87l-3 11.8L264 102.6l-.34 1.37c-1.86 7.47-3.74 14.94-5.55 22.44-.26 1.08-.73 1.28-1.83 1.09-3.45-.59-6.91-1.06-10.36-1.58-.34 0-.67-.15-1.12-.25zm-49.28-59a2.72 2.72 0 0 0-.47-.19c-13.15-1.94-26.28-3.9-39.4-5.77-5.68-.81-11.2 2.13-12.94 7.18-1.43 4.15-2.34 8.57-3.57 12.84-1 3.57-1.39 7.13 1.26 10.9-2.61 1.14-4.54 2.82-5.31 5.53a110.63 110.63 0 0 0-3 12c-1.37 8.08 4.28 15.3 12.74 16.63 3 .48 6.1.93 9.15 1.39 8.07 1.21 16.14 2.43 24.21 3.6.45.07 1.16-.16 1.26-.49.54-1.67.92-3.43 1.39-5.28-.6-.11-1.07-.22-1.54-.29l-30.64-4.62c-6.7-1-11.08-7.18-9.52-13.39.58-2.25 1.11-4.53 1.73-6.77 1.27-4.52 5.5-7.16 10.42-6.51h1.32c-5.85-2.66-8.22-7.1-6.91-12.46q.9-3.64 1.86-7.28c1.12-4.6 5.4-7.27 10.34-6.45 7.13 1 14.27 2.11 21.41 3.17L194 72.54zm-23.71 23c-.3-.07-.52-.14-.75-.17-4-.61-8-1.18-12-1.85a6.88 6.88 0 0 1-5.14-4.53 6 6 0 0 1 6.44-8.2c1.13.13 2.28.33 3.42.5l27.44 4c.41 0 1.1-.12 1.18-.4.54-1.71.94-3.49 1.39-5.26a4.15 4.15 0 0 0-.69-.28c-11.86-1.75-23.72-3.58-35.55-5.19-3.87-.53-6.94 1-8.32 4.37a43.92 43.92 0 0 0-2.79 10.2c-.72 4.94 2.66 9.17 7.83 10.26 2.71.57 5.43.89 8.14 1.3s5.3.76 7.9 1.13zm10.76 28.22c-.29-.07-.52-.14-.75-.18l-28.64-4.31a7.11 7.11 0 0 1-6-6.62c-.26-4 3-6.82 7.18-6.22 4.37.63 8.77 1.32 13.16 1.91.4 0 1.1-.12 1.19-.4.54-1.72.94-3.49 1.38-5.22a2.08 2.08 0 0 0-.42-.25c-5.94-.88-11.92-1.91-17.84-2.59a9.24 9.24 0 0 0-10.14 7l-1.32 5.18c-1.47 6 2.66 11.9 9.08 12.92 5.87.93 11.73 1.77 17.6 2.65l14.06 2.12zm65.7-3.62c-.06.47-.08.76-.14 1l-2.06 8.27c-.26 1 0 1.67 1.27 1.84 2.78.39 5.57.78 8.35 1.23.87.14 1.31-.07 1.52-.89q2.59-10.56 5.24-21.07c.25-1 0-1.62-1.27-1.78-2.59-.32-5.18-.65-7.77-1.16-1.48-.3-2 .17-2.28 1.48-.28 1.59-.77 3.11-1.13 4.67a1.15 1.15 0 0 1-1.54.94l-.28-.11c-.25-.1-.45-1.09-.37-1.58.24-1.51.59-3 1-4.45.26-1 0-1.63-1.22-1.8-2.64-.36-5.27-.75-7.91-1.19a1.13 1.13 0 0 0-1.5 1c-.38 1.61-.86 3.18-1.18 4.8-.67 3.43 1.18 6.57 4.65 8.31 2.26 1.12 4.34.88 6.67.55zm-23.23-15c-5-4.26-10.4-4-12.94.53-1.9 3.4-.2 7.81 3.76 9.57a7.59 7.59 0 0 0 6.08.15c.71.58 1.17 1.22 1.63 1.3q4.68.78 9.34 1.35a1.36 1.36 0 0 0 1.2-.84c1.92-7.44 3.76-14.91 5.65-22.35.28-1.13-.16-1.61-1.3-1.77-2.15-.3-4.3-.68-6.46-.94-4.36-.53-3.31-1.25-4.37 2.76-.91 3.4-1.73 6.81-2.59 10.26zm-42 2.41a23.32 23.32 0 0 1 1.68 2 4 4 0 0 0 3.24 1.89c1.9.19 3.82.57 5.73.79a6.88 6.88 0 0 0 1.7-.2 7.9 7.9 0 0 0-.81-1.68c-1.55-2-3.16-3.85-4.82-5.85 2.58-1.21 5-2.33 7.46-3.53.34-.17.45-.74.67-1.12a6 6 0 0 0-1.22-.7c-3.35-.89-6.46-.88-9 1-.32.23-.66.44-1 .64-.59-.64-1.14-1.31-1.66-2a4 4 0 0 0-3.23-1.89c-1.94-.18-3.91-.59-5.86-.82a5 5 0 0 0-1.51.27 6.2 6.2 0 0 0 .69 1.55c1.54 1.94 3.15 3.82 4.83 5.86-2.61 1.22-5.1 2.36-7.56 3.55-.32.16-.46.64-.68 1a4.53 4.53 0 0 0 1.25.83c3.33.92 6.45.92 9-1 .32-.21.68-.4 1.09-.64zm27.06.64 1.37-5.46c.23-.9-.15-1.4-1.08-1.54-2.87-.43-5.74-.89-8.6-1.22a1.4 1.4 0 0 0-1.24.8c-1 3.52-1.81 7.08-2.73 10.61-.27 1.07.19 1.56 1.21 1.72 2.82.42 5.65.86 8.46 1.18a1.37 1.37 0 0 0 1.22-.79c.56-1.72.95-3.52 1.39-5.3zm-.54-19.17c-3.13-1.29-6.42.17-7.2 3.23a6.21 6.21 0 0 0 3.7 7.06c3.16 1.34 6.58-.18 7.32-3.26.73-2.66-.95-5.79-3.76-7h-.06z" transform="translate(-.98 -.52)"/><path d="M195.53 66.68 194 72.57l-14.72-2.14c-7.13-1.05-14.28-2.13-21.41-3.17-4.95-.82-9.23 1.85-10.34 6.45q-1 3.63-1.86 7.29c-1.32 5.36 1.06 9.79 6.9 12.45a10.35 10.35 0 0 1-1.32 0c-4.92-.65-9.14 2-10.42 6.52-.62 2.23-1.15 4.51-1.73 6.77-1.55 6.2 2.83 12.36 9.52 13.39l30.65 4.61c.46.07.93.18 1.53.29-.46 1.85-.84 3.59-1.38 5.29-.11.32-.82.55-1.26.49-8.07-1.17-16.14-2.39-24.21-3.6-3.05-.48-6.1-.92-9.16-1.39-8.45-1.33-14.1-8.57-12.74-16.64a111.22 111.22 0 0 1 3-12c.77-2.69 2.7-4.37 5.32-5.53-2.66-3.76-2.29-7.33-1.26-10.89 1.23-4.27 2.13-8.69 3.57-12.85 1.75-5.06 7.26-8 12.93-7.18 13.12 1.89 26.26 3.84 39.41 5.77a2.9 2.9 0 0 1 .47.16z" transform="translate(-.98 -.52)"/><path d="m171.82 89.67-1.5 5.92c-2.61-.37-5.26-.73-7.9-1.13s-5.44-.73-8.13-1.28c-5.17-1.08-8.55-5.32-7.83-10.26a43.43 43.43 0 0 1 2.79-10.2c1.38-3.34 4.45-4.9 8.31-4.37 11.84 1.61 23.7 3.44 35.56 5.19a4.43 4.43 0 0 1 .68.28c-.45 1.78-.84 3.55-1.38 5.26-.07.29-.77.47-1.19.4l-27.44-4c-1.14-.17-2.28-.37-3.42-.5a6 6 0 0 0-6.43 8.2 6.88 6.88 0 0 0 5.13 4.53c4 .67 8 1.24 12 1.85a5.54 5.54 0 0 1 .74.13zm10.75 28.23-1.51 6-14.06-2.14c-5.86-.88-11.73-1.72-17.6-2.65-6.42-1-10.55-6.92-9.08-12.91l1.32-5.18a9.25 9.25 0 0 1 10.14-7c5.94.68 11.9 1.72 17.85 2.6.08 0 .17.1.41.24-.44 1.73-.84 3.51-1.38 5.22-.07.29-.77.47-1.19.41-4.37-.61-8.77-1.28-13.16-1.92-4.18-.6-7.44 2.24-7.18 6.23a7.13 7.13 0 0 0 6.05 6.62q14.34 2.17 28.65 4.29c.23.05.45.12.74.19zm65.71-3.61c-2.33.32-4.41.57-6.68-.56-3.47-1.74-5.31-4.89-4.64-8.32.32-1.62.8-3.2 1.17-4.8a1.13 1.13 0 0 1 1.5-1q3.95.65 7.9 1.18c1.26.17 1.49.77 1.23 1.8-.37 1.47-.71 3-1 4.46-.08.48.12 1.47.36 1.57a1.2 1.2 0 0 0 1.76-.55 1.18 1.18 0 0 0 .06-.27c.37-1.56.85-3.08 1.14-4.67.23-1.32.79-1.78 2.28-1.49 2.58.52 5.17.85 7.77 1.17 1.27.16 1.52.75 1.26 1.78l-5.24 21.07c-.2.81-.65 1-1.51.89-2.8-.45-5.58-.85-8.36-1.23-1.23-.17-1.53-.81-1.26-1.84l2.06-8.27a9 9 0 0 0 .14-1zm-1.16-11.79c-1.29-.19-2.24-.36-3.2-.48-1.33-.18-3.09-.88-3.88-.33s-.9 2.34-1.21 3.61c-1 4.15 1.95 7.7 6.39 7.54 1.16 0 2.26-.39 3.41-.53a9.62 9.62 0 0 1 1.6.07 14.8 14.8 0 0 1 .06 1.63 8.1 8.1 0 0 1-.3 1.2l-2.12 8.52c2.23.35 4.28.59 6.33 1 1.08.21 1.48-.08 1.71-1.07 1.22-5.14 2.53-10.24 3.8-15.36l1-3.8c-2.4-.36-4.66-.74-6.9-1a1.16 1.16 0 0 0-1 .71c-.47 1.52-.77 3.11-1.21 4.65a2.76 2.76 0 0 1-3.89 1.43c-1.42-.61-2-1.83-1.59-3.58.31-1.33.66-2.64 1.06-4.21zm-22.07-3.2c.86-3.45 1.68-6.86 2.56-10.24 1.07-4 0-3.29 4.38-2.76 2.15.27 4.31.64 6.46.94 1.14.16 1.58.65 1.29 1.78-1.88 7.44-3.73 14.9-5.64 22.34a1.37 1.37 0 0 1-1.2.84q-4.67-.56-9.34-1.35c-.46-.08-.92-.71-1.63-1.3a7.55 7.55 0 0 1-6.08-.15c-4-1.76-5.66-6.16-3.76-9.56 2.55-4.54 7.93-4.81 13-.54zm12.82-10.42c-2.34-.35-4.57-.6-6.81-1-1.05-.2-1.38.14-1.59 1q-1.54 6.48-3.24 12.9c-.1.44-.64.7-1 1a6.52 6.52 0 0 1-1-1.25 5.5 5.5 0 0 0-3-3.13c-3-1.28-6.56-.07-7.76 2.66-1.34 3 .45 6.25 4 7.08a6 6 0 0 0 5.67-1.59c.27-.23.8-.17 1.22-.25a5 5 0 0 1 .38 1.34 8.09 8.09 0 0 1-.38 1.65l8.09 1.19z" transform="translate(-.98 -.52)"/><path d="M183 101.69c-.41.24-.77.43-1.09.66-2.6 1.86-5.71 1.86-9 1a5.17 5.17 0 0 1-1.25-.84c.23-.33.36-.81.69-1 2.46-1.2 4.95-2.34 7.56-3.55-1.69-2-3.3-3.92-4.84-5.86a6.41 6.41 0 0 1-.69-1.55 5 5 0 0 1 1.52-.27c2 .23 3.91.64 5.86.82A4 4 0 0 1 185 93c.52.7 1.08 1.36 1.66 2 .32-.21.66-.42 1-.65 2.6-1.86 5.71-1.87 9-1a5.46 5.46 0 0 1 1.22.69c-.22.38-.32.95-.67 1.12-2.41 1.2-4.88 2.32-7.45 3.53 1.66 2 3.27 3.91 4.81 5.85a8.69 8.69 0 0 1 .81 1.68 6.77 6.77 0 0 1-1.7.21c-1.91-.22-3.82-.6-5.73-.8a4 4 0 0 1-3.23-1.89 25.54 25.54 0 0 0-1.69-2zm-5.95-9.58 4.13 4.94c1.19 1.44 1.15 1.74-.31 2.43-1.72.81-3.45 1.6-5.33 2.47 2.43.9 3.75-.52 5.34-1.17 2.85-1.18 2.07-1.53 4.52 1.34.51.6 1.13 1.45 1.74 1.6a53.6 53.6 0 0 0 5.43.83c-1.52-1.83-2.85-3.42-4.16-5s-1.18-1.7.31-2.4l5.05-2.37-.24-.52a27.09 27.09 0 0 0-3 .71c-1.18.44-2.22 1.13-3.41 1.53a2 2 0 0 1-1.57-.46c-.75-.7-1.33-1.58-2-2.35a2.41 2.41 0 0 0-1.06-.79c-1.72-.31-3.42-.5-5.4-.78zm33 10.22c-.45 1.78-.83 3.58-1.38 5.3a1.39 1.39 0 0 1-1.21.8c-2.81-.32-5.65-.76-8.47-1.19-1-.15-1.49-.64-1.21-1.72.93-3.54 1.77-7.09 2.73-10.61a1.41 1.41 0 0 1 1.25-.79c2.86.33 5.73.79 8.6 1.22.92.14 1.31.64 1.08 1.54-.44 1.81-.88 3.63-1.34 5.45zm-.52-5.42-7.41-1.09-2.47 9.8 7.42 1.09zm0-13.75c2.82 1.18 4.54 4.3 3.84 7v.05c-.75 3.09-4.17 4.62-7.32 3.26a6.21 6.21 0 0 1-3.71-7.06c.78-3 4.08-4.53 7.2-3.22zm-3.06 8.73a3.81 3.81 0 0 0 5.22-2.25 4.23 4.23 0 0 0-2.4-4.84h-.09a3.71 3.71 0 0 0-5.15 2.2 4.17 4.17 0 0 0 2.45 4.88z" transform="translate(-.98 -.52)"/><path class="f298702a-8fa3-42c7-8be3-ee7bac764a1f" d="M247.12 102.5c-.39 1.56-.75 2.88-1.06 4.22-.39 1.74.18 3 1.6 3.57a2.76 2.76 0 0 0 3.88-1.43c.43-1.49.75-3.13 1.22-4.64a1.15 1.15 0 0 1 1-.72c2.25.26 4.51.65 6.9 1l-.94 3.81c-1.28 5.11-2.58 10.22-3.8 15.36-.25 1-.63 1.28-1.71 1.07-2.05-.41-4.11-.66-6.34-1l2.13-8.53a7.52 7.52 0 0 0 .3-1.2 12.78 12.78 0 0 0-.07-1.63 9.53 9.53 0 0 0-1.6-.07c-1.14.15-2.24.49-3.4.54-4.44.15-7.43-3.4-6.4-7.54.32-1.28.34-3 1.22-3.62s2.55.16 3.88.33c.95.11 1.9.29 3.19.48zm-9.25-13.62-5.41 21.62-8.09-1.19a8.25 8.25 0 0 0 .38-1.65 5.13 5.13 0 0 0-.38-1.34c-.42.08-1 0-1.22.25a5.94 5.94 0 0 1-5.67 1.59c-3.53-.82-5.32-4-4-7.09 1.2-2.72 4.76-3.92 7.76-2.65a5.5 5.5 0 0 1 3 3.13 5.68 5.68 0 0 0 1 1.24c.33-.34.86-.61 1-1q1.69-6.42 3.24-12.9c.22-.9.54-1.24 1.59-1 2.26.47 4.49.72 6.83 1.07zm-60.78 3.23c2 .28 3.69.49 5.4.8a2.32 2.32 0 0 1 1.06.78 30.6 30.6 0 0 0 2 2.36 2 2 0 0 0 1.58.45c1.18-.4 2.22-1.09 3.4-1.52a25.06 25.06 0 0 1 3-.72l.24.53-5.05 2.35c-1.49.7-1.53.94-.31 2.4l4.16 5a53.17 53.17 0 0 1-5.43-.83c-.61-.15-1.23-1-1.74-1.6-2.45-2.87-1.68-2.51-4.52-1.34-1.59.65-2.91 2.07-5.34 1.17 1.87-.87 3.6-1.65 5.33-2.47 1.46-.69 1.49-1 .31-2.43l-4.13-4.94zm32.49 4.8-2.47 9.82-7.41-1.09 2.47-9.81zm-3.08-5A4.25 4.25 0 0 1 204 87a3.71 3.71 0 0 1 5.18-2.24 4.25 4.25 0 0 1 2.51 4.8v.08a3.78 3.78 0 0 1-5.18 2.26z" transform="translate(-.98 -.52)"/></g></svg>