<svg id="bae51f9f-9ab5-4723-91c1-5de94dc4635e" data-name="a239eaf1-8294-4681-a69a-fb3ec2beb79f" xmlns="http://www.w3.org/2000/svg" xmlns:xlink="http://www.w3.org/1999/xlink" viewBox="0 0 87.6 88.6"><defs><style>.a89433b7-ff65-4919-816a-9c1e9152cefd,.f9671d15-4b31-49ac-9600-d06decaccae7{fill:#211c1d;}.f460d289-7f22-4e85-8a3b-2746634b6b4d{opacity:0.1;}.eca14194-3b7d-42ae-84d8-20649785d5fc{fill:#808094;}.f6b9d950-28ab-4173-9b1b-d24dcf954b61{fill:#6d6e6f;}.bdf0641c-49a9-4af0-8f26-abfd65d3b9a9{fill:url(#e575d219-0ec0-40de-add9-505f8945c15f);}.f9671d15-4b31-49ac-9600-d06decaccae7{opacity:0.3;}.af431fb3-0621-46aa-b792-20382dd60e3a,.edfe0942-77a4-4e7e-a5f9-f9fc7ae74a9e,.f9671d15-4b31-49ac-9600-d06decaccae7{isolation:isolate;}.edfe0942-77a4-4e7e-a5f9-f9fc7ae74a9e{opacity:0.15;fill:url(#f88ff245-0c6b-4adf-8f74-e95c7fdfe658);}.af431fb3-0621-46aa-b792-20382dd60e3a{opacity:0.4;fill:url(#b307d978-d1d0-4c2e-9787-00cbfcbbe301);}.ba87588e-4c85-4610-9bb9-0a589a63616e{fill:#f7f5f5;}</style><linearGradient id="e575d219-0ec0-40de-add9-505f8945c15f" x1="-747.89" y1="-1613.92" x2="-768.82" y2="-1592.99" gradientTransform="matrix(1, 0, 0, -1, 802.18, -1559.63)" gradientUnits="userSpaceOnUse"><stop offset="0" stop-color="#a4a5a9"/><stop offset="1" stop-color="#e6e6e7"/></linearGradient><linearGradient id="f88ff245-0c6b-4adf-8f74-e95c7fdfe658" x1="-768.73" y1="-1613.9" x2="-747.85" y2="-1593.03" gradientTransform="matrix(1, 0, 0, -1, 802.18, -1559.63)" gradientUnits="userSpaceOnUse"><stop offset="0" stop-color="#211c1d" stop-opacity="0"/><stop offset="0.04" stop-color="#211c1d" stop-opacity="0.09"/><stop offset="0.5" stop-color="#211c1d"/><stop offset="0.95" stop-color="#211c1d" stop-opacity="0.09"/><stop offset="1" stop-color="#211c1d" stop-opacity="0"/></linearGradient><linearGradient id="b307d978-d1d0-4c2e-9787-00cbfcbbe301" x1="-5380.68" y1="3954.31" x2="-5359.8" y2="3975.2" gradientTransform="matrix(-1, 0, 0, 1, -5326.48, -3920.92)" gradientUnits="userSpaceOnUse"><stop offset="0" stop-color="#fff" stop-opacity="0"/><stop offset="0.5" stop-color="#fff"/><stop offset="1" stop-color="#fff" stop-opacity="0"/></linearGradient></defs><circle class="a89433b7-ff65-4919-816a-9c1e9152cefd" cx="43.8" cy="43.8" r="43.8"/><g class="f460d289-7f22-4e85-8a3b-2746634b6b4d"><path class="eca14194-3b7d-42ae-84d8-20649785d5fc" d="M84.4,43.8l-8.6-8.9v4.3H66v9.1h9.8v4.3ZM72.5,15.1l-12.4-.2L63.2,18l-7,7,6.4,6.4,7-7,3.1,3.1ZM43.8,3.2l-8.9,8.6h4.3v9.8h9.1V11.8h4.3ZM15.1,15.1l-.2,12.4L18,24.4l7,7L31.4,25l-7-7,3.1-3.1ZM3.2,43.8l8.6,8.9V48.4h9.8V39.3H11.8V35ZM15.1,72.5l12.4.2-3.1-3.1,7-7L25,56.2l-7,7-3.1-3.1ZM43.8,84.4l8.9-8.6H48.4V66H39.3v9.8H35ZM72.5,72.5l.2-12.4-3.1,3.1-7-7-6.4,6.4,7,7-3.1,3.1Z" transform="translate(0 0)"/></g><path class="f6b9d950-28ab-4173-9b1b-d24dcf954b61" d="M87.6,44.3A43.81,43.81,0,0,1,0,44.3v.5a43.8,43.8,0,0,0,87.6,0Z" transform="translate(0 0)"/><circle class="bdf0641c-49a9-4af0-8f26-abfd65d3b9a9" cx="43.8" cy="43.8" r="14.8"/><circle class="f9671d15-4b31-49ac-9600-d06decaccae7" cx="43.8" cy="43.8" r="11.8"/><path class="edfe0942-77a4-4e7e-a5f9-f9fc7ae74a9e" d="M43.8,29.1A14.75,14.75,0,1,0,58.6,43.9,14.81,14.81,0,0,0,43.8,29.1Zm-.2,28.7A14.15,14.15,0,1,1,57.8,43.7,14.17,14.17,0,0,1,43.6,57.8Z" transform="translate(0 0)"/><path class="af431fb3-0621-46aa-b792-20382dd60e3a" d="M43.8,58.6A14.75,14.75,0,1,0,29,43.9,14.81,14.81,0,0,0,43.8,58.6ZM44,29.9a14.1,14.1,0,0,1,0,28.2h0A14,14,0,0,1,29.9,44.2V44h0A14.08,14.08,0,0,1,44,29.9Z" transform="translate(0 0)"/><circle class="ba87588e-4c85-4610-9bb9-0a589a63616e" cx="43.6" cy="32.8" r="20.5"/></svg>