<svg id="ff8748e0-8b22-49b7-95a8-01321289c87a" data-name="a239eaf1-8294-4681-a69a-fb3ec2beb79f" xmlns="http://www.w3.org/2000/svg" xmlns:xlink="http://www.w3.org/1999/xlink" viewBox="0 0 87.6 88.6"><defs><style>.bf99e595-cf3c-46bb-a936-257615ff7823,.fe331ded-b0ab-43ba-883d-3ca34e2e5cd0{fill:#211c1d;}.f47f727c-a2f2-4fa2-94da-cc4c1be873f6{opacity:0.1;}.bd6d88d2-5b02-4407-b945-c0e7908099b5{fill:#808094;}.ae3d00a4-992f-442f-aa17-d4e415b30c9e{fill:#6d6e6f;}.f854d0ad-781f-4cbe-b3ed-6217d7cd4337{fill:url(#b2ae44c2-751a-4387-a689-12f1e9f27dae);}.bf99e595-cf3c-46bb-a936-257615ff7823{opacity:0.3;}.a70bb71d-33b4-41f9-8e9f-b4798cf05dca,.bf99e595-cf3c-46bb-a936-257615ff7823,.fb2fa5ad-e7ca-4f90-b1ec-c53d1184a9bb{isolation:isolate;}.a70bb71d-33b4-41f9-8e9f-b4798cf05dca{opacity:0.15;fill:url(#ba91ac15-7cd2-4634-8b25-7079beca025d);}.fb2fa5ad-e7ca-4f90-b1ec-c53d1184a9bb{opacity:0.4;fill:url(#bdd5b9a6-c965-4293-aae8-71bcaee7bc5e);}</style><linearGradient id="b2ae44c2-751a-4387-a689-12f1e9f27dae" x1="-747.89" y1="-1613.92" x2="-768.82" y2="-1592.99" gradientTransform="matrix(1, 0, 0, -1, 802.18, -1559.63)" gradientUnits="userSpaceOnUse"><stop offset="0" stop-color="#a4a5a9"/><stop offset="1" stop-color="#e6e6e7"/></linearGradient><linearGradient id="ba91ac15-7cd2-4634-8b25-7079beca025d" x1="-768.73" y1="-1613.9" x2="-747.85" y2="-1593.03" gradientTransform="matrix(1, 0, 0, -1, 802.18, -1559.63)" gradientUnits="userSpaceOnUse"><stop offset="0" stop-color="#211c1d" stop-opacity="0"/><stop offset="0.04" stop-color="#211c1d" stop-opacity="0.09"/><stop offset="0.5" stop-color="#211c1d"/><stop offset="0.95" stop-color="#211c1d" stop-opacity="0.09"/><stop offset="1" stop-color="#211c1d" stop-opacity="0"/></linearGradient><linearGradient id="bdd5b9a6-c965-4293-aae8-71bcaee7bc5e" x1="-5380.68" y1="3954.31" x2="-5359.8" y2="3975.2" gradientTransform="matrix(-1, 0, 0, 1, -5326.48, -3920.92)" gradientUnits="userSpaceOnUse"><stop offset="0" stop-color="#fff" stop-opacity="0"/><stop offset="0.5" stop-color="#fff"/><stop offset="1" stop-color="#fff" stop-opacity="0"/></linearGradient></defs><circle class="fe331ded-b0ab-43ba-883d-3ca34e2e5cd0" cx="43.8" cy="43.8" r="43.8"/><g class="f47f727c-a2f2-4fa2-94da-cc4c1be873f6"><path class="bd6d88d2-5b02-4407-b945-c0e7908099b5" d="M84.4,43.8l-8.6-8.9v4.3H66v9.1h9.8v4.3ZM72.5,15.1l-12.4-.2L63.2,18l-7,7,6.4,6.4,7-7,3.1,3.1ZM43.8,3.2l-8.9,8.6h4.3v9.8h9.1V11.8h4.3ZM15.1,15.1l-.2,12.4L18,24.4l7,7L31.4,25l-7-7,3.1-3.1ZM3.2,43.8l8.6,8.9V48.4h9.8V39.3H11.8V35ZM15.1,72.5l12.4.2-3.1-3.1,7-7L25,56.2l-7,7-3.1-3.1ZM43.8,84.4l8.9-8.6H48.4V66H39.3v9.8H35ZM72.5,72.5l.2-12.4-3.1,3.1-7-7-6.4,6.4,7,7-3.1,3.1Z" transform="translate(0 0)"/></g><path class="ae3d00a4-992f-442f-aa17-d4e415b30c9e" d="M87.6,44.3A43.81,43.81,0,0,1,0,44.3v.5a43.8,43.8,0,0,0,87.6,0Z" transform="translate(0 0)"/><circle class="f854d0ad-781f-4cbe-b3ed-6217d7cd4337" cx="43.8" cy="43.8" r="14.8"/><circle class="bf99e595-cf3c-46bb-a936-257615ff7823" cx="43.8" cy="43.8" r="11.8"/><path class="a70bb71d-33b4-41f9-8e9f-b4798cf05dca" d="M43.8,29.1A14.75,14.75,0,1,0,58.6,43.9,14.81,14.81,0,0,0,43.8,29.1Zm-.2,28.7A14.15,14.15,0,1,1,57.8,43.7,14.17,14.17,0,0,1,43.6,57.8Z" transform="translate(0 0)"/><path class="fb2fa5ad-e7ca-4f90-b1ec-c53d1184a9bb" d="M43.8,58.6A14.75,14.75,0,1,0,29,43.9,14.81,14.81,0,0,0,43.8,58.6ZM44,29.9a14.1,14.1,0,0,1,0,28.2h0A14,14,0,0,1,29.9,44.2V44h0A14.08,14.08,0,0,1,44,29.9Z" transform="translate(0 0)"/><circle cx="43.6" cy="32.8" r="20.5"/></svg>