<svg xmlns="http://www.w3.org/2000/svg" xmlns:xlink="http://www.w3.org/1999/xlink" viewBox="0 0 470.58 67.66"><defs><style>.b70fb641-347b-401c-b0e7-af57c5a8581e{stroke:#9def48;stroke-miterlimit:10;fill:url(#ecb06139-aea9-46f1-8dc4-fd766c9825ef);}.e970cac1-5777-4611-889f-160e6fc3ca53{fill:#9def48;}.bfefa981-6a6e-4d3b-84ba-322a889b81c3{fill:#fff;}</style><linearGradient id="ecb06139-aea9-46f1-8dc4-fd766c9825ef" x1="0.5" y1="33.83" x2="470.08" y2="33.83" gradientUnits="userSpaceOnUse"><stop offset="0" stop-color="#032c02"/><stop offset="1" stop-color="#207a09"/></linearGradient></defs><g id="af3904c3-3e9c-4a4f-a06c-e80480698c8c" data-name="calque3"><polygon class="b70fb641-347b-401c-b0e7-af57c5a8581e" points="0.5 6.04 102.57 6.04 108.7 0.5 150.44 0.5 158.35 6.04 461.77 6.24 470.08 16.13 470.08 59.84 50.94 59.84 42.83 67.16 8.02 67.16 0.5 59.84 0.5 6.04"/><path class="e970cac1-5777-4611-889f-160e6fc3ca53" d="M76.41,34.67H59.49a17.49,17.49,0,0,0,2.21,6.17H81.83l2.34,4.07H59.51a17.68,17.68,0,0,1-4.14-10.24H51.53V30.62h3.84A17.57,17.57,0,0,1,59.51,20.4H84.17l-2.34,4.07H61.7a17.33,17.33,0,0,0-2.21,6.15H76.41Z"/><path class="e970cac1-5777-4611-889f-160e6fc3ca53" d="M116.91,44.91l-11.79-9.57L93.33,44.91h-6.6l15.09-12.26L86.73,20.4h6.6L105.12,30l11.79-9.57h6.6L108.42,32.65l15.09,12.26Z"/><path class="e970cac1-5777-4611-889f-160e6fc3ca53" d="M131.85,44.91h-4.07v-21l4.07-4.07Z"/><path class="e970cac1-5777-4611-889f-160e6fc3ca53" d="M137.83,20.4h27a18.13,18.13,0,0,1,4.22,12.25,18.18,18.18,0,0,1-4.22,12.26h-27Zm4.07,20.44h20.76A16.47,16.47,0,0,0,165,32.65a16.41,16.41,0,0,0-2.33-8.18H141.9Z"/><path class="e970cac1-5777-4611-889f-160e6fc3ca53" d="M174.32,34.67l-1.85-2a18.22,18.22,0,0,1,4.22-12.25h4.89v4.07h-2.7a17.3,17.3,0,0,0-2.2,6.15h24.18a17.67,17.67,0,0,0-2.19-6.15H196V20.4h4.89a18.17,18.17,0,0,1,4.22,12.25,18.14,18.14,0,0,1-4.22,12.26H176.69a17.11,17.11,0,0,1-3.67-7.3h4.37a19.83,19.83,0,0,0,1.49,3.23h19.79a17.11,17.11,0,0,0,2.19-6.17Z"/></g><g id="fdeb60e3-ac97-4013-a993-bc9a4f340188" data-name="exidy"><g id="ede6ee0c-922b-4116-b0d6-22f539ff8216" data-name="g1"><path id="baade7a7-8ad0-48c1-9651-079b3654e5df" data-name="path1" class="bfefa981-6a6e-4d3b-84ba-322a889b81c3" d="M43.58,57.15a6.83,6.83,0,0,0-.25,1.14c-.45,3.19-2.16,5.34-4.54,5.72a50.46,50.46,0,0,1-7.17,0,4.68,4.68,0,0,1-2.94-1.82l-.34-.5.52-.87a3.94,3.94,0,0,0,.46-.92,14,14,0,0,0-1,1.57c-1,1.82-1.51,2.3-2.62,2.62-.55.16-1.35.18-5,.15-4.15,0-4.37,0-5.07-.31A6.89,6.89,0,0,1,12,60.65a23.72,23.72,0,0,1-1.05-3.2c-.34-1.28-1-3.77-1.48-5.52s-1-3.83-1.23-4.61-.48-1.79-.61-2.27-.35-1.33-.49-1.9l-.26-1,.81-1.39a12.13,12.13,0,0,0,.81-1.51,26.4,26.4,0,0,1,3.69-.11c2,0,3.68,0,3.68,0s1.63,6.16,2.94,11.07c.85,3.14.81,3,1.41,3.6s1.33.78,1.56.54-.2-1.49-1.5-6.23c-1-3.63-2.94-11-2.94-11s-.12.07-.27.26a2.76,2.76,0,0,1-2.34,1.15A3.21,3.21,0,0,1,11.54,36a1.76,1.76,0,0,1,0-1.09A38,38,0,0,1,14,30.49a6.58,6.58,0,0,1,1.37-.79,5.27,5.27,0,0,0-.16-.66l-.2-.65.88-1.53a10,10,0,0,0,.83-1.59,12.1,12.1,0,0,0-1.39,2.26l-.36.64H12.32a26,26,0,0,1-2.61-.06c0-.07,1.35-2.41,1.51-2.61s.09-.19,0-.24,0-.19-.94,1.41A5.26,5.26,0,0,1,9.46,28C9.37,27.85,8,22.66,8,22.44a13.31,13.31,0,0,1,.87-1.66l.86-1.51,1.39-.06,1.39-.06-1-3.61-1-3.62.89-1.57.88-1.57H24.18l.12.4c.07.22.41,1.48.76,2.8l.63,2.39-.62,1L24.15,17l-.31.52h-1c-.89,0-1,0-.93.22.14.44,1.56,5.72,2.23,8.25.38,1.45.88,3.3,1.1,4.11s.58,2.14.79,3,.61,2.28.88,3.25c.43,1.58,1.33,4.94,3.79,14.15.79,3,1,3.32,1.93,3.78a2.18,2.18,0,0,0,2.91-.9c.3-.65.29-.77-.46-3.52L33.59,44.2c-.72-2.7-1.34-5-1.37-5a35.54,35.54,0,0,1,3.62-.09h3.67l.14.52,1,3.78c.48,1.78.94,3.52,1,3.86,1.85,6.84,2,7.59,2,8.58a5.17,5.17,0,0,1-.13,1.31Zm-.91-5.53-2-7.61c-.67-2.53-1.27-4.65-1.32-4.7a33.61,33.61,0,0,0-3.47-.06l-3.38,0,.89,3.32,1.7,6.34a30.69,30.69,0,0,1,.81,3.52,2,2,0,0,1-2.22,2.15,2.63,2.63,0,0,1-2.14-1.12,54,54,0,0,1-1.83-6.17L25.61,32.16c-3.32-12.37-4.73-17.66-4.73-17.77a14.49,14.49,0,0,1,2.27-.09,10,10,0,0,0,2.28-.12c0-.1-1.12-4.34-1.31-4.95C24.06,9,23.68,9,18.3,9c-3.17,0-5.76,0-5.76.07s.6,2.33,1.35,5.1,1.35,5.08,1.35,5.15a16.31,16.31,0,0,1-2.68.14l-2.68,0,.74,2.79.74,2.79h5.46l.14.52c.07.29.4,1.54.74,2.77s.61,2.28.61,2.32-.1,0-.22-.11a3.23,3.23,0,0,0-2-.73,2.58,2.58,0,0,0-1.85,4.49,3.23,3.23,0,0,0,3.4.7A3.29,3.29,0,0,0,19,33.8c0-.09.09-.14.12-.1s.32,1,.62,2.15,1.42,5.29,2.47,9.21,1.92,7.29,1.92,7.47A2.92,2.92,0,0,1,23.49,54a2.81,2.81,0,0,1-1.69.69,2.91,2.91,0,0,1-2.08-1.11c-.26-.37-.71-1.86-2-6.59-.91-3.36-1.74-6.48-1.85-6.94l-.21-.83H12.21c-2.73,0-3.46,0-3.42.15s.47,1.73,1,3.66c3,11.43,3.64,13.62,3.89,14.17a6.94,6.94,0,0,0,3.88,3.53c.79.27.94.28,5.24.28s4.42,0,5-.28a4,4,0,0,0,1-.7l.41-.42.5.41c1.2,1,1.65,1,5.62,1a35.49,35.49,0,0,0,3.93-.13,5.44,5.44,0,0,0,4-3.7c.36-1.21.24-2.16-.7-5.62Zm.1,5.47a5.26,5.26,0,0,1-4.65,3.63,32.88,32.88,0,0,1-3.61.08c-2.91-.07-3.39-.18-4.52-1l-.74-.54-.52.48c-1,.94-1.43,1-5.31,1.07-2,0-3.83,0-4.42-.08a6.62,6.62,0,0,1-4.84-3.29c-.3-.57-.95-2.79-2.61-9-1.22-4.55-2.25-8.36-2.28-8.48s.06-.22,1.33-.22H12l2.06,7.71c1.13,4.23,2.2,8,2.36,8.3a5,5,0,0,0,2.1,2l.71.35h6l.62-.33a3.48,3.48,0,0,0,2-2.85l.09-.75.22.66a5,5,0,0,0,2.64,2.94c.69.32.72.33,3.46.33,3.17,0,3.44-.07,4.48-1.11a3.28,3.28,0,0,0,1.09-2.7c0-.87-.2-1.71-1.81-7.64-1-3.66-1.8-6.71-1.8-6.79s.46-.11,1.37-.09l1.36,0,2,7.25C43.08,55.05,43.22,55.82,42.77,57.09ZM39,55.5a3.9,3.9,0,0,1-1.9,1.88c-.67.31-.76.32-3,.32s-2.35,0-3-.33A6.31,6.31,0,0,1,28.56,55c-.26-.52-2.27-7.65-2.27-8.07,0-.08.49-.11,1.37-.09l1.37,0,.82,3.1c.89,3.33,1.16,4,1.92,4.49a2.75,2.75,0,0,0,1.87.58A2.53,2.53,0,0,0,35.79,54c.67-.95.65-1.09-1.15-7.82C33.75,42.85,33,40.05,33,39.93s.06-.22,1.33-.22h1.39L37.5,46.5C39.51,54,39.56,54.32,39,55.5ZM28.48,45.57a.51.51,0,0,1-.26.16,17,17,0,0,1-1.58-1.41c-.82-.78-1.52-1.42-1.56-1.42a12,12,0,0,0-1,1.42c-1.22,1.91-1.27,1.9-1.88-.31a19.34,19.34,0,0,1-.46-1.9,2.87,2.87,0,0,1,.42-.92l.42-.68-.9-.92a3.22,3.22,0,0,1-1.23-2.12c-.53-1.93-.23-1.94,1.75,0l1.46,1.41.88-1.4c1-1.61,1.18-1.79,1.42-1.53A24,24,0,0,1,27,39.56a3.36,3.36,0,0,1-.43.82,6.48,6.48,0,0,0-.43.74,7.77,7.77,0,0,0,.9.91A2.91,2.91,0,0,1,28.24,44c.16.59.31,1.17.34,1.27A.38.38,0,0,1,28.48,45.57Zm-1.14-2.11a5.88,5.88,0,0,0-1.05-1.15,5.12,5.12,0,0,1-1-1.06,4.13,4.13,0,0,1,.5-1l.49-.79L26,38.36c-.17-.62-.33-1.15-.35-1.18a7.88,7.88,0,0,0-.84,1.21,4.91,4.91,0,0,1-1,1.3c-.15,0-.61-.33-1.39-1.1-1.13-1.12-1.16-1.14-1.08-.72s.33.67,1.12,1.43a9.62,9.62,0,0,1,1,1.1,6.49,6.49,0,0,1-.5.88c-.56.88-.56.77,0,2.59l.19.66.82-1.3c.54-.87.89-1.31,1-1.31a6.3,6.3,0,0,1,1.4,1.14c.66.63,1.15,1,1.11.89l-.14-.49Zm.13,11.75a3.38,3.38,0,0,1-2.55,2.42,22.57,22.57,0,0,1-5.33-.06,4.31,4.31,0,0,1-2.91-2.46c-.12-.27-1-3.49-2-7.17s-1.87-7-2-7.3c-.29-1-.34-.94,1.2-.9l1.37,0L17,46.34c1,3.61,1.85,6.78,2,7a3.51,3.51,0,0,0,.73,1A2.85,2.85,0,0,0,24,54.06c.63-.87.61-1.26-.19-4.26C23.38,48.34,23,47.07,23,47s.28-.16,1.35-.16h1.4l.89,3.32c1,3.67,1.07,4.21.83,5.06ZM25.59,34.84a25.66,25.66,0,0,1-2.87.08c-2.08,0-2.82,0-2.91-.15a26.23,26.23,0,0,1-1.09-4.22c.06-.14.56-.17,3-.14l2.91,0,.53,2c.54,2,.59,2.29.45,2.43Zm-1.15-2.25c-.2-.74-.36-1.38-.36-1.41s-1-.06-2.29-.06H19.5l.08.27c0,.16.23.85.41,1.54l.33,1.26h2.24a9.23,9.23,0,0,0,2.25-.12C24.81,34,24.65,33.34,24.44,32.59Zm.26-18.66a13.62,13.62,0,0,1-2.41.12,11.52,11.52,0,0,0-2.12.1c.77,1.55.84,1.72.84,2.31a2.81,2.81,0,0,1-1.54,2.66,4.22,4.22,0,0,1-2,.3,6.67,6.67,0,0,1-1.71-.07,16.93,16.93,0,0,1-1.1-4.14A5.23,5.23,0,0,1,16.23,15a8.82,8.82,0,0,0,1.55-.14s0-.23,0-.41l-.12-.33L16,14.05a14.16,14.16,0,0,1-1.74-.12s-.32-1-.63-2.14c-.43-1.58-.53-2.1-.42-2.23a80.23,80.23,0,0,1,10.63,0,42.24,42.24,0,0,1,1.14,4.13C24.93,13.74,24.83,13.86,24.7,13.93Zm-1-2.29-.4-1.51h-4.7c-4.43,0-4.71,0-4.65.21s.15.52.25.89l.38,1.38.19.71h1.44c1.59,0,1.84.08,2.18.74a1,1,0,0,1-.12,1.29c-.27.27-.41.3-1.32.31-1.66,0-1.59-.08-1.15,1.59l.38,1.41,1.23,0a3,3,0,0,0,1.77-.24,1.76,1.76,0,0,0,1.09-1.74,3.29,3.29,0,0,0-.93-2.44c-.68-.95-.67-.95,2.23-.95a21.17,21.17,0,0,0,2.53-.08S23.9,12.48,23.68,11.64Zm-.37,16.9c-.82,1.61-3.08,1.81-4.64.4a3.14,3.14,0,0,1-1.2-2.39,2,2,0,0,1,.2-1.32l.26-.5H14.8c-3.13,0-3.13,0-3.25-.27a32.3,32.3,0,0,1-1.06-4.33c.07-.16.78-.18,5.69-.15l5.62,0,.58,2.08c.31,1.15.58,2.19.58,2.32a.31.31,0,0,1-.23.29c-.24.06-.23.08.08.45a3.2,3.2,0,0,1,.5,3.39Zm-.76-2.45a3.78,3.78,0,0,0-1.5-1.43c-.38-.23-.07-.59.55-.64a1.3,1.3,0,0,0,.51-.09c0-.05-.69-2.63-.81-3-.06-.2-.41-.22-5-.22-2.73,0-5,0-5,.1s.19.78.41,1.62l.41,1.54L15.6,24c3.16.05,3.49.08,3.61.28s.07.27-.26.53c-1.37,1.07-.9,3.22.88,4.05,1.4.65,2.73.16,3-1.12a2.31,2.31,0,0,0-.3-1.65ZM18.42,33.8a2.42,2.42,0,0,1-3.72.61,2.31,2.31,0,0,1,.24-3.85c2.06-1,4.49,1.25,3.48,3.24Zm-.66-1.69a2,2,0,0,0-2.11-1.06,2.29,2.29,0,0,0-.74.49,1.09,1.09,0,0,0-.41,1,1.78,1.78,0,0,0,2,1.77,1.47,1.47,0,0,0,1.24-2.16Z"/></g></g></svg>