<svg id="bc4081be-b71b-4a2c-85b5-a1d37e42a4f5" data-name="texte" xmlns="http://www.w3.org/2000/svg" xmlns:xlink="http://www.w3.org/1999/xlink" viewBox="0 0 470.33 67.41"><defs><style>.b11deb40-3dff-40f1-b41d-acb76cfa11da{stroke:#9def48;stroke-miterlimit:10;stroke-width:0.75px;fill:url(#ae4a3c1b-0d28-4642-b0b5-0c3be479b610);}.ea3becec-ea86-430a-9afc-dd1ac08edb15{fill:#9def48;}</style><linearGradient id="ae4a3c1b-0d28-4642-b0b5-0c3be479b610" x1="0.38" y1="33.7" x2="469.96" y2="33.7" gradientUnits="userSpaceOnUse"><stop offset="0" stop-color="#032c02"/><stop offset="1" stop-color="#207a09"/></linearGradient></defs><polygon class="b11deb40-3dff-40f1-b41d-acb76cfa11da" points="0.38 5.91 102.44 5.91 108.57 0.38 150.31 0.38 158.22 5.91 461.65 6.11 469.96 16 469.96 59.72 50.81 59.72 42.7 67.03 7.89 67.03 0.38 59.72 0.38 5.91"/><path class="ea3becec-ea86-430a-9afc-dd1ac08edb15" d="M74.66,38.16h3.75a14.7,14.7,0,0,1-3.15,6.25H54.56a15.6,15.6,0,0,1-3.62-10.5,15.6,15.6,0,0,1,3.62-10.5h20.7a14.7,14.7,0,0,1,3.15,6.25H74.66a16.61,16.61,0,0,0-1.26-2.77h-17a14.11,14.11,0,0,0-2,7,14.16,14.16,0,0,0,2,7h17A17.37,17.37,0,0,0,74.66,38.16Z" transform="translate(-0.06 -0.03)"/><path class="ea3becec-ea86-430a-9afc-dd1ac08edb15" d="M105.65,44.41H85a15.6,15.6,0,0,1-3.61-10.5A15.56,15.56,0,0,1,85,23.41h20.7a15.57,15.57,0,0,1,3.62,10.5A15.6,15.6,0,0,1,105.65,44.41Zm-1.86-3.48a14.15,14.15,0,0,0,2-7,14.09,14.09,0,0,0-2-7h-17a14,14,0,0,0-2,7,14.08,14.08,0,0,0,2,7Z" transform="translate(-0.06 -0.03)"/><path class="ea3becec-ea86-430a-9afc-dd1ac08edb15" d="M124.43,26.89h-6.74a14.11,14.11,0,0,0-2,7,14.16,14.16,0,0,0,2,7H120v3.48h-4.19a15.6,15.6,0,0,1-3.62-10.5,15.57,15.57,0,0,1,3.62-10.5h8.61v-3.3h3.47v3.3h8.62a15.56,15.56,0,0,1,3.61,10.5,15.6,15.6,0,0,1-3.61,10.5h-4.19V40.93h2.33a14.25,14.25,0,0,0,2-7,14.19,14.19,0,0,0-2-7H127.9V39.34h-3.47Z" transform="translate(-0.06 -0.03)"/><path class="ea3becec-ea86-430a-9afc-dd1ac08edb15" d="M172.64,35.64H149.89a14.88,14.88,0,0,0,1.89,5.29h2.31v3.48H149.9a15.07,15.07,0,0,1-3.54-8.77h-3.3V32.17h3.3a15,15,0,0,1,3.54-8.76h20.7a15.52,15.52,0,0,1,3.62,10.5Zm-22.75-3.47h20.73a15.13,15.13,0,0,0-1.88-5.28h-17A14.77,14.77,0,0,0,149.89,32.17Z" transform="translate(-0.06 -0.03)"/><path class="ea3becec-ea86-430a-9afc-dd1ac08edb15" d="M182,44.41h-3.49v-18L182,22.89Z" transform="translate(-0.06 -0.03)"/><path class="ea3becec-ea86-430a-9afc-dd1ac08edb15" d="M191.37,40.93h15.8l2,3.48H187.89v-18l3.48-3.49Z" transform="translate(-0.06 -0.03)"/><path class="ea3becec-ea86-430a-9afc-dd1ac08edb15" d="M219.4,38.57l-3.68,5.84h-4.35l13.35-21h4l13.24,21h-4.29l-3.63-5.84Zm12.48-3.47-5.13-8.22-5.17,8.22Z" transform="translate(-0.06 -0.03)"/><path class="ea3becec-ea86-430a-9afc-dd1ac08edb15" d="M252.46,41.44,249,44.93v-18H237.58V23.41h26.27v3.48H252.46Z" transform="translate(-0.06 -0.03)"/><path class="ea3becec-ea86-430a-9afc-dd1ac08edb15" d="M271.74,44.41h-3.49v-18l3.49-3.49Z" transform="translate(-0.06 -0.03)"/><path class="ea3becec-ea86-430a-9afc-dd1ac08edb15" d="M300.45,44.41h-20.7a15.6,15.6,0,0,1-3.62-10.5,15.57,15.57,0,0,1,3.62-10.5h20.7a15.56,15.56,0,0,1,3.61,10.5A15.6,15.6,0,0,1,300.45,44.41Zm-1.86-3.48a14.25,14.25,0,0,0,2-7,14.19,14.19,0,0,0-2-7h-17a14.11,14.11,0,0,0-2,7,14.16,14.16,0,0,0,2,7Z" transform="translate(-0.06 -0.03)"/><path class="ea3becec-ea86-430a-9afc-dd1ac08edb15" d="M312.49,26.89a14,14,0,0,0-2,7,14.08,14.08,0,0,0,2,7h2.31v3.48h-4.19A15.6,15.6,0,0,1,307,33.91a15.56,15.56,0,0,1,3.61-10.5h20.7a15.57,15.57,0,0,1,3.62,10.5,15.6,15.6,0,0,1-3.62,10.5h-4.19V40.93h2.33a14.15,14.15,0,0,0,2-7,14.09,14.09,0,0,0-2-7Z" transform="translate(-0.06 -0.03)"/></svg>