<svg id="aa576726-d5c2-42a5-8dec-287380d7b444" data-name="texte" xmlns="http://www.w3.org/2000/svg" xmlns:xlink="http://www.w3.org/1999/xlink" viewBox="0 0 470.33 67.41"><defs><style>.ad738398-1c50-4fd0-9885-2e856a08bcaa{stroke:#9def48;stroke-miterlimit:10;stroke-width:0.75px;fill:url(#e685d8c9-3299-4734-aa84-da1dde479ff2);}.b90ec69b-38f4-4e84-8e6d-d83926383308{fill:#9def48;}</style><linearGradient id="e685d8c9-3299-4734-aa84-da1dde479ff2" x1="0.38" y1="33.7" x2="469.96" y2="33.7" gradientUnits="userSpaceOnUse"><stop offset="0" stop-color="#032c02"/><stop offset="1" stop-color="#207a09"/></linearGradient></defs><polygon class="ad738398-1c50-4fd0-9885-2e856a08bcaa" points="0.38 5.91 102.44 5.91 108.57 0.38 150.31 0.38 158.22 5.91 461.65 6.11 469.96 16 469.96 59.72 50.81 59.72 42.7 67.03 7.89 67.03 0.38 59.72 0.38 5.91"/><path class="b90ec69b-38f4-4e84-8e6d-d83926383308" d="M72.27,34.25H57.77a14.88,14.88,0,0,0,1.89,5.29H76.91l2,3.48H57.78a15.1,15.1,0,0,1-3.54-8.77h-3.3V30.78h3.3A15,15,0,0,1,57.78,22H78.92l-2,3.48H59.66a14.77,14.77,0,0,0-1.89,5.28h14.5Z" transform="translate(-0.06 -0.03)"/><path class="b90ec69b-38f4-4e84-8e6d-d83926383308" d="M82.58,22h23.15a15.56,15.56,0,0,1,3.61,10.5A15.6,15.6,0,0,1,105.73,43H82.58Zm3.49,17.52h17.79a14.16,14.16,0,0,0,2-7,14.08,14.08,0,0,0-2-7H86.07Z" transform="translate(-0.06 -0.03)"/><path class="b90ec69b-38f4-4e84-8e6d-d83926383308" d="M117.77,39.54h17a14.09,14.09,0,0,0,2-7,14.12,14.12,0,0,0-2-7H132.4V22h4.19a15.6,15.6,0,0,1,3.62,10.5A15.57,15.57,0,0,1,136.59,43h-20.7a15.57,15.57,0,0,1-3.62-10.5A15.6,15.6,0,0,1,115.89,22h4.19V25.5h-2.31a14,14,0,0,0-2,7A14,14,0,0,0,117.77,39.54Z" transform="translate(-0.06 -0.03)"/><path class="b90ec69b-38f4-4e84-8e6d-d83926383308" d="M166.85,36.77h3.75A14.53,14.53,0,0,1,167.45,43H146.76a15.55,15.55,0,0,1-3.62-10.5A15.55,15.55,0,0,1,146.76,22h20.69a14.47,14.47,0,0,1,3.15,6.25h-3.75a15.13,15.13,0,0,0-1.26-2.77h-17a14,14,0,0,0-2,7,14.08,14.08,0,0,0,2,7h17A16.1,16.1,0,0,0,166.85,36.77Z" transform="translate(-0.06 -0.03)"/><path class="b90ec69b-38f4-4e84-8e6d-d83926383308" d="M179.36,37.18,175.69,43h-4.35l13.34-21h4l13.25,21h-4.3L194,37.18Zm12.48-3.47-5.12-8.22-5.17,8.22Z" transform="translate(-0.06 -0.03)"/><path class="b90ec69b-38f4-4e84-8e6d-d83926383308" d="M212.42,40.05l-3.48,3.48v-18h-11.4V22h26.28V25.5h-11.4Z" transform="translate(-0.06 -0.03)"/><path class="b90ec69b-38f4-4e84-8e6d-d83926383308" d="M231.7,43h-3.48V25l3.48-3.49Z" transform="translate(-0.06 -0.03)"/><path class="b90ec69b-38f4-4e84-8e6d-d83926383308" d="M247.13,43h-4.19a15.17,15.17,0,0,1-3.55-8.77H236.1V30.78h3.29A15.09,15.09,0,0,1,242.94,22h21.13l-2,3.48H244.81a15.16,15.16,0,0,0-1.89,5.28h14.5v3.47h-14.5a15.28,15.28,0,0,0,1.89,5.29h2.32Z" transform="translate(-0.06 -0.03)"/></svg>