<svg enable-background="new 0 0 319.667 200.25" viewBox="0 0 319.667 200.25" xmlns="http://www.w3.org/2000/svg" xmlns:xlink="http://www.w3.org/1999/xlink"><linearGradient id="a"><stop offset="0" stop-color="#2e2f41"/><stop offset=".5" stop-color="#3b3d53"/><stop offset="1" stop-color="#2e2f41"/></linearGradient><linearGradient id="b" gradientUnits="userSpaceOnUse" x1="243.0444" x2="308.2905" xlink:href="#a" y1="123.457" y2="123.457"/><linearGradient id="c" gradientUnits="userSpaceOnUse" x1="72.2178" x2="247.4488" xlink:href="#a" y1="88.9375" y2="88.9375"/><linearGradient id="d" gradientUnits="userSpaceOnUse" x1="255.5577" x2="270.6298" xlink:href="#a" y1="89.6923" y2="74.6202"/><linearGradient id="e" gradientUnits="userSpaceOnUse" x1="30.9055" x2="46.9275" xlink:href="#a" y1="109.261" y2="93.239"/><linearGradient id="f" gradientUnits="userSpaceOnUse" x1="23.1514" x2="55.3635" xlink:href="#a" y1="138.4742" y2="106.2621"/><linearGradient id="g" gradientUnits="userSpaceOnUse" x1="30.9055" x2="46.9275" xlink:href="#a" y1="151.7225" y2="135.7006"/><linearGradient id="h" gradientUnits="userSpaceOnUse" x1="46.7457" x2="61.9209" xlink:href="#a" y1="86.8376" y2="71.6624"/><path d="m278.578 0c-14.151.867-53.9 2.958-68.662 3.5-16.834.618-34.006.983-50.083 1.125-16.077-.142-33.25-.507-50.083-1.125-14.761-.542-29.974-1.32-44.125-2.187l-2.25 2.187h-18.943l-3.344-3.5h-2.191c-24.533 0-31.286 16.377-31.286 37.027l-7.611 113.651c0 27.264 15.084 49.572 51.354 49.572h108.479 108.479c36.27 0 51.354-22.307 51.354-49.572l-7.611-113.651c.001-20.65-6.752-37.027-31.285-37.027z" fill="#1a1c38"/><path d="m302.917 156.337c0 16.106-14.75 28.413-32.779 29.163-32.779 1-73.27 4.648-110.304 4.932-37.034-.284-77.525-3.932-110.304-4.932-18.03-.75-32.78-13.057-32.78-29.163 0-3.569-.379-8.547-1.583-14.25-2.231-10.572-7.683-12.758-7.683-19.351 0-6.564 5.451-10.754 7.683-21.327 1.204-5.704.753-68.025.753-71.537 0-12.402 12.228-22.455 27.311-22.455h232.225c15.083 0 27.311 10.054 27.311 22.455l-.142 47.003c.083 2.595.963 5.213 2 8.25 1.701 4.981 4.281 8.844 5.775 11.754 1.162 2.45 1.962 4.979 1.962 7.798v.104c0 2.819-.8 5.349-1.962 7.798-1.494 2.91-4.074 6.772-5.775 11.754-1.037 3.037-1.969 5.948-2 8.25z" fill="#3b3d53"/><path d="m276.054 140.979c9.486-.206 17.139-7.987 17.139-17.522 0-.77-.05-1.529-.147-2.273 0 0 1.516-.258 1.516-.258 7.955-1.353 13.728-8.187 13.728-16.25 0-9.097-7.401-16.497-16.498-16.497-8.936 0-16.332 7.273-16.485 16.213 0 0-.027 1.543-.027 1.543-9.486.206-17.139 7.987-17.139 17.522 0 .77.05 1.529.147 2.273l-1.516.258c-7.955 1.353-13.728 8.187-13.728 16.25 0 9.097 7.401 16.497 16.498 16.497 8.936 0 16.332-7.273 16.485-16.213 0-.001.027-1.544.027-1.543z" fill="url(#b)"/><path d="m159.833 18.125h71.672c8.805 0 15.944 7.505 15.944 16.763l-1.334 94.6c-.163 11.587-12.703 21.588-19.678 24.69-4.428 1.97-11.354 2.651-13.426 2.934-7.661 1.045-25.296 2.638-53.178 2.638s-45.517-1.593-53.178-2.638c-2.072-.283-8.998-.964-13.426-2.934-6.975-3.102-19.515-13.104-19.678-24.69l-1.334-94.6c0-9.258 7.138-16.763 15.944-16.763z" fill="url(#c)"/><circle cx="263.094" cy="82.156" fill="url(#d)" r="10.663"/><circle cx="263.094" cy="82.156" fill="#f5f0e4" r="5.844"/><circle cx="275.667" cy="123.457" fill="#f5f0e4" r="14.691"/><circle cx="275.667" cy="123.457" fill="none" r="10.439" stroke="#88918e" stroke-miterlimit="10"/><circle cx="275.667" cy="123.457" fill="#88918e" r="6.406"/><path d="m257.248 128.782c-6.443 1.096-11.369 6.704-11.369 13.455 0 7.534 6.129 13.663 13.663 13.663 7.454 0 13.524-6.003 13.651-13.427-7.813-.59-14.221-6.246-15.945-13.691z" fill="#f5f0e4"/><circle cx="260.125" cy="146.042" fill="#88918e" r="2"/><path d="m264.525 148.625v-2.583c0-2.43-1.97-4.4-4.4-4.4s-4.4 1.97-4.4 4.4h-2.86" fill="none" stroke="#88918e" stroke-miterlimit="10"/><path d="m266.583 148.625h-4.104l2.046 3.292z" fill="#88918e"/><circle cx="252.865" cy="146.042" fill="#88918e" r="1.427"/><path d="m291.793 91.014c-7.454 0-13.524 6.003-13.651 13.427 7.813.59 14.221 6.245 15.945 13.69 6.443-1.096 11.369-6.704 11.369-13.455 0-7.533-6.129-13.662-13.663-13.662z" fill="#f5f0e4"/><path d="m295.76 99.962c-.346 0-.441-.277-.441-.624l-.188-3.594c0-.346.283-.629.629-.629.346 0 .629.283.629.629l-.212 3.588c.001.347-.07.63-.417.63z" fill="#88918e"/><path d="m294.486 100.49c-.245.245-.508.116-.753-.129l-2.674-2.408c-.245-.245-.245-.645 0-.89.245-.245.645-.245.89 0l2.388 2.687c.244.244.394.495.149.74z" fill="#88918e"/><path d="m293.958 101.764c0 .346-.277.441-.624.441l-3.594.188c-.346 0-.629-.283-.629-.629 0-.346.283-.629.629-.629l3.588.212c.347-.001.63.071.63.417z" fill="#88918e"/><path d="m294.486 103.038c.245.245.116.508-.129.753l-2.408 2.675c-.245.245-.645.245-.89 0-.245-.245-.245-.645 0-.89l2.687-2.388c.245-.245.495-.395.74-.15z" fill="#88918e"/><path d="m295.76 103.566c.346 0 .441.277.441.624l.188 3.594c0 .346-.283.629-.629.629-.346 0-.629-.283-.629-.629l.212-3.588c0-.347.071-.63.417-.63z" fill="#88918e"/><path d="m297.035 103.038c.245-.245.508-.116.753.129l2.675 2.408c.245.245.245.645 0 .89-.245.245-.645.245-.89 0l-2.388-2.687c-.245-.244-.395-.495-.15-.74z" fill="#88918e"/><path d="m297.563 101.764c0-.346.277-.441.624-.441l3.594-.188c.346 0 .629.283.629.629 0 .346-.283.629-.629.629l-3.588-.212c-.347 0-.63-.071-.63-.417z" fill="#88918e"/><path d="m297.035 100.49c-.245-.245-.116-.508.129-.753l2.408-2.675c.245-.245.645-.245.89 0 .245.245.245.645 0 .89l-2.687 2.388c-.245.245-.496.394-.74.15z" fill="#88918e"/><circle cx="38.917" cy="101.25" fill="url(#e)" r="11.334"/><circle cx="38.917" cy="101.25" fill="#f5f0e4" r="8.5"/><path d="m54.539 134.346c-2.818 0-5.535-.989-7.688-2.792-2.202-1.183-4.821-1.807-7.594-1.807-2.772 0-5.391.624-7.593 1.807-2.153 1.803-4.87 2.792-7.688 2.792-6.604 0-11.977-5.373-11.977-11.978s5.373-11.978 11.977-11.978c2.818 0 5.535.989 7.688 2.792 2.203 1.183 4.822 1.807 7.594 1.807s5.391-.624 7.594-1.807c2.152-1.803 4.869-2.792 7.687-2.792 6.604 0 11.978 5.373 11.978 11.978s-5.374 11.978-11.978 11.978z" fill="url(#f)"/><path d="m48.477 115.524c-2.564 1.443-5.759 2.3-9.219 2.3s-6.655-.857-9.219-2.3c-1.613-1.431-3.737-2.299-6.063-2.299-5.049 0-9.143 4.093-9.143 9.143 0 5.049 4.093 9.143 9.143 9.143 2.326 0 4.449-.869 6.063-2.299 2.564-1.443 5.759-2.3 9.218-2.3 3.46 0 6.655.857 9.219 2.301 1.614 1.43 3.737 2.299 6.062 2.299 5.049 0 9.143-4.093 9.143-9.143 0-5.049-4.093-9.143-9.143-9.143-2.325-.001-4.448.868-6.061 2.298z" fill="#e6e6d8"/><circle cx="38.917" cy="143.712" fill="url(#g)" r="11.334"/><circle cx="38.917" cy="143.712" fill="#f5f0e4" r="8.5"/><circle cx="23.976" cy="122.368" fill="#f5f0e4" r="9.143"/><circle cx="54.539" cy="122.368" fill="#f5f0e4" r="9.143"/><path d="m54.333 89.985c-5.92 0-10.736-4.816-10.736-10.735s4.816-10.735 10.736-10.735c5.919 0 10.735 4.816 10.735 10.735s-4.815 10.735-10.735 10.735z" fill="url(#h)"/><circle cx="54.333" cy="79.25" fill="#d78e7c" r="5.917"/><circle cx="44.271" cy="10.438" fill="none" r="2.063" stroke="#edf2ee" stroke-miterlimit="10" stroke-width=".75"/><path d="m54.333 8.375v4.125" fill="none" stroke="#edf2ee" stroke-miterlimit="10" stroke-width=".75"/><path d="m38.221 17.919v1.98h-1.27v-5.332h2.102c.469 0 .828.05 1.076.15s.471.279.666.537.293.574.293.949c0 .263-.052.52-.156.77s-.251.447-.441.59-.375.238-.553.285-.458.07-.838.07h-.879zm-.043-.969h.813c.31 0 .527-.072.652-.215s.188-.307.188-.492c0-.216-.07-.388-.209-.516s-.351-.191-.635-.191h-.809z" fill="#edf2ee"/><path d="m43.446 19.981c-.718 0-1.273-.27-1.667-.809s-.589-1.191-.589-1.957c0-.779.199-1.428.597-1.949s.965-.781 1.702-.781c.744 0 1.306.278 1.684.834s.568 1.192.568 1.908c0 .773-.195 1.426-.585 1.957s-.961.797-1.71.797zm.035-4.476c-.655 0-.982.576-.982 1.727 0 1.154.328 1.73.982 1.73.634 0 .951-.576.951-1.727 0-1.153-.317-1.73-.951-1.73z" fill="#edf2ee"/><path d="m52.506 14.567-1.339 5.332h-1.227l-.877-3.527-.846 3.527h-1.218l-1.372-5.332h1.274l.735 3.254c.002.016.017.073.043.172.01.037.025.091.043.164l.873-3.59h1.152l.896 3.59c.018-.068.044-.18.078-.336l.756-3.254z" fill="#edf2ee"/><path d="m56.565 15.583h-2.539v1.094h1.996v1.004h-1.996v1.164h2.539v1.055h-3.809v-5.332h3.809z" fill="#edf2ee"/><path d="m58.236 17.786v2.113h-1.258v-5.332h2.344c.432 0 .779.05 1.041.15s.479.284.65.552.258.566.258.894c0 .64-.309 1.1-.926 1.378l.984 2.357h-1.38l-.819-2.113h-.894zm0-2.269v1.359h.766c.25 0 .432-.018.545-.053s.214-.113.303-.234.133-.26.133-.416c0-.148-.044-.281-.133-.398s-.185-.189-.289-.217-.299-.041-.586-.041z" fill="#edf2ee"/><path d="m52.26 61.083h-2.539v1.094h1.996v1.004h-1.996v1.164h2.539v1.055h-3.809v-5.332h3.809z" fill="#edf2ee"/><path d="m56.862 61.239-1.063.355c-.143-.422-.446-.633-.908-.633-.494 0-.74.16-.74.48 0 .127.046.236.139.324.092.088.301.166.626.23.543.11.941.221 1.193.333s.465.292.638.541.259.527.259.834c0 .481-.186.898-.556 1.25s-.92.527-1.649.527c-.546 0-1.012-.125-1.396-.373s-.637-.618-.759-1.107l1.156-.262c.13.498.491.746 1.084.746.286 0 .499-.055.639-.166s.21-.243.21-.396c0-.156-.063-.277-.191-.363-.127-.086-.373-.167-.737-.242-.679-.141-1.163-.333-1.451-.577-.289-.243-.433-.599-.433-1.068 0-.474.172-.874.517-1.199.345-.326.813-.488 1.403-.488 1.047 0 1.719.418 2.019 1.254z" fill="#edf2ee"/><path d="m62.292 62.052-1.309.082c-.019-.752-.312-1.129-.881-1.129-.652 0-.979.58-.979 1.738 0 .669.089 1.123.266 1.361s.425.357.744.357c.517 0 .833-.336.947-1.008l1.211.074c-.078.638-.316 1.123-.713 1.455s-.883.498-1.459.498c-.706 0-1.279-.244-1.721-.73s-.662-1.16-.662-2.02c0-.805.213-1.463.641-1.977s1.01-.77 1.75-.77c1.282.002 2.003.691 2.165 2.069z" fill="#edf2ee"/><path d="m260.045 100.172v3.977h-.819v-3.977z" fill="#edf2ee"/><path d="m263.198 100.93h-1.668v.816h1.312v.749h-1.312v.868h1.668v.787h-2.502v-3.977h2.502z" fill="#edf2ee"/><path d="m267.843 100.172-.88 3.977h-.806l-.576-2.631-.556 2.631h-.8l-.901-3.977h.837l.483 2.427c.002.012.011.055.028.128.007.027.016.068.028.123l.574-2.678h.757l.589 2.678c.012-.051.029-.134.051-.251l.497-2.427z" fill="#edf2ee"/><path d="m260.611 98.304c-.492 0-.872-.201-1.141-.603s-.404-.889-.404-1.459c0-.581.137-1.065.409-1.454s.661-.583 1.165-.583c.51 0 .894.207 1.153.622s.389.89.389 1.423c0 .577-.134 1.063-.401 1.46-.266.396-.656.594-1.17.594zm.024-3.339c-.448 0-.672.429-.672 1.288 0 .861.224 1.291.672 1.291.435 0 .651-.429.651-1.288.001-.86-.216-1.291-.651-1.291z" fill="#edf2ee"/><path d="m263.699 94.266v3.977h-.853v-3.977z" fill="#edf2ee"/><path d="m267.481 95.746-.896.061c-.013-.561-.214-.842-.603-.842-.447 0-.67.432-.67 1.296 0 .5.061.838.182 1.016.122.178.292.267.509.267.354 0 .57-.25.649-.752l.829.056c-.053.476-.216.837-.488 1.085s-.605.372-.999.372c-.483 0-.876-.182-1.178-.545s-.454-.865-.454-1.506c0-.6.146-1.091.439-1.474s.692-.574 1.198-.574c.878-.001 1.372.513 1.482 1.54z" fill="#edf2ee"/><path d="m270.686 95.023h-1.739v.816h1.367v.749h-1.367v.868h1.739v.787h-2.608v-3.977h2.608z" fill="#edf2ee"/><path d="m258.057 94.205-2.66 9.944h-2.217l-2.646-9.944h2.196l1.762 7.11 1.835-7.11z" fill="#edf2ee"/><path d="m272.542 90.146v9.031h-16.657" fill="none" stroke="#edf2ee" stroke-miterlimit="10"/><path d="m159.833 19.583h70.146c8.618 0 15.604 6.986 15.604 15.604l-1.305 88.059c-.16 10.786-8.285 19.157-15.111 22.045-4.333 1.833-11.113 2.468-13.14 2.731-7.498.973-28.905 3.394-56.193 3.394s-48.695-2.422-56.193-3.394c-2.027-.263-8.807-.897-13.14-2.731-6.826-2.888-14.951-11.259-15.111-22.045l-1.305-88.059c0-8.618 6.986-15.604 15.604-15.604z" fill="#e0e0e1"/><g fill="#909190"><ellipse cx="158.618" cy="22.458" rx=".433" ry=".438"/><ellipse cx="158.618" cy="25.196" rx=".433" ry=".438"/><ellipse cx="158.618" cy="27.933" rx=".433" ry=".438"/><ellipse cx="158.618" cy="30.67" rx=".433" ry=".438"/><ellipse cx="158.618" cy="33.407" rx=".433" ry=".438"/><ellipse cx="158.618" cy="36.145" rx=".433" ry=".438"/><ellipse cx="158.618" cy="134.686" rx=".433" ry=".438"/><ellipse cx="158.618" cy="137.423" rx=".433" ry=".438"/><ellipse cx="158.618" cy="140.16" rx=".433" ry=".438"/><ellipse cx="158.618" cy="142.898" rx=".433" ry=".438"/><ellipse cx="158.618" cy="145.635" rx=".433" ry=".438"/><ellipse cx="158.618" cy="148.372" rx=".433" ry=".438"/><ellipse cx="156.074" cy="22.458" rx=".433" ry=".438"/><ellipse cx="156.074" cy="25.196" rx=".433" ry=".438"/><ellipse cx="156.074" cy="27.933" rx=".433" ry=".438"/><ellipse cx="156.074" cy="30.67" rx=".433" ry=".438"/><ellipse cx="156.074" cy="33.407" rx=".433" ry=".438"/><ellipse cx="156.074" cy="36.145" rx=".433" ry=".438"/><ellipse cx="156.074" cy="134.686" rx=".433" ry=".438"/><ellipse cx="156.074" cy="137.423" rx=".433" ry=".438"/><ellipse cx="156.074" cy="140.16" rx=".433" ry=".438"/><ellipse cx="156.074" cy="142.898" rx=".433" ry=".438"/><ellipse cx="156.074" cy="145.635" rx=".433" ry=".438"/><ellipse cx="156.074" cy="148.372" rx=".433" ry=".438"/><ellipse cx="153.53" cy="22.458" rx=".433" ry=".438"/><ellipse cx="153.53" cy="25.196" rx=".433" ry=".438"/><ellipse cx="153.53" cy="27.933" rx=".433" ry=".438"/><ellipse cx="153.53" cy="30.67" rx=".433" ry=".438"/><ellipse cx="153.53" cy="33.407" rx=".433" ry=".438"/><ellipse cx="153.53" cy="36.145" rx=".433" ry=".438"/><ellipse cx="153.53" cy="134.686" rx=".433" ry=".438"/><ellipse cx="153.53" cy="137.423" rx=".433" ry=".438"/><ellipse cx="153.53" cy="140.16" rx=".433" ry=".438"/><ellipse cx="153.53" cy="142.898" rx=".433" ry=".438"/><ellipse cx="153.53" cy="145.635" rx=".433" ry=".438"/><ellipse cx="153.53" cy="148.372" rx=".433" ry=".438"/><ellipse cx="150.987" cy="22.458" rx=".433" ry=".438"/><ellipse cx="150.987" cy="25.196" rx=".433" ry=".438"/><ellipse cx="150.987" cy="27.933" rx=".433" ry=".438"/><ellipse cx="150.987" cy="30.67" rx=".433" ry=".438"/><ellipse cx="150.987" cy="33.407" rx=".433" ry=".438"/><ellipse cx="150.987" cy="36.145" rx=".433" ry=".438"/><ellipse cx="150.987" cy="134.686" rx=".433" ry=".438"/><ellipse cx="150.987" cy="137.423" rx=".433" ry=".438"/><ellipse cx="150.987" cy="140.16" rx=".433" ry=".438"/><ellipse cx="150.987" cy="142.898" rx=".433" ry=".438"/><ellipse cx="150.987" cy="145.635" rx=".433" ry=".438"/><ellipse cx="150.987" cy="148.372" rx=".433" ry=".438"/><ellipse cx="148.443" cy="22.458" rx=".433" ry=".438"/><ellipse cx="148.443" cy="25.196" rx=".433" ry=".438"/><ellipse cx="148.443" cy="27.933" rx=".433" ry=".438"/><ellipse cx="148.443" cy="30.67" rx=".433" ry=".438"/><ellipse cx="148.443" cy="33.407" rx=".433" ry=".438"/><ellipse cx="148.443" cy="36.145" rx=".433" ry=".438"/><ellipse cx="148.443" cy="134.686" rx=".433" ry=".438"/><ellipse cx="148.443" cy="137.423" rx=".433" ry=".438"/><ellipse cx="148.443" cy="140.16" rx=".433" ry=".438"/><ellipse cx="148.443" cy="142.898" rx=".433" ry=".438"/><ellipse cx="148.443" cy="145.635" rx=".433" ry=".438"/><ellipse cx="148.443" cy="148.372" rx=".433" ry=".438"/><ellipse cx="145.899" cy="22.458" rx=".433" ry=".438"/><ellipse cx="145.899" cy="25.196" rx=".433" ry=".438"/><ellipse cx="145.899" cy="27.933" rx=".433" ry=".438"/><ellipse cx="145.899" cy="30.67" rx=".433" ry=".438"/><ellipse cx="145.899" cy="33.407" rx=".433" ry=".438"/><ellipse cx="145.899" cy="36.145" rx=".433" ry=".438"/><ellipse cx="145.899" cy="134.686" rx=".433" ry=".438"/><ellipse cx="145.899" cy="137.423" rx=".433" ry=".438"/><ellipse cx="145.899" cy="140.16" rx=".433" ry=".438"/><ellipse cx="145.899" cy="142.898" rx=".433" ry=".438"/><ellipse cx="145.899" cy="145.635" rx=".433" ry=".438"/><ellipse cx="145.899" cy="148.372" rx=".433" ry=".438"/><ellipse cx="143.356" cy="22.458" rx=".433" ry=".438"/><ellipse cx="143.356" cy="25.196" rx=".433" ry=".438"/><ellipse cx="143.356" cy="27.933" rx=".433" ry=".438"/><ellipse cx="143.356" cy="30.67" rx=".433" ry=".438"/><ellipse cx="143.356" cy="33.407" rx=".433" ry=".438"/><ellipse cx="143.356" cy="36.145" rx=".433" ry=".438"/><ellipse cx="143.356" cy="134.686" rx=".433" ry=".438"/><ellipse cx="143.356" cy="137.423" rx=".433" ry=".438"/><ellipse cx="143.356" cy="140.16" rx=".433" ry=".438"/><ellipse cx="143.356" cy="142.898" rx=".433" ry=".438"/><ellipse cx="143.356" cy="145.635" rx=".433" ry=".438"/><ellipse cx="143.356" cy="148.372" rx=".433" ry=".438"/><ellipse cx="140.812" cy="22.458" rx=".433" ry=".438"/><ellipse cx="140.812" cy="25.196" rx=".433" ry=".438"/><ellipse cx="140.812" cy="27.933" rx=".433" ry=".438"/><ellipse cx="140.812" cy="30.67" rx=".433" ry=".438"/><ellipse cx="140.812" cy="33.407" rx=".433" ry=".438"/><ellipse cx="140.812" cy="36.145" rx=".433" ry=".438"/><ellipse cx="140.812" cy="134.686" rx=".433" ry=".438"/><ellipse cx="140.812" cy="137.423" rx=".433" ry=".438"/><ellipse cx="140.812" cy="140.16" rx=".433" ry=".438"/><ellipse cx="140.812" cy="142.898" rx=".433" ry=".438"/><ellipse cx="140.812" cy="145.635" rx=".433" ry=".438"/><ellipse cx="140.812" cy="148.372" rx=".433" ry=".438"/><ellipse cx="138.268" cy="22.458" rx=".433" ry=".438"/><ellipse cx="138.268" cy="25.196" rx=".433" ry=".438"/><ellipse cx="138.268" cy="27.933" rx=".433" ry=".438"/><ellipse cx="138.268" cy="30.67" rx=".433" ry=".438"/><ellipse cx="138.268" cy="33.407" rx=".433" ry=".438"/><ellipse cx="138.268" cy="36.145" rx=".433" ry=".438"/><ellipse cx="138.268" cy="134.686" rx=".433" ry=".438"/><ellipse cx="138.268" cy="137.423" rx=".433" ry=".438"/><ellipse cx="138.268" cy="140.16" rx=".433" ry=".438"/><ellipse cx="138.268" cy="142.898" rx=".433" ry=".438"/><ellipse cx="138.268" cy="145.635" rx=".433" ry=".438"/><ellipse cx="138.268" cy="148.372" rx=".433" ry=".438"/><ellipse cx="135.725" cy="22.458" rx=".433" ry=".438"/><ellipse cx="135.725" cy="25.196" rx=".433" ry=".438"/><ellipse cx="135.725" cy="27.933" rx=".433" ry=".438"/><ellipse cx="135.725" cy="30.67" rx=".433" ry=".438"/><ellipse cx="135.725" cy="33.407" rx=".433" ry=".438"/><ellipse cx="135.725" cy="36.145" rx=".433" ry=".438"/><ellipse cx="135.725" cy="134.686" rx=".433" ry=".438"/><ellipse cx="135.725" cy="137.423" rx=".433" ry=".438"/><ellipse cx="135.725" cy="140.16" rx=".433" ry=".438"/><ellipse cx="135.725" cy="142.898" rx=".433" ry=".438"/><ellipse cx="135.725" cy="145.635" rx=".433" ry=".438"/><ellipse cx="135.725" cy="148.372" rx=".433" ry=".438"/><ellipse cx="133.181" cy="22.458" rx=".433" ry=".438"/><ellipse cx="133.181" cy="25.196" rx=".433" ry=".438"/><ellipse cx="133.181" cy="27.933" rx=".433" ry=".438"/><ellipse cx="133.181" cy="30.67" rx=".433" ry=".438"/><ellipse cx="133.181" cy="33.407" rx=".433" ry=".438"/><ellipse cx="133.181" cy="36.145" rx=".433" ry=".438"/><ellipse cx="133.181" cy="134.686" rx=".433" ry=".438"/><ellipse cx="133.181" cy="137.423" rx=".433" ry=".438"/><ellipse cx="133.181" cy="140.16" rx=".433" ry=".438"/><ellipse cx="133.181" cy="142.898" rx=".433" ry=".438"/><ellipse cx="133.181" cy="145.635" rx=".433" ry=".438"/><ellipse cx="133.181" cy="148.372" rx=".433" ry=".438"/><ellipse cx="130.638" cy="22.458" rx=".433" ry=".438"/><ellipse cx="130.638" cy="25.196" rx=".433" ry=".438"/><ellipse cx="130.638" cy="27.933" rx=".433" ry=".438"/><ellipse cx="130.638" cy="30.67" rx=".433" ry=".438"/><ellipse cx="130.638" cy="33.407" rx=".433" ry=".438"/><ellipse cx="130.638" cy="36.145" rx=".433" ry=".438"/><ellipse cx="130.638" cy="134.686" rx=".433" ry=".438"/><ellipse cx="130.638" cy="137.423" rx=".433" ry=".438"/><ellipse cx="130.638" cy="140.16" rx=".433" ry=".438"/><ellipse cx="130.638" cy="142.898" rx=".433" ry=".438"/><ellipse cx="130.638" cy="145.635" rx=".433" ry=".438"/><ellipse cx="130.638" cy="148.372" rx=".433" ry=".438"/><ellipse cx="128.094" cy="22.458" rx=".433" ry=".438"/><ellipse cx="128.094" cy="25.196" rx=".433" ry=".438"/><ellipse cx="128.094" cy="27.933" rx=".433" ry=".438"/><ellipse cx="128.094" cy="30.67" rx=".433" ry=".438"/><ellipse cx="128.094" cy="33.407" rx=".433" ry=".438"/><ellipse cx="128.094" cy="36.145" rx=".433" ry=".438"/><ellipse cx="128.094" cy="134.686" rx=".433" ry=".438"/><ellipse cx="128.094" cy="137.423" rx=".433" ry=".438"/><ellipse cx="128.094" cy="140.16" rx=".433" ry=".438"/><ellipse cx="128.094" cy="142.898" rx=".433" ry=".438"/><ellipse cx="128.094" cy="145.635" rx=".433" ry=".438"/><ellipse cx="128.094" cy="148.372" rx=".433" ry=".438"/><ellipse cx="125.55" cy="22.458" rx=".433" ry=".438"/><ellipse cx="125.55" cy="25.196" rx=".433" ry=".438"/><ellipse cx="125.55" cy="27.933" rx=".433" ry=".438"/><ellipse cx="125.55" cy="30.67" rx=".433" ry=".438"/><ellipse cx="125.55" cy="33.407" rx=".433" ry=".438"/><ellipse cx="125.55" cy="36.145" rx=".433" ry=".438"/><ellipse cx="125.55" cy="134.686" rx=".433" ry=".438"/><ellipse cx="125.55" cy="137.423" rx=".433" ry=".438"/><ellipse cx="125.55" cy="140.16" rx=".433" ry=".438"/><ellipse cx="125.55" cy="142.898" rx=".433" ry=".438"/><ellipse cx="125.55" cy="145.635" rx=".433" ry=".438"/><ellipse cx="125.55" cy="148.372" rx=".433" ry=".438"/><ellipse cx="123.007" cy="22.458" rx=".433" ry=".438"/><ellipse cx="123.007" cy="25.196" rx=".433" ry=".438"/><ellipse cx="123.007" cy="27.933" rx=".433" ry=".438"/><ellipse cx="123.007" cy="30.67" rx=".433" ry=".438"/><ellipse cx="123.007" cy="33.407" rx=".433" ry=".438"/><ellipse cx="123.007" cy="36.145" rx=".433" ry=".438"/><ellipse cx="123.007" cy="134.686" rx=".433" ry=".438"/><ellipse cx="123.007" cy="137.423" rx=".433" ry=".438"/><ellipse cx="123.007" cy="140.16" rx=".433" ry=".438"/><ellipse cx="123.007" cy="142.898" rx=".433" ry=".438"/><ellipse cx="123.007" cy="145.635" rx=".433" ry=".438"/><ellipse cx="123.007" cy="148.372" rx=".433" ry=".438"/><ellipse cx="120.463" cy="22.458" rx=".433" ry=".438"/><ellipse cx="120.463" cy="25.196" rx=".433" ry=".438"/><ellipse cx="120.463" cy="27.933" rx=".433" ry=".438"/><ellipse cx="120.463" cy="30.67" rx=".433" ry=".438"/><ellipse cx="120.463" cy="33.407" rx=".433" ry=".438"/><ellipse cx="120.463" cy="36.145" rx=".433" ry=".438"/><ellipse cx="120.463" cy="134.686" rx=".433" ry=".438"/><ellipse cx="120.463" cy="137.423" rx=".433" ry=".438"/><ellipse cx="120.463" cy="140.16" rx=".433" ry=".438"/><ellipse cx="120.463" cy="142.898" rx=".433" ry=".438"/><ellipse cx="120.463" cy="145.635" rx=".433" ry=".438"/><ellipse cx="120.463" cy="148.372" rx=".433" ry=".438"/><ellipse cx="117.919" cy="22.458" rx=".433" ry=".438"/><ellipse cx="117.919" cy="25.196" rx=".433" ry=".438"/><ellipse cx="117.919" cy="27.933" rx=".433" ry=".438"/><ellipse cx="117.919" cy="30.67" rx=".433" ry=".438"/><ellipse cx="117.919" cy="33.407" rx=".433" ry=".438"/><ellipse cx="117.919" cy="36.145" rx=".433" ry=".438"/><ellipse cx="117.919" cy="134.686" rx=".433" ry=".438"/><ellipse cx="117.919" cy="137.423" rx=".433" ry=".438"/><ellipse cx="117.919" cy="140.16" rx=".433" ry=".438"/><ellipse cx="117.919" cy="142.898" rx=".433" ry=".438"/><ellipse cx="117.919" cy="145.635" rx=".433" ry=".438"/><ellipse cx="117.919" cy="148.372" rx=".433" ry=".438"/><ellipse cx="115.376" cy="22.458" rx=".433" ry=".438"/><ellipse cx="115.376" cy="25.196" rx=".433" ry=".438"/><ellipse cx="115.376" cy="27.933" rx=".433" ry=".438"/><ellipse cx="115.376" cy="30.67" rx=".433" ry=".438"/><ellipse cx="115.376" cy="33.407" rx=".433" ry=".438"/><ellipse cx="115.376" cy="36.145" rx=".433" ry=".438"/><ellipse cx="115.376" cy="134.686" rx=".433" ry=".438"/><ellipse cx="115.376" cy="137.423" rx=".433" ry=".438"/><ellipse cx="115.376" cy="140.16" rx=".433" ry=".438"/><ellipse cx="115.376" cy="142.898" rx=".433" ry=".438"/><ellipse cx="115.376" cy="145.635" rx=".433" ry=".438"/><ellipse cx="115.376" cy="148.372" rx=".433" ry=".438"/><ellipse cx="112.832" cy="22.458" rx=".433" ry=".438"/><ellipse cx="112.832" cy="25.196" rx=".433" ry=".438"/><ellipse cx="112.832" cy="27.933" rx=".433" ry=".438"/><ellipse cx="112.832" cy="30.67" rx=".433" ry=".438"/><ellipse cx="112.832" cy="33.407" rx=".433" ry=".438"/><ellipse cx="112.832" cy="36.145" rx=".433" ry=".438"/><ellipse cx="112.832" cy="134.686" rx=".433" ry=".438"/><ellipse cx="112.832" cy="137.423" rx=".433" ry=".438"/><ellipse cx="112.832" cy="140.16" rx=".433" ry=".438"/><ellipse cx="112.832" cy="142.898" rx=".433" ry=".438"/><ellipse cx="112.832" cy="145.635" rx=".433" ry=".438"/><ellipse cx="112.832" cy="148.372" rx=".433" ry=".438"/><ellipse cx="110.288" cy="22.458" rx=".433" ry=".438"/><ellipse cx="110.288" cy="25.196" rx=".433" ry=".438"/><ellipse cx="110.288" cy="27.933" rx=".433" ry=".438"/><ellipse cx="110.288" cy="30.67" rx=".433" ry=".438"/><ellipse cx="110.288" cy="33.407" rx=".433" ry=".438"/><ellipse cx="110.288" cy="36.145" rx=".433" ry=".438"/><ellipse cx="110.288" cy="134.686" rx=".433" ry=".438"/><ellipse cx="110.288" cy="137.423" rx=".433" ry=".438"/><ellipse cx="110.288" cy="140.16" rx=".433" ry=".438"/><ellipse cx="110.288" cy="142.898" rx=".433" ry=".438"/><ellipse cx="110.288" cy="145.635" rx=".433" ry=".438"/><ellipse cx="110.288" cy="148.372" rx=".433" ry=".438"/><ellipse cx="107.745" cy="22.458" rx=".433" ry=".438"/><ellipse cx="107.745" cy="25.196" rx=".433" ry=".438"/><ellipse cx="107.745" cy="27.933" rx=".433" ry=".438"/><ellipse cx="107.745" cy="30.67" rx=".433" ry=".438"/><ellipse cx="107.745" cy="33.407" rx=".433" ry=".438"/><ellipse cx="107.745" cy="36.145" rx=".433" ry=".438"/><ellipse cx="107.745" cy="134.686" rx=".433" ry=".438"/><ellipse cx="107.745" cy="137.423" rx=".433" ry=".438"/><ellipse cx="107.745" cy="140.16" rx=".433" ry=".438"/><ellipse cx="107.745" cy="142.898" rx=".433" ry=".438"/><ellipse cx="107.745" cy="145.635" rx=".433" ry=".438"/><ellipse cx="105.201" cy="22.458" rx=".433" ry=".438"/><ellipse cx="105.201" cy="25.196" rx=".433" ry=".438"/><ellipse cx="105.201" cy="27.933" rx=".433" ry=".438"/><ellipse cx="105.201" cy="30.67" rx=".433" ry=".438"/><ellipse cx="105.201" cy="33.407" rx=".433" ry=".438"/><ellipse cx="105.201" cy="36.145" rx=".433" ry=".438"/><ellipse cx="105.201" cy="134.686" rx=".433" ry=".438"/><ellipse cx="105.201" cy="137.423" rx=".433" ry=".438"/><ellipse cx="105.201" cy="140.16" rx=".433" ry=".438"/><ellipse cx="105.201" cy="142.898" rx=".433" ry=".438"/><ellipse cx="105.201" cy="145.635" rx=".433" ry=".438"/><ellipse cx="102.657" cy="22.458" rx=".433" ry=".438"/><ellipse cx="102.657" cy="25.196" rx=".433" ry=".438"/><ellipse cx="102.657" cy="27.933" rx=".433" ry=".438"/><ellipse cx="102.657" cy="30.67" rx=".433" ry=".438"/><ellipse cx="102.657" cy="33.407" rx=".433" ry=".438"/><ellipse cx="102.657" cy="36.145" rx=".433" ry=".438"/><ellipse cx="102.657" cy="134.686" rx=".433" ry=".438"/><ellipse cx="102.657" cy="137.423" rx=".433" ry=".438"/><ellipse cx="102.657" cy="140.16" rx=".433" ry=".438"/><ellipse cx="102.657" cy="142.898" rx=".433" ry=".438"/><ellipse cx="102.657" cy="145.635" rx=".433" ry=".438"/><ellipse cx="100.114" cy="22.458" rx=".433" ry=".438"/><ellipse cx="100.114" cy="25.196" rx=".433" ry=".438"/><ellipse cx="100.114" cy="27.933" rx=".433" ry=".438"/><ellipse cx="100.114" cy="30.67" rx=".433" ry=".438"/><ellipse cx="100.114" cy="33.407" rx=".433" ry=".438"/><ellipse cx="100.114" cy="36.145" rx=".433" ry=".438"/><ellipse cx="100.114" cy="134.686" rx=".433" ry=".438"/><ellipse cx="100.114" cy="137.423" rx=".433" ry=".438"/><ellipse cx="100.114" cy="140.16" rx=".433" ry=".438"/><ellipse cx="100.114" cy="142.898" rx=".433" ry=".438"/><ellipse cx="100.114" cy="145.635" rx=".433" ry=".438"/><ellipse cx="97.57" cy="22.458" rx=".433" ry=".438"/><ellipse cx="97.57" cy="25.196" rx=".433" ry=".438"/><ellipse cx="97.57" cy="27.933" rx=".433" ry=".438"/><ellipse cx="97.57" cy="30.67" rx=".433" ry=".438"/><ellipse cx="97.57" cy="33.407" rx=".433" ry=".438"/><ellipse cx="97.57" cy="36.145" rx=".433" ry=".438"/><ellipse cx="97.57" cy="134.686" rx=".433" ry=".438"/><ellipse cx="97.57" cy="137.423" rx=".433" ry=".438"/><ellipse cx="97.57" cy="140.16" rx=".433" ry=".438"/><ellipse cx="97.57" cy="142.898" rx=".433" ry=".438"/><ellipse cx="97.57" cy="145.635" rx=".433" ry=".438"/><ellipse cx="95.026" cy="22.458" rx=".433" ry=".438"/><ellipse cx="95.026" cy="25.196" rx=".433" ry=".438"/><ellipse cx="95.026" cy="27.933" rx=".433" ry=".438"/><ellipse cx="95.026" cy="30.67" rx=".433" ry=".438"/><ellipse cx="95.026" cy="33.407" rx=".433" ry=".438"/><ellipse cx="95.026" cy="36.145" rx=".433" ry=".438"/><ellipse cx="95.026" cy="134.686" rx=".433" ry=".438"/><ellipse cx="95.026" cy="137.423" rx=".433" ry=".438"/><ellipse cx="95.026" cy="140.16" rx=".433" ry=".438"/><ellipse cx="95.026" cy="142.898" rx=".433" ry=".438"/><ellipse cx="95.026" cy="145.635" rx=".433" ry=".438"/><ellipse cx="92.483" cy="22.458" rx=".433" ry=".438"/><ellipse cx="92.483" cy="25.196" rx=".433" ry=".438"/><ellipse cx="92.483" cy="27.933" rx=".433" ry=".438"/><ellipse cx="92.483" cy="30.67" rx=".433" ry=".438"/><ellipse cx="92.483" cy="33.407" rx=".433" ry=".438"/><ellipse cx="92.483" cy="36.145" rx=".433" ry=".438"/><ellipse cx="92.483" cy="134.686" rx=".433" ry=".438"/><ellipse cx="92.483" cy="137.423" rx=".433" ry=".438"/><ellipse cx="92.483" cy="140.16" rx=".433" ry=".438"/><ellipse cx="92.483" cy="142.898" rx=".433" ry=".438"/><ellipse cx="92.483" cy="145.635" rx=".433" ry=".438"/><ellipse cx="89.939" cy="22.458" rx=".433" ry=".438"/><ellipse cx="89.939" cy="25.196" rx=".433" ry=".438"/><ellipse cx="89.939" cy="27.933" rx=".433" ry=".438"/><ellipse cx="89.939" cy="30.67" rx=".433" ry=".438"/><ellipse cx="89.939" cy="33.407" rx=".433" ry=".438"/><ellipse cx="89.939" cy="36.145" rx=".433" ry=".438"/><ellipse cx="89.939" cy="134.686" rx=".433" ry=".438"/><ellipse cx="89.939" cy="137.423" rx=".433" ry=".438"/><ellipse cx="89.939" cy="140.16" rx=".433" ry=".438"/><ellipse cx="89.939" cy="142.898" rx=".433" ry=".438"/><ellipse cx="87.396" cy="22.458" rx=".433" ry=".438"/><ellipse cx="87.396" cy="25.196" rx=".433" ry=".438"/><ellipse cx="87.396" cy="27.933" rx=".433" ry=".438"/><ellipse cx="87.396" cy="30.67" rx=".433" ry=".438"/><ellipse cx="87.396" cy="33.407" rx=".433" ry=".438"/><ellipse cx="87.396" cy="36.145" rx=".433" ry=".438"/><ellipse cx="87.396" cy="38.882" rx=".433" ry=".438"/><ellipse cx="87.396" cy="134.686" rx=".433" ry=".438"/><ellipse cx="87.396" cy="137.423" rx=".433" ry=".438"/><ellipse cx="87.396" cy="140.16" rx=".433" ry=".438"/><ellipse cx="87.396" cy="142.898" rx=".433" ry=".438"/><ellipse cx="84.852" cy="22.458" rx=".433" ry=".438"/><ellipse cx="84.852" cy="25.196" rx=".433" ry=".438"/><ellipse cx="84.852" cy="27.933" rx=".433" ry=".438"/><ellipse cx="84.852" cy="30.67" rx=".433" ry=".438"/><ellipse cx="84.852" cy="33.407" rx=".433" ry=".438"/><ellipse cx="84.852" cy="36.145" rx=".433" ry=".438"/><ellipse cx="84.852" cy="38.882" rx=".433" ry=".438"/><ellipse cx="84.852" cy="41.619" rx=".433" ry=".438"/><ellipse cx="84.852" cy="44.356" rx=".433" ry=".438"/><ellipse cx="84.852" cy="47.094" rx=".433" ry=".438"/><ellipse cx="84.852" cy="49.831" rx=".433" ry=".438"/><ellipse cx="84.852" cy="52.568" rx=".433" ry=".438"/><ellipse cx="84.852" cy="55.305" rx=".433" ry=".438"/><ellipse cx="84.852" cy="58.043" rx=".433" ry=".438"/><ellipse cx="84.852" cy="60.78" rx=".433" ry=".438"/><ellipse cx="84.852" cy="63.517" rx=".433" ry=".438"/><ellipse cx="84.852" cy="66.254" rx=".433" ry=".438"/><ellipse cx="84.852" cy="68.992" rx=".433" ry=".438"/><ellipse cx="84.852" cy="71.729" rx=".433" ry=".438"/><ellipse cx="84.852" cy="74.466" rx=".433" ry=".438"/><ellipse cx="84.852" cy="77.203" rx=".433" ry=".438"/><ellipse cx="84.852" cy="79.941" rx=".433" ry=".438"/><ellipse cx="84.852" cy="82.678" rx=".433" ry=".438"/><ellipse cx="84.852" cy="85.415" rx=".433" ry=".438"/><ellipse cx="84.852" cy="88.152" rx=".433" ry=".438"/><ellipse cx="84.852" cy="90.89" rx=".433" ry=".438"/><ellipse cx="84.852" cy="93.627" rx=".433" ry=".438"/><ellipse cx="84.852" cy="96.364" rx=".433" ry=".438"/><ellipse cx="84.852" cy="99.101" rx=".433" ry=".438"/><ellipse cx="84.852" cy="101.839" rx=".433" ry=".438"/><ellipse cx="84.852" cy="104.576" rx=".433" ry=".438"/><ellipse cx="84.852" cy="107.313" rx=".433" ry=".438"/><ellipse cx="84.852" cy="110.05" rx=".433" ry=".438"/><ellipse cx="84.852" cy="112.788" rx=".433" ry=".438"/><ellipse cx="84.852" cy="115.525" rx=".433" ry=".438"/><ellipse cx="84.852" cy="118.262" rx=".433" ry=".438"/><ellipse cx="84.852" cy="121" rx=".433" ry=".438"/><ellipse cx="84.852" cy="123.737" rx=".433" ry=".438"/><ellipse cx="84.852" cy="126.474" rx=".433" ry=".438"/><ellipse cx="84.852" cy="129.211" rx=".433" ry=".438"/><ellipse cx="84.852" cy="131.949" rx=".433" ry=".438"/><ellipse cx="84.852" cy="134.686" rx=".433" ry=".438"/><ellipse cx="84.852" cy="137.423" rx=".433" ry=".438"/><ellipse cx="84.852" cy="140.16" rx=".433" ry=".438"/><ellipse cx="82.308" cy="22.458" rx=".433" ry=".438"/><ellipse cx="82.308" cy="25.196" rx=".433" ry=".438"/><ellipse cx="82.308" cy="27.933" rx=".433" ry=".438"/><ellipse cx="82.308" cy="30.67" rx=".433" ry=".438"/><ellipse cx="82.308" cy="33.407" rx=".433" ry=".438"/><ellipse cx="82.308" cy="36.145" rx=".433" ry=".438"/><ellipse cx="82.308" cy="38.882" rx=".433" ry=".438"/><ellipse cx="82.308" cy="41.619" rx=".433" ry=".438"/><ellipse cx="82.308" cy="44.356" rx=".433" ry=".438"/><ellipse cx="82.308" cy="47.094" rx=".433" ry=".438"/><ellipse cx="82.308" cy="49.831" rx=".433" ry=".438"/><ellipse cx="82.308" cy="52.568" rx=".433" ry=".438"/><ellipse cx="82.308" cy="55.305" rx=".433" ry=".438"/><ellipse cx="82.308" cy="58.043" rx=".433" ry=".438"/><ellipse cx="82.308" cy="60.78" rx=".433" ry=".438"/><ellipse cx="82.308" cy="63.517" rx=".433" ry=".438"/><ellipse cx="82.308" cy="66.254" rx=".433" ry=".438"/><ellipse cx="82.308" cy="68.992" rx=".433" ry=".438"/><ellipse cx="82.308" cy="71.729" rx=".433" ry=".438"/><ellipse cx="82.308" cy="74.466" rx=".433" ry=".438"/><ellipse cx="82.308" cy="77.203" rx=".433" ry=".438"/><ellipse cx="82.308" cy="79.941" rx=".433" ry=".438"/><ellipse cx="82.308" cy="82.678" rx=".433" ry=".438"/><ellipse cx="82.308" cy="85.415" rx=".433" ry=".438"/><ellipse cx="82.308" cy="88.152" rx=".433" ry=".438"/><ellipse cx="82.308" cy="90.89" rx=".433" ry=".438"/><ellipse cx="82.308" cy="93.627" rx=".433" ry=".438"/><ellipse cx="82.308" cy="96.364" rx=".433" ry=".438"/><ellipse cx="82.308" cy="99.101" rx=".433" ry=".438"/><ellipse cx="82.308" cy="101.839" rx=".433" ry=".438"/><ellipse cx="82.308" cy="104.576" rx=".433" ry=".438"/><ellipse cx="82.308" cy="107.313" rx=".433" ry=".438"/><ellipse cx="82.308" cy="110.05" rx=".433" ry=".438"/><ellipse cx="82.308" cy="112.788" rx=".433" ry=".438"/><ellipse cx="82.308" cy="115.525" rx=".433" ry=".438"/><ellipse cx="82.308" cy="118.262" rx=".433" ry=".438"/><ellipse cx="82.308" cy="121" rx=".433" ry=".438"/><ellipse cx="82.308" cy="123.737" rx=".433" ry=".438"/><ellipse cx="82.308" cy="126.474" rx=".433" ry=".438"/><ellipse cx="82.308" cy="129.211" rx=".433" ry=".438"/><ellipse cx="82.308" cy="131.949" rx=".433" ry=".438"/><ellipse cx="82.308" cy="134.686" rx=".433" ry=".438"/><ellipse cx="82.308" cy="137.423" rx=".433" ry=".438"/><ellipse cx="79.765" cy="25.196" rx=".433" ry=".438"/><ellipse cx="79.765" cy="27.933" rx=".433" ry=".438"/><ellipse cx="79.765" cy="30.67" rx=".433" ry=".438"/><ellipse cx="79.765" cy="33.407" rx=".433" ry=".438"/><ellipse cx="79.765" cy="36.145" rx=".433" ry=".438"/><ellipse cx="79.765" cy="38.882" rx=".433" ry=".438"/><ellipse cx="79.765" cy="41.619" rx=".433" ry=".438"/><ellipse cx="79.765" cy="44.356" rx=".433" ry=".438"/><ellipse cx="79.765" cy="47.094" rx=".433" ry=".438"/><ellipse cx="79.765" cy="49.831" rx=".433" ry=".438"/><ellipse cx="79.765" cy="52.568" rx=".433" ry=".438"/><ellipse cx="79.765" cy="55.305" rx=".433" ry=".438"/><ellipse cx="79.765" cy="58.043" rx=".433" ry=".438"/><ellipse cx="79.765" cy="60.78" rx=".433" ry=".438"/><ellipse cx="79.765" cy="63.517" rx=".433" ry=".438"/><ellipse cx="79.765" cy="66.254" rx=".433" ry=".438"/><ellipse cx="79.765" cy="68.992" rx=".433" ry=".438"/><ellipse cx="79.765" cy="71.729" rx=".433" ry=".438"/><ellipse cx="79.765" cy="74.466" rx=".433" ry=".438"/><ellipse cx="79.765" cy="77.203" rx=".433" ry=".438"/><ellipse cx="79.765" cy="79.941" rx=".433" ry=".438"/><ellipse cx="79.765" cy="82.678" rx=".433" ry=".438"/><ellipse cx="79.765" cy="85.415" rx=".433" ry=".438"/><ellipse cx="79.765" cy="88.152" rx=".433" ry=".438"/><ellipse cx="79.765" cy="90.89" rx=".433" ry=".438"/><ellipse cx="79.765" cy="93.627" rx=".433" ry=".438"/><ellipse cx="79.765" cy="96.364" rx=".433" ry=".438"/><ellipse cx="79.765" cy="99.101" rx=".433" ry=".438"/><ellipse cx="79.765" cy="101.839" rx=".433" ry=".438"/><ellipse cx="79.765" cy="104.576" rx=".433" ry=".438"/><ellipse cx="79.765" cy="107.313" rx=".433" ry=".438"/><ellipse cx="79.765" cy="110.05" rx=".433" ry=".438"/><ellipse cx="79.765" cy="112.788" rx=".433" ry=".438"/><ellipse cx="79.765" cy="115.525" rx=".433" ry=".438"/><ellipse cx="79.765" cy="118.262" rx=".433" ry=".438"/><ellipse cx="79.765" cy="121" rx=".433" ry=".438"/><ellipse cx="79.765" cy="123.737" rx=".433" ry=".438"/><ellipse cx="79.765" cy="126.474" rx=".433" ry=".438"/><ellipse cx="79.765" cy="129.211" rx=".433" ry=".438"/><ellipse cx="79.765" cy="131.949" rx=".433" ry=".438"/><ellipse cx="79.765" cy="134.686" rx=".433" ry=".438"/><ellipse cx="77.221" cy="27.933" rx=".433" ry=".438"/><ellipse cx="77.221" cy="30.67" rx=".433" ry=".438"/><ellipse cx="77.221" cy="33.407" rx=".433" ry=".438"/><ellipse cx="77.221" cy="36.145" rx=".433" ry=".438"/><ellipse cx="77.221" cy="38.882" rx=".433" ry=".438"/><ellipse cx="77.221" cy="41.619" rx=".433" ry=".438"/><ellipse cx="77.221" cy="44.356" rx=".433" ry=".438"/><ellipse cx="77.221" cy="47.094" rx=".433" ry=".438"/><ellipse cx="77.221" cy="49.831" rx=".433" ry=".438"/><ellipse cx="77.221" cy="52.568" rx=".433" ry=".438"/><ellipse cx="74.677" cy="38.882" rx=".433" ry=".438"/><ellipse cx="74.677" cy="41.619" rx=".433" ry=".438"/><ellipse cx="74.677" cy="44.356" rx=".433" ry=".438"/><ellipse cx="74.677" cy="47.094" rx=".433" ry=".438"/><ellipse cx="74.677" cy="49.831" rx=".433" ry=".438"/><ellipse cx="74.677" cy="52.568" rx=".433" ry=".438"/><ellipse cx="77.221" cy="55.305" rx=".433" ry=".438"/><ellipse cx="77.221" cy="58.043" rx=".433" ry=".438"/><ellipse cx="77.221" cy="60.78" rx=".433" ry=".438"/><ellipse cx="77.221" cy="63.517" rx=".433" ry=".438"/><ellipse cx="77.221" cy="66.254" rx=".433" ry=".438"/><ellipse cx="77.221" cy="68.992" rx=".433" ry=".438"/><ellipse cx="77.221" cy="71.729" rx=".433" ry=".438"/><ellipse cx="77.221" cy="74.466" rx=".433" ry=".438"/><ellipse cx="77.221" cy="77.203" rx=".433" ry=".438"/><ellipse cx="77.221" cy="79.941" rx=".433" ry=".438"/><ellipse cx="77.221" cy="82.678" rx=".433" ry=".438"/><ellipse cx="77.221" cy="85.415" rx=".433" ry=".438"/><ellipse cx="77.221" cy="88.152" rx=".433" ry=".438"/><ellipse cx="77.221" cy="90.89" rx=".433" ry=".438"/><ellipse cx="77.221" cy="93.627" rx=".433" ry=".438"/><ellipse cx="77.221" cy="96.364" rx=".433" ry=".438"/><ellipse cx="77.221" cy="99.101" rx=".433" ry=".438"/><ellipse cx="77.221" cy="101.839" rx=".433" ry=".438"/><ellipse cx="77.221" cy="104.576" rx=".433" ry=".438"/><ellipse cx="77.221" cy="107.313" rx=".433" ry=".438"/><ellipse cx="77.221" cy="110.05" rx=".433" ry=".438"/><ellipse cx="77.221" cy="112.788" rx=".433" ry=".438"/><ellipse cx="77.221" cy="115.525" rx=".433" ry=".438"/><ellipse cx="77.221" cy="118.262" rx=".433" ry=".438"/><ellipse cx="77.221" cy="121" rx=".433" ry=".438"/><ellipse cx="77.221" cy="123.737" rx=".433" ry=".438"/><ellipse cx="77.221" cy="126.474" rx=".433" ry=".438"/><ellipse cx="77.221" cy="129.211" rx=".433" ry=".438"/><ellipse cx="161.048" cy="22.567" rx=".433" ry=".438"/><ellipse cx="161.048" cy="25.304" rx=".433" ry=".438"/><ellipse cx="161.048" cy="28.042" rx=".433" ry=".438"/><ellipse cx="161.048" cy="30.779" rx=".433" ry=".438"/><ellipse cx="161.048" cy="33.516" rx=".433" ry=".438"/><ellipse cx="161.048" cy="36.253" rx=".433" ry=".438"/><ellipse cx="161.048" cy="134.795" rx=".433" ry=".438"/><ellipse cx="161.048" cy="137.532" rx=".433" ry=".438"/><ellipse cx="161.048" cy="140.269" rx=".433" ry=".438"/><ellipse cx="161.048" cy="143.006" rx=".433" ry=".438"/><ellipse cx="161.048" cy="145.744" rx=".433" ry=".438"/><ellipse cx="161.048" cy="148.481" rx=".433" ry=".438"/><ellipse cx="163.591" cy="22.567" rx=".433" ry=".438"/><ellipse cx="163.591" cy="25.304" rx=".433" ry=".438"/><ellipse cx="163.591" cy="28.042" rx=".433" ry=".438"/><ellipse cx="163.591" cy="30.779" rx=".433" ry=".438"/><ellipse cx="163.591" cy="33.516" rx=".433" ry=".438"/><ellipse cx="163.591" cy="36.253" rx=".433" ry=".438"/><ellipse cx="163.591" cy="134.795" rx=".433" ry=".438"/><ellipse cx="163.591" cy="137.532" rx=".433" ry=".438"/><ellipse cx="163.591" cy="140.269" rx=".433" ry=".438"/><ellipse cx="163.591" cy="143.006" rx=".433" ry=".438"/><ellipse cx="163.591" cy="145.744" rx=".433" ry=".438"/><ellipse cx="163.591" cy="148.481" rx=".433" ry=".438"/><ellipse cx="166.135" cy="22.567" rx=".433" ry=".438"/><ellipse cx="166.135" cy="25.304" rx=".433" ry=".438"/><ellipse cx="166.135" cy="28.042" rx=".433" ry=".438"/><ellipse cx="166.135" cy="30.779" rx=".433" ry=".438"/><ellipse cx="166.135" cy="33.516" rx=".433" ry=".438"/><ellipse cx="166.135" cy="36.253" rx=".433" ry=".438"/><ellipse cx="166.135" cy="134.795" rx=".433" ry=".438"/><ellipse cx="166.135" cy="137.532" rx=".433" ry=".438"/><ellipse cx="166.135" cy="140.269" rx=".433" ry=".438"/><ellipse cx="166.135" cy="143.006" rx=".433" ry=".438"/><ellipse cx="166.135" cy="145.744" rx=".433" ry=".438"/><ellipse cx="166.135" cy="148.481" rx=".433" ry=".438"/><ellipse cx="168.679" cy="22.567" rx=".433" ry=".438"/><ellipse cx="168.679" cy="25.304" rx=".433" ry=".438"/><ellipse cx="168.679" cy="28.042" rx=".433" ry=".438"/><ellipse cx="168.679" cy="30.779" rx=".433" ry=".438"/><ellipse cx="168.679" cy="33.516" rx=".433" ry=".438"/><ellipse cx="168.679" cy="36.253" rx=".433" ry=".438"/><ellipse cx="168.679" cy="134.795" rx=".433" ry=".438"/><ellipse cx="168.679" cy="137.532" rx=".433" ry=".438"/><ellipse cx="168.679" cy="140.269" rx=".433" ry=".438"/><ellipse cx="168.679" cy="143.006" rx=".433" ry=".438"/><ellipse cx="168.679" cy="145.744" rx=".433" ry=".438"/><ellipse cx="168.679" cy="148.481" rx=".433" ry=".438"/><ellipse cx="171.222" cy="22.567" rx=".433" ry=".438"/><ellipse cx="171.222" cy="25.304" rx=".433" ry=".438"/><ellipse cx="171.222" cy="28.042" rx=".433" ry=".438"/><ellipse cx="171.222" cy="30.779" rx=".433" ry=".438"/><ellipse cx="171.222" cy="33.516" rx=".433" ry=".438"/><ellipse cx="171.222" cy="36.253" rx=".433" ry=".438"/><ellipse cx="171.222" cy="134.795" rx=".433" ry=".438"/><ellipse cx="171.222" cy="137.532" rx=".433" ry=".438"/><ellipse cx="171.222" cy="140.269" rx=".433" ry=".438"/><ellipse cx="171.222" cy="143.006" rx=".433" ry=".438"/><ellipse cx="171.222" cy="145.744" rx=".433" ry=".438"/><ellipse cx="171.222" cy="148.481" rx=".433" ry=".438"/><ellipse cx="173.766" cy="22.567" rx=".433" ry=".438"/><ellipse cx="173.766" cy="25.304" rx=".433" ry=".438"/><ellipse cx="173.766" cy="28.042" rx=".433" ry=".438"/><ellipse cx="173.766" cy="30.779" rx=".433" ry=".438"/><ellipse cx="173.766" cy="33.516" rx=".433" ry=".438"/><ellipse cx="173.766" cy="36.253" rx=".433" ry=".438"/><ellipse cx="173.766" cy="134.795" rx=".433" ry=".438"/><ellipse cx="173.766" cy="137.532" rx=".433" ry=".438"/><ellipse cx="173.766" cy="140.269" rx=".433" ry=".438"/><ellipse cx="173.766" cy="143.006" rx=".433" ry=".438"/><ellipse cx="173.766" cy="145.744" rx=".433" ry=".438"/><ellipse cx="173.766" cy="148.481" rx=".433" ry=".438"/><ellipse cx="176.31" cy="22.567" rx=".433" ry=".438"/><ellipse cx="176.31" cy="25.304" rx=".433" ry=".438"/><ellipse cx="176.31" cy="28.042" rx=".433" ry=".438"/><ellipse cx="176.31" cy="30.779" rx=".433" ry=".438"/><ellipse cx="176.31" cy="33.516" rx=".433" ry=".438"/><ellipse cx="176.31" cy="36.253" rx=".433" ry=".438"/><ellipse cx="176.31" cy="134.795" rx=".433" ry=".438"/><ellipse cx="176.31" cy="137.532" rx=".433" ry=".438"/><ellipse cx="176.31" cy="140.269" rx=".433" ry=".438"/><ellipse cx="176.31" cy="143.006" rx=".433" ry=".438"/><ellipse cx="176.31" cy="145.744" rx=".433" ry=".438"/><ellipse cx="176.31" cy="148.481" rx=".433" ry=".438"/><ellipse cx="178.853" cy="22.567" rx=".433" ry=".438"/><ellipse cx="178.853" cy="25.304" rx=".433" ry=".438"/><ellipse cx="178.853" cy="28.042" rx=".433" ry=".438"/><ellipse cx="178.853" cy="30.779" rx=".433" ry=".438"/><ellipse cx="178.853" cy="33.516" rx=".433" ry=".438"/><ellipse cx="178.853" cy="36.253" rx=".433" ry=".438"/><ellipse cx="178.853" cy="134.795" rx=".433" ry=".438"/><ellipse cx="178.853" cy="137.532" rx=".433" ry=".438"/><ellipse cx="178.853" cy="140.269" rx=".433" ry=".438"/><ellipse cx="178.853" cy="143.006" rx=".433" ry=".438"/><ellipse cx="178.853" cy="145.744" rx=".433" ry=".438"/><ellipse cx="178.853" cy="148.481" rx=".433" ry=".438"/><ellipse cx="181.397" cy="22.567" rx=".433" ry=".438"/><ellipse cx="181.397" cy="25.304" rx=".433" ry=".438"/><ellipse cx="181.397" cy="28.042" rx=".433" ry=".438"/><ellipse cx="181.397" cy="30.779" rx=".433" ry=".438"/><ellipse cx="181.397" cy="33.516" rx=".433" ry=".438"/><ellipse cx="181.397" cy="36.253" rx=".433" ry=".438"/><ellipse cx="181.397" cy="134.795" rx=".433" ry=".438"/><ellipse cx="181.397" cy="137.532" rx=".433" ry=".438"/><ellipse cx="181.397" cy="140.269" rx=".433" ry=".438"/><ellipse cx="181.397" cy="143.006" rx=".433" ry=".438"/><ellipse cx="181.397" cy="145.744" rx=".433" ry=".438"/><ellipse cx="181.397" cy="148.481" rx=".433" ry=".438"/><ellipse cx="183.941" cy="22.567" rx=".433" ry=".438"/><ellipse cx="183.941" cy="25.304" rx=".433" ry=".438"/><ellipse cx="183.941" cy="28.042" rx=".433" ry=".438"/><ellipse cx="183.941" cy="30.779" rx=".433" ry=".438"/><ellipse cx="183.941" cy="33.516" rx=".433" ry=".438"/><ellipse cx="183.941" cy="36.253" rx=".433" ry=".438"/><ellipse cx="183.941" cy="134.795" rx=".433" ry=".438"/><ellipse cx="183.941" cy="137.532" rx=".433" ry=".438"/><ellipse cx="183.941" cy="140.269" rx=".433" ry=".438"/><ellipse cx="183.941" cy="143.006" rx=".433" ry=".438"/><ellipse cx="183.941" cy="145.744" rx=".433" ry=".438"/><ellipse cx="183.941" cy="148.481" rx=".433" ry=".438"/><ellipse cx="186.484" cy="22.567" rx=".433" ry=".438"/><ellipse cx="186.484" cy="25.304" rx=".433" ry=".438"/><ellipse cx="186.484" cy="28.042" rx=".433" ry=".438"/><ellipse cx="186.484" cy="30.779" rx=".433" ry=".438"/><ellipse cx="186.484" cy="33.516" rx=".433" ry=".438"/><ellipse cx="186.484" cy="36.253" rx=".433" ry=".438"/><ellipse cx="186.484" cy="134.795" rx=".433" ry=".438"/><ellipse cx="186.484" cy="137.532" rx=".433" ry=".438"/><ellipse cx="186.484" cy="140.269" rx=".433" ry=".438"/><ellipse cx="186.484" cy="143.006" rx=".433" ry=".438"/><ellipse cx="186.484" cy="145.744" rx=".433" ry=".438"/><ellipse cx="186.484" cy="148.481" rx=".433" ry=".438"/><ellipse cx="189.028" cy="22.567" rx=".433" ry=".438"/><ellipse cx="189.028" cy="25.304" rx=".433" ry=".438"/><ellipse cx="189.028" cy="28.042" rx=".433" ry=".438"/><ellipse cx="189.028" cy="30.779" rx=".433" ry=".438"/><ellipse cx="189.028" cy="33.516" rx=".433" ry=".438"/><ellipse cx="189.028" cy="36.253" rx=".433" ry=".438"/><ellipse cx="189.028" cy="134.795" rx=".433" ry=".438"/><ellipse cx="189.028" cy="137.532" rx=".433" ry=".438"/><ellipse cx="189.028" cy="140.269" rx=".433" ry=".438"/><ellipse cx="189.028" cy="143.006" rx=".433" ry=".438"/><ellipse cx="189.028" cy="145.744" rx=".433" ry=".438"/><ellipse cx="189.028" cy="148.481" rx=".433" ry=".438"/><ellipse cx="191.571" cy="22.567" rx=".433" ry=".438"/><ellipse cx="191.571" cy="25.304" rx=".433" ry=".438"/><ellipse cx="191.571" cy="28.042" rx=".433" ry=".438"/><ellipse cx="191.571" cy="30.779" rx=".433" ry=".438"/><ellipse cx="191.571" cy="33.516" rx=".433" ry=".438"/><ellipse cx="191.571" cy="36.253" rx=".433" ry=".438"/><ellipse cx="191.571" cy="134.795" rx=".433" ry=".438"/><ellipse cx="191.571" cy="137.532" rx=".433" ry=".438"/><ellipse cx="191.571" cy="140.269" rx=".433" ry=".438"/><ellipse cx="191.571" cy="143.006" rx=".433" ry=".438"/><ellipse cx="191.571" cy="145.744" rx=".433" ry=".438"/><ellipse cx="191.571" cy="148.481" rx=".433" ry=".438"/><ellipse cx="194.115" cy="22.567" rx=".433" ry=".438"/><ellipse cx="194.115" cy="25.304" rx=".433" ry=".438"/><ellipse cx="194.115" cy="28.042" rx=".433" ry=".438"/><ellipse cx="194.115" cy="30.779" rx=".433" ry=".438"/><ellipse cx="194.115" cy="33.516" rx=".433" ry=".438"/><ellipse cx="194.115" cy="36.253" rx=".433" ry=".438"/><ellipse cx="194.115" cy="134.795" rx=".433" ry=".438"/><ellipse cx="194.115" cy="137.532" rx=".433" ry=".438"/><ellipse cx="194.115" cy="140.269" rx=".433" ry=".438"/><ellipse cx="194.115" cy="143.006" rx=".433" ry=".438"/><ellipse cx="194.115" cy="145.744" rx=".433" ry=".438"/><ellipse cx="194.115" cy="148.481" rx=".433" ry=".438"/><ellipse cx="196.659" cy="22.567" rx=".433" ry=".438"/><ellipse cx="196.659" cy="25.304" rx=".433" ry=".438"/><ellipse cx="196.659" cy="28.042" rx=".433" ry=".438"/><ellipse cx="196.659" cy="30.779" rx=".433" ry=".438"/><ellipse cx="196.659" cy="33.516" rx=".433" ry=".438"/><ellipse cx="196.659" cy="36.253" rx=".433" ry=".438"/><ellipse cx="196.659" cy="134.795" rx=".433" ry=".438"/><ellipse cx="196.659" cy="137.532" rx=".433" ry=".438"/><ellipse cx="196.659" cy="140.269" rx=".433" ry=".438"/><ellipse cx="196.659" cy="143.006" rx=".433" ry=".438"/><ellipse cx="196.659" cy="145.744" rx=".433" ry=".438"/><ellipse cx="196.659" cy="148.481" rx=".433" ry=".438"/><ellipse cx="199.202" cy="22.567" rx=".433" ry=".438"/><ellipse cx="199.202" cy="25.304" rx=".433" ry=".438"/><ellipse cx="199.202" cy="28.042" rx=".433" ry=".438"/><ellipse cx="199.202" cy="30.779" rx=".433" ry=".438"/><ellipse cx="199.202" cy="33.516" rx=".433" ry=".438"/><ellipse cx="199.202" cy="36.253" rx=".433" ry=".438"/><ellipse cx="199.202" cy="134.795" rx=".433" ry=".438"/><ellipse cx="199.202" cy="137.532" rx=".433" ry=".438"/><ellipse cx="199.202" cy="140.269" rx=".433" ry=".438"/><ellipse cx="199.202" cy="143.006" rx=".433" ry=".438"/><ellipse cx="199.202" cy="145.744" rx=".433" ry=".438"/><ellipse cx="199.202" cy="148.481" rx=".433" ry=".438"/><ellipse cx="201.746" cy="22.567" rx=".433" ry=".438"/><ellipse cx="201.746" cy="25.304" rx=".433" ry=".438"/><ellipse cx="201.746" cy="28.042" rx=".433" ry=".438"/><ellipse cx="201.746" cy="30.779" rx=".433" ry=".438"/><ellipse cx="201.746" cy="33.516" rx=".433" ry=".438"/><ellipse cx="201.746" cy="36.253" rx=".433" ry=".438"/><ellipse cx="201.746" cy="134.795" rx=".433" ry=".438"/><ellipse cx="201.746" cy="137.532" rx=".433" ry=".438"/><ellipse cx="201.746" cy="140.269" rx=".433" ry=".438"/><ellipse cx="201.746" cy="143.006" rx=".433" ry=".438"/><ellipse cx="201.746" cy="145.744" rx=".433" ry=".438"/><ellipse cx="201.746" cy="148.481" rx=".433" ry=".438"/><ellipse cx="204.29" cy="22.567" rx=".433" ry=".438"/><ellipse cx="204.29" cy="25.304" rx=".433" ry=".438"/><ellipse cx="204.29" cy="28.042" rx=".433" ry=".438"/><ellipse cx="204.29" cy="30.779" rx=".433" ry=".438"/><ellipse cx="204.29" cy="33.516" rx=".433" ry=".438"/><ellipse cx="204.29" cy="36.253" rx=".433" ry=".438"/><ellipse cx="204.29" cy="134.795" rx=".433" ry=".438"/><ellipse cx="204.29" cy="137.532" rx=".433" ry=".438"/><ellipse cx="204.29" cy="140.269" rx=".433" ry=".438"/><ellipse cx="204.29" cy="143.006" rx=".433" ry=".438"/><ellipse cx="204.29" cy="145.744" rx=".433" ry=".438"/><ellipse cx="204.29" cy="148.481" rx=".433" ry=".438"/><ellipse cx="206.833" cy="22.567" rx=".433" ry=".438"/><ellipse cx="206.833" cy="25.304" rx=".433" ry=".438"/><ellipse cx="206.833" cy="28.042" rx=".433" ry=".438"/><ellipse cx="206.833" cy="30.779" rx=".433" ry=".438"/><ellipse cx="206.833" cy="33.516" rx=".433" ry=".438"/><ellipse cx="206.833" cy="36.253" rx=".433" ry=".438"/><ellipse cx="206.833" cy="134.795" rx=".433" ry=".438"/><ellipse cx="206.833" cy="137.532" rx=".433" ry=".438"/><ellipse cx="206.833" cy="140.269" rx=".433" ry=".438"/><ellipse cx="206.833" cy="143.006" rx=".433" ry=".438"/><ellipse cx="206.833" cy="145.744" rx=".433" ry=".438"/><ellipse cx="206.833" cy="148.481" rx=".433" ry=".438"/><ellipse cx="209.377" cy="22.567" rx=".433" ry=".438"/><ellipse cx="209.377" cy="25.304" rx=".433" ry=".438"/><ellipse cx="209.377" cy="28.042" rx=".433" ry=".438"/><ellipse cx="209.377" cy="30.779" rx=".433" ry=".438"/><ellipse cx="209.377" cy="33.516" rx=".433" ry=".438"/><ellipse cx="209.377" cy="36.253" rx=".433" ry=".438"/><ellipse cx="209.377" cy="134.795" rx=".433" ry=".438"/><ellipse cx="209.377" cy="137.532" rx=".433" ry=".438"/><ellipse cx="209.377" cy="140.269" rx=".433" ry=".438"/><ellipse cx="209.377" cy="143.006" rx=".433" ry=".438"/><ellipse cx="209.377" cy="145.744" rx=".433" ry=".438"/><ellipse cx="209.377" cy="148.481" rx=".433" ry=".438"/><ellipse cx="211.921" cy="22.567" rx=".433" ry=".438"/><ellipse cx="211.921" cy="25.304" rx=".433" ry=".438"/><ellipse cx="211.921" cy="28.042" rx=".433" ry=".438"/><ellipse cx="211.921" cy="30.779" rx=".433" ry=".438"/><ellipse cx="211.921" cy="33.516" rx=".433" ry=".438"/><ellipse cx="211.921" cy="36.253" rx=".433" ry=".438"/><ellipse cx="211.921" cy="134.795" rx=".433" ry=".438"/><ellipse cx="211.921" cy="137.532" rx=".433" ry=".438"/><ellipse cx="211.921" cy="140.269" rx=".433" ry=".438"/><ellipse cx="211.921" cy="143.006" rx=".433" ry=".438"/><ellipse cx="211.921" cy="145.744" rx=".433" ry=".438"/><ellipse cx="214.464" cy="22.567" rx=".433" ry=".438"/><ellipse cx="214.464" cy="25.304" rx=".433" ry=".438"/><ellipse cx="214.464" cy="28.042" rx=".433" ry=".438"/><ellipse cx="214.464" cy="30.779" rx=".433" ry=".438"/><ellipse cx="214.464" cy="33.516" rx=".433" ry=".438"/><ellipse cx="214.464" cy="36.253" rx=".433" ry=".438"/><ellipse cx="214.464" cy="134.795" rx=".433" ry=".438"/><ellipse cx="214.464" cy="137.532" rx=".433" ry=".438"/><ellipse cx="214.464" cy="140.269" rx=".433" ry=".438"/><ellipse cx="214.464" cy="143.006" rx=".433" ry=".438"/><ellipse cx="214.464" cy="145.744" rx=".433" ry=".438"/><ellipse cx="217.008" cy="22.567" rx=".433" ry=".438"/><ellipse cx="217.008" cy="25.304" rx=".433" ry=".438"/><ellipse cx="217.008" cy="28.042" rx=".433" ry=".438"/><ellipse cx="217.008" cy="30.779" rx=".433" ry=".438"/><ellipse cx="217.008" cy="33.516" rx=".433" ry=".438"/><ellipse cx="217.008" cy="36.253" rx=".433" ry=".438"/><ellipse cx="217.008" cy="134.795" rx=".433" ry=".438"/><ellipse cx="217.008" cy="137.532" rx=".433" ry=".438"/><ellipse cx="217.008" cy="140.269" rx=".433" ry=".438"/><ellipse cx="217.008" cy="143.006" rx=".433" ry=".438"/><ellipse cx="217.008" cy="145.744" rx=".433" ry=".438"/><ellipse cx="219.552" cy="22.567" rx=".433" ry=".438"/><ellipse cx="219.552" cy="25.304" rx=".433" ry=".438"/><ellipse cx="219.552" cy="28.042" rx=".433" ry=".438"/><ellipse cx="219.552" cy="30.779" rx=".433" ry=".438"/><ellipse cx="219.552" cy="33.516" rx=".433" ry=".438"/><ellipse cx="219.552" cy="36.253" rx=".433" ry=".438"/><ellipse cx="219.552" cy="134.795" rx=".433" ry=".438"/><ellipse cx="219.552" cy="137.532" rx=".433" ry=".438"/><ellipse cx="219.552" cy="140.269" rx=".433" ry=".438"/><ellipse cx="219.552" cy="143.006" rx=".433" ry=".438"/><ellipse cx="219.552" cy="145.744" rx=".433" ry=".438"/><ellipse cx="222.095" cy="22.567" rx=".433" ry=".438"/><ellipse cx="222.095" cy="25.304" rx=".433" ry=".438"/><ellipse cx="222.095" cy="28.042" rx=".433" ry=".438"/><ellipse cx="222.095" cy="30.779" rx=".433" ry=".438"/><ellipse cx="222.095" cy="33.516" rx=".433" ry=".438"/><ellipse cx="222.095" cy="36.253" rx=".433" ry=".438"/><ellipse cx="222.095" cy="134.795" rx=".433" ry=".438"/><ellipse cx="222.095" cy="137.532" rx=".433" ry=".438"/><ellipse cx="222.095" cy="140.269" rx=".433" ry=".438"/><ellipse cx="222.095" cy="143.006" rx=".433" ry=".438"/><ellipse cx="222.095" cy="145.744" rx=".433" ry=".438"/><ellipse cx="224.639" cy="22.567" rx=".433" ry=".438"/><ellipse cx="224.639" cy="25.304" rx=".433" ry=".438"/><ellipse cx="224.639" cy="28.042" rx=".433" ry=".438"/><ellipse cx="224.639" cy="30.779" rx=".433" ry=".438"/><ellipse cx="224.639" cy="33.516" rx=".433" ry=".438"/><ellipse cx="224.639" cy="36.253" rx=".433" ry=".438"/><ellipse cx="224.639" cy="134.795" rx=".433" ry=".438"/><ellipse cx="224.639" cy="137.532" rx=".433" ry=".438"/><ellipse cx="224.639" cy="140.269" rx=".433" ry=".438"/><ellipse cx="224.639" cy="143.006" rx=".433" ry=".438"/><ellipse cx="224.639" cy="145.744" rx=".433" ry=".438"/><ellipse cx="227.183" cy="22.567" rx=".433" ry=".438"/><ellipse cx="227.183" cy="25.304" rx=".433" ry=".438"/><ellipse cx="227.183" cy="28.042" rx=".433" ry=".438"/><ellipse cx="227.183" cy="30.779" rx=".433" ry=".438"/><ellipse cx="227.183" cy="33.516" rx=".433" ry=".438"/><ellipse cx="227.183" cy="36.253" rx=".433" ry=".438"/><ellipse cx="227.183" cy="134.795" rx=".433" ry=".438"/><ellipse cx="227.183" cy="137.532" rx=".433" ry=".438"/><ellipse cx="227.183" cy="140.269" rx=".433" ry=".438"/><ellipse cx="227.183" cy="143.006" rx=".433" ry=".438"/><ellipse cx="227.183" cy="145.744" rx=".433" ry=".438"/><ellipse cx="229.726" cy="22.567" rx=".433" ry=".438"/><ellipse cx="229.726" cy="25.304" rx=".433" ry=".438"/><ellipse cx="229.726" cy="28.042" rx=".433" ry=".438"/><ellipse cx="229.726" cy="30.779" rx=".433" ry=".438"/><ellipse cx="229.726" cy="33.516" rx=".433" ry=".438"/><ellipse cx="229.726" cy="36.253" rx=".433" ry=".438"/><ellipse cx="229.726" cy="134.795" rx=".433" ry=".438"/><ellipse cx="229.726" cy="137.532" rx=".433" ry=".438"/><ellipse cx="229.726" cy="140.269" rx=".433" ry=".438"/><ellipse cx="229.726" cy="143.006" rx=".433" ry=".438"/><ellipse cx="232.27" cy="22.567" rx=".433" ry=".438"/><ellipse cx="232.27" cy="25.304" rx=".433" ry=".438"/><ellipse cx="232.27" cy="28.042" rx=".433" ry=".438"/><ellipse cx="232.27" cy="30.779" rx=".433" ry=".438"/><ellipse cx="232.27" cy="33.516" rx=".433" ry=".438"/><ellipse cx="232.27" cy="36.253" rx=".433" ry=".438"/><ellipse cx="232.27" cy="38.991" rx=".433" ry=".438"/><ellipse cx="232.27" cy="134.795" rx=".433" ry=".438"/><ellipse cx="232.27" cy="137.532" rx=".433" ry=".438"/><ellipse cx="232.27" cy="140.269" rx=".433" ry=".438"/><ellipse cx="232.27" cy="143.006" rx=".433" ry=".438"/><ellipse cx="234.813" cy="22.567" rx=".433" ry=".438"/><ellipse cx="234.813" cy="25.304" rx=".433" ry=".438"/><ellipse cx="234.813" cy="28.042" rx=".433" ry=".438"/><ellipse cx="234.813" cy="30.779" rx=".433" ry=".438"/><ellipse cx="234.813" cy="33.516" rx=".433" ry=".438"/><ellipse cx="234.813" cy="36.253" rx=".433" ry=".438"/><ellipse cx="234.813" cy="38.991" rx=".433" ry=".438"/><ellipse cx="234.813" cy="41.728" rx=".433" ry=".438"/><ellipse cx="234.813" cy="44.465" rx=".433" ry=".438"/><ellipse cx="234.813" cy="47.202" rx=".433" ry=".438"/><ellipse cx="234.813" cy="49.94" rx=".433" ry=".438"/><ellipse cx="234.813" cy="52.677" rx=".433" ry=".438"/><ellipse cx="234.813" cy="55.414" rx=".433" ry=".438"/><ellipse cx="234.813" cy="58.151" rx=".433" ry=".438"/><ellipse cx="234.813" cy="60.889" rx=".433" ry=".438"/><ellipse cx="234.813" cy="63.626" rx=".433" ry=".438"/><ellipse cx="234.813" cy="66.363" rx=".433" ry=".438"/><ellipse cx="234.813" cy="69.1" rx=".433" ry=".438"/><ellipse cx="234.813" cy="71.838" rx=".433" ry=".438"/><ellipse cx="234.813" cy="74.575" rx=".433" ry=".438"/><ellipse cx="234.813" cy="77.312" rx=".433" ry=".438"/><ellipse cx="234.813" cy="80.05" rx=".433" ry=".438"/><ellipse cx="234.813" cy="82.787" rx=".433" ry=".438"/><ellipse cx="234.813" cy="85.524" rx=".433" ry=".438"/><ellipse cx="234.813" cy="88.261" rx=".433" ry=".438"/><ellipse cx="234.813" cy="90.999" rx=".433" ry=".438"/><ellipse cx="234.813" cy="93.736" rx=".433" ry=".438"/><ellipse cx="234.813" cy="96.473" rx=".433" ry=".438"/><ellipse cx="234.813" cy="99.21" rx=".433" ry=".438"/><ellipse cx="234.813" cy="101.948" rx=".433" ry=".438"/><ellipse cx="234.813" cy="104.685" rx=".433" ry=".438"/><ellipse cx="234.813" cy="107.422" rx=".433" ry=".438"/><ellipse cx="234.813" cy="110.159" rx=".433" ry=".438"/><ellipse cx="234.813" cy="112.897" rx=".433" ry=".438"/><ellipse cx="234.813" cy="115.634" rx=".433" ry=".438"/><ellipse cx="234.813" cy="118.371" rx=".433" ry=".438"/><ellipse cx="234.813" cy="121.108" rx=".433" ry=".438"/><ellipse cx="234.813" cy="123.846" rx=".433" ry=".438"/><ellipse cx="234.813" cy="126.583" rx=".433" ry=".438"/><ellipse cx="234.813" cy="129.32" rx=".433" ry=".438"/><ellipse cx="234.813" cy="132.057" rx=".433" ry=".438"/><ellipse cx="234.813" cy="134.795" rx=".433" ry=".438"/><ellipse cx="234.813" cy="137.532" rx=".433" ry=".438"/><ellipse cx="234.813" cy="140.269" rx=".433" ry=".438"/><ellipse cx="237.357" cy="22.567" rx=".433" ry=".438"/><ellipse cx="237.357" cy="25.304" rx=".433" ry=".438"/><ellipse cx="237.357" cy="28.042" rx=".433" ry=".438"/><ellipse cx="237.357" cy="30.779" rx=".433" ry=".438"/><ellipse cx="237.357" cy="33.516" rx=".433" ry=".438"/><ellipse cx="237.357" cy="36.253" rx=".433" ry=".438"/><ellipse cx="237.357" cy="38.991" rx=".433" ry=".438"/><ellipse cx="237.357" cy="41.728" rx=".433" ry=".438"/><ellipse cx="237.357" cy="44.465" rx=".433" ry=".438"/><ellipse cx="237.357" cy="47.202" rx=".433" ry=".438"/><ellipse cx="237.357" cy="49.94" rx=".433" ry=".438"/><ellipse cx="237.357" cy="52.677" rx=".433" ry=".438"/><ellipse cx="237.357" cy="55.414" rx=".433" ry=".438"/><ellipse cx="237.357" cy="58.151" rx=".433" ry=".438"/><ellipse cx="237.357" cy="60.889" rx=".433" ry=".438"/><ellipse cx="237.357" cy="63.626" rx=".433" ry=".438"/><ellipse cx="237.357" cy="66.363" rx=".433" ry=".438"/><ellipse cx="237.357" cy="69.1" rx=".433" ry=".438"/><ellipse cx="237.357" cy="71.838" rx=".433" ry=".438"/><ellipse cx="237.357" cy="74.575" rx=".433" ry=".438"/><ellipse cx="237.357" cy="77.312" rx=".433" ry=".438"/><ellipse cx="237.357" cy="80.05" rx=".433" ry=".438"/><ellipse cx="237.357" cy="82.787" rx=".433" ry=".438"/><ellipse cx="237.357" cy="85.524" rx=".433" ry=".438"/><ellipse cx="237.357" cy="88.261" rx=".433" ry=".438"/><ellipse cx="237.357" cy="90.999" rx=".433" ry=".438"/><ellipse cx="237.357" cy="93.736" rx=".433" ry=".438"/><ellipse cx="237.357" cy="96.473" rx=".433" ry=".438"/><ellipse cx="237.357" cy="99.21" rx=".433" ry=".438"/><ellipse cx="237.357" cy="101.948" rx=".433" ry=".438"/><ellipse cx="237.357" cy="104.685" rx=".433" ry=".438"/><ellipse cx="237.357" cy="107.422" rx=".433" ry=".438"/><ellipse cx="237.357" cy="110.159" rx=".433" ry=".438"/><ellipse cx="237.357" cy="112.897" rx=".433" ry=".438"/><ellipse cx="237.357" cy="115.634" rx=".433" ry=".438"/><ellipse cx="237.357" cy="118.371" rx=".433" ry=".438"/><ellipse cx="237.357" cy="121.108" rx=".433" ry=".438"/><ellipse cx="237.357" cy="123.846" rx=".433" ry=".438"/><ellipse cx="237.357" cy="126.583" rx=".433" ry=".438"/><ellipse cx="237.357" cy="129.32" rx=".433" ry=".438"/><ellipse cx="237.357" cy="132.057" rx=".433" ry=".438"/><ellipse cx="237.357" cy="134.795" rx=".433" ry=".438"/><ellipse cx="237.357" cy="137.532" rx=".433" ry=".438"/><ellipse cx="239.901" cy="25.304" rx=".433" ry=".438"/><ellipse cx="239.901" cy="28.042" rx=".433" ry=".438"/><ellipse cx="239.901" cy="30.779" rx=".433" ry=".438"/><ellipse cx="239.901" cy="33.516" rx=".433" ry=".438"/><ellipse cx="239.901" cy="36.253" rx=".433" ry=".438"/><ellipse cx="239.901" cy="38.991" rx=".433" ry=".438"/><ellipse cx="239.901" cy="41.728" rx=".433" ry=".438"/><ellipse cx="239.901" cy="44.465" rx=".433" ry=".438"/><ellipse cx="239.901" cy="47.202" rx=".433" ry=".438"/><ellipse cx="239.901" cy="49.94" rx=".433" ry=".438"/><ellipse cx="239.901" cy="52.677" rx=".433" ry=".438"/><ellipse cx="239.901" cy="55.414" rx=".433" ry=".438"/><ellipse cx="239.901" cy="58.151" rx=".433" ry=".438"/><ellipse cx="239.901" cy="60.889" rx=".433" ry=".438"/><ellipse cx="239.901" cy="63.626" rx=".433" ry=".438"/><ellipse cx="239.901" cy="66.363" rx=".433" ry=".438"/><ellipse cx="239.901" cy="69.1" rx=".433" ry=".438"/><ellipse cx="239.901" cy="71.838" rx=".433" ry=".438"/><ellipse cx="239.901" cy="74.575" rx=".433" ry=".438"/><ellipse cx="239.901" cy="77.312" rx=".433" ry=".438"/><ellipse cx="239.901" cy="80.05" rx=".433" ry=".438"/><ellipse cx="239.901" cy="82.787" rx=".433" ry=".438"/><ellipse cx="239.901" cy="85.524" rx=".433" ry=".438"/><ellipse cx="239.901" cy="88.261" rx=".433" ry=".438"/><ellipse cx="239.901" cy="90.999" rx=".433" ry=".438"/><ellipse cx="239.901" cy="93.736" rx=".433" ry=".438"/><ellipse cx="239.901" cy="96.473" rx=".433" ry=".438"/><ellipse cx="239.901" cy="99.21" rx=".433" ry=".438"/><ellipse cx="239.901" cy="101.948" rx=".433" ry=".438"/><ellipse cx="239.901" cy="104.685" rx=".433" ry=".438"/><ellipse cx="239.901" cy="107.422" rx=".433" ry=".438"/><ellipse cx="239.901" cy="110.159" rx=".433" ry=".438"/><ellipse cx="239.901" cy="112.897" rx=".433" ry=".438"/><ellipse cx="239.901" cy="115.634" rx=".433" ry=".438"/><ellipse cx="239.901" cy="118.371" rx=".433" ry=".438"/><ellipse cx="239.901" cy="121.108" rx=".433" ry=".438"/><ellipse cx="239.901" cy="123.846" rx=".433" ry=".438"/><ellipse cx="239.901" cy="126.583" rx=".433" ry=".438"/><ellipse cx="239.901" cy="129.32" rx=".433" ry=".438"/><ellipse cx="239.901" cy="132.057" rx=".433" ry=".438"/><ellipse cx="239.901" cy="134.795" rx=".433" ry=".438"/><ellipse cx="242.444" cy="28.042" rx=".433" ry=".438"/><ellipse cx="242.444" cy="30.779" rx=".433" ry=".438"/><ellipse cx="242.444" cy="33.516" rx=".433" ry=".438"/><ellipse cx="242.444" cy="36.253" rx=".433" ry=".438"/><ellipse cx="242.444" cy="38.991" rx=".433" ry=".438"/><ellipse cx="242.444" cy="41.728" rx=".433" ry=".438"/><ellipse cx="242.444" cy="44.465" rx=".433" ry=".438"/><ellipse cx="242.444" cy="47.202" rx=".433" ry=".438"/><ellipse cx="242.444" cy="49.94" rx=".433" ry=".438"/><ellipse cx="242.444" cy="52.677" rx=".433" ry=".438"/><ellipse cx="242.444" cy="55.414" rx=".433" ry=".438"/><ellipse cx="242.444" cy="58.151" rx=".433" ry=".438"/><ellipse cx="242.444" cy="60.889" rx=".433" ry=".438"/><ellipse cx="242.444" cy="63.626" rx=".433" ry=".438"/><ellipse cx="242.444" cy="66.363" rx=".433" ry=".438"/><ellipse cx="242.444" cy="69.1" rx=".433" ry=".438"/><ellipse cx="242.444" cy="71.838" rx=".433" ry=".438"/><ellipse cx="242.444" cy="74.575" rx=".433" ry=".438"/><ellipse cx="242.444" cy="77.312" rx=".433" ry=".438"/><ellipse cx="242.444" cy="80.05" rx=".433" ry=".438"/><ellipse cx="242.444" cy="82.787" rx=".433" ry=".438"/><ellipse cx="242.444" cy="85.524" rx=".433" ry=".438"/><ellipse cx="242.444" cy="88.261" rx=".433" ry=".438"/><ellipse cx="242.444" cy="90.999" rx=".433" ry=".438"/><ellipse cx="242.444" cy="93.736" rx=".433" ry=".438"/><ellipse cx="242.444" cy="96.473" rx=".433" ry=".438"/><ellipse cx="242.444" cy="99.21" rx=".433" ry=".438"/><ellipse cx="242.444" cy="101.948" rx=".433" ry=".438"/><ellipse cx="242.444" cy="104.685" rx=".433" ry=".438"/><ellipse cx="242.444" cy="107.422" rx=".433" ry=".438"/><ellipse cx="242.444" cy="110.159" rx=".433" ry=".438"/><ellipse cx="242.444" cy="112.897" rx=".433" ry=".438"/><ellipse cx="242.444" cy="115.634" rx=".433" ry=".438"/><ellipse cx="242.444" cy="118.371" rx=".433" ry=".438"/><ellipse cx="242.444" cy="121.108" rx=".433" ry=".438"/><ellipse cx="242.444" cy="123.846" rx=".433" ry=".438"/><ellipse cx="242.444" cy="126.583" rx=".433" ry=".438"/><ellipse cx="242.444" cy="129.32" rx=".433" ry=".438"/><ellipse cx="244.988" cy="38.988" rx=".434" ry=".438"/><ellipse cx="244.988" cy="41.725" rx=".434" ry=".438"/><ellipse cx="244.988" cy="44.462" rx=".434" ry=".438"/><ellipse cx="244.988" cy="47.2" rx=".434" ry=".438"/><ellipse cx="244.988" cy="49.937" rx=".434" ry=".438"/><ellipse cx="244.988" cy="52.674" rx=".434" ry=".438"/><ellipse cx="244.988" cy="36.256" rx=".433" ry=".438"/><ellipse cx="74.677" cy="36.145" rx=".433" ry=".438"/></g><path d="m228.975 133.457h-138.283c-2.016 0-3.65-1.634-3.65-3.65v-87.742c0-2.016 1.634-3.65 3.65-3.65h138.283c2.016 0 3.65 1.634 3.65 3.65v87.741c0 2.017-1.634 3.651-3.65 3.651z" fill="#becbbb"/><path d="m169.265 30.117.258-.067h2.595c.254 0 .493.112.655.307.02.024.044.051.061.077.17-.235.445-.384.753-.384h9.296 4.345l-1.113 1.291h-1.052l-.294 1.657-1.65.876.04-.222h-5.292s-.811-1.261-.811-1.262l-.151 1.262h-3.703c-.135 0-.267-.032-.384-.092l-.368.092h-2.595c-.254 0-.493-.112-.655-.307-.15-.18-.219-.41-.193-.64-.094.043-.199.067-.309.067h-1.678l-.113.797-1.78.829.296-1.626h-2.089l1.344-1.308h1.017l.055-.327-.734-1.089h3.954c.101 0 .198.022.287.063" fill="#454640"/><path d="m187.903 33.654c-.25 0-.485-.11-.646-.3-.162-.191-.231-.441-.19-.687l.306-1.84c.075-.45.461-.777.916-.777h6.582l-.538 2.564 1.502-2.564h1.739l.693 2.536s.404-2.536.404-2.536h1.409l-.365 2.296.698.007.185.473s.442-2.775.442-2.775h1.409l-.365 2.296.698.007.168.428s.295-2.731.295-2.731h4.505l.957 1.284.29-2.042 1.619-.778-.235 1.702c.151-.105.335-.166.532-.166h5.707l.821-3.621h2.731l-2.307 5.308.113.203h.739l2.119-1.592 2.355-3.242 1.751-.678h6.337l-2.864 1.94h-2.329s-.93.455-.93.455c.043-.001.085-.002.128-.002.631 0 1.096.161 1.383.481.161.179.257.377.285.59.05.38-.137.676-.217.801-.193.301-.438.454-.721.631-.211.131-.381.21-.419.227-.27.123-.727.35-1.362.678h1.307c.197 0 .336-.183.403-.27l.078-.103.148-.024h.545l-.825 1.823h-12.86l.018-.166c-.159.107-.349.166-.561.166h-1.959c-.221 0-.431-.086-.588-.237l-.033.237h-1.5l-.784-1.015-.276 1.474-1.813.901.276-1.36h-8.984l-.181-.783h-.714l-.404.783h-2.932l.162-.773h-1.067l-.162.773h-3.624z" fill="#454640"/><path d="m168.97 30.312h-3.462l.517.768-.109.648h-1.133l-.806.784h1.759l-.261 1.438 1.193-.555.125-.882h1.905c.233 0 .432-.169.47-.398l.217-1.311c.043-.258-.155-.492-.415-.492zm-.388.94-.033.235c-.02.144-.144.252-.29.252h-1.374l.109-.653h1.444c.089-.001.157.078.144.166z" fill="#ba4f53"/><path d="m176.956 31.082h-2.729c-.193 0-.358.118-.39.279l-.182.92c-.035.179.128.341.343.341h1.052l.41.77h-2.258c-.362 0-.638-.325-.578-.682l.306-1.84c.054-.322.332-.558.658-.558h3.984z" fill="#ba4f53"/><path d="m172.7 31.01c.066-.363-.212-.698-.582-.698h-2.595c.02.025.045.063.063.113.033.088.028.167.022.208-.072.59-.336 2.061-.336 2.061-.066.363.212.698.582.698h2.595c-.02-.025-.045-.063-.063-.113-.033-.088-.028-.167-.022-.208.072-.59.336-2.061.336-2.061zm-.828.372-.17 1.024c-.02.123-.127.214-.252.214h-1.097c-.158 0-.278-.142-.252-.298l.17-1.024c.02-.123.127-.214.252-.214h1.097c.158 0 .278.142.252.298z" fill="#ba4f53"/><path d="m176.673 33.392h-1.005l.244-2.038h1.005z" fill="#ba4f53"/><path d="m177.019 31.852.991 1.54h1.291l-.991-1.54 1.312-1.54h-1.29z" fill="#ba4f53"/><path d="m180.515 32.616h1.961l.43.776h-3.409l.332-3.08h3.012l-.477.765h-1.682l-.045.411h1.572l-.354.659h-1.289z" fill="#ba4f53"/><path d="m182.566 31.08.465-.768h3.627l-.662.768h-1.151l-.311 1.748-1.062.564.417-2.312z" fill="#ba4f53"/><path d="m191.807 31.082h-2.879c-.193 0-.358.118-.39.279l-.182.92c-.035.179.128.341.343.341h1.052l.41.77h-2.258c-.362 0-.638-.325-.578-.682l.306-1.84c.054-.322.332-.558.658-.558h4.134z" fill="#ba4f53"/><path d="m204.165 32.616h1.394l.43.776h-2.843l.332-3.08h3.012l-.477.765h-1.682l-.045.411h1.572l-.354.659h-1.289z" fill="#ba4f53"/><path d="m214.337 32.616h1.859l.431.776h-3.309l.333-3.08h3.477l-.477.765h-2.148l-.045.411h1.572l-.354.659h-1.289z" fill="#ba4f53"/><path d="m191.662 31.73.084-.4h-.988l-.433 2.062h.988l.162-.773h1.601l-.162.773h.988l.647-3.08h-.988l-.298 1.418z" fill="#ba4f53"/><path d="m197.374 30.312h-1.389l-1.805 3.079h1.184l.404-.783h1.082l.18.783h1.184zm-1.293 1.691.436-.844.195.844z" fill="#ba4f53"/><path d="m199.408 32.605.825.008.305.779h-2.135l.49-3.08h.88z" fill="#ba4f53"/><path d="m201.777 32.605.825.008.305.779h-2.135l.49-3.08h.879z" fill="#ba4f53"/><path d="m206.751 30.312-.858 4.229 1.217-.605.36-1.919 1.062 1.375h1.143l.613-4.43-1.054.506-.359 2.532-1.258-1.688z" fill="#ba4f53"/><path d="m212.372 32.196c0 .235-.191.426-.426.426h-.626c-.215 0-.378-.163-.343-.341l.182-.92c.032-.161.197-.279.39-.279h2.729l.616-.77h-3.984c-.326 0-.605.236-.658.558l-.306 1.84c-.059.357.216.682.578.682h1.96c.482 0 .758-.389.791-.873l.082-1.101h-1.242l-.463.594h.72z" fill="#ba4f53"/><path d="m221.936 30.816h1.895c-.013-.014-.172-.181-.123-.384.037-.154.171-.233.233-.27.078-.046.142-.06.249-.082.049-.01.246-.048.519-.014.217.027.273.074.294.092.013.011.096.09.103.204.002.033.002.163-.194.331-.544.465-2.681 1.29-2.945 1.394 0 0-.261.102-.647.321-.36.205-.469.313-.543.408-.153.198-.207.439-.229.575h5.171l.588-1.299h-.139c-.066.083-.275.398-.629.398-.133 0-.225 0-.327 0h-2.05c1.252-.657 1.96-1.012 2.32-1.176.028-.013.191-.087.392-.212.269-.168.478-.299.637-.547.07-.11.218-.341.18-.629-.031-.239-.174-.398-.221-.449-.643-.716-2.338-.247-2.516-.196-.207.059-.473.133-.792.31-.592.328-1.044.958-1.226 1.225z" fill="#ba4f53"/><path d="m221.438 31.126h1.168l-.392.498c-.407.132-1.826.633-1.973 1.601-.008.054-.012.109-.012.166h-3.101l-.732-1.19 1.252-5.511h2.124l-2.2 5.06.25.451h.98l2.189-1.645 2.363-3.235 1.634-.632h5.435l-2.091 1.416h-2.309l-1.514.741c-.334.025-1.645.16-2.508 1.225-.267.332-.467.776-.563 1.055z" fill="#ba4f53"/><circle cx="271.26" cy="26.888" fill="#161618" r="1.583"/><circle cx="281.323" cy="26.888" fill="#161618" r="1.583"/><circle cx="266.229" cy="32.304" fill="#161618" r="1.583"/><circle cx="276.292" cy="32.304" fill="#161618" r="1.583"/><circle cx="286.354" cy="32.304" fill="#161618" r="1.583"/><circle cx="261.198" cy="37.721" fill="#161618" r="1.583"/><circle cx="271.26" cy="37.721" fill="#161618" r="1.583"/><circle cx="281.323" cy="37.721" fill="#161618" r="1.583"/><circle cx="291.385" cy="37.721" fill="#161618" r="1.583"/><circle cx="266.229" cy="43.137" fill="#161618" r="1.583"/><circle cx="276.292" cy="43.137" fill="#161618" r="1.583"/><circle cx="286.354" cy="43.137" fill="#161618" r="1.583"/><circle cx="261.198" cy="48.554" fill="#161618" r="1.583"/><circle cx="271.26" cy="48.554" fill="#161618" r="1.583"/><circle cx="281.323" cy="48.554" fill="#161618" r="1.583"/><circle cx="291.385" cy="48.554" fill="#161618" r="1.583"/><circle cx="266.229" cy="53.971" fill="#161618" r="1.583"/><circle cx="276.292" cy="53.971" fill="#161618" r="1.583"/><circle cx="286.354" cy="53.971" fill="#161618" r="1.583"/><circle cx="271.26" cy="59.387" fill="#161618" r="1.583"/><circle cx="281.323" cy="59.387" fill="#161618" r="1.583"/><circle cx="256.167" cy="26.888" fill="#2e2f41" r="1.583"/><circle cx="261.198" cy="26.888" fill="#2e2f41" r="1.583"/><circle cx="266.229" cy="26.888" fill="#2e2f41" r="1.583"/><circle cx="276.292" cy="26.888" fill="#2e2f41" r="1.583"/><circle cx="286.354" cy="26.888" fill="#2e2f41" r="1.583"/><circle cx="291.385" cy="26.888" fill="#2e2f41" r="1.583"/><circle cx="256.167" cy="32.304" fill="#2e2f41" r="1.583"/><circle cx="261.198" cy="32.304" fill="#2e2f41" r="1.583"/><circle cx="271.26" cy="32.304" fill="#2e2f41" r="1.583"/><circle cx="281.323" cy="32.304" fill="#2e2f41" r="1.583"/><circle cx="291.385" cy="32.304" fill="#2e2f41" r="1.583"/><circle cx="256.167" cy="37.721" fill="#2e2f41" r="1.583"/><circle cx="266.229" cy="37.721" fill="#2e2f41" r="1.583"/><circle cx="276.292" cy="37.721" fill="#2e2f41" r="1.583"/><circle cx="286.354" cy="37.721" fill="#2e2f41" r="1.583"/><circle cx="256.167" cy="43.137" fill="#2e2f41" r="1.583"/><circle cx="261.198" cy="43.137" fill="#2e2f41" r="1.583"/><circle cx="271.26" cy="43.137" fill="#2e2f41" r="1.583"/><circle cx="281.323" cy="43.137" fill="#2e2f41" r="1.583"/><circle cx="291.385" cy="43.137" fill="#2e2f41" r="1.583"/><circle cx="256.167" cy="48.554" fill="#2e2f41" r="1.583"/><circle cx="266.229" cy="48.554" fill="#2e2f41" r="1.583"/><circle cx="276.292" cy="48.554" fill="#2e2f41" r="1.583"/><circle cx="286.354" cy="48.554" fill="#2e2f41" r="1.583"/><circle cx="256.167" cy="53.971" fill="#2e2f41" r="1.583"/><circle cx="261.198" cy="53.971" fill="#2e2f41" r="1.583"/><circle cx="271.26" cy="53.971" fill="#2e2f41" r="1.583"/><circle cx="281.323" cy="53.971" fill="#2e2f41" r="1.583"/><circle cx="291.385" cy="53.971" fill="#2e2f41" r="1.583"/><circle cx="256.167" cy="59.387" fill="#2e2f41" r="1.583"/><circle cx="261.198" cy="59.387" fill="#2e2f41" r="1.583"/><circle cx="266.229" cy="59.387" fill="#2e2f41" r="1.583"/><circle cx="276.292" cy="59.387" fill="#2e2f41" r="1.583"/><circle cx="286.354" cy="59.387" fill="#2e2f41" r="1.583"/><circle cx="291.385" cy="59.387" fill="#2e2f41" r="1.583"/><circle cx="256.167" cy="64.804" fill="#2e2f41" r="1.583"/><circle cx="261.198" cy="64.804" fill="#2e2f41" r="1.583"/><circle cx="266.229" cy="64.804" fill="#2e2f41" r="1.583"/><circle cx="271.26" cy="64.804" fill="#2e2f41" r="1.583"/><circle cx="276.292" cy="64.804" fill="#2e2f41" r="1.583"/><circle cx="281.323" cy="64.804" fill="#2e2f41" r="1.583"/><circle cx="286.354" cy="64.804" fill="#2e2f41" r="1.583"/><circle cx="291.385" cy="64.804" fill="#2e2f41" r="1.583"/><circle cx="281.323" cy="70.22" fill="#2e2f41" r="1.583"/><circle cx="286.354" cy="70.22" fill="#2e2f41" r="1.583"/><circle cx="291.385" cy="70.22" fill="#2e2f41" r="1.583"/><circle cx="281.323" cy="75.637" fill="#2e2f41" r="1.583"/><circle cx="286.354" cy="75.637" fill="#2e2f41" r="1.583"/><circle cx="291.385" cy="75.637" fill="#2e2f41" r="1.583"/><circle cx="281.323" cy="81.053" fill="#2e2f41" r="1.583"/><circle cx="286.354" cy="81.053" fill="#2e2f41" r="1.583"/><circle cx="291.385" cy="81.053" fill="#2e2f41" r="1.583"/><circle cx="296.416" cy="26.888" fill="#2e2f41" r="1.583"/><circle cx="296.416" cy="32.304" fill="#2e2f41" r="1.583"/><circle cx="296.416" cy="37.721" fill="#2e2f41" r="1.583"/><circle cx="296.416" cy="43.137" fill="#2e2f41" r="1.583"/><circle cx="296.416" cy="48.554" fill="#2e2f41" r="1.583"/><circle cx="296.416" cy="53.971" fill="#2e2f41" r="1.583"/><circle cx="296.416" cy="59.387" fill="#2e2f41" r="1.583"/><circle cx="296.416" cy="64.804" fill="#2e2f41" r="1.583"/><circle cx="296.416" cy="70.22" fill="#2e2f41" r="1.583"/><circle cx="296.416" cy="75.637" fill="#2e2f41" r="1.583"/><circle cx="296.416" cy="81.053" fill="#2e2f41" r="1.583"/><path d="m55.586 3.5h-4.235c-.159 0-.289-.129-.289-.289v-.797c0-.159.129-.289.289-.289h4.235c.159 0 .289.129.289.289v.798c0 .159-.129.288-.289.288z" fill="#d8d8bf"/></svg>