<svg enable-background="new 0 0 160.75 108.053" viewBox="0 0 160.75 108.053" xmlns="http://www.w3.org/2000/svg" xmlns:xlink="http://www.w3.org/1999/xlink"><pattern id="a" height="16.1" overflow="visible" patternUnits="userSpaceOnUse" viewBox="0 -16.1 16.1 16.1" width="16.1" x="-415.888" y="-162.447"><path d="m0-16.1h16.1v16.1h-16.1z" fill="none"/><circle cx=".243" cy="-15.857" fill="#c4bab9" r=".243"/><circle cx="1.01" cy="-15.857" fill="#c4bab9" r=".243"/><circle cx="1.776" cy="-15.857" fill="#c4bab9" r=".243"/><circle cx="2.543" cy="-15.857" fill="#c4bab9" r=".243"/><circle cx="3.31" cy="-15.857" fill="#c4bab9" r=".243"/><circle cx="4.076" cy="-15.857" fill="#c4bab9" r=".243"/><circle cx=".243" cy="-15.09" fill="#c4bab9" r=".243"/><circle cx="1.01" cy="-15.09" fill="#c4bab9" r=".243"/><circle cx="1.776" cy="-15.09" fill="#c4bab9" r=".243"/><circle cx="2.543" cy="-15.09" fill="#c4bab9" r=".243"/><circle cx="3.31" cy="-15.09" fill="#c4bab9" r=".243"/><circle cx="4.076" cy="-15.09" fill="#c4bab9" r=".243"/><circle cx=".243" cy="-14.324" fill="#c4bab9" r=".243"/><circle cx="1.01" cy="-14.324" fill="#c4bab9" r=".243"/><circle cx="1.776" cy="-14.324" fill="#c4bab9" r=".243"/><circle cx="2.543" cy="-14.324" fill="#c4bab9" r=".243"/><circle cx="3.31" cy="-14.324" fill="#c4bab9" r=".243"/><circle cx="4.076" cy="-14.324" fill="#c4bab9" r=".243"/><circle cx=".243" cy="-13.557" fill="#c4bab9" r=".243"/><circle cx="1.01" cy="-13.557" fill="#c4bab9" r=".243"/><circle cx="1.776" cy="-13.557" fill="#c4bab9" r=".243"/><circle cx="2.543" cy="-13.557" fill="#c4bab9" r=".243"/><circle cx="3.31" cy="-13.557" fill="#c4bab9" r=".243"/><circle cx="4.076" cy="-13.557" fill="#c4bab9" r=".243"/><circle cx=".243" cy="-12.79" fill="#c4bab9" r=".243"/><circle cx="1.01" cy="-12.79" fill="#c4bab9" r=".243"/><circle cx="1.776" cy="-12.79" fill="#c4bab9" r=".243"/><circle cx="2.543" cy="-12.79" fill="#c4bab9" r=".243"/><circle cx="3.31" cy="-12.79" fill="#c4bab9" r=".243"/><circle cx="4.076" cy="-12.79" fill="#c4bab9" r=".243"/><circle cx=".243" cy="-12.79" fill="#c4bab9" r=".243"/><circle cx="1.01" cy="-12.79" fill="#c4bab9" r=".243"/><circle cx="1.776" cy="-12.79" fill="#c4bab9" r=".243"/><circle cx="2.543" cy="-12.79" fill="#c4bab9" r=".243"/><circle cx="3.31" cy="-12.79" fill="#c4bab9" r=".243"/><circle cx="4.076" cy="-12.79" fill="#c4bab9" r=".243"/><circle cx=".243" cy="-12.024" fill="#c4bab9" r=".243"/><circle cx="1.01" cy="-12.024" fill="#c4bab9" r=".243"/><circle cx="1.776" cy="-12.024" fill="#c4bab9" r=".243"/><circle cx="2.543" cy="-12.024" fill="#c4bab9" r=".243"/><circle cx="3.31" cy="-12.024" fill="#c4bab9" r=".243"/><circle cx="4.076" cy="-12.024" fill="#c4bab9" r=".243"/><circle cx="4.843" cy="-15.857" fill="#c4bab9" r=".243"/><circle cx="5.61" cy="-15.857" fill="#c4bab9" r=".243"/><circle cx="6.376" cy="-15.857" fill="#c4bab9" r=".243"/><circle cx="7.143" cy="-15.857" fill="#c4bab9" r=".243"/><circle cx="7.91" cy="-15.857" fill="#c4bab9" r=".243"/><circle cx="4.843" cy="-15.09" fill="#c4bab9" r=".243"/><circle cx="5.61" cy="-15.09" fill="#c4bab9" r=".243"/><circle cx="6.376" cy="-15.09" fill="#c4bab9" r=".243"/><circle cx="7.143" cy="-15.09" fill="#c4bab9" r=".243"/><circle cx="7.91" cy="-15.09" fill="#c4bab9" r=".243"/><circle cx="4.843" cy="-14.324" fill="#c4bab9" r=".243"/><circle cx="5.61" cy="-14.324" fill="#c4bab9" r=".243"/><circle cx="6.376" cy="-14.324" fill="#c4bab9" r=".243"/><circle cx="7.143" cy="-14.324" fill="#c4bab9" r=".243"/><circle cx="7.91" cy="-14.324" fill="#c4bab9" r=".243"/><circle cx="4.843" cy="-13.557" fill="#c4bab9" r=".243"/><circle cx="5.61" cy="-13.557" fill="#c4bab9" r=".243"/><circle cx="6.376" cy="-13.557" fill="#c4bab9" r=".243"/><circle cx="7.143" cy="-13.557" fill="#c4bab9" r=".243"/><circle cx="7.91" cy="-13.557" fill="#c4bab9" r=".243"/><circle cx="4.076" cy="-12.79" fill="#c4bab9" r=".243"/><circle cx="4.843" cy="-12.79" fill="#c4bab9" r=".243"/><circle cx="5.61" cy="-12.79" fill="#c4bab9" r=".243"/><circle cx="6.376" cy="-12.79" fill="#c4bab9" r=".243"/><circle cx="7.143" cy="-12.79" fill="#c4bab9" r=".243"/><circle cx="7.91" cy="-12.79" fill="#c4bab9" r=".243"/><circle cx="4.843" cy="-12.79" fill="#c4bab9" r=".243"/><circle cx="5.61" cy="-12.79" fill="#c4bab9" r=".243"/><circle cx="6.376" cy="-12.79" fill="#c4bab9" r=".243"/><circle cx="7.143" cy="-12.79" fill="#c4bab9" r=".243"/><circle cx="7.91" cy="-12.79" fill="#c4bab9" r=".243"/><circle cx=".243" cy="-11.257" fill="#c4bab9" r=".243"/><circle cx="1.01" cy="-11.257" fill="#c4bab9" r=".243"/><circle cx="1.776" cy="-11.257" fill="#c4bab9" r=".243"/><circle cx="2.543" cy="-11.257" fill="#c4bab9" r=".243"/><circle cx="3.31" cy="-11.257" fill="#c4bab9" r=".243"/><circle cx="4.076" cy="-11.257" fill="#c4bab9" r=".243"/><circle cx=".243" cy="-10.49" fill="#c4bab9" r=".243"/><circle cx="1.01" cy="-10.49" fill="#c4bab9" r=".243"/><circle cx="1.776" cy="-10.49" fill="#c4bab9" r=".243"/><circle cx="2.543" cy="-10.49" fill="#c4bab9" r=".243"/><circle cx="3.31" cy="-10.49" fill="#c4bab9" r=".243"/><circle cx="4.076" cy="-10.49" fill="#c4bab9" r=".243"/><circle cx=".243" cy="-9.724" fill="#c4bab9" r=".243"/><circle cx="1.01" cy="-9.724" fill="#c4bab9" r=".243"/><circle cx="1.776" cy="-9.724" fill="#c4bab9" r=".243"/><circle cx="2.543" cy="-9.724" fill="#c4bab9" r=".243"/><circle cx="3.31" cy="-9.724" fill="#c4bab9" r=".243"/><circle cx="4.076" cy="-9.724" fill="#c4bab9" r=".243"/><circle cx=".243" cy="-8.957" fill="#c4bab9" r=".243"/><circle cx="1.01" cy="-8.957" fill="#c4bab9" r=".243"/><circle cx="1.776" cy="-8.957" fill="#c4bab9" r=".243"/><circle cx="2.543" cy="-8.957" fill="#c4bab9" r=".243"/><circle cx="3.31" cy="-8.957" fill="#c4bab9" r=".243"/><circle cx="4.076" cy="-8.957" fill="#c4bab9" r=".243"/><circle cx=".243" cy="-8.957" fill="#c4bab9" r=".243"/><circle cx="1.01" cy="-8.957" fill="#c4bab9" r=".243"/><circle cx="1.776" cy="-8.957" fill="#c4bab9" r=".243"/><circle cx="2.543" cy="-8.957" fill="#c4bab9" r=".243"/><circle cx="3.31" cy="-8.957" fill="#c4bab9" r=".243"/><circle cx="4.076" cy="-8.957" fill="#c4bab9" r=".243"/><circle cx="4.843" cy="-12.024" fill="#c4bab9" r=".243"/><circle cx="5.61" cy="-12.024" fill="#c4bab9" r=".243"/><circle cx="6.376" cy="-12.024" fill="#c4bab9" r=".243"/><circle cx="7.143" cy="-12.024" fill="#c4bab9" r=".243"/><circle cx="7.91" cy="-12.024" fill="#c4bab9" r=".243"/><circle cx="4.843" cy="-11.257" fill="#c4bab9" r=".243"/><circle cx="5.61" cy="-11.257" fill="#c4bab9" r=".243"/><circle cx="6.376" cy="-11.257" fill="#c4bab9" r=".243"/><circle cx="7.143" cy="-11.257" fill="#c4bab9" r=".243"/><circle cx="7.91" cy="-11.257" fill="#c4bab9" r=".243"/><circle cx="4.843" cy="-10.49" fill="#c4bab9" r=".243"/><circle cx="5.61" cy="-10.49" fill="#c4bab9" r=".243"/><circle cx="6.376" cy="-10.49" fill="#c4bab9" r=".243"/><circle cx="7.143" cy="-10.49" fill="#c4bab9" r=".243"/><circle cx="7.91" cy="-10.49" fill="#c4bab9" r=".243"/><circle cx="4.843" cy="-9.724" fill="#c4bab9" r=".243"/><circle cx="5.61" cy="-9.724" fill="#c4bab9" r=".243"/><circle cx="6.376" cy="-9.724" fill="#c4bab9" r=".243"/><circle cx="7.143" cy="-9.724" fill="#c4bab9" r=".243"/><circle cx="7.91" cy="-9.724" fill="#c4bab9" r=".243"/><circle cx="4.076" cy="-8.957" fill="#c4bab9" r=".243"/><circle cx="4.843" cy="-8.957" fill="#c4bab9" r=".243"/><circle cx="5.61" cy="-8.957" fill="#c4bab9" r=".243"/><circle cx="6.376" cy="-8.957" fill="#c4bab9" r=".243"/><circle cx="7.143" cy="-8.957" fill="#c4bab9" r=".243"/><circle cx="7.91" cy="-8.957" fill="#c4bab9" r=".243"/><circle cx="4.843" cy="-8.957" fill="#c4bab9" r=".243"/><circle cx="5.61" cy="-8.957" fill="#c4bab9" r=".243"/><circle cx="6.376" cy="-8.957" fill="#c4bab9" r=".243"/><circle cx="7.143" cy="-8.957" fill="#c4bab9" r=".243"/><circle cx="7.91" cy="-8.957" fill="#c4bab9" r=".243"/><circle cx=".243" cy="-8.19" fill="#c4bab9" r=".243"/><circle cx="1.01" cy="-8.19" fill="#c4bab9" r=".243"/><circle cx="1.776" cy="-8.19" fill="#c4bab9" r=".243"/><circle cx="2.543" cy="-8.19" fill="#c4bab9" r=".243"/><circle cx="3.31" cy="-8.19" fill="#c4bab9" r=".243"/><circle cx="4.076" cy="-8.19" fill="#c4bab9" r=".243"/><circle cx="4.843" cy="-8.19" fill="#c4bab9" r=".243"/><circle cx="5.61" cy="-8.19" fill="#c4bab9" r=".243"/><circle cx="6.376" cy="-8.19" fill="#c4bab9" r=".243"/><circle cx="7.143" cy="-8.19" fill="#c4bab9" r=".243"/><circle cx="7.91" cy="-8.19" fill="#c4bab9" r=".243"/><circle cx="8.676" cy="-15.857" fill="#c4bab9" r=".243"/><circle cx="9.443" cy="-15.857" fill="#c4bab9" r=".243"/><circle cx="10.21" cy="-15.857" fill="#c4bab9" r=".243"/><circle cx="10.976" cy="-15.857" fill="#c4bab9" r=".243"/><circle cx="11.743" cy="-15.857" fill="#c4bab9" r=".243"/><circle cx="8.676" cy="-15.09" fill="#c4bab9" r=".243"/><circle cx="9.443" cy="-15.09" fill="#c4bab9" r=".243"/><circle cx="10.21" cy="-15.09" fill="#c4bab9" r=".243"/><circle cx="10.976" cy="-15.09" fill="#c4bab9" r=".243"/><circle cx="11.743" cy="-15.09" fill="#c4bab9" r=".243"/><circle cx="8.676" cy="-14.324" fill="#c4bab9" r=".243"/><circle cx="9.443" cy="-14.324" fill="#c4bab9" r=".243"/><circle cx="10.21" cy="-14.324" fill="#c4bab9" r=".243"/><circle cx="10.976" cy="-14.324" fill="#c4bab9" r=".243"/><circle cx="11.743" cy="-14.324" fill="#c4bab9" r=".243"/><circle cx="8.676" cy="-13.557" fill="#c4bab9" r=".243"/><circle cx="9.443" cy="-13.557" fill="#c4bab9" r=".243"/><circle cx="10.21" cy="-13.557" fill="#c4bab9" r=".243"/><circle cx="10.976" cy="-13.557" fill="#c4bab9" r=".243"/><circle cx="11.743" cy="-13.557" fill="#c4bab9" r=".243"/><circle cx="7.91" cy="-12.79" fill="#c4bab9" r=".243"/><circle cx="8.676" cy="-12.79" fill="#c4bab9" r=".243"/><circle cx="9.443" cy="-12.79" fill="#c4bab9" r=".243"/><circle cx="10.21" cy="-12.79" fill="#c4bab9" r=".243"/><circle cx="10.976" cy="-12.79" fill="#c4bab9" r=".243"/><circle cx="11.743" cy="-12.79" fill="#c4bab9" r=".243"/><circle cx="8.676" cy="-12.79" fill="#c4bab9" r=".243"/><circle cx="9.443" cy="-12.79" fill="#c4bab9" r=".243"/><circle cx="10.21" cy="-12.79" fill="#c4bab9" r=".243"/><circle cx="10.976" cy="-12.79" fill="#c4bab9" r=".243"/><circle cx="11.743" cy="-12.79" fill="#c4bab9" r=".243"/><circle cx="8.676" cy="-12.024" fill="#c4bab9" r=".243"/><circle cx="9.443" cy="-12.024" fill="#c4bab9" r=".243"/><circle cx="10.21" cy="-12.024" fill="#c4bab9" r=".243"/><circle cx="10.976" cy="-12.024" fill="#c4bab9" r=".243"/><circle cx="11.743" cy="-12.024" fill="#c4bab9" r=".243"/><circle cx="12.51" cy="-15.857" fill="#c4bab9" r=".243"/><circle cx="13.276" cy="-15.857" fill="#c4bab9" r=".243"/><circle cx="14.043" cy="-15.857" fill="#c4bab9" r=".243"/><circle cx="14.81" cy="-15.857" fill="#c4bab9" r=".243"/><circle cx="15.576" cy="-15.857" fill="#c4bab9" r=".243"/><circle cx="12.51" cy="-15.09" fill="#c4bab9" r=".243"/><circle cx="13.276" cy="-15.09" fill="#c4bab9" r=".243"/><circle cx="14.043" cy="-15.09" fill="#c4bab9" r=".243"/><circle cx="14.81" cy="-15.09" fill="#c4bab9" r=".243"/><circle cx="15.576" cy="-15.09" fill="#c4bab9" r=".243"/><circle cx="12.51" cy="-14.324" fill="#c4bab9" r=".243"/><circle cx="13.276" cy="-14.324" fill="#c4bab9" r=".243"/><circle cx="14.043" cy="-14.324" fill="#c4bab9" r=".243"/><circle cx="14.81" cy="-14.324" fill="#c4bab9" r=".243"/><circle cx="15.576" cy="-14.324" fill="#c4bab9" r=".243"/><circle cx="12.51" cy="-13.557" fill="#c4bab9" r=".243"/><circle cx="13.276" cy="-13.557" fill="#c4bab9" r=".243"/><circle cx="14.043" cy="-13.557" fill="#c4bab9" r=".243"/><circle cx="14.81" cy="-13.557" fill="#c4bab9" r=".243"/><circle cx="15.576" cy="-13.557" fill="#c4bab9" r=".243"/><circle cx="11.743" cy="-12.79" fill="#c4bab9" r=".243"/><circle cx="12.51" cy="-12.79" fill="#c4bab9" r=".243"/><circle cx="13.276" cy="-12.79" fill="#c4bab9" r=".243"/><circle cx="14.043" cy="-12.79" fill="#c4bab9" r=".243"/><circle cx="14.81" cy="-12.79" fill="#c4bab9" r=".243"/><circle cx="15.576" cy="-12.79" fill="#c4bab9" r=".243"/><circle cx="12.51" cy="-12.79" fill="#c4bab9" r=".243"/><circle cx="13.276" cy="-12.79" fill="#c4bab9" r=".243"/><circle cx="14.043" cy="-12.79" fill="#c4bab9" r=".243"/><circle cx="14.81" cy="-12.79" fill="#c4bab9" r=".243"/><circle cx="15.576" cy="-12.79" fill="#c4bab9" r=".243"/><circle cx="8.676" cy="-11.257" fill="#c4bab9" r=".243"/><circle cx="9.443" cy="-11.257" fill="#c4bab9" r=".243"/><circle cx="10.21" cy="-11.257" fill="#c4bab9" r=".243"/><circle cx="10.976" cy="-11.257" fill="#c4bab9" r=".243"/><circle cx="11.743" cy="-11.257" fill="#c4bab9" r=".243"/><circle cx="8.676" cy="-10.49" fill="#c4bab9" r=".243"/><circle cx="9.443" cy="-10.49" fill="#c4bab9" r=".243"/><circle cx="10.21" cy="-10.49" fill="#c4bab9" r=".243"/><circle cx="10.976" cy="-10.49" fill="#c4bab9" r=".243"/><circle cx="11.743" cy="-10.49" fill="#c4bab9" r=".243"/><circle cx="8.676" cy="-9.724" fill="#c4bab9" r=".243"/><circle cx="9.443" cy="-9.724" fill="#c4bab9" r=".243"/><circle cx="10.21" cy="-9.724" fill="#c4bab9" r=".243"/><circle cx="10.976" cy="-9.724" fill="#c4bab9" r=".243"/><circle cx="11.743" cy="-9.724" fill="#c4bab9" r=".243"/><circle cx="7.91" cy="-8.957" fill="#c4bab9" r=".243"/><circle cx="8.676" cy="-8.957" fill="#c4bab9" r=".243"/><circle cx="9.443" cy="-8.957" fill="#c4bab9" r=".243"/><circle cx="10.21" cy="-8.957" fill="#c4bab9" r=".243"/><circle cx="10.976" cy="-8.957" fill="#c4bab9" r=".243"/><circle cx="11.743" cy="-8.957" fill="#c4bab9" r=".243"/><circle cx="8.676" cy="-8.957" fill="#c4bab9" r=".243"/><circle cx="9.443" cy="-8.957" fill="#c4bab9" r=".243"/><circle cx="10.21" cy="-8.957" fill="#c4bab9" r=".243"/><circle cx="10.976" cy="-8.957" fill="#c4bab9" r=".243"/><circle cx="11.743" cy="-8.957" fill="#c4bab9" r=".243"/><circle cx="12.51" cy="-12.024" fill="#c4bab9" r=".243"/><circle cx="13.276" cy="-12.024" fill="#c4bab9" r=".243"/><circle cx="14.043" cy="-12.024" fill="#c4bab9" r=".243"/><circle cx="14.81" cy="-12.024" fill="#c4bab9" r=".243"/><circle cx="15.576" cy="-12.024" fill="#c4bab9" r=".243"/><circle cx="12.51" cy="-11.257" fill="#c4bab9" r=".243"/><circle cx="13.276" cy="-11.257" fill="#c4bab9" r=".243"/><circle cx="14.043" cy="-11.257" fill="#c4bab9" r=".243"/><circle cx="14.81" cy="-11.257" fill="#c4bab9" r=".243"/><circle cx="15.576" cy="-11.257" fill="#c4bab9" r=".243"/><circle cx="12.51" cy="-10.49" fill="#c4bab9" r=".243"/><circle cx="13.276" cy="-10.49" fill="#c4bab9" r=".243"/><circle cx="14.043" cy="-10.49" fill="#c4bab9" r=".243"/><circle cx="14.81" cy="-10.49" fill="#c4bab9" r=".243"/><circle cx="15.576" cy="-10.49" fill="#c4bab9" r=".243"/><circle cx="12.51" cy="-9.724" fill="#c4bab9" r=".243"/><circle cx="13.276" cy="-9.724" fill="#c4bab9" r=".243"/><circle cx="14.043" cy="-9.724" fill="#c4bab9" r=".243"/><circle cx="14.81" cy="-9.724" fill="#c4bab9" r=".243"/><circle cx="15.576" cy="-9.724" fill="#c4bab9" r=".243"/><circle cx="11.743" cy="-8.957" fill="#c4bab9" r=".243"/><circle cx="12.51" cy="-8.957" fill="#c4bab9" r=".243"/><circle cx="13.276" cy="-8.957" fill="#c4bab9" r=".243"/><circle cx="14.043" cy="-8.957" fill="#c4bab9" r=".243"/><circle cx="14.81" cy="-8.957" fill="#c4bab9" r=".243"/><circle cx="15.576" cy="-8.957" fill="#c4bab9" r=".243"/><circle cx="12.51" cy="-8.957" fill="#c4bab9" r=".243"/><circle cx="13.276" cy="-8.957" fill="#c4bab9" r=".243"/><circle cx="14.043" cy="-8.957" fill="#c4bab9" r=".243"/><circle cx="14.81" cy="-8.957" fill="#c4bab9" r=".243"/><circle cx="15.576" cy="-8.957" fill="#c4bab9" r=".243"/><circle cx="8.676" cy="-8.19" fill="#c4bab9" r=".243"/><circle cx="9.443" cy="-8.19" fill="#c4bab9" r=".243"/><circle cx="10.21" cy="-8.19" fill="#c4bab9" r=".243"/><circle cx="10.976" cy="-8.19" fill="#c4bab9" r=".243"/><circle cx="11.743" cy="-8.19" fill="#c4bab9" r=".243"/><circle cx="12.51" cy="-8.19" fill="#c4bab9" r=".243"/><circle cx="13.276" cy="-8.19" fill="#c4bab9" r=".243"/><circle cx="14.043" cy="-8.19" fill="#c4bab9" r=".243"/><circle cx="14.81" cy="-8.19" fill="#c4bab9" r=".243"/><circle cx="15.576" cy="-8.19" fill="#c4bab9" r=".243"/><circle cx=".243" cy="-7.424" fill="#c4bab9" r=".243"/><circle cx="1.01" cy="-7.424" fill="#c4bab9" r=".243"/><circle cx="1.776" cy="-7.424" fill="#c4bab9" r=".243"/><circle cx="2.543" cy="-7.424" fill="#c4bab9" r=".243"/><circle cx="3.31" cy="-7.424" fill="#c4bab9" r=".243"/><circle cx="4.076" cy="-7.424" fill="#c4bab9" r=".243"/><circle cx=".243" cy="-6.657" fill="#c4bab9" r=".243"/><circle cx="1.01" cy="-6.657" fill="#c4bab9" r=".243"/><circle cx="1.776" cy="-6.657" fill="#c4bab9" r=".243"/><circle cx="2.543" cy="-6.657" fill="#c4bab9" r=".243"/><circle cx="3.31" cy="-6.657" fill="#c4bab9" r=".243"/><circle cx="4.076" cy="-6.657" fill="#c4bab9" r=".243"/><circle cx=".243" cy="-5.89" fill="#c4bab9" r=".243"/><circle cx="1.01" cy="-5.89" fill="#c4bab9" r=".243"/><circle cx="1.776" cy="-5.89" fill="#c4bab9" r=".243"/><circle cx="2.543" cy="-5.89" fill="#c4bab9" r=".243"/><circle cx="3.31" cy="-5.89" fill="#c4bab9" r=".243"/><circle cx="4.076" cy="-5.89" fill="#c4bab9" r=".243"/><circle cx=".243" cy="-5.124" fill="#c4bab9" r=".243"/><circle cx="1.01" cy="-5.124" fill="#c4bab9" r=".243"/><circle cx="1.776" cy="-5.124" fill="#c4bab9" r=".243"/><circle cx="2.543" cy="-5.124" fill="#c4bab9" r=".243"/><circle cx="3.31" cy="-5.124" fill="#c4bab9" r=".243"/><circle cx="4.076" cy="-5.124" fill="#c4bab9" r=".243"/><circle cx=".243" cy="-5.124" fill="#c4bab9" r=".243"/><circle cx="1.01" cy="-5.124" fill="#c4bab9" r=".243"/><circle cx="1.776" cy="-5.124" fill="#c4bab9" r=".243"/><circle cx="2.543" cy="-5.124" fill="#c4bab9" r=".243"/><circle cx="3.31" cy="-5.124" fill="#c4bab9" r=".243"/><circle cx="4.076" cy="-5.124" fill="#c4bab9" r=".243"/><circle cx=".243" cy="-4.357" fill="#c4bab9" r=".243"/><circle cx="1.01" cy="-4.357" fill="#c4bab9" r=".243"/><circle cx="1.776" cy="-4.357" fill="#c4bab9" r=".243"/><circle cx="2.543" cy="-4.357" fill="#c4bab9" r=".243"/><circle cx="3.31" cy="-4.357" fill="#c4bab9" r=".243"/><circle cx="4.076" cy="-4.357" fill="#c4bab9" r=".243"/><circle cx="4.843" cy="-7.424" fill="#c4bab9" r=".243"/><circle cx="5.61" cy="-7.424" fill="#c4bab9" r=".243"/><circle cx="6.376" cy="-7.424" fill="#c4bab9" r=".243"/><circle cx="7.143" cy="-7.424" fill="#c4bab9" r=".243"/><circle cx="7.91" cy="-7.424" fill="#c4bab9" r=".243"/><circle cx="4.843" cy="-6.657" fill="#c4bab9" r=".243"/><circle cx="5.61" cy="-6.657" fill="#c4bab9" r=".243"/><circle cx="6.376" cy="-6.657" fill="#c4bab9" r=".243"/><circle cx="7.143" cy="-6.657" fill="#c4bab9" r=".243"/><circle cx="7.91" cy="-6.657" fill="#c4bab9" r=".243"/><circle cx="4.843" cy="-5.89" fill="#c4bab9" r=".243"/><circle cx="5.61" cy="-5.89" fill="#c4bab9" r=".243"/><circle cx="6.376" cy="-5.89" fill="#c4bab9" r=".243"/><circle cx="7.143" cy="-5.89" fill="#c4bab9" r=".243"/><circle cx="7.91" cy="-5.89" fill="#c4bab9" r=".243"/><circle cx="4.076" cy="-5.124" fill="#c4bab9" r=".243"/><circle cx="4.843" cy="-5.124" fill="#c4bab9" r=".243"/><circle cx="5.61" cy="-5.124" fill="#c4bab9" r=".243"/><circle cx="6.376" cy="-5.124" fill="#c4bab9" r=".243"/><circle cx="7.143" cy="-5.124" fill="#c4bab9" r=".243"/><circle cx="7.91" cy="-5.124" fill="#c4bab9" r=".243"/><circle cx="4.843" cy="-5.124" fill="#c4bab9" r=".243"/><circle cx="5.61" cy="-5.124" fill="#c4bab9" r=".243"/><circle cx="6.376" cy="-5.124" fill="#c4bab9" r=".243"/><circle cx="7.143" cy="-5.124" fill="#c4bab9" r=".243"/><circle cx="7.91" cy="-5.124" fill="#c4bab9" r=".243"/><circle cx=".243" cy="-3.59" fill="#c4bab9" r=".243"/><circle cx="1.01" cy="-3.59" fill="#c4bab9" r=".243"/><circle cx="1.776" cy="-3.59" fill="#c4bab9" r=".243"/><circle cx="2.543" cy="-3.59" fill="#c4bab9" r=".243"/><circle cx="3.31" cy="-3.59" fill="#c4bab9" r=".243"/><circle cx="4.076" cy="-3.59" fill="#c4bab9" r=".243"/><circle cx=".243" cy="-2.823" fill="#c4bab9" r=".243"/><circle cx="1.01" cy="-2.823" fill="#c4bab9" r=".243"/><circle cx="1.776" cy="-2.823" fill="#c4bab9" r=".243"/><circle cx="2.543" cy="-2.823" fill="#c4bab9" r=".243"/><circle cx="3.31" cy="-2.823" fill="#c4bab9" r=".243"/><circle cx="4.076" cy="-2.823" fill="#c4bab9" r=".243"/><circle cx=".243" cy="-2.057" fill="#c4bab9" r=".243"/><circle cx="1.01" cy="-2.057" fill="#c4bab9" r=".243"/><circle cx="1.776" cy="-2.057" fill="#c4bab9" r=".243"/><circle cx="2.543" cy="-2.057" fill="#c4bab9" r=".243"/><circle cx="3.31" cy="-2.057" fill="#c4bab9" r=".243"/><circle cx="4.076" cy="-2.057" fill="#c4bab9" r=".243"/><circle cx=".243" cy="-1.29" fill="#c4bab9" r=".243"/><circle cx="1.01" cy="-1.29" fill="#c4bab9" r=".243"/><circle cx="1.776" cy="-1.29" fill="#c4bab9" r=".243"/><circle cx="2.543" cy="-1.29" fill="#c4bab9" r=".243"/><circle cx="3.31" cy="-1.29" fill="#c4bab9" r=".243"/><circle cx="4.076" cy="-1.29" fill="#c4bab9" r=".243"/><circle cx=".243" cy="-1.29" fill="#c4bab9" r=".243"/><circle cx="1.01" cy="-1.29" fill="#c4bab9" r=".243"/><circle cx="1.776" cy="-1.29" fill="#c4bab9" r=".243"/><circle cx="2.543" cy="-1.29" fill="#c4bab9" r=".243"/><circle cx="3.31" cy="-1.29" fill="#c4bab9" r=".243"/><circle cx="4.076" cy="-1.29" fill="#c4bab9" r=".243"/><circle cx="4.843" cy="-4.357" fill="#c4bab9" r=".243"/><circle cx="5.61" cy="-4.357" fill="#c4bab9" r=".243"/><circle cx="6.376" cy="-4.357" fill="#c4bab9" r=".243"/><circle cx="7.143" cy="-4.357" fill="#c4bab9" r=".243"/><circle cx="7.91" cy="-4.357" fill="#c4bab9" r=".243"/><circle cx="4.843" cy="-3.59" fill="#c4bab9" r=".243"/><circle cx="5.61" cy="-3.59" fill="#c4bab9" r=".243"/><circle cx="6.376" cy="-3.59" fill="#c4bab9" r=".243"/><circle cx="7.143" cy="-3.59" fill="#c4bab9" r=".243"/><circle cx="7.91" cy="-3.59" fill="#c4bab9" r=".243"/><circle cx="4.843" cy="-2.823" fill="#c4bab9" r=".243"/><circle cx="5.61" cy="-2.823" fill="#c4bab9" r=".243"/><circle cx="6.376" cy="-2.823" fill="#c4bab9" r=".243"/><circle cx="7.143" cy="-2.823" fill="#c4bab9" r=".243"/><circle cx="7.91" cy="-2.823" fill="#c4bab9" r=".243"/><circle cx="4.843" cy="-2.057" fill="#c4bab9" r=".243"/><circle cx="5.61" cy="-2.057" fill="#c4bab9" r=".243"/><circle cx="6.376" cy="-2.057" fill="#c4bab9" r=".243"/><circle cx="7.143" cy="-2.057" fill="#c4bab9" r=".243"/><circle cx="7.91" cy="-2.057" fill="#c4bab9" r=".243"/><circle cx="4.076" cy="-1.29" fill="#c4bab9" r=".243"/><circle cx="4.843" cy="-1.29" fill="#c4bab9" r=".243"/><circle cx="5.61" cy="-1.29" fill="#c4bab9" r=".243"/><circle cx="6.376" cy="-1.29" fill="#c4bab9" r=".243"/><circle cx="7.143" cy="-1.29" fill="#c4bab9" r=".243"/><circle cx="7.91" cy="-1.29" fill="#c4bab9" r=".243"/><circle cx="4.843" cy="-1.29" fill="#c4bab9" r=".243"/><circle cx="5.61" cy="-1.29" fill="#c4bab9" r=".243"/><circle cx="6.376" cy="-1.29" fill="#c4bab9" r=".243"/><circle cx="7.143" cy="-1.29" fill="#c4bab9" r=".243"/><circle cx="7.91" cy="-1.29" fill="#c4bab9" r=".243"/><circle cx=".243" cy="-.523" fill="#c4bab9" r=".243"/><circle cx="1.01" cy="-.523" fill="#c4bab9" r=".243"/><circle cx="1.776" cy="-.523" fill="#c4bab9" r=".243"/><circle cx="2.543" cy="-.523" fill="#c4bab9" r=".243"/><circle cx="3.31" cy="-.523" fill="#c4bab9" r=".243"/><circle cx="4.076" cy="-.523" fill="#c4bab9" r=".243"/><circle cx="4.843" cy="-.523" fill="#c4bab9" r=".243"/><circle cx="5.61" cy="-.523" fill="#c4bab9" r=".243"/><circle cx="6.376" cy="-.523" fill="#c4bab9" r=".243"/><circle cx="7.143" cy="-.523" fill="#c4bab9" r=".243"/><circle cx="7.91" cy="-.523" fill="#c4bab9" r=".243"/><circle cx="8.676" cy="-7.424" fill="#c4bab9" r=".243"/><circle cx="9.443" cy="-7.424" fill="#c4bab9" r=".243"/><circle cx="10.21" cy="-7.424" fill="#c4bab9" r=".243"/><circle cx="10.976" cy="-7.424" fill="#c4bab9" r=".243"/><circle cx="11.743" cy="-7.424" fill="#c4bab9" r=".243"/><circle cx="8.676" cy="-6.657" fill="#c4bab9" r=".243"/><circle cx="9.443" cy="-6.657" fill="#c4bab9" r=".243"/><circle cx="10.21" cy="-6.657" fill="#c4bab9" r=".243"/><circle cx="10.976" cy="-6.657" fill="#c4bab9" r=".243"/><circle cx="11.743" cy="-6.657" fill="#c4bab9" r=".243"/><circle cx="8.676" cy="-5.89" fill="#c4bab9" r=".243"/><circle cx="9.443" cy="-5.89" fill="#c4bab9" r=".243"/><circle cx="10.21" cy="-5.89" fill="#c4bab9" r=".243"/><circle cx="10.976" cy="-5.89" fill="#c4bab9" r=".243"/><circle cx="11.743" cy="-5.89" fill="#c4bab9" r=".243"/><circle cx="7.91" cy="-5.124" fill="#c4bab9" r=".243"/><circle cx="8.676" cy="-5.124" fill="#c4bab9" r=".243"/><circle cx="9.443" cy="-5.124" fill="#c4bab9" r=".243"/><circle cx="10.21" cy="-5.124" fill="#c4bab9" r=".243"/><circle cx="10.976" cy="-5.124" fill="#c4bab9" r=".243"/><circle cx="11.743" cy="-5.124" fill="#c4bab9" r=".243"/><circle cx="8.676" cy="-5.124" fill="#c4bab9" r=".243"/><circle cx="9.443" cy="-5.124" fill="#c4bab9" r=".243"/><circle cx="10.21" cy="-5.124" fill="#c4bab9" r=".243"/><circle cx="10.976" cy="-5.124" fill="#c4bab9" r=".243"/><circle cx="11.743" cy="-5.124" fill="#c4bab9" r=".243"/><circle cx="8.676" cy="-4.357" fill="#c4bab9" r=".243"/><circle cx="9.443" cy="-4.357" fill="#c4bab9" r=".243"/><circle cx="10.21" cy="-4.357" fill="#c4bab9" r=".243"/><circle cx="10.976" cy="-4.357" fill="#c4bab9" r=".243"/><circle cx="11.743" cy="-4.357" fill="#c4bab9" r=".243"/><circle cx="12.51" cy="-7.424" fill="#c4bab9" r=".243"/><circle cx="13.276" cy="-7.424" fill="#c4bab9" r=".243"/><circle cx="14.043" cy="-7.424" fill="#c4bab9" r=".243"/><circle cx="14.81" cy="-7.424" fill="#c4bab9" r=".243"/><circle cx="15.576" cy="-7.424" fill="#c4bab9" r=".243"/><circle cx="12.51" cy="-6.657" fill="#c4bab9" r=".243"/><circle cx="13.276" cy="-6.657" fill="#c4bab9" r=".243"/><circle cx="14.043" cy="-6.657" fill="#c4bab9" r=".243"/><circle cx="14.81" cy="-6.657" fill="#c4bab9" r=".243"/><circle cx="15.576" cy="-6.657" fill="#c4bab9" r=".243"/><circle cx="12.51" cy="-5.89" fill="#c4bab9" r=".243"/><circle cx="13.276" cy="-5.89" fill="#c4bab9" r=".243"/><circle cx="14.043" cy="-5.89" fill="#c4bab9" r=".243"/><circle cx="14.81" cy="-5.89" fill="#c4bab9" r=".243"/><circle cx="15.576" cy="-5.89" fill="#c4bab9" r=".243"/><circle cx="11.743" cy="-5.124" fill="#c4bab9" r=".243"/><circle cx="12.51" cy="-5.124" fill="#c4bab9" r=".243"/><circle cx="13.276" cy="-5.124" fill="#c4bab9" r=".243"/><circle cx="14.043" cy="-5.124" fill="#c4bab9" r=".243"/><circle cx="14.81" cy="-5.124" fill="#c4bab9" r=".243"/><circle cx="15.576" cy="-5.124" fill="#c4bab9" r=".243"/><circle cx="12.51" cy="-5.124" fill="#c4bab9" r=".243"/><circle cx="13.276" cy="-5.124" fill="#c4bab9" r=".243"/><circle cx="14.043" cy="-5.124" fill="#c4bab9" r=".243"/><circle cx="14.81" cy="-5.124" fill="#c4bab9" r=".243"/><circle cx="15.576" cy="-5.124" fill="#c4bab9" r=".243"/><circle cx="8.676" cy="-3.59" fill="#c4bab9" r=".243"/><circle cx="9.443" cy="-3.59" fill="#c4bab9" r=".243"/><circle cx="10.21" cy="-3.59" fill="#c4bab9" r=".243"/><circle cx="10.976" cy="-3.59" fill="#c4bab9" r=".243"/><circle cx="11.743" cy="-3.59" fill="#c4bab9" r=".243"/><circle cx="8.676" cy="-2.823" fill="#c4bab9" r=".243"/><circle cx="9.443" cy="-2.823" fill="#c4bab9" r=".243"/><circle cx="10.21" cy="-2.823" fill="#c4bab9" r=".243"/><circle cx="10.976" cy="-2.823" fill="#c4bab9" r=".243"/><circle cx="11.743" cy="-2.823" fill="#c4bab9" r=".243"/><circle cx="8.676" cy="-2.057" fill="#c4bab9" r=".243"/><circle cx="9.443" cy="-2.057" fill="#c4bab9" r=".243"/><circle cx="10.21" cy="-2.057" fill="#c4bab9" r=".243"/><circle cx="10.976" cy="-2.057" fill="#c4bab9" r=".243"/><circle cx="11.743" cy="-2.057" fill="#c4bab9" r=".243"/><circle cx="7.91" cy="-1.29" fill="#c4bab9" r=".243"/><circle cx="8.676" cy="-1.29" fill="#c4bab9" r=".243"/><circle cx="9.443" cy="-1.29" fill="#c4bab9" r=".243"/><circle cx="10.21" cy="-1.29" fill="#c4bab9" r=".243"/><circle cx="10.976" cy="-1.29" fill="#c4bab9" r=".243"/><circle cx="11.743" cy="-1.29" fill="#c4bab9" r=".243"/><circle cx="8.676" cy="-1.29" fill="#c4bab9" r=".243"/><circle cx="9.443" cy="-1.29" fill="#c4bab9" r=".243"/><circle cx="10.21" cy="-1.29" fill="#c4bab9" r=".243"/><circle cx="10.976" cy="-1.29" fill="#c4bab9" r=".243"/><circle cx="11.743" cy="-1.29" fill="#c4bab9" r=".243"/><circle cx="12.51" cy="-4.357" fill="#c4bab9" r=".243"/><circle cx="13.276" cy="-4.357" fill="#c4bab9" r=".243"/><circle cx="14.043" cy="-4.357" fill="#c4bab9" r=".243"/><circle cx="14.81" cy="-4.357" fill="#c4bab9" r=".243"/><circle cx="15.576" cy="-4.357" fill="#c4bab9" r=".243"/><circle cx="12.51" cy="-3.59" fill="#c4bab9" r=".243"/><circle cx="13.276" cy="-3.59" fill="#c4bab9" r=".243"/><circle cx="14.043" cy="-3.59" fill="#c4bab9" r=".243"/><circle cx="14.81" cy="-3.59" fill="#c4bab9" r=".243"/><circle cx="15.576" cy="-3.59" fill="#c4bab9" r=".243"/><circle cx="12.51" cy="-2.823" fill="#c4bab9" r=".243"/><circle cx="13.276" cy="-2.823" fill="#c4bab9" r=".243"/><circle cx="14.043" cy="-2.823" fill="#c4bab9" r=".243"/><circle cx="14.81" cy="-2.823" fill="#c4bab9" r=".243"/><circle cx="15.576" cy="-2.823" fill="#c4bab9" r=".243"/><circle cx="12.51" cy="-2.057" fill="#c4bab9" r=".243"/><circle cx="13.276" cy="-2.057" fill="#c4bab9" r=".243"/><circle cx="14.043" cy="-2.057" fill="#c4bab9" r=".243"/><circle cx="14.81" cy="-2.057" fill="#c4bab9" r=".243"/><circle cx="15.576" cy="-2.057" fill="#c4bab9" r=".243"/><circle cx="11.743" cy="-1.29" fill="#c4bab9" r=".243"/><circle cx="12.51" cy="-1.29" fill="#c4bab9" r=".243"/><circle cx="13.276" cy="-1.29" fill="#c4bab9" r=".243"/><circle cx="14.043" cy="-1.29" fill="#c4bab9" r=".243"/><circle cx="14.81" cy="-1.29" fill="#c4bab9" r=".243"/><circle cx="15.576" cy="-1.29" fill="#c4bab9" r=".243"/><circle cx="12.51" cy="-1.29" fill="#c4bab9" r=".243"/><circle cx="13.276" cy="-1.29" fill="#c4bab9" r=".243"/><circle cx="14.043" cy="-1.29" fill="#c4bab9" r=".243"/><circle cx="14.81" cy="-1.29" fill="#c4bab9" r=".243"/><circle cx="15.576" cy="-1.29" fill="#c4bab9" r=".243"/><circle cx="8.676" cy="-.523" fill="#c4bab9" r=".243"/><circle cx="9.443" cy="-.523" fill="#c4bab9" r=".243"/><circle cx="10.21" cy="-.523" fill="#c4bab9" r=".243"/><circle cx="10.976" cy="-.523" fill="#c4bab9" r=".243"/><circle cx="11.743" cy="-.523" fill="#c4bab9" r=".243"/><circle cx="12.51" cy="-.523" fill="#c4bab9" r=".243"/><circle cx="13.276" cy="-.523" fill="#c4bab9" r=".243"/><circle cx="14.043" cy="-.523" fill="#c4bab9" r=".243"/><circle cx="14.81" cy="-.523" fill="#c4bab9" r=".243"/><circle cx="15.576" cy="-.523" fill="#c4bab9" r=".243"/><path d="m.243-.28h15.333v.28h-15.333z" fill="none"/><path d="m8.293-8.331h15.333v.28h-15.333z" fill="none" transform="matrix(0 1 -1 0 7.7692 -24.15)"/></pattern><pattern id="b" height="11.333" overflow="visible" patternUnits="userSpaceOnUse" viewBox="0 -11.333 .509 11.333" width=".509" x="-415.888" y="-162.447"><path d="m0-11.333h.509v11.333h-.509z" fill="none"/><path d="m0-11.333h.406v11.333h-.406z" fill="#907f6a"/><path d="m.406-11.333h.103v11.333h-.103z" fill="#363732"/></pattern><linearGradient id="c"><stop offset=".00000020541" stop-color="#89544e"/><stop offset="1" stop-color="#522a2f"/></linearGradient><linearGradient id="d" gradientUnits="userSpaceOnUse" x1="80.375" x2="80.375" xlink:href="#c" y1="19.5946" y2="22.4279"/><linearGradient id="e" gradientUnits="userSpaceOnUse" x1="80.375" x2="80.375" xlink:href="#c" y1="13.4279" y2="16.2612"/><linearGradient id="f" gradientUnits="userSpaceOnUse" x1="80.375" x2="80.375" xlink:href="#c" y1="7.2612" y2="10.0946"/><path d="m159.052 108.053h-157.354c-.934 0-1.698-.764-1.698-1.698v-101.687c0-2.567 2.101-4.668 4.668-4.668h151.414c2.567 0 4.668 2.101 4.668 4.668v101.687c0 .934-.764 1.698-1.698 1.698z" fill="#73373c"/><path d="m156.644 83.615h-152.538c-2.258 0-4.106-1.847-4.106-4.106v-75.403c0-2.258 1.848-4.106 4.106-4.106h152.537c2.258 0 4.106 1.848 4.106 4.106v75.403c.001 2.259-1.847 4.106-4.105 4.106z" fill="#78313a"/><path d="m22.938 73.562c-3.578 0-6.488-2.91-6.488-6.488v-34.375c0-3.578 2.91-6.488 6.488-6.488h114.875c3.577 0 6.487 2.911 6.487 6.488v34.375c0 3.578-2.91 6.488-6.487 6.488z" fill="#533032"/><path d="m137.813 72.428h-114.875c-2.945 0-5.354-2.409-5.354-5.354v-34.375c0-2.945 2.409-5.354 5.354-5.354h114.875c2.945 0 5.354 2.409 5.354 5.354v34.375c0 2.945-2.41 5.354-5.354 5.354z" fill="#c9ae43"/><path d="m17.583 39.323h125.583v21.126h-125.583z" fill="#bf2931"/><path d="m72.52 39.324c-.422-.783-.8-1.623-1.124-2.511-1.25-3.431-1.415-6.843-.659-9.413l11.68-.056c.96 1.298 1.796 2.844 2.425 4.569.948 2.6 1.272 5.19 1.044 7.411z" fill="#c4bab9"/><path d="m102.74 72.428c-11.306-3.1-20.364-6.012-30.826-11.979h24.9c.499 3.469 4.133 6.968 7.985 9.856 1.046.785 2.102 1.489 3.135 2.123z" fill="#c4bab9"/><path d="m52.463 39.323c-.484-2.146-.649-4.817.793-6.882.771-1.104 1.783-1.8 2.37-2.104 4.675-2.416 12.489-.618 13.708-.422-4.118-.523-7.218.168-8.443 2.22-1.066 1.786-.549 4.333 1.197 7.189z" fill="#c4bab9"/><path d="m96.207 39.323c-2.757-1.056-5.87-2.087-9.177-3.059 3.004.884 5.174 1.955 6.733 3.059z" fill="#c4bab9"/><path d="m85.885 39.324c-.307 2.987-1.612 5.306-3.742 6.082-3.172 1.156-7.147-1.484-9.623-6.082z" fill="url(#a)"/><path d="m96.814 60.449c-.042-.295-.062-.589-.058-.883-5.063-.048-12.375-2.449-19.702-6.82-6.958-4.151-12.346-9.135-14.966-13.423h-9.625c.28 1.242.667 2.309.911 2.98 2.92 8.047 10.173 12.941 12.387 14.383 2.119 1.38 4.162 2.627 6.154 3.763z" fill="url(#a)"/><path d="m93.763 39.323c3.567 2.529 3.928 5.233 3.743 6.267-.398 2.231-4.449 3.728-13.841 3.698 12.856 1.644 23.13 1.694 23.951-1.761.595-2.501-4.183-5.438-11.409-8.205z" fill="url(#a)"/><g fill="#040006"><ellipse cx="25.958" cy="33.501" rx=".938" ry="1.541" transform="matrix(.9396 -.3424 .3424 .9396 -9.9016 10.9128)"/><path d="m28.401 36.806c-.008.492.507.997 1.055 1.408.376.282.762.485 1.07.639-2.486-.67-4.039-1.024-6.189-2.425-.29-.189-1.241-.831-1.624-1.886-.087-.24-.314-.866-.015-1.293.101-.145.234-.236.311-.276.613-.317 1.638-.081 1.797-.055-.54-.069-.947.022-1.107.291-.349.586.599 1.796 2.119 2.703.961.572 1.92.887 2.583.894z"/><path d="m27.126 33.75c1.296.381 1.408 1.028 1.374 1.223-.052.293-.583.489-1.815.485 1.686.216 3.033.222 3.141-.231.107-.453-1.13-1.015-2.7-1.477z"/><path d="m71.277 34.185 2.796-1.893h-6.084l-1.665.644-2.251 3.081-1.955 1.469h-.666l-.089-.16 2.188-5.033h-2.651l-.776 3.413h-5.35c-.167 0-.325.045-.46.124l.001-.001.22-1.594-1.596.767-.264 1.863-.864-1.159h-1.826l1.121-.595.275-1.551h.979l1.105-1.282h-12.926c-.286 0-.544.131-.711.342 0 0-.02-.028-.031-.041-.159-.191-.394-.301-.643-.301h-6.755l.719 1.066-.045.268h-.945l-1.334 1.298h2.01l-.532 3.289c-.04.242.027.487.186.674.158.187.39.294.634.294h3.44l.153-.728.938-.001-.153.728h2.824l.381-.738h.627l.17.738h8.452l-.265 1.308 1.783-.886.25-1.333.704.911h1.458s.026-.191.026-.191c.148.123.335.191.53.191h1.847c.181 0 .347-.044.489-.125l-.014.125h12.176l.807-1.782h-.699l-.084.105-.021.027c-.06.078-.184.242-.353.242h-1.097c.54-.277.923-.467 1.159-.575.073-.033.223-.106.402-.217.27-.169.504-.315.688-.603.078-.122.26-.407.211-.779-.027-.206-.12-.399-.277-.574-.273-.304-.713-.458-1.305-.462l.741-.362h2.197zm-18.421-1.629-.624.724h-1.085l-.292 1.647-1.001.531.393-2.178h-1.247l.439-.724zm-3.598 0-.449.721h-1.585l-.042.387h1.481l-.334.621h-1.215l-.048.441h1.847l.405.731h-3.212l.313-2.902h2.839zm-3.032 0-1.237 1.451.934 1.451h-1.216l-.934-1.451 1.237-1.451zm-6.308.526c.05-.303.313-.526.62-.526h3.755l-.581.726h-2.572c-.182 0-.338.111-.368.263l-.171.867c-.033.168.121.321.323.321h.991l.386.726h-2.128c-.341 0-.601-.306-.545-.643zm3.759.455-.231 1.921h-.947l.231-1.921zm-4.523-.981c.348 0 .611.315.548.658 0 0-.249 1.386-.317 1.942-.005.039-.01.113.021.196.017.047.041.082.06.106h-2.445c-.348 0-.611-.315-.548-.658 0 0 .249-1.386.317-1.942.005-.039.01-.113-.021-.196-.017-.047-.041-.082-.06-.106zm-7.672 2.073.76-.739h1.067l.103-.611-.488-.724h3.263c.245 0 .432.22.392.462l-.205 1.236c-.036.217-.223.375-.443.375h-1.795l-.118.831-1.124.523.246-1.355h-1.658zm1.611 4.257c-.341 0-.601-.306-.545-.643l.289-1.734c.05-.303.313-.526.62-.526h3.896l-.581.726h-2.713c-.182 0-.338.111-.368.263l-.171.867c-.033.168.121.321.323.321h.991l.386.726zm4.722 0 .153-.728-1.509.001-.153.728h-.931l.408-1.942h.931l-.079.377h1.509l.281-1.336h.931l-.61 2.902h-.931zm3.879 0-.17-.738h-1.02l-.381.738h-1.116l1.701-2.902h1.309l.793 2.902zm1.293 0 .462-2.902h.829l-.344 2.16.777.008.287.734zm2.233 0 .462-2.902h.829l-.344 2.16.777.008.287.734zm2.237 0 .313-2.902h2.838l-.449.721h-1.585l-.042.387h1.481l-.334.621h-1.215l-.048.441h1.314l.405.731h-2.678zm6.153 0h-1.078l-1.001-1.296-.339 1.809-1.147.57.808-3.985h.816l1.185 1.591.339-2.386.993-.477zm6.574-2.181h-2.024l-.042.387h1.481l-.334.621h-1.215l-.048.441h1.752l.405.731h-3.118l.235-2.177h-1.902c-.182 0-.338.111-.368.263l-.171.867c-.033.168.121.321.323.321h.59c.222 0 .401-.18.401-.401v-.174h-.679l.436-.559h1.17l-.077 1.038c-.031.455-.291.822-.745.822h-1.844c-.341 0-.601-.306-.545-.643l.289-1.734c.05-.303.313-.526.62-.526h2.582 2.991m9.297-.362c.036.272-.103.489-.169.593-.15.234-.347.357-.6.516-.19.119-.343.188-.369.2-.34.155-1.006.49-2.186 1.108h1.932.308c.334 0 .53-.296.593-.375h.131l-.554 1.224h-4.873c.021-.128.072-.355.216-.541.07-.09.172-.192.512-.385.363-.206.609-.303.609-.303.249-.098 2.263-.875 2.776-1.314.185-.158.185-.281.183-.312-.006-.107-.085-.181-.097-.192-.019-.017-.072-.062-.277-.087-.257-.032-.442.004-.489.013-.101.021-.161.033-.235.077-.058.035-.184.109-.219.254-.046.191.103.349.115.362h-1.786c.171-.252.597-.846 1.155-1.155.301-.167.552-.237.747-.293.167-.048 1.765-.49 2.371.185.042.05.177.2.206.425zm-9.296.364.776-3.413h2.001l-2.073 4.769.236.425h.924l2.063-1.55 2.227-3.048 1.54-.595h5.122l-1.971 1.334h-2.176l-1.427.698c-.315.023-1.55.151-2.363 1.155-.252.311-.44.73-.531.993h1.101l-.369.47c-.384.124-1.721.597-1.859 1.509-.008.05-.012.103-.012.157h-2.923l-.69-1.121.241-1.06"/><path d="m35.79 33.663.031-.222c.012-.083-.053-.157-.136-.157h-1.36l-.103.616h1.295c.138.001.254-.101.273-.237z"/><path d="m37.49 34.731h1.034c.118 0 .218-.085.238-.202l.16-.965c.024-.147-.089-.281-.238-.281h-1.034c-.118 0-.218.085-.238.202l-.16.965c-.024.147.089.281.238.281z"/><path d="m40.799 37.578h.594l-.184-.796z"/></g><path d="m115.353 22.428h-69.956c-.779 0-1.417-.637-1.417-1.417 0-.779.637-1.417 1.417-1.417h69.957c.779 0 1.417.637 1.417 1.417-.001.779-.639 1.417-1.418 1.417z" fill="url(#d)"/><path d="m115.353 16.261h-69.956c-.779 0-1.417-.637-1.417-1.417 0-.779.637-1.417 1.417-1.417h69.957c.779 0 1.417.637 1.417 1.417-.001.78-.639 1.417-1.418 1.417z" fill="url(#e)"/><path d="m115.353 10.095h-69.956c-.779 0-1.417-.637-1.417-1.417 0-.779.637-1.417 1.417-1.417h69.957c.779 0 1.417.637 1.417 1.417-.001.779-.639 1.417-1.418 1.417z" fill="url(#f)"/><path d="m11.125 76.471c-2.551 0-4.627-2.075-4.627-4.626s2.076-4.626 4.627-4.626 4.626 2.075 4.626 4.626-2.075 4.626-4.626 4.626z" fill="#6a3036"/><circle cx="11.125" cy="71.845" fill="#4d3535" r="1.792"/><path d="m149.625 76.47c2.551 0 4.627-2.075 4.627-4.626s-2.076-4.626-4.627-4.626-4.626 2.075-4.626 4.626 2.075 4.626 4.626 4.626z" fill="#6a3036"/><circle cx="149.625" cy="71.844" fill="#4d3535" r="1.792"/><path d="m154.969 88.345h-149.188c-.567 0-1.031-.464-1.031-1.031v-3.698h151.25v3.698c0 .567-.464 1.031-1.031 1.031z" fill="#6a3036"/><path d="m75.583 105.345h.083v.083h-.083z" fill="none" transform="matrix(.9848 -.1736 .1736 .9848 -17.1434 14.7252)"/><path d="m11.75 103.845h63.958v1.583h-63.958z" fill="#363732"/><path d="m84.75 103.845h63.958v1.583h-63.958z" fill="#363732"/><path d="m75.708 104.636h9.042v.792h-9.042z" fill="#363732"/><path d="m11.75 88.345h136.958v17.083h-136.958z" fill="url(#b)"/><path d="m11.708 88.345v17.083h-3.972c-1.069 0-1.944-.875-1.944-1.944v-15.139z" fill="url(#b)"/><path d="m148.708 88.345v17.083h3.973c1.069 0 1.944-.875 1.944-1.944v-15.139z" fill="url(#b)"/><path d="m28.772 66.561.175-.449c.342.029.686.032 1.029.008 0-.823-.257-1.362-.743-1.362-.383 0-.788.425-.788 1.543 0 .908.463 1.995 1.543 1.995.309.007.614-.074.879-.234l-.122.465c-.363.22-.78.336-1.205.335-1.312 0-2.139-.926-2.139-2.277 0-1.319.978-2.18 1.943-2.18 1.081 0 1.796.926 1.796 2.154-.354-.014-.742-.024-1.105-.024-.403.002-.788.015-1.263.026z" fill="#221813"/><path d="m31.366 65.079.123-.321c.508-.044 1.01-.142 1.497-.291-.019.25-.029.345-.029.617.362-.32.803-.647 1.286-.647.514 0 1.162.355 1.122 1.453-.022.656-.033 1.387-.033 1.972 0 .384.191.599.647.617.007 0-.114.299-.114.299-.507-.04-1.017-.04-1.525 0 0-.691.022-1.734.022-2.549 0-.602-.051-1.105-.649-1.084-.357.013-.581.22-.745.441-.027.749-.027 1.765-.01 2.44.006.265.148.412.554.453l-.122.299c-.656-.04-1.313-.04-1.968 0l-.057-.309c.369-.049.55-.164.584-.444.051-.515.074-1.031.069-1.549 0-.657-.017-.964-.075-1.132-.059-.166-.266-.279-.577-.265z" fill="#221813"/><path d="m42.846 64.474v1.084l-.285.103c-.117-.561-.418-.919-.944-.919s-.699.368-.699.607.108.441.42.555c.312.113.848.309 1.11.421.456.173.757.611.754 1.099 0 .651-.533 1.457-1.861 1.457-.353 0-.904-.07-1.329-.07v-1.292l.309-.113c.057.585.447 1.124 1.11 1.124s.817-.499.817-.72c0-.268-.168-.453-.448-.585-.314-.146-.912-.345-1.208-.514-.347-.2-.556-.574-.544-.974 0-.514.402-1.315 1.665-1.315.355-.007.8.058 1.133.052z" fill="#221813"/><path d="m37.298 66.561.173-.453c.342.029.686.032 1.029.008 0-.823-.254-1.362-.743-1.362-.384 0-.787.425-.787 1.543 0 .908.463 1.995 1.543 1.995.309.007.613-.073.879-.229l-.129.465c-.363.22-.779.336-1.204.335-1.312 0-2.14-.926-2.14-2.277 0-1.319.978-2.18 1.944-2.18 1.081 0 1.795.926 1.795 2.154-.367-.015-.735-.023-1.102-.024-.395.001-.781.014-1.258.025z" fill="#221813"/><path d="m46.412 64.474v1.084l-.281.103c-.12-.561-.421-.919-.947-.919s-.696.368-.696.607.103.441.419.555c.316.113.849.309 1.109.421.457.172.758.611.754 1.099 0 .651-.532 1.457-1.858 1.457-.358 0-.905-.07-1.338-.07v-1.292l.309-.113c.059.585.45 1.124 1.112 1.124s.823-.499.823-.72c0-.268-.172-.453-.449-.585-.314-.146-.915-.345-1.21-.514-.345-.203-.551-.579-.536-.98 0-.514.403-1.315 1.667-1.315.349-.001.791.064 1.122.058z" fill="#221813"/><path d="m48.485 66.561.176-.453c.342.029.686.032 1.029.008 0-.823-.257-1.362-.743-1.362-.385 0-.787.425-.787 1.543 0 .908.465 1.995 1.543 1.995.308.007.611-.073.876-.229l-.126.465c-.363.22-.779.336-1.204.335-1.313 0-2.139-.926-2.139-2.277 0-1.319.978-2.18 1.942-2.18 1.083 0 1.798.926 1.798 2.154-.355-.014-.742-.024-1.105-.024-.4.001-.784.014-1.26.025z" fill="#221813"/><path d="m25.432 65.539v-.027c.425-.187 1.248-.641 1.248-1.28 0-.868-.702-1.203-1.846-1.203-.392 0-1.467.052-1.852.052s-.424-.026-1.012-.026l-.157.384c.677-.025.806.219.82.713.011.333.037.845.037 1.465s-.012 1.337-.063 2.001c-.05.665-.475.79-.934.823l.078.34s.672-.013 1.208-.013.976.035 1.587.043c1.496.015 2.484-.799 2.484-1.813-.001-.964-.784-1.333-1.598-1.459zm-.903 2.927c-.412 0-.72-.155-.745-.626-.025-.47-.036-1.245-.036-2.183s.026-1.529.043-1.852c.023-.379.157-.423.585-.434v.003c.465-.011 1.06.206 1.063.886 0 .524-.47 1.132-1.32 1.266l.134.353c.72-.162 1.566.148 1.566 1.168.027.745-.546 1.375-1.29 1.419z" fill="#221813"/><circle cx="54.469" cy="65.188" fill="none" r="2.323" stroke="#221813" stroke-miterlimit="10" stroke-width=".25"/><path d="m55.537 66.66h-.432l-.746-1.169h-.591v1.169h-.367v-2.943h1.182c.273 0 .497.081.669.243s.258.377.258.644c0 .253-.075.454-.223.604s-.33.234-.545.252zm-.998-1.491c.173 0 .315-.053.426-.159s.165-.242.165-.406c0-.168-.054-.303-.165-.406s-.253-.155-.426-.155h-.772v1.125h.772z"/><path d="m107.648 68.143h-.733v-2.842l-.636 2.842h-.733l-.636-2.828v2.828h-.733v-3.5h1.073l.662 2.679.669-2.679h1.067z"/><path d="m110.445 68.143h-.729c-.033-.051-.058-.136-.073-.254-.251.247-.533.37-.847.37-.254 0-.448-.07-.581-.209-.134-.139-.201-.336-.201-.593 0-.211.063-.392.191-.542.127-.15.298-.242.513-.273.102-.013.272-.035.514-.067.144-.022.247-.057.311-.103s.099-.121.105-.223c.01-.176-.132-.264-.426-.264-.307 0-.465.141-.475.422h-.65c.014-.307.107-.535.281-.684.175-.149.447-.223.819-.223.73 0 1.096.277 1.096.831v1.435c0 .112.05.21.151.293v.084zm-.797-1.133v-.101c-.099.055-.198.088-.3.101-.239.029-.4.064-.482.105-.114.055-.172.15-.172.288 0 .198.126.298.379.298.382 0 .575-.23.575-.691z"/><path d="m113.217 68.157h-.685v-.283c-.17.253-.44.379-.812.379-.3 0-.551-.152-.753-.456-.183-.278-.274-.592-.274-.941 0-.371.083-.678.25-.921.202-.292.498-.437.89-.437.323 0 .556.134.699.403v-1.258h.685zm-.684-1.26c0-.239-.054-.436-.16-.589-.107-.153-.242-.229-.404-.229-.176 0-.315.073-.419.22s-.156.343-.156.589c0 .249.054.445.161.589.098.137.223.206.375.206.179 0 .323-.072.436-.218.111-.146.167-.335.167-.568z"/><path d="m116.064 66.847c0 .077-.005.146-.015.206h-1.756c-.006.02-.01.05-.01.091 0 .17.054.307.16.411s.245.156.417.156c.112 0 .218-.032.314-.096.087-.061.143-.13.165-.207h.694c-.092.253-.252.456-.481.609-.23.154-.487.23-.771.23-.316 0-.582-.098-.797-.292-.258-.234-.387-.568-.387-1.003 0-.467.104-.827.311-1.078s.505-.377.893-.377c.378 0 .683.124.914.372s.349.575.349.978zm-.724-.245c-.02-.361-.191-.542-.514-.542-.325 0-.507.181-.543.542z"/><path d="m118.485 65.243h-.685v-.6h.685zm0 2.9h-.685v-2.602h.685z"/><path d="m121.452 68.143h-.685v-1.786c0-.096-.041-.172-.122-.228-.082-.056-.192-.084-.333-.084-.153 0-.281.04-.384.12s-.153.181-.153.302v1.675h-.686v-2.602h.686v.389c.152-.288.384-.432.694-.432.296 0 .534.075.714.226.179.15.269.349.269.595z"/><path d="m125.41 67.336c0 .234-.088.436-.265.605-.215.208-.521.312-.919.312-.349 0-.615-.094-.8-.283s-.276-.448-.276-.778v-.341h.733v.226c0 .211.025.359.076.444s.143.127.276.127c.137 0 .244-.035.322-.105.079-.07.118-.168.118-.293v-2.606h.733v2.692z"/><path d="m128.265 68.143h-.729c-.033-.051-.058-.136-.073-.254-.251.247-.533.37-.847.37-.254 0-.448-.07-.581-.209-.134-.139-.201-.336-.201-.593 0-.211.063-.392.191-.542.127-.15.298-.242.513-.273.102-.013.272-.035.514-.067.144-.022.247-.057.311-.103s.099-.121.105-.223c.01-.176-.132-.264-.426-.264-.307 0-.465.141-.475.422h-.65c.014-.307.107-.535.281-.684.175-.149.447-.223.819-.223.73 0 1.096.277 1.096.831v1.435c0 .112.05.21.151.293v.084zm-.797-1.133v-.101c-.099.055-.198.088-.3.101-.239.029-.4.064-.482.105-.114.055-.172.15-.172.288 0 .198.126.298.379.298.383 0 .575-.23.575-.691z"/><path d="m131.174 66.928c0 .384-.096.701-.288.95-.192.25-.443.375-.753.375-.177 0-.312-.021-.406-.063-.11-.048-.241-.15-.391-.307v1.315h-.686v-3.658h.686v.394c.198-.292.449-.437.753-.437.31 0 .567.136.774.408s.311.614.311 1.023zm-.689-.057c0-.234-.054-.422-.161-.564-.107-.143-.249-.214-.426-.214-.156 0-.289.074-.398.223s-.163.335-.163.56c0 .246.053.445.158.595.106.15.245.226.418.226.17 0 .308-.075.414-.226.105-.151.158-.351.158-.6z"/><path d="m133.873 68.143h-.729c-.033-.051-.058-.136-.073-.254-.251.247-.533.37-.847.37-.254 0-.448-.07-.581-.209-.134-.139-.201-.336-.201-.593 0-.211.063-.392.191-.542.127-.15.298-.242.513-.273.102-.013.272-.035.514-.067.144-.022.247-.057.311-.103s.099-.121.105-.223c.01-.176-.132-.264-.426-.264-.307 0-.465.141-.475.422h-.65c.014-.307.107-.535.281-.684.175-.149.447-.223.819-.223.73 0 1.096.277 1.096.831v1.435c0 .112.05.21.151.293v.084zm-.797-1.133v-.101c-.099.055-.198.088-.3.101-.239.029-.4.064-.482.105-.114.055-.172.15-.172.288 0 .198.126.298.379.298.383 0 .575-.23.575-.691z"/><path d="m136.652 68.143h-.685v-1.786c0-.096-.041-.172-.122-.228-.082-.056-.192-.084-.333-.084-.153 0-.281.04-.384.12s-.153.181-.153.302v1.675h-.686v-2.602h.686v.389c.152-.288.384-.432.694-.432.296 0 .534.075.714.226.179.15.269.349.269.595z"/></svg>