<svg enable-background="new 0 0 30 30" viewBox="0 0 30 30" xmlns="http://www.w3.org/2000/svg"><ellipse cx="12.821" cy="9.875" fill="#4b4b4b" rx="3.528" ry="5.795" transform="matrix(.9396 -.3424 .3424 .9396 -2.6061 4.9868)"/><path d="m22.011 22.302c-.029 1.851 1.905 3.75 3.966 5.295 1.415 1.062 2.865 1.824 4.023 2.403-9.35-2.518-15.188-3.852-23.273-9.118-1.092-.711-4.668-3.124-6.108-7.092-.327-.903-1.181-3.255-.058-4.863.381-.544.88-.888 1.169-1.037 2.305-1.192 6.158-.305 6.759-.208-2.03-.258-3.559.082-4.163 1.094-1.314 2.203 2.254 6.753 7.97 10.163 3.613 2.156 7.218 3.34 9.715 3.363z" fill="#6b6b6b"/><path d="m17.215 10.812c4.872 1.433 5.296 3.866 5.165 4.599-.196 1.1-2.194 1.838-6.825 1.824 6.339.81 11.405.835 11.81-.868.406-1.704-4.245-3.818-10.15-5.555z" fill="#575757"/></svg>