<svg id="e663fc4e-dda2-470c-9582-e5157dc3bf3f" data-name="texte" xmlns="http://www.w3.org/2000/svg" xmlns:xlink="http://www.w3.org/1999/xlink" viewBox="0 0 470.33 67.41"><defs><style>.a83cc532-ba37-4550-b545-0a3695cb10c9{stroke:#9def48;stroke-miterlimit:10;stroke-width:0.75px;fill:url(#b8b2e4d9-9cba-4361-b504-01bd22ec54d2);}.a3ae00dd-eec4-4c00-8cbe-2912d382b2d4{fill:#9def48;}</style><linearGradient id="b8b2e4d9-9cba-4361-b504-01bd22ec54d2" x1="0.38" y1="33.7" x2="469.96" y2="33.7" gradientUnits="userSpaceOnUse"><stop offset="0" stop-color="#032c02"/><stop offset="1" stop-color="#207a09"/></linearGradient></defs><polygon class="a83cc532-ba37-4550-b545-0a3695cb10c9" points="0.38 5.91 102.44 5.91 108.57 0.38 150.31 0.38 158.22 5.91 461.65 6.11 469.96 16 469.96 59.72 50.81 59.72 42.7 67.03 7.89 67.03 0.38 59.72 0.38 5.91"/><path class="a3ae00dd-eec4-4c00-8cbe-2912d382b2d4" d="M85.13,34.59H59.35a17.1,17.1,0,0,0,2.14,6h2.62v3.95H59.36a17.17,17.17,0,0,1-4-9.95H51.61V30.66h3.74a17.06,17.06,0,0,1,4-9.93H82.82a17.62,17.62,0,0,1,4.1,11.9ZM59.35,30.66H82.84a17.1,17.1,0,0,0-2.13-6H61.49A16.93,16.93,0,0,0,59.35,30.66Z" transform="translate(-0.06 -0.03)"/><path class="a3ae00dd-eec4-4c00-8cbe-2912d382b2d4" d="M117,37.45h4.25a16.6,16.6,0,0,1-3.57,7.09H94.26a17.72,17.72,0,0,1-4.1-11.91,17.71,17.71,0,0,1,4.1-11.9h23.46a16.6,16.6,0,0,1,3.57,7.09H117a17.86,17.86,0,0,0-1.43-3.14H96.39a15.86,15.86,0,0,0-2.28,8,15.92,15.92,0,0,0,2.28,8h19.22A18.55,18.55,0,0,0,117,37.45Z" transform="translate(-0.06 -0.03)"/><path class="a3ae00dd-eec4-4c00-8cbe-2912d382b2d4" d="M156.8,20.73l-15,23.81h-4.54L122.12,20.73h4.93l12.5,19.87,12.38-19.87Z" transform="translate(-0.06 -0.03)"/><path class="a3ae00dd-eec4-4c00-8cbe-2912d382b2d4" d="M171,30.66h25.79a17,17,0,0,0-2.15-6H175.46A17.86,17.86,0,0,0,174,27.82h-4.25a16.6,16.6,0,0,1,3.57-7.09h23.46a17.71,17.71,0,0,1,4.1,11.9l-1.79,2H173.33a16.74,16.74,0,0,0,2.13,6h23.91v3.95h-26a17.68,17.68,0,0,1-4.1-11.91Z" transform="translate(-0.06 -0.03)"/></svg>