<svg xmlns="http://www.w3.org/2000/svg" xmlns:xlink="http://www.w3.org/1999/xlink" viewBox="0 0 470.58 67.66"><defs><style>.f2db7afc-3759-4212-9b74-c671c8bd11c4{stroke:#9def48;stroke-miterlimit:10;fill:url(#f2f49a3f-2da8-4068-8823-31fca6104ba3);}.fa4fa184-c69f-434b-9429-f800d4695d5c{fill:#9def48;}.b15ea055-7774-451b-b6af-910af3b67b19{fill:#e60012;}.fed1b974-dbf7-46b1-8c0d-745990cc5ed5{fill:#fff;}</style><linearGradient id="f2f49a3f-2da8-4068-8823-31fca6104ba3" x1="0.5" y1="33.83" x2="470.08" y2="33.83" gradientUnits="userSpaceOnUse"><stop offset="0" stop-color="#032c02"/><stop offset="1" stop-color="#207a09"/></linearGradient></defs><g id="a01e01e3-6db3-4a6d-be8b-d3ba1862a093" data-name="calque3"><polygon class="f2db7afc-3759-4212-9b74-c671c8bd11c4" points="0.5 6.04 102.57 6.04 108.7 0.5 150.44 0.5 158.35 6.04 461.77 6.24 470.08 16.13 470.08 59.84 50.94 59.84 42.83 67.16 8.02 67.16 0.5 59.84 0.5 6.04"/><path class="fa4fa184-c69f-434b-9429-f800d4695d5c" d="M58.09,24.73l-2.34-4.07H80.41A17.62,17.62,0,0,1,84.54,30.9l-1.76,1v2l1.76,1a17.65,17.65,0,0,1-4.13,10.24H55.75l2.34-4.07H78.24a17.83,17.83,0,0,0,2.19-6.17H63.51V30.88H80.43a17.67,17.67,0,0,0-2.19-6.15Z"/><path class="fa4fa184-c69f-434b-9429-f800d4695d5c" d="M88.82,20.66h27A18.21,18.21,0,0,1,120,32.92a18.22,18.22,0,0,1-4.22,12.25h-27ZM92.88,41.1h20.77A16.45,16.45,0,0,0,116,32.92a16.4,16.4,0,0,0-2.32-8.19H92.88Z"/><path class="fa4fa184-c69f-434b-9429-f800d4695d5c" d="M154.2,30.88l1.85,2a18.18,18.18,0,0,1-4.22,12.25H127.68a17,17,0,0,1-3.67-7.3h4.37a18.67,18.67,0,0,0,1.49,3.23h19.79a17,17,0,0,0,2.18-6.17H125.3l-1.84-2a18.25,18.25,0,0,1,4.22-12.26h24.15A17.11,17.11,0,0,1,155.5,28h-4.37a18.89,18.89,0,0,0-1.47-3.23H129.87a17.33,17.33,0,0,0-2.21,6.15Z"/></g><g id="fdd742f5-cf50-4998-a6ac-ee2b5889597e" data-name="nintendo"><path class="b15ea055-7774-451b-b6af-910af3b67b19" d="M25.59,23.22A2.08,2.08,0,0,0,27.48,21a2.08,2.08,0,0,0-1.89-2.22A2.08,2.08,0,0,0,23.7,21,2.08,2.08,0,0,0,25.59,23.22Zm-.72-2.83H26.3c.53,0,.75.32.75.62s-.22.62-.75.62H24.87c-.53,0-.75-.32-.75-.62S24.34,20.39,24.87,20.39Z"/><path class="b15ea055-7774-451b-b6af-910af3b67b19" d="M23.8,26.07A1.82,1.82,0,0,0,25.56,28a1.77,1.77,0,0,0,1.66-1,1.84,1.84,0,0,0-.12-1.75h.19v-1.5H22.24v1.5H24.1A2,2,0,0,0,23.8,26.07ZM25,25.2h1.19a.6.6,0,1,1,0,1.19H25a.6.6,0,1,1,0-1.19Z"/><polygon class="fed1b974-dbf7-46b1-8c0d-745990cc5ed5" points="39.17 19.26 39.17 19.26 39.17 19.26 39.17 19.26"/><polygon class="b15ea055-7774-451b-b6af-910af3b67b19" points="23.94 38.47 23.94 37.65 23.44 37.65 23.44 38.47 22.76 38.47 22.76 39.99 23.44 39.99 23.44 40.82 23.94 40.82 23.94 39.99 27.29 39.99 27.29 38.47 23.94 38.47"/><path class="b15ea055-7774-451b-b6af-910af3b67b19" d="M26.12,33.46V35h.2c.61,0,.75.41.75.63a.66.66,0,0,1-.75.64h-.69V33.37a2.27,2.27,0,0,0,0,4.48,2.08,2.08,0,0,0,1.88-2.24A2.21,2.21,0,0,0,26.12,33.46Zm-1,2.77a1.13,1.13,0,0,1-.65-.1.6.6,0,0,1-.31-.53h0a.6.6,0,0,1,.31-.53,1.22,1.22,0,0,1,.65-.1Z"/><rect class="b15ea055-7774-451b-b6af-910af3b67b19" x="23.93" y="46.09" width="3.36" height="1.52"/><path class="b15ea055-7774-451b-b6af-910af3b67b19" d="M25.08,30h2.21V28.48H25.46a1.64,1.64,0,0,0-1.68,1.72h0a1.84,1.84,0,0,0,.5,1.21h-.35v1.5h3.36v-1.5H25.08a.7.7,0,0,1-.61-.72A.67.67,0,0,1,25.08,30Z"/><path class="b15ea055-7774-451b-b6af-910af3b67b19" d="M24.78,14.57a5.39,5.39,0,0,0-5.37,5.69V52.42a5.37,5.37,0,1,0,10.73,0V20.26A5.38,5.38,0,0,0,24.78,14.57Zm4,37.83a4.06,4.06,0,1,1-8.09,0V20.27a4.06,4.06,0,1,1,8.09,0Z"/><path class="b15ea055-7774-451b-b6af-910af3b67b19" d="M25.08,42.33h2.21V40.82H25.46a1.64,1.64,0,0,0-1.68,1.72h0a1.84,1.84,0,0,0,.5,1.21h-.35v1.5h3.36v-1.5H25.08a.7.7,0,0,1-.61-.72A.67.67,0,0,1,25.08,42.33Z"/><rect class="b15ea055-7774-451b-b6af-910af3b67b19" x="22.24" y="46.09" width="1.03" height="1.52"/><polygon class="b15ea055-7774-451b-b6af-910af3b67b19" points="22.24 50.04 25.76 50.04 22.24 52.21 22.24 53.79 27.29 53.79 27.29 52.22 23.77 52.22 27.29 50.04 27.29 48.48 22.24 48.48 22.24 50.04"/></g></svg>