<svg enable-background="new 0 0 213.778 250.472" viewBox="0 0 213.778 250.472" xmlns="http://www.w3.org/2000/svg" xmlns:xlink="http://www.w3.org/1999/xlink"><linearGradient id="a"><stop offset="0" stop-color="#1c2124"/><stop offset=".1145" stop-color="#1f2427"/><stop offset=".6366" stop-color="#2a2d32"/><stop offset="1" stop-color="#2d3136"/></linearGradient><linearGradient id="b" gradientUnits="userSpaceOnUse" x1="106.8891" x2="106.8891" xlink:href="#a" y1="18.6279" y2="9.9395"/><linearGradient id="c" gradientUnits="userSpaceOnUse" x1="106.8891" x2="106.8891" xlink:href="#a" y1="30.9047" y2="22.2163"/><linearGradient id="d"><stop offset="0" stop-color="#2d3136"/><stop offset=".6592" stop-color="#1c2124"/></linearGradient><radialGradient id="e" cx="9.6389" cy="94.8889" gradientUnits="userSpaceOnUse" r="3.8333" xlink:href="#d"/><radialGradient id="f" cx="8.5553" cy="94.8889" gradientTransform="matrix(-1 0 0 1 212.6944 0)" gradientUnits="userSpaceOnUse" r="3.8333" xlink:href="#d"/><linearGradient id="g" gradientUnits="userSpaceOnUse" x1="42.4824" x2="190.6738" y1="37.1533" y2="185.3446"><stop offset="0" stop-color="#957527"/><stop offset=".3939" stop-color="#901919"/><stop offset=".7291" stop-color="#591d46"/><stop offset="1" stop-color="#35355d"/></linearGradient><path d="m106.889 0c51.944 0 88.989 2.11 101.667 3 2.877.202 5.222 2.338 5.222 5.222v203.806c0 2.884-2.338 5.222-5.222 5.222h-101.667-101.667c-2.884 0-5.222-2.338-5.222-5.222v-203.806c0-2.884 2.345-5.02 5.222-5.222 12.677-.89 49.722-3 101.667-3z" fill="#1b1e1e"/><path d="m193.935 15.275c0 1.918-1.598 3.445-3.514 3.349-17.385-.875-46.535-1.97-83.532-1.97-36.996 0-66.147 1.095-83.532 1.97-1.915.096-3.514-1.431-3.514-3.349 0-1.786 1.396-3.258 3.181-3.349 17.345-.878 46.632-1.987 83.865-1.987 37.235 0 66.521 1.109 83.865 1.987 1.785.09 3.181 1.562 3.181 3.349z" fill="url(#b)"/><path d="m193.935 27.552c0 1.918-1.598 3.445-3.514 3.349-17.385-.875-46.535-1.97-83.532-1.97-36.996 0-66.147 1.095-83.532 1.97-1.915.096-3.514-1.431-3.514-3.349 0-1.786 1.396-3.258 3.181-3.349 17.345-.878 46.632-1.987 83.865-1.987 37.235 0 66.521 1.109 83.865 1.987 1.785.09 3.181 1.562 3.181 3.349z" fill="url(#c)"/><path d="m19.843 198.838v-152.239c0-4.471 3.517-8.147 7.983-8.346 17.706-.789 45.074-1.669 79.063-1.669 33.991 0 61.357.88 79.063 1.669 4.466.199 7.983 3.875 7.983 8.346v152.239c0 3.787-3.07 6.856-6.856 6.856h-160.38c-3.786 0-6.856-3.069-6.856-6.856z" fill="#010202"/><circle cx="9.639" cy="94.889" fill="url(#e)" r="3.833"/><circle cx="204.139" cy="94.889" fill="url(#f)" r="3.833"/><g fill="#fff"><path d="m74.326 184.205c.368-.248.81-.352 1.252-.387.358-.029 1.243-.165 1.449.13.293.42.32 1.018.379 1.506.07.588.183 1.166.236 1.756.1 1.104.534 2.115.859 3.167.355 1.15.633 2.32.955 3.479.581-.693.776-1.599 1.157-2.393.469-.98.882-1.987 1.177-3.029.122-.43.143-.889.285-1.309.133-.391.409-.733.61-1.094.327-.588 1.003-1.552 1.691-1.797.484-.172.93-.015 1.417.028.506.044.995-.111 1.496-.084 1.12.062.632 1.966.569 2.654-.196 2.148-.055 4.228-.039 6.374.008 1.046-.031 2.081-.069 3.125-.019.522.151 2.485-.587 2.582-1.121.147-1.037-.998-1.047-1.757-.015-1.113-.083-2.221-.099-3.334-.031-2.124-.087-4.241-.16-6.364-.017-.489-.064-.983-.235-1.447-.371.052-.725.258-.921.568-.54.856-.738 1.883-1.214 2.77-.73 1.83-1.62 3.597-2.325 5.436-.285.742-.39 1.709-1.042 2.239-.393.319-1.28 1.447-1.809.919-.633-.632-.488-1.361-.613-2.195-.152-1.014-.411-2.009-.665-3.003-.247-.964-.383-1.986-.745-2.916-.259-.665-.078-1.752-.67-2.253-.128.454-.128.928-.167 1.394-.049.59-.186 1.161-.211 1.755-.048 1.152-.135 2.306-.183 3.454-.047 1.118-.143 2.234-.161 3.353-.69.599-1.733-.253-1.895-.916-.258-1.055-.017-2.379-.009-3.462.008-1.113-.014-2.231.089-3.341.25-1.022.191-2.186.252-3.233.029-.503.087-1.013.145-1.513.114-.405.515-.634.848-.862.754-.507-.334.229 0 0z"/><path d="m114.282 186.742c.438.069 1.099-.13 1.064.52-.039.747-.158 1.46-.143 2.217.03 1.618.016 3.267-.015 4.884-.016.842-.103 1.535.154 2.356.167.534.656 1.299-.142 1.586-.582.209-1.072-.481-1.322-.884-.364-.585-.631-1.034-.659-1.721-.629.017-1.034 1.216-1.656 1.531-.775.393-1.884.473-2.649.049-1.605-.891-2.276-2.979-2.296-4.67-.01-.856-.097-1.969.368-2.732.41-.673 1.129-1.301 1.729-1.821.645-.559 1.728-.717 2.557-.556.556.108 1.878.617 1.663 1.371-.288 1.012-1.697.11-2.397.128-.708.018-1.584 1.237-1.826 1.818-.349.836-.409 1.756-.366 2.647.04.82.532 1.508 1.035 2.151.759.97 1.458-.422 1.869-.992.551-.762.942-1.62 1.261-2.492.309-.844.803-1.705.834-2.609.017-.492-.086-1.052.119-1.512.204-.458.438-.92.818-1.269.359.056-.435.399 0 0z"/><path d="m104.471 189.039c.213-.584.563-1.525 1.413-1.03.358.208.023 1.003.02 1.34-.019.632-.11 1.251-.15 1.88-.069 1.078-.132 2.157-.169 3.237-.04 1.151-.18 2.295-.196 3.446-.013.905.059 1.659-.597 2.39-.64.713-1.665 1.1-2.605 1.288-1.064.212-2.012.304-3.102.215-.546-.045-1.089-.113-1.632-.185-.486-.068-.866.064-1.19-.374-.618-.834.758-.943 1.357-.923 1.015.034 1.953.293 2.964.139.768-.118 1.652-.329 2.134-.983.222-.301.289-.796.429-1.145.082-.204.149-.415.153-.635-.214-.129-.431-.317-.705-.281-.452.037-.887.215-1.346.18-.474.028-.931-.108-1.392-.191-.924-.166-1.734-.356-2.427-1.02-1.273-1.22-1.049-3.618.087-4.885.576-.642 1.452-1.273 2.201-1.711.501-.293 1.049-.404 1.611-.537.487-.116.929-.443 1.338-.021.392.406-.147.711-.524.974-.397.277-.832.496-1.244.751-.925.571-1.748 1.052-2.218 2.058-.266.569-.182.795.002 1.374.181.568.364.808.928 1.082.906.44 2.561.251 3.406-.279.829-.519.758-1.967.753-2.826-.003-.59-.04-1.187.071-1.771.142-.544.465-1.021.63-1.557.148-.404-.165.536 0 0z"/><path d="m91.728 188.758c.708-.093 2.07-.266 2.619.266.594.576.948 1.208.832 2.02-.102.715-.44 1.428-1.057 1.865-.727.514-1.732.601-2.561.902-.934.34-1.155.857-1.008 1.787.135.855 1.541 1.248 2.266 1.522.842.458 1.793.671 2.737.838.757.135 1.739.152 2.437.481.741.349.222 1.036-.363 1.164-.533.09-1.075.017-1.608-.034-.527-.051-1.06-.004-1.581-.106-1.013-.198-1.99-.543-2.94-.928-.764-.309-1.854-.584-2.281-1.326-.374-.65-.344-1.474-.453-2.19-.15-.978-.031-2.035-.002-3.021.028-.928.326-1.507 1.175-1.958.335-.178.687-.347.951-.622.259-.237.471-.56.837-.66.634-.083-.365.1 0 0zm.534 1.65c-.7.152-1.195.235-1.507.917-.131.285-.409.656-.325.978.079.305.662.083.944.038.632-.102 1.61-.255 1.858-.914.111-.296.112-.623.054-.93-.063-.333-.736-.166-1.024-.089-.45.097.321-.086 0 0z"/><path d="m118.614 184.33c-.083-.875 1.703-.098 2.107-.046 1.095.142 2.135.438 3.211.688.952.221 1.927.533 2.903.644.848.091 1.588.95 2.121 1.514.597.632.916 1.576 1.111 2.403.114.484.059.992.084 1.484.029.58.12 1.157.114 1.739-.008.825.01 1.969-.443 2.694-.487.781-1.531 1.168-2.322 1.595-.426.23-.866.485-1.345.595-.491.113-.995.179-1.472.342-1.059.362-2.136.811-3.146 1.283-.877.41-1.707.861-2.611 1.225-1.113.489-.879-1.071-.74-1.657.385-2.089.651-4.202 1.058-6.286.163-.836.641-1.757.414-2.617-.117-.443-.393-.759-.398-1.24-.004-.388-.01-1.255.337-1.452.771-.437 1.12-.147 1.577.517.385.56.644 1.208.684 1.882-.037 1.597-.331 3.216-.595 4.797-.119.714-.368 1.42-.443 2.139-.038.359.005.664.493.523.413-.114.819-.253 1.218-.406.719-.276 1.418-.596 2.127-.893.739-.31 1.304-.864 2.009-1.229.668-.347.986-.525 1.099-1.251.106-.804.094-1.616.1-2.425.005-.725-.438-1.19-.835-1.774-.359-.529-.844-1.219-1.413-1.561-.587-.352-1.442-.528-2.102-.721-.7-.205-1.423-.333-2.15-.406-1.407-.143-2.76-.479-2.752-2.1-.023-.241-.003.625 0 0z"/><path d="m144.517 187.624c1.895-.645 4.105.019 5.385 1.494.154.315-.153.613-.451.691-.38.099-.748-.201-1.038-.395-.728-.487-2.031-.922-2.831-.411-1.516.969-2.577 3.107-2.034 4.836.557 1.771 2.01 3.679 4.183 2.888.449-.163.916-.205 1.372-.342.471-.14.963-.232 1.458-.21 1.076.049-1.047 1.582-1.352 1.738-1.735.89-4.158.776-5.547-.608-.628-.626-1.065-1.16-1.341-2.008-.3-.922-.518-1.904-.491-2.871.049-1.653.981-4.09 2.687-4.802.738-.251-.528.221 0 0z"/><path d="m151.465 188.046c.12-.34.469-.522.816-.587.555-.104.454.395.426.808-.073 1.104-.064 2.091.206 3.165.109.435.086.884.204 1.313.125.455.737.147 1.087.022.409-.147.841-.149 1.251-.291.476-.165.91-.426 1.395-.57.757-.027 1.797.17 2.352.727.5.502 1.184 1.331.759 2.053-.172.292-.477.486-.75.682-.34.245-.244.52.147.715.371.204.673.498.97.789.25.245.822.561.834.936.053 1.687-3.937-.886-4.4-1.079-.888-.37-1.822-.782-2.761-1.016-.304-.076-.461-.208-.552.138-.06.228-.085.463-.095.697-.018.424.154 1.207-.124 1.561-.21.268-.593.321-.896.443-.304-.37-.415-.677-.419-1.147-.01-1.11-.005-2.235-.163-3.336-.147-1.023-.234-1.98-.26-3.011-.025-.981-.552-2.073-.027-3.012.161-.456-.394.705 0 0zm4.456 5.48c-.647.194-1.307.75-.417 1.129.57.243 1.465.236 2.072.132.422-.189 1.22-.488.635-1.008-.531-.474-1.622-.32-2.29-.253-.309.092.622-.062 0 0z"/><path d="m131.527 188.925c.805.015 1.564-.013 1.617.966.054.988-.1 1.964-.064 2.948.029.809.228 1.951.631 2.671.529.945 1.382 1.071 2.405 1.072.928.001 1.691-.358 2.114-1.192.184-.406.219-.851.304-1.281.107-.545.276-1.054.318-1.612.042-.554-.237-2.375.658-2.266 1.134.138.849 1.531.669 2.29-.17.946.171 1.975.446 2.876.157.514.287 1.035.418 1.555.117.464.323.924.129 1.393-.118.287-.353.556-.674.638-.415.106-.612-.249-.785-.557-.18-.321-.326-.673-.61-.926-.538.016-1.014.289-1.498.483-.902.363-1.775.575-2.738.303-.894-.253-1.954-.882-2.438-1.667-1.053-1.912-.651-4.084-.811-6.149-.04-.518-.092-1.023-.091-1.545.427.008 0 .253 0 0z"/><path d="m158.057 189.917h-.701v-2.615h-.898v-.56h2.496v.56h-.898v2.615z"/><path d="m160.862 189.917-.796-2.491h-.02c.029.507.043.845.043 1.014v1.477h-.626v-3.175h.954l.782 2.428h.014l.83-2.428h.954v3.175h-.653v-1.503c0-.071.001-.153.003-.245.002-.093.012-.339.031-.738h-.02l-.852 2.487h-.644z"/></g><path d="m193.935 182.083h-151.991v-144.392c16.881-.594 38.981-1.108 64.945-1.108 33.991 0 61.357.88 79.063 1.669 4.466.199 7.983 3.875 7.983 8.346z" fill="url(#g)"/><path d="m195.222 250.472h-176.555c-3.314 0-6-2.686-6-6v-27.222h188.556v27.222c-.001 3.314-2.687 6-6.001 6z" fill="#767568"/><g fill="#5d4a36"><path d="m22.104 245.139h-.071c-2.016 0-3.65-1.634-3.65-3.65v-24.239h7.372v24.239c-.001 2.016-1.635 3.65-3.651 3.65z"/><path d="m32.089 245.139h-.071c-2.016 0-3.65-1.634-3.65-3.65v-24.239h7.372v24.239c-.001 2.016-1.635 3.65-3.651 3.65z"/><path d="m42.075 245.139h-.071c-2.016 0-3.65-1.634-3.65-3.65v-24.239h7.372v24.239c-.001 2.016-1.635 3.65-3.651 3.65z"/><path d="m52.06 245.139h-.071c-2.016 0-3.65-1.634-3.65-3.65v-24.239h7.372v24.239c-.001 2.016-1.635 3.65-3.651 3.65z"/><path d="m62.046 245.139h-.071c-2.016 0-3.65-1.634-3.65-3.65v-24.239h7.372v24.239c-.001 2.016-1.635 3.65-3.651 3.65z"/><path d="m72.031 245.139h-.071c-2.016 0-3.65-1.634-3.65-3.65v-24.239h7.372v24.239c-.001 2.016-1.635 3.65-3.651 3.65z"/><path d="m82.016 245.139h-.071c-2.016 0-3.65-1.634-3.65-3.65v-24.239h7.372v24.239c0 2.016-1.634 3.65-3.651 3.65z"/><path d="m92.002 245.139h-.072c-2.016 0-3.65-1.634-3.65-3.65v-24.239h7.372v24.239c0 2.016-1.634 3.65-3.65 3.65z"/><path d="m101.987 245.139h-.071c-2.016 0-3.65-1.634-3.65-3.65v-24.239h7.372v24.239c0 2.016-1.635 3.65-3.651 3.65z"/><path d="m111.973 245.139h-.071c-2.016 0-3.65-1.634-3.65-3.65v-24.239h7.372v24.239c-.001 2.016-1.635 3.65-3.651 3.65z"/><path d="m121.958 245.139h-.071c-2.016 0-3.65-1.634-3.65-3.65v-24.239h7.372v24.239c0 2.016-1.635 3.65-3.651 3.65z"/><path d="m131.944 245.139h-.071c-2.016 0-3.65-1.634-3.65-3.65v-24.239h7.372v24.239c-.001 2.016-1.635 3.65-3.651 3.65z"/><path d="m141.929 245.139h-.071c-2.016 0-3.65-1.634-3.65-3.65v-24.239h7.372v24.239c0 2.016-1.635 3.65-3.651 3.65z"/><path d="m151.915 245.139h-.071c-2.016 0-3.65-1.634-3.65-3.65v-24.239h7.372v24.239c-.001 2.016-1.635 3.65-3.651 3.65z"/><path d="m161.9 245.139h-.071c-2.016 0-3.65-1.634-3.65-3.65v-24.239h7.372v24.239c0 2.016-1.635 3.65-3.651 3.65z"/><path d="m171.886 245.139h-.071c-2.016 0-3.65-1.634-3.65-3.65v-24.239h7.372v24.239c-.001 2.016-1.635 3.65-3.651 3.65z"/><path d="m181.871 245.139h-.071c-2.016 0-3.65-1.634-3.65-3.65v-24.239h7.372v24.239c-.001 2.016-1.635 3.65-3.651 3.65z"/><path d="m191.857 245.139h-.071c-2.016 0-3.65-1.634-3.65-3.65v-24.239h7.372v24.239c-.001 2.016-1.635 3.65-3.651 3.65z"/></g></svg>