<svg enable-background="new 0 0 30 30" viewBox="0 0 30 30" xmlns="http://www.w3.org/2000/svg"><path d="m22.776 14.147-1.756.201c0 .05-2.559-.753-2.609-2.408 0-.151 0-.251 0-.351h-1.756c0 .1-1.756.502-1.656.652 2.609 3.562 1.455 5.418.652 6.271-.201.201-.452.301-.753.301v1.505h-13.142c-1.555 0-.853 2.258-.853 3.512 0 2.258 2.207 6.12 10.485 6.12 7.425 0 12.241-2.408 12.241-6.12 0-2.609-.853-9.382-.853-9.683z" fill="#d5d5d5"/><path d="m22.776 14.147-1.605.201c.251 2.057.753 6.622.753 8.679 0 3.712-4.816 6.12-12.241 6.12-2.559 0-4.515-.351-6.07-.953 1.604 1.053 4.113 1.806 7.825 1.806 7.425 0 12.241-2.408 12.241-6.12-.05-2.659-.903-9.432-.903-9.733z" fill="#cacaca"/><path d="m8.829 24.582c-5.167 0-8.829-1.957-8.829-4.916 0-.502.401-.753.853-.753h15.753c.502 0 .853.251.853.753.049 3.01-3.462 4.916-8.63 4.916z" fill="#c9c9c9"/><path d="m16.656 18.913h-1.104c.502 0 .853.251.853.753 0 2.96-3.311 4.816-8.227 4.916h.602c5.217 0 8.729-1.906 8.729-4.916-.001-.502-.402-.753-.853-.753z" fill="#bfbfbf"/><ellipse cx="19.967" cy="10.084" fill="#d5d5d5" rx="5.518" ry="5.167"/><path d="m19.967 4.916c-.201 0-.351 0-.552.05 2.809.251 4.967 2.458 4.967 5.117s-2.207 4.866-4.967 5.117c.201 0 .351.05.552.05 3.06 0 5.518-2.308 5.518-5.167s-2.458-5.167-5.518-5.167z" fill="#cacaca"/><path d="m25.334 8.779c-.1 1.355-2.609 2.609-.652 3.963.351.151 1.555.452 2.609.351 1.856-.2 2.709-1.254 2.709-2.508 0-.702-.301-1.304-.753-1.304-.803 0-1.304.753-2.157.803-.903.1-1.404-.803-1.756-1.305z" fill="#999"/><path d="m26.388 10.134c.1 0 .201 0 .251-.05-.652-.201-1.054-.853-1.355-1.304 0 .251-.1.452-.201.652.352.401.753.752 1.305.702z" fill="#909090"/><path d="m29.247 9.331c-.151 0-.301.05-.452.1.301.201.452.652.452 1.204 0 1.254-.903 2.308-2.709 2.508-.05 0-.1 0-.151 0h.853c1.856-.201 2.709-1.254 2.709-2.508.051-.702-.25-1.304-.702-1.304z" fill="#909090"/><circle cx="20.92" cy="8.98" fill="#f5f5f5" r="1.104"/><circle cx="20.92" cy="8.98" fill="#242424" r=".702"/></svg>