<svg id="e09d38cd-efb6-45a7-a764-4aae2dae0fdd" data-name="texte" xmlns="http://www.w3.org/2000/svg" xmlns:xlink="http://www.w3.org/1999/xlink" viewBox="0 0 470.33 67.41"><defs><style>.fcd8abf5-9c33-455b-927a-97ed8e93ccbb{stroke:#9def48;stroke-miterlimit:10;stroke-width:0.75px;fill:url(#e0cf1ab3-34a7-4c64-9940-af152715b5d4);}.eeb1b7c3-d9bc-4ec7-a026-c0246f3923f1{fill:#9def48;}</style><linearGradient id="e0cf1ab3-34a7-4c64-9940-af152715b5d4" x1="0.38" y1="33.7" x2="469.96" y2="33.7" gradientUnits="userSpaceOnUse"><stop offset="0" stop-color="#032c02"/><stop offset="1" stop-color="#207a09"/></linearGradient></defs><polygon class="fcd8abf5-9c33-455b-927a-97ed8e93ccbb" points="0.38 5.91 102.44 5.91 108.57 0.38 150.31 0.38 158.22 5.91 461.65 6.11 469.96 16 469.96 59.72 50.81 59.72 42.7 67.03 7.89 67.03 0.38 59.72 0.38 5.91"/><path class="eeb1b7c3-d9bc-4ec7-a026-c0246f3923f1" d="M65.87,24.68H58.23a15.94,15.94,0,0,0-2.27,8,16,16,0,0,0,2.27,8h2.63v3.95H56.11A17.67,17.67,0,0,1,52,32.63a17.62,17.62,0,0,1,4.1-11.9h9.76V17H69.8v3.73h9.77a17.67,17.67,0,0,1,4.1,11.9,17.72,17.72,0,0,1-4.1,11.91H74.82V40.59h2.64a16.08,16.08,0,0,0,2.25-8,16,16,0,0,0-2.25-8H69.8V38.79H65.87Z" transform="translate(-0.06 -0.03)"/><path class="eeb1b7c3-d9bc-4ec7-a026-c0246f3923f1" d="M111.16,34.59H94.72a17.1,17.1,0,0,0,2.14,6h19.56l2.28,3.95h-24a17.11,17.11,0,0,1-4-9.95H87V30.66h3.73a17,17,0,0,1,4-9.93h24l-2.28,3.95H96.86a16.93,16.93,0,0,0-2.14,6h16.44Z" transform="translate(-0.06 -0.03)"/><path class="eeb1b7c3-d9bc-4ec7-a026-c0246f3923f1" d="M151.93,30.66c.06.64.08,1.3.08,2a17.67,17.67,0,0,1-4.1,11.91H124.46a17.67,17.67,0,0,1-4.1-11.91,17.62,17.62,0,0,1,4.1-11.9h23.45a16.6,16.6,0,0,1,3.57,7.09h-4.25a17.8,17.8,0,0,0-1.42-3.14H126.58a15.84,15.84,0,0,0-2.27,8,15.9,15.9,0,0,0,2.27,8h19.23a17.45,17.45,0,0,0,2.12-6H133.59V30.66Z" transform="translate(-0.06 -0.03)"/><path class="eeb1b7c3-d9bc-4ec7-a026-c0246f3923f1" d="M161.94,37.91l-4.16,6.63h-4.94L168,20.73h4.55l15,23.81h-4.87l-4.12-6.63ZM176.09,34l-5.81-9.31L164.42,34Z" transform="translate(-0.06 -0.03)"/><path class="eeb1b7c3-d9bc-4ec7-a026-c0246f3923f1" d="M200.81,20.73H227a17.67,17.67,0,0,1,4.1,11.9A17.72,17.72,0,0,1,227,44.54H200.81Zm3.95,19.86h20.17a16.09,16.09,0,0,0,2.26-8,16,16,0,0,0-2.26-8H204.76Z" transform="translate(-0.06 -0.03)"/><path class="eeb1b7c3-d9bc-4ec7-a026-c0246f3923f1" d="M240.68,40.59h19.23a16,16,0,0,0,2.26-8,16.09,16.09,0,0,0-2.26-8h-2.64V20.73H262a17.71,17.71,0,0,1,4.1,11.9A17.68,17.68,0,0,1,262,44.54H238.56a17.63,17.63,0,0,1-4.1-11.91,17.66,17.66,0,0,1,4.1-11.9h4.75v3.95h-2.63a16,16,0,0,0-2.27,8A16,16,0,0,0,240.68,40.59Z" transform="translate(-0.06 -0.03)"/><path class="eeb1b7c3-d9bc-4ec7-a026-c0246f3923f1" d="M296.32,37.45h4.25A16.83,16.83,0,0,1,297,44.54H273.54a17.67,17.67,0,0,1-4.1-11.91,17.66,17.66,0,0,1,4.1-11.9H297a16.83,16.83,0,0,1,3.57,7.09h-4.25a17.86,17.86,0,0,0-1.43-3.14H275.66a15.94,15.94,0,0,0-2.27,8,16,16,0,0,0,2.27,8h19.23A18.55,18.55,0,0,0,296.32,37.45Z" transform="translate(-0.06 -0.03)"/><path class="eeb1b7c3-d9bc-4ec7-a026-c0246f3923f1" d="M308.67,34.59v9.95h-3.95V24.1l3.95-4V30.66h6.6l12.22-9.93h6.41l-14.66,11.9L333.9,44.54h-6.41l-12.25-9.95Z" transform="translate(-0.06 -0.03)"/></svg>