<svg id="b77e9b4b-f141-4047-8114-a8c7c5d719dc" data-name="texte" xmlns="http://www.w3.org/2000/svg" xmlns:xlink="http://www.w3.org/1999/xlink" viewBox="0 0 470.33 67.41"><defs><style>.ad9649b1-85e7-407b-8759-eefb5782e964{stroke:#9def48;stroke-miterlimit:10;stroke-width:0.75px;fill:url(#a522afe5-1f46-4f8b-a716-ff9432988851);}.f3ed76c2-30d6-4e2b-9cf2-c3d001093ccc{fill:#9def48;}</style><linearGradient id="a522afe5-1f46-4f8b-a716-ff9432988851" x1="0.38" y1="33.7" x2="469.96" y2="33.7" gradientUnits="userSpaceOnUse"><stop offset="0" stop-color="#032c02"/><stop offset="1" stop-color="#207a09"/></linearGradient></defs><polygon class="ad9649b1-85e7-407b-8759-eefb5782e964" points="0.38 5.91 102.44 5.91 108.57 0.38 150.31 0.38 158.22 5.91 461.65 6.11 469.96 16 469.96 59.72 50.81 59.72 42.7 67.03 7.89 67.03 0.38 59.72 0.38 5.91"/><path class="f3ed76c2-30d6-4e2b-9cf2-c3d001093ccc" d="M71,37.06l-3.67,5.85H63l13.34-21h4l13.25,21h-4.3l-3.63-5.85Zm12.48-3.47-5.12-8.22L73.2,33.59Z" transform="translate(-0.06 -0.03)"/><path class="f3ed76c2-30d6-4e2b-9cf2-c3d001093ccc" d="M118,36.65h3.75a14.66,14.66,0,0,1-3.14,6.26H97.94A15.6,15.6,0,0,1,94.32,32.4a15.55,15.55,0,0,1,3.62-10.5h20.7a14.6,14.6,0,0,1,3.14,6.26H118a14.84,14.84,0,0,0-1.26-2.77h-17a14,14,0,0,0-2,7,14,14,0,0,0,2,7h17A15.77,15.77,0,0,0,118,36.65Z" transform="translate(-0.06 -0.03)"/><path class="f3ed76c2-30d6-4e2b-9cf2-c3d001093ccc" d="M138.86,39.93l-3.48,3.49v-18H124V21.9h26.28v3.49h-11.4Z" transform="translate(-0.06 -0.03)"/><path class="f3ed76c2-30d6-4e2b-9cf2-c3d001093ccc" d="M158.14,42.91h-3.48v-18l3.48-3.48Z" transform="translate(-0.06 -0.03)"/><path class="f3ed76c2-30d6-4e2b-9cf2-c3d001093ccc" d="M186.85,42.91h-20.7a15.64,15.64,0,0,1-3.61-10.51,15.56,15.56,0,0,1,3.61-10.5h20.7a15.57,15.57,0,0,1,3.62,10.5A15.65,15.65,0,0,1,186.85,42.91ZM185,39.42a14.09,14.09,0,0,0,2-7,14,14,0,0,0-2-7H168a14,14,0,0,0-2,7,14,14,0,0,0,2,7Z" transform="translate(-0.06 -0.03)"/><path class="f3ed76c2-30d6-4e2b-9cf2-c3d001093ccc" d="M198.89,25.39a14,14,0,0,0-2,7,14.11,14.11,0,0,0,2,7h2.32v3.49H197A15.65,15.65,0,0,1,193.4,32.4,15.57,15.57,0,0,1,197,21.9h20.7a15.57,15.57,0,0,1,3.62,10.5,15.65,15.65,0,0,1-3.62,10.51h-4.19V39.42h2.33a14.19,14.19,0,0,0,2-7,14.13,14.13,0,0,0-2-7Z" transform="translate(-0.06 -0.03)"/></svg>