<svg xmlns="http://www.w3.org/2000/svg" xmlns:xlink="http://www.w3.org/1999/xlink" viewBox="0 0 470.33 67.41"><defs><style>.acb3971a-4dcd-442d-b23b-8670a1520020{stroke:#9def48;stroke-miterlimit:10;stroke-width:0.75px;fill:url(#eb86c6db-050e-4451-923c-f2757dcb4fae);}.e26507ae-fde6-483d-9cc9-6c9ec4e8ae9f{fill:#9def48;}.f927833d-5c91-4f42-af5a-8317cb30aa9e{fill:#9c2249;}.fd6799e3-a3b5-4639-9efc-0d4912e25c57{fill:#fff;}</style><linearGradient id="eb86c6db-050e-4451-923c-f2757dcb4fae" x1="0.38" y1="33.7" x2="469.96" y2="33.7" gradientUnits="userSpaceOnUse"><stop offset="0" stop-color="#032c02"/><stop offset="1" stop-color="#207a09"/></linearGradient></defs><g id="e9fc651c-2ca5-4b60-8301-0d4b92337562" data-name="texte"><polygon class="acb3971a-4dcd-442d-b23b-8670a1520020" points="0.38 5.91 102.44 5.91 108.57 0.38 150.31 0.38 158.22 5.91 461.65 6.11 469.96 16 469.96 59.72 50.81 59.72 42.7 67.03 7.89 67.03 0.38 59.72 0.38 5.91"/><path class="e26507ae-fde6-483d-9cc9-6c9ec4e8ae9f" d="M84.1,30.25c.06.66.08,1.34.08,2A18.18,18.18,0,0,1,80,44.54H55.82a18.19,18.19,0,0,1-4.23-12.26A18.14,18.14,0,0,1,55.82,20H80a17.13,17.13,0,0,1,3.68,7.3H79.26a17.47,17.47,0,0,0-1.47-3.23H58a16.32,16.32,0,0,0-2.34,8.18A16.38,16.38,0,0,0,58,40.47H77.79A17.83,17.83,0,0,0,80,34.3H65.21v-4Z" transform="translate(-0.13 -0.13)"/><path class="e26507ae-fde6-483d-9cc9-6c9ec4e8ae9f" d="M115.22,44.54,103.43,35,91.64,44.54H85l15.09-12.26L85,20h6.6l11.79,9.57L115.22,20h6.6L106.73,32.28l15.09,12.26Z" transform="translate(-0.13 -0.13)"/><path class="e26507ae-fde6-483d-9cc9-6c9ec4e8ae9f" d="M156.41,24.1V20h4.88a17.53,17.53,0,0,1,4.14,10.22h3.84v4h-3.84a17.62,17.62,0,0,1-4.14,10.24h-4.88V40.47h2.7a17.66,17.66,0,0,0,2.2-6.17H136.48l-1.85-2A18.18,18.18,0,0,1,138.85,20h4.89V24.1H141a17.27,17.27,0,0,0-2.19,6.15h22.47a17.49,17.49,0,0,0-2.2-6.15Z" transform="translate(-0.13 -0.13)"/><path class="e26507ae-fde6-483d-9cc9-6c9ec4e8ae9f" d="M201.06,44.54H176.91a18.23,18.23,0,0,1-4.22-12.26A18.18,18.18,0,0,1,176.91,20h24.15a18.13,18.13,0,0,1,4.22,12.25A18.18,18.18,0,0,1,201.06,44.54Zm-2.17-4.07a16.47,16.47,0,0,0,2.33-8.19,16.41,16.41,0,0,0-2.33-8.18H179.1a16.32,16.32,0,0,0-2.34,8.18,16.38,16.38,0,0,0,2.34,8.19ZM187,35.36V29.21h4v6.15Z" transform="translate(-0.13 -0.13)"/><path class="e26507ae-fde6-483d-9cc9-6c9ec4e8ae9f" d="M237.07,44.54H212.92a18.23,18.23,0,0,1-4.22-12.26A18.18,18.18,0,0,1,212.92,20h24.15a18.18,18.18,0,0,1,4.22,12.25A18.23,18.23,0,0,1,237.07,44.54Zm-2.17-4.07a16.45,16.45,0,0,0,2.32-8.19,16.39,16.39,0,0,0-2.32-8.18H215.11a16.32,16.32,0,0,0-2.34,8.18,16.38,16.38,0,0,0,2.34,8.19ZM223,35.36V29.21H227v6.15Z" transform="translate(-0.13 -0.13)"/><path class="e26507ae-fde6-483d-9cc9-6c9ec4e8ae9f" d="M273.08,44.54H248.93a18.23,18.23,0,0,1-4.22-12.26A18.18,18.18,0,0,1,248.93,20h24.15a18.18,18.18,0,0,1,4.22,12.25A18.23,18.23,0,0,1,273.08,44.54Zm-2.17-4.07a16.45,16.45,0,0,0,2.32-8.19,16.39,16.39,0,0,0-2.32-8.18H251.12a16.32,16.32,0,0,0-2.34,8.18,16.38,16.38,0,0,0,2.34,8.19ZM259,35.36V29.21h4v6.15Z" transform="translate(-0.13 -0.13)"/></g><g id="b1ca8115-e12f-4d70-9b24-d14d1f2260a2" data-name="amstrad"><path class="f927833d-5c91-4f42-af5a-8317cb30aa9e" d="M14,29V16.73L36.7,28.16V40.42Z" transform="translate(-0.13 -0.13)"/><path class="fd6799e3-a3b5-4639-9efc-0d4912e25c57" d="M18,62.57l14.7,1.74v-2.7l-3-.27V60.06l3-.22V56.91L18,58.92Zm2.54-1.85,6.71-.42v.85ZM18,56.36l14.69,0V53.51H24.1l8.59-1.16V50.57L24.1,49.44h8.59V46.59H18v4l6.54.91L18,52.23Zm.12-17.8H20.4v-1.5H32.64V33.94H20.4v-1.6H18.12Zm0,4.09c0,1.78-.24,2.44.46,3,.89.68,2.72.41,4.86.4,1.72,0,2.61-3.93,3.65-4H30c.45,0,.3,1-.11,1H26.7v3l2.47,0c3.11.06,3.57,0,3.55-3.63,0-1.74,0-2.15-.22-2.48a2.14,2.14,0,0,0-.81-.68c-.53-.25-.78-.27-3.22-.23H26c-.62,0-1.69,1.44-2.09,2.21s-.5,1.84-2.06,1.86c-1.27,0-1.5,0-1.51-.52s.26-.43,2.63-.47V38.93C17.93,38.93,18.14,39.12,18.13,42.65Zm0-10.95,14.52-.09v-3l-5.87,0c0-1.07-.35-1,5.92-.92l0-3.15c-5.77.11-6.1-.12-7.28,1.31-.8-1.28-1.29-1.16-3.69-1.19s-2.62.05-3.24.72S18.07,26.53,18.15,31.7Zm2.26-3.07c0-1.16.33-.94,1.83-.94s1.89-.2,1.9.95ZM18.33,15.82s14.17.21,14.4.11h0l0-5.4c0-2-1.33-1.67-7-1.71-6.53,0-7.43,0-7.43,1.49Zm7.12-3.92c4.77,0,4.89-.09,4.92.81l-9.86.06C20.51,11.81,21.28,11.93,25.45,11.9ZM18.17,22.14l14.71,1.73V21.18l-3-.27V19.63l3-.22V16.48l-14.7,2Zm2.54-1.85,6.71-.42v.85Z" transform="translate(-0.13 -0.13)"/></g></svg>