<svg id="f6a20a29-c719-499a-b481-b423545d1cca" data-name="Calque 1" xmlns="http://www.w3.org/2000/svg" xmlns:xlink="http://www.w3.org/1999/xlink" viewBox="0 0 747.48 822.76"><defs><style>.a89f5336-0d39-49da-86d6-391bd459cd55,.ee631647-4a30-4b2a-b9f2-c6f363a6c37e,.febf2335-b6fb-49ef-a33e-05bbb982b088{fill:#373735;}.ee631647-4a30-4b2a-b9f2-c6f363a6c37e{opacity:0.5;}.e89fac54-3569-43f9-b7e0-1d36027217df{fill:#121211;}.a36668de-9a2a-4158-a767-f6699598f428,.a6c4db7e-35fa-4434-81b8-5b32ea714dda,.ab70c85d-ab28-4f67-8333-92b9d32f3c2e,.ade785f4-0e56-4d36-abb1-caabc60fdc1a,.b25aefdb-c64c-4767-a7fa-96d82a83ace4,.be882cee-a197-4530-b1a8-7cb84eb4a0f4,.e89fac54-3569-43f9-b7e0-1d36027217df,.f0af8c7e-433c-4d07-8f9a-5fa6f0f83bdd,.febf2335-b6fb-49ef-a33e-05bbb982b088{stroke:#b5b5b5;}.a22a42f0-4e1e-4502-b0ec-671e4b7973bb,.a36668de-9a2a-4158-a767-f6699598f428,.a6c4db7e-35fa-4434-81b8-5b32ea714dda,.ab70c85d-ab28-4f67-8333-92b9d32f3c2e,.ade785f4-0e56-4d36-abb1-caabc60fdc1a,.ae0aae3c-1479-48f7-aab7-d5528f28215b,.b25aefdb-c64c-4767-a7fa-96d82a83ace4,.be882cee-a197-4530-b1a8-7cb84eb4a0f4,.e89fac54-3569-43f9-b7e0-1d36027217df,.ea958e76-8b3a-479a-8490-e42520b7f331,.f0af8c7e-433c-4d07-8f9a-5fa6f0f83bdd,.febf2335-b6fb-49ef-a33e-05bbb982b088,.ff6257c6-e3fb-4402-b474-6184c2ceedbc{stroke-miterlimit:10;}.ab70c85d-ab28-4f67-8333-92b9d32f3c2e,.ade785f4-0e56-4d36-abb1-caabc60fdc1a,.b25aefdb-c64c-4767-a7fa-96d82a83ace4,.be882cee-a197-4530-b1a8-7cb84eb4a0f4,.e89fac54-3569-43f9-b7e0-1d36027217df,.ea958e76-8b3a-479a-8490-e42520b7f331,.f0af8c7e-433c-4d07-8f9a-5fa6f0f83bdd{stroke-width:0.5px;}.a22a42f0-4e1e-4502-b0ec-671e4b7973bb{fill:#443840;}.a22a42f0-4e1e-4502-b0ec-671e4b7973bb,.ea958e76-8b3a-479a-8490-e42520b7f331,.ff6257c6-e3fb-4402-b474-6184c2ceedbc{stroke:#090000;}.a22a42f0-4e1e-4502-b0ec-671e4b7973bb,.ff6257c6-e3fb-4402-b474-6184c2ceedbc{stroke-width:0.75px;}.ea958e76-8b3a-479a-8490-e42520b7f331{fill:#6b0c05;}.eeae12b7-acb9-47f0-87fe-6c819d420acb{fill:#86382f;}.ff6257c6-e3fb-4402-b474-6184c2ceedbc{fill:#8b8b8b;}.ae0aae3c-1479-48f7-aab7-d5528f28215b{stroke:#373737;}.a6c4db7e-35fa-4434-81b8-5b32ea714dda,.ade785f4-0e56-4d36-abb1-caabc60fdc1a{fill:#bf0000;}.a36668de-9a2a-4158-a767-f6699598f428{fill:#b74949;}.ab70c85d-ab28-4f67-8333-92b9d32f3c2e{fill:#dc6e05;}.b25aefdb-c64c-4767-a7fa-96d82a83ace4{fill:#12e600;}.be882cee-a197-4530-b1a8-7cb84eb4a0f4{fill:#0b47ce;}.a63cb7bf-7867-435d-aef6-55325efbf919,.f0af8c7e-433c-4d07-8f9a-5fa6f0f83bdd{fill:#282826;}.a8d97b90-ad7d-4ee2-961b-61f890d09d50{fill:#151312;}.fa414340-77b2-4e36-bfcc-f88eab321b96{fill:#555353;}.be83eda5-03ad-411b-9a0f-2761f3b917cb{fill:#008aa6;}.e32f98c9-bf17-4d7f-99b8-98b5c43af619{fill:#ae7a82;}.be15522d-e3d2-459a-920a-677319bf623e{fill:url(#fee881a7-bed6-48e7-8e00-b2ab79e1dbbd);}.bfe6058c-3190-4f04-9020-b6b4ed5fe02d{fill:url(#aea718b9-b320-4155-8d06-1e91dba9fdd4);}.b1f21157-dec1-40ce-8ba2-6cdde85dc94f{fill:#0000ef;}.bdec017c-96f7-41c9-9640-4cd8feca90c8{fill:url(#e5a012e8-5f86-4bbc-a579-b0f4e1075464);}.a0306275-69fe-4c20-a95f-0e07556944a6{fill:url(#aae92112-e574-49ad-8d0e-e730aa35b3cc);}.f4789f27-1342-43d1-910a-0f9a98b6b3eb{fill:url(#be4d117c-243b-4feb-a824-717a5df8eaec);}.bcbd5add-4fc9-4180-b447-d6c403fc34d4{fill:url(#a4aa18db-3ce4-4bee-b401-71811f7c84d8);}.f6836518-e7df-4067-bde9-5000d97e6523{fill:url(#faeb1a79-c441-4429-b409-e2fefab64e18);}.e6764aa0-c709-4604-a7df-6d97504dfefe{fill:url(#a9a2bfc5-9b62-41a8-837e-0a6d8bc5f48a);}.eba15e1a-653f-4d8a-a979-afba3b5e60d0{fill:#930303;}.b87dc18c-b123-465a-b870-fb00d40aec28{fill:url(#a6492793-b73c-4105-add4-a9f09298b0a0);}.e9caa3d3-17cb-4e1c-9a74-f89e5e98b295{fill:url(#f17d41a8-39df-4f27-a2cf-e05d18d383f4);}.a4d28ee7-8830-47b6-80c5-8937a5e0a55f{fill:url(#ac56026d-9c84-4079-8da0-da1331e9a5b6);}.a6ce251c-636a-4eee-826c-0b2160063c56{fill:url(#b272d810-928e-4fa1-b51d-7d0f9081ddfb);}.acc5fb77-d258-4228-ad2a-1d04bbe3c89b{fill:url(#b7f9ead4-4d78-49a4-a40c-2f9c1176c29b);}.a6d9aa89-6828-4586-8bb3-20b3d9634d8e{fill:url(#b40b5928-476e-444e-984c-4eec2e8c792d);}.bcbd1f4f-3202-47f3-9d6b-fbcb2809ad44{fill:#e7e7e7;}.f35cbf79-5dbc-4083-9252-b6aec88d09ce{fill:#2c2b29;}.ed620708-4498-496e-a94d-1c76aa58fa94{fill:#2785db;}.a42f8021-2a1f-4d17-956c-d07036652b98{fill:#44c047;}.b9dc3be3-f021-4945-a7a0-6fa1f263588a{fill:#eb1416;}.baaff3cd-dda7-4af0-8adc-65ec99b99bfe{fill:url(#b258c269-d53c-4305-9521-99c9d2656f59);}</style><radialGradient id="fee881a7-bed6-48e7-8e00-b2ab79e1dbbd" cx="65.88" cy="348.77" r="11.47" gradientUnits="userSpaceOnUse"><stop offset="0" stop-color="#fd6d66"/><stop offset="0.78" stop-color="#b50a03"/></radialGradient><radialGradient id="aea718b9-b320-4155-8d06-1e91dba9fdd4" cx="195.83" cy="370.99" r="11.47" xlink:href="#fee881a7-bed6-48e7-8e00-b2ab79e1dbbd"/><radialGradient id="e5a012e8-5f86-4bbc-a579-b0f4e1075464" cx="92.36" cy="393.88" r="5.66" gradientTransform="translate(0 157.55) scale(1 0.6)" gradientUnits="userSpaceOnUse"><stop offset="0" stop-color="#0000ef"/><stop offset="0.15" stop-color="#0000e9"/><stop offset="0.34" stop-color="#0101d9"/><stop offset="0.56" stop-color="#0101be"/><stop offset="0.79" stop-color="#02029a"/><stop offset="1" stop-color="#020282"/></radialGradient><radialGradient id="aae92112-e574-49ad-8d0e-e730aa35b3cc" cx="114.61" cy="393.88" r="5.66" xlink:href="#e5a012e8-5f86-4bbc-a579-b0f4e1075464"/><radialGradient id="be4d117c-243b-4feb-a824-717a5df8eaec" cx="133.17" cy="400.04" r="5.66" gradientTransform="translate(0 160.02) scale(1 0.6)" xlink:href="#e5a012e8-5f86-4bbc-a579-b0f4e1075464"/><radialGradient id="a4aa18db-3ce4-4bee-b401-71811f7c84d8" cx="139.21" cy="387.78" r="5.66" gradientTransform="translate(0 155.11) scale(1 0.6)" xlink:href="#e5a012e8-5f86-4bbc-a579-b0f4e1075464"/><radialGradient id="faeb1a79-c441-4429-b409-e2fefab64e18" cx="121.61" cy="382.1" r="5.66" gradientTransform="translate(0 152.84) scale(1 0.6)" xlink:href="#e5a012e8-5f86-4bbc-a579-b0f4e1075464"/><radialGradient id="a9a2bfc5-9b62-41a8-837e-0a6d8bc5f48a" cx="100.32" cy="382.53" r="5.66" gradientTransform="translate(0 153.01) scale(1 0.6)" xlink:href="#e5a012e8-5f86-4bbc-a579-b0f4e1075464"/><radialGradient id="a6492793-b73c-4105-add4-a9f09298b0a0" cx="225.51" cy="404.67" r="5.66" xlink:href="#fee881a7-bed6-48e7-8e00-b2ab79e1dbbd"/><radialGradient id="f17d41a8-39df-4f27-a2cf-e05d18d383f4" cx="246.79" cy="404.24" r="5.66" xlink:href="#fee881a7-bed6-48e7-8e00-b2ab79e1dbbd"/><radialGradient id="ac56026d-9c84-4079-8da0-da1331e9a5b6" cx="264.4" cy="409.93" r="5.66" xlink:href="#fee881a7-bed6-48e7-8e00-b2ab79e1dbbd"/><radialGradient id="b272d810-928e-4fa1-b51d-7d0f9081ddfb" cx="258.36" cy="422.19" r="5.66" xlink:href="#fee881a7-bed6-48e7-8e00-b2ab79e1dbbd"/><radialGradient id="b7f9ead4-4d78-49a4-a40c-2f9c1176c29b" cx="239.79" cy="416.02" r="5.66" xlink:href="#fee881a7-bed6-48e7-8e00-b2ab79e1dbbd"/><radialGradient id="b40b5928-476e-444e-984c-4eec2e8c792d" cx="217.55" cy="416.02" r="5.66" xlink:href="#fee881a7-bed6-48e7-8e00-b2ab79e1dbbd"/><linearGradient id="b258c269-d53c-4305-9521-99c9d2656f59" x1="133.31" y1="314.73" x2="373.7" y2="314.73" gradientTransform="matrix(0.99, 0.15, 0.15, -0.99, -97.91, 375.72)" gradientUnits="userSpaceOnUse"><stop offset="0" stop-color="#bf0000"/><stop offset="0.25" stop-color="#fae00b"/><stop offset="0.5" stop-color="#19e368"/><stop offset="0.75" stop-color="#25b4ef"/><stop offset="1" stop-color="#001cc0"/></linearGradient></defs><polygon id="bfc77a19-6e7f-4769-b89e-359a1500ea97" data-name="ombre" class="ee631647-4a30-4b2a-b9f2-c6f363a6c37e" points="453 589.31 474.52 583.4 482.43 583.4 486.38 583.4 487.97 586.36 725.33 629.66 736.41 629.66 747.48 661.05 701.07 698.76 654.65 711.95 646.47 710.63 646.74 708.78 632.76 706.15 549.15 734.1 475.83 785.67 453 792.49 445.24 791.33 445.24 788.7 429.15 785.67 299.16 820.04 453 589.31"/><g id="f0bd8f72-a322-4c3d-9d9d-f012a59cfe70" data-name="bottom"><polygon class="a89f5336-0d39-49da-86d6-391bd459cd55" points="36.97 455.08 261.88 494.7 261.88 499.05 287.59 505.18 287.2 816.52 38.96 769.25 36.97 455.08"/><path class="e89fac54-3569-43f9-b7e0-1d36027217df" d="M202,526.54,123.62,512.8c-3,.19-4.26,3.56-4.26,3.56l.2,85c.69,2.18,3.86,5,3.86,5l74.27,13.46c5.14.49,7.52-5.25,7.52-5.25V531.88A7.12,7.12,0,0,0,202,526.54ZM152.1,549.09l-18.69-3.46v-20l2.27-1.88,18.1,3.07L152,529.51Zm31.45,6.13-18.69-3.46v-20l2.27-1.87,18.1,3.06-1.78,2.67Z"/><polygon class="a22a42f0-4e1e-4502-b0ec-671e4b7973bb" points="135.68 523.77 133.41 525.65 133.41 545.63 152.1 549.09 152 529.51 153.78 526.84 135.68 523.77"/><polygon class="a22a42f0-4e1e-4502-b0ec-671e4b7973bb" points="167.13 529.9 164.86 531.78 164.86 551.76 183.55 555.22 183.45 535.64 185.23 532.97 167.13 529.9"/><polygon class="ea958e76-8b3a-479a-8490-e42520b7f331" points="141.12 543.55 141.12 530.7 149.13 532.48 149.13 545.04 141.12 543.55"/><polygon class="ea958e76-8b3a-479a-8490-e42520b7f331" points="172.18 549.39 172.18 536.53 180.19 538.31 180.19 550.87 172.18 549.39"/><polygon points="136.21 543.68 136.21 528.46 138.25 528.85 138.25 544.01 136.21 543.68"/><polygon points="167.66 549.22 167.66 533.99 169.7 534.39 169.7 549.55 167.66 549.22"/><polygon class="eeae12b7-acb9-47f0-87fe-6c819d420acb" points="141.38 531.21 141.38 530.86 148.85 532.66 148.86 533.09 141.38 531.21"/><polygon class="eeae12b7-acb9-47f0-87fe-6c819d420acb" points="172.44 537.14 172.44 536.85 179.9 538.49 179.92 538.84 172.44 537.14"/><circle class="ff6257c6-e3fb-4402-b474-6184c2ceedbc" cx="193.37" cy="575.37" r="4.25"/><polygon class="ae0aae3c-1479-48f7-aab7-d5528f28215b" points="137.26 599.24 137.26 587.96 149.23 590.14 149.23 601.44 137.26 599.24"/><polygon class="ae0aae3c-1479-48f7-aab7-d5528f28215b" points="168.52 604.77 168.52 593.5 180.48 595.67 180.48 606.55 168.52 604.77"/></g><g id="e58ac596-73f2-4d1a-8e8e-e917a56e14e8" data-name="t molding"><path class="a6c4db7e-35fa-4434-81b8-5b32ea714dda" d="M11.46,450.59l-.79-39.76L1,407.66v45.1l27.89,5.54c.59,103.55,1,207.6,1.58,311.15A6.18,6.18,0,0,0,34,771.64a12.58,12.58,0,0,0,5,0L37,455.08Z"/><path class="a6c4db7e-35fa-4434-81b8-5b32ea714dda" d="M272.36,497V455.73l-10.28-1.19-.2,44.51,25.71,6.13s-1.51,313.85,0,315.69,8.77,1.32,8.77,1.32l.93-319.91Z"/><polygon class="a6c4db7e-35fa-4434-81b8-5b32ea714dda" points="79.7 346.94 71.55 345.64 87.81 127.08 96.84 128.59 79.7 346.94"/><polygon class="a6c4db7e-35fa-4434-81b8-5b32ea714dda" points="330.22 389.37 339.32 390.65 357.81 166.34 331.44 166.34 331.18 75.42 321.12 73.58 321.12 168.42 327.15 169.51 347.43 169.51 330.22 389.37"/><path class="a6c4db7e-35fa-4434-81b8-5b32ea714dda" d="M88.49,127.19s-28.17-.35-29.11-.85c0-31.21.06-62.83,0-94l9.36,2.64L69.22,124Z"/><g id="be5278ea-c615-431d-8754-cd601aadf0e7" data-name="clair"><polygon class="a36668de-9a2a-4158-a767-f6699598f428" points="0.98 407.66 10.67 410.83 78.98 346.77 70.87 344.83 0.98 407.66"/><polygon class="a36668de-9a2a-4158-a767-f6699598f428" points="262.08 454.54 272.36 455.73 339.32 389.86 330.7 388.26 262.08 454.54"/><polygon class="a36668de-9a2a-4158-a767-f6699598f428" points="112.54 0.52 59.4 32.3 68.76 34.94 121.34 3.82 124.08 2.2 121.5 1.84 112.54 0.52"/><polygon class="a36668de-9a2a-4158-a767-f6699598f428" points="384.71 41.14 373.5 40.34 321.12 73.58 331.18 75.42 384.71 41.14"/></g></g><g id="b8764ab0-6105-48bd-b522-19ccfc266424" data-name="side"><polygon class="e89fac54-3569-43f9-b7e0-1d36027217df" points="454.11 309.16 454.74 149.53 384.71 41.14 331.18 75.42 331.44 166.34 357.81 166.34 339.32 390.65 272.36 455.73 272.36 497 297.29 502.28 296.36 822.19 304.61 815.87 454.25 272.17 454.04 293.68 311.95 810.23 310.34 811.47 317.28 806.15 454.11 309.16 454.11 309.16"/><polygon class="e89fac54-3569-43f9-b7e0-1d36027217df" points="325.04 799.67 317.28 806.15 329.27 796.95 453.97 343.71 454.02 331.58 325.04 799.67"/><polygon class="e89fac54-3569-43f9-b7e0-1d36027217df" points="336.41 791.47 335.09 792.49 341.95 787.22 453.75 379.58 453.75 400.83 453.97 343.71 453.75 367.71 336.41 791.47"/><polygon class="e89fac54-3569-43f9-b7e0-1d36027217df" points="343.97 785.67 452.56 702.39 453.74 402.55 348.38 782.3 343.97 785.67"/><polygon class="ade785f4-0e56-4d36-abb1-caabc60fdc1a" points="304.61 815.87 310.34 811.47 304.61 815.87 304.61 815.87"/><polygon class="ade785f4-0e56-4d36-abb1-caabc60fdc1a" points="454.04 293.68 454.25 272.17 304.61 815.87 310.34 811.47 311.95 810.23 454.04 293.68"/><polygon class="ab70c85d-ab28-4f67-8333-92b9d32f3c2e" points="454.11 331.26 454.11 309.16 454.02 331.58 454.11 331.26"/><polygon class="ab70c85d-ab28-4f67-8333-92b9d32f3c2e" points="317.28 806.15 317.28 806.15 317.28 806.15 317.28 806.15"/><polygon class="ab70c85d-ab28-4f67-8333-92b9d32f3c2e" points="454.02 331.58 454.11 309.16 454.11 309.16 317.28 806.15 317.28 806.15 325.04 799.67 454.02 331.58"/><polygon class="b25aefdb-c64c-4767-a7fa-96d82a83ace4" points="453.97 343.71 453.97 343.71 453.97 343.71 453.97 343.71"/><polygon class="b25aefdb-c64c-4767-a7fa-96d82a83ace4" points="329.27 796.95 335.09 792.49 329.27 796.95 329.27 796.95"/><polygon class="b25aefdb-c64c-4767-a7fa-96d82a83ace4" points="335.09 792.49 336.41 791.47 453.75 367.71 453.97 343.71 453.97 343.71 329.27 796.95 335.09 792.49"/><polygon class="be882cee-a197-4530-b1a8-7cb84eb4a0f4" points="341.95 787.22 343.97 785.67 341.95 787.22 341.95 787.22"/><polygon class="be882cee-a197-4530-b1a8-7cb84eb4a0f4" points="453.75 402.52 453.75 400.83 453.74 402.55 453.75 402.52"/><polygon class="be882cee-a197-4530-b1a8-7cb84eb4a0f4" points="341.95 787.22 343.97 785.67 348.38 782.3 453.74 402.55 453.75 400.83 453.75 379.58 341.95 787.22"/></g><g id="a2c8f20f-4be2-454d-9020-ff90fad70d24" data-name="panel"><polygon class="f0af8c7e-433c-4d07-8f9a-5fa6f0f83bdd" points="11.46 450.59 261.88 494.7 262.08 454.54 10.67 410.83 11.46 450.59"/><polygon class="a89f5336-0d39-49da-86d6-391bd459cd55" points="80.35 345.73 10.67 410.83 262.08 454.54 330.7 388.26 80.35 345.73"/></g><g id="f40b3598-a1e0-44c7-9bd9-9af7f4c7678d" data-name="ecran"><path class="f0af8c7e-433c-4d07-8f9a-5fa6f0f83bdd" d="M96.84,129.36,79.7,347.72l250.52,42.43L347.82,168Zm224.28,67.76c0,.2-.29.32-.48.49L310.21,342.44a35.43,35.43,0,0,1-4.3,3.78l1.4.29v10.7s-1.4,4.75-11.08,2.64c-11.19-2.44-178.55-31.91-178.55-31.91l8.72-6.78v-1.39s-2.46.52-6-7l-12.48,2.77h-4l11.34-158.77s4-6.85,10.81-6.59,191.16,30.59,191.16,30.59S323.4,181.84,321.12,197.12Z"/><path class="a8d97b90-ad7d-4ee2-961b-61f890d09d50" d="M317.28,180S133,149.66,126.12,149.4,115.31,156,115.31,156L103.57,316.08h4.35l12.29-2.68c-.1-.23-.74-1.57-.85-1.8L131,166.54s2.11-5.54,7.12-7.38l177.49,27.16a20.77,20.77,0,0,1,5.11,9.76l-.05.75c.19-.17.62.66.66.47C324.56,183.24,317.28,180,317.28,180Z"/><path class="fa414340-77b2-4e36-bfcc-f88eab321b96" d="M125.32,320l-8.56,8s164.63,29.3,178.61,32.24c10.36,2.17,14.43-3.58,14.43-3.58l.61-7.37.39-7.71-4.89,3.84a20.85,20.85,0,0,1-7.73,3.87Z"/><path class="be83eda5-03ad-411b-9a0f-2761f3b917cb" d="M319.5,197.81c.45-.36.83-.69,1.14-1l.66-.52a20.31,20.31,0,0,0-5.72-10L138.09,159.16c-5,1.84-7.12,7.38-7.12,7.38L119.36,311.6l.32.66c3.54,7.52,6.28,8,6.28,8l.44.08,171.78,28.93a20.85,20.85,0,0,0,7.73-3.87c2.57-1.91,4.89-3.84,4.89-3.84l10.5-145.29C320.86,196.73,320.25,197.23,319.5,197.81Z"/></g><g id="a289c6f8-a9cd-46a7-9ccc-0d3dd546eb07" data-name="top"><polygon id="bfff07f0-44a4-4826-9f4d-30ade15f1abc" data-name="marquee" class="f0af8c7e-433c-4d07-8f9a-5fa6f0f83bdd" points="69.22 124.02 320.69 163.05 321.12 73.58 68.76 34.94 69.22 124.02"/><polygon class="febf2335-b6fb-49ef-a33e-05bbb982b088" points="129.81 3.16 124.08 2.2 68.76 34.94 321.12 73.58 373.5 40.34 129.81 3.16"/></g><g id="b530217a-9b89-451e-9474-bd3290403326" data-name="stickp1"><path class="a63cb7bf-7867-435d-aef6-55325efbf919" d="M68.92,377.27v5.16H62.4v-5.16c-5.06.64-8.77,2.7-8.77,5.16,0,3,5.38,5.35,12,5.35s12-2.39,12-5.35C77.69,380,74,377.91,68.92,377.27Z"/><path class="e32f98c9-bf17-4d7f-99b8-98b5c43af619" d="M68.92,377.27V359.49a12.18,12.18,0,0,1-3,.39,12.4,12.4,0,0,1-3.48-.49v17.88a26.67,26.67,0,0,1,6.52,0Z"/><path class="e32f98c9-bf17-4d7f-99b8-98b5c43af619" d="M68.92,382.43v-5.16a26.67,26.67,0,0,0-6.52,0v5.16Z"/><path class="be15522d-e3d2-459a-920a-677319bf623e" d="M68.92,358.89v.6a11.24,11.24,0,0,0,8.77-10.72c0-6.14-5.29-11.11-11.81-11.11s-11.82,5-11.82,11.11a11.22,11.22,0,0,0,8.34,10.62v-.5Z"/><path class="e32f98c9-bf17-4d7f-99b8-98b5c43af619" d="M68.92,359.49v-.6H62.4v.5a12.4,12.4,0,0,0,3.48.49A12.18,12.18,0,0,0,68.92,359.49Z"/><path class="be15522d-e3d2-459a-920a-677319bf623e" d="M68.92,359.49v-.6H62.4v.5a12.4,12.4,0,0,0,3.48.49A12.18,12.18,0,0,0,68.92,359.49Z"/></g><g id="b1d6a16f-571b-44da-81c0-d41c557d07ce" data-name="stickp2"><path class="a63cb7bf-7867-435d-aef6-55325efbf919" d="M198.88,399.49v5.16h-6.53v-5.16c-5,.64-8.77,2.7-8.77,5.16,0,3,5.39,5.35,12,5.35s12-2.39,12-5.35C207.65,402.19,203.94,400.13,198.88,399.49Z"/><path class="e32f98c9-bf17-4d7f-99b8-98b5c43af619" d="M198.88,399.49V381.71a12.2,12.2,0,0,1-3,.39,12.83,12.83,0,0,1-3.48-.49v17.88a26.75,26.75,0,0,1,6.53,0Z"/><path class="e32f98c9-bf17-4d7f-99b8-98b5c43af619" d="M198.88,404.65v-5.16a26.75,26.75,0,0,0-6.53,0v5.16Z"/><path class="bfe6058c-3190-4f04-9020-b6b4ed5fe02d" d="M198.88,381.11v.6A11.24,11.24,0,0,0,207.65,371c0-6.14-5.29-11.11-11.82-11.11S184,364.85,184,371a11.22,11.22,0,0,0,8.34,10.62v-.5Z"/><path class="e32f98c9-bf17-4d7f-99b8-98b5c43af619" d="M198.88,381.71v-.6h-6.53v.5a12.83,12.83,0,0,0,3.48.49A12.2,12.2,0,0,0,198.88,381.71Z"/><path class="bfe6058c-3190-4f04-9020-b6b4ed5fe02d" d="M198.88,381.71v-.6h-6.53v.5a12.83,12.83,0,0,0,3.48.49A12.2,12.2,0,0,0,198.88,381.71Z"/></g><g id="a5c3ecf5-9441-4e13-9eb0-2d7721089c79" data-name="boutons P1"><g id="bff1631d-178a-4cc5-b02c-d0f3f86b8228" data-name="4"><path class="b1f21157-dec1-40ce-8ba2-6cdde85dc94f" d="M92.54,389.14c-3.86,0-8.12,1.53-8.12,4.87,0,2.95,4.1,4.62,7.94,4.62,4.11,0,8-1.73,8-4.88C100.32,391.4,96.48,389.14,92.54,389.14Zm-.18,8.63c-3.86,0-7-1.74-7-3.89s3.13-3.89,7-3.89,7,1.74,7,3.89S96.22,397.77,92.36,397.77Z"/><path class="bdec017c-96f7-41c9-9640-4cd8feca90c8" d="M92.36,390c-3.86,0-7,1.74-7,3.89s3.13,3.89,7,3.89,7-1.74,7-3.89S96.22,390,92.36,390Z"/></g><g id="b8b805d7-10f5-4823-8927-3b9edf36f019" data-name="5"><path class="b1f21157-dec1-40ce-8ba2-6cdde85dc94f" d="M114.79,389.14c-3.86,0-8.12,1.53-8.12,4.87,0,2.95,4.1,4.62,7.94,4.62,4.11,0,8-1.73,8-4.88C122.57,391.4,118.73,389.14,114.79,389.14Zm-.18,8.63c-3.86,0-7-1.74-7-3.89s3.13-3.89,7-3.89,7,1.74,7,3.89S118.47,397.77,114.61,397.77Z"/><path class="a0306275-69fe-4c20-a95f-0e07556944a6" d="M114.61,390c-3.86,0-7,1.74-7,3.89s3.13,3.89,7,3.89,7-1.74,7-3.89S118.47,390,114.61,390Z"/></g><g id="a5882ba7-92e7-4bba-9dc8-01c982729f18" data-name="6"><path class="b1f21157-dec1-40ce-8ba2-6cdde85dc94f" d="M133.35,395.3c-3.86,0-8.13,1.53-8.13,4.87,0,3,4.11,4.62,7.95,4.62,4.1,0,8-1.73,8-4.88C141.13,397.56,137.29,395.3,133.35,395.3Zm-.18,8.63c-3.86,0-7-1.74-7-3.89s3.13-3.89,7-3.89,7,1.74,7,3.89S137,403.93,133.17,403.93Z"/><path class="f4789f27-1342-43d1-910a-0f9a98b6b3eb" d="M133.17,396.15c-3.86,0-7,1.74-7,3.89s3.13,3.89,7,3.89,7-1.74,7-3.89S137,396.15,133.17,396.15Z"/></g><g id="a86c37af-062f-4d79-973a-7efe35060d8a" data-name="3"><path class="b1f21157-dec1-40ce-8ba2-6cdde85dc94f" d="M139.39,383c-3.86,0-8.13,1.53-8.13,4.88,0,2.95,4.11,4.61,8,4.61,4.1,0,8-1.73,8-4.88C147.17,385.3,143.33,383,139.39,383Zm-.18,8.63c-3.86,0-7-1.74-7-3.89s3.13-3.89,7-3.89,7,1.75,7,3.89S143.07,391.67,139.21,391.67Z"/><path class="bcbd5add-4fc9-4180-b447-d6c403fc34d4" d="M139.21,383.89c-3.86,0-7,1.75-7,3.89s3.13,3.89,7,3.89,7-1.74,7-3.89S143.07,383.89,139.21,383.89Z"/></g><g id="af3b6070-bbf0-4f08-bbc6-300e48c63555" data-name="2"><path class="b1f21157-dec1-40ce-8ba2-6cdde85dc94f" d="M121.79,377.35c-3.86,0-8.12,1.53-8.12,4.88,0,2.95,4.1,4.61,7.94,4.61,4.11,0,8-1.73,8-4.88C129.57,379.62,125.73,377.35,121.79,377.35Zm-.18,8.64c-3.86,0-7-1.74-7-3.89s3.13-3.89,7-3.89,7,1.74,7,3.89S125.47,386,121.61,386Z"/><path class="f6836518-e7df-4067-bde9-5000d97e6523" d="M121.61,378.21c-3.86,0-7,1.74-7,3.89s3.13,3.89,7,3.89,7-1.74,7-3.89S125.47,378.21,121.61,378.21Z"/></g><g id="b3e7ad8a-ebb1-436f-82d2-e69db3ae1e0f" data-name="1"><path class="b1f21157-dec1-40ce-8ba2-6cdde85dc94f" d="M100.5,377.78c-3.86,0-8.13,1.53-8.13,4.88,0,2.95,4.11,4.62,7.95,4.62,4.1,0,8-1.73,8-4.88C108.28,380.05,104.44,377.78,100.5,377.78Zm-.18,8.64c-3.86,0-7-1.74-7-3.89s3.13-3.89,7-3.89,7,1.74,7,3.89S104.18,386.42,100.32,386.42Z"/><path class="e6764aa0-c709-4604-a7df-6d97504dfefe" d="M100.32,378.64c-3.86,0-7,1.74-7,3.89s3.13,3.89,7,3.89,7-1.74,7-3.89S104.18,378.64,100.32,378.64Z"/></g></g><g id="bebd2999-5292-4b2c-b776-0376d0904198" data-name="boutons P2"><g id="f7990be4-c304-4dab-911f-2a14bbd5d3b2" data-name="1"><path class="eba15e1a-653f-4d8a-a979-afba3b5e60d0" d="M225.69,399.93c-3.86,0-8.13,1.53-8.13,4.87,0,2.95,4.11,4.62,7.95,4.62,4.1,0,8-1.73,8-4.88C233.47,402.19,229.63,399.93,225.69,399.93Zm-.18,8.63c-3.86,0-7-1.74-7-3.89s3.13-3.89,7-3.89,7,1.74,7,3.89S229.37,408.56,225.51,408.56Z"/><path class="b87dc18c-b123-465a-b870-fb00d40aec28" d="M225.51,400.78c-3.86,0-7,1.74-7,3.89s3.13,3.89,7,3.89,7-1.74,7-3.89S229.37,400.78,225.51,400.78Z"/></g><g id="aea76cb7-5509-400c-8549-ed92cfd55390" data-name="2"><path class="eba15e1a-653f-4d8a-a979-afba3b5e60d0" d="M247,399.49c-3.86,0-8.13,1.54-8.13,4.88,0,2.95,4.11,4.62,7.95,4.62,4.1,0,8-1.73,8-4.88C254.75,401.76,250.91,399.49,247,399.49Zm-.18,8.64c-3.86,0-7-1.74-7-3.89s3.13-3.89,7-3.89,7,1.74,7,3.89S250.65,408.13,246.79,408.13Z"/><path class="e9caa3d3-17cb-4e1c-9a74-f89e5e98b295" d="M246.79,400.35c-3.86,0-7,1.74-7,3.89s3.13,3.89,7,3.89,7-1.74,7-3.89S250.65,400.35,246.79,400.35Z"/></g><g id="ba98a015-766f-4c94-9ac8-cba2f337ab84" data-name="3"><path class="eba15e1a-653f-4d8a-a979-afba3b5e60d0" d="M264.58,405.18c-3.86,0-8.12,1.53-8.12,4.88,0,2.95,4.1,4.61,7.94,4.61,4.1,0,8-1.73,8-4.88C272.36,407.44,268.52,405.18,264.58,405.18Zm-.18,8.64c-3.86,0-7-1.75-7-3.89s3.13-3.89,7-3.89,7,1.74,7,3.89S268.26,413.82,264.4,413.82Z"/><path class="a4d28ee7-8830-47b6-80c5-8937a5e0a55f" d="M264.4,406c-3.86,0-7,1.74-7,3.89s3.13,3.89,7,3.89,7-1.75,7-3.89S268.26,406,264.4,406Z"/></g><g id="f7890acc-d5d9-47ea-9dce-2af1c6a37704" data-name="4"><path class="eba15e1a-653f-4d8a-a979-afba3b5e60d0" d="M258.54,417.44c-3.86,0-8.13,1.53-8.13,4.88,0,2.95,4.11,4.61,8,4.61,4.1,0,8-1.73,8-4.88C266.32,419.7,262.48,417.44,258.54,417.44Zm-.18,8.64c-3.86,0-7-1.75-7-3.89s3.13-3.89,7-3.89,7,1.74,7,3.89S262.22,426.08,258.36,426.08Z"/><path class="a6ce251c-636a-4eee-826c-0b2160063c56" d="M258.36,418.3c-3.86,0-7,1.74-7,3.89s3.13,3.89,7,3.89,7-1.75,7-3.89S262.22,418.3,258.36,418.3Z"/></g><g id="b815854c-ef93-4f34-9cca-1e1846bd3b6b" data-name="5"><path class="eba15e1a-653f-4d8a-a979-afba3b5e60d0" d="M240,411.28c-3.86,0-8.13,1.53-8.13,4.88,0,2.95,4.11,4.61,7.95,4.61,4.1,0,8-1.73,8-4.88C247.75,413.54,243.91,411.28,240,411.28Zm-.18,8.63c-3.86,0-7-1.74-7-3.89s3.13-3.89,7-3.89,7,1.75,7,3.89S243.65,419.91,239.79,419.91Z"/><path class="acc5fb77-d258-4228-ad2a-1d04bbe3c89b" d="M239.79,412.13c-3.86,0-7,1.75-7,3.89s3.13,3.89,7,3.89,7-1.74,7-3.89S243.65,412.13,239.79,412.13Z"/></g><g id="a772734b-4187-4e17-8521-6800784455e7" data-name="6"><path class="eba15e1a-653f-4d8a-a979-afba3b5e60d0" d="M217.73,411.28c-3.86,0-8.13,1.53-8.13,4.88,0,2.95,4.11,4.61,8,4.61,4.1,0,8-1.73,8-4.88C225.51,413.54,221.67,411.28,217.73,411.28Zm-.18,8.63c-3.86,0-7-1.74-7-3.89s3.13-3.89,7-3.89,7,1.75,7,3.89S221.41,419.91,217.55,419.91Z"/><path class="a6d9aa89-6828-4586-8bb3-20b3d9634d8e" d="M217.55,412.13c-3.86,0-7,1.75-7,3.89s3.13,3.89,7,3.89,7-1.74,7-3.89S221.41,412.13,217.55,412.13Z"/></g></g><path class="bcbd1f4f-3202-47f3-9d6b-fbcb2809ad44" d="M228.57,237.19v.07l-5.92-1v-.08Z"/><path class="bcbd1f4f-3202-47f3-9d6b-fbcb2809ad44" d="M236.56,238.53a.13.13,0,0,0,0,.06l-5.72-1s0,0,0-.06Z"/><path class="f35cbf79-5dbc-4083-9252-b6aec88d09ce" d="M210.17,273.38l-65.56-11c-.87-.14-.87-.14-.74-.92.25-1.54.47-3.08.75-4.61.78-4.31,1.48-8.63,2.22-12.95.09-.48.22-1,.29-1.44,0-.18.12-.23.31-.19l.75.13L267.5,262.38a16.13,16.13,0,0,1,4.69,1.42,11.54,11.54,0,0,1,5.67,5.9,8.36,8.36,0,0,1,.63,3.88c0,.38-.08.76-.15,1.14l-1.56,9.36c-.07.39-.13.42-.54.36l-40.11-6.72Zm14.68-7.7h0c-.4,2.35-.79,4.71-1.19,7.07,0,.23,0,.34.3.38,1,.15,1.95.32,2.93.49.51.09.51.09.59-.37q.69-4.22,1.4-8.43c0-.08,0-.21.12-.22s.13.1.17.17c1.69,3.14,3.43,6.26,5.06,9.42a2.38,2.38,0,0,0,3.55.6c.9-.94,1.91-1.79,2.87-2.68l4.89-4.53c.08-.07.15-.22.26-.17s0,.2,0,.31,0,.08,0,.12c-.47,2.79-.93,5.58-1.4,8.37,0,.25,0,.35.31.4,1,.16,2,.32,3.06.51.34.07.45,0,.49-.32q1.16-6.92,2.32-13.83a1.32,1.32,0,0,0-.25-1,2.34,2.34,0,0,0-3.26-.37l-2.16,2L236.79,271c-.25.23-.28.22-.45-.08-2.2-4.06-4.42-8.11-6.61-12.17a2.14,2.14,0,0,0-1.43-1.06A1.74,1.74,0,0,0,226,259Zm-4.51-.71h0c.38-2.31.76-4.61,1.16-6.92a1.32,1.32,0,0,0-.45-1.21,2.4,2.4,0,0,0-3.17,0c-2.39,2.24-4.82,4.43-7.24,6.63l-2.95,2.7c-.13.12-.23.25-.37,0l-3.44-6.31c-1.1-2-2.19-4-3.3-6a2.24,2.24,0,0,0-2.21-1,1.52,1.52,0,0,0-1.5,1.37q-1.16,6.86-2.3,13.71c0,.28.05.37.35.41,1,.15,2,.32,3,.5.44.07.45.08.51-.3.46-2.73.91-5.46,1.37-8.19,0-.13,0-.27.06-.4s0-.16.11-.17.1.08.13.14.18.34.28.51c1.63,3,3.29,6,4.88,9.07a2.34,2.34,0,0,0,3.35.6c.47-.47,1-.91,1.48-1.37l6.5-6c.06-.05.09-.14.19-.11s.07.14.06.22c-.14.81-.28,1.62-.41,2.44-.35,2.06-.69,4.13-1,6.2,0,.22,0,.32.29.36l3,.5c.44.07.45.07.52-.31Q219.75,268.44,220.34,265Zm33.15,5.67h0c-.38,2.28-.76,4.57-1.15,6.85-.06.31.06.41.38.45,1,.16,2,.32,3,.5.33.07.45,0,.5-.31.16-1,.35-2.08.51-3.12,0-.23.12-.33.4-.28l12.77,2.14c.33.05.39.18.34.45-.18,1-.34,2.08-.53,3.12-.05.25,0,.35.32.4,1,.15,2,.32,3,.49.45.07.46.07.53-.34q.61-3.66,1.22-7.32a6.88,6.88,0,0,0-2.51-6.52,12.61,12.61,0,0,0-6.36-3c-2.38-.41-4.76-.8-7.13-1.19-.72-.12-1.45-.26-2.17-.35a1.6,1.6,0,0,0-1.91,1.29C254.24,266.17,253.87,268.4,253.49,270.64Zm-62.24-10.42h0l1.14-6.79a1.24,1.24,0,0,0,0-.47,1.91,1.91,0,0,0-1.63-1.33c-1.55-.26-3.1-.53-4.65-.77-1.84-.3-3.66-.71-5.51-.87a11.55,11.55,0,0,0-7,1.39,6.55,6.55,0,0,0-3.37,4.67q-.63,3.74-1.25,7.47c-.07.4-.07.4.36.47,1,.17,2,.32,2.93.5.33.06.45,0,.5-.31.15-1,.34-2.06.5-3.09,0-.29.17-.35.48-.3l12.67,2.12c.34,0,.42.16.37.46-.19,1-.35,2.08-.54,3.11,0,.26,0,.36.32.4,1,.16,2,.32,3,.51.33.06.44,0,.49-.32C190.48,264.79,190.87,262.5,191.25,260.22Zm-38.3,1h0l6.47,1.08a7.76,7.76,0,0,0,2.76,0,3.93,3.93,0,0,0,3.34-2.92c.64-3.78,1.26-7.55,1.9-11.33.05-.27,0-.37-.33-.42-1-.15-2-.32-3-.5-.36-.07-.46,0-.51.33q-.92,5.58-1.86,11.15a1.08,1.08,0,0,1-1.24.95,4.41,4.41,0,0,1-.73-.08c-1-.18-2-.37-3.06-.54l-7-1.15c-.28-.05-.35-.15-.31-.38.11-.59.19-1.18.31-1.76.06-.28,0-.4-.35-.45-.84-.13-1.68-.26-2.52-.42-.34-.07-.44,0-.49.32-.24,1.49-.49,3-.74,4.45-.07.42-.07.42.42.5Z"/><path class="f35cbf79-5dbc-4083-9252-b6aec88d09ce" d="M230.83,237.63l5.72,1c.15.09.15.2.13.35-.37,2.17-.73,4.34-1.11,6.51,0,.29,0,.38.34.43,3.09.5,6.18,1,9.27,1.54.32.05.34.16.31.44-.06.67-.23,1.33-.32,2-.22,1.55-.54,3.09-.8,4.63-.1.59-.17,1.19-.26,1.78,0,.2-.12.31-.4.26L228.57,254c-.65-.11-.65-.11-.56-.68q1.29-7.69,2.57-15.38C230.6,237.79,230.6,237.63,230.83,237.63Zm3.94,12.7h0c-.13.78-.25,1.56-.39,2.34-.05.27,0,.38.33.43,1.06.16,2.11.34,3.16.53.32.06.44,0,.49-.31.25-1.55.51-3.1.78-4.66,0-.24,0-.34-.31-.38q-1.62-.25-3.24-.54c-.28-.05-.39,0-.43.27C235,248.79,234.9,249.56,234.77,250.33Z"/><path class="f35cbf79-5dbc-4083-9252-b6aec88d09ce" d="M255.63,249.17c2.55.43,5.09.86,7.64,1.27.34.06.42.17.37.47q-.7,4.14-1.39,8.3c-.07.37-.1.4-.52.33L246.38,257c-.27-.05-.34-.16-.3-.39q.72-4.21,1.41-8.43c0-.28.18-.33.47-.28,2.55.44,5.11.86,7.67,1.29Zm1.31,4.88h0c.14-.8.27-1.6.41-2.4,0-.23,0-.36-.3-.4l-3.44-.58c-.26,0-.38,0-.42.27l-.81,4.85c0,.25.05.36.33.41l3.37.56c.3.06.42,0,.46-.3C256.67,255.66,256.81,254.86,256.94,254.05Z"/><path class="f35cbf79-5dbc-4083-9252-b6aec88d09ce" d="M173.53,244.78l-7.64-1.27c-.31,0-.37-.15-.33-.42q.72-4.2,1.42-8.42c0-.25.13-.32.4-.27L182.74,237c.41.07.43.11.37.49-.26,1.55-.53,3.11-.78,4.66,0,.31-.17.37-.5.32-3.07-.53-6.15-1-9.22-1.55-.46-.08-.46-.08-.52.32s-.11.7-.19,1,0,.35.31.4c2.06.33,4.11.68,6.17,1l3.16.53c.32.05.42.17.37.44s-.14.74-.19,1.11-.18.38-.51.32Zm.92-5.45h0c.56.1,1.13.18,1.69.29.25,0,.35,0,.38-.25,0-.39.12-.78.2-1.17,0-.21,0-.32-.26-.36l-3.41-.57c-.22,0-.33,0-.36.23q-.08.62-.18,1.23c0,.23.06.3.29.33C173.35,239.13,173.9,239.23,174.45,239.33Z"/><path class="f35cbf79-5dbc-4083-9252-b6aec88d09ce" d="M211.28,241.75l7.64,1.28c.44.07.5.14.42.52-.43,2-.7,4-1.05,6-.14.74-.27,1.48-.37,2.23,0,.29-.15.37-.49.31-2.08-.36-4.17-.7-6.26-1l-9-1.51c-.42-.07-.43-.08-.37-.47.26-1.56.53-3.11.77-4.67,0-.32.18-.37.52-.31l9.16,1.54c.46.07.46.07.53-.33s.09-.67.17-1,0-.4-.36-.46c-2.34-.37-4.68-.77-7-1.16l-2.31-.38c-.24,0-.32-.12-.28-.34a10.85,10.85,0,0,0,.21-1.27c0-.27.16-.31.43-.26l5.37.9,2.27.38ZM210.13,249h0c.55.09,1.11.17,1.66.27.21,0,.33,0,.36-.21l.21-1.23c0-.19-.05-.29-.27-.33l-3.33-.56c-.24,0-.35,0-.38.24,0,.4-.11.79-.19,1.17-.05.23.05.33.29.37C209,248.79,209.58,248.89,210.13,249Z"/><path class="f35cbf79-5dbc-4083-9252-b6aec88d09ce" d="M268.74,251.36c.87.15,1.74.31,2.62.44.31,0,.38.18.34.43-.08.4-.13.8-.21,1.2,0,.21,0,.3.27.34l3.36.56c.28,0,.38,0,.41-.27.06-.41.15-.82.2-1.23,0-.23.15-.27.37-.24l5.4.91c.21,0,.3.13.27.33-.08.43-.16.86-.22,1.29,0,.23-.16.29-.41.25-.44-.09-.89-.15-1.34-.24-.24,0-.33,0-.36.24-.05.4-.13.8-.19,1.2,0,.23-.15.3-.4.25-.47-.08-.94-.15-1.41-.24-.17,0-.24,0-.29.17-.13.44-.08.91-.25,1.34-.07.18.07.24.24.27l1.38.22c.28,0,.38.15.33.41s-.13.78-.21,1.17c0,.21.05.31.28.34l1.34.22c.25,0,.34.13.3.36-.09.42-.17.84-.22,1.27,0,.22-.15.27-.36.24l-.65-.11-4.62-.77c-.45-.08-.45-.08-.38-.49s.12-.76.19-1.14c.05-.21,0-.3-.27-.34l-3.44-.58c-.22,0-.29,0-.31.21-.06.4-.16.8-.19,1.21s-.19.37-.5.32l-4.72-.8c-1.16-.19-.93-.1-.8-1,0-.25.09-.49.12-.74s.16-.29.4-.25c.45.09.9.15,1.34.24.27.05.39,0,.42-.26s.14-.78.19-1.17.16-.31.41-.26c.46.09.92.15,1.37.24.21,0,.3,0,.32-.2.06-.43.13-.85.22-1.27,0-.21-.05-.28-.26-.31l-1.38-.23c-.24,0-.34-.12-.29-.36s.14-.78.21-1.17c0-.23,0-.35-.31-.38-.45-.06-.9-.15-1.35-.22-.25,0-.34-.14-.29-.37q.12-.63.21-1.26c0-.24.16-.29.4-.24Z"/><path class="f35cbf79-5dbc-4083-9252-b6aec88d09ce" d="M222.64,236.28l5.92,1a.42.42,0,0,1,.05.36q-1.31,7.77-2.6,15.56c0,.28-.17.37-.48.31s-.88-.19-1.33-.26l-3.89-.62c-.46-.08-.45-.08-.39-.49q1.31-7.74,2.6-15.49C222.54,236.51,222.52,236.37,222.64,236.28Z"/><path class="f35cbf79-5dbc-4083-9252-b6aec88d09ce" d="M191.71,247.82,184,246.54c-.3,0-.4-.14-.35-.43q.72-4.2,1.41-8.4c0-.26.15-.32.42-.27L200.87,240c.31.05.42.18.36.45s-.11.72-.19,1.08-.13.41-.55.34l-4.16-.7-5.06-.85c-.28,0-.37,0-.41.25-.22,1.39-.46,2.78-.69,4.17a2.74,2.74,0,0,1,0,.28c-.11.6-.11.6.58.72l8.92,1.49c.42.07.45.11.39.5s-.15.72-.18,1.08-.19.35-.48.3c-.56-.11-1.12-.2-1.68-.29Z"/><path class="ed620708-4498-496e-a94d-1c76aa58fa94" d="M291.07,282.1c-.25,1.47-.49,2.94-.74,4.41-.07.42-.07.42-.51.34l-4.27-.71c-.27,0-.37-.13-.3-.37s.07-.41.11-.62-.06-.27-.25-.29l-.49-.05c-.39-.06-.49,0-.51.37,0,.06,0,.12,0,.19,0,.43-.14.5-.63.42-1.39-.23-2.79-.47-4.19-.69-.32-.05-.4-.19-.36-.45.5-3,1-5.91,1.49-8.86.06-.36.14-.42.55-.33,2.95.58,5.92,1,8.87,1.52.52.09,1,.13,1.55.22s.47.1.4.52c-.24,1.46-.49,2.92-.73,4.38Zm-8.37-.17h0l1.58.27c.22,0,.32,0,.35-.22.1-.59.2-1.19.31-1.79,0-.21-.06-.3-.29-.34l-3.13-.52c-.21,0-.31,0-.35.22-.08.59-.18,1.19-.29,1.79,0,.21,0,.31.27.34Zm5.47-1.49h0c-.52-.08-1-.16-1.55-.26-.25-.05-.36,0-.39.24-.09.59-.19,1.19-.29,1.78-.05.23.05.29.28.33,1,.16,2,.33,3,.51.28.05.39,0,.43-.27.08-.56.17-1.13.28-1.69,0-.23,0-.35-.3-.39C289.15,280.61,288.66,280.52,288.17,280.44Z"/><path class="a42f8021-2a1f-4d17-956c-d07036652b98" d="M292.87,271.31c-.25,1.48-.5,3-.74,4.44-.07.38-.11.4-.52.34l-2.86-.48c-.41-.07-.49-.18-.43-.54.14-.85.28-1.71.43-2.56a.34.34,0,0,1,0-.1c.2-.63.12-.52.72-.43l1.48.25c.26,0,.4,0,.44-.25.09-.59.19-1.18.29-1.76,0-.21,0-.33-.3-.38l-8-1.34c-.26,0-.39.05-.42.28-.09.57-.19,1.14-.28,1.7,0,.23.05.36.31.41l3.06.52a.25.25,0,0,0,.33-.17,1.81,1.81,0,0,0,.12-.64c0-.19.11-.24.27-.29a.45.45,0,0,1,.2,0c.85.09.89.14.77.88-.21,1.26-.43,2.51-.63,3.77,0,.26-.17.34-.43.3l-5.43-.91c-.49-.08-.55-.15-.48-.58.49-3,1-5.91,1.48-8.87,0-.17.09-.23.28-.22s.55,0,.83.08l9.77,1.63c.55.09.55.1.47.6l-.72,4.32Z"/><path class="b9dc3be3-f021-4945-a7a0-6fa1f263588a" d="M289.84,254.78c1.75.29,3.49.59,5.24.87.3,0,.4.13.35.42-.51,3-1,5.95-1.49,8.92-.05.3-.16.38-.49.32-1.4-.25-2.8-.48-4.2-.71-.36-.06-.42-.15-.36-.47,0-.12.06-.23.08-.34.08-.47.08-.47-.46-.56l-.21,0c-.5-.08-.51-.08-.54.39,0,.18-.1.34-.11.52s-.18.19-.35.16l-4.44-.74c-.23,0-.32-.15-.29-.35.17-1,.35-2,.51-3.06,0-.28.23-.27.45-.23l1.83.3c.8.15,1.61.24,2.4.44.25.06.44,0,.48-.27.07-.57.17-1.14.28-1.7.05-.27,0-.38-.34-.43-1.42-.22-2.83-.47-4.24-.7-.29,0-.4-.12-.35-.4.18-1,.33-2,.48-3,0-.26.15-.33.44-.28C286.28,254.19,288.06,254.48,289.84,254.78Zm1.49,6.43h0c.51.08,1,.16,1.54.26.22,0,.35,0,.39-.21.09-.61.19-1.22.3-1.82,0-.2,0-.32-.27-.35l-3.09-.52c-.22,0-.32,0-.35.21-.09.63-.2,1.25-.31,1.88,0,.18,0,.26.24.29Z"/><path class="f35cbf79-5dbc-4083-9252-b6aec88d09ce" d="M156.94,232.66l7.54,1.26c.53.09.53.09.45.57s-.13.7-.17,1-.16.33-.44.28l-9.3-1.57c-.33-.05-.41,0-.45.3-.35,2.17-.72,4.33-1.07,6.49-.05.31-.2.36-.51.31l-5.19-.87c-.3,0-.4-.14-.35-.42q.72-4.19,1.4-8.39c.05-.31.19-.34.48-.29Z"/><path class="bcbd1f4f-3202-47f3-9d6b-fbcb2809ad44" d="M224.85,265.68,226,259a1.74,1.74,0,0,1,2.34-1.33,2.14,2.14,0,0,1,1.43,1.06c2.19,4.06,4.41,8.11,6.61,12.17.17.3.2.31.45.08l8.14-7.43,2.16-2a2.34,2.34,0,0,1,3.26.37,1.32,1.32,0,0,1,.25,1q-1.17,6.91-2.32,13.83c0,.29-.15.39-.49.32-1-.19-2-.35-3.06-.51-.3-.05-.36-.15-.31-.4.47-2.79.93-5.58,1.4-8.37,0,0,0-.08,0-.12s.11-.25,0-.31-.18.1-.26.17l-4.89,4.53c-1,.89-2,1.74-2.87,2.68a2.38,2.38,0,0,1-3.55-.6c-1.63-3.16-3.37-6.28-5.06-9.42,0-.07-.06-.19-.17-.17s-.11.14-.12.22q-.7,4.21-1.4,8.43c-.08.46-.08.46-.59.37-1-.17-1.95-.34-2.93-.49-.28,0-.34-.15-.3-.38.4-2.36.79-4.72,1.19-7.07Z"/><path class="bcbd1f4f-3202-47f3-9d6b-fbcb2809ad44" d="M220.34,265q-.59,3.46-1.16,6.95c-.07.38-.08.38-.52.31l-3-.5c-.27,0-.32-.14-.29-.36.36-2.07.7-4.14,1-6.2.13-.82.27-1.63.41-2.44,0-.08.06-.18-.06-.22s-.13.06-.19.11l-6.5,6c-.5.46-1,.9-1.48,1.37a2.34,2.34,0,0,1-3.35-.6c-1.59-3-3.25-6.05-4.88-9.07-.1-.17-.19-.34-.28-.51s-.05-.14-.13-.14-.1.1-.11.17,0,.27-.06.4c-.46,2.73-.91,5.46-1.37,8.19-.06.38-.07.37-.51.3-1-.18-2-.35-3-.5-.3,0-.4-.13-.35-.41q1.16-6.86,2.3-13.71a1.52,1.52,0,0,1,1.5-1.37,2.24,2.24,0,0,1,2.21,1c1.11,2,2.2,4,3.3,6l3.44,6.31c.14.27.24.14.37,0l2.95-2.7c2.42-2.2,4.85-4.39,7.24-6.63a2.4,2.4,0,0,1,3.17,0,1.32,1.32,0,0,1,.45,1.21c-.4,2.31-.78,4.61-1.16,6.92Z"/><path class="bcbd1f4f-3202-47f3-9d6b-fbcb2809ad44" d="M253.49,270.64c.38-2.24.75-4.47,1.13-6.7a1.6,1.6,0,0,1,1.91-1.29c.72.09,1.45.23,2.17.35,2.37.39,4.75.78,7.13,1.19a12.61,12.61,0,0,1,6.36,3,6.88,6.88,0,0,1,2.51,6.52q-.6,3.66-1.22,7.32c-.07.41-.08.41-.53.34-1-.17-2-.34-3-.49-.29,0-.37-.15-.32-.4.19-1,.35-2.08.53-3.12.05-.27,0-.4-.34-.45l-12.77-2.14c-.28-.05-.36,0-.4.28-.16,1-.35,2.08-.51,3.12-.05.3-.17.38-.5.31-1-.18-2-.34-3-.5-.32,0-.44-.14-.38-.45.39-2.28.77-4.57,1.15-6.85ZM264,273l6.37,1.07c.3,0,.43,0,.46-.28s.08-.52.12-.78a4.27,4.27,0,0,0-1.54-4.2,8.48,8.48,0,0,0-4-1.85c-2.25-.43-4.52-.78-6.77-1.17-.34-.06-.36.12-.4.33q-.44,2.69-.9,5.37c0,.29,0,.4.36.46Z"/><path class="bcbd1f4f-3202-47f3-9d6b-fbcb2809ad44" d="M191.25,260.22c-.38,2.28-.77,4.57-1.14,6.85-.05.3-.16.38-.49.32-1-.19-2-.35-3-.51-.29,0-.36-.14-.32-.4.19-1,.35-2.08.54-3.11.05-.3,0-.41-.37-.46l-12.67-2.12c-.31-.05-.44,0-.48.3-.16,1-.35,2.05-.5,3.09,0,.3-.17.37-.5.31-1-.18-1.95-.33-2.93-.5-.43-.07-.43-.07-.36-.47q.62-3.74,1.25-7.47a6.55,6.55,0,0,1,3.37-4.67,11.55,11.55,0,0,1,7-1.39c1.85.16,3.67.57,5.51.87,1.55.24,3.1.51,4.65.77A1.91,1.91,0,0,1,192.4,253a1.24,1.24,0,0,1,0,.47l-1.14,6.79Zm-10.67-1.14h0c2.11.35,4.22.7,6.33,1.07.32.05.44,0,.48-.29.3-1.81.6-3.63.91-5.44,0-.26,0-.37-.33-.42q-3-.48-6-1a11.11,11.11,0,0,0-3.77,0,4.85,4.85,0,0,0-3.81,2.54,7.49,7.49,0,0,0-.52,2c-.07.4-.07.41.4.48Z"/><path class="bcbd1f4f-3202-47f3-9d6b-fbcb2809ad44" d="M153,261.25l-7-1.17c-.49-.08-.49-.08-.42-.5.25-1.48.5-3,.74-4.45.05-.28.15-.39.49-.32.84.16,1.68.29,2.52.42.31.05.41.17.35.45-.12.58-.2,1.17-.31,1.76,0,.23,0,.33.31.38l7,1.15c1,.17,2,.36,3.06.54a4.41,4.41,0,0,0,.73.08,1.08,1.08,0,0,0,1.24-.95q.94-5.58,1.86-11.15c0-.3.15-.4.51-.33,1,.18,2,.35,3,.5.3.05.38.15.33.42-.64,3.78-1.26,7.55-1.9,11.33a3.93,3.93,0,0,1-3.34,2.92,7.76,7.76,0,0,1-2.76,0L153,261.25Z"/><path class="f35cbf79-5dbc-4083-9252-b6aec88d09ce" d="M264,273l-6.33-1c-.34-.06-.41-.17-.36-.46q.47-2.68.9-5.37c0-.21.06-.39.4-.33,2.25.39,4.52.74,6.77,1.17a8.48,8.48,0,0,1,4,1.85,4.27,4.27,0,0,1,1.54,4.2c0,.26-.1.52-.12.78s-.16.33-.46.28Z"/><path class="f35cbf79-5dbc-4083-9252-b6aec88d09ce" d="M180.58,259.08l-6.3-1.06c-.47-.07-.47-.08-.4-.48a7.49,7.49,0,0,1,.52-2,4.85,4.85,0,0,1,3.81-2.54,11.11,11.11,0,0,1,3.77,0q3,.51,6,1c.31.05.38.16.33.42-.31,1.81-.61,3.63-.91,5.44,0,.29-.16.34-.48.29-2.11-.37-4.22-.72-6.33-1.07Z"/><path d="M259.15,135.73l.05-47.43c3.74.58,7.29.71,10.74,1.88a23.18,23.18,0,0,0,4.44,1c4.77.63,9.35,2,13.15,7.54,3.88-5.14,8.88-4.69,14.16-2.57,5.61,2.25,9.59,7.11,10,14.53.6,11.21.29,22.37.37,33.54l-10.85-1.74c0-1.21,0-2.42,0-3.64,0-7.69.06-15.39,0-23.09,0-5.24-4-8.78-7.3-6.64-1.71,1.13-2.21,3.15-2.21,5.66,0,8.72-.06,17.45-.09,26.17L280,139c-.13-.94-.22-1.89-.26-2.83,0-8.13.05-16.25,0-24.39-.07-3.38-2.22-6.38-4.8-6.69s-4.44,2-4.54,5.15c-.05,9.08,0,18.17,0,27.21Zm-158.9-25.9c3.53-6.6,7.09-13.19,10.59-19.84Q120,72.61,129.08,55.11c.68-1.28,1.36-1.8,2.63-1.55,3.4.66,6.8,1.1,10.51,1.68l0,61.81-12.19-2v-8.31c-4.14-.66-8.06-1.28-12-1.86a1.51,1.51,0,0,0-1.44.67c-1.22,2.21-2.32,4.54-3.46,6.83l-12-1.92A3.46,3.46,0,0,1,100.25,109.83ZM130,79.89c-1.87,3.6-3.46,6.65-5.08,9.78l5.08.81Zm90.95,49.73c-.68-.4-1.36-.83-2-1.19-10.17-5.4-15.9-20-12.71-32.52,3.24-12.72,13.94-17.87,24-11.55l.54.33c.66-.43,1.18-1.13,1.72-1.06,3.19.38,6.35.93,9.62,1.45a15,15,0,0,1,.18,1.64l0,44.32a14.14,14.14,0,0,1-.25,2l-10.34-1.66-.59-2-4.59,1.18Zm2.86-13.94c4.11.63,7.43-3.23,7.42-8.62s-3.36-10.27-7.47-10.89-7.43,3.24-7.41,8.63S219.69,115.06,223.8,115.68Zm-65,4c-4.21-9.16-8.38-18.35-12.63-27.45-1.83-3.88-1.76-7.13.05-10.44,4.08-7.45,8-15.07,12-22.58A2.1,2.1,0,0,1,159.81,58c3.87.48,7.73,1.14,11.87,1.79-.39.85-.65,1.47-1,2.05-4,7.58-7.92,15.2-12,22.67-1.67,3-1.63,5.94.07,9.47,4,8.29,7.84,16.69,11.72,25.08a20.94,20.94,0,0,1,.85,2.61Z"/><path d="M176.53,122.53c-3.85-8.4-7.53-16.92-11.6-25.14-2.77-5.59-2.81-10,0-14.69,3.9-6.5,7.31-13.55,10.88-20.42a2.13,2.13,0,0,1,2.52-1.46c3.66.69,7.33,1.18,11.34,1.81-1.49,2.87-2.8,5.4-4.13,7.92-2.93,5.57-5.79,11.21-8.84,16.68-1.74,3.1-1.77,6,0,9.72,4,8.37,7.91,16.88,11.84,25.34.36.75.66,1.58,1,2.38Zm15,2.4q0-26.84,0-53.69V63.09l11.65,1.82c0,.74.11,1.5.11,2.26l0,57.35c0,.75-.1,1.51-.2,2.24Zm53.23,8.5a15.6,15.6,0,0,1-.29-2l.05-43.79c0-.49.06-1,.09-1.62l11.77,1.84,0,47.46Zm11.57-60.22V84.38l-11.66-1.82V71.39Z"/><path class="baaff3cd-dda7-4af0-8adc-65ec99b99bfe" d="M76.14,116c3.4-4.28,6.78-8.57,10.21-12.86Q103.65,81.75,121,60.37c.55-.68,1.2-1.37,1.72-2.1l1.58-1.79c-10.72,17.82-22.92,38-33.83,56.19l223,35.68v5.73Z"/></svg>