<?xml version="1.0" encoding="utf-8"?>
<!-- Generator: Adobe Illustrator 24.1.2, SVG Export Plug-In . SVG Version: 6.00 Build 0)  -->
<svg version="1.1" id="b6ddcd02-f928-4e67-9a53-31319260ed2a"
	 xmlns="http://www.w3.org/2000/svg" xmlns:xlink="http://www.w3.org/1999/xlink" x="0px" y="0px" viewBox="0 0 88.6 237.8"
	 style="enable-background:new 0 0 88.6 237.8;" xml:space="preserve">
<style type="text/css">
	.st0{fill:#211C1D;}
	.st1{opacity:0.1;}
	.st2{fill:#808094;}
	.st3{fill:#6D6E6F;}
	.st4{fill:url(#SVGID_1_);}
	.st5{opacity:0.3;fill:#211C1D;enable-background:new    ;}
	.st6{opacity:0.15;fill:url(#SVGID_2_);enable-background:new    ;}
	.st7{opacity:0.4;fill:url(#SVGID_3_);enable-background:new    ;}
	.st8{fill:#BF0000;}
	.st9{fill:#DC6E05;}
	.st10{fill:#0B47CE;}
	.st11{fill:#12E600;}
</style>
<circle class="st0" cx="43.8" cy="43.8" r="43.8"/>
<g class="st1">
	<path class="st2" d="M43.8,3.2l-8.9,8.6h4.3v9.8h9.1v-9.8h4.3L43.8,3.2z M15.1,15.1l-0.2,12.4l3.1-3.1l7,7l6.4-6.4l-7-7l3.1-3.1
		L15.1,15.1z M3.2,43.8l8.6,8.9v-4.3h9.8v-9.1h-9.8v-4.3L3.2,43.8z M15.1,72.5l12.4,0.2l-3.1-3.1l7-7L25,56.2l-7,7l-3.1-3.1
		L15.1,72.5z M43.8,84.4l8.9-8.6h-4.3V66h-9.1v9.8h-4.3L43.8,84.4z M72.5,72.5l0.2-12.4l-3.1,3.1l-7-7l-6.4,6.4l7,7l-3.1,3.1
		L72.5,72.5z M84.4,43.8l-8.6-8.9v4.3H66v9.1h9.8v4.3L84.4,43.8z M72.5,15.1l-12.4-0.2l3.1,3.1l-7,7l6.4,6.4l7-7l3.1,3.1L72.5,15.1z
		"/>
</g>
<path class="st3" d="M44.3,0c24.2,0.4,43.5,20.3,43.1,44.5C87.1,68.1,68,87.2,44.3,87.6h0.5C69,87.6,88.6,68,88.6,43.8
	C88.6,19.6,69,0,44.8,0L44.3,0z"/>
<linearGradient id="SVGID_1_" gradientUnits="userSpaceOnUse" x1="-192.9007" y1="1146.8291" x2="-213.8593" y2="1125.8705" gradientTransform="matrix(0 -1 1 0 -1092.5198 -159.58)">
	<stop  offset="0" style="stop-color:#A4A5A9"/>
	<stop  offset="1" style="stop-color:#E6E6E7"/>
</linearGradient>
<circle class="st4" cx="43.8" cy="43.8" r="14.8"/>
<circle class="st5" cx="43.8" cy="43.8" r="11.8"/>
<linearGradient id="SVGID_2_" gradientUnits="userSpaceOnUse" x1="-213.7769" y1="1146.8267" x2="-192.9031" y2="1125.9529" gradientTransform="matrix(0 -1 1 0 -1092.5198 -159.58)">
	<stop  offset="0" style="stop-color:#211C1D;stop-opacity:0"/>
	<stop  offset="4.000000e-02" style="stop-color:#211C1D;stop-opacity:9.000000e-02"/>
	<stop  offset="0.5" style="stop-color:#211C1D"/>
	<stop  offset="0.95" style="stop-color:#211C1D;stop-opacity:9.000000e-02"/>
	<stop  offset="1" style="stop-color:#211C1D;stop-opacity:0"/>
</linearGradient>
<path class="st6" d="M29.1,43.8c0,8.2,6.6,14.8,14.8,14.7s14.8-6.6,14.7-14.8C58.6,35.6,52,29,43.9,29C35.7,29,29.1,35.6,29.1,43.8
	C29.1,43.8,29.1,43.8,29.1,43.8z M57.8,44c0,7.8-6.4,14.1-14.2,14.1c-7.8,0-14.1-6.4-14.1-14.2c0-7.8,6.4-14.1,14.2-14.1
	C51.5,29.8,57.8,36.1,57.8,44C57.8,44,57.8,44,57.8,44z"/>
<linearGradient id="SVGID_3_" gradientUnits="userSpaceOnUse" x1="-4417.7471" y1="-2407.4634" x2="-4396.873" y2="-2428.3372" gradientTransform="matrix(0 1 -1 0 -2374.0303 4451.0801)">
	<stop  offset="0" style="stop-color:#FFFFFF;stop-opacity:0"/>
	<stop  offset="0.5" style="stop-color:#FFFFFF"/>
	<stop  offset="1" style="stop-color:#FFFFFF;stop-opacity:0"/>
</linearGradient>
<path class="st7" d="M58.6,43.8C58.6,35.6,52,29,43.9,29s-14.8,6.6-14.8,14.8s6.6,14.8,14.8,14.8S58.6,51.9,58.6,43.8L58.6,43.8z
	 M29.9,43.6c0-7.8,6.3-14.2,14.1-14.2s14.1,6.3,14.1,14.2S51.9,57.7,44,57.7l0,0C36.2,57.7,29.9,51.4,29.9,43.6z"/>
<circle class="st8" cx="32.8" cy="44" r="20.5"/>
<circle class="st8" cx="27.2" cy="141.1" r="17.5"/>
<circle class="st9" cx="27.2" cy="141.2" r="13.9"/>
<circle class="st8" cx="61.4" cy="196.3" r="17.4"/>
<circle class="st10" cx="61.4" cy="196.4" r="13.9"/>
<circle class="st8" cx="27.4" cy="178.1" r="17.4"/>
<circle class="st11" cx="27.4" cy="178.2" r="13.9"/>
<circle class="st8" cx="61.4" cy="122" r="17.5"/>
<circle class="st9" cx="61.4" cy="122.1" r="13.9"/>
<circle class="st8" cx="61.1" cy="159.3" r="17.5"/>
<circle class="st11" cx="61.1" cy="159.5" r="13.9"/>
<ellipse transform="matrix(2.628849e-02 -0.9997 0.9997 2.628849e-02 -188.3301 236.7522)" class="st8" cx="27.4" cy="215.1" rx="17.5" ry="17.5"/>
<circle class="st10" cx="27.4" cy="215.2" r="13.9"/>
</svg>
