<svg xmlns="http://www.w3.org/2000/svg" xmlns:xlink="http://www.w3.org/1999/xlink" viewBox="0 0 470.58 67.66"><defs><style>.ad76b4cb-d205-4834-ae8e-e770462e9d1d{stroke:#9def48;stroke-miterlimit:10;fill:url(#b9df3b85-cce8-46f5-b9b1-04a70372125d);}.bce50f5f-d3d2-4032-baa7-967685fb31db{fill:#9def48;}.a360681c-c915-4de6-9184-f09d65a754fd{fill:#fff;fill-rule:evenodd;}</style><linearGradient id="b9df3b85-cce8-46f5-b9b1-04a70372125d" x1="0.5" y1="33.83" x2="470.08" y2="33.83" gradientUnits="userSpaceOnUse"><stop offset="0" stop-color="#032c02"/><stop offset="1" stop-color="#207a09"/></linearGradient></defs><g id="a88961ca-8189-4c8a-873a-7cecaa2817b6" data-name="calque3"><polygon class="ad76b4cb-d205-4834-ae8e-e770462e9d1d" points="0.5 6.04 102.57 6.04 108.7 0.5 150.44 0.5 158.35 6.04 461.77 6.24 470.08 16.13 470.08 59.84 50.94 59.84 42.83 67.16 8.02 67.16 0.5 59.84 0.5 6.04"/><path class="bce50f5f-d3d2-4032-baa7-967685fb31db" d="M61.16,37.3l-4.29,6.82H51.79L67.36,19.61h4.69L87.5,44.12h-5L78.25,37.3Zm14.56-4-6-9.59-6,9.59Z"/><path class="bce50f5f-d3d2-4032-baa7-967685fb31db" d="M95,33.88V44.12H90.91v-21L95,19V29.83h6.8l12.58-10.22H121L105.87,31.86,121,44.12h-6.6L101.75,33.88Z"/><path class="bce50f5f-d3d2-4032-baa7-967685fb31db" d="M128.44,33.88V44.12h-4.06v-21L128.44,19V29.83h6.8l12.58-10.22h6.6L139.33,31.86l15.09,12.26h-6.6L135.21,33.88Z"/><path class="bce50f5f-d3d2-4032-baa7-967685fb31db" d="M161.9,40.05h18.43l2.34,4.07H157.84v-21L161.9,19Z"/><path class="bce50f5f-d3d2-4032-baa7-967685fb31db" d="M194.6,37.3l-4.29,6.82h-5.08L200.8,19.61h4.68l15.45,24.51h-5l-4.24-6.82Zm14.56-4-6-9.59-6,9.59Z"/><path class="bce50f5f-d3d2-4032-baa7-967685fb31db" d="M229.27,44.12h-4.06v-21L229.27,19Z"/><path class="bce50f5f-d3d2-4032-baa7-967685fb31db" d="M248.67,23.68h-7.86a16.32,16.32,0,0,0-2.34,8.18,16.41,16.41,0,0,0,2.34,8.19h2.7v4.07h-4.89a18.25,18.25,0,0,1-4.22-12.26,18.18,18.18,0,0,1,4.22-12.25h10V15.76h4.05v3.85h10A18.18,18.18,0,0,1,267,31.86a18.25,18.25,0,0,1-4.22,12.26h-4.89V40.05h2.72a16.48,16.48,0,0,0,2.32-8.19,16.39,16.39,0,0,0-2.32-8.18h-7.88V38.2h-4.05Z"/></g><g id="bde5eaa8-a889-4f95-8f5d-76b963a4c18d" data-name="akklaim"><g id="fb330c98-0b4c-475c-952c-2e888114719f" data-name="layer1"><path id="aa6018a3-9ab9-402e-9d7f-f4a0d205863e" data-name="path3440" class="a360681c-c915-4de6-9184-f09d65a754fd" d="M18.75,51.29,30,58.47V55.38l-1.5-1,0-3.16H30V48.36H18.75Zm0-6.92,3.7,2.37,0,0h0c2.14,1.41,1.79,1.33,4,0l0,0,0,0L30,44.43V41.29l-4.83,3.19h0a1.09,1.09,0,0,1-1.36,0l-5.06-3.23v3.09Zm0-4.28,3.7,2.37,0,0h0c2.14,1.41,1.79,1.33,4,0l0,0,0,0L30,40.15V37L25.18,40.2h0a1.09,1.09,0,0,1-1.36,0L18.75,37v3.09Zm0-3.51H30V33.77H18.75Zm0-12.62h2.1V21.15h-2.1Zm2.51,4.94a4.39,4.39,0,0,0,8.75.52v-1a4.35,4.35,0,0,0-.37-1.29H30V24.5H21.34v2.59h.32A4.21,4.21,0,0,0,21.26,28.9ZM21.41,24H30V21.15h-8.6Zm0-3.47H30V17.87H25.13a1.12,1.12,0,0,1,0-2.23H30V12.82H25.16a1.12,1.12,0,1,1,0-2.23H30V8H25.16c-2.05,0-3.68.82-3.62,3.76a2.84,2.84,0,0,0,1,2.09,3.65,3.65,0,0,0-1,3,3.91,3.91,0,0,0,.13,1h-.22v2.73Zm2.13,30.79h2v1.28l-2-1.28Zm.31-22.38a1.78,1.78,0,1,1,1.78,1.77,1.76,1.76,0,0,1-1.78-1.77Z"/><path id="b4206826-4e30-4891-9910-814cb3d73d51" data-name="path3526" class="a360681c-c915-4de6-9184-f09d65a754fd" d="M19,52.48,31.82,64.61V7.92H30.74V61L19,52.48Z"/><path id="b12afe11-f256-4050-8496-823fb46dc59a" data-name="path3528" class="a360681c-c915-4de6-9184-f09d65a754fd" d="M31.82,61.65V7.92H30.74V61l1.08.69Z"/></g></g></svg>