<svg xmlns="http://www.w3.org/2000/svg" xmlns:xlink="http://www.w3.org/1999/xlink" viewBox="0 0 470.33 67.41"><defs><style>.e3476a58-4615-4c46-b49c-04f3e5959111{stroke:#9def48;stroke-miterlimit:10;stroke-width:0.75px;fill:url(#b85b67f9-d1b2-4d8d-9f56-306234a49c39);}.ba641abd-1b1f-48d4-9c16-1eb73e13de4f{fill:#9def48;}.ab6a7f59-3c66-4f50-8763-37641b2ebacb{fill:#02559c;}.a5ef1acf-218b-4c22-ade0-09cd0a340536{fill:#fff;}.a7918570-d3f6-4140-877a-c687e85b418a{fill:#ca2825;}.a97b4014-f107-4702-99c2-3fe4fa89cd5a{fill:#fdc601;}.a05aabf0-28cc-430f-aa44-7c9d383098da{fill:#009c37;}</style><linearGradient id="b85b67f9-d1b2-4d8d-9f56-306234a49c39" x1="0.38" y1="33.7" x2="469.96" y2="33.7" gradientUnits="userSpaceOnUse"><stop offset="0" stop-color="#032c02"/><stop offset="1" stop-color="#207a09"/></linearGradient></defs><g id="a4ebd1b7-e439-4a21-bce0-3cbd0e34af7f" data-name="texte"><polygon class="e3476a58-4615-4c46-b49c-04f3e5959111" points="0.38 5.91 102.44 5.91 108.57 0.38 150.31 0.38 158.22 5.91 461.65 6.11 469.96 16 469.96 59.72 50.81 59.72 42.7 67.03 7.89 67.03 0.38 59.72 0.38 5.91"/><path class="ba641abd-1b1f-48d4-9c16-1eb73e13de4f" d="M53.68,30.86H74.16a13.62,13.62,0,0,0-1.7-4.75H57.19a14.24,14.24,0,0,0-1.14,2.5H52.68A13.23,13.23,0,0,1,55.51,23H74.14a14,14,0,0,1,3.26,9.45L76,34H55.5a13.06,13.06,0,0,0,1.69,4.76H72.46a14.56,14.56,0,0,0,1.14-2.49H77a13.19,13.19,0,0,1-2.84,5.63H55.51a14,14,0,0,1-3.25-9.45Z" transform="translate(-0.06 -0.03)"/><path class="ba641abd-1b1f-48d4-9c16-1eb73e13de4f" d="M101.34,41.88l-9.1-7.38-9.09,7.38H78.06L89.7,32.43,78.06,23h5.09l9.09,7.38,9.1-7.38h5.09L94.79,32.43l11.64,9.45Z" transform="translate(-0.06 -0.03)"/><path class="ba641abd-1b1f-48d4-9c16-1eb73e13de4f" d="M128.92,30.86V34h-12.6V30.86Z" transform="translate(-0.06 -0.03)"/><path class="ba641abd-1b1f-48d4-9c16-1eb73e13de4f" d="M163.18,30.86l1.43,1.57a14,14,0,0,1-3.26,9.45H142.72a13.28,13.28,0,0,1-2.83-5.63h3.37a14.62,14.62,0,0,0,1.15,2.49h15.27A13.24,13.24,0,0,0,161.37,34H140.89l-1.42-1.55A14,14,0,0,1,142.72,23h18.63a13.13,13.13,0,0,1,2.84,5.63h-3.38a14.18,14.18,0,0,0-1.13-2.5H144.41a13.62,13.62,0,0,0-1.7,4.75Z" transform="translate(-0.06 -0.03)"/><path class="ba641abd-1b1f-48d4-9c16-1eb73e13de4f" d="M193.86,34H173.39a13.4,13.4,0,0,0,1.7,4.76h2.08v3.14H173.4a13.66,13.66,0,0,1-3.19-7.9h-3V30.86h3A13.58,13.58,0,0,1,173.4,23H192a14,14,0,0,1,3.26,9.45Zm-20.47-3.12H192a13.57,13.57,0,0,0-1.68-4.75H175.09A13.42,13.42,0,0,0,173.39,30.86Z" transform="translate(-0.06 -0.03)"/><path class="ba641abd-1b1f-48d4-9c16-1eb73e13de4f" d="M217.05,34H204a13.6,13.6,0,0,0,1.7,4.76h15.53L223,41.88H204a13.66,13.66,0,0,1-3.19-7.9h-3V30.86h3A13.58,13.58,0,0,1,204,23h19l-1.81,3.13H205.7a13.62,13.62,0,0,0-1.7,4.75h13.05Z" transform="translate(-0.06 -0.03)"/><path class="ba641abd-1b1f-48d4-9c16-1eb73e13de4f" d="M245.7,36.25h3.38a13.19,13.19,0,0,1-2.84,5.63H227.61a14,14,0,0,1-3.25-9.45A14,14,0,0,1,227.61,23h18.63a13.13,13.13,0,0,1,2.84,5.63H245.7a14.18,14.18,0,0,0-1.13-2.5H229.3a12.66,12.66,0,0,0-1.81,6.32,12.68,12.68,0,0,0,1.81,6.31h15.27A14.43,14.43,0,0,0,245.7,36.25Z" transform="translate(-0.06 -0.03)"/><path class="ba641abd-1b1f-48d4-9c16-1eb73e13de4f" d="M264.45,39.21l-3.14,3.13V26.11H251.05V23H274.7v3.13H264.45Z" transform="translate(-0.06 -0.03)"/><path class="ba641abd-1b1f-48d4-9c16-1eb73e13de4f" d="M296.05,38.74h2.1A13.75,13.75,0,0,0,299.83,34H281.18a13.4,13.4,0,0,0,1.7,4.76H285v3.14h-3.77A13.66,13.66,0,0,1,278,34h-3V30.86h3A13.58,13.58,0,0,1,281.19,23h18.63A13.54,13.54,0,0,1,303,30.87l-1.36.77v1.58L303,34a13.6,13.6,0,0,1-3.19,7.9h-3.77Zm-14.87-7.88h18.65a13.77,13.77,0,0,0-1.68-4.75H282.88A13.42,13.42,0,0,0,281.18,30.86Z" transform="translate(-0.06 -0.03)"/><path class="ba641abd-1b1f-48d4-9c16-1eb73e13de4f" d="M310.59,38.74h15.27a12.7,12.7,0,0,0,1.79-6.31,12.79,12.79,0,0,0-1.79-6.32h-2.1V23h3.77a14,14,0,0,1,3.26,9.45,14,14,0,0,1-3.26,9.45H308.9a14,14,0,0,1-3.25-9.45A14,14,0,0,1,308.9,23h3.77v3.13h-2.08a12.72,12.72,0,0,0-1.81,6.32A12.62,12.62,0,0,0,310.59,38.74Z" transform="translate(-0.06 -0.03)"/><path class="ba641abd-1b1f-48d4-9c16-1eb73e13de4f" d="M344.43,26.11h-6.06a12.56,12.56,0,0,0-1.81,6.32,12.58,12.58,0,0,0,1.81,6.31h2.08v3.14h-3.77a14,14,0,0,1-3.25-9.45A14,14,0,0,1,336.68,23h7.75V20h3.13v3h7.75a14,14,0,0,1,3.26,9.45,14,14,0,0,1-3.26,9.45h-3.77V38.74h2.1a12.75,12.75,0,0,0,1.79-6.31,12.73,12.73,0,0,0-1.79-6.32h-6.08V37.32h-3.13Z" transform="translate(-0.06 -0.03)"/></g><g id="aa752425-e834-46f2-908f-a43458aa1573" data-name="sinclair"><g id="af884d5d-ea47-4cd3-8d47-0efaee8bae6d" data-name="b5f8fe0c-c369-458b-998a-2e19b416fe64"><path class="ab6a7f59-3c66-4f50-8763-37641b2ebacb" d="M22.39,11.43l6,6V14l-6-6" transform="translate(-0.06 -0.03)"/><path class="a5ef1acf-218b-4c22-ade0-09cd0a340536" d="M27.42,64.7h-.78v-6h-.88v6H23.37V57.87h.78v6.06H25v-6.1h2.43Zm0-7.39h-4V56.5h4Zm0-1.27h-4V49.17h4V50H24.16v5.23h3.26Zm0-7.33h-4V41.84h.77V47.9h2.48V41.84h.78V48.7Zm0-7.44H22.18v-.83h5.24Zm0-8.66h-4V31.8h4Zm0-1.33h-4V24.42h.77v6.06h3.26v.82Zm-4,8.72h.77V34H25V40h2.37V33.13h-4Zm3.25-6.06v5.23h-.88V34ZM23,57.33h-.77V56.5H23Zm0-24.7h-.77V31.8H23Z" transform="translate(-0.06 -0.03)"/><path class="a7918570-d3f6-4140-877a-c687e85b418a" d="M22.39,21.7l6,6V24.32l-6-6" transform="translate(-0.06 -0.03)"/><path class="a97b4014-f107-4702-99c2-3fe4fa89cd5a" d="M22.39,18.29l6,6V20.88l-6-6" transform="translate(-0.06 -0.03)"/><path class="a05aabf0-28cc-430f-aa44-7c9d383098da" d="M22.39,14.86l6,6V17.45l-6-6" transform="translate(-0.06 -0.03)"/></g></g></svg>