<svg enable-background="new 0 0 194.559 323.893" viewBox="0 0 194.559 323.893" xmlns="http://www.w3.org/2000/svg"><path d="m111.036 256.805c0 7.599-6.161 13.757-13.756 13.757-7.596 0-13.754-6.158-13.754-13.757 0-7.597 6.158-13.754 13.754-13.754 7.595 0 13.756 6.157 13.756 13.754z" fill="#71553c"/><path d="m93.175 256.805c0-5.896 3.714-10.928 8.93-12.882-1.502-.563-3.128-.872-4.826-.872-7.596 0-13.754 6.157-13.754 13.756 0 7.597 6.158 13.755 13.754 13.755 1.697 0 3.323-.31 4.826-.873-5.216-1.955-8.93-6.986-8.93-12.884z" fill="#553d27"/><path d="m62.259 296.535c0 1.739-1.423 3.163-3.163 3.163h-11.668c-1.74 0-3.163-1.424-3.163-3.163v-34.974c0-1.74 1.423-3.163 3.163-3.163h11.668c1.74 0 3.163 1.423 3.163 3.163z" fill="#3678a6"/><path d="m53.978 296.535v-34.974c0-1.74 1.423-3.163 3.163-3.163h-9.714c-1.74 0-3.163 1.423-3.163 3.163v34.974c0 1.739 1.423 3.163 3.163 3.163h9.714c-1.739 0-3.163-1.424-3.163-3.163z" fill="#335f9f"/><path d="m150.294 315.984c0 1.74-1.423 3.163-3.163 3.163h-11.668c-1.74 0-3.163-1.423-3.163-3.163v-34.971c0-1.739 1.423-3.163 3.163-3.163h11.668c1.74 0 3.163 1.424 3.163 3.163z" fill="#3678a6"/><path d="m141.91 315.984v-34.971c0-1.739 1.423-3.163 3.163-3.163h-9.61c-1.74 0-3.163 1.424-3.163 3.163v34.971c0 1.74 1.423 3.163 3.163 3.163h9.61c-1.74 0-3.163-1.422-3.163-3.163z" fill="#335f9f"/><path d="m162.544 186.01v-111.445l-62.789-49.819c-1.361-1.082-3.593-1.082-4.954 0l-62.783 49.819v111.445z" fill="#af774d"/><path d="m97.28 38.905c.857 0 1.7.062 2.528.173l9.007-7.146-9.059-7.186c-1.361-1.082-3.593-1.082-4.954 0l-62.784 49.819v110.812h17.636v-106.502l28.811-22.859c.904-9.586 8.994-17.111 18.815-17.111z" fill="#96562b"/><path d="m139.031 130.949c0 23.058-18.691 41.751-41.751 41.751-23.058 0-41.752-18.693-41.752-41.751 0-23.059 18.694-41.752 41.752-41.752 23.06 0 41.751 18.694 41.751 41.752z" fill="#fcf8f2"/><path d="m75.139 130.949c0-19.68 13.621-36.172 31.946-40.583-3.146-.759-6.427-1.169-9.805-1.169-23.061 0-41.752 18.693-41.752 41.752 0 23.058 18.691 41.751 41.752 41.751 3.378 0 6.659-.412 9.805-1.168-18.326-4.414-31.946-20.903-31.946-40.583z" fill="#c7c8ca"/><path d="m183.721 87.334c-1.083 1.361-3.082 1.594-4.443.512l-79.522-63.1c-1.361-1.082-3.593-1.082-4.954 0l-79.52 63.1c-1.362 1.082-3.361.85-4.443-.512l-5.412-6.82c-1.08-1.361-.85-3.36.512-4.443l88.862-70.515c1.361-1.08 3.593-1.08 4.954 0l88.863 70.515c1.364 1.083 1.597 3.082.514 4.443z" fill="#c0223d"/><path d="m111.439 74.754v-16.944c0-7.818-6.338-14.159-14.159-14.159-7.819 0-14.16 6.341-14.16 14.159v16.944z" fill="#d8a567"/><path d="m83.12 57.81v16.944h14.16v-31.104c-7.819 0-14.16 6.341-14.16 14.16z" fill="#e4bc90"/><path d="m169.475 194.842c0 1.739-1.423 3.163-3.163 3.163h-138.065c-1.74 0-3.163-1.424-3.163-3.163v-6.302c0-1.739 1.423-3.163 3.163-3.163h138.065c1.74 0 3.163 1.424 3.163 3.163z" fill="#c0223d"/><path d="m54.263 194.842v-6.302c0-1.739 1.423-3.163 3.163-3.163h-29.179c-1.74 0-3.163 1.424-3.163 3.163v6.302c0 1.739 1.423 3.163 3.163 3.163h29.179c-1.74 0-3.163-1.424-3.163-3.163z" fill="#a52025"/><g fill="#070308"><path d="m50.783 130.949c0 25.638 20.859 46.496 46.497 46.496 25.637 0 46.496-20.858 46.496-46.496s-20.859-46.496-46.496-46.496c-25.638 0-46.497 20.859-46.497 46.496zm46.497-37.008c20.406 0 37.007 16.602 37.007 37.008s-16.601 37.007-37.007 37.007c-20.407 0-37.007-16.601-37.007-37.007s16.6-37.008 37.007-37.008z"/><path d="m94.005 134.381c.882.846 2.056 1.313 3.274 1.313l.113-.002c1.258-.03 2.454-.559 3.321-1.471l12.652-13.285c1.809-1.897 1.735-4.899-.163-6.709-1.895-1.806-4.9-1.731-6.707.166l-9.377 9.845-6.475-6.175c-1.895-1.81-4.9-1.74-6.709.158-1.809 1.895-1.737 4.897.158 6.706z"/><path d="m191.569 72.354-88.863-70.515c-1.495-1.187-3.422-1.839-5.426-1.839-2.007 0-3.934.652-5.429 1.839l-88.861 70.515c-3.415 2.711-3.991 7.692-1.28 11.109l5.412 6.818c1.507 1.9 3.766 2.99 6.2 2.99 1.777 0 3.521-.608 4.91-1.71l9.042-7.174v96.313c-3.902.481-6.934 3.811-6.934 7.841v6.299c0 4.361 3.548 7.907 7.908 7.907h20.271v50.907h-1.09c-4.362 0-7.908 3.546-7.908 7.907v34.972c0 4.361 3.546 7.907 7.908 7.907h11.671c4.359 0 7.908-3.546 7.908-7.907v-5.538c0-2.619-2.125-4.744-4.745-4.744-2.622 0-4.745 2.125-4.745 4.744v3.956h-8.508v-31.811h8.508v5.081c0 2.619 2.123 4.744 4.745 4.744 2.619 0 4.745-2.125 4.745-4.744v-6.66c0-4.361-3.549-7.907-7.908-7.907h-1.092v-50.907h34.529v36.177c-7.908 2.101-13.754 9.318-13.754 17.879 0 10.2 8.298 18.501 18.499 18.501s18.501-8.301 18.501-18.501c0-8.561-5.847-15.778-13.757-17.879v-36.177h34.529v70.357h-1.09c-4.361 0-7.907 3.546-7.907 7.907v34.971c0 4.362 3.546 7.908 7.907 7.908h11.668c4.362 0 7.908-3.546 7.908-7.908v-34.971c0-4.361-3.546-7.907-7.908-7.907h-1.09v-70.357h20.271c4.359 0 7.908-3.546 7.908-7.907v-6.302c0-4.027-3.032-7.356-6.934-7.841v-44.687c0-2.619-2.123-4.744-4.744-4.744-2.62 0-4.745 2.125-4.745 4.744v44.623h-78.23c-2.62 0-4.745 2.125-4.745 4.744 0 2.622 2.125 4.745 4.745 4.745h85.164v3.138h-134.905v-3.138h26.964c2.622 0 4.745-2.123 4.745-4.745 0-2.619-2.123-4.744-4.745-4.744h-20.03v-103.777l60.518-48.02 60.52 48.023v36.377c0 2.619 2.123 4.744 4.745 4.744 2.619 0 4.744-2.125 4.744-4.744v-28.847l9.04 7.174c1.391 1.102 3.133 1.71 4.91 1.71 2.434 0 4.692-1.09 6.2-2.988l5.412-6.82c2.709-3.418 2.133-8.4-1.282-11.111zm-54.525 210.242h8.505v31.808h-8.505zm-30.753-25.791c0 4.969-4.045 9.012-9.012 9.012-4.97 0-9.01-4.043-9.01-9.012 0-4.967 4.04-9.01 9.01-9.01 4.967 0 9.012 4.043 9.012 9.01zm74.697-173.659-78.282-62.116c-1.495-1.186-3.422-1.838-5.426-1.838-2.007 0-3.934.652-5.429 1.838l-78.28 62.116-3.445-4.342 87.154-69.158 87.153 69.158z"/><path d="m111.439 79.498c2.622 0 4.745-2.122 4.745-4.744v-16.944c0-10.423-8.481-18.904-18.904-18.904s-18.904 8.481-18.904 18.904v16.944c0 2.622 2.123 4.744 4.745 4.744zm-9.415-29.807c2.79 1.637 4.67 4.658 4.67 8.118v12.199h-4.67zm-14.159 8.119c0-3.46 1.883-6.481 4.67-8.118v20.317h-4.67z"/><path d="m102.024 100.471c0 2.619-2.123 4.744-4.744 4.744-2.62 0-4.745-2.125-4.745-4.744 0-2.62 2.125-4.745 4.745-4.745 2.621 0 4.744 2.125 4.744 4.745z"/><path d="m102.024 160.377c0 2.622-2.123 4.745-4.744 4.745-2.62 0-4.745-2.123-4.745-4.745 0-2.619 2.125-4.744 4.745-4.744 2.621 0 4.744 2.125 4.744 4.744z"/><path d="m122.835 110.39c0 2.619-2.125 4.744-4.744 4.744-2.62 0-4.745-2.125-4.745-4.744 0-2.62 2.125-4.745 4.745-4.745 2.619 0 4.744 2.125 4.744 4.745z"/><path d="m81.21 110.39c0 2.619-2.123 4.744-4.745 4.744-2.619 0-4.744-2.125-4.744-4.744 0-2.62 2.125-4.745 4.744-4.745 2.622 0 4.745 2.125 4.745 4.745z"/><path d="m131.452 130.949c0 2.619-2.125 4.744-4.744 4.744-2.62 0-4.745-2.125-4.745-4.744 0-2.62 2.125-4.745 4.745-4.745 2.619 0 4.744 2.125 4.744 4.745z"/><path d="m72.593 130.949c0 2.619-2.123 4.744-4.745 4.744-2.619 0-4.744-2.125-4.744-4.744 0-2.62 2.125-4.745 4.744-4.745 2.623 0 4.745 2.125 4.745 4.745z"/><path d="m122.835 152.141c0 2.62-2.125 4.745-4.744 4.745-2.62 0-4.745-2.125-4.745-4.745 0-2.619 2.125-4.744 4.745-4.744 2.619-.001 4.744 2.124 4.744 4.744z"/><path d="m81.217 151.756c0 2.619-2.125 4.744-4.745 4.744-2.619 0-4.744-2.125-4.744-4.744 0-2.622 2.125-4.745 4.744-4.745 2.62 0 4.745 2.123 4.745 4.745z"/></g></svg>