<svg id="b303e87e-0445-4b71-8289-8c37be7d1341" data-name="a0041bc1-d13d-4104-8f2e-93e83444ca86" xmlns="http://www.w3.org/2000/svg" xmlns:xlink="http://www.w3.org/1999/xlink" viewBox="0 0 370.2 875.42"><defs><style>.ad74e830-9cb9-4c91-88fe-207602da7e27,.f319320b-9bbf-4bc5-a2ce-415e0f9ccb15{stroke-miterlimit:10;stroke-width:0.5px;}.ad74e830-9cb9-4c91-88fe-207602da7e27{fill:url(#f38fe173-ecab-4bf2-a95e-e84e481c3545);stroke:url(#fa2b38eb-5a5d-433f-8f27-49198ccd967a);}.f319320b-9bbf-4bc5-a2ce-415e0f9ccb15{stroke:#638d29;fill:url(#a89bc8a6-6e0b-4276-bec1-e7399965c574);}</style><linearGradient id="f38fe173-ecab-4bf2-a95e-e84e481c3545" x1="-351.73" y1="124.01" x2="484.31" y2="124.01" gradientTransform="translate(311.22 390.86) rotate(90)" gradientUnits="userSpaceOnUse"><stop offset="0" stop-color="#0f3304"/><stop offset="1" stop-color="#051a00"/></linearGradient><linearGradient id="fa2b38eb-5a5d-433f-8f27-49198ccd967a" x1="-351.98" y1="124.01" x2="484.56" y2="124.01" gradientTransform="translate(311.22 390.86) rotate(90)" gradientUnits="userSpaceOnUse"><stop offset="0" stop-color="#fff"/><stop offset="1"/></linearGradient><linearGradient id="a89bc8a6-6e0b-4276-bec1-e7399965c574" x1="-78.95" y1="355.69" x2="158.96" y2="355.69" gradientTransform="translate(79.2 -212.72)" xlink:href="#f38fe173-ecab-4bf2-a95e-e84e481c3545"/></defs><polygon class="ad74e830-9cb9-4c91-88fe-207602da7e27" points="4.47 852.09 4.47 503.95 23.21 485.37 23.21 50.2 32.64 39.12 358.03 39.13 369.95 51.39 369.95 852.49 353.65 874.99 22.51 875.17 4.47 852.09"/><polygon class="f319320b-9bbf-4bc5-a2ce-415e0f9ccb15" points="224.91 20.14 102.86 19.87 87.31 0.44 83.88 6.16 14.96 6.16 0.25 19.61 0.25 265.01 11.13 285.51 18.77 280.31 18.77 46.64 28.89 34.34 230.64 34.02 238.16 28.44 224.91 20.14"/></svg>