<svg xmlns="http://www.w3.org/2000/svg" xmlns:xlink="http://www.w3.org/1999/xlink" viewBox="0 0 490.89 351.3"><defs><style>.a44e5b0c-a339-4b3e-bfe6-dac395c0b726,.a4a6ab45-ac2b-4540-b2ff-af3b7e068e16{stroke:#638d29;stroke-miterlimit:10;stroke-width:0.5px;}.a4a6ab45-ac2b-4540-b2ff-af3b7e068e16{fill:url(#aab3962d-07ab-482f-b44a-462e81e78039);}.a44e5b0c-a339-4b3e-bfe6-dac395c0b726{fill:url(#bf488496-74ae-4972-8b81-37648f1e16fb);}</style><linearGradient id="aab3962d-07ab-482f-b44a-462e81e78039" x1="-179.97" y1="-942.47" x2="259.89" y2="-942.47" gradientTransform="translate(260.14 -789.38) rotate(180)" gradientUnits="userSpaceOnUse"><stop offset="0" stop-color="#0f3304"/><stop offset="1" stop-color="#051a00"/></linearGradient><linearGradient id="bf488496-74ae-4972-8b81-37648f1e16fb" x1="-230.5" y1="-1031.73" x2="73.76" y2="-1031.73" xlink:href="#aab3962d-07ab-482f-b44a-462e81e78039"/></defs><g id="a6ae8186-3368-4a68-959b-e7e0cd54773a" data-name="Calque 2"><g id="b01fb658-fc50-46c7-ab95-3f4fc2c8d048" data-name="Calque 1"><polygon class="a4a6ab45-ac2b-4540-b2ff-af3b7e068e16" points="440.11 8.15 439.9 265.26 411.55 294.43 185.56 294.43 176.93 305.94 40.52 305.94 0.25 259.51 0.25 48.31 44.1 0.63 432.71 0.25 440.11 8.15"/><polygon class="a44e5b0c-a339-4b3e-bfe6-dac395c0b726" points="190.7 298.95 413.19 298.95 445.45 265.81 445.45 136.86 455.1 133.78 460.44 133.78 490.64 169.52 490.64 317.85 463.11 346.41 311.7 346.41 306.36 350.93 287.37 323.61 200.76 323.4 186.38 304.91 190.7 298.95"/></g></g></svg>