<svg id="a0041bc1-d13d-4104-8f2e-93e83444ca86" data-name="bc6db7cc-769f-4109-91e1-176c81ae2378" xmlns="http://www.w3.org/2000/svg" xmlns:xlink="http://www.w3.org/1999/xlink" viewBox="0 0 888.87 471.71"><defs><style>.a74aa4b7-3b45-46c8-ad76-38c82d0ccb78,.be5867a3-06c2-422a-8de2-f79fe20139e3{stroke-miterlimit:10;stroke-width:0.5px;}.be5867a3-06c2-422a-8de2-f79fe20139e3{fill:url(#e2fd34c4-1086-4b54-ad35-b526f6bb6d50);stroke:url(#eea19546-6a03-49ed-bbbf-00bd6ec3b80a);}.a74aa4b7-3b45-46c8-ad76-38c82d0ccb78{stroke:#638d29;fill:url(#ee3c8819-3372-42f6-b160-74c68e4799cf);}</style><linearGradient id="e2fd34c4-1086-4b54-ad35-b526f6bb6d50" x1="48.54" y1="468.21" x2="469.7" y2="468.21" gradientTransform="matrix(0, 1, 1, 0, -6.59, 1.76)" gradientUnits="userSpaceOnUse"><stop offset="0" stop-color="#0f3304"/><stop offset="1" stop-color="#051a00"/></linearGradient><linearGradient id="eea19546-6a03-49ed-bbbf-00bd6ec3b80a" x1="48.29" y1="468.21" x2="469.95" y2="468.21" gradientTransform="matrix(0, 1, 1, 0, -6.59, 1.76)" gradientUnits="userSpaceOnUse"><stop offset="0" stop-color="#fff"/><stop offset="1"/></linearGradient><linearGradient id="ee3c8819-3372-42f6-b160-74c68e4799cf" x1="-78.95" y1="768.34" x2="212.32" y2="768.34" gradientTransform="matrix(1, 0, 0, -1, 79.2, 867.28)" xlink:href="#e2fd34c4-1086-4b54-ad35-b526f6bb6d50"/></defs><polygon class="be5867a3-06c2-422a-8de2-f79fe20139e3" points="34.62 432.91 34.62 302.33 45.06 294.06 45.06 77.73 71.55 50.59 882.05 50.3 888.62 57.47 888.62 429.32 850.52 471.38 76.77 471.46 34.62 432.91"/><polygon class="a74aa4b7-3b45-46c8-ad76-38c82d0ccb78" points="291.52 42.14 277.75 25.35 194.84 25.17 176.67 0.36 171.55 4.46 26.61 4.46 0.25 30.39 0.25 165.07 29.17 197.53 34.28 197.53 43.52 194.73 43.52 77.65 71.05 49.62 285.91 49.49 291.52 42.14"/></svg>