<svg id="bc6db7cc-769f-4109-91e1-176c81ae2378" data-name="Calque 1" xmlns="http://www.w3.org/2000/svg" xmlns:xlink="http://www.w3.org/1999/xlink" viewBox="0 0 492.03 352.11"><defs><style>.ab197c1c-0e9c-468d-b506-12f90357ead3,.bc28d136-4e25-4bf3-9423-da45c8e5ae5d{stroke:#638d29;stroke-miterlimit:10;stroke-width:0.5px;}.ab197c1c-0e9c-468d-b506-12f90357ead3{fill:url(#e199d9c2-660a-4778-8f9b-275c5e9979dd);}.bc28d136-4e25-4bf3-9423-da45c8e5ae5d{fill:url(#e33d47c8-bbcd-4fc0-8f7a-eb08f19dcd7a);}</style><linearGradient id="e199d9c2-660a-4778-8f9b-275c5e9979dd" x1="-941.88" y1="116.76" x2="-500.99" y2="116.76" gradientTransform="matrix(-1, 0, 0, 1, -500.74, 81.91)" gradientUnits="userSpaceOnUse"><stop offset="0" stop-color="#0f3304"/><stop offset="1" stop-color="#051a00"/></linearGradient><linearGradient id="e33d47c8-bbcd-4fc0-8f7a-eb08f19dcd7a" x1="-992.52" y1="27.29" x2="-687.55" y2="27.29" xlink:href="#e199d9c2-660a-4778-8f9b-275c5e9979dd"/></defs><polygon class="ab197c1c-0e9c-468d-b506-12f90357ead3" points="441.14 343.95 440.92 86.24 412.5 57 185.99 57 177.34 45.47 40.61 45.47 0.25 92 0.25 303.69 44.21 351.49 433.71 351.86 441.14 343.95"/><polygon class="bc28d136-4e25-4bf3-9423-da45c8e5ae5d" points="191.14 52.47 414.15 52.47 446.48 85.69 446.48 214.94 456.16 218.03 461.51 218.03 491.79 182.2 491.79 33.52 464.19 4.9 312.43 4.9 307.07 0.37 288.04 27.76 201.23 27.96 186.81 46.49 191.14 52.47"/></svg>