<svg id="bedd4405-6419-4844-9c21-f4e429435a5c" data-name="bc6db7cc-769f-4109-91e1-176c81ae2378" xmlns="http://www.w3.org/2000/svg" xmlns:xlink="http://www.w3.org/1999/xlink" viewBox="0 0 469.95 895.47"><defs><style>.bf6ea8c5-d45a-4420-b84b-efe6c7575d25,.e9b7a2f2-1d2c-4450-aabc-0290eeca3baf{stroke-miterlimit:10;stroke-width:0.5px;}.bf6ea8c5-d45a-4420-b84b-efe6c7575d25{fill:url(#bccb3390-0797-42de-acda-0965fa35a1cf);stroke:url(#fbc6288f-3958-4046-b0f6-14a5bc804295);}.e9b7a2f2-1d2c-4450-aabc-0290eeca3baf{stroke:#638d29;fill:url(#f71dd49a-98e9-4f91-989f-eb17804828c2);}</style><linearGradient id="bccb3390-0797-42de-acda-0965fa35a1cf" x1="48.54" y1="468.21" x2="469.7" y2="468.21" gradientUnits="userSpaceOnUse"><stop offset="0" stop-color="#0f3304"/><stop offset="1" stop-color="#051a00"/></linearGradient><linearGradient id="fbc6288f-3958-4046-b0f6-14a5bc804295" x1="48.29" y1="468.21" x2="469.95" y2="468.21" gradientUnits="userSpaceOnUse"><stop offset="0" stop-color="#fff"/><stop offset="1"/></linearGradient><linearGradient id="f71dd49a-98e9-4f91-989f-eb17804828c2" x1="-132.49" y1="719.64" x2="158.78" y2="719.64" gradientTransform="matrix(1, 0, 0, -1, 132.74, 818.58)" xlink:href="#bccb3390-0797-42de-acda-0965fa35a1cf"/></defs><polygon class="bf6ea8c5-d45a-4420-b84b-efe6c7575d25" points="431.15 41.21 300.57 41.21 292.31 51.66 75.98 51.66 48.83 78.14 48.54 888.64 55.72 895.22 427.56 895.22 469.63 857.11 469.7 83.36 431.15 41.21"/><polygon class="e9b7a2f2-1d2c-4450-aabc-0290eeca3baf" points="291.52 42.14 277.75 25.35 194.84 25.17 176.67 0.36 171.55 4.46 26.61 4.46 0.25 30.39 0.25 165.07 29.17 197.53 34.28 197.53 43.52 194.73 43.52 77.65 74.4 47.55 287.39 47.55 291.52 42.14"/></svg>