<svg enable-background="new 0 0 138.942 79.245" viewBox="0 0 138.942 79.245" xmlns="http://www.w3.org/2000/svg"><path d="m4.109 3.843v5.478l-.01 3.921c-.026 9.544-.087 31.897-.005 36.44.089 4.955 1.176 19.139 1.221 19.74l.144 1.874h128.022l.144-1.874c.046-.602 1.132-14.786 1.222-19.74.082-4.579.02-27.061-.006-36.662l-.01-3.697v-5.48z" fill="#d4d2c6"/><path d="m69.471 69.268h62.132s1.127-14.669 1.216-19.621c.097-5.398-.008-36.09-.015-40.322v-3.453h-3.025-60.308-60.308-3.025v3.452c-.008 4.233-.112 34.925-.015 40.323.089 4.953 1.216 19.621 1.216 19.621s62.132 0 62.132 0z" fill="#e8ebd8"/><path d="m136.306 78.608-2.824-7.311h-128.022l-2.824 7.311-.003.004c.441.391 1.009.633 1.652.633h65.187 65.187c.643 0 1.21-.242 1.651-.633" fill="#e3dbd9"/><path d="m2.632 78.612c-.548-.487-.901-1.204-.958-1.977 0 0-1.596-30.92-1.655-41.535-.037-6.82-.01-25.893-.002-30.949.002-1.1.332-2.193 1.059-3.018.078-.089.159-.173.242-.253.001 0 2.792 2.963 2.792 2.963v5.478l-.01 3.921c-.026 9.544-.087 31.897-.005 36.44.089 4.955 1.176 19.139 1.221 19.74l.144 1.874-2.824 7.311" fill="#dcdbd6"/><path d="m4.109 3.843h130.723s2.791-2.964 2.791-2.964c-.578-.557-1.259-.879-2.016-.879h-66.136-66.136c-.757 0-1.439.322-2.016.88z" fill="#efece7"/><path d="m136.309 78.612c.548-.487.901-1.204.958-1.977 0 0 1.596-30.92 1.655-41.535.037-6.819.01-25.893.002-30.948-.002-1.1-.332-2.193-1.059-3.018-.079-.089-.159-.174-.242-.254 0 0-2.791 2.964-2.791 2.964v5.481l.01 3.697c.026 9.601.088 32.082.006 36.662-.09 4.955-1.176 19.139-1.222 19.74l-.144 1.874 2.824 7.311" fill="#b4b0a5"/><g fill="#31181e"><path d="m19.825 16.655h-1.645v1.349h2.957z"/><path d="m21.137 15.029h-2.957v1.349h1.627z"/><path d="m18.088 14.936v-1.736c-.351-.092-.591-.13-.942-.13-1.83 0-3.437 1.534-3.437 3.437 0 1.959 1.626 3.419 3.455 3.419.333 0 .517-.037.924-.148v-1.774c-.407.203-.61.259-.942.259-1.016 0-1.793-.85-1.793-1.792 0-.979.758-1.811 1.774-1.811.351-.001.647.091.961.276z"/><path d="m63.932 14.79c-.658 0-.885.136-1.135.635v-.567h-1.044v2.996h1.089v-1.566c0-.409.25-.613.704-.613s.568.136.59.522h1.022c0-1.021-.137-1.407-1.226-1.407z"/><path d="m67.813 17.265c-1.044 0-1.203-.091-1.203-.613h2.861c-.046-1.452-.046-1.793-1.975-1.793-1.635 0-1.998.295-1.998 1.589 0 1.203.477 1.498 1.794 1.521 1.475 0 2.179-.068 2.179-1.044h-1.067c-.046.226-.136.34-.591.34zm-.363-1.68c.795 0 .909.046.954.431h-1.816c.045-.318.135-.431.862-.431z"/><path d="m25.186 15.767c.635 0 .749.068.817.363h1.089c-.091-1.021-.386-1.271-1.906-1.271-1.725 0-2.111.272-2.111 1.543s.363 1.566 1.975 1.566c1.702 0 2.043-.227 2.043-1.294h-1.089c0 .295-.113.432-.953.432-.727 0-.885-.182-.885-.772-.002-.567.156-.567 1.02-.567z"/><path d="m49.2 14.836c-1.884 0-2.111.318-2.111 1.588 0 1.271.317 1.544 2.111 1.544 1.907 0 2.111-.318 2.111-1.657 0-1.226-.363-1.475-2.111-1.475zm.023 2.27c-.908 0-1.021-.091-1.021-.726 0-.613.136-.681.931-.681.885 0 1.044.023 1.044.681-.001.612-.114.726-.954.726z"/><path d="m59.006 14.836c-1.861 0-2.088.294-2.088 1.566 0 1.294.318 1.566 2.088 1.566 1.906 0 2.088-.318 2.088-1.657 0-1.226-.34-1.475-2.088-1.475zm.023 2.27c-.908 0-1.021-.091-1.021-.726 0-.613.136-.681.93-.681.885 0 1.044.023 1.044.681 0 .612-.113.726-.953.726z"/><path d="m29.839 14.836c-1.884 0-2.111.294-2.111 1.566 0 1.294.318 1.566 2.111 1.566 1.907 0 2.088-.318 2.088-1.657 0-1.226-.341-1.475-2.088-1.475zm.022 2.27c-.886 0-.999-.091-.999-.726 0-.613.136-.681.908-.681.885 0 1.044.023 1.044.681 0 .612-.113.726-.953.726z"/><path d="m55.102 15.335c-.249-.34-.476-.522-1.384-.522-1.453 0-1.725.386-1.725 1.566 0 1.203.386 1.543 1.793 1.543.885 0 1.158-.227 1.362-.613v.544h1.089v-4.267h-1.135zm-.885 1.703c-.863 0-1.09-.023-1.09-.636 0-.704.272-.726 1.18-.726.613 0 .817.091.817.567.001.727-.045.795-.907.795z"/><path d="m37.533 14.79c-.863 0-1.181.318-1.294.658-.227-.386-.544-.658-1.407-.658-.817 0-1.044.272-1.181.772v-.703h-1.021v2.996h1.09v-1.544c0-.454.227-.612.84-.612.568 0 .727.204.727.772v1.384h1.112v-1.589c0-.431.34-.567.862-.567.5 0 .727.136.727.567v1.589h1.09v-1.77c-.001-.886-.546-1.295-1.545-1.295z"/><path d="m44.842 14.79c-.863 0-1.158.295-1.294.658-.227-.386-.545-.658-1.408-.658-.794 0-.999.272-1.158.772v-.703h-1.021v2.996h1.089v-1.544c0-.454.272-.612.817-.612.568 0 .726.182.726.772v1.384h1.113v-1.589c0-.431.318-.567.84-.567.499 0 .749.159.749.567v1.589h1.09v-1.77c.001-.886-.544-1.295-1.543-1.295z"/><path d="m123.766 63.971h-108.413c-1.265 0-2.291-1.026-2.291-2.291v-37.68c0-1.265 1.026-2.291 2.291-2.291h108.413c1.265 0 2.291 1.026 2.291 2.291v37.68c0 1.265-1.025 2.291-2.291 2.291z"/></g><path d="m53.26 59.372v3.293" fill="none" stroke="#1600a2" stroke-miterlimit="10" stroke-width=".2669"/><path d="m14.82 23.148h109.481v39.385h-109.481z" fill="#e8ebd8"/><path d="m14.82 29.124h60.642l5.279-5.976h-65.921z" fill="#a07445"/><path d="m124.3 55.044h-63.206l-6.689 7.489h69.895z" fill="#a07445"/><path d="m30.634 59.372s-8.182-9.036-8.182-9.036h30.785c.013 0 .023-.01.023-.023v-3.211c0-.021.026-.031.04-.015l6.924 7.752c.008.009.008.022 0 .03l-6.924 7.752c-.014.016-.04.006-.04-.015v-3.211c0-.013-.01-.023-.023-.023z" fill="#31181e"/><path d="m21.395 49.168-6.576-7.262v-.03h29.865c.013 0 .023-.01.023-.023v-4.096c0-.021.026-.031.04-.015l6.924 7.752c.008.009.008.022 0 .03l-6.924 7.752c-.014.016-.04.006-.04-.015v-4.098c0-.013-.01-.023-.023-.023h-23.258" fill="#31181e"/><path d="m26.208 54.484s-7.444-8.221-7.444-8.221h22.089c.012 0 .021-.009.021-.021v-2.921c0-.019.024-.028.037-.014l6.501 7.053c.007.008.007.02 0 .027l-6.501 7.053c-.013.014-.037.005-.037-.014v-2.921c0-.011-.01-.021-.021-.021z" fill="#e8ebd8"/><path d="m114.931 25.534c.274-.094.571-.073.835.045 2.263 1.015 4.22 1.331 5.487 1.439 1.302.111 2.741.217 4.419-.415.816-.308 1.996-.753 2.847-1.957 1.119-1.585.893-3.388.83-3.885-.099-.786-.337-1.596-.549-2.093-.071-.165-.086-.349-.067-.527.386-3.583-.618-6.932-2.854-8.591-1.421-1.054-3.471-1.523-3.559-1.542-1.035-.229-2-.269-3.618-.148-1.603.12-4.24.452-6.938 1.139-.195.05-.396.048-.589-.008-2.407-.701-5.169-1.423-8.65-1.659-5.277-.357-10.237.374-13.475 1.144-.171.041-.341.043-.512-.001-.756-.195-2.131-.414-3.63.111-2.853.998-3.837 3.877-4.093 4.627-1.15 3.364.342 6.424.979 7.514.139.239.177.515.124.786-.162.823-.345 2.582.722 3.904.919 1.139 2.245 1.43 3.025 1.602 1.477.325 2.673.09 3.44-.059 2.165-.42 4.759-.898 7.499-1.398.196-.036.394-.02.581.048 1.601.577 3.583 1.117 5.889 1.38 4.944.563 9.277-.573 11.857-1.456z" fill="#e8ebd8" stroke="#31181e" stroke-miterlimit="10" stroke-width=".5338"/><g fill="#31181e"><path d="m86.682 10.817c0 .111-.018.235-.055.371-.096.365-.283.65-.559.852-.277.203-.605.304-.985.304h-.702l.621-2.313h.702c.284 0 .51.058.679.176.2.136.299.339.299.61zm-.49.067c0-.322-.197-.484-.59-.484h-.221l-.423 1.576h.221c.504 0 .826-.263.967-.788.031-.11.046-.212.046-.304z"/><path d="m89.26 10.762c0 .432-.138.807-.413 1.125-.286.335-.641.503-1.063.503-.261 0-.463-.064-.608-.192-.152-.135-.228-.331-.228-.586 0-.432.138-.807.413-1.125.288-.333.644-.499 1.067-.499.261 0 .462.064.605.192.152.132.227.327.227.582zm-.49.049c0-.303-.147-.456-.442-.456-.273 0-.495.139-.666.417-.149.239-.224.504-.224.794 0 .302.148.455.442.455.274 0 .495-.139.666-.417.15-.238.224-.503.224-.793z"/><path d="m91.925 10.032-.621 2.313h-.673l-.394-1.849-.496 1.849h-.448l.621-2.313h.673l.394 1.849.496-1.849z"/><path d="m92.7 10.423h-.224l-.33-.577h.417z"/><path d="m94.968 10.032-.1.368h-.682l-.522 1.945h-.48l.522-1.945h-.682l.1-.368z"/><path d="m97.895 10.032-.099.368h-.99l-.151.567h.926l-.1.368h-.925l-.272 1.009h-.481l.621-2.313h1.471z"/><path d="m100.186 10.762c0 .432-.138.807-.413 1.125-.286.335-.641.503-1.063.503-.261 0-.463-.064-.608-.192-.152-.135-.228-.331-.228-.586 0-.432.138-.807.413-1.125.288-.333.644-.499 1.067-.499.261 0 .462.064.605.192.151.132.227.327.227.582zm-.49.049c0-.303-.147-.456-.442-.456-.273 0-.495.139-.666.417-.149.239-.224.504-.224.794 0 .302.148.455.442.455.274 0 .495-.139.666-.417.149-.238.224-.503.224-.793z"/><path d="m102.486 10.468c0 .055-.009.117-.029.186-.043.147-.126.264-.249.349-.01.006-.14.071-.386.195.072.03.143.06.213.09.055.039.082.113.082.221 0 .083-.01.206-.032.37-.021.164-.032.287-.032.37 0 .032.001.064.003.096h-.487c-.002-.017-.003-.042-.003-.074 0-.068.011-.169.035-.302.023-.133.035-.234.035-.299 0-.177-.09-.266-.269-.266h-.417l-.253.942h-.481l.621-2.313h.897c.501-.001.752.144.752.435zm-.519.18c0-.081-.036-.144-.109-.189-.062-.039-.137-.058-.224-.058h-.417l-.17.635h.385c.121 0 .237-.033.346-.1.126-.077.189-.174.189-.288z"/><path d="m104.949 10.526c0 .069-.012.146-.035.234h-.48c.013-.047.019-.089.019-.124 0-.187-.128-.279-.385-.279-.265 0-.493.126-.683.378-.178.233-.267.486-.267.759 0 .173.056.305.167.397.103.088.242.131.418.131.077 0 .202-.017.376-.048l.128-.478h-.416l.102-.382h.897l-.301 1.131c-.361.096-.65.144-.868.144-.295 0-.528-.059-.698-.179-.197-.139-.295-.348-.295-.628 0-.416.156-.786.468-1.11.312-.323.675-.485 1.089-.485.508.001.764.18.764.539z"/><path d="m107.053 10.032-.1.368h-1.067l-.154.57h1.003l-.093.352h-1.003l-.176.654h1.099l-.1.368h-1.56l.621-2.313h1.53z"/><path d="m109.289 10.032-.1.368h-.682l-.522 1.945h-.48l.522-1.945h-.682l.1-.368z"/><path d="m112.521 10.032-.1.368h-.682l-.522 1.945h-.48l.522-1.945h-.682l.1-.368z"/><path d="m114.717 10.762c0 .432-.138.807-.413 1.125-.286.335-.641.503-1.063.503-.261 0-.463-.064-.608-.192-.152-.135-.228-.331-.228-.586 0-.432.138-.807.413-1.125.288-.333.644-.499 1.067-.499.261 0 .462.064.605.192.152.132.227.327.227.582zm-.49.049c0-.303-.147-.456-.442-.456-.273 0-.495.139-.666.417-.149.239-.224.504-.224.794 0 .302.148.455.442.455.274 0 .495-.139.666-.417.15-.238.224-.503.224-.793z"/><path d="m118.328 10.032-.1.368h-.682l-.522 1.945h-.48l.522-1.945h-.682l.1-.368z"/><path d="m120.505 10.032-1.163 1.438-.234.875h-.481l.234-.875-.388-1.438h.532l.224.971.743-.971z"/><path d="m122.241 10.548c0 .286-.115.514-.346.685-.209.156-.46.234-.752.234h-.343l-.237.878h-.48l.621-2.313h.823c.197 0 .358.036.484.108.153.088.23.224.23.408zm-.49.087c0-.103-.053-.171-.157-.205-.058-.019-.152-.029-.282-.029h-.224l-.186.699h.224c.417-.001.625-.155.625-.465z"/><path d="m124.33 10.032-.1.368h-1.067l-.154.57h1.003l-.093.352h-1.003l-.176.654h1.099l-.1.368h-1.56l.621-2.313h1.53z"/><path d="m86.589 14.327c0 .067-.008.131-.026.196h-.48c.01-.039.016-.075.016-.109 0-.077-.027-.135-.08-.173-.053-.039-.119-.057-.198-.057-.111 0-.218.033-.322.099-.117.075-.176.165-.176.269 0 .096.092.175.275.238.336.115.508.173.515.175.183.093.274.221.274.388 0 .252-.128.467-.384.644-.233.157-.481.237-.743.237-.205 0-.374-.042-.506-.125-.16-.098-.24-.243-.24-.436 0-.068.01-.139.029-.211h.483c-.015.055-.022.106-.022.153 0 .167.123.25.367.25.119 0 .232-.031.338-.093.126-.075.188-.168.188-.279 0-.1-.091-.181-.274-.243-.17-.055-.342-.112-.515-.167-.183-.088-.275-.214-.275-.377 0-.248.123-.46.368-.635.222-.16.46-.24.716-.24.448 0 .672.165.672.496z"/><path d="m89.106 13.876-1.163 1.438-.234.875h-.479l.234-.875-.388-1.438h.532l.224.971.743-.971z"/><path d="m90.897 14.327c0 .067-.008.131-.026.196h-.48c.01-.039.016-.075.016-.109 0-.077-.027-.135-.08-.173s-.119-.057-.198-.057c-.111 0-.218.033-.322.099-.117.075-.176.165-.176.269 0 .096.092.175.275.238.336.115.508.173.515.175.183.093.274.221.274.388 0 .252-.128.467-.384.644-.233.157-.481.237-.743.237-.205 0-.374-.042-.506-.125-.16-.098-.24-.243-.24-.436 0-.068.01-.139.029-.211h.483c-.015.055-.022.106-.022.153 0 .167.123.25.367.25.119 0 .232-.031.338-.093.126-.075.188-.168.188-.279 0-.1-.091-.181-.274-.243-.17-.055-.342-.112-.515-.167-.183-.088-.275-.214-.275-.377 0-.248.123-.46.368-.635.222-.16.46-.24.716-.24.449 0 .672.165.672.496z"/><path d="m93.969 14.295c0 .189-.054.338-.163.449-.088.088-.227.165-.42.234.117.041.202.084.253.131.073.064.109.149.109.255 0 .229-.108.433-.323.612-.203.171-.421.256-.654.256-.414 0-.621-.149-.621-.448 0-.077.012-.16.035-.247h.451c-.013.047-.019.089-.019.125 0 .145.074.218.221.218.128 0 .237-.051.325-.153.089-.103.133-.219.133-.349 0-.105-.063-.172-.189-.202-.05-.01-.155-.016-.317-.016l.096-.352c.414 0 .621-.141.621-.423 0-.135-.069-.201-.205-.201-.096 0-.178.027-.247.081-.068.054-.115.128-.141.22h-.448c.055-.21.174-.373.356-.49.17-.109.368-.164.592-.164.161 0 .289.036.388.108.112.081.167.2.167.356z"/><path d="m95.894 14.308c0 .204-.095.412-.285.621-.143.16-.35.329-.621.509-.205.126-.41.253-.615.382h1.137l-.1.368h-1.633l.112-.413c.186-.122.37-.244.554-.365.286-.195.507-.365.663-.51.213-.2.32-.366.32-.496 0-.065-.021-.117-.063-.158-.042-.042-.093-.063-.155-.063-.1 0-.191.03-.272.091-.081.062-.135.141-.16.239h-.465c.055-.202.18-.369.375-.499.186-.122.387-.182.605-.182.168 0 .308.036.417.108.123.085.186.208.186.368z"/><path d="m97.7 13.876-.099.368h-.945l-.195.6c.106-.109.279-.164.519-.164.148 0 .264.042.349.125s.128.198.128.346c0 .288-.112.54-.336.757s-.48.325-.768.325c-.173 0-.31-.033-.41-.099-.121-.081-.182-.203-.182-.365 0-.054.006-.111.019-.17h.432c-.008.031-.013.062-.013.09 0 .128.082.192.247.192.158 0 .291-.069.4-.209.1-.127.151-.273.151-.435 0-.154-.087-.231-.26-.231-.101 0-.182.023-.247.068-.023.017-.082.077-.176.179h-.41l.433-1.377z"/><path d="m99.462 14.443c0 .243-.052.5-.154.772-.111.291-.257.527-.438.708-.209.207-.439.311-.691.311-.162 0-.296-.047-.403-.14-.106-.093-.16-.218-.16-.376 0-.038.004-.073.013-.105h.448c-.008.032-.013.058-.013.08 0 .126.066.189.198.189.147 0 .285-.099.415-.298.098-.149.172-.317.221-.503-.09.069-.179.138-.268.209-.081.047-.198.07-.351.07-.141 0-.254-.046-.339-.138-.086-.092-.128-.209-.128-.352 0-.275.109-.517.326-.725.217-.209.463-.313.738-.313.39-.001.586.203.586.611zm-.481-.017c0-.162-.077-.243-.23-.243-.137 0-.25.07-.34.209-.079.121-.118.254-.118.4 0 .162.077.243.23.243.137 0 .25-.069.34-.209.079-.121.118-.254.118-.4z"/><path d="m101.355 14.308c0 .204-.095.412-.285.621-.143.16-.35.329-.621.509-.205.126-.41.253-.615.382h1.137l-.1.368h-1.633l.112-.413c.186-.122.37-.244.554-.365.286-.195.507-.365.663-.51.213-.2.32-.366.32-.496 0-.065-.021-.117-.063-.158-.042-.042-.093-.063-.155-.063-.1 0-.191.03-.272.091-.081.062-.134.141-.16.239h-.465c.055-.202.18-.369.375-.499.186-.122.387-.182.605-.182.168 0 .308.036.417.108.124.085.186.208.186.368z"/><path d="m104.346 16.188h-.464l-.058-.493h-.913l-.311.493h-.465l1.489-2.313h.477zm-.56-.861-.061-.935-.583.935z"/><path d="m107.273 13.876-.621 2.313h-.673l-.394-1.849-.496 1.849h-.448l.621-2.313h.673l.394 1.849.496-1.849z"/><path d="m109.379 14.661c0 .111-.018.235-.055.371-.096.365-.283.65-.559.852-.277.203-.605.304-.985.304h-.702l.621-2.313h.702c.284 0 .51.058.679.176.199.135.299.339.299.61zm-.49.066c0-.322-.197-.484-.59-.484h-.221l-.423 1.576h.221c.504 0 .826-.263.967-.788.03-.11.046-.212.046-.304z"/><path d="m113.059 13.876-.621 2.313h-.465l.275-1.025h-.913l-.275 1.025h-.465l.621-2.313h.465l-.247.92h.913l.247-.92z"/><path d="m113.962 13.876-.621 2.313h-.481l.621-2.313z"/><path d="m116.159 13.876-.1.368h-.682l-.522 1.945h-.48l.522-1.945h-.682l.1-.368z"/><path d="m86.775 17.72-.1.368h-.682l-.522 1.945h-.48l.522-1.945h-.682l.1-.368z"/><path d="m88.892 17.72-.621 2.313h-.464l.275-1.025h-.913l-.275 1.025h-.465l.621-2.313h.465l-.247.92h.913l.247-.92z"/><path d="m90.843 17.72-.1.368h-1.067l-.154.57h1.003l-.093.352h-1.002l-.176.654h1.099l-.1.368h-1.56l.621-2.313h1.529z"/><path d="m94.132 18.156c0 .055-.009.117-.029.186-.043.147-.126.264-.249.349-.01.006-.14.071-.386.195.072.03.143.06.213.09.055.039.082.113.082.221 0 .083-.01.206-.032.37-.021.164-.032.287-.032.37 0 .032.001.064.003.096h-.487c-.002-.017-.003-.042-.003-.074 0-.068.011-.169.035-.302.023-.133.035-.234.035-.299 0-.177-.09-.266-.269-.266h-.417l-.253.942h-.481l.621-2.313h.897c.502-.001.752.144.752.435zm-.519.179c0-.081-.036-.144-.109-.189-.062-.039-.137-.058-.224-.058h-.417l-.17.635h.385c.121 0 .237-.033.346-.1.126-.076.189-.173.189-.288z"/><path d="m96.192 17.72-.1.368h-1.067l-.154.57h1.003l-.093.352h-1.003l-.176.654h1.099l-.1.368h-1.56l.621-2.313h1.53z"/><path d="m98.427 17.72-.1.368h-.682l-.522 1.945h-.48l.522-1.945h-.682l.1-.368z"/><path d="m100.708 17.72-.365 1.354c-.083.308-.238.552-.465.732-.226.181-.498.271-.814.271-.499 0-.749-.217-.749-.651 0-.108.017-.226.051-.352l.365-1.354h.481l-.365 1.354c-.028.103-.041.197-.041.283 0 .235.124.352.371.352.344 0 .572-.212.686-.635l.365-1.354z"/><path d="m102.777 18.156c0 .055-.009.117-.029.186-.043.147-.126.264-.249.349-.01.006-.14.071-.386.195.072.03.143.06.213.09.055.039.082.113.082.221 0 .083-.01.206-.032.37-.021.164-.032.287-.032.37 0 .032.001.064.003.096h-.487c-.002-.017-.003-.042-.003-.074 0-.068.011-.169.035-.302.023-.133.035-.234.035-.299 0-.177-.09-.266-.269-.266h-.417l-.253.942h-.481l.621-2.313h.897c.502-.001.752.144.752.435zm-.519.179c0-.081-.036-.144-.109-.189-.062-.039-.137-.058-.224-.058h-.417l-.17.635h.385c.121 0 .237-.033.346-.1.126-.076.189-.173.189-.288z"/><path d="m105.32 17.72-.621 2.313h-.673l-.394-1.849-.496 1.849h-.448l.621-2.313h.673l.394 1.849.496-1.849z"/><path d="m108.719 17.72-1.093 1.034.567 1.278h-.577l-.522-1.159-.311 1.159h-.481l.621-2.313h.481l-.266.993 1.034-.993h.547z"/><path d="m110.653 17.72-.1.368h-1.067l-.154.57h1.003l-.093.352h-1.003l-.176.654h1.099l-.1.368h-1.56l.621-2.313h1.53z"/><path d="m113.016 17.72-1.163 1.438-.234.875h-.481l.234-.875-.388-1.438h.532l.224.971.743-.971z"/><path d="m116.175 17.72-.1.368h-.682l-.522 1.945h-.48l.522-1.945h-.682l.1-.368z"/><path d="m118.372 18.45c0 .432-.138.807-.413 1.125-.286.335-.641.503-1.063.503-.261 0-.463-.064-.608-.192-.152-.135-.228-.331-.228-.586 0-.432.138-.807.413-1.125.288-.333.644-.499 1.067-.499.261 0 .462.064.605.192.151.131.227.326.227.582zm-.49.049c0-.303-.147-.456-.442-.456-.273 0-.495.139-.666.417-.149.239-.224.504-.224.794 0 .302.148.455.442.455.274 0 .495-.139.666-.417.149-.239.224-.504.224-.793z"/><path d="m86.589 22.014c0 .067-.008.131-.026.196h-.48c.01-.039.016-.075.016-.109 0-.077-.027-.135-.08-.173-.053-.039-.119-.057-.198-.057-.111 0-.218.033-.322.099-.117.075-.176.165-.176.269 0 .096.092.175.275.238.336.115.508.173.515.175.183.093.274.221.274.388 0 .252-.128.467-.384.644-.233.157-.481.237-.743.237-.205 0-.374-.042-.506-.125-.16-.098-.24-.243-.24-.436 0-.068.01-.139.029-.211h.483c-.015.055-.022.106-.022.153 0 .167.123.25.367.25.119 0 .232-.031.338-.093.126-.075.188-.168.188-.279 0-.1-.091-.181-.274-.243-.17-.055-.342-.112-.515-.167-.183-.088-.275-.214-.275-.377 0-.248.123-.46.368-.635.222-.16.46-.24.716-.24.448 0 .672.166.672.496z"/><path d="m88.979 21.563-.1.368h-.682l-.522 1.945h-.48l.522-1.945h-.682l.1-.368z"/><path d="m90.621 23.876h-.464l-.057-.494h-.913l-.311.493h-.465l1.489-2.313h.477zm-.56-.862-.061-.935-.583.935z"/><path d="m93.184 21.999c0 .055-.009.117-.029.186-.043.147-.126.264-.249.349-.01.006-.14.071-.386.195.072.03.143.06.213.09.055.039.082.113.082.221 0 .083-.01.206-.032.37-.021.164-.032.287-.032.37 0 .032.001.064.003.096h-.487c-.002-.017-.003-.042-.003-.074 0-.068.011-.169.035-.302s.035-.234.035-.299c0-.177-.09-.266-.269-.266h-.415l-.253.942h-.481l.621-2.313h.897c.5-.001.75.144.75.435zm-.519.179c0-.081-.036-.144-.109-.189-.062-.039-.137-.058-.224-.058h-.417l-.17.635h.385c.121 0 .237-.033.346-.1.126-.076.189-.173.189-.288z"/><path d="m95.491 21.563-.1.368h-.682l-.522 1.945h-.48l.522-1.945h-.682l.1-.368z"/><path d="m98.85 21.563-1.163 1.438-.234.875h-.481l.234-.875-.388-1.438h.532l.224.971.743-.971z"/><path d="m100.973 22.293c0 .432-.138.807-.413 1.125-.286.335-.641.503-1.063.503-.261 0-.463-.064-.608-.192-.152-.135-.228-.331-.228-.586 0-.432.138-.807.413-1.125.288-.333.644-.499 1.067-.499.261 0 .462.064.605.192.152.131.227.326.227.582zm-.49.049c0-.303-.147-.456-.442-.456-.273 0-.495.139-.666.417-.149.239-.224.504-.224.794 0 .302.148.455.442.455.274 0 .495-.139.666-.417.15-.238.224-.503.224-.793z"/><path d="m103.632 21.563-.365 1.354c-.083.308-.238.552-.465.732-.226.181-.498.271-.814.271-.499 0-.749-.217-.749-.651 0-.108.017-.226.051-.352l.365-1.354h.481l-.365 1.354c-.028.103-.041.197-.041.283 0 .235.124.352.371.352.344 0 .572-.212.686-.635l.365-1.354z"/><path d="m105.701 21.999c0 .055-.009.117-.029.186-.043.147-.126.264-.249.349-.01.006-.14.071-.386.195.072.03.143.06.213.09.055.039.082.113.082.221 0 .083-.01.206-.032.37-.021.164-.032.287-.032.37 0 .032.001.064.003.096h-.487c-.002-.017-.003-.042-.003-.074 0-.068.011-.169.035-.302.023-.133.035-.234.035-.299 0-.177-.09-.266-.269-.266h-.417l-.253.942h-.481l.621-2.313h.897c.502-.001.752.144.752.435zm-.519.179c0-.081-.036-.144-.109-.189-.062-.039-.137-.058-.224-.058h-.417l-.17.635h.385c.121 0 .237-.033.346-.1.126-.076.189-.173.189-.288z"/><path d="m108.782 23.876h-.464l-.058-.493h-.913l-.311.493h-.464l1.489-2.313h.477zm-.56-.862-.061-.935-.583.935z"/><path d="m111.38 22.348c0 .111-.018.235-.055.371-.096.365-.283.65-.559.852-.277.203-.605.304-.985.304h-.702l.621-2.313h.702c.284 0 .51.058.679.176.2.136.299.339.299.61zm-.49.067c0-.322-.197-.484-.59-.484h-.221l-.423 1.576h.221c.504 0 .826-.263.967-.788.031-.11.046-.212.046-.304z"/><path d="m114.209 21.563-1.502 2.313h-.57l-.227-2.313h.512l.16 1.778 1.115-1.778z"/><path d="m115.938 21.563-.1.368h-1.067l-.154.57h1.003l-.093.352h-1.003l-.176.654h1.099l-.1.368h-1.56l.621-2.313h1.53z"/><path d="m118.411 21.563-.621 2.313h-.673l-.394-1.849-.496 1.849h-.448l.621-2.313h.673l.394 1.849.496-1.849z"/><path d="m120.608 21.563-.1.368h-.682l-.522 1.945h-.48l.522-1.945h-.682l.1-.368z"/><path d="m122.889 21.563-.365 1.354c-.083.308-.238.552-.465.732-.226.181-.498.271-.814.271-.499 0-.749-.217-.749-.651 0-.108.017-.226.051-.352l.365-1.354h.481l-.365 1.354c-.028.103-.041.197-.041.283 0 .235.124.352.371.352.344 0 .572-.212.686-.635l.365-1.354z"/><path d="m124.958 21.999c0 .055-.009.117-.029.186-.043.147-.126.264-.249.349-.01.006-.14.071-.386.195.072.03.143.06.213.09.055.039.082.113.082.221 0 .083-.01.206-.032.37-.021.164-.032.287-.032.37 0 .032.001.064.003.096h-.487c-.002-.017-.003-.042-.003-.074 0-.068.011-.169.035-.302s.035-.234.035-.299c0-.177-.09-.266-.269-.266h-.417l-.253.942h-.481l.621-2.313h.897c.502-.001.752.144.752.435zm-.519.179c0-.081-.036-.144-.109-.189-.062-.039-.137-.058-.224-.058h-.417l-.17.635h.385c.121 0 .237-.033.346-.1.126-.076.189-.173.189-.288z"/><path d="m127.018 21.563-.1.368h-1.067l-.154.57h1.003l-.093.352h-1.003l-.176.654h1.099l-.1.368h-1.56l.621-2.313h1.53z"/><path d="m127.594 23.508-.099.368h-.417l.099-.368zm.554-1.945-.538 1.701h-.314l.371-1.701z"/></g></svg>