<svg enable-background="new 0 0 430.1 42.7" viewBox="0 0 430.1 42.7" xmlns="http://www.w3.org/2000/svg"><path d="m21.3 0h387.4c11.7 0 21.3 9.6 21.3 21.3s-9.6 21.3-21.3 21.3h-387.4c-11.7.1-21.3-9.5-21.3-21.3 0-11.7 9.6-21.3 21.3-21.3z" fill="#9c8661"/><text fill="#ed1140" font-family="'ArialMT'" font-size="1" transform="translate(271.0742 25.0488)">I don’t like bugs!</text><g fill="#100100"><path d="m124.3 0h106.3c6.8 0 17.9 9.6 17.9 21.3s-11.2 21.3-17.9 21.3h-106.3-106.4c-6.7.1-17.9-9.5-17.9-21.3 0-11.7 11.2-21.3 17.9-21.3z"/><path d="m270.7 17h9.1l-3.9 3.8h-5.1zm0 5h5.1l3.9 3.8h-9.1zm-2.9-10.7c.9 0 1.8.1 2.7.3v4.5c-.8-.4-1.7-.6-2.6-.6-3.3 0-6.1 2.5-6.2 5.7.1 1.6.9 3.1 2.1 4.1s2.7 1.6 4.1 1.6c1 0 1.8-.2 2.7-.5v4.5c-.9.2-1.8.3-2.6.3-5.7-.1-10.9-4.4-10.9-10 0-5.8 5.3-9.8 10.7-9.9z"/><path d="m297 22.1c0 4-4.2 3.9-6.3 3.9-4.3 0-5.9-1.5-6-4.8-.1-4.8 3.1-4.7 6.1-4.7 3.6-.2 6.1.7 6.2 3.9h-3.4c-.1-1-.8-1.4-2.7-1.4-2.3 0-2.8.4-2.8 2.3 0 2 1 2.2 2.8 2.2 2 0 2.5-.3 2.7-1.3zm82.4 3.7h-3.1v-1.2h-.2c-.6 1.1-1.5 1.4-3.8 1.4-4.4 0-5.1-1.9-5.2-4.8 0-4.3 2.1-4.7 5.2-4.7 2.3 0 3 .3 3.7 1.5h.1v-5h3.3zm-9-4.7c0 2 .4 2.3 2.8 2.3 1.2 0 2.1-.2 2.4-.4.4-.3.5-.7.5-1.8 0-1.9-.4-2.2-2.7-2.2-2.5 0-3 .3-3 2.1m27.4-4.4v1.4h.2c.6-1.2 1.5-1.6 3.4-1.6 2.6 0 3.5.9 3.5 3.7v.6h-3.1c0-1.3-.4-1.7-1.7-1.7-.7 0-1.4.2-1.7.7-.3.4-.4.9-.4 2.3v3.8h-3.3v-9.1zm20.1 6.2c-.3 2.5-1.5 3.1-6.3 3.1-4.2 0-5.8-1.6-5.8-4.7-.1-4.9 3-4.8 6.1-4.8 5.2 0 6.1 1.3 6 5.5h-8.8c0 1.9.9 1.8 2.7 1.9 2.1 0 2.5-.2 2.7-1zm-3.3-2.8c0-1.4-.8-1.5-2.6-1.6-1.8 0-2.9.1-2.8 1.6z" stroke="#b6a385" stroke-miterlimit="2.1287" stroke-width=".1381"/><path d="m315 16.7v1.4h.2c.5-1.1 1.6-1.6 3.5-1.6 2.1 0 3.3.6 4 1.9.6-1.4 1.6-1.9 3.8-1.9 1.8 0 2.9.3 3.6 1.2.8.8.9 1.6.9 3.9v4.2h-3.3v-4.2c0-1.2-.1-1.8-.4-2-1-.7-2.9-.9-3.8.1-.4.4-.5 1.1-.5 2.4v3.7h-3.3v-3.7c0-.8.1-2.1-.4-2.6-.7-.7-3-.7-3.8.1-.6.6-.5 1.1-.5 2.5v3.7h-3v-9.1z" stroke="#b6a385" stroke-miterlimit="2.1287" stroke-width=".1381"/><path d="m336.1 16.7v1.4h.2c.5-1.1 1.6-1.6 3.5-1.6 2.1 0 3.3.6 4 1.9.6-1.4 1.6-1.9 3.8-1.9 1.8 0 2.9.3 3.6 1.2.8.8.9 1.6.9 3.9v4.2h-3.3v-4.2c0-1.2-.1-1.8-.4-2-1-.7-2.9-.9-3.8.1-.4.4-.5 1.1-.5 2.4v3.7h-3.3v-3.7c0-.8.1-2.1-.4-2.6-.7-.7-3-.7-3.8.1-.6.6-.5 1.1-.5 2.5v3.7h-3.3v-9.1z" stroke="#b6a385" stroke-miterlimit="2.1287" stroke-width=".1381"/><path d="m310.4 21.1c.1 4.5-2.1 4.9-6.2 4.9-4.1.1-6.2-.8-6.2-5.1s2.5-4.4 6.2-4.5c3.7 0 6.1.1 6.2 4.7zm-9.2.2c.1 2.1 1 2.1 2.9 2.2s2.9-.3 2.9-2.3-.6-2.2-2.9-2.2c-2.2 0-2.9.4-2.9 2.3" stroke="#b6a385" stroke-miterlimit="2.1287" stroke-width=".1381"/><path d="m365.9 21.1c.1 4.5-2.1 4.9-6.2 4.9-4.1.1-6.2-.8-6.2-5.1s2.5-4.4 6.2-4.5c3.7 0 6.2.1 6.2 4.7zm-9.1.2c.1 2.1 1 2.1 2.9 2.2s2.9-.3 2.9-2.3-.6-2.2-2.9-2.2-2.9.4-2.9 2.3" stroke="#b6a385" stroke-miterlimit="2.1287" stroke-width=".1381"/><path d="m393.4 21.1c.1 4.5-2.1 4.9-6.2 4.9-4.1.1-6.2-.8-6.2-5.1s2.5-4.4 6.2-4.5 6.2.1 6.2 4.7zm-9.1.2c.1 2.1 1 2.1 2.9 2.2s2.9-.3 2.9-2.3-.6-2.2-2.9-2.2-2.9.4-2.9 2.3" stroke="#b6a385" stroke-miterlimit="2.1287" stroke-width=".1381"/></g><path d="m121.5 17v5.7h-6.3v-5.7z" fill="#9c8661"/><path d="m122.7 6.3v5.7h2.8v24.4h5.7v-30.1z" fill="#9c8661"/><path d="m83.5 6.3h5.7v30.1h-5.7zm-23.4 0 6.2 30.1h7.8l6.2-30.1h-5.7l-4.4 21.5-4.4-21.5z" fill="#9c8661"/><path d="m139 6.3-4.4 4.4v21.3l4.3 4.3h10.2l4.3-4.3v-21.3l-4.4-4.4zm1.3 5.7h7.5v18.7h-7.5z" fill="#9c8661"/><path d="m97.3 6.3-4.4 4.4v21.3l4.3 4.3h10.2l4.3-4.3v-8h-5.7v6.6h-7.5v-18.6h7.5v5.2h5.7v-6.5l-4.4-4.4z" fill="#9c8661"/><path d="m160.7 6.3-4.4 4.4v21.3l4.3 4.3h10.2l4.3-4.3v-21.3l-4.4-4.4zm1.3 5.7h7.5v18.7h-7.5z" fill="#9c8661"/><path d="m178.2 6.3v5.7h2.8v24.4h5.7v-30.1z" fill="#9c8661"/></svg>