<?xml version="1.0" encoding="UTF-8"?>
<svg id="Calque_1" data-name="Calque 1" xmlns="http://www.w3.org/2000/svg" width="1910.3" height="1393.8" viewBox="0 0 1910.3 1393.8">
  <defs>
    <style>
      .cls-1 {
        fill: #ffcd21;
      }

      .cls-2 {
        fill: #463559;
      }

      .cls-3 {
        fill: #09090a;
      }

      .cls-4 {
        fill: #e94f96;
      }

      .cls-5 {
        fill: #333;
      }

      .cls-6 {
        opacity: .6;
      }

      .cls-7 {
        fill: #635772;
      }

      .cls-8 {
        fill: #515151;
      }

      .cls-9 {
        fill: #e65094;
      }

      .cls-10 {
        fill: #5e5e5e;
      }

      .cls-11 {
        fill: #2a252e;
        stroke: #6ebc87;
        stroke-miterlimit: 10;
        stroke-width: 18px;
      }
    </style>
  </defs>
  <rect class="cls-5" x="1542.1" y="850.5" width="368.2" height="542.8" rx="42.1" ry="42.1"/>
  <rect class="cls-3" x="1565.2" y="884.6" width="322" height="446.1" rx="25.3" ry="25.3"/>
  <path class="cls-9" d="M1573.3,1035.1l305.9-59.1v74.9l-305.9,60.4v-76.2Z"/>
  <path class="cls-2" d="M1879.1,914.4c0-10.3-8.4-18.7-18.7-18.7h-268.5c-10.3,0-18.7,8.4-18.7,18.7v121.5l305.8-59.1v-62.4h0Z"/>
  <path class="cls-7" d="M1573.3,1134.6v167.1c0,9.9,8.4,17.9,18.7,17.9h268.5c10.3,0,18.7-7.3,18.7-17.8v-250.8l-305.8,60.4v23.3h0Z"/>
  <g class="cls-6">
    <path d="M1600.3,1047.7l7.2,49.2,14.3-3.2,9.1-33.6,2.7,30.9,15.9-3.2,15.6-53.9-13.2,2.5-9.7,39.3-4.2-35.7-11.5,2.1-10.2,39.1-3.8-36.3-12.4,2.8h0Zm93.3-19.5l-16.9,3.4-19.1,54.8,13.7-2.5,3.2-10.4,14.8-2.9,1.2,9.1,12.7-2.4-9.5-49h0Zm-15.8,33.7l6.7-22.8,2.9,20.9-9.6,2Zm57-28.7l3.4-11s-4.8-2.2-15.4-.7-16.1,12-15.1,18.8c1.1,6.8,3.5,9.1,5.9,10.4,2.6,1.4,9.4,4.5,9.4,7.8s-2.9,5.2-8.1,5c-5.3-.1-7.7-1.5-9.9-1.9,0,1.2,1.4,11.9,1.4,11.9,0,0,3.5,2.1,12,.9,8.4-1.2,18.7-6.8,17.8-19.2-.7-8.6-6.3-11.4-8.6-12.4-6.5-2.9-7.1-5-6.3-7.8,1-3.2,5.4-4.5,13.5-2h0Zm10.9-15.5l-4.6,51.6s11.9-1.9,11.8-2.2,2.6-37.1,2.6-37.1l4,35.3,12.6-2.4,12.2-38.8-3.7,37.2s11.7-2.1,11.7-2.4,4.8-51.8,4.8-51.8l-17.7,3.7-12,38.3-4.2-35.1-17.6,3.5h0Zm55.9,15l18.6-3.7-.7,10.7-18.6,4,.7-11Zm57.2-37.8l-12.1,2.2-22.3,36.4-.5,9.4,18.1-3.9-.8,10.1,12.9-2.6,.4-10.2,5.4-.9,.9-10.2-4.9,.9,3-31.1h-.1Zm-15.5,33.5l-7.1,1.5,8.9-15.5-1.9,14Z"/>
  </g>
  <path class="cls-1" d="M1593,1042.3l7.2,49.2,14.3-3.2,9.1-33.7,2.7,30.9,15.9-3.2,15.6-53.9-13.2,2.5-9.7,39.3-4.2-35.7-11.5,2.1-10.2,39.1-3.8-36.3-12.4,2.9h0Zm93.3-19.5l-16.9,3.4-19.1,54.8,13.7-2.5,3.2-10.4,14.8-2.9,1.2,9.1,12.7-2.4-9.5-49h0Zm-15.8,33.7l6.7-22.8,2.9,20.9-9.6,2h0Zm57-28.7l3.4-11s-4.8-2.2-15.4-.7c-10.6,1.6-16.1,12-15.1,18.8,1.1,6.8,3.4,8.8,5.9,10.4,2.1,1.4,9.4,4.5,9.4,7.8s-2.9,5.2-8.1,5c-5.3-.1-7.7-1.5-9.9-1.9,0,1.2,1.4,11.9,1.4,11.9,0,0,3.5,2.1,12,.9,8.4-1.2,18.7-6.8,17.8-19.2-.7-8.6-6.3-11.4-8.6-12.4-6.5-2.9-7.1-5-6.3-7.8,1-3.2,5.4-4.5,13.5-2h0Zm10.9-15.5l-4.6,51.6s11.9-1.9,11.8-2.2,2.6-37.1,2.6-37.1l4,35.3,12.6-2.4,12.2-38.8-3.7,37.2s11.7-2.1,11.7-2.4,4.8-51.8,4.8-51.8l-17.7,3.7-12,38.3-4.2-35.1-17.6,3.5h0Zm55.9,15l18.6-3.7-.7,10.8-18.6,4,.7-11h0Zm57.2-37.8l-12.1,2.2-22.3,36.4-.5,9.4,18.1-3.9-.8,10.1,12.9-2.6,.4-10.2,5.4-.9,.9-10.2-4.9,.9,3-31.1h-.1Zm-15.5,33.5l-7.1,1.5,8.9-15.5-1.9,14Z"/>
  <path class="cls-3" d="M1694.6,1351.8h67.2l-32.7,26.5-34.5-26.5Zm-19.4-479.9h97.9c2.6,0,4.7,2.1,4.7,4.7v7.9h-107.4v-7.9c0-2.6,2.1-4.7,4.7-4.7h0Z"/>
  <path class="cls-8" d="M1670.4,882.2h107.4v2.4h-107.4v-2.4Z"/>
  <path class="cls-10" d="M1761.8,1351.7h-67.3c-.2,0-.4-.2-.4-.4s.2-.4,.4-.4h67.3c.2,0,.4,.2,.4,.4s-.2,.4-.4,.4Z"/>
  <g id="Layer_2" data-name="Layer 2">
    <g id="Notch_-_Purple" data-name="Notch - Purple">
      <g id="icon">
        <path id="path71" class="cls-11" d="M854.2,9v6.4c0,87.6-71,158.6-158.5,158.6-87.1-.7-157.3-71.5-157.3-158.6v-6.4H9V1384.8H1384.8V9H854.2Z"/>
      </g>
    </g>
    <circle id="path128" class="cls-4" cx="910.4" cy="1019.1" r="115.1"/>
    <path id="rect150" class="cls-1" d="M319.7,671.3h127.9v447.5h-127.9v-447.5Z"/>
    <path id="rect150-1" class="cls-1" d="M153.5,826h447.5v127.9H153.5v-127.9Z"/>
    <circle id="path128-0" class="cls-4" cx="1121.4" cy="768.6" r="115.1"/>
  </g>
</svg>