<svg id="Calque_1" data-name="Calque 1" xmlns="http://www.w3.org/2000/svg" width="593.3" height="874.6"><defs><style>.cls-1{fill:#ffcd21}.cls-3{fill:#09090a}</style></defs><rect width="593.3" height="874.6" rx="67.8" ry="67.8" style="fill:#333"/><rect class="cls-3" x="37.3" y="54.9" width="518.8" height="718.8" rx="40.7" ry="40.7"/><path style="fill:#e65094" d="m50.2 297.5 492.9-95.3v120.7L50.2 420.2V297.5z"/><path d="M543.1 103c0-16.6-13.5-30.1-30.1-30.1H80.3c-16.6 0-30.1 13.5-30.1 30.1v195.8L543 203.5V103z" style="fill:#463559"/><path d="M50.2 457.7V727c0 15.9 13.5 28.8 30.1 28.8H513c16.6 0 30.1-11.8 30.1-28.7V322.9L50.2 420.2v37.5z" style="fill:#635772"/><g style="opacity:.6"><path d="m93.8 317.8 11.6 79.3 23.1-5.2 14.6-54.2 4.4 49.8 25.7-5.2 25.2-86.7-21.3 4-15.6 63.3-6.8-57.5-18.4 3.4-16.5 63-6.1-58.5-19.9 4.5zM244.2 286.4l-27.3 5.4-30.8 88.3 22.1-4 5.2-16.8 23.8-4.7 1.9 14.6 20.4-3.8-15.3-78.9zm-25.4 54.4 10.8-36.8 4.7 33.6-15.5 3.2zM310.7 294.5l5.5-17.7s-7.8-3.6-24.8-1.1-26 19.4-24.4 30.3c1.7 10.9 5.6 14.6 9.5 16.8 4.2 2.3 15.2 7.3 15.2 12.6s-4.6 8.3-13 8.1c-8.5-.2-12.4-2.4-16-3 .1 1.9 2.2 19.2 2.2 19.2s5.6 3.4 19.3 1.4c13.6-2 30.2-11 28.7-30.9-1.1-13.9-10.1-18.4-13.8-20-10.4-4.6-11.5-8.1-10.2-12.5 1.6-5.1 8.7-7.3 21.8-3.3zM328.3 269.5l-7.4 83.1s19.2-3.1 19-3.5 4.2-59.7 4.2-59.7l6.5 56.8 20.3-3.9 19.6-62.5-6 59.9s18.8-3.4 18.8-3.8 7.8-83.4 7.8-83.4l-28.6 5.9-19.3 61.7-6.7-56.5-28.3 5.7zM418.4 293.3l29.9-5.9-1.1 17.3-30 6.4 1.2-17.8zM510.5 232.5l-19.5 3.6-35.9 58.6-.8 15.1 29.2-6.3-1.3 16.2 20.8-4.2.7-16.4 8.7-1.4 1.4-16.5-7.9 1.4 4.8-50.1zm-25 53.9-11.4 2.4 14.4-25-3 22.6z"/></g><path class="cls-1" d="m82 309.1 11.6 79.3 23.1-5.2 14.6-54.2 4.4 49.8 25.7-5.2 25.2-86.8-21.3 4.1-15.6 63.3-6.8-57.5-18.4 3.4-16.5 63-6.1-58.5-19.9 4.5zM232.4 277.7l-27.3 5.4-30.8 88.3 22.1-4 5.2-16.8 23.8-4.7 1.9 14.6 20.4-3.8-15.3-78.9zM207 332.1l10.8-36.8 4.7 33.6-15.5 3.2zM298.9 285.8l5.5-17.7s-7.8-3.6-24.8-1.1-26 19.4-24.4 30.3c1.7 10.9 5.4 14.2 9.5 16.8 3.4 2.2 15.2 7.3 15.2 12.6s-4.6 8.3-13 8.1c-8.5-.2-12.4-2.4-16-3 .1 1.9 2.2 19.2 2.2 19.2s5.6 3.4 19.3 1.4c13.6-2 30.2-11 28.7-30.9-1.1-13.9-10.1-18.4-13.8-20-10.4-4.6-11.5-8.1-10.2-12.5 1.6-5.1 8.7-7.3 21.8-3.3zM316.5 260.8l-7.4 83.1s19.2-3.1 19-3.5 4.2-59.7 4.2-59.7l6.5 56.8 20.3-3.9 19.6-62.5-6 59.9s18.8-3.4 18.8-3.8 7.8-83.4 7.8-83.4l-28.6 5.9-19.3 61.7-6.7-56.5-28.3 5.7zM406.6 284.6l29.9-5.9-1.1 17.3-30 6.4 1.2-17.8zM498.7 223.7l-19.5 3.6-35.9 58.6-.8 15.1 29.2-6.3-1.3 16.2 20.8-4.2.7-16.4 8.7-1.4 1.4-16.5-7.9 1.4 4.8-50.1zm-25 53.9-11.4 2.4 14.4-25-3 22.6z"/><path class="cls-3" d="M245.7 807.8H354l-52.7 42.6-55.6-42.6zM214.4 34.6h157.7c4.2 0 7.6 3.4 7.6 7.6v12.7h-173V42.2c0-4.2 3.4-7.6 7.6-7.6z"/><path style="fill:#515151" d="M206.7 51h173v3.9h-173z"/><path d="M354 807.6H245.6c-.4 0-.7-.3-.7-.7s.3-.7.7-.7H354c.4 0 .7.3.7.7s-.3.7-.7.7z" style="fill:#5e5e5e"/></svg>