<svg id="bdf31c63-8ad4-4b3c-9961-882b2e0f8a42" data-name="Calque 1" xmlns="http://www.w3.org/2000/svg" xmlns:xlink="http://www.w3.org/1999/xlink" viewBox="0 0 470.58 67.66"><defs><style>.e076f75f-8fc9-43c3-aaf8-a3c977009e21{stroke:#9def48;stroke-miterlimit:10;fill:url(#a9340bcf-0e10-4a11-99b1-8937862bf6ed);}.bad4c5c6-e212-47d3-a0a5-cba69de32bb5{fill:#9def48;}</style><linearGradient id="a9340bcf-0e10-4a11-99b1-8937862bf6ed" x1="0.5" y1="33.83" x2="470.08" y2="33.83" gradientUnits="userSpaceOnUse"><stop offset="0" stop-color="#032c02"/><stop offset="1" stop-color="#207a09"/></linearGradient></defs><polygon class="e076f75f-8fc9-43c3-aaf8-a3c977009e21" points="0.5 6.04 102.57 6.04 108.7 0.5 150.44 0.5 158.35 6.04 461.77 6.24 470.08 16.13 470.08 59.84 50.94 59.84 42.83 67.16 8.02 67.16 0.5 59.84 0.5 6.04"/><path class="bad4c5c6-e212-47d3-a0a5-cba69de32bb5" d="M74.54,45.07v-22h6.14v22H92.61a25,25,0,0,0,3.52-12.4,25,25,0,0,0-3.52-12.4H88.49V14.11h7.4q6.39,7.49,6.39,18.56T95.89,51.23H80.68v5.82H74.54V51.23H59.33q-6.4-7.45-6.4-18.56t6.4-18.56h7.4v6.16H62.64a24.79,24.79,0,0,0-3.55,12.4,24.7,24.7,0,0,0,3.55,12.4Z"/><path class="bad4c5c6-e212-47d3-a0a5-cba69de32bb5" d="M117.76,40.9l-6.5,10.33h-7.68l23.57-37.12h7.1l23.39,37.12h-7.58L143.64,40.9Zm22-6.13-9.06-14.52-9.13,14.52Z"/><path class="bad4c5c6-e212-47d3-a0a5-cba69de32bb5" d="M205.49,29.59l2.79,3.08q0,11.1-6.39,18.56H165.33a26,26,0,0,1-5.57-11.06h6.63a29.3,29.3,0,0,0,2.25,4.9h30a26,26,0,0,0,3.31-9.35H161.73l-2.8-3q0-11.07,6.4-18.56h36.56a26,26,0,0,1,5.57,11.05h-6.63a27.84,27.84,0,0,0-2.22-4.89h-30a26.3,26.3,0,0,0-3.34,9.32Z"/><path class="bad4c5c6-e212-47d3-a0a5-cba69de32bb5" d="M235.07,20.27h-11.9a24.7,24.7,0,0,0-3.55,12.4,24.79,24.79,0,0,0,3.55,12.4h4.08v6.16h-7.4q-6.39-7.48-6.39-18.56t6.39-18.56h15.22V8.29h6.13v5.82h15.22q6.39,7.45,6.39,18.56t-6.39,18.56H249V45.07h4.11a25,25,0,0,0,3.52-12.4,24.86,24.86,0,0,0-3.52-12.4H241.2v22h-6.13Z"/><path class="bad4c5c6-e212-47d3-a0a5-cba69de32bb5" d="M316.49,20.27V14.11h7.4a26.67,26.67,0,0,1,6.26,15.48H336v6.13h-5.82a26.79,26.79,0,0,1-6.26,15.51h-7.4V45.07h4.08a26.58,26.58,0,0,0,3.34-9.35h-37.6l-2.79-3q0-11.1,6.39-18.56h7.4v6.16h-4.12a26.62,26.62,0,0,0-3.31,9.32h34a26.3,26.3,0,0,0-3.34-9.32Z"/></svg>