<svg xmlns="http://www.w3.org/2000/svg" xmlns:xlink="http://www.w3.org/1999/xlink" viewBox="0 0 746.51 822.18"><defs><radialGradient id="bce0c73e-8f23-4518-8ca7-5e52d39ca1ae" cx="121.61" cy="382.1" r="5.66" gradientTransform="matrix(1 0 0 .6 0 152.84)" xlink:href="#bfc7d163-f485-491f-ad99-a949932ba3c5"/><radialGradient id="f9e5808b-dd00-49b7-b0ae-d4981f5421ab" cx="217.55" cy="416.02" r="5.66" xlink:href="#f0bcc723-a3e3-479d-9eb0-8679c26eee19"/><radialGradient id="f45a8621-68d4-4cbd-a559-f5c305a1fd99" cx="195.83" cy="370.99" r="11.47" xlink:href="#f0bcc723-a3e3-479d-9eb0-8679c26eee19"/><radialGradient id="bfc7d163-f485-491f-ad99-a949932ba3c5" cx="92.36" cy="393.88" r="5.66" gradientTransform="matrix(1 0 0 .6 0 157.55)" gradientUnits="userSpaceOnUse"><stop offset="0" stop-color="#0000ef"/><stop offset=".15" stop-color="#0000e9"/><stop offset=".34" stop-color="#0101d9"/><stop offset=".56" stop-color="#0101be"/><stop offset=".79" stop-color="#02029a"/><stop offset="1" stop-color="#020282"/></radialGradient><radialGradient id="bfd071fb-4dc7-4a76-9825-d480e6073173" cx="114.61" cy="393.88" r="5.66" xlink:href="#bfc7d163-f485-491f-ad99-a949932ba3c5"/><radialGradient id="fbd0ae66-f022-4fd2-b757-6d54180acd86" cx="133.17" cy="400.04" r="5.66" gradientTransform="matrix(1 0 0 .6 0 160.02)" xlink:href="#bfc7d163-f485-491f-ad99-a949932ba3c5"/><radialGradient id="bb6d4764-b362-48b7-80a8-49134ea3e130" cx="139.21" cy="387.78" r="5.66" gradientTransform="matrix(1 0 0 .6 0 155.11)" xlink:href="#bfc7d163-f485-491f-ad99-a949932ba3c5"/><radialGradient id="f0bcc723-a3e3-479d-9eb0-8679c26eee19" cx="65.88" cy="348.77" r="11.47" gradientUnits="userSpaceOnUse"><stop offset="0" stop-color="#fd6d66"/><stop offset=".78" stop-color="#b50a03"/></radialGradient><radialGradient id="a6c3cb3f-472b-403d-b1b2-46b7a55e82ce" cx="100.32" cy="382.53" r="5.66" gradientTransform="matrix(1 0 0 .6 0 153.01)" xlink:href="#bfc7d163-f485-491f-ad99-a949932ba3c5"/><radialGradient id="a998bea9-4371-4431-b50e-36d35633c7d0" cx="225.51" cy="404.67" r="5.66" xlink:href="#f0bcc723-a3e3-479d-9eb0-8679c26eee19"/><radialGradient id="ff72b5e5-5691-44d8-93c9-20028073e1b2" cx="246.79" cy="404.24" r="5.66" xlink:href="#f0bcc723-a3e3-479d-9eb0-8679c26eee19"/><radialGradient id="f45e7c1a-735a-4ddf-80d5-a7fe6ec22c0d" cx="264.4" cy="409.93" r="5.66" xlink:href="#f0bcc723-a3e3-479d-9eb0-8679c26eee19"/><radialGradient id="b3b5ec9e-65c3-4a9f-8f1a-4f0affb92c1d" cx="258.36" cy="422.19" r="5.66" xlink:href="#f0bcc723-a3e3-479d-9eb0-8679c26eee19"/><radialGradient id="b5addfdd-6b4f-47d9-9b6b-e8cf3515cfdc" cx="239.79" cy="416.02" r="5.66" xlink:href="#f0bcc723-a3e3-479d-9eb0-8679c26eee19"/><style>.f37651b5-b142-47ea-947c-de07497fdf30{fill:#373735}.a8693564-af93-47a1-bc52-885378aef340{fill:#121211}.a21691e9-6fb9-4222-887a-22089ff1bf3e,.a4dde740-ec4a-4de2-aaeb-4a2c469c1fdc,.a8693564-af93-47a1-bc52-885378aef340,.b8eb6665-eb86-4865-bdb8-4c117ea9c622,.e3546392-7b40-4b7c-a1e5-4ab8df531a56{stroke:#b5b5b5}.a21691e9-6fb9-4222-887a-22089ff1bf3e,.a470ee03-ee7d-482a-82e5-c5835fb0a6f9,.a4dde740-ec4a-4de2-aaeb-4a2c469c1fdc,.a8693564-af93-47a1-bc52-885378aef340,.b213f8a8-a105-4352-bd26-0921f2f1f15c,.b8eb6665-eb86-4865-bdb8-4c117ea9c622,.e3246605-77e8-48e5-94f3-f7955b0352d5,.e3546392-7b40-4b7c-a1e5-4ab8df531a56{stroke-miterlimit:10}.a21691e9-6fb9-4222-887a-22089ff1bf3e,.a4dde740-ec4a-4de2-aaeb-4a2c469c1fdc,.a8693564-af93-47a1-bc52-885378aef340,.b213f8a8-a105-4352-bd26-0921f2f1f15c,.b8eb6665-eb86-4865-bdb8-4c117ea9c622,.e3546392-7b40-4b7c-a1e5-4ab8df531a56{stroke-width:.5px}.a470ee03-ee7d-482a-82e5-c5835fb0a6f9{fill:#443840;stroke:#090000}.b213f8a8-a105-4352-bd26-0921f2f1f15c{stroke:#090000}.a470ee03-ee7d-482a-82e5-c5835fb0a6f9{stroke-width:.75px}.b213f8a8-a105-4352-bd26-0921f2f1f15c{fill:#6b0c05}.f08a6cb3-10ed-47b3-9978-39d8f431cdc3{fill:#86382f}.e3246605-77e8-48e5-94f3-f7955b0352d5{stroke:#373737}.b6a8b04b-7fb3-4100-8cae-f1770f46fc23{fill:#f91b20}.b8eb6665-eb86-4865-bdb8-4c117ea9c622{fill:#dc6e05}.a21691e9-6fb9-4222-887a-22089ff1bf3e{fill:#12e600}.e3546392-7b40-4b7c-a1e5-4ab8df531a56{fill:#0b47ce}.a0f8c0a2-99a7-49fd-b365-a6470c232d97,.a4dde740-ec4a-4de2-aaeb-4a2c469c1fdc{fill:#282826}.a022a7d1-88e5-41b4-a483-0b8de836abbc{fill:#ae7a82}.a2cc550c-11be-439f-9b8a-732ff626be94{fill:url(#f0bcc723-a3e3-479d-9eb0-8679c26eee19)}.a263cb50-dd15-4fff-86f3-5b1ba7236cd9{fill:url(#f45a8621-68d4-4cbd-a559-f5c305a1fd99)}.e609936b-30f6-4dab-87a8-cf4d2a5975e0{fill:#0000ef}.a3645855-ae1d-4508-8d24-6013a319784d{fill:#930303}.bcf9df77-cb0e-4f45-85e9-f25b5ed27784{fill:#e7e7e7}.ba62489b-1829-40c1-869a-612bb88e745c{fill:#2c2b29}.b691e7b8-7950-4e33-812e-3aba7863ff28{fill:#f81d22}.ef68bdb6-bb3c-441f-a1e7-0d4b01f2cb1e{fill:#020202}</style></defs><g id="e31622f9-b2fd-475e-a23a-767efcfc73a8" data-name="Calque 1"><path id="eb161711-996e-4236-b616-fdad216d2411" data-name="ombre" style="opacity:.5;fill:#373735" d="m452.03 588.79 21.51-5.91H485.41l1.58 2.96 237.36 43.3h11.08l11.07 31.39-46.41 37.71-46.42 13.19-8.18-1.32.27-1.85-13.98-2.63-83.6 27.95-73.32 51.57-22.83 6.82-7.77-1.16v-2.63l-16.08-3.03-129.99 34.37 153.84-230.73z"/><g id="b1229114-6ce6-44ef-a8a3-00c4752b27de" data-name="bottom"><path class="f37651b5-b142-47ea-947c-de07497fdf30" d="m36 454.56 224.9 39.62v4.35l25.72 6.13-.4 311.34-248.24-47.27L36 454.56z"/><path class="a8693564-af93-47a1-bc52-885378aef340" d="m202 526.54-78.38-13.74c-3 .19-4.26 3.56-4.26 3.56l.2 85c.69 2.18 3.86 5 3.86 5l74.27 13.46c5.14.49 7.52-5.25 7.52-5.25v-82.69a7.12 7.12 0 0 0-3.21-5.34zm-49.9 22.55-18.69-3.46v-20l2.27-1.88 18.1 3.07-1.78 2.69zm31.45 6.13-18.69-3.46v-20l2.27-1.87 18.1 3.06-1.78 2.67z" transform="translate(-.98 -.52)"/><path class="a470ee03-ee7d-482a-82e5-c5835fb0a6f9" d="m134.7 523.25-2.27 1.88v19.98l18.69 3.46-.1-19.58 1.78-2.67-18.1-3.07zM166.15 529.38l-2.27 1.88v19.98l18.69 3.46-.1-19.58 1.78-2.67-18.1-3.07z"/><path class="b213f8a8-a105-4352-bd26-0921f2f1f15c" d="M140.14 543.03v-12.85l8.01 1.78v12.56l-8.01-1.49zM171.2 548.87v-12.86l8.01 1.78v12.56l-8.01-1.48z"/><path d="M135.23 543.16v-15.23l2.05.4v15.16l-2.05-.33zM166.68 548.7v-15.23l2.04.4v15.16l-2.04-.33z"/><path class="f08a6cb3-10ed-47b3-9978-39d8f431cdc3" d="M140.4 530.69v-.35l7.47 1.8.01.43-7.48-1.88zM171.46 536.62v-.29l7.47 1.64.01.35-7.48-1.7z"/><circle cx="192.4" cy="574.85" r="4.25" style="fill:#8b8b8b;stroke-width:.75px;stroke:#090000;stroke-miterlimit:10"/><path class="e3246605-77e8-48e5-94f3-f7955b0352d5" d="M136.29 598.71v-11.27l11.96 2.18v11.3l-11.96-2.21zM167.54 604.25v-11.27l11.96 2.17v10.88l-11.96-1.78z"/></g><g id="edfddd0b-9efc-4c80-9b70-04e7767f43db" data-name="t molding"><path class="b6a8b04b-7fb3-4100-8cae-f1770f46fc23" d="m11.46 450.59-.79-39.76L1 407.66v45.1l27.89 5.54c.59 103.55 1 207.6 1.58 311.15a6.18 6.18 0 0 0 3.53 2.19 12.58 12.58 0 0 0 5 0l-2-316.56zM272.36 497v-41.27l-10.28-1.19-.2 44.51 25.71 6.13s-1.51 313.85 0 315.69 8.77 1.32 8.77 1.32l.93-319.91z" transform="translate(-.98 -.52)"/><path class="b6a8b04b-7fb3-4100-8cae-f1770f46fc23" d="m78.72 346.42-8.15-1.3 16.26-218.56 9.04 1.5-17.15 218.36zM329.24 388.85l9.1 1.28 18.49-224.31h-26.37l-.26-90.92-10.06-1.84v94.84l6.04 1.09h20.27l-17.21 219.86z"/><path class="b6a8b04b-7fb3-4100-8cae-f1770f46fc23" d="M88.49 127.19s-28.17-.35-29.11-.85c0-31.21.06-62.83 0-94l9.36 2.64.48 89.02z" transform="translate(-.98 -.52)"/><g id="b46ef767-3d8d-4368-87cc-0fede037e2e4" data-name="clair"><path class="b6a8b04b-7fb3-4100-8cae-f1770f46fc23" d="m0 407.14 9.69 3.17L78 346.25l-8.11-1.94L0 407.14zM261.1 454.02l10.28 1.19 66.96-65.87-8.62-1.6-68.62 66.28zM111.56 0 58.42 31.78l9.36 2.64L120.36 3.3l2.74-1.62-2.57-.36L111.56 0zM383.74 40.62l-11.21-.8-52.39 33.24 10.06 1.84 53.54-34.28z"/></g></g><g id="bb622852-48b0-46de-8fd1-ff3ea0a20f06" data-name="side"><path class="a8693564-af93-47a1-bc52-885378aef340" d="m453.13 308.64.63-159.63-70.02-108.39L330.2 74.9l.26 90.92h26.37l-18.49 224.31-66.96 65.08v41.27l24.93 5.28-.93 319.91 8.25-6.32 149.65-543.7-.21 21.51-142.1 516.55-1.61 1.24 6.94-5.32 136.83-496.99zM324.06 799.15l-7.76 6.48 11.99-9.2 124.7-453.24.05-12.13-128.98 468.09zM335.43 790.95l-1.32 1.02 6.87-5.27 111.79-407.64v21.25l.22-57.12-.22 24-117.34 423.76zM343 785.15l108.58-83.28 1.18-299.85L347.4 781.78l-4.4 3.37z"/><path style="fill:#bf0000;stroke-width:.5px;stroke-miterlimit:10;stroke:#b5b5b5" d="m303.63 815.35 5.73-4.4-5.73 4.4z"/><path class="b6a8b04b-7fb3-4100-8cae-f1770f46fc23" d="m453.07 293.16.21-21.51-149.65 543.7 5.73-4.4 1.61-1.24 142.1-516.55z"/><path class="b8eb6665-eb86-4865-bdb8-4c117ea9c622" d="M453.13 330.74v-22.1l-.09 22.42.09-.32zM316.3 805.63z"/><path d="m453.04 331.06.09-22.42L316.3 805.63l7.76-6.48 128.98-468.09z"/><path class="a21691e9-6fb9-4222-887a-22089ff1bf3e" d="M452.99 343.19zM328.29 796.43l5.82-4.46-5.82 4.46z"/><path style="fill:#444242" d="m334.11 791.97 1.32-1.02 117.34-423.76.22-24-124.7 453.24 5.82-4.46z"/><path class="e3546392-7b40-4b7c-a1e5-4ab8df531a56" d="m340.98 786.7 2.02-1.55-2.02 1.55zM452.77 402v-1.69l-.01 1.71.01-.02z"/><path style="fill:#fff" d="m340.98 786.7 2.02-1.55 4.4-3.37 105.36-379.76.01-1.71v-21.25L340.98 786.7z"/></g><g id="e0cc1a37-2d14-4d22-acac-c74fc9559ae8" data-name="panel"><path class="a4dde740-ec4a-4de2-aaeb-4a2c469c1fdc" d="m10.48 450.07 250.42 44.11.2-40.16L9.69 410.31l.79 39.76z"/><path class="f37651b5-b142-47ea-947c-de07497fdf30" d="m79.37 345.21-69.68 65.1 251.41 43.71 68.62-66.28-250.35-42.53z"/></g><g id="e71697fe-108a-4dde-97ca-02dbbd7e7ebd" data-name="ecran"><path class="a4dde740-ec4a-4de2-aaeb-4a2c469c1fdc" d="M96.84 129.36 79.7 347.72l250.52 42.43L347.82 168zm224.28 67.76c0 .2-.29.32-.48.49l-10.43 144.83a35.43 35.43 0 0 1-4.3 3.78l1.4.29v10.7s-1.4 4.75-11.08 2.64c-11.19-2.44-178.55-31.91-178.55-31.91l8.72-6.78v-1.39s-2.46.52-6-7l-12.48 2.77h-4l11.34-158.77s4-6.85 10.81-6.59 191.16 30.59 191.16 30.59 6.17 1.07 3.89 16.35z" transform="translate(-.98 -.52)"/><path d="M317.28 180S133 149.66 126.12 149.4s-10.81 6.6-10.81 6.6l-11.74 160.08h4.35l12.29-2.68c-.1-.23-.74-1.57-.85-1.8L131 166.54s2.11-5.54 7.12-7.38l177.49 27.16a20.77 20.77 0 0 1 5.11 9.76l-.05.75c.19-.17.62.66.66.47 3.23-14.06-4.05-17.3-4.05-17.3z" transform="translate(-.98 -.52)" style="fill:#151312"/><path d="m125.32 320-8.56 8s164.63 29.3 178.61 32.24c10.36 2.17 14.43-3.58 14.43-3.58l.61-7.37.39-7.71-4.89 3.84a20.85 20.85 0 0 1-7.73 3.87z" transform="translate(-.98 -.52)" style="fill:#555353"/><path d="M319.5 197.81c.45-.36.83-.69 1.14-1l.66-.52a20.31 20.31 0 0 0-5.72-10l-177.49-27.13c-5 1.84-7.12 7.38-7.12 7.38L119.36 311.6l.32.66c3.54 7.52 6.28 8 6.28 8l.44.08 171.78 28.93a20.85 20.85 0 0 0 7.73-3.87c2.57-1.91 4.89-3.84 4.89-3.84l10.5-145.29c-.44.46-1.05.96-1.8 1.54zM143.83 302.35z" transform="translate(-.98 -.52)" style="fill:#008aa6"/></g><g id="b28f9e8e-24ed-49a0-8590-ab8a34337bb0" data-name="top"><path id="b88a0c9e-e9b5-4131-b8f6-86b4a4e4daf1" data-name="marquee" class="a4dde740-ec4a-4de2-aaeb-4a2c469c1fdc" d="m68.24 123.5 251.47 39.03.43-89.47L67.78 34.42l.46 89.08z"/><path style="stroke-miterlimit:10;stroke:#b5b5b5;fill:#373735" d="m128.84 2.64-5.74-.96-55.32 32.74 252.36 38.64 52.39-33.24L128.84 2.64z"/></g><g id="e36b1db4-d950-441e-9b04-3865c25c07b4" data-name="stickp1"><path class="a0f8c0a2-99a7-49fd-b365-a6470c232d97" d="M68.92 377.27v5.16H62.4v-5.16c-5.06.64-8.77 2.7-8.77 5.16 0 3 5.38 5.35 12 5.35s12-2.39 12-5.35c.06-2.43-3.63-4.52-8.71-5.16z" transform="translate(-.98 -.52)"/><path class="a022a7d1-88e5-41b4-a483-0b8de836abbc" d="M68.92 377.27v-17.78a12.18 12.18 0 0 1-3 .39 12.4 12.4 0 0 1-3.48-.49v17.88a26.67 26.67 0 0 1 6.52 0z" transform="translate(-.98 -.52)"/><path class="a022a7d1-88e5-41b4-a483-0b8de836abbc" d="M68.92 382.43v-5.16a26.67 26.67 0 0 0-6.52 0v5.16z" transform="translate(-.98 -.52)"/><path class="a2cc550c-11be-439f-9b8a-732ff626be94" d="M68.92 358.89v.6a11.24 11.24 0 0 0 8.77-10.72c0-6.14-5.29-11.11-11.81-11.11s-11.82 5-11.82 11.11a11.22 11.22 0 0 0 8.34 10.62v-.5z" transform="translate(-.98 -.52)"/><path class="a022a7d1-88e5-41b4-a483-0b8de836abbc" d="M68.92 359.49v-.6H62.4v.5a12.4 12.4 0 0 0 3.48.49 12.18 12.18 0 0 0 3.04-.39z" transform="translate(-.98 -.52)"/><path class="a2cc550c-11be-439f-9b8a-732ff626be94" d="M68.92 359.49v-.6H62.4v.5a12.4 12.4 0 0 0 3.48.49 12.18 12.18 0 0 0 3.04-.39z" transform="translate(-.98 -.52)"/></g><g id="f38d201b-e9ea-4ba0-83f5-33b265ce2f6f" data-name="stickp2"><path class="a0f8c0a2-99a7-49fd-b365-a6470c232d97" d="M198.88 399.49v5.16h-6.53v-5.16c-5 .64-8.77 2.7-8.77 5.16 0 3 5.39 5.35 12 5.35s12-2.39 12-5.35c.07-2.46-3.64-4.52-8.7-5.16z" transform="translate(-.98 -.52)"/><path class="a022a7d1-88e5-41b4-a483-0b8de836abbc" d="M198.88 399.49v-17.78a12.2 12.2 0 0 1-3 .39 12.83 12.83 0 0 1-3.48-.49v17.88a26.75 26.75 0 0 1 6.53 0z" transform="translate(-.98 -.52)"/><path class="a022a7d1-88e5-41b4-a483-0b8de836abbc" d="M198.88 404.65v-5.16a26.75 26.75 0 0 0-6.53 0v5.16z" transform="translate(-.98 -.52)"/><path class="a263cb50-dd15-4fff-86f3-5b1ba7236cd9" d="M198.88 381.11v.6a11.24 11.24 0 0 0 8.77-10.71c0-6.14-5.29-11.11-11.82-11.11S184 364.85 184 371a11.22 11.22 0 0 0 8.34 10.62v-.5z" transform="translate(-.98 -.52)"/><path class="a022a7d1-88e5-41b4-a483-0b8de836abbc" d="M198.88 381.71v-.6h-6.53v.5a12.83 12.83 0 0 0 3.48.49 12.2 12.2 0 0 0 3.05-.39z" transform="translate(-.98 -.52)"/><path class="a263cb50-dd15-4fff-86f3-5b1ba7236cd9" d="M198.88 381.71v-.6h-6.53v.5a12.83 12.83 0 0 0 3.48.49 12.2 12.2 0 0 0 3.05-.39z" transform="translate(-.98 -.52)"/></g><g id="beda78c0-3b1c-4973-8508-f06d44bfcf4a" data-name="boutons P1"><g id="b65236c0-6878-4ffb-a723-36ca1e11c40c" data-name="4"><path class="e609936b-30f6-4dab-87a8-cf4d2a5975e0" d="M92.54 389.14c-3.86 0-8.12 1.53-8.12 4.87 0 2.95 4.1 4.62 7.94 4.62 4.11 0 8-1.73 8-4.88-.04-2.35-3.88-4.61-7.82-4.61zm-.18 8.63c-3.86 0-7-1.74-7-3.89s3.13-3.89 7-3.89 7 1.74 7 3.89-3.14 3.89-7 3.89z" transform="translate(-.98 -.52)"/><path d="M92.36 390c-3.86 0-7 1.74-7 3.89s3.13 3.89 7 3.89 7-1.74 7-3.89-3.14-3.89-7-3.89z" transform="translate(-.98 -.52)" style="fill:url(#bfc7d163-f485-491f-ad99-a949932ba3c5)"/></g><g id="be3f072e-9dbd-43b7-bb34-3536d6dfba37" data-name="5"><path class="e609936b-30f6-4dab-87a8-cf4d2a5975e0" d="M114.79 389.14c-3.86 0-8.12 1.53-8.12 4.87 0 2.95 4.1 4.62 7.94 4.62 4.11 0 8-1.73 8-4.88-.04-2.35-3.88-4.61-7.82-4.61zm-.18 8.63c-3.86 0-7-1.74-7-3.89s3.13-3.89 7-3.89 7 1.74 7 3.89-3.14 3.89-7 3.89z" transform="translate(-.98 -.52)"/><path d="M114.61 390c-3.86 0-7 1.74-7 3.89s3.13 3.89 7 3.89 7-1.74 7-3.89-3.14-3.89-7-3.89z" transform="translate(-.98 -.52)" style="fill:url(#bfd071fb-4dc7-4a76-9825-d480e6073173)"/></g><g id="a6e298dc-7d9a-4fb7-85e2-9fbf47489cde" data-name="6"><path class="e609936b-30f6-4dab-87a8-cf4d2a5975e0" d="M133.35 395.3c-3.86 0-8.13 1.53-8.13 4.87 0 3 4.11 4.62 7.95 4.62 4.1 0 8-1.73 8-4.88-.04-2.35-3.88-4.61-7.82-4.61zm-.18 8.63c-3.86 0-7-1.74-7-3.89s3.13-3.89 7-3.89 7 1.74 7 3.89-3.17 3.89-7 3.89z" transform="translate(-.98 -.52)"/><path d="M133.17 396.15c-3.86 0-7 1.74-7 3.89s3.13 3.89 7 3.89 7-1.74 7-3.89-3.17-3.89-7-3.89z" transform="translate(-.98 -.52)" style="fill:url(#fbd0ae66-f022-4fd2-b757-6d54180acd86)"/></g><g id="faf6447d-6608-423f-ad23-31ee997e159a" data-name="3"><path class="e609936b-30f6-4dab-87a8-cf4d2a5975e0" d="M139.39 383c-3.86 0-8.13 1.53-8.13 4.88 0 2.95 4.11 4.61 8 4.61 4.1 0 8-1.73 8-4.88-.09-2.31-3.93-4.61-7.87-4.61zm-.18 8.63c-3.86 0-7-1.74-7-3.89s3.13-3.89 7-3.89 7 1.75 7 3.89-3.14 3.93-7 3.93z" transform="translate(-.98 -.52)"/><path d="M139.21 383.89c-3.86 0-7 1.75-7 3.89s3.13 3.89 7 3.89 7-1.74 7-3.89-3.14-3.89-7-3.89z" transform="translate(-.98 -.52)" style="fill:url(#bb6d4764-b362-48b7-80a8-49134ea3e130)"/></g><g id="f171b666-b6e8-43fa-bb39-1cd5a341a71a" data-name="2"><path class="e609936b-30f6-4dab-87a8-cf4d2a5975e0" d="M121.79 377.35c-3.86 0-8.12 1.53-8.12 4.88 0 2.95 4.1 4.61 7.94 4.61 4.11 0 8-1.73 8-4.88-.04-2.34-3.88-4.61-7.82-4.61zm-.18 8.64c-3.86 0-7-1.74-7-3.89s3.13-3.89 7-3.89 7 1.74 7 3.89-3.14 3.9-7 3.9z" transform="translate(-.98 -.52)"/><path d="M121.61 378.21c-3.86 0-7 1.74-7 3.89s3.13 3.89 7 3.89 7-1.74 7-3.89-3.14-3.89-7-3.89z" transform="translate(-.98 -.52)" style="fill:url(#bce0c73e-8f23-4518-8ca7-5e52d39ca1ae)"/></g><g id="ab842817-7111-42e6-abff-de51e7f00069" data-name="1"><path class="e609936b-30f6-4dab-87a8-cf4d2a5975e0" d="M100.5 377.78c-3.86 0-8.13 1.53-8.13 4.88 0 2.95 4.11 4.62 7.95 4.62 4.1 0 8-1.73 8-4.88-.04-2.35-3.88-4.62-7.82-4.62zm-.18 8.64c-3.86 0-7-1.74-7-3.89s3.13-3.89 7-3.89 7 1.74 7 3.89-3.14 3.89-7 3.89z" transform="translate(-.98 -.52)"/><path d="M100.32 378.64c-3.86 0-7 1.74-7 3.89s3.13 3.89 7 3.89 7-1.74 7-3.89-3.14-3.89-7-3.89z" transform="translate(-.98 -.52)" style="fill:url(#a6c3cb3f-472b-403d-b1b2-46b7a55e82ce)"/></g></g><g id="a96169e2-570b-4b76-8096-9c72a159b7f0" data-name="boutons P2"><g id="fa1e746d-7ac4-4068-a3a3-a24ed31b0df2" data-name="1"><path class="a3645855-ae1d-4508-8d24-6013a319784d" d="M225.69 399.93c-3.86 0-8.13 1.53-8.13 4.87 0 2.95 4.11 4.62 7.95 4.62 4.1 0 8-1.73 8-4.88-.04-2.35-3.88-4.61-7.82-4.61zm-.18 8.63c-3.86 0-7-1.74-7-3.89s3.13-3.89 7-3.89 7 1.74 7 3.89-3.14 3.89-7 3.89z" transform="translate(-.98 -.52)"/><path d="M225.51 400.78c-3.86 0-7 1.74-7 3.89s3.13 3.89 7 3.89 7-1.74 7-3.89-3.14-3.89-7-3.89z" transform="translate(-.98 -.52)" style="fill:url(#a998bea9-4371-4431-b50e-36d35633c7d0)"/></g><g id="a19b4d91-bfdf-49f6-a006-14ae124fd94a" data-name="2"><path class="a3645855-ae1d-4508-8d24-6013a319784d" d="M247 399.49c-3.86 0-8.13 1.54-8.13 4.88 0 2.95 4.11 4.62 7.95 4.62 4.1 0 8-1.73 8-4.88-.07-2.35-3.91-4.62-7.82-4.62zm-.18 8.64c-3.86 0-7-1.74-7-3.89s3.13-3.89 7-3.89 7 1.74 7 3.89-3.17 3.89-7.03 3.89z" transform="translate(-.98 -.52)"/><path d="M246.79 400.35c-3.86 0-7 1.74-7 3.89s3.13 3.89 7 3.89 7-1.74 7-3.89-3.14-3.89-7-3.89z" transform="translate(-.98 -.52)" style="fill:url(#ff72b5e5-5691-44d8-93c9-20028073e1b2)"/></g><g id="f6035c04-cdfb-472d-b628-12f1172fbabd" data-name="3"><path class="a3645855-ae1d-4508-8d24-6013a319784d" d="M264.58 405.18c-3.86 0-8.12 1.53-8.12 4.88 0 2.95 4.1 4.61 7.94 4.61 4.1 0 8-1.73 8-4.88-.04-2.35-3.88-4.61-7.82-4.61zm-.18 8.64c-3.86 0-7-1.75-7-3.89s3.13-3.89 7-3.89 7 1.74 7 3.89-3.14 3.89-7 3.89z" transform="translate(-.98 -.52)"/><path d="M264.4 406c-3.86 0-7 1.74-7 3.89s3.13 3.89 7 3.89 7-1.75 7-3.89-3.14-3.89-7-3.89z" transform="translate(-.98 -.52)" style="fill:url(#f45e7c1a-735a-4ddf-80d5-a7fe6ec22c0d)"/></g><g id="ae7df47f-59b4-4187-96fd-821aecbc8226" data-name="4"><path class="a3645855-ae1d-4508-8d24-6013a319784d" d="M258.54 417.44c-3.86 0-8.13 1.53-8.13 4.88 0 2.95 4.11 4.61 8 4.61 4.1 0 8-1.73 8-4.88-.09-2.35-3.93-4.61-7.87-4.61zm-.18 8.64c-3.86 0-7-1.75-7-3.89s3.13-3.89 7-3.89 7 1.74 7 3.89-3.14 3.89-7 3.89z" transform="translate(-.98 -.52)"/><path d="M258.36 418.3c-3.86 0-7 1.74-7 3.89s3.13 3.89 7 3.89 7-1.75 7-3.89-3.14-3.89-7-3.89z" transform="translate(-.98 -.52)" style="fill:url(#b3b5ec9e-65c3-4a9f-8f1a-4f0affb92c1d)"/></g><g id="a94e2ebe-a467-4913-9a97-e7cdddfa1a0d" data-name="5"><path class="a3645855-ae1d-4508-8d24-6013a319784d" d="M240 411.28c-3.86 0-8.13 1.53-8.13 4.88 0 2.95 4.11 4.61 7.95 4.61 4.1 0 8-1.73 8-4.88-.07-2.35-3.91-4.61-7.82-4.61zm-.18 8.63c-3.86 0-7-1.74-7-3.89s3.13-3.89 7-3.89 7 1.75 7 3.89-3.17 3.89-7.03 3.89z" transform="translate(-.98 -.52)"/><path d="M239.79 412.13c-3.86 0-7 1.75-7 3.89s3.13 3.89 7 3.89 7-1.74 7-3.89-3.14-3.89-7-3.89z" transform="translate(-.98 -.52)" style="fill:url(#b5addfdd-6b4f-47d9-9b6b-e8cf3515cfdc)"/></g><g id="ed3ff941-abe4-4633-a39f-729818284d7f" data-name="6"><path class="a3645855-ae1d-4508-8d24-6013a319784d" d="M217.73 411.28c-3.86 0-8.13 1.53-8.13 4.88 0 2.95 4.11 4.61 8 4.61 4.1 0 8-1.73 8-4.88-.09-2.35-3.93-4.61-7.87-4.61zm-.18 8.63c-3.86 0-7-1.74-7-3.89s3.13-3.89 7-3.89 7 1.75 7 3.89-3.14 3.89-7 3.89z" transform="translate(-.98 -.52)"/><path d="M217.55 412.13c-3.86 0-7 1.75-7 3.89s3.13 3.89 7 3.89 7-1.74 7-3.89-3.14-3.89-7-3.89z" transform="translate(-.98 -.52)" style="fill:url(#f9e5808b-dd00-49b7-b0ae-d4981f5421ab)"/></g></g><path class="bcf9df77-cb0e-4f45-85e9-f25b5ed27784" d="M228.57 237.19v.07l-5.92-1v-.08zM236.56 238.53a.13.13 0 0 0 0 .06l-5.72-1v-.06z" transform="translate(-.98 -.52)"/><path class="ba62489b-1829-40c1-869a-612bb88e745c" d="m210.17 273.38-65.56-11c-.87-.14-.87-.14-.74-.92.25-1.54.47-3.08.75-4.61.78-4.31 1.48-8.63 2.22-12.95.09-.48.22-1 .29-1.44 0-.18.12-.23.31-.19l.75.13 119.31 19.98a16.13 16.13 0 0 1 4.69 1.42 11.54 11.54 0 0 1 5.67 5.9 8.36 8.36 0 0 1 .63 3.88c0 .38-.08.76-.15 1.14l-1.56 9.36c-.07.39-.13.42-.54.36l-40.11-6.72zm14.68-7.7c-.4 2.35-.79 4.71-1.19 7.07 0 .23 0 .34.3.38 1 .15 1.95.32 2.93.49.51.09.51.09.59-.37q.69-4.22 1.4-8.43c0-.08 0-.21.12-.22s.13.1.17.17c1.69 3.14 3.43 6.26 5.06 9.42a2.38 2.38 0 0 0 3.55.6c.9-.94 1.91-1.79 2.87-2.68l4.89-4.53c.08-.07.15-.22.26-.17s0 .2 0 .31v.12c-.47 2.79-.93 5.58-1.4 8.37 0 .25 0 .35.31.4 1 .16 2 .32 3.06.51.34.07.45 0 .49-.32l2.32-13.83a1.32 1.32 0 0 0-.25-1 2.34 2.34 0 0 0-3.26-.37l-2.16 2-8.12 7.4c-.25.23-.28.22-.45-.08-2.2-4.06-4.42-8.11-6.61-12.17a2.14 2.14 0 0 0-1.43-1.06A1.74 1.74 0 0 0 226 259zm-4.51-.71c.38-2.31.76-4.61 1.16-6.92a1.32 1.32 0 0 0-.45-1.21 2.4 2.4 0 0 0-3.17 0c-2.39 2.24-4.82 4.43-7.24 6.63l-2.95 2.7c-.13.12-.23.25-.37 0l-3.44-6.31c-1.1-2-2.19-4-3.3-6a2.24 2.24 0 0 0-2.21-1 1.52 1.52 0 0 0-1.5 1.37q-1.16 6.86-2.3 13.71c0 .28.05.37.35.41 1 .15 2 .32 3 .5.44.07.45.08.51-.3.46-2.73.91-5.46 1.37-8.19 0-.13 0-.27.06-.4s0-.16.11-.17.1.08.13.14.18.34.28.51c1.63 3 3.29 6 4.88 9.07a2.34 2.34 0 0 0 3.35.6c.47-.47 1-.91 1.48-1.37l6.5-6c.06-.05.09-.14.19-.11s.07.14.06.22c-.14.81-.28 1.62-.41 2.44-.35 2.06-.69 4.13-1 6.2 0 .22 0 .32.29.36l3 .5c.44.07.45.07.52-.31q.51-3.6 1.1-7.04zm33.15 5.67c-.38 2.28-.76 4.57-1.15 6.85-.06.31.06.41.38.45 1 .16 2 .32 3 .5.33.07.45 0 .5-.31.16-1 .35-2.08.51-3.12 0-.23.12-.33.4-.28l12.77 2.14c.33.05.39.18.34.45-.18 1-.34 2.08-.53 3.12-.05.25 0 .35.32.4 1 .15 2 .32 3 .49.45.07.46.07.53-.34l1.22-7.32a6.88 6.88 0 0 0-2.51-6.52 12.61 12.61 0 0 0-6.36-3c-2.38-.41-4.76-.8-7.13-1.19-.72-.12-1.45-.26-2.17-.35a1.6 1.6 0 0 0-1.91 1.29c-.46 2.27-.83 4.5-1.21 6.74zm-62.24-10.42 1.14-6.79a1.24 1.24 0 0 0 0-.47 1.91 1.91 0 0 0-1.63-1.33c-1.55-.26-3.1-.53-4.65-.77-1.84-.3-3.66-.71-5.51-.87a11.55 11.55 0 0 0-7 1.39 6.55 6.55 0 0 0-3.37 4.67q-.63 3.74-1.25 7.47c-.07.4-.07.4.36.47 1 .17 2 .32 2.93.5.33.06.45 0 .5-.31.15-1 .34-2.06.5-3.09 0-.29.17-.35.48-.3l12.67 2.12c.34 0 .42.16.37.46-.19 1-.35 2.08-.54 3.11 0 .26 0 .36.32.4 1 .16 2 .32 3 .51.33.06.44 0 .49-.32.42-2.28.81-4.57 1.19-6.85zm-38.3 1 6.47 1.08a7.76 7.76 0 0 0 2.76 0 3.93 3.93 0 0 0 3.34-2.92c.64-3.78 1.26-7.55 1.9-11.33.05-.27 0-.37-.33-.42-1-.15-2-.32-3-.5-.36-.07-.46 0-.51.33q-.92 5.58-1.86 11.15a1.08 1.08 0 0 1-1.24.95 4.41 4.41 0 0 1-.73-.08c-1-.18-2-.37-3.06-.54l-7-1.15c-.28-.05-.35-.15-.31-.38.11-.59.19-1.18.31-1.76.06-.28 0-.4-.35-.45-.84-.13-1.68-.26-2.52-.42-.34-.07-.44 0-.49.32-.24 1.49-.49 3-.74 4.45-.07.42-.07.42.42.5zM230.83 237.63l5.72 1c.15.09.15.2.13.35-.37 2.17-.73 4.34-1.11 6.51 0 .29 0 .38.34.43 3.09.5 6.18 1 9.27 1.54.32.05.34.16.31.44-.06.67-.23 1.33-.32 2-.22 1.55-.54 3.09-.8 4.63-.1.59-.17 1.19-.26 1.78 0 .2-.12.31-.4.26L228.57 254c-.65-.11-.65-.11-.56-.68q1.29-7.69 2.57-15.38c.02-.15.02-.31.25-.31zm3.94 12.7c-.13.78-.25 1.56-.39 2.34-.05.27 0 .38.33.43 1.06.16 2.11.34 3.16.53.32.06.44 0 .49-.31.25-1.55.51-3.1.78-4.66 0-.24 0-.34-.31-.38q-1.62-.25-3.24-.54c-.28-.05-.39 0-.43.27-.16.78-.26 1.55-.39 2.32zM255.63 249.17c2.55.43 5.09.86 7.64 1.27.34.06.42.17.37.47q-.7 4.14-1.39 8.3c-.07.37-.1.4-.52.33L246.38 257c-.27-.05-.34-.16-.3-.39q.72-4.21 1.41-8.43c0-.28.18-.33.47-.28 2.55.44 5.11.86 7.67 1.29zm1.31 4.88c.14-.8.27-1.6.41-2.4 0-.23 0-.36-.3-.4l-3.44-.58c-.26 0-.38 0-.42.27l-.81 4.85c0 .25.05.36.33.41l3.37.56c.3.06.42 0 .46-.3.13-.8.27-1.6.4-2.41zM173.53 244.78l-7.64-1.27c-.31 0-.37-.15-.33-.42q.72-4.2 1.42-8.42c0-.25.13-.32.4-.27l15.36 2.6c.41.07.43.11.37.49-.26 1.55-.53 3.11-.78 4.66 0 .31-.17.37-.5.32-3.07-.53-6.15-1-9.22-1.55-.46-.08-.46-.08-.52.32s-.11.7-.19 1 0 .35.31.4c2.06.33 4.11.68 6.17 1l3.16.53c.32.05.42.17.37.44s-.14.74-.19 1.11-.18.38-.51.32zm.92-5.45c.56.1 1.13.18 1.69.29.25 0 .35 0 .38-.25 0-.39.12-.78.2-1.17 0-.21 0-.32-.26-.36l-3.41-.57c-.22 0-.33 0-.36.23q-.08.62-.18 1.23c0 .23.06.3.29.33.55.07 1.1.17 1.65.27zM211.28 241.75l7.64 1.28c.44.07.5.14.42.52-.43 2-.7 4-1.05 6-.14.74-.27 1.48-.37 2.23 0 .29-.15.37-.49.31-2.08-.36-4.17-.7-6.26-1l-9-1.51c-.42-.07-.43-.08-.37-.47.26-1.56.53-3.11.77-4.67 0-.32.18-.37.52-.31l9.16 1.54c.46.07.46.07.53-.33s.09-.67.17-1 0-.4-.36-.46c-2.34-.37-4.68-.77-7-1.16l-2.31-.38c-.24 0-.32-.12-.28-.34a10.85 10.85 0 0 0 .21-1.27c0-.27.16-.31.43-.26l5.37.9 2.27.38zm-1.15 7.25c.55.09 1.11.17 1.66.27.21 0 .33 0 .36-.21l.21-1.23c0-.19-.05-.29-.27-.33l-3.33-.56c-.24 0-.35 0-.38.24 0 .4-.11.79-.19 1.17-.05.23.05.33.29.37.52.07 1.1.17 1.65.28zM268.74 251.36c.87.15 1.74.31 2.62.44.31 0 .38.18.34.43-.08.4-.13.8-.21 1.2 0 .21 0 .3.27.34l3.36.56c.28 0 .38 0 .41-.27.06-.41.15-.82.2-1.23 0-.23.15-.27.37-.24l5.4.91c.21 0 .3.13.27.33-.08.43-.16.86-.22 1.29 0 .23-.16.29-.41.25-.44-.09-.89-.15-1.34-.24-.24 0-.33 0-.36.24-.05.4-.13.8-.19 1.2 0 .23-.15.3-.4.25-.47-.08-.94-.15-1.41-.24-.17 0-.24 0-.29.17-.13.44-.08.91-.25 1.34-.07.18.07.24.24.27l1.38.22c.28 0 .38.15.33.41s-.13.78-.21 1.17c0 .21.05.31.28.34l1.34.22c.25 0 .34.13.3.36-.09.42-.17.84-.22 1.27 0 .22-.15.27-.36.24l-.65-.11-4.62-.77c-.45-.08-.45-.08-.38-.49s.12-.76.19-1.14c.05-.21 0-.3-.27-.34l-3.44-.58c-.22 0-.29 0-.31.21-.06.4-.16.8-.19 1.21s-.19.37-.5.32l-4.72-.8c-1.16-.19-.93-.1-.8-1 0-.25.09-.49.12-.74s.16-.29.4-.25c.45.09.9.15 1.34.24.27.05.39 0 .42-.26s.14-.78.19-1.17.16-.31.41-.26c.46.09.92.15 1.37.24.21 0 .3 0 .32-.2.06-.43.13-.85.22-1.27 0-.21-.05-.28-.26-.31l-1.38-.23c-.24 0-.34-.12-.29-.36s.14-.78.21-1.17c0-.23 0-.35-.31-.38-.45-.06-.9-.15-1.35-.22-.25 0-.34-.14-.29-.37q.12-.63.21-1.26c0-.24.16-.29.4-.24zM222.64 236.28l5.92 1a.42.42 0 0 1 .05.36q-1.31 7.77-2.6 15.56c0 .28-.17.37-.48.31s-.88-.19-1.33-.26l-3.89-.62c-.46-.08-.45-.08-.39-.49q1.31-7.74 2.6-15.49c.02-.14 0-.28.12-.37zM191.71 247.82l-7.71-1.28c-.3 0-.4-.14-.35-.43q.72-4.2 1.41-8.4c0-.26.15-.32.42-.27l15.39 2.56c.31.05.42.18.36.45s-.11.72-.19 1.08-.13.41-.55.34l-4.16-.7-5.06-.85c-.28 0-.37 0-.41.25-.22 1.39-.46 2.78-.69 4.17a2.74 2.74 0 0 1 0 .28c-.11.6-.11.6.58.72l8.92 1.49c.42.07.45.11.39.5s-.15.72-.18 1.08-.19.35-.48.3c-.56-.11-1.12-.2-1.68-.29z" transform="translate(-.98 -.52)"/><path d="M291.07 282.1c-.25 1.47-.49 2.94-.74 4.41-.07.42-.07.42-.51.34l-4.27-.71c-.27 0-.37-.13-.3-.37s.07-.41.11-.62-.06-.27-.25-.29l-.49-.05c-.39-.06-.49 0-.51.37v.19c0 .43-.14.5-.63.42-1.39-.23-2.79-.47-4.19-.69-.32-.05-.4-.19-.36-.45.5-3 1-5.91 1.49-8.86.06-.36.14-.42.55-.33 2.95.58 5.92 1 8.87 1.52.52.09 1 .13 1.55.22s.47.1.4.52c-.24 1.46-.49 2.92-.73 4.38zm-8.37-.17 1.58.27c.22 0 .32 0 .35-.22.1-.59.2-1.19.31-1.79 0-.21-.06-.3-.29-.34l-3.13-.52c-.21 0-.31 0-.35.22-.08.59-.18 1.19-.29 1.79 0 .21 0 .31.27.34zm5.47-1.49c-.52-.08-1-.16-1.55-.26-.25-.05-.36 0-.39.24-.09.59-.19 1.19-.29 1.78-.05.23.05.29.28.33 1 .16 2 .33 3 .51.28.05.39 0 .43-.27.08-.56.17-1.13.28-1.69 0-.23 0-.35-.3-.39-.48-.08-.97-.17-1.46-.25z" transform="translate(-.98 -.52)" style="fill:#2785db"/><path d="M292.87 271.31c-.25 1.48-.5 3-.74 4.44-.07.38-.11.4-.52.34l-2.86-.48c-.41-.07-.49-.18-.43-.54.14-.85.28-1.71.43-2.56a.34.34 0 0 1 0-.1c.2-.63.12-.52.72-.43l1.48.25c.26 0 .4 0 .44-.25.09-.59.19-1.18.29-1.76 0-.21 0-.33-.3-.38l-8-1.34c-.26 0-.39.05-.42.28-.09.57-.19 1.14-.28 1.7 0 .23.05.36.31.41l3.06.52a.25.25 0 0 0 .33-.17 1.81 1.81 0 0 0 .12-.64c0-.19.11-.24.27-.29a.45.45 0 0 1 .2 0c.85.09.89.14.77.88-.21 1.26-.43 2.51-.63 3.77 0 .26-.17.34-.43.3l-5.43-.91c-.49-.08-.55-.15-.48-.58.49-3 1-5.91 1.48-8.87 0-.17.09-.23.28-.22s.55 0 .83.08l9.77 1.63c.55.09.55.1.47.6l-.72 4.32z" transform="translate(-.98 -.52)" style="fill:#44c047"/><path d="M289.84 254.78c1.75.29 3.49.59 5.24.87.3 0 .4.13.35.42-.51 3-1 5.95-1.49 8.92-.05.3-.16.38-.49.32-1.4-.25-2.8-.48-4.2-.71-.36-.06-.42-.15-.36-.47 0-.12.06-.23.08-.34.08-.47.08-.47-.46-.56h-.21c-.5-.08-.51-.08-.54.39 0 .18-.1.34-.11.52s-.18.19-.35.16l-4.44-.74c-.23 0-.32-.15-.29-.35.17-1 .35-2 .51-3.06 0-.28.23-.27.45-.23l1.83.3c.8.15 1.61.24 2.4.44.25.06.44 0 .48-.27.07-.57.17-1.14.28-1.7.05-.27 0-.38-.34-.43-1.42-.22-2.83-.47-4.24-.7-.29 0-.4-.12-.35-.4.18-1 .33-2 .48-3 0-.26.15-.33.44-.28 1.77.31 3.55.6 5.33.9zm1.49 6.43c.51.08 1 .16 1.54.26.22 0 .35 0 .39-.21.09-.61.19-1.22.3-1.82 0-.2 0-.32-.27-.35l-3.09-.52c-.22 0-.32 0-.35.21-.09.63-.2 1.25-.31 1.88 0 .18 0 .26.24.29z" transform="translate(-.98 -.52)" style="fill:#eb1416"/><path class="ba62489b-1829-40c1-869a-612bb88e745c" d="m156.94 232.66 7.54 1.26c.53.09.53.09.45.57s-.13.7-.17 1-.16.33-.44.28l-9.3-1.57c-.33-.05-.41 0-.45.3-.35 2.17-.72 4.33-1.07 6.49-.05.31-.2.36-.51.31l-5.19-.87c-.3 0-.4-.14-.35-.42q.72-4.19 1.4-8.39c.05-.31.19-.34.48-.29z" transform="translate(-.98 -.52)"/><path class="bcf9df77-cb0e-4f45-85e9-f25b5ed27784" d="M224.85 265.68 226 259a1.74 1.74 0 0 1 2.34-1.33 2.14 2.14 0 0 1 1.43 1.06c2.19 4.06 4.41 8.11 6.61 12.17.17.3.2.31.45.08l8.14-7.43 2.16-2a2.34 2.34 0 0 1 3.26.37 1.32 1.32 0 0 1 .25 1q-1.17 6.91-2.32 13.83c0 .29-.15.39-.49.32-1-.19-2-.35-3.06-.51-.3-.05-.36-.15-.31-.4.47-2.79.93-5.58 1.4-8.37v-.12c0-.04.11-.25 0-.31s-.18.1-.26.17l-4.89 4.53c-1 .89-2 1.74-2.87 2.68a2.38 2.38 0 0 1-3.55-.6c-1.63-3.16-3.37-6.28-5.06-9.42 0-.07-.06-.19-.17-.17s-.11.14-.12.22l-1.4 8.43c-.08.46-.08.46-.59.37-1-.17-1.95-.34-2.93-.49-.28 0-.34-.15-.3-.38.4-2.36.79-4.72 1.19-7.07zM220.34 265q-.59 3.46-1.16 6.95c-.07.38-.08.38-.52.31l-3-.5c-.27 0-.32-.14-.29-.36.36-2.07.7-4.14 1-6.2.13-.82.27-1.63.41-2.44 0-.08.06-.18-.06-.22s-.13.06-.19.11l-6.5 6c-.5.46-1 .9-1.48 1.37a2.34 2.34 0 0 1-3.35-.6c-1.59-3-3.25-6.05-4.88-9.07-.1-.17-.19-.34-.28-.51s-.05-.14-.13-.14-.1.1-.11.17 0 .27-.06.4c-.46 2.73-.91 5.46-1.37 8.19-.06.38-.07.37-.51.3-1-.18-2-.35-3-.5-.3 0-.4-.13-.35-.41q1.16-6.86 2.3-13.71a1.52 1.52 0 0 1 1.5-1.37 2.24 2.24 0 0 1 2.21 1c1.11 2 2.2 4 3.3 6l3.44 6.31c.14.27.24.14.37 0l2.95-2.7c2.42-2.2 4.85-4.39 7.24-6.63a2.4 2.4 0 0 1 3.17 0 1.32 1.32 0 0 1 .45 1.21c-.4 2.31-.78 4.61-1.16 6.92zM253.49 270.64c.38-2.24.75-4.47 1.13-6.7a1.6 1.6 0 0 1 1.91-1.29c.72.09 1.45.23 2.17.35 2.37.39 4.75.78 7.13 1.19a12.61 12.61 0 0 1 6.36 3 6.88 6.88 0 0 1 2.51 6.52q-.6 3.66-1.22 7.32c-.07.41-.08.41-.53.34-1-.17-2-.34-3-.49-.29 0-.37-.15-.32-.4.19-1 .35-2.08.53-3.12.05-.27 0-.4-.34-.45l-12.77-2.14c-.28-.05-.36 0-.4.28-.16 1-.35 2.08-.51 3.12-.05.3-.17.38-.5.31-1-.18-2-.34-3-.5-.32 0-.44-.14-.38-.45.39-2.28.77-4.57 1.15-6.85zM264 273l6.37 1.07c.3 0 .43 0 .46-.28s.08-.52.12-.78a4.27 4.27 0 0 0-1.54-4.2 8.48 8.48 0 0 0-4-1.85c-2.25-.43-4.52-.78-6.77-1.17-.34-.06-.36.12-.4.33q-.44 2.69-.9 5.37c0 .29 0 .4.36.46zM191.25 260.22c-.38 2.28-.77 4.57-1.14 6.85-.05.3-.16.38-.49.32-1-.19-2-.35-3-.51-.29 0-.36-.14-.32-.4.19-1 .35-2.08.54-3.11.05-.3 0-.41-.37-.46l-12.67-2.12c-.31-.05-.44 0-.48.3-.16 1-.35 2.05-.5 3.09 0 .3-.17.37-.5.31-1-.18-1.95-.33-2.93-.5-.43-.07-.43-.07-.36-.47q.62-3.74 1.25-7.47a6.55 6.55 0 0 1 3.37-4.67 11.55 11.55 0 0 1 7-1.39c1.85.16 3.67.57 5.51.87 1.55.24 3.1.51 4.65.77a1.91 1.91 0 0 1 1.59 1.37 1.24 1.24 0 0 1 0 .47l-1.14 6.79zm-10.67-1.14c2.11.35 4.22.7 6.33 1.07.32.05.44 0 .48-.29.3-1.81.6-3.63.91-5.44 0-.26 0-.37-.33-.42q-3-.48-6-1a11.11 11.11 0 0 0-3.77 0 4.85 4.85 0 0 0-3.81 2.54 7.49 7.49 0 0 0-.52 2c-.07.4-.07.41.4.48zM153 261.25l-7-1.17c-.49-.08-.49-.08-.42-.5.25-1.48.5-3 .74-4.45.05-.28.15-.39.49-.32.84.16 1.68.29 2.52.42.31.05.41.17.35.45-.12.58-.2 1.17-.31 1.76 0 .23 0 .33.31.38l7 1.15c1 .17 2 .36 3.06.54a4.41 4.41 0 0 0 .73.08 1.08 1.08 0 0 0 1.24-.95q.94-5.58 1.86-11.15c0-.3.15-.4.51-.33 1 .18 2 .35 3 .5.3.05.38.15.33.42-.64 3.78-1.26 7.55-1.9 11.33a3.93 3.93 0 0 1-3.34 2.92 7.76 7.76 0 0 1-2.76 0l-6.41-1.08z" transform="translate(-.98 -.52)"/><path class="ba62489b-1829-40c1-869a-612bb88e745c" d="m264 273-6.33-1c-.34-.06-.41-.17-.36-.46q.47-2.68.9-5.37c0-.21.06-.39.4-.33 2.25.39 4.52.74 6.77 1.17a8.48 8.48 0 0 1 4 1.85 4.27 4.27 0 0 1 1.54 4.2c0 .26-.1.52-.12.78s-.16.33-.46.28zM180.58 259.08l-6.3-1.06c-.47-.07-.47-.08-.4-.48a7.49 7.49 0 0 1 .52-2 4.85 4.85 0 0 1 3.81-2.54 11.11 11.11 0 0 1 3.77 0q3 .51 6 1c.31.05.38.16.33.42-.31 1.81-.61 3.63-.91 5.44 0 .29-.16.34-.48.29-2.11-.37-4.22-.72-6.33-1.07z" transform="translate(-.98 -.52)"/></g><g id="ac231e86-e778-4694-9a4a-0edee714e985" data-name="f458f0a2-3cb7-4014-ad1f-9ecf4045566c"><path class="b691e7b8-7950-4e33-812e-3aba7863ff28" d="M81.29 42.45c3.13.57 6.28 1 9.41 1.72 17 3.62 30.94 15.67 34 29.28a7.58 7.58 0 0 0 .42.86 21.55 21.55 0 0 1 8.27-13c7.45-5.72 17-7.72 28.53-6.17 1.7.23 3.41.56 5.12.77 1 .13 1.3.47 1.28 1.23-.06 2-.07 4 0 6.1 0 .87-.36 1-1.41.85a46 46 0 0 0-9.43-.93c-13.34.45-22.2 9-20.68 19.93 1.44 10.77 13 20.73 26.64 23.07 1.57.26 3.63 0 4.57.94s.25 2.49.33 3.78c.06 1.05.06 2.09.08 3.13s-.5 1-1.61.86a90.16 90.16 0 0 1-15.63-3.59 4.26 4.26 0 0 0-.75-.5c-14-6.16-22.28-15.26-25.34-27.07-.35 0-.36.26-.41.49a21 21 0 0 1-7.72 12c-4.88 4-11.21 6.1-18.53 6.89h-8.67a47.9 47.9 0 0 0-8.46-1.41v-8.4c1.76.28 3.52.62 5.28.87 15 2.17 27-5.65 26.77-17.45-.12-6.17-3.6-12.52-9.57-17.43-6.53-5.39-14.2-7.71-22.48-8.49z" transform="translate(-.98 -.52)"/><path class="ef68bdb6-bb3c-441f-a1e7-0d4b01f2cb1e" d="M89.75 103h8.62c7 1.08 13.91 2.21 20.87 3.3q15.95 2.48 31.88 4.91a89.28 89.28 0 0 0 15.63 3.6c1.09.15 1.68.06 1.61-.86l126 19.62c7.61 1.19 13.21 6.4 13 12.08-.25 4.89-5.17 8.11-11.44 7.49L96.41 122.09c-7.62-1.19-13.3-6.6-12.81-12.3.29-3.33 2.4-5.57 6.15-6.79zm80.56 28c-1.52-3.9-3-7.63-4.42-11.38-1.38-3.53-1.38-3.53-5.95-4.24-4-.62-4-.62-5.18 2.1-1.52 3.4-3 6.82-4.59 10.38 1.66.26 3.1.46 4.54.71a.8.8 0 0 0 1.07-.38.74.74 0 0 0 0-.21c.13-1.84 1.62-1.89 3.59-1.38a9.38 9.38 0 0 0 2.08.33c1.55 0 2.33.64 2.57 1.87.11.55 0 1.26 1.21 1.42 1.63.22 3.25.5 5.07.78zm-71.52-18v2.82c0 2.31 1 3.56 3.83 4.52a27.45 27.45 0 0 0 8.83 1.48A6.47 6.47 0 0 0 115 121a2.63 2.63 0 0 0 .88-3.34c-.3-.87-1.77-.49-2.69-.79l-.38-.06c-1.69-.48-2.54-.28-2.33 1.31.15 1.28-.88 1.61-3 1.2-1.42-.27-2.83-.57-2.77-2.18.08-2.22 0-4.45 0-6.68 0-1.55 1.44-1.37 2.74-1.17s3 .38 3 2c0 1 .47 1.34 1.62 1.42.56.06 1.13.15 1.7.26 2.3.36 2.91-.4 1.85-2.26a4.77 4.77 0 0 0-2.41-2 24.17 24.17 0 0 0-11.53-1.8c-1.92.19-3 1.1-2.89 2.81.09 1.08 0 2.16 0 3.25zm149.32 23.3v3.42a3.05 3.05 0 0 0 1.06 2.31c2.68 2.55 12.29 4 15 2.35a2.67 2.67 0 0 0 1-3.44c-.29-.82-1.79-.48-2.72-.76h-.19c-1.6-.38-2.77-.51-2.49 1.3.25 1.6-1.49 1.41-2.88 1.18s-2.92-.42-2.9-2.06v-6.84c0-1.55 1.49-1.32 2.78-1.14s3.07.41 3 2c0 1.09.58 1.3 1.66 1.39.51 0 1 .19 1.53.24.78 0 2 .65 2.24.08a2.5 2.5 0 0 0-.46-2.63 5.14 5.14 0 0 0-2.24-1.66 24.19 24.19 0 0 0-11.54-1.8c-1.86.09-3.08 1.3-2.85 2.84.04 1.02-.01 2.11 0 3.2zm-60.92-2.38c1 .12 2 .28 3 .36a11.36 11.36 0 0 0 2 0c1.6-.18 3.05-.53 3.39-2s-.76-2.67-2.28-3.65c-1.17-.75-2.45-1.39-3.68-2.08s-2.39-1.28-3.53-2c-1-.58-1.89-1.3-1.53-2.23s1.65-.73 2.69-.56 2.51.32 2.7 1.54c.14.95.7 1.11 1.61 1.2.7.07 1.39.22 2.09.32 2 .32 2.47-.22 1.49-1.75a3.84 3.84 0 0 0-1.6-1.48 20.27 20.27 0 0 0-12.85-2c-2.63.5-2.79 2.8-.61 4.68a20.33 20.33 0 0 0 3.7 2.26c1.53.82 3.08 1.63 4.58 2.52.89.54 1.8 1.27 1.36 2.11-.57 1.07-2 .72-3.27.46-1-.21-2.39-.41-2.36-1.6 0-1-.48-1.27-1.56-1.34-.62 0-1.27-.23-1.89-.27s-1.74-.6-2.06-.06a2.12 2.12 0 0 0 .41 2.19 6 6 0 0 0 2.54 1.88 20.67 20.67 0 0 0 5.58 1.49zm26.06 4a17.62 17.62 0 0 0 5.67.3c1.47-.22 2.69-.66 3-2s-.58-2.39-1.93-3.3c-1.05-.7-2.18-1.32-3.29-1.95-1.45-.82-3-1.58-4.38-2.43-1-.58-1.84-1.34-1.4-2.25s1.59-.66 2.58-.5 2.54.3 2.75 1.49c.19 1 .78 1.18 1.76 1.28a23.59 23.59 0 0 1 2.84.45c1 .24 1.11-.18 1-.82-.16-1.37-1.52-2.68-3.84-3.47a26.91 26.91 0 0 0-8.28-1.44c-2.19 0-4.33.14-4.74 2.11s1.61 3.21 3.52 4.32 4.06 2.2 6.1 3.34c1 .55 1.94 1.34 1.39 2.21s-2.1.64-3.33.38c-1-.22-2.34-.48-2.27-1.67 0-.92-.47-1.16-1.46-1.24-.62-.05-1.27-.24-1.89-.27s-1.82-.7-2.16 0a2.27 2.27 0 0 0 .59 2.34 7.37 7.37 0 0 0 3.19 2 19.22 19.22 0 0 0 4.61 1.1zm70.86 11a17.52 17.52 0 0 0 5.42.29c1.48-.21 2.73-.63 3.05-1.92s-.57-2.48-2-3.43c-1-.7-2.19-1.31-3.31-1.95-1.4-.78-2.84-1.51-4.22-2.33-1-.57-1.88-1.3-1.49-2.22s1.65-.73 2.68-.56 2.52.33 2.7 1.55c.14 1 .72 1.1 1.63 1.2.69.06 1.39.21 2.08.32 2 .32 2.46-.23 1.48-1.78a3.91 3.91 0 0 0-1.61-1.47 20.22 20.22 0 0 0-12.86-2c-2.62.51-2.77 2.81-.59 4.69a22.35 22.35 0 0 0 4.43 2.69 26.31 26.31 0 0 1 4.33 2.49c.71.56 1.38 1.26.82 1.9-.82 1-2.28.56-3.58.24-1-.24-2.14-.58-2-1.68.1-.85-.45-1.06-1.34-1.15-.69-.06-1.4-.25-2.09-.3s-1.73-.61-2-.05a2.12 2.12 0 0 0 .41 2.2 6.19 6.19 0 0 0 2.55 1.87 19.41 19.41 0 0 0 5.5 1.48zm-157.17-31.78v6.08c0 .8.28 1.06 1.28 1.21q6.45.94 12.89 2c1.11.17 1.2-.21 1.19-.89s-.05-1.11-1.18-1.26c-2.34-.29-4.68-.72-7-1.05-1-.13-1.29-.41-1.27-1.18.06-2.47 0-5 0-7.43 0-3.67 0-3.64-4.67-4.25-1-.14-1.28 0-1.26.81.06 2 0 4 0 6zm110.78 17.41v-3.71c0-3.46 0-3.42-4.46-4.1-1.16-.18-1.53 0-1.48.92.08 3.18 0 6.34 0 9.51 0 3.55 0 3.52 4.65 4.13 1 .13 1.31 0 1.28-.81v-5.94z" transform="translate(-.98 -.52)"/><path class="b691e7b8-7950-4e33-812e-3aba7863ff28" d="M184.2 72V61.64c0-.52-.23-1.17.92-1 5.62 1 11.27 1.42 16.86 2.83 6.63 1.68 10.39 5.69 11 11.28a17.69 17.69 0 0 1 0 3.85c-.67 5.56-5.3 8.16-13 7.19-4.8-.6-9.61-1.49-14.42-2.17-1.24-.19-1.25-.65-1.25-1.39.05-3.39 0-6.81 0-10.23zm9.8 1.36v3.41c0 3.22 0 3.22 4.24 3.55 2.89.23 4.33-.46 4.8-2.52a11.75 11.75 0 0 0-.05-5.62c-.57-2.23-2-3.45-4.78-4.15-.94-.23-1.9-.36-2.84-.58s-1.44 0-1.4.85c.09 1.7 0 3.38 0 5.06zm-9.82 26.73V89.98c0-.89.13-1.29 1.49-1.06q11.49 1.86 23 3.57c1.29.2 1.53.57 1.53 1.5 0 3.61 0 3.62-4.56 2.9-3.36-.52-6.71-1-10.06-1.58-1.25-.22-1.79-.12-1.75 1 .09 2.4 0 2.39 3.13 2.87 3.56.56 7.11 1.13 10.64 1.66 1 .16 1.42.37 1.45 1.27.12 3.67.17 3.67-4.53 2.94-3.05-.47-6.09-.92-9.14-1.42-1.08-.17-1.55-.11-1.55.88 0 3.38-.08 3.37 4.33 4.06 3.6.56 7.21 1.16 10.82 1.66 1.26.2 1.88.48 1.72 1.56-.18 1.24.68 3-.33 3.67s-3.11-.24-4.74-.49c-6.6-1-13.16-2-19.74-3-1.32-.2-1.72-.53-1.69-1.57.08-3.43 0-6.86 0-10.27zm69 14.44c.57.06 1.14.16 1.71.17 1.63 0 2.62.36 3.23 2 .91 2.44 5.62 4 8.07 2.83 1.7-.79 1.52-2.39-.47-3.57a21.77 21.77 0 0 0-4.51-1.8 38 38 0 0 1-7.69-3.25c-5.47-3.32-5.64-8.89 0-10.28 5.82-1.42 11.95-.29 17.95 2.67a7.42 7.42 0 0 1 2.53 2.3c.86 1.13 1.86 2.53 1.39 3.47-.36.74-2.29 0-3.52-.11-.68 0-1.39-.22-2.08-.25-1.8-.14-3.37-.13-4.29-2.18-.68-1.55-4.69-2.47-6.31-1.78-1.33.57-1.24 1.68.26 2.51a25.07 25.07 0 0 0 4.57 1.65 58.81 58.81 0 0 1 6.55 2.49c3.47 1.64 6 3.77 6 6.95s-2 5.2-5.61 5.92c-5.08 1-10.37-.07-15.62-1.9a10.66 10.66 0 0 1-6.66-6.08c-1-2.37-1-2.37 1.89-2l2.47.28zm-40.48 1.54c2.91-5.26 5.74-10.35 8.57-15.44.89-1.6 1.83-3.17 2.65-4.81a1.39 1.39 0 0 1 1.8-.67c2.72.48 5.44.89 8.16 1.27a1.88 1.88 0 0 1 1.67 1.14q5.37 11.35 10.84 22.71c.51 1 .09 1.08-1 .9-2.34-.41-4.68-.79-7-1.1-1.19-.15-1.76-.49-2.13-1.5-1-2.84-1.12-2.84-4.68-3.39-2-.31-3.92-.56-5.88-.94-1.13-.21-1.64 0-2 .81-1.08 2.56-1.14 2.54-4.8 2zm17-14.31c-1.13 2.51-2.12 4.72-3.12 6.93-.21.45-.09.73.65.84l4.91.76c.66.11.94 0 .71-.59zm60.24-24.66c1.76.27 3.94.12 5.17.94s1.53 2.63 2.18 4c3 6.33 6 12.66 9.11 19 .58 1.18.65 1.65-1.16 1.28-2.21-.44-4.43-.78-6.64-1-1.18-.14-1.77-.45-2.16-1.49-1.05-2.85-1.12-2.85-4.65-3.4-2-.3-3.93-.56-5.88-.93-1.15-.22-1.65 0-2 .81-1.1 2.55-1.16 2.53-4.8 2l-4.93-.77c-.86-.13-1.29-.2-.84-1q5.49-9.78 10.87-19.6a1.21 1.21 0 0 1 1.56-.53c1.39.26 2.78.43 4.17.64zm-.08 5.8c-.69 1.57-1.26 2.77-1.75 4s-2.05 2.64-1.18 3.58 3.31.69 5.08 1c1 .2 1.31.09.91-.84-1.05-2.41-1.92-4.86-3.06-7.74zm-42.52 10.37c-3.24-.51-6.25-1-9.26-1.44-1-.16-1.08-.66-1.31-1.21-1.29-3-1.29-3-5.11-3.62l-2.47-.38c-1.45-.23-3.1-.76-4.28-.5s-1.09 1.72-1.52 2.66a1.05 1.05 0 0 1-1.37.54c-2.46-.41-4.93-.83-7.39-1.15-1.52-.19-1.28-.62-.87-1.33 2.53-4.45 5-8.92 7.45-13.39 1.08-1.94 2.17-3.86 3.21-5.82a1.31 1.31 0 0 1 1.66-.62c2.78.48 5.58.89 8.34 1.3a1.6 1.6 0 0 1 1.45.9c3.76 8 7.57 15.92 11.47 24.06zM230.1 73.6c-1.23 2.78-2.29 5.19-3.43 7.75 2.08.32 4 .59 5.83.91.95.17 1-.08.7-.76-1.01-2.5-1.95-4.97-3.1-7.9zm-75.47 8.55c-4-.62-8-1.29-11.94-1.83-1.36-.19-1.52-.6-1.38-1.5 1.42-8.5 11.26-13.84 22.61-12.23 4.33.61 4.33.61 4.33 4 0 4.11 0 8.2.05 12.32 0 1.07-.26 1.4-1.74 1.14-4-.73-7.95-1.27-11.93-1.89zm.16 2.6c4.06.63 8.09 1.28 12.13 1.87 1.05.16 1.4.42 1.4 1.28v15c0 .6 0 .95-1.06.85-12-1.15-22.44-8.44-25.4-17.83-1.06-3.35-1.06-3.35 3.08-2.7zm139.34 21.08c4.43.69 8.86 1.41 13.29 2.07 1.18.19 1.76.46 1.62 1.47-.18 1.39.75 3.37-.34 4.11s-3.46-.27-5.28-.53c-4.49-.65-4.49-.7-4.48 2.82 0 4.16 0 8.32.06 12.49 0 1.08-.4 1.29-1.7 1-2-.41-4.07-.73-6.1-1-1.52-.16-2-.55-2-1.83.09-4.8 0-9.62 0-14.42 0-1.14-.42-1.49-1.8-1.65-2.28-.27-4.57-.72-6.84-1-1-.14-1.37-.45-1.29-1.22.16-1.49-.81-3.62.4-4.36 1-.58 3.49.32 5.31.59 3.06.45 6.1.93 9.14 1.4zM260 72.32c4.36.68 8.73 1.4 13.09 2 1.26.19 1.65.53 1.56 1.48-.12 1.4.59 3.37-.32 4.1s-3.43-.27-5.25-.53c-4.31-.63-4.31-.68-4.31 2.7 0 4.2 0 8.41.06 12.63 0 1.06-.36 1.29-1.68 1q-3.23-.63-6.45-1c-1.24-.15-1.59-.51-1.58-1.48.05-4.84-.06-9.71 0-14.55 0-1.28-.51-1.67-2-1.82-2.2-.24-4.43-.69-6.63-1-1-.14-1.32-.45-1.28-1.21a33 33 0 0 0 0-3.72c0-.82.37-.92 1.32-.76 4.49.73 9 1.4 13.47 2.1zm-178.49-.25V55c0-.52-.38-1.25.92-1.12 12.64 1.22 21.3 8 24.81 15.51 6 12.74-5.13 24-21.36 21.66-4.38-.64-4.38-.64-4.38-4z" transform="translate(-.98 -.52)"/><path d="M170.31 131c-1.82-.28-3.44-.56-5.07-.79-1.17-.16-1.11-.87-1.22-1.41-.24-1.23-1-1.84-2.57-1.88a10 10 0 0 1-2.08-.32c-2-.52-3.45-.47-3.58 1.37 0 .4-.32.69-.82.65l-.27-.05c-1.43-.26-2.87-.45-4.53-.71 1.57-3.56 3.07-7 4.59-10.39 1.2-2.72 1.21-2.72 5.17-2.1 4.57.71 4.57.71 5.95 4.25 1.47 3.74 2.92 7.48 4.43 11.38zm-10.16-12.43-.38-.08c-.82 2-1.64 3.93-2.49 6l5.36.84zM98.79 113v-3.26c-.1-1.71 1-2.62 2.89-2.81a24.17 24.17 0 0 1 11.53 1.8 4.77 4.77 0 0 1 2.41 2q1.6 2.8-1.85 2.26c-.57-.11-1.14-.2-1.7-.26-1.15-.08-1.63-.38-1.62-1.41 0-1.6-1.71-1.78-3-2s-2.76-.37-2.74 1.17c0 2.23.07 4.46 0 6.68-.06 1.61 1.35 1.91 2.77 2.18 2.15.41 3.18.1 3-1.2-.19-1.59.64-1.79 2.33-1.31l.38.06c.92.3 2.39-.08 2.69.79A2.63 2.63 0 0 1 115 121a6.38 6.38 0 0 1-3.51.79 27.45 27.45 0 0 1-8.83-1.48c-2.83-1-3.82-2.21-3.83-4.51zm149.32 23.3v-3.27c-.23-1.53 1-2.74 2.85-2.83a24.06 24.06 0 0 1 11.53 1.8 5.22 5.22 0 0 1 2.24 1.66 2.5 2.5 0 0 1 .46 2.63c-.28.58-1.46 0-2.24-.08-.51 0-1-.18-1.53-.24-1.08-.08-1.69-.29-1.66-1.39.06-1.58-1.66-1.79-3-2s-2.79-.44-2.78 1.14v6.83c0 1.65 1.55 1.84 2.9 2.07s3.13.42 2.88-1.18c-.28-1.81.89-1.69 2.49-1.31h.19c.93.28 2.43 0 2.72.76a2.66 2.66 0 0 1-1 3.44c-2.75 1.69-12.36.2-15-2.34a3.07 3.07 0 0 1-1.06-2.32v-3.4zm-60.93-2.38a20.46 20.46 0 0 1-5.59-1.48 6.05 6.05 0 0 1-2.54-1.87 2.14 2.14 0 0 1-.41-2.2c.33-.54 1.35 0 2.07.06s1.26.23 1.89.28c1.07.07 1.58.35 1.56 1.33 0 1.19 1.35 1.41 2.36 1.6 1.22.26 2.7.62 3.26-.46.44-.83-.47-1.57-1.36-2.1-1.48-.89-3-1.7-4.57-2.52a20.45 20.45 0 0 1-3.72-2.33c-2.18-1.87-2-4.17.61-4.68a20.27 20.27 0 0 1 12.85 2 3.88 3.88 0 0 1 1.6 1.47c1 1.56.51 2.08-1.49 1.76-.7-.1-1.39-.24-2.09-.32-.91-.09-1.47-.25-1.61-1.2-.19-1.22-1.61-1.36-2.7-1.54s-2.3-.4-2.69.56.55 1.65 1.53 2.23c1.14.69 2.35 1.31 3.53 2s2.5 1.33 3.68 2.08c1.52 1 2.63 2.14 2.28 3.65s-1.79 1.79-3.39 2a10.51 10.51 0 0 1-2 0c-1 0-2-.18-3-.3zm26.06 4a18.85 18.85 0 0 1-4.63-1.07 7.27 7.27 0 0 1-3.18-2 2.26 2.26 0 0 1-.6-2.34c.34-.7 1.42 0 2.16 0s1.27.22 1.9.27c1 .08 1.52.32 1.45 1.24-.07 1.18 1.26 1.45 2.28 1.67 1.22.26 2.7.63 3.33-.38s-.44-1.66-1.4-2.21c-2-1.15-4.06-2.19-6.09-3.34s-3.94-2.31-3.52-4.32 2.53-2.16 4.73-2.11a26.81 26.81 0 0 1 8.28 1.44c2.3.78 3.69 2.1 3.85 3.47.07.64 0 1-1 .81a25 25 0 0 0-2.84-.44c-1-.1-1.57-.27-1.75-1.28-.22-1.19-1.66-1.31-2.76-1.49s-2.16-.33-2.57.5.41 1.66 1.39 2.25c1.43.85 2.93 1.61 4.38 2.43 1.12.63 2.25 1.25 3.3 1.95 1.34.91 2.17 2 1.92 3.3s-1.47 1.77-2.95 2a17.32 17.32 0 0 1-5.68-.35zM284.11 149a19.44 19.44 0 0 1-5.59-1.44 6.16 6.16 0 0 1-2.54-1.87 2.13 2.13 0 0 1-.42-2.2c.32-.55 1.35 0 2 0s1.4.22 2.09.3c.89.09 1.45.3 1.35 1.15-.13 1.1 1 1.45 2 1.68 1.3.31 2.77.7 3.59-.24.55-.65-.11-1.34-.83-1.91a28.64 28.64 0 0 0-4.33-2.48 23.08 23.08 0 0 1-4.41-2.68c-2.19-1.87-2-4.17.58-4.69a20.39 20.39 0 0 1 12.87 2 3.93 3.93 0 0 1 1.61 1.48c1 1.55.51 2.07-1.48 1.78-.7-.11-1.4-.25-2.09-.33-.9-.09-1.49-.23-1.63-1.19-.18-1.22-1.6-1.36-2.69-1.55s-2.3-.4-2.69.56.51 1.67 1.5 2.22c1.38.81 2.82 1.55 4.22 2.33 1.12.64 2.25 1.25 3.31 1.95 1.41.94 2.29 2.06 2 3.43s-1.54 1.72-3 1.92a17 17 0 0 1-5.42-.22zm-157.17-31.86v-5.94c0-.78.26-1 1.26-.82 4.67.61 4.67.59 4.67 4.26v7.42c0 .8.27 1.06 1.27 1.19 2.33.31 4.67.75 7 1 1.13.15 1.17.58 1.18 1.26s-.08 1.07-1.19.89c-4.3-.72-8.59-1.38-12.89-2-1-.16-1.31-.43-1.28-1.21v-6.09zm110.78 17.41v5.94c0 .8-.3.94-1.28.81-4.65-.61-4.65-.58-4.66-4.13v-9.51c0-.93.32-1.09 1.47-.92 4.46.7 4.46.64 4.46 4.1z" transform="translate(-.98 -.52)" style="fill:#fefcfc"/><path class="ef68bdb6-bb3c-441f-a1e7-0d4b01f2cb1e" d="m160.15 118.54 2.48 6.71-5.36-.84c.86-2 1.68-4 2.5-6z" transform="translate(-.98 -.52)"/></g></svg>