<svg id="e4932aac-efdc-434e-97e3-18fafbe70615" data-name="f458f0a2-3cb7-4014-ad1f-9ecf4045566c" xmlns="http://www.w3.org/2000/svg" viewBox="0 0 171.82 148.88"><defs><style>.a52b02bd-cc77-474d-9ce0-5a1403821f74{fill:#757474;}</style></defs><path class="a52b02bd-cc77-474d-9ce0-5a1403821f74" d="M0,0C6.19.19,12.4.16,18.57.62A73.5,73.5,0,0,1,85.51,61a16.54,16.54,0,0,0,.83,2C88.65,49,94,37.13,102.65,27,117.36,9.66,136.22.89,158.92.29c3.36-.09,6.74.08,10.1,0,2-.08,2.56.67,2.52,2.59-.11,5.1-.14,10.21,0,15.31.06,2.19-.72,2.73-2.79,2.69-6.23-.15-12.44-.12-18.59,1.37a53.74,53.74,0,0,0-40.8,58.18c2.82,26.49,25.52,47,52.48,47.51,3.08.06,7.14-1.36,9,.59s.48,6.15.64,9.35c.12,2.61.11,5.22.16,7.83.13,2.29-1,2.75-3.19,2.8a130.48,130.48,0,0,1-30.78-2.92,8,8,0,0,0-1.49-.95c-27.55-10-43.89-29.62-49.91-58.09-.7.14-.71.81-.81,1.4-2,12.43-7.39,23.34-15.23,33.09-9.62,12-22.11,19.7-36.53,24.55l-17,3.34c-5.55-1-11.12-.53-16.68-.23V127.74c3.47,0,6.94.17,10.41.11A53.56,53.56,0,0,0,44.36,33.49c-12.87-11-28-13.85-44.34-12.57Z" transform="translate(0 0)"/><g id="b98f86dd-9377-40fc-a609-eedbebc45140" data-name="Calque 2"><g id="b1864ef8-3405-44bf-b83e-1b296c0e1fd7" data-name="Calque 3"><path class="a52b02bd-cc77-474d-9ce0-5a1403821f74" d="M121.08,71.16c7.84-.19,15.68-.07,23.53-.07s15.69-.19,23.52.08c2.92.08,3.42-.86,3.42-3.55-.15-10.31-.06-20.62-.06-30.93,0-8.49,0-8.49-8.54-8.33-22.38.39-41.79,17.66-44.6,39.58C118.08,70.25,118.39,71.22,121.08,71.16Z" transform="translate(0 0)"/><path class="a52b02bd-cc77-474d-9ce0-5a1403821f74" d="M171.58,80.19c0-2.17-.68-2.68-2.76-2.68-8,.11-15.9,0-23.9,0h-19.4c-8.16,0-8.16,0-6.08,8,5.82,22.42,26.35,36.66,50.05,34.85,2-.15,2.09-1,2.09-2.56C171.52,105.29,171.48,92.74,171.58,80.19Z" transform="translate(0 0)"/><path class="a52b02bd-cc77-474d-9ce0-5a1403821f74" d="M2.26,28.27C-.3,28.46.44,30.14.44,31.46v42.9L.42,112c0,8.42,0,8.42,8.64,8.3,32-.46,53.9-33.09,42.12-62.79C44.26,40.12,27.18,26.41,2.26,28.27Z" transform="translate(0 0)"/></g></g></svg>