<svg xmlns="http://www.w3.org/2000/svg" xmlns:xlink="http://www.w3.org/1999/xlink" viewBox="0 0 470.58 67.66"><defs><style>.bca4894d-3a66-4705-887f-571f322cf9b0{stroke:#9def48;stroke-miterlimit:10;fill:url(#bb71833f-bf6e-4c32-ba27-e7f9a8cc5cda);}.bad68277-651f-4fbf-ab99-bd2fbe42eed6{fill:#9def48;}.b8031b8e-c287-4e2a-802f-8dc71ae68c05{fill:#f91b20;}</style><linearGradient id="bb71833f-bf6e-4c32-ba27-e7f9a8cc5cda" x1="0.5" y1="33.83" x2="470.08" y2="33.83" gradientUnits="userSpaceOnUse"><stop offset="0" stop-color="#032c02"/><stop offset="1" stop-color="#207a09"/></linearGradient></defs><g id="f25e8131-b59c-4f76-be2c-1d3e09df0e6f" data-name="calque3"><polygon class="bca4894d-3a66-4705-887f-571f322cf9b0" points="0.5 6.04 102.57 6.04 108.7 0.5 150.44 0.5 158.35 6.04 461.77 6.24 470.08 16.13 470.08 59.84 50.94 59.84 42.83 67.16 8.02 67.16 0.5 59.84 0.5 6.04"/><path class="bad68277-651f-4fbf-ab99-bd2fbe42eed6" d="M81.5,37.61h4.38a17.11,17.11,0,0,1-3.67,7.3H58.06a18.18,18.18,0,0,1-4.22-12.26A18.17,18.17,0,0,1,58.06,20.4H82.21a17.11,17.11,0,0,1,3.67,7.3H81.5A17.47,17.47,0,0,0,80,24.47H60.24a16.32,16.32,0,0,0-2.34,8.18,16.38,16.38,0,0,0,2.34,8.19H80A18.09,18.09,0,0,0,81.5,37.61Z"/><path class="bad68277-651f-4fbf-ab99-bd2fbe42eed6" d="M94.22,40.84h18.42L115,44.91H90.15v-21l4.07-4.07Z"/><path class="bad68277-651f-4fbf-ab99-bd2fbe42eed6" d="M126.91,38.09l-4.29,6.82h-5.07L133.12,20.4h4.68l15.45,24.51h-5L144,38.09ZM141.47,34l-6-9.59-6,9.59Z"/><path class="bad68277-651f-4fbf-ab99-bd2fbe42eed6" d="M184.85,30.62l1.84,2a18.14,18.14,0,0,1-4.22,12.26H158.32a17.11,17.11,0,0,1-3.67-7.3H159a19.83,19.83,0,0,0,1.49,3.23H180.3a17.3,17.3,0,0,0,2.19-6.17H156l-1.85-2a18.22,18.22,0,0,1,4.22-12.25h24.15a17.13,17.13,0,0,1,3.68,7.3h-4.38a17.47,17.47,0,0,0-1.47-3.23H160.51a17.3,17.3,0,0,0-2.2,6.15Z"/><path class="bad68277-651f-4fbf-ab99-bd2fbe42eed6" d="M220.86,30.62l1.84,2a18.19,18.19,0,0,1-4.22,12.26H194.33a17.11,17.11,0,0,1-3.67-7.3H195a19,19,0,0,0,1.49,3.23h19.79a17.3,17.3,0,0,0,2.19-6.17H192l-1.85-2a18.22,18.22,0,0,1,4.22-12.25h24.15a17.11,17.11,0,0,1,3.67,7.3h-4.37a18.89,18.89,0,0,0-1.47-3.23H196.52a17.52,17.52,0,0,0-2.21,6.15Z"/><path class="bad68277-651f-4fbf-ab99-bd2fbe42eed6" d="M231.9,44.91h-4.07v-21l4.07-4.07Z"/><path class="bad68277-651f-4fbf-ab99-bd2fbe42eed6" d="M264.69,37.61h4.38a17.13,17.13,0,0,1-3.68,7.3H241.24A18.23,18.23,0,0,1,237,32.65a18.22,18.22,0,0,1,4.22-12.25h24.15a17.13,17.13,0,0,1,3.68,7.3h-4.38a17.47,17.47,0,0,0-1.47-3.23H243.43a16.32,16.32,0,0,0-2.34,8.18,16.38,16.38,0,0,0,2.34,8.19h19.79A18.09,18.09,0,0,0,264.69,37.61Z"/><path class="bad68277-651f-4fbf-ab99-bd2fbe42eed6" d="M303.23,30.62l1.84,2a18.14,18.14,0,0,1-4.22,12.26H276.7a17.11,17.11,0,0,1-3.67-7.3h4.38a19,19,0,0,0,1.48,3.23h19.79a17.11,17.11,0,0,0,2.19-6.17H274.33l-1.85-2A18.22,18.22,0,0,1,276.7,20.4h24.15a17.13,17.13,0,0,1,3.68,7.3h-4.38a17.47,17.47,0,0,0-1.47-3.23H278.89a17.3,17.3,0,0,0-2.2,6.15Z"/></g><g id="f8d4164e-78cf-4d33-9f48-8d88f6024d90" data-name="data east"><path class="b8031b8e-c287-4e2a-802f-8dc71ae68c05" d="M26.73,15.21V7.86h1.8v2.46H34v2.43h-5.5v2.46Z"/><path class="b8031b8e-c287-4e2a-802f-8dc71ae68c05" d="M31.61,23l-.13-2.31a1.48,1.48,0,0,0,.79-.31,1.31,1.31,0,0,0,.44-1.07,1.23,1.23,0,0,0-.22-.8.67.67,0,0,0-.53-.29.66.66,0,0,0-.51.27A3.44,3.44,0,0,0,31,19.74,5.55,5.55,0,0,1,30.15,22a1.73,1.73,0,0,1-1.41.69,1.84,1.84,0,0,1-1.06-.35,2.37,2.37,0,0,1-.79-1.06,5.29,5.29,0,0,1-.28-1.93,4.15,4.15,0,0,1,.52-2.29,2.17,2.17,0,0,1,1.65-.94l.12,2.28a1.14,1.14,0,0,0-.71.38,1.32,1.32,0,0,0-.23.81,1,1,0,0,0,.17.64.47.47,0,0,0,.4.22.41.41,0,0,0,.32-.18,2.42,2.42,0,0,0,.27-.82,10.61,10.61,0,0,1,.64-2.27,2.38,2.38,0,0,1,.81-1,1.93,1.93,0,0,1,1.08-.32,2.16,2.16,0,0,1,1.29.42,2.53,2.53,0,0,1,.9,1.17,4.91,4.91,0,0,1,.31,1.89,4.08,4.08,0,0,1-.72,2.77,2.72,2.72,0,0,1-1.82.88Z"/><path class="b8031b8e-c287-4e2a-802f-8dc71ae68c05" d="M32.82,26.26V29l1.21.39v2.47l-7.3-2.93V26.27L34,23.33v2.53l-1.21.4m-1.58.51-2.62.85,2.62.86Z"/><path class="b8031b8e-c287-4e2a-802f-8dc71ae68c05" d="M26.73,39v-6.5h1.55v4.08h1.17V32.78h1.49v3.78h1.43V32.37H34V39Z"/><path class="b8031b8e-c287-4e2a-802f-8dc71ae68c05" d="M22.61,11.2v2.74l1.21.4v2.47l-7.3-2.94V11.22l7.3-2.94v2.53l-1.21.39M21,11.72l-2.62.85,2.62.86Z"/><path class="b8031b8e-c287-4e2a-802f-8dc71ae68c05" d="M16.52,23.72V16.37h1.8v2.47h5.5v2.42h-5.5v2.46Z"/><path class="b8031b8e-c287-4e2a-802f-8dc71ae68c05" d="M22.61,26.12v2.74l1.21.39v2.47l-7.3-2.93V26.13l7.3-2.94v2.53l-1.21.4M21,26.63l-2.62.85,2.62.86Z"/><path class="b8031b8e-c287-4e2a-802f-8dc71ae68c05" d="M16.52,38.94V35.35a4.59,4.59,0,0,1,.27-1.72,2.81,2.81,0,0,1,.77-1.08,3.21,3.21,0,0,1,1.17-.62,5.45,5.45,0,0,1,1.41-.19A4.63,4.63,0,0,1,22,32a3,3,0,0,1,1.08.79,2.58,2.58,0,0,1,.58,1.09,6.13,6.13,0,0,1,.2,1.44v3.59h-7.3m1.66-2.43h4v-.58A2.48,2.48,0,0,0,22,34.86a1,1,0,0,0-.54-.5,3.25,3.25,0,0,0-1.27-.18,2.31,2.31,0,0,0-1.58.4,1.75,1.75,0,0,0-.43,1.34Z"/><path class="b8031b8e-c287-4e2a-802f-8dc71ae68c05" d="M15.9,63v1.52h2.59V63.44a6.8,6.8,0,0,1,13.59,0v1.14h2.59V63h0A9.39,9.39,0,0,0,15.9,63Z"/><path class="b8031b8e-c287-4e2a-802f-8dc71ae68c05" d="M25.29,57.76a5.85,5.85,0,0,0-5.85,5.84v.95H31.13v-1a5.85,5.85,0,0,0-5.84-5.82Z"/><path class="b8031b8e-c287-4e2a-802f-8dc71ae68c05" d="M25.69,49.69a5.85,5.85,0,0,0,5.44-5.8v-1H25.69v6.77Z"/><path class="b8031b8e-c287-4e2a-802f-8dc71ae68c05" d="M24.88,42.92H19.44v.95a5.84,5.84,0,0,0,5.44,5.82V42.92Z"/><path class="b8031b8e-c287-4e2a-802f-8dc71ae68c05" d="M15.9,44.44V42.92h2.59V44a6.8,6.8,0,0,0,13.59,0V42.92h2.59v1.56h0a9.39,9.39,0,0,1-18.77,0Z"/></g></svg>