<svg xmlns="http://www.w3.org/2000/svg" xmlns:xlink="http://www.w3.org/1999/xlink" viewBox="0 0 470.33 67.41"><defs><style>.f12f194b-75b8-4848-94d4-7d1db4267a43{stroke:#9def48;stroke-miterlimit:10;stroke-width:0.75px;fill:url(#b0d91d8d-e139-48fa-b8a9-05d787eb0eea);}.b0a4079f-67f9-41b7-adc2-2a5b1120240e{fill:#9def48;}.a60ca482-2830-4b0c-8229-6e5b9b8a8c15{fill:#02559c;}.a06c91a3-6886-4ff0-abb2-7efa70c71496{fill:#fff;}.abf37a80-e44e-465d-ab4e-222b9196693f{fill:#ca2825;}.b33ba8ab-5b64-44a7-b440-e265a3f2ef44{fill:#fdc601;}.a36c2e0e-f2c7-45cc-b365-e075052690fb{fill:#009c37;}</style><linearGradient id="b0d91d8d-e139-48fa-b8a9-05d787eb0eea" x1="0.38" y1="33.7" x2="469.96" y2="33.7" gradientUnits="userSpaceOnUse"><stop offset="0" stop-color="#032c02"/><stop offset="1" stop-color="#207a09"/></linearGradient></defs><g id="b172945a-263c-4a91-8337-772eba4a2eed" data-name="texte"><polygon class="f12f194b-75b8-4848-94d4-7d1db4267a43" points="0.38 5.91 102.44 5.91 108.57 0.38 150.31 0.38 158.22 5.91 461.65 6.11 469.96 16 469.96 59.72 50.81 59.72 42.7 67.03 7.89 67.03 0.38 59.72 0.38 5.91"/><path class="b0a4079f-67f9-41b7-adc2-2a5b1120240e" d="M53.68,30.86H74.16a13.62,13.62,0,0,0-1.7-4.75H57.19a14.24,14.24,0,0,0-1.14,2.5H52.68A13.23,13.23,0,0,1,55.51,23H74.14a14,14,0,0,1,3.26,9.45L76,34H55.5a13.06,13.06,0,0,0,1.69,4.76H72.46a14.56,14.56,0,0,0,1.14-2.49H77a13.19,13.19,0,0,1-2.84,5.63H55.51a14,14,0,0,1-3.25-9.45Z" transform="translate(-0.06 -0.03)"/><path class="b0a4079f-67f9-41b7-adc2-2a5b1120240e" d="M101.34,41.88l-9.1-7.38-9.09,7.38H78.06L89.7,32.43,78.06,23h5.09l9.09,7.38,9.1-7.38h5.09L94.79,32.43l11.64,9.45Z" transform="translate(-0.06 -0.03)"/><path class="b0a4079f-67f9-41b7-adc2-2a5b1120240e" d="M128.92,30.86V34h-12.6V30.86Z" transform="translate(-0.06 -0.03)"/><path class="b0a4079f-67f9-41b7-adc2-2a5b1120240e" d="M142.66,41.88a13.53,13.53,0,0,1-3.19-7.9l1.36-.76V31.64l-1.36-.77A13.48,13.48,0,0,1,142.66,23h18.63a13.61,13.61,0,0,1,3.19,7.89l-1.36.77v1.58l1.36.76a13.66,13.66,0,0,1-3.19,7.9Zm18.64-11a13.6,13.6,0,0,0-1.69-4.75H144.33a13.8,13.8,0,0,0-1.69,4.75Zm-1.69,7.88A13.57,13.57,0,0,0,161.3,34H142.64a13.78,13.78,0,0,0,1.69,4.76Z" transform="translate(-0.06 -0.03)"/><path class="b0a4079f-67f9-41b7-adc2-2a5b1120240e" d="M170.61,26.11h-3.5V23h6.63V39.21l-3.13,3.13Z" transform="translate(-0.06 -0.03)"/></g><g id="af1a72ba-d6b1-405e-9ca7-bb57b8af4cd1" data-name="sinclair"><g id="ead62075-4bfd-4977-aea8-75815db8049f" data-name="b5f8fe0c-c369-458b-998a-2e19b416fe64"><path class="a60ca482-2830-4b0c-8229-6e5b9b8a8c15" d="M22.39,11.43l6,6V14l-6-6" transform="translate(-0.06 -0.03)"/><path class="a06c91a3-6886-4ff0-abb2-7efa70c71496" d="M27.42,64.7h-.78v-6h-.88v6H23.37V57.87h.78v6.06H25v-6.1h2.43Zm0-7.39h-4V56.5h4Zm0-1.27h-4V49.17h4V50H24.16v5.23h3.26Zm0-7.33h-4V41.84h.77V47.9h2.48V41.84h.78V48.7Zm0-7.44H22.18v-.83h5.24Zm0-8.66h-4V31.8h4Zm0-1.33h-4V24.42h.77v6.06h3.26v.82Zm-4,8.72h.77V34H25V40h2.37V33.13h-4Zm3.25-6.06v5.23h-.88V34ZM23,57.33h-.77V56.5H23Zm0-24.7h-.77V31.8H23Z" transform="translate(-0.06 -0.03)"/><path class="abf37a80-e44e-465d-ab4e-222b9196693f" d="M22.39,21.7l6,6V24.32l-6-6" transform="translate(-0.06 -0.03)"/><path class="b33ba8ab-5b64-44a7-b440-e265a3f2ef44" d="M22.39,18.29l6,6V20.88l-6-6" transform="translate(-0.06 -0.03)"/><path class="a36c2e0e-f2c7-45cc-b365-e075052690fb" d="M22.39,14.86l6,6V17.45l-6-6" transform="translate(-0.06 -0.03)"/></g></g></svg>