<svg id="e233d0b2-5965-4af4-aaaa-cfe2a054480f" data-name="texte" xmlns="http://www.w3.org/2000/svg" xmlns:xlink="http://www.w3.org/1999/xlink" viewBox="0 0 470.33 67.41"><defs><style>.abe679ce-5eb0-4fd1-8f0d-203387eb0ba7{stroke:#9def48;stroke-miterlimit:10;stroke-width:0.75px;fill:url(#a795d428-44e3-4637-b7af-8d92a0b91fc2);}.b99d0dc2-403f-45bf-9d4a-68453cdb9804{fill:#9def48;}</style><linearGradient id="a795d428-44e3-4637-b7af-8d92a0b91fc2" x1="0.38" y1="33.7" x2="469.96" y2="33.7" gradientUnits="userSpaceOnUse"><stop offset="0" stop-color="#032c02"/><stop offset="1" stop-color="#207a09"/></linearGradient></defs><polygon class="abe679ce-5eb0-4fd1-8f0d-203387eb0ba7" points="0.38 5.91 102.44 5.91 108.57 0.38 150.31 0.38 158.22 5.91 461.65 6.11 469.96 16 469.96 59.72 50.81 59.72 42.7 67.03 7.89 67.03 0.38 59.72 0.38 5.91"/><path class="b99d0dc2-403f-45bf-9d4a-68453cdb9804" d="M86.45,20.84l-15,23.8H66.88L51.77,20.84H56.7L69.2,40.71,81.59,20.84Z" transform="translate(-0.06 -0.03)"/><path class="b99d0dc2-403f-45bf-9d4a-68453cdb9804" d="M109,34.7H92.53a16.85,16.85,0,0,0,2.14,6h19.56l2.27,4h-24a17.14,17.14,0,0,1-4-9.94H84.79V30.76h3.74a17.05,17.05,0,0,1,4-9.92h24l-2.27,3.95H94.67a16.69,16.69,0,0,0-2.14,6H109Z" transform="translate(-0.06 -0.03)"/><path class="b99d0dc2-403f-45bf-9d4a-68453cdb9804" d="M145,37.55h4.25a16.6,16.6,0,0,1-3.57,7.09H122.26a17.69,17.69,0,0,1-4.1-11.9,17.67,17.67,0,0,1,4.1-11.9h23.46a16.57,16.57,0,0,1,3.57,7.08H145a17.78,17.78,0,0,0-1.43-3.13H124.39a15.8,15.8,0,0,0-2.28,8,15.89,15.89,0,0,0,2.28,7.95h19.22A18.55,18.55,0,0,0,145,37.55Z" transform="translate(-0.06 -0.03)"/><path class="b99d0dc2-403f-45bf-9d4a-68453cdb9804" d="M168.65,41.27l-4,3.95V24.79H151.78V20.84h29.78v3.95H168.65Z" transform="translate(-0.06 -0.03)"/><path class="b99d0dc2-403f-45bf-9d4a-68453cdb9804" d="M208.44,40.69h2.64a17,17,0,0,0,2.12-6H189.71a17,17,0,0,0,2.14,6h2.63v4h-4.75a17.09,17.09,0,0,1-4-9.94H182V30.76h3.73a17,17,0,0,1,4-9.92h23.46a17.06,17.06,0,0,1,4,9.94l-1.71,1v2l1.71,1a17.14,17.14,0,0,1-4,9.94h-4.75Zm-18.73-9.93H213.2a16.83,16.83,0,0,0-2.12-6H191.85A16.89,16.89,0,0,0,189.71,30.76Z" transform="translate(-0.06 -0.03)"/><path class="b99d0dc2-403f-45bf-9d4a-68453cdb9804" d="M244.7,34.7H228.26a17,17,0,0,0,2.14,6H250l2.27,4H228.28a17.09,17.09,0,0,1-4-9.94h-3.73V30.76h3.73a17,17,0,0,1,4-9.92h23.95L250,24.79H230.4a16.89,16.89,0,0,0-2.14,6H244.7Z" transform="translate(-0.06 -0.03)"/><path class="b99d0dc2-403f-45bf-9d4a-68453cdb9804" d="M284,44.64l-11.45-9.29-11.46,9.29h-6.41l14.66-11.9-14.66-11.9h6.41l11.46,9.29L284,20.84h6.41l-14.66,11.9,14.66,11.9Z" transform="translate(-0.06 -0.03)"/></svg>