<svg xmlns="http://www.w3.org/2000/svg" xmlns:xlink="http://www.w3.org/1999/xlink" viewBox="0 0 470.33 67.41"><defs><style>.b410131b-1f5d-4ce6-8eeb-5870499679e8{stroke:#9def48;stroke-miterlimit:10;stroke-width:0.75px;fill:url(#f2ac581a-0219-485c-a9a9-acd19254bf44);}.b0394880-8275-4615-8569-f0aa9c5f4286{fill:#9def48;}.b16df4b8-cb06-42b9-a8b8-4984d95d489d{fill:#fff;}</style><linearGradient id="f2ac581a-0219-485c-a9a9-acd19254bf44" x1="0.38" y1="33.7" x2="469.96" y2="33.7" gradientUnits="userSpaceOnUse"><stop offset="0" stop-color="#032c02"/><stop offset="1" stop-color="#207a09"/></linearGradient></defs><g id="e1112663-8c0e-4eb2-a189-b06313fcb1b1" data-name="texte"><polygon class="b410131b-1f5d-4ce6-8eeb-5870499679e8" points="0.38 5.91 102.44 5.91 108.57 0.38 150.31 0.38 158.22 5.91 461.65 6.11 469.96 16 469.96 59.72 50.81 59.72 42.7 67.03 7.89 67.03 0.38 59.72 0.38 5.91"/><path class="b0394880-8275-4615-8569-f0aa9c5f4286" d="M85.28,34.64H59.5a17,17,0,0,0,2.14,6h2.62v3.95H59.52a17.09,17.09,0,0,1-4-9.94H51.76V30.7H55.5a17,17,0,0,1,4-9.92H83a17.59,17.59,0,0,1,4.1,11.9ZM59.5,30.7H83a17.23,17.23,0,0,0-2.12-6H61.64A16.89,16.89,0,0,0,59.5,30.7Z" transform="translate(-0.06 -0.03)"/><path class="b0394880-8275-4615-8569-f0aa9c5f4286" d="M95.09,40.63H113l2.27,3.95H91.14V24.15l4-3.95Z" transform="translate(-0.06 -0.03)"/><path class="b0394880-8275-4615-8569-f0aa9c5f4286" d="M126.85,38l-4.17,6.62h-4.93l15.13-23.8h4.55l15,23.8h-4.86L143.45,38ZM141,34l-5.81-9.31L129.33,34Z" transform="translate(-0.06 -0.03)"/><path class="b0394880-8275-4615-8569-f0aa9c5f4286" d="M155.06,34.64l-1.8-2a17.65,17.65,0,0,1,4.11-11.9h4.74v3.95h-2.62a16.89,16.89,0,0,0-2.14,6h23.49a17.06,17.06,0,0,0-2.13-6h-2.63V20.78h4.74a17.64,17.64,0,0,1,4.1,11.9,17.59,17.59,0,0,1-4.1,11.9H157.37a16.57,16.57,0,0,1-3.57-7.08h4.25a17.84,17.84,0,0,0,1.44,3.13h19.22a16.69,16.69,0,0,0,2.13-6Z" transform="translate(-0.06 -0.03)"/><path class="b0394880-8275-4615-8569-f0aa9c5f4286" d="M218.11,30.7l1.79,2a17.59,17.59,0,0,1-4.1,11.9H192.34a16.66,16.66,0,0,1-3.56-7.08H193a17.84,17.84,0,0,0,1.44,3.13h19.22a16.69,16.69,0,0,0,2.13-6H190l-1.8-2a17.69,17.69,0,0,1,4.1-11.9H215.8a16.55,16.55,0,0,1,3.57,7.09h-4.25a16.87,16.87,0,0,0-1.43-3.14H194.47a16.89,16.89,0,0,0-2.14,6Z" transform="translate(-0.06 -0.03)"/><path class="b0394880-8275-4615-8569-f0aa9c5f4286" d="M239.26,41.21l-3.95,4V24.73H222.39V20.78h29.79v3.95H239.26Z" transform="translate(-0.06 -0.03)"/><path class="b0394880-8275-4615-8569-f0aa9c5f4286" d="M256.29,38l-4.16,6.62H247.2l15.12-23.8h4.55l15,23.8H277L272.9,38ZM270.44,34l-5.81-9.31L258.77,34Z" transform="translate(-0.06 -0.03)"/><path class="b0394880-8275-4615-8569-f0aa9c5f4286" d="M293.76,41.21l-3.95,4V24.73H276.9V20.78h29.78v3.95H293.76Z" transform="translate(-0.06 -0.03)"/><path class="b0394880-8275-4615-8569-f0aa9c5f4286" d="M315.61,44.58h-3.95V24.15l3.95-3.95Z" transform="translate(-0.06 -0.03)"/><path class="b0394880-8275-4615-8569-f0aa9c5f4286" d="M348.15,44.58H324.69a17.67,17.67,0,0,1-4.1-11.9,17.64,17.64,0,0,1,4.1-11.9h23.46a17.64,17.64,0,0,1,4.1,11.9A17.67,17.67,0,0,1,348.15,44.58ZM346,40.63a15.93,15.93,0,0,0,2.26-8A15.87,15.87,0,0,0,346,24.73H326.82a15.8,15.8,0,0,0-2.28,8,15.86,15.86,0,0,0,2.28,8Z" transform="translate(-0.06 -0.03)"/><path class="b0394880-8275-4615-8569-f0aa9c5f4286" d="M361.8,24.73a15.8,15.8,0,0,0-2.28,8,15.86,15.86,0,0,0,2.28,8h2.62v3.95h-4.75a17.67,17.67,0,0,1-4.1-11.9,17.64,17.64,0,0,1,4.1-11.9h23.46a17.64,17.64,0,0,1,4.1,11.9,17.67,17.67,0,0,1-4.1,11.9h-4.75V40.63H381a15.93,15.93,0,0,0,2.26-8A15.87,15.87,0,0,0,381,24.73Z" transform="translate(-0.06 -0.03)"/><path class="b0394880-8275-4615-8569-f0aa9c5f4286" d="M402.3,30.7h25.79a17.08,17.08,0,0,0-2.14-6H406.72a17.54,17.54,0,0,0-1.43,3.14H401a16.55,16.55,0,0,1,3.57-7.09h23.46a17.69,17.69,0,0,1,4.1,11.9l-1.79,2H404.6a16.48,16.48,0,0,0,2.12,6h23.91v3.95h-26a17.64,17.64,0,0,1-4.1-11.9Z" transform="translate(-0.06 -0.03)"/></g><g id="ac0a78d0-c5f1-4a9f-9cda-f8cb6fd7cbda" data-name="sony"><g id="ae830de5-92d2-4f44-b048-fd9c7a676bf6" data-name="g2357"><g id="b1a9ba66-c073-4815-b070-f06f30e6ba3b" data-name="g2365"><g id="ec4b658a-020a-4d68-949c-df83b71e1b8e" data-name="g2373"><g id="a1d43dfa-9368-4bc7-83e3-38a0f620242e" data-name="g2381"><path id="bc2671f0-586e-4c57-9d32-65b0eb35bfa6" data-name="path2427" class="b16df4b8-cb06-42b9-a8b8-4984d95d489d" d="M23.57,44.58a7.91,7.91,0,0,1-1.75,5.22,4.3,4.3,0,0,1-3.24,1.42,4.34,4.34,0,0,1-3.21-1.42,8.22,8.22,0,0,1-1.75-5.22,7.46,7.46,0,0,1,1.75-5.23A4.25,4.25,0,0,1,18.58,38a4.51,4.51,0,0,1,3.24,1.4,7.81,7.81,0,0,1,1.75,5.23H22.26a3.93,3.93,0,0,0-1.08-2.8,3.47,3.47,0,0,0-2.6-1,3.65,3.65,0,0,0-2.6,1,4.07,4.07,0,0,0-1.07,2.8A4,4,0,0,0,16,47.38a3.81,3.81,0,0,0,5.21,0,4,4,0,0,0,1.07-2.8" transform="translate(-0.06 -0.03)"/><path id="a3fae904-7004-4f1c-95b5-e83aace472af" data-name="path2429" class="b16df4b8-cb06-42b9-a8b8-4984d95d489d" d="M13.62,59.54a8.44,8.44,0,0,0,.69,3.4,2.54,2.54,0,0,0,2.3,1.78,2.39,2.39,0,0,0,1.65-.66,3.51,3.51,0,0,0,1-1.93c.11-.54.29-1.67.41-2.81s.23-2.25.35-2.7.22-1,.89-1a1,1,0,0,1,.93.75,5.61,5.61,0,0,1,.4,2.25,9.48,9.48,0,0,1-.47,2.68,3.17,3.17,0,0,1-1,1.55,1.78,1.78,0,0,1-1,.32v1.24H23.2V63.06h-.47a.19.19,0,0,1-.16-.3,11,11,0,0,0,.64-2,8.69,8.69,0,0,0,.27-2.09,9.06,9.06,0,0,0-.4-2.81,4.93,4.93,0,0,0-.82-1.68,2.31,2.31,0,0,0-1.84-.89,2.59,2.59,0,0,0-1.8.72,3.17,3.17,0,0,0-.6.89A5.35,5.35,0,0,0,17.64,56a27.66,27.66,0,0,0-.48,3.09,21.29,21.29,0,0,1-.37,2.76.67.67,0,0,1-.62.52.84.84,0,0,1-.72-.47,5.28,5.28,0,0,1-.51-2.54,7.37,7.37,0,0,1,.58-3,3.36,3.36,0,0,1,.41-.7A2.19,2.19,0,0,1,17.09,55V53.9h-3v1.24h.35c.12,0,.26.12.14.34a9.59,9.59,0,0,0-.93,4.06" transform="translate(-0.06 -0.03)"/><path id="a5f5336f-d5f0-4836-9e73-adc7ab9e0000" data-name="path2431" class="b16df4b8-cb06-42b9-a8b8-4984d95d489d" d="M14.18,32.25l5.48-6.08L16,26.23c-.48,0-.69.09-.69.61V28h-1.1V22.8h1.1v1.11c0,.53.18.57.69.58l7-.1v1.78l-6.24,7h4.43c.48,0,.7,0,.7-.53V31.4H23v5.1H21.91V35.31c0-.45-.42-.43-.73-.43H16c-.33,0-.73,0-.73.75v1h-1.1" transform="translate(-0.06 -0.03)"/><path id="e8498b5f-6ffd-45df-a216-59097f5518ed" data-name="path2433" class="b16df4b8-cb06-42b9-a8b8-4984d95d489d" d="M21.91,16.86a1.56,1.56,0,0,0,0-.31.36.36,0,0,0-.21-.24l-.23,0H19.7c-.05,0-.06,0-.16.07l-3.77,3.33a1.28,1.28,0,0,0-.49.95v1.08h-1.1V15.63h1.1v.73c0,.18.16.29.34.14l2.48-2.07s0,0,0-.06-2.47-2.1-2.48-2.12a.22.22,0,0,0-.35.19v.75h-1.1v-5h1.1V9.31a.94.94,0,0,0,.42.87l3.83,3.36a.23.23,0,0,0,.17.05h1.75l.23,0a.36.36,0,0,0,.21-.24,2.85,2.85,0,0,0,0-.31V11.88H23v6H21.91" transform="translate(-0.06 -0.03)"/><polyline id="e3908114-0f2f-40bd-ba2a-09c4cf7f0d42" data-name="polyline2435" class="b16df4b8-cb06-42b9-a8b8-4984d95d489d" points="32.73 64.63 32.73 61.51 33.2 61.51 33.2 64.03 34.51 64.03 34.51 61.67 34.98 61.67 34.98 64.03 36.42 64.03 36.42 61.45 36.89 61.45 36.89 64.63"/><polyline id="fcc89b05-6d25-419c-ae34-722b4a89da03" data-name="polyline2437" class="b16df4b8-cb06-42b9-a8b8-4984d95d489d" points="32.73 57.2 32.73 56.6 36.89 56.6 36.89 57.42 33.33 59.97 33.33 59.98 36.89 59.98 36.89 60.58 32.73 60.58 32.73 59.77 36.28 57.21 36.28 57.2"/><polyline id="f43298d4-3f72-496d-951a-5c8fa6efedb3" data-name="polyline2439" class="b16df4b8-cb06-42b9-a8b8-4984d95d489d" points="33.23 54.36 33.23 56.13 32.73 56.13 32.73 51.99 33.23 51.99 33.23 53.77 36.89 53.77 36.89 54.36"/><polyline id="bd8eaff3-4022-4852-94a6-e084dd2048a2" data-name="polyline2441" class="b16df4b8-cb06-42b9-a8b8-4984d95d489d" points="32.73 51.48 32.73 48.36 33.2 48.36 33.2 50.88 34.51 50.88 34.51 48.52 34.98 48.52 34.98 50.88 36.42 50.88 36.42 48.3 36.89 48.3 36.89 51.48"/><path id="f6a00a36-69db-44a3-a0cb-d1f281f7385e" data-name="path2443" class="b16df4b8-cb06-42b9-a8b8-4984d95d489d" d="M37,46.93v.6H32.78V45.48c0-1.28.44-1.57,1.1-1.57a1,1,0,0,1,1,1h0c.07-.56.29-.71,1-.82A5.52,5.52,0,0,0,37,43.81v.63c-.29.11-.88.17-1.35.28-.29.07-.51.27-.51,1.05v1.16m-.47,0V45.56c0-.63-.15-1-.68-1s-.68.27-.68,1v1.37Z" transform="translate(-0.06 -0.03)"/><polyline id="f74d8bb5-7bf3-4ecd-a3b9-6bb5388eee13" data-name="polyline2445" class="b16df4b8-cb06-42b9-a8b8-4984d95d489d" points="33.23 41.75 33.23 43.52 32.73 43.52 32.73 39.39 33.23 39.39 33.23 41.16 36.89 41.16 36.89 41.75"/><path id="e5d2e676-0a8d-43a0-aa2e-d0a4f5ef6f91" data-name="path2447" class="b16df4b8-cb06-42b9-a8b8-4984d95d489d" d="M35.86,36.44V39l1.09.54v.67l-4.17-2.14v-.71L37,35.21v.69m-1.56.77-2.1,1,2.1,1Z" transform="translate(-0.06 -0.03)"/><rect id="e9b47592-54b3-439a-919d-4e49c47cf939" data-name="rect2449" class="b16df4b8-cb06-42b9-a8b8-4984d95d489d" x="32.72" y="34.14" width="4.17" height="0.6"/><polyline id="b91f5747-bcb4-4dc6-ba5d-82244b71e6f9" data-name="polyline2451" class="b16df4b8-cb06-42b9-a8b8-4984d95d489d" points="32.73 29.87 32.73 29.27 36.89 29.27 36.89 30.09 33.33 32.64 33.33 32.65 36.89 32.65 36.89 33.25 32.73 33.25 32.73 32.43 36.28 29.88 36.28 29.87"/><polyline id="fc8bd93a-6ecc-4d73-ac02-155dad4ce221" data-name="polyline2453" class="b16df4b8-cb06-42b9-a8b8-4984d95d489d" points="33.15 27.77 33.15 27.78 36.89 27.78 36.89 28.38 32.73 28.38 32.73 27.42 36.38 25.58 32.73 23.74 32.73 22.79 36.89 22.79 36.89 23.39 33.15 23.39 33.15 23.4 36.89 25.27 36.89 25.9"/><polyline id="b9a4d54a-58db-4a73-b5af-cc035b032c65" data-name="polyline2455" class="b16df4b8-cb06-42b9-a8b8-4984d95d489d" points="32.73 21.9 32.73 18.78 33.2 18.78 33.2 21.3 34.51 21.3 34.51 18.94 34.98 18.94 34.98 21.3 36.42 21.3 36.42 18.71 36.89 18.71 36.89 21.9"/><polyline id="bbc447f2-d0f7-4c31-9d87-f6ffae18a5df" data-name="polyline2457" class="b16df4b8-cb06-42b9-a8b8-4984d95d489d" points="32.73 14.54 32.73 13.94 36.89 13.94 36.89 14.76 33.33 17.31 33.33 17.32 36.89 17.32 36.89 17.92 32.73 17.92 32.73 17.1 36.28 14.55 36.28 14.54"/><polyline id="e14df309-f109-495a-86a6-58d18919668d" data-name="polyline2459" class="b16df4b8-cb06-42b9-a8b8-4984d95d489d" points="33.23 11.66 33.23 13.43 32.73 13.43 32.73 9.29 33.23 9.29 33.23 11.06 36.89 11.06 36.89 11.66"/><path id="a5d2e29a-e7be-4681-94fb-1dceb2eb4a4d" data-name="path2461" class="b16df4b8-cb06-42b9-a8b8-4984d95d489d" d="M29.57,58.59c1.38.2,1.91,1.5,1.91,3a3.09,3.09,0,0,1-3.29,3.27,3.18,3.18,0,0,1-3.29-3.52c0-1.48.74-2.61,1.8-2.69v1c-.8.15-1.1.89-1.1,1.75a2.34,2.34,0,0,0,2.59,2.5,2.33,2.33,0,0,0,2.58-2.5,1.7,1.7,0,0,0-1.2-1.84" transform="translate(-0.06 -0.03)"/><path id="fec47a07-0695-447c-ab99-ca7d922f3697" data-name="path2463" class="b16df4b8-cb06-42b9-a8b8-4984d95d489d" d="M24.9,54.33a3.3,3.3,0,1,1,6.58,0,3.3,3.3,0,1,1-6.58,0m5.87,0a2.44,2.44,0,0,0-2.58-2.56,2.56,2.56,0,1,0,0,5.12A2.45,2.45,0,0,0,30.77,54.33Z" transform="translate(-0.06 -0.03)"/><polyline id="b0430b59-42a4-4c42-a589-47e84d33927c" data-name="polyline2465" class="b16df4b8-cb06-42b9-a8b8-4984d95d489d" points="25.65 48.93 25.65 48.94 31.25 48.94 31.25 49.84 25 49.84 25 48.41 30.49 45.65 25 42.9 25 41.46 31.25 41.46 31.25 42.37 25.65 42.37 25.65 42.38 31.25 45.18 31.25 46.13"/><path id="af487418-0e01-4a11-a5e1-6fed7ea859fe" data-name="path2467" class="b16df4b8-cb06-42b9-a8b8-4984d95d489d" d="M25.06,40V37.16c0-1.88.57-2.52,1.7-2.52s1.81.73,1.81,2.24v2.26h2.74V40m-3.46-2.92c0-1-.36-1.51-1.09-1.51s-1,.39-1,1.57v2h2.08v-2Z" transform="translate(-0.06 -0.03)"/><path id="fc036a01-261b-4847-87ef-adc67f6790aa" data-name="path2469" class="b16df4b8-cb06-42b9-a8b8-4984d95d489d" d="M25.05,28.89V28h3.73c1.79,0,2.68,1.21,2.68,2.91s-.89,2.91-2.68,2.91H25.05v-.9h3.77a1.8,1.8,0,0,0,1.94-2,1.81,1.81,0,0,0-1.94-2" transform="translate(-0.06 -0.03)"/><polyline id="a4ade5f7-61df-49c5-9ccc-36698a1c24ec" data-name="polyline2471" class="b16df4b8-cb06-42b9-a8b8-4984d95d489d" points="25.77 24.73 25.77 27.38 25 27.38 25 21.18 25.77 21.18 25.77 23.83 31.25 23.83 31.25 24.73"/><polyline id="e3d71310-74dd-410e-be1c-22a428f3c608" data-name="polyline2473" class="b16df4b8-cb06-42b9-a8b8-4984d95d489d" points="25 20.59 25 15.91 25.72 15.91 25.72 19.69 27.68 19.69 27.68 16.16 28.4 16.16 28.4 19.69 30.54 19.69 30.54 15.81 31.25 15.81 31.25 20.59"/><path id="bb1000a6-acf0-4b0d-bfbf-b0fe470babd5" data-name="path2475" class="b16df4b8-cb06-42b9-a8b8-4984d95d489d" d="M31.31,14v.9H25.06V11.85c0-1.93.66-2.37,1.65-2.37a1.5,1.5,0,0,1,1.46,1.43h0c.1-.84.44-1.07,1.5-1.23a6.77,6.77,0,0,0,1.62-.36v1c-.44.17-1.32.26-2,.42-.46.11-.77.4-.77,1.58V14m-.72,0V12c0-1-.22-1.53-1-1.53s-1,.41-1,1.51V14Z" transform="translate(-0.06 -0.03)"/></g></g></g></g></g></svg>