<svg id="bf9de5be-ef3e-4401-8ffd-983f13215c29" data-name="texte" xmlns="http://www.w3.org/2000/svg" xmlns:xlink="http://www.w3.org/1999/xlink" viewBox="0 0 470.33 67.41"><defs><style>.f0721e30-178f-4fc6-9f5c-71f1767de2d2{stroke:#9def48;stroke-miterlimit:10;stroke-width:0.75px;fill:url(#b842cc0d-90c6-4490-81f7-5f3359a32e5b);}.ee01d91d-f010-49f2-8c8a-67c2759ef34e{fill:#9def48;}</style><linearGradient id="b842cc0d-90c6-4490-81f7-5f3359a32e5b" x1="0.38" y1="33.7" x2="469.96" y2="33.7" gradientUnits="userSpaceOnUse"><stop offset="0" stop-color="#032c02"/><stop offset="1" stop-color="#207a09"/></linearGradient></defs><polygon class="f0721e30-178f-4fc6-9f5c-71f1767de2d2" points="0.38 5.91 102.44 5.91 108.57 0.38 150.31 0.38 158.22 5.91 461.65 6.11 469.96 16 469.96 59.72 50.81 59.72 42.7 67.03 7.89 67.03 0.38 59.72 0.38 5.91"/><path class="ee01d91d-f010-49f2-8c8a-67c2759ef34e" d="M85.13,34.59H59.35a17.1,17.1,0,0,0,2.14,6h2.62v3.95H59.36a17.17,17.17,0,0,1-4-9.95H51.61V30.66h3.74a17.06,17.06,0,0,1,4-9.93H82.82a17.62,17.62,0,0,1,4.1,11.9ZM59.35,30.66H82.84a17.1,17.1,0,0,0-2.13-6H61.49A16.93,16.93,0,0,0,59.35,30.66Z" transform="translate(-0.06 -0.03)"/><path class="ee01d91d-f010-49f2-8c8a-67c2759ef34e" d="M93.45,37.91l-4.17,6.63H84.35L99.47,20.73H104l15,23.81h-4.86l-4.12-6.63ZM107.59,34l-5.81-9.31L95.92,34Z" transform="translate(-0.06 -0.03)"/><path class="ee01d91d-f010-49f2-8c8a-67c2759ef34e" d="M126.3,40.59h17.9l2.27,3.95H122.35V24.1l4-4Z" transform="translate(-0.06 -0.03)"/><path class="ee01d91d-f010-49f2-8c8a-67c2759ef34e" d="M161.16,24.68h-7.63a15.86,15.86,0,0,0-2.28,8,15.92,15.92,0,0,0,2.28,8h2.62v3.95H151.4a17.72,17.72,0,0,1-4.1-11.91,17.67,17.67,0,0,1,4.1-11.9h9.76V17h3.94v3.73h9.76a17.67,17.67,0,0,1,4.1,11.9,17.72,17.72,0,0,1-4.1,11.91h-4.75V40.59h2.64a16,16,0,0,0,2.26-8,15.93,15.93,0,0,0-2.26-8H165.1V38.79h-3.94Z" transform="translate(-0.06 -0.03)"/></svg>