<svg xmlns="http://www.w3.org/2000/svg" xmlns:xlink="http://www.w3.org/1999/xlink" viewBox="0 0 470.33 67.41"><defs><style>.abe78696-8157-4df0-a95c-77c557cc8324{stroke:#9def48;stroke-miterlimit:10;stroke-width:0.75px;fill:url(#bebab4dd-3974-463e-8aac-8f8dd867d47e);}.b5c19815-f1e2-47e3-b367-44bf7e440570{fill:#9def48;}.bd3c126e-4b53-4ff2-89db-3c29c043ba53{fill:#fff;}</style><linearGradient id="bebab4dd-3974-463e-8aac-8f8dd867d47e" x1="0.38" y1="33.7" x2="469.96" y2="33.7" gradientUnits="userSpaceOnUse"><stop offset="0" stop-color="#032c02"/><stop offset="1" stop-color="#207a09"/></linearGradient></defs><g id="bf4901b3-6e7a-481e-b135-8a5735666866" data-name="texte"><polygon class="abe78696-8157-4df0-a95c-77c557cc8324" points="0.38 5.91 102.44 5.91 108.57 0.38 150.31 0.38 158.22 5.91 461.65 6.11 469.96 16 469.96 59.72 50.81 59.72 42.7 67.03 7.89 67.03 0.38 59.72 0.38 5.91"/><path class="b5c19815-f1e2-47e3-b367-44bf7e440570" d="M81.68,31l1.79,2a17.64,17.64,0,0,1-4.1,11.9H55.91a16.55,16.55,0,0,1-3.57-7.09h4.25A19.13,19.13,0,0,0,58,41H77.26a16.48,16.48,0,0,0,2.12-6H53.6l-1.79-2a17.67,17.67,0,0,1,4.1-11.9H79.37a16.55,16.55,0,0,1,3.57,7.09H78.69a17.54,17.54,0,0,0-1.43-3.14H58a16.89,16.89,0,0,0-2.14,6Z" transform="translate(-0.06 -0.03)"/><path class="b5c19815-f1e2-47e3-b367-44bf7e440570" d="M93,41h19.23a16,16,0,0,0,2.26-8,16,16,0,0,0-2.26-7.95H109.6V21.11h4.75a17.67,17.67,0,0,1,4.1,11.9,17.64,17.64,0,0,1-4.1,11.9H90.89A17.64,17.64,0,0,1,86.79,33a17.67,17.67,0,0,1,4.1-11.9h4.75v3.95H93a15.94,15.94,0,0,0-2.27,8A15.89,15.89,0,0,0,93,41Z" transform="translate(-0.06 -0.03)"/><path class="b5c19815-f1e2-47e3-b367-44bf7e440570" d="M155.29,35H129.5a17.08,17.08,0,0,0,2.15,6h2.62v3.95h-4.75a17.15,17.15,0,0,1-4-9.94h-3.73V31h3.73a17.06,17.06,0,0,1,4-9.92H153a17.64,17.64,0,0,1,4.1,11.9ZM129.5,31H153a17.06,17.06,0,0,0-2.13-6H131.65A16.91,16.91,0,0,0,129.5,31Z" transform="translate(-0.06 -0.03)"/><path class="b5c19815-f1e2-47e3-b367-44bf7e440570" d="M184.49,35H168.05a17,17,0,0,0,2.14,6h19.56L192,44.91h-24a17.09,17.09,0,0,1-4-9.94h-3.73V31h3.73a17,17,0,0,1,4-9.92h24l-2.28,3.95H170.19a16.89,16.89,0,0,0-2.14,6h16.44Z" transform="translate(-0.06 -0.03)"/><path class="b5c19815-f1e2-47e3-b367-44bf7e440570" d="M217.66,41h2.64a17,17,0,0,0,2.12-6H198.93a17,17,0,0,0,2.14,6h2.63v3.95H199a17.09,17.09,0,0,1-4-9.94H191.2V31h3.73a17,17,0,0,1,4-9.92h23.46a17.09,17.09,0,0,1,4,9.94l-1.71,1v2l1.71,1a17.14,17.14,0,0,1-4,9.94h-4.75ZM198.93,31h23.49a16.83,16.83,0,0,0-2.12-6H201.07A16.89,16.89,0,0,0,198.93,31Z" transform="translate(-0.06 -0.03)"/><path class="b5c19815-f1e2-47e3-b367-44bf7e440570" d="M271.28,31c.06.65.09,1.3.09,2a17.65,17.65,0,0,1-4.11,11.9H243.81a17.64,17.64,0,0,1-4.1-11.9,17.59,17.59,0,0,1,4.1-11.9h23.45a16.55,16.55,0,0,1,3.57,7.09h-4.25a17.48,17.48,0,0,0-1.42-3.14H245.93a15.79,15.79,0,0,0-2.27,8,15.84,15.84,0,0,0,2.27,8h19.23a17.4,17.4,0,0,0,2.12-6H252.94V31Z" transform="translate(-0.06 -0.03)"/><path class="b5c19815-f1e2-47e3-b367-44bf7e440570" d="M301.15,41h2.64a17.2,17.2,0,0,0,2.12-6H282.42a17,17,0,0,0,2.14,6h2.63v3.95h-4.75a17.09,17.09,0,0,1-4-9.94h-3.73V31h3.73a17,17,0,0,1,4-9.92H305.9a17.09,17.09,0,0,1,4,9.94l-1.71,1v2l1.71,1a17.14,17.14,0,0,1-4,9.94h-4.75ZM282.42,31h23.49a17,17,0,0,0-2.12-6H284.56A16.89,16.89,0,0,0,282.42,31Z" transform="translate(-0.06 -0.03)"/><path class="b5c19815-f1e2-47e3-b367-44bf7e440570" d="M319.84,38.29l-4.17,6.62h-4.93l15.13-23.8h4.55l15,23.8h-4.86l-4.12-6.62ZM334,34.35,328.18,25l-5.86,9.31Z" transform="translate(-0.06 -0.03)"/><path class="b5c19815-f1e2-47e3-b367-44bf7e440570" d="M376.45,35H350.67a17,17,0,0,0,2.14,6h2.63v3.95h-4.75a17.09,17.09,0,0,1-4-9.94h-3.74V31h3.74a17,17,0,0,1,4-9.92h23.46a17.64,17.64,0,0,1,4.1,11.9ZM350.67,31h23.49a17,17,0,0,0-2.12-6H352.81A16.89,16.89,0,0,0,350.67,31Z" transform="translate(-0.06 -0.03)"/><path class="b5c19815-f1e2-47e3-b367-44bf7e440570" d="M385.57,35a17,17,0,0,0,2.14,6h2.62v3.95h-4.75a17.69,17.69,0,0,1-4.1-11.9,17.64,17.64,0,0,1,4.1-11.9h4.75v3.95h-2.62a16.89,16.89,0,0,0-2.14,6h23.49a17.06,17.06,0,0,0-2.13-6h-2.64V21.11H409a17.59,17.59,0,0,1,4.1,11.9,17.64,17.64,0,0,1-4.1,11.9h-4.75V41h2.64a17.22,17.22,0,0,0,2.13-6Z" transform="translate(-0.06 -0.03)"/><path class="b5c19815-f1e2-47e3-b367-44bf7e440570" d="M454.91,44.91l-11.45-9.29L432,44.91h-6.41L440.25,33l-14.66-11.9H432l11.46,9.29,11.45-9.29h6.41L446.66,33l14.66,11.9Z" transform="translate(-0.06 -0.03)"/></g><g id="b1047ee1-8923-43a0-ad18-799a6ab11e6c" data-name="nec"><path class="bd3c126e-4b53-4ff2-89db-3c29c043ba53" d="M18.18,64.94V60.38a5,5,0,0,1,1.51-2.82l8.88-8H18.18V46.83H32.35v4.76a3.56,3.56,0,0,1-1.15,2.65l-8.89,8h10v2.7ZM32.45,8.25a44.42,44.42,0,0,1,.21,9.85,14.71,14.71,0,0,1-1.47,5.56c-1.14,2.19-3.69,2.89-6,2.86-2.14,0-4.42-.66-5.66-2.56a10.09,10.09,0,0,1-1.34-4,40.83,40.83,0,0,1-.12-11.52h2c-.86,4.45-.65,9.15,1.4,10.75a5.46,5.46,0,0,0,3.6,1.14c1.92,0,4.84-.66,5.4-4.56a22.84,22.84,0,0,0-.36-7.52Zm-2.2,27.87V27.49h2.11c.17,4.25.24,8.32.06,12.61-.15,3.63-2,4.26-3.73,4.33H18.18V27.7h2V38.52h3.61V28.66h2v9.86c1.06,0,2.27,0,2.49,0,1.37-.06,1.88-.7,2-2.36" transform="translate(-0.06 -0.03)"/></g></svg>